<?xml version="1.0" encoding="utf-8" standalone="no"?>
<!DOCTYPE svg PUBLIC "-//W3C//DTD SVG 1.1//EN"
  "http://www.w3.org/Graphics/SVG/1.1/DTD/svg11.dtd">
<svg xmlns:xlink="http://www.w3.org/1999/xlink" width="395.328125pt" height="266.51625pt" viewBox="0 0 395.328125 266.51625" xmlns="http://www.w3.org/2000/svg" version="1.1">
 <metadata>
  <rdf:RDF xmlns:dc="http://purl.org/dc/elements/1.1/" xmlns:cc="http://creativecommons.org/ns#" xmlns:rdf="http://www.w3.org/1999/02/22-rdf-syntax-ns#">
   <cc:Work>
    <dc:type rdf:resource="http://purl.org/dc/dcmitype/StillImage"/>
    <dc:date>2025-04-29T09:31:36.753469</dc:date>
    <dc:format>image/svg+xml</dc:format>
    <dc:creator>
     <cc:Agent>
      <dc:title>Matplotlib v3.10.1, https://matplotlib.org/</dc:title>
     </cc:Agent>
    </dc:creator>
   </cc:Work>
  </rdf:RDF>
 </metadata>
 <defs>
  <style type="text/css">*{stroke-linejoin: round; stroke-linecap: butt}</style>
 </defs>
 <g id="figure_1">
  <g id="patch_1">
   <path d="M 0 266.51625 
L 395.328125 266.51625 
L 395.328125 0 
L 0 0 
z
" style="fill: #ffffff"/>
  </g>
  <g id="axes_1">
   <g id="patch_2">
    <path d="M 53.328125 228.96 
L 388.128125 228.96 
L 388.128125 7.2 
L 53.328125 7.2 
z
" style="fill: #ffffff"/>
   </g>
   <g id="matplotlib.axis_1">
    <g id="xtick_1">
     <g id="line2d_1">
      <defs>
       <path id="ma2dde95bf0" d="M 0 0 
L 0 3.5 
" style="stroke: #000000; stroke-width: 0.8"/>
      </defs>
      <g>
       <use xlink:href="#ma2dde95bf0" x="75.629017" y="228.96" style="stroke: #000000; stroke-width: 0.8"/>
      </g>
     </g>
     <g id="text_1">
      <!-- 20000 -->
      <g transform="translate(59.722767 243.558437) scale(0.1 -0.1)">
       <defs>
        <path id="DejaVuSans-32" d="M 1228 531 
L 3431 531 
L 3431 0 
L 469 0 
L 469 531 
Q 828 903 1448 1529 
Q 2069 2156 2228 2338 
Q 2531 2678 2651 2914 
Q 2772 3150 2772 3378 
Q 2772 3750 2511 3984 
Q 2250 4219 1831 4219 
Q 1534 4219 1204 4116 
Q 875 4013 500 3803 
L 500 4441 
Q 881 4594 1212 4672 
Q 1544 4750 1819 4750 
Q 2544 4750 2975 4387 
Q 3406 4025 3406 3419 
Q 3406 3131 3298 2873 
Q 3191 2616 2906 2266 
Q 2828 2175 2409 1742 
Q 1991 1309 1228 531 
z
" transform="scale(0.015625)"/>
        <path id="DejaVuSans-30" d="M 2034 4250 
Q 1547 4250 1301 3770 
Q 1056 3291 1056 2328 
Q 1056 1369 1301 889 
Q 1547 409 2034 409 
Q 2525 409 2770 889 
Q 3016 1369 3016 2328 
Q 3016 3291 2770 3770 
Q 2525 4250 2034 4250 
z
M 2034 4750 
Q 2819 4750 3233 4129 
Q 3647 3509 3647 2328 
Q 3647 1150 3233 529 
Q 2819 -91 2034 -91 
Q 1250 -91 836 529 
Q 422 1150 422 2328 
Q 422 3509 836 4129 
Q 1250 4750 2034 4750 
z
" transform="scale(0.015625)"/>
       </defs>
       <use xlink:href="#DejaVuSans-32"/>
       <use xlink:href="#DejaVuSans-30" transform="translate(63.623047 0)"/>
       <use xlink:href="#DejaVuSans-30" transform="translate(127.246094 0)"/>
       <use xlink:href="#DejaVuSans-30" transform="translate(190.869141 0)"/>
       <use xlink:href="#DejaVuSans-30" transform="translate(254.492188 0)"/>
      </g>
     </g>
    </g>
    <g id="xtick_2">
     <g id="line2d_2">
      <g>
       <use xlink:href="#ma2dde95bf0" x="123.011477" y="228.96" style="stroke: #000000; stroke-width: 0.8"/>
      </g>
     </g>
     <g id="text_2">
      <!-- 30000 -->
      <g transform="translate(107.105227 243.558437) scale(0.1 -0.1)">
       <defs>
        <path id="DejaVuSans-33" d="M 2597 2516 
Q 3050 2419 3304 2112 
Q 3559 1806 3559 1356 
Q 3559 666 3084 287 
Q 2609 -91 1734 -91 
Q 1441 -91 1130 -33 
Q 819 25 488 141 
L 488 750 
Q 750 597 1062 519 
Q 1375 441 1716 441 
Q 2309 441 2620 675 
Q 2931 909 2931 1356 
Q 2931 1769 2642 2001 
Q 2353 2234 1838 2234 
L 1294 2234 
L 1294 2753 
L 1863 2753 
Q 2328 2753 2575 2939 
Q 2822 3125 2822 3475 
Q 2822 3834 2567 4026 
Q 2313 4219 1838 4219 
Q 1578 4219 1281 4162 
Q 984 4106 628 3988 
L 628 4550 
Q 988 4650 1302 4700 
Q 1616 4750 1894 4750 
Q 2613 4750 3031 4423 
Q 3450 4097 3450 3541 
Q 3450 3153 3228 2886 
Q 3006 2619 2597 2516 
z
" transform="scale(0.015625)"/>
       </defs>
       <use xlink:href="#DejaVuSans-33"/>
       <use xlink:href="#DejaVuSans-30" transform="translate(63.623047 0)"/>
       <use xlink:href="#DejaVuSans-30" transform="translate(127.246094 0)"/>
       <use xlink:href="#DejaVuSans-30" transform="translate(190.869141 0)"/>
       <use xlink:href="#DejaVuSans-30" transform="translate(254.492188 0)"/>
      </g>
     </g>
    </g>
    <g id="xtick_3">
     <g id="line2d_3">
      <g>
       <use xlink:href="#ma2dde95bf0" x="170.393937" y="228.96" style="stroke: #000000; stroke-width: 0.8"/>
      </g>
     </g>
     <g id="text_3">
      <!-- 40000 -->
      <g transform="translate(154.487687 243.558437) scale(0.1 -0.1)">
       <defs>
        <path id="DejaVuSans-34" d="M 2419 4116 
L 825 1625 
L 2419 1625 
L 2419 4116 
z
M 2253 4666 
L 3047 4666 
L 3047 1625 
L 3713 1625 
L 3713 1100 
L 3047 1100 
L 3047 0 
L 2419 0 
L 2419 1100 
L 313 1100 
L 313 1709 
L 2253 4666 
z
" transform="scale(0.015625)"/>
       </defs>
       <use xlink:href="#DejaVuSans-34"/>
       <use xlink:href="#DejaVuSans-30" transform="translate(63.623047 0)"/>
       <use xlink:href="#DejaVuSans-30" transform="translate(127.246094 0)"/>
       <use xlink:href="#DejaVuSans-30" transform="translate(190.869141 0)"/>
       <use xlink:href="#DejaVuSans-30" transform="translate(254.492188 0)"/>
      </g>
     </g>
    </g>
    <g id="xtick_4">
     <g id="line2d_4">
      <g>
       <use xlink:href="#ma2dde95bf0" x="217.776398" y="228.96" style="stroke: #000000; stroke-width: 0.8"/>
      </g>
     </g>
     <g id="text_4">
      <!-- 50000 -->
      <g transform="translate(201.870148 243.558437) scale(0.1 -0.1)">
       <defs>
        <path id="DejaVuSans-35" d="M 691 4666 
L 3169 4666 
L 3169 4134 
L 1269 4134 
L 1269 2991 
Q 1406 3038 1543 3061 
Q 1681 3084 1819 3084 
Q 2600 3084 3056 2656 
Q 3513 2228 3513 1497 
Q 3513 744 3044 326 
Q 2575 -91 1722 -91 
Q 1428 -91 1123 -41 
Q 819 9 494 109 
L 494 744 
Q 775 591 1075 516 
Q 1375 441 1709 441 
Q 2250 441 2565 725 
Q 2881 1009 2881 1497 
Q 2881 1984 2565 2268 
Q 2250 2553 1709 2553 
Q 1456 2553 1204 2497 
Q 953 2441 691 2322 
L 691 4666 
z
" transform="scale(0.015625)"/>
       </defs>
       <use xlink:href="#DejaVuSans-35"/>
       <use xlink:href="#DejaVuSans-30" transform="translate(63.623047 0)"/>
       <use xlink:href="#DejaVuSans-30" transform="translate(127.246094 0)"/>
       <use xlink:href="#DejaVuSans-30" transform="translate(190.869141 0)"/>
       <use xlink:href="#DejaVuSans-30" transform="translate(254.492188 0)"/>
      </g>
     </g>
    </g>
    <g id="xtick_5">
     <g id="line2d_5">
      <g>
       <use xlink:href="#ma2dde95bf0" x="265.158858" y="228.96" style="stroke: #000000; stroke-width: 0.8"/>
      </g>
     </g>
     <g id="text_5">
      <!-- 60000 -->
      <g transform="translate(249.252608 243.558437) scale(0.1 -0.1)">
       <defs>
        <path id="DejaVuSans-36" d="M 2113 2584 
Q 1688 2584 1439 2293 
Q 1191 2003 1191 1497 
Q 1191 994 1439 701 
Q 1688 409 2113 409 
Q 2538 409 2786 701 
Q 3034 994 3034 1497 
Q 3034 2003 2786 2293 
Q 2538 2584 2113 2584 
z
M 3366 4563 
L 3366 3988 
Q 3128 4100 2886 4159 
Q 2644 4219 2406 4219 
Q 1781 4219 1451 3797 
Q 1122 3375 1075 2522 
Q 1259 2794 1537 2939 
Q 1816 3084 2150 3084 
Q 2853 3084 3261 2657 
Q 3669 2231 3669 1497 
Q 3669 778 3244 343 
Q 2819 -91 2113 -91 
Q 1303 -91 875 529 
Q 447 1150 447 2328 
Q 447 3434 972 4092 
Q 1497 4750 2381 4750 
Q 2619 4750 2861 4703 
Q 3103 4656 3366 4563 
z
" transform="scale(0.015625)"/>
       </defs>
       <use xlink:href="#DejaVuSans-36"/>
       <use xlink:href="#DejaVuSans-30" transform="translate(63.623047 0)"/>
       <use xlink:href="#DejaVuSans-30" transform="translate(127.246094 0)"/>
       <use xlink:href="#DejaVuSans-30" transform="translate(190.869141 0)"/>
       <use xlink:href="#DejaVuSans-30" transform="translate(254.492188 0)"/>
      </g>
     </g>
    </g>
    <g id="xtick_6">
     <g id="line2d_6">
      <g>
       <use xlink:href="#ma2dde95bf0" x="312.541319" y="228.96" style="stroke: #000000; stroke-width: 0.8"/>
      </g>
     </g>
     <g id="text_6">
      <!-- 70000 -->
      <g transform="translate(296.635069 243.558437) scale(0.1 -0.1)">
       <defs>
        <path id="DejaVuSans-37" d="M 525 4666 
L 3525 4666 
L 3525 4397 
L 1831 0 
L 1172 0 
L 2766 4134 
L 525 4134 
L 525 4666 
z
" transform="scale(0.015625)"/>
       </defs>
       <use xlink:href="#DejaVuSans-37"/>
       <use xlink:href="#DejaVuSans-30" transform="translate(63.623047 0)"/>
       <use xlink:href="#DejaVuSans-30" transform="translate(127.246094 0)"/>
       <use xlink:href="#DejaVuSans-30" transform="translate(190.869141 0)"/>
       <use xlink:href="#DejaVuSans-30" transform="translate(254.492188 0)"/>
      </g>
     </g>
    </g>
    <g id="xtick_7">
     <g id="line2d_7">
      <g>
       <use xlink:href="#ma2dde95bf0" x="359.923779" y="228.96" style="stroke: #000000; stroke-width: 0.8"/>
      </g>
     </g>
     <g id="text_7">
      <!-- 80000 -->
      <g transform="translate(344.017529 243.558437) scale(0.1 -0.1)">
       <defs>
        <path id="DejaVuSans-38" d="M 2034 2216 
Q 1584 2216 1326 1975 
Q 1069 1734 1069 1313 
Q 1069 891 1326 650 
Q 1584 409 2034 409 
Q 2484 409 2743 651 
Q 3003 894 3003 1313 
Q 3003 1734 2745 1975 
Q 2488 2216 2034 2216 
z
M 1403 2484 
Q 997 2584 770 2862 
Q 544 3141 544 3541 
Q 544 4100 942 4425 
Q 1341 4750 2034 4750 
Q 2731 4750 3128 4425 
Q 3525 4100 3525 3541 
Q 3525 3141 3298 2862 
Q 3072 2584 2669 2484 
Q 3125 2378 3379 2068 
Q 3634 1759 3634 1313 
Q 3634 634 3220 271 
Q 2806 -91 2034 -91 
Q 1263 -91 848 271 
Q 434 634 434 1313 
Q 434 1759 690 2068 
Q 947 2378 1403 2484 
z
M 1172 3481 
Q 1172 3119 1398 2916 
Q 1625 2713 2034 2713 
Q 2441 2713 2670 2916 
Q 2900 3119 2900 3481 
Q 2900 3844 2670 4047 
Q 2441 4250 2034 4250 
Q 1625 4250 1398 4047 
Q 1172 3844 1172 3481 
z
" transform="scale(0.015625)"/>
       </defs>
       <use xlink:href="#DejaVuSans-38"/>
       <use xlink:href="#DejaVuSans-30" transform="translate(63.623047 0)"/>
       <use xlink:href="#DejaVuSans-30" transform="translate(127.246094 0)"/>
       <use xlink:href="#DejaVuSans-30" transform="translate(190.869141 0)"/>
       <use xlink:href="#DejaVuSans-30" transform="translate(254.492188 0)"/>
      </g>
     </g>
    </g>
    <g id="text_8">
     <!-- toa [µs] -->
     <g transform="translate(201.367969 257.236562) scale(0.1 -0.1)">
      <defs>
       <path id="DejaVuSans-74" d="M 1172 4494 
L 1172 3500 
L 2356 3500 
L 2356 3053 
L 1172 3053 
L 1172 1153 
Q 1172 725 1289 603 
Q 1406 481 1766 481 
L 2356 481 
L 2356 0 
L 1766 0 
Q 1100 0 847 248 
Q 594 497 594 1153 
L 594 3053 
L 172 3053 
L 172 3500 
L 594 3500 
L 594 4494 
L 1172 4494 
z
" transform="scale(0.015625)"/>
       <path id="DejaVuSans-6f" d="M 1959 3097 
Q 1497 3097 1228 2736 
Q 959 2375 959 1747 
Q 959 1119 1226 758 
Q 1494 397 1959 397 
Q 2419 397 2687 759 
Q 2956 1122 2956 1747 
Q 2956 2369 2687 2733 
Q 2419 3097 1959 3097 
z
M 1959 3584 
Q 2709 3584 3137 3096 
Q 3566 2609 3566 1747 
Q 3566 888 3137 398 
Q 2709 -91 1959 -91 
Q 1206 -91 779 398 
Q 353 888 353 1747 
Q 353 2609 779 3096 
Q 1206 3584 1959 3584 
z
" transform="scale(0.015625)"/>
       <path id="DejaVuSans-61" d="M 2194 1759 
Q 1497 1759 1228 1600 
Q 959 1441 959 1056 
Q 959 750 1161 570 
Q 1363 391 1709 391 
Q 2188 391 2477 730 
Q 2766 1069 2766 1631 
L 2766 1759 
L 2194 1759 
z
M 3341 1997 
L 3341 0 
L 2766 0 
L 2766 531 
Q 2569 213 2275 61 
Q 1981 -91 1556 -91 
Q 1019 -91 701 211 
Q 384 513 384 1019 
Q 384 1609 779 1909 
Q 1175 2209 1959 2209 
L 2766 2209 
L 2766 2266 
Q 2766 2663 2505 2880 
Q 2244 3097 1772 3097 
Q 1472 3097 1187 3025 
Q 903 2953 641 2809 
L 641 3341 
Q 956 3463 1253 3523 
Q 1550 3584 1831 3584 
Q 2591 3584 2966 3190 
Q 3341 2797 3341 1997 
z
" transform="scale(0.015625)"/>
       <path id="DejaVuSans-20" transform="scale(0.015625)"/>
       <path id="DejaVuSans-5b" d="M 550 4863 
L 1875 4863 
L 1875 4416 
L 1125 4416 
L 1125 -397 
L 1875 -397 
L 1875 -844 
L 550 -844 
L 550 4863 
z
" transform="scale(0.015625)"/>
       <path id="DejaVuSans-b5" d="M 544 -1331 
L 544 3500 
L 1119 3500 
L 1119 1325 
Q 1119 872 1334 640 
Q 1550 409 1972 409 
Q 2434 409 2667 671 
Q 2900 934 2900 1459 
L 2900 3500 
L 3475 3500 
L 3475 806 
Q 3475 619 3529 530 
Q 3584 441 3700 441 
Q 3728 441 3778 458 
Q 3828 475 3916 513 
L 3916 50 
Q 3788 -22 3673 -56 
Q 3559 -91 3450 -91 
Q 3234 -91 3106 31 
Q 2978 153 2931 403 
Q 2775 156 2548 32 
Q 2322 -91 2016 -91 
Q 1697 -91 1473 31 
Q 1250 153 1119 397 
L 1119 -1331 
L 544 -1331 
z
" transform="scale(0.015625)"/>
       <path id="DejaVuSans-73" d="M 2834 3397 
L 2834 2853 
Q 2591 2978 2328 3040 
Q 2066 3103 1784 3103 
Q 1356 3103 1142 2972 
Q 928 2841 928 2578 
Q 928 2378 1081 2264 
Q 1234 2150 1697 2047 
L 1894 2003 
Q 2506 1872 2764 1633 
Q 3022 1394 3022 966 
Q 3022 478 2636 193 
Q 2250 -91 1575 -91 
Q 1294 -91 989 -36 
Q 684 19 347 128 
L 347 722 
Q 666 556 975 473 
Q 1284 391 1588 391 
Q 1994 391 2212 530 
Q 2431 669 2431 922 
Q 2431 1156 2273 1281 
Q 2116 1406 1581 1522 
L 1381 1569 
Q 847 1681 609 1914 
Q 372 2147 372 2553 
Q 372 3047 722 3315 
Q 1072 3584 1716 3584 
Q 2034 3584 2315 3537 
Q 2597 3491 2834 3397 
z
" transform="scale(0.015625)"/>
       <path id="DejaVuSans-5d" d="M 1947 4863 
L 1947 -844 
L 622 -844 
L 622 -397 
L 1369 -397 
L 1369 4416 
L 622 4416 
L 622 4863 
L 1947 4863 
z
" transform="scale(0.015625)"/>
      </defs>
      <use xlink:href="#DejaVuSans-74"/>
      <use xlink:href="#DejaVuSans-6f" transform="translate(39.208984 0)"/>
      <use xlink:href="#DejaVuSans-61" transform="translate(100.390625 0)"/>
      <use xlink:href="#DejaVuSans-20" transform="translate(161.669922 0)"/>
      <use xlink:href="#DejaVuSans-5b" transform="translate(193.457031 0)"/>
      <use xlink:href="#DejaVuSans-b5" transform="translate(232.470703 0)"/>
      <use xlink:href="#DejaVuSans-73" transform="translate(296.09375 0)"/>
      <use xlink:href="#DejaVuSans-5d" transform="translate(348.193359 0)"/>
     </g>
    </g>
   </g>
   <g id="matplotlib.axis_2">
    <g id="ytick_1">
     <g id="line2d_8">
      <defs>
       <path id="m959b3e8c5e" d="M 0 0 
L -3.5 0 
" style="stroke: #000000; stroke-width: 0.8"/>
      </defs>
      <g>
       <use xlink:href="#m959b3e8c5e" x="53.328125" y="218.938639" style="stroke: #000000; stroke-width: 0.8"/>
      </g>
     </g>
     <g id="text_9">
      <!-- 0 -->
      <g transform="translate(39.965625 222.737857) scale(0.1 -0.1)">
       <use xlink:href="#DejaVuSans-30"/>
      </g>
     </g>
    </g>
    <g id="ytick_2">
     <g id="line2d_9">
      <g>
       <use xlink:href="#m959b3e8c5e" x="53.328125" y="189.619267" style="stroke: #000000; stroke-width: 0.8"/>
      </g>
     </g>
     <g id="text_10">
      <!-- 500 -->
      <g transform="translate(27.240625 193.418486) scale(0.1 -0.1)">
       <use xlink:href="#DejaVuSans-35"/>
       <use xlink:href="#DejaVuSans-30" transform="translate(63.623047 0)"/>
       <use xlink:href="#DejaVuSans-30" transform="translate(127.246094 0)"/>
      </g>
     </g>
    </g>
    <g id="ytick_3">
     <g id="line2d_10">
      <g>
       <use xlink:href="#m959b3e8c5e" x="53.328125" y="160.299895" style="stroke: #000000; stroke-width: 0.8"/>
      </g>
     </g>
     <g id="text_11">
      <!-- 1000 -->
      <g transform="translate(20.878125 164.099114) scale(0.1 -0.1)">
       <defs>
        <path id="DejaVuSans-31" d="M 794 531 
L 1825 531 
L 1825 4091 
L 703 3866 
L 703 4441 
L 1819 4666 
L 2450 4666 
L 2450 531 
L 3481 531 
L 3481 0 
L 794 0 
L 794 531 
z
" transform="scale(0.015625)"/>
       </defs>
       <use xlink:href="#DejaVuSans-31"/>
       <use xlink:href="#DejaVuSans-30" transform="translate(63.623047 0)"/>
       <use xlink:href="#DejaVuSans-30" transform="translate(127.246094 0)"/>
       <use xlink:href="#DejaVuSans-30" transform="translate(190.869141 0)"/>
      </g>
     </g>
    </g>
    <g id="ytick_4">
     <g id="line2d_11">
      <g>
       <use xlink:href="#m959b3e8c5e" x="53.328125" y="130.980524" style="stroke: #000000; stroke-width: 0.8"/>
      </g>
     </g>
     <g id="text_12">
      <!-- 1500 -->
      <g transform="translate(20.878125 134.779742) scale(0.1 -0.1)">
       <use xlink:href="#DejaVuSans-31"/>
       <use xlink:href="#DejaVuSans-35" transform="translate(63.623047 0)"/>
       <use xlink:href="#DejaVuSans-30" transform="translate(127.246094 0)"/>
       <use xlink:href="#DejaVuSans-30" transform="translate(190.869141 0)"/>
      </g>
     </g>
    </g>
    <g id="ytick_5">
     <g id="line2d_12">
      <g>
       <use xlink:href="#m959b3e8c5e" x="53.328125" y="101.661152" style="stroke: #000000; stroke-width: 0.8"/>
      </g>
     </g>
     <g id="text_13">
      <!-- 2000 -->
      <g transform="translate(20.878125 105.460371) scale(0.1 -0.1)">
       <use xlink:href="#DejaVuSans-32"/>
       <use xlink:href="#DejaVuSans-30" transform="translate(63.623047 0)"/>
       <use xlink:href="#DejaVuSans-30" transform="translate(127.246094 0)"/>
       <use xlink:href="#DejaVuSans-30" transform="translate(190.869141 0)"/>
      </g>
     </g>
    </g>
    <g id="ytick_6">
     <g id="line2d_13">
      <g>
       <use xlink:href="#m959b3e8c5e" x="53.328125" y="72.34178" style="stroke: #000000; stroke-width: 0.8"/>
      </g>
     </g>
     <g id="text_14">
      <!-- 2500 -->
      <g transform="translate(20.878125 76.140999) scale(0.1 -0.1)">
       <use xlink:href="#DejaVuSans-32"/>
       <use xlink:href="#DejaVuSans-35" transform="translate(63.623047 0)"/>
       <use xlink:href="#DejaVuSans-30" transform="translate(127.246094 0)"/>
       <use xlink:href="#DejaVuSans-30" transform="translate(190.869141 0)"/>
      </g>
     </g>
    </g>
    <g id="ytick_7">
     <g id="line2d_14">
      <g>
       <use xlink:href="#m959b3e8c5e" x="53.328125" y="43.022408" style="stroke: #000000; stroke-width: 0.8"/>
      </g>
     </g>
     <g id="text_15">
      <!-- 3000 -->
      <g transform="translate(20.878125 46.821627) scale(0.1 -0.1)">
       <use xlink:href="#DejaVuSans-33"/>
       <use xlink:href="#DejaVuSans-30" transform="translate(63.623047 0)"/>
       <use xlink:href="#DejaVuSans-30" transform="translate(127.246094 0)"/>
       <use xlink:href="#DejaVuSans-30" transform="translate(190.869141 0)"/>
      </g>
     </g>
    </g>
    <g id="ytick_8">
     <g id="line2d_15">
      <g>
       <use xlink:href="#m959b3e8c5e" x="53.328125" y="13.703037" style="stroke: #000000; stroke-width: 0.8"/>
      </g>
     </g>
     <g id="text_16">
      <!-- 3500 -->
      <g transform="translate(20.878125 17.502255) scale(0.1 -0.1)">
       <use xlink:href="#DejaVuSans-33"/>
       <use xlink:href="#DejaVuSans-35" transform="translate(63.623047 0)"/>
       <use xlink:href="#DejaVuSans-30" transform="translate(127.246094 0)"/>
       <use xlink:href="#DejaVuSans-30" transform="translate(190.869141 0)"/>
      </g>
     </g>
    </g>
    <g id="text_17">
     <!-- pulse:0 [counts] -->
     <g transform="translate(14.798438 158.560469) rotate(-90) scale(0.1 -0.1)">
      <defs>
       <path id="DejaVuSans-70" d="M 1159 525 
L 1159 -1331 
L 581 -1331 
L 581 3500 
L 1159 3500 
L 1159 2969 
Q 1341 3281 1617 3432 
Q 1894 3584 2278 3584 
Q 2916 3584 3314 3078 
Q 3713 2572 3713 1747 
Q 3713 922 3314 415 
Q 2916 -91 2278 -91 
Q 1894 -91 1617 61 
Q 1341 213 1159 525 
z
M 3116 1747 
Q 3116 2381 2855 2742 
Q 2594 3103 2138 3103 
Q 1681 3103 1420 2742 
Q 1159 2381 1159 1747 
Q 1159 1113 1420 752 
Q 1681 391 2138 391 
Q 2594 391 2855 752 
Q 3116 1113 3116 1747 
z
" transform="scale(0.015625)"/>
       <path id="DejaVuSans-75" d="M 544 1381 
L 544 3500 
L 1119 3500 
L 1119 1403 
Q 1119 906 1312 657 
Q 1506 409 1894 409 
Q 2359 409 2629 706 
Q 2900 1003 2900 1516 
L 2900 3500 
L 3475 3500 
L 3475 0 
L 2900 0 
L 2900 538 
Q 2691 219 2414 64 
Q 2138 -91 1772 -91 
Q 1169 -91 856 284 
Q 544 659 544 1381 
z
M 1991 3584 
L 1991 3584 
z
" transform="scale(0.015625)"/>
       <path id="DejaVuSans-6c" d="M 603 4863 
L 1178 4863 
L 1178 0 
L 603 0 
L 603 4863 
z
" transform="scale(0.015625)"/>
       <path id="DejaVuSans-65" d="M 3597 1894 
L 3597 1613 
L 953 1613 
Q 991 1019 1311 708 
Q 1631 397 2203 397 
Q 2534 397 2845 478 
Q 3156 559 3463 722 
L 3463 178 
Q 3153 47 2828 -22 
Q 2503 -91 2169 -91 
Q 1331 -91 842 396 
Q 353 884 353 1716 
Q 353 2575 817 3079 
Q 1281 3584 2069 3584 
Q 2775 3584 3186 3129 
Q 3597 2675 3597 1894 
z
M 3022 2063 
Q 3016 2534 2758 2815 
Q 2500 3097 2075 3097 
Q 1594 3097 1305 2825 
Q 1016 2553 972 2059 
L 3022 2063 
z
" transform="scale(0.015625)"/>
       <path id="DejaVuSans-3a" d="M 750 794 
L 1409 794 
L 1409 0 
L 750 0 
L 750 794 
z
M 750 3309 
L 1409 3309 
L 1409 2516 
L 750 2516 
L 750 3309 
z
" transform="scale(0.015625)"/>
       <path id="DejaVuSans-63" d="M 3122 3366 
L 3122 2828 
Q 2878 2963 2633 3030 
Q 2388 3097 2138 3097 
Q 1578 3097 1268 2742 
Q 959 2388 959 1747 
Q 959 1106 1268 751 
Q 1578 397 2138 397 
Q 2388 397 2633 464 
Q 2878 531 3122 666 
L 3122 134 
Q 2881 22 2623 -34 
Q 2366 -91 2075 -91 
Q 1284 -91 818 406 
Q 353 903 353 1747 
Q 353 2603 823 3093 
Q 1294 3584 2113 3584 
Q 2378 3584 2631 3529 
Q 2884 3475 3122 3366 
z
" transform="scale(0.015625)"/>
       <path id="DejaVuSans-6e" d="M 3513 2113 
L 3513 0 
L 2938 0 
L 2938 2094 
Q 2938 2591 2744 2837 
Q 2550 3084 2163 3084 
Q 1697 3084 1428 2787 
Q 1159 2491 1159 1978 
L 1159 0 
L 581 0 
L 581 3500 
L 1159 3500 
L 1159 2956 
Q 1366 3272 1645 3428 
Q 1925 3584 2291 3584 
Q 2894 3584 3203 3211 
Q 3513 2838 3513 2113 
z
" transform="scale(0.015625)"/>
      </defs>
      <use xlink:href="#DejaVuSans-70"/>
      <use xlink:href="#DejaVuSans-75" transform="translate(63.476562 0)"/>
      <use xlink:href="#DejaVuSans-6c" transform="translate(126.855469 0)"/>
      <use xlink:href="#DejaVuSans-73" transform="translate(154.638672 0)"/>
      <use xlink:href="#DejaVuSans-65" transform="translate(206.738281 0)"/>
      <use xlink:href="#DejaVuSans-3a" transform="translate(268.261719 0)"/>
      <use xlink:href="#DejaVuSans-30" transform="translate(301.953125 0)"/>
      <use xlink:href="#DejaVuSans-20" transform="translate(365.576172 0)"/>
      <use xlink:href="#DejaVuSans-5b" transform="translate(397.363281 0)"/>
      <use xlink:href="#DejaVuSans-63" transform="translate(436.376953 0)"/>
      <use xlink:href="#DejaVuSans-6f" transform="translate(491.357422 0)"/>
      <use xlink:href="#DejaVuSans-75" transform="translate(552.539062 0)"/>
      <use xlink:href="#DejaVuSans-6e" transform="translate(615.917969 0)"/>
      <use xlink:href="#DejaVuSans-74" transform="translate(679.296875 0)"/>
      <use xlink:href="#DejaVuSans-73" transform="translate(718.505859 0)"/>
      <use xlink:href="#DejaVuSans-5d" transform="translate(770.605469 0)"/>
     </g>
    </g>
   </g>
   <g id="line2d_16">
    <path d="M 68.546307 218.88 
L 69.560852 218.88 
L 69.560852 218.762723 
L 71.589943 218.704084 
L 71.589943 218.586806 
L 72.604489 218.586806 
L 72.604489 218.41089 
L 75.648125 218.469529 
L 75.648125 217.765864 
L 77.677216 217.824503 
L 77.677216 217.355393 
L 78.691761 217.355393 
L 78.691761 216.358534 
L 79.706307 216.358534 
L 79.706307 216.710366 
L 80.720852 216.710366 
L 80.720852 216.06534 
L 81.735398 216.06534 
L 81.735398 214.892565 
L 82.749943 214.892565 
L 82.749943 213.602513 
L 83.764489 213.602513 
L 83.764489 211.491518 
L 84.779034 211.491518 
L 84.779034 208.676859 
L 85.79358 208.676859 
L 85.79358 203.985759 
L 86.808125 203.985759 
L 86.808125 200.936545 
L 87.82267 200.936545 
L 87.82267 194.662199 
L 88.837216 194.662199 
L 88.837216 187.390995 
L 89.851761 187.390995 
L 89.851761 181.351204 
L 90.866307 181.351204 
L 90.866307 166.63288 
L 91.880852 166.63288 
L 91.880852 158.247539 
L 92.895398 158.247539 
L 92.895398 146.343874 
L 93.909943 146.343874 
L 93.909943 135.847539 
L 94.924489 135.847539 
L 94.924489 124.706178 
L 95.939034 124.706178 
L 95.939034 114.268482 
L 96.95358 114.268482 
L 96.95358 105.414031 
L 97.968125 105.414031 
L 97.968125 100.429738 
L 98.98267 100.429738 
L 98.98267 94.74178 
L 99.997216 94.74178 
L 99.997216 86.063246 
L 101.011761 86.063246 
L 101.011761 76.446492 
L 102.026307 76.446492 
L 102.026307 72.986806 
L 103.040852 72.986806 
L 103.040852 69.644398 
L 104.055398 69.644398 
L 104.055398 62.314555 
L 105.069943 62.314555 
L 105.069943 59.206702 
L 106.084489 59.206702 
L 106.084489 48.53445 
L 107.099034 48.53445 
L 107.099034 51.173194 
L 108.11358 51.173194 
L 108.11358 46.951204 
L 109.128125 46.951204 
L 109.128125 42.436021 
L 110.14267 42.436021 
L 110.14267 38.976335 
L 111.157216 38.976335 
L 111.157216 41.204607 
L 112.171761 41.204607 
L 112.171761 37.217173 
L 113.186307 37.217173 
L 113.186307 32.115602 
L 114.200852 32.115602 
L 114.200852 32.70199 
L 115.215398 32.70199 
L 115.215398 25.020314 
L 116.229943 25.020314 
L 116.229943 22.440209 
L 118.259034 22.381571 
L 118.259034 25.606702 
L 119.27358 25.606702 
L 119.27358 19.215079 
L 120.288125 19.215079 
L 120.288125 19.62555 
L 121.30267 19.62555 
L 121.30267 17.28 
L 122.317216 17.28 
L 122.317216 19.332356 
L 123.331761 19.332356 
L 123.331761 26.369005 
L 124.346307 26.369005 
L 124.346307 23.378429 
L 125.360852 23.378429 
L 125.360852 23.671623 
L 126.375398 23.671623 
L 126.375398 26.251728 
L 127.389943 26.251728 
L 127.389943 31.411937 
L 128.404489 31.411937 
L 128.404489 29.300942 
L 129.419034 29.300942 
L 129.419034 38.448586 
L 130.43358 38.448586 
L 130.43358 43.726073 
L 131.448125 43.726073 
L 131.448125 49.47267 
L 132.46267 49.47267 
L 132.46267 52.345969 
L 133.477216 52.345969 
L 133.477216 56.509319 
L 134.491761 56.509319 
L 134.491761 58.972147 
L 135.506307 58.972147 
L 135.506307 58.79623 
L 136.520852 58.79623 
L 136.520852 68.471623 
L 137.535398 68.471623 
L 137.535398 72.81089 
L 138.549943 72.81089 
L 138.549943 77.677906 
L 139.564489 77.677906 
L 139.564489 82.193089 
L 140.579034 82.193089 
L 140.579034 91.692565 
L 141.59358 91.692565 
L 141.59358 97.204607 
L 142.608125 97.204607 
L 142.608125 103.537592 
L 143.62267 103.537592 
L 143.62267 109.342827 
L 144.637216 109.342827 
L 144.637216 114.737592 
L 145.651761 114.737592 
L 145.651761 119.370052 
L 146.666307 119.370052 
L 146.666307 132.211937 
L 147.680852 132.211937 
L 147.680852 138.13445 
L 148.695398 138.13445 
L 148.695398 141.300942 
L 149.709943 141.300942 
L 149.709943 148.044398 
L 150.724489 148.044398 
L 150.724489 150.74178 
L 151.739034 150.74178 
L 151.739034 154.084188 
L 152.75358 154.084188 
L 152.75358 154.611937 
L 153.768125 154.611937 
L 153.768125 164.932356 
L 154.78267 164.932356 
L 154.78267 166.281047 
L 155.797216 166.281047 
L 155.797216 173.376335 
L 156.811761 173.376335 
L 156.811761 175.311414 
L 157.826307 175.311414 
L 157.826307 177.481047 
L 158.840852 177.481047 
L 158.840852 182.582618 
L 159.855398 182.582618 
L 159.855398 185.162723 
L 160.869943 185.162723 
L 160.869943 187.390995 
L 161.884489 187.390995 
L 161.884489 190.674764 
L 162.899034 190.674764 
L 162.899034 194.779476 
L 163.91358 194.779476 
L 163.91358 196.831832 
L 164.928125 196.831832 
L 164.928125 199.881047 
L 165.94267 199.881047 
L 165.94267 201.522932 
L 166.957216 201.522932 
L 166.957216 205.451728 
L 167.971761 205.451728 
L 167.971761 206.624503 
L 168.986307 206.624503 
L 168.986307 209.497801 
L 170.000852 209.497801 
L 170.000852 210.670576 
L 171.015398 210.670576 
L 171.015398 212.488377 
L 172.029943 212.488377 
L 172.029943 213.661152 
L 173.044489 213.661152 
L 173.044489 215.303037 
L 174.059034 215.303037 
L 174.059034 217.179476 
L 175.07358 217.179476 
L 175.07358 217.47267 
L 176.088125 217.47267 
L 176.088125 218.528168 
L 178.117216 218.586806 
L 178.117216 218.41089 
L 179.131761 218.41089 
L 179.131761 218.293613 
L 180.146307 218.293613 
L 180.146307 218.117696 
L 181.160852 218.117696 
L 181.160852 217.589948 
L 183.189943 217.648586 
L 183.189943 217.47267 
L 184.204489 217.47267 
L 184.204489 217.179476 
L 185.219034 217.179476 
L 185.219034 215.772147 
L 186.23358 215.772147 
L 186.23358 216.123979 
L 187.248125 216.123979 
L 187.248125 214.833927 
L 188.26267 214.833927 
L 188.26267 213.837068 
L 189.277216 213.837068 
L 189.277216 213.074764 
L 190.291761 213.074764 
L 190.291761 210.436021 
L 191.306307 210.436021 
L 191.306307 209.849634 
L 192.320852 209.849634 
L 192.320852 207.152251 
L 193.335398 207.152251 
L 193.335398 207.328168 
L 194.349943 207.328168 
L 194.349943 206.155393 
L 195.364489 206.155393 
L 195.364489 205.217173 
L 196.379034 205.217173 
L 196.379034 202.343874 
L 197.39358 202.343874 
L 197.39358 202.109319 
L 198.408125 202.109319 
L 198.408125 202.930262 
L 199.42267 202.930262 
L 199.42267 198.180524 
L 200.437216 198.180524 
L 200.437216 198.884188 
L 201.451761 198.884188 
L 201.451761 195.717696 
L 202.466307 195.717696 
L 202.466307 198.121885 
L 203.480852 198.121885 
L 203.480852 196.538639 
L 204.495398 196.538639 
L 204.495398 196.01089 
L 205.509943 196.01089 
L 205.509943 196.655916 
L 206.524489 196.655916 
L 206.524489 192.492565 
L 207.539034 192.492565 
L 207.539034 193.372147 
L 209.568125 193.372147 
L 209.568125 193.782618 
L 210.58267 193.782618 
L 210.58267 191.671623 
L 211.597216 191.671623 
L 211.597216 191.202513 
L 212.611761 191.202513 
L 212.611761 191.847539 
L 213.626307 191.847539 
L 213.626307 191.437068 
L 214.640852 191.437068 
L 214.640852 189.208796 
L 215.655398 189.208796 
L 215.655398 189.853822 
L 216.669943 189.853822 
L 216.669943 189.091518 
L 217.684489 189.091518 
L 217.684489 187.860105 
L 218.699034 187.860105 
L 218.699034 187.449634 
L 219.71358 187.449634 
L 219.71358 190.088377 
L 220.728125 190.088377 
L 220.728125 185.104084 
L 221.74267 185.104084 
L 221.74267 188.09466 
L 222.757216 188.09466 
L 222.757216 186.452775 
L 223.771761 186.452775 
L 223.771761 188.56377 
L 224.786307 188.56377 
L 224.786307 189.853822 
L 225.800852 189.853822 
L 225.800852 188.56377 
L 226.815398 188.56377 
L 226.815398 187.684188 
L 227.829943 187.684188 
L 227.829943 188.915602 
L 228.844489 188.915602 
L 228.844489 191.437068 
L 229.859034 191.437068 
L 229.859034 190.674764 
L 230.87358 190.674764 
L 230.87358 191.085236 
L 231.888125 191.085236 
L 231.888125 189.736545 
L 232.90267 189.736545 
L 232.90267 191.261152 
L 233.917216 191.261152 
L 233.917216 190.264293 
L 234.931761 190.264293 
L 234.931761 191.847539 
L 235.946307 191.847539 
L 235.946307 190.909319 
L 236.960852 190.909319 
L 236.960852 194.369005 
L 237.975398 194.369005 
L 237.975398 193.66534 
L 238.989943 193.66534 
L 238.989943 194.662199 
L 240.004489 194.662199 
L 240.004489 193.489424 
L 241.019034 193.489424 
L 241.019034 196.538639 
L 242.03358 196.538639 
L 242.03358 197.242304 
L 243.048125 197.242304 
L 243.048125 196.94911 
L 244.06267 196.94911 
L 244.06267 194.955393 
L 245.077216 194.955393 
L 245.077216 196.48 
L 246.091761 196.48 
L 246.091761 198.063246 
L 247.106307 198.063246 
L 247.106307 195.54178 
L 248.120852 195.54178 
L 248.120852 196.48 
L 249.135398 196.48 
L 249.135398 197.711414 
L 250.149943 197.711414 
L 250.149943 198.35644 
L 251.164489 198.35644 
L 251.164489 195.952251 
L 252.179034 195.952251 
L 252.179034 198.884188 
L 253.19358 198.884188 
L 253.19358 199.353298 
L 254.208125 199.353298 
L 254.208125 197.88733 
L 255.22267 197.88733 
L 255.22267 198.415079 
L 256.237216 198.415079 
L 256.237216 199.705131 
L 257.251761 199.705131 
L 257.251761 197.945969 
L 258.266307 197.945969 
L 258.266307 200.056963 
L 259.280852 200.056963 
L 259.280852 198.82555 
L 260.295398 198.82555 
L 260.295398 200.643351 
L 261.309943 200.643351 
L 261.309943 201.464293 
L 262.324489 201.464293 
L 262.324489 200.408796 
L 263.339034 200.408796 
L 263.339034 200.877906 
L 264.35358 200.877906 
L 264.35358 202.695707 
L 265.368125 202.695707 
L 265.368125 201.640209 
L 266.38267 201.640209 
L 266.38267 201.229738 
L 267.397216 201.229738 
L 267.397216 201.464293 
L 268.411761 201.464293 
L 268.411761 201.053822 
L 269.426307 201.053822 
L 269.426307 202.871623 
L 270.440852 202.871623 
L 270.440852 202.343874 
L 271.455398 202.343874 
L 271.455398 205.451728 
L 272.469943 205.451728 
L 272.469943 203.985759 
L 273.484489 203.985759 
L 273.484489 203.868482 
L 274.499034 203.868482 
L 274.499034 203.45801 
L 275.51358 203.45801 
L 275.51358 204.044398 
L 276.528125 204.044398 
L 276.528125 203.92712 
L 277.54267 203.92712 
L 277.54267 204.572147 
L 280.586307 204.630785 
L 280.586307 205.33445 
L 281.600852 205.33445 
L 281.600852 205.862199 
L 282.615398 205.862199 
L 282.615398 206.74178 
L 283.629943 206.74178 
L 283.629943 206.507225 
L 284.644489 206.507225 
L 284.644489 205.744921 
L 285.659034 205.744921 
L 285.659034 206.624503 
L 286.67358 206.624503 
L 286.67358 206.859058 
L 287.688125 206.859058 
L 287.688125 205.451728 
L 288.70267 205.451728 
L 288.70267 205.920838 
L 289.717216 205.920838 
L 289.717216 207.034974 
L 290.731761 207.034974 
L 290.731761 206.565864 
L 291.746307 206.565864 
L 291.746307 206.74178 
L 292.760852 206.74178 
L 292.760852 205.979476 
L 293.775398 205.979476 
L 293.775398 205.862199 
L 294.789943 205.862199 
L 294.789943 207.386806 
L 295.804489 207.386806 
L 295.804489 206.800419 
L 296.819034 206.800419 
L 296.819034 208.266387 
L 297.83358 208.266387 
L 297.83358 207.562723 
L 298.848125 207.562723 
L 298.848125 209.380524 
L 299.86267 209.380524 
L 299.86267 208.207749 
L 300.877216 208.207749 
L 300.877216 208.852775 
L 301.891761 208.852775 
L 301.891761 209.380524 
L 302.906307 209.380524 
L 302.906307 208.794136 
L 303.920852 208.794136 
L 303.920852 208.090471 
L 304.935398 208.090471 
L 304.935398 209.263246 
L 305.949943 209.263246 
L 305.949943 209.615079 
L 307.979034 209.673717 
L 307.979034 209.321885 
L 308.99358 209.321885 
L 308.99358 210.142827 
L 310.008125 210.142827 
L 310.008125 208.735497 
L 311.02267 208.735497 
L 311.02267 209.673717 
L 312.037216 209.673717 
L 312.037216 210.436021 
L 313.051761 210.436021 
L 313.051761 208.794136 
L 314.066307 208.794136 
L 314.066307 209.908272 
L 315.080852 209.908272 
L 315.080852 209.673717 
L 316.095398 209.673717 
L 316.095398 209.55644 
L 317.109943 209.55644 
L 317.109943 209.673717 
L 318.124489 209.673717 
L 318.124489 210.260105 
L 319.139034 210.260105 
L 319.139034 210.436021 
L 320.15358 210.436021 
L 320.15358 209.790995 
L 321.168125 209.790995 
L 321.168125 210.02555 
L 324.211761 210.084188 
L 324.211761 210.318743 
L 325.226307 210.318743 
L 325.226307 210.436021 
L 326.240852 210.436021 
L 326.240852 213.133403 
L 327.255398 213.133403 
L 327.255398 210.905131 
L 328.269943 210.905131 
L 328.269943 211.315602 
L 331.31358 211.315602 
L 331.31358 212.136545 
L 332.328125 212.136545 
L 332.328125 212.253822 
L 334.357216 212.253822 
L 334.357216 211.90199 
L 335.371761 211.90199 
L 335.371761 213.367958 
L 336.386307 213.367958 
L 336.386307 213.543874 
L 337.400852 213.543874 
L 337.400852 213.837068 
L 338.415398 213.837068 
L 338.415398 212.488377 
L 339.429943 212.488377 
L 339.429943 213.250681 
L 340.444489 213.250681 
L 340.444489 212.722932 
L 341.459034 212.722932 
L 341.459034 213.543874 
L 342.47358 213.543874 
L 342.47358 213.719791 
L 343.488125 213.719791 
L 343.488125 214.482094 
L 344.50267 214.482094 
L 344.50267 214.599372 
L 345.517216 214.599372 
L 345.517216 214.482094 
L 346.531761 214.482094 
L 346.531761 214.833927 
L 347.546307 214.833927 
L 347.546307 215.009843 
L 348.560852 215.009843 
L 348.560852 214.716649 
L 349.575398 214.716649 
L 349.575398 215.654869 
L 350.589943 215.654869 
L 350.589943 216.358534 
L 351.604489 216.358534 
L 351.604489 216.182618 
L 352.619034 216.182618 
L 352.619034 215.59623 
L 353.63358 215.59623 
L 353.63358 216.886283 
L 354.648125 216.886283 
L 354.648125 215.59623 
L 355.66267 215.59623 
L 355.66267 215.772147 
L 356.677216 215.772147 
L 356.677216 216.710366 
L 358.706307 216.769005 
L 358.706307 217.062199 
L 359.720852 217.062199 
L 359.720852 217.707225 
L 361.749943 217.707225 
L 361.749943 218.293613 
L 362.764489 218.293613 
L 362.764489 218.000419 
L 363.779034 218.000419 
L 363.779034 218.586806 
L 364.79358 218.586806 
L 364.79358 217.765864 
L 365.808125 217.765864 
L 365.808125 218.645445 
L 366.82267 218.645445 
L 366.82267 218.293613 
L 367.837216 218.293613 
L 367.837216 218.117696 
L 368.851761 218.117696 
L 368.851761 218.645445 
L 369.866307 218.645445 
L 369.866307 218.821361 
L 370.880852 218.821361 
L 370.880852 218.586806 
L 371.895398 218.586806 
L 371.895398 218.762723 
L 372.909943 218.762723 
L 372.909943 218.762723 
" clip-path="url(#pa9ba4f4e02)" style="fill: none; stroke: #1f77b4; stroke-width: 1.5; stroke-linecap: square"/>
   </g>
   <g id="patch_3">
    <path d="M 53.328125 228.96 
L 53.328125 7.2 
" style="fill: none; stroke: #000000; stroke-width: 0.8; stroke-linejoin: miter; stroke-linecap: square"/>
   </g>
   <g id="patch_4">
    <path d="M 388.128125 228.96 
L 388.128125 7.2 
" style="fill: none; stroke: #000000; stroke-width: 0.8; stroke-linejoin: miter; stroke-linecap: square"/>
   </g>
   <g id="patch_5">
    <path d="M 53.328125 228.96 
L 388.128125 228.96 
" style="fill: none; stroke: #000000; stroke-width: 0.8; stroke-linejoin: miter; stroke-linecap: square"/>
   </g>
   <g id="patch_6">
    <path d="M 53.328125 7.2 
L 388.128125 7.2 
" style="fill: none; stroke: #000000; stroke-width: 0.8; stroke-linejoin: miter; stroke-linecap: square"/>
   </g>
  </g>
 </g>
 <defs>
  <clipPath id="pa9ba4f4e02">
   <rect x="53.328125" y="7.2" width="334.8" height="221.76"/>
  </clipPath>
 </defs>
</svg>
