<?xml version="1.0" encoding="utf-8" standalone="no"?>
<!DOCTYPE svg PUBLIC "-//W3C//DTD SVG 1.1//EN"
  "http://www.w3.org/Graphics/SVG/1.1/DTD/svg11.dtd">
<svg xmlns:xlink="http://www.w3.org/1999/xlink" width="401.690625pt" height="266.51625pt" viewBox="0 0 401.690625 266.51625" xmlns="http://www.w3.org/2000/svg" version="1.1">
 <metadata>
  <rdf:RDF xmlns:dc="http://purl.org/dc/elements/1.1/" xmlns:cc="http://creativecommons.org/ns#" xmlns:rdf="http://www.w3.org/1999/02/22-rdf-syntax-ns#">
   <cc:Work>
    <dc:type rdf:resource="http://purl.org/dc/dcmitype/StillImage"/>
    <dc:date>2025-11-13T11:11:45.650792</dc:date>
    <dc:format>image/svg+xml</dc:format>
    <dc:creator>
     <cc:Agent>
      <dc:title>Matplotlib v3.10.7, https://matplotlib.org/</dc:title>
     </cc:Agent>
    </dc:creator>
   </cc:Work>
  </rdf:RDF>
 </metadata>
 <defs>
  <style type="text/css">*{stroke-linejoin: round; stroke-linecap: butt}</style>
 </defs>
 <g id="figure_1">
  <g id="patch_1">
   <path d="M 0 266.51625 
L 401.690625 266.51625 
L 401.690625 0 
L 0 0 
z
" style="fill: #ffffff"/>
  </g>
  <g id="axes_1">
   <g id="patch_2">
    <path d="M 59.690625 228.96 
L 394.490625 228.96 
L 394.490625 7.2 
L 59.690625 7.2 
z
" style="fill: #ffffff"/>
   </g>
   <g id="matplotlib.axis_1">
    <g id="xtick_1">
     <g id="line2d_1">
      <defs>
       <path id="m23ffa265cf" d="M 0 0 
L 0 3.5 
" style="stroke: #000000; stroke-width: 0.8"/>
      </defs>
      <g>
       <use xlink:href="#m23ffa265cf" x="71.821522" y="228.96" style="stroke: #000000; stroke-width: 0.8"/>
      </g>
     </g>
     <g id="text_1">
      <!-- 0 -->
      <g transform="translate(68.640272 243.558437) scale(0.1 -0.1)">
       <defs>
        <path id="DejaVuSans-30" d="M 2034 4250 
Q 1547 4250 1301 3770 
Q 1056 3291 1056 2328 
Q 1056 1369 1301 889 
Q 1547 409 2034 409 
Q 2525 409 2770 889 
Q 3016 1369 3016 2328 
Q 3016 3291 2770 3770 
Q 2525 4250 2034 4250 
z
M 2034 4750 
Q 2819 4750 3233 4129 
Q 3647 3509 3647 2328 
Q 3647 1150 3233 529 
Q 2819 -91 2034 -91 
Q 1250 -91 836 529 
Q 422 1150 422 2328 
Q 422 3509 836 4129 
Q 1250 4750 2034 4750 
z
" transform="scale(0.015625)"/>
       </defs>
       <use xlink:href="#DejaVuSans-30"/>
      </g>
     </g>
    </g>
    <g id="xtick_2">
     <g id="line2d_2">
      <g>
       <use xlink:href="#m23ffa265cf" x="142.87607" y="228.96" style="stroke: #000000; stroke-width: 0.8"/>
      </g>
     </g>
     <g id="text_2">
      <!-- 10000 -->
      <g transform="translate(126.96982 243.558437) scale(0.1 -0.1)">
       <defs>
        <path id="DejaVuSans-31" d="M 794 531 
L 1825 531 
L 1825 4091 
L 703 3866 
L 703 4441 
L 1819 4666 
L 2450 4666 
L 2450 531 
L 3481 531 
L 3481 0 
L 794 0 
L 794 531 
z
" transform="scale(0.015625)"/>
       </defs>
       <use xlink:href="#DejaVuSans-31"/>
       <use xlink:href="#DejaVuSans-30" transform="translate(63.623047 0)"/>
       <use xlink:href="#DejaVuSans-30" transform="translate(127.246094 0)"/>
       <use xlink:href="#DejaVuSans-30" transform="translate(190.869141 0)"/>
       <use xlink:href="#DejaVuSans-30" transform="translate(254.492188 0)"/>
      </g>
     </g>
    </g>
    <g id="xtick_3">
     <g id="line2d_3">
      <g>
       <use xlink:href="#m23ffa265cf" x="213.930617" y="228.96" style="stroke: #000000; stroke-width: 0.8"/>
      </g>
     </g>
     <g id="text_3">
      <!-- 20000 -->
      <g transform="translate(198.024367 243.558437) scale(0.1 -0.1)">
       <defs>
        <path id="DejaVuSans-32" d="M 1228 531 
L 3431 531 
L 3431 0 
L 469 0 
L 469 531 
Q 828 903 1448 1529 
Q 2069 2156 2228 2338 
Q 2531 2678 2651 2914 
Q 2772 3150 2772 3378 
Q 2772 3750 2511 3984 
Q 2250 4219 1831 4219 
Q 1534 4219 1204 4116 
Q 875 4013 500 3803 
L 500 4441 
Q 881 4594 1212 4672 
Q 1544 4750 1819 4750 
Q 2544 4750 2975 4387 
Q 3406 4025 3406 3419 
Q 3406 3131 3298 2873 
Q 3191 2616 2906 2266 
Q 2828 2175 2409 1742 
Q 1991 1309 1228 531 
z
" transform="scale(0.015625)"/>
       </defs>
       <use xlink:href="#DejaVuSans-32"/>
       <use xlink:href="#DejaVuSans-30" transform="translate(63.623047 0)"/>
       <use xlink:href="#DejaVuSans-30" transform="translate(127.246094 0)"/>
       <use xlink:href="#DejaVuSans-30" transform="translate(190.869141 0)"/>
       <use xlink:href="#DejaVuSans-30" transform="translate(254.492188 0)"/>
      </g>
     </g>
    </g>
    <g id="xtick_4">
     <g id="line2d_4">
      <g>
       <use xlink:href="#m23ffa265cf" x="284.985164" y="228.96" style="stroke: #000000; stroke-width: 0.8"/>
      </g>
     </g>
     <g id="text_4">
      <!-- 30000 -->
      <g transform="translate(269.078914 243.558437) scale(0.1 -0.1)">
       <defs>
        <path id="DejaVuSans-33" d="M 2597 2516 
Q 3050 2419 3304 2112 
Q 3559 1806 3559 1356 
Q 3559 666 3084 287 
Q 2609 -91 1734 -91 
Q 1441 -91 1130 -33 
Q 819 25 488 141 
L 488 750 
Q 750 597 1062 519 
Q 1375 441 1716 441 
Q 2309 441 2620 675 
Q 2931 909 2931 1356 
Q 2931 1769 2642 2001 
Q 2353 2234 1838 2234 
L 1294 2234 
L 1294 2753 
L 1863 2753 
Q 2328 2753 2575 2939 
Q 2822 3125 2822 3475 
Q 2822 3834 2567 4026 
Q 2313 4219 1838 4219 
Q 1578 4219 1281 4162 
Q 984 4106 628 3988 
L 628 4550 
Q 988 4650 1302 4700 
Q 1616 4750 1894 4750 
Q 2613 4750 3031 4423 
Q 3450 4097 3450 3541 
Q 3450 3153 3228 2886 
Q 3006 2619 2597 2516 
z
" transform="scale(0.015625)"/>
       </defs>
       <use xlink:href="#DejaVuSans-33"/>
       <use xlink:href="#DejaVuSans-30" transform="translate(63.623047 0)"/>
       <use xlink:href="#DejaVuSans-30" transform="translate(127.246094 0)"/>
       <use xlink:href="#DejaVuSans-30" transform="translate(190.869141 0)"/>
       <use xlink:href="#DejaVuSans-30" transform="translate(254.492188 0)"/>
      </g>
     </g>
    </g>
    <g id="xtick_5">
     <g id="line2d_5">
      <g>
       <use xlink:href="#m23ffa265cf" x="356.039711" y="228.96" style="stroke: #000000; stroke-width: 0.8"/>
      </g>
     </g>
     <g id="text_5">
      <!-- 40000 -->
      <g transform="translate(340.133461 243.558437) scale(0.1 -0.1)">
       <defs>
        <path id="DejaVuSans-34" d="M 2419 4116 
L 825 1625 
L 2419 1625 
L 2419 4116 
z
M 2253 4666 
L 3047 4666 
L 3047 1625 
L 3713 1625 
L 3713 1100 
L 3047 1100 
L 3047 0 
L 2419 0 
L 2419 1100 
L 313 1100 
L 313 1709 
L 2253 4666 
z
" transform="scale(0.015625)"/>
       </defs>
       <use xlink:href="#DejaVuSans-34"/>
       <use xlink:href="#DejaVuSans-30" transform="translate(63.623047 0)"/>
       <use xlink:href="#DejaVuSans-30" transform="translate(127.246094 0)"/>
       <use xlink:href="#DejaVuSans-30" transform="translate(190.869141 0)"/>
       <use xlink:href="#DejaVuSans-30" transform="translate(254.492188 0)"/>
      </g>
     </g>
    </g>
    <g id="text_6">
     <!-- toa [µs] -->
     <g transform="translate(207.730469 257.236562) scale(0.1 -0.1)">
      <defs>
       <path id="DejaVuSans-74" d="M 1172 4494 
L 1172 3500 
L 2356 3500 
L 2356 3053 
L 1172 3053 
L 1172 1153 
Q 1172 725 1289 603 
Q 1406 481 1766 481 
L 2356 481 
L 2356 0 
L 1766 0 
Q 1100 0 847 248 
Q 594 497 594 1153 
L 594 3053 
L 172 3053 
L 172 3500 
L 594 3500 
L 594 4494 
L 1172 4494 
z
" transform="scale(0.015625)"/>
       <path id="DejaVuSans-6f" d="M 1959 3097 
Q 1497 3097 1228 2736 
Q 959 2375 959 1747 
Q 959 1119 1226 758 
Q 1494 397 1959 397 
Q 2419 397 2687 759 
Q 2956 1122 2956 1747 
Q 2956 2369 2687 2733 
Q 2419 3097 1959 3097 
z
M 1959 3584 
Q 2709 3584 3137 3096 
Q 3566 2609 3566 1747 
Q 3566 888 3137 398 
Q 2709 -91 1959 -91 
Q 1206 -91 779 398 
Q 353 888 353 1747 
Q 353 2609 779 3096 
Q 1206 3584 1959 3584 
z
" transform="scale(0.015625)"/>
       <path id="DejaVuSans-61" d="M 2194 1759 
Q 1497 1759 1228 1600 
Q 959 1441 959 1056 
Q 959 750 1161 570 
Q 1363 391 1709 391 
Q 2188 391 2477 730 
Q 2766 1069 2766 1631 
L 2766 1759 
L 2194 1759 
z
M 3341 1997 
L 3341 0 
L 2766 0 
L 2766 531 
Q 2569 213 2275 61 
Q 1981 -91 1556 -91 
Q 1019 -91 701 211 
Q 384 513 384 1019 
Q 384 1609 779 1909 
Q 1175 2209 1959 2209 
L 2766 2209 
L 2766 2266 
Q 2766 2663 2505 2880 
Q 2244 3097 1772 3097 
Q 1472 3097 1187 3025 
Q 903 2953 641 2809 
L 641 3341 
Q 956 3463 1253 3523 
Q 1550 3584 1831 3584 
Q 2591 3584 2966 3190 
Q 3341 2797 3341 1997 
z
" transform="scale(0.015625)"/>
       <path id="DejaVuSans-20" transform="scale(0.015625)"/>
       <path id="DejaVuSans-5b" d="M 550 4863 
L 1875 4863 
L 1875 4416 
L 1125 4416 
L 1125 -397 
L 1875 -397 
L 1875 -844 
L 550 -844 
L 550 4863 
z
" transform="scale(0.015625)"/>
       <path id="DejaVuSans-b5" d="M 544 -1331 
L 544 3500 
L 1119 3500 
L 1119 1325 
Q 1119 872 1334 640 
Q 1550 409 1972 409 
Q 2434 409 2667 671 
Q 2900 934 2900 1459 
L 2900 3500 
L 3475 3500 
L 3475 806 
Q 3475 619 3529 530 
Q 3584 441 3700 441 
Q 3728 441 3778 458 
Q 3828 475 3916 513 
L 3916 50 
Q 3788 -22 3673 -56 
Q 3559 -91 3450 -91 
Q 3234 -91 3106 31 
Q 2978 153 2931 403 
Q 2775 156 2548 32 
Q 2322 -91 2016 -91 
Q 1697 -91 1473 31 
Q 1250 153 1119 397 
L 1119 -1331 
L 544 -1331 
z
" transform="scale(0.015625)"/>
       <path id="DejaVuSans-73" d="M 2834 3397 
L 2834 2853 
Q 2591 2978 2328 3040 
Q 2066 3103 1784 3103 
Q 1356 3103 1142 2972 
Q 928 2841 928 2578 
Q 928 2378 1081 2264 
Q 1234 2150 1697 2047 
L 1894 2003 
Q 2506 1872 2764 1633 
Q 3022 1394 3022 966 
Q 3022 478 2636 193 
Q 2250 -91 1575 -91 
Q 1294 -91 989 -36 
Q 684 19 347 128 
L 347 722 
Q 666 556 975 473 
Q 1284 391 1588 391 
Q 1994 391 2212 530 
Q 2431 669 2431 922 
Q 2431 1156 2273 1281 
Q 2116 1406 1581 1522 
L 1381 1569 
Q 847 1681 609 1914 
Q 372 2147 372 2553 
Q 372 3047 722 3315 
Q 1072 3584 1716 3584 
Q 2034 3584 2315 3537 
Q 2597 3491 2834 3397 
z
" transform="scale(0.015625)"/>
       <path id="DejaVuSans-5d" d="M 1947 4863 
L 1947 -844 
L 622 -844 
L 622 -397 
L 1369 -397 
L 1369 4416 
L 622 4416 
L 622 4863 
L 1947 4863 
z
" transform="scale(0.015625)"/>
      </defs>
      <use xlink:href="#DejaVuSans-74"/>
      <use xlink:href="#DejaVuSans-6f" transform="translate(39.208984 0)"/>
      <use xlink:href="#DejaVuSans-61" transform="translate(100.390625 0)"/>
      <use xlink:href="#DejaVuSans-20" transform="translate(161.669922 0)"/>
      <use xlink:href="#DejaVuSans-5b" transform="translate(193.457031 0)"/>
      <use xlink:href="#DejaVuSans-b5" transform="translate(232.470703 0)"/>
      <use xlink:href="#DejaVuSans-73" transform="translate(296.09375 0)"/>
      <use xlink:href="#DejaVuSans-5d" transform="translate(348.193359 0)"/>
     </g>
    </g>
   </g>
   <g id="matplotlib.axis_2">
    <g id="ytick_1">
     <g id="line2d_6">
      <defs>
       <path id="mbf97021e55" d="M 0 0 
L -3.5 0 
" style="stroke: #000000; stroke-width: 0.8"/>
      </defs>
      <g>
       <use xlink:href="#mbf97021e55" x="59.690625" y="218.88" style="stroke: #000000; stroke-width: 0.8"/>
      </g>
     </g>
     <g id="text_7">
      <!-- 0 -->
      <g transform="translate(46.328125 222.679219) scale(0.1 -0.1)">
       <use xlink:href="#DejaVuSans-30"/>
      </g>
     </g>
    </g>
    <g id="ytick_2">
     <g id="line2d_7">
      <g>
       <use xlink:href="#mbf97021e55" x="59.690625" y="191.721901" style="stroke: #000000; stroke-width: 0.8"/>
      </g>
     </g>
     <g id="text_8">
      <!-- 2500 -->
      <g transform="translate(27.240625 195.52112) scale(0.1 -0.1)">
       <defs>
        <path id="DejaVuSans-35" d="M 691 4666 
L 3169 4666 
L 3169 4134 
L 1269 4134 
L 1269 2991 
Q 1406 3038 1543 3061 
Q 1681 3084 1819 3084 
Q 2600 3084 3056 2656 
Q 3513 2228 3513 1497 
Q 3513 744 3044 326 
Q 2575 -91 1722 -91 
Q 1428 -91 1123 -41 
Q 819 9 494 109 
L 494 744 
Q 775 591 1075 516 
Q 1375 441 1709 441 
Q 2250 441 2565 725 
Q 2881 1009 2881 1497 
Q 2881 1984 2565 2268 
Q 2250 2553 1709 2553 
Q 1456 2553 1204 2497 
Q 953 2441 691 2322 
L 691 4666 
z
" transform="scale(0.015625)"/>
       </defs>
       <use xlink:href="#DejaVuSans-32"/>
       <use xlink:href="#DejaVuSans-35" transform="translate(63.623047 0)"/>
       <use xlink:href="#DejaVuSans-30" transform="translate(127.246094 0)"/>
       <use xlink:href="#DejaVuSans-30" transform="translate(190.869141 0)"/>
      </g>
     </g>
    </g>
    <g id="ytick_3">
     <g id="line2d_8">
      <g>
       <use xlink:href="#mbf97021e55" x="59.690625" y="164.563802" style="stroke: #000000; stroke-width: 0.8"/>
      </g>
     </g>
     <g id="text_9">
      <!-- 5000 -->
      <g transform="translate(27.240625 168.363021) scale(0.1 -0.1)">
       <use xlink:href="#DejaVuSans-35"/>
       <use xlink:href="#DejaVuSans-30" transform="translate(63.623047 0)"/>
       <use xlink:href="#DejaVuSans-30" transform="translate(127.246094 0)"/>
       <use xlink:href="#DejaVuSans-30" transform="translate(190.869141 0)"/>
      </g>
     </g>
    </g>
    <g id="ytick_4">
     <g id="line2d_9">
      <g>
       <use xlink:href="#mbf97021e55" x="59.690625" y="137.405703" style="stroke: #000000; stroke-width: 0.8"/>
      </g>
     </g>
     <g id="text_10">
      <!-- 7500 -->
      <g transform="translate(27.240625 141.204922) scale(0.1 -0.1)">
       <defs>
        <path id="DejaVuSans-37" d="M 525 4666 
L 3525 4666 
L 3525 4397 
L 1831 0 
L 1172 0 
L 2766 4134 
L 525 4134 
L 525 4666 
z
" transform="scale(0.015625)"/>
       </defs>
       <use xlink:href="#DejaVuSans-37"/>
       <use xlink:href="#DejaVuSans-35" transform="translate(63.623047 0)"/>
       <use xlink:href="#DejaVuSans-30" transform="translate(127.246094 0)"/>
       <use xlink:href="#DejaVuSans-30" transform="translate(190.869141 0)"/>
      </g>
     </g>
    </g>
    <g id="ytick_5">
     <g id="line2d_10">
      <g>
       <use xlink:href="#mbf97021e55" x="59.690625" y="110.247604" style="stroke: #000000; stroke-width: 0.8"/>
      </g>
     </g>
     <g id="text_11">
      <!-- 10000 -->
      <g transform="translate(20.878125 114.046823) scale(0.1 -0.1)">
       <use xlink:href="#DejaVuSans-31"/>
       <use xlink:href="#DejaVuSans-30" transform="translate(63.623047 0)"/>
       <use xlink:href="#DejaVuSans-30" transform="translate(127.246094 0)"/>
       <use xlink:href="#DejaVuSans-30" transform="translate(190.869141 0)"/>
       <use xlink:href="#DejaVuSans-30" transform="translate(254.492188 0)"/>
      </g>
     </g>
    </g>
    <g id="ytick_6">
     <g id="line2d_11">
      <g>
       <use xlink:href="#mbf97021e55" x="59.690625" y="83.089505" style="stroke: #000000; stroke-width: 0.8"/>
      </g>
     </g>
     <g id="text_12">
      <!-- 12500 -->
      <g transform="translate(20.878125 86.888724) scale(0.1 -0.1)">
       <use xlink:href="#DejaVuSans-31"/>
       <use xlink:href="#DejaVuSans-32" transform="translate(63.623047 0)"/>
       <use xlink:href="#DejaVuSans-35" transform="translate(127.246094 0)"/>
       <use xlink:href="#DejaVuSans-30" transform="translate(190.869141 0)"/>
       <use xlink:href="#DejaVuSans-30" transform="translate(254.492188 0)"/>
      </g>
     </g>
    </g>
    <g id="ytick_7">
     <g id="line2d_12">
      <g>
       <use xlink:href="#mbf97021e55" x="59.690625" y="55.931406" style="stroke: #000000; stroke-width: 0.8"/>
      </g>
     </g>
     <g id="text_13">
      <!-- 15000 -->
      <g transform="translate(20.878125 59.730625) scale(0.1 -0.1)">
       <use xlink:href="#DejaVuSans-31"/>
       <use xlink:href="#DejaVuSans-35" transform="translate(63.623047 0)"/>
       <use xlink:href="#DejaVuSans-30" transform="translate(127.246094 0)"/>
       <use xlink:href="#DejaVuSans-30" transform="translate(190.869141 0)"/>
       <use xlink:href="#DejaVuSans-30" transform="translate(254.492188 0)"/>
      </g>
     </g>
    </g>
    <g id="ytick_8">
     <g id="line2d_13">
      <g>
       <use xlink:href="#mbf97021e55" x="59.690625" y="28.773307" style="stroke: #000000; stroke-width: 0.8"/>
      </g>
     </g>
     <g id="text_14">
      <!-- 17500 -->
      <g transform="translate(20.878125 32.572526) scale(0.1 -0.1)">
       <use xlink:href="#DejaVuSans-31"/>
       <use xlink:href="#DejaVuSans-37" transform="translate(63.623047 0)"/>
       <use xlink:href="#DejaVuSans-35" transform="translate(127.246094 0)"/>
       <use xlink:href="#DejaVuSans-30" transform="translate(190.869141 0)"/>
       <use xlink:href="#DejaVuSans-30" transform="translate(254.492188 0)"/>
      </g>
     </g>
    </g>
    <g id="text_15">
     <!-- [counts] -->
     <g transform="translate(14.798438 138.6925) rotate(-90) scale(0.1 -0.1)">
      <defs>
       <path id="DejaVuSans-63" d="M 3122 3366 
L 3122 2828 
Q 2878 2963 2633 3030 
Q 2388 3097 2138 3097 
Q 1578 3097 1268 2742 
Q 959 2388 959 1747 
Q 959 1106 1268 751 
Q 1578 397 2138 397 
Q 2388 397 2633 464 
Q 2878 531 3122 666 
L 3122 134 
Q 2881 22 2623 -34 
Q 2366 -91 2075 -91 
Q 1284 -91 818 406 
Q 353 903 353 1747 
Q 353 2603 823 3093 
Q 1294 3584 2113 3584 
Q 2378 3584 2631 3529 
Q 2884 3475 3122 3366 
z
" transform="scale(0.015625)"/>
       <path id="DejaVuSans-75" d="M 544 1381 
L 544 3500 
L 1119 3500 
L 1119 1403 
Q 1119 906 1312 657 
Q 1506 409 1894 409 
Q 2359 409 2629 706 
Q 2900 1003 2900 1516 
L 2900 3500 
L 3475 3500 
L 3475 0 
L 2900 0 
L 2900 538 
Q 2691 219 2414 64 
Q 2138 -91 1772 -91 
Q 1169 -91 856 284 
Q 544 659 544 1381 
z
M 1991 3584 
L 1991 3584 
z
" transform="scale(0.015625)"/>
       <path id="DejaVuSans-6e" d="M 3513 2113 
L 3513 0 
L 2938 0 
L 2938 2094 
Q 2938 2591 2744 2837 
Q 2550 3084 2163 3084 
Q 1697 3084 1428 2787 
Q 1159 2491 1159 1978 
L 1159 0 
L 581 0 
L 581 3500 
L 1159 3500 
L 1159 2956 
Q 1366 3272 1645 3428 
Q 1925 3584 2291 3584 
Q 2894 3584 3203 3211 
Q 3513 2838 3513 2113 
z
" transform="scale(0.015625)"/>
      </defs>
      <use xlink:href="#DejaVuSans-5b"/>
      <use xlink:href="#DejaVuSans-63" transform="translate(39.013672 0)"/>
      <use xlink:href="#DejaVuSans-6f" transform="translate(93.994141 0)"/>
      <use xlink:href="#DejaVuSans-75" transform="translate(155.175781 0)"/>
      <use xlink:href="#DejaVuSans-6e" transform="translate(218.554688 0)"/>
      <use xlink:href="#DejaVuSans-74" transform="translate(281.933594 0)"/>
      <use xlink:href="#DejaVuSans-73" transform="translate(321.142578 0)"/>
      <use xlink:href="#DejaVuSans-5d" transform="translate(373.242188 0)"/>
     </g>
    </g>
   </g>
   <g id="line2d_14">
    <path d="M 74.908807 218.88 
L 130.708807 218.88 
L 130.708807 122.262347 
L 131.723352 122.262347 
L 131.723352 80.862541 
L 132.737898 80.862541 
L 132.737898 86.305024 
L 133.752443 86.305024 
L 133.752443 95.810359 
L 134.766989 95.810359 
L 134.766989 100.329467 
L 135.781534 100.329467 
L 135.781534 106.456334 
L 136.79608 106.456334 
L 136.79608 111.735868 
L 137.810625 111.735868 
L 137.810625 118.351581 
L 138.82517 118.351581 
L 138.82517 123.10968 
L 139.839716 123.10968 
L 139.839716 130.779127 
L 140.854261 130.779127 
L 140.854261 131.99581 
L 141.868807 131.99581 
L 141.868807 135.787081 
L 142.883352 135.787081 
L 142.883352 141.034025 
L 143.897898 141.034025 
L 143.897898 145.14033 
L 144.912443 145.14033 
L 144.912443 149.235771 
L 145.926989 149.235771 
L 145.926989 150.919573 
L 146.941534 150.919573 
L 146.941534 156.057886 
L 147.95608 156.057886 
L 147.95608 159.718797 
L 148.970625 159.718797 
L 148.970625 161.663317 
L 149.98517 161.663317 
L 149.98517 176.611135 
L 150.999716 176.611135 
L 150.999716 218.88 
L 170.27608 218.88 
L 170.27608 202.574277 
L 171.290625 202.574277 
L 171.290625 198.79387 
L 172.30517 198.79387 
L 172.30517 199.011135 
L 173.319716 199.011135 
L 173.319716 200.184365 
L 174.334261 200.184365 
L 174.334261 201.422774 
L 175.348807 201.422774 
L 175.348807 201.248962 
L 176.363352 201.248962 
L 176.363352 202.704636 
L 177.377898 202.704636 
L 177.377898 202.987081 
L 178.392443 202.987081 
L 178.392443 203.323841 
L 179.406989 203.323841 
L 179.406989 204.247216 
L 180.421534 204.247216 
L 180.421534 205.561668 
L 182.450625 205.615984 
L 182.450625 205.822386 
L 183.46517 205.822386 
L 183.46517 205.996198 
L 184.479716 205.996198 
L 184.479716 206.87612 
L 185.494261 206.87612 
L 185.494261 208.212299 
L 186.508807 208.212299 
L 186.508807 207.669137 
L 187.523352 207.669137 
L 187.523352 208.679418 
L 188.537898 208.679418 
L 188.537898 208.549059 
L 189.552443 208.549059 
L 189.552443 209.352939 
L 190.566989 209.352939 
L 190.566989 208.82064 
L 191.581534 208.82064 
L 191.581534 209.939554 
L 192.59608 209.939554 
L 192.59608 209.765742 
L 193.610625 209.765742 
L 193.610625 210.623938 
L 195.639716 210.537032 
L 195.639716 211.188826 
L 196.654261 211.188826 
L 196.654261 211.981843 
L 197.668807 211.981843 
L 197.668807 211.688535 
L 199.697898 211.710262 
L 199.697898 212.133928 
L 201.726989 212.025296 
L 201.726989 212.264287 
L 202.741534 212.264287 
L 202.741534 212.535868 
L 203.75608 212.535868 
L 203.75608 213.350611 
L 204.770625 213.350611 
L 204.770625 213.176799 
L 205.78517 213.176799 
L 205.78517 212.948671 
L 206.799716 212.948671 
L 206.799716 213.567876 
L 207.814261 213.567876 
L 207.814261 213.741688 
L 208.828807 213.741688 
L 208.828807 214.25226 
L 209.843352 214.25226 
L 209.843352 213.948089 
L 210.857898 213.948089 
L 210.857898 214.393482 
L 211.872443 214.393482 
L 211.872443 214.100175 
L 212.886989 214.100175 
L 212.886989 214.578157 
L 213.901534 214.578157 
L 213.901534 215.02355 
L 214.91608 215.02355 
L 214.91608 214.632473 
L 216.94517 214.675926 
L 216.94517 214.795422 
L 217.959716 214.795422 
L 217.959716 215.143046 
L 219.988807 215.229952 
L 219.988807 214.958371 
L 221.003352 214.958371 
L 221.003352 215.544985 
L 222.017898 215.544985 
L 222.017898 215.664481 
L 226.07608 215.707934 
L 226.07608 215.860019 
L 227.090625 215.860019 
L 227.090625 216.033831 
L 228.10517 216.033831 
L 228.10517 216.185917 
L 229.119716 216.185917 
L 229.119716 217.33742 
L 230.134261 217.33742 
L 230.134261 218.88 
L 379.272443 218.88 
L 379.272443 218.88 
" clip-path="url(#p1185042c5a)" style="fill: none; stroke: #1f77b4; stroke-width: 1.5; stroke-linecap: square"/>
   </g>
   <g id="line2d_15">
    <path d="M 74.908807 218.239069 
L 75.923352 218.239069 
L 75.923352 216.414045 
L 76.937898 216.414045 
L 76.937898 212.579321 
L 77.952443 212.579321 
L 77.952443 208.48388 
L 78.966989 208.48388 
L 78.966989 203.769234 
L 79.981534 203.769234 
L 79.981534 197.848768 
L 80.99608 197.848768 
L 80.99608 193.840233 
L 82.010625 193.840233 
L 82.010625 187.25711 
L 83.02517 187.25711 
L 83.02517 182.107934 
L 84.039716 182.107934 
L 84.039716 173.754103 
L 85.054261 173.754103 
L 85.054261 164.835383 
L 86.068807 164.835383 
L 86.068807 156.209971 
L 87.083352 156.209971 
L 87.083352 144.77098 
L 88.097898 144.77098 
L 88.097898 134.440039 
L 89.112443 134.440039 
L 89.112443 124.673986 
L 90.126989 124.673986 
L 90.126989 108.802793 
L 91.141534 108.802793 
L 91.141534 98.145955 
L 92.15608 98.145955 
L 92.15608 87.2284 
L 93.170625 87.2284 
L 93.170625 77.158177 
L 94.18517 77.158177 
L 94.18517 65.523647 
L 95.199716 65.523647 
L 95.199716 55.822774 
L 96.214261 55.822774 
L 96.214261 47.414627 
L 97.228807 47.414627 
L 97.228807 39.538778 
L 98.243352 39.538778 
L 98.243352 35.834413 
L 99.257898 35.834413 
L 99.257898 34.302696 
L 100.272443 34.302696 
L 100.272443 29.631503 
L 101.286989 29.631503 
L 101.286989 27.665257 
L 102.301534 27.665257 
L 102.301534 23.906576 
L 103.31608 23.906576 
L 103.31608 21.636159 
L 104.330625 21.636159 
L 104.330625 19.376605 
L 105.34517 19.376605 
L 105.34517 18.225102 
L 106.359716 18.225102 
L 106.359716 17.28 
L 107.374261 17.28 
L 107.374261 22.396586 
L 108.388807 22.396586 
L 108.388807 21.712202 
L 109.403352 21.712202 
L 109.403352 20.930048 
L 110.417898 20.930048 
L 110.417898 20.386887 
L 111.432443 20.386887 
L 111.432443 20.658468 
L 113.461534 20.604151 
L 113.461534 23.265645 
L 114.47608 23.265645 
L 114.47608 24.732182 
L 115.490625 24.732182 
L 115.490625 27.545761 
L 116.50517 27.545761 
L 116.50517 26.807061 
L 117.519716 26.807061 
L 117.519716 27.665257 
L 118.534261 27.665257 
L 118.534261 28.164966 
L 119.548807 28.164966 
L 119.548807 30.000854 
L 120.563352 30.000854 
L 120.563352 31.771562 
L 122.592443 31.749835 
L 122.592443 31.337032 
L 123.606989 31.337032 
L 123.606989 34.498235 
L 124.621534 34.498235 
L 124.621534 41.320349 
L 125.63608 41.320349 
L 125.63608 44.905218 
L 126.650625 44.905218 
L 126.650625 48.468361 
L 127.66517 48.468361 
L 127.66517 52.335674 
L 128.679716 52.335674 
L 128.679716 57.843337 
L 129.694261 57.843337 
L 129.694261 67.402987 
L 130.708807 67.402987 
L 130.708807 172.026848 
L 131.723352 172.026848 
L 131.723352 218.88 
L 149.98517 218.88 
L 149.98517 207.104248 
L 150.999716 207.104248 
L 150.999716 167.670689 
L 152.014261 167.670689 
L 152.014261 168.822192 
L 153.028807 168.822192 
L 153.028807 173.015403 
L 154.043352 173.015403 
L 154.043352 174.88388 
L 155.057898 174.88388 
L 155.057898 177.099981 
L 156.072443 177.099981 
L 156.072443 179.978739 
L 157.086989 179.978739 
L 157.086989 181.988438 
L 158.101534 181.988438 
L 158.101534 181.434413 
L 159.11608 181.434413 
L 159.11608 184.410941 
L 160.130625 184.410941 
L 160.130625 185.736256 
L 161.14517 185.736256 
L 161.14517 187.517827 
L 162.159716 187.517827 
L 162.159716 189.842561 
L 163.174261 189.842561 
L 163.174261 189.994646 
L 164.188807 189.994646 
L 164.188807 191.721901 
L 165.203352 191.721901 
L 165.203352 192.330242 
L 166.217898 192.330242 
L 166.217898 192.797362 
L 167.232443 192.797362 
L 167.232443 194.557207 
L 168.246989 194.557207 
L 168.246989 195.545761 
L 169.261534 195.545761 
L 169.261534 197.196974 
L 170.27608 197.196974 
L 170.27608 213.643919 
L 171.290625 213.643919 
L 171.290625 218.88 
L 229.119716 218.88 
L 229.119716 217.685044 
L 230.134261 217.685044 
L 230.134261 216.522677 
L 233.177898 216.587856 
L 233.177898 216.370592 
L 234.192443 216.370592 
L 234.192443 216.59872 
L 236.221534 216.587856 
L 236.221534 216.338002 
L 237.23608 216.338002 
L 237.23608 216.663899 
L 238.250625 216.663899 
L 238.250625 216.794258 
L 239.26517 216.794258 
L 239.26517 216.96807 
L 240.279716 216.96807 
L 240.279716 216.555267 
L 241.294261 216.555267 
L 241.294261 217.076702 
L 242.308807 217.076702 
L 242.308807 216.761668 
L 243.323352 216.761668 
L 243.323352 217.00066 
L 245.352443 217.033249 
L 245.352443 217.261377 
L 246.366989 217.261377 
L 246.366989 217.076702 
L 249.410625 217.185335 
L 249.410625 217.402599 
L 250.42517 217.402599 
L 250.42517 217.185335 
L 251.439716 217.185335 
L 251.439716 217.467779 
L 252.454261 217.467779 
L 252.454261 217.619864 
L 253.468807 217.619864 
L 253.468807 217.37001 
L 255.497898 217.391736 
L 255.497898 217.652454 
L 258.541534 217.609001 
L 258.541534 217.37001 
L 259.55608 217.37001 
L 259.55608 217.587274 
L 262.599716 217.67418 
L 262.599716 217.728497 
L 266.657898 217.815403 
L 266.657898 217.858855 
L 267.672443 217.858855 
L 267.672443 217.685044 
L 268.686989 217.685044 
L 268.686989 217.902308 
L 271.730625 217.902308 
L 271.730625 217.717633 
L 272.74517 217.717633 
L 272.74517 217.891445 
L 275.788807 217.913172 
L 275.788807 218.152163 
L 276.803352 218.152163 
L 276.803352 217.924035 
L 277.817898 217.924035 
L 277.817898 218.119573 
L 282.890625 218.1413 
L 282.890625 218.325975 
L 283.90517 218.325975 
L 283.90517 218.152163 
L 286.948807 218.184753 
L 286.948807 218.271659 
L 287.963352 218.271659 
L 287.963352 218.467197 
L 288.977898 218.467197 
L 288.977898 218.260795 
L 297.094261 218.217342 
L 297.094261 218.391154 
L 304.19608 218.347701 
L 304.19608 218.51065 
L 309.268807 218.47806 
L 309.268807 218.315112 
L 311.297898 218.380291 
L 311.297898 218.564966 
L 334.632443 218.597556 
L 334.632443 218.760504 
L 336.661534 218.673598 
L 336.661534 218.641009 
L 346.806989 218.738778 
L 346.806989 218.771368 
L 379.272443 218.858274 
L 379.272443 218.858274 
" clip-path="url(#p1185042c5a)" style="fill: none; stroke: #808080; stroke-width: 1.5; stroke-linecap: square"/>
   </g>
   <g id="patch_3">
    <path d="M 59.690625 228.96 
L 59.690625 7.2 
" style="fill: none; stroke: #000000; stroke-width: 0.8; stroke-linejoin: miter; stroke-linecap: square"/>
   </g>
   <g id="patch_4">
    <path d="M 394.490625 228.96 
L 394.490625 7.2 
" style="fill: none; stroke: #000000; stroke-width: 0.8; stroke-linejoin: miter; stroke-linecap: square"/>
   </g>
   <g id="patch_5">
    <path d="M 59.690625 228.96 
L 394.490625 228.96 
" style="fill: none; stroke: #000000; stroke-width: 0.8; stroke-linejoin: miter; stroke-linecap: square"/>
   </g>
   <g id="patch_6">
    <path d="M 59.690625 7.2 
L 394.490625 7.2 
" style="fill: none; stroke: #000000; stroke-width: 0.8; stroke-linejoin: miter; stroke-linecap: square"/>
   </g>
   <g id="legend_1">
    <g id="patch_7">
     <path d="M 276.651563 44.55625 
L 387.490625 44.55625 
Q 389.490625 44.55625 389.490625 42.55625 
L 389.490625 14.2 
Q 389.490625 12.2 387.490625 12.2 
L 276.651563 12.2 
Q 274.651563 12.2 274.651563 14.2 
L 274.651563 42.55625 
Q 274.651563 44.55625 276.651563 44.55625 
z
" style="fill: #ffffff; opacity: 0.8; stroke: #cccccc; stroke-linejoin: miter"/>
    </g>
    <g id="line2d_16">
     <path d="M 278.651563 20.298437 
L 278.651563 20.298437 
L 288.651563 20.298437 
L 288.651563 20.298437 
L 298.651563 20.298437 
" style="fill: none; stroke: #1f77b4; stroke-width: 1.5; stroke-linecap: square"/>
    </g>
    <g id="text_16">
     <!-- pulse:0 -->
     <g transform="translate(306.651563 23.798437) scale(0.1 -0.1)">
      <defs>
       <path id="DejaVuSans-70" d="M 1159 525 
L 1159 -1331 
L 581 -1331 
L 581 3500 
L 1159 3500 
L 1159 2969 
Q 1341 3281 1617 3432 
Q 1894 3584 2278 3584 
Q 2916 3584 3314 3078 
Q 3713 2572 3713 1747 
Q 3713 922 3314 415 
Q 2916 -91 2278 -91 
Q 1894 -91 1617 61 
Q 1341 213 1159 525 
z
M 3116 1747 
Q 3116 2381 2855 2742 
Q 2594 3103 2138 3103 
Q 1681 3103 1420 2742 
Q 1159 2381 1159 1747 
Q 1159 1113 1420 752 
Q 1681 391 2138 391 
Q 2594 391 2855 752 
Q 3116 1113 3116 1747 
z
" transform="scale(0.015625)"/>
       <path id="DejaVuSans-6c" d="M 603 4863 
L 1178 4863 
L 1178 0 
L 603 0 
L 603 4863 
z
" transform="scale(0.015625)"/>
       <path id="DejaVuSans-65" d="M 3597 1894 
L 3597 1613 
L 953 1613 
Q 991 1019 1311 708 
Q 1631 397 2203 397 
Q 2534 397 2845 478 
Q 3156 559 3463 722 
L 3463 178 
Q 3153 47 2828 -22 
Q 2503 -91 2169 -91 
Q 1331 -91 842 396 
Q 353 884 353 1716 
Q 353 2575 817 3079 
Q 1281 3584 2069 3584 
Q 2775 3584 3186 3129 
Q 3597 2675 3597 1894 
z
M 3022 2063 
Q 3016 2534 2758 2815 
Q 2500 3097 2075 3097 
Q 1594 3097 1305 2825 
Q 1016 2553 972 2059 
L 3022 2063 
z
" transform="scale(0.015625)"/>
       <path id="DejaVuSans-3a" d="M 750 794 
L 1409 794 
L 1409 0 
L 750 0 
L 750 794 
z
M 750 3309 
L 1409 3309 
L 1409 2516 
L 750 2516 
L 750 3309 
z
" transform="scale(0.015625)"/>
      </defs>
      <use xlink:href="#DejaVuSans-70"/>
      <use xlink:href="#DejaVuSans-75" transform="translate(63.476562 0)"/>
      <use xlink:href="#DejaVuSans-6c" transform="translate(126.855469 0)"/>
      <use xlink:href="#DejaVuSans-73" transform="translate(154.638672 0)"/>
      <use xlink:href="#DejaVuSans-65" transform="translate(206.738281 0)"/>
      <use xlink:href="#DejaVuSans-3a" transform="translate(268.261719 0)"/>
      <use xlink:href="#DejaVuSans-30" transform="translate(301.953125 0)"/>
     </g>
    </g>
    <g id="line2d_17">
     <path d="M 278.651563 34.976562 
L 278.651563 34.976562 
L 288.651563 34.976562 
L 288.651563 34.976562 
L 298.651563 34.976562 
" style="fill: none; stroke: #808080; stroke-width: 1.5; stroke-linecap: square"/>
    </g>
    <g id="text_17">
     <!-- blocked-pulse:0 -->
     <g transform="translate(306.651563 38.476562) scale(0.1 -0.1)">
      <defs>
       <path id="DejaVuSans-62" d="M 3116 1747 
Q 3116 2381 2855 2742 
Q 2594 3103 2138 3103 
Q 1681 3103 1420 2742 
Q 1159 2381 1159 1747 
Q 1159 1113 1420 752 
Q 1681 391 2138 391 
Q 2594 391 2855 752 
Q 3116 1113 3116 1747 
z
M 1159 2969 
Q 1341 3281 1617 3432 
Q 1894 3584 2278 3584 
Q 2916 3584 3314 3078 
Q 3713 2572 3713 1747 
Q 3713 922 3314 415 
Q 2916 -91 2278 -91 
Q 1894 -91 1617 61 
Q 1341 213 1159 525 
L 1159 0 
L 581 0 
L 581 4863 
L 1159 4863 
L 1159 2969 
z
" transform="scale(0.015625)"/>
       <path id="DejaVuSans-6b" d="M 581 4863 
L 1159 4863 
L 1159 1991 
L 2875 3500 
L 3609 3500 
L 1753 1863 
L 3688 0 
L 2938 0 
L 1159 1709 
L 1159 0 
L 581 0 
L 581 4863 
z
" transform="scale(0.015625)"/>
       <path id="DejaVuSans-64" d="M 2906 2969 
L 2906 4863 
L 3481 4863 
L 3481 0 
L 2906 0 
L 2906 525 
Q 2725 213 2448 61 
Q 2172 -91 1784 -91 
Q 1150 -91 751 415 
Q 353 922 353 1747 
Q 353 2572 751 3078 
Q 1150 3584 1784 3584 
Q 2172 3584 2448 3432 
Q 2725 3281 2906 2969 
z
M 947 1747 
Q 947 1113 1208 752 
Q 1469 391 1925 391 
Q 2381 391 2643 752 
Q 2906 1113 2906 1747 
Q 2906 2381 2643 2742 
Q 2381 3103 1925 3103 
Q 1469 3103 1208 2742 
Q 947 2381 947 1747 
z
" transform="scale(0.015625)"/>
       <path id="DejaVuSans-2d" d="M 313 2009 
L 1997 2009 
L 1997 1497 
L 313 1497 
L 313 2009 
z
" transform="scale(0.015625)"/>
      </defs>
      <use xlink:href="#DejaVuSans-62"/>
      <use xlink:href="#DejaVuSans-6c" transform="translate(63.476562 0)"/>
      <use xlink:href="#DejaVuSans-6f" transform="translate(91.259766 0)"/>
      <use xlink:href="#DejaVuSans-63" transform="translate(152.441406 0)"/>
      <use xlink:href="#DejaVuSans-6b" transform="translate(207.421875 0)"/>
      <use xlink:href="#DejaVuSans-65" transform="translate(261.707031 0)"/>
      <use xlink:href="#DejaVuSans-64" transform="translate(323.230469 0)"/>
      <use xlink:href="#DejaVuSans-2d" transform="translate(386.707031 0)"/>
      <use xlink:href="#DejaVuSans-70" transform="translate(422.791016 0)"/>
      <use xlink:href="#DejaVuSans-75" transform="translate(486.267578 0)"/>
      <use xlink:href="#DejaVuSans-6c" transform="translate(549.646484 0)"/>
      <use xlink:href="#DejaVuSans-73" transform="translate(577.429688 0)"/>
      <use xlink:href="#DejaVuSans-65" transform="translate(629.529297 0)"/>
      <use xlink:href="#DejaVuSans-3a" transform="translate(691.052734 0)"/>
      <use xlink:href="#DejaVuSans-30" transform="translate(724.744141 0)"/>
     </g>
    </g>
   </g>
  </g>
 </g>
 <defs>
  <clipPath id="p1185042c5a">
   <rect x="59.690625" y="7.2" width="334.8" height="221.76"/>
  </clipPath>
 </defs>
</svg>
