<?xml version="1.0" encoding="utf-8" standalone="no"?>
<!DOCTYPE svg PUBLIC "-//W3C//DTD SVG 1.1//EN"
  "http://www.w3.org/Graphics/SVG/1.1/DTD/svg11.dtd">
<svg xmlns:xlink="http://www.w3.org/1999/xlink" width="872.39952pt" height="296.39952pt" viewBox="0 0 872.39952 296.39952" xmlns="http://www.w3.org/2000/svg" version="1.1">
 <metadata>
  <rdf:RDF xmlns:dc="http://purl.org/dc/elements/1.1/" xmlns:cc="http://creativecommons.org/ns#" xmlns:rdf="http://www.w3.org/1999/02/22-rdf-syntax-ns#">
   <cc:Work>
    <dc:type rdf:resource="http://purl.org/dc/dcmitype/StillImage"/>
    <dc:date>2025-10-10T17:28:18.042756</dc:date>
    <dc:format>image/svg+xml</dc:format>
    <dc:creator>
     <cc:Agent>
      <dc:title>Matplotlib v3.10.6, https://matplotlib.org/</dc:title>
     </cc:Agent>
    </dc:creator>
   </cc:Work>
  </rdf:RDF>
 </metadata>
 <defs>
  <style type="text/css">*{stroke-linejoin: round; stroke-linecap: butt}</style>
 </defs>
 <g id="figure_1">
  <g id="patch_1">
   <path d="M 0 296.39952 
L 872.39952 296.39952 
L 872.39952 0 
L 0 0 
z
" style="fill: #ffffff"/>
  </g>
  <g id="axes_1">
   <g id="patch_2">
    <path d="M 53.328125 257.158895 
L 414.59976 257.158895 
L 414.59976 7.2 
L 53.328125 7.2 
z
" style="fill: #ffffff"/>
   </g>
   <g id="matplotlib.axis_1">
    <g id="xtick_1">
     <g id="line2d_1">
      <defs>
       <path id="m5c1ee8d730" d="M 0 0 
L 0 3.5 
" style="stroke: #000000; stroke-width: 0.8"/>
      </defs>
      <g>
       <use xlink:href="#m5c1ee8d730" x="116.175606" y="257.158895" style="stroke: #000000; stroke-width: 0.8"/>
      </g>
     </g>
     <g id="text_1">
      <!-- 30000 -->
      <g transform="translate(100.269356 271.757332) scale(0.1 -0.1)">
       <defs>
        <path id="DejaVuSans-33" d="M 2597 2516 
Q 3050 2419 3304 2112 
Q 3559 1806 3559 1356 
Q 3559 666 3084 287 
Q 2609 -91 1734 -91 
Q 1441 -91 1130 -33 
Q 819 25 488 141 
L 488 750 
Q 750 597 1062 519 
Q 1375 441 1716 441 
Q 2309 441 2620 675 
Q 2931 909 2931 1356 
Q 2931 1769 2642 2001 
Q 2353 2234 1838 2234 
L 1294 2234 
L 1294 2753 
L 1863 2753 
Q 2328 2753 2575 2939 
Q 2822 3125 2822 3475 
Q 2822 3834 2567 4026 
Q 2313 4219 1838 4219 
Q 1578 4219 1281 4162 
Q 984 4106 628 3988 
L 628 4550 
Q 988 4650 1302 4700 
Q 1616 4750 1894 4750 
Q 2613 4750 3031 4423 
Q 3450 4097 3450 3541 
Q 3450 3153 3228 2886 
Q 3006 2619 2597 2516 
z
" transform="scale(0.015625)"/>
        <path id="DejaVuSans-30" d="M 2034 4250 
Q 1547 4250 1301 3770 
Q 1056 3291 1056 2328 
Q 1056 1369 1301 889 
Q 1547 409 2034 409 
Q 2525 409 2770 889 
Q 3016 1369 3016 2328 
Q 3016 3291 2770 3770 
Q 2525 4250 2034 4250 
z
M 2034 4750 
Q 2819 4750 3233 4129 
Q 3647 3509 3647 2328 
Q 3647 1150 3233 529 
Q 2819 -91 2034 -91 
Q 1250 -91 836 529 
Q 422 1150 422 2328 
Q 422 3509 836 4129 
Q 1250 4750 2034 4750 
z
" transform="scale(0.015625)"/>
       </defs>
       <use xlink:href="#DejaVuSans-33"/>
       <use xlink:href="#DejaVuSans-30" transform="translate(63.623047 0)"/>
       <use xlink:href="#DejaVuSans-30" transform="translate(127.246094 0)"/>
       <use xlink:href="#DejaVuSans-30" transform="translate(190.869141 0)"/>
       <use xlink:href="#DejaVuSans-30" transform="translate(254.492188 0)"/>
      </g>
     </g>
    </g>
    <g id="xtick_2">
     <g id="line2d_2">
      <g>
       <use xlink:href="#m5c1ee8d730" x="179.162874" y="257.158895" style="stroke: #000000; stroke-width: 0.8"/>
      </g>
     </g>
     <g id="text_2">
      <!-- 40000 -->
      <g transform="translate(163.256624 271.757332) scale(0.1 -0.1)">
       <defs>
        <path id="DejaVuSans-34" d="M 2419 4116 
L 825 1625 
L 2419 1625 
L 2419 4116 
z
M 2253 4666 
L 3047 4666 
L 3047 1625 
L 3713 1625 
L 3713 1100 
L 3047 1100 
L 3047 0 
L 2419 0 
L 2419 1100 
L 313 1100 
L 313 1709 
L 2253 4666 
z
" transform="scale(0.015625)"/>
       </defs>
       <use xlink:href="#DejaVuSans-34"/>
       <use xlink:href="#DejaVuSans-30" transform="translate(63.623047 0)"/>
       <use xlink:href="#DejaVuSans-30" transform="translate(127.246094 0)"/>
       <use xlink:href="#DejaVuSans-30" transform="translate(190.869141 0)"/>
       <use xlink:href="#DejaVuSans-30" transform="translate(254.492188 0)"/>
      </g>
     </g>
    </g>
    <g id="xtick_3">
     <g id="line2d_3">
      <g>
       <use xlink:href="#m5c1ee8d730" x="242.150141" y="257.158895" style="stroke: #000000; stroke-width: 0.8"/>
      </g>
     </g>
     <g id="text_3">
      <!-- 50000 -->
      <g transform="translate(226.243891 271.757332) scale(0.1 -0.1)">
       <defs>
        <path id="DejaVuSans-35" d="M 691 4666 
L 3169 4666 
L 3169 4134 
L 1269 4134 
L 1269 2991 
Q 1406 3038 1543 3061 
Q 1681 3084 1819 3084 
Q 2600 3084 3056 2656 
Q 3513 2228 3513 1497 
Q 3513 744 3044 326 
Q 2575 -91 1722 -91 
Q 1428 -91 1123 -41 
Q 819 9 494 109 
L 494 744 
Q 775 591 1075 516 
Q 1375 441 1709 441 
Q 2250 441 2565 725 
Q 2881 1009 2881 1497 
Q 2881 1984 2565 2268 
Q 2250 2553 1709 2553 
Q 1456 2553 1204 2497 
Q 953 2441 691 2322 
L 691 4666 
z
" transform="scale(0.015625)"/>
       </defs>
       <use xlink:href="#DejaVuSans-35"/>
       <use xlink:href="#DejaVuSans-30" transform="translate(63.623047 0)"/>
       <use xlink:href="#DejaVuSans-30" transform="translate(127.246094 0)"/>
       <use xlink:href="#DejaVuSans-30" transform="translate(190.869141 0)"/>
       <use xlink:href="#DejaVuSans-30" transform="translate(254.492188 0)"/>
      </g>
     </g>
    </g>
    <g id="xtick_4">
     <g id="line2d_4">
      <g>
       <use xlink:href="#m5c1ee8d730" x="305.137409" y="257.158895" style="stroke: #000000; stroke-width: 0.8"/>
      </g>
     </g>
     <g id="text_4">
      <!-- 60000 -->
      <g transform="translate(289.231159 271.757332) scale(0.1 -0.1)">
       <defs>
        <path id="DejaVuSans-36" d="M 2113 2584 
Q 1688 2584 1439 2293 
Q 1191 2003 1191 1497 
Q 1191 994 1439 701 
Q 1688 409 2113 409 
Q 2538 409 2786 701 
Q 3034 994 3034 1497 
Q 3034 2003 2786 2293 
Q 2538 2584 2113 2584 
z
M 3366 4563 
L 3366 3988 
Q 3128 4100 2886 4159 
Q 2644 4219 2406 4219 
Q 1781 4219 1451 3797 
Q 1122 3375 1075 2522 
Q 1259 2794 1537 2939 
Q 1816 3084 2150 3084 
Q 2853 3084 3261 2657 
Q 3669 2231 3669 1497 
Q 3669 778 3244 343 
Q 2819 -91 2113 -91 
Q 1303 -91 875 529 
Q 447 1150 447 2328 
Q 447 3434 972 4092 
Q 1497 4750 2381 4750 
Q 2619 4750 2861 4703 
Q 3103 4656 3366 4563 
z
" transform="scale(0.015625)"/>
       </defs>
       <use xlink:href="#DejaVuSans-36"/>
       <use xlink:href="#DejaVuSans-30" transform="translate(63.623047 0)"/>
       <use xlink:href="#DejaVuSans-30" transform="translate(127.246094 0)"/>
       <use xlink:href="#DejaVuSans-30" transform="translate(190.869141 0)"/>
       <use xlink:href="#DejaVuSans-30" transform="translate(254.492188 0)"/>
      </g>
     </g>
    </g>
    <g id="xtick_5">
     <g id="line2d_5">
      <g>
       <use xlink:href="#m5c1ee8d730" x="368.124677" y="257.158895" style="stroke: #000000; stroke-width: 0.8"/>
      </g>
     </g>
     <g id="text_5">
      <!-- 70000 -->
      <g transform="translate(352.218427 271.757332) scale(0.1 -0.1)">
       <defs>
        <path id="DejaVuSans-37" d="M 525 4666 
L 3525 4666 
L 3525 4397 
L 1831 0 
L 1172 0 
L 2766 4134 
L 525 4134 
L 525 4666 
z
" transform="scale(0.015625)"/>
       </defs>
       <use xlink:href="#DejaVuSans-37"/>
       <use xlink:href="#DejaVuSans-30" transform="translate(63.623047 0)"/>
       <use xlink:href="#DejaVuSans-30" transform="translate(127.246094 0)"/>
       <use xlink:href="#DejaVuSans-30" transform="translate(190.869141 0)"/>
       <use xlink:href="#DejaVuSans-30" transform="translate(254.492188 0)"/>
      </g>
     </g>
    </g>
    <g id="text_6">
     <!-- toa [µs] -->
     <g transform="translate(214.603786 285.435457) scale(0.1 -0.1)">
      <defs>
       <path id="DejaVuSans-74" d="M 1172 4494 
L 1172 3500 
L 2356 3500 
L 2356 3053 
L 1172 3053 
L 1172 1153 
Q 1172 725 1289 603 
Q 1406 481 1766 481 
L 2356 481 
L 2356 0 
L 1766 0 
Q 1100 0 847 248 
Q 594 497 594 1153 
L 594 3053 
L 172 3053 
L 172 3500 
L 594 3500 
L 594 4494 
L 1172 4494 
z
" transform="scale(0.015625)"/>
       <path id="DejaVuSans-6f" d="M 1959 3097 
Q 1497 3097 1228 2736 
Q 959 2375 959 1747 
Q 959 1119 1226 758 
Q 1494 397 1959 397 
Q 2419 397 2687 759 
Q 2956 1122 2956 1747 
Q 2956 2369 2687 2733 
Q 2419 3097 1959 3097 
z
M 1959 3584 
Q 2709 3584 3137 3096 
Q 3566 2609 3566 1747 
Q 3566 888 3137 398 
Q 2709 -91 1959 -91 
Q 1206 -91 779 398 
Q 353 888 353 1747 
Q 353 2609 779 3096 
Q 1206 3584 1959 3584 
z
" transform="scale(0.015625)"/>
       <path id="DejaVuSans-61" d="M 2194 1759 
Q 1497 1759 1228 1600 
Q 959 1441 959 1056 
Q 959 750 1161 570 
Q 1363 391 1709 391 
Q 2188 391 2477 730 
Q 2766 1069 2766 1631 
L 2766 1759 
L 2194 1759 
z
M 3341 1997 
L 3341 0 
L 2766 0 
L 2766 531 
Q 2569 213 2275 61 
Q 1981 -91 1556 -91 
Q 1019 -91 701 211 
Q 384 513 384 1019 
Q 384 1609 779 1909 
Q 1175 2209 1959 2209 
L 2766 2209 
L 2766 2266 
Q 2766 2663 2505 2880 
Q 2244 3097 1772 3097 
Q 1472 3097 1187 3025 
Q 903 2953 641 2809 
L 641 3341 
Q 956 3463 1253 3523 
Q 1550 3584 1831 3584 
Q 2591 3584 2966 3190 
Q 3341 2797 3341 1997 
z
" transform="scale(0.015625)"/>
       <path id="DejaVuSans-20" transform="scale(0.015625)"/>
       <path id="DejaVuSans-5b" d="M 550 4863 
L 1875 4863 
L 1875 4416 
L 1125 4416 
L 1125 -397 
L 1875 -397 
L 1875 -844 
L 550 -844 
L 550 4863 
z
" transform="scale(0.015625)"/>
       <path id="DejaVuSans-b5" d="M 544 -1331 
L 544 3500 
L 1119 3500 
L 1119 1325 
Q 1119 872 1334 640 
Q 1550 409 1972 409 
Q 2434 409 2667 671 
Q 2900 934 2900 1459 
L 2900 3500 
L 3475 3500 
L 3475 806 
Q 3475 619 3529 530 
Q 3584 441 3700 441 
Q 3728 441 3778 458 
Q 3828 475 3916 513 
L 3916 50 
Q 3788 -22 3673 -56 
Q 3559 -91 3450 -91 
Q 3234 -91 3106 31 
Q 2978 153 2931 403 
Q 2775 156 2548 32 
Q 2322 -91 2016 -91 
Q 1697 -91 1473 31 
Q 1250 153 1119 397 
L 1119 -1331 
L 544 -1331 
z
" transform="scale(0.015625)"/>
       <path id="DejaVuSans-73" d="M 2834 3397 
L 2834 2853 
Q 2591 2978 2328 3040 
Q 2066 3103 1784 3103 
Q 1356 3103 1142 2972 
Q 928 2841 928 2578 
Q 928 2378 1081 2264 
Q 1234 2150 1697 2047 
L 1894 2003 
Q 2506 1872 2764 1633 
Q 3022 1394 3022 966 
Q 3022 478 2636 193 
Q 2250 -91 1575 -91 
Q 1294 -91 989 -36 
Q 684 19 347 128 
L 347 722 
Q 666 556 975 473 
Q 1284 391 1588 391 
Q 1994 391 2212 530 
Q 2431 669 2431 922 
Q 2431 1156 2273 1281 
Q 2116 1406 1581 1522 
L 1381 1569 
Q 847 1681 609 1914 
Q 372 2147 372 2553 
Q 372 3047 722 3315 
Q 1072 3584 1716 3584 
Q 2034 3584 2315 3537 
Q 2597 3491 2834 3397 
z
" transform="scale(0.015625)"/>
       <path id="DejaVuSans-5d" d="M 1947 4863 
L 1947 -844 
L 622 -844 
L 622 -397 
L 1369 -397 
L 1369 4416 
L 622 4416 
L 622 4863 
L 1947 4863 
z
" transform="scale(0.015625)"/>
      </defs>
      <use xlink:href="#DejaVuSans-74"/>
      <use xlink:href="#DejaVuSans-6f" transform="translate(39.208984 0)"/>
      <use xlink:href="#DejaVuSans-61" transform="translate(100.390625 0)"/>
      <use xlink:href="#DejaVuSans-20" transform="translate(161.669922 0)"/>
      <use xlink:href="#DejaVuSans-5b" transform="translate(193.457031 0)"/>
      <use xlink:href="#DejaVuSans-b5" transform="translate(232.470703 0)"/>
      <use xlink:href="#DejaVuSans-73" transform="translate(296.09375 0)"/>
      <use xlink:href="#DejaVuSans-5d" transform="translate(348.193359 0)"/>
     </g>
    </g>
   </g>
   <g id="matplotlib.axis_2">
    <g id="ytick_1">
     <g id="line2d_6">
      <defs>
       <path id="maa6182b103" d="M 0 0 
L -3.5 0 
" style="stroke: #000000; stroke-width: 0.8"/>
      </defs>
      <g>
       <use xlink:href="#maa6182b103" x="53.328125" y="245.797127" style="stroke: #000000; stroke-width: 0.8"/>
      </g>
     </g>
     <g id="text_7">
      <!-- 0 -->
      <g transform="translate(39.965625 249.596346) scale(0.1 -0.1)">
       <use xlink:href="#DejaVuSans-30"/>
      </g>
     </g>
    </g>
    <g id="ytick_2">
     <g id="line2d_7">
      <g>
       <use xlink:href="#maa6182b103" x="53.328125" y="199.175182" style="stroke: #000000; stroke-width: 0.8"/>
      </g>
     </g>
     <g id="text_8">
      <!-- 500 -->
      <g transform="translate(27.240625 202.974401) scale(0.1 -0.1)">
       <use xlink:href="#DejaVuSans-35"/>
       <use xlink:href="#DejaVuSans-30" transform="translate(63.623047 0)"/>
       <use xlink:href="#DejaVuSans-30" transform="translate(127.246094 0)"/>
      </g>
     </g>
    </g>
    <g id="ytick_3">
     <g id="line2d_8">
      <g>
       <use xlink:href="#maa6182b103" x="53.328125" y="152.553237" style="stroke: #000000; stroke-width: 0.8"/>
      </g>
     </g>
     <g id="text_9">
      <!-- 1000 -->
      <g transform="translate(20.878125 156.352456) scale(0.1 -0.1)">
       <defs>
        <path id="DejaVuSans-31" d="M 794 531 
L 1825 531 
L 1825 4091 
L 703 3866 
L 703 4441 
L 1819 4666 
L 2450 4666 
L 2450 531 
L 3481 531 
L 3481 0 
L 794 0 
L 794 531 
z
" transform="scale(0.015625)"/>
       </defs>
       <use xlink:href="#DejaVuSans-31"/>
       <use xlink:href="#DejaVuSans-30" transform="translate(63.623047 0)"/>
       <use xlink:href="#DejaVuSans-30" transform="translate(127.246094 0)"/>
       <use xlink:href="#DejaVuSans-30" transform="translate(190.869141 0)"/>
      </g>
     </g>
    </g>
    <g id="ytick_4">
     <g id="line2d_9">
      <g>
       <use xlink:href="#maa6182b103" x="53.328125" y="105.931293" style="stroke: #000000; stroke-width: 0.8"/>
      </g>
     </g>
     <g id="text_10">
      <!-- 1500 -->
      <g transform="translate(20.878125 109.730511) scale(0.1 -0.1)">
       <use xlink:href="#DejaVuSans-31"/>
       <use xlink:href="#DejaVuSans-35" transform="translate(63.623047 0)"/>
       <use xlink:href="#DejaVuSans-30" transform="translate(127.246094 0)"/>
       <use xlink:href="#DejaVuSans-30" transform="translate(190.869141 0)"/>
      </g>
     </g>
    </g>
    <g id="ytick_5">
     <g id="line2d_10">
      <g>
       <use xlink:href="#maa6182b103" x="53.328125" y="59.309348" style="stroke: #000000; stroke-width: 0.8"/>
      </g>
     </g>
     <g id="text_11">
      <!-- 2000 -->
      <g transform="translate(20.878125 63.108566) scale(0.1 -0.1)">
       <defs>
        <path id="DejaVuSans-32" d="M 1228 531 
L 3431 531 
L 3431 0 
L 469 0 
L 469 531 
Q 828 903 1448 1529 
Q 2069 2156 2228 2338 
Q 2531 2678 2651 2914 
Q 2772 3150 2772 3378 
Q 2772 3750 2511 3984 
Q 2250 4219 1831 4219 
Q 1534 4219 1204 4116 
Q 875 4013 500 3803 
L 500 4441 
Q 881 4594 1212 4672 
Q 1544 4750 1819 4750 
Q 2544 4750 2975 4387 
Q 3406 4025 3406 3419 
Q 3406 3131 3298 2873 
Q 3191 2616 2906 2266 
Q 2828 2175 2409 1742 
Q 1991 1309 1228 531 
z
" transform="scale(0.015625)"/>
       </defs>
       <use xlink:href="#DejaVuSans-32"/>
       <use xlink:href="#DejaVuSans-30" transform="translate(63.623047 0)"/>
       <use xlink:href="#DejaVuSans-30" transform="translate(127.246094 0)"/>
       <use xlink:href="#DejaVuSans-30" transform="translate(190.869141 0)"/>
      </g>
     </g>
    </g>
    <g id="ytick_6">
     <g id="line2d_11">
      <g>
       <use xlink:href="#maa6182b103" x="53.328125" y="12.687403" style="stroke: #000000; stroke-width: 0.8"/>
      </g>
     </g>
     <g id="text_12">
      <!-- 2500 -->
      <g transform="translate(20.878125 16.486622) scale(0.1 -0.1)">
       <use xlink:href="#DejaVuSans-32"/>
       <use xlink:href="#DejaVuSans-35" transform="translate(63.623047 0)"/>
       <use xlink:href="#DejaVuSans-30" transform="translate(127.246094 0)"/>
       <use xlink:href="#DejaVuSans-30" transform="translate(190.869141 0)"/>
      </g>
     </g>
    </g>
    <g id="text_13">
     <!-- pulse:0 [counts] -->
     <g transform="translate(14.798438 172.659916) rotate(-90) scale(0.1 -0.1)">
      <defs>
       <path id="DejaVuSans-70" d="M 1159 525 
L 1159 -1331 
L 581 -1331 
L 581 3500 
L 1159 3500 
L 1159 2969 
Q 1341 3281 1617 3432 
Q 1894 3584 2278 3584 
Q 2916 3584 3314 3078 
Q 3713 2572 3713 1747 
Q 3713 922 3314 415 
Q 2916 -91 2278 -91 
Q 1894 -91 1617 61 
Q 1341 213 1159 525 
z
M 3116 1747 
Q 3116 2381 2855 2742 
Q 2594 3103 2138 3103 
Q 1681 3103 1420 2742 
Q 1159 2381 1159 1747 
Q 1159 1113 1420 752 
Q 1681 391 2138 391 
Q 2594 391 2855 752 
Q 3116 1113 3116 1747 
z
" transform="scale(0.015625)"/>
       <path id="DejaVuSans-75" d="M 544 1381 
L 544 3500 
L 1119 3500 
L 1119 1403 
Q 1119 906 1312 657 
Q 1506 409 1894 409 
Q 2359 409 2629 706 
Q 2900 1003 2900 1516 
L 2900 3500 
L 3475 3500 
L 3475 0 
L 2900 0 
L 2900 538 
Q 2691 219 2414 64 
Q 2138 -91 1772 -91 
Q 1169 -91 856 284 
Q 544 659 544 1381 
z
M 1991 3584 
L 1991 3584 
z
" transform="scale(0.015625)"/>
       <path id="DejaVuSans-6c" d="M 603 4863 
L 1178 4863 
L 1178 0 
L 603 0 
L 603 4863 
z
" transform="scale(0.015625)"/>
       <path id="DejaVuSans-65" d="M 3597 1894 
L 3597 1613 
L 953 1613 
Q 991 1019 1311 708 
Q 1631 397 2203 397 
Q 2534 397 2845 478 
Q 3156 559 3463 722 
L 3463 178 
Q 3153 47 2828 -22 
Q 2503 -91 2169 -91 
Q 1331 -91 842 396 
Q 353 884 353 1716 
Q 353 2575 817 3079 
Q 1281 3584 2069 3584 
Q 2775 3584 3186 3129 
Q 3597 2675 3597 1894 
z
M 3022 2063 
Q 3016 2534 2758 2815 
Q 2500 3097 2075 3097 
Q 1594 3097 1305 2825 
Q 1016 2553 972 2059 
L 3022 2063 
z
" transform="scale(0.015625)"/>
       <path id="DejaVuSans-3a" d="M 750 794 
L 1409 794 
L 1409 0 
L 750 0 
L 750 794 
z
M 750 3309 
L 1409 3309 
L 1409 2516 
L 750 2516 
L 750 3309 
z
" transform="scale(0.015625)"/>
       <path id="DejaVuSans-63" d="M 3122 3366 
L 3122 2828 
Q 2878 2963 2633 3030 
Q 2388 3097 2138 3097 
Q 1578 3097 1268 2742 
Q 959 2388 959 1747 
Q 959 1106 1268 751 
Q 1578 397 2138 397 
Q 2388 397 2633 464 
Q 2878 531 3122 666 
L 3122 134 
Q 2881 22 2623 -34 
Q 2366 -91 2075 -91 
Q 1284 -91 818 406 
Q 353 903 353 1747 
Q 353 2603 823 3093 
Q 1294 3584 2113 3584 
Q 2378 3584 2631 3529 
Q 2884 3475 3122 3366 
z
" transform="scale(0.015625)"/>
       <path id="DejaVuSans-6e" d="M 3513 2113 
L 3513 0 
L 2938 0 
L 2938 2094 
Q 2938 2591 2744 2837 
Q 2550 3084 2163 3084 
Q 1697 3084 1428 2787 
Q 1159 2491 1159 1978 
L 1159 0 
L 581 0 
L 581 3500 
L 1159 3500 
L 1159 2956 
Q 1366 3272 1645 3428 
Q 1925 3584 2291 3584 
Q 2894 3584 3203 3211 
Q 3513 2838 3513 2113 
z
" transform="scale(0.015625)"/>
      </defs>
      <use xlink:href="#DejaVuSans-70"/>
      <use xlink:href="#DejaVuSans-75" transform="translate(63.476562 0)"/>
      <use xlink:href="#DejaVuSans-6c" transform="translate(126.855469 0)"/>
      <use xlink:href="#DejaVuSans-73" transform="translate(154.638672 0)"/>
      <use xlink:href="#DejaVuSans-65" transform="translate(206.738281 0)"/>
      <use xlink:href="#DejaVuSans-3a" transform="translate(268.261719 0)"/>
      <use xlink:href="#DejaVuSans-30" transform="translate(301.953125 0)"/>
      <use xlink:href="#DejaVuSans-20" transform="translate(365.576172 0)"/>
      <use xlink:href="#DejaVuSans-5b" transform="translate(397.363281 0)"/>
      <use xlink:href="#DejaVuSans-63" transform="translate(436.376953 0)"/>
      <use xlink:href="#DejaVuSans-6f" transform="translate(491.357422 0)"/>
      <use xlink:href="#DejaVuSans-75" transform="translate(552.539062 0)"/>
      <use xlink:href="#DejaVuSans-6e" transform="translate(615.917969 0)"/>
      <use xlink:href="#DejaVuSans-74" transform="translate(679.296875 0)"/>
      <use xlink:href="#DejaVuSans-73" transform="translate(718.505859 0)"/>
      <use xlink:href="#DejaVuSans-5d" transform="translate(770.605469 0)"/>
     </g>
    </g>
   </g>
   <g id="line2d_12">
    <path d="M 69.749563 245.610639 
L 70.844325 245.610639 
L 70.844325 245.237664 
L 71.939088 245.237664 
L 71.939088 242.720079 
L 73.033851 242.720079 
L 73.033851 236.565982 
L 74.128613 236.565982 
L 74.128613 220.061814 
L 75.223376 220.061814 
L 75.223376 177.262868 
L 76.318138 177.262868 
L 76.318138 152.926213 
L 77.412901 152.926213 
L 77.412901 141.83019 
L 78.507663 141.83019 
L 78.507663 126.258461 
L 79.602426 126.258461 
L 79.602426 125.232778 
L 80.697188 125.232778 
L 80.697188 106.11778 
L 81.791951 106.11778 
L 81.791951 103.133976 
L 82.886713 103.133976 
L 82.886713 99.124489 
L 83.981476 99.124489 
L 83.981476 83.273027 
L 85.076238 83.273027 
L 85.076238 75.533785 
L 86.171001 75.533785 
L 86.171001 72.643224 
L 87.265763 72.643224 
L 87.265763 62.199908 
L 88.360526 62.199908 
L 88.360526 53.994446 
L 89.455289 53.994446 
L 89.455289 49.891715 
L 90.550051 49.891715 
L 90.550051 50.73091 
L 91.644814 50.73091 
L 91.644814 43.457886 
L 92.739576 43.457886 
L 92.739576 36.091619 
L 93.834339 36.091619 
L 93.834339 35.15918 
L 94.929101 35.15918 
L 94.929101 21.359085 
L 96.023864 21.359085 
L 96.023864 21.825304 
L 97.118626 21.825304 
L 97.118626 18.561768 
L 98.213389 18.561768 
L 98.213389 20.799621 
L 99.308151 20.799621 
L 99.308151 19.773939 
L 100.402914 19.773939 
L 100.402914 24.715865 
L 101.497676 24.715865 
L 101.497676 59.029616 
L 102.592439 59.029616 
L 102.592439 98.285294 
L 103.687201 98.285294 
L 103.687201 138.93963 
L 104.781964 138.93963 
L 104.781964 171.388503 
L 105.876726 171.388503 
L 105.876726 204.769816 
L 106.971489 204.769816 
L 106.971489 231.344324 
L 108.066252 231.344324 
L 108.066252 245.797127 
L 125.582452 245.797127 
L 125.582452 244.118737 
L 126.677215 244.118737 
L 126.677215 237.684909 
L 127.771977 237.684909 
L 127.771977 216.61179 
L 128.86674 216.61179 
L 128.86674 191.062964 
L 129.961502 191.062964 
L 129.961502 159.546529 
L 131.056265 159.546529 
L 131.056265 143.322092 
L 132.151027 143.322092 
L 132.151027 118.705705 
L 133.24579 118.705705 
L 133.24579 94.462294 
L 134.340552 94.462294 
L 134.340552 83.646003 
L 135.435315 83.646003 
L 135.435315 73.482419 
L 136.530077 73.482419 
L 136.530077 65.556688 
L 137.62484 65.556688 
L 137.62484 71.431053 
L 138.719602 71.431053 
L 138.719602 78.983808 
L 139.814365 78.983808 
L 139.814365 84.205466 
L 140.909127 84.205466 
L 140.909127 87.002783 
L 142.00389 87.002783 
L 142.00389 94.83527 
L 143.098652 94.83527 
L 143.098652 104.159659 
L 144.193415 104.159659 
L 144.193415 107.79617 
L 145.288178 107.79617 
L 145.288178 110.127268 
L 146.38294 110.127268 
L 146.38294 128.309826 
L 147.477703 128.309826 
L 147.477703 124.953046 
L 148.572465 124.953046 
L 148.572465 133.344996 
L 149.667228 133.344996 
L 149.667228 141.457215 
L 150.76199 141.457215 
L 150.76199 149.289701 
L 151.856753 149.289701 
L 151.856753 155.350554 
L 152.951515 155.350554 
L 152.951515 152.459994 
L 154.046278 152.459994 
L 154.046278 157.588407 
L 155.14104 157.588407 
L 155.14104 164.674943 
L 156.235803 164.674943 
L 156.235803 171.668235 
L 157.330565 171.668235 
L 157.330565 172.50743 
L 158.425328 172.50743 
L 158.425328 180.339917 
L 159.52009 180.339917 
L 159.52009 182.764258 
L 160.614853 182.764258 
L 160.614853 183.603453 
L 161.709615 183.603453 
L 161.709615 191.156208 
L 162.804378 191.156208 
L 162.804378 194.699476 
L 163.899141 194.699476 
L 163.899141 196.00489 
L 164.993903 196.00489 
L 164.993903 202.531962 
L 166.088666 202.531962 
L 166.088666 201.692767 
L 167.183428 201.692767 
L 167.183428 205.422523 
L 168.278191 205.422523 
L 168.278191 212.415815 
L 169.372953 212.415815 
L 169.372953 214.094205 
L 170.467716 214.094205 
L 170.467716 216.984765 
L 171.562478 216.984765 
L 171.562478 219.315862 
L 172.657241 219.315862 
L 172.657241 222.85913 
L 173.752003 222.85913 
L 173.752003 223.32535 
L 174.846766 223.32535 
L 174.846766 226.868617 
L 175.941528 226.868617 
L 175.941528 231.157836 
L 177.036291 231.157836 
L 177.036291 237.96464 
L 178.131053 237.96464 
L 178.131053 244.305225 
L 179.225816 244.305225 
L 179.225816 245.797127 
L 202.215829 245.797127 
L 202.215829 245.517395 
L 204.405354 245.517395 
L 204.405354 244.211981 
L 205.500117 244.211981 
L 205.500117 241.694396 
L 206.594879 241.694396 
L 206.594879 236.938958 
L 207.689642 236.938958 
L 207.689642 232.556495 
L 208.784404 232.556495 
L 208.784404 231.997031 
L 209.879167 231.997031 
L 209.879167 231.344324 
L 210.973929 231.344324 
L 210.973929 226.122666 
L 212.068692 226.122666 
L 212.068692 229.013227 
L 213.163454 229.013227 
L 213.163454 227.241593 
L 214.258217 227.241593 
L 214.258217 224.257789 
L 216.447742 224.164545 
L 216.447742 223.791569 
L 217.542505 223.791569 
L 217.542505 219.782082 
L 218.637267 219.782082 
L 218.637267 220.341545 
L 219.73203 220.341545 
L 219.73203 220.714521 
L 220.826792 220.714521 
L 220.826792 218.663155 
L 221.921555 218.663155 
L 221.921555 219.036131 
L 223.016317 219.036131 
L 223.016317 217.357741 
L 224.11108 217.357741 
L 224.11108 217.078009 
L 226.300605 216.984765 
L 226.300605 211.949595 
L 227.395367 211.949595 
L 227.395367 210.830668 
L 228.49013 210.830668 
L 228.49013 214.9334 
L 229.584892 214.9334 
L 229.584892 212.695546 
L 231.774417 212.602302 
L 231.774417 211.483376 
L 232.86918 211.483376 
L 232.86918 211.856351 
L 233.963942 211.856351 
L 233.963942 209.338766 
L 235.058705 209.338766 
L 235.058705 209.059035 
L 236.153468 209.059035 
L 236.153468 207.75362 
L 237.24823 207.75362 
L 237.24823 206.07523 
L 238.342993 206.07523 
L 238.342993 206.54145 
L 239.437755 206.54145 
L 239.437755 205.329279 
L 240.532518 205.329279 
L 240.532518 206.354962 
L 241.62728 206.354962 
L 241.62728 208.499571 
L 242.722043 208.499571 
L 242.722043 203.650889 
L 243.816805 203.650889 
L 243.816805 207.473888 
L 244.911568 207.473888 
L 244.911568 203.464401 
L 247.101093 203.464401 
L 247.101093 205.049547 
L 248.195855 205.049547 
L 248.195855 203.277913 
L 249.290618 203.277913 
L 249.290618 204.39684 
L 250.38538 204.39684 
L 250.38538 206.821181 
L 251.480143 206.821181 
L 251.480143 208.872547 
L 252.574906 208.872547 
L 252.574906 205.609011 
L 253.669668 205.609011 
L 253.669668 206.448206 
L 254.764431 206.448206 
L 254.764431 204.863059 
L 255.859193 204.863059 
L 255.859193 210.364449 
L 256.953956 210.364449 
L 256.953956 211.203644 
L 258.048718 211.203644 
L 258.048718 210.644181 
L 259.143481 210.644181 
L 259.143481 212.509058 
L 260.238243 212.509058 
L 260.238243 218.29018 
L 261.333006 218.29018 
L 261.333006 225.842935 
L 262.427768 225.842935 
L 262.427768 228.174032 
L 263.522531 228.174032 
L 263.522531 233.39569 
L 264.617293 233.39569 
L 264.617293 237.218689 
L 265.712056 237.218689 
L 265.712056 241.32142 
L 266.806818 241.32142 
L 266.806818 244.584956 
L 267.901581 244.584956 
L 267.901581 245.797127 
L 282.133494 245.797127 
L 282.133494 245.424151 
L 283.228256 245.424151 
L 283.228256 245.237664 
L 284.323019 245.237664 
L 284.323019 244.398469 
L 285.417781 244.398469 
L 285.417781 240.575469 
L 286.512544 240.575469 
L 286.512544 238.710591 
L 287.607306 238.710591 
L 287.607306 235.07408 
L 288.702069 235.07408 
L 288.702069 230.132154 
L 289.796832 230.132154 
L 289.796832 227.987544 
L 290.891594 227.987544 
L 290.891594 226.868617 
L 291.986357 226.868617 
L 291.986357 223.511837 
L 293.081119 223.511837 
L 293.081119 221.18074 
L 294.175882 221.18074 
L 294.175882 220.994252 
L 295.270644 220.994252 
L 295.270644 219.50235 
L 296.365407 219.50235 
L 296.365407 220.061814 
L 297.460169 220.061814 
L 297.460169 223.32535 
L 299.649694 223.232106 
L 299.649694 221.460472 
L 300.744457 221.460472 
L 300.744457 222.85913 
L 301.839219 222.85913 
L 301.839219 221.087496 
L 302.933982 221.087496 
L 302.933982 220.248301 
L 304.028744 220.248301 
L 304.028744 222.765886 
L 305.123507 222.765886 
L 305.123507 224.071301 
L 306.218269 224.071301 
L 306.218269 227.055105 
L 307.313032 227.055105 
L 307.313032 224.351032 
L 308.407795 224.351032 
L 308.407795 224.53752 
L 309.502557 224.53752 
L 309.502557 225.00374 
L 310.59732 225.00374 
L 310.59732 226.402398 
L 311.692082 226.402398 
L 311.692082 227.148349 
L 312.786845 227.148349 
L 312.786845 226.122666 
L 313.881607 226.122666 
L 313.881607 225.376715 
L 314.97637 225.376715 
L 314.97637 226.402398 
L 316.071132 226.402398 
L 316.071132 226.029422 
L 317.165895 226.029422 
L 317.165895 226.775374 
L 318.260657 226.775374 
L 318.260657 225.096984 
L 319.35542 225.096984 
L 319.35542 226.402398 
L 320.450182 226.402398 
L 320.450182 227.148349 
L 321.544945 227.148349 
L 321.544945 225.749691 
L 322.639707 225.749691 
L 322.639707 224.817252 
L 323.73447 224.817252 
L 323.73447 229.665934 
L 324.829233 229.665934 
L 324.829233 230.132154 
L 325.923995 230.132154 
L 325.923995 227.8943 
L 327.018758 227.8943 
L 327.018758 229.106471 
L 328.11352 229.106471 
L 328.11352 230.318641 
L 329.208283 230.318641 
L 329.208283 228.174032 
L 330.303045 228.174032 
L 330.303045 226.961861 
L 331.397808 226.961861 
L 331.397808 229.292959 
L 332.49257 229.292959 
L 332.49257 230.225397 
L 333.587333 230.225397 
L 333.587333 230.411885 
L 334.682095 230.411885 
L 334.682095 228.826739 
L 335.776858 228.826739 
L 335.776858 229.479446 
L 336.87162 229.479446 
L 336.87162 229.292959 
L 337.966383 229.292959 
L 337.966383 232.276763 
L 339.061145 232.276763 
L 339.061145 230.784861 
L 340.155908 230.784861 
L 340.155908 230.505129 
L 341.25067 230.505129 
L 341.25067 229.479446 
L 342.345433 229.479446 
L 342.345433 231.437568 
L 343.440196 231.437568 
L 343.440196 232.183519 
L 344.534958 232.183519 
L 344.534958 230.691617 
L 345.629721 230.691617 
L 345.629721 231.7173 
L 346.724483 231.7173 
L 346.724483 230.878105 
L 347.819246 230.878105 
L 347.819246 232.463251 
L 348.914008 232.463251 
L 348.914008 234.421373 
L 350.008771 234.421373 
L 350.008771 232.183519 
L 351.103533 232.183519 
L 351.103533 230.505129 
L 352.198296 230.505129 
L 352.198296 234.141641 
L 353.293058 234.141641 
L 353.293058 231.064592 
L 354.387821 231.064592 
L 354.387821 232.836226 
L 355.482583 232.836226 
L 355.482583 233.582178 
L 356.577346 233.582178 
L 356.577346 232.556495 
L 357.672108 232.556495 
L 357.672108 232.836226 
L 358.766871 232.836226 
L 358.766871 230.318641 
L 359.861633 230.318641 
L 359.861633 233.022714 
L 360.956396 233.022714 
L 360.956396 234.421373 
L 362.051159 234.421373 
L 362.051159 232.92947 
L 363.145921 232.92947 
L 363.145921 233.582178 
L 364.240684 233.582178 
L 364.240684 234.048397 
L 365.335446 234.048397 
L 365.335446 234.60786 
L 366.430209 234.60786 
L 366.430209 233.955153 
L 367.524971 233.955153 
L 367.524971 233.675421 
L 368.619734 233.675421 
L 368.619734 234.701104 
L 369.714496 234.701104 
L 369.714496 235.07408 
L 370.809259 235.07408 
L 370.809259 233.209202 
L 371.904021 233.209202 
L 371.904021 235.07408 
L 374.093546 235.167324 
L 374.093546 234.328129 
L 375.188309 234.328129 
L 375.188309 231.997031 
L 376.283071 231.997031 
L 376.283071 235.07408 
L 377.377834 235.07408 
L 377.377834 234.421373 
L 378.472596 234.421373 
L 378.472596 233.115958 
L 379.567359 233.115958 
L 379.567359 236.006519 
L 380.662122 236.006519 
L 380.662122 234.701104 
L 381.756884 234.701104 
L 381.756884 234.887592 
L 382.851647 234.887592 
L 382.851647 235.820031 
L 383.946409 235.820031 
L 383.946409 235.353811 
L 385.041172 235.353811 
L 385.041172 237.311933 
L 386.135934 237.311933 
L 386.135934 236.006519 
L 387.230697 236.006519 
L 387.230697 236.193006 
L 388.325459 236.193006 
L 388.325459 235.07408 
L 389.420222 235.07408 
L 389.420222 237.498421 
L 390.514984 237.498421 
L 390.514984 236.659226 
L 391.609747 236.659226 
L 391.609747 238.151128 
L 392.704509 238.151128 
L 392.704509 240.668713 
L 393.799272 240.668713 
L 393.799272 241.880884 
L 394.894034 241.880884 
L 394.894034 242.720079 
L 395.988797 242.720079 
L 395.988797 244.118737 
L 397.08356 244.118737 
L 397.08356 244.864688 
L 398.178322 244.864688 
L 398.178322 244.864688 
" clip-path="url(#pda27fc40e0)" style="fill: none; stroke: #1f77b4; stroke-width: 1.5; stroke-linecap: square"/>
   </g>
   <g id="patch_3">
    <path d="M 53.328125 257.158895 
L 53.328125 7.2 
" style="fill: none; stroke: #000000; stroke-width: 0.8; stroke-linejoin: miter; stroke-linecap: square"/>
   </g>
   <g id="patch_4">
    <path d="M 414.59976 257.158895 
L 414.59976 7.2 
" style="fill: none; stroke: #000000; stroke-width: 0.8; stroke-linejoin: miter; stroke-linecap: square"/>
   </g>
   <g id="patch_5">
    <path d="M 53.328125 257.158895 
L 414.59976 257.158895 
" style="fill: none; stroke: #000000; stroke-width: 0.8; stroke-linejoin: miter; stroke-linecap: square"/>
   </g>
   <g id="patch_6">
    <path d="M 53.328125 7.2 
L 414.59976 7.2 
" style="fill: none; stroke: #000000; stroke-width: 0.8; stroke-linejoin: miter; stroke-linecap: square"/>
   </g>
  </g>
  <g id="axes_2">
   <g id="patch_7">
    <path d="M 503.927885 257.158895 
L 865.19952 257.158895 
L 865.19952 7.2 
L 503.927885 7.2 
z
" style="fill: #ffffff"/>
   </g>
   <g id="matplotlib.axis_3">
    <g id="xtick_6">
     <g id="line2d_13">
      <g>
       <use xlink:href="#m5c1ee8d730" x="505.586499" y="257.158895" style="stroke: #000000; stroke-width: 0.8"/>
      </g>
     </g>
     <g id="text_14">
      <!-- 2 -->
      <g transform="translate(502.405249 271.757332) scale(0.1 -0.1)">
       <use xlink:href="#DejaVuSans-32"/>
      </g>
     </g>
    </g>
    <g id="xtick_7">
     <g id="line2d_14">
      <g>
       <use xlink:href="#m5c1ee8d730" x="549.323876" y="257.158895" style="stroke: #000000; stroke-width: 0.8"/>
      </g>
     </g>
     <g id="text_15">
      <!-- 3 -->
      <g transform="translate(546.142626 271.757332) scale(0.1 -0.1)">
       <use xlink:href="#DejaVuSans-33"/>
      </g>
     </g>
    </g>
    <g id="xtick_8">
     <g id="line2d_15">
      <g>
       <use xlink:href="#m5c1ee8d730" x="593.061253" y="257.158895" style="stroke: #000000; stroke-width: 0.8"/>
      </g>
     </g>
     <g id="text_16">
      <!-- 4 -->
      <g transform="translate(589.880003 271.757332) scale(0.1 -0.1)">
       <use xlink:href="#DejaVuSans-34"/>
      </g>
     </g>
    </g>
    <g id="xtick_9">
     <g id="line2d_16">
      <g>
       <use xlink:href="#m5c1ee8d730" x="636.798631" y="257.158895" style="stroke: #000000; stroke-width: 0.8"/>
      </g>
     </g>
     <g id="text_17">
      <!-- 5 -->
      <g transform="translate(633.617381 271.757332) scale(0.1 -0.1)">
       <use xlink:href="#DejaVuSans-35"/>
      </g>
     </g>
    </g>
    <g id="xtick_10">
     <g id="line2d_17">
      <g>
       <use xlink:href="#m5c1ee8d730" x="680.536008" y="257.158895" style="stroke: #000000; stroke-width: 0.8"/>
      </g>
     </g>
     <g id="text_18">
      <!-- 6 -->
      <g transform="translate(677.354758 271.757332) scale(0.1 -0.1)">
       <use xlink:href="#DejaVuSans-36"/>
      </g>
     </g>
    </g>
    <g id="xtick_11">
     <g id="line2d_18">
      <g>
       <use xlink:href="#m5c1ee8d730" x="724.273385" y="257.158895" style="stroke: #000000; stroke-width: 0.8"/>
      </g>
     </g>
     <g id="text_19">
      <!-- 7 -->
      <g transform="translate(721.092135 271.757332) scale(0.1 -0.1)">
       <use xlink:href="#DejaVuSans-37"/>
      </g>
     </g>
    </g>
    <g id="xtick_12">
     <g id="line2d_19">
      <g>
       <use xlink:href="#m5c1ee8d730" x="768.010763" y="257.158895" style="stroke: #000000; stroke-width: 0.8"/>
      </g>
     </g>
     <g id="text_20">
      <!-- 8 -->
      <g transform="translate(764.829513 271.757332) scale(0.1 -0.1)">
       <defs>
        <path id="DejaVuSans-38" d="M 2034 2216 
Q 1584 2216 1326 1975 
Q 1069 1734 1069 1313 
Q 1069 891 1326 650 
Q 1584 409 2034 409 
Q 2484 409 2743 651 
Q 3003 894 3003 1313 
Q 3003 1734 2745 1975 
Q 2488 2216 2034 2216 
z
M 1403 2484 
Q 997 2584 770 2862 
Q 544 3141 544 3541 
Q 544 4100 942 4425 
Q 1341 4750 2034 4750 
Q 2731 4750 3128 4425 
Q 3525 4100 3525 3541 
Q 3525 3141 3298 2862 
Q 3072 2584 2669 2484 
Q 3125 2378 3379 2068 
Q 3634 1759 3634 1313 
Q 3634 634 3220 271 
Q 2806 -91 2034 -91 
Q 1263 -91 848 271 
Q 434 634 434 1313 
Q 434 1759 690 2068 
Q 947 2378 1403 2484 
z
M 1172 3481 
Q 1172 3119 1398 2916 
Q 1625 2713 2034 2713 
Q 2441 2713 2670 2916 
Q 2900 3119 2900 3481 
Q 2900 3844 2670 4047 
Q 2441 4250 2034 4250 
Q 1625 4250 1398 4047 
Q 1172 3844 1172 3481 
z
" transform="scale(0.015625)"/>
       </defs>
       <use xlink:href="#DejaVuSans-38"/>
      </g>
     </g>
    </g>
    <g id="xtick_13">
     <g id="line2d_20">
      <g>
       <use xlink:href="#m5c1ee8d730" x="811.74814" y="257.158895" style="stroke: #000000; stroke-width: 0.8"/>
      </g>
     </g>
     <g id="text_21">
      <!-- 9 -->
      <g transform="translate(808.56689 271.757332) scale(0.1 -0.1)">
       <defs>
        <path id="DejaVuSans-39" d="M 703 97 
L 703 672 
Q 941 559 1184 500 
Q 1428 441 1663 441 
Q 2288 441 2617 861 
Q 2947 1281 2994 2138 
Q 2813 1869 2534 1725 
Q 2256 1581 1919 1581 
Q 1219 1581 811 2004 
Q 403 2428 403 3163 
Q 403 3881 828 4315 
Q 1253 4750 1959 4750 
Q 2769 4750 3195 4129 
Q 3622 3509 3622 2328 
Q 3622 1225 3098 567 
Q 2575 -91 1691 -91 
Q 1453 -91 1209 -44 
Q 966 3 703 97 
z
M 1959 2075 
Q 2384 2075 2632 2365 
Q 2881 2656 2881 3163 
Q 2881 3666 2632 3958 
Q 2384 4250 1959 4250 
Q 1534 4250 1286 3958 
Q 1038 3666 1038 3163 
Q 1038 2656 1286 2365 
Q 1534 2075 1959 2075 
z
" transform="scale(0.015625)"/>
       </defs>
       <use xlink:href="#DejaVuSans-39"/>
      </g>
     </g>
    </g>
    <g id="xtick_14">
     <g id="line2d_21">
      <g>
       <use xlink:href="#m5c1ee8d730" x="855.485517" y="257.158895" style="stroke: #000000; stroke-width: 0.8"/>
      </g>
     </g>
     <g id="text_22">
      <!-- 10 -->
      <g transform="translate(849.123017 271.757332) scale(0.1 -0.1)">
       <use xlink:href="#DejaVuSans-31"/>
       <use xlink:href="#DejaVuSans-30" transform="translate(63.623047 0)"/>
      </g>
     </g>
    </g>
    <g id="text_23">
     <!-- wavelength [Å] -->
     <g transform="translate(646.526202 287.119832) scale(0.1 -0.1)">
      <defs>
       <path id="DejaVuSans-77" d="M 269 3500 
L 844 3500 
L 1563 769 
L 2278 3500 
L 2956 3500 
L 3675 769 
L 4391 3500 
L 4966 3500 
L 4050 0 
L 3372 0 
L 2619 2869 
L 1863 0 
L 1184 0 
L 269 3500 
z
" transform="scale(0.015625)"/>
       <path id="DejaVuSans-76" d="M 191 3500 
L 800 3500 
L 1894 563 
L 2988 3500 
L 3597 3500 
L 2284 0 
L 1503 0 
L 191 3500 
z
" transform="scale(0.015625)"/>
       <path id="DejaVuSans-67" d="M 2906 1791 
Q 2906 2416 2648 2759 
Q 2391 3103 1925 3103 
Q 1463 3103 1205 2759 
Q 947 2416 947 1791 
Q 947 1169 1205 825 
Q 1463 481 1925 481 
Q 2391 481 2648 825 
Q 2906 1169 2906 1791 
z
M 3481 434 
Q 3481 -459 3084 -895 
Q 2688 -1331 1869 -1331 
Q 1566 -1331 1297 -1286 
Q 1028 -1241 775 -1147 
L 775 -588 
Q 1028 -725 1275 -790 
Q 1522 -856 1778 -856 
Q 2344 -856 2625 -561 
Q 2906 -266 2906 331 
L 2906 616 
Q 2728 306 2450 153 
Q 2172 0 1784 0 
Q 1141 0 747 490 
Q 353 981 353 1791 
Q 353 2603 747 3093 
Q 1141 3584 1784 3584 
Q 2172 3584 2450 3431 
Q 2728 3278 2906 2969 
L 2906 3500 
L 3481 3500 
L 3481 434 
z
" transform="scale(0.015625)"/>
       <path id="DejaVuSans-68" d="M 3513 2113 
L 3513 0 
L 2938 0 
L 2938 2094 
Q 2938 2591 2744 2837 
Q 2550 3084 2163 3084 
Q 1697 3084 1428 2787 
Q 1159 2491 1159 1978 
L 1159 0 
L 581 0 
L 581 4863 
L 1159 4863 
L 1159 2956 
Q 1366 3272 1645 3428 
Q 1925 3584 2291 3584 
Q 2894 3584 3203 3211 
Q 3513 2838 3513 2113 
z
" transform="scale(0.015625)"/>
       <path id="DejaVuSans-c5" d="M 2663 5081 
Q 2663 5278 2523 5417 
Q 2384 5556 2188 5556 
Q 1988 5556 1852 5420 
Q 1716 5284 1716 5081 
Q 1716 4884 1853 4746 
Q 1991 4609 2188 4609 
Q 2384 4609 2523 4746 
Q 2663 4884 2663 5081 
z
M 2188 4044 
L 1338 1722 
L 3041 1722 
L 2188 4044 
z
M 1716 4366 
Q 1525 4494 1428 4673 
Q 1331 4853 1331 5081 
Q 1331 5441 1579 5691 
Q 1828 5941 2188 5941 
Q 2544 5941 2795 5689 
Q 3047 5438 3047 5081 
Q 3047 4863 2948 4678 
Q 2850 4494 2663 4366 
L 4325 0 
L 3669 0 
L 3244 1197 
L 1141 1197 
L 716 0 
L 50 0 
L 1716 4366 
z
" transform="scale(0.015625)"/>
      </defs>
      <use xlink:href="#DejaVuSans-77"/>
      <use xlink:href="#DejaVuSans-61" transform="translate(81.787109 0)"/>
      <use xlink:href="#DejaVuSans-76" transform="translate(143.066406 0)"/>
      <use xlink:href="#DejaVuSans-65" transform="translate(202.246094 0)"/>
      <use xlink:href="#DejaVuSans-6c" transform="translate(263.769531 0)"/>
      <use xlink:href="#DejaVuSans-65" transform="translate(291.552734 0)"/>
      <use xlink:href="#DejaVuSans-6e" transform="translate(353.076172 0)"/>
      <use xlink:href="#DejaVuSans-67" transform="translate(416.455078 0)"/>
      <use xlink:href="#DejaVuSans-74" transform="translate(479.931641 0)"/>
      <use xlink:href="#DejaVuSans-68" transform="translate(519.140625 0)"/>
      <use xlink:href="#DejaVuSans-20" transform="translate(582.519531 0)"/>
      <use xlink:href="#DejaVuSans-5b" transform="translate(614.306641 0)"/>
      <use xlink:href="#DejaVuSans-c5" transform="translate(653.320312 0)"/>
      <use xlink:href="#DejaVuSans-5d" transform="translate(721.728516 0)"/>
     </g>
    </g>
   </g>
   <g id="matplotlib.axis_4">
    <g id="ytick_7">
     <g id="line2d_22">
      <g>
       <use xlink:href="#maa6182b103" x="503.927885" y="245.903911" style="stroke: #000000; stroke-width: 0.8"/>
      </g>
     </g>
     <g id="text_24">
      <!-- 0 -->
      <g transform="translate(490.565385 249.703129) scale(0.1 -0.1)">
       <use xlink:href="#DejaVuSans-30"/>
      </g>
     </g>
    </g>
    <g id="ytick_8">
     <g id="line2d_23">
      <g>
       <use xlink:href="#maa6182b103" x="503.927885" y="192.512144" style="stroke: #000000; stroke-width: 0.8"/>
      </g>
     </g>
     <g id="text_25">
      <!-- 500 -->
      <g transform="translate(477.840385 196.311363) scale(0.1 -0.1)">
       <use xlink:href="#DejaVuSans-35"/>
       <use xlink:href="#DejaVuSans-30" transform="translate(63.623047 0)"/>
       <use xlink:href="#DejaVuSans-30" transform="translate(127.246094 0)"/>
      </g>
     </g>
    </g>
    <g id="ytick_9">
     <g id="line2d_24">
      <g>
       <use xlink:href="#maa6182b103" x="503.927885" y="139.120377" style="stroke: #000000; stroke-width: 0.8"/>
      </g>
     </g>
     <g id="text_26">
      <!-- 1000 -->
      <g transform="translate(471.477885 142.919596) scale(0.1 -0.1)">
       <use xlink:href="#DejaVuSans-31"/>
       <use xlink:href="#DejaVuSans-30" transform="translate(63.623047 0)"/>
       <use xlink:href="#DejaVuSans-30" transform="translate(127.246094 0)"/>
       <use xlink:href="#DejaVuSans-30" transform="translate(190.869141 0)"/>
      </g>
     </g>
    </g>
    <g id="ytick_10">
     <g id="line2d_25">
      <g>
       <use xlink:href="#maa6182b103" x="503.927885" y="85.72861" style="stroke: #000000; stroke-width: 0.8"/>
      </g>
     </g>
     <g id="text_27">
      <!-- 1500 -->
      <g transform="translate(471.477885 89.527829) scale(0.1 -0.1)">
       <use xlink:href="#DejaVuSans-31"/>
       <use xlink:href="#DejaVuSans-35" transform="translate(63.623047 0)"/>
       <use xlink:href="#DejaVuSans-30" transform="translate(127.246094 0)"/>
       <use xlink:href="#DejaVuSans-30" transform="translate(190.869141 0)"/>
      </g>
     </g>
    </g>
    <g id="ytick_11">
     <g id="line2d_26">
      <g>
       <use xlink:href="#maa6182b103" x="503.927885" y="32.336844" style="stroke: #000000; stroke-width: 0.8"/>
      </g>
     </g>
     <g id="text_28">
      <!-- 2000 -->
      <g transform="translate(471.477885 36.136063) scale(0.1 -0.1)">
       <use xlink:href="#DejaVuSans-32"/>
       <use xlink:href="#DejaVuSans-30" transform="translate(63.623047 0)"/>
       <use xlink:href="#DejaVuSans-30" transform="translate(127.246094 0)"/>
       <use xlink:href="#DejaVuSans-30" transform="translate(190.869141 0)"/>
      </g>
     </g>
    </g>
    <g id="text_29">
     <!-- pulse:0 [counts] -->
     <g transform="translate(465.398197 172.659916) rotate(-90) scale(0.1 -0.1)">
      <use xlink:href="#DejaVuSans-70"/>
      <use xlink:href="#DejaVuSans-75" transform="translate(63.476562 0)"/>
      <use xlink:href="#DejaVuSans-6c" transform="translate(126.855469 0)"/>
      <use xlink:href="#DejaVuSans-73" transform="translate(154.638672 0)"/>
      <use xlink:href="#DejaVuSans-65" transform="translate(206.738281 0)"/>
      <use xlink:href="#DejaVuSans-3a" transform="translate(268.261719 0)"/>
      <use xlink:href="#DejaVuSans-30" transform="translate(301.953125 0)"/>
      <use xlink:href="#DejaVuSans-20" transform="translate(365.576172 0)"/>
      <use xlink:href="#DejaVuSans-5b" transform="translate(397.363281 0)"/>
      <use xlink:href="#DejaVuSans-63" transform="translate(436.376953 0)"/>
      <use xlink:href="#DejaVuSans-6f" transform="translate(491.357422 0)"/>
      <use xlink:href="#DejaVuSans-75" transform="translate(552.539062 0)"/>
      <use xlink:href="#DejaVuSans-6e" transform="translate(615.917969 0)"/>
      <use xlink:href="#DejaVuSans-74" transform="translate(679.296875 0)"/>
      <use xlink:href="#DejaVuSans-73" transform="translate(718.505859 0)"/>
      <use xlink:href="#DejaVuSans-5d" transform="translate(770.605469 0)"/>
     </g>
    </g>
   </g>
   <g id="line2d_27">
    <path d="M 520.349323 245.797127 
L 522.538848 245.797127 
L 522.538848 245.58356 
L 524.728373 245.690344 
L 524.728373 245.369993 
L 525.823136 245.369993 
L 525.823136 244.622508 
L 526.917898 244.622508 
L 526.917898 243.234322 
L 528.012661 243.234322 
L 528.012661 242.380054 
L 529.107423 242.380054 
L 529.107423 241.739353 
L 530.202186 241.739353 
L 530.202186 240.030816 
L 531.296948 240.030816 
L 531.296948 234.371289 
L 532.391711 234.371289 
L 532.391711 231.167783 
L 533.486473 231.167783 
L 533.486473 221.130131 
L 534.581236 221.130131 
L 534.581236 210.665345 
L 535.675998 210.665345 
L 535.675998 200.734476 
L 536.770761 200.734476 
L 536.770761 174.57251 
L 537.865523 174.57251 
L 537.865523 136.557572 
L 538.960286 136.557572 
L 538.960286 134.742252 
L 540.055048 134.742252 
L 540.055048 119.25864 
L 541.149811 119.25864 
L 541.149811 111.249875 
L 542.244574 111.249875 
L 542.244574 100.251171 
L 543.339336 100.251171 
L 543.339336 93.737375 
L 544.434099 93.737375 
L 544.434099 85.72861 
L 545.528861 85.72861 
L 545.528861 85.40826 
L 546.623624 85.40826 
L 546.623624 65.866873 
L 547.718386 65.866873 
L 547.718386 64.799038 
L 548.813149 64.799038 
L 548.813149 49.635776 
L 549.907911 49.635776 
L 549.907911 41.520228 
L 551.002674 41.520228 
L 551.002674 34.686081 
L 552.097436 34.686081 
L 552.097436 43.442331 
L 553.192199 43.442331 
L 553.192199 37.035319 
L 554.286961 37.035319 
L 554.286961 22.833109 
L 555.381724 22.833109 
L 555.381724 37.35567 
L 556.476486 37.35567 
L 556.476486 23.687378 
L 557.571249 23.687378 
L 557.571249 18.561768 
L 558.666012 18.561768 
L 558.666012 31.802926 
L 559.760774 31.802926 
L 559.760774 34.258947 
L 560.855537 34.258947 
L 560.855537 48.888291 
L 561.950299 48.888291 
L 561.950299 68.109327 
L 563.045062 68.109327 
L 563.045062 76.011309 
L 564.139824 76.011309 
L 564.139824 94.057726 
L 565.234587 94.057726 
L 565.234587 115.734783 
L 566.329349 115.734783 
L 566.329349 120.006125 
L 567.424112 120.006125 
L 567.424112 142.2171 
L 568.518874 142.2171 
L 568.518874 155.885392 
L 569.613637 155.885392 
L 569.613637 162.826322 
L 570.708399 162.826322 
L 570.708399 180.765955 
L 571.803162 180.765955 
L 571.803162 192.939278 
L 572.897924 192.939278 
L 572.897924 202.97693 
L 573.992687 202.97693 
L 573.992687 207.995756 
L 575.087449 207.995756 
L 575.087449 223.906503 
L 576.182212 223.906503 
L 576.182212 231.808484 
L 577.276975 231.808484 
L 577.276975 241.312219 
L 578.371737 241.312219 
L 578.371737 245.369993 
L 579.4665 245.369993 
L 579.4665 244.729292 
L 580.561262 244.729292 
L 580.561262 242.380054 
L 581.656025 242.380054 
L 581.656025 239.710466 
L 582.750787 239.710466 
L 582.750787 237.468011 
L 583.84555 237.468011 
L 583.84555 228.391411 
L 584.940312 228.391411 
L 584.940312 215.577387 
L 586.035075 215.577387 
L 586.035075 210.985695 
L 587.129837 210.985695 
L 587.129837 193.686763 
L 588.2246 193.686763 
L 588.2246 186.63905 
L 589.319362 186.63905 
L 589.319362 178.630285 
L 590.414125 178.630285 
L 590.414125 161.117785 
L 591.508887 161.117785 
L 591.508887 161.438136 
L 592.60365 161.438136 
L 592.60365 156.312526 
L 593.698412 156.312526 
L 593.698412 145.84774 
L 594.793175 145.84774 
L 594.793175 133.887984 
L 595.887938 133.887984 
L 595.887938 137.09149 
L 596.9827 137.09149 
L 596.9827 128.33524 
L 598.077463 128.33524 
L 598.077463 127.374188 
L 599.172225 127.374188 
L 599.172225 115.841567 
L 600.266988 115.841567 
L 600.266988 119.365423 
L 601.36175 119.365423 
L 601.36175 108.473503 
L 602.456513 108.473503 
L 602.456513 97.474799 
L 603.551275 97.474799 
L 603.551275 103.027543 
L 604.646038 103.027543 
L 604.646038 102.280058 
L 605.7408 102.280058 
L 605.7408 106.444616 
L 606.835563 106.444616 
L 606.835563 99.503686 
L 607.930325 99.503686 
L 607.930325 98.329067 
L 609.025088 98.329067 
L 609.025088 103.454677 
L 610.11985 103.454677 
L 610.11985 109.968473 
L 611.214613 109.968473 
L 611.214613 116.909402 
L 612.309375 116.909402 
L 612.309375 121.501094 
L 613.404138 121.501094 
L 613.404138 128.762374 
L 614.498901 128.762374 
L 614.498901 131.64553 
L 615.593663 131.64553 
L 615.593663 138.159325 
L 616.688426 138.159325 
L 616.688426 141.149264 
L 617.783188 141.149264 
L 617.783188 149.691947 
L 618.877951 149.691947 
L 618.877951 151.186916 
L 619.972713 151.186916 
L 619.972713 157.273578 
L 621.067476 157.273578 
L 621.067476 162.18562 
L 622.162238 162.18562 
L 622.162238 165.282343 
L 623.257001 165.282343 
L 623.257001 168.485849 
L 624.351763 168.485849 
L 624.351763 174.679294 
L 625.446526 174.679294 
L 625.446526 182.581275 
L 626.541288 182.581275 
L 626.541288 183.008409 
L 627.636051 183.008409 
L 627.636051 188.667937 
L 628.730813 188.667937 
L 628.730813 189.095071 
L 629.825576 189.095071 
L 629.825576 196.036 
L 630.920339 196.036 
L 630.920339 192.512144 
L 632.015101 192.512144 
L 632.015101 197.424186 
L 633.109864 197.424186 
L 633.109864 204.4719 
L 634.204626 204.4719 
L 634.204626 208.743241 
L 635.299389 208.743241 
L 635.299389 210.451777 
L 636.394151 210.451777 
L 636.394151 212.160314 
L 637.488914 212.160314 
L 637.488914 216.004521 
L 638.583676 216.004521 
L 638.583676 218.353759 
L 639.678439 218.353759 
L 639.678439 221.450481 
L 640.773201 221.450481 
L 640.773201 222.838667 
L 641.867964 222.838667 
L 641.867964 226.576091 
L 642.962726 226.576091 
L 642.962726 232.662752 
L 644.057489 232.662752 
L 644.057489 235.652691 
L 645.152251 235.652691 
L 645.152251 240.45795 
L 646.247014 240.45795 
L 646.247014 242.593621 
L 647.341776 242.593621 
L 647.341776 244.515725 
L 648.436539 244.515725 
L 648.436539 245.58356 
L 649.531302 245.58356 
L 649.531302 244.942859 
L 650.626064 244.942859 
L 650.626064 245.156426 
L 651.720827 245.156426 
L 651.720827 244.195374 
L 652.815589 244.195374 
L 652.815589 243.127539 
L 653.910352 243.127539 
L 653.910352 243.76824 
L 655.005114 243.76824 
L 655.005114 241.312219 
L 656.099877 241.312219 
L 656.099877 238.962981 
L 657.194639 238.962981 
L 657.194639 234.264505 
L 658.289402 234.264505 
L 658.289402 232.662752 
L 659.384164 232.662752 
L 659.384164 230.954216 
L 660.478927 230.954216 
L 660.478927 227.430359 
L 661.573689 227.430359 
L 661.573689 228.284628 
L 662.668452 228.284628 
L 662.668452 227.003225 
L 663.763214 227.003225 
L 663.763214 223.372585 
L 664.857977 223.372585 
L 664.857977 224.653987 
L 665.952739 224.653987 
L 665.952739 222.411533 
L 667.047502 222.411533 
L 667.047502 221.343698 
L 668.142265 221.343698 
L 668.142265 218.353759 
L 669.237027 218.353759 
L 669.237027 218.140192 
L 670.33179 218.140192 
L 670.33179 220.80978 
L 671.426552 220.80978 
L 671.426552 214.295985 
L 673.616077 214.402768 
L 673.616077 216.645222 
L 674.71084 216.645222 
L 674.71084 215.897738 
L 675.805602 215.897738 
L 675.805602 213.655283 
L 676.900365 213.655283 
L 676.900365 214.082418 
L 677.995127 214.082418 
L 677.995127 212.587448 
L 679.08989 212.587448 
L 679.08989 213.975634 
L 680.184652 213.975634 
L 680.184652 210.131427 
L 682.374177 210.23821 
L 682.374177 210.772128 
L 683.46894 210.772128 
L 683.46894 206.821137 
L 684.563702 206.821137 
L 684.563702 210.665345 
L 685.658465 210.665345 
L 685.658465 206.60757 
L 686.753228 206.60757 
L 686.753228 203.831198 
L 687.84799 203.831198 
L 687.84799 207.568622 
L 688.942753 207.568622 
L 688.942753 206.500787 
L 690.037515 206.500787 
L 690.037515 207.248271 
L 691.132278 207.248271 
L 691.132278 205.219384 
L 692.22704 205.219384 
L 692.22704 200.520909 
L 694.416565 200.520909 
L 694.416565 199.986991 
L 695.511328 199.986991 
L 695.511328 200.414125 
L 696.60609 200.414125 
L 696.60609 202.443012 
L 697.700853 202.443012 
L 697.700853 203.083714 
L 698.795615 203.083714 
L 698.795615 201.802311 
L 699.890378 201.802311 
L 699.890378 205.219384 
L 700.98514 205.219384 
L 700.98514 201.375177 
L 702.079903 201.375177 
L 702.079903 209.490726 
L 703.174666 209.490726 
L 703.174666 199.34629 
L 704.269428 199.34629 
L 704.269428 205.432951 
L 705.364191 205.432951 
L 705.364191 208.636457 
L 706.458953 208.636457 
L 706.458953 209.383942 
L 707.553716 209.383942 
L 707.553716 212.907799 
L 708.648478 212.907799 
L 708.648478 209.811076 
L 709.743241 209.811076 
L 709.743241 214.402768 
L 710.838003 214.402768 
L 710.838003 216.965573 
L 711.932766 216.965573 
L 711.932766 218.140192 
L 713.027528 218.140192 
L 713.027528 221.877616 
L 714.122291 221.877616 
L 714.122291 222.731884 
L 715.217053 222.731884 
L 715.217053 223.052234 
L 716.311816 223.052234 
L 716.311816 224.974338 
L 717.406578 224.974338 
L 717.406578 230.099948 
L 718.501341 230.099948 
L 718.501341 228.284628 
L 719.596103 228.284628 
L 719.596103 233.089887 
L 720.690866 233.089887 
L 720.690866 233.410237 
L 721.785629 233.410237 
L 721.785629 237.040877 
L 722.880391 237.040877 
L 722.880391 237.468011 
L 723.975154 237.468011 
L 723.975154 240.778301 
L 725.069916 240.778301 
L 725.069916 240.244383 
L 726.164679 240.244383 
L 726.164679 242.27327 
L 727.259441 242.27327 
L 727.259441 241.95292 
L 728.354204 241.95292 
L 728.354204 242.700405 
L 729.448966 242.700405 
L 729.448966 241.312219 
L 730.543729 241.312219 
L 730.543729 241.632569 
L 731.638491 241.632569 
L 731.638491 238.32228 
L 732.733254 238.32228 
L 732.733254 236.934094 
L 733.828016 236.934094 
L 733.828016 235.545908 
L 734.922779 235.545908 
L 734.922779 231.594917 
L 736.017541 231.594917 
L 736.017541 233.410237 
L 737.112304 233.410237 
L 737.112304 229.138896 
L 738.207066 229.138896 
L 738.207066 232.983103 
L 739.301829 232.983103 
L 739.301829 229.779597 
L 740.396592 229.779597 
L 740.396592 223.906503 
L 741.491354 223.906503 
L 741.491354 227.216792 
L 742.586117 227.216792 
L 742.586117 224.547204 
L 744.775642 224.653987 
L 744.775642 221.236914 
L 745.870404 221.236914 
L 745.870404 223.692936 
L 746.965167 223.692936 
L 746.965167 220.062295 
L 748.059929 220.062295 
L 748.059929 221.023347 
L 749.154692 221.023347 
L 749.154692 217.392707 
L 750.249454 217.392707 
L 750.249454 219.528378 
L 751.344217 219.528378 
L 751.344217 217.499491 
L 752.438979 217.499491 
L 752.438979 220.916564 
L 753.533742 220.916564 
L 753.533742 217.926625 
L 754.628504 217.926625 
L 754.628504 219.101244 
L 755.723267 219.101244 
L 755.723267 217.606274 
L 756.818029 217.606274 
L 756.818029 220.275863 
L 757.912792 220.275863 
L 757.912792 218.567326 
L 759.007555 218.567326 
L 759.007555 222.518317 
L 760.102317 222.518317 
L 760.102317 220.062295 
L 761.19708 220.062295 
L 761.19708 220.596213 
L 762.291842 220.596213 
L 762.291842 221.664048 
L 763.386605 221.664048 
L 763.386605 222.945451 
L 764.481367 222.945451 
L 764.481367 219.955512 
L 765.57613 219.955512 
L 765.57613 222.30475 
L 766.670892 222.30475 
L 766.670892 221.984399 
L 767.765655 221.984399 
L 767.765655 218.567326 
L 768.860417 218.567326 
L 768.860417 222.30475 
L 769.95518 222.30475 
L 769.95518 224.226853 
L 771.049942 224.226853 
L 771.049942 221.984399 
L 772.144705 221.984399 
L 772.144705 224.12007 
L 773.239467 224.12007 
L 773.239467 227.430359 
L 774.33423 227.430359 
L 774.33423 223.799719 
L 775.428993 223.799719 
L 775.428993 225.187905 
L 776.523755 225.187905 
L 776.523755 224.226853 
L 777.618518 224.226853 
L 777.618518 224.760771 
L 778.71328 224.760771 
L 778.71328 226.042173 
L 779.808043 226.042173 
L 779.808043 228.498195 
L 780.902805 228.498195 
L 780.902805 228.177844 
L 781.997568 228.177844 
L 781.997568 226.042173 
L 783.09233 226.042173 
L 783.09233 224.653987 
L 784.187093 224.653987 
L 784.187093 225.401472 
L 785.281855 225.401472 
L 785.281855 228.07106 
L 786.376618 228.07106 
L 786.376618 227.003225 
L 788.566143 227.110009 
L 788.566143 229.352463 
L 789.660905 229.352463 
L 789.660905 224.547204 
L 790.755668 224.547204 
L 790.755668 227.430359 
L 791.85043 227.430359 
L 791.85043 229.779597 
L 792.945193 229.779597 
L 792.945193 229.993164 
L 794.039956 229.993164 
L 794.039956 228.818545 
L 796.229481 228.925329 
L 796.229481 228.07106 
L 797.324243 228.07106 
L 797.324243 230.420298 
L 799.513768 230.313515 
L 799.513768 230.954216 
L 800.608531 230.954216 
L 800.608531 228.818545 
L 801.703293 228.818545 
L 801.703293 229.672814 
L 803.892818 229.672814 
L 803.892818 228.284628 
L 804.987581 228.284628 
L 804.987581 230.954216 
L 806.082343 230.954216 
L 806.082343 228.177844 
L 807.177106 228.177844 
L 807.177106 230.420298 
L 808.271868 230.420298 
L 808.271868 232.128835 
L 809.366631 232.128835 
L 809.366631 232.662752 
L 810.461393 232.662752 
L 810.461393 228.711762 
L 811.556156 228.711762 
L 811.556156 231.38135 
L 812.650919 231.38135 
L 812.650919 229.779597 
L 813.745681 229.779597 
L 813.745681 231.274567 
L 814.840444 231.274567 
L 814.840444 232.449185 
L 815.935206 232.449185 
L 815.935206 231.808484 
L 817.029969 231.808484 
L 817.029969 232.235618 
L 818.124731 232.235618 
L 818.124731 231.701701 
L 819.219494 231.701701 
L 819.219494 231.488134 
L 820.314256 231.488134 
L 820.314256 232.449185 
L 823.598544 232.449185 
L 823.598544 232.662752 
L 824.693306 232.662752 
L 824.693306 235.332341 
L 825.788069 235.332341 
L 825.788069 233.623804 
L 826.882831 233.623804 
L 826.882831 235.545908 
L 827.977594 235.545908 
L 827.977594 234.69164 
L 829.072356 234.69164 
L 829.072356 237.681579 
L 830.167119 237.681579 
L 830.167119 236.50696 
L 831.261882 236.50696 
L 831.261882 237.254444 
L 832.356644 237.254444 
L 832.356644 240.030816 
L 833.451407 240.030816 
L 833.451407 240.351167 
L 834.546169 240.351167 
L 834.546169 240.1376 
L 835.640932 240.1376 
L 835.640932 239.283332 
L 836.735694 239.283332 
L 836.735694 241.739353 
L 837.830457 241.739353 
L 837.830457 240.991868 
L 840.019982 240.991868 
L 840.019982 242.913972 
L 841.114744 242.913972 
L 841.114744 242.166487 
L 842.209507 242.166487 
L 842.209507 244.302158 
L 843.304269 244.302158 
L 843.304269 244.088591 
L 845.493794 244.195374 
L 845.493794 245.049642 
L 846.588557 245.049642 
L 846.588557 245.58356 
L 848.778082 245.690344 
L 848.778082 245.690344 
" clip-path="url(#pdfdeaa80e9)" style="fill: none; stroke: #1f77b4; stroke-width: 1.5; stroke-linecap: square"/>
   </g>
   <g id="patch_8">
    <path d="M 503.927885 257.158895 
L 503.927885 7.2 
" style="fill: none; stroke: #000000; stroke-width: 0.8; stroke-linejoin: miter; stroke-linecap: square"/>
   </g>
   <g id="patch_9">
    <path d="M 865.19952 257.158895 
L 865.19952 7.2 
" style="fill: none; stroke: #000000; stroke-width: 0.8; stroke-linejoin: miter; stroke-linecap: square"/>
   </g>
   <g id="patch_10">
    <path d="M 503.927885 257.158895 
L 865.19952 257.158895 
" style="fill: none; stroke: #000000; stroke-width: 0.8; stroke-linejoin: miter; stroke-linecap: square"/>
   </g>
   <g id="patch_11">
    <path d="M 503.927885 7.2 
L 865.19952 7.2 
" style="fill: none; stroke: #000000; stroke-width: 0.8; stroke-linejoin: miter; stroke-linecap: square"/>
   </g>
  </g>
 </g>
 <defs>
  <clipPath id="pda27fc40e0">
   <rect x="53.328125" y="7.2" width="361.271635" height="249.958895"/>
  </clipPath>
  <clipPath id="pdfdeaa80e9">
   <rect x="503.927885" y="7.2" width="361.271635" height="249.958895"/>
  </clipPath>
 </defs>
</svg>
