<?xml version="1.0" encoding="utf-8" standalone="no"?>
<!DOCTYPE svg PUBLIC "-//W3C//DTD SVG 1.1//EN"
  "http://www.w3.org/Graphics/SVG/1.1/DTD/svg11.dtd">
<svg xmlns:xlink="http://www.w3.org/1999/xlink" width="395.328125pt" height="266.51625pt" viewBox="0 0 395.328125 266.51625" xmlns="http://www.w3.org/2000/svg" version="1.1">
 <metadata>
  <rdf:RDF xmlns:dc="http://purl.org/dc/elements/1.1/" xmlns:cc="http://creativecommons.org/ns#" xmlns:rdf="http://www.w3.org/1999/02/22-rdf-syntax-ns#">
   <cc:Work>
    <dc:type rdf:resource="http://purl.org/dc/dcmitype/StillImage"/>
    <dc:date>2026-03-12T12:42:09.878297</dc:date>
    <dc:format>image/svg+xml</dc:format>
    <dc:creator>
     <cc:Agent>
      <dc:title>Matplotlib v3.10.7, https://matplotlib.org/</dc:title>
     </cc:Agent>
    </dc:creator>
   </cc:Work>
  </rdf:RDF>
 </metadata>
 <defs>
  <style type="text/css">*{stroke-linejoin: round; stroke-linecap: butt}</style>
 </defs>
 <g id="figure_1">
  <g id="patch_1">
   <path d="M 0 266.51625 
L 395.328125 266.51625 
L 395.328125 0 
L 0 0 
z
" style="fill: #ffffff"/>
  </g>
  <g id="axes_1">
   <g id="patch_2">
    <path d="M 53.328125 228.96 
L 388.128125 228.96 
L 388.128125 7.2 
L 53.328125 7.2 
z
" style="fill: #ffffff"/>
   </g>
   <g id="matplotlib.axis_1">
    <g id="xtick_1">
     <g id="line2d_1">
      <defs>
       <path id="m2d8f9ad294" d="M 0 0 
L 0 3.5 
" style="stroke: #000000; stroke-width: 0.8"/>
      </defs>
      <g>
       <use xlink:href="#m2d8f9ad294" x="79.664035" y="228.96" style="stroke: #000000; stroke-width: 0.8"/>
      </g>
     </g>
     <g id="text_1">
      <!-- 20000 -->
      <g transform="translate(63.757785 243.558437) scale(0.1 -0.1)">
       <defs>
        <path id="DejaVuSans-32" d="M 1228 531 
L 3431 531 
L 3431 0 
L 469 0 
L 469 531 
Q 828 903 1448 1529 
Q 2069 2156 2228 2338 
Q 2531 2678 2651 2914 
Q 2772 3150 2772 3378 
Q 2772 3750 2511 3984 
Q 2250 4219 1831 4219 
Q 1534 4219 1204 4116 
Q 875 4013 500 3803 
L 500 4441 
Q 881 4594 1212 4672 
Q 1544 4750 1819 4750 
Q 2544 4750 2975 4387 
Q 3406 4025 3406 3419 
Q 3406 3131 3298 2873 
Q 3191 2616 2906 2266 
Q 2828 2175 2409 1742 
Q 1991 1309 1228 531 
z
" transform="scale(0.015625)"/>
        <path id="DejaVuSans-30" d="M 2034 4250 
Q 1547 4250 1301 3770 
Q 1056 3291 1056 2328 
Q 1056 1369 1301 889 
Q 1547 409 2034 409 
Q 2525 409 2770 889 
Q 3016 1369 3016 2328 
Q 3016 3291 2770 3770 
Q 2525 4250 2034 4250 
z
M 2034 4750 
Q 2819 4750 3233 4129 
Q 3647 3509 3647 2328 
Q 3647 1150 3233 529 
Q 2819 -91 2034 -91 
Q 1250 -91 836 529 
Q 422 1150 422 2328 
Q 422 3509 836 4129 
Q 1250 4750 2034 4750 
z
" transform="scale(0.015625)"/>
       </defs>
       <use xlink:href="#DejaVuSans-32"/>
       <use xlink:href="#DejaVuSans-30" transform="translate(63.623047 0)"/>
       <use xlink:href="#DejaVuSans-30" transform="translate(127.246094 0)"/>
       <use xlink:href="#DejaVuSans-30" transform="translate(190.869141 0)"/>
       <use xlink:href="#DejaVuSans-30" transform="translate(254.492188 0)"/>
      </g>
     </g>
    </g>
    <g id="xtick_2">
     <g id="line2d_2">
      <g>
       <use xlink:href="#m2d8f9ad294" x="126.411748" y="228.96" style="stroke: #000000; stroke-width: 0.8"/>
      </g>
     </g>
     <g id="text_2">
      <!-- 30000 -->
      <g transform="translate(110.505498 243.558437) scale(0.1 -0.1)">
       <defs>
        <path id="DejaVuSans-33" d="M 2597 2516 
Q 3050 2419 3304 2112 
Q 3559 1806 3559 1356 
Q 3559 666 3084 287 
Q 2609 -91 1734 -91 
Q 1441 -91 1130 -33 
Q 819 25 488 141 
L 488 750 
Q 750 597 1062 519 
Q 1375 441 1716 441 
Q 2309 441 2620 675 
Q 2931 909 2931 1356 
Q 2931 1769 2642 2001 
Q 2353 2234 1838 2234 
L 1294 2234 
L 1294 2753 
L 1863 2753 
Q 2328 2753 2575 2939 
Q 2822 3125 2822 3475 
Q 2822 3834 2567 4026 
Q 2313 4219 1838 4219 
Q 1578 4219 1281 4162 
Q 984 4106 628 3988 
L 628 4550 
Q 988 4650 1302 4700 
Q 1616 4750 1894 4750 
Q 2613 4750 3031 4423 
Q 3450 4097 3450 3541 
Q 3450 3153 3228 2886 
Q 3006 2619 2597 2516 
z
" transform="scale(0.015625)"/>
       </defs>
       <use xlink:href="#DejaVuSans-33"/>
       <use xlink:href="#DejaVuSans-30" transform="translate(63.623047 0)"/>
       <use xlink:href="#DejaVuSans-30" transform="translate(127.246094 0)"/>
       <use xlink:href="#DejaVuSans-30" transform="translate(190.869141 0)"/>
       <use xlink:href="#DejaVuSans-30" transform="translate(254.492188 0)"/>
      </g>
     </g>
    </g>
    <g id="xtick_3">
     <g id="line2d_3">
      <g>
       <use xlink:href="#m2d8f9ad294" x="173.159461" y="228.96" style="stroke: #000000; stroke-width: 0.8"/>
      </g>
     </g>
     <g id="text_3">
      <!-- 40000 -->
      <g transform="translate(157.253211 243.558437) scale(0.1 -0.1)">
       <defs>
        <path id="DejaVuSans-34" d="M 2419 4116 
L 825 1625 
L 2419 1625 
L 2419 4116 
z
M 2253 4666 
L 3047 4666 
L 3047 1625 
L 3713 1625 
L 3713 1100 
L 3047 1100 
L 3047 0 
L 2419 0 
L 2419 1100 
L 313 1100 
L 313 1709 
L 2253 4666 
z
" transform="scale(0.015625)"/>
       </defs>
       <use xlink:href="#DejaVuSans-34"/>
       <use xlink:href="#DejaVuSans-30" transform="translate(63.623047 0)"/>
       <use xlink:href="#DejaVuSans-30" transform="translate(127.246094 0)"/>
       <use xlink:href="#DejaVuSans-30" transform="translate(190.869141 0)"/>
       <use xlink:href="#DejaVuSans-30" transform="translate(254.492188 0)"/>
      </g>
     </g>
    </g>
    <g id="xtick_4">
     <g id="line2d_4">
      <g>
       <use xlink:href="#m2d8f9ad294" x="219.907174" y="228.96" style="stroke: #000000; stroke-width: 0.8"/>
      </g>
     </g>
     <g id="text_4">
      <!-- 50000 -->
      <g transform="translate(204.000924 243.558437) scale(0.1 -0.1)">
       <defs>
        <path id="DejaVuSans-35" d="M 691 4666 
L 3169 4666 
L 3169 4134 
L 1269 4134 
L 1269 2991 
Q 1406 3038 1543 3061 
Q 1681 3084 1819 3084 
Q 2600 3084 3056 2656 
Q 3513 2228 3513 1497 
Q 3513 744 3044 326 
Q 2575 -91 1722 -91 
Q 1428 -91 1123 -41 
Q 819 9 494 109 
L 494 744 
Q 775 591 1075 516 
Q 1375 441 1709 441 
Q 2250 441 2565 725 
Q 2881 1009 2881 1497 
Q 2881 1984 2565 2268 
Q 2250 2553 1709 2553 
Q 1456 2553 1204 2497 
Q 953 2441 691 2322 
L 691 4666 
z
" transform="scale(0.015625)"/>
       </defs>
       <use xlink:href="#DejaVuSans-35"/>
       <use xlink:href="#DejaVuSans-30" transform="translate(63.623047 0)"/>
       <use xlink:href="#DejaVuSans-30" transform="translate(127.246094 0)"/>
       <use xlink:href="#DejaVuSans-30" transform="translate(190.869141 0)"/>
       <use xlink:href="#DejaVuSans-30" transform="translate(254.492188 0)"/>
      </g>
     </g>
    </g>
    <g id="xtick_5">
     <g id="line2d_5">
      <g>
       <use xlink:href="#m2d8f9ad294" x="266.654887" y="228.96" style="stroke: #000000; stroke-width: 0.8"/>
      </g>
     </g>
     <g id="text_5">
      <!-- 60000 -->
      <g transform="translate(250.748637 243.558437) scale(0.1 -0.1)">
       <defs>
        <path id="DejaVuSans-36" d="M 2113 2584 
Q 1688 2584 1439 2293 
Q 1191 2003 1191 1497 
Q 1191 994 1439 701 
Q 1688 409 2113 409 
Q 2538 409 2786 701 
Q 3034 994 3034 1497 
Q 3034 2003 2786 2293 
Q 2538 2584 2113 2584 
z
M 3366 4563 
L 3366 3988 
Q 3128 4100 2886 4159 
Q 2644 4219 2406 4219 
Q 1781 4219 1451 3797 
Q 1122 3375 1075 2522 
Q 1259 2794 1537 2939 
Q 1816 3084 2150 3084 
Q 2853 3084 3261 2657 
Q 3669 2231 3669 1497 
Q 3669 778 3244 343 
Q 2819 -91 2113 -91 
Q 1303 -91 875 529 
Q 447 1150 447 2328 
Q 447 3434 972 4092 
Q 1497 4750 2381 4750 
Q 2619 4750 2861 4703 
Q 3103 4656 3366 4563 
z
" transform="scale(0.015625)"/>
       </defs>
       <use xlink:href="#DejaVuSans-36"/>
       <use xlink:href="#DejaVuSans-30" transform="translate(63.623047 0)"/>
       <use xlink:href="#DejaVuSans-30" transform="translate(127.246094 0)"/>
       <use xlink:href="#DejaVuSans-30" transform="translate(190.869141 0)"/>
       <use xlink:href="#DejaVuSans-30" transform="translate(254.492188 0)"/>
      </g>
     </g>
    </g>
    <g id="xtick_6">
     <g id="line2d_6">
      <g>
       <use xlink:href="#m2d8f9ad294" x="313.4026" y="228.96" style="stroke: #000000; stroke-width: 0.8"/>
      </g>
     </g>
     <g id="text_6">
      <!-- 70000 -->
      <g transform="translate(297.49635 243.558437) scale(0.1 -0.1)">
       <defs>
        <path id="DejaVuSans-37" d="M 525 4666 
L 3525 4666 
L 3525 4397 
L 1831 0 
L 1172 0 
L 2766 4134 
L 525 4134 
L 525 4666 
z
" transform="scale(0.015625)"/>
       </defs>
       <use xlink:href="#DejaVuSans-37"/>
       <use xlink:href="#DejaVuSans-30" transform="translate(63.623047 0)"/>
       <use xlink:href="#DejaVuSans-30" transform="translate(127.246094 0)"/>
       <use xlink:href="#DejaVuSans-30" transform="translate(190.869141 0)"/>
       <use xlink:href="#DejaVuSans-30" transform="translate(254.492188 0)"/>
      </g>
     </g>
    </g>
    <g id="xtick_7">
     <g id="line2d_7">
      <g>
       <use xlink:href="#m2d8f9ad294" x="360.150312" y="228.96" style="stroke: #000000; stroke-width: 0.8"/>
      </g>
     </g>
     <g id="text_7">
      <!-- 80000 -->
      <g transform="translate(344.244062 243.558437) scale(0.1 -0.1)">
       <defs>
        <path id="DejaVuSans-38" d="M 2034 2216 
Q 1584 2216 1326 1975 
Q 1069 1734 1069 1313 
Q 1069 891 1326 650 
Q 1584 409 2034 409 
Q 2484 409 2743 651 
Q 3003 894 3003 1313 
Q 3003 1734 2745 1975 
Q 2488 2216 2034 2216 
z
M 1403 2484 
Q 997 2584 770 2862 
Q 544 3141 544 3541 
Q 544 4100 942 4425 
Q 1341 4750 2034 4750 
Q 2731 4750 3128 4425 
Q 3525 4100 3525 3541 
Q 3525 3141 3298 2862 
Q 3072 2584 2669 2484 
Q 3125 2378 3379 2068 
Q 3634 1759 3634 1313 
Q 3634 634 3220 271 
Q 2806 -91 2034 -91 
Q 1263 -91 848 271 
Q 434 634 434 1313 
Q 434 1759 690 2068 
Q 947 2378 1403 2484 
z
M 1172 3481 
Q 1172 3119 1398 2916 
Q 1625 2713 2034 2713 
Q 2441 2713 2670 2916 
Q 2900 3119 2900 3481 
Q 2900 3844 2670 4047 
Q 2441 4250 2034 4250 
Q 1625 4250 1398 4047 
Q 1172 3844 1172 3481 
z
" transform="scale(0.015625)"/>
       </defs>
       <use xlink:href="#DejaVuSans-38"/>
       <use xlink:href="#DejaVuSans-30" transform="translate(63.623047 0)"/>
       <use xlink:href="#DejaVuSans-30" transform="translate(127.246094 0)"/>
       <use xlink:href="#DejaVuSans-30" transform="translate(190.869141 0)"/>
       <use xlink:href="#DejaVuSans-30" transform="translate(254.492188 0)"/>
      </g>
     </g>
    </g>
    <g id="text_8">
     <!-- toa [µs] -->
     <g transform="translate(201.367969 257.236562) scale(0.1 -0.1)">
      <defs>
       <path id="DejaVuSans-74" d="M 1172 4494 
L 1172 3500 
L 2356 3500 
L 2356 3053 
L 1172 3053 
L 1172 1153 
Q 1172 725 1289 603 
Q 1406 481 1766 481 
L 2356 481 
L 2356 0 
L 1766 0 
Q 1100 0 847 248 
Q 594 497 594 1153 
L 594 3053 
L 172 3053 
L 172 3500 
L 594 3500 
L 594 4494 
L 1172 4494 
z
" transform="scale(0.015625)"/>
       <path id="DejaVuSans-6f" d="M 1959 3097 
Q 1497 3097 1228 2736 
Q 959 2375 959 1747 
Q 959 1119 1226 758 
Q 1494 397 1959 397 
Q 2419 397 2687 759 
Q 2956 1122 2956 1747 
Q 2956 2369 2687 2733 
Q 2419 3097 1959 3097 
z
M 1959 3584 
Q 2709 3584 3137 3096 
Q 3566 2609 3566 1747 
Q 3566 888 3137 398 
Q 2709 -91 1959 -91 
Q 1206 -91 779 398 
Q 353 888 353 1747 
Q 353 2609 779 3096 
Q 1206 3584 1959 3584 
z
" transform="scale(0.015625)"/>
       <path id="DejaVuSans-61" d="M 2194 1759 
Q 1497 1759 1228 1600 
Q 959 1441 959 1056 
Q 959 750 1161 570 
Q 1363 391 1709 391 
Q 2188 391 2477 730 
Q 2766 1069 2766 1631 
L 2766 1759 
L 2194 1759 
z
M 3341 1997 
L 3341 0 
L 2766 0 
L 2766 531 
Q 2569 213 2275 61 
Q 1981 -91 1556 -91 
Q 1019 -91 701 211 
Q 384 513 384 1019 
Q 384 1609 779 1909 
Q 1175 2209 1959 2209 
L 2766 2209 
L 2766 2266 
Q 2766 2663 2505 2880 
Q 2244 3097 1772 3097 
Q 1472 3097 1187 3025 
Q 903 2953 641 2809 
L 641 3341 
Q 956 3463 1253 3523 
Q 1550 3584 1831 3584 
Q 2591 3584 2966 3190 
Q 3341 2797 3341 1997 
z
" transform="scale(0.015625)"/>
       <path id="DejaVuSans-20" transform="scale(0.015625)"/>
       <path id="DejaVuSans-5b" d="M 550 4863 
L 1875 4863 
L 1875 4416 
L 1125 4416 
L 1125 -397 
L 1875 -397 
L 1875 -844 
L 550 -844 
L 550 4863 
z
" transform="scale(0.015625)"/>
       <path id="DejaVuSans-b5" d="M 544 -1331 
L 544 3500 
L 1119 3500 
L 1119 1325 
Q 1119 872 1334 640 
Q 1550 409 1972 409 
Q 2434 409 2667 671 
Q 2900 934 2900 1459 
L 2900 3500 
L 3475 3500 
L 3475 806 
Q 3475 619 3529 530 
Q 3584 441 3700 441 
Q 3728 441 3778 458 
Q 3828 475 3916 513 
L 3916 50 
Q 3788 -22 3673 -56 
Q 3559 -91 3450 -91 
Q 3234 -91 3106 31 
Q 2978 153 2931 403 
Q 2775 156 2548 32 
Q 2322 -91 2016 -91 
Q 1697 -91 1473 31 
Q 1250 153 1119 397 
L 1119 -1331 
L 544 -1331 
z
" transform="scale(0.015625)"/>
       <path id="DejaVuSans-73" d="M 2834 3397 
L 2834 2853 
Q 2591 2978 2328 3040 
Q 2066 3103 1784 3103 
Q 1356 3103 1142 2972 
Q 928 2841 928 2578 
Q 928 2378 1081 2264 
Q 1234 2150 1697 2047 
L 1894 2003 
Q 2506 1872 2764 1633 
Q 3022 1394 3022 966 
Q 3022 478 2636 193 
Q 2250 -91 1575 -91 
Q 1294 -91 989 -36 
Q 684 19 347 128 
L 347 722 
Q 666 556 975 473 
Q 1284 391 1588 391 
Q 1994 391 2212 530 
Q 2431 669 2431 922 
Q 2431 1156 2273 1281 
Q 2116 1406 1581 1522 
L 1381 1569 
Q 847 1681 609 1914 
Q 372 2147 372 2553 
Q 372 3047 722 3315 
Q 1072 3584 1716 3584 
Q 2034 3584 2315 3537 
Q 2597 3491 2834 3397 
z
" transform="scale(0.015625)"/>
       <path id="DejaVuSans-5d" d="M 1947 4863 
L 1947 -844 
L 622 -844 
L 622 -397 
L 1369 -397 
L 1369 4416 
L 622 4416 
L 622 4863 
L 1947 4863 
z
" transform="scale(0.015625)"/>
      </defs>
      <use xlink:href="#DejaVuSans-74"/>
      <use xlink:href="#DejaVuSans-6f" transform="translate(39.208984 0)"/>
      <use xlink:href="#DejaVuSans-61" transform="translate(100.390625 0)"/>
      <use xlink:href="#DejaVuSans-20" transform="translate(161.669922 0)"/>
      <use xlink:href="#DejaVuSans-5b" transform="translate(193.457031 0)"/>
      <use xlink:href="#DejaVuSans-b5" transform="translate(232.470703 0)"/>
      <use xlink:href="#DejaVuSans-73" transform="translate(296.09375 0)"/>
      <use xlink:href="#DejaVuSans-5d" transform="translate(348.193359 0)"/>
     </g>
    </g>
   </g>
   <g id="matplotlib.axis_2">
    <g id="ytick_1">
     <g id="line2d_8">
      <defs>
       <path id="m2a344568bc" d="M 0 0 
L -3.5 0 
" style="stroke: #000000; stroke-width: 0.8"/>
      </defs>
      <g>
       <use xlink:href="#m2a344568bc" x="53.328125" y="218.937715" style="stroke: #000000; stroke-width: 0.8"/>
      </g>
     </g>
     <g id="text_9">
      <!-- 0 -->
      <g transform="translate(39.965625 222.736934) scale(0.1 -0.1)">
       <use xlink:href="#DejaVuSans-30"/>
      </g>
     </g>
    </g>
    <g id="ytick_2">
     <g id="line2d_9">
      <g>
       <use xlink:href="#m2a344568bc" x="53.328125" y="190.08" style="stroke: #000000; stroke-width: 0.8"/>
      </g>
     </g>
     <g id="text_10">
      <!-- 500 -->
      <g transform="translate(27.240625 193.879219) scale(0.1 -0.1)">
       <use xlink:href="#DejaVuSans-35"/>
       <use xlink:href="#DejaVuSans-30" transform="translate(63.623047 0)"/>
       <use xlink:href="#DejaVuSans-30" transform="translate(127.246094 0)"/>
      </g>
     </g>
    </g>
    <g id="ytick_3">
     <g id="line2d_10">
      <g>
       <use xlink:href="#m2a344568bc" x="53.328125" y="161.222285" style="stroke: #000000; stroke-width: 0.8"/>
      </g>
     </g>
     <g id="text_11">
      <!-- 1000 -->
      <g transform="translate(20.878125 165.021503) scale(0.1 -0.1)">
       <defs>
        <path id="DejaVuSans-31" d="M 794 531 
L 1825 531 
L 1825 4091 
L 703 3866 
L 703 4441 
L 1819 4666 
L 2450 4666 
L 2450 531 
L 3481 531 
L 3481 0 
L 794 0 
L 794 531 
z
" transform="scale(0.015625)"/>
       </defs>
       <use xlink:href="#DejaVuSans-31"/>
       <use xlink:href="#DejaVuSans-30" transform="translate(63.623047 0)"/>
       <use xlink:href="#DejaVuSans-30" transform="translate(127.246094 0)"/>
       <use xlink:href="#DejaVuSans-30" transform="translate(190.869141 0)"/>
      </g>
     </g>
    </g>
    <g id="ytick_4">
     <g id="line2d_11">
      <g>
       <use xlink:href="#m2a344568bc" x="53.328125" y="132.364569" style="stroke: #000000; stroke-width: 0.8"/>
      </g>
     </g>
     <g id="text_12">
      <!-- 1500 -->
      <g transform="translate(20.878125 136.163788) scale(0.1 -0.1)">
       <use xlink:href="#DejaVuSans-31"/>
       <use xlink:href="#DejaVuSans-35" transform="translate(63.623047 0)"/>
       <use xlink:href="#DejaVuSans-30" transform="translate(127.246094 0)"/>
       <use xlink:href="#DejaVuSans-30" transform="translate(190.869141 0)"/>
      </g>
     </g>
    </g>
    <g id="ytick_5">
     <g id="line2d_12">
      <g>
       <use xlink:href="#m2a344568bc" x="53.328125" y="103.506854" style="stroke: #000000; stroke-width: 0.8"/>
      </g>
     </g>
     <g id="text_13">
      <!-- 2000 -->
      <g transform="translate(20.878125 107.306072) scale(0.1 -0.1)">
       <use xlink:href="#DejaVuSans-32"/>
       <use xlink:href="#DejaVuSans-30" transform="translate(63.623047 0)"/>
       <use xlink:href="#DejaVuSans-30" transform="translate(127.246094 0)"/>
       <use xlink:href="#DejaVuSans-30" transform="translate(190.869141 0)"/>
      </g>
     </g>
    </g>
    <g id="ytick_6">
     <g id="line2d_13">
      <g>
       <use xlink:href="#m2a344568bc" x="53.328125" y="74.649138" style="stroke: #000000; stroke-width: 0.8"/>
      </g>
     </g>
     <g id="text_14">
      <!-- 2500 -->
      <g transform="translate(20.878125 78.448357) scale(0.1 -0.1)">
       <use xlink:href="#DejaVuSans-32"/>
       <use xlink:href="#DejaVuSans-35" transform="translate(63.623047 0)"/>
       <use xlink:href="#DejaVuSans-30" transform="translate(127.246094 0)"/>
       <use xlink:href="#DejaVuSans-30" transform="translate(190.869141 0)"/>
      </g>
     </g>
    </g>
    <g id="ytick_7">
     <g id="line2d_14">
      <g>
       <use xlink:href="#m2a344568bc" x="53.328125" y="45.791423" style="stroke: #000000; stroke-width: 0.8"/>
      </g>
     </g>
     <g id="text_15">
      <!-- 3000 -->
      <g transform="translate(20.878125 49.590642) scale(0.1 -0.1)">
       <use xlink:href="#DejaVuSans-33"/>
       <use xlink:href="#DejaVuSans-30" transform="translate(63.623047 0)"/>
       <use xlink:href="#DejaVuSans-30" transform="translate(127.246094 0)"/>
       <use xlink:href="#DejaVuSans-30" transform="translate(190.869141 0)"/>
      </g>
     </g>
    </g>
    <g id="ytick_8">
     <g id="line2d_15">
      <g>
       <use xlink:href="#m2a344568bc" x="53.328125" y="16.933707" style="stroke: #000000; stroke-width: 0.8"/>
      </g>
     </g>
     <g id="text_16">
      <!-- 3500 -->
      <g transform="translate(20.878125 20.732926) scale(0.1 -0.1)">
       <use xlink:href="#DejaVuSans-33"/>
       <use xlink:href="#DejaVuSans-35" transform="translate(63.623047 0)"/>
       <use xlink:href="#DejaVuSans-30" transform="translate(127.246094 0)"/>
       <use xlink:href="#DejaVuSans-30" transform="translate(190.869141 0)"/>
      </g>
     </g>
    </g>
    <g id="text_17">
     <!-- pulse:0 [counts] -->
     <g transform="translate(14.798438 158.560469) rotate(-90) scale(0.1 -0.1)">
      <defs>
       <path id="DejaVuSans-70" d="M 1159 525 
L 1159 -1331 
L 581 -1331 
L 581 3500 
L 1159 3500 
L 1159 2969 
Q 1341 3281 1617 3432 
Q 1894 3584 2278 3584 
Q 2916 3584 3314 3078 
Q 3713 2572 3713 1747 
Q 3713 922 3314 415 
Q 2916 -91 2278 -91 
Q 1894 -91 1617 61 
Q 1341 213 1159 525 
z
M 3116 1747 
Q 3116 2381 2855 2742 
Q 2594 3103 2138 3103 
Q 1681 3103 1420 2742 
Q 1159 2381 1159 1747 
Q 1159 1113 1420 752 
Q 1681 391 2138 391 
Q 2594 391 2855 752 
Q 3116 1113 3116 1747 
z
" transform="scale(0.015625)"/>
       <path id="DejaVuSans-75" d="M 544 1381 
L 544 3500 
L 1119 3500 
L 1119 1403 
Q 1119 906 1312 657 
Q 1506 409 1894 409 
Q 2359 409 2629 706 
Q 2900 1003 2900 1516 
L 2900 3500 
L 3475 3500 
L 3475 0 
L 2900 0 
L 2900 538 
Q 2691 219 2414 64 
Q 2138 -91 1772 -91 
Q 1169 -91 856 284 
Q 544 659 544 1381 
z
M 1991 3584 
L 1991 3584 
z
" transform="scale(0.015625)"/>
       <path id="DejaVuSans-6c" d="M 603 4863 
L 1178 4863 
L 1178 0 
L 603 0 
L 603 4863 
z
" transform="scale(0.015625)"/>
       <path id="DejaVuSans-65" d="M 3597 1894 
L 3597 1613 
L 953 1613 
Q 991 1019 1311 708 
Q 1631 397 2203 397 
Q 2534 397 2845 478 
Q 3156 559 3463 722 
L 3463 178 
Q 3153 47 2828 -22 
Q 2503 -91 2169 -91 
Q 1331 -91 842 396 
Q 353 884 353 1716 
Q 353 2575 817 3079 
Q 1281 3584 2069 3584 
Q 2775 3584 3186 3129 
Q 3597 2675 3597 1894 
z
M 3022 2063 
Q 3016 2534 2758 2815 
Q 2500 3097 2075 3097 
Q 1594 3097 1305 2825 
Q 1016 2553 972 2059 
L 3022 2063 
z
" transform="scale(0.015625)"/>
       <path id="DejaVuSans-3a" d="M 750 794 
L 1409 794 
L 1409 0 
L 750 0 
L 750 794 
z
M 750 3309 
L 1409 3309 
L 1409 2516 
L 750 2516 
L 750 3309 
z
" transform="scale(0.015625)"/>
       <path id="DejaVuSans-63" d="M 3122 3366 
L 3122 2828 
Q 2878 2963 2633 3030 
Q 2388 3097 2138 3097 
Q 1578 3097 1268 2742 
Q 959 2388 959 1747 
Q 959 1106 1268 751 
Q 1578 397 2138 397 
Q 2388 397 2633 464 
Q 2878 531 3122 666 
L 3122 134 
Q 2881 22 2623 -34 
Q 2366 -91 2075 -91 
Q 1284 -91 818 406 
Q 353 903 353 1747 
Q 353 2603 823 3093 
Q 1294 3584 2113 3584 
Q 2378 3584 2631 3529 
Q 2884 3475 3122 3366 
z
" transform="scale(0.015625)"/>
       <path id="DejaVuSans-6e" d="M 3513 2113 
L 3513 0 
L 2938 0 
L 2938 2094 
Q 2938 2591 2744 2837 
Q 2550 3084 2163 3084 
Q 1697 3084 1428 2787 
Q 1159 2491 1159 1978 
L 1159 0 
L 581 0 
L 581 3500 
L 1159 3500 
L 1159 2956 
Q 1366 3272 1645 3428 
Q 1925 3584 2291 3584 
Q 2894 3584 3203 3211 
Q 3513 2838 3513 2113 
z
" transform="scale(0.015625)"/>
      </defs>
      <use xlink:href="#DejaVuSans-70"/>
      <use xlink:href="#DejaVuSans-75" transform="translate(63.476562 0)"/>
      <use xlink:href="#DejaVuSans-6c" transform="translate(126.855469 0)"/>
      <use xlink:href="#DejaVuSans-73" transform="translate(154.638672 0)"/>
      <use xlink:href="#DejaVuSans-65" transform="translate(206.738281 0)"/>
      <use xlink:href="#DejaVuSans-3a" transform="translate(268.261719 0)"/>
      <use xlink:href="#DejaVuSans-30" transform="translate(301.953125 0)"/>
      <use xlink:href="#DejaVuSans-20" transform="translate(365.576172 0)"/>
      <use xlink:href="#DejaVuSans-5b" transform="translate(397.363281 0)"/>
      <use xlink:href="#DejaVuSans-63" transform="translate(436.376953 0)"/>
      <use xlink:href="#DejaVuSans-6f" transform="translate(491.357422 0)"/>
      <use xlink:href="#DejaVuSans-75" transform="translate(552.539062 0)"/>
      <use xlink:href="#DejaVuSans-6e" transform="translate(615.917969 0)"/>
      <use xlink:href="#DejaVuSans-74" transform="translate(679.296875 0)"/>
      <use xlink:href="#DejaVuSans-73" transform="translate(718.505859 0)"/>
      <use xlink:href="#DejaVuSans-5d" transform="translate(770.605469 0)"/>
     </g>
    </g>
   </g>
   <g id="line2d_16">
    <path d="M 68.546307 218.88 
L 72.604489 218.822285 
L 72.604489 218.764569 
L 74.63358 218.764569 
L 74.63358 218.591423 
L 76.66267 218.649138 
L 76.66267 218.475992 
L 79.706307 218.418277 
L 79.706307 217.783407 
L 80.720852 217.783407 
L 80.720852 217.206253 
L 82.749943 217.206253 
L 82.749943 217.379399 
L 83.764489 217.379399 
L 83.764489 216.340521 
L 84.779034 216.340521 
L 84.779034 214.897635 
L 85.79358 214.897635 
L 85.79358 214.666774 
L 86.808125 214.666774 
L 86.808125 212.704449 
L 87.82267 212.704449 
L 87.82267 211.088417 
L 88.837216 211.088417 
L 88.837216 207.856353 
L 89.851761 207.856353 
L 89.851761 204.335711 
L 90.866307 204.335711 
L 90.866307 200.872786 
L 91.880852 200.872786 
L 91.880852 195.101242 
L 92.895398 195.101242 
L 92.895398 186.559359 
L 93.909943 186.559359 
L 93.909943 174.900842 
L 94.924489 174.900842 
L 94.924489 170.225892 
L 95.939034 170.225892 
L 95.939034 156.431904 
L 96.95358 156.431904 
L 96.95358 144.715671 
L 97.968125 144.715671 
L 97.968125 133.692024 
L 98.98267 133.692024 
L 98.98267 126.477595 
L 99.997216 126.477595 
L 99.997216 114.241924 
L 101.011761 114.241924 
L 101.011761 104.430301 
L 102.026307 104.430301 
L 102.026307 95.772986 
L 103.040852 95.772986 
L 103.040852 96.292425 
L 104.055398 96.292425 
L 104.055398 90.347735 
L 105.069943 90.347735 
L 105.069943 75.572585 
L 106.084489 75.572585 
L 106.084489 69.050741 
L 107.099034 69.050741 
L 107.099034 65.818677 
L 108.11358 65.818677 
L 108.11358 65.299238 
L 109.128125 65.299238 
L 109.128125 62.471182 
L 110.14267 62.471182 
L 110.14267 46.945731 
L 111.157216 46.945731 
L 111.157216 50.235511 
L 112.171761 50.235511 
L 112.171761 44.579399 
L 113.186307 44.579399 
L 113.186307 36.037515 
L 114.200852 36.037515 
L 114.200852 36.152946 
L 115.215398 36.152946 
L 115.215398 35.633507 
L 116.229943 35.633507 
L 116.229943 36.787816 
L 117.244489 36.787816 
L 117.244489 30.843126 
L 118.259034 30.843126 
L 118.259034 27.091623 
L 119.27358 27.091623 
L 119.27358 26.399038 
L 120.288125 26.399038 
L 120.288125 22.012665 
L 121.30267 22.012665 
L 121.30267 23.917275 
L 122.317216 23.917275 
L 122.317216 24.032705 
L 123.331761 24.032705 
L 123.331761 26.399038 
L 124.346307 26.399038 
L 124.346307 17.28 
L 125.360852 17.28 
L 125.360852 25.648737 
L 126.375398 25.648737 
L 126.375398 19.761764 
L 127.389943 19.761764 
L 127.389943 22.358958 
L 128.404489 22.358958 
L 128.404489 23.166974 
L 129.419034 23.166974 
L 129.419034 22.416673 
L 130.43358 22.416673 
L 130.43358 23.34012 
L 131.448125 23.34012 
L 131.448125 35.056353 
L 132.46267 35.056353 
L 132.46267 33.902044 
L 133.477216 33.902044 
L 133.477216 38.75014 
L 134.491761 38.75014 
L 134.491761 41.924489 
L 135.506307 41.924489 
L 135.506307 52.197836 
L 136.520852 52.197836 
L 136.520852 54.79503 
L 137.535398 54.79503 
L 137.535398 62.817475 
L 138.549943 62.817475 
L 138.549943 60.393427 
L 139.564489 60.393427 
L 139.564489 63.971784 
L 140.579034 63.971784 
L 140.579034 71.532505 
L 141.59358 71.532505 
L 141.59358 75.918878 
L 142.608125 75.918878 
L 142.608125 82.96016 
L 143.62267 82.96016 
L 143.62267 90.116874 
L 144.637216 90.116874 
L 144.637216 99.351343 
L 145.651761 99.351343 
L 145.651761 104.084008 
L 146.666307 104.084008 
L 146.666307 102.352545 
L 147.680852 102.352545 
L 147.680852 115.280802 
L 148.695398 115.280802 
L 148.695398 120.879198 
L 149.709943 120.879198 
L 149.709943 130.633106 
L 150.724489 130.633106 
L 150.724489 137.385812 
L 151.739034 137.385812 
L 151.739034 141.252745 
L 152.75358 141.252745 
L 152.75358 147.139719 
L 153.768125 147.139719 
L 153.768125 150.660361 
L 154.78267 150.660361 
L 154.78267 154.527295 
L 155.797216 154.527295 
L 155.797216 161.222285 
L 156.811761 161.222285 
L 156.811761 164.338918 
L 157.826307 164.338918 
L 157.826307 172.130501 
L 158.840852 172.130501 
L 158.840852 171.495631 
L 159.855398 171.495631 
L 159.855398 173.573387 
L 160.869943 173.573387 
L 160.869943 182.403848 
L 161.884489 182.403848 
L 161.884489 181.307255 
L 162.899034 181.307255 
L 162.899034 186.155351 
L 163.91358 186.155351 
L 163.91358 188.752545 
L 164.928125 188.752545 
L 164.928125 190.657154 
L 165.94267 190.657154 
L 165.94267 193.081202 
L 166.957216 193.081202 
L 166.957216 199.141323 
L 167.971761 199.141323 
L 167.971761 201.161363 
L 168.986307 201.161363 
L 168.986307 203.181403 
L 170.000852 203.181403 
L 170.000852 205.201443 
L 171.015398 205.201443 
L 171.015398 206.75976 
L 172.029943 206.75976 
L 172.029943 207.740922 
L 173.044489 207.740922 
L 173.044489 210.511263 
L 174.059034 210.511263 
L 174.059034 213.454749 
L 175.07358 213.454749 
L 175.07358 214.378196 
L 176.088125 214.378196 
L 176.088125 216.109659 
L 177.10267 216.109659 
L 177.10267 217.206253 
L 178.117216 217.206253 
L 178.117216 217.379399 
L 179.131761 217.379399 
L 179.131761 218.302846 
L 181.160852 218.360561 
L 181.160852 218.649138 
L 182.175398 218.649138 
L 182.175398 218.360561 
L 183.189943 218.360561 
L 183.189943 218.071984 
L 184.204489 218.071984 
L 184.204489 217.956553 
L 185.219034 217.956553 
L 185.219034 217.552545 
L 187.248125 217.49483 
L 187.248125 216.744529 
L 188.26267 216.744529 
L 188.26267 216.282806 
L 189.277216 216.282806 
L 189.277216 214.147335 
L 190.291761 214.147335 
L 190.291761 214.378196 
L 191.306307 214.378196 
L 191.306307 212.877595 
L 192.320852 212.877595 
L 192.320852 210.915271 
L 193.335398 210.915271 
L 193.335398 209.299238 
L 194.349943 209.299238 
L 194.349943 208.7798 
L 195.364489 208.7798 
L 195.364489 206.182605 
L 196.379034 206.182605 
L 196.379034 204.508858 
L 197.39358 204.508858 
L 197.39358 205.086012 
L 198.408125 205.086012 
L 198.408125 205.663166 
L 199.42267 205.663166 
L 199.42267 202.431102 
L 200.437216 202.431102 
L 200.437216 199.487615 
L 201.451761 199.487615 
L 201.451761 199.314469 
L 202.466307 199.314469 
L 202.466307 199.833908 
L 203.480852 199.833908 
L 203.480852 198.506453 
L 204.495398 198.506453 
L 204.495398 198.910461 
L 205.509943 198.910461 
L 205.509943 195.851543 
L 206.524489 195.851543 
L 206.524489 194.985812 
L 207.539034 194.985812 
L 207.539034 196.082405 
L 208.55358 196.082405 
L 208.55358 193.48521 
L 209.568125 193.48521 
L 209.568125 191.292024 
L 210.58267 191.292024 
L 210.58267 192.561764 
L 211.597216 192.561764 
L 211.597216 190.71487 
L 212.611761 190.71487 
L 212.611761 191.061162 
L 213.626307 191.061162 
L 213.626307 190.71487 
L 214.640852 190.71487 
L 214.640852 191.118878 
L 215.655398 191.118878 
L 215.655398 189.271984 
L 216.669943 189.271984 
L 216.669943 190.657154 
L 217.684489 190.657154 
L 217.684489 189.675992 
L 218.699034 189.675992 
L 218.699034 186.963367 
L 219.71358 186.963367 
L 219.71358 191.292024 
L 220.728125 191.292024 
L 220.728125 189.156553 
L 221.74267 189.156553 
L 221.74267 188.637114 
L 222.757216 188.637114 
L 222.757216 188.348537 
L 223.771761 188.348537 
L 223.771761 186.097635 
L 224.786307 186.097635 
L 224.786307 185.924489 
L 225.800852 185.924489 
L 225.800852 187.771383 
L 226.815398 187.771383 
L 226.815398 188.348537 
L 227.829943 188.348537 
L 227.829943 184.827896 
L 228.844489 184.827896 
L 228.844489 188.810261 
L 229.859034 188.810261 
L 229.859034 186.963367 
L 230.87358 186.963367 
L 230.87358 190.599439 
L 231.888125 190.599439 
L 231.888125 189.156553 
L 232.90267 189.156553 
L 232.90267 191.234309 
L 233.917216 191.234309 
L 233.917216 191.061162 
L 234.931761 191.061162 
L 234.931761 192.157756 
L 235.946307 192.157756 
L 235.946307 189.041122 
L 236.960852 189.041122 
L 236.960852 191.811463 
L 237.975398 191.811463 
L 237.975398 190.830301 
L 238.989943 190.830301 
L 238.989943 192.388617 
L 240.004489 192.388617 
L 240.004489 192.504048 
L 241.019034 192.504048 
L 241.019034 193.716072 
L 242.03358 193.716072 
L 242.03358 192.850341 
L 243.048125 192.850341 
L 243.048125 195.620681 
L 244.06267 195.620681 
L 244.06267 196.197836 
L 245.077216 196.197836 
L 245.077216 194.408657 
L 246.091761 194.408657 
L 246.091761 193.658357 
L 247.106307 193.658357 
L 247.106307 196.082405 
L 248.120852 196.082405 
L 248.120852 197.871583 
L 249.135398 197.871583 
L 249.135398 197.178998 
L 250.149943 197.178998 
L 250.149943 197.640721 
L 251.164489 197.640721 
L 251.164489 197.352144 
L 252.179034 197.352144 
L 252.179034 197.467575 
L 253.19358 197.467575 
L 253.19358 198.564168 
L 254.208125 198.564168 
L 254.208125 197.40986 
L 255.22267 197.40986 
L 255.22267 199.776192 
L 256.237216 199.776192 
L 256.237216 200.06477 
L 257.251761 200.06477 
L 257.251761 198.564168 
L 258.266307 198.564168 
L 258.266307 200.930501 
L 259.280852 200.930501 
L 259.280852 200.411062 
L 260.295398 200.411062 
L 260.295398 199.949339 
L 261.309943 199.949339 
L 261.309943 200.353347 
L 262.324489 200.353347 
L 262.324489 199.833908 
L 263.339034 199.833908 
L 263.339034 202.257956 
L 264.35358 202.257956 
L 264.35358 202.719679 
L 265.368125 202.719679 
L 265.368125 200.757355 
L 266.38267 200.757355 
L 266.38267 201.334509 
L 267.397216 201.334509 
L 267.397216 201.680802 
L 268.411761 201.680802 
L 268.411761 202.315671 
L 269.426307 202.315671 
L 269.426307 204.566573 
L 270.440852 204.566573 
L 270.440852 201.853948 
L 271.455398 201.853948 
L 271.455398 204.047134 
L 272.469943 204.047134 
L 272.469943 202.604248 
L 273.484489 202.604248 
L 273.484489 203.239118 
L 274.499034 203.239118 
L 274.499034 203.758557 
L 275.51358 203.758557 
L 275.51358 203.239118 
L 276.528125 203.239118 
L 276.528125 204.624289 
L 277.54267 204.624289 
L 277.54267 202.546533 
L 278.557216 202.546533 
L 278.557216 204.797435 
L 279.571761 204.797435 
L 279.571761 205.143727 
L 280.586307 205.143727 
L 280.586307 203.989419 
L 281.600852 203.989419 
L 281.600852 204.739719 
L 282.615398 204.739719 
L 282.615398 205.432305 
L 283.629943 205.432305 
L 283.629943 205.778597 
L 284.644489 205.778597 
L 284.644489 204.85515 
L 286.67358 204.797435 
L 286.67358 206.702044 
L 287.688125 206.702044 
L 287.688125 206.067174 
L 288.70267 206.067174 
L 288.70267 206.702044 
L 289.717216 206.702044 
L 289.717216 206.067174 
L 290.731761 206.067174 
L 290.731761 207.221483 
L 291.746307 207.221483 
L 291.746307 206.528898 
L 292.760852 206.528898 
L 292.760852 206.644329 
L 293.775398 206.644329 
L 293.775398 208.318076 
L 294.789943 208.318076 
L 294.789943 207.914068 
L 295.804489 207.914068 
L 295.804489 207.394629 
L 296.819034 207.394629 
L 296.819034 205.663166 
L 297.83358 205.663166 
L 297.83358 207.106052 
L 298.848125 207.106052 
L 298.848125 207.625491 
L 299.86267 207.625491 
L 299.86267 208.548938 
L 300.877216 208.548938 
L 300.877216 207.106052 
L 301.891761 207.106052 
L 301.891761 207.798637 
L 302.906307 207.798637 
L 302.906307 207.336914 
L 303.920852 207.336914 
L 303.920852 209.991824 
L 304.935398 209.991824 
L 304.935398 208.7798 
L 305.949943 208.7798 
L 305.949943 208.606653 
L 306.964489 208.606653 
L 306.964489 208.722084 
L 307.979034 208.722084 
L 307.979034 208.952946 
L 308.99358 208.952946 
L 308.99358 209.414669 
L 310.008125 209.414669 
L 310.008125 209.587816 
L 311.02267 209.587816 
L 311.02267 209.068377 
L 312.037216 209.068377 
L 312.037216 207.971784 
L 313.051761 207.971784 
L 313.051761 209.5301 
L 314.066307 209.5301 
L 314.066307 209.241523 
L 315.080852 209.241523 
L 315.080852 210.684409 
L 316.095398 210.684409 
L 316.095398 211.376994 
L 317.109943 211.376994 
L 317.109943 210.280401 
L 318.124489 210.280401 
L 318.124489 210.568978 
L 320.15358 210.511263 
L 320.15358 211.203848 
L 321.168125 211.203848 
L 321.168125 209.472385 
L 322.18267 209.472385 
L 322.18267 210.511263 
L 324.211761 210.568978 
L 324.211761 210.280401 
L 325.226307 210.280401 
L 325.226307 210.568978 
L 326.240852 210.568978 
L 326.240852 211.434709 
L 327.255398 211.434709 
L 327.255398 211.203848 
L 328.269943 211.203848 
L 328.269943 210.453547 
L 329.284489 210.453547 
L 329.284489 212.127295 
L 330.299034 212.127295 
L 330.299034 211.261563 
L 331.31358 211.261563 
L 331.31358 212.300441 
L 332.328125 212.300441 
L 332.328125 211.146132 
L 334.357216 211.146132 
L 334.357216 211.55014 
L 335.371761 211.55014 
L 335.371761 212.762164 
L 336.386307 212.762164 
L 336.386307 212.877595 
L 338.415398 212.81988 
L 338.415398 212.127295 
L 339.429943 212.127295 
L 339.429943 212.877595 
L 340.444489 212.877595 
L 340.444489 212.993026 
L 341.459034 212.993026 
L 341.459034 214.089619 
L 342.47358 214.089619 
L 342.47358 213.397034 
L 343.488125 213.397034 
L 343.488125 214.20505 
L 344.50267 214.20505 
L 344.50267 214.435912 
L 345.517216 214.435912 
L 345.517216 214.724489 
L 346.531761 214.724489 
L 346.531761 214.897635 
L 347.546307 214.897635 
L 347.546307 215.301643 
L 348.560852 215.301643 
L 348.560852 215.763367 
L 349.575398 215.763367 
L 349.575398 215.417074 
L 350.589943 215.417074 
L 350.589943 215.994228 
L 351.604489 215.994228 
L 351.604489 216.167375 
L 352.619034 216.167375 
L 352.619034 215.821082 
L 353.63358 215.821082 
L 353.63358 216.167375 
L 354.648125 216.167375 
L 354.648125 216.802244 
L 355.66267 216.802244 
L 355.66267 217.379399 
L 356.677216 217.379399 
L 356.677216 216.744529 
L 357.691761 216.744529 
L 357.691761 216.975391 
L 358.706307 216.975391 
L 358.706307 217.090822 
L 360.735398 217.033106 
L 360.735398 217.379399 
L 361.749943 217.379399 
L 361.749943 217.956553 
L 362.764489 217.956553 
L 362.764489 218.24513 
L 363.779034 218.24513 
L 363.779034 218.475992 
L 364.79358 218.475992 
L 364.79358 218.129699 
L 365.808125 218.129699 
L 365.808125 218.014269 
L 367.837216 218.014269 
L 367.837216 218.187415 
L 368.851761 218.187415 
L 368.851761 218.591423 
L 370.880852 218.649138 
L 370.880852 218.764569 
L 372.909943 218.822285 
L 372.909943 218.822285 
" clip-path="url(#p0df565862b)" style="fill: none; stroke: #1f77b4; stroke-width: 1.5; stroke-linecap: square"/>
   </g>
   <g id="patch_3">
    <path d="M 53.328125 228.96 
L 53.328125 7.2 
" style="fill: none; stroke: #000000; stroke-width: 0.8; stroke-linejoin: miter; stroke-linecap: square"/>
   </g>
   <g id="patch_4">
    <path d="M 388.128125 228.96 
L 388.128125 7.2 
" style="fill: none; stroke: #000000; stroke-width: 0.8; stroke-linejoin: miter; stroke-linecap: square"/>
   </g>
   <g id="patch_5">
    <path d="M 53.328125 228.96 
L 388.128125 228.96 
" style="fill: none; stroke: #000000; stroke-width: 0.8; stroke-linejoin: miter; stroke-linecap: square"/>
   </g>
   <g id="patch_6">
    <path d="M 53.328125 7.2 
L 388.128125 7.2 
" style="fill: none; stroke: #000000; stroke-width: 0.8; stroke-linejoin: miter; stroke-linecap: square"/>
   </g>
  </g>
 </g>
 <defs>
  <clipPath id="p0df565862b">
   <rect x="53.328125" y="7.2" width="334.8" height="221.76"/>
  </clipPath>
 </defs>
</svg>
