<?xml version="1.0" encoding="utf-8" standalone="no"?>
<!DOCTYPE svg PUBLIC "-//W3C//DTD SVG 1.1//EN"
  "http://www.w3.org/Graphics/SVG/1.1/DTD/svg11.dtd">
<svg xmlns:xlink="http://www.w3.org/1999/xlink" width="872.39952pt" height="296.39952pt" viewBox="0 0 872.39952 296.39952" xmlns="http://www.w3.org/2000/svg" version="1.1">
 <metadata>
  <rdf:RDF xmlns:dc="http://purl.org/dc/elements/1.1/" xmlns:cc="http://creativecommons.org/ns#" xmlns:rdf="http://www.w3.org/1999/02/22-rdf-syntax-ns#">
   <cc:Work>
    <dc:type rdf:resource="http://purl.org/dc/dcmitype/StillImage"/>
    <dc:date>2025-11-19T10:11:18.965470</dc:date>
    <dc:format>image/svg+xml</dc:format>
    <dc:creator>
     <cc:Agent>
      <dc:title>Matplotlib v3.10.7, https://matplotlib.org/</dc:title>
     </cc:Agent>
    </dc:creator>
   </cc:Work>
  </rdf:RDF>
 </metadata>
 <defs>
  <style type="text/css">*{stroke-linejoin: round; stroke-linecap: butt}</style>
 </defs>
 <g id="figure_1">
  <g id="patch_1">
   <path d="M 0 296.39952 
L 872.39952 296.39952 
L 872.39952 0 
L 0 0 
z
" style="fill: #ffffff"/>
  </g>
  <g id="axes_1">
   <g id="patch_2">
    <path d="M 53.328125 257.158895 
L 414.59976 257.158895 
L 414.59976 7.2 
L 53.328125 7.2 
z
" style="fill: #ffffff"/>
   </g>
   <g id="matplotlib.axis_1">
    <g id="xtick_1">
     <g id="line2d_1">
      <defs>
       <path id="mf1e5cd9d93" d="M 0 0 
L 0 3.5 
" style="stroke: #000000; stroke-width: 0.8"/>
      </defs>
      <g>
       <use xlink:href="#mf1e5cd9d93" x="120.495881" y="257.158895" style="stroke: #000000; stroke-width: 0.8"/>
      </g>
     </g>
     <g id="text_1">
      <!-- 20000 -->
      <g transform="translate(104.589631 271.757332) scale(0.1 -0.1)">
       <defs>
        <path id="DejaVuSans-32" d="M 1228 531 
L 3431 531 
L 3431 0 
L 469 0 
L 469 531 
Q 828 903 1448 1529 
Q 2069 2156 2228 2338 
Q 2531 2678 2651 2914 
Q 2772 3150 2772 3378 
Q 2772 3750 2511 3984 
Q 2250 4219 1831 4219 
Q 1534 4219 1204 4116 
Q 875 4013 500 3803 
L 500 4441 
Q 881 4594 1212 4672 
Q 1544 4750 1819 4750 
Q 2544 4750 2975 4387 
Q 3406 4025 3406 3419 
Q 3406 3131 3298 2873 
Q 3191 2616 2906 2266 
Q 2828 2175 2409 1742 
Q 1991 1309 1228 531 
z
" transform="scale(0.015625)"/>
        <path id="DejaVuSans-30" d="M 2034 4250 
Q 1547 4250 1301 3770 
Q 1056 3291 1056 2328 
Q 1056 1369 1301 889 
Q 1547 409 2034 409 
Q 2525 409 2770 889 
Q 3016 1369 3016 2328 
Q 3016 3291 2770 3770 
Q 2525 4250 2034 4250 
z
M 2034 4750 
Q 2819 4750 3233 4129 
Q 3647 3509 3647 2328 
Q 3647 1150 3233 529 
Q 2819 -91 2034 -91 
Q 1250 -91 836 529 
Q 422 1150 422 2328 
Q 422 3509 836 4129 
Q 1250 4750 2034 4750 
z
" transform="scale(0.015625)"/>
       </defs>
       <use xlink:href="#DejaVuSans-32"/>
       <use xlink:href="#DejaVuSans-30" transform="translate(63.623047 0)"/>
       <use xlink:href="#DejaVuSans-30" transform="translate(127.246094 0)"/>
       <use xlink:href="#DejaVuSans-30" transform="translate(190.869141 0)"/>
       <use xlink:href="#DejaVuSans-30" transform="translate(254.492188 0)"/>
      </g>
     </g>
    </g>
    <g id="xtick_2">
     <g id="line2d_2">
      <g>
       <use xlink:href="#mf1e5cd9d93" x="199.392027" y="257.158895" style="stroke: #000000; stroke-width: 0.8"/>
      </g>
     </g>
     <g id="text_2">
      <!-- 30000 -->
      <g transform="translate(183.485777 271.757332) scale(0.1 -0.1)">
       <defs>
        <path id="DejaVuSans-33" d="M 2597 2516 
Q 3050 2419 3304 2112 
Q 3559 1806 3559 1356 
Q 3559 666 3084 287 
Q 2609 -91 1734 -91 
Q 1441 -91 1130 -33 
Q 819 25 488 141 
L 488 750 
Q 750 597 1062 519 
Q 1375 441 1716 441 
Q 2309 441 2620 675 
Q 2931 909 2931 1356 
Q 2931 1769 2642 2001 
Q 2353 2234 1838 2234 
L 1294 2234 
L 1294 2753 
L 1863 2753 
Q 2328 2753 2575 2939 
Q 2822 3125 2822 3475 
Q 2822 3834 2567 4026 
Q 2313 4219 1838 4219 
Q 1578 4219 1281 4162 
Q 984 4106 628 3988 
L 628 4550 
Q 988 4650 1302 4700 
Q 1616 4750 1894 4750 
Q 2613 4750 3031 4423 
Q 3450 4097 3450 3541 
Q 3450 3153 3228 2886 
Q 3006 2619 2597 2516 
z
" transform="scale(0.015625)"/>
       </defs>
       <use xlink:href="#DejaVuSans-33"/>
       <use xlink:href="#DejaVuSans-30" transform="translate(63.623047 0)"/>
       <use xlink:href="#DejaVuSans-30" transform="translate(127.246094 0)"/>
       <use xlink:href="#DejaVuSans-30" transform="translate(190.869141 0)"/>
       <use xlink:href="#DejaVuSans-30" transform="translate(254.492188 0)"/>
      </g>
     </g>
    </g>
    <g id="xtick_3">
     <g id="line2d_3">
      <g>
       <use xlink:href="#mf1e5cd9d93" x="278.288173" y="257.158895" style="stroke: #000000; stroke-width: 0.8"/>
      </g>
     </g>
     <g id="text_3">
      <!-- 40000 -->
      <g transform="translate(262.381923 271.757332) scale(0.1 -0.1)">
       <defs>
        <path id="DejaVuSans-34" d="M 2419 4116 
L 825 1625 
L 2419 1625 
L 2419 4116 
z
M 2253 4666 
L 3047 4666 
L 3047 1625 
L 3713 1625 
L 3713 1100 
L 3047 1100 
L 3047 0 
L 2419 0 
L 2419 1100 
L 313 1100 
L 313 1709 
L 2253 4666 
z
" transform="scale(0.015625)"/>
       </defs>
       <use xlink:href="#DejaVuSans-34"/>
       <use xlink:href="#DejaVuSans-30" transform="translate(63.623047 0)"/>
       <use xlink:href="#DejaVuSans-30" transform="translate(127.246094 0)"/>
       <use xlink:href="#DejaVuSans-30" transform="translate(190.869141 0)"/>
       <use xlink:href="#DejaVuSans-30" transform="translate(254.492188 0)"/>
      </g>
     </g>
    </g>
    <g id="xtick_4">
     <g id="line2d_4">
      <g>
       <use xlink:href="#mf1e5cd9d93" x="357.184319" y="257.158895" style="stroke: #000000; stroke-width: 0.8"/>
      </g>
     </g>
     <g id="text_4">
      <!-- 50000 -->
      <g transform="translate(341.278069 271.757332) scale(0.1 -0.1)">
       <defs>
        <path id="DejaVuSans-35" d="M 691 4666 
L 3169 4666 
L 3169 4134 
L 1269 4134 
L 1269 2991 
Q 1406 3038 1543 3061 
Q 1681 3084 1819 3084 
Q 2600 3084 3056 2656 
Q 3513 2228 3513 1497 
Q 3513 744 3044 326 
Q 2575 -91 1722 -91 
Q 1428 -91 1123 -41 
Q 819 9 494 109 
L 494 744 
Q 775 591 1075 516 
Q 1375 441 1709 441 
Q 2250 441 2565 725 
Q 2881 1009 2881 1497 
Q 2881 1984 2565 2268 
Q 2250 2553 1709 2553 
Q 1456 2553 1204 2497 
Q 953 2441 691 2322 
L 691 4666 
z
" transform="scale(0.015625)"/>
       </defs>
       <use xlink:href="#DejaVuSans-35"/>
       <use xlink:href="#DejaVuSans-30" transform="translate(63.623047 0)"/>
       <use xlink:href="#DejaVuSans-30" transform="translate(127.246094 0)"/>
       <use xlink:href="#DejaVuSans-30" transform="translate(190.869141 0)"/>
       <use xlink:href="#DejaVuSans-30" transform="translate(254.492188 0)"/>
      </g>
     </g>
    </g>
    <g id="text_5">
     <!-- toa [µs] -->
     <g transform="translate(214.603786 285.435457) scale(0.1 -0.1)">
      <defs>
       <path id="DejaVuSans-74" d="M 1172 4494 
L 1172 3500 
L 2356 3500 
L 2356 3053 
L 1172 3053 
L 1172 1153 
Q 1172 725 1289 603 
Q 1406 481 1766 481 
L 2356 481 
L 2356 0 
L 1766 0 
Q 1100 0 847 248 
Q 594 497 594 1153 
L 594 3053 
L 172 3053 
L 172 3500 
L 594 3500 
L 594 4494 
L 1172 4494 
z
" transform="scale(0.015625)"/>
       <path id="DejaVuSans-6f" d="M 1959 3097 
Q 1497 3097 1228 2736 
Q 959 2375 959 1747 
Q 959 1119 1226 758 
Q 1494 397 1959 397 
Q 2419 397 2687 759 
Q 2956 1122 2956 1747 
Q 2956 2369 2687 2733 
Q 2419 3097 1959 3097 
z
M 1959 3584 
Q 2709 3584 3137 3096 
Q 3566 2609 3566 1747 
Q 3566 888 3137 398 
Q 2709 -91 1959 -91 
Q 1206 -91 779 398 
Q 353 888 353 1747 
Q 353 2609 779 3096 
Q 1206 3584 1959 3584 
z
" transform="scale(0.015625)"/>
       <path id="DejaVuSans-61" d="M 2194 1759 
Q 1497 1759 1228 1600 
Q 959 1441 959 1056 
Q 959 750 1161 570 
Q 1363 391 1709 391 
Q 2188 391 2477 730 
Q 2766 1069 2766 1631 
L 2766 1759 
L 2194 1759 
z
M 3341 1997 
L 3341 0 
L 2766 0 
L 2766 531 
Q 2569 213 2275 61 
Q 1981 -91 1556 -91 
Q 1019 -91 701 211 
Q 384 513 384 1019 
Q 384 1609 779 1909 
Q 1175 2209 1959 2209 
L 2766 2209 
L 2766 2266 
Q 2766 2663 2505 2880 
Q 2244 3097 1772 3097 
Q 1472 3097 1187 3025 
Q 903 2953 641 2809 
L 641 3341 
Q 956 3463 1253 3523 
Q 1550 3584 1831 3584 
Q 2591 3584 2966 3190 
Q 3341 2797 3341 1997 
z
" transform="scale(0.015625)"/>
       <path id="DejaVuSans-20" transform="scale(0.015625)"/>
       <path id="DejaVuSans-5b" d="M 550 4863 
L 1875 4863 
L 1875 4416 
L 1125 4416 
L 1125 -397 
L 1875 -397 
L 1875 -844 
L 550 -844 
L 550 4863 
z
" transform="scale(0.015625)"/>
       <path id="DejaVuSans-b5" d="M 544 -1331 
L 544 3500 
L 1119 3500 
L 1119 1325 
Q 1119 872 1334 640 
Q 1550 409 1972 409 
Q 2434 409 2667 671 
Q 2900 934 2900 1459 
L 2900 3500 
L 3475 3500 
L 3475 806 
Q 3475 619 3529 530 
Q 3584 441 3700 441 
Q 3728 441 3778 458 
Q 3828 475 3916 513 
L 3916 50 
Q 3788 -22 3673 -56 
Q 3559 -91 3450 -91 
Q 3234 -91 3106 31 
Q 2978 153 2931 403 
Q 2775 156 2548 32 
Q 2322 -91 2016 -91 
Q 1697 -91 1473 31 
Q 1250 153 1119 397 
L 1119 -1331 
L 544 -1331 
z
" transform="scale(0.015625)"/>
       <path id="DejaVuSans-73" d="M 2834 3397 
L 2834 2853 
Q 2591 2978 2328 3040 
Q 2066 3103 1784 3103 
Q 1356 3103 1142 2972 
Q 928 2841 928 2578 
Q 928 2378 1081 2264 
Q 1234 2150 1697 2047 
L 1894 2003 
Q 2506 1872 2764 1633 
Q 3022 1394 3022 966 
Q 3022 478 2636 193 
Q 2250 -91 1575 -91 
Q 1294 -91 989 -36 
Q 684 19 347 128 
L 347 722 
Q 666 556 975 473 
Q 1284 391 1588 391 
Q 1994 391 2212 530 
Q 2431 669 2431 922 
Q 2431 1156 2273 1281 
Q 2116 1406 1581 1522 
L 1381 1569 
Q 847 1681 609 1914 
Q 372 2147 372 2553 
Q 372 3047 722 3315 
Q 1072 3584 1716 3584 
Q 2034 3584 2315 3537 
Q 2597 3491 2834 3397 
z
" transform="scale(0.015625)"/>
       <path id="DejaVuSans-5d" d="M 1947 4863 
L 1947 -844 
L 622 -844 
L 622 -397 
L 1369 -397 
L 1369 4416 
L 622 4416 
L 622 4863 
L 1947 4863 
z
" transform="scale(0.015625)"/>
      </defs>
      <use xlink:href="#DejaVuSans-74"/>
      <use xlink:href="#DejaVuSans-6f" transform="translate(39.208984 0)"/>
      <use xlink:href="#DejaVuSans-61" transform="translate(100.390625 0)"/>
      <use xlink:href="#DejaVuSans-20" transform="translate(161.669922 0)"/>
      <use xlink:href="#DejaVuSans-5b" transform="translate(193.457031 0)"/>
      <use xlink:href="#DejaVuSans-b5" transform="translate(232.470703 0)"/>
      <use xlink:href="#DejaVuSans-73" transform="translate(296.09375 0)"/>
      <use xlink:href="#DejaVuSans-5d" transform="translate(348.193359 0)"/>
     </g>
    </g>
   </g>
   <g id="matplotlib.axis_2">
    <g id="ytick_1">
     <g id="line2d_5">
      <defs>
       <path id="m9d2e751d51" d="M 0 0 
L -3.5 0 
" style="stroke: #000000; stroke-width: 0.8"/>
      </defs>
      <g>
       <use xlink:href="#m9d2e751d51" x="53.328125" y="245.797127" style="stroke: #000000; stroke-width: 0.8"/>
      </g>
     </g>
     <g id="text_6">
      <!-- 0 -->
      <g transform="translate(39.965625 249.596346) scale(0.1 -0.1)">
       <use xlink:href="#DejaVuSans-30"/>
      </g>
     </g>
    </g>
    <g id="ytick_2">
     <g id="line2d_6">
      <g>
       <use xlink:href="#m9d2e751d51" x="53.328125" y="213.953607" style="stroke: #000000; stroke-width: 0.8"/>
      </g>
     </g>
     <g id="text_7">
      <!-- 500 -->
      <g transform="translate(27.240625 217.752826) scale(0.1 -0.1)">
       <use xlink:href="#DejaVuSans-35"/>
       <use xlink:href="#DejaVuSans-30" transform="translate(63.623047 0)"/>
       <use xlink:href="#DejaVuSans-30" transform="translate(127.246094 0)"/>
      </g>
     </g>
    </g>
    <g id="ytick_3">
     <g id="line2d_7">
      <g>
       <use xlink:href="#m9d2e751d51" x="53.328125" y="182.110087" style="stroke: #000000; stroke-width: 0.8"/>
      </g>
     </g>
     <g id="text_8">
      <!-- 1000 -->
      <g transform="translate(20.878125 185.909306) scale(0.1 -0.1)">
       <defs>
        <path id="DejaVuSans-31" d="M 794 531 
L 1825 531 
L 1825 4091 
L 703 3866 
L 703 4441 
L 1819 4666 
L 2450 4666 
L 2450 531 
L 3481 531 
L 3481 0 
L 794 0 
L 794 531 
z
" transform="scale(0.015625)"/>
       </defs>
       <use xlink:href="#DejaVuSans-31"/>
       <use xlink:href="#DejaVuSans-30" transform="translate(63.623047 0)"/>
       <use xlink:href="#DejaVuSans-30" transform="translate(127.246094 0)"/>
       <use xlink:href="#DejaVuSans-30" transform="translate(190.869141 0)"/>
      </g>
     </g>
    </g>
    <g id="ytick_4">
     <g id="line2d_8">
      <g>
       <use xlink:href="#m9d2e751d51" x="53.328125" y="150.266567" style="stroke: #000000; stroke-width: 0.8"/>
      </g>
     </g>
     <g id="text_9">
      <!-- 1500 -->
      <g transform="translate(20.878125 154.065786) scale(0.1 -0.1)">
       <use xlink:href="#DejaVuSans-31"/>
       <use xlink:href="#DejaVuSans-35" transform="translate(63.623047 0)"/>
       <use xlink:href="#DejaVuSans-30" transform="translate(127.246094 0)"/>
       <use xlink:href="#DejaVuSans-30" transform="translate(190.869141 0)"/>
      </g>
     </g>
    </g>
    <g id="ytick_5">
     <g id="line2d_9">
      <g>
       <use xlink:href="#m9d2e751d51" x="53.328125" y="118.423047" style="stroke: #000000; stroke-width: 0.8"/>
      </g>
     </g>
     <g id="text_10">
      <!-- 2000 -->
      <g transform="translate(20.878125 122.222266) scale(0.1 -0.1)">
       <use xlink:href="#DejaVuSans-32"/>
       <use xlink:href="#DejaVuSans-30" transform="translate(63.623047 0)"/>
       <use xlink:href="#DejaVuSans-30" transform="translate(127.246094 0)"/>
       <use xlink:href="#DejaVuSans-30" transform="translate(190.869141 0)"/>
      </g>
     </g>
    </g>
    <g id="ytick_6">
     <g id="line2d_10">
      <g>
       <use xlink:href="#m9d2e751d51" x="53.328125" y="86.579527" style="stroke: #000000; stroke-width: 0.8"/>
      </g>
     </g>
     <g id="text_11">
      <!-- 2500 -->
      <g transform="translate(20.878125 90.378746) scale(0.1 -0.1)">
       <use xlink:href="#DejaVuSans-32"/>
       <use xlink:href="#DejaVuSans-35" transform="translate(63.623047 0)"/>
       <use xlink:href="#DejaVuSans-30" transform="translate(127.246094 0)"/>
       <use xlink:href="#DejaVuSans-30" transform="translate(190.869141 0)"/>
      </g>
     </g>
    </g>
    <g id="ytick_7">
     <g id="line2d_11">
      <g>
       <use xlink:href="#m9d2e751d51" x="53.328125" y="54.736007" style="stroke: #000000; stroke-width: 0.8"/>
      </g>
     </g>
     <g id="text_12">
      <!-- 3000 -->
      <g transform="translate(20.878125 58.535225) scale(0.1 -0.1)">
       <use xlink:href="#DejaVuSans-33"/>
       <use xlink:href="#DejaVuSans-30" transform="translate(63.623047 0)"/>
       <use xlink:href="#DejaVuSans-30" transform="translate(127.246094 0)"/>
       <use xlink:href="#DejaVuSans-30" transform="translate(190.869141 0)"/>
      </g>
     </g>
    </g>
    <g id="ytick_8">
     <g id="line2d_12">
      <g>
       <use xlink:href="#m9d2e751d51" x="53.328125" y="22.892487" style="stroke: #000000; stroke-width: 0.8"/>
      </g>
     </g>
     <g id="text_13">
      <!-- 3500 -->
      <g transform="translate(20.878125 26.691705) scale(0.1 -0.1)">
       <use xlink:href="#DejaVuSans-33"/>
       <use xlink:href="#DejaVuSans-35" transform="translate(63.623047 0)"/>
       <use xlink:href="#DejaVuSans-30" transform="translate(127.246094 0)"/>
       <use xlink:href="#DejaVuSans-30" transform="translate(190.869141 0)"/>
      </g>
     </g>
    </g>
    <g id="text_14">
     <!-- [counts] -->
     <g transform="translate(14.798438 152.791947) rotate(-90) scale(0.1 -0.1)">
      <defs>
       <path id="DejaVuSans-63" d="M 3122 3366 
L 3122 2828 
Q 2878 2963 2633 3030 
Q 2388 3097 2138 3097 
Q 1578 3097 1268 2742 
Q 959 2388 959 1747 
Q 959 1106 1268 751 
Q 1578 397 2138 397 
Q 2388 397 2633 464 
Q 2878 531 3122 666 
L 3122 134 
Q 2881 22 2623 -34 
Q 2366 -91 2075 -91 
Q 1284 -91 818 406 
Q 353 903 353 1747 
Q 353 2603 823 3093 
Q 1294 3584 2113 3584 
Q 2378 3584 2631 3529 
Q 2884 3475 3122 3366 
z
" transform="scale(0.015625)"/>
       <path id="DejaVuSans-75" d="M 544 1381 
L 544 3500 
L 1119 3500 
L 1119 1403 
Q 1119 906 1312 657 
Q 1506 409 1894 409 
Q 2359 409 2629 706 
Q 2900 1003 2900 1516 
L 2900 3500 
L 3475 3500 
L 3475 0 
L 2900 0 
L 2900 538 
Q 2691 219 2414 64 
Q 2138 -91 1772 -91 
Q 1169 -91 856 284 
Q 544 659 544 1381 
z
M 1991 3584 
L 1991 3584 
z
" transform="scale(0.015625)"/>
       <path id="DejaVuSans-6e" d="M 3513 2113 
L 3513 0 
L 2938 0 
L 2938 2094 
Q 2938 2591 2744 2837 
Q 2550 3084 2163 3084 
Q 1697 3084 1428 2787 
Q 1159 2491 1159 1978 
L 1159 0 
L 581 0 
L 581 3500 
L 1159 3500 
L 1159 2956 
Q 1366 3272 1645 3428 
Q 1925 3584 2291 3584 
Q 2894 3584 3203 3211 
Q 3513 2838 3513 2113 
z
" transform="scale(0.015625)"/>
      </defs>
      <use xlink:href="#DejaVuSans-5b"/>
      <use xlink:href="#DejaVuSans-63" transform="translate(39.013672 0)"/>
      <use xlink:href="#DejaVuSans-6f" transform="translate(93.994141 0)"/>
      <use xlink:href="#DejaVuSans-75" transform="translate(155.175781 0)"/>
      <use xlink:href="#DejaVuSans-6e" transform="translate(218.554688 0)"/>
      <use xlink:href="#DejaVuSans-74" transform="translate(281.933594 0)"/>
      <use xlink:href="#DejaVuSans-73" transform="translate(321.142578 0)"/>
      <use xlink:href="#DejaVuSans-5d" transform="translate(373.242188 0)"/>
     </g>
    </g>
   </g>
   <g id="line2d_13">
    <path d="M 69.749563 245.797127 
L 93.834339 245.797127 
L 93.834339 195.038556 
L 94.929101 195.038556 
L 94.929101 162.494479 
L 96.023864 162.494479 
L 96.023864 153.196171 
L 97.118626 153.196171 
L 97.118626 134.535868 
L 98.213389 134.535868 
L 98.213389 126.95711 
L 99.308151 126.95711 
L 99.308151 115.238695 
L 100.402914 115.238695 
L 100.402914 102.947096 
L 101.497676 102.947096 
L 101.497676 92.884544 
L 102.592439 92.884544 
L 102.592439 88.999634 
L 103.687201 88.999634 
L 103.687201 77.090158 
L 104.781964 77.090158 
L 104.781964 72.823126 
L 105.876726 72.823126 
L 105.876726 61.614207 
L 106.971489 61.614207 
L 106.971489 54.608633 
L 108.066252 54.608633 
L 108.066252 49.004173 
L 109.161014 49.004173 
L 109.161014 50.660036 
L 110.255777 50.660036 
L 110.255777 41.934912 
L 111.350539 41.934912 
L 111.350539 37.158384 
L 112.445302 37.158384 
L 112.445302 36.521513 
L 113.540064 36.521513 
L 113.540064 31.744985 
L 114.634827 31.744985 
L 114.634827 31.999733 
L 115.729589 31.999733 
L 115.729589 165.360395 
L 116.824352 165.360395 
L 116.824352 245.797127 
L 137.62484 245.797127 
L 137.62484 138.166029 
L 138.719602 138.166029 
L 138.719602 76.198539 
L 139.814365 76.198539 
L 139.814365 78.172837 
L 140.909127 78.172837 
L 140.909127 80.210823 
L 142.00389 80.210823 
L 142.00389 92.056612 
L 143.098652 92.056612 
L 143.098652 98.361629 
L 144.193415 98.361629 
L 144.193415 95.559399 
L 145.288178 95.559399 
L 145.288178 106.577257 
L 146.38294 106.577257 
L 146.38294 111.926969 
L 147.477703 111.926969 
L 147.477703 113.20071 
L 148.572465 113.20071 
L 148.572465 124.218567 
L 149.667228 124.218567 
L 149.667228 141.605129 
L 150.76199 141.605129 
L 150.76199 139.248709 
L 151.856753 139.248709 
L 151.856753 148.101208 
L 152.951515 148.101208 
L 152.951515 157.399515 
L 154.046278 157.399515 
L 154.046278 157.526889 
L 155.14104 157.526889 
L 155.14104 168.863183 
L 156.235803 168.863183 
L 156.235803 169.882175 
L 157.330565 169.882175 
L 157.330565 178.416239 
L 158.425328 178.416239 
L 158.425328 184.275446 
L 159.52009 184.275446 
L 159.52009 187.013989 
L 160.614853 187.013989 
L 160.614853 194.52906 
L 161.709615 194.52906 
L 161.709615 198.286595 
L 162.804378 198.286595 
L 162.804378 202.872062 
L 163.899141 202.872062 
L 163.899141 205.610605 
L 164.993903 205.610605 
L 164.993903 210.45082 
L 166.088666 210.45082 
L 166.088666 214.463103 
L 167.183428 214.463103 
L 167.183428 217.32902 
L 168.278191 217.32902 
L 168.278191 219.239631 
L 169.372953 219.239631 
L 169.372953 224.270907 
L 170.467716 224.270907 
L 170.467716 227.964756 
L 171.562478 227.964756 
L 171.562478 231.722291 
L 172.657241 231.722291 
L 172.657241 241.657469 
L 173.752003 241.657469 
L 173.752003 245.797127 
L 203.310592 245.797127 
L 203.310592 239.237362 
L 204.405354 239.237362 
L 204.405354 234.460834 
L 205.500117 234.460834 
L 205.500117 232.61391 
L 206.594879 232.61391 
L 206.594879 232.104413 
L 207.689642 232.104413 
L 207.689642 229.17481 
L 208.784404 229.17481 
L 208.784404 230.321176 
L 209.879167 230.321176 
L 209.879167 227.264198 
L 210.973929 227.264198 
L 210.973929 224.143533 
L 212.068692 224.143533 
L 212.068692 223.825098 
L 213.163454 223.825098 
L 213.163454 222.93348 
L 214.258217 222.93348 
L 214.258217 222.615044 
L 215.352979 222.615044 
L 215.352979 221.150243 
L 216.447742 221.150243 
L 216.447742 219.621754 
L 217.542505 219.621754 
L 217.542505 218.220639 
L 218.637267 218.220639 
L 218.637267 215.736844 
L 219.73203 215.736844 
L 219.73203 215.864218 
L 220.826792 215.864218 
L 220.826792 212.488805 
L 221.921555 212.488805 
L 221.921555 214.908913 
L 223.016317 214.908913 
L 223.016317 215.354722 
L 224.11108 215.354722 
L 224.11108 215.864218 
L 225.205842 215.864218 
L 225.205842 212.488805 
L 226.300605 212.488805 
L 226.300605 214.017294 
L 227.395367 214.017294 
L 227.395367 210.514507 
L 228.49013 210.514507 
L 228.49013 211.342438 
L 229.584892 211.342438 
L 229.584892 212.934614 
L 230.679655 212.934614 
L 230.679655 213.061988 
L 231.774417 213.061988 
L 231.774417 212.297744 
L 232.86918 212.297744 
L 232.86918 210.514507 
L 233.963942 210.514507 
L 233.963942 211.597187 
L 235.058705 211.597187 
L 235.058705 209.813949 
L 236.153468 209.813949 
L 236.153468 213.380424 
L 237.24823 213.380424 
L 237.24823 213.762546 
L 238.342993 213.762546 
L 238.342993 214.590477 
L 239.437755 214.590477 
L 239.437755 212.743553 
L 240.532518 212.743553 
L 240.532518 212.234057 
L 241.62728 212.234057 
L 241.62728 213.507798 
L 242.722043 213.507798 
L 242.722043 211.915622 
L 243.816805 211.915622 
L 243.816805 215.482096 
L 244.911568 215.482096 
L 244.911568 216.883211 
L 246.00633 216.883211 
L 246.00633 215.227348 
L 247.101093 215.227348 
L 247.101093 232.932345 
L 248.195855 232.932345 
L 248.195855 245.797127 
L 268.996343 245.797127 
L 268.996343 234.460834 
L 270.091106 234.460834 
L 270.091106 222.997167 
L 271.185869 222.997167 
L 271.185869 224.016159 
L 272.280631 224.016159 
L 272.280631 222.551357 
L 273.375394 222.551357 
L 273.375394 223.442976 
L 274.470156 223.442976 
L 274.470156 226.691015 
L 275.564919 226.691015 
L 275.564919 224.844091 
L 276.659681 224.844091 
L 276.659681 225.2899 
L 277.754444 225.2899 
L 277.754444 227.901069 
L 278.849206 227.901069 
L 278.849206 226.117832 
L 279.943969 226.117832 
L 279.943969 227.327885 
L 281.038731 227.327885 
L 281.038731 225.799396 
L 282.133494 225.799396 
L 282.133494 227.646321 
L 283.228256 227.646321 
L 283.228256 228.410565 
L 284.323019 228.410565 
L 284.323019 228.601626 
L 285.417781 228.601626 
L 285.417781 228.410565 
L 286.512544 228.410565 
L 286.512544 227.391572 
L 287.607306 227.391572 
L 287.607306 227.773695 
L 288.702069 227.773695 
L 288.702069 227.391572 
L 289.796832 227.391572 
L 289.796832 227.837382 
L 290.891594 227.837382 
L 290.891594 229.81168 
L 291.986357 229.81168 
L 291.986357 229.17481 
L 293.081119 229.17481 
L 293.081119 230.44855 
L 294.175882 230.44855 
L 294.175882 231.467543 
L 295.270644 231.467543 
L 295.270644 230.639612 
L 296.365407 230.639612 
L 296.365407 232.104413 
L 297.460169 232.104413 
L 297.460169 227.837382 
L 298.554932 227.837382 
L 298.554932 229.939054 
L 299.649694 229.939054 
L 299.649694 231.53123 
L 300.744457 231.53123 
L 300.744457 232.422849 
L 301.839219 232.422849 
L 301.839219 230.703299 
L 302.933982 230.703299 
L 302.933982 231.276482 
L 305.123507 231.276482 
L 305.123507 232.804971 
L 306.218269 232.804971 
L 306.218269 232.040726 
L 307.313032 232.040726 
L 307.313032 233.187093 
L 308.407795 233.187093 
L 308.407795 232.996032 
L 309.502557 232.996032 
L 309.502557 230.703299 
L 310.59732 230.703299 
L 310.59732 232.932345 
L 311.692082 232.932345 
L 311.692082 233.632902 
L 312.786845 233.632902 
L 312.786845 233.505528 
L 313.881607 233.505528 
L 313.881607 230.89436 
L 314.97637 230.89436 
L 314.97637 234.460834 
L 316.071132 234.460834 
L 316.071132 233.187093 
L 317.165895 233.187093 
L 317.165895 234.015025 
L 318.260657 234.015025 
L 318.260657 233.378154 
L 320.450182 233.378154 
L 320.450182 233.823964 
L 321.544945 233.823964 
L 321.544945 234.142399 
L 323.73447 234.142399 
L 323.73447 234.460834 
L 324.829233 234.460834 
L 324.829233 234.779269 
L 325.923995 234.779269 
L 325.923995 233.441841 
L 327.018758 233.441841 
L 327.018758 235.925636 
L 328.11352 235.925636 
L 328.11352 236.562506 
L 329.208283 236.562506 
L 329.208283 235.734575 
L 330.303045 235.734575 
L 330.303045 234.078712 
L 331.397808 234.078712 
L 331.397808 236.307758 
L 332.49257 236.307758 
L 332.49257 236.68988 
L 333.587333 236.68988 
L 333.587333 235.925636 
L 334.682095 235.925636 
L 334.682095 237.13569 
L 335.776858 237.13569 
L 335.776858 236.244071 
L 336.87162 236.244071 
L 336.87162 235.225078 
L 337.966383 235.225078 
L 337.966383 237.517812 
L 339.061145 237.517812 
L 339.061145 236.307758 
L 340.155908 236.307758 
L 340.155908 237.517812 
L 341.25067 237.517812 
L 341.25067 236.116697 
L 343.440196 236.180384 
L 343.440196 237.390438 
L 344.534958 237.390438 
L 344.534958 237.008316 
L 345.629721 237.008316 
L 345.629721 238.536804 
L 346.724483 238.536804 
L 346.724483 237.836247 
L 347.819246 237.836247 
L 347.819246 238.40943 
L 348.914008 238.40943 
L 348.914008 236.05301 
L 350.008771 236.05301 
L 350.008771 238.154682 
L 351.103533 238.154682 
L 351.103533 236.880941 
L 352.198296 236.880941 
L 352.198296 238.027308 
L 353.293058 238.027308 
L 353.293058 236.180384 
L 355.482583 236.180384 
L 355.482583 238.473117 
L 356.577346 238.473117 
L 356.577346 241.975905 
L 357.672108 241.975905 
L 357.672108 245.797127 
L 398.178322 245.797127 
L 398.178322 245.797127 
" clip-path="url(#pfa83702655)" style="fill: none; stroke: #1f77b4; stroke-width: 1.5; stroke-linecap: square"/>
   </g>
   <g id="line2d_14">
    <path d="M 69.749563 245.73344 
L 74.128613 245.669753 
L 74.128613 245.542379 
L 75.223376 245.542379 
L 75.223376 245.351318 
L 76.318138 245.351318 
L 76.318138 244.969196 
L 77.412901 244.969196 
L 77.412901 245.287631 
L 79.602426 245.223944 
L 79.602426 244.841821 
L 80.697188 244.841821 
L 80.697188 243.504394 
L 82.886713 243.440707 
L 82.886713 243.122271 
L 83.981476 243.122271 
L 83.981476 241.466408 
L 85.076238 241.466408 
L 85.076238 239.428423 
L 86.171001 239.428423 
L 86.171001 237.708873 
L 87.265763 237.708873 
L 87.265763 234.33346 
L 88.360526 234.33346 
L 88.360526 229.620619 
L 89.455288 229.620619 
L 89.455288 223.315602 
L 90.550051 223.315602 
L 90.550051 211.215064 
L 91.644814 211.215064 
L 91.644814 203.954742 
L 92.739576 203.954742 
L 92.739576 192.491074 
L 93.834339 192.491074 
L 93.834339 225.226213 
L 94.929101 225.226213 
L 94.929101 245.797127 
L 115.729589 245.797127 
L 115.729589 102.182852 
L 116.824352 102.182852 
L 116.824352 21.300311 
L 117.919114 21.300311 
L 117.919114 28.051137 
L 119.013877 28.051137 
L 119.013877 18.561768 
L 120.108639 18.561768 
L 120.108639 31.362863 
L 121.203402 31.362863 
L 121.203402 20.345005 
L 122.298164 20.345005 
L 122.298164 21.937181 
L 123.392927 21.937181 
L 123.392927 20.408692 
L 124.487689 20.408692 
L 124.487689 25.885778 
L 125.582452 25.885778 
L 125.582452 23.019861 
L 126.677215 23.019861 
L 126.677215 34.483528 
L 127.771977 34.483528 
L 127.771977 31.999733 
L 128.86674 31.999733 
L 128.86674 39.132682 
L 129.961502 39.132682 
L 129.961502 47.475684 
L 131.056265 47.475684 
L 131.056265 46.71144 
L 132.151027 46.71144 
L 132.151027 49.258921 
L 133.24579 49.258921 
L 133.24579 59.448848 
L 134.340552 59.448848 
L 134.340552 59.576222 
L 135.435315 59.576222 
L 135.435315 65.753865 
L 136.530077 65.753865 
L 136.530077 67.473415 
L 137.62484 67.473415 
L 137.62484 177.142498 
L 138.719602 177.142498 
L 138.719602 245.797127 
L 172.657241 245.797127 
L 172.657241 238.664179 
L 173.752003 238.664179 
L 173.752003 236.05301 
L 174.846766 236.05301 
L 174.846766 238.791553 
L 175.941528 238.791553 
L 175.941528 240.447416 
L 177.036291 240.447416 
L 177.036291 243.185958 
L 178.131053 243.185958 
L 178.131053 243.568081 
L 179.225816 243.568081 
L 179.225816 244.65076 
L 180.320579 244.65076 
L 180.320579 245.669753 
L 183.604866 245.669753 
L 183.604866 245.797127 
L 184.699629 245.797127 
L 184.699629 245.669753 
L 189.078679 245.606066 
L 189.078679 245.478692 
L 190.173441 245.478692 
L 190.173441 245.287631 
L 191.268204 245.287631 
L 191.268204 244.905508 
L 192.362966 244.905508 
L 192.362966 245.223944 
L 193.457729 245.223944 
L 193.457729 244.65076 
L 196.742016 244.714447 
L 196.742016 243.822829 
L 197.836779 243.822829 
L 197.836779 243.313332 
L 198.931542 243.313332 
L 198.931542 241.275347 
L 201.121067 241.21166 
L 201.121067 239.555797 
L 202.215829 239.555797 
L 202.215829 239.428423 
L 203.310592 239.428423 
L 203.310592 241.721156 
L 204.405354 241.721156 
L 204.405354 245.797127 
L 247.101093 245.797127 
L 247.101093 230.384863 
L 248.195855 230.384863 
L 248.195855 216.564776 
L 249.290618 216.564776 
L 249.290618 214.9726 
L 250.38538 214.9726 
L 250.38538 217.074272 
L 251.480143 217.074272 
L 251.480143 218.029578 
L 252.574906 218.029578 
L 252.574906 220.003876 
L 253.669668 220.003876 
L 253.669668 214.908913 
L 254.764431 214.908913 
L 254.764431 218.4117 
L 255.859193 218.4117 
L 255.859193 218.284326 
L 256.953956 218.284326 
L 256.953956 219.621754 
L 258.048718 219.621754 
L 258.048718 220.640746 
L 260.238243 220.577059 
L 260.238243 221.596052 
L 261.333006 221.596052 
L 261.333006 225.035152 
L 262.427768 225.035152 
L 262.427768 222.742419 
L 263.522531 222.742419 
L 263.522531 220.13125 
L 264.617293 220.13125 
L 264.617293 223.952472 
L 265.712056 223.952472 
L 265.712056 220.76812 
L 266.806818 220.76812 
L 266.806818 223.442976 
L 267.901581 223.442976 
L 267.901581 225.799396 
L 268.996343 225.799396 
L 268.996343 236.626193 
L 270.091106 236.626193 
L 270.091106 245.797127 
L 356.577346 245.797127 
L 356.577346 242.103279 
L 357.672108 242.103279 
L 357.672108 239.364736 
L 358.766871 239.364736 
L 358.766871 238.600492 
L 359.861633 238.600492 
L 359.861633 238.090995 
L 362.051159 238.154682 
L 362.051159 239.046301 
L 363.145921 239.046301 
L 363.145921 238.727866 
L 364.240684 238.727866 
L 364.240684 239.619484 
L 365.335446 239.619484 
L 365.335446 239.810545 
L 366.430209 239.810545 
L 366.430209 238.600492 
L 367.524971 238.600492 
L 367.524971 239.428423 
L 368.619734 239.428423 
L 368.619734 240.447416 
L 369.714496 240.447416 
L 369.714496 240.702164 
L 370.809259 240.702164 
L 370.809259 240.12898 
L 371.904021 240.12898 
L 371.904021 240.765851 
L 372.998784 240.765851 
L 372.998784 240.893225 
L 374.093546 240.893225 
L 374.093546 241.402721 
L 375.188309 241.402721 
L 375.188309 242.421714 
L 376.283071 242.421714 
L 376.283071 241.912218 
L 377.377834 241.912218 
L 377.377834 242.421714 
L 378.472596 242.421714 
L 378.472596 241.975905 
L 379.567359 241.975905 
L 379.567359 242.93121 
L 381.756884 242.994897 
L 381.756884 243.568081 
L 382.851647 243.568081 
L 382.851647 243.822829 
L 383.946409 243.822829 
L 383.946409 244.077577 
L 385.041172 244.077577 
L 385.041172 243.504394 
L 386.135934 243.504394 
L 386.135934 244.459699 
L 387.230697 244.459699 
L 387.230697 243.886516 
L 388.325459 243.886516 
L 388.325459 244.077577 
L 389.420222 244.077577 
L 389.420222 245.032883 
L 390.514984 245.032883 
L 390.514984 244.905508 
L 392.704509 244.841821 
L 392.704509 245.09657 
L 393.799272 245.09657 
L 393.799272 245.287631 
L 394.894034 245.287631 
L 394.894034 245.415005 
L 395.988797 245.415005 
L 395.988797 245.606066 
L 398.178322 245.606066 
L 398.178322 245.606066 
" clip-path="url(#pfa83702655)" style="fill: none; stroke: #808080; stroke-width: 1.5; stroke-linecap: square"/>
   </g>
   <g id="patch_3">
    <path d="M 53.328125 257.158895 
L 53.328125 7.2 
" style="fill: none; stroke: #000000; stroke-width: 0.8; stroke-linejoin: miter; stroke-linecap: square"/>
   </g>
   <g id="patch_4">
    <path d="M 414.59976 257.158895 
L 414.59976 7.2 
" style="fill: none; stroke: #000000; stroke-width: 0.8; stroke-linejoin: miter; stroke-linecap: square"/>
   </g>
   <g id="patch_5">
    <path d="M 53.328125 257.158895 
L 414.59976 257.158895 
" style="fill: none; stroke: #000000; stroke-width: 0.8; stroke-linejoin: miter; stroke-linecap: square"/>
   </g>
   <g id="patch_6">
    <path d="M 53.328125 7.2 
L 414.59976 7.2 
" style="fill: none; stroke: #000000; stroke-width: 0.8; stroke-linejoin: miter; stroke-linecap: square"/>
   </g>
   <g id="legend_1">
    <g id="patch_7">
     <path d="M 296.760697 44.55625 
L 407.59976 44.55625 
Q 409.59976 44.55625 409.59976 42.55625 
L 409.59976 14.2 
Q 409.59976 12.2 407.59976 12.2 
L 296.760697 12.2 
Q 294.760697 12.2 294.760697 14.2 
L 294.760697 42.55625 
Q 294.760697 44.55625 296.760697 44.55625 
z
" style="fill: #ffffff; opacity: 0.8; stroke: #cccccc; stroke-linejoin: miter"/>
    </g>
    <g id="line2d_15">
     <path d="M 298.760697 20.298437 
L 298.760697 20.298437 
L 308.760697 20.298437 
L 308.760697 20.298437 
L 318.760697 20.298437 
" style="fill: none; stroke: #1f77b4; stroke-width: 1.5; stroke-linecap: square"/>
    </g>
    <g id="text_15">
     <!-- pulse:0 -->
     <g transform="translate(326.760697 23.798437) scale(0.1 -0.1)">
      <defs>
       <path id="DejaVuSans-70" d="M 1159 525 
L 1159 -1331 
L 581 -1331 
L 581 3500 
L 1159 3500 
L 1159 2969 
Q 1341 3281 1617 3432 
Q 1894 3584 2278 3584 
Q 2916 3584 3314 3078 
Q 3713 2572 3713 1747 
Q 3713 922 3314 415 
Q 2916 -91 2278 -91 
Q 1894 -91 1617 61 
Q 1341 213 1159 525 
z
M 3116 1747 
Q 3116 2381 2855 2742 
Q 2594 3103 2138 3103 
Q 1681 3103 1420 2742 
Q 1159 2381 1159 1747 
Q 1159 1113 1420 752 
Q 1681 391 2138 391 
Q 2594 391 2855 752 
Q 3116 1113 3116 1747 
z
" transform="scale(0.015625)"/>
       <path id="DejaVuSans-6c" d="M 603 4863 
L 1178 4863 
L 1178 0 
L 603 0 
L 603 4863 
z
" transform="scale(0.015625)"/>
       <path id="DejaVuSans-65" d="M 3597 1894 
L 3597 1613 
L 953 1613 
Q 991 1019 1311 708 
Q 1631 397 2203 397 
Q 2534 397 2845 478 
Q 3156 559 3463 722 
L 3463 178 
Q 3153 47 2828 -22 
Q 2503 -91 2169 -91 
Q 1331 -91 842 396 
Q 353 884 353 1716 
Q 353 2575 817 3079 
Q 1281 3584 2069 3584 
Q 2775 3584 3186 3129 
Q 3597 2675 3597 1894 
z
M 3022 2063 
Q 3016 2534 2758 2815 
Q 2500 3097 2075 3097 
Q 1594 3097 1305 2825 
Q 1016 2553 972 2059 
L 3022 2063 
z
" transform="scale(0.015625)"/>
       <path id="DejaVuSans-3a" d="M 750 794 
L 1409 794 
L 1409 0 
L 750 0 
L 750 794 
z
M 750 3309 
L 1409 3309 
L 1409 2516 
L 750 2516 
L 750 3309 
z
" transform="scale(0.015625)"/>
      </defs>
      <use xlink:href="#DejaVuSans-70"/>
      <use xlink:href="#DejaVuSans-75" transform="translate(63.476562 0)"/>
      <use xlink:href="#DejaVuSans-6c" transform="translate(126.855469 0)"/>
      <use xlink:href="#DejaVuSans-73" transform="translate(154.638672 0)"/>
      <use xlink:href="#DejaVuSans-65" transform="translate(206.738281 0)"/>
      <use xlink:href="#DejaVuSans-3a" transform="translate(268.261719 0)"/>
      <use xlink:href="#DejaVuSans-30" transform="translate(301.953125 0)"/>
     </g>
    </g>
    <g id="line2d_16">
     <path d="M 298.760697 34.976562 
L 298.760697 34.976562 
L 308.760697 34.976562 
L 308.760697 34.976562 
L 318.760697 34.976562 
" style="fill: none; stroke: #808080; stroke-width: 1.5; stroke-linecap: square"/>
    </g>
    <g id="text_16">
     <!-- blocked-pulse:0 -->
     <g transform="translate(326.760697 38.476562) scale(0.1 -0.1)">
      <defs>
       <path id="DejaVuSans-62" d="M 3116 1747 
Q 3116 2381 2855 2742 
Q 2594 3103 2138 3103 
Q 1681 3103 1420 2742 
Q 1159 2381 1159 1747 
Q 1159 1113 1420 752 
Q 1681 391 2138 391 
Q 2594 391 2855 752 
Q 3116 1113 3116 1747 
z
M 1159 2969 
Q 1341 3281 1617 3432 
Q 1894 3584 2278 3584 
Q 2916 3584 3314 3078 
Q 3713 2572 3713 1747 
Q 3713 922 3314 415 
Q 2916 -91 2278 -91 
Q 1894 -91 1617 61 
Q 1341 213 1159 525 
L 1159 0 
L 581 0 
L 581 4863 
L 1159 4863 
L 1159 2969 
z
" transform="scale(0.015625)"/>
       <path id="DejaVuSans-6b" d="M 581 4863 
L 1159 4863 
L 1159 1991 
L 2875 3500 
L 3609 3500 
L 1753 1863 
L 3688 0 
L 2938 0 
L 1159 1709 
L 1159 0 
L 581 0 
L 581 4863 
z
" transform="scale(0.015625)"/>
       <path id="DejaVuSans-64" d="M 2906 2969 
L 2906 4863 
L 3481 4863 
L 3481 0 
L 2906 0 
L 2906 525 
Q 2725 213 2448 61 
Q 2172 -91 1784 -91 
Q 1150 -91 751 415 
Q 353 922 353 1747 
Q 353 2572 751 3078 
Q 1150 3584 1784 3584 
Q 2172 3584 2448 3432 
Q 2725 3281 2906 2969 
z
M 947 1747 
Q 947 1113 1208 752 
Q 1469 391 1925 391 
Q 2381 391 2643 752 
Q 2906 1113 2906 1747 
Q 2906 2381 2643 2742 
Q 2381 3103 1925 3103 
Q 1469 3103 1208 2742 
Q 947 2381 947 1747 
z
" transform="scale(0.015625)"/>
       <path id="DejaVuSans-2d" d="M 313 2009 
L 1997 2009 
L 1997 1497 
L 313 1497 
L 313 2009 
z
" transform="scale(0.015625)"/>
      </defs>
      <use xlink:href="#DejaVuSans-62"/>
      <use xlink:href="#DejaVuSans-6c" transform="translate(63.476562 0)"/>
      <use xlink:href="#DejaVuSans-6f" transform="translate(91.259766 0)"/>
      <use xlink:href="#DejaVuSans-63" transform="translate(152.441406 0)"/>
      <use xlink:href="#DejaVuSans-6b" transform="translate(207.421875 0)"/>
      <use xlink:href="#DejaVuSans-65" transform="translate(261.707031 0)"/>
      <use xlink:href="#DejaVuSans-64" transform="translate(323.230469 0)"/>
      <use xlink:href="#DejaVuSans-2d" transform="translate(386.707031 0)"/>
      <use xlink:href="#DejaVuSans-70" transform="translate(422.791016 0)"/>
      <use xlink:href="#DejaVuSans-75" transform="translate(486.267578 0)"/>
      <use xlink:href="#DejaVuSans-6c" transform="translate(549.646484 0)"/>
      <use xlink:href="#DejaVuSans-73" transform="translate(577.429688 0)"/>
      <use xlink:href="#DejaVuSans-65" transform="translate(629.529297 0)"/>
      <use xlink:href="#DejaVuSans-3a" transform="translate(691.052734 0)"/>
      <use xlink:href="#DejaVuSans-30" transform="translate(724.744141 0)"/>
     </g>
    </g>
   </g>
  </g>
  <g id="axes_2">
   <g id="patch_8">
    <path d="M 503.927885 257.158895 
L 865.19952 257.158895 
L 865.19952 7.2 
L 503.927885 7.2 
z
" style="fill: #ffffff"/>
   </g>
   <g id="matplotlib.axis_3">
    <g id="xtick_5">
     <g id="line2d_17">
      <g>
       <use xlink:href="#mf1e5cd9d93" x="530.528299" y="257.158895" style="stroke: #000000; stroke-width: 0.8"/>
      </g>
     </g>
     <g id="text_17">
      <!-- 2 -->
      <g transform="translate(527.347049 271.757332) scale(0.1 -0.1)">
       <use xlink:href="#DejaVuSans-32"/>
      </g>
     </g>
    </g>
    <g id="xtick_6">
     <g id="line2d_18">
      <g>
       <use xlink:href="#mf1e5cd9d93" x="602.159944" y="257.158895" style="stroke: #000000; stroke-width: 0.8"/>
      </g>
     </g>
     <g id="text_18">
      <!-- 4 -->
      <g transform="translate(598.978694 271.757332) scale(0.1 -0.1)">
       <use xlink:href="#DejaVuSans-34"/>
      </g>
     </g>
    </g>
    <g id="xtick_7">
     <g id="line2d_19">
      <g>
       <use xlink:href="#mf1e5cd9d93" x="673.791589" y="257.158895" style="stroke: #000000; stroke-width: 0.8"/>
      </g>
     </g>
     <g id="text_19">
      <!-- 6 -->
      <g transform="translate(670.610339 271.757332) scale(0.1 -0.1)">
       <defs>
        <path id="DejaVuSans-36" d="M 2113 2584 
Q 1688 2584 1439 2293 
Q 1191 2003 1191 1497 
Q 1191 994 1439 701 
Q 1688 409 2113 409 
Q 2538 409 2786 701 
Q 3034 994 3034 1497 
Q 3034 2003 2786 2293 
Q 2538 2584 2113 2584 
z
M 3366 4563 
L 3366 3988 
Q 3128 4100 2886 4159 
Q 2644 4219 2406 4219 
Q 1781 4219 1451 3797 
Q 1122 3375 1075 2522 
Q 1259 2794 1537 2939 
Q 1816 3084 2150 3084 
Q 2853 3084 3261 2657 
Q 3669 2231 3669 1497 
Q 3669 778 3244 343 
Q 2819 -91 2113 -91 
Q 1303 -91 875 529 
Q 447 1150 447 2328 
Q 447 3434 972 4092 
Q 1497 4750 2381 4750 
Q 2619 4750 2861 4703 
Q 3103 4656 3366 4563 
z
" transform="scale(0.015625)"/>
       </defs>
       <use xlink:href="#DejaVuSans-36"/>
      </g>
     </g>
    </g>
    <g id="xtick_8">
     <g id="line2d_20">
      <g>
       <use xlink:href="#mf1e5cd9d93" x="745.423234" y="257.158895" style="stroke: #000000; stroke-width: 0.8"/>
      </g>
     </g>
     <g id="text_20">
      <!-- 8 -->
      <g transform="translate(742.241984 271.757332) scale(0.1 -0.1)">
       <defs>
        <path id="DejaVuSans-38" d="M 2034 2216 
Q 1584 2216 1326 1975 
Q 1069 1734 1069 1313 
Q 1069 891 1326 650 
Q 1584 409 2034 409 
Q 2484 409 2743 651 
Q 3003 894 3003 1313 
Q 3003 1734 2745 1975 
Q 2488 2216 2034 2216 
z
M 1403 2484 
Q 997 2584 770 2862 
Q 544 3141 544 3541 
Q 544 4100 942 4425 
Q 1341 4750 2034 4750 
Q 2731 4750 3128 4425 
Q 3525 4100 3525 3541 
Q 3525 3141 3298 2862 
Q 3072 2584 2669 2484 
Q 3125 2378 3379 2068 
Q 3634 1759 3634 1313 
Q 3634 634 3220 271 
Q 2806 -91 2034 -91 
Q 1263 -91 848 271 
Q 434 634 434 1313 
Q 434 1759 690 2068 
Q 947 2378 1403 2484 
z
M 1172 3481 
Q 1172 3119 1398 2916 
Q 1625 2713 2034 2713 
Q 2441 2713 2670 2916 
Q 2900 3119 2900 3481 
Q 2900 3844 2670 4047 
Q 2441 4250 2034 4250 
Q 1625 4250 1398 4047 
Q 1172 3844 1172 3481 
z
" transform="scale(0.015625)"/>
       </defs>
       <use xlink:href="#DejaVuSans-38"/>
      </g>
     </g>
    </g>
    <g id="xtick_9">
     <g id="line2d_21">
      <g>
       <use xlink:href="#mf1e5cd9d93" x="817.054879" y="257.158895" style="stroke: #000000; stroke-width: 0.8"/>
      </g>
     </g>
     <g id="text_21">
      <!-- 10 -->
      <g transform="translate(810.692379 271.757332) scale(0.1 -0.1)">
       <use xlink:href="#DejaVuSans-31"/>
       <use xlink:href="#DejaVuSans-30" transform="translate(63.623047 0)"/>
      </g>
     </g>
    </g>
    <g id="text_22">
     <!-- wavelength [Å] -->
     <g transform="translate(646.526202 287.119832) scale(0.1 -0.1)">
      <defs>
       <path id="DejaVuSans-77" d="M 269 3500 
L 844 3500 
L 1563 769 
L 2278 3500 
L 2956 3500 
L 3675 769 
L 4391 3500 
L 4966 3500 
L 4050 0 
L 3372 0 
L 2619 2869 
L 1863 0 
L 1184 0 
L 269 3500 
z
" transform="scale(0.015625)"/>
       <path id="DejaVuSans-76" d="M 191 3500 
L 800 3500 
L 1894 563 
L 2988 3500 
L 3597 3500 
L 2284 0 
L 1503 0 
L 191 3500 
z
" transform="scale(0.015625)"/>
       <path id="DejaVuSans-67" d="M 2906 1791 
Q 2906 2416 2648 2759 
Q 2391 3103 1925 3103 
Q 1463 3103 1205 2759 
Q 947 2416 947 1791 
Q 947 1169 1205 825 
Q 1463 481 1925 481 
Q 2391 481 2648 825 
Q 2906 1169 2906 1791 
z
M 3481 434 
Q 3481 -459 3084 -895 
Q 2688 -1331 1869 -1331 
Q 1566 -1331 1297 -1286 
Q 1028 -1241 775 -1147 
L 775 -588 
Q 1028 -725 1275 -790 
Q 1522 -856 1778 -856 
Q 2344 -856 2625 -561 
Q 2906 -266 2906 331 
L 2906 616 
Q 2728 306 2450 153 
Q 2172 0 1784 0 
Q 1141 0 747 490 
Q 353 981 353 1791 
Q 353 2603 747 3093 
Q 1141 3584 1784 3584 
Q 2172 3584 2450 3431 
Q 2728 3278 2906 2969 
L 2906 3500 
L 3481 3500 
L 3481 434 
z
" transform="scale(0.015625)"/>
       <path id="DejaVuSans-68" d="M 3513 2113 
L 3513 0 
L 2938 0 
L 2938 2094 
Q 2938 2591 2744 2837 
Q 2550 3084 2163 3084 
Q 1697 3084 1428 2787 
Q 1159 2491 1159 1978 
L 1159 0 
L 581 0 
L 581 4863 
L 1159 4863 
L 1159 2956 
Q 1366 3272 1645 3428 
Q 1925 3584 2291 3584 
Q 2894 3584 3203 3211 
Q 3513 2838 3513 2113 
z
" transform="scale(0.015625)"/>
       <path id="DejaVuSans-c5" d="M 2663 5081 
Q 2663 5278 2523 5417 
Q 2384 5556 2188 5556 
Q 1988 5556 1852 5420 
Q 1716 5284 1716 5081 
Q 1716 4884 1853 4746 
Q 1991 4609 2188 4609 
Q 2384 4609 2523 4746 
Q 2663 4884 2663 5081 
z
M 2188 4044 
L 1338 1722 
L 3041 1722 
L 2188 4044 
z
M 1716 4366 
Q 1525 4494 1428 4673 
Q 1331 4853 1331 5081 
Q 1331 5441 1579 5691 
Q 1828 5941 2188 5941 
Q 2544 5941 2795 5689 
Q 3047 5438 3047 5081 
Q 3047 4863 2948 4678 
Q 2850 4494 2663 4366 
L 4325 0 
L 3669 0 
L 3244 1197 
L 1141 1197 
L 716 0 
L 50 0 
L 1716 4366 
z
" transform="scale(0.015625)"/>
      </defs>
      <use xlink:href="#DejaVuSans-77"/>
      <use xlink:href="#DejaVuSans-61" transform="translate(81.787109 0)"/>
      <use xlink:href="#DejaVuSans-76" transform="translate(143.066406 0)"/>
      <use xlink:href="#DejaVuSans-65" transform="translate(202.246094 0)"/>
      <use xlink:href="#DejaVuSans-6c" transform="translate(263.769531 0)"/>
      <use xlink:href="#DejaVuSans-65" transform="translate(291.552734 0)"/>
      <use xlink:href="#DejaVuSans-6e" transform="translate(353.076172 0)"/>
      <use xlink:href="#DejaVuSans-67" transform="translate(416.455078 0)"/>
      <use xlink:href="#DejaVuSans-74" transform="translate(479.931641 0)"/>
      <use xlink:href="#DejaVuSans-68" transform="translate(519.140625 0)"/>
      <use xlink:href="#DejaVuSans-20" transform="translate(582.519531 0)"/>
      <use xlink:href="#DejaVuSans-5b" transform="translate(614.306641 0)"/>
      <use xlink:href="#DejaVuSans-c5" transform="translate(653.320312 0)"/>
      <use xlink:href="#DejaVuSans-5d" transform="translate(721.728516 0)"/>
     </g>
    </g>
   </g>
   <g id="matplotlib.axis_4">
    <g id="ytick_9">
     <g id="line2d_22">
      <g>
       <use xlink:href="#m9d2e751d51" x="503.927885" y="245.797127" style="stroke: #000000; stroke-width: 0.8"/>
      </g>
     </g>
     <g id="text_23">
      <!-- 0 -->
      <g transform="translate(490.565385 249.596346) scale(0.1 -0.1)">
       <use xlink:href="#DejaVuSans-30"/>
      </g>
     </g>
    </g>
    <g id="ytick_10">
     <g id="line2d_23">
      <g>
       <use xlink:href="#m9d2e751d51" x="503.927885" y="209.543879" style="stroke: #000000; stroke-width: 0.8"/>
      </g>
     </g>
     <g id="text_24">
      <!-- 500 -->
      <g transform="translate(477.840385 213.343098) scale(0.1 -0.1)">
       <use xlink:href="#DejaVuSans-35"/>
       <use xlink:href="#DejaVuSans-30" transform="translate(63.623047 0)"/>
       <use xlink:href="#DejaVuSans-30" transform="translate(127.246094 0)"/>
      </g>
     </g>
    </g>
    <g id="ytick_11">
     <g id="line2d_24">
      <g>
       <use xlink:href="#m9d2e751d51" x="503.927885" y="173.290631" style="stroke: #000000; stroke-width: 0.8"/>
      </g>
     </g>
     <g id="text_25">
      <!-- 1000 -->
      <g transform="translate(471.477885 177.08985) scale(0.1 -0.1)">
       <use xlink:href="#DejaVuSans-31"/>
       <use xlink:href="#DejaVuSans-30" transform="translate(63.623047 0)"/>
       <use xlink:href="#DejaVuSans-30" transform="translate(127.246094 0)"/>
       <use xlink:href="#DejaVuSans-30" transform="translate(190.869141 0)"/>
      </g>
     </g>
    </g>
    <g id="ytick_12">
     <g id="line2d_25">
      <g>
       <use xlink:href="#m9d2e751d51" x="503.927885" y="137.037383" style="stroke: #000000; stroke-width: 0.8"/>
      </g>
     </g>
     <g id="text_26">
      <!-- 1500 -->
      <g transform="translate(471.477885 140.836601) scale(0.1 -0.1)">
       <use xlink:href="#DejaVuSans-31"/>
       <use xlink:href="#DejaVuSans-35" transform="translate(63.623047 0)"/>
       <use xlink:href="#DejaVuSans-30" transform="translate(127.246094 0)"/>
       <use xlink:href="#DejaVuSans-30" transform="translate(190.869141 0)"/>
      </g>
     </g>
    </g>
    <g id="ytick_13">
     <g id="line2d_26">
      <g>
       <use xlink:href="#m9d2e751d51" x="503.927885" y="100.784135" style="stroke: #000000; stroke-width: 0.8"/>
      </g>
     </g>
     <g id="text_27">
      <!-- 2000 -->
      <g transform="translate(471.477885 104.583353) scale(0.1 -0.1)">
       <use xlink:href="#DejaVuSans-32"/>
       <use xlink:href="#DejaVuSans-30" transform="translate(63.623047 0)"/>
       <use xlink:href="#DejaVuSans-30" transform="translate(127.246094 0)"/>
       <use xlink:href="#DejaVuSans-30" transform="translate(190.869141 0)"/>
      </g>
     </g>
    </g>
    <g id="ytick_14">
     <g id="line2d_27">
      <g>
       <use xlink:href="#m9d2e751d51" x="503.927885" y="64.530887" style="stroke: #000000; stroke-width: 0.8"/>
      </g>
     </g>
     <g id="text_28">
      <!-- 2500 -->
      <g transform="translate(471.477885 68.330105) scale(0.1 -0.1)">
       <use xlink:href="#DejaVuSans-32"/>
       <use xlink:href="#DejaVuSans-35" transform="translate(63.623047 0)"/>
       <use xlink:href="#DejaVuSans-30" transform="translate(127.246094 0)"/>
       <use xlink:href="#DejaVuSans-30" transform="translate(190.869141 0)"/>
      </g>
     </g>
    </g>
    <g id="ytick_15">
     <g id="line2d_28">
      <g>
       <use xlink:href="#m9d2e751d51" x="503.927885" y="28.277638" style="stroke: #000000; stroke-width: 0.8"/>
      </g>
     </g>
     <g id="text_29">
      <!-- 3000 -->
      <g transform="translate(471.477885 32.076857) scale(0.1 -0.1)">
       <use xlink:href="#DejaVuSans-33"/>
       <use xlink:href="#DejaVuSans-30" transform="translate(63.623047 0)"/>
       <use xlink:href="#DejaVuSans-30" transform="translate(127.246094 0)"/>
       <use xlink:href="#DejaVuSans-30" transform="translate(190.869141 0)"/>
      </g>
     </g>
    </g>
    <g id="text_30">
     <!-- [counts] -->
     <g transform="translate(465.398197 152.791947) rotate(-90) scale(0.1 -0.1)">
      <use xlink:href="#DejaVuSans-5b"/>
      <use xlink:href="#DejaVuSans-63" transform="translate(39.013672 0)"/>
      <use xlink:href="#DejaVuSans-6f" transform="translate(93.994141 0)"/>
      <use xlink:href="#DejaVuSans-75" transform="translate(155.175781 0)"/>
      <use xlink:href="#DejaVuSans-6e" transform="translate(218.554688 0)"/>
      <use xlink:href="#DejaVuSans-74" transform="translate(281.933594 0)"/>
      <use xlink:href="#DejaVuSans-73" transform="translate(321.142578 0)"/>
      <use xlink:href="#DejaVuSans-5d" transform="translate(373.242188 0)"/>
     </g>
    </g>
   </g>
   <g id="line2d_29">
    <path d="M 520.349323 245.797127 
L 542.244574 245.797127 
L 542.244574 245.652114 
L 545.528861 245.724621 
L 545.528861 245.434595 
L 546.623624 245.434595 
L 546.623624 244.999556 
L 547.718386 244.999556 
L 547.718386 243.839452 
L 548.813149 243.839452 
L 548.813149 243.186893 
L 549.907911 243.186893 
L 549.907911 242.026789 
L 551.002674 242.026789 
L 551.002674 239.344049 
L 552.097436 239.344049 
L 552.097436 234.051075 
L 553.192199 234.051075 
L 553.192199 228.540581 
L 554.286961 228.540581 
L 554.286961 216.722022 
L 555.381724 216.722022 
L 555.381724 198.812918 
L 556.476486 198.812918 
L 556.476486 173.943189 
L 557.571249 173.943189 
L 557.571249 150.668604 
L 558.666012 150.668604 
L 558.666012 145.303123 
L 559.760774 145.303123 
L 559.760774 131.816915 
L 560.855537 131.816915 
L 560.855537 125.146317 
L 561.950299 125.146317 
L 561.950299 116.083005 
L 563.045062 116.083005 
L 563.045062 105.207031 
L 564.139824 105.207031 
L 564.139824 93.02594 
L 565.234587 93.02594 
L 565.234587 92.518394 
L 566.329349 92.518394 
L 566.329349 85.77529 
L 567.424112 85.77529 
L 567.424112 77.582056 
L 568.518874 77.582056 
L 568.518874 77.799575 
L 569.613637 77.799575 
L 569.613637 69.026289 
L 570.708399 69.026289 
L 570.708399 65.90851 
L 571.803162 65.90851 
L 571.803162 59.527938 
L 572.897924 59.527938 
L 572.897924 56.917704 
L 573.992687 56.917704 
L 573.992687 64.603393 
L 575.087449 64.603393 
L 575.087449 74.39177 
L 576.182212 74.39177 
L 576.182212 89.545628 
L 577.276975 89.545628 
L 577.276975 107.0922 
L 578.371737 107.0922 
L 578.371737 120.070863 
L 579.4665 120.070863 
L 579.4665 135.152214 
L 580.561262 135.152214 
L 580.561262 148.783435 
L 581.656025 148.783435 
L 581.656025 162.632176 
L 582.750787 162.632176 
L 582.750787 177.931047 
L 583.84555 177.931047 
L 583.84555 189.314567 
L 584.940312 189.314567 
L 584.940312 198.957931 
L 586.035075 198.957931 
L 586.035075 211.501554 
L 587.129837 211.501554 
L 587.129837 223.900165 
L 588.2246 223.900165 
L 588.2246 234.631127 
L 589.319362 234.631127 
L 589.319362 243.04188 
L 590.414125 243.04188 
L 590.414125 244.854543 
L 591.508887 244.854543 
L 591.508887 243.911958 
L 592.60365 243.911958 
L 592.60365 242.534335 
L 593.698412 242.534335 
L 593.698412 237.24136 
L 594.793175 237.24136 
L 594.793175 229.628178 
L 595.887938 229.628178 
L 595.887938 219.767295 
L 596.9827 219.767295 
L 596.9827 207.368684 
L 598.077463 207.368684 
L 598.077463 194.680047 
L 599.172225 194.680047 
L 599.172225 184.89167 
L 600.266988 184.89167 
L 600.266988 178.221073 
L 601.36175 178.221073 
L 601.36175 167.780137 
L 602.456513 167.780137 
L 602.456513 160.456981 
L 603.551275 160.456981 
L 603.551275 159.731916 
L 604.646038 159.731916 
L 604.646038 150.523591 
L 605.7408 150.523591 
L 605.7408 138.560019 
L 606.835563 138.560019 
L 606.835563 142.112837 
L 607.930325 142.112837 
L 607.930325 134.427149 
L 609.025088 134.427149 
L 609.025088 133.629577 
L 610.11985 133.629577 
L 610.11985 134.934694 
L 611.214613 134.934694 
L 611.214613 127.321512 
L 612.309375 127.321512 
L 612.309375 120.940941 
L 613.404138 120.940941 
L 613.404138 124.348746 
L 614.498901 124.348746 
L 614.498901 121.230967 
L 615.593663 121.230967 
L 615.593663 130.874331 
L 616.688426 130.874331 
L 616.688426 136.819863 
L 617.783188 136.819863 
L 617.783188 141.097747 
L 618.877951 141.097747 
L 618.877951 147.115786 
L 619.972713 147.115786 
L 619.972713 148.05837 
L 621.067476 148.05837 
L 621.067476 157.919254 
L 622.162238 157.919254 
L 622.162238 163.502254 
L 623.257001 163.502254 
L 623.257001 169.882826 
L 624.351763 169.882826 
L 624.351763 175.1758 
L 625.446526 175.1758 
L 625.446526 180.251254 
L 626.541288 180.251254 
L 626.541288 185.761748 
L 627.636051 185.761748 
L 627.636051 183.296527 
L 628.730813 183.296527 
L 628.730813 190.547177 
L 629.825576 190.547177 
L 629.825576 195.115086 
L 630.920339 195.115086 
L 630.920339 194.462528 
L 632.015101 194.462528 
L 632.015101 202.07571 
L 633.109864 202.07571 
L 633.109864 205.701035 
L 634.204626 205.701035 
L 634.204626 207.513697 
L 635.299389 207.513697 
L 635.299389 212.879178 
L 636.394151 212.879178 
L 636.394151 216.14197 
L 637.488914 216.14197 
L 637.488914 217.954633 
L 638.583676 217.954633 
L 638.583676 219.767295 
L 639.678439 219.767295 
L 639.678439 221.217425 
L 640.773201 221.217425 
L 640.773201 227.670503 
L 641.867964 227.670503 
L 641.867964 230.570763 
L 642.962726 230.570763 
L 642.962726 233.761049 
L 644.057489 233.761049 
L 644.057489 239.489062 
L 645.152251 239.489062 
L 645.152251 242.461828 
L 646.247014 242.461828 
L 646.247014 244.49201 
L 647.341776 244.49201 
L 647.341776 245.434595 
L 648.436539 245.434595 
L 648.436539 244.999556 
L 649.531302 244.999556 
L 649.531302 244.49201 
L 651.720827 244.564517 
L 651.720827 243.114387 
L 652.815589 243.114387 
L 652.815589 241.954283 
L 653.910352 241.954283 
L 653.910352 237.603893 
L 655.005114 237.603893 
L 655.005114 236.00875 
L 656.099877 236.00875 
L 656.099877 234.413607 
L 657.194639 234.413607 
L 657.194639 230.933295 
L 658.289402 230.933295 
L 658.289402 230.643269 
L 659.384164 230.643269 
L 659.384164 229.193139 
L 660.478927 229.193139 
L 660.478927 228.540581 
L 661.573689 228.540581 
L 661.573689 227.670503 
L 662.668452 227.670503 
L 662.668452 225.495308 
L 663.763214 225.495308 
L 663.763214 223.900165 
L 664.857977 223.900165 
L 664.857977 223.39262 
L 665.952739 223.39262 
L 665.952739 222.957581 
L 667.047502 222.957581 
L 667.047502 221.434944 
L 668.142265 221.434944 
L 668.142265 219.404762 
L 669.237027 219.404762 
L 669.237027 219.839801 
L 670.33179 219.839801 
L 670.33179 218.534684 
L 671.426552 218.534684 
L 671.426552 219.839801 
L 672.521315 219.839801 
L 672.521315 215.199386 
L 673.616077 215.199386 
L 673.616077 215.416905 
L 674.71084 215.416905 
L 674.71084 214.836853 
L 675.805602 214.836853 
L 675.805602 215.706931 
L 677.995127 215.634425 
L 677.995127 214.401814 
L 679.08989 214.401814 
L 679.08989 212.806671 
L 680.184652 212.806671 
L 680.184652 213.45923 
L 681.279415 213.45923 
L 681.279415 212.589152 
L 682.374177 212.589152 
L 682.374177 214.474321 
L 683.46894 214.474321 
L 683.46894 209.398866 
L 684.563702 209.398866 
L 684.563702 213.531736 
L 685.658465 213.531736 
L 685.658465 211.066515 
L 686.753228 211.066515 
L 686.753228 206.063567 
L 687.84799 206.063567 
L 687.84799 210.051424 
L 688.942753 210.051424 
L 688.942753 210.921502 
L 690.037515 210.921502 
L 690.037515 209.10884 
L 691.132278 209.10884 
L 691.132278 210.268944 
L 692.22704 210.268944 
L 692.22704 208.021243 
L 693.321803 208.021243 
L 693.321803 213.966775 
L 694.416565 213.966775 
L 694.416565 214.111788 
L 695.511328 214.111788 
L 695.511328 216.577009 
L 696.60609 216.577009 
L 696.60609 218.82471 
L 697.700853 218.82471 
L 697.700853 219.404762 
L 698.795615 219.404762 
L 698.795615 222.232516 
L 699.890378 222.232516 
L 699.890378 225.567815 
L 700.98514 225.567815 
L 700.98514 226.220373 
L 702.079903 226.220373 
L 702.079903 229.628178 
L 703.174666 229.628178 
L 703.174666 230.063217 
L 704.269428 230.063217 
L 704.269428 232.600945 
L 705.364191 232.600945 
L 705.364191 234.77614 
L 706.458953 234.77614 
L 706.458953 236.081257 
L 707.553716 236.081257 
L 707.553716 237.168854 
L 708.648478 237.168854 
L 708.648478 240.286633 
L 709.743241 240.286633 
L 709.743241 241.59175 
L 710.838003 241.59175 
L 710.838003 242.316815 
L 711.932766 242.316815 
L 711.932766 242.896867 
L 713.027528 242.896867 
L 713.027528 242.099296 
L 714.122291 242.099296 
L 714.122291 240.866685 
L 715.217053 240.866685 
L 715.217053 238.546477 
L 716.311816 238.546477 
L 716.311816 237.168854 
L 717.406578 237.168854 
L 717.406578 236.298776 
L 718.501341 236.298776 
L 718.501341 235.138672 
L 719.596103 235.138672 
L 719.596103 231.65836 
L 720.690866 231.65836 
L 720.690866 232.600945 
L 721.785629 232.600945 
L 721.785629 231.585854 
L 722.880391 231.585854 
L 722.880391 231.150815 
L 723.975154 231.150815 
L 723.975154 228.395568 
L 725.069916 228.395568 
L 725.069916 229.048126 
L 726.164679 229.048126 
L 726.164679 226.800425 
L 727.259441 226.800425 
L 727.259441 223.900165 
L 728.354204 223.900165 
L 728.354204 225.205282 
L 729.448966 225.205282 
L 729.448966 226.29288 
L 730.543729 226.29288 
L 730.543729 227.017945 
L 731.638491 227.017945 
L 731.638491 222.667555 
L 732.733254 222.667555 
L 732.733254 221.652464 
L 733.828016 221.652464 
L 733.828016 222.450035 
L 734.922779 222.450035 
L 734.922779 224.335204 
L 736.017541 224.335204 
L 736.017541 224.117685 
L 737.112304 224.117685 
L 737.112304 223.610139 
L 738.207066 223.610139 
L 738.207066 224.987763 
L 739.301829 224.987763 
L 739.301829 221.797477 
L 740.396592 221.797477 
L 740.396592 225.930347 
L 741.491354 225.930347 
L 741.491354 222.377529 
L 742.586117 222.377529 
L 742.586117 224.117685 
L 743.680879 224.117685 
L 743.680879 225.495308 
L 744.775642 225.495308 
L 744.775642 226.437893 
L 745.870404 226.437893 
L 745.870404 227.815516 
L 746.965167 227.815516 
L 746.965167 226.510399 
L 748.059929 226.510399 
L 748.059929 227.380477 
L 749.154692 227.380477 
L 749.154692 226.220373 
L 750.249454 226.220373 
L 750.249454 226.655412 
L 751.344217 226.655412 
L 751.344217 227.380477 
L 752.438979 227.380477 
L 752.438979 229.265646 
L 753.533742 229.265646 
L 753.533742 227.235464 
L 754.628504 227.235464 
L 754.628504 227.52549 
L 755.723267 227.52549 
L 755.723267 228.468074 
L 756.818029 228.468074 
L 756.818029 229.845698 
L 757.912792 229.845698 
L 757.912792 227.815516 
L 759.007555 227.815516 
L 759.007555 230.353243 
L 760.102317 230.353243 
L 760.102317 229.845698 
L 761.19708 229.845698 
L 761.19708 230.135724 
L 762.291842 230.135724 
L 762.291842 230.280737 
L 763.386605 230.280737 
L 763.386605 229.628178 
L 764.481367 229.628178 
L 764.481367 229.845698 
L 765.57613 229.845698 
L 765.57613 230.135724 
L 766.670892 230.135724 
L 766.670892 231.223321 
L 767.765655 231.223321 
L 767.765655 230.20823 
L 768.860417 230.20823 
L 768.860417 231.730867 
L 769.95518 231.730867 
L 769.95518 233.253503 
L 771.049942 233.253503 
L 771.049942 230.933295 
L 772.144705 230.933295 
L 772.144705 231.368334 
L 773.239467 231.368334 
L 773.239467 232.890971 
L 774.33423 232.890971 
L 774.33423 232.600945 
L 775.428993 232.600945 
L 775.428993 232.020893 
L 776.523755 232.020893 
L 776.523755 234.123581 
L 777.618518 234.123581 
L 777.618518 234.55862 
L 778.71328 234.55862 
L 778.71328 232.963477 
L 780.902805 232.890971 
L 780.902805 234.703633 
L 781.997568 234.703633 
L 781.997568 233.398516 
L 783.09233 233.398516 
L 783.09233 234.703633 
L 784.187093 234.703633 
L 784.187093 234.993659 
L 785.281855 234.993659 
L 785.281855 232.745958 
L 786.376618 232.745958 
L 786.376618 235.573711 
L 787.47138 235.573711 
L 787.47138 234.631127 
L 788.566143 234.631127 
L 788.566143 233.32601 
L 789.660905 233.32601 
L 789.660905 234.993659 
L 790.755668 234.993659 
L 790.755668 234.703633 
L 791.85043 234.703633 
L 791.85043 237.313867 
L 792.945193 237.313867 
L 792.945193 236.951335 
L 794.039956 236.951335 
L 794.039956 237.603893 
L 795.134718 237.603893 
L 795.134718 237.096348 
L 796.229481 237.096348 
L 796.229481 238.111438 
L 797.324243 238.111438 
L 797.324243 240.286633 
L 798.419006 240.286633 
L 798.419006 239.779088 
L 800.608531 239.851594 
L 800.608531 239.634075 
L 801.703293 239.634075 
L 801.703293 241.229218 
L 802.798056 241.229218 
L 802.798056 242.316815 
L 803.892818 242.316815 
L 803.892818 242.751854 
L 804.987581 242.751854 
L 804.987581 243.549426 
L 806.082343 243.549426 
L 806.082343 244.346997 
L 807.177106 244.346997 
L 807.177106 243.549426 
L 808.271868 243.549426 
L 808.271868 245.072062 
L 810.461393 245.144569 
L 810.461393 245.507101 
L 811.556156 245.507101 
L 811.556156 245.724621 
L 848.778082 245.797127 
L 848.778082 245.797127 
" clip-path="url(#p5559520476)" style="fill: none; stroke: #1f77b4; stroke-width: 1.5; stroke-linecap: square"/>
   </g>
   <g id="line2d_30">
    <path d="M 520.349323 245.724621 
L 524.728373 245.652114 
L 524.728373 245.579608 
L 525.823136 245.579608 
L 525.823136 245.434595 
L 526.917898 245.434595 
L 526.917898 245.579608 
L 529.107423 245.507101 
L 529.107423 245.217075 
L 530.202186 245.217075 
L 530.202186 245.362088 
L 531.296948 245.362088 
L 531.296948 245.144569 
L 532.391711 245.144569 
L 532.391711 244.854543 
L 534.581236 244.854543 
L 534.581236 244.637023 
L 535.675998 244.637023 
L 535.675998 244.129478 
L 536.770761 244.129478 
L 536.770761 244.274491 
L 537.865523 244.274491 
L 537.865523 243.186893 
L 538.960286 243.186893 
L 538.960286 243.549426 
L 540.055048 243.549426 
L 540.055048 241.881776 
L 541.149811 241.881776 
L 541.149811 240.504153 
L 542.244574 240.504153 
L 542.244574 240.939192 
L 543.339336 240.939192 
L 543.339336 239.706581 
L 544.434099 239.706581 
L 544.434099 237.748906 
L 545.528861 237.748906 
L 545.528861 233.616036 
L 546.623624 233.616036 
L 546.623624 234.268594 
L 547.718386 234.268594 
L 547.718386 230.42575 
L 548.813149 230.42575 
L 548.813149 224.62523 
L 549.907911 224.62523 
L 549.907911 222.305022 
L 551.002674 222.305022 
L 551.002674 219.839801 
L 552.097436 219.839801 
L 552.097436 217.447087 
L 553.192199 217.447087 
L 553.192199 217.012048 
L 554.286961 217.012048 
L 554.286961 218.82471 
L 555.381724 218.82471 
L 555.381724 225.132776 
L 556.476486 225.132776 
L 556.476486 240.35914 
L 557.571249 240.35914 
L 557.571249 245.797127 
L 563.045062 245.797127 
L 563.045062 245.579608 
L 564.139824 245.579608 
L 564.139824 245.434595 
L 566.329349 245.507101 
L 566.329349 245.144569 
L 567.424112 245.144569 
L 567.424112 244.70953 
L 568.518874 244.70953 
L 568.518874 243.984465 
L 569.613637 243.984465 
L 569.613637 242.389322 
L 570.708399 242.389322 
L 570.708399 241.011698 
L 571.803162 241.011698 
L 571.803162 237.966425 
L 572.897924 237.966425 
L 572.897924 233.616036 
L 573.992687 233.616036 
L 573.992687 226.800425 
L 575.087449 226.800425 
L 575.087449 215.779438 
L 576.182212 215.779438 
L 576.182212 195.332606 
L 577.276975 195.332606 
L 577.276975 175.900865 
L 578.371737 175.900865 
L 578.371737 155.816565 
L 579.4665 155.816565 
L 579.4665 138.777539 
L 580.561262 138.777539 
L 580.561262 123.623681 
L 581.656025 123.623681 
L 581.656025 109.339901 
L 582.750787 109.339901 
L 582.750787 93.098446 
L 583.84555 93.098446 
L 583.84555 79.612238 
L 584.940312 79.612238 
L 584.940312 65.328458 
L 586.035075 65.328458 
L 586.035075 45.244159 
L 587.129837 45.244159 
L 587.129837 44.519094 
L 588.2246 44.519094 
L 588.2246 25.739911 
L 589.319362 25.739911 
L 589.319362 19.214326 
L 590.414125 19.214326 
L 590.414125 21.389521 
L 591.508887 21.389521 
L 591.508887 18.561768 
L 592.60365 18.561768 
L 592.60365 19.431846 
L 593.698412 19.431846 
L 593.698412 24.434794 
L 594.793175 24.434794 
L 594.793175 35.310769 
L 595.887938 35.310769 
L 595.887938 55.177549 
L 596.9827 55.177549 
L 596.9827 64.240861 
L 598.077463 64.240861 
L 598.077463 71.926549 
L 599.172225 71.926549 
L 599.172225 90.270693 
L 600.266988 90.270693 
L 600.266988 100.05907 
L 601.36175 100.05907 
L 601.36175 112.965226 
L 602.456513 112.965226 
L 602.456513 127.249006 
L 603.551275 127.249006 
L 603.551275 134.862188 
L 604.646038 134.862188 
L 604.646038 154.801474 
L 605.7408 154.801474 
L 605.7408 162.559669 
L 606.835563 162.559669 
L 606.835563 178.873631 
L 607.930325 178.873631 
L 607.930325 189.532086 
L 609.025088 189.532086 
L 609.025088 204.613437 
L 610.11985 204.613437 
L 610.11985 212.226619 
L 611.214613 212.226619 
L 611.214613 222.160009 
L 612.309375 222.160009 
L 612.309375 229.628178 
L 613.404138 229.628178 
L 613.404138 237.531386 
L 614.498901 237.531386 
L 614.498901 243.549426 
L 615.593663 243.549426 
L 615.593663 245.579608 
L 616.688426 245.579608 
L 616.688426 245.797127 
L 625.446526 245.724621 
L 625.446526 245.579608 
L 626.541288 245.579608 
L 626.541288 245.724621 
L 630.920339 245.724621 
L 630.920339 245.362088 
L 632.015101 245.362088 
L 632.015101 245.724621 
L 633.109864 245.724621 
L 633.109864 245.434595 
L 635.299389 245.507101 
L 635.299389 244.927049 
L 636.394151 244.927049 
L 636.394151 245.144569 
L 637.488914 245.144569 
L 637.488914 244.927049 
L 639.678439 244.999556 
L 639.678439 244.637023 
L 640.773201 244.637023 
L 640.773201 244.999556 
L 641.867964 244.999556 
L 641.867964 244.637023 
L 642.962726 244.637023 
L 642.962726 241.59175 
L 644.057489 241.59175 
L 644.057489 238.981516 
L 645.152251 238.981516 
L 645.152251 236.878828 
L 646.247014 236.878828 
L 646.247014 236.371283 
L 647.341776 236.371283 
L 647.341776 235.791231 
L 648.436539 235.791231 
L 648.436539 236.661309 
L 649.531302 236.661309 
L 649.531302 238.69149 
L 650.626064 238.69149 
L 650.626064 239.489062 
L 651.720827 239.489062 
L 651.720827 241.084205 
L 652.815589 241.084205 
L 652.815589 241.519244 
L 653.910352 241.519244 
L 653.910352 243.694439 
L 655.005114 243.694439 
L 655.005114 245.144569 
L 656.099877 245.144569 
L 656.099877 245.797127 
L 685.658465 245.797127 
L 685.658465 245.652114 
L 687.84799 245.652114 
L 687.84799 245.507101 
L 688.942753 245.507101 
L 688.942753 245.144569 
L 690.037515 245.144569 
L 690.037515 244.564517 
L 691.132278 244.564517 
L 691.132278 244.346997 
L 692.22704 244.346997 
L 692.22704 243.476919 
L 693.321803 243.476919 
L 693.321803 241.954283 
L 694.416565 241.954283 
L 694.416565 240.35914 
L 695.511328 240.35914 
L 695.511328 238.038932 
L 696.60609 238.038932 
L 696.60609 236.00875 
L 697.700853 236.00875 
L 697.700853 232.310919 
L 698.795615 232.310919 
L 698.795615 231.223321 
L 699.890378 231.223321 
L 699.890378 231.65836 
L 700.98514 231.65836 
L 700.98514 228.468074 
L 702.079903 228.468074 
L 702.079903 227.670503 
L 703.174666 227.670503 
L 703.174666 225.712828 
L 704.269428 225.712828 
L 704.269428 220.782386 
L 705.364191 220.782386 
L 705.364191 222.812568 
L 706.458953 222.812568 
L 706.458953 220.129827 
L 707.553716 220.129827 
L 707.553716 219.114736 
L 708.648478 219.114736 
L 708.648478 215.996957 
L 709.743241 215.996957 
L 709.743241 217.737113 
L 710.838003 217.737113 
L 710.838003 216.14197 
L 711.932766 216.14197 
L 711.932766 215.199386 
L 713.027528 215.199386 
L 713.027528 215.996957 
L 714.122291 215.996957 
L 714.122291 219.04223 
L 715.217053 219.04223 
L 715.217053 224.045178 
L 716.311816 224.045178 
L 716.311816 222.160009 
L 717.406578 222.160009 
L 717.406578 225.712828 
L 719.596103 225.712828 
L 719.596103 228.395568 
L 720.690866 228.395568 
L 720.690866 231.803373 
L 721.785629 231.803373 
L 721.785629 233.543529 
L 722.880391 233.543529 
L 722.880391 235.718724 
L 723.975154 235.718724 
L 723.975154 236.951335 
L 725.069916 236.951335 
L 725.069916 237.966425 
L 726.164679 237.966425 
L 726.164679 240.069114 
L 727.259441 240.069114 
L 727.259441 240.794179 
L 728.354204 240.794179 
L 728.354204 241.156711 
L 729.448966 241.156711 
L 729.448966 243.04188 
L 730.543729 243.04188 
L 730.543729 243.911958 
L 731.638491 243.911958 
L 731.638491 244.927049 
L 732.733254 244.927049 
L 732.733254 245.579608 
L 733.828016 245.579608 
L 733.828016 245.797127 
L 788.566143 245.724621 
L 788.566143 245.652114 
L 789.660905 245.652114 
L 789.660905 245.507101 
L 790.755668 245.507101 
L 790.755668 245.652114 
L 791.85043 245.652114 
L 791.85043 244.854543 
L 792.945193 244.854543 
L 792.945193 244.637023 
L 794.039956 244.637023 
L 794.039956 243.621932 
L 795.134718 243.621932 
L 795.134718 243.984465 
L 796.229481 243.984465 
L 796.229481 242.751854 
L 797.324243 242.751854 
L 797.324243 242.534335 
L 798.419006 242.534335 
L 798.419006 242.316815 
L 800.608531 242.316815 
L 800.608531 242.461828 
L 802.798056 242.389322 
L 802.798056 240.14162 
L 803.892818 240.14162 
L 803.892818 240.866685 
L 804.987581 240.866685 
L 804.987581 241.736763 
L 806.082343 241.736763 
L 806.082343 240.866685 
L 807.177106 240.866685 
L 807.177106 240.214127 
L 808.271868 240.214127 
L 808.271868 239.924101 
L 809.366631 239.924101 
L 809.366631 240.431646 
L 810.461393 240.431646 
L 810.461393 238.618984 
L 811.556156 238.618984 
L 811.556156 239.271542 
L 812.650919 239.271542 
L 812.650919 239.489062 
L 814.840444 239.489062 
L 814.840444 240.794179 
L 815.935206 240.794179 
L 815.935206 240.504153 
L 817.029969 240.504153 
L 817.029969 241.156711 
L 818.124731 241.156711 
L 818.124731 241.954283 
L 819.219494 241.954283 
L 819.219494 242.099296 
L 820.314256 242.099296 
L 820.314256 242.461828 
L 821.409019 242.461828 
L 821.409019 241.519244 
L 822.503781 241.519244 
L 822.503781 242.316815 
L 823.598544 242.316815 
L 823.598544 242.461828 
L 825.788069 242.389322 
L 825.788069 242.751854 
L 826.882831 242.751854 
L 826.882831 242.606841 
L 827.977594 242.606841 
L 827.977594 243.114387 
L 831.261882 243.114387 
L 831.261882 243.766945 
L 832.356644 243.766945 
L 832.356644 244.129478 
L 833.451407 244.129478 
L 833.451407 244.346997 
L 834.546169 244.346997 
L 834.546169 243.694439 
L 835.640932 243.694439 
L 835.640932 244.782036 
L 836.735694 244.782036 
L 836.735694 244.056971 
L 837.830457 244.056971 
L 837.830457 245.289582 
L 838.925219 245.289582 
L 838.925219 244.854543 
L 840.019982 244.854543 
L 840.019982 244.637023 
L 842.209507 244.70953 
L 842.209507 245.217075 
L 843.304269 245.217075 
L 843.304269 245.434595 
L 846.588557 245.362088 
L 846.588557 245.652114 
L 848.778082 245.579608 
L 848.778082 245.579608 
" clip-path="url(#p5559520476)" style="fill: none; stroke: #808080; stroke-width: 1.5; stroke-linecap: square"/>
   </g>
   <g id="patch_9">
    <path d="M 503.927885 257.158895 
L 503.927885 7.2 
" style="fill: none; stroke: #000000; stroke-width: 0.8; stroke-linejoin: miter; stroke-linecap: square"/>
   </g>
   <g id="patch_10">
    <path d="M 865.19952 257.158895 
L 865.19952 7.2 
" style="fill: none; stroke: #000000; stroke-width: 0.8; stroke-linejoin: miter; stroke-linecap: square"/>
   </g>
   <g id="patch_11">
    <path d="M 503.927885 257.158895 
L 865.19952 257.158895 
" style="fill: none; stroke: #000000; stroke-width: 0.8; stroke-linejoin: miter; stroke-linecap: square"/>
   </g>
   <g id="patch_12">
    <path d="M 503.927885 7.2 
L 865.19952 7.2 
" style="fill: none; stroke: #000000; stroke-width: 0.8; stroke-linejoin: miter; stroke-linecap: square"/>
   </g>
   <g id="legend_2">
    <g id="patch_13">
     <path d="M 747.360457 44.55625 
L 858.19952 44.55625 
Q 860.19952 44.55625 860.19952 42.55625 
L 860.19952 14.2 
Q 860.19952 12.2 858.19952 12.2 
L 747.360457 12.2 
Q 745.360457 12.2 745.360457 14.2 
L 745.360457 42.55625 
Q 745.360457 44.55625 747.360457 44.55625 
z
" style="fill: #ffffff; opacity: 0.8; stroke: #cccccc; stroke-linejoin: miter"/>
    </g>
    <g id="line2d_31">
     <path d="M 749.360457 20.298437 
L 749.360457 20.298437 
L 759.360457 20.298437 
L 759.360457 20.298437 
L 769.360457 20.298437 
" style="fill: none; stroke: #1f77b4; stroke-width: 1.5; stroke-linecap: square"/>
    </g>
    <g id="text_31">
     <!-- pulse:0 -->
     <g transform="translate(777.360457 23.798437) scale(0.1 -0.1)">
      <use xlink:href="#DejaVuSans-70"/>
      <use xlink:href="#DejaVuSans-75" transform="translate(63.476562 0)"/>
      <use xlink:href="#DejaVuSans-6c" transform="translate(126.855469 0)"/>
      <use xlink:href="#DejaVuSans-73" transform="translate(154.638672 0)"/>
      <use xlink:href="#DejaVuSans-65" transform="translate(206.738281 0)"/>
      <use xlink:href="#DejaVuSans-3a" transform="translate(268.261719 0)"/>
      <use xlink:href="#DejaVuSans-30" transform="translate(301.953125 0)"/>
     </g>
    </g>
    <g id="line2d_32">
     <path d="M 749.360457 34.976562 
L 749.360457 34.976562 
L 759.360457 34.976562 
L 759.360457 34.976562 
L 769.360457 34.976562 
" style="fill: none; stroke: #808080; stroke-width: 1.5; stroke-linecap: square"/>
    </g>
    <g id="text_32">
     <!-- blocked-pulse:0 -->
     <g transform="translate(777.360457 38.476562) scale(0.1 -0.1)">
      <use xlink:href="#DejaVuSans-62"/>
      <use xlink:href="#DejaVuSans-6c" transform="translate(63.476562 0)"/>
      <use xlink:href="#DejaVuSans-6f" transform="translate(91.259766 0)"/>
      <use xlink:href="#DejaVuSans-63" transform="translate(152.441406 0)"/>
      <use xlink:href="#DejaVuSans-6b" transform="translate(207.421875 0)"/>
      <use xlink:href="#DejaVuSans-65" transform="translate(261.707031 0)"/>
      <use xlink:href="#DejaVuSans-64" transform="translate(323.230469 0)"/>
      <use xlink:href="#DejaVuSans-2d" transform="translate(386.707031 0)"/>
      <use xlink:href="#DejaVuSans-70" transform="translate(422.791016 0)"/>
      <use xlink:href="#DejaVuSans-75" transform="translate(486.267578 0)"/>
      <use xlink:href="#DejaVuSans-6c" transform="translate(549.646484 0)"/>
      <use xlink:href="#DejaVuSans-73" transform="translate(577.429688 0)"/>
      <use xlink:href="#DejaVuSans-65" transform="translate(629.529297 0)"/>
      <use xlink:href="#DejaVuSans-3a" transform="translate(691.052734 0)"/>
      <use xlink:href="#DejaVuSans-30" transform="translate(724.744141 0)"/>
     </g>
    </g>
   </g>
  </g>
 </g>
 <defs>
  <clipPath id="pfa83702655">
   <rect x="53.328125" y="7.2" width="361.271635" height="249.958895"/>
  </clipPath>
  <clipPath id="p5559520476">
   <rect x="503.927885" y="7.2" width="361.271635" height="249.958895"/>
  </clipPath>
 </defs>
</svg>
