<?xml version="1.0" encoding="utf-8" standalone="no"?>
<!DOCTYPE svg PUBLIC "-//W3C//DTD SVG 1.1//EN"
  "http://www.w3.org/Graphics/SVG/1.1/DTD/svg11.dtd">
<svg xmlns:xlink="http://www.w3.org/1999/xlink" width="395.328125pt" height="266.51625pt" viewBox="0 0 395.328125 266.51625" xmlns="http://www.w3.org/2000/svg" version="1.1">
 <metadata>
  <rdf:RDF xmlns:dc="http://purl.org/dc/elements/1.1/" xmlns:cc="http://creativecommons.org/ns#" xmlns:rdf="http://www.w3.org/1999/02/22-rdf-syntax-ns#">
   <cc:Work>
    <dc:type rdf:resource="http://purl.org/dc/dcmitype/StillImage"/>
    <dc:date>2025-10-10T17:28:17.095823</dc:date>
    <dc:format>image/svg+xml</dc:format>
    <dc:creator>
     <cc:Agent>
      <dc:title>Matplotlib v3.10.6, https://matplotlib.org/</dc:title>
     </cc:Agent>
    </dc:creator>
   </cc:Work>
  </rdf:RDF>
 </metadata>
 <defs>
  <style type="text/css">*{stroke-linejoin: round; stroke-linecap: butt}</style>
 </defs>
 <g id="figure_1">
  <g id="patch_1">
   <path d="M 0 266.51625 
L 395.328125 266.51625 
L 395.328125 0 
L 0 0 
z
" style="fill: #ffffff"/>
  </g>
  <g id="axes_1">
   <g id="patch_2">
    <path d="M 53.328125 228.96 
L 388.128125 228.96 
L 388.128125 7.2 
L 53.328125 7.2 
z
" style="fill: #ffffff"/>
   </g>
   <g id="matplotlib.axis_1">
    <g id="xtick_1">
     <g id="line2d_1">
      <defs>
       <path id="m2eb6eea219" d="M 0 0 
L 0 3.5 
" style="stroke: #000000; stroke-width: 0.8"/>
      </defs>
      <g>
       <use xlink:href="#m2eb6eea219" x="78.980507" y="228.96" style="stroke: #000000; stroke-width: 0.8"/>
      </g>
     </g>
     <g id="text_1">
      <!-- 20000 -->
      <g transform="translate(63.074257 243.558437) scale(0.1 -0.1)">
       <defs>
        <path id="DejaVuSans-32" d="M 1228 531 
L 3431 531 
L 3431 0 
L 469 0 
L 469 531 
Q 828 903 1448 1529 
Q 2069 2156 2228 2338 
Q 2531 2678 2651 2914 
Q 2772 3150 2772 3378 
Q 2772 3750 2511 3984 
Q 2250 4219 1831 4219 
Q 1534 4219 1204 4116 
Q 875 4013 500 3803 
L 500 4441 
Q 881 4594 1212 4672 
Q 1544 4750 1819 4750 
Q 2544 4750 2975 4387 
Q 3406 4025 3406 3419 
Q 3406 3131 3298 2873 
Q 3191 2616 2906 2266 
Q 2828 2175 2409 1742 
Q 1991 1309 1228 531 
z
" transform="scale(0.015625)"/>
        <path id="DejaVuSans-30" d="M 2034 4250 
Q 1547 4250 1301 3770 
Q 1056 3291 1056 2328 
Q 1056 1369 1301 889 
Q 1547 409 2034 409 
Q 2525 409 2770 889 
Q 3016 1369 3016 2328 
Q 3016 3291 2770 3770 
Q 2525 4250 2034 4250 
z
M 2034 4750 
Q 2819 4750 3233 4129 
Q 3647 3509 3647 2328 
Q 3647 1150 3233 529 
Q 2819 -91 2034 -91 
Q 1250 -91 836 529 
Q 422 1150 422 2328 
Q 422 3509 836 4129 
Q 1250 4750 2034 4750 
z
" transform="scale(0.015625)"/>
       </defs>
       <use xlink:href="#DejaVuSans-32"/>
       <use xlink:href="#DejaVuSans-30" transform="translate(63.623047 0)"/>
       <use xlink:href="#DejaVuSans-30" transform="translate(127.246094 0)"/>
       <use xlink:href="#DejaVuSans-30" transform="translate(190.869141 0)"/>
       <use xlink:href="#DejaVuSans-30" transform="translate(254.492188 0)"/>
      </g>
     </g>
    </g>
    <g id="xtick_2">
     <g id="line2d_2">
      <g>
       <use xlink:href="#m2eb6eea219" x="125.496941" y="228.96" style="stroke: #000000; stroke-width: 0.8"/>
      </g>
     </g>
     <g id="text_2">
      <!-- 30000 -->
      <g transform="translate(109.590691 243.558437) scale(0.1 -0.1)">
       <defs>
        <path id="DejaVuSans-33" d="M 2597 2516 
Q 3050 2419 3304 2112 
Q 3559 1806 3559 1356 
Q 3559 666 3084 287 
Q 2609 -91 1734 -91 
Q 1441 -91 1130 -33 
Q 819 25 488 141 
L 488 750 
Q 750 597 1062 519 
Q 1375 441 1716 441 
Q 2309 441 2620 675 
Q 2931 909 2931 1356 
Q 2931 1769 2642 2001 
Q 2353 2234 1838 2234 
L 1294 2234 
L 1294 2753 
L 1863 2753 
Q 2328 2753 2575 2939 
Q 2822 3125 2822 3475 
Q 2822 3834 2567 4026 
Q 2313 4219 1838 4219 
Q 1578 4219 1281 4162 
Q 984 4106 628 3988 
L 628 4550 
Q 988 4650 1302 4700 
Q 1616 4750 1894 4750 
Q 2613 4750 3031 4423 
Q 3450 4097 3450 3541 
Q 3450 3153 3228 2886 
Q 3006 2619 2597 2516 
z
" transform="scale(0.015625)"/>
       </defs>
       <use xlink:href="#DejaVuSans-33"/>
       <use xlink:href="#DejaVuSans-30" transform="translate(63.623047 0)"/>
       <use xlink:href="#DejaVuSans-30" transform="translate(127.246094 0)"/>
       <use xlink:href="#DejaVuSans-30" transform="translate(190.869141 0)"/>
       <use xlink:href="#DejaVuSans-30" transform="translate(254.492188 0)"/>
      </g>
     </g>
    </g>
    <g id="xtick_3">
     <g id="line2d_3">
      <g>
       <use xlink:href="#m2eb6eea219" x="172.013375" y="228.96" style="stroke: #000000; stroke-width: 0.8"/>
      </g>
     </g>
     <g id="text_3">
      <!-- 40000 -->
      <g transform="translate(156.107125 243.558437) scale(0.1 -0.1)">
       <defs>
        <path id="DejaVuSans-34" d="M 2419 4116 
L 825 1625 
L 2419 1625 
L 2419 4116 
z
M 2253 4666 
L 3047 4666 
L 3047 1625 
L 3713 1625 
L 3713 1100 
L 3047 1100 
L 3047 0 
L 2419 0 
L 2419 1100 
L 313 1100 
L 313 1709 
L 2253 4666 
z
" transform="scale(0.015625)"/>
       </defs>
       <use xlink:href="#DejaVuSans-34"/>
       <use xlink:href="#DejaVuSans-30" transform="translate(63.623047 0)"/>
       <use xlink:href="#DejaVuSans-30" transform="translate(127.246094 0)"/>
       <use xlink:href="#DejaVuSans-30" transform="translate(190.869141 0)"/>
       <use xlink:href="#DejaVuSans-30" transform="translate(254.492188 0)"/>
      </g>
     </g>
    </g>
    <g id="xtick_4">
     <g id="line2d_4">
      <g>
       <use xlink:href="#m2eb6eea219" x="218.529809" y="228.96" style="stroke: #000000; stroke-width: 0.8"/>
      </g>
     </g>
     <g id="text_4">
      <!-- 50000 -->
      <g transform="translate(202.623559 243.558437) scale(0.1 -0.1)">
       <defs>
        <path id="DejaVuSans-35" d="M 691 4666 
L 3169 4666 
L 3169 4134 
L 1269 4134 
L 1269 2991 
Q 1406 3038 1543 3061 
Q 1681 3084 1819 3084 
Q 2600 3084 3056 2656 
Q 3513 2228 3513 1497 
Q 3513 744 3044 326 
Q 2575 -91 1722 -91 
Q 1428 -91 1123 -41 
Q 819 9 494 109 
L 494 744 
Q 775 591 1075 516 
Q 1375 441 1709 441 
Q 2250 441 2565 725 
Q 2881 1009 2881 1497 
Q 2881 1984 2565 2268 
Q 2250 2553 1709 2553 
Q 1456 2553 1204 2497 
Q 953 2441 691 2322 
L 691 4666 
z
" transform="scale(0.015625)"/>
       </defs>
       <use xlink:href="#DejaVuSans-35"/>
       <use xlink:href="#DejaVuSans-30" transform="translate(63.623047 0)"/>
       <use xlink:href="#DejaVuSans-30" transform="translate(127.246094 0)"/>
       <use xlink:href="#DejaVuSans-30" transform="translate(190.869141 0)"/>
       <use xlink:href="#DejaVuSans-30" transform="translate(254.492188 0)"/>
      </g>
     </g>
    </g>
    <g id="xtick_5">
     <g id="line2d_5">
      <g>
       <use xlink:href="#m2eb6eea219" x="265.046243" y="228.96" style="stroke: #000000; stroke-width: 0.8"/>
      </g>
     </g>
     <g id="text_5">
      <!-- 60000 -->
      <g transform="translate(249.139993 243.558437) scale(0.1 -0.1)">
       <defs>
        <path id="DejaVuSans-36" d="M 2113 2584 
Q 1688 2584 1439 2293 
Q 1191 2003 1191 1497 
Q 1191 994 1439 701 
Q 1688 409 2113 409 
Q 2538 409 2786 701 
Q 3034 994 3034 1497 
Q 3034 2003 2786 2293 
Q 2538 2584 2113 2584 
z
M 3366 4563 
L 3366 3988 
Q 3128 4100 2886 4159 
Q 2644 4219 2406 4219 
Q 1781 4219 1451 3797 
Q 1122 3375 1075 2522 
Q 1259 2794 1537 2939 
Q 1816 3084 2150 3084 
Q 2853 3084 3261 2657 
Q 3669 2231 3669 1497 
Q 3669 778 3244 343 
Q 2819 -91 2113 -91 
Q 1303 -91 875 529 
Q 447 1150 447 2328 
Q 447 3434 972 4092 
Q 1497 4750 2381 4750 
Q 2619 4750 2861 4703 
Q 3103 4656 3366 4563 
z
" transform="scale(0.015625)"/>
       </defs>
       <use xlink:href="#DejaVuSans-36"/>
       <use xlink:href="#DejaVuSans-30" transform="translate(63.623047 0)"/>
       <use xlink:href="#DejaVuSans-30" transform="translate(127.246094 0)"/>
       <use xlink:href="#DejaVuSans-30" transform="translate(190.869141 0)"/>
       <use xlink:href="#DejaVuSans-30" transform="translate(254.492188 0)"/>
      </g>
     </g>
    </g>
    <g id="xtick_6">
     <g id="line2d_6">
      <g>
       <use xlink:href="#m2eb6eea219" x="311.562677" y="228.96" style="stroke: #000000; stroke-width: 0.8"/>
      </g>
     </g>
     <g id="text_6">
      <!-- 70000 -->
      <g transform="translate(295.656427 243.558437) scale(0.1 -0.1)">
       <defs>
        <path id="DejaVuSans-37" d="M 525 4666 
L 3525 4666 
L 3525 4397 
L 1831 0 
L 1172 0 
L 2766 4134 
L 525 4134 
L 525 4666 
z
" transform="scale(0.015625)"/>
       </defs>
       <use xlink:href="#DejaVuSans-37"/>
       <use xlink:href="#DejaVuSans-30" transform="translate(63.623047 0)"/>
       <use xlink:href="#DejaVuSans-30" transform="translate(127.246094 0)"/>
       <use xlink:href="#DejaVuSans-30" transform="translate(190.869141 0)"/>
       <use xlink:href="#DejaVuSans-30" transform="translate(254.492188 0)"/>
      </g>
     </g>
    </g>
    <g id="xtick_7">
     <g id="line2d_7">
      <g>
       <use xlink:href="#m2eb6eea219" x="358.079111" y="228.96" style="stroke: #000000; stroke-width: 0.8"/>
      </g>
     </g>
     <g id="text_7">
      <!-- 80000 -->
      <g transform="translate(342.172861 243.558437) scale(0.1 -0.1)">
       <defs>
        <path id="DejaVuSans-38" d="M 2034 2216 
Q 1584 2216 1326 1975 
Q 1069 1734 1069 1313 
Q 1069 891 1326 650 
Q 1584 409 2034 409 
Q 2484 409 2743 651 
Q 3003 894 3003 1313 
Q 3003 1734 2745 1975 
Q 2488 2216 2034 2216 
z
M 1403 2484 
Q 997 2584 770 2862 
Q 544 3141 544 3541 
Q 544 4100 942 4425 
Q 1341 4750 2034 4750 
Q 2731 4750 3128 4425 
Q 3525 4100 3525 3541 
Q 3525 3141 3298 2862 
Q 3072 2584 2669 2484 
Q 3125 2378 3379 2068 
Q 3634 1759 3634 1313 
Q 3634 634 3220 271 
Q 2806 -91 2034 -91 
Q 1263 -91 848 271 
Q 434 634 434 1313 
Q 434 1759 690 2068 
Q 947 2378 1403 2484 
z
M 1172 3481 
Q 1172 3119 1398 2916 
Q 1625 2713 2034 2713 
Q 2441 2713 2670 2916 
Q 2900 3119 2900 3481 
Q 2900 3844 2670 4047 
Q 2441 4250 2034 4250 
Q 1625 4250 1398 4047 
Q 1172 3844 1172 3481 
z
" transform="scale(0.015625)"/>
       </defs>
       <use xlink:href="#DejaVuSans-38"/>
       <use xlink:href="#DejaVuSans-30" transform="translate(63.623047 0)"/>
       <use xlink:href="#DejaVuSans-30" transform="translate(127.246094 0)"/>
       <use xlink:href="#DejaVuSans-30" transform="translate(190.869141 0)"/>
       <use xlink:href="#DejaVuSans-30" transform="translate(254.492188 0)"/>
      </g>
     </g>
    </g>
    <g id="text_8">
     <!-- toa [µs] -->
     <g transform="translate(201.367969 257.236562) scale(0.1 -0.1)">
      <defs>
       <path id="DejaVuSans-74" d="M 1172 4494 
L 1172 3500 
L 2356 3500 
L 2356 3053 
L 1172 3053 
L 1172 1153 
Q 1172 725 1289 603 
Q 1406 481 1766 481 
L 2356 481 
L 2356 0 
L 1766 0 
Q 1100 0 847 248 
Q 594 497 594 1153 
L 594 3053 
L 172 3053 
L 172 3500 
L 594 3500 
L 594 4494 
L 1172 4494 
z
" transform="scale(0.015625)"/>
       <path id="DejaVuSans-6f" d="M 1959 3097 
Q 1497 3097 1228 2736 
Q 959 2375 959 1747 
Q 959 1119 1226 758 
Q 1494 397 1959 397 
Q 2419 397 2687 759 
Q 2956 1122 2956 1747 
Q 2956 2369 2687 2733 
Q 2419 3097 1959 3097 
z
M 1959 3584 
Q 2709 3584 3137 3096 
Q 3566 2609 3566 1747 
Q 3566 888 3137 398 
Q 2709 -91 1959 -91 
Q 1206 -91 779 398 
Q 353 888 353 1747 
Q 353 2609 779 3096 
Q 1206 3584 1959 3584 
z
" transform="scale(0.015625)"/>
       <path id="DejaVuSans-61" d="M 2194 1759 
Q 1497 1759 1228 1600 
Q 959 1441 959 1056 
Q 959 750 1161 570 
Q 1363 391 1709 391 
Q 2188 391 2477 730 
Q 2766 1069 2766 1631 
L 2766 1759 
L 2194 1759 
z
M 3341 1997 
L 3341 0 
L 2766 0 
L 2766 531 
Q 2569 213 2275 61 
Q 1981 -91 1556 -91 
Q 1019 -91 701 211 
Q 384 513 384 1019 
Q 384 1609 779 1909 
Q 1175 2209 1959 2209 
L 2766 2209 
L 2766 2266 
Q 2766 2663 2505 2880 
Q 2244 3097 1772 3097 
Q 1472 3097 1187 3025 
Q 903 2953 641 2809 
L 641 3341 
Q 956 3463 1253 3523 
Q 1550 3584 1831 3584 
Q 2591 3584 2966 3190 
Q 3341 2797 3341 1997 
z
" transform="scale(0.015625)"/>
       <path id="DejaVuSans-20" transform="scale(0.015625)"/>
       <path id="DejaVuSans-5b" d="M 550 4863 
L 1875 4863 
L 1875 4416 
L 1125 4416 
L 1125 -397 
L 1875 -397 
L 1875 -844 
L 550 -844 
L 550 4863 
z
" transform="scale(0.015625)"/>
       <path id="DejaVuSans-b5" d="M 544 -1331 
L 544 3500 
L 1119 3500 
L 1119 1325 
Q 1119 872 1334 640 
Q 1550 409 1972 409 
Q 2434 409 2667 671 
Q 2900 934 2900 1459 
L 2900 3500 
L 3475 3500 
L 3475 806 
Q 3475 619 3529 530 
Q 3584 441 3700 441 
Q 3728 441 3778 458 
Q 3828 475 3916 513 
L 3916 50 
Q 3788 -22 3673 -56 
Q 3559 -91 3450 -91 
Q 3234 -91 3106 31 
Q 2978 153 2931 403 
Q 2775 156 2548 32 
Q 2322 -91 2016 -91 
Q 1697 -91 1473 31 
Q 1250 153 1119 397 
L 1119 -1331 
L 544 -1331 
z
" transform="scale(0.015625)"/>
       <path id="DejaVuSans-73" d="M 2834 3397 
L 2834 2853 
Q 2591 2978 2328 3040 
Q 2066 3103 1784 3103 
Q 1356 3103 1142 2972 
Q 928 2841 928 2578 
Q 928 2378 1081 2264 
Q 1234 2150 1697 2047 
L 1894 2003 
Q 2506 1872 2764 1633 
Q 3022 1394 3022 966 
Q 3022 478 2636 193 
Q 2250 -91 1575 -91 
Q 1294 -91 989 -36 
Q 684 19 347 128 
L 347 722 
Q 666 556 975 473 
Q 1284 391 1588 391 
Q 1994 391 2212 530 
Q 2431 669 2431 922 
Q 2431 1156 2273 1281 
Q 2116 1406 1581 1522 
L 1381 1569 
Q 847 1681 609 1914 
Q 372 2147 372 2553 
Q 372 3047 722 3315 
Q 1072 3584 1716 3584 
Q 2034 3584 2315 3537 
Q 2597 3491 2834 3397 
z
" transform="scale(0.015625)"/>
       <path id="DejaVuSans-5d" d="M 1947 4863 
L 1947 -844 
L 622 -844 
L 622 -397 
L 1369 -397 
L 1369 4416 
L 622 4416 
L 622 4863 
L 1947 4863 
z
" transform="scale(0.015625)"/>
      </defs>
      <use xlink:href="#DejaVuSans-74"/>
      <use xlink:href="#DejaVuSans-6f" transform="translate(39.208984 0)"/>
      <use xlink:href="#DejaVuSans-61" transform="translate(100.390625 0)"/>
      <use xlink:href="#DejaVuSans-20" transform="translate(161.669922 0)"/>
      <use xlink:href="#DejaVuSans-5b" transform="translate(193.457031 0)"/>
      <use xlink:href="#DejaVuSans-b5" transform="translate(232.470703 0)"/>
      <use xlink:href="#DejaVuSans-73" transform="translate(296.09375 0)"/>
      <use xlink:href="#DejaVuSans-5d" transform="translate(348.193359 0)"/>
     </g>
    </g>
   </g>
   <g id="matplotlib.axis_2">
    <g id="ytick_1">
     <g id="line2d_8">
      <defs>
       <path id="m1d0df43667" d="M 0 0 
L -3.5 0 
" style="stroke: #000000; stroke-width: 0.8"/>
      </defs>
      <g>
       <use xlink:href="#m1d0df43667" x="53.328125" y="218.88" style="stroke: #000000; stroke-width: 0.8"/>
      </g>
     </g>
     <g id="text_9">
      <!-- 0 -->
      <g transform="translate(39.965625 222.679219) scale(0.1 -0.1)">
       <use xlink:href="#DejaVuSans-30"/>
      </g>
     </g>
    </g>
    <g id="ytick_2">
     <g id="line2d_9">
      <g>
       <use xlink:href="#m1d0df43667" x="53.328125" y="189.552098" style="stroke: #000000; stroke-width: 0.8"/>
      </g>
     </g>
     <g id="text_10">
      <!-- 500 -->
      <g transform="translate(27.240625 193.351317) scale(0.1 -0.1)">
       <use xlink:href="#DejaVuSans-35"/>
       <use xlink:href="#DejaVuSans-30" transform="translate(63.623047 0)"/>
       <use xlink:href="#DejaVuSans-30" transform="translate(127.246094 0)"/>
      </g>
     </g>
    </g>
    <g id="ytick_3">
     <g id="line2d_10">
      <g>
       <use xlink:href="#m1d0df43667" x="53.328125" y="160.224196" style="stroke: #000000; stroke-width: 0.8"/>
      </g>
     </g>
     <g id="text_11">
      <!-- 1000 -->
      <g transform="translate(20.878125 164.023414) scale(0.1 -0.1)">
       <defs>
        <path id="DejaVuSans-31" d="M 794 531 
L 1825 531 
L 1825 4091 
L 703 3866 
L 703 4441 
L 1819 4666 
L 2450 4666 
L 2450 531 
L 3481 531 
L 3481 0 
L 794 0 
L 794 531 
z
" transform="scale(0.015625)"/>
       </defs>
       <use xlink:href="#DejaVuSans-31"/>
       <use xlink:href="#DejaVuSans-30" transform="translate(63.623047 0)"/>
       <use xlink:href="#DejaVuSans-30" transform="translate(127.246094 0)"/>
       <use xlink:href="#DejaVuSans-30" transform="translate(190.869141 0)"/>
      </g>
     </g>
    </g>
    <g id="ytick_4">
     <g id="line2d_11">
      <g>
       <use xlink:href="#m1d0df43667" x="53.328125" y="130.896293" style="stroke: #000000; stroke-width: 0.8"/>
      </g>
     </g>
     <g id="text_12">
      <!-- 1500 -->
      <g transform="translate(20.878125 134.695512) scale(0.1 -0.1)">
       <use xlink:href="#DejaVuSans-31"/>
       <use xlink:href="#DejaVuSans-35" transform="translate(63.623047 0)"/>
       <use xlink:href="#DejaVuSans-30" transform="translate(127.246094 0)"/>
       <use xlink:href="#DejaVuSans-30" transform="translate(190.869141 0)"/>
      </g>
     </g>
    </g>
    <g id="ytick_5">
     <g id="line2d_12">
      <g>
       <use xlink:href="#m1d0df43667" x="53.328125" y="101.568391" style="stroke: #000000; stroke-width: 0.8"/>
      </g>
     </g>
     <g id="text_13">
      <!-- 2000 -->
      <g transform="translate(20.878125 105.36761) scale(0.1 -0.1)">
       <use xlink:href="#DejaVuSans-32"/>
       <use xlink:href="#DejaVuSans-30" transform="translate(63.623047 0)"/>
       <use xlink:href="#DejaVuSans-30" transform="translate(127.246094 0)"/>
       <use xlink:href="#DejaVuSans-30" transform="translate(190.869141 0)"/>
      </g>
     </g>
    </g>
    <g id="ytick_6">
     <g id="line2d_13">
      <g>
       <use xlink:href="#m1d0df43667" x="53.328125" y="72.240489" style="stroke: #000000; stroke-width: 0.8"/>
      </g>
     </g>
     <g id="text_14">
      <!-- 2500 -->
      <g transform="translate(20.878125 76.039708) scale(0.1 -0.1)">
       <use xlink:href="#DejaVuSans-32"/>
       <use xlink:href="#DejaVuSans-35" transform="translate(63.623047 0)"/>
       <use xlink:href="#DejaVuSans-30" transform="translate(127.246094 0)"/>
       <use xlink:href="#DejaVuSans-30" transform="translate(190.869141 0)"/>
      </g>
     </g>
    </g>
    <g id="ytick_7">
     <g id="line2d_14">
      <g>
       <use xlink:href="#m1d0df43667" x="53.328125" y="42.912587" style="stroke: #000000; stroke-width: 0.8"/>
      </g>
     </g>
     <g id="text_15">
      <!-- 3000 -->
      <g transform="translate(20.878125 46.711805) scale(0.1 -0.1)">
       <use xlink:href="#DejaVuSans-33"/>
       <use xlink:href="#DejaVuSans-30" transform="translate(63.623047 0)"/>
       <use xlink:href="#DejaVuSans-30" transform="translate(127.246094 0)"/>
       <use xlink:href="#DejaVuSans-30" transform="translate(190.869141 0)"/>
      </g>
     </g>
    </g>
    <g id="ytick_8">
     <g id="line2d_15">
      <g>
       <use xlink:href="#m1d0df43667" x="53.328125" y="13.584684" style="stroke: #000000; stroke-width: 0.8"/>
      </g>
     </g>
     <g id="text_16">
      <!-- 3500 -->
      <g transform="translate(20.878125 17.383903) scale(0.1 -0.1)">
       <use xlink:href="#DejaVuSans-33"/>
       <use xlink:href="#DejaVuSans-35" transform="translate(63.623047 0)"/>
       <use xlink:href="#DejaVuSans-30" transform="translate(127.246094 0)"/>
       <use xlink:href="#DejaVuSans-30" transform="translate(190.869141 0)"/>
      </g>
     </g>
    </g>
    <g id="text_17">
     <!-- pulse:0 [counts] -->
     <g transform="translate(14.798438 158.560469) rotate(-90) scale(0.1 -0.1)">
      <defs>
       <path id="DejaVuSans-70" d="M 1159 525 
L 1159 -1331 
L 581 -1331 
L 581 3500 
L 1159 3500 
L 1159 2969 
Q 1341 3281 1617 3432 
Q 1894 3584 2278 3584 
Q 2916 3584 3314 3078 
Q 3713 2572 3713 1747 
Q 3713 922 3314 415 
Q 2916 -91 2278 -91 
Q 1894 -91 1617 61 
Q 1341 213 1159 525 
z
M 3116 1747 
Q 3116 2381 2855 2742 
Q 2594 3103 2138 3103 
Q 1681 3103 1420 2742 
Q 1159 2381 1159 1747 
Q 1159 1113 1420 752 
Q 1681 391 2138 391 
Q 2594 391 2855 752 
Q 3116 1113 3116 1747 
z
" transform="scale(0.015625)"/>
       <path id="DejaVuSans-75" d="M 544 1381 
L 544 3500 
L 1119 3500 
L 1119 1403 
Q 1119 906 1312 657 
Q 1506 409 1894 409 
Q 2359 409 2629 706 
Q 2900 1003 2900 1516 
L 2900 3500 
L 3475 3500 
L 3475 0 
L 2900 0 
L 2900 538 
Q 2691 219 2414 64 
Q 2138 -91 1772 -91 
Q 1169 -91 856 284 
Q 544 659 544 1381 
z
M 1991 3584 
L 1991 3584 
z
" transform="scale(0.015625)"/>
       <path id="DejaVuSans-6c" d="M 603 4863 
L 1178 4863 
L 1178 0 
L 603 0 
L 603 4863 
z
" transform="scale(0.015625)"/>
       <path id="DejaVuSans-65" d="M 3597 1894 
L 3597 1613 
L 953 1613 
Q 991 1019 1311 708 
Q 1631 397 2203 397 
Q 2534 397 2845 478 
Q 3156 559 3463 722 
L 3463 178 
Q 3153 47 2828 -22 
Q 2503 -91 2169 -91 
Q 1331 -91 842 396 
Q 353 884 353 1716 
Q 353 2575 817 3079 
Q 1281 3584 2069 3584 
Q 2775 3584 3186 3129 
Q 3597 2675 3597 1894 
z
M 3022 2063 
Q 3016 2534 2758 2815 
Q 2500 3097 2075 3097 
Q 1594 3097 1305 2825 
Q 1016 2553 972 2059 
L 3022 2063 
z
" transform="scale(0.015625)"/>
       <path id="DejaVuSans-3a" d="M 750 794 
L 1409 794 
L 1409 0 
L 750 0 
L 750 794 
z
M 750 3309 
L 1409 3309 
L 1409 2516 
L 750 2516 
L 750 3309 
z
" transform="scale(0.015625)"/>
       <path id="DejaVuSans-63" d="M 3122 3366 
L 3122 2828 
Q 2878 2963 2633 3030 
Q 2388 3097 2138 3097 
Q 1578 3097 1268 2742 
Q 959 2388 959 1747 
Q 959 1106 1268 751 
Q 1578 397 2138 397 
Q 2388 397 2633 464 
Q 2878 531 3122 666 
L 3122 134 
Q 2881 22 2623 -34 
Q 2366 -91 2075 -91 
Q 1284 -91 818 406 
Q 353 903 353 1747 
Q 353 2603 823 3093 
Q 1294 3584 2113 3584 
Q 2378 3584 2631 3529 
Q 2884 3475 3122 3366 
z
" transform="scale(0.015625)"/>
       <path id="DejaVuSans-6e" d="M 3513 2113 
L 3513 0 
L 2938 0 
L 2938 2094 
Q 2938 2591 2744 2837 
Q 2550 3084 2163 3084 
Q 1697 3084 1428 2787 
Q 1159 2491 1159 1978 
L 1159 0 
L 581 0 
L 581 3500 
L 1159 3500 
L 1159 2956 
Q 1366 3272 1645 3428 
Q 1925 3584 2291 3584 
Q 2894 3584 3203 3211 
Q 3513 2838 3513 2113 
z
" transform="scale(0.015625)"/>
      </defs>
      <use xlink:href="#DejaVuSans-70"/>
      <use xlink:href="#DejaVuSans-75" transform="translate(63.476562 0)"/>
      <use xlink:href="#DejaVuSans-6c" transform="translate(126.855469 0)"/>
      <use xlink:href="#DejaVuSans-73" transform="translate(154.638672 0)"/>
      <use xlink:href="#DejaVuSans-65" transform="translate(206.738281 0)"/>
      <use xlink:href="#DejaVuSans-3a" transform="translate(268.261719 0)"/>
      <use xlink:href="#DejaVuSans-30" transform="translate(301.953125 0)"/>
      <use xlink:href="#DejaVuSans-20" transform="translate(365.576172 0)"/>
      <use xlink:href="#DejaVuSans-5b" transform="translate(397.363281 0)"/>
      <use xlink:href="#DejaVuSans-63" transform="translate(436.376953 0)"/>
      <use xlink:href="#DejaVuSans-6f" transform="translate(491.357422 0)"/>
      <use xlink:href="#DejaVuSans-75" transform="translate(552.539062 0)"/>
      <use xlink:href="#DejaVuSans-6e" transform="translate(615.917969 0)"/>
      <use xlink:href="#DejaVuSans-74" transform="translate(679.296875 0)"/>
      <use xlink:href="#DejaVuSans-73" transform="translate(718.505859 0)"/>
      <use xlink:href="#DejaVuSans-5d" transform="translate(770.605469 0)"/>
     </g>
    </g>
   </g>
   <g id="line2d_16">
    <path d="M 68.546307 218.821344 
L 74.63358 218.762688 
L 74.63358 218.410754 
L 75.648125 218.410754 
L 75.648125 218.293442 
L 77.677216 218.352098 
L 77.677216 218.469409 
L 78.691761 218.469409 
L 78.691761 217.882851 
L 79.706307 217.882851 
L 79.706307 217.296293 
L 80.720852 217.296293 
L 80.720852 217.76554 
L 81.735398 217.76554 
L 81.735398 216.651079 
L 82.749943 216.651079 
L 82.749943 216.123177 
L 83.764489 216.123177 
L 83.764489 215.712587 
L 84.779034 215.712587 
L 84.779034 215.536619 
L 85.79358 215.536619 
L 85.79358 212.779796 
L 86.808125 212.779796 
L 86.808125 211.723992 
L 87.82267 211.723992 
L 87.82267 208.556578 
L 88.837216 208.556578 
L 88.837216 205.623788 
L 89.851761 205.623788 
L 89.851761 200.520733 
L 90.866307 200.520733 
L 90.866307 195.710957 
L 91.880852 195.710957 
L 91.880852 188.085703 
L 92.895398 188.085703 
L 92.895398 178.700774 
L 93.909943 178.700774 
L 93.909943 163.919511 
L 94.924489 163.919511 
L 94.924489 157.701996 
L 95.939034 157.701996 
L 95.939034 146.32277 
L 96.95358 146.32277 
L 96.95358 132.48 
L 97.968125 132.48 
L 97.968125 125.382648 
L 98.98267 125.382648 
L 98.98267 111.657189 
L 99.997216 111.657189 
L 99.997216 107.023381 
L 101.011761 107.023381 
L 101.011761 98.107699 
L 102.026307 98.107699 
L 102.026307 87.666965 
L 103.040852 87.666965 
L 103.040852 84.499552 
L 104.055398 84.499552 
L 104.055398 73.06167 
L 105.069943 73.06167 
L 105.069943 67.665336 
L 106.084489 67.665336 
L 106.084489 65.729695 
L 107.099034 65.729695 
L 107.099034 59.629491 
L 108.11358 59.629491 
L 108.11358 52.473483 
L 109.128125 52.473483 
L 109.128125 49.775316 
L 110.14267 49.775316 
L 110.14267 42.971242 
L 111.157216 42.971242 
L 111.157216 37.868187 
L 112.171761 37.868187 
L 112.171761 39.627862 
L 113.186307 39.627862 
L 113.186307 35.228676 
L 114.200852 35.228676 
L 114.200852 29.421752 
L 115.215398 29.421752 
L 115.215398 31.885295 
L 116.229943 31.885295 
L 116.229943 28.952505 
L 117.244489 28.952505 
L 117.244489 24.670631 
L 118.259034 24.670631 
L 118.259034 25.433157 
L 119.27358 25.433157 
L 119.27358 18.687739 
L 120.288125 18.687739 
L 120.288125 17.28 
L 121.30267 17.28 
L 121.30267 24.260041 
L 122.317216 24.260041 
L 122.317216 18.218493 
L 123.331761 18.218493 
L 123.331761 20.682037 
L 124.346307 20.682037 
L 124.346307 19.8022 
L 125.360852 19.8022 
L 125.360852 17.807902 
L 126.375398 17.807902 
L 126.375398 20.740692 
L 127.389943 20.740692 
L 127.389943 19.332953 
L 128.404489 19.332953 
L 128.404489 19.039674 
L 129.419034 19.039674 
L 129.419034 27.48611 
L 130.43358 27.48611 
L 130.43358 30.712179 
L 131.448125 30.712179 
L 131.448125 32.295886 
L 132.46267 32.295886 
L 132.46267 36.284481 
L 133.477216 36.284481 
L 133.477216 45.200163 
L 134.491761 45.200163 
L 134.491761 51.007088 
L 135.506307 51.007088 
L 135.506307 46.255967 
L 136.520852 46.255967 
L 136.520852 61.095886 
L 137.535398 61.095886 
L 137.535398 61.389165 
L 138.549943 61.389165 
L 138.549943 66.374908 
L 139.564489 66.374908 
L 139.564489 78.458004 
L 140.579034 78.458004 
L 140.579034 75.58387 
L 141.59358 75.58387 
L 141.59358 82.681222 
L 142.608125 82.681222 
L 142.608125 91.069002 
L 143.62267 91.069002 
L 143.62267 95.585499 
L 144.637216 95.585499 
L 144.637216 96.230713 
L 145.651761 96.230713 
L 145.651761 111.246599 
L 146.666307 111.246599 
L 146.666307 112.830305 
L 147.680852 112.830305 
L 147.680852 124.385499 
L 148.695398 124.385499 
L 148.695398 123.622974 
L 149.709943 123.622974 
L 149.709943 132.421344 
L 150.724489 132.421344 
L 150.724489 142.158208 
L 151.739034 142.158208 
L 151.739034 146.792016 
L 153.768125 146.850672 
L 153.768125 151.660448 
L 154.78267 151.660448 
L 154.78267 159.051079 
L 155.797216 159.051079 
L 155.797216 161.690591 
L 156.811761 161.690591 
L 156.811761 167.028269 
L 157.826307 167.028269 
L 157.826307 170.019715 
L 158.840852 170.019715 
L 158.840852 174.066965 
L 159.855398 174.066965 
L 159.855398 178.172872 
L 160.869943 178.172872 
L 160.869943 181.222974 
L 161.884489 181.222974 
L 161.884489 184.390387 
L 162.899034 184.390387 
L 162.899034 186.795275 
L 163.91358 186.795275 
L 163.91358 191.89833 
L 164.928125 191.89833 
L 164.928125 194.537841 
L 165.94267 194.537841 
L 165.94267 197.881222 
L 166.957216 197.881222 
L 166.957216 199.699552 
L 167.971761 199.699552 
L 167.971761 201.635193 
L 168.986307 201.635193 
L 168.986307 205.03723 
L 170.000852 205.03723 
L 170.000852 208.145988 
L 171.015398 208.145988 
L 171.015398 209.436415 
L 172.029943 209.436415 
L 172.029943 212.721141 
L 173.044489 212.721141 
L 173.044489 213.073075 
L 174.059034 213.073075 
L 174.059034 215.067373 
L 175.07358 215.067373 
L 175.07358 216.064521 
L 176.088125 216.064521 
L 176.088125 216.827047 
L 177.10267 216.827047 
L 177.10267 218.117475 
L 178.117216 218.117475 
L 178.117216 218.293442 
L 180.146307 218.293442 
L 180.146307 218.645377 
L 181.160852 218.645377 
L 181.160852 218.117475 
L 182.175398 218.117475 
L 182.175398 217.941507 
L 183.189943 217.941507 
L 183.189943 217.824196 
L 184.204489 217.824196 
L 184.204489 217.178982 
L 185.219034 217.178982 
L 185.219034 216.475112 
L 186.23358 216.475112 
L 186.23358 217.003014 
L 187.248125 217.003014 
L 187.248125 215.771242 
L 188.26267 215.771242 
L 188.26267 215.419308 
L 189.277216 215.419308 
L 189.277216 213.835601 
L 190.291761 213.835601 
L 190.291761 212.838452 
L 191.306307 212.838452 
L 191.306307 211.078778 
L 192.320852 211.078778 
L 192.320852 209.964318 
L 193.335398 209.964318 
L 193.335398 208.791202 
L 194.349943 208.791202 
L 194.349943 207.794053 
L 195.364489 207.794053 
L 195.364489 203.92277 
L 196.379034 203.92277 
L 196.379034 205.506477 
L 197.39358 205.506477 
L 197.39358 203.042933 
L 198.408125 203.042933 
L 198.408125 200.872668 
L 199.42267 200.872668 
L 199.42267 202.045784 
L 200.437216 202.045784 
L 200.437216 198.46778 
L 201.451761 198.46778 
L 201.451761 198.819715 
L 202.466307 198.819715 
L 202.466307 197.587943 
L 203.480852 197.587943 
L 203.480852 197.705255 
L 204.495398 197.705255 
L 204.495398 197.529287 
L 205.509943 197.529287 
L 205.509943 195.124399 
L 206.524489 195.124399 
L 206.524489 193.071446 
L 207.539034 193.071446 
L 207.539034 192.6022 
L 208.55358 192.6022 
L 208.55358 193.482037 
L 209.568125 193.482037 
L 209.568125 193.247413 
L 210.58267 193.247413 
L 210.58267 191.839674 
L 211.597216 191.839674 
L 211.597216 190.607902 
L 212.611761 190.607902 
L 212.611761 190.021344 
L 213.626307 190.021344 
L 213.626307 190.666558 
L 214.640852 190.666558 
L 214.640852 187.5578 
L 215.655398 187.5578 
L 215.655398 186.912587 
L 216.669943 186.912587 
L 216.669943 188.789572 
L 217.684489 188.789572 
L 217.684489 188.027047 
L 218.699034 188.027047 
L 218.699034 186.267373 
L 219.71358 186.267373 
L 219.71358 188.085703 
L 220.728125 188.085703 
L 220.728125 185.152912 
L 221.74267 185.152912 
L 221.74267 186.853931 
L 222.757216 186.853931 
L 222.757216 185.211568 
L 223.771761 185.211568 
L 223.771761 186.560652 
L 224.786307 186.560652 
L 224.786307 188.203014 
L 225.800852 188.203014 
L 225.800852 188.848228 
L 226.815398 188.848228 
L 226.815398 187.323177 
L 227.829943 187.323177 
L 227.829943 187.029898 
L 228.844489 187.029898 
L 228.844489 190.725214 
L 229.859034 190.725214 
L 229.859034 189.669409 
L 230.87358 189.669409 
L 230.87358 189.082851 
L 231.888125 189.082851 
L 231.888125 188.554949 
L 232.90267 188.554949 
L 232.90267 189.37613 
L 233.917216 189.37613 
L 233.917216 190.666558 
L 234.931761 190.666558 
L 234.931761 192.074297 
L 235.946307 192.074297 
L 235.946307 191.781018 
L 236.960852 191.781018 
L 236.960852 189.786721 
L 237.975398 189.786721 
L 237.975398 190.490591 
L 238.989943 190.490591 
L 238.989943 191.546395 
L 240.004489 191.546395 
L 240.004489 191.956986 
L 241.019034 191.956986 
L 241.019034 191.781018 
L 242.03358 191.781018 
L 242.03358 193.71666 
L 243.048125 193.71666 
L 243.048125 192.6022 
L 244.06267 192.6022 
L 244.06267 196.825418 
L 245.077216 196.825418 
L 245.077216 194.948432 
L 246.091761 194.948432 
L 246.091761 195.769613 
L 247.106307 195.769613 
L 247.106307 195.593646 
L 248.120852 195.593646 
L 248.120852 195.886925 
L 249.135398 195.886925 
L 249.135398 193.658004 
L 250.149943 193.658004 
L 250.149943 194.772464 
L 251.164489 194.772464 
L 251.164489 199.992831 
L 252.179034 199.992831 
L 252.179034 196.942729 
L 253.19358 196.942729 
L 253.19358 197.35332 
L 254.208125 197.35332 
L 254.208125 198.643747 
L 255.22267 198.643747 
L 255.22267 199.112994 
L 256.237216 199.112994 
L 256.237216 198.995682 
L 257.251761 198.995682 
L 257.251761 197.705255 
L 258.266307 197.705255 
L 258.266307 198.643747 
L 259.280852 198.643747 
L 259.280852 201.283259 
L 260.295398 201.283259 
L 260.295398 200.755356 
L 261.309943 200.755356 
L 261.309943 199.992831 
L 262.324489 199.992831 
L 262.324489 199.699552 
L 263.339034 199.699552 
L 263.339034 199.406273 
L 264.35358 199.406273 
L 264.35358 199.758208 
L 265.368125 199.758208 
L 265.368125 204.392016 
L 266.38267 204.392016 
L 266.38267 202.221752 
L 267.397216 202.221752 
L 267.397216 202.045784 
L 268.411761 202.045784 
L 268.411761 201.40057 
L 269.426307 201.40057 
L 269.426307 205.03723 
L 270.440852 205.03723 
L 270.440852 203.92277 
L 271.455398 203.92277 
L 271.455398 202.280407 
L 272.469943 202.280407 
L 272.469943 204.919919 
L 273.484489 204.919919 
L 273.484489 202.925621 
L 274.499034 202.925621 
L 274.499034 203.042933 
L 275.51358 203.042933 
L 275.51358 202.749654 
L 276.528125 202.749654 
L 276.528125 204.098737 
L 277.54267 204.098737 
L 277.54267 203.394868 
L 278.557216 203.394868 
L 278.557216 204.685295 
L 279.571761 204.685295 
L 279.571761 206.034379 
L 280.586307 206.034379 
L 280.586307 205.389165 
L 281.600852 205.389165 
L 281.600852 206.562281 
L 282.615398 206.562281 
L 282.615398 205.03723 
L 283.629943 205.03723 
L 283.629943 204.743951 
L 284.644489 204.743951 
L 284.644489 206.093035 
L 285.659034 206.093035 
L 285.659034 206.444969 
L 286.67358 206.444969 
L 286.67358 205.858411 
L 287.688125 205.858411 
L 287.688125 205.7411 
L 288.70267 205.7411 
L 288.70267 207.148839 
L 289.717216 207.148839 
L 289.717216 207.324807 
L 290.731761 207.324807 
L 290.731761 206.796904 
L 291.746307 206.796904 
L 291.746307 206.327658 
L 292.760852 206.327658 
L 292.760852 208.556578 
L 293.775398 208.556578 
L 293.775398 206.503625 
L 294.789943 206.503625 
L 294.789943 207.735397 
L 295.804489 207.735397 
L 295.804489 207.031527 
L 296.819034 207.031527 
L 296.819034 209.37776 
L 297.83358 209.37776 
L 297.83358 209.084481 
L 298.848125 209.084481 
L 298.848125 206.85556 
L 299.86267 206.85556 
L 299.86267 208.732546 
L 301.891761 208.67389 
L 301.891761 209.025825 
L 302.906307 209.025825 
L 302.906307 207.97002 
L 303.920852 207.97002 
L 303.920852 207.55943 
L 304.935398 207.55943 
L 304.935398 208.615234 
L 305.949943 208.615234 
L 305.949943 209.260448 
L 306.964489 209.260448 
L 306.964489 208.497923 
L 307.979034 208.497923 
L 307.979034 209.201792 
L 308.99358 209.201792 
L 308.99358 210.49222 
L 310.008125 210.49222 
L 310.008125 209.612383 
L 311.02267 209.612383 
L 311.02267 209.729695 
L 312.037216 209.729695 
L 312.037216 210.140285 
L 313.051761 210.140285 
L 313.051761 209.495071 
L 314.066307 209.495071 
L 314.066307 210.140285 
L 316.095398 210.140285 
L 316.095398 209.025825 
L 317.109943 209.025825 
L 317.109943 208.849857 
L 318.124489 208.849857 
L 318.124489 210.668187 
L 319.139034 210.668187 
L 319.139034 208.849857 
L 320.15358 208.849857 
L 320.15358 210.609532 
L 321.168125 210.609532 
L 321.168125 210.902811 
L 322.18267 210.902811 
L 322.18267 210.726843 
L 324.211761 210.668187 
L 324.211761 212.193238 
L 325.226307 212.193238 
L 325.226307 210.726843 
L 326.240852 210.726843 
L 326.240852 210.844155 
L 327.255398 210.844155 
L 327.255398 211.313401 
L 328.269943 211.313401 
L 328.269943 211.19609 
L 329.284489 211.19609 
L 329.284489 211.020122 
L 330.299034 211.020122 
L 330.299034 212.427862 
L 331.31358 212.427862 
L 331.31358 211.372057 
L 332.328125 211.372057 
L 332.328125 213.42501 
L 333.34267 213.42501 
L 333.34267 212.545173 
L 334.357216 212.545173 
L 334.357216 212.017271 
L 335.371761 212.017271 
L 335.371761 212.838452 
L 336.386307 212.838452 
L 336.386307 211.489369 
L 337.400852 211.489369 
L 337.400852 212.427862 
L 338.415398 212.427862 
L 338.415398 212.779796 
L 339.429943 212.779796 
L 339.429943 213.659633 
L 340.444489 213.659633 
L 340.444489 214.12888 
L 341.459034 214.12888 
L 341.459034 213.952912 
L 343.488125 213.894257 
L 343.488125 215.067373 
L 344.50267 215.067373 
L 344.50267 214.832749 
L 345.517216 214.832749 
L 345.517216 215.771242 
L 346.531761 215.771242 
L 346.531761 214.304847 
L 347.546307 214.304847 
L 347.546307 215.829898 
L 348.560852 215.829898 
L 348.560852 215.360652 
L 349.575398 215.360652 
L 349.575398 215.477963 
L 351.604489 215.536619 
L 351.604489 216.005866 
L 352.619034 216.005866 
L 352.619034 216.533768 
L 353.63358 216.533768 
L 353.63358 216.123177 
L 354.648125 216.123177 
L 354.648125 216.416456 
L 355.66267 216.416456 
L 355.66267 216.592424 
L 356.677216 216.592424 
L 356.677216 217.76554 
L 357.691761 217.76554 
L 357.691761 217.178982 
L 358.706307 217.178982 
L 358.706307 217.296293 
L 359.720852 217.296293 
L 359.720852 217.178982 
L 360.735398 217.178982 
L 360.735398 217.472261 
L 361.749943 217.472261 
L 361.749943 217.589572 
L 362.764489 217.589572 
L 362.764489 217.76554 
L 363.779034 217.76554 
L 363.779034 218.293442 
L 364.79358 218.293442 
L 364.79358 218.410754 
L 365.808125 218.410754 
L 365.808125 218.528065 
L 368.851761 218.528065 
L 368.851761 218.704033 
L 372.909943 218.704033 
L 372.909943 218.704033 
" clip-path="url(#p3c2a272afe)" style="fill: none; stroke: #1f77b4; stroke-width: 1.5; stroke-linecap: square"/>
   </g>
   <g id="patch_3">
    <path d="M 53.328125 228.96 
L 53.328125 7.2 
" style="fill: none; stroke: #000000; stroke-width: 0.8; stroke-linejoin: miter; stroke-linecap: square"/>
   </g>
   <g id="patch_4">
    <path d="M 388.128125 228.96 
L 388.128125 7.2 
" style="fill: none; stroke: #000000; stroke-width: 0.8; stroke-linejoin: miter; stroke-linecap: square"/>
   </g>
   <g id="patch_5">
    <path d="M 53.328125 228.96 
L 388.128125 228.96 
" style="fill: none; stroke: #000000; stroke-width: 0.8; stroke-linejoin: miter; stroke-linecap: square"/>
   </g>
   <g id="patch_6">
    <path d="M 53.328125 7.2 
L 388.128125 7.2 
" style="fill: none; stroke: #000000; stroke-width: 0.8; stroke-linejoin: miter; stroke-linecap: square"/>
   </g>
  </g>
 </g>
 <defs>
  <clipPath id="p3c2a272afe">
   <rect x="53.328125" y="7.2" width="334.8" height="221.76"/>
  </clipPath>
 </defs>
</svg>
