<?xml version="1.0" encoding="utf-8" standalone="no"?>
<!DOCTYPE svg PUBLIC "-//W3C//DTD SVG 1.1//EN"
  "http://www.w3.org/Graphics/SVG/1.1/DTD/svg11.dtd">
<svg xmlns:xlink="http://www.w3.org/1999/xlink" width="872.39952pt" height="296.39952pt" viewBox="0 0 872.39952 296.39952" xmlns="http://www.w3.org/2000/svg" version="1.1">
 <metadata>
  <rdf:RDF xmlns:dc="http://purl.org/dc/elements/1.1/" xmlns:cc="http://creativecommons.org/ns#" xmlns:rdf="http://www.w3.org/1999/02/22-rdf-syntax-ns#">
   <cc:Work>
    <dc:type rdf:resource="http://purl.org/dc/dcmitype/StillImage"/>
    <dc:date>2025-11-19T10:11:17.141727</dc:date>
    <dc:format>image/svg+xml</dc:format>
    <dc:creator>
     <cc:Agent>
      <dc:title>Matplotlib v3.10.7, https://matplotlib.org/</dc:title>
     </cc:Agent>
    </dc:creator>
   </cc:Work>
  </rdf:RDF>
 </metadata>
 <defs>
  <style type="text/css">*{stroke-linejoin: round; stroke-linecap: butt}</style>
 </defs>
 <g id="figure_1">
  <g id="patch_1">
   <path d="M 0 296.39952 
L 872.39952 296.39952 
L 872.39952 0 
L 0 0 
z
" style="fill: #ffffff"/>
  </g>
  <g id="axes_1">
   <g id="patch_2">
    <path d="M 53.328125 257.158895 
L 411.41851 257.158895 
L 411.41851 7.2 
L 53.328125 7.2 
z
" style="fill: #ffffff"/>
   </g>
   <g id="matplotlib.axis_1">
    <g id="xtick_1">
     <g id="line2d_1">
      <defs>
       <path id="m0116e84a9a" d="M 0 0 
L 0 3.5 
" style="stroke: #000000; stroke-width: 0.8"/>
      </defs>
      <g>
       <use xlink:href="#m0116e84a9a" x="68.774966" y="257.158895" style="stroke: #000000; stroke-width: 0.8"/>
      </g>
     </g>
     <g id="text_1">
      <!-- 0 -->
      <g transform="translate(65.593716 271.757332) scale(0.1 -0.1)">
       <defs>
        <path id="DejaVuSans-30" d="M 2034 4250 
Q 1547 4250 1301 3770 
Q 1056 3291 1056 2328 
Q 1056 1369 1301 889 
Q 1547 409 2034 409 
Q 2525 409 2770 889 
Q 3016 1369 3016 2328 
Q 3016 3291 2770 3770 
Q 2525 4250 2034 4250 
z
M 2034 4750 
Q 2819 4750 3233 4129 
Q 3647 3509 3647 2328 
Q 3647 1150 3233 529 
Q 2819 -91 2034 -91 
Q 1250 -91 836 529 
Q 422 1150 422 2328 
Q 422 3509 836 4129 
Q 1250 4750 2034 4750 
z
" transform="scale(0.015625)"/>
       </defs>
       <use xlink:href="#DejaVuSans-30"/>
      </g>
     </g>
    </g>
    <g id="xtick_2">
     <g id="line2d_2">
      <g>
       <use xlink:href="#m0116e84a9a" x="134.218219" y="257.158895" style="stroke: #000000; stroke-width: 0.8"/>
      </g>
     </g>
     <g id="text_2">
      <!-- 1000 -->
      <g transform="translate(121.493219 271.757332) scale(0.1 -0.1)">
       <defs>
        <path id="DejaVuSans-31" d="M 794 531 
L 1825 531 
L 1825 4091 
L 703 3866 
L 703 4441 
L 1819 4666 
L 2450 4666 
L 2450 531 
L 3481 531 
L 3481 0 
L 794 0 
L 794 531 
z
" transform="scale(0.015625)"/>
       </defs>
       <use xlink:href="#DejaVuSans-31"/>
       <use xlink:href="#DejaVuSans-30" transform="translate(63.623047 0)"/>
       <use xlink:href="#DejaVuSans-30" transform="translate(127.246094 0)"/>
       <use xlink:href="#DejaVuSans-30" transform="translate(190.869141 0)"/>
      </g>
     </g>
    </g>
    <g id="xtick_3">
     <g id="line2d_3">
      <g>
       <use xlink:href="#m0116e84a9a" x="199.661471" y="257.158895" style="stroke: #000000; stroke-width: 0.8"/>
      </g>
     </g>
     <g id="text_3">
      <!-- 2000 -->
      <g transform="translate(186.936471 271.757332) scale(0.1 -0.1)">
       <defs>
        <path id="DejaVuSans-32" d="M 1228 531 
L 3431 531 
L 3431 0 
L 469 0 
L 469 531 
Q 828 903 1448 1529 
Q 2069 2156 2228 2338 
Q 2531 2678 2651 2914 
Q 2772 3150 2772 3378 
Q 2772 3750 2511 3984 
Q 2250 4219 1831 4219 
Q 1534 4219 1204 4116 
Q 875 4013 500 3803 
L 500 4441 
Q 881 4594 1212 4672 
Q 1544 4750 1819 4750 
Q 2544 4750 2975 4387 
Q 3406 4025 3406 3419 
Q 3406 3131 3298 2873 
Q 3191 2616 2906 2266 
Q 2828 2175 2409 1742 
Q 1991 1309 1228 531 
z
" transform="scale(0.015625)"/>
       </defs>
       <use xlink:href="#DejaVuSans-32"/>
       <use xlink:href="#DejaVuSans-30" transform="translate(63.623047 0)"/>
       <use xlink:href="#DejaVuSans-30" transform="translate(127.246094 0)"/>
       <use xlink:href="#DejaVuSans-30" transform="translate(190.869141 0)"/>
      </g>
     </g>
    </g>
    <g id="xtick_4">
     <g id="line2d_4">
      <g>
       <use xlink:href="#m0116e84a9a" x="265.104723" y="257.158895" style="stroke: #000000; stroke-width: 0.8"/>
      </g>
     </g>
     <g id="text_4">
      <!-- 3000 -->
      <g transform="translate(252.379723 271.757332) scale(0.1 -0.1)">
       <defs>
        <path id="DejaVuSans-33" d="M 2597 2516 
Q 3050 2419 3304 2112 
Q 3559 1806 3559 1356 
Q 3559 666 3084 287 
Q 2609 -91 1734 -91 
Q 1441 -91 1130 -33 
Q 819 25 488 141 
L 488 750 
Q 750 597 1062 519 
Q 1375 441 1716 441 
Q 2309 441 2620 675 
Q 2931 909 2931 1356 
Q 2931 1769 2642 2001 
Q 2353 2234 1838 2234 
L 1294 2234 
L 1294 2753 
L 1863 2753 
Q 2328 2753 2575 2939 
Q 2822 3125 2822 3475 
Q 2822 3834 2567 4026 
Q 2313 4219 1838 4219 
Q 1578 4219 1281 4162 
Q 984 4106 628 3988 
L 628 4550 
Q 988 4650 1302 4700 
Q 1616 4750 1894 4750 
Q 2613 4750 3031 4423 
Q 3450 4097 3450 3541 
Q 3450 3153 3228 2886 
Q 3006 2619 2597 2516 
z
" transform="scale(0.015625)"/>
       </defs>
       <use xlink:href="#DejaVuSans-33"/>
       <use xlink:href="#DejaVuSans-30" transform="translate(63.623047 0)"/>
       <use xlink:href="#DejaVuSans-30" transform="translate(127.246094 0)"/>
       <use xlink:href="#DejaVuSans-30" transform="translate(190.869141 0)"/>
      </g>
     </g>
    </g>
    <g id="xtick_5">
     <g id="line2d_5">
      <g>
       <use xlink:href="#m0116e84a9a" x="330.547976" y="257.158895" style="stroke: #000000; stroke-width: 0.8"/>
      </g>
     </g>
     <g id="text_5">
      <!-- 4000 -->
      <g transform="translate(317.822976 271.757332) scale(0.1 -0.1)">
       <defs>
        <path id="DejaVuSans-34" d="M 2419 4116 
L 825 1625 
L 2419 1625 
L 2419 4116 
z
M 2253 4666 
L 3047 4666 
L 3047 1625 
L 3713 1625 
L 3713 1100 
L 3047 1100 
L 3047 0 
L 2419 0 
L 2419 1100 
L 313 1100 
L 313 1709 
L 2253 4666 
z
" transform="scale(0.015625)"/>
       </defs>
       <use xlink:href="#DejaVuSans-34"/>
       <use xlink:href="#DejaVuSans-30" transform="translate(63.623047 0)"/>
       <use xlink:href="#DejaVuSans-30" transform="translate(127.246094 0)"/>
       <use xlink:href="#DejaVuSans-30" transform="translate(190.869141 0)"/>
      </g>
     </g>
    </g>
    <g id="xtick_6">
     <g id="line2d_6">
      <g>
       <use xlink:href="#m0116e84a9a" x="395.991228" y="257.158895" style="stroke: #000000; stroke-width: 0.8"/>
      </g>
     </g>
     <g id="text_6">
      <!-- 5000 -->
      <g transform="translate(383.266228 271.757332) scale(0.1 -0.1)">
       <defs>
        <path id="DejaVuSans-35" d="M 691 4666 
L 3169 4666 
L 3169 4134 
L 1269 4134 
L 1269 2991 
Q 1406 3038 1543 3061 
Q 1681 3084 1819 3084 
Q 2600 3084 3056 2656 
Q 3513 2228 3513 1497 
Q 3513 744 3044 326 
Q 2575 -91 1722 -91 
Q 1428 -91 1123 -41 
Q 819 9 494 109 
L 494 744 
Q 775 591 1075 516 
Q 1375 441 1709 441 
Q 2250 441 2565 725 
Q 2881 1009 2881 1497 
Q 2881 1984 2565 2268 
Q 2250 2553 1709 2553 
Q 1456 2553 1204 2497 
Q 953 2441 691 2322 
L 691 4666 
z
" transform="scale(0.015625)"/>
       </defs>
       <use xlink:href="#DejaVuSans-35"/>
       <use xlink:href="#DejaVuSans-30" transform="translate(63.623047 0)"/>
       <use xlink:href="#DejaVuSans-30" transform="translate(127.246094 0)"/>
       <use xlink:href="#DejaVuSans-30" transform="translate(190.869141 0)"/>
      </g>
     </g>
    </g>
    <g id="text_7">
     <!-- birth_time [µs] -->
     <g transform="translate(195.553005 285.435457) scale(0.1 -0.1)">
      <defs>
       <path id="DejaVuSans-62" d="M 3116 1747 
Q 3116 2381 2855 2742 
Q 2594 3103 2138 3103 
Q 1681 3103 1420 2742 
Q 1159 2381 1159 1747 
Q 1159 1113 1420 752 
Q 1681 391 2138 391 
Q 2594 391 2855 752 
Q 3116 1113 3116 1747 
z
M 1159 2969 
Q 1341 3281 1617 3432 
Q 1894 3584 2278 3584 
Q 2916 3584 3314 3078 
Q 3713 2572 3713 1747 
Q 3713 922 3314 415 
Q 2916 -91 2278 -91 
Q 1894 -91 1617 61 
Q 1341 213 1159 525 
L 1159 0 
L 581 0 
L 581 4863 
L 1159 4863 
L 1159 2969 
z
" transform="scale(0.015625)"/>
       <path id="DejaVuSans-69" d="M 603 3500 
L 1178 3500 
L 1178 0 
L 603 0 
L 603 3500 
z
M 603 4863 
L 1178 4863 
L 1178 4134 
L 603 4134 
L 603 4863 
z
" transform="scale(0.015625)"/>
       <path id="DejaVuSans-72" d="M 2631 2963 
Q 2534 3019 2420 3045 
Q 2306 3072 2169 3072 
Q 1681 3072 1420 2755 
Q 1159 2438 1159 1844 
L 1159 0 
L 581 0 
L 581 3500 
L 1159 3500 
L 1159 2956 
Q 1341 3275 1631 3429 
Q 1922 3584 2338 3584 
Q 2397 3584 2469 3576 
Q 2541 3569 2628 3553 
L 2631 2963 
z
" transform="scale(0.015625)"/>
       <path id="DejaVuSans-74" d="M 1172 4494 
L 1172 3500 
L 2356 3500 
L 2356 3053 
L 1172 3053 
L 1172 1153 
Q 1172 725 1289 603 
Q 1406 481 1766 481 
L 2356 481 
L 2356 0 
L 1766 0 
Q 1100 0 847 248 
Q 594 497 594 1153 
L 594 3053 
L 172 3053 
L 172 3500 
L 594 3500 
L 594 4494 
L 1172 4494 
z
" transform="scale(0.015625)"/>
       <path id="DejaVuSans-68" d="M 3513 2113 
L 3513 0 
L 2938 0 
L 2938 2094 
Q 2938 2591 2744 2837 
Q 2550 3084 2163 3084 
Q 1697 3084 1428 2787 
Q 1159 2491 1159 1978 
L 1159 0 
L 581 0 
L 581 4863 
L 1159 4863 
L 1159 2956 
Q 1366 3272 1645 3428 
Q 1925 3584 2291 3584 
Q 2894 3584 3203 3211 
Q 3513 2838 3513 2113 
z
" transform="scale(0.015625)"/>
       <path id="DejaVuSans-5f" d="M 3263 -1063 
L 3263 -1509 
L -63 -1509 
L -63 -1063 
L 3263 -1063 
z
" transform="scale(0.015625)"/>
       <path id="DejaVuSans-6d" d="M 3328 2828 
Q 3544 3216 3844 3400 
Q 4144 3584 4550 3584 
Q 5097 3584 5394 3201 
Q 5691 2819 5691 2113 
L 5691 0 
L 5113 0 
L 5113 2094 
Q 5113 2597 4934 2840 
Q 4756 3084 4391 3084 
Q 3944 3084 3684 2787 
Q 3425 2491 3425 1978 
L 3425 0 
L 2847 0 
L 2847 2094 
Q 2847 2600 2669 2842 
Q 2491 3084 2119 3084 
Q 1678 3084 1418 2786 
Q 1159 2488 1159 1978 
L 1159 0 
L 581 0 
L 581 3500 
L 1159 3500 
L 1159 2956 
Q 1356 3278 1631 3431 
Q 1906 3584 2284 3584 
Q 2666 3584 2933 3390 
Q 3200 3197 3328 2828 
z
" transform="scale(0.015625)"/>
       <path id="DejaVuSans-65" d="M 3597 1894 
L 3597 1613 
L 953 1613 
Q 991 1019 1311 708 
Q 1631 397 2203 397 
Q 2534 397 2845 478 
Q 3156 559 3463 722 
L 3463 178 
Q 3153 47 2828 -22 
Q 2503 -91 2169 -91 
Q 1331 -91 842 396 
Q 353 884 353 1716 
Q 353 2575 817 3079 
Q 1281 3584 2069 3584 
Q 2775 3584 3186 3129 
Q 3597 2675 3597 1894 
z
M 3022 2063 
Q 3016 2534 2758 2815 
Q 2500 3097 2075 3097 
Q 1594 3097 1305 2825 
Q 1016 2553 972 2059 
L 3022 2063 
z
" transform="scale(0.015625)"/>
       <path id="DejaVuSans-20" transform="scale(0.015625)"/>
       <path id="DejaVuSans-5b" d="M 550 4863 
L 1875 4863 
L 1875 4416 
L 1125 4416 
L 1125 -397 
L 1875 -397 
L 1875 -844 
L 550 -844 
L 550 4863 
z
" transform="scale(0.015625)"/>
       <path id="DejaVuSans-b5" d="M 544 -1331 
L 544 3500 
L 1119 3500 
L 1119 1325 
Q 1119 872 1334 640 
Q 1550 409 1972 409 
Q 2434 409 2667 671 
Q 2900 934 2900 1459 
L 2900 3500 
L 3475 3500 
L 3475 806 
Q 3475 619 3529 530 
Q 3584 441 3700 441 
Q 3728 441 3778 458 
Q 3828 475 3916 513 
L 3916 50 
Q 3788 -22 3673 -56 
Q 3559 -91 3450 -91 
Q 3234 -91 3106 31 
Q 2978 153 2931 403 
Q 2775 156 2548 32 
Q 2322 -91 2016 -91 
Q 1697 -91 1473 31 
Q 1250 153 1119 397 
L 1119 -1331 
L 544 -1331 
z
" transform="scale(0.015625)"/>
       <path id="DejaVuSans-73" d="M 2834 3397 
L 2834 2853 
Q 2591 2978 2328 3040 
Q 2066 3103 1784 3103 
Q 1356 3103 1142 2972 
Q 928 2841 928 2578 
Q 928 2378 1081 2264 
Q 1234 2150 1697 2047 
L 1894 2003 
Q 2506 1872 2764 1633 
Q 3022 1394 3022 966 
Q 3022 478 2636 193 
Q 2250 -91 1575 -91 
Q 1294 -91 989 -36 
Q 684 19 347 128 
L 347 722 
Q 666 556 975 473 
Q 1284 391 1588 391 
Q 1994 391 2212 530 
Q 2431 669 2431 922 
Q 2431 1156 2273 1281 
Q 2116 1406 1581 1522 
L 1381 1569 
Q 847 1681 609 1914 
Q 372 2147 372 2553 
Q 372 3047 722 3315 
Q 1072 3584 1716 3584 
Q 2034 3584 2315 3537 
Q 2597 3491 2834 3397 
z
" transform="scale(0.015625)"/>
       <path id="DejaVuSans-5d" d="M 1947 4863 
L 1947 -844 
L 622 -844 
L 622 -397 
L 1369 -397 
L 1369 4416 
L 622 4416 
L 622 4863 
L 1947 4863 
z
" transform="scale(0.015625)"/>
      </defs>
      <use xlink:href="#DejaVuSans-62"/>
      <use xlink:href="#DejaVuSans-69" transform="translate(63.476562 0)"/>
      <use xlink:href="#DejaVuSans-72" transform="translate(91.259766 0)"/>
      <use xlink:href="#DejaVuSans-74" transform="translate(132.373047 0)"/>
      <use xlink:href="#DejaVuSans-68" transform="translate(171.582031 0)"/>
      <use xlink:href="#DejaVuSans-5f" transform="translate(234.960938 0)"/>
      <use xlink:href="#DejaVuSans-74" transform="translate(284.960938 0)"/>
      <use xlink:href="#DejaVuSans-69" transform="translate(324.169922 0)"/>
      <use xlink:href="#DejaVuSans-6d" transform="translate(351.953125 0)"/>
      <use xlink:href="#DejaVuSans-65" transform="translate(449.365234 0)"/>
      <use xlink:href="#DejaVuSans-20" transform="translate(510.888672 0)"/>
      <use xlink:href="#DejaVuSans-5b" transform="translate(542.675781 0)"/>
      <use xlink:href="#DejaVuSans-b5" transform="translate(581.689453 0)"/>
      <use xlink:href="#DejaVuSans-73" transform="translate(645.3125 0)"/>
      <use xlink:href="#DejaVuSans-5d" transform="translate(697.412109 0)"/>
     </g>
    </g>
   </g>
   <g id="matplotlib.axis_2">
    <g id="ytick_1">
     <g id="line2d_7">
      <defs>
       <path id="mf4d08e0a4d" d="M 0 0 
L -3.5 0 
" style="stroke: #000000; stroke-width: 0.8"/>
      </defs>
      <g>
       <use xlink:href="#mf4d08e0a4d" x="53.328125" y="245.948668" style="stroke: #000000; stroke-width: 0.8"/>
      </g>
     </g>
     <g id="text_8">
      <!-- 0 -->
      <g transform="translate(39.965625 249.747887) scale(0.1 -0.1)">
       <use xlink:href="#DejaVuSans-30"/>
      </g>
     </g>
    </g>
    <g id="ytick_2">
     <g id="line2d_8">
      <g>
       <use xlink:href="#mf4d08e0a4d" x="53.328125" y="208.06348" style="stroke: #000000; stroke-width: 0.8"/>
      </g>
     </g>
     <g id="text_9">
      <!-- 1000 -->
      <g transform="translate(20.878125 211.862698) scale(0.1 -0.1)">
       <use xlink:href="#DejaVuSans-31"/>
       <use xlink:href="#DejaVuSans-30" transform="translate(63.623047 0)"/>
       <use xlink:href="#DejaVuSans-30" transform="translate(127.246094 0)"/>
       <use xlink:href="#DejaVuSans-30" transform="translate(190.869141 0)"/>
      </g>
     </g>
    </g>
    <g id="ytick_3">
     <g id="line2d_9">
      <g>
       <use xlink:href="#mf4d08e0a4d" x="53.328125" y="170.178291" style="stroke: #000000; stroke-width: 0.8"/>
      </g>
     </g>
     <g id="text_10">
      <!-- 2000 -->
      <g transform="translate(20.878125 173.97751) scale(0.1 -0.1)">
       <use xlink:href="#DejaVuSans-32"/>
       <use xlink:href="#DejaVuSans-30" transform="translate(63.623047 0)"/>
       <use xlink:href="#DejaVuSans-30" transform="translate(127.246094 0)"/>
       <use xlink:href="#DejaVuSans-30" transform="translate(190.869141 0)"/>
      </g>
     </g>
    </g>
    <g id="ytick_4">
     <g id="line2d_10">
      <g>
       <use xlink:href="#mf4d08e0a4d" x="53.328125" y="132.293103" style="stroke: #000000; stroke-width: 0.8"/>
      </g>
     </g>
     <g id="text_11">
      <!-- 3000 -->
      <g transform="translate(20.878125 136.092322) scale(0.1 -0.1)">
       <use xlink:href="#DejaVuSans-33"/>
       <use xlink:href="#DejaVuSans-30" transform="translate(63.623047 0)"/>
       <use xlink:href="#DejaVuSans-30" transform="translate(127.246094 0)"/>
       <use xlink:href="#DejaVuSans-30" transform="translate(190.869141 0)"/>
      </g>
     </g>
    </g>
    <g id="ytick_5">
     <g id="line2d_11">
      <g>
       <use xlink:href="#mf4d08e0a4d" x="53.328125" y="94.407915" style="stroke: #000000; stroke-width: 0.8"/>
      </g>
     </g>
     <g id="text_12">
      <!-- 4000 -->
      <g transform="translate(20.878125 98.207134) scale(0.1 -0.1)">
       <use xlink:href="#DejaVuSans-34"/>
       <use xlink:href="#DejaVuSans-30" transform="translate(63.623047 0)"/>
       <use xlink:href="#DejaVuSans-30" transform="translate(127.246094 0)"/>
       <use xlink:href="#DejaVuSans-30" transform="translate(190.869141 0)"/>
      </g>
     </g>
    </g>
    <g id="ytick_6">
     <g id="line2d_12">
      <g>
       <use xlink:href="#mf4d08e0a4d" x="53.328125" y="56.522727" style="stroke: #000000; stroke-width: 0.8"/>
      </g>
     </g>
     <g id="text_13">
      <!-- 5000 -->
      <g transform="translate(20.878125 60.321945) scale(0.1 -0.1)">
       <use xlink:href="#DejaVuSans-35"/>
       <use xlink:href="#DejaVuSans-30" transform="translate(63.623047 0)"/>
       <use xlink:href="#DejaVuSans-30" transform="translate(127.246094 0)"/>
       <use xlink:href="#DejaVuSans-30" transform="translate(190.869141 0)"/>
      </g>
     </g>
    </g>
    <g id="ytick_7">
     <g id="line2d_13">
      <g>
       <use xlink:href="#mf4d08e0a4d" x="53.328125" y="18.637538" style="stroke: #000000; stroke-width: 0.8"/>
      </g>
     </g>
     <g id="text_14">
      <!-- 6000 -->
      <g transform="translate(20.878125 22.436757) scale(0.1 -0.1)">
       <defs>
        <path id="DejaVuSans-36" d="M 2113 2584 
Q 1688 2584 1439 2293 
Q 1191 2003 1191 1497 
Q 1191 994 1439 701 
Q 1688 409 2113 409 
Q 2538 409 2786 701 
Q 3034 994 3034 1497 
Q 3034 2003 2786 2293 
Q 2538 2584 2113 2584 
z
M 3366 4563 
L 3366 3988 
Q 3128 4100 2886 4159 
Q 2644 4219 2406 4219 
Q 1781 4219 1451 3797 
Q 1122 3375 1075 2522 
Q 1259 2794 1537 2939 
Q 1816 3084 2150 3084 
Q 2853 3084 3261 2657 
Q 3669 2231 3669 1497 
Q 3669 778 3244 343 
Q 2819 -91 2113 -91 
Q 1303 -91 875 529 
Q 447 1150 447 2328 
Q 447 3434 972 4092 
Q 1497 4750 2381 4750 
Q 2619 4750 2861 4703 
Q 3103 4656 3366 4563 
z
" transform="scale(0.015625)"/>
       </defs>
       <use xlink:href="#DejaVuSans-36"/>
       <use xlink:href="#DejaVuSans-30" transform="translate(63.623047 0)"/>
       <use xlink:href="#DejaVuSans-30" transform="translate(127.246094 0)"/>
       <use xlink:href="#DejaVuSans-30" transform="translate(190.869141 0)"/>
      </g>
     </g>
    </g>
    <g id="text_15">
     <!-- pulse:0 [counts] -->
     <g transform="translate(14.798438 172.659916) rotate(-90) scale(0.1 -0.1)">
      <defs>
       <path id="DejaVuSans-70" d="M 1159 525 
L 1159 -1331 
L 581 -1331 
L 581 3500 
L 1159 3500 
L 1159 2969 
Q 1341 3281 1617 3432 
Q 1894 3584 2278 3584 
Q 2916 3584 3314 3078 
Q 3713 2572 3713 1747 
Q 3713 922 3314 415 
Q 2916 -91 2278 -91 
Q 1894 -91 1617 61 
Q 1341 213 1159 525 
z
M 3116 1747 
Q 3116 2381 2855 2742 
Q 2594 3103 2138 3103 
Q 1681 3103 1420 2742 
Q 1159 2381 1159 1747 
Q 1159 1113 1420 752 
Q 1681 391 2138 391 
Q 2594 391 2855 752 
Q 3116 1113 3116 1747 
z
" transform="scale(0.015625)"/>
       <path id="DejaVuSans-75" d="M 544 1381 
L 544 3500 
L 1119 3500 
L 1119 1403 
Q 1119 906 1312 657 
Q 1506 409 1894 409 
Q 2359 409 2629 706 
Q 2900 1003 2900 1516 
L 2900 3500 
L 3475 3500 
L 3475 0 
L 2900 0 
L 2900 538 
Q 2691 219 2414 64 
Q 2138 -91 1772 -91 
Q 1169 -91 856 284 
Q 544 659 544 1381 
z
M 1991 3584 
L 1991 3584 
z
" transform="scale(0.015625)"/>
       <path id="DejaVuSans-6c" d="M 603 4863 
L 1178 4863 
L 1178 0 
L 603 0 
L 603 4863 
z
" transform="scale(0.015625)"/>
       <path id="DejaVuSans-3a" d="M 750 794 
L 1409 794 
L 1409 0 
L 750 0 
L 750 794 
z
M 750 3309 
L 1409 3309 
L 1409 2516 
L 750 2516 
L 750 3309 
z
" transform="scale(0.015625)"/>
       <path id="DejaVuSans-63" d="M 3122 3366 
L 3122 2828 
Q 2878 2963 2633 3030 
Q 2388 3097 2138 3097 
Q 1578 3097 1268 2742 
Q 959 2388 959 1747 
Q 959 1106 1268 751 
Q 1578 397 2138 397 
Q 2388 397 2633 464 
Q 2878 531 3122 666 
L 3122 134 
Q 2881 22 2623 -34 
Q 2366 -91 2075 -91 
Q 1284 -91 818 406 
Q 353 903 353 1747 
Q 353 2603 823 3093 
Q 1294 3584 2113 3584 
Q 2378 3584 2631 3529 
Q 2884 3475 3122 3366 
z
" transform="scale(0.015625)"/>
       <path id="DejaVuSans-6f" d="M 1959 3097 
Q 1497 3097 1228 2736 
Q 959 2375 959 1747 
Q 959 1119 1226 758 
Q 1494 397 1959 397 
Q 2419 397 2687 759 
Q 2956 1122 2956 1747 
Q 2956 2369 2687 2733 
Q 2419 3097 1959 3097 
z
M 1959 3584 
Q 2709 3584 3137 3096 
Q 3566 2609 3566 1747 
Q 3566 888 3137 398 
Q 2709 -91 1959 -91 
Q 1206 -91 779 398 
Q 353 888 353 1747 
Q 353 2609 779 3096 
Q 1206 3584 1959 3584 
z
" transform="scale(0.015625)"/>
       <path id="DejaVuSans-6e" d="M 3513 2113 
L 3513 0 
L 2938 0 
L 2938 2094 
Q 2938 2591 2744 2837 
Q 2550 3084 2163 3084 
Q 1697 3084 1428 2787 
Q 1159 2491 1159 1978 
L 1159 0 
L 581 0 
L 581 3500 
L 1159 3500 
L 1159 2956 
Q 1366 3272 1645 3428 
Q 1925 3584 2291 3584 
Q 2894 3584 3203 3211 
Q 3513 2838 3513 2113 
z
" transform="scale(0.015625)"/>
      </defs>
      <use xlink:href="#DejaVuSans-70"/>
      <use xlink:href="#DejaVuSans-75" transform="translate(63.476562 0)"/>
      <use xlink:href="#DejaVuSans-6c" transform="translate(126.855469 0)"/>
      <use xlink:href="#DejaVuSans-73" transform="translate(154.638672 0)"/>
      <use xlink:href="#DejaVuSans-65" transform="translate(206.738281 0)"/>
      <use xlink:href="#DejaVuSans-3a" transform="translate(268.261719 0)"/>
      <use xlink:href="#DejaVuSans-30" transform="translate(301.953125 0)"/>
      <use xlink:href="#DejaVuSans-20" transform="translate(365.576172 0)"/>
      <use xlink:href="#DejaVuSans-5b" transform="translate(397.363281 0)"/>
      <use xlink:href="#DejaVuSans-63" transform="translate(436.376953 0)"/>
      <use xlink:href="#DejaVuSans-6f" transform="translate(491.357422 0)"/>
      <use xlink:href="#DejaVuSans-75" transform="translate(552.539062 0)"/>
      <use xlink:href="#DejaVuSans-6e" transform="translate(615.917969 0)"/>
      <use xlink:href="#DejaVuSans-74" transform="translate(679.296875 0)"/>
      <use xlink:href="#DejaVuSans-73" transform="translate(718.505859 0)"/>
      <use xlink:href="#DejaVuSans-5d" transform="translate(770.605469 0)"/>
     </g>
    </g>
   </g>
   <g id="line2d_14">
    <path d="M 69.604961 235.189274 
L 70.690083 235.189274 
L 70.690083 227.725892 
L 71.775205 227.725892 
L 71.775205 220.18674 
L 72.860328 220.18674 
L 72.860328 211.056409 
L 73.94545 211.056409 
L 73.94545 200.03182 
L 75.030573 200.03182 
L 75.030573 192.871519 
L 76.115695 192.871519 
L 76.115695 183.741189 
L 77.200817 183.741189 
L 77.200817 172.602943 
L 78.28594 172.602943 
L 78.28594 167.677869 
L 79.371062 167.677869 
L 79.371062 161.085846 
L 80.456184 161.085846 
L 80.456184 146.272738 
L 81.541307 146.272738 
L 81.541307 145.818115 
L 82.626429 145.818115 
L 82.626429 133.164462 
L 83.711552 133.164462 
L 83.711552 133.278118 
L 84.796674 133.278118 
L 84.796674 128.807666 
L 85.881796 128.807666 
L 85.881796 123.806821 
L 86.966919 123.806821 
L 86.966919 116.457094 
L 88.052041 116.457094 
L 88.052041 110.850087 
L 89.137163 110.850087 
L 89.137163 105.925012 
L 90.222286 105.925012 
L 90.222286 99.219334 
L 91.307408 99.219334 
L 91.307408 97.400845 
L 92.392531 97.400845 
L 92.392531 91.414985 
L 93.477653 91.414985 
L 93.477653 86.376255 
L 94.562775 86.376255 
L 94.562775 90.960363 
L 95.647898 90.960363 
L 95.647898 85.353355 
L 96.73302 85.353355 
L 96.73302 80.466166 
L 97.818143 80.466166 
L 97.818143 76.601876 
L 98.903265 76.601876 
L 98.903265 69.896198 
L 99.988387 69.896198 
L 99.988387 74.859158 
L 101.07351 74.859158 
L 101.07351 68.797528 
L 102.158632 68.797528 
L 102.158632 70.653902 
L 103.243754 70.653902 
L 103.243754 65.084779 
L 104.328877 65.084779 
L 104.328877 64.478616 
L 105.413999 64.478616 
L 105.413999 62.925323 
L 106.499122 62.925323 
L 106.499122 58.833723 
L 107.584244 58.833723 
L 107.584244 52.203815 
L 108.669366 52.203815 
L 108.669366 54.249615 
L 109.754489 54.249615 
L 109.754489 49.589737 
L 110.839611 49.589737 
L 110.839611 55.348286 
L 111.924733 55.348286 
L 111.924733 52.279585 
L 113.009856 52.279585 
L 113.009856 51.862848 
L 114.094978 51.862848 
L 114.094978 50.1959 
L 115.180101 50.1959 
L 115.180101 47.20297 
L 116.265223 47.20297 
L 116.265223 46.862004 
L 117.350345 46.862004 
L 117.350345 42.997714 
L 118.435468 42.997714 
L 118.435468 44.891974 
L 119.52059 44.891974 
L 119.52059 43.18714 
L 121.690835 43.11137 
L 121.690835 42.391551 
L 122.775957 42.391551 
L 122.775957 39.09554 
L 123.86108 39.09554 
L 123.86108 45.195055 
L 124.946202 45.195055 
L 124.946202 36.481462 
L 126.031324 36.481462 
L 126.031324 42.126355 
L 127.116447 42.126355 
L 127.116447 42.240011 
L 128.201569 42.240011 
L 128.201569 35.988955 
L 129.286692 35.988955 
L 129.286692 32.655058 
L 130.371814 32.655058 
L 130.371814 34.625088 
L 131.456936 34.625088 
L 131.456936 37.580132 
L 132.542059 37.580132 
L 132.542059 36.595118 
L 133.627181 36.595118 
L 133.627181 36.898199 
L 134.712303 36.898199 
L 134.712303 40.232096 
L 135.797426 40.232096 
L 135.797426 30.078865 
L 136.882548 30.078865 
L 136.882548 34.662973 
L 137.967671 34.662973 
L 137.967671 33.412762 
L 139.052793 33.412762 
L 139.052793 31.973125 
L 140.137915 31.973125 
L 140.137915 32.920254 
L 141.223038 32.920254 
L 141.223038 28.866539 
L 142.30816 28.866539 
L 142.30816 33.412762 
L 143.393282 33.412762 
L 143.393282 29.359047 
L 144.478405 29.359047 
L 144.478405 31.973125 
L 145.563527 31.973125 
L 145.563527 27.957295 
L 146.64865 27.957295 
L 146.64865 29.396932 
L 147.733772 29.396932 
L 147.733772 32.844484 
L 148.818894 32.844484 
L 148.818894 36.936084 
L 149.904017 36.936084 
L 149.904017 30.344061 
L 150.989139 30.344061 
L 150.989139 30.495602 
L 152.074261 30.495602 
L 152.074261 27.313246 
L 153.159384 27.313246 
L 153.159384 30.078865 
L 154.244506 30.078865 
L 154.244506 32.920254 
L 155.329629 32.920254 
L 155.329629 28.639228 
L 156.414751 28.639228 
L 156.414751 25.532643 
L 157.499873 25.532643 
L 157.499873 29.510587 
L 158.584996 29.510587 
L 158.584996 24.130891 
L 159.670118 24.130891 
L 159.670118 28.714998 
L 160.75524 28.714998 
L 160.75524 27.237476 
L 161.840363 27.237476 
L 161.840363 23.789924 
L 162.925485 23.789924 
L 162.925485 30.344061 
L 164.010608 30.344061 
L 164.010608 26.479772 
L 165.09573 26.479772 
L 165.09573 25.722069 
L 166.180852 25.722069 
L 166.180852 28.260376 
L 167.265975 28.260376 
L 167.265975 21.365272 
L 168.351097 21.365272 
L 168.351097 29.283276 
L 169.43622 29.283276 
L 169.43622 28.980195 
L 170.521342 28.980195 
L 170.521342 31.366962 
L 171.606464 31.366962 
L 171.606464 24.130891 
L 172.691587 24.130891 
L 172.691587 29.548473 
L 173.776709 29.548473 
L 173.776709 23.183761 
L 174.861831 23.183761 
L 174.861831 28.108835 
L 175.946954 28.108835 
L 175.946954 26.441887 
L 177.032076 26.441887 
L 177.032076 29.131735 
L 178.117199 29.131735 
L 178.117199 28.184606 
L 179.202321 28.184606 
L 179.202321 25.153791 
L 180.287443 25.153791 
L 180.287443 25.343217 
L 181.372566 25.343217 
L 181.372566 24.509743 
L 182.457688 24.509743 
L 182.457688 26.896509 
L 183.54281 26.896509 
L 183.54281 28.980195 
L 184.627933 28.980195 
L 184.627933 27.729984 
L 185.713055 27.729984 
L 185.713055 25.94938 
L 186.798178 25.94938 
L 186.798178 26.214576 
L 187.8833 26.214576 
L 187.8833 29.889439 
L 188.968422 29.889439 
L 188.968422 26.328232 
L 190.053545 26.328232 
L 190.053545 30.192521 
L 191.138667 30.192521 
L 191.138667 28.374032 
L 192.223789 28.374032 
L 192.223789 23.97935 
L 193.308912 23.97935 
L 193.308912 29.09385 
L 194.394034 29.09385 
L 194.394034 23.789924 
L 195.479157 23.789924 
L 195.479157 22.274516 
L 196.564279 22.274516 
L 196.564279 22.767024 
L 197.649401 22.767024 
L 197.649401 23.486842 
L 198.734524 23.486842 
L 198.734524 25.797839 
L 199.819646 25.797839 
L 199.819646 25.494757 
L 200.904769 25.494757 
L 200.904769 24.964365 
L 201.989891 24.964365 
L 201.989891 27.616328 
L 203.075013 27.616328 
L 203.075013 24.888594 
L 204.160136 24.888594 
L 204.160136 22.539713 
L 205.245258 22.539713 
L 205.245258 29.737898 
L 206.33038 29.737898 
L 206.33038 26.97228 
L 207.415503 26.97228 
L 207.415503 27.12382 
L 208.500625 27.12382 
L 208.500625 29.321161 
L 209.585748 29.321161 
L 209.585748 26.858624 
L 210.67087 26.858624 
L 210.67087 27.729984 
L 211.755992 27.729984 
L 211.755992 25.797839 
L 212.841115 25.797839 
L 212.841115 27.237476 
L 213.926237 27.237476 
L 213.926237 27.654213 
L 215.011359 27.654213 
L 215.011359 28.260376 
L 216.096482 28.260376 
L 216.096482 25.153791 
L 217.181604 25.153791 
L 217.181604 21.744124 
L 218.266727 21.744124 
L 218.266727 25.722069 
L 219.351849 25.722069 
L 219.351849 26.252461 
L 220.436971 26.252461 
L 220.436971 22.653368 
L 221.522094 22.653368 
L 221.522094 27.085935 
L 222.607216 27.085935 
L 222.607216 23.524728 
L 223.692338 23.524728 
L 223.692338 21.744124 
L 224.777461 21.744124 
L 224.777461 27.843639 
L 225.862583 27.843639 
L 225.862583 26.858624 
L 226.947706 26.858624 
L 226.947706 22.729139 
L 228.032828 22.729139 
L 228.032828 25.267446 
L 229.11795 25.267446 
L 229.11795 20.948535 
L 230.203073 20.948535 
L 230.203073 31.935239 
L 231.288195 31.935239 
L 231.288195 27.237476 
L 232.373317 27.237476 
L 232.373317 33.564302 
L 233.45844 33.564302 
L 233.45844 21.365272 
L 234.543562 21.365272 
L 234.543562 21.782009 
L 235.628685 21.782009 
L 235.628685 31.13965 
L 236.713807 31.13965 
L 236.713807 21.706239 
L 237.798929 21.706239 
L 237.798929 23.297416 
L 238.884052 23.297416 
L 238.884052 27.313246 
L 239.969174 27.313246 
L 239.969174 27.99518 
L 241.054297 27.99518 
L 241.054297 26.290346 
L 242.139419 26.290346 
L 242.139419 23.600498 
L 243.224541 23.600498 
L 243.224541 29.472702 
L 244.309664 29.472702 
L 244.309664 27.313246 
L 245.394786 27.313246 
L 245.394786 25.759954 
L 246.479908 25.759954 
L 246.479908 18.561768 
L 247.565031 18.561768 
L 247.565031 30.078865 
L 248.650153 30.078865 
L 248.650153 28.07095 
L 249.735276 28.07095 
L 249.735276 25.532643 
L 250.820398 25.532643 
L 250.820398 25.684183 
L 251.90552 25.684183 
L 251.90552 27.04805 
L 252.990643 27.04805 
L 252.990643 26.631313 
L 254.075765 26.631313 
L 254.075765 29.169621 
L 255.160887 29.169621 
L 255.160887 30.950225 
L 256.24601 30.950225 
L 256.24601 33.943154 
L 257.331132 33.943154 
L 257.331132 46.558922 
L 258.416255 46.558922 
L 258.416255 49.817048 
L 259.501377 49.817048 
L 259.501377 59.17469 
L 260.586499 59.17469 
L 260.586499 69.32792 
L 261.671622 69.32792 
L 261.671622 75.124354 
L 262.756744 75.124354 
L 262.756744 84.633536 
L 263.841866 84.633536 
L 263.841866 98.46163 
L 264.926989 98.46163 
L 264.926989 100.696856 
L 266.012111 100.696856 
L 266.012111 111.569905 
L 267.097234 111.569905 
L 267.097234 116.457094 
L 268.182356 116.457094 
L 268.182356 124.981262 
L 269.267478 124.981262 
L 269.267478 130.550384 
L 270.352601 130.550384 
L 270.352601 137.369718 
L 271.437723 137.369718 
L 271.437723 144.075397 
L 272.522846 144.075397 
L 272.522846 149.038356 
L 273.607968 149.038356 
L 273.607968 154.342283 
L 274.69309 154.342283 
L 274.69309 158.244457 
L 275.778213 158.244457 
L 275.778213 164.003006 
L 276.863335 164.003006 
L 276.863335 173.322762 
L 277.948457 173.322762 
L 277.948457 175.179136 
L 279.03358 175.179136 
L 279.03358 181.505963 
L 280.118702 181.505963 
L 280.118702 180.672488 
L 281.203825 180.672488 
L 281.203825 184.801974 
L 282.288947 184.801974 
L 282.288947 190.787834 
L 283.374069 190.787834 
L 283.374069 192.833634 
L 284.459192 192.833634 
L 284.459192 190.143786 
L 285.544314 190.143786 
L 285.544314 195.978105 
L 286.629436 195.978105 
L 286.629436 199.804509 
L 287.714559 199.804509 
L 287.714559 201.812423 
L 288.799681 201.812423 
L 288.799681 204.767468 
L 289.884804 204.767468 
L 289.884804 208.101365 
L 290.969926 208.101365 
L 290.969926 210.412361 
L 292.055048 210.412361 
L 292.055048 210.222935 
L 293.140171 210.222935 
L 293.140171 212.344506 
L 294.225293 212.344506 
L 294.225293 210.563902 
L 295.310415 210.563902 
L 295.310415 215.451091 
L 296.395538 215.451091 
L 296.395538 217.307465 
L 297.48066 217.307465 
L 297.48066 219.353266 
L 298.565783 219.353266 
L 298.565783 218.671332 
L 299.650905 218.671332 
L 299.650905 221.550607 
L 300.736027 221.550607 
L 300.736027 221.929458 
L 301.82115 221.929458 
L 301.82115 223.785833 
L 302.906272 223.785833 
L 302.906272 226.134714 
L 303.991394 226.134714 
L 303.991394 226.362025 
L 305.076517 226.362025 
L 305.076517 227.043959 
L 306.161639 227.043959 
L 306.161639 229.695922 
L 307.246762 229.695922 
L 307.246762 229.089759 
L 308.331884 229.089759 
L 308.331884 229.203415 
L 309.417006 229.203415 
L 309.417006 231.173444 
L 310.502129 231.173444 
L 310.502129 231.628067 
L 311.587251 231.628067 
L 311.587251 231.173444 
L 312.672374 231.173444 
L 312.672374 233.40867 
L 313.757496 233.40867 
L 313.757496 234.393685 
L 314.842618 234.393685 
L 314.842618 234.961963 
L 315.927741 234.961963 
L 315.927741 235.643897 
L 317.012863 235.643897 
L 317.012863 235.113504 
L 318.097985 235.113504 
L 318.097985 236.856223 
L 319.183108 236.856223 
L 319.183108 235.757552 
L 320.26823 235.757552 
L 320.26823 237.500271 
L 321.353353 237.500271 
L 321.353353 238.902023 
L 322.438475 238.902023 
L 322.438475 237.992778 
L 324.60872 238.068549 
L 324.60872 238.409515 
L 325.693842 238.409515 
L 325.693842 239.697612 
L 326.778964 239.697612 
L 326.778964 239.356645 
L 327.864087 239.356645 
L 327.864087 239.015678 
L 328.949209 239.015678 
L 328.949209 239.735497 
L 330.034332 239.735497 
L 330.034332 240.303775 
L 331.119454 240.303775 
L 331.119454 241.326675 
L 332.204576 241.326675 
L 332.204576 240.455316 
L 333.289699 240.455316 
L 333.289699 241.857067 
L 334.374821 241.857067 
L 334.374821 241.478216 
L 335.459943 241.478216 
L 335.459943 242.38746 
L 336.545066 242.38746 
L 336.545066 241.857067 
L 337.630188 241.857067 
L 337.630188 242.576886 
L 338.715311 242.576886 
L 338.715311 242.235919 
L 339.800433 242.235919 
L 339.800433 243.031508 
L 340.885555 243.031508 
L 340.885555 242.766312 
L 341.970678 242.766312 
L 341.970678 243.448245 
L 344.140923 243.372475 
L 344.140923 243.069393 
L 346.311167 243.107279 
L 346.311167 243.524016 
L 347.39629 243.524016 
L 347.39629 243.864982 
L 348.481412 243.864982 
L 348.481412 243.713442 
L 350.651657 243.713442 
L 350.651657 243.41036 
L 351.736779 243.41036 
L 351.736779 244.395375 
L 352.821902 244.395375 
L 352.821902 244.243834 
L 354.992146 244.205949 
L 354.992146 244.054408 
L 356.077269 244.054408 
L 356.077269 244.243834 
L 357.162391 244.243834 
L 357.162391 244.660571 
L 359.332636 244.584801 
L 359.332636 244.130179 
L 361.502881 244.205949 
L 361.502881 244.774227 
L 363.673125 244.774227 
L 363.673125 244.925768 
L 364.758248 244.925768 
L 364.758248 244.812112 
L 365.84337 244.812112 
L 365.84337 244.963653 
L 366.928492 244.963653 
L 366.928492 244.812112 
L 368.013615 244.812112 
L 368.013615 245.228849 
L 369.098737 245.228849 
L 369.098737 245.45616 
L 370.18386 245.45616 
L 370.18386 245.077308 
L 371.268982 245.077308 
L 371.268982 245.266734 
L 372.354104 245.266734 
L 372.354104 245.45616 
L 373.439227 245.45616 
L 373.439227 245.077308 
L 374.524349 245.077308 
L 374.524349 245.494046 
L 375.609471 245.494046 
L 375.609471 245.190964 
L 376.694594 245.190964 
L 376.694594 245.683471 
L 377.779716 245.683471 
L 377.779716 245.001538 
L 378.864839 245.001538 
L 378.864839 245.45616 
L 381.035083 245.45616 
L 381.035083 245.759242 
L 382.120206 245.759242 
L 382.120206 245.45616 
L 383.205328 245.45616 
L 383.205328 245.569816 
L 387.545818 245.569816 
L 387.545818 245.45616 
L 388.63094 245.45616 
L 388.63094 245.797127 
L 391.886307 245.721357 
L 391.886307 245.645586 
L 395.141674 245.607701 
L 395.141674 245.607701 
" clip-path="url(#p6699e1780f)" style="fill: none; stroke: #1f77b4; stroke-width: 1.5; stroke-linecap: square"/>
   </g>
   <g id="patch_3">
    <path d="M 53.328125 257.158895 
L 53.328125 7.2 
" style="fill: none; stroke: #000000; stroke-width: 0.8; stroke-linejoin: miter; stroke-linecap: square"/>
   </g>
   <g id="patch_4">
    <path d="M 411.41851 257.158895 
L 411.41851 7.2 
" style="fill: none; stroke: #000000; stroke-width: 0.8; stroke-linejoin: miter; stroke-linecap: square"/>
   </g>
   <g id="patch_5">
    <path d="M 53.328125 257.158895 
L 411.41851 257.158895 
" style="fill: none; stroke: #000000; stroke-width: 0.8; stroke-linejoin: miter; stroke-linecap: square"/>
   </g>
   <g id="patch_6">
    <path d="M 53.328125 7.2 
L 411.41851 7.2 
" style="fill: none; stroke: #000000; stroke-width: 0.8; stroke-linejoin: miter; stroke-linecap: square"/>
   </g>
  </g>
  <g id="axes_2">
   <g id="patch_7">
    <path d="M 507.109135 257.158895 
L 865.19952 257.158895 
L 865.19952 7.2 
L 507.109135 7.2 
z
" style="fill: #ffffff"/>
   </g>
   <g id="matplotlib.axis_3">
    <g id="xtick_7">
     <g id="line2d_15">
      <g>
       <use xlink:href="#m0116e84a9a" x="520.104388" y="257.158895" style="stroke: #000000; stroke-width: 0.8"/>
      </g>
     </g>
     <g id="text_16">
      <!-- 0.0 -->
      <g transform="translate(512.152826 271.757332) scale(0.1 -0.1)">
       <defs>
        <path id="DejaVuSans-2e" d="M 684 794 
L 1344 794 
L 1344 0 
L 684 0 
L 684 794 
z
" transform="scale(0.015625)"/>
       </defs>
       <use xlink:href="#DejaVuSans-30"/>
       <use xlink:href="#DejaVuSans-2e" transform="translate(63.623047 0)"/>
       <use xlink:href="#DejaVuSans-30" transform="translate(95.410156 0)"/>
      </g>
     </g>
    </g>
    <g id="xtick_8">
     <g id="line2d_16">
      <g>
       <use xlink:href="#m0116e84a9a" x="561.430434" y="257.158895" style="stroke: #000000; stroke-width: 0.8"/>
      </g>
     </g>
     <g id="text_17">
      <!-- 2.5 -->
      <g transform="translate(553.478872 271.757332) scale(0.1 -0.1)">
       <use xlink:href="#DejaVuSans-32"/>
       <use xlink:href="#DejaVuSans-2e" transform="translate(63.623047 0)"/>
       <use xlink:href="#DejaVuSans-35" transform="translate(95.410156 0)"/>
      </g>
     </g>
    </g>
    <g id="xtick_9">
     <g id="line2d_17">
      <g>
       <use xlink:href="#m0116e84a9a" x="602.75648" y="257.158895" style="stroke: #000000; stroke-width: 0.8"/>
      </g>
     </g>
     <g id="text_18">
      <!-- 5.0 -->
      <g transform="translate(594.804917 271.757332) scale(0.1 -0.1)">
       <use xlink:href="#DejaVuSans-35"/>
       <use xlink:href="#DejaVuSans-2e" transform="translate(63.623047 0)"/>
       <use xlink:href="#DejaVuSans-30" transform="translate(95.410156 0)"/>
      </g>
     </g>
    </g>
    <g id="xtick_10">
     <g id="line2d_18">
      <g>
       <use xlink:href="#m0116e84a9a" x="644.082526" y="257.158895" style="stroke: #000000; stroke-width: 0.8"/>
      </g>
     </g>
     <g id="text_19">
      <!-- 7.5 -->
      <g transform="translate(636.130963 271.757332) scale(0.1 -0.1)">
       <defs>
        <path id="DejaVuSans-37" d="M 525 4666 
L 3525 4666 
L 3525 4397 
L 1831 0 
L 1172 0 
L 2766 4134 
L 525 4134 
L 525 4666 
z
" transform="scale(0.015625)"/>
       </defs>
       <use xlink:href="#DejaVuSans-37"/>
       <use xlink:href="#DejaVuSans-2e" transform="translate(63.623047 0)"/>
       <use xlink:href="#DejaVuSans-35" transform="translate(95.410156 0)"/>
      </g>
     </g>
    </g>
    <g id="xtick_11">
     <g id="line2d_19">
      <g>
       <use xlink:href="#m0116e84a9a" x="685.408572" y="257.158895" style="stroke: #000000; stroke-width: 0.8"/>
      </g>
     </g>
     <g id="text_20">
      <!-- 10.0 -->
      <g transform="translate(674.275759 271.757332) scale(0.1 -0.1)">
       <use xlink:href="#DejaVuSans-31"/>
       <use xlink:href="#DejaVuSans-30" transform="translate(63.623047 0)"/>
       <use xlink:href="#DejaVuSans-2e" transform="translate(127.246094 0)"/>
       <use xlink:href="#DejaVuSans-30" transform="translate(159.033203 0)"/>
      </g>
     </g>
    </g>
    <g id="xtick_12">
     <g id="line2d_20">
      <g>
       <use xlink:href="#m0116e84a9a" x="726.734617" y="257.158895" style="stroke: #000000; stroke-width: 0.8"/>
      </g>
     </g>
     <g id="text_21">
      <!-- 12.5 -->
      <g transform="translate(715.601805 271.757332) scale(0.1 -0.1)">
       <use xlink:href="#DejaVuSans-31"/>
       <use xlink:href="#DejaVuSans-32" transform="translate(63.623047 0)"/>
       <use xlink:href="#DejaVuSans-2e" transform="translate(127.246094 0)"/>
       <use xlink:href="#DejaVuSans-35" transform="translate(159.033203 0)"/>
      </g>
     </g>
    </g>
    <g id="xtick_13">
     <g id="line2d_21">
      <g>
       <use xlink:href="#m0116e84a9a" x="768.060663" y="257.158895" style="stroke: #000000; stroke-width: 0.8"/>
      </g>
     </g>
     <g id="text_22">
      <!-- 15.0 -->
      <g transform="translate(756.927851 271.757332) scale(0.1 -0.1)">
       <use xlink:href="#DejaVuSans-31"/>
       <use xlink:href="#DejaVuSans-35" transform="translate(63.623047 0)"/>
       <use xlink:href="#DejaVuSans-2e" transform="translate(127.246094 0)"/>
       <use xlink:href="#DejaVuSans-30" transform="translate(159.033203 0)"/>
      </g>
     </g>
    </g>
    <g id="xtick_14">
     <g id="line2d_22">
      <g>
       <use xlink:href="#m0116e84a9a" x="809.386709" y="257.158895" style="stroke: #000000; stroke-width: 0.8"/>
      </g>
     </g>
     <g id="text_23">
      <!-- 17.5 -->
      <g transform="translate(798.253897 271.757332) scale(0.1 -0.1)">
       <use xlink:href="#DejaVuSans-31"/>
       <use xlink:href="#DejaVuSans-37" transform="translate(63.623047 0)"/>
       <use xlink:href="#DejaVuSans-2e" transform="translate(127.246094 0)"/>
       <use xlink:href="#DejaVuSans-35" transform="translate(159.033203 0)"/>
      </g>
     </g>
    </g>
    <g id="xtick_15">
     <g id="line2d_23">
      <g>
       <use xlink:href="#m0116e84a9a" x="850.712755" y="257.158895" style="stroke: #000000; stroke-width: 0.8"/>
      </g>
     </g>
     <g id="text_24">
      <!-- 20.0 -->
      <g transform="translate(839.579943 271.757332) scale(0.1 -0.1)">
       <use xlink:href="#DejaVuSans-32"/>
       <use xlink:href="#DejaVuSans-30" transform="translate(63.623047 0)"/>
       <use xlink:href="#DejaVuSans-2e" transform="translate(127.246094 0)"/>
       <use xlink:href="#DejaVuSans-30" transform="translate(159.033203 0)"/>
      </g>
     </g>
    </g>
    <g id="text_25">
     <!-- wavelength [Å] -->
     <g transform="translate(648.116827 287.119832) scale(0.1 -0.1)">
      <defs>
       <path id="DejaVuSans-77" d="M 269 3500 
L 844 3500 
L 1563 769 
L 2278 3500 
L 2956 3500 
L 3675 769 
L 4391 3500 
L 4966 3500 
L 4050 0 
L 3372 0 
L 2619 2869 
L 1863 0 
L 1184 0 
L 269 3500 
z
" transform="scale(0.015625)"/>
       <path id="DejaVuSans-61" d="M 2194 1759 
Q 1497 1759 1228 1600 
Q 959 1441 959 1056 
Q 959 750 1161 570 
Q 1363 391 1709 391 
Q 2188 391 2477 730 
Q 2766 1069 2766 1631 
L 2766 1759 
L 2194 1759 
z
M 3341 1997 
L 3341 0 
L 2766 0 
L 2766 531 
Q 2569 213 2275 61 
Q 1981 -91 1556 -91 
Q 1019 -91 701 211 
Q 384 513 384 1019 
Q 384 1609 779 1909 
Q 1175 2209 1959 2209 
L 2766 2209 
L 2766 2266 
Q 2766 2663 2505 2880 
Q 2244 3097 1772 3097 
Q 1472 3097 1187 3025 
Q 903 2953 641 2809 
L 641 3341 
Q 956 3463 1253 3523 
Q 1550 3584 1831 3584 
Q 2591 3584 2966 3190 
Q 3341 2797 3341 1997 
z
" transform="scale(0.015625)"/>
       <path id="DejaVuSans-76" d="M 191 3500 
L 800 3500 
L 1894 563 
L 2988 3500 
L 3597 3500 
L 2284 0 
L 1503 0 
L 191 3500 
z
" transform="scale(0.015625)"/>
       <path id="DejaVuSans-67" d="M 2906 1791 
Q 2906 2416 2648 2759 
Q 2391 3103 1925 3103 
Q 1463 3103 1205 2759 
Q 947 2416 947 1791 
Q 947 1169 1205 825 
Q 1463 481 1925 481 
Q 2391 481 2648 825 
Q 2906 1169 2906 1791 
z
M 3481 434 
Q 3481 -459 3084 -895 
Q 2688 -1331 1869 -1331 
Q 1566 -1331 1297 -1286 
Q 1028 -1241 775 -1147 
L 775 -588 
Q 1028 -725 1275 -790 
Q 1522 -856 1778 -856 
Q 2344 -856 2625 -561 
Q 2906 -266 2906 331 
L 2906 616 
Q 2728 306 2450 153 
Q 2172 0 1784 0 
Q 1141 0 747 490 
Q 353 981 353 1791 
Q 353 2603 747 3093 
Q 1141 3584 1784 3584 
Q 2172 3584 2450 3431 
Q 2728 3278 2906 2969 
L 2906 3500 
L 3481 3500 
L 3481 434 
z
" transform="scale(0.015625)"/>
       <path id="DejaVuSans-c5" d="M 2663 5081 
Q 2663 5278 2523 5417 
Q 2384 5556 2188 5556 
Q 1988 5556 1852 5420 
Q 1716 5284 1716 5081 
Q 1716 4884 1853 4746 
Q 1991 4609 2188 4609 
Q 2384 4609 2523 4746 
Q 2663 4884 2663 5081 
z
M 2188 4044 
L 1338 1722 
L 3041 1722 
L 2188 4044 
z
M 1716 4366 
Q 1525 4494 1428 4673 
Q 1331 4853 1331 5081 
Q 1331 5441 1579 5691 
Q 1828 5941 2188 5941 
Q 2544 5941 2795 5689 
Q 3047 5438 3047 5081 
Q 3047 4863 2948 4678 
Q 2850 4494 2663 4366 
L 4325 0 
L 3669 0 
L 3244 1197 
L 1141 1197 
L 716 0 
L 50 0 
L 1716 4366 
z
" transform="scale(0.015625)"/>
      </defs>
      <use xlink:href="#DejaVuSans-77"/>
      <use xlink:href="#DejaVuSans-61" transform="translate(81.787109 0)"/>
      <use xlink:href="#DejaVuSans-76" transform="translate(143.066406 0)"/>
      <use xlink:href="#DejaVuSans-65" transform="translate(202.246094 0)"/>
      <use xlink:href="#DejaVuSans-6c" transform="translate(263.769531 0)"/>
      <use xlink:href="#DejaVuSans-65" transform="translate(291.552734 0)"/>
      <use xlink:href="#DejaVuSans-6e" transform="translate(353.076172 0)"/>
      <use xlink:href="#DejaVuSans-67" transform="translate(416.455078 0)"/>
      <use xlink:href="#DejaVuSans-74" transform="translate(479.931641 0)"/>
      <use xlink:href="#DejaVuSans-68" transform="translate(519.140625 0)"/>
      <use xlink:href="#DejaVuSans-20" transform="translate(582.519531 0)"/>
      <use xlink:href="#DejaVuSans-5b" transform="translate(614.306641 0)"/>
      <use xlink:href="#DejaVuSans-c5" transform="translate(653.320312 0)"/>
      <use xlink:href="#DejaVuSans-5d" transform="translate(721.728516 0)"/>
     </g>
    </g>
   </g>
   <g id="matplotlib.axis_4">
    <g id="ytick_8">
     <g id="line2d_24">
      <g>
       <use xlink:href="#mf4d08e0a4d" x="507.109135" y="245.849464" style="stroke: #000000; stroke-width: 0.8"/>
      </g>
     </g>
     <g id="text_26">
      <!-- 0 -->
      <g transform="translate(493.746635 249.648682) scale(0.1 -0.1)">
       <use xlink:href="#DejaVuSans-30"/>
      </g>
     </g>
    </g>
    <g id="ytick_9">
     <g id="line2d_25">
      <g>
       <use xlink:href="#mf4d08e0a4d" x="507.109135" y="193.512792" style="stroke: #000000; stroke-width: 0.8"/>
      </g>
     </g>
     <g id="text_27">
      <!-- 5000 -->
      <g transform="translate(474.659135 197.312011) scale(0.1 -0.1)">
       <use xlink:href="#DejaVuSans-35"/>
       <use xlink:href="#DejaVuSans-30" transform="translate(63.623047 0)"/>
       <use xlink:href="#DejaVuSans-30" transform="translate(127.246094 0)"/>
       <use xlink:href="#DejaVuSans-30" transform="translate(190.869141 0)"/>
      </g>
     </g>
    </g>
    <g id="ytick_10">
     <g id="line2d_26">
      <g>
       <use xlink:href="#mf4d08e0a4d" x="507.109135" y="141.176121" style="stroke: #000000; stroke-width: 0.8"/>
      </g>
     </g>
     <g id="text_28">
      <!-- 10000 -->
      <g transform="translate(468.296635 144.97534) scale(0.1 -0.1)">
       <use xlink:href="#DejaVuSans-31"/>
       <use xlink:href="#DejaVuSans-30" transform="translate(63.623047 0)"/>
       <use xlink:href="#DejaVuSans-30" transform="translate(127.246094 0)"/>
       <use xlink:href="#DejaVuSans-30" transform="translate(190.869141 0)"/>
       <use xlink:href="#DejaVuSans-30" transform="translate(254.492188 0)"/>
      </g>
     </g>
    </g>
    <g id="ytick_11">
     <g id="line2d_27">
      <g>
       <use xlink:href="#mf4d08e0a4d" x="507.109135" y="88.83945" style="stroke: #000000; stroke-width: 0.8"/>
      </g>
     </g>
     <g id="text_29">
      <!-- 15000 -->
      <g transform="translate(468.296635 92.638669) scale(0.1 -0.1)">
       <use xlink:href="#DejaVuSans-31"/>
       <use xlink:href="#DejaVuSans-35" transform="translate(63.623047 0)"/>
       <use xlink:href="#DejaVuSans-30" transform="translate(127.246094 0)"/>
       <use xlink:href="#DejaVuSans-30" transform="translate(190.869141 0)"/>
       <use xlink:href="#DejaVuSans-30" transform="translate(254.492188 0)"/>
      </g>
     </g>
    </g>
    <g id="ytick_12">
     <g id="line2d_28">
      <g>
       <use xlink:href="#mf4d08e0a4d" x="507.109135" y="36.502779" style="stroke: #000000; stroke-width: 0.8"/>
      </g>
     </g>
     <g id="text_30">
      <!-- 20000 -->
      <g transform="translate(468.296635 40.301998) scale(0.1 -0.1)">
       <use xlink:href="#DejaVuSans-32"/>
       <use xlink:href="#DejaVuSans-30" transform="translate(63.623047 0)"/>
       <use xlink:href="#DejaVuSans-30" transform="translate(127.246094 0)"/>
       <use xlink:href="#DejaVuSans-30" transform="translate(190.869141 0)"/>
       <use xlink:href="#DejaVuSans-30" transform="translate(254.492188 0)"/>
      </g>
     </g>
    </g>
    <g id="text_31">
     <!-- pulse:0 [counts] -->
     <g transform="translate(462.216947 172.659916) rotate(-90) scale(0.1 -0.1)">
      <use xlink:href="#DejaVuSans-70"/>
      <use xlink:href="#DejaVuSans-75" transform="translate(63.476562 0)"/>
      <use xlink:href="#DejaVuSans-6c" transform="translate(126.855469 0)"/>
      <use xlink:href="#DejaVuSans-73" transform="translate(154.638672 0)"/>
      <use xlink:href="#DejaVuSans-65" transform="translate(206.738281 0)"/>
      <use xlink:href="#DejaVuSans-3a" transform="translate(268.261719 0)"/>
      <use xlink:href="#DejaVuSans-30" transform="translate(301.953125 0)"/>
      <use xlink:href="#DejaVuSans-20" transform="translate(365.576172 0)"/>
      <use xlink:href="#DejaVuSans-5b" transform="translate(397.363281 0)"/>
      <use xlink:href="#DejaVuSans-63" transform="translate(436.376953 0)"/>
      <use xlink:href="#DejaVuSans-6f" transform="translate(491.357422 0)"/>
      <use xlink:href="#DejaVuSans-75" transform="translate(552.539062 0)"/>
      <use xlink:href="#DejaVuSans-6e" transform="translate(615.917969 0)"/>
      <use xlink:href="#DejaVuSans-74" transform="translate(679.296875 0)"/>
      <use xlink:href="#DejaVuSans-73" transform="translate(718.505859 0)"/>
      <use xlink:href="#DejaVuSans-5d" transform="translate(770.605469 0)"/>
     </g>
    </g>
   </g>
   <g id="line2d_29">
    <path d="M 523.385971 158.551896 
L 524.471093 158.551896 
L 524.471093 147.414652 
L 525.556215 147.414652 
L 525.556215 140.673689 
L 526.641338 140.673689 
L 526.641338 138.800036 
L 527.72646 138.800036 
L 527.72646 146.995959 
L 528.811583 146.995959 
L 528.811583 149.183632 
L 529.896705 149.183632 
L 529.896705 143.876694 
L 530.981827 143.876694 
L 530.981827 125.255306 
L 532.06695 125.255306 
L 532.06695 104.488115 
L 533.152072 104.488115 
L 533.152072 81.282035 
L 534.237194 81.282035 
L 534.237194 64.544767 
L 535.322317 64.544767 
L 535.322317 37.183156 
L 536.407439 37.183156 
L 536.407439 26.673952 
L 537.492562 26.673952 
L 537.492562 25.323666 
L 538.577684 25.323666 
L 538.577684 18.561768 
L 539.662806 18.561768 
L 539.662806 28.254519 
L 540.747929 28.254519 
L 540.747929 35.215297 
L 541.833051 35.215297 
L 541.833051 41.495697 
L 542.918173 41.495697 
L 542.918173 49.356665 
L 544.003296 49.356665 
L 544.003296 61.090547 
L 545.088418 61.090547 
L 545.088418 70.511148 
L 546.173541 70.511148 
L 546.173541 77.775478 
L 547.258663 77.775478 
L 547.258663 87.175144 
L 548.343785 87.175144 
L 548.343785 93.623022 
L 549.428908 93.623022 
L 549.428908 93.110122 
L 550.51403 93.110122 
L 550.51403 98.45893 
L 551.599153 98.45893 
L 551.599153 96.721353 
L 552.684275 96.721353 
L 552.684275 94.795363 
L 553.769397 94.795363 
L 553.769397 94.418539 
L 554.85452 94.418539 
L 554.85452 85.594576 
L 555.939642 85.594576 
L 555.939642 78.644267 
L 557.024764 78.644267 
L 557.024764 74.174715 
L 558.109887 74.174715 
L 558.109887 62.92233 
L 559.195009 62.92233 
L 559.195009 51.879293 
L 560.280132 51.879293 
L 560.280132 47.346937 
L 561.365254 47.346937 
L 561.365254 36.282965 
L 562.450376 36.282965 
L 562.450376 33.561458 
L 563.535499 33.561458 
L 563.535499 48.268063 
L 564.620621 48.268063 
L 564.620621 52.454996 
L 565.705743 52.454996 
L 565.705743 59.918206 
L 566.790866 59.918206 
L 566.790866 71.830032 
L 567.875988 71.830032 
L 567.875988 81.166894 
L 568.961111 81.166894 
L 568.961111 89.603565 
L 570.046233 89.603565 
L 570.046233 99.40099 
L 571.131355 99.40099 
L 571.131355 104.111291 
L 572.216478 104.111291 
L 572.216478 109.585707 
L 573.3016 109.585707 
L 573.3016 119.330795 
L 574.386722 119.330795 
L 574.386722 126.469517 
L 575.471845 126.469517 
L 575.471845 130.436636 
L 576.556967 130.436636 
L 576.556967 140.244529 
L 577.64209 140.244529 
L 577.64209 142.777623 
L 578.727212 142.777623 
L 578.727212 147.665869 
L 579.812334 147.665869 
L 579.812334 152.323832 
L 580.897457 152.323832 
L 580.897457 157.369087 
L 581.982579 157.369087 
L 581.982579 161.242001 
L 583.067702 161.242001 
L 583.067702 168.474929 
L 584.152824 168.474929 
L 584.152824 169.354185 
L 585.237946 169.354185 
L 585.237946 172.892144 
L 586.323069 172.892144 
L 586.323069 177.037208 
L 587.408191 177.037208 
L 587.408191 179.706379 
L 588.493313 179.706379 
L 588.493313 182.91985 
L 589.578436 182.91985 
L 589.578436 187.033513 
L 590.663558 187.033513 
L 590.663558 187.51501 
L 591.748681 187.51501 
L 591.748681 191.461195 
L 592.833803 191.461195 
L 592.833803 194.036159 
L 593.918925 194.036159 
L 593.918925 194.852611 
L 595.004048 194.852611 
L 595.004048 198.830198 
L 596.08917 198.830198 
L 596.08917 201.781987 
L 597.174292 201.781987 
L 597.174292 202.661243 
L 598.259415 202.661243 
L 598.259415 205.047795 
L 599.344537 205.047795 
L 599.344537 205.790976 
L 600.42966 205.790976 
L 600.42966 207.999583 
L 601.514782 207.999583 
L 601.514782 210.113985 
L 602.599904 210.113985 
L 602.599904 211.34913 
L 603.685027 211.34913 
L 603.685027 212.657547 
L 604.770149 212.657547 
L 604.770149 214.091572 
L 605.855271 214.091572 
L 605.855271 216.195506 
L 606.940394 216.195506 
L 606.940394 216.603732 
L 608.025516 216.603732 
L 608.025516 217.660933 
L 609.110639 217.660933 
L 609.110639 219.272902 
L 610.195761 219.272902 
L 610.195761 220.780198 
L 611.280883 220.780198 
L 611.280883 221.219826 
L 612.366006 221.219826 
L 612.366006 222.884132 
L 613.451128 222.884132 
L 613.451128 223.187685 
L 614.53625 223.187685 
L 614.53625 224.265821 
L 615.621373 224.265821 
L 615.621373 225.009001 
L 616.706495 225.009001 
L 616.706495 226.202277 
L 617.791618 226.202277 
L 617.791618 227.249011 
L 619.961862 227.196674 
L 619.961862 228.421352 
L 621.046985 228.421352 
L 621.046985 229.394814 
L 622.132107 229.394814 
L 622.132107 229.80304 
L 623.21723 229.80304 
L 623.21723 230.923045 
L 624.302352 230.923045 
L 624.302352 231.697628 
L 625.387474 231.697628 
L 625.387474 230.807904 
L 626.472597 230.807904 
L 626.472597 231.927909 
L 627.557719 231.927909 
L 627.557719 232.116321 
L 628.642841 232.116321 
L 628.642841 233.246793 
L 629.727964 233.246793 
L 629.727964 233.110718 
L 630.813086 233.110718 
L 630.813086 234.272592 
L 631.898209 234.272592 
L 631.898209 234.440069 
L 632.983331 234.440069 
L 632.983331 234.764557 
L 634.068453 234.764557 
L 634.068453 234.921567 
L 635.153576 234.921567 
L 635.153576 235.193717 
L 636.238698 235.193717 
L 636.238698 235.622878 
L 638.408943 235.706617 
L 638.408943 236.43933 
L 639.494065 236.43933 
L 639.494065 236.229984 
L 640.579188 236.229984 
L 640.579188 237.213913 
L 641.66431 237.213913 
L 641.66431 237.936159 
L 644.919677 237.89429 
L 644.919677 239.139902 
L 646.004799 239.139902 
L 646.004799 238.36532 
L 647.089922 238.36532 
L 647.089922 238.784013 
L 648.175044 238.784013 
L 648.175044 239.098033 
L 651.430411 239.003827 
L 651.430411 239.631867 
L 652.515534 239.631867 
L 652.515534 240.081963 
L 654.685779 240.071495 
L 654.685779 239.872616 
L 655.770901 239.872616 
L 655.770901 240.500656 
L 657.941146 240.40645 
L 657.941146 240.867013 
L 661.196513 240.929817 
L 661.196513 241.076359 
L 663.366758 241.139163 
L 663.366758 241.652063 
L 664.45188 241.652063 
L 664.45188 241.495053 
L 665.537002 241.495053 
L 665.537002 241.714867 
L 666.622125 241.714867 
L 666.622125 242.238233 
L 667.707247 242.238233 
L 667.707247 241.850942 
L 668.792369 241.850942 
L 668.792369 242.259168 
L 670.962614 242.301037 
L 670.962614 242.374309 
L 672.047737 242.374309 
L 672.047737 242.13356 
L 673.132859 242.13356 
L 673.132859 242.573188 
L 676.388226 242.520851 
L 676.388226 242.834871 
L 677.473348 242.834871 
L 677.473348 242.562721 
L 678.558471 242.562721 
L 678.558471 242.730198 
L 679.643593 242.730198 
L 679.643593 243.515248 
L 680.728716 243.515248 
L 680.728716 242.950012 
L 683.984083 242.960479 
L 683.984083 243.284967 
L 685.069205 243.284967 
L 685.069205 243.609454 
L 687.23945 243.578052 
L 687.23945 243.494314 
L 691.579939 243.58852 
L 691.579939 243.640856 
L 692.665062 243.640856 
L 692.665062 244.007213 
L 693.750184 244.007213 
L 693.750184 243.640856 
L 694.835307 243.640856 
L 694.835307 243.996746 
L 697.005551 243.90254 
L 697.005551 243.881605 
L 698.090674 243.881605 
L 698.090674 244.143288 
L 700.260918 244.153756 
L 700.260918 243.829268 
L 701.346041 243.829268 
L 701.346041 244.300298 
L 703.516286 244.195625 
L 703.516286 244.17469 
L 704.601408 244.17469 
L 704.601408 244.289831 
L 708.941897 244.3317 
L 708.941897 244.415439 
L 711.112142 244.415439 
L 711.112142 244.551514 
L 712.197265 244.551514 
L 712.197265 244.37357 
L 713.282387 244.37357 
L 713.282387 244.635253 
L 714.367509 244.635253 
L 714.367509 244.425906 
L 716.537754 244.3317 
L 716.537754 244.635253 
L 717.622876 244.635253 
L 717.622876 244.781796 
L 718.707999 244.781796 
L 718.707999 244.666655 
L 719.793121 244.666655 
L 719.793121 244.80273 
L 721.963366 244.750394 
L 721.963366 244.635253 
L 723.048488 244.635253 
L 723.048488 244.991142 
L 724.133611 244.991142 
L 724.133611 244.739926 
L 726.303856 244.834132 
L 726.303856 244.886469 
L 733.899712 244.970208 
L 733.899712 245.148152 
L 737.155079 245.190022 
L 737.155079 244.928338 
L 739.325324 245.012077 
L 739.325324 245.15862 
L 743.665814 245.064414 
L 743.665814 245.31563 
L 744.750936 245.31563 
L 744.750936 245.190022 
L 752.346793 245.294695 
L 752.346793 245.347032 
L 764.283139 245.451705 
L 764.283139 245.493574 
L 770.793873 245.43077 
L 770.793873 245.252826 
L 771.878995 245.252826 
L 771.878995 245.514509 
L 793.581443 245.58778 
L 793.581443 245.62965 
L 808.773156 245.545911 
L 808.773156 245.74479 
L 822.879747 245.74479 
L 822.879747 245.58778 
L 825.049992 245.681986 
L 825.049992 245.723856 
L 848.922684 245.78666 
L 848.922684 245.78666 
" clip-path="url(#p6062cc97c5)" style="fill: none; stroke: #1f77b4; stroke-width: 1.5; stroke-linecap: square"/>
   </g>
   <g id="patch_8">
    <path d="M 507.109135 257.158895 
L 507.109135 7.2 
" style="fill: none; stroke: #000000; stroke-width: 0.8; stroke-linejoin: miter; stroke-linecap: square"/>
   </g>
   <g id="patch_9">
    <path d="M 865.19952 257.158895 
L 865.19952 7.2 
" style="fill: none; stroke: #000000; stroke-width: 0.8; stroke-linejoin: miter; stroke-linecap: square"/>
   </g>
   <g id="patch_10">
    <path d="M 507.109135 257.158895 
L 865.19952 257.158895 
" style="fill: none; stroke: #000000; stroke-width: 0.8; stroke-linejoin: miter; stroke-linecap: square"/>
   </g>
   <g id="patch_11">
    <path d="M 507.109135 7.2 
L 865.19952 7.2 
" style="fill: none; stroke: #000000; stroke-width: 0.8; stroke-linejoin: miter; stroke-linecap: square"/>
   </g>
  </g>
 </g>
 <defs>
  <clipPath id="p6699e1780f">
   <rect x="53.328125" y="7.2" width="358.090385" height="249.958895"/>
  </clipPath>
  <clipPath id="p6062cc97c5">
   <rect x="507.109135" y="7.2" width="358.090385" height="249.958895"/>
  </clipPath>
 </defs>
</svg>
