<?xml version="1.0" encoding="utf-8" standalone="no"?>
<!DOCTYPE svg PUBLIC "-//W3C//DTD SVG 1.1//EN"
  "http://www.w3.org/Graphics/SVG/1.1/DTD/svg11.dtd">
<svg xmlns:xlink="http://www.w3.org/1999/xlink" width="395.328125pt" height="266.51625pt" viewBox="0 0 395.328125 266.51625" xmlns="http://www.w3.org/2000/svg" version="1.1">
 <metadata>
  <rdf:RDF xmlns:dc="http://purl.org/dc/elements/1.1/" xmlns:cc="http://creativecommons.org/ns#" xmlns:rdf="http://www.w3.org/1999/02/22-rdf-syntax-ns#">
   <cc:Work>
    <dc:type rdf:resource="http://purl.org/dc/dcmitype/StillImage"/>
    <dc:date>2025-10-02T14:00:48.466321</dc:date>
    <dc:format>image/svg+xml</dc:format>
    <dc:creator>
     <cc:Agent>
      <dc:title>Matplotlib v3.10.1, https://matplotlib.org/</dc:title>
     </cc:Agent>
    </dc:creator>
   </cc:Work>
  </rdf:RDF>
 </metadata>
 <defs>
  <style type="text/css">*{stroke-linejoin: round; stroke-linecap: butt}</style>
 </defs>
 <g id="figure_1">
  <g id="patch_1">
   <path d="M 0 266.51625 
L 395.328125 266.51625 
L 395.328125 0 
L 0 0 
z
" style="fill: #ffffff"/>
  </g>
  <g id="axes_1">
   <g id="patch_2">
    <path d="M 53.328125 228.96 
L 388.128125 228.96 
L 388.128125 7.2 
L 53.328125 7.2 
z
" style="fill: #ffffff"/>
   </g>
   <g id="matplotlib.axis_1">
    <g id="xtick_1">
     <g id="line2d_1">
      <defs>
       <path id="mb001ec10de" d="M 0 0 
L 0 3.5 
" style="stroke: #000000; stroke-width: 0.8"/>
      </defs>
      <g>
       <use xlink:href="#mb001ec10de" x="75.244476" y="228.96" style="stroke: #000000; stroke-width: 0.8"/>
      </g>
     </g>
     <g id="text_1">
      <!-- 20000 -->
      <g transform="translate(59.338226 243.558437) scale(0.1 -0.1)">
       <defs>
        <path id="DejaVuSans-32" d="M 1228 531 
L 3431 531 
L 3431 0 
L 469 0 
L 469 531 
Q 828 903 1448 1529 
Q 2069 2156 2228 2338 
Q 2531 2678 2651 2914 
Q 2772 3150 2772 3378 
Q 2772 3750 2511 3984 
Q 2250 4219 1831 4219 
Q 1534 4219 1204 4116 
Q 875 4013 500 3803 
L 500 4441 
Q 881 4594 1212 4672 
Q 1544 4750 1819 4750 
Q 2544 4750 2975 4387 
Q 3406 4025 3406 3419 
Q 3406 3131 3298 2873 
Q 3191 2616 2906 2266 
Q 2828 2175 2409 1742 
Q 1991 1309 1228 531 
z
" transform="scale(0.015625)"/>
        <path id="DejaVuSans-30" d="M 2034 4250 
Q 1547 4250 1301 3770 
Q 1056 3291 1056 2328 
Q 1056 1369 1301 889 
Q 1547 409 2034 409 
Q 2525 409 2770 889 
Q 3016 1369 3016 2328 
Q 3016 3291 2770 3770 
Q 2525 4250 2034 4250 
z
M 2034 4750 
Q 2819 4750 3233 4129 
Q 3647 3509 3647 2328 
Q 3647 1150 3233 529 
Q 2819 -91 2034 -91 
Q 1250 -91 836 529 
Q 422 1150 422 2328 
Q 422 3509 836 4129 
Q 1250 4750 2034 4750 
z
" transform="scale(0.015625)"/>
       </defs>
       <use xlink:href="#DejaVuSans-32"/>
       <use xlink:href="#DejaVuSans-30" transform="translate(63.623047 0)"/>
       <use xlink:href="#DejaVuSans-30" transform="translate(127.246094 0)"/>
       <use xlink:href="#DejaVuSans-30" transform="translate(190.869141 0)"/>
       <use xlink:href="#DejaVuSans-30" transform="translate(254.492188 0)"/>
      </g>
     </g>
    </g>
    <g id="xtick_2">
     <g id="line2d_2">
      <g>
       <use xlink:href="#mb001ec10de" x="122.579808" y="228.96" style="stroke: #000000; stroke-width: 0.8"/>
      </g>
     </g>
     <g id="text_2">
      <!-- 30000 -->
      <g transform="translate(106.673558 243.558437) scale(0.1 -0.1)">
       <defs>
        <path id="DejaVuSans-33" d="M 2597 2516 
Q 3050 2419 3304 2112 
Q 3559 1806 3559 1356 
Q 3559 666 3084 287 
Q 2609 -91 1734 -91 
Q 1441 -91 1130 -33 
Q 819 25 488 141 
L 488 750 
Q 750 597 1062 519 
Q 1375 441 1716 441 
Q 2309 441 2620 675 
Q 2931 909 2931 1356 
Q 2931 1769 2642 2001 
Q 2353 2234 1838 2234 
L 1294 2234 
L 1294 2753 
L 1863 2753 
Q 2328 2753 2575 2939 
Q 2822 3125 2822 3475 
Q 2822 3834 2567 4026 
Q 2313 4219 1838 4219 
Q 1578 4219 1281 4162 
Q 984 4106 628 3988 
L 628 4550 
Q 988 4650 1302 4700 
Q 1616 4750 1894 4750 
Q 2613 4750 3031 4423 
Q 3450 4097 3450 3541 
Q 3450 3153 3228 2886 
Q 3006 2619 2597 2516 
z
" transform="scale(0.015625)"/>
       </defs>
       <use xlink:href="#DejaVuSans-33"/>
       <use xlink:href="#DejaVuSans-30" transform="translate(63.623047 0)"/>
       <use xlink:href="#DejaVuSans-30" transform="translate(127.246094 0)"/>
       <use xlink:href="#DejaVuSans-30" transform="translate(190.869141 0)"/>
       <use xlink:href="#DejaVuSans-30" transform="translate(254.492188 0)"/>
      </g>
     </g>
    </g>
    <g id="xtick_3">
     <g id="line2d_3">
      <g>
       <use xlink:href="#mb001ec10de" x="169.91514" y="228.96" style="stroke: #000000; stroke-width: 0.8"/>
      </g>
     </g>
     <g id="text_3">
      <!-- 40000 -->
      <g transform="translate(154.00889 243.558437) scale(0.1 -0.1)">
       <defs>
        <path id="DejaVuSans-34" d="M 2419 4116 
L 825 1625 
L 2419 1625 
L 2419 4116 
z
M 2253 4666 
L 3047 4666 
L 3047 1625 
L 3713 1625 
L 3713 1100 
L 3047 1100 
L 3047 0 
L 2419 0 
L 2419 1100 
L 313 1100 
L 313 1709 
L 2253 4666 
z
" transform="scale(0.015625)"/>
       </defs>
       <use xlink:href="#DejaVuSans-34"/>
       <use xlink:href="#DejaVuSans-30" transform="translate(63.623047 0)"/>
       <use xlink:href="#DejaVuSans-30" transform="translate(127.246094 0)"/>
       <use xlink:href="#DejaVuSans-30" transform="translate(190.869141 0)"/>
       <use xlink:href="#DejaVuSans-30" transform="translate(254.492188 0)"/>
      </g>
     </g>
    </g>
    <g id="xtick_4">
     <g id="line2d_4">
      <g>
       <use xlink:href="#mb001ec10de" x="217.250472" y="228.96" style="stroke: #000000; stroke-width: 0.8"/>
      </g>
     </g>
     <g id="text_4">
      <!-- 50000 -->
      <g transform="translate(201.344222 243.558437) scale(0.1 -0.1)">
       <defs>
        <path id="DejaVuSans-35" d="M 691 4666 
L 3169 4666 
L 3169 4134 
L 1269 4134 
L 1269 2991 
Q 1406 3038 1543 3061 
Q 1681 3084 1819 3084 
Q 2600 3084 3056 2656 
Q 3513 2228 3513 1497 
Q 3513 744 3044 326 
Q 2575 -91 1722 -91 
Q 1428 -91 1123 -41 
Q 819 9 494 109 
L 494 744 
Q 775 591 1075 516 
Q 1375 441 1709 441 
Q 2250 441 2565 725 
Q 2881 1009 2881 1497 
Q 2881 1984 2565 2268 
Q 2250 2553 1709 2553 
Q 1456 2553 1204 2497 
Q 953 2441 691 2322 
L 691 4666 
z
" transform="scale(0.015625)"/>
       </defs>
       <use xlink:href="#DejaVuSans-35"/>
       <use xlink:href="#DejaVuSans-30" transform="translate(63.623047 0)"/>
       <use xlink:href="#DejaVuSans-30" transform="translate(127.246094 0)"/>
       <use xlink:href="#DejaVuSans-30" transform="translate(190.869141 0)"/>
       <use xlink:href="#DejaVuSans-30" transform="translate(254.492188 0)"/>
      </g>
     </g>
    </g>
    <g id="xtick_5">
     <g id="line2d_5">
      <g>
       <use xlink:href="#mb001ec10de" x="264.585804" y="228.96" style="stroke: #000000; stroke-width: 0.8"/>
      </g>
     </g>
     <g id="text_5">
      <!-- 60000 -->
      <g transform="translate(248.679554 243.558437) scale(0.1 -0.1)">
       <defs>
        <path id="DejaVuSans-36" d="M 2113 2584 
Q 1688 2584 1439 2293 
Q 1191 2003 1191 1497 
Q 1191 994 1439 701 
Q 1688 409 2113 409 
Q 2538 409 2786 701 
Q 3034 994 3034 1497 
Q 3034 2003 2786 2293 
Q 2538 2584 2113 2584 
z
M 3366 4563 
L 3366 3988 
Q 3128 4100 2886 4159 
Q 2644 4219 2406 4219 
Q 1781 4219 1451 3797 
Q 1122 3375 1075 2522 
Q 1259 2794 1537 2939 
Q 1816 3084 2150 3084 
Q 2853 3084 3261 2657 
Q 3669 2231 3669 1497 
Q 3669 778 3244 343 
Q 2819 -91 2113 -91 
Q 1303 -91 875 529 
Q 447 1150 447 2328 
Q 447 3434 972 4092 
Q 1497 4750 2381 4750 
Q 2619 4750 2861 4703 
Q 3103 4656 3366 4563 
z
" transform="scale(0.015625)"/>
       </defs>
       <use xlink:href="#DejaVuSans-36"/>
       <use xlink:href="#DejaVuSans-30" transform="translate(63.623047 0)"/>
       <use xlink:href="#DejaVuSans-30" transform="translate(127.246094 0)"/>
       <use xlink:href="#DejaVuSans-30" transform="translate(190.869141 0)"/>
       <use xlink:href="#DejaVuSans-30" transform="translate(254.492188 0)"/>
      </g>
     </g>
    </g>
    <g id="xtick_6">
     <g id="line2d_6">
      <g>
       <use xlink:href="#mb001ec10de" x="311.921135" y="228.96" style="stroke: #000000; stroke-width: 0.8"/>
      </g>
     </g>
     <g id="text_6">
      <!-- 70000 -->
      <g transform="translate(296.014885 243.558437) scale(0.1 -0.1)">
       <defs>
        <path id="DejaVuSans-37" d="M 525 4666 
L 3525 4666 
L 3525 4397 
L 1831 0 
L 1172 0 
L 2766 4134 
L 525 4134 
L 525 4666 
z
" transform="scale(0.015625)"/>
       </defs>
       <use xlink:href="#DejaVuSans-37"/>
       <use xlink:href="#DejaVuSans-30" transform="translate(63.623047 0)"/>
       <use xlink:href="#DejaVuSans-30" transform="translate(127.246094 0)"/>
       <use xlink:href="#DejaVuSans-30" transform="translate(190.869141 0)"/>
       <use xlink:href="#DejaVuSans-30" transform="translate(254.492188 0)"/>
      </g>
     </g>
    </g>
    <g id="xtick_7">
     <g id="line2d_7">
      <g>
       <use xlink:href="#mb001ec10de" x="359.256467" y="228.96" style="stroke: #000000; stroke-width: 0.8"/>
      </g>
     </g>
     <g id="text_7">
      <!-- 80000 -->
      <g transform="translate(343.350217 243.558437) scale(0.1 -0.1)">
       <defs>
        <path id="DejaVuSans-38" d="M 2034 2216 
Q 1584 2216 1326 1975 
Q 1069 1734 1069 1313 
Q 1069 891 1326 650 
Q 1584 409 2034 409 
Q 2484 409 2743 651 
Q 3003 894 3003 1313 
Q 3003 1734 2745 1975 
Q 2488 2216 2034 2216 
z
M 1403 2484 
Q 997 2584 770 2862 
Q 544 3141 544 3541 
Q 544 4100 942 4425 
Q 1341 4750 2034 4750 
Q 2731 4750 3128 4425 
Q 3525 4100 3525 3541 
Q 3525 3141 3298 2862 
Q 3072 2584 2669 2484 
Q 3125 2378 3379 2068 
Q 3634 1759 3634 1313 
Q 3634 634 3220 271 
Q 2806 -91 2034 -91 
Q 1263 -91 848 271 
Q 434 634 434 1313 
Q 434 1759 690 2068 
Q 947 2378 1403 2484 
z
M 1172 3481 
Q 1172 3119 1398 2916 
Q 1625 2713 2034 2713 
Q 2441 2713 2670 2916 
Q 2900 3119 2900 3481 
Q 2900 3844 2670 4047 
Q 2441 4250 2034 4250 
Q 1625 4250 1398 4047 
Q 1172 3844 1172 3481 
z
" transform="scale(0.015625)"/>
       </defs>
       <use xlink:href="#DejaVuSans-38"/>
       <use xlink:href="#DejaVuSans-30" transform="translate(63.623047 0)"/>
       <use xlink:href="#DejaVuSans-30" transform="translate(127.246094 0)"/>
       <use xlink:href="#DejaVuSans-30" transform="translate(190.869141 0)"/>
       <use xlink:href="#DejaVuSans-30" transform="translate(254.492188 0)"/>
      </g>
     </g>
    </g>
    <g id="text_8">
     <!-- toa [µs] -->
     <g transform="translate(201.367969 257.236562) scale(0.1 -0.1)">
      <defs>
       <path id="DejaVuSans-74" d="M 1172 4494 
L 1172 3500 
L 2356 3500 
L 2356 3053 
L 1172 3053 
L 1172 1153 
Q 1172 725 1289 603 
Q 1406 481 1766 481 
L 2356 481 
L 2356 0 
L 1766 0 
Q 1100 0 847 248 
Q 594 497 594 1153 
L 594 3053 
L 172 3053 
L 172 3500 
L 594 3500 
L 594 4494 
L 1172 4494 
z
" transform="scale(0.015625)"/>
       <path id="DejaVuSans-6f" d="M 1959 3097 
Q 1497 3097 1228 2736 
Q 959 2375 959 1747 
Q 959 1119 1226 758 
Q 1494 397 1959 397 
Q 2419 397 2687 759 
Q 2956 1122 2956 1747 
Q 2956 2369 2687 2733 
Q 2419 3097 1959 3097 
z
M 1959 3584 
Q 2709 3584 3137 3096 
Q 3566 2609 3566 1747 
Q 3566 888 3137 398 
Q 2709 -91 1959 -91 
Q 1206 -91 779 398 
Q 353 888 353 1747 
Q 353 2609 779 3096 
Q 1206 3584 1959 3584 
z
" transform="scale(0.015625)"/>
       <path id="DejaVuSans-61" d="M 2194 1759 
Q 1497 1759 1228 1600 
Q 959 1441 959 1056 
Q 959 750 1161 570 
Q 1363 391 1709 391 
Q 2188 391 2477 730 
Q 2766 1069 2766 1631 
L 2766 1759 
L 2194 1759 
z
M 3341 1997 
L 3341 0 
L 2766 0 
L 2766 531 
Q 2569 213 2275 61 
Q 1981 -91 1556 -91 
Q 1019 -91 701 211 
Q 384 513 384 1019 
Q 384 1609 779 1909 
Q 1175 2209 1959 2209 
L 2766 2209 
L 2766 2266 
Q 2766 2663 2505 2880 
Q 2244 3097 1772 3097 
Q 1472 3097 1187 3025 
Q 903 2953 641 2809 
L 641 3341 
Q 956 3463 1253 3523 
Q 1550 3584 1831 3584 
Q 2591 3584 2966 3190 
Q 3341 2797 3341 1997 
z
" transform="scale(0.015625)"/>
       <path id="DejaVuSans-20" transform="scale(0.015625)"/>
       <path id="DejaVuSans-5b" d="M 550 4863 
L 1875 4863 
L 1875 4416 
L 1125 4416 
L 1125 -397 
L 1875 -397 
L 1875 -844 
L 550 -844 
L 550 4863 
z
" transform="scale(0.015625)"/>
       <path id="DejaVuSans-b5" d="M 544 -1331 
L 544 3500 
L 1119 3500 
L 1119 1325 
Q 1119 872 1334 640 
Q 1550 409 1972 409 
Q 2434 409 2667 671 
Q 2900 934 2900 1459 
L 2900 3500 
L 3475 3500 
L 3475 806 
Q 3475 619 3529 530 
Q 3584 441 3700 441 
Q 3728 441 3778 458 
Q 3828 475 3916 513 
L 3916 50 
Q 3788 -22 3673 -56 
Q 3559 -91 3450 -91 
Q 3234 -91 3106 31 
Q 2978 153 2931 403 
Q 2775 156 2548 32 
Q 2322 -91 2016 -91 
Q 1697 -91 1473 31 
Q 1250 153 1119 397 
L 1119 -1331 
L 544 -1331 
z
" transform="scale(0.015625)"/>
       <path id="DejaVuSans-73" d="M 2834 3397 
L 2834 2853 
Q 2591 2978 2328 3040 
Q 2066 3103 1784 3103 
Q 1356 3103 1142 2972 
Q 928 2841 928 2578 
Q 928 2378 1081 2264 
Q 1234 2150 1697 2047 
L 1894 2003 
Q 2506 1872 2764 1633 
Q 3022 1394 3022 966 
Q 3022 478 2636 193 
Q 2250 -91 1575 -91 
Q 1294 -91 989 -36 
Q 684 19 347 128 
L 347 722 
Q 666 556 975 473 
Q 1284 391 1588 391 
Q 1994 391 2212 530 
Q 2431 669 2431 922 
Q 2431 1156 2273 1281 
Q 2116 1406 1581 1522 
L 1381 1569 
Q 847 1681 609 1914 
Q 372 2147 372 2553 
Q 372 3047 722 3315 
Q 1072 3584 1716 3584 
Q 2034 3584 2315 3537 
Q 2597 3491 2834 3397 
z
" transform="scale(0.015625)"/>
       <path id="DejaVuSans-5d" d="M 1947 4863 
L 1947 -844 
L 622 -844 
L 622 -397 
L 1369 -397 
L 1369 4416 
L 622 4416 
L 622 4863 
L 1947 4863 
z
" transform="scale(0.015625)"/>
      </defs>
      <use xlink:href="#DejaVuSans-74"/>
      <use xlink:href="#DejaVuSans-6f" transform="translate(39.208984 0)"/>
      <use xlink:href="#DejaVuSans-61" transform="translate(100.390625 0)"/>
      <use xlink:href="#DejaVuSans-20" transform="translate(161.669922 0)"/>
      <use xlink:href="#DejaVuSans-5b" transform="translate(193.457031 0)"/>
      <use xlink:href="#DejaVuSans-b5" transform="translate(232.470703 0)"/>
      <use xlink:href="#DejaVuSans-73" transform="translate(296.09375 0)"/>
      <use xlink:href="#DejaVuSans-5d" transform="translate(348.193359 0)"/>
     </g>
    </g>
   </g>
   <g id="matplotlib.axis_2">
    <g id="ytick_1">
     <g id="line2d_8">
      <defs>
       <path id="m444184c37a" d="M 0 0 
L -3.5 0 
" style="stroke: #000000; stroke-width: 0.8"/>
      </defs>
      <g>
       <use xlink:href="#m444184c37a" x="53.328125" y="218.88" style="stroke: #000000; stroke-width: 0.8"/>
      </g>
     </g>
     <g id="text_9">
      <!-- 0 -->
      <g transform="translate(39.965625 222.679219) scale(0.1 -0.1)">
       <use xlink:href="#DejaVuSans-30"/>
      </g>
     </g>
    </g>
    <g id="ytick_2">
     <g id="line2d_9">
      <g>
       <use xlink:href="#m444184c37a" x="53.328125" y="189.611707" style="stroke: #000000; stroke-width: 0.8"/>
      </g>
     </g>
     <g id="text_10">
      <!-- 500 -->
      <g transform="translate(27.240625 193.410926) scale(0.1 -0.1)">
       <use xlink:href="#DejaVuSans-35"/>
       <use xlink:href="#DejaVuSans-30" transform="translate(63.623047 0)"/>
       <use xlink:href="#DejaVuSans-30" transform="translate(127.246094 0)"/>
      </g>
     </g>
    </g>
    <g id="ytick_3">
     <g id="line2d_10">
      <g>
       <use xlink:href="#m444184c37a" x="53.328125" y="160.343415" style="stroke: #000000; stroke-width: 0.8"/>
      </g>
     </g>
     <g id="text_11">
      <!-- 1000 -->
      <g transform="translate(20.878125 164.142633) scale(0.1 -0.1)">
       <defs>
        <path id="DejaVuSans-31" d="M 794 531 
L 1825 531 
L 1825 4091 
L 703 3866 
L 703 4441 
L 1819 4666 
L 2450 4666 
L 2450 531 
L 3481 531 
L 3481 0 
L 794 0 
L 794 531 
z
" transform="scale(0.015625)"/>
       </defs>
       <use xlink:href="#DejaVuSans-31"/>
       <use xlink:href="#DejaVuSans-30" transform="translate(63.623047 0)"/>
       <use xlink:href="#DejaVuSans-30" transform="translate(127.246094 0)"/>
       <use xlink:href="#DejaVuSans-30" transform="translate(190.869141 0)"/>
      </g>
     </g>
    </g>
    <g id="ytick_4">
     <g id="line2d_11">
      <g>
       <use xlink:href="#m444184c37a" x="53.328125" y="131.075122" style="stroke: #000000; stroke-width: 0.8"/>
      </g>
     </g>
     <g id="text_12">
      <!-- 1500 -->
      <g transform="translate(20.878125 134.874341) scale(0.1 -0.1)">
       <use xlink:href="#DejaVuSans-31"/>
       <use xlink:href="#DejaVuSans-35" transform="translate(63.623047 0)"/>
       <use xlink:href="#DejaVuSans-30" transform="translate(127.246094 0)"/>
       <use xlink:href="#DejaVuSans-30" transform="translate(190.869141 0)"/>
      </g>
     </g>
    </g>
    <g id="ytick_5">
     <g id="line2d_12">
      <g>
       <use xlink:href="#m444184c37a" x="53.328125" y="101.806829" style="stroke: #000000; stroke-width: 0.8"/>
      </g>
     </g>
     <g id="text_13">
      <!-- 2000 -->
      <g transform="translate(20.878125 105.606048) scale(0.1 -0.1)">
       <use xlink:href="#DejaVuSans-32"/>
       <use xlink:href="#DejaVuSans-30" transform="translate(63.623047 0)"/>
       <use xlink:href="#DejaVuSans-30" transform="translate(127.246094 0)"/>
       <use xlink:href="#DejaVuSans-30" transform="translate(190.869141 0)"/>
      </g>
     </g>
    </g>
    <g id="ytick_6">
     <g id="line2d_13">
      <g>
       <use xlink:href="#m444184c37a" x="53.328125" y="72.538537" style="stroke: #000000; stroke-width: 0.8"/>
      </g>
     </g>
     <g id="text_14">
      <!-- 2500 -->
      <g transform="translate(20.878125 76.337755) scale(0.1 -0.1)">
       <use xlink:href="#DejaVuSans-32"/>
       <use xlink:href="#DejaVuSans-35" transform="translate(63.623047 0)"/>
       <use xlink:href="#DejaVuSans-30" transform="translate(127.246094 0)"/>
       <use xlink:href="#DejaVuSans-30" transform="translate(190.869141 0)"/>
      </g>
     </g>
    </g>
    <g id="ytick_7">
     <g id="line2d_14">
      <g>
       <use xlink:href="#m444184c37a" x="53.328125" y="43.270244" style="stroke: #000000; stroke-width: 0.8"/>
      </g>
     </g>
     <g id="text_15">
      <!-- 3000 -->
      <g transform="translate(20.878125 47.069463) scale(0.1 -0.1)">
       <use xlink:href="#DejaVuSans-33"/>
       <use xlink:href="#DejaVuSans-30" transform="translate(63.623047 0)"/>
       <use xlink:href="#DejaVuSans-30" transform="translate(127.246094 0)"/>
       <use xlink:href="#DejaVuSans-30" transform="translate(190.869141 0)"/>
      </g>
     </g>
    </g>
    <g id="ytick_8">
     <g id="line2d_15">
      <g>
       <use xlink:href="#m444184c37a" x="53.328125" y="14.001951" style="stroke: #000000; stroke-width: 0.8"/>
      </g>
     </g>
     <g id="text_16">
      <!-- 3500 -->
      <g transform="translate(20.878125 17.80117) scale(0.1 -0.1)">
       <use xlink:href="#DejaVuSans-33"/>
       <use xlink:href="#DejaVuSans-35" transform="translate(63.623047 0)"/>
       <use xlink:href="#DejaVuSans-30" transform="translate(127.246094 0)"/>
       <use xlink:href="#DejaVuSans-30" transform="translate(190.869141 0)"/>
      </g>
     </g>
    </g>
    <g id="text_17">
     <!-- pulse:0 [counts] -->
     <g transform="translate(14.798438 158.560469) rotate(-90) scale(0.1 -0.1)">
      <defs>
       <path id="DejaVuSans-70" d="M 1159 525 
L 1159 -1331 
L 581 -1331 
L 581 3500 
L 1159 3500 
L 1159 2969 
Q 1341 3281 1617 3432 
Q 1894 3584 2278 3584 
Q 2916 3584 3314 3078 
Q 3713 2572 3713 1747 
Q 3713 922 3314 415 
Q 2916 -91 2278 -91 
Q 1894 -91 1617 61 
Q 1341 213 1159 525 
z
M 3116 1747 
Q 3116 2381 2855 2742 
Q 2594 3103 2138 3103 
Q 1681 3103 1420 2742 
Q 1159 2381 1159 1747 
Q 1159 1113 1420 752 
Q 1681 391 2138 391 
Q 2594 391 2855 752 
Q 3116 1113 3116 1747 
z
" transform="scale(0.015625)"/>
       <path id="DejaVuSans-75" d="M 544 1381 
L 544 3500 
L 1119 3500 
L 1119 1403 
Q 1119 906 1312 657 
Q 1506 409 1894 409 
Q 2359 409 2629 706 
Q 2900 1003 2900 1516 
L 2900 3500 
L 3475 3500 
L 3475 0 
L 2900 0 
L 2900 538 
Q 2691 219 2414 64 
Q 2138 -91 1772 -91 
Q 1169 -91 856 284 
Q 544 659 544 1381 
z
M 1991 3584 
L 1991 3584 
z
" transform="scale(0.015625)"/>
       <path id="DejaVuSans-6c" d="M 603 4863 
L 1178 4863 
L 1178 0 
L 603 0 
L 603 4863 
z
" transform="scale(0.015625)"/>
       <path id="DejaVuSans-65" d="M 3597 1894 
L 3597 1613 
L 953 1613 
Q 991 1019 1311 708 
Q 1631 397 2203 397 
Q 2534 397 2845 478 
Q 3156 559 3463 722 
L 3463 178 
Q 3153 47 2828 -22 
Q 2503 -91 2169 -91 
Q 1331 -91 842 396 
Q 353 884 353 1716 
Q 353 2575 817 3079 
Q 1281 3584 2069 3584 
Q 2775 3584 3186 3129 
Q 3597 2675 3597 1894 
z
M 3022 2063 
Q 3016 2534 2758 2815 
Q 2500 3097 2075 3097 
Q 1594 3097 1305 2825 
Q 1016 2553 972 2059 
L 3022 2063 
z
" transform="scale(0.015625)"/>
       <path id="DejaVuSans-3a" d="M 750 794 
L 1409 794 
L 1409 0 
L 750 0 
L 750 794 
z
M 750 3309 
L 1409 3309 
L 1409 2516 
L 750 2516 
L 750 3309 
z
" transform="scale(0.015625)"/>
       <path id="DejaVuSans-63" d="M 3122 3366 
L 3122 2828 
Q 2878 2963 2633 3030 
Q 2388 3097 2138 3097 
Q 1578 3097 1268 2742 
Q 959 2388 959 1747 
Q 959 1106 1268 751 
Q 1578 397 2138 397 
Q 2388 397 2633 464 
Q 2878 531 3122 666 
L 3122 134 
Q 2881 22 2623 -34 
Q 2366 -91 2075 -91 
Q 1284 -91 818 406 
Q 353 903 353 1747 
Q 353 2603 823 3093 
Q 1294 3584 2113 3584 
Q 2378 3584 2631 3529 
Q 2884 3475 3122 3366 
z
" transform="scale(0.015625)"/>
       <path id="DejaVuSans-6e" d="M 3513 2113 
L 3513 0 
L 2938 0 
L 2938 2094 
Q 2938 2591 2744 2837 
Q 2550 3084 2163 3084 
Q 1697 3084 1428 2787 
Q 1159 2491 1159 1978 
L 1159 0 
L 581 0 
L 581 3500 
L 1159 3500 
L 1159 2956 
Q 1366 3272 1645 3428 
Q 1925 3584 2291 3584 
Q 2894 3584 3203 3211 
Q 3513 2838 3513 2113 
z
" transform="scale(0.015625)"/>
      </defs>
      <use xlink:href="#DejaVuSans-70"/>
      <use xlink:href="#DejaVuSans-75" transform="translate(63.476562 0)"/>
      <use xlink:href="#DejaVuSans-6c" transform="translate(126.855469 0)"/>
      <use xlink:href="#DejaVuSans-73" transform="translate(154.638672 0)"/>
      <use xlink:href="#DejaVuSans-65" transform="translate(206.738281 0)"/>
      <use xlink:href="#DejaVuSans-3a" transform="translate(268.261719 0)"/>
      <use xlink:href="#DejaVuSans-30" transform="translate(301.953125 0)"/>
      <use xlink:href="#DejaVuSans-20" transform="translate(365.576172 0)"/>
      <use xlink:href="#DejaVuSans-5b" transform="translate(397.363281 0)"/>
      <use xlink:href="#DejaVuSans-63" transform="translate(436.376953 0)"/>
      <use xlink:href="#DejaVuSans-6f" transform="translate(491.357422 0)"/>
      <use xlink:href="#DejaVuSans-75" transform="translate(552.539062 0)"/>
      <use xlink:href="#DejaVuSans-6e" transform="translate(615.917969 0)"/>
      <use xlink:href="#DejaVuSans-74" transform="translate(679.296875 0)"/>
      <use xlink:href="#DejaVuSans-73" transform="translate(718.505859 0)"/>
      <use xlink:href="#DejaVuSans-5d" transform="translate(770.605469 0)"/>
     </g>
    </g>
   </g>
   <g id="line2d_16">
    <path d="M 68.546307 218.762927 
L 72.604489 218.70439 
L 72.604489 218.294634 
L 75.648125 218.353171 
L 75.648125 217.884878 
L 76.66267 217.884878 
L 76.66267 218.060488 
L 77.677216 218.060488 
L 77.677216 216.538537 
L 78.691761 216.538537 
L 78.691761 216.65561 
L 79.706307 216.65561 
L 79.706307 216.187317 
L 80.720852 216.187317 
L 80.720852 214.840976 
L 81.735398 214.840976 
L 81.735398 214.489756 
L 82.749943 214.489756 
L 82.749943 212.616585 
L 83.764489 212.616585 
L 83.764489 209.45561 
L 84.779034 209.45561 
L 84.779034 206.70439 
L 85.79358 206.70439 
L 85.79358 203.250732 
L 86.808125 203.250732 
L 86.808125 199.68 
L 87.82267 199.68 
L 87.82267 191.719024 
L 88.837216 191.719024 
L 88.837216 187.445854 
L 89.851761 187.445854 
L 89.851761 175.036098 
L 90.866307 175.036098 
L 90.866307 162.919024 
L 91.880852 162.919024 
L 91.880852 154.138537 
L 92.895398 154.138537 
L 92.895398 139.68 
L 93.909943 139.68 
L 93.909943 133.123902 
L 94.924489 133.123902 
L 94.924489 122.587317 
L 95.939034 122.587317 
L 95.939034 115.270244 
L 96.95358 115.270244 
L 96.95358 106.665366 
L 97.968125 106.665366 
L 97.968125 93.319024 
L 98.98267 93.319024 
L 98.98267 90.801951 
L 99.997216 90.801951 
L 99.997216 87.523902 
L 101.011761 87.523902 
L 101.011761 75.758049 
L 102.026307 75.758049 
L 102.026307 75.289756 
L 103.040852 75.289756 
L 103.040852 57.670244 
L 104.055398 57.670244 
L 104.055398 59.016585 
L 105.069943 59.016585 
L 105.069943 53.63122 
L 106.084489 53.63122 
L 106.084489 52.050732 
L 107.099034 52.050732 
L 107.099034 51.465366 
L 108.11358 51.465366 
L 108.11358 41.806829 
L 109.128125 41.806829 
L 109.128125 37.240976 
L 110.14267 37.240976 
L 110.14267 36.070244 
L 111.157216 36.070244 
L 111.157216 35.075122 
L 112.171761 35.075122 
L 112.171761 34.665366 
L 113.186307 34.665366 
L 113.186307 27.640976 
L 114.200852 27.640976 
L 114.200852 25.475122 
L 115.215398 25.475122 
L 115.215398 28.753171 
L 116.229943 28.753171 
L 116.229943 22.958049 
L 117.244489 22.958049 
L 117.244489 17.806829 
L 118.259034 17.806829 
L 118.259034 22.197073 
L 119.27358 22.197073 
L 119.27358 24.65561 
L 120.288125 24.65561 
L 120.288125 17.28 
L 121.30267 17.28 
L 121.30267 20.909268 
L 122.317216 20.909268 
L 122.317216 23.309268 
L 123.331761 23.309268 
L 123.331761 19.094634 
L 124.346307 19.094634 
L 124.346307 29.923902 
L 125.360852 29.923902 
L 125.360852 26.587317 
L 126.375398 26.587317 
L 126.375398 30.099512 
L 127.389943 30.099512 
L 127.389943 29.572683 
L 128.404489 29.572683 
L 128.404489 37.592195 
L 129.419034 37.592195 
L 129.419034 51.114146 
L 130.43358 51.114146 
L 130.43358 41.572683 
L 131.448125 41.572683 
L 131.448125 50.997073 
L 132.46267 50.997073 
L 132.46267 49.240976 
L 133.477216 49.240976 
L 133.477216 51.582439 
L 134.491761 51.582439 
L 134.491761 66.450732 
L 135.506307 66.450732 
L 135.506307 62.001951 
L 136.520852 62.001951 
L 136.520852 68.265366 
L 137.535398 68.265366 
L 137.535398 70.548293 
L 138.549943 70.548293 
L 138.549943 88.167805 
L 139.564489 88.167805 
L 139.564489 85.767805 
L 140.579034 85.767805 
L 140.579034 93.319024 
L 141.59358 93.319024 
L 141.59358 100.050732 
L 142.608125 100.050732 
L 142.608125 105.787317 
L 143.62267 105.787317 
L 143.62267 113.748293 
L 144.637216 113.748293 
L 144.637216 121.650732 
L 145.651761 121.650732 
L 145.651761 125.28 
L 146.666307 125.28 
L 146.666307 131.660488 
L 147.680852 131.660488 
L 147.680852 139.153171 
L 148.695398 139.153171 
L 148.695398 140.206829 
L 149.709943 140.206829 
L 149.709943 147.465366 
L 150.724489 147.465366 
L 150.724489 152.323902 
L 151.739034 152.323902 
L 151.739034 156.011707 
L 152.75358 156.011707 
L 152.75358 159.758049 
L 153.768125 159.758049 
L 153.768125 167.075122 
L 154.78267 167.075122 
L 154.78267 171.406829 
L 155.797216 171.406829 
L 155.797216 171.875122 
L 156.811761 171.875122 
L 156.811761 173.221463 
L 157.826307 173.221463 
L 157.826307 178.548293 
L 158.840852 178.548293 
L 158.840852 181.884878 
L 159.855398 181.884878 
L 159.855398 187.094634 
L 160.869943 187.094634 
L 160.869943 189.143415 
L 161.884489 189.143415 
L 161.884489 193.299512 
L 162.899034 193.299512 
L 162.899034 194.938537 
L 163.91358 194.938537 
L 163.91358 199.68 
L 164.928125 199.68 
L 164.928125 201.845854 
L 165.94267 201.845854 
L 165.94267 202.489756 
L 166.957216 202.489756 
L 166.957216 204.187317 
L 167.971761 204.187317 
L 167.971761 206.645854 
L 168.986307 206.645854 
L 168.986307 209.923902 
L 170.000852 209.923902 
L 170.000852 212.675122 
L 171.015398 212.675122 
L 171.015398 212.792195 
L 172.029943 212.792195 
L 172.029943 213.90439 
L 173.044489 213.90439 
L 173.044489 216.070244 
L 174.059034 216.070244 
L 174.059034 217.533659 
L 175.07358 217.533659 
L 175.07358 217.943415 
L 176.088125 217.943415 
L 176.088125 218.353171 
L 177.10267 218.353171 
L 177.10267 218.70439 
L 178.117216 218.70439 
L 178.117216 218.52878 
L 179.131761 218.52878 
L 179.131761 218.177561 
L 180.146307 218.177561 
L 180.146307 218.001951 
L 181.160852 218.001951 
L 181.160852 217.650732 
L 182.175398 217.650732 
L 182.175398 217.358049 
L 183.189943 217.358049 
L 183.189943 217.650732 
L 184.204489 217.650732 
L 184.204489 216.362927 
L 185.219034 216.362927 
L 185.219034 215.836098 
L 186.23358 215.836098 
L 186.23358 216.011707 
L 187.248125 216.011707 
L 187.248125 214.314146 
L 188.26267 214.314146 
L 188.26267 213.494634 
L 189.277216 213.494634 
L 189.277216 211.85561 
L 190.291761 211.85561 
L 190.291761 211.270244 
L 191.306307 211.270244 
L 191.306307 208.870244 
L 192.320852 208.870244 
L 192.320852 207.582439 
L 193.335398 207.582439 
L 193.335398 206.353171 
L 194.349943 206.353171 
L 194.349943 204.48 
L 195.364489 204.48 
L 195.364489 203.953171 
L 196.379034 203.953171 
L 196.379034 202.25561 
L 198.408125 202.314146 
L 198.408125 202.138537 
L 199.42267 202.138537 
L 199.42267 199.972683 
L 200.437216 199.972683 
L 200.437216 198.684878 
L 201.451761 198.684878 
L 201.451761 197.397073 
L 203.480852 197.397073 
L 203.480852 194.353171 
L 204.495398 194.353171 
L 204.495398 193.826341 
L 205.509943 193.826341 
L 205.509943 196.109268 
L 206.524489 196.109268 
L 206.524489 193.884878 
L 207.539034 193.884878 
L 207.539034 193.123902 
L 208.55358 193.123902 
L 208.55358 191.367805 
L 209.568125 191.367805 
L 209.568125 192.597073 
L 210.58267 192.597073 
L 210.58267 190.782439 
L 211.597216 190.782439 
L 211.597216 191.426341 
L 212.611761 191.426341 
L 212.611761 191.894634 
L 213.626307 191.894634 
L 213.626307 190.840976 
L 214.640852 190.840976 
L 214.640852 186.392195 
L 215.655398 186.392195 
L 215.655398 190.314146 
L 216.669943 190.314146 
L 216.669943 187.972683 
L 217.684489 187.972683 
L 217.684489 184.92878 
L 218.699034 184.92878 
L 218.699034 187.85561 
L 219.71358 187.85561 
L 219.71358 188.967805 
L 220.728125 188.967805 
L 220.728125 186.977561 
L 221.74267 186.977561 
L 221.74267 186.040976 
L 222.757216 186.040976 
L 222.757216 188.206829 
L 223.771761 188.206829 
L 223.771761 190.138537 
L 224.786307 190.138537 
L 224.786307 188.733659 
L 225.800852 188.733659 
L 225.800852 187.972683 
L 226.815398 187.972683 
L 226.815398 186.919024 
L 227.829943 186.919024 
L 227.829943 189.377561 
L 228.844489 189.377561 
L 228.844489 188.850732 
L 229.859034 188.850732 
L 229.859034 189.90439 
L 230.87358 189.90439 
L 230.87358 190.314146 
L 231.888125 190.314146 
L 231.888125 190.606829 
L 232.90267 190.606829 
L 232.90267 189.611707 
L 233.917216 189.611707 
L 233.917216 190.782439 
L 234.931761 190.782439 
L 234.931761 192.12878 
L 235.946307 192.12878 
L 235.946307 194.411707 
L 236.960852 194.411707 
L 236.960852 192.070244 
L 237.975398 192.070244 
L 237.975398 194.938537 
L 238.989943 194.938537 
L 238.989943 195.582439 
L 240.004489 195.582439 
L 240.004489 195.114146 
L 241.019034 195.114146 
L 241.019034 193.826341 
L 242.03358 193.826341 
L 242.03358 194.353171 
L 244.06267 194.294634 
L 244.06267 196.284878 
L 245.077216 196.284878 
L 245.077216 197.923902 
L 246.091761 197.923902 
L 246.091761 196.343415 
L 247.106307 196.343415 
L 247.106307 196.811707 
L 248.120852 196.811707 
L 248.120852 196.577561 
L 249.135398 196.577561 
L 249.135398 198.509268 
L 250.149943 198.509268 
L 250.149943 195.758049 
L 251.164489 195.758049 
L 251.164489 198.919024 
L 252.179034 198.919024 
L 252.179034 199.094634 
L 253.19358 199.094634 
L 253.19358 198.684878 
L 254.208125 198.684878 
L 254.208125 199.621463 
L 255.22267 199.621463 
L 255.22267 198.743415 
L 256.237216 198.743415 
L 256.237216 199.211707 
L 257.251761 199.211707 
L 257.251761 198.333659 
L 258.266307 198.333659 
L 258.266307 199.972683 
L 260.295398 199.972683 
L 260.295398 202.25561 
L 261.309943 202.25561 
L 261.309943 200.850732 
L 262.324489 200.850732 
L 262.324489 200.440976 
L 264.35358 200.440976 
L 264.35358 202.43122 
L 265.368125 202.43122 
L 265.368125 204.48 
L 266.38267 204.48 
L 266.38267 202.372683 
L 267.397216 202.372683 
L 267.397216 201.90439 
L 268.411761 201.90439 
L 268.411761 203.543415 
L 269.426307 203.543415 
L 269.426307 202.021463 
L 270.440852 202.021463 
L 270.440852 203.719024 
L 271.455398 203.719024 
L 271.455398 201.436098 
L 272.469943 201.436098 
L 272.469943 203.836098 
L 273.484489 203.836098 
L 273.484489 203.543415 
L 274.499034 203.543415 
L 274.499034 203.367805 
L 275.51358 203.367805 
L 275.51358 203.601951 
L 276.528125 203.601951 
L 276.528125 203.484878 
L 277.54267 203.484878 
L 277.54267 203.601951 
L 278.557216 203.601951 
L 278.557216 204.597073 
L 279.571761 204.597073 
L 279.571761 204.83122 
L 280.586307 204.83122 
L 280.586307 205.767805 
L 281.600852 205.767805 
L 281.600852 204.12878 
L 282.615398 204.12878 
L 282.615398 204.83122 
L 283.629943 204.83122 
L 283.629943 205.767805 
L 284.644489 205.767805 
L 284.644489 205.884878 
L 285.659034 205.884878 
L 285.659034 206.411707 
L 286.67358 206.411707 
L 286.67358 207.816585 
L 287.688125 207.816585 
L 287.688125 206.177561 
L 288.70267 206.177561 
L 288.70267 205.299512 
L 289.717216 205.299512 
L 289.717216 205.592195 
L 290.731761 205.592195 
L 290.731761 207.23122 
L 291.746307 207.23122 
L 291.746307 206.587317 
L 292.760852 206.587317 
L 292.760852 206.294634 
L 293.775398 206.294634 
L 293.775398 206.88 
L 294.789943 206.88 
L 294.789943 207.758049 
L 295.804489 207.758049 
L 295.804489 206.938537 
L 296.819034 206.938537 
L 296.819034 207.465366 
L 297.83358 207.465366 
L 297.83358 208.636098 
L 298.848125 208.636098 
L 298.848125 207.699512 
L 299.86267 207.699512 
L 299.86267 208.870244 
L 300.877216 208.870244 
L 300.877216 206.645854 
L 301.891761 206.645854 
L 301.891761 208.460488 
L 302.906307 208.460488 
L 302.906307 209.045854 
L 303.920852 209.045854 
L 303.920852 208.167805 
L 304.935398 208.167805 
L 304.935398 207.699512 
L 305.949943 207.699512 
L 305.949943 209.28 
L 306.964489 209.28 
L 306.964489 208.694634 
L 307.979034 208.694634 
L 307.979034 209.045854 
L 308.99358 209.045854 
L 308.99358 210.743415 
L 310.008125 210.743415 
L 310.008125 209.162927 
L 311.02267 209.162927 
L 311.02267 210.450732 
L 312.037216 210.450732 
L 312.037216 209.63122 
L 313.051761 209.63122 
L 313.051761 210.450732 
L 315.080852 210.450732 
L 315.080852 209.806829 
L 316.095398 209.806829 
L 316.095398 209.923902 
L 317.109943 209.923902 
L 317.109943 208.987317 
L 318.124489 208.987317 
L 318.124489 210.509268 
L 319.139034 210.509268 
L 319.139034 211.621463 
L 320.15358 211.621463 
L 320.15358 210.392195 
L 321.168125 210.392195 
L 321.168125 210.860488 
L 323.197216 210.860488 
L 323.197216 209.63122 
L 324.211761 209.63122 
L 324.211761 211.211707 
L 325.226307 211.211707 
L 325.226307 211.387317 
L 326.240852 211.387317 
L 326.240852 211.68 
L 327.255398 211.68 
L 327.255398 209.748293 
L 328.269943 209.748293 
L 328.269943 211.270244 
L 329.284489 211.270244 
L 329.284489 210.977561 
L 331.31358 210.977561 
L 331.31358 210.801951 
L 332.328125 210.801951 
L 332.328125 210.509268 
L 333.34267 210.509268 
L 333.34267 212.148293 
L 334.357216 212.148293 
L 334.357216 213.962927 
L 335.371761 213.962927 
L 335.371761 212.382439 
L 336.386307 212.382439 
L 336.386307 213.260488 
L 338.415398 213.201951 
L 338.415398 212.265366 
L 339.429943 212.265366 
L 339.429943 212.382439 
L 340.444489 212.382439 
L 340.444489 213.962927 
L 341.459034 213.962927 
L 341.459034 213.787317 
L 342.47358 213.787317 
L 342.47358 214.43122 
L 343.488125 214.43122 
L 343.488125 213.787317 
L 344.50267 213.787317 
L 344.50267 214.840976 
L 345.517216 214.840976 
L 345.517216 215.075122 
L 346.531761 215.075122 
L 346.531761 215.367805 
L 348.560852 215.367805 
L 348.560852 215.777561 
L 350.589943 215.719024 
L 350.589943 215.894634 
L 351.604489 215.894634 
L 351.604489 216.12878 
L 352.619034 216.12878 
L 352.619034 217.182439 
L 353.63358 217.182439 
L 353.63358 216.83122 
L 358.706307 216.889756 
L 358.706307 217.533659 
L 359.720852 217.533659 
L 359.720852 217.182439 
L 360.735398 217.182439 
L 360.735398 217.533659 
L 362.764489 217.592195 
L 362.764489 217.826341 
L 363.779034 217.826341 
L 363.779034 218.001951 
L 365.808125 217.943415 
L 365.808125 218.119024 
L 366.82267 218.119024 
L 366.82267 218.411707 
L 368.851761 218.470244 
L 368.851761 218.645854 
L 369.866307 218.645854 
L 369.866307 218.821463 
L 372.909943 218.762927 
L 372.909943 218.762927 
" clip-path="url(#p4428d4667c)" style="fill: none; stroke: #1f77b4; stroke-width: 1.5; stroke-linecap: square"/>
   </g>
   <g id="patch_3">
    <path d="M 53.328125 228.96 
L 53.328125 7.2 
" style="fill: none; stroke: #000000; stroke-width: 0.8; stroke-linejoin: miter; stroke-linecap: square"/>
   </g>
   <g id="patch_4">
    <path d="M 388.128125 228.96 
L 388.128125 7.2 
" style="fill: none; stroke: #000000; stroke-width: 0.8; stroke-linejoin: miter; stroke-linecap: square"/>
   </g>
   <g id="patch_5">
    <path d="M 53.328125 228.96 
L 388.128125 228.96 
" style="fill: none; stroke: #000000; stroke-width: 0.8; stroke-linejoin: miter; stroke-linecap: square"/>
   </g>
   <g id="patch_6">
    <path d="M 53.328125 7.2 
L 388.128125 7.2 
" style="fill: none; stroke: #000000; stroke-width: 0.8; stroke-linejoin: miter; stroke-linecap: square"/>
   </g>
  </g>
 </g>
 <defs>
  <clipPath id="p4428d4667c">
   <rect x="53.328125" y="7.2" width="334.8" height="221.76"/>
  </clipPath>
 </defs>
</svg>
