<?xml version="1.0" encoding="utf-8" standalone="no"?>
<!DOCTYPE svg PUBLIC "-//W3C//DTD SVG 1.1//EN"
  "http://www.w3.org/Graphics/SVG/1.1/DTD/svg11.dtd">
<svg xmlns:xlink="http://www.w3.org/1999/xlink" width="872.39952pt" height="296.394118pt" viewBox="0 0 872.39952 296.394118" xmlns="http://www.w3.org/2000/svg" version="1.1">
 <metadata>
  <rdf:RDF xmlns:dc="http://purl.org/dc/elements/1.1/" xmlns:cc="http://creativecommons.org/ns#" xmlns:rdf="http://www.w3.org/1999/02/22-rdf-syntax-ns#">
   <cc:Work>
    <dc:type rdf:resource="http://purl.org/dc/dcmitype/StillImage"/>
    <dc:date>2026-06-24T08:33:37.700903</dc:date>
    <dc:format>image/svg+xml</dc:format>
    <dc:creator>
     <cc:Agent>
      <dc:title>Matplotlib v3.10.9, https://matplotlib.org/</dc:title>
     </cc:Agent>
    </dc:creator>
   </cc:Work>
  </rdf:RDF>
 </metadata>
 <defs>
  <style type="text/css">*{stroke-linejoin: round; stroke-linecap: butt}</style>
 </defs>
 <g id="figure_1">
  <g id="patch_1">
   <path d="M 0 296.394118 
L 872.39952 296.394118 
L 872.39952 0 
L 0 0 
z
" style="fill: #ffffff"/>
  </g>
  <g id="axes_1">
   <g id="patch_2">
    <path d="M 53.328125 257.153493 
L 414.59976 257.153493 
L 414.59976 7.500603 
L 53.328125 7.500603 
z
" style="fill: #ffffff"/>
   </g>
   <g id="matplotlib.axis_1">
    <g id="xtick_1">
     <g id="line2d_1">
      <defs>
       <path id="me81b2b775b" d="M 0 0 
L 0 3.5 
" style="stroke: #000000; stroke-width: 0.8"/>
      </defs>
      <g>
       <use xlink:href="#me81b2b775b" x="124.863715" y="257.153493" style="stroke: #000000; stroke-width: 0.8"/>
      </g>
     </g>
     <g id="text_1">
      <!-- 20000 -->
      <g transform="translate(108.957465 271.75193) scale(0.1 -0.1)">
       <defs>
        <path id="DejaVuSans-32" d="M 1228 531 
L 3431 531 
L 3431 0 
L 469 0 
L 469 531 
Q 828 903 1448 1529 
Q 2069 2156 2228 2338 
Q 2531 2678 2651 2914 
Q 2772 3150 2772 3378 
Q 2772 3750 2511 3984 
Q 2250 4219 1831 4219 
Q 1534 4219 1204 4116 
Q 875 4013 500 3803 
L 500 4441 
Q 881 4594 1212 4672 
Q 1544 4750 1819 4750 
Q 2544 4750 2975 4387 
Q 3406 4025 3406 3419 
Q 3406 3131 3298 2873 
Q 3191 2616 2906 2266 
Q 2828 2175 2409 1742 
Q 1991 1309 1228 531 
z
" transform="scale(0.015625)"/>
        <path id="DejaVuSans-30" d="M 2034 4250 
Q 1547 4250 1301 3770 
Q 1056 3291 1056 2328 
Q 1056 1369 1301 889 
Q 1547 409 2034 409 
Q 2525 409 2770 889 
Q 3016 1369 3016 2328 
Q 3016 3291 2770 3770 
Q 2525 4250 2034 4250 
z
M 2034 4750 
Q 2819 4750 3233 4129 
Q 3647 3509 3647 2328 
Q 3647 1150 3233 529 
Q 2819 -91 2034 -91 
Q 1250 -91 836 529 
Q 422 1150 422 2328 
Q 422 3509 836 4129 
Q 1250 4750 2034 4750 
z
" transform="scale(0.015625)"/>
       </defs>
       <use xlink:href="#DejaVuSans-32"/>
       <use xlink:href="#DejaVuSans-30" transform="translate(63.623047 0)"/>
       <use xlink:href="#DejaVuSans-30" transform="translate(127.246094 0)"/>
       <use xlink:href="#DejaVuSans-30" transform="translate(190.869141 0)"/>
       <use xlink:href="#DejaVuSans-30" transform="translate(254.492188 0)"/>
      </g>
     </g>
    </g>
    <g id="xtick_2">
     <g id="line2d_2">
      <g>
       <use xlink:href="#me81b2b775b" x="202.252677" y="257.153493" style="stroke: #000000; stroke-width: 0.8"/>
      </g>
     </g>
     <g id="text_2">
      <!-- 30000 -->
      <g transform="translate(186.346427 271.75193) scale(0.1 -0.1)">
       <defs>
        <path id="DejaVuSans-33" d="M 2597 2516 
Q 3050 2419 3304 2112 
Q 3559 1806 3559 1356 
Q 3559 666 3084 287 
Q 2609 -91 1734 -91 
Q 1441 -91 1130 -33 
Q 819 25 488 141 
L 488 750 
Q 750 597 1062 519 
Q 1375 441 1716 441 
Q 2309 441 2620 675 
Q 2931 909 2931 1356 
Q 2931 1769 2642 2001 
Q 2353 2234 1838 2234 
L 1294 2234 
L 1294 2753 
L 1863 2753 
Q 2328 2753 2575 2939 
Q 2822 3125 2822 3475 
Q 2822 3834 2567 4026 
Q 2313 4219 1838 4219 
Q 1578 4219 1281 4162 
Q 984 4106 628 3988 
L 628 4550 
Q 988 4650 1302 4700 
Q 1616 4750 1894 4750 
Q 2613 4750 3031 4423 
Q 3450 4097 3450 3541 
Q 3450 3153 3228 2886 
Q 3006 2619 2597 2516 
z
" transform="scale(0.015625)"/>
       </defs>
       <use xlink:href="#DejaVuSans-33"/>
       <use xlink:href="#DejaVuSans-30" transform="translate(63.623047 0)"/>
       <use xlink:href="#DejaVuSans-30" transform="translate(127.246094 0)"/>
       <use xlink:href="#DejaVuSans-30" transform="translate(190.869141 0)"/>
       <use xlink:href="#DejaVuSans-30" transform="translate(254.492188 0)"/>
      </g>
     </g>
    </g>
    <g id="xtick_3">
     <g id="line2d_3">
      <g>
       <use xlink:href="#me81b2b775b" x="279.64164" y="257.153493" style="stroke: #000000; stroke-width: 0.8"/>
      </g>
     </g>
     <g id="text_3">
      <!-- 40000 -->
      <g transform="translate(263.73539 271.75193) scale(0.1 -0.1)">
       <defs>
        <path id="DejaVuSans-34" d="M 2419 4116 
L 825 1625 
L 2419 1625 
L 2419 4116 
z
M 2253 4666 
L 3047 4666 
L 3047 1625 
L 3713 1625 
L 3713 1100 
L 3047 1100 
L 3047 0 
L 2419 0 
L 2419 1100 
L 313 1100 
L 313 1709 
L 2253 4666 
z
" transform="scale(0.015625)"/>
       </defs>
       <use xlink:href="#DejaVuSans-34"/>
       <use xlink:href="#DejaVuSans-30" transform="translate(63.623047 0)"/>
       <use xlink:href="#DejaVuSans-30" transform="translate(127.246094 0)"/>
       <use xlink:href="#DejaVuSans-30" transform="translate(190.869141 0)"/>
       <use xlink:href="#DejaVuSans-30" transform="translate(254.492188 0)"/>
      </g>
     </g>
    </g>
    <g id="xtick_4">
     <g id="line2d_4">
      <g>
       <use xlink:href="#me81b2b775b" x="357.030603" y="257.153493" style="stroke: #000000; stroke-width: 0.8"/>
      </g>
     </g>
     <g id="text_4">
      <!-- 50000 -->
      <g transform="translate(341.124353 271.75193) scale(0.1 -0.1)">
       <defs>
        <path id="DejaVuSans-35" d="M 691 4666 
L 3169 4666 
L 3169 4134 
L 1269 4134 
L 1269 2991 
Q 1406 3038 1543 3061 
Q 1681 3084 1819 3084 
Q 2600 3084 3056 2656 
Q 3513 2228 3513 1497 
Q 3513 744 3044 326 
Q 2575 -91 1722 -91 
Q 1428 -91 1123 -41 
Q 819 9 494 109 
L 494 744 
Q 775 591 1075 516 
Q 1375 441 1709 441 
Q 2250 441 2565 725 
Q 2881 1009 2881 1497 
Q 2881 1984 2565 2268 
Q 2250 2553 1709 2553 
Q 1456 2553 1204 2497 
Q 953 2441 691 2322 
L 691 4666 
z
" transform="scale(0.015625)"/>
       </defs>
       <use xlink:href="#DejaVuSans-35"/>
       <use xlink:href="#DejaVuSans-30" transform="translate(63.623047 0)"/>
       <use xlink:href="#DejaVuSans-30" transform="translate(127.246094 0)"/>
       <use xlink:href="#DejaVuSans-30" transform="translate(190.869141 0)"/>
       <use xlink:href="#DejaVuSans-30" transform="translate(254.492188 0)"/>
      </g>
     </g>
    </g>
    <g id="text_5">
     <!-- toa [µs] -->
     <g transform="translate(214.603786 285.430055) scale(0.1 -0.1)">
      <defs>
       <path id="DejaVuSans-74" d="M 1172 4494 
L 1172 3500 
L 2356 3500 
L 2356 3053 
L 1172 3053 
L 1172 1153 
Q 1172 725 1289 603 
Q 1406 481 1766 481 
L 2356 481 
L 2356 0 
L 1766 0 
Q 1100 0 847 248 
Q 594 497 594 1153 
L 594 3053 
L 172 3053 
L 172 3500 
L 594 3500 
L 594 4494 
L 1172 4494 
z
" transform="scale(0.015625)"/>
       <path id="DejaVuSans-6f" d="M 1959 3097 
Q 1497 3097 1228 2736 
Q 959 2375 959 1747 
Q 959 1119 1226 758 
Q 1494 397 1959 397 
Q 2419 397 2687 759 
Q 2956 1122 2956 1747 
Q 2956 2369 2687 2733 
Q 2419 3097 1959 3097 
z
M 1959 3584 
Q 2709 3584 3137 3096 
Q 3566 2609 3566 1747 
Q 3566 888 3137 398 
Q 2709 -91 1959 -91 
Q 1206 -91 779 398 
Q 353 888 353 1747 
Q 353 2609 779 3096 
Q 1206 3584 1959 3584 
z
" transform="scale(0.015625)"/>
       <path id="DejaVuSans-61" d="M 2194 1759 
Q 1497 1759 1228 1600 
Q 959 1441 959 1056 
Q 959 750 1161 570 
Q 1363 391 1709 391 
Q 2188 391 2477 730 
Q 2766 1069 2766 1631 
L 2766 1759 
L 2194 1759 
z
M 3341 1997 
L 3341 0 
L 2766 0 
L 2766 531 
Q 2569 213 2275 61 
Q 1981 -91 1556 -91 
Q 1019 -91 701 211 
Q 384 513 384 1019 
Q 384 1609 779 1909 
Q 1175 2209 1959 2209 
L 2766 2209 
L 2766 2266 
Q 2766 2663 2505 2880 
Q 2244 3097 1772 3097 
Q 1472 3097 1187 3025 
Q 903 2953 641 2809 
L 641 3341 
Q 956 3463 1253 3523 
Q 1550 3584 1831 3584 
Q 2591 3584 2966 3190 
Q 3341 2797 3341 1997 
z
" transform="scale(0.015625)"/>
       <path id="DejaVuSans-20" transform="scale(0.015625)"/>
       <path id="DejaVuSans-5b" d="M 550 4863 
L 1875 4863 
L 1875 4416 
L 1125 4416 
L 1125 -397 
L 1875 -397 
L 1875 -844 
L 550 -844 
L 550 4863 
z
" transform="scale(0.015625)"/>
       <path id="DejaVuSans-b5" d="M 544 -1331 
L 544 3500 
L 1119 3500 
L 1119 1325 
Q 1119 872 1334 640 
Q 1550 409 1972 409 
Q 2434 409 2667 671 
Q 2900 934 2900 1459 
L 2900 3500 
L 3475 3500 
L 3475 806 
Q 3475 619 3529 530 
Q 3584 441 3700 441 
Q 3728 441 3778 458 
Q 3828 475 3916 513 
L 3916 50 
Q 3788 -22 3673 -56 
Q 3559 -91 3450 -91 
Q 3234 -91 3106 31 
Q 2978 153 2931 403 
Q 2775 156 2548 32 
Q 2322 -91 2016 -91 
Q 1697 -91 1473 31 
Q 1250 153 1119 397 
L 1119 -1331 
L 544 -1331 
z
" transform="scale(0.015625)"/>
       <path id="DejaVuSans-73" d="M 2834 3397 
L 2834 2853 
Q 2591 2978 2328 3040 
Q 2066 3103 1784 3103 
Q 1356 3103 1142 2972 
Q 928 2841 928 2578 
Q 928 2378 1081 2264 
Q 1234 2150 1697 2047 
L 1894 2003 
Q 2506 1872 2764 1633 
Q 3022 1394 3022 966 
Q 3022 478 2636 193 
Q 2250 -91 1575 -91 
Q 1294 -91 989 -36 
Q 684 19 347 128 
L 347 722 
Q 666 556 975 473 
Q 1284 391 1588 391 
Q 1994 391 2212 530 
Q 2431 669 2431 922 
Q 2431 1156 2273 1281 
Q 2116 1406 1581 1522 
L 1381 1569 
Q 847 1681 609 1914 
Q 372 2147 372 2553 
Q 372 3047 722 3315 
Q 1072 3584 1716 3584 
Q 2034 3584 2315 3537 
Q 2597 3491 2834 3397 
z
" transform="scale(0.015625)"/>
       <path id="DejaVuSans-5d" d="M 1947 4863 
L 1947 -844 
L 622 -844 
L 622 -397 
L 1369 -397 
L 1369 4416 
L 622 4416 
L 622 4863 
L 1947 4863 
z
" transform="scale(0.015625)"/>
      </defs>
      <use xlink:href="#DejaVuSans-74"/>
      <use xlink:href="#DejaVuSans-6f" transform="translate(39.208984 0)"/>
      <use xlink:href="#DejaVuSans-61" transform="translate(100.390625 0)"/>
      <use xlink:href="#DejaVuSans-20" transform="translate(161.669922 0)"/>
      <use xlink:href="#DejaVuSans-5b" transform="translate(193.457031 0)"/>
      <use xlink:href="#DejaVuSans-b5" transform="translate(232.470703 0)"/>
      <use xlink:href="#DejaVuSans-73" transform="translate(296.09375 0)"/>
      <use xlink:href="#DejaVuSans-5d" transform="translate(348.193359 0)"/>
     </g>
    </g>
   </g>
   <g id="matplotlib.axis_2">
    <g id="ytick_1">
     <g id="line2d_5">
      <defs>
       <path id="m8029a7aa60" d="M 0 0 
L -3.5 0 
" style="stroke: #000000; stroke-width: 0.8"/>
      </defs>
      <g>
       <use xlink:href="#m8029a7aa60" x="53.328125" y="245.805634" style="stroke: #000000; stroke-width: 0.8"/>
      </g>
     </g>
     <g id="text_6">
      <!-- 0 -->
      <g transform="translate(39.965625 249.604853) scale(0.1 -0.1)">
       <use xlink:href="#DejaVuSans-30"/>
      </g>
     </g>
    </g>
    <g id="ytick_2">
     <g id="line2d_6">
      <g>
       <use xlink:href="#m8029a7aa60" x="53.328125" y="212.261861" style="stroke: #000000; stroke-width: 0.8"/>
      </g>
     </g>
     <g id="text_7">
      <!-- 500 -->
      <g transform="translate(27.240625 216.061079) scale(0.1 -0.1)">
       <use xlink:href="#DejaVuSans-35"/>
       <use xlink:href="#DejaVuSans-30" transform="translate(63.623047 0)"/>
       <use xlink:href="#DejaVuSans-30" transform="translate(127.246094 0)"/>
      </g>
     </g>
    </g>
    <g id="ytick_3">
     <g id="line2d_7">
      <g>
       <use xlink:href="#m8029a7aa60" x="53.328125" y="178.718087" style="stroke: #000000; stroke-width: 0.8"/>
      </g>
     </g>
     <g id="text_8">
      <!-- 1000 -->
      <g transform="translate(20.878125 182.517306) scale(0.1 -0.1)">
       <defs>
        <path id="DejaVuSans-31" d="M 794 531 
L 1825 531 
L 1825 4091 
L 703 3866 
L 703 4441 
L 1819 4666 
L 2450 4666 
L 2450 531 
L 3481 531 
L 3481 0 
L 794 0 
L 794 531 
z
" transform="scale(0.015625)"/>
       </defs>
       <use xlink:href="#DejaVuSans-31"/>
       <use xlink:href="#DejaVuSans-30" transform="translate(63.623047 0)"/>
       <use xlink:href="#DejaVuSans-30" transform="translate(127.246094 0)"/>
       <use xlink:href="#DejaVuSans-30" transform="translate(190.869141 0)"/>
      </g>
     </g>
    </g>
    <g id="ytick_4">
     <g id="line2d_8">
      <g>
       <use xlink:href="#m8029a7aa60" x="53.328125" y="145.174313" style="stroke: #000000; stroke-width: 0.8"/>
      </g>
     </g>
     <g id="text_9">
      <!-- 1500 -->
      <g transform="translate(20.878125 148.973532) scale(0.1 -0.1)">
       <use xlink:href="#DejaVuSans-31"/>
       <use xlink:href="#DejaVuSans-35" transform="translate(63.623047 0)"/>
       <use xlink:href="#DejaVuSans-30" transform="translate(127.246094 0)"/>
       <use xlink:href="#DejaVuSans-30" transform="translate(190.869141 0)"/>
      </g>
     </g>
    </g>
    <g id="ytick_5">
     <g id="line2d_9">
      <g>
       <use xlink:href="#m8029a7aa60" x="53.328125" y="111.63054" style="stroke: #000000; stroke-width: 0.8"/>
      </g>
     </g>
     <g id="text_10">
      <!-- 2000 -->
      <g transform="translate(20.878125 115.429758) scale(0.1 -0.1)">
       <use xlink:href="#DejaVuSans-32"/>
       <use xlink:href="#DejaVuSans-30" transform="translate(63.623047 0)"/>
       <use xlink:href="#DejaVuSans-30" transform="translate(127.246094 0)"/>
       <use xlink:href="#DejaVuSans-30" transform="translate(190.869141 0)"/>
      </g>
     </g>
    </g>
    <g id="ytick_6">
     <g id="line2d_10">
      <g>
       <use xlink:href="#m8029a7aa60" x="53.328125" y="78.086766" style="stroke: #000000; stroke-width: 0.8"/>
      </g>
     </g>
     <g id="text_11">
      <!-- 2500 -->
      <g transform="translate(20.878125 81.885985) scale(0.1 -0.1)">
       <use xlink:href="#DejaVuSans-32"/>
       <use xlink:href="#DejaVuSans-35" transform="translate(63.623047 0)"/>
       <use xlink:href="#DejaVuSans-30" transform="translate(127.246094 0)"/>
       <use xlink:href="#DejaVuSans-30" transform="translate(190.869141 0)"/>
      </g>
     </g>
    </g>
    <g id="ytick_7">
     <g id="line2d_11">
      <g>
       <use xlink:href="#m8029a7aa60" x="53.328125" y="44.542992" style="stroke: #000000; stroke-width: 0.8"/>
      </g>
     </g>
     <g id="text_12">
      <!-- 3000 -->
      <g transform="translate(20.878125 48.342211) scale(0.1 -0.1)">
       <use xlink:href="#DejaVuSans-33"/>
       <use xlink:href="#DejaVuSans-30" transform="translate(63.623047 0)"/>
       <use xlink:href="#DejaVuSans-30" transform="translate(127.246094 0)"/>
       <use xlink:href="#DejaVuSans-30" transform="translate(190.869141 0)"/>
      </g>
     </g>
    </g>
    <g id="ytick_8">
     <g id="line2d_12">
      <g>
       <use xlink:href="#m8029a7aa60" x="53.328125" y="10.999219" style="stroke: #000000; stroke-width: 0.8"/>
      </g>
     </g>
     <g id="text_13">
      <!-- 3500 -->
      <g transform="translate(20.878125 14.798437) scale(0.1 -0.1)">
       <use xlink:href="#DejaVuSans-33"/>
       <use xlink:href="#DejaVuSans-35" transform="translate(63.623047 0)"/>
       <use xlink:href="#DejaVuSans-30" transform="translate(127.246094 0)"/>
       <use xlink:href="#DejaVuSans-30" transform="translate(190.869141 0)"/>
      </g>
     </g>
    </g>
    <g id="text_14">
     <!-- [counts] -->
     <g transform="translate(14.798438 152.939548) rotate(-90) scale(0.1 -0.1)">
      <defs>
       <path id="DejaVuSans-63" d="M 3122 3366 
L 3122 2828 
Q 2878 2963 2633 3030 
Q 2388 3097 2138 3097 
Q 1578 3097 1268 2742 
Q 959 2388 959 1747 
Q 959 1106 1268 751 
Q 1578 397 2138 397 
Q 2388 397 2633 464 
Q 2878 531 3122 666 
L 3122 134 
Q 2881 22 2623 -34 
Q 2366 -91 2075 -91 
Q 1284 -91 818 406 
Q 353 903 353 1747 
Q 353 2603 823 3093 
Q 1294 3584 2113 3584 
Q 2378 3584 2631 3529 
Q 2884 3475 3122 3366 
z
" transform="scale(0.015625)"/>
       <path id="DejaVuSans-75" d="M 544 1381 
L 544 3500 
L 1119 3500 
L 1119 1403 
Q 1119 906 1312 657 
Q 1506 409 1894 409 
Q 2359 409 2629 706 
Q 2900 1003 2900 1516 
L 2900 3500 
L 3475 3500 
L 3475 0 
L 2900 0 
L 2900 538 
Q 2691 219 2414 64 
Q 2138 -91 1772 -91 
Q 1169 -91 856 284 
Q 544 659 544 1381 
z
M 1991 3584 
L 1991 3584 
z
" transform="scale(0.015625)"/>
       <path id="DejaVuSans-6e" d="M 3513 2113 
L 3513 0 
L 2938 0 
L 2938 2094 
Q 2938 2591 2744 2837 
Q 2550 3084 2163 3084 
Q 1697 3084 1428 2787 
Q 1159 2491 1159 1978 
L 1159 0 
L 581 0 
L 581 3500 
L 1159 3500 
L 1159 2956 
Q 1366 3272 1645 3428 
Q 1925 3584 2291 3584 
Q 2894 3584 3203 3211 
Q 3513 2838 3513 2113 
z
" transform="scale(0.015625)"/>
      </defs>
      <use xlink:href="#DejaVuSans-5b"/>
      <use xlink:href="#DejaVuSans-63" transform="translate(39.013672 0)"/>
      <use xlink:href="#DejaVuSans-6f" transform="translate(93.994141 0)"/>
      <use xlink:href="#DejaVuSans-75" transform="translate(155.175781 0)"/>
      <use xlink:href="#DejaVuSans-6e" transform="translate(218.554688 0)"/>
      <use xlink:href="#DejaVuSans-74" transform="translate(281.933594 0)"/>
      <use xlink:href="#DejaVuSans-73" transform="translate(321.142578 0)"/>
      <use xlink:href="#DejaVuSans-5d" transform="translate(373.242188 0)"/>
     </g>
    </g>
   </g>
   <g id="line2d_13">
    <path d="M 69.749563 245.805634 
L 98.213389 245.805634 
L 98.213389 230.912199 
L 99.308151 230.912199 
L 99.308151 171.003019 
L 100.402914 171.003019 
L 100.402914 156.780459 
L 101.497676 156.780459 
L 101.497676 146.851502 
L 102.592439 146.851502 
L 102.592439 136.654195 
L 103.687201 136.654195 
L 103.687201 121.156971 
L 104.781964 121.156971 
L 104.781964 109.617913 
L 105.876726 109.617913 
L 105.876726 102.238283 
L 106.971489 102.238283 
L 106.971489 88.015723 
L 108.066252 88.015723 
L 108.066252 86.271447 
L 109.161014 86.271447 
L 109.161014 75.738702 
L 110.255777 75.738702 
L 110.255777 72.250149 
L 111.350539 72.250149 
L 111.350539 69.969173 
L 112.445302 69.969173 
L 112.445302 64.132556 
L 113.540064 64.132556 
L 113.540064 54.874475 
L 114.634827 54.874475 
L 114.634827 47.62902 
L 115.729589 47.62902 
L 115.729589 42.664541 
L 116.824352 42.664541 
L 116.824352 39.108901 
L 117.919114 39.108901 
L 117.919114 34.614035 
L 119.013877 34.614035 
L 119.013877 36.492487 
L 120.108639 36.492487 
L 120.108639 156.109583 
L 121.203402 156.109583 
L 121.203402 245.805634 
L 142.00389 245.805634 
L 142.00389 83.72212 
L 143.098652 83.72212 
L 143.098652 75.470352 
L 144.193415 75.470352 
L 144.193415 88.082811 
L 145.288178 88.082811 
L 145.288178 83.587945 
L 146.38294 83.587945 
L 146.38294 86.271447 
L 147.477703 86.271447 
L 147.477703 94.456128 
L 148.572465 94.456128 
L 148.572465 100.896532 
L 149.667228 100.896532 
L 149.667228 107.806549 
L 150.76199 107.806549 
L 150.76199 113.911516 
L 151.856753 113.911516 
L 151.856753 120.419008 
L 152.951515 120.419008 
L 152.951515 125.987275 
L 154.046278 125.987275 
L 154.046278 141.819936 
L 155.14104 141.819936 
L 155.14104 146.985677 
L 156.235803 146.985677 
L 156.235803 146.247714 
L 157.330565 146.247714 
L 157.330565 161.67785 
L 158.425328 161.67785 
L 158.425328 166.575241 
L 159.52009 166.575241 
L 159.52009 171.338457 
L 160.614853 171.338457 
L 160.614853 176.235848 
L 161.709615 176.235848 
L 161.709615 182.340814 
L 162.804378 182.340814 
L 162.804378 189.452094 
L 163.899141 189.452094 
L 163.899141 185.963542 
L 164.993903 185.963542 
L 164.993903 197.905125 
L 166.088666 197.905125 
L 166.088666 200.186102 
L 167.183428 200.186102 
L 167.183428 204.07718 
L 168.278191 204.07718 
L 168.278191 207.766995 
L 169.372953 207.766995 
L 169.372953 211.792248 
L 170.467716 211.792248 
L 170.467716 218.56809 
L 171.562478 218.56809 
L 171.562478 219.909841 
L 172.657241 219.909841 
L 172.657241 222.257905 
L 173.752003 222.257905 
L 173.752003 227.893259 
L 174.846766 227.893259 
L 174.846766 229.905885 
L 175.941528 229.905885 
L 175.941528 237.956391 
L 177.036291 237.956391 
L 177.036291 245.805634 
L 205.500117 245.805634 
L 205.500117 245.403109 
L 206.594879 245.403109 
L 206.594879 234.602014 
L 207.689642 234.602014 
L 207.689642 232.924825 
L 208.784404 232.924825 
L 208.784404 231.314724 
L 209.879167 231.314724 
L 209.879167 228.295784 
L 210.973929 228.295784 
L 210.973929 227.155296 
L 212.068692 227.155296 
L 212.068692 226.417333 
L 213.163454 226.417333 
L 213.163454 223.800919 
L 214.258217 223.800919 
L 214.258217 224.471794 
L 215.352979 224.471794 
L 215.352979 224.337619 
L 216.447742 224.337619 
L 216.447742 223.599656 
L 217.542505 223.599656 
L 217.542505 220.714892 
L 218.637267 220.714892 
L 218.637267 218.83644 
L 219.73203 218.83644 
L 219.73203 215.54915 
L 220.826792 215.54915 
L 220.826792 217.427602 
L 221.921555 217.427602 
L 221.921555 217.159252 
L 223.016317 217.159252 
L 223.016317 215.213713 
L 224.11108 215.213713 
L 224.11108 215.414975 
L 225.205842 215.414975 
L 225.205842 215.2808 
L 226.300605 215.2808 
L 226.300605 210.450497 
L 227.395367 210.450497 
L 227.395367 213.939049 
L 228.49013 213.939049 
L 228.49013 211.859335 
L 229.584892 211.859335 
L 229.584892 211.45681 
L 230.679655 211.45681 
L 230.679655 212.328948 
L 231.774417 212.328948 
L 231.774417 208.639133 
L 232.86918 208.639133 
L 232.86918 207.029032 
L 233.963942 207.029032 
L 233.963942 209.175833 
L 235.058705 209.175833 
L 235.058705 208.035345 
L 236.153468 208.035345 
L 236.153468 210.92011 
L 237.24823 210.92011 
L 237.24823 211.792248 
L 238.342993 211.792248 
L 238.342993 212.060598 
L 239.437755 212.060598 
L 239.437755 209.645446 
L 240.532518 209.645446 
L 240.532518 211.859335 
L 241.62728 211.859335 
L 241.62728 214.274487 
L 242.722043 214.274487 
L 242.722043 212.865648 
L 243.816805 212.865648 
L 243.816805 212.194773 
L 244.911568 212.194773 
L 244.911568 213.871962 
L 246.00633 213.871962 
L 246.00633 215.884588 
L 247.101093 215.884588 
L 247.101093 214.945362 
L 248.195855 214.945362 
L 248.195855 216.287113 
L 249.290618 216.287113 
L 249.290618 238.560179 
L 250.38538 238.560179 
L 250.38538 245.805634 
L 270.091106 245.805634 
L 270.091106 243.927183 
L 271.185869 243.927183 
L 271.185869 223.197131 
L 272.280631 223.197131 
L 272.280631 225.41102 
L 273.375394 225.41102 
L 273.375394 224.471794 
L 274.470156 224.471794 
L 274.470156 223.800919 
L 275.564919 223.800919 
L 275.564919 225.41102 
L 276.659681 225.41102 
L 276.659681 227.289471 
L 277.754444 227.289471 
L 277.754444 225.478107 
L 278.849206 225.478107 
L 278.849206 224.337619 
L 281.038731 224.270532 
L 281.038731 226.819858 
L 282.133494 226.819858 
L 282.133494 228.161609 
L 283.228256 228.161609 
L 283.228256 228.295784 
L 284.323019 228.295784 
L 284.323019 227.624909 
L 285.417781 227.624909 
L 285.417781 226.954033 
L 286.512544 226.954033 
L 286.512544 229.704623 
L 287.607306 229.704623 
L 287.607306 228.69831 
L 288.702069 228.69831 
L 288.702069 229.23501 
L 289.796832 229.23501 
L 289.796832 228.631222 
L 290.891594 228.631222 
L 290.891594 228.497047 
L 291.986357 228.497047 
L 291.986357 229.704623 
L 293.081119 229.704623 
L 293.081119 230.375498 
L 294.175882 230.375498 
L 294.175882 229.167922 
L 295.270644 229.167922 
L 295.270644 227.490734 
L 296.365407 227.490734 
L 296.365407 231.784337 
L 297.460169 231.784337 
L 297.460169 229.100835 
L 298.554932 229.100835 
L 298.554932 230.308411 
L 299.649694 230.308411 
L 299.649694 229.23501 
L 300.744457 229.23501 
L 300.744457 230.040061 
L 301.839219 230.040061 
L 301.839219 229.436273 
L 302.933982 229.436273 
L 302.933982 230.308411 
L 304.028744 230.308411 
L 304.028744 231.448899 
L 305.123507 231.448899 
L 305.123507 232.186862 
L 306.218269 232.186862 
L 306.218269 233.260263 
L 307.313032 233.260263 
L 307.313032 231.247636 
L 309.502557 231.180549 
L 309.502557 233.729876 
L 310.59732 233.729876 
L 310.59732 232.656475 
L 311.692082 232.656475 
L 311.692082 232.857738 
L 312.786845 232.857738 
L 312.786845 231.717249 
L 313.881607 231.717249 
L 313.881607 232.924825 
L 314.97637 232.924825 
L 314.97637 233.394438 
L 316.071132 233.394438 
L 316.071132 230.576761 
L 317.165895 230.576761 
L 317.165895 232.589387 
L 318.260657 232.589387 
L 318.260657 233.864051 
L 319.35542 233.864051 
L 319.35542 234.400751 
L 320.450182 234.400751 
L 320.450182 233.729876 
L 322.639707 233.662788 
L 322.639707 234.669101 
L 324.829233 234.669101 
L 324.829233 235.071627 
L 325.923995 235.071627 
L 325.923995 235.80959 
L 327.018758 235.80959 
L 327.018758 235.339977 
L 328.11352 235.339977 
L 328.11352 233.32735 
L 329.208283 233.32735 
L 329.208283 235.205802 
L 330.303045 235.205802 
L 330.303045 233.931138 
L 331.397808 233.931138 
L 331.397808 235.205802 
L 332.49257 235.205802 
L 332.49257 235.541239 
L 333.587333 235.541239 
L 333.587333 234.803276 
L 335.776858 234.736189 
L 335.776858 235.138714 
L 336.87162 235.138714 
L 336.87162 236.34629 
L 337.966383 236.34629 
L 337.966383 237.218428 
L 339.061145 237.218428 
L 339.061145 236.34629 
L 340.155908 236.34629 
L 340.155908 235.541239 
L 341.25067 235.541239 
L 341.25067 237.285516 
L 342.345433 237.285516 
L 342.345433 236.950078 
L 343.440196 236.950078 
L 343.440196 234.736189 
L 344.534958 234.736189 
L 344.534958 235.272889 
L 345.629721 235.272889 
L 345.629721 235.407064 
L 346.724483 235.407064 
L 346.724483 236.480465 
L 347.819246 236.480465 
L 347.819246 236.61464 
L 348.914008 236.61464 
L 348.914008 236.480465 
L 350.008771 236.480465 
L 350.008771 235.608327 
L 351.103533 235.608327 
L 351.103533 238.358916 
L 352.198296 238.358916 
L 352.198296 236.748815 
L 353.293058 236.748815 
L 353.293058 237.956391 
L 354.387821 237.956391 
L 354.387821 237.017166 
L 355.482583 237.017166 
L 355.482583 237.688041 
L 356.577346 237.688041 
L 356.577346 242.92087 
L 357.672108 242.92087 
L 357.672108 245.805634 
L 398.178322 245.805634 
L 398.178322 245.805634 
" clip-path="url(#pae7f8f8789)" style="fill: none; stroke: #1f77b4; stroke-width: 1.5; stroke-linecap: square"/>
   </g>
   <g id="line2d_14">
    <path d="M 69.749563 245.738547 
L 76.318138 245.671459 
L 76.318138 245.537284 
L 78.507663 245.470196 
L 78.507663 245.738547 
L 80.697188 245.671459 
L 80.697188 245.134759 
L 81.791951 245.134759 
L 81.791951 245.268934 
L 83.981476 245.268934 
L 83.981476 245.000584 
L 85.076238 245.000584 
L 85.076238 244.061358 
L 86.171001 244.061358 
L 86.171001 243.927183 
L 87.265763 243.927183 
L 87.265763 243.591745 
L 88.360526 243.591745 
L 88.360526 242.182907 
L 89.455288 242.182907 
L 89.455288 240.908243 
L 90.550051 240.908243 
L 90.550051 238.694354 
L 91.644814 238.694354 
L 91.644814 236.010852 
L 92.739576 236.010852 
L 92.739576 232.656475 
L 93.834339 232.656475 
L 93.834339 228.497047 
L 94.929101 228.497047 
L 94.929101 222.727518 
L 96.023864 222.727518 
L 96.023864 209.310008 
L 97.118626 209.310008 
L 97.118626 199.917752 
L 98.213389 199.917752 
L 98.213389 198.374738 
L 99.308151 198.374738 
L 99.308151 245.805634 
L 120.108639 245.805634 
L 120.108639 124.377174 
L 121.203402 124.377174 
L 121.203402 29.448294 
L 122.298164 29.448294 
L 122.298164 28.777419 
L 123.392927 28.777419 
L 123.392927 22.672452 
L 124.487689 22.672452 
L 124.487689 24.819253 
L 125.582452 24.819253 
L 125.582452 27.435668 
L 126.677215 27.435668 
L 126.677215 18.848462 
L 127.771977 18.848462 
L 127.771977 25.423041 
L 128.86674 25.423041 
L 128.86674 20.659826 
L 129.961502 20.659826 
L 129.961502 30.11917 
L 131.056265 30.11917 
L 131.056265 30.857133 
L 132.151027 30.857133 
L 132.151027 35.284911 
L 133.24579 35.284911 
L 133.24579 47.89737 
L 134.340552 47.89737 
L 134.340552 37.431712 
L 135.435315 37.431712 
L 135.435315 46.153094 
L 136.530077 46.153094 
L 136.530077 57.021276 
L 137.62484 57.021276 
L 137.62484 56.014963 
L 138.719602 56.014963 
L 138.719602 57.960502 
L 139.814365 57.960502 
L 139.814365 65.138869 
L 142.00389 65.205957 
L 142.00389 238.023479 
L 143.098652 238.023479 
L 143.098652 245.805634 
L 175.941528 245.805634 
L 175.941528 239.63358 
L 177.036291 239.63358 
L 177.036291 235.407064 
L 178.131053 235.407064 
L 178.131053 237.352603 
L 179.225816 237.352603 
L 179.225816 240.237368 
L 180.320579 240.237368 
L 180.320579 241.109506 
L 181.415341 241.109506 
L 181.415341 243.658833 
L 182.510104 243.658833 
L 182.510104 244.530971 
L 183.604866 244.530971 
L 183.604866 245.268934 
L 184.699629 245.268934 
L 184.699629 245.738547 
L 185.794391 245.738547 
L 185.794391 245.604372 
L 187.983916 245.604372 
L 187.983916 245.738547 
L 190.173441 245.671459 
L 190.173441 245.537284 
L 194.552491 245.470196 
L 194.552491 245.336021 
L 195.647254 245.336021 
L 195.647254 244.933496 
L 196.742016 244.933496 
L 196.742016 244.061358 
L 197.836779 244.061358 
L 197.836779 244.732233 
L 198.931542 244.732233 
L 198.931542 244.195533 
L 200.026304 244.195533 
L 200.026304 244.396796 
L 201.121067 244.396796 
L 201.121067 243.122132 
L 202.215829 243.122132 
L 202.215829 242.585432 
L 203.310592 242.585432 
L 203.310592 241.646206 
L 204.405354 241.646206 
L 204.405354 239.566492 
L 205.500117 239.566492 
L 205.500117 239.432317 
L 206.594879 239.432317 
L 206.594879 245.805634 
L 249.290618 245.805634 
L 249.290618 223.733831 
L 250.38538 223.733831 
L 250.38538 217.494689 
L 251.480143 217.494689 
L 251.480143 217.964302 
L 252.574906 217.964302 
L 252.574906 217.159252 
L 253.669668 217.159252 
L 253.669668 216.354201 
L 254.764431 216.354201 
L 254.764431 217.293427 
L 255.859193 217.293427 
L 255.859193 217.025076 
L 256.953956 217.025076 
L 256.953956 220.379454 
L 258.048718 220.379454 
L 258.048718 218.56809 
L 259.143481 218.56809 
L 259.143481 220.044016 
L 260.238243 220.044016 
L 260.238243 221.654117 
L 261.333006 221.654117 
L 261.333006 221.318679 
L 262.427768 221.318679 
L 262.427768 222.526255 
L 263.522531 222.526255 
L 263.522531 221.721205 
L 264.617293 221.721205 
L 264.617293 221.251592 
L 265.712056 221.251592 
L 265.712056 224.136356 
L 266.806818 224.136356 
L 266.806818 221.251592 
L 267.901581 221.251592 
L 267.901581 221.721205 
L 268.996343 221.721205 
L 268.996343 225.94772 
L 270.091106 225.94772 
L 270.091106 223.264218 
L 271.185869 223.264218 
L 271.185869 245.805634 
L 356.577346 245.805634 
L 356.577346 240.975331 
L 357.672108 240.975331 
L 357.672108 237.553866 
L 358.766871 237.553866 
L 358.766871 239.163967 
L 359.861633 239.163967 
L 359.861633 237.486778 
L 360.956396 237.486778 
L 360.956396 238.090566 
L 362.051159 238.090566 
L 362.051159 237.822216 
L 363.145921 237.822216 
L 363.145921 239.029792 
L 364.240684 239.029792 
L 364.240684 239.566492 
L 365.335446 239.566492 
L 365.335446 239.36523 
L 366.430209 239.36523 
L 366.430209 239.700667 
L 367.524971 239.700667 
L 367.524971 239.36523 
L 368.619734 239.36523 
L 368.619734 239.969018 
L 369.714496 239.969018 
L 369.714496 240.774068 
L 370.809259 240.774068 
L 370.809259 240.639893 
L 371.904021 240.639893 
L 371.904021 241.042418 
L 374.093546 241.109506 
L 374.093546 242.652519 
L 375.188309 242.652519 
L 375.188309 241.310769 
L 376.283071 241.310769 
L 376.283071 242.249994 
L 377.377834 242.249994 
L 377.377834 243.390482 
L 378.472596 243.390482 
L 378.472596 242.182907 
L 379.567359 242.182907 
L 379.567359 242.518344 
L 380.662122 242.518344 
L 380.662122 243.390482 
L 381.756884 243.390482 
L 381.756884 242.652519 
L 382.851647 242.652519 
L 382.851647 243.658833 
L 383.946409 243.658833 
L 383.946409 243.860095 
L 385.041172 243.860095 
L 385.041172 244.061358 
L 386.135934 244.061358 
L 386.135934 244.195533 
L 387.230697 244.195533 
L 387.230697 244.329708 
L 388.325459 244.329708 
L 388.325459 244.195533 
L 389.420222 244.195533 
L 389.420222 244.866409 
L 391.609747 244.866409 
L 391.609747 245.067671 
L 393.799272 245.067671 
L 393.799272 245.470196 
L 394.894034 245.470196 
L 394.894034 245.671459 
L 398.178322 245.604372 
L 398.178322 245.604372 
" clip-path="url(#pae7f8f8789)" style="fill: none; stroke: #808080; stroke-width: 1.5; stroke-linecap: square"/>
   </g>
   <g id="patch_3">
    <path d="M 53.328125 257.153493 
L 53.328125 7.500603 
" style="fill: none; stroke: #000000; stroke-width: 0.8; stroke-linejoin: miter; stroke-linecap: square"/>
   </g>
   <g id="patch_4">
    <path d="M 414.59976 257.153493 
L 414.59976 7.500603 
" style="fill: none; stroke: #000000; stroke-width: 0.8; stroke-linejoin: miter; stroke-linecap: square"/>
   </g>
   <g id="patch_5">
    <path d="M 53.328125 257.153493 
L 414.59976 257.153493 
" style="fill: none; stroke: #000000; stroke-width: 0.8; stroke-linejoin: miter; stroke-linecap: square"/>
   </g>
   <g id="patch_6">
    <path d="M 53.328125 7.500603 
L 414.59976 7.500603 
" style="fill: none; stroke: #000000; stroke-width: 0.8; stroke-linejoin: miter; stroke-linecap: square"/>
   </g>
   <g id="legend_1">
    <g id="patch_7">
     <path d="M 296.760697 44.856853 
L 407.59976 44.856853 
Q 409.59976 44.856853 409.59976 42.856853 
L 409.59976 14.500603 
Q 409.59976 12.500603 407.59976 12.500603 
L 296.760697 12.500603 
Q 294.760697 12.500603 294.760697 14.500603 
L 294.760697 42.856853 
Q 294.760697 44.856853 296.760697 44.856853 
z
" style="fill: #ffffff; opacity: 0.8; stroke: #cccccc; stroke-linejoin: miter"/>
    </g>
    <g id="line2d_15">
     <path d="M 298.760697 20.599041 
L 298.760697 20.599041 
L 308.760697 20.599041 
L 308.760697 20.599041 
L 318.760697 20.599041 
" style="fill: none; stroke: #1f77b4; stroke-width: 1.5; stroke-linecap: square"/>
    </g>
    <g id="text_15">
     <!-- pulse:0 -->
     <g transform="translate(326.760697 24.099041) scale(0.1 -0.1)">
      <defs>
       <path id="DejaVuSans-70" d="M 1159 525 
L 1159 -1331 
L 581 -1331 
L 581 3500 
L 1159 3500 
L 1159 2969 
Q 1341 3281 1617 3432 
Q 1894 3584 2278 3584 
Q 2916 3584 3314 3078 
Q 3713 2572 3713 1747 
Q 3713 922 3314 415 
Q 2916 -91 2278 -91 
Q 1894 -91 1617 61 
Q 1341 213 1159 525 
z
M 3116 1747 
Q 3116 2381 2855 2742 
Q 2594 3103 2138 3103 
Q 1681 3103 1420 2742 
Q 1159 2381 1159 1747 
Q 1159 1113 1420 752 
Q 1681 391 2138 391 
Q 2594 391 2855 752 
Q 3116 1113 3116 1747 
z
" transform="scale(0.015625)"/>
       <path id="DejaVuSans-6c" d="M 603 4863 
L 1178 4863 
L 1178 0 
L 603 0 
L 603 4863 
z
" transform="scale(0.015625)"/>
       <path id="DejaVuSans-65" d="M 3597 1894 
L 3597 1613 
L 953 1613 
Q 991 1019 1311 708 
Q 1631 397 2203 397 
Q 2534 397 2845 478 
Q 3156 559 3463 722 
L 3463 178 
Q 3153 47 2828 -22 
Q 2503 -91 2169 -91 
Q 1331 -91 842 396 
Q 353 884 353 1716 
Q 353 2575 817 3079 
Q 1281 3584 2069 3584 
Q 2775 3584 3186 3129 
Q 3597 2675 3597 1894 
z
M 3022 2063 
Q 3016 2534 2758 2815 
Q 2500 3097 2075 3097 
Q 1594 3097 1305 2825 
Q 1016 2553 972 2059 
L 3022 2063 
z
" transform="scale(0.015625)"/>
       <path id="DejaVuSans-3a" d="M 750 794 
L 1409 794 
L 1409 0 
L 750 0 
L 750 794 
z
M 750 3309 
L 1409 3309 
L 1409 2516 
L 750 2516 
L 750 3309 
z
" transform="scale(0.015625)"/>
      </defs>
      <use xlink:href="#DejaVuSans-70"/>
      <use xlink:href="#DejaVuSans-75" transform="translate(63.476562 0)"/>
      <use xlink:href="#DejaVuSans-6c" transform="translate(126.855469 0)"/>
      <use xlink:href="#DejaVuSans-73" transform="translate(154.638672 0)"/>
      <use xlink:href="#DejaVuSans-65" transform="translate(206.738281 0)"/>
      <use xlink:href="#DejaVuSans-3a" transform="translate(268.261719 0)"/>
      <use xlink:href="#DejaVuSans-30" transform="translate(301.953125 0)"/>
     </g>
    </g>
    <g id="line2d_16">
     <path d="M 298.760697 35.277166 
L 298.760697 35.277166 
L 308.760697 35.277166 
L 308.760697 35.277166 
L 318.760697 35.277166 
" style="fill: none; stroke: #808080; stroke-width: 1.5; stroke-linecap: square"/>
    </g>
    <g id="text_16">
     <!-- blocked-pulse:0 -->
     <g transform="translate(326.760697 38.777166) scale(0.1 -0.1)">
      <defs>
       <path id="DejaVuSans-62" d="M 3116 1747 
Q 3116 2381 2855 2742 
Q 2594 3103 2138 3103 
Q 1681 3103 1420 2742 
Q 1159 2381 1159 1747 
Q 1159 1113 1420 752 
Q 1681 391 2138 391 
Q 2594 391 2855 752 
Q 3116 1113 3116 1747 
z
M 1159 2969 
Q 1341 3281 1617 3432 
Q 1894 3584 2278 3584 
Q 2916 3584 3314 3078 
Q 3713 2572 3713 1747 
Q 3713 922 3314 415 
Q 2916 -91 2278 -91 
Q 1894 -91 1617 61 
Q 1341 213 1159 525 
L 1159 0 
L 581 0 
L 581 4863 
L 1159 4863 
L 1159 2969 
z
" transform="scale(0.015625)"/>
       <path id="DejaVuSans-6b" d="M 581 4863 
L 1159 4863 
L 1159 1991 
L 2875 3500 
L 3609 3500 
L 1753 1863 
L 3688 0 
L 2938 0 
L 1159 1709 
L 1159 0 
L 581 0 
L 581 4863 
z
" transform="scale(0.015625)"/>
       <path id="DejaVuSans-64" d="M 2906 2969 
L 2906 4863 
L 3481 4863 
L 3481 0 
L 2906 0 
L 2906 525 
Q 2725 213 2448 61 
Q 2172 -91 1784 -91 
Q 1150 -91 751 415 
Q 353 922 353 1747 
Q 353 2572 751 3078 
Q 1150 3584 1784 3584 
Q 2172 3584 2448 3432 
Q 2725 3281 2906 2969 
z
M 947 1747 
Q 947 1113 1208 752 
Q 1469 391 1925 391 
Q 2381 391 2643 752 
Q 2906 1113 2906 1747 
Q 2906 2381 2643 2742 
Q 2381 3103 1925 3103 
Q 1469 3103 1208 2742 
Q 947 2381 947 1747 
z
" transform="scale(0.015625)"/>
       <path id="DejaVuSans-2d" d="M 313 2009 
L 1997 2009 
L 1997 1497 
L 313 1497 
L 313 2009 
z
" transform="scale(0.015625)"/>
      </defs>
      <use xlink:href="#DejaVuSans-62"/>
      <use xlink:href="#DejaVuSans-6c" transform="translate(63.476562 0)"/>
      <use xlink:href="#DejaVuSans-6f" transform="translate(91.259766 0)"/>
      <use xlink:href="#DejaVuSans-63" transform="translate(152.441406 0)"/>
      <use xlink:href="#DejaVuSans-6b" transform="translate(207.421875 0)"/>
      <use xlink:href="#DejaVuSans-65" transform="translate(261.707031 0)"/>
      <use xlink:href="#DejaVuSans-64" transform="translate(323.230469 0)"/>
      <use xlink:href="#DejaVuSans-2d" transform="translate(386.707031 0)"/>
      <use xlink:href="#DejaVuSans-70" transform="translate(422.791016 0)"/>
      <use xlink:href="#DejaVuSans-75" transform="translate(486.267578 0)"/>
      <use xlink:href="#DejaVuSans-6c" transform="translate(549.646484 0)"/>
      <use xlink:href="#DejaVuSans-73" transform="translate(577.429688 0)"/>
      <use xlink:href="#DejaVuSans-65" transform="translate(629.529297 0)"/>
      <use xlink:href="#DejaVuSans-3a" transform="translate(691.052734 0)"/>
      <use xlink:href="#DejaVuSans-30" transform="translate(724.744141 0)"/>
     </g>
    </g>
   </g>
  </g>
  <g id="axes_2">
   <g id="patch_8">
    <path d="M 503.927885 257.153493 
L 865.19952 257.153493 
L 865.19952 7.500603 
L 503.927885 7.500603 
z
" style="fill: #ffffff"/>
   </g>
   <g id="matplotlib.axis_3">
    <g id="xtick_5">
     <g id="line2d_17">
      <g>
       <use xlink:href="#me81b2b775b" x="538.951107" y="257.153493" style="stroke: #000000; stroke-width: 0.8"/>
      </g>
     </g>
     <g id="text_17">
      <!-- 2 -->
      <g transform="translate(535.769857 271.75193) scale(0.1 -0.1)">
       <use xlink:href="#DejaVuSans-32"/>
      </g>
     </g>
    </g>
    <g id="xtick_6">
     <g id="line2d_18">
      <g>
       <use xlink:href="#me81b2b775b" x="608.171704" y="257.153493" style="stroke: #000000; stroke-width: 0.8"/>
      </g>
     </g>
     <g id="text_18">
      <!-- 4 -->
      <g transform="translate(604.990454 271.75193) scale(0.1 -0.1)">
       <use xlink:href="#DejaVuSans-34"/>
      </g>
     </g>
    </g>
    <g id="xtick_7">
     <g id="line2d_19">
      <g>
       <use xlink:href="#me81b2b775b" x="677.392301" y="257.153493" style="stroke: #000000; stroke-width: 0.8"/>
      </g>
     </g>
     <g id="text_19">
      <!-- 6 -->
      <g transform="translate(674.211051 271.75193) scale(0.1 -0.1)">
       <defs>
        <path id="DejaVuSans-36" d="M 2113 2584 
Q 1688 2584 1439 2293 
Q 1191 2003 1191 1497 
Q 1191 994 1439 701 
Q 1688 409 2113 409 
Q 2538 409 2786 701 
Q 3034 994 3034 1497 
Q 3034 2003 2786 2293 
Q 2538 2584 2113 2584 
z
M 3366 4563 
L 3366 3988 
Q 3128 4100 2886 4159 
Q 2644 4219 2406 4219 
Q 1781 4219 1451 3797 
Q 1122 3375 1075 2522 
Q 1259 2794 1537 2939 
Q 1816 3084 2150 3084 
Q 2853 3084 3261 2657 
Q 3669 2231 3669 1497 
Q 3669 778 3244 343 
Q 2819 -91 2113 -91 
Q 1303 -91 875 529 
Q 447 1150 447 2328 
Q 447 3434 972 4092 
Q 1497 4750 2381 4750 
Q 2619 4750 2861 4703 
Q 3103 4656 3366 4563 
z
" transform="scale(0.015625)"/>
       </defs>
       <use xlink:href="#DejaVuSans-36"/>
      </g>
     </g>
    </g>
    <g id="xtick_8">
     <g id="line2d_20">
      <g>
       <use xlink:href="#me81b2b775b" x="746.612898" y="257.153493" style="stroke: #000000; stroke-width: 0.8"/>
      </g>
     </g>
     <g id="text_20">
      <!-- 8 -->
      <g transform="translate(743.431648 271.75193) scale(0.1 -0.1)">
       <defs>
        <path id="DejaVuSans-38" d="M 2034 2216 
Q 1584 2216 1326 1975 
Q 1069 1734 1069 1313 
Q 1069 891 1326 650 
Q 1584 409 2034 409 
Q 2484 409 2743 651 
Q 3003 894 3003 1313 
Q 3003 1734 2745 1975 
Q 2488 2216 2034 2216 
z
M 1403 2484 
Q 997 2584 770 2862 
Q 544 3141 544 3541 
Q 544 4100 942 4425 
Q 1341 4750 2034 4750 
Q 2731 4750 3128 4425 
Q 3525 4100 3525 3541 
Q 3525 3141 3298 2862 
Q 3072 2584 2669 2484 
Q 3125 2378 3379 2068 
Q 3634 1759 3634 1313 
Q 3634 634 3220 271 
Q 2806 -91 2034 -91 
Q 1263 -91 848 271 
Q 434 634 434 1313 
Q 434 1759 690 2068 
Q 947 2378 1403 2484 
z
M 1172 3481 
Q 1172 3119 1398 2916 
Q 1625 2713 2034 2713 
Q 2441 2713 2670 2916 
Q 2900 3119 2900 3481 
Q 2900 3844 2670 4047 
Q 2441 4250 2034 4250 
Q 1625 4250 1398 4047 
Q 1172 3844 1172 3481 
z
" transform="scale(0.015625)"/>
       </defs>
       <use xlink:href="#DejaVuSans-38"/>
      </g>
     </g>
    </g>
    <g id="xtick_9">
     <g id="line2d_21">
      <g>
       <use xlink:href="#me81b2b775b" x="815.833494" y="257.153493" style="stroke: #000000; stroke-width: 0.8"/>
      </g>
     </g>
     <g id="text_21">
      <!-- 10 -->
      <g transform="translate(809.470994 271.75193) scale(0.1 -0.1)">
       <use xlink:href="#DejaVuSans-31"/>
       <use xlink:href="#DejaVuSans-30" transform="translate(63.623047 0)"/>
      </g>
     </g>
    </g>
    <g id="text_22">
     <!-- wavelength [Å] -->
     <g transform="translate(646.526202 287.11443) scale(0.1 -0.1)">
      <defs>
       <path id="DejaVuSans-77" d="M 269 3500 
L 844 3500 
L 1563 769 
L 2278 3500 
L 2956 3500 
L 3675 769 
L 4391 3500 
L 4966 3500 
L 4050 0 
L 3372 0 
L 2619 2869 
L 1863 0 
L 1184 0 
L 269 3500 
z
" transform="scale(0.015625)"/>
       <path id="DejaVuSans-76" d="M 191 3500 
L 800 3500 
L 1894 563 
L 2988 3500 
L 3597 3500 
L 2284 0 
L 1503 0 
L 191 3500 
z
" transform="scale(0.015625)"/>
       <path id="DejaVuSans-67" d="M 2906 1791 
Q 2906 2416 2648 2759 
Q 2391 3103 1925 3103 
Q 1463 3103 1205 2759 
Q 947 2416 947 1791 
Q 947 1169 1205 825 
Q 1463 481 1925 481 
Q 2391 481 2648 825 
Q 2906 1169 2906 1791 
z
M 3481 434 
Q 3481 -459 3084 -895 
Q 2688 -1331 1869 -1331 
Q 1566 -1331 1297 -1286 
Q 1028 -1241 775 -1147 
L 775 -588 
Q 1028 -725 1275 -790 
Q 1522 -856 1778 -856 
Q 2344 -856 2625 -561 
Q 2906 -266 2906 331 
L 2906 616 
Q 2728 306 2450 153 
Q 2172 0 1784 0 
Q 1141 0 747 490 
Q 353 981 353 1791 
Q 353 2603 747 3093 
Q 1141 3584 1784 3584 
Q 2172 3584 2450 3431 
Q 2728 3278 2906 2969 
L 2906 3500 
L 3481 3500 
L 3481 434 
z
" transform="scale(0.015625)"/>
       <path id="DejaVuSans-68" d="M 3513 2113 
L 3513 0 
L 2938 0 
L 2938 2094 
Q 2938 2591 2744 2837 
Q 2550 3084 2163 3084 
Q 1697 3084 1428 2787 
Q 1159 2491 1159 1978 
L 1159 0 
L 581 0 
L 581 4863 
L 1159 4863 
L 1159 2956 
Q 1366 3272 1645 3428 
Q 1925 3584 2291 3584 
Q 2894 3584 3203 3211 
Q 3513 2838 3513 2113 
z
" transform="scale(0.015625)"/>
       <path id="DejaVuSans-c5" d="M 2663 5081 
Q 2663 5278 2523 5417 
Q 2384 5556 2188 5556 
Q 1988 5556 1852 5420 
Q 1716 5284 1716 5081 
Q 1716 4884 1853 4746 
Q 1991 4609 2188 4609 
Q 2384 4609 2523 4746 
Q 2663 4884 2663 5081 
z
M 2188 4044 
L 1338 1722 
L 3041 1722 
L 2188 4044 
z
M 1716 4366 
Q 1525 4494 1428 4673 
Q 1331 4853 1331 5081 
Q 1331 5441 1579 5691 
Q 1828 5941 2188 5941 
Q 2544 5941 2795 5689 
Q 3047 5438 3047 5081 
Q 3047 4863 2948 4678 
Q 2850 4494 2663 4366 
L 4325 0 
L 3669 0 
L 3244 1197 
L 1141 1197 
L 716 0 
L 50 0 
L 1716 4366 
z
" transform="scale(0.015625)"/>
      </defs>
      <use xlink:href="#DejaVuSans-77"/>
      <use xlink:href="#DejaVuSans-61" transform="translate(81.787109 0)"/>
      <use xlink:href="#DejaVuSans-76" transform="translate(143.066406 0)"/>
      <use xlink:href="#DejaVuSans-65" transform="translate(202.246094 0)"/>
      <use xlink:href="#DejaVuSans-6c" transform="translate(263.769531 0)"/>
      <use xlink:href="#DejaVuSans-65" transform="translate(291.552734 0)"/>
      <use xlink:href="#DejaVuSans-6e" transform="translate(353.076172 0)"/>
      <use xlink:href="#DejaVuSans-67" transform="translate(416.455078 0)"/>
      <use xlink:href="#DejaVuSans-74" transform="translate(479.931641 0)"/>
      <use xlink:href="#DejaVuSans-68" transform="translate(519.140625 0)"/>
      <use xlink:href="#DejaVuSans-20" transform="translate(582.519531 0)"/>
      <use xlink:href="#DejaVuSans-5b" transform="translate(614.306641 0)"/>
      <use xlink:href="#DejaVuSans-c5" transform="translate(653.320312 0)"/>
      <use xlink:href="#DejaVuSans-5d" transform="translate(721.728516 0)"/>
     </g>
    </g>
   </g>
   <g id="matplotlib.axis_4">
    <g id="ytick_9">
     <g id="line2d_22">
      <g>
       <use xlink:href="#m8029a7aa60" x="503.927885" y="245.805634" style="stroke: #000000; stroke-width: 0.8"/>
      </g>
     </g>
     <g id="text_23">
      <!-- 0 -->
      <g transform="translate(490.565385 249.604853) scale(0.1 -0.1)">
       <use xlink:href="#DejaVuSans-30"/>
      </g>
     </g>
    </g>
    <g id="ytick_10">
     <g id="line2d_23">
      <g>
       <use xlink:href="#m8029a7aa60" x="503.927885" y="207.840232" style="stroke: #000000; stroke-width: 0.8"/>
      </g>
     </g>
     <g id="text_24">
      <!-- 500 -->
      <g transform="translate(477.840385 211.639451) scale(0.1 -0.1)">
       <use xlink:href="#DejaVuSans-35"/>
       <use xlink:href="#DejaVuSans-30" transform="translate(63.623047 0)"/>
       <use xlink:href="#DejaVuSans-30" transform="translate(127.246094 0)"/>
      </g>
     </g>
    </g>
    <g id="ytick_11">
     <g id="line2d_24">
      <g>
       <use xlink:href="#m8029a7aa60" x="503.927885" y="169.87483" style="stroke: #000000; stroke-width: 0.8"/>
      </g>
     </g>
     <g id="text_25">
      <!-- 1000 -->
      <g transform="translate(471.477885 173.674049) scale(0.1 -0.1)">
       <use xlink:href="#DejaVuSans-31"/>
       <use xlink:href="#DejaVuSans-30" transform="translate(63.623047 0)"/>
       <use xlink:href="#DejaVuSans-30" transform="translate(127.246094 0)"/>
       <use xlink:href="#DejaVuSans-30" transform="translate(190.869141 0)"/>
      </g>
     </g>
    </g>
    <g id="ytick_12">
     <g id="line2d_25">
      <g>
       <use xlink:href="#m8029a7aa60" x="503.927885" y="131.909429" style="stroke: #000000; stroke-width: 0.8"/>
      </g>
     </g>
     <g id="text_26">
      <!-- 1500 -->
      <g transform="translate(471.477885 135.708647) scale(0.1 -0.1)">
       <use xlink:href="#DejaVuSans-31"/>
       <use xlink:href="#DejaVuSans-35" transform="translate(63.623047 0)"/>
       <use xlink:href="#DejaVuSans-30" transform="translate(127.246094 0)"/>
       <use xlink:href="#DejaVuSans-30" transform="translate(190.869141 0)"/>
      </g>
     </g>
    </g>
    <g id="ytick_13">
     <g id="line2d_26">
      <g>
       <use xlink:href="#m8029a7aa60" x="503.927885" y="93.944027" style="stroke: #000000; stroke-width: 0.8"/>
      </g>
     </g>
     <g id="text_27">
      <!-- 2000 -->
      <g transform="translate(471.477885 97.743245) scale(0.1 -0.1)">
       <use xlink:href="#DejaVuSans-32"/>
       <use xlink:href="#DejaVuSans-30" transform="translate(63.623047 0)"/>
       <use xlink:href="#DejaVuSans-30" transform="translate(127.246094 0)"/>
       <use xlink:href="#DejaVuSans-30" transform="translate(190.869141 0)"/>
      </g>
     </g>
    </g>
    <g id="ytick_14">
     <g id="line2d_27">
      <g>
       <use xlink:href="#m8029a7aa60" x="503.927885" y="55.978625" style="stroke: #000000; stroke-width: 0.8"/>
      </g>
     </g>
     <g id="text_28">
      <!-- 2500 -->
      <g transform="translate(471.477885 59.777844) scale(0.1 -0.1)">
       <use xlink:href="#DejaVuSans-32"/>
       <use xlink:href="#DejaVuSans-35" transform="translate(63.623047 0)"/>
       <use xlink:href="#DejaVuSans-30" transform="translate(127.246094 0)"/>
       <use xlink:href="#DejaVuSans-30" transform="translate(190.869141 0)"/>
      </g>
     </g>
    </g>
    <g id="ytick_15">
     <g id="line2d_28">
      <g>
       <use xlink:href="#m8029a7aa60" x="503.927885" y="18.013223" style="stroke: #000000; stroke-width: 0.8"/>
      </g>
     </g>
     <g id="text_29">
      <!-- 3000 -->
      <g transform="translate(471.477885 21.812442) scale(0.1 -0.1)">
       <use xlink:href="#DejaVuSans-33"/>
       <use xlink:href="#DejaVuSans-30" transform="translate(63.623047 0)"/>
       <use xlink:href="#DejaVuSans-30" transform="translate(127.246094 0)"/>
       <use xlink:href="#DejaVuSans-30" transform="translate(190.869141 0)"/>
      </g>
     </g>
    </g>
    <g id="text_30">
     <!-- [counts] -->
     <g transform="translate(465.398197 152.939548) rotate(-90) scale(0.1 -0.1)">
      <use xlink:href="#DejaVuSans-5b"/>
      <use xlink:href="#DejaVuSans-63" transform="translate(39.013672 0)"/>
      <use xlink:href="#DejaVuSans-6f" transform="translate(93.994141 0)"/>
      <use xlink:href="#DejaVuSans-75" transform="translate(155.175781 0)"/>
      <use xlink:href="#DejaVuSans-6e" transform="translate(218.554688 0)"/>
      <use xlink:href="#DejaVuSans-74" transform="translate(281.933594 0)"/>
      <use xlink:href="#DejaVuSans-73" transform="translate(321.142578 0)"/>
      <use xlink:href="#DejaVuSans-5d" transform="translate(373.242188 0)"/>
     </g>
    </g>
   </g>
   <g id="line2d_29">
    <path d="M 520.349323 245.805634 
L 551.002674 245.805634 
L 551.002674 245.501911 
L 555.381724 245.577842 
L 555.381724 244.362949 
L 556.476486 244.362949 
L 556.476486 243.831433 
L 557.571249 243.831433 
L 557.571249 242.54061 
L 558.666012 242.54061 
L 558.666012 239.123723 
L 559.760774 239.123723 
L 559.760774 234.947529 
L 560.855537 234.947529 
L 560.855537 228.873065 
L 561.950299 228.873065 
L 561.950299 217.255652 
L 563.045062 217.255652 
L 563.045062 197.437712 
L 564.139824 197.437712 
L 564.139824 176.177087 
L 565.234587 176.177087 
L 565.234587 152.182953 
L 566.329349 152.182953 
L 566.329349 143.906496 
L 567.424112 143.906496 
L 567.424112 134.339214 
L 568.518874 134.339214 
L 568.518874 126.670203 
L 569.613637 126.670203 
L 569.613637 117.178853 
L 570.708399 117.178853 
L 570.708399 103.131654 
L 571.803162 103.131654 
L 571.803162 104.498408 
L 572.897924 104.498408 
L 572.897924 91.43831 
L 573.992687 91.43831 
L 573.992687 87.565839 
L 575.087449 87.565839 
L 575.087449 74.581672 
L 576.182212 74.581672 
L 576.182212 71.848163 
L 577.276975 71.848163 
L 577.276975 71.240716 
L 578.371737 71.240716 
L 578.371737 65.545906 
L 579.4665 65.545906 
L 579.4665 69.038723 
L 580.561262 69.038723 
L 580.561262 68.583138 
L 581.656025 68.583138 
L 581.656025 74.809464 
L 582.750787 74.809464 
L 582.750787 81.339513 
L 583.84555 81.339513 
L 583.84555 103.511308 
L 584.940312 103.511308 
L 584.940312 122.494009 
L 586.035075 122.494009 
L 586.035075 130.618605 
L 587.129837 130.618605 
L 587.129837 146.867797 
L 588.2246 146.867797 
L 588.2246 162.205819 
L 589.319362 162.205819 
L 589.319362 175.038125 
L 590.414125 175.038125 
L 590.414125 191.818833 
L 591.508887 191.818833 
L 591.508887 200.930529 
L 592.60365 200.930529 
L 592.60365 212.927596 
L 593.698412 212.927596 
L 593.698412 224.924663 
L 594.793175 224.924663 
L 594.793175 234.340083 
L 595.887938 234.340083 
L 595.887938 243.755503 
L 596.9827 243.755503 
L 596.9827 245.198188 
L 598.077463 245.198188 
L 598.077463 243.299918 
L 599.172225 243.299918 
L 599.172225 240.490478 
L 600.266988 240.490478 
L 600.266988 236.162422 
L 601.36175 236.162422 
L 601.36175 228.873065 
L 602.456513 228.873065 
L 602.456513 216.496344 
L 603.551275 216.496344 
L 603.551275 202.980661 
L 604.646038 202.980661 
L 604.646038 193.565241 
L 605.7408 193.565241 
L 605.7408 181.720036 
L 606.835563 181.720036 
L 606.835563 172.912063 
L 607.930325 172.912063 
L 607.930325 162.509542 
L 609.025088 162.509542 
L 609.025088 156.738801 
L 610.11985 156.738801 
L 610.11985 148.08269 
L 611.214613 148.08269 
L 611.214613 142.311949 
L 612.309375 142.311949 
L 612.309375 138.743201 
L 613.404138 138.743201 
L 613.404138 135.098522 
L 614.498901 135.098522 
L 614.498901 128.26475 
L 615.593663 128.26475 
L 615.593663 128.796266 
L 616.688426 128.796266 
L 616.688426 130.694536 
L 617.783188 130.694536 
L 617.783188 125.45531 
L 618.877951 125.45531 
L 618.877951 119.7605 
L 619.972713 119.7605 
L 619.972713 122.342147 
L 621.067476 122.342147 
L 621.067476 132.516875 
L 622.162238 132.516875 
L 622.162238 133.807699 
L 623.257001 133.807699 
L 623.257001 140.641471 
L 624.351763 140.641471 
L 624.351763 148.462344 
L 625.446526 148.462344 
L 625.446526 152.86633 
L 626.541288 152.86633 
L 626.541288 154.916462 
L 627.636051 154.916462 
L 627.636051 160.990926 
L 628.730813 160.990926 
L 628.730813 168.204353 
L 629.825576 168.204353 
L 629.825576 178.075357 
L 630.920339 178.075357 
L 630.920339 176.328949 
L 632.015101 176.328949 
L 632.015101 185.744368 
L 633.109864 185.744368 
L 633.109864 184.757268 
L 634.204626 184.757268 
L 634.204626 188.174154 
L 635.299389 188.174154 
L 635.299389 192.198487 
L 636.394151 192.198487 
L 636.394151 197.437712 
L 637.488914 197.437712 
L 637.488914 203.284384 
L 638.583676 203.284384 
L 638.583676 207.536509 
L 639.678439 207.536509 
L 639.678439 208.52361 
L 640.773201 208.52361 
L 640.773201 215.888898 
L 641.867964 215.888898 
L 641.867964 216.496344 
L 642.962726 216.496344 
L 642.962726 217.179721 
L 644.057489 217.179721 
L 644.057489 220.368815 
L 645.152251 220.368815 
L 645.152251 226.367348 
L 646.247014 226.367348 
L 646.247014 225.835833 
L 647.341776 225.835833 
L 647.341776 231.834366 
L 648.436539 231.834366 
L 648.436539 236.618007 
L 649.531302 236.618007 
L 649.531302 240.946063 
L 650.626064 240.946063 
L 650.626064 243.679572 
L 651.720827 243.679572 
L 651.720827 244.970395 
L 652.815589 244.970395 
L 652.815589 245.122257 
L 653.910352 245.122257 
L 653.910352 244.43888 
L 655.005114 244.43888 
L 655.005114 244.135157 
L 656.099877 244.135157 
L 656.099877 243.072125 
L 657.194639 243.072125 
L 657.194639 239.883032 
L 658.289402 239.883032 
L 658.289402 236.466145 
L 659.384164 236.466145 
L 659.384164 234.416014 
L 660.478927 234.416014 
L 660.478927 232.21402 
L 661.573689 232.21402 
L 661.573689 232.669605 
L 662.668452 232.669605 
L 662.668452 228.948996 
L 663.763214 228.948996 
L 663.763214 226.063625 
L 664.857977 226.063625 
L 664.857977 224.848732 
L 665.952739 224.848732 
L 665.952739 225.911764 
L 667.047502 225.911764 
L 667.047502 227.354449 
L 668.142265 227.354449 
L 668.142265 222.191154 
L 669.237027 222.191154 
L 669.237027 223.026393 
L 670.33179 223.026393 
L 670.33179 220.8244 
L 672.521315 220.8244 
L 672.521315 220.141023 
L 673.616077 220.141023 
L 673.616077 219.305784 
L 674.71084 219.305784 
L 674.71084 217.787168 
L 675.805602 217.787168 
L 675.805602 215.281451 
L 676.900365 215.281451 
L 676.900365 213.838766 
L 677.995127 213.838766 
L 677.995127 214.142489 
L 679.08989 214.142489 
L 679.08989 217.179721 
L 680.184652 217.179721 
L 680.184652 212.092357 
L 682.374177 212.016427 
L 682.374177 214.21842 
L 683.46894 214.21842 
L 683.46894 211.105257 
L 684.563702 211.105257 
L 684.563702 210.573741 
L 685.658465 210.573741 
L 685.658465 211.333049 
L 686.753228 211.333049 
L 686.753228 208.59954 
L 687.84799 208.59954 
L 687.84799 209.586641 
L 688.942753 209.586641 
L 688.942753 207.156855 
L 690.037515 207.156855 
L 690.037515 205.410447 
L 691.132278 205.410447 
L 691.132278 209.131056 
L 692.22704 209.131056 
L 692.22704 210.649672 
L 693.321803 210.649672 
L 693.321803 209.358848 
L 694.416565 209.358848 
L 694.416565 210.801534 
L 695.511328 210.801534 
L 695.511328 209.282918 
L 696.60609 209.282918 
L 696.60609 210.953395 
L 697.700853 210.953395 
L 697.700853 214.370281 
L 698.795615 214.370281 
L 698.795615 214.598074 
L 699.890378 214.598074 
L 699.890378 218.470545 
L 700.98514 218.470545 
L 700.98514 220.292884 
L 702.079903 220.292884 
L 702.079903 219.381714 
L 703.174666 219.381714 
L 703.174666 224.848732 
L 704.269428 224.848732 
L 704.269428 227.961895 
L 705.364191 227.961895 
L 705.364191 231.454712 
L 706.458953 231.454712 
L 706.458953 231.302851 
L 707.553716 231.302851 
L 707.553716 234.491944 
L 708.648478 234.491944 
L 708.648478 235.706837 
L 709.743241 235.706837 
L 709.743241 237.225453 
L 710.838003 237.225453 
L 710.838003 238.668139 
L 711.932766 238.668139 
L 711.932766 241.781302 
L 713.027528 241.781302 
L 713.027528 241.62944 
L 714.122291 241.62944 
L 714.122291 242.312817 
L 715.217053 242.312817 
L 715.217053 242.085025 
L 717.406578 242.085025 
L 717.406578 240.566409 
L 718.501341 240.566409 
L 718.501341 238.060692 
L 719.596103 238.060692 
L 719.596103 236.92173 
L 720.690866 236.92173 
L 720.690866 235.099391 
L 721.785629 235.099391 
L 721.785629 233.428913 
L 722.880391 233.428913 
L 722.880391 231.302851 
L 725.069916 231.22692 
L 725.069916 228.189688 
L 726.164679 228.189688 
L 726.164679 227.658172 
L 728.354204 227.658172 
L 728.354204 224.848732 
L 729.448966 224.848732 
L 729.448966 225.60804 
L 731.638491 225.60804 
L 731.638491 224.317217 
L 732.733254 224.317217 
L 732.733254 224.469078 
L 733.828016 224.469078 
L 733.828016 223.70977 
L 734.922779 223.70977 
L 734.922779 222.494877 
L 736.017541 222.494877 
L 736.017541 222.798601 
L 737.112304 222.798601 
L 737.112304 221.8115 
L 738.207066 221.8115 
L 738.207066 222.874531 
L 739.301829 222.874531 
L 739.301829 222.418947 
L 740.396592 222.418947 
L 740.396592 224.089424 
L 743.680879 224.013494 
L 743.680879 224.317217 
L 744.775642 224.317217 
L 744.775642 225.076525 
L 745.870404 225.076525 
L 745.870404 226.063625 
L 746.965167 226.063625 
L 746.965167 225.53211 
L 748.059929 225.53211 
L 748.059929 226.51921 
L 749.154692 226.51921 
L 749.154692 225.380248 
L 750.249454 225.380248 
L 750.249454 227.582241 
L 751.344217 227.582241 
L 751.344217 225.076525 
L 752.438979 225.076525 
L 752.438979 227.354449 
L 753.533742 227.354449 
L 753.533742 228.948996 
L 754.628504 228.948996 
L 754.628504 227.582241 
L 755.723267 227.582241 
L 755.723267 227.126656 
L 756.818029 227.126656 
L 756.818029 228.493411 
L 757.912792 228.493411 
L 757.912792 225.53211 
L 759.007555 225.53211 
L 759.007555 228.569342 
L 760.102317 228.569342 
L 760.102317 228.721203 
L 761.19708 228.721203 
L 761.19708 228.948996 
L 763.386605 229.024927 
L 763.386605 231.075058 
L 764.481367 231.075058 
L 764.481367 230.012027 
L 765.57613 230.012027 
L 765.57613 230.467612 
L 766.670892 230.467612 
L 766.670892 230.239819 
L 767.765655 230.239819 
L 767.765655 231.075058 
L 768.860417 231.075058 
L 768.860417 232.745536 
L 769.95518 232.745536 
L 769.95518 229.556442 
L 771.049942 229.556442 
L 771.049942 230.695404 
L 772.144705 230.695404 
L 772.144705 231.378781 
L 773.239467 231.378781 
L 773.239467 232.21402 
L 774.33423 232.21402 
L 774.33423 231.302851 
L 775.428993 231.302851 
L 775.428993 232.897398 
L 776.523755 232.897398 
L 776.523755 229.632373 
L 777.618518 229.632373 
L 777.618518 231.302851 
L 778.71328 231.302851 
L 778.71328 233.352982 
L 779.808043 233.352982 
L 779.808043 233.808567 
L 780.902805 233.808567 
L 780.902805 234.03636 
L 781.997568 234.03636 
L 781.997568 233.201121 
L 783.09233 233.201121 
L 783.09233 233.504844 
L 784.187093 233.504844 
L 784.187093 234.567875 
L 785.281855 234.567875 
L 785.281855 232.821467 
L 786.376618 232.821467 
L 786.376618 233.12519 
L 787.47138 233.12519 
L 787.47138 234.947529 
L 788.566143 234.947529 
L 788.566143 233.504844 
L 789.660905 233.504844 
L 789.660905 233.960429 
L 790.755668 233.960429 
L 790.755668 235.554976 
L 791.85043 235.554976 
L 791.85043 236.010561 
L 792.945193 236.010561 
L 792.945193 236.845799 
L 794.039956 236.845799 
L 794.039956 236.238353 
L 795.134718 236.238353 
L 795.134718 237.453246 
L 796.229481 237.453246 
L 796.229481 238.136623 
L 797.324243 238.136623 
L 797.324243 238.971862 
L 798.419006 238.971862 
L 798.419006 238.592208 
L 799.513768 238.592208 
L 799.513768 240.186755 
L 800.608531 240.186755 
L 800.608531 241.857232 
L 801.703293 241.857232 
L 801.703293 242.464679 
L 802.798056 242.464679 
L 802.798056 242.996194 
L 803.892818 242.996194 
L 803.892818 242.768402 
L 804.987581 242.768402 
L 804.987581 243.831433 
L 806.082343 243.831433 
L 806.082343 244.666672 
L 807.177106 244.666672 
L 807.177106 244.059226 
L 808.271868 244.059226 
L 808.271868 245.350049 
L 809.366631 245.350049 
L 809.366631 245.577842 
L 811.556156 245.653773 
L 811.556156 245.805634 
L 848.778082 245.805634 
L 848.778082 245.805634 
" clip-path="url(#p04f9f76ef3)" style="fill: none; stroke: #1f77b4; stroke-width: 1.5; stroke-linecap: square"/>
   </g>
   <g id="line2d_30">
    <path d="M 520.349323 245.729703 
L 530.202186 245.729703 
L 530.202186 245.350049 
L 531.296948 245.350049 
L 531.296948 245.577842 
L 535.675998 245.577842 
L 535.675998 245.350049 
L 537.865523 245.350049 
L 537.865523 245.122257 
L 538.960286 245.122257 
L 538.960286 245.350049 
L 541.149811 245.350049 
L 541.149811 244.742603 
L 542.244574 244.742603 
L 542.244574 245.046326 
L 543.339336 245.046326 
L 543.339336 244.43888 
L 545.528861 244.43888 
L 545.528861 243.983295 
L 546.623624 243.983295 
L 546.623624 243.375848 
L 547.718386 243.375848 
L 547.718386 241.857232 
L 548.813149 241.857232 
L 548.813149 242.61654 
L 549.907911 242.61654 
L 549.907911 240.262686 
L 551.002674 240.262686 
L 551.002674 239.655239 
L 552.097436 239.655239 
L 552.097436 237.756969 
L 553.192199 237.756969 
L 553.192199 235.403114 
L 554.286961 235.403114 
L 554.286961 233.656706 
L 555.381724 233.656706 
L 555.381724 230.695404 
L 556.476486 230.695404 
L 556.476486 230.012027 
L 557.571249 230.012027 
L 557.571249 224.62094 
L 558.666012 224.62094 
L 558.666012 221.128123 
L 559.760774 221.128123 
L 559.760774 216.344482 
L 560.855537 216.344482 
L 560.855537 219.989161 
L 561.950299 219.989161 
L 561.950299 218.546476 
L 563.045062 218.546476 
L 563.045062 224.772802 
L 564.139824 224.772802 
L 564.139824 241.401648 
L 565.234587 241.401648 
L 565.234587 245.805634 
L 570.708399 245.805634 
L 570.708399 245.501911 
L 573.992687 245.42598 
L 573.992687 244.514811 
L 575.087449 244.514811 
L 575.087449 244.211087 
L 576.182212 244.211087 
L 576.182212 243.755503 
L 577.276975 243.755503 
L 577.276975 241.933163 
L 578.371737 241.933163 
L 578.371737 240.338616 
L 579.4665 240.338616 
L 579.4665 237.605107 
L 580.561262 237.605107 
L 580.561262 231.834366 
L 581.656025 231.834366 
L 581.656025 219.077991 
L 582.750787 219.077991 
L 582.750787 204.803 
L 583.84555 204.803 
L 583.84555 182.934929 
L 584.940312 182.934929 
L 584.940312 164.483743 
L 586.035075 164.483743 
L 586.035075 145.652904 
L 587.129837 145.652904 
L 587.129837 129.859297 
L 588.2246 129.859297 
L 588.2246 115.508375 
L 589.319362 115.508375 
L 589.319362 89.615971 
L 590.414125 89.615971 
L 590.414125 79.365312 
L 591.508887 79.365312 
L 591.508887 67.444176 
L 592.60365 67.444176 
L 592.60365 53.093254 
L 593.698412 53.093254 
L 593.698412 43.905627 
L 594.793175 43.905627 
L 594.793175 35.097654 
L 595.887938 35.097654 
L 595.887938 20.59487 
L 596.9827 20.59487 
L 596.9827 20.367078 
L 598.077463 20.367078 
L 598.077463 18.848462 
L 599.172225 18.848462 
L 599.172225 19.000323 
L 600.266988 19.000323 
L 600.266988 27.808297 
L 601.36175 27.808297 
L 601.36175 35.021723 
L 602.456513 35.021723 
L 602.456513 41.779565 
L 603.551275 41.779565 
L 603.551275 65.242183 
L 604.646038 65.242183 
L 604.646038 67.520107 
L 605.7408 67.520107 
L 605.7408 91.362379 
L 606.835563 91.362379 
L 606.835563 108.826464 
L 607.930325 108.826464 
L 607.930325 124.164487 
L 609.025088 124.164487 
L 609.025088 131.301982 
L 610.11985 131.301982 
L 610.11985 142.843464 
L 611.214613 142.843464 
L 611.214613 160.535342 
L 612.309375 160.535342 
L 612.309375 167.824699 
L 613.404138 167.824699 
L 613.404138 181.18852 
L 614.498901 181.18852 
L 614.498901 193.944895 
L 615.593663 193.944895 
L 615.593663 207.232786 
L 616.688426 207.232786 
L 616.688426 216.420413 
L 617.783188 216.420413 
L 617.783188 226.443279 
L 618.877951 226.443279 
L 618.877951 235.706837 
L 619.972713 235.706837 
L 619.972713 242.768402 
L 621.067476 242.768402 
L 621.067476 245.42598 
L 622.162238 245.42598 
L 622.162238 245.805634 
L 626.541288 245.805634 
L 626.541288 245.501911 
L 627.636051 245.501911 
L 627.636051 245.729703 
L 629.825576 245.805634 
L 629.825576 245.42598 
L 630.920339 245.42598 
L 630.920339 245.729703 
L 635.299389 245.653773 
L 635.299389 245.577842 
L 636.394151 245.577842 
L 636.394151 245.42598 
L 638.583676 245.42598 
L 638.583676 245.274119 
L 639.678439 245.274119 
L 639.678439 245.42598 
L 640.773201 245.42598 
L 640.773201 245.653773 
L 641.867964 245.653773 
L 641.867964 245.198188 
L 642.962726 245.198188 
L 642.962726 244.211087 
L 644.057489 244.211087 
L 644.057489 245.046326 
L 645.152251 245.046326 
L 645.152251 244.135157 
L 646.247014 244.135157 
L 646.247014 245.046326 
L 647.341776 245.046326 
L 647.341776 243.299918 
L 648.436539 243.299918 
L 648.436539 239.655239 
L 649.531302 239.655239 
L 649.531302 236.997661 
L 650.626064 236.997661 
L 650.626064 235.251252 
L 651.720827 235.251252 
L 651.720827 237.377315 
L 652.815589 237.377315 
L 652.815589 237.149523 
L 653.910352 237.149523 
L 653.910352 238.136623 
L 655.005114 238.136623 
L 655.005114 239.275585 
L 656.099877 239.275585 
L 656.099877 240.490478 
L 657.194639 240.490478 
L 657.194639 241.477578 
L 658.289402 241.477578 
L 658.289402 243.223987 
L 659.384164 243.223987 
L 659.384164 245.577842 
L 660.478927 245.577842 
L 660.478927 245.805634 
L 686.753228 245.729703 
L 686.753228 245.577842 
L 691.132278 245.501911 
L 691.132278 245.350049 
L 693.321803 245.274119 
L 693.321803 244.666672 
L 694.416565 244.666672 
L 694.416565 244.362949 
L 695.511328 244.362949 
L 695.511328 242.768402 
L 696.60609 242.768402 
L 696.60609 241.933163 
L 697.700853 241.933163 
L 697.700853 240.110824 
L 698.795615 240.110824 
L 698.795615 237.453246 
L 699.890378 237.453246 
L 699.890378 232.897398 
L 700.98514 232.897398 
L 700.98514 231.986228 
L 702.079903 231.986228 
L 702.079903 228.41748 
L 703.174666 228.41748 
L 703.174666 229.860165 
L 704.269428 229.860165 
L 704.269428 227.734103 
L 705.364191 227.734103 
L 705.364191 224.848732 
L 706.458953 224.848732 
L 706.458953 222.039293 
L 707.553716 222.039293 
L 707.553716 224.089424 
L 708.648478 224.089424 
L 708.648478 219.533576 
L 709.743241 219.533576 
L 709.743241 220.368815 
L 710.838003 220.368815 
L 710.838003 218.470545 
L 711.932766 218.470545 
L 711.932766 218.242752 
L 713.027528 218.242752 
L 713.027528 219.457645 
L 714.122291 219.457645 
L 714.122291 216.875998 
L 715.217053 216.875998 
L 715.217053 216.496344 
L 716.311816 216.496344 
L 716.311816 216.875998 
L 717.406578 216.875998 
L 717.406578 222.418947 
L 718.501341 222.418947 
L 718.501341 221.963362 
L 719.596103 221.963362 
L 719.596103 224.848732 
L 720.690866 224.848732 
L 720.690866 226.139556 
L 721.785629 226.139556 
L 721.785629 229.32865 
L 722.880391 229.32865 
L 722.880391 230.391681 
L 723.975154 230.391681 
L 723.975154 233.277052 
L 725.069916 233.277052 
L 725.069916 234.795668 
L 726.164679 234.795668 
L 726.164679 235.02346 
L 727.259441 235.02346 
L 727.259441 236.997661 
L 728.354204 236.997661 
L 728.354204 240.870132 
L 729.448966 240.870132 
L 729.448966 239.807101 
L 730.543729 239.807101 
L 730.543729 242.160956 
L 731.638491 242.160956 
L 731.638491 243.679572 
L 732.733254 243.679572 
L 732.733254 244.362949 
L 733.828016 244.362949 
L 733.828016 245.198188 
L 734.922779 245.198188 
L 734.922779 245.729703 
L 789.660905 245.805634 
L 789.660905 245.42598 
L 790.755668 245.42598 
L 790.755668 245.274119 
L 791.85043 245.274119 
L 791.85043 244.666672 
L 792.945193 244.666672 
L 792.945193 244.059226 
L 794.039956 244.059226 
L 794.039956 243.52771 
L 795.134718 243.52771 
L 795.134718 242.996194 
L 796.229481 242.996194 
L 796.229481 243.375848 
L 797.324243 243.375848 
L 797.324243 242.464679 
L 798.419006 242.464679 
L 798.419006 241.097924 
L 799.513768 241.097924 
L 799.513768 242.009094 
L 800.608531 242.009094 
L 800.608531 241.401648 
L 801.703293 241.401648 
L 801.703293 240.71827 
L 802.798056 240.71827 
L 802.798056 241.325717 
L 803.892818 241.325717 
L 803.892818 239.883032 
L 806.082343 239.807101 
L 806.082343 240.338616 
L 807.177106 240.338616 
L 807.177106 239.807101 
L 808.271868 239.807101 
L 808.271868 240.110824 
L 809.366631 240.110824 
L 809.366631 239.807101 
L 810.461393 239.807101 
L 810.461393 240.794201 
L 811.556156 240.794201 
L 811.556156 240.262686 
L 812.650919 240.262686 
L 812.650919 239.958962 
L 814.840444 239.958962 
L 814.840444 241.325717 
L 815.935206 241.325717 
L 815.935206 240.71827 
L 818.124731 240.64234 
L 818.124731 241.705371 
L 819.219494 241.705371 
L 819.219494 241.857232 
L 820.314256 241.857232 
L 820.314256 242.388748 
L 821.409019 242.388748 
L 821.409019 242.236886 
L 823.598544 242.160956 
L 823.598544 243.148056 
L 824.693306 243.148056 
L 824.693306 242.312817 
L 825.788069 242.312817 
L 825.788069 243.072125 
L 827.977594 242.996194 
L 827.977594 243.299918 
L 829.072357 243.299918 
L 829.072357 243.451779 
L 831.261882 243.375848 
L 831.261882 244.059226 
L 833.451407 243.983295 
L 833.451407 243.52771 
L 834.546169 243.52771 
L 834.546169 244.43888 
L 837.830457 244.514811 
L 837.830457 245.198188 
L 838.925219 245.198188 
L 838.925219 244.894465 
L 841.114744 244.970395 
L 841.114744 245.42598 
L 842.209507 245.42598 
L 842.209507 245.274119 
L 843.304269 245.274119 
L 843.304269 245.653773 
L 845.493794 245.653773 
L 845.493794 245.805634 
L 846.588557 245.805634 
L 846.588557 245.653773 
L 848.778082 245.729703 
L 848.778082 245.729703 
" clip-path="url(#p04f9f76ef3)" style="fill: none; stroke: #808080; stroke-width: 1.5; stroke-linecap: square"/>
   </g>
   <g id="patch_9">
    <path d="M 503.927885 257.153493 
L 503.927885 7.500603 
" style="fill: none; stroke: #000000; stroke-width: 0.8; stroke-linejoin: miter; stroke-linecap: square"/>
   </g>
   <g id="patch_10">
    <path d="M 865.19952 257.153493 
L 865.19952 7.500603 
" style="fill: none; stroke: #000000; stroke-width: 0.8; stroke-linejoin: miter; stroke-linecap: square"/>
   </g>
   <g id="patch_11">
    <path d="M 503.927885 257.153493 
L 865.19952 257.153493 
" style="fill: none; stroke: #000000; stroke-width: 0.8; stroke-linejoin: miter; stroke-linecap: square"/>
   </g>
   <g id="patch_12">
    <path d="M 503.927885 7.500603 
L 865.19952 7.500603 
" style="fill: none; stroke: #000000; stroke-width: 0.8; stroke-linejoin: miter; stroke-linecap: square"/>
   </g>
   <g id="legend_2">
    <g id="patch_13">
     <path d="M 747.360457 44.856853 
L 858.19952 44.856853 
Q 860.19952 44.856853 860.19952 42.856853 
L 860.19952 14.500603 
Q 860.19952 12.500603 858.19952 12.500603 
L 747.360457 12.500603 
Q 745.360457 12.500603 745.360457 14.500603 
L 745.360457 42.856853 
Q 745.360457 44.856853 747.360457 44.856853 
z
" style="fill: #ffffff; opacity: 0.8; stroke: #cccccc; stroke-linejoin: miter"/>
    </g>
    <g id="line2d_31">
     <path d="M 749.360457 20.599041 
L 749.360457 20.599041 
L 759.360457 20.599041 
L 759.360457 20.599041 
L 769.360457 20.599041 
" style="fill: none; stroke: #1f77b4; stroke-width: 1.5; stroke-linecap: square"/>
    </g>
    <g id="text_31">
     <!-- pulse:0 -->
     <g transform="translate(777.360457 24.099041) scale(0.1 -0.1)">
      <use xlink:href="#DejaVuSans-70"/>
      <use xlink:href="#DejaVuSans-75" transform="translate(63.476562 0)"/>
      <use xlink:href="#DejaVuSans-6c" transform="translate(126.855469 0)"/>
      <use xlink:href="#DejaVuSans-73" transform="translate(154.638672 0)"/>
      <use xlink:href="#DejaVuSans-65" transform="translate(206.738281 0)"/>
      <use xlink:href="#DejaVuSans-3a" transform="translate(268.261719 0)"/>
      <use xlink:href="#DejaVuSans-30" transform="translate(301.953125 0)"/>
     </g>
    </g>
    <g id="line2d_32">
     <path d="M 749.360457 35.277166 
L 749.360457 35.277166 
L 759.360457 35.277166 
L 759.360457 35.277166 
L 769.360457 35.277166 
" style="fill: none; stroke: #808080; stroke-width: 1.5; stroke-linecap: square"/>
    </g>
    <g id="text_32">
     <!-- blocked-pulse:0 -->
     <g transform="translate(777.360457 38.777166) scale(0.1 -0.1)">
      <use xlink:href="#DejaVuSans-62"/>
      <use xlink:href="#DejaVuSans-6c" transform="translate(63.476562 0)"/>
      <use xlink:href="#DejaVuSans-6f" transform="translate(91.259766 0)"/>
      <use xlink:href="#DejaVuSans-63" transform="translate(152.441406 0)"/>
      <use xlink:href="#DejaVuSans-6b" transform="translate(207.421875 0)"/>
      <use xlink:href="#DejaVuSans-65" transform="translate(261.707031 0)"/>
      <use xlink:href="#DejaVuSans-64" transform="translate(323.230469 0)"/>
      <use xlink:href="#DejaVuSans-2d" transform="translate(386.707031 0)"/>
      <use xlink:href="#DejaVuSans-70" transform="translate(422.791016 0)"/>
      <use xlink:href="#DejaVuSans-75" transform="translate(486.267578 0)"/>
      <use xlink:href="#DejaVuSans-6c" transform="translate(549.646484 0)"/>
      <use xlink:href="#DejaVuSans-73" transform="translate(577.429688 0)"/>
      <use xlink:href="#DejaVuSans-65" transform="translate(629.529297 0)"/>
      <use xlink:href="#DejaVuSans-3a" transform="translate(691.052734 0)"/>
      <use xlink:href="#DejaVuSans-30" transform="translate(724.744141 0)"/>
     </g>
    </g>
   </g>
  </g>
 </g>
 <defs>
  <clipPath id="pae7f8f8789">
   <rect x="53.328125" y="7.500603" width="361.271635" height="249.65289"/>
  </clipPath>
  <clipPath id="p04f9f76ef3">
   <rect x="503.927885" y="7.500603" width="361.271635" height="249.65289"/>
  </clipPath>
 </defs>
</svg>
