<?xml version="1.0" encoding="utf-8" standalone="no"?>
<!DOCTYPE svg PUBLIC "-//W3C//DTD SVG 1.1//EN"
  "http://www.w3.org/Graphics/SVG/1.1/DTD/svg11.dtd">
<svg xmlns:xlink="http://www.w3.org/1999/xlink" width="401.690625pt" height="266.51625pt" viewBox="0 0 401.690625 266.51625" xmlns="http://www.w3.org/2000/svg" version="1.1">
 <metadata>
  <rdf:RDF xmlns:dc="http://purl.org/dc/elements/1.1/" xmlns:cc="http://creativecommons.org/ns#" xmlns:rdf="http://www.w3.org/1999/02/22-rdf-syntax-ns#">
   <cc:Work>
    <dc:type rdf:resource="http://purl.org/dc/dcmitype/StillImage"/>
    <dc:date>2025-11-19T10:11:18.174816</dc:date>
    <dc:format>image/svg+xml</dc:format>
    <dc:creator>
     <cc:Agent>
      <dc:title>Matplotlib v3.10.7, https://matplotlib.org/</dc:title>
     </cc:Agent>
    </dc:creator>
   </cc:Work>
  </rdf:RDF>
 </metadata>
 <defs>
  <style type="text/css">*{stroke-linejoin: round; stroke-linecap: butt}</style>
 </defs>
 <g id="figure_1">
  <g id="patch_1">
   <path d="M 0 266.51625 
L 401.690625 266.51625 
L 401.690625 0 
L 0 0 
z
" style="fill: #ffffff"/>
  </g>
  <g id="axes_1">
   <g id="patch_2">
    <path d="M 59.690625 228.96 
L 394.490625 228.96 
L 394.490625 7.2 
L 59.690625 7.2 
z
" style="fill: #ffffff"/>
   </g>
   <g id="matplotlib.axis_1">
    <g id="xtick_1">
     <g id="line2d_1">
      <defs>
       <path id="m93fc9e5cb0" d="M 0 0 
L 0 3.5 
" style="stroke: #000000; stroke-width: 0.8"/>
      </defs>
      <g>
       <use xlink:href="#m93fc9e5cb0" x="71.696212" y="228.96" style="stroke: #000000; stroke-width: 0.8"/>
      </g>
     </g>
     <g id="text_1">
      <!-- 0 -->
      <g transform="translate(68.514962 243.558437) scale(0.1 -0.1)">
       <defs>
        <path id="DejaVuSans-30" d="M 2034 4250 
Q 1547 4250 1301 3770 
Q 1056 3291 1056 2328 
Q 1056 1369 1301 889 
Q 1547 409 2034 409 
Q 2525 409 2770 889 
Q 3016 1369 3016 2328 
Q 3016 3291 2770 3770 
Q 2525 4250 2034 4250 
z
M 2034 4750 
Q 2819 4750 3233 4129 
Q 3647 3509 3647 2328 
Q 3647 1150 3233 529 
Q 2819 -91 2034 -91 
Q 1250 -91 836 529 
Q 422 1150 422 2328 
Q 422 3509 836 4129 
Q 1250 4750 2034 4750 
z
" transform="scale(0.015625)"/>
       </defs>
       <use xlink:href="#DejaVuSans-30"/>
      </g>
     </g>
    </g>
    <g id="xtick_2">
     <g id="line2d_2">
      <g>
       <use xlink:href="#m93fc9e5cb0" x="141.710126" y="228.96" style="stroke: #000000; stroke-width: 0.8"/>
      </g>
     </g>
     <g id="text_2">
      <!-- 10000 -->
      <g transform="translate(125.803876 243.558437) scale(0.1 -0.1)">
       <defs>
        <path id="DejaVuSans-31" d="M 794 531 
L 1825 531 
L 1825 4091 
L 703 3866 
L 703 4441 
L 1819 4666 
L 2450 4666 
L 2450 531 
L 3481 531 
L 3481 0 
L 794 0 
L 794 531 
z
" transform="scale(0.015625)"/>
       </defs>
       <use xlink:href="#DejaVuSans-31"/>
       <use xlink:href="#DejaVuSans-30" transform="translate(63.623047 0)"/>
       <use xlink:href="#DejaVuSans-30" transform="translate(127.246094 0)"/>
       <use xlink:href="#DejaVuSans-30" transform="translate(190.869141 0)"/>
       <use xlink:href="#DejaVuSans-30" transform="translate(254.492188 0)"/>
      </g>
     </g>
    </g>
    <g id="xtick_3">
     <g id="line2d_3">
      <g>
       <use xlink:href="#m93fc9e5cb0" x="211.724041" y="228.96" style="stroke: #000000; stroke-width: 0.8"/>
      </g>
     </g>
     <g id="text_3">
      <!-- 20000 -->
      <g transform="translate(195.817791 243.558437) scale(0.1 -0.1)">
       <defs>
        <path id="DejaVuSans-32" d="M 1228 531 
L 3431 531 
L 3431 0 
L 469 0 
L 469 531 
Q 828 903 1448 1529 
Q 2069 2156 2228 2338 
Q 2531 2678 2651 2914 
Q 2772 3150 2772 3378 
Q 2772 3750 2511 3984 
Q 2250 4219 1831 4219 
Q 1534 4219 1204 4116 
Q 875 4013 500 3803 
L 500 4441 
Q 881 4594 1212 4672 
Q 1544 4750 1819 4750 
Q 2544 4750 2975 4387 
Q 3406 4025 3406 3419 
Q 3406 3131 3298 2873 
Q 3191 2616 2906 2266 
Q 2828 2175 2409 1742 
Q 1991 1309 1228 531 
z
" transform="scale(0.015625)"/>
       </defs>
       <use xlink:href="#DejaVuSans-32"/>
       <use xlink:href="#DejaVuSans-30" transform="translate(63.623047 0)"/>
       <use xlink:href="#DejaVuSans-30" transform="translate(127.246094 0)"/>
       <use xlink:href="#DejaVuSans-30" transform="translate(190.869141 0)"/>
       <use xlink:href="#DejaVuSans-30" transform="translate(254.492188 0)"/>
      </g>
     </g>
    </g>
    <g id="xtick_4">
     <g id="line2d_4">
      <g>
       <use xlink:href="#m93fc9e5cb0" x="281.737955" y="228.96" style="stroke: #000000; stroke-width: 0.8"/>
      </g>
     </g>
     <g id="text_4">
      <!-- 30000 -->
      <g transform="translate(265.831705 243.558437) scale(0.1 -0.1)">
       <defs>
        <path id="DejaVuSans-33" d="M 2597 2516 
Q 3050 2419 3304 2112 
Q 3559 1806 3559 1356 
Q 3559 666 3084 287 
Q 2609 -91 1734 -91 
Q 1441 -91 1130 -33 
Q 819 25 488 141 
L 488 750 
Q 750 597 1062 519 
Q 1375 441 1716 441 
Q 2309 441 2620 675 
Q 2931 909 2931 1356 
Q 2931 1769 2642 2001 
Q 2353 2234 1838 2234 
L 1294 2234 
L 1294 2753 
L 1863 2753 
Q 2328 2753 2575 2939 
Q 2822 3125 2822 3475 
Q 2822 3834 2567 4026 
Q 2313 4219 1838 4219 
Q 1578 4219 1281 4162 
Q 984 4106 628 3988 
L 628 4550 
Q 988 4650 1302 4700 
Q 1616 4750 1894 4750 
Q 2613 4750 3031 4423 
Q 3450 4097 3450 3541 
Q 3450 3153 3228 2886 
Q 3006 2619 2597 2516 
z
" transform="scale(0.015625)"/>
       </defs>
       <use xlink:href="#DejaVuSans-33"/>
       <use xlink:href="#DejaVuSans-30" transform="translate(63.623047 0)"/>
       <use xlink:href="#DejaVuSans-30" transform="translate(127.246094 0)"/>
       <use xlink:href="#DejaVuSans-30" transform="translate(190.869141 0)"/>
       <use xlink:href="#DejaVuSans-30" transform="translate(254.492188 0)"/>
      </g>
     </g>
    </g>
    <g id="xtick_5">
     <g id="line2d_5">
      <g>
       <use xlink:href="#m93fc9e5cb0" x="351.75187" y="228.96" style="stroke: #000000; stroke-width: 0.8"/>
      </g>
     </g>
     <g id="text_5">
      <!-- 40000 -->
      <g transform="translate(335.84562 243.558437) scale(0.1 -0.1)">
       <defs>
        <path id="DejaVuSans-34" d="M 2419 4116 
L 825 1625 
L 2419 1625 
L 2419 4116 
z
M 2253 4666 
L 3047 4666 
L 3047 1625 
L 3713 1625 
L 3713 1100 
L 3047 1100 
L 3047 0 
L 2419 0 
L 2419 1100 
L 313 1100 
L 313 1709 
L 2253 4666 
z
" transform="scale(0.015625)"/>
       </defs>
       <use xlink:href="#DejaVuSans-34"/>
       <use xlink:href="#DejaVuSans-30" transform="translate(63.623047 0)"/>
       <use xlink:href="#DejaVuSans-30" transform="translate(127.246094 0)"/>
       <use xlink:href="#DejaVuSans-30" transform="translate(190.869141 0)"/>
       <use xlink:href="#DejaVuSans-30" transform="translate(254.492188 0)"/>
      </g>
     </g>
    </g>
    <g id="text_6">
     <!-- toa [µs] -->
     <g transform="translate(207.730469 257.236562) scale(0.1 -0.1)">
      <defs>
       <path id="DejaVuSans-74" d="M 1172 4494 
L 1172 3500 
L 2356 3500 
L 2356 3053 
L 1172 3053 
L 1172 1153 
Q 1172 725 1289 603 
Q 1406 481 1766 481 
L 2356 481 
L 2356 0 
L 1766 0 
Q 1100 0 847 248 
Q 594 497 594 1153 
L 594 3053 
L 172 3053 
L 172 3500 
L 594 3500 
L 594 4494 
L 1172 4494 
z
" transform="scale(0.015625)"/>
       <path id="DejaVuSans-6f" d="M 1959 3097 
Q 1497 3097 1228 2736 
Q 959 2375 959 1747 
Q 959 1119 1226 758 
Q 1494 397 1959 397 
Q 2419 397 2687 759 
Q 2956 1122 2956 1747 
Q 2956 2369 2687 2733 
Q 2419 3097 1959 3097 
z
M 1959 3584 
Q 2709 3584 3137 3096 
Q 3566 2609 3566 1747 
Q 3566 888 3137 398 
Q 2709 -91 1959 -91 
Q 1206 -91 779 398 
Q 353 888 353 1747 
Q 353 2609 779 3096 
Q 1206 3584 1959 3584 
z
" transform="scale(0.015625)"/>
       <path id="DejaVuSans-61" d="M 2194 1759 
Q 1497 1759 1228 1600 
Q 959 1441 959 1056 
Q 959 750 1161 570 
Q 1363 391 1709 391 
Q 2188 391 2477 730 
Q 2766 1069 2766 1631 
L 2766 1759 
L 2194 1759 
z
M 3341 1997 
L 3341 0 
L 2766 0 
L 2766 531 
Q 2569 213 2275 61 
Q 1981 -91 1556 -91 
Q 1019 -91 701 211 
Q 384 513 384 1019 
Q 384 1609 779 1909 
Q 1175 2209 1959 2209 
L 2766 2209 
L 2766 2266 
Q 2766 2663 2505 2880 
Q 2244 3097 1772 3097 
Q 1472 3097 1187 3025 
Q 903 2953 641 2809 
L 641 3341 
Q 956 3463 1253 3523 
Q 1550 3584 1831 3584 
Q 2591 3584 2966 3190 
Q 3341 2797 3341 1997 
z
" transform="scale(0.015625)"/>
       <path id="DejaVuSans-20" transform="scale(0.015625)"/>
       <path id="DejaVuSans-5b" d="M 550 4863 
L 1875 4863 
L 1875 4416 
L 1125 4416 
L 1125 -397 
L 1875 -397 
L 1875 -844 
L 550 -844 
L 550 4863 
z
" transform="scale(0.015625)"/>
       <path id="DejaVuSans-b5" d="M 544 -1331 
L 544 3500 
L 1119 3500 
L 1119 1325 
Q 1119 872 1334 640 
Q 1550 409 1972 409 
Q 2434 409 2667 671 
Q 2900 934 2900 1459 
L 2900 3500 
L 3475 3500 
L 3475 806 
Q 3475 619 3529 530 
Q 3584 441 3700 441 
Q 3728 441 3778 458 
Q 3828 475 3916 513 
L 3916 50 
Q 3788 -22 3673 -56 
Q 3559 -91 3450 -91 
Q 3234 -91 3106 31 
Q 2978 153 2931 403 
Q 2775 156 2548 32 
Q 2322 -91 2016 -91 
Q 1697 -91 1473 31 
Q 1250 153 1119 397 
L 1119 -1331 
L 544 -1331 
z
" transform="scale(0.015625)"/>
       <path id="DejaVuSans-73" d="M 2834 3397 
L 2834 2853 
Q 2591 2978 2328 3040 
Q 2066 3103 1784 3103 
Q 1356 3103 1142 2972 
Q 928 2841 928 2578 
Q 928 2378 1081 2264 
Q 1234 2150 1697 2047 
L 1894 2003 
Q 2506 1872 2764 1633 
Q 3022 1394 3022 966 
Q 3022 478 2636 193 
Q 2250 -91 1575 -91 
Q 1294 -91 989 -36 
Q 684 19 347 128 
L 347 722 
Q 666 556 975 473 
Q 1284 391 1588 391 
Q 1994 391 2212 530 
Q 2431 669 2431 922 
Q 2431 1156 2273 1281 
Q 2116 1406 1581 1522 
L 1381 1569 
Q 847 1681 609 1914 
Q 372 2147 372 2553 
Q 372 3047 722 3315 
Q 1072 3584 1716 3584 
Q 2034 3584 2315 3537 
Q 2597 3491 2834 3397 
z
" transform="scale(0.015625)"/>
       <path id="DejaVuSans-5d" d="M 1947 4863 
L 1947 -844 
L 622 -844 
L 622 -397 
L 1369 -397 
L 1369 4416 
L 622 4416 
L 622 4863 
L 1947 4863 
z
" transform="scale(0.015625)"/>
      </defs>
      <use xlink:href="#DejaVuSans-74"/>
      <use xlink:href="#DejaVuSans-6f" transform="translate(39.208984 0)"/>
      <use xlink:href="#DejaVuSans-61" transform="translate(100.390625 0)"/>
      <use xlink:href="#DejaVuSans-20" transform="translate(161.669922 0)"/>
      <use xlink:href="#DejaVuSans-5b" transform="translate(193.457031 0)"/>
      <use xlink:href="#DejaVuSans-b5" transform="translate(232.470703 0)"/>
      <use xlink:href="#DejaVuSans-73" transform="translate(296.09375 0)"/>
      <use xlink:href="#DejaVuSans-5d" transform="translate(348.193359 0)"/>
     </g>
    </g>
   </g>
   <g id="matplotlib.axis_2">
    <g id="ytick_1">
     <g id="line2d_6">
      <defs>
       <path id="mbc66b77c49" d="M 0 0 
L -3.5 0 
" style="stroke: #000000; stroke-width: 0.8"/>
      </defs>
      <g>
       <use xlink:href="#mbc66b77c49" x="59.690625" y="218.88" style="stroke: #000000; stroke-width: 0.8"/>
      </g>
     </g>
     <g id="text_7">
      <!-- 0 -->
      <g transform="translate(46.328125 222.679219) scale(0.1 -0.1)">
       <use xlink:href="#DejaVuSans-30"/>
      </g>
     </g>
    </g>
    <g id="ytick_2">
     <g id="line2d_7">
      <g>
       <use xlink:href="#mbc66b77c49" x="59.690625" y="192.082892" style="stroke: #000000; stroke-width: 0.8"/>
      </g>
     </g>
     <g id="text_8">
      <!-- 2500 -->
      <g transform="translate(27.240625 195.882111) scale(0.1 -0.1)">
       <defs>
        <path id="DejaVuSans-35" d="M 691 4666 
L 3169 4666 
L 3169 4134 
L 1269 4134 
L 1269 2991 
Q 1406 3038 1543 3061 
Q 1681 3084 1819 3084 
Q 2600 3084 3056 2656 
Q 3513 2228 3513 1497 
Q 3513 744 3044 326 
Q 2575 -91 1722 -91 
Q 1428 -91 1123 -41 
Q 819 9 494 109 
L 494 744 
Q 775 591 1075 516 
Q 1375 441 1709 441 
Q 2250 441 2565 725 
Q 2881 1009 2881 1497 
Q 2881 1984 2565 2268 
Q 2250 2553 1709 2553 
Q 1456 2553 1204 2497 
Q 953 2441 691 2322 
L 691 4666 
z
" transform="scale(0.015625)"/>
       </defs>
       <use xlink:href="#DejaVuSans-32"/>
       <use xlink:href="#DejaVuSans-35" transform="translate(63.623047 0)"/>
       <use xlink:href="#DejaVuSans-30" transform="translate(127.246094 0)"/>
       <use xlink:href="#DejaVuSans-30" transform="translate(190.869141 0)"/>
      </g>
     </g>
    </g>
    <g id="ytick_3">
     <g id="line2d_8">
      <g>
       <use xlink:href="#mbc66b77c49" x="59.690625" y="165.285785" style="stroke: #000000; stroke-width: 0.8"/>
      </g>
     </g>
     <g id="text_9">
      <!-- 5000 -->
      <g transform="translate(27.240625 169.085004) scale(0.1 -0.1)">
       <use xlink:href="#DejaVuSans-35"/>
       <use xlink:href="#DejaVuSans-30" transform="translate(63.623047 0)"/>
       <use xlink:href="#DejaVuSans-30" transform="translate(127.246094 0)"/>
       <use xlink:href="#DejaVuSans-30" transform="translate(190.869141 0)"/>
      </g>
     </g>
    </g>
    <g id="ytick_4">
     <g id="line2d_9">
      <g>
       <use xlink:href="#mbc66b77c49" x="59.690625" y="138.488677" style="stroke: #000000; stroke-width: 0.8"/>
      </g>
     </g>
     <g id="text_10">
      <!-- 7500 -->
      <g transform="translate(27.240625 142.287896) scale(0.1 -0.1)">
       <defs>
        <path id="DejaVuSans-37" d="M 525 4666 
L 3525 4666 
L 3525 4397 
L 1831 0 
L 1172 0 
L 2766 4134 
L 525 4134 
L 525 4666 
z
" transform="scale(0.015625)"/>
       </defs>
       <use xlink:href="#DejaVuSans-37"/>
       <use xlink:href="#DejaVuSans-35" transform="translate(63.623047 0)"/>
       <use xlink:href="#DejaVuSans-30" transform="translate(127.246094 0)"/>
       <use xlink:href="#DejaVuSans-30" transform="translate(190.869141 0)"/>
      </g>
     </g>
    </g>
    <g id="ytick_5">
     <g id="line2d_10">
      <g>
       <use xlink:href="#mbc66b77c49" x="59.690625" y="111.69157" style="stroke: #000000; stroke-width: 0.8"/>
      </g>
     </g>
     <g id="text_11">
      <!-- 10000 -->
      <g transform="translate(20.878125 115.490788) scale(0.1 -0.1)">
       <use xlink:href="#DejaVuSans-31"/>
       <use xlink:href="#DejaVuSans-30" transform="translate(63.623047 0)"/>
       <use xlink:href="#DejaVuSans-30" transform="translate(127.246094 0)"/>
       <use xlink:href="#DejaVuSans-30" transform="translate(190.869141 0)"/>
       <use xlink:href="#DejaVuSans-30" transform="translate(254.492188 0)"/>
      </g>
     </g>
    </g>
    <g id="ytick_6">
     <g id="line2d_11">
      <g>
       <use xlink:href="#mbc66b77c49" x="59.690625" y="84.894462" style="stroke: #000000; stroke-width: 0.8"/>
      </g>
     </g>
     <g id="text_12">
      <!-- 12500 -->
      <g transform="translate(20.878125 88.693681) scale(0.1 -0.1)">
       <use xlink:href="#DejaVuSans-31"/>
       <use xlink:href="#DejaVuSans-32" transform="translate(63.623047 0)"/>
       <use xlink:href="#DejaVuSans-35" transform="translate(127.246094 0)"/>
       <use xlink:href="#DejaVuSans-30" transform="translate(190.869141 0)"/>
       <use xlink:href="#DejaVuSans-30" transform="translate(254.492188 0)"/>
      </g>
     </g>
    </g>
    <g id="ytick_7">
     <g id="line2d_12">
      <g>
       <use xlink:href="#mbc66b77c49" x="59.690625" y="58.097354" style="stroke: #000000; stroke-width: 0.8"/>
      </g>
     </g>
     <g id="text_13">
      <!-- 15000 -->
      <g transform="translate(20.878125 61.896573) scale(0.1 -0.1)">
       <use xlink:href="#DejaVuSans-31"/>
       <use xlink:href="#DejaVuSans-35" transform="translate(63.623047 0)"/>
       <use xlink:href="#DejaVuSans-30" transform="translate(127.246094 0)"/>
       <use xlink:href="#DejaVuSans-30" transform="translate(190.869141 0)"/>
       <use xlink:href="#DejaVuSans-30" transform="translate(254.492188 0)"/>
      </g>
     </g>
    </g>
    <g id="ytick_8">
     <g id="line2d_13">
      <g>
       <use xlink:href="#mbc66b77c49" x="59.690625" y="31.300247" style="stroke: #000000; stroke-width: 0.8"/>
      </g>
     </g>
     <g id="text_14">
      <!-- 17500 -->
      <g transform="translate(20.878125 35.099465) scale(0.1 -0.1)">
       <use xlink:href="#DejaVuSans-31"/>
       <use xlink:href="#DejaVuSans-37" transform="translate(63.623047 0)"/>
       <use xlink:href="#DejaVuSans-35" transform="translate(127.246094 0)"/>
       <use xlink:href="#DejaVuSans-30" transform="translate(190.869141 0)"/>
       <use xlink:href="#DejaVuSans-30" transform="translate(254.492188 0)"/>
      </g>
     </g>
    </g>
    <g id="text_15">
     <!-- [counts] -->
     <g transform="translate(14.798438 138.6925) rotate(-90) scale(0.1 -0.1)">
      <defs>
       <path id="DejaVuSans-63" d="M 3122 3366 
L 3122 2828 
Q 2878 2963 2633 3030 
Q 2388 3097 2138 3097 
Q 1578 3097 1268 2742 
Q 959 2388 959 1747 
Q 959 1106 1268 751 
Q 1578 397 2138 397 
Q 2388 397 2633 464 
Q 2878 531 3122 666 
L 3122 134 
Q 2881 22 2623 -34 
Q 2366 -91 2075 -91 
Q 1284 -91 818 406 
Q 353 903 353 1747 
Q 353 2603 823 3093 
Q 1294 3584 2113 3584 
Q 2378 3584 2631 3529 
Q 2884 3475 3122 3366 
z
" transform="scale(0.015625)"/>
       <path id="DejaVuSans-75" d="M 544 1381 
L 544 3500 
L 1119 3500 
L 1119 1403 
Q 1119 906 1312 657 
Q 1506 409 1894 409 
Q 2359 409 2629 706 
Q 2900 1003 2900 1516 
L 2900 3500 
L 3475 3500 
L 3475 0 
L 2900 0 
L 2900 538 
Q 2691 219 2414 64 
Q 2138 -91 1772 -91 
Q 1169 -91 856 284 
Q 544 659 544 1381 
z
M 1991 3584 
L 1991 3584 
z
" transform="scale(0.015625)"/>
       <path id="DejaVuSans-6e" d="M 3513 2113 
L 3513 0 
L 2938 0 
L 2938 2094 
Q 2938 2591 2744 2837 
Q 2550 3084 2163 3084 
Q 1697 3084 1428 2787 
Q 1159 2491 1159 1978 
L 1159 0 
L 581 0 
L 581 3500 
L 1159 3500 
L 1159 2956 
Q 1366 3272 1645 3428 
Q 1925 3584 2291 3584 
Q 2894 3584 3203 3211 
Q 3513 2838 3513 2113 
z
" transform="scale(0.015625)"/>
      </defs>
      <use xlink:href="#DejaVuSans-5b"/>
      <use xlink:href="#DejaVuSans-63" transform="translate(39.013672 0)"/>
      <use xlink:href="#DejaVuSans-6f" transform="translate(93.994141 0)"/>
      <use xlink:href="#DejaVuSans-75" transform="translate(155.175781 0)"/>
      <use xlink:href="#DejaVuSans-6e" transform="translate(218.554688 0)"/>
      <use xlink:href="#DejaVuSans-74" transform="translate(281.933594 0)"/>
      <use xlink:href="#DejaVuSans-73" transform="translate(321.142578 0)"/>
      <use xlink:href="#DejaVuSans-5d" transform="translate(373.242188 0)"/>
     </g>
    </g>
   </g>
   <g id="line2d_14">
    <path d="M 74.908807 218.88 
L 129.694261 218.88 
L 129.694261 123.771706 
L 130.708807 123.771706 
L 130.708807 80.982084 
L 131.723352 80.982084 
L 131.723352 87.391952 
L 132.737898 87.391952 
L 132.737898 93.780383 
L 133.752443 93.780383 
L 133.752443 102.644866 
L 134.766989 102.644866 
L 134.766989 107.757754 
L 135.781534 107.757754 
L 135.781534 111.734445 
L 136.79608 111.734445 
L 136.79608 117.168898 
L 137.810625 117.168898 
L 137.810625 125.411689 
L 138.82517 125.411689 
L 138.82517 128.230744 
L 139.839716 128.230744 
L 139.839716 134.436954 
L 140.854261 134.436954 
L 140.854261 136.752225 
L 141.868807 136.752225 
L 141.868807 142.711901 
L 142.883352 142.711901 
L 142.883352 147.042314 
L 143.897898 147.042314 
L 143.897898 149.722025 
L 144.912443 149.722025 
L 144.912443 152.54108 
L 145.926989 152.54108 
L 145.926989 156.689273 
L 146.941534 156.689273 
L 146.941534 159.336827 
L 147.95608 159.336827 
L 147.95608 163.120578 
L 148.970625 163.120578 
L 148.970625 190.721599 
L 149.98517 190.721599 
L 149.98517 218.88 
L 168.246989 218.88 
L 168.246989 212.11641 
L 169.261534 212.11641 
L 169.261534 198.621387 
L 170.27608 198.621387 
L 170.27608 198.985827 
L 171.290625 198.985827 
L 171.290625 200.44359 
L 172.30517 200.44359 
L 172.30517 200.829468 
L 173.319716 200.829468 
L 173.319716 201.386848 
L 174.334261 201.386848 
L 174.334261 202.640953 
L 175.348807 202.640953 
L 175.348807 202.866048 
L 176.363352 202.866048 
L 176.363352 203.691399 
L 177.377898 203.691399 
L 177.377898 205.106287 
L 178.392443 205.106287 
L 178.392443 204.591782 
L 179.406989 204.591782 
L 179.406989 205.674385 
L 180.421534 205.674385 
L 180.421534 205.9102 
L 181.43608 205.9102 
L 181.43608 206.37111 
L 182.450625 206.37111 
L 182.450625 207.571621 
L 183.46517 207.571621 
L 183.46517 207.228618 
L 184.479716 207.228618 
L 184.479716 207.432276 
L 185.494261 207.432276 
L 185.494261 207.796716 
L 186.508807 207.796716 
L 186.508807 207.957499 
L 187.523352 207.957499 
L 187.523352 208.664943 
L 188.537898 208.664943 
L 188.537898 209.383105 
L 189.552443 209.383105 
L 189.552443 209.994079 
L 190.566989 209.994079 
L 190.566989 210.594334 
L 191.581534 210.594334 
L 191.581534 210.422833 
L 192.59608 210.422833 
L 192.59608 210.63721 
L 193.610625 210.63721 
L 193.610625 211.151714 
L 194.62517 211.151714 
L 194.62517 211.012369 
L 195.639716 211.012369 
L 195.639716 211.140995 
L 196.654261 211.140995 
L 196.654261 212.255755 
L 197.668807 212.255755 
L 197.668807 211.55903 
L 198.683352 211.55903 
L 198.683352 212.448694 
L 199.697898 212.448694 
L 199.697898 212.866729 
L 200.712443 212.866729 
L 200.712443 212.480851 
L 201.726989 212.480851 
L 201.726989 212.748822 
L 202.741534 212.748822 
L 202.741534 213.123981 
L 203.75608 213.123981 
L 203.75608 213.50986 
L 204.770625 213.50986 
L 204.770625 213.809987 
L 205.78517 213.809987 
L 205.78517 213.584892 
L 207.814261 213.606329 
L 207.814261 213.734955 
L 208.828807 213.734955 
L 208.828807 213.906457 
L 209.843352 213.906457 
L 209.843352 214.453118 
L 210.857898 214.453118 
L 210.857898 214.624619 
L 211.872443 214.624619 
L 211.872443 214.303054 
L 212.886989 214.303054 
L 212.886989 214.646057 
L 213.901534 214.646057 
L 213.901534 214.946185 
L 214.91608 214.946185 
L 214.91608 215.106967 
L 215.930625 215.106967 
L 215.930625 215.289188 
L 216.94517 215.289188 
L 216.94517 215.417814 
L 217.959716 215.417814 
L 217.959716 215.203437 
L 218.974261 215.203437 
L 218.974261 215.664347 
L 219.988807 215.664347 
L 219.988807 215.439251 
L 221.003352 215.439251 
L 221.003352 215.835849 
L 223.032443 215.771536 
L 223.032443 215.632191 
L 224.046989 215.632191 
L 224.046989 215.857286 
L 225.061534 215.857286 
L 225.061534 216.10382 
L 227.090625 216.018069 
L 227.090625 218.451246 
L 228.10517 218.451246 
L 228.10517 218.88 
L 379.272443 218.88 
L 379.272443 218.88 
" clip-path="url(#pc1bca535ef)" style="fill: none; stroke: #1f77b4; stroke-width: 1.5; stroke-linecap: square"/>
   </g>
   <g id="line2d_15">
    <path d="M 74.908807 218.001055 
L 75.923352 218.001055 
L 75.923352 215.846567 
L 76.937898 215.846567 
L 76.937898 212.030659 
L 77.952443 212.030659 
L 77.952443 207.48587 
L 78.966989 207.48587 
L 78.966989 202.255074 
L 79.981534 202.255074 
L 79.981534 198.214071 
L 80.99608 198.214071 
L 80.99608 192.243675 
L 82.010625 192.243675 
L 82.010625 185.962433 
L 83.02517 185.962433 
L 83.02517 179.799098 
L 84.039716 179.799098 
L 84.039716 171.609902 
L 85.054261 171.609902 
L 85.054261 163.377831 
L 86.068807 163.377831 
L 86.068807 151.737167 
L 87.083352 151.737167 
L 87.083352 142.872684 
L 88.097898 142.872684 
L 88.097898 130.085104 
L 89.112443 130.085104 
L 89.112443 117.812029 
L 90.126989 117.812029 
L 90.126989 105.421046 
L 91.141534 105.421046 
L 91.141534 92.676342 
L 92.15608 92.676342 
L 92.15608 78.409562 
L 93.170625 78.409562 
L 93.170625 72.664262 
L 94.18517 72.664262 
L 94.18517 61.313007 
L 95.199716 61.313007 
L 95.199716 52.437805 
L 96.214261 52.437805 
L 96.214261 44.195015 
L 97.228807 44.195015 
L 97.228807 37.57077 
L 98.243352 37.57077 
L 98.243352 34.290804 
L 99.257898 34.290804 
L 99.257898 31.846908 
L 100.272443 31.846908 
L 100.272443 27.677278 
L 101.286989 27.677278 
L 101.286989 27.001991 
L 102.301534 27.001991 
L 102.301534 20.89225 
L 103.31608 20.89225 
L 103.31608 18.973577 
L 104.330625 18.973577 
L 104.330625 19.766772 
L 105.34517 19.766772 
L 105.34517 17.515815 
L 106.359716 17.515815 
L 106.359716 17.28 
L 107.374261 17.28 
L 107.374261 19.41305 
L 108.388807 19.41305 
L 108.388807 18.662731 
L 109.403352 18.662731 
L 109.403352 22.317856 
L 110.417898 22.317856 
L 110.417898 18.105351 
L 111.432443 18.105351 
L 111.432443 22.124917 
L 112.446989 22.124917 
L 112.446989 23.561242 
L 113.461534 23.561242 
L 113.461534 27.291399 
L 114.47608 27.291399 
L 114.47608 24.815347 
L 115.490625 24.815347 
L 115.490625 23.657712 
L 116.50517 23.657712 
L 116.50517 26.198077 
L 117.519716 26.198077 
L 117.519716 27.93453 
L 118.534261 27.93453 
L 118.534261 29.960391 
L 119.548807 29.960391 
L 119.548807 28.877788 
L 120.563352 28.877788 
L 120.563352 31.385997 
L 121.577898 31.385997 
L 121.577898 33.411859 
L 122.592443 33.411859 
L 122.592443 35.984381 
L 123.606989 35.984381 
L 123.606989 35.137593 
L 124.621534 35.137593 
L 124.621534 41.46171 
L 125.63608 41.46171 
L 125.63608 46.574598 
L 126.650625 46.574598 
L 126.650625 53.895568 
L 127.66517 53.895568 
L 127.66517 58.493952 
L 128.679716 58.493952 
L 128.679716 65.461199 
L 129.694261 65.461199 
L 129.694261 168.362093 
L 130.708807 168.362093 
L 130.708807 218.88 
L 148.970625 218.88 
L 148.970625 192.704585 
L 149.98517 192.704585 
L 149.98517 167.676087 
L 150.999716 167.676087 
L 150.999716 170.870302 
L 152.014261 170.870302 
L 152.014261 173.871578 
L 153.028807 173.871578 
L 153.028807 175.329341 
L 154.043352 175.329341 
L 154.043352 177.580298 
L 155.057898 177.580298 
L 155.057898 179.841974 
L 156.072443 179.841974 
L 156.072443 180.870983 
L 157.086989 180.870983 
L 157.086989 183.786508 
L 158.101534 183.786508 
L 158.101534 184.397482 
L 159.11608 184.397482 
L 159.11608 186.551969 
L 160.130625 186.551969 
L 160.130625 188.331297 
L 161.14517 188.331297 
L 161.14517 188.03117 
L 162.159716 188.03117 
L 162.159716 190.732318 
L 163.174261 190.732318 
L 163.174261 192.458052 
L 164.188807 192.458052 
L 164.188807 193.283403 
L 165.203352 193.283403 
L 165.203352 194.408881 
L 166.217898 194.408881 
L 166.217898 195.662986 
L 167.232443 195.662986 
L 167.232443 196.767027 
L 168.246989 196.767027 
L 168.246989 203.702118 
L 169.261534 203.702118 
L 169.261534 218.88 
L 227.090625 218.88 
L 227.090625 216.639762 
L 228.10517 216.639762 
L 228.10517 216.414666 
L 230.134261 216.436104 
L 230.134261 216.543292 
L 231.148807 216.543292 
L 231.148807 216.757669 
L 232.163352 216.757669 
L 232.163352 216.56473 
L 235.206989 216.661199 
L 235.206989 216.854139 
L 240.279716 216.918452 
L 240.279716 216.993484 
L 244.337898 216.993484 
L 244.337898 217.282892 
L 245.352443 217.282892 
L 245.352443 217.4008 
L 247.381534 217.357924 
L 247.381534 217.229298 
L 249.410625 217.229298 
L 249.410625 217.529426 
L 250.42517 217.529426 
L 250.42517 217.379362 
L 252.454261 217.325768 
L 252.454261 217.636614 
L 256.512443 217.572301 
L 256.512443 217.497269 
L 258.541534 217.561582 
L 258.541534 217.76524 
L 259.55608 217.76524 
L 259.55608 217.625895 
L 260.570625 217.625895 
L 260.570625 217.808116 
L 263.614261 217.872429 
L 263.614261 218.086806 
L 264.628807 218.086806 
L 264.628807 217.711646 
L 265.643352 217.711646 
L 265.643352 217.850991 
L 271.730625 217.893866 
L 271.730625 218.247588 
L 272.74517 218.247588 
L 272.74517 218.108243 
L 279.846989 218.129681 
L 279.846989 218.301182 
L 295.06517 218.397652 
L 295.06517 218.515559 
L 296.079716 218.515559 
L 296.079716 218.386933 
L 297.094261 218.386933 
L 297.094261 218.569154 
L 298.108807 218.569154 
L 298.108807 218.386933 
L 305.210625 218.472684 
L 305.210625 218.536997 
L 323.472443 218.579872 
L 323.472443 218.665623 
L 333.617898 218.708499 
L 333.617898 218.78353 
L 335.646989 218.69778 
L 335.646989 218.633467 
L 340.719716 218.654904 
L 340.719716 218.751374 
L 363.039716 218.847843 
L 363.039716 218.869281 
L 379.272443 218.869281 
L 379.272443 218.869281 
" clip-path="url(#pc1bca535ef)" style="fill: none; stroke: #808080; stroke-width: 1.5; stroke-linecap: square"/>
   </g>
   <g id="patch_3">
    <path d="M 59.690625 228.96 
L 59.690625 7.2 
" style="fill: none; stroke: #000000; stroke-width: 0.8; stroke-linejoin: miter; stroke-linecap: square"/>
   </g>
   <g id="patch_4">
    <path d="M 394.490625 228.96 
L 394.490625 7.2 
" style="fill: none; stroke: #000000; stroke-width: 0.8; stroke-linejoin: miter; stroke-linecap: square"/>
   </g>
   <g id="patch_5">
    <path d="M 59.690625 228.96 
L 394.490625 228.96 
" style="fill: none; stroke: #000000; stroke-width: 0.8; stroke-linejoin: miter; stroke-linecap: square"/>
   </g>
   <g id="patch_6">
    <path d="M 59.690625 7.2 
L 394.490625 7.2 
" style="fill: none; stroke: #000000; stroke-width: 0.8; stroke-linejoin: miter; stroke-linecap: square"/>
   </g>
   <g id="legend_1">
    <g id="patch_7">
     <path d="M 276.651563 44.55625 
L 387.490625 44.55625 
Q 389.490625 44.55625 389.490625 42.55625 
L 389.490625 14.2 
Q 389.490625 12.2 387.490625 12.2 
L 276.651563 12.2 
Q 274.651563 12.2 274.651563 14.2 
L 274.651563 42.55625 
Q 274.651563 44.55625 276.651563 44.55625 
z
" style="fill: #ffffff; opacity: 0.8; stroke: #cccccc; stroke-linejoin: miter"/>
    </g>
    <g id="line2d_16">
     <path d="M 278.651563 20.298437 
L 278.651563 20.298437 
L 288.651563 20.298437 
L 288.651563 20.298437 
L 298.651563 20.298437 
" style="fill: none; stroke: #1f77b4; stroke-width: 1.5; stroke-linecap: square"/>
    </g>
    <g id="text_16">
     <!-- pulse:0 -->
     <g transform="translate(306.651563 23.798437) scale(0.1 -0.1)">
      <defs>
       <path id="DejaVuSans-70" d="M 1159 525 
L 1159 -1331 
L 581 -1331 
L 581 3500 
L 1159 3500 
L 1159 2969 
Q 1341 3281 1617 3432 
Q 1894 3584 2278 3584 
Q 2916 3584 3314 3078 
Q 3713 2572 3713 1747 
Q 3713 922 3314 415 
Q 2916 -91 2278 -91 
Q 1894 -91 1617 61 
Q 1341 213 1159 525 
z
M 3116 1747 
Q 3116 2381 2855 2742 
Q 2594 3103 2138 3103 
Q 1681 3103 1420 2742 
Q 1159 2381 1159 1747 
Q 1159 1113 1420 752 
Q 1681 391 2138 391 
Q 2594 391 2855 752 
Q 3116 1113 3116 1747 
z
" transform="scale(0.015625)"/>
       <path id="DejaVuSans-6c" d="M 603 4863 
L 1178 4863 
L 1178 0 
L 603 0 
L 603 4863 
z
" transform="scale(0.015625)"/>
       <path id="DejaVuSans-65" d="M 3597 1894 
L 3597 1613 
L 953 1613 
Q 991 1019 1311 708 
Q 1631 397 2203 397 
Q 2534 397 2845 478 
Q 3156 559 3463 722 
L 3463 178 
Q 3153 47 2828 -22 
Q 2503 -91 2169 -91 
Q 1331 -91 842 396 
Q 353 884 353 1716 
Q 353 2575 817 3079 
Q 1281 3584 2069 3584 
Q 2775 3584 3186 3129 
Q 3597 2675 3597 1894 
z
M 3022 2063 
Q 3016 2534 2758 2815 
Q 2500 3097 2075 3097 
Q 1594 3097 1305 2825 
Q 1016 2553 972 2059 
L 3022 2063 
z
" transform="scale(0.015625)"/>
       <path id="DejaVuSans-3a" d="M 750 794 
L 1409 794 
L 1409 0 
L 750 0 
L 750 794 
z
M 750 3309 
L 1409 3309 
L 1409 2516 
L 750 2516 
L 750 3309 
z
" transform="scale(0.015625)"/>
      </defs>
      <use xlink:href="#DejaVuSans-70"/>
      <use xlink:href="#DejaVuSans-75" transform="translate(63.476562 0)"/>
      <use xlink:href="#DejaVuSans-6c" transform="translate(126.855469 0)"/>
      <use xlink:href="#DejaVuSans-73" transform="translate(154.638672 0)"/>
      <use xlink:href="#DejaVuSans-65" transform="translate(206.738281 0)"/>
      <use xlink:href="#DejaVuSans-3a" transform="translate(268.261719 0)"/>
      <use xlink:href="#DejaVuSans-30" transform="translate(301.953125 0)"/>
     </g>
    </g>
    <g id="line2d_17">
     <path d="M 278.651563 34.976562 
L 278.651563 34.976562 
L 288.651563 34.976562 
L 288.651563 34.976562 
L 298.651563 34.976562 
" style="fill: none; stroke: #808080; stroke-width: 1.5; stroke-linecap: square"/>
    </g>
    <g id="text_17">
     <!-- blocked-pulse:0 -->
     <g transform="translate(306.651563 38.476562) scale(0.1 -0.1)">
      <defs>
       <path id="DejaVuSans-62" d="M 3116 1747 
Q 3116 2381 2855 2742 
Q 2594 3103 2138 3103 
Q 1681 3103 1420 2742 
Q 1159 2381 1159 1747 
Q 1159 1113 1420 752 
Q 1681 391 2138 391 
Q 2594 391 2855 752 
Q 3116 1113 3116 1747 
z
M 1159 2969 
Q 1341 3281 1617 3432 
Q 1894 3584 2278 3584 
Q 2916 3584 3314 3078 
Q 3713 2572 3713 1747 
Q 3713 922 3314 415 
Q 2916 -91 2278 -91 
Q 1894 -91 1617 61 
Q 1341 213 1159 525 
L 1159 0 
L 581 0 
L 581 4863 
L 1159 4863 
L 1159 2969 
z
" transform="scale(0.015625)"/>
       <path id="DejaVuSans-6b" d="M 581 4863 
L 1159 4863 
L 1159 1991 
L 2875 3500 
L 3609 3500 
L 1753 1863 
L 3688 0 
L 2938 0 
L 1159 1709 
L 1159 0 
L 581 0 
L 581 4863 
z
" transform="scale(0.015625)"/>
       <path id="DejaVuSans-64" d="M 2906 2969 
L 2906 4863 
L 3481 4863 
L 3481 0 
L 2906 0 
L 2906 525 
Q 2725 213 2448 61 
Q 2172 -91 1784 -91 
Q 1150 -91 751 415 
Q 353 922 353 1747 
Q 353 2572 751 3078 
Q 1150 3584 1784 3584 
Q 2172 3584 2448 3432 
Q 2725 3281 2906 2969 
z
M 947 1747 
Q 947 1113 1208 752 
Q 1469 391 1925 391 
Q 2381 391 2643 752 
Q 2906 1113 2906 1747 
Q 2906 2381 2643 2742 
Q 2381 3103 1925 3103 
Q 1469 3103 1208 2742 
Q 947 2381 947 1747 
z
" transform="scale(0.015625)"/>
       <path id="DejaVuSans-2d" d="M 313 2009 
L 1997 2009 
L 1997 1497 
L 313 1497 
L 313 2009 
z
" transform="scale(0.015625)"/>
      </defs>
      <use xlink:href="#DejaVuSans-62"/>
      <use xlink:href="#DejaVuSans-6c" transform="translate(63.476562 0)"/>
      <use xlink:href="#DejaVuSans-6f" transform="translate(91.259766 0)"/>
      <use xlink:href="#DejaVuSans-63" transform="translate(152.441406 0)"/>
      <use xlink:href="#DejaVuSans-6b" transform="translate(207.421875 0)"/>
      <use xlink:href="#DejaVuSans-65" transform="translate(261.707031 0)"/>
      <use xlink:href="#DejaVuSans-64" transform="translate(323.230469 0)"/>
      <use xlink:href="#DejaVuSans-2d" transform="translate(386.707031 0)"/>
      <use xlink:href="#DejaVuSans-70" transform="translate(422.791016 0)"/>
      <use xlink:href="#DejaVuSans-75" transform="translate(486.267578 0)"/>
      <use xlink:href="#DejaVuSans-6c" transform="translate(549.646484 0)"/>
      <use xlink:href="#DejaVuSans-73" transform="translate(577.429688 0)"/>
      <use xlink:href="#DejaVuSans-65" transform="translate(629.529297 0)"/>
      <use xlink:href="#DejaVuSans-3a" transform="translate(691.052734 0)"/>
      <use xlink:href="#DejaVuSans-30" transform="translate(724.744141 0)"/>
     </g>
    </g>
   </g>
  </g>
 </g>
 <defs>
  <clipPath id="pc1bca535ef">
   <rect x="59.690625" y="7.2" width="334.8" height="221.76"/>
  </clipPath>
 </defs>
</svg>
