<?xml version="1.0" encoding="utf-8" standalone="no"?>
<!DOCTYPE svg PUBLIC "-//W3C//DTD SVG 1.1//EN"
  "http://www.w3.org/Graphics/SVG/1.1/DTD/svg11.dtd">
<svg xmlns:xlink="http://www.w3.org/1999/xlink" width="872.39952pt" height="296.39952pt" viewBox="0 0 872.39952 296.39952" xmlns="http://www.w3.org/2000/svg" version="1.1">
 <metadata>
  <rdf:RDF xmlns:dc="http://purl.org/dc/elements/1.1/" xmlns:cc="http://creativecommons.org/ns#" xmlns:rdf="http://www.w3.org/1999/02/22-rdf-syntax-ns#">
   <cc:Work>
    <dc:type rdf:resource="http://purl.org/dc/dcmitype/StillImage"/>
    <dc:date>2026-01-29T14:57:39.396560</dc:date>
    <dc:format>image/svg+xml</dc:format>
    <dc:creator>
     <cc:Agent>
      <dc:title>Matplotlib v3.10.7, https://matplotlib.org/</dc:title>
     </cc:Agent>
    </dc:creator>
   </cc:Work>
  </rdf:RDF>
 </metadata>
 <defs>
  <style type="text/css">*{stroke-linejoin: round; stroke-linecap: butt}</style>
 </defs>
 <g id="figure_1">
  <g id="patch_1">
   <path d="M 0 296.39952 
L 872.39952 296.39952 
L 872.39952 0 
L 0 0 
z
" style="fill: #ffffff"/>
  </g>
  <g id="axes_1">
   <g id="patch_2">
    <path d="M 53.328125 257.158895 
L 411.41851 257.158895 
L 411.41851 7.2 
L 53.328125 7.2 
z
" style="fill: #ffffff"/>
   </g>
   <g id="matplotlib.axis_1">
    <g id="xtick_1">
     <g id="line2d_1">
      <defs>
       <path id="m88806e21ab" d="M 0 0 
L 0 3.5 
" style="stroke: #000000; stroke-width: 0.8"/>
      </defs>
      <g>
       <use xlink:href="#m88806e21ab" x="68.789886" y="257.158895" style="stroke: #000000; stroke-width: 0.8"/>
      </g>
     </g>
     <g id="text_1">
      <!-- 0 -->
      <g transform="translate(65.608636 271.757332) scale(0.1 -0.1)">
       <defs>
        <path id="DejaVuSans-30" d="M 2034 4250 
Q 1547 4250 1301 3770 
Q 1056 3291 1056 2328 
Q 1056 1369 1301 889 
Q 1547 409 2034 409 
Q 2525 409 2770 889 
Q 3016 1369 3016 2328 
Q 3016 3291 2770 3770 
Q 2525 4250 2034 4250 
z
M 2034 4750 
Q 2819 4750 3233 4129 
Q 3647 3509 3647 2328 
Q 3647 1150 3233 529 
Q 2819 -91 2034 -91 
Q 1250 -91 836 529 
Q 422 1150 422 2328 
Q 422 3509 836 4129 
Q 1250 4750 2034 4750 
z
" transform="scale(0.015625)"/>
       </defs>
       <use xlink:href="#DejaVuSans-30"/>
      </g>
     </g>
    </g>
    <g id="xtick_2">
     <g id="line2d_2">
      <g>
       <use xlink:href="#m88806e21ab" x="134.249845" y="257.158895" style="stroke: #000000; stroke-width: 0.8"/>
      </g>
     </g>
     <g id="text_2">
      <!-- 1000 -->
      <g transform="translate(121.524845 271.757332) scale(0.1 -0.1)">
       <defs>
        <path id="DejaVuSans-31" d="M 794 531 
L 1825 531 
L 1825 4091 
L 703 3866 
L 703 4441 
L 1819 4666 
L 2450 4666 
L 2450 531 
L 3481 531 
L 3481 0 
L 794 0 
L 794 531 
z
" transform="scale(0.015625)"/>
       </defs>
       <use xlink:href="#DejaVuSans-31"/>
       <use xlink:href="#DejaVuSans-30" transform="translate(63.623047 0)"/>
       <use xlink:href="#DejaVuSans-30" transform="translate(127.246094 0)"/>
       <use xlink:href="#DejaVuSans-30" transform="translate(190.869141 0)"/>
      </g>
     </g>
    </g>
    <g id="xtick_3">
     <g id="line2d_3">
      <g>
       <use xlink:href="#m88806e21ab" x="199.709804" y="257.158895" style="stroke: #000000; stroke-width: 0.8"/>
      </g>
     </g>
     <g id="text_3">
      <!-- 2000 -->
      <g transform="translate(186.984804 271.757332) scale(0.1 -0.1)">
       <defs>
        <path id="DejaVuSans-32" d="M 1228 531 
L 3431 531 
L 3431 0 
L 469 0 
L 469 531 
Q 828 903 1448 1529 
Q 2069 2156 2228 2338 
Q 2531 2678 2651 2914 
Q 2772 3150 2772 3378 
Q 2772 3750 2511 3984 
Q 2250 4219 1831 4219 
Q 1534 4219 1204 4116 
Q 875 4013 500 3803 
L 500 4441 
Q 881 4594 1212 4672 
Q 1544 4750 1819 4750 
Q 2544 4750 2975 4387 
Q 3406 4025 3406 3419 
Q 3406 3131 3298 2873 
Q 3191 2616 2906 2266 
Q 2828 2175 2409 1742 
Q 1991 1309 1228 531 
z
" transform="scale(0.015625)"/>
       </defs>
       <use xlink:href="#DejaVuSans-32"/>
       <use xlink:href="#DejaVuSans-30" transform="translate(63.623047 0)"/>
       <use xlink:href="#DejaVuSans-30" transform="translate(127.246094 0)"/>
       <use xlink:href="#DejaVuSans-30" transform="translate(190.869141 0)"/>
      </g>
     </g>
    </g>
    <g id="xtick_4">
     <g id="line2d_4">
      <g>
       <use xlink:href="#m88806e21ab" x="265.169763" y="257.158895" style="stroke: #000000; stroke-width: 0.8"/>
      </g>
     </g>
     <g id="text_4">
      <!-- 3000 -->
      <g transform="translate(252.444763 271.757332) scale(0.1 -0.1)">
       <defs>
        <path id="DejaVuSans-33" d="M 2597 2516 
Q 3050 2419 3304 2112 
Q 3559 1806 3559 1356 
Q 3559 666 3084 287 
Q 2609 -91 1734 -91 
Q 1441 -91 1130 -33 
Q 819 25 488 141 
L 488 750 
Q 750 597 1062 519 
Q 1375 441 1716 441 
Q 2309 441 2620 675 
Q 2931 909 2931 1356 
Q 2931 1769 2642 2001 
Q 2353 2234 1838 2234 
L 1294 2234 
L 1294 2753 
L 1863 2753 
Q 2328 2753 2575 2939 
Q 2822 3125 2822 3475 
Q 2822 3834 2567 4026 
Q 2313 4219 1838 4219 
Q 1578 4219 1281 4162 
Q 984 4106 628 3988 
L 628 4550 
Q 988 4650 1302 4700 
Q 1616 4750 1894 4750 
Q 2613 4750 3031 4423 
Q 3450 4097 3450 3541 
Q 3450 3153 3228 2886 
Q 3006 2619 2597 2516 
z
" transform="scale(0.015625)"/>
       </defs>
       <use xlink:href="#DejaVuSans-33"/>
       <use xlink:href="#DejaVuSans-30" transform="translate(63.623047 0)"/>
       <use xlink:href="#DejaVuSans-30" transform="translate(127.246094 0)"/>
       <use xlink:href="#DejaVuSans-30" transform="translate(190.869141 0)"/>
      </g>
     </g>
    </g>
    <g id="xtick_5">
     <g id="line2d_5">
      <g>
       <use xlink:href="#m88806e21ab" x="330.629722" y="257.158895" style="stroke: #000000; stroke-width: 0.8"/>
      </g>
     </g>
     <g id="text_5">
      <!-- 4000 -->
      <g transform="translate(317.904722 271.757332) scale(0.1 -0.1)">
       <defs>
        <path id="DejaVuSans-34" d="M 2419 4116 
L 825 1625 
L 2419 1625 
L 2419 4116 
z
M 2253 4666 
L 3047 4666 
L 3047 1625 
L 3713 1625 
L 3713 1100 
L 3047 1100 
L 3047 0 
L 2419 0 
L 2419 1100 
L 313 1100 
L 313 1709 
L 2253 4666 
z
" transform="scale(0.015625)"/>
       </defs>
       <use xlink:href="#DejaVuSans-34"/>
       <use xlink:href="#DejaVuSans-30" transform="translate(63.623047 0)"/>
       <use xlink:href="#DejaVuSans-30" transform="translate(127.246094 0)"/>
       <use xlink:href="#DejaVuSans-30" transform="translate(190.869141 0)"/>
      </g>
     </g>
    </g>
    <g id="xtick_6">
     <g id="line2d_6">
      <g>
       <use xlink:href="#m88806e21ab" x="396.089681" y="257.158895" style="stroke: #000000; stroke-width: 0.8"/>
      </g>
     </g>
     <g id="text_6">
      <!-- 5000 -->
      <g transform="translate(383.364681 271.757332) scale(0.1 -0.1)">
       <defs>
        <path id="DejaVuSans-35" d="M 691 4666 
L 3169 4666 
L 3169 4134 
L 1269 4134 
L 1269 2991 
Q 1406 3038 1543 3061 
Q 1681 3084 1819 3084 
Q 2600 3084 3056 2656 
Q 3513 2228 3513 1497 
Q 3513 744 3044 326 
Q 2575 -91 1722 -91 
Q 1428 -91 1123 -41 
Q 819 9 494 109 
L 494 744 
Q 775 591 1075 516 
Q 1375 441 1709 441 
Q 2250 441 2565 725 
Q 2881 1009 2881 1497 
Q 2881 1984 2565 2268 
Q 2250 2553 1709 2553 
Q 1456 2553 1204 2497 
Q 953 2441 691 2322 
L 691 4666 
z
" transform="scale(0.015625)"/>
       </defs>
       <use xlink:href="#DejaVuSans-35"/>
       <use xlink:href="#DejaVuSans-30" transform="translate(63.623047 0)"/>
       <use xlink:href="#DejaVuSans-30" transform="translate(127.246094 0)"/>
       <use xlink:href="#DejaVuSans-30" transform="translate(190.869141 0)"/>
      </g>
     </g>
    </g>
    <g id="text_7">
     <!-- birth_time [µs] -->
     <g transform="translate(195.553005 285.435457) scale(0.1 -0.1)">
      <defs>
       <path id="DejaVuSans-62" d="M 3116 1747 
Q 3116 2381 2855 2742 
Q 2594 3103 2138 3103 
Q 1681 3103 1420 2742 
Q 1159 2381 1159 1747 
Q 1159 1113 1420 752 
Q 1681 391 2138 391 
Q 2594 391 2855 752 
Q 3116 1113 3116 1747 
z
M 1159 2969 
Q 1341 3281 1617 3432 
Q 1894 3584 2278 3584 
Q 2916 3584 3314 3078 
Q 3713 2572 3713 1747 
Q 3713 922 3314 415 
Q 2916 -91 2278 -91 
Q 1894 -91 1617 61 
Q 1341 213 1159 525 
L 1159 0 
L 581 0 
L 581 4863 
L 1159 4863 
L 1159 2969 
z
" transform="scale(0.015625)"/>
       <path id="DejaVuSans-69" d="M 603 3500 
L 1178 3500 
L 1178 0 
L 603 0 
L 603 3500 
z
M 603 4863 
L 1178 4863 
L 1178 4134 
L 603 4134 
L 603 4863 
z
" transform="scale(0.015625)"/>
       <path id="DejaVuSans-72" d="M 2631 2963 
Q 2534 3019 2420 3045 
Q 2306 3072 2169 3072 
Q 1681 3072 1420 2755 
Q 1159 2438 1159 1844 
L 1159 0 
L 581 0 
L 581 3500 
L 1159 3500 
L 1159 2956 
Q 1341 3275 1631 3429 
Q 1922 3584 2338 3584 
Q 2397 3584 2469 3576 
Q 2541 3569 2628 3553 
L 2631 2963 
z
" transform="scale(0.015625)"/>
       <path id="DejaVuSans-74" d="M 1172 4494 
L 1172 3500 
L 2356 3500 
L 2356 3053 
L 1172 3053 
L 1172 1153 
Q 1172 725 1289 603 
Q 1406 481 1766 481 
L 2356 481 
L 2356 0 
L 1766 0 
Q 1100 0 847 248 
Q 594 497 594 1153 
L 594 3053 
L 172 3053 
L 172 3500 
L 594 3500 
L 594 4494 
L 1172 4494 
z
" transform="scale(0.015625)"/>
       <path id="DejaVuSans-68" d="M 3513 2113 
L 3513 0 
L 2938 0 
L 2938 2094 
Q 2938 2591 2744 2837 
Q 2550 3084 2163 3084 
Q 1697 3084 1428 2787 
Q 1159 2491 1159 1978 
L 1159 0 
L 581 0 
L 581 4863 
L 1159 4863 
L 1159 2956 
Q 1366 3272 1645 3428 
Q 1925 3584 2291 3584 
Q 2894 3584 3203 3211 
Q 3513 2838 3513 2113 
z
" transform="scale(0.015625)"/>
       <path id="DejaVuSans-5f" d="M 3263 -1063 
L 3263 -1509 
L -63 -1509 
L -63 -1063 
L 3263 -1063 
z
" transform="scale(0.015625)"/>
       <path id="DejaVuSans-6d" d="M 3328 2828 
Q 3544 3216 3844 3400 
Q 4144 3584 4550 3584 
Q 5097 3584 5394 3201 
Q 5691 2819 5691 2113 
L 5691 0 
L 5113 0 
L 5113 2094 
Q 5113 2597 4934 2840 
Q 4756 3084 4391 3084 
Q 3944 3084 3684 2787 
Q 3425 2491 3425 1978 
L 3425 0 
L 2847 0 
L 2847 2094 
Q 2847 2600 2669 2842 
Q 2491 3084 2119 3084 
Q 1678 3084 1418 2786 
Q 1159 2488 1159 1978 
L 1159 0 
L 581 0 
L 581 3500 
L 1159 3500 
L 1159 2956 
Q 1356 3278 1631 3431 
Q 1906 3584 2284 3584 
Q 2666 3584 2933 3390 
Q 3200 3197 3328 2828 
z
" transform="scale(0.015625)"/>
       <path id="DejaVuSans-65" d="M 3597 1894 
L 3597 1613 
L 953 1613 
Q 991 1019 1311 708 
Q 1631 397 2203 397 
Q 2534 397 2845 478 
Q 3156 559 3463 722 
L 3463 178 
Q 3153 47 2828 -22 
Q 2503 -91 2169 -91 
Q 1331 -91 842 396 
Q 353 884 353 1716 
Q 353 2575 817 3079 
Q 1281 3584 2069 3584 
Q 2775 3584 3186 3129 
Q 3597 2675 3597 1894 
z
M 3022 2063 
Q 3016 2534 2758 2815 
Q 2500 3097 2075 3097 
Q 1594 3097 1305 2825 
Q 1016 2553 972 2059 
L 3022 2063 
z
" transform="scale(0.015625)"/>
       <path id="DejaVuSans-20" transform="scale(0.015625)"/>
       <path id="DejaVuSans-5b" d="M 550 4863 
L 1875 4863 
L 1875 4416 
L 1125 4416 
L 1125 -397 
L 1875 -397 
L 1875 -844 
L 550 -844 
L 550 4863 
z
" transform="scale(0.015625)"/>
       <path id="DejaVuSans-b5" d="M 544 -1331 
L 544 3500 
L 1119 3500 
L 1119 1325 
Q 1119 872 1334 640 
Q 1550 409 1972 409 
Q 2434 409 2667 671 
Q 2900 934 2900 1459 
L 2900 3500 
L 3475 3500 
L 3475 806 
Q 3475 619 3529 530 
Q 3584 441 3700 441 
Q 3728 441 3778 458 
Q 3828 475 3916 513 
L 3916 50 
Q 3788 -22 3673 -56 
Q 3559 -91 3450 -91 
Q 3234 -91 3106 31 
Q 2978 153 2931 403 
Q 2775 156 2548 32 
Q 2322 -91 2016 -91 
Q 1697 -91 1473 31 
Q 1250 153 1119 397 
L 1119 -1331 
L 544 -1331 
z
" transform="scale(0.015625)"/>
       <path id="DejaVuSans-73" d="M 2834 3397 
L 2834 2853 
Q 2591 2978 2328 3040 
Q 2066 3103 1784 3103 
Q 1356 3103 1142 2972 
Q 928 2841 928 2578 
Q 928 2378 1081 2264 
Q 1234 2150 1697 2047 
L 1894 2003 
Q 2506 1872 2764 1633 
Q 3022 1394 3022 966 
Q 3022 478 2636 193 
Q 2250 -91 1575 -91 
Q 1294 -91 989 -36 
Q 684 19 347 128 
L 347 722 
Q 666 556 975 473 
Q 1284 391 1588 391 
Q 1994 391 2212 530 
Q 2431 669 2431 922 
Q 2431 1156 2273 1281 
Q 2116 1406 1581 1522 
L 1381 1569 
Q 847 1681 609 1914 
Q 372 2147 372 2553 
Q 372 3047 722 3315 
Q 1072 3584 1716 3584 
Q 2034 3584 2315 3537 
Q 2597 3491 2834 3397 
z
" transform="scale(0.015625)"/>
       <path id="DejaVuSans-5d" d="M 1947 4863 
L 1947 -844 
L 622 -844 
L 622 -397 
L 1369 -397 
L 1369 4416 
L 622 4416 
L 622 4863 
L 1947 4863 
z
" transform="scale(0.015625)"/>
      </defs>
      <use xlink:href="#DejaVuSans-62"/>
      <use xlink:href="#DejaVuSans-69" transform="translate(63.476562 0)"/>
      <use xlink:href="#DejaVuSans-72" transform="translate(91.259766 0)"/>
      <use xlink:href="#DejaVuSans-74" transform="translate(132.373047 0)"/>
      <use xlink:href="#DejaVuSans-68" transform="translate(171.582031 0)"/>
      <use xlink:href="#DejaVuSans-5f" transform="translate(234.960938 0)"/>
      <use xlink:href="#DejaVuSans-74" transform="translate(284.960938 0)"/>
      <use xlink:href="#DejaVuSans-69" transform="translate(324.169922 0)"/>
      <use xlink:href="#DejaVuSans-6d" transform="translate(351.953125 0)"/>
      <use xlink:href="#DejaVuSans-65" transform="translate(449.365234 0)"/>
      <use xlink:href="#DejaVuSans-20" transform="translate(510.888672 0)"/>
      <use xlink:href="#DejaVuSans-5b" transform="translate(542.675781 0)"/>
      <use xlink:href="#DejaVuSans-b5" transform="translate(581.689453 0)"/>
      <use xlink:href="#DejaVuSans-73" transform="translate(645.3125 0)"/>
      <use xlink:href="#DejaVuSans-5d" transform="translate(697.412109 0)"/>
     </g>
    </g>
   </g>
   <g id="matplotlib.axis_2">
    <g id="ytick_1">
     <g id="line2d_7">
      <defs>
       <path id="mb22569e965" d="M 0 0 
L -3.5 0 
" style="stroke: #000000; stroke-width: 0.8"/>
      </defs>
      <g>
       <use xlink:href="#mb22569e965" x="53.328125" y="246.063166" style="stroke: #000000; stroke-width: 0.8"/>
      </g>
     </g>
     <g id="text_8">
      <!-- 0 -->
      <g transform="translate(39.965625 249.862385) scale(0.1 -0.1)">
       <use xlink:href="#DejaVuSans-30"/>
      </g>
     </g>
    </g>
    <g id="ytick_2">
     <g id="line2d_8">
      <g>
       <use xlink:href="#mb22569e965" x="53.328125" y="208.057587" style="stroke: #000000; stroke-width: 0.8"/>
      </g>
     </g>
     <g id="text_9">
      <!-- 1000 -->
      <g transform="translate(20.878125 211.856805) scale(0.1 -0.1)">
       <use xlink:href="#DejaVuSans-31"/>
       <use xlink:href="#DejaVuSans-30" transform="translate(63.623047 0)"/>
       <use xlink:href="#DejaVuSans-30" transform="translate(127.246094 0)"/>
       <use xlink:href="#DejaVuSans-30" transform="translate(190.869141 0)"/>
      </g>
     </g>
    </g>
    <g id="ytick_3">
     <g id="line2d_9">
      <g>
       <use xlink:href="#mb22569e965" x="53.328125" y="170.052007" style="stroke: #000000; stroke-width: 0.8"/>
      </g>
     </g>
     <g id="text_10">
      <!-- 2000 -->
      <g transform="translate(20.878125 173.851226) scale(0.1 -0.1)">
       <use xlink:href="#DejaVuSans-32"/>
       <use xlink:href="#DejaVuSans-30" transform="translate(63.623047 0)"/>
       <use xlink:href="#DejaVuSans-30" transform="translate(127.246094 0)"/>
       <use xlink:href="#DejaVuSans-30" transform="translate(190.869141 0)"/>
      </g>
     </g>
    </g>
    <g id="ytick_4">
     <g id="line2d_10">
      <g>
       <use xlink:href="#mb22569e965" x="53.328125" y="132.046428" style="stroke: #000000; stroke-width: 0.8"/>
      </g>
     </g>
     <g id="text_11">
      <!-- 3000 -->
      <g transform="translate(20.878125 135.845647) scale(0.1 -0.1)">
       <use xlink:href="#DejaVuSans-33"/>
       <use xlink:href="#DejaVuSans-30" transform="translate(63.623047 0)"/>
       <use xlink:href="#DejaVuSans-30" transform="translate(127.246094 0)"/>
       <use xlink:href="#DejaVuSans-30" transform="translate(190.869141 0)"/>
      </g>
     </g>
    </g>
    <g id="ytick_5">
     <g id="line2d_11">
      <g>
       <use xlink:href="#mb22569e965" x="53.328125" y="94.040849" style="stroke: #000000; stroke-width: 0.8"/>
      </g>
     </g>
     <g id="text_12">
      <!-- 4000 -->
      <g transform="translate(20.878125 97.840067) scale(0.1 -0.1)">
       <use xlink:href="#DejaVuSans-34"/>
       <use xlink:href="#DejaVuSans-30" transform="translate(63.623047 0)"/>
       <use xlink:href="#DejaVuSans-30" transform="translate(127.246094 0)"/>
       <use xlink:href="#DejaVuSans-30" transform="translate(190.869141 0)"/>
      </g>
     </g>
    </g>
    <g id="ytick_6">
     <g id="line2d_12">
      <g>
       <use xlink:href="#mb22569e965" x="53.328125" y="56.035269" style="stroke: #000000; stroke-width: 0.8"/>
      </g>
     </g>
     <g id="text_13">
      <!-- 5000 -->
      <g transform="translate(20.878125 59.834488) scale(0.1 -0.1)">
       <use xlink:href="#DejaVuSans-35"/>
       <use xlink:href="#DejaVuSans-30" transform="translate(63.623047 0)"/>
       <use xlink:href="#DejaVuSans-30" transform="translate(127.246094 0)"/>
       <use xlink:href="#DejaVuSans-30" transform="translate(190.869141 0)"/>
      </g>
     </g>
    </g>
    <g id="ytick_7">
     <g id="line2d_13">
      <g>
       <use xlink:href="#mb22569e965" x="53.328125" y="18.02969" style="stroke: #000000; stroke-width: 0.8"/>
      </g>
     </g>
     <g id="text_14">
      <!-- 6000 -->
      <g transform="translate(20.878125 21.828909) scale(0.1 -0.1)">
       <defs>
        <path id="DejaVuSans-36" d="M 2113 2584 
Q 1688 2584 1439 2293 
Q 1191 2003 1191 1497 
Q 1191 994 1439 701 
Q 1688 409 2113 409 
Q 2538 409 2786 701 
Q 3034 994 3034 1497 
Q 3034 2003 2786 2293 
Q 2538 2584 2113 2584 
z
M 3366 4563 
L 3366 3988 
Q 3128 4100 2886 4159 
Q 2644 4219 2406 4219 
Q 1781 4219 1451 3797 
Q 1122 3375 1075 2522 
Q 1259 2794 1537 2939 
Q 1816 3084 2150 3084 
Q 2853 3084 3261 2657 
Q 3669 2231 3669 1497 
Q 3669 778 3244 343 
Q 2819 -91 2113 -91 
Q 1303 -91 875 529 
Q 447 1150 447 2328 
Q 447 3434 972 4092 
Q 1497 4750 2381 4750 
Q 2619 4750 2861 4703 
Q 3103 4656 3366 4563 
z
" transform="scale(0.015625)"/>
       </defs>
       <use xlink:href="#DejaVuSans-36"/>
       <use xlink:href="#DejaVuSans-30" transform="translate(63.623047 0)"/>
       <use xlink:href="#DejaVuSans-30" transform="translate(127.246094 0)"/>
       <use xlink:href="#DejaVuSans-30" transform="translate(190.869141 0)"/>
      </g>
     </g>
    </g>
    <g id="text_15">
     <!-- pulse:0 [counts] -->
     <g transform="translate(14.798438 172.659916) rotate(-90) scale(0.1 -0.1)">
      <defs>
       <path id="DejaVuSans-70" d="M 1159 525 
L 1159 -1331 
L 581 -1331 
L 581 3500 
L 1159 3500 
L 1159 2969 
Q 1341 3281 1617 3432 
Q 1894 3584 2278 3584 
Q 2916 3584 3314 3078 
Q 3713 2572 3713 1747 
Q 3713 922 3314 415 
Q 2916 -91 2278 -91 
Q 1894 -91 1617 61 
Q 1341 213 1159 525 
z
M 3116 1747 
Q 3116 2381 2855 2742 
Q 2594 3103 2138 3103 
Q 1681 3103 1420 2742 
Q 1159 2381 1159 1747 
Q 1159 1113 1420 752 
Q 1681 391 2138 391 
Q 2594 391 2855 752 
Q 3116 1113 3116 1747 
z
" transform="scale(0.015625)"/>
       <path id="DejaVuSans-75" d="M 544 1381 
L 544 3500 
L 1119 3500 
L 1119 1403 
Q 1119 906 1312 657 
Q 1506 409 1894 409 
Q 2359 409 2629 706 
Q 2900 1003 2900 1516 
L 2900 3500 
L 3475 3500 
L 3475 0 
L 2900 0 
L 2900 538 
Q 2691 219 2414 64 
Q 2138 -91 1772 -91 
Q 1169 -91 856 284 
Q 544 659 544 1381 
z
M 1991 3584 
L 1991 3584 
z
" transform="scale(0.015625)"/>
       <path id="DejaVuSans-6c" d="M 603 4863 
L 1178 4863 
L 1178 0 
L 603 0 
L 603 4863 
z
" transform="scale(0.015625)"/>
       <path id="DejaVuSans-3a" d="M 750 794 
L 1409 794 
L 1409 0 
L 750 0 
L 750 794 
z
M 750 3309 
L 1409 3309 
L 1409 2516 
L 750 2516 
L 750 3309 
z
" transform="scale(0.015625)"/>
       <path id="DejaVuSans-63" d="M 3122 3366 
L 3122 2828 
Q 2878 2963 2633 3030 
Q 2388 3097 2138 3097 
Q 1578 3097 1268 2742 
Q 959 2388 959 1747 
Q 959 1106 1268 751 
Q 1578 397 2138 397 
Q 2388 397 2633 464 
Q 2878 531 3122 666 
L 3122 134 
Q 2881 22 2623 -34 
Q 2366 -91 2075 -91 
Q 1284 -91 818 406 
Q 353 903 353 1747 
Q 353 2603 823 3093 
Q 1294 3584 2113 3584 
Q 2378 3584 2631 3529 
Q 2884 3475 3122 3366 
z
" transform="scale(0.015625)"/>
       <path id="DejaVuSans-6f" d="M 1959 3097 
Q 1497 3097 1228 2736 
Q 959 2375 959 1747 
Q 959 1119 1226 758 
Q 1494 397 1959 397 
Q 2419 397 2687 759 
Q 2956 1122 2956 1747 
Q 2956 2369 2687 2733 
Q 2419 3097 1959 3097 
z
M 1959 3584 
Q 2709 3584 3137 3096 
Q 3566 2609 3566 1747 
Q 3566 888 3137 398 
Q 2709 -91 1959 -91 
Q 1206 -91 779 398 
Q 353 888 353 1747 
Q 353 2609 779 3096 
Q 1206 3584 1959 3584 
z
" transform="scale(0.015625)"/>
       <path id="DejaVuSans-6e" d="M 3513 2113 
L 3513 0 
L 2938 0 
L 2938 2094 
Q 2938 2591 2744 2837 
Q 2550 3084 2163 3084 
Q 1697 3084 1428 2787 
Q 1159 2491 1159 1978 
L 1159 0 
L 581 0 
L 581 3500 
L 1159 3500 
L 1159 2956 
Q 1366 3272 1645 3428 
Q 1925 3584 2291 3584 
Q 2894 3584 3203 3211 
Q 3513 2838 3513 2113 
z
" transform="scale(0.015625)"/>
      </defs>
      <use xlink:href="#DejaVuSans-70"/>
      <use xlink:href="#DejaVuSans-75" transform="translate(63.476562 0)"/>
      <use xlink:href="#DejaVuSans-6c" transform="translate(126.855469 0)"/>
      <use xlink:href="#DejaVuSans-73" transform="translate(154.638672 0)"/>
      <use xlink:href="#DejaVuSans-65" transform="translate(206.738281 0)"/>
      <use xlink:href="#DejaVuSans-3a" transform="translate(268.261719 0)"/>
      <use xlink:href="#DejaVuSans-30" transform="translate(301.953125 0)"/>
      <use xlink:href="#DejaVuSans-20" transform="translate(365.576172 0)"/>
      <use xlink:href="#DejaVuSans-5b" transform="translate(397.363281 0)"/>
      <use xlink:href="#DejaVuSans-63" transform="translate(436.376953 0)"/>
      <use xlink:href="#DejaVuSans-6f" transform="translate(491.357422 0)"/>
      <use xlink:href="#DejaVuSans-75" transform="translate(552.539062 0)"/>
      <use xlink:href="#DejaVuSans-6e" transform="translate(615.917969 0)"/>
      <use xlink:href="#DejaVuSans-74" transform="translate(679.296875 0)"/>
      <use xlink:href="#DejaVuSans-73" transform="translate(718.505859 0)"/>
      <use xlink:href="#DejaVuSans-5d" transform="translate(770.605469 0)"/>
     </g>
    </g>
   </g>
   <g id="line2d_14">
    <path d="M 69.604961 233.141269 
L 70.690083 233.141269 
L 70.690083 227.136388 
L 71.775205 227.136388 
L 71.775205 218.927182 
L 72.860328 218.927182 
L 72.860328 211.858145 
L 73.94545 211.858145 
L 73.94545 199.050264 
L 75.030573 199.050264 
L 75.030573 191.297126 
L 76.115695 191.297126 
L 76.115695 185.254239 
L 77.200817 185.254239 
L 77.200817 175.372788 
L 78.28594 175.372788 
L 78.28594 166.365466 
L 79.371062 166.365466 
L 79.371062 160.550613 
L 80.456184 160.550613 
L 80.456184 150.973207 
L 81.541307 150.973207 
L 81.541307 143.714141 
L 82.626429 143.714141 
L 82.626429 138.621393 
L 83.711552 138.621393 
L 83.711552 131.8564 
L 84.796674 131.8564 
L 84.796674 125.053401 
L 85.881796 125.053401 
L 85.881796 121.670905 
L 86.966919 121.670905 
L 86.966919 114.981923 
L 88.052041 114.981923 
L 88.052041 111.067348 
L 89.137163 111.067348 
L 89.137163 105.2905 
L 90.222286 105.2905 
L 90.222286 98.297473 
L 91.307408 98.297473 
L 91.307408 94.876971 
L 93.477653 94.80096 
L 93.477653 87.655911 
L 94.562775 87.655911 
L 94.562775 86.857794 
L 95.647898 86.857794 
L 95.647898 80.434851 
L 96.73302 80.434851 
L 96.73302 82.183108 
L 97.818143 82.183108 
L 97.818143 75.760165 
L 98.903265 75.760165 
L 98.903265 77.166371 
L 99.988387 77.166371 
L 99.988387 71.541546 
L 101.07351 71.541546 
L 101.07351 71.807585 
L 102.158632 71.807585 
L 102.158632 69.261211 
L 103.243754 69.261211 
L 103.243754 64.206469 
L 104.328877 64.206469 
L 104.328877 63.902424 
L 105.413999 63.902424 
L 105.413999 60.177877 
L 106.499122 60.177877 
L 106.499122 62.154167 
L 107.584244 62.154167 
L 107.584244 53.146845 
L 108.669366 53.146845 
L 108.669366 51.854655 
L 109.754489 51.854655 
L 109.754489 54.895102 
L 110.839611 54.895102 
L 110.839611 51.4746 
L 111.924733 51.4746 
L 111.924733 53.906957 
L 113.009856 53.906957 
L 113.009856 50.86651 
L 114.094978 50.86651 
L 114.094978 51.626622 
L 115.180101 51.626622 
L 115.180101 47.522019 
L 116.265223 47.522019 
L 116.265223 41.859188 
L 117.350345 41.859188 
L 117.350345 45.27969 
L 118.435468 45.27969 
L 118.435468 46.533874 
L 119.52059 46.533874 
L 119.52059 41.593149 
L 120.605712 41.593149 
L 120.605712 40.110931 
L 121.690835 40.110931 
L 121.690835 42.467277 
L 122.775957 42.467277 
L 122.775957 38.894753 
L 123.86108 38.894753 
L 123.86108 43.911489 
L 124.946202 43.911489 
L 124.946202 37.108491 
L 126.031324 37.108491 
L 126.031324 39.160792 
L 127.116447 39.160792 
L 127.116447 45.659746 
L 128.201569 45.659746 
L 128.201569 37.602563 
L 129.286692 37.602563 
L 129.286692 42.809328 
L 130.371814 42.809328 
L 130.371814 42.125227 
L 131.456936 42.125227 
L 131.456936 31.939732 
L 132.542059 31.939732 
L 132.542059 31.635687 
L 133.627181 31.635687 
L 133.627181 35.132201 
L 134.712303 35.132201 
L 134.712303 34.182061 
L 135.797426 34.182061 
L 135.797426 32.509816 
L 136.882548 32.509816 
L 136.882548 34.4481 
L 137.967671 34.4481 
L 137.967671 33.117905 
L 139.052793 33.117905 
L 139.052793 31.141615 
L 140.137915 31.141615 
L 140.137915 32.623832 
L 141.223038 32.623832 
L 141.223038 29.165325 
L 142.30816 29.165325 
L 142.30816 27.873135 
L 143.393282 27.873135 
L 143.393282 31.103609 
L 144.478405 31.103609 
L 144.478405 29.963442 
L 145.563527 29.963442 
L 145.563527 28.443219 
L 146.64865 28.443219 
L 146.64865 30.609537 
L 147.733772 30.609537 
L 147.733772 33.15591 
L 148.818894 33.15591 
L 148.818894 31.483665 
L 149.904017 31.483665 
L 149.904017 28.633246 
L 150.989139 28.633246 
L 150.989139 26.010862 
L 152.074261 26.010862 
L 152.074261 27.683107 
L 153.159384 27.683107 
L 153.159384 25.820834 
L 154.244506 25.820834 
L 154.244506 32.889871 
L 155.329629 32.889871 
L 155.329629 23.578504 
L 156.414751 23.578504 
L 156.414751 25.516789 
L 157.499873 25.516789 
L 157.499873 33.992033 
L 158.584996 33.992033 
L 158.584996 22.514348 
L 159.670118 22.514348 
L 159.670118 33.345938 
L 160.75524 33.345938 
L 160.75524 23.768532 
L 161.840363 23.768532 
L 161.840363 21.412186 
L 162.925485 21.412186 
L 162.925485 37.526552 
L 164.010608 37.526552 
L 164.010608 29.697403 
L 165.09573 29.697403 
L 165.09573 23.122437 
L 166.180852 23.122437 
L 166.180852 27.113023 
L 167.265975 27.113023 
L 167.265975 26.656956 
L 168.351097 26.656956 
L 168.351097 25.326761 
L 169.43622 25.326761 
L 169.43622 28.481224 
L 170.521342 28.481224 
L 170.521342 25.174739 
L 171.606464 25.174739 
L 171.606464 27.341057 
L 172.691587 27.341057 
L 172.691587 27.91114 
L 173.776709 27.91114 
L 173.776709 25.820834 
L 174.861831 25.820834 
L 174.861831 27.797124 
L 175.946954 27.797124 
L 175.946954 25.022716 
L 177.032076 25.022716 
L 177.032076 18.979829 
L 178.117199 18.979829 
L 178.117199 29.659397 
L 179.202321 29.659397 
L 179.202321 28.17718 
L 180.287443 28.17718 
L 180.287443 29.469369 
L 181.372566 29.469369 
L 181.372566 25.288756 
L 182.457688 25.288756 
L 182.457688 26.010862 
L 183.54281 26.010862 
L 183.54281 26.618951 
L 184.627933 26.618951 
L 184.627933 24.984711 
L 185.713055 24.984711 
L 185.713055 23.122437 
L 186.798178 23.122437 
L 186.798178 30.609537 
L 188.968422 30.609537 
L 188.968422 26.922995 
L 190.053545 26.922995 
L 190.053545 24.946705 
L 191.138667 24.946705 
L 191.138667 23.61651 
L 192.223789 23.61651 
L 192.223789 26.808979 
L 193.308912 26.808979 
L 193.308912 23.046426 
L 194.394034 23.046426 
L 194.394034 24.262605 
L 195.479157 24.262605 
L 195.479157 29.469369 
L 196.564279 29.469369 
L 196.564279 26.770973 
L 197.649401 26.770973 
L 197.649401 25.858839 
L 198.734524 25.858839 
L 198.734524 22.020276 
L 199.819646 22.020276 
L 199.819646 28.785269 
L 200.904769 28.785269 
L 200.904769 21.906259 
L 201.989891 21.906259 
L 201.989891 26.88499 
L 203.075013 26.88499 
L 203.075013 22.286315 
L 204.160136 22.286315 
L 204.160136 30.077459 
L 205.245258 30.077459 
L 205.245258 23.882549 
L 206.33038 23.882549 
L 206.33038 27.151029 
L 207.415503 27.151029 
L 207.415503 24.984711 
L 208.500625 24.984711 
L 208.500625 33.383944 
L 209.585748 33.383944 
L 209.585748 29.887431 
L 210.67087 29.887431 
L 210.67087 23.084432 
L 211.755992 23.084432 
L 211.755992 23.806538 
L 212.841115 23.806538 
L 212.841115 24.148588 
L 213.926237 24.148588 
L 213.926237 27.303051 
L 215.011359 27.303051 
L 215.011359 23.046426 
L 216.096482 23.046426 
L 216.096482 20.956119 
L 217.181604 20.956119 
L 217.181604 27.455074 
L 218.266727 27.455074 
L 218.266727 24.376622 
L 219.351849 24.376622 
L 219.351849 23.008421 
L 220.436971 23.008421 
L 220.436971 25.782828 
L 221.522094 25.782828 
L 221.522094 28.101168 
L 222.607216 28.101168 
L 222.607216 27.683107 
L 223.692338 27.683107 
L 223.692338 25.098728 
L 224.777461 25.098728 
L 224.777461 26.390917 
L 225.862583 26.390917 
L 225.862583 23.844543 
L 226.947706 23.844543 
L 226.947706 27.189034 
L 228.032828 27.189034 
L 228.032828 31.559676 
L 229.11795 31.559676 
L 229.11795 23.122437 
L 230.203073 23.122437 
L 230.203073 25.440778 
L 231.288195 25.440778 
L 231.288195 26.504934 
L 232.373317 26.504934 
L 232.373317 26.124878 
L 233.45844 26.124878 
L 233.45844 24.376622 
L 234.543562 24.376622 
L 234.543562 25.25075 
L 235.628685 25.25075 
L 235.628685 26.922995 
L 236.713807 26.922995 
L 236.713807 24.338616 
L 237.798929 24.338616 
L 237.798929 26.961001 
L 238.884052 26.961001 
L 238.884052 25.554795 
L 239.969174 25.554795 
L 239.969174 23.768532 
L 241.054297 23.768532 
L 241.054297 25.212744 
L 242.139419 25.212744 
L 242.139419 20.34803 
L 243.224541 20.34803 
L 243.224541 22.020276 
L 244.309664 22.020276 
L 244.309664 23.388477 
L 245.394786 23.388477 
L 245.394786 19.473902 
L 246.479908 19.473902 
L 246.479908 21.146147 
L 247.565031 21.146147 
L 247.565031 24.490638 
L 248.650153 24.490638 
L 248.650153 26.200889 
L 249.735276 26.200889 
L 249.735276 26.314906 
L 250.820398 26.314906 
L 250.820398 24.566649 
L 251.90552 24.566649 
L 251.90552 28.139174 
L 252.990643 28.139174 
L 252.990643 18.561768 
L 254.075765 18.561768 
L 254.075765 29.393358 
L 255.160887 29.393358 
L 255.160887 28.443219 
L 256.24601 28.443219 
L 256.24601 36.196357 
L 257.331132 36.196357 
L 257.331132 44.671601 
L 258.416255 44.671601 
L 258.416255 43.835478 
L 259.501377 43.835478 
L 259.501377 54.895102 
L 260.586499 54.895102 
L 260.586499 60.595939 
L 261.671622 60.595939 
L 261.671622 77.698449 
L 262.756744 77.698449 
L 262.756744 82.525158 
L 263.841866 82.525158 
L 263.841866 92.558631 
L 264.926989 92.558631 
L 264.926989 103.618255 
L 266.012111 103.618255 
L 266.012111 107.418813 
L 267.097234 107.418813 
L 267.097234 121.822927 
L 268.182356 121.822927 
L 268.182356 125.623485 
L 269.267478 125.623485 
L 269.267478 134.098729 
L 270.352601 134.098729 
L 270.352601 139.229482 
L 271.437723 139.229482 
L 271.437723 146.032481 
L 272.522846 146.032481 
L 272.522846 147.742732 
L 273.607968 147.742732 
L 273.607968 155.647893 
L 274.69309 155.647893 
L 274.69309 159.182412 
L 275.778213 159.182412 
L 275.778213 159.752495 
L 276.863335 159.752495 
L 276.863335 168.721812 
L 277.948457 168.721812 
L 277.948457 177.463095 
L 279.03358 177.463095 
L 279.03358 178.375229 
L 280.118702 178.375229 
L 280.118702 177.311073 
L 281.203825 177.311073 
L 281.203825 184.190083 
L 282.288947 184.190083 
L 282.288947 185.786317 
L 283.374069 185.786317 
L 283.374069 191.601171 
L 284.459192 191.601171 
L 284.459192 191.829204 
L 285.544314 191.829204 
L 285.544314 197.758075 
L 286.629436 197.758075 
L 286.629436 199.924393 
L 287.714559 199.924393 
L 287.714559 199.544337 
L 288.799681 199.544337 
L 288.799681 205.359191 
L 289.884804 205.359191 
L 289.884804 207.335481 
L 290.969926 207.335481 
L 290.969926 208.817698 
L 292.055048 208.817698 
L 292.055048 210.299916 
L 293.140171 210.299916 
L 293.140171 213.150334 
L 294.225293 213.150334 
L 294.225293 214.82258 
L 295.310415 214.82258 
L 295.310415 214.708563 
L 296.395538 214.708563 
L 296.395538 217.634993 
L 297.48066 217.634993 
L 297.48066 220.181367 
L 298.565783 220.181367 
L 298.565783 218.77516 
L 299.650905 218.77516 
L 299.650905 223.639874 
L 301.82115 223.715885 
L 301.82115 223.373835 
L 302.906272 223.373835 
L 302.906272 223.829902 
L 303.991394 223.829902 
L 303.991394 226.908354 
L 305.076517 226.908354 
L 305.076517 227.592455 
L 306.161639 227.592455 
L 306.161639 228.466583 
L 307.246762 228.466583 
L 307.246762 230.594895 
L 308.331884 230.594895 
L 308.331884 229.454728 
L 309.417006 229.454728 
L 309.417006 232.837224 
L 310.502129 232.837224 
L 310.502129 231.925091 
L 311.587251 231.925091 
L 311.587251 233.103264 
L 312.672374 233.103264 
L 312.672374 231.088968 
L 313.757496 231.088968 
L 313.757496 234.395453 
L 314.842618 234.395453 
L 314.842618 234.737503 
L 315.927741 234.737503 
L 315.927741 235.535621 
L 317.012863 235.535621 
L 317.012863 237.055844 
L 318.097985 237.055844 
L 318.097985 236.751799 
L 319.183108 236.751799 
L 319.183108 237.245872 
L 320.26823 237.245872 
L 320.26823 237.055844 
L 321.353353 237.055844 
L 321.353353 238.500056 
L 322.438475 238.500056 
L 322.438475 238.272022 
L 323.523597 238.272022 
L 323.523597 239.564212 
L 325.693842 239.564212 
L 325.693842 239.070139 
L 326.778964 239.070139 
L 326.778964 240.362329 
L 327.864087 240.362329 
L 327.864087 239.830251 
L 328.949209 239.830251 
L 328.949209 240.970418 
L 330.034332 240.970418 
L 330.034332 240.400335 
L 331.119454 240.400335 
L 331.119454 240.742385 
L 332.204576 240.742385 
L 332.204576 241.768536 
L 333.289699 241.768536 
L 333.289699 241.502497 
L 335.459943 241.464491 
L 335.459943 242.148591 
L 337.630188 242.110586 
L 337.630188 242.908703 
L 338.715311 242.908703 
L 338.715311 242.528647 
L 339.800433 242.528647 
L 339.800433 242.946709 
L 340.885555 242.946709 
L 340.885555 242.68067 
L 343.0558 242.718675 
L 343.0558 243.288759 
L 347.39629 243.36477 
L 347.39629 243.554798 
L 348.481412 243.554798 
L 348.481412 244.200893 
L 349.566534 244.200893 
L 349.566534 243.972859 
L 350.651657 243.972859 
L 350.651657 244.238898 
L 352.821902 244.162887 
L 352.821902 244.04887 
L 354.992146 244.124882 
L 354.992146 244.428926 
L 356.077269 244.428926 
L 356.077269 244.542943 
L 357.162391 244.542943 
L 357.162391 244.352915 
L 358.247513 244.352915 
L 358.247513 244.65696 
L 359.332636 244.65696 
L 359.332636 244.124882 
L 360.417758 244.124882 
L 360.417758 244.694965 
L 362.588003 244.694965 
L 362.588003 244.808982 
L 364.758248 244.846988 
L 364.758248 244.961004 
L 365.84337 244.961004 
L 365.84337 245.303055 
L 366.928492 245.303055 
L 366.928492 245.113027 
L 369.098737 245.075021 
L 369.098737 245.34106 
L 370.18386 245.34106 
L 370.18386 245.151032 
L 371.268982 245.151032 
L 371.268982 245.569094 
L 372.354104 245.569094 
L 372.354104 245.189038 
L 373.439227 245.189038 
L 373.439227 245.569094 
L 376.694594 245.531088 
L 376.694594 245.455077 
L 378.864839 245.493082 
L 378.864839 245.68311 
L 384.290451 245.759121 
L 384.290451 245.569094 
L 385.375573 245.569094 
L 385.375573 245.797127 
L 388.63094 245.721116 
L 388.63094 245.68311 
L 391.886307 245.68311 
L 391.886307 245.797127 
L 395.141674 245.797127 
L 395.141674 245.797127 
" clip-path="url(#p5441b9faf2)" style="fill: none; stroke: #1f77b4; stroke-width: 1.5; stroke-linecap: square"/>
   </g>
   <g id="patch_3">
    <path d="M 53.328125 257.158895 
L 53.328125 7.2 
" style="fill: none; stroke: #000000; stroke-width: 0.8; stroke-linejoin: miter; stroke-linecap: square"/>
   </g>
   <g id="patch_4">
    <path d="M 411.41851 257.158895 
L 411.41851 7.2 
" style="fill: none; stroke: #000000; stroke-width: 0.8; stroke-linejoin: miter; stroke-linecap: square"/>
   </g>
   <g id="patch_5">
    <path d="M 53.328125 257.158895 
L 411.41851 257.158895 
" style="fill: none; stroke: #000000; stroke-width: 0.8; stroke-linejoin: miter; stroke-linecap: square"/>
   </g>
   <g id="patch_6">
    <path d="M 53.328125 7.2 
L 411.41851 7.2 
" style="fill: none; stroke: #000000; stroke-width: 0.8; stroke-linejoin: miter; stroke-linecap: square"/>
   </g>
  </g>
  <g id="axes_2">
   <g id="patch_7">
    <path d="M 507.109135 257.158895 
L 865.19952 257.158895 
L 865.19952 7.2 
L 507.109135 7.2 
z
" style="fill: #ffffff"/>
   </g>
   <g id="matplotlib.axis_3">
    <g id="xtick_7">
     <g id="line2d_15">
      <g>
       <use xlink:href="#m88806e21ab" x="520.105788" y="257.158895" style="stroke: #000000; stroke-width: 0.8"/>
      </g>
     </g>
     <g id="text_16">
      <!-- 0.0 -->
      <g transform="translate(512.154226 271.757332) scale(0.1 -0.1)">
       <defs>
        <path id="DejaVuSans-2e" d="M 684 794 
L 1344 794 
L 1344 0 
L 684 0 
L 684 794 
z
" transform="scale(0.015625)"/>
       </defs>
       <use xlink:href="#DejaVuSans-30"/>
       <use xlink:href="#DejaVuSans-2e" transform="translate(63.623047 0)"/>
       <use xlink:href="#DejaVuSans-30" transform="translate(95.410156 0)"/>
      </g>
     </g>
    </g>
    <g id="xtick_8">
     <g id="line2d_16">
      <g>
       <use xlink:href="#m88806e21ab" x="561.414459" y="257.158895" style="stroke: #000000; stroke-width: 0.8"/>
      </g>
     </g>
     <g id="text_17">
      <!-- 2.5 -->
      <g transform="translate(553.462896 271.757332) scale(0.1 -0.1)">
       <use xlink:href="#DejaVuSans-32"/>
       <use xlink:href="#DejaVuSans-2e" transform="translate(63.623047 0)"/>
       <use xlink:href="#DejaVuSans-35" transform="translate(95.410156 0)"/>
      </g>
     </g>
    </g>
    <g id="xtick_9">
     <g id="line2d_17">
      <g>
       <use xlink:href="#m88806e21ab" x="602.72313" y="257.158895" style="stroke: #000000; stroke-width: 0.8"/>
      </g>
     </g>
     <g id="text_18">
      <!-- 5.0 -->
      <g transform="translate(594.771567 271.757332) scale(0.1 -0.1)">
       <use xlink:href="#DejaVuSans-35"/>
       <use xlink:href="#DejaVuSans-2e" transform="translate(63.623047 0)"/>
       <use xlink:href="#DejaVuSans-30" transform="translate(95.410156 0)"/>
      </g>
     </g>
    </g>
    <g id="xtick_10">
     <g id="line2d_18">
      <g>
       <use xlink:href="#m88806e21ab" x="644.0318" y="257.158895" style="stroke: #000000; stroke-width: 0.8"/>
      </g>
     </g>
     <g id="text_19">
      <!-- 7.5 -->
      <g transform="translate(636.080238 271.757332) scale(0.1 -0.1)">
       <defs>
        <path id="DejaVuSans-37" d="M 525 4666 
L 3525 4666 
L 3525 4397 
L 1831 0 
L 1172 0 
L 2766 4134 
L 525 4134 
L 525 4666 
z
" transform="scale(0.015625)"/>
       </defs>
       <use xlink:href="#DejaVuSans-37"/>
       <use xlink:href="#DejaVuSans-2e" transform="translate(63.623047 0)"/>
       <use xlink:href="#DejaVuSans-35" transform="translate(95.410156 0)"/>
      </g>
     </g>
    </g>
    <g id="xtick_11">
     <g id="line2d_19">
      <g>
       <use xlink:href="#m88806e21ab" x="685.340471" y="257.158895" style="stroke: #000000; stroke-width: 0.8"/>
      </g>
     </g>
     <g id="text_20">
      <!-- 10.0 -->
      <g transform="translate(674.207658 271.757332) scale(0.1 -0.1)">
       <use xlink:href="#DejaVuSans-31"/>
       <use xlink:href="#DejaVuSans-30" transform="translate(63.623047 0)"/>
       <use xlink:href="#DejaVuSans-2e" transform="translate(127.246094 0)"/>
       <use xlink:href="#DejaVuSans-30" transform="translate(159.033203 0)"/>
      </g>
     </g>
    </g>
    <g id="xtick_12">
     <g id="line2d_20">
      <g>
       <use xlink:href="#m88806e21ab" x="726.649141" y="257.158895" style="stroke: #000000; stroke-width: 0.8"/>
      </g>
     </g>
     <g id="text_21">
      <!-- 12.5 -->
      <g transform="translate(715.516329 271.757332) scale(0.1 -0.1)">
       <use xlink:href="#DejaVuSans-31"/>
       <use xlink:href="#DejaVuSans-32" transform="translate(63.623047 0)"/>
       <use xlink:href="#DejaVuSans-2e" transform="translate(127.246094 0)"/>
       <use xlink:href="#DejaVuSans-35" transform="translate(159.033203 0)"/>
      </g>
     </g>
    </g>
    <g id="xtick_13">
     <g id="line2d_21">
      <g>
       <use xlink:href="#m88806e21ab" x="767.957812" y="257.158895" style="stroke: #000000; stroke-width: 0.8"/>
      </g>
     </g>
     <g id="text_22">
      <!-- 15.0 -->
      <g transform="translate(756.824999 271.757332) scale(0.1 -0.1)">
       <use xlink:href="#DejaVuSans-31"/>
       <use xlink:href="#DejaVuSans-35" transform="translate(63.623047 0)"/>
       <use xlink:href="#DejaVuSans-2e" transform="translate(127.246094 0)"/>
       <use xlink:href="#DejaVuSans-30" transform="translate(159.033203 0)"/>
      </g>
     </g>
    </g>
    <g id="xtick_14">
     <g id="line2d_22">
      <g>
       <use xlink:href="#m88806e21ab" x="809.266482" y="257.158895" style="stroke: #000000; stroke-width: 0.8"/>
      </g>
     </g>
     <g id="text_23">
      <!-- 17.5 -->
      <g transform="translate(798.13367 271.757332) scale(0.1 -0.1)">
       <use xlink:href="#DejaVuSans-31"/>
       <use xlink:href="#DejaVuSans-37" transform="translate(63.623047 0)"/>
       <use xlink:href="#DejaVuSans-2e" transform="translate(127.246094 0)"/>
       <use xlink:href="#DejaVuSans-35" transform="translate(159.033203 0)"/>
      </g>
     </g>
    </g>
    <g id="xtick_15">
     <g id="line2d_23">
      <g>
       <use xlink:href="#m88806e21ab" x="850.575153" y="257.158895" style="stroke: #000000; stroke-width: 0.8"/>
      </g>
     </g>
     <g id="text_24">
      <!-- 20.0 -->
      <g transform="translate(839.442341 271.757332) scale(0.1 -0.1)">
       <use xlink:href="#DejaVuSans-32"/>
       <use xlink:href="#DejaVuSans-30" transform="translate(63.623047 0)"/>
       <use xlink:href="#DejaVuSans-2e" transform="translate(127.246094 0)"/>
       <use xlink:href="#DejaVuSans-30" transform="translate(159.033203 0)"/>
      </g>
     </g>
    </g>
    <g id="text_25">
     <!-- wavelength [Å] -->
     <g transform="translate(648.116827 287.119832) scale(0.1 -0.1)">
      <defs>
       <path id="DejaVuSans-77" d="M 269 3500 
L 844 3500 
L 1563 769 
L 2278 3500 
L 2956 3500 
L 3675 769 
L 4391 3500 
L 4966 3500 
L 4050 0 
L 3372 0 
L 2619 2869 
L 1863 0 
L 1184 0 
L 269 3500 
z
" transform="scale(0.015625)"/>
       <path id="DejaVuSans-61" d="M 2194 1759 
Q 1497 1759 1228 1600 
Q 959 1441 959 1056 
Q 959 750 1161 570 
Q 1363 391 1709 391 
Q 2188 391 2477 730 
Q 2766 1069 2766 1631 
L 2766 1759 
L 2194 1759 
z
M 3341 1997 
L 3341 0 
L 2766 0 
L 2766 531 
Q 2569 213 2275 61 
Q 1981 -91 1556 -91 
Q 1019 -91 701 211 
Q 384 513 384 1019 
Q 384 1609 779 1909 
Q 1175 2209 1959 2209 
L 2766 2209 
L 2766 2266 
Q 2766 2663 2505 2880 
Q 2244 3097 1772 3097 
Q 1472 3097 1187 3025 
Q 903 2953 641 2809 
L 641 3341 
Q 956 3463 1253 3523 
Q 1550 3584 1831 3584 
Q 2591 3584 2966 3190 
Q 3341 2797 3341 1997 
z
" transform="scale(0.015625)"/>
       <path id="DejaVuSans-76" d="M 191 3500 
L 800 3500 
L 1894 563 
L 2988 3500 
L 3597 3500 
L 2284 0 
L 1503 0 
L 191 3500 
z
" transform="scale(0.015625)"/>
       <path id="DejaVuSans-67" d="M 2906 1791 
Q 2906 2416 2648 2759 
Q 2391 3103 1925 3103 
Q 1463 3103 1205 2759 
Q 947 2416 947 1791 
Q 947 1169 1205 825 
Q 1463 481 1925 481 
Q 2391 481 2648 825 
Q 2906 1169 2906 1791 
z
M 3481 434 
Q 3481 -459 3084 -895 
Q 2688 -1331 1869 -1331 
Q 1566 -1331 1297 -1286 
Q 1028 -1241 775 -1147 
L 775 -588 
Q 1028 -725 1275 -790 
Q 1522 -856 1778 -856 
Q 2344 -856 2625 -561 
Q 2906 -266 2906 331 
L 2906 616 
Q 2728 306 2450 153 
Q 2172 0 1784 0 
Q 1141 0 747 490 
Q 353 981 353 1791 
Q 353 2603 747 3093 
Q 1141 3584 1784 3584 
Q 2172 3584 2450 3431 
Q 2728 3278 2906 2969 
L 2906 3500 
L 3481 3500 
L 3481 434 
z
" transform="scale(0.015625)"/>
       <path id="DejaVuSans-c5" d="M 2663 5081 
Q 2663 5278 2523 5417 
Q 2384 5556 2188 5556 
Q 1988 5556 1852 5420 
Q 1716 5284 1716 5081 
Q 1716 4884 1853 4746 
Q 1991 4609 2188 4609 
Q 2384 4609 2523 4746 
Q 2663 4884 2663 5081 
z
M 2188 4044 
L 1338 1722 
L 3041 1722 
L 2188 4044 
z
M 1716 4366 
Q 1525 4494 1428 4673 
Q 1331 4853 1331 5081 
Q 1331 5441 1579 5691 
Q 1828 5941 2188 5941 
Q 2544 5941 2795 5689 
Q 3047 5438 3047 5081 
Q 3047 4863 2948 4678 
Q 2850 4494 2663 4366 
L 4325 0 
L 3669 0 
L 3244 1197 
L 1141 1197 
L 716 0 
L 50 0 
L 1716 4366 
z
" transform="scale(0.015625)"/>
      </defs>
      <use xlink:href="#DejaVuSans-77"/>
      <use xlink:href="#DejaVuSans-61" transform="translate(81.787109 0)"/>
      <use xlink:href="#DejaVuSans-76" transform="translate(143.066406 0)"/>
      <use xlink:href="#DejaVuSans-65" transform="translate(202.246094 0)"/>
      <use xlink:href="#DejaVuSans-6c" transform="translate(263.769531 0)"/>
      <use xlink:href="#DejaVuSans-65" transform="translate(291.552734 0)"/>
      <use xlink:href="#DejaVuSans-6e" transform="translate(353.076172 0)"/>
      <use xlink:href="#DejaVuSans-67" transform="translate(416.455078 0)"/>
      <use xlink:href="#DejaVuSans-74" transform="translate(479.931641 0)"/>
      <use xlink:href="#DejaVuSans-68" transform="translate(519.140625 0)"/>
      <use xlink:href="#DejaVuSans-20" transform="translate(582.519531 0)"/>
      <use xlink:href="#DejaVuSans-5b" transform="translate(614.306641 0)"/>
      <use xlink:href="#DejaVuSans-c5" transform="translate(653.320312 0)"/>
      <use xlink:href="#DejaVuSans-5d" transform="translate(721.728516 0)"/>
     </g>
    </g>
   </g>
   <g id="matplotlib.axis_4">
    <g id="ytick_8">
     <g id="line2d_24">
      <g>
       <use xlink:href="#mb22569e965" x="507.109135" y="245.850219" style="stroke: #000000; stroke-width: 0.8"/>
      </g>
     </g>
     <g id="text_26">
      <!-- 0 -->
      <g transform="translate(493.746635 249.649438) scale(0.1 -0.1)">
       <use xlink:href="#DejaVuSans-30"/>
      </g>
     </g>
    </g>
    <g id="ytick_9">
     <g id="line2d_25">
      <g>
       <use xlink:href="#mb22569e965" x="507.109135" y="192.757846" style="stroke: #000000; stroke-width: 0.8"/>
      </g>
     </g>
     <g id="text_27">
      <!-- 5000 -->
      <g transform="translate(474.659135 196.557065) scale(0.1 -0.1)">
       <use xlink:href="#DejaVuSans-35"/>
       <use xlink:href="#DejaVuSans-30" transform="translate(63.623047 0)"/>
       <use xlink:href="#DejaVuSans-30" transform="translate(127.246094 0)"/>
       <use xlink:href="#DejaVuSans-30" transform="translate(190.869141 0)"/>
      </g>
     </g>
    </g>
    <g id="ytick_10">
     <g id="line2d_26">
      <g>
       <use xlink:href="#mb22569e965" x="507.109135" y="139.665472" style="stroke: #000000; stroke-width: 0.8"/>
      </g>
     </g>
     <g id="text_28">
      <!-- 10000 -->
      <g transform="translate(468.296635 143.464691) scale(0.1 -0.1)">
       <use xlink:href="#DejaVuSans-31"/>
       <use xlink:href="#DejaVuSans-30" transform="translate(63.623047 0)"/>
       <use xlink:href="#DejaVuSans-30" transform="translate(127.246094 0)"/>
       <use xlink:href="#DejaVuSans-30" transform="translate(190.869141 0)"/>
       <use xlink:href="#DejaVuSans-30" transform="translate(254.492188 0)"/>
      </g>
     </g>
    </g>
    <g id="ytick_11">
     <g id="line2d_27">
      <g>
       <use xlink:href="#mb22569e965" x="507.109135" y="86.573099" style="stroke: #000000; stroke-width: 0.8"/>
      </g>
     </g>
     <g id="text_29">
      <!-- 15000 -->
      <g transform="translate(468.296635 90.372317) scale(0.1 -0.1)">
       <use xlink:href="#DejaVuSans-31"/>
       <use xlink:href="#DejaVuSans-35" transform="translate(63.623047 0)"/>
       <use xlink:href="#DejaVuSans-30" transform="translate(127.246094 0)"/>
       <use xlink:href="#DejaVuSans-30" transform="translate(190.869141 0)"/>
       <use xlink:href="#DejaVuSans-30" transform="translate(254.492188 0)"/>
      </g>
     </g>
    </g>
    <g id="ytick_12">
     <g id="line2d_28">
      <g>
       <use xlink:href="#mb22569e965" x="507.109135" y="33.480725" style="stroke: #000000; stroke-width: 0.8"/>
      </g>
     </g>
     <g id="text_30">
      <!-- 20000 -->
      <g transform="translate(468.296635 37.279944) scale(0.1 -0.1)">
       <use xlink:href="#DejaVuSans-32"/>
       <use xlink:href="#DejaVuSans-30" transform="translate(63.623047 0)"/>
       <use xlink:href="#DejaVuSans-30" transform="translate(127.246094 0)"/>
       <use xlink:href="#DejaVuSans-30" transform="translate(190.869141 0)"/>
       <use xlink:href="#DejaVuSans-30" transform="translate(254.492188 0)"/>
      </g>
     </g>
    </g>
    <g id="text_31">
     <!-- pulse:0 [counts] -->
     <g transform="translate(462.216947 172.659916) rotate(-90) scale(0.1 -0.1)">
      <use xlink:href="#DejaVuSans-70"/>
      <use xlink:href="#DejaVuSans-75" transform="translate(63.476562 0)"/>
      <use xlink:href="#DejaVuSans-6c" transform="translate(126.855469 0)"/>
      <use xlink:href="#DejaVuSans-73" transform="translate(154.638672 0)"/>
      <use xlink:href="#DejaVuSans-65" transform="translate(206.738281 0)"/>
      <use xlink:href="#DejaVuSans-3a" transform="translate(268.261719 0)"/>
      <use xlink:href="#DejaVuSans-30" transform="translate(301.953125 0)"/>
      <use xlink:href="#DejaVuSans-20" transform="translate(365.576172 0)"/>
      <use xlink:href="#DejaVuSans-5b" transform="translate(397.363281 0)"/>
      <use xlink:href="#DejaVuSans-63" transform="translate(436.376953 0)"/>
      <use xlink:href="#DejaVuSans-6f" transform="translate(491.357422 0)"/>
      <use xlink:href="#DejaVuSans-75" transform="translate(552.539062 0)"/>
      <use xlink:href="#DejaVuSans-6e" transform="translate(615.917969 0)"/>
      <use xlink:href="#DejaVuSans-74" transform="translate(679.296875 0)"/>
      <use xlink:href="#DejaVuSans-73" transform="translate(718.505859 0)"/>
      <use xlink:href="#DejaVuSans-5d" transform="translate(770.605469 0)"/>
     </g>
    </g>
   </g>
   <g id="line2d_29">
    <path d="M 523.385971 154.637522 
L 524.471093 154.637522 
L 524.471093 146.928509 
L 525.556215 146.928509 
L 525.556215 139.272589 
L 526.641338 139.272589 
L 526.641338 137.87095 
L 527.72646 137.87095 
L 527.72646 146.50377 
L 528.811583 146.50377 
L 528.811583 148.648702 
L 529.896705 148.648702 
L 529.896705 143.105858 
L 530.981827 143.105858 
L 530.981827 125.12878 
L 532.06695 125.12878 
L 532.06695 101.32216 
L 533.152072 101.32216 
L 533.152072 83.398175 
L 534.237194 83.398175 
L 534.237194 61.42855 
L 535.322317 61.42855 
L 535.322317 35.317721 
L 536.407439 35.317721 
L 536.407439 25.909752 
L 537.492562 25.909752 
L 537.492562 24.624917 
L 538.577684 24.624917 
L 538.577684 18.561768 
L 540.747929 18.572386 
L 540.747929 32.174653 
L 541.833051 32.174653 
L 541.833051 38.864292 
L 542.918173 38.864292 
L 542.918173 47.305979 
L 544.003296 47.305979 
L 544.003296 59.814542 
L 545.088418 59.814542 
L 545.088418 64.348631 
L 546.173541 64.348631 
L 546.173541 73.522993 
L 547.258663 73.522993 
L 547.258663 86.392584 
L 548.343785 86.392584 
L 548.343785 88.781741 
L 549.428908 88.781741 
L 549.428908 92.615011 
L 550.51403 92.615011 
L 550.51403 95.906738 
L 551.599153 95.906738 
L 551.599153 92.710577 
L 554.85452 92.646866 
L 554.85452 83.026528 
L 555.939642 83.026528 
L 555.939642 76.835957 
L 557.024764 76.835957 
L 557.024764 69.99766 
L 558.109887 69.99766 
L 558.109887 57.499715 
L 559.195009 57.499715 
L 559.195009 49.843794 
L 560.280132 49.843794 
L 560.280132 43.759408 
L 561.365254 43.759408 
L 561.365254 35.795552 
L 562.450376 35.795552 
L 562.450376 34.468243 
L 563.535499 34.468243 
L 563.535499 44.810637 
L 564.620621 44.810637 
L 564.620621 50.618943 
L 565.705743 50.618943 
L 565.705743 57.319201 
L 566.790866 57.319201 
L 566.790866 73.140728 
L 567.875988 73.140728 
L 567.875988 79.554287 
L 568.961111 79.554287 
L 568.961111 86.020938 
L 570.046233 86.020938 
L 570.046233 97.382706 
L 571.131355 97.382706 
L 571.131355 101.035461 
L 572.216478 101.035461 
L 572.216478 110.326627 
L 573.3016 110.326627 
L 573.3016 118.014402 
L 574.386722 118.014402 
L 574.386722 121.635302 
L 575.471845 121.635302 
L 575.471845 128.144427 
L 576.556967 128.144427 
L 576.556967 135.672926 
L 577.64209 135.672926 
L 577.64209 141.62989 
L 578.727212 141.62989 
L 578.727212 146.386967 
L 579.812334 146.386967 
L 579.812334 155.678132 
L 580.897457 155.678132 
L 580.897457 154.212783 
L 581.982579 154.212783 
L 581.982579 158.799964 
L 583.067702 158.799964 
L 583.067702 165.542695 
L 584.152824 165.542695 
L 584.152824 167.507113 
L 585.237946 167.507113 
L 585.237946 170.512141 
L 586.323069 170.512141 
L 586.323069 175.502824 
L 587.408191 175.502824 
L 587.408191 179.64403 
L 588.493313 179.64403 
L 588.493313 182.383596 
L 589.578436 182.383596 
L 589.578436 185.90893 
L 590.663558 185.90893 
L 590.663558 187.108817 
L 591.748681 187.108817 
L 591.748681 190.421781 
L 592.833803 190.421781 
L 592.833803 194.403709 
L 593.918925 194.403709 
L 593.918925 193.660416 
L 595.004048 193.660416 
L 595.004048 198.22636 
L 596.08917 198.22636 
L 596.08917 200.604899 
L 597.174292 200.604899 
L 597.174292 202.006537 
L 598.259415 202.006537 
L 598.259415 202.229525 
L 599.344537 202.229525 
L 599.344537 205.797333 
L 600.42966 205.797333 
L 600.42966 207.570618 
L 602.599904 207.62371 
L 602.599904 211.117189 
L 603.685027 211.117189 
L 603.685027 212.08347 
L 604.770149 212.08347 
L 604.770149 213.442635 
L 605.855271 213.442635 
L 605.855271 215.789317 
L 606.940394 215.789317 
L 606.940394 216.723743 
L 608.025516 216.723743 
L 608.025516 218.327133 
L 609.110639 218.327133 
L 609.110639 219.399599 
L 611.280883 219.378362 
L 611.280883 220.71629 
L 612.366006 220.71629 
L 612.366006 222.075455 
L 613.451128 222.075455 
L 613.451128 223.381527 
L 614.53625 223.381527 
L 614.53625 223.668226 
L 615.621373 223.668226 
L 615.621373 225.059246 
L 616.706495 225.059246 
L 616.706495 225.823776 
L 618.87674 225.887487 
L 618.87674 226.76882 
L 619.961862 226.76882 
L 619.961862 228.382828 
L 621.046985 228.382828 
L 621.046985 229.317254 
L 622.132107 229.317254 
L 622.132107 230.092403 
L 623.21723 230.092403 
L 623.21723 230.580853 
L 624.302352 230.580853 
L 624.302352 230.856933 
L 625.387474 230.856933 
L 625.387474 231.058684 
L 627.557719 231.037447 
L 627.557719 231.748885 
L 628.642841 231.748885 
L 628.642841 233.394749 
L 629.727964 233.394749 
L 629.727964 233.214234 
L 631.898209 233.277945 
L 631.898209 234.01062 
L 632.983331 234.01062 
L 632.983331 234.2867 
L 634.068453 234.2867 
L 634.068453 235.083086 
L 635.153576 235.083086 
L 635.153576 235.47597 
L 636.238698 235.47597 
L 636.238698 235.698958 
L 637.32382 235.698958 
L 637.32382 236.644002 
L 638.408943 236.644002 
L 638.408943 236.325448 
L 639.494065 236.325448 
L 639.494065 236.739568 
L 640.579188 236.739568 
L 640.579188 237.259873 
L 641.66431 237.259873 
L 641.66431 237.812034 
L 642.749432 237.812034 
L 642.749432 237.673994 
L 643.834555 237.673994 
L 643.834555 237.960693 
L 644.919677 237.960693 
L 644.919677 238.247392 
L 647.089922 238.226155 
L 647.089922 239.128725 
L 648.175044 239.128725 
L 648.175044 239.319857 
L 651.430411 239.426042 
L 651.430411 239.702123 
L 652.515534 239.702123 
L 652.515534 239.967584 
L 653.600656 239.967584 
L 653.600656 239.553464 
L 654.685779 239.553464 
L 654.685779 240.13748 
L 655.770901 240.13748 
L 655.770901 240.48789 
L 656.856023 240.48789 
L 656.856023 240.254283 
L 657.941146 240.254283 
L 657.941146 240.700259 
L 659.026268 240.700259 
L 659.026268 240.466653 
L 660.11139 240.466653 
L 660.11139 241.103761 
L 663.366758 241.018813 
L 663.366758 241.698396 
L 664.45188 241.698396 
L 664.45188 241.432934 
L 667.707247 241.432934 
L 667.707247 241.793962 
L 669.877492 241.836436 
L 669.877492 242.420452 
L 670.962614 242.420452 
L 670.962614 242.239938 
L 672.047737 242.239938 
L 672.047737 242.431071 
L 673.132859 242.431071 
L 673.132859 242.760243 
L 674.217981 242.760243 
L 674.217981 242.452308 
L 676.388226 242.547874 
L 676.388226 242.728388 
L 677.473348 242.728388 
L 677.473348 242.91952 
L 678.558471 242.91952 
L 678.558471 243.174364 
L 679.643593 243.174364 
L 679.643593 242.739006 
L 680.728716 242.739006 
L 680.728716 243.142508 
L 681.813838 243.142508 
L 681.813838 242.951376 
L 682.89896 242.951376 
L 682.89896 243.184982 
L 688.324572 243.238075 
L 688.324572 243.312404 
L 690.494817 243.227456 
L 690.494817 243.471681 
L 691.579939 243.471681 
L 691.579939 243.684051 
L 692.665062 243.684051 
L 692.665062 243.822091 
L 693.750184 243.822091 
L 693.750184 243.556629 
L 694.835307 243.556629 
L 694.835307 243.684051 
L 695.920429 243.684051 
L 695.920429 244.002605 
L 697.005551 244.002605 
L 697.005551 243.875183 
L 698.090674 243.875183 
L 698.090674 244.055697 
L 699.175796 244.055697 
L 699.175796 243.652195 
L 700.260918 243.652195 
L 700.260918 244.204356 
L 703.516286 244.225593 
L 703.516286 243.981368 
L 704.601408 243.981368 
L 704.601408 244.459199 
L 705.68653 244.459199 
L 705.68653 244.1725 
L 708.941897 244.236211 
L 708.941897 244.321159 
L 710.02702 244.321159 
L 710.02702 244.459199 
L 712.197265 244.406107 
L 712.197265 244.650332 
L 713.282387 244.650332 
L 713.282387 244.480436 
L 714.367509 244.480436 
L 714.367509 244.607858 
L 725.218733 244.639713 
L 725.218733 244.73528 
L 726.303856 244.73528 
L 726.303856 244.947649 
L 733.899712 245.01136 
L 733.899712 244.724661 
L 734.984835 244.724661 
L 734.984835 244.979504 
L 736.069957 244.979504 
L 736.069957 245.319296 
L 737.155079 245.319296 
L 737.155079 244.852083 
L 738.240202 244.852083 
L 738.240202 245.106926 
L 739.325324 245.106926 
L 739.325324 244.990123 
L 745.836058 244.968886 
L 745.836058 245.298059 
L 746.921181 245.298059 
L 746.921181 245.064452 
L 749.091425 245.096308 
L 749.091425 245.266203 
L 755.60216 245.202492 
L 755.60216 245.1494 
L 756.687282 245.1494 
L 756.687282 245.319296 
L 758.857527 245.319296 
L 758.857527 245.510428 
L 759.942649 245.510428 
L 759.942649 245.383007 
L 761.027772 245.383007 
L 761.027772 245.255585 
L 762.112894 245.255585 
L 762.112894 245.393625 
L 770.793873 245.414862 
L 770.793873 245.521047 
L 772.964118 245.457336 
L 772.964118 245.266203 
L 774.04924 245.266203 
L 774.04924 245.584758 
L 777.304607 245.49981 
L 777.304607 245.393625 
L 778.38973 245.393625 
L 778.38973 245.563521 
L 781.645097 245.49981 
L 781.645097 245.446717 
L 787.070709 245.552902 
L 787.070709 245.584758 
L 795.751688 245.584758 
L 795.751688 245.446717 
L 796.83681 245.446717 
L 796.83681 245.605995 
L 808.773156 245.669705 
L 808.773156 245.722798 
L 809.858279 245.722798 
L 809.858279 245.584758 
L 813.113646 245.627231 
L 813.113646 245.733416 
L 848.922684 245.744035 
L 848.922684 245.744035 
" clip-path="url(#p2a98512ecc)" style="fill: none; stroke: #1f77b4; stroke-width: 1.5; stroke-linecap: square"/>
   </g>
   <g id="patch_8">
    <path d="M 507.109135 257.158895 
L 507.109135 7.2 
" style="fill: none; stroke: #000000; stroke-width: 0.8; stroke-linejoin: miter; stroke-linecap: square"/>
   </g>
   <g id="patch_9">
    <path d="M 865.19952 257.158895 
L 865.19952 7.2 
" style="fill: none; stroke: #000000; stroke-width: 0.8; stroke-linejoin: miter; stroke-linecap: square"/>
   </g>
   <g id="patch_10">
    <path d="M 507.109135 257.158895 
L 865.19952 257.158895 
" style="fill: none; stroke: #000000; stroke-width: 0.8; stroke-linejoin: miter; stroke-linecap: square"/>
   </g>
   <g id="patch_11">
    <path d="M 507.109135 7.2 
L 865.19952 7.2 
" style="fill: none; stroke: #000000; stroke-width: 0.8; stroke-linejoin: miter; stroke-linecap: square"/>
   </g>
  </g>
 </g>
 <defs>
  <clipPath id="p5441b9faf2">
   <rect x="53.328125" y="7.2" width="358.090385" height="249.958895"/>
  </clipPath>
  <clipPath id="p2a98512ecc">
   <rect x="507.109135" y="7.2" width="358.090385" height="249.958895"/>
  </clipPath>
 </defs>
</svg>
