<?xml version="1.0" encoding="utf-8" standalone="no"?>
<!DOCTYPE svg PUBLIC "-//W3C//DTD SVG 1.1//EN"
  "http://www.w3.org/Graphics/SVG/1.1/DTD/svg11.dtd">
<svg xmlns:xlink="http://www.w3.org/1999/xlink" width="872.39952pt" height="296.39952pt" viewBox="0 0 872.39952 296.39952" xmlns="http://www.w3.org/2000/svg" version="1.1">
 <metadata>
  <rdf:RDF xmlns:dc="http://purl.org/dc/elements/1.1/" xmlns:cc="http://creativecommons.org/ns#" xmlns:rdf="http://www.w3.org/1999/02/22-rdf-syntax-ns#">
   <cc:Work>
    <dc:type rdf:resource="http://purl.org/dc/dcmitype/StillImage"/>
    <dc:date>2025-10-02T14:00:51.569029</dc:date>
    <dc:format>image/svg+xml</dc:format>
    <dc:creator>
     <cc:Agent>
      <dc:title>Matplotlib v3.10.1, https://matplotlib.org/</dc:title>
     </cc:Agent>
    </dc:creator>
   </cc:Work>
  </rdf:RDF>
 </metadata>
 <defs>
  <style type="text/css">*{stroke-linejoin: round; stroke-linecap: butt}</style>
 </defs>
 <g id="figure_1">
  <g id="patch_1">
   <path d="M 0 296.39952 
L 872.39952 296.39952 
L 872.39952 0 
L 0 0 
z
" style="fill: #ffffff"/>
  </g>
  <g id="axes_1">
   <g id="patch_2">
    <path d="M 53.328125 257.158895 
L 431.87976 257.158895 
L 431.87976 7.2 
L 53.328125 7.2 
z
" style="fill: #ffffff"/>
   </g>
   <g id="matplotlib.axis_1">
    <g id="xtick_1">
     <g id="line2d_1">
      <defs>
       <path id="me0fc097948" d="M 0 0 
L 0 3.5 
" style="stroke: #000000; stroke-width: 0.8"/>
      </defs>
      <g>
       <use xlink:href="#me0fc097948" x="109.408562" y="257.158895" style="stroke: #000000; stroke-width: 0.8"/>
      </g>
     </g>
     <g id="text_1">
      <!-- 15000 -->
      <g transform="translate(93.502312 271.757332) scale(0.1 -0.1)">
       <defs>
        <path id="DejaVuSans-31" d="M 794 531 
L 1825 531 
L 1825 4091 
L 703 3866 
L 703 4441 
L 1819 4666 
L 2450 4666 
L 2450 531 
L 3481 531 
L 3481 0 
L 794 0 
L 794 531 
z
" transform="scale(0.015625)"/>
        <path id="DejaVuSans-35" d="M 691 4666 
L 3169 4666 
L 3169 4134 
L 1269 4134 
L 1269 2991 
Q 1406 3038 1543 3061 
Q 1681 3084 1819 3084 
Q 2600 3084 3056 2656 
Q 3513 2228 3513 1497 
Q 3513 744 3044 326 
Q 2575 -91 1722 -91 
Q 1428 -91 1123 -41 
Q 819 9 494 109 
L 494 744 
Q 775 591 1075 516 
Q 1375 441 1709 441 
Q 2250 441 2565 725 
Q 2881 1009 2881 1497 
Q 2881 1984 2565 2268 
Q 2250 2553 1709 2553 
Q 1456 2553 1204 2497 
Q 953 2441 691 2322 
L 691 4666 
z
" transform="scale(0.015625)"/>
        <path id="DejaVuSans-30" d="M 2034 4250 
Q 1547 4250 1301 3770 
Q 1056 3291 1056 2328 
Q 1056 1369 1301 889 
Q 1547 409 2034 409 
Q 2525 409 2770 889 
Q 3016 1369 3016 2328 
Q 3016 3291 2770 3770 
Q 2525 4250 2034 4250 
z
M 2034 4750 
Q 2819 4750 3233 4129 
Q 3647 3509 3647 2328 
Q 3647 1150 3233 529 
Q 2819 -91 2034 -91 
Q 1250 -91 836 529 
Q 422 1150 422 2328 
Q 422 3509 836 4129 
Q 1250 4750 2034 4750 
z
" transform="scale(0.015625)"/>
       </defs>
       <use xlink:href="#DejaVuSans-31"/>
       <use xlink:href="#DejaVuSans-35" transform="translate(63.623047 0)"/>
       <use xlink:href="#DejaVuSans-30" transform="translate(127.246094 0)"/>
       <use xlink:href="#DejaVuSans-30" transform="translate(190.869141 0)"/>
       <use xlink:href="#DejaVuSans-30" transform="translate(254.492188 0)"/>
      </g>
     </g>
    </g>
    <g id="xtick_2">
     <g id="line2d_2">
      <g>
       <use xlink:href="#me0fc097948" x="166.958735" y="257.158895" style="stroke: #000000; stroke-width: 0.8"/>
      </g>
     </g>
     <g id="text_2">
      <!-- 20000 -->
      <g transform="translate(151.052485 271.757332) scale(0.1 -0.1)">
       <defs>
        <path id="DejaVuSans-32" d="M 1228 531 
L 3431 531 
L 3431 0 
L 469 0 
L 469 531 
Q 828 903 1448 1529 
Q 2069 2156 2228 2338 
Q 2531 2678 2651 2914 
Q 2772 3150 2772 3378 
Q 2772 3750 2511 3984 
Q 2250 4219 1831 4219 
Q 1534 4219 1204 4116 
Q 875 4013 500 3803 
L 500 4441 
Q 881 4594 1212 4672 
Q 1544 4750 1819 4750 
Q 2544 4750 2975 4387 
Q 3406 4025 3406 3419 
Q 3406 3131 3298 2873 
Q 3191 2616 2906 2266 
Q 2828 2175 2409 1742 
Q 1991 1309 1228 531 
z
" transform="scale(0.015625)"/>
       </defs>
       <use xlink:href="#DejaVuSans-32"/>
       <use xlink:href="#DejaVuSans-30" transform="translate(63.623047 0)"/>
       <use xlink:href="#DejaVuSans-30" transform="translate(127.246094 0)"/>
       <use xlink:href="#DejaVuSans-30" transform="translate(190.869141 0)"/>
       <use xlink:href="#DejaVuSans-30" transform="translate(254.492188 0)"/>
      </g>
     </g>
    </g>
    <g id="xtick_3">
     <g id="line2d_3">
      <g>
       <use xlink:href="#me0fc097948" x="224.508909" y="257.158895" style="stroke: #000000; stroke-width: 0.8"/>
      </g>
     </g>
     <g id="text_3">
      <!-- 25000 -->
      <g transform="translate(208.602659 271.757332) scale(0.1 -0.1)">
       <use xlink:href="#DejaVuSans-32"/>
       <use xlink:href="#DejaVuSans-35" transform="translate(63.623047 0)"/>
       <use xlink:href="#DejaVuSans-30" transform="translate(127.246094 0)"/>
       <use xlink:href="#DejaVuSans-30" transform="translate(190.869141 0)"/>
       <use xlink:href="#DejaVuSans-30" transform="translate(254.492188 0)"/>
      </g>
     </g>
    </g>
    <g id="xtick_4">
     <g id="line2d_4">
      <g>
       <use xlink:href="#me0fc097948" x="282.059083" y="257.158895" style="stroke: #000000; stroke-width: 0.8"/>
      </g>
     </g>
     <g id="text_4">
      <!-- 30000 -->
      <g transform="translate(266.152833 271.757332) scale(0.1 -0.1)">
       <defs>
        <path id="DejaVuSans-33" d="M 2597 2516 
Q 3050 2419 3304 2112 
Q 3559 1806 3559 1356 
Q 3559 666 3084 287 
Q 2609 -91 1734 -91 
Q 1441 -91 1130 -33 
Q 819 25 488 141 
L 488 750 
Q 750 597 1062 519 
Q 1375 441 1716 441 
Q 2309 441 2620 675 
Q 2931 909 2931 1356 
Q 2931 1769 2642 2001 
Q 2353 2234 1838 2234 
L 1294 2234 
L 1294 2753 
L 1863 2753 
Q 2328 2753 2575 2939 
Q 2822 3125 2822 3475 
Q 2822 3834 2567 4026 
Q 2313 4219 1838 4219 
Q 1578 4219 1281 4162 
Q 984 4106 628 3988 
L 628 4550 
Q 988 4650 1302 4700 
Q 1616 4750 1894 4750 
Q 2613 4750 3031 4423 
Q 3450 4097 3450 3541 
Q 3450 3153 3228 2886 
Q 3006 2619 2597 2516 
z
" transform="scale(0.015625)"/>
       </defs>
       <use xlink:href="#DejaVuSans-33"/>
       <use xlink:href="#DejaVuSans-30" transform="translate(63.623047 0)"/>
       <use xlink:href="#DejaVuSans-30" transform="translate(127.246094 0)"/>
       <use xlink:href="#DejaVuSans-30" transform="translate(190.869141 0)"/>
       <use xlink:href="#DejaVuSans-30" transform="translate(254.492188 0)"/>
      </g>
     </g>
    </g>
    <g id="xtick_5">
     <g id="line2d_5">
      <g>
       <use xlink:href="#me0fc097948" x="339.609257" y="257.158895" style="stroke: #000000; stroke-width: 0.8"/>
      </g>
     </g>
     <g id="text_5">
      <!-- 35000 -->
      <g transform="translate(323.703007 271.757332) scale(0.1 -0.1)">
       <use xlink:href="#DejaVuSans-33"/>
       <use xlink:href="#DejaVuSans-35" transform="translate(63.623047 0)"/>
       <use xlink:href="#DejaVuSans-30" transform="translate(127.246094 0)"/>
       <use xlink:href="#DejaVuSans-30" transform="translate(190.869141 0)"/>
       <use xlink:href="#DejaVuSans-30" transform="translate(254.492188 0)"/>
      </g>
     </g>
    </g>
    <g id="xtick_6">
     <g id="line2d_6">
      <g>
       <use xlink:href="#me0fc097948" x="397.159431" y="257.158895" style="stroke: #000000; stroke-width: 0.8"/>
      </g>
     </g>
     <g id="text_6">
      <!-- 40000 -->
      <g transform="translate(381.253181 271.757332) scale(0.1 -0.1)">
       <defs>
        <path id="DejaVuSans-34" d="M 2419 4116 
L 825 1625 
L 2419 1625 
L 2419 4116 
z
M 2253 4666 
L 3047 4666 
L 3047 1625 
L 3713 1625 
L 3713 1100 
L 3047 1100 
L 3047 0 
L 2419 0 
L 2419 1100 
L 313 1100 
L 313 1709 
L 2253 4666 
z
" transform="scale(0.015625)"/>
       </defs>
       <use xlink:href="#DejaVuSans-34"/>
       <use xlink:href="#DejaVuSans-30" transform="translate(63.623047 0)"/>
       <use xlink:href="#DejaVuSans-30" transform="translate(127.246094 0)"/>
       <use xlink:href="#DejaVuSans-30" transform="translate(190.869141 0)"/>
       <use xlink:href="#DejaVuSans-30" transform="translate(254.492188 0)"/>
      </g>
     </g>
    </g>
    <g id="text_7">
     <!-- toa [µs] -->
     <g transform="translate(223.243786 285.435457) scale(0.1 -0.1)">
      <defs>
       <path id="DejaVuSans-74" d="M 1172 4494 
L 1172 3500 
L 2356 3500 
L 2356 3053 
L 1172 3053 
L 1172 1153 
Q 1172 725 1289 603 
Q 1406 481 1766 481 
L 2356 481 
L 2356 0 
L 1766 0 
Q 1100 0 847 248 
Q 594 497 594 1153 
L 594 3053 
L 172 3053 
L 172 3500 
L 594 3500 
L 594 4494 
L 1172 4494 
z
" transform="scale(0.015625)"/>
       <path id="DejaVuSans-6f" d="M 1959 3097 
Q 1497 3097 1228 2736 
Q 959 2375 959 1747 
Q 959 1119 1226 758 
Q 1494 397 1959 397 
Q 2419 397 2687 759 
Q 2956 1122 2956 1747 
Q 2956 2369 2687 2733 
Q 2419 3097 1959 3097 
z
M 1959 3584 
Q 2709 3584 3137 3096 
Q 3566 2609 3566 1747 
Q 3566 888 3137 398 
Q 2709 -91 1959 -91 
Q 1206 -91 779 398 
Q 353 888 353 1747 
Q 353 2609 779 3096 
Q 1206 3584 1959 3584 
z
" transform="scale(0.015625)"/>
       <path id="DejaVuSans-61" d="M 2194 1759 
Q 1497 1759 1228 1600 
Q 959 1441 959 1056 
Q 959 750 1161 570 
Q 1363 391 1709 391 
Q 2188 391 2477 730 
Q 2766 1069 2766 1631 
L 2766 1759 
L 2194 1759 
z
M 3341 1997 
L 3341 0 
L 2766 0 
L 2766 531 
Q 2569 213 2275 61 
Q 1981 -91 1556 -91 
Q 1019 -91 701 211 
Q 384 513 384 1019 
Q 384 1609 779 1909 
Q 1175 2209 1959 2209 
L 2766 2209 
L 2766 2266 
Q 2766 2663 2505 2880 
Q 2244 3097 1772 3097 
Q 1472 3097 1187 3025 
Q 903 2953 641 2809 
L 641 3341 
Q 956 3463 1253 3523 
Q 1550 3584 1831 3584 
Q 2591 3584 2966 3190 
Q 3341 2797 3341 1997 
z
" transform="scale(0.015625)"/>
       <path id="DejaVuSans-20" transform="scale(0.015625)"/>
       <path id="DejaVuSans-5b" d="M 550 4863 
L 1875 4863 
L 1875 4416 
L 1125 4416 
L 1125 -397 
L 1875 -397 
L 1875 -844 
L 550 -844 
L 550 4863 
z
" transform="scale(0.015625)"/>
       <path id="DejaVuSans-b5" d="M 544 -1331 
L 544 3500 
L 1119 3500 
L 1119 1325 
Q 1119 872 1334 640 
Q 1550 409 1972 409 
Q 2434 409 2667 671 
Q 2900 934 2900 1459 
L 2900 3500 
L 3475 3500 
L 3475 806 
Q 3475 619 3529 530 
Q 3584 441 3700 441 
Q 3728 441 3778 458 
Q 3828 475 3916 513 
L 3916 50 
Q 3788 -22 3673 -56 
Q 3559 -91 3450 -91 
Q 3234 -91 3106 31 
Q 2978 153 2931 403 
Q 2775 156 2548 32 
Q 2322 -91 2016 -91 
Q 1697 -91 1473 31 
Q 1250 153 1119 397 
L 1119 -1331 
L 544 -1331 
z
" transform="scale(0.015625)"/>
       <path id="DejaVuSans-73" d="M 2834 3397 
L 2834 2853 
Q 2591 2978 2328 3040 
Q 2066 3103 1784 3103 
Q 1356 3103 1142 2972 
Q 928 2841 928 2578 
Q 928 2378 1081 2264 
Q 1234 2150 1697 2047 
L 1894 2003 
Q 2506 1872 2764 1633 
Q 3022 1394 3022 966 
Q 3022 478 2636 193 
Q 2250 -91 1575 -91 
Q 1294 -91 989 -36 
Q 684 19 347 128 
L 347 722 
Q 666 556 975 473 
Q 1284 391 1588 391 
Q 1994 391 2212 530 
Q 2431 669 2431 922 
Q 2431 1156 2273 1281 
Q 2116 1406 1581 1522 
L 1381 1569 
Q 847 1681 609 1914 
Q 372 2147 372 2553 
Q 372 3047 722 3315 
Q 1072 3584 1716 3584 
Q 2034 3584 2315 3537 
Q 2597 3491 2834 3397 
z
" transform="scale(0.015625)"/>
       <path id="DejaVuSans-5d" d="M 1947 4863 
L 1947 -844 
L 622 -844 
L 622 -397 
L 1369 -397 
L 1369 4416 
L 622 4416 
L 622 4863 
L 1947 4863 
z
" transform="scale(0.015625)"/>
      </defs>
      <use xlink:href="#DejaVuSans-74"/>
      <use xlink:href="#DejaVuSans-6f" transform="translate(39.208984 0)"/>
      <use xlink:href="#DejaVuSans-61" transform="translate(100.390625 0)"/>
      <use xlink:href="#DejaVuSans-20" transform="translate(161.669922 0)"/>
      <use xlink:href="#DejaVuSans-5b" transform="translate(193.457031 0)"/>
      <use xlink:href="#DejaVuSans-b5" transform="translate(232.470703 0)"/>
      <use xlink:href="#DejaVuSans-73" transform="translate(296.09375 0)"/>
      <use xlink:href="#DejaVuSans-5d" transform="translate(348.193359 0)"/>
     </g>
    </g>
   </g>
   <g id="matplotlib.axis_2">
    <g id="ytick_1">
     <g id="line2d_7">
      <defs>
       <path id="m6272c3fd01" d="M 0 0 
L -3.5 0 
" style="stroke: #000000; stroke-width: 0.8"/>
      </defs>
      <g>
       <use xlink:href="#m6272c3fd01" x="53.328125" y="245.797127" style="stroke: #000000; stroke-width: 0.8"/>
      </g>
     </g>
     <g id="text_8">
      <!-- 0 -->
      <g transform="translate(39.965625 249.596346) scale(0.1 -0.1)">
       <use xlink:href="#DejaVuSans-30"/>
      </g>
     </g>
    </g>
    <g id="ytick_2">
     <g id="line2d_8">
      <g>
       <use xlink:href="#m6272c3fd01" x="53.328125" y="215.787175" style="stroke: #000000; stroke-width: 0.8"/>
      </g>
     </g>
     <g id="text_9">
      <!-- 500 -->
      <g transform="translate(27.240625 219.586393) scale(0.1 -0.1)">
       <use xlink:href="#DejaVuSans-35"/>
       <use xlink:href="#DejaVuSans-30" transform="translate(63.623047 0)"/>
       <use xlink:href="#DejaVuSans-30" transform="translate(127.246094 0)"/>
      </g>
     </g>
    </g>
    <g id="ytick_3">
     <g id="line2d_9">
      <g>
       <use xlink:href="#m6272c3fd01" x="53.328125" y="185.777222" style="stroke: #000000; stroke-width: 0.8"/>
      </g>
     </g>
     <g id="text_10">
      <!-- 1000 -->
      <g transform="translate(20.878125 189.576441) scale(0.1 -0.1)">
       <use xlink:href="#DejaVuSans-31"/>
       <use xlink:href="#DejaVuSans-30" transform="translate(63.623047 0)"/>
       <use xlink:href="#DejaVuSans-30" transform="translate(127.246094 0)"/>
       <use xlink:href="#DejaVuSans-30" transform="translate(190.869141 0)"/>
      </g>
     </g>
    </g>
    <g id="ytick_4">
     <g id="line2d_10">
      <g>
       <use xlink:href="#m6272c3fd01" x="53.328125" y="155.76727" style="stroke: #000000; stroke-width: 0.8"/>
      </g>
     </g>
     <g id="text_11">
      <!-- 1500 -->
      <g transform="translate(20.878125 159.566489) scale(0.1 -0.1)">
       <use xlink:href="#DejaVuSans-31"/>
       <use xlink:href="#DejaVuSans-35" transform="translate(63.623047 0)"/>
       <use xlink:href="#DejaVuSans-30" transform="translate(127.246094 0)"/>
       <use xlink:href="#DejaVuSans-30" transform="translate(190.869141 0)"/>
      </g>
     </g>
    </g>
    <g id="ytick_5">
     <g id="line2d_11">
      <g>
       <use xlink:href="#m6272c3fd01" x="53.328125" y="125.757318" style="stroke: #000000; stroke-width: 0.8"/>
      </g>
     </g>
     <g id="text_12">
      <!-- 2000 -->
      <g transform="translate(20.878125 129.556536) scale(0.1 -0.1)">
       <use xlink:href="#DejaVuSans-32"/>
       <use xlink:href="#DejaVuSans-30" transform="translate(63.623047 0)"/>
       <use xlink:href="#DejaVuSans-30" transform="translate(127.246094 0)"/>
       <use xlink:href="#DejaVuSans-30" transform="translate(190.869141 0)"/>
      </g>
     </g>
    </g>
    <g id="ytick_6">
     <g id="line2d_12">
      <g>
       <use xlink:href="#m6272c3fd01" x="53.328125" y="95.747365" style="stroke: #000000; stroke-width: 0.8"/>
      </g>
     </g>
     <g id="text_13">
      <!-- 2500 -->
      <g transform="translate(20.878125 99.546584) scale(0.1 -0.1)">
       <use xlink:href="#DejaVuSans-32"/>
       <use xlink:href="#DejaVuSans-35" transform="translate(63.623047 0)"/>
       <use xlink:href="#DejaVuSans-30" transform="translate(127.246094 0)"/>
       <use xlink:href="#DejaVuSans-30" transform="translate(190.869141 0)"/>
      </g>
     </g>
    </g>
    <g id="ytick_7">
     <g id="line2d_13">
      <g>
       <use xlink:href="#m6272c3fd01" x="53.328125" y="65.737413" style="stroke: #000000; stroke-width: 0.8"/>
      </g>
     </g>
     <g id="text_14">
      <!-- 3000 -->
      <g transform="translate(20.878125 69.536632) scale(0.1 -0.1)">
       <use xlink:href="#DejaVuSans-33"/>
       <use xlink:href="#DejaVuSans-30" transform="translate(63.623047 0)"/>
       <use xlink:href="#DejaVuSans-30" transform="translate(127.246094 0)"/>
       <use xlink:href="#DejaVuSans-30" transform="translate(190.869141 0)"/>
      </g>
     </g>
    </g>
    <g id="ytick_8">
     <g id="line2d_14">
      <g>
       <use xlink:href="#m6272c3fd01" x="53.328125" y="35.727461" style="stroke: #000000; stroke-width: 0.8"/>
      </g>
     </g>
     <g id="text_15">
      <!-- 3500 -->
      <g transform="translate(20.878125 39.526679) scale(0.1 -0.1)">
       <use xlink:href="#DejaVuSans-33"/>
       <use xlink:href="#DejaVuSans-35" transform="translate(63.623047 0)"/>
       <use xlink:href="#DejaVuSans-30" transform="translate(127.246094 0)"/>
       <use xlink:href="#DejaVuSans-30" transform="translate(190.869141 0)"/>
      </g>
     </g>
    </g>
    <g id="text_16">
     <!-- pulse:0 [counts] -->
     <g transform="translate(14.798438 172.659916) rotate(-90) scale(0.1 -0.1)">
      <defs>
       <path id="DejaVuSans-70" d="M 1159 525 
L 1159 -1331 
L 581 -1331 
L 581 3500 
L 1159 3500 
L 1159 2969 
Q 1341 3281 1617 3432 
Q 1894 3584 2278 3584 
Q 2916 3584 3314 3078 
Q 3713 2572 3713 1747 
Q 3713 922 3314 415 
Q 2916 -91 2278 -91 
Q 1894 -91 1617 61 
Q 1341 213 1159 525 
z
M 3116 1747 
Q 3116 2381 2855 2742 
Q 2594 3103 2138 3103 
Q 1681 3103 1420 2742 
Q 1159 2381 1159 1747 
Q 1159 1113 1420 752 
Q 1681 391 2138 391 
Q 2594 391 2855 752 
Q 3116 1113 3116 1747 
z
" transform="scale(0.015625)"/>
       <path id="DejaVuSans-75" d="M 544 1381 
L 544 3500 
L 1119 3500 
L 1119 1403 
Q 1119 906 1312 657 
Q 1506 409 1894 409 
Q 2359 409 2629 706 
Q 2900 1003 2900 1516 
L 2900 3500 
L 3475 3500 
L 3475 0 
L 2900 0 
L 2900 538 
Q 2691 219 2414 64 
Q 2138 -91 1772 -91 
Q 1169 -91 856 284 
Q 544 659 544 1381 
z
M 1991 3584 
L 1991 3584 
z
" transform="scale(0.015625)"/>
       <path id="DejaVuSans-6c" d="M 603 4863 
L 1178 4863 
L 1178 0 
L 603 0 
L 603 4863 
z
" transform="scale(0.015625)"/>
       <path id="DejaVuSans-65" d="M 3597 1894 
L 3597 1613 
L 953 1613 
Q 991 1019 1311 708 
Q 1631 397 2203 397 
Q 2534 397 2845 478 
Q 3156 559 3463 722 
L 3463 178 
Q 3153 47 2828 -22 
Q 2503 -91 2169 -91 
Q 1331 -91 842 396 
Q 353 884 353 1716 
Q 353 2575 817 3079 
Q 1281 3584 2069 3584 
Q 2775 3584 3186 3129 
Q 3597 2675 3597 1894 
z
M 3022 2063 
Q 3016 2534 2758 2815 
Q 2500 3097 2075 3097 
Q 1594 3097 1305 2825 
Q 1016 2553 972 2059 
L 3022 2063 
z
" transform="scale(0.015625)"/>
       <path id="DejaVuSans-3a" d="M 750 794 
L 1409 794 
L 1409 0 
L 750 0 
L 750 794 
z
M 750 3309 
L 1409 3309 
L 1409 2516 
L 750 2516 
L 750 3309 
z
" transform="scale(0.015625)"/>
       <path id="DejaVuSans-63" d="M 3122 3366 
L 3122 2828 
Q 2878 2963 2633 3030 
Q 2388 3097 2138 3097 
Q 1578 3097 1268 2742 
Q 959 2388 959 1747 
Q 959 1106 1268 751 
Q 1578 397 2138 397 
Q 2388 397 2633 464 
Q 2878 531 3122 666 
L 3122 134 
Q 2881 22 2623 -34 
Q 2366 -91 2075 -91 
Q 1284 -91 818 406 
Q 353 903 353 1747 
Q 353 2603 823 3093 
Q 1294 3584 2113 3584 
Q 2378 3584 2631 3529 
Q 2884 3475 3122 3366 
z
" transform="scale(0.015625)"/>
       <path id="DejaVuSans-6e" d="M 3513 2113 
L 3513 0 
L 2938 0 
L 2938 2094 
Q 2938 2591 2744 2837 
Q 2550 3084 2163 3084 
Q 1697 3084 1428 2787 
Q 1159 2491 1159 1978 
L 1159 0 
L 581 0 
L 581 3500 
L 1159 3500 
L 1159 2956 
Q 1366 3272 1645 3428 
Q 1925 3584 2291 3584 
Q 2894 3584 3203 3211 
Q 3513 2838 3513 2113 
z
" transform="scale(0.015625)"/>
      </defs>
      <use xlink:href="#DejaVuSans-70"/>
      <use xlink:href="#DejaVuSans-75" transform="translate(63.476562 0)"/>
      <use xlink:href="#DejaVuSans-6c" transform="translate(126.855469 0)"/>
      <use xlink:href="#DejaVuSans-73" transform="translate(154.638672 0)"/>
      <use xlink:href="#DejaVuSans-65" transform="translate(206.738281 0)"/>
      <use xlink:href="#DejaVuSans-3a" transform="translate(268.261719 0)"/>
      <use xlink:href="#DejaVuSans-30" transform="translate(301.953125 0)"/>
      <use xlink:href="#DejaVuSans-20" transform="translate(365.576172 0)"/>
      <use xlink:href="#DejaVuSans-5b" transform="translate(397.363281 0)"/>
      <use xlink:href="#DejaVuSans-63" transform="translate(436.376953 0)"/>
      <use xlink:href="#DejaVuSans-6f" transform="translate(491.357422 0)"/>
      <use xlink:href="#DejaVuSans-75" transform="translate(552.539062 0)"/>
      <use xlink:href="#DejaVuSans-6e" transform="translate(615.917969 0)"/>
      <use xlink:href="#DejaVuSans-74" transform="translate(679.296875 0)"/>
      <use xlink:href="#DejaVuSans-73" transform="translate(718.505859 0)"/>
      <use xlink:href="#DejaVuSans-5d" transform="translate(770.605469 0)"/>
     </g>
    </g>
   </g>
   <g id="line2d_15">
    <path d="M 70.535017 245.677087 
L 72.82927 245.617067 
L 72.82927 245.557047 
L 73.976396 245.557047 
L 73.976396 245.076888 
L 75.123522 245.076888 
L 75.123522 245.196928 
L 76.270648 245.196928 
L 76.270648 244.836809 
L 77.417774 244.836809 
L 77.417774 244.11657 
L 78.564901 244.11657 
L 78.564901 243.216271 
L 79.712027 243.216271 
L 79.712027 242.015873 
L 80.859153 242.015873 
L 80.859153 239.855156 
L 82.006279 239.855156 
L 82.006279 237.81448 
L 83.153405 237.81448 
L 83.153405 231.932529 
L 84.300531 231.932529 
L 84.300531 225.27032 
L 85.447658 225.27032 
L 85.447658 216.207314 
L 86.594784 216.207314 
L 86.594784 205.763851 
L 87.74191 205.763851 
L 87.74191 187.697859 
L 88.889036 187.697859 
L 88.889036 169.691888 
L 90.036162 169.691888 
L 90.036162 154.326792 
L 91.183288 154.326792 
L 91.183288 141.782632 
L 92.330415 141.782632 
L 92.330415 127.377855 
L 93.477541 127.377855 
L 93.477541 117.95473 
L 94.624667 117.95473 
L 94.624667 107.271187 
L 95.771793 107.271187 
L 95.771793 96.647664 
L 96.918919 96.647664 
L 96.918919 82.663026 
L 98.066045 82.663026 
L 98.066045 81.282568 
L 99.213172 81.282568 
L 99.213172 70.599025 
L 100.360298 70.599025 
L 100.360298 61.896139 
L 101.507424 61.896139 
L 101.507424 56.194248 
L 102.65455 56.194248 
L 102.65455 52.352974 
L 103.801676 52.352974 
L 103.801676 39.748794 
L 104.948802 39.748794 
L 104.948802 41.489372 
L 106.095929 41.489372 
L 106.095929 35.667441 
L 107.243055 35.667441 
L 107.243055 30.02557 
L 108.390181 30.02557 
L 108.390181 34.046903 
L 109.537307 34.046903 
L 109.537307 32.606426 
L 110.684433 32.606426 
L 110.684433 28.825172 
L 111.831559 28.825172 
L 111.831559 23.66346 
L 112.978686 23.66346 
L 112.978686 18.561768 
L 114.125812 18.561768 
L 114.125812 28.405032 
L 115.272938 28.405032 
L 115.272938 26.484395 
L 116.420064 26.484395 
L 116.420064 30.445709 
L 117.56719 30.445709 
L 117.56719 40.288973 
L 118.714316 40.288973 
L 118.714316 40.949192 
L 119.861443 40.949192 
L 119.861443 39.148595 
L 121.008569 39.148595 
L 121.008569 47.731442 
L 122.155695 47.731442 
L 122.155695 59.195243 
L 123.302821 59.195243 
L 123.302821 59.495343 
L 124.449947 59.495343 
L 124.449947 67.65805 
L 125.597073 67.65805 
L 125.597073 62.676398 
L 126.7442 62.676398 
L 126.7442 71.259244 
L 127.891326 71.259244 
L 127.891326 73.299921 
L 129.038452 73.299921 
L 129.038452 72.879782 
L 130.185578 72.879782 
L 130.185578 74.560339 
L 131.332704 74.560339 
L 131.332704 83.863424 
L 132.47983 83.863424 
L 132.47983 81.462628 
L 133.626957 81.462628 
L 133.626957 91.425932 
L 134.774083 91.425932 
L 134.774083 93.586649 
L 135.921209 93.586649 
L 135.921209 95.087146 
L 137.068335 95.087146 
L 137.068335 97.908082 
L 138.215461 97.908082 
L 138.215461 100.548958 
L 139.362587 100.548958 
L 139.362587 105.890729 
L 141.65684 105.830709 
L 141.65684 109.972083 
L 142.803966 109.972083 
L 142.803966 109.011764 
L 143.951092 109.011764 
L 143.951092 116.094113 
L 145.098218 116.094113 
L 145.098218 125.577258 
L 146.245344 125.577258 
L 146.245344 132.299487 
L 147.392471 132.299487 
L 147.392471 137.461199 
L 148.539597 137.461199 
L 148.539597 144.423508 
L 149.686723 144.423508 
L 149.686723 159.548524 
L 150.833849 159.548524 
L 150.833849 163.209738 
L 151.980975 163.209738 
L 151.980975 172.932963 
L 153.128101 172.932963 
L 153.128101 174.73356 
L 154.275228 174.73356 
L 154.275228 177.974635 
L 155.422354 177.974635 
L 155.422354 185.056984 
L 156.56948 185.056984 
L 156.56948 189.378417 
L 157.716606 189.378417 
L 157.716606 194.480109 
L 158.863732 194.480109 
L 158.863732 201.142318 
L 160.010858 201.142318 
L 160.010858 209.725164 
L 161.157985 209.725164 
L 161.157985 211.465742 
L 162.305111 211.465742 
L 162.305111 218.54809 
L 163.452237 218.54809 
L 163.452237 219.508409 
L 164.599363 219.508409 
L 164.599363 222.269324 
L 165.746489 222.269324 
L 165.746489 226.950877 
L 166.893615 226.950877 
L 166.893615 228.871514 
L 168.040742 228.871514 
L 168.040742 233.433027 
L 169.187868 233.433027 
L 169.187868 236.374002 
L 170.334994 236.374002 
L 170.334994 240.035216 
L 172.629246 240.035216 
L 172.629246 243.396331 
L 173.776372 243.396331 
L 173.776372 244.596729 
L 174.923499 244.596729 
L 174.923499 245.617067 
L 176.070625 245.617067 
L 176.070625 245.797127 
L 189.836139 245.797127 
L 189.836139 245.677087 
L 192.130391 245.617067 
L 192.130391 245.797127 
L 194.424643 245.737107 
L 194.424643 245.497028 
L 195.57177 245.497028 
L 195.57177 245.617067 
L 197.866022 245.617067 
L 197.866022 245.497028 
L 199.013148 245.497028 
L 199.013148 245.376988 
L 200.160274 245.376988 
L 200.160274 245.136908 
L 201.3074 245.136908 
L 201.3074 244.476689 
L 203.601653 244.416669 
L 203.601653 242.616072 
L 204.748779 242.616072 
L 204.748779 242.135913 
L 205.895905 242.135913 
L 205.895905 241.475694 
L 207.043031 241.475694 
L 207.043031 239.374997 
L 208.190157 239.374997 
L 208.190157 237.994539 
L 209.337284 237.994539 
L 209.337284 234.093246 
L 210.48441 234.093246 
L 210.48441 233.312987 
L 211.631536 233.312987 
L 211.631536 231.09225 
L 212.778662 231.09225 
L 212.778662 229.171613 
L 213.925788 229.171613 
L 213.925788 226.530738 
L 215.072914 226.530738 
L 215.072914 224.79016 
L 216.220041 224.79016 
L 216.220041 226.530738 
L 217.367167 226.530738 
L 217.367167 223.109603 
L 218.514293 223.109603 
L 218.514293 223.289663 
L 219.661419 223.289663 
L 219.661419 220.108608 
L 220.808545 220.108608 
L 220.808545 219.448389 
L 221.955671 219.448389 
L 221.955671 219.208309 
L 223.102798 219.208309 
L 223.102798 216.147294 
L 224.249924 216.147294 
L 224.249924 217.347692 
L 225.39705 217.347692 
L 225.39705 215.907215 
L 226.544176 215.907215 
L 226.544176 214.826856 
L 227.691302 214.826856 
L 227.691302 216.687473 
L 228.838428 216.687473 
L 228.838428 214.286677 
L 229.985555 214.286677 
L 229.985555 213.806518 
L 231.132681 213.806518 
L 231.132681 212.906219 
L 232.279807 212.906219 
L 232.279807 210.265343 
L 233.426933 210.265343 
L 233.426933 211.525761 
L 234.574059 211.525761 
L 234.574059 211.405722 
L 235.721185 211.405722 
L 235.721185 212.66614 
L 236.868312 212.66614 
L 236.868312 211.045602 
L 238.015438 211.045602 
L 238.015438 213.866538 
L 239.162564 213.866538 
L 239.162564 213.386379 
L 240.30969 213.386379 
L 240.30969 214.166637 
L 241.456816 214.166637 
L 241.456816 214.766836 
L 243.751069 214.766836 
L 243.751069 217.407712 
L 244.898195 217.407712 
L 244.898195 213.866538 
L 246.045321 213.866538 
L 246.045321 217.407712 
L 247.192447 217.407712 
L 247.192447 215.246996 
L 248.339573 215.246996 
L 248.339573 217.167633 
L 249.486699 217.167633 
L 249.486699 217.887871 
L 250.633826 217.887871 
L 250.633826 218.127951 
L 251.780952 218.127951 
L 251.780952 219.088269 
L 252.928078 219.088269 
L 252.928078 218.72815 
L 254.075204 218.72815 
L 254.075204 218.187971 
L 255.22233 218.187971 
L 255.22233 221.789165 
L 256.369456 221.789165 
L 256.369456 220.768827 
L 257.516583 220.768827 
L 257.516583 220.588767 
L 258.663709 220.588767 
L 258.663709 222.329344 
L 259.810835 222.329344 
L 259.810835 220.468727 
L 260.957961 220.468727 
L 260.957961 221.188966 
L 262.105087 221.188966 
L 262.105087 221.969225 
L 263.252213 221.969225 
L 263.252213 222.749484 
L 264.39934 222.749484 
L 264.39934 221.128946 
L 265.546466 221.128946 
L 265.546466 222.869523 
L 266.693592 222.869523 
L 266.693592 225.2103 
L 268.987844 225.15028 
L 268.987844 224.79016 
L 270.13497 224.79016 
L 270.13497 224.97022 
L 271.282097 224.97022 
L 271.282097 224.79016 
L 272.429223 224.79016 
L 272.429223 226.350678 
L 273.576349 226.350678 
L 273.576349 225.570419 
L 274.723475 225.570419 
L 274.723475 225.750479 
L 275.870601 225.750479 
L 275.870601 224.730141 
L 277.017727 224.730141 
L 277.017727 227.250977 
L 278.164854 227.250977 
L 278.164854 224.370021 
L 279.31198 224.370021 
L 279.31198 226.830837 
L 281.606232 226.770817 
L 281.606232 226.230638 
L 282.753358 226.230638 
L 282.753358 226.830837 
L 283.900484 226.830837 
L 283.900484 228.091255 
L 285.047611 228.091255 
L 285.047611 226.230638 
L 286.194737 226.230638 
L 286.194737 228.931534 
L 287.341863 228.931534 
L 287.341863 229.651773 
L 288.488989 229.651773 
L 288.488989 229.951872 
L 289.636115 229.951872 
L 289.636115 228.811494 
L 290.783241 228.811494 
L 290.783241 229.231633 
L 293.077494 229.291653 
L 293.077494 229.591753 
L 294.22462 229.591753 
L 294.22462 228.391355 
L 295.371746 228.391355 
L 295.371746 230.251972 
L 296.518872 230.251972 
L 296.518872 229.591753 
L 297.665998 229.591753 
L 297.665998 230.131932 
L 298.813125 230.131932 
L 298.813125 229.411693 
L 299.960251 229.411693 
L 299.960251 230.071912 
L 301.107377 230.071912 
L 301.107377 231.51239 
L 304.548755 231.51239 
L 304.548755 230.071912 
L 305.695882 230.071912 
L 305.695882 231.21229 
L 306.843008 231.21229 
L 306.843008 232.892848 
L 307.990134 232.892848 
L 307.990134 231.57241 
L 309.13726 231.57241 
L 309.13726 231.992549 
L 310.284386 231.992549 
L 310.284386 232.772808 
L 311.431512 232.772808 
L 311.431512 232.352668 
L 312.578639 232.352668 
L 312.578639 231.33233 
L 313.725765 231.33233 
L 313.725765 234.513385 
L 314.872891 234.513385 
L 314.872891 232.892848 
L 316.020017 232.892848 
L 316.020017 233.252967 
L 317.167143 233.252967 
L 317.167143 232.832828 
L 318.314269 232.832828 
L 318.314269 232.232629 
L 319.461396 232.232629 
L 319.461396 233.373007 
L 320.608522 233.373007 
L 320.608522 232.532728 
L 321.755648 232.532728 
L 321.755648 234.633425 
L 322.902774 234.633425 
L 322.902774 233.913186 
L 324.0499 233.913186 
L 324.0499 233.733126 
L 325.197026 233.733126 
L 325.197026 234.153266 
L 326.344153 234.153266 
L 326.344153 233.613086 
L 327.491279 233.613086 
L 327.491279 234.873504 
L 328.638405 234.873504 
L 328.638405 234.153266 
L 329.785531 234.153266 
L 329.785531 235.173604 
L 330.932657 235.173604 
L 330.932657 235.053564 
L 332.079783 235.053564 
L 332.079783 236.193942 
L 333.22691 236.193942 
L 333.22691 234.513385 
L 334.374036 234.513385 
L 334.374036 234.933524 
L 336.668288 234.993544 
L 336.668288 237.63442 
L 337.815414 237.63442 
L 337.815414 236.854161 
L 338.96254 236.854161 
L 338.96254 233.553066 
L 340.109667 233.553066 
L 340.109667 236.253962 
L 341.256793 236.253962 
L 341.256793 237.214281 
L 342.403919 237.214281 
L 342.403919 235.713783 
L 343.551045 235.713783 
L 343.551045 235.593743 
L 344.698171 235.593743 
L 344.698171 236.434022 
L 345.845297 236.434022 
L 345.845297 237.45436 
L 346.992424 237.45436 
L 346.992424 236.914181 
L 349.286676 236.854161 
L 349.286676 236.674102 
L 350.433802 236.674102 
L 350.433802 237.93452 
L 351.580928 237.93452 
L 351.580928 236.554062 
L 352.728054 236.554062 
L 352.728054 237.33432 
L 353.875181 237.33432 
L 353.875181 236.794141 
L 355.022307 236.794141 
L 355.022307 237.5744 
L 356.169433 237.5744 
L 356.169433 237.93452 
L 357.316559 237.93452 
L 357.316559 238.354659 
L 358.463685 238.354659 
L 358.463685 237.5744 
L 359.610811 237.5744 
L 359.610811 237.274301 
L 360.757938 237.274301 
L 360.757938 238.294639 
L 361.905064 238.294639 
L 361.905064 237.75446 
L 363.05219 237.75446 
L 363.05219 238.114579 
L 364.199316 238.114579 
L 364.199316 237.094241 
L 365.346442 237.094241 
L 365.346442 238.114579 
L 366.493568 238.114579 
L 366.493568 239.134918 
L 367.640695 239.134918 
L 367.640695 238.534719 
L 368.787821 238.534719 
L 368.787821 237.214281 
L 369.934947 237.214281 
L 369.934947 238.894838 
L 371.082073 238.894838 
L 371.082073 238.114579 
L 372.229199 238.114579 
L 372.229199 238.534719 
L 373.376325 238.534719 
L 373.376325 238.834818 
L 374.523452 238.834818 
L 374.523452 239.795137 
L 375.670578 239.795137 
L 375.670578 238.054559 
L 376.817704 238.054559 
L 376.817704 237.45436 
L 377.96483 237.45436 
L 377.96483 239.915176 
L 379.111956 239.915176 
L 379.111956 238.894838 
L 380.259082 238.894838 
L 380.259082 238.654758 
L 381.406209 238.654758 
L 381.406209 238.534719 
L 382.553335 238.534719 
L 382.553335 239.975196 
L 383.700461 239.975196 
L 383.700461 240.575395 
L 384.847587 240.575395 
L 384.847587 240.815475 
L 385.994713 240.815475 
L 385.994713 239.975196 
L 387.141839 239.975196 
L 387.141839 239.074898 
L 388.288966 239.074898 
L 388.288966 240.815475 
L 389.436092 240.815475 
L 389.436092 242.496032 
L 390.583218 242.496032 
L 390.583218 241.715774 
L 391.730344 241.715774 
L 391.730344 241.835813 
L 394.024596 241.895833 
L 394.024596 242.616072 
L 395.171723 242.616072 
L 395.171723 243.096231 
L 396.318849 243.096231 
L 396.318849 242.736112 
L 397.465975 242.736112 
L 397.465975 243.99653 
L 398.613101 243.99653 
L 398.613101 243.576391 
L 399.760227 243.576391 
L 399.760227 243.396331 
L 400.907353 243.396331 
L 400.907353 243.69643 
L 402.05448 243.69643 
L 402.05448 243.87649 
L 403.201606 243.87649 
L 403.201606 244.356649 
L 404.348732 244.356649 
L 404.348732 243.75645 
L 405.495858 243.75645 
L 405.495858 244.596729 
L 407.79011 244.536709 
L 407.79011 245.016868 
L 408.937237 245.016868 
L 408.937237 245.376988 
L 410.084363 245.376988 
L 410.084363 245.557047 
L 412.378615 245.557047 
L 412.378615 245.797127 
L 413.525741 245.797127 
L 413.525741 245.677087 
L 414.672867 245.677087 
L 414.672867 245.677087 
" clip-path="url(#p9cc6199c8a)" style="fill: none; stroke: #1f77b4; stroke-width: 1.5; stroke-linecap: square"/>
   </g>
   <g id="patch_3">
    <path d="M 53.328125 257.158895 
L 53.328125 7.2 
" style="fill: none; stroke: #000000; stroke-width: 0.8; stroke-linejoin: miter; stroke-linecap: square"/>
   </g>
   <g id="patch_4">
    <path d="M 431.87976 257.158895 
L 431.87976 7.2 
" style="fill: none; stroke: #000000; stroke-width: 0.8; stroke-linejoin: miter; stroke-linecap: square"/>
   </g>
   <g id="patch_5">
    <path d="M 53.328125 257.158895 
L 431.87976 257.158895 
" style="fill: none; stroke: #000000; stroke-width: 0.8; stroke-linejoin: miter; stroke-linecap: square"/>
   </g>
   <g id="patch_6">
    <path d="M 53.328125 7.2 
L 431.87976 7.2 
" style="fill: none; stroke: #000000; stroke-width: 0.8; stroke-linejoin: miter; stroke-linecap: square"/>
   </g>
  </g>
  <g id="axes_2">
   <g id="patch_7">
    <path d="M 486.647885 257.158895 
L 865.19952 257.158895 
L 865.19952 7.2 
L 486.647885 7.2 
z
" style="fill: #ffffff"/>
   </g>
   <g id="matplotlib.axis_3">
    <g id="xtick_7">
     <g id="line2d_16">
      <g>
       <use xlink:href="#me0fc097948" x="510.067549" y="257.158895" style="stroke: #000000; stroke-width: 0.8"/>
      </g>
     </g>
     <g id="text_17">
      <!-- 2 -->
      <g transform="translate(506.886299 271.757332) scale(0.1 -0.1)">
       <use xlink:href="#DejaVuSans-32"/>
      </g>
     </g>
    </g>
    <g id="xtick_8">
     <g id="line2d_17">
      <g>
       <use xlink:href="#me0fc097948" x="585.930313" y="257.158895" style="stroke: #000000; stroke-width: 0.8"/>
      </g>
     </g>
     <g id="text_18">
      <!-- 4 -->
      <g transform="translate(582.749063 271.757332) scale(0.1 -0.1)">
       <use xlink:href="#DejaVuSans-34"/>
      </g>
     </g>
    </g>
    <g id="xtick_9">
     <g id="line2d_18">
      <g>
       <use xlink:href="#me0fc097948" x="661.793077" y="257.158895" style="stroke: #000000; stroke-width: 0.8"/>
      </g>
     </g>
     <g id="text_19">
      <!-- 6 -->
      <g transform="translate(658.611827 271.757332) scale(0.1 -0.1)">
       <defs>
        <path id="DejaVuSans-36" d="M 2113 2584 
Q 1688 2584 1439 2293 
Q 1191 2003 1191 1497 
Q 1191 994 1439 701 
Q 1688 409 2113 409 
Q 2538 409 2786 701 
Q 3034 994 3034 1497 
Q 3034 2003 2786 2293 
Q 2538 2584 2113 2584 
z
M 3366 4563 
L 3366 3988 
Q 3128 4100 2886 4159 
Q 2644 4219 2406 4219 
Q 1781 4219 1451 3797 
Q 1122 3375 1075 2522 
Q 1259 2794 1537 2939 
Q 1816 3084 2150 3084 
Q 2853 3084 3261 2657 
Q 3669 2231 3669 1497 
Q 3669 778 3244 343 
Q 2819 -91 2113 -91 
Q 1303 -91 875 529 
Q 447 1150 447 2328 
Q 447 3434 972 4092 
Q 1497 4750 2381 4750 
Q 2619 4750 2861 4703 
Q 3103 4656 3366 4563 
z
" transform="scale(0.015625)"/>
       </defs>
       <use xlink:href="#DejaVuSans-36"/>
      </g>
     </g>
    </g>
    <g id="xtick_10">
     <g id="line2d_19">
      <g>
       <use xlink:href="#me0fc097948" x="737.655841" y="257.158895" style="stroke: #000000; stroke-width: 0.8"/>
      </g>
     </g>
     <g id="text_20">
      <!-- 8 -->
      <g transform="translate(734.474591 271.757332) scale(0.1 -0.1)">
       <defs>
        <path id="DejaVuSans-38" d="M 2034 2216 
Q 1584 2216 1326 1975 
Q 1069 1734 1069 1313 
Q 1069 891 1326 650 
Q 1584 409 2034 409 
Q 2484 409 2743 651 
Q 3003 894 3003 1313 
Q 3003 1734 2745 1975 
Q 2488 2216 2034 2216 
z
M 1403 2484 
Q 997 2584 770 2862 
Q 544 3141 544 3541 
Q 544 4100 942 4425 
Q 1341 4750 2034 4750 
Q 2731 4750 3128 4425 
Q 3525 4100 3525 3541 
Q 3525 3141 3298 2862 
Q 3072 2584 2669 2484 
Q 3125 2378 3379 2068 
Q 3634 1759 3634 1313 
Q 3634 634 3220 271 
Q 2806 -91 2034 -91 
Q 1263 -91 848 271 
Q 434 634 434 1313 
Q 434 1759 690 2068 
Q 947 2378 1403 2484 
z
M 1172 3481 
Q 1172 3119 1398 2916 
Q 1625 2713 2034 2713 
Q 2441 2713 2670 2916 
Q 2900 3119 2900 3481 
Q 2900 3844 2670 4047 
Q 2441 4250 2034 4250 
Q 1625 4250 1398 4047 
Q 1172 3844 1172 3481 
z
" transform="scale(0.015625)"/>
       </defs>
       <use xlink:href="#DejaVuSans-38"/>
      </g>
     </g>
    </g>
    <g id="xtick_11">
     <g id="line2d_20">
      <g>
       <use xlink:href="#me0fc097948" x="813.518605" y="257.158895" style="stroke: #000000; stroke-width: 0.8"/>
      </g>
     </g>
     <g id="text_21">
      <!-- 10 -->
      <g transform="translate(807.156105 271.757332) scale(0.1 -0.1)">
       <use xlink:href="#DejaVuSans-31"/>
       <use xlink:href="#DejaVuSans-30" transform="translate(63.623047 0)"/>
      </g>
     </g>
    </g>
    <g id="text_22">
     <!-- wavelength [Å] -->
     <g transform="translate(637.886202 287.119832) scale(0.1 -0.1)">
      <defs>
       <path id="DejaVuSans-77" d="M 269 3500 
L 844 3500 
L 1563 769 
L 2278 3500 
L 2956 3500 
L 3675 769 
L 4391 3500 
L 4966 3500 
L 4050 0 
L 3372 0 
L 2619 2869 
L 1863 0 
L 1184 0 
L 269 3500 
z
" transform="scale(0.015625)"/>
       <path id="DejaVuSans-76" d="M 191 3500 
L 800 3500 
L 1894 563 
L 2988 3500 
L 3597 3500 
L 2284 0 
L 1503 0 
L 191 3500 
z
" transform="scale(0.015625)"/>
       <path id="DejaVuSans-67" d="M 2906 1791 
Q 2906 2416 2648 2759 
Q 2391 3103 1925 3103 
Q 1463 3103 1205 2759 
Q 947 2416 947 1791 
Q 947 1169 1205 825 
Q 1463 481 1925 481 
Q 2391 481 2648 825 
Q 2906 1169 2906 1791 
z
M 3481 434 
Q 3481 -459 3084 -895 
Q 2688 -1331 1869 -1331 
Q 1566 -1331 1297 -1286 
Q 1028 -1241 775 -1147 
L 775 -588 
Q 1028 -725 1275 -790 
Q 1522 -856 1778 -856 
Q 2344 -856 2625 -561 
Q 2906 -266 2906 331 
L 2906 616 
Q 2728 306 2450 153 
Q 2172 0 1784 0 
Q 1141 0 747 490 
Q 353 981 353 1791 
Q 353 2603 747 3093 
Q 1141 3584 1784 3584 
Q 2172 3584 2450 3431 
Q 2728 3278 2906 2969 
L 2906 3500 
L 3481 3500 
L 3481 434 
z
" transform="scale(0.015625)"/>
       <path id="DejaVuSans-68" d="M 3513 2113 
L 3513 0 
L 2938 0 
L 2938 2094 
Q 2938 2591 2744 2837 
Q 2550 3084 2163 3084 
Q 1697 3084 1428 2787 
Q 1159 2491 1159 1978 
L 1159 0 
L 581 0 
L 581 4863 
L 1159 4863 
L 1159 2956 
Q 1366 3272 1645 3428 
Q 1925 3584 2291 3584 
Q 2894 3584 3203 3211 
Q 3513 2838 3513 2113 
z
" transform="scale(0.015625)"/>
       <path id="DejaVuSans-c5" d="M 2663 5081 
Q 2663 5278 2523 5417 
Q 2384 5556 2188 5556 
Q 1988 5556 1852 5420 
Q 1716 5284 1716 5081 
Q 1716 4884 1853 4746 
Q 1991 4609 2188 4609 
Q 2384 4609 2523 4746 
Q 2663 4884 2663 5081 
z
M 2188 4044 
L 1338 1722 
L 3041 1722 
L 2188 4044 
z
M 1716 4366 
Q 1525 4494 1428 4673 
Q 1331 4853 1331 5081 
Q 1331 5441 1579 5691 
Q 1828 5941 2188 5941 
Q 2544 5941 2795 5689 
Q 3047 5438 3047 5081 
Q 3047 4863 2948 4678 
Q 2850 4494 2663 4366 
L 4325 0 
L 3669 0 
L 3244 1197 
L 1141 1197 
L 716 0 
L 50 0 
L 1716 4366 
z
" transform="scale(0.015625)"/>
      </defs>
      <use xlink:href="#DejaVuSans-77"/>
      <use xlink:href="#DejaVuSans-61" transform="translate(81.787109 0)"/>
      <use xlink:href="#DejaVuSans-76" transform="translate(143.066406 0)"/>
      <use xlink:href="#DejaVuSans-65" transform="translate(202.246094 0)"/>
      <use xlink:href="#DejaVuSans-6c" transform="translate(263.769531 0)"/>
      <use xlink:href="#DejaVuSans-65" transform="translate(291.552734 0)"/>
      <use xlink:href="#DejaVuSans-6e" transform="translate(353.076172 0)"/>
      <use xlink:href="#DejaVuSans-67" transform="translate(416.455078 0)"/>
      <use xlink:href="#DejaVuSans-74" transform="translate(479.931641 0)"/>
      <use xlink:href="#DejaVuSans-68" transform="translate(519.140625 0)"/>
      <use xlink:href="#DejaVuSans-20" transform="translate(582.519531 0)"/>
      <use xlink:href="#DejaVuSans-5b" transform="translate(614.306641 0)"/>
      <use xlink:href="#DejaVuSans-c5" transform="translate(653.320312 0)"/>
      <use xlink:href="#DejaVuSans-5d" transform="translate(721.728516 0)"/>
     </g>
    </g>
   </g>
   <g id="matplotlib.axis_4">
    <g id="ytick_9">
     <g id="line2d_21">
      <g>
       <use xlink:href="#m6272c3fd01" x="486.647885" y="245.868788" style="stroke: #000000; stroke-width: 0.8"/>
      </g>
     </g>
     <g id="text_23">
      <!-- 0 -->
      <g transform="translate(473.285385 249.668006) scale(0.1 -0.1)">
       <use xlink:href="#DejaVuSans-30"/>
      </g>
     </g>
    </g>
    <g id="ytick_10">
     <g id="line2d_22">
      <g>
       <use xlink:href="#m6272c3fd01" x="486.647885" y="210.038551" style="stroke: #000000; stroke-width: 0.8"/>
      </g>
     </g>
     <g id="text_24">
      <!-- 500 -->
      <g transform="translate(460.560385 213.83777) scale(0.1 -0.1)">
       <use xlink:href="#DejaVuSans-35"/>
       <use xlink:href="#DejaVuSans-30" transform="translate(63.623047 0)"/>
       <use xlink:href="#DejaVuSans-30" transform="translate(127.246094 0)"/>
      </g>
     </g>
    </g>
    <g id="ytick_11">
     <g id="line2d_23">
      <g>
       <use xlink:href="#m6272c3fd01" x="486.647885" y="174.208315" style="stroke: #000000; stroke-width: 0.8"/>
      </g>
     </g>
     <g id="text_25">
      <!-- 1000 -->
      <g transform="translate(454.197885 178.007534) scale(0.1 -0.1)">
       <use xlink:href="#DejaVuSans-31"/>
       <use xlink:href="#DejaVuSans-30" transform="translate(63.623047 0)"/>
       <use xlink:href="#DejaVuSans-30" transform="translate(127.246094 0)"/>
       <use xlink:href="#DejaVuSans-30" transform="translate(190.869141 0)"/>
      </g>
     </g>
    </g>
    <g id="ytick_12">
     <g id="line2d_24">
      <g>
       <use xlink:href="#m6272c3fd01" x="486.647885" y="138.378078" style="stroke: #000000; stroke-width: 0.8"/>
      </g>
     </g>
     <g id="text_26">
      <!-- 1500 -->
      <g transform="translate(454.197885 142.177297) scale(0.1 -0.1)">
       <use xlink:href="#DejaVuSans-31"/>
       <use xlink:href="#DejaVuSans-35" transform="translate(63.623047 0)"/>
       <use xlink:href="#DejaVuSans-30" transform="translate(127.246094 0)"/>
       <use xlink:href="#DejaVuSans-30" transform="translate(190.869141 0)"/>
      </g>
     </g>
    </g>
    <g id="ytick_13">
     <g id="line2d_25">
      <g>
       <use xlink:href="#m6272c3fd01" x="486.647885" y="102.547842" style="stroke: #000000; stroke-width: 0.8"/>
      </g>
     </g>
     <g id="text_27">
      <!-- 2000 -->
      <g transform="translate(454.197885 106.347061) scale(0.1 -0.1)">
       <use xlink:href="#DejaVuSans-32"/>
       <use xlink:href="#DejaVuSans-30" transform="translate(63.623047 0)"/>
       <use xlink:href="#DejaVuSans-30" transform="translate(127.246094 0)"/>
       <use xlink:href="#DejaVuSans-30" transform="translate(190.869141 0)"/>
      </g>
     </g>
    </g>
    <g id="ytick_14">
     <g id="line2d_26">
      <g>
       <use xlink:href="#m6272c3fd01" x="486.647885" y="66.717606" style="stroke: #000000; stroke-width: 0.8"/>
      </g>
     </g>
     <g id="text_28">
      <!-- 2500 -->
      <g transform="translate(454.197885 70.516824) scale(0.1 -0.1)">
       <use xlink:href="#DejaVuSans-32"/>
       <use xlink:href="#DejaVuSans-35" transform="translate(63.623047 0)"/>
       <use xlink:href="#DejaVuSans-30" transform="translate(127.246094 0)"/>
       <use xlink:href="#DejaVuSans-30" transform="translate(190.869141 0)"/>
      </g>
     </g>
    </g>
    <g id="ytick_15">
     <g id="line2d_27">
      <g>
       <use xlink:href="#m6272c3fd01" x="486.647885" y="30.887369" style="stroke: #000000; stroke-width: 0.8"/>
      </g>
     </g>
     <g id="text_29">
      <!-- 3000 -->
      <g transform="translate(454.197885 34.686588) scale(0.1 -0.1)">
       <use xlink:href="#DejaVuSans-33"/>
       <use xlink:href="#DejaVuSans-30" transform="translate(63.623047 0)"/>
       <use xlink:href="#DejaVuSans-30" transform="translate(127.246094 0)"/>
       <use xlink:href="#DejaVuSans-30" transform="translate(190.869141 0)"/>
      </g>
     </g>
    </g>
    <g id="text_30">
     <!-- pulse:0 [counts] -->
     <g transform="translate(448.118197 172.659916) rotate(-90) scale(0.1 -0.1)">
      <use xlink:href="#DejaVuSans-70"/>
      <use xlink:href="#DejaVuSans-75" transform="translate(63.476562 0)"/>
      <use xlink:href="#DejaVuSans-6c" transform="translate(126.855469 0)"/>
      <use xlink:href="#DejaVuSans-73" transform="translate(154.638672 0)"/>
      <use xlink:href="#DejaVuSans-65" transform="translate(206.738281 0)"/>
      <use xlink:href="#DejaVuSans-3a" transform="translate(268.261719 0)"/>
      <use xlink:href="#DejaVuSans-30" transform="translate(301.953125 0)"/>
      <use xlink:href="#DejaVuSans-20" transform="translate(365.576172 0)"/>
      <use xlink:href="#DejaVuSans-5b" transform="translate(397.363281 0)"/>
      <use xlink:href="#DejaVuSans-63" transform="translate(436.376953 0)"/>
      <use xlink:href="#DejaVuSans-6f" transform="translate(491.357422 0)"/>
      <use xlink:href="#DejaVuSans-75" transform="translate(552.539062 0)"/>
      <use xlink:href="#DejaVuSans-6e" transform="translate(615.917969 0)"/>
      <use xlink:href="#DejaVuSans-74" transform="translate(679.296875 0)"/>
      <use xlink:href="#DejaVuSans-73" transform="translate(718.505859 0)"/>
      <use xlink:href="#DejaVuSans-5d" transform="translate(770.605469 0)"/>
     </g>
    </g>
   </g>
   <g id="line2d_28">
    <path d="M 503.854777 245.797127 
L 505.001904 245.797127 
L 505.001904 245.582146 
L 506.14903 245.582146 
L 506.14903 245.797127 
L 508.443282 245.725467 
L 508.443282 245.438825 
L 509.590408 245.438825 
L 509.590408 245.152183 
L 513.031787 245.152183 
L 513.031787 245.367164 
L 514.178913 245.367164 
L 514.178913 244.435578 
L 515.326039 244.435578 
L 515.326039 244.148936 
L 516.473165 244.148936 
L 516.473165 243.933955 
L 517.620291 243.933955 
L 517.620291 243.28901 
L 518.767418 243.28901 
L 518.767418 242.644066 
L 519.914544 242.644066 
L 519.914544 242.357424 
L 521.06167 242.357424 
L 521.06167 242.787387 
L 522.208796 242.787387 
L 522.208796 240.637573 
L 523.355922 240.637573 
L 523.355922 238.272777 
L 524.503048 238.272777 
L 524.503048 236.911228 
L 525.650175 236.911228 
L 525.650175 235.693 
L 526.797301 235.693 
L 526.797301 232.683261 
L 527.944427 232.683261 
L 527.944427 227.667027 
L 529.091553 227.667027 
L 529.091553 227.022083 
L 530.238679 227.022083 
L 530.238679 221.074264 
L 531.385805 221.074264 
L 531.385805 215.91471 
L 532.532932 215.91471 
L 532.532932 207.100472 
L 533.680058 207.100472 
L 533.680058 200.866011 
L 534.827184 200.866011 
L 534.827184 189.113693 
L 535.97431 189.113693 
L 535.97431 184.885725 
L 537.121436 184.885725 
L 537.121436 169.622045 
L 538.268562 169.622045 
L 538.268562 158.37135 
L 539.415689 158.37135 
L 539.415689 148.052242 
L 540.562815 148.052242 
L 540.562815 138.736381 
L 541.709941 138.736381 
L 541.709941 128.632254 
L 542.857067 128.632254 
L 542.857067 118.95809 
L 544.004193 118.95809 
L 544.004193 116.091671 
L 545.151319 116.091671 
L 545.151319 106.489168 
L 546.298446 106.489168 
L 546.298446 94.091906 
L 547.445572 94.091906 
L 547.445572 92.802018 
L 548.592698 92.802018 
L 548.592698 87.570803 
L 549.739824 87.570803 
L 549.739824 79.759812 
L 550.88695 79.759812 
L 550.88695 67.649192 
L 552.034076 67.649192 
L 552.034076 66.574285 
L 553.181203 66.574285 
L 553.181203 59.479898 
L 554.328329 59.479898 
L 554.328329 57.401744 
L 555.475455 57.401744 
L 555.475455 53.317097 
L 556.622581 53.317097 
L 556.622581 48.730827 
L 557.769707 48.730827 
L 557.769707 49.375771 
L 558.916833 49.375771 
L 558.916833 40.489873 
L 560.06396 40.489873 
L 560.06396 32.750542 
L 561.211086 32.750542 
L 561.211086 36.620207 
L 562.358212 36.620207 
L 562.358212 30.672388 
L 563.505338 30.672388 
L 563.505338 33.252165 
L 564.652464 33.252165 
L 564.652464 36.333565 
L 565.799591 36.333565 
L 565.799591 29.382499 
L 566.946717 29.382499 
L 566.946717 26.51608 
L 568.093843 26.51608 
L 568.093843 22.288113 
L 569.240969 22.288113 
L 569.240969 27.161025 
L 570.388095 27.161025 
L 570.388095 22.431433 
L 571.535221 22.431433 
L 571.535221 18.561768 
L 572.682347 18.561768 
L 572.682347 21.069885 
L 573.829474 21.069885 
L 573.829474 33.538807 
L 574.9766 33.538807 
L 574.9766 23.291359 
L 576.123726 23.291359 
L 576.123726 20.209959 
L 577.270852 20.209959 
L 577.270852 25.727815 
L 578.417978 25.727815 
L 578.417978 25.512834 
L 579.565104 25.512834 
L 579.565104 21.428187 
L 580.712231 21.428187 
L 580.712231 27.089364 
L 581.859357 27.089364 
L 581.859357 33.682128 
L 583.006483 33.682128 
L 583.006483 40.489873 
L 584.153609 40.489873 
L 584.153609 35.903602 
L 585.300735 35.903602 
L 585.300735 39.916589 
L 586.447861 39.916589 
L 586.447861 51.023962 
L 587.594988 51.023962 
L 587.594988 45.721087 
L 588.742114 45.721087 
L 588.742114 61.558052 
L 589.88924 61.558052 
L 589.88924 62.919601 
L 591.036366 62.919601 
L 591.036366 75.818486 
L 592.183492 75.818486 
L 592.183492 81.981286 
L 593.330619 81.981286 
L 593.330619 94.091906 
L 594.477745 94.091906 
L 594.477745 96.528362 
L 595.624871 96.528362 
L 595.624871 112.150345 
L 596.771997 112.150345 
L 596.771997 111.218759 
L 597.919123 111.218759 
L 597.919123 119.388053 
L 599.066249 119.388053 
L 599.066249 125.837496 
L 600.213375 125.837496 
L 600.213375 132.430259 
L 601.360502 132.430259 
L 601.360502 138.66472 
L 602.507628 138.66472 
L 602.507628 143.394311 
L 603.654754 143.394311 
L 603.654754 146.404051 
L 604.80188 146.404051 
L 604.80188 158.228029 
L 605.949006 158.228029 
L 605.949006 162.455997 
L 607.096132 162.455997 
L 607.096132 164.534151 
L 608.243259 164.534151 
L 608.243259 168.260496 
L 609.390385 168.260496 
L 609.390385 175.283222 
L 610.537511 175.283222 
L 610.537511 179.58285 
L 611.684637 179.58285 
L 611.684637 183.667497 
L 612.831763 183.667497 
L 612.831763 187.967126 
L 613.97889 187.967126 
L 613.97889 192.983359 
L 615.126016 192.983359 
L 615.126016 193.771624 
L 616.273142 193.771624 
L 616.273142 199.361141 
L 617.420268 199.361141 
L 617.420268 202.800843 
L 618.567394 202.800843 
L 618.567394 205.165639 
L 619.71452 205.165639 
L 619.71452 206.240546 
L 620.861647 206.240546 
L 620.861647 213.478254 
L 622.008773 213.478254 
L 622.008773 215.198105 
L 623.155899 215.198105 
L 623.155899 216.129691 
L 624.303025 216.129691 
L 624.303025 222.077511 
L 625.450151 222.077511 
L 625.450151 224.728948 
L 626.597277 224.728948 
L 626.597277 227.165404 
L 627.744403 227.165404 
L 627.744403 227.022083 
L 628.89153 227.022083 
L 628.89153 228.09699 
L 630.038656 228.09699 
L 630.038656 232.181637 
L 631.185782 232.181637 
L 631.185782 234.904735 
L 634.62716 234.904735 
L 634.62716 237.627833 
L 635.774287 237.627833 
L 635.774287 237.484512 
L 636.921413 237.484512 
L 636.921413 238.201117 
L 638.068539 238.201117 
L 638.068539 238.344438 
L 639.215665 238.344438 
L 639.215665 238.129456 
L 640.362791 238.129456 
L 640.362791 237.341191 
L 641.509918 237.341191 
L 641.509918 236.624587 
L 642.657044 236.624587 
L 642.657044 235.693 
L 643.80417 235.693 
L 643.80417 230.175144 
L 644.951296 230.175144 
L 644.951296 230.891749 
L 646.098422 230.891749 
L 646.098422 230.246804 
L 647.245548 230.246804 
L 647.245548 228.526953 
L 648.392674 228.526953 
L 648.392674 227.308725 
L 649.539801 227.308725 
L 649.539801 227.810348 
L 650.686927 227.810348 
L 650.686927 225.947176 
L 651.834053 225.947176 
L 651.834053 225.302232 
L 652.981179 225.302232 
L 652.981179 223.797362 
L 654.128305 223.797362 
L 654.128305 223.295739 
L 655.275431 223.295739 
L 655.275431 222.507473 
L 656.422558 222.507473 
L 656.422558 220.357659 
L 657.569684 220.357659 
L 657.569684 218.351166 
L 658.71681 218.351166 
L 658.71681 219.354413 
L 659.863936 219.354413 
L 659.863936 217.777882 
L 661.011062 217.777882 
L 661.011062 214.911463 
L 662.158189 214.911463 
L 662.158189 217.41958 
L 663.305315 217.41958 
L 663.305315 216.702975 
L 664.452441 216.702975 
L 664.452441 216.058031 
L 665.599567 216.058031 
L 665.599567 213.621575 
L 666.746693 213.621575 
L 666.746693 214.194859 
L 667.893819 214.194859 
L 667.893819 213.693235 
L 670.188072 213.764896 
L 670.188072 213.406593 
L 671.335198 213.406593 
L 671.335198 208.820323 
L 672.482324 208.820323 
L 672.482324 214.983124 
L 673.62945 214.983124 
L 673.62945 212.90497 
L 674.776576 212.90497 
L 674.776576 208.605342 
L 675.923702 208.605342 
L 675.923702 211.185119 
L 677.070829 211.185119 
L 677.070829 208.39036 
L 678.217955 208.39036 
L 678.217955 209.89523 
L 679.365081 209.89523 
L 679.365081 211.830063 
L 680.512207 211.830063 
L 680.512207 208.103718 
L 681.659333 208.103718 
L 681.659333 210.898477 
L 682.806459 210.898477 
L 682.806459 212.976631 
L 683.953586 212.976631 
L 683.953586 207.888737 
L 685.100712 207.888737 
L 685.100712 206.81383 
L 686.247838 206.81383 
L 686.247838 206.670509 
L 687.394964 206.670509 
L 687.394964 209.89523 
L 688.54209 209.89523 
L 688.54209 208.032058 
L 689.689217 208.032058 
L 689.689217 209.393607 
L 690.836343 209.393607 
L 690.836343 211.471761 
L 691.983469 211.471761 
L 691.983469 208.247039 
L 693.130595 208.247039 
L 693.130595 210.396854 
L 694.277721 210.396854 
L 694.277721 209.321946 
L 695.424847 209.321946 
L 695.424847 213.836556 
L 696.571974 213.836556 
L 696.571974 211.758402 
L 697.7191 211.758402 
L 697.7191 213.549914 
L 698.866226 213.549914 
L 698.866226 216.273012 
L 700.013352 216.273012 
L 700.013352 213.764896 
L 701.160478 213.764896 
L 701.160478 215.556408 
L 702.307604 215.556408 
L 702.307604 214.911463 
L 703.45473 214.911463 
L 703.45473 216.702975 
L 704.601857 216.702975 
L 704.601857 213.836556 
L 705.748983 213.836556 
L 705.748983 217.204598 
L 708.043235 217.276259 
L 708.043235 215.341426 
L 709.190361 215.341426 
L 709.190361 215.198105 
L 710.337487 215.198105 
L 710.337487 218.494487 
L 712.63174 218.566147 
L 712.63174 219.211092 
L 713.778866 219.211092 
L 713.778866 218.422826 
L 714.925992 218.422826 
L 714.925992 223.43906 
L 716.073118 223.43906 
L 716.073118 223.152418 
L 717.220245 223.152418 
L 717.220245 219.282752 
L 718.367371 219.282752 
L 718.367371 220.715962 
L 719.514497 220.715962 
L 719.514497 221.145924 
L 720.661623 221.145924 
L 720.661623 221.93419 
L 721.808749 221.93419 
L 721.808749 224.227325 
L 722.955875 224.227325 
L 722.955875 222.650794 
L 724.103002 222.650794 
L 724.103002 223.43906 
L 725.250128 223.43906 
L 725.250128 223.940683 
L 726.397254 223.940683 
L 726.397254 224.657288 
L 727.54438 224.657288 
L 727.54438 222.149171 
L 728.691506 222.149171 
L 728.691506 222.722455 
L 729.838632 222.722455 
L 729.838632 225.01559 
L 730.985758 225.01559 
L 730.985758 225.732195 
L 732.132885 225.732195 
L 732.132885 227.022083 
L 733.280011 227.022083 
L 733.280011 223.295739 
L 734.427137 223.295739 
L 734.427137 224.370646 
L 735.574263 224.370646 
L 735.574263 226.52046 
L 736.721389 226.52046 
L 736.721389 227.093744 
L 737.868516 227.093744 
L 737.868516 225.660534 
L 739.015642 225.660534 
L 739.015642 225.01559 
L 741.309894 225.08725 
L 741.309894 227.165404 
L 743.604146 227.093744 
L 743.604146 229.243558 
L 744.751272 229.243558 
L 744.751272 227.738688 
L 745.898399 227.738688 
L 745.898399 230.031823 
L 747.045525 230.031823 
L 747.045525 227.953669 
L 748.192651 227.953669 
L 748.192651 229.458539 
L 749.339777 229.458539 
L 749.339777 229.673521 
L 750.486903 229.673521 
L 750.486903 231.393372 
L 751.634029 231.393372 
L 751.634029 229.315218 
L 752.781156 229.315218 
L 752.781156 230.318465 
L 753.928282 230.318465 
L 753.928282 231.321712 
L 755.075408 231.321712 
L 755.075408 228.813595 
L 756.222534 228.813595 
L 756.222534 231.10673 
L 757.36966 231.10673 
L 757.36966 230.748428 
L 758.516787 230.748428 
L 758.516787 230.246804 
L 759.663913 230.246804 
L 759.663913 230.748428 
L 760.811039 230.748428 
L 760.811039 230.103484 
L 761.958165 230.103484 
L 761.958165 229.960163 
L 763.105291 229.960163 
L 763.105291 232.109977 
L 764.252417 232.109977 
L 764.252417 233.041563 
L 765.399543 233.041563 
L 765.399543 231.823335 
L 767.693796 231.751674 
L 767.693796 233.543186 
L 769.988048 233.614847 
L 769.988048 231.465032 
L 771.135174 231.465032 
L 771.135174 233.901489 
L 772.282301 233.901489 
L 772.282301 231.894995 
L 773.429427 231.894995 
L 773.429427 234.904735 
L 774.576553 234.904735 
L 774.576553 234.546433 
L 775.723679 234.546433 
L 775.723679 234.331451 
L 776.870805 234.331451 
L 776.870805 232.683261 
L 778.017931 232.683261 
L 778.017931 235.836321 
L 779.165058 235.836321 
L 779.165058 232.53994 
L 780.312184 232.53994 
L 780.312184 234.331451 
L 781.45931 234.331451 
L 781.45931 234.18813 
L 782.606436 234.18813 
L 782.606436 235.907982 
L 783.753562 235.907982 
L 783.753562 235.693 
L 784.900688 235.693 
L 784.900688 233.399865 
L 786.047814 233.399865 
L 786.047814 235.62134 
L 787.194941 235.62134 
L 787.194941 235.406358 
L 789.489193 235.478019 
L 789.489193 236.767907 
L 790.636319 236.767907 
L 790.636319 235.191377 
L 791.783445 235.191377 
L 791.783445 237.341191 
L 792.930572 237.341191 
L 792.930572 235.907982 
L 794.077698 235.907982 
L 794.077698 236.552926 
L 795.224824 236.552926 
L 795.224824 235.693 
L 796.37195 235.693 
L 796.37195 237.627833 
L 798.666202 237.627833 
L 798.666202 238.201117 
L 799.813329 238.201117 
L 799.813329 237.269531 
L 800.960455 237.269531 
L 800.960455 237.412852 
L 802.107581 237.412852 
L 802.107581 239.132703 
L 803.254707 239.132703 
L 803.254707 238.416098 
L 804.401833 238.416098 
L 804.401833 239.347684 
L 805.548959 239.347684 
L 805.548959 239.132703 
L 806.696085 239.132703 
L 806.696085 239.992629 
L 807.843212 239.992629 
L 807.843212 240.20761 
L 808.990338 240.20761 
L 808.990338 240.565913 
L 810.137464 240.565913 
L 810.137464 240.279271 
L 811.28459 240.279271 
L 811.28459 240.852554 
L 812.431716 240.852554 
L 812.431716 241.784141 
L 813.578843 241.784141 
L 813.578843 241.282517 
L 814.725969 241.282517 
L 814.725969 240.995875 
L 815.873095 240.995875 
L 815.873095 242.644066 
L 817.020221 242.644066 
L 817.020221 242.142443 
L 819.314473 242.070782 
L 819.314473 242.500745 
L 820.4616 242.500745 
L 820.4616 243.28901 
L 821.608726 243.28901 
L 821.608726 242.572406 
L 822.755852 242.572406 
L 822.755852 244.005615 
L 823.902978 244.005615 
L 823.902978 243.074029 
L 825.050104 243.074029 
L 825.050104 243.647313 
L 828.491483 243.647313 
L 828.491483 243.28901 
L 829.638609 243.28901 
L 829.638609 243.862294 
L 830.785735 243.862294 
L 830.785735 244.292257 
L 831.932861 244.292257 
L 831.932861 244.148936 
L 833.079987 244.148936 
L 833.079987 244.363918 
L 834.227113 244.363918 
L 834.227113 244.865541 
L 838.815618 244.865541 
L 838.815618 245.080522 
L 839.962744 245.080522 
L 839.962744 245.438825 
L 841.109871 245.438825 
L 841.109871 245.152183 
L 842.256997 245.152183 
L 842.256997 245.367164 
L 843.404123 245.367164 
L 843.404123 245.582146 
L 844.551249 245.582146 
L 844.551249 245.797127 
L 847.992628 245.797127 
L 847.992628 245.797127 
" clip-path="url(#p7834ac7bd3)" style="fill: none; stroke: #1f77b4; stroke-width: 1.5; stroke-linecap: square"/>
   </g>
   <g id="patch_8">
    <path d="M 486.647885 257.158895 
L 486.647885 7.2 
" style="fill: none; stroke: #000000; stroke-width: 0.8; stroke-linejoin: miter; stroke-linecap: square"/>
   </g>
   <g id="patch_9">
    <path d="M 865.19952 257.158895 
L 865.19952 7.2 
" style="fill: none; stroke: #000000; stroke-width: 0.8; stroke-linejoin: miter; stroke-linecap: square"/>
   </g>
   <g id="patch_10">
    <path d="M 486.647885 257.158895 
L 865.19952 257.158895 
" style="fill: none; stroke: #000000; stroke-width: 0.8; stroke-linejoin: miter; stroke-linecap: square"/>
   </g>
   <g id="patch_11">
    <path d="M 486.647885 7.2 
L 865.19952 7.2 
" style="fill: none; stroke: #000000; stroke-width: 0.8; stroke-linejoin: miter; stroke-linecap: square"/>
   </g>
  </g>
 </g>
 <defs>
  <clipPath id="p9cc6199c8a">
   <rect x="53.328125" y="7.2" width="378.551635" height="249.958895"/>
  </clipPath>
  <clipPath id="p7834ac7bd3">
   <rect x="486.647885" y="7.2" width="378.551635" height="249.958895"/>
  </clipPath>
 </defs>
</svg>
