<?xml version="1.0" encoding="utf-8" standalone="no"?>
<!DOCTYPE svg PUBLIC "-//W3C//DTD SVG 1.1//EN"
  "http://www.w3.org/Graphics/SVG/1.1/DTD/svg11.dtd">
<svg xmlns:xlink="http://www.w3.org/1999/xlink" width="395.328125pt" height="266.51625pt" viewBox="0 0 395.328125 266.51625" xmlns="http://www.w3.org/2000/svg" version="1.1">
 <metadata>
  <rdf:RDF xmlns:dc="http://purl.org/dc/elements/1.1/" xmlns:cc="http://creativecommons.org/ns#" xmlns:rdf="http://www.w3.org/1999/02/22-rdf-syntax-ns#">
   <cc:Work>
    <dc:type rdf:resource="http://purl.org/dc/dcmitype/StillImage"/>
    <dc:date>2026-06-24T08:33:37.006540</dc:date>
    <dc:format>image/svg+xml</dc:format>
    <dc:creator>
     <cc:Agent>
      <dc:title>Matplotlib v3.10.9, https://matplotlib.org/</dc:title>
     </cc:Agent>
    </dc:creator>
   </cc:Work>
  </rdf:RDF>
 </metadata>
 <defs>
  <style type="text/css">*{stroke-linejoin: round; stroke-linecap: butt}</style>
 </defs>
 <g id="figure_1">
  <g id="patch_1">
   <path d="M 0 266.51625 
L 395.328125 266.51625 
L 395.328125 0 
L 0 0 
z
" style="fill: #ffffff"/>
  </g>
  <g id="axes_1">
   <g id="patch_2">
    <path d="M 53.328125 228.96 
L 388.128125 228.96 
L 388.128125 7.2 
L 53.328125 7.2 
z
" style="fill: #ffffff"/>
   </g>
   <g id="matplotlib.axis_1">
    <g id="xtick_1">
     <g id="line2d_1">
      <defs>
       <path id="md5342d01d5" d="M 0 0 
L 0 3.5 
" style="stroke: #000000; stroke-width: 0.8"/>
      </defs>
      <g>
       <use xlink:href="#md5342d01d5" x="84.240667" y="228.96" style="stroke: #000000; stroke-width: 0.8"/>
      </g>
     </g>
     <g id="text_1">
      <!-- 20000 -->
      <g transform="translate(68.334417 243.558437) scale(0.1 -0.1)">
       <defs>
        <path id="DejaVuSans-32" d="M 1228 531 
L 3431 531 
L 3431 0 
L 469 0 
L 469 531 
Q 828 903 1448 1529 
Q 2069 2156 2228 2338 
Q 2531 2678 2651 2914 
Q 2772 3150 2772 3378 
Q 2772 3750 2511 3984 
Q 2250 4219 1831 4219 
Q 1534 4219 1204 4116 
Q 875 4013 500 3803 
L 500 4441 
Q 881 4594 1212 4672 
Q 1544 4750 1819 4750 
Q 2544 4750 2975 4387 
Q 3406 4025 3406 3419 
Q 3406 3131 3298 2873 
Q 3191 2616 2906 2266 
Q 2828 2175 2409 1742 
Q 1991 1309 1228 531 
z
" transform="scale(0.015625)"/>
        <path id="DejaVuSans-30" d="M 2034 4250 
Q 1547 4250 1301 3770 
Q 1056 3291 1056 2328 
Q 1056 1369 1301 889 
Q 1547 409 2034 409 
Q 2525 409 2770 889 
Q 3016 1369 3016 2328 
Q 3016 3291 2770 3770 
Q 2525 4250 2034 4250 
z
M 2034 4750 
Q 2819 4750 3233 4129 
Q 3647 3509 3647 2328 
Q 3647 1150 3233 529 
Q 2819 -91 2034 -91 
Q 1250 -91 836 529 
Q 422 1150 422 2328 
Q 422 3509 836 4129 
Q 1250 4750 2034 4750 
z
" transform="scale(0.015625)"/>
       </defs>
       <use xlink:href="#DejaVuSans-32"/>
       <use xlink:href="#DejaVuSans-30" transform="translate(63.623047 0)"/>
       <use xlink:href="#DejaVuSans-30" transform="translate(127.246094 0)"/>
       <use xlink:href="#DejaVuSans-30" transform="translate(190.869141 0)"/>
       <use xlink:href="#DejaVuSans-30" transform="translate(254.492188 0)"/>
      </g>
     </g>
    </g>
    <g id="xtick_2">
     <g id="line2d_2">
      <g>
       <use xlink:href="#md5342d01d5" x="130.067211" y="228.96" style="stroke: #000000; stroke-width: 0.8"/>
      </g>
     </g>
     <g id="text_2">
      <!-- 30000 -->
      <g transform="translate(114.160961 243.558437) scale(0.1 -0.1)">
       <defs>
        <path id="DejaVuSans-33" d="M 2597 2516 
Q 3050 2419 3304 2112 
Q 3559 1806 3559 1356 
Q 3559 666 3084 287 
Q 2609 -91 1734 -91 
Q 1441 -91 1130 -33 
Q 819 25 488 141 
L 488 750 
Q 750 597 1062 519 
Q 1375 441 1716 441 
Q 2309 441 2620 675 
Q 2931 909 2931 1356 
Q 2931 1769 2642 2001 
Q 2353 2234 1838 2234 
L 1294 2234 
L 1294 2753 
L 1863 2753 
Q 2328 2753 2575 2939 
Q 2822 3125 2822 3475 
Q 2822 3834 2567 4026 
Q 2313 4219 1838 4219 
Q 1578 4219 1281 4162 
Q 984 4106 628 3988 
L 628 4550 
Q 988 4650 1302 4700 
Q 1616 4750 1894 4750 
Q 2613 4750 3031 4423 
Q 3450 4097 3450 3541 
Q 3450 3153 3228 2886 
Q 3006 2619 2597 2516 
z
" transform="scale(0.015625)"/>
       </defs>
       <use xlink:href="#DejaVuSans-33"/>
       <use xlink:href="#DejaVuSans-30" transform="translate(63.623047 0)"/>
       <use xlink:href="#DejaVuSans-30" transform="translate(127.246094 0)"/>
       <use xlink:href="#DejaVuSans-30" transform="translate(190.869141 0)"/>
       <use xlink:href="#DejaVuSans-30" transform="translate(254.492188 0)"/>
      </g>
     </g>
    </g>
    <g id="xtick_3">
     <g id="line2d_3">
      <g>
       <use xlink:href="#md5342d01d5" x="175.893756" y="228.96" style="stroke: #000000; stroke-width: 0.8"/>
      </g>
     </g>
     <g id="text_3">
      <!-- 40000 -->
      <g transform="translate(159.987506 243.558437) scale(0.1 -0.1)">
       <defs>
        <path id="DejaVuSans-34" d="M 2419 4116 
L 825 1625 
L 2419 1625 
L 2419 4116 
z
M 2253 4666 
L 3047 4666 
L 3047 1625 
L 3713 1625 
L 3713 1100 
L 3047 1100 
L 3047 0 
L 2419 0 
L 2419 1100 
L 313 1100 
L 313 1709 
L 2253 4666 
z
" transform="scale(0.015625)"/>
       </defs>
       <use xlink:href="#DejaVuSans-34"/>
       <use xlink:href="#DejaVuSans-30" transform="translate(63.623047 0)"/>
       <use xlink:href="#DejaVuSans-30" transform="translate(127.246094 0)"/>
       <use xlink:href="#DejaVuSans-30" transform="translate(190.869141 0)"/>
       <use xlink:href="#DejaVuSans-30" transform="translate(254.492188 0)"/>
      </g>
     </g>
    </g>
    <g id="xtick_4">
     <g id="line2d_4">
      <g>
       <use xlink:href="#md5342d01d5" x="221.7203" y="228.96" style="stroke: #000000; stroke-width: 0.8"/>
      </g>
     </g>
     <g id="text_4">
      <!-- 50000 -->
      <g transform="translate(205.81405 243.558437) scale(0.1 -0.1)">
       <defs>
        <path id="DejaVuSans-35" d="M 691 4666 
L 3169 4666 
L 3169 4134 
L 1269 4134 
L 1269 2991 
Q 1406 3038 1543 3061 
Q 1681 3084 1819 3084 
Q 2600 3084 3056 2656 
Q 3513 2228 3513 1497 
Q 3513 744 3044 326 
Q 2575 -91 1722 -91 
Q 1428 -91 1123 -41 
Q 819 9 494 109 
L 494 744 
Q 775 591 1075 516 
Q 1375 441 1709 441 
Q 2250 441 2565 725 
Q 2881 1009 2881 1497 
Q 2881 1984 2565 2268 
Q 2250 2553 1709 2553 
Q 1456 2553 1204 2497 
Q 953 2441 691 2322 
L 691 4666 
z
" transform="scale(0.015625)"/>
       </defs>
       <use xlink:href="#DejaVuSans-35"/>
       <use xlink:href="#DejaVuSans-30" transform="translate(63.623047 0)"/>
       <use xlink:href="#DejaVuSans-30" transform="translate(127.246094 0)"/>
       <use xlink:href="#DejaVuSans-30" transform="translate(190.869141 0)"/>
       <use xlink:href="#DejaVuSans-30" transform="translate(254.492188 0)"/>
      </g>
     </g>
    </g>
    <g id="xtick_5">
     <g id="line2d_5">
      <g>
       <use xlink:href="#md5342d01d5" x="267.546845" y="228.96" style="stroke: #000000; stroke-width: 0.8"/>
      </g>
     </g>
     <g id="text_5">
      <!-- 60000 -->
      <g transform="translate(251.640595 243.558437) scale(0.1 -0.1)">
       <defs>
        <path id="DejaVuSans-36" d="M 2113 2584 
Q 1688 2584 1439 2293 
Q 1191 2003 1191 1497 
Q 1191 994 1439 701 
Q 1688 409 2113 409 
Q 2538 409 2786 701 
Q 3034 994 3034 1497 
Q 3034 2003 2786 2293 
Q 2538 2584 2113 2584 
z
M 3366 4563 
L 3366 3988 
Q 3128 4100 2886 4159 
Q 2644 4219 2406 4219 
Q 1781 4219 1451 3797 
Q 1122 3375 1075 2522 
Q 1259 2794 1537 2939 
Q 1816 3084 2150 3084 
Q 2853 3084 3261 2657 
Q 3669 2231 3669 1497 
Q 3669 778 3244 343 
Q 2819 -91 2113 -91 
Q 1303 -91 875 529 
Q 447 1150 447 2328 
Q 447 3434 972 4092 
Q 1497 4750 2381 4750 
Q 2619 4750 2861 4703 
Q 3103 4656 3366 4563 
z
" transform="scale(0.015625)"/>
       </defs>
       <use xlink:href="#DejaVuSans-36"/>
       <use xlink:href="#DejaVuSans-30" transform="translate(63.623047 0)"/>
       <use xlink:href="#DejaVuSans-30" transform="translate(127.246094 0)"/>
       <use xlink:href="#DejaVuSans-30" transform="translate(190.869141 0)"/>
       <use xlink:href="#DejaVuSans-30" transform="translate(254.492188 0)"/>
      </g>
     </g>
    </g>
    <g id="xtick_6">
     <g id="line2d_6">
      <g>
       <use xlink:href="#md5342d01d5" x="313.373389" y="228.96" style="stroke: #000000; stroke-width: 0.8"/>
      </g>
     </g>
     <g id="text_6">
      <!-- 70000 -->
      <g transform="translate(297.467139 243.558437) scale(0.1 -0.1)">
       <defs>
        <path id="DejaVuSans-37" d="M 525 4666 
L 3525 4666 
L 3525 4397 
L 1831 0 
L 1172 0 
L 2766 4134 
L 525 4134 
L 525 4666 
z
" transform="scale(0.015625)"/>
       </defs>
       <use xlink:href="#DejaVuSans-37"/>
       <use xlink:href="#DejaVuSans-30" transform="translate(63.623047 0)"/>
       <use xlink:href="#DejaVuSans-30" transform="translate(127.246094 0)"/>
       <use xlink:href="#DejaVuSans-30" transform="translate(190.869141 0)"/>
       <use xlink:href="#DejaVuSans-30" transform="translate(254.492188 0)"/>
      </g>
     </g>
    </g>
    <g id="xtick_7">
     <g id="line2d_7">
      <g>
       <use xlink:href="#md5342d01d5" x="359.199934" y="228.96" style="stroke: #000000; stroke-width: 0.8"/>
      </g>
     </g>
     <g id="text_7">
      <!-- 80000 -->
      <g transform="translate(343.293684 243.558437) scale(0.1 -0.1)">
       <defs>
        <path id="DejaVuSans-38" d="M 2034 2216 
Q 1584 2216 1326 1975 
Q 1069 1734 1069 1313 
Q 1069 891 1326 650 
Q 1584 409 2034 409 
Q 2484 409 2743 651 
Q 3003 894 3003 1313 
Q 3003 1734 2745 1975 
Q 2488 2216 2034 2216 
z
M 1403 2484 
Q 997 2584 770 2862 
Q 544 3141 544 3541 
Q 544 4100 942 4425 
Q 1341 4750 2034 4750 
Q 2731 4750 3128 4425 
Q 3525 4100 3525 3541 
Q 3525 3141 3298 2862 
Q 3072 2584 2669 2484 
Q 3125 2378 3379 2068 
Q 3634 1759 3634 1313 
Q 3634 634 3220 271 
Q 2806 -91 2034 -91 
Q 1263 -91 848 271 
Q 434 634 434 1313 
Q 434 1759 690 2068 
Q 947 2378 1403 2484 
z
M 1172 3481 
Q 1172 3119 1398 2916 
Q 1625 2713 2034 2713 
Q 2441 2713 2670 2916 
Q 2900 3119 2900 3481 
Q 2900 3844 2670 4047 
Q 2441 4250 2034 4250 
Q 1625 4250 1398 4047 
Q 1172 3844 1172 3481 
z
" transform="scale(0.015625)"/>
       </defs>
       <use xlink:href="#DejaVuSans-38"/>
       <use xlink:href="#DejaVuSans-30" transform="translate(63.623047 0)"/>
       <use xlink:href="#DejaVuSans-30" transform="translate(127.246094 0)"/>
       <use xlink:href="#DejaVuSans-30" transform="translate(190.869141 0)"/>
       <use xlink:href="#DejaVuSans-30" transform="translate(254.492188 0)"/>
      </g>
     </g>
    </g>
    <g id="text_8">
     <!-- toa [µs] -->
     <g transform="translate(201.367969 257.236562) scale(0.1 -0.1)">
      <defs>
       <path id="DejaVuSans-74" d="M 1172 4494 
L 1172 3500 
L 2356 3500 
L 2356 3053 
L 1172 3053 
L 1172 1153 
Q 1172 725 1289 603 
Q 1406 481 1766 481 
L 2356 481 
L 2356 0 
L 1766 0 
Q 1100 0 847 248 
Q 594 497 594 1153 
L 594 3053 
L 172 3053 
L 172 3500 
L 594 3500 
L 594 4494 
L 1172 4494 
z
" transform="scale(0.015625)"/>
       <path id="DejaVuSans-6f" d="M 1959 3097 
Q 1497 3097 1228 2736 
Q 959 2375 959 1747 
Q 959 1119 1226 758 
Q 1494 397 1959 397 
Q 2419 397 2687 759 
Q 2956 1122 2956 1747 
Q 2956 2369 2687 2733 
Q 2419 3097 1959 3097 
z
M 1959 3584 
Q 2709 3584 3137 3096 
Q 3566 2609 3566 1747 
Q 3566 888 3137 398 
Q 2709 -91 1959 -91 
Q 1206 -91 779 398 
Q 353 888 353 1747 
Q 353 2609 779 3096 
Q 1206 3584 1959 3584 
z
" transform="scale(0.015625)"/>
       <path id="DejaVuSans-61" d="M 2194 1759 
Q 1497 1759 1228 1600 
Q 959 1441 959 1056 
Q 959 750 1161 570 
Q 1363 391 1709 391 
Q 2188 391 2477 730 
Q 2766 1069 2766 1631 
L 2766 1759 
L 2194 1759 
z
M 3341 1997 
L 3341 0 
L 2766 0 
L 2766 531 
Q 2569 213 2275 61 
Q 1981 -91 1556 -91 
Q 1019 -91 701 211 
Q 384 513 384 1019 
Q 384 1609 779 1909 
Q 1175 2209 1959 2209 
L 2766 2209 
L 2766 2266 
Q 2766 2663 2505 2880 
Q 2244 3097 1772 3097 
Q 1472 3097 1187 3025 
Q 903 2953 641 2809 
L 641 3341 
Q 956 3463 1253 3523 
Q 1550 3584 1831 3584 
Q 2591 3584 2966 3190 
Q 3341 2797 3341 1997 
z
" transform="scale(0.015625)"/>
       <path id="DejaVuSans-20" transform="scale(0.015625)"/>
       <path id="DejaVuSans-5b" d="M 550 4863 
L 1875 4863 
L 1875 4416 
L 1125 4416 
L 1125 -397 
L 1875 -397 
L 1875 -844 
L 550 -844 
L 550 4863 
z
" transform="scale(0.015625)"/>
       <path id="DejaVuSans-b5" d="M 544 -1331 
L 544 3500 
L 1119 3500 
L 1119 1325 
Q 1119 872 1334 640 
Q 1550 409 1972 409 
Q 2434 409 2667 671 
Q 2900 934 2900 1459 
L 2900 3500 
L 3475 3500 
L 3475 806 
Q 3475 619 3529 530 
Q 3584 441 3700 441 
Q 3728 441 3778 458 
Q 3828 475 3916 513 
L 3916 50 
Q 3788 -22 3673 -56 
Q 3559 -91 3450 -91 
Q 3234 -91 3106 31 
Q 2978 153 2931 403 
Q 2775 156 2548 32 
Q 2322 -91 2016 -91 
Q 1697 -91 1473 31 
Q 1250 153 1119 397 
L 1119 -1331 
L 544 -1331 
z
" transform="scale(0.015625)"/>
       <path id="DejaVuSans-73" d="M 2834 3397 
L 2834 2853 
Q 2591 2978 2328 3040 
Q 2066 3103 1784 3103 
Q 1356 3103 1142 2972 
Q 928 2841 928 2578 
Q 928 2378 1081 2264 
Q 1234 2150 1697 2047 
L 1894 2003 
Q 2506 1872 2764 1633 
Q 3022 1394 3022 966 
Q 3022 478 2636 193 
Q 2250 -91 1575 -91 
Q 1294 -91 989 -36 
Q 684 19 347 128 
L 347 722 
Q 666 556 975 473 
Q 1284 391 1588 391 
Q 1994 391 2212 530 
Q 2431 669 2431 922 
Q 2431 1156 2273 1281 
Q 2116 1406 1581 1522 
L 1381 1569 
Q 847 1681 609 1914 
Q 372 2147 372 2553 
Q 372 3047 722 3315 
Q 1072 3584 1716 3584 
Q 2034 3584 2315 3537 
Q 2597 3491 2834 3397 
z
" transform="scale(0.015625)"/>
       <path id="DejaVuSans-5d" d="M 1947 4863 
L 1947 -844 
L 622 -844 
L 622 -397 
L 1369 -397 
L 1369 4416 
L 622 4416 
L 622 4863 
L 1947 4863 
z
" transform="scale(0.015625)"/>
      </defs>
      <use xlink:href="#DejaVuSans-74"/>
      <use xlink:href="#DejaVuSans-6f" transform="translate(39.208984 0)"/>
      <use xlink:href="#DejaVuSans-61" transform="translate(100.390625 0)"/>
      <use xlink:href="#DejaVuSans-20" transform="translate(161.669922 0)"/>
      <use xlink:href="#DejaVuSans-5b" transform="translate(193.457031 0)"/>
      <use xlink:href="#DejaVuSans-b5" transform="translate(232.470703 0)"/>
      <use xlink:href="#DejaVuSans-73" transform="translate(296.09375 0)"/>
      <use xlink:href="#DejaVuSans-5d" transform="translate(348.193359 0)"/>
     </g>
    </g>
   </g>
   <g id="matplotlib.axis_2">
    <g id="ytick_1">
     <g id="line2d_8">
      <defs>
       <path id="m07122c239f" d="M 0 0 
L -3.5 0 
" style="stroke: #000000; stroke-width: 0.8"/>
      </defs>
      <g>
       <use xlink:href="#m07122c239f" x="53.328125" y="218.88" style="stroke: #000000; stroke-width: 0.8"/>
      </g>
     </g>
     <g id="text_9">
      <!-- 0 -->
      <g transform="translate(39.965625 222.679219) scale(0.1 -0.1)">
       <use xlink:href="#DejaVuSans-30"/>
      </g>
     </g>
    </g>
    <g id="ytick_2">
     <g id="line2d_9">
      <g>
       <use xlink:href="#m07122c239f" x="53.328125" y="187.864615" style="stroke: #000000; stroke-width: 0.8"/>
      </g>
     </g>
     <g id="text_10">
      <!-- 500 -->
      <g transform="translate(27.240625 191.663834) scale(0.1 -0.1)">
       <use xlink:href="#DejaVuSans-35"/>
       <use xlink:href="#DejaVuSans-30" transform="translate(63.623047 0)"/>
       <use xlink:href="#DejaVuSans-30" transform="translate(127.246094 0)"/>
      </g>
     </g>
    </g>
    <g id="ytick_3">
     <g id="line2d_10">
      <g>
       <use xlink:href="#m07122c239f" x="53.328125" y="156.849231" style="stroke: #000000; stroke-width: 0.8"/>
      </g>
     </g>
     <g id="text_11">
      <!-- 1000 -->
      <g transform="translate(20.878125 160.64845) scale(0.1 -0.1)">
       <defs>
        <path id="DejaVuSans-31" d="M 794 531 
L 1825 531 
L 1825 4091 
L 703 3866 
L 703 4441 
L 1819 4666 
L 2450 4666 
L 2450 531 
L 3481 531 
L 3481 0 
L 794 0 
L 794 531 
z
" transform="scale(0.015625)"/>
       </defs>
       <use xlink:href="#DejaVuSans-31"/>
       <use xlink:href="#DejaVuSans-30" transform="translate(63.623047 0)"/>
       <use xlink:href="#DejaVuSans-30" transform="translate(127.246094 0)"/>
       <use xlink:href="#DejaVuSans-30" transform="translate(190.869141 0)"/>
      </g>
     </g>
    </g>
    <g id="ytick_4">
     <g id="line2d_11">
      <g>
       <use xlink:href="#m07122c239f" x="53.328125" y="125.833846" style="stroke: #000000; stroke-width: 0.8"/>
      </g>
     </g>
     <g id="text_12">
      <!-- 1500 -->
      <g transform="translate(20.878125 129.633065) scale(0.1 -0.1)">
       <use xlink:href="#DejaVuSans-31"/>
       <use xlink:href="#DejaVuSans-35" transform="translate(63.623047 0)"/>
       <use xlink:href="#DejaVuSans-30" transform="translate(127.246094 0)"/>
       <use xlink:href="#DejaVuSans-30" transform="translate(190.869141 0)"/>
      </g>
     </g>
    </g>
    <g id="ytick_5">
     <g id="line2d_12">
      <g>
       <use xlink:href="#m07122c239f" x="53.328125" y="94.818462" style="stroke: #000000; stroke-width: 0.8"/>
      </g>
     </g>
     <g id="text_13">
      <!-- 2000 -->
      <g transform="translate(20.878125 98.61768) scale(0.1 -0.1)">
       <use xlink:href="#DejaVuSans-32"/>
       <use xlink:href="#DejaVuSans-30" transform="translate(63.623047 0)"/>
       <use xlink:href="#DejaVuSans-30" transform="translate(127.246094 0)"/>
       <use xlink:href="#DejaVuSans-30" transform="translate(190.869141 0)"/>
      </g>
     </g>
    </g>
    <g id="ytick_6">
     <g id="line2d_13">
      <g>
       <use xlink:href="#m07122c239f" x="53.328125" y="63.803077" style="stroke: #000000; stroke-width: 0.8"/>
      </g>
     </g>
     <g id="text_14">
      <!-- 2500 -->
      <g transform="translate(20.878125 67.602296) scale(0.1 -0.1)">
       <use xlink:href="#DejaVuSans-32"/>
       <use xlink:href="#DejaVuSans-35" transform="translate(63.623047 0)"/>
       <use xlink:href="#DejaVuSans-30" transform="translate(127.246094 0)"/>
       <use xlink:href="#DejaVuSans-30" transform="translate(190.869141 0)"/>
      </g>
     </g>
    </g>
    <g id="ytick_7">
     <g id="line2d_14">
      <g>
       <use xlink:href="#m07122c239f" x="53.328125" y="32.787692" style="stroke: #000000; stroke-width: 0.8"/>
      </g>
     </g>
     <g id="text_15">
      <!-- 3000 -->
      <g transform="translate(20.878125 36.586911) scale(0.1 -0.1)">
       <use xlink:href="#DejaVuSans-33"/>
       <use xlink:href="#DejaVuSans-30" transform="translate(63.623047 0)"/>
       <use xlink:href="#DejaVuSans-30" transform="translate(127.246094 0)"/>
       <use xlink:href="#DejaVuSans-30" transform="translate(190.869141 0)"/>
      </g>
     </g>
    </g>
    <g id="text_16">
     <!-- pulse:0 [counts] -->
     <g transform="translate(14.798438 158.560469) rotate(-90) scale(0.1 -0.1)">
      <defs>
       <path id="DejaVuSans-70" d="M 1159 525 
L 1159 -1331 
L 581 -1331 
L 581 3500 
L 1159 3500 
L 1159 2969 
Q 1341 3281 1617 3432 
Q 1894 3584 2278 3584 
Q 2916 3584 3314 3078 
Q 3713 2572 3713 1747 
Q 3713 922 3314 415 
Q 2916 -91 2278 -91 
Q 1894 -91 1617 61 
Q 1341 213 1159 525 
z
M 3116 1747 
Q 3116 2381 2855 2742 
Q 2594 3103 2138 3103 
Q 1681 3103 1420 2742 
Q 1159 2381 1159 1747 
Q 1159 1113 1420 752 
Q 1681 391 2138 391 
Q 2594 391 2855 752 
Q 3116 1113 3116 1747 
z
" transform="scale(0.015625)"/>
       <path id="DejaVuSans-75" d="M 544 1381 
L 544 3500 
L 1119 3500 
L 1119 1403 
Q 1119 906 1312 657 
Q 1506 409 1894 409 
Q 2359 409 2629 706 
Q 2900 1003 2900 1516 
L 2900 3500 
L 3475 3500 
L 3475 0 
L 2900 0 
L 2900 538 
Q 2691 219 2414 64 
Q 2138 -91 1772 -91 
Q 1169 -91 856 284 
Q 544 659 544 1381 
z
M 1991 3584 
L 1991 3584 
z
" transform="scale(0.015625)"/>
       <path id="DejaVuSans-6c" d="M 603 4863 
L 1178 4863 
L 1178 0 
L 603 0 
L 603 4863 
z
" transform="scale(0.015625)"/>
       <path id="DejaVuSans-65" d="M 3597 1894 
L 3597 1613 
L 953 1613 
Q 991 1019 1311 708 
Q 1631 397 2203 397 
Q 2534 397 2845 478 
Q 3156 559 3463 722 
L 3463 178 
Q 3153 47 2828 -22 
Q 2503 -91 2169 -91 
Q 1331 -91 842 396 
Q 353 884 353 1716 
Q 353 2575 817 3079 
Q 1281 3584 2069 3584 
Q 2775 3584 3186 3129 
Q 3597 2675 3597 1894 
z
M 3022 2063 
Q 3016 2534 2758 2815 
Q 2500 3097 2075 3097 
Q 1594 3097 1305 2825 
Q 1016 2553 972 2059 
L 3022 2063 
z
" transform="scale(0.015625)"/>
       <path id="DejaVuSans-3a" d="M 750 794 
L 1409 794 
L 1409 0 
L 750 0 
L 750 794 
z
M 750 3309 
L 1409 3309 
L 1409 2516 
L 750 2516 
L 750 3309 
z
" transform="scale(0.015625)"/>
       <path id="DejaVuSans-63" d="M 3122 3366 
L 3122 2828 
Q 2878 2963 2633 3030 
Q 2388 3097 2138 3097 
Q 1578 3097 1268 2742 
Q 959 2388 959 1747 
Q 959 1106 1268 751 
Q 1578 397 2138 397 
Q 2388 397 2633 464 
Q 2878 531 3122 666 
L 3122 134 
Q 2881 22 2623 -34 
Q 2366 -91 2075 -91 
Q 1284 -91 818 406 
Q 353 903 353 1747 
Q 353 2603 823 3093 
Q 1294 3584 2113 3584 
Q 2378 3584 2631 3529 
Q 2884 3475 3122 3366 
z
" transform="scale(0.015625)"/>
       <path id="DejaVuSans-6e" d="M 3513 2113 
L 3513 0 
L 2938 0 
L 2938 2094 
Q 2938 2591 2744 2837 
Q 2550 3084 2163 3084 
Q 1697 3084 1428 2787 
Q 1159 2491 1159 1978 
L 1159 0 
L 581 0 
L 581 3500 
L 1159 3500 
L 1159 2956 
Q 1366 3272 1645 3428 
Q 1925 3584 2291 3584 
Q 2894 3584 3203 3211 
Q 3513 2838 3513 2113 
z
" transform="scale(0.015625)"/>
      </defs>
      <use xlink:href="#DejaVuSans-70"/>
      <use xlink:href="#DejaVuSans-75" transform="translate(63.476562 0)"/>
      <use xlink:href="#DejaVuSans-6c" transform="translate(126.855469 0)"/>
      <use xlink:href="#DejaVuSans-73" transform="translate(154.638672 0)"/>
      <use xlink:href="#DejaVuSans-65" transform="translate(206.738281 0)"/>
      <use xlink:href="#DejaVuSans-3a" transform="translate(268.261719 0)"/>
      <use xlink:href="#DejaVuSans-30" transform="translate(301.953125 0)"/>
      <use xlink:href="#DejaVuSans-20" transform="translate(365.576172 0)"/>
      <use xlink:href="#DejaVuSans-5b" transform="translate(397.363281 0)"/>
      <use xlink:href="#DejaVuSans-63" transform="translate(436.376953 0)"/>
      <use xlink:href="#DejaVuSans-6f" transform="translate(491.357422 0)"/>
      <use xlink:href="#DejaVuSans-75" transform="translate(552.539062 0)"/>
      <use xlink:href="#DejaVuSans-6e" transform="translate(615.917969 0)"/>
      <use xlink:href="#DejaVuSans-74" transform="translate(679.296875 0)"/>
      <use xlink:href="#DejaVuSans-73" transform="translate(718.505859 0)"/>
      <use xlink:href="#DejaVuSans-5d" transform="translate(770.605469 0)"/>
     </g>
    </g>
   </g>
   <g id="line2d_15">
    <path d="M 68.546307 218.817969 
L 71.589943 218.817969 
L 71.589943 218.693908 
L 73.619034 218.755938 
L 73.619034 218.88 
L 75.648125 218.88 
L 75.648125 218.507815 
L 76.66267 218.507815 
L 76.66267 218.755938 
L 79.706307 218.755938 
L 79.706307 218.383754 
L 80.720852 218.383754 
L 80.720852 218.507815 
L 81.735398 218.507815 
L 81.735398 218.383754 
L 83.764489 218.383754 
L 83.764489 218.0736 
L 85.79358 218.0736 
L 85.79358 217.205169 
L 86.808125 217.205169 
L 86.808125 217.639385 
L 87.82267 217.639385 
L 87.82267 216.708923 
L 88.837216 216.708923 
L 88.837216 215.592369 
L 89.851761 215.592369 
L 89.851761 215.034092 
L 90.866307 215.034092 
L 90.866307 213.359262 
L 91.880852 213.359262 
L 91.880852 211.6224 
L 92.895398 211.6224 
L 92.895398 209.451323 
L 93.909943 209.451323 
L 93.909943 205.791508 
L 94.924489 205.791508 
L 94.924489 203.992615 
L 95.939034 203.992615 
L 95.939034 198.223754 
L 96.95358 198.223754 
L 96.95358 189.229292 
L 97.968125 189.229292 
L 97.968125 183.274338 
L 98.98267 183.274338 
L 98.98267 171.178338 
L 99.997216 171.178338 
L 99.997216 157.221415 
L 101.011761 157.221415 
L 101.011761 151.204431 
L 102.026307 151.204431 
L 102.026307 138.550154 
L 103.040852 138.550154 
L 103.040852 126.516185 
L 104.055398 126.516185 
L 104.055398 120.561231 
L 105.069943 120.561231 
L 105.069943 106.542277 
L 106.084489 106.542277 
L 106.084489 103.192615 
L 107.099034 103.192615 
L 107.099034 91.220677 
L 108.11358 91.220677 
L 108.11358 81.729969 
L 109.128125 81.729969 
L 109.128125 77.449846 
L 110.14267 77.449846 
L 110.14267 74.038154 
L 111.157216 74.038154 
L 111.157216 69.882092 
L 112.171761 69.882092 
L 112.171761 62.4384 
L 113.186307 62.4384 
L 113.186307 57.227815 
L 114.200852 57.227815 
L 114.200852 52.203323 
L 115.215398 52.203323 
L 115.215398 50.404431 
L 116.229943 50.404431 
L 116.229943 41.099815 
L 117.244489 41.099815 
L 117.244489 42.712615 
L 118.259034 42.712615 
L 118.259034 35.703138 
L 119.27358 35.703138 
L 119.27358 31.7952 
L 120.288125 31.7952 
L 120.288125 30.740677 
L 121.30267 30.740677 
L 121.30267 30.9888 
L 122.317216 30.9888 
L 122.317216 27.639138 
L 123.331761 27.639138 
L 123.331761 25.964308 
L 124.346307 25.964308 
L 124.346307 21.870277 
L 125.360852 21.870277 
L 125.360852 17.466092 
L 126.375398 17.466092 
L 126.375398 27.391015 
L 127.389943 27.391015 
L 127.389943 22.304492 
L 128.404489 22.304492 
L 128.404489 18.148431 
L 129.419034 18.148431 
L 129.419034 17.28 
L 130.43358 17.28 
L 130.43358 19.451077 
L 131.448125 19.451077 
L 131.448125 20.009354 
L 132.46267 20.009354 
L 132.46267 20.877785 
L 133.477216 20.877785 
L 133.477216 27.328985 
L 134.491761 27.328985 
L 134.491761 22.552615 
L 135.506307 22.552615 
L 135.506307 36.447508 
L 136.520852 36.447508 
L 136.520852 33.283938 
L 137.535398 33.283938 
L 137.535398 35.8272 
L 138.549943 35.8272 
L 138.549943 42.092308 
L 139.564489 42.092308 
L 139.564489 53.940185 
L 140.579034 53.940185 
L 140.579034 52.451446 
L 141.59358 52.451446 
L 141.59358 53.071754 
L 142.608125 53.071754 
L 142.608125 62.190277 
L 143.62267 62.190277 
L 143.62267 60.267323 
L 144.637216 60.267323 
L 144.637216 74.596431 
L 145.651761 74.596431 
L 145.651761 79.993108 
L 146.666307 79.993108 
L 146.666307 85.327754 
L 147.680852 85.327754 
L 147.680852 92.089108 
L 148.695398 92.089108 
L 148.695398 96.555323 
L 149.709943 96.555323 
L 149.709943 109.271631 
L 150.724489 109.271631 
L 150.724489 117.025477 
L 151.739034 117.025477 
L 151.739034 117.335631 
L 152.75358 117.335631 
L 152.75358 122.670277 
L 153.768125 122.670277 
L 153.768125 132.719262 
L 154.78267 132.719262 
L 154.78267 136.999385 
L 155.797216 136.999385 
L 155.797216 144.443077 
L 156.811761 144.443077 
L 156.811761 149.281477 
L 157.826307 149.281477 
L 157.826307 155.422523 
L 158.840852 155.422523 
L 158.840852 157.469538 
L 159.855398 157.469538 
L 159.855398 161.315446 
L 160.869943 161.315446 
L 160.869943 163.920738 
L 161.884489 163.920738 
L 161.884489 169.379446 
L 162.899034 169.379446 
L 162.899034 174.341908 
L 163.91358 174.341908 
L 163.91358 174.217846 
L 164.928125 174.217846 
L 164.928125 182.095754 
L 165.94267 182.095754 
L 165.94267 182.592 
L 166.957216 182.592 
L 166.957216 189.291323 
L 167.971761 189.291323 
L 167.971761 191.834585 
L 168.986307 191.834585 
L 168.986307 194.563938 
L 170.000852 194.563938 
L 170.000852 194.812062 
L 171.015398 194.812062 
L 171.015398 198.347815 
L 172.029943 198.347815 
L 172.029943 202.565908 
L 173.044489 202.565908 
L 173.044489 204.985108 
L 174.059034 204.985108 
L 174.059034 205.791508 
L 175.07358 205.791508 
L 175.07358 209.389292 
L 176.088125 209.389292 
L 176.088125 210.505846 
L 177.10267 210.505846 
L 177.10267 212.987077 
L 178.117216 212.987077 
L 178.117216 214.413785 
L 179.131761 214.413785 
L 179.131761 214.972062 
L 180.146307 214.972062 
L 180.146307 217.019077 
L 181.160852 217.019077 
L 181.160852 217.453292 
L 182.175398 217.453292 
L 182.175398 218.0736 
L 183.189943 218.0736 
L 183.189943 218.321723 
L 184.204489 218.321723 
L 184.204489 218.197662 
L 185.219034 218.197662 
L 185.219034 217.515323 
L 186.23358 217.515323 
L 186.23358 217.763446 
L 187.248125 217.763446 
L 187.248125 217.639385 
L 189.277216 217.639385 
L 189.277216 217.143138 
L 190.291761 217.143138 
L 190.291761 216.522831 
L 191.306307 216.522831 
L 191.306307 216.212677 
L 192.320852 216.212677 
L 192.320852 215.034092 
L 193.335398 215.034092 
L 193.335398 214.289723 
L 194.349943 214.289723 
L 194.349943 212.552862 
L 195.364489 212.552862 
L 195.364489 210.0096 
L 196.379034 210.0096 
L 196.379034 208.893046 
L 197.39358 208.893046 
L 197.39358 207.342277 
L 198.408125 207.342277 
L 198.408125 205.109169 
L 199.42267 205.109169 
L 199.42267 202.938092 
L 200.437216 202.938092 
L 200.437216 201.883569 
L 201.451761 201.883569 
L 201.451761 202.752 
L 202.466307 202.752 
L 202.466307 200.518892 
L 203.480852 200.518892 
L 203.480852 200.891077 
L 204.495398 200.891077 
L 204.495398 198.409846 
L 206.524489 198.347815 
L 206.524489 196.921108 
L 207.539034 196.921108 
L 207.539034 194.874092 
L 208.55358 194.874092 
L 208.55358 197.293292 
L 209.568125 197.293292 
L 209.568125 192.827077 
L 210.58267 192.827077 
L 210.58267 193.0752 
L 211.597216 193.0752 
L 211.597216 192.330831 
L 212.611761 192.330831 
L 212.611761 191.214277 
L 214.640852 191.152246 
L 214.640852 190.842092 
L 215.655398 190.842092 
L 215.655398 190.718031 
L 216.669943 190.718031 
L 216.669943 189.353354 
L 217.684489 189.353354 
L 217.684489 190.097723 
L 218.699034 190.097723 
L 218.699034 188.422892 
L 219.71358 188.422892 
L 219.71358 185.0112 
L 220.728125 185.0112 
L 220.728125 187.988677 
L 221.74267 187.988677 
L 221.74267 183.522462 
L 222.757216 183.522462 
L 222.757216 187.740554 
L 223.771761 187.740554 
L 223.771761 185.507446 
L 224.786307 185.507446 
L 224.786307 185.941662 
L 225.800852 185.941662 
L 225.800852 186.934154 
L 226.815398 186.934154 
L 226.815398 186.499938 
L 227.829943 186.499938 
L 227.829943 184.080738 
L 228.844489 184.080738 
L 228.844489 186.375877 
L 229.859034 186.375877 
L 229.859034 186.624 
L 230.87358 186.624 
L 230.87358 187.616492 
L 231.888125 187.616492 
L 231.888125 189.167262 
L 232.90267 189.167262 
L 232.90267 189.291323 
L 233.917216 189.291323 
L 233.917216 190.469908 
L 234.931761 190.469908 
L 234.931761 189.973662 
L 235.946307 189.973662 
L 235.946307 188.733046 
L 236.960852 188.733046 
L 236.960852 190.966154 
L 237.975398 190.966154 
L 237.975398 192.765046 
L 238.989943 192.765046 
L 238.989943 191.4624 
L 240.004489 191.4624 
L 240.004489 191.214277 
L 241.019034 191.214277 
L 241.019034 190.407877 
L 242.03358 190.407877 
L 242.03358 192.703015 
L 243.048125 192.703015 
L 243.048125 194.191754 
L 244.06267 194.191754 
L 244.06267 191.772554 
L 245.077216 191.772554 
L 245.077216 194.129723 
L 246.091761 194.129723 
L 246.091761 196.921108 
L 247.106307 196.921108 
L 247.106307 194.377846 
L 248.120852 194.377846 
L 248.120852 193.261292 
L 249.135398 193.261292 
L 249.135398 197.9136 
L 250.149943 197.9136 
L 250.149943 196.983138 
L 251.164489 196.983138 
L 251.164489 194.005662 
L 252.179034 194.005662 
L 252.179034 197.169231 
L 253.19358 197.169231 
L 253.19358 196.610954 
L 254.208125 196.610954 
L 254.208125 197.665477 
L 255.22267 197.665477 
L 255.22267 196.486892 
L 256.237216 196.486892 
L 256.237216 197.665477 
L 257.251761 197.665477 
L 257.251761 197.231262 
L 258.266307 197.231262 
L 258.266307 198.72 
L 259.280852 198.72 
L 259.280852 200.270769 
L 260.295398 200.270769 
L 260.295398 200.829046 
L 261.309943 200.829046 
L 261.309943 198.037662 
L 262.324489 198.037662 
L 262.324489 199.650462 
L 263.339034 199.650462 
L 263.339034 199.154215 
L 264.35358 199.154215 
L 264.35358 200.580923 
L 265.368125 200.580923 
L 265.368125 199.588431 
L 266.38267 199.588431 
L 266.38267 201.1392 
L 267.397216 201.1392 
L 267.397216 200.704985 
L 268.411761 200.704985 
L 268.411761 201.821538 
L 269.426307 201.821538 
L 269.426307 203.806523 
L 270.440852 203.806523 
L 270.440852 202.007631 
L 272.469943 202.069662 
L 272.469943 204.302769 
L 273.484489 204.302769 
L 273.484489 202.379815 
L 274.499034 202.379815 
L 274.499034 202.193723 
L 275.51358 202.193723 
L 275.51358 203.000123 
L 276.528125 203.000123 
L 276.528125 202.814031 
L 277.54267 202.814031 
L 277.54267 203.186215 
L 278.557216 203.186215 
L 278.557216 203.744492 
L 279.571761 203.744492 
L 279.571761 203.930585 
L 280.586307 203.930585 
L 280.586307 202.752 
L 281.600852 202.752 
L 281.600852 203.496369 
L 282.615398 203.496369 
L 282.615398 203.992615 
L 283.629943 203.992615 
L 283.629943 204.736985 
L 284.644489 204.736985 
L 284.644489 204.923077 
L 286.67358 204.923077 
L 286.67358 205.605415 
L 287.688125 205.605415 
L 287.688125 205.357292 
L 288.70267 205.357292 
L 288.70267 205.543385 
L 289.717216 205.543385 
L 289.717216 204.488862 
L 290.731761 204.488862 
L 290.731761 206.349785 
L 291.746307 206.349785 
L 291.746307 206.163692 
L 292.760852 206.163692 
L 292.760852 205.481354 
L 293.775398 205.481354 
L 293.775398 205.047138 
L 294.789943 205.047138 
L 294.789943 207.652431 
L 295.804489 207.652431 
L 295.804489 206.970092 
L 296.819034 206.970092 
L 296.819034 206.411815 
L 297.83358 206.411815 
L 297.83358 207.032123 
L 298.848125 207.032123 
L 298.848125 207.404308 
L 299.86267 207.404308 
L 299.86267 206.597908 
L 300.877216 206.597908 
L 300.877216 207.404308 
L 301.891761 207.404308 
L 301.891761 208.3968 
L 302.906307 208.3968 
L 302.906307 208.644923 
L 304.935398 208.644923 
L 304.935398 208.893046 
L 305.949943 208.893046 
L 305.949943 207.280246 
L 306.964489 207.280246 
L 306.964489 207.776492 
L 307.979034 207.776492 
L 307.979034 209.141169 
L 308.99358 209.141169 
L 308.99358 208.210708 
L 311.02267 208.210708 
L 311.02267 208.644923 
L 312.037216 208.644923 
L 312.037216 208.334769 
L 313.051761 208.334769 
L 313.051761 209.637415 
L 314.066307 209.637415 
L 314.066307 209.885538 
L 315.080852 209.885538 
L 315.080852 209.141169 
L 317.109943 209.079138 
L 317.109943 210.381785 
L 318.124489 210.381785 
L 318.124489 209.699446 
L 319.139034 209.699446 
L 319.139034 208.706954 
L 320.15358 208.706954 
L 320.15358 209.699446 
L 321.168125 209.699446 
L 321.168125 210.071631 
L 322.18267 210.071631 
L 322.18267 210.319754 
L 323.197216 210.319754 
L 323.197216 209.885538 
L 324.211761 209.885538 
L 324.211761 208.831015 
L 325.226307 208.831015 
L 325.226307 210.257723 
L 326.240852 210.257723 
L 326.240852 209.637415 
L 327.255398 209.637415 
L 327.255398 210.195692 
L 328.269943 210.195692 
L 328.269943 211.126154 
L 329.284489 211.126154 
L 329.284489 211.002092 
L 330.299034 211.002092 
L 330.299034 211.808492 
L 331.31358 211.808492 
L 331.31358 210.691938 
L 332.328125 210.691938 
L 332.328125 210.505846 
L 333.34267 210.505846 
L 333.34267 212.366769 
L 334.357216 212.366769 
L 334.357216 211.560369 
L 335.371761 211.560369 
L 335.371761 211.002092 
L 336.386307 211.002092 
L 336.386307 211.994585 
L 337.400852 211.994585 
L 337.400852 213.917538 
L 338.415398 213.917538 
L 338.415398 213.2352 
L 339.429943 213.2352 
L 339.429943 212.242708 
L 340.444489 212.242708 
L 340.444489 212.925046 
L 341.459034 212.925046 
L 341.459034 214.165662 
L 342.47358 214.165662 
L 342.47358 213.979569 
L 343.488125 213.979569 
L 343.488125 214.537846 
L 344.50267 214.537846 
L 344.50267 214.165662 
L 345.517216 214.165662 
L 345.517216 213.855508 
L 346.531761 213.855508 
L 346.531761 214.723938 
L 347.546307 214.723938 
L 347.546307 215.034092 
L 348.560852 215.034092 
L 348.560852 215.530338 
L 349.575398 215.530338 
L 349.575398 215.220185 
L 350.589943 215.220185 
L 350.589943 216.274708 
L 351.604489 216.274708 
L 351.604489 215.344246 
L 352.619034 215.344246 
L 352.619034 216.770954 
L 353.63358 216.770954 
L 353.63358 216.274708 
L 354.648125 216.274708 
L 354.648125 216.522831 
L 355.66267 216.522831 
L 355.66267 215.964554 
L 356.677216 215.964554 
L 356.677216 216.895015 
L 357.691761 216.895015 
L 357.691761 216.646892 
L 358.706307 216.646892 
L 358.706307 217.515323 
L 359.720852 217.515323 
L 359.720852 217.391262 
L 360.735398 217.391262 
L 360.735398 217.019077 
L 361.749943 217.019077 
L 361.749943 217.329231 
L 362.764489 217.329231 
L 362.764489 218.135631 
L 363.779034 218.135631 
L 363.779034 217.825477 
L 364.79358 217.825477 
L 364.79358 218.197662 
L 366.82267 218.135631 
L 366.82267 218.321723 
L 368.851761 218.383754 
L 368.851761 218.755938 
L 370.880852 218.755938 
L 370.880852 218.88 
L 371.895398 218.88 
L 371.895398 218.693908 
L 372.909943 218.693908 
L 372.909943 218.693908 
" clip-path="url(#peeb5e619ed)" style="fill: none; stroke: #1f77b4; stroke-width: 1.5; stroke-linecap: square"/>
   </g>
   <g id="patch_3">
    <path d="M 53.328125 228.96 
L 53.328125 7.2 
" style="fill: none; stroke: #000000; stroke-width: 0.8; stroke-linejoin: miter; stroke-linecap: square"/>
   </g>
   <g id="patch_4">
    <path d="M 388.128125 228.96 
L 388.128125 7.2 
" style="fill: none; stroke: #000000; stroke-width: 0.8; stroke-linejoin: miter; stroke-linecap: square"/>
   </g>
   <g id="patch_5">
    <path d="M 53.328125 228.96 
L 388.128125 228.96 
" style="fill: none; stroke: #000000; stroke-width: 0.8; stroke-linejoin: miter; stroke-linecap: square"/>
   </g>
   <g id="patch_6">
    <path d="M 53.328125 7.2 
L 388.128125 7.2 
" style="fill: none; stroke: #000000; stroke-width: 0.8; stroke-linejoin: miter; stroke-linecap: square"/>
   </g>
  </g>
 </g>
 <defs>
  <clipPath id="peeb5e619ed">
   <rect x="53.328125" y="7.2" width="334.8" height="221.76"/>
  </clipPath>
 </defs>
</svg>
