<?xml version="1.0" encoding="utf-8" standalone="no"?>
<!DOCTYPE svg PUBLIC "-//W3C//DTD SVG 1.1//EN"
  "http://www.w3.org/Graphics/SVG/1.1/DTD/svg11.dtd">
<svg xmlns:xlink="http://www.w3.org/1999/xlink" width="872.39952pt" height="296.39952pt" viewBox="0 0 872.39952 296.39952" xmlns="http://www.w3.org/2000/svg" version="1.1">
 <metadata>
  <rdf:RDF xmlns:dc="http://purl.org/dc/elements/1.1/" xmlns:cc="http://creativecommons.org/ns#" xmlns:rdf="http://www.w3.org/1999/02/22-rdf-syntax-ns#">
   <cc:Work>
    <dc:type rdf:resource="http://purl.org/dc/dcmitype/StillImage"/>
    <dc:date>2025-11-13T11:11:46.620063</dc:date>
    <dc:format>image/svg+xml</dc:format>
    <dc:creator>
     <cc:Agent>
      <dc:title>Matplotlib v3.10.7, https://matplotlib.org/</dc:title>
     </cc:Agent>
    </dc:creator>
   </cc:Work>
  </rdf:RDF>
 </metadata>
 <defs>
  <style type="text/css">*{stroke-linejoin: round; stroke-linecap: butt}</style>
 </defs>
 <g id="figure_1">
  <g id="patch_1">
   <path d="M 0 296.39952 
L 872.39952 296.39952 
L 872.39952 0 
L 0 0 
z
" style="fill: #ffffff"/>
  </g>
  <g id="axes_1">
   <g id="patch_2">
    <path d="M 53.328125 257.158895 
L 414.59976 257.158895 
L 414.59976 7.2 
L 53.328125 7.2 
z
" style="fill: #ffffff"/>
   </g>
   <g id="matplotlib.axis_1">
    <g id="xtick_1">
     <g id="line2d_1">
      <defs>
       <path id="m0fe7b76b92" d="M 0 0 
L 0 3.5 
" style="stroke: #000000; stroke-width: 0.8"/>
      </defs>
      <g>
       <use xlink:href="#m0fe7b76b92" x="115.464783" y="257.158895" style="stroke: #000000; stroke-width: 0.8"/>
      </g>
     </g>
     <g id="text_1">
      <!-- 30000 -->
      <g transform="translate(99.558533 271.757332) scale(0.1 -0.1)">
       <defs>
        <path id="DejaVuSans-33" d="M 2597 2516 
Q 3050 2419 3304 2112 
Q 3559 1806 3559 1356 
Q 3559 666 3084 287 
Q 2609 -91 1734 -91 
Q 1441 -91 1130 -33 
Q 819 25 488 141 
L 488 750 
Q 750 597 1062 519 
Q 1375 441 1716 441 
Q 2309 441 2620 675 
Q 2931 909 2931 1356 
Q 2931 1769 2642 2001 
Q 2353 2234 1838 2234 
L 1294 2234 
L 1294 2753 
L 1863 2753 
Q 2328 2753 2575 2939 
Q 2822 3125 2822 3475 
Q 2822 3834 2567 4026 
Q 2313 4219 1838 4219 
Q 1578 4219 1281 4162 
Q 984 4106 628 3988 
L 628 4550 
Q 988 4650 1302 4700 
Q 1616 4750 1894 4750 
Q 2613 4750 3031 4423 
Q 3450 4097 3450 3541 
Q 3450 3153 3228 2886 
Q 3006 2619 2597 2516 
z
" transform="scale(0.015625)"/>
        <path id="DejaVuSans-30" d="M 2034 4250 
Q 1547 4250 1301 3770 
Q 1056 3291 1056 2328 
Q 1056 1369 1301 889 
Q 1547 409 2034 409 
Q 2525 409 2770 889 
Q 3016 1369 3016 2328 
Q 3016 3291 2770 3770 
Q 2525 4250 2034 4250 
z
M 2034 4750 
Q 2819 4750 3233 4129 
Q 3647 3509 3647 2328 
Q 3647 1150 3233 529 
Q 2819 -91 2034 -91 
Q 1250 -91 836 529 
Q 422 1150 422 2328 
Q 422 3509 836 4129 
Q 1250 4750 2034 4750 
z
" transform="scale(0.015625)"/>
       </defs>
       <use xlink:href="#DejaVuSans-33"/>
       <use xlink:href="#DejaVuSans-30" transform="translate(63.623047 0)"/>
       <use xlink:href="#DejaVuSans-30" transform="translate(127.246094 0)"/>
       <use xlink:href="#DejaVuSans-30" transform="translate(190.869141 0)"/>
       <use xlink:href="#DejaVuSans-30" transform="translate(254.492188 0)"/>
      </g>
     </g>
    </g>
    <g id="xtick_2">
     <g id="line2d_2">
      <g>
       <use xlink:href="#m0fe7b76b92" x="178.362532" y="257.158895" style="stroke: #000000; stroke-width: 0.8"/>
      </g>
     </g>
     <g id="text_2">
      <!-- 40000 -->
      <g transform="translate(162.456282 271.757332) scale(0.1 -0.1)">
       <defs>
        <path id="DejaVuSans-34" d="M 2419 4116 
L 825 1625 
L 2419 1625 
L 2419 4116 
z
M 2253 4666 
L 3047 4666 
L 3047 1625 
L 3713 1625 
L 3713 1100 
L 3047 1100 
L 3047 0 
L 2419 0 
L 2419 1100 
L 313 1100 
L 313 1709 
L 2253 4666 
z
" transform="scale(0.015625)"/>
       </defs>
       <use xlink:href="#DejaVuSans-34"/>
       <use xlink:href="#DejaVuSans-30" transform="translate(63.623047 0)"/>
       <use xlink:href="#DejaVuSans-30" transform="translate(127.246094 0)"/>
       <use xlink:href="#DejaVuSans-30" transform="translate(190.869141 0)"/>
       <use xlink:href="#DejaVuSans-30" transform="translate(254.492188 0)"/>
      </g>
     </g>
    </g>
    <g id="xtick_3">
     <g id="line2d_3">
      <g>
       <use xlink:href="#m0fe7b76b92" x="241.260281" y="257.158895" style="stroke: #000000; stroke-width: 0.8"/>
      </g>
     </g>
     <g id="text_3">
      <!-- 50000 -->
      <g transform="translate(225.354031 271.757332) scale(0.1 -0.1)">
       <defs>
        <path id="DejaVuSans-35" d="M 691 4666 
L 3169 4666 
L 3169 4134 
L 1269 4134 
L 1269 2991 
Q 1406 3038 1543 3061 
Q 1681 3084 1819 3084 
Q 2600 3084 3056 2656 
Q 3513 2228 3513 1497 
Q 3513 744 3044 326 
Q 2575 -91 1722 -91 
Q 1428 -91 1123 -41 
Q 819 9 494 109 
L 494 744 
Q 775 591 1075 516 
Q 1375 441 1709 441 
Q 2250 441 2565 725 
Q 2881 1009 2881 1497 
Q 2881 1984 2565 2268 
Q 2250 2553 1709 2553 
Q 1456 2553 1204 2497 
Q 953 2441 691 2322 
L 691 4666 
z
" transform="scale(0.015625)"/>
       </defs>
       <use xlink:href="#DejaVuSans-35"/>
       <use xlink:href="#DejaVuSans-30" transform="translate(63.623047 0)"/>
       <use xlink:href="#DejaVuSans-30" transform="translate(127.246094 0)"/>
       <use xlink:href="#DejaVuSans-30" transform="translate(190.869141 0)"/>
       <use xlink:href="#DejaVuSans-30" transform="translate(254.492188 0)"/>
      </g>
     </g>
    </g>
    <g id="xtick_4">
     <g id="line2d_4">
      <g>
       <use xlink:href="#m0fe7b76b92" x="304.158029" y="257.158895" style="stroke: #000000; stroke-width: 0.8"/>
      </g>
     </g>
     <g id="text_4">
      <!-- 60000 -->
      <g transform="translate(288.251779 271.757332) scale(0.1 -0.1)">
       <defs>
        <path id="DejaVuSans-36" d="M 2113 2584 
Q 1688 2584 1439 2293 
Q 1191 2003 1191 1497 
Q 1191 994 1439 701 
Q 1688 409 2113 409 
Q 2538 409 2786 701 
Q 3034 994 3034 1497 
Q 3034 2003 2786 2293 
Q 2538 2584 2113 2584 
z
M 3366 4563 
L 3366 3988 
Q 3128 4100 2886 4159 
Q 2644 4219 2406 4219 
Q 1781 4219 1451 3797 
Q 1122 3375 1075 2522 
Q 1259 2794 1537 2939 
Q 1816 3084 2150 3084 
Q 2853 3084 3261 2657 
Q 3669 2231 3669 1497 
Q 3669 778 3244 343 
Q 2819 -91 2113 -91 
Q 1303 -91 875 529 
Q 447 1150 447 2328 
Q 447 3434 972 4092 
Q 1497 4750 2381 4750 
Q 2619 4750 2861 4703 
Q 3103 4656 3366 4563 
z
" transform="scale(0.015625)"/>
       </defs>
       <use xlink:href="#DejaVuSans-36"/>
       <use xlink:href="#DejaVuSans-30" transform="translate(63.623047 0)"/>
       <use xlink:href="#DejaVuSans-30" transform="translate(127.246094 0)"/>
       <use xlink:href="#DejaVuSans-30" transform="translate(190.869141 0)"/>
       <use xlink:href="#DejaVuSans-30" transform="translate(254.492188 0)"/>
      </g>
     </g>
    </g>
    <g id="xtick_5">
     <g id="line2d_5">
      <g>
       <use xlink:href="#m0fe7b76b92" x="367.055778" y="257.158895" style="stroke: #000000; stroke-width: 0.8"/>
      </g>
     </g>
     <g id="text_5">
      <!-- 70000 -->
      <g transform="translate(351.149528 271.757332) scale(0.1 -0.1)">
       <defs>
        <path id="DejaVuSans-37" d="M 525 4666 
L 3525 4666 
L 3525 4397 
L 1831 0 
L 1172 0 
L 2766 4134 
L 525 4134 
L 525 4666 
z
" transform="scale(0.015625)"/>
       </defs>
       <use xlink:href="#DejaVuSans-37"/>
       <use xlink:href="#DejaVuSans-30" transform="translate(63.623047 0)"/>
       <use xlink:href="#DejaVuSans-30" transform="translate(127.246094 0)"/>
       <use xlink:href="#DejaVuSans-30" transform="translate(190.869141 0)"/>
       <use xlink:href="#DejaVuSans-30" transform="translate(254.492188 0)"/>
      </g>
     </g>
    </g>
    <g id="text_6">
     <!-- toa [µs] -->
     <g transform="translate(214.603786 285.435457) scale(0.1 -0.1)">
      <defs>
       <path id="DejaVuSans-74" d="M 1172 4494 
L 1172 3500 
L 2356 3500 
L 2356 3053 
L 1172 3053 
L 1172 1153 
Q 1172 725 1289 603 
Q 1406 481 1766 481 
L 2356 481 
L 2356 0 
L 1766 0 
Q 1100 0 847 248 
Q 594 497 594 1153 
L 594 3053 
L 172 3053 
L 172 3500 
L 594 3500 
L 594 4494 
L 1172 4494 
z
" transform="scale(0.015625)"/>
       <path id="DejaVuSans-6f" d="M 1959 3097 
Q 1497 3097 1228 2736 
Q 959 2375 959 1747 
Q 959 1119 1226 758 
Q 1494 397 1959 397 
Q 2419 397 2687 759 
Q 2956 1122 2956 1747 
Q 2956 2369 2687 2733 
Q 2419 3097 1959 3097 
z
M 1959 3584 
Q 2709 3584 3137 3096 
Q 3566 2609 3566 1747 
Q 3566 888 3137 398 
Q 2709 -91 1959 -91 
Q 1206 -91 779 398 
Q 353 888 353 1747 
Q 353 2609 779 3096 
Q 1206 3584 1959 3584 
z
" transform="scale(0.015625)"/>
       <path id="DejaVuSans-61" d="M 2194 1759 
Q 1497 1759 1228 1600 
Q 959 1441 959 1056 
Q 959 750 1161 570 
Q 1363 391 1709 391 
Q 2188 391 2477 730 
Q 2766 1069 2766 1631 
L 2766 1759 
L 2194 1759 
z
M 3341 1997 
L 3341 0 
L 2766 0 
L 2766 531 
Q 2569 213 2275 61 
Q 1981 -91 1556 -91 
Q 1019 -91 701 211 
Q 384 513 384 1019 
Q 384 1609 779 1909 
Q 1175 2209 1959 2209 
L 2766 2209 
L 2766 2266 
Q 2766 2663 2505 2880 
Q 2244 3097 1772 3097 
Q 1472 3097 1187 3025 
Q 903 2953 641 2809 
L 641 3341 
Q 956 3463 1253 3523 
Q 1550 3584 1831 3584 
Q 2591 3584 2966 3190 
Q 3341 2797 3341 1997 
z
" transform="scale(0.015625)"/>
       <path id="DejaVuSans-20" transform="scale(0.015625)"/>
       <path id="DejaVuSans-5b" d="M 550 4863 
L 1875 4863 
L 1875 4416 
L 1125 4416 
L 1125 -397 
L 1875 -397 
L 1875 -844 
L 550 -844 
L 550 4863 
z
" transform="scale(0.015625)"/>
       <path id="DejaVuSans-b5" d="M 544 -1331 
L 544 3500 
L 1119 3500 
L 1119 1325 
Q 1119 872 1334 640 
Q 1550 409 1972 409 
Q 2434 409 2667 671 
Q 2900 934 2900 1459 
L 2900 3500 
L 3475 3500 
L 3475 806 
Q 3475 619 3529 530 
Q 3584 441 3700 441 
Q 3728 441 3778 458 
Q 3828 475 3916 513 
L 3916 50 
Q 3788 -22 3673 -56 
Q 3559 -91 3450 -91 
Q 3234 -91 3106 31 
Q 2978 153 2931 403 
Q 2775 156 2548 32 
Q 2322 -91 2016 -91 
Q 1697 -91 1473 31 
Q 1250 153 1119 397 
L 1119 -1331 
L 544 -1331 
z
" transform="scale(0.015625)"/>
       <path id="DejaVuSans-73" d="M 2834 3397 
L 2834 2853 
Q 2591 2978 2328 3040 
Q 2066 3103 1784 3103 
Q 1356 3103 1142 2972 
Q 928 2841 928 2578 
Q 928 2378 1081 2264 
Q 1234 2150 1697 2047 
L 1894 2003 
Q 2506 1872 2764 1633 
Q 3022 1394 3022 966 
Q 3022 478 2636 193 
Q 2250 -91 1575 -91 
Q 1294 -91 989 -36 
Q 684 19 347 128 
L 347 722 
Q 666 556 975 473 
Q 1284 391 1588 391 
Q 1994 391 2212 530 
Q 2431 669 2431 922 
Q 2431 1156 2273 1281 
Q 2116 1406 1581 1522 
L 1381 1569 
Q 847 1681 609 1914 
Q 372 2147 372 2553 
Q 372 3047 722 3315 
Q 1072 3584 1716 3584 
Q 2034 3584 2315 3537 
Q 2597 3491 2834 3397 
z
" transform="scale(0.015625)"/>
       <path id="DejaVuSans-5d" d="M 1947 4863 
L 1947 -844 
L 622 -844 
L 622 -397 
L 1369 -397 
L 1369 4416 
L 622 4416 
L 622 4863 
L 1947 4863 
z
" transform="scale(0.015625)"/>
      </defs>
      <use xlink:href="#DejaVuSans-74"/>
      <use xlink:href="#DejaVuSans-6f" transform="translate(39.208984 0)"/>
      <use xlink:href="#DejaVuSans-61" transform="translate(100.390625 0)"/>
      <use xlink:href="#DejaVuSans-20" transform="translate(161.669922 0)"/>
      <use xlink:href="#DejaVuSans-5b" transform="translate(193.457031 0)"/>
      <use xlink:href="#DejaVuSans-b5" transform="translate(232.470703 0)"/>
      <use xlink:href="#DejaVuSans-73" transform="translate(296.09375 0)"/>
      <use xlink:href="#DejaVuSans-5d" transform="translate(348.193359 0)"/>
     </g>
    </g>
   </g>
   <g id="matplotlib.axis_2">
    <g id="ytick_1">
     <g id="line2d_6">
      <defs>
       <path id="m1d84ae3695" d="M 0 0 
L -3.5 0 
" style="stroke: #000000; stroke-width: 0.8"/>
      </defs>
      <g>
       <use xlink:href="#m1d84ae3695" x="53.328125" y="245.797127" style="stroke: #000000; stroke-width: 0.8"/>
      </g>
     </g>
     <g id="text_7">
      <!-- 0 -->
      <g transform="translate(39.965625 249.596346) scale(0.1 -0.1)">
       <use xlink:href="#DejaVuSans-30"/>
      </g>
     </g>
    </g>
    <g id="ytick_2">
     <g id="line2d_7">
      <g>
       <use xlink:href="#m1d84ae3695" x="53.328125" y="199.872438" style="stroke: #000000; stroke-width: 0.8"/>
      </g>
     </g>
     <g id="text_8">
      <!-- 500 -->
      <g transform="translate(27.240625 203.671657) scale(0.1 -0.1)">
       <use xlink:href="#DejaVuSans-35"/>
       <use xlink:href="#DejaVuSans-30" transform="translate(63.623047 0)"/>
       <use xlink:href="#DejaVuSans-30" transform="translate(127.246094 0)"/>
      </g>
     </g>
    </g>
    <g id="ytick_3">
     <g id="line2d_8">
      <g>
       <use xlink:href="#m1d84ae3695" x="53.328125" y="153.94775" style="stroke: #000000; stroke-width: 0.8"/>
      </g>
     </g>
     <g id="text_9">
      <!-- 1000 -->
      <g transform="translate(20.878125 157.746969) scale(0.1 -0.1)">
       <defs>
        <path id="DejaVuSans-31" d="M 794 531 
L 1825 531 
L 1825 4091 
L 703 3866 
L 703 4441 
L 1819 4666 
L 2450 4666 
L 2450 531 
L 3481 531 
L 3481 0 
L 794 0 
L 794 531 
z
" transform="scale(0.015625)"/>
       </defs>
       <use xlink:href="#DejaVuSans-31"/>
       <use xlink:href="#DejaVuSans-30" transform="translate(63.623047 0)"/>
       <use xlink:href="#DejaVuSans-30" transform="translate(127.246094 0)"/>
       <use xlink:href="#DejaVuSans-30" transform="translate(190.869141 0)"/>
      </g>
     </g>
    </g>
    <g id="ytick_4">
     <g id="line2d_9">
      <g>
       <use xlink:href="#m1d84ae3695" x="53.328125" y="108.023061" style="stroke: #000000; stroke-width: 0.8"/>
      </g>
     </g>
     <g id="text_10">
      <!-- 1500 -->
      <g transform="translate(20.878125 111.82228) scale(0.1 -0.1)">
       <use xlink:href="#DejaVuSans-31"/>
       <use xlink:href="#DejaVuSans-35" transform="translate(63.623047 0)"/>
       <use xlink:href="#DejaVuSans-30" transform="translate(127.246094 0)"/>
       <use xlink:href="#DejaVuSans-30" transform="translate(190.869141 0)"/>
      </g>
     </g>
    </g>
    <g id="ytick_5">
     <g id="line2d_10">
      <g>
       <use xlink:href="#m1d84ae3695" x="53.328125" y="62.098373" style="stroke: #000000; stroke-width: 0.8"/>
      </g>
     </g>
     <g id="text_11">
      <!-- 2000 -->
      <g transform="translate(20.878125 65.897591) scale(0.1 -0.1)">
       <defs>
        <path id="DejaVuSans-32" d="M 1228 531 
L 3431 531 
L 3431 0 
L 469 0 
L 469 531 
Q 828 903 1448 1529 
Q 2069 2156 2228 2338 
Q 2531 2678 2651 2914 
Q 2772 3150 2772 3378 
Q 2772 3750 2511 3984 
Q 2250 4219 1831 4219 
Q 1534 4219 1204 4116 
Q 875 4013 500 3803 
L 500 4441 
Q 881 4594 1212 4672 
Q 1544 4750 1819 4750 
Q 2544 4750 2975 4387 
Q 3406 4025 3406 3419 
Q 3406 3131 3298 2873 
Q 3191 2616 2906 2266 
Q 2828 2175 2409 1742 
Q 1991 1309 1228 531 
z
" transform="scale(0.015625)"/>
       </defs>
       <use xlink:href="#DejaVuSans-32"/>
       <use xlink:href="#DejaVuSans-30" transform="translate(63.623047 0)"/>
       <use xlink:href="#DejaVuSans-30" transform="translate(127.246094 0)"/>
       <use xlink:href="#DejaVuSans-30" transform="translate(190.869141 0)"/>
      </g>
     </g>
    </g>
    <g id="ytick_6">
     <g id="line2d_11">
      <g>
       <use xlink:href="#m1d84ae3695" x="53.328125" y="16.173684" style="stroke: #000000; stroke-width: 0.8"/>
      </g>
     </g>
     <g id="text_12">
      <!-- 2500 -->
      <g transform="translate(20.878125 19.972903) scale(0.1 -0.1)">
       <use xlink:href="#DejaVuSans-32"/>
       <use xlink:href="#DejaVuSans-35" transform="translate(63.623047 0)"/>
       <use xlink:href="#DejaVuSans-30" transform="translate(127.246094 0)"/>
       <use xlink:href="#DejaVuSans-30" transform="translate(190.869141 0)"/>
      </g>
     </g>
    </g>
    <g id="text_13">
     <!-- pulse:0 [counts] -->
     <g transform="translate(14.798438 172.659916) rotate(-90) scale(0.1 -0.1)">
      <defs>
       <path id="DejaVuSans-70" d="M 1159 525 
L 1159 -1331 
L 581 -1331 
L 581 3500 
L 1159 3500 
L 1159 2969 
Q 1341 3281 1617 3432 
Q 1894 3584 2278 3584 
Q 2916 3584 3314 3078 
Q 3713 2572 3713 1747 
Q 3713 922 3314 415 
Q 2916 -91 2278 -91 
Q 1894 -91 1617 61 
Q 1341 213 1159 525 
z
M 3116 1747 
Q 3116 2381 2855 2742 
Q 2594 3103 2138 3103 
Q 1681 3103 1420 2742 
Q 1159 2381 1159 1747 
Q 1159 1113 1420 752 
Q 1681 391 2138 391 
Q 2594 391 2855 752 
Q 3116 1113 3116 1747 
z
" transform="scale(0.015625)"/>
       <path id="DejaVuSans-75" d="M 544 1381 
L 544 3500 
L 1119 3500 
L 1119 1403 
Q 1119 906 1312 657 
Q 1506 409 1894 409 
Q 2359 409 2629 706 
Q 2900 1003 2900 1516 
L 2900 3500 
L 3475 3500 
L 3475 0 
L 2900 0 
L 2900 538 
Q 2691 219 2414 64 
Q 2138 -91 1772 -91 
Q 1169 -91 856 284 
Q 544 659 544 1381 
z
M 1991 3584 
L 1991 3584 
z
" transform="scale(0.015625)"/>
       <path id="DejaVuSans-6c" d="M 603 4863 
L 1178 4863 
L 1178 0 
L 603 0 
L 603 4863 
z
" transform="scale(0.015625)"/>
       <path id="DejaVuSans-65" d="M 3597 1894 
L 3597 1613 
L 953 1613 
Q 991 1019 1311 708 
Q 1631 397 2203 397 
Q 2534 397 2845 478 
Q 3156 559 3463 722 
L 3463 178 
Q 3153 47 2828 -22 
Q 2503 -91 2169 -91 
Q 1331 -91 842 396 
Q 353 884 353 1716 
Q 353 2575 817 3079 
Q 1281 3584 2069 3584 
Q 2775 3584 3186 3129 
Q 3597 2675 3597 1894 
z
M 3022 2063 
Q 3016 2534 2758 2815 
Q 2500 3097 2075 3097 
Q 1594 3097 1305 2825 
Q 1016 2553 972 2059 
L 3022 2063 
z
" transform="scale(0.015625)"/>
       <path id="DejaVuSans-3a" d="M 750 794 
L 1409 794 
L 1409 0 
L 750 0 
L 750 794 
z
M 750 3309 
L 1409 3309 
L 1409 2516 
L 750 2516 
L 750 3309 
z
" transform="scale(0.015625)"/>
       <path id="DejaVuSans-63" d="M 3122 3366 
L 3122 2828 
Q 2878 2963 2633 3030 
Q 2388 3097 2138 3097 
Q 1578 3097 1268 2742 
Q 959 2388 959 1747 
Q 959 1106 1268 751 
Q 1578 397 2138 397 
Q 2388 397 2633 464 
Q 2878 531 3122 666 
L 3122 134 
Q 2881 22 2623 -34 
Q 2366 -91 2075 -91 
Q 1284 -91 818 406 
Q 353 903 353 1747 
Q 353 2603 823 3093 
Q 1294 3584 2113 3584 
Q 2378 3584 2631 3529 
Q 2884 3475 3122 3366 
z
" transform="scale(0.015625)"/>
       <path id="DejaVuSans-6e" d="M 3513 2113 
L 3513 0 
L 2938 0 
L 2938 2094 
Q 2938 2591 2744 2837 
Q 2550 3084 2163 3084 
Q 1697 3084 1428 2787 
Q 1159 2491 1159 1978 
L 1159 0 
L 581 0 
L 581 3500 
L 1159 3500 
L 1159 2956 
Q 1366 3272 1645 3428 
Q 1925 3584 2291 3584 
Q 2894 3584 3203 3211 
Q 3513 2838 3513 2113 
z
" transform="scale(0.015625)"/>
      </defs>
      <use xlink:href="#DejaVuSans-70"/>
      <use xlink:href="#DejaVuSans-75" transform="translate(63.476562 0)"/>
      <use xlink:href="#DejaVuSans-6c" transform="translate(126.855469 0)"/>
      <use xlink:href="#DejaVuSans-73" transform="translate(154.638672 0)"/>
      <use xlink:href="#DejaVuSans-65" transform="translate(206.738281 0)"/>
      <use xlink:href="#DejaVuSans-3a" transform="translate(268.261719 0)"/>
      <use xlink:href="#DejaVuSans-30" transform="translate(301.953125 0)"/>
      <use xlink:href="#DejaVuSans-20" transform="translate(365.576172 0)"/>
      <use xlink:href="#DejaVuSans-5b" transform="translate(397.363281 0)"/>
      <use xlink:href="#DejaVuSans-63" transform="translate(436.376953 0)"/>
      <use xlink:href="#DejaVuSans-6f" transform="translate(491.357422 0)"/>
      <use xlink:href="#DejaVuSans-75" transform="translate(552.539062 0)"/>
      <use xlink:href="#DejaVuSans-6e" transform="translate(615.917969 0)"/>
      <use xlink:href="#DejaVuSans-74" transform="translate(679.296875 0)"/>
      <use xlink:href="#DejaVuSans-73" transform="translate(718.505859 0)"/>
      <use xlink:href="#DejaVuSans-5d" transform="translate(770.605469 0)"/>
     </g>
    </g>
   </g>
   <g id="line2d_12">
    <path d="M 69.749563 245.154181 
L 70.844325 245.154181 
L 70.844325 243.684591 
L 71.939088 243.684591 
L 71.939088 240.102466 
L 73.033851 240.102466 
L 73.033851 227.61095 
L 74.128613 227.61095 
L 74.128613 196.65771 
L 75.223376 196.65771 
L 75.223376 157.070629 
L 76.318138 157.070629 
L 76.318138 149.171582 
L 77.412901 149.171582 
L 77.412901 130.618008 
L 78.507663 130.618008 
L 78.507663 128.689171 
L 79.602426 128.689171 
L 79.602426 110.411145 
L 80.697188 110.411145 
L 80.697188 105.543128 
L 81.791951 105.543128 
L 81.791951 100.399563 
L 82.886713 100.399563 
L 82.886713 93.051613 
L 83.981476 93.051613 
L 83.981476 77.804616 
L 85.076238 77.804616 
L 85.076238 81.937838 
L 86.171001 81.937838 
L 86.171001 76.977972 
L 87.265763 76.977972 
L 87.265763 62.373921 
L 88.360526 62.373921 
L 88.360526 65.313101 
L 89.455288 65.313101 
L 89.455288 50.617201 
L 90.550051 50.617201 
L 90.550051 45.932882 
L 91.644814 45.932882 
L 91.644814 42.626305 
L 92.739576 42.626305 
L 92.739576 44.004045 
L 93.834339 44.004045 
L 93.834339 32.155476 
L 94.929101 32.155476 
L 94.929101 28.389651 
L 96.023864 28.389651 
L 96.023864 26.552664 
L 97.118626 26.552664 
L 97.118626 18.561768 
L 98.213389 18.561768 
L 98.213389 20.123207 
L 99.308151 20.123207 
L 99.308151 31.971777 
L 100.402914 31.971777 
L 100.402914 40.42192 
L 101.497676 40.42192 
L 101.497676 82.213386 
L 102.592439 82.213386 
L 102.592439 127.127732 
L 103.687201 127.127732 
L 103.687201 161.846796 
L 104.781964 161.846796 
L 104.781964 193.902229 
L 105.876726 193.902229 
L 105.876726 225.406565 
L 106.971489 225.406565 
L 106.971489 244.603085 
L 108.066252 244.603085 
L 108.066252 245.797127 
L 124.487689 245.797127 
L 124.487689 245.062332 
L 125.582452 245.062332 
L 125.582452 241.755754 
L 126.677215 241.755754 
L 126.677215 225.590264 
L 127.771977 225.590264 
L 127.771977 198.1273 
L 128.86674 198.1273 
L 128.86674 170.11324 
L 129.961502 170.11324 
L 129.961502 148.436787 
L 131.056265 148.436787 
L 131.056265 127.311431 
L 132.151027 127.311431 
L 132.151027 106.094224 
L 133.24579 106.094224 
L 133.24579 82.305236 
L 134.340552 82.305236 
L 134.340552 68.160432 
L 135.435315 68.160432 
L 135.435315 61.730975 
L 136.530077 61.730975 
L 136.530077 68.068582 
L 137.62484 68.068582 
L 137.62484 70.732214 
L 138.719602 70.732214 
L 138.719602 76.794273 
L 139.814365 76.794273 
L 139.814365 92.776065 
L 140.909127 92.776065 
L 140.909127 101.685454 
L 142.00389 101.685454 
L 142.00389 104.624634 
L 143.098652 104.624634 
L 143.098652 106.369773 
L 144.193415 106.369773 
L 144.193415 112.982928 
L 145.288178 112.982928 
L 145.288178 122.351564 
L 146.38294 122.351564 
L 146.38294 128.87287 
L 147.477703 128.87287 
L 147.477703 126.852184 
L 148.572465 126.852184 
L 148.572465 141.731783 
L 149.667228 141.731783 
L 149.667228 152.202612 
L 150.76199 152.202612 
L 150.76199 149.998227 
L 151.856753 149.998227 
L 151.856753 154.958093 
L 152.951515 154.958093 
L 152.951515 160.469056 
L 154.046278 160.469056 
L 154.046278 165.153374 
L 155.14104 165.153374 
L 155.14104 168.459951 
L 156.235803 168.459951 
L 156.235803 170.11324 
L 157.330565 170.11324 
L 157.330565 174.981257 
L 158.425328 174.981257 
L 158.425328 179.573726 
L 159.52009 179.573726 
L 159.52009 183.339551 
L 160.614853 183.339551 
L 160.614853 186.462429 
L 161.709615 186.462429 
L 161.709615 197.484355 
L 162.804378 197.484355 
L 162.804378 196.290313 
L 163.899141 196.290313 
L 163.899141 205.934497 
L 164.993903 205.934497 
L 164.993903 208.414431 
L 166.088666 208.414431 
L 166.088666 208.598129 
L 167.183428 208.598129 
L 167.183428 208.230732 
L 168.278191 208.230732 
L 168.278191 212.731351 
L 169.372953 212.731351 
L 169.372953 214.752038 
L 170.467716 214.752038 
L 170.467716 219.160808 
L 171.562478 219.160808 
L 171.562478 221.365193 
L 172.657241 221.365193 
L 172.657241 225.682113 
L 173.752003 225.682113 
L 173.752003 226.600607 
L 174.846766 226.600607 
L 174.846766 227.519101 
L 175.941528 227.519101 
L 175.941528 235.142599 
L 177.036291 235.142599 
L 177.036291 243.409043 
L 178.131053 243.409043 
L 178.131053 245.797127 
L 200.026304 245.797127 
L 200.026304 245.613428 
L 201.121067 245.613428 
L 201.121067 245.797127 
L 203.310592 245.705278 
L 203.310592 244.786784 
L 204.405354 244.786784 
L 204.405354 242.3987 
L 205.500117 242.3987 
L 205.500117 237.622532 
L 206.594879 237.622532 
L 206.594879 233.397461 
L 207.689642 233.397461 
L 207.689642 231.927871 
L 208.784404 231.927871 
L 208.784404 228.896842 
L 209.879167 228.896842 
L 209.879167 231.927871 
L 210.973929 231.927871 
L 210.973929 229.08054 
L 212.068692 229.08054 
L 212.068692 224.855469 
L 213.163454 224.855469 
L 213.163454 224.028825 
L 214.258217 224.028825 
L 214.258217 223.845126 
L 215.352979 223.845126 
L 215.352979 224.488072 
L 216.447742 224.488072 
L 216.447742 220.814096 
L 217.542505 220.814096 
L 217.542505 217.599368 
L 218.637267 217.599368 
L 218.637267 222.191837 
L 219.73203 222.191837 
L 219.73203 217.966766 
L 220.826792 217.966766 
L 220.826792 214.476489 
L 221.921555 214.476489 
L 221.921555 216.956423 
L 223.016317 216.956423 
L 223.016317 216.313477 
L 224.11108 216.313477 
L 224.11108 216.589025 
L 225.205842 216.589025 
L 225.205842 213.557996 
L 226.300605 213.557996 
L 226.300605 213.374297 
L 228.49013 213.374297 
L 228.49013 211.169912 
L 229.584892 211.169912 
L 229.584892 212.823201 
L 230.679655 212.823201 
L 230.679655 213.098749 
L 231.774417 213.098749 
L 231.774417 206.852991 
L 232.86918 206.852991 
L 232.86918 209.424774 
L 233.963942 209.424774 
L 233.963942 209.608472 
L 235.058705 209.608472 
L 235.058705 207.128539 
L 236.153468 207.128539 
L 236.153468 207.679636 
L 237.24823 207.679636 
L 237.24823 204.832305 
L 238.342993 204.832305 
L 238.342993 208.047033 
L 239.437755 208.047033 
L 239.437755 209.057376 
L 240.532518 209.057376 
L 240.532518 207.404087 
L 241.62728 207.404087 
L 241.62728 210.343267 
L 242.722043 210.343267 
L 242.722043 205.750799 
L 243.816805 205.750799 
L 243.816805 208.873677 
L 244.911568 208.873677 
L 244.911568 209.149226 
L 246.00633 209.149226 
L 246.00633 204.281209 
L 247.101093 204.281209 
L 247.101093 202.444221 
L 248.195855 202.444221 
L 248.195855 204.373058 
L 249.290618 204.373058 
L 249.290618 204.00566 
L 250.38538 204.00566 
L 250.38538 208.965527 
L 251.480143 208.965527 
L 251.480143 206.485594 
L 252.574906 206.485594 
L 252.574906 207.220389 
L 253.669668 207.220389 
L 253.669668 206.577443 
L 254.764431 206.577443 
L 254.764431 207.679636 
L 255.859193 207.679636 
L 255.859193 210.343267 
L 256.953956 210.343267 
L 256.953956 209.057376 
L 258.048718 209.057376 
L 258.048718 209.97587 
L 259.143481 209.97587 
L 259.143481 218.977109 
L 260.238243 218.977109 
L 260.238243 225.131017 
L 261.333006 225.131017 
L 261.333006 228.896842 
L 262.427768 228.896842 
L 262.427768 232.11157 
L 263.522531 232.11157 
L 263.522531 236.428491 
L 264.617293 236.428491 
L 264.617293 241.112809 
L 265.712056 241.112809 
L 265.712056 243.86829 
L 266.806818 243.86829 
L 266.806818 245.613428 
L 267.901581 245.613428 
L 267.901581 245.797127 
L 282.133494 245.705278 
L 282.133494 245.154181 
L 283.228256 245.154181 
L 283.228256 244.327537 
L 284.323019 244.327537 
L 284.323019 241.663905 
L 285.417781 241.663905 
L 285.417781 237.163286 
L 286.512544 237.163286 
L 286.512544 235.509997 
L 287.607306 235.509997 
L 287.607306 231.284925 
L 288.702069 231.284925 
L 288.702069 231.560474 
L 289.796832 231.560474 
L 289.796832 225.773963 
L 290.891594 225.773963 
L 290.891594 224.947318 
L 291.986357 224.947318 
L 291.986357 220.997795 
L 293.081119 220.997795 
L 293.081119 223.29403 
L 294.175882 223.29403 
L 294.175882 220.171151 
L 295.270644 220.171151 
L 295.270644 223.753277 
L 296.365407 223.753277 
L 296.365407 219.344506 
L 297.460169 219.344506 
L 297.460169 220.35485 
L 298.554932 220.35485 
L 298.554932 221.82444 
L 299.649694 221.82444 
L 299.649694 221.548891 
L 301.839219 221.640741 
L 301.839219 222.926632 
L 302.933982 222.926632 
L 302.933982 224.76362 
L 304.028744 224.76362 
L 304.028744 223.661427 
L 305.123507 223.661427 
L 305.123507 221.916289 
L 306.218269 221.916289 
L 306.218269 225.590264 
L 307.313032 225.590264 
L 307.313032 222.008138 
L 308.407795 222.008138 
L 308.407795 223.29403 
L 309.502557 223.29403 
L 309.502557 224.76362 
L 310.59732 224.76362 
L 310.59732 225.498415 
L 311.692082 225.498415 
L 311.692082 226.600607 
L 312.786845 226.600607 
L 312.786845 225.682113 
L 313.881607 225.682113 
L 313.881607 226.14136 
L 314.97637 226.14136 
L 314.97637 228.070197 
L 316.071132 228.070197 
L 316.071132 226.600607 
L 317.165895 226.600607 
L 317.165895 229.08054 
L 318.260657 229.08054 
L 318.260657 227.151703 
L 319.35542 227.151703 
L 319.35542 227.794649 
L 320.450182 227.794649 
L 320.450182 228.162047 
L 321.544945 228.162047 
L 321.544945 228.804992 
L 322.639707 228.804992 
L 322.639707 229.447938 
L 323.73447 229.447938 
L 323.73447 228.253896 
L 325.923995 228.345745 
L 325.923995 227.61095 
L 327.018758 227.61095 
L 327.018758 228.988691 
L 328.11352 228.988691 
L 328.11352 226.416908 
L 329.208283 226.416908 
L 329.208283 226.784306 
L 330.303045 226.784306 
L 330.303045 229.356089 
L 331.397808 229.356089 
L 331.397808 229.815335 
L 332.49257 229.815335 
L 332.49257 229.447938 
L 333.587333 229.447938 
L 333.587333 230.458281 
L 334.682095 230.458281 
L 334.682095 230.090884 
L 335.776858 230.090884 
L 335.776858 228.437595 
L 336.87162 228.437595 
L 336.87162 228.988691 
L 337.966383 228.988691 
L 337.966383 231.193076 
L 339.061145 231.193076 
L 339.061145 230.458281 
L 340.155908 230.458281 
L 340.155908 233.948557 
L 341.25067 233.948557 
L 341.25067 230.917528 
L 342.345433 230.917528 
L 342.345433 229.631637 
L 343.440196 229.631637 
L 343.440196 231.101227 
L 344.534958 231.101227 
L 344.534958 230.274582 
L 345.629721 230.274582 
L 345.629721 230.64198 
L 346.724483 230.64198 
L 346.724483 231.652323 
L 347.819246 231.652323 
L 347.819246 232.387118 
L 348.914008 232.387118 
L 348.914008 232.754515 
L 350.008771 232.754515 
L 350.008771 231.376775 
L 351.103533 231.376775 
L 351.103533 230.55013 
L 352.198296 230.55013 
L 352.198296 232.387118 
L 353.293058 232.387118 
L 353.293058 232.846365 
L 354.387821 232.846365 
L 354.387821 231.560474 
L 355.482583 231.560474 
L 355.482583 233.489311 
L 356.577346 233.489311 
L 356.577346 233.856708 
L 358.766871 233.764859 
L 358.766871 233.121913 
L 359.861633 233.121913 
L 359.861633 231.009377 
L 360.956396 231.009377 
L 360.956396 233.397461 
L 362.051159 233.397461 
L 362.051159 232.754515 
L 363.145921 232.754515 
L 363.145921 233.489311 
L 364.240684 233.489311 
L 364.240684 234.315955 
L 365.335446 234.315955 
L 365.335446 233.305612 
L 366.430209 233.305612 
L 366.430209 232.846365 
L 367.524971 232.846365 
L 367.524971 236.428491 
L 368.619734 236.428491 
L 368.619734 235.693696 
L 369.714496 235.693696 
L 369.714496 233.397461 
L 370.809259 233.397461 
L 370.809259 233.764859 
L 371.904021 233.764859 
L 371.904021 235.418147 
L 374.093546 235.509997 
L 374.093546 233.397461 
L 375.188309 233.397461 
L 375.188309 233.948557 
L 376.283071 233.948557 
L 376.283071 235.969244 
L 377.377834 235.969244 
L 377.377834 236.152942 
L 378.472596 236.152942 
L 378.472596 234.775202 
L 379.567359 234.775202 
L 379.567359 232.754515 
L 380.662122 232.754515 
L 380.662122 235.326298 
L 381.756884 235.326298 
L 381.756884 236.244792 
L 382.851647 236.244792 
L 382.851647 236.887737 
L 385.041172 236.887737 
L 385.041172 236.152942 
L 386.135934 236.152942 
L 386.135934 237.714382 
L 387.230697 237.714382 
L 387.230697 235.05075 
L 388.325459 235.05075 
L 388.325459 235.693696 
L 389.420222 235.693696 
L 389.420222 237.163286 
L 390.514984 237.163286 
L 390.514984 239.000273 
L 391.609747 239.000273 
L 391.609747 241.204658 
L 392.704509 241.204658 
L 392.704509 241.020959 
L 393.799272 241.020959 
L 393.799272 242.949796 
L 394.894034 242.949796 
L 394.894034 243.96014 
L 395.988797 243.96014 
L 395.988797 244.511236 
L 397.08356 244.511236 
L 397.08356 245.33788 
L 398.178322 245.33788 
L 398.178322 245.33788 
" clip-path="url(#pda288b1df5)" style="fill: none; stroke: #1f77b4; stroke-width: 1.5; stroke-linecap: square"/>
   </g>
   <g id="patch_3">
    <path d="M 53.328125 257.158895 
L 53.328125 7.2 
" style="fill: none; stroke: #000000; stroke-width: 0.8; stroke-linejoin: miter; stroke-linecap: square"/>
   </g>
   <g id="patch_4">
    <path d="M 414.59976 257.158895 
L 414.59976 7.2 
" style="fill: none; stroke: #000000; stroke-width: 0.8; stroke-linejoin: miter; stroke-linecap: square"/>
   </g>
   <g id="patch_5">
    <path d="M 53.328125 257.158895 
L 414.59976 257.158895 
" style="fill: none; stroke: #000000; stroke-width: 0.8; stroke-linejoin: miter; stroke-linecap: square"/>
   </g>
   <g id="patch_6">
    <path d="M 53.328125 7.2 
L 414.59976 7.2 
" style="fill: none; stroke: #000000; stroke-width: 0.8; stroke-linejoin: miter; stroke-linecap: square"/>
   </g>
  </g>
  <g id="axes_2">
   <g id="patch_7">
    <path d="M 503.927885 257.158895 
L 865.19952 257.158895 
L 865.19952 7.2 
L 503.927885 7.2 
z
" style="fill: #ffffff"/>
   </g>
   <g id="matplotlib.axis_3">
    <g id="xtick_6">
     <g id="line2d_13">
      <g>
       <use xlink:href="#m0fe7b76b92" x="504.32632" y="257.158895" style="stroke: #000000; stroke-width: 0.8"/>
      </g>
     </g>
     <g id="text_14">
      <!-- 2 -->
      <g transform="translate(501.14507 271.757332) scale(0.1 -0.1)">
       <use xlink:href="#DejaVuSans-32"/>
      </g>
     </g>
    </g>
    <g id="xtick_7">
     <g id="line2d_14">
      <g>
       <use xlink:href="#m0fe7b76b92" x="548.083744" y="257.158895" style="stroke: #000000; stroke-width: 0.8"/>
      </g>
     </g>
     <g id="text_15">
      <!-- 3 -->
      <g transform="translate(544.902494 271.757332) scale(0.1 -0.1)">
       <use xlink:href="#DejaVuSans-33"/>
      </g>
     </g>
    </g>
    <g id="xtick_8">
     <g id="line2d_15">
      <g>
       <use xlink:href="#m0fe7b76b92" x="591.841168" y="257.158895" style="stroke: #000000; stroke-width: 0.8"/>
      </g>
     </g>
     <g id="text_16">
      <!-- 4 -->
      <g transform="translate(588.659918 271.757332) scale(0.1 -0.1)">
       <use xlink:href="#DejaVuSans-34"/>
      </g>
     </g>
    </g>
    <g id="xtick_9">
     <g id="line2d_16">
      <g>
       <use xlink:href="#m0fe7b76b92" x="635.598591" y="257.158895" style="stroke: #000000; stroke-width: 0.8"/>
      </g>
     </g>
     <g id="text_17">
      <!-- 5 -->
      <g transform="translate(632.417341 271.757332) scale(0.1 -0.1)">
       <use xlink:href="#DejaVuSans-35"/>
      </g>
     </g>
    </g>
    <g id="xtick_10">
     <g id="line2d_17">
      <g>
       <use xlink:href="#m0fe7b76b92" x="679.356015" y="257.158895" style="stroke: #000000; stroke-width: 0.8"/>
      </g>
     </g>
     <g id="text_18">
      <!-- 6 -->
      <g transform="translate(676.174765 271.757332) scale(0.1 -0.1)">
       <use xlink:href="#DejaVuSans-36"/>
      </g>
     </g>
    </g>
    <g id="xtick_11">
     <g id="line2d_18">
      <g>
       <use xlink:href="#m0fe7b76b92" x="723.113439" y="257.158895" style="stroke: #000000; stroke-width: 0.8"/>
      </g>
     </g>
     <g id="text_19">
      <!-- 7 -->
      <g transform="translate(719.932189 271.757332) scale(0.1 -0.1)">
       <use xlink:href="#DejaVuSans-37"/>
      </g>
     </g>
    </g>
    <g id="xtick_12">
     <g id="line2d_19">
      <g>
       <use xlink:href="#m0fe7b76b92" x="766.870863" y="257.158895" style="stroke: #000000; stroke-width: 0.8"/>
      </g>
     </g>
     <g id="text_20">
      <!-- 8 -->
      <g transform="translate(763.689613 271.757332) scale(0.1 -0.1)">
       <defs>
        <path id="DejaVuSans-38" d="M 2034 2216 
Q 1584 2216 1326 1975 
Q 1069 1734 1069 1313 
Q 1069 891 1326 650 
Q 1584 409 2034 409 
Q 2484 409 2743 651 
Q 3003 894 3003 1313 
Q 3003 1734 2745 1975 
Q 2488 2216 2034 2216 
z
M 1403 2484 
Q 997 2584 770 2862 
Q 544 3141 544 3541 
Q 544 4100 942 4425 
Q 1341 4750 2034 4750 
Q 2731 4750 3128 4425 
Q 3525 4100 3525 3541 
Q 3525 3141 3298 2862 
Q 3072 2584 2669 2484 
Q 3125 2378 3379 2068 
Q 3634 1759 3634 1313 
Q 3634 634 3220 271 
Q 2806 -91 2034 -91 
Q 1263 -91 848 271 
Q 434 634 434 1313 
Q 434 1759 690 2068 
Q 947 2378 1403 2484 
z
M 1172 3481 
Q 1172 3119 1398 2916 
Q 1625 2713 2034 2713 
Q 2441 2713 2670 2916 
Q 2900 3119 2900 3481 
Q 2900 3844 2670 4047 
Q 2441 4250 2034 4250 
Q 1625 4250 1398 4047 
Q 1172 3844 1172 3481 
z
" transform="scale(0.015625)"/>
       </defs>
       <use xlink:href="#DejaVuSans-38"/>
      </g>
     </g>
    </g>
    <g id="xtick_13">
     <g id="line2d_20">
      <g>
       <use xlink:href="#m0fe7b76b92" x="810.628286" y="257.158895" style="stroke: #000000; stroke-width: 0.8"/>
      </g>
     </g>
     <g id="text_21">
      <!-- 9 -->
      <g transform="translate(807.447036 271.757332) scale(0.1 -0.1)">
       <defs>
        <path id="DejaVuSans-39" d="M 703 97 
L 703 672 
Q 941 559 1184 500 
Q 1428 441 1663 441 
Q 2288 441 2617 861 
Q 2947 1281 2994 2138 
Q 2813 1869 2534 1725 
Q 2256 1581 1919 1581 
Q 1219 1581 811 2004 
Q 403 2428 403 3163 
Q 403 3881 828 4315 
Q 1253 4750 1959 4750 
Q 2769 4750 3195 4129 
Q 3622 3509 3622 2328 
Q 3622 1225 3098 567 
Q 2575 -91 1691 -91 
Q 1453 -91 1209 -44 
Q 966 3 703 97 
z
M 1959 2075 
Q 2384 2075 2632 2365 
Q 2881 2656 2881 3163 
Q 2881 3666 2632 3958 
Q 2384 4250 1959 4250 
Q 1534 4250 1286 3958 
Q 1038 3666 1038 3163 
Q 1038 2656 1286 2365 
Q 1534 2075 1959 2075 
z
" transform="scale(0.015625)"/>
       </defs>
       <use xlink:href="#DejaVuSans-39"/>
      </g>
     </g>
    </g>
    <g id="xtick_14">
     <g id="line2d_21">
      <g>
       <use xlink:href="#m0fe7b76b92" x="854.38571" y="257.158895" style="stroke: #000000; stroke-width: 0.8"/>
      </g>
     </g>
     <g id="text_22">
      <!-- 10 -->
      <g transform="translate(848.02321 271.757332) scale(0.1 -0.1)">
       <use xlink:href="#DejaVuSans-31"/>
       <use xlink:href="#DejaVuSans-30" transform="translate(63.623047 0)"/>
      </g>
     </g>
    </g>
    <g id="text_23">
     <!-- wavelength [Å] -->
     <g transform="translate(646.526202 287.119832) scale(0.1 -0.1)">
      <defs>
       <path id="DejaVuSans-77" d="M 269 3500 
L 844 3500 
L 1563 769 
L 2278 3500 
L 2956 3500 
L 3675 769 
L 4391 3500 
L 4966 3500 
L 4050 0 
L 3372 0 
L 2619 2869 
L 1863 0 
L 1184 0 
L 269 3500 
z
" transform="scale(0.015625)"/>
       <path id="DejaVuSans-76" d="M 191 3500 
L 800 3500 
L 1894 563 
L 2988 3500 
L 3597 3500 
L 2284 0 
L 1503 0 
L 191 3500 
z
" transform="scale(0.015625)"/>
       <path id="DejaVuSans-67" d="M 2906 1791 
Q 2906 2416 2648 2759 
Q 2391 3103 1925 3103 
Q 1463 3103 1205 2759 
Q 947 2416 947 1791 
Q 947 1169 1205 825 
Q 1463 481 1925 481 
Q 2391 481 2648 825 
Q 2906 1169 2906 1791 
z
M 3481 434 
Q 3481 -459 3084 -895 
Q 2688 -1331 1869 -1331 
Q 1566 -1331 1297 -1286 
Q 1028 -1241 775 -1147 
L 775 -588 
Q 1028 -725 1275 -790 
Q 1522 -856 1778 -856 
Q 2344 -856 2625 -561 
Q 2906 -266 2906 331 
L 2906 616 
Q 2728 306 2450 153 
Q 2172 0 1784 0 
Q 1141 0 747 490 
Q 353 981 353 1791 
Q 353 2603 747 3093 
Q 1141 3584 1784 3584 
Q 2172 3584 2450 3431 
Q 2728 3278 2906 2969 
L 2906 3500 
L 3481 3500 
L 3481 434 
z
" transform="scale(0.015625)"/>
       <path id="DejaVuSans-68" d="M 3513 2113 
L 3513 0 
L 2938 0 
L 2938 2094 
Q 2938 2591 2744 2837 
Q 2550 3084 2163 3084 
Q 1697 3084 1428 2787 
Q 1159 2491 1159 1978 
L 1159 0 
L 581 0 
L 581 4863 
L 1159 4863 
L 1159 2956 
Q 1366 3272 1645 3428 
Q 1925 3584 2291 3584 
Q 2894 3584 3203 3211 
Q 3513 2838 3513 2113 
z
" transform="scale(0.015625)"/>
       <path id="DejaVuSans-c5" d="M 2663 5081 
Q 2663 5278 2523 5417 
Q 2384 5556 2188 5556 
Q 1988 5556 1852 5420 
Q 1716 5284 1716 5081 
Q 1716 4884 1853 4746 
Q 1991 4609 2188 4609 
Q 2384 4609 2523 4746 
Q 2663 4884 2663 5081 
z
M 2188 4044 
L 1338 1722 
L 3041 1722 
L 2188 4044 
z
M 1716 4366 
Q 1525 4494 1428 4673 
Q 1331 4853 1331 5081 
Q 1331 5441 1579 5691 
Q 1828 5941 2188 5941 
Q 2544 5941 2795 5689 
Q 3047 5438 3047 5081 
Q 3047 4863 2948 4678 
Q 2850 4494 2663 4366 
L 4325 0 
L 3669 0 
L 3244 1197 
L 1141 1197 
L 716 0 
L 50 0 
L 1716 4366 
z
" transform="scale(0.015625)"/>
      </defs>
      <use xlink:href="#DejaVuSans-77"/>
      <use xlink:href="#DejaVuSans-61" transform="translate(81.787109 0)"/>
      <use xlink:href="#DejaVuSans-76" transform="translate(143.066406 0)"/>
      <use xlink:href="#DejaVuSans-65" transform="translate(202.246094 0)"/>
      <use xlink:href="#DejaVuSans-6c" transform="translate(263.769531 0)"/>
      <use xlink:href="#DejaVuSans-65" transform="translate(291.552734 0)"/>
      <use xlink:href="#DejaVuSans-6e" transform="translate(353.076172 0)"/>
      <use xlink:href="#DejaVuSans-67" transform="translate(416.455078 0)"/>
      <use xlink:href="#DejaVuSans-74" transform="translate(479.931641 0)"/>
      <use xlink:href="#DejaVuSans-68" transform="translate(519.140625 0)"/>
      <use xlink:href="#DejaVuSans-20" transform="translate(582.519531 0)"/>
      <use xlink:href="#DejaVuSans-5b" transform="translate(614.306641 0)"/>
      <use xlink:href="#DejaVuSans-c5" transform="translate(653.320312 0)"/>
      <use xlink:href="#DejaVuSans-5d" transform="translate(721.728516 0)"/>
     </g>
    </g>
   </g>
   <g id="matplotlib.axis_4">
    <g id="ytick_7">
     <g id="line2d_22">
      <g>
       <use xlink:href="#m1d84ae3695" x="503.927885" y="246.123146" style="stroke: #000000; stroke-width: 0.8"/>
      </g>
     </g>
     <g id="text_24">
      <!-- 0 -->
      <g transform="translate(490.565385 249.922365) scale(0.1 -0.1)">
       <use xlink:href="#DejaVuSans-30"/>
      </g>
     </g>
    </g>
    <g id="ytick_8">
     <g id="line2d_23">
      <g>
       <use xlink:href="#m1d84ae3695" x="503.927885" y="191.786618" style="stroke: #000000; stroke-width: 0.8"/>
      </g>
     </g>
     <g id="text_25">
      <!-- 500 -->
      <g transform="translate(477.840385 195.585837) scale(0.1 -0.1)">
       <use xlink:href="#DejaVuSans-35"/>
       <use xlink:href="#DejaVuSans-30" transform="translate(63.623047 0)"/>
       <use xlink:href="#DejaVuSans-30" transform="translate(127.246094 0)"/>
      </g>
     </g>
    </g>
    <g id="ytick_9">
     <g id="line2d_24">
      <g>
       <use xlink:href="#m1d84ae3695" x="503.927885" y="137.450091" style="stroke: #000000; stroke-width: 0.8"/>
      </g>
     </g>
     <g id="text_26">
      <!-- 1000 -->
      <g transform="translate(471.477885 141.249309) scale(0.1 -0.1)">
       <use xlink:href="#DejaVuSans-31"/>
       <use xlink:href="#DejaVuSans-30" transform="translate(63.623047 0)"/>
       <use xlink:href="#DejaVuSans-30" transform="translate(127.246094 0)"/>
       <use xlink:href="#DejaVuSans-30" transform="translate(190.869141 0)"/>
      </g>
     </g>
    </g>
    <g id="ytick_10">
     <g id="line2d_25">
      <g>
       <use xlink:href="#m1d84ae3695" x="503.927885" y="83.113563" style="stroke: #000000; stroke-width: 0.8"/>
      </g>
     </g>
     <g id="text_27">
      <!-- 1500 -->
      <g transform="translate(471.477885 86.912782) scale(0.1 -0.1)">
       <use xlink:href="#DejaVuSans-31"/>
       <use xlink:href="#DejaVuSans-35" transform="translate(63.623047 0)"/>
       <use xlink:href="#DejaVuSans-30" transform="translate(127.246094 0)"/>
       <use xlink:href="#DejaVuSans-30" transform="translate(190.869141 0)"/>
      </g>
     </g>
    </g>
    <g id="ytick_11">
     <g id="line2d_26">
      <g>
       <use xlink:href="#m1d84ae3695" x="503.927885" y="28.777035" style="stroke: #000000; stroke-width: 0.8"/>
      </g>
     </g>
     <g id="text_28">
      <!-- 2000 -->
      <g transform="translate(471.477885 32.576254) scale(0.1 -0.1)">
       <use xlink:href="#DejaVuSans-32"/>
       <use xlink:href="#DejaVuSans-30" transform="translate(63.623047 0)"/>
       <use xlink:href="#DejaVuSans-30" transform="translate(127.246094 0)"/>
       <use xlink:href="#DejaVuSans-30" transform="translate(190.869141 0)"/>
      </g>
     </g>
    </g>
    <g id="text_29">
     <!-- pulse:0 [counts] -->
     <g transform="translate(465.398197 172.659916) rotate(-90) scale(0.1 -0.1)">
      <use xlink:href="#DejaVuSans-70"/>
      <use xlink:href="#DejaVuSans-75" transform="translate(63.476562 0)"/>
      <use xlink:href="#DejaVuSans-6c" transform="translate(126.855469 0)"/>
      <use xlink:href="#DejaVuSans-73" transform="translate(154.638672 0)"/>
      <use xlink:href="#DejaVuSans-65" transform="translate(206.738281 0)"/>
      <use xlink:href="#DejaVuSans-3a" transform="translate(268.261719 0)"/>
      <use xlink:href="#DejaVuSans-30" transform="translate(301.953125 0)"/>
      <use xlink:href="#DejaVuSans-20" transform="translate(365.576172 0)"/>
      <use xlink:href="#DejaVuSans-5b" transform="translate(397.363281 0)"/>
      <use xlink:href="#DejaVuSans-63" transform="translate(436.376953 0)"/>
      <use xlink:href="#DejaVuSans-6f" transform="translate(491.357422 0)"/>
      <use xlink:href="#DejaVuSans-75" transform="translate(552.539062 0)"/>
      <use xlink:href="#DejaVuSans-6e" transform="translate(615.917969 0)"/>
      <use xlink:href="#DejaVuSans-74" transform="translate(679.296875 0)"/>
      <use xlink:href="#DejaVuSans-73" transform="translate(718.505859 0)"/>
      <use xlink:href="#DejaVuSans-5d" transform="translate(770.605469 0)"/>
     </g>
    </g>
   </g>
   <g id="line2d_27">
    <path d="M 520.349323 245.797127 
L 521.444085 245.797127 
L 521.444085 245.579781 
L 522.538848 245.579781 
L 522.538848 245.797127 
L 523.633611 245.797127 
L 523.633611 245.579781 
L 524.728373 245.579781 
L 524.728373 244.384377 
L 525.823136 244.384377 
L 525.823136 243.841012 
L 526.917898 243.841012 
L 526.917898 242.971628 
L 528.012661 242.971628 
L 528.012661 240.472147 
L 529.107423 240.472147 
L 529.107423 237.320629 
L 530.202186 237.320629 
L 530.202186 234.060437 
L 531.296948 234.060437 
L 531.296948 228.409438 
L 532.391711 228.409438 
L 532.391711 221.128343 
L 533.486473 221.128343 
L 533.486473 210.69573 
L 534.581236 210.69573 
L 534.581236 192.221311 
L 535.675998 192.221311 
L 535.675998 165.16172 
L 536.770761 165.16172 
L 536.770761 139.406206 
L 537.865523 139.406206 
L 537.865523 120.171075 
L 538.960286 120.171075 
L 538.960286 119.193017 
L 540.055048 119.193017 
L 540.055048 104.304809 
L 541.149811 104.304809 
L 541.149811 95.176272 
L 542.244574 95.176272 
L 542.244574 89.633946 
L 543.339336 89.633946 
L 543.339336 74.528392 
L 544.434099 74.528392 
L 544.434099 76.919199 
L 545.528861 76.919199 
L 545.528861 62.465682 
L 546.623624 62.465682 
L 546.623624 59.205491 
L 547.718386 59.205491 
L 547.718386 58.879472 
L 548.813149 58.879472 
L 548.813149 52.141742 
L 549.907911 52.141742 
L 549.907911 40.839744 
L 551.002674 40.839744 
L 551.002674 35.188745 
L 552.097436 35.188745 
L 552.097436 41.38311 
L 553.192199 41.38311 
L 553.192199 25.082151 
L 554.286961 25.082151 
L 554.286961 27.146939 
L 555.381724 27.146939 
L 555.381724 18.561768 
L 556.476486 18.561768 
L 556.476486 23.343382 
L 557.571249 23.343382 
L 557.571249 25.842863 
L 558.666012 25.842863 
L 558.666012 33.993342 
L 559.760774 33.993342 
L 559.760774 48.120839 
L 560.855537 48.120839 
L 560.855537 60.726913 
L 561.950299 60.726913 
L 561.950299 72.789623 
L 563.045062 72.789623 
L 563.045062 102.892059 
L 564.139824 102.892059 
L 564.139824 111.911923 
L 565.234587 111.911923 
L 565.234587 133.429188 
L 566.329349 133.429188 
L 566.329349 141.905686 
L 567.424112 141.905686 
L 567.424112 149.5128 
L 568.518874 149.5128 
L 568.518874 164.401008 
L 569.613637 164.401008 
L 569.613637 178.528506 
L 570.708399 178.528506 
L 570.708399 195.155483 
L 571.803162 195.155483 
L 571.803162 200.154444 
L 572.897924 200.154444 
L 572.897924 215.477345 
L 573.992687 215.477345 
L 573.992687 224.714554 
L 575.087449 224.714554 
L 575.087449 234.495129 
L 576.182212 234.495129 
L 576.182212 243.732339 
L 577.276975 243.732339 
L 577.276975 245.797127 
L 578.371737 245.797127 
L 578.371737 245.253762 
L 579.4665 245.253762 
L 579.4665 242.102243 
L 580.561262 242.102243 
L 580.561262 240.472147 
L 581.656025 240.472147 
L 581.656025 235.147168 
L 582.750787 235.147168 
L 582.750787 229.061476 
L 583.84555 229.061476 
L 583.84555 216.02071 
L 584.940312 216.02071 
L 584.940312 208.087577 
L 586.035075 208.087577 
L 586.035075 195.481502 
L 587.129837 195.481502 
L 587.129837 180.81064 
L 588.2246 180.81064 
L 588.2246 172.660161 
L 589.319362 172.660161 
L 589.319362 163.422951 
L 590.414125 163.422951 
L 590.414125 153.533703 
L 591.508887 153.533703 
L 591.508887 142.014359 
L 592.60365 142.014359 
L 592.60365 141.797013 
L 593.698412 141.797013 
L 593.698412 129.842977 
L 594.793175 129.842977 
L 594.793175 127.778189 
L 595.887938 127.778189 
L 595.887938 122.561882 
L 596.9827 122.561882 
L 596.9827 122.887901 
L 598.077463 122.887901 
L 598.077463 116.041499 
L 599.172225 116.041499 
L 599.172225 109.086423 
L 600.266988 109.086423 
L 600.266988 107.565 
L 601.36175 107.565 
L 601.36175 100.718598 
L 602.456513 100.718598 
L 602.456513 112.88998 
L 603.551275 112.88998 
L 603.551275 98.65381 
L 604.646038 98.65381 
L 604.646038 89.4166 
L 605.7408 89.4166 
L 605.7408 98.979829 
L 606.835563 98.979829 
L 606.835563 94.306888 
L 607.930325 94.306888 
L 607.930325 100.718598 
L 609.025088 100.718598 
L 609.025088 103.218078 
L 610.11985 103.218078 
L 610.11985 107.238981 
L 611.214613 107.238981 
L 611.214613 121.909844 
L 612.309375 121.909844 
L 612.309375 124.409324 
L 613.404138 124.409324 
L 613.404138 130.929707 
L 614.498901 130.929707 
L 614.498901 137.77611 
L 615.593663 137.77611 
L 615.593663 143.535782 
L 616.688426 143.535782 
L 616.688426 147.665358 
L 617.783188 147.665358 
L 617.783188 146.578627 
L 618.877951 146.578627 
L 618.877951 158.75001 
L 619.972713 158.75001 
L 619.972713 157.228587 
L 621.067476 157.228587 
L 621.067476 164.183662 
L 622.162238 164.183662 
L 622.162238 171.247411 
L 623.257001 171.247411 
L 623.257001 172.660161 
L 624.351763 172.660161 
L 624.351763 180.81064 
L 625.446526 180.81064 
L 625.446526 182.006043 
L 626.541288 182.006043 
L 626.541288 181.788697 
L 627.636051 181.788697 
L 627.636051 186.570312 
L 628.730813 186.570312 
L 628.730813 197.654963 
L 629.825576 197.654963 
L 629.825576 202.545251 
L 630.920339 202.545251 
L 630.920339 199.285059 
L 632.015101 199.285059 
L 632.015101 205.805443 
L 633.109864 205.805443 
L 633.109864 208.413596 
L 634.204626 208.413596 
L 634.204626 206.892173 
L 635.299389 206.892173 
L 635.299389 212.977864 
L 636.394151 212.977864 
L 636.394151 216.455402 
L 637.488914 216.455402 
L 637.488914 219.389575 
L 638.583676 219.389575 
L 638.583676 221.889055 
L 639.678439 221.889055 
L 639.678439 222.975785 
L 640.773201 222.975785 
L 640.773201 226.127304 
L 641.867964 226.127304 
L 641.867964 230.691572 
L 642.962726 230.691572 
L 642.962726 234.712475 
L 644.057489 234.712475 
L 644.057489 240.037455 
L 645.152251 240.037455 
L 645.152251 243.949685 
L 646.247014 243.949685 
L 646.247014 245.579781 
L 647.341776 245.579781 
L 647.341776 245.797127 
L 648.436539 245.797127 
L 648.436539 245.471108 
L 649.531302 245.471108 
L 649.531302 244.384377 
L 651.720827 244.275704 
L 651.720827 243.188974 
L 652.815589 243.188974 
L 652.815589 242.971628 
L 653.910352 242.971628 
L 653.910352 240.254801 
L 655.005114 240.254801 
L 655.005114 239.168071 
L 656.099877 239.168071 
L 656.099877 234.821148 
L 657.194639 234.821148 
L 657.194639 230.908918 
L 658.289402 230.908918 
L 658.289402 231.886976 
L 659.384164 231.886976 
L 659.384164 228.84413 
L 660.478927 228.84413 
L 660.478927 227.431381 
L 661.573689 227.431381 
L 661.573689 226.018631 
L 662.668452 226.018631 
L 662.668452 222.43242 
L 663.763214 222.43242 
L 663.763214 223.301805 
L 664.857977 223.301805 
L 664.857977 219.715594 
L 665.952739 219.715594 
L 665.952739 220.258959 
L 667.047502 220.258959 
L 667.047502 218.846209 
L 668.142265 218.846209 
L 668.142265 220.041613 
L 669.237027 220.041613 
L 669.237027 218.628863 
L 670.33179 218.628863 
L 670.33179 211.891134 
L 671.426552 211.891134 
L 671.426552 216.564075 
L 672.521315 216.564075 
L 672.521315 213.52123 
L 673.616077 213.52123 
L 673.616077 211.673788 
L 674.71084 211.673788 
L 674.71084 209.28298 
L 675.805602 209.28298 
L 675.805602 211.782461 
L 676.900365 211.782461 
L 676.900365 211.565115 
L 677.995127 211.565115 
L 677.995127 210.369711 
L 679.08989 210.369711 
L 679.08989 209.826346 
L 680.184652 209.826346 
L 680.184652 206.892173 
L 681.279415 206.892173 
L 681.279415 206.348808 
L 682.374177 206.348808 
L 682.374177 207.326865 
L 683.46894 207.326865 
L 683.46894 205.37075 
L 684.563702 205.37075 
L 684.563702 208.630942 
L 685.658465 208.630942 
L 685.658465 205.153404 
L 686.753228 205.153404 
L 686.753228 201.567193 
L 687.84799 201.567193 
L 687.84799 206.131462 
L 688.942753 206.131462 
L 688.942753 202.762597 
L 690.037515 202.762597 
L 690.037515 205.37075 
L 692.22704 205.479423 
L 692.22704 203.414635 
L 693.321803 203.414635 
L 693.321803 207.544212 
L 694.416565 207.544212 
L 694.416565 201.893213 
L 695.511328 201.893213 
L 695.511328 207.218192 
L 696.60609 207.218192 
L 696.60609 201.45852 
L 697.700853 201.45852 
L 697.700853 201.023828 
L 698.795615 201.023828 
L 698.795615 202.001886 
L 699.890378 202.001886 
L 699.890378 198.741694 
L 700.98514 198.741694 
L 700.98514 205.37075 
L 702.079903 205.37075 
L 702.079903 202.762597 
L 703.174666 202.762597 
L 703.174666 204.392693 
L 704.269428 204.392693 
L 704.269428 209.28298 
L 705.364191 209.28298 
L 705.364191 204.066674 
L 706.458953 204.066674 
L 706.458953 206.566154 
L 707.553716 206.566154 
L 707.553716 210.152365 
L 708.648478 210.152365 
L 708.648478 215.912037 
L 709.743241 215.912037 
L 709.743241 216.346729 
L 710.838003 216.346729 
L 710.838003 219.824267 
L 711.932766 219.824267 
L 711.932766 220.693651 
L 713.027528 220.693651 
L 713.027528 224.388535 
L 714.122291 224.388535 
L 714.122291 223.410478 
L 715.217053 223.410478 
L 715.217053 225.475266 
L 716.311816 225.475266 
L 716.311816 229.17015 
L 717.406578 229.17015 
L 717.406578 227.866073 
L 718.501341 227.866073 
L 718.501341 232.647687 
L 719.596103 232.647687 
L 719.596103 234.16911 
L 720.690866 234.16911 
L 720.690866 238.516032 
L 721.785629 238.516032 
L 721.785629 238.08134 
L 722.880391 238.08134 
L 722.880391 238.407359 
L 723.975154 238.407359 
L 723.975154 240.798166 
L 725.069916 240.798166 
L 725.069916 242.428262 
L 726.164679 242.428262 
L 726.164679 242.645608 
L 727.259441 242.645608 
L 727.259441 241.99357 
L 728.354204 241.99357 
L 728.354204 241.124186 
L 729.448966 241.124186 
L 729.448966 240.037455 
L 730.543729 240.037455 
L 730.543729 237.537975 
L 731.638491 237.537975 
L 731.638491 236.559917 
L 732.733254 236.559917 
L 732.733254 235.58186 
L 733.828016 235.58186 
L 733.828016 234.060437 
L 734.922779 234.060437 
L 734.922779 233.299726 
L 736.017541 233.299726 
L 736.017541 230.25688 
L 737.112304 230.25688 
L 737.112304 231.995649 
L 738.207066 231.995649 
L 738.207066 228.84413 
L 739.301829 228.84413 
L 739.301829 226.670669 
L 740.396592 226.670669 
L 740.396592 227.7574 
L 741.491354 227.7574 
L 741.491354 226.453323 
L 742.586117 226.453323 
L 742.586117 224.279862 
L 743.680879 224.279862 
L 743.680879 221.237016 
L 744.775642 221.237016 
L 744.775642 220.802324 
L 745.870404 220.802324 
L 745.870404 219.389575 
L 746.965167 219.389575 
L 746.965167 221.128343 
L 748.059929 221.128343 
L 748.059929 215.259998 
L 749.154692 215.259998 
L 749.154692 215.912037 
L 750.249454 215.912037 
L 750.249454 216.129383 
L 751.344217 216.129383 
L 751.344217 217.10744 
L 752.438979 217.10744 
L 752.438979 216.672748 
L 753.533742 216.672748 
L 753.533742 220.693651 
L 754.628504 220.693651 
L 754.628504 216.890094 
L 755.723267 216.890094 
L 755.723267 219.824267 
L 757.912792 219.93294 
L 757.912792 218.846209 
L 759.007555 218.846209 
L 759.007555 219.280901 
L 760.102317 219.280901 
L 760.102317 221.889055 
L 761.19708 221.889055 
L 761.19708 220.584978 
L 762.291842 220.584978 
L 762.291842 220.258959 
L 763.386605 220.258959 
L 763.386605 220.584978 
L 764.481367 220.584978 
L 764.481367 221.563036 
L 765.57613 221.563036 
L 765.57613 221.997728 
L 766.670892 221.997728 
L 766.670892 223.410478 
L 767.765655 223.410478 
L 767.765655 222.106401 
L 768.860417 222.106401 
L 768.860417 224.279862 
L 769.95518 224.279862 
L 769.95518 220.693651 
L 771.049942 220.693651 
L 771.049942 224.388535 
L 772.144705 224.388535 
L 772.144705 225.583939 
L 773.239467 225.583939 
L 773.239467 226.34465 
L 774.33423 226.34465 
L 774.33423 226.779342 
L 775.428993 226.779342 
L 775.428993 224.823227 
L 776.523755 224.823227 
L 776.523755 225.909958 
L 777.618518 225.909958 
L 777.618518 224.388535 
L 778.71328 224.388535 
L 778.71328 224.714554 
L 779.808043 224.714554 
L 779.808043 225.475266 
L 780.902805 225.475266 
L 780.902805 225.25792 
L 781.997568 225.25792 
L 781.997568 227.7574 
L 783.09233 227.7574 
L 783.09233 221.780382 
L 784.187093 221.780382 
L 784.187093 224.279862 
L 785.281855 224.279862 
L 785.281855 226.235977 
L 786.376618 226.235977 
L 786.376618 229.17015 
L 787.47138 229.17015 
L 787.47138 225.040573 
L 788.566143 225.040573 
L 788.566143 228.409438 
L 789.660905 228.409438 
L 789.660905 226.670669 
L 790.755668 226.670669 
L 790.755668 228.409438 
L 791.85043 228.409438 
L 791.85043 226.888015 
L 792.945193 226.888015 
L 792.945193 229.061476 
L 794.039956 229.061476 
L 794.039956 226.453323 
L 795.134718 226.453323 
L 795.134718 226.127304 
L 796.229481 226.127304 
L 796.229481 229.713515 
L 797.324243 229.713515 
L 797.324243 229.496169 
L 798.419006 229.496169 
L 798.419006 228.083419 
L 799.513768 228.083419 
L 799.513768 229.822188 
L 800.608531 229.822188 
L 800.608531 229.061476 
L 801.703293 229.061476 
L 801.703293 231.778303 
L 802.798056 231.778303 
L 802.798056 228.84413 
L 803.892818 228.84413 
L 803.892818 228.192092 
L 804.987581 228.192092 
L 804.987581 231.017591 
L 806.082343 231.017591 
L 806.082343 229.496169 
L 807.177106 229.496169 
L 807.177106 230.474226 
L 808.271868 230.474226 
L 808.271868 231.778303 
L 809.366631 231.778303 
L 809.366631 229.713515 
L 810.461393 229.713515 
L 810.461393 230.25688 
L 811.556156 230.25688 
L 811.556156 231.886976 
L 813.745681 231.778303 
L 813.745681 231.66963 
L 814.840444 231.66963 
L 814.840444 231.886976 
L 817.029969 231.778303 
L 817.029969 231.234938 
L 818.124731 231.234938 
L 818.124731 232.321668 
L 819.219494 232.321668 
L 819.219494 233.734418 
L 820.314256 233.734418 
L 820.314256 231.560957 
L 821.409019 231.560957 
L 821.409019 233.625745 
L 822.503781 233.625745 
L 822.503781 231.017591 
L 823.598544 231.017591 
L 823.598544 234.277783 
L 824.693306 234.277783 
L 824.693306 233.843091 
L 825.788069 233.843091 
L 825.788069 235.147168 
L 826.882831 235.147168 
L 826.882831 235.799206 
L 827.977594 235.799206 
L 827.977594 237.103283 
L 829.072357 237.103283 
L 829.072357 238.08134 
L 830.167119 238.08134 
L 830.167119 239.928782 
L 832.356644 240.037455 
L 832.356644 238.407359 
L 833.451407 238.407359 
L 833.451407 239.49409 
L 834.546169 239.49409 
L 834.546169 240.037455 
L 835.640932 240.037455 
L 835.640932 241.667551 
L 836.735694 241.667551 
L 836.735694 242.102243 
L 837.830457 242.102243 
L 837.830457 242.971628 
L 838.925219 242.971628 
L 838.925219 241.450205 
L 840.019982 241.450205 
L 840.019982 243.080301 
L 841.114744 243.080301 
L 841.114744 242.862955 
L 842.209507 242.862955 
L 842.209507 244.275704 
L 843.304269 244.275704 
L 843.304269 244.710396 
L 844.399032 244.710396 
L 844.399032 245.471108 
L 845.493794 245.471108 
L 845.493794 245.688454 
L 848.778082 245.688454 
L 848.778082 245.688454 
" clip-path="url(#p7cceb7bf9c)" style="fill: none; stroke: #1f77b4; stroke-width: 1.5; stroke-linecap: square"/>
   </g>
   <g id="patch_8">
    <path d="M 503.927885 257.158895 
L 503.927885 7.2 
" style="fill: none; stroke: #000000; stroke-width: 0.8; stroke-linejoin: miter; stroke-linecap: square"/>
   </g>
   <g id="patch_9">
    <path d="M 865.19952 257.158895 
L 865.19952 7.2 
" style="fill: none; stroke: #000000; stroke-width: 0.8; stroke-linejoin: miter; stroke-linecap: square"/>
   </g>
   <g id="patch_10">
    <path d="M 503.927885 257.158895 
L 865.19952 257.158895 
" style="fill: none; stroke: #000000; stroke-width: 0.8; stroke-linejoin: miter; stroke-linecap: square"/>
   </g>
   <g id="patch_11">
    <path d="M 503.927885 7.2 
L 865.19952 7.2 
" style="fill: none; stroke: #000000; stroke-width: 0.8; stroke-linejoin: miter; stroke-linecap: square"/>
   </g>
  </g>
 </g>
 <defs>
  <clipPath id="pda288b1df5">
   <rect x="53.328125" y="7.2" width="361.271635" height="249.958895"/>
  </clipPath>
  <clipPath id="p7cceb7bf9c">
   <rect x="503.927885" y="7.2" width="361.271635" height="249.958895"/>
  </clipPath>
 </defs>
</svg>
