<?xml version="1.0" encoding="utf-8" standalone="no"?>
<!DOCTYPE svg PUBLIC "-//W3C//DTD SVG 1.1//EN"
  "http://www.w3.org/Graphics/SVG/1.1/DTD/svg11.dtd">
<svg xmlns:xlink="http://www.w3.org/1999/xlink" width="872.39952pt" height="296.39952pt" viewBox="0 0 872.39952 296.39952" xmlns="http://www.w3.org/2000/svg" version="1.1">
 <metadata>
  <rdf:RDF xmlns:dc="http://purl.org/dc/elements/1.1/" xmlns:cc="http://creativecommons.org/ns#" xmlns:rdf="http://www.w3.org/1999/02/22-rdf-syntax-ns#">
   <cc:Work>
    <dc:type rdf:resource="http://purl.org/dc/dcmitype/StillImage"/>
    <dc:date>2026-09-22T07:26:20.325740</dc:date>
    <dc:format>image/svg+xml</dc:format>
    <dc:creator>
     <cc:Agent>
      <dc:title>Matplotlib v3.11.0, https://matplotlib.org/</dc:title>
     </cc:Agent>
    </dc:creator>
   </cc:Work>
  </rdf:RDF>
 </metadata>
 <defs>
  <style type="text/css">*{stroke-linejoin: round; stroke-linecap: butt}</style>
 </defs>
 <g id="figure_1">
  <g id="patch_1">
   <path d="M 0 296.39952 
L 872.39952 296.39952 
L 872.39952 0 
L 0 0 
z
" style="fill: #ffffff"/>
  </g>
  <g id="axes_1">
   <g id="patch_2">
    <path d="M 53.650781 256.514364 
L 414.59976 256.514364 
L 414.59976 7.2 
L 53.650781 7.2 
z
" style="fill: #ffffff"/>
   </g>
   <g id="matplotlib.axis_1">
    <g id="xtick_1">
     <g id="line2d_1">
      <defs>
       <path id="mbbe1f1ffe7" d="M 0 0 
L 0 3.5 
" style="stroke: #000000; stroke-width: 0.8"/>
      </defs>
      <g>
       <use xlink:href="#mbbe1f1ffe7" x="59.078644" y="256.514364" style="stroke: #000000; stroke-width: 0.8"/>
      </g>
     </g>
     <g id="text_1">
      <!-- 10000 -->
      <g transform="translate(43.172394 271.11202) scale(0.1 -0.1)">
       <defs>
        <path id="DejaVuSans-14" d="M 794 531 
L 1825 531 
L 1825 4091 
L 703 3866 
L 703 4441 
L 1819 4666 
L 2450 4666 
L 2450 531 
L 3481 531 
L 3481 0 
L 794 0 
L 794 531 
z
" transform="scale(0.015625)"/>
        <path id="DejaVuSans-13" d="M 2034 4250 
Q 1547 4250 1301 3770 
Q 1056 3291 1056 2328 
Q 1056 1369 1301 889 
Q 1547 409 2034 409 
Q 2525 409 2770 889 
Q 3016 1369 3016 2328 
Q 3016 3291 2770 3770 
Q 2525 4250 2034 4250 
z
M 2034 4750 
Q 2819 4750 3233 4129 
Q 3647 3509 3647 2328 
Q 3647 1150 3233 529 
Q 2819 -91 2034 -91 
Q 1250 -91 836 529 
Q 422 1150 422 2328 
Q 422 3509 836 4129 
Q 1250 4750 2034 4750 
z
" transform="scale(0.015625)"/>
       </defs>
       <use xlink:href="#DejaVuSans-14"/>
       <use xlink:href="#DejaVuSans-13" transform="translate(63.625 0)"/>
       <use xlink:href="#DejaVuSans-13" transform="translate(127.25 0)"/>
       <use xlink:href="#DejaVuSans-13" transform="translate(190.875 0)"/>
       <use xlink:href="#DejaVuSans-13" transform="translate(254.5 0)"/>
      </g>
     </g>
    </g>
    <g id="xtick_2">
     <g id="line2d_2">
      <g>
       <use xlink:href="#mbbe1f1ffe7" x="112.654798" y="256.514364" style="stroke: #000000; stroke-width: 0.8"/>
      </g>
     </g>
     <g id="text_2">
      <!-- 15000 -->
      <g transform="translate(96.748548 271.11202) scale(0.1 -0.1)">
       <defs>
        <path id="DejaVuSans-18" d="M 691 4666 
L 3169 4666 
L 3169 4134 
L 1269 4134 
L 1269 2991 
Q 1406 3038 1543 3061 
Q 1681 3084 1819 3084 
Q 2600 3084 3056 2656 
Q 3513 2228 3513 1497 
Q 3513 744 3044 326 
Q 2575 -91 1722 -91 
Q 1428 -91 1123 -41 
Q 819 9 494 109 
L 494 744 
Q 775 591 1075 516 
Q 1375 441 1709 441 
Q 2250 441 2565 725 
Q 2881 1009 2881 1497 
Q 2881 1984 2565 2268 
Q 2250 2553 1709 2553 
Q 1456 2553 1204 2497 
Q 953 2441 691 2322 
L 691 4666 
z
" transform="scale(0.015625)"/>
       </defs>
       <use xlink:href="#DejaVuSans-14"/>
       <use xlink:href="#DejaVuSans-18" transform="translate(63.625 0)"/>
       <use xlink:href="#DejaVuSans-13" transform="translate(127.25 0)"/>
       <use xlink:href="#DejaVuSans-13" transform="translate(190.875 0)"/>
       <use xlink:href="#DejaVuSans-13" transform="translate(254.5 0)"/>
      </g>
     </g>
    </g>
    <g id="xtick_3">
     <g id="line2d_3">
      <g>
       <use xlink:href="#mbbe1f1ffe7" x="166.230953" y="256.514364" style="stroke: #000000; stroke-width: 0.8"/>
      </g>
     </g>
     <g id="text_3">
      <!-- 20000 -->
      <g transform="translate(150.324703 271.11202) scale(0.1 -0.1)">
       <defs>
        <path id="DejaVuSans-15" d="M 1228 531 
L 3431 531 
L 3431 0 
L 469 0 
L 469 531 
Q 828 903 1448 1529 
Q 2069 2156 2228 2338 
Q 2531 2678 2651 2914 
Q 2772 3150 2772 3378 
Q 2772 3750 2511 3984 
Q 2250 4219 1831 4219 
Q 1534 4219 1204 4116 
Q 875 4013 500 3803 
L 500 4441 
Q 881 4594 1212 4672 
Q 1544 4750 1819 4750 
Q 2544 4750 2975 4387 
Q 3406 4025 3406 3419 
Q 3406 3131 3298 2873 
Q 3191 2616 2906 2266 
Q 2828 2175 2409 1742 
Q 1991 1309 1228 531 
z
" transform="scale(0.015625)"/>
       </defs>
       <use xlink:href="#DejaVuSans-15"/>
       <use xlink:href="#DejaVuSans-13" transform="translate(63.625 0)"/>
       <use xlink:href="#DejaVuSans-13" transform="translate(127.25 0)"/>
       <use xlink:href="#DejaVuSans-13" transform="translate(190.875 0)"/>
       <use xlink:href="#DejaVuSans-13" transform="translate(254.5 0)"/>
      </g>
     </g>
    </g>
    <g id="xtick_4">
     <g id="line2d_4">
      <g>
       <use xlink:href="#mbbe1f1ffe7" x="219.807108" y="256.514364" style="stroke: #000000; stroke-width: 0.8"/>
      </g>
     </g>
     <g id="text_4">
      <!-- 25000 -->
      <g transform="translate(203.900858 271.11202) scale(0.1 -0.1)">
       <use xlink:href="#DejaVuSans-15"/>
       <use xlink:href="#DejaVuSans-18" transform="translate(63.625 0)"/>
       <use xlink:href="#DejaVuSans-13" transform="translate(127.25 0)"/>
       <use xlink:href="#DejaVuSans-13" transform="translate(190.875 0)"/>
       <use xlink:href="#DejaVuSans-13" transform="translate(254.5 0)"/>
      </g>
     </g>
    </g>
    <g id="xtick_5">
     <g id="line2d_5">
      <g>
       <use xlink:href="#mbbe1f1ffe7" x="273.383263" y="256.514364" style="stroke: #000000; stroke-width: 0.8"/>
      </g>
     </g>
     <g id="text_5">
      <!-- 30000 -->
      <g transform="translate(257.477013 271.11202) scale(0.1 -0.1)">
       <defs>
        <path id="DejaVuSans-16" d="M 2597 2516 
Q 3050 2419 3304 2112 
Q 3559 1806 3559 1356 
Q 3559 666 3084 287 
Q 2609 -91 1734 -91 
Q 1441 -91 1130 -33 
Q 819 25 488 141 
L 488 750 
Q 750 597 1062 519 
Q 1375 441 1716 441 
Q 2309 441 2620 675 
Q 2931 909 2931 1356 
Q 2931 1769 2642 2001 
Q 2353 2234 1838 2234 
L 1294 2234 
L 1294 2753 
L 1863 2753 
Q 2328 2753 2575 2939 
Q 2822 3125 2822 3475 
Q 2822 3834 2567 4026 
Q 2313 4219 1838 4219 
Q 1578 4219 1281 4162 
Q 984 4106 628 3988 
L 628 4550 
Q 988 4650 1302 4700 
Q 1616 4750 1894 4750 
Q 2613 4750 3031 4423 
Q 3450 4097 3450 3541 
Q 3450 3153 3228 2886 
Q 3006 2619 2597 2516 
z
" transform="scale(0.015625)"/>
       </defs>
       <use xlink:href="#DejaVuSans-16"/>
       <use xlink:href="#DejaVuSans-13" transform="translate(63.625 0)"/>
       <use xlink:href="#DejaVuSans-13" transform="translate(127.25 0)"/>
       <use xlink:href="#DejaVuSans-13" transform="translate(190.875 0)"/>
       <use xlink:href="#DejaVuSans-13" transform="translate(254.5 0)"/>
      </g>
     </g>
    </g>
    <g id="xtick_6">
     <g id="line2d_6">
      <g>
       <use xlink:href="#mbbe1f1ffe7" x="326.959418" y="256.514364" style="stroke: #000000; stroke-width: 0.8"/>
      </g>
     </g>
     <g id="text_6">
      <!-- 35000 -->
      <g transform="translate(311.053168 271.11202) scale(0.1 -0.1)">
       <use xlink:href="#DejaVuSans-16"/>
       <use xlink:href="#DejaVuSans-18" transform="translate(63.625 0)"/>
       <use xlink:href="#DejaVuSans-13" transform="translate(127.25 0)"/>
       <use xlink:href="#DejaVuSans-13" transform="translate(190.875 0)"/>
       <use xlink:href="#DejaVuSans-13" transform="translate(254.5 0)"/>
      </g>
     </g>
    </g>
    <g id="xtick_7">
     <g id="line2d_7">
      <g>
       <use xlink:href="#mbbe1f1ffe7" x="380.535573" y="256.514364" style="stroke: #000000; stroke-width: 0.8"/>
      </g>
     </g>
     <g id="text_7">
      <!-- 40000 -->
      <g transform="translate(364.629323 271.11202) scale(0.1 -0.1)">
       <defs>
        <path id="DejaVuSans-17" d="M 2419 4116 
L 825 1625 
L 2419 1625 
L 2419 4116 
z
M 2253 4666 
L 3047 4666 
L 3047 1625 
L 3713 1625 
L 3713 1100 
L 3047 1100 
L 3047 0 
L 2419 0 
L 2419 1100 
L 313 1100 
L 313 1709 
L 2253 4666 
z
" transform="scale(0.015625)"/>
       </defs>
       <use xlink:href="#DejaVuSans-17"/>
       <use xlink:href="#DejaVuSans-13" transform="translate(63.625 0)"/>
       <use xlink:href="#DejaVuSans-13" transform="translate(127.25 0)"/>
       <use xlink:href="#DejaVuSans-13" transform="translate(190.875 0)"/>
       <use xlink:href="#DejaVuSans-13" transform="translate(254.5 0)"/>
      </g>
     </g>
    </g>
    <g id="text_8">
     <!-- toa [µs] -->
     <g transform="translate(214.765114 285.112801) scale(0.1 -0.1)">
      <defs>
       <path id="DejaVuSans-57" d="M 1172 4494 
L 1172 3500 
L 2356 3500 
L 2356 3053 
L 1172 3053 
L 1172 1153 
Q 1172 725 1289 603 
Q 1406 481 1766 481 
L 2356 481 
L 2356 0 
L 1766 0 
Q 1100 0 847 248 
Q 594 497 594 1153 
L 594 3053 
L 172 3053 
L 172 3500 
L 594 3500 
L 594 4494 
L 1172 4494 
z
" transform="scale(0.015625)"/>
       <path id="DejaVuSans-52" d="M 1959 3097 
Q 1497 3097 1228 2736 
Q 959 2375 959 1747 
Q 959 1119 1226 758 
Q 1494 397 1959 397 
Q 2419 397 2687 759 
Q 2956 1122 2956 1747 
Q 2956 2369 2687 2733 
Q 2419 3097 1959 3097 
z
M 1959 3584 
Q 2709 3584 3137 3096 
Q 3566 2609 3566 1747 
Q 3566 888 3137 398 
Q 2709 -91 1959 -91 
Q 1206 -91 779 398 
Q 353 888 353 1747 
Q 353 2609 779 3096 
Q 1206 3584 1959 3584 
z
" transform="scale(0.015625)"/>
       <path id="DejaVuSans-44" d="M 2194 1759 
Q 1497 1759 1228 1600 
Q 959 1441 959 1056 
Q 959 750 1161 570 
Q 1363 391 1709 391 
Q 2188 391 2477 730 
Q 2766 1069 2766 1631 
L 2766 1759 
L 2194 1759 
z
M 3341 1997 
L 3341 0 
L 2766 0 
L 2766 531 
Q 2569 213 2275 61 
Q 1981 -91 1556 -91 
Q 1019 -91 701 211 
Q 384 513 384 1019 
Q 384 1609 779 1909 
Q 1175 2209 1959 2209 
L 2766 2209 
L 2766 2266 
Q 2766 2663 2505 2880 
Q 2244 3097 1772 3097 
Q 1472 3097 1187 3025 
Q 903 2953 641 2809 
L 641 3341 
Q 956 3463 1253 3523 
Q 1550 3584 1831 3584 
Q 2591 3584 2966 3190 
Q 3341 2797 3341 1997 
z
" transform="scale(0.015625)"/>
       <path id="DejaVuSans-3" transform="scale(0.015625)"/>
       <path id="DejaVuSans-3e" d="M 550 4863 
L 1875 4863 
L 1875 4416 
L 1125 4416 
L 1125 -397 
L 1875 -397 
L 1875 -844 
L 550 -844 
L 550 4863 
z
" transform="scale(0.015625)"/>
       <path id="DejaVuSans-77" d="M 544 -1331 
L 544 3500 
L 1119 3500 
L 1119 1325 
Q 1119 872 1334 640 
Q 1550 409 1972 409 
Q 2434 409 2667 671 
Q 2900 934 2900 1459 
L 2900 3500 
L 3475 3500 
L 3475 806 
Q 3475 619 3529 530 
Q 3584 441 3700 441 
Q 3728 441 3778 458 
Q 3828 475 3916 513 
L 3916 50 
Q 3788 -22 3673 -56 
Q 3559 -91 3450 -91 
Q 3234 -91 3106 31 
Q 2978 153 2931 403 
Q 2775 156 2548 32 
Q 2322 -91 2016 -91 
Q 1697 -91 1473 31 
Q 1250 153 1119 397 
L 1119 -1331 
L 544 -1331 
z
" transform="scale(0.015625)"/>
       <path id="DejaVuSans-56" d="M 2834 3397 
L 2834 2853 
Q 2591 2978 2328 3040 
Q 2066 3103 1784 3103 
Q 1356 3103 1142 2972 
Q 928 2841 928 2578 
Q 928 2378 1081 2264 
Q 1234 2150 1697 2047 
L 1894 2003 
Q 2506 1872 2764 1633 
Q 3022 1394 3022 966 
Q 3022 478 2636 193 
Q 2250 -91 1575 -91 
Q 1294 -91 989 -36 
Q 684 19 347 128 
L 347 722 
Q 666 556 975 473 
Q 1284 391 1588 391 
Q 1994 391 2212 530 
Q 2431 669 2431 922 
Q 2431 1156 2273 1281 
Q 2116 1406 1581 1522 
L 1381 1569 
Q 847 1681 609 1914 
Q 372 2147 372 2553 
Q 372 3047 722 3315 
Q 1072 3584 1716 3584 
Q 2034 3584 2315 3537 
Q 2597 3491 2834 3397 
z
" transform="scale(0.015625)"/>
       <path id="DejaVuSans-40" d="M 1947 4863 
L 1947 -844 
L 622 -844 
L 622 -397 
L 1369 -397 
L 1369 4416 
L 622 4416 
L 622 4863 
L 1947 4863 
z
" transform="scale(0.015625)"/>
      </defs>
      <use xlink:href="#DejaVuSans-57"/>
      <use xlink:href="#DejaVuSans-52" transform="translate(39.203125 0)"/>
      <use xlink:href="#DejaVuSans-44" transform="translate(100.390625 0)"/>
      <use xlink:href="#DejaVuSans-3" transform="translate(161.671875 0)"/>
      <use xlink:href="#DejaVuSans-3e" transform="translate(193.453125 0)"/>
      <use xlink:href="#DejaVuSans-77" transform="translate(232.46875 0)"/>
      <use xlink:href="#DejaVuSans-56" transform="translate(296.09375 0)"/>
      <use xlink:href="#DejaVuSans-40" transform="translate(348.1875 0)"/>
     </g>
    </g>
   </g>
   <g id="matplotlib.axis_2">
    <g id="ytick_1">
     <g id="line2d_8">
      <defs>
       <path id="med95fa9395" d="M 0 0 
L -3.5 0 
" style="stroke: #000000; stroke-width: 0.8"/>
      </defs>
      <g>
       <use xlink:href="#med95fa9395" x="53.650781" y="245.181893" style="stroke: #000000; stroke-width: 0.8"/>
      </g>
     </g>
     <g id="text_9">
      <!-- 0 -->
      <g transform="translate(40.288281 248.980721) scale(0.1 -0.1)">
       <use xlink:href="#DejaVuSans-13"/>
      </g>
     </g>
    </g>
    <g id="ytick_2">
     <g id="line2d_9">
      <g>
       <use xlink:href="#med95fa9395" x="53.650781" y="213.078575" style="stroke: #000000; stroke-width: 0.8"/>
      </g>
     </g>
     <g id="text_10">
      <!-- 500 -->
      <g transform="translate(27.563281 216.877403) scale(0.1 -0.1)">
       <use xlink:href="#DejaVuSans-18"/>
       <use xlink:href="#DejaVuSans-13" transform="translate(63.625 0)"/>
       <use xlink:href="#DejaVuSans-13" transform="translate(127.25 0)"/>
      </g>
     </g>
    </g>
    <g id="ytick_3">
     <g id="line2d_10">
      <g>
       <use xlink:href="#med95fa9395" x="53.650781" y="180.975258" style="stroke: #000000; stroke-width: 0.8"/>
      </g>
     </g>
     <g id="text_11">
      <!-- 1000 -->
      <g transform="translate(21.200781 184.774086) scale(0.1 -0.1)">
       <use xlink:href="#DejaVuSans-14"/>
       <use xlink:href="#DejaVuSans-13" transform="translate(63.625 0)"/>
       <use xlink:href="#DejaVuSans-13" transform="translate(127.25 0)"/>
       <use xlink:href="#DejaVuSans-13" transform="translate(190.875 0)"/>
      </g>
     </g>
    </g>
    <g id="ytick_4">
     <g id="line2d_11">
      <g>
       <use xlink:href="#med95fa9395" x="53.650781" y="148.87194" style="stroke: #000000; stroke-width: 0.8"/>
      </g>
     </g>
     <g id="text_12">
      <!-- 1500 -->
      <g transform="translate(21.200781 152.670768) scale(0.1 -0.1)">
       <use xlink:href="#DejaVuSans-14"/>
       <use xlink:href="#DejaVuSans-18" transform="translate(63.625 0)"/>
       <use xlink:href="#DejaVuSans-13" transform="translate(127.25 0)"/>
       <use xlink:href="#DejaVuSans-13" transform="translate(190.875 0)"/>
      </g>
     </g>
    </g>
    <g id="ytick_5">
     <g id="line2d_12">
      <g>
       <use xlink:href="#med95fa9395" x="53.650781" y="116.768623" style="stroke: #000000; stroke-width: 0.8"/>
      </g>
     </g>
     <g id="text_13">
      <!-- 2000 -->
      <g transform="translate(21.200781 120.567451) scale(0.1 -0.1)">
       <use xlink:href="#DejaVuSans-15"/>
       <use xlink:href="#DejaVuSans-13" transform="translate(63.625 0)"/>
       <use xlink:href="#DejaVuSans-13" transform="translate(127.25 0)"/>
       <use xlink:href="#DejaVuSans-13" transform="translate(190.875 0)"/>
      </g>
     </g>
    </g>
    <g id="ytick_6">
     <g id="line2d_13">
      <g>
       <use xlink:href="#med95fa9395" x="53.650781" y="84.665305" style="stroke: #000000; stroke-width: 0.8"/>
      </g>
     </g>
     <g id="text_14">
      <!-- 2500 -->
      <g transform="translate(21.200781 88.464133) scale(0.1 -0.1)">
       <use xlink:href="#DejaVuSans-15"/>
       <use xlink:href="#DejaVuSans-18" transform="translate(63.625 0)"/>
       <use xlink:href="#DejaVuSans-13" transform="translate(127.25 0)"/>
       <use xlink:href="#DejaVuSans-13" transform="translate(190.875 0)"/>
      </g>
     </g>
    </g>
    <g id="ytick_7">
     <g id="line2d_14">
      <g>
       <use xlink:href="#med95fa9395" x="53.650781" y="52.561988" style="stroke: #000000; stroke-width: 0.8"/>
      </g>
     </g>
     <g id="text_15">
      <!-- 3000 -->
      <g transform="translate(21.200781 56.360816) scale(0.1 -0.1)">
       <use xlink:href="#DejaVuSans-16"/>
       <use xlink:href="#DejaVuSans-13" transform="translate(63.625 0)"/>
       <use xlink:href="#DejaVuSans-13" transform="translate(127.25 0)"/>
       <use xlink:href="#DejaVuSans-13" transform="translate(190.875 0)"/>
      </g>
     </g>
    </g>
    <g id="ytick_8">
     <g id="line2d_15">
      <g>
       <use xlink:href="#med95fa9395" x="53.650781" y="20.45867" style="stroke: #000000; stroke-width: 0.8"/>
      </g>
     </g>
     <g id="text_16">
      <!-- 3500 -->
      <g transform="translate(21.200781 24.257498) scale(0.1 -0.1)">
       <use xlink:href="#DejaVuSans-16"/>
       <use xlink:href="#DejaVuSans-18" transform="translate(63.625 0)"/>
       <use xlink:href="#DejaVuSans-13" transform="translate(127.25 0)"/>
       <use xlink:href="#DejaVuSans-13" transform="translate(190.875 0)"/>
      </g>
     </g>
    </g>
    <g id="text_17">
     <!-- pulse:0 [counts] -->
     <g transform="translate(14.798438 172.337651) rotate(-90) scale(0.1 -0.1)">
      <defs>
       <path id="DejaVuSans-53" d="M 1159 525 
L 1159 -1331 
L 581 -1331 
L 581 3500 
L 1159 3500 
L 1159 2969 
Q 1341 3281 1617 3432 
Q 1894 3584 2278 3584 
Q 2916 3584 3314 3078 
Q 3713 2572 3713 1747 
Q 3713 922 3314 415 
Q 2916 -91 2278 -91 
Q 1894 -91 1617 61 
Q 1341 213 1159 525 
z
M 3116 1747 
Q 3116 2381 2855 2742 
Q 2594 3103 2138 3103 
Q 1681 3103 1420 2742 
Q 1159 2381 1159 1747 
Q 1159 1113 1420 752 
Q 1681 391 2138 391 
Q 2594 391 2855 752 
Q 3116 1113 3116 1747 
z
" transform="scale(0.015625)"/>
       <path id="DejaVuSans-58" d="M 544 1381 
L 544 3500 
L 1119 3500 
L 1119 1403 
Q 1119 906 1312 657 
Q 1506 409 1894 409 
Q 2359 409 2629 706 
Q 2900 1003 2900 1516 
L 2900 3500 
L 3475 3500 
L 3475 0 
L 2900 0 
L 2900 538 
Q 2691 219 2414 64 
Q 2138 -91 1772 -91 
Q 1169 -91 856 284 
Q 544 659 544 1381 
z
M 1991 3584 
L 1991 3584 
z
" transform="scale(0.015625)"/>
       <path id="DejaVuSans-4f" d="M 603 4863 
L 1178 4863 
L 1178 0 
L 603 0 
L 603 4863 
z
" transform="scale(0.015625)"/>
       <path id="DejaVuSans-48" d="M 3597 1894 
L 3597 1613 
L 953 1613 
Q 991 1019 1311 708 
Q 1631 397 2203 397 
Q 2534 397 2845 478 
Q 3156 559 3463 722 
L 3463 178 
Q 3153 47 2828 -22 
Q 2503 -91 2169 -91 
Q 1331 -91 842 396 
Q 353 884 353 1716 
Q 353 2575 817 3079 
Q 1281 3584 2069 3584 
Q 2775 3584 3186 3129 
Q 3597 2675 3597 1894 
z
M 3022 2063 
Q 3016 2534 2758 2815 
Q 2500 3097 2075 3097 
Q 1594 3097 1305 2825 
Q 1016 2553 972 2059 
L 3022 2063 
z
" transform="scale(0.015625)"/>
       <path id="DejaVuSans-1d" d="M 750 794 
L 1409 794 
L 1409 0 
L 750 0 
L 750 794 
z
M 750 3309 
L 1409 3309 
L 1409 2516 
L 750 2516 
L 750 3309 
z
" transform="scale(0.015625)"/>
       <path id="DejaVuSans-46" d="M 3122 3366 
L 3122 2828 
Q 2878 2963 2633 3030 
Q 2388 3097 2138 3097 
Q 1578 3097 1268 2742 
Q 959 2388 959 1747 
Q 959 1106 1268 751 
Q 1578 397 2138 397 
Q 2388 397 2633 464 
Q 2878 531 3122 666 
L 3122 134 
Q 2881 22 2623 -34 
Q 2366 -91 2075 -91 
Q 1284 -91 818 406 
Q 353 903 353 1747 
Q 353 2603 823 3093 
Q 1294 3584 2113 3584 
Q 2378 3584 2631 3529 
Q 2884 3475 3122 3366 
z
" transform="scale(0.015625)"/>
       <path id="DejaVuSans-51" d="M 3513 2113 
L 3513 0 
L 2938 0 
L 2938 2094 
Q 2938 2591 2744 2837 
Q 2550 3084 2163 3084 
Q 1697 3084 1428 2787 
Q 1159 2491 1159 1978 
L 1159 0 
L 581 0 
L 581 3500 
L 1159 3500 
L 1159 2956 
Q 1366 3272 1645 3428 
Q 1925 3584 2291 3584 
Q 2894 3584 3203 3211 
Q 3513 2838 3513 2113 
z
" transform="scale(0.015625)"/>
      </defs>
      <use xlink:href="#DejaVuSans-53"/>
      <use xlink:href="#DejaVuSans-58" transform="translate(63.484375 0)"/>
      <use xlink:href="#DejaVuSans-4f" transform="translate(126.859375 0)"/>
      <use xlink:href="#DejaVuSans-56" transform="translate(154.640625 0)"/>
      <use xlink:href="#DejaVuSans-48" transform="translate(206.734375 0)"/>
      <use xlink:href="#DejaVuSans-1d" transform="translate(268.265625 0)"/>
      <use xlink:href="#DejaVuSans-13" transform="translate(301.953125 0)"/>
      <use xlink:href="#DejaVuSans-3" transform="translate(365.578125 0)"/>
      <use xlink:href="#DejaVuSans-3e" transform="translate(397.359375 0)"/>
      <use xlink:href="#DejaVuSans-46" transform="translate(436.375 0)"/>
      <use xlink:href="#DejaVuSans-52" transform="translate(491.359375 0)"/>
      <use xlink:href="#DejaVuSans-58" transform="translate(552.546875 0)"/>
      <use xlink:href="#DejaVuSans-51" transform="translate(615.921875 0)"/>
      <use xlink:href="#DejaVuSans-57" transform="translate(679.296875 0)"/>
      <use xlink:href="#DejaVuSans-56" transform="translate(718.5 0)"/>
      <use xlink:href="#DejaVuSans-40" transform="translate(770.59375 0)"/>
     </g>
    </g>
   </g>
   <g id="line2d_16">
    <path d="M 70.057553 245.117686 
L 73.338907 245.117686 
L 73.338907 244.989273 
L 78.807831 244.925066 
L 78.807831 244.604033 
L 79.901616 244.604033 
L 79.901616 244.860859 
L 80.995401 244.860859 
L 80.995401 244.539826 
L 82.089186 244.539826 
L 82.089186 244.09038 
L 83.18297 244.09038 
L 83.18297 243.89776 
L 84.276755 243.89776 
L 84.276755 242.93466 
L 85.37054 242.93466 
L 85.37054 241.843148 
L 86.464325 241.843148 
L 86.464325 237.862336 
L 87.55811 237.862336 
L 87.55811 235.743517 
L 88.651894 235.743517 
L 88.651894 230.7354 
L 89.745679 230.7354 
L 89.745679 220.526545 
L 90.839464 220.526545 
L 90.839464 212.885955 
L 91.933249 212.885955 
L 91.933249 198.375256 
L 93.027033 198.375256 
L 93.027033 179.691125 
L 94.120818 179.691125 
L 94.120818 162.41954 
L 95.214603 162.41954 
L 95.214603 149.770833 
L 96.308388 149.770833 
L 96.308388 136.736886 
L 97.402173 136.736886 
L 97.402173 124.473419 
L 98.495957 124.473419 
L 98.495957 109.063826 
L 99.589742 109.063826 
L 99.589742 97.314012 
L 100.683527 97.314012 
L 100.683527 85.564198 
L 101.777312 85.564198 
L 101.777312 82.418073 
L 102.871097 82.418073 
L 102.871097 74.970103 
L 103.964881 74.970103 
L 103.964881 62.578223 
L 105.058666 62.578223 
L 105.058666 63.220289 
L 106.152451 63.220289 
L 106.152451 53.204054 
L 107.246236 53.204054 
L 107.246236 43.316232 
L 108.34002 43.316232 
L 108.34002 35.932469 
L 109.433805 35.932469 
L 109.433805 35.547229 
L 110.52759 35.547229 
L 110.52759 40.1059 
L 111.621375 40.1059 
L 111.621375 24.439482 
L 112.71516 24.439482 
L 112.71516 18.596678 
L 113.808944 18.596678 
L 113.808944 21.742803 
L 114.902729 21.742803 
L 114.902729 25.274168 
L 115.996514 25.274168 
L 115.996514 18.532471 
L 117.090299 18.532471 
L 117.090299 22.705902 
L 118.184084 22.705902 
L 118.184084 18.917711 
L 119.277868 18.917711 
L 119.277868 27.457193 
L 120.371653 27.457193 
L 120.371653 33.685237 
L 121.465438 33.685237 
L 121.465438 32.786344 
L 122.559223 32.786344 
L 122.559223 45.691878 
L 123.653007 45.691878 
L 123.653007 44.985605 
L 124.746792 44.985605 
L 124.746792 49.801102 
L 125.840577 49.801102 
L 125.840577 53.075641 
L 126.934362 53.075641 
L 126.934362 55.515493 
L 128.028147 55.515493 
L 128.028147 58.147965 
L 129.121931 58.147965 
L 129.121931 61.550917 
L 130.215716 61.550917 
L 130.215716 72.594458 
L 131.309501 72.594458 
L 131.309501 71.952391 
L 132.403286 71.952391 
L 132.403286 71.374532 
L 133.49707 71.374532 
L 133.49707 81.390767 
L 134.590855 81.390767 
L 134.590855 83.766412 
L 135.68464 83.766412 
L 135.68464 84.215859 
L 136.778425 84.215859 
L 136.778425 86.655711 
L 137.87221 86.655711 
L 137.87221 92.498515 
L 138.965994 92.498515 
L 138.965994 99.111798 
L 140.059779 99.111798 
L 140.059779 99.561244 
L 141.153564 99.561244 
L 141.153564 100.588551 
L 142.247349 100.588551 
L 142.247349 104.954602 
L 143.341134 104.954602 
L 143.341134 115.86973 
L 144.434918 115.86973 
L 144.434918 119.144268 
L 145.528703 119.144268 
L 145.528703 114.071944 
L 146.622488 114.071944 
L 146.622488 128.711057 
L 147.716273 128.711057 
L 147.716273 131.279322 
L 148.810057 131.279322 
L 148.810057 139.754598 
L 149.903842 139.754598 
L 149.903842 149.64242 
L 150.997627 149.64242 
L 150.997627 161.713267 
L 152.091412 161.713267 
L 152.091412 163.19002 
L 153.185197 163.19002 
L 153.185197 167.106624 
L 154.278981 167.106624 
L 154.278981 174.939834 
L 155.372766 174.939834 
L 155.372766 184.827656 
L 156.466551 184.827656 
L 156.466551 189.450533 
L 157.560336 189.450533 
L 157.560336 193.495551 
L 158.654121 193.495551 
L 158.654121 199.852008 
L 159.747905 199.852008 
L 159.747905 205.630606 
L 160.84169 205.630606 
L 160.84169 211.280789 
L 161.935475 211.280789 
L 161.935475 213.014369 
L 163.02926 213.014369 
L 163.02926 220.012892 
L 164.123044 220.012892 
L 164.123044 223.159017 
L 165.216829 223.159017 
L 165.216829 227.332448 
L 166.310614 227.332448 
L 166.310614 229.515474 
L 167.404399 229.515474 
L 167.404399 233.496285 
L 168.498184 233.496285 
L 168.498184 235.550897 
L 169.591968 235.550897 
L 169.591968 238.825436 
L 170.685753 238.825436 
L 170.685753 241.265288 
L 171.779538 241.265288 
L 171.779538 242.613627 
L 172.873323 242.613627 
L 172.873323 244.218793 
L 173.967107 244.218793 
L 173.967107 244.989273 
L 175.060892 244.989273 
L 175.060892 245.181893 
L 189.280094 245.181893 
L 189.280094 245.053479 
L 190.373879 245.053479 
L 190.373879 244.925066 
L 192.561449 244.925066 
L 192.561449 245.053479 
L 195.842803 244.989273 
L 195.842803 244.47562 
L 196.936588 244.47562 
L 196.936588 244.09038 
L 198.030373 244.09038 
L 198.030373 243.51252 
L 199.124158 243.51252 
L 199.124158 243.384107 
L 200.217942 243.384107 
L 200.217942 242.806247 
L 201.311727 242.806247 
L 201.311727 241.522114 
L 202.405512 241.522114 
L 202.405512 240.815841 
L 203.499297 240.815841 
L 203.499297 238.311783 
L 204.593081 238.311783 
L 204.593081 235.807724 
L 205.686866 235.807724 
L 205.686866 235.037244 
L 206.780651 235.037244 
L 206.780651 229.96492 
L 207.874436 229.96492 
L 207.874436 230.7354 
L 208.968221 230.7354 
L 208.968221 228.102928 
L 210.062005 228.102928 
L 210.062005 225.085216 
L 211.15579 225.085216 
L 211.15579 224.314736 
L 212.249575 224.314736 
L 212.249575 225.085216 
L 213.34336 225.085216 
L 213.34336 223.09481 
L 214.437145 223.09481 
L 214.437145 217.701453 
L 215.530929 217.701453 
L 215.530929 217.444626 
L 216.624714 217.444626 
L 216.624714 216.674147 
L 217.718499 216.674147 
L 217.718499 217.38042 
L 218.812284 217.38042 
L 218.812284 214.683741 
L 219.906068 214.683741 
L 219.906068 216.2247 
L 220.999853 216.2247 
L 220.999853 213.206988 
L 222.093638 213.206988 
L 222.093638 212.500715 
L 224.281208 212.564922 
L 224.281208 210.831343 
L 225.374992 210.831343 
L 225.374992 212.051269 
L 226.468777 212.051269 
L 226.468777 211.537616 
L 227.562562 211.537616 
L 227.562562 211.794442 
L 228.656347 211.794442 
L 228.656347 210.638723 
L 229.750131 210.638723 
L 229.750131 211.152376 
L 230.843916 211.152376 
L 230.843916 211.987062 
L 231.937701 211.987062 
L 231.937701 211.794442 
L 233.031486 211.794442 
L 233.031486 211.344996 
L 234.125271 211.344996 
L 234.125271 211.987062 
L 235.219055 211.987062 
L 235.219055 213.078575 
L 237.406625 213.078575 
L 237.406625 215.197394 
L 238.50041 215.197394 
L 238.50041 215.390014 
L 239.594195 215.390014 
L 239.594195 214.555328 
L 240.687979 214.555328 
L 240.687979 215.004774 
L 241.781764 215.004774 
L 241.781764 216.60994 
L 242.875549 216.60994 
L 242.875549 214.362708 
L 243.969334 214.362708 
L 243.969334 215.711047 
L 245.063118 215.711047 
L 245.063118 216.674147 
L 246.156903 216.674147 
L 246.156903 218.921379 
L 247.250688 218.921379 
L 247.250688 217.829866 
L 248.344473 217.829866 
L 248.344473 217.444626 
L 249.438258 217.444626 
L 249.438258 218.343519 
L 250.532042 218.343519 
L 250.532042 221.425438 
L 251.625827 221.425438 
L 251.625827 220.333925 
L 252.719612 220.333925 
L 252.719612 218.921379 
L 253.813397 218.921379 
L 253.813397 219.178205 
L 254.907182 219.178205 
L 254.907182 221.040198 
L 256.000966 221.040198 
L 256.000966 223.67267 
L 257.094751 223.67267 
L 257.094751 220.269718 
L 258.188536 220.269718 
L 258.188536 222.260124 
L 259.282321 222.260124 
L 259.282321 223.351637 
L 260.376105 223.351637 
L 260.376105 221.874884 
L 261.46989 221.874884 
L 261.46989 220.975991 
L 262.563675 220.975991 
L 262.563675 222.260124 
L 263.65746 222.260124 
L 263.65746 220.654958 
L 264.751245 220.654958 
L 264.751245 224.699976 
L 265.845029 224.699976 
L 265.845029 223.736877 
L 266.938814 223.736877 
L 266.938814 225.021009 
L 268.032599 225.021009 
L 268.032599 221.746471 
L 269.126384 221.746471 
L 269.126384 222.131711 
L 270.220168 222.131711 
L 270.220168 225.598869 
L 271.313953 225.598869 
L 271.313953 224.122116 
L 272.407738 224.122116 
L 272.407738 225.470456 
L 273.501523 225.470456 
L 273.501523 225.342042 
L 274.595308 225.342042 
L 274.595308 224.44315 
L 275.689092 224.44315 
L 275.689092 224.828389 
L 276.782877 224.828389 
L 276.782877 226.561969 
L 277.876662 226.561969 
L 277.876662 227.653481 
L 278.970447 227.653481 
L 278.970447 227.332448 
L 280.064232 227.332448 
L 280.064232 226.754588 
L 281.158016 226.754588 
L 281.158016 226.176729 
L 282.251801 226.176729 
L 282.251801 227.910308 
L 283.345586 227.910308 
L 283.345586 229.066027 
L 284.439371 229.066027 
L 284.439371 228.359754 
L 285.533155 228.359754 
L 285.533155 228.744994 
L 286.62694 228.744994 
L 286.62694 228.873407 
L 287.720725 228.873407 
L 287.720725 229.322854 
L 288.81451 229.322854 
L 288.81451 230.414367 
L 289.908295 230.414367 
L 289.908295 229.515474 
L 291.002079 229.515474 
L 291.002079 227.910308 
L 292.095864 227.910308 
L 292.095864 229.515474 
L 293.189649 229.515474 
L 293.189649 230.35016 
L 294.283434 230.35016 
L 294.283434 229.001821 
L 295.377219 229.001821 
L 295.377219 230.799606 
L 296.471003 230.799606 
L 296.471003 231.762706 
L 297.564788 231.762706 
L 297.564788 229.7723 
L 298.658573 229.7723 
L 298.658573 230.35016 
L 299.752358 230.35016 
L 299.752358 230.992226 
L 300.846142 230.992226 
L 300.846142 230.15754 
L 301.939927 230.15754 
L 301.939927 231.31326 
L 304.127497 231.377466 
L 304.127497 231.184846 
L 305.221282 231.184846 
L 305.221282 231.826913 
L 306.315066 231.826913 
L 306.315066 232.404772 
L 307.408851 232.404772 
L 307.408851 231.441673 
L 308.502636 231.441673 
L 308.502636 231.698499 
L 309.596421 231.698499 
L 309.596421 233.303665 
L 310.690206 233.303665 
L 310.690206 232.725805 
L 311.78399 232.725805 
L 311.78399 233.239459 
L 312.877775 233.239459 
L 312.877775 234.266765 
L 313.97156 234.266765 
L 313.97156 232.212152 
L 315.065345 232.212152 
L 315.065345 234.780418 
L 316.159129 234.780418 
L 316.159129 231.441673 
L 317.252914 231.441673 
L 317.252914 234.652005 
L 318.346699 234.652005 
L 318.346699 233.111045 
L 319.440484 233.111045 
L 319.440484 232.661599 
L 320.534269 232.661599 
L 320.534269 233.688905 
L 321.628053 233.688905 
L 321.628053 234.266765 
L 322.721838 234.266765 
L 322.721838 235.358278 
L 323.815623 235.358278 
L 323.815623 233.046839 
L 324.909408 233.046839 
L 324.909408 234.523591 
L 326.003192 234.523591 
L 326.003192 234.330971 
L 327.096977 234.330971 
L 327.096977 235.743517 
L 328.190762 235.743517 
L 328.190762 234.330971 
L 329.284547 234.330971 
L 329.284547 235.101451 
L 330.378332 235.101451 
L 330.378332 235.422484 
L 331.472116 235.422484 
L 331.472116 237.091857 
L 332.565901 237.091857 
L 332.565901 236.770823 
L 333.659686 236.770823 
L 333.659686 234.716211 
L 334.753471 234.716211 
L 334.753471 235.165658 
L 335.847256 235.165658 
L 335.847256 236.321377 
L 336.94104 236.321377 
L 336.94104 235.871931 
L 338.034825 235.871931 
L 338.034825 235.294071 
L 339.12861 235.294071 
L 339.12861 236.000344 
L 340.222395 236.000344 
L 340.222395 236.64241 
L 341.316179 236.64241 
L 341.316179 235.679311 
L 342.409964 235.679311 
L 342.409964 236.321377 
L 343.503749 236.321377 
L 343.503749 237.02765 
L 344.597534 237.02765 
L 344.597534 236.25717 
L 346.785103 236.25717 
L 346.785103 238.119163 
L 347.878888 238.119163 
L 347.878888 237.79813 
L 348.972673 237.79813 
L 348.972673 238.247576 
L 350.066458 238.247576 
L 350.066458 237.60551 
L 351.160243 237.60551 
L 351.160243 237.02765 
L 352.254027 237.02765 
L 352.254027 237.156063 
L 353.347812 237.156063 
L 353.347812 237.284477 
L 354.441597 237.284477 
L 354.441597 237.99075 
L 355.535382 237.99075 
L 355.535382 237.79813 
L 356.629166 237.79813 
L 356.629166 238.375989 
L 358.816736 238.311783 
L 358.816736 238.183369 
L 359.910521 238.183369 
L 359.910521 237.733923 
L 361.004306 237.733923 
L 361.004306 238.247576 
L 364.28566 238.183369 
L 364.28566 237.926543 
L 365.379445 237.926543 
L 365.379445 237.733923 
L 366.473229 237.733923 
L 366.473229 238.119163 
L 367.567014 238.119163 
L 367.567014 239.146469 
L 368.660799 239.146469 
L 368.660799 239.852742 
L 369.754584 239.852742 
L 369.754584 238.568609 
L 370.848369 238.568609 
L 370.848369 241.201081 
L 371.942153 241.201081 
L 371.942153 240.173775 
L 374.129723 240.173775 
L 374.129723 239.018056 
L 375.223508 239.018056 
L 375.223508 240.880048 
L 376.317293 240.880048 
L 376.317293 241.522114 
L 377.411077 241.522114 
L 377.411077 242.228387 
L 379.598647 242.228387 
L 379.598647 242.549421 
L 380.692432 242.549421 
L 380.692432 241.457908 
L 381.786216 241.457908 
L 381.786216 241.907354 
L 382.880001 241.907354 
L 382.880001 242.806247 
L 383.973786 242.806247 
L 383.973786 242.93466 
L 385.067571 242.93466 
L 385.067571 243.12728 
L 387.25514 243.12728 
L 387.25514 243.384107 
L 388.348925 243.384107 
L 388.348925 243.89776 
L 389.44271 243.89776 
L 389.44271 244.347206 
L 390.536495 244.347206 
L 390.536495 244.539826 
L 392.724064 244.604033 
L 392.724064 244.860859 
L 393.817849 244.860859 
L 393.817849 244.989273 
L 396.005419 245.053479 
L 396.005419 245.117686 
L 398.192988 245.117686 
L 398.192988 245.117686 
" clip-path="url(#pd222847aaf)" style="fill: none; stroke: #1f77b4; stroke-width: 1.5; stroke-linecap: square"/>
   </g>
   <g id="patch_3">
    <path d="M 53.650781 256.514364 
L 53.650781 7.2 
" style="fill: none; stroke: #000000; stroke-width: 0.8; stroke-linejoin: miter; stroke-linecap: square"/>
   </g>
   <g id="patch_4">
    <path d="M 414.59976 256.514364 
L 414.59976 7.2 
" style="fill: none; stroke: #000000; stroke-width: 0.8; stroke-linejoin: miter; stroke-linecap: square"/>
   </g>
   <g id="patch_5">
    <path d="M 53.650781 256.514364 
L 414.59976 256.514364 
" style="fill: none; stroke: #000000; stroke-width: 0.8; stroke-linejoin: miter; stroke-linecap: square"/>
   </g>
   <g id="patch_6">
    <path d="M 53.650781 7.2 
L 414.59976 7.2 
" style="fill: none; stroke: #000000; stroke-width: 0.8; stroke-linejoin: miter; stroke-linecap: square"/>
   </g>
  </g>
  <g id="axes_2">
   <g id="patch_7">
    <path d="M 504.250541 256.514364 
L 865.19952 256.514364 
L 865.19952 7.2 
L 504.250541 7.2 
z
" style="fill: #ffffff"/>
   </g>
   <g id="matplotlib.axis_3">
    <g id="xtick_8">
     <g id="line2d_17">
      <g>
       <use xlink:href="#mbbe1f1ffe7" x="539.125726" y="256.514364" style="stroke: #000000; stroke-width: 0.8"/>
      </g>
     </g>
     <g id="text_18">
      <!-- 2 -->
      <g transform="translate(535.944476 271.11202) scale(0.1 -0.1)">
       <use xlink:href="#DejaVuSans-15"/>
      </g>
     </g>
    </g>
    <g id="xtick_9">
     <g id="line2d_18">
      <g>
       <use xlink:href="#mbbe1f1ffe7" x="608.058415" y="256.514364" style="stroke: #000000; stroke-width: 0.8"/>
      </g>
     </g>
     <g id="text_19">
      <!-- 4 -->
      <g transform="translate(604.877165 271.11202) scale(0.1 -0.1)">
       <use xlink:href="#DejaVuSans-17"/>
      </g>
     </g>
    </g>
    <g id="xtick_10">
     <g id="line2d_19">
      <g>
       <use xlink:href="#mbbe1f1ffe7" x="676.991103" y="256.514364" style="stroke: #000000; stroke-width: 0.8"/>
      </g>
     </g>
     <g id="text_20">
      <!-- 6 -->
      <g transform="translate(673.809853 271.11202) scale(0.1 -0.1)">
       <defs>
        <path id="DejaVuSans-19" d="M 2113 2584 
Q 1688 2584 1439 2293 
Q 1191 2003 1191 1497 
Q 1191 994 1439 701 
Q 1688 409 2113 409 
Q 2538 409 2786 701 
Q 3034 994 3034 1497 
Q 3034 2003 2786 2293 
Q 2538 2584 2113 2584 
z
M 3366 4563 
L 3366 3988 
Q 3128 4100 2886 4159 
Q 2644 4219 2406 4219 
Q 1781 4219 1451 3797 
Q 1122 3375 1075 2522 
Q 1259 2794 1537 2939 
Q 1816 3084 2150 3084 
Q 2853 3084 3261 2657 
Q 3669 2231 3669 1497 
Q 3669 778 3244 343 
Q 2819 -91 2113 -91 
Q 1303 -91 875 529 
Q 447 1150 447 2328 
Q 447 3434 972 4092 
Q 1497 4750 2381 4750 
Q 2619 4750 2861 4703 
Q 3103 4656 3366 4563 
z
" transform="scale(0.015625)"/>
       </defs>
       <use xlink:href="#DejaVuSans-19"/>
      </g>
     </g>
    </g>
    <g id="xtick_11">
     <g id="line2d_20">
      <g>
       <use xlink:href="#mbbe1f1ffe7" x="745.923792" y="256.514364" style="stroke: #000000; stroke-width: 0.8"/>
      </g>
     </g>
     <g id="text_21">
      <!-- 8 -->
      <g transform="translate(742.742542 271.11202) scale(0.1 -0.1)">
       <defs>
        <path id="DejaVuSans-1b" d="M 2034 2216 
Q 1584 2216 1326 1975 
Q 1069 1734 1069 1313 
Q 1069 891 1326 650 
Q 1584 409 2034 409 
Q 2484 409 2743 651 
Q 3003 894 3003 1313 
Q 3003 1734 2745 1975 
Q 2488 2216 2034 2216 
z
M 1403 2484 
Q 997 2584 770 2862 
Q 544 3141 544 3541 
Q 544 4100 942 4425 
Q 1341 4750 2034 4750 
Q 2731 4750 3128 4425 
Q 3525 4100 3525 3541 
Q 3525 3141 3298 2862 
Q 3072 2584 2669 2484 
Q 3125 2378 3379 2068 
Q 3634 1759 3634 1313 
Q 3634 634 3220 271 
Q 2806 -91 2034 -91 
Q 1263 -91 848 271 
Q 434 634 434 1313 
Q 434 1759 690 2068 
Q 947 2378 1403 2484 
z
M 1172 3481 
Q 1172 3119 1398 2916 
Q 1625 2713 2034 2713 
Q 2441 2713 2670 2916 
Q 2900 3119 2900 3481 
Q 2900 3844 2670 4047 
Q 2441 4250 2034 4250 
Q 1625 4250 1398 4047 
Q 1172 3844 1172 3481 
z
" transform="scale(0.015625)"/>
       </defs>
       <use xlink:href="#DejaVuSans-1b"/>
      </g>
     </g>
    </g>
    <g id="xtick_12">
     <g id="line2d_21">
      <g>
       <use xlink:href="#mbbe1f1ffe7" x="814.856481" y="256.514364" style="stroke: #000000; stroke-width: 0.8"/>
      </g>
     </g>
     <g id="text_22">
      <!-- 10 -->
      <g transform="translate(808.493981 271.11202) scale(0.1 -0.1)">
       <use xlink:href="#DejaVuSans-14"/>
       <use xlink:href="#DejaVuSans-13" transform="translate(63.625 0)"/>
      </g>
     </g>
    </g>
    <g id="text_23">
     <!-- wavelength [Å] -->
     <g transform="translate(646.687531 286.797176) scale(0.1 -0.1)">
      <defs>
       <path id="DejaVuSans-5a" d="M 269 3500 
L 844 3500 
L 1563 769 
L 2278 3500 
L 2956 3500 
L 3675 769 
L 4391 3500 
L 4966 3500 
L 4050 0 
L 3372 0 
L 2619 2869 
L 1863 0 
L 1184 0 
L 269 3500 
z
" transform="scale(0.015625)"/>
       <path id="DejaVuSans-59" d="M 191 3500 
L 800 3500 
L 1894 563 
L 2988 3500 
L 3597 3500 
L 2284 0 
L 1503 0 
L 191 3500 
z
" transform="scale(0.015625)"/>
       <path id="DejaVuSans-4a" d="M 2906 1791 
Q 2906 2416 2648 2759 
Q 2391 3103 1925 3103 
Q 1463 3103 1205 2759 
Q 947 2416 947 1791 
Q 947 1169 1205 825 
Q 1463 481 1925 481 
Q 2391 481 2648 825 
Q 2906 1169 2906 1791 
z
M 3481 434 
Q 3481 -459 3084 -895 
Q 2688 -1331 1869 -1331 
Q 1566 -1331 1297 -1286 
Q 1028 -1241 775 -1147 
L 775 -588 
Q 1028 -725 1275 -790 
Q 1522 -856 1778 -856 
Q 2344 -856 2625 -561 
Q 2906 -266 2906 331 
L 2906 616 
Q 2728 306 2450 153 
Q 2172 0 1784 0 
Q 1141 0 747 490 
Q 353 981 353 1791 
Q 353 2603 747 3093 
Q 1141 3584 1784 3584 
Q 2172 3584 2450 3431 
Q 2728 3278 2906 2969 
L 2906 3500 
L 3481 3500 
L 3481 434 
z
" transform="scale(0.015625)"/>
       <path id="DejaVuSans-4b" d="M 3513 2113 
L 3513 0 
L 2938 0 
L 2938 2094 
Q 2938 2591 2744 2837 
Q 2550 3084 2163 3084 
Q 1697 3084 1428 2787 
Q 1159 2491 1159 1978 
L 1159 0 
L 581 0 
L 581 4863 
L 1159 4863 
L 1159 2956 
Q 1366 3272 1645 3428 
Q 1925 3584 2291 3584 
Q 2894 3584 3203 3211 
Q 3513 2838 3513 2113 
z
" transform="scale(0.015625)"/>
       <path id="DejaVuSans-87" d="M 2663 5081 
Q 2663 5278 2523 5417 
Q 2384 5556 2188 5556 
Q 1988 5556 1852 5420 
Q 1716 5284 1716 5081 
Q 1716 4884 1853 4746 
Q 1991 4609 2188 4609 
Q 2384 4609 2523 4746 
Q 2663 4884 2663 5081 
z
M 2188 4044 
L 1338 1722 
L 3041 1722 
L 2188 4044 
z
M 1716 4366 
Q 1525 4494 1428 4673 
Q 1331 4853 1331 5081 
Q 1331 5441 1579 5691 
Q 1828 5941 2188 5941 
Q 2544 5941 2795 5689 
Q 3047 5438 3047 5081 
Q 3047 4863 2948 4678 
Q 2850 4494 2663 4366 
L 4325 0 
L 3669 0 
L 3244 1197 
L 1141 1197 
L 716 0 
L 50 0 
L 1716 4366 
z
" transform="scale(0.015625)"/>
      </defs>
      <use xlink:href="#DejaVuSans-5a"/>
      <use xlink:href="#DejaVuSans-44" transform="translate(81.78125 0)"/>
      <use xlink:href="#DejaVuSans-59" transform="translate(143.0625 0)"/>
      <use xlink:href="#DejaVuSans-48" transform="translate(202.25 0)"/>
      <use xlink:href="#DejaVuSans-4f" transform="translate(263.78125 0)"/>
      <use xlink:href="#DejaVuSans-48" transform="translate(291.5625 0)"/>
      <use xlink:href="#DejaVuSans-51" transform="translate(353.09375 0)"/>
      <use xlink:href="#DejaVuSans-4a" transform="translate(416.46875 0)"/>
      <use xlink:href="#DejaVuSans-57" transform="translate(479.953125 0)"/>
      <use xlink:href="#DejaVuSans-4b" transform="translate(519.15625 0)"/>
      <use xlink:href="#DejaVuSans-3" transform="translate(582.53125 0)"/>
      <use xlink:href="#DejaVuSans-3e" transform="translate(614.3125 0)"/>
      <use xlink:href="#DejaVuSans-87" transform="translate(653.328125 0)"/>
      <use xlink:href="#DejaVuSans-40" transform="translate(721.734375 0)"/>
     </g>
    </g>
   </g>
   <g id="matplotlib.axis_4">
    <g id="ytick_9">
     <g id="line2d_22">
      <g>
       <use xlink:href="#med95fa9395" x="504.250541" y="245.181893" style="stroke: #000000; stroke-width: 0.8"/>
      </g>
     </g>
     <g id="text_24">
      <!-- 0 -->
      <g transform="translate(490.888041 248.980721) scale(0.1 -0.1)">
       <use xlink:href="#DejaVuSans-13"/>
      </g>
     </g>
    </g>
    <g id="ytick_10">
     <g id="line2d_23">
      <g>
       <use xlink:href="#med95fa9395" x="504.250541" y="208.495356" style="stroke: #000000; stroke-width: 0.8"/>
      </g>
     </g>
     <g id="text_25">
      <!-- 500 -->
      <g transform="translate(478.163041 212.294184) scale(0.1 -0.1)">
       <use xlink:href="#DejaVuSans-18"/>
       <use xlink:href="#DejaVuSans-13" transform="translate(63.625 0)"/>
       <use xlink:href="#DejaVuSans-13" transform="translate(127.25 0)"/>
      </g>
     </g>
    </g>
    <g id="ytick_11">
     <g id="line2d_24">
      <g>
       <use xlink:href="#med95fa9395" x="504.250541" y="171.80882" style="stroke: #000000; stroke-width: 0.8"/>
      </g>
     </g>
     <g id="text_26">
      <!-- 1000 -->
      <g transform="translate(471.800541 175.607648) scale(0.1 -0.1)">
       <use xlink:href="#DejaVuSans-14"/>
       <use xlink:href="#DejaVuSans-13" transform="translate(63.625 0)"/>
       <use xlink:href="#DejaVuSans-13" transform="translate(127.25 0)"/>
       <use xlink:href="#DejaVuSans-13" transform="translate(190.875 0)"/>
      </g>
     </g>
    </g>
    <g id="ytick_12">
     <g id="line2d_25">
      <g>
       <use xlink:href="#med95fa9395" x="504.250541" y="135.122284" style="stroke: #000000; stroke-width: 0.8"/>
      </g>
     </g>
     <g id="text_27">
      <!-- 1500 -->
      <g transform="translate(471.800541 138.921112) scale(0.1 -0.1)">
       <use xlink:href="#DejaVuSans-14"/>
       <use xlink:href="#DejaVuSans-18" transform="translate(63.625 0)"/>
       <use xlink:href="#DejaVuSans-13" transform="translate(127.25 0)"/>
       <use xlink:href="#DejaVuSans-13" transform="translate(190.875 0)"/>
      </g>
     </g>
    </g>
    <g id="ytick_13">
     <g id="line2d_26">
      <g>
       <use xlink:href="#med95fa9395" x="504.250541" y="98.435747" style="stroke: #000000; stroke-width: 0.8"/>
      </g>
     </g>
     <g id="text_28">
      <!-- 2000 -->
      <g transform="translate(471.800541 102.234575) scale(0.1 -0.1)">
       <use xlink:href="#DejaVuSans-15"/>
       <use xlink:href="#DejaVuSans-13" transform="translate(63.625 0)"/>
       <use xlink:href="#DejaVuSans-13" transform="translate(127.25 0)"/>
       <use xlink:href="#DejaVuSans-13" transform="translate(190.875 0)"/>
      </g>
     </g>
    </g>
    <g id="ytick_14">
     <g id="line2d_27">
      <g>
       <use xlink:href="#med95fa9395" x="504.250541" y="61.749211" style="stroke: #000000; stroke-width: 0.8"/>
      </g>
     </g>
     <g id="text_29">
      <!-- 2500 -->
      <g transform="translate(471.800541 65.548039) scale(0.1 -0.1)">
       <use xlink:href="#DejaVuSans-15"/>
       <use xlink:href="#DejaVuSans-18" transform="translate(63.625 0)"/>
       <use xlink:href="#DejaVuSans-13" transform="translate(127.25 0)"/>
       <use xlink:href="#DejaVuSans-13" transform="translate(190.875 0)"/>
      </g>
     </g>
    </g>
    <g id="ytick_15">
     <g id="line2d_28">
      <g>
       <use xlink:href="#med95fa9395" x="504.250541" y="25.062675" style="stroke: #000000; stroke-width: 0.8"/>
      </g>
     </g>
     <g id="text_30">
      <!-- 3000 -->
      <g transform="translate(471.800541 28.861503) scale(0.1 -0.1)">
       <use xlink:href="#DejaVuSans-16"/>
       <use xlink:href="#DejaVuSans-13" transform="translate(63.625 0)"/>
       <use xlink:href="#DejaVuSans-13" transform="translate(127.25 0)"/>
       <use xlink:href="#DejaVuSans-13" transform="translate(190.875 0)"/>
      </g>
     </g>
    </g>
    <g id="text_31">
     <!-- pulse:0 [counts] -->
     <g transform="translate(465.398198 172.337651) rotate(-90) scale(0.1 -0.1)">
      <use xlink:href="#DejaVuSans-53"/>
      <use xlink:href="#DejaVuSans-58" transform="translate(63.484375 0)"/>
      <use xlink:href="#DejaVuSans-4f" transform="translate(126.859375 0)"/>
      <use xlink:href="#DejaVuSans-56" transform="translate(154.640625 0)"/>
      <use xlink:href="#DejaVuSans-48" transform="translate(206.734375 0)"/>
      <use xlink:href="#DejaVuSans-1d" transform="translate(268.265625 0)"/>
      <use xlink:href="#DejaVuSans-13" transform="translate(301.953125 0)"/>
      <use xlink:href="#DejaVuSans-3" transform="translate(365.578125 0)"/>
      <use xlink:href="#DejaVuSans-3e" transform="translate(397.359375 0)"/>
      <use xlink:href="#DejaVuSans-46" transform="translate(436.375 0)"/>
      <use xlink:href="#DejaVuSans-52" transform="translate(491.359375 0)"/>
      <use xlink:href="#DejaVuSans-58" transform="translate(552.546875 0)"/>
      <use xlink:href="#DejaVuSans-51" transform="translate(615.921875 0)"/>
      <use xlink:href="#DejaVuSans-57" transform="translate(679.296875 0)"/>
      <use xlink:href="#DejaVuSans-56" transform="translate(718.5 0)"/>
      <use xlink:href="#DejaVuSans-40" transform="translate(770.59375 0)"/>
     </g>
    </g>
   </g>
   <g id="line2d_29">
    <path d="M 520.657313 245.10852 
L 526.126237 245.181893 
L 526.126237 244.961773 
L 527.220022 244.961773 
L 527.220022 245.10852 
L 530.501376 245.035147 
L 530.501376 244.961773 
L 532.688946 244.961773 
L 532.688946 245.181893 
L 534.876515 245.181893 
L 534.876515 244.961773 
L 535.9703 244.961773 
L 535.9703 244.594908 
L 537.064085 244.594908 
L 537.064085 244.8884 
L 538.15787 244.8884 
L 538.15787 244.668281 
L 539.251654 244.668281 
L 539.251654 244.8884 
L 540.345439 244.8884 
L 540.345439 244.521535 
L 541.439224 244.521535 
L 541.439224 244.374789 
L 542.533009 244.374789 
L 542.533009 244.594908 
L 543.626793 244.594908 
L 543.626793 243.641058 
L 544.720578 243.641058 
L 544.720578 243.420939 
L 545.814363 243.420939 
L 545.814363 244.007924 
L 546.908148 244.007924 
L 546.908148 243.274193 
L 548.001933 243.274193 
L 548.001933 242.393716 
L 549.095717 242.393716 
L 549.095717 241.29312 
L 550.189502 241.29312 
L 550.189502 240.119151 
L 551.283287 240.119151 
L 551.283287 238.578316 
L 552.377072 238.578316 
L 552.377072 236.597243 
L 553.470857 236.597243 
L 553.470857 235.349901 
L 554.564641 235.349901 
L 554.564641 233.515574 
L 555.658426 233.515574 
L 555.658426 226.985371 
L 556.752211 226.985371 
L 556.752211 224.564059 
L 557.845996 224.564059 
L 557.845996 219.134452 
L 558.93978 219.134452 
L 558.93978 215.245679 
L 560.033565 215.245679 
L 560.033565 210.403056 
L 561.12735 210.403056 
L 561.12735 201.818407 
L 562.221135 201.818407 
L 562.221135 190.005342 
L 563.31492 190.005342 
L 563.31492 181.934304 
L 564.408704 181.934304 
L 564.408704 168.580405 
L 565.502489 168.580405 
L 565.502489 155.886863 
L 566.596274 155.886863 
L 566.596274 144.440664 
L 567.690059 144.440664 
L 567.690059 137.029984 
L 568.783844 137.029984 
L 568.783844 119.713938 
L 569.877628 119.713938 
L 569.877628 110.542304 
L 570.971413 110.542304 
L 570.971413 106.506785 
L 572.065198 106.506785 
L 572.065198 103.791982 
L 573.158983 103.791982 
L 573.158983 91.171813 
L 574.252767 91.171813 
L 574.252767 88.310263 
L 575.346552 88.310263 
L 575.346552 85.228594 
L 576.440337 85.228594 
L 576.440337 72.094814 
L 577.534122 72.094814 
L 577.534122 68.866399 
L 578.627907 68.866399 
L 578.627907 61.602465 
L 579.721691 61.602465 
L 579.721691 62.703061 
L 580.815476 62.703061 
L 580.815476 54.705396 
L 581.909261 54.705396 
L 581.909261 46.047373 
L 583.003046 46.047373 
L 583.003046 46.634358 
L 584.09683 46.634358 
L 584.09683 43.699435 
L 585.190615 43.699435 
L 585.190615 39.590543 
L 586.2844 39.590543 
L 586.2844 41.718362 
L 587.378185 41.718362 
L 587.378185 32.10649 
L 588.47197 32.10649 
L 588.47197 24.622436 
L 589.565754 24.622436 
L 589.565754 25.282794 
L 590.659539 25.282794 
L 590.659539 29.538432 
L 591.753324 29.538432 
L 591.753324 18.532471 
L 592.847109 18.532471 
L 592.847109 27.33724 
L 593.940894 27.33724 
L 593.940894 23.668586 
L 595.034678 23.668586 
L 595.034678 18.532471 
L 596.128463 18.532471 
L 596.128463 24.769182 
L 597.222248 24.769182 
L 597.222248 23.008229 
L 598.316033 23.008229 
L 598.316033 24.989301 
L 600.503602 24.915928 
L 600.503602 25.42954 
L 601.597387 25.42954 
L 601.597387 23.888705 
L 602.691172 23.888705 
L 602.691172 22.494617 
L 603.784957 22.494617 
L 603.784957 20.586917 
L 604.878741 20.586917 
L 604.878741 24.549063 
L 605.972526 24.549063 
L 605.972526 34.014189 
L 607.066311 34.014189 
L 607.066311 39.370424 
L 608.160096 39.370424 
L 608.160096 38.343201 
L 609.253881 38.343201 
L 609.253881 47.147969 
L 610.347665 47.147969 
L 610.347665 52.137338 
L 611.44145 52.137338 
L 611.44145 69.893622 
L 612.535235 69.893622 
L 612.535235 79.652241 
L 613.62902 79.652241 
L 613.62902 82.880656 
L 614.722804 82.880656 
L 614.722804 89.851098 
L 615.816589 89.851098 
L 615.816589 94.033363 
L 616.910374 94.033363 
L 616.910374 105.626308 
L 618.004159 105.626308 
L 618.004159 116.338777 
L 619.097944 116.338777 
L 619.097944 123.455965 
L 620.191728 123.455965 
L 620.191728 124.629934 
L 621.285513 124.629934 
L 621.285513 133.067838 
L 622.379298 133.067838 
L 622.379298 134.241807 
L 623.473083 134.241807 
L 623.473083 145.688006 
L 624.566867 145.688006 
L 624.566867 148.476183 
L 625.660652 148.476183 
L 625.660652 155.446625 
L 626.754437 155.446625 
L 626.754437 161.53659 
L 627.848222 161.53659 
L 627.848222 163.150797 
L 628.942007 163.150797 
L 628.942007 172.542551 
L 630.035791 172.542551 
L 630.035791 178.852635 
L 631.129576 178.852635 
L 631.129576 180.907081 
L 632.223361 180.907081 
L 632.223361 182.961527 
L 633.317146 182.961527 
L 633.317146 188.317761 
L 634.410931 188.317761 
L 634.410931 191.032565 
L 635.504715 191.032565 
L 635.504715 198.07638 
L 636.5985 198.07638 
L 636.5985 198.369872 
L 637.692285 198.369872 
L 637.692285 204.386464 
L 638.78607 204.386464 
L 638.78607 207.101268 
L 639.879854 207.101268 
L 639.879854 210.990041 
L 640.973639 210.990041 
L 640.973639 218.033856 
L 642.067424 218.033856 
L 642.067424 217.080006 
L 643.161209 217.080006 
L 643.161209 217.66699 
L 644.254994 217.66699 
L 644.254994 223.977075 
L 645.348778 223.977075 
L 645.348778 227.572355 
L 646.442563 227.572355 
L 646.442563 228.15934 
L 647.536348 228.15934 
L 647.536348 231.167636 
L 648.630133 231.167636 
L 648.630133 229.480055 
L 649.723918 229.480055 
L 649.723918 233.442201 
L 650.817702 233.442201 
L 650.817702 233.882439 
L 651.911487 233.882439 
L 651.911487 235.936886 
L 653.005272 235.936886 
L 653.005272 236.890735 
L 655.192841 236.964109 
L 655.192841 237.110855 
L 656.286626 237.110855 
L 656.286626 236.157005 
L 657.380411 236.157005 
L 657.380411 237.184228 
L 658.474196 237.184228 
L 658.474196 235.57002 
L 659.567981 235.57002 
L 659.567981 233.295455 
L 660.661765 233.295455 
L 660.661765 229.773547 
L 662.849335 229.84692 
L 662.849335 229.333309 
L 663.94312 229.333309 
L 663.94312 227.865848 
L 665.036905 227.865848 
L 665.036905 228.452832 
L 666.130689 228.452832 
L 666.130689 223.903702 
L 667.224474 223.903702 
L 667.224474 223.39009 
L 669.412044 223.39009 
L 669.412044 222.362867 
L 670.505828 222.362867 
L 670.505828 221.042152 
L 671.599613 221.042152 
L 671.599613 217.66699 
L 672.693398 217.66699 
L 672.693398 217.960483 
L 673.787183 217.960483 
L 673.787183 220.381794 
L 674.880968 220.381794 
L 674.880968 218.327348 
L 675.974752 218.327348 
L 675.974752 215.759291 
L 677.068537 215.759291 
L 677.068537 217.006633 
L 678.162322 217.006633 
L 678.162322 217.153379 
L 679.256107 217.153379 
L 679.256107 214.805441 
L 680.349891 214.805441 
L 680.349891 213.411352 
L 681.443676 213.411352 
L 681.443676 211.430279 
L 682.537461 211.430279 
L 682.537461 212.237383 
L 683.631246 212.237383 
L 683.631246 210.182937 
L 684.725031 210.182937 
L 684.725031 210.329683 
L 685.818815 210.329683 
L 685.818815 212.310756 
L 686.9126 212.310756 
L 686.9126 210.696548 
L 688.006385 210.696548 
L 688.006385 210.109564 
L 689.10017 210.109564 
L 689.10017 210.769922 
L 690.193955 210.769922 
L 690.193955 207.908372 
L 691.287739 207.908372 
L 691.287739 208.568729 
L 692.381524 208.568729 
L 692.381524 209.742699 
L 693.475309 209.742699 
L 693.475309 206.147418 
L 694.569094 206.147418 
L 694.569094 209.082341 
L 695.662878 209.082341 
L 695.662878 210.990041 
L 696.756663 210.990041 
L 696.756663 208.642102 
L 697.850448 208.642102 
L 697.850448 209.30246 
L 700.038018 209.30246 
L 700.038018 205.780553 
L 701.131802 205.780553 
L 701.131802 210.403056 
L 702.225587 210.403056 
L 702.225587 207.981745 
L 703.319372 207.981745 
L 703.319372 207.761626 
L 704.413157 207.761626 
L 704.413157 209.375833 
L 705.506942 209.375833 
L 705.506942 206.807776 
L 706.600726 206.807776 
L 706.600726 209.375833 
L 707.694511 209.375833 
L 707.694511 211.797145 
L 708.788296 211.797145 
L 708.788296 208.642102 
L 709.882081 208.642102 
L 709.882081 212.457502 
L 710.975865 212.457502 
L 710.975865 211.136787 
L 712.06965 211.136787 
L 712.06965 213.484725 
L 713.163435 213.484725 
L 713.163435 215.172306 
L 714.25722 215.172306 
L 714.25722 212.530875 
L 715.351005 212.530875 
L 715.351005 214.511948 
L 716.444789 214.511948 
L 716.444789 215.685917 
L 717.538574 215.685917 
L 717.538574 215.832664 
L 718.632359 215.832664 
L 718.632359 214.732067 
L 719.726144 214.732067 
L 719.726144 216.786514 
L 720.819928 216.786514 
L 720.819928 213.851591 
L 721.913713 213.851591 
L 721.913713 216.71314 
L 723.007498 216.71314 
L 723.007498 216.566394 
L 724.101283 216.566394 
L 724.101283 216.859887 
L 725.195068 216.859887 
L 725.195068 218.914333 
L 726.288852 218.914333 
L 726.288852 219.281198 
L 727.382637 219.281198 
L 727.382637 218.84096 
L 728.476422 218.84096 
L 728.476422 218.253975 
L 729.570207 218.253975 
L 729.570207 219.207825 
L 730.663992 219.207825 
L 730.663992 220.235048 
L 731.757776 220.235048 
L 731.757776 220.822033 
L 733.945346 220.822033 
L 733.945346 218.767586 
L 735.039131 218.767586 
L 735.039131 222.729732 
L 736.132915 222.729732 
L 736.132915 223.316717 
L 737.2267 223.316717 
L 737.2267 222.656359 
L 738.320485 222.656359 
L 738.320485 223.096598 
L 739.41427 223.096598 
L 739.41427 224.270567 
L 740.508055 224.270567 
L 740.508055 223.023225 
L 741.601839 223.023225 
L 741.601839 222.43624 
L 742.695624 222.43624 
L 742.695624 225.664655 
L 743.789409 225.664655 
L 743.789409 226.691878 
L 744.883194 226.691878 
L 744.883194 223.977075 
L 745.976979 223.977075 
L 745.976979 224.857552 
L 747.070763 224.857552 
L 747.070763 225.664655 
L 748.164548 225.664655 
L 748.164548 225.958148 
L 749.258333 225.958148 
L 749.258333 227.058744 
L 750.352118 227.058744 
L 750.352118 227.20549 
L 751.445902 227.20549 
L 751.445902 225.224417 
L 752.539687 225.224417 
L 752.539687 226.545132 
L 753.633472 226.545132 
L 753.633472 227.425609 
L 754.727257 227.425609 
L 754.727257 226.911998 
L 755.821042 226.911998 
L 755.821042 228.085967 
L 756.914826 228.085967 
L 756.914826 227.572355 
L 758.008611 227.572355 
L 758.008611 227.792474 
L 759.102396 227.792474 
L 759.102396 228.085967 
L 760.196181 228.085967 
L 760.196181 229.406682 
L 762.38375 229.333309 
L 762.38375 229.626801 
L 763.477535 229.626801 
L 763.477535 230.580651 
L 764.57132 230.580651 
L 764.57132 227.939221 
L 765.665105 227.939221 
L 765.665105 230.654024 
L 766.758889 230.654024 
L 766.758889 228.966444 
L 767.852674 228.966444 
L 767.852674 229.11319 
L 768.946459 229.11319 
L 768.946459 230.507278 
L 770.040244 230.507278 
L 770.040244 230.874143 
L 771.134029 230.874143 
L 771.134029 229.406682 
L 772.227813 229.406682 
L 772.227813 230.874143 
L 773.321598 230.874143 
L 773.321598 232.488351 
L 775.509168 232.414978 
L 775.509168 232.268232 
L 776.602952 232.268232 
L 776.602952 231.167636 
L 777.696737 231.167636 
L 777.696737 233.368828 
L 778.790522 233.368828 
L 778.790522 231.607874 
L 779.884307 231.607874 
L 779.884307 234.469424 
L 780.978092 234.469424 
L 780.978092 232.414978 
L 782.071876 232.414978 
L 782.071876 234.836289 
L 783.165661 234.836289 
L 783.165661 233.368828 
L 784.259446 233.368828 
L 784.259446 232.194859 
L 785.353231 232.194859 
L 785.353231 235.423274 
L 786.447016 235.423274 
L 786.447016 233.001963 
L 787.5408 233.001963 
L 787.5408 234.983036 
L 788.634585 234.983036 
L 788.634585 234.396051 
L 789.72837 234.396051 
L 789.72837 234.983036 
L 791.915939 234.983036 
L 791.915939 234.762916 
L 793.009724 234.762916 
L 793.009724 234.909662 
L 794.103509 234.909662 
L 794.103509 234.689543 
L 795.197294 234.689543 
L 795.197294 236.52387 
L 796.291079 236.52387 
L 796.291079 236.964109 
L 797.384863 236.964109 
L 797.384863 236.083632 
L 798.478648 236.083632 
L 798.478648 235.863512 
L 799.572433 235.863512 
L 799.572433 237.917958 
L 800.666218 237.917958 
L 800.666218 237.404347 
L 802.853787 237.404347 
L 802.853787 238.358197 
L 803.947572 238.358197 
L 803.947572 237.037482 
L 805.041357 237.037482 
L 805.041357 238.358197 
L 806.135142 238.358197 
L 806.135142 239.238674 
L 807.228926 239.238674 
L 807.228926 237.917958 
L 808.322711 237.917958 
L 808.322711 240.119151 
L 809.416496 240.119151 
L 809.416496 239.605539 
L 810.510281 239.605539 
L 810.510281 238.578316 
L 811.604066 238.578316 
L 811.604066 240.486016 
L 812.69785 240.486016 
L 812.69785 239.752285 
L 813.791635 239.752285 
L 813.791635 239.532166 
L 814.88542 239.532166 
L 814.88542 240.486016 
L 815.979205 240.486016 
L 815.979205 241.439866 
L 817.072989 241.439866 
L 817.072989 241.29312 
L 818.166774 241.29312 
L 818.166774 241.146374 
L 819.260559 241.146374 
L 819.260559 241.806731 
L 820.354344 241.806731 
L 820.354344 241.219747 
L 821.448129 241.219747 
L 821.448129 242.467089 
L 822.541913 242.467089 
L 822.541913 241.659985 
L 823.635698 241.659985 
L 823.635698 242.540462 
L 825.823268 242.613835 
L 825.823268 242.760581 
L 826.917053 242.760581 
L 826.917053 242.393716 
L 828.010837 242.393716 
L 828.010837 242.907327 
L 829.104622 242.907327 
L 829.104622 242.687208 
L 830.198407 242.687208 
L 830.198407 243.420939 
L 832.385976 243.420939 
L 832.385976 244.007924 
L 833.479761 244.007924 
L 833.479761 243.567685 
L 834.573546 243.567685 
L 834.573546 243.787804 
L 835.667331 243.787804 
L 835.667331 244.081297 
L 837.8549 244.081297 
L 837.8549 244.521535 
L 838.948685 244.521535 
L 838.948685 244.15467 
L 840.04247 244.15467 
L 840.04247 244.8884 
L 841.136255 244.8884 
L 841.136255 245.10852 
L 842.23004 245.10852 
L 842.23004 244.815027 
L 844.417609 244.8884 
L 844.417609 245.10852 
L 848.792748 245.10852 
L 848.792748 245.10852 
" clip-path="url(#p8254a79d6c)" style="fill: none; stroke: #1f77b4; stroke-width: 1.5; stroke-linecap: square"/>
   </g>
   <g id="patch_8">
    <path d="M 504.250541 256.514364 
L 504.250541 7.2 
" style="fill: none; stroke: #000000; stroke-width: 0.8; stroke-linejoin: miter; stroke-linecap: square"/>
   </g>
   <g id="patch_9">
    <path d="M 865.19952 256.514364 
L 865.19952 7.2 
" style="fill: none; stroke: #000000; stroke-width: 0.8; stroke-linejoin: miter; stroke-linecap: square"/>
   </g>
   <g id="patch_10">
    <path d="M 504.250541 256.514364 
L 865.19952 256.514364 
" style="fill: none; stroke: #000000; stroke-width: 0.8; stroke-linejoin: miter; stroke-linecap: square"/>
   </g>
   <g id="patch_11">
    <path d="M 504.250541 7.2 
L 865.19952 7.2 
" style="fill: none; stroke: #000000; stroke-width: 0.8; stroke-linejoin: miter; stroke-linecap: square"/>
   </g>
  </g>
 </g>
 <defs>
  <clipPath id="pd222847aaf">
   <rect x="53.650781" y="7.2" width="360.948979" height="249.314364"/>
  </clipPath>
  <clipPath id="p8254a79d6c">
   <rect x="504.250541" y="7.2" width="360.948979" height="249.314364"/>
  </clipPath>
 </defs>
</svg>
