<?xml version="1.0" encoding="utf-8" standalone="no"?>
<!DOCTYPE svg PUBLIC "-//W3C//DTD SVG 1.1//EN"
  "http://www.w3.org/Graphics/SVG/1.1/DTD/svg11.dtd">
<svg xmlns:xlink="http://www.w3.org/1999/xlink" width="872.39952pt" height="296.39952pt" viewBox="0 0 872.39952 296.39952" xmlns="http://www.w3.org/2000/svg" version="1.1">
 <metadata>
  <rdf:RDF xmlns:dc="http://purl.org/dc/elements/1.1/" xmlns:cc="http://creativecommons.org/ns#" xmlns:rdf="http://www.w3.org/1999/02/22-rdf-syntax-ns#">
   <cc:Work>
    <dc:type rdf:resource="http://purl.org/dc/dcmitype/StillImage"/>
    <dc:date>2025-10-02T14:00:47.104351</dc:date>
    <dc:format>image/svg+xml</dc:format>
    <dc:creator>
     <cc:Agent>
      <dc:title>Matplotlib v3.10.1, https://matplotlib.org/</dc:title>
     </cc:Agent>
    </dc:creator>
   </cc:Work>
  </rdf:RDF>
 </metadata>
 <defs>
  <style type="text/css">*{stroke-linejoin: round; stroke-linecap: butt}</style>
 </defs>
 <g id="figure_1">
  <g id="patch_1">
   <path d="M 0 296.39952 
L 872.39952 296.39952 
L 872.39952 0 
L 0 0 
z
" style="fill: #ffffff"/>
  </g>
  <g id="axes_1">
   <g id="patch_2">
    <path d="M 53.328125 257.158895 
L 428.69851 257.158895 
L 428.69851 7.2 
L 53.328125 7.2 
z
" style="fill: #ffffff"/>
   </g>
   <g id="matplotlib.axis_1">
    <g id="xtick_1">
     <g id="line2d_1">
      <defs>
       <path id="m81bc277348" d="M 0 0 
L 0 3.5 
" style="stroke: #000000; stroke-width: 0.8"/>
      </defs>
      <g>
       <use xlink:href="#m81bc277348" x="69.532664" y="257.158895" style="stroke: #000000; stroke-width: 0.8"/>
      </g>
     </g>
     <g id="text_1">
      <!-- 0 -->
      <g transform="translate(66.351414 271.757332) scale(0.1 -0.1)">
       <defs>
        <path id="DejaVuSans-30" d="M 2034 4250 
Q 1547 4250 1301 3770 
Q 1056 3291 1056 2328 
Q 1056 1369 1301 889 
Q 1547 409 2034 409 
Q 2525 409 2770 889 
Q 3016 1369 3016 2328 
Q 3016 3291 2770 3770 
Q 2525 4250 2034 4250 
z
M 2034 4750 
Q 2819 4750 3233 4129 
Q 3647 3509 3647 2328 
Q 3647 1150 3233 529 
Q 2819 -91 2034 -91 
Q 1250 -91 836 529 
Q 422 1150 422 2328 
Q 422 3509 836 4129 
Q 1250 4750 2034 4750 
z
" transform="scale(0.015625)"/>
       </defs>
       <use xlink:href="#DejaVuSans-30"/>
      </g>
     </g>
    </g>
    <g id="xtick_2">
     <g id="line2d_2">
      <g>
       <use xlink:href="#m81bc277348" x="138.142447" y="257.158895" style="stroke: #000000; stroke-width: 0.8"/>
      </g>
     </g>
     <g id="text_2">
      <!-- 1000 -->
      <g transform="translate(125.417447 271.757332) scale(0.1 -0.1)">
       <defs>
        <path id="DejaVuSans-31" d="M 794 531 
L 1825 531 
L 1825 4091 
L 703 3866 
L 703 4441 
L 1819 4666 
L 2450 4666 
L 2450 531 
L 3481 531 
L 3481 0 
L 794 0 
L 794 531 
z
" transform="scale(0.015625)"/>
       </defs>
       <use xlink:href="#DejaVuSans-31"/>
       <use xlink:href="#DejaVuSans-30" transform="translate(63.623047 0)"/>
       <use xlink:href="#DejaVuSans-30" transform="translate(127.246094 0)"/>
       <use xlink:href="#DejaVuSans-30" transform="translate(190.869141 0)"/>
      </g>
     </g>
    </g>
    <g id="xtick_3">
     <g id="line2d_3">
      <g>
       <use xlink:href="#m81bc277348" x="206.752231" y="257.158895" style="stroke: #000000; stroke-width: 0.8"/>
      </g>
     </g>
     <g id="text_3">
      <!-- 2000 -->
      <g transform="translate(194.027231 271.757332) scale(0.1 -0.1)">
       <defs>
        <path id="DejaVuSans-32" d="M 1228 531 
L 3431 531 
L 3431 0 
L 469 0 
L 469 531 
Q 828 903 1448 1529 
Q 2069 2156 2228 2338 
Q 2531 2678 2651 2914 
Q 2772 3150 2772 3378 
Q 2772 3750 2511 3984 
Q 2250 4219 1831 4219 
Q 1534 4219 1204 4116 
Q 875 4013 500 3803 
L 500 4441 
Q 881 4594 1212 4672 
Q 1544 4750 1819 4750 
Q 2544 4750 2975 4387 
Q 3406 4025 3406 3419 
Q 3406 3131 3298 2873 
Q 3191 2616 2906 2266 
Q 2828 2175 2409 1742 
Q 1991 1309 1228 531 
z
" transform="scale(0.015625)"/>
       </defs>
       <use xlink:href="#DejaVuSans-32"/>
       <use xlink:href="#DejaVuSans-30" transform="translate(63.623047 0)"/>
       <use xlink:href="#DejaVuSans-30" transform="translate(127.246094 0)"/>
       <use xlink:href="#DejaVuSans-30" transform="translate(190.869141 0)"/>
      </g>
     </g>
    </g>
    <g id="xtick_4">
     <g id="line2d_4">
      <g>
       <use xlink:href="#m81bc277348" x="275.362014" y="257.158895" style="stroke: #000000; stroke-width: 0.8"/>
      </g>
     </g>
     <g id="text_4">
      <!-- 3000 -->
      <g transform="translate(262.637014 271.757332) scale(0.1 -0.1)">
       <defs>
        <path id="DejaVuSans-33" d="M 2597 2516 
Q 3050 2419 3304 2112 
Q 3559 1806 3559 1356 
Q 3559 666 3084 287 
Q 2609 -91 1734 -91 
Q 1441 -91 1130 -33 
Q 819 25 488 141 
L 488 750 
Q 750 597 1062 519 
Q 1375 441 1716 441 
Q 2309 441 2620 675 
Q 2931 909 2931 1356 
Q 2931 1769 2642 2001 
Q 2353 2234 1838 2234 
L 1294 2234 
L 1294 2753 
L 1863 2753 
Q 2328 2753 2575 2939 
Q 2822 3125 2822 3475 
Q 2822 3834 2567 4026 
Q 2313 4219 1838 4219 
Q 1578 4219 1281 4162 
Q 984 4106 628 3988 
L 628 4550 
Q 988 4650 1302 4700 
Q 1616 4750 1894 4750 
Q 2613 4750 3031 4423 
Q 3450 4097 3450 3541 
Q 3450 3153 3228 2886 
Q 3006 2619 2597 2516 
z
" transform="scale(0.015625)"/>
       </defs>
       <use xlink:href="#DejaVuSans-33"/>
       <use xlink:href="#DejaVuSans-30" transform="translate(63.623047 0)"/>
       <use xlink:href="#DejaVuSans-30" transform="translate(127.246094 0)"/>
       <use xlink:href="#DejaVuSans-30" transform="translate(190.869141 0)"/>
      </g>
     </g>
    </g>
    <g id="xtick_5">
     <g id="line2d_5">
      <g>
       <use xlink:href="#m81bc277348" x="343.971797" y="257.158895" style="stroke: #000000; stroke-width: 0.8"/>
      </g>
     </g>
     <g id="text_5">
      <!-- 4000 -->
      <g transform="translate(331.246797 271.757332) scale(0.1 -0.1)">
       <defs>
        <path id="DejaVuSans-34" d="M 2419 4116 
L 825 1625 
L 2419 1625 
L 2419 4116 
z
M 2253 4666 
L 3047 4666 
L 3047 1625 
L 3713 1625 
L 3713 1100 
L 3047 1100 
L 3047 0 
L 2419 0 
L 2419 1100 
L 313 1100 
L 313 1709 
L 2253 4666 
z
" transform="scale(0.015625)"/>
       </defs>
       <use xlink:href="#DejaVuSans-34"/>
       <use xlink:href="#DejaVuSans-30" transform="translate(63.623047 0)"/>
       <use xlink:href="#DejaVuSans-30" transform="translate(127.246094 0)"/>
       <use xlink:href="#DejaVuSans-30" transform="translate(190.869141 0)"/>
      </g>
     </g>
    </g>
    <g id="xtick_6">
     <g id="line2d_6">
      <g>
       <use xlink:href="#m81bc277348" x="412.58158" y="257.158895" style="stroke: #000000; stroke-width: 0.8"/>
      </g>
     </g>
     <g id="text_6">
      <!-- 5000 -->
      <g transform="translate(399.85658 271.757332) scale(0.1 -0.1)">
       <defs>
        <path id="DejaVuSans-35" d="M 691 4666 
L 3169 4666 
L 3169 4134 
L 1269 4134 
L 1269 2991 
Q 1406 3038 1543 3061 
Q 1681 3084 1819 3084 
Q 2600 3084 3056 2656 
Q 3513 2228 3513 1497 
Q 3513 744 3044 326 
Q 2575 -91 1722 -91 
Q 1428 -91 1123 -41 
Q 819 9 494 109 
L 494 744 
Q 775 591 1075 516 
Q 1375 441 1709 441 
Q 2250 441 2565 725 
Q 2881 1009 2881 1497 
Q 2881 1984 2565 2268 
Q 2250 2553 1709 2553 
Q 1456 2553 1204 2497 
Q 953 2441 691 2322 
L 691 4666 
z
" transform="scale(0.015625)"/>
       </defs>
       <use xlink:href="#DejaVuSans-35"/>
       <use xlink:href="#DejaVuSans-30" transform="translate(63.623047 0)"/>
       <use xlink:href="#DejaVuSans-30" transform="translate(127.246094 0)"/>
       <use xlink:href="#DejaVuSans-30" transform="translate(190.869141 0)"/>
      </g>
     </g>
    </g>
    <g id="text_7">
     <!-- birth_time [µs] -->
     <g transform="translate(204.193005 285.435457) scale(0.1 -0.1)">
      <defs>
       <path id="DejaVuSans-62" d="M 3116 1747 
Q 3116 2381 2855 2742 
Q 2594 3103 2138 3103 
Q 1681 3103 1420 2742 
Q 1159 2381 1159 1747 
Q 1159 1113 1420 752 
Q 1681 391 2138 391 
Q 2594 391 2855 752 
Q 3116 1113 3116 1747 
z
M 1159 2969 
Q 1341 3281 1617 3432 
Q 1894 3584 2278 3584 
Q 2916 3584 3314 3078 
Q 3713 2572 3713 1747 
Q 3713 922 3314 415 
Q 2916 -91 2278 -91 
Q 1894 -91 1617 61 
Q 1341 213 1159 525 
L 1159 0 
L 581 0 
L 581 4863 
L 1159 4863 
L 1159 2969 
z
" transform="scale(0.015625)"/>
       <path id="DejaVuSans-69" d="M 603 3500 
L 1178 3500 
L 1178 0 
L 603 0 
L 603 3500 
z
M 603 4863 
L 1178 4863 
L 1178 4134 
L 603 4134 
L 603 4863 
z
" transform="scale(0.015625)"/>
       <path id="DejaVuSans-72" d="M 2631 2963 
Q 2534 3019 2420 3045 
Q 2306 3072 2169 3072 
Q 1681 3072 1420 2755 
Q 1159 2438 1159 1844 
L 1159 0 
L 581 0 
L 581 3500 
L 1159 3500 
L 1159 2956 
Q 1341 3275 1631 3429 
Q 1922 3584 2338 3584 
Q 2397 3584 2469 3576 
Q 2541 3569 2628 3553 
L 2631 2963 
z
" transform="scale(0.015625)"/>
       <path id="DejaVuSans-74" d="M 1172 4494 
L 1172 3500 
L 2356 3500 
L 2356 3053 
L 1172 3053 
L 1172 1153 
Q 1172 725 1289 603 
Q 1406 481 1766 481 
L 2356 481 
L 2356 0 
L 1766 0 
Q 1100 0 847 248 
Q 594 497 594 1153 
L 594 3053 
L 172 3053 
L 172 3500 
L 594 3500 
L 594 4494 
L 1172 4494 
z
" transform="scale(0.015625)"/>
       <path id="DejaVuSans-68" d="M 3513 2113 
L 3513 0 
L 2938 0 
L 2938 2094 
Q 2938 2591 2744 2837 
Q 2550 3084 2163 3084 
Q 1697 3084 1428 2787 
Q 1159 2491 1159 1978 
L 1159 0 
L 581 0 
L 581 4863 
L 1159 4863 
L 1159 2956 
Q 1366 3272 1645 3428 
Q 1925 3584 2291 3584 
Q 2894 3584 3203 3211 
Q 3513 2838 3513 2113 
z
" transform="scale(0.015625)"/>
       <path id="DejaVuSans-5f" d="M 3263 -1063 
L 3263 -1509 
L -63 -1509 
L -63 -1063 
L 3263 -1063 
z
" transform="scale(0.015625)"/>
       <path id="DejaVuSans-6d" d="M 3328 2828 
Q 3544 3216 3844 3400 
Q 4144 3584 4550 3584 
Q 5097 3584 5394 3201 
Q 5691 2819 5691 2113 
L 5691 0 
L 5113 0 
L 5113 2094 
Q 5113 2597 4934 2840 
Q 4756 3084 4391 3084 
Q 3944 3084 3684 2787 
Q 3425 2491 3425 1978 
L 3425 0 
L 2847 0 
L 2847 2094 
Q 2847 2600 2669 2842 
Q 2491 3084 2119 3084 
Q 1678 3084 1418 2786 
Q 1159 2488 1159 1978 
L 1159 0 
L 581 0 
L 581 3500 
L 1159 3500 
L 1159 2956 
Q 1356 3278 1631 3431 
Q 1906 3584 2284 3584 
Q 2666 3584 2933 3390 
Q 3200 3197 3328 2828 
z
" transform="scale(0.015625)"/>
       <path id="DejaVuSans-65" d="M 3597 1894 
L 3597 1613 
L 953 1613 
Q 991 1019 1311 708 
Q 1631 397 2203 397 
Q 2534 397 2845 478 
Q 3156 559 3463 722 
L 3463 178 
Q 3153 47 2828 -22 
Q 2503 -91 2169 -91 
Q 1331 -91 842 396 
Q 353 884 353 1716 
Q 353 2575 817 3079 
Q 1281 3584 2069 3584 
Q 2775 3584 3186 3129 
Q 3597 2675 3597 1894 
z
M 3022 2063 
Q 3016 2534 2758 2815 
Q 2500 3097 2075 3097 
Q 1594 3097 1305 2825 
Q 1016 2553 972 2059 
L 3022 2063 
z
" transform="scale(0.015625)"/>
       <path id="DejaVuSans-20" transform="scale(0.015625)"/>
       <path id="DejaVuSans-5b" d="M 550 4863 
L 1875 4863 
L 1875 4416 
L 1125 4416 
L 1125 -397 
L 1875 -397 
L 1875 -844 
L 550 -844 
L 550 4863 
z
" transform="scale(0.015625)"/>
       <path id="DejaVuSans-b5" d="M 544 -1331 
L 544 3500 
L 1119 3500 
L 1119 1325 
Q 1119 872 1334 640 
Q 1550 409 1972 409 
Q 2434 409 2667 671 
Q 2900 934 2900 1459 
L 2900 3500 
L 3475 3500 
L 3475 806 
Q 3475 619 3529 530 
Q 3584 441 3700 441 
Q 3728 441 3778 458 
Q 3828 475 3916 513 
L 3916 50 
Q 3788 -22 3673 -56 
Q 3559 -91 3450 -91 
Q 3234 -91 3106 31 
Q 2978 153 2931 403 
Q 2775 156 2548 32 
Q 2322 -91 2016 -91 
Q 1697 -91 1473 31 
Q 1250 153 1119 397 
L 1119 -1331 
L 544 -1331 
z
" transform="scale(0.015625)"/>
       <path id="DejaVuSans-73" d="M 2834 3397 
L 2834 2853 
Q 2591 2978 2328 3040 
Q 2066 3103 1784 3103 
Q 1356 3103 1142 2972 
Q 928 2841 928 2578 
Q 928 2378 1081 2264 
Q 1234 2150 1697 2047 
L 1894 2003 
Q 2506 1872 2764 1633 
Q 3022 1394 3022 966 
Q 3022 478 2636 193 
Q 2250 -91 1575 -91 
Q 1294 -91 989 -36 
Q 684 19 347 128 
L 347 722 
Q 666 556 975 473 
Q 1284 391 1588 391 
Q 1994 391 2212 530 
Q 2431 669 2431 922 
Q 2431 1156 2273 1281 
Q 2116 1406 1581 1522 
L 1381 1569 
Q 847 1681 609 1914 
Q 372 2147 372 2553 
Q 372 3047 722 3315 
Q 1072 3584 1716 3584 
Q 2034 3584 2315 3537 
Q 2597 3491 2834 3397 
z
" transform="scale(0.015625)"/>
       <path id="DejaVuSans-5d" d="M 1947 4863 
L 1947 -844 
L 622 -844 
L 622 -397 
L 1369 -397 
L 1369 4416 
L 622 4416 
L 622 4863 
L 1947 4863 
z
" transform="scale(0.015625)"/>
      </defs>
      <use xlink:href="#DejaVuSans-62"/>
      <use xlink:href="#DejaVuSans-69" transform="translate(63.476562 0)"/>
      <use xlink:href="#DejaVuSans-72" transform="translate(91.259766 0)"/>
      <use xlink:href="#DejaVuSans-74" transform="translate(132.373047 0)"/>
      <use xlink:href="#DejaVuSans-68" transform="translate(171.582031 0)"/>
      <use xlink:href="#DejaVuSans-5f" transform="translate(234.960938 0)"/>
      <use xlink:href="#DejaVuSans-74" transform="translate(284.960938 0)"/>
      <use xlink:href="#DejaVuSans-69" transform="translate(324.169922 0)"/>
      <use xlink:href="#DejaVuSans-6d" transform="translate(351.953125 0)"/>
      <use xlink:href="#DejaVuSans-65" transform="translate(449.365234 0)"/>
      <use xlink:href="#DejaVuSans-20" transform="translate(510.888672 0)"/>
      <use xlink:href="#DejaVuSans-5b" transform="translate(542.675781 0)"/>
      <use xlink:href="#DejaVuSans-b5" transform="translate(581.689453 0)"/>
      <use xlink:href="#DejaVuSans-73" transform="translate(645.3125 0)"/>
      <use xlink:href="#DejaVuSans-5d" transform="translate(697.412109 0)"/>
     </g>
    </g>
   </g>
   <g id="matplotlib.axis_2">
    <g id="ytick_1">
     <g id="line2d_7">
      <defs>
       <path id="mb1647314dd" d="M 0 0 
L -3.5 0 
" style="stroke: #000000; stroke-width: 0.8"/>
      </defs>
      <g>
       <use xlink:href="#mb1647314dd" x="53.328125" y="246.026542" style="stroke: #000000; stroke-width: 0.8"/>
      </g>
     </g>
     <g id="text_8">
      <!-- 0 -->
      <g transform="translate(39.965625 249.825761) scale(0.1 -0.1)">
       <use xlink:href="#DejaVuSans-30"/>
      </g>
     </g>
    </g>
    <g id="ytick_2">
     <g id="line2d_8">
      <g>
       <use xlink:href="#mb1647314dd" x="53.328125" y="207.790742" style="stroke: #000000; stroke-width: 0.8"/>
      </g>
     </g>
     <g id="text_9">
      <!-- 1000 -->
      <g transform="translate(20.878125 211.589961) scale(0.1 -0.1)">
       <use xlink:href="#DejaVuSans-31"/>
       <use xlink:href="#DejaVuSans-30" transform="translate(63.623047 0)"/>
       <use xlink:href="#DejaVuSans-30" transform="translate(127.246094 0)"/>
       <use xlink:href="#DejaVuSans-30" transform="translate(190.869141 0)"/>
      </g>
     </g>
    </g>
    <g id="ytick_3">
     <g id="line2d_9">
      <g>
       <use xlink:href="#mb1647314dd" x="53.328125" y="169.554942" style="stroke: #000000; stroke-width: 0.8"/>
      </g>
     </g>
     <g id="text_10">
      <!-- 2000 -->
      <g transform="translate(20.878125 173.354161) scale(0.1 -0.1)">
       <use xlink:href="#DejaVuSans-32"/>
       <use xlink:href="#DejaVuSans-30" transform="translate(63.623047 0)"/>
       <use xlink:href="#DejaVuSans-30" transform="translate(127.246094 0)"/>
       <use xlink:href="#DejaVuSans-30" transform="translate(190.869141 0)"/>
      </g>
     </g>
    </g>
    <g id="ytick_4">
     <g id="line2d_10">
      <g>
       <use xlink:href="#mb1647314dd" x="53.328125" y="131.319142" style="stroke: #000000; stroke-width: 0.8"/>
      </g>
     </g>
     <g id="text_11">
      <!-- 3000 -->
      <g transform="translate(20.878125 135.118361) scale(0.1 -0.1)">
       <use xlink:href="#DejaVuSans-33"/>
       <use xlink:href="#DejaVuSans-30" transform="translate(63.623047 0)"/>
       <use xlink:href="#DejaVuSans-30" transform="translate(127.246094 0)"/>
       <use xlink:href="#DejaVuSans-30" transform="translate(190.869141 0)"/>
      </g>
     </g>
    </g>
    <g id="ytick_5">
     <g id="line2d_11">
      <g>
       <use xlink:href="#mb1647314dd" x="53.328125" y="93.083342" style="stroke: #000000; stroke-width: 0.8"/>
      </g>
     </g>
     <g id="text_12">
      <!-- 4000 -->
      <g transform="translate(20.878125 96.882561) scale(0.1 -0.1)">
       <use xlink:href="#DejaVuSans-34"/>
       <use xlink:href="#DejaVuSans-30" transform="translate(63.623047 0)"/>
       <use xlink:href="#DejaVuSans-30" transform="translate(127.246094 0)"/>
       <use xlink:href="#DejaVuSans-30" transform="translate(190.869141 0)"/>
      </g>
     </g>
    </g>
    <g id="ytick_6">
     <g id="line2d_12">
      <g>
       <use xlink:href="#mb1647314dd" x="53.328125" y="54.847542" style="stroke: #000000; stroke-width: 0.8"/>
      </g>
     </g>
     <g id="text_13">
      <!-- 5000 -->
      <g transform="translate(20.878125 58.646761) scale(0.1 -0.1)">
       <use xlink:href="#DejaVuSans-35"/>
       <use xlink:href="#DejaVuSans-30" transform="translate(63.623047 0)"/>
       <use xlink:href="#DejaVuSans-30" transform="translate(127.246094 0)"/>
       <use xlink:href="#DejaVuSans-30" transform="translate(190.869141 0)"/>
      </g>
     </g>
    </g>
    <g id="ytick_7">
     <g id="line2d_13">
      <g>
       <use xlink:href="#mb1647314dd" x="53.328125" y="16.611742" style="stroke: #000000; stroke-width: 0.8"/>
      </g>
     </g>
     <g id="text_14">
      <!-- 6000 -->
      <g transform="translate(20.878125 20.410961) scale(0.1 -0.1)">
       <defs>
        <path id="DejaVuSans-36" d="M 2113 2584 
Q 1688 2584 1439 2293 
Q 1191 2003 1191 1497 
Q 1191 994 1439 701 
Q 1688 409 2113 409 
Q 2538 409 2786 701 
Q 3034 994 3034 1497 
Q 3034 2003 2786 2293 
Q 2538 2584 2113 2584 
z
M 3366 4563 
L 3366 3988 
Q 3128 4100 2886 4159 
Q 2644 4219 2406 4219 
Q 1781 4219 1451 3797 
Q 1122 3375 1075 2522 
Q 1259 2794 1537 2939 
Q 1816 3084 2150 3084 
Q 2853 3084 3261 2657 
Q 3669 2231 3669 1497 
Q 3669 778 3244 343 
Q 2819 -91 2113 -91 
Q 1303 -91 875 529 
Q 447 1150 447 2328 
Q 447 3434 972 4092 
Q 1497 4750 2381 4750 
Q 2619 4750 2861 4703 
Q 3103 4656 3366 4563 
z
" transform="scale(0.015625)"/>
       </defs>
       <use xlink:href="#DejaVuSans-36"/>
       <use xlink:href="#DejaVuSans-30" transform="translate(63.623047 0)"/>
       <use xlink:href="#DejaVuSans-30" transform="translate(127.246094 0)"/>
       <use xlink:href="#DejaVuSans-30" transform="translate(190.869141 0)"/>
      </g>
     </g>
    </g>
    <g id="text_15">
     <!-- pulse:0 [counts] -->
     <g transform="translate(14.798438 172.659916) rotate(-90) scale(0.1 -0.1)">
      <defs>
       <path id="DejaVuSans-70" d="M 1159 525 
L 1159 -1331 
L 581 -1331 
L 581 3500 
L 1159 3500 
L 1159 2969 
Q 1341 3281 1617 3432 
Q 1894 3584 2278 3584 
Q 2916 3584 3314 3078 
Q 3713 2572 3713 1747 
Q 3713 922 3314 415 
Q 2916 -91 2278 -91 
Q 1894 -91 1617 61 
Q 1341 213 1159 525 
z
M 3116 1747 
Q 3116 2381 2855 2742 
Q 2594 3103 2138 3103 
Q 1681 3103 1420 2742 
Q 1159 2381 1159 1747 
Q 1159 1113 1420 752 
Q 1681 391 2138 391 
Q 2594 391 2855 752 
Q 3116 1113 3116 1747 
z
" transform="scale(0.015625)"/>
       <path id="DejaVuSans-75" d="M 544 1381 
L 544 3500 
L 1119 3500 
L 1119 1403 
Q 1119 906 1312 657 
Q 1506 409 1894 409 
Q 2359 409 2629 706 
Q 2900 1003 2900 1516 
L 2900 3500 
L 3475 3500 
L 3475 0 
L 2900 0 
L 2900 538 
Q 2691 219 2414 64 
Q 2138 -91 1772 -91 
Q 1169 -91 856 284 
Q 544 659 544 1381 
z
M 1991 3584 
L 1991 3584 
z
" transform="scale(0.015625)"/>
       <path id="DejaVuSans-6c" d="M 603 4863 
L 1178 4863 
L 1178 0 
L 603 0 
L 603 4863 
z
" transform="scale(0.015625)"/>
       <path id="DejaVuSans-3a" d="M 750 794 
L 1409 794 
L 1409 0 
L 750 0 
L 750 794 
z
M 750 3309 
L 1409 3309 
L 1409 2516 
L 750 2516 
L 750 3309 
z
" transform="scale(0.015625)"/>
       <path id="DejaVuSans-63" d="M 3122 3366 
L 3122 2828 
Q 2878 2963 2633 3030 
Q 2388 3097 2138 3097 
Q 1578 3097 1268 2742 
Q 959 2388 959 1747 
Q 959 1106 1268 751 
Q 1578 397 2138 397 
Q 2388 397 2633 464 
Q 2878 531 3122 666 
L 3122 134 
Q 2881 22 2623 -34 
Q 2366 -91 2075 -91 
Q 1284 -91 818 406 
Q 353 903 353 1747 
Q 353 2603 823 3093 
Q 1294 3584 2113 3584 
Q 2378 3584 2631 3529 
Q 2884 3475 3122 3366 
z
" transform="scale(0.015625)"/>
       <path id="DejaVuSans-6f" d="M 1959 3097 
Q 1497 3097 1228 2736 
Q 959 2375 959 1747 
Q 959 1119 1226 758 
Q 1494 397 1959 397 
Q 2419 397 2687 759 
Q 2956 1122 2956 1747 
Q 2956 2369 2687 2733 
Q 2419 3097 1959 3097 
z
M 1959 3584 
Q 2709 3584 3137 3096 
Q 3566 2609 3566 1747 
Q 3566 888 3137 398 
Q 2709 -91 1959 -91 
Q 1206 -91 779 398 
Q 353 888 353 1747 
Q 353 2609 779 3096 
Q 1206 3584 1959 3584 
z
" transform="scale(0.015625)"/>
       <path id="DejaVuSans-6e" d="M 3513 2113 
L 3513 0 
L 2938 0 
L 2938 2094 
Q 2938 2591 2744 2837 
Q 2550 3084 2163 3084 
Q 1697 3084 1428 2787 
Q 1159 2491 1159 1978 
L 1159 0 
L 581 0 
L 581 3500 
L 1159 3500 
L 1159 2956 
Q 1366 3272 1645 3428 
Q 1925 3584 2291 3584 
Q 2894 3584 3203 3211 
Q 3513 2838 3513 2113 
z
" transform="scale(0.015625)"/>
      </defs>
      <use xlink:href="#DejaVuSans-70"/>
      <use xlink:href="#DejaVuSans-75" transform="translate(63.476562 0)"/>
      <use xlink:href="#DejaVuSans-6c" transform="translate(126.855469 0)"/>
      <use xlink:href="#DejaVuSans-73" transform="translate(154.638672 0)"/>
      <use xlink:href="#DejaVuSans-65" transform="translate(206.738281 0)"/>
      <use xlink:href="#DejaVuSans-3a" transform="translate(268.261719 0)"/>
      <use xlink:href="#DejaVuSans-30" transform="translate(301.953125 0)"/>
      <use xlink:href="#DejaVuSans-20" transform="translate(365.576172 0)"/>
      <use xlink:href="#DejaVuSans-5b" transform="translate(397.363281 0)"/>
      <use xlink:href="#DejaVuSans-63" transform="translate(436.376953 0)"/>
      <use xlink:href="#DejaVuSans-6f" transform="translate(491.357422 0)"/>
      <use xlink:href="#DejaVuSans-75" transform="translate(552.539062 0)"/>
      <use xlink:href="#DejaVuSans-6e" transform="translate(615.917969 0)"/>
      <use xlink:href="#DejaVuSans-74" transform="translate(679.296875 0)"/>
      <use xlink:href="#DejaVuSans-73" transform="translate(718.505859 0)"/>
      <use xlink:href="#DejaVuSans-5d" transform="translate(770.605469 0)"/>
     </g>
    </g>
   </g>
   <g id="line2d_14">
    <path d="M 70.390415 234.21168 
L 71.527901 234.21168 
L 71.527901 227.826301 
L 72.665387 227.826301 
L 72.665387 221.211508 
L 73.802873 221.211508 
L 73.802873 211.53785 
L 74.940359 211.53785 
L 74.940359 199.34063 
L 76.077845 199.34063 
L 76.077845 189.972859 
L 77.215331 189.972859 
L 77.215331 185.116913 
L 78.352817 185.116913 
L 78.352817 174.48736 
L 79.490303 174.48736 
L 79.490303 165.846069 
L 80.627789 165.846069 
L 80.627789 157.701844 
L 81.765275 157.701844 
L 81.765275 150.169391 
L 82.902761 150.169391 
L 82.902761 145.81051 
L 84.040247 145.81051 
L 84.040247 139.119245 
L 85.177733 139.119245 
L 85.177733 134.148591 
L 86.315219 134.148591 
L 86.315219 120.804297 
L 87.452705 120.804297 
L 87.452705 123.213152 
L 88.590191 123.213152 
L 88.590191 111.780648 
L 89.727677 111.780648 
L 89.727677 110.862989 
L 90.865163 110.862989 
L 90.865163 100.730502 
L 92.00265 100.730502 
L 92.00265 101.686397 
L 93.140136 101.686397 
L 93.140136 97.021629 
L 94.277622 97.021629 
L 94.277622 92.509805 
L 95.415108 92.509805 
L 95.415108 84.862645 
L 96.552594 84.862645 
L 96.552594 85.627361 
L 97.69008 85.627361 
L 97.69008 83.18027 
L 98.827566 83.18027 
L 98.827566 76.374297 
L 99.965052 76.374297 
L 99.965052 78.859624 
L 101.102538 78.859624 
L 101.102538 71.327172 
L 102.240024 71.327172 
L 102.240024 68.535958 
L 103.37751 68.535958 
L 103.37751 66.012396 
L 104.514996 66.012396 
L 104.514996 68.803609 
L 105.652482 68.803609 
L 105.652482 61.4241 
L 106.789968 61.4241 
L 106.789968 62.341759 
L 107.927454 62.341759 
L 107.927454 56.644625 
L 109.06494 56.644625 
L 109.06494 56.453446 
L 110.202426 56.453446 
L 110.202426 52.515158 
L 111.339912 52.515158 
L 111.339912 52.018093 
L 112.477398 52.018093 
L 112.477398 55.612258 
L 113.614884 55.612258 
L 113.614884 51.176905 
L 114.75237 51.176905 
L 114.75237 48.462164 
L 115.889856 48.462164 
L 115.889856 47.200382 
L 117.027342 47.200382 
L 117.027342 50.909255 
L 118.164828 50.909255 
L 118.164828 48.462164 
L 119.302314 48.462164 
L 119.302314 42.879737 
L 121.577286 42.917973 
L 121.577286 42.994444 
L 122.714772 42.994444 
L 122.714772 41.006183 
L 123.852258 41.006183 
L 123.852258 37.220838 
L 124.989744 37.220838 
L 124.989744 41.57972 
L 126.12723 41.57972 
L 126.12723 37.641432 
L 127.264716 37.641432 
L 127.264716 36.417887 
L 128.402202 36.417887 
L 128.402202 39.591458 
L 129.539688 39.591458 
L 129.539688 40.815004 
L 130.677174 40.815004 
L 130.677174 39.438515 
L 131.81466 39.438515 
L 131.81466 35.423756 
L 132.952146 35.423756 
L 132.952146 34.467861 
L 134.089632 34.467861 
L 134.089632 30.758988 
L 135.227118 30.758988 
L 135.227118 34.161974 
L 136.364604 34.161974 
L 136.364604 34.276682 
L 138.639576 34.238446 
L 138.639576 32.74725 
L 139.777062 32.74725 
L 139.777062 34.620804 
L 140.914548 34.620804 
L 140.914548 37.029659 
L 142.052034 37.029659 
L 142.052034 30.10898 
L 143.18952 30.10898 
L 143.18952 27.776596 
L 144.327006 27.776596 
L 144.327006 31.944298 
L 145.464492 31.944298 
L 145.464492 26.2854 
L 146.601978 26.2854 
L 146.601978 29.497207 
L 147.739464 29.497207 
L 147.739464 23.608894 
L 148.87695 23.608894 
L 148.87695 28.006011 
L 150.014436 28.006011 
L 150.014436 22.997121 
L 151.151922 22.997121 
L 151.151922 28.006011 
L 152.289408 28.006011 
L 152.289408 23.647129 
L 153.426894 23.647129 
L 153.426894 29.726622 
L 154.56438 29.726622 
L 154.56438 25.711863 
L 155.701866 25.711863 
L 155.701866 29.764857 
L 156.839352 29.764857 
L 156.839352 29.535443 
L 157.976838 29.535443 
L 157.976838 24.297138 
L 159.114324 24.297138 
L 159.114324 25.520684 
L 161.389296 25.444212 
L 161.389296 27.050116 
L 162.526782 27.050116 
L 162.526782 24.182431 
L 163.664268 24.182431 
L 163.664268 28.694255 
L 164.801754 28.694255 
L 164.801754 24.258902 
L 165.93924 24.258902 
L 165.93924 33.091372 
L 167.076727 33.091372 
L 167.076727 23.608894 
L 168.214213 23.608894 
L 168.214213 25.941277 
L 169.351699 25.941277 
L 169.351699 23.417715 
L 170.489185 23.417715 
L 170.489185 23.685365 
L 171.626671 23.685365 
L 171.626671 30.223687 
L 172.764157 30.223687 
L 172.764157 22.614763 
L 173.901643 22.614763 
L 173.901643 18.561768 
L 175.039129 18.561768 
L 175.039129 30.338394 
L 176.176615 30.338394 
L 176.176615 23.035357 
L 177.314101 23.035357 
L 177.314101 27.27953 
L 178.451587 27.27953 
L 178.451587 27.623653 
L 179.589073 27.623653 
L 179.589073 26.629522 
L 180.726559 26.629522 
L 180.726559 22.347112 
L 183.001531 22.347112 
L 183.001531 26.820701 
L 184.139017 26.820701 
L 184.139017 26.476579 
L 186.413989 26.476579 
L 186.413989 27.547181 
L 187.551475 27.547181 
L 187.551475 20.397086 
L 188.688961 20.397086 
L 188.688961 27.203059 
L 189.826447 27.203059 
L 189.826447 28.503076 
L 190.963933 28.503076 
L 190.963933 32.632542 
L 192.101419 32.632542 
L 192.101419 22.805942 
L 193.238905 22.805942 
L 193.238905 25.864806 
L 194.376391 25.864806 
L 194.376391 23.876544 
L 195.513877 23.876544 
L 195.513877 22.308876 
L 196.651363 22.308876 
L 196.651363 24.220666 
L 197.788849 24.220666 
L 197.788849 23.723601 
L 198.926335 23.723601 
L 198.926335 23.608894 
L 200.063821 23.608894 
L 200.063821 21.582396 
L 201.201307 21.582396 
L 201.201307 24.182431 
L 202.338793 24.182431 
L 202.338793 26.591286 
L 203.476279 26.591286 
L 203.476279 26.782465 
L 204.613765 26.782465 
L 204.613765 23.91478 
L 205.751251 23.91478 
L 205.751251 24.564789 
L 206.888737 24.564789 
L 206.888737 22.691234 
L 208.026223 22.691234 
L 208.026223 21.773575 
L 209.163709 21.773575 
L 209.163709 28.847198 
L 210.301195 28.847198 
L 210.301195 19.441191 
L 211.438681 19.441191 
L 211.438681 21.314746 
L 212.576167 21.314746 
L 212.576167 29.803093 
L 213.713653 29.803093 
L 213.713653 27.203059 
L 214.851139 27.203059 
L 214.851139 27.088351 
L 215.988625 27.088351 
L 215.988625 26.705993 
L 217.126111 26.705993 
L 217.126111 23.761837 
L 218.263597 23.761837 
L 218.263597 26.438343 
L 219.401083 26.438343 
L 219.401083 29.535443 
L 220.538569 29.535443 
L 220.538569 27.623653 
L 221.676055 27.623653 
L 221.676055 25.520684 
L 222.813541 25.520684 
L 222.813541 21.085331 
L 223.951027 21.085331 
L 223.951027 25.36774 
L 225.088513 25.36774 
L 225.088513 25.750098 
L 226.225999 25.750098 
L 226.225999 24.450081 
L 227.363485 24.450081 
L 227.363485 20.855916 
L 228.500971 20.855916 
L 228.500971 23.073592 
L 229.638457 23.073592 
L 229.638457 22.958885 
L 230.775943 22.958885 
L 230.775943 26.973644 
L 231.913429 26.973644 
L 231.913429 23.91478 
L 233.050915 23.91478 
L 233.050915 23.417715 
L 234.188401 23.417715 
L 234.188401 24.029487 
L 235.325887 24.029487 
L 235.325887 21.123567 
L 236.463373 21.123567 
L 236.463373 20.702973 
L 237.600859 20.702973 
L 237.600859 27.088351 
L 238.738345 27.088351 
L 238.738345 23.264771 
L 239.875831 23.264771 
L 239.875831 25.36774 
L 241.013317 25.36774 
L 241.013317 22.46182 
L 242.150804 22.46182 
L 242.150804 26.591286 
L 243.28829 26.591286 
L 243.28829 22.041226 
L 244.425776 22.041226 
L 244.425776 19.670606 
L 245.563262 19.670606 
L 245.563262 23.073592 
L 246.700748 23.073592 
L 246.700748 27.203059 
L 247.838234 27.203059 
L 247.838234 22.997121 
L 248.97572 22.997121 
L 248.97572 26.629522 
L 250.113206 26.629522 
L 250.113206 25.788334 
L 251.250692 25.788334 
L 251.250692 26.897172 
L 252.388178 26.897172 
L 252.388178 24.105959 
L 253.525664 24.105959 
L 253.525664 22.00299 
L 254.66315 22.00299 
L 254.66315 18.829419 
L 255.800636 18.829419 
L 255.800636 24.144195 
L 256.938122 24.144195 
L 256.938122 21.850047 
L 258.075608 21.850047 
L 258.075608 24.258902 
L 260.35058 24.220666 
L 260.35058 22.423584 
L 261.488066 22.423584 
L 261.488066 23.838308 
L 262.625552 23.838308 
L 262.625552 26.017749 
L 263.763038 26.017749 
L 263.763038 25.253033 
L 264.900524 25.253033 
L 264.900524 30.338394 
L 266.03801 30.338394 
L 266.03801 37.450253 
L 267.175496 37.450253 
L 267.175496 39.66793 
L 268.312982 39.66793 
L 268.312982 51.750442 
L 269.450468 51.750442 
L 269.450468 55.344608 
L 270.587954 55.344608 
L 270.587954 65.821217 
L 271.72544 65.821217 
L 271.72544 74.156621 
L 272.862926 74.156621 
L 272.862926 84.021457 
L 274.000412 84.021457 
L 274.000412 92.586277 
L 275.137898 92.586277 
L 275.137898 104.93644 
L 276.275384 104.93644 
L 276.275384 109.830622 
L 277.41287 109.830622 
L 277.41287 117.324839 
L 278.550356 117.324839 
L 278.550356 125.96613 
L 279.687842 125.96613 
L 279.687842 132.313273 
L 280.825328 132.313273 
L 280.825328 136.25156 
L 281.962814 136.25156 
L 281.962814 141.757515 
L 283.1003 141.757515 
L 283.1003 149.060553 
L 284.237786 149.060553 
L 284.237786 153.19002 
L 285.375272 153.19002 
L 285.375272 159.460691 
L 286.512758 159.460691 
L 286.512758 164.087223 
L 287.650244 164.087223 
L 287.650244 166.419606 
L 288.78773 166.419606 
L 288.78773 172.957928 
L 289.925216 172.957928 
L 289.925216 177.278574 
L 291.062702 177.278574 
L 291.062702 180.22273 
L 292.200188 180.22273 
L 292.200188 183.243358 
L 293.337674 183.243358 
L 293.337674 186.149279 
L 294.47516 186.149279 
L 294.47516 190.355217 
L 295.612646 190.355217 
L 295.612646 194.599391 
L 296.750132 194.599391 
L 296.750132 195.440579 
L 297.887618 195.440579 
L 297.887618 198.805329 
L 299.025104 198.805329 
L 299.025104 201.825957 
L 300.16259 201.825957 
L 300.16259 203.470097 
L 301.300076 203.470097 
L 301.300076 206.605432 
L 302.437562 206.605432 
L 302.437562 206.834847 
L 303.575048 206.834847 
L 303.575048 209.664296 
L 304.712534 209.664296 
L 304.712534 213.411404 
L 305.85002 213.411404 
L 305.85002 215.323194 
L 308.124992 215.246723 
L 308.124992 216.814391 
L 309.262478 216.814391 
L 309.262478 219.18501 
L 310.399964 219.18501 
L 310.399964 218.305587 
L 311.53745 218.305587 
L 311.53745 221.211508 
L 312.674936 221.211508 
L 312.674936 221.937988 
L 313.812422 221.937988 
L 313.812422 225.340974 
L 314.949908 225.340974 
L 314.949908 226.296869 
L 317.224881 226.335105 
L 317.224881 227.788065 
L 318.362367 227.788065 
L 318.362367 229.049847 
L 319.499853 229.049847 
L 319.499853 229.546912 
L 320.637339 229.546912 
L 320.637339 230.846929 
L 321.774825 230.846929 
L 321.774825 231.305759 
L 322.912311 231.305759 
L 322.912311 231.535174 
L 324.049797 231.535174 
L 324.049797 232.070475 
L 325.187283 232.070475 
L 325.187283 233.408728 
L 326.324769 233.408728 
L 326.324769 233.599907 
L 327.462255 233.599907 
L 327.462255 234.976396 
L 328.599741 234.976396 
L 328.599741 235.435225 
L 329.737227 235.435225 
L 329.737227 235.894055 
L 330.874713 235.894055 
L 330.874713 236.238177 
L 332.012199 236.238177 
L 332.012199 237.194072 
L 333.149685 237.194072 
L 333.149685 237.882316 
L 335.424657 237.958788 
L 335.424657 237.194072 
L 336.562143 237.194072 
L 336.562143 238.379382 
L 337.699629 238.379382 
L 337.699629 239.335277 
L 338.837115 239.335277 
L 338.837115 239.602927 
L 341.112087 239.602927 
L 341.112087 240.176464 
L 342.249573 240.176464 
L 342.249573 240.061757 
L 343.387059 240.061757 
L 343.387059 241.094124 
L 344.524545 241.094124 
L 344.524545 241.514717 
L 345.662031 241.514717 
L 345.662031 240.826473 
L 346.799517 240.826473 
L 346.799517 241.285303 
L 347.937003 241.285303 
L 347.937003 241.017652 
L 349.074489 241.017652 
L 349.074489 241.361774 
L 350.211975 241.361774 
L 350.211975 241.667661 
L 351.349461 241.667661 
L 351.349461 242.317669 
L 352.486947 242.317669 
L 352.486947 242.700027 
L 353.624433 242.700027 
L 353.624433 242.58532 
L 354.761919 242.58532 
L 354.761919 242.394141 
L 355.899405 242.394141 
L 355.899405 242.891206 
L 357.036891 242.891206 
L 357.036891 243.350036 
L 358.174377 243.350036 
L 358.174377 243.694158 
L 359.311863 243.694158 
L 359.311863 243.961809 
L 360.449349 243.961809 
L 360.449349 243.120621 
L 361.586835 243.120621 
L 361.586835 243.655922 
L 362.724321 243.655922 
L 362.724321 243.005914 
L 363.861807 243.005914 
L 363.861807 244.000044 
L 364.999293 244.000044 
L 364.999293 244.267695 
L 366.136779 244.267695 
L 366.136779 244.152988 
L 368.411751 244.191223 
L 368.411751 244.267695 
L 369.549237 244.267695 
L 369.549237 244.611817 
L 370.686723 244.611817 
L 370.686723 244.344167 
L 372.961695 244.420638 
L 372.961695 244.76476 
L 374.099181 244.76476 
L 374.099181 244.267695 
L 375.236667 244.267695 
L 375.236667 244.917704 
L 376.374153 244.917704 
L 376.374153 244.688289 
L 377.511639 244.688289 
L 377.511639 244.802996 
L 378.649125 244.802996 
L 378.649125 244.688289 
L 379.786611 244.688289 
L 379.786611 244.994175 
L 380.924097 244.994175 
L 380.924097 245.300062 
L 383.199069 245.300062 
L 383.199069 245.108883 
L 384.336555 245.108883 
L 384.336555 245.338297 
L 385.474041 245.338297 
L 385.474041 245.108883 
L 386.611527 245.108883 
L 386.611527 244.955939 
L 387.749013 244.955939 
L 387.749013 245.070647 
L 388.886499 245.070647 
L 388.886499 245.414769 
L 394.57393 245.491241 
L 394.57393 245.720655 
L 395.711416 245.720655 
L 395.711416 245.376533 
L 396.848902 245.376533 
L 396.848902 245.68242 
L 397.986388 245.68242 
L 397.986388 245.491241 
L 399.123874 245.491241 
L 399.123874 245.605948 
L 401.398846 245.567712 
L 401.398846 245.720655 
L 402.536332 245.720655 
L 402.536332 245.529476 
L 404.811304 245.605948 
L 404.811304 245.797127 
L 410.498734 245.797127 
L 410.498734 245.68242 
L 411.63622 245.68242 
L 411.63622 245.68242 
" clip-path="url(#p4b93abdaf6)" style="fill: none; stroke: #1f77b4; stroke-width: 1.5; stroke-linecap: square"/>
   </g>
   <g id="patch_3">
    <path d="M 53.328125 257.158895 
L 53.328125 7.2 
" style="fill: none; stroke: #000000; stroke-width: 0.8; stroke-linejoin: miter; stroke-linecap: square"/>
   </g>
   <g id="patch_4">
    <path d="M 428.69851 257.158895 
L 428.69851 7.2 
" style="fill: none; stroke: #000000; stroke-width: 0.8; stroke-linejoin: miter; stroke-linecap: square"/>
   </g>
   <g id="patch_5">
    <path d="M 53.328125 257.158895 
L 428.69851 257.158895 
" style="fill: none; stroke: #000000; stroke-width: 0.8; stroke-linejoin: miter; stroke-linecap: square"/>
   </g>
   <g id="patch_6">
    <path d="M 53.328125 7.2 
L 428.69851 7.2 
" style="fill: none; stroke: #000000; stroke-width: 0.8; stroke-linejoin: miter; stroke-linecap: square"/>
   </g>
  </g>
  <g id="axes_2">
   <g id="patch_7">
    <path d="M 489.829135 257.158895 
L 865.19952 257.158895 
L 865.19952 7.2 
L 489.829135 7.2 
z
" style="fill: #ffffff"/>
   </g>
   <g id="matplotlib.axis_3">
    <g id="xtick_7">
     <g id="line2d_15">
      <g>
       <use xlink:href="#m81bc277348" x="503.451953" y="257.158895" style="stroke: #000000; stroke-width: 0.8"/>
      </g>
     </g>
     <g id="text_16">
      <!-- 0.0 -->
      <g transform="translate(495.500391 271.757332) scale(0.1 -0.1)">
       <defs>
        <path id="DejaVuSans-2e" d="M 684 794 
L 1344 794 
L 1344 0 
L 684 0 
L 684 794 
z
" transform="scale(0.015625)"/>
       </defs>
       <use xlink:href="#DejaVuSans-30"/>
       <use xlink:href="#DejaVuSans-2e" transform="translate(63.623047 0)"/>
       <use xlink:href="#DejaVuSans-30" transform="translate(95.410156 0)"/>
      </g>
     </g>
    </g>
    <g id="xtick_8">
     <g id="line2d_16">
      <g>
       <use xlink:href="#m81bc277348" x="546.766531" y="257.158895" style="stroke: #000000; stroke-width: 0.8"/>
      </g>
     </g>
     <g id="text_17">
      <!-- 2.5 -->
      <g transform="translate(538.814968 271.757332) scale(0.1 -0.1)">
       <use xlink:href="#DejaVuSans-32"/>
       <use xlink:href="#DejaVuSans-2e" transform="translate(63.623047 0)"/>
       <use xlink:href="#DejaVuSans-35" transform="translate(95.410156 0)"/>
      </g>
     </g>
    </g>
    <g id="xtick_9">
     <g id="line2d_17">
      <g>
       <use xlink:href="#m81bc277348" x="590.081108" y="257.158895" style="stroke: #000000; stroke-width: 0.8"/>
      </g>
     </g>
     <g id="text_18">
      <!-- 5.0 -->
      <g transform="translate(582.129546 271.757332) scale(0.1 -0.1)">
       <use xlink:href="#DejaVuSans-35"/>
       <use xlink:href="#DejaVuSans-2e" transform="translate(63.623047 0)"/>
       <use xlink:href="#DejaVuSans-30" transform="translate(95.410156 0)"/>
      </g>
     </g>
    </g>
    <g id="xtick_10">
     <g id="line2d_18">
      <g>
       <use xlink:href="#m81bc277348" x="633.395686" y="257.158895" style="stroke: #000000; stroke-width: 0.8"/>
      </g>
     </g>
     <g id="text_19">
      <!-- 7.5 -->
      <g transform="translate(625.444124 271.757332) scale(0.1 -0.1)">
       <defs>
        <path id="DejaVuSans-37" d="M 525 4666 
L 3525 4666 
L 3525 4397 
L 1831 0 
L 1172 0 
L 2766 4134 
L 525 4134 
L 525 4666 
z
" transform="scale(0.015625)"/>
       </defs>
       <use xlink:href="#DejaVuSans-37"/>
       <use xlink:href="#DejaVuSans-2e" transform="translate(63.623047 0)"/>
       <use xlink:href="#DejaVuSans-35" transform="translate(95.410156 0)"/>
      </g>
     </g>
    </g>
    <g id="xtick_11">
     <g id="line2d_19">
      <g>
       <use xlink:href="#m81bc277348" x="676.710264" y="257.158895" style="stroke: #000000; stroke-width: 0.8"/>
      </g>
     </g>
     <g id="text_20">
      <!-- 10.0 -->
      <g transform="translate(665.577451 271.757332) scale(0.1 -0.1)">
       <use xlink:href="#DejaVuSans-31"/>
       <use xlink:href="#DejaVuSans-30" transform="translate(63.623047 0)"/>
       <use xlink:href="#DejaVuSans-2e" transform="translate(127.246094 0)"/>
       <use xlink:href="#DejaVuSans-30" transform="translate(159.033203 0)"/>
      </g>
     </g>
    </g>
    <g id="xtick_12">
     <g id="line2d_20">
      <g>
       <use xlink:href="#m81bc277348" x="720.024841" y="257.158895" style="stroke: #000000; stroke-width: 0.8"/>
      </g>
     </g>
     <g id="text_21">
      <!-- 12.5 -->
      <g transform="translate(708.892029 271.757332) scale(0.1 -0.1)">
       <use xlink:href="#DejaVuSans-31"/>
       <use xlink:href="#DejaVuSans-32" transform="translate(63.623047 0)"/>
       <use xlink:href="#DejaVuSans-2e" transform="translate(127.246094 0)"/>
       <use xlink:href="#DejaVuSans-35" transform="translate(159.033203 0)"/>
      </g>
     </g>
    </g>
    <g id="xtick_13">
     <g id="line2d_21">
      <g>
       <use xlink:href="#m81bc277348" x="763.339419" y="257.158895" style="stroke: #000000; stroke-width: 0.8"/>
      </g>
     </g>
     <g id="text_22">
      <!-- 15.0 -->
      <g transform="translate(752.206606 271.757332) scale(0.1 -0.1)">
       <use xlink:href="#DejaVuSans-31"/>
       <use xlink:href="#DejaVuSans-35" transform="translate(63.623047 0)"/>
       <use xlink:href="#DejaVuSans-2e" transform="translate(127.246094 0)"/>
       <use xlink:href="#DejaVuSans-30" transform="translate(159.033203 0)"/>
      </g>
     </g>
    </g>
    <g id="xtick_14">
     <g id="line2d_22">
      <g>
       <use xlink:href="#m81bc277348" x="806.653997" y="257.158895" style="stroke: #000000; stroke-width: 0.8"/>
      </g>
     </g>
     <g id="text_23">
      <!-- 17.5 -->
      <g transform="translate(795.521184 271.757332) scale(0.1 -0.1)">
       <use xlink:href="#DejaVuSans-31"/>
       <use xlink:href="#DejaVuSans-37" transform="translate(63.623047 0)"/>
       <use xlink:href="#DejaVuSans-2e" transform="translate(127.246094 0)"/>
       <use xlink:href="#DejaVuSans-35" transform="translate(159.033203 0)"/>
      </g>
     </g>
    </g>
    <g id="xtick_15">
     <g id="line2d_23">
      <g>
       <use xlink:href="#m81bc277348" x="849.968574" y="257.158895" style="stroke: #000000; stroke-width: 0.8"/>
      </g>
     </g>
     <g id="text_24">
      <!-- 20.0 -->
      <g transform="translate(838.835762 271.757332) scale(0.1 -0.1)">
       <use xlink:href="#DejaVuSans-32"/>
       <use xlink:href="#DejaVuSans-30" transform="translate(63.623047 0)"/>
       <use xlink:href="#DejaVuSans-2e" transform="translate(127.246094 0)"/>
       <use xlink:href="#DejaVuSans-30" transform="translate(159.033203 0)"/>
      </g>
     </g>
    </g>
    <g id="text_25">
     <!-- wavelength [Å] -->
     <g transform="translate(639.476827 287.119832) scale(0.1 -0.1)">
      <defs>
       <path id="DejaVuSans-77" d="M 269 3500 
L 844 3500 
L 1563 769 
L 2278 3500 
L 2956 3500 
L 3675 769 
L 4391 3500 
L 4966 3500 
L 4050 0 
L 3372 0 
L 2619 2869 
L 1863 0 
L 1184 0 
L 269 3500 
z
" transform="scale(0.015625)"/>
       <path id="DejaVuSans-61" d="M 2194 1759 
Q 1497 1759 1228 1600 
Q 959 1441 959 1056 
Q 959 750 1161 570 
Q 1363 391 1709 391 
Q 2188 391 2477 730 
Q 2766 1069 2766 1631 
L 2766 1759 
L 2194 1759 
z
M 3341 1997 
L 3341 0 
L 2766 0 
L 2766 531 
Q 2569 213 2275 61 
Q 1981 -91 1556 -91 
Q 1019 -91 701 211 
Q 384 513 384 1019 
Q 384 1609 779 1909 
Q 1175 2209 1959 2209 
L 2766 2209 
L 2766 2266 
Q 2766 2663 2505 2880 
Q 2244 3097 1772 3097 
Q 1472 3097 1187 3025 
Q 903 2953 641 2809 
L 641 3341 
Q 956 3463 1253 3523 
Q 1550 3584 1831 3584 
Q 2591 3584 2966 3190 
Q 3341 2797 3341 1997 
z
" transform="scale(0.015625)"/>
       <path id="DejaVuSans-76" d="M 191 3500 
L 800 3500 
L 1894 563 
L 2988 3500 
L 3597 3500 
L 2284 0 
L 1503 0 
L 191 3500 
z
" transform="scale(0.015625)"/>
       <path id="DejaVuSans-67" d="M 2906 1791 
Q 2906 2416 2648 2759 
Q 2391 3103 1925 3103 
Q 1463 3103 1205 2759 
Q 947 2416 947 1791 
Q 947 1169 1205 825 
Q 1463 481 1925 481 
Q 2391 481 2648 825 
Q 2906 1169 2906 1791 
z
M 3481 434 
Q 3481 -459 3084 -895 
Q 2688 -1331 1869 -1331 
Q 1566 -1331 1297 -1286 
Q 1028 -1241 775 -1147 
L 775 -588 
Q 1028 -725 1275 -790 
Q 1522 -856 1778 -856 
Q 2344 -856 2625 -561 
Q 2906 -266 2906 331 
L 2906 616 
Q 2728 306 2450 153 
Q 2172 0 1784 0 
Q 1141 0 747 490 
Q 353 981 353 1791 
Q 353 2603 747 3093 
Q 1141 3584 1784 3584 
Q 2172 3584 2450 3431 
Q 2728 3278 2906 2969 
L 2906 3500 
L 3481 3500 
L 3481 434 
z
" transform="scale(0.015625)"/>
       <path id="DejaVuSans-c5" d="M 2663 5081 
Q 2663 5278 2523 5417 
Q 2384 5556 2188 5556 
Q 1988 5556 1852 5420 
Q 1716 5284 1716 5081 
Q 1716 4884 1853 4746 
Q 1991 4609 2188 4609 
Q 2384 4609 2523 4746 
Q 2663 4884 2663 5081 
z
M 2188 4044 
L 1338 1722 
L 3041 1722 
L 2188 4044 
z
M 1716 4366 
Q 1525 4494 1428 4673 
Q 1331 4853 1331 5081 
Q 1331 5441 1579 5691 
Q 1828 5941 2188 5941 
Q 2544 5941 2795 5689 
Q 3047 5438 3047 5081 
Q 3047 4863 2948 4678 
Q 2850 4494 2663 4366 
L 4325 0 
L 3669 0 
L 3244 1197 
L 1141 1197 
L 716 0 
L 50 0 
L 1716 4366 
z
" transform="scale(0.015625)"/>
      </defs>
      <use xlink:href="#DejaVuSans-77"/>
      <use xlink:href="#DejaVuSans-61" transform="translate(81.787109 0)"/>
      <use xlink:href="#DejaVuSans-76" transform="translate(143.066406 0)"/>
      <use xlink:href="#DejaVuSans-65" transform="translate(202.246094 0)"/>
      <use xlink:href="#DejaVuSans-6c" transform="translate(263.769531 0)"/>
      <use xlink:href="#DejaVuSans-65" transform="translate(291.552734 0)"/>
      <use xlink:href="#DejaVuSans-6e" transform="translate(353.076172 0)"/>
      <use xlink:href="#DejaVuSans-67" transform="translate(416.455078 0)"/>
      <use xlink:href="#DejaVuSans-74" transform="translate(479.931641 0)"/>
      <use xlink:href="#DejaVuSans-68" transform="translate(519.140625 0)"/>
      <use xlink:href="#DejaVuSans-20" transform="translate(582.519531 0)"/>
      <use xlink:href="#DejaVuSans-5b" transform="translate(614.306641 0)"/>
      <use xlink:href="#DejaVuSans-c5" transform="translate(653.320312 0)"/>
      <use xlink:href="#DejaVuSans-5d" transform="translate(721.728516 0)"/>
     </g>
    </g>
   </g>
   <g id="matplotlib.axis_4">
    <g id="ytick_8">
     <g id="line2d_24">
      <g>
       <use xlink:href="#mb1647314dd" x="489.829135" y="245.849428" style="stroke: #000000; stroke-width: 0.8"/>
      </g>
     </g>
     <g id="text_26">
      <!-- 0 -->
      <g transform="translate(476.466635 249.648646) scale(0.1 -0.1)">
       <use xlink:href="#DejaVuSans-30"/>
      </g>
     </g>
    </g>
    <g id="ytick_9">
     <g id="line2d_25">
      <g>
       <use xlink:href="#mb1647314dd" x="489.829135" y="193.548894" style="stroke: #000000; stroke-width: 0.8"/>
      </g>
     </g>
     <g id="text_27">
      <!-- 5000 -->
      <g transform="translate(457.379135 197.348113) scale(0.1 -0.1)">
       <use xlink:href="#DejaVuSans-35"/>
       <use xlink:href="#DejaVuSans-30" transform="translate(63.623047 0)"/>
       <use xlink:href="#DejaVuSans-30" transform="translate(127.246094 0)"/>
       <use xlink:href="#DejaVuSans-30" transform="translate(190.869141 0)"/>
      </g>
     </g>
    </g>
    <g id="ytick_10">
     <g id="line2d_26">
      <g>
       <use xlink:href="#mb1647314dd" x="489.829135" y="141.24836" style="stroke: #000000; stroke-width: 0.8"/>
      </g>
     </g>
     <g id="text_28">
      <!-- 10000 -->
      <g transform="translate(451.016635 145.047579) scale(0.1 -0.1)">
       <use xlink:href="#DejaVuSans-31"/>
       <use xlink:href="#DejaVuSans-30" transform="translate(63.623047 0)"/>
       <use xlink:href="#DejaVuSans-30" transform="translate(127.246094 0)"/>
       <use xlink:href="#DejaVuSans-30" transform="translate(190.869141 0)"/>
       <use xlink:href="#DejaVuSans-30" transform="translate(254.492188 0)"/>
      </g>
     </g>
    </g>
    <g id="ytick_11">
     <g id="line2d_27">
      <g>
       <use xlink:href="#mb1647314dd" x="489.829135" y="88.947826" style="stroke: #000000; stroke-width: 0.8"/>
      </g>
     </g>
     <g id="text_29">
      <!-- 15000 -->
      <g transform="translate(451.016635 92.747045) scale(0.1 -0.1)">
       <use xlink:href="#DejaVuSans-31"/>
       <use xlink:href="#DejaVuSans-35" transform="translate(63.623047 0)"/>
       <use xlink:href="#DejaVuSans-30" transform="translate(127.246094 0)"/>
       <use xlink:href="#DejaVuSans-30" transform="translate(190.869141 0)"/>
       <use xlink:href="#DejaVuSans-30" transform="translate(254.492188 0)"/>
      </g>
     </g>
    </g>
    <g id="ytick_12">
     <g id="line2d_28">
      <g>
       <use xlink:href="#mb1647314dd" x="489.829135" y="36.647293" style="stroke: #000000; stroke-width: 0.8"/>
      </g>
     </g>
     <g id="text_30">
      <!-- 20000 -->
      <g transform="translate(451.016635 40.446511) scale(0.1 -0.1)">
       <use xlink:href="#DejaVuSans-32"/>
       <use xlink:href="#DejaVuSans-30" transform="translate(63.623047 0)"/>
       <use xlink:href="#DejaVuSans-30" transform="translate(127.246094 0)"/>
       <use xlink:href="#DejaVuSans-30" transform="translate(190.869141 0)"/>
       <use xlink:href="#DejaVuSans-30" transform="translate(254.492188 0)"/>
      </g>
     </g>
    </g>
    <g id="text_31">
     <!-- pulse:0 [counts] -->
     <g transform="translate(444.936947 172.659916) rotate(-90) scale(0.1 -0.1)">
      <use xlink:href="#DejaVuSans-70"/>
      <use xlink:href="#DejaVuSans-75" transform="translate(63.476562 0)"/>
      <use xlink:href="#DejaVuSans-6c" transform="translate(126.855469 0)"/>
      <use xlink:href="#DejaVuSans-73" transform="translate(154.638672 0)"/>
      <use xlink:href="#DejaVuSans-65" transform="translate(206.738281 0)"/>
      <use xlink:href="#DejaVuSans-3a" transform="translate(268.261719 0)"/>
      <use xlink:href="#DejaVuSans-30" transform="translate(301.953125 0)"/>
      <use xlink:href="#DejaVuSans-20" transform="translate(365.576172 0)"/>
      <use xlink:href="#DejaVuSans-5b" transform="translate(397.363281 0)"/>
      <use xlink:href="#DejaVuSans-63" transform="translate(436.376953 0)"/>
      <use xlink:href="#DejaVuSans-6f" transform="translate(491.357422 0)"/>
      <use xlink:href="#DejaVuSans-75" transform="translate(552.539062 0)"/>
      <use xlink:href="#DejaVuSans-6e" transform="translate(615.917969 0)"/>
      <use xlink:href="#DejaVuSans-74" transform="translate(679.296875 0)"/>
      <use xlink:href="#DejaVuSans-73" transform="translate(718.505859 0)"/>
      <use xlink:href="#DejaVuSans-5d" transform="translate(770.605469 0)"/>
     </g>
    </g>
   </g>
   <g id="line2d_29">
    <path d="M 506.891425 155.055701 
L 508.028911 155.055701 
L 508.028911 147.430283 
L 509.166397 147.430283 
L 509.166397 137.639623 
L 510.303883 137.639623 
L 510.303883 139.470142 
L 511.441369 139.470142 
L 511.441369 144.930318 
L 512.578855 144.930318 
L 512.578855 154.239813 
L 513.716341 154.239813 
L 513.716341 148.005589 
L 514.853827 148.005589 
L 514.853827 128.277828 
L 515.991313 128.277828 
L 515.991313 105.840899 
L 517.128799 105.840899 
L 517.128799 85.265869 
L 518.266285 85.265869 
L 518.266285 59.722288 
L 519.403771 59.722288 
L 519.403771 39.743484 
L 520.541257 39.743484 
L 520.541257 23.164215 
L 521.678743 23.164215 
L 521.678743 22.003143 
L 522.816229 22.003143 
L 522.816229 18.561768 
L 523.953715 18.561768 
L 523.953715 21.040813 
L 525.091201 21.040813 
L 525.091201 32.49463 
L 526.228687 32.49463 
L 526.228687 43.143019 
L 527.366173 43.143019 
L 527.366173 51.511104 
L 528.50366 51.511104 
L 528.50366 60.674158 
L 529.641146 60.674158 
L 529.641146 72.535919 
L 530.778632 72.535919 
L 530.778632 77.441709 
L 531.916118 77.441709 
L 531.916118 86.636143 
L 533.053604 86.636143 
L 533.053604 91.018927 
L 534.19109 91.018927 
L 534.19109 96.14438 
L 535.328576 96.14438 
L 535.328576 99.345172 
L 536.466062 99.345172 
L 536.466062 97.734316 
L 537.603548 97.734316 
L 537.603548 98.424683 
L 538.741034 98.424683 
L 538.741034 93.361991 
L 539.87852 93.361991 
L 539.87852 88.435281 
L 541.016006 88.435281 
L 541.016006 79.952134 
L 542.153492 79.952134 
L 542.153492 73.006624 
L 543.290978 73.006624 
L 543.290978 62.90216 
L 544.428464 62.90216 
L 544.428464 51.552945 
L 545.56595 51.552945 
L 545.56595 42.954737 
L 546.703436 42.954737 
L 546.703436 36.37533 
L 547.840922 36.37533 
L 547.840922 37.117997 
L 548.978408 37.117997 
L 548.978408 45.078139 
L 550.115894 45.078139 
L 550.115894 53.456684 
L 551.25338 53.456684 
L 551.25338 63.414706 
L 552.390866 63.414706 
L 552.390866 71.364387 
L 553.528352 71.364387 
L 553.528352 81.406089 
L 554.665838 81.406089 
L 554.665838 90.548223 
L 555.803324 90.548223 
L 555.803324 98.958148 
L 556.94081 98.958148 
L 556.94081 103.571056 
L 558.078296 103.571056 
L 558.078296 113.142053 
L 559.215782 113.142053 
L 559.215782 121.238176 
L 560.353268 121.238176 
L 560.353268 123.194216 
L 561.490754 123.194216 
L 561.490754 131.813344 
L 562.62824 131.813344 
L 562.62824 138.717014 
L 563.765726 138.717014 
L 563.765726 142.660474 
L 564.903212 142.660474 
L 564.903212 147.733626 
L 566.040698 147.733626 
L 566.040698 152.723097 
L 567.178184 152.723097 
L 567.178184 159.647688 
L 568.31567 159.647688 
L 568.31567 162.179034 
L 569.453156 162.179034 
L 569.453156 165.557648 
L 570.590642 165.557648 
L 570.590642 171.237486 
L 571.728128 171.237486 
L 571.728128 173.632851 
L 572.865614 173.632851 
L 572.865614 176.143276 
L 574.0031 176.143276 
L 574.0031 179.41729 
L 575.140586 179.41729 
L 575.140586 182.063697 
L 576.278072 182.063697 
L 576.278072 186.823045 
L 577.415558 186.823045 
L 577.415558 188.946447 
L 578.553044 188.946447 
L 578.553044 191.645154 
L 579.69053 191.645154 
L 579.69053 193.799936 
L 580.828016 193.799936 
L 580.828016 195.661835 
L 581.965502 195.661835 
L 581.965502 199.500695 
L 583.102988 199.500695 
L 583.102988 200.494405 
L 584.240474 200.494405 
L 584.240474 201.780998 
L 585.37796 201.780998 
L 585.37796 204.720288 
L 586.515446 204.720288 
L 586.515446 206.90645 
L 587.652932 206.90645 
L 587.652932 208.517307 
L 588.790418 208.517307 
L 588.790418 210.295525 
L 589.927904 210.295525 
L 589.927904 211.393836 
L 591.06539 211.393836 
L 591.06539 213.328956 
L 593.340362 213.412637 
L 593.340362 215.515118 
L 594.477848 215.515118 
L 594.477848 216.529748 
L 595.615334 216.529748 
L 595.615334 218.098764 
L 596.75282 218.098764 
L 596.75282 220.044344 
L 597.890306 220.044344 
L 597.890306 221.038054 
L 599.027792 221.038054 
L 599.027792 221.487839 
L 600.165278 221.487839 
L 600.165278 222.920874 
L 601.302764 222.920874 
L 601.302764 224.092406 
L 602.44025 224.092406 
L 602.44025 224.991975 
L 603.577737 224.991975 
L 603.577737 225.420839 
L 604.715223 225.420839 
L 604.715223 226.132126 
L 605.852709 226.132126 
L 605.852709 226.414549 
L 606.990195 226.414549 
L 606.990195 227.596541 
L 608.127681 227.596541 
L 608.127681 228.035866 
L 609.265167 228.035866 
L 609.265167 229.008656 
L 610.402653 229.008656 
L 610.402653 229.667642 
L 611.540139 229.667642 
L 611.540139 229.960525 
L 612.677625 229.960525 
L 612.677625 230.535831 
L 613.815111 230.535831 
L 613.815111 231.152978 
L 614.952597 231.152978 
L 614.952597 232.282669 
L 616.090083 232.282669 
L 616.090083 232.983496 
L 617.227569 232.983496 
L 617.227569 232.575552 
L 618.365055 232.575552 
L 618.365055 233.150858 
L 619.502541 233.150858 
L 619.502541 233.809845 
L 620.640027 233.809845 
L 620.640027 234.29101 
L 621.777513 234.29101 
L 621.777513 234.531592 
L 622.914999 234.531592 
L 622.914999 235.452081 
L 624.052485 235.452081 
L 624.052485 235.755425 
L 625.189971 235.755425 
L 625.189971 236.079688 
L 626.327457 236.079688 
L 626.327457 236.33073 
L 627.464943 236.33073 
L 627.464943 236.780515 
L 628.602429 236.780515 
L 628.602429 236.30981 
L 629.739915 236.30981 
L 629.739915 237.29306 
L 630.877401 237.29306 
L 630.877401 237.565023 
L 632.014887 237.565023 
L 632.014887 238.077568 
L 634.289859 238.004348 
L 634.289859 238.600574 
L 636.564831 238.663334 
L 636.564831 238.830696 
L 638.839803 238.914377 
L 638.839803 239.416462 
L 639.977289 239.416462 
L 639.977289 238.977137 
L 641.114775 238.977137 
L 641.114775 239.688425 
L 642.252261 239.688425 
L 642.252261 239.437382 
L 643.389747 239.437382 
L 643.389747 239.583824 
L 644.527233 239.583824 
L 644.527233 240.347411 
L 646.802205 240.420632 
L 646.802205 240.765816 
L 647.939691 240.765816 
L 647.939691 240.891337 
L 650.214663 240.954098 
L 650.214663 241.027318 
L 652.489635 240.943638 
L 652.489635 240.880877 
L 653.627121 240.880877 
L 653.627121 241.602624 
L 655.902093 241.560784 
L 655.902093 241.749066 
L 658.177065 241.675845 
L 658.177065 242.115169 
L 659.314551 242.115169 
L 659.314551 241.885047 
L 660.452037 241.885047 
L 660.452037 242.14655 
L 662.727009 242.14655 
L 662.727009 242.481273 
L 663.864495 242.481273 
L 663.864495 242.282531 
L 665.001981 242.282531 
L 665.001981 242.690475 
L 669.551925 242.648635 
L 669.551925 242.826457 
L 670.689411 242.826457 
L 670.689411 242.941518 
L 671.826897 242.941518 
L 671.826897 243.077499 
L 672.964383 243.077499 
L 672.964383 242.962438 
L 674.101869 242.962438 
L 674.101869 243.370382 
L 675.239355 243.370382 
L 675.239355 243.067039 
L 676.376841 243.067039 
L 676.376841 243.265781 
L 677.514327 243.265781 
L 677.514327 243.401763 
L 678.651814 243.401763 
L 678.651814 243.548204 
L 680.926786 243.579584 
L 680.926786 243.705106 
L 682.064272 243.705106 
L 682.064272 243.391302 
L 683.201758 243.391302 
L 683.201758 243.548204 
L 684.339244 243.548204 
L 684.339244 243.851547 
L 691.16416 243.882928 
L 691.16416 244.186271 
L 692.301646 244.186271 
L 692.301646 244.071209 
L 693.439132 244.071209 
L 693.439132 244.290872 
L 694.576618 244.290872 
L 694.576618 244.458233 
L 695.714104 244.458233 
L 695.714104 244.322252 
L 696.85159 244.322252 
L 696.85159 244.008449 
L 697.989076 244.008449 
L 697.989076 244.426853 
L 703.676506 244.374553 
L 703.676506 244.646515 
L 704.813992 244.646515 
L 704.813992 244.489614 
L 707.088964 244.426853 
L 707.088964 244.636055 
L 708.22645 244.636055 
L 708.22645 244.479154 
L 710.501422 244.500074 
L 710.501422 244.698816 
L 713.91388 244.667436 
L 713.91388 244.876638 
L 717.326338 244.845257 
L 717.326338 244.698816 
L 718.463824 244.698816 
L 718.463824 244.887098 
L 728.701198 244.908018 
L 728.701198 245.054459 
L 729.838684 245.054459 
L 729.838684 244.792957 
L 732.113656 244.887098 
L 732.113656 245.0963 
L 737.801086 245.1486 
L 737.801086 245.232281 
L 745.763488 245.169521 
L 745.763488 245.0963 
L 746.900974 245.0963 
L 746.900974 245.242741 
L 756.000863 245.347342 
L 756.000863 245.357803 
L 757.138349 245.357803 
L 757.138349 245.242741 
L 758.275835 245.242741 
L 758.275835 245.483324 
L 759.413321 245.483324 
L 759.413321 245.315962 
L 762.825779 245.368263 
L 762.825779 245.451944 
L 773.063153 245.472864 
L 773.063153 245.650686 
L 774.200639 245.650686 
L 774.200639 245.389183 
L 775.338125 245.389183 
L 775.338125 245.577465 
L 777.613097 245.493784 
L 777.613097 245.420563 
L 778.750583 245.420563 
L 778.750583 245.556545 
L 796.950359 245.546084 
L 796.950359 245.702986 
L 800.362817 245.682066 
L 800.362817 245.577465 
L 801.500303 245.577465 
L 801.500303 245.702986 
L 804.912761 245.702986 
L 804.912761 245.577465 
L 808.325219 245.650686 
L 808.325219 245.692526 
L 848.13723 245.734366 
L 848.13723 245.734366 
" clip-path="url(#p824521294c)" style="fill: none; stroke: #1f77b4; stroke-width: 1.5; stroke-linecap: square"/>
   </g>
   <g id="patch_8">
    <path d="M 489.829135 257.158895 
L 489.829135 7.2 
" style="fill: none; stroke: #000000; stroke-width: 0.8; stroke-linejoin: miter; stroke-linecap: square"/>
   </g>
   <g id="patch_9">
    <path d="M 865.19952 257.158895 
L 865.19952 7.2 
" style="fill: none; stroke: #000000; stroke-width: 0.8; stroke-linejoin: miter; stroke-linecap: square"/>
   </g>
   <g id="patch_10">
    <path d="M 489.829135 257.158895 
L 865.19952 257.158895 
" style="fill: none; stroke: #000000; stroke-width: 0.8; stroke-linejoin: miter; stroke-linecap: square"/>
   </g>
   <g id="patch_11">
    <path d="M 489.829135 7.2 
L 865.19952 7.2 
" style="fill: none; stroke: #000000; stroke-width: 0.8; stroke-linejoin: miter; stroke-linecap: square"/>
   </g>
  </g>
 </g>
 <defs>
  <clipPath id="p4b93abdaf6">
   <rect x="53.328125" y="7.2" width="375.370385" height="249.958895"/>
  </clipPath>
  <clipPath id="p824521294c">
   <rect x="489.829135" y="7.2" width="375.370385" height="249.958895"/>
  </clipPath>
 </defs>
</svg>
