<?xml version="1.0" encoding="utf-8" standalone="no"?>
<!DOCTYPE svg PUBLIC "-//W3C//DTD SVG 1.1//EN"
  "http://www.w3.org/Graphics/SVG/1.1/DTD/svg11.dtd">
<svg xmlns:xlink="http://www.w3.org/1999/xlink" width="872.39952pt" height="296.39952pt" viewBox="0 0 872.39952 296.39952" xmlns="http://www.w3.org/2000/svg" version="1.1">
 <metadata>
  <rdf:RDF xmlns:dc="http://purl.org/dc/elements/1.1/" xmlns:cc="http://creativecommons.org/ns#" xmlns:rdf="http://www.w3.org/1999/02/22-rdf-syntax-ns#">
   <cc:Work>
    <dc:type rdf:resource="http://purl.org/dc/dcmitype/StillImage"/>
    <dc:date>2026-06-24T08:33:35.997983</dc:date>
    <dc:format>image/svg+xml</dc:format>
    <dc:creator>
     <cc:Agent>
      <dc:title>Matplotlib v3.10.9, https://matplotlib.org/</dc:title>
     </cc:Agent>
    </dc:creator>
   </cc:Work>
  </rdf:RDF>
 </metadata>
 <defs>
  <style type="text/css">*{stroke-linejoin: round; stroke-linecap: butt}</style>
 </defs>
 <g id="figure_1">
  <g id="patch_1">
   <path d="M 0 296.39952 
L 872.39952 296.39952 
L 872.39952 0 
L 0 0 
z
" style="fill: #ffffff"/>
  </g>
  <g id="axes_1">
   <g id="patch_2">
    <path d="M 53.328125 257.158895 
L 411.41851 257.158895 
L 411.41851 10.988252 
L 53.328125 10.988252 
z
" style="fill: #ffffff"/>
   </g>
   <g id="matplotlib.axis_1">
    <g id="xtick_1">
     <g id="line2d_1">
      <defs>
       <path id="m3bf1d8f3c1" d="M 0 0 
L 0 3.5 
" style="stroke: #000000; stroke-width: 0.8"/>
      </defs>
      <g>
       <use xlink:href="#m3bf1d8f3c1" x="69.601368" y="257.158895" style="stroke: #000000; stroke-width: 0.8"/>
      </g>
     </g>
     <g id="text_1">
      <!-- 0 -->
      <g transform="translate(66.420118 271.757332) scale(0.1 -0.1)">
       <defs>
        <path id="DejaVuSans-30" d="M 2034 4250 
Q 1547 4250 1301 3770 
Q 1056 3291 1056 2328 
Q 1056 1369 1301 889 
Q 1547 409 2034 409 
Q 2525 409 2770 889 
Q 3016 1369 3016 2328 
Q 3016 3291 2770 3770 
Q 2525 4250 2034 4250 
z
M 2034 4750 
Q 2819 4750 3233 4129 
Q 3647 3509 3647 2328 
Q 3647 1150 3233 529 
Q 2819 -91 2034 -91 
Q 1250 -91 836 529 
Q 422 1150 422 2328 
Q 422 3509 836 4129 
Q 1250 4750 2034 4750 
z
" transform="scale(0.015625)"/>
       </defs>
       <use xlink:href="#DejaVuSans-30"/>
      </g>
     </g>
    </g>
    <g id="xtick_2">
     <g id="line2d_2">
      <g>
       <use xlink:href="#m3bf1d8f3c1" x="124.296361" y="257.158895" style="stroke: #000000; stroke-width: 0.8"/>
      </g>
     </g>
     <g id="text_2">
      <!-- 1000 -->
      <g transform="translate(111.571361 271.757332) scale(0.1 -0.1)">
       <defs>
        <path id="DejaVuSans-31" d="M 794 531 
L 1825 531 
L 1825 4091 
L 703 3866 
L 703 4441 
L 1819 4666 
L 2450 4666 
L 2450 531 
L 3481 531 
L 3481 0 
L 794 0 
L 794 531 
z
" transform="scale(0.015625)"/>
       </defs>
       <use xlink:href="#DejaVuSans-31"/>
       <use xlink:href="#DejaVuSans-30" transform="translate(63.623047 0)"/>
       <use xlink:href="#DejaVuSans-30" transform="translate(127.246094 0)"/>
       <use xlink:href="#DejaVuSans-30" transform="translate(190.869141 0)"/>
      </g>
     </g>
    </g>
    <g id="xtick_3">
     <g id="line2d_3">
      <g>
       <use xlink:href="#m3bf1d8f3c1" x="178.991354" y="257.158895" style="stroke: #000000; stroke-width: 0.8"/>
      </g>
     </g>
     <g id="text_3">
      <!-- 2000 -->
      <g transform="translate(166.266354 271.757332) scale(0.1 -0.1)">
       <defs>
        <path id="DejaVuSans-32" d="M 1228 531 
L 3431 531 
L 3431 0 
L 469 0 
L 469 531 
Q 828 903 1448 1529 
Q 2069 2156 2228 2338 
Q 2531 2678 2651 2914 
Q 2772 3150 2772 3378 
Q 2772 3750 2511 3984 
Q 2250 4219 1831 4219 
Q 1534 4219 1204 4116 
Q 875 4013 500 3803 
L 500 4441 
Q 881 4594 1212 4672 
Q 1544 4750 1819 4750 
Q 2544 4750 2975 4387 
Q 3406 4025 3406 3419 
Q 3406 3131 3298 2873 
Q 3191 2616 2906 2266 
Q 2828 2175 2409 1742 
Q 1991 1309 1228 531 
z
" transform="scale(0.015625)"/>
       </defs>
       <use xlink:href="#DejaVuSans-32"/>
       <use xlink:href="#DejaVuSans-30" transform="translate(63.623047 0)"/>
       <use xlink:href="#DejaVuSans-30" transform="translate(127.246094 0)"/>
       <use xlink:href="#DejaVuSans-30" transform="translate(190.869141 0)"/>
      </g>
     </g>
    </g>
    <g id="xtick_4">
     <g id="line2d_4">
      <g>
       <use xlink:href="#m3bf1d8f3c1" x="233.686347" y="257.158895" style="stroke: #000000; stroke-width: 0.8"/>
      </g>
     </g>
     <g id="text_4">
      <!-- 3000 -->
      <g transform="translate(220.961347 271.757332) scale(0.1 -0.1)">
       <defs>
        <path id="DejaVuSans-33" d="M 2597 2516 
Q 3050 2419 3304 2112 
Q 3559 1806 3559 1356 
Q 3559 666 3084 287 
Q 2609 -91 1734 -91 
Q 1441 -91 1130 -33 
Q 819 25 488 141 
L 488 750 
Q 750 597 1062 519 
Q 1375 441 1716 441 
Q 2309 441 2620 675 
Q 2931 909 2931 1356 
Q 2931 1769 2642 2001 
Q 2353 2234 1838 2234 
L 1294 2234 
L 1294 2753 
L 1863 2753 
Q 2328 2753 2575 2939 
Q 2822 3125 2822 3475 
Q 2822 3834 2567 4026 
Q 2313 4219 1838 4219 
Q 1578 4219 1281 4162 
Q 984 4106 628 3988 
L 628 4550 
Q 988 4650 1302 4700 
Q 1616 4750 1894 4750 
Q 2613 4750 3031 4423 
Q 3450 4097 3450 3541 
Q 3450 3153 3228 2886 
Q 3006 2619 2597 2516 
z
" transform="scale(0.015625)"/>
       </defs>
       <use xlink:href="#DejaVuSans-33"/>
       <use xlink:href="#DejaVuSans-30" transform="translate(63.623047 0)"/>
       <use xlink:href="#DejaVuSans-30" transform="translate(127.246094 0)"/>
       <use xlink:href="#DejaVuSans-30" transform="translate(190.869141 0)"/>
      </g>
     </g>
    </g>
    <g id="xtick_5">
     <g id="line2d_5">
      <g>
       <use xlink:href="#m3bf1d8f3c1" x="288.38134" y="257.158895" style="stroke: #000000; stroke-width: 0.8"/>
      </g>
     </g>
     <g id="text_5">
      <!-- 4000 -->
      <g transform="translate(275.65634 271.757332) scale(0.1 -0.1)">
       <defs>
        <path id="DejaVuSans-34" d="M 2419 4116 
L 825 1625 
L 2419 1625 
L 2419 4116 
z
M 2253 4666 
L 3047 4666 
L 3047 1625 
L 3713 1625 
L 3713 1100 
L 3047 1100 
L 3047 0 
L 2419 0 
L 2419 1100 
L 313 1100 
L 313 1709 
L 2253 4666 
z
" transform="scale(0.015625)"/>
       </defs>
       <use xlink:href="#DejaVuSans-34"/>
       <use xlink:href="#DejaVuSans-30" transform="translate(63.623047 0)"/>
       <use xlink:href="#DejaVuSans-30" transform="translate(127.246094 0)"/>
       <use xlink:href="#DejaVuSans-30" transform="translate(190.869141 0)"/>
      </g>
     </g>
    </g>
    <g id="xtick_6">
     <g id="line2d_6">
      <g>
       <use xlink:href="#m3bf1d8f3c1" x="343.076333" y="257.158895" style="stroke: #000000; stroke-width: 0.8"/>
      </g>
     </g>
     <g id="text_6">
      <!-- 5000 -->
      <g transform="translate(330.351333 271.757332) scale(0.1 -0.1)">
       <defs>
        <path id="DejaVuSans-35" d="M 691 4666 
L 3169 4666 
L 3169 4134 
L 1269 4134 
L 1269 2991 
Q 1406 3038 1543 3061 
Q 1681 3084 1819 3084 
Q 2600 3084 3056 2656 
Q 3513 2228 3513 1497 
Q 3513 744 3044 326 
Q 2575 -91 1722 -91 
Q 1428 -91 1123 -41 
Q 819 9 494 109 
L 494 744 
Q 775 591 1075 516 
Q 1375 441 1709 441 
Q 2250 441 2565 725 
Q 2881 1009 2881 1497 
Q 2881 1984 2565 2268 
Q 2250 2553 1709 2553 
Q 1456 2553 1204 2497 
Q 953 2441 691 2322 
L 691 4666 
z
" transform="scale(0.015625)"/>
       </defs>
       <use xlink:href="#DejaVuSans-35"/>
       <use xlink:href="#DejaVuSans-30" transform="translate(63.623047 0)"/>
       <use xlink:href="#DejaVuSans-30" transform="translate(127.246094 0)"/>
       <use xlink:href="#DejaVuSans-30" transform="translate(190.869141 0)"/>
      </g>
     </g>
    </g>
    <g id="xtick_7">
     <g id="line2d_7">
      <g>
       <use xlink:href="#m3bf1d8f3c1" x="397.771325" y="257.158895" style="stroke: #000000; stroke-width: 0.8"/>
      </g>
     </g>
     <g id="text_7">
      <!-- 6000 -->
      <g transform="translate(385.046325 271.757332) scale(0.1 -0.1)">
       <defs>
        <path id="DejaVuSans-36" d="M 2113 2584 
Q 1688 2584 1439 2293 
Q 1191 2003 1191 1497 
Q 1191 994 1439 701 
Q 1688 409 2113 409 
Q 2538 409 2786 701 
Q 3034 994 3034 1497 
Q 3034 2003 2786 2293 
Q 2538 2584 2113 2584 
z
M 3366 4563 
L 3366 3988 
Q 3128 4100 2886 4159 
Q 2644 4219 2406 4219 
Q 1781 4219 1451 3797 
Q 1122 3375 1075 2522 
Q 1259 2794 1537 2939 
Q 1816 3084 2150 3084 
Q 2853 3084 3261 2657 
Q 3669 2231 3669 1497 
Q 3669 778 3244 343 
Q 2819 -91 2113 -91 
Q 1303 -91 875 529 
Q 447 1150 447 2328 
Q 447 3434 972 4092 
Q 1497 4750 2381 4750 
Q 2619 4750 2861 4703 
Q 3103 4656 3366 4563 
z
" transform="scale(0.015625)"/>
       </defs>
       <use xlink:href="#DejaVuSans-36"/>
       <use xlink:href="#DejaVuSans-30" transform="translate(63.623047 0)"/>
       <use xlink:href="#DejaVuSans-30" transform="translate(127.246094 0)"/>
       <use xlink:href="#DejaVuSans-30" transform="translate(190.869141 0)"/>
      </g>
     </g>
    </g>
    <g id="text_8">
     <!-- birth_time [µs] -->
     <g transform="translate(195.553005 285.435457) scale(0.1 -0.1)">
      <defs>
       <path id="DejaVuSans-62" d="M 3116 1747 
Q 3116 2381 2855 2742 
Q 2594 3103 2138 3103 
Q 1681 3103 1420 2742 
Q 1159 2381 1159 1747 
Q 1159 1113 1420 752 
Q 1681 391 2138 391 
Q 2594 391 2855 752 
Q 3116 1113 3116 1747 
z
M 1159 2969 
Q 1341 3281 1617 3432 
Q 1894 3584 2278 3584 
Q 2916 3584 3314 3078 
Q 3713 2572 3713 1747 
Q 3713 922 3314 415 
Q 2916 -91 2278 -91 
Q 1894 -91 1617 61 
Q 1341 213 1159 525 
L 1159 0 
L 581 0 
L 581 4863 
L 1159 4863 
L 1159 2969 
z
" transform="scale(0.015625)"/>
       <path id="DejaVuSans-69" d="M 603 3500 
L 1178 3500 
L 1178 0 
L 603 0 
L 603 3500 
z
M 603 4863 
L 1178 4863 
L 1178 4134 
L 603 4134 
L 603 4863 
z
" transform="scale(0.015625)"/>
       <path id="DejaVuSans-72" d="M 2631 2963 
Q 2534 3019 2420 3045 
Q 2306 3072 2169 3072 
Q 1681 3072 1420 2755 
Q 1159 2438 1159 1844 
L 1159 0 
L 581 0 
L 581 3500 
L 1159 3500 
L 1159 2956 
Q 1341 3275 1631 3429 
Q 1922 3584 2338 3584 
Q 2397 3584 2469 3576 
Q 2541 3569 2628 3553 
L 2631 2963 
z
" transform="scale(0.015625)"/>
       <path id="DejaVuSans-74" d="M 1172 4494 
L 1172 3500 
L 2356 3500 
L 2356 3053 
L 1172 3053 
L 1172 1153 
Q 1172 725 1289 603 
Q 1406 481 1766 481 
L 2356 481 
L 2356 0 
L 1766 0 
Q 1100 0 847 248 
Q 594 497 594 1153 
L 594 3053 
L 172 3053 
L 172 3500 
L 594 3500 
L 594 4494 
L 1172 4494 
z
" transform="scale(0.015625)"/>
       <path id="DejaVuSans-68" d="M 3513 2113 
L 3513 0 
L 2938 0 
L 2938 2094 
Q 2938 2591 2744 2837 
Q 2550 3084 2163 3084 
Q 1697 3084 1428 2787 
Q 1159 2491 1159 1978 
L 1159 0 
L 581 0 
L 581 4863 
L 1159 4863 
L 1159 2956 
Q 1366 3272 1645 3428 
Q 1925 3584 2291 3584 
Q 2894 3584 3203 3211 
Q 3513 2838 3513 2113 
z
" transform="scale(0.015625)"/>
       <path id="DejaVuSans-5f" d="M 3263 -1063 
L 3263 -1509 
L -63 -1509 
L -63 -1063 
L 3263 -1063 
z
" transform="scale(0.015625)"/>
       <path id="DejaVuSans-6d" d="M 3328 2828 
Q 3544 3216 3844 3400 
Q 4144 3584 4550 3584 
Q 5097 3584 5394 3201 
Q 5691 2819 5691 2113 
L 5691 0 
L 5113 0 
L 5113 2094 
Q 5113 2597 4934 2840 
Q 4756 3084 4391 3084 
Q 3944 3084 3684 2787 
Q 3425 2491 3425 1978 
L 3425 0 
L 2847 0 
L 2847 2094 
Q 2847 2600 2669 2842 
Q 2491 3084 2119 3084 
Q 1678 3084 1418 2786 
Q 1159 2488 1159 1978 
L 1159 0 
L 581 0 
L 581 3500 
L 1159 3500 
L 1159 2956 
Q 1356 3278 1631 3431 
Q 1906 3584 2284 3584 
Q 2666 3584 2933 3390 
Q 3200 3197 3328 2828 
z
" transform="scale(0.015625)"/>
       <path id="DejaVuSans-65" d="M 3597 1894 
L 3597 1613 
L 953 1613 
Q 991 1019 1311 708 
Q 1631 397 2203 397 
Q 2534 397 2845 478 
Q 3156 559 3463 722 
L 3463 178 
Q 3153 47 2828 -22 
Q 2503 -91 2169 -91 
Q 1331 -91 842 396 
Q 353 884 353 1716 
Q 353 2575 817 3079 
Q 1281 3584 2069 3584 
Q 2775 3584 3186 3129 
Q 3597 2675 3597 1894 
z
M 3022 2063 
Q 3016 2534 2758 2815 
Q 2500 3097 2075 3097 
Q 1594 3097 1305 2825 
Q 1016 2553 972 2059 
L 3022 2063 
z
" transform="scale(0.015625)"/>
       <path id="DejaVuSans-20" transform="scale(0.015625)"/>
       <path id="DejaVuSans-5b" d="M 550 4863 
L 1875 4863 
L 1875 4416 
L 1125 4416 
L 1125 -397 
L 1875 -397 
L 1875 -844 
L 550 -844 
L 550 4863 
z
" transform="scale(0.015625)"/>
       <path id="DejaVuSans-b5" d="M 544 -1331 
L 544 3500 
L 1119 3500 
L 1119 1325 
Q 1119 872 1334 640 
Q 1550 409 1972 409 
Q 2434 409 2667 671 
Q 2900 934 2900 1459 
L 2900 3500 
L 3475 3500 
L 3475 806 
Q 3475 619 3529 530 
Q 3584 441 3700 441 
Q 3728 441 3778 458 
Q 3828 475 3916 513 
L 3916 50 
Q 3788 -22 3673 -56 
Q 3559 -91 3450 -91 
Q 3234 -91 3106 31 
Q 2978 153 2931 403 
Q 2775 156 2548 32 
Q 2322 -91 2016 -91 
Q 1697 -91 1473 31 
Q 1250 153 1119 397 
L 1119 -1331 
L 544 -1331 
z
" transform="scale(0.015625)"/>
       <path id="DejaVuSans-73" d="M 2834 3397 
L 2834 2853 
Q 2591 2978 2328 3040 
Q 2066 3103 1784 3103 
Q 1356 3103 1142 2972 
Q 928 2841 928 2578 
Q 928 2378 1081 2264 
Q 1234 2150 1697 2047 
L 1894 2003 
Q 2506 1872 2764 1633 
Q 3022 1394 3022 966 
Q 3022 478 2636 193 
Q 2250 -91 1575 -91 
Q 1294 -91 989 -36 
Q 684 19 347 128 
L 347 722 
Q 666 556 975 473 
Q 1284 391 1588 391 
Q 1994 391 2212 530 
Q 2431 669 2431 922 
Q 2431 1156 2273 1281 
Q 2116 1406 1581 1522 
L 1381 1569 
Q 847 1681 609 1914 
Q 372 2147 372 2553 
Q 372 3047 722 3315 
Q 1072 3584 1716 3584 
Q 2034 3584 2315 3537 
Q 2597 3491 2834 3397 
z
" transform="scale(0.015625)"/>
       <path id="DejaVuSans-5d" d="M 1947 4863 
L 1947 -844 
L 622 -844 
L 622 -397 
L 1369 -397 
L 1369 4416 
L 622 4416 
L 622 4863 
L 1947 4863 
z
" transform="scale(0.015625)"/>
      </defs>
      <use xlink:href="#DejaVuSans-62"/>
      <use xlink:href="#DejaVuSans-69" transform="translate(63.476562 0)"/>
      <use xlink:href="#DejaVuSans-72" transform="translate(91.259766 0)"/>
      <use xlink:href="#DejaVuSans-74" transform="translate(132.373047 0)"/>
      <use xlink:href="#DejaVuSans-68" transform="translate(171.582031 0)"/>
      <use xlink:href="#DejaVuSans-5f" transform="translate(234.960938 0)"/>
      <use xlink:href="#DejaVuSans-74" transform="translate(284.960938 0)"/>
      <use xlink:href="#DejaVuSans-69" transform="translate(324.169922 0)"/>
      <use xlink:href="#DejaVuSans-6d" transform="translate(351.953125 0)"/>
      <use xlink:href="#DejaVuSans-65" transform="translate(449.365234 0)"/>
      <use xlink:href="#DejaVuSans-20" transform="translate(510.888672 0)"/>
      <use xlink:href="#DejaVuSans-5b" transform="translate(542.675781 0)"/>
      <use xlink:href="#DejaVuSans-b5" transform="translate(581.689453 0)"/>
      <use xlink:href="#DejaVuSans-73" transform="translate(645.3125 0)"/>
      <use xlink:href="#DejaVuSans-5d" transform="translate(697.412109 0)"/>
     </g>
    </g>
   </g>
   <g id="matplotlib.axis_2">
    <g id="ytick_1">
     <g id="line2d_8">
      <defs>
       <path id="m11958519e9" d="M 0 0 
L -3.5 0 
" style="stroke: #000000; stroke-width: 0.8"/>
      </defs>
      <g>
       <use xlink:href="#m11958519e9" x="53.328125" y="245.96932" style="stroke: #000000; stroke-width: 0.8"/>
      </g>
     </g>
     <g id="text_9">
      <!-- 0 -->
      <g transform="translate(39.965625 249.768539) scale(0.1 -0.1)">
       <use xlink:href="#DejaVuSans-30"/>
      </g>
     </g>
    </g>
    <g id="ytick_2">
     <g id="line2d_9">
      <g>
       <use xlink:href="#m11958519e9" x="53.328125" y="214.674188" style="stroke: #000000; stroke-width: 0.8"/>
      </g>
     </g>
     <g id="text_10">
      <!-- 1000 -->
      <g transform="translate(20.878125 218.473406) scale(0.1 -0.1)">
       <use xlink:href="#DejaVuSans-31"/>
       <use xlink:href="#DejaVuSans-30" transform="translate(63.623047 0)"/>
       <use xlink:href="#DejaVuSans-30" transform="translate(127.246094 0)"/>
       <use xlink:href="#DejaVuSans-30" transform="translate(190.869141 0)"/>
      </g>
     </g>
    </g>
    <g id="ytick_3">
     <g id="line2d_10">
      <g>
       <use xlink:href="#m11958519e9" x="53.328125" y="183.379055" style="stroke: #000000; stroke-width: 0.8"/>
      </g>
     </g>
     <g id="text_11">
      <!-- 2000 -->
      <g transform="translate(20.878125 187.178274) scale(0.1 -0.1)">
       <use xlink:href="#DejaVuSans-32"/>
       <use xlink:href="#DejaVuSans-30" transform="translate(63.623047 0)"/>
       <use xlink:href="#DejaVuSans-30" transform="translate(127.246094 0)"/>
       <use xlink:href="#DejaVuSans-30" transform="translate(190.869141 0)"/>
      </g>
     </g>
    </g>
    <g id="ytick_4">
     <g id="line2d_11">
      <g>
       <use xlink:href="#m11958519e9" x="53.328125" y="152.083922" style="stroke: #000000; stroke-width: 0.8"/>
      </g>
     </g>
     <g id="text_12">
      <!-- 3000 -->
      <g transform="translate(20.878125 155.883141) scale(0.1 -0.1)">
       <use xlink:href="#DejaVuSans-33"/>
       <use xlink:href="#DejaVuSans-30" transform="translate(63.623047 0)"/>
       <use xlink:href="#DejaVuSans-30" transform="translate(127.246094 0)"/>
       <use xlink:href="#DejaVuSans-30" transform="translate(190.869141 0)"/>
      </g>
     </g>
    </g>
    <g id="ytick_5">
     <g id="line2d_12">
      <g>
       <use xlink:href="#m11958519e9" x="53.328125" y="120.788789" style="stroke: #000000; stroke-width: 0.8"/>
      </g>
     </g>
     <g id="text_13">
      <!-- 4000 -->
      <g transform="translate(20.878125 124.588008) scale(0.1 -0.1)">
       <use xlink:href="#DejaVuSans-34"/>
       <use xlink:href="#DejaVuSans-30" transform="translate(63.623047 0)"/>
       <use xlink:href="#DejaVuSans-30" transform="translate(127.246094 0)"/>
       <use xlink:href="#DejaVuSans-30" transform="translate(190.869141 0)"/>
      </g>
     </g>
    </g>
    <g id="ytick_6">
     <g id="line2d_13">
      <g>
       <use xlink:href="#m11958519e9" x="53.328125" y="89.493657" style="stroke: #000000; stroke-width: 0.8"/>
      </g>
     </g>
     <g id="text_14">
      <!-- 5000 -->
      <g transform="translate(20.878125 93.292876) scale(0.1 -0.1)">
       <use xlink:href="#DejaVuSans-35"/>
       <use xlink:href="#DejaVuSans-30" transform="translate(63.623047 0)"/>
       <use xlink:href="#DejaVuSans-30" transform="translate(127.246094 0)"/>
       <use xlink:href="#DejaVuSans-30" transform="translate(190.869141 0)"/>
      </g>
     </g>
    </g>
    <g id="ytick_7">
     <g id="line2d_14">
      <g>
       <use xlink:href="#m11958519e9" x="53.328125" y="58.198524" style="stroke: #000000; stroke-width: 0.8"/>
      </g>
     </g>
     <g id="text_15">
      <!-- 6000 -->
      <g transform="translate(20.878125 61.997743) scale(0.1 -0.1)">
       <use xlink:href="#DejaVuSans-36"/>
       <use xlink:href="#DejaVuSans-30" transform="translate(63.623047 0)"/>
       <use xlink:href="#DejaVuSans-30" transform="translate(127.246094 0)"/>
       <use xlink:href="#DejaVuSans-30" transform="translate(190.869141 0)"/>
      </g>
     </g>
    </g>
    <g id="ytick_8">
     <g id="line2d_15">
      <g>
       <use xlink:href="#m11958519e9" x="53.328125" y="26.903391" style="stroke: #000000; stroke-width: 0.8"/>
      </g>
     </g>
     <g id="text_16">
      <!-- 7000 -->
      <g transform="translate(20.878125 30.70261) scale(0.1 -0.1)">
       <defs>
        <path id="DejaVuSans-37" d="M 525 4666 
L 3525 4666 
L 3525 4397 
L 1831 0 
L 1172 0 
L 2766 4134 
L 525 4134 
L 525 4666 
z
" transform="scale(0.015625)"/>
       </defs>
       <use xlink:href="#DejaVuSans-37"/>
       <use xlink:href="#DejaVuSans-30" transform="translate(63.623047 0)"/>
       <use xlink:href="#DejaVuSans-30" transform="translate(127.246094 0)"/>
       <use xlink:href="#DejaVuSans-30" transform="translate(190.869141 0)"/>
      </g>
     </g>
    </g>
    <g id="text_17">
     <!-- pulse:0 [counts] -->
     <g transform="translate(14.798438 174.554042) rotate(-90) scale(0.1 -0.1)">
      <defs>
       <path id="DejaVuSans-70" d="M 1159 525 
L 1159 -1331 
L 581 -1331 
L 581 3500 
L 1159 3500 
L 1159 2969 
Q 1341 3281 1617 3432 
Q 1894 3584 2278 3584 
Q 2916 3584 3314 3078 
Q 3713 2572 3713 1747 
Q 3713 922 3314 415 
Q 2916 -91 2278 -91 
Q 1894 -91 1617 61 
Q 1341 213 1159 525 
z
M 3116 1747 
Q 3116 2381 2855 2742 
Q 2594 3103 2138 3103 
Q 1681 3103 1420 2742 
Q 1159 2381 1159 1747 
Q 1159 1113 1420 752 
Q 1681 391 2138 391 
Q 2594 391 2855 752 
Q 3116 1113 3116 1747 
z
" transform="scale(0.015625)"/>
       <path id="DejaVuSans-75" d="M 544 1381 
L 544 3500 
L 1119 3500 
L 1119 1403 
Q 1119 906 1312 657 
Q 1506 409 1894 409 
Q 2359 409 2629 706 
Q 2900 1003 2900 1516 
L 2900 3500 
L 3475 3500 
L 3475 0 
L 2900 0 
L 2900 538 
Q 2691 219 2414 64 
Q 2138 -91 1772 -91 
Q 1169 -91 856 284 
Q 544 659 544 1381 
z
M 1991 3584 
L 1991 3584 
z
" transform="scale(0.015625)"/>
       <path id="DejaVuSans-6c" d="M 603 4863 
L 1178 4863 
L 1178 0 
L 603 0 
L 603 4863 
z
" transform="scale(0.015625)"/>
       <path id="DejaVuSans-3a" d="M 750 794 
L 1409 794 
L 1409 0 
L 750 0 
L 750 794 
z
M 750 3309 
L 1409 3309 
L 1409 2516 
L 750 2516 
L 750 3309 
z
" transform="scale(0.015625)"/>
       <path id="DejaVuSans-63" d="M 3122 3366 
L 3122 2828 
Q 2878 2963 2633 3030 
Q 2388 3097 2138 3097 
Q 1578 3097 1268 2742 
Q 959 2388 959 1747 
Q 959 1106 1268 751 
Q 1578 397 2138 397 
Q 2388 397 2633 464 
Q 2878 531 3122 666 
L 3122 134 
Q 2881 22 2623 -34 
Q 2366 -91 2075 -91 
Q 1284 -91 818 406 
Q 353 903 353 1747 
Q 353 2603 823 3093 
Q 1294 3584 2113 3584 
Q 2378 3584 2631 3529 
Q 2884 3475 3122 3366 
z
" transform="scale(0.015625)"/>
       <path id="DejaVuSans-6f" d="M 1959 3097 
Q 1497 3097 1228 2736 
Q 959 2375 959 1747 
Q 959 1119 1226 758 
Q 1494 397 1959 397 
Q 2419 397 2687 759 
Q 2956 1122 2956 1747 
Q 2956 2369 2687 2733 
Q 2419 3097 1959 3097 
z
M 1959 3584 
Q 2709 3584 3137 3096 
Q 3566 2609 3566 1747 
Q 3566 888 3137 398 
Q 2709 -91 1959 -91 
Q 1206 -91 779 398 
Q 353 888 353 1747 
Q 353 2609 779 3096 
Q 1206 3584 1959 3584 
z
" transform="scale(0.015625)"/>
       <path id="DejaVuSans-6e" d="M 3513 2113 
L 3513 0 
L 2938 0 
L 2938 2094 
Q 2938 2591 2744 2837 
Q 2550 3084 2163 3084 
Q 1697 3084 1428 2787 
Q 1159 2491 1159 1978 
L 1159 0 
L 581 0 
L 581 3500 
L 1159 3500 
L 1159 2956 
Q 1366 3272 1645 3428 
Q 1925 3584 2291 3584 
Q 2894 3584 3203 3211 
Q 3513 2838 3513 2113 
z
" transform="scale(0.015625)"/>
      </defs>
      <use xlink:href="#DejaVuSans-70"/>
      <use xlink:href="#DejaVuSans-75" transform="translate(63.476562 0)"/>
      <use xlink:href="#DejaVuSans-6c" transform="translate(126.855469 0)"/>
      <use xlink:href="#DejaVuSans-73" transform="translate(154.638672 0)"/>
      <use xlink:href="#DejaVuSans-65" transform="translate(206.738281 0)"/>
      <use xlink:href="#DejaVuSans-3a" transform="translate(268.261719 0)"/>
      <use xlink:href="#DejaVuSans-30" transform="translate(301.953125 0)"/>
      <use xlink:href="#DejaVuSans-20" transform="translate(365.576172 0)"/>
      <use xlink:href="#DejaVuSans-5b" transform="translate(397.363281 0)"/>
      <use xlink:href="#DejaVuSans-63" transform="translate(436.376953 0)"/>
      <use xlink:href="#DejaVuSans-6f" transform="translate(491.357422 0)"/>
      <use xlink:href="#DejaVuSans-75" transform="translate(552.539062 0)"/>
      <use xlink:href="#DejaVuSans-6e" transform="translate(615.917969 0)"/>
      <use xlink:href="#DejaVuSans-74" transform="translate(679.296875 0)"/>
      <use xlink:href="#DejaVuSans-73" transform="translate(718.505859 0)"/>
      <use xlink:href="#DejaVuSans-5d" transform="translate(770.605469 0)"/>
     </g>
    </g>
   </g>
   <g id="line2d_16">
    <path d="M 69.604961 227.160946 
L 70.690083 227.160946 
L 70.690083 218.398308 
L 71.775205 218.398308 
L 71.775205 208.821998 
L 72.860328 208.821998 
L 72.860328 196.39783 
L 73.94545 196.39783 
L 73.94545 187.822964 
L 75.030573 187.822964 
L 75.030573 179.717524 
L 76.115695 179.717524 
L 76.115695 166.82393 
L 77.200817 166.82393 
L 77.200817 157.529275 
L 78.28594 157.529275 
L 78.28594 147.859079 
L 79.371062 147.859079 
L 79.371062 142.601497 
L 80.456184 142.601497 
L 80.456184 132.993891 
L 81.541307 132.993891 
L 81.541307 125.389174 
L 82.626429 125.389174 
L 82.626429 121.821529 
L 83.711552 121.821529 
L 83.711552 116.313585 
L 84.796674 116.313585 
L 84.796674 111.775791 
L 85.881796 111.775791 
L 85.881796 103.138335 
L 86.966919 103.138335 
L 86.966919 101.072856 
L 88.052041 101.072856 
L 88.052041 93.217778 
L 90.222286 93.311663 
L 90.222286 86.520619 
L 91.307408 86.520619 
L 91.307408 80.511954 
L 92.392531 80.511954 
L 92.392531 80.699724 
L 93.477653 80.699724 
L 93.477653 76.16193 
L 94.562775 76.16193 
L 94.562775 73.72091 
L 95.647898 73.72091 
L 95.647898 68.619803 
L 96.73302 68.619803 
L 96.73302 70.653987 
L 97.818143 70.653987 
L 97.818143 62.047825 
L 98.903265 62.047825 
L 98.903265 60.013642 
L 99.988387 60.013642 
L 99.988387 62.392072 
L 101.07351 62.392072 
L 101.07351 56.978014 
L 102.158632 56.978014 
L 102.158632 61.734874 
L 103.243754 61.734874 
L 103.243754 50.437331 
L 104.328877 50.437331 
L 104.328877 53.848501 
L 105.413999 53.848501 
L 105.413999 53.504254 
L 106.499122 53.504254 
L 106.499122 48.684804 
L 107.584244 48.684804 
L 107.584244 51.751727 
L 108.669366 51.751727 
L 108.669366 46.212488 
L 109.754489 46.212488 
L 109.754489 53.003532 
L 110.839611 53.003532 
L 110.839611 49.529772 
L 111.924733 49.529772 
L 111.924733 45.899537 
L 113.009856 45.899537 
L 113.009856 43.145565 
L 114.094978 43.145565 
L 114.094978 40.923611 
L 115.180101 40.923611 
L 115.180101 45.179749 
L 116.265223 45.179749 
L 116.265223 39.734396 
L 117.350345 39.734396 
L 117.350345 42.613548 
L 118.435468 42.613548 
L 118.435468 40.172528 
L 119.52059 40.172528 
L 119.52059 37.07431 
L 120.605712 37.07431 
L 120.605712 31.40989 
L 121.690835 31.40989 
L 121.690835 33.882206 
L 122.775957 33.882206 
L 122.775957 36.949129 
L 123.86108 36.949129 
L 123.86108 39.014608 
L 124.946202 39.014608 
L 124.946202 35.572143 
L 126.031324 35.572143 
L 126.031324 30.596217 
L 127.116447 30.596217 
L 127.116447 33.099828 
L 128.201569 33.099828 
L 128.201569 32.067088 
L 129.286692 32.067088 
L 129.286692 32.50522 
L 130.371814 32.50522 
L 130.371814 34.195157 
L 131.456936 34.195157 
L 131.456936 35.603438 
L 132.542059 35.603438 
L 132.542059 37.606327 
L 133.627181 37.606327 
L 133.627181 32.50522 
L 135.797426 32.50522 
L 135.797426 31.159529 
L 136.882548 31.159529 
L 136.882548 33.757025 
L 137.967671 33.757025 
L 137.967671 28.937575 
L 139.052793 28.937575 
L 139.052793 30.220675 
L 140.137915 30.220675 
L 140.137915 30.752693 
L 141.223038 30.752693 
L 141.223038 33.162418 
L 142.30816 33.162418 
L 142.30816 30.251971 
L 143.393282 30.251971 
L 143.393282 31.566366 
L 144.478405 31.566366 
L 144.478405 34.038682 
L 145.563527 34.038682 
L 145.563527 29.719953 
L 146.64865 29.719953 
L 146.64865 27.372818 
L 147.733772 27.372818 
L 147.733772 31.941908 
L 148.818894 31.941908 
L 148.818894 30.408446 
L 149.904017 30.408446 
L 149.904017 31.28471 
L 150.989139 31.28471 
L 150.989139 30.251971 
L 152.074261 30.251971 
L 152.074261 29.469592 
L 153.159384 29.469592 
L 153.159384 26.621735 
L 154.244506 26.621735 
L 154.244506 29.313117 
L 155.329629 29.313117 
L 155.329629 30.345856 
L 156.414751 30.345856 
L 156.414751 31.503776 
L 157.499873 31.503776 
L 157.499873 24.963093 
L 158.584996 24.963093 
L 158.584996 30.690102 
L 159.670118 30.690102 
L 159.670118 30.095495 
L 160.75524 30.095495 
L 160.75524 29.313117 
L 161.840363 29.313117 
L 161.840363 24.399781 
L 162.925485 24.399781 
L 162.925485 30.502332 
L 164.010608 30.502332 
L 164.010608 30.783988 
L 165.09573 30.783988 
L 165.09573 30.251971 
L 166.180852 30.251971 
L 166.180852 31.566366 
L 167.265975 31.566366 
L 167.265975 30.596217 
L 168.351097 30.596217 
L 168.351097 35.384372 
L 169.43622 35.384372 
L 169.43622 34.664584 
L 170.521342 34.664584 
L 170.521342 24.806617 
L 171.606464 24.806617 
L 171.606464 29.688658 
L 172.691587 29.688658 
L 172.691587 33.53796 
L 173.776709 33.53796 
L 173.776709 29.845134 
L 174.861831 29.845134 
L 174.861831 33.976091 
L 175.946954 33.976091 
L 175.946954 32.317449 
L 177.032076 32.317449 
L 177.032076 25.588996 
L 178.117199 25.588996 
L 178.117199 32.160974 
L 179.202321 32.160974 
L 179.202321 28.90628 
L 180.287443 28.90628 
L 180.287443 26.684325 
L 181.372566 26.684325 
L 181.372566 27.122457 
L 182.457688 27.122457 
L 182.457688 27.842245 
L 183.54281 27.842245 
L 183.54281 32.317449 
L 184.627933 32.317449 
L 184.627933 27.68577 
L 185.713055 27.68577 
L 185.713055 31.22212 
L 186.798178 31.22212 
L 186.798178 31.096939 
L 187.8833 31.096939 
L 187.8833 27.936131 
L 188.968422 27.936131 
L 188.968422 22.177826 
L 190.053545 22.177826 
L 190.053545 30.439741 
L 191.138667 30.439741 
L 191.138667 27.560589 
L 192.223789 27.560589 
L 192.223789 24.618847 
L 193.308912 24.618847 
L 193.308912 30.471037 
L 194.394034 30.471037 
L 194.394034 28.812394 
L 195.479157 28.812394 
L 195.479157 29.03146 
L 196.564279 29.03146 
L 196.564279 25.43252 
L 197.649401 25.43252 
L 197.649401 30.158085 
L 198.734524 30.158085 
L 198.734524 29.469592 
L 199.819646 29.469592 
L 199.819646 24.994388 
L 200.904769 24.994388 
L 200.904769 29.469592 
L 201.989891 29.469592 
L 201.989891 31.316005 
L 203.075013 31.316005 
L 203.075013 25.276044 
L 204.160136 25.276044 
L 204.160136 27.310228 
L 205.245258 27.310228 
L 205.245258 28.030016 
L 206.33038 28.030016 
L 206.33038 27.779655 
L 207.415503 27.779655 
L 207.415503 28.436853 
L 208.500625 28.436853 
L 208.500625 26.65303 
L 209.585748 26.65303 
L 209.585748 27.310228 
L 210.67087 27.310228 
L 210.67087 27.122457 
L 211.755992 27.122457 
L 211.755992 28.030016 
L 212.841115 28.030016 
L 212.841115 27.842245 
L 213.926237 27.842245 
L 213.926237 27.68577 
L 215.011359 27.68577 
L 215.011359 31.190825 
L 216.096482 31.190825 
L 216.096482 29.407002 
L 217.181604 29.407002 
L 217.181604 27.341523 
L 218.266727 27.341523 
L 218.266727 29.782544 
L 219.351849 29.782544 
L 219.351849 26.903391 
L 220.436971 26.903391 
L 220.436971 28.436853 
L 221.522094 28.436853 
L 221.522094 27.216343 
L 222.607216 27.216343 
L 222.607216 29.563478 
L 223.692338 29.563478 
L 223.692338 32.692991 
L 224.777461 32.692991 
L 224.777461 31.034349 
L 225.862583 31.034349 
L 225.862583 41.799875 
L 226.947706 41.799875 
L 226.947706 51.908202 
L 228.032828 51.908202 
L 228.032828 65.146044 
L 229.11795 65.146044 
L 229.11795 83.453696 
L 230.203073 83.453696 
L 230.203073 86.958751 
L 231.288195 86.958751 
L 231.288195 98.037228 
L 232.373317 98.037228 
L 232.373317 109.804198 
L 233.45844 109.804198 
L 233.45844 117.033374 
L 234.543562 117.033374 
L 234.543562 127.079111 
L 235.628685 127.079111 
L 235.628685 132.055037 
L 236.713807 132.055037 
L 236.713807 139.440689 
L 237.798929 139.440689 
L 237.798929 150.832117 
L 238.884052 150.832117 
L 238.884052 152.522054 
L 239.969174 152.522054 
L 239.969174 158.374244 
L 241.054297 158.374244 
L 241.054297 166.604864 
L 242.139419 166.604864 
L 242.139419 167.637603 
L 243.224541 167.637603 
L 243.224541 176.055994 
L 244.309664 176.055994 
L 244.309664 178.090177 
L 245.394786 178.090177 
L 245.394786 184.943811 
L 246.479908 184.943811 
L 246.479908 187.290946 
L 247.565031 187.290946 
L 247.565031 192.79889 
L 248.650153 192.79889 
L 248.650153 196.773372 
L 249.735276 196.773372 
L 249.735276 196.523011 
L 250.820398 196.523011 
L 250.820398 201.248576 
L 251.90552 201.248576 
L 251.90552 203.846072 
L 252.990643 203.846072 
L 252.990643 207.883144 
L 254.075765 207.883144 
L 254.075765 211.012657 
L 255.160887 211.012657 
L 255.160887 211.575969 
L 256.24601 211.575969 
L 256.24601 212.577414 
L 257.331132 212.577414 
L 257.331132 216.426715 
L 258.416255 216.426715 
L 258.416255 218.867735 
L 259.501377 218.867735 
L 259.501377 219.681409 
L 260.586499 219.681409 
L 260.586499 221.778183 
L 261.671622 221.778183 
L 261.671622 223.40553 
L 262.756744 223.40553 
L 262.756744 224.125318 
L 263.841866 224.125318 
L 263.841866 224.500859 
L 264.926989 224.500859 
L 264.926989 227.943324 
L 266.012111 227.943324 
L 266.012111 229.50808 
L 267.097234 229.50808 
L 267.097234 228.913473 
L 268.182356 228.913473 
L 268.182356 230.008803 
L 270.352601 230.102688 
L 270.352601 232.168167 
L 271.437723 232.168167 
L 271.437723 232.887955 
L 273.607968 232.887955 
L 273.607968 235.328975 
L 274.69309 235.328975 
L 274.69309 234.984729 
L 275.778213 234.984729 
L 275.778213 236.080058 
L 276.863335 236.080058 
L 276.863335 237.175388 
L 277.948457 237.175388 
L 277.948457 237.55093 
L 279.03358 237.55093 
L 279.03358 238.959211 
L 280.118702 238.959211 
L 280.118702 238.082947 
L 281.203825 238.082947 
L 281.203825 238.208127 
L 282.288947 238.208127 
L 282.288947 239.772884 
L 283.374069 239.772884 
L 283.374069 239.428638 
L 284.459192 239.428638 
L 284.459192 239.960655 
L 285.544314 239.960655 
L 285.544314 240.461377 
L 286.629436 240.461377 
L 286.629436 240.304901 
L 287.714559 240.304901 
L 287.714559 241.243755 
L 288.799681 241.243755 
L 288.799681 241.494116 
L 292.055048 241.400231 
L 292.055048 242.43297 
L 293.140171 242.43297 
L 293.140171 242.839807 
L 294.225293 242.839807 
L 294.225293 242.620741 
L 295.310415 242.620741 
L 295.310415 242.777217 
L 296.395538 242.777217 
L 296.395538 243.277939 
L 297.48066 243.277939 
L 297.48066 242.558151 
L 298.565783 242.558151 
L 298.565783 243.184053 
L 299.650905 243.184053 
L 299.650905 243.622185 
L 300.736027 243.622185 
L 300.736027 243.371824 
L 302.906272 243.340529 
L 302.906272 244.68622 
L 303.991394 244.68622 
L 303.991394 244.122907 
L 305.076517 244.122907 
L 305.076517 244.373268 
L 307.246762 244.310678 
L 307.246762 243.935137 
L 308.331884 243.935137 
L 308.331884 244.373268 
L 309.417006 244.373268 
L 309.417006 244.905286 
L 310.502129 244.905286 
L 310.502129 244.68622 
L 313.757496 244.62363 
L 313.757496 244.905286 
L 319.183108 244.905286 
L 319.183108 245.218237 
L 320.26823 245.218237 
L 320.26823 245.030466 
L 321.353353 245.030466 
L 321.353353 245.186942 
L 322.438475 245.186942 
L 322.438475 245.374713 
L 323.523597 245.374713 
L 323.523597 245.249532 
L 324.60872 245.249532 
L 324.60872 245.437303 
L 330.034332 245.531188 
L 330.034332 245.593779 
L 332.204576 245.593779 
L 332.204576 245.312122 
L 333.289699 245.312122 
L 333.289699 245.625074 
L 335.459943 245.656369 
L 335.459943 245.406008 
L 337.630188 245.499893 
L 337.630188 245.656369 
L 340.885555 245.562484 
L 340.885555 245.781549 
L 349.566534 245.718959 
L 349.566534 245.90673 
L 395.141674 245.938025 
L 395.141674 245.938025 
" clip-path="url(#pcee1e2b17b)" style="fill: none; stroke: #1f77b4; stroke-width: 1.5; stroke-linecap: square"/>
   </g>
   <g id="patch_3">
    <path d="M 53.328125 257.158895 
L 53.328125 10.988252 
" style="fill: none; stroke: #000000; stroke-width: 0.8; stroke-linejoin: miter; stroke-linecap: square"/>
   </g>
   <g id="patch_4">
    <path d="M 411.41851 257.158895 
L 411.41851 10.988252 
" style="fill: none; stroke: #000000; stroke-width: 0.8; stroke-linejoin: miter; stroke-linecap: square"/>
   </g>
   <g id="patch_5">
    <path d="M 53.328125 257.158895 
L 411.41851 257.158895 
" style="fill: none; stroke: #000000; stroke-width: 0.8; stroke-linejoin: miter; stroke-linecap: square"/>
   </g>
   <g id="patch_6">
    <path d="M 53.328125 10.988252 
L 411.41851 10.988252 
" style="fill: none; stroke: #000000; stroke-width: 0.8; stroke-linejoin: miter; stroke-linecap: square"/>
   </g>
  </g>
  <g id="axes_2">
   <g id="patch_7">
    <path d="M 507.109135 257.158895 
L 865.19952 257.158895 
L 865.19952 10.988252 
L 507.109135 10.988252 
z
" style="fill: #ffffff"/>
   </g>
   <g id="matplotlib.axis_3">
    <g id="xtick_8">
     <g id="line2d_17">
      <g>
       <use xlink:href="#m3bf1d8f3c1" x="521.748791" y="257.158895" style="stroke: #000000; stroke-width: 0.8"/>
      </g>
     </g>
     <g id="text_18">
      <!-- 0.0 -->
      <g transform="translate(513.797228 271.757332) scale(0.1 -0.1)">
       <defs>
        <path id="DejaVuSans-2e" d="M 684 794 
L 1344 794 
L 1344 0 
L 684 0 
L 684 794 
z
" transform="scale(0.015625)"/>
       </defs>
       <use xlink:href="#DejaVuSans-30"/>
       <use xlink:href="#DejaVuSans-2e" transform="translate(63.623047 0)"/>
       <use xlink:href="#DejaVuSans-30" transform="translate(95.410156 0)"/>
      </g>
     </g>
    </g>
    <g id="xtick_9">
     <g id="line2d_18">
      <g>
       <use xlink:href="#m3bf1d8f3c1" x="562.676038" y="257.158895" style="stroke: #000000; stroke-width: 0.8"/>
      </g>
     </g>
     <g id="text_19">
      <!-- 2.5 -->
      <g transform="translate(554.724475 271.757332) scale(0.1 -0.1)">
       <use xlink:href="#DejaVuSans-32"/>
       <use xlink:href="#DejaVuSans-2e" transform="translate(63.623047 0)"/>
       <use xlink:href="#DejaVuSans-35" transform="translate(95.410156 0)"/>
      </g>
     </g>
    </g>
    <g id="xtick_10">
     <g id="line2d_19">
      <g>
       <use xlink:href="#m3bf1d8f3c1" x="603.603285" y="257.158895" style="stroke: #000000; stroke-width: 0.8"/>
      </g>
     </g>
     <g id="text_20">
      <!-- 5.0 -->
      <g transform="translate(595.651722 271.757332) scale(0.1 -0.1)">
       <use xlink:href="#DejaVuSans-35"/>
       <use xlink:href="#DejaVuSans-2e" transform="translate(63.623047 0)"/>
       <use xlink:href="#DejaVuSans-30" transform="translate(95.410156 0)"/>
      </g>
     </g>
    </g>
    <g id="xtick_11">
     <g id="line2d_20">
      <g>
       <use xlink:href="#m3bf1d8f3c1" x="644.530531" y="257.158895" style="stroke: #000000; stroke-width: 0.8"/>
      </g>
     </g>
     <g id="text_21">
      <!-- 7.5 -->
      <g transform="translate(636.578969 271.757332) scale(0.1 -0.1)">
       <use xlink:href="#DejaVuSans-37"/>
       <use xlink:href="#DejaVuSans-2e" transform="translate(63.623047 0)"/>
       <use xlink:href="#DejaVuSans-35" transform="translate(95.410156 0)"/>
      </g>
     </g>
    </g>
    <g id="xtick_12">
     <g id="line2d_21">
      <g>
       <use xlink:href="#m3bf1d8f3c1" x="685.457778" y="257.158895" style="stroke: #000000; stroke-width: 0.8"/>
      </g>
     </g>
     <g id="text_22">
      <!-- 10.0 -->
      <g transform="translate(674.324966 271.757332) scale(0.1 -0.1)">
       <use xlink:href="#DejaVuSans-31"/>
       <use xlink:href="#DejaVuSans-30" transform="translate(63.623047 0)"/>
       <use xlink:href="#DejaVuSans-2e" transform="translate(127.246094 0)"/>
       <use xlink:href="#DejaVuSans-30" transform="translate(159.033203 0)"/>
      </g>
     </g>
    </g>
    <g id="xtick_13">
     <g id="line2d_22">
      <g>
       <use xlink:href="#m3bf1d8f3c1" x="726.385025" y="257.158895" style="stroke: #000000; stroke-width: 0.8"/>
      </g>
     </g>
     <g id="text_23">
      <!-- 12.5 -->
      <g transform="translate(715.252213 271.757332) scale(0.1 -0.1)">
       <use xlink:href="#DejaVuSans-31"/>
       <use xlink:href="#DejaVuSans-32" transform="translate(63.623047 0)"/>
       <use xlink:href="#DejaVuSans-2e" transform="translate(127.246094 0)"/>
       <use xlink:href="#DejaVuSans-35" transform="translate(159.033203 0)"/>
      </g>
     </g>
    </g>
    <g id="xtick_14">
     <g id="line2d_23">
      <g>
       <use xlink:href="#m3bf1d8f3c1" x="767.312272" y="257.158895" style="stroke: #000000; stroke-width: 0.8"/>
      </g>
     </g>
     <g id="text_24">
      <!-- 15.0 -->
      <g transform="translate(756.17946 271.757332) scale(0.1 -0.1)">
       <use xlink:href="#DejaVuSans-31"/>
       <use xlink:href="#DejaVuSans-35" transform="translate(63.623047 0)"/>
       <use xlink:href="#DejaVuSans-2e" transform="translate(127.246094 0)"/>
       <use xlink:href="#DejaVuSans-30" transform="translate(159.033203 0)"/>
      </g>
     </g>
    </g>
    <g id="xtick_15">
     <g id="line2d_24">
      <g>
       <use xlink:href="#m3bf1d8f3c1" x="808.239519" y="257.158895" style="stroke: #000000; stroke-width: 0.8"/>
      </g>
     </g>
     <g id="text_25">
      <!-- 17.5 -->
      <g transform="translate(797.106707 271.757332) scale(0.1 -0.1)">
       <use xlink:href="#DejaVuSans-31"/>
       <use xlink:href="#DejaVuSans-37" transform="translate(63.623047 0)"/>
       <use xlink:href="#DejaVuSans-2e" transform="translate(127.246094 0)"/>
       <use xlink:href="#DejaVuSans-35" transform="translate(159.033203 0)"/>
      </g>
     </g>
    </g>
    <g id="xtick_16">
     <g id="line2d_25">
      <g>
       <use xlink:href="#m3bf1d8f3c1" x="849.166766" y="257.158895" style="stroke: #000000; stroke-width: 0.8"/>
      </g>
     </g>
     <g id="text_26">
      <!-- 20.0 -->
      <g transform="translate(838.033954 271.757332) scale(0.1 -0.1)">
       <use xlink:href="#DejaVuSans-32"/>
       <use xlink:href="#DejaVuSans-30" transform="translate(63.623047 0)"/>
       <use xlink:href="#DejaVuSans-2e" transform="translate(127.246094 0)"/>
       <use xlink:href="#DejaVuSans-30" transform="translate(159.033203 0)"/>
      </g>
     </g>
    </g>
    <g id="text_27">
     <!-- wavelength [Å] -->
     <g transform="translate(648.116827 287.119832) scale(0.1 -0.1)">
      <defs>
       <path id="DejaVuSans-77" d="M 269 3500 
L 844 3500 
L 1563 769 
L 2278 3500 
L 2956 3500 
L 3675 769 
L 4391 3500 
L 4966 3500 
L 4050 0 
L 3372 0 
L 2619 2869 
L 1863 0 
L 1184 0 
L 269 3500 
z
" transform="scale(0.015625)"/>
       <path id="DejaVuSans-61" d="M 2194 1759 
Q 1497 1759 1228 1600 
Q 959 1441 959 1056 
Q 959 750 1161 570 
Q 1363 391 1709 391 
Q 2188 391 2477 730 
Q 2766 1069 2766 1631 
L 2766 1759 
L 2194 1759 
z
M 3341 1997 
L 3341 0 
L 2766 0 
L 2766 531 
Q 2569 213 2275 61 
Q 1981 -91 1556 -91 
Q 1019 -91 701 211 
Q 384 513 384 1019 
Q 384 1609 779 1909 
Q 1175 2209 1959 2209 
L 2766 2209 
L 2766 2266 
Q 2766 2663 2505 2880 
Q 2244 3097 1772 3097 
Q 1472 3097 1187 3025 
Q 903 2953 641 2809 
L 641 3341 
Q 956 3463 1253 3523 
Q 1550 3584 1831 3584 
Q 2591 3584 2966 3190 
Q 3341 2797 3341 1997 
z
" transform="scale(0.015625)"/>
       <path id="DejaVuSans-76" d="M 191 3500 
L 800 3500 
L 1894 563 
L 2988 3500 
L 3597 3500 
L 2284 0 
L 1503 0 
L 191 3500 
z
" transform="scale(0.015625)"/>
       <path id="DejaVuSans-67" d="M 2906 1791 
Q 2906 2416 2648 2759 
Q 2391 3103 1925 3103 
Q 1463 3103 1205 2759 
Q 947 2416 947 1791 
Q 947 1169 1205 825 
Q 1463 481 1925 481 
Q 2391 481 2648 825 
Q 2906 1169 2906 1791 
z
M 3481 434 
Q 3481 -459 3084 -895 
Q 2688 -1331 1869 -1331 
Q 1566 -1331 1297 -1286 
Q 1028 -1241 775 -1147 
L 775 -588 
Q 1028 -725 1275 -790 
Q 1522 -856 1778 -856 
Q 2344 -856 2625 -561 
Q 2906 -266 2906 331 
L 2906 616 
Q 2728 306 2450 153 
Q 2172 0 1784 0 
Q 1141 0 747 490 
Q 353 981 353 1791 
Q 353 2603 747 3093 
Q 1141 3584 1784 3584 
Q 2172 3584 2450 3431 
Q 2728 3278 2906 2969 
L 2906 3500 
L 3481 3500 
L 3481 434 
z
" transform="scale(0.015625)"/>
       <path id="DejaVuSans-c5" d="M 2663 5081 
Q 2663 5278 2523 5417 
Q 2384 5556 2188 5556 
Q 1988 5556 1852 5420 
Q 1716 5284 1716 5081 
Q 1716 4884 1853 4746 
Q 1991 4609 2188 4609 
Q 2384 4609 2523 4746 
Q 2663 4884 2663 5081 
z
M 2188 4044 
L 1338 1722 
L 3041 1722 
L 2188 4044 
z
M 1716 4366 
Q 1525 4494 1428 4673 
Q 1331 4853 1331 5081 
Q 1331 5441 1579 5691 
Q 1828 5941 2188 5941 
Q 2544 5941 2795 5689 
Q 3047 5438 3047 5081 
Q 3047 4863 2948 4678 
Q 2850 4494 2663 4366 
L 4325 0 
L 3669 0 
L 3244 1197 
L 1141 1197 
L 716 0 
L 50 0 
L 1716 4366 
z
" transform="scale(0.015625)"/>
      </defs>
      <use xlink:href="#DejaVuSans-77"/>
      <use xlink:href="#DejaVuSans-61" transform="translate(81.787109 0)"/>
      <use xlink:href="#DejaVuSans-76" transform="translate(143.066406 0)"/>
      <use xlink:href="#DejaVuSans-65" transform="translate(202.246094 0)"/>
      <use xlink:href="#DejaVuSans-6c" transform="translate(263.769531 0)"/>
      <use xlink:href="#DejaVuSans-65" transform="translate(291.552734 0)"/>
      <use xlink:href="#DejaVuSans-6e" transform="translate(353.076172 0)"/>
      <use xlink:href="#DejaVuSans-67" transform="translate(416.455078 0)"/>
      <use xlink:href="#DejaVuSans-74" transform="translate(479.931641 0)"/>
      <use xlink:href="#DejaVuSans-68" transform="translate(519.140625 0)"/>
      <use xlink:href="#DejaVuSans-20" transform="translate(582.519531 0)"/>
      <use xlink:href="#DejaVuSans-5b" transform="translate(614.306641 0)"/>
      <use xlink:href="#DejaVuSans-c5" transform="translate(653.320312 0)"/>
      <use xlink:href="#DejaVuSans-5d" transform="translate(721.728516 0)"/>
     </g>
    </g>
   </g>
   <g id="matplotlib.axis_4">
    <g id="ytick_9">
     <g id="line2d_26">
      <g>
       <use xlink:href="#m11958519e9" x="507.109135" y="246.008488" style="stroke: #000000; stroke-width: 0.8"/>
      </g>
     </g>
     <g id="text_28">
      <!-- 0 -->
      <g transform="translate(493.746635 249.807707) scale(0.1 -0.1)">
       <use xlink:href="#DejaVuSans-30"/>
      </g>
     </g>
    </g>
    <g id="ytick_10">
     <g id="line2d_27">
      <g>
       <use xlink:href="#m11958519e9" x="507.109135" y="206.840277" style="stroke: #000000; stroke-width: 0.8"/>
      </g>
     </g>
     <g id="text_29">
      <!-- 5000 -->
      <g transform="translate(474.659135 210.639496) scale(0.1 -0.1)">
       <use xlink:href="#DejaVuSans-35"/>
       <use xlink:href="#DejaVuSans-30" transform="translate(63.623047 0)"/>
       <use xlink:href="#DejaVuSans-30" transform="translate(127.246094 0)"/>
       <use xlink:href="#DejaVuSans-30" transform="translate(190.869141 0)"/>
      </g>
     </g>
    </g>
    <g id="ytick_11">
     <g id="line2d_28">
      <g>
       <use xlink:href="#m11958519e9" x="507.109135" y="167.672065" style="stroke: #000000; stroke-width: 0.8"/>
      </g>
     </g>
     <g id="text_30">
      <!-- 10000 -->
      <g transform="translate(468.296635 171.471284) scale(0.1 -0.1)">
       <use xlink:href="#DejaVuSans-31"/>
       <use xlink:href="#DejaVuSans-30" transform="translate(63.623047 0)"/>
       <use xlink:href="#DejaVuSans-30" transform="translate(127.246094 0)"/>
       <use xlink:href="#DejaVuSans-30" transform="translate(190.869141 0)"/>
       <use xlink:href="#DejaVuSans-30" transform="translate(254.492188 0)"/>
      </g>
     </g>
    </g>
    <g id="ytick_12">
     <g id="line2d_29">
      <g>
       <use xlink:href="#m11958519e9" x="507.109135" y="128.503854" style="stroke: #000000; stroke-width: 0.8"/>
      </g>
     </g>
     <g id="text_31">
      <!-- 15000 -->
      <g transform="translate(468.296635 132.303072) scale(0.1 -0.1)">
       <use xlink:href="#DejaVuSans-31"/>
       <use xlink:href="#DejaVuSans-35" transform="translate(63.623047 0)"/>
       <use xlink:href="#DejaVuSans-30" transform="translate(127.246094 0)"/>
       <use xlink:href="#DejaVuSans-30" transform="translate(190.869141 0)"/>
       <use xlink:href="#DejaVuSans-30" transform="translate(254.492188 0)"/>
      </g>
     </g>
    </g>
    <g id="ytick_13">
     <g id="line2d_30">
      <g>
       <use xlink:href="#m11958519e9" x="507.109135" y="89.335642" style="stroke: #000000; stroke-width: 0.8"/>
      </g>
     </g>
     <g id="text_32">
      <!-- 20000 -->
      <g transform="translate(468.296635 93.134861) scale(0.1 -0.1)">
       <use xlink:href="#DejaVuSans-32"/>
       <use xlink:href="#DejaVuSans-30" transform="translate(63.623047 0)"/>
       <use xlink:href="#DejaVuSans-30" transform="translate(127.246094 0)"/>
       <use xlink:href="#DejaVuSans-30" transform="translate(190.869141 0)"/>
       <use xlink:href="#DejaVuSans-30" transform="translate(254.492188 0)"/>
      </g>
     </g>
    </g>
    <g id="ytick_14">
     <g id="line2d_31">
      <g>
       <use xlink:href="#m11958519e9" x="507.109135" y="50.16743" style="stroke: #000000; stroke-width: 0.8"/>
      </g>
     </g>
     <g id="text_33">
      <!-- 25000 -->
      <g transform="translate(468.296635 53.966649) scale(0.1 -0.1)">
       <use xlink:href="#DejaVuSans-32"/>
       <use xlink:href="#DejaVuSans-35" transform="translate(63.623047 0)"/>
       <use xlink:href="#DejaVuSans-30" transform="translate(127.246094 0)"/>
       <use xlink:href="#DejaVuSans-30" transform="translate(190.869141 0)"/>
       <use xlink:href="#DejaVuSans-30" transform="translate(254.492188 0)"/>
      </g>
     </g>
    </g>
    <g id="ytick_15">
     <g id="line2d_32">
      <g>
       <use xlink:href="#m11958519e9" x="507.109135" y="10.999219" style="stroke: #000000; stroke-width: 0.8"/>
      </g>
     </g>
     <g id="text_34">
      <!-- 30000 -->
      <g transform="translate(468.296635 14.798437) scale(0.1 -0.1)">
       <use xlink:href="#DejaVuSans-33"/>
       <use xlink:href="#DejaVuSans-30" transform="translate(63.623047 0)"/>
       <use xlink:href="#DejaVuSans-30" transform="translate(127.246094 0)"/>
       <use xlink:href="#DejaVuSans-30" transform="translate(190.869141 0)"/>
       <use xlink:href="#DejaVuSans-30" transform="translate(254.492188 0)"/>
      </g>
     </g>
    </g>
    <g id="text_35">
     <!-- pulse:0 [counts] -->
     <g transform="translate(462.216947 174.554042) rotate(-90) scale(0.1 -0.1)">
      <use xlink:href="#DejaVuSans-70"/>
      <use xlink:href="#DejaVuSans-75" transform="translate(63.476562 0)"/>
      <use xlink:href="#DejaVuSans-6c" transform="translate(126.855469 0)"/>
      <use xlink:href="#DejaVuSans-73" transform="translate(154.638672 0)"/>
      <use xlink:href="#DejaVuSans-65" transform="translate(206.738281 0)"/>
      <use xlink:href="#DejaVuSans-3a" transform="translate(268.261719 0)"/>
      <use xlink:href="#DejaVuSans-30" transform="translate(301.953125 0)"/>
      <use xlink:href="#DejaVuSans-20" transform="translate(365.576172 0)"/>
      <use xlink:href="#DejaVuSans-5b" transform="translate(397.363281 0)"/>
      <use xlink:href="#DejaVuSans-63" transform="translate(436.376953 0)"/>
      <use xlink:href="#DejaVuSans-6f" transform="translate(491.357422 0)"/>
      <use xlink:href="#DejaVuSans-75" transform="translate(552.539062 0)"/>
      <use xlink:href="#DejaVuSans-6e" transform="translate(615.917969 0)"/>
      <use xlink:href="#DejaVuSans-74" transform="translate(679.296875 0)"/>
      <use xlink:href="#DejaVuSans-73" transform="translate(718.505859 0)"/>
      <use xlink:href="#DejaVuSans-5d" transform="translate(770.605469 0)"/>
     </g>
    </g>
   </g>
   <g id="line2d_33">
    <path d="M 523.385971 22.177826 
L 524.471093 22.177826 
L 524.471093 81.67434 
L 525.556215 81.67434 
L 525.556215 125.628907 
L 526.641338 125.628907 
L 526.641338 153.461838 
L 527.72646 153.461838 
L 527.72646 168.948949 
L 528.811583 168.948949 
L 528.811583 180.636743 
L 529.896705 180.636743 
L 529.896705 185.485768 
L 530.981827 185.485768 
L 530.981827 186.081125 
L 532.06695 186.081125 
L 532.06695 176.007061 
L 533.152072 176.007061 
L 533.152072 154.918896 
L 534.237194 154.918896 
L 534.237194 133.721059 
L 535.322317 133.721059 
L 535.322317 112.139375 
L 536.407439 112.139375 
L 536.407439 93.824319 
L 537.492562 93.824319 
L 537.492562 81.502 
L 538.577684 81.502 
L 538.577684 76.410132 
L 539.662806 76.410132 
L 539.662806 74.107041 
L 540.747929 74.107041 
L 540.747929 77.467674 
L 541.833051 77.467674 
L 541.833051 82.457704 
L 542.918173 82.457704 
L 542.918173 91.74057 
L 544.003296 91.74057 
L 544.003296 100.153902 
L 545.088418 100.153902 
L 545.088418 109.475936 
L 546.173541 109.475936 
L 546.173541 115.609678 
L 547.258663 115.609678 
L 547.258663 122.675624 
L 548.343785 122.675624 
L 548.343785 130.814778 
L 549.428908 130.814778 
L 549.428908 135.381792 
L 550.51403 135.381792 
L 550.51403 138.147067 
L 551.599153 138.147067 
L 551.599153 139.737297 
L 552.684275 139.737297 
L 552.684275 142.189227 
L 553.769397 142.189227 
L 553.769397 141.617371 
L 554.85452 141.617371 
L 554.85452 139.557123 
L 555.939642 139.557123 
L 555.939642 137.724051 
L 557.024764 137.724051 
L 557.024764 132.271836 
L 558.109887 132.271836 
L 558.109887 126.294766 
L 559.195009 126.294766 
L 559.195009 119.181819 
L 560.280132 119.181819 
L 560.280132 109.953789 
L 561.365254 109.953789 
L 561.365254 101.093939 
L 562.450376 101.093939 
L 562.450376 95.767062 
L 563.535499 95.767062 
L 563.535499 97.255454 
L 564.620621 97.255454 
L 564.620621 102.339488 
L 565.705743 102.339488 
L 565.705743 109.726613 
L 566.790866 109.726613 
L 566.790866 118.092943 
L 567.875988 118.092943 
L 567.875988 122.659956 
L 568.961111 122.659956 
L 568.961111 128.895536 
L 570.046233 128.895536 
L 570.046233 137.026856 
L 571.131355 137.026856 
L 571.131355 141.993386 
L 572.216478 141.993386 
L 572.216478 147.547438 
L 573.3016 147.547438 
L 573.3016 153.790851 
L 574.386722 153.790851 
L 574.386722 157.903513 
L 575.471845 157.903513 
L 575.471845 161.217144 
L 576.556967 161.217144 
L 576.556967 164.452438 
L 577.64209 164.452438 
L 577.64209 169.693145 
L 578.727212 169.693145 
L 578.727212 173.750972 
L 579.812334 173.750972 
L 579.812334 177.542455 
L 580.897457 177.542455 
L 580.897457 181.709952 
L 581.982579 181.709952 
L 581.982579 184.69457 
L 583.067702 184.69457 
L 583.067702 185.994955 
L 584.152824 185.994955 
L 584.152824 189.582763 
L 585.237946 189.582763 
L 585.237946 191.321831 
L 586.323069 191.321831 
L 586.323069 195.246486 
L 587.408191 195.246486 
L 587.408191 197.197063 
L 588.493313 197.197063 
L 588.493313 199.351315 
L 589.578436 199.351315 
L 589.578436 200.573363 
L 590.663558 200.573363 
L 590.663558 204.153338 
L 591.748681 204.153338 
L 591.748681 205.81407 
L 592.833803 205.81407 
L 592.833803 208.109327 
L 593.918925 208.109327 
L 593.918925 209.754392 
L 595.004048 209.754392 
L 595.004048 211.462126 
L 596.08917 211.462126 
L 596.08917 212.558836 
L 597.174292 212.558836 
L 597.174292 214.689586 
L 598.259415 214.689586 
L 598.259415 216.256315 
L 599.344537 216.256315 
L 599.344537 216.538326 
L 600.42966 216.538326 
L 600.42966 218.07372 
L 601.514782 218.07372 
L 601.514782 219.397605 
L 602.599904 219.397605 
L 602.599904 221.426519 
L 603.685027 221.426519 
L 603.685027 220.987835 
L 604.770149 220.987835 
L 604.770149 222.781739 
L 605.855271 222.781739 
L 605.855271 224.082124 
L 606.940394 224.082124 
L 606.940394 225.037828 
L 608.025516 225.037828 
L 608.025516 225.711521 
L 609.110639 225.711521 
L 609.110639 226.048368 
L 610.195761 226.048368 
L 610.195761 227.513259 
L 611.280883 227.513259 
L 611.280883 227.865773 
L 612.366006 227.865773 
L 612.366006 228.421961 
L 613.451128 228.421961 
L 613.451128 229.111322 
L 614.53625 229.111322 
L 614.53625 230.286368 
L 615.621373 230.286368 
L 615.621373 231.140235 
L 616.706495 231.140235 
L 616.706495 231.782594 
L 617.791618 231.782594 
L 617.791618 232.385784 
L 618.87674 232.385784 
L 618.87674 232.61296 
L 619.961862 232.61296 
L 619.961862 232.855803 
L 621.046985 232.855803 
L 621.046985 233.694003 
L 622.132107 233.694003 
L 622.132107 234.297193 
L 623.21723 234.297193 
L 623.21723 234.845548 
L 626.472597 234.869049 
L 626.472597 235.762084 
L 627.557719 235.762084 
L 627.557719 236.200768 
L 628.642841 236.200768 
L 628.642841 236.521948 
L 629.727964 236.521948 
L 629.727964 236.944964 
L 630.813086 236.944964 
L 630.813086 236.819626 
L 631.898209 236.819626 
L 631.898209 237.414983 
L 632.983331 237.414983 
L 632.983331 238.151345 
L 634.068453 238.151345 
L 634.068453 238.26885 
L 635.153576 238.26885 
L 635.153576 238.723201 
L 636.238698 238.723201 
L 636.238698 239.185386 
L 637.32382 239.185386 
L 637.32382 239.036547 
L 638.408943 239.036547 
L 638.408943 239.208887 
L 639.494065 239.208887 
L 639.494065 239.561401 
L 641.66431 239.506565 
L 641.66431 239.827745 
L 642.749432 239.827745 
L 642.749432 240.000085 
L 643.834555 240.000085 
L 643.834555 240.266429 
L 644.919677 240.266429 
L 644.919677 240.822617 
L 646.004799 240.822617 
L 646.004799 241.088961 
L 647.089922 241.088961 
L 647.089922 240.971456 
L 649.260167 240.963623 
L 649.260167 241.088961 
L 650.345289 241.088961 
L 650.345289 241.292636 
L 651.430411 241.292636 
L 651.430411 241.676484 
L 652.515534 241.676484 
L 652.515534 241.551146 
L 653.600656 241.551146 
L 653.600656 241.81749 
L 655.770901 241.809656 
L 655.770901 242.256174 
L 656.856023 242.256174 
L 656.856023 242.107335 
L 657.941146 242.107335 
L 657.941146 241.848824 
L 659.026268 241.848824 
L 659.026268 242.342344 
L 660.11139 242.342344 
L 660.11139 242.616521 
L 662.281635 242.538185 
L 662.281635 242.867198 
L 663.366758 242.867198 
L 663.366758 242.749693 
L 664.45188 242.749693 
L 664.45188 242.898532 
L 667.707247 242.796695 
L 667.707247 243.227545 
L 668.792369 243.227545 
L 668.792369 243.415553 
L 670.962614 243.470388 
L 670.962614 243.149209 
L 672.047737 243.149209 
L 672.047737 243.352884 
L 673.132859 243.352884 
L 673.132859 243.627061 
L 674.217981 243.627061 
L 674.217981 243.454721 
L 676.388226 243.470388 
L 676.388226 243.60356 
L 677.473348 243.60356 
L 677.473348 243.752399 
L 678.558471 243.752399 
L 678.558471 243.885571 
L 681.813838 243.885571 
L 681.813838 244.042244 
L 682.89896 244.042244 
L 682.89896 244.191083 
L 683.984083 244.191083 
L 683.984083 244.042244 
L 685.069205 244.042244 
L 685.069205 244.175416 
L 688.324572 244.230252 
L 688.324572 244.457427 
L 689.409695 244.457427 
L 689.409695 244.300754 
L 694.835307 244.339923 
L 694.835307 244.473095 
L 695.920429 244.473095 
L 695.920429 244.747272 
L 703.516286 244.692437 
L 703.516286 244.880444 
L 706.771653 244.770773 
L 706.771653 245.005782 
L 711.112142 244.966614 
L 711.112142 245.272126 
L 712.197265 245.272126 
L 712.197265 244.911779 
L 713.282387 244.911779 
L 713.282387 245.029283 
L 715.452632 245.076285 
L 715.452632 245.178122 
L 716.537754 245.178122 
L 716.537754 245.052784 
L 718.707999 245.138954 
L 718.707999 245.248625 
L 723.048488 245.146788 
L 723.048488 245.10762 
L 724.133611 245.10762 
L 724.133611 245.232958 
L 725.218733 245.232958 
L 725.218733 245.084119 
L 726.303856 245.084119 
L 726.303856 245.232958 
L 728.4741 245.334795 
L 728.4741 245.373963 
L 734.984835 245.326962 
L 734.984835 245.554137 
L 738.240202 245.460134 
L 738.240202 245.373963 
L 739.325324 245.373963 
L 739.325324 245.491468 
L 751.26167 245.546304 
L 751.26167 245.632474 
L 757.772404 245.663808 
L 757.772404 245.757812 
L 761.027772 245.702976 
L 761.027772 245.632474 
L 769.708751 245.726477 
L 769.708751 245.789146 
L 772.964118 245.718644 
L 772.964118 245.663808 
L 776.219485 245.765646 
L 776.219485 245.781313 
L 797.921933 245.867483 
L 797.921933 245.898817 
L 848.922684 245.953653 
L 848.922684 245.953653 
" clip-path="url(#p677831efa1)" style="fill: none; stroke: #1f77b4; stroke-width: 1.5; stroke-linecap: square"/>
   </g>
   <g id="patch_8">
    <path d="M 507.109135 257.158895 
L 507.109135 10.988252 
" style="fill: none; stroke: #000000; stroke-width: 0.8; stroke-linejoin: miter; stroke-linecap: square"/>
   </g>
   <g id="patch_9">
    <path d="M 865.19952 257.158895 
L 865.19952 10.988252 
" style="fill: none; stroke: #000000; stroke-width: 0.8; stroke-linejoin: miter; stroke-linecap: square"/>
   </g>
   <g id="patch_10">
    <path d="M 507.109135 257.158895 
L 865.19952 257.158895 
" style="fill: none; stroke: #000000; stroke-width: 0.8; stroke-linejoin: miter; stroke-linecap: square"/>
   </g>
   <g id="patch_11">
    <path d="M 507.109135 10.988252 
L 865.19952 10.988252 
" style="fill: none; stroke: #000000; stroke-width: 0.8; stroke-linejoin: miter; stroke-linecap: square"/>
   </g>
  </g>
 </g>
 <defs>
  <clipPath id="pcee1e2b17b">
   <rect x="53.328125" y="10.988252" width="358.090385" height="246.170643"/>
  </clipPath>
  <clipPath id="p677831efa1">
   <rect x="507.109135" y="10.988252" width="358.090385" height="246.170643"/>
  </clipPath>
 </defs>
</svg>
