<?xml version="1.0" encoding="utf-8" standalone="no"?>
<!DOCTYPE svg PUBLIC "-//W3C//DTD SVG 1.1//EN"
  "http://www.w3.org/Graphics/SVG/1.1/DTD/svg11.dtd">
<svg xmlns:xlink="http://www.w3.org/1999/xlink" width="872.39952pt" height="296.39952pt" viewBox="0 0 872.39952 296.39952" xmlns="http://www.w3.org/2000/svg" version="1.1">
 <metadata>
  <rdf:RDF xmlns:dc="http://purl.org/dc/elements/1.1/" xmlns:cc="http://creativecommons.org/ns#" xmlns:rdf="http://www.w3.org/1999/02/22-rdf-syntax-ns#">
   <cc:Work>
    <dc:type rdf:resource="http://purl.org/dc/dcmitype/StillImage"/>
    <dc:date>2025-10-02T14:00:49.607462</dc:date>
    <dc:format>image/svg+xml</dc:format>
    <dc:creator>
     <cc:Agent>
      <dc:title>Matplotlib v3.10.1, https://matplotlib.org/</dc:title>
     </cc:Agent>
    </dc:creator>
   </cc:Work>
  </rdf:RDF>
 </metadata>
 <defs>
  <style type="text/css">*{stroke-linejoin: round; stroke-linecap: butt}</style>
 </defs>
 <g id="figure_1">
  <g id="patch_1">
   <path d="M 0 296.39952 
L 872.39952 296.39952 
L 872.39952 0 
L 0 0 
z
" style="fill: #ffffff"/>
  </g>
  <g id="axes_1">
   <g id="patch_2">
    <path d="M 53.328125 257.158895 
L 431.87976 257.158895 
L 431.87976 7.2 
L 53.328125 7.2 
z
" style="fill: #ffffff"/>
   </g>
   <g id="matplotlib.axis_1">
    <g id="xtick_1">
     <g id="line2d_1">
      <defs>
       <path id="m7b784ae547" d="M 0 0 
L 0 3.5 
" style="stroke: #000000; stroke-width: 0.8"/>
      </defs>
      <g>
       <use xlink:href="#m7b784ae547" x="120.922116" y="257.158895" style="stroke: #000000; stroke-width: 0.8"/>
      </g>
     </g>
     <g id="text_1">
      <!-- 20000 -->
      <g transform="translate(105.015866 271.757332) scale(0.1 -0.1)">
       <defs>
        <path id="DejaVuSans-32" d="M 1228 531 
L 3431 531 
L 3431 0 
L 469 0 
L 469 531 
Q 828 903 1448 1529 
Q 2069 2156 2228 2338 
Q 2531 2678 2651 2914 
Q 2772 3150 2772 3378 
Q 2772 3750 2511 3984 
Q 2250 4219 1831 4219 
Q 1534 4219 1204 4116 
Q 875 4013 500 3803 
L 500 4441 
Q 881 4594 1212 4672 
Q 1544 4750 1819 4750 
Q 2544 4750 2975 4387 
Q 3406 4025 3406 3419 
Q 3406 3131 3298 2873 
Q 3191 2616 2906 2266 
Q 2828 2175 2409 1742 
Q 1991 1309 1228 531 
z
" transform="scale(0.015625)"/>
        <path id="DejaVuSans-30" d="M 2034 4250 
Q 1547 4250 1301 3770 
Q 1056 3291 1056 2328 
Q 1056 1369 1301 889 
Q 1547 409 2034 409 
Q 2525 409 2770 889 
Q 3016 1369 3016 2328 
Q 3016 3291 2770 3770 
Q 2525 4250 2034 4250 
z
M 2034 4750 
Q 2819 4750 3233 4129 
Q 3647 3509 3647 2328 
Q 3647 1150 3233 529 
Q 2819 -91 2034 -91 
Q 1250 -91 836 529 
Q 422 1150 422 2328 
Q 422 3509 836 4129 
Q 1250 4750 2034 4750 
z
" transform="scale(0.015625)"/>
       </defs>
       <use xlink:href="#DejaVuSans-32"/>
       <use xlink:href="#DejaVuSans-30" transform="translate(63.623047 0)"/>
       <use xlink:href="#DejaVuSans-30" transform="translate(127.246094 0)"/>
       <use xlink:href="#DejaVuSans-30" transform="translate(190.869141 0)"/>
       <use xlink:href="#DejaVuSans-30" transform="translate(254.492188 0)"/>
      </g>
     </g>
    </g>
    <g id="xtick_2">
     <g id="line2d_2">
      <g>
       <use xlink:href="#m7b784ae547" x="204.115964" y="257.158895" style="stroke: #000000; stroke-width: 0.8"/>
      </g>
     </g>
     <g id="text_2">
      <!-- 30000 -->
      <g transform="translate(188.209714 271.757332) scale(0.1 -0.1)">
       <defs>
        <path id="DejaVuSans-33" d="M 2597 2516 
Q 3050 2419 3304 2112 
Q 3559 1806 3559 1356 
Q 3559 666 3084 287 
Q 2609 -91 1734 -91 
Q 1441 -91 1130 -33 
Q 819 25 488 141 
L 488 750 
Q 750 597 1062 519 
Q 1375 441 1716 441 
Q 2309 441 2620 675 
Q 2931 909 2931 1356 
Q 2931 1769 2642 2001 
Q 2353 2234 1838 2234 
L 1294 2234 
L 1294 2753 
L 1863 2753 
Q 2328 2753 2575 2939 
Q 2822 3125 2822 3475 
Q 2822 3834 2567 4026 
Q 2313 4219 1838 4219 
Q 1578 4219 1281 4162 
Q 984 4106 628 3988 
L 628 4550 
Q 988 4650 1302 4700 
Q 1616 4750 1894 4750 
Q 2613 4750 3031 4423 
Q 3450 4097 3450 3541 
Q 3450 3153 3228 2886 
Q 3006 2619 2597 2516 
z
" transform="scale(0.015625)"/>
       </defs>
       <use xlink:href="#DejaVuSans-33"/>
       <use xlink:href="#DejaVuSans-30" transform="translate(63.623047 0)"/>
       <use xlink:href="#DejaVuSans-30" transform="translate(127.246094 0)"/>
       <use xlink:href="#DejaVuSans-30" transform="translate(190.869141 0)"/>
       <use xlink:href="#DejaVuSans-30" transform="translate(254.492188 0)"/>
      </g>
     </g>
    </g>
    <g id="xtick_3">
     <g id="line2d_3">
      <g>
       <use xlink:href="#m7b784ae547" x="287.309812" y="257.158895" style="stroke: #000000; stroke-width: 0.8"/>
      </g>
     </g>
     <g id="text_3">
      <!-- 40000 -->
      <g transform="translate(271.403562 271.757332) scale(0.1 -0.1)">
       <defs>
        <path id="DejaVuSans-34" d="M 2419 4116 
L 825 1625 
L 2419 1625 
L 2419 4116 
z
M 2253 4666 
L 3047 4666 
L 3047 1625 
L 3713 1625 
L 3713 1100 
L 3047 1100 
L 3047 0 
L 2419 0 
L 2419 1100 
L 313 1100 
L 313 1709 
L 2253 4666 
z
" transform="scale(0.015625)"/>
       </defs>
       <use xlink:href="#DejaVuSans-34"/>
       <use xlink:href="#DejaVuSans-30" transform="translate(63.623047 0)"/>
       <use xlink:href="#DejaVuSans-30" transform="translate(127.246094 0)"/>
       <use xlink:href="#DejaVuSans-30" transform="translate(190.869141 0)"/>
       <use xlink:href="#DejaVuSans-30" transform="translate(254.492188 0)"/>
      </g>
     </g>
    </g>
    <g id="xtick_4">
     <g id="line2d_4">
      <g>
       <use xlink:href="#m7b784ae547" x="370.503659" y="257.158895" style="stroke: #000000; stroke-width: 0.8"/>
      </g>
     </g>
     <g id="text_4">
      <!-- 50000 -->
      <g transform="translate(354.597409 271.757332) scale(0.1 -0.1)">
       <defs>
        <path id="DejaVuSans-35" d="M 691 4666 
L 3169 4666 
L 3169 4134 
L 1269 4134 
L 1269 2991 
Q 1406 3038 1543 3061 
Q 1681 3084 1819 3084 
Q 2600 3084 3056 2656 
Q 3513 2228 3513 1497 
Q 3513 744 3044 326 
Q 2575 -91 1722 -91 
Q 1428 -91 1123 -41 
Q 819 9 494 109 
L 494 744 
Q 775 591 1075 516 
Q 1375 441 1709 441 
Q 2250 441 2565 725 
Q 2881 1009 2881 1497 
Q 2881 1984 2565 2268 
Q 2250 2553 1709 2553 
Q 1456 2553 1204 2497 
Q 953 2441 691 2322 
L 691 4666 
z
" transform="scale(0.015625)"/>
       </defs>
       <use xlink:href="#DejaVuSans-35"/>
       <use xlink:href="#DejaVuSans-30" transform="translate(63.623047 0)"/>
       <use xlink:href="#DejaVuSans-30" transform="translate(127.246094 0)"/>
       <use xlink:href="#DejaVuSans-30" transform="translate(190.869141 0)"/>
       <use xlink:href="#DejaVuSans-30" transform="translate(254.492188 0)"/>
      </g>
     </g>
    </g>
    <g id="text_5">
     <!-- toa [µs] -->
     <g transform="translate(223.243786 285.435457) scale(0.1 -0.1)">
      <defs>
       <path id="DejaVuSans-74" d="M 1172 4494 
L 1172 3500 
L 2356 3500 
L 2356 3053 
L 1172 3053 
L 1172 1153 
Q 1172 725 1289 603 
Q 1406 481 1766 481 
L 2356 481 
L 2356 0 
L 1766 0 
Q 1100 0 847 248 
Q 594 497 594 1153 
L 594 3053 
L 172 3053 
L 172 3500 
L 594 3500 
L 594 4494 
L 1172 4494 
z
" transform="scale(0.015625)"/>
       <path id="DejaVuSans-6f" d="M 1959 3097 
Q 1497 3097 1228 2736 
Q 959 2375 959 1747 
Q 959 1119 1226 758 
Q 1494 397 1959 397 
Q 2419 397 2687 759 
Q 2956 1122 2956 1747 
Q 2956 2369 2687 2733 
Q 2419 3097 1959 3097 
z
M 1959 3584 
Q 2709 3584 3137 3096 
Q 3566 2609 3566 1747 
Q 3566 888 3137 398 
Q 2709 -91 1959 -91 
Q 1206 -91 779 398 
Q 353 888 353 1747 
Q 353 2609 779 3096 
Q 1206 3584 1959 3584 
z
" transform="scale(0.015625)"/>
       <path id="DejaVuSans-61" d="M 2194 1759 
Q 1497 1759 1228 1600 
Q 959 1441 959 1056 
Q 959 750 1161 570 
Q 1363 391 1709 391 
Q 2188 391 2477 730 
Q 2766 1069 2766 1631 
L 2766 1759 
L 2194 1759 
z
M 3341 1997 
L 3341 0 
L 2766 0 
L 2766 531 
Q 2569 213 2275 61 
Q 1981 -91 1556 -91 
Q 1019 -91 701 211 
Q 384 513 384 1019 
Q 384 1609 779 1909 
Q 1175 2209 1959 2209 
L 2766 2209 
L 2766 2266 
Q 2766 2663 2505 2880 
Q 2244 3097 1772 3097 
Q 1472 3097 1187 3025 
Q 903 2953 641 2809 
L 641 3341 
Q 956 3463 1253 3523 
Q 1550 3584 1831 3584 
Q 2591 3584 2966 3190 
Q 3341 2797 3341 1997 
z
" transform="scale(0.015625)"/>
       <path id="DejaVuSans-20" transform="scale(0.015625)"/>
       <path id="DejaVuSans-5b" d="M 550 4863 
L 1875 4863 
L 1875 4416 
L 1125 4416 
L 1125 -397 
L 1875 -397 
L 1875 -844 
L 550 -844 
L 550 4863 
z
" transform="scale(0.015625)"/>
       <path id="DejaVuSans-b5" d="M 544 -1331 
L 544 3500 
L 1119 3500 
L 1119 1325 
Q 1119 872 1334 640 
Q 1550 409 1972 409 
Q 2434 409 2667 671 
Q 2900 934 2900 1459 
L 2900 3500 
L 3475 3500 
L 3475 806 
Q 3475 619 3529 530 
Q 3584 441 3700 441 
Q 3728 441 3778 458 
Q 3828 475 3916 513 
L 3916 50 
Q 3788 -22 3673 -56 
Q 3559 -91 3450 -91 
Q 3234 -91 3106 31 
Q 2978 153 2931 403 
Q 2775 156 2548 32 
Q 2322 -91 2016 -91 
Q 1697 -91 1473 31 
Q 1250 153 1119 397 
L 1119 -1331 
L 544 -1331 
z
" transform="scale(0.015625)"/>
       <path id="DejaVuSans-73" d="M 2834 3397 
L 2834 2853 
Q 2591 2978 2328 3040 
Q 2066 3103 1784 3103 
Q 1356 3103 1142 2972 
Q 928 2841 928 2578 
Q 928 2378 1081 2264 
Q 1234 2150 1697 2047 
L 1894 2003 
Q 2506 1872 2764 1633 
Q 3022 1394 3022 966 
Q 3022 478 2636 193 
Q 2250 -91 1575 -91 
Q 1294 -91 989 -36 
Q 684 19 347 128 
L 347 722 
Q 666 556 975 473 
Q 1284 391 1588 391 
Q 1994 391 2212 530 
Q 2431 669 2431 922 
Q 2431 1156 2273 1281 
Q 2116 1406 1581 1522 
L 1381 1569 
Q 847 1681 609 1914 
Q 372 2147 372 2553 
Q 372 3047 722 3315 
Q 1072 3584 1716 3584 
Q 2034 3584 2315 3537 
Q 2597 3491 2834 3397 
z
" transform="scale(0.015625)"/>
       <path id="DejaVuSans-5d" d="M 1947 4863 
L 1947 -844 
L 622 -844 
L 622 -397 
L 1369 -397 
L 1369 4416 
L 622 4416 
L 622 4863 
L 1947 4863 
z
" transform="scale(0.015625)"/>
      </defs>
      <use xlink:href="#DejaVuSans-74"/>
      <use xlink:href="#DejaVuSans-6f" transform="translate(39.208984 0)"/>
      <use xlink:href="#DejaVuSans-61" transform="translate(100.390625 0)"/>
      <use xlink:href="#DejaVuSans-20" transform="translate(161.669922 0)"/>
      <use xlink:href="#DejaVuSans-5b" transform="translate(193.457031 0)"/>
      <use xlink:href="#DejaVuSans-b5" transform="translate(232.470703 0)"/>
      <use xlink:href="#DejaVuSans-73" transform="translate(296.09375 0)"/>
      <use xlink:href="#DejaVuSans-5d" transform="translate(348.193359 0)"/>
     </g>
    </g>
   </g>
   <g id="matplotlib.axis_2">
    <g id="ytick_1">
     <g id="line2d_5">
      <defs>
       <path id="m0bb497fb14" d="M 0 0 
L -3.5 0 
" style="stroke: #000000; stroke-width: 0.8"/>
      </defs>
      <g>
       <use xlink:href="#m0bb497fb14" x="53.328125" y="245.797127" style="stroke: #000000; stroke-width: 0.8"/>
      </g>
     </g>
     <g id="text_6">
      <!-- 0 -->
      <g transform="translate(39.965625 249.596346) scale(0.1 -0.1)">
       <use xlink:href="#DejaVuSans-30"/>
      </g>
     </g>
    </g>
    <g id="ytick_2">
     <g id="line2d_6">
      <g>
       <use xlink:href="#m0bb497fb14" x="53.328125" y="214.078065" style="stroke: #000000; stroke-width: 0.8"/>
      </g>
     </g>
     <g id="text_7">
      <!-- 500 -->
      <g transform="translate(27.240625 217.877284) scale(0.1 -0.1)">
       <use xlink:href="#DejaVuSans-35"/>
       <use xlink:href="#DejaVuSans-30" transform="translate(63.623047 0)"/>
       <use xlink:href="#DejaVuSans-30" transform="translate(127.246094 0)"/>
      </g>
     </g>
    </g>
    <g id="ytick_3">
     <g id="line2d_7">
      <g>
       <use xlink:href="#m0bb497fb14" x="53.328125" y="182.359003" style="stroke: #000000; stroke-width: 0.8"/>
      </g>
     </g>
     <g id="text_8">
      <!-- 1000 -->
      <g transform="translate(20.878125 186.158222) scale(0.1 -0.1)">
       <defs>
        <path id="DejaVuSans-31" d="M 794 531 
L 1825 531 
L 1825 4091 
L 703 3866 
L 703 4441 
L 1819 4666 
L 2450 4666 
L 2450 531 
L 3481 531 
L 3481 0 
L 794 0 
L 794 531 
z
" transform="scale(0.015625)"/>
       </defs>
       <use xlink:href="#DejaVuSans-31"/>
       <use xlink:href="#DejaVuSans-30" transform="translate(63.623047 0)"/>
       <use xlink:href="#DejaVuSans-30" transform="translate(127.246094 0)"/>
       <use xlink:href="#DejaVuSans-30" transform="translate(190.869141 0)"/>
      </g>
     </g>
    </g>
    <g id="ytick_4">
     <g id="line2d_8">
      <g>
       <use xlink:href="#m0bb497fb14" x="53.328125" y="150.639941" style="stroke: #000000; stroke-width: 0.8"/>
      </g>
     </g>
     <g id="text_9">
      <!-- 1500 -->
      <g transform="translate(20.878125 154.43916) scale(0.1 -0.1)">
       <use xlink:href="#DejaVuSans-31"/>
       <use xlink:href="#DejaVuSans-35" transform="translate(63.623047 0)"/>
       <use xlink:href="#DejaVuSans-30" transform="translate(127.246094 0)"/>
       <use xlink:href="#DejaVuSans-30" transform="translate(190.869141 0)"/>
      </g>
     </g>
    </g>
    <g id="ytick_5">
     <g id="line2d_9">
      <g>
       <use xlink:href="#m0bb497fb14" x="53.328125" y="118.92088" style="stroke: #000000; stroke-width: 0.8"/>
      </g>
     </g>
     <g id="text_10">
      <!-- 2000 -->
      <g transform="translate(20.878125 122.720098) scale(0.1 -0.1)">
       <use xlink:href="#DejaVuSans-32"/>
       <use xlink:href="#DejaVuSans-30" transform="translate(63.623047 0)"/>
       <use xlink:href="#DejaVuSans-30" transform="translate(127.246094 0)"/>
       <use xlink:href="#DejaVuSans-30" transform="translate(190.869141 0)"/>
      </g>
     </g>
    </g>
    <g id="ytick_6">
     <g id="line2d_10">
      <g>
       <use xlink:href="#m0bb497fb14" x="53.328125" y="87.201818" style="stroke: #000000; stroke-width: 0.8"/>
      </g>
     </g>
     <g id="text_11">
      <!-- 2500 -->
      <g transform="translate(20.878125 91.001037) scale(0.1 -0.1)">
       <use xlink:href="#DejaVuSans-32"/>
       <use xlink:href="#DejaVuSans-35" transform="translate(63.623047 0)"/>
       <use xlink:href="#DejaVuSans-30" transform="translate(127.246094 0)"/>
       <use xlink:href="#DejaVuSans-30" transform="translate(190.869141 0)"/>
      </g>
     </g>
    </g>
    <g id="ytick_7">
     <g id="line2d_11">
      <g>
       <use xlink:href="#m0bb497fb14" x="53.328125" y="55.482756" style="stroke: #000000; stroke-width: 0.8"/>
      </g>
     </g>
     <g id="text_12">
      <!-- 3000 -->
      <g transform="translate(20.878125 59.281975) scale(0.1 -0.1)">
       <use xlink:href="#DejaVuSans-33"/>
       <use xlink:href="#DejaVuSans-30" transform="translate(63.623047 0)"/>
       <use xlink:href="#DejaVuSans-30" transform="translate(127.246094 0)"/>
       <use xlink:href="#DejaVuSans-30" transform="translate(190.869141 0)"/>
      </g>
     </g>
    </g>
    <g id="ytick_8">
     <g id="line2d_12">
      <g>
       <use xlink:href="#m0bb497fb14" x="53.328125" y="23.763694" style="stroke: #000000; stroke-width: 0.8"/>
      </g>
     </g>
     <g id="text_13">
      <!-- 3500 -->
      <g transform="translate(20.878125 27.562913) scale(0.1 -0.1)">
       <use xlink:href="#DejaVuSans-33"/>
       <use xlink:href="#DejaVuSans-35" transform="translate(63.623047 0)"/>
       <use xlink:href="#DejaVuSans-30" transform="translate(127.246094 0)"/>
       <use xlink:href="#DejaVuSans-30" transform="translate(190.869141 0)"/>
      </g>
     </g>
    </g>
    <g id="text_14">
     <!-- [counts] -->
     <g transform="translate(14.798438 152.791947) rotate(-90) scale(0.1 -0.1)">
      <defs>
       <path id="DejaVuSans-63" d="M 3122 3366 
L 3122 2828 
Q 2878 2963 2633 3030 
Q 2388 3097 2138 3097 
Q 1578 3097 1268 2742 
Q 959 2388 959 1747 
Q 959 1106 1268 751 
Q 1578 397 2138 397 
Q 2388 397 2633 464 
Q 2878 531 3122 666 
L 3122 134 
Q 2881 22 2623 -34 
Q 2366 -91 2075 -91 
Q 1284 -91 818 406 
Q 353 903 353 1747 
Q 353 2603 823 3093 
Q 1294 3584 2113 3584 
Q 2378 3584 2631 3529 
Q 2884 3475 3122 3366 
z
" transform="scale(0.015625)"/>
       <path id="DejaVuSans-75" d="M 544 1381 
L 544 3500 
L 1119 3500 
L 1119 1403 
Q 1119 906 1312 657 
Q 1506 409 1894 409 
Q 2359 409 2629 706 
Q 2900 1003 2900 1516 
L 2900 3500 
L 3475 3500 
L 3475 0 
L 2900 0 
L 2900 538 
Q 2691 219 2414 64 
Q 2138 -91 1772 -91 
Q 1169 -91 856 284 
Q 544 659 544 1381 
z
M 1991 3584 
L 1991 3584 
z
" transform="scale(0.015625)"/>
       <path id="DejaVuSans-6e" d="M 3513 2113 
L 3513 0 
L 2938 0 
L 2938 2094 
Q 2938 2591 2744 2837 
Q 2550 3084 2163 3084 
Q 1697 3084 1428 2787 
Q 1159 2491 1159 1978 
L 1159 0 
L 581 0 
L 581 3500 
L 1159 3500 
L 1159 2956 
Q 1366 3272 1645 3428 
Q 1925 3584 2291 3584 
Q 2894 3584 3203 3211 
Q 3513 2838 3513 2113 
z
" transform="scale(0.015625)"/>
      </defs>
      <use xlink:href="#DejaVuSans-5b"/>
      <use xlink:href="#DejaVuSans-63" transform="translate(39.013672 0)"/>
      <use xlink:href="#DejaVuSans-6f" transform="translate(93.994141 0)"/>
      <use xlink:href="#DejaVuSans-75" transform="translate(155.175781 0)"/>
      <use xlink:href="#DejaVuSans-6e" transform="translate(218.554688 0)"/>
      <use xlink:href="#DejaVuSans-74" transform="translate(281.933594 0)"/>
      <use xlink:href="#DejaVuSans-73" transform="translate(321.142578 0)"/>
      <use xlink:href="#DejaVuSans-5d" transform="translate(373.242188 0)"/>
     </g>
    </g>
   </g>
   <g id="line2d_13">
    <path d="M 70.535018 245.797127 
L 92.330415 245.797127 
L 92.330415 227.7807 
L 93.477541 227.7807 
L 93.477541 166.689787 
L 94.624667 166.689787 
L 94.624667 152.099018 
L 95.771793 152.099018 
L 95.771793 138.777012 
L 96.918919 138.777012 
L 96.918919 129.895675 
L 98.066046 129.895675 
L 98.066046 119.491823 
L 99.213172 119.491823 
L 99.213172 112.196439 
L 100.360298 112.196439 
L 100.360298 99.064747 
L 101.507424 99.064747 
L 101.507424 91.579048 
L 102.65455 91.579048 
L 102.65455 82.761149 
L 103.801676 82.761149 
L 103.801676 78.764547 
L 104.948803 78.764547 
L 104.948803 66.203799 
L 106.095929 66.203799 
L 106.095929 64.046903 
L 107.243055 64.046903 
L 107.243055 57.893405 
L 108.390181 57.893405 
L 108.390181 51.803345 
L 109.537307 51.803345 
L 109.537307 45.459532 
L 110.684433 45.459532 
L 110.684433 46.284228 
L 111.83156 46.284228 
L 111.83156 35.436309 
L 112.978686 35.436309 
L 112.978686 37.910396 
L 114.125812 37.910396 
L 114.125812 34.675051 
L 115.272938 34.675051 
L 115.272938 58.908415 
L 116.420064 58.908415 
L 116.420064 245.797127 
L 139.362587 245.797127 
L 139.362587 83.776159 
L 140.509714 83.776159 
L 140.509714 72.801364 
L 141.65684 72.801364 
L 141.65684 86.059932 
L 142.803966 86.059932 
L 142.803966 89.422152 
L 143.951092 89.422152 
L 143.951092 91.959677 
L 145.098218 91.959677 
L 145.098218 93.735945 
L 146.245344 93.735945 
L 146.245344 98.303489 
L 147.392471 98.303489 
L 147.392471 109.214847 
L 148.539597 109.214847 
L 148.539597 113.401763 
L 149.686723 113.401763 
L 149.686723 121.014338 
L 150.833849 121.014338 
L 150.833849 124.884063 
L 151.980975 124.884063 
L 151.980975 133.765401 
L 153.128101 133.765401 
L 153.128101 147.023968 
L 154.275228 147.023968 
L 154.275228 155.588115 
L 155.422354 155.588115 
L 155.422354 157.047192 
L 156.56948 157.047192 
L 156.56948 163.771633 
L 157.716606 163.771633 
L 157.716606 171.193894 
L 158.863732 171.193894 
L 158.863732 174.429238 
L 160.010858 174.429238 
L 160.010858 182.993385 
L 161.157985 182.993385 
L 161.157985 186.926548 
L 162.305111 186.926548 
L 162.305111 186.482481 
L 163.452237 186.482481 
L 163.452237 192.572541 
L 164.599363 192.572541 
L 164.599363 197.711029 
L 165.746489 197.711029 
L 165.746489 201.707631 
L 166.893615 201.707631 
L 166.893615 208.622387 
L 168.040742 208.622387 
L 168.040742 213.824313 
L 169.187868 213.824313 
L 169.187868 214.395256 
L 170.334994 214.395256 
L 170.334994 220.231563 
L 171.48212 220.231563 
L 171.48212 223.657222 
L 172.629246 223.657222 
L 172.629246 225.940994 
L 173.776372 225.940994 
L 173.776372 227.653824 
L 174.923499 227.653824 
L 174.923499 229.493529 
L 176.070625 229.493529 
L 176.070625 242.371468 
L 177.217751 242.371468 
L 177.217751 245.797127 
L 208.190157 245.797127 
L 208.190157 241.102706 
L 209.337284 241.102706 
L 209.337284 235.012646 
L 210.48441 235.012646 
L 210.48441 233.490131 
L 211.631536 233.490131 
L 211.631536 230.952606 
L 212.778662 230.952606 
L 212.778662 230.001034 
L 213.925788 230.001034 
L 213.925788 227.082881 
L 215.072914 227.082881 
L 215.072914 226.575376 
L 216.220041 226.575376 
L 216.220041 226.385061 
L 217.367167 226.385061 
L 217.367167 227.336633 
L 218.514293 227.336633 
L 218.514293 221.880954 
L 219.661419 221.880954 
L 219.661419 223.022841 
L 220.808545 223.022841 
L 220.808545 221.310011 
L 221.955671 221.310011 
L 221.955671 218.64561 
L 223.102798 218.64561 
L 223.102798 217.567162 
L 224.249924 217.567162 
L 224.249924 219.026239 
L 225.39705 219.026239 
L 225.39705 218.011229 
L 226.544176 218.011229 
L 226.544176 216.234961 
L 227.691302 216.234961 
L 227.691302 215.219951 
L 228.838428 215.219951 
L 228.838428 214.902761 
L 231.132681 214.966199 
L 231.132681 215.219951 
L 232.279807 215.219951 
L 232.279807 214.58557 
L 233.426933 214.58557 
L 233.426933 210.906159 
L 234.574059 210.906159 
L 234.574059 211.22335 
L 235.721185 211.22335 
L 235.721185 210.652407 
L 236.868312 210.652407 
L 236.868312 211.159912 
L 238.015438 211.159912 
L 238.015438 210.20834 
L 239.162564 210.20834 
L 239.162564 210.018025 
L 240.30969 210.018025 
L 240.30969 209.003015 
L 241.456816 209.003015 
L 241.456816 211.667416 
L 242.603942 211.667416 
L 242.603942 212.745865 
L 243.751069 212.745865 
L 243.751069 211.667416 
L 244.898195 211.667416 
L 244.898195 214.395256 
L 246.045321 214.395256 
L 246.045321 211.857731 
L 247.192447 211.857731 
L 247.192447 213.633998 
L 248.339573 213.633998 
L 248.339573 214.141503 
L 249.486699 214.141503 
L 249.486699 213.063055 
L 250.633826 213.063055 
L 250.633826 213.824313 
L 251.780952 213.824313 
L 251.780952 218.518734 
L 252.928078 218.518734 
L 252.928078 215.727456 
L 254.075204 215.727456 
L 254.075204 224.228165 
L 255.22233 224.228165 
L 255.22233 245.797127 
L 277.017727 245.797127 
L 277.017727 243.957421 
L 278.164854 243.957421 
L 278.164854 223.784098 
L 279.31198 223.784098 
L 279.31198 224.418479 
L 280.459106 224.418479 
L 280.459106 222.959403 
L 281.606232 222.959403 
L 281.606232 226.638814 
L 282.753358 226.638814 
L 282.753358 224.291603 
L 283.900484 224.291603 
L 283.900484 225.877556 
L 285.047611 225.877556 
L 285.047611 227.019442 
L 286.194737 227.019442 
L 286.194737 226.067871 
L 287.341863 226.067871 
L 287.341863 226.956004 
L 288.488989 226.956004 
L 288.488989 228.351643 
L 289.636115 228.351643 
L 289.636115 226.385061 
L 291.930368 226.321623 
L 291.930368 227.336633 
L 293.077494 227.336633 
L 293.077494 229.430091 
L 294.22462 229.430091 
L 294.22462 227.082881 
L 295.371746 227.082881 
L 295.371746 230.001034 
L 296.518872 230.001034 
L 296.518872 229.176339 
L 299.960251 229.176339 
L 299.960251 229.303215 
L 301.107377 229.303215 
L 301.107377 229.81072 
L 302.254503 229.81072 
L 302.254503 228.415081 
L 303.401629 228.415081 
L 303.401629 229.556967 
L 304.548755 229.556967 
L 304.548755 230.381663 
L 305.695882 230.381663 
L 305.695882 229.683844 
L 306.843008 229.683844 
L 306.843008 228.732272 
L 307.990134 228.732272 
L 307.990134 231.904178 
L 309.13726 231.904178 
L 309.13726 231.333235 
L 310.284386 231.333235 
L 310.284386 230.001034 
L 311.431512 230.001034 
L 311.431512 231.14292 
L 312.578639 231.14292 
L 312.578639 232.221369 
L 313.725765 232.221369 
L 313.725765 232.792312 
L 314.872891 232.792312 
L 314.872891 230.952606 
L 316.020017 230.952606 
L 316.020017 232.221369 
L 317.167143 232.221369 
L 317.167143 231.206359 
L 318.314269 231.206359 
L 318.314269 232.411683 
L 319.461396 232.411683 
L 319.461396 233.807322 
L 320.608522 233.807322 
L 320.608522 232.15793 
L 321.755648 232.15793 
L 321.755648 232.792312 
L 322.902774 232.792312 
L 322.902774 232.15793 
L 324.0499 232.15793 
L 324.0499 234.314827 
L 325.197026 234.314827 
L 325.197026 230.445101 
L 326.344153 230.445101 
L 326.344153 233.553569 
L 327.491279 233.553569 
L 327.491279 234.695455 
L 328.638405 234.695455 
L 328.638405 233.17294 
L 329.785531 233.17294 
L 329.785531 235.012646 
L 330.932657 235.012646 
L 330.932657 234.124512 
L 332.079783 234.124512 
L 332.079783 234.378265 
L 333.22691 234.378265 
L 333.22691 233.807322 
L 334.374036 233.807322 
L 334.374036 234.695455 
L 335.521162 234.695455 
L 335.521162 235.647027 
L 336.668288 235.647027 
L 336.668288 234.822332 
L 337.815414 234.822332 
L 337.815414 234.251389 
L 338.96254 234.251389 
L 338.96254 235.266399 
L 340.109667 235.266399 
L 340.109667 234.568579 
L 341.256793 234.568579 
L 341.256793 235.837342 
L 342.403919 235.837342 
L 342.403919 236.662037 
L 343.551045 236.662037 
L 343.551045 232.85575 
L 344.698171 232.85575 
L 344.698171 236.21797 
L 345.845297 236.21797 
L 345.845297 236.91579 
L 346.992424 236.91579 
L 346.992424 237.486733 
L 348.13955 237.486733 
L 348.13955 237.042666 
L 349.286676 237.042666 
L 349.286676 235.266399 
L 350.433802 235.266399 
L 350.433802 236.344847 
L 351.580928 236.344847 
L 351.580928 236.852352 
L 352.728054 236.852352 
L 352.728054 237.296418 
L 353.875181 237.296418 
L 353.875181 237.423295 
L 355.022307 237.423295 
L 355.022307 236.471723 
L 356.169433 236.471723 
L 356.169433 237.042666 
L 357.316559 237.042666 
L 357.316559 236.281408 
L 358.463685 236.281408 
L 358.463685 237.042666 
L 359.610811 237.042666 
L 359.610811 237.423295 
L 360.757938 237.423295 
L 360.757938 237.23298 
L 361.905064 237.23298 
L 361.905064 238.374867 
L 363.05219 238.374867 
L 363.05219 236.598599 
L 364.199316 236.598599 
L 364.199316 236.281408 
L 365.346442 236.281408 
L 365.346442 238.121114 
L 366.493568 238.121114 
L 366.493568 237.803923 
L 367.640695 237.803923 
L 367.640695 238.121114 
L 368.787821 238.121114 
L 368.787821 237.423295 
L 369.934947 237.423295 
L 369.934947 240.97583 
L 371.082073 240.97583 
L 371.082073 245.797127 
L 414.672867 245.797127 
L 414.672867 245.797127 
" clip-path="url(#pcf407d9140)" style="fill: none; stroke: #1f77b4; stroke-width: 1.5; stroke-linecap: square"/>
   </g>
   <g id="line2d_14">
    <path d="M 70.535018 245.670251 
L 72.82927 245.670251 
L 72.82927 245.543375 
L 75.123522 245.543375 
L 75.123522 244.972431 
L 76.270648 244.972431 
L 76.270648 245.289622 
L 77.417775 245.289622 
L 77.417775 244.718679 
L 78.564901 244.718679 
L 78.564901 244.591803 
L 79.712027 244.591803 
L 79.712027 243.196164 
L 82.006279 243.259602 
L 82.006279 241.546773 
L 83.153405 241.546773 
L 83.153405 241.166144 
L 84.300532 241.166144 
L 84.300532 237.740485 
L 85.447658 237.740485 
L 85.447658 235.456713 
L 86.594784 235.456713 
L 86.594784 229.239777 
L 87.74191 229.239777 
L 87.74191 226.575376 
L 88.889036 226.575376 
L 88.889036 215.60058 
L 90.036162 215.60058 
L 90.036162 211.730855 
L 91.183289 211.730855 
L 91.183289 194.158494 
L 92.330415 194.158494 
L 92.330415 197.837906 
L 93.477541 197.837906 
L 93.477541 245.797127 
L 115.272938 245.797127 
L 115.272938 221.183135 
L 116.420064 221.183135 
L 116.420064 23.827132 
L 117.56719 23.827132 
L 117.56719 22.748684 
L 118.714317 22.748684 
L 118.714317 24.715266 
L 119.861443 24.715266 
L 119.861443 22.494932 
L 121.008569 22.494932 
L 121.008569 24.778704 
L 122.155695 24.778704 
L 122.155695 18.561768 
L 123.302821 18.561768 
L 123.302821 23.636818 
L 124.449947 23.636818 
L 124.449947 25.032457 
L 125.597074 25.032457 
L 125.597074 22.685246 
L 126.7442 22.685246 
L 126.7442 29.726878 
L 127.891326 29.726878 
L 127.891326 38.735091 
L 129.038452 38.735091 
L 129.038452 43.937017 
L 130.185578 43.937017 
L 130.185578 41.716683 
L 131.332704 41.716683 
L 131.332704 47.2358 
L 132.479831 47.2358 
L 132.479831 58.337472 
L 133.626957 58.337472 
L 133.626957 60.74812 
L 134.774083 60.74812 
L 134.774083 56.561204 
L 135.921209 56.561204 
L 135.921209 65.125351 
L 137.068335 65.125351 
L 137.068335 68.551009 
L 138.215461 68.551009 
L 138.215461 72.040106 
L 139.362587 72.040106 
L 139.362587 237.677047 
L 140.509714 237.677047 
L 140.509714 245.797127 
L 176.070625 245.797127 
L 176.070625 237.550171 
L 178.364877 237.613609 
L 178.364877 238.628619 
L 179.512003 238.628619 
L 179.512003 240.214572 
L 180.659129 240.214572 
L 180.659129 242.434906 
L 181.806256 242.434906 
L 181.806256 244.147736 
L 182.953382 244.147736 
L 182.953382 245.03587 
L 184.100508 245.03587 
L 184.100508 245.670251 
L 187.541886 245.670251 
L 187.541886 245.797127 
L 189.836139 245.797127 
L 189.836139 245.606813 
L 193.277517 245.606813 
L 193.277517 245.733689 
L 194.424643 245.733689 
L 194.424643 245.416498 
L 195.57177 245.416498 
L 195.57177 245.543375 
L 197.866022 245.543375 
L 197.866022 244.972431 
L 199.013148 244.972431 
L 199.013148 244.782117 
L 200.160274 244.782117 
L 200.160274 244.084298 
L 201.3074 244.084298 
L 201.3074 243.893983 
L 202.454527 243.893983 
L 202.454527 242.878973 
L 203.601653 242.878973 
L 203.601653 243.069288 
L 204.748779 243.069288 
L 204.748779 241.800525 
L 205.895905 241.800525 
L 205.895905 240.214572 
L 207.043031 240.214572 
L 207.043031 238.94581 
L 208.190157 238.94581 
L 208.190157 240.97583 
L 209.337284 240.97583 
L 209.337284 245.797127 
L 254.075204 245.797127 
L 254.075204 237.867362 
L 255.22233 237.867362 
L 255.22233 216.742466 
L 256.369456 216.742466 
L 256.369456 217.567162 
L 257.516583 217.567162 
L 257.516583 217.884353 
L 258.663709 217.884353 
L 258.663709 218.64561 
L 259.810835 218.64561 
L 259.810835 216.552152 
L 260.957961 216.552152 
L 260.957961 220.358439 
L 262.105087 220.358439 
L 262.105087 221.754078 
L 263.252213 221.754078 
L 263.252213 218.138105 
L 264.39934 218.138105 
L 264.39934 220.67563 
L 265.546466 220.67563 
L 265.546466 219.089677 
L 266.693592 219.089677 
L 266.693592 223.784098 
L 267.840718 223.784098 
L 267.840718 220.929383 
L 268.987844 220.929383 
L 268.987844 221.880954 
L 270.13497 221.880954 
L 270.13497 222.769088 
L 271.282097 222.769088 
L 271.282097 223.340031 
L 272.429223 223.340031 
L 272.429223 224.799108 
L 273.576349 224.799108 
L 273.576349 222.007831 
L 274.723475 222.007831 
L 274.723475 225.370051 
L 275.870601 225.370051 
L 275.870601 222.769088 
L 277.017727 222.769088 
L 277.017727 225.877556 
L 278.164854 225.877556 
L 278.164854 245.797127 
L 369.934947 245.797127 
L 369.934947 241.610211 
L 371.082073 241.610211 
L 371.082073 238.501743 
L 372.229199 238.501743 
L 372.229199 237.359857 
L 373.376325 237.359857 
L 373.376325 238.438305 
L 374.523452 238.438305 
L 374.523452 238.818933 
L 375.670578 238.818933 
L 375.670578 239.453315 
L 377.96483 239.453315 
L 377.96483 238.818933 
L 379.111956 238.818933 
L 379.111956 239.136124 
L 380.259082 239.136124 
L 380.259082 238.94581 
L 381.406209 238.94581 
L 381.406209 240.151134 
L 382.553335 240.151134 
L 382.553335 240.024258 
L 383.700461 240.024258 
L 383.700461 241.102706 
L 384.847587 241.102706 
L 384.847587 240.595201 
L 385.994713 240.595201 
L 385.994713 240.97583 
L 387.141839 240.97583 
L 387.141839 241.546773 
L 388.288966 241.546773 
L 388.288966 241.99084 
L 390.583218 241.927401 
L 390.583218 242.498345 
L 391.730344 242.498345 
L 391.730344 243.00585 
L 392.87747 243.00585 
L 392.87747 242.878973 
L 394.024596 242.878973 
L 394.024596 243.259602 
L 395.171723 243.259602 
L 395.171723 243.830545 
L 396.318849 243.830545 
L 396.318849 243.513355 
L 397.465975 243.513355 
L 397.465975 243.259602 
L 398.613101 243.259602 
L 398.613101 243.703669 
L 400.907353 243.767107 
L 400.907353 244.084298 
L 402.05448 244.084298 
L 402.05448 244.528365 
L 403.201606 244.528365 
L 403.201606 244.02086 
L 404.348732 244.02086 
L 404.348732 244.528365 
L 405.495858 244.528365 
L 405.495858 245.03587 
L 406.642984 245.03587 
L 406.642984 244.401488 
L 407.79011 244.401488 
L 407.79011 245.226184 
L 408.937237 245.226184 
L 408.937237 245.479936 
L 411.231489 245.479936 
L 411.231489 245.670251 
L 412.378615 245.670251 
L 412.378615 245.797127 
L 413.525741 245.797127 
L 413.525741 245.670251 
L 414.672867 245.670251 
L 414.672867 245.670251 
" clip-path="url(#pcf407d9140)" style="fill: none; stroke: #808080; stroke-width: 1.5; stroke-linecap: square"/>
   </g>
   <g id="patch_3">
    <path d="M 53.328125 257.158895 
L 53.328125 7.2 
" style="fill: none; stroke: #000000; stroke-width: 0.8; stroke-linejoin: miter; stroke-linecap: square"/>
   </g>
   <g id="patch_4">
    <path d="M 431.87976 257.158895 
L 431.87976 7.2 
" style="fill: none; stroke: #000000; stroke-width: 0.8; stroke-linejoin: miter; stroke-linecap: square"/>
   </g>
   <g id="patch_5">
    <path d="M 53.328125 257.158895 
L 431.87976 257.158895 
" style="fill: none; stroke: #000000; stroke-width: 0.8; stroke-linejoin: miter; stroke-linecap: square"/>
   </g>
   <g id="patch_6">
    <path d="M 53.328125 7.2 
L 431.87976 7.2 
" style="fill: none; stroke: #000000; stroke-width: 0.8; stroke-linejoin: miter; stroke-linecap: square"/>
   </g>
   <g id="legend_1">
    <g id="patch_7">
     <path d="M 314.040697 44.55625 
L 424.87976 44.55625 
Q 426.87976 44.55625 426.87976 42.55625 
L 426.87976 14.2 
Q 426.87976 12.2 424.87976 12.2 
L 314.040697 12.2 
Q 312.040697 12.2 312.040697 14.2 
L 312.040697 42.55625 
Q 312.040697 44.55625 314.040697 44.55625 
z
" style="fill: #ffffff; opacity: 0.8; stroke: #cccccc; stroke-linejoin: miter"/>
    </g>
    <g id="line2d_15">
     <path d="M 316.040697 20.298437 
L 316.040697 20.298437 
L 326.040697 20.298437 
L 326.040697 20.298437 
L 336.040697 20.298437 
" style="fill: none; stroke: #1f77b4; stroke-width: 1.5; stroke-linecap: square"/>
    </g>
    <g id="text_15">
     <!-- pulse:0 -->
     <g transform="translate(344.040697 23.798437) scale(0.1 -0.1)">
      <defs>
       <path id="DejaVuSans-70" d="M 1159 525 
L 1159 -1331 
L 581 -1331 
L 581 3500 
L 1159 3500 
L 1159 2969 
Q 1341 3281 1617 3432 
Q 1894 3584 2278 3584 
Q 2916 3584 3314 3078 
Q 3713 2572 3713 1747 
Q 3713 922 3314 415 
Q 2916 -91 2278 -91 
Q 1894 -91 1617 61 
Q 1341 213 1159 525 
z
M 3116 1747 
Q 3116 2381 2855 2742 
Q 2594 3103 2138 3103 
Q 1681 3103 1420 2742 
Q 1159 2381 1159 1747 
Q 1159 1113 1420 752 
Q 1681 391 2138 391 
Q 2594 391 2855 752 
Q 3116 1113 3116 1747 
z
" transform="scale(0.015625)"/>
       <path id="DejaVuSans-6c" d="M 603 4863 
L 1178 4863 
L 1178 0 
L 603 0 
L 603 4863 
z
" transform="scale(0.015625)"/>
       <path id="DejaVuSans-65" d="M 3597 1894 
L 3597 1613 
L 953 1613 
Q 991 1019 1311 708 
Q 1631 397 2203 397 
Q 2534 397 2845 478 
Q 3156 559 3463 722 
L 3463 178 
Q 3153 47 2828 -22 
Q 2503 -91 2169 -91 
Q 1331 -91 842 396 
Q 353 884 353 1716 
Q 353 2575 817 3079 
Q 1281 3584 2069 3584 
Q 2775 3584 3186 3129 
Q 3597 2675 3597 1894 
z
M 3022 2063 
Q 3016 2534 2758 2815 
Q 2500 3097 2075 3097 
Q 1594 3097 1305 2825 
Q 1016 2553 972 2059 
L 3022 2063 
z
" transform="scale(0.015625)"/>
       <path id="DejaVuSans-3a" d="M 750 794 
L 1409 794 
L 1409 0 
L 750 0 
L 750 794 
z
M 750 3309 
L 1409 3309 
L 1409 2516 
L 750 2516 
L 750 3309 
z
" transform="scale(0.015625)"/>
      </defs>
      <use xlink:href="#DejaVuSans-70"/>
      <use xlink:href="#DejaVuSans-75" transform="translate(63.476562 0)"/>
      <use xlink:href="#DejaVuSans-6c" transform="translate(126.855469 0)"/>
      <use xlink:href="#DejaVuSans-73" transform="translate(154.638672 0)"/>
      <use xlink:href="#DejaVuSans-65" transform="translate(206.738281 0)"/>
      <use xlink:href="#DejaVuSans-3a" transform="translate(268.261719 0)"/>
      <use xlink:href="#DejaVuSans-30" transform="translate(301.953125 0)"/>
     </g>
    </g>
    <g id="line2d_16">
     <path d="M 316.040697 34.976562 
L 316.040697 34.976562 
L 326.040697 34.976562 
L 326.040697 34.976562 
L 336.040697 34.976562 
" style="fill: none; stroke: #808080; stroke-width: 1.5; stroke-linecap: square"/>
    </g>
    <g id="text_16">
     <!-- blocked-pulse:0 -->
     <g transform="translate(344.040697 38.476562) scale(0.1 -0.1)">
      <defs>
       <path id="DejaVuSans-62" d="M 3116 1747 
Q 3116 2381 2855 2742 
Q 2594 3103 2138 3103 
Q 1681 3103 1420 2742 
Q 1159 2381 1159 1747 
Q 1159 1113 1420 752 
Q 1681 391 2138 391 
Q 2594 391 2855 752 
Q 3116 1113 3116 1747 
z
M 1159 2969 
Q 1341 3281 1617 3432 
Q 1894 3584 2278 3584 
Q 2916 3584 3314 3078 
Q 3713 2572 3713 1747 
Q 3713 922 3314 415 
Q 2916 -91 2278 -91 
Q 1894 -91 1617 61 
Q 1341 213 1159 525 
L 1159 0 
L 581 0 
L 581 4863 
L 1159 4863 
L 1159 2969 
z
" transform="scale(0.015625)"/>
       <path id="DejaVuSans-6b" d="M 581 4863 
L 1159 4863 
L 1159 1991 
L 2875 3500 
L 3609 3500 
L 1753 1863 
L 3688 0 
L 2938 0 
L 1159 1709 
L 1159 0 
L 581 0 
L 581 4863 
z
" transform="scale(0.015625)"/>
       <path id="DejaVuSans-64" d="M 2906 2969 
L 2906 4863 
L 3481 4863 
L 3481 0 
L 2906 0 
L 2906 525 
Q 2725 213 2448 61 
Q 2172 -91 1784 -91 
Q 1150 -91 751 415 
Q 353 922 353 1747 
Q 353 2572 751 3078 
Q 1150 3584 1784 3584 
Q 2172 3584 2448 3432 
Q 2725 3281 2906 2969 
z
M 947 1747 
Q 947 1113 1208 752 
Q 1469 391 1925 391 
Q 2381 391 2643 752 
Q 2906 1113 2906 1747 
Q 2906 2381 2643 2742 
Q 2381 3103 1925 3103 
Q 1469 3103 1208 2742 
Q 947 2381 947 1747 
z
" transform="scale(0.015625)"/>
       <path id="DejaVuSans-2d" d="M 313 2009 
L 1997 2009 
L 1997 1497 
L 313 1497 
L 313 2009 
z
" transform="scale(0.015625)"/>
      </defs>
      <use xlink:href="#DejaVuSans-62"/>
      <use xlink:href="#DejaVuSans-6c" transform="translate(63.476562 0)"/>
      <use xlink:href="#DejaVuSans-6f" transform="translate(91.259766 0)"/>
      <use xlink:href="#DejaVuSans-63" transform="translate(152.441406 0)"/>
      <use xlink:href="#DejaVuSans-6b" transform="translate(207.421875 0)"/>
      <use xlink:href="#DejaVuSans-65" transform="translate(261.707031 0)"/>
      <use xlink:href="#DejaVuSans-64" transform="translate(323.230469 0)"/>
      <use xlink:href="#DejaVuSans-2d" transform="translate(386.707031 0)"/>
      <use xlink:href="#DejaVuSans-70" transform="translate(422.791016 0)"/>
      <use xlink:href="#DejaVuSans-75" transform="translate(486.267578 0)"/>
      <use xlink:href="#DejaVuSans-6c" transform="translate(549.646484 0)"/>
      <use xlink:href="#DejaVuSans-73" transform="translate(577.429688 0)"/>
      <use xlink:href="#DejaVuSans-65" transform="translate(629.529297 0)"/>
      <use xlink:href="#DejaVuSans-3a" transform="translate(691.052734 0)"/>
      <use xlink:href="#DejaVuSans-30" transform="translate(724.744141 0)"/>
     </g>
    </g>
   </g>
  </g>
  <g id="axes_2">
   <g id="patch_8">
    <path d="M 486.647885 257.158895 
L 865.19952 257.158895 
L 865.19952 7.2 
L 486.647885 7.2 
z
" style="fill: #ffffff"/>
   </g>
   <g id="matplotlib.axis_3">
    <g id="xtick_5">
     <g id="line2d_17">
      <g>
       <use xlink:href="#m7b784ae547" x="510.067549" y="257.158895" style="stroke: #000000; stroke-width: 0.8"/>
      </g>
     </g>
     <g id="text_17">
      <!-- 2 -->
      <g transform="translate(506.886299 271.757332) scale(0.1 -0.1)">
       <use xlink:href="#DejaVuSans-32"/>
      </g>
     </g>
    </g>
    <g id="xtick_6">
     <g id="line2d_18">
      <g>
       <use xlink:href="#m7b784ae547" x="585.930313" y="257.158895" style="stroke: #000000; stroke-width: 0.8"/>
      </g>
     </g>
     <g id="text_18">
      <!-- 4 -->
      <g transform="translate(582.749063 271.757332) scale(0.1 -0.1)">
       <use xlink:href="#DejaVuSans-34"/>
      </g>
     </g>
    </g>
    <g id="xtick_7">
     <g id="line2d_19">
      <g>
       <use xlink:href="#m7b784ae547" x="661.793077" y="257.158895" style="stroke: #000000; stroke-width: 0.8"/>
      </g>
     </g>
     <g id="text_19">
      <!-- 6 -->
      <g transform="translate(658.611827 271.757332) scale(0.1 -0.1)">
       <defs>
        <path id="DejaVuSans-36" d="M 2113 2584 
Q 1688 2584 1439 2293 
Q 1191 2003 1191 1497 
Q 1191 994 1439 701 
Q 1688 409 2113 409 
Q 2538 409 2786 701 
Q 3034 994 3034 1497 
Q 3034 2003 2786 2293 
Q 2538 2584 2113 2584 
z
M 3366 4563 
L 3366 3988 
Q 3128 4100 2886 4159 
Q 2644 4219 2406 4219 
Q 1781 4219 1451 3797 
Q 1122 3375 1075 2522 
Q 1259 2794 1537 2939 
Q 1816 3084 2150 3084 
Q 2853 3084 3261 2657 
Q 3669 2231 3669 1497 
Q 3669 778 3244 343 
Q 2819 -91 2113 -91 
Q 1303 -91 875 529 
Q 447 1150 447 2328 
Q 447 3434 972 4092 
Q 1497 4750 2381 4750 
Q 2619 4750 2861 4703 
Q 3103 4656 3366 4563 
z
" transform="scale(0.015625)"/>
       </defs>
       <use xlink:href="#DejaVuSans-36"/>
      </g>
     </g>
    </g>
    <g id="xtick_8">
     <g id="line2d_20">
      <g>
       <use xlink:href="#m7b784ae547" x="737.655841" y="257.158895" style="stroke: #000000; stroke-width: 0.8"/>
      </g>
     </g>
     <g id="text_20">
      <!-- 8 -->
      <g transform="translate(734.474591 271.757332) scale(0.1 -0.1)">
       <defs>
        <path id="DejaVuSans-38" d="M 2034 2216 
Q 1584 2216 1326 1975 
Q 1069 1734 1069 1313 
Q 1069 891 1326 650 
Q 1584 409 2034 409 
Q 2484 409 2743 651 
Q 3003 894 3003 1313 
Q 3003 1734 2745 1975 
Q 2488 2216 2034 2216 
z
M 1403 2484 
Q 997 2584 770 2862 
Q 544 3141 544 3541 
Q 544 4100 942 4425 
Q 1341 4750 2034 4750 
Q 2731 4750 3128 4425 
Q 3525 4100 3525 3541 
Q 3525 3141 3298 2862 
Q 3072 2584 2669 2484 
Q 3125 2378 3379 2068 
Q 3634 1759 3634 1313 
Q 3634 634 3220 271 
Q 2806 -91 2034 -91 
Q 1263 -91 848 271 
Q 434 634 434 1313 
Q 434 1759 690 2068 
Q 947 2378 1403 2484 
z
M 1172 3481 
Q 1172 3119 1398 2916 
Q 1625 2713 2034 2713 
Q 2441 2713 2670 2916 
Q 2900 3119 2900 3481 
Q 2900 3844 2670 4047 
Q 2441 4250 2034 4250 
Q 1625 4250 1398 4047 
Q 1172 3844 1172 3481 
z
" transform="scale(0.015625)"/>
       </defs>
       <use xlink:href="#DejaVuSans-38"/>
      </g>
     </g>
    </g>
    <g id="xtick_9">
     <g id="line2d_21">
      <g>
       <use xlink:href="#m7b784ae547" x="813.518605" y="257.158895" style="stroke: #000000; stroke-width: 0.8"/>
      </g>
     </g>
     <g id="text_21">
      <!-- 10 -->
      <g transform="translate(807.156105 271.757332) scale(0.1 -0.1)">
       <use xlink:href="#DejaVuSans-31"/>
       <use xlink:href="#DejaVuSans-30" transform="translate(63.623047 0)"/>
      </g>
     </g>
    </g>
    <g id="text_22">
     <!-- wavelength [Å] -->
     <g transform="translate(637.886202 287.119832) scale(0.1 -0.1)">
      <defs>
       <path id="DejaVuSans-77" d="M 269 3500 
L 844 3500 
L 1563 769 
L 2278 3500 
L 2956 3500 
L 3675 769 
L 4391 3500 
L 4966 3500 
L 4050 0 
L 3372 0 
L 2619 2869 
L 1863 0 
L 1184 0 
L 269 3500 
z
" transform="scale(0.015625)"/>
       <path id="DejaVuSans-76" d="M 191 3500 
L 800 3500 
L 1894 563 
L 2988 3500 
L 3597 3500 
L 2284 0 
L 1503 0 
L 191 3500 
z
" transform="scale(0.015625)"/>
       <path id="DejaVuSans-67" d="M 2906 1791 
Q 2906 2416 2648 2759 
Q 2391 3103 1925 3103 
Q 1463 3103 1205 2759 
Q 947 2416 947 1791 
Q 947 1169 1205 825 
Q 1463 481 1925 481 
Q 2391 481 2648 825 
Q 2906 1169 2906 1791 
z
M 3481 434 
Q 3481 -459 3084 -895 
Q 2688 -1331 1869 -1331 
Q 1566 -1331 1297 -1286 
Q 1028 -1241 775 -1147 
L 775 -588 
Q 1028 -725 1275 -790 
Q 1522 -856 1778 -856 
Q 2344 -856 2625 -561 
Q 2906 -266 2906 331 
L 2906 616 
Q 2728 306 2450 153 
Q 2172 0 1784 0 
Q 1141 0 747 490 
Q 353 981 353 1791 
Q 353 2603 747 3093 
Q 1141 3584 1784 3584 
Q 2172 3584 2450 3431 
Q 2728 3278 2906 2969 
L 2906 3500 
L 3481 3500 
L 3481 434 
z
" transform="scale(0.015625)"/>
       <path id="DejaVuSans-68" d="M 3513 2113 
L 3513 0 
L 2938 0 
L 2938 2094 
Q 2938 2591 2744 2837 
Q 2550 3084 2163 3084 
Q 1697 3084 1428 2787 
Q 1159 2491 1159 1978 
L 1159 0 
L 581 0 
L 581 4863 
L 1159 4863 
L 1159 2956 
Q 1366 3272 1645 3428 
Q 1925 3584 2291 3584 
Q 2894 3584 3203 3211 
Q 3513 2838 3513 2113 
z
" transform="scale(0.015625)"/>
       <path id="DejaVuSans-c5" d="M 2663 5081 
Q 2663 5278 2523 5417 
Q 2384 5556 2188 5556 
Q 1988 5556 1852 5420 
Q 1716 5284 1716 5081 
Q 1716 4884 1853 4746 
Q 1991 4609 2188 4609 
Q 2384 4609 2523 4746 
Q 2663 4884 2663 5081 
z
M 2188 4044 
L 1338 1722 
L 3041 1722 
L 2188 4044 
z
M 1716 4366 
Q 1525 4494 1428 4673 
Q 1331 4853 1331 5081 
Q 1331 5441 1579 5691 
Q 1828 5941 2188 5941 
Q 2544 5941 2795 5689 
Q 3047 5438 3047 5081 
Q 3047 4863 2948 4678 
Q 2850 4494 2663 4366 
L 4325 0 
L 3669 0 
L 3244 1197 
L 1141 1197 
L 716 0 
L 50 0 
L 1716 4366 
z
" transform="scale(0.015625)"/>
      </defs>
      <use xlink:href="#DejaVuSans-77"/>
      <use xlink:href="#DejaVuSans-61" transform="translate(81.787109 0)"/>
      <use xlink:href="#DejaVuSans-76" transform="translate(143.066406 0)"/>
      <use xlink:href="#DejaVuSans-65" transform="translate(202.246094 0)"/>
      <use xlink:href="#DejaVuSans-6c" transform="translate(263.769531 0)"/>
      <use xlink:href="#DejaVuSans-65" transform="translate(291.552734 0)"/>
      <use xlink:href="#DejaVuSans-6e" transform="translate(353.076172 0)"/>
      <use xlink:href="#DejaVuSans-67" transform="translate(416.455078 0)"/>
      <use xlink:href="#DejaVuSans-74" transform="translate(479.931641 0)"/>
      <use xlink:href="#DejaVuSans-68" transform="translate(519.140625 0)"/>
      <use xlink:href="#DejaVuSans-20" transform="translate(582.519531 0)"/>
      <use xlink:href="#DejaVuSans-5b" transform="translate(614.306641 0)"/>
      <use xlink:href="#DejaVuSans-c5" transform="translate(653.320312 0)"/>
      <use xlink:href="#DejaVuSans-5d" transform="translate(721.728516 0)"/>
     </g>
    </g>
   </g>
   <g id="matplotlib.axis_4">
    <g id="ytick_9">
     <g id="line2d_22">
      <g>
       <use xlink:href="#m0bb497fb14" x="486.647885" y="245.797127" style="stroke: #000000; stroke-width: 0.8"/>
      </g>
     </g>
     <g id="text_23">
      <!-- 0 -->
      <g transform="translate(473.285385 249.596346) scale(0.1 -0.1)">
       <use xlink:href="#DejaVuSans-30"/>
      </g>
     </g>
    </g>
    <g id="ytick_10">
     <g id="line2d_23">
      <g>
       <use xlink:href="#m0bb497fb14" x="486.647885" y="209.485948" style="stroke: #000000; stroke-width: 0.8"/>
      </g>
     </g>
     <g id="text_24">
      <!-- 500 -->
      <g transform="translate(460.560385 213.285167) scale(0.1 -0.1)">
       <use xlink:href="#DejaVuSans-35"/>
       <use xlink:href="#DejaVuSans-30" transform="translate(63.623047 0)"/>
       <use xlink:href="#DejaVuSans-30" transform="translate(127.246094 0)"/>
      </g>
     </g>
    </g>
    <g id="ytick_11">
     <g id="line2d_24">
      <g>
       <use xlink:href="#m0bb497fb14" x="486.647885" y="173.174769" style="stroke: #000000; stroke-width: 0.8"/>
      </g>
     </g>
     <g id="text_25">
      <!-- 1000 -->
      <g transform="translate(454.197885 176.973988) scale(0.1 -0.1)">
       <use xlink:href="#DejaVuSans-31"/>
       <use xlink:href="#DejaVuSans-30" transform="translate(63.623047 0)"/>
       <use xlink:href="#DejaVuSans-30" transform="translate(127.246094 0)"/>
       <use xlink:href="#DejaVuSans-30" transform="translate(190.869141 0)"/>
      </g>
     </g>
    </g>
    <g id="ytick_12">
     <g id="line2d_25">
      <g>
       <use xlink:href="#m0bb497fb14" x="486.647885" y="136.86359" style="stroke: #000000; stroke-width: 0.8"/>
      </g>
     </g>
     <g id="text_26">
      <!-- 1500 -->
      <g transform="translate(454.197885 140.662808) scale(0.1 -0.1)">
       <use xlink:href="#DejaVuSans-31"/>
       <use xlink:href="#DejaVuSans-35" transform="translate(63.623047 0)"/>
       <use xlink:href="#DejaVuSans-30" transform="translate(127.246094 0)"/>
       <use xlink:href="#DejaVuSans-30" transform="translate(190.869141 0)"/>
      </g>
     </g>
    </g>
    <g id="ytick_13">
     <g id="line2d_26">
      <g>
       <use xlink:href="#m0bb497fb14" x="486.647885" y="100.55241" style="stroke: #000000; stroke-width: 0.8"/>
      </g>
     </g>
     <g id="text_27">
      <!-- 2000 -->
      <g transform="translate(454.197885 104.351629) scale(0.1 -0.1)">
       <use xlink:href="#DejaVuSans-32"/>
       <use xlink:href="#DejaVuSans-30" transform="translate(63.623047 0)"/>
       <use xlink:href="#DejaVuSans-30" transform="translate(127.246094 0)"/>
       <use xlink:href="#DejaVuSans-30" transform="translate(190.869141 0)"/>
      </g>
     </g>
    </g>
    <g id="ytick_14">
     <g id="line2d_27">
      <g>
       <use xlink:href="#m0bb497fb14" x="486.647885" y="64.241231" style="stroke: #000000; stroke-width: 0.8"/>
      </g>
     </g>
     <g id="text_28">
      <!-- 2500 -->
      <g transform="translate(454.197885 68.04045) scale(0.1 -0.1)">
       <use xlink:href="#DejaVuSans-32"/>
       <use xlink:href="#DejaVuSans-35" transform="translate(63.623047 0)"/>
       <use xlink:href="#DejaVuSans-30" transform="translate(127.246094 0)"/>
       <use xlink:href="#DejaVuSans-30" transform="translate(190.869141 0)"/>
      </g>
     </g>
    </g>
    <g id="ytick_15">
     <g id="line2d_28">
      <g>
       <use xlink:href="#m0bb497fb14" x="486.647885" y="27.930052" style="stroke: #000000; stroke-width: 0.8"/>
      </g>
     </g>
     <g id="text_29">
      <!-- 3000 -->
      <g transform="translate(454.197885 31.729271) scale(0.1 -0.1)">
       <use xlink:href="#DejaVuSans-33"/>
       <use xlink:href="#DejaVuSans-30" transform="translate(63.623047 0)"/>
       <use xlink:href="#DejaVuSans-30" transform="translate(127.246094 0)"/>
       <use xlink:href="#DejaVuSans-30" transform="translate(190.869141 0)"/>
      </g>
     </g>
    </g>
    <g id="text_30">
     <!-- [counts] -->
     <g transform="translate(448.118197 152.791947) rotate(-90) scale(0.1 -0.1)">
      <use xlink:href="#DejaVuSans-5b"/>
      <use xlink:href="#DejaVuSans-63" transform="translate(39.013672 0)"/>
      <use xlink:href="#DejaVuSans-6f" transform="translate(93.994141 0)"/>
      <use xlink:href="#DejaVuSans-75" transform="translate(155.175781 0)"/>
      <use xlink:href="#DejaVuSans-6e" transform="translate(218.554688 0)"/>
      <use xlink:href="#DejaVuSans-74" transform="translate(281.933594 0)"/>
      <use xlink:href="#DejaVuSans-73" transform="translate(321.142578 0)"/>
      <use xlink:href="#DejaVuSans-5d" transform="translate(373.242188 0)"/>
     </g>
    </g>
   </g>
   <g id="line2d_29">
    <path d="M 503.854777 245.797127 
L 523.355922 245.724505 
L 523.355922 245.57926 
L 526.797301 245.506638 
L 526.797301 244.925659 
L 527.944427 244.925659 
L 527.944427 244.489925 
L 529.091553 244.489925 
L 529.091553 243.618456 
L 530.238679 243.618456 
L 530.238679 242.311254 
L 531.385805 242.311254 
L 531.385805 239.842094 
L 532.532932 239.842094 
L 532.532932 235.702619 
L 533.680058 235.702619 
L 533.680058 229.747586 
L 534.827184 229.747586 
L 534.827184 219.144722 
L 535.97431 219.144722 
L 535.97431 207.08941 
L 537.121436 207.08941 
L 537.121436 180.727494 
L 538.268562 180.727494 
L 538.268562 157.270472 
L 539.415689 157.270472 
L 539.415689 146.667608 
L 540.562815 146.667608 
L 540.562815 137.226701 
L 541.709941 137.226701 
L 541.709941 126.986949 
L 542.857067 126.986949 
L 542.857067 117.182931 
L 544.004193 117.182931 
L 544.004193 114.278036 
L 545.151319 114.278036 
L 545.151319 104.691885 
L 546.298446 104.691885 
L 546.298446 92.346084 
L 547.445572 92.346084 
L 547.445572 91.184126 
L 548.592698 91.184126 
L 548.592698 86.027939 
L 549.739824 86.027939 
L 549.739824 78.475214 
L 550.88695 78.475214 
L 550.88695 67.654482 
L 552.034076 67.654482 
L 552.034076 68.162839 
L 553.181203 68.162839 
L 553.181203 61.554204 
L 554.328329 61.554204 
L 554.328329 63.442385 
L 555.475455 63.442385 
L 555.475455 65.475811 
L 556.622581 65.475811 
L 556.622581 70.849866 
L 557.769707 70.849866 
L 557.769707 85.083848 
L 558.916833 85.083848 
L 558.916833 94.669999 
L 560.06396 94.669999 
L 560.06396 111.227897 
L 561.211086 111.227897 
L 561.211086 131.852647 
L 562.358212 131.852647 
L 562.358212 142.019777 
L 563.505338 142.019777 
L 563.505338 157.633584 
L 564.652464 157.633584 
L 564.652464 172.59379 
L 565.799591 172.59379 
L 565.799591 180.582249 
L 566.946717 180.582249 
L 566.946717 198.15686 
L 568.093843 198.15686 
L 568.093843 203.748782 
L 569.240969 203.748782 
L 569.240969 215.876715 
L 570.388095 215.876715 
L 570.388095 228.077272 
L 571.535221 228.077272 
L 571.535221 237.953912 
L 572.682347 237.953912 
L 572.682347 245.216148 
L 573.829474 245.216148 
L 573.829474 244.853036 
L 574.9766 244.853036 
L 574.9766 243.255345 
L 576.123726 243.255345 
L 576.123726 239.914716 
L 577.270852 239.914716 
L 577.270852 236.210976 
L 578.417978 236.210976 
L 578.417978 226.18909 
L 579.565104 226.18909 
L 579.565104 212.608709 
L 580.712231 212.608709 
L 580.712231 204.257138 
L 581.859357 204.257138 
L 581.859357 193.291162 
L 583.006483 193.291162 
L 583.006483 187.190884 
L 584.153609 187.190884 
L 584.153609 174.990328 
L 585.300735 174.990328 
L 585.300735 169.180539 
L 586.447861 169.180539 
L 586.447861 161.990926 
L 587.594988 161.990926 
L 587.594988 151.170194 
L 588.742114 151.170194 
L 588.742114 148.192678 
L 589.88924 148.192678 
L 589.88924 141.947155 
L 591.036366 141.947155 
L 591.036366 140.930442 
L 592.183492 140.930442 
L 592.183492 133.886073 
L 593.330619 133.886073 
L 593.330619 133.450339 
L 594.477745 133.450339 
L 594.477745 130.763312 
L 595.624871 130.763312 
L 595.624871 132.86936 
L 596.771997 132.86936 
L 596.771997 125.389257 
L 597.919123 125.389257 
L 597.919123 124.227299 
L 599.066249 124.227299 
L 599.066249 126.914327 
L 600.213375 126.914327 
L 600.213375 130.908556 
L 601.360502 130.908556 
L 601.360502 137.154079 
L 602.507628 137.154079 
L 602.507628 141.947155 
L 603.654754 141.947155 
L 603.654754 144.997294 
L 604.80188 144.997294 
L 604.80188 156.979983 
L 605.949006 156.979983 
L 605.949006 161.482569 
L 607.096132 161.482569 
L 607.096132 163.515995 
L 608.243259 163.515995 
L 608.243259 167.147113 
L 609.390385 167.147113 
L 609.390385 174.264104 
L 610.537511 174.264104 
L 610.537511 178.694068 
L 611.684637 178.694068 
L 611.684637 182.906165 
L 612.831763 182.906165 
L 612.831763 187.118262 
L 613.97889 187.118262 
L 613.97889 192.419694 
L 615.126016 192.419694 
L 615.126016 193.145917 
L 616.273142 193.145917 
L 616.273142 198.810461 
L 617.420268 198.810461 
L 617.420268 202.15109 
L 618.567394 202.15109 
L 618.567394 204.765495 
L 619.71452 204.765495 
L 619.71452 206.072697 
L 620.861647 206.072697 
L 620.861647 213.262311 
L 622.008773 213.262311 
L 622.008773 215.005247 
L 623.155899 215.005247 
L 623.155899 216.385072 
L 624.303025 216.385072 
L 624.303025 222.122238 
L 625.450151 222.122238 
L 625.450151 225.172377 
L 626.597277 225.172377 
L 626.597277 228.004649 
L 627.744403 228.004649 
L 627.744403 228.295139 
L 628.89153 228.295139 
L 628.89153 230.691677 
L 630.038656 230.691677 
L 630.038656 237.808668 
L 631.185782 237.808668 
L 631.185782 241.58503 
L 632.332908 241.58503 
L 632.332908 244.489925 
L 633.480034 244.489925 
L 633.480034 245.216148 
L 634.62716 245.216148 
L 634.62716 245.57926 
L 635.774287 245.57926 
L 635.774287 244.998281 
L 636.921413 244.998281 
L 636.921413 244.780414 
L 638.068539 244.780414 
L 638.068539 243.255345 
L 639.215665 243.255345 
L 639.215665 242.311254 
L 640.362791 242.311254 
L 640.362791 240.423073 
L 641.509918 240.423073 
L 641.509918 237.445556 
L 642.657044 237.445556 
L 642.657044 235.484752 
L 643.80417 235.484752 
L 643.80417 229.892831 
L 644.951296 229.892831 
L 644.951296 230.619054 
L 646.098422 230.619054 
L 646.098422 229.965453 
L 647.245548 229.965453 
L 647.245548 228.222516 
L 648.392674 228.222516 
L 648.392674 226.987936 
L 649.539801 226.987936 
L 649.539801 227.496293 
L 650.686927 227.496293 
L 650.686927 225.608111 
L 651.834053 225.608111 
L 651.834053 224.95451 
L 652.981179 224.95451 
L 652.981179 223.429441 
L 654.128305 223.429441 
L 654.128305 222.921084 
L 655.275431 222.921084 
L 655.275431 222.122238 
L 656.422558 222.122238 
L 656.422558 219.943567 
L 657.569684 219.943567 
L 657.569684 217.910141 
L 658.71681 217.910141 
L 658.71681 218.926854 
L 659.863936 218.926854 
L 659.863936 217.329163 
L 661.011062 217.329163 
L 661.011062 214.424268 
L 662.158189 214.424268 
L 662.158189 216.966051 
L 663.305315 216.966051 
L 663.305315 216.239827 
L 664.452441 216.239827 
L 664.452441 215.586226 
L 665.599567 215.586226 
L 665.599567 213.117066 
L 666.746693 213.117066 
L 666.746693 213.698045 
L 667.893819 213.698045 
L 667.893819 213.189688 
L 670.188072 213.262311 
L 670.188072 212.899199 
L 671.335198 212.899199 
L 671.335198 208.251368 
L 672.482324 208.251368 
L 672.482324 214.642135 
L 673.62945 214.642135 
L 673.62945 212.536087 
L 674.776576 212.536087 
L 674.776576 208.178745 
L 675.923702 208.178745 
L 675.923702 210.938395 
L 677.070829 210.938395 
L 677.070829 208.178745 
L 678.217955 208.178745 
L 678.217955 209.994304 
L 679.365081 209.994304 
L 679.365081 212.31822 
L 680.512207 212.31822 
L 680.512207 208.977591 
L 681.659333 208.977591 
L 681.659333 213.044443 
L 682.806459 213.044443 
L 682.806459 215.658848 
L 683.953586 215.658848 
L 683.953586 213.262311 
L 685.100712 213.262311 
L 685.100712 215.223114 
L 686.247838 215.223114 
L 686.247838 218.418498 
L 687.394964 218.418498 
L 687.394964 220.306679 
L 688.54209 220.306679 
L 688.54209 221.686504 
L 689.689217 221.686504 
L 689.689217 224.518776 
L 690.836343 224.518776 
L 690.836343 228.585628 
L 691.983469 228.585628 
L 691.983469 226.770069 
L 693.130595 226.770069 
L 693.130595 230.836921 
L 694.277721 230.836921 
L 694.277721 233.596571 
L 695.424847 233.596571 
L 695.424847 235.049018 
L 696.571974 235.049018 
L 696.571974 235.484752 
L 697.7191 235.484752 
L 697.7191 238.171779 
L 698.866226 238.171779 
L 698.866226 239.478982 
L 700.013352 239.478982 
L 700.013352 240.931429 
L 701.160478 240.931429 
L 701.160478 242.81961 
L 702.307604 242.81961 
L 702.307604 243.400589 
L 703.45473 243.400589 
L 703.45473 242.892233 
L 704.601857 242.892233 
L 704.601857 241.657653 
L 705.748983 241.657653 
L 705.748983 240.423073 
L 706.896109 240.423073 
L 706.896109 238.607514 
L 708.043235 238.607514 
L 708.043235 236.138353 
L 709.190361 236.138353 
L 709.190361 235.049018 
L 710.337487 235.049018 
L 710.337487 233.378704 
L 711.484614 233.378704 
L 711.484614 233.741816 
L 712.63174 233.741816 
L 712.63174 231.563145 
L 713.778866 231.563145 
L 713.778866 228.585628 
L 714.925992 228.585628 
L 714.925992 232.797725 
L 716.073118 232.797725 
L 716.073118 229.674964 
L 717.220245 229.674964 
L 717.220245 226.406957 
L 718.367371 226.406957 
L 718.367371 224.881888 
L 719.514497 224.881888 
L 719.514497 225.317622 
L 720.661623 225.317622 
L 720.661623 224.664021 
L 721.808749 224.664021 
L 721.808749 225.462867 
L 722.955875 225.462867 
L 722.955875 223.284196 
L 725.250128 223.356818 
L 725.250128 223.574685 
L 726.397254 223.574685 
L 726.397254 224.300909 
L 727.54438 224.300909 
L 727.54438 221.759126 
L 728.691506 221.759126 
L 728.691506 222.340105 
L 729.838632 222.340105 
L 729.838632 224.664021 
L 730.985758 224.664021 
L 730.985758 225.390244 
L 732.132885 225.390244 
L 732.132885 226.697447 
L 733.280011 226.697447 
L 733.280011 222.921084 
L 734.427137 222.921084 
L 734.427137 224.01042 
L 735.574263 224.01042 
L 735.574263 226.18909 
L 736.721389 226.18909 
L 736.721389 226.770069 
L 737.868516 226.770069 
L 737.868516 225.317622 
L 739.015642 225.317622 
L 739.015642 224.664021 
L 741.309894 224.736643 
L 741.309894 226.842692 
L 743.604146 226.770069 
L 743.604146 228.94874 
L 744.751272 228.94874 
L 744.751272 227.42367 
L 745.898399 227.42367 
L 745.898399 229.747586 
L 747.045525 229.747586 
L 747.045525 227.641537 
L 748.192651 227.641537 
L 748.192651 229.166607 
L 749.339777 229.166607 
L 749.339777 229.384474 
L 750.486903 229.384474 
L 750.486903 231.127411 
L 751.634029 231.127411 
L 751.634029 229.021362 
L 752.781156 229.021362 
L 752.781156 230.038075 
L 753.928282 230.038075 
L 753.928282 231.054788 
L 755.075408 231.054788 
L 755.075408 228.513006 
L 756.222534 228.513006 
L 756.222534 230.836921 
L 757.36966 230.836921 
L 757.36966 230.473809 
L 758.516787 230.473809 
L 758.516787 229.965453 
L 759.663913 229.965453 
L 759.663913 230.473809 
L 760.811039 230.473809 
L 760.811039 229.820208 
L 761.958165 229.820208 
L 761.958165 229.674964 
L 763.105291 229.674964 
L 763.105291 231.853634 
L 764.252417 231.853634 
L 764.252417 232.797725 
L 765.399543 232.797725 
L 765.399543 231.563145 
L 767.693796 231.490522 
L 767.693796 233.306081 
L 769.988048 233.378704 
L 769.988048 231.200033 
L 771.135174 231.200033 
L 771.135174 233.669193 
L 772.282301 233.669193 
L 772.282301 231.635767 
L 773.429427 231.635767 
L 773.429427 234.685906 
L 774.576553 234.685906 
L 774.576553 234.322794 
L 775.723679 234.322794 
L 775.723679 234.104927 
L 776.870805 234.104927 
L 776.870805 232.434613 
L 778.017931 232.434613 
L 778.017931 235.629997 
L 779.165058 235.629997 
L 779.165058 232.289368 
L 780.312184 232.289368 
L 780.312184 234.104927 
L 782.606436 234.032305 
L 782.606436 235.702619 
L 783.753562 235.702619 
L 783.753562 235.557375 
L 784.900688 235.557375 
L 784.900688 233.741816 
L 786.047814 233.741816 
L 786.047814 236.138353 
L 787.194941 236.138353 
L 787.194941 236.283598 
L 788.342067 236.283598 
L 788.342067 236.791955 
L 789.489193 236.791955 
L 789.489193 238.607514 
L 790.636319 238.607514 
L 790.636319 237.736045 
L 791.783445 237.736045 
L 791.783445 239.551604 
L 792.930572 239.551604 
L 792.930572 238.970625 
L 794.077698 238.970625 
L 794.077698 239.478982 
L 795.224824 239.478982 
L 795.224824 240.277828 
L 796.37195 240.277828 
L 796.37195 241.58503 
L 798.666202 241.512408 
L 798.666202 242.020764 
L 799.813329 242.020764 
L 799.813329 242.166009 
L 800.960455 242.166009 
L 800.960455 242.81961 
L 802.107581 242.81961 
L 802.107581 243.763701 
L 803.254707 243.763701 
L 803.254707 244.126813 
L 804.401833 244.126813 
L 804.401833 244.998281 
L 806.696085 245.070903 
L 806.696085 245.506638 
L 807.843212 245.506638 
L 807.843212 245.797127 
L 847.992628 245.797127 
L 847.992628 245.797127 
" clip-path="url(#p651658de61)" style="fill: none; stroke: #1f77b4; stroke-width: 1.5; stroke-linecap: square"/>
   </g>
   <g id="line2d_30">
    <path d="M 503.854777 245.724505 
L 505.001904 245.724505 
L 505.001904 245.506638 
L 506.14903 245.506638 
L 506.14903 245.724505 
L 508.443282 245.651882 
L 508.443282 245.361393 
L 509.590408 245.361393 
L 509.590408 245.070903 
L 513.031787 245.070903 
L 513.031787 245.288771 
L 514.178913 245.288771 
L 514.178913 244.34468 
L 515.326039 244.34468 
L 515.326039 244.05419 
L 516.473165 244.05419 
L 516.473165 243.836323 
L 517.620291 243.836323 
L 517.620291 243.182722 
L 518.767418 243.182722 
L 518.767418 242.529121 
L 519.914544 242.529121 
L 519.914544 242.238631 
L 521.06167 242.238631 
L 521.06167 242.674366 
L 522.208796 242.674366 
L 522.208796 240.568317 
L 523.355922 240.568317 
L 523.355922 238.317024 
L 524.503048 238.317024 
L 524.503048 236.864577 
L 525.650175 236.864577 
L 525.650175 235.775242 
L 526.797301 235.775242 
L 526.797301 233.306081 
L 527.944427 233.306081 
L 527.944427 228.65825 
L 529.091553 228.65825 
L 529.091553 228.876118 
L 530.238679 228.876118 
L 530.238679 224.155664 
L 531.385805 224.155664 
L 531.385805 221.396015 
L 532.532932 221.396015 
L 532.532932 216.602939 
L 533.680058 216.602939 
L 533.680058 216.239827 
L 534.827184 216.239827 
L 534.827184 214.932625 
L 535.97431 214.932625 
L 535.97431 222.703217 
L 537.121436 222.703217 
L 537.121436 233.596571 
L 538.268562 233.596571 
L 538.268562 245.651882 
L 539.415689 245.651882 
L 539.415689 245.797127 
L 545.151319 245.797127 
L 545.151319 245.651882 
L 546.298446 245.651882 
L 546.298446 245.434015 
L 547.445572 245.434015 
L 547.445572 245.288771 
L 548.592698 245.288771 
L 548.592698 245.143526 
L 549.739824 245.143526 
L 549.739824 244.780414 
L 550.88695 244.780414 
L 550.88695 243.327967 
L 552.034076 243.327967 
L 552.034076 241.730275 
L 553.181203 241.730275 
L 553.181203 241.149296 
L 554.328329 241.149296 
L 554.328329 237.155066 
L 555.475455 237.155066 
L 555.475455 230.982166 
L 556.622581 230.982166 
L 556.622581 220.960281 
L 557.769707 220.960281 
L 557.769707 207.3799 
L 558.916833 207.3799 
L 558.916833 188.788576 
L 560.06396 188.788576 
L 560.06396 164.387463 
L 561.211086 164.387463 
L 561.211086 147.684321 
L 562.358212 147.684321 
L 562.358212 131.489535 
L 563.505338 131.489535 
L 563.505338 118.490133 
L 564.652464 118.490133 
L 564.652464 106.652689 
L 565.799591 106.652689 
L 565.799591 91.61986 
L 566.946717 91.61986 
L 566.946717 71.140355 
L 568.093843 71.140355 
L 568.093843 61.263715 
L 569.240969 61.263715 
L 569.240969 54.074101 
L 570.388095 54.074101 
L 570.388095 37.080469 
L 571.535221 37.080469 
L 571.535221 23.282221 
L 572.682347 23.282221 
L 572.682347 18.561768 
L 573.829474 18.561768 
L 573.829474 31.56117 
L 574.9766 31.56117 
L 574.9766 22.773865 
L 576.123726 22.773865 
L 576.123726 22.991732 
L 577.270852 22.991732 
L 577.270852 32.287394 
L 578.417978 32.287394 
L 578.417978 42.091412 
L 579.565104 42.091412 
L 579.565104 51.532319 
L 580.712231 51.532319 
L 580.712231 65.621056 
L 581.859357 65.621056 
L 581.859357 83.268289 
L 583.006483 83.268289 
L 583.006483 96.267691 
L 584.153609 96.267691 
L 584.153609 103.820417 
L 585.300735 103.820417 
L 585.300735 113.697057 
L 586.447861 113.697057 
L 586.447861 132.143136 
L 587.594988 132.143136 
L 587.594988 137.589813 
L 588.742114 137.589813 
L 588.742114 156.616871 
L 589.88924 156.616871 
L 589.88924 164.242219 
L 591.036366 164.242219 
L 591.036366 178.330956 
L 592.183492 178.330956 
L 592.183492 191.620848 
L 593.330619 191.620848 
L 593.330619 204.32976 
L 594.477745 204.32976 
L 594.477745 209.485948 
L 595.624871 209.485948 
L 595.624871 223.211574 
L 596.771997 223.211574 
L 596.771997 229.747586 
L 597.919123 229.747586 
L 597.919123 239.188492 
L 599.066249 239.188492 
L 599.066249 243.037477 
L 600.213375 243.037477 
L 600.213375 245.724505 
L 605.949006 245.797127 
L 605.949006 245.57926 
L 608.243259 245.651882 
L 608.243259 245.797127 
L 611.684637 245.724505 
L 611.684637 245.651882 
L 612.831763 245.651882 
L 612.831763 245.797127 
L 613.97889 245.797127 
L 613.97889 245.57926 
L 617.420268 245.651882 
L 617.420268 245.797127 
L 618.567394 245.797127 
L 618.567394 245.57926 
L 619.71452 245.57926 
L 619.71452 245.361393 
L 620.861647 245.361393 
L 620.861647 245.506638 
L 623.155899 245.506638 
L 623.155899 245.070903 
L 624.303025 245.070903 
L 624.303025 245.361393 
L 625.450151 245.361393 
L 625.450151 244.998281 
L 626.597277 244.998281 
L 626.597277 244.635169 
L 627.744403 244.635169 
L 627.744403 244.199435 
L 628.89153 244.199435 
L 628.89153 242.892233 
L 630.038656 242.892233 
L 630.038656 239.914716 
L 631.185782 239.914716 
L 631.185782 238.898003 
L 632.332908 238.898003 
L 632.332908 235.993109 
L 633.480034 235.993109 
L 633.480034 235.266885 
L 634.62716 235.266885 
L 634.62716 237.663423 
L 635.774287 237.663423 
L 635.774287 238.099157 
L 636.921413 238.099157 
L 636.921413 239.043248 
L 638.068539 239.043248 
L 638.068539 240.713562 
L 639.215665 240.713562 
L 639.215665 241.439786 
L 640.362791 241.439786 
L 640.362791 242.529121 
L 641.509918 242.529121 
L 641.509918 244.780414 
L 642.657044 244.780414 
L 642.657044 245.797127 
L 672.482324 245.797127 
L 672.482324 245.651882 
L 675.923702 245.651882 
L 675.923702 245.506638 
L 678.217955 245.434015 
L 678.217955 245.143526 
L 679.365081 245.143526 
L 679.365081 244.780414 
L 680.512207 244.780414 
L 680.512207 244.34468 
L 681.659333 244.34468 
L 681.659333 243.1101 
L 682.806459 243.1101 
L 682.806459 242.601743 
L 683.953586 242.601743 
L 683.953586 239.842094 
L 685.100712 239.842094 
L 685.100712 236.791955 
L 686.247838 236.791955 
L 686.247838 233.451326 
L 687.394964 233.451326 
L 687.394964 234.831151 
L 688.54209 234.831151 
L 688.54209 231.563145 
L 689.689217 231.563145 
L 689.689217 230.110698 
L 690.836343 230.110698 
L 690.836343 228.149894 
L 691.983469 228.149894 
L 691.983469 226.697447 
L 693.130595 226.697447 
L 693.130595 224.809265 
L 694.277721 224.809265 
L 694.277721 220.960281 
L 695.424847 220.960281 
L 695.424847 224.083042 
L 696.571974 224.083042 
L 696.571974 221.541259 
L 697.7191 221.541259 
L 697.7191 220.669791 
L 698.866226 220.669791 
L 698.866226 222.122238 
L 700.013352 222.122238 
L 700.013352 218.128009 
L 702.307604 218.055386 
L 702.307604 216.820806 
L 703.45473 216.820806 
L 703.45473 219.144722 
L 704.601857 219.144722 
L 704.601857 217.474407 
L 705.748983 217.474407 
L 705.748983 222.122238 
L 706.896109 222.122238 
L 706.896109 224.01042 
L 708.043235 224.01042 
L 708.043235 224.518776 
L 709.190361 224.518776 
L 709.190361 225.462867 
L 710.337487 225.462867 
L 710.337487 230.473809 
L 711.484614 230.473809 
L 711.484614 230.18332 
L 712.63174 230.18332 
L 712.63174 233.015592 
L 713.778866 233.015592 
L 713.778866 235.194263 
L 714.925992 235.194263 
L 714.925992 236.065731 
L 716.073118 236.065731 
L 716.073118 238.898003 
L 717.220245 238.898003 
L 717.220245 238.244402 
L 718.367371 238.244402 
L 718.367371 241.221918 
L 720.661623 241.221918 
L 720.661623 242.674366 
L 721.808749 242.674366 
L 721.808749 244.199435 
L 722.955875 244.199435 
L 722.955875 244.780414 
L 724.103002 244.780414 
L 724.103002 245.506638 
L 725.250128 245.506638 
L 725.250128 245.797127 
L 784.900688 245.724505 
L 784.900688 245.216148 
L 786.047814 245.216148 
L 786.047814 245.070903 
L 787.194941 245.070903 
L 787.194941 244.707792 
L 788.342067 244.707792 
L 788.342067 244.272058 
L 789.489193 244.272058 
L 789.489193 243.763701 
L 790.636319 243.763701 
L 790.636319 243.037477 
L 791.783445 243.037477 
L 791.783445 243.400589 
L 792.930572 243.400589 
L 792.930572 242.529121 
L 794.077698 242.529121 
L 794.077698 242.674366 
L 795.224824 242.674366 
L 795.224824 241.004051 
L 796.37195 241.004051 
L 796.37195 241.657653 
L 798.666202 241.730275 
L 798.666202 241.802897 
L 799.813329 241.802897 
L 799.813329 240.713562 
L 800.960455 240.713562 
L 800.960455 240.205205 
L 802.107581 240.205205 
L 802.107581 241.004051 
L 803.254707 241.004051 
L 803.254707 239.914716 
L 805.548959 239.987338 
L 805.548959 239.696849 
L 806.696085 239.696849 
L 806.696085 240.132583 
L 808.990338 240.059961 
L 808.990338 240.423073 
L 810.137464 240.423073 
L 810.137464 240.132583 
L 811.28459 240.132583 
L 811.28459 240.713562 
L 812.431716 240.713562 
L 812.431716 241.657653 
L 813.578843 241.657653 
L 813.578843 241.149296 
L 814.725969 241.149296 
L 814.725969 240.858807 
L 815.873095 240.858807 
L 815.873095 242.529121 
L 817.020221 242.529121 
L 817.020221 242.020764 
L 819.314473 241.948142 
L 819.314473 242.383876 
L 820.4616 242.383876 
L 820.4616 243.182722 
L 821.608726 243.182722 
L 821.608726 242.456499 
L 822.755852 242.456499 
L 822.755852 243.908946 
L 823.902978 243.908946 
L 823.902978 242.964855 
L 825.050104 242.964855 
L 825.050104 243.545834 
L 828.491483 243.545834 
L 828.491483 243.182722 
L 829.638609 243.182722 
L 829.638609 243.763701 
L 830.785735 243.763701 
L 830.785735 244.199435 
L 831.932861 244.199435 
L 831.932861 244.05419 
L 833.079987 244.05419 
L 833.079987 244.272058 
L 834.227113 244.272058 
L 834.227113 244.780414 
L 838.815618 244.780414 
L 838.815618 244.998281 
L 839.962744 244.998281 
L 839.962744 245.361393 
L 841.109871 245.361393 
L 841.109871 245.070903 
L 842.256997 245.070903 
L 842.256997 245.288771 
L 843.404123 245.288771 
L 843.404123 245.506638 
L 844.551249 245.506638 
L 844.551249 245.724505 
L 847.992628 245.724505 
L 847.992628 245.724505 
" clip-path="url(#p651658de61)" style="fill: none; stroke: #808080; stroke-width: 1.5; stroke-linecap: square"/>
   </g>
   <g id="patch_9">
    <path d="M 486.647885 257.158895 
L 486.647885 7.2 
" style="fill: none; stroke: #000000; stroke-width: 0.8; stroke-linejoin: miter; stroke-linecap: square"/>
   </g>
   <g id="patch_10">
    <path d="M 865.19952 257.158895 
L 865.19952 7.2 
" style="fill: none; stroke: #000000; stroke-width: 0.8; stroke-linejoin: miter; stroke-linecap: square"/>
   </g>
   <g id="patch_11">
    <path d="M 486.647885 257.158895 
L 865.19952 257.158895 
" style="fill: none; stroke: #000000; stroke-width: 0.8; stroke-linejoin: miter; stroke-linecap: square"/>
   </g>
   <g id="patch_12">
    <path d="M 486.647885 7.2 
L 865.19952 7.2 
" style="fill: none; stroke: #000000; stroke-width: 0.8; stroke-linejoin: miter; stroke-linecap: square"/>
   </g>
   <g id="legend_2">
    <g id="patch_13">
     <path d="M 747.360457 44.55625 
L 858.19952 44.55625 
Q 860.19952 44.55625 860.19952 42.55625 
L 860.19952 14.2 
Q 860.19952 12.2 858.19952 12.2 
L 747.360457 12.2 
Q 745.360457 12.2 745.360457 14.2 
L 745.360457 42.55625 
Q 745.360457 44.55625 747.360457 44.55625 
z
" style="fill: #ffffff; opacity: 0.8; stroke: #cccccc; stroke-linejoin: miter"/>
    </g>
    <g id="line2d_31">
     <path d="M 749.360457 20.298437 
L 749.360457 20.298437 
L 759.360457 20.298437 
L 759.360457 20.298437 
L 769.360457 20.298437 
" style="fill: none; stroke: #1f77b4; stroke-width: 1.5; stroke-linecap: square"/>
    </g>
    <g id="text_31">
     <!-- pulse:0 -->
     <g transform="translate(777.360457 23.798437) scale(0.1 -0.1)">
      <use xlink:href="#DejaVuSans-70"/>
      <use xlink:href="#DejaVuSans-75" transform="translate(63.476562 0)"/>
      <use xlink:href="#DejaVuSans-6c" transform="translate(126.855469 0)"/>
      <use xlink:href="#DejaVuSans-73" transform="translate(154.638672 0)"/>
      <use xlink:href="#DejaVuSans-65" transform="translate(206.738281 0)"/>
      <use xlink:href="#DejaVuSans-3a" transform="translate(268.261719 0)"/>
      <use xlink:href="#DejaVuSans-30" transform="translate(301.953125 0)"/>
     </g>
    </g>
    <g id="line2d_32">
     <path d="M 749.360457 34.976562 
L 749.360457 34.976562 
L 759.360457 34.976562 
L 759.360457 34.976562 
L 769.360457 34.976562 
" style="fill: none; stroke: #808080; stroke-width: 1.5; stroke-linecap: square"/>
    </g>
    <g id="text_32">
     <!-- blocked-pulse:0 -->
     <g transform="translate(777.360457 38.476562) scale(0.1 -0.1)">
      <use xlink:href="#DejaVuSans-62"/>
      <use xlink:href="#DejaVuSans-6c" transform="translate(63.476562 0)"/>
      <use xlink:href="#DejaVuSans-6f" transform="translate(91.259766 0)"/>
      <use xlink:href="#DejaVuSans-63" transform="translate(152.441406 0)"/>
      <use xlink:href="#DejaVuSans-6b" transform="translate(207.421875 0)"/>
      <use xlink:href="#DejaVuSans-65" transform="translate(261.707031 0)"/>
      <use xlink:href="#DejaVuSans-64" transform="translate(323.230469 0)"/>
      <use xlink:href="#DejaVuSans-2d" transform="translate(386.707031 0)"/>
      <use xlink:href="#DejaVuSans-70" transform="translate(422.791016 0)"/>
      <use xlink:href="#DejaVuSans-75" transform="translate(486.267578 0)"/>
      <use xlink:href="#DejaVuSans-6c" transform="translate(549.646484 0)"/>
      <use xlink:href="#DejaVuSans-73" transform="translate(577.429688 0)"/>
      <use xlink:href="#DejaVuSans-65" transform="translate(629.529297 0)"/>
      <use xlink:href="#DejaVuSans-3a" transform="translate(691.052734 0)"/>
      <use xlink:href="#DejaVuSans-30" transform="translate(724.744141 0)"/>
     </g>
    </g>
   </g>
  </g>
 </g>
 <defs>
  <clipPath id="pcf407d9140">
   <rect x="53.328125" y="7.2" width="378.551635" height="249.958895"/>
  </clipPath>
  <clipPath id="p651658de61">
   <rect x="486.647885" y="7.2" width="378.551635" height="249.958895"/>
  </clipPath>
 </defs>
</svg>
