<?xml version="1.0" encoding="utf-8" standalone="no"?>
<!DOCTYPE svg PUBLIC "-//W3C//DTD SVG 1.1//EN"
  "http://www.w3.org/Graphics/SVG/1.1/DTD/svg11.dtd">
<svg xmlns:xlink="http://www.w3.org/1999/xlink" width="395.328125pt" height="266.51625pt" viewBox="0 0 395.328125 266.51625" xmlns="http://www.w3.org/2000/svg" version="1.1">
 <metadata>
  <rdf:RDF xmlns:dc="http://purl.org/dc/elements/1.1/" xmlns:cc="http://creativecommons.org/ns#" xmlns:rdf="http://www.w3.org/1999/02/22-rdf-syntax-ns#">
   <cc:Work>
    <dc:type rdf:resource="http://purl.org/dc/dcmitype/StillImage"/>
    <dc:date>2025-11-19T10:11:18.270030</dc:date>
    <dc:format>image/svg+xml</dc:format>
    <dc:creator>
     <cc:Agent>
      <dc:title>Matplotlib v3.10.7, https://matplotlib.org/</dc:title>
     </cc:Agent>
    </dc:creator>
   </cc:Work>
  </rdf:RDF>
 </metadata>
 <defs>
  <style type="text/css">*{stroke-linejoin: round; stroke-linecap: butt}</style>
 </defs>
 <g id="figure_1">
  <g id="patch_1">
   <path d="M 0 266.51625 
L 395.328125 266.51625 
L 395.328125 0 
L 0 0 
z
" style="fill: #ffffff"/>
  </g>
  <g id="axes_1">
   <g id="patch_2">
    <path d="M 53.328125 228.96 
L 388.128125 228.96 
L 388.128125 7.2 
L 53.328125 7.2 
z
" style="fill: #ffffff"/>
   </g>
   <g id="matplotlib.axis_1">
    <g id="xtick_1">
     <g id="line2d_1">
      <defs>
       <path id="m3426ac79e7" d="M 0 0 
L 0 3.5 
" style="stroke: #000000; stroke-width: 0.8"/>
      </defs>
      <g>
       <use xlink:href="#m3426ac79e7" x="78.384725" y="228.96" style="stroke: #000000; stroke-width: 0.8"/>
      </g>
     </g>
     <g id="text_1">
      <!-- 20000 -->
      <g transform="translate(62.478475 243.558437) scale(0.1 -0.1)">
       <defs>
        <path id="DejaVuSans-32" d="M 1228 531 
L 3431 531 
L 3431 0 
L 469 0 
L 469 531 
Q 828 903 1448 1529 
Q 2069 2156 2228 2338 
Q 2531 2678 2651 2914 
Q 2772 3150 2772 3378 
Q 2772 3750 2511 3984 
Q 2250 4219 1831 4219 
Q 1534 4219 1204 4116 
Q 875 4013 500 3803 
L 500 4441 
Q 881 4594 1212 4672 
Q 1544 4750 1819 4750 
Q 2544 4750 2975 4387 
Q 3406 4025 3406 3419 
Q 3406 3131 3298 2873 
Q 3191 2616 2906 2266 
Q 2828 2175 2409 1742 
Q 1991 1309 1228 531 
z
" transform="scale(0.015625)"/>
        <path id="DejaVuSans-30" d="M 2034 4250 
Q 1547 4250 1301 3770 
Q 1056 3291 1056 2328 
Q 1056 1369 1301 889 
Q 1547 409 2034 409 
Q 2525 409 2770 889 
Q 3016 1369 3016 2328 
Q 3016 3291 2770 3770 
Q 2525 4250 2034 4250 
z
M 2034 4750 
Q 2819 4750 3233 4129 
Q 3647 3509 3647 2328 
Q 3647 1150 3233 529 
Q 2819 -91 2034 -91 
Q 1250 -91 836 529 
Q 422 1150 422 2328 
Q 422 3509 836 4129 
Q 1250 4750 2034 4750 
z
" transform="scale(0.015625)"/>
       </defs>
       <use xlink:href="#DejaVuSans-32"/>
       <use xlink:href="#DejaVuSans-30" transform="translate(63.623047 0)"/>
       <use xlink:href="#DejaVuSans-30" transform="translate(127.246094 0)"/>
       <use xlink:href="#DejaVuSans-30" transform="translate(190.869141 0)"/>
       <use xlink:href="#DejaVuSans-30" transform="translate(254.492188 0)"/>
      </g>
     </g>
    </g>
    <g id="xtick_2">
     <g id="line2d_2">
      <g>
       <use xlink:href="#m3426ac79e7" x="125.348913" y="228.96" style="stroke: #000000; stroke-width: 0.8"/>
      </g>
     </g>
     <g id="text_2">
      <!-- 30000 -->
      <g transform="translate(109.442663 243.558437) scale(0.1 -0.1)">
       <defs>
        <path id="DejaVuSans-33" d="M 2597 2516 
Q 3050 2419 3304 2112 
Q 3559 1806 3559 1356 
Q 3559 666 3084 287 
Q 2609 -91 1734 -91 
Q 1441 -91 1130 -33 
Q 819 25 488 141 
L 488 750 
Q 750 597 1062 519 
Q 1375 441 1716 441 
Q 2309 441 2620 675 
Q 2931 909 2931 1356 
Q 2931 1769 2642 2001 
Q 2353 2234 1838 2234 
L 1294 2234 
L 1294 2753 
L 1863 2753 
Q 2328 2753 2575 2939 
Q 2822 3125 2822 3475 
Q 2822 3834 2567 4026 
Q 2313 4219 1838 4219 
Q 1578 4219 1281 4162 
Q 984 4106 628 3988 
L 628 4550 
Q 988 4650 1302 4700 
Q 1616 4750 1894 4750 
Q 2613 4750 3031 4423 
Q 3450 4097 3450 3541 
Q 3450 3153 3228 2886 
Q 3006 2619 2597 2516 
z
" transform="scale(0.015625)"/>
       </defs>
       <use xlink:href="#DejaVuSans-33"/>
       <use xlink:href="#DejaVuSans-30" transform="translate(63.623047 0)"/>
       <use xlink:href="#DejaVuSans-30" transform="translate(127.246094 0)"/>
       <use xlink:href="#DejaVuSans-30" transform="translate(190.869141 0)"/>
       <use xlink:href="#DejaVuSans-30" transform="translate(254.492188 0)"/>
      </g>
     </g>
    </g>
    <g id="xtick_3">
     <g id="line2d_3">
      <g>
       <use xlink:href="#m3426ac79e7" x="172.313101" y="228.96" style="stroke: #000000; stroke-width: 0.8"/>
      </g>
     </g>
     <g id="text_3">
      <!-- 40000 -->
      <g transform="translate(156.406851 243.558437) scale(0.1 -0.1)">
       <defs>
        <path id="DejaVuSans-34" d="M 2419 4116 
L 825 1625 
L 2419 1625 
L 2419 4116 
z
M 2253 4666 
L 3047 4666 
L 3047 1625 
L 3713 1625 
L 3713 1100 
L 3047 1100 
L 3047 0 
L 2419 0 
L 2419 1100 
L 313 1100 
L 313 1709 
L 2253 4666 
z
" transform="scale(0.015625)"/>
       </defs>
       <use xlink:href="#DejaVuSans-34"/>
       <use xlink:href="#DejaVuSans-30" transform="translate(63.623047 0)"/>
       <use xlink:href="#DejaVuSans-30" transform="translate(127.246094 0)"/>
       <use xlink:href="#DejaVuSans-30" transform="translate(190.869141 0)"/>
       <use xlink:href="#DejaVuSans-30" transform="translate(254.492188 0)"/>
      </g>
     </g>
    </g>
    <g id="xtick_4">
     <g id="line2d_4">
      <g>
       <use xlink:href="#m3426ac79e7" x="219.277289" y="228.96" style="stroke: #000000; stroke-width: 0.8"/>
      </g>
     </g>
     <g id="text_4">
      <!-- 50000 -->
      <g transform="translate(203.371039 243.558437) scale(0.1 -0.1)">
       <defs>
        <path id="DejaVuSans-35" d="M 691 4666 
L 3169 4666 
L 3169 4134 
L 1269 4134 
L 1269 2991 
Q 1406 3038 1543 3061 
Q 1681 3084 1819 3084 
Q 2600 3084 3056 2656 
Q 3513 2228 3513 1497 
Q 3513 744 3044 326 
Q 2575 -91 1722 -91 
Q 1428 -91 1123 -41 
Q 819 9 494 109 
L 494 744 
Q 775 591 1075 516 
Q 1375 441 1709 441 
Q 2250 441 2565 725 
Q 2881 1009 2881 1497 
Q 2881 1984 2565 2268 
Q 2250 2553 1709 2553 
Q 1456 2553 1204 2497 
Q 953 2441 691 2322 
L 691 4666 
z
" transform="scale(0.015625)"/>
       </defs>
       <use xlink:href="#DejaVuSans-35"/>
       <use xlink:href="#DejaVuSans-30" transform="translate(63.623047 0)"/>
       <use xlink:href="#DejaVuSans-30" transform="translate(127.246094 0)"/>
       <use xlink:href="#DejaVuSans-30" transform="translate(190.869141 0)"/>
       <use xlink:href="#DejaVuSans-30" transform="translate(254.492188 0)"/>
      </g>
     </g>
    </g>
    <g id="xtick_5">
     <g id="line2d_5">
      <g>
       <use xlink:href="#m3426ac79e7" x="266.241477" y="228.96" style="stroke: #000000; stroke-width: 0.8"/>
      </g>
     </g>
     <g id="text_5">
      <!-- 60000 -->
      <g transform="translate(250.335227 243.558437) scale(0.1 -0.1)">
       <defs>
        <path id="DejaVuSans-36" d="M 2113 2584 
Q 1688 2584 1439 2293 
Q 1191 2003 1191 1497 
Q 1191 994 1439 701 
Q 1688 409 2113 409 
Q 2538 409 2786 701 
Q 3034 994 3034 1497 
Q 3034 2003 2786 2293 
Q 2538 2584 2113 2584 
z
M 3366 4563 
L 3366 3988 
Q 3128 4100 2886 4159 
Q 2644 4219 2406 4219 
Q 1781 4219 1451 3797 
Q 1122 3375 1075 2522 
Q 1259 2794 1537 2939 
Q 1816 3084 2150 3084 
Q 2853 3084 3261 2657 
Q 3669 2231 3669 1497 
Q 3669 778 3244 343 
Q 2819 -91 2113 -91 
Q 1303 -91 875 529 
Q 447 1150 447 2328 
Q 447 3434 972 4092 
Q 1497 4750 2381 4750 
Q 2619 4750 2861 4703 
Q 3103 4656 3366 4563 
z
" transform="scale(0.015625)"/>
       </defs>
       <use xlink:href="#DejaVuSans-36"/>
       <use xlink:href="#DejaVuSans-30" transform="translate(63.623047 0)"/>
       <use xlink:href="#DejaVuSans-30" transform="translate(127.246094 0)"/>
       <use xlink:href="#DejaVuSans-30" transform="translate(190.869141 0)"/>
       <use xlink:href="#DejaVuSans-30" transform="translate(254.492188 0)"/>
      </g>
     </g>
    </g>
    <g id="xtick_6">
     <g id="line2d_6">
      <g>
       <use xlink:href="#m3426ac79e7" x="313.205665" y="228.96" style="stroke: #000000; stroke-width: 0.8"/>
      </g>
     </g>
     <g id="text_6">
      <!-- 70000 -->
      <g transform="translate(297.299415 243.558437) scale(0.1 -0.1)">
       <defs>
        <path id="DejaVuSans-37" d="M 525 4666 
L 3525 4666 
L 3525 4397 
L 1831 0 
L 1172 0 
L 2766 4134 
L 525 4134 
L 525 4666 
z
" transform="scale(0.015625)"/>
       </defs>
       <use xlink:href="#DejaVuSans-37"/>
       <use xlink:href="#DejaVuSans-30" transform="translate(63.623047 0)"/>
       <use xlink:href="#DejaVuSans-30" transform="translate(127.246094 0)"/>
       <use xlink:href="#DejaVuSans-30" transform="translate(190.869141 0)"/>
       <use xlink:href="#DejaVuSans-30" transform="translate(254.492188 0)"/>
      </g>
     </g>
    </g>
    <g id="xtick_7">
     <g id="line2d_7">
      <g>
       <use xlink:href="#m3426ac79e7" x="360.169854" y="228.96" style="stroke: #000000; stroke-width: 0.8"/>
      </g>
     </g>
     <g id="text_7">
      <!-- 80000 -->
      <g transform="translate(344.263604 243.558437) scale(0.1 -0.1)">
       <defs>
        <path id="DejaVuSans-38" d="M 2034 2216 
Q 1584 2216 1326 1975 
Q 1069 1734 1069 1313 
Q 1069 891 1326 650 
Q 1584 409 2034 409 
Q 2484 409 2743 651 
Q 3003 894 3003 1313 
Q 3003 1734 2745 1975 
Q 2488 2216 2034 2216 
z
M 1403 2484 
Q 997 2584 770 2862 
Q 544 3141 544 3541 
Q 544 4100 942 4425 
Q 1341 4750 2034 4750 
Q 2731 4750 3128 4425 
Q 3525 4100 3525 3541 
Q 3525 3141 3298 2862 
Q 3072 2584 2669 2484 
Q 3125 2378 3379 2068 
Q 3634 1759 3634 1313 
Q 3634 634 3220 271 
Q 2806 -91 2034 -91 
Q 1263 -91 848 271 
Q 434 634 434 1313 
Q 434 1759 690 2068 
Q 947 2378 1403 2484 
z
M 1172 3481 
Q 1172 3119 1398 2916 
Q 1625 2713 2034 2713 
Q 2441 2713 2670 2916 
Q 2900 3119 2900 3481 
Q 2900 3844 2670 4047 
Q 2441 4250 2034 4250 
Q 1625 4250 1398 4047 
Q 1172 3844 1172 3481 
z
" transform="scale(0.015625)"/>
       </defs>
       <use xlink:href="#DejaVuSans-38"/>
       <use xlink:href="#DejaVuSans-30" transform="translate(63.623047 0)"/>
       <use xlink:href="#DejaVuSans-30" transform="translate(127.246094 0)"/>
       <use xlink:href="#DejaVuSans-30" transform="translate(190.869141 0)"/>
       <use xlink:href="#DejaVuSans-30" transform="translate(254.492188 0)"/>
      </g>
     </g>
    </g>
    <g id="text_8">
     <!-- toa [µs] -->
     <g transform="translate(201.367969 257.236562) scale(0.1 -0.1)">
      <defs>
       <path id="DejaVuSans-74" d="M 1172 4494 
L 1172 3500 
L 2356 3500 
L 2356 3053 
L 1172 3053 
L 1172 1153 
Q 1172 725 1289 603 
Q 1406 481 1766 481 
L 2356 481 
L 2356 0 
L 1766 0 
Q 1100 0 847 248 
Q 594 497 594 1153 
L 594 3053 
L 172 3053 
L 172 3500 
L 594 3500 
L 594 4494 
L 1172 4494 
z
" transform="scale(0.015625)"/>
       <path id="DejaVuSans-6f" d="M 1959 3097 
Q 1497 3097 1228 2736 
Q 959 2375 959 1747 
Q 959 1119 1226 758 
Q 1494 397 1959 397 
Q 2419 397 2687 759 
Q 2956 1122 2956 1747 
Q 2956 2369 2687 2733 
Q 2419 3097 1959 3097 
z
M 1959 3584 
Q 2709 3584 3137 3096 
Q 3566 2609 3566 1747 
Q 3566 888 3137 398 
Q 2709 -91 1959 -91 
Q 1206 -91 779 398 
Q 353 888 353 1747 
Q 353 2609 779 3096 
Q 1206 3584 1959 3584 
z
" transform="scale(0.015625)"/>
       <path id="DejaVuSans-61" d="M 2194 1759 
Q 1497 1759 1228 1600 
Q 959 1441 959 1056 
Q 959 750 1161 570 
Q 1363 391 1709 391 
Q 2188 391 2477 730 
Q 2766 1069 2766 1631 
L 2766 1759 
L 2194 1759 
z
M 3341 1997 
L 3341 0 
L 2766 0 
L 2766 531 
Q 2569 213 2275 61 
Q 1981 -91 1556 -91 
Q 1019 -91 701 211 
Q 384 513 384 1019 
Q 384 1609 779 1909 
Q 1175 2209 1959 2209 
L 2766 2209 
L 2766 2266 
Q 2766 2663 2505 2880 
Q 2244 3097 1772 3097 
Q 1472 3097 1187 3025 
Q 903 2953 641 2809 
L 641 3341 
Q 956 3463 1253 3523 
Q 1550 3584 1831 3584 
Q 2591 3584 2966 3190 
Q 3341 2797 3341 1997 
z
" transform="scale(0.015625)"/>
       <path id="DejaVuSans-20" transform="scale(0.015625)"/>
       <path id="DejaVuSans-5b" d="M 550 4863 
L 1875 4863 
L 1875 4416 
L 1125 4416 
L 1125 -397 
L 1875 -397 
L 1875 -844 
L 550 -844 
L 550 4863 
z
" transform="scale(0.015625)"/>
       <path id="DejaVuSans-b5" d="M 544 -1331 
L 544 3500 
L 1119 3500 
L 1119 1325 
Q 1119 872 1334 640 
Q 1550 409 1972 409 
Q 2434 409 2667 671 
Q 2900 934 2900 1459 
L 2900 3500 
L 3475 3500 
L 3475 806 
Q 3475 619 3529 530 
Q 3584 441 3700 441 
Q 3728 441 3778 458 
Q 3828 475 3916 513 
L 3916 50 
Q 3788 -22 3673 -56 
Q 3559 -91 3450 -91 
Q 3234 -91 3106 31 
Q 2978 153 2931 403 
Q 2775 156 2548 32 
Q 2322 -91 2016 -91 
Q 1697 -91 1473 31 
Q 1250 153 1119 397 
L 1119 -1331 
L 544 -1331 
z
" transform="scale(0.015625)"/>
       <path id="DejaVuSans-73" d="M 2834 3397 
L 2834 2853 
Q 2591 2978 2328 3040 
Q 2066 3103 1784 3103 
Q 1356 3103 1142 2972 
Q 928 2841 928 2578 
Q 928 2378 1081 2264 
Q 1234 2150 1697 2047 
L 1894 2003 
Q 2506 1872 2764 1633 
Q 3022 1394 3022 966 
Q 3022 478 2636 193 
Q 2250 -91 1575 -91 
Q 1294 -91 989 -36 
Q 684 19 347 128 
L 347 722 
Q 666 556 975 473 
Q 1284 391 1588 391 
Q 1994 391 2212 530 
Q 2431 669 2431 922 
Q 2431 1156 2273 1281 
Q 2116 1406 1581 1522 
L 1381 1569 
Q 847 1681 609 1914 
Q 372 2147 372 2553 
Q 372 3047 722 3315 
Q 1072 3584 1716 3584 
Q 2034 3584 2315 3537 
Q 2597 3491 2834 3397 
z
" transform="scale(0.015625)"/>
       <path id="DejaVuSans-5d" d="M 1947 4863 
L 1947 -844 
L 622 -844 
L 622 -397 
L 1369 -397 
L 1369 4416 
L 622 4416 
L 622 4863 
L 1947 4863 
z
" transform="scale(0.015625)"/>
      </defs>
      <use xlink:href="#DejaVuSans-74"/>
      <use xlink:href="#DejaVuSans-6f" transform="translate(39.208984 0)"/>
      <use xlink:href="#DejaVuSans-61" transform="translate(100.390625 0)"/>
      <use xlink:href="#DejaVuSans-20" transform="translate(161.669922 0)"/>
      <use xlink:href="#DejaVuSans-5b" transform="translate(193.457031 0)"/>
      <use xlink:href="#DejaVuSans-b5" transform="translate(232.470703 0)"/>
      <use xlink:href="#DejaVuSans-73" transform="translate(296.09375 0)"/>
      <use xlink:href="#DejaVuSans-5d" transform="translate(348.193359 0)"/>
     </g>
    </g>
   </g>
   <g id="matplotlib.axis_2">
    <g id="ytick_1">
     <g id="line2d_8">
      <defs>
       <path id="m194f2f527c" d="M 0 0 
L -3.5 0 
" style="stroke: #000000; stroke-width: 0.8"/>
      </defs>
      <g>
       <use xlink:href="#m194f2f527c" x="53.328125" y="218.88" style="stroke: #000000; stroke-width: 0.8"/>
      </g>
     </g>
     <g id="text_9">
      <!-- 0 -->
      <g transform="translate(39.965625 222.679219) scale(0.1 -0.1)">
       <use xlink:href="#DejaVuSans-30"/>
      </g>
     </g>
    </g>
    <g id="ytick_2">
     <g id="line2d_9">
      <g>
       <use xlink:href="#m194f2f527c" x="53.328125" y="189.645661" style="stroke: #000000; stroke-width: 0.8"/>
      </g>
     </g>
     <g id="text_10">
      <!-- 500 -->
      <g transform="translate(27.240625 193.44488) scale(0.1 -0.1)">
       <use xlink:href="#DejaVuSans-35"/>
       <use xlink:href="#DejaVuSans-30" transform="translate(63.623047 0)"/>
       <use xlink:href="#DejaVuSans-30" transform="translate(127.246094 0)"/>
      </g>
     </g>
    </g>
    <g id="ytick_3">
     <g id="line2d_10">
      <g>
       <use xlink:href="#m194f2f527c" x="53.328125" y="160.411323" style="stroke: #000000; stroke-width: 0.8"/>
      </g>
     </g>
     <g id="text_11">
      <!-- 1000 -->
      <g transform="translate(20.878125 164.210541) scale(0.1 -0.1)">
       <defs>
        <path id="DejaVuSans-31" d="M 794 531 
L 1825 531 
L 1825 4091 
L 703 3866 
L 703 4441 
L 1819 4666 
L 2450 4666 
L 2450 531 
L 3481 531 
L 3481 0 
L 794 0 
L 794 531 
z
" transform="scale(0.015625)"/>
       </defs>
       <use xlink:href="#DejaVuSans-31"/>
       <use xlink:href="#DejaVuSans-30" transform="translate(63.623047 0)"/>
       <use xlink:href="#DejaVuSans-30" transform="translate(127.246094 0)"/>
       <use xlink:href="#DejaVuSans-30" transform="translate(190.869141 0)"/>
      </g>
     </g>
    </g>
    <g id="ytick_4">
     <g id="line2d_11">
      <g>
       <use xlink:href="#m194f2f527c" x="53.328125" y="131.176984" style="stroke: #000000; stroke-width: 0.8"/>
      </g>
     </g>
     <g id="text_12">
      <!-- 1500 -->
      <g transform="translate(20.878125 134.976203) scale(0.1 -0.1)">
       <use xlink:href="#DejaVuSans-31"/>
       <use xlink:href="#DejaVuSans-35" transform="translate(63.623047 0)"/>
       <use xlink:href="#DejaVuSans-30" transform="translate(127.246094 0)"/>
       <use xlink:href="#DejaVuSans-30" transform="translate(190.869141 0)"/>
      </g>
     </g>
    </g>
    <g id="ytick_5">
     <g id="line2d_12">
      <g>
       <use xlink:href="#m194f2f527c" x="53.328125" y="101.942645" style="stroke: #000000; stroke-width: 0.8"/>
      </g>
     </g>
     <g id="text_13">
      <!-- 2000 -->
      <g transform="translate(20.878125 105.741864) scale(0.1 -0.1)">
       <use xlink:href="#DejaVuSans-32"/>
       <use xlink:href="#DejaVuSans-30" transform="translate(63.623047 0)"/>
       <use xlink:href="#DejaVuSans-30" transform="translate(127.246094 0)"/>
       <use xlink:href="#DejaVuSans-30" transform="translate(190.869141 0)"/>
      </g>
     </g>
    </g>
    <g id="ytick_6">
     <g id="line2d_13">
      <g>
       <use xlink:href="#m194f2f527c" x="53.328125" y="72.708306" style="stroke: #000000; stroke-width: 0.8"/>
      </g>
     </g>
     <g id="text_14">
      <!-- 2500 -->
      <g transform="translate(20.878125 76.507525) scale(0.1 -0.1)">
       <use xlink:href="#DejaVuSans-32"/>
       <use xlink:href="#DejaVuSans-35" transform="translate(63.623047 0)"/>
       <use xlink:href="#DejaVuSans-30" transform="translate(127.246094 0)"/>
       <use xlink:href="#DejaVuSans-30" transform="translate(190.869141 0)"/>
      </g>
     </g>
    </g>
    <g id="ytick_7">
     <g id="line2d_14">
      <g>
       <use xlink:href="#m194f2f527c" x="53.328125" y="43.473968" style="stroke: #000000; stroke-width: 0.8"/>
      </g>
     </g>
     <g id="text_15">
      <!-- 3000 -->
      <g transform="translate(20.878125 47.273186) scale(0.1 -0.1)">
       <use xlink:href="#DejaVuSans-33"/>
       <use xlink:href="#DejaVuSans-30" transform="translate(63.623047 0)"/>
       <use xlink:href="#DejaVuSans-30" transform="translate(127.246094 0)"/>
       <use xlink:href="#DejaVuSans-30" transform="translate(190.869141 0)"/>
      </g>
     </g>
    </g>
    <g id="ytick_8">
     <g id="line2d_15">
      <g>
       <use xlink:href="#m194f2f527c" x="53.328125" y="14.239629" style="stroke: #000000; stroke-width: 0.8"/>
      </g>
     </g>
     <g id="text_16">
      <!-- 3500 -->
      <g transform="translate(20.878125 18.038848) scale(0.1 -0.1)">
       <use xlink:href="#DejaVuSans-33"/>
       <use xlink:href="#DejaVuSans-35" transform="translate(63.623047 0)"/>
       <use xlink:href="#DejaVuSans-30" transform="translate(127.246094 0)"/>
       <use xlink:href="#DejaVuSans-30" transform="translate(190.869141 0)"/>
      </g>
     </g>
    </g>
    <g id="text_17">
     <!-- pulse:0 [counts] -->
     <g transform="translate(14.798438 158.560469) rotate(-90) scale(0.1 -0.1)">
      <defs>
       <path id="DejaVuSans-70" d="M 1159 525 
L 1159 -1331 
L 581 -1331 
L 581 3500 
L 1159 3500 
L 1159 2969 
Q 1341 3281 1617 3432 
Q 1894 3584 2278 3584 
Q 2916 3584 3314 3078 
Q 3713 2572 3713 1747 
Q 3713 922 3314 415 
Q 2916 -91 2278 -91 
Q 1894 -91 1617 61 
Q 1341 213 1159 525 
z
M 3116 1747 
Q 3116 2381 2855 2742 
Q 2594 3103 2138 3103 
Q 1681 3103 1420 2742 
Q 1159 2381 1159 1747 
Q 1159 1113 1420 752 
Q 1681 391 2138 391 
Q 2594 391 2855 752 
Q 3116 1113 3116 1747 
z
" transform="scale(0.015625)"/>
       <path id="DejaVuSans-75" d="M 544 1381 
L 544 3500 
L 1119 3500 
L 1119 1403 
Q 1119 906 1312 657 
Q 1506 409 1894 409 
Q 2359 409 2629 706 
Q 2900 1003 2900 1516 
L 2900 3500 
L 3475 3500 
L 3475 0 
L 2900 0 
L 2900 538 
Q 2691 219 2414 64 
Q 2138 -91 1772 -91 
Q 1169 -91 856 284 
Q 544 659 544 1381 
z
M 1991 3584 
L 1991 3584 
z
" transform="scale(0.015625)"/>
       <path id="DejaVuSans-6c" d="M 603 4863 
L 1178 4863 
L 1178 0 
L 603 0 
L 603 4863 
z
" transform="scale(0.015625)"/>
       <path id="DejaVuSans-65" d="M 3597 1894 
L 3597 1613 
L 953 1613 
Q 991 1019 1311 708 
Q 1631 397 2203 397 
Q 2534 397 2845 478 
Q 3156 559 3463 722 
L 3463 178 
Q 3153 47 2828 -22 
Q 2503 -91 2169 -91 
Q 1331 -91 842 396 
Q 353 884 353 1716 
Q 353 2575 817 3079 
Q 1281 3584 2069 3584 
Q 2775 3584 3186 3129 
Q 3597 2675 3597 1894 
z
M 3022 2063 
Q 3016 2534 2758 2815 
Q 2500 3097 2075 3097 
Q 1594 3097 1305 2825 
Q 1016 2553 972 2059 
L 3022 2063 
z
" transform="scale(0.015625)"/>
       <path id="DejaVuSans-3a" d="M 750 794 
L 1409 794 
L 1409 0 
L 750 0 
L 750 794 
z
M 750 3309 
L 1409 3309 
L 1409 2516 
L 750 2516 
L 750 3309 
z
" transform="scale(0.015625)"/>
       <path id="DejaVuSans-63" d="M 3122 3366 
L 3122 2828 
Q 2878 2963 2633 3030 
Q 2388 3097 2138 3097 
Q 1578 3097 1268 2742 
Q 959 2388 959 1747 
Q 959 1106 1268 751 
Q 1578 397 2138 397 
Q 2388 397 2633 464 
Q 2878 531 3122 666 
L 3122 134 
Q 2881 22 2623 -34 
Q 2366 -91 2075 -91 
Q 1284 -91 818 406 
Q 353 903 353 1747 
Q 353 2603 823 3093 
Q 1294 3584 2113 3584 
Q 2378 3584 2631 3529 
Q 2884 3475 3122 3366 
z
" transform="scale(0.015625)"/>
       <path id="DejaVuSans-6e" d="M 3513 2113 
L 3513 0 
L 2938 0 
L 2938 2094 
Q 2938 2591 2744 2837 
Q 2550 3084 2163 3084 
Q 1697 3084 1428 2787 
Q 1159 2491 1159 1978 
L 1159 0 
L 581 0 
L 581 3500 
L 1159 3500 
L 1159 2956 
Q 1366 3272 1645 3428 
Q 1925 3584 2291 3584 
Q 2894 3584 3203 3211 
Q 3513 2838 3513 2113 
z
" transform="scale(0.015625)"/>
      </defs>
      <use xlink:href="#DejaVuSans-70"/>
      <use xlink:href="#DejaVuSans-75" transform="translate(63.476562 0)"/>
      <use xlink:href="#DejaVuSans-6c" transform="translate(126.855469 0)"/>
      <use xlink:href="#DejaVuSans-73" transform="translate(154.638672 0)"/>
      <use xlink:href="#DejaVuSans-65" transform="translate(206.738281 0)"/>
      <use xlink:href="#DejaVuSans-3a" transform="translate(268.261719 0)"/>
      <use xlink:href="#DejaVuSans-30" transform="translate(301.953125 0)"/>
      <use xlink:href="#DejaVuSans-20" transform="translate(365.576172 0)"/>
      <use xlink:href="#DejaVuSans-5b" transform="translate(397.363281 0)"/>
      <use xlink:href="#DejaVuSans-63" transform="translate(436.376953 0)"/>
      <use xlink:href="#DejaVuSans-6f" transform="translate(491.357422 0)"/>
      <use xlink:href="#DejaVuSans-75" transform="translate(552.539062 0)"/>
      <use xlink:href="#DejaVuSans-6e" transform="translate(615.917969 0)"/>
      <use xlink:href="#DejaVuSans-74" transform="translate(679.296875 0)"/>
      <use xlink:href="#DejaVuSans-73" transform="translate(718.505859 0)"/>
      <use xlink:href="#DejaVuSans-5d" transform="translate(770.605469 0)"/>
     </g>
    </g>
   </g>
   <g id="line2d_16">
    <path d="M 68.546307 218.821531 
L 72.604489 218.821531 
L 72.604489 218.587657 
L 74.63358 218.646125 
L 74.63358 218.412251 
L 76.66267 218.470719 
L 76.66267 218.295313 
L 77.677216 218.295313 
L 77.677216 218.412251 
L 78.691761 218.412251 
L 78.691761 217.827564 
L 79.706307 217.827564 
L 79.706307 217.710626 
L 80.720852 217.710626 
L 80.720852 216.892065 
L 81.735398 216.892065 
L 81.735398 217.009002 
L 82.749943 217.009002 
L 82.749943 216.775128 
L 83.764489 216.775128 
L 83.764489 214.845661 
L 84.779034 214.845661 
L 84.779034 213.968631 
L 85.79358 213.968631 
L 85.79358 213.208538 
L 86.808125 213.208538 
L 86.808125 210.343573 
L 87.82267 210.343573 
L 87.82267 208.121763 
L 88.837216 208.121763 
L 88.837216 203.795081 
L 89.851761 203.795081 
L 89.851761 197.831276 
L 90.866307 197.831276 
L 90.866307 191.750534 
L 91.880852 191.750534 
L 91.880852 184.500418 
L 92.895398 184.500418 
L 92.895398 179.004362 
L 93.909943 179.004362 
L 93.909943 166.609002 
L 94.924489 166.609002 
L 94.924489 154.681392 
L 95.939034 154.681392 
L 95.939034 144.332436 
L 96.95358 144.332436 
L 96.95358 133.10645 
L 97.968125 133.10645 
L 97.968125 122.465151 
L 98.98267 122.465151 
L 98.98267 116.32594 
L 99.997216 116.32594 
L 99.997216 102.702738 
L 101.011761 102.702738 
L 101.011761 94.867935 
L 102.026307 94.867935 
L 102.026307 85.337541 
L 103.040852 85.337541 
L 103.040852 86.448445 
L 104.055398 86.448445 
L 104.055398 73.176056 
L 105.069943 73.176056 
L 105.069943 67.504594 
L 106.084489 67.504594 
L 106.084489 64.464223 
L 107.099034 64.464223 
L 107.099034 55.167703 
L 108.11358 55.167703 
L 108.11358 53.121299 
L 109.128125 53.121299 
L 109.128125 50.256334 
L 110.14267 50.256334 
L 110.14267 41.310626 
L 111.157216 41.310626 
L 111.157216 44.877216 
L 112.171761 44.877216 
L 112.171761 38.211787 
L 113.186307 38.211787 
L 113.186307 29.850766 
L 114.200852 29.850766 
L 114.200852 35.054478 
L 115.215398 35.054478 
L 115.215398 30.961671 
L 116.229943 30.961671 
L 116.229943 24.35471 
L 117.244489 24.35471 
L 117.244489 28.739861 
L 118.259034 28.739861 
L 118.259034 18.507842 
L 119.27358 18.507842 
L 119.27358 24.530116 
L 120.288125 24.530116 
L 120.288125 23.886961 
L 121.30267 23.886961 
L 121.30267 20.554246 
L 122.317216 20.554246 
L 122.317216 17.455406 
L 123.331761 17.455406 
L 123.331761 24.822459 
L 124.346307 24.822459 
L 124.346307 22.776056 
L 125.360852 22.776056 
L 125.360852 21.314339 
L 126.375398 21.314339 
L 126.375398 21.957494 
L 127.389943 21.957494 
L 127.389943 17.28 
L 128.404489 17.28 
L 128.404489 23.243805 
L 129.419034 23.243805 
L 129.419034 28.447517 
L 130.43358 28.447517 
L 130.43358 33.885104 
L 131.448125 33.885104 
L 131.448125 32.30645 
L 132.46267 32.30645 
L 132.46267 44.994153 
L 134.491761 44.935684 
L 134.491761 46.221995 
L 135.506307 46.221995 
L 135.506307 52.712019 
L 136.520852 52.712019 
L 136.520852 56.220139 
L 137.535398 56.220139 
L 137.535398 63.70413 
L 138.549943 63.70413 
L 138.549943 68.264687 
L 139.564489 68.264687 
L 139.564489 70.018747 
L 140.579034 70.018747 
L 140.579034 74.111555 
L 141.59358 74.111555 
L 141.59358 89.605754 
L 142.608125 89.605754 
L 142.608125 92.061439 
L 143.62267 92.061439 
L 143.62267 94.283248 
L 144.637216 94.283248 
L 144.637216 104.866079 
L 145.651761 104.866079 
L 145.651761 101.533364 
L 146.666307 101.533364 
L 146.666307 115.565847 
L 147.680852 115.565847 
L 147.680852 124.570023 
L 148.695398 124.570023 
L 148.695398 128.662831 
L 149.709943 128.662831 
L 149.709943 133.281856 
L 150.724489 133.281856 
L 150.724489 141.701346 
L 151.739034 141.701346 
L 151.739034 143.338469 
L 152.75358 143.338469 
L 152.75358 149.711555 
L 153.768125 149.711555 
L 153.768125 149.47768 
L 154.78267 149.47768 
L 154.78267 157.838701 
L 155.797216 157.838701 
L 155.797216 161.814571 
L 156.811761 161.814571 
L 156.811761 169.298561 
L 157.826307 169.298561 
L 157.826307 169.181624 
L 158.840852 169.181624 
L 158.840852 174.970023 
L 159.855398 174.970023 
L 159.855398 177.016427 
L 160.869943 177.016427 
L 160.869943 181.050766 
L 161.884489 181.050766 
L 161.884489 183.857262 
L 162.899034 183.857262 
L 162.899034 188.710162 
L 163.91358 188.710162 
L 163.91358 191.399722 
L 164.928125 191.399722 
L 164.928125 192.452158 
L 165.94267 192.452158 
L 165.94267 195.258654 
L 166.957216 195.258654 
L 166.957216 197.538933 
L 167.971761 197.538933 
L 167.971761 203.268863 
L 168.986307 203.268863 
L 168.986307 204.028956 
L 170.000852 204.028956 
L 170.000852 208.121763 
L 171.015398 208.121763 
L 171.015398 209.291137 
L 172.029943 209.291137 
L 172.029943 210.752854 
L 173.044489 210.752854 
L 173.044489 212.156102 
L 174.059034 212.156102 
L 174.059034 214.728724 
L 175.07358 214.728724 
L 175.07358 215.664223 
L 176.088125 215.664223 
L 176.088125 217.067471 
L 177.10267 217.067471 
L 177.10267 217.242877 
L 178.117216 217.242877 
L 178.117216 217.886032 
L 179.131761 217.886032 
L 179.131761 218.178376 
L 180.146307 218.178376 
L 180.146307 218.295313 
L 182.175398 218.353782 
L 182.175398 217.769095 
L 183.189943 217.769095 
L 183.189943 217.944501 
L 184.204489 217.944501 
L 184.204489 217.827564 
L 185.219034 217.827564 
L 185.219034 216.716659 
L 186.23358 216.716659 
L 186.23358 216.833596 
L 187.248125 216.833596 
L 187.248125 215.898097 
L 188.26267 215.898097 
L 188.26267 215.313411 
L 189.277216 215.313411 
L 189.277216 214.0271 
L 190.291761 214.0271 
L 190.291761 213.033132 
L 191.306307 213.033132 
L 191.306307 213.500882 
L 192.320852 213.500882 
L 192.320852 209.875824 
L 193.335398 209.875824 
L 193.335398 208.70645 
L 194.349943 208.70645 
L 194.349943 207.946357 
L 195.364489 207.946357 
L 195.364489 207.127796 
L 196.379034 207.127796 
L 196.379034 205.373735 
L 197.39358 205.373735 
L 197.39358 205.081392 
L 198.408125 205.081392 
L 198.408125 204.087425 
L 199.42267 204.087425 
L 199.42267 199.819211 
L 200.437216 199.819211 
L 200.437216 200.75471 
L 201.451761 200.75471 
L 201.451761 199.526868 
L 203.480852 199.468399 
L 203.480852 197.480464 
L 205.509943 197.421995 
L 205.509943 195.258654 
L 206.524489 195.258654 
L 206.524489 194.732436 
L 208.55358 194.673968 
L 208.55358 191.867471 
L 209.568125 191.867471 
L 209.568125 191.575128 
L 211.597216 191.575128 
L 211.597216 191.750534 
L 212.611761 191.750534 
L 212.611761 192.101346 
L 213.626307 192.101346 
L 213.626307 190.931972 
L 215.655398 190.931972 
L 215.655398 189.470255 
L 216.669943 189.470255 
L 216.669943 190.58116 
L 217.684489 190.58116 
L 217.684489 188.651694 
L 218.699034 188.651694 
L 218.699034 191.282784 
L 219.71358 191.282784 
L 219.71358 187.248445 
L 220.728125 187.248445 
L 220.728125 189.821067 
L 221.74267 189.821067 
L 221.74267 187.540789 
L 222.757216 187.540789 
L 222.757216 186.079072 
L 223.771761 186.079072 
L 223.771761 186.780696 
L 224.786307 186.780696 
L 224.786307 187.48232 
L 225.800852 187.48232 
L 225.800852 185.962135 
L 226.815398 185.962135 
L 226.815398 188.008538 
L 227.829943 188.008538 
L 227.829943 188.710162 
L 228.844489 188.710162 
L 228.844489 189.879536 
L 229.859034 189.879536 
L 229.859034 188.593225 
L 230.87358 188.593225 
L 230.87358 192.33522 
L 231.888125 192.33522 
L 231.888125 188.534756 
L 232.90267 188.534756 
L 232.90267 189.236381 
L 234.931761 189.236381 
L 234.931761 192.042877 
L 235.946307 192.042877 
L 235.946307 193.796937 
L 236.960852 193.796937 
L 236.960852 189.996473 
L 237.975398 189.996473 
L 237.975398 192.33522 
L 238.989943 192.33522 
L 238.989943 191.45819 
L 241.019034 191.399722 
L 241.019034 193.563063 
L 242.03358 193.563063 
L 242.03358 192.744501 
L 243.048125 192.744501 
L 243.048125 191.692065 
L 244.06267 191.692065 
L 244.06267 196.954246 
L 245.077216 196.954246 
L 245.077216 195.843341 
L 246.091761 195.843341 
L 246.091761 195.141717 
L 247.106307 195.141717 
L 247.106307 195.784872 
L 248.120852 195.784872 
L 248.120852 197.831276 
L 249.135398 197.831276 
L 249.135398 195.90181 
L 250.149943 195.90181 
L 250.149943 197.129652 
L 252.179034 197.071183 
L 252.179034 198.415963 
L 253.19358 198.415963 
L 253.19358 195.843341 
L 254.208125 195.843341 
L 254.208125 198.5329 
L 255.22267 198.5329 
L 255.22267 196.895777 
L 256.237216 196.895777 
L 256.237216 198.299026 
L 257.251761 198.299026 
L 257.251761 198.5329 
L 258.266307 198.5329 
L 258.266307 199.87768 
L 259.280852 199.87768 
L 259.280852 201.222459 
L 260.295398 201.222459 
L 260.295398 200.228492 
L 261.309943 200.228492 
L 261.309943 200.637773 
L 262.324489 200.637773 
L 262.324489 201.163991 
L 263.339034 201.163991 
L 263.339034 201.514803 
L 265.368125 201.573271 
L 265.368125 202.684176 
L 266.38267 202.684176 
L 266.38267 201.339397 
L 267.397216 201.339397 
L 267.397216 200.637773 
L 269.426307 200.579304 
L 269.426307 201.748677 
L 270.440852 201.748677 
L 270.440852 202.274896 
L 271.455398 202.274896 
L 271.455398 203.093457 
L 272.469943 203.093457 
L 272.469943 202.918051 
L 273.484489 202.918051 
L 273.484489 203.327332 
L 274.499034 203.327332 
L 274.499034 201.163991 
L 275.51358 201.163991 
L 275.51358 203.85355 
L 276.528125 203.85355 
L 276.528125 203.619675 
L 277.54267 203.619675 
L 277.54267 204.321299 
L 278.557216 204.321299 
L 278.557216 204.028956 
L 279.571761 204.028956 
L 279.571761 204.496705 
L 281.600852 204.438237 
L 281.600852 205.783016 
L 282.615398 205.783016 
L 282.615398 205.60761 
L 284.644489 205.549142 
L 284.644489 205.432204 
L 285.659034 205.432204 
L 285.659034 205.549142 
L 286.67358 205.549142 
L 286.67358 206.48464 
L 287.688125 206.48464 
L 287.688125 206.192297 
L 289.717216 206.133828 
L 289.717216 205.899954 
L 290.731761 205.899954 
L 290.731761 205.315267 
L 291.746307 205.315267 
L 291.746307 206.367703 
L 292.760852 206.367703 
L 292.760852 206.601578 
L 294.789943 206.601578 
L 294.789943 207.244733 
L 295.804489 207.244733 
L 295.804489 208.238701 
L 296.819034 208.238701 
L 296.819034 207.595545 
L 297.83358 207.595545 
L 297.83358 206.543109 
L 298.848125 206.543109 
L 298.848125 206.835452 
L 299.86267 206.835452 
L 299.86267 207.420139 
L 300.877216 207.420139 
L 300.877216 207.946357 
L 301.891761 207.946357 
L 301.891761 207.361671 
L 302.906307 207.361671 
L 302.906307 208.998794 
L 303.920852 208.998794 
L 303.920852 207.946357 
L 304.935398 207.946357 
L 304.935398 208.764919 
L 305.949943 208.764919 
L 305.949943 209.232668 
L 306.964489 209.232668 
L 306.964489 209.817355 
L 307.979034 209.817355 
L 307.979034 209.057262 
L 308.99358 209.057262 
L 308.99358 209.758886 
L 310.008125 209.758886 
L 310.008125 208.238701 
L 311.02267 208.238701 
L 311.02267 209.934292 
L 312.037216 209.934292 
L 312.037216 210.869791 
L 313.051761 210.869791 
L 313.051761 210.05123 
L 314.066307 210.05123 
L 314.066307 209.641949 
L 315.080852 209.641949 
L 315.080852 209.817355 
L 316.095398 209.817355 
L 316.095398 210.168167 
L 317.109943 210.168167 
L 317.109943 210.05123 
L 318.124489 210.05123 
L 318.124489 210.226636 
L 319.139034 210.226636 
L 319.139034 210.752854 
L 320.15358 210.752854 
L 320.15358 210.46051 
L 321.168125 210.46051 
L 321.168125 211.80529 
L 322.18267 211.80529 
L 322.18267 210.285104 
L 323.197216 210.285104 
L 323.197216 211.045197 
L 324.211761 211.045197 
L 324.211761 211.80529 
L 325.226307 211.80529 
L 325.226307 211.103666 
L 326.240852 211.103666 
L 326.240852 210.109698 
L 327.255398 210.109698 
L 327.255398 209.58348 
L 328.269943 209.58348 
L 328.269943 210.811323 
L 329.284489 210.811323 
L 329.284489 210.986729 
L 330.299034 210.986729 
L 330.299034 211.454478 
L 331.31358 211.454478 
L 331.31358 210.869791 
L 332.328125 210.869791 
L 332.328125 212.331508 
L 333.34267 212.331508 
L 333.34267 211.629884 
L 334.357216 211.629884 
L 334.357216 212.331508 
L 335.371761 212.331508 
L 335.371761 212.916195 
L 336.386307 212.916195 
L 336.386307 213.033132 
L 337.400852 213.033132 
L 337.400852 211.863759 
L 338.415398 211.863759 
L 338.415398 212.623852 
L 339.429943 212.623852 
L 339.429943 213.325476 
L 340.444489 213.325476 
L 340.444489 212.565383 
L 341.459034 212.565383 
L 341.459034 213.325476 
L 342.47358 213.325476 
L 342.47358 213.851694 
L 343.488125 213.851694 
L 343.488125 213.968631 
L 345.517216 213.910162 
L 345.517216 215.079536 
L 347.546307 215.138005 
L 347.546307 214.202506 
L 348.560852 214.202506 
L 348.560852 214.962599 
L 349.575398 214.962599 
L 349.575398 215.547285 
L 350.589943 215.547285 
L 350.589943 215.898097 
L 351.604489 215.898097 
L 351.604489 216.190441 
L 352.619034 216.190441 
L 352.619034 215.78116 
L 354.648125 215.722691 
L 354.648125 216.190441 
L 355.66267 216.190441 
L 355.66267 216.365847 
L 356.677216 216.365847 
L 356.677216 216.892065 
L 357.691761 216.892065 
L 357.691761 217.652158 
L 358.706307 217.652158 
L 358.706307 217.184408 
L 359.720852 217.184408 
L 359.720852 216.833596 
L 360.735398 216.833596 
L 360.735398 217.476752 
L 361.749943 217.476752 
L 361.749943 217.593689 
L 363.779034 217.53522 
L 363.779034 217.827564 
L 364.79358 217.827564 
L 364.79358 218.178376 
L 366.82267 218.178376 
L 366.82267 218.061439 
L 367.837216 218.061439 
L 367.837216 218.353782 
L 368.851761 218.353782 
L 368.851761 218.646125 
L 369.866307 218.646125 
L 369.866307 218.470719 
L 370.880852 218.470719 
L 370.880852 218.704594 
L 372.909943 218.704594 
L 372.909943 218.704594 
" clip-path="url(#pf4142355ec)" style="fill: none; stroke: #1f77b4; stroke-width: 1.5; stroke-linecap: square"/>
   </g>
   <g id="patch_3">
    <path d="M 53.328125 228.96 
L 53.328125 7.2 
" style="fill: none; stroke: #000000; stroke-width: 0.8; stroke-linejoin: miter; stroke-linecap: square"/>
   </g>
   <g id="patch_4">
    <path d="M 388.128125 228.96 
L 388.128125 7.2 
" style="fill: none; stroke: #000000; stroke-width: 0.8; stroke-linejoin: miter; stroke-linecap: square"/>
   </g>
   <g id="patch_5">
    <path d="M 53.328125 228.96 
L 388.128125 228.96 
" style="fill: none; stroke: #000000; stroke-width: 0.8; stroke-linejoin: miter; stroke-linecap: square"/>
   </g>
   <g id="patch_6">
    <path d="M 53.328125 7.2 
L 388.128125 7.2 
" style="fill: none; stroke: #000000; stroke-width: 0.8; stroke-linejoin: miter; stroke-linecap: square"/>
   </g>
  </g>
 </g>
 <defs>
  <clipPath id="pf4142355ec">
   <rect x="53.328125" y="7.2" width="334.8" height="221.76"/>
  </clipPath>
 </defs>
</svg>
