<?xml version="1.0" encoding="utf-8" standalone="no"?>
<!DOCTYPE svg PUBLIC "-//W3C//DTD SVG 1.1//EN"
  "http://www.w3.org/Graphics/SVG/1.1/DTD/svg11.dtd">
<svg xmlns:xlink="http://www.w3.org/1999/xlink" width="395.328125pt" height="266.51625pt" viewBox="0 0 395.328125 266.51625" xmlns="http://www.w3.org/2000/svg" version="1.1">
 <metadata>
  <rdf:RDF xmlns:dc="http://purl.org/dc/elements/1.1/" xmlns:cc="http://creativecommons.org/ns#" xmlns:rdf="http://www.w3.org/1999/02/22-rdf-syntax-ns#">
   <cc:Work>
    <dc:type rdf:resource="http://purl.org/dc/dcmitype/StillImage"/>
    <dc:date>2026-03-12T12:42:31.013181</dc:date>
    <dc:format>image/svg+xml</dc:format>
    <dc:creator>
     <cc:Agent>
      <dc:title>Matplotlib v3.10.7, https://matplotlib.org/</dc:title>
     </cc:Agent>
    </dc:creator>
   </cc:Work>
  </rdf:RDF>
 </metadata>
 <defs>
  <style type="text/css">*{stroke-linejoin: round; stroke-linecap: butt}</style>
 </defs>
 <g id="figure_1">
  <g id="patch_1">
   <path d="M 0 266.51625 
L 395.328125 266.51625 
L 395.328125 0 
L 0 0 
z
" style="fill: #ffffff"/>
  </g>
  <g id="axes_1">
   <g id="patch_2">
    <path d="M 53.328125 228.96 
L 388.128125 228.96 
L 388.128125 7.2 
L 53.328125 7.2 
z
" style="fill: #ffffff"/>
   </g>
   <g id="matplotlib.axis_1">
    <g id="xtick_1">
     <g id="line2d_1">
      <defs>
       <path id="mc9aeca561d" d="M 0 0 
L 0 3.5 
" style="stroke: #000000; stroke-width: 0.8"/>
      </defs>
      <g>
       <use xlink:href="#mc9aeca561d" x="94.288825" y="228.96" style="stroke: #000000; stroke-width: 0.8"/>
      </g>
     </g>
     <g id="text_1">
      <!-- 20000 -->
      <g transform="translate(78.382575 243.558437) scale(0.1 -0.1)">
       <defs>
        <path id="DejaVuSans-32" d="M 1228 531 
L 3431 531 
L 3431 0 
L 469 0 
L 469 531 
Q 828 903 1448 1529 
Q 2069 2156 2228 2338 
Q 2531 2678 2651 2914 
Q 2772 3150 2772 3378 
Q 2772 3750 2511 3984 
Q 2250 4219 1831 4219 
Q 1534 4219 1204 4116 
Q 875 4013 500 3803 
L 500 4441 
Q 881 4594 1212 4672 
Q 1544 4750 1819 4750 
Q 2544 4750 2975 4387 
Q 3406 4025 3406 3419 
Q 3406 3131 3298 2873 
Q 3191 2616 2906 2266 
Q 2828 2175 2409 1742 
Q 1991 1309 1228 531 
z
" transform="scale(0.015625)"/>
        <path id="DejaVuSans-30" d="M 2034 4250 
Q 1547 4250 1301 3770 
Q 1056 3291 1056 2328 
Q 1056 1369 1301 889 
Q 1547 409 2034 409 
Q 2525 409 2770 889 
Q 3016 1369 3016 2328 
Q 3016 3291 2770 3770 
Q 2525 4250 2034 4250 
z
M 2034 4750 
Q 2819 4750 3233 4129 
Q 3647 3509 3647 2328 
Q 3647 1150 3233 529 
Q 2819 -91 2034 -91 
Q 1250 -91 836 529 
Q 422 1150 422 2328 
Q 422 3509 836 4129 
Q 1250 4750 2034 4750 
z
" transform="scale(0.015625)"/>
       </defs>
       <use xlink:href="#DejaVuSans-32"/>
       <use xlink:href="#DejaVuSans-30" transform="translate(63.623047 0)"/>
       <use xlink:href="#DejaVuSans-30" transform="translate(127.246094 0)"/>
       <use xlink:href="#DejaVuSans-30" transform="translate(190.869141 0)"/>
       <use xlink:href="#DejaVuSans-30" transform="translate(254.492188 0)"/>
      </g>
     </g>
    </g>
    <g id="xtick_2">
     <g id="line2d_2">
      <g>
       <use xlink:href="#mc9aeca561d" x="160.051835" y="228.96" style="stroke: #000000; stroke-width: 0.8"/>
      </g>
     </g>
     <g id="text_2">
      <!-- 30000 -->
      <g transform="translate(144.145585 243.558437) scale(0.1 -0.1)">
       <defs>
        <path id="DejaVuSans-33" d="M 2597 2516 
Q 3050 2419 3304 2112 
Q 3559 1806 3559 1356 
Q 3559 666 3084 287 
Q 2609 -91 1734 -91 
Q 1441 -91 1130 -33 
Q 819 25 488 141 
L 488 750 
Q 750 597 1062 519 
Q 1375 441 1716 441 
Q 2309 441 2620 675 
Q 2931 909 2931 1356 
Q 2931 1769 2642 2001 
Q 2353 2234 1838 2234 
L 1294 2234 
L 1294 2753 
L 1863 2753 
Q 2328 2753 2575 2939 
Q 2822 3125 2822 3475 
Q 2822 3834 2567 4026 
Q 2313 4219 1838 4219 
Q 1578 4219 1281 4162 
Q 984 4106 628 3988 
L 628 4550 
Q 988 4650 1302 4700 
Q 1616 4750 1894 4750 
Q 2613 4750 3031 4423 
Q 3450 4097 3450 3541 
Q 3450 3153 3228 2886 
Q 3006 2619 2597 2516 
z
" transform="scale(0.015625)"/>
       </defs>
       <use xlink:href="#DejaVuSans-33"/>
       <use xlink:href="#DejaVuSans-30" transform="translate(63.623047 0)"/>
       <use xlink:href="#DejaVuSans-30" transform="translate(127.246094 0)"/>
       <use xlink:href="#DejaVuSans-30" transform="translate(190.869141 0)"/>
       <use xlink:href="#DejaVuSans-30" transform="translate(254.492188 0)"/>
      </g>
     </g>
    </g>
    <g id="xtick_3">
     <g id="line2d_3">
      <g>
       <use xlink:href="#mc9aeca561d" x="225.814845" y="228.96" style="stroke: #000000; stroke-width: 0.8"/>
      </g>
     </g>
     <g id="text_3">
      <!-- 40000 -->
      <g transform="translate(209.908595 243.558437) scale(0.1 -0.1)">
       <defs>
        <path id="DejaVuSans-34" d="M 2419 4116 
L 825 1625 
L 2419 1625 
L 2419 4116 
z
M 2253 4666 
L 3047 4666 
L 3047 1625 
L 3713 1625 
L 3713 1100 
L 3047 1100 
L 3047 0 
L 2419 0 
L 2419 1100 
L 313 1100 
L 313 1709 
L 2253 4666 
z
" transform="scale(0.015625)"/>
       </defs>
       <use xlink:href="#DejaVuSans-34"/>
       <use xlink:href="#DejaVuSans-30" transform="translate(63.623047 0)"/>
       <use xlink:href="#DejaVuSans-30" transform="translate(127.246094 0)"/>
       <use xlink:href="#DejaVuSans-30" transform="translate(190.869141 0)"/>
       <use xlink:href="#DejaVuSans-30" transform="translate(254.492188 0)"/>
      </g>
     </g>
    </g>
    <g id="xtick_4">
     <g id="line2d_4">
      <g>
       <use xlink:href="#mc9aeca561d" x="291.577856" y="228.96" style="stroke: #000000; stroke-width: 0.8"/>
      </g>
     </g>
     <g id="text_4">
      <!-- 50000 -->
      <g transform="translate(275.671606 243.558437) scale(0.1 -0.1)">
       <defs>
        <path id="DejaVuSans-35" d="M 691 4666 
L 3169 4666 
L 3169 4134 
L 1269 4134 
L 1269 2991 
Q 1406 3038 1543 3061 
Q 1681 3084 1819 3084 
Q 2600 3084 3056 2656 
Q 3513 2228 3513 1497 
Q 3513 744 3044 326 
Q 2575 -91 1722 -91 
Q 1428 -91 1123 -41 
Q 819 9 494 109 
L 494 744 
Q 775 591 1075 516 
Q 1375 441 1709 441 
Q 2250 441 2565 725 
Q 2881 1009 2881 1497 
Q 2881 1984 2565 2268 
Q 2250 2553 1709 2553 
Q 1456 2553 1204 2497 
Q 953 2441 691 2322 
L 691 4666 
z
" transform="scale(0.015625)"/>
       </defs>
       <use xlink:href="#DejaVuSans-35"/>
       <use xlink:href="#DejaVuSans-30" transform="translate(63.623047 0)"/>
       <use xlink:href="#DejaVuSans-30" transform="translate(127.246094 0)"/>
       <use xlink:href="#DejaVuSans-30" transform="translate(190.869141 0)"/>
       <use xlink:href="#DejaVuSans-30" transform="translate(254.492188 0)"/>
      </g>
     </g>
    </g>
    <g id="xtick_5">
     <g id="line2d_5">
      <g>
       <use xlink:href="#mc9aeca561d" x="357.340866" y="228.96" style="stroke: #000000; stroke-width: 0.8"/>
      </g>
     </g>
     <g id="text_5">
      <!-- 60000 -->
      <g transform="translate(341.434616 243.558437) scale(0.1 -0.1)">
       <defs>
        <path id="DejaVuSans-36" d="M 2113 2584 
Q 1688 2584 1439 2293 
Q 1191 2003 1191 1497 
Q 1191 994 1439 701 
Q 1688 409 2113 409 
Q 2538 409 2786 701 
Q 3034 994 3034 1497 
Q 3034 2003 2786 2293 
Q 2538 2584 2113 2584 
z
M 3366 4563 
L 3366 3988 
Q 3128 4100 2886 4159 
Q 2644 4219 2406 4219 
Q 1781 4219 1451 3797 
Q 1122 3375 1075 2522 
Q 1259 2794 1537 2939 
Q 1816 3084 2150 3084 
Q 2853 3084 3261 2657 
Q 3669 2231 3669 1497 
Q 3669 778 3244 343 
Q 2819 -91 2113 -91 
Q 1303 -91 875 529 
Q 447 1150 447 2328 
Q 447 3434 972 4092 
Q 1497 4750 2381 4750 
Q 2619 4750 2861 4703 
Q 3103 4656 3366 4563 
z
" transform="scale(0.015625)"/>
       </defs>
       <use xlink:href="#DejaVuSans-36"/>
       <use xlink:href="#DejaVuSans-30" transform="translate(63.623047 0)"/>
       <use xlink:href="#DejaVuSans-30" transform="translate(127.246094 0)"/>
       <use xlink:href="#DejaVuSans-30" transform="translate(190.869141 0)"/>
       <use xlink:href="#DejaVuSans-30" transform="translate(254.492188 0)"/>
      </g>
     </g>
    </g>
    <g id="text_6">
     <!-- toa [µs] -->
     <g transform="translate(201.367969 257.236562) scale(0.1 -0.1)">
      <defs>
       <path id="DejaVuSans-74" d="M 1172 4494 
L 1172 3500 
L 2356 3500 
L 2356 3053 
L 1172 3053 
L 1172 1153 
Q 1172 725 1289 603 
Q 1406 481 1766 481 
L 2356 481 
L 2356 0 
L 1766 0 
Q 1100 0 847 248 
Q 594 497 594 1153 
L 594 3053 
L 172 3053 
L 172 3500 
L 594 3500 
L 594 4494 
L 1172 4494 
z
" transform="scale(0.015625)"/>
       <path id="DejaVuSans-6f" d="M 1959 3097 
Q 1497 3097 1228 2736 
Q 959 2375 959 1747 
Q 959 1119 1226 758 
Q 1494 397 1959 397 
Q 2419 397 2687 759 
Q 2956 1122 2956 1747 
Q 2956 2369 2687 2733 
Q 2419 3097 1959 3097 
z
M 1959 3584 
Q 2709 3584 3137 3096 
Q 3566 2609 3566 1747 
Q 3566 888 3137 398 
Q 2709 -91 1959 -91 
Q 1206 -91 779 398 
Q 353 888 353 1747 
Q 353 2609 779 3096 
Q 1206 3584 1959 3584 
z
" transform="scale(0.015625)"/>
       <path id="DejaVuSans-61" d="M 2194 1759 
Q 1497 1759 1228 1600 
Q 959 1441 959 1056 
Q 959 750 1161 570 
Q 1363 391 1709 391 
Q 2188 391 2477 730 
Q 2766 1069 2766 1631 
L 2766 1759 
L 2194 1759 
z
M 3341 1997 
L 3341 0 
L 2766 0 
L 2766 531 
Q 2569 213 2275 61 
Q 1981 -91 1556 -91 
Q 1019 -91 701 211 
Q 384 513 384 1019 
Q 384 1609 779 1909 
Q 1175 2209 1959 2209 
L 2766 2209 
L 2766 2266 
Q 2766 2663 2505 2880 
Q 2244 3097 1772 3097 
Q 1472 3097 1187 3025 
Q 903 2953 641 2809 
L 641 3341 
Q 956 3463 1253 3523 
Q 1550 3584 1831 3584 
Q 2591 3584 2966 3190 
Q 3341 2797 3341 1997 
z
" transform="scale(0.015625)"/>
       <path id="DejaVuSans-20" transform="scale(0.015625)"/>
       <path id="DejaVuSans-5b" d="M 550 4863 
L 1875 4863 
L 1875 4416 
L 1125 4416 
L 1125 -397 
L 1875 -397 
L 1875 -844 
L 550 -844 
L 550 4863 
z
" transform="scale(0.015625)"/>
       <path id="DejaVuSans-b5" d="M 544 -1331 
L 544 3500 
L 1119 3500 
L 1119 1325 
Q 1119 872 1334 640 
Q 1550 409 1972 409 
Q 2434 409 2667 671 
Q 2900 934 2900 1459 
L 2900 3500 
L 3475 3500 
L 3475 806 
Q 3475 619 3529 530 
Q 3584 441 3700 441 
Q 3728 441 3778 458 
Q 3828 475 3916 513 
L 3916 50 
Q 3788 -22 3673 -56 
Q 3559 -91 3450 -91 
Q 3234 -91 3106 31 
Q 2978 153 2931 403 
Q 2775 156 2548 32 
Q 2322 -91 2016 -91 
Q 1697 -91 1473 31 
Q 1250 153 1119 397 
L 1119 -1331 
L 544 -1331 
z
" transform="scale(0.015625)"/>
       <path id="DejaVuSans-73" d="M 2834 3397 
L 2834 2853 
Q 2591 2978 2328 3040 
Q 2066 3103 1784 3103 
Q 1356 3103 1142 2972 
Q 928 2841 928 2578 
Q 928 2378 1081 2264 
Q 1234 2150 1697 2047 
L 1894 2003 
Q 2506 1872 2764 1633 
Q 3022 1394 3022 966 
Q 3022 478 2636 193 
Q 2250 -91 1575 -91 
Q 1294 -91 989 -36 
Q 684 19 347 128 
L 347 722 
Q 666 556 975 473 
Q 1284 391 1588 391 
Q 1994 391 2212 530 
Q 2431 669 2431 922 
Q 2431 1156 2273 1281 
Q 2116 1406 1581 1522 
L 1381 1569 
Q 847 1681 609 1914 
Q 372 2147 372 2553 
Q 372 3047 722 3315 
Q 1072 3584 1716 3584 
Q 2034 3584 2315 3537 
Q 2597 3491 2834 3397 
z
" transform="scale(0.015625)"/>
       <path id="DejaVuSans-5d" d="M 1947 4863 
L 1947 -844 
L 622 -844 
L 622 -397 
L 1369 -397 
L 1369 4416 
L 622 4416 
L 622 4863 
L 1947 4863 
z
" transform="scale(0.015625)"/>
      </defs>
      <use xlink:href="#DejaVuSans-74"/>
      <use xlink:href="#DejaVuSans-6f" transform="translate(39.208984 0)"/>
      <use xlink:href="#DejaVuSans-61" transform="translate(100.390625 0)"/>
      <use xlink:href="#DejaVuSans-20" transform="translate(161.669922 0)"/>
      <use xlink:href="#DejaVuSans-5b" transform="translate(193.457031 0)"/>
      <use xlink:href="#DejaVuSans-b5" transform="translate(232.470703 0)"/>
      <use xlink:href="#DejaVuSans-73" transform="translate(296.09375 0)"/>
      <use xlink:href="#DejaVuSans-5d" transform="translate(348.193359 0)"/>
     </g>
    </g>
   </g>
   <g id="matplotlib.axis_2">
    <g id="ytick_1">
     <g id="line2d_6">
      <defs>
       <path id="m62b71d7878" d="M 0 0 
L -3.5 0 
" style="stroke: #000000; stroke-width: 0.8"/>
      </defs>
      <g>
       <use xlink:href="#m62b71d7878" x="53.328125" y="218.88" style="stroke: #000000; stroke-width: 0.8"/>
      </g>
     </g>
     <g id="text_7">
      <!-- 0 -->
      <g transform="translate(39.965625 222.679219) scale(0.1 -0.1)">
       <use xlink:href="#DejaVuSans-30"/>
      </g>
     </g>
    </g>
    <g id="ytick_2">
     <g id="line2d_7">
      <g>
       <use xlink:href="#m62b71d7878" x="53.328125" y="183.293063" style="stroke: #000000; stroke-width: 0.8"/>
      </g>
     </g>
     <g id="text_8">
      <!-- 200 -->
      <g transform="translate(27.240625 187.092281) scale(0.1 -0.1)">
       <use xlink:href="#DejaVuSans-32"/>
       <use xlink:href="#DejaVuSans-30" transform="translate(63.623047 0)"/>
       <use xlink:href="#DejaVuSans-30" transform="translate(127.246094 0)"/>
      </g>
     </g>
    </g>
    <g id="ytick_3">
     <g id="line2d_8">
      <g>
       <use xlink:href="#m62b71d7878" x="53.328125" y="147.706125" style="stroke: #000000; stroke-width: 0.8"/>
      </g>
     </g>
     <g id="text_9">
      <!-- 400 -->
      <g transform="translate(27.240625 151.505344) scale(0.1 -0.1)">
       <use xlink:href="#DejaVuSans-34"/>
       <use xlink:href="#DejaVuSans-30" transform="translate(63.623047 0)"/>
       <use xlink:href="#DejaVuSans-30" transform="translate(127.246094 0)"/>
      </g>
     </g>
    </g>
    <g id="ytick_4">
     <g id="line2d_9">
      <g>
       <use xlink:href="#m62b71d7878" x="53.328125" y="112.119188" style="stroke: #000000; stroke-width: 0.8"/>
      </g>
     </g>
     <g id="text_10">
      <!-- 600 -->
      <g transform="translate(27.240625 115.918407) scale(0.1 -0.1)">
       <use xlink:href="#DejaVuSans-36"/>
       <use xlink:href="#DejaVuSans-30" transform="translate(63.623047 0)"/>
       <use xlink:href="#DejaVuSans-30" transform="translate(127.246094 0)"/>
      </g>
     </g>
    </g>
    <g id="ytick_5">
     <g id="line2d_10">
      <g>
       <use xlink:href="#m62b71d7878" x="53.328125" y="76.532251" style="stroke: #000000; stroke-width: 0.8"/>
      </g>
     </g>
     <g id="text_11">
      <!-- 800 -->
      <g transform="translate(27.240625 80.331469) scale(0.1 -0.1)">
       <defs>
        <path id="DejaVuSans-38" d="M 2034 2216 
Q 1584 2216 1326 1975 
Q 1069 1734 1069 1313 
Q 1069 891 1326 650 
Q 1584 409 2034 409 
Q 2484 409 2743 651 
Q 3003 894 3003 1313 
Q 3003 1734 2745 1975 
Q 2488 2216 2034 2216 
z
M 1403 2484 
Q 997 2584 770 2862 
Q 544 3141 544 3541 
Q 544 4100 942 4425 
Q 1341 4750 2034 4750 
Q 2731 4750 3128 4425 
Q 3525 4100 3525 3541 
Q 3525 3141 3298 2862 
Q 3072 2584 2669 2484 
Q 3125 2378 3379 2068 
Q 3634 1759 3634 1313 
Q 3634 634 3220 271 
Q 2806 -91 2034 -91 
Q 1263 -91 848 271 
Q 434 634 434 1313 
Q 434 1759 690 2068 
Q 947 2378 1403 2484 
z
M 1172 3481 
Q 1172 3119 1398 2916 
Q 1625 2713 2034 2713 
Q 2441 2713 2670 2916 
Q 2900 3119 2900 3481 
Q 2900 3844 2670 4047 
Q 2441 4250 2034 4250 
Q 1625 4250 1398 4047 
Q 1172 3844 1172 3481 
z
" transform="scale(0.015625)"/>
       </defs>
       <use xlink:href="#DejaVuSans-38"/>
       <use xlink:href="#DejaVuSans-30" transform="translate(63.623047 0)"/>
       <use xlink:href="#DejaVuSans-30" transform="translate(127.246094 0)"/>
      </g>
     </g>
    </g>
    <g id="ytick_6">
     <g id="line2d_11">
      <g>
       <use xlink:href="#m62b71d7878" x="53.328125" y="40.945313" style="stroke: #000000; stroke-width: 0.8"/>
      </g>
     </g>
     <g id="text_12">
      <!-- 1000 -->
      <g transform="translate(20.878125 44.744532) scale(0.1 -0.1)">
       <defs>
        <path id="DejaVuSans-31" d="M 794 531 
L 1825 531 
L 1825 4091 
L 703 3866 
L 703 4441 
L 1819 4666 
L 2450 4666 
L 2450 531 
L 3481 531 
L 3481 0 
L 794 0 
L 794 531 
z
" transform="scale(0.015625)"/>
       </defs>
       <use xlink:href="#DejaVuSans-31"/>
       <use xlink:href="#DejaVuSans-30" transform="translate(63.623047 0)"/>
       <use xlink:href="#DejaVuSans-30" transform="translate(127.246094 0)"/>
       <use xlink:href="#DejaVuSans-30" transform="translate(190.869141 0)"/>
      </g>
     </g>
    </g>
    <g id="text_13">
     <!-- pulse:0 [counts] -->
     <g transform="translate(14.798438 158.560469) rotate(-90) scale(0.1 -0.1)">
      <defs>
       <path id="DejaVuSans-70" d="M 1159 525 
L 1159 -1331 
L 581 -1331 
L 581 3500 
L 1159 3500 
L 1159 2969 
Q 1341 3281 1617 3432 
Q 1894 3584 2278 3584 
Q 2916 3584 3314 3078 
Q 3713 2572 3713 1747 
Q 3713 922 3314 415 
Q 2916 -91 2278 -91 
Q 1894 -91 1617 61 
Q 1341 213 1159 525 
z
M 3116 1747 
Q 3116 2381 2855 2742 
Q 2594 3103 2138 3103 
Q 1681 3103 1420 2742 
Q 1159 2381 1159 1747 
Q 1159 1113 1420 752 
Q 1681 391 2138 391 
Q 2594 391 2855 752 
Q 3116 1113 3116 1747 
z
" transform="scale(0.015625)"/>
       <path id="DejaVuSans-75" d="M 544 1381 
L 544 3500 
L 1119 3500 
L 1119 1403 
Q 1119 906 1312 657 
Q 1506 409 1894 409 
Q 2359 409 2629 706 
Q 2900 1003 2900 1516 
L 2900 3500 
L 3475 3500 
L 3475 0 
L 2900 0 
L 2900 538 
Q 2691 219 2414 64 
Q 2138 -91 1772 -91 
Q 1169 -91 856 284 
Q 544 659 544 1381 
z
M 1991 3584 
L 1991 3584 
z
" transform="scale(0.015625)"/>
       <path id="DejaVuSans-6c" d="M 603 4863 
L 1178 4863 
L 1178 0 
L 603 0 
L 603 4863 
z
" transform="scale(0.015625)"/>
       <path id="DejaVuSans-65" d="M 3597 1894 
L 3597 1613 
L 953 1613 
Q 991 1019 1311 708 
Q 1631 397 2203 397 
Q 2534 397 2845 478 
Q 3156 559 3463 722 
L 3463 178 
Q 3153 47 2828 -22 
Q 2503 -91 2169 -91 
Q 1331 -91 842 396 
Q 353 884 353 1716 
Q 353 2575 817 3079 
Q 1281 3584 2069 3584 
Q 2775 3584 3186 3129 
Q 3597 2675 3597 1894 
z
M 3022 2063 
Q 3016 2534 2758 2815 
Q 2500 3097 2075 3097 
Q 1594 3097 1305 2825 
Q 1016 2553 972 2059 
L 3022 2063 
z
" transform="scale(0.015625)"/>
       <path id="DejaVuSans-3a" d="M 750 794 
L 1409 794 
L 1409 0 
L 750 0 
L 750 794 
z
M 750 3309 
L 1409 3309 
L 1409 2516 
L 750 2516 
L 750 3309 
z
" transform="scale(0.015625)"/>
       <path id="DejaVuSans-63" d="M 3122 3366 
L 3122 2828 
Q 2878 2963 2633 3030 
Q 2388 3097 2138 3097 
Q 1578 3097 1268 2742 
Q 959 2388 959 1747 
Q 959 1106 1268 751 
Q 1578 397 2138 397 
Q 2388 397 2633 464 
Q 2878 531 3122 666 
L 3122 134 
Q 2881 22 2623 -34 
Q 2366 -91 2075 -91 
Q 1284 -91 818 406 
Q 353 903 353 1747 
Q 353 2603 823 3093 
Q 1294 3584 2113 3584 
Q 2378 3584 2631 3529 
Q 2884 3475 3122 3366 
z
" transform="scale(0.015625)"/>
       <path id="DejaVuSans-6e" d="M 3513 2113 
L 3513 0 
L 2938 0 
L 2938 2094 
Q 2938 2591 2744 2837 
Q 2550 3084 2163 3084 
Q 1697 3084 1428 2787 
Q 1159 2491 1159 1978 
L 1159 0 
L 581 0 
L 581 3500 
L 1159 3500 
L 1159 2956 
Q 1366 3272 1645 3428 
Q 1925 3584 2291 3584 
Q 2894 3584 3203 3211 
Q 3513 2838 3513 2113 
z
" transform="scale(0.015625)"/>
      </defs>
      <use xlink:href="#DejaVuSans-70"/>
      <use xlink:href="#DejaVuSans-75" transform="translate(63.476562 0)"/>
      <use xlink:href="#DejaVuSans-6c" transform="translate(126.855469 0)"/>
      <use xlink:href="#DejaVuSans-73" transform="translate(154.638672 0)"/>
      <use xlink:href="#DejaVuSans-65" transform="translate(206.738281 0)"/>
      <use xlink:href="#DejaVuSans-3a" transform="translate(268.261719 0)"/>
      <use xlink:href="#DejaVuSans-30" transform="translate(301.953125 0)"/>
      <use xlink:href="#DejaVuSans-20" transform="translate(365.576172 0)"/>
      <use xlink:href="#DejaVuSans-5b" transform="translate(397.363281 0)"/>
      <use xlink:href="#DejaVuSans-63" transform="translate(436.376953 0)"/>
      <use xlink:href="#DejaVuSans-6f" transform="translate(491.357422 0)"/>
      <use xlink:href="#DejaVuSans-75" transform="translate(552.539062 0)"/>
      <use xlink:href="#DejaVuSans-6e" transform="translate(615.917969 0)"/>
      <use xlink:href="#DejaVuSans-74" transform="translate(679.296875 0)"/>
      <use xlink:href="#DejaVuSans-73" transform="translate(718.505859 0)"/>
      <use xlink:href="#DejaVuSans-5d" transform="translate(770.605469 0)"/>
     </g>
    </g>
   </g>
   <g id="line2d_12">
    <path d="M 68.546307 177.599153 
L 69.560852 177.599153 
L 69.560852 124.752551 
L 70.575398 124.752551 
L 70.575398 95.215393 
L 71.589943 95.215393 
L 71.589943 84.717246 
L 72.604489 84.717246 
L 72.604489 84.005508 
L 73.619034 84.005508 
L 73.619034 89.699417 
L 74.63358 89.699417 
L 74.63358 80.802683 
L 75.648125 80.802683 
L 75.648125 64.788561 
L 76.66267 64.788561 
L 76.66267 63.543019 
L 77.677216 63.543019 
L 77.677216 62.119541 
L 78.691761 62.119541 
L 78.691761 48.41857 
L 79.706307 48.41857 
L 79.706307 46.105419 
L 80.720852 46.105419 
L 80.720852 41.301183 
L 81.735398 41.301183 
L 81.735398 43.792268 
L 82.749943 43.792268 
L 82.749943 27.422277 
L 83.764489 27.422277 
L 83.764489 17.28 
L 84.779034 17.28 
L 84.779034 24.219453 
L 85.79358 24.219453 
L 85.79358 23.685649 
L 86.808125 23.685649 
L 86.808125 25.109126 
L 87.82267 25.109126 
L 87.82267 30.447167 
L 88.837216 30.447167 
L 88.837216 27.600212 
L 89.851761 27.600212 
L 89.851761 31.870644 
L 90.866307 31.870644 
L 90.866307 31.514775 
L 91.880852 31.514775 
L 91.880852 37.920424 
L 92.895398 37.920424 
L 92.895398 34.36173 
L 93.909943 34.36173 
L 93.909943 42.012921 
L 94.924489 42.012921 
L 94.924489 48.240635 
L 95.939034 48.240635 
L 95.939034 51.799329 
L 96.95358 51.799329 
L 96.95358 62.83128 
L 97.968125 62.83128 
L 97.968125 83.115834 
L 98.98267 83.115834 
L 98.98267 86.140724 
L 99.997216 86.140724 
L 99.997216 93.96985 
L 101.011761 93.96985 
L 101.011761 114.432339 
L 102.026307 114.432339 
L 102.026307 115.677882 
L 103.040852 115.677882 
L 103.040852 124.930485 
L 104.055398 124.930485 
L 104.055398 136.140371 
L 105.069943 136.140371 
L 105.069943 142.19015 
L 106.084489 142.19015 
L 106.084489 154.467643 
L 107.099034 154.467643 
L 107.099034 170.837635 
L 108.11358 170.837635 
L 108.11358 176.531545 
L 109.128125 176.531545 
L 109.128125 189.164907 
L 110.14267 189.164907 
L 110.14267 195.036752 
L 111.157216 195.036752 
L 111.157216 202.865878 
L 112.171761 202.865878 
L 112.171761 212.652286 
L 113.186307 212.652286 
L 113.186307 217.634457 
L 114.200852 217.634457 
L 114.200852 218.88 
L 127.389943 218.88 
L 127.389943 199.840989 
L 128.404489 199.840989 
L 128.404489 155.535252 
L 129.419034 155.535252 
L 129.419034 109.094298 
L 130.43358 109.094298 
L 130.43358 85.784854 
L 131.448125 85.784854 
L 131.448125 90.411156 
L 132.46267 90.411156 
L 132.46267 89.343548 
L 133.477216 89.343548 
L 133.477216 84.361377 
L 134.491761 84.361377 
L 134.491761 98.062348 
L 135.506307 98.062348 
L 135.506307 97.172674 
L 137.535398 97.172674 
L 137.535398 99.307891 
L 138.549943 99.307891 
L 138.549943 101.443107 
L 139.564489 101.443107 
L 139.564489 98.062348 
L 140.579034 98.062348 
L 140.579034 100.909303 
L 141.59358 100.909303 
L 141.59358 112.475057 
L 142.608125 112.475057 
L 142.608125 105.713539 
L 143.62267 105.713539 
L 143.62267 109.806037 
L 144.637216 109.806037 
L 144.637216 105.179735 
L 145.651761 105.179735 
L 145.651761 111.05158 
L 146.666307 111.05158 
L 146.666307 115.499947 
L 147.680852 115.499947 
L 147.680852 122.261465 
L 148.695398 122.261465 
L 148.695398 110.873645 
L 149.709943 110.873645 
L 149.709943 129.022983 
L 150.724489 129.022983 
L 150.724489 120.837988 
L 151.739034 120.837988 
L 151.739034 122.795269 
L 152.75358 122.795269 
L 152.75358 125.286355 
L 153.768125 125.286355 
L 153.768125 126.176028 
L 154.78267 126.176028 
L 154.78267 131.158199 
L 155.797216 131.158199 
L 155.797216 131.692004 
L 156.811761 131.692004 
L 156.811761 130.80233 
L 157.826307 130.80233 
L 157.826307 128.845049 
L 158.840852 128.845049 
L 158.840852 134.361024 
L 159.855398 134.361024 
L 159.855398 132.403742 
L 160.869943 132.403742 
L 160.869943 137.207979 
L 161.884489 137.207979 
L 161.884489 134.538959 
L 162.899034 134.538959 
L 162.899034 143.969497 
L 163.91358 143.969497 
L 163.91358 149.485472 
L 164.928125 149.485472 
L 164.928125 154.289709 
L 165.94267 154.289709 
L 165.94267 155.535252 
L 166.957216 155.535252 
L 166.957216 159.27188 
L 167.971761 159.27188 
L 167.971761 167.278941 
L 168.986307 167.278941 
L 168.986307 175.641871 
L 170.000852 175.641871 
L 170.000852 177.777087 
L 171.015398 177.777087 
L 171.015398 190.588385 
L 172.029943 190.588385 
L 172.029943 198.77338 
L 173.044489 198.77338 
L 173.044489 199.12925 
L 174.059034 199.12925 
L 174.059034 204.82316 
L 175.07358 204.82316 
L 175.07358 209.449462 
L 176.088125 209.449462 
L 176.088125 211.940547 
L 177.10267 211.940547 
L 177.10267 216.566849 
L 178.117216 216.566849 
L 178.117216 218.88 
L 183.189943 218.88 
L 183.189943 212.830221 
L 184.204489 212.830221 
L 184.204489 196.10436 
L 185.219034 196.10436 
L 185.219034 175.641871 
L 186.23358 175.641871 
L 186.23358 163.364378 
L 187.248125 163.364378 
L 187.248125 155.179382 
L 188.26267 155.179382 
L 188.26267 147.350256 
L 189.277216 147.350256 
L 189.277216 156.958729 
L 190.291761 156.958729 
L 190.291761 155.535252 
L 191.306307 155.535252 
L 191.306307 147.88406 
L 192.320852 147.88406 
L 192.320852 162.29677 
L 193.335398 162.29677 
L 193.335398 155.179382 
L 194.349943 155.179382 
L 194.349943 162.474704 
L 195.364489 162.474704 
L 195.364489 154.289709 
L 196.379034 154.289709 
L 196.379034 161.762966 
L 197.39358 161.762966 
L 197.39358 157.670468 
L 198.408125 157.670468 
L 198.408125 159.805684 
L 199.42267 159.805684 
L 199.42267 161.407096 
L 200.437216 161.407096 
L 200.437216 159.805684 
L 201.451761 159.805684 
L 201.451761 161.762966 
L 202.466307 161.762966 
L 202.466307 162.29677 
L 203.480852 162.29677 
L 203.480852 160.873292 
L 204.495398 160.873292 
L 204.495398 167.63481 
L 205.509943 167.63481 
L 205.509943 175.108067 
L 206.524489 175.108067 
L 206.524489 170.303831 
L 207.539034 170.303831 
L 207.539034 174.930132 
L 208.55358 174.930132 
L 208.55358 175.286002 
L 209.568125 175.286002 
L 209.568125 177.599153 
L 210.58267 177.599153 
L 210.58267 180.801977 
L 211.597216 180.801977 
L 211.597216 181.69165 
L 212.611761 181.69165 
L 212.611761 185.250344 
L 213.626307 185.250344 
L 213.626307 187.029691 
L 214.640852 187.029691 
L 214.640852 189.164907 
L 215.655398 189.164907 
L 215.655398 190.76632 
L 216.669943 190.76632 
L 216.669943 192.545666 
L 217.684489 192.545666 
L 217.684489 195.036752 
L 218.699034 195.036752 
L 218.699034 193.791209 
L 219.71358 193.791209 
L 219.71358 198.77338 
L 221.74267 198.77338 
L 221.74267 201.264466 
L 222.757216 201.264466 
L 222.757216 204.82316 
L 223.771761 204.82316 
L 223.771761 206.602507 
L 224.786307 206.602507 
L 224.786307 211.228808 
L 225.800852 211.228808 
L 225.800852 213.364025 
L 226.815398 213.364025 
L 226.815398 214.965437 
L 227.829943 214.965437 
L 227.829943 218.524131 
L 228.844489 218.524131 
L 228.844489 218.88 
L 232.90267 218.88 
L 232.90267 217.278588 
L 233.917216 217.278588 
L 233.917216 213.18609 
L 234.931761 213.18609 
L 234.931761 202.865878 
L 235.946307 202.865878 
L 235.946307 195.926425 
L 236.960852 195.926425 
L 236.960852 185.784148 
L 237.975398 185.784148 
L 237.975398 190.41045 
L 238.989943 190.41045 
L 238.989943 189.342842 
L 240.004489 189.342842 
L 240.004489 187.74143 
L 241.019034 187.74143 
L 241.019034 190.41045 
L 243.048125 190.41045 
L 243.048125 197.705772 
L 244.06267 197.705772 
L 244.06267 194.858817 
L 245.077216 194.858817 
L 245.077216 191.300124 
L 246.091761 191.300124 
L 246.091761 195.748491 
L 247.106307 195.748491 
L 247.106307 200.374793 
L 248.120852 200.374793 
L 248.120852 195.748491 
L 249.135398 195.748491 
L 249.135398 201.442401 
L 250.149943 201.442401 
L 250.149943 198.77338 
L 251.164489 198.77338 
L 251.164489 200.374793 
L 252.179034 200.374793 
L 252.179034 201.976205 
L 253.19358 201.976205 
L 253.19358 204.645225 
L 254.208125 204.645225 
L 254.208125 200.908597 
L 255.22267 200.908597 
L 255.22267 206.068703 
L 256.237216 206.068703 
L 256.237216 207.314245 
L 257.251761 207.314245 
L 257.251761 207.848049 
L 259.280852 207.848049 
L 259.280852 208.025984 
L 260.295398 208.025984 
L 260.295398 209.271527 
L 261.309943 209.271527 
L 261.309943 208.737723 
L 262.324489 208.737723 
L 262.324489 210.872939 
L 263.339034 210.872939 
L 263.339034 212.474351 
L 264.35358 212.474351 
L 264.35358 211.940547 
L 265.368125 211.940547 
L 265.368125 213.364025 
L 266.38267 213.364025 
L 266.38267 213.541959 
L 267.397216 213.541959 
L 267.397216 213.897829 
L 268.411761 213.897829 
L 268.411761 214.965437 
L 269.426307 214.965437 
L 269.426307 215.85511 
L 270.440852 215.85511 
L 270.440852 215.499241 
L 271.455398 215.499241 
L 271.455398 217.278588 
L 272.469943 217.278588 
L 272.469943 218.168261 
L 274.499034 218.168261 
L 274.499034 218.702065 
L 275.51358 218.702065 
L 275.51358 218.88 
L 281.600852 218.88 
L 281.600852 217.634457 
L 282.615398 217.634457 
L 282.615398 213.719894 
L 283.629943 213.719894 
L 283.629943 211.228808 
L 284.644489 211.228808 
L 284.644489 206.424572 
L 285.659034 206.424572 
L 285.659034 203.933486 
L 286.67358 203.933486 
L 286.67358 204.645225 
L 287.688125 204.645225 
L 287.688125 205.534898 
L 288.70267 205.534898 
L 288.70267 205.712833 
L 289.717216 205.712833 
L 289.717216 208.203919 
L 290.731761 208.203919 
L 290.731761 206.958376 
L 291.746307 206.958376 
L 291.746307 208.915658 
L 292.760852 208.915658 
L 292.760852 208.381853 
L 293.775398 208.381853 
L 293.775398 207.670115 
L 294.789943 207.670115 
L 294.789943 209.983266 
L 295.804489 209.983266 
L 295.804489 209.805331 
L 296.819034 209.805331 
L 296.819034 210.695004 
L 297.83358 210.695004 
L 297.83358 209.983266 
L 298.848125 209.983266 
L 298.848125 212.830221 
L 300.877216 212.830221 
L 300.877216 211.406743 
L 301.891761 211.406743 
L 301.891761 214.075763 
L 302.906307 214.075763 
L 302.906307 213.541959 
L 303.920852 213.541959 
L 303.920852 214.965437 
L 304.935398 214.965437 
L 304.935398 215.499241 
L 305.949943 215.499241 
L 305.949943 214.431633 
L 306.964489 214.431633 
L 306.964489 215.499241 
L 307.979034 215.499241 
L 307.979034 216.21098 
L 308.99358 216.21098 
L 308.99358 214.965437 
L 310.008125 214.965437 
L 310.008125 215.677176 
L 311.02267 215.677176 
L 311.02267 217.812392 
L 312.037216 217.812392 
L 312.037216 217.278588 
L 314.066307 217.278588 
L 314.066307 217.456523 
L 315.080852 217.456523 
L 315.080852 218.168261 
L 316.095398 218.168261 
L 316.095398 217.990327 
L 317.109943 217.990327 
L 317.109943 218.168261 
L 318.124489 218.168261 
L 318.124489 218.524131 
L 320.15358 218.524131 
L 320.15358 218.88 
L 329.284489 218.88 
L 329.284489 218.702065 
L 330.299034 218.702065 
L 330.299034 217.990327 
L 331.31358 217.990327 
L 331.31358 215.85511 
L 332.328125 215.85511 
L 332.328125 213.364025 
L 333.34267 213.364025 
L 333.34267 211.406743 
L 334.357216 211.406743 
L 334.357216 206.068703 
L 335.371761 206.068703 
L 335.371761 202.332074 
L 337.400852 202.332074 
L 337.400852 204.111421 
L 338.415398 204.111421 
L 338.415398 204.289356 
L 339.429943 204.289356 
L 339.429943 203.221748 
L 341.459034 203.221748 
L 341.459034 202.332074 
L 342.47358 202.332074 
L 342.47358 205.890768 
L 343.488125 205.890768 
L 343.488125 202.332074 
L 344.50267 202.332074 
L 344.50267 202.510009 
L 345.517216 202.510009 
L 345.517216 206.424572 
L 346.531761 206.424572 
L 346.531761 206.068703 
L 348.560852 206.068703 
L 348.560852 207.49218 
L 349.575398 207.49218 
L 349.575398 207.670115 
L 350.589943 207.670115 
L 350.589943 207.848049 
L 351.604489 207.848049 
L 351.604489 205.712833 
L 352.619034 205.712833 
L 352.619034 207.670115 
L 353.63358 207.670115 
L 353.63358 208.915658 
L 354.648125 208.915658 
L 354.648125 209.627396 
L 355.66267 209.627396 
L 355.66267 206.780441 
L 356.677216 206.780441 
L 356.677216 210.872939 
L 357.691761 210.872939 
L 357.691761 209.983266 
L 358.706307 209.983266 
L 358.706307 211.584678 
L 359.720852 211.584678 
L 359.720852 211.228808 
L 360.735398 211.228808 
L 360.735398 210.695004 
L 361.749943 210.695004 
L 361.749943 212.296417 
L 362.764489 212.296417 
L 362.764489 212.830221 
L 363.779034 212.830221 
L 363.779034 210.51707 
L 364.79358 210.51707 
L 364.79358 212.652286 
L 365.808125 212.652286 
L 365.808125 213.719894 
L 366.82267 213.719894 
L 366.82267 213.364025 
L 367.837216 213.364025 
L 367.837216 213.008155 
L 368.851761 213.008155 
L 368.851761 214.787502 
L 369.866307 214.787502 
L 369.866307 217.634457 
L 370.880852 217.634457 
L 370.880852 215.499241 
L 371.895398 215.499241 
L 371.895398 217.278588 
L 372.909943 217.278588 
L 372.909943 217.278588 
" clip-path="url(#p80ae3880c7)" style="fill: none; stroke: #1f77b4; stroke-width: 1.5; stroke-linecap: square"/>
   </g>
   <g id="patch_3">
    <path d="M 53.328125 228.96 
L 53.328125 7.2 
" style="fill: none; stroke: #000000; stroke-width: 0.8; stroke-linejoin: miter; stroke-linecap: square"/>
   </g>
   <g id="patch_4">
    <path d="M 388.128125 228.96 
L 388.128125 7.2 
" style="fill: none; stroke: #000000; stroke-width: 0.8; stroke-linejoin: miter; stroke-linecap: square"/>
   </g>
   <g id="patch_5">
    <path d="M 53.328125 228.96 
L 388.128125 228.96 
" style="fill: none; stroke: #000000; stroke-width: 0.8; stroke-linejoin: miter; stroke-linecap: square"/>
   </g>
   <g id="patch_6">
    <path d="M 53.328125 7.2 
L 388.128125 7.2 
" style="fill: none; stroke: #000000; stroke-width: 0.8; stroke-linejoin: miter; stroke-linecap: square"/>
   </g>
  </g>
 </g>
 <defs>
  <clipPath id="p80ae3880c7">
   <rect x="53.328125" y="7.2" width="334.8" height="221.76"/>
  </clipPath>
 </defs>
</svg>
