<?xml version="1.0" encoding="utf-8" standalone="no"?>
<!DOCTYPE svg PUBLIC "-//W3C//DTD SVG 1.1//EN"
  "http://www.w3.org/Graphics/SVG/1.1/DTD/svg11.dtd">
<svg xmlns:xlink="http://www.w3.org/1999/xlink" width="872.39952pt" height="296.394283pt" viewBox="0 0 872.39952 296.394283" xmlns="http://www.w3.org/2000/svg" version="1.1">
 <metadata>
  <rdf:RDF xmlns:dc="http://purl.org/dc/elements/1.1/" xmlns:cc="http://creativecommons.org/ns#" xmlns:rdf="http://www.w3.org/1999/02/22-rdf-syntax-ns#">
   <cc:Work>
    <dc:type rdf:resource="http://purl.org/dc/dcmitype/StillImage"/>
    <dc:date>2026-06-24T08:33:59.019073</dc:date>
    <dc:format>image/svg+xml</dc:format>
    <dc:creator>
     <cc:Agent>
      <dc:title>Matplotlib v3.10.9, https://matplotlib.org/</dc:title>
     </cc:Agent>
    </dc:creator>
   </cc:Work>
  </rdf:RDF>
 </metadata>
 <defs>
  <style type="text/css">*{stroke-linejoin: round; stroke-linecap: butt}</style>
 </defs>
 <g id="figure_1">
  <g id="patch_1">
   <path d="M 0 296.394283 
L 872.39952 296.394283 
L 872.39952 0 
L 0 0 
z
" style="fill: #ffffff"/>
  </g>
  <g id="axes_1">
   <g id="patch_2">
    <path d="M 53.328125 257.153658 
L 411.41851 257.153658 
L 411.41851 7.552432 
L 53.328125 7.552432 
z
" style="fill: #ffffff"/>
   </g>
   <g id="matplotlib.axis_1">
    <g id="xtick_1">
     <g id="line2d_1">
      <defs>
       <path id="mbe27898bb6" d="M 0 0 
L 0 3.5 
" style="stroke: #000000; stroke-width: 0.8"/>
      </defs>
      <g>
       <use xlink:href="#mbe27898bb6" x="69.603053" y="257.153658" style="stroke: #000000; stroke-width: 0.8"/>
      </g>
     </g>
     <g id="text_1">
      <!-- 0 -->
      <g transform="translate(66.421803 271.752096) scale(0.1 -0.1)">
       <defs>
        <path id="DejaVuSans-30" d="M 2034 4250 
Q 1547 4250 1301 3770 
Q 1056 3291 1056 2328 
Q 1056 1369 1301 889 
Q 1547 409 2034 409 
Q 2525 409 2770 889 
Q 3016 1369 3016 2328 
Q 3016 3291 2770 3770 
Q 2525 4250 2034 4250 
z
M 2034 4750 
Q 2819 4750 3233 4129 
Q 3647 3509 3647 2328 
Q 3647 1150 3233 529 
Q 2819 -91 2034 -91 
Q 1250 -91 836 529 
Q 422 1150 422 2328 
Q 422 3509 836 4129 
Q 1250 4750 2034 4750 
z
" transform="scale(0.015625)"/>
       </defs>
       <use xlink:href="#DejaVuSans-30"/>
      </g>
     </g>
    </g>
    <g id="xtick_2">
     <g id="line2d_2">
      <g>
       <use xlink:href="#mbe27898bb6" x="123.966726" y="257.153658" style="stroke: #000000; stroke-width: 0.8"/>
      </g>
     </g>
     <g id="text_2">
      <!-- 1000 -->
      <g transform="translate(111.241726 271.752096) scale(0.1 -0.1)">
       <defs>
        <path id="DejaVuSans-31" d="M 794 531 
L 1825 531 
L 1825 4091 
L 703 3866 
L 703 4441 
L 1819 4666 
L 2450 4666 
L 2450 531 
L 3481 531 
L 3481 0 
L 794 0 
L 794 531 
z
" transform="scale(0.015625)"/>
       </defs>
       <use xlink:href="#DejaVuSans-31"/>
       <use xlink:href="#DejaVuSans-30" transform="translate(63.623047 0)"/>
       <use xlink:href="#DejaVuSans-30" transform="translate(127.246094 0)"/>
       <use xlink:href="#DejaVuSans-30" transform="translate(190.869141 0)"/>
      </g>
     </g>
    </g>
    <g id="xtick_3">
     <g id="line2d_3">
      <g>
       <use xlink:href="#mbe27898bb6" x="178.330398" y="257.153658" style="stroke: #000000; stroke-width: 0.8"/>
      </g>
     </g>
     <g id="text_3">
      <!-- 2000 -->
      <g transform="translate(165.605398 271.752096) scale(0.1 -0.1)">
       <defs>
        <path id="DejaVuSans-32" d="M 1228 531 
L 3431 531 
L 3431 0 
L 469 0 
L 469 531 
Q 828 903 1448 1529 
Q 2069 2156 2228 2338 
Q 2531 2678 2651 2914 
Q 2772 3150 2772 3378 
Q 2772 3750 2511 3984 
Q 2250 4219 1831 4219 
Q 1534 4219 1204 4116 
Q 875 4013 500 3803 
L 500 4441 
Q 881 4594 1212 4672 
Q 1544 4750 1819 4750 
Q 2544 4750 2975 4387 
Q 3406 4025 3406 3419 
Q 3406 3131 3298 2873 
Q 3191 2616 2906 2266 
Q 2828 2175 2409 1742 
Q 1991 1309 1228 531 
z
" transform="scale(0.015625)"/>
       </defs>
       <use xlink:href="#DejaVuSans-32"/>
       <use xlink:href="#DejaVuSans-30" transform="translate(63.623047 0)"/>
       <use xlink:href="#DejaVuSans-30" transform="translate(127.246094 0)"/>
       <use xlink:href="#DejaVuSans-30" transform="translate(190.869141 0)"/>
      </g>
     </g>
    </g>
    <g id="xtick_4">
     <g id="line2d_4">
      <g>
       <use xlink:href="#mbe27898bb6" x="232.69407" y="257.153658" style="stroke: #000000; stroke-width: 0.8"/>
      </g>
     </g>
     <g id="text_4">
      <!-- 3000 -->
      <g transform="translate(219.96907 271.752096) scale(0.1 -0.1)">
       <defs>
        <path id="DejaVuSans-33" d="M 2597 2516 
Q 3050 2419 3304 2112 
Q 3559 1806 3559 1356 
Q 3559 666 3084 287 
Q 2609 -91 1734 -91 
Q 1441 -91 1130 -33 
Q 819 25 488 141 
L 488 750 
Q 750 597 1062 519 
Q 1375 441 1716 441 
Q 2309 441 2620 675 
Q 2931 909 2931 1356 
Q 2931 1769 2642 2001 
Q 2353 2234 1838 2234 
L 1294 2234 
L 1294 2753 
L 1863 2753 
Q 2328 2753 2575 2939 
Q 2822 3125 2822 3475 
Q 2822 3834 2567 4026 
Q 2313 4219 1838 4219 
Q 1578 4219 1281 4162 
Q 984 4106 628 3988 
L 628 4550 
Q 988 4650 1302 4700 
Q 1616 4750 1894 4750 
Q 2613 4750 3031 4423 
Q 3450 4097 3450 3541 
Q 3450 3153 3228 2886 
Q 3006 2619 2597 2516 
z
" transform="scale(0.015625)"/>
       </defs>
       <use xlink:href="#DejaVuSans-33"/>
       <use xlink:href="#DejaVuSans-30" transform="translate(63.623047 0)"/>
       <use xlink:href="#DejaVuSans-30" transform="translate(127.246094 0)"/>
       <use xlink:href="#DejaVuSans-30" transform="translate(190.869141 0)"/>
      </g>
     </g>
    </g>
    <g id="xtick_5">
     <g id="line2d_5">
      <g>
       <use xlink:href="#mbe27898bb6" x="287.057742" y="257.153658" style="stroke: #000000; stroke-width: 0.8"/>
      </g>
     </g>
     <g id="text_5">
      <!-- 4000 -->
      <g transform="translate(274.332742 271.752096) scale(0.1 -0.1)">
       <defs>
        <path id="DejaVuSans-34" d="M 2419 4116 
L 825 1625 
L 2419 1625 
L 2419 4116 
z
M 2253 4666 
L 3047 4666 
L 3047 1625 
L 3713 1625 
L 3713 1100 
L 3047 1100 
L 3047 0 
L 2419 0 
L 2419 1100 
L 313 1100 
L 313 1709 
L 2253 4666 
z
" transform="scale(0.015625)"/>
       </defs>
       <use xlink:href="#DejaVuSans-34"/>
       <use xlink:href="#DejaVuSans-30" transform="translate(63.623047 0)"/>
       <use xlink:href="#DejaVuSans-30" transform="translate(127.246094 0)"/>
       <use xlink:href="#DejaVuSans-30" transform="translate(190.869141 0)"/>
      </g>
     </g>
    </g>
    <g id="xtick_6">
     <g id="line2d_6">
      <g>
       <use xlink:href="#mbe27898bb6" x="341.421415" y="257.153658" style="stroke: #000000; stroke-width: 0.8"/>
      </g>
     </g>
     <g id="text_6">
      <!-- 5000 -->
      <g transform="translate(328.696415 271.752096) scale(0.1 -0.1)">
       <defs>
        <path id="DejaVuSans-35" d="M 691 4666 
L 3169 4666 
L 3169 4134 
L 1269 4134 
L 1269 2991 
Q 1406 3038 1543 3061 
Q 1681 3084 1819 3084 
Q 2600 3084 3056 2656 
Q 3513 2228 3513 1497 
Q 3513 744 3044 326 
Q 2575 -91 1722 -91 
Q 1428 -91 1123 -41 
Q 819 9 494 109 
L 494 744 
Q 775 591 1075 516 
Q 1375 441 1709 441 
Q 2250 441 2565 725 
Q 2881 1009 2881 1497 
Q 2881 1984 2565 2268 
Q 2250 2553 1709 2553 
Q 1456 2553 1204 2497 
Q 953 2441 691 2322 
L 691 4666 
z
" transform="scale(0.015625)"/>
       </defs>
       <use xlink:href="#DejaVuSans-35"/>
       <use xlink:href="#DejaVuSans-30" transform="translate(63.623047 0)"/>
       <use xlink:href="#DejaVuSans-30" transform="translate(127.246094 0)"/>
       <use xlink:href="#DejaVuSans-30" transform="translate(190.869141 0)"/>
      </g>
     </g>
    </g>
    <g id="xtick_7">
     <g id="line2d_7">
      <g>
       <use xlink:href="#mbe27898bb6" x="395.785087" y="257.153658" style="stroke: #000000; stroke-width: 0.8"/>
      </g>
     </g>
     <g id="text_7">
      <!-- 6000 -->
      <g transform="translate(383.060087 271.752096) scale(0.1 -0.1)">
       <defs>
        <path id="DejaVuSans-36" d="M 2113 2584 
Q 1688 2584 1439 2293 
Q 1191 2003 1191 1497 
Q 1191 994 1439 701 
Q 1688 409 2113 409 
Q 2538 409 2786 701 
Q 3034 994 3034 1497 
Q 3034 2003 2786 2293 
Q 2538 2584 2113 2584 
z
M 3366 4563 
L 3366 3988 
Q 3128 4100 2886 4159 
Q 2644 4219 2406 4219 
Q 1781 4219 1451 3797 
Q 1122 3375 1075 2522 
Q 1259 2794 1537 2939 
Q 1816 3084 2150 3084 
Q 2853 3084 3261 2657 
Q 3669 2231 3669 1497 
Q 3669 778 3244 343 
Q 2819 -91 2113 -91 
Q 1303 -91 875 529 
Q 447 1150 447 2328 
Q 447 3434 972 4092 
Q 1497 4750 2381 4750 
Q 2619 4750 2861 4703 
Q 3103 4656 3366 4563 
z
" transform="scale(0.015625)"/>
       </defs>
       <use xlink:href="#DejaVuSans-36"/>
       <use xlink:href="#DejaVuSans-30" transform="translate(63.623047 0)"/>
       <use xlink:href="#DejaVuSans-30" transform="translate(127.246094 0)"/>
       <use xlink:href="#DejaVuSans-30" transform="translate(190.869141 0)"/>
      </g>
     </g>
    </g>
    <g id="text_8">
     <!-- birth_time [µs] -->
     <g transform="translate(195.553005 285.430221) scale(0.1 -0.1)">
      <defs>
       <path id="DejaVuSans-62" d="M 3116 1747 
Q 3116 2381 2855 2742 
Q 2594 3103 2138 3103 
Q 1681 3103 1420 2742 
Q 1159 2381 1159 1747 
Q 1159 1113 1420 752 
Q 1681 391 2138 391 
Q 2594 391 2855 752 
Q 3116 1113 3116 1747 
z
M 1159 2969 
Q 1341 3281 1617 3432 
Q 1894 3584 2278 3584 
Q 2916 3584 3314 3078 
Q 3713 2572 3713 1747 
Q 3713 922 3314 415 
Q 2916 -91 2278 -91 
Q 1894 -91 1617 61 
Q 1341 213 1159 525 
L 1159 0 
L 581 0 
L 581 4863 
L 1159 4863 
L 1159 2969 
z
" transform="scale(0.015625)"/>
       <path id="DejaVuSans-69" d="M 603 3500 
L 1178 3500 
L 1178 0 
L 603 0 
L 603 3500 
z
M 603 4863 
L 1178 4863 
L 1178 4134 
L 603 4134 
L 603 4863 
z
" transform="scale(0.015625)"/>
       <path id="DejaVuSans-72" d="M 2631 2963 
Q 2534 3019 2420 3045 
Q 2306 3072 2169 3072 
Q 1681 3072 1420 2755 
Q 1159 2438 1159 1844 
L 1159 0 
L 581 0 
L 581 3500 
L 1159 3500 
L 1159 2956 
Q 1341 3275 1631 3429 
Q 1922 3584 2338 3584 
Q 2397 3584 2469 3576 
Q 2541 3569 2628 3553 
L 2631 2963 
z
" transform="scale(0.015625)"/>
       <path id="DejaVuSans-74" d="M 1172 4494 
L 1172 3500 
L 2356 3500 
L 2356 3053 
L 1172 3053 
L 1172 1153 
Q 1172 725 1289 603 
Q 1406 481 1766 481 
L 2356 481 
L 2356 0 
L 1766 0 
Q 1100 0 847 248 
Q 594 497 594 1153 
L 594 3053 
L 172 3053 
L 172 3500 
L 594 3500 
L 594 4494 
L 1172 4494 
z
" transform="scale(0.015625)"/>
       <path id="DejaVuSans-68" d="M 3513 2113 
L 3513 0 
L 2938 0 
L 2938 2094 
Q 2938 2591 2744 2837 
Q 2550 3084 2163 3084 
Q 1697 3084 1428 2787 
Q 1159 2491 1159 1978 
L 1159 0 
L 581 0 
L 581 4863 
L 1159 4863 
L 1159 2956 
Q 1366 3272 1645 3428 
Q 1925 3584 2291 3584 
Q 2894 3584 3203 3211 
Q 3513 2838 3513 2113 
z
" transform="scale(0.015625)"/>
       <path id="DejaVuSans-5f" d="M 3263 -1063 
L 3263 -1509 
L -63 -1509 
L -63 -1063 
L 3263 -1063 
z
" transform="scale(0.015625)"/>
       <path id="DejaVuSans-6d" d="M 3328 2828 
Q 3544 3216 3844 3400 
Q 4144 3584 4550 3584 
Q 5097 3584 5394 3201 
Q 5691 2819 5691 2113 
L 5691 0 
L 5113 0 
L 5113 2094 
Q 5113 2597 4934 2840 
Q 4756 3084 4391 3084 
Q 3944 3084 3684 2787 
Q 3425 2491 3425 1978 
L 3425 0 
L 2847 0 
L 2847 2094 
Q 2847 2600 2669 2842 
Q 2491 3084 2119 3084 
Q 1678 3084 1418 2786 
Q 1159 2488 1159 1978 
L 1159 0 
L 581 0 
L 581 3500 
L 1159 3500 
L 1159 2956 
Q 1356 3278 1631 3431 
Q 1906 3584 2284 3584 
Q 2666 3584 2933 3390 
Q 3200 3197 3328 2828 
z
" transform="scale(0.015625)"/>
       <path id="DejaVuSans-65" d="M 3597 1894 
L 3597 1613 
L 953 1613 
Q 991 1019 1311 708 
Q 1631 397 2203 397 
Q 2534 397 2845 478 
Q 3156 559 3463 722 
L 3463 178 
Q 3153 47 2828 -22 
Q 2503 -91 2169 -91 
Q 1331 -91 842 396 
Q 353 884 353 1716 
Q 353 2575 817 3079 
Q 1281 3584 2069 3584 
Q 2775 3584 3186 3129 
Q 3597 2675 3597 1894 
z
M 3022 2063 
Q 3016 2534 2758 2815 
Q 2500 3097 2075 3097 
Q 1594 3097 1305 2825 
Q 1016 2553 972 2059 
L 3022 2063 
z
" transform="scale(0.015625)"/>
       <path id="DejaVuSans-20" transform="scale(0.015625)"/>
       <path id="DejaVuSans-5b" d="M 550 4863 
L 1875 4863 
L 1875 4416 
L 1125 4416 
L 1125 -397 
L 1875 -397 
L 1875 -844 
L 550 -844 
L 550 4863 
z
" transform="scale(0.015625)"/>
       <path id="DejaVuSans-b5" d="M 544 -1331 
L 544 3500 
L 1119 3500 
L 1119 1325 
Q 1119 872 1334 640 
Q 1550 409 1972 409 
Q 2434 409 2667 671 
Q 2900 934 2900 1459 
L 2900 3500 
L 3475 3500 
L 3475 806 
Q 3475 619 3529 530 
Q 3584 441 3700 441 
Q 3728 441 3778 458 
Q 3828 475 3916 513 
L 3916 50 
Q 3788 -22 3673 -56 
Q 3559 -91 3450 -91 
Q 3234 -91 3106 31 
Q 2978 153 2931 403 
Q 2775 156 2548 32 
Q 2322 -91 2016 -91 
Q 1697 -91 1473 31 
Q 1250 153 1119 397 
L 1119 -1331 
L 544 -1331 
z
" transform="scale(0.015625)"/>
       <path id="DejaVuSans-73" d="M 2834 3397 
L 2834 2853 
Q 2591 2978 2328 3040 
Q 2066 3103 1784 3103 
Q 1356 3103 1142 2972 
Q 928 2841 928 2578 
Q 928 2378 1081 2264 
Q 1234 2150 1697 2047 
L 1894 2003 
Q 2506 1872 2764 1633 
Q 3022 1394 3022 966 
Q 3022 478 2636 193 
Q 2250 -91 1575 -91 
Q 1294 -91 989 -36 
Q 684 19 347 128 
L 347 722 
Q 666 556 975 473 
Q 1284 391 1588 391 
Q 1994 391 2212 530 
Q 2431 669 2431 922 
Q 2431 1156 2273 1281 
Q 2116 1406 1581 1522 
L 1381 1569 
Q 847 1681 609 1914 
Q 372 2147 372 2553 
Q 372 3047 722 3315 
Q 1072 3584 1716 3584 
Q 2034 3584 2315 3537 
Q 2597 3491 2834 3397 
z
" transform="scale(0.015625)"/>
       <path id="DejaVuSans-5d" d="M 1947 4863 
L 1947 -844 
L 622 -844 
L 622 -397 
L 1369 -397 
L 1369 4416 
L 622 4416 
L 622 4863 
L 1947 4863 
z
" transform="scale(0.015625)"/>
      </defs>
      <use xlink:href="#DejaVuSans-62"/>
      <use xlink:href="#DejaVuSans-69" transform="translate(63.476562 0)"/>
      <use xlink:href="#DejaVuSans-72" transform="translate(91.259766 0)"/>
      <use xlink:href="#DejaVuSans-74" transform="translate(132.373047 0)"/>
      <use xlink:href="#DejaVuSans-68" transform="translate(171.582031 0)"/>
      <use xlink:href="#DejaVuSans-5f" transform="translate(234.960938 0)"/>
      <use xlink:href="#DejaVuSans-74" transform="translate(284.960938 0)"/>
      <use xlink:href="#DejaVuSans-69" transform="translate(324.169922 0)"/>
      <use xlink:href="#DejaVuSans-6d" transform="translate(351.953125 0)"/>
      <use xlink:href="#DejaVuSans-65" transform="translate(449.365234 0)"/>
      <use xlink:href="#DejaVuSans-20" transform="translate(510.888672 0)"/>
      <use xlink:href="#DejaVuSans-5b" transform="translate(542.675781 0)"/>
      <use xlink:href="#DejaVuSans-b5" transform="translate(581.689453 0)"/>
      <use xlink:href="#DejaVuSans-73" transform="translate(645.3125 0)"/>
      <use xlink:href="#DejaVuSans-5d" transform="translate(697.412109 0)"/>
     </g>
    </g>
   </g>
   <g id="matplotlib.axis_2">
    <g id="ytick_1">
     <g id="line2d_8">
      <defs>
       <path id="m2ad6df78de" d="M 0 0 
L -3.5 0 
" style="stroke: #000000; stroke-width: 0.8"/>
      </defs>
      <g>
       <use xlink:href="#m2ad6df78de" x="53.328125" y="245.808148" style="stroke: #000000; stroke-width: 0.8"/>
      </g>
     </g>
     <g id="text_9">
      <!-- 0 -->
      <g transform="translate(39.965625 249.607367) scale(0.1 -0.1)">
       <use xlink:href="#DejaVuSans-30"/>
      </g>
     </g>
    </g>
    <g id="ytick_2">
     <g id="line2d_9">
      <g>
       <use xlink:href="#m2ad6df78de" x="53.328125" y="214.453967" style="stroke: #000000; stroke-width: 0.8"/>
      </g>
     </g>
     <g id="text_10">
      <!-- 1000 -->
      <g transform="translate(20.878125 218.253186) scale(0.1 -0.1)">
       <use xlink:href="#DejaVuSans-31"/>
       <use xlink:href="#DejaVuSans-30" transform="translate(63.623047 0)"/>
       <use xlink:href="#DejaVuSans-30" transform="translate(127.246094 0)"/>
       <use xlink:href="#DejaVuSans-30" transform="translate(190.869141 0)"/>
      </g>
     </g>
    </g>
    <g id="ytick_3">
     <g id="line2d_10">
      <g>
       <use xlink:href="#m2ad6df78de" x="53.328125" y="183.099787" style="stroke: #000000; stroke-width: 0.8"/>
      </g>
     </g>
     <g id="text_11">
      <!-- 2000 -->
      <g transform="translate(20.878125 186.899005) scale(0.1 -0.1)">
       <use xlink:href="#DejaVuSans-32"/>
       <use xlink:href="#DejaVuSans-30" transform="translate(63.623047 0)"/>
       <use xlink:href="#DejaVuSans-30" transform="translate(127.246094 0)"/>
       <use xlink:href="#DejaVuSans-30" transform="translate(190.869141 0)"/>
      </g>
     </g>
    </g>
    <g id="ytick_4">
     <g id="line2d_11">
      <g>
       <use xlink:href="#m2ad6df78de" x="53.328125" y="151.745606" style="stroke: #000000; stroke-width: 0.8"/>
      </g>
     </g>
     <g id="text_12">
      <!-- 3000 -->
      <g transform="translate(20.878125 155.544825) scale(0.1 -0.1)">
       <use xlink:href="#DejaVuSans-33"/>
       <use xlink:href="#DejaVuSans-30" transform="translate(63.623047 0)"/>
       <use xlink:href="#DejaVuSans-30" transform="translate(127.246094 0)"/>
       <use xlink:href="#DejaVuSans-30" transform="translate(190.869141 0)"/>
      </g>
     </g>
    </g>
    <g id="ytick_5">
     <g id="line2d_12">
      <g>
       <use xlink:href="#m2ad6df78de" x="53.328125" y="120.391425" style="stroke: #000000; stroke-width: 0.8"/>
      </g>
     </g>
     <g id="text_13">
      <!-- 4000 -->
      <g transform="translate(20.878125 124.190644) scale(0.1 -0.1)">
       <use xlink:href="#DejaVuSans-34"/>
       <use xlink:href="#DejaVuSans-30" transform="translate(63.623047 0)"/>
       <use xlink:href="#DejaVuSans-30" transform="translate(127.246094 0)"/>
       <use xlink:href="#DejaVuSans-30" transform="translate(190.869141 0)"/>
      </g>
     </g>
    </g>
    <g id="ytick_6">
     <g id="line2d_13">
      <g>
       <use xlink:href="#m2ad6df78de" x="53.328125" y="89.037244" style="stroke: #000000; stroke-width: 0.8"/>
      </g>
     </g>
     <g id="text_14">
      <!-- 5000 -->
      <g transform="translate(20.878125 92.836463) scale(0.1 -0.1)">
       <use xlink:href="#DejaVuSans-35"/>
       <use xlink:href="#DejaVuSans-30" transform="translate(63.623047 0)"/>
       <use xlink:href="#DejaVuSans-30" transform="translate(127.246094 0)"/>
       <use xlink:href="#DejaVuSans-30" transform="translate(190.869141 0)"/>
      </g>
     </g>
    </g>
    <g id="ytick_7">
     <g id="line2d_14">
      <g>
       <use xlink:href="#m2ad6df78de" x="53.328125" y="57.683064" style="stroke: #000000; stroke-width: 0.8"/>
      </g>
     </g>
     <g id="text_15">
      <!-- 6000 -->
      <g transform="translate(20.878125 61.482282) scale(0.1 -0.1)">
       <use xlink:href="#DejaVuSans-36"/>
       <use xlink:href="#DejaVuSans-30" transform="translate(63.623047 0)"/>
       <use xlink:href="#DejaVuSans-30" transform="translate(127.246094 0)"/>
       <use xlink:href="#DejaVuSans-30" transform="translate(190.869141 0)"/>
      </g>
     </g>
    </g>
    <g id="ytick_8">
     <g id="line2d_15">
      <g>
       <use xlink:href="#m2ad6df78de" x="53.328125" y="26.328883" style="stroke: #000000; stroke-width: 0.8"/>
      </g>
     </g>
     <g id="text_16">
      <!-- 7000 -->
      <g transform="translate(20.878125 30.128102) scale(0.1 -0.1)">
       <defs>
        <path id="DejaVuSans-37" d="M 525 4666 
L 3525 4666 
L 3525 4397 
L 1831 0 
L 1172 0 
L 2766 4134 
L 525 4134 
L 525 4666 
z
" transform="scale(0.015625)"/>
       </defs>
       <use xlink:href="#DejaVuSans-37"/>
       <use xlink:href="#DejaVuSans-30" transform="translate(63.623047 0)"/>
       <use xlink:href="#DejaVuSans-30" transform="translate(127.246094 0)"/>
       <use xlink:href="#DejaVuSans-30" transform="translate(190.869141 0)"/>
      </g>
     </g>
    </g>
    <g id="text_17">
     <!-- pulse:0 [counts] -->
     <g transform="translate(14.798438 172.833514) rotate(-90) scale(0.1 -0.1)">
      <defs>
       <path id="DejaVuSans-70" d="M 1159 525 
L 1159 -1331 
L 581 -1331 
L 581 3500 
L 1159 3500 
L 1159 2969 
Q 1341 3281 1617 3432 
Q 1894 3584 2278 3584 
Q 2916 3584 3314 3078 
Q 3713 2572 3713 1747 
Q 3713 922 3314 415 
Q 2916 -91 2278 -91 
Q 1894 -91 1617 61 
Q 1341 213 1159 525 
z
M 3116 1747 
Q 3116 2381 2855 2742 
Q 2594 3103 2138 3103 
Q 1681 3103 1420 2742 
Q 1159 2381 1159 1747 
Q 1159 1113 1420 752 
Q 1681 391 2138 391 
Q 2594 391 2855 752 
Q 3116 1113 3116 1747 
z
" transform="scale(0.015625)"/>
       <path id="DejaVuSans-75" d="M 544 1381 
L 544 3500 
L 1119 3500 
L 1119 1403 
Q 1119 906 1312 657 
Q 1506 409 1894 409 
Q 2359 409 2629 706 
Q 2900 1003 2900 1516 
L 2900 3500 
L 3475 3500 
L 3475 0 
L 2900 0 
L 2900 538 
Q 2691 219 2414 64 
Q 2138 -91 1772 -91 
Q 1169 -91 856 284 
Q 544 659 544 1381 
z
M 1991 3584 
L 1991 3584 
z
" transform="scale(0.015625)"/>
       <path id="DejaVuSans-6c" d="M 603 4863 
L 1178 4863 
L 1178 0 
L 603 0 
L 603 4863 
z
" transform="scale(0.015625)"/>
       <path id="DejaVuSans-3a" d="M 750 794 
L 1409 794 
L 1409 0 
L 750 0 
L 750 794 
z
M 750 3309 
L 1409 3309 
L 1409 2516 
L 750 2516 
L 750 3309 
z
" transform="scale(0.015625)"/>
       <path id="DejaVuSans-63" d="M 3122 3366 
L 3122 2828 
Q 2878 2963 2633 3030 
Q 2388 3097 2138 3097 
Q 1578 3097 1268 2742 
Q 959 2388 959 1747 
Q 959 1106 1268 751 
Q 1578 397 2138 397 
Q 2388 397 2633 464 
Q 2878 531 3122 666 
L 3122 134 
Q 2881 22 2623 -34 
Q 2366 -91 2075 -91 
Q 1284 -91 818 406 
Q 353 903 353 1747 
Q 353 2603 823 3093 
Q 1294 3584 2113 3584 
Q 2378 3584 2631 3529 
Q 2884 3475 3122 3366 
z
" transform="scale(0.015625)"/>
       <path id="DejaVuSans-6f" d="M 1959 3097 
Q 1497 3097 1228 2736 
Q 959 2375 959 1747 
Q 959 1119 1226 758 
Q 1494 397 1959 397 
Q 2419 397 2687 759 
Q 2956 1122 2956 1747 
Q 2956 2369 2687 2733 
Q 2419 3097 1959 3097 
z
M 1959 3584 
Q 2709 3584 3137 3096 
Q 3566 2609 3566 1747 
Q 3566 888 3137 398 
Q 2709 -91 1959 -91 
Q 1206 -91 779 398 
Q 353 888 353 1747 
Q 353 2609 779 3096 
Q 1206 3584 1959 3584 
z
" transform="scale(0.015625)"/>
       <path id="DejaVuSans-6e" d="M 3513 2113 
L 3513 0 
L 2938 0 
L 2938 2094 
Q 2938 2591 2744 2837 
Q 2550 3084 2163 3084 
Q 1697 3084 1428 2787 
Q 1159 2491 1159 1978 
L 1159 0 
L 581 0 
L 581 3500 
L 1159 3500 
L 1159 2956 
Q 1366 3272 1645 3428 
Q 1925 3584 2291 3584 
Q 2894 3584 3203 3211 
Q 3513 2838 3513 2113 
z
" transform="scale(0.015625)"/>
      </defs>
      <use xlink:href="#DejaVuSans-70"/>
      <use xlink:href="#DejaVuSans-75" transform="translate(63.476562 0)"/>
      <use xlink:href="#DejaVuSans-6c" transform="translate(126.855469 0)"/>
      <use xlink:href="#DejaVuSans-73" transform="translate(154.638672 0)"/>
      <use xlink:href="#DejaVuSans-65" transform="translate(206.738281 0)"/>
      <use xlink:href="#DejaVuSans-3a" transform="translate(268.261719 0)"/>
      <use xlink:href="#DejaVuSans-30" transform="translate(301.953125 0)"/>
      <use xlink:href="#DejaVuSans-20" transform="translate(365.576172 0)"/>
      <use xlink:href="#DejaVuSans-5b" transform="translate(397.363281 0)"/>
      <use xlink:href="#DejaVuSans-63" transform="translate(436.376953 0)"/>
      <use xlink:href="#DejaVuSans-6f" transform="translate(491.357422 0)"/>
      <use xlink:href="#DejaVuSans-75" transform="translate(552.539062 0)"/>
      <use xlink:href="#DejaVuSans-6e" transform="translate(615.917969 0)"/>
      <use xlink:href="#DejaVuSans-74" transform="translate(679.296875 0)"/>
      <use xlink:href="#DejaVuSans-73" transform="translate(718.505859 0)"/>
      <use xlink:href="#DejaVuSans-5d" transform="translate(770.605469 0)"/>
     </g>
    </g>
   </g>
   <g id="line2d_16">
    <path d="M 69.604961 227.058348 
L 70.690083 227.058348 
L 70.690083 219.533344 
L 71.775205 219.533344 
L 71.775205 207.399277 
L 72.860328 207.399277 
L 72.860328 197.679481 
L 73.94545 197.679481 
L 73.94545 184.981037 
L 75.030573 184.981037 
L 75.030573 173.662178 
L 76.115695 173.662178 
L 76.115695 164.60082 
L 77.200817 164.60082 
L 77.200817 157.32665 
L 78.28594 157.32665 
L 78.28594 145.286645 
L 79.371062 145.286645 
L 79.371062 142.684248 
L 80.456184 142.684248 
L 80.456184 134.37539 
L 81.541307 134.37539 
L 81.541307 124.310698 
L 82.626429 124.310698 
L 82.626429 117.381424 
L 83.711552 117.381424 
L 83.711552 116.503507 
L 84.796674 116.503507 
L 84.796674 105.592252 
L 85.881796 105.592252 
L 85.881796 101.798396 
L 86.966919 101.798396 
L 86.966919 98.098603 
L 88.052041 98.098603 
L 88.052041 90.009224 
L 89.137163 90.009224 
L 89.137163 87.406827 
L 90.222286 87.406827 
L 90.222286 85.77641 
L 91.307408 85.77641 
L 91.307408 74.708384 
L 92.392531 74.708384 
L 92.392531 78.470886 
L 93.477653 78.470886 
L 93.477653 71.917862 
L 94.562775 71.917862 
L 94.562775 69.158694 
L 95.647898 69.158694 
L 95.647898 70.224736 
L 96.73302 70.224736 
L 96.73302 68.406194 
L 97.818143 68.406194 
L 97.818143 67.685047 
L 98.903265 67.685047 
L 98.903265 60.410877 
L 99.988387 60.410877 
L 99.988387 58.278793 
L 101.07351 58.278793 
L 101.07351 55.394209 
L 102.158632 55.394209 
L 102.158632 54.014625 
L 103.243754 54.014625 
L 103.243754 52.823166 
L 104.328877 52.823166 
L 104.328877 49.280143 
L 105.413999 49.280143 
L 105.413999 51.537644 
L 106.499122 51.537644 
L 106.499122 46.33285 
L 107.584244 46.33285 
L 107.584244 45.831183 
L 108.669366 45.831183 
L 108.669366 43.573682 
L 109.754489 43.573682 
L 109.754489 50.973269 
L 110.839611 50.973269 
L 110.839611 46.395559 
L 111.924733 46.395559 
L 111.924733 43.166078 
L 113.009856 43.166078 
L 113.009856 38.274826 
L 114.094978 38.274826 
L 114.094978 40.563681 
L 115.180101 40.563681 
L 115.180101 39.65441 
L 116.265223 39.65441 
L 116.265223 37.459617 
L 117.350345 37.459617 
L 117.350345 34.543678 
L 118.435468 34.543678 
L 118.435468 36.518992 
L 119.52059 36.518992 
L 119.52059 38.588368 
L 120.605712 38.588368 
L 120.605712 38.964618 
L 121.690835 38.964618 
L 121.690835 30.687114 
L 122.775957 30.687114 
L 122.775957 33.101386 
L 123.86108 33.101386 
L 123.86108 35.60972 
L 124.946202 35.60972 
L 124.946202 34.230137 
L 126.031324 34.230137 
L 126.031324 37.898576 
L 127.116447 37.898576 
L 127.116447 34.825866 
L 128.201569 34.825866 
L 128.201569 34.292845 
L 129.286692 34.292845 
L 129.286692 36.268158 
L 130.371814 36.268158 
L 130.371814 29.68378 
L 131.456936 29.68378 
L 131.456936 31.690448 
L 132.542059 31.690448 
L 132.542059 31.094718 
L 134.712303 31.157427 
L 134.712303 27.58305 
L 135.797426 27.58305 
L 135.797426 32.599719 
L 136.882548 32.599719 
L 136.882548 28.617738 
L 137.967671 28.617738 
L 137.967671 32.662428 
L 139.052793 32.662428 
L 139.052793 28.022009 
L 140.137915 28.022009 
L 140.137915 31.000656 
L 141.223038 31.000656 
L 141.223038 27.9593 
L 142.30816 27.9593 
L 142.30816 30.060031 
L 143.393282 30.060031 
L 143.393282 28.774509 
L 144.478405 28.774509 
L 144.478405 25.294195 
L 145.563527 25.294195 
L 145.563527 27.990655 
L 146.64865 27.990655 
L 146.64865 26.611071 
L 147.733772 26.611071 
L 147.733772 28.398259 
L 148.818894 28.398259 
L 148.818894 31.063364 
L 149.904017 31.063364 
L 149.904017 32.881907 
L 150.989139 32.881907 
L 150.989139 30.65576 
L 152.074261 30.65576 
L 152.074261 29.715135 
L 153.159384 29.715135 
L 153.159384 26.642425 
L 154.244506 26.642425 
L 154.244506 28.335551 
L 155.329629 28.335551 
L 155.329629 28.053363 
L 156.414751 28.053363 
L 156.414751 29.370239 
L 157.499873 29.370239 
L 157.499873 26.767842 
L 159.670118 26.799196 
L 159.670118 30.436281 
L 160.75524 30.436281 
L 160.75524 22.03336 
L 161.840363 22.03336 
L 161.840363 29.840551 
L 162.925485 29.840551 
L 162.925485 25.10607 
L 164.010608 25.10607 
L 164.010608 27.175446 
L 165.09573 27.175446 
L 165.09573 28.837217 
L 166.180852 28.837217 
L 166.180852 24.72982 
L 167.265975 24.72982 
L 167.265975 26.673779 
L 168.351097 26.673779 
L 168.351097 21.939298 
L 169.43622 21.939298 
L 169.43622 26.767842 
L 170.521342 26.767842 
L 170.521342 26.955967 
L 171.606464 26.955967 
L 171.606464 25.607737 
L 172.691587 25.607737 
L 172.691587 29.715135 
L 173.776709 29.715135 
L 173.776709 25.294195 
L 174.861831 25.294195 
L 174.861831 32.505657 
L 175.946954 32.505657 
L 175.946954 24.635757 
L 177.032076 24.635757 
L 177.032076 28.93128 
L 178.117199 28.93128 
L 178.117199 26.736487 
L 179.202321 26.736487 
L 179.202321 24.698466 
L 180.287443 24.698466 
L 180.287443 18.897942 
L 181.372566 18.897942 
L 181.372566 29.715135 
L 182.457688 29.715135 
L 182.457688 22.064714 
L 183.54281 22.064714 
L 183.54281 25.921279 
L 184.627933 25.921279 
L 184.627933 25.168778 
L 185.713055 25.168778 
L 185.713055 23.224819 
L 186.798178 23.224819 
L 186.798178 28.084717 
L 187.8833 28.084717 
L 187.8833 22.597736 
L 188.968422 22.597736 
L 188.968422 29.871905 
L 190.053545 29.871905 
L 190.053545 33.195449 
L 191.138667 33.195449 
L 191.138667 28.335551 
L 192.223789 28.335551 
L 192.223789 29.432947 
L 193.308912 29.432947 
L 193.308912 34.669095 
L 194.394034 34.669095 
L 194.394034 28.084717 
L 195.479157 28.084717 
L 195.479157 30.028676 
L 196.564279 30.028676 
L 196.564279 25.356903 
L 197.649401 25.356903 
L 197.649401 33.665761 
L 198.734524 33.665761 
L 198.734524 30.781177 
L 199.819646 30.781177 
L 199.819646 28.366905 
L 200.904769 28.366905 
L 200.904769 27.739821 
L 201.989891 27.739821 
L 201.989891 25.419612 
L 203.075013 25.419612 
L 203.075013 25.576383 
L 204.160136 25.576383 
L 204.160136 27.551696 
L 205.245258 27.551696 
L 205.245258 27.050029 
L 206.33038 27.050029 
L 206.33038 27.80253 
L 207.415503 27.80253 
L 207.415503 25.10607 
L 208.500625 25.10607 
L 208.500625 28.147425 
L 209.585748 28.147425 
L 209.585748 27.112738 
L 210.67087 27.112738 
L 210.67087 27.614404 
L 211.755992 27.614404 
L 211.755992 27.112738 
L 212.841115 27.112738 
L 212.841115 23.444298 
L 213.926237 23.444298 
L 213.926237 21.845235 
L 215.011359 21.845235 
L 215.011359 26.83055 
L 216.096482 26.83055 
L 216.096482 24.322215 
L 217.181604 24.322215 
L 217.181604 26.83055 
L 218.266727 26.83055 
L 218.266727 28.398259 
L 219.351849 28.398259 
L 219.351849 31.847219 
L 220.436971 31.847219 
L 220.436971 29.056697 
L 221.522094 29.056697 
L 221.522094 26.83055 
L 222.607216 26.83055 
L 222.607216 27.018675 
L 223.692338 27.018675 
L 223.692338 32.537011 
L 224.777461 32.537011 
L 224.777461 37.710451 
L 225.862583 37.710451 
L 225.862583 54.077333 
L 226.947706 54.077333 
L 226.947706 59.564315 
L 228.032828 59.564315 
L 228.032828 74.0813 
L 229.11795 74.0813 
L 229.11795 80.947866 
L 230.203073 80.947866 
L 230.203073 94.492872 
L 231.288195 94.492872 
L 231.288195 106.689648 
L 232.373317 106.689648 
L 232.373317 113.274026 
L 233.45844 113.274026 
L 233.45844 125.784344 
L 234.543562 125.784344 
L 234.543562 131.992472 
L 235.628685 131.992472 
L 235.628685 138.075183 
L 236.713807 138.075183 
L 236.713807 146.101853 
L 237.798929 146.101853 
L 237.798929 152.592169 
L 238.884052 152.592169 
L 238.884052 159.270609 
L 239.969174 159.270609 
L 239.969174 164.914362 
L 241.054297 164.914362 
L 241.054297 172.094469 
L 242.139419 172.094469 
L 242.139419 174.383324 
L 243.224541 174.383324 
L 243.224541 178.490722 
L 244.309664 178.490722 
L 244.309664 185.733538 
L 245.394786 185.733538 
L 245.394786 187.771559 
L 246.479908 187.771559 
L 246.479908 190.906977 
L 247.565031 190.906977 
L 247.565031 192.255207 
L 248.650153 192.255207 
L 248.650153 198.431981 
L 249.735276 198.431981 
L 249.735276 200.062398 
L 250.820398 200.062398 
L 250.820398 204.263858 
L 251.90552 204.263858 
L 251.90552 205.768859 
L 252.990643 205.768859 
L 252.990643 209.061048 
L 254.075765 209.061048 
L 254.075765 211.255841 
L 255.160887 211.255841 
L 255.160887 213.168446 
L 256.24601 213.168446 
L 256.24601 214.830217 
L 257.331132 214.830217 
L 257.331132 217.589385 
L 258.416255 217.589385 
L 258.416255 219.87824 
L 259.501377 219.87824 
L 259.501377 221.101054 
L 260.586499 221.101054 
L 260.586499 223.954284 
L 261.671622 223.954284 
L 261.671622 224.518659 
L 262.756744 224.518659 
L 262.756744 224.863555 
L 263.841866 224.863555 
L 263.841866 227.089702 
L 264.926989 227.089702 
L 264.926989 227.716786 
L 266.012111 227.716786 
L 266.012111 228.908244 
L 267.097234 228.908244 
L 267.097234 229.378557 
L 268.182356 229.378557 
L 268.182356 231.040329 
L 269.267478 231.040329 
L 269.267478 232.764809 
L 270.352601 232.764809 
L 270.352601 233.109705 
L 272.522846 233.109705 
L 272.522846 235.210435 
L 273.607968 235.210435 
L 273.607968 234.771476 
L 274.69309 234.771476 
L 274.69309 235.367206 
L 275.778213 235.367206 
L 275.778213 237.405227 
L 276.863335 237.405227 
L 276.863335 237.656061 
L 277.948457 237.656061 
L 277.948457 237.49929 
L 279.03358 237.49929 
L 279.03358 238.000957 
L 280.118702 238.000957 
L 280.118702 238.753457 
L 281.203825 238.753457 
L 281.203825 239.286478 
L 283.374069 239.380541 
L 283.374069 239.443249 
L 284.459192 239.443249 
L 284.459192 240.164395 
L 285.544314 240.164395 
L 285.544314 240.572 
L 286.629436 240.572 
L 286.629436 240.227104 
L 287.714559 240.227104 
L 287.714559 241.387208 
L 289.884804 241.418563 
L 289.884804 242.390542 
L 290.969926 242.390542 
L 290.969926 241.982938 
L 292.055048 241.982938 
L 292.055048 242.327834 
L 293.140171 242.327834 
L 293.140171 242.453251 
L 294.225293 242.453251 
L 294.225293 242.860855 
L 295.310415 242.860855 
L 295.310415 242.578667 
L 296.395538 242.578667 
L 296.395538 243.017626 
L 297.48066 243.017626 
L 297.48066 243.143043 
L 299.650905 243.04898 
L 299.650905 243.613355 
L 300.736027 243.613355 
L 300.736027 244.146376 
L 301.82115 244.146376 
L 301.82115 244.428564 
L 302.906272 244.428564 
L 302.906272 243.895543 
L 303.991394 243.895543 
L 303.991394 244.052314 
L 305.076517 244.052314 
L 305.076517 243.832835 
L 306.161639 243.832835 
L 306.161639 244.02096 
L 307.246762 244.02096 
L 307.246762 244.146376 
L 308.331884 244.146376 
L 308.331884 244.491272 
L 309.417006 244.491272 
L 309.417006 244.648043 
L 310.502129 244.648043 
L 310.502129 244.522626 
L 312.672374 244.491272 
L 312.672374 244.77346 
L 313.757496 244.77346 
L 313.757496 244.992939 
L 315.927741 244.961585 
L 315.927741 244.867522 
L 319.183108 244.898877 
L 319.183108 245.118356 
L 321.353353 245.024293 
L 321.353353 244.961585 
L 323.523597 244.992939 
L 323.523597 245.275127 
L 326.778964 245.369189 
L 326.778964 245.118356 
L 327.864087 245.118356 
L 327.864087 245.243773 
L 331.119454 245.306481 
L 331.119454 245.494606 
L 336.545066 245.431898 
L 336.545066 245.337835 
L 338.715311 245.369189 
L 338.715311 245.52596 
L 340.885555 245.588669 
L 340.885555 245.714085 
L 341.970678 245.714085 
L 341.970678 245.557314 
L 344.140923 245.463252 
L 344.140923 245.714085 
L 345.226045 245.714085 
L 345.226045 245.557314 
L 347.39629 245.588669 
L 347.39629 245.74544 
L 348.481412 245.74544 
L 348.481412 245.494606 
L 349.566534 245.494606 
L 349.566534 245.714085 
L 395.141674 245.74544 
L 395.141674 245.74544 
" clip-path="url(#pedbd5c9308)" style="fill: none; stroke: #1f77b4; stroke-width: 1.5; stroke-linecap: square"/>
   </g>
   <g id="patch_3">
    <path d="M 53.328125 257.153658 
L 53.328125 7.552432 
" style="fill: none; stroke: #000000; stroke-width: 0.8; stroke-linejoin: miter; stroke-linecap: square"/>
   </g>
   <g id="patch_4">
    <path d="M 411.41851 257.153658 
L 411.41851 7.552432 
" style="fill: none; stroke: #000000; stroke-width: 0.8; stroke-linejoin: miter; stroke-linecap: square"/>
   </g>
   <g id="patch_5">
    <path d="M 53.328125 257.153658 
L 411.41851 257.153658 
" style="fill: none; stroke: #000000; stroke-width: 0.8; stroke-linejoin: miter; stroke-linecap: square"/>
   </g>
   <g id="patch_6">
    <path d="M 53.328125 7.552432 
L 411.41851 7.552432 
" style="fill: none; stroke: #000000; stroke-width: 0.8; stroke-linejoin: miter; stroke-linecap: square"/>
   </g>
  </g>
  <g id="axes_2">
   <g id="patch_7">
    <path d="M 507.109135 257.153658 
L 865.19952 257.153658 
L 865.19952 7.552432 
L 507.109135 7.552432 
z
" style="fill: #ffffff"/>
   </g>
   <g id="matplotlib.axis_3">
    <g id="xtick_8">
     <g id="line2d_17">
      <g>
       <use xlink:href="#mbe27898bb6" x="521.749864" y="257.153658" style="stroke: #000000; stroke-width: 0.8"/>
      </g>
     </g>
     <g id="text_18">
      <!-- 0.0 -->
      <g transform="translate(513.798301 271.752096) scale(0.1 -0.1)">
       <defs>
        <path id="DejaVuSans-2e" d="M 684 794 
L 1344 794 
L 1344 0 
L 684 0 
L 684 794 
z
" transform="scale(0.015625)"/>
       </defs>
       <use xlink:href="#DejaVuSans-30"/>
       <use xlink:href="#DejaVuSans-2e" transform="translate(63.623047 0)"/>
       <use xlink:href="#DejaVuSans-30" transform="translate(95.410156 0)"/>
      </g>
     </g>
    </g>
    <g id="xtick_9">
     <g id="line2d_18">
      <g>
       <use xlink:href="#mbe27898bb6" x="562.651518" y="257.153658" style="stroke: #000000; stroke-width: 0.8"/>
      </g>
     </g>
     <g id="text_19">
      <!-- 2.5 -->
      <g transform="translate(554.699955 271.752096) scale(0.1 -0.1)">
       <use xlink:href="#DejaVuSans-32"/>
       <use xlink:href="#DejaVuSans-2e" transform="translate(63.623047 0)"/>
       <use xlink:href="#DejaVuSans-35" transform="translate(95.410156 0)"/>
      </g>
     </g>
    </g>
    <g id="xtick_10">
     <g id="line2d_19">
      <g>
       <use xlink:href="#mbe27898bb6" x="603.553172" y="257.153658" style="stroke: #000000; stroke-width: 0.8"/>
      </g>
     </g>
     <g id="text_20">
      <!-- 5.0 -->
      <g transform="translate(595.60161 271.752096) scale(0.1 -0.1)">
       <use xlink:href="#DejaVuSans-35"/>
       <use xlink:href="#DejaVuSans-2e" transform="translate(63.623047 0)"/>
       <use xlink:href="#DejaVuSans-30" transform="translate(95.410156 0)"/>
      </g>
     </g>
    </g>
    <g id="xtick_11">
     <g id="line2d_20">
      <g>
       <use xlink:href="#mbe27898bb6" x="644.454827" y="257.153658" style="stroke: #000000; stroke-width: 0.8"/>
      </g>
     </g>
     <g id="text_21">
      <!-- 7.5 -->
      <g transform="translate(636.503264 271.752096) scale(0.1 -0.1)">
       <use xlink:href="#DejaVuSans-37"/>
       <use xlink:href="#DejaVuSans-2e" transform="translate(63.623047 0)"/>
       <use xlink:href="#DejaVuSans-35" transform="translate(95.410156 0)"/>
      </g>
     </g>
    </g>
    <g id="xtick_12">
     <g id="line2d_21">
      <g>
       <use xlink:href="#mbe27898bb6" x="685.356481" y="257.153658" style="stroke: #000000; stroke-width: 0.8"/>
      </g>
     </g>
     <g id="text_22">
      <!-- 10.0 -->
      <g transform="translate(674.223669 271.752096) scale(0.1 -0.1)">
       <use xlink:href="#DejaVuSans-31"/>
       <use xlink:href="#DejaVuSans-30" transform="translate(63.623047 0)"/>
       <use xlink:href="#DejaVuSans-2e" transform="translate(127.246094 0)"/>
       <use xlink:href="#DejaVuSans-30" transform="translate(159.033203 0)"/>
      </g>
     </g>
    </g>
    <g id="xtick_13">
     <g id="line2d_22">
      <g>
       <use xlink:href="#mbe27898bb6" x="726.258136" y="257.153658" style="stroke: #000000; stroke-width: 0.8"/>
      </g>
     </g>
     <g id="text_23">
      <!-- 12.5 -->
      <g transform="translate(715.125323 271.752096) scale(0.1 -0.1)">
       <use xlink:href="#DejaVuSans-31"/>
       <use xlink:href="#DejaVuSans-32" transform="translate(63.623047 0)"/>
       <use xlink:href="#DejaVuSans-2e" transform="translate(127.246094 0)"/>
       <use xlink:href="#DejaVuSans-35" transform="translate(159.033203 0)"/>
      </g>
     </g>
    </g>
    <g id="xtick_14">
     <g id="line2d_23">
      <g>
       <use xlink:href="#mbe27898bb6" x="767.15979" y="257.153658" style="stroke: #000000; stroke-width: 0.8"/>
      </g>
     </g>
     <g id="text_24">
      <!-- 15.0 -->
      <g transform="translate(756.026978 271.752096) scale(0.1 -0.1)">
       <use xlink:href="#DejaVuSans-31"/>
       <use xlink:href="#DejaVuSans-35" transform="translate(63.623047 0)"/>
       <use xlink:href="#DejaVuSans-2e" transform="translate(127.246094 0)"/>
       <use xlink:href="#DejaVuSans-30" transform="translate(159.033203 0)"/>
      </g>
     </g>
    </g>
    <g id="xtick_15">
     <g id="line2d_24">
      <g>
       <use xlink:href="#mbe27898bb6" x="808.061445" y="257.153658" style="stroke: #000000; stroke-width: 0.8"/>
      </g>
     </g>
     <g id="text_25">
      <!-- 17.5 -->
      <g transform="translate(796.928632 271.752096) scale(0.1 -0.1)">
       <use xlink:href="#DejaVuSans-31"/>
       <use xlink:href="#DejaVuSans-37" transform="translate(63.623047 0)"/>
       <use xlink:href="#DejaVuSans-2e" transform="translate(127.246094 0)"/>
       <use xlink:href="#DejaVuSans-35" transform="translate(159.033203 0)"/>
      </g>
     </g>
    </g>
    <g id="xtick_16">
     <g id="line2d_25">
      <g>
       <use xlink:href="#mbe27898bb6" x="848.963099" y="257.153658" style="stroke: #000000; stroke-width: 0.8"/>
      </g>
     </g>
     <g id="text_26">
      <!-- 20.0 -->
      <g transform="translate(837.830286 271.752096) scale(0.1 -0.1)">
       <use xlink:href="#DejaVuSans-32"/>
       <use xlink:href="#DejaVuSans-30" transform="translate(63.623047 0)"/>
       <use xlink:href="#DejaVuSans-2e" transform="translate(127.246094 0)"/>
       <use xlink:href="#DejaVuSans-30" transform="translate(159.033203 0)"/>
      </g>
     </g>
    </g>
    <g id="text_27">
     <!-- wavelength [Å] -->
     <g transform="translate(648.116827 287.114596) scale(0.1 -0.1)">
      <defs>
       <path id="DejaVuSans-77" d="M 269 3500 
L 844 3500 
L 1563 769 
L 2278 3500 
L 2956 3500 
L 3675 769 
L 4391 3500 
L 4966 3500 
L 4050 0 
L 3372 0 
L 2619 2869 
L 1863 0 
L 1184 0 
L 269 3500 
z
" transform="scale(0.015625)"/>
       <path id="DejaVuSans-61" d="M 2194 1759 
Q 1497 1759 1228 1600 
Q 959 1441 959 1056 
Q 959 750 1161 570 
Q 1363 391 1709 391 
Q 2188 391 2477 730 
Q 2766 1069 2766 1631 
L 2766 1759 
L 2194 1759 
z
M 3341 1997 
L 3341 0 
L 2766 0 
L 2766 531 
Q 2569 213 2275 61 
Q 1981 -91 1556 -91 
Q 1019 -91 701 211 
Q 384 513 384 1019 
Q 384 1609 779 1909 
Q 1175 2209 1959 2209 
L 2766 2209 
L 2766 2266 
Q 2766 2663 2505 2880 
Q 2244 3097 1772 3097 
Q 1472 3097 1187 3025 
Q 903 2953 641 2809 
L 641 3341 
Q 956 3463 1253 3523 
Q 1550 3584 1831 3584 
Q 2591 3584 2966 3190 
Q 3341 2797 3341 1997 
z
" transform="scale(0.015625)"/>
       <path id="DejaVuSans-76" d="M 191 3500 
L 800 3500 
L 1894 563 
L 2988 3500 
L 3597 3500 
L 2284 0 
L 1503 0 
L 191 3500 
z
" transform="scale(0.015625)"/>
       <path id="DejaVuSans-67" d="M 2906 1791 
Q 2906 2416 2648 2759 
Q 2391 3103 1925 3103 
Q 1463 3103 1205 2759 
Q 947 2416 947 1791 
Q 947 1169 1205 825 
Q 1463 481 1925 481 
Q 2391 481 2648 825 
Q 2906 1169 2906 1791 
z
M 3481 434 
Q 3481 -459 3084 -895 
Q 2688 -1331 1869 -1331 
Q 1566 -1331 1297 -1286 
Q 1028 -1241 775 -1147 
L 775 -588 
Q 1028 -725 1275 -790 
Q 1522 -856 1778 -856 
Q 2344 -856 2625 -561 
Q 2906 -266 2906 331 
L 2906 616 
Q 2728 306 2450 153 
Q 2172 0 1784 0 
Q 1141 0 747 490 
Q 353 981 353 1791 
Q 353 2603 747 3093 
Q 1141 3584 1784 3584 
Q 2172 3584 2450 3431 
Q 2728 3278 2906 2969 
L 2906 3500 
L 3481 3500 
L 3481 434 
z
" transform="scale(0.015625)"/>
       <path id="DejaVuSans-c5" d="M 2663 5081 
Q 2663 5278 2523 5417 
Q 2384 5556 2188 5556 
Q 1988 5556 1852 5420 
Q 1716 5284 1716 5081 
Q 1716 4884 1853 4746 
Q 1991 4609 2188 4609 
Q 2384 4609 2523 4746 
Q 2663 4884 2663 5081 
z
M 2188 4044 
L 1338 1722 
L 3041 1722 
L 2188 4044 
z
M 1716 4366 
Q 1525 4494 1428 4673 
Q 1331 4853 1331 5081 
Q 1331 5441 1579 5691 
Q 1828 5941 2188 5941 
Q 2544 5941 2795 5689 
Q 3047 5438 3047 5081 
Q 3047 4863 2948 4678 
Q 2850 4494 2663 4366 
L 4325 0 
L 3669 0 
L 3244 1197 
L 1141 1197 
L 716 0 
L 50 0 
L 1716 4366 
z
" transform="scale(0.015625)"/>
      </defs>
      <use xlink:href="#DejaVuSans-77"/>
      <use xlink:href="#DejaVuSans-61" transform="translate(81.787109 0)"/>
      <use xlink:href="#DejaVuSans-76" transform="translate(143.066406 0)"/>
      <use xlink:href="#DejaVuSans-65" transform="translate(202.246094 0)"/>
      <use xlink:href="#DejaVuSans-6c" transform="translate(263.769531 0)"/>
      <use xlink:href="#DejaVuSans-65" transform="translate(291.552734 0)"/>
      <use xlink:href="#DejaVuSans-6e" transform="translate(353.076172 0)"/>
      <use xlink:href="#DejaVuSans-67" transform="translate(416.455078 0)"/>
      <use xlink:href="#DejaVuSans-74" transform="translate(479.931641 0)"/>
      <use xlink:href="#DejaVuSans-68" transform="translate(519.140625 0)"/>
      <use xlink:href="#DejaVuSans-20" transform="translate(582.519531 0)"/>
      <use xlink:href="#DejaVuSans-5b" transform="translate(614.306641 0)"/>
      <use xlink:href="#DejaVuSans-c5" transform="translate(653.320312 0)"/>
      <use xlink:href="#DejaVuSans-5d" transform="translate(721.728516 0)"/>
     </g>
    </g>
   </g>
   <g id="matplotlib.axis_4">
    <g id="ytick_9">
     <g id="line2d_26">
      <g>
       <use xlink:href="#m2ad6df78de" x="507.109135" y="245.847289" style="stroke: #000000; stroke-width: 0.8"/>
      </g>
     </g>
     <g id="text_28">
      <!-- 0 -->
      <g transform="translate(493.746635 249.646508) scale(0.1 -0.1)">
       <use xlink:href="#DejaVuSans-30"/>
      </g>
     </g>
    </g>
    <g id="ytick_10">
     <g id="line2d_27">
      <g>
       <use xlink:href="#m2ad6df78de" x="507.109135" y="206.705944" style="stroke: #000000; stroke-width: 0.8"/>
      </g>
     </g>
     <g id="text_29">
      <!-- 5000 -->
      <g transform="translate(474.659135 210.505163) scale(0.1 -0.1)">
       <use xlink:href="#DejaVuSans-35"/>
       <use xlink:href="#DejaVuSans-30" transform="translate(63.623047 0)"/>
       <use xlink:href="#DejaVuSans-30" transform="translate(127.246094 0)"/>
       <use xlink:href="#DejaVuSans-30" transform="translate(190.869141 0)"/>
      </g>
     </g>
    </g>
    <g id="ytick_11">
     <g id="line2d_28">
      <g>
       <use xlink:href="#m2ad6df78de" x="507.109135" y="167.564599" style="stroke: #000000; stroke-width: 0.8"/>
      </g>
     </g>
     <g id="text_30">
      <!-- 10000 -->
      <g transform="translate(468.296635 171.363818) scale(0.1 -0.1)">
       <use xlink:href="#DejaVuSans-31"/>
       <use xlink:href="#DejaVuSans-30" transform="translate(63.623047 0)"/>
       <use xlink:href="#DejaVuSans-30" transform="translate(127.246094 0)"/>
       <use xlink:href="#DejaVuSans-30" transform="translate(190.869141 0)"/>
       <use xlink:href="#DejaVuSans-30" transform="translate(254.492188 0)"/>
      </g>
     </g>
    </g>
    <g id="ytick_12">
     <g id="line2d_29">
      <g>
       <use xlink:href="#m2ad6df78de" x="507.109135" y="128.423254" style="stroke: #000000; stroke-width: 0.8"/>
      </g>
     </g>
     <g id="text_31">
      <!-- 15000 -->
      <g transform="translate(468.296635 132.222473) scale(0.1 -0.1)">
       <use xlink:href="#DejaVuSans-31"/>
       <use xlink:href="#DejaVuSans-35" transform="translate(63.623047 0)"/>
       <use xlink:href="#DejaVuSans-30" transform="translate(127.246094 0)"/>
       <use xlink:href="#DejaVuSans-30" transform="translate(190.869141 0)"/>
       <use xlink:href="#DejaVuSans-30" transform="translate(254.492188 0)"/>
      </g>
     </g>
    </g>
    <g id="ytick_13">
     <g id="line2d_30">
      <g>
       <use xlink:href="#m2ad6df78de" x="507.109135" y="89.281909" style="stroke: #000000; stroke-width: 0.8"/>
      </g>
     </g>
     <g id="text_32">
      <!-- 20000 -->
      <g transform="translate(468.296635 93.081128) scale(0.1 -0.1)">
       <use xlink:href="#DejaVuSans-32"/>
       <use xlink:href="#DejaVuSans-30" transform="translate(63.623047 0)"/>
       <use xlink:href="#DejaVuSans-30" transform="translate(127.246094 0)"/>
       <use xlink:href="#DejaVuSans-30" transform="translate(190.869141 0)"/>
       <use xlink:href="#DejaVuSans-30" transform="translate(254.492188 0)"/>
      </g>
     </g>
    </g>
    <g id="ytick_14">
     <g id="line2d_31">
      <g>
       <use xlink:href="#m2ad6df78de" x="507.109135" y="50.140564" style="stroke: #000000; stroke-width: 0.8"/>
      </g>
     </g>
     <g id="text_33">
      <!-- 25000 -->
      <g transform="translate(468.296635 53.939783) scale(0.1 -0.1)">
       <use xlink:href="#DejaVuSans-32"/>
       <use xlink:href="#DejaVuSans-35" transform="translate(63.623047 0)"/>
       <use xlink:href="#DejaVuSans-30" transform="translate(127.246094 0)"/>
       <use xlink:href="#DejaVuSans-30" transform="translate(190.869141 0)"/>
       <use xlink:href="#DejaVuSans-30" transform="translate(254.492188 0)"/>
      </g>
     </g>
    </g>
    <g id="ytick_15">
     <g id="line2d_32">
      <g>
       <use xlink:href="#m2ad6df78de" x="507.109135" y="10.999219" style="stroke: #000000; stroke-width: 0.8"/>
      </g>
     </g>
     <g id="text_34">
      <!-- 30000 -->
      <g transform="translate(468.296635 14.798438) scale(0.1 -0.1)">
       <use xlink:href="#DejaVuSans-33"/>
       <use xlink:href="#DejaVuSans-30" transform="translate(63.623047 0)"/>
       <use xlink:href="#DejaVuSans-30" transform="translate(127.246094 0)"/>
       <use xlink:href="#DejaVuSans-30" transform="translate(190.869141 0)"/>
       <use xlink:href="#DejaVuSans-30" transform="translate(254.492188 0)"/>
      </g>
     </g>
    </g>
    <g id="text_35">
     <!-- pulse:0 [counts] -->
     <g transform="translate(462.216947 172.833514) rotate(-90) scale(0.1 -0.1)">
      <use xlink:href="#DejaVuSans-70"/>
      <use xlink:href="#DejaVuSans-75" transform="translate(63.476562 0)"/>
      <use xlink:href="#DejaVuSans-6c" transform="translate(126.855469 0)"/>
      <use xlink:href="#DejaVuSans-73" transform="translate(154.638672 0)"/>
      <use xlink:href="#DejaVuSans-65" transform="translate(206.738281 0)"/>
      <use xlink:href="#DejaVuSans-3a" transform="translate(268.261719 0)"/>
      <use xlink:href="#DejaVuSans-30" transform="translate(301.953125 0)"/>
      <use xlink:href="#DejaVuSans-20" transform="translate(365.576172 0)"/>
      <use xlink:href="#DejaVuSans-5b" transform="translate(397.363281 0)"/>
      <use xlink:href="#DejaVuSans-63" transform="translate(436.376953 0)"/>
      <use xlink:href="#DejaVuSans-6f" transform="translate(491.357422 0)"/>
      <use xlink:href="#DejaVuSans-75" transform="translate(552.539062 0)"/>
      <use xlink:href="#DejaVuSans-6e" transform="translate(615.917969 0)"/>
      <use xlink:href="#DejaVuSans-74" transform="translate(679.296875 0)"/>
      <use xlink:href="#DejaVuSans-73" transform="translate(718.505859 0)"/>
      <use xlink:href="#DejaVuSans-5d" transform="translate(770.605469 0)"/>
     </g>
    </g>
   </g>
   <g id="line2d_33">
    <path d="M 523.385971 18.897942 
L 524.471093 18.897942 
L 524.471093 82.518284 
L 525.556215 82.518284 
L 525.556215 124.790937 
L 526.641338 124.790937 
L 526.641338 153.074473 
L 527.72646 153.074473 
L 527.72646 167.259297 
L 528.811583 167.259297 
L 528.811583 181.130989 
L 529.896705 181.130989 
L 529.896705 186.399414 
L 530.981827 186.399414 
L 530.981827 184.677195 
L 532.06695 184.677195 
L 532.06695 174.453476 
L 533.152072 174.453476 
L 533.152072 157.027749 
L 534.237194 157.027749 
L 534.237194 135.625261 
L 535.322317 135.625261 
L 535.322317 112.782373 
L 536.407439 112.782373 
L 536.407439 92.092257 
L 537.492562 92.092257 
L 537.492562 82.244295 
L 538.577684 82.244295 
L 538.577684 74.815268 
L 539.662806 74.815268 
L 539.662806 73.507947 
L 540.747929 73.507947 
L 540.747929 78.314504 
L 541.833051 78.314504 
L 541.833051 84.780654 
L 542.918173 84.780654 
L 542.918173 93.830133 
L 544.003296 93.830133 
L 544.003296 100.257142 
L 545.088418 100.257142 
L 545.088418 110.676568 
L 546.173541 110.676568 
L 546.173541 114.888177 
L 547.258663 114.888177 
L 547.258663 122.293719 
L 548.343785 122.293719 
L 548.343785 128.767698 
L 549.428908 128.767698 
L 549.428908 133.895214 
L 550.51403 133.895214 
L 550.51403 137.300511 
L 551.599153 137.300511 
L 551.599153 140.901515 
L 552.684275 140.901515 
L 552.684275 141.69217 
L 553.769397 141.69217 
L 553.769397 141.003282 
L 554.85452 141.003282 
L 554.85452 138.012884 
L 555.939642 138.012884 
L 555.939642 137.308339 
L 557.024764 137.308339 
L 557.024764 131.585875 
L 558.109887 131.585875 
L 558.109887 127.178559 
L 559.195009 127.178559 
L 559.195009 120.015693 
L 560.280132 120.015693 
L 560.280132 110.927073 
L 561.365254 110.927073 
L 561.365254 101.110423 
L 562.450376 101.110423 
L 562.450376 95.309676 
L 563.535499 95.309676 
L 563.535499 96.585684 
L 564.620621 96.585684 
L 564.620621 103.247541 
L 565.705743 103.247541 
L 565.705743 111.537678 
L 566.790866 111.537678 
L 566.790866 117.36191 
L 567.875988 117.36191 
L 567.875988 123.499273 
L 568.961111 123.499273 
L 568.961111 129.941938 
L 570.046233 129.941938 
L 570.046233 137.464905 
L 571.131355 137.464905 
L 571.131355 139.578537 
L 572.216478 139.578537 
L 572.216478 145.661102 
L 573.3016 145.661102 
L 573.3016 151.250486 
L 574.386722 151.250486 
L 574.386722 155.978761 
L 575.471845 155.978761 
L 575.471845 161.372438 
L 576.556967 161.372438 
L 576.556967 166.265106 
L 577.64209 166.265106 
L 577.64209 168.82495 
L 578.727212 168.82495 
L 578.727212 173.310549 
L 579.812334 173.310549 
L 579.812334 177.169885 
L 580.897457 177.169885 
L 580.897457 180.442102 
L 581.982579 180.442102 
L 581.982579 185.2878 
L 583.067702 185.2878 
L 583.067702 187.32315 
L 584.152824 187.32315 
L 584.152824 189.757742 
L 585.237946 189.757742 
L 585.237946 193.648391 
L 586.323069 193.648391 
L 586.323069 194.736521 
L 587.408191 194.736521 
L 587.408191 196.521366 
L 588.493313 196.521366 
L 588.493313 199.042069 
L 589.578436 199.042069 
L 589.578436 201.656711 
L 590.663558 201.656711 
L 590.663558 204.498372 
L 591.748681 204.498372 
L 591.748681 205.680441 
L 592.833803 205.680441 
L 592.833803 207.942811 
L 593.918925 207.942811 
L 593.918925 209.101394 
L 595.004048 209.101394 
L 595.004048 211.081947 
L 596.08917 211.081947 
L 596.08917 212.444065 
L 597.174292 212.444065 
L 597.174292 213.633962 
L 598.259415 213.633962 
L 598.259415 216.459967 
L 600.42966 216.49128 
L 600.42966 218.072591 
L 601.514782 218.072591 
L 601.514782 218.878902 
L 602.599904 218.878902 
L 602.599904 221.55617 
L 603.685027 221.55617 
L 603.685027 221.031676 
L 604.770149 221.031676 
L 604.770149 223.247077 
L 605.855271 223.247077 
L 605.855271 223.975106 
L 606.940394 223.975106 
L 606.940394 224.397832 
L 608.025516 224.397832 
L 608.025516 225.85389 
L 610.195761 225.893032 
L 610.195761 226.973333 
L 611.280883 226.973333 
L 611.280883 227.803129 
L 612.366006 227.803129 
L 612.366006 228.766006 
L 613.451128 228.766006 
L 613.451128 229.501864 
L 614.53625 229.501864 
L 614.53625 229.74454 
L 615.621373 229.74454 
L 615.621373 230.409943 
L 616.706495 230.409943 
L 616.706495 231.443274 
L 617.791618 231.443274 
L 617.791618 232.359182 
L 619.961862 232.390495 
L 619.961862 233.322059 
L 621.046985 233.322059 
L 621.046985 233.564735 
L 622.132107 233.564735 
L 622.132107 234.245795 
L 623.21723 234.245795 
L 623.21723 233.705644 
L 624.302352 233.705644 
L 624.302352 234.872056 
L 625.387474 234.872056 
L 625.387474 235.733166 
L 626.472597 235.733166 
L 626.472597 235.968014 
L 628.642841 235.999327 
L 628.642841 236.492508 
L 629.727964 236.492508 
L 629.727964 236.891749 
L 631.898209 236.962204 
L 631.898209 237.424072 
L 632.983331 237.424072 
L 632.983331 237.878111 
L 635.153576 237.807657 
L 635.153576 238.379121 
L 637.32382 238.394777 
L 637.32382 239.154119 
L 638.408943 239.154119 
L 638.408943 238.747049 
L 639.494065 238.747049 
L 639.494065 239.06018 
L 640.579188 239.06018 
L 640.579188 239.615987 
L 641.66431 239.615987 
L 641.66431 239.788209 
L 642.749432 239.788209 
L 642.749432 240.05437 
L 646.004799 240.070027 
L 646.004799 240.422299 
L 647.089922 240.422299 
L 647.089922 240.73543 
L 648.175044 240.73543 
L 648.175044 240.923308 
L 649.260167 240.923308 
L 649.260167 241.369519 
L 650.345289 241.369519 
L 650.345289 240.993762 
L 651.430411 240.993762 
L 651.430411 241.557398 
L 654.685779 241.596539 
L 654.685779 241.385176 
L 655.770901 241.385176 
L 655.770901 241.54957 
L 656.856023 241.54957 
L 656.856023 241.823559 
L 657.941146 241.823559 
L 657.941146 242.019266 
L 659.026268 242.019266 
L 659.026268 242.387194 
L 660.11139 242.387194 
L 660.11139 242.528103 
L 661.196513 242.528103 
L 661.196513 242.379366 
L 663.366758 242.465477 
L 663.366758 242.935173 
L 667.707247 242.943001 
L 667.707247 243.115223 
L 670.962614 243.138708 
L 670.962614 243.639717 
L 672.047737 243.639717 
L 672.047737 243.334415 
L 674.217981 243.271789 
L 674.217981 243.655374 
L 677.473348 243.67103 
L 677.473348 243.827596 
L 679.643593 243.780626 
L 679.643593 243.655374 
L 681.813838 243.631889 
L 681.813838 243.890222 
L 682.89896 243.890222 
L 682.89896 244.038959 
L 683.984083 244.038959 
L 683.984083 244.273807 
L 685.069205 244.273807 
L 685.069205 243.890222 
L 686.154327 243.890222 
L 686.154327 244.007646 
L 687.23945 244.007646 
L 687.23945 244.187696 
L 690.494817 244.219009 
L 690.494817 244.312949 
L 695.920429 244.35209 
L 695.920429 244.453857 
L 699.175796 244.469514 
L 699.175796 244.641736 
L 705.68653 244.673049 
L 705.68653 244.829614 
L 711.112142 244.860927 
L 711.112142 244.970523 
L 714.367509 244.868756 
L 714.367509 244.853099 
L 716.537754 244.947038 
L 716.537754 244.98618 
L 721.963366 244.98618 
L 721.963366 245.134917 
L 725.218733 245.134917 
L 725.218733 245.017493 
L 726.303856 245.017493 
L 726.303856 245.174058 
L 732.81459 245.142745 
L 732.81459 245.322795 
L 734.984835 245.338452 
L 734.984835 245.197543 
L 739.325324 245.267997 
L 739.325324 245.377593 
L 740.410446 245.377593 
L 740.410446 245.228856 
L 743.665814 245.314967 
L 743.665814 245.34628 
L 744.750936 245.34628 
L 744.750936 245.487189 
L 748.006303 245.424563 
L 748.006303 245.361937 
L 751.26167 245.369765 
L 751.26167 245.479361 
L 753.431915 245.448048 
L 753.431915 245.354108 
L 756.687282 245.463704 
L 756.687282 245.495017 
L 775.134363 245.541987 
L 775.134363 245.635926 
L 782.730219 245.628098 
L 782.730219 245.495017 
L 783.815342 245.495017 
L 783.815342 245.667239 
L 836.986338 245.776835 
L 836.986338 245.792491 
L 848.922684 245.808148 
L 848.922684 245.808148 
" clip-path="url(#pa7265b5c93)" style="fill: none; stroke: #1f77b4; stroke-width: 1.5; stroke-linecap: square"/>
   </g>
   <g id="patch_8">
    <path d="M 507.109135 257.153658 
L 507.109135 7.552432 
" style="fill: none; stroke: #000000; stroke-width: 0.8; stroke-linejoin: miter; stroke-linecap: square"/>
   </g>
   <g id="patch_9">
    <path d="M 865.19952 257.153658 
L 865.19952 7.552432 
" style="fill: none; stroke: #000000; stroke-width: 0.8; stroke-linejoin: miter; stroke-linecap: square"/>
   </g>
   <g id="patch_10">
    <path d="M 507.109135 257.153658 
L 865.19952 257.153658 
" style="fill: none; stroke: #000000; stroke-width: 0.8; stroke-linejoin: miter; stroke-linecap: square"/>
   </g>
   <g id="patch_11">
    <path d="M 507.109135 7.552432 
L 865.19952 7.552432 
" style="fill: none; stroke: #000000; stroke-width: 0.8; stroke-linejoin: miter; stroke-linecap: square"/>
   </g>
  </g>
 </g>
 <defs>
  <clipPath id="pedbd5c9308">
   <rect x="53.328125" y="7.552432" width="358.090385" height="249.601226"/>
  </clipPath>
  <clipPath id="pa7265b5c93">
   <rect x="507.109135" y="7.552432" width="358.090385" height="249.601226"/>
  </clipPath>
 </defs>
</svg>
