<?xml version="1.0" encoding="utf-8" standalone="no"?>
<!DOCTYPE svg PUBLIC "-//W3C//DTD SVG 1.1//EN"
  "http://www.w3.org/Graphics/SVG/1.1/DTD/svg11.dtd">
<svg xmlns:xlink="http://www.w3.org/1999/xlink" width="395.328125pt" height="268.200625pt" viewBox="0 0 395.328125 268.200625" xmlns="http://www.w3.org/2000/svg" version="1.1">
 <metadata>
  <rdf:RDF xmlns:dc="http://purl.org/dc/elements/1.1/" xmlns:cc="http://creativecommons.org/ns#" xmlns:rdf="http://www.w3.org/1999/02/22-rdf-syntax-ns#">
   <cc:Work>
    <dc:type rdf:resource="http://purl.org/dc/dcmitype/StillImage"/>
    <dc:date>2025-04-29T09:31:48.611165</dc:date>
    <dc:format>image/svg+xml</dc:format>
    <dc:creator>
     <cc:Agent>
      <dc:title>Matplotlib v3.10.1, https://matplotlib.org/</dc:title>
     </cc:Agent>
    </dc:creator>
   </cc:Work>
  </rdf:RDF>
 </metadata>
 <defs>
  <style type="text/css">*{stroke-linejoin: round; stroke-linecap: butt}</style>
 </defs>
 <g id="figure_1">
  <g id="patch_1">
   <path d="M 0 268.200625 
L 395.328125 268.200625 
L 395.328125 0 
L 0 0 
z
" style="fill: #ffffff"/>
  </g>
  <g id="axes_1">
   <g id="patch_2">
    <path d="M 53.328125 228.96 
L 388.128125 228.96 
L 388.128125 7.2 
L 53.328125 7.2 
z
" style="fill: #ffffff"/>
   </g>
   <g id="matplotlib.axis_1">
    <g id="xtick_1">
     <g id="line2d_1">
      <defs>
       <path id="m89cc387eaf" d="M 0 0 
L 0 3.5 
" style="stroke: #000000; stroke-width: 0.8"/>
      </defs>
      <g>
       <use xlink:href="#m89cc387eaf" x="65.477571" y="228.96" style="stroke: #000000; stroke-width: 0.8"/>
      </g>
     </g>
     <g id="text_1">
      <!-- 0.0 -->
      <g transform="translate(57.526008 243.558437) scale(0.1 -0.1)">
       <defs>
        <path id="DejaVuSans-30" d="M 2034 4250 
Q 1547 4250 1301 3770 
Q 1056 3291 1056 2328 
Q 1056 1369 1301 889 
Q 1547 409 2034 409 
Q 2525 409 2770 889 
Q 3016 1369 3016 2328 
Q 3016 3291 2770 3770 
Q 2525 4250 2034 4250 
z
M 2034 4750 
Q 2819 4750 3233 4129 
Q 3647 3509 3647 2328 
Q 3647 1150 3233 529 
Q 2819 -91 2034 -91 
Q 1250 -91 836 529 
Q 422 1150 422 2328 
Q 422 3509 836 4129 
Q 1250 4750 2034 4750 
z
" transform="scale(0.015625)"/>
        <path id="DejaVuSans-2e" d="M 684 794 
L 1344 794 
L 1344 0 
L 684 0 
L 684 794 
z
" transform="scale(0.015625)"/>
       </defs>
       <use xlink:href="#DejaVuSans-30"/>
       <use xlink:href="#DejaVuSans-2e" transform="translate(63.623047 0)"/>
       <use xlink:href="#DejaVuSans-30" transform="translate(95.410156 0)"/>
      </g>
     </g>
    </g>
    <g id="xtick_2">
     <g id="line2d_2">
      <g>
       <use xlink:href="#m89cc387eaf" x="104.122407" y="228.96" style="stroke: #000000; stroke-width: 0.8"/>
      </g>
     </g>
     <g id="text_2">
      <!-- 2.5 -->
      <g transform="translate(96.170844 243.558437) scale(0.1 -0.1)">
       <defs>
        <path id="DejaVuSans-32" d="M 1228 531 
L 3431 531 
L 3431 0 
L 469 0 
L 469 531 
Q 828 903 1448 1529 
Q 2069 2156 2228 2338 
Q 2531 2678 2651 2914 
Q 2772 3150 2772 3378 
Q 2772 3750 2511 3984 
Q 2250 4219 1831 4219 
Q 1534 4219 1204 4116 
Q 875 4013 500 3803 
L 500 4441 
Q 881 4594 1212 4672 
Q 1544 4750 1819 4750 
Q 2544 4750 2975 4387 
Q 3406 4025 3406 3419 
Q 3406 3131 3298 2873 
Q 3191 2616 2906 2266 
Q 2828 2175 2409 1742 
Q 1991 1309 1228 531 
z
" transform="scale(0.015625)"/>
        <path id="DejaVuSans-35" d="M 691 4666 
L 3169 4666 
L 3169 4134 
L 1269 4134 
L 1269 2991 
Q 1406 3038 1543 3061 
Q 1681 3084 1819 3084 
Q 2600 3084 3056 2656 
Q 3513 2228 3513 1497 
Q 3513 744 3044 326 
Q 2575 -91 1722 -91 
Q 1428 -91 1123 -41 
Q 819 9 494 109 
L 494 744 
Q 775 591 1075 516 
Q 1375 441 1709 441 
Q 2250 441 2565 725 
Q 2881 1009 2881 1497 
Q 2881 1984 2565 2268 
Q 2250 2553 1709 2553 
Q 1456 2553 1204 2497 
Q 953 2441 691 2322 
L 691 4666 
z
" transform="scale(0.015625)"/>
       </defs>
       <use xlink:href="#DejaVuSans-32"/>
       <use xlink:href="#DejaVuSans-2e" transform="translate(63.623047 0)"/>
       <use xlink:href="#DejaVuSans-35" transform="translate(95.410156 0)"/>
      </g>
     </g>
    </g>
    <g id="xtick_3">
     <g id="line2d_3">
      <g>
       <use xlink:href="#m89cc387eaf" x="142.767243" y="228.96" style="stroke: #000000; stroke-width: 0.8"/>
      </g>
     </g>
     <g id="text_3">
      <!-- 5.0 -->
      <g transform="translate(134.81568 243.558437) scale(0.1 -0.1)">
       <use xlink:href="#DejaVuSans-35"/>
       <use xlink:href="#DejaVuSans-2e" transform="translate(63.623047 0)"/>
       <use xlink:href="#DejaVuSans-30" transform="translate(95.410156 0)"/>
      </g>
     </g>
    </g>
    <g id="xtick_4">
     <g id="line2d_4">
      <g>
       <use xlink:href="#m89cc387eaf" x="181.412079" y="228.96" style="stroke: #000000; stroke-width: 0.8"/>
      </g>
     </g>
     <g id="text_4">
      <!-- 7.5 -->
      <g transform="translate(173.460516 243.558437) scale(0.1 -0.1)">
       <defs>
        <path id="DejaVuSans-37" d="M 525 4666 
L 3525 4666 
L 3525 4397 
L 1831 0 
L 1172 0 
L 2766 4134 
L 525 4134 
L 525 4666 
z
" transform="scale(0.015625)"/>
       </defs>
       <use xlink:href="#DejaVuSans-37"/>
       <use xlink:href="#DejaVuSans-2e" transform="translate(63.623047 0)"/>
       <use xlink:href="#DejaVuSans-35" transform="translate(95.410156 0)"/>
      </g>
     </g>
    </g>
    <g id="xtick_5">
     <g id="line2d_5">
      <g>
       <use xlink:href="#m89cc387eaf" x="220.056915" y="228.96" style="stroke: #000000; stroke-width: 0.8"/>
      </g>
     </g>
     <g id="text_5">
      <!-- 10.0 -->
      <g transform="translate(208.924102 243.558437) scale(0.1 -0.1)">
       <defs>
        <path id="DejaVuSans-31" d="M 794 531 
L 1825 531 
L 1825 4091 
L 703 3866 
L 703 4441 
L 1819 4666 
L 2450 4666 
L 2450 531 
L 3481 531 
L 3481 0 
L 794 0 
L 794 531 
z
" transform="scale(0.015625)"/>
       </defs>
       <use xlink:href="#DejaVuSans-31"/>
       <use xlink:href="#DejaVuSans-30" transform="translate(63.623047 0)"/>
       <use xlink:href="#DejaVuSans-2e" transform="translate(127.246094 0)"/>
       <use xlink:href="#DejaVuSans-30" transform="translate(159.033203 0)"/>
      </g>
     </g>
    </g>
    <g id="xtick_6">
     <g id="line2d_6">
      <g>
       <use xlink:href="#m89cc387eaf" x="258.701751" y="228.96" style="stroke: #000000; stroke-width: 0.8"/>
      </g>
     </g>
     <g id="text_6">
      <!-- 12.5 -->
      <g transform="translate(247.568938 243.558437) scale(0.1 -0.1)">
       <use xlink:href="#DejaVuSans-31"/>
       <use xlink:href="#DejaVuSans-32" transform="translate(63.623047 0)"/>
       <use xlink:href="#DejaVuSans-2e" transform="translate(127.246094 0)"/>
       <use xlink:href="#DejaVuSans-35" transform="translate(159.033203 0)"/>
      </g>
     </g>
    </g>
    <g id="xtick_7">
     <g id="line2d_7">
      <g>
       <use xlink:href="#m89cc387eaf" x="297.346586" y="228.96" style="stroke: #000000; stroke-width: 0.8"/>
      </g>
     </g>
     <g id="text_7">
      <!-- 15.0 -->
      <g transform="translate(286.213774 243.558437) scale(0.1 -0.1)">
       <use xlink:href="#DejaVuSans-31"/>
       <use xlink:href="#DejaVuSans-35" transform="translate(63.623047 0)"/>
       <use xlink:href="#DejaVuSans-2e" transform="translate(127.246094 0)"/>
       <use xlink:href="#DejaVuSans-30" transform="translate(159.033203 0)"/>
      </g>
     </g>
    </g>
    <g id="xtick_8">
     <g id="line2d_8">
      <g>
       <use xlink:href="#m89cc387eaf" x="335.991422" y="228.96" style="stroke: #000000; stroke-width: 0.8"/>
      </g>
     </g>
     <g id="text_8">
      <!-- 17.5 -->
      <g transform="translate(324.85861 243.558437) scale(0.1 -0.1)">
       <use xlink:href="#DejaVuSans-31"/>
       <use xlink:href="#DejaVuSans-37" transform="translate(63.623047 0)"/>
       <use xlink:href="#DejaVuSans-2e" transform="translate(127.246094 0)"/>
       <use xlink:href="#DejaVuSans-35" transform="translate(159.033203 0)"/>
      </g>
     </g>
    </g>
    <g id="xtick_9">
     <g id="line2d_9">
      <g>
       <use xlink:href="#m89cc387eaf" x="374.636258" y="228.96" style="stroke: #000000; stroke-width: 0.8"/>
      </g>
     </g>
     <g id="text_9">
      <!-- 20.0 -->
      <g transform="translate(363.503446 243.558437) scale(0.1 -0.1)">
       <use xlink:href="#DejaVuSans-32"/>
       <use xlink:href="#DejaVuSans-30" transform="translate(63.623047 0)"/>
       <use xlink:href="#DejaVuSans-2e" transform="translate(127.246094 0)"/>
       <use xlink:href="#DejaVuSans-30" transform="translate(159.033203 0)"/>
      </g>
     </g>
    </g>
    <g id="text_10">
     <!-- wavelength [Å] -->
     <g transform="translate(182.690625 258.920937) scale(0.1 -0.1)">
      <defs>
       <path id="DejaVuSans-77" d="M 269 3500 
L 844 3500 
L 1563 769 
L 2278 3500 
L 2956 3500 
L 3675 769 
L 4391 3500 
L 4966 3500 
L 4050 0 
L 3372 0 
L 2619 2869 
L 1863 0 
L 1184 0 
L 269 3500 
z
" transform="scale(0.015625)"/>
       <path id="DejaVuSans-61" d="M 2194 1759 
Q 1497 1759 1228 1600 
Q 959 1441 959 1056 
Q 959 750 1161 570 
Q 1363 391 1709 391 
Q 2188 391 2477 730 
Q 2766 1069 2766 1631 
L 2766 1759 
L 2194 1759 
z
M 3341 1997 
L 3341 0 
L 2766 0 
L 2766 531 
Q 2569 213 2275 61 
Q 1981 -91 1556 -91 
Q 1019 -91 701 211 
Q 384 513 384 1019 
Q 384 1609 779 1909 
Q 1175 2209 1959 2209 
L 2766 2209 
L 2766 2266 
Q 2766 2663 2505 2880 
Q 2244 3097 1772 3097 
Q 1472 3097 1187 3025 
Q 903 2953 641 2809 
L 641 3341 
Q 956 3463 1253 3523 
Q 1550 3584 1831 3584 
Q 2591 3584 2966 3190 
Q 3341 2797 3341 1997 
z
" transform="scale(0.015625)"/>
       <path id="DejaVuSans-76" d="M 191 3500 
L 800 3500 
L 1894 563 
L 2988 3500 
L 3597 3500 
L 2284 0 
L 1503 0 
L 191 3500 
z
" transform="scale(0.015625)"/>
       <path id="DejaVuSans-65" d="M 3597 1894 
L 3597 1613 
L 953 1613 
Q 991 1019 1311 708 
Q 1631 397 2203 397 
Q 2534 397 2845 478 
Q 3156 559 3463 722 
L 3463 178 
Q 3153 47 2828 -22 
Q 2503 -91 2169 -91 
Q 1331 -91 842 396 
Q 353 884 353 1716 
Q 353 2575 817 3079 
Q 1281 3584 2069 3584 
Q 2775 3584 3186 3129 
Q 3597 2675 3597 1894 
z
M 3022 2063 
Q 3016 2534 2758 2815 
Q 2500 3097 2075 3097 
Q 1594 3097 1305 2825 
Q 1016 2553 972 2059 
L 3022 2063 
z
" transform="scale(0.015625)"/>
       <path id="DejaVuSans-6c" d="M 603 4863 
L 1178 4863 
L 1178 0 
L 603 0 
L 603 4863 
z
" transform="scale(0.015625)"/>
       <path id="DejaVuSans-6e" d="M 3513 2113 
L 3513 0 
L 2938 0 
L 2938 2094 
Q 2938 2591 2744 2837 
Q 2550 3084 2163 3084 
Q 1697 3084 1428 2787 
Q 1159 2491 1159 1978 
L 1159 0 
L 581 0 
L 581 3500 
L 1159 3500 
L 1159 2956 
Q 1366 3272 1645 3428 
Q 1925 3584 2291 3584 
Q 2894 3584 3203 3211 
Q 3513 2838 3513 2113 
z
" transform="scale(0.015625)"/>
       <path id="DejaVuSans-67" d="M 2906 1791 
Q 2906 2416 2648 2759 
Q 2391 3103 1925 3103 
Q 1463 3103 1205 2759 
Q 947 2416 947 1791 
Q 947 1169 1205 825 
Q 1463 481 1925 481 
Q 2391 481 2648 825 
Q 2906 1169 2906 1791 
z
M 3481 434 
Q 3481 -459 3084 -895 
Q 2688 -1331 1869 -1331 
Q 1566 -1331 1297 -1286 
Q 1028 -1241 775 -1147 
L 775 -588 
Q 1028 -725 1275 -790 
Q 1522 -856 1778 -856 
Q 2344 -856 2625 -561 
Q 2906 -266 2906 331 
L 2906 616 
Q 2728 306 2450 153 
Q 2172 0 1784 0 
Q 1141 0 747 490 
Q 353 981 353 1791 
Q 353 2603 747 3093 
Q 1141 3584 1784 3584 
Q 2172 3584 2450 3431 
Q 2728 3278 2906 2969 
L 2906 3500 
L 3481 3500 
L 3481 434 
z
" transform="scale(0.015625)"/>
       <path id="DejaVuSans-74" d="M 1172 4494 
L 1172 3500 
L 2356 3500 
L 2356 3053 
L 1172 3053 
L 1172 1153 
Q 1172 725 1289 603 
Q 1406 481 1766 481 
L 2356 481 
L 2356 0 
L 1766 0 
Q 1100 0 847 248 
Q 594 497 594 1153 
L 594 3053 
L 172 3053 
L 172 3500 
L 594 3500 
L 594 4494 
L 1172 4494 
z
" transform="scale(0.015625)"/>
       <path id="DejaVuSans-68" d="M 3513 2113 
L 3513 0 
L 2938 0 
L 2938 2094 
Q 2938 2591 2744 2837 
Q 2550 3084 2163 3084 
Q 1697 3084 1428 2787 
Q 1159 2491 1159 1978 
L 1159 0 
L 581 0 
L 581 4863 
L 1159 4863 
L 1159 2956 
Q 1366 3272 1645 3428 
Q 1925 3584 2291 3584 
Q 2894 3584 3203 3211 
Q 3513 2838 3513 2113 
z
" transform="scale(0.015625)"/>
       <path id="DejaVuSans-20" transform="scale(0.015625)"/>
       <path id="DejaVuSans-5b" d="M 550 4863 
L 1875 4863 
L 1875 4416 
L 1125 4416 
L 1125 -397 
L 1875 -397 
L 1875 -844 
L 550 -844 
L 550 4863 
z
" transform="scale(0.015625)"/>
       <path id="DejaVuSans-c5" d="M 2663 5081 
Q 2663 5278 2523 5417 
Q 2384 5556 2188 5556 
Q 1988 5556 1852 5420 
Q 1716 5284 1716 5081 
Q 1716 4884 1853 4746 
Q 1991 4609 2188 4609 
Q 2384 4609 2523 4746 
Q 2663 4884 2663 5081 
z
M 2188 4044 
L 1338 1722 
L 3041 1722 
L 2188 4044 
z
M 1716 4366 
Q 1525 4494 1428 4673 
Q 1331 4853 1331 5081 
Q 1331 5441 1579 5691 
Q 1828 5941 2188 5941 
Q 2544 5941 2795 5689 
Q 3047 5438 3047 5081 
Q 3047 4863 2948 4678 
Q 2850 4494 2663 4366 
L 4325 0 
L 3669 0 
L 3244 1197 
L 1141 1197 
L 716 0 
L 50 0 
L 1716 4366 
z
" transform="scale(0.015625)"/>
       <path id="DejaVuSans-5d" d="M 1947 4863 
L 1947 -844 
L 622 -844 
L 622 -397 
L 1369 -397 
L 1369 4416 
L 622 4416 
L 622 4863 
L 1947 4863 
z
" transform="scale(0.015625)"/>
      </defs>
      <use xlink:href="#DejaVuSans-77"/>
      <use xlink:href="#DejaVuSans-61" transform="translate(81.787109 0)"/>
      <use xlink:href="#DejaVuSans-76" transform="translate(143.066406 0)"/>
      <use xlink:href="#DejaVuSans-65" transform="translate(202.246094 0)"/>
      <use xlink:href="#DejaVuSans-6c" transform="translate(263.769531 0)"/>
      <use xlink:href="#DejaVuSans-65" transform="translate(291.552734 0)"/>
      <use xlink:href="#DejaVuSans-6e" transform="translate(353.076172 0)"/>
      <use xlink:href="#DejaVuSans-67" transform="translate(416.455078 0)"/>
      <use xlink:href="#DejaVuSans-74" transform="translate(479.931641 0)"/>
      <use xlink:href="#DejaVuSans-68" transform="translate(519.140625 0)"/>
      <use xlink:href="#DejaVuSans-20" transform="translate(582.519531 0)"/>
      <use xlink:href="#DejaVuSans-5b" transform="translate(614.306641 0)"/>
      <use xlink:href="#DejaVuSans-c5" transform="translate(653.320312 0)"/>
      <use xlink:href="#DejaVuSans-5d" transform="translate(721.728516 0)"/>
     </g>
    </g>
   </g>
   <g id="matplotlib.axis_2">
    <g id="ytick_1">
     <g id="line2d_10">
      <defs>
       <path id="m10e4555de4" d="M 0 0 
L -3.5 0 
" style="stroke: #000000; stroke-width: 0.8"/>
      </defs>
      <g>
       <use xlink:href="#m10e4555de4" x="53.328125" y="218.88" style="stroke: #000000; stroke-width: 0.8"/>
      </g>
     </g>
     <g id="text_11">
      <!-- 0 -->
      <g transform="translate(39.965625 222.679219) scale(0.1 -0.1)">
       <use xlink:href="#DejaVuSans-30"/>
      </g>
     </g>
    </g>
    <g id="ytick_2">
     <g id="line2d_11">
      <g>
       <use xlink:href="#m10e4555de4" x="53.328125" y="180.436064" style="stroke: #000000; stroke-width: 0.8"/>
      </g>
     </g>
     <g id="text_12">
      <!-- 500 -->
      <g transform="translate(27.240625 184.235283) scale(0.1 -0.1)">
       <use xlink:href="#DejaVuSans-35"/>
       <use xlink:href="#DejaVuSans-30" transform="translate(63.623047 0)"/>
       <use xlink:href="#DejaVuSans-30" transform="translate(127.246094 0)"/>
      </g>
     </g>
    </g>
    <g id="ytick_3">
     <g id="line2d_12">
      <g>
       <use xlink:href="#m10e4555de4" x="53.328125" y="141.992128" style="stroke: #000000; stroke-width: 0.8"/>
      </g>
     </g>
     <g id="text_13">
      <!-- 1000 -->
      <g transform="translate(20.878125 145.791347) scale(0.1 -0.1)">
       <use xlink:href="#DejaVuSans-31"/>
       <use xlink:href="#DejaVuSans-30" transform="translate(63.623047 0)"/>
       <use xlink:href="#DejaVuSans-30" transform="translate(127.246094 0)"/>
       <use xlink:href="#DejaVuSans-30" transform="translate(190.869141 0)"/>
      </g>
     </g>
    </g>
    <g id="ytick_4">
     <g id="line2d_13">
      <g>
       <use xlink:href="#m10e4555de4" x="53.328125" y="103.548192" style="stroke: #000000; stroke-width: 0.8"/>
      </g>
     </g>
     <g id="text_14">
      <!-- 1500 -->
      <g transform="translate(20.878125 107.347411) scale(0.1 -0.1)">
       <use xlink:href="#DejaVuSans-31"/>
       <use xlink:href="#DejaVuSans-35" transform="translate(63.623047 0)"/>
       <use xlink:href="#DejaVuSans-30" transform="translate(127.246094 0)"/>
       <use xlink:href="#DejaVuSans-30" transform="translate(190.869141 0)"/>
      </g>
     </g>
    </g>
    <g id="ytick_5">
     <g id="line2d_14">
      <g>
       <use xlink:href="#m10e4555de4" x="53.328125" y="65.104256" style="stroke: #000000; stroke-width: 0.8"/>
      </g>
     </g>
     <g id="text_15">
      <!-- 2000 -->
      <g transform="translate(20.878125 68.903475) scale(0.1 -0.1)">
       <use xlink:href="#DejaVuSans-32"/>
       <use xlink:href="#DejaVuSans-30" transform="translate(63.623047 0)"/>
       <use xlink:href="#DejaVuSans-30" transform="translate(127.246094 0)"/>
       <use xlink:href="#DejaVuSans-30" transform="translate(190.869141 0)"/>
      </g>
     </g>
    </g>
    <g id="ytick_6">
     <g id="line2d_15">
      <g>
       <use xlink:href="#m10e4555de4" x="53.328125" y="26.66032" style="stroke: #000000; stroke-width: 0.8"/>
      </g>
     </g>
     <g id="text_16">
      <!-- 2500 -->
      <g transform="translate(20.878125 30.459539) scale(0.1 -0.1)">
       <use xlink:href="#DejaVuSans-32"/>
       <use xlink:href="#DejaVuSans-35" transform="translate(63.623047 0)"/>
       <use xlink:href="#DejaVuSans-30" transform="translate(127.246094 0)"/>
       <use xlink:href="#DejaVuSans-30" transform="translate(190.869141 0)"/>
      </g>
     </g>
    </g>
    <g id="text_17">
     <!-- [counts] -->
     <g transform="translate(14.798438 138.6925) rotate(-90) scale(0.1 -0.1)">
      <defs>
       <path id="DejaVuSans-63" d="M 3122 3366 
L 3122 2828 
Q 2878 2963 2633 3030 
Q 2388 3097 2138 3097 
Q 1578 3097 1268 2742 
Q 959 2388 959 1747 
Q 959 1106 1268 751 
Q 1578 397 2138 397 
Q 2388 397 2633 464 
Q 2878 531 3122 666 
L 3122 134 
Q 2881 22 2623 -34 
Q 2366 -91 2075 -91 
Q 1284 -91 818 406 
Q 353 903 353 1747 
Q 353 2603 823 3093 
Q 1294 3584 2113 3584 
Q 2378 3584 2631 3529 
Q 2884 3475 3122 3366 
z
" transform="scale(0.015625)"/>
       <path id="DejaVuSans-6f" d="M 1959 3097 
Q 1497 3097 1228 2736 
Q 959 2375 959 1747 
Q 959 1119 1226 758 
Q 1494 397 1959 397 
Q 2419 397 2687 759 
Q 2956 1122 2956 1747 
Q 2956 2369 2687 2733 
Q 2419 3097 1959 3097 
z
M 1959 3584 
Q 2709 3584 3137 3096 
Q 3566 2609 3566 1747 
Q 3566 888 3137 398 
Q 2709 -91 1959 -91 
Q 1206 -91 779 398 
Q 353 888 353 1747 
Q 353 2609 779 3096 
Q 1206 3584 1959 3584 
z
" transform="scale(0.015625)"/>
       <path id="DejaVuSans-75" d="M 544 1381 
L 544 3500 
L 1119 3500 
L 1119 1403 
Q 1119 906 1312 657 
Q 1506 409 1894 409 
Q 2359 409 2629 706 
Q 2900 1003 2900 1516 
L 2900 3500 
L 3475 3500 
L 3475 0 
L 2900 0 
L 2900 538 
Q 2691 219 2414 64 
Q 2138 -91 1772 -91 
Q 1169 -91 856 284 
Q 544 659 544 1381 
z
M 1991 3584 
L 1991 3584 
z
" transform="scale(0.015625)"/>
       <path id="DejaVuSans-73" d="M 2834 3397 
L 2834 2853 
Q 2591 2978 2328 3040 
Q 2066 3103 1784 3103 
Q 1356 3103 1142 2972 
Q 928 2841 928 2578 
Q 928 2378 1081 2264 
Q 1234 2150 1697 2047 
L 1894 2003 
Q 2506 1872 2764 1633 
Q 3022 1394 3022 966 
Q 3022 478 2636 193 
Q 2250 -91 1575 -91 
Q 1294 -91 989 -36 
Q 684 19 347 128 
L 347 722 
Q 666 556 975 473 
Q 1284 391 1588 391 
Q 1994 391 2212 530 
Q 2431 669 2431 922 
Q 2431 1156 2273 1281 
Q 2116 1406 1581 1522 
L 1381 1569 
Q 847 1681 609 1914 
Q 372 2147 372 2553 
Q 372 3047 722 3315 
Q 1072 3584 1716 3584 
Q 2034 3584 2315 3537 
Q 2597 3491 2834 3397 
z
" transform="scale(0.015625)"/>
      </defs>
      <use xlink:href="#DejaVuSans-5b"/>
      <use xlink:href="#DejaVuSans-63" transform="translate(39.013672 0)"/>
      <use xlink:href="#DejaVuSans-6f" transform="translate(93.994141 0)"/>
      <use xlink:href="#DejaVuSans-75" transform="translate(155.175781 0)"/>
      <use xlink:href="#DejaVuSans-6e" transform="translate(218.554688 0)"/>
      <use xlink:href="#DejaVuSans-74" transform="translate(281.933594 0)"/>
      <use xlink:href="#DejaVuSans-73" transform="translate(321.142578 0)"/>
      <use xlink:href="#DejaVuSans-5d" transform="translate(373.242188 0)"/>
     </g>
    </g>
   </g>
   <g id="line2d_16">
    <path d="M 68.546307 46.036064 
L 69.155034 46.036064 
L 69.155034 42.960549 
L 69.763761 42.960549 
L 69.763761 35.886865 
L 70.372489 35.886865 
L 70.372489 27.198535 
L 70.981216 27.198535 
L 70.981216 17.28 
L 71.589943 17.28 
L 71.589943 26.122105 
L 72.19867 26.122105 
L 72.19867 36.809519 
L 72.807398 36.809519 
L 72.807398 51.495103 
L 73.416125 51.495103 
L 73.416125 57.876796 
L 74.024852 57.876796 
L 74.024852 76.099222 
L 74.63358 76.099222 
L 74.63358 73.254371 
L 75.242307 73.254371 
L 75.242307 56.723478 
L 75.851034 56.723478 
L 75.851034 44.575195 
L 76.459761 44.575195 
L 76.459761 33.88778 
L 77.068489 33.88778 
L 77.068489 26.583432 
L 77.677216 26.583432 
L 77.677216 31.581144 
L 78.285943 31.581144 
L 78.285943 24.661236 
L 78.89467 24.661236 
L 78.89467 26.429657 
L 79.503398 26.429657 
L 79.503398 28.198078 
L 80.112125 28.198078 
L 80.112125 32.503799 
L 80.720852 32.503799 
L 80.720852 45.882288 
L 81.32958 45.882288 
L 81.32958 72.793043 
L 81.938307 72.793043 
L 81.938307 89.400824 
L 82.547034 89.400824 
L 82.547034 106.316156 
L 83.155761 106.316156 
L 83.155761 122.231945 
L 83.764489 122.231945 
L 83.764489 142.761007 
L 84.373216 142.761007 
L 84.373216 161.829199 
L 84.981943 161.829199 
L 84.981943 173.977483 
L 85.59067 173.977483 
L 85.59067 186.048879 
L 86.199398 186.048879 
L 86.199398 195.967414 
L 86.808125 195.967414 
L 86.808125 203.733089 
L 87.416852 203.733089 
L 87.416852 205.040183 
L 88.02558 205.040183 
L 88.02558 203.502426 
L 88.634307 203.502426 
L 88.634307 199.811808 
L 89.243034 199.811808 
L 89.243034 195.582975 
L 89.851761 195.582975 
L 89.851761 194.352769 
L 90.460489 194.352769 
L 90.460489 186.125767 
L 91.069216 186.125767 
L 91.069216 181.204943 
L 91.677943 181.204943 
L 91.677943 174.054371 
L 92.28667 174.054371 
L 92.28667 162.367414 
L 92.895398 162.367414 
L 92.895398 154.063524 
L 93.504125 154.063524 
L 93.504125 145.221419 
L 94.112852 145.221419 
L 94.112852 137.071304 
L 94.72158 137.071304 
L 94.72158 126.691442 
L 95.330307 126.691442 
L 95.330307 121.616842 
L 95.939034 121.616842 
L 95.939034 114.927597 
L 96.547761 114.927597 
L 96.547761 115.158261 
L 97.156489 115.158261 
L 97.156489 119.15643 
L 97.765216 119.15643 
L 97.765216 113.38984 
L 98.373943 113.38984 
L 98.373943 113.774279 
L 98.98267 113.774279 
L 98.98267 108.622792 
L 99.591398 108.622792 
L 99.591398 98.473593 
L 100.200125 98.473593 
L 100.200125 102.702426 
L 100.808852 102.702426 
L 100.808852 98.242929 
L 101.41758 98.242929 
L 101.41758 88.401281 
L 102.026307 88.401281 
L 102.026307 89.785263 
L 102.635034 89.785263 
L 102.635034 82.32714 
L 103.243761 82.32714 
L 103.243761 79.712952 
L 103.852489 79.712952 
L 103.852489 78.098307 
L 104.461216 78.098307 
L 104.461216 74.253913 
L 105.069943 74.253913 
L 105.069943 75.637895 
L 105.67867 75.637895 
L 105.67867 71.332174 
L 106.287398 71.332174 
L 106.287398 79.251625 
L 106.896125 79.251625 
L 106.896125 82.096476 
L 108.11358 82.096476 
L 108.11358 88.247506 
L 108.722307 88.247506 
L 108.722307 86.325309 
L 109.331034 86.325309 
L 109.331034 84.48 
L 109.939761 84.48 
L 109.939761 80.404943 
L 110.548489 80.404943 
L 110.548489 79.4054 
L 111.157216 79.4054 
L 111.157216 79.020961 
L 111.765943 79.020961 
L 111.765943 80.328055 
L 112.37467 80.328055 
L 112.37467 71.947277 
L 112.983398 71.947277 
L 112.983398 71.716613 
L 113.592125 71.716613 
L 113.592125 66.565126 
L 114.200852 66.565126 
L 114.200852 63.258947 
L 114.80958 63.258947 
L 114.80958 58.953227 
L 115.418307 58.953227 
L 115.418307 57.723021 
L 116.027034 57.723021 
L 116.027034 54.49373 
L 116.635761 54.49373 
L 116.635761 59.722105 
L 117.244489 59.722105 
L 117.244489 66.949565 
L 117.853216 66.949565 
L 117.853216 78.098307 
L 118.461943 78.098307 
L 118.461943 76.868101 
L 119.07067 76.868101 
L 119.07067 92.091899 
L 119.679398 92.091899 
L 119.679398 104.547735 
L 120.288125 104.547735 
L 120.288125 114.235606 
L 120.896852 114.235606 
L 120.896852 120.23286 
L 121.50558 120.23286 
L 121.50558 124.154142 
L 122.114307 124.154142 
L 122.114307 134.226453 
L 122.723034 134.226453 
L 122.723034 135.687323 
L 123.331761 135.687323 
L 123.331761 140.454371 
L 123.940489 140.454371 
L 123.940489 138.147735 
L 124.549216 138.147735 
L 124.549216 142.914783 
L 125.157943 142.914783 
L 125.157943 143.145446 
L 125.76667 143.145446 
L 125.76667 140.454371 
L 126.375398 140.454371 
L 126.375398 149.065812 
L 126.984125 149.065812 
L 126.984125 144.760092 
L 127.592852 144.760092 
L 127.592852 150.757346 
L 128.20158 150.757346 
L 128.20158 153.217757 
L 128.810307 153.217757 
L 128.810307 152.679542 
L 129.419034 152.679542 
L 129.419034 154.063524 
L 130.027761 154.063524 
L 130.027761 150.296018 
L 130.636489 150.296018 
L 130.636489 151.218673 
L 131.245216 151.218673 
L 131.245216 151.526224 
L 131.853943 151.526224 
L 131.853943 149.219588 
L 132.46267 149.219588 
L 132.46267 141.838352 
L 133.071398 141.838352 
L 133.071398 143.760549 
L 133.680125 143.760549 
L 133.680125 140.761922 
L 134.288852 140.761922 
L 134.288852 136.840641 
L 134.89758 136.840641 
L 134.89758 137.301968 
L 135.506307 137.301968 
L 135.506307 138.070847 
L 136.115034 138.070847 
L 136.115034 131.45849 
L 136.723761 131.45849 
L 136.723761 134.764668 
L 137.332489 134.764668 
L 137.332489 133.842014 
L 137.941216 133.842014 
L 137.941216 142.069016 
L 138.549943 142.069016 
L 138.549943 145.067643 
L 139.15867 145.067643 
L 139.15867 144.836979 
L 139.767398 144.836979 
L 139.767398 149.757803 
L 140.376125 149.757803 
L 140.376125 154.371076 
L 140.984852 154.371076 
L 140.984852 159.215011 
L 141.59358 159.215011 
L 141.59358 164.67405 
L 142.202307 164.67405 
L 142.202307 169.902426 
L 142.811034 169.902426 
L 142.811034 173.900595 
L 143.419761 173.900595 
L 143.419761 175.89968 
L 144.028489 175.89968 
L 144.028489 177.668101 
L 144.637216 177.668101 
L 144.637216 181.204943 
L 145.245943 181.204943 
L 145.245943 182.665812 
L 145.85467 182.665812 
L 145.85467 180.436064 
L 146.463398 180.436064 
L 146.463398 183.050252 
L 147.072125 183.050252 
L 147.072125 182.435149 
L 147.680852 182.435149 
L 147.680852 178.821419 
L 148.28958 178.821419 
L 148.28958 179.436522 
L 148.898307 179.436522 
L 148.898307 180.2054 
L 149.507034 180.2054 
L 149.507034 182.281373 
L 150.115761 182.281373 
L 150.115761 179.51341 
L 150.724489 179.51341 
L 150.724489 176.899222 
L 151.333216 176.899222 
L 151.333216 180.974279 
L 151.941943 180.974279 
L 151.941943 172.901053 
L 152.55067 172.901053 
L 152.55067 178.283204 
L 153.159398 178.283204 
L 153.159398 175.438352 
L 153.768125 175.438352 
L 153.768125 171.440183 
L 154.376852 171.440183 
L 154.376852 173.516156 
L 154.98558 173.516156 
L 154.98558 172.824165 
L 155.594307 172.824165 
L 155.594307 174.131259 
L 156.203034 174.131259 
L 156.203034 172.977941 
L 156.811761 172.977941 
L 156.811761 175.89968 
L 157.420489 175.89968 
L 157.420489 177.898764 
L 158.029216 177.898764 
L 158.029216 179.359634 
L 158.637943 179.359634 
L 158.637943 178.590755 
L 159.24667 178.590755 
L 159.24667 179.974737 
L 159.855398 179.974737 
L 159.855398 180.512952 
L 160.464125 180.512952 
L 160.464125 186.433318 
L 161.072852 186.433318 
L 161.072852 186.587094 
L 161.68158 186.587094 
L 161.68158 189.201281 
L 162.290307 189.201281 
L 162.290307 190.815927 
L 162.899034 190.815927 
L 162.899034 193.045675 
L 164.116489 193.045675 
L 164.116489 195.352311 
L 164.725216 195.352311 
L 164.725216 195.813638 
L 165.333943 195.813638 
L 165.333943 197.274508 
L 165.94267 197.274508 
L 165.94267 198.966041 
L 166.551398 198.966041 
L 166.551398 194.429657 
L 167.160125 194.429657 
L 167.160125 194.66032 
L 167.768852 194.66032 
L 167.768852 194.890984 
L 168.37758 194.890984 
L 168.37758 194.583432 
L 168.986307 194.583432 
L 168.986307 192.815011 
L 169.595034 192.815011 
L 169.595034 194.352769 
L 170.203761 194.352769 
L 170.203761 192.50746 
L 171.421216 192.430572 
L 171.421216 193.814554 
L 172.029943 193.814554 
L 172.029943 192.430572 
L 172.63867 192.430572 
L 172.63867 193.430114 
L 173.247398 193.430114 
L 173.247398 191.815469 
L 173.856125 191.815469 
L 173.856125 193.507002 
L 174.464852 193.507002 
L 174.464852 191.661693 
L 175.07358 191.661693 
L 175.07358 194.429657 
L 175.682307 194.429657 
L 175.682307 193.737666 
L 176.291034 193.737666 
L 176.291034 195.506087 
L 176.899761 195.506087 
L 176.899761 195.890526 
L 177.508489 195.890526 
L 177.508489 195.736751 
L 178.117216 195.736751 
L 178.117216 195.890526 
L 178.725943 195.890526 
L 178.725943 197.274508 
L 179.33467 197.274508 
L 179.33467 199.504256 
L 179.943398 199.504256 
L 179.943398 201.426453 
L 180.552125 201.426453 
L 180.552125 199.811808 
L 181.160852 199.811808 
L 181.160852 202.349108 
L 181.76958 202.349108 
L 181.76958 202.041556 
L 182.378307 202.041556 
L 182.378307 201.195789 
L 182.987034 201.195789 
L 182.987034 203.041098 
L 183.595761 203.041098 
L 183.595761 202.502883 
L 184.204489 202.502883 
L 184.204489 202.349108 
L 184.813216 202.349108 
L 184.813216 201.580229 
L 186.03067 201.503341 
L 186.03067 201.964668 
L 186.639398 201.964668 
L 186.639398 202.118444 
L 187.248125 202.118444 
L 187.248125 201.118902 
L 187.856852 201.118902 
L 187.856852 200.119359 
L 188.46558 200.119359 
L 188.46558 201.426453 
L 189.074307 201.426453 
L 189.074307 200.426911 
L 189.683034 200.426911 
L 189.683034 199.965584 
L 190.291761 199.965584 
L 190.291761 200.426911 
L 190.900489 200.426911 
L 190.900489 202.27222 
L 191.509216 202.27222 
L 191.509216 204.040641 
L 192.117943 204.040641 
L 192.117943 201.88778 
L 192.72667 201.88778 
L 192.72667 201.118902 
L 193.335398 201.118902 
L 193.335398 202.656659 
L 193.944125 202.656659 
L 193.944125 203.809977 
L 194.552852 203.809977 
L 194.552852 203.425538 
L 195.16158 203.425538 
L 195.16158 206.347277 
L 195.770307 206.347277 
L 195.770307 207.193043 
L 196.379034 207.193043 
L 196.379034 206.116613 
L 196.987761 206.116613 
L 196.987761 205.655286 
L 197.596489 205.655286 
L 197.596489 207.654371 
L 198.205216 207.654371 
L 198.205216 209.884119 
L 198.813943 209.884119 
L 198.813943 208.03881 
L 199.42267 208.03881 
L 199.42267 209.038352 
L 200.031398 209.038352 
L 200.031398 211.037437 
L 200.640125 211.037437 
L 200.640125 211.960092 
L 201.248852 211.960092 
L 201.248852 211.65254 
L 201.85758 211.65254 
L 201.85758 213.267185 
L 202.466307 213.267185 
L 202.466307 212.036979 
L 203.075034 212.036979 
L 203.075034 210.422334 
L 203.683761 210.422334 
L 203.683761 212.575195 
L 204.292489 212.575195 
L 204.292489 211.114325 
L 204.901216 211.114325 
L 204.901216 211.344989 
L 205.509943 211.344989 
L 205.509943 212.421419 
L 206.11867 212.421419 
L 206.11867 213.11341 
L 206.727398 213.11341 
L 206.727398 213.574737 
L 207.336125 213.574737 
L 207.336125 212.267643 
L 207.944852 212.267643 
L 207.944852 212.575195 
L 208.55358 212.575195 
L 208.55358 213.036522 
L 209.162307 213.036522 
L 209.162307 214.266728 
L 209.771034 214.266728 
L 209.771034 215.112494 
L 210.379761 215.112494 
L 210.379761 214.958719 
L 210.988489 214.958719 
L 210.988489 215.189382 
L 211.597216 215.189382 
L 211.597216 216.112037 
L 212.205943 216.112037 
L 212.205943 216.804027 
L 212.81467 216.804027 
L 212.81467 216.035149 
L 214.032125 215.958261 
L 214.032125 216.957803 
L 214.640852 216.957803 
L 214.640852 217.496018 
L 215.858307 217.41913 
L 215.858307 218.034233 
L 217.075761 218.034233 
L 217.075761 218.341785 
L 218.293216 218.341785 
L 218.293216 218.495561 
L 220.119398 218.495561 
L 220.119398 218.803112 
L 220.728125 218.803112 
L 220.728125 218.649336 
L 221.94558 218.726224 
L 221.94558 218.341785 
L 222.554307 218.341785 
L 222.554307 218.572449 
L 223.771761 218.495561 
L 223.771761 218.418673 
L 224.380489 218.418673 
L 224.380489 217.726682 
L 224.989216 217.726682 
L 224.989216 217.880458 
L 225.597943 217.880458 
L 225.597943 217.649794 
L 226.20667 217.649794 
L 226.20667 217.80357 
L 227.424125 217.726682 
L 227.424125 217.342243 
L 228.032852 217.342243 
L 228.032852 217.726682 
L 228.64158 217.726682 
L 228.64158 217.342243 
L 229.859034 217.265355 
L 229.859034 217.649794 
L 230.467761 217.649794 
L 230.467761 217.41913 
L 231.076489 217.41913 
L 231.076489 217.265355 
L 231.685216 217.265355 
L 231.685216 217.496018 
L 232.293943 217.496018 
L 232.293943 218.111121 
L 232.90267 218.111121 
L 232.90267 217.80357 
L 233.511398 217.80357 
L 233.511398 217.649794 
L 234.120125 217.649794 
L 234.120125 218.034233 
L 234.728852 218.034233 
L 234.728852 217.41913 
L 235.33758 217.41913 
L 235.33758 217.265355 
L 235.946307 217.265355 
L 235.946307 217.80357 
L 236.555034 217.80357 
L 236.555034 217.572906 
L 237.163761 217.572906 
L 237.163761 218.111121 
L 237.772489 218.111121 
L 237.772489 217.957346 
L 238.381216 217.957346 
L 238.381216 217.265355 
L 238.989943 217.265355 
L 238.989943 217.41913 
L 239.59867 217.41913 
L 239.59867 218.418673 
L 240.207398 218.418673 
L 240.207398 217.496018 
L 241.424852 217.572906 
L 241.424852 218.111121 
L 242.03358 218.111121 
L 242.03358 217.649794 
L 242.642307 217.649794 
L 242.642307 217.496018 
L 243.251034 217.496018 
L 243.251034 217.957346 
L 243.859761 217.957346 
L 243.859761 217.80357 
L 244.468489 217.80357 
L 244.468489 217.188467 
L 245.077216 217.188467 
L 245.077216 217.41913 
L 245.685943 217.41913 
L 245.685943 217.265355 
L 246.29467 217.265355 
L 246.29467 218.111121 
L 246.903398 218.111121 
L 246.903398 217.342243 
L 247.512125 217.342243 
L 247.512125 216.804027 
L 248.120852 216.804027 
L 248.120852 217.342243 
L 248.72958 217.342243 
L 248.72958 217.80357 
L 249.338307 217.80357 
L 249.338307 216.957803 
L 249.947034 216.957803 
L 249.947034 217.188467 
L 250.555761 217.188467 
L 250.555761 217.649794 
L 251.164489 217.649794 
L 251.164489 217.496018 
L 251.773216 217.496018 
L 251.773216 217.880458 
L 252.381943 217.880458 
L 252.381943 217.496018 
L 252.99067 217.496018 
L 252.99067 218.264897 
L 253.599398 218.264897 
L 253.599398 217.957346 
L 254.208125 217.957346 
L 254.208125 218.418673 
L 254.816852 218.418673 
L 254.816852 218.034233 
L 255.42558 218.034233 
L 255.42558 217.880458 
L 256.034307 217.880458 
L 256.034307 217.649794 
L 257.251761 217.572906 
L 257.251761 217.80357 
L 258.469216 217.880458 
L 258.469216 217.342243 
L 259.077943 217.342243 
L 259.077943 217.880458 
L 260.904125 217.957346 
L 260.904125 218.188009 
L 261.512852 218.188009 
L 261.512852 217.957346 
L 262.12158 217.957346 
L 262.12158 218.188009 
L 262.730307 218.188009 
L 262.730307 217.572906 
L 263.339034 217.572906 
L 263.339034 217.80357 
L 263.947761 217.80357 
L 263.947761 217.572906 
L 264.556489 217.572906 
L 264.556489 217.726682 
L 265.165216 217.726682 
L 265.165216 218.034233 
L 265.773943 218.034233 
L 265.773943 217.265355 
L 266.38267 217.265355 
L 266.38267 217.80357 
L 266.991398 217.80357 
L 266.991398 217.034691 
L 267.600125 217.034691 
L 267.600125 217.880458 
L 268.208852 217.880458 
L 268.208852 216.72714 
L 268.81758 216.72714 
L 268.81758 217.880458 
L 270.035034 217.80357 
L 270.035034 217.572906 
L 270.643761 217.572906 
L 270.643761 217.726682 
L 271.252489 217.726682 
L 271.252489 217.188467 
L 271.861216 217.188467 
L 271.861216 218.188009 
L 273.07867 218.111121 
L 273.07867 216.804027 
L 273.687398 216.804027 
L 273.687398 217.957346 
L 274.296125 217.957346 
L 274.296125 217.265355 
L 274.904852 217.265355 
L 274.904852 217.649794 
L 275.51358 217.649794 
L 275.51358 218.111121 
L 279.77467 218.034233 
L 279.77467 218.341785 
L 280.383398 218.341785 
L 280.383398 218.572449 
L 281.600852 218.572449 
L 281.600852 218.111121 
L 282.20958 218.111121 
L 282.20958 217.41913 
L 282.818307 217.41913 
L 282.818307 218.495561 
L 283.427034 218.495561 
L 283.427034 218.034233 
L 284.035761 218.034233 
L 284.035761 217.649794 
L 284.644489 217.649794 
L 284.644489 217.957346 
L 286.47067 217.957346 
L 286.47067 217.80357 
L 287.079398 217.80357 
L 287.079398 217.188467 
L 287.688125 217.188467 
L 287.688125 217.880458 
L 288.296852 217.880458 
L 288.296852 216.957803 
L 288.90558 216.957803 
L 288.90558 217.572906 
L 289.514307 217.572906 
L 289.514307 216.880915 
L 290.123034 216.880915 
L 290.123034 217.880458 
L 290.731761 217.880458 
L 290.731761 217.649794 
L 291.340489 217.649794 
L 291.340489 217.880458 
L 292.557943 217.957346 
L 292.557943 218.264897 
L 293.16667 218.264897 
L 293.16667 217.957346 
L 294.384125 217.880458 
L 294.384125 217.649794 
L 294.992852 217.649794 
L 294.992852 218.649336 
L 295.60158 218.649336 
L 295.60158 218.034233 
L 296.210307 218.034233 
L 296.210307 218.188009 
L 296.819034 218.188009 
L 296.819034 218.341785 
L 297.427761 218.341785 
L 297.427761 218.111121 
L 298.036489 218.111121 
L 298.036489 218.264897 
L 299.253943 218.341785 
L 299.253943 218.418673 
L 299.86267 218.418673 
L 299.86267 218.111121 
L 300.471398 218.111121 
L 300.471398 217.80357 
L 301.080125 217.80357 
L 301.080125 218.111121 
L 301.688852 218.111121 
L 301.688852 217.957346 
L 302.29758 217.957346 
L 302.29758 218.341785 
L 302.906307 218.341785 
L 302.906307 217.572906 
L 303.515034 217.572906 
L 303.515034 217.880458 
L 305.341216 217.80357 
L 305.341216 218.111121 
L 305.949943 218.111121 
L 305.949943 217.80357 
L 306.55867 217.80357 
L 306.55867 217.496018 
L 307.776125 217.496018 
L 307.776125 217.957346 
L 310.819761 217.880458 
L 310.819761 218.341785 
L 311.428489 218.341785 
L 311.428489 217.957346 
L 312.037216 217.957346 
L 312.037216 218.188009 
L 312.645943 218.188009 
L 312.645943 218.495561 
L 313.25467 218.495561 
L 313.25467 218.341785 
L 313.863398 218.341785 
L 313.863398 218.034233 
L 314.472125 218.034233 
L 314.472125 218.572449 
L 315.080852 218.572449 
L 315.080852 217.80357 
L 315.68958 217.80357 
L 315.68958 218.341785 
L 316.298307 218.341785 
L 316.298307 218.572449 
L 316.907034 218.572449 
L 316.907034 218.341785 
L 318.124489 218.341785 
L 318.124489 217.726682 
L 318.733216 217.726682 
L 318.733216 218.034233 
L 319.95067 218.111121 
L 319.95067 217.880458 
L 320.559398 217.880458 
L 320.559398 218.264897 
L 321.168125 218.264897 
L 321.168125 217.80357 
L 321.776852 217.80357 
L 321.776852 218.188009 
L 322.38558 218.188009 
L 322.38558 218.034233 
L 322.994307 218.034233 
L 322.994307 218.418673 
L 324.211761 218.341785 
L 324.211761 218.111121 
L 325.429216 218.111121 
L 325.429216 218.726224 
L 326.037943 218.726224 
L 326.037943 218.418673 
L 326.64667 218.418673 
L 326.64667 218.034233 
L 327.255398 218.034233 
L 327.255398 218.495561 
L 327.864125 218.495561 
L 327.864125 218.188009 
L 328.472852 218.188009 
L 328.472852 218.418673 
L 329.08158 218.418673 
L 329.08158 218.111121 
L 329.690307 218.111121 
L 329.690307 218.341785 
L 330.907761 218.418673 
L 330.907761 218.034233 
L 331.516489 218.034233 
L 331.516489 218.188009 
L 332.125216 218.188009 
L 332.125216 218.495561 
L 333.34267 218.495561 
L 333.34267 218.034233 
L 333.951398 218.034233 
L 333.951398 218.649336 
L 336.995034 218.649336 
L 336.995034 218.803112 
L 338.212489 218.803112 
L 338.212489 218.495561 
L 342.47358 218.495561 
L 342.47358 218.649336 
L 343.082307 218.649336 
L 343.082307 218.803112 
L 343.691034 218.803112 
L 343.691034 218.649336 
L 344.299761 218.649336 
L 344.299761 218.803112 
L 344.908489 218.803112 
L 344.908489 218.649336 
L 345.517216 218.649336 
L 345.517216 218.803112 
L 346.125943 218.803112 
L 346.125943 218.572449 
L 346.73467 218.572449 
L 346.73467 218.726224 
L 349.16958 218.803112 
L 349.16958 218.88 
L 354.648125 218.88 
L 354.648125 218.726224 
L 355.256852 218.726224 
L 355.256852 218.88 
L 357.083034 218.803112 
L 357.083034 218.726224 
L 357.691761 218.726224 
L 357.691761 218.88 
L 360.735398 218.88 
L 360.735398 218.649336 
L 361.344125 218.649336 
L 361.344125 218.88 
L 362.56158 218.88 
L 362.56158 218.649336 
L 363.779034 218.726224 
L 363.779034 218.88 
L 364.387761 218.88 
L 364.387761 218.726224 
L 364.996489 218.726224 
L 364.996489 218.88 
L 365.605216 218.88 
L 365.605216 218.572449 
L 366.213943 218.572449 
L 366.213943 218.726224 
L 367.431398 218.726224 
L 367.431398 218.88 
L 370.475034 218.88 
L 370.475034 218.726224 
L 371.083761 218.726224 
L 371.083761 218.88 
L 372.909943 218.88 
L 372.909943 218.88 
" clip-path="url(#p4b0f090252)" style="fill: none; stroke: #1f77b4; stroke-width: 1.5; stroke-linecap: square"/>
   </g>
   <g id="patch_3">
    <path d="M 53.328125 228.96 
L 53.328125 7.2 
" style="fill: none; stroke: #000000; stroke-width: 0.8; stroke-linejoin: miter; stroke-linecap: square"/>
   </g>
   <g id="patch_4">
    <path d="M 388.128125 228.96 
L 388.128125 7.2 
" style="fill: none; stroke: #000000; stroke-width: 0.8; stroke-linejoin: miter; stroke-linecap: square"/>
   </g>
   <g id="patch_5">
    <path d="M 53.328125 228.96 
L 388.128125 228.96 
" style="fill: none; stroke: #000000; stroke-width: 0.8; stroke-linejoin: miter; stroke-linecap: square"/>
   </g>
   <g id="patch_6">
    <path d="M 53.328125 7.2 
L 388.128125 7.2 
" style="fill: none; stroke: #000000; stroke-width: 0.8; stroke-linejoin: miter; stroke-linecap: square"/>
   </g>
  </g>
 </g>
 <defs>
  <clipPath id="p4b0f090252">
   <rect x="53.328125" y="7.2" width="334.8" height="221.76"/>
  </clipPath>
 </defs>
</svg>
