<?xml version="1.0" encoding="utf-8" standalone="no"?>
<!DOCTYPE svg PUBLIC "-//W3C//DTD SVG 1.1//EN"
  "http://www.w3.org/Graphics/SVG/1.1/DTD/svg11.dtd">
<svg xmlns:xlink="http://www.w3.org/1999/xlink" width="395.328125pt" height="268.200625pt" viewBox="0 0 395.328125 268.200625" xmlns="http://www.w3.org/2000/svg" version="1.1">
 <metadata>
  <rdf:RDF xmlns:dc="http://purl.org/dc/elements/1.1/" xmlns:cc="http://creativecommons.org/ns#" xmlns:rdf="http://www.w3.org/1999/02/22-rdf-syntax-ns#">
   <cc:Work>
    <dc:type rdf:resource="http://purl.org/dc/dcmitype/StillImage"/>
    <dc:date>2026-03-12T12:42:31.254184</dc:date>
    <dc:format>image/svg+xml</dc:format>
    <dc:creator>
     <cc:Agent>
      <dc:title>Matplotlib v3.10.7, https://matplotlib.org/</dc:title>
     </cc:Agent>
    </dc:creator>
   </cc:Work>
  </rdf:RDF>
 </metadata>
 <defs>
  <style type="text/css">*{stroke-linejoin: round; stroke-linecap: butt}</style>
 </defs>
 <g id="figure_1">
  <g id="patch_1">
   <path d="M 0 268.200625 
L 395.328125 268.200625 
L 395.328125 0 
L 0 0 
z
" style="fill: #ffffff"/>
  </g>
  <g id="axes_1">
   <g id="patch_2">
    <path d="M 53.328125 228.96 
L 388.128125 228.96 
L 388.128125 7.2 
L 53.328125 7.2 
z
" style="fill: #ffffff"/>
   </g>
   <g id="matplotlib.axis_1">
    <g id="xtick_1">
     <g id="line2d_1">
      <defs>
       <path id="m17f23c241e" d="M 0 0 
L 0 3.5 
" style="stroke: #000000; stroke-width: 0.8"/>
      </defs>
      <g>
       <use xlink:href="#m17f23c241e" x="65.478245" y="228.96" style="stroke: #000000; stroke-width: 0.8"/>
      </g>
     </g>
     <g id="text_1">
      <!-- 0.0 -->
      <g transform="translate(57.526683 243.558437) scale(0.1 -0.1)">
       <defs>
        <path id="DejaVuSans-30" d="M 2034 4250 
Q 1547 4250 1301 3770 
Q 1056 3291 1056 2328 
Q 1056 1369 1301 889 
Q 1547 409 2034 409 
Q 2525 409 2770 889 
Q 3016 1369 3016 2328 
Q 3016 3291 2770 3770 
Q 2525 4250 2034 4250 
z
M 2034 4750 
Q 2819 4750 3233 4129 
Q 3647 3509 3647 2328 
Q 3647 1150 3233 529 
Q 2819 -91 2034 -91 
Q 1250 -91 836 529 
Q 422 1150 422 2328 
Q 422 3509 836 4129 
Q 1250 4750 2034 4750 
z
" transform="scale(0.015625)"/>
        <path id="DejaVuSans-2e" d="M 684 794 
L 1344 794 
L 1344 0 
L 684 0 
L 684 794 
z
" transform="scale(0.015625)"/>
       </defs>
       <use xlink:href="#DejaVuSans-30"/>
       <use xlink:href="#DejaVuSans-2e" transform="translate(63.623047 0)"/>
       <use xlink:href="#DejaVuSans-30" transform="translate(95.410156 0)"/>
      </g>
     </g>
    </g>
    <g id="xtick_2">
     <g id="line2d_2">
      <g>
       <use xlink:href="#m17f23c241e" x="104.115061" y="228.96" style="stroke: #000000; stroke-width: 0.8"/>
      </g>
     </g>
     <g id="text_2">
      <!-- 2.5 -->
      <g transform="translate(96.163499 243.558437) scale(0.1 -0.1)">
       <defs>
        <path id="DejaVuSans-32" d="M 1228 531 
L 3431 531 
L 3431 0 
L 469 0 
L 469 531 
Q 828 903 1448 1529 
Q 2069 2156 2228 2338 
Q 2531 2678 2651 2914 
Q 2772 3150 2772 3378 
Q 2772 3750 2511 3984 
Q 2250 4219 1831 4219 
Q 1534 4219 1204 4116 
Q 875 4013 500 3803 
L 500 4441 
Q 881 4594 1212 4672 
Q 1544 4750 1819 4750 
Q 2544 4750 2975 4387 
Q 3406 4025 3406 3419 
Q 3406 3131 3298 2873 
Q 3191 2616 2906 2266 
Q 2828 2175 2409 1742 
Q 1991 1309 1228 531 
z
" transform="scale(0.015625)"/>
        <path id="DejaVuSans-35" d="M 691 4666 
L 3169 4666 
L 3169 4134 
L 1269 4134 
L 1269 2991 
Q 1406 3038 1543 3061 
Q 1681 3084 1819 3084 
Q 2600 3084 3056 2656 
Q 3513 2228 3513 1497 
Q 3513 744 3044 326 
Q 2575 -91 1722 -91 
Q 1428 -91 1123 -41 
Q 819 9 494 109 
L 494 744 
Q 775 591 1075 516 
Q 1375 441 1709 441 
Q 2250 441 2565 725 
Q 2881 1009 2881 1497 
Q 2881 1984 2565 2268 
Q 2250 2553 1709 2553 
Q 1456 2553 1204 2497 
Q 953 2441 691 2322 
L 691 4666 
z
" transform="scale(0.015625)"/>
       </defs>
       <use xlink:href="#DejaVuSans-32"/>
       <use xlink:href="#DejaVuSans-2e" transform="translate(63.623047 0)"/>
       <use xlink:href="#DejaVuSans-35" transform="translate(95.410156 0)"/>
      </g>
     </g>
    </g>
    <g id="xtick_3">
     <g id="line2d_3">
      <g>
       <use xlink:href="#m17f23c241e" x="142.751877" y="228.96" style="stroke: #000000; stroke-width: 0.8"/>
      </g>
     </g>
     <g id="text_3">
      <!-- 5.0 -->
      <g transform="translate(134.800315 243.558437) scale(0.1 -0.1)">
       <use xlink:href="#DejaVuSans-35"/>
       <use xlink:href="#DejaVuSans-2e" transform="translate(63.623047 0)"/>
       <use xlink:href="#DejaVuSans-30" transform="translate(95.410156 0)"/>
      </g>
     </g>
    </g>
    <g id="xtick_4">
     <g id="line2d_4">
      <g>
       <use xlink:href="#m17f23c241e" x="181.388693" y="228.96" style="stroke: #000000; stroke-width: 0.8"/>
      </g>
     </g>
     <g id="text_4">
      <!-- 7.5 -->
      <g transform="translate(173.43713 243.558437) scale(0.1 -0.1)">
       <defs>
        <path id="DejaVuSans-37" d="M 525 4666 
L 3525 4666 
L 3525 4397 
L 1831 0 
L 1172 0 
L 2766 4134 
L 525 4134 
L 525 4666 
z
" transform="scale(0.015625)"/>
       </defs>
       <use xlink:href="#DejaVuSans-37"/>
       <use xlink:href="#DejaVuSans-2e" transform="translate(63.623047 0)"/>
       <use xlink:href="#DejaVuSans-35" transform="translate(95.410156 0)"/>
      </g>
     </g>
    </g>
    <g id="xtick_5">
     <g id="line2d_5">
      <g>
       <use xlink:href="#m17f23c241e" x="220.025509" y="228.96" style="stroke: #000000; stroke-width: 0.8"/>
      </g>
     </g>
     <g id="text_5">
      <!-- 10.0 -->
      <g transform="translate(208.892696 243.558437) scale(0.1 -0.1)">
       <defs>
        <path id="DejaVuSans-31" d="M 794 531 
L 1825 531 
L 1825 4091 
L 703 3866 
L 703 4441 
L 1819 4666 
L 2450 4666 
L 2450 531 
L 3481 531 
L 3481 0 
L 794 0 
L 794 531 
z
" transform="scale(0.015625)"/>
       </defs>
       <use xlink:href="#DejaVuSans-31"/>
       <use xlink:href="#DejaVuSans-30" transform="translate(63.623047 0)"/>
       <use xlink:href="#DejaVuSans-2e" transform="translate(127.246094 0)"/>
       <use xlink:href="#DejaVuSans-30" transform="translate(159.033203 0)"/>
      </g>
     </g>
    </g>
    <g id="xtick_6">
     <g id="line2d_6">
      <g>
       <use xlink:href="#m17f23c241e" x="258.662324" y="228.96" style="stroke: #000000; stroke-width: 0.8"/>
      </g>
     </g>
     <g id="text_6">
      <!-- 12.5 -->
      <g transform="translate(247.529512 243.558437) scale(0.1 -0.1)">
       <use xlink:href="#DejaVuSans-31"/>
       <use xlink:href="#DejaVuSans-32" transform="translate(63.623047 0)"/>
       <use xlink:href="#DejaVuSans-2e" transform="translate(127.246094 0)"/>
       <use xlink:href="#DejaVuSans-35" transform="translate(159.033203 0)"/>
      </g>
     </g>
    </g>
    <g id="xtick_7">
     <g id="line2d_7">
      <g>
       <use xlink:href="#m17f23c241e" x="297.29914" y="228.96" style="stroke: #000000; stroke-width: 0.8"/>
      </g>
     </g>
     <g id="text_7">
      <!-- 15.0 -->
      <g transform="translate(286.166328 243.558437) scale(0.1 -0.1)">
       <use xlink:href="#DejaVuSans-31"/>
       <use xlink:href="#DejaVuSans-35" transform="translate(63.623047 0)"/>
       <use xlink:href="#DejaVuSans-2e" transform="translate(127.246094 0)"/>
       <use xlink:href="#DejaVuSans-30" transform="translate(159.033203 0)"/>
      </g>
     </g>
    </g>
    <g id="xtick_8">
     <g id="line2d_8">
      <g>
       <use xlink:href="#m17f23c241e" x="335.935956" y="228.96" style="stroke: #000000; stroke-width: 0.8"/>
      </g>
     </g>
     <g id="text_8">
      <!-- 17.5 -->
      <g transform="translate(324.803144 243.558437) scale(0.1 -0.1)">
       <use xlink:href="#DejaVuSans-31"/>
       <use xlink:href="#DejaVuSans-37" transform="translate(63.623047 0)"/>
       <use xlink:href="#DejaVuSans-2e" transform="translate(127.246094 0)"/>
       <use xlink:href="#DejaVuSans-35" transform="translate(159.033203 0)"/>
      </g>
     </g>
    </g>
    <g id="xtick_9">
     <g id="line2d_9">
      <g>
       <use xlink:href="#m17f23c241e" x="374.572772" y="228.96" style="stroke: #000000; stroke-width: 0.8"/>
      </g>
     </g>
     <g id="text_9">
      <!-- 20.0 -->
      <g transform="translate(363.439959 243.558437) scale(0.1 -0.1)">
       <use xlink:href="#DejaVuSans-32"/>
       <use xlink:href="#DejaVuSans-30" transform="translate(63.623047 0)"/>
       <use xlink:href="#DejaVuSans-2e" transform="translate(127.246094 0)"/>
       <use xlink:href="#DejaVuSans-30" transform="translate(159.033203 0)"/>
      </g>
     </g>
    </g>
    <g id="text_10">
     <!-- wavelength [Å] -->
     <g transform="translate(182.690625 258.920937) scale(0.1 -0.1)">
      <defs>
       <path id="DejaVuSans-77" d="M 269 3500 
L 844 3500 
L 1563 769 
L 2278 3500 
L 2956 3500 
L 3675 769 
L 4391 3500 
L 4966 3500 
L 4050 0 
L 3372 0 
L 2619 2869 
L 1863 0 
L 1184 0 
L 269 3500 
z
" transform="scale(0.015625)"/>
       <path id="DejaVuSans-61" d="M 2194 1759 
Q 1497 1759 1228 1600 
Q 959 1441 959 1056 
Q 959 750 1161 570 
Q 1363 391 1709 391 
Q 2188 391 2477 730 
Q 2766 1069 2766 1631 
L 2766 1759 
L 2194 1759 
z
M 3341 1997 
L 3341 0 
L 2766 0 
L 2766 531 
Q 2569 213 2275 61 
Q 1981 -91 1556 -91 
Q 1019 -91 701 211 
Q 384 513 384 1019 
Q 384 1609 779 1909 
Q 1175 2209 1959 2209 
L 2766 2209 
L 2766 2266 
Q 2766 2663 2505 2880 
Q 2244 3097 1772 3097 
Q 1472 3097 1187 3025 
Q 903 2953 641 2809 
L 641 3341 
Q 956 3463 1253 3523 
Q 1550 3584 1831 3584 
Q 2591 3584 2966 3190 
Q 3341 2797 3341 1997 
z
" transform="scale(0.015625)"/>
       <path id="DejaVuSans-76" d="M 191 3500 
L 800 3500 
L 1894 563 
L 2988 3500 
L 3597 3500 
L 2284 0 
L 1503 0 
L 191 3500 
z
" transform="scale(0.015625)"/>
       <path id="DejaVuSans-65" d="M 3597 1894 
L 3597 1613 
L 953 1613 
Q 991 1019 1311 708 
Q 1631 397 2203 397 
Q 2534 397 2845 478 
Q 3156 559 3463 722 
L 3463 178 
Q 3153 47 2828 -22 
Q 2503 -91 2169 -91 
Q 1331 -91 842 396 
Q 353 884 353 1716 
Q 353 2575 817 3079 
Q 1281 3584 2069 3584 
Q 2775 3584 3186 3129 
Q 3597 2675 3597 1894 
z
M 3022 2063 
Q 3016 2534 2758 2815 
Q 2500 3097 2075 3097 
Q 1594 3097 1305 2825 
Q 1016 2553 972 2059 
L 3022 2063 
z
" transform="scale(0.015625)"/>
       <path id="DejaVuSans-6c" d="M 603 4863 
L 1178 4863 
L 1178 0 
L 603 0 
L 603 4863 
z
" transform="scale(0.015625)"/>
       <path id="DejaVuSans-6e" d="M 3513 2113 
L 3513 0 
L 2938 0 
L 2938 2094 
Q 2938 2591 2744 2837 
Q 2550 3084 2163 3084 
Q 1697 3084 1428 2787 
Q 1159 2491 1159 1978 
L 1159 0 
L 581 0 
L 581 3500 
L 1159 3500 
L 1159 2956 
Q 1366 3272 1645 3428 
Q 1925 3584 2291 3584 
Q 2894 3584 3203 3211 
Q 3513 2838 3513 2113 
z
" transform="scale(0.015625)"/>
       <path id="DejaVuSans-67" d="M 2906 1791 
Q 2906 2416 2648 2759 
Q 2391 3103 1925 3103 
Q 1463 3103 1205 2759 
Q 947 2416 947 1791 
Q 947 1169 1205 825 
Q 1463 481 1925 481 
Q 2391 481 2648 825 
Q 2906 1169 2906 1791 
z
M 3481 434 
Q 3481 -459 3084 -895 
Q 2688 -1331 1869 -1331 
Q 1566 -1331 1297 -1286 
Q 1028 -1241 775 -1147 
L 775 -588 
Q 1028 -725 1275 -790 
Q 1522 -856 1778 -856 
Q 2344 -856 2625 -561 
Q 2906 -266 2906 331 
L 2906 616 
Q 2728 306 2450 153 
Q 2172 0 1784 0 
Q 1141 0 747 490 
Q 353 981 353 1791 
Q 353 2603 747 3093 
Q 1141 3584 1784 3584 
Q 2172 3584 2450 3431 
Q 2728 3278 2906 2969 
L 2906 3500 
L 3481 3500 
L 3481 434 
z
" transform="scale(0.015625)"/>
       <path id="DejaVuSans-74" d="M 1172 4494 
L 1172 3500 
L 2356 3500 
L 2356 3053 
L 1172 3053 
L 1172 1153 
Q 1172 725 1289 603 
Q 1406 481 1766 481 
L 2356 481 
L 2356 0 
L 1766 0 
Q 1100 0 847 248 
Q 594 497 594 1153 
L 594 3053 
L 172 3053 
L 172 3500 
L 594 3500 
L 594 4494 
L 1172 4494 
z
" transform="scale(0.015625)"/>
       <path id="DejaVuSans-68" d="M 3513 2113 
L 3513 0 
L 2938 0 
L 2938 2094 
Q 2938 2591 2744 2837 
Q 2550 3084 2163 3084 
Q 1697 3084 1428 2787 
Q 1159 2491 1159 1978 
L 1159 0 
L 581 0 
L 581 4863 
L 1159 4863 
L 1159 2956 
Q 1366 3272 1645 3428 
Q 1925 3584 2291 3584 
Q 2894 3584 3203 3211 
Q 3513 2838 3513 2113 
z
" transform="scale(0.015625)"/>
       <path id="DejaVuSans-20" transform="scale(0.015625)"/>
       <path id="DejaVuSans-5b" d="M 550 4863 
L 1875 4863 
L 1875 4416 
L 1125 4416 
L 1125 -397 
L 1875 -397 
L 1875 -844 
L 550 -844 
L 550 4863 
z
" transform="scale(0.015625)"/>
       <path id="DejaVuSans-c5" d="M 2663 5081 
Q 2663 5278 2523 5417 
Q 2384 5556 2188 5556 
Q 1988 5556 1852 5420 
Q 1716 5284 1716 5081 
Q 1716 4884 1853 4746 
Q 1991 4609 2188 4609 
Q 2384 4609 2523 4746 
Q 2663 4884 2663 5081 
z
M 2188 4044 
L 1338 1722 
L 3041 1722 
L 2188 4044 
z
M 1716 4366 
Q 1525 4494 1428 4673 
Q 1331 4853 1331 5081 
Q 1331 5441 1579 5691 
Q 1828 5941 2188 5941 
Q 2544 5941 2795 5689 
Q 3047 5438 3047 5081 
Q 3047 4863 2948 4678 
Q 2850 4494 2663 4366 
L 4325 0 
L 3669 0 
L 3244 1197 
L 1141 1197 
L 716 0 
L 50 0 
L 1716 4366 
z
" transform="scale(0.015625)"/>
       <path id="DejaVuSans-5d" d="M 1947 4863 
L 1947 -844 
L 622 -844 
L 622 -397 
L 1369 -397 
L 1369 4416 
L 622 4416 
L 622 4863 
L 1947 4863 
z
" transform="scale(0.015625)"/>
      </defs>
      <use xlink:href="#DejaVuSans-77"/>
      <use xlink:href="#DejaVuSans-61" transform="translate(81.787109 0)"/>
      <use xlink:href="#DejaVuSans-76" transform="translate(143.066406 0)"/>
      <use xlink:href="#DejaVuSans-65" transform="translate(202.246094 0)"/>
      <use xlink:href="#DejaVuSans-6c" transform="translate(263.769531 0)"/>
      <use xlink:href="#DejaVuSans-65" transform="translate(291.552734 0)"/>
      <use xlink:href="#DejaVuSans-6e" transform="translate(353.076172 0)"/>
      <use xlink:href="#DejaVuSans-67" transform="translate(416.455078 0)"/>
      <use xlink:href="#DejaVuSans-74" transform="translate(479.931641 0)"/>
      <use xlink:href="#DejaVuSans-68" transform="translate(519.140625 0)"/>
      <use xlink:href="#DejaVuSans-20" transform="translate(582.519531 0)"/>
      <use xlink:href="#DejaVuSans-5b" transform="translate(614.306641 0)"/>
      <use xlink:href="#DejaVuSans-c5" transform="translate(653.320312 0)"/>
      <use xlink:href="#DejaVuSans-5d" transform="translate(721.728516 0)"/>
     </g>
    </g>
   </g>
   <g id="matplotlib.axis_2">
    <g id="ytick_1">
     <g id="line2d_10">
      <defs>
       <path id="m2f83921440" d="M 0 0 
L -3.5 0 
" style="stroke: #000000; stroke-width: 0.8"/>
      </defs>
      <g>
       <use xlink:href="#m2f83921440" x="53.328125" y="218.88" style="stroke: #000000; stroke-width: 0.8"/>
      </g>
     </g>
     <g id="text_11">
      <!-- 0 -->
      <g transform="translate(39.965625 222.679219) scale(0.1 -0.1)">
       <use xlink:href="#DejaVuSans-30"/>
      </g>
     </g>
    </g>
    <g id="ytick_2">
     <g id="line2d_11">
      <g>
       <use xlink:href="#m2f83921440" x="53.328125" y="179.038103" style="stroke: #000000; stroke-width: 0.8"/>
      </g>
     </g>
     <g id="text_12">
      <!-- 500 -->
      <g transform="translate(27.240625 182.837322) scale(0.1 -0.1)">
       <use xlink:href="#DejaVuSans-35"/>
       <use xlink:href="#DejaVuSans-30" transform="translate(63.623047 0)"/>
       <use xlink:href="#DejaVuSans-30" transform="translate(127.246094 0)"/>
      </g>
     </g>
    </g>
    <g id="ytick_3">
     <g id="line2d_12">
      <g>
       <use xlink:href="#m2f83921440" x="53.328125" y="139.196206" style="stroke: #000000; stroke-width: 0.8"/>
      </g>
     </g>
     <g id="text_13">
      <!-- 1000 -->
      <g transform="translate(20.878125 142.995424) scale(0.1 -0.1)">
       <use xlink:href="#DejaVuSans-31"/>
       <use xlink:href="#DejaVuSans-30" transform="translate(63.623047 0)"/>
       <use xlink:href="#DejaVuSans-30" transform="translate(127.246094 0)"/>
       <use xlink:href="#DejaVuSans-30" transform="translate(190.869141 0)"/>
      </g>
     </g>
    </g>
    <g id="ytick_4">
     <g id="line2d_13">
      <g>
       <use xlink:href="#m2f83921440" x="53.328125" y="99.354308" style="stroke: #000000; stroke-width: 0.8"/>
      </g>
     </g>
     <g id="text_14">
      <!-- 1500 -->
      <g transform="translate(20.878125 103.153527) scale(0.1 -0.1)">
       <use xlink:href="#DejaVuSans-31"/>
       <use xlink:href="#DejaVuSans-35" transform="translate(63.623047 0)"/>
       <use xlink:href="#DejaVuSans-30" transform="translate(127.246094 0)"/>
       <use xlink:href="#DejaVuSans-30" transform="translate(190.869141 0)"/>
      </g>
     </g>
    </g>
    <g id="ytick_5">
     <g id="line2d_14">
      <g>
       <use xlink:href="#m2f83921440" x="53.328125" y="59.512411" style="stroke: #000000; stroke-width: 0.8"/>
      </g>
     </g>
     <g id="text_15">
      <!-- 2000 -->
      <g transform="translate(20.878125 63.31163) scale(0.1 -0.1)">
       <use xlink:href="#DejaVuSans-32"/>
       <use xlink:href="#DejaVuSans-30" transform="translate(63.623047 0)"/>
       <use xlink:href="#DejaVuSans-30" transform="translate(127.246094 0)"/>
       <use xlink:href="#DejaVuSans-30" transform="translate(190.869141 0)"/>
      </g>
     </g>
    </g>
    <g id="ytick_6">
     <g id="line2d_15">
      <g>
       <use xlink:href="#m2f83921440" x="53.328125" y="19.670514" style="stroke: #000000; stroke-width: 0.8"/>
      </g>
     </g>
     <g id="text_16">
      <!-- 2500 -->
      <g transform="translate(20.878125 23.469733) scale(0.1 -0.1)">
       <use xlink:href="#DejaVuSans-32"/>
       <use xlink:href="#DejaVuSans-35" transform="translate(63.623047 0)"/>
       <use xlink:href="#DejaVuSans-30" transform="translate(127.246094 0)"/>
       <use xlink:href="#DejaVuSans-30" transform="translate(190.869141 0)"/>
      </g>
     </g>
    </g>
    <g id="text_17">
     <!-- [counts] -->
     <g transform="translate(14.798438 138.6925) rotate(-90) scale(0.1 -0.1)">
      <defs>
       <path id="DejaVuSans-63" d="M 3122 3366 
L 3122 2828 
Q 2878 2963 2633 3030 
Q 2388 3097 2138 3097 
Q 1578 3097 1268 2742 
Q 959 2388 959 1747 
Q 959 1106 1268 751 
Q 1578 397 2138 397 
Q 2388 397 2633 464 
Q 2878 531 3122 666 
L 3122 134 
Q 2881 22 2623 -34 
Q 2366 -91 2075 -91 
Q 1284 -91 818 406 
Q 353 903 353 1747 
Q 353 2603 823 3093 
Q 1294 3584 2113 3584 
Q 2378 3584 2631 3529 
Q 2884 3475 3122 3366 
z
" transform="scale(0.015625)"/>
       <path id="DejaVuSans-6f" d="M 1959 3097 
Q 1497 3097 1228 2736 
Q 959 2375 959 1747 
Q 959 1119 1226 758 
Q 1494 397 1959 397 
Q 2419 397 2687 759 
Q 2956 1122 2956 1747 
Q 2956 2369 2687 2733 
Q 2419 3097 1959 3097 
z
M 1959 3584 
Q 2709 3584 3137 3096 
Q 3566 2609 3566 1747 
Q 3566 888 3137 398 
Q 2709 -91 1959 -91 
Q 1206 -91 779 398 
Q 353 888 353 1747 
Q 353 2609 779 3096 
Q 1206 3584 1959 3584 
z
" transform="scale(0.015625)"/>
       <path id="DejaVuSans-75" d="M 544 1381 
L 544 3500 
L 1119 3500 
L 1119 1403 
Q 1119 906 1312 657 
Q 1506 409 1894 409 
Q 2359 409 2629 706 
Q 2900 1003 2900 1516 
L 2900 3500 
L 3475 3500 
L 3475 0 
L 2900 0 
L 2900 538 
Q 2691 219 2414 64 
Q 2138 -91 1772 -91 
Q 1169 -91 856 284 
Q 544 659 544 1381 
z
M 1991 3584 
L 1991 3584 
z
" transform="scale(0.015625)"/>
       <path id="DejaVuSans-73" d="M 2834 3397 
L 2834 2853 
Q 2591 2978 2328 3040 
Q 2066 3103 1784 3103 
Q 1356 3103 1142 2972 
Q 928 2841 928 2578 
Q 928 2378 1081 2264 
Q 1234 2150 1697 2047 
L 1894 2003 
Q 2506 1872 2764 1633 
Q 3022 1394 3022 966 
Q 3022 478 2636 193 
Q 2250 -91 1575 -91 
Q 1294 -91 989 -36 
Q 684 19 347 128 
L 347 722 
Q 666 556 975 473 
Q 1284 391 1588 391 
Q 1994 391 2212 530 
Q 2431 669 2431 922 
Q 2431 1156 2273 1281 
Q 2116 1406 1581 1522 
L 1381 1569 
Q 847 1681 609 1914 
Q 372 2147 372 2553 
Q 372 3047 722 3315 
Q 1072 3584 1716 3584 
Q 2034 3584 2315 3537 
Q 2597 3491 2834 3397 
z
" transform="scale(0.015625)"/>
      </defs>
      <use xlink:href="#DejaVuSans-5b"/>
      <use xlink:href="#DejaVuSans-63" transform="translate(39.013672 0)"/>
      <use xlink:href="#DejaVuSans-6f" transform="translate(93.994141 0)"/>
      <use xlink:href="#DejaVuSans-75" transform="translate(155.175781 0)"/>
      <use xlink:href="#DejaVuSans-6e" transform="translate(218.554688 0)"/>
      <use xlink:href="#DejaVuSans-74" transform="translate(281.933594 0)"/>
      <use xlink:href="#DejaVuSans-73" transform="translate(321.142578 0)"/>
      <use xlink:href="#DejaVuSans-5d" transform="translate(373.242188 0)"/>
     </g>
    </g>
   </g>
   <g id="line2d_16">
    <path d="M 68.546307 43.73502 
L 69.155034 43.73502 
L 69.155034 35.76664 
L 69.763761 35.76664 
L 69.763761 34.013597 
L 70.372489 34.013597 
L 70.372489 30.826245 
L 70.981216 30.826245 
L 70.981216 22.53913 
L 71.589943 22.53913 
L 71.589943 23.096917 
L 72.19867 23.096917 
L 72.19867 38.236838 
L 72.807398 38.236838 
L 72.807398 42.300711 
L 73.416125 42.300711 
L 73.416125 49.472253 
L 74.024852 49.472253 
L 74.024852 55.528221 
L 74.63358 55.528221 
L 74.63358 48.35668 
L 75.851034 48.276996 
L 75.851034 34.332332 
L 76.459761 34.332332 
L 76.459761 23.734387 
L 77.068489 23.734387 
L 77.068489 17.28 
L 77.677216 17.28 
L 77.677216 19.112727 
L 78.285943 19.112727 
L 78.285943 21.503241 
L 78.89467 21.503241 
L 78.89467 28.674783 
L 79.503398 28.674783 
L 79.503398 21.343874 
L 80.112125 21.343874 
L 80.112125 31.065296 
L 80.720852 31.065296 
L 80.720852 42.778814 
L 81.32958 42.778814 
L 81.32958 65.010593 
L 81.938307 65.010593 
L 81.938307 82.301976 
L 82.547034 82.301976 
L 82.547034 102.461976 
L 83.155761 102.461976 
L 83.155761 120.231462 
L 83.764489 120.231462 
L 83.764489 142.303874 
L 84.373216 142.303874 
L 84.373216 160.312411 
L 84.981943 160.312411 
L 84.981943 172.663399 
L 85.59067 172.663399 
L 85.59067 189.317312 
L 86.199398 189.317312 
L 86.199398 195.931067 
L 86.808125 195.931067 
L 86.808125 200.791779 
L 87.416852 200.791779 
L 87.416852 205.094704 
L 88.02558 205.094704 
L 88.02558 203.34166 
L 88.634307 203.34166 
L 88.634307 199.755889 
L 89.243034 199.755889 
L 89.243034 196.40917 
L 89.851761 196.40917 
L 89.851761 191.707826 
L 90.460489 191.707826 
L 90.460489 186.767431 
L 91.069216 186.767431 
L 91.069216 178.799051 
L 91.677943 178.799051 
L 91.677943 172.663399 
L 92.28667 172.663399 
L 92.28667 159.03747 
L 92.895398 159.03747 
L 92.895398 150.590988 
L 93.504125 150.590988 
L 93.504125 141.507036 
L 94.112852 141.507036 
L 94.112852 131.148142 
L 94.72158 131.148142 
L 94.72158 127.562372 
L 95.330307 127.562372 
L 95.330307 110.031937 
L 95.939034 110.031937 
L 95.939034 115.291067 
L 96.547761 115.291067 
L 96.547761 115.052016 
L 97.156489 115.052016 
L 97.156489 115.530119 
L 97.765216 115.530119 
L 97.765216 110.589723 
L 98.373943 110.589723 
L 98.373943 105.171225 
L 98.98267 105.171225 
L 98.98267 99.274625 
L 99.591398 99.274625 
L 99.591398 104.533755 
L 100.200125 104.533755 
L 100.200125 98.55747 
L 100.808852 98.55747 
L 100.808852 89.393834 
L 101.41758 89.393834 
L 101.41758 86.843953 
L 102.026307 86.843953 
L 102.026307 75.528854 
L 102.635034 75.528854 
L 102.635034 83.736285 
L 103.243761 83.736285 
L 103.243761 80.628617 
L 103.852489 80.628617 
L 103.852489 65.648063 
L 104.461216 65.648063 
L 104.461216 65.887115 
L 105.069943 65.887115 
L 105.069943 69.871304 
L 105.67867 69.871304 
L 105.67867 75.050751 
L 106.287398 75.050751 
L 106.287398 74.174229 
L 106.896125 74.174229 
L 106.896125 78.39747 
L 107.504852 78.39747 
L 107.504852 71.704032 
L 108.11358 71.704032 
L 108.11358 77.281897 
L 108.722307 77.281897 
L 108.722307 82.859763 
L 109.331034 82.859763 
L 109.331034 79.43336 
L 109.939761 79.43336 
L 109.939761 86.047115 
L 110.548489 86.047115 
L 110.548489 80.469249 
L 111.157216 80.469249 
L 111.157216 85.011225 
L 111.765943 85.011225 
L 111.765943 81.505138 
L 112.37467 81.505138 
L 112.37467 74.732016 
L 112.983398 74.732016 
L 112.983398 71.783715 
L 113.592125 71.783715 
L 113.592125 57.759368 
L 114.200852 57.759368 
L 114.200852 56.484427 
L 114.80958 56.484427 
L 114.80958 51.623715 
L 115.418307 51.623715 
L 115.418307 47.798893 
L 116.027034 47.798893 
L 116.027034 49.711304 
L 116.635761 49.711304 
L 116.635761 55.528221 
L 117.244489 55.528221 
L 117.244489 56.086008 
L 117.853216 56.086008 
L 117.853216 72.421186 
L 118.461943 72.421186 
L 118.461943 75.44917 
L 119.07067 75.44917 
L 119.07067 90.668775 
L 119.679398 90.668775 
L 119.679398 98.955889 
L 120.288125 98.955889 
L 120.288125 110.191304 
L 120.896852 110.191304 
L 120.896852 116.645692 
L 121.50558 116.645692 
L 121.50558 122.223557 
L 122.114307 122.223557 
L 122.114307 130.112253 
L 122.723034 130.112253 
L 122.723034 132.582451 
L 123.331761 132.582451 
L 123.331761 138.638419 
L 123.940489 138.638419 
L 123.940489 131.785613 
L 124.549216 131.785613 
L 124.549216 140.391462 
L 125.157943 140.391462 
L 125.157943 142.542925 
L 125.76667 142.542925 
L 125.76667 141.108617 
L 126.375398 141.108617 
L 126.375398 143.419447 
L 126.984125 143.419447 
L 126.984125 145.331858 
L 127.592852 145.331858 
L 127.592852 146.925534 
L 128.20158 146.925534 
L 128.20158 151.387826 
L 128.810307 151.387826 
L 128.810307 145.17249 
L 129.419034 145.17249 
L 129.419034 149.714466 
L 130.027761 149.714466 
L 130.027761 147.961423 
L 130.636489 147.961423 
L 130.636489 149.79415 
L 131.245216 149.79415 
L 131.245216 145.80996 
L 131.853943 145.80996 
L 131.853943 144.295968 
L 132.46267 144.295968 
L 132.46267 141.427352 
L 133.071398 141.427352 
L 133.071398 137.124427 
L 133.680125 137.124427 
L 133.680125 138.160316 
L 134.288852 138.160316 
L 134.288852 135.212016 
L 134.89758 135.212016 
L 134.89758 128.598261 
L 135.506307 128.598261 
L 135.506307 134.494862 
L 136.115034 134.494862 
L 136.115034 134.733913 
L 136.723761 134.733913 
L 136.723761 140.232095 
L 137.332489 140.232095 
L 137.332489 135.132332 
L 137.941216 135.132332 
L 137.941216 132.662134 
L 138.549943 132.662134 
L 138.549943 143.339763 
L 139.15867 143.339763 
L 139.15867 146.686482 
L 139.767398 146.686482 
L 139.767398 152.10498 
L 140.376125 152.10498 
L 140.376125 155.4517 
L 140.984852 155.4517 
L 140.984852 158.160949 
L 141.59358 158.160949 
L 141.59358 166.448063 
L 142.202307 166.448063 
L 142.202307 169.236996 
L 142.811034 169.236996 
L 142.811034 173.93834 
L 144.028489 173.93834 
L 144.028489 172.583715 
L 144.637216 172.583715 
L 144.637216 180.552095 
L 145.245943 180.552095 
L 145.245943 180.313043 
L 145.85467 180.313043 
L 145.85467 181.428617 
L 146.463398 181.428617 
L 146.463398 180.472411 
L 147.072125 180.472411 
L 147.072125 178.639684 
L 147.680852 178.639684 
L 147.680852 178.161581 
L 148.28958 178.161581 
L 148.28958 179.516206 
L 148.898307 179.516206 
L 148.898307 181.269249 
L 149.507034 181.269249 
L 149.507034 178.241265 
L 150.115761 178.241265 
L 150.115761 177.125692 
L 150.724489 177.125692 
L 150.724489 176.966324 
L 151.333216 176.966324 
L 151.333216 175.532016 
L 151.941943 175.532016 
L 151.941943 175.771067 
L 152.55067 175.771067 
L 152.55067 173.30087 
L 153.159398 173.30087 
L 153.159398 175.930435 
L 153.768125 175.930435 
L 153.768125 170.193202 
L 154.376852 170.193202 
L 154.376852 177.125692 
L 154.98558 177.125692 
L 154.98558 169.635415 
L 155.594307 169.635415 
L 155.594307 170.352569 
L 156.203034 170.352569 
L 156.203034 173.061818 
L 156.811761 173.061818 
L 156.811761 173.699289 
L 157.420489 173.699289 
L 157.420489 172.663399 
L 158.029216 172.663399 
L 158.029216 178.719368 
L 158.637943 178.719368 
L 158.637943 179.117787 
L 159.24667 179.117787 
L 159.24667 178.081897 
L 159.855398 178.081897 
L 159.855398 183.261344 
L 160.464125 183.261344 
L 160.464125 182.54419 
L 161.072852 182.54419 
L 161.072852 186.209644 
L 161.68158 186.209644 
L 161.68158 190.034466 
L 162.290307 190.034466 
L 162.290307 189.078261 
L 162.899034 189.078261 
L 162.899034 192.504664 
L 163.507761 192.504664 
L 163.507761 192.185929 
L 164.116489 192.185929 
L 164.116489 193.859289 
L 164.725216 193.859289 
L 164.725216 194.895178 
L 165.333943 194.895178 
L 165.333943 194.178024 
L 165.94267 194.178024 
L 165.94267 195.293597 
L 166.551398 195.293597 
L 166.551398 194.417075 
L 167.160125 194.417075 
L 167.160125 195.373281 
L 167.768852 195.373281 
L 167.768852 194.73581 
L 168.37758 194.73581 
L 168.37758 193.938972 
L 168.986307 193.938972 
L 168.986307 190.592253 
L 169.595034 190.592253 
L 169.595034 190.11415 
L 170.203761 190.11415 
L 170.203761 192.743715 
L 170.812489 192.743715 
L 170.812489 191.707826 
L 171.421216 191.707826 
L 171.421216 190.592253 
L 172.029943 190.592253 
L 172.029943 191.548458 
L 172.63867 191.548458 
L 172.63867 190.353202 
L 173.247398 190.353202 
L 173.247398 188.281423 
L 173.856125 188.281423 
L 173.856125 191.628142 
L 174.464852 191.628142 
L 174.464852 187.643953 
L 175.07358 187.643953 
L 175.07358 190.432885 
L 175.682307 190.432885 
L 175.682307 192.743715 
L 176.291034 192.743715 
L 176.291034 194.417075 
L 176.899761 194.417075 
L 176.899761 193.142134 
L 177.508489 193.142134 
L 177.508489 196.090435 
L 178.117216 196.090435 
L 178.117216 195.373281 
L 178.725943 195.373281 
L 178.725943 197.285692 
L 179.33467 197.285692 
L 179.33467 197.843478 
L 179.943398 197.843478 
L 179.943398 199.835573 
L 180.552125 199.835573 
L 180.552125 198.640316 
L 181.160852 198.640316 
L 181.160852 200.951146 
L 181.76958 200.951146 
L 181.76958 199.198103 
L 182.378307 199.198103 
L 182.378307 201.747984 
L 182.987034 201.747984 
L 182.987034 201.03083 
L 183.595761 201.03083 
L 183.595761 201.987036 
L 184.204489 201.987036 
L 184.204489 202.226087 
L 185.421943 202.226087 
L 185.421943 200.313676 
L 186.03067 200.313676 
L 186.03067 202.305771 
L 186.639398 202.305771 
L 186.639398 201.747984 
L 187.248125 201.747984 
L 187.248125 201.508933 
L 187.856852 201.508933 
L 187.856852 201.747984 
L 188.46558 201.747984 
L 188.46558 199.676206 
L 189.074307 199.676206 
L 189.074307 202.305771 
L 189.683034 202.305771 
L 189.683034 202.783874 
L 190.291761 202.783874 
L 190.291761 200.39336 
L 190.900489 200.39336 
L 190.900489 198.640316 
L 191.509216 198.640316 
L 191.509216 200.39336 
L 192.72667 200.473043 
L 192.72667 201.827668 
L 193.335398 201.827668 
L 193.335398 201.349565 
L 193.944125 201.349565 
L 193.944125 202.624506 
L 194.552852 202.624506 
L 194.552852 204.935336 
L 195.16158 204.935336 
L 195.16158 205.333755 
L 195.770307 205.333755 
L 195.770307 205.971225 
L 196.987761 205.971225 
L 196.987761 206.28996 
L 197.596489 206.28996 
L 197.596489 208.282055 
L 198.205216 208.282055 
L 198.205216 209.875731 
L 198.813943 209.875731 
L 198.813943 208.600791 
L 199.42267 208.600791 
L 199.42267 210.672569 
L 200.031398 210.672569 
L 200.031398 208.760158 
L 200.640125 208.760158 
L 200.640125 210.513202 
L 201.248852 210.513202 
L 201.248852 211.628775 
L 201.85758 211.628775 
L 201.85758 210.831937 
L 202.466307 210.831937 
L 202.466307 213.381818 
L 203.075034 213.381818 
L 203.075034 213.063083 
L 204.292489 213.142767 
L 204.292489 212.824032 
L 204.901216 212.824032 
L 204.901216 211.549091 
L 205.509943 211.549091 
L 205.509943 213.780237 
L 206.11867 213.780237 
L 206.11867 212.903715 
L 206.727398 212.903715 
L 206.727398 214.178656 
L 207.336125 214.178656 
L 207.336125 213.859921 
L 207.944852 213.859921 
L 207.944852 212.903715 
L 208.55358 212.903715 
L 208.55358 213.381818 
L 209.162307 213.381818 
L 209.162307 214.417708 
L 210.379761 214.417708 
L 210.379761 214.816126 
L 210.988489 214.816126 
L 210.988489 214.975494 
L 211.597216 214.975494 
L 211.597216 214.736443 
L 212.205943 214.736443 
L 212.205943 216.330119 
L 213.423398 216.250435 
L 213.423398 216.489486 
L 214.032125 216.489486 
L 214.032125 217.047273 
L 214.640852 217.047273 
L 214.640852 216.330119 
L 215.24958 216.330119 
L 215.24958 217.047273 
L 215.858307 217.047273 
L 215.858307 218.003478 
L 216.467034 218.003478 
L 216.467034 218.24253 
L 217.684489 218.322213 
L 217.684489 218.083162 
L 218.293216 218.083162 
L 218.293216 218.561265 
L 218.901943 218.561265 
L 218.901943 218.800316 
L 220.728125 218.720632 
L 220.728125 218.561265 
L 223.163034 218.481581 
L 223.163034 218.24253 
L 224.380489 218.162846 
L 224.380489 218.083162 
L 224.989216 218.083162 
L 224.989216 217.923794 
L 226.20667 217.844111 
L 226.20667 217.445692 
L 226.815398 217.445692 
L 226.815398 217.20664 
L 227.424125 217.20664 
L 227.424125 218.003478 
L 228.032852 218.003478 
L 228.032852 217.844111 
L 229.250307 217.764427 
L 229.250307 217.366008 
L 229.859034 217.366008 
L 229.859034 217.764427 
L 230.467761 217.764427 
L 230.467761 218.003478 
L 231.076489 218.003478 
L 231.076489 217.844111 
L 231.685216 217.844111 
L 231.685216 217.445692 
L 232.293943 217.445692 
L 232.293943 217.286324 
L 233.511398 217.366008 
L 233.511398 217.684743 
L 234.120125 217.684743 
L 234.120125 217.366008 
L 234.728852 217.366008 
L 234.728852 217.525375 
L 235.946307 217.605059 
L 235.946307 217.366008 
L 236.555034 217.366008 
L 236.555034 217.684743 
L 237.163761 217.684743 
L 237.163761 218.003478 
L 237.772489 218.003478 
L 237.772489 217.366008 
L 238.381216 217.366008 
L 238.381216 216.728538 
L 238.989943 216.728538 
L 238.989943 217.047273 
L 239.59867 217.047273 
L 239.59867 217.684743 
L 240.816125 217.684743 
L 240.816125 217.923794 
L 242.642307 218.003478 
L 242.642307 217.684743 
L 243.251034 217.684743 
L 243.251034 217.366008 
L 243.859761 217.366008 
L 243.859761 217.684743 
L 245.685943 217.684743 
L 245.685943 217.20664 
L 246.29467 217.20664 
L 246.29467 217.445692 
L 246.903398 217.445692 
L 246.903398 217.605059 
L 247.512125 217.605059 
L 247.512125 216.56917 
L 248.120852 216.56917 
L 248.120852 217.20664 
L 248.72958 217.20664 
L 248.72958 217.525375 
L 249.338307 217.525375 
L 249.338307 216.489486 
L 249.947034 216.489486 
L 249.947034 217.286324 
L 250.555761 217.286324 
L 250.555761 217.525375 
L 251.164489 217.525375 
L 251.164489 217.366008 
L 251.773216 217.366008 
L 251.773216 217.605059 
L 252.381943 217.605059 
L 252.381943 217.445692 
L 252.99067 217.445692 
L 252.99067 217.605059 
L 253.599398 217.605059 
L 253.599398 218.003478 
L 254.208125 218.003478 
L 254.208125 217.525375 
L 254.816852 217.525375 
L 254.816852 217.844111 
L 255.42558 217.844111 
L 255.42558 218.162846 
L 256.034307 218.162846 
L 256.034307 217.525375 
L 256.643034 217.525375 
L 256.643034 217.844111 
L 257.251761 217.844111 
L 257.251761 217.684743 
L 257.860489 217.684743 
L 257.860489 217.923794 
L 258.469216 217.923794 
L 258.469216 218.401897 
L 259.077943 218.401897 
L 259.077943 218.162846 
L 260.295398 218.083162 
L 260.295398 217.605059 
L 260.904125 217.605059 
L 260.904125 218.162846 
L 261.512852 218.162846 
L 261.512852 217.605059 
L 262.730307 217.525375 
L 262.730307 217.923794 
L 263.947761 218.003478 
L 263.947761 217.126957 
L 264.556489 217.126957 
L 264.556489 217.605059 
L 265.165216 217.605059 
L 265.165216 218.162846 
L 265.773943 218.162846 
L 265.773943 217.605059 
L 266.38267 217.605059 
L 266.38267 217.366008 
L 266.991398 217.366008 
L 266.991398 217.126957 
L 267.600125 217.126957 
L 267.600125 218.003478 
L 268.208852 218.003478 
L 268.208852 218.24253 
L 268.81758 218.24253 
L 268.81758 217.605059 
L 270.035034 217.684743 
L 270.035034 217.844111 
L 271.252489 217.764427 
L 271.252489 216.967589 
L 271.861216 216.967589 
L 271.861216 218.003478 
L 273.07867 218.083162 
L 273.07867 217.445692 
L 273.687398 217.445692 
L 273.687398 218.003478 
L 274.904852 217.923794 
L 274.904852 217.684743 
L 275.51358 217.684743 
L 275.51358 218.322213 
L 276.122307 218.322213 
L 276.122307 218.083162 
L 276.731034 218.083162 
L 276.731034 218.24253 
L 277.339761 218.24253 
L 277.339761 217.923794 
L 277.948489 217.923794 
L 277.948489 218.24253 
L 278.557216 218.24253 
L 278.557216 218.003478 
L 279.165943 218.003478 
L 279.165943 218.322213 
L 279.77467 218.322213 
L 279.77467 217.844111 
L 280.992125 217.844111 
L 280.992125 217.684743 
L 281.600852 217.684743 
L 281.600852 218.083162 
L 282.20958 218.083162 
L 282.20958 217.684743 
L 283.427034 217.764427 
L 283.427034 218.481581 
L 284.035761 218.481581 
L 284.035761 218.083162 
L 284.644489 218.083162 
L 284.644489 218.24253 
L 285.253216 218.24253 
L 285.253216 217.684743 
L 285.861943 217.684743 
L 285.861943 218.003478 
L 286.47067 218.003478 
L 286.47067 217.445692 
L 287.079398 217.445692 
L 287.079398 217.684743 
L 287.688125 217.684743 
L 287.688125 218.083162 
L 288.296852 218.083162 
L 288.296852 217.923794 
L 288.90558 217.923794 
L 288.90558 217.605059 
L 289.514307 217.605059 
L 289.514307 217.844111 
L 290.123034 217.844111 
L 290.123034 217.525375 
L 290.731761 217.525375 
L 290.731761 217.126957 
L 291.340489 217.126957 
L 291.340489 218.003478 
L 292.557943 218.083162 
L 292.557943 217.764427 
L 293.16667 217.764427 
L 293.16667 218.083162 
L 293.775398 218.083162 
L 293.775398 218.24253 
L 294.992852 218.162846 
L 294.992852 218.003478 
L 296.210307 218.003478 
L 296.210307 218.401897 
L 296.819034 218.401897 
L 296.819034 218.24253 
L 297.427761 218.24253 
L 297.427761 217.844111 
L 298.036489 217.844111 
L 298.036489 218.162846 
L 298.645216 218.162846 
L 298.645216 218.401897 
L 299.253943 218.401897 
L 299.253943 218.083162 
L 299.86267 218.083162 
L 299.86267 218.24253 
L 300.471398 218.24253 
L 300.471398 217.764427 
L 301.080125 217.764427 
L 301.080125 218.322213 
L 301.688852 218.322213 
L 301.688852 217.764427 
L 302.29758 217.764427 
L 302.29758 218.083162 
L 303.515034 218.003478 
L 303.515034 217.844111 
L 304.123761 217.844111 
L 304.123761 218.003478 
L 305.341216 218.083162 
L 305.341216 218.24253 
L 305.949943 218.24253 
L 305.949943 217.764427 
L 306.55867 217.764427 
L 306.55867 217.923794 
L 307.167398 217.923794 
L 307.167398 218.162846 
L 308.384852 218.083162 
L 308.384852 217.525375 
L 308.99358 217.525375 
L 308.99358 217.684743 
L 309.602307 217.684743 
L 309.602307 218.24253 
L 310.211034 218.24253 
L 310.211034 217.684743 
L 310.819761 217.684743 
L 310.819761 217.923794 
L 312.037216 217.923794 
L 312.037216 217.764427 
L 312.645943 217.764427 
L 312.645943 218.640949 
L 313.25467 218.640949 
L 313.25467 218.162846 
L 313.863398 218.162846 
L 313.863398 218.322213 
L 314.472125 218.322213 
L 314.472125 217.844111 
L 315.080852 217.844111 
L 315.080852 218.083162 
L 315.68958 218.083162 
L 315.68958 218.481581 
L 316.298307 218.481581 
L 316.298307 218.083162 
L 316.907034 218.083162 
L 316.907034 218.322213 
L 318.124489 218.24253 
L 318.124489 218.162846 
L 319.341943 218.24253 
L 319.341943 217.684743 
L 319.95067 217.684743 
L 319.95067 218.162846 
L 320.559398 218.162846 
L 320.559398 218.003478 
L 321.776852 217.923794 
L 321.776852 217.844111 
L 322.38558 217.844111 
L 322.38558 218.401897 
L 322.994307 218.401897 
L 322.994307 218.083162 
L 324.211761 218.162846 
L 324.211761 218.401897 
L 324.820489 218.401897 
L 324.820489 218.24253 
L 326.037943 218.24253 
L 326.037943 218.640949 
L 326.64667 218.640949 
L 326.64667 217.525375 
L 327.255398 217.525375 
L 327.255398 218.24253 
L 327.864125 218.24253 
L 327.864125 218.640949 
L 328.472852 218.640949 
L 328.472852 218.162846 
L 329.08158 218.162846 
L 329.08158 218.003478 
L 329.690307 218.003478 
L 329.690307 218.162846 
L 330.299034 218.162846 
L 330.299034 218.481581 
L 331.516489 218.481581 
L 331.516489 218.640949 
L 332.125216 218.640949 
L 332.125216 218.24253 
L 332.733943 218.24253 
L 332.733943 218.640949 
L 333.34267 218.640949 
L 333.34267 218.401897 
L 333.951398 218.401897 
L 333.951398 218.561265 
L 334.560125 218.561265 
L 334.560125 218.720632 
L 335.168852 218.720632 
L 335.168852 218.24253 
L 335.77758 218.24253 
L 335.77758 218.401897 
L 336.386307 218.401897 
L 336.386307 218.720632 
L 338.212489 218.720632 
L 338.212489 218.162846 
L 338.821216 218.162846 
L 338.821216 218.640949 
L 340.03867 218.640949 
L 340.03867 218.800316 
L 341.256125 218.720632 
L 341.256125 218.481581 
L 341.864852 218.481581 
L 341.864852 218.640949 
L 343.082307 218.640949 
L 343.082307 218.800316 
L 344.299761 218.720632 
L 344.299761 218.640949 
L 346.125943 218.720632 
L 346.125943 218.88 
L 346.73467 218.88 
L 346.73467 218.720632 
L 347.952125 218.720632 
L 347.952125 218.88 
L 358.909216 218.800316 
L 358.909216 218.720632 
L 362.56158 218.720632 
L 362.56158 218.88 
L 364.996489 218.800316 
L 364.996489 218.720632 
L 366.82267 218.800316 
L 366.82267 218.88 
L 372.301216 218.800316 
L 372.301216 218.640949 
L 372.909943 218.640949 
L 372.909943 218.640949 
" clip-path="url(#p7ebe5064fc)" style="fill: none; stroke: #1f77b4; stroke-width: 1.5; stroke-linecap: square"/>
   </g>
   <g id="patch_3">
    <path d="M 53.328125 228.96 
L 53.328125 7.2 
" style="fill: none; stroke: #000000; stroke-width: 0.8; stroke-linejoin: miter; stroke-linecap: square"/>
   </g>
   <g id="patch_4">
    <path d="M 388.128125 228.96 
L 388.128125 7.2 
" style="fill: none; stroke: #000000; stroke-width: 0.8; stroke-linejoin: miter; stroke-linecap: square"/>
   </g>
   <g id="patch_5">
    <path d="M 53.328125 228.96 
L 388.128125 228.96 
" style="fill: none; stroke: #000000; stroke-width: 0.8; stroke-linejoin: miter; stroke-linecap: square"/>
   </g>
   <g id="patch_6">
    <path d="M 53.328125 7.2 
L 388.128125 7.2 
" style="fill: none; stroke: #000000; stroke-width: 0.8; stroke-linejoin: miter; stroke-linecap: square"/>
   </g>
  </g>
 </g>
 <defs>
  <clipPath id="p7ebe5064fc">
   <rect x="53.328125" y="7.2" width="334.8" height="221.76"/>
  </clipPath>
 </defs>
</svg>
