<?xml version="1.0" encoding="utf-8" standalone="no"?>
<!DOCTYPE svg PUBLIC "-//W3C//DTD SVG 1.1//EN"
  "http://www.w3.org/Graphics/SVG/1.1/DTD/svg11.dtd">
<svg xmlns:xlink="http://www.w3.org/1999/xlink" width="872.39952pt" height="296.39952pt" viewBox="0 0 872.39952 296.39952" xmlns="http://www.w3.org/2000/svg" version="1.1">
 <metadata>
  <rdf:RDF xmlns:dc="http://purl.org/dc/elements/1.1/" xmlns:cc="http://creativecommons.org/ns#" xmlns:rdf="http://www.w3.org/1999/02/22-rdf-syntax-ns#">
   <cc:Work>
    <dc:type rdf:resource="http://purl.org/dc/dcmitype/StillImage"/>
    <dc:date>2025-04-29T09:31:46.920831</dc:date>
    <dc:format>image/svg+xml</dc:format>
    <dc:creator>
     <cc:Agent>
      <dc:title>Matplotlib v3.10.1, https://matplotlib.org/</dc:title>
     </cc:Agent>
    </dc:creator>
   </cc:Work>
  </rdf:RDF>
 </metadata>
 <defs>
  <style type="text/css">*{stroke-linejoin: round; stroke-linecap: butt}</style>
 </defs>
 <g id="figure_1">
  <g id="patch_1">
   <path d="M 0 296.39952 
L 872.39952 296.39952 
L 872.39952 0 
L 0 0 
z
" style="fill: #ffffff"/>
  </g>
  <g id="axes_1">
   <g id="patch_2">
    <path d="M 53.328125 257.158895 
L 428.69851 257.158895 
L 428.69851 7.2 
L 53.328125 7.2 
z
" style="fill: #ffffff"/>
   </g>
   <g id="matplotlib.axis_1">
    <g id="xtick_1">
     <g id="line2d_1">
      <defs>
       <path id="m84cb5f675a" d="M 0 0 
L 0 3.5 
" style="stroke: #000000; stroke-width: 0.8"/>
      </defs>
      <g>
       <use xlink:href="#m84cb5f675a" x="69.533624" y="257.158895" style="stroke: #000000; stroke-width: 0.8"/>
      </g>
     </g>
     <g id="text_1">
      <!-- 0 -->
      <g transform="translate(66.352374 271.757332) scale(0.1 -0.1)">
       <defs>
        <path id="DejaVuSans-30" d="M 2034 4250 
Q 1547 4250 1301 3770 
Q 1056 3291 1056 2328 
Q 1056 1369 1301 889 
Q 1547 409 2034 409 
Q 2525 409 2770 889 
Q 3016 1369 3016 2328 
Q 3016 3291 2770 3770 
Q 2525 4250 2034 4250 
z
M 2034 4750 
Q 2819 4750 3233 4129 
Q 3647 3509 3647 2328 
Q 3647 1150 3233 529 
Q 2819 -91 2034 -91 
Q 1250 -91 836 529 
Q 422 1150 422 2328 
Q 422 3509 836 4129 
Q 1250 4750 2034 4750 
z
" transform="scale(0.015625)"/>
       </defs>
       <use xlink:href="#DejaVuSans-30"/>
      </g>
     </g>
    </g>
    <g id="xtick_2">
     <g id="line2d_2">
      <g>
       <use xlink:href="#m84cb5f675a" x="138.150321" y="257.158895" style="stroke: #000000; stroke-width: 0.8"/>
      </g>
     </g>
     <g id="text_2">
      <!-- 1000 -->
      <g transform="translate(125.425321 271.757332) scale(0.1 -0.1)">
       <defs>
        <path id="DejaVuSans-31" d="M 794 531 
L 1825 531 
L 1825 4091 
L 703 3866 
L 703 4441 
L 1819 4666 
L 2450 4666 
L 2450 531 
L 3481 531 
L 3481 0 
L 794 0 
L 794 531 
z
" transform="scale(0.015625)"/>
       </defs>
       <use xlink:href="#DejaVuSans-31"/>
       <use xlink:href="#DejaVuSans-30" transform="translate(63.623047 0)"/>
       <use xlink:href="#DejaVuSans-30" transform="translate(127.246094 0)"/>
       <use xlink:href="#DejaVuSans-30" transform="translate(190.869141 0)"/>
      </g>
     </g>
    </g>
    <g id="xtick_3">
     <g id="line2d_3">
      <g>
       <use xlink:href="#m84cb5f675a" x="206.767017" y="257.158895" style="stroke: #000000; stroke-width: 0.8"/>
      </g>
     </g>
     <g id="text_3">
      <!-- 2000 -->
      <g transform="translate(194.042017 271.757332) scale(0.1 -0.1)">
       <defs>
        <path id="DejaVuSans-32" d="M 1228 531 
L 3431 531 
L 3431 0 
L 469 0 
L 469 531 
Q 828 903 1448 1529 
Q 2069 2156 2228 2338 
Q 2531 2678 2651 2914 
Q 2772 3150 2772 3378 
Q 2772 3750 2511 3984 
Q 2250 4219 1831 4219 
Q 1534 4219 1204 4116 
Q 875 4013 500 3803 
L 500 4441 
Q 881 4594 1212 4672 
Q 1544 4750 1819 4750 
Q 2544 4750 2975 4387 
Q 3406 4025 3406 3419 
Q 3406 3131 3298 2873 
Q 3191 2616 2906 2266 
Q 2828 2175 2409 1742 
Q 1991 1309 1228 531 
z
" transform="scale(0.015625)"/>
       </defs>
       <use xlink:href="#DejaVuSans-32"/>
       <use xlink:href="#DejaVuSans-30" transform="translate(63.623047 0)"/>
       <use xlink:href="#DejaVuSans-30" transform="translate(127.246094 0)"/>
       <use xlink:href="#DejaVuSans-30" transform="translate(190.869141 0)"/>
      </g>
     </g>
    </g>
    <g id="xtick_4">
     <g id="line2d_4">
      <g>
       <use xlink:href="#m84cb5f675a" x="275.383714" y="257.158895" style="stroke: #000000; stroke-width: 0.8"/>
      </g>
     </g>
     <g id="text_4">
      <!-- 3000 -->
      <g transform="translate(262.658714 271.757332) scale(0.1 -0.1)">
       <defs>
        <path id="DejaVuSans-33" d="M 2597 2516 
Q 3050 2419 3304 2112 
Q 3559 1806 3559 1356 
Q 3559 666 3084 287 
Q 2609 -91 1734 -91 
Q 1441 -91 1130 -33 
Q 819 25 488 141 
L 488 750 
Q 750 597 1062 519 
Q 1375 441 1716 441 
Q 2309 441 2620 675 
Q 2931 909 2931 1356 
Q 2931 1769 2642 2001 
Q 2353 2234 1838 2234 
L 1294 2234 
L 1294 2753 
L 1863 2753 
Q 2328 2753 2575 2939 
Q 2822 3125 2822 3475 
Q 2822 3834 2567 4026 
Q 2313 4219 1838 4219 
Q 1578 4219 1281 4162 
Q 984 4106 628 3988 
L 628 4550 
Q 988 4650 1302 4700 
Q 1616 4750 1894 4750 
Q 2613 4750 3031 4423 
Q 3450 4097 3450 3541 
Q 3450 3153 3228 2886 
Q 3006 2619 2597 2516 
z
" transform="scale(0.015625)"/>
       </defs>
       <use xlink:href="#DejaVuSans-33"/>
       <use xlink:href="#DejaVuSans-30" transform="translate(63.623047 0)"/>
       <use xlink:href="#DejaVuSans-30" transform="translate(127.246094 0)"/>
       <use xlink:href="#DejaVuSans-30" transform="translate(190.869141 0)"/>
      </g>
     </g>
    </g>
    <g id="xtick_5">
     <g id="line2d_5">
      <g>
       <use xlink:href="#m84cb5f675a" x="344.000411" y="257.158895" style="stroke: #000000; stroke-width: 0.8"/>
      </g>
     </g>
     <g id="text_5">
      <!-- 4000 -->
      <g transform="translate(331.275411 271.757332) scale(0.1 -0.1)">
       <defs>
        <path id="DejaVuSans-34" d="M 2419 4116 
L 825 1625 
L 2419 1625 
L 2419 4116 
z
M 2253 4666 
L 3047 4666 
L 3047 1625 
L 3713 1625 
L 3713 1100 
L 3047 1100 
L 3047 0 
L 2419 0 
L 2419 1100 
L 313 1100 
L 313 1709 
L 2253 4666 
z
" transform="scale(0.015625)"/>
       </defs>
       <use xlink:href="#DejaVuSans-34"/>
       <use xlink:href="#DejaVuSans-30" transform="translate(63.623047 0)"/>
       <use xlink:href="#DejaVuSans-30" transform="translate(127.246094 0)"/>
       <use xlink:href="#DejaVuSans-30" transform="translate(190.869141 0)"/>
      </g>
     </g>
    </g>
    <g id="xtick_6">
     <g id="line2d_6">
      <g>
       <use xlink:href="#m84cb5f675a" x="412.617108" y="257.158895" style="stroke: #000000; stroke-width: 0.8"/>
      </g>
     </g>
     <g id="text_6">
      <!-- 5000 -->
      <g transform="translate(399.892108 271.757332) scale(0.1 -0.1)">
       <defs>
        <path id="DejaVuSans-35" d="M 691 4666 
L 3169 4666 
L 3169 4134 
L 1269 4134 
L 1269 2991 
Q 1406 3038 1543 3061 
Q 1681 3084 1819 3084 
Q 2600 3084 3056 2656 
Q 3513 2228 3513 1497 
Q 3513 744 3044 326 
Q 2575 -91 1722 -91 
Q 1428 -91 1123 -41 
Q 819 9 494 109 
L 494 744 
Q 775 591 1075 516 
Q 1375 441 1709 441 
Q 2250 441 2565 725 
Q 2881 1009 2881 1497 
Q 2881 1984 2565 2268 
Q 2250 2553 1709 2553 
Q 1456 2553 1204 2497 
Q 953 2441 691 2322 
L 691 4666 
z
" transform="scale(0.015625)"/>
       </defs>
       <use xlink:href="#DejaVuSans-35"/>
       <use xlink:href="#DejaVuSans-30" transform="translate(63.623047 0)"/>
       <use xlink:href="#DejaVuSans-30" transform="translate(127.246094 0)"/>
       <use xlink:href="#DejaVuSans-30" transform="translate(190.869141 0)"/>
      </g>
     </g>
    </g>
    <g id="text_7">
     <!-- birth_time [µs] -->
     <g transform="translate(204.193005 285.435457) scale(0.1 -0.1)">
      <defs>
       <path id="DejaVuSans-62" d="M 3116 1747 
Q 3116 2381 2855 2742 
Q 2594 3103 2138 3103 
Q 1681 3103 1420 2742 
Q 1159 2381 1159 1747 
Q 1159 1113 1420 752 
Q 1681 391 2138 391 
Q 2594 391 2855 752 
Q 3116 1113 3116 1747 
z
M 1159 2969 
Q 1341 3281 1617 3432 
Q 1894 3584 2278 3584 
Q 2916 3584 3314 3078 
Q 3713 2572 3713 1747 
Q 3713 922 3314 415 
Q 2916 -91 2278 -91 
Q 1894 -91 1617 61 
Q 1341 213 1159 525 
L 1159 0 
L 581 0 
L 581 4863 
L 1159 4863 
L 1159 2969 
z
" transform="scale(0.015625)"/>
       <path id="DejaVuSans-69" d="M 603 3500 
L 1178 3500 
L 1178 0 
L 603 0 
L 603 3500 
z
M 603 4863 
L 1178 4863 
L 1178 4134 
L 603 4134 
L 603 4863 
z
" transform="scale(0.015625)"/>
       <path id="DejaVuSans-72" d="M 2631 2963 
Q 2534 3019 2420 3045 
Q 2306 3072 2169 3072 
Q 1681 3072 1420 2755 
Q 1159 2438 1159 1844 
L 1159 0 
L 581 0 
L 581 3500 
L 1159 3500 
L 1159 2956 
Q 1341 3275 1631 3429 
Q 1922 3584 2338 3584 
Q 2397 3584 2469 3576 
Q 2541 3569 2628 3553 
L 2631 2963 
z
" transform="scale(0.015625)"/>
       <path id="DejaVuSans-74" d="M 1172 4494 
L 1172 3500 
L 2356 3500 
L 2356 3053 
L 1172 3053 
L 1172 1153 
Q 1172 725 1289 603 
Q 1406 481 1766 481 
L 2356 481 
L 2356 0 
L 1766 0 
Q 1100 0 847 248 
Q 594 497 594 1153 
L 594 3053 
L 172 3053 
L 172 3500 
L 594 3500 
L 594 4494 
L 1172 4494 
z
" transform="scale(0.015625)"/>
       <path id="DejaVuSans-68" d="M 3513 2113 
L 3513 0 
L 2938 0 
L 2938 2094 
Q 2938 2591 2744 2837 
Q 2550 3084 2163 3084 
Q 1697 3084 1428 2787 
Q 1159 2491 1159 1978 
L 1159 0 
L 581 0 
L 581 4863 
L 1159 4863 
L 1159 2956 
Q 1366 3272 1645 3428 
Q 1925 3584 2291 3584 
Q 2894 3584 3203 3211 
Q 3513 2838 3513 2113 
z
" transform="scale(0.015625)"/>
       <path id="DejaVuSans-5f" d="M 3263 -1063 
L 3263 -1509 
L -63 -1509 
L -63 -1063 
L 3263 -1063 
z
" transform="scale(0.015625)"/>
       <path id="DejaVuSans-6d" d="M 3328 2828 
Q 3544 3216 3844 3400 
Q 4144 3584 4550 3584 
Q 5097 3584 5394 3201 
Q 5691 2819 5691 2113 
L 5691 0 
L 5113 0 
L 5113 2094 
Q 5113 2597 4934 2840 
Q 4756 3084 4391 3084 
Q 3944 3084 3684 2787 
Q 3425 2491 3425 1978 
L 3425 0 
L 2847 0 
L 2847 2094 
Q 2847 2600 2669 2842 
Q 2491 3084 2119 3084 
Q 1678 3084 1418 2786 
Q 1159 2488 1159 1978 
L 1159 0 
L 581 0 
L 581 3500 
L 1159 3500 
L 1159 2956 
Q 1356 3278 1631 3431 
Q 1906 3584 2284 3584 
Q 2666 3584 2933 3390 
Q 3200 3197 3328 2828 
z
" transform="scale(0.015625)"/>
       <path id="DejaVuSans-65" d="M 3597 1894 
L 3597 1613 
L 953 1613 
Q 991 1019 1311 708 
Q 1631 397 2203 397 
Q 2534 397 2845 478 
Q 3156 559 3463 722 
L 3463 178 
Q 3153 47 2828 -22 
Q 2503 -91 2169 -91 
Q 1331 -91 842 396 
Q 353 884 353 1716 
Q 353 2575 817 3079 
Q 1281 3584 2069 3584 
Q 2775 3584 3186 3129 
Q 3597 2675 3597 1894 
z
M 3022 2063 
Q 3016 2534 2758 2815 
Q 2500 3097 2075 3097 
Q 1594 3097 1305 2825 
Q 1016 2553 972 2059 
L 3022 2063 
z
" transform="scale(0.015625)"/>
       <path id="DejaVuSans-20" transform="scale(0.015625)"/>
       <path id="DejaVuSans-5b" d="M 550 4863 
L 1875 4863 
L 1875 4416 
L 1125 4416 
L 1125 -397 
L 1875 -397 
L 1875 -844 
L 550 -844 
L 550 4863 
z
" transform="scale(0.015625)"/>
       <path id="DejaVuSans-b5" d="M 544 -1331 
L 544 3500 
L 1119 3500 
L 1119 1325 
Q 1119 872 1334 640 
Q 1550 409 1972 409 
Q 2434 409 2667 671 
Q 2900 934 2900 1459 
L 2900 3500 
L 3475 3500 
L 3475 806 
Q 3475 619 3529 530 
Q 3584 441 3700 441 
Q 3728 441 3778 458 
Q 3828 475 3916 513 
L 3916 50 
Q 3788 -22 3673 -56 
Q 3559 -91 3450 -91 
Q 3234 -91 3106 31 
Q 2978 153 2931 403 
Q 2775 156 2548 32 
Q 2322 -91 2016 -91 
Q 1697 -91 1473 31 
Q 1250 153 1119 397 
L 1119 -1331 
L 544 -1331 
z
" transform="scale(0.015625)"/>
       <path id="DejaVuSans-73" d="M 2834 3397 
L 2834 2853 
Q 2591 2978 2328 3040 
Q 2066 3103 1784 3103 
Q 1356 3103 1142 2972 
Q 928 2841 928 2578 
Q 928 2378 1081 2264 
Q 1234 2150 1697 2047 
L 1894 2003 
Q 2506 1872 2764 1633 
Q 3022 1394 3022 966 
Q 3022 478 2636 193 
Q 2250 -91 1575 -91 
Q 1294 -91 989 -36 
Q 684 19 347 128 
L 347 722 
Q 666 556 975 473 
Q 1284 391 1588 391 
Q 1994 391 2212 530 
Q 2431 669 2431 922 
Q 2431 1156 2273 1281 
Q 2116 1406 1581 1522 
L 1381 1569 
Q 847 1681 609 1914 
Q 372 2147 372 2553 
Q 372 3047 722 3315 
Q 1072 3584 1716 3584 
Q 2034 3584 2315 3537 
Q 2597 3491 2834 3397 
z
" transform="scale(0.015625)"/>
       <path id="DejaVuSans-5d" d="M 1947 4863 
L 1947 -844 
L 622 -844 
L 622 -397 
L 1369 -397 
L 1369 4416 
L 622 4416 
L 622 4863 
L 1947 4863 
z
" transform="scale(0.015625)"/>
      </defs>
      <use xlink:href="#DejaVuSans-62"/>
      <use xlink:href="#DejaVuSans-69" transform="translate(63.476562 0)"/>
      <use xlink:href="#DejaVuSans-72" transform="translate(91.259766 0)"/>
      <use xlink:href="#DejaVuSans-74" transform="translate(132.373047 0)"/>
      <use xlink:href="#DejaVuSans-68" transform="translate(171.582031 0)"/>
      <use xlink:href="#DejaVuSans-5f" transform="translate(234.960938 0)"/>
      <use xlink:href="#DejaVuSans-74" transform="translate(284.960938 0)"/>
      <use xlink:href="#DejaVuSans-69" transform="translate(324.169922 0)"/>
      <use xlink:href="#DejaVuSans-6d" transform="translate(351.953125 0)"/>
      <use xlink:href="#DejaVuSans-65" transform="translate(449.365234 0)"/>
      <use xlink:href="#DejaVuSans-20" transform="translate(510.888672 0)"/>
      <use xlink:href="#DejaVuSans-5b" transform="translate(542.675781 0)"/>
      <use xlink:href="#DejaVuSans-b5" transform="translate(581.689453 0)"/>
      <use xlink:href="#DejaVuSans-73" transform="translate(645.3125 0)"/>
      <use xlink:href="#DejaVuSans-5d" transform="translate(697.412109 0)"/>
     </g>
    </g>
   </g>
   <g id="matplotlib.axis_2">
    <g id="ytick_1">
     <g id="line2d_7">
      <defs>
       <path id="m80f4a6e976" d="M 0 0 
L -3.5 0 
" style="stroke: #000000; stroke-width: 0.8"/>
      </defs>
      <g>
       <use xlink:href="#m80f4a6e976" x="53.328125" y="245.987505" style="stroke: #000000; stroke-width: 0.8"/>
      </g>
     </g>
     <g id="text_8">
      <!-- 0 -->
      <g transform="translate(39.965625 249.786724) scale(0.1 -0.1)">
       <use xlink:href="#DejaVuSans-30"/>
      </g>
     </g>
    </g>
    <g id="ytick_2">
     <g id="line2d_8">
      <g>
       <use xlink:href="#m80f4a6e976" x="53.328125" y="207.911875" style="stroke: #000000; stroke-width: 0.8"/>
      </g>
     </g>
     <g id="text_9">
      <!-- 1000 -->
      <g transform="translate(20.878125 211.711094) scale(0.1 -0.1)">
       <use xlink:href="#DejaVuSans-31"/>
       <use xlink:href="#DejaVuSans-30" transform="translate(63.623047 0)"/>
       <use xlink:href="#DejaVuSans-30" transform="translate(127.246094 0)"/>
       <use xlink:href="#DejaVuSans-30" transform="translate(190.869141 0)"/>
      </g>
     </g>
    </g>
    <g id="ytick_3">
     <g id="line2d_9">
      <g>
       <use xlink:href="#m80f4a6e976" x="53.328125" y="169.836245" style="stroke: #000000; stroke-width: 0.8"/>
      </g>
     </g>
     <g id="text_10">
      <!-- 2000 -->
      <g transform="translate(20.878125 173.635464) scale(0.1 -0.1)">
       <use xlink:href="#DejaVuSans-32"/>
       <use xlink:href="#DejaVuSans-30" transform="translate(63.623047 0)"/>
       <use xlink:href="#DejaVuSans-30" transform="translate(127.246094 0)"/>
       <use xlink:href="#DejaVuSans-30" transform="translate(190.869141 0)"/>
      </g>
     </g>
    </g>
    <g id="ytick_4">
     <g id="line2d_10">
      <g>
       <use xlink:href="#m80f4a6e976" x="53.328125" y="131.760616" style="stroke: #000000; stroke-width: 0.8"/>
      </g>
     </g>
     <g id="text_11">
      <!-- 3000 -->
      <g transform="translate(20.878125 135.559834) scale(0.1 -0.1)">
       <use xlink:href="#DejaVuSans-33"/>
       <use xlink:href="#DejaVuSans-30" transform="translate(63.623047 0)"/>
       <use xlink:href="#DejaVuSans-30" transform="translate(127.246094 0)"/>
       <use xlink:href="#DejaVuSans-30" transform="translate(190.869141 0)"/>
      </g>
     </g>
    </g>
    <g id="ytick_5">
     <g id="line2d_11">
      <g>
       <use xlink:href="#m80f4a6e976" x="53.328125" y="93.684986" style="stroke: #000000; stroke-width: 0.8"/>
      </g>
     </g>
     <g id="text_12">
      <!-- 4000 -->
      <g transform="translate(20.878125 97.484204) scale(0.1 -0.1)">
       <use xlink:href="#DejaVuSans-34"/>
       <use xlink:href="#DejaVuSans-30" transform="translate(63.623047 0)"/>
       <use xlink:href="#DejaVuSans-30" transform="translate(127.246094 0)"/>
       <use xlink:href="#DejaVuSans-30" transform="translate(190.869141 0)"/>
      </g>
     </g>
    </g>
    <g id="ytick_6">
     <g id="line2d_12">
      <g>
       <use xlink:href="#m80f4a6e976" x="53.328125" y="55.609356" style="stroke: #000000; stroke-width: 0.8"/>
      </g>
     </g>
     <g id="text_13">
      <!-- 5000 -->
      <g transform="translate(20.878125 59.408575) scale(0.1 -0.1)">
       <use xlink:href="#DejaVuSans-35"/>
       <use xlink:href="#DejaVuSans-30" transform="translate(63.623047 0)"/>
       <use xlink:href="#DejaVuSans-30" transform="translate(127.246094 0)"/>
       <use xlink:href="#DejaVuSans-30" transform="translate(190.869141 0)"/>
      </g>
     </g>
    </g>
    <g id="ytick_7">
     <g id="line2d_13">
      <g>
       <use xlink:href="#m80f4a6e976" x="53.328125" y="17.533726" style="stroke: #000000; stroke-width: 0.8"/>
      </g>
     </g>
     <g id="text_14">
      <!-- 6000 -->
      <g transform="translate(20.878125 21.332945) scale(0.1 -0.1)">
       <defs>
        <path id="DejaVuSans-36" d="M 2113 2584 
Q 1688 2584 1439 2293 
Q 1191 2003 1191 1497 
Q 1191 994 1439 701 
Q 1688 409 2113 409 
Q 2538 409 2786 701 
Q 3034 994 3034 1497 
Q 3034 2003 2786 2293 
Q 2538 2584 2113 2584 
z
M 3366 4563 
L 3366 3988 
Q 3128 4100 2886 4159 
Q 2644 4219 2406 4219 
Q 1781 4219 1451 3797 
Q 1122 3375 1075 2522 
Q 1259 2794 1537 2939 
Q 1816 3084 2150 3084 
Q 2853 3084 3261 2657 
Q 3669 2231 3669 1497 
Q 3669 778 3244 343 
Q 2819 -91 2113 -91 
Q 1303 -91 875 529 
Q 447 1150 447 2328 
Q 447 3434 972 4092 
Q 1497 4750 2381 4750 
Q 2619 4750 2861 4703 
Q 3103 4656 3366 4563 
z
" transform="scale(0.015625)"/>
       </defs>
       <use xlink:href="#DejaVuSans-36"/>
       <use xlink:href="#DejaVuSans-30" transform="translate(63.623047 0)"/>
       <use xlink:href="#DejaVuSans-30" transform="translate(127.246094 0)"/>
       <use xlink:href="#DejaVuSans-30" transform="translate(190.869141 0)"/>
      </g>
     </g>
    </g>
    <g id="text_15">
     <!-- pulse:0 [counts] -->
     <g transform="translate(14.798438 172.659916) rotate(-90) scale(0.1 -0.1)">
      <defs>
       <path id="DejaVuSans-70" d="M 1159 525 
L 1159 -1331 
L 581 -1331 
L 581 3500 
L 1159 3500 
L 1159 2969 
Q 1341 3281 1617 3432 
Q 1894 3584 2278 3584 
Q 2916 3584 3314 3078 
Q 3713 2572 3713 1747 
Q 3713 922 3314 415 
Q 2916 -91 2278 -91 
Q 1894 -91 1617 61 
Q 1341 213 1159 525 
z
M 3116 1747 
Q 3116 2381 2855 2742 
Q 2594 3103 2138 3103 
Q 1681 3103 1420 2742 
Q 1159 2381 1159 1747 
Q 1159 1113 1420 752 
Q 1681 391 2138 391 
Q 2594 391 2855 752 
Q 3116 1113 3116 1747 
z
" transform="scale(0.015625)"/>
       <path id="DejaVuSans-75" d="M 544 1381 
L 544 3500 
L 1119 3500 
L 1119 1403 
Q 1119 906 1312 657 
Q 1506 409 1894 409 
Q 2359 409 2629 706 
Q 2900 1003 2900 1516 
L 2900 3500 
L 3475 3500 
L 3475 0 
L 2900 0 
L 2900 538 
Q 2691 219 2414 64 
Q 2138 -91 1772 -91 
Q 1169 -91 856 284 
Q 544 659 544 1381 
z
M 1991 3584 
L 1991 3584 
z
" transform="scale(0.015625)"/>
       <path id="DejaVuSans-6c" d="M 603 4863 
L 1178 4863 
L 1178 0 
L 603 0 
L 603 4863 
z
" transform="scale(0.015625)"/>
       <path id="DejaVuSans-3a" d="M 750 794 
L 1409 794 
L 1409 0 
L 750 0 
L 750 794 
z
M 750 3309 
L 1409 3309 
L 1409 2516 
L 750 2516 
L 750 3309 
z
" transform="scale(0.015625)"/>
       <path id="DejaVuSans-63" d="M 3122 3366 
L 3122 2828 
Q 2878 2963 2633 3030 
Q 2388 3097 2138 3097 
Q 1578 3097 1268 2742 
Q 959 2388 959 1747 
Q 959 1106 1268 751 
Q 1578 397 2138 397 
Q 2388 397 2633 464 
Q 2878 531 3122 666 
L 3122 134 
Q 2881 22 2623 -34 
Q 2366 -91 2075 -91 
Q 1284 -91 818 406 
Q 353 903 353 1747 
Q 353 2603 823 3093 
Q 1294 3584 2113 3584 
Q 2378 3584 2631 3529 
Q 2884 3475 3122 3366 
z
" transform="scale(0.015625)"/>
       <path id="DejaVuSans-6f" d="M 1959 3097 
Q 1497 3097 1228 2736 
Q 959 2375 959 1747 
Q 959 1119 1226 758 
Q 1494 397 1959 397 
Q 2419 397 2687 759 
Q 2956 1122 2956 1747 
Q 2956 2369 2687 2733 
Q 2419 3097 1959 3097 
z
M 1959 3584 
Q 2709 3584 3137 3096 
Q 3566 2609 3566 1747 
Q 3566 888 3137 398 
Q 2709 -91 1959 -91 
Q 1206 -91 779 398 
Q 353 888 353 1747 
Q 353 2609 779 3096 
Q 1206 3584 1959 3584 
z
" transform="scale(0.015625)"/>
       <path id="DejaVuSans-6e" d="M 3513 2113 
L 3513 0 
L 2938 0 
L 2938 2094 
Q 2938 2591 2744 2837 
Q 2550 3084 2163 3084 
Q 1697 3084 1428 2787 
Q 1159 2491 1159 1978 
L 1159 0 
L 581 0 
L 581 3500 
L 1159 3500 
L 1159 2956 
Q 1366 3272 1645 3428 
Q 1925 3584 2291 3584 
Q 2894 3584 3203 3211 
Q 3513 2838 3513 2113 
z
" transform="scale(0.015625)"/>
      </defs>
      <use xlink:href="#DejaVuSans-70"/>
      <use xlink:href="#DejaVuSans-75" transform="translate(63.476562 0)"/>
      <use xlink:href="#DejaVuSans-6c" transform="translate(126.855469 0)"/>
      <use xlink:href="#DejaVuSans-73" transform="translate(154.638672 0)"/>
      <use xlink:href="#DejaVuSans-65" transform="translate(206.738281 0)"/>
      <use xlink:href="#DejaVuSans-3a" transform="translate(268.261719 0)"/>
      <use xlink:href="#DejaVuSans-30" transform="translate(301.953125 0)"/>
      <use xlink:href="#DejaVuSans-20" transform="translate(365.576172 0)"/>
      <use xlink:href="#DejaVuSans-5b" transform="translate(397.363281 0)"/>
      <use xlink:href="#DejaVuSans-63" transform="translate(436.376953 0)"/>
      <use xlink:href="#DejaVuSans-6f" transform="translate(491.357422 0)"/>
      <use xlink:href="#DejaVuSans-75" transform="translate(552.539062 0)"/>
      <use xlink:href="#DejaVuSans-6e" transform="translate(615.917969 0)"/>
      <use xlink:href="#DejaVuSans-74" transform="translate(679.296875 0)"/>
      <use xlink:href="#DejaVuSans-73" transform="translate(718.505859 0)"/>
      <use xlink:href="#DejaVuSans-5d" transform="translate(770.605469 0)"/>
     </g>
    </g>
   </g>
   <g id="line2d_14">
    <path d="M 70.390415 234.831346 
L 71.527901 234.831346 
L 71.527901 227.330447 
L 72.665387 227.330447 
L 72.665387 218.306522 
L 73.802873 218.306522 
L 73.802873 209.967959 
L 74.940359 209.967959 
L 74.940359 201.972077 
L 76.077845 201.972077 
L 76.077845 194.052346 
L 77.215331 194.052346 
L 77.215331 184.266909 
L 78.352817 184.266909 
L 78.352817 175.623741 
L 79.490303 175.623741 
L 79.490303 168.503598 
L 80.627789 168.503598 
L 80.627789 156.928607 
L 81.765275 156.928607 
L 81.765275 151.712246 
L 82.902761 151.712246 
L 82.902761 145.163237 
L 84.040247 145.163237 
L 84.040247 138.309624 
L 85.177733 138.309624 
L 85.177733 130.351817 
L 86.315219 130.351817 
L 86.315219 125.173532 
L 87.452705 125.173532 
L 87.452705 120.870985 
L 88.590191 120.870985 
L 88.590191 116.378061 
L 89.727677 116.378061 
L 89.727677 112.913179 
L 90.865163 112.913179 
L 90.865163 105.107675 
L 92.00265 105.107675 
L 92.00265 99.700935 
L 93.140136 99.700935 
L 93.140136 97.187944 
L 94.277622 97.187944 
L 94.277622 92.466566 
L 95.415108 92.466566 
L 95.415108 90.981616 
L 96.552594 90.981616 
L 96.552594 86.374465 
L 97.69008 86.374465 
L 97.69008 84.85144 
L 98.827566 84.85144 
L 98.827566 77.807448 
L 99.965052 77.807448 
L 99.965052 76.512877 
L 101.102538 76.512877 
L 101.102538 73.733356 
L 102.240024 73.733356 
L 102.240024 66.270532 
L 103.37751 66.270532 
L 103.37751 64.02407 
L 104.514996 64.02407 
L 104.514996 70.230398 
L 105.652482 70.230398 
L 105.652482 66.613213 
L 106.789968 66.613213 
L 106.789968 63.681389 
L 107.927454 63.681389 
L 107.927454 54.695541 
L 109.06494 54.695541 
L 109.06494 60.97802 
L 110.202426 60.97802 
L 110.202426 52.372927 
L 111.339912 52.372927 
L 111.339912 52.86791 
L 112.477398 52.86791 
L 112.477398 55.495129 
L 113.614884 55.495129 
L 113.614884 53.934028 
L 114.75237 53.934028 
L 114.75237 51.116431 
L 115.889856 51.116431 
L 115.889856 57.05623 
L 117.027342 57.05623 
L 117.027342 45.90007 
L 118.164828 45.90007 
L 118.164828 44.605499 
L 119.302314 44.605499 
L 119.302314 48.146532 
L 120.4398 48.146532 
L 120.4398 46.547356 
L 121.577286 46.547356 
L 121.577286 45.176633 
L 122.714772 45.176633 
L 122.714772 42.663642 
L 124.989744 42.625566 
L 124.989744 40.188726 
L 126.12723 40.188726 
L 126.12723 39.579516 
L 127.264716 39.579516 
L 127.264716 36.876146 
L 128.402202 36.876146 
L 128.402202 38.437247 
L 129.539688 38.437247 
L 129.539688 38.665701 
L 130.677174 38.665701 
L 130.677174 40.912163 
L 131.81466 40.912163 
L 131.81466 33.335112 
L 132.952146 33.335112 
L 132.952146 31.812087 
L 134.089632 31.812087 
L 134.089632 40.836011 
L 135.227118 40.836011 
L 135.227118 25.148852 
L 136.364604 25.148852 
L 136.364604 33.106659 
L 137.50209 33.106659 
L 137.50209 33.335112 
L 138.639576 33.335112 
L 138.639576 36.876146 
L 139.777062 36.876146 
L 139.777062 30.74597 
L 140.914548 30.74597 
L 140.914548 31.659785 
L 142.052034 31.659785 
L 142.052034 30.022533 
L 143.18952 30.022533 
L 143.18952 29.222944 
L 144.327006 29.222944 
L 144.327006 28.727961 
L 145.464492 28.727961 
L 145.464492 33.563566 
L 146.601978 33.563566 
L 146.601978 29.565625 
L 147.739464 29.565625 
L 147.739464 31.431331 
L 148.87695 31.431331 
L 148.87695 30.669818 
L 150.014436 30.669818 
L 150.014436 27.737995 
L 151.151922 27.737995 
L 151.151922 34.743911 
L 152.289408 34.743911 
L 152.289408 24.577717 
L 153.426894 24.577717 
L 153.426894 32.078617 
L 154.56438 32.078617 
L 154.56438 34.020474 
L 155.701866 34.020474 
L 155.701866 25.758062 
L 156.839352 25.758062 
L 156.839352 27.395314 
L 157.976838 27.395314 
L 157.976838 30.936348 
L 159.114324 30.936348 
L 159.114324 33.487415 
L 160.25181 33.487415 
L 160.25181 29.337171 
L 161.389296 29.337171 
L 161.389296 31.469406 
L 162.526782 31.469406 
L 162.526782 26.176894 
L 163.664268 26.176894 
L 163.664268 28.956415 
L 164.801754 28.956415 
L 164.801754 25.415381 
L 165.93924 25.415381 
L 165.93924 31.96439 
L 167.076727 31.96439 
L 167.076727 29.451398 
L 168.214213 29.451398 
L 168.214213 24.006583 
L 169.351699 24.006583 
L 169.351699 29.832154 
L 170.489185 29.832154 
L 170.489185 24.425415 
L 171.626671 24.425415 
L 171.626671 31.469406 
L 172.764157 31.469406 
L 172.764157 25.034625 
L 173.901643 25.034625 
L 173.901643 25.453457 
L 175.039129 25.453457 
L 175.039129 32.30707 
L 176.176615 32.30707 
L 176.176615 22.864314 
L 177.314101 22.864314 
L 177.314101 29.984457 
L 178.451587 29.984457 
L 178.451587 18.561768 
L 179.589073 18.561768 
L 179.589073 26.976482 
L 180.726559 26.976482 
L 180.726559 35.200818 
L 181.864045 35.200818 
L 181.864045 25.758062 
L 183.001531 25.758062 
L 183.001531 24.12081 
L 184.139017 24.12081 
L 184.139017 19.551734 
L 185.276503 19.551734 
L 185.276503 22.978541 
L 186.413989 22.978541 
L 186.413989 29.032566 
L 187.551475 29.032566 
L 187.551475 26.176894 
L 188.688961 26.176894 
L 188.688961 27.509541 
L 189.826447 27.509541 
L 189.826447 28.271054 
L 190.963933 28.271054 
L 190.963933 21.112835 
L 192.101419 21.112835 
L 192.101419 25.453457 
L 193.238905 25.453457 
L 193.238905 20.427474 
L 194.376391 20.427474 
L 194.376391 25.986516 
L 195.513877 25.986516 
L 195.513877 27.814146 
L 196.651363 27.814146 
L 196.651363 27.585692 
L 197.788849 27.585692 
L 197.788849 24.463491 
L 198.926335 24.463491 
L 198.926335 25.263079 
L 200.063821 25.263079 
L 200.063821 25.072701 
L 201.201307 25.072701 
L 201.201307 26.671877 
L 202.338793 26.671877 
L 202.338793 24.463491 
L 203.476279 24.463491 
L 203.476279 22.140877 
L 204.613765 22.140877 
L 204.613765 24.882323 
L 205.751251 24.882323 
L 205.751251 33.030507 
L 206.888737 33.030507 
L 206.888737 23.625827 
L 208.026223 23.625827 
L 208.026223 22.712012 
L 209.163709 22.712012 
L 209.163709 19.818264 
L 210.301195 19.818264 
L 210.301195 24.577717 
L 211.438681 24.577717 
L 211.438681 26.55765 
L 212.576167 26.55765 
L 212.576167 22.940465 
L 213.713653 22.940465 
L 213.713653 29.032566 
L 214.851139 29.032566 
L 214.851139 27.395314 
L 215.988625 27.395314 
L 215.988625 25.605759 
L 218.263597 25.643835 
L 218.263597 21.531667 
L 219.401083 21.531667 
L 219.401083 24.996549 
L 220.538569 24.996549 
L 220.538569 28.461432 
L 221.676055 28.461432 
L 221.676055 24.006583 
L 222.813541 24.006583 
L 222.813541 26.291121 
L 223.951027 26.291121 
L 223.951027 26.519575 
L 225.088513 26.519575 
L 225.088513 22.255104 
L 226.225999 22.255104 
L 226.225999 20.732079 
L 227.363485 20.732079 
L 227.363485 25.034625 
L 228.500971 25.034625 
L 228.500971 25.910365 
L 229.638457 25.910365 
L 229.638457 22.826239 
L 230.775943 22.826239 
L 230.775943 22.559709 
L 231.913429 22.559709 
L 231.913429 23.816205 
L 233.050915 23.816205 
L 233.050915 24.882323 
L 234.188401 24.882323 
L 234.188401 34.553533 
L 235.325887 34.553533 
L 235.325887 24.615793 
L 236.463373 24.615793 
L 236.463373 25.072701 
L 237.600859 25.072701 
L 237.600859 26.519575 
L 238.738345 26.519575 
L 238.738345 20.732079 
L 239.875831 20.732079 
L 239.875831 22.597785 
L 241.013317 22.597785 
L 241.013317 24.463491 
L 242.150804 24.463491 
L 242.150804 28.918339 
L 243.28829 28.918339 
L 243.28829 26.671877 
L 244.425776 26.671877 
L 244.425776 21.303213 
L 245.563262 21.303213 
L 245.563262 28.194902 
L 246.700748 28.194902 
L 246.700748 25.33923 
L 247.838234 25.33923 
L 247.838234 21.493591 
L 248.97572 21.493591 
L 248.97572 28.918339 
L 250.113206 28.918339 
L 250.113206 27.014558 
L 251.250692 27.014558 
L 251.250692 29.451398 
L 252.388178 29.451398 
L 252.388178 31.926314 
L 253.525664 31.926314 
L 253.525664 24.006583 
L 254.66315 24.006583 
L 254.66315 19.780188 
L 255.800636 19.780188 
L 255.800636 24.920398 
L 256.938122 24.920398 
L 256.938122 26.21497 
L 258.075608 26.21497 
L 258.075608 25.415381 
L 259.213094 25.415381 
L 259.213094 24.196961 
L 261.488066 24.158886 
L 261.488066 21.265138 
L 262.625552 21.265138 
L 262.625552 24.882323 
L 263.763038 24.882323 
L 263.763038 27.090709 
L 264.900524 27.090709 
L 264.900524 28.842188 
L 266.03801 28.842188 
L 266.03801 36.152709 
L 267.175496 36.152709 
L 267.175496 42.359037 
L 268.312982 42.359037 
L 268.312982 50.392995 
L 269.450468 50.392995 
L 269.450468 56.408944 
L 270.587954 56.408944 
L 270.587954 65.280566 
L 271.72544 65.280566 
L 271.72544 74.152188 
L 272.862926 74.152188 
L 272.862926 81.995767 
L 274.000412 81.995767 
L 274.000412 91.095843 
L 275.137898 91.095843 
L 275.137898 101.985473 
L 276.275384 101.985473 
L 276.275384 111.123624 
L 277.41287 111.123624 
L 277.41287 121.213666 
L 278.550356 121.213666 
L 278.550356 120.947137 
L 279.687842 120.947137 
L 279.687842 129.818758 
L 280.825328 129.818758 
L 280.825328 137.015052 
L 281.962814 137.015052 
L 281.962814 139.261515 
L 283.1003 139.261515 
L 283.1003 145.734372 
L 284.237786 145.734372 
L 284.237786 150.608052 
L 285.375272 150.608052 
L 285.375272 155.291355 
L 286.512758 155.291355 
L 286.512758 163.78222 
L 287.650244 163.78222 
L 287.650244 169.79817 
L 288.78773 169.79817 
L 288.78773 175.852195 
L 289.925216 175.852195 
L 289.925216 177.222918 
L 291.062702 177.222918 
L 291.062702 178.022506 
L 292.200188 178.022506 
L 292.200188 183.581548 
L 293.337674 183.581548 
L 293.337674 186.361069 
L 294.47516 186.361069 
L 294.47516 189.864027 
L 295.612646 189.864027 
L 295.612646 193.176607 
L 296.750132 193.176607 
L 296.750132 195.232691 
L 297.887618 195.232691 
L 297.887618 198.735649 
L 299.025104 198.735649 
L 299.025104 204.599296 
L 300.16259 204.599296 
L 300.16259 201.591321 
L 301.300076 201.591321 
L 301.300076 206.845758 
L 302.437562 206.845758 
L 302.437562 208.21648 
L 303.575048 208.21648 
L 303.575048 210.996001 
L 304.712534 210.996001 
L 304.712534 208.939917 
L 305.85002 208.939917 
L 305.85002 213.775522 
L 306.987506 213.775522 
L 306.987506 215.184321 
L 308.124992 215.184321 
L 308.124992 217.735388 
L 310.399964 217.811539 
L 310.399964 218.458825 
L 311.53745 218.458825 
L 311.53745 221.162195 
L 312.674936 221.162195 
L 312.674936 223.63711 
L 314.949908 223.63711 
L 314.949908 225.350514 
L 316.087394 225.350514 
L 316.087394 225.693194 
L 317.224881 225.693194 
L 317.224881 226.759312 
L 318.362367 226.759312 
L 318.362367 227.5589 
L 319.499853 227.5589 
L 319.499853 228.891547 
L 320.637339 228.891547 
L 320.637339 230.604951 
L 321.774825 230.604951 
L 321.774825 230.985707 
L 322.912311 230.985707 
L 322.912311 233.194094 
L 324.049797 233.194094 
L 324.049797 232.813337 
L 325.187283 232.813337 
L 325.187283 233.117942 
L 326.324769 233.117942 
L 326.324769 234.336362 
L 327.462255 234.336362 
L 327.462255 234.564816 
L 328.599741 234.564816 
L 328.599741 234.679043 
L 330.874713 234.717119 
L 330.874713 236.544749 
L 332.012199 236.544749 
L 332.012199 236.430522 
L 333.149685 236.430522 
L 333.149685 238.905438 
L 334.287171 238.905438 
L 334.287171 237.725094 
L 335.424657 237.725094 
L 335.424657 237.458564 
L 336.562143 237.458564 
L 336.562143 238.829287 
L 337.699629 238.829287 
L 337.699629 238.638909 
L 338.837115 238.638909 
L 338.837115 239.590799 
L 339.974601 239.590799 
L 339.974601 239.057741 
L 341.112087 239.057741 
L 341.112087 240.352312 
L 342.249573 240.352312 
L 342.249573 241.037673 
L 343.387059 241.037673 
L 343.387059 240.200009 
L 344.524545 240.200009 
L 344.524545 240.771144 
L 345.662031 240.771144 
L 345.662031 240.961522 
L 346.799517 240.961522 
L 346.799517 241.380354 
L 347.937003 241.380354 
L 347.937003 241.1519 
L 349.074489 241.1519 
L 349.074489 241.875337 
L 350.211975 241.875337 
L 350.211975 242.02764 
L 352.486947 242.02764 
L 352.486947 242.218018 
L 353.624433 242.218018 
L 353.624433 243.055682 
L 354.761919 243.055682 
L 354.761919 242.903379 
L 357.036891 242.865304 
L 357.036891 243.474514 
L 358.174377 243.474514 
L 358.174377 243.169909 
L 360.449349 243.24606 
L 360.449349 243.512589 
L 361.586835 243.512589 
L 361.586835 243.664892 
L 362.724321 243.664892 
L 362.724321 244.236026 
L 363.861807 244.236026 
L 363.861807 243.664892 
L 364.999293 243.664892 
L 364.999293 244.578707 
L 366.136779 244.578707 
L 366.136779 244.007572 
L 367.274265 244.007572 
L 367.274265 243.664892 
L 368.411751 243.664892 
L 368.411751 244.159875 
L 369.549237 244.159875 
L 369.549237 244.540631 
L 371.824209 244.616783 
L 371.824209 244.426404 
L 372.961695 244.426404 
L 372.961695 244.616783 
L 374.099181 244.616783 
L 374.099181 244.845236 
L 375.236667 244.845236 
L 375.236667 244.692934 
L 376.374153 244.692934 
L 376.374153 244.883312 
L 378.649125 244.959463 
L 378.649125 244.692934 
L 379.786611 244.692934 
L 379.786611 245.111766 
L 382.061583 245.07369 
L 382.061583 244.959463 
L 385.474041 244.921388 
L 385.474041 245.111766 
L 386.611527 245.111766 
L 386.611527 245.454446 
L 387.749013 245.454446 
L 387.749013 245.187917 
L 390.023985 245.264068 
L 390.023985 245.302144 
L 391.161471 245.302144 
L 391.161471 245.568673 
L 392.298958 245.568673 
L 392.298958 245.378295 
L 394.57393 245.378295 
L 394.57393 245.644825 
L 395.711416 245.644825 
L 395.711416 245.264068 
L 396.848902 245.264068 
L 396.848902 245.530598 
L 397.986388 245.530598 
L 397.986388 245.644825 
L 399.123874 245.644825 
L 399.123874 245.530598 
L 400.26136 245.530598 
L 400.26136 245.6829 
L 401.398846 245.6829 
L 401.398846 245.492522 
L 404.811304 245.416371 
L 404.811304 245.797127 
L 408.223762 245.720976 
L 408.223762 245.6829 
L 410.498734 245.6829 
L 410.498734 245.797127 
L 411.63622 245.797127 
L 411.63622 245.797127 
" clip-path="url(#p77f3da66a7)" style="fill: none; stroke: #1f77b4; stroke-width: 1.5; stroke-linecap: square"/>
   </g>
   <g id="patch_3">
    <path d="M 53.328125 257.158895 
L 53.328125 7.2 
" style="fill: none; stroke: #000000; stroke-width: 0.8; stroke-linejoin: miter; stroke-linecap: square"/>
   </g>
   <g id="patch_4">
    <path d="M 428.69851 257.158895 
L 428.69851 7.2 
" style="fill: none; stroke: #000000; stroke-width: 0.8; stroke-linejoin: miter; stroke-linecap: square"/>
   </g>
   <g id="patch_5">
    <path d="M 53.328125 257.158895 
L 428.69851 257.158895 
" style="fill: none; stroke: #000000; stroke-width: 0.8; stroke-linejoin: miter; stroke-linecap: square"/>
   </g>
   <g id="patch_6">
    <path d="M 53.328125 7.2 
L 428.69851 7.2 
" style="fill: none; stroke: #000000; stroke-width: 0.8; stroke-linejoin: miter; stroke-linecap: square"/>
   </g>
  </g>
  <g id="axes_2">
   <g id="patch_7">
    <path d="M 489.829135 257.158895 
L 865.19952 257.158895 
L 865.19952 7.2 
L 489.829135 7.2 
z
" style="fill: #ffffff"/>
   </g>
   <g id="matplotlib.axis_3">
    <g id="xtick_7">
     <g id="line2d_15">
      <g>
       <use xlink:href="#m84cb5f675a" x="503.450826" y="257.158895" style="stroke: #000000; stroke-width: 0.8"/>
      </g>
     </g>
     <g id="text_16">
      <!-- 0.0 -->
      <g transform="translate(495.499263 271.757332) scale(0.1 -0.1)">
       <defs>
        <path id="DejaVuSans-2e" d="M 684 794 
L 1344 794 
L 1344 0 
L 684 0 
L 684 794 
z
" transform="scale(0.015625)"/>
       </defs>
       <use xlink:href="#DejaVuSans-30"/>
       <use xlink:href="#DejaVuSans-2e" transform="translate(63.623047 0)"/>
       <use xlink:href="#DejaVuSans-30" transform="translate(95.410156 0)"/>
      </g>
     </g>
    </g>
    <g id="xtick_8">
     <g id="line2d_16">
      <g>
       <use xlink:href="#m84cb5f675a" x="546.778565" y="257.158895" style="stroke: #000000; stroke-width: 0.8"/>
      </g>
     </g>
     <g id="text_17">
      <!-- 2.5 -->
      <g transform="translate(538.827002 271.757332) scale(0.1 -0.1)">
       <use xlink:href="#DejaVuSans-32"/>
       <use xlink:href="#DejaVuSans-2e" transform="translate(63.623047 0)"/>
       <use xlink:href="#DejaVuSans-35" transform="translate(95.410156 0)"/>
      </g>
     </g>
    </g>
    <g id="xtick_9">
     <g id="line2d_17">
      <g>
       <use xlink:href="#m84cb5f675a" x="590.106303" y="257.158895" style="stroke: #000000; stroke-width: 0.8"/>
      </g>
     </g>
     <g id="text_18">
      <!-- 5.0 -->
      <g transform="translate(582.154741 271.757332) scale(0.1 -0.1)">
       <use xlink:href="#DejaVuSans-35"/>
       <use xlink:href="#DejaVuSans-2e" transform="translate(63.623047 0)"/>
       <use xlink:href="#DejaVuSans-30" transform="translate(95.410156 0)"/>
      </g>
     </g>
    </g>
    <g id="xtick_10">
     <g id="line2d_18">
      <g>
       <use xlink:href="#m84cb5f675a" x="633.434042" y="257.158895" style="stroke: #000000; stroke-width: 0.8"/>
      </g>
     </g>
     <g id="text_19">
      <!-- 7.5 -->
      <g transform="translate(625.48248 271.757332) scale(0.1 -0.1)">
       <defs>
        <path id="DejaVuSans-37" d="M 525 4666 
L 3525 4666 
L 3525 4397 
L 1831 0 
L 1172 0 
L 2766 4134 
L 525 4134 
L 525 4666 
z
" transform="scale(0.015625)"/>
       </defs>
       <use xlink:href="#DejaVuSans-37"/>
       <use xlink:href="#DejaVuSans-2e" transform="translate(63.623047 0)"/>
       <use xlink:href="#DejaVuSans-35" transform="translate(95.410156 0)"/>
      </g>
     </g>
    </g>
    <g id="xtick_11">
     <g id="line2d_19">
      <g>
       <use xlink:href="#m84cb5f675a" x="676.761781" y="257.158895" style="stroke: #000000; stroke-width: 0.8"/>
      </g>
     </g>
     <g id="text_20">
      <!-- 10.0 -->
      <g transform="translate(665.628969 271.757332) scale(0.1 -0.1)">
       <use xlink:href="#DejaVuSans-31"/>
       <use xlink:href="#DejaVuSans-30" transform="translate(63.623047 0)"/>
       <use xlink:href="#DejaVuSans-2e" transform="translate(127.246094 0)"/>
       <use xlink:href="#DejaVuSans-30" transform="translate(159.033203 0)"/>
      </g>
     </g>
    </g>
    <g id="xtick_12">
     <g id="line2d_20">
      <g>
       <use xlink:href="#m84cb5f675a" x="720.08952" y="257.158895" style="stroke: #000000; stroke-width: 0.8"/>
      </g>
     </g>
     <g id="text_21">
      <!-- 12.5 -->
      <g transform="translate(708.956707 271.757332) scale(0.1 -0.1)">
       <use xlink:href="#DejaVuSans-31"/>
       <use xlink:href="#DejaVuSans-32" transform="translate(63.623047 0)"/>
       <use xlink:href="#DejaVuSans-2e" transform="translate(127.246094 0)"/>
       <use xlink:href="#DejaVuSans-35" transform="translate(159.033203 0)"/>
      </g>
     </g>
    </g>
    <g id="xtick_13">
     <g id="line2d_21">
      <g>
       <use xlink:href="#m84cb5f675a" x="763.417259" y="257.158895" style="stroke: #000000; stroke-width: 0.8"/>
      </g>
     </g>
     <g id="text_22">
      <!-- 15.0 -->
      <g transform="translate(752.284446 271.757332) scale(0.1 -0.1)">
       <use xlink:href="#DejaVuSans-31"/>
       <use xlink:href="#DejaVuSans-35" transform="translate(63.623047 0)"/>
       <use xlink:href="#DejaVuSans-2e" transform="translate(127.246094 0)"/>
       <use xlink:href="#DejaVuSans-30" transform="translate(159.033203 0)"/>
      </g>
     </g>
    </g>
    <g id="xtick_14">
     <g id="line2d_22">
      <g>
       <use xlink:href="#m84cb5f675a" x="806.744998" y="257.158895" style="stroke: #000000; stroke-width: 0.8"/>
      </g>
     </g>
     <g id="text_23">
      <!-- 17.5 -->
      <g transform="translate(795.612185 271.757332) scale(0.1 -0.1)">
       <use xlink:href="#DejaVuSans-31"/>
       <use xlink:href="#DejaVuSans-37" transform="translate(63.623047 0)"/>
       <use xlink:href="#DejaVuSans-2e" transform="translate(127.246094 0)"/>
       <use xlink:href="#DejaVuSans-35" transform="translate(159.033203 0)"/>
      </g>
     </g>
    </g>
    <g id="xtick_15">
     <g id="line2d_23">
      <g>
       <use xlink:href="#m84cb5f675a" x="850.072736" y="257.158895" style="stroke: #000000; stroke-width: 0.8"/>
      </g>
     </g>
     <g id="text_24">
      <!-- 20.0 -->
      <g transform="translate(838.939924 271.757332) scale(0.1 -0.1)">
       <use xlink:href="#DejaVuSans-32"/>
       <use xlink:href="#DejaVuSans-30" transform="translate(63.623047 0)"/>
       <use xlink:href="#DejaVuSans-2e" transform="translate(127.246094 0)"/>
       <use xlink:href="#DejaVuSans-30" transform="translate(159.033203 0)"/>
      </g>
     </g>
    </g>
    <g id="text_25">
     <!-- wavelength [Å] -->
     <g transform="translate(639.476827 287.119832) scale(0.1 -0.1)">
      <defs>
       <path id="DejaVuSans-77" d="M 269 3500 
L 844 3500 
L 1563 769 
L 2278 3500 
L 2956 3500 
L 3675 769 
L 4391 3500 
L 4966 3500 
L 4050 0 
L 3372 0 
L 2619 2869 
L 1863 0 
L 1184 0 
L 269 3500 
z
" transform="scale(0.015625)"/>
       <path id="DejaVuSans-61" d="M 2194 1759 
Q 1497 1759 1228 1600 
Q 959 1441 959 1056 
Q 959 750 1161 570 
Q 1363 391 1709 391 
Q 2188 391 2477 730 
Q 2766 1069 2766 1631 
L 2766 1759 
L 2194 1759 
z
M 3341 1997 
L 3341 0 
L 2766 0 
L 2766 531 
Q 2569 213 2275 61 
Q 1981 -91 1556 -91 
Q 1019 -91 701 211 
Q 384 513 384 1019 
Q 384 1609 779 1909 
Q 1175 2209 1959 2209 
L 2766 2209 
L 2766 2266 
Q 2766 2663 2505 2880 
Q 2244 3097 1772 3097 
Q 1472 3097 1187 3025 
Q 903 2953 641 2809 
L 641 3341 
Q 956 3463 1253 3523 
Q 1550 3584 1831 3584 
Q 2591 3584 2966 3190 
Q 3341 2797 3341 1997 
z
" transform="scale(0.015625)"/>
       <path id="DejaVuSans-76" d="M 191 3500 
L 800 3500 
L 1894 563 
L 2988 3500 
L 3597 3500 
L 2284 0 
L 1503 0 
L 191 3500 
z
" transform="scale(0.015625)"/>
       <path id="DejaVuSans-67" d="M 2906 1791 
Q 2906 2416 2648 2759 
Q 2391 3103 1925 3103 
Q 1463 3103 1205 2759 
Q 947 2416 947 1791 
Q 947 1169 1205 825 
Q 1463 481 1925 481 
Q 2391 481 2648 825 
Q 2906 1169 2906 1791 
z
M 3481 434 
Q 3481 -459 3084 -895 
Q 2688 -1331 1869 -1331 
Q 1566 -1331 1297 -1286 
Q 1028 -1241 775 -1147 
L 775 -588 
Q 1028 -725 1275 -790 
Q 1522 -856 1778 -856 
Q 2344 -856 2625 -561 
Q 2906 -266 2906 331 
L 2906 616 
Q 2728 306 2450 153 
Q 2172 0 1784 0 
Q 1141 0 747 490 
Q 353 981 353 1791 
Q 353 2603 747 3093 
Q 1141 3584 1784 3584 
Q 2172 3584 2450 3431 
Q 2728 3278 2906 2969 
L 2906 3500 
L 3481 3500 
L 3481 434 
z
" transform="scale(0.015625)"/>
       <path id="DejaVuSans-c5" d="M 2663 5081 
Q 2663 5278 2523 5417 
Q 2384 5556 2188 5556 
Q 1988 5556 1852 5420 
Q 1716 5284 1716 5081 
Q 1716 4884 1853 4746 
Q 1991 4609 2188 4609 
Q 2384 4609 2523 4746 
Q 2663 4884 2663 5081 
z
M 2188 4044 
L 1338 1722 
L 3041 1722 
L 2188 4044 
z
M 1716 4366 
Q 1525 4494 1428 4673 
Q 1331 4853 1331 5081 
Q 1331 5441 1579 5691 
Q 1828 5941 2188 5941 
Q 2544 5941 2795 5689 
Q 3047 5438 3047 5081 
Q 3047 4863 2948 4678 
Q 2850 4494 2663 4366 
L 4325 0 
L 3669 0 
L 3244 1197 
L 1141 1197 
L 716 0 
L 50 0 
L 1716 4366 
z
" transform="scale(0.015625)"/>
      </defs>
      <use xlink:href="#DejaVuSans-77"/>
      <use xlink:href="#DejaVuSans-61" transform="translate(81.787109 0)"/>
      <use xlink:href="#DejaVuSans-76" transform="translate(143.066406 0)"/>
      <use xlink:href="#DejaVuSans-65" transform="translate(202.246094 0)"/>
      <use xlink:href="#DejaVuSans-6c" transform="translate(263.769531 0)"/>
      <use xlink:href="#DejaVuSans-65" transform="translate(291.552734 0)"/>
      <use xlink:href="#DejaVuSans-6e" transform="translate(353.076172 0)"/>
      <use xlink:href="#DejaVuSans-67" transform="translate(416.455078 0)"/>
      <use xlink:href="#DejaVuSans-74" transform="translate(479.931641 0)"/>
      <use xlink:href="#DejaVuSans-68" transform="translate(519.140625 0)"/>
      <use xlink:href="#DejaVuSans-20" transform="translate(582.519531 0)"/>
      <use xlink:href="#DejaVuSans-5b" transform="translate(614.306641 0)"/>
      <use xlink:href="#DejaVuSans-c5" transform="translate(653.320312 0)"/>
      <use xlink:href="#DejaVuSans-5d" transform="translate(721.728516 0)"/>
     </g>
    </g>
   </g>
   <g id="matplotlib.axis_4">
    <g id="ytick_8">
     <g id="line2d_24">
      <g>
       <use xlink:href="#m80f4a6e976" x="489.829135" y="245.871197" style="stroke: #000000; stroke-width: 0.8"/>
      </g>
     </g>
     <g id="text_26">
      <!-- 0 -->
      <g transform="translate(476.466635 249.670416) scale(0.1 -0.1)">
       <use xlink:href="#DejaVuSans-30"/>
      </g>
     </g>
    </g>
    <g id="ytick_9">
     <g id="line2d_25">
      <g>
       <use xlink:href="#m80f4a6e976" x="489.829135" y="192.964245" style="stroke: #000000; stroke-width: 0.8"/>
      </g>
     </g>
     <g id="text_27">
      <!-- 5000 -->
      <g transform="translate(457.379135 196.763463) scale(0.1 -0.1)">
       <use xlink:href="#DejaVuSans-35"/>
       <use xlink:href="#DejaVuSans-30" transform="translate(63.623047 0)"/>
       <use xlink:href="#DejaVuSans-30" transform="translate(127.246094 0)"/>
       <use xlink:href="#DejaVuSans-30" transform="translate(190.869141 0)"/>
      </g>
     </g>
    </g>
    <g id="ytick_10">
     <g id="line2d_26">
      <g>
       <use xlink:href="#m80f4a6e976" x="489.829135" y="140.057293" style="stroke: #000000; stroke-width: 0.8"/>
      </g>
     </g>
     <g id="text_28">
      <!-- 10000 -->
      <g transform="translate(451.016635 143.856511) scale(0.1 -0.1)">
       <use xlink:href="#DejaVuSans-31"/>
       <use xlink:href="#DejaVuSans-30" transform="translate(63.623047 0)"/>
       <use xlink:href="#DejaVuSans-30" transform="translate(127.246094 0)"/>
       <use xlink:href="#DejaVuSans-30" transform="translate(190.869141 0)"/>
       <use xlink:href="#DejaVuSans-30" transform="translate(254.492188 0)"/>
      </g>
     </g>
    </g>
    <g id="ytick_11">
     <g id="line2d_27">
      <g>
       <use xlink:href="#m80f4a6e976" x="489.829135" y="87.150341" style="stroke: #000000; stroke-width: 0.8"/>
      </g>
     </g>
     <g id="text_29">
      <!-- 15000 -->
      <g transform="translate(451.016635 90.949559) scale(0.1 -0.1)">
       <use xlink:href="#DejaVuSans-31"/>
       <use xlink:href="#DejaVuSans-35" transform="translate(63.623047 0)"/>
       <use xlink:href="#DejaVuSans-30" transform="translate(127.246094 0)"/>
       <use xlink:href="#DejaVuSans-30" transform="translate(190.869141 0)"/>
       <use xlink:href="#DejaVuSans-30" transform="translate(254.492188 0)"/>
      </g>
     </g>
    </g>
    <g id="ytick_12">
     <g id="line2d_28">
      <g>
       <use xlink:href="#m80f4a6e976" x="489.829135" y="34.243389" style="stroke: #000000; stroke-width: 0.8"/>
      </g>
     </g>
     <g id="text_30">
      <!-- 20000 -->
      <g transform="translate(451.016635 38.042607) scale(0.1 -0.1)">
       <use xlink:href="#DejaVuSans-32"/>
       <use xlink:href="#DejaVuSans-30" transform="translate(63.623047 0)"/>
       <use xlink:href="#DejaVuSans-30" transform="translate(127.246094 0)"/>
       <use xlink:href="#DejaVuSans-30" transform="translate(190.869141 0)"/>
       <use xlink:href="#DejaVuSans-30" transform="translate(254.492188 0)"/>
      </g>
     </g>
    </g>
    <g id="text_31">
     <!-- pulse:0 [counts] -->
     <g transform="translate(444.936947 172.659916) rotate(-90) scale(0.1 -0.1)">
      <use xlink:href="#DejaVuSans-70"/>
      <use xlink:href="#DejaVuSans-75" transform="translate(63.476562 0)"/>
      <use xlink:href="#DejaVuSans-6c" transform="translate(126.855469 0)"/>
      <use xlink:href="#DejaVuSans-73" transform="translate(154.638672 0)"/>
      <use xlink:href="#DejaVuSans-65" transform="translate(206.738281 0)"/>
      <use xlink:href="#DejaVuSans-3a" transform="translate(268.261719 0)"/>
      <use xlink:href="#DejaVuSans-30" transform="translate(301.953125 0)"/>
      <use xlink:href="#DejaVuSans-20" transform="translate(365.576172 0)"/>
      <use xlink:href="#DejaVuSans-5b" transform="translate(397.363281 0)"/>
      <use xlink:href="#DejaVuSans-63" transform="translate(436.376953 0)"/>
      <use xlink:href="#DejaVuSans-6f" transform="translate(491.357422 0)"/>
      <use xlink:href="#DejaVuSans-75" transform="translate(552.539062 0)"/>
      <use xlink:href="#DejaVuSans-6e" transform="translate(615.917969 0)"/>
      <use xlink:href="#DejaVuSans-74" transform="translate(679.296875 0)"/>
      <use xlink:href="#DejaVuSans-73" transform="translate(718.505859 0)"/>
      <use xlink:href="#DejaVuSans-5d" transform="translate(770.605469 0)"/>
     </g>
    </g>
   </g>
   <g id="line2d_29">
    <path d="M 506.891425 153.728449 
L 508.028911 153.728449 
L 508.028911 146.564848 
L 509.166397 146.564848 
L 509.166397 136.237411 
L 510.303883 136.237411 
L 510.303883 138.099735 
L 511.441369 138.099735 
L 511.441369 146.670662 
L 512.578855 146.670662 
L 512.578855 153.400426 
L 513.716341 153.400426 
L 513.716341 148.353103 
L 514.853827 148.353103 
L 514.853827 127.878112 
L 515.991313 127.878112 
L 515.991313 105.170448 
L 517.128799 105.170448 
L 517.128799 83.182319 
L 518.266285 83.182319 
L 518.266285 59.733958 
L 519.403771 59.733958 
L 519.403771 35.693039 
L 520.541257 35.693039 
L 520.541257 21.334092 
L 521.678743 21.334092 
L 521.678743 22.76258 
L 522.816229 22.76258 
L 522.816229 18.561768 
L 523.953715 18.561768 
L 523.953715 21.291767 
L 525.091201 21.291767 
L 525.091201 32.687924 
L 526.228687 32.687924 
L 526.228687 39.481177 
L 527.366173 39.481177 
L 527.366173 46.570708 
L 528.50366 46.570708 
L 528.50366 58.326633 
L 529.641146 58.326633 
L 529.641146 69.236047 
L 530.778632 69.236047 
L 530.778632 79.171972 
L 531.916118 79.171972 
L 531.916118 83.298714 
L 533.053604 83.298714 
L 533.053604 89.636967 
L 534.19109 89.636967 
L 534.19109 94.610221 
L 535.328576 94.610221 
L 535.328576 96.948708 
L 536.466062 96.948708 
L 536.466062 96.028127 
L 537.603548 96.028127 
L 537.603548 93.361617 
L 538.741034 93.361617 
L 538.741034 90.282432 
L 539.87852 90.282432 
L 539.87852 86.272085 
L 541.016006 86.272085 
L 541.016006 78.748717 
L 542.153492 78.748717 
L 542.153492 69.722791 
L 543.290978 69.722791 
L 543.290978 58.76047 
L 544.428464 58.76047 
L 544.428464 49.745125 
L 545.56595 49.745125 
L 545.56595 41.216525 
L 546.703436 41.216525 
L 546.703436 36.243271 
L 547.840922 36.243271 
L 547.840922 32.58211 
L 548.978408 32.58211 
L 548.978408 43.343384 
L 550.115894 43.343384 
L 550.115894 52.104776 
L 551.25338 52.104776 
L 551.25338 61.871399 
L 552.390866 61.871399 
L 552.390866 71.807325 
L 553.528352 71.807325 
L 553.528352 76.928717 
L 554.665838 76.928717 
L 554.665838 88.790456 
L 555.803324 88.790456 
L 555.803324 95.340337 
L 556.94081 95.340337 
L 556.94081 105.964053 
L 558.078296 105.964053 
L 558.078296 110.450562 
L 559.215782 110.450562 
L 559.215782 117.011024 
L 560.353268 117.011024 
L 560.353268 125.42323 
L 561.490754 125.42323 
L 561.490754 131.380553 
L 562.62824 131.380553 
L 562.62824 135.824736 
L 563.765726 135.824736 
L 563.765726 141.930199 
L 564.903212 141.930199 
L 564.903212 145.379732 
L 566.040698 145.379732 
L 566.040698 151.305311 
L 567.178184 151.305311 
L 567.178184 156.574843 
L 568.31567 156.574843 
L 568.31567 161.42112 
L 569.453156 161.42112 
L 569.453156 165.092862 
L 570.590642 165.092862 
L 570.590642 167.008094 
L 571.728128 167.008094 
L 571.728128 172.679719 
L 572.865614 172.679719 
L 572.865614 175.515532 
L 574.0031 175.515532 
L 574.0031 179.219019 
L 575.140586 179.219019 
L 575.140586 181.261227 
L 576.278072 181.261227 
L 576.278072 185.09169 
L 577.415558 185.09169 
L 577.415558 188.266107 
L 578.553044 188.266107 
L 578.553044 191.366455 
L 579.69053 191.366455 
L 579.69053 192.985408 
L 580.828016 192.985408 
L 580.828016 194.572616 
L 581.965502 194.572616 
L 581.965502 198.233777 
L 583.102988 198.233777 
L 583.102988 198.815754 
L 584.240474 198.815754 
L 584.240474 202.963659 
L 585.37796 202.963659 
L 585.37796 202.392264 
L 586.515446 202.392264 
L 586.515446 205.450285 
L 587.652932 205.450285 
L 587.652932 207.894587 
L 588.790418 207.894587 
L 588.790418 209.883888 
L 589.927904 209.883888 
L 589.927904 211.185399 
L 591.06539 211.185399 
L 591.06539 212.307026 
L 592.202876 212.307026 
L 592.202876 214.39156 
L 593.340362 214.39156 
L 593.340362 215.872955 
L 594.477848 215.872955 
L 594.477848 216.677141 
L 595.615334 216.677141 
L 595.615334 217.915163 
L 596.75282 217.915163 
L 596.75282 218.190279 
L 597.890306 218.190279 
L 597.890306 220.719232 
L 599.027792 220.719232 
L 599.027792 221.364697 
L 600.165278 221.364697 
L 600.165278 222.137138 
L 601.302764 222.137138 
L 601.302764 223.036556 
L 602.44025 223.036556 
L 602.44025 223.343417 
L 603.577737 223.343417 
L 603.577737 224.898881 
L 604.715223 224.898881 
L 604.715223 225.819462 
L 605.852709 225.819462 
L 605.852709 227.015159 
L 606.990195 227.015159 
L 606.990195 228.443647 
L 608.127681 228.443647 
L 608.127681 227.650042 
L 609.265167 227.650042 
L 609.265167 228.866902 
L 610.402653 228.866902 
L 610.402653 229.671088 
L 611.540139 229.671088 
L 611.540139 229.893297 
L 612.677625 229.893297 
L 612.677625 230.274227 
L 613.815111 230.274227 
L 613.815111 231.43818 
L 614.952597 231.43818 
L 614.952597 232.094226 
L 616.090083 232.094226 
L 616.090083 232.633877 
L 617.227569 232.633877 
L 617.227569 232.771435 
L 618.365055 232.771435 
L 618.365055 233.258179 
L 619.502541 233.258179 
L 619.502541 234.083528 
L 620.640027 234.083528 
L 620.640027 233.766086 
L 621.777513 233.766086 
L 621.777513 234.453877 
L 622.914999 234.453877 
L 622.914999 235.501434 
L 625.189971 235.596667 
L 625.189971 236.115155 
L 626.327457 236.115155 
L 626.327457 236.358527 
L 627.464943 236.358527 
L 627.464943 236.76062 
L 629.739915 236.866434 
L 629.739915 237.014573 
L 630.877401 237.014573 
L 630.877401 237.226201 
L 633.152373 237.205038 
L 633.152373 238.178526 
L 635.427345 238.242014 
L 635.427345 238.464223 
L 637.702317 238.432479 
L 637.702317 239.025037 
L 638.839803 239.025037 
L 638.839803 239.215502 
L 639.977289 239.215502 
L 639.977289 239.490618 
L 642.252261 239.522363 
L 642.252261 239.73399 
L 643.389747 239.73399 
L 643.389747 240.18899 
L 645.664719 240.11492 
L 645.664719 240.64399 
L 646.802205 240.64399 
L 646.802205 240.485269 
L 647.939691 240.485269 
L 647.939691 240.665153 
L 649.077177 240.665153 
L 649.077177 241.183641 
L 650.214663 241.183641 
L 650.214663 240.792129 
L 651.352149 240.792129 
L 651.352149 241.003757 
L 652.489635 241.003757 
L 652.489635 241.342362 
L 654.764607 241.448176 
L 654.764607 242.135966 
L 657.039579 242.178292 
L 657.039579 241.850268 
L 659.314551 241.892594 
L 659.314551 242.030152 
L 660.452037 242.030152 
L 660.452037 242.400501 
L 661.589523 242.400501 
L 661.589523 242.538059 
L 662.727009 242.538059 
L 662.727009 242.051315 
L 665.001981 242.114803 
L 665.001981 242.538059 
L 666.139467 242.538059 
L 666.139467 242.665035 
L 667.276953 242.665035 
L 667.276953 242.538059 
L 668.414439 242.538059 
L 668.414439 242.686198 
L 670.689411 242.654454 
L 670.689411 243.183524 
L 674.101869 243.07771 
L 674.101869 242.993059 
L 676.376841 243.056547 
L 676.376841 243.257593 
L 678.651814 243.162361 
L 678.651814 243.490384 
L 683.201758 243.553872 
L 683.201758 243.606779 
L 684.339244 243.606779 
L 684.339244 243.723175 
L 686.614216 243.786663 
L 686.614216 243.511547 
L 687.751702 243.511547 
L 687.751702 244.030035 
L 690.026674 243.934802 
L 690.026674 243.871314 
L 691.16416 243.871314 
L 691.16416 243.998291 
L 695.714104 243.977128 
L 695.714104 244.379221 
L 702.53902 244.29457 
L 702.53902 244.707244 
L 703.676506 244.707244 
L 703.676506 244.305151 
L 705.951478 244.358058 
L 705.951478 244.728407 
L 707.088964 244.728407 
L 707.088964 244.421546 
L 708.22645 244.421546 
L 708.22645 244.664918 
L 710.501422 244.590849 
L 710.501422 244.813058 
L 711.638908 244.813058 
L 711.638908 244.60143 
L 716.188852 244.686081 
L 716.188852 244.749569 
L 720.738796 244.770732 
L 720.738796 244.929453 
L 721.876282 244.929453 
L 721.876282 245.045848 
L 724.151254 245.05643 
L 724.151254 244.865965 
L 725.28874 244.865965 
L 725.28874 245.035267 
L 735.526114 245.119918 
L 735.526114 245.204569 
L 736.6636 245.204569 
L 736.6636 245.088174 
L 738.938572 245.141081 
L 738.938572 245.204569 
L 740.076058 245.204569 
L 740.076058 245.024686 
L 741.213544 245.024686 
L 741.213544 245.204569 
L 743.488516 245.257476 
L 743.488516 245.384453 
L 745.763488 245.416197 
L 745.763488 245.141081 
L 746.900974 245.141081 
L 746.900974 245.352709 
L 748.03846 245.352709 
L 748.03846 245.151662 
L 749.175946 245.151662 
L 749.175946 245.320964 
L 751.450918 245.373871 
L 751.450918 245.193988 
L 754.863377 245.193988 
L 754.863377 245.331546 
L 760.550807 245.28922 
L 760.550807 245.648988 
L 761.688293 245.648988 
L 761.688293 245.458523 
L 765.100751 245.469104 
L 765.100751 245.585499 
L 766.238237 245.585499 
L 766.238237 245.447941 
L 778.750583 245.479685 
L 778.750583 245.574918 
L 796.950359 245.638406 
L 796.950359 245.691313 
L 800.362817 245.638406 
L 800.362817 245.564336 
L 808.325219 245.67015 
L 808.325219 245.754801 
L 811.737677 245.67015 
L 811.737677 245.606662 
L 816.287621 245.712476 
L 816.287621 245.723057 
L 848.13723 245.74422 
L 848.13723 245.74422 
" clip-path="url(#p62bb90fdc5)" style="fill: none; stroke: #1f77b4; stroke-width: 1.5; stroke-linecap: square"/>
   </g>
   <g id="patch_8">
    <path d="M 489.829135 257.158895 
L 489.829135 7.2 
" style="fill: none; stroke: #000000; stroke-width: 0.8; stroke-linejoin: miter; stroke-linecap: square"/>
   </g>
   <g id="patch_9">
    <path d="M 865.19952 257.158895 
L 865.19952 7.2 
" style="fill: none; stroke: #000000; stroke-width: 0.8; stroke-linejoin: miter; stroke-linecap: square"/>
   </g>
   <g id="patch_10">
    <path d="M 489.829135 257.158895 
L 865.19952 257.158895 
" style="fill: none; stroke: #000000; stroke-width: 0.8; stroke-linejoin: miter; stroke-linecap: square"/>
   </g>
   <g id="patch_11">
    <path d="M 489.829135 7.2 
L 865.19952 7.2 
" style="fill: none; stroke: #000000; stroke-width: 0.8; stroke-linejoin: miter; stroke-linecap: square"/>
   </g>
  </g>
 </g>
 <defs>
  <clipPath id="p77f3da66a7">
   <rect x="53.328125" y="7.2" width="375.370385" height="249.958895"/>
  </clipPath>
  <clipPath id="p62bb90fdc5">
   <rect x="489.829135" y="7.2" width="375.370385" height="249.958895"/>
  </clipPath>
 </defs>
</svg>
