<?xml version="1.0" encoding="utf-8" standalone="no"?>
<!DOCTYPE svg PUBLIC "-//W3C//DTD SVG 1.1//EN"
  "http://www.w3.org/Graphics/SVG/1.1/DTD/svg11.dtd">
<svg xmlns:xlink="http://www.w3.org/1999/xlink" width="395.328125pt" height="266.51625pt" viewBox="0 0 395.328125 266.51625" xmlns="http://www.w3.org/2000/svg" version="1.1">
 <metadata>
  <rdf:RDF xmlns:dc="http://purl.org/dc/elements/1.1/" xmlns:cc="http://creativecommons.org/ns#" xmlns:rdf="http://www.w3.org/1999/02/22-rdf-syntax-ns#">
   <cc:Work>
    <dc:type rdf:resource="http://purl.org/dc/dcmitype/StillImage"/>
    <dc:date>2025-04-29T09:31:48.355563</dc:date>
    <dc:format>image/svg+xml</dc:format>
    <dc:creator>
     <cc:Agent>
      <dc:title>Matplotlib v3.10.1, https://matplotlib.org/</dc:title>
     </cc:Agent>
    </dc:creator>
   </cc:Work>
  </rdf:RDF>
 </metadata>
 <defs>
  <style type="text/css">*{stroke-linejoin: round; stroke-linecap: butt}</style>
 </defs>
 <g id="figure_1">
  <g id="patch_1">
   <path d="M 0 266.51625 
L 395.328125 266.51625 
L 395.328125 0 
L 0 0 
z
" style="fill: #ffffff"/>
  </g>
  <g id="axes_1">
   <g id="patch_2">
    <path d="M 53.328125 228.96 
L 388.128125 228.96 
L 388.128125 7.2 
L 53.328125 7.2 
z
" style="fill: #ffffff"/>
   </g>
   <g id="matplotlib.axis_1">
    <g id="xtick_1">
     <g id="line2d_1">
      <defs>
       <path id="m5c36156bf9" d="M 0 0 
L 0 3.5 
" style="stroke: #000000; stroke-width: 0.8"/>
      </defs>
      <g>
       <use xlink:href="#m5c36156bf9" x="94.340514" y="228.96" style="stroke: #000000; stroke-width: 0.8"/>
      </g>
     </g>
     <g id="text_1">
      <!-- 20000 -->
      <g transform="translate(78.434264 243.558437) scale(0.1 -0.1)">
       <defs>
        <path id="DejaVuSans-32" d="M 1228 531 
L 3431 531 
L 3431 0 
L 469 0 
L 469 531 
Q 828 903 1448 1529 
Q 2069 2156 2228 2338 
Q 2531 2678 2651 2914 
Q 2772 3150 2772 3378 
Q 2772 3750 2511 3984 
Q 2250 4219 1831 4219 
Q 1534 4219 1204 4116 
Q 875 4013 500 3803 
L 500 4441 
Q 881 4594 1212 4672 
Q 1544 4750 1819 4750 
Q 2544 4750 2975 4387 
Q 3406 4025 3406 3419 
Q 3406 3131 3298 2873 
Q 3191 2616 2906 2266 
Q 2828 2175 2409 1742 
Q 1991 1309 1228 531 
z
" transform="scale(0.015625)"/>
        <path id="DejaVuSans-30" d="M 2034 4250 
Q 1547 4250 1301 3770 
Q 1056 3291 1056 2328 
Q 1056 1369 1301 889 
Q 1547 409 2034 409 
Q 2525 409 2770 889 
Q 3016 1369 3016 2328 
Q 3016 3291 2770 3770 
Q 2525 4250 2034 4250 
z
M 2034 4750 
Q 2819 4750 3233 4129 
Q 3647 3509 3647 2328 
Q 3647 1150 3233 529 
Q 2819 -91 2034 -91 
Q 1250 -91 836 529 
Q 422 1150 422 2328 
Q 422 3509 836 4129 
Q 1250 4750 2034 4750 
z
" transform="scale(0.015625)"/>
       </defs>
       <use xlink:href="#DejaVuSans-32"/>
       <use xlink:href="#DejaVuSans-30" transform="translate(63.623047 0)"/>
       <use xlink:href="#DejaVuSans-30" transform="translate(127.246094 0)"/>
       <use xlink:href="#DejaVuSans-30" transform="translate(190.869141 0)"/>
       <use xlink:href="#DejaVuSans-30" transform="translate(254.492188 0)"/>
      </g>
     </g>
    </g>
    <g id="xtick_2">
     <g id="line2d_2">
      <g>
       <use xlink:href="#m5c36156bf9" x="159.902657" y="228.96" style="stroke: #000000; stroke-width: 0.8"/>
      </g>
     </g>
     <g id="text_2">
      <!-- 30000 -->
      <g transform="translate(143.996407 243.558437) scale(0.1 -0.1)">
       <defs>
        <path id="DejaVuSans-33" d="M 2597 2516 
Q 3050 2419 3304 2112 
Q 3559 1806 3559 1356 
Q 3559 666 3084 287 
Q 2609 -91 1734 -91 
Q 1441 -91 1130 -33 
Q 819 25 488 141 
L 488 750 
Q 750 597 1062 519 
Q 1375 441 1716 441 
Q 2309 441 2620 675 
Q 2931 909 2931 1356 
Q 2931 1769 2642 2001 
Q 2353 2234 1838 2234 
L 1294 2234 
L 1294 2753 
L 1863 2753 
Q 2328 2753 2575 2939 
Q 2822 3125 2822 3475 
Q 2822 3834 2567 4026 
Q 2313 4219 1838 4219 
Q 1578 4219 1281 4162 
Q 984 4106 628 3988 
L 628 4550 
Q 988 4650 1302 4700 
Q 1616 4750 1894 4750 
Q 2613 4750 3031 4423 
Q 3450 4097 3450 3541 
Q 3450 3153 3228 2886 
Q 3006 2619 2597 2516 
z
" transform="scale(0.015625)"/>
       </defs>
       <use xlink:href="#DejaVuSans-33"/>
       <use xlink:href="#DejaVuSans-30" transform="translate(63.623047 0)"/>
       <use xlink:href="#DejaVuSans-30" transform="translate(127.246094 0)"/>
       <use xlink:href="#DejaVuSans-30" transform="translate(190.869141 0)"/>
       <use xlink:href="#DejaVuSans-30" transform="translate(254.492188 0)"/>
      </g>
     </g>
    </g>
    <g id="xtick_3">
     <g id="line2d_3">
      <g>
       <use xlink:href="#m5c36156bf9" x="225.464799" y="228.96" style="stroke: #000000; stroke-width: 0.8"/>
      </g>
     </g>
     <g id="text_3">
      <!-- 40000 -->
      <g transform="translate(209.558549 243.558437) scale(0.1 -0.1)">
       <defs>
        <path id="DejaVuSans-34" d="M 2419 4116 
L 825 1625 
L 2419 1625 
L 2419 4116 
z
M 2253 4666 
L 3047 4666 
L 3047 1625 
L 3713 1625 
L 3713 1100 
L 3047 1100 
L 3047 0 
L 2419 0 
L 2419 1100 
L 313 1100 
L 313 1709 
L 2253 4666 
z
" transform="scale(0.015625)"/>
       </defs>
       <use xlink:href="#DejaVuSans-34"/>
       <use xlink:href="#DejaVuSans-30" transform="translate(63.623047 0)"/>
       <use xlink:href="#DejaVuSans-30" transform="translate(127.246094 0)"/>
       <use xlink:href="#DejaVuSans-30" transform="translate(190.869141 0)"/>
       <use xlink:href="#DejaVuSans-30" transform="translate(254.492188 0)"/>
      </g>
     </g>
    </g>
    <g id="xtick_4">
     <g id="line2d_4">
      <g>
       <use xlink:href="#m5c36156bf9" x="291.026942" y="228.96" style="stroke: #000000; stroke-width: 0.8"/>
      </g>
     </g>
     <g id="text_4">
      <!-- 50000 -->
      <g transform="translate(275.120692 243.558437) scale(0.1 -0.1)">
       <defs>
        <path id="DejaVuSans-35" d="M 691 4666 
L 3169 4666 
L 3169 4134 
L 1269 4134 
L 1269 2991 
Q 1406 3038 1543 3061 
Q 1681 3084 1819 3084 
Q 2600 3084 3056 2656 
Q 3513 2228 3513 1497 
Q 3513 744 3044 326 
Q 2575 -91 1722 -91 
Q 1428 -91 1123 -41 
Q 819 9 494 109 
L 494 744 
Q 775 591 1075 516 
Q 1375 441 1709 441 
Q 2250 441 2565 725 
Q 2881 1009 2881 1497 
Q 2881 1984 2565 2268 
Q 2250 2553 1709 2553 
Q 1456 2553 1204 2497 
Q 953 2441 691 2322 
L 691 4666 
z
" transform="scale(0.015625)"/>
       </defs>
       <use xlink:href="#DejaVuSans-35"/>
       <use xlink:href="#DejaVuSans-30" transform="translate(63.623047 0)"/>
       <use xlink:href="#DejaVuSans-30" transform="translate(127.246094 0)"/>
       <use xlink:href="#DejaVuSans-30" transform="translate(190.869141 0)"/>
       <use xlink:href="#DejaVuSans-30" transform="translate(254.492188 0)"/>
      </g>
     </g>
    </g>
    <g id="xtick_5">
     <g id="line2d_5">
      <g>
       <use xlink:href="#m5c36156bf9" x="356.589084" y="228.96" style="stroke: #000000; stroke-width: 0.8"/>
      </g>
     </g>
     <g id="text_5">
      <!-- 60000 -->
      <g transform="translate(340.682834 243.558437) scale(0.1 -0.1)">
       <defs>
        <path id="DejaVuSans-36" d="M 2113 2584 
Q 1688 2584 1439 2293 
Q 1191 2003 1191 1497 
Q 1191 994 1439 701 
Q 1688 409 2113 409 
Q 2538 409 2786 701 
Q 3034 994 3034 1497 
Q 3034 2003 2786 2293 
Q 2538 2584 2113 2584 
z
M 3366 4563 
L 3366 3988 
Q 3128 4100 2886 4159 
Q 2644 4219 2406 4219 
Q 1781 4219 1451 3797 
Q 1122 3375 1075 2522 
Q 1259 2794 1537 2939 
Q 1816 3084 2150 3084 
Q 2853 3084 3261 2657 
Q 3669 2231 3669 1497 
Q 3669 778 3244 343 
Q 2819 -91 2113 -91 
Q 1303 -91 875 529 
Q 447 1150 447 2328 
Q 447 3434 972 4092 
Q 1497 4750 2381 4750 
Q 2619 4750 2861 4703 
Q 3103 4656 3366 4563 
z
" transform="scale(0.015625)"/>
       </defs>
       <use xlink:href="#DejaVuSans-36"/>
       <use xlink:href="#DejaVuSans-30" transform="translate(63.623047 0)"/>
       <use xlink:href="#DejaVuSans-30" transform="translate(127.246094 0)"/>
       <use xlink:href="#DejaVuSans-30" transform="translate(190.869141 0)"/>
       <use xlink:href="#DejaVuSans-30" transform="translate(254.492188 0)"/>
      </g>
     </g>
    </g>
    <g id="text_6">
     <!-- toa [µs] -->
     <g transform="translate(201.367969 257.236562) scale(0.1 -0.1)">
      <defs>
       <path id="DejaVuSans-74" d="M 1172 4494 
L 1172 3500 
L 2356 3500 
L 2356 3053 
L 1172 3053 
L 1172 1153 
Q 1172 725 1289 603 
Q 1406 481 1766 481 
L 2356 481 
L 2356 0 
L 1766 0 
Q 1100 0 847 248 
Q 594 497 594 1153 
L 594 3053 
L 172 3053 
L 172 3500 
L 594 3500 
L 594 4494 
L 1172 4494 
z
" transform="scale(0.015625)"/>
       <path id="DejaVuSans-6f" d="M 1959 3097 
Q 1497 3097 1228 2736 
Q 959 2375 959 1747 
Q 959 1119 1226 758 
Q 1494 397 1959 397 
Q 2419 397 2687 759 
Q 2956 1122 2956 1747 
Q 2956 2369 2687 2733 
Q 2419 3097 1959 3097 
z
M 1959 3584 
Q 2709 3584 3137 3096 
Q 3566 2609 3566 1747 
Q 3566 888 3137 398 
Q 2709 -91 1959 -91 
Q 1206 -91 779 398 
Q 353 888 353 1747 
Q 353 2609 779 3096 
Q 1206 3584 1959 3584 
z
" transform="scale(0.015625)"/>
       <path id="DejaVuSans-61" d="M 2194 1759 
Q 1497 1759 1228 1600 
Q 959 1441 959 1056 
Q 959 750 1161 570 
Q 1363 391 1709 391 
Q 2188 391 2477 730 
Q 2766 1069 2766 1631 
L 2766 1759 
L 2194 1759 
z
M 3341 1997 
L 3341 0 
L 2766 0 
L 2766 531 
Q 2569 213 2275 61 
Q 1981 -91 1556 -91 
Q 1019 -91 701 211 
Q 384 513 384 1019 
Q 384 1609 779 1909 
Q 1175 2209 1959 2209 
L 2766 2209 
L 2766 2266 
Q 2766 2663 2505 2880 
Q 2244 3097 1772 3097 
Q 1472 3097 1187 3025 
Q 903 2953 641 2809 
L 641 3341 
Q 956 3463 1253 3523 
Q 1550 3584 1831 3584 
Q 2591 3584 2966 3190 
Q 3341 2797 3341 1997 
z
" transform="scale(0.015625)"/>
       <path id="DejaVuSans-20" transform="scale(0.015625)"/>
       <path id="DejaVuSans-5b" d="M 550 4863 
L 1875 4863 
L 1875 4416 
L 1125 4416 
L 1125 -397 
L 1875 -397 
L 1875 -844 
L 550 -844 
L 550 4863 
z
" transform="scale(0.015625)"/>
       <path id="DejaVuSans-b5" d="M 544 -1331 
L 544 3500 
L 1119 3500 
L 1119 1325 
Q 1119 872 1334 640 
Q 1550 409 1972 409 
Q 2434 409 2667 671 
Q 2900 934 2900 1459 
L 2900 3500 
L 3475 3500 
L 3475 806 
Q 3475 619 3529 530 
Q 3584 441 3700 441 
Q 3728 441 3778 458 
Q 3828 475 3916 513 
L 3916 50 
Q 3788 -22 3673 -56 
Q 3559 -91 3450 -91 
Q 3234 -91 3106 31 
Q 2978 153 2931 403 
Q 2775 156 2548 32 
Q 2322 -91 2016 -91 
Q 1697 -91 1473 31 
Q 1250 153 1119 397 
L 1119 -1331 
L 544 -1331 
z
" transform="scale(0.015625)"/>
       <path id="DejaVuSans-73" d="M 2834 3397 
L 2834 2853 
Q 2591 2978 2328 3040 
Q 2066 3103 1784 3103 
Q 1356 3103 1142 2972 
Q 928 2841 928 2578 
Q 928 2378 1081 2264 
Q 1234 2150 1697 2047 
L 1894 2003 
Q 2506 1872 2764 1633 
Q 3022 1394 3022 966 
Q 3022 478 2636 193 
Q 2250 -91 1575 -91 
Q 1294 -91 989 -36 
Q 684 19 347 128 
L 347 722 
Q 666 556 975 473 
Q 1284 391 1588 391 
Q 1994 391 2212 530 
Q 2431 669 2431 922 
Q 2431 1156 2273 1281 
Q 2116 1406 1581 1522 
L 1381 1569 
Q 847 1681 609 1914 
Q 372 2147 372 2553 
Q 372 3047 722 3315 
Q 1072 3584 1716 3584 
Q 2034 3584 2315 3537 
Q 2597 3491 2834 3397 
z
" transform="scale(0.015625)"/>
       <path id="DejaVuSans-5d" d="M 1947 4863 
L 1947 -844 
L 622 -844 
L 622 -397 
L 1369 -397 
L 1369 4416 
L 622 4416 
L 622 4863 
L 1947 4863 
z
" transform="scale(0.015625)"/>
      </defs>
      <use xlink:href="#DejaVuSans-74"/>
      <use xlink:href="#DejaVuSans-6f" transform="translate(39.208984 0)"/>
      <use xlink:href="#DejaVuSans-61" transform="translate(100.390625 0)"/>
      <use xlink:href="#DejaVuSans-20" transform="translate(161.669922 0)"/>
      <use xlink:href="#DejaVuSans-5b" transform="translate(193.457031 0)"/>
      <use xlink:href="#DejaVuSans-b5" transform="translate(232.470703 0)"/>
      <use xlink:href="#DejaVuSans-73" transform="translate(296.09375 0)"/>
      <use xlink:href="#DejaVuSans-5d" transform="translate(348.193359 0)"/>
     </g>
    </g>
   </g>
   <g id="matplotlib.axis_2">
    <g id="ytick_1">
     <g id="line2d_6">
      <defs>
       <path id="m0c30033f49" d="M 0 0 
L -3.5 0 
" style="stroke: #000000; stroke-width: 0.8"/>
      </defs>
      <g>
       <use xlink:href="#m0c30033f49" x="53.328125" y="218.88" style="stroke: #000000; stroke-width: 0.8"/>
      </g>
     </g>
     <g id="text_7">
      <!-- 0 -->
      <g transform="translate(39.965625 222.679219) scale(0.1 -0.1)">
       <use xlink:href="#DejaVuSans-30"/>
      </g>
     </g>
    </g>
    <g id="ytick_2">
     <g id="line2d_7">
      <g>
       <use xlink:href="#m0c30033f49" x="53.328125" y="183.071829" style="stroke: #000000; stroke-width: 0.8"/>
      </g>
     </g>
     <g id="text_8">
      <!-- 200 -->
      <g transform="translate(27.240625 186.871048) scale(0.1 -0.1)">
       <use xlink:href="#DejaVuSans-32"/>
       <use xlink:href="#DejaVuSans-30" transform="translate(63.623047 0)"/>
       <use xlink:href="#DejaVuSans-30" transform="translate(127.246094 0)"/>
      </g>
     </g>
    </g>
    <g id="ytick_3">
     <g id="line2d_8">
      <g>
       <use xlink:href="#m0c30033f49" x="53.328125" y="147.263659" style="stroke: #000000; stroke-width: 0.8"/>
      </g>
     </g>
     <g id="text_9">
      <!-- 400 -->
      <g transform="translate(27.240625 151.062878) scale(0.1 -0.1)">
       <use xlink:href="#DejaVuSans-34"/>
       <use xlink:href="#DejaVuSans-30" transform="translate(63.623047 0)"/>
       <use xlink:href="#DejaVuSans-30" transform="translate(127.246094 0)"/>
      </g>
     </g>
    </g>
    <g id="ytick_4">
     <g id="line2d_9">
      <g>
       <use xlink:href="#m0c30033f49" x="53.328125" y="111.455488" style="stroke: #000000; stroke-width: 0.8"/>
      </g>
     </g>
     <g id="text_10">
      <!-- 600 -->
      <g transform="translate(27.240625 115.254707) scale(0.1 -0.1)">
       <use xlink:href="#DejaVuSans-36"/>
       <use xlink:href="#DejaVuSans-30" transform="translate(63.623047 0)"/>
       <use xlink:href="#DejaVuSans-30" transform="translate(127.246094 0)"/>
      </g>
     </g>
    </g>
    <g id="ytick_5">
     <g id="line2d_10">
      <g>
       <use xlink:href="#m0c30033f49" x="53.328125" y="75.647318" style="stroke: #000000; stroke-width: 0.8"/>
      </g>
     </g>
     <g id="text_11">
      <!-- 800 -->
      <g transform="translate(27.240625 79.446537) scale(0.1 -0.1)">
       <defs>
        <path id="DejaVuSans-38" d="M 2034 2216 
Q 1584 2216 1326 1975 
Q 1069 1734 1069 1313 
Q 1069 891 1326 650 
Q 1584 409 2034 409 
Q 2484 409 2743 651 
Q 3003 894 3003 1313 
Q 3003 1734 2745 1975 
Q 2488 2216 2034 2216 
z
M 1403 2484 
Q 997 2584 770 2862 
Q 544 3141 544 3541 
Q 544 4100 942 4425 
Q 1341 4750 2034 4750 
Q 2731 4750 3128 4425 
Q 3525 4100 3525 3541 
Q 3525 3141 3298 2862 
Q 3072 2584 2669 2484 
Q 3125 2378 3379 2068 
Q 3634 1759 3634 1313 
Q 3634 634 3220 271 
Q 2806 -91 2034 -91 
Q 1263 -91 848 271 
Q 434 634 434 1313 
Q 434 1759 690 2068 
Q 947 2378 1403 2484 
z
M 1172 3481 
Q 1172 3119 1398 2916 
Q 1625 2713 2034 2713 
Q 2441 2713 2670 2916 
Q 2900 3119 2900 3481 
Q 2900 3844 2670 4047 
Q 2441 4250 2034 4250 
Q 1625 4250 1398 4047 
Q 1172 3844 1172 3481 
z
" transform="scale(0.015625)"/>
       </defs>
       <use xlink:href="#DejaVuSans-38"/>
       <use xlink:href="#DejaVuSans-30" transform="translate(63.623047 0)"/>
       <use xlink:href="#DejaVuSans-30" transform="translate(127.246094 0)"/>
      </g>
     </g>
    </g>
    <g id="ytick_6">
     <g id="line2d_11">
      <g>
       <use xlink:href="#m0c30033f49" x="53.328125" y="39.839147" style="stroke: #000000; stroke-width: 0.8"/>
      </g>
     </g>
     <g id="text_12">
      <!-- 1000 -->
      <g transform="translate(20.878125 43.638366) scale(0.1 -0.1)">
       <defs>
        <path id="DejaVuSans-31" d="M 794 531 
L 1825 531 
L 1825 4091 
L 703 3866 
L 703 4441 
L 1819 4666 
L 2450 4666 
L 2450 531 
L 3481 531 
L 3481 0 
L 794 0 
L 794 531 
z
" transform="scale(0.015625)"/>
       </defs>
       <use xlink:href="#DejaVuSans-31"/>
       <use xlink:href="#DejaVuSans-30" transform="translate(63.623047 0)"/>
       <use xlink:href="#DejaVuSans-30" transform="translate(127.246094 0)"/>
       <use xlink:href="#DejaVuSans-30" transform="translate(190.869141 0)"/>
      </g>
     </g>
    </g>
    <g id="text_13">
     <!-- pulse:0 [counts] -->
     <g transform="translate(14.798438 158.560469) rotate(-90) scale(0.1 -0.1)">
      <defs>
       <path id="DejaVuSans-70" d="M 1159 525 
L 1159 -1331 
L 581 -1331 
L 581 3500 
L 1159 3500 
L 1159 2969 
Q 1341 3281 1617 3432 
Q 1894 3584 2278 3584 
Q 2916 3584 3314 3078 
Q 3713 2572 3713 1747 
Q 3713 922 3314 415 
Q 2916 -91 2278 -91 
Q 1894 -91 1617 61 
Q 1341 213 1159 525 
z
M 3116 1747 
Q 3116 2381 2855 2742 
Q 2594 3103 2138 3103 
Q 1681 3103 1420 2742 
Q 1159 2381 1159 1747 
Q 1159 1113 1420 752 
Q 1681 391 2138 391 
Q 2594 391 2855 752 
Q 3116 1113 3116 1747 
z
" transform="scale(0.015625)"/>
       <path id="DejaVuSans-75" d="M 544 1381 
L 544 3500 
L 1119 3500 
L 1119 1403 
Q 1119 906 1312 657 
Q 1506 409 1894 409 
Q 2359 409 2629 706 
Q 2900 1003 2900 1516 
L 2900 3500 
L 3475 3500 
L 3475 0 
L 2900 0 
L 2900 538 
Q 2691 219 2414 64 
Q 2138 -91 1772 -91 
Q 1169 -91 856 284 
Q 544 659 544 1381 
z
M 1991 3584 
L 1991 3584 
z
" transform="scale(0.015625)"/>
       <path id="DejaVuSans-6c" d="M 603 4863 
L 1178 4863 
L 1178 0 
L 603 0 
L 603 4863 
z
" transform="scale(0.015625)"/>
       <path id="DejaVuSans-65" d="M 3597 1894 
L 3597 1613 
L 953 1613 
Q 991 1019 1311 708 
Q 1631 397 2203 397 
Q 2534 397 2845 478 
Q 3156 559 3463 722 
L 3463 178 
Q 3153 47 2828 -22 
Q 2503 -91 2169 -91 
Q 1331 -91 842 396 
Q 353 884 353 1716 
Q 353 2575 817 3079 
Q 1281 3584 2069 3584 
Q 2775 3584 3186 3129 
Q 3597 2675 3597 1894 
z
M 3022 2063 
Q 3016 2534 2758 2815 
Q 2500 3097 2075 3097 
Q 1594 3097 1305 2825 
Q 1016 2553 972 2059 
L 3022 2063 
z
" transform="scale(0.015625)"/>
       <path id="DejaVuSans-3a" d="M 750 794 
L 1409 794 
L 1409 0 
L 750 0 
L 750 794 
z
M 750 3309 
L 1409 3309 
L 1409 2516 
L 750 2516 
L 750 3309 
z
" transform="scale(0.015625)"/>
       <path id="DejaVuSans-63" d="M 3122 3366 
L 3122 2828 
Q 2878 2963 2633 3030 
Q 2388 3097 2138 3097 
Q 1578 3097 1268 2742 
Q 959 2388 959 1747 
Q 959 1106 1268 751 
Q 1578 397 2138 397 
Q 2388 397 2633 464 
Q 2878 531 3122 666 
L 3122 134 
Q 2881 22 2623 -34 
Q 2366 -91 2075 -91 
Q 1284 -91 818 406 
Q 353 903 353 1747 
Q 353 2603 823 3093 
Q 1294 3584 2113 3584 
Q 2378 3584 2631 3529 
Q 2884 3475 3122 3366 
z
" transform="scale(0.015625)"/>
       <path id="DejaVuSans-6e" d="M 3513 2113 
L 3513 0 
L 2938 0 
L 2938 2094 
Q 2938 2591 2744 2837 
Q 2550 3084 2163 3084 
Q 1697 3084 1428 2787 
Q 1159 2491 1159 1978 
L 1159 0 
L 581 0 
L 581 3500 
L 1159 3500 
L 1159 2956 
Q 1366 3272 1645 3428 
Q 1925 3584 2291 3584 
Q 2894 3584 3203 3211 
Q 3513 2838 3513 2113 
z
" transform="scale(0.015625)"/>
      </defs>
      <use xlink:href="#DejaVuSans-70"/>
      <use xlink:href="#DejaVuSans-75" transform="translate(63.476562 0)"/>
      <use xlink:href="#DejaVuSans-6c" transform="translate(126.855469 0)"/>
      <use xlink:href="#DejaVuSans-73" transform="translate(154.638672 0)"/>
      <use xlink:href="#DejaVuSans-65" transform="translate(206.738281 0)"/>
      <use xlink:href="#DejaVuSans-3a" transform="translate(268.261719 0)"/>
      <use xlink:href="#DejaVuSans-30" transform="translate(301.953125 0)"/>
      <use xlink:href="#DejaVuSans-20" transform="translate(365.576172 0)"/>
      <use xlink:href="#DejaVuSans-5b" transform="translate(397.363281 0)"/>
      <use xlink:href="#DejaVuSans-63" transform="translate(436.376953 0)"/>
      <use xlink:href="#DejaVuSans-6f" transform="translate(491.357422 0)"/>
      <use xlink:href="#DejaVuSans-75" transform="translate(552.539062 0)"/>
      <use xlink:href="#DejaVuSans-6e" transform="translate(615.917969 0)"/>
      <use xlink:href="#DejaVuSans-74" transform="translate(679.296875 0)"/>
      <use xlink:href="#DejaVuSans-73" transform="translate(718.505859 0)"/>
      <use xlink:href="#DejaVuSans-5d" transform="translate(770.605469 0)"/>
     </g>
    </g>
   </g>
   <g id="line2d_12">
    <path d="M 68.546307 186.473606 
L 69.560852 186.473606 
L 69.560852 130.791901 
L 70.575398 130.791901 
L 70.575398 102.682487 
L 71.589943 102.682487 
L 71.589943 98.922629 
L 72.604489 98.922629 
L 72.604489 82.629911 
L 73.619034 82.629911 
L 73.619034 89.075382 
L 74.63358 89.075382 
L 74.63358 72.066501 
L 75.648125 72.066501 
L 75.648125 71.708419 
L 76.66267 71.708419 
L 76.66267 67.59048 
L 77.677216 67.59048 
L 77.677216 58.101314 
L 78.691761 58.101314 
L 78.691761 45.389414 
L 79.706307 45.389414 
L 79.706307 51.118721 
L 80.720852 51.118721 
L 80.720852 42.882842 
L 81.735398 42.882842 
L 81.735398 39.302025 
L 82.749943 39.302025 
L 82.749943 28.380533 
L 83.764489 28.380533 
L 83.764489 33.214636 
L 84.779034 33.214636 
L 84.779034 21.218899 
L 85.79358 21.218899 
L 85.79358 17.28 
L 86.808125 17.28 
L 86.808125 19.42849 
L 87.82267 19.42849 
L 87.82267 28.022451 
L 88.837216 28.022451 
L 88.837216 21.218899 
L 89.851761 21.218899 
L 89.851761 34.646963 
L 90.866307 34.646963 
L 90.866307 32.677513 
L 91.880852 32.677513 
L 91.880852 39.660107 
L 92.895398 39.660107 
L 92.895398 40.913393 
L 93.909943 40.913393 
L 93.909943 42.52476 
L 94.924489 42.52476 
L 94.924489 30.887105 
L 95.939034 30.887105 
L 95.939034 41.629556 
L 96.95358 41.629556 
L 96.95358 52.192966 
L 97.968125 52.192966 
L 97.968125 70.634174 
L 98.98267 70.634174 
L 98.98267 82.987993 
L 99.997216 82.987993 
L 99.997216 95.699893 
L 101.011761 95.699893 
L 101.011761 109.306998 
L 102.026307 109.306998 
L 102.026307 119.870409 
L 103.040852 119.870409 
L 103.040852 129.717655 
L 104.055398 129.717655 
L 104.055398 139.385861 
L 105.069943 139.385861 
L 105.069943 147.621741 
L 106.084489 147.621741 
L 106.084489 158.00611 
L 107.099034 158.00611 
L 107.099034 164.27254 
L 108.11358 164.27254 
L 108.11358 183.429911 
L 109.128125 183.429911 
L 109.128125 187.547851 
L 110.14267 187.547851 
L 110.14267 201.513037 
L 111.157216 201.513037 
L 111.157216 206.34714 
L 112.171761 206.34714 
L 112.171761 212.076448 
L 113.186307 212.076448 
L 113.186307 216.552469 
L 114.200852 216.552469 
L 114.200852 218.88 
L 126.375398 218.88 
L 126.375398 218.342877 
L 127.389943 218.342877 
L 127.389943 197.037016 
L 128.404489 197.037016 
L 128.404489 152.097762 
L 129.419034 152.097762 
L 129.419034 105.010018 
L 130.43358 105.010018 
L 130.43358 84.957442 
L 131.448125 84.957442 
L 131.448125 85.673606 
L 132.46267 85.673606 
L 132.46267 86.210728 
L 133.477216 86.210728 
L 133.477216 88.538259 
L 134.491761 88.538259 
L 134.491761 96.953179 
L 135.506307 96.953179 
L 135.506307 87.284973 
L 136.520852 87.284973 
L 136.520852 97.13222 
L 137.535398 97.13222 
L 137.535398 103.39865 
L 138.549943 103.39865 
L 138.549943 96.953179 
L 139.564489 96.953179 
L 139.564489 101.429201 
L 140.579034 101.429201 
L 140.579034 100.533996 
L 141.59358 100.533996 
L 141.59358 110.560284 
L 142.608125 110.560284 
L 142.608125 114.499183 
L 143.62267 114.499183 
L 143.62267 106.084263 
L 144.637216 106.084263 
L 144.637216 106.263304 
L 146.666307 106.263304 
L 146.666307 113.96206 
L 147.680852 113.96206 
L 147.680852 117.005755 
L 148.695398 117.005755 
L 148.695398 122.37698 
L 149.709943 122.37698 
L 149.709943 116.289591 
L 150.724489 116.289591 
L 150.724489 122.914103 
L 151.739034 122.914103 
L 151.739034 128.106288 
L 152.75358 128.106288 
L 152.75358 122.556021 
L 153.768125 122.556021 
L 153.768125 129.538615 
L 154.78267 129.538615 
L 154.78267 132.76135 
L 155.797216 132.76135 
L 155.797216 131.687105 
L 156.811761 131.687105 
L 156.811761 134.014636 
L 157.826307 134.014636 
L 157.826307 135.626004 
L 158.840852 135.626004 
L 158.840852 128.285329 
L 159.855398 128.285329 
L 159.855398 136.163126 
L 160.869943 136.163126 
L 160.869943 140.997229 
L 161.884489 140.997229 
L 161.884489 143.32476 
L 162.899034 143.32476 
L 162.899034 148.337904 
L 163.91358 148.337904 
L 163.91358 141.355311 
L 164.928125 141.355311 
L 164.928125 151.381599 
L 165.94267 151.381599 
L 165.94267 150.307353 
L 166.957216 150.307353 
L 166.957216 161.765968 
L 167.971761 161.765968 
L 167.971761 165.704867 
L 168.986307 165.704867 
L 168.986307 172.508419 
L 170.000852 172.508419 
L 170.000852 177.879645 
L 171.015398 177.879645 
L 171.015398 187.36881 
L 172.029943 187.36881 
L 172.029943 197.216057 
L 173.044489 197.216057 
L 173.044489 200.796874 
L 174.059034 200.796874 
L 174.059034 207.421385 
L 175.07358 207.421385 
L 175.07358 209.211794 
L 176.088125 209.211794 
L 176.088125 214.045897 
L 177.10267 214.045897 
L 177.10267 217.626714 
L 178.117216 217.626714 
L 178.117216 218.88 
L 183.189943 218.88 
L 183.189943 209.927957 
L 184.204489 209.927957 
L 184.204489 190.054423 
L 185.219034 190.054423 
L 185.219034 174.119787 
L 186.23358 174.119787 
L 186.23358 154.246252 
L 187.248125 154.246252 
L 187.248125 147.800782 
L 188.26267 147.800782 
L 188.26267 150.128313 
L 189.277216 150.128313 
L 189.277216 146.010373 
L 190.291761 146.010373 
L 190.291761 146.905577 
L 191.306307 146.905577 
L 191.306307 151.918721 
L 192.320852 151.918721 
L 192.320852 151.202558 
L 193.335398 151.202558 
L 193.335398 156.036661 
L 194.349943 156.036661 
L 194.349943 154.425293 
L 195.364489 154.425293 
L 195.364489 161.049805 
L 196.379034 161.049805 
L 196.379034 160.1546 
L 197.39358 160.1546 
L 197.39358 161.407886 
L 198.408125 161.407886 
L 198.408125 162.303091 
L 199.42267 162.303091 
L 199.42267 167.853357 
L 200.437216 167.853357 
L 200.437216 154.067211 
L 201.451761 154.067211 
L 201.451761 168.39048 
L 202.466307 168.39048 
L 202.466307 160.691723 
L 203.480852 160.691723 
L 203.480852 164.451581 
L 204.495398 164.451581 
L 204.495398 168.56952 
L 205.509943 168.56952 
L 205.509943 163.377336 
L 206.524489 163.377336 
L 206.524489 169.464725 
L 207.539034 169.464725 
L 207.539034 176.8054 
L 208.55358 176.8054 
L 208.55358 174.656909 
L 209.568125 174.656909 
L 209.568125 175.373073 
L 210.58267 175.373073 
L 210.58267 180.744298 
L 211.597216 180.744298 
L 211.597216 182.534707 
L 212.611761 182.534707 
L 212.611761 182.892789 
L 213.626307 182.892789 
L 213.626307 185.399361 
L 214.640852 185.399361 
L 214.640852 188.801137 
L 215.655398 188.801137 
L 215.655398 188.980178 
L 216.669943 188.980178 
L 216.669943 190.949627 
L 217.684489 190.949627 
L 217.684489 190.770586 
L 218.699034 190.770586 
L 218.699034 195.425648 
L 219.71358 195.425648 
L 219.71358 199.364547 
L 220.728125 199.364547 
L 220.728125 199.543588 
L 221.74267 199.543588 
L 221.74267 204.377691 
L 222.757216 204.377691 
L 222.757216 205.989059 
L 223.771761 205.989059 
L 223.771761 208.674671 
L 224.786307 208.674671 
L 224.786307 211.539325 
L 225.800852 211.539325 
L 225.800852 212.61357 
L 226.815398 212.61357 
L 226.815398 216.73151 
L 227.829943 216.73151 
L 227.829943 218.88 
L 232.90267 218.88 
L 232.90267 216.373428 
L 233.917216 216.373428 
L 233.917216 209.211794 
L 234.931761 209.211794 
L 234.931761 202.229201 
L 235.946307 202.229201 
L 235.946307 190.770586 
L 236.960852 190.770586 
L 236.960852 190.233464 
L 237.975398 190.233464 
L 237.975398 185.22032 
L 238.989943 185.22032 
L 238.989943 184.504156 
L 240.004489 184.504156 
L 240.004489 189.5173 
L 241.019034 189.5173 
L 241.019034 188.264014 
L 242.03358 188.264014 
L 242.03358 188.443055 
L 244.06267 188.443055 
L 244.06267 192.919076 
L 245.077216 192.919076 
L 245.077216 195.604689 
L 246.091761 195.604689 
L 246.091761 196.499893 
L 247.106307 196.499893 
L 247.106307 200.975915 
L 248.120852 200.975915 
L 248.120852 195.425648 
L 249.135398 195.425648 
L 249.135398 201.154956 
L 250.149943 201.154956 
L 250.149943 201.333996 
L 251.164489 201.333996 
L 251.164489 199.185506 
L 252.179034 199.185506 
L 252.179034 202.229201 
L 253.19358 202.229201 
L 253.19358 203.661528 
L 254.208125 203.661528 
L 254.208125 206.705222 
L 255.22267 206.705222 
L 255.22267 203.661528 
L 256.237216 203.661528 
L 256.237216 208.137549 
L 257.251761 208.137549 
L 257.251761 207.421385 
L 258.266307 207.421385 
L 258.266307 207.063304 
L 259.280852 207.063304 
L 259.280852 210.46508 
L 260.295398 210.46508 
L 260.295398 210.644121 
L 261.309943 210.644121 
L 261.309943 211.002202 
L 262.324489 211.002202 
L 262.324489 210.823162 
L 263.339034 210.823162 
L 263.339034 213.687815 
L 264.35358 213.687815 
L 264.35358 212.434529 
L 265.368125 212.434529 
L 265.368125 215.120142 
L 266.38267 215.120142 
L 266.38267 214.224938 
L 267.397216 214.224938 
L 267.397216 214.76206 
L 268.411761 214.76206 
L 268.411761 216.015346 
L 269.426307 216.015346 
L 269.426307 216.194387 
L 270.440852 216.194387 
L 270.440852 216.73151 
L 271.455398 216.73151 
L 271.455398 217.626714 
L 272.469943 217.626714 
L 272.469943 218.342877 
L 274.499034 218.342877 
L 274.499034 218.700959 
L 275.51358 218.700959 
L 275.51358 218.88 
L 280.586307 218.88 
L 280.586307 218.700959 
L 281.600852 218.700959 
L 281.600852 216.552469 
L 282.615398 216.552469 
L 282.615398 209.927957 
L 283.629943 209.927957 
L 283.629943 208.137549 
L 284.644489 208.137549 
L 284.644489 206.168099 
L 286.67358 206.168099 
L 286.67358 205.451936 
L 287.688125 205.451936 
L 287.688125 203.124405 
L 288.70267 203.124405 
L 288.70267 209.032753 
L 289.717216 209.032753 
L 289.717216 205.630977 
L 290.731761 205.630977 
L 290.731761 209.569876 
L 291.746307 209.569876 
L 291.746307 209.927957 
L 292.760852 209.927957 
L 292.760852 208.853712 
L 293.775398 208.853712 
L 293.775398 209.748917 
L 294.789943 209.748917 
L 294.789943 208.495631 
L 295.804489 208.495631 
L 295.804489 210.106998 
L 296.819034 210.106998 
L 296.819034 212.971652 
L 297.83358 212.971652 
L 297.83358 210.46508 
L 298.848125 210.46508 
L 298.848125 212.255488 
L 299.86267 212.255488 
L 299.86267 212.971652 
L 300.877216 212.971652 
L 300.877216 214.76206 
L 301.891761 214.76206 
L 301.891761 213.150693 
L 302.906307 213.150693 
L 302.906307 214.403979 
L 303.920852 214.403979 
L 303.920852 213.687815 
L 304.935398 213.687815 
L 304.935398 214.045897 
L 305.949943 214.045897 
L 305.949943 215.299183 
L 306.964489 215.299183 
L 306.964489 216.552469 
L 307.979034 216.552469 
L 307.979034 215.299183 
L 308.99358 215.299183 
L 308.99358 216.373428 
L 310.008125 216.373428 
L 310.008125 216.015346 
L 311.02267 216.015346 
L 311.02267 216.910551 
L 312.037216 216.910551 
L 312.037216 217.805755 
L 313.051761 217.805755 
L 313.051761 216.552469 
L 314.066307 216.552469 
L 314.066307 217.805755 
L 315.080852 217.805755 
L 315.080852 218.521918 
L 316.095398 218.521918 
L 316.095398 218.700959 
L 318.124489 218.700959 
L 318.124489 218.88 
L 328.269943 218.88 
L 328.269943 218.521918 
L 329.284489 218.521918 
L 329.284489 217.805755 
L 330.299034 217.805755 
L 330.299034 215.836306 
L 331.31358 215.836306 
L 331.31358 211.539325 
L 332.328125 211.539325 
L 332.328125 211.002202 
L 333.34267 211.002202 
L 333.34267 205.272895 
L 334.357216 205.272895 
L 334.357216 205.810018 
L 335.371761 205.810018 
L 335.371761 202.587282 
L 336.386307 202.587282 
L 336.386307 202.945364 
L 337.400852 202.945364 
L 337.400852 204.019609 
L 338.415398 204.019609 
L 338.415398 203.124405 
L 339.429943 203.124405 
L 339.429943 204.019609 
L 340.444489 204.019609 
L 340.444489 202.945364 
L 341.459034 202.945364 
L 341.459034 203.482487 
L 342.47358 203.482487 
L 342.47358 201.333996 
L 343.488125 201.333996 
L 343.488125 204.914813 
L 344.50267 204.914813 
L 344.50267 206.526181 
L 345.517216 206.526181 
L 345.517216 203.124405 
L 346.531761 203.124405 
L 346.531761 203.840568 
L 347.546307 203.840568 
L 347.546307 204.735773 
L 348.560852 204.735773 
L 348.560852 205.451936 
L 349.575398 205.451936 
L 349.575398 206.168099 
L 350.589943 206.168099 
L 350.589943 207.600426 
L 351.604489 207.600426 
L 351.604489 208.137549 
L 352.619034 208.137549 
L 352.619034 208.495631 
L 353.63358 208.495631 
L 353.63358 210.823162 
L 354.648125 210.823162 
L 354.648125 206.884263 
L 355.66267 206.884263 
L 355.66267 208.853712 
L 356.677216 208.853712 
L 356.677216 207.242345 
L 357.691761 207.242345 
L 357.691761 207.779467 
L 358.706307 207.779467 
L 358.706307 208.31659 
L 359.720852 208.31659 
L 359.720852 209.748917 
L 360.735398 209.748917 
L 360.735398 209.211794 
L 361.749943 209.211794 
L 361.749943 210.286039 
L 362.764489 210.286039 
L 362.764489 209.032753 
L 363.779034 209.032753 
L 363.779034 210.644121 
L 364.79358 210.644121 
L 364.79358 210.823162 
L 365.808125 210.823162 
L 365.808125 213.687815 
L 366.82267 213.687815 
L 366.82267 214.76206 
L 368.851761 214.76206 
L 368.851761 213.508774 
L 369.866307 213.508774 
L 369.866307 215.836306 
L 370.880852 215.836306 
L 370.880852 216.73151 
L 371.895398 216.73151 
L 371.895398 218.521918 
L 372.909943 218.521918 
L 372.909943 218.521918 
" clip-path="url(#pe42fea2fc2)" style="fill: none; stroke: #1f77b4; stroke-width: 1.5; stroke-linecap: square"/>
   </g>
   <g id="patch_3">
    <path d="M 53.328125 228.96 
L 53.328125 7.2 
" style="fill: none; stroke: #000000; stroke-width: 0.8; stroke-linejoin: miter; stroke-linecap: square"/>
   </g>
   <g id="patch_4">
    <path d="M 388.128125 228.96 
L 388.128125 7.2 
" style="fill: none; stroke: #000000; stroke-width: 0.8; stroke-linejoin: miter; stroke-linecap: square"/>
   </g>
   <g id="patch_5">
    <path d="M 53.328125 228.96 
L 388.128125 228.96 
" style="fill: none; stroke: #000000; stroke-width: 0.8; stroke-linejoin: miter; stroke-linecap: square"/>
   </g>
   <g id="patch_6">
    <path d="M 53.328125 7.2 
L 388.128125 7.2 
" style="fill: none; stroke: #000000; stroke-width: 0.8; stroke-linejoin: miter; stroke-linecap: square"/>
   </g>
  </g>
 </g>
 <defs>
  <clipPath id="pe42fea2fc2">
   <rect x="53.328125" y="7.2" width="334.8" height="221.76"/>
  </clipPath>
 </defs>
</svg>
