<?xml version="1.0" encoding="utf-8" standalone="no"?>
<!DOCTYPE svg PUBLIC "-//W3C//DTD SVG 1.1//EN"
  "http://www.w3.org/Graphics/SVG/1.1/DTD/svg11.dtd">
<svg xmlns:xlink="http://www.w3.org/1999/xlink" width="395.328125pt" height="268.200625pt" viewBox="0 0 395.328125 268.200625" xmlns="http://www.w3.org/2000/svg" version="1.1">
 <metadata>
  <rdf:RDF xmlns:dc="http://purl.org/dc/elements/1.1/" xmlns:cc="http://creativecommons.org/ns#" xmlns:rdf="http://www.w3.org/1999/02/22-rdf-syntax-ns#">
   <cc:Work>
    <dc:type rdf:resource="http://purl.org/dc/dcmitype/StillImage"/>
    <dc:date>2025-10-10T17:28:30.145492</dc:date>
    <dc:format>image/svg+xml</dc:format>
    <dc:creator>
     <cc:Agent>
      <dc:title>Matplotlib v3.10.6, https://matplotlib.org/</dc:title>
     </cc:Agent>
    </dc:creator>
   </cc:Work>
  </rdf:RDF>
 </metadata>
 <defs>
  <style type="text/css">*{stroke-linejoin: round; stroke-linecap: butt}</style>
 </defs>
 <g id="figure_1">
  <g id="patch_1">
   <path d="M 0 268.200625 
L 395.328125 268.200625 
L 395.328125 0 
L 0 0 
z
" style="fill: #ffffff"/>
  </g>
  <g id="axes_1">
   <g id="patch_2">
    <path d="M 53.328125 228.96 
L 388.128125 228.96 
L 388.128125 7.2 
L 53.328125 7.2 
z
" style="fill: #ffffff"/>
   </g>
   <g id="matplotlib.axis_1">
    <g id="xtick_1">
     <g id="line2d_1">
      <defs>
       <path id="m1fd9c37faa" d="M 0 0 
L 0 3.5 
" style="stroke: #000000; stroke-width: 0.8"/>
      </defs>
      <g>
       <use xlink:href="#m1fd9c37faa" x="65.478703" y="228.96" style="stroke: #000000; stroke-width: 0.8"/>
      </g>
     </g>
     <g id="text_1">
      <!-- 0.0 -->
      <g transform="translate(57.52714 243.558437) scale(0.1 -0.1)">
       <defs>
        <path id="DejaVuSans-30" d="M 2034 4250 
Q 1547 4250 1301 3770 
Q 1056 3291 1056 2328 
Q 1056 1369 1301 889 
Q 1547 409 2034 409 
Q 2525 409 2770 889 
Q 3016 1369 3016 2328 
Q 3016 3291 2770 3770 
Q 2525 4250 2034 4250 
z
M 2034 4750 
Q 2819 4750 3233 4129 
Q 3647 3509 3647 2328 
Q 3647 1150 3233 529 
Q 2819 -91 2034 -91 
Q 1250 -91 836 529 
Q 422 1150 422 2328 
Q 422 3509 836 4129 
Q 1250 4750 2034 4750 
z
" transform="scale(0.015625)"/>
        <path id="DejaVuSans-2e" d="M 684 794 
L 1344 794 
L 1344 0 
L 684 0 
L 684 794 
z
" transform="scale(0.015625)"/>
       </defs>
       <use xlink:href="#DejaVuSans-30"/>
       <use xlink:href="#DejaVuSans-2e" transform="translate(63.623047 0)"/>
       <use xlink:href="#DejaVuSans-30" transform="translate(95.410156 0)"/>
      </g>
     </g>
    </g>
    <g id="xtick_2">
     <g id="line2d_2">
      <g>
       <use xlink:href="#m1fd9c37faa" x="104.11036" y="228.96" style="stroke: #000000; stroke-width: 0.8"/>
      </g>
     </g>
     <g id="text_2">
      <!-- 2.5 -->
      <g transform="translate(96.158798 243.558437) scale(0.1 -0.1)">
       <defs>
        <path id="DejaVuSans-32" d="M 1228 531 
L 3431 531 
L 3431 0 
L 469 0 
L 469 531 
Q 828 903 1448 1529 
Q 2069 2156 2228 2338 
Q 2531 2678 2651 2914 
Q 2772 3150 2772 3378 
Q 2772 3750 2511 3984 
Q 2250 4219 1831 4219 
Q 1534 4219 1204 4116 
Q 875 4013 500 3803 
L 500 4441 
Q 881 4594 1212 4672 
Q 1544 4750 1819 4750 
Q 2544 4750 2975 4387 
Q 3406 4025 3406 3419 
Q 3406 3131 3298 2873 
Q 3191 2616 2906 2266 
Q 2828 2175 2409 1742 
Q 1991 1309 1228 531 
z
" transform="scale(0.015625)"/>
        <path id="DejaVuSans-35" d="M 691 4666 
L 3169 4666 
L 3169 4134 
L 1269 4134 
L 1269 2991 
Q 1406 3038 1543 3061 
Q 1681 3084 1819 3084 
Q 2600 3084 3056 2656 
Q 3513 2228 3513 1497 
Q 3513 744 3044 326 
Q 2575 -91 1722 -91 
Q 1428 -91 1123 -41 
Q 819 9 494 109 
L 494 744 
Q 775 591 1075 516 
Q 1375 441 1709 441 
Q 2250 441 2565 725 
Q 2881 1009 2881 1497 
Q 2881 1984 2565 2268 
Q 2250 2553 1709 2553 
Q 1456 2553 1204 2497 
Q 953 2441 691 2322 
L 691 4666 
z
" transform="scale(0.015625)"/>
       </defs>
       <use xlink:href="#DejaVuSans-32"/>
       <use xlink:href="#DejaVuSans-2e" transform="translate(63.623047 0)"/>
       <use xlink:href="#DejaVuSans-35" transform="translate(95.410156 0)"/>
      </g>
     </g>
    </g>
    <g id="xtick_3">
     <g id="line2d_3">
      <g>
       <use xlink:href="#m1fd9c37faa" x="142.742018" y="228.96" style="stroke: #000000; stroke-width: 0.8"/>
      </g>
     </g>
     <g id="text_3">
      <!-- 5.0 -->
      <g transform="translate(134.790455 243.558437) scale(0.1 -0.1)">
       <use xlink:href="#DejaVuSans-35"/>
       <use xlink:href="#DejaVuSans-2e" transform="translate(63.623047 0)"/>
       <use xlink:href="#DejaVuSans-30" transform="translate(95.410156 0)"/>
      </g>
     </g>
    </g>
    <g id="xtick_4">
     <g id="line2d_4">
      <g>
       <use xlink:href="#m1fd9c37faa" x="181.373675" y="228.96" style="stroke: #000000; stroke-width: 0.8"/>
      </g>
     </g>
     <g id="text_4">
      <!-- 7.5 -->
      <g transform="translate(173.422113 243.558437) scale(0.1 -0.1)">
       <defs>
        <path id="DejaVuSans-37" d="M 525 4666 
L 3525 4666 
L 3525 4397 
L 1831 0 
L 1172 0 
L 2766 4134 
L 525 4134 
L 525 4666 
z
" transform="scale(0.015625)"/>
       </defs>
       <use xlink:href="#DejaVuSans-37"/>
       <use xlink:href="#DejaVuSans-2e" transform="translate(63.623047 0)"/>
       <use xlink:href="#DejaVuSans-35" transform="translate(95.410156 0)"/>
      </g>
     </g>
    </g>
    <g id="xtick_5">
     <g id="line2d_5">
      <g>
       <use xlink:href="#m1fd9c37faa" x="220.005333" y="228.96" style="stroke: #000000; stroke-width: 0.8"/>
      </g>
     </g>
     <g id="text_5">
      <!-- 10.0 -->
      <g transform="translate(208.87252 243.558437) scale(0.1 -0.1)">
       <defs>
        <path id="DejaVuSans-31" d="M 794 531 
L 1825 531 
L 1825 4091 
L 703 3866 
L 703 4441 
L 1819 4666 
L 2450 4666 
L 2450 531 
L 3481 531 
L 3481 0 
L 794 0 
L 794 531 
z
" transform="scale(0.015625)"/>
       </defs>
       <use xlink:href="#DejaVuSans-31"/>
       <use xlink:href="#DejaVuSans-30" transform="translate(63.623047 0)"/>
       <use xlink:href="#DejaVuSans-2e" transform="translate(127.246094 0)"/>
       <use xlink:href="#DejaVuSans-30" transform="translate(159.033203 0)"/>
      </g>
     </g>
    </g>
    <g id="xtick_6">
     <g id="line2d_6">
      <g>
       <use xlink:href="#m1fd9c37faa" x="258.63699" y="228.96" style="stroke: #000000; stroke-width: 0.8"/>
      </g>
     </g>
     <g id="text_6">
      <!-- 12.5 -->
      <g transform="translate(247.504178 243.558437) scale(0.1 -0.1)">
       <use xlink:href="#DejaVuSans-31"/>
       <use xlink:href="#DejaVuSans-32" transform="translate(63.623047 0)"/>
       <use xlink:href="#DejaVuSans-2e" transform="translate(127.246094 0)"/>
       <use xlink:href="#DejaVuSans-35" transform="translate(159.033203 0)"/>
      </g>
     </g>
    </g>
    <g id="xtick_7">
     <g id="line2d_7">
      <g>
       <use xlink:href="#m1fd9c37faa" x="297.268648" y="228.96" style="stroke: #000000; stroke-width: 0.8"/>
      </g>
     </g>
     <g id="text_7">
      <!-- 15.0 -->
      <g transform="translate(286.135835 243.558437) scale(0.1 -0.1)">
       <use xlink:href="#DejaVuSans-31"/>
       <use xlink:href="#DejaVuSans-35" transform="translate(63.623047 0)"/>
       <use xlink:href="#DejaVuSans-2e" transform="translate(127.246094 0)"/>
       <use xlink:href="#DejaVuSans-30" transform="translate(159.033203 0)"/>
      </g>
     </g>
    </g>
    <g id="xtick_8">
     <g id="line2d_8">
      <g>
       <use xlink:href="#m1fd9c37faa" x="335.900305" y="228.96" style="stroke: #000000; stroke-width: 0.8"/>
      </g>
     </g>
     <g id="text_8">
      <!-- 17.5 -->
      <g transform="translate(324.767493 243.558437) scale(0.1 -0.1)">
       <use xlink:href="#DejaVuSans-31"/>
       <use xlink:href="#DejaVuSans-37" transform="translate(63.623047 0)"/>
       <use xlink:href="#DejaVuSans-2e" transform="translate(127.246094 0)"/>
       <use xlink:href="#DejaVuSans-35" transform="translate(159.033203 0)"/>
      </g>
     </g>
    </g>
    <g id="xtick_9">
     <g id="line2d_9">
      <g>
       <use xlink:href="#m1fd9c37faa" x="374.531963" y="228.96" style="stroke: #000000; stroke-width: 0.8"/>
      </g>
     </g>
     <g id="text_9">
      <!-- 20.0 -->
      <g transform="translate(363.39915 243.558437) scale(0.1 -0.1)">
       <use xlink:href="#DejaVuSans-32"/>
       <use xlink:href="#DejaVuSans-30" transform="translate(63.623047 0)"/>
       <use xlink:href="#DejaVuSans-2e" transform="translate(127.246094 0)"/>
       <use xlink:href="#DejaVuSans-30" transform="translate(159.033203 0)"/>
      </g>
     </g>
    </g>
    <g id="text_10">
     <!-- wavelength [Å] -->
     <g transform="translate(182.690625 258.920937) scale(0.1 -0.1)">
      <defs>
       <path id="DejaVuSans-77" d="M 269 3500 
L 844 3500 
L 1563 769 
L 2278 3500 
L 2956 3500 
L 3675 769 
L 4391 3500 
L 4966 3500 
L 4050 0 
L 3372 0 
L 2619 2869 
L 1863 0 
L 1184 0 
L 269 3500 
z
" transform="scale(0.015625)"/>
       <path id="DejaVuSans-61" d="M 2194 1759 
Q 1497 1759 1228 1600 
Q 959 1441 959 1056 
Q 959 750 1161 570 
Q 1363 391 1709 391 
Q 2188 391 2477 730 
Q 2766 1069 2766 1631 
L 2766 1759 
L 2194 1759 
z
M 3341 1997 
L 3341 0 
L 2766 0 
L 2766 531 
Q 2569 213 2275 61 
Q 1981 -91 1556 -91 
Q 1019 -91 701 211 
Q 384 513 384 1019 
Q 384 1609 779 1909 
Q 1175 2209 1959 2209 
L 2766 2209 
L 2766 2266 
Q 2766 2663 2505 2880 
Q 2244 3097 1772 3097 
Q 1472 3097 1187 3025 
Q 903 2953 641 2809 
L 641 3341 
Q 956 3463 1253 3523 
Q 1550 3584 1831 3584 
Q 2591 3584 2966 3190 
Q 3341 2797 3341 1997 
z
" transform="scale(0.015625)"/>
       <path id="DejaVuSans-76" d="M 191 3500 
L 800 3500 
L 1894 563 
L 2988 3500 
L 3597 3500 
L 2284 0 
L 1503 0 
L 191 3500 
z
" transform="scale(0.015625)"/>
       <path id="DejaVuSans-65" d="M 3597 1894 
L 3597 1613 
L 953 1613 
Q 991 1019 1311 708 
Q 1631 397 2203 397 
Q 2534 397 2845 478 
Q 3156 559 3463 722 
L 3463 178 
Q 3153 47 2828 -22 
Q 2503 -91 2169 -91 
Q 1331 -91 842 396 
Q 353 884 353 1716 
Q 353 2575 817 3079 
Q 1281 3584 2069 3584 
Q 2775 3584 3186 3129 
Q 3597 2675 3597 1894 
z
M 3022 2063 
Q 3016 2534 2758 2815 
Q 2500 3097 2075 3097 
Q 1594 3097 1305 2825 
Q 1016 2553 972 2059 
L 3022 2063 
z
" transform="scale(0.015625)"/>
       <path id="DejaVuSans-6c" d="M 603 4863 
L 1178 4863 
L 1178 0 
L 603 0 
L 603 4863 
z
" transform="scale(0.015625)"/>
       <path id="DejaVuSans-6e" d="M 3513 2113 
L 3513 0 
L 2938 0 
L 2938 2094 
Q 2938 2591 2744 2837 
Q 2550 3084 2163 3084 
Q 1697 3084 1428 2787 
Q 1159 2491 1159 1978 
L 1159 0 
L 581 0 
L 581 3500 
L 1159 3500 
L 1159 2956 
Q 1366 3272 1645 3428 
Q 1925 3584 2291 3584 
Q 2894 3584 3203 3211 
Q 3513 2838 3513 2113 
z
" transform="scale(0.015625)"/>
       <path id="DejaVuSans-67" d="M 2906 1791 
Q 2906 2416 2648 2759 
Q 2391 3103 1925 3103 
Q 1463 3103 1205 2759 
Q 947 2416 947 1791 
Q 947 1169 1205 825 
Q 1463 481 1925 481 
Q 2391 481 2648 825 
Q 2906 1169 2906 1791 
z
M 3481 434 
Q 3481 -459 3084 -895 
Q 2688 -1331 1869 -1331 
Q 1566 -1331 1297 -1286 
Q 1028 -1241 775 -1147 
L 775 -588 
Q 1028 -725 1275 -790 
Q 1522 -856 1778 -856 
Q 2344 -856 2625 -561 
Q 2906 -266 2906 331 
L 2906 616 
Q 2728 306 2450 153 
Q 2172 0 1784 0 
Q 1141 0 747 490 
Q 353 981 353 1791 
Q 353 2603 747 3093 
Q 1141 3584 1784 3584 
Q 2172 3584 2450 3431 
Q 2728 3278 2906 2969 
L 2906 3500 
L 3481 3500 
L 3481 434 
z
" transform="scale(0.015625)"/>
       <path id="DejaVuSans-74" d="M 1172 4494 
L 1172 3500 
L 2356 3500 
L 2356 3053 
L 1172 3053 
L 1172 1153 
Q 1172 725 1289 603 
Q 1406 481 1766 481 
L 2356 481 
L 2356 0 
L 1766 0 
Q 1100 0 847 248 
Q 594 497 594 1153 
L 594 3053 
L 172 3053 
L 172 3500 
L 594 3500 
L 594 4494 
L 1172 4494 
z
" transform="scale(0.015625)"/>
       <path id="DejaVuSans-68" d="M 3513 2113 
L 3513 0 
L 2938 0 
L 2938 2094 
Q 2938 2591 2744 2837 
Q 2550 3084 2163 3084 
Q 1697 3084 1428 2787 
Q 1159 2491 1159 1978 
L 1159 0 
L 581 0 
L 581 4863 
L 1159 4863 
L 1159 2956 
Q 1366 3272 1645 3428 
Q 1925 3584 2291 3584 
Q 2894 3584 3203 3211 
Q 3513 2838 3513 2113 
z
" transform="scale(0.015625)"/>
       <path id="DejaVuSans-20" transform="scale(0.015625)"/>
       <path id="DejaVuSans-5b" d="M 550 4863 
L 1875 4863 
L 1875 4416 
L 1125 4416 
L 1125 -397 
L 1875 -397 
L 1875 -844 
L 550 -844 
L 550 4863 
z
" transform="scale(0.015625)"/>
       <path id="DejaVuSans-c5" d="M 2663 5081 
Q 2663 5278 2523 5417 
Q 2384 5556 2188 5556 
Q 1988 5556 1852 5420 
Q 1716 5284 1716 5081 
Q 1716 4884 1853 4746 
Q 1991 4609 2188 4609 
Q 2384 4609 2523 4746 
Q 2663 4884 2663 5081 
z
M 2188 4044 
L 1338 1722 
L 3041 1722 
L 2188 4044 
z
M 1716 4366 
Q 1525 4494 1428 4673 
Q 1331 4853 1331 5081 
Q 1331 5441 1579 5691 
Q 1828 5941 2188 5941 
Q 2544 5941 2795 5689 
Q 3047 5438 3047 5081 
Q 3047 4863 2948 4678 
Q 2850 4494 2663 4366 
L 4325 0 
L 3669 0 
L 3244 1197 
L 1141 1197 
L 716 0 
L 50 0 
L 1716 4366 
z
" transform="scale(0.015625)"/>
       <path id="DejaVuSans-5d" d="M 1947 4863 
L 1947 -844 
L 622 -844 
L 622 -397 
L 1369 -397 
L 1369 4416 
L 622 4416 
L 622 4863 
L 1947 4863 
z
" transform="scale(0.015625)"/>
      </defs>
      <use xlink:href="#DejaVuSans-77"/>
      <use xlink:href="#DejaVuSans-61" transform="translate(81.787109 0)"/>
      <use xlink:href="#DejaVuSans-76" transform="translate(143.066406 0)"/>
      <use xlink:href="#DejaVuSans-65" transform="translate(202.246094 0)"/>
      <use xlink:href="#DejaVuSans-6c" transform="translate(263.769531 0)"/>
      <use xlink:href="#DejaVuSans-65" transform="translate(291.552734 0)"/>
      <use xlink:href="#DejaVuSans-6e" transform="translate(353.076172 0)"/>
      <use xlink:href="#DejaVuSans-67" transform="translate(416.455078 0)"/>
      <use xlink:href="#DejaVuSans-74" transform="translate(479.931641 0)"/>
      <use xlink:href="#DejaVuSans-68" transform="translate(519.140625 0)"/>
      <use xlink:href="#DejaVuSans-20" transform="translate(582.519531 0)"/>
      <use xlink:href="#DejaVuSans-5b" transform="translate(614.306641 0)"/>
      <use xlink:href="#DejaVuSans-c5" transform="translate(653.320312 0)"/>
      <use xlink:href="#DejaVuSans-5d" transform="translate(721.728516 0)"/>
     </g>
    </g>
   </g>
   <g id="matplotlib.axis_2">
    <g id="ytick_1">
     <g id="line2d_10">
      <defs>
       <path id="m63c311f41f" d="M 0 0 
L -3.5 0 
" style="stroke: #000000; stroke-width: 0.8"/>
      </defs>
      <g>
       <use xlink:href="#m63c311f41f" x="53.328125" y="218.88" style="stroke: #000000; stroke-width: 0.8"/>
      </g>
     </g>
     <g id="text_11">
      <!-- 0 -->
      <g transform="translate(39.965625 222.679219) scale(0.1 -0.1)">
       <use xlink:href="#DejaVuSans-30"/>
      </g>
     </g>
    </g>
    <g id="ytick_2">
     <g id="line2d_11">
      <g>
       <use xlink:href="#m63c311f41f" x="53.328125" y="179.749565" style="stroke: #000000; stroke-width: 0.8"/>
      </g>
     </g>
     <g id="text_12">
      <!-- 500 -->
      <g transform="translate(27.240625 183.548784) scale(0.1 -0.1)">
       <use xlink:href="#DejaVuSans-35"/>
       <use xlink:href="#DejaVuSans-30" transform="translate(63.623047 0)"/>
       <use xlink:href="#DejaVuSans-30" transform="translate(127.246094 0)"/>
      </g>
     </g>
    </g>
    <g id="ytick_3">
     <g id="line2d_12">
      <g>
       <use xlink:href="#m63c311f41f" x="53.328125" y="140.61913" style="stroke: #000000; stroke-width: 0.8"/>
      </g>
     </g>
     <g id="text_13">
      <!-- 1000 -->
      <g transform="translate(20.878125 144.418349) scale(0.1 -0.1)">
       <use xlink:href="#DejaVuSans-31"/>
       <use xlink:href="#DejaVuSans-30" transform="translate(63.623047 0)"/>
       <use xlink:href="#DejaVuSans-30" transform="translate(127.246094 0)"/>
       <use xlink:href="#DejaVuSans-30" transform="translate(190.869141 0)"/>
      </g>
     </g>
    </g>
    <g id="ytick_4">
     <g id="line2d_13">
      <g>
       <use xlink:href="#m63c311f41f" x="53.328125" y="101.488696" style="stroke: #000000; stroke-width: 0.8"/>
      </g>
     </g>
     <g id="text_14">
      <!-- 1500 -->
      <g transform="translate(20.878125 105.287914) scale(0.1 -0.1)">
       <use xlink:href="#DejaVuSans-31"/>
       <use xlink:href="#DejaVuSans-35" transform="translate(63.623047 0)"/>
       <use xlink:href="#DejaVuSans-30" transform="translate(127.246094 0)"/>
       <use xlink:href="#DejaVuSans-30" transform="translate(190.869141 0)"/>
      </g>
     </g>
    </g>
    <g id="ytick_5">
     <g id="line2d_14">
      <g>
       <use xlink:href="#m63c311f41f" x="53.328125" y="62.358261" style="stroke: #000000; stroke-width: 0.8"/>
      </g>
     </g>
     <g id="text_15">
      <!-- 2000 -->
      <g transform="translate(20.878125 66.15748) scale(0.1 -0.1)">
       <use xlink:href="#DejaVuSans-32"/>
       <use xlink:href="#DejaVuSans-30" transform="translate(63.623047 0)"/>
       <use xlink:href="#DejaVuSans-30" transform="translate(127.246094 0)"/>
       <use xlink:href="#DejaVuSans-30" transform="translate(190.869141 0)"/>
      </g>
     </g>
    </g>
    <g id="ytick_6">
     <g id="line2d_15">
      <g>
       <use xlink:href="#m63c311f41f" x="53.328125" y="23.227826" style="stroke: #000000; stroke-width: 0.8"/>
      </g>
     </g>
     <g id="text_16">
      <!-- 2500 -->
      <g transform="translate(20.878125 27.027045) scale(0.1 -0.1)">
       <use xlink:href="#DejaVuSans-32"/>
       <use xlink:href="#DejaVuSans-35" transform="translate(63.623047 0)"/>
       <use xlink:href="#DejaVuSans-30" transform="translate(127.246094 0)"/>
       <use xlink:href="#DejaVuSans-30" transform="translate(190.869141 0)"/>
      </g>
     </g>
    </g>
    <g id="text_17">
     <!-- [counts] -->
     <g transform="translate(14.798438 138.6925) rotate(-90) scale(0.1 -0.1)">
      <defs>
       <path id="DejaVuSans-63" d="M 3122 3366 
L 3122 2828 
Q 2878 2963 2633 3030 
Q 2388 3097 2138 3097 
Q 1578 3097 1268 2742 
Q 959 2388 959 1747 
Q 959 1106 1268 751 
Q 1578 397 2138 397 
Q 2388 397 2633 464 
Q 2878 531 3122 666 
L 3122 134 
Q 2881 22 2623 -34 
Q 2366 -91 2075 -91 
Q 1284 -91 818 406 
Q 353 903 353 1747 
Q 353 2603 823 3093 
Q 1294 3584 2113 3584 
Q 2378 3584 2631 3529 
Q 2884 3475 3122 3366 
z
" transform="scale(0.015625)"/>
       <path id="DejaVuSans-6f" d="M 1959 3097 
Q 1497 3097 1228 2736 
Q 959 2375 959 1747 
Q 959 1119 1226 758 
Q 1494 397 1959 397 
Q 2419 397 2687 759 
Q 2956 1122 2956 1747 
Q 2956 2369 2687 2733 
Q 2419 3097 1959 3097 
z
M 1959 3584 
Q 2709 3584 3137 3096 
Q 3566 2609 3566 1747 
Q 3566 888 3137 398 
Q 2709 -91 1959 -91 
Q 1206 -91 779 398 
Q 353 888 353 1747 
Q 353 2609 779 3096 
Q 1206 3584 1959 3584 
z
" transform="scale(0.015625)"/>
       <path id="DejaVuSans-75" d="M 544 1381 
L 544 3500 
L 1119 3500 
L 1119 1403 
Q 1119 906 1312 657 
Q 1506 409 1894 409 
Q 2359 409 2629 706 
Q 2900 1003 2900 1516 
L 2900 3500 
L 3475 3500 
L 3475 0 
L 2900 0 
L 2900 538 
Q 2691 219 2414 64 
Q 2138 -91 1772 -91 
Q 1169 -91 856 284 
Q 544 659 544 1381 
z
M 1991 3584 
L 1991 3584 
z
" transform="scale(0.015625)"/>
       <path id="DejaVuSans-73" d="M 2834 3397 
L 2834 2853 
Q 2591 2978 2328 3040 
Q 2066 3103 1784 3103 
Q 1356 3103 1142 2972 
Q 928 2841 928 2578 
Q 928 2378 1081 2264 
Q 1234 2150 1697 2047 
L 1894 2003 
Q 2506 1872 2764 1633 
Q 3022 1394 3022 966 
Q 3022 478 2636 193 
Q 2250 -91 1575 -91 
Q 1294 -91 989 -36 
Q 684 19 347 128 
L 347 722 
Q 666 556 975 473 
Q 1284 391 1588 391 
Q 1994 391 2212 530 
Q 2431 669 2431 922 
Q 2431 1156 2273 1281 
Q 2116 1406 1581 1522 
L 1381 1569 
Q 847 1681 609 1914 
Q 372 2147 372 2553 
Q 372 3047 722 3315 
Q 1072 3584 1716 3584 
Q 2034 3584 2315 3537 
Q 2597 3491 2834 3397 
z
" transform="scale(0.015625)"/>
      </defs>
      <use xlink:href="#DejaVuSans-5b"/>
      <use xlink:href="#DejaVuSans-63" transform="translate(39.013672 0)"/>
      <use xlink:href="#DejaVuSans-6f" transform="translate(93.994141 0)"/>
      <use xlink:href="#DejaVuSans-75" transform="translate(155.175781 0)"/>
      <use xlink:href="#DejaVuSans-6e" transform="translate(218.554688 0)"/>
      <use xlink:href="#DejaVuSans-74" transform="translate(281.933594 0)"/>
      <use xlink:href="#DejaVuSans-73" transform="translate(321.142578 0)"/>
      <use xlink:href="#DejaVuSans-5d" transform="translate(373.242188 0)"/>
     </g>
    </g>
   </g>
   <g id="line2d_16">
    <path d="M 68.546307 34.653913 
L 69.155034 34.653913 
L 69.155034 37.784348 
L 69.763761 37.784348 
L 69.763761 34.653913 
L 70.372489 34.653913 
L 70.372489 30.74087 
L 70.981216 30.74087 
L 70.981216 24.793043 
L 71.589943 24.793043 
L 71.589943 24.558261 
L 72.19867 24.558261 
L 72.19867 42.010435 
L 72.807398 42.010435 
L 72.807398 43.34087 
L 73.416125 43.34087 
L 73.416125 52.497391 
L 74.024852 52.497391 
L 74.024852 65.01913 
L 74.63358 65.01913 
L 74.63358 74.566957 
L 75.242307 74.566957 
L 75.242307 47.097391 
L 75.851034 47.097391 
L 75.851034 36.062609 
L 76.459761 36.062609 
L 76.459761 28.158261 
L 77.068489 28.158261 
L 77.068489 23.932174 
L 77.677216 23.932174 
L 77.677216 17.28 
L 78.285943 17.28 
L 78.285943 21.584348 
L 78.89467 21.584348 
L 78.89467 23.853913 
L 79.503398 23.853913 
L 79.503398 17.749565 
L 80.112125 17.749565 
L 80.112125 33.323478 
L 80.720852 33.323478 
L 80.720852 48.897391 
L 81.32958 48.897391 
L 81.32958 60.401739 
L 81.938307 60.401739 
L 81.938307 83.801739 
L 82.547034 83.801739 
L 82.547034 106.41913 
L 83.155761 106.41913 
L 83.155761 127.784348 
L 83.764489 127.784348 
L 83.764489 139.445217 
L 84.373216 139.445217 
L 84.373216 159.245217 
L 84.981943 159.245217 
L 84.981943 174.584348 
L 85.59067 174.584348 
L 85.59067 187.106087 
L 86.199398 187.106087 
L 86.199398 196.653913 
L 86.808125 196.653913 
L 86.808125 201.897391 
L 87.416852 201.897391 
L 87.416852 203.384348 
L 88.634307 203.306087 
L 88.634307 201.271304 
L 89.243034 201.271304 
L 89.243034 196.888696 
L 89.851761 196.888696 
L 89.851761 191.097391 
L 90.460489 191.097391 
L 90.460489 189.688696 
L 91.069216 189.688696 
L 91.069216 177.010435 
L 91.677943 177.010435 
L 91.677943 171.297391 
L 92.28667 171.297391 
L 92.28667 158.697391 
L 92.895398 158.697391 
L 92.895398 152.749565 
L 93.504125 152.749565 
L 93.504125 139.288696 
L 94.112852 139.288696 
L 94.112852 136.393043 
L 94.72158 136.393043 
L 94.72158 127.158261 
L 95.330307 127.158261 
L 95.330307 115.027826 
L 95.939034 115.027826 
L 95.939034 118.862609 
L 96.547761 118.862609 
L 96.547761 116.514783 
L 97.156489 116.514783 
L 97.156489 115.184348 
L 97.765216 115.184348 
L 97.765216 109.158261 
L 98.373943 109.158261 
L 98.373943 110.332174 
L 98.98267 110.332174 
L 98.98267 107.906087 
L 99.591398 107.906087 
L 99.591398 104.071304 
L 100.200125 104.071304 
L 100.200125 101.566957 
L 100.808852 101.566957 
L 100.808852 93.036522 
L 101.41758 93.036522 
L 101.41758 90.610435 
L 102.026307 90.610435 
L 102.026307 86.071304 
L 102.635034 86.071304 
L 102.635034 89.358261 
L 103.243761 89.358261 
L 103.243761 76.993043 
L 103.852489 76.993043 
L 103.852489 79.732174 
L 104.461216 79.732174 
L 104.461216 66.584348 
L 105.069943 66.584348 
L 105.069943 67.601739 
L 105.67867 67.601739 
L 105.67867 66.036522 
L 106.287398 66.036522 
L 106.287398 75.506087 
L 106.896125 75.506087 
L 106.896125 74.801739 
L 107.504852 74.801739 
L 107.504852 79.262609 
L 108.11358 79.262609 
L 108.11358 82.236522 
L 108.722307 82.236522 
L 108.722307 85.758261 
L 109.331034 85.758261 
L 109.331034 82.862609 
L 109.939761 82.862609 
L 109.939761 83.88 
L 110.548489 83.88 
L 110.548489 86.384348 
L 111.157216 86.384348 
L 111.157216 83.175652 
L 111.765943 83.175652 
L 111.765943 88.810435 
L 112.37467 88.810435 
L 112.37467 75.036522 
L 112.983398 75.036522 
L 112.983398 69.088696 
L 113.592125 69.088696 
L 113.592125 62.671304 
L 114.200852 62.671304 
L 114.200852 61.888696 
L 114.80958 61.888696 
L 114.80958 53.28 
L 115.418307 53.28 
L 115.418307 53.045217 
L 116.027034 53.045217 
L 116.027034 58.914783 
L 116.635761 58.914783 
L 116.635761 52.106087 
L 117.244489 52.106087 
L 117.244489 57.193043 
L 117.853216 57.193043 
L 117.853216 70.653913 
L 118.461943 70.653913 
L 118.461943 78.636522 
L 119.07067 78.636522 
L 119.07067 90.297391 
L 119.679398 90.297391 
L 119.679398 104.149565 
L 120.288125 104.149565 
L 120.288125 114.558261 
L 120.896852 114.558261 
L 120.896852 121.68 
L 121.50558 121.68 
L 121.50558 121.914783 
L 122.114307 121.914783 
L 122.114307 130.053913 
L 122.723034 130.053913 
L 122.723034 134.045217 
L 123.331761 134.045217 
L 123.331761 135.062609 
L 123.940489 135.062609 
L 123.940489 141.088696 
L 124.549216 141.088696 
L 124.549216 143.593043 
L 125.157943 143.593043 
L 125.157943 140.932174 
L 125.76667 140.932174 
L 125.76667 143.906087 
L 126.375398 143.906087 
L 126.375398 144.688696 
L 126.984125 144.688696 
L 126.984125 146.645217 
L 128.20158 146.645217 
L 128.20158 146.410435 
L 128.810307 146.410435 
L 128.810307 147.81913 
L 129.419034 147.81913 
L 129.419034 148.601739 
L 130.027761 148.601739 
L 130.027761 149.384348 
L 130.636489 149.384348 
L 130.636489 148.836522 
L 131.245216 148.836522 
L 131.245216 144.062609 
L 131.853943 144.062609 
L 131.853943 147.662609 
L 132.46267 147.662609 
L 132.46267 146.01913 
L 133.071398 146.01913 
L 133.071398 141.636522 
L 133.680125 141.636522 
L 133.680125 136.706087 
L 134.288852 136.706087 
L 134.288852 133.497391 
L 134.89758 133.497391 
L 134.89758 135.532174 
L 135.506307 135.532174 
L 135.506307 137.410435 
L 136.115034 137.410435 
L 136.115034 135.453913 
L 136.723761 135.453913 
L 136.723761 133.106087 
L 137.332489 133.106087 
L 137.332489 137.88 
L 137.941216 137.88 
L 137.941216 141.793043 
L 138.549943 141.793043 
L 138.549943 146.88 
L 139.15867 146.88 
L 139.15867 150.088696 
L 139.767398 150.088696 
L 139.767398 153.14087 
L 140.376125 153.14087 
L 140.376125 154.784348 
L 140.984852 154.784348 
L 140.984852 159.871304 
L 141.59358 159.871304 
L 141.59358 165.114783 
L 142.202307 165.114783 
L 142.202307 169.497391 
L 142.811034 169.497391 
L 142.811034 171.532174 
L 143.419761 171.532174 
L 143.419761 176.149565 
L 144.028489 176.149565 
L 144.028489 177.166957 
L 144.637216 177.166957 
L 144.637216 179.671304 
L 145.245943 179.671304 
L 145.245943 178.653913 
L 145.85467 178.653913 
L 145.85467 181.706087 
L 146.463398 181.706087 
L 146.463398 179.358261 
L 147.072125 179.358261 
L 147.072125 180.610435 
L 147.680852 180.610435 
L 147.680852 178.106087 
L 148.28958 178.106087 
L 148.28958 181.08 
L 148.898307 181.08 
L 148.898307 180.453913 
L 149.507034 180.453913 
L 149.507034 177.401739 
L 150.115761 177.401739 
L 150.115761 179.28 
L 150.724489 179.28 
L 150.724489 180.766957 
L 151.333216 180.766957 
L 151.333216 177.323478 
L 151.941943 177.323478 
L 151.941943 177.010435 
L 152.55067 177.010435 
L 152.55067 171.766957 
L 153.159398 171.766957 
L 153.159398 173.723478 
L 153.768125 173.723478 
L 153.768125 176.932174 
L 154.376852 176.932174 
L 154.376852 172.236522 
L 154.98558 172.236522 
L 154.98558 167.384348 
L 155.594307 167.384348 
L 155.594307 171.610435 
L 156.203034 171.610435 
L 156.203034 174.271304 
L 156.811761 174.271304 
L 156.811761 177.010435 
L 157.420489 177.010435 
L 157.420489 171.845217 
L 158.029216 171.845217 
L 158.029216 177.558261 
L 158.637943 177.558261 
L 158.637943 179.123478 
L 159.24667 179.123478 
L 159.24667 181.471304 
L 159.855398 181.471304 
L 159.855398 182.88 
L 160.464125 182.88 
L 160.464125 186.088696 
L 161.072852 186.088696 
L 161.072852 186.48 
L 161.68158 186.48 
L 161.68158 186.088696 
L 162.290307 186.088696 
L 162.290307 191.332174 
L 162.899034 191.332174 
L 162.899034 193.053913 
L 163.507761 193.053913 
L 163.507761 190.549565 
L 164.116489 190.549565 
L 164.116489 196.027826 
L 164.725216 196.027826 
L 164.725216 197.045217 
L 165.333943 197.045217 
L 165.333943 194.775652 
L 165.94267 194.775652 
L 165.94267 196.262609 
L 166.551398 196.262609 
L 166.551398 194.54087 
L 167.160125 194.54087 
L 167.160125 195.48 
L 167.768852 195.48 
L 167.768852 196.810435 
L 168.37758 196.810435 
L 168.37758 193.914783 
L 168.986307 193.914783 
L 168.986307 193.523478 
L 169.595034 193.523478 
L 169.595034 193.210435 
L 170.203761 193.210435 
L 170.203761 190.158261 
L 170.812489 190.158261 
L 170.812489 188.906087 
L 171.421216 188.906087 
L 171.421216 191.097391 
L 172.029943 191.097391 
L 172.029943 189.375652 
L 172.63867 189.375652 
L 172.63867 193.68 
L 173.247398 193.68 
L 173.247398 190.627826 
L 173.856125 190.627826 
L 173.856125 189.297391 
L 174.464852 189.297391 
L 174.464852 191.723478 
L 175.07358 191.723478 
L 175.07358 191.097391 
L 175.682307 191.097391 
L 175.682307 193.288696 
L 176.291034 193.288696 
L 176.291034 193.445217 
L 176.899761 193.445217 
L 176.899761 194.775652 
L 177.508489 194.775652 
L 177.508489 197.906087 
L 178.117216 197.906087 
L 178.117216 196.575652 
L 178.725943 196.575652 
L 178.725943 199.001739 
L 179.33467 199.001739 
L 179.33467 198.14087 
L 179.943398 198.14087 
L 179.943398 200.175652 
L 180.552125 200.175652 
L 180.552125 200.801739 
L 181.160852 200.801739 
L 181.160852 201.897391 
L 181.76958 201.897391 
L 181.76958 202.366957 
L 182.378307 202.366957 
L 182.378307 202.836522 
L 182.987034 202.836522 
L 182.987034 201.114783 
L 183.595761 201.114783 
L 183.595761 202.445217 
L 184.204489 202.445217 
L 184.204489 201.036522 
L 184.813216 201.036522 
L 184.813216 201.975652 
L 185.421943 201.975652 
L 185.421943 201.427826 
L 186.03067 201.427826 
L 186.03067 201.662609 
L 186.639398 201.662609 
L 186.639398 199.549565 
L 187.248125 199.549565 
L 187.248125 203.384348 
L 187.856852 203.384348 
L 187.856852 200.88 
L 188.46558 200.88 
L 188.46558 201.662609 
L 189.074307 201.662609 
L 189.074307 198.766957 
L 189.683034 198.766957 
L 189.683034 199.94087 
L 190.291761 199.94087 
L 190.291761 202.288696 
L 190.900489 202.288696 
L 190.900489 200.253913 
L 191.509216 200.253913 
L 191.509216 200.723478 
L 192.117943 200.723478 
L 192.117943 202.053913 
L 192.72667 202.053913 
L 192.72667 201.74087 
L 193.335398 201.74087 
L 193.335398 203.306087 
L 193.944125 203.306087 
L 193.944125 202.445217 
L 194.552852 202.445217 
L 194.552852 205.575652 
L 195.16158 205.575652 
L 195.16158 204.010435 
L 195.770307 204.010435 
L 195.770307 205.497391 
L 196.379034 205.497391 
L 196.379034 205.810435 
L 196.987761 205.810435 
L 196.987761 207.375652 
L 197.596489 207.375652 
L 197.596489 206.436522 
L 198.205216 206.436522 
L 198.205216 208.862609 
L 198.813943 208.862609 
L 198.813943 206.749565 
L 199.42267 206.749565 
L 199.42267 209.958261 
L 200.031398 209.958261 
L 200.031398 210.427826 
L 200.640125 210.427826 
L 200.640125 210.584348 
L 201.85758 210.584348 
L 201.85758 212.54087 
L 202.466307 212.54087 
L 202.466307 209.332174 
L 203.075034 209.332174 
L 203.075034 211.445217 
L 203.683761 211.445217 
L 203.683761 211.68 
L 204.292489 211.68 
L 204.292489 210.975652 
L 204.901216 210.975652 
L 204.901216 212.306087 
L 205.509943 212.306087 
L 205.509943 213.245217 
L 206.11867 213.245217 
L 206.11867 212.775652 
L 206.727398 212.775652 
L 206.727398 213.323478 
L 207.336125 213.323478 
L 207.336125 212.384348 
L 207.944852 212.384348 
L 207.944852 214.027826 
L 208.55358 214.027826 
L 208.55358 212.853913 
L 209.162307 212.853913 
L 209.162307 213.401739 
L 209.771034 213.401739 
L 209.771034 214.575652 
L 210.988489 214.653913 
L 210.988489 216.14087 
L 211.597216 216.14087 
L 211.597216 214.810435 
L 212.205943 214.810435 
L 212.205943 216.375652 
L 212.81467 216.375652 
L 212.81467 216.688696 
L 214.032125 216.688696 
L 214.032125 217.314783 
L 214.640852 217.314783 
L 214.640852 216.923478 
L 215.24958 216.923478 
L 215.24958 216.766957 
L 215.858307 216.766957 
L 215.858307 217.94087 
L 216.467034 217.94087 
L 216.467034 218.566957 
L 217.075761 218.566957 
L 217.075761 218.410435 
L 217.684489 218.410435 
L 217.684489 218.645217 
L 218.293216 218.645217 
L 218.293216 218.488696 
L 219.51067 218.566957 
L 219.51067 218.723478 
L 221.94558 218.645217 
L 221.94558 218.410435 
L 222.554307 218.410435 
L 222.554307 218.645217 
L 223.163034 218.645217 
L 223.163034 218.332174 
L 223.771761 218.332174 
L 223.771761 218.01913 
L 224.380489 218.01913 
L 224.380489 218.332174 
L 224.989216 218.332174 
L 224.989216 217.471304 
L 225.597943 217.471304 
L 225.597943 217.706087 
L 226.20667 217.706087 
L 226.20667 217.314783 
L 226.815398 217.314783 
L 226.815398 217.706087 
L 227.424125 217.706087 
L 227.424125 217.314783 
L 228.64158 217.393043 
L 228.64158 218.01913 
L 229.859034 217.94087 
L 229.859034 217.08 
L 230.467761 217.08 
L 230.467761 217.94087 
L 231.076489 217.94087 
L 231.076489 216.923478 
L 231.685216 216.923478 
L 231.685216 217.862609 
L 232.293943 217.862609 
L 232.293943 217.236522 
L 232.90267 217.236522 
L 232.90267 217.393043 
L 233.511398 217.393043 
L 233.511398 217.784348 
L 234.728852 217.862609 
L 234.728852 217.314783 
L 235.33758 217.314783 
L 235.33758 217.158261 
L 235.946307 217.158261 
L 235.946307 217.784348 
L 236.555034 217.784348 
L 236.555034 217.314783 
L 237.163761 217.314783 
L 237.163761 218.01913 
L 237.772489 218.01913 
L 237.772489 217.784348 
L 238.381216 217.784348 
L 238.381216 217.393043 
L 238.989943 217.393043 
L 238.989943 217.94087 
L 240.816125 217.862609 
L 240.816125 217.706087 
L 241.424852 217.706087 
L 241.424852 217.94087 
L 242.03358 217.94087 
L 242.03358 217.706087 
L 242.642307 217.706087 
L 242.642307 218.01913 
L 243.251034 218.01913 
L 243.251034 217.706087 
L 245.077216 217.784348 
L 245.077216 217.314783 
L 245.685943 217.314783 
L 245.685943 217.08 
L 246.29467 217.08 
L 246.29467 217.393043 
L 247.512125 217.471304 
L 247.512125 217.08 
L 248.120852 217.08 
L 248.120852 216.766957 
L 249.947034 216.845217 
L 249.947034 217.393043 
L 250.555761 217.393043 
L 250.555761 217.08 
L 251.164489 217.08 
L 251.164489 217.784348 
L 251.773216 217.784348 
L 251.773216 217.549565 
L 252.381943 217.549565 
L 252.381943 217.236522 
L 252.99067 217.236522 
L 252.99067 217.862609 
L 253.599398 217.862609 
L 253.599398 218.175652 
L 254.208125 218.175652 
L 254.208125 218.332174 
L 254.816852 218.332174 
L 254.816852 218.097391 
L 255.42558 218.097391 
L 255.42558 217.549565 
L 256.034307 217.549565 
L 256.034307 217.314783 
L 256.643034 217.314783 
L 256.643034 217.706087 
L 257.251761 217.706087 
L 257.251761 217.393043 
L 257.860489 217.393043 
L 257.860489 218.175652 
L 258.469216 218.175652 
L 258.469216 217.784348 
L 259.077943 217.784348 
L 259.077943 217.471304 
L 259.68667 217.471304 
L 259.68667 218.175652 
L 260.295398 218.175652 
L 260.295398 217.471304 
L 260.904125 217.471304 
L 260.904125 217.862609 
L 262.12158 217.94087 
L 262.12158 217.471304 
L 262.730307 217.471304 
L 262.730307 217.706087 
L 263.339034 217.706087 
L 263.339034 218.175652 
L 263.947761 218.175652 
L 263.947761 217.627826 
L 264.556489 217.627826 
L 264.556489 217.471304 
L 265.773943 217.393043 
L 265.773943 217.158261 
L 266.38267 217.158261 
L 266.38267 217.393043 
L 267.600125 217.314783 
L 267.600125 217.08 
L 268.208852 217.08 
L 268.208852 217.393043 
L 268.81758 217.393043 
L 268.81758 217.549565 
L 269.426307 217.549565 
L 269.426307 217.862609 
L 270.035034 217.862609 
L 270.035034 218.175652 
L 270.643761 218.175652 
L 270.643761 217.471304 
L 271.252489 217.471304 
L 271.252489 217.862609 
L 271.861216 217.862609 
L 271.861216 217.627826 
L 273.07867 217.549565 
L 273.07867 218.097391 
L 274.296125 218.01913 
L 274.296125 218.332174 
L 274.904852 218.332174 
L 274.904852 218.097391 
L 275.51358 218.097391 
L 275.51358 217.94087 
L 276.122307 217.94087 
L 276.122307 218.410435 
L 277.339761 218.332174 
L 277.339761 218.253913 
L 278.557216 218.332174 
L 278.557216 218.097391 
L 279.165943 218.097391 
L 279.165943 218.488696 
L 279.77467 218.488696 
L 279.77467 218.253913 
L 280.383398 218.253913 
L 280.383398 218.01913 
L 280.992125 218.01913 
L 280.992125 218.175652 
L 281.600852 218.175652 
L 281.600852 217.471304 
L 282.20958 217.471304 
L 282.20958 218.175652 
L 284.035761 218.175652 
L 284.035761 218.01913 
L 284.644489 218.01913 
L 284.644489 217.549565 
L 285.253216 217.549565 
L 285.253216 217.862609 
L 285.861943 217.862609 
L 285.861943 217.236522 
L 286.47067 217.236522 
L 286.47067 217.393043 
L 287.079398 217.393043 
L 287.079398 217.94087 
L 288.296852 217.862609 
L 288.296852 217.627826 
L 289.514307 217.627826 
L 289.514307 218.01913 
L 290.123034 218.01913 
L 290.123034 217.706087 
L 290.731761 217.706087 
L 290.731761 217.862609 
L 291.340489 217.862609 
L 291.340489 217.627826 
L 292.557943 217.627826 
L 292.557943 217.784348 
L 293.16667 217.784348 
L 293.16667 218.253913 
L 293.775398 218.253913 
L 293.775398 218.01913 
L 295.60158 218.01913 
L 295.60158 217.627826 
L 296.210307 217.627826 
L 296.210307 218.645217 
L 296.819034 218.645217 
L 296.819034 218.410435 
L 298.036489 218.488696 
L 298.036489 218.253913 
L 299.253943 218.253913 
L 299.253943 218.566957 
L 299.86267 218.566957 
L 299.86267 218.01913 
L 301.080125 218.097391 
L 301.080125 218.410435 
L 301.688852 218.410435 
L 301.688852 218.01913 
L 302.29758 218.01913 
L 302.29758 218.332174 
L 302.906307 218.332174 
L 302.906307 218.097391 
L 303.515034 218.097391 
L 303.515034 218.332174 
L 304.123761 218.332174 
L 304.123761 217.94087 
L 304.732489 217.94087 
L 304.732489 218.175652 
L 305.341216 218.175652 
L 305.341216 217.549565 
L 305.949943 217.549565 
L 305.949943 218.175652 
L 306.55867 218.175652 
L 306.55867 217.471304 
L 307.167398 217.471304 
L 307.167398 217.862609 
L 307.776125 217.862609 
L 307.776125 217.314783 
L 308.384852 217.314783 
L 308.384852 217.784348 
L 308.99358 217.784348 
L 308.99358 218.097391 
L 309.602307 218.097391 
L 309.602307 217.862609 
L 310.211034 217.862609 
L 310.211034 218.566957 
L 310.819761 218.566957 
L 310.819761 217.94087 
L 311.428489 217.94087 
L 311.428489 218.175652 
L 313.25467 218.175652 
L 313.25467 218.332174 
L 313.863398 218.332174 
L 313.863398 218.488696 
L 314.472125 218.488696 
L 314.472125 218.097391 
L 315.080852 218.097391 
L 315.080852 218.253913 
L 315.68958 218.253913 
L 315.68958 218.01913 
L 316.298307 218.01913 
L 316.298307 218.566957 
L 316.907034 218.566957 
L 316.907034 218.01913 
L 318.124489 218.01913 
L 318.124489 218.410435 
L 318.733216 218.410435 
L 318.733216 218.566957 
L 319.341943 218.566957 
L 319.341943 217.862609 
L 319.95067 217.862609 
L 319.95067 218.097391 
L 320.559398 218.097391 
L 320.559398 218.332174 
L 321.168125 218.332174 
L 321.168125 217.94087 
L 321.776852 217.94087 
L 321.776852 218.175652 
L 322.38558 218.175652 
L 322.38558 218.645217 
L 323.603034 218.723478 
L 323.603034 217.862609 
L 324.211761 217.862609 
L 324.211761 218.488696 
L 324.820489 218.488696 
L 324.820489 218.097391 
L 326.037943 218.097391 
L 326.037943 217.784348 
L 326.64667 217.784348 
L 326.64667 218.097391 
L 327.255398 218.097391 
L 327.255398 218.410435 
L 327.864125 218.410435 
L 327.864125 218.097391 
L 328.472852 218.097391 
L 328.472852 218.332174 
L 330.299034 218.253913 
L 330.299034 218.488696 
L 330.907761 218.488696 
L 330.907761 218.723478 
L 331.516489 218.723478 
L 331.516489 218.566957 
L 332.733943 218.488696 
L 332.733943 218.410435 
L 333.34267 218.410435 
L 333.34267 218.566957 
L 333.951398 218.566957 
L 333.951398 218.175652 
L 334.560125 218.175652 
L 334.560125 218.566957 
L 337.603761 218.645217 
L 337.603761 218.723478 
L 340.03867 218.645217 
L 340.03867 218.566957 
L 340.647398 218.566957 
L 340.647398 218.332174 
L 341.256125 218.332174 
L 341.256125 218.566957 
L 343.691034 218.645217 
L 343.691034 218.801739 
L 344.299761 218.801739 
L 344.299761 218.566957 
L 344.908489 218.566957 
L 344.908489 218.801739 
L 346.73467 218.88 
L 346.73467 218.645217 
L 347.952125 218.645217 
L 347.952125 218.801739 
L 362.56158 218.88 
L 362.56158 218.566957 
L 363.170307 218.566957 
L 363.170307 218.801739 
L 365.605216 218.801739 
L 365.605216 218.645217 
L 366.82267 218.723478 
L 366.82267 218.88 
L 372.909943 218.88 
L 372.909943 218.88 
" clip-path="url(#pf68496301e)" style="fill: none; stroke: #1f77b4; stroke-width: 1.5; stroke-linecap: square"/>
   </g>
   <g id="patch_3">
    <path d="M 53.328125 228.96 
L 53.328125 7.2 
" style="fill: none; stroke: #000000; stroke-width: 0.8; stroke-linejoin: miter; stroke-linecap: square"/>
   </g>
   <g id="patch_4">
    <path d="M 388.128125 228.96 
L 388.128125 7.2 
" style="fill: none; stroke: #000000; stroke-width: 0.8; stroke-linejoin: miter; stroke-linecap: square"/>
   </g>
   <g id="patch_5">
    <path d="M 53.328125 228.96 
L 388.128125 228.96 
" style="fill: none; stroke: #000000; stroke-width: 0.8; stroke-linejoin: miter; stroke-linecap: square"/>
   </g>
   <g id="patch_6">
    <path d="M 53.328125 7.2 
L 388.128125 7.2 
" style="fill: none; stroke: #000000; stroke-width: 0.8; stroke-linejoin: miter; stroke-linecap: square"/>
   </g>
  </g>
 </g>
 <defs>
  <clipPath id="pf68496301e">
   <rect x="53.328125" y="7.2" width="334.8" height="221.76"/>
  </clipPath>
 </defs>
</svg>
