<?xml version="1.0" encoding="utf-8" standalone="no"?>
<!DOCTYPE svg PUBLIC "-//W3C//DTD SVG 1.1//EN"
  "http://www.w3.org/Graphics/SVG/1.1/DTD/svg11.dtd">
<svg xmlns:xlink="http://www.w3.org/1999/xlink" width="395.328125pt" height="268.200625pt" viewBox="0 0 395.328125 268.200625" xmlns="http://www.w3.org/2000/svg" version="1.1">
 <metadata>
  <rdf:RDF xmlns:dc="http://purl.org/dc/elements/1.1/" xmlns:cc="http://creativecommons.org/ns#" xmlns:rdf="http://www.w3.org/1999/02/22-rdf-syntax-ns#">
   <cc:Work>
    <dc:type rdf:resource="http://purl.org/dc/dcmitype/StillImage"/>
    <dc:date>2025-11-13T11:12:01.630785</dc:date>
    <dc:format>image/svg+xml</dc:format>
    <dc:creator>
     <cc:Agent>
      <dc:title>Matplotlib v3.10.7, https://matplotlib.org/</dc:title>
     </cc:Agent>
    </dc:creator>
   </cc:Work>
  </rdf:RDF>
 </metadata>
 <defs>
  <style type="text/css">*{stroke-linejoin: round; stroke-linecap: butt}</style>
 </defs>
 <g id="figure_1">
  <g id="patch_1">
   <path d="M 0 268.200625 
L 395.328125 268.200625 
L 395.328125 0 
L 0 0 
z
" style="fill: #ffffff"/>
  </g>
  <g id="axes_1">
   <g id="patch_2">
    <path d="M 53.328125 228.96 
L 388.128125 228.96 
L 388.128125 7.2 
L 53.328125 7.2 
z
" style="fill: #ffffff"/>
   </g>
   <g id="matplotlib.axis_1">
    <g id="xtick_1">
     <g id="line2d_1">
      <defs>
       <path id="mddd9ec60e9" d="M 0 0 
L 0 3.5 
" style="stroke: #000000; stroke-width: 0.8"/>
      </defs>
      <g>
       <use xlink:href="#mddd9ec60e9" x="65.479563" y="228.96" style="stroke: #000000; stroke-width: 0.8"/>
      </g>
     </g>
     <g id="text_1">
      <!-- 0.0 -->
      <g transform="translate(57.528001 243.558437) scale(0.1 -0.1)">
       <defs>
        <path id="DejaVuSans-30" d="M 2034 4250 
Q 1547 4250 1301 3770 
Q 1056 3291 1056 2328 
Q 1056 1369 1301 889 
Q 1547 409 2034 409 
Q 2525 409 2770 889 
Q 3016 1369 3016 2328 
Q 3016 3291 2770 3770 
Q 2525 4250 2034 4250 
z
M 2034 4750 
Q 2819 4750 3233 4129 
Q 3647 3509 3647 2328 
Q 3647 1150 3233 529 
Q 2819 -91 2034 -91 
Q 1250 -91 836 529 
Q 422 1150 422 2328 
Q 422 3509 836 4129 
Q 1250 4750 2034 4750 
z
" transform="scale(0.015625)"/>
        <path id="DejaVuSans-2e" d="M 684 794 
L 1344 794 
L 1344 0 
L 684 0 
L 684 794 
z
" transform="scale(0.015625)"/>
       </defs>
       <use xlink:href="#DejaVuSans-30"/>
       <use xlink:href="#DejaVuSans-2e" transform="translate(63.623047 0)"/>
       <use xlink:href="#DejaVuSans-30" transform="translate(95.410156 0)"/>
      </g>
     </g>
    </g>
    <g id="xtick_2">
     <g id="line2d_2">
      <g>
       <use xlink:href="#mddd9ec60e9" x="104.100473" y="228.96" style="stroke: #000000; stroke-width: 0.8"/>
      </g>
     </g>
     <g id="text_2">
      <!-- 2.5 -->
      <g transform="translate(96.148911 243.558437) scale(0.1 -0.1)">
       <defs>
        <path id="DejaVuSans-32" d="M 1228 531 
L 3431 531 
L 3431 0 
L 469 0 
L 469 531 
Q 828 903 1448 1529 
Q 2069 2156 2228 2338 
Q 2531 2678 2651 2914 
Q 2772 3150 2772 3378 
Q 2772 3750 2511 3984 
Q 2250 4219 1831 4219 
Q 1534 4219 1204 4116 
Q 875 4013 500 3803 
L 500 4441 
Q 881 4594 1212 4672 
Q 1544 4750 1819 4750 
Q 2544 4750 2975 4387 
Q 3406 4025 3406 3419 
Q 3406 3131 3298 2873 
Q 3191 2616 2906 2266 
Q 2828 2175 2409 1742 
Q 1991 1309 1228 531 
z
" transform="scale(0.015625)"/>
        <path id="DejaVuSans-35" d="M 691 4666 
L 3169 4666 
L 3169 4134 
L 1269 4134 
L 1269 2991 
Q 1406 3038 1543 3061 
Q 1681 3084 1819 3084 
Q 2600 3084 3056 2656 
Q 3513 2228 3513 1497 
Q 3513 744 3044 326 
Q 2575 -91 1722 -91 
Q 1428 -91 1123 -41 
Q 819 9 494 109 
L 494 744 
Q 775 591 1075 516 
Q 1375 441 1709 441 
Q 2250 441 2565 725 
Q 2881 1009 2881 1497 
Q 2881 1984 2565 2268 
Q 2250 2553 1709 2553 
Q 1456 2553 1204 2497 
Q 953 2441 691 2322 
L 691 4666 
z
" transform="scale(0.015625)"/>
       </defs>
       <use xlink:href="#DejaVuSans-32"/>
       <use xlink:href="#DejaVuSans-2e" transform="translate(63.623047 0)"/>
       <use xlink:href="#DejaVuSans-35" transform="translate(95.410156 0)"/>
      </g>
     </g>
    </g>
    <g id="xtick_3">
     <g id="line2d_3">
      <g>
       <use xlink:href="#mddd9ec60e9" x="142.721383" y="228.96" style="stroke: #000000; stroke-width: 0.8"/>
      </g>
     </g>
     <g id="text_3">
      <!-- 5.0 -->
      <g transform="translate(134.769821 243.558437) scale(0.1 -0.1)">
       <use xlink:href="#DejaVuSans-35"/>
       <use xlink:href="#DejaVuSans-2e" transform="translate(63.623047 0)"/>
       <use xlink:href="#DejaVuSans-30" transform="translate(95.410156 0)"/>
      </g>
     </g>
    </g>
    <g id="xtick_4">
     <g id="line2d_4">
      <g>
       <use xlink:href="#mddd9ec60e9" x="181.342293" y="228.96" style="stroke: #000000; stroke-width: 0.8"/>
      </g>
     </g>
     <g id="text_4">
      <!-- 7.5 -->
      <g transform="translate(173.390731 243.558437) scale(0.1 -0.1)">
       <defs>
        <path id="DejaVuSans-37" d="M 525 4666 
L 3525 4666 
L 3525 4397 
L 1831 0 
L 1172 0 
L 2766 4134 
L 525 4134 
L 525 4666 
z
" transform="scale(0.015625)"/>
       </defs>
       <use xlink:href="#DejaVuSans-37"/>
       <use xlink:href="#DejaVuSans-2e" transform="translate(63.623047 0)"/>
       <use xlink:href="#DejaVuSans-35" transform="translate(95.410156 0)"/>
      </g>
     </g>
    </g>
    <g id="xtick_5">
     <g id="line2d_5">
      <g>
       <use xlink:href="#mddd9ec60e9" x="219.963203" y="228.96" style="stroke: #000000; stroke-width: 0.8"/>
      </g>
     </g>
     <g id="text_5">
      <!-- 10.0 -->
      <g transform="translate(208.830391 243.558437) scale(0.1 -0.1)">
       <defs>
        <path id="DejaVuSans-31" d="M 794 531 
L 1825 531 
L 1825 4091 
L 703 3866 
L 703 4441 
L 1819 4666 
L 2450 4666 
L 2450 531 
L 3481 531 
L 3481 0 
L 794 0 
L 794 531 
z
" transform="scale(0.015625)"/>
       </defs>
       <use xlink:href="#DejaVuSans-31"/>
       <use xlink:href="#DejaVuSans-30" transform="translate(63.623047 0)"/>
       <use xlink:href="#DejaVuSans-2e" transform="translate(127.246094 0)"/>
       <use xlink:href="#DejaVuSans-30" transform="translate(159.033203 0)"/>
      </g>
     </g>
    </g>
    <g id="xtick_6">
     <g id="line2d_6">
      <g>
       <use xlink:href="#mddd9ec60e9" x="258.584113" y="228.96" style="stroke: #000000; stroke-width: 0.8"/>
      </g>
     </g>
     <g id="text_6">
      <!-- 12.5 -->
      <g transform="translate(247.451301 243.558437) scale(0.1 -0.1)">
       <use xlink:href="#DejaVuSans-31"/>
       <use xlink:href="#DejaVuSans-32" transform="translate(63.623047 0)"/>
       <use xlink:href="#DejaVuSans-2e" transform="translate(127.246094 0)"/>
       <use xlink:href="#DejaVuSans-35" transform="translate(159.033203 0)"/>
      </g>
     </g>
    </g>
    <g id="xtick_7">
     <g id="line2d_7">
      <g>
       <use xlink:href="#mddd9ec60e9" x="297.205023" y="228.96" style="stroke: #000000; stroke-width: 0.8"/>
      </g>
     </g>
     <g id="text_7">
      <!-- 15.0 -->
      <g transform="translate(286.072211 243.558437) scale(0.1 -0.1)">
       <use xlink:href="#DejaVuSans-31"/>
       <use xlink:href="#DejaVuSans-35" transform="translate(63.623047 0)"/>
       <use xlink:href="#DejaVuSans-2e" transform="translate(127.246094 0)"/>
       <use xlink:href="#DejaVuSans-30" transform="translate(159.033203 0)"/>
      </g>
     </g>
    </g>
    <g id="xtick_8">
     <g id="line2d_8">
      <g>
       <use xlink:href="#mddd9ec60e9" x="335.825933" y="228.96" style="stroke: #000000; stroke-width: 0.8"/>
      </g>
     </g>
     <g id="text_8">
      <!-- 17.5 -->
      <g transform="translate(324.693121 243.558437) scale(0.1 -0.1)">
       <use xlink:href="#DejaVuSans-31"/>
       <use xlink:href="#DejaVuSans-37" transform="translate(63.623047 0)"/>
       <use xlink:href="#DejaVuSans-2e" transform="translate(127.246094 0)"/>
       <use xlink:href="#DejaVuSans-35" transform="translate(159.033203 0)"/>
      </g>
     </g>
    </g>
    <g id="xtick_9">
     <g id="line2d_9">
      <g>
       <use xlink:href="#mddd9ec60e9" x="374.446843" y="228.96" style="stroke: #000000; stroke-width: 0.8"/>
      </g>
     </g>
     <g id="text_9">
      <!-- 20.0 -->
      <g transform="translate(363.314031 243.558437) scale(0.1 -0.1)">
       <use xlink:href="#DejaVuSans-32"/>
       <use xlink:href="#DejaVuSans-30" transform="translate(63.623047 0)"/>
       <use xlink:href="#DejaVuSans-2e" transform="translate(127.246094 0)"/>
       <use xlink:href="#DejaVuSans-30" transform="translate(159.033203 0)"/>
      </g>
     </g>
    </g>
    <g id="text_10">
     <!-- wavelength [Å] -->
     <g transform="translate(182.690625 258.920937) scale(0.1 -0.1)">
      <defs>
       <path id="DejaVuSans-77" d="M 269 3500 
L 844 3500 
L 1563 769 
L 2278 3500 
L 2956 3500 
L 3675 769 
L 4391 3500 
L 4966 3500 
L 4050 0 
L 3372 0 
L 2619 2869 
L 1863 0 
L 1184 0 
L 269 3500 
z
" transform="scale(0.015625)"/>
       <path id="DejaVuSans-61" d="M 2194 1759 
Q 1497 1759 1228 1600 
Q 959 1441 959 1056 
Q 959 750 1161 570 
Q 1363 391 1709 391 
Q 2188 391 2477 730 
Q 2766 1069 2766 1631 
L 2766 1759 
L 2194 1759 
z
M 3341 1997 
L 3341 0 
L 2766 0 
L 2766 531 
Q 2569 213 2275 61 
Q 1981 -91 1556 -91 
Q 1019 -91 701 211 
Q 384 513 384 1019 
Q 384 1609 779 1909 
Q 1175 2209 1959 2209 
L 2766 2209 
L 2766 2266 
Q 2766 2663 2505 2880 
Q 2244 3097 1772 3097 
Q 1472 3097 1187 3025 
Q 903 2953 641 2809 
L 641 3341 
Q 956 3463 1253 3523 
Q 1550 3584 1831 3584 
Q 2591 3584 2966 3190 
Q 3341 2797 3341 1997 
z
" transform="scale(0.015625)"/>
       <path id="DejaVuSans-76" d="M 191 3500 
L 800 3500 
L 1894 563 
L 2988 3500 
L 3597 3500 
L 2284 0 
L 1503 0 
L 191 3500 
z
" transform="scale(0.015625)"/>
       <path id="DejaVuSans-65" d="M 3597 1894 
L 3597 1613 
L 953 1613 
Q 991 1019 1311 708 
Q 1631 397 2203 397 
Q 2534 397 2845 478 
Q 3156 559 3463 722 
L 3463 178 
Q 3153 47 2828 -22 
Q 2503 -91 2169 -91 
Q 1331 -91 842 396 
Q 353 884 353 1716 
Q 353 2575 817 3079 
Q 1281 3584 2069 3584 
Q 2775 3584 3186 3129 
Q 3597 2675 3597 1894 
z
M 3022 2063 
Q 3016 2534 2758 2815 
Q 2500 3097 2075 3097 
Q 1594 3097 1305 2825 
Q 1016 2553 972 2059 
L 3022 2063 
z
" transform="scale(0.015625)"/>
       <path id="DejaVuSans-6c" d="M 603 4863 
L 1178 4863 
L 1178 0 
L 603 0 
L 603 4863 
z
" transform="scale(0.015625)"/>
       <path id="DejaVuSans-6e" d="M 3513 2113 
L 3513 0 
L 2938 0 
L 2938 2094 
Q 2938 2591 2744 2837 
Q 2550 3084 2163 3084 
Q 1697 3084 1428 2787 
Q 1159 2491 1159 1978 
L 1159 0 
L 581 0 
L 581 3500 
L 1159 3500 
L 1159 2956 
Q 1366 3272 1645 3428 
Q 1925 3584 2291 3584 
Q 2894 3584 3203 3211 
Q 3513 2838 3513 2113 
z
" transform="scale(0.015625)"/>
       <path id="DejaVuSans-67" d="M 2906 1791 
Q 2906 2416 2648 2759 
Q 2391 3103 1925 3103 
Q 1463 3103 1205 2759 
Q 947 2416 947 1791 
Q 947 1169 1205 825 
Q 1463 481 1925 481 
Q 2391 481 2648 825 
Q 2906 1169 2906 1791 
z
M 3481 434 
Q 3481 -459 3084 -895 
Q 2688 -1331 1869 -1331 
Q 1566 -1331 1297 -1286 
Q 1028 -1241 775 -1147 
L 775 -588 
Q 1028 -725 1275 -790 
Q 1522 -856 1778 -856 
Q 2344 -856 2625 -561 
Q 2906 -266 2906 331 
L 2906 616 
Q 2728 306 2450 153 
Q 2172 0 1784 0 
Q 1141 0 747 490 
Q 353 981 353 1791 
Q 353 2603 747 3093 
Q 1141 3584 1784 3584 
Q 2172 3584 2450 3431 
Q 2728 3278 2906 2969 
L 2906 3500 
L 3481 3500 
L 3481 434 
z
" transform="scale(0.015625)"/>
       <path id="DejaVuSans-74" d="M 1172 4494 
L 1172 3500 
L 2356 3500 
L 2356 3053 
L 1172 3053 
L 1172 1153 
Q 1172 725 1289 603 
Q 1406 481 1766 481 
L 2356 481 
L 2356 0 
L 1766 0 
Q 1100 0 847 248 
Q 594 497 594 1153 
L 594 3053 
L 172 3053 
L 172 3500 
L 594 3500 
L 594 4494 
L 1172 4494 
z
" transform="scale(0.015625)"/>
       <path id="DejaVuSans-68" d="M 3513 2113 
L 3513 0 
L 2938 0 
L 2938 2094 
Q 2938 2591 2744 2837 
Q 2550 3084 2163 3084 
Q 1697 3084 1428 2787 
Q 1159 2491 1159 1978 
L 1159 0 
L 581 0 
L 581 4863 
L 1159 4863 
L 1159 2956 
Q 1366 3272 1645 3428 
Q 1925 3584 2291 3584 
Q 2894 3584 3203 3211 
Q 3513 2838 3513 2113 
z
" transform="scale(0.015625)"/>
       <path id="DejaVuSans-20" transform="scale(0.015625)"/>
       <path id="DejaVuSans-5b" d="M 550 4863 
L 1875 4863 
L 1875 4416 
L 1125 4416 
L 1125 -397 
L 1875 -397 
L 1875 -844 
L 550 -844 
L 550 4863 
z
" transform="scale(0.015625)"/>
       <path id="DejaVuSans-c5" d="M 2663 5081 
Q 2663 5278 2523 5417 
Q 2384 5556 2188 5556 
Q 1988 5556 1852 5420 
Q 1716 5284 1716 5081 
Q 1716 4884 1853 4746 
Q 1991 4609 2188 4609 
Q 2384 4609 2523 4746 
Q 2663 4884 2663 5081 
z
M 2188 4044 
L 1338 1722 
L 3041 1722 
L 2188 4044 
z
M 1716 4366 
Q 1525 4494 1428 4673 
Q 1331 4853 1331 5081 
Q 1331 5441 1579 5691 
Q 1828 5941 2188 5941 
Q 2544 5941 2795 5689 
Q 3047 5438 3047 5081 
Q 3047 4863 2948 4678 
Q 2850 4494 2663 4366 
L 4325 0 
L 3669 0 
L 3244 1197 
L 1141 1197 
L 716 0 
L 50 0 
L 1716 4366 
z
" transform="scale(0.015625)"/>
       <path id="DejaVuSans-5d" d="M 1947 4863 
L 1947 -844 
L 622 -844 
L 622 -397 
L 1369 -397 
L 1369 4416 
L 622 4416 
L 622 4863 
L 1947 4863 
z
" transform="scale(0.015625)"/>
      </defs>
      <use xlink:href="#DejaVuSans-77"/>
      <use xlink:href="#DejaVuSans-61" transform="translate(81.787109 0)"/>
      <use xlink:href="#DejaVuSans-76" transform="translate(143.066406 0)"/>
      <use xlink:href="#DejaVuSans-65" transform="translate(202.246094 0)"/>
      <use xlink:href="#DejaVuSans-6c" transform="translate(263.769531 0)"/>
      <use xlink:href="#DejaVuSans-65" transform="translate(291.552734 0)"/>
      <use xlink:href="#DejaVuSans-6e" transform="translate(353.076172 0)"/>
      <use xlink:href="#DejaVuSans-67" transform="translate(416.455078 0)"/>
      <use xlink:href="#DejaVuSans-74" transform="translate(479.931641 0)"/>
      <use xlink:href="#DejaVuSans-68" transform="translate(519.140625 0)"/>
      <use xlink:href="#DejaVuSans-20" transform="translate(582.519531 0)"/>
      <use xlink:href="#DejaVuSans-5b" transform="translate(614.306641 0)"/>
      <use xlink:href="#DejaVuSans-c5" transform="translate(653.320312 0)"/>
      <use xlink:href="#DejaVuSans-5d" transform="translate(721.728516 0)"/>
     </g>
    </g>
   </g>
   <g id="matplotlib.axis_2">
    <g id="ytick_1">
     <g id="line2d_10">
      <defs>
       <path id="m96ce49002d" d="M 0 0 
L -3.5 0 
" style="stroke: #000000; stroke-width: 0.8"/>
      </defs>
      <g>
       <use xlink:href="#m96ce49002d" x="53.328125" y="218.88" style="stroke: #000000; stroke-width: 0.8"/>
      </g>
     </g>
     <g id="text_11">
      <!-- 0 -->
      <g transform="translate(39.965625 222.679219) scale(0.1 -0.1)">
       <use xlink:href="#DejaVuSans-30"/>
      </g>
     </g>
    </g>
    <g id="ytick_2">
     <g id="line2d_11">
      <g>
       <use xlink:href="#m96ce49002d" x="53.328125" y="179.597069" style="stroke: #000000; stroke-width: 0.8"/>
      </g>
     </g>
     <g id="text_12">
      <!-- 500 -->
      <g transform="translate(27.240625 183.396288) scale(0.1 -0.1)">
       <use xlink:href="#DejaVuSans-35"/>
       <use xlink:href="#DejaVuSans-30" transform="translate(63.623047 0)"/>
       <use xlink:href="#DejaVuSans-30" transform="translate(127.246094 0)"/>
      </g>
     </g>
    </g>
    <g id="ytick_3">
     <g id="line2d_12">
      <g>
       <use xlink:href="#m96ce49002d" x="53.328125" y="140.314139" style="stroke: #000000; stroke-width: 0.8"/>
      </g>
     </g>
     <g id="text_13">
      <!-- 1000 -->
      <g transform="translate(20.878125 144.113357) scale(0.1 -0.1)">
       <use xlink:href="#DejaVuSans-31"/>
       <use xlink:href="#DejaVuSans-30" transform="translate(63.623047 0)"/>
       <use xlink:href="#DejaVuSans-30" transform="translate(127.246094 0)"/>
       <use xlink:href="#DejaVuSans-30" transform="translate(190.869141 0)"/>
      </g>
     </g>
    </g>
    <g id="ytick_4">
     <g id="line2d_13">
      <g>
       <use xlink:href="#m96ce49002d" x="53.328125" y="101.031208" style="stroke: #000000; stroke-width: 0.8"/>
      </g>
     </g>
     <g id="text_14">
      <!-- 1500 -->
      <g transform="translate(20.878125 104.830427) scale(0.1 -0.1)">
       <use xlink:href="#DejaVuSans-31"/>
       <use xlink:href="#DejaVuSans-35" transform="translate(63.623047 0)"/>
       <use xlink:href="#DejaVuSans-30" transform="translate(127.246094 0)"/>
       <use xlink:href="#DejaVuSans-30" transform="translate(190.869141 0)"/>
      </g>
     </g>
    </g>
    <g id="ytick_5">
     <g id="line2d_14">
      <g>
       <use xlink:href="#m96ce49002d" x="53.328125" y="61.748277" style="stroke: #000000; stroke-width: 0.8"/>
      </g>
     </g>
     <g id="text_15">
      <!-- 2000 -->
      <g transform="translate(20.878125 65.547496) scale(0.1 -0.1)">
       <use xlink:href="#DejaVuSans-32"/>
       <use xlink:href="#DejaVuSans-30" transform="translate(63.623047 0)"/>
       <use xlink:href="#DejaVuSans-30" transform="translate(127.246094 0)"/>
       <use xlink:href="#DejaVuSans-30" transform="translate(190.869141 0)"/>
      </g>
     </g>
    </g>
    <g id="ytick_6">
     <g id="line2d_15">
      <g>
       <use xlink:href="#m96ce49002d" x="53.328125" y="22.465347" style="stroke: #000000; stroke-width: 0.8"/>
      </g>
     </g>
     <g id="text_16">
      <!-- 2500 -->
      <g transform="translate(20.878125 26.264566) scale(0.1 -0.1)">
       <use xlink:href="#DejaVuSans-32"/>
       <use xlink:href="#DejaVuSans-35" transform="translate(63.623047 0)"/>
       <use xlink:href="#DejaVuSans-30" transform="translate(127.246094 0)"/>
       <use xlink:href="#DejaVuSans-30" transform="translate(190.869141 0)"/>
      </g>
     </g>
    </g>
    <g id="text_17">
     <!-- [counts] -->
     <g transform="translate(14.798438 138.6925) rotate(-90) scale(0.1 -0.1)">
      <defs>
       <path id="DejaVuSans-63" d="M 3122 3366 
L 3122 2828 
Q 2878 2963 2633 3030 
Q 2388 3097 2138 3097 
Q 1578 3097 1268 2742 
Q 959 2388 959 1747 
Q 959 1106 1268 751 
Q 1578 397 2138 397 
Q 2388 397 2633 464 
Q 2878 531 3122 666 
L 3122 134 
Q 2881 22 2623 -34 
Q 2366 -91 2075 -91 
Q 1284 -91 818 406 
Q 353 903 353 1747 
Q 353 2603 823 3093 
Q 1294 3584 2113 3584 
Q 2378 3584 2631 3529 
Q 2884 3475 3122 3366 
z
" transform="scale(0.015625)"/>
       <path id="DejaVuSans-6f" d="M 1959 3097 
Q 1497 3097 1228 2736 
Q 959 2375 959 1747 
Q 959 1119 1226 758 
Q 1494 397 1959 397 
Q 2419 397 2687 759 
Q 2956 1122 2956 1747 
Q 2956 2369 2687 2733 
Q 2419 3097 1959 3097 
z
M 1959 3584 
Q 2709 3584 3137 3096 
Q 3566 2609 3566 1747 
Q 3566 888 3137 398 
Q 2709 -91 1959 -91 
Q 1206 -91 779 398 
Q 353 888 353 1747 
Q 353 2609 779 3096 
Q 1206 3584 1959 3584 
z
" transform="scale(0.015625)"/>
       <path id="DejaVuSans-75" d="M 544 1381 
L 544 3500 
L 1119 3500 
L 1119 1403 
Q 1119 906 1312 657 
Q 1506 409 1894 409 
Q 2359 409 2629 706 
Q 2900 1003 2900 1516 
L 2900 3500 
L 3475 3500 
L 3475 0 
L 2900 0 
L 2900 538 
Q 2691 219 2414 64 
Q 2138 -91 1772 -91 
Q 1169 -91 856 284 
Q 544 659 544 1381 
z
M 1991 3584 
L 1991 3584 
z
" transform="scale(0.015625)"/>
       <path id="DejaVuSans-73" d="M 2834 3397 
L 2834 2853 
Q 2591 2978 2328 3040 
Q 2066 3103 1784 3103 
Q 1356 3103 1142 2972 
Q 928 2841 928 2578 
Q 928 2378 1081 2264 
Q 1234 2150 1697 2047 
L 1894 2003 
Q 2506 1872 2764 1633 
Q 3022 1394 3022 966 
Q 3022 478 2636 193 
Q 2250 -91 1575 -91 
Q 1294 -91 989 -36 
Q 684 19 347 128 
L 347 722 
Q 666 556 975 473 
Q 1284 391 1588 391 
Q 1994 391 2212 530 
Q 2431 669 2431 922 
Q 2431 1156 2273 1281 
Q 2116 1406 1581 1522 
L 1381 1569 
Q 847 1681 609 1914 
Q 372 2147 372 2553 
Q 372 3047 722 3315 
Q 1072 3584 1716 3584 
Q 2034 3584 2315 3537 
Q 2597 3491 2834 3397 
z
" transform="scale(0.015625)"/>
      </defs>
      <use xlink:href="#DejaVuSans-5b"/>
      <use xlink:href="#DejaVuSans-63" transform="translate(39.013672 0)"/>
      <use xlink:href="#DejaVuSans-6f" transform="translate(93.994141 0)"/>
      <use xlink:href="#DejaVuSans-75" transform="translate(155.175781 0)"/>
      <use xlink:href="#DejaVuSans-6e" transform="translate(218.554688 0)"/>
      <use xlink:href="#DejaVuSans-74" transform="translate(281.933594 0)"/>
      <use xlink:href="#DejaVuSans-73" transform="translate(321.142578 0)"/>
      <use xlink:href="#DejaVuSans-5d" transform="translate(373.242188 0)"/>
     </g>
    </g>
   </g>
   <g id="line2d_16">
    <path d="M 68.546307 44.22809 
L 69.155034 44.22809 
L 69.155034 34.093094 
L 69.763761 34.093094 
L 69.763761 32.678909 
L 70.372489 32.678909 
L 70.372489 22.465347 
L 70.981216 22.465347 
L 70.981216 23.800966 
L 71.589943 23.800966 
L 71.589943 26.079376 
L 72.19867 26.079376 
L 72.19867 30.557631 
L 72.807398 30.557631 
L 72.807398 47.606422 
L 73.416125 47.606422 
L 73.416125 53.106033 
L 74.024852 53.106033 
L 74.024852 66.383663 
L 74.63358 66.383663 
L 74.63358 69.447732 
L 75.242307 69.447732 
L 75.242307 41.00689 
L 75.851034 41.00689 
L 75.851034 38.885612 
L 76.459761 38.885612 
L 76.459761 27.807825 
L 77.068489 27.807825 
L 77.068489 19.636976 
L 77.677216 19.636976 
L 77.677216 17.28 
L 78.285943 17.28 
L 78.285943 19.244147 
L 78.89467 19.244147 
L 78.89467 26.550772 
L 79.503398 26.550772 
L 79.503398 21.208293 
L 80.112125 21.208293 
L 80.112125 31.343289 
L 80.720852 31.343289 
L 80.720852 45.328012 
L 81.32958 45.328012 
L 81.32958 67.640717 
L 81.938307 67.640717 
L 81.938307 84.532377 
L 82.547034 84.532377 
L 82.547034 106.059423 
L 83.155761 106.059423 
L 83.155761 121.379766 
L 83.764489 121.379766 
L 83.764489 145.342354 
L 84.373216 145.342354 
L 84.373216 158.384287 
L 84.981943 158.384287 
L 84.981943 171.583352 
L 85.59067 171.583352 
L 85.59067 186.510865 
L 86.199398 186.510865 
L 86.199398 194.603149 
L 86.808125 194.603149 
L 86.808125 202.459735 
L 87.416852 202.459735 
L 87.416852 204.738145 
L 88.02558 204.738145 
L 88.02558 202.695433 
L 88.634307 202.695433 
L 88.634307 200.024193 
L 89.243034 200.024193 
L 89.243034 197.667217 
L 89.851761 197.667217 
L 89.851761 193.581793 
L 90.460489 193.581793 
L 90.460489 187.767919 
L 91.069216 187.767919 
L 91.069216 176.611567 
L 91.677943 176.611567 
L 91.677943 172.840405 
L 92.28667 172.840405 
L 92.28667 160.426999 
L 92.895398 160.426999 
L 92.895398 149.506345 
L 93.504125 149.506345 
L 93.504125 142.74968 
L 94.112852 142.74968 
L 94.112852 136.464412 
L 94.72158 136.464412 
L 94.72158 128.764957 
L 95.330307 128.764957 
L 95.330307 118.158566 
L 95.939034 118.158566 
L 95.939034 117.765737 
L 96.547761 117.765737 
L 96.547761 115.251629 
L 97.156489 115.251629 
L 97.156489 114.701668 
L 97.765216 114.701668 
L 97.765216 114.8588 
L 98.373943 114.8588 
L 98.373943 112.894653 
L 98.98267 112.894653 
L 98.98267 109.123492 
L 99.591398 109.123492 
L 99.591398 98.045705 
L 100.200125 98.045705 
L 100.200125 97.338613 
L 100.808852 97.338613 
L 100.808852 95.138769 
L 101.41758 95.138769 
L 101.41758 86.103694 
L 102.026307 86.103694 
L 102.026307 88.067841 
L 102.635034 88.067841 
L 102.635034 84.689509 
L 103.243761 84.689509 
L 103.243761 79.661294 
L 103.852489 79.661294 
L 103.852489 72.668932 
L 104.461216 72.668932 
L 104.461216 67.719283 
L 105.069943 67.719283 
L 105.069943 70.783352 
L 105.67867 70.783352 
L 105.67867 62.8482 
L 106.287398 62.8482 
L 106.287398 71.490444 
L 106.896125 71.490444 
L 106.896125 75.104474 
L 107.504852 75.104474 
L 107.504852 78.325674 
L 108.11358 78.325674 
L 108.11358 75.811567 
L 108.722307 75.811567 
L 108.722307 79.111333 
L 109.331034 79.111333 
L 109.331034 82.01827 
L 109.939761 82.01827 
L 109.939761 81.704006 
L 110.548489 81.704006 
L 110.548489 82.803928 
L 111.157216 82.803928 
L 111.157216 79.268465 
L 111.765943 79.268465 
L 111.765943 82.253967 
L 112.37467 82.253967 
L 112.37467 72.433235 
L 112.983398 72.433235 
L 112.983398 68.34781 
L 113.592125 68.34781 
L 113.592125 66.226532 
L 114.200852 66.226532 
L 114.200852 54.363087 
L 114.80958 54.363087 
L 114.80958 60.17696 
L 115.418307 60.17696 
L 115.418307 52.634638 
L 116.027034 52.634638 
L 116.027034 56.484365 
L 116.635761 56.484365 
L 116.635761 62.45537 
L 117.244489 62.45537 
L 117.244489 63.633858 
L 117.853216 63.633858 
L 117.853216 70.076259 
L 118.461943 70.076259 
L 118.461943 78.011411 
L 119.07067 78.011411 
L 119.07067 93.331754 
L 119.679398 93.331754 
L 119.679398 98.90993 
L 120.288125 98.90993 
L 120.288125 108.652097 
L 120.896852 108.652097 
L 120.896852 117.294341 
L 121.50558 117.294341 
L 121.50558 128.372128 
L 122.114307 128.372128 
L 122.114307 129.157786 
L 122.723034 129.157786 
L 122.723034 135.285924 
L 123.331761 135.285924 
L 123.331761 136.150148 
L 123.940489 136.150148 
L 123.940489 137.642899 
L 124.549216 137.642899 
L 124.549216 139.292783 
L 125.157943 139.292783 
L 125.157943 142.828246 
L 125.76667 142.828246 
L 125.76667 145.970881 
L 126.375398 145.970881 
L 126.375398 146.206578 
L 126.984125 146.206578 
L 126.984125 146.835105 
L 127.592852 146.835105 
L 127.592852 144.635261 
L 128.20158 144.635261 
L 128.20158 149.742042 
L 128.810307 149.742042 
L 128.810307 148.563554 
L 129.419034 148.563554 
L 129.419034 149.034949 
L 130.027761 149.034949 
L 130.027761 146.913671 
L 130.636489 146.913671 
L 130.636489 147.070803 
L 131.245216 147.070803 
L 131.245216 146.285144 
L 131.853943 146.285144 
L 131.853943 144.006734 
L 132.46267 144.006734 
L 132.46267 144.478129 
L 133.071398 144.478129 
L 133.071398 140.314139 
L 133.680125 140.314139 
L 133.680125 135.207358 
L 134.288852 135.207358 
L 134.288852 136.30728 
L 134.89758 136.30728 
L 134.89758 134.814528 
L 135.506307 134.814528 
L 135.506307 139.057085 
L 136.115034 139.057085 
L 136.115034 134.264567 
L 136.723761 134.264567 
L 136.723761 135.443055 
L 137.332489 135.443055 
L 137.332489 139.135651 
L 138.549943 139.135651 
L 138.549943 141.021231 
L 139.15867 141.021231 
L 139.15867 143.613905 
L 139.767398 143.613905 
L 139.767398 149.742042 
L 140.376125 149.742042 
L 140.376125 159.248511 
L 140.984852 159.248511 
L 140.984852 156.81297 
L 141.59358 156.81297 
L 141.59358 162.155448 
L 142.202307 162.155448 
L 142.202307 166.162307 
L 142.811034 166.162307 
L 142.811034 174.176025 
L 143.419761 174.176025 
L 143.419761 173.547498 
L 144.028489 173.547498 
L 144.028489 179.439938 
L 144.637216 179.439938 
L 144.637216 179.20424 
L 145.245943 179.20424 
L 145.245943 178.575713 
L 145.85467 178.575713 
L 145.85467 172.604708 
L 146.463398 172.604708 
L 146.463398 182.739704 
L 147.072125 182.739704 
L 147.072125 178.968542 
L 147.680852 178.968542 
L 147.680852 180.14703 
L 148.28958 180.14703 
L 148.28958 178.497147 
L 148.898307 178.497147 
L 148.898307 180.53986 
L 149.507034 180.53986 
L 149.507034 175.904474 
L 150.115761 175.904474 
L 150.115761 178.025752 
L 150.724489 178.025752 
L 150.724489 176.140171 
L 151.333216 176.140171 
L 151.333216 173.70463 
L 151.941943 173.70463 
L 151.941943 174.883118 
L 152.55067 174.883118 
L 152.55067 176.375869 
L 153.159398 176.375869 
L 153.159398 172.054747 
L 153.768125 172.054747 
L 153.768125 173.076103 
L 154.376852 173.076103 
L 154.376852 172.761839 
L 154.98558 172.761839 
L 154.98558 174.883118 
L 155.594307 174.883118 
L 155.594307 172.211878 
L 156.203034 172.211878 
L 156.203034 175.59021 
L 156.811761 175.59021 
L 156.811761 174.725986 
L 157.420489 174.725986 
L 157.420489 175.668776 
L 158.029216 175.668776 
L 158.029216 176.061606 
L 159.24667 176.061606 
L 159.24667 177.554357 
L 159.855398 177.554357 
L 159.855398 183.996758 
L 160.464125 183.996758 
L 160.464125 185.175246 
L 161.072852 185.175246 
L 161.072852 188.160748 
L 161.68158 188.160748 
L 161.68158 188.553578 
L 162.290307 188.553578 
L 162.290307 191.224817 
L 162.899034 191.224817 
L 162.899034 192.481871 
L 163.507761 192.481871 
L 163.507761 194.131754 
L 164.116489 194.131754 
L 164.116489 195.938769 
L 165.333943 196.017334 
L 165.333943 194.524583 
L 165.94267 194.524583 
L 165.94267 196.410164 
L 166.551398 196.410164 
L 166.551398 195.15311 
L 167.160125 195.15311 
L 167.160125 193.896056 
L 167.768852 193.896056 
L 167.768852 193.110398 
L 168.37758 193.110398 
L 168.37758 190.753422 
L 168.986307 190.753422 
L 168.986307 192.8747 
L 169.595034 192.8747 
L 169.595034 193.267529 
L 170.203761 193.267529 
L 170.203761 191.303383 
L 170.812489 191.303383 
L 170.812489 190.124895 
L 172.029943 190.124895 
L 172.029943 191.303383 
L 172.63867 191.303383 
L 172.63867 190.910553 
L 173.247398 190.910553 
L 173.247398 191.460514 
L 173.856125 191.460514 
L 173.856125 190.282027 
L 174.464852 190.282027 
L 174.464852 189.417802 
L 175.07358 189.417802 
L 175.07358 194.131754 
L 175.682307 194.131754 
L 175.682307 193.110398 
L 176.291034 193.110398 
L 176.291034 195.15311 
L 176.899761 195.15311 
L 176.899761 194.367451 
L 177.508489 194.367451 
L 177.508489 196.724427 
L 178.117216 196.724427 
L 178.117216 197.510086 
L 178.725943 197.510086 
L 178.725943 195.467373 
L 179.33467 195.467373 
L 179.33467 200.888418 
L 179.943398 200.888418 
L 179.943398 197.510086 
L 180.552125 197.510086 
L 180.552125 201.516945 
L 181.160852 201.516945 
L 181.160852 200.65272 
L 182.378307 200.65272 
L 182.378307 202.381169 
L 182.987034 202.381169 
L 182.987034 204.031052 
L 183.595761 204.031052 
L 183.595761 202.93113 
L 184.204489 202.93113 
L 184.204489 202.302603 
L 184.813216 202.302603 
L 184.813216 203.323959 
L 185.421943 203.323959 
L 185.421943 202.852564 
L 186.03067 202.852564 
L 186.03067 203.559657 
L 186.639398 203.559657 
L 186.639398 201.674076 
L 187.248125 201.674076 
L 187.248125 198.688574 
L 187.856852 198.688574 
L 187.856852 201.045549 
L 188.46558 201.045549 
L 188.46558 200.495588 
L 189.074307 200.495588 
L 189.074307 201.516945 
L 189.683034 201.516945 
L 189.683034 199.788496 
L 190.291761 199.788496 
L 190.291761 202.145472 
L 190.900489 202.145472 
L 190.900489 201.045549 
L 191.509216 201.045549 
L 191.509216 199.474232 
L 192.117943 199.474232 
L 192.117943 201.438379 
L 192.72667 201.438379 
L 192.72667 200.809852 
L 193.335398 200.809852 
L 193.335398 202.538301 
L 193.944125 202.538301 
L 193.944125 203.166828 
L 194.552852 203.166828 
L 194.552852 204.738145 
L 195.16158 204.738145 
L 195.16158 205.288106 
L 195.770307 205.288106 
L 195.770307 205.130974 
L 196.379034 205.130974 
L 196.379034 206.859423 
L 196.987761 206.859423 
L 196.987761 205.995199 
L 197.596489 205.995199 
L 197.596489 206.388028 
L 198.205216 206.388028 
L 198.205216 208.745004 
L 198.813943 208.745004 
L 198.813943 207.566516 
L 199.42267 207.566516 
L 199.42267 211.180546 
L 200.031398 211.180546 
L 200.031398 211.337677 
L 200.640125 211.337677 
L 200.640125 210.080624 
L 201.248852 210.080624 
L 201.248852 210.630585 
L 202.466307 210.630585 
L 202.466307 210.002058 
L 203.075034 210.002058 
L 203.075034 211.023414 
L 203.683761 211.023414 
L 203.683761 211.966204 
L 204.292489 211.966204 
L 204.292489 212.437599 
L 204.901216 212.437599 
L 204.901216 211.730507 
L 205.509943 211.730507 
L 205.509943 212.751863 
L 206.11867 212.751863 
L 206.11867 212.98756 
L 206.727398 212.98756 
L 206.727398 213.144692 
L 207.336125 213.144692 
L 207.336125 212.98756 
L 207.944852 212.98756 
L 207.944852 212.516165 
L 208.55358 212.516165 
L 208.55358 214.480312 
L 209.162307 214.480312 
L 209.162307 213.851785 
L 209.771034 213.851785 
L 209.771034 214.32318 
L 210.379761 214.32318 
L 210.379761 214.008917 
L 210.988489 214.008917 
L 210.988489 215.6588 
L 211.597216 215.6588 
L 211.597216 216.758722 
L 212.205943 216.758722 
L 212.205943 216.051629 
L 213.423398 216.051629 
L 213.423398 216.915853 
L 214.032125 216.915853 
L 214.032125 217.230117 
L 214.640852 217.230117 
L 214.640852 217.072985 
L 215.24958 217.072985 
L 215.24958 217.308683 
L 215.858307 217.308683 
L 215.858307 217.93721 
L 216.467034 217.93721 
L 216.467034 217.622946 
L 217.075761 217.622946 
L 217.075761 218.094341 
L 217.684489 218.094341 
L 217.684489 218.408605 
L 218.901943 218.487171 
L 218.901943 218.722868 
L 220.728125 218.644302 
L 220.728125 218.88 
L 221.336852 218.88 
L 221.336852 218.644302 
L 223.771761 218.644302 
L 223.771761 218.015776 
L 224.380489 218.015776 
L 224.380489 217.858644 
L 224.989216 217.858644 
L 224.989216 217.622946 
L 225.597943 217.622946 
L 225.597943 217.780078 
L 226.20667 217.780078 
L 226.20667 217.465814 
L 226.815398 217.465814 
L 226.815398 217.230117 
L 228.032852 217.308683 
L 228.032852 217.54438 
L 228.64158 217.54438 
L 228.64158 217.387249 
L 229.250307 217.387249 
L 229.250307 217.072985 
L 229.859034 217.072985 
L 229.859034 216.837288 
L 230.467761 216.837288 
L 230.467761 217.780078 
L 231.076489 217.780078 
L 231.076489 217.622946 
L 231.685216 217.622946 
L 231.685216 218.094341 
L 232.293943 218.094341 
L 232.293943 217.858644 
L 232.90267 217.858644 
L 232.90267 217.54438 
L 234.120125 217.54438 
L 234.120125 218.251473 
L 234.728852 218.251473 
L 234.728852 218.015776 
L 235.33758 218.015776 
L 235.33758 217.858644 
L 235.946307 217.858644 
L 235.946307 217.701512 
L 237.163761 217.701512 
L 237.163761 218.015776 
L 237.772489 218.015776 
L 237.772489 217.54438 
L 238.989943 217.465814 
L 238.989943 217.151551 
L 240.207398 217.230117 
L 240.207398 217.93721 
L 242.03358 217.93721 
L 242.03358 218.094341 
L 242.642307 218.094341 
L 242.642307 217.308683 
L 243.859761 217.308683 
L 243.859761 217.701512 
L 244.468489 217.701512 
L 244.468489 216.994419 
L 245.077216 216.994419 
L 245.077216 217.54438 
L 246.29467 217.465814 
L 246.29467 217.308683 
L 247.512125 217.387249 
L 247.512125 217.072985 
L 248.120852 217.072985 
L 248.120852 217.780078 
L 248.72958 217.780078 
L 248.72958 216.915853 
L 249.338307 216.915853 
L 249.338307 217.387249 
L 250.555761 217.465814 
L 250.555761 216.994419 
L 251.773216 216.994419 
L 251.773216 217.622946 
L 252.381943 217.622946 
L 252.381943 217.465814 
L 253.599398 217.465814 
L 253.599398 217.151551 
L 254.208125 217.151551 
L 254.208125 218.172907 
L 254.816852 218.172907 
L 254.816852 217.622946 
L 255.42558 217.622946 
L 255.42558 217.387249 
L 256.034307 217.387249 
L 256.034307 217.780078 
L 256.643034 217.780078 
L 256.643034 218.172907 
L 257.251761 218.172907 
L 257.251761 217.93721 
L 258.469216 218.015776 
L 258.469216 217.387249 
L 259.077943 217.387249 
L 259.077943 217.93721 
L 259.68667 217.93721 
L 259.68667 217.54438 
L 260.295398 217.54438 
L 260.295398 217.308683 
L 260.904125 217.308683 
L 260.904125 218.408605 
L 261.512852 218.408605 
L 261.512852 218.251473 
L 262.12158 218.251473 
L 262.12158 217.072985 
L 262.730307 217.072985 
L 262.730307 217.93721 
L 263.339034 217.93721 
L 263.339034 217.622946 
L 263.947761 217.622946 
L 263.947761 217.151551 
L 264.556489 217.151551 
L 264.556489 217.622946 
L 265.165216 217.622946 
L 265.165216 217.93721 
L 265.773943 217.93721 
L 265.773943 217.072985 
L 266.38267 217.072985 
L 266.38267 217.622946 
L 266.991398 217.622946 
L 266.991398 217.072985 
L 267.600125 217.072985 
L 267.600125 217.701512 
L 268.208852 217.701512 
L 268.208852 217.387249 
L 269.426307 217.465814 
L 269.426307 217.858644 
L 270.035034 217.858644 
L 270.035034 217.54438 
L 270.643761 217.54438 
L 270.643761 217.387249 
L 271.252489 217.387249 
L 271.252489 217.54438 
L 272.469943 217.54438 
L 272.469943 217.93721 
L 273.07867 217.93721 
L 273.07867 217.387249 
L 273.687398 217.387249 
L 273.687398 217.622946 
L 274.904852 217.54438 
L 274.904852 217.780078 
L 276.122307 217.780078 
L 276.122307 217.622946 
L 276.731034 217.622946 
L 276.731034 218.015776 
L 277.948489 217.93721 
L 277.948489 218.330039 
L 278.557216 218.330039 
L 278.557216 217.780078 
L 279.165943 217.780078 
L 279.165943 218.015776 
L 279.77467 218.015776 
L 279.77467 218.330039 
L 280.383398 218.330039 
L 280.383398 218.172907 
L 280.992125 218.172907 
L 280.992125 217.622946 
L 281.600852 217.622946 
L 281.600852 217.93721 
L 282.20958 217.93721 
L 282.20958 218.094341 
L 282.818307 218.094341 
L 282.818307 217.93721 
L 283.427034 217.93721 
L 283.427034 217.701512 
L 285.861943 217.622946 
L 285.861943 217.54438 
L 286.47067 217.54438 
L 286.47067 217.858644 
L 287.079398 217.858644 
L 287.079398 217.387249 
L 287.688125 217.387249 
L 287.688125 217.93721 
L 288.296852 217.93721 
L 288.296852 217.465814 
L 290.731761 217.54438 
L 290.731761 218.251473 
L 291.340489 218.251473 
L 291.340489 217.858644 
L 291.949216 217.858644 
L 291.949216 218.015776 
L 292.557943 218.015776 
L 292.557943 217.465814 
L 293.16667 217.465814 
L 293.16667 218.172907 
L 294.384125 218.172907 
L 294.384125 217.622946 
L 294.992852 217.622946 
L 294.992852 218.094341 
L 295.60158 218.094341 
L 295.60158 217.622946 
L 296.210307 217.622946 
L 296.210307 218.094341 
L 296.819034 218.094341 
L 296.819034 217.93721 
L 297.427761 217.93721 
L 297.427761 218.330039 
L 299.86267 218.330039 
L 299.86267 218.015776 
L 301.688852 218.094341 
L 301.688852 217.780078 
L 302.29758 217.780078 
L 302.29758 218.015776 
L 302.906307 218.015776 
L 302.906307 218.172907 
L 303.515034 218.172907 
L 303.515034 217.780078 
L 304.123761 217.780078 
L 304.123761 218.408605 
L 304.732489 218.408605 
L 304.732489 217.701512 
L 305.341216 217.701512 
L 305.341216 218.015776 
L 305.949943 218.015776 
L 305.949943 217.465814 
L 306.55867 217.465814 
L 306.55867 218.094341 
L 307.167398 218.094341 
L 307.167398 217.780078 
L 307.776125 217.780078 
L 307.776125 218.015776 
L 308.384852 218.015776 
L 308.384852 217.858644 
L 309.602307 217.93721 
L 309.602307 218.251473 
L 310.211034 218.251473 
L 310.211034 217.93721 
L 310.819761 217.93721 
L 310.819761 218.330039 
L 311.428489 218.330039 
L 311.428489 217.780078 
L 312.037216 217.780078 
L 312.037216 218.251473 
L 312.645943 218.251473 
L 312.645943 218.408605 
L 313.25467 218.408605 
L 313.25467 218.172907 
L 313.863398 218.172907 
L 313.863398 218.330039 
L 315.080852 218.251473 
L 315.080852 217.858644 
L 315.68958 217.858644 
L 315.68958 218.251473 
L 316.298307 218.251473 
L 316.298307 218.408605 
L 316.907034 218.408605 
L 316.907034 217.858644 
L 317.515761 217.858644 
L 317.515761 218.408605 
L 318.733216 218.408605 
L 318.733216 218.015776 
L 319.341943 218.015776 
L 319.341943 218.565737 
L 319.95067 218.565737 
L 319.95067 217.858644 
L 320.559398 217.858644 
L 320.559398 218.330039 
L 321.776852 218.251473 
L 321.776852 218.172907 
L 323.603034 218.094341 
L 323.603034 218.330039 
L 324.820489 218.330039 
L 324.820489 217.780078 
L 325.429216 217.780078 
L 325.429216 218.172907 
L 326.037943 218.172907 
L 326.037943 218.330039 
L 326.64667 218.330039 
L 326.64667 218.172907 
L 329.08158 218.094341 
L 329.08158 218.487171 
L 329.690307 218.487171 
L 329.690307 218.330039 
L 331.516489 218.330039 
L 331.516489 218.565737 
L 332.733943 218.565737 
L 332.733943 218.408605 
L 334.560125 218.487171 
L 334.560125 218.251473 
L 335.168852 218.251473 
L 335.168852 218.408605 
L 335.77758 218.408605 
L 335.77758 218.565737 
L 336.386307 218.565737 
L 336.386307 218.408605 
L 336.995034 218.408605 
L 336.995034 218.644302 
L 337.603761 218.644302 
L 337.603761 218.330039 
L 338.212489 218.330039 
L 338.212489 218.565737 
L 339.429943 218.565737 
L 339.429943 218.801434 
L 340.647398 218.722868 
L 340.647398 218.565737 
L 341.864852 218.644302 
L 341.864852 218.251473 
L 342.47358 218.251473 
L 342.47358 218.644302 
L 343.691034 218.722868 
L 343.691034 218.801434 
L 349.778307 218.801434 
L 349.778307 218.644302 
L 350.387034 218.644302 
L 350.387034 218.88 
L 359.517943 218.88 
L 359.517943 218.722868 
L 361.952852 218.722868 
L 361.952852 218.88 
L 363.170307 218.801434 
L 363.170307 218.722868 
L 363.779034 218.722868 
L 363.779034 218.88 
L 366.82267 218.88 
L 366.82267 218.722868 
L 367.431398 218.722868 
L 367.431398 218.88 
L 371.692489 218.88 
L 371.692489 218.722868 
L 372.909943 218.722868 
L 372.909943 218.722868 
" clip-path="url(#pbb7803250e)" style="fill: none; stroke: #1f77b4; stroke-width: 1.5; stroke-linecap: square"/>
   </g>
   <g id="patch_3">
    <path d="M 53.328125 228.96 
L 53.328125 7.2 
" style="fill: none; stroke: #000000; stroke-width: 0.8; stroke-linejoin: miter; stroke-linecap: square"/>
   </g>
   <g id="patch_4">
    <path d="M 388.128125 228.96 
L 388.128125 7.2 
" style="fill: none; stroke: #000000; stroke-width: 0.8; stroke-linejoin: miter; stroke-linecap: square"/>
   </g>
   <g id="patch_5">
    <path d="M 53.328125 228.96 
L 388.128125 228.96 
" style="fill: none; stroke: #000000; stroke-width: 0.8; stroke-linejoin: miter; stroke-linecap: square"/>
   </g>
   <g id="patch_6">
    <path d="M 53.328125 7.2 
L 388.128125 7.2 
" style="fill: none; stroke: #000000; stroke-width: 0.8; stroke-linejoin: miter; stroke-linecap: square"/>
   </g>
  </g>
 </g>
 <defs>
  <clipPath id="pbb7803250e">
   <rect x="53.328125" y="7.2" width="334.8" height="221.76"/>
  </clipPath>
 </defs>
</svg>
