<?xml version="1.0" encoding="utf-8" standalone="no"?>
<!DOCTYPE svg PUBLIC "-//W3C//DTD SVG 1.1//EN"
  "http://www.w3.org/Graphics/SVG/1.1/DTD/svg11.dtd">
<svg xmlns:xlink="http://www.w3.org/1999/xlink" width="395.328125pt" height="268.200625pt" viewBox="0 0 395.328125 268.200625" xmlns="http://www.w3.org/2000/svg" version="1.1">
 <metadata>
  <rdf:RDF xmlns:dc="http://purl.org/dc/elements/1.1/" xmlns:cc="http://creativecommons.org/ns#" xmlns:rdf="http://www.w3.org/1999/02/22-rdf-syntax-ns#">
   <cc:Work>
    <dc:type rdf:resource="http://purl.org/dc/dcmitype/StillImage"/>
    <dc:date>2025-12-09T08:59:29.484075</dc:date>
    <dc:format>image/svg+xml</dc:format>
    <dc:creator>
     <cc:Agent>
      <dc:title>Matplotlib v3.10.7, https://matplotlib.org/</dc:title>
     </cc:Agent>
    </dc:creator>
   </cc:Work>
  </rdf:RDF>
 </metadata>
 <defs>
  <style type="text/css">*{stroke-linejoin: round; stroke-linecap: butt}</style>
 </defs>
 <g id="figure_1">
  <g id="patch_1">
   <path d="M 0 268.200625 
L 395.328125 268.200625 
L 395.328125 0 
L 0 0 
z
" style="fill: #ffffff"/>
  </g>
  <g id="axes_1">
   <g id="patch_2">
    <path d="M 53.328125 228.96 
L 388.128125 228.96 
L 388.128125 7.2 
L 53.328125 7.2 
z
" style="fill: #ffffff"/>
   </g>
   <g id="matplotlib.axis_1">
    <g id="xtick_1">
     <g id="line2d_1">
      <defs>
       <path id="m842a56f3b2" d="M 0 0 
L 0 3.5 
" style="stroke: #000000; stroke-width: 0.8"/>
      </defs>
      <g>
       <use xlink:href="#m842a56f3b2" x="65.47449" y="228.96" style="stroke: #000000; stroke-width: 0.8"/>
      </g>
     </g>
     <g id="text_1">
      <!-- 0.0 -->
      <g transform="translate(57.522928 243.558437) scale(0.1 -0.1)">
       <defs>
        <path id="DejaVuSans-30" d="M 2034 4250 
Q 1547 4250 1301 3770 
Q 1056 3291 1056 2328 
Q 1056 1369 1301 889 
Q 1547 409 2034 409 
Q 2525 409 2770 889 
Q 3016 1369 3016 2328 
Q 3016 3291 2770 3770 
Q 2525 4250 2034 4250 
z
M 2034 4750 
Q 2819 4750 3233 4129 
Q 3647 3509 3647 2328 
Q 3647 1150 3233 529 
Q 2819 -91 2034 -91 
Q 1250 -91 836 529 
Q 422 1150 422 2328 
Q 422 3509 836 4129 
Q 1250 4750 2034 4750 
z
" transform="scale(0.015625)"/>
        <path id="DejaVuSans-2e" d="M 684 794 
L 1344 794 
L 1344 0 
L 684 0 
L 684 794 
z
" transform="scale(0.015625)"/>
       </defs>
       <use xlink:href="#DejaVuSans-30"/>
       <use xlink:href="#DejaVuSans-2e" transform="translate(63.623047 0)"/>
       <use xlink:href="#DejaVuSans-30" transform="translate(95.410156 0)"/>
      </g>
     </g>
    </g>
    <g id="xtick_2">
     <g id="line2d_2">
      <g>
       <use xlink:href="#m842a56f3b2" x="104.157727" y="228.96" style="stroke: #000000; stroke-width: 0.8"/>
      </g>
     </g>
     <g id="text_2">
      <!-- 2.5 -->
      <g transform="translate(96.206165 243.558437) scale(0.1 -0.1)">
       <defs>
        <path id="DejaVuSans-32" d="M 1228 531 
L 3431 531 
L 3431 0 
L 469 0 
L 469 531 
Q 828 903 1448 1529 
Q 2069 2156 2228 2338 
Q 2531 2678 2651 2914 
Q 2772 3150 2772 3378 
Q 2772 3750 2511 3984 
Q 2250 4219 1831 4219 
Q 1534 4219 1204 4116 
Q 875 4013 500 3803 
L 500 4441 
Q 881 4594 1212 4672 
Q 1544 4750 1819 4750 
Q 2544 4750 2975 4387 
Q 3406 4025 3406 3419 
Q 3406 3131 3298 2873 
Q 3191 2616 2906 2266 
Q 2828 2175 2409 1742 
Q 1991 1309 1228 531 
z
" transform="scale(0.015625)"/>
        <path id="DejaVuSans-35" d="M 691 4666 
L 3169 4666 
L 3169 4134 
L 1269 4134 
L 1269 2991 
Q 1406 3038 1543 3061 
Q 1681 3084 1819 3084 
Q 2600 3084 3056 2656 
Q 3513 2228 3513 1497 
Q 3513 744 3044 326 
Q 2575 -91 1722 -91 
Q 1428 -91 1123 -41 
Q 819 9 494 109 
L 494 744 
Q 775 591 1075 516 
Q 1375 441 1709 441 
Q 2250 441 2565 725 
Q 2881 1009 2881 1497 
Q 2881 1984 2565 2268 
Q 2250 2553 1709 2553 
Q 1456 2553 1204 2497 
Q 953 2441 691 2322 
L 691 4666 
z
" transform="scale(0.015625)"/>
       </defs>
       <use xlink:href="#DejaVuSans-32"/>
       <use xlink:href="#DejaVuSans-2e" transform="translate(63.623047 0)"/>
       <use xlink:href="#DejaVuSans-35" transform="translate(95.410156 0)"/>
      </g>
     </g>
    </g>
    <g id="xtick_3">
     <g id="line2d_3">
      <g>
       <use xlink:href="#m842a56f3b2" x="142.840964" y="228.96" style="stroke: #000000; stroke-width: 0.8"/>
      </g>
     </g>
     <g id="text_3">
      <!-- 5.0 -->
      <g transform="translate(134.889402 243.558437) scale(0.1 -0.1)">
       <use xlink:href="#DejaVuSans-35"/>
       <use xlink:href="#DejaVuSans-2e" transform="translate(63.623047 0)"/>
       <use xlink:href="#DejaVuSans-30" transform="translate(95.410156 0)"/>
      </g>
     </g>
    </g>
    <g id="xtick_4">
     <g id="line2d_4">
      <g>
       <use xlink:href="#m842a56f3b2" x="181.524201" y="228.96" style="stroke: #000000; stroke-width: 0.8"/>
      </g>
     </g>
     <g id="text_4">
      <!-- 7.5 -->
      <g transform="translate(173.572639 243.558437) scale(0.1 -0.1)">
       <defs>
        <path id="DejaVuSans-37" d="M 525 4666 
L 3525 4666 
L 3525 4397 
L 1831 0 
L 1172 0 
L 2766 4134 
L 525 4134 
L 525 4666 
z
" transform="scale(0.015625)"/>
       </defs>
       <use xlink:href="#DejaVuSans-37"/>
       <use xlink:href="#DejaVuSans-2e" transform="translate(63.623047 0)"/>
       <use xlink:href="#DejaVuSans-35" transform="translate(95.410156 0)"/>
      </g>
     </g>
    </g>
    <g id="xtick_5">
     <g id="line2d_5">
      <g>
       <use xlink:href="#m842a56f3b2" x="220.207438" y="228.96" style="stroke: #000000; stroke-width: 0.8"/>
      </g>
     </g>
     <g id="text_5">
      <!-- 10.0 -->
      <g transform="translate(209.074626 243.558437) scale(0.1 -0.1)">
       <defs>
        <path id="DejaVuSans-31" d="M 794 531 
L 1825 531 
L 1825 4091 
L 703 3866 
L 703 4441 
L 1819 4666 
L 2450 4666 
L 2450 531 
L 3481 531 
L 3481 0 
L 794 0 
L 794 531 
z
" transform="scale(0.015625)"/>
       </defs>
       <use xlink:href="#DejaVuSans-31"/>
       <use xlink:href="#DejaVuSans-30" transform="translate(63.623047 0)"/>
       <use xlink:href="#DejaVuSans-2e" transform="translate(127.246094 0)"/>
       <use xlink:href="#DejaVuSans-30" transform="translate(159.033203 0)"/>
      </g>
     </g>
    </g>
    <g id="xtick_6">
     <g id="line2d_6">
      <g>
       <use xlink:href="#m842a56f3b2" x="258.890675" y="228.96" style="stroke: #000000; stroke-width: 0.8"/>
      </g>
     </g>
     <g id="text_6">
      <!-- 12.5 -->
      <g transform="translate(247.757863 243.558437) scale(0.1 -0.1)">
       <use xlink:href="#DejaVuSans-31"/>
       <use xlink:href="#DejaVuSans-32" transform="translate(63.623047 0)"/>
       <use xlink:href="#DejaVuSans-2e" transform="translate(127.246094 0)"/>
       <use xlink:href="#DejaVuSans-35" transform="translate(159.033203 0)"/>
      </g>
     </g>
    </g>
    <g id="xtick_7">
     <g id="line2d_7">
      <g>
       <use xlink:href="#m842a56f3b2" x="297.573912" y="228.96" style="stroke: #000000; stroke-width: 0.8"/>
      </g>
     </g>
     <g id="text_7">
      <!-- 15.0 -->
      <g transform="translate(286.4411 243.558437) scale(0.1 -0.1)">
       <use xlink:href="#DejaVuSans-31"/>
       <use xlink:href="#DejaVuSans-35" transform="translate(63.623047 0)"/>
       <use xlink:href="#DejaVuSans-2e" transform="translate(127.246094 0)"/>
       <use xlink:href="#DejaVuSans-30" transform="translate(159.033203 0)"/>
      </g>
     </g>
    </g>
    <g id="xtick_8">
     <g id="line2d_8">
      <g>
       <use xlink:href="#m842a56f3b2" x="336.257149" y="228.96" style="stroke: #000000; stroke-width: 0.8"/>
      </g>
     </g>
     <g id="text_8">
      <!-- 17.5 -->
      <g transform="translate(325.124337 243.558437) scale(0.1 -0.1)">
       <use xlink:href="#DejaVuSans-31"/>
       <use xlink:href="#DejaVuSans-37" transform="translate(63.623047 0)"/>
       <use xlink:href="#DejaVuSans-2e" transform="translate(127.246094 0)"/>
       <use xlink:href="#DejaVuSans-35" transform="translate(159.033203 0)"/>
      </g>
     </g>
    </g>
    <g id="xtick_9">
     <g id="line2d_9">
      <g>
       <use xlink:href="#m842a56f3b2" x="374.940386" y="228.96" style="stroke: #000000; stroke-width: 0.8"/>
      </g>
     </g>
     <g id="text_9">
      <!-- 20.0 -->
      <g transform="translate(363.807574 243.558437) scale(0.1 -0.1)">
       <use xlink:href="#DejaVuSans-32"/>
       <use xlink:href="#DejaVuSans-30" transform="translate(63.623047 0)"/>
       <use xlink:href="#DejaVuSans-2e" transform="translate(127.246094 0)"/>
       <use xlink:href="#DejaVuSans-30" transform="translate(159.033203 0)"/>
      </g>
     </g>
    </g>
    <g id="text_10">
     <!-- wavelength [Å] -->
     <g transform="translate(182.690625 258.920937) scale(0.1 -0.1)">
      <defs>
       <path id="DejaVuSans-77" d="M 269 3500 
L 844 3500 
L 1563 769 
L 2278 3500 
L 2956 3500 
L 3675 769 
L 4391 3500 
L 4966 3500 
L 4050 0 
L 3372 0 
L 2619 2869 
L 1863 0 
L 1184 0 
L 269 3500 
z
" transform="scale(0.015625)"/>
       <path id="DejaVuSans-61" d="M 2194 1759 
Q 1497 1759 1228 1600 
Q 959 1441 959 1056 
Q 959 750 1161 570 
Q 1363 391 1709 391 
Q 2188 391 2477 730 
Q 2766 1069 2766 1631 
L 2766 1759 
L 2194 1759 
z
M 3341 1997 
L 3341 0 
L 2766 0 
L 2766 531 
Q 2569 213 2275 61 
Q 1981 -91 1556 -91 
Q 1019 -91 701 211 
Q 384 513 384 1019 
Q 384 1609 779 1909 
Q 1175 2209 1959 2209 
L 2766 2209 
L 2766 2266 
Q 2766 2663 2505 2880 
Q 2244 3097 1772 3097 
Q 1472 3097 1187 3025 
Q 903 2953 641 2809 
L 641 3341 
Q 956 3463 1253 3523 
Q 1550 3584 1831 3584 
Q 2591 3584 2966 3190 
Q 3341 2797 3341 1997 
z
" transform="scale(0.015625)"/>
       <path id="DejaVuSans-76" d="M 191 3500 
L 800 3500 
L 1894 563 
L 2988 3500 
L 3597 3500 
L 2284 0 
L 1503 0 
L 191 3500 
z
" transform="scale(0.015625)"/>
       <path id="DejaVuSans-65" d="M 3597 1894 
L 3597 1613 
L 953 1613 
Q 991 1019 1311 708 
Q 1631 397 2203 397 
Q 2534 397 2845 478 
Q 3156 559 3463 722 
L 3463 178 
Q 3153 47 2828 -22 
Q 2503 -91 2169 -91 
Q 1331 -91 842 396 
Q 353 884 353 1716 
Q 353 2575 817 3079 
Q 1281 3584 2069 3584 
Q 2775 3584 3186 3129 
Q 3597 2675 3597 1894 
z
M 3022 2063 
Q 3016 2534 2758 2815 
Q 2500 3097 2075 3097 
Q 1594 3097 1305 2825 
Q 1016 2553 972 2059 
L 3022 2063 
z
" transform="scale(0.015625)"/>
       <path id="DejaVuSans-6c" d="M 603 4863 
L 1178 4863 
L 1178 0 
L 603 0 
L 603 4863 
z
" transform="scale(0.015625)"/>
       <path id="DejaVuSans-6e" d="M 3513 2113 
L 3513 0 
L 2938 0 
L 2938 2094 
Q 2938 2591 2744 2837 
Q 2550 3084 2163 3084 
Q 1697 3084 1428 2787 
Q 1159 2491 1159 1978 
L 1159 0 
L 581 0 
L 581 3500 
L 1159 3500 
L 1159 2956 
Q 1366 3272 1645 3428 
Q 1925 3584 2291 3584 
Q 2894 3584 3203 3211 
Q 3513 2838 3513 2113 
z
" transform="scale(0.015625)"/>
       <path id="DejaVuSans-67" d="M 2906 1791 
Q 2906 2416 2648 2759 
Q 2391 3103 1925 3103 
Q 1463 3103 1205 2759 
Q 947 2416 947 1791 
Q 947 1169 1205 825 
Q 1463 481 1925 481 
Q 2391 481 2648 825 
Q 2906 1169 2906 1791 
z
M 3481 434 
Q 3481 -459 3084 -895 
Q 2688 -1331 1869 -1331 
Q 1566 -1331 1297 -1286 
Q 1028 -1241 775 -1147 
L 775 -588 
Q 1028 -725 1275 -790 
Q 1522 -856 1778 -856 
Q 2344 -856 2625 -561 
Q 2906 -266 2906 331 
L 2906 616 
Q 2728 306 2450 153 
Q 2172 0 1784 0 
Q 1141 0 747 490 
Q 353 981 353 1791 
Q 353 2603 747 3093 
Q 1141 3584 1784 3584 
Q 2172 3584 2450 3431 
Q 2728 3278 2906 2969 
L 2906 3500 
L 3481 3500 
L 3481 434 
z
" transform="scale(0.015625)"/>
       <path id="DejaVuSans-74" d="M 1172 4494 
L 1172 3500 
L 2356 3500 
L 2356 3053 
L 1172 3053 
L 1172 1153 
Q 1172 725 1289 603 
Q 1406 481 1766 481 
L 2356 481 
L 2356 0 
L 1766 0 
Q 1100 0 847 248 
Q 594 497 594 1153 
L 594 3053 
L 172 3053 
L 172 3500 
L 594 3500 
L 594 4494 
L 1172 4494 
z
" transform="scale(0.015625)"/>
       <path id="DejaVuSans-68" d="M 3513 2113 
L 3513 0 
L 2938 0 
L 2938 2094 
Q 2938 2591 2744 2837 
Q 2550 3084 2163 3084 
Q 1697 3084 1428 2787 
Q 1159 2491 1159 1978 
L 1159 0 
L 581 0 
L 581 4863 
L 1159 4863 
L 1159 2956 
Q 1366 3272 1645 3428 
Q 1925 3584 2291 3584 
Q 2894 3584 3203 3211 
Q 3513 2838 3513 2113 
z
" transform="scale(0.015625)"/>
       <path id="DejaVuSans-20" transform="scale(0.015625)"/>
       <path id="DejaVuSans-5b" d="M 550 4863 
L 1875 4863 
L 1875 4416 
L 1125 4416 
L 1125 -397 
L 1875 -397 
L 1875 -844 
L 550 -844 
L 550 4863 
z
" transform="scale(0.015625)"/>
       <path id="DejaVuSans-c5" d="M 2663 5081 
Q 2663 5278 2523 5417 
Q 2384 5556 2188 5556 
Q 1988 5556 1852 5420 
Q 1716 5284 1716 5081 
Q 1716 4884 1853 4746 
Q 1991 4609 2188 4609 
Q 2384 4609 2523 4746 
Q 2663 4884 2663 5081 
z
M 2188 4044 
L 1338 1722 
L 3041 1722 
L 2188 4044 
z
M 1716 4366 
Q 1525 4494 1428 4673 
Q 1331 4853 1331 5081 
Q 1331 5441 1579 5691 
Q 1828 5941 2188 5941 
Q 2544 5941 2795 5689 
Q 3047 5438 3047 5081 
Q 3047 4863 2948 4678 
Q 2850 4494 2663 4366 
L 4325 0 
L 3669 0 
L 3244 1197 
L 1141 1197 
L 716 0 
L 50 0 
L 1716 4366 
z
" transform="scale(0.015625)"/>
       <path id="DejaVuSans-5d" d="M 1947 4863 
L 1947 -844 
L 622 -844 
L 622 -397 
L 1369 -397 
L 1369 4416 
L 622 4416 
L 622 4863 
L 1947 4863 
z
" transform="scale(0.015625)"/>
      </defs>
      <use xlink:href="#DejaVuSans-77"/>
      <use xlink:href="#DejaVuSans-61" transform="translate(81.787109 0)"/>
      <use xlink:href="#DejaVuSans-76" transform="translate(143.066406 0)"/>
      <use xlink:href="#DejaVuSans-65" transform="translate(202.246094 0)"/>
      <use xlink:href="#DejaVuSans-6c" transform="translate(263.769531 0)"/>
      <use xlink:href="#DejaVuSans-65" transform="translate(291.552734 0)"/>
      <use xlink:href="#DejaVuSans-6e" transform="translate(353.076172 0)"/>
      <use xlink:href="#DejaVuSans-67" transform="translate(416.455078 0)"/>
      <use xlink:href="#DejaVuSans-74" transform="translate(479.931641 0)"/>
      <use xlink:href="#DejaVuSans-68" transform="translate(519.140625 0)"/>
      <use xlink:href="#DejaVuSans-20" transform="translate(582.519531 0)"/>
      <use xlink:href="#DejaVuSans-5b" transform="translate(614.306641 0)"/>
      <use xlink:href="#DejaVuSans-c5" transform="translate(653.320312 0)"/>
      <use xlink:href="#DejaVuSans-5d" transform="translate(721.728516 0)"/>
     </g>
    </g>
   </g>
   <g id="matplotlib.axis_2">
    <g id="ytick_1">
     <g id="line2d_10">
      <defs>
       <path id="m3186fc2325" d="M 0 0 
L -3.5 0 
" style="stroke: #000000; stroke-width: 0.8"/>
      </defs>
      <g>
       <use xlink:href="#m3186fc2325" x="53.328125" y="218.88" style="stroke: #000000; stroke-width: 0.8"/>
      </g>
     </g>
     <g id="text_11">
      <!-- 0 -->
      <g transform="translate(39.965625 222.679219) scale(0.1 -0.1)">
       <use xlink:href="#DejaVuSans-30"/>
      </g>
     </g>
    </g>
    <g id="ytick_2">
     <g id="line2d_11">
      <g>
       <use xlink:href="#m3186fc2325" x="53.328125" y="179.840496" style="stroke: #000000; stroke-width: 0.8"/>
      </g>
     </g>
     <g id="text_12">
      <!-- 500 -->
      <g transform="translate(27.240625 183.639714) scale(0.1 -0.1)">
       <use xlink:href="#DejaVuSans-35"/>
       <use xlink:href="#DejaVuSans-30" transform="translate(63.623047 0)"/>
       <use xlink:href="#DejaVuSans-30" transform="translate(127.246094 0)"/>
      </g>
     </g>
    </g>
    <g id="ytick_3">
     <g id="line2d_12">
      <g>
       <use xlink:href="#m3186fc2325" x="53.328125" y="140.800991" style="stroke: #000000; stroke-width: 0.8"/>
      </g>
     </g>
     <g id="text_13">
      <!-- 1000 -->
      <g transform="translate(20.878125 144.60021) scale(0.1 -0.1)">
       <use xlink:href="#DejaVuSans-31"/>
       <use xlink:href="#DejaVuSans-30" transform="translate(63.623047 0)"/>
       <use xlink:href="#DejaVuSans-30" transform="translate(127.246094 0)"/>
       <use xlink:href="#DejaVuSans-30" transform="translate(190.869141 0)"/>
      </g>
     </g>
    </g>
    <g id="ytick_4">
     <g id="line2d_13">
      <g>
       <use xlink:href="#m3186fc2325" x="53.328125" y="101.761487" style="stroke: #000000; stroke-width: 0.8"/>
      </g>
     </g>
     <g id="text_14">
      <!-- 1500 -->
      <g transform="translate(20.878125 105.560706) scale(0.1 -0.1)">
       <use xlink:href="#DejaVuSans-31"/>
       <use xlink:href="#DejaVuSans-35" transform="translate(63.623047 0)"/>
       <use xlink:href="#DejaVuSans-30" transform="translate(127.246094 0)"/>
       <use xlink:href="#DejaVuSans-30" transform="translate(190.869141 0)"/>
      </g>
     </g>
    </g>
    <g id="ytick_5">
     <g id="line2d_14">
      <g>
       <use xlink:href="#m3186fc2325" x="53.328125" y="62.721983" style="stroke: #000000; stroke-width: 0.8"/>
      </g>
     </g>
     <g id="text_15">
      <!-- 2000 -->
      <g transform="translate(20.878125 66.521202) scale(0.1 -0.1)">
       <use xlink:href="#DejaVuSans-32"/>
       <use xlink:href="#DejaVuSans-30" transform="translate(63.623047 0)"/>
       <use xlink:href="#DejaVuSans-30" transform="translate(127.246094 0)"/>
       <use xlink:href="#DejaVuSans-30" transform="translate(190.869141 0)"/>
      </g>
     </g>
    </g>
    <g id="ytick_6">
     <g id="line2d_15">
      <g>
       <use xlink:href="#m3186fc2325" x="53.328125" y="23.682479" style="stroke: #000000; stroke-width: 0.8"/>
      </g>
     </g>
     <g id="text_16">
      <!-- 2500 -->
      <g transform="translate(20.878125 27.481697) scale(0.1 -0.1)">
       <use xlink:href="#DejaVuSans-32"/>
       <use xlink:href="#DejaVuSans-35" transform="translate(63.623047 0)"/>
       <use xlink:href="#DejaVuSans-30" transform="translate(127.246094 0)"/>
       <use xlink:href="#DejaVuSans-30" transform="translate(190.869141 0)"/>
      </g>
     </g>
    </g>
    <g id="text_17">
     <!-- [counts] -->
     <g transform="translate(14.798438 138.6925) rotate(-90) scale(0.1 -0.1)">
      <defs>
       <path id="DejaVuSans-63" d="M 3122 3366 
L 3122 2828 
Q 2878 2963 2633 3030 
Q 2388 3097 2138 3097 
Q 1578 3097 1268 2742 
Q 959 2388 959 1747 
Q 959 1106 1268 751 
Q 1578 397 2138 397 
Q 2388 397 2633 464 
Q 2878 531 3122 666 
L 3122 134 
Q 2881 22 2623 -34 
Q 2366 -91 2075 -91 
Q 1284 -91 818 406 
Q 353 903 353 1747 
Q 353 2603 823 3093 
Q 1294 3584 2113 3584 
Q 2378 3584 2631 3529 
Q 2884 3475 3122 3366 
z
" transform="scale(0.015625)"/>
       <path id="DejaVuSans-6f" d="M 1959 3097 
Q 1497 3097 1228 2736 
Q 959 2375 959 1747 
Q 959 1119 1226 758 
Q 1494 397 1959 397 
Q 2419 397 2687 759 
Q 2956 1122 2956 1747 
Q 2956 2369 2687 2733 
Q 2419 3097 1959 3097 
z
M 1959 3584 
Q 2709 3584 3137 3096 
Q 3566 2609 3566 1747 
Q 3566 888 3137 398 
Q 2709 -91 1959 -91 
Q 1206 -91 779 398 
Q 353 888 353 1747 
Q 353 2609 779 3096 
Q 1206 3584 1959 3584 
z
" transform="scale(0.015625)"/>
       <path id="DejaVuSans-75" d="M 544 1381 
L 544 3500 
L 1119 3500 
L 1119 1403 
Q 1119 906 1312 657 
Q 1506 409 1894 409 
Q 2359 409 2629 706 
Q 2900 1003 2900 1516 
L 2900 3500 
L 3475 3500 
L 3475 0 
L 2900 0 
L 2900 538 
Q 2691 219 2414 64 
Q 2138 -91 1772 -91 
Q 1169 -91 856 284 
Q 544 659 544 1381 
z
M 1991 3584 
L 1991 3584 
z
" transform="scale(0.015625)"/>
       <path id="DejaVuSans-73" d="M 2834 3397 
L 2834 2853 
Q 2591 2978 2328 3040 
Q 2066 3103 1784 3103 
Q 1356 3103 1142 2972 
Q 928 2841 928 2578 
Q 928 2378 1081 2264 
Q 1234 2150 1697 2047 
L 1894 2003 
Q 2506 1872 2764 1633 
Q 3022 1394 3022 966 
Q 3022 478 2636 193 
Q 2250 -91 1575 -91 
Q 1294 -91 989 -36 
Q 684 19 347 128 
L 347 722 
Q 666 556 975 473 
Q 1284 391 1588 391 
Q 1994 391 2212 530 
Q 2431 669 2431 922 
Q 2431 1156 2273 1281 
Q 2116 1406 1581 1522 
L 1381 1569 
Q 847 1681 609 1914 
Q 372 2147 372 2553 
Q 372 3047 722 3315 
Q 1072 3584 1716 3584 
Q 2034 3584 2315 3537 
Q 2597 3491 2834 3397 
z
" transform="scale(0.015625)"/>
      </defs>
      <use xlink:href="#DejaVuSans-5b"/>
      <use xlink:href="#DejaVuSans-63" transform="translate(39.013672 0)"/>
      <use xlink:href="#DejaVuSans-6f" transform="translate(93.994141 0)"/>
      <use xlink:href="#DejaVuSans-75" transform="translate(155.175781 0)"/>
      <use xlink:href="#DejaVuSans-6e" transform="translate(218.554688 0)"/>
      <use xlink:href="#DejaVuSans-74" transform="translate(281.933594 0)"/>
      <use xlink:href="#DejaVuSans-73" transform="translate(321.142578 0)"/>
      <use xlink:href="#DejaVuSans-5d" transform="translate(373.242188 0)"/>
     </g>
    </g>
   </g>
   <g id="line2d_16">
    <path d="M 68.546307 50.697816 
L 69.155034 50.697816 
L 69.155034 46.013075 
L 69.763761 46.013075 
L 69.763761 34.535461 
L 70.372489 34.535461 
L 70.372489 35.550488 
L 70.981216 35.550488 
L 70.981216 22.589373 
L 71.589943 22.589373 
L 71.589943 24.229032 
L 72.19867 24.229032 
L 72.19867 44.607653 
L 72.807398 44.607653 
L 72.807398 50.151263 
L 73.416125 50.151263 
L 73.416125 59.520744 
L 74.024852 59.520744 
L 74.024852 55.382556 
L 74.63358 55.382556 
L 74.63358 52.649791 
L 75.242307 52.649791 
L 75.242307 53.586739 
L 75.851034 53.586739 
L 75.851034 44.139179 
L 76.459761 44.139179 
L 76.459761 32.427328 
L 77.068489 32.427328 
L 77.068489 18.216948 
L 77.677216 18.216948 
L 77.677216 17.28 
L 78.285943 17.28 
L 78.285943 26.649481 
L 78.89467 26.649481 
L 78.89467 21.027792 
L 79.503398 21.027792 
L 79.503398 31.178064 
L 80.112125 31.178064 
L 80.112125 31.49038 
L 80.720852 31.49038 
L 80.720852 46.950023 
L 81.32958 46.950023 
L 81.32958 70.8422 
L 81.938307 70.8422 
L 81.938307 86.692239 
L 82.547034 86.692239 
L 82.547034 99.18488 
L 83.155761 99.18488 
L 83.155761 120.890844 
L 83.764489 120.890844 
L 83.764489 138.770937 
L 84.373216 138.770937 
L 84.373216 153.137475 
L 84.981943 153.137475 
L 84.981943 174.921518 
L 85.59067 174.921518 
L 85.59067 186.789527 
L 86.199398 186.789527 
L 86.199398 194.909744 
L 86.808125 194.909744 
L 86.808125 202.093013 
L 87.416852 202.093013 
L 87.416852 203.810751 
L 88.02558 203.810751 
L 88.02558 205.450411 
L 88.634307 205.450411 
L 88.634307 201.702618 
L 89.243034 201.702618 
L 89.243034 194.987823 
L 89.851761 194.987823 
L 89.851761 192.801611 
L 90.460489 192.801611 
L 90.460489 187.41416 
L 91.069216 187.41416 
L 91.069216 179.762417 
L 91.677943 179.762417 
L 91.677943 174.296886 
L 92.28667 174.296886 
L 92.28667 160.476902 
L 92.895398 160.476902 
L 92.895398 150.795105 
L 93.504125 150.795105 
L 93.504125 140.332517 
L 94.112852 140.332517 
L 94.112852 138.224384 
L 94.72158 138.224384 
L 94.72158 126.824849 
L 95.330307 126.824849 
L 95.330307 115.971867 
L 95.939034 115.971867 
L 95.939034 121.671634 
L 96.547761 121.671634 
L 96.547761 117.29921 
L 97.156489 117.29921 
L 97.156489 107.305097 
L 97.765216 107.305097 
L 97.765216 112.145995 
L 98.373943 112.145995 
L 98.373943 102.542277 
L 98.98267 102.542277 
L 98.98267 104.72849 
L 99.591398 104.72849 
L 99.591398 107.305097 
L 100.200125 107.305097 
L 100.200125 105.821596 
L 100.808852 105.821596 
L 100.808852 87.160713 
L 101.41758 87.160713 
L 101.41758 90.596189 
L 102.026307 90.596189 
L 102.026307 86.692239 
L 102.635034 86.692239 
L 102.635034 83.41292 
L 103.243761 83.41292 
L 103.243761 87.473029 
L 103.852489 87.473029 
L 103.852489 75.292703 
L 104.461216 75.292703 
L 104.461216 68.577909 
L 105.069943 68.577909 
L 105.069943 69.749094 
L 105.67867 69.749094 
L 105.67867 71.544911 
L 106.287398 71.544911 
L 106.287398 77.244679 
L 106.896125 77.244679 
L 106.896125 81.382866 
L 107.504852 81.382866 
L 107.504852 78.572022 
L 108.11358 78.572022 
L 108.11358 75.370782 
L 108.722307 75.370782 
L 108.722307 79.587049 
L 109.331034 79.587049 
L 109.331034 80.992471 
L 109.939761 80.992471 
L 109.939761 86.223765 
L 110.548489 86.223765 
L 110.548489 84.271789 
L 111.157216 84.271789 
L 111.157216 81.304787 
L 111.765943 81.304787 
L 111.765943 81.617103 
L 112.37467 81.617103 
L 112.37467 76.463888 
L 112.983398 76.463888 
L 112.983398 78.650101 
L 113.592125 78.650101 
L 113.592125 65.220511 
L 114.200852 65.220511 
L 114.200852 57.022215 
L 114.80958 57.022215 
L 114.80958 58.583796 
L 116.027034 58.583796 
L 116.027034 48.433524 
L 116.635761 48.433524 
L 116.635761 56.475662 
L 117.244489 56.475662 
L 117.244489 57.256452 
L 117.853216 57.256452 
L 117.853216 69.983331 
L 118.461943 69.983331 
L 118.461943 83.647157 
L 119.07067 83.647157 
L 119.07067 84.115631 
L 119.679398 84.115631 
L 119.679398 99.731433 
L 120.288125 99.731433 
L 120.288125 106.211991 
L 120.896852 106.211991 
L 120.896852 119.797738 
L 121.50558 119.797738 
L 121.50558 123.467452 
L 122.114307 123.467452 
L 122.114307 134.866987 
L 122.723034 134.866987 
L 122.723034 134.086197 
L 123.331761 134.086197 
L 123.331761 135.179303 
L 123.940489 135.179303 
L 123.940489 134.008118 
L 124.549216 134.008118 
L 124.549216 142.284493 
L 125.157943 142.284493 
L 125.157943 141.73794 
L 125.76667 141.73794 
L 125.76667 143.29952 
L 126.375398 143.29952 
L 126.375398 145.173416 
L 126.984125 145.173416 
L 126.984125 143.924152 
L 127.592852 143.924152 
L 127.592852 151.497816 
L 128.20158 151.497816 
L 128.20158 149.936235 
L 128.810307 149.936235 
L 128.810307 146.032285 
L 129.419034 146.032285 
L 129.419034 151.732053 
L 130.027761 151.732053 
L 130.027761 149.233524 
L 130.636489 149.233524 
L 130.636489 149.54584 
L 131.245216 149.54584 
L 131.245216 151.419737 
L 131.853943 151.419737 
L 131.853943 144.783021 
L 132.46267 144.783021 
L 132.46267 142.362572 
L 133.680125 142.440651 
L 133.680125 142.51873 
L 134.288852 142.51873 
L 134.288852 140.566754 
L 134.89758 140.566754 
L 134.89758 136.116251 
L 135.506307 136.116251 
L 135.506307 138.927095 
L 136.115034 138.927095 
L 136.115034 135.335461 
L 136.723761 135.335461 
L 136.723761 136.428567 
L 137.332489 136.428567 
L 137.332489 137.599752 
L 137.941216 137.599752 
L 137.941216 136.662804 
L 138.549943 136.662804 
L 138.549943 140.176359 
L 139.15867 140.176359 
L 139.15867 141.191387 
L 139.767398 141.191387 
L 139.767398 151.029342 
L 140.376125 151.029342 
L 140.376125 160.63306 
L 140.984852 160.63306 
L 140.984852 159.85227 
L 141.59358 159.85227 
L 141.59358 166.723222 
L 142.202307 166.723222 
L 142.202307 169.065593 
L 142.811034 169.065593 
L 142.811034 173.125701 
L 143.419761 173.125701 
L 143.419761 174.218807 
L 144.028489 174.218807 
L 144.028489 174.843439 
L 144.637216 174.843439 
L 144.637216 177.654284 
L 145.245943 177.654284 
L 145.245943 180.621286 
L 145.85467 180.621286 
L 145.85467 181.167839 
L 146.463398 181.167839 
L 146.463398 183.666367 
L 147.072125 183.666367 
L 147.072125 179.684338 
L 147.680852 179.684338 
L 147.680852 184.134841 
L 148.28958 184.134841 
L 148.28958 179.372022 
L 148.898307 179.372022 
L 148.898307 183.822525 
L 149.507034 183.822525 
L 149.507034 177.263888 
L 150.115761 177.263888 
L 150.115761 176.951572 
L 150.724489 176.951572 
L 150.724489 177.185809 
L 151.941943 177.263888 
L 151.941943 174.843439 
L 153.159398 174.843439 
L 153.159398 172.344911 
L 153.768125 172.344911 
L 153.768125 173.828412 
L 154.376852 173.828412 
L 154.376852 171.017568 
L 154.98558 171.017568 
L 154.98558 173.125701 
L 155.594307 173.125701 
L 155.594307 174.531123 
L 156.203034 174.531123 
L 156.203034 173.750333 
L 156.811761 173.750333 
L 156.811761 175.389992 
L 157.420489 175.389992 
L 157.420489 176.951572 
L 158.029216 176.951572 
L 158.029216 178.044679 
L 158.637943 178.044679 
L 158.637943 181.402076 
L 159.24667 181.402076 
L 159.24667 179.762417 
L 159.855398 179.762417 
L 159.855398 183.978683 
L 160.464125 183.978683 
L 160.464125 186.164895 
L 161.072852 186.164895 
L 161.072852 188.585345 
L 161.68158 188.585345 
L 161.68158 188.351108 
L 162.290307 188.351108 
L 162.290307 190.303083 
L 162.899034 190.303083 
L 162.899034 192.87969 
L 163.507761 192.87969 
L 163.507761 191.240031 
L 164.116489 191.240031 
L 164.116489 196.08093 
L 164.725216 196.08093 
L 164.725216 195.143981 
L 165.333943 195.143981 
L 165.333943 196.002851 
L 165.94267 196.002851 
L 165.94267 196.783641 
L 167.160125 196.783641 
L 167.160125 196.939799 
L 167.768852 196.939799 
L 167.768852 195.456297 
L 168.37758 195.456297 
L 168.37758 193.972796 
L 168.986307 193.972796 
L 168.986307 194.987823 
L 169.595034 194.987823 
L 169.595034 192.0989 
L 170.203761 192.0989 
L 170.203761 192.645453 
L 170.812489 192.645453 
L 170.812489 193.192006 
L 171.421216 193.192006 
L 171.421216 192.567374 
L 172.029943 192.567374 
L 172.029943 188.741503 
L 172.63867 188.741503 
L 172.63867 189.366135 
L 173.247398 189.366135 
L 173.247398 190.849636 
L 173.856125 190.849636 
L 173.856125 194.207033 
L 174.464852 194.207033 
L 174.464852 190.303083 
L 175.07358 190.303083 
L 175.07358 192.333137 
L 175.682307 192.333137 
L 175.682307 192.723532 
L 176.899761 192.723532 
L 176.899761 193.972796 
L 177.508489 193.972796 
L 177.508489 195.143981 
L 178.117216 195.143981 
L 178.117216 195.612455 
L 178.725943 195.612455 
L 178.725943 198.032905 
L 179.33467 198.032905 
L 179.33467 199.828722 
L 179.943398 199.828722 
L 179.943398 199.360248 
L 180.552125 199.360248 
L 180.552125 200.141038 
L 181.160852 200.141038 
L 181.160852 200.375275 
L 181.76958 200.375275 
L 181.76958 202.093013 
L 182.378307 202.093013 
L 182.378307 203.966909 
L 182.987034 203.966909 
L 182.987034 201.624539 
L 183.595761 201.624539 
L 183.595761 202.951882 
L 184.204489 202.951882 
L 184.204489 202.483408 
L 184.813216 202.483408 
L 184.813216 200.999907 
L 185.421943 200.999907 
L 185.421943 203.88883 
L 186.03067 203.88883 
L 186.03067 203.264198 
L 186.639398 203.264198 
L 186.639398 202.483408 
L 187.248125 202.483408 
L 187.248125 199.98488 
L 187.856852 199.98488 
L 187.856852 202.561487 
L 188.46558 202.561487 
L 188.46558 202.093013 
L 189.074307 202.093013 
L 189.074307 200.375275 
L 189.683034 200.375275 
L 189.683034 199.672564 
L 190.900489 199.750643 
L 190.900489 200.999907 
L 191.509216 200.999907 
L 191.509216 199.672564 
L 192.117943 199.672564 
L 192.117943 201.234144 
L 192.72667 201.234144 
L 192.72667 201.390302 
L 193.335398 201.390302 
L 193.335398 202.795724 
L 193.944125 202.795724 
L 193.944125 203.420356 
L 195.16158 203.420356 
L 195.16158 204.903857 
L 195.770307 204.903857 
L 195.770307 203.654593 
L 196.379034 203.654593 
L 196.379034 205.294253 
L 196.987761 205.294253 
L 196.987761 206.075043 
L 197.596489 206.075043 
L 197.596489 208.417413 
L 198.205216 208.417413 
L 198.205216 209.276282 
L 198.813943 209.276282 
L 198.813943 208.495492 
L 199.42267 208.495492 
L 199.42267 210.681704 
L 200.031398 210.681704 
L 200.031398 209.744756 
L 200.640125 209.744756 
L 200.640125 210.21323 
L 201.248852 210.21323 
L 201.248852 210.837862 
L 201.85758 210.837862 
L 201.85758 211.384415 
L 202.466307 211.384415 
L 202.466307 210.291309 
L 203.075034 210.291309 
L 203.075034 212.711758 
L 204.292489 212.789837 
L 204.292489 212.165205 
L 204.901216 212.165205 
L 204.901216 213.024074 
L 205.509943 213.024074 
L 205.509943 211.618652 
L 206.11867 211.618652 
L 206.11867 213.102153 
L 206.727398 213.102153 
L 206.727398 212.321363 
L 207.336125 212.321363 
L 207.336125 212.945995 
L 207.944852 212.945995 
L 207.944852 211.462494 
L 208.55358 211.462494 
L 208.55358 213.102153 
L 209.162307 213.102153 
L 209.162307 213.726785 
L 209.771034 213.726785 
L 209.771034 215.054129 
L 210.379761 215.054129 
L 210.379761 214.585655 
L 210.988489 214.585655 
L 210.988489 215.054129 
L 211.597216 215.054129 
L 211.597216 215.75684 
L 212.205943 215.75684 
L 212.205943 216.381472 
L 213.423398 216.303393 
L 213.423398 216.615709 
L 214.032125 216.615709 
L 214.032125 217.474578 
L 214.640852 217.474578 
L 214.640852 217.240341 
L 215.24958 217.240341 
L 215.24958 217.396499 
L 215.858307 217.396499 
L 215.858307 217.708815 
L 216.467034 217.708815 
L 216.467034 218.489605 
L 217.075761 218.489605 
L 217.075761 218.255368 
L 217.684489 218.255368 
L 217.684489 218.489605 
L 218.901943 218.567684 
L 218.901943 218.645763 
L 219.51067 218.645763 
L 219.51067 218.88 
L 220.119398 218.88 
L 220.119398 218.723842 
L 220.728125 218.723842 
L 220.728125 218.489605 
L 221.336852 218.489605 
L 221.336852 218.645763 
L 222.554307 218.567684 
L 222.554307 218.177289 
L 224.380489 218.177289 
L 224.380489 218.021131 
L 225.597943 218.09921 
L 225.597943 217.474578 
L 226.815398 217.396499 
L 226.815398 218.021131 
L 227.424125 218.021131 
L 227.424125 217.552657 
L 228.032852 217.552657 
L 228.032852 217.943052 
L 228.64158 217.943052 
L 228.64158 217.630736 
L 229.250307 217.630736 
L 229.250307 217.786894 
L 229.859034 217.786894 
L 229.859034 217.943052 
L 230.467761 217.943052 
L 230.467761 217.552657 
L 231.685216 217.552657 
L 231.685216 217.31842 
L 232.293943 217.31842 
L 232.293943 216.849946 
L 232.90267 216.849946 
L 232.90267 217.630736 
L 234.120125 217.708815 
L 234.120125 217.864973 
L 234.728852 217.864973 
L 234.728852 218.09921 
L 235.33758 218.09921 
L 235.33758 217.552657 
L 235.946307 217.552657 
L 235.946307 218.177289 
L 237.163761 218.177289 
L 237.163761 218.021131 
L 237.772489 218.021131 
L 237.772489 217.864973 
L 239.59867 217.864973 
L 239.59867 217.552657 
L 240.816125 217.630736 
L 240.816125 217.943052 
L 241.424852 217.943052 
L 241.424852 217.162262 
L 242.03358 217.162262 
L 242.03358 217.708815 
L 242.642307 217.708815 
L 242.642307 217.552657 
L 243.859761 217.474578 
L 243.859761 217.708815 
L 244.468489 217.708815 
L 244.468489 217.396499 
L 245.685943 217.31842 
L 245.685943 217.552657 
L 246.29467 217.552657 
L 246.29467 217.786894 
L 246.903398 217.786894 
L 246.903398 217.31842 
L 247.512125 217.31842 
L 247.512125 217.630736 
L 248.120852 217.630736 
L 248.120852 217.162262 
L 248.72958 217.162262 
L 248.72958 217.552657 
L 249.947034 217.630736 
L 249.947034 217.786894 
L 250.555761 217.786894 
L 250.555761 216.615709 
L 251.164489 216.615709 
L 251.164489 217.474578 
L 251.773216 217.474578 
L 251.773216 217.240341 
L 252.99067 217.31842 
L 252.99067 217.786894 
L 253.599398 217.786894 
L 253.599398 217.474578 
L 254.208125 217.474578 
L 254.208125 217.786894 
L 254.816852 217.786894 
L 254.816852 217.943052 
L 255.42558 217.943052 
L 255.42558 217.708815 
L 256.034307 217.708815 
L 256.034307 218.411526 
L 256.643034 218.411526 
L 256.643034 217.708815 
L 257.251761 217.708815 
L 257.251761 218.177289 
L 257.860489 218.177289 
L 257.860489 217.786894 
L 258.469216 217.786894 
L 258.469216 217.630736 
L 259.077943 217.630736 
L 259.077943 218.021131 
L 259.68667 218.021131 
L 259.68667 217.31842 
L 260.295398 217.31842 
L 260.295398 217.943052 
L 260.904125 217.943052 
L 260.904125 217.474578 
L 261.512852 217.474578 
L 261.512852 217.708815 
L 262.12158 217.708815 
L 262.12158 217.864973 
L 264.556489 217.943052 
L 264.556489 218.021131 
L 265.773943 218.09921 
L 265.773943 217.474578 
L 266.38267 217.474578 
L 266.38267 217.630736 
L 266.991398 217.630736 
L 266.991398 218.177289 
L 267.600125 218.177289 
L 267.600125 217.630736 
L 268.208852 217.630736 
L 268.208852 217.474578 
L 268.81758 217.474578 
L 268.81758 217.31842 
L 269.426307 217.31842 
L 269.426307 217.162262 
L 270.035034 217.162262 
L 270.035034 217.474578 
L 270.643761 217.474578 
L 270.643761 217.864973 
L 271.252489 217.864973 
L 271.252489 217.474578 
L 271.861216 217.474578 
L 271.861216 217.240341 
L 273.07867 217.31842 
L 273.07867 218.177289 
L 273.687398 218.177289 
L 273.687398 217.708815 
L 274.296125 217.708815 
L 274.296125 218.333447 
L 274.904852 218.333447 
L 274.904852 217.708815 
L 275.51358 217.708815 
L 275.51358 217.864973 
L 276.122307 217.864973 
L 276.122307 218.255368 
L 276.731034 218.255368 
L 276.731034 217.786894 
L 277.339761 217.786894 
L 277.339761 218.09921 
L 280.383398 218.021131 
L 280.383398 217.786894 
L 280.992125 217.786894 
L 280.992125 217.943052 
L 282.20958 218.021131 
L 282.20958 217.708815 
L 282.818307 217.708815 
L 282.818307 218.09921 
L 283.427034 218.09921 
L 283.427034 218.567684 
L 284.035761 218.567684 
L 284.035761 218.021131 
L 284.644489 218.021131 
L 284.644489 217.552657 
L 285.861943 217.552657 
L 285.861943 218.09921 
L 286.47067 218.09921 
L 286.47067 217.864973 
L 287.079398 217.864973 
L 287.079398 217.552657 
L 287.688125 217.552657 
L 287.688125 218.255368 
L 288.296852 218.255368 
L 288.296852 217.630736 
L 288.90558 217.630736 
L 288.90558 217.240341 
L 289.514307 217.240341 
L 289.514307 217.474578 
L 290.731761 217.474578 
L 290.731761 218.021131 
L 291.949216 218.09921 
L 291.949216 217.864973 
L 292.557943 217.864973 
L 292.557943 217.552657 
L 293.16667 217.552657 
L 293.16667 217.943052 
L 293.775398 217.943052 
L 293.775398 217.240341 
L 294.384125 217.240341 
L 294.384125 218.177289 
L 295.60158 218.177289 
L 295.60158 217.943052 
L 296.210307 217.943052 
L 296.210307 218.411526 
L 297.427761 218.411526 
L 297.427761 217.864973 
L 298.036489 217.864973 
L 298.036489 218.177289 
L 299.253943 218.177289 
L 299.253943 218.411526 
L 299.86267 218.411526 
L 299.86267 218.255368 
L 300.471398 218.255368 
L 300.471398 218.09921 
L 302.29758 218.09921 
L 302.29758 217.474578 
L 302.906307 217.474578 
L 302.906307 217.786894 
L 304.123761 217.786894 
L 304.123761 218.021131 
L 304.732489 218.021131 
L 304.732489 217.786894 
L 305.341216 217.786894 
L 305.341216 218.255368 
L 305.949943 218.255368 
L 305.949943 217.864973 
L 306.55867 217.864973 
L 306.55867 218.489605 
L 307.167398 218.489605 
L 307.167398 217.396499 
L 307.776125 217.396499 
L 307.776125 218.333447 
L 308.384852 218.333447 
L 308.384852 218.09921 
L 308.99358 218.09921 
L 308.99358 218.255368 
L 309.602307 218.255368 
L 309.602307 217.943052 
L 310.819761 217.943052 
L 310.819761 218.09921 
L 311.428489 218.09921 
L 311.428489 218.255368 
L 312.645943 218.255368 
L 312.645943 217.864973 
L 313.25467 217.864973 
L 313.25467 218.255368 
L 314.472125 218.333447 
L 314.472125 218.567684 
L 315.080852 218.567684 
L 315.080852 218.255368 
L 316.907034 218.333447 
L 316.907034 217.943052 
L 318.733216 217.943052 
L 318.733216 217.786894 
L 319.95067 217.864973 
L 319.95067 218.021131 
L 320.559398 218.021131 
L 320.559398 217.864973 
L 321.168125 217.864973 
L 321.168125 218.021131 
L 321.776852 218.021131 
L 321.776852 217.864973 
L 322.38558 217.864973 
L 322.38558 218.09921 
L 323.603034 218.177289 
L 323.603034 218.489605 
L 324.211761 218.489605 
L 324.211761 217.943052 
L 324.820489 217.943052 
L 324.820489 218.255368 
L 325.429216 218.255368 
L 325.429216 218.09921 
L 327.864125 218.177289 
L 327.864125 218.411526 
L 328.472852 218.411526 
L 328.472852 218.09921 
L 329.08158 218.09921 
L 329.08158 218.411526 
L 331.516489 218.411526 
L 331.516489 218.567684 
L 332.125216 218.567684 
L 332.125216 218.333447 
L 332.733943 218.333447 
L 332.733943 218.489605 
L 333.34267 218.489605 
L 333.34267 218.723842 
L 333.951398 218.723842 
L 333.951398 218.567684 
L 334.560125 218.567684 
L 334.560125 218.333447 
L 335.77758 218.333447 
L 335.77758 218.645763 
L 336.386307 218.645763 
L 336.386307 218.333447 
L 337.603761 218.411526 
L 337.603761 218.489605 
L 338.821216 218.567684 
L 338.821216 218.723842 
L 340.647398 218.645763 
L 340.647398 218.333447 
L 341.256125 218.333447 
L 341.256125 218.567684 
L 341.864852 218.567684 
L 341.864852 218.723842 
L 345.517216 218.645763 
L 345.517216 218.88 
L 346.125943 218.88 
L 346.125943 218.723842 
L 348.560852 218.801921 
L 348.560852 218.88 
L 358.300489 218.801921 
L 358.300489 218.723842 
L 358.909216 218.723842 
L 358.909216 218.88 
L 368.040125 218.88 
L 368.040125 218.723842 
L 368.648852 218.723842 
L 368.648852 218.88 
L 371.692489 218.801921 
L 371.692489 218.723842 
L 372.909943 218.801921 
L 372.909943 218.801921 
" clip-path="url(#p1121f1554a)" style="fill: none; stroke: #1f77b4; stroke-width: 1.5; stroke-linecap: square"/>
   </g>
   <g id="patch_3">
    <path d="M 53.328125 228.96 
L 53.328125 7.2 
" style="fill: none; stroke: #000000; stroke-width: 0.8; stroke-linejoin: miter; stroke-linecap: square"/>
   </g>
   <g id="patch_4">
    <path d="M 388.128125 228.96 
L 388.128125 7.2 
" style="fill: none; stroke: #000000; stroke-width: 0.8; stroke-linejoin: miter; stroke-linecap: square"/>
   </g>
   <g id="patch_5">
    <path d="M 53.328125 228.96 
L 388.128125 228.96 
" style="fill: none; stroke: #000000; stroke-width: 0.8; stroke-linejoin: miter; stroke-linecap: square"/>
   </g>
   <g id="patch_6">
    <path d="M 53.328125 7.2 
L 388.128125 7.2 
" style="fill: none; stroke: #000000; stroke-width: 0.8; stroke-linejoin: miter; stroke-linecap: square"/>
   </g>
  </g>
 </g>
 <defs>
  <clipPath id="p1121f1554a">
   <rect x="53.328125" y="7.2" width="334.8" height="221.76"/>
  </clipPath>
 </defs>
</svg>
