<?xml version="1.0" encoding="utf-8" standalone="no"?>
<!DOCTYPE svg PUBLIC "-//W3C//DTD SVG 1.1//EN"
  "http://www.w3.org/Graphics/SVG/1.1/DTD/svg11.dtd">
<svg xmlns:xlink="http://www.w3.org/1999/xlink" width="872.39952pt" height="296.39952pt" viewBox="0 0 872.39952 296.39952" xmlns="http://www.w3.org/2000/svg" version="1.1">
 <metadata>
  <rdf:RDF xmlns:dc="http://purl.org/dc/elements/1.1/" xmlns:cc="http://creativecommons.org/ns#" xmlns:rdf="http://www.w3.org/1999/02/22-rdf-syntax-ns#">
   <cc:Work>
    <dc:type rdf:resource="http://purl.org/dc/dcmitype/StillImage"/>
    <dc:date>2025-10-02T14:00:59.463000</dc:date>
    <dc:format>image/svg+xml</dc:format>
    <dc:creator>
     <cc:Agent>
      <dc:title>Matplotlib v3.10.1, https://matplotlib.org/</dc:title>
     </cc:Agent>
    </dc:creator>
   </cc:Work>
  </rdf:RDF>
 </metadata>
 <defs>
  <style type="text/css">*{stroke-linejoin: round; stroke-linecap: butt}</style>
 </defs>
 <g id="figure_1">
  <g id="patch_1">
   <path d="M 0 296.39952 
L 872.39952 296.39952 
L 872.39952 0 
L 0 0 
z
" style="fill: #ffffff"/>
  </g>
  <g id="axes_1">
   <g id="patch_2">
    <path d="M 53.328125 257.158895 
L 428.69851 257.158895 
L 428.69851 7.2 
L 53.328125 7.2 
z
" style="fill: #ffffff"/>
   </g>
   <g id="matplotlib.axis_1">
    <g id="xtick_1">
     <g id="line2d_1">
      <defs>
       <path id="m02c72b69a1" d="M 0 0 
L 0 3.5 
" style="stroke: #000000; stroke-width: 0.8"/>
      </defs>
      <g>
       <use xlink:href="#m02c72b69a1" x="69.528021" y="257.158895" style="stroke: #000000; stroke-width: 0.8"/>
      </g>
     </g>
     <g id="text_1">
      <!-- 0 -->
      <g transform="translate(66.346771 271.757332) scale(0.1 -0.1)">
       <defs>
        <path id="DejaVuSans-30" d="M 2034 4250 
Q 1547 4250 1301 3770 
Q 1056 3291 1056 2328 
Q 1056 1369 1301 889 
Q 1547 409 2034 409 
Q 2525 409 2770 889 
Q 3016 1369 3016 2328 
Q 3016 3291 2770 3770 
Q 2525 4250 2034 4250 
z
M 2034 4750 
Q 2819 4750 3233 4129 
Q 3647 3509 3647 2328 
Q 3647 1150 3233 529 
Q 2819 -91 2034 -91 
Q 1250 -91 836 529 
Q 422 1150 422 2328 
Q 422 3509 836 4129 
Q 1250 4750 2034 4750 
z
" transform="scale(0.015625)"/>
       </defs>
       <use xlink:href="#DejaVuSans-30"/>
      </g>
     </g>
    </g>
    <g id="xtick_2">
     <g id="line2d_2">
      <g>
       <use xlink:href="#m02c72b69a1" x="138.132617" y="257.158895" style="stroke: #000000; stroke-width: 0.8"/>
      </g>
     </g>
     <g id="text_2">
      <!-- 1000 -->
      <g transform="translate(125.407617 271.757332) scale(0.1 -0.1)">
       <defs>
        <path id="DejaVuSans-31" d="M 794 531 
L 1825 531 
L 1825 4091 
L 703 3866 
L 703 4441 
L 1819 4666 
L 2450 4666 
L 2450 531 
L 3481 531 
L 3481 0 
L 794 0 
L 794 531 
z
" transform="scale(0.015625)"/>
       </defs>
       <use xlink:href="#DejaVuSans-31"/>
       <use xlink:href="#DejaVuSans-30" transform="translate(63.623047 0)"/>
       <use xlink:href="#DejaVuSans-30" transform="translate(127.246094 0)"/>
       <use xlink:href="#DejaVuSans-30" transform="translate(190.869141 0)"/>
      </g>
     </g>
    </g>
    <g id="xtick_3">
     <g id="line2d_3">
      <g>
       <use xlink:href="#m02c72b69a1" x="206.737214" y="257.158895" style="stroke: #000000; stroke-width: 0.8"/>
      </g>
     </g>
     <g id="text_3">
      <!-- 2000 -->
      <g transform="translate(194.012214 271.757332) scale(0.1 -0.1)">
       <defs>
        <path id="DejaVuSans-32" d="M 1228 531 
L 3431 531 
L 3431 0 
L 469 0 
L 469 531 
Q 828 903 1448 1529 
Q 2069 2156 2228 2338 
Q 2531 2678 2651 2914 
Q 2772 3150 2772 3378 
Q 2772 3750 2511 3984 
Q 2250 4219 1831 4219 
Q 1534 4219 1204 4116 
Q 875 4013 500 3803 
L 500 4441 
Q 881 4594 1212 4672 
Q 1544 4750 1819 4750 
Q 2544 4750 2975 4387 
Q 3406 4025 3406 3419 
Q 3406 3131 3298 2873 
Q 3191 2616 2906 2266 
Q 2828 2175 2409 1742 
Q 1991 1309 1228 531 
z
" transform="scale(0.015625)"/>
       </defs>
       <use xlink:href="#DejaVuSans-32"/>
       <use xlink:href="#DejaVuSans-30" transform="translate(63.623047 0)"/>
       <use xlink:href="#DejaVuSans-30" transform="translate(127.246094 0)"/>
       <use xlink:href="#DejaVuSans-30" transform="translate(190.869141 0)"/>
      </g>
     </g>
    </g>
    <g id="xtick_4">
     <g id="line2d_4">
      <g>
       <use xlink:href="#m02c72b69a1" x="275.341811" y="257.158895" style="stroke: #000000; stroke-width: 0.8"/>
      </g>
     </g>
     <g id="text_4">
      <!-- 3000 -->
      <g transform="translate(262.616811 271.757332) scale(0.1 -0.1)">
       <defs>
        <path id="DejaVuSans-33" d="M 2597 2516 
Q 3050 2419 3304 2112 
Q 3559 1806 3559 1356 
Q 3559 666 3084 287 
Q 2609 -91 1734 -91 
Q 1441 -91 1130 -33 
Q 819 25 488 141 
L 488 750 
Q 750 597 1062 519 
Q 1375 441 1716 441 
Q 2309 441 2620 675 
Q 2931 909 2931 1356 
Q 2931 1769 2642 2001 
Q 2353 2234 1838 2234 
L 1294 2234 
L 1294 2753 
L 1863 2753 
Q 2328 2753 2575 2939 
Q 2822 3125 2822 3475 
Q 2822 3834 2567 4026 
Q 2313 4219 1838 4219 
Q 1578 4219 1281 4162 
Q 984 4106 628 3988 
L 628 4550 
Q 988 4650 1302 4700 
Q 1616 4750 1894 4750 
Q 2613 4750 3031 4423 
Q 3450 4097 3450 3541 
Q 3450 3153 3228 2886 
Q 3006 2619 2597 2516 
z
" transform="scale(0.015625)"/>
       </defs>
       <use xlink:href="#DejaVuSans-33"/>
       <use xlink:href="#DejaVuSans-30" transform="translate(63.623047 0)"/>
       <use xlink:href="#DejaVuSans-30" transform="translate(127.246094 0)"/>
       <use xlink:href="#DejaVuSans-30" transform="translate(190.869141 0)"/>
      </g>
     </g>
    </g>
    <g id="xtick_5">
     <g id="line2d_5">
      <g>
       <use xlink:href="#m02c72b69a1" x="343.946408" y="257.158895" style="stroke: #000000; stroke-width: 0.8"/>
      </g>
     </g>
     <g id="text_5">
      <!-- 4000 -->
      <g transform="translate(331.221408 271.757332) scale(0.1 -0.1)">
       <defs>
        <path id="DejaVuSans-34" d="M 2419 4116 
L 825 1625 
L 2419 1625 
L 2419 4116 
z
M 2253 4666 
L 3047 4666 
L 3047 1625 
L 3713 1625 
L 3713 1100 
L 3047 1100 
L 3047 0 
L 2419 0 
L 2419 1100 
L 313 1100 
L 313 1709 
L 2253 4666 
z
" transform="scale(0.015625)"/>
       </defs>
       <use xlink:href="#DejaVuSans-34"/>
       <use xlink:href="#DejaVuSans-30" transform="translate(63.623047 0)"/>
       <use xlink:href="#DejaVuSans-30" transform="translate(127.246094 0)"/>
       <use xlink:href="#DejaVuSans-30" transform="translate(190.869141 0)"/>
      </g>
     </g>
    </g>
    <g id="xtick_6">
     <g id="line2d_6">
      <g>
       <use xlink:href="#m02c72b69a1" x="412.551005" y="257.158895" style="stroke: #000000; stroke-width: 0.8"/>
      </g>
     </g>
     <g id="text_6">
      <!-- 5000 -->
      <g transform="translate(399.826005 271.757332) scale(0.1 -0.1)">
       <defs>
        <path id="DejaVuSans-35" d="M 691 4666 
L 3169 4666 
L 3169 4134 
L 1269 4134 
L 1269 2991 
Q 1406 3038 1543 3061 
Q 1681 3084 1819 3084 
Q 2600 3084 3056 2656 
Q 3513 2228 3513 1497 
Q 3513 744 3044 326 
Q 2575 -91 1722 -91 
Q 1428 -91 1123 -41 
Q 819 9 494 109 
L 494 744 
Q 775 591 1075 516 
Q 1375 441 1709 441 
Q 2250 441 2565 725 
Q 2881 1009 2881 1497 
Q 2881 1984 2565 2268 
Q 2250 2553 1709 2553 
Q 1456 2553 1204 2497 
Q 953 2441 691 2322 
L 691 4666 
z
" transform="scale(0.015625)"/>
       </defs>
       <use xlink:href="#DejaVuSans-35"/>
       <use xlink:href="#DejaVuSans-30" transform="translate(63.623047 0)"/>
       <use xlink:href="#DejaVuSans-30" transform="translate(127.246094 0)"/>
       <use xlink:href="#DejaVuSans-30" transform="translate(190.869141 0)"/>
      </g>
     </g>
    </g>
    <g id="text_7">
     <!-- birth_time [µs] -->
     <g transform="translate(204.193005 285.435457) scale(0.1 -0.1)">
      <defs>
       <path id="DejaVuSans-62" d="M 3116 1747 
Q 3116 2381 2855 2742 
Q 2594 3103 2138 3103 
Q 1681 3103 1420 2742 
Q 1159 2381 1159 1747 
Q 1159 1113 1420 752 
Q 1681 391 2138 391 
Q 2594 391 2855 752 
Q 3116 1113 3116 1747 
z
M 1159 2969 
Q 1341 3281 1617 3432 
Q 1894 3584 2278 3584 
Q 2916 3584 3314 3078 
Q 3713 2572 3713 1747 
Q 3713 922 3314 415 
Q 2916 -91 2278 -91 
Q 1894 -91 1617 61 
Q 1341 213 1159 525 
L 1159 0 
L 581 0 
L 581 4863 
L 1159 4863 
L 1159 2969 
z
" transform="scale(0.015625)"/>
       <path id="DejaVuSans-69" d="M 603 3500 
L 1178 3500 
L 1178 0 
L 603 0 
L 603 3500 
z
M 603 4863 
L 1178 4863 
L 1178 4134 
L 603 4134 
L 603 4863 
z
" transform="scale(0.015625)"/>
       <path id="DejaVuSans-72" d="M 2631 2963 
Q 2534 3019 2420 3045 
Q 2306 3072 2169 3072 
Q 1681 3072 1420 2755 
Q 1159 2438 1159 1844 
L 1159 0 
L 581 0 
L 581 3500 
L 1159 3500 
L 1159 2956 
Q 1341 3275 1631 3429 
Q 1922 3584 2338 3584 
Q 2397 3584 2469 3576 
Q 2541 3569 2628 3553 
L 2631 2963 
z
" transform="scale(0.015625)"/>
       <path id="DejaVuSans-74" d="M 1172 4494 
L 1172 3500 
L 2356 3500 
L 2356 3053 
L 1172 3053 
L 1172 1153 
Q 1172 725 1289 603 
Q 1406 481 1766 481 
L 2356 481 
L 2356 0 
L 1766 0 
Q 1100 0 847 248 
Q 594 497 594 1153 
L 594 3053 
L 172 3053 
L 172 3500 
L 594 3500 
L 594 4494 
L 1172 4494 
z
" transform="scale(0.015625)"/>
       <path id="DejaVuSans-68" d="M 3513 2113 
L 3513 0 
L 2938 0 
L 2938 2094 
Q 2938 2591 2744 2837 
Q 2550 3084 2163 3084 
Q 1697 3084 1428 2787 
Q 1159 2491 1159 1978 
L 1159 0 
L 581 0 
L 581 4863 
L 1159 4863 
L 1159 2956 
Q 1366 3272 1645 3428 
Q 1925 3584 2291 3584 
Q 2894 3584 3203 3211 
Q 3513 2838 3513 2113 
z
" transform="scale(0.015625)"/>
       <path id="DejaVuSans-5f" d="M 3263 -1063 
L 3263 -1509 
L -63 -1509 
L -63 -1063 
L 3263 -1063 
z
" transform="scale(0.015625)"/>
       <path id="DejaVuSans-6d" d="M 3328 2828 
Q 3544 3216 3844 3400 
Q 4144 3584 4550 3584 
Q 5097 3584 5394 3201 
Q 5691 2819 5691 2113 
L 5691 0 
L 5113 0 
L 5113 2094 
Q 5113 2597 4934 2840 
Q 4756 3084 4391 3084 
Q 3944 3084 3684 2787 
Q 3425 2491 3425 1978 
L 3425 0 
L 2847 0 
L 2847 2094 
Q 2847 2600 2669 2842 
Q 2491 3084 2119 3084 
Q 1678 3084 1418 2786 
Q 1159 2488 1159 1978 
L 1159 0 
L 581 0 
L 581 3500 
L 1159 3500 
L 1159 2956 
Q 1356 3278 1631 3431 
Q 1906 3584 2284 3584 
Q 2666 3584 2933 3390 
Q 3200 3197 3328 2828 
z
" transform="scale(0.015625)"/>
       <path id="DejaVuSans-65" d="M 3597 1894 
L 3597 1613 
L 953 1613 
Q 991 1019 1311 708 
Q 1631 397 2203 397 
Q 2534 397 2845 478 
Q 3156 559 3463 722 
L 3463 178 
Q 3153 47 2828 -22 
Q 2503 -91 2169 -91 
Q 1331 -91 842 396 
Q 353 884 353 1716 
Q 353 2575 817 3079 
Q 1281 3584 2069 3584 
Q 2775 3584 3186 3129 
Q 3597 2675 3597 1894 
z
M 3022 2063 
Q 3016 2534 2758 2815 
Q 2500 3097 2075 3097 
Q 1594 3097 1305 2825 
Q 1016 2553 972 2059 
L 3022 2063 
z
" transform="scale(0.015625)"/>
       <path id="DejaVuSans-20" transform="scale(0.015625)"/>
       <path id="DejaVuSans-5b" d="M 550 4863 
L 1875 4863 
L 1875 4416 
L 1125 4416 
L 1125 -397 
L 1875 -397 
L 1875 -844 
L 550 -844 
L 550 4863 
z
" transform="scale(0.015625)"/>
       <path id="DejaVuSans-b5" d="M 544 -1331 
L 544 3500 
L 1119 3500 
L 1119 1325 
Q 1119 872 1334 640 
Q 1550 409 1972 409 
Q 2434 409 2667 671 
Q 2900 934 2900 1459 
L 2900 3500 
L 3475 3500 
L 3475 806 
Q 3475 619 3529 530 
Q 3584 441 3700 441 
Q 3728 441 3778 458 
Q 3828 475 3916 513 
L 3916 50 
Q 3788 -22 3673 -56 
Q 3559 -91 3450 -91 
Q 3234 -91 3106 31 
Q 2978 153 2931 403 
Q 2775 156 2548 32 
Q 2322 -91 2016 -91 
Q 1697 -91 1473 31 
Q 1250 153 1119 397 
L 1119 -1331 
L 544 -1331 
z
" transform="scale(0.015625)"/>
       <path id="DejaVuSans-73" d="M 2834 3397 
L 2834 2853 
Q 2591 2978 2328 3040 
Q 2066 3103 1784 3103 
Q 1356 3103 1142 2972 
Q 928 2841 928 2578 
Q 928 2378 1081 2264 
Q 1234 2150 1697 2047 
L 1894 2003 
Q 2506 1872 2764 1633 
Q 3022 1394 3022 966 
Q 3022 478 2636 193 
Q 2250 -91 1575 -91 
Q 1294 -91 989 -36 
Q 684 19 347 128 
L 347 722 
Q 666 556 975 473 
Q 1284 391 1588 391 
Q 1994 391 2212 530 
Q 2431 669 2431 922 
Q 2431 1156 2273 1281 
Q 2116 1406 1581 1522 
L 1381 1569 
Q 847 1681 609 1914 
Q 372 2147 372 2553 
Q 372 3047 722 3315 
Q 1072 3584 1716 3584 
Q 2034 3584 2315 3537 
Q 2597 3491 2834 3397 
z
" transform="scale(0.015625)"/>
       <path id="DejaVuSans-5d" d="M 1947 4863 
L 1947 -844 
L 622 -844 
L 622 -397 
L 1369 -397 
L 1369 4416 
L 622 4416 
L 622 4863 
L 1947 4863 
z
" transform="scale(0.015625)"/>
      </defs>
      <use xlink:href="#DejaVuSans-62"/>
      <use xlink:href="#DejaVuSans-69" transform="translate(63.476562 0)"/>
      <use xlink:href="#DejaVuSans-72" transform="translate(91.259766 0)"/>
      <use xlink:href="#DejaVuSans-74" transform="translate(132.373047 0)"/>
      <use xlink:href="#DejaVuSans-68" transform="translate(171.582031 0)"/>
      <use xlink:href="#DejaVuSans-5f" transform="translate(234.960938 0)"/>
      <use xlink:href="#DejaVuSans-74" transform="translate(284.960938 0)"/>
      <use xlink:href="#DejaVuSans-69" transform="translate(324.169922 0)"/>
      <use xlink:href="#DejaVuSans-6d" transform="translate(351.953125 0)"/>
      <use xlink:href="#DejaVuSans-65" transform="translate(449.365234 0)"/>
      <use xlink:href="#DejaVuSans-20" transform="translate(510.888672 0)"/>
      <use xlink:href="#DejaVuSans-5b" transform="translate(542.675781 0)"/>
      <use xlink:href="#DejaVuSans-b5" transform="translate(581.689453 0)"/>
      <use xlink:href="#DejaVuSans-73" transform="translate(645.3125 0)"/>
      <use xlink:href="#DejaVuSans-5d" transform="translate(697.412109 0)"/>
     </g>
    </g>
   </g>
   <g id="matplotlib.axis_2">
    <g id="ytick_1">
     <g id="line2d_7">
      <defs>
       <path id="mfc201a386b" d="M 0 0 
L -3.5 0 
" style="stroke: #000000; stroke-width: 0.8"/>
      </defs>
      <g>
       <use xlink:href="#mfc201a386b" x="53.328125" y="245.987665" style="stroke: #000000; stroke-width: 0.8"/>
      </g>
     </g>
     <g id="text_8">
      <!-- 0 -->
      <g transform="translate(39.965625 249.786884) scale(0.1 -0.1)">
       <use xlink:href="#DejaVuSans-30"/>
      </g>
     </g>
    </g>
    <g id="ytick_2">
     <g id="line2d_8">
      <g>
       <use xlink:href="#mfc201a386b" x="53.328125" y="207.880108" style="stroke: #000000; stroke-width: 0.8"/>
      </g>
     </g>
     <g id="text_9">
      <!-- 1000 -->
      <g transform="translate(20.878125 211.679327) scale(0.1 -0.1)">
       <use xlink:href="#DejaVuSans-31"/>
       <use xlink:href="#DejaVuSans-30" transform="translate(63.623047 0)"/>
       <use xlink:href="#DejaVuSans-30" transform="translate(127.246094 0)"/>
       <use xlink:href="#DejaVuSans-30" transform="translate(190.869141 0)"/>
      </g>
     </g>
    </g>
    <g id="ytick_3">
     <g id="line2d_9">
      <g>
       <use xlink:href="#mfc201a386b" x="53.328125" y="169.772552" style="stroke: #000000; stroke-width: 0.8"/>
      </g>
     </g>
     <g id="text_10">
      <!-- 2000 -->
      <g transform="translate(20.878125 173.571771) scale(0.1 -0.1)">
       <use xlink:href="#DejaVuSans-32"/>
       <use xlink:href="#DejaVuSans-30" transform="translate(63.623047 0)"/>
       <use xlink:href="#DejaVuSans-30" transform="translate(127.246094 0)"/>
       <use xlink:href="#DejaVuSans-30" transform="translate(190.869141 0)"/>
      </g>
     </g>
    </g>
    <g id="ytick_4">
     <g id="line2d_10">
      <g>
       <use xlink:href="#mfc201a386b" x="53.328125" y="131.664995" style="stroke: #000000; stroke-width: 0.8"/>
      </g>
     </g>
     <g id="text_11">
      <!-- 3000 -->
      <g transform="translate(20.878125 135.464214) scale(0.1 -0.1)">
       <use xlink:href="#DejaVuSans-33"/>
       <use xlink:href="#DejaVuSans-30" transform="translate(63.623047 0)"/>
       <use xlink:href="#DejaVuSans-30" transform="translate(127.246094 0)"/>
       <use xlink:href="#DejaVuSans-30" transform="translate(190.869141 0)"/>
      </g>
     </g>
    </g>
    <g id="ytick_5">
     <g id="line2d_11">
      <g>
       <use xlink:href="#mfc201a386b" x="53.328125" y="93.557439" style="stroke: #000000; stroke-width: 0.8"/>
      </g>
     </g>
     <g id="text_12">
      <!-- 4000 -->
      <g transform="translate(20.878125 97.356658) scale(0.1 -0.1)">
       <use xlink:href="#DejaVuSans-34"/>
       <use xlink:href="#DejaVuSans-30" transform="translate(63.623047 0)"/>
       <use xlink:href="#DejaVuSans-30" transform="translate(127.246094 0)"/>
       <use xlink:href="#DejaVuSans-30" transform="translate(190.869141 0)"/>
      </g>
     </g>
    </g>
    <g id="ytick_6">
     <g id="line2d_12">
      <g>
       <use xlink:href="#mfc201a386b" x="53.328125" y="55.449883" style="stroke: #000000; stroke-width: 0.8"/>
      </g>
     </g>
     <g id="text_13">
      <!-- 5000 -->
      <g transform="translate(20.878125 59.249101) scale(0.1 -0.1)">
       <use xlink:href="#DejaVuSans-35"/>
       <use xlink:href="#DejaVuSans-30" transform="translate(63.623047 0)"/>
       <use xlink:href="#DejaVuSans-30" transform="translate(127.246094 0)"/>
       <use xlink:href="#DejaVuSans-30" transform="translate(190.869141 0)"/>
      </g>
     </g>
    </g>
    <g id="ytick_7">
     <g id="line2d_13">
      <g>
       <use xlink:href="#mfc201a386b" x="53.328125" y="17.342326" style="stroke: #000000; stroke-width: 0.8"/>
      </g>
     </g>
     <g id="text_14">
      <!-- 6000 -->
      <g transform="translate(20.878125 21.141545) scale(0.1 -0.1)">
       <defs>
        <path id="DejaVuSans-36" d="M 2113 2584 
Q 1688 2584 1439 2293 
Q 1191 2003 1191 1497 
Q 1191 994 1439 701 
Q 1688 409 2113 409 
Q 2538 409 2786 701 
Q 3034 994 3034 1497 
Q 3034 2003 2786 2293 
Q 2538 2584 2113 2584 
z
M 3366 4563 
L 3366 3988 
Q 3128 4100 2886 4159 
Q 2644 4219 2406 4219 
Q 1781 4219 1451 3797 
Q 1122 3375 1075 2522 
Q 1259 2794 1537 2939 
Q 1816 3084 2150 3084 
Q 2853 3084 3261 2657 
Q 3669 2231 3669 1497 
Q 3669 778 3244 343 
Q 2819 -91 2113 -91 
Q 1303 -91 875 529 
Q 447 1150 447 2328 
Q 447 3434 972 4092 
Q 1497 4750 2381 4750 
Q 2619 4750 2861 4703 
Q 3103 4656 3366 4563 
z
" transform="scale(0.015625)"/>
       </defs>
       <use xlink:href="#DejaVuSans-36"/>
       <use xlink:href="#DejaVuSans-30" transform="translate(63.623047 0)"/>
       <use xlink:href="#DejaVuSans-30" transform="translate(127.246094 0)"/>
       <use xlink:href="#DejaVuSans-30" transform="translate(190.869141 0)"/>
      </g>
     </g>
    </g>
    <g id="text_15">
     <!-- pulse:0 [counts] -->
     <g transform="translate(14.798438 172.659916) rotate(-90) scale(0.1 -0.1)">
      <defs>
       <path id="DejaVuSans-70" d="M 1159 525 
L 1159 -1331 
L 581 -1331 
L 581 3500 
L 1159 3500 
L 1159 2969 
Q 1341 3281 1617 3432 
Q 1894 3584 2278 3584 
Q 2916 3584 3314 3078 
Q 3713 2572 3713 1747 
Q 3713 922 3314 415 
Q 2916 -91 2278 -91 
Q 1894 -91 1617 61 
Q 1341 213 1159 525 
z
M 3116 1747 
Q 3116 2381 2855 2742 
Q 2594 3103 2138 3103 
Q 1681 3103 1420 2742 
Q 1159 2381 1159 1747 
Q 1159 1113 1420 752 
Q 1681 391 2138 391 
Q 2594 391 2855 752 
Q 3116 1113 3116 1747 
z
" transform="scale(0.015625)"/>
       <path id="DejaVuSans-75" d="M 544 1381 
L 544 3500 
L 1119 3500 
L 1119 1403 
Q 1119 906 1312 657 
Q 1506 409 1894 409 
Q 2359 409 2629 706 
Q 2900 1003 2900 1516 
L 2900 3500 
L 3475 3500 
L 3475 0 
L 2900 0 
L 2900 538 
Q 2691 219 2414 64 
Q 2138 -91 1772 -91 
Q 1169 -91 856 284 
Q 544 659 544 1381 
z
M 1991 3584 
L 1991 3584 
z
" transform="scale(0.015625)"/>
       <path id="DejaVuSans-6c" d="M 603 4863 
L 1178 4863 
L 1178 0 
L 603 0 
L 603 4863 
z
" transform="scale(0.015625)"/>
       <path id="DejaVuSans-3a" d="M 750 794 
L 1409 794 
L 1409 0 
L 750 0 
L 750 794 
z
M 750 3309 
L 1409 3309 
L 1409 2516 
L 750 2516 
L 750 3309 
z
" transform="scale(0.015625)"/>
       <path id="DejaVuSans-63" d="M 3122 3366 
L 3122 2828 
Q 2878 2963 2633 3030 
Q 2388 3097 2138 3097 
Q 1578 3097 1268 2742 
Q 959 2388 959 1747 
Q 959 1106 1268 751 
Q 1578 397 2138 397 
Q 2388 397 2633 464 
Q 2878 531 3122 666 
L 3122 134 
Q 2881 22 2623 -34 
Q 2366 -91 2075 -91 
Q 1284 -91 818 406 
Q 353 903 353 1747 
Q 353 2603 823 3093 
Q 1294 3584 2113 3584 
Q 2378 3584 2631 3529 
Q 2884 3475 3122 3366 
z
" transform="scale(0.015625)"/>
       <path id="DejaVuSans-6f" d="M 1959 3097 
Q 1497 3097 1228 2736 
Q 959 2375 959 1747 
Q 959 1119 1226 758 
Q 1494 397 1959 397 
Q 2419 397 2687 759 
Q 2956 1122 2956 1747 
Q 2956 2369 2687 2733 
Q 2419 3097 1959 3097 
z
M 1959 3584 
Q 2709 3584 3137 3096 
Q 3566 2609 3566 1747 
Q 3566 888 3137 398 
Q 2709 -91 1959 -91 
Q 1206 -91 779 398 
Q 353 888 353 1747 
Q 353 2609 779 3096 
Q 1206 3584 1959 3584 
z
" transform="scale(0.015625)"/>
       <path id="DejaVuSans-6e" d="M 3513 2113 
L 3513 0 
L 2938 0 
L 2938 2094 
Q 2938 2591 2744 2837 
Q 2550 3084 2163 3084 
Q 1697 3084 1428 2787 
Q 1159 2491 1159 1978 
L 1159 0 
L 581 0 
L 581 3500 
L 1159 3500 
L 1159 2956 
Q 1366 3272 1645 3428 
Q 1925 3584 2291 3584 
Q 2894 3584 3203 3211 
Q 3513 2838 3513 2113 
z
" transform="scale(0.015625)"/>
      </defs>
      <use xlink:href="#DejaVuSans-70"/>
      <use xlink:href="#DejaVuSans-75" transform="translate(63.476562 0)"/>
      <use xlink:href="#DejaVuSans-6c" transform="translate(126.855469 0)"/>
      <use xlink:href="#DejaVuSans-73" transform="translate(154.638672 0)"/>
      <use xlink:href="#DejaVuSans-65" transform="translate(206.738281 0)"/>
      <use xlink:href="#DejaVuSans-3a" transform="translate(268.261719 0)"/>
      <use xlink:href="#DejaVuSans-30" transform="translate(301.953125 0)"/>
      <use xlink:href="#DejaVuSans-20" transform="translate(365.576172 0)"/>
      <use xlink:href="#DejaVuSans-5b" transform="translate(397.363281 0)"/>
      <use xlink:href="#DejaVuSans-63" transform="translate(436.376953 0)"/>
      <use xlink:href="#DejaVuSans-6f" transform="translate(491.357422 0)"/>
      <use xlink:href="#DejaVuSans-75" transform="translate(552.539062 0)"/>
      <use xlink:href="#DejaVuSans-6e" transform="translate(615.917969 0)"/>
      <use xlink:href="#DejaVuSans-74" transform="translate(679.296875 0)"/>
      <use xlink:href="#DejaVuSans-73" transform="translate(718.505859 0)"/>
      <use xlink:href="#DejaVuSans-5d" transform="translate(770.605469 0)"/>
     </g>
    </g>
   </g>
   <g id="line2d_14">
    <path d="M 70.390415 234.136215 
L 71.527901 234.136215 
L 71.527901 226.743349 
L 72.665387 226.743349 
L 72.665387 218.588332 
L 73.802873 218.588332 
L 73.802873 212.414908 
L 74.940359 212.414908 
L 74.940359 199.572661 
L 76.077845 199.572661 
L 76.077845 191.874935 
L 77.215331 191.874935 
L 77.215331 182.27183 
L 78.352817 182.27183 
L 78.352817 172.630619 
L 79.490303 172.630619 
L 79.490303 166.723947 
L 80.627789 166.723947 
L 80.627789 155.863294 
L 81.765275 155.863294 
L 81.765275 149.423117 
L 82.902761 149.423117 
L 82.902761 143.554553 
L 84.040247 143.554553 
L 84.040247 138.867324 
L 85.177733 138.867324 
L 85.177733 133.608481 
L 86.315219 133.608481 
L 86.315219 123.662409 
L 87.452705 123.662409 
L 87.452705 119.241932 
L 88.590191 119.241932 
L 88.590191 114.669025 
L 89.727677 114.669025 
L 89.727677 112.801755 
L 90.865163 112.801755 
L 90.865163 102.58893 
L 92.00265 102.58893 
L 92.00265 104.418093 
L 93.140136 104.418093 
L 93.140136 94.052837 
L 94.277622 94.052837 
L 94.277622 92.909611 
L 95.415108 92.909611 
L 95.415108 90.394512 
L 96.552594 90.394512 
L 96.552594 86.545649 
L 97.69008 86.545649 
L 97.69008 78.809815 
L 98.827566 78.809815 
L 98.827566 82.46814 
L 99.965052 82.46814 
L 99.965052 77.209297 
L 101.102538 77.209297 
L 101.102538 72.979359 
L 102.240024 72.979359 
L 102.240024 69.321033 
L 103.37751 69.321033 
L 103.37751 65.853246 
L 105.652482 65.77703 
L 105.652482 64.671911 
L 106.789968 64.671911 
L 106.789968 62.156813 
L 107.927454 62.156813 
L 107.927454 59.489284 
L 109.06494 59.489284 
L 109.06494 59.146316 
L 110.202426 59.146316 
L 110.202426 55.297452 
L 111.339912 55.297452 
L 111.339912 49.047813 
L 112.477398 49.047813 
L 112.477398 52.286955 
L 113.614884 52.286955 
L 113.614884 53.62072 
L 114.75237 53.62072 
L 114.75237 51.448589 
L 115.889856 51.448589 
L 115.889856 46.380284 
L 117.027342 46.380284 
L 117.027342 48.552415 
L 118.164828 48.552415 
L 118.164828 45.50381 
L 119.302314 45.50381 
L 119.302314 48.590522 
L 120.4398 48.590522 
L 120.4398 41.426302 
L 121.577286 41.426302 
L 121.577286 41.045226 
L 122.714772 41.045226 
L 122.714772 42.721959 
L 123.852258 42.721959 
L 123.852258 43.598433 
L 124.989744 43.598433 
L 124.989744 39.444709 
L 126.12723 39.444709 
L 126.12723 39.635247 
L 127.264716 39.635247 
L 127.264716 40.435505 
L 128.402202 40.435505 
L 128.402202 34.262081 
L 129.539688 34.262081 
L 129.539688 38.720665 
L 130.677174 38.720665 
L 130.677174 39.177956 
L 131.81466 39.177956 
L 131.81466 33.65236 
L 132.952146 33.65236 
L 132.952146 36.586642 
L 134.089632 36.586642 
L 134.089632 35.938814 
L 135.227118 35.938814 
L 135.227118 32.08995 
L 137.50209 32.166166 
L 137.50209 34.795587 
L 138.639576 34.795587 
L 138.639576 32.280488 
L 139.777062 32.280488 
L 139.777062 29.498637 
L 140.914548 29.498637 
L 140.914548 31.975628 
L 142.052034 31.975628 
L 142.052034 28.66027 
L 143.18952 28.66027 
L 143.18952 34.109651 
L 144.327006 34.109651 
L 144.327006 31.746982 
L 145.464492 31.746982 
L 145.464492 32.013735 
L 146.601978 32.013735 
L 146.601978 28.088657 
L 147.739464 28.088657 
L 147.739464 30.22268 
L 148.87695 30.22268 
L 148.87695 30.870509 
L 150.014436 30.870509 
L 150.014436 31.137262 
L 151.151922 31.137262 
L 151.151922 29.079454 
L 152.289408 29.079454 
L 152.289408 29.498637 
L 153.426894 29.498637 
L 153.426894 30.337003 
L 154.56438 30.337003 
L 154.56438 33.538038 
L 155.701866 33.538038 
L 155.701866 29.460529 
L 156.839352 29.460529 
L 156.839352 28.584055 
L 157.976838 28.584055 
L 157.976838 30.337003 
L 159.114324 30.337003 
L 159.114324 34.948017 
L 160.25181 34.948017 
L 160.25181 24.277901 
L 161.389296 24.277901 
L 161.389296 25.687881 
L 162.526782 25.687881 
L 162.526782 28.622163 
L 163.664268 28.622163 
L 163.664268 21.686588 
L 164.801754 21.686588 
L 164.801754 29.460529 
L 165.93924 29.460529 
L 165.93924 29.117561 
L 167.076727 29.117561 
L 167.076727 25.154375 
L 168.214213 25.154375 
L 168.214213 26.94543 
L 169.351699 26.94543 
L 169.351699 24.277901 
L 170.489185 24.277901 
L 170.489185 27.135968 
L 171.626671 27.135968 
L 171.626671 28.888916 
L 172.764157 28.888916 
L 172.764157 28.20298 
L 173.901643 28.20298 
L 173.901643 22.410631 
L 175.039129 22.410631 
L 175.039129 30.794294 
L 176.176615 30.794294 
L 176.176615 23.248997 
L 177.314101 23.248997 
L 177.314101 27.783797 
L 178.451587 27.783797 
L 178.451587 24.544654 
L 179.589073 24.544654 
L 179.589073 30.908616 
L 180.726559 30.908616 
L 180.726559 27.936227 
L 181.864045 27.936227 
L 181.864045 28.698378 
L 183.001531 28.698378 
L 183.001531 24.468439 
L 184.139017 24.468439 
L 184.139017 23.325213 
L 185.276503 23.325213 
L 185.276503 23.477643 
L 186.413989 23.477643 
L 186.413989 28.279195 
L 187.551475 28.279195 
L 187.551475 21.153082 
L 188.688961 21.153082 
L 188.688961 23.706288 
L 189.826447 23.706288 
L 189.826447 25.725989 
L 190.963933 25.725989 
L 190.963933 26.564355 
L 192.101419 26.564355 
L 192.101419 32.08995 
L 193.238905 32.08995 
L 193.238905 26.107064 
L 194.376391 26.107064 
L 194.376391 25.001945 
L 195.513877 25.001945 
L 195.513877 27.936227 
L 196.651363 27.936227 
L 196.651363 24.049256 
L 197.788849 24.049256 
L 197.788849 26.754893 
L 198.926335 26.754893 
L 198.926335 21.572265 
L 200.063821 21.572265 
L 200.063821 28.012442 
L 201.201307 28.012442 
L 201.201307 24.582762 
L 202.338793 24.582762 
L 202.338793 23.477643 
L 203.476279 23.477643 
L 203.476279 30.298895 
L 204.613765 30.298895 
L 204.613765 30.527541 
L 205.751251 30.527541 
L 205.751251 22.448739 
L 206.888737 22.448739 
L 206.888737 31.327799 
L 208.026223 31.327799 
L 208.026223 28.622163 
L 209.163709 28.622163 
L 209.163709 22.601169 
L 210.301195 22.601169 
L 210.301195 26.716785 
L 211.438681 26.716785 
L 211.438681 27.059753 
L 212.576167 27.059753 
L 212.576167 23.630073 
L 213.713653 23.630073 
L 213.713653 29.689174 
L 214.851139 29.689174 
L 214.851139 25.764096 
L 217.126111 25.764096 
L 217.126111 22.296308 
L 218.263597 22.296308 
L 218.263597 24.125471 
L 219.401083 24.125471 
L 219.401083 30.260788 
L 220.538569 30.260788 
L 220.538569 31.213477 
L 221.676055 31.213477 
L 221.676055 23.668181 
L 222.813541 23.668181 
L 222.813541 19.78121 
L 223.951027 19.78121 
L 223.951027 24.049256 
L 225.088513 24.049256 
L 225.088513 23.477643 
L 226.225999 23.477643 
L 226.225999 23.134675 
L 227.363485 23.134675 
L 227.363485 23.630073 
L 228.500971 23.630073 
L 228.500971 28.736486 
L 229.638457 28.736486 
L 229.638457 24.811407 
L 230.775943 24.811407 
L 230.775943 27.936227 
L 231.913429 27.936227 
L 231.913429 25.802204 
L 233.050915 25.802204 
L 233.050915 21.229297 
L 234.188401 21.229297 
L 234.188401 30.146465 
L 235.325887 30.146465 
L 235.325887 23.896826 
L 236.463373 23.896826 
L 236.463373 26.754893 
L 237.600859 26.754893 
L 237.600859 24.239794 
L 238.738345 24.239794 
L 238.738345 21.915233 
L 239.875831 21.915233 
L 239.875831 24.506547 
L 241.013317 24.506547 
L 241.013317 24.697085 
L 242.150804 24.697085 
L 242.150804 24.239794 
L 243.28829 24.239794 
L 243.28829 27.517044 
L 244.425776 27.517044 
L 244.425776 23.896826 
L 245.563262 23.896826 
L 245.563262 25.725989 
L 246.700748 25.725989 
L 246.700748 22.372524 
L 247.838234 22.372524 
L 247.838234 18.561768 
L 248.97572 18.561768 
L 248.97572 22.639276 
L 250.113206 22.639276 
L 250.113206 25.725989 
L 251.250692 25.725989 
L 251.250692 30.832401 
L 252.388178 30.832401 
L 252.388178 26.335709 
L 253.525664 26.335709 
L 253.525664 23.630073 
L 254.66315 23.630073 
L 254.66315 23.477643 
L 255.800636 23.477643 
L 255.800636 28.35541 
L 256.938122 28.35541 
L 256.938122 22.181986 
L 258.075608 22.181986 
L 258.075608 25.649773 
L 259.213094 25.649773 
L 259.213094 21.305512 
L 260.35058 21.305512 
L 260.35058 26.678677 
L 261.488066 26.678677 
L 261.488066 19.552564 
L 262.625552 19.552564 
L 262.625552 29.117561 
L 263.763038 29.117561 
L 263.763038 22.677384 
L 264.900524 22.677384 
L 264.900524 25.268698 
L 266.03801 25.268698 
L 266.03801 33.042639 
L 267.175496 33.042639 
L 267.175496 42.721959 
L 268.312982 42.721959 
L 268.312982 49.124028 
L 269.450468 49.124028 
L 269.450468 56.859862 
L 270.587954 56.859862 
L 270.587954 65.853246 
L 271.72544 65.853246 
L 271.72544 78.009556 
L 272.862926 78.009556 
L 272.862926 86.926724 
L 274.000412 86.926724 
L 274.000412 90.203974 
L 275.137898 90.203974 
L 275.137898 101.369488 
L 276.275384 101.369488 
L 276.275384 109.60072 
L 277.41287 109.60072 
L 277.41287 117.71763 
L 278.550356 117.71763 
L 278.550356 123.891054 
L 279.687842 123.891054 
L 279.687842 128.730714 
L 280.825328 128.730714 
L 280.825328 136.885731 
L 281.962814 136.885731 
L 281.962814 143.173478 
L 283.1003 143.173478 
L 283.1003 149.270687 
L 284.237786 149.270687 
L 284.237786 152.433614 
L 285.375272 152.433614 
L 285.375272 161.274567 
L 286.512758 161.274567 
L 286.512758 162.798869 
L 287.650244 162.798869 
L 287.650244 168.24825 
L 288.78773 168.24825 
L 288.78773 174.307351 
L 289.925216 174.307351 
L 289.925216 176.784342 
L 291.062702 176.784342 
L 291.062702 180.595098 
L 292.200188 180.595098 
L 292.200188 185.168005 
L 293.337674 185.168005 
L 293.337674 183.262627 
L 294.47516 183.262627 
L 294.47516 189.359836 
L 295.612646 189.359836 
L 295.612646 193.780312 
L 296.750132 193.780312 
L 296.750132 195.952443 
L 297.887618 195.952443 
L 297.887618 197.438638 
L 299.025104 197.438638 
L 299.025104 202.202082 
L 300.16259 202.202082 
L 300.16259 203.154771 
L 301.300076 203.154771 
L 301.300076 206.317699 
L 302.437562 206.317699 
L 302.437562 206.851204 
L 303.575048 206.851204 
L 303.575048 210.318992 
L 304.712534 210.318992 
L 304.712534 212.262477 
L 305.85002 212.262477 
L 305.85002 213.710565 
L 306.987506 213.710565 
L 306.987506 214.587038 
L 308.124992 214.587038 
L 308.124992 217.711858 
L 309.262478 217.711858 
L 309.262478 218.664547 
L 310.399964 218.664547 
L 310.399964 220.455602 
L 311.53745 220.455602 
L 311.53745 221.598829 
L 312.674936 221.598829 
L 312.674936 222.818271 
L 313.812422 222.818271 
L 313.812422 223.656637 
L 314.949908 223.656637 
L 314.949908 225.752552 
L 316.087394 225.752552 
L 316.087394 226.019305 
L 318.362367 226.019305 
L 318.362367 227.886576 
L 319.499853 227.886576 
L 319.499853 228.610619 
L 320.637339 228.610619 
L 320.637339 228.801157 
L 321.774825 228.801157 
L 321.774825 230.858965 
L 322.912311 230.858965 
L 322.912311 231.583008 
L 324.049797 231.583008 
L 324.049797 232.307052 
L 325.187283 232.307052 
L 325.187283 233.412171 
L 326.324769 233.412171 
L 326.324769 234.098107 
L 328.599741 234.098107 
L 328.599741 235.546194 
L 330.874713 235.546194 
L 330.874713 236.575098 
L 333.149685 236.536991 
L 333.149685 237.604002 
L 336.562143 237.680218 
L 336.562143 238.747229 
L 337.699629 238.747229 
L 337.699629 239.090197 
L 339.974601 239.013982 
L 339.974601 240.271531 
L 341.112087 240.271531 
L 341.112087 239.966671 
L 342.249573 239.966671 
L 342.249573 240.843145 
L 344.524545 240.91936 
L 344.524545 240.690714 
L 345.662031 240.690714 
L 345.662031 241.338543 
L 346.799517 241.338543 
L 346.799517 241.452866 
L 347.937003 241.452866 
L 347.937003 240.881252 
L 349.074489 240.881252 
L 349.074489 241.300435 
L 350.211975 241.300435 
L 350.211975 241.567188 
L 351.349461 241.567188 
L 351.349461 242.519877 
L 352.486947 242.519877 
L 352.486947 242.405555 
L 353.624433 242.405555 
L 353.624433 242.596092 
L 354.761919 242.596092 
L 354.761919 242.824738 
L 357.036891 242.748523 
L 357.036891 242.672307 
L 358.174377 242.672307 
L 358.174377 243.053383 
L 359.311863 243.053383 
L 359.311863 243.243921 
L 360.449349 243.243921 
L 360.449349 243.548781 
L 361.586835 243.548781 
L 361.586835 242.977168 
L 362.724321 242.977168 
L 362.724321 243.510674 
L 364.999293 243.586889 
L 364.999293 244.19661 
L 367.274265 244.19661 
L 367.274265 244.310932 
L 368.411751 244.310932 
L 368.411751 244.425255 
L 369.549237 244.425255 
L 369.549237 244.730115 
L 370.686723 244.730115 
L 370.686723 244.044179 
L 371.824209 244.044179 
L 371.824209 244.34904 
L 372.961695 244.34904 
L 372.961695 244.615793 
L 375.236667 244.615793 
L 375.236667 244.425255 
L 376.374153 244.425255 
L 376.374153 244.730115 
L 377.511639 244.730115 
L 377.511639 244.958761 
L 378.649125 244.958761 
L 378.649125 245.111191 
L 379.786611 245.111191 
L 379.786611 244.882546 
L 383.199069 244.958761 
L 383.199069 245.073083 
L 384.336555 245.073083 
L 384.336555 245.187406 
L 386.611527 245.149299 
L 386.611527 245.301729 
L 387.749013 245.301729 
L 387.749013 245.454159 
L 388.886499 245.454159 
L 388.886499 245.149299 
L 390.023985 245.149299 
L 390.023985 245.454159 
L 391.161471 245.454159 
L 391.161471 245.568482 
L 392.298958 245.568482 
L 392.298958 245.149299 
L 393.436444 245.149299 
L 393.436444 245.568482 
L 395.711416 245.606589 
L 395.711416 245.454159 
L 396.848902 245.454159 
L 396.848902 245.568482 
L 397.986388 245.568482 
L 397.986388 245.454159 
L 401.398846 245.530374 
L 401.398846 245.568482 
L 403.673818 245.568482 
L 403.673818 245.682804 
L 408.223762 245.606589 
L 408.223762 245.797127 
L 409.361248 245.797127 
L 409.361248 245.644697 
L 411.63622 245.682804 
L 411.63622 245.682804 
" clip-path="url(#p35f5794a80)" style="fill: none; stroke: #1f77b4; stroke-width: 1.5; stroke-linecap: square"/>
   </g>
   <g id="patch_3">
    <path d="M 53.328125 257.158895 
L 53.328125 7.2 
" style="fill: none; stroke: #000000; stroke-width: 0.8; stroke-linejoin: miter; stroke-linecap: square"/>
   </g>
   <g id="patch_4">
    <path d="M 428.69851 257.158895 
L 428.69851 7.2 
" style="fill: none; stroke: #000000; stroke-width: 0.8; stroke-linejoin: miter; stroke-linecap: square"/>
   </g>
   <g id="patch_5">
    <path d="M 53.328125 257.158895 
L 428.69851 257.158895 
" style="fill: none; stroke: #000000; stroke-width: 0.8; stroke-linejoin: miter; stroke-linecap: square"/>
   </g>
   <g id="patch_6">
    <path d="M 53.328125 7.2 
L 428.69851 7.2 
" style="fill: none; stroke: #000000; stroke-width: 0.8; stroke-linejoin: miter; stroke-linecap: square"/>
   </g>
  </g>
  <g id="axes_2">
   <g id="patch_7">
    <path d="M 489.829135 257.158895 
L 865.19952 257.158895 
L 865.19952 7.2 
L 489.829135 7.2 
z
" style="fill: #ffffff"/>
   </g>
   <g id="matplotlib.axis_3">
    <g id="xtick_7">
     <g id="line2d_15">
      <g>
       <use xlink:href="#m02c72b69a1" x="503.452742" y="257.158895" style="stroke: #000000; stroke-width: 0.8"/>
      </g>
     </g>
     <g id="text_16">
      <!-- 0.0 -->
      <g transform="translate(495.501179 271.757332) scale(0.1 -0.1)">
       <defs>
        <path id="DejaVuSans-2e" d="M 684 794 
L 1344 794 
L 1344 0 
L 684 0 
L 684 794 
z
" transform="scale(0.015625)"/>
       </defs>
       <use xlink:href="#DejaVuSans-30"/>
       <use xlink:href="#DejaVuSans-2e" transform="translate(63.623047 0)"/>
       <use xlink:href="#DejaVuSans-30" transform="translate(95.410156 0)"/>
      </g>
     </g>
    </g>
    <g id="xtick_8">
     <g id="line2d_16">
      <g>
       <use xlink:href="#m02c72b69a1" x="546.756708" y="257.158895" style="stroke: #000000; stroke-width: 0.8"/>
      </g>
     </g>
     <g id="text_17">
      <!-- 2.5 -->
      <g transform="translate(538.805145 271.757332) scale(0.1 -0.1)">
       <use xlink:href="#DejaVuSans-32"/>
       <use xlink:href="#DejaVuSans-2e" transform="translate(63.623047 0)"/>
       <use xlink:href="#DejaVuSans-35" transform="translate(95.410156 0)"/>
      </g>
     </g>
    </g>
    <g id="xtick_9">
     <g id="line2d_17">
      <g>
       <use xlink:href="#m02c72b69a1" x="590.060674" y="257.158895" style="stroke: #000000; stroke-width: 0.8"/>
      </g>
     </g>
     <g id="text_18">
      <!-- 5.0 -->
      <g transform="translate(582.109112 271.757332) scale(0.1 -0.1)">
       <use xlink:href="#DejaVuSans-35"/>
       <use xlink:href="#DejaVuSans-2e" transform="translate(63.623047 0)"/>
       <use xlink:href="#DejaVuSans-30" transform="translate(95.410156 0)"/>
      </g>
     </g>
    </g>
    <g id="xtick_10">
     <g id="line2d_18">
      <g>
       <use xlink:href="#m02c72b69a1" x="633.364641" y="257.158895" style="stroke: #000000; stroke-width: 0.8"/>
      </g>
     </g>
     <g id="text_19">
      <!-- 7.5 -->
      <g transform="translate(625.413078 271.757332) scale(0.1 -0.1)">
       <defs>
        <path id="DejaVuSans-37" d="M 525 4666 
L 3525 4666 
L 3525 4397 
L 1831 0 
L 1172 0 
L 2766 4134 
L 525 4134 
L 525 4666 
z
" transform="scale(0.015625)"/>
       </defs>
       <use xlink:href="#DejaVuSans-37"/>
       <use xlink:href="#DejaVuSans-2e" transform="translate(63.623047 0)"/>
       <use xlink:href="#DejaVuSans-35" transform="translate(95.410156 0)"/>
      </g>
     </g>
    </g>
    <g id="xtick_11">
     <g id="line2d_19">
      <g>
       <use xlink:href="#m02c72b69a1" x="676.668607" y="257.158895" style="stroke: #000000; stroke-width: 0.8"/>
      </g>
     </g>
     <g id="text_20">
      <!-- 10.0 -->
      <g transform="translate(665.535794 271.757332) scale(0.1 -0.1)">
       <use xlink:href="#DejaVuSans-31"/>
       <use xlink:href="#DejaVuSans-30" transform="translate(63.623047 0)"/>
       <use xlink:href="#DejaVuSans-2e" transform="translate(127.246094 0)"/>
       <use xlink:href="#DejaVuSans-30" transform="translate(159.033203 0)"/>
      </g>
     </g>
    </g>
    <g id="xtick_12">
     <g id="line2d_20">
      <g>
       <use xlink:href="#m02c72b69a1" x="719.972573" y="257.158895" style="stroke: #000000; stroke-width: 0.8"/>
      </g>
     </g>
     <g id="text_21">
      <!-- 12.5 -->
      <g transform="translate(708.839761 271.757332) scale(0.1 -0.1)">
       <use xlink:href="#DejaVuSans-31"/>
       <use xlink:href="#DejaVuSans-32" transform="translate(63.623047 0)"/>
       <use xlink:href="#DejaVuSans-2e" transform="translate(127.246094 0)"/>
       <use xlink:href="#DejaVuSans-35" transform="translate(159.033203 0)"/>
      </g>
     </g>
    </g>
    <g id="xtick_13">
     <g id="line2d_21">
      <g>
       <use xlink:href="#m02c72b69a1" x="763.276539" y="257.158895" style="stroke: #000000; stroke-width: 0.8"/>
      </g>
     </g>
     <g id="text_22">
      <!-- 15.0 -->
      <g transform="translate(752.143727 271.757332) scale(0.1 -0.1)">
       <use xlink:href="#DejaVuSans-31"/>
       <use xlink:href="#DejaVuSans-35" transform="translate(63.623047 0)"/>
       <use xlink:href="#DejaVuSans-2e" transform="translate(127.246094 0)"/>
       <use xlink:href="#DejaVuSans-30" transform="translate(159.033203 0)"/>
      </g>
     </g>
    </g>
    <g id="xtick_14">
     <g id="line2d_22">
      <g>
       <use xlink:href="#m02c72b69a1" x="806.580506" y="257.158895" style="stroke: #000000; stroke-width: 0.8"/>
      </g>
     </g>
     <g id="text_23">
      <!-- 17.5 -->
      <g transform="translate(795.447693 271.757332) scale(0.1 -0.1)">
       <use xlink:href="#DejaVuSans-31"/>
       <use xlink:href="#DejaVuSans-37" transform="translate(63.623047 0)"/>
       <use xlink:href="#DejaVuSans-2e" transform="translate(127.246094 0)"/>
       <use xlink:href="#DejaVuSans-35" transform="translate(159.033203 0)"/>
      </g>
     </g>
    </g>
    <g id="xtick_15">
     <g id="line2d_23">
      <g>
       <use xlink:href="#m02c72b69a1" x="849.884472" y="257.158895" style="stroke: #000000; stroke-width: 0.8"/>
      </g>
     </g>
     <g id="text_24">
      <!-- 20.0 -->
      <g transform="translate(838.75166 271.757332) scale(0.1 -0.1)">
       <use xlink:href="#DejaVuSans-32"/>
       <use xlink:href="#DejaVuSans-30" transform="translate(63.623047 0)"/>
       <use xlink:href="#DejaVuSans-2e" transform="translate(127.246094 0)"/>
       <use xlink:href="#DejaVuSans-30" transform="translate(159.033203 0)"/>
      </g>
     </g>
    </g>
    <g id="text_25">
     <!-- wavelength [Å] -->
     <g transform="translate(639.476827 287.119832) scale(0.1 -0.1)">
      <defs>
       <path id="DejaVuSans-77" d="M 269 3500 
L 844 3500 
L 1563 769 
L 2278 3500 
L 2956 3500 
L 3675 769 
L 4391 3500 
L 4966 3500 
L 4050 0 
L 3372 0 
L 2619 2869 
L 1863 0 
L 1184 0 
L 269 3500 
z
" transform="scale(0.015625)"/>
       <path id="DejaVuSans-61" d="M 2194 1759 
Q 1497 1759 1228 1600 
Q 959 1441 959 1056 
Q 959 750 1161 570 
Q 1363 391 1709 391 
Q 2188 391 2477 730 
Q 2766 1069 2766 1631 
L 2766 1759 
L 2194 1759 
z
M 3341 1997 
L 3341 0 
L 2766 0 
L 2766 531 
Q 2569 213 2275 61 
Q 1981 -91 1556 -91 
Q 1019 -91 701 211 
Q 384 513 384 1019 
Q 384 1609 779 1909 
Q 1175 2209 1959 2209 
L 2766 2209 
L 2766 2266 
Q 2766 2663 2505 2880 
Q 2244 3097 1772 3097 
Q 1472 3097 1187 3025 
Q 903 2953 641 2809 
L 641 3341 
Q 956 3463 1253 3523 
Q 1550 3584 1831 3584 
Q 2591 3584 2966 3190 
Q 3341 2797 3341 1997 
z
" transform="scale(0.015625)"/>
       <path id="DejaVuSans-76" d="M 191 3500 
L 800 3500 
L 1894 563 
L 2988 3500 
L 3597 3500 
L 2284 0 
L 1503 0 
L 191 3500 
z
" transform="scale(0.015625)"/>
       <path id="DejaVuSans-67" d="M 2906 1791 
Q 2906 2416 2648 2759 
Q 2391 3103 1925 3103 
Q 1463 3103 1205 2759 
Q 947 2416 947 1791 
Q 947 1169 1205 825 
Q 1463 481 1925 481 
Q 2391 481 2648 825 
Q 2906 1169 2906 1791 
z
M 3481 434 
Q 3481 -459 3084 -895 
Q 2688 -1331 1869 -1331 
Q 1566 -1331 1297 -1286 
Q 1028 -1241 775 -1147 
L 775 -588 
Q 1028 -725 1275 -790 
Q 1522 -856 1778 -856 
Q 2344 -856 2625 -561 
Q 2906 -266 2906 331 
L 2906 616 
Q 2728 306 2450 153 
Q 2172 0 1784 0 
Q 1141 0 747 490 
Q 353 981 353 1791 
Q 353 2603 747 3093 
Q 1141 3584 1784 3584 
Q 2172 3584 2450 3431 
Q 2728 3278 2906 2969 
L 2906 3500 
L 3481 3500 
L 3481 434 
z
" transform="scale(0.015625)"/>
       <path id="DejaVuSans-c5" d="M 2663 5081 
Q 2663 5278 2523 5417 
Q 2384 5556 2188 5556 
Q 1988 5556 1852 5420 
Q 1716 5284 1716 5081 
Q 1716 4884 1853 4746 
Q 1991 4609 2188 4609 
Q 2384 4609 2523 4746 
Q 2663 4884 2663 5081 
z
M 2188 4044 
L 1338 1722 
L 3041 1722 
L 2188 4044 
z
M 1716 4366 
Q 1525 4494 1428 4673 
Q 1331 4853 1331 5081 
Q 1331 5441 1579 5691 
Q 1828 5941 2188 5941 
Q 2544 5941 2795 5689 
Q 3047 5438 3047 5081 
Q 3047 4863 2948 4678 
Q 2850 4494 2663 4366 
L 4325 0 
L 3669 0 
L 3244 1197 
L 1141 1197 
L 716 0 
L 50 0 
L 1716 4366 
z
" transform="scale(0.015625)"/>
      </defs>
      <use xlink:href="#DejaVuSans-77"/>
      <use xlink:href="#DejaVuSans-61" transform="translate(81.787109 0)"/>
      <use xlink:href="#DejaVuSans-76" transform="translate(143.066406 0)"/>
      <use xlink:href="#DejaVuSans-65" transform="translate(202.246094 0)"/>
      <use xlink:href="#DejaVuSans-6c" transform="translate(263.769531 0)"/>
      <use xlink:href="#DejaVuSans-65" transform="translate(291.552734 0)"/>
      <use xlink:href="#DejaVuSans-6e" transform="translate(353.076172 0)"/>
      <use xlink:href="#DejaVuSans-67" transform="translate(416.455078 0)"/>
      <use xlink:href="#DejaVuSans-74" transform="translate(479.931641 0)"/>
      <use xlink:href="#DejaVuSans-68" transform="translate(519.140625 0)"/>
      <use xlink:href="#DejaVuSans-20" transform="translate(582.519531 0)"/>
      <use xlink:href="#DejaVuSans-5b" transform="translate(614.306641 0)"/>
      <use xlink:href="#DejaVuSans-c5" transform="translate(653.320312 0)"/>
      <use xlink:href="#DejaVuSans-5d" transform="translate(721.728516 0)"/>
     </g>
    </g>
   </g>
   <g id="matplotlib.axis_4">
    <g id="ytick_8">
     <g id="line2d_24">
      <g>
       <use xlink:href="#mfc201a386b" x="489.829135" y="245.859989" style="stroke: #000000; stroke-width: 0.8"/>
      </g>
     </g>
     <g id="text_26">
      <!-- 0 -->
      <g transform="translate(476.466635 249.659208) scale(0.1 -0.1)">
       <use xlink:href="#DejaVuSans-30"/>
      </g>
     </g>
    </g>
    <g id="ytick_9">
     <g id="line2d_25">
      <g>
       <use xlink:href="#mfc201a386b" x="489.829135" y="193.475057" style="stroke: #000000; stroke-width: 0.8"/>
      </g>
     </g>
     <g id="text_27">
      <!-- 5000 -->
      <g transform="translate(457.379135 197.274275) scale(0.1 -0.1)">
       <use xlink:href="#DejaVuSans-35"/>
       <use xlink:href="#DejaVuSans-30" transform="translate(63.623047 0)"/>
       <use xlink:href="#DejaVuSans-30" transform="translate(127.246094 0)"/>
       <use xlink:href="#DejaVuSans-30" transform="translate(190.869141 0)"/>
      </g>
     </g>
    </g>
    <g id="ytick_10">
     <g id="line2d_26">
      <g>
       <use xlink:href="#mfc201a386b" x="489.829135" y="141.090124" style="stroke: #000000; stroke-width: 0.8"/>
      </g>
     </g>
     <g id="text_28">
      <!-- 10000 -->
      <g transform="translate(451.016635 144.889343) scale(0.1 -0.1)">
       <use xlink:href="#DejaVuSans-31"/>
       <use xlink:href="#DejaVuSans-30" transform="translate(63.623047 0)"/>
       <use xlink:href="#DejaVuSans-30" transform="translate(127.246094 0)"/>
       <use xlink:href="#DejaVuSans-30" transform="translate(190.869141 0)"/>
       <use xlink:href="#DejaVuSans-30" transform="translate(254.492188 0)"/>
      </g>
     </g>
    </g>
    <g id="ytick_11">
     <g id="line2d_27">
      <g>
       <use xlink:href="#mfc201a386b" x="489.829135" y="88.705192" style="stroke: #000000; stroke-width: 0.8"/>
      </g>
     </g>
     <g id="text_29">
      <!-- 15000 -->
      <g transform="translate(451.016635 92.504411) scale(0.1 -0.1)">
       <use xlink:href="#DejaVuSans-31"/>
       <use xlink:href="#DejaVuSans-35" transform="translate(63.623047 0)"/>
       <use xlink:href="#DejaVuSans-30" transform="translate(127.246094 0)"/>
       <use xlink:href="#DejaVuSans-30" transform="translate(190.869141 0)"/>
       <use xlink:href="#DejaVuSans-30" transform="translate(254.492188 0)"/>
      </g>
     </g>
    </g>
    <g id="ytick_12">
     <g id="line2d_28">
      <g>
       <use xlink:href="#mfc201a386b" x="489.829135" y="36.32026" style="stroke: #000000; stroke-width: 0.8"/>
      </g>
     </g>
     <g id="text_30">
      <!-- 20000 -->
      <g transform="translate(451.016635 40.119479) scale(0.1 -0.1)">
       <use xlink:href="#DejaVuSans-32"/>
       <use xlink:href="#DejaVuSans-30" transform="translate(63.623047 0)"/>
       <use xlink:href="#DejaVuSans-30" transform="translate(127.246094 0)"/>
       <use xlink:href="#DejaVuSans-30" transform="translate(190.869141 0)"/>
       <use xlink:href="#DejaVuSans-30" transform="translate(254.492188 0)"/>
      </g>
     </g>
    </g>
    <g id="text_31">
     <!-- pulse:0 [counts] -->
     <g transform="translate(444.936947 172.659916) rotate(-90) scale(0.1 -0.1)">
      <use xlink:href="#DejaVuSans-70"/>
      <use xlink:href="#DejaVuSans-75" transform="translate(63.476562 0)"/>
      <use xlink:href="#DejaVuSans-6c" transform="translate(126.855469 0)"/>
      <use xlink:href="#DejaVuSans-73" transform="translate(154.638672 0)"/>
      <use xlink:href="#DejaVuSans-65" transform="translate(206.738281 0)"/>
      <use xlink:href="#DejaVuSans-3a" transform="translate(268.261719 0)"/>
      <use xlink:href="#DejaVuSans-30" transform="translate(301.953125 0)"/>
      <use xlink:href="#DejaVuSans-20" transform="translate(365.576172 0)"/>
      <use xlink:href="#DejaVuSans-5b" transform="translate(397.363281 0)"/>
      <use xlink:href="#DejaVuSans-63" transform="translate(436.376953 0)"/>
      <use xlink:href="#DejaVuSans-6f" transform="translate(491.357422 0)"/>
      <use xlink:href="#DejaVuSans-75" transform="translate(552.539062 0)"/>
      <use xlink:href="#DejaVuSans-6e" transform="translate(615.917969 0)"/>
      <use xlink:href="#DejaVuSans-74" transform="translate(679.296875 0)"/>
      <use xlink:href="#DejaVuSans-73" transform="translate(718.505859 0)"/>
      <use xlink:href="#DejaVuSans-5d" transform="translate(770.605469 0)"/>
     </g>
    </g>
   </g>
   <g id="line2d_29">
    <path d="M 506.891425 154.856885 
L 508.028911 154.856885 
L 508.028911 145.658091 
L 509.166397 145.658091 
L 509.166397 137.412702 
L 510.303883 137.412702 
L 510.303883 138.617556 
L 511.441369 138.617556 
L 511.441369 145.563798 
L 512.578855 145.563798 
L 512.578855 153.578692 
L 513.716341 153.578692 
L 513.716341 147.952551 
L 514.853827 147.952551 
L 514.853827 129.261607 
L 515.991313 129.261607 
L 515.991313 105.908404 
L 517.128799 105.908404 
L 517.128799 83.781009 
L 518.266285 83.781009 
L 518.266285 63.832826 
L 519.403771 63.832826 
L 519.403771 36.540277 
L 520.541257 36.540277 
L 520.541257 27.006219 
L 521.678743 27.006219 
L 521.678743 20.646688 
L 522.816229 20.646688 
L 522.816229 18.561768 
L 523.953715 18.561768 
L 523.953715 24.166956 
L 525.091201 24.166956 
L 525.091201 33.983892 
L 526.228687 33.983892 
L 526.228687 42.658837 
L 527.366173 42.658837 
L 527.366173 52.653882 
L 528.50366 52.653882 
L 528.50366 59.820141 
L 529.641146 59.820141 
L 529.641146 72.182985 
L 530.778632 72.182985 
L 530.778632 78.626331 
L 531.916118 78.626331 
L 531.916118 87.018397 
L 533.053604 87.018397 
L 533.053604 90.182447 
L 534.19109 90.182447 
L 534.19109 93.828439 
L 535.328576 93.828439 
L 535.328576 95.902882 
L 536.466062 95.902882 
L 536.466062 100.146061 
L 537.603548 100.146061 
L 537.603548 96.133376 
L 538.741034 96.133376 
L 538.741034 92.445476 
L 539.87852 92.445476 
L 539.87852 89.889092 
L 541.016006 89.889092 
L 541.016006 81.748473 
L 542.153492 81.748473 
L 542.153492 70.747637 
L 543.290978 70.747637 
L 543.290978 61.433597 
L 544.428464 61.433597 
L 544.428464 52.643405 
L 545.56595 52.643405 
L 545.56595 43.643674 
L 546.703436 43.643674 
L 546.703436 32.559022 
L 547.840922 32.559022 
L 547.840922 35.230653 
L 548.978408 35.230653 
L 548.978408 44.188477 
L 550.115894 44.188477 
L 550.115894 53.135823 
L 551.25338 53.135823 
L 551.25338 61.307873 
L 552.390866 61.307873 
L 552.390866 71.135286 
L 553.528352 71.135286 
L 553.528352 79.034934 
L 554.665838 79.034934 
L 554.665838 89.092841 
L 555.803324 89.092841 
L 555.803324 97.5792 
L 556.94081 97.5792 
L 556.94081 108.621943 
L 558.078296 108.621943 
L 558.078296 110.937357 
L 559.215782 110.937357 
L 559.215782 120.157106 
L 560.353268 120.157106 
L 560.353268 125.280352 
L 561.490754 125.280352 
L 561.490754 131.147464 
L 562.62824 131.147464 
L 562.62824 137.852736 
L 563.765726 137.852736 
L 563.765726 141.69779 
L 564.903212 141.69779 
L 564.903212 148.497354 
L 566.040698 148.497354 
L 566.040698 152.824349 
L 567.178184 152.824349 
L 567.178184 157.318976 
L 568.31567 157.318976 
L 568.31567 161.436432 
L 569.453156 161.436432 
L 569.453156 165.815812 
L 570.590642 165.815812 
L 570.590642 171.462908 
L 571.728128 171.462908 
L 571.728128 172.929686 
L 572.865614 172.929686 
L 572.865614 177.204297 
L 574.0031 177.204297 
L 574.0031 179.058723 
L 575.140586 179.058723 
L 575.140586 182.746623 
L 576.278072 182.746623 
L 576.278072 185.020129 
L 577.415558 185.020129 
L 577.415558 189.472848 
L 578.553044 189.472848 
L 578.553044 191.390136 
L 579.69053 191.390136 
L 579.69053 194.177015 
L 580.828016 194.177015 
L 580.828016 195.434253 
L 581.965502 195.434253 
L 581.965502 198.734504 
L 583.102988 198.734504 
L 583.102988 201.123257 
L 584.240474 201.123257 
L 584.240474 203.711072 
L 585.37796 203.711072 
L 585.37796 204.549231 
L 586.515446 204.549231 
L 586.515446 207.084662 
L 587.652932 207.084662 
L 587.652932 208.698118 
L 588.790418 208.698118 
L 588.790418 210.175373 
L 589.927904 210.175373 
L 589.927904 211.097348 
L 591.06539 211.097348 
L 591.06539 212.522218 
L 592.202876 212.522218 
L 592.202876 215.413866 
L 594.477848 215.445297 
L 594.477848 217.058753 
L 595.615334 217.058753 
L 595.615334 218.410284 
L 596.75282 218.410284 
L 596.75282 220.02374 
L 597.890306 220.02374 
L 597.890306 220.180895 
L 599.027792 220.180895 
L 599.027792 221.752443 
L 600.165278 221.752443 
L 600.165278 222.108661 
L 601.302764 222.108661 
L 601.302764 222.988728 
L 602.44025 222.988728 
L 602.44025 224.895539 
L 604.715223 224.801246 
L 604.715223 226.66615 
L 605.852709 226.66615 
L 605.852709 227.210953 
L 606.990195 227.210953 
L 606.990195 226.655673 
L 608.127681 226.655673 
L 608.127681 228.918702 
L 609.265167 228.918702 
L 609.265167 229.033949 
L 610.402653 229.033949 
L 610.402653 228.824409 
L 611.540139 228.824409 
L 611.540139 230.553112 
L 612.677625 230.553112 
L 612.677625 230.720744 
L 613.815111 230.720744 
L 613.815111 231.129346 
L 614.952597 231.129346 
L 614.952597 232.250384 
L 617.227569 232.334199 
L 617.227569 232.690417 
L 618.365055 232.690417 
L 618.365055 234.073379 
L 620.640027 234.094333 
L 620.640027 233.696208 
L 621.777513 233.696208 
L 621.777513 234.628659 
L 622.914999 234.628659 
L 622.914999 235.07917 
L 624.052485 235.07917 
L 624.052485 234.922015 
L 625.189971 234.922015 
L 625.189971 236.18973 
L 626.327457 236.18973 
L 626.327457 235.896375 
L 627.464943 235.896375 
L 627.464943 236.273546 
L 628.602429 236.273546 
L 628.602429 236.975504 
L 629.739915 236.975504 
L 629.739915 237.405061 
L 632.014887 237.37363 
L 632.014887 238.24322 
L 635.427345 238.232743 
L 635.427345 238.609914 
L 636.564831 238.609914 
L 636.564831 238.882316 
L 637.702317 238.882316 
L 637.702317 239.573797 
L 638.839803 239.573797 
L 638.839803 239.238534 
L 639.977289 239.238534 
L 639.977289 239.573797 
L 642.252261 239.66809 
L 642.252261 239.280441 
L 643.389747 239.280441 
L 643.389747 239.846199 
L 644.527233 239.846199 
L 644.527233 240.296709 
L 647.939691 240.317663 
L 647.939691 240.527203 
L 649.077177 240.527203 
L 649.077177 240.872943 
L 650.214663 240.872943 
L 650.214663 241.438701 
L 651.352149 241.438701 
L 651.352149 241.082483 
L 652.489635 241.082483 
L 652.489635 241.386316 
L 654.764607 241.344408 
L 654.764607 241.208207 
L 655.902093 241.208207 
L 655.902093 241.480609 
L 657.039579 241.480609 
L 657.039579 241.784441 
L 658.177065 241.784441 
L 658.177065 241.96255 
L 659.314551 241.96255 
L 659.314551 242.318768 
L 660.452037 242.318768 
L 660.452037 241.690148 
L 661.589523 241.690148 
L 661.589523 242.245429 
L 663.864495 242.203521 
L 663.864495 242.601646 
L 665.001981 242.601646 
L 665.001981 242.381629 
L 666.139467 242.381629 
L 666.139467 242.811186 
L 669.551925 242.884525 
L 669.551925 243.052157 
L 671.826897 243.125496 
L 671.826897 243.251219 
L 676.376841 243.251219 
L 676.376841 243.366466 
L 677.514327 243.366466 
L 677.514327 243.586483 
L 678.651814 243.586483 
L 678.651814 243.38742 
L 679.7893 243.38742 
L 679.7893 243.691253 
L 680.926786 243.691253 
L 680.926786 243.502667 
L 682.064272 243.502667 
L 682.064272 243.617914 
L 684.339244 243.586483 
L 684.339244 243.995085 
L 685.47673 243.995085 
L 685.47673 243.722684 
L 686.614216 243.722684 
L 686.614216 243.544575 
L 687.751702 243.544575 
L 687.751702 243.743638 
L 688.889188 243.743638 
L 688.889188 243.995085 
L 692.301646 243.984608 
L 692.301646 244.110332 
L 693.439132 244.110332 
L 693.439132 244.309395 
L 695.714104 244.382734 
L 695.714104 244.068424 
L 696.85159 244.068424 
L 696.85159 244.204625 
L 697.989076 244.204625 
L 697.989076 244.089378 
L 699.126562 244.089378 
L 699.126562 244.382734 
L 705.951478 244.340826 
L 705.951478 244.644659 
L 710.501422 244.655136 
L 710.501422 244.875152 
L 711.638908 244.875152 
L 711.638908 244.602751 
L 716.188852 244.529412 
L 716.188852 244.791336 
L 717.326338 244.791336 
L 717.326338 245.084692 
L 718.463824 245.084692 
L 718.463824 244.780859 
L 719.60131 244.780859 
L 719.60131 244.655136 
L 720.738796 244.655136 
L 720.738796 244.81229 
L 723.013768 244.854198 
L 723.013768 244.948491 
L 729.838684 244.927537 
L 729.838684 245.074215 
L 730.97617 245.074215 
L 730.97617 244.91706 
L 732.113656 244.91706 
L 732.113656 245.147554 
L 740.076058 245.178985 
L 740.076058 245.032307 
L 743.488516 245.116123 
L 743.488516 245.262801 
L 756.000863 245.262801 
L 756.000863 245.524725 
L 759.413321 245.503771 
L 759.413321 245.367571 
L 766.238237 245.388525 
L 766.238237 245.566633 
L 767.375723 245.566633 
L 767.375723 245.367571 
L 769.650695 245.409479 
L 769.650695 245.482817 
L 782.163041 245.545679 
L 782.163041 245.608541 
L 800.362817 245.702834 
L 800.362817 245.765696 
L 801.500303 245.765696 
L 801.500303 245.608541 
L 807.187733 245.639972 
L 807.187733 245.755219 
L 815.150135 245.776173 
L 815.150135 245.639972 
L 819.700079 245.723788 
L 819.700079 245.755219 
L 848.13723 245.776173 
L 848.13723 245.776173 
" clip-path="url(#p30a6bdf5cf)" style="fill: none; stroke: #1f77b4; stroke-width: 1.5; stroke-linecap: square"/>
   </g>
   <g id="patch_8">
    <path d="M 489.829135 257.158895 
L 489.829135 7.2 
" style="fill: none; stroke: #000000; stroke-width: 0.8; stroke-linejoin: miter; stroke-linecap: square"/>
   </g>
   <g id="patch_9">
    <path d="M 865.19952 257.158895 
L 865.19952 7.2 
" style="fill: none; stroke: #000000; stroke-width: 0.8; stroke-linejoin: miter; stroke-linecap: square"/>
   </g>
   <g id="patch_10">
    <path d="M 489.829135 257.158895 
L 865.19952 257.158895 
" style="fill: none; stroke: #000000; stroke-width: 0.8; stroke-linejoin: miter; stroke-linecap: square"/>
   </g>
   <g id="patch_11">
    <path d="M 489.829135 7.2 
L 865.19952 7.2 
" style="fill: none; stroke: #000000; stroke-width: 0.8; stroke-linejoin: miter; stroke-linecap: square"/>
   </g>
  </g>
 </g>
 <defs>
  <clipPath id="p35f5794a80">
   <rect x="53.328125" y="7.2" width="375.370385" height="249.958895"/>
  </clipPath>
  <clipPath id="p30a6bdf5cf">
   <rect x="489.829135" y="7.2" width="375.370385" height="249.958895"/>
  </clipPath>
 </defs>
</svg>
