<?xml version="1.0" encoding="utf-8" standalone="no"?>
<!DOCTYPE svg PUBLIC "-//W3C//DTD SVG 1.1//EN"
  "http://www.w3.org/Graphics/SVG/1.1/DTD/svg11.dtd">
<svg xmlns:xlink="http://www.w3.org/1999/xlink" width="401.690625pt" height="268.200625pt" viewBox="0 0 401.690625 268.200625" xmlns="http://www.w3.org/2000/svg" version="1.1">
 <metadata>
  <rdf:RDF xmlns:dc="http://purl.org/dc/elements/1.1/" xmlns:cc="http://creativecommons.org/ns#" xmlns:rdf="http://www.w3.org/1999/02/22-rdf-syntax-ns#">
   <cc:Work>
    <dc:type rdf:resource="http://purl.org/dc/dcmitype/StillImage"/>
    <dc:date>2026-06-24T08:34:01.043137</dc:date>
    <dc:format>image/svg+xml</dc:format>
    <dc:creator>
     <cc:Agent>
      <dc:title>Matplotlib v3.10.9, https://matplotlib.org/</dc:title>
     </cc:Agent>
    </dc:creator>
   </cc:Work>
  </rdf:RDF>
 </metadata>
 <defs>
  <style type="text/css">*{stroke-linejoin: round; stroke-linecap: butt}</style>
 </defs>
 <g id="figure_1">
  <g id="patch_1">
   <path d="M 0 268.200625 
L 401.690625 268.200625 
L 401.690625 0 
L 0 0 
z
" style="fill: #ffffff"/>
  </g>
  <g id="axes_1">
   <g id="patch_2">
    <path d="M 59.690625 228.96 
L 394.490625 228.96 
L 394.490625 7.2 
L 59.690625 7.2 
z
" style="fill: #ffffff"/>
   </g>
   <g id="matplotlib.axis_1">
    <g id="xtick_1">
     <g id="line2d_1">
      <defs>
       <path id="mc35324e97e" d="M 0 0 
L 0 3.5 
" style="stroke: #000000; stroke-width: 0.8"/>
      </defs>
      <g>
       <use xlink:href="#mc35324e97e" x="73.379113" y="228.96" style="stroke: #000000; stroke-width: 0.8"/>
      </g>
     </g>
     <g id="text_1">
      <!-- 0.0 -->
      <g transform="translate(65.42755 243.558437) scale(0.1 -0.1)">
       <defs>
        <path id="DejaVuSans-30" d="M 2034 4250 
Q 1547 4250 1301 3770 
Q 1056 3291 1056 2328 
Q 1056 1369 1301 889 
Q 1547 409 2034 409 
Q 2525 409 2770 889 
Q 3016 1369 3016 2328 
Q 3016 3291 2770 3770 
Q 2525 4250 2034 4250 
z
M 2034 4750 
Q 2819 4750 3233 4129 
Q 3647 3509 3647 2328 
Q 3647 1150 3233 529 
Q 2819 -91 2034 -91 
Q 1250 -91 836 529 
Q 422 1150 422 2328 
Q 422 3509 836 4129 
Q 1250 4750 2034 4750 
z
" transform="scale(0.015625)"/>
        <path id="DejaVuSans-2e" d="M 684 794 
L 1344 794 
L 1344 0 
L 684 0 
L 684 794 
z
" transform="scale(0.015625)"/>
       </defs>
       <use xlink:href="#DejaVuSans-30"/>
       <use xlink:href="#DejaVuSans-2e" transform="translate(63.623047 0)"/>
       <use xlink:href="#DejaVuSans-30" transform="translate(95.410156 0)"/>
      </g>
     </g>
    </g>
    <g id="xtick_2">
     <g id="line2d_2">
      <g>
       <use xlink:href="#mc35324e97e" x="111.620502" y="228.96" style="stroke: #000000; stroke-width: 0.8"/>
      </g>
     </g>
     <g id="text_2">
      <!-- 2.5 -->
      <g transform="translate(103.66894 243.558437) scale(0.1 -0.1)">
       <defs>
        <path id="DejaVuSans-32" d="M 1228 531 
L 3431 531 
L 3431 0 
L 469 0 
L 469 531 
Q 828 903 1448 1529 
Q 2069 2156 2228 2338 
Q 2531 2678 2651 2914 
Q 2772 3150 2772 3378 
Q 2772 3750 2511 3984 
Q 2250 4219 1831 4219 
Q 1534 4219 1204 4116 
Q 875 4013 500 3803 
L 500 4441 
Q 881 4594 1212 4672 
Q 1544 4750 1819 4750 
Q 2544 4750 2975 4387 
Q 3406 4025 3406 3419 
Q 3406 3131 3298 2873 
Q 3191 2616 2906 2266 
Q 2828 2175 2409 1742 
Q 1991 1309 1228 531 
z
" transform="scale(0.015625)"/>
        <path id="DejaVuSans-35" d="M 691 4666 
L 3169 4666 
L 3169 4134 
L 1269 4134 
L 1269 2991 
Q 1406 3038 1543 3061 
Q 1681 3084 1819 3084 
Q 2600 3084 3056 2656 
Q 3513 2228 3513 1497 
Q 3513 744 3044 326 
Q 2575 -91 1722 -91 
Q 1428 -91 1123 -41 
Q 819 9 494 109 
L 494 744 
Q 775 591 1075 516 
Q 1375 441 1709 441 
Q 2250 441 2565 725 
Q 2881 1009 2881 1497 
Q 2881 1984 2565 2268 
Q 2250 2553 1709 2553 
Q 1456 2553 1204 2497 
Q 953 2441 691 2322 
L 691 4666 
z
" transform="scale(0.015625)"/>
       </defs>
       <use xlink:href="#DejaVuSans-32"/>
       <use xlink:href="#DejaVuSans-2e" transform="translate(63.623047 0)"/>
       <use xlink:href="#DejaVuSans-35" transform="translate(95.410156 0)"/>
      </g>
     </g>
    </g>
    <g id="xtick_3">
     <g id="line2d_3">
      <g>
       <use xlink:href="#mc35324e97e" x="149.861892" y="228.96" style="stroke: #000000; stroke-width: 0.8"/>
      </g>
     </g>
     <g id="text_3">
      <!-- 5.0 -->
      <g transform="translate(141.91033 243.558437) scale(0.1 -0.1)">
       <use xlink:href="#DejaVuSans-35"/>
       <use xlink:href="#DejaVuSans-2e" transform="translate(63.623047 0)"/>
       <use xlink:href="#DejaVuSans-30" transform="translate(95.410156 0)"/>
      </g>
     </g>
    </g>
    <g id="xtick_4">
     <g id="line2d_4">
      <g>
       <use xlink:href="#mc35324e97e" x="188.103282" y="228.96" style="stroke: #000000; stroke-width: 0.8"/>
      </g>
     </g>
     <g id="text_4">
      <!-- 7.5 -->
      <g transform="translate(180.151719 243.558437) scale(0.1 -0.1)">
       <defs>
        <path id="DejaVuSans-37" d="M 525 4666 
L 3525 4666 
L 3525 4397 
L 1831 0 
L 1172 0 
L 2766 4134 
L 525 4134 
L 525 4666 
z
" transform="scale(0.015625)"/>
       </defs>
       <use xlink:href="#DejaVuSans-37"/>
       <use xlink:href="#DejaVuSans-2e" transform="translate(63.623047 0)"/>
       <use xlink:href="#DejaVuSans-35" transform="translate(95.410156 0)"/>
      </g>
     </g>
    </g>
    <g id="xtick_5">
     <g id="line2d_5">
      <g>
       <use xlink:href="#mc35324e97e" x="226.344671" y="228.96" style="stroke: #000000; stroke-width: 0.8"/>
      </g>
     </g>
     <g id="text_5">
      <!-- 10.0 -->
      <g transform="translate(215.211859 243.558437) scale(0.1 -0.1)">
       <defs>
        <path id="DejaVuSans-31" d="M 794 531 
L 1825 531 
L 1825 4091 
L 703 3866 
L 703 4441 
L 1819 4666 
L 2450 4666 
L 2450 531 
L 3481 531 
L 3481 0 
L 794 0 
L 794 531 
z
" transform="scale(0.015625)"/>
       </defs>
       <use xlink:href="#DejaVuSans-31"/>
       <use xlink:href="#DejaVuSans-30" transform="translate(63.623047 0)"/>
       <use xlink:href="#DejaVuSans-2e" transform="translate(127.246094 0)"/>
       <use xlink:href="#DejaVuSans-30" transform="translate(159.033203 0)"/>
      </g>
     </g>
    </g>
    <g id="xtick_6">
     <g id="line2d_6">
      <g>
       <use xlink:href="#mc35324e97e" x="264.586061" y="228.96" style="stroke: #000000; stroke-width: 0.8"/>
      </g>
     </g>
     <g id="text_6">
      <!-- 12.5 -->
      <g transform="translate(253.453248 243.558437) scale(0.1 -0.1)">
       <use xlink:href="#DejaVuSans-31"/>
       <use xlink:href="#DejaVuSans-32" transform="translate(63.623047 0)"/>
       <use xlink:href="#DejaVuSans-2e" transform="translate(127.246094 0)"/>
       <use xlink:href="#DejaVuSans-35" transform="translate(159.033203 0)"/>
      </g>
     </g>
    </g>
    <g id="xtick_7">
     <g id="line2d_7">
      <g>
       <use xlink:href="#mc35324e97e" x="302.82745" y="228.96" style="stroke: #000000; stroke-width: 0.8"/>
      </g>
     </g>
     <g id="text_7">
      <!-- 15.0 -->
      <g transform="translate(291.694638 243.558437) scale(0.1 -0.1)">
       <use xlink:href="#DejaVuSans-31"/>
       <use xlink:href="#DejaVuSans-35" transform="translate(63.623047 0)"/>
       <use xlink:href="#DejaVuSans-2e" transform="translate(127.246094 0)"/>
       <use xlink:href="#DejaVuSans-30" transform="translate(159.033203 0)"/>
      </g>
     </g>
    </g>
    <g id="xtick_8">
     <g id="line2d_8">
      <g>
       <use xlink:href="#mc35324e97e" x="341.06884" y="228.96" style="stroke: #000000; stroke-width: 0.8"/>
      </g>
     </g>
     <g id="text_8">
      <!-- 17.5 -->
      <g transform="translate(329.936027 243.558437) scale(0.1 -0.1)">
       <use xlink:href="#DejaVuSans-31"/>
       <use xlink:href="#DejaVuSans-37" transform="translate(63.623047 0)"/>
       <use xlink:href="#DejaVuSans-2e" transform="translate(127.246094 0)"/>
       <use xlink:href="#DejaVuSans-35" transform="translate(159.033203 0)"/>
      </g>
     </g>
    </g>
    <g id="xtick_9">
     <g id="line2d_9">
      <g>
       <use xlink:href="#mc35324e97e" x="379.310229" y="228.96" style="stroke: #000000; stroke-width: 0.8"/>
      </g>
     </g>
     <g id="text_9">
      <!-- 20.0 -->
      <g transform="translate(368.177417 243.558437) scale(0.1 -0.1)">
       <use xlink:href="#DejaVuSans-32"/>
       <use xlink:href="#DejaVuSans-30" transform="translate(63.623047 0)"/>
       <use xlink:href="#DejaVuSans-2e" transform="translate(127.246094 0)"/>
       <use xlink:href="#DejaVuSans-30" transform="translate(159.033203 0)"/>
      </g>
     </g>
    </g>
    <g id="text_10">
     <!-- wavelength [Å] -->
     <g transform="translate(189.053125 258.920937) scale(0.1 -0.1)">
      <defs>
       <path id="DejaVuSans-77" d="M 269 3500 
L 844 3500 
L 1563 769 
L 2278 3500 
L 2956 3500 
L 3675 769 
L 4391 3500 
L 4966 3500 
L 4050 0 
L 3372 0 
L 2619 2869 
L 1863 0 
L 1184 0 
L 269 3500 
z
" transform="scale(0.015625)"/>
       <path id="DejaVuSans-61" d="M 2194 1759 
Q 1497 1759 1228 1600 
Q 959 1441 959 1056 
Q 959 750 1161 570 
Q 1363 391 1709 391 
Q 2188 391 2477 730 
Q 2766 1069 2766 1631 
L 2766 1759 
L 2194 1759 
z
M 3341 1997 
L 3341 0 
L 2766 0 
L 2766 531 
Q 2569 213 2275 61 
Q 1981 -91 1556 -91 
Q 1019 -91 701 211 
Q 384 513 384 1019 
Q 384 1609 779 1909 
Q 1175 2209 1959 2209 
L 2766 2209 
L 2766 2266 
Q 2766 2663 2505 2880 
Q 2244 3097 1772 3097 
Q 1472 3097 1187 3025 
Q 903 2953 641 2809 
L 641 3341 
Q 956 3463 1253 3523 
Q 1550 3584 1831 3584 
Q 2591 3584 2966 3190 
Q 3341 2797 3341 1997 
z
" transform="scale(0.015625)"/>
       <path id="DejaVuSans-76" d="M 191 3500 
L 800 3500 
L 1894 563 
L 2988 3500 
L 3597 3500 
L 2284 0 
L 1503 0 
L 191 3500 
z
" transform="scale(0.015625)"/>
       <path id="DejaVuSans-65" d="M 3597 1894 
L 3597 1613 
L 953 1613 
Q 991 1019 1311 708 
Q 1631 397 2203 397 
Q 2534 397 2845 478 
Q 3156 559 3463 722 
L 3463 178 
Q 3153 47 2828 -22 
Q 2503 -91 2169 -91 
Q 1331 -91 842 396 
Q 353 884 353 1716 
Q 353 2575 817 3079 
Q 1281 3584 2069 3584 
Q 2775 3584 3186 3129 
Q 3597 2675 3597 1894 
z
M 3022 2063 
Q 3016 2534 2758 2815 
Q 2500 3097 2075 3097 
Q 1594 3097 1305 2825 
Q 1016 2553 972 2059 
L 3022 2063 
z
" transform="scale(0.015625)"/>
       <path id="DejaVuSans-6c" d="M 603 4863 
L 1178 4863 
L 1178 0 
L 603 0 
L 603 4863 
z
" transform="scale(0.015625)"/>
       <path id="DejaVuSans-6e" d="M 3513 2113 
L 3513 0 
L 2938 0 
L 2938 2094 
Q 2938 2591 2744 2837 
Q 2550 3084 2163 3084 
Q 1697 3084 1428 2787 
Q 1159 2491 1159 1978 
L 1159 0 
L 581 0 
L 581 3500 
L 1159 3500 
L 1159 2956 
Q 1366 3272 1645 3428 
Q 1925 3584 2291 3584 
Q 2894 3584 3203 3211 
Q 3513 2838 3513 2113 
z
" transform="scale(0.015625)"/>
       <path id="DejaVuSans-67" d="M 2906 1791 
Q 2906 2416 2648 2759 
Q 2391 3103 1925 3103 
Q 1463 3103 1205 2759 
Q 947 2416 947 1791 
Q 947 1169 1205 825 
Q 1463 481 1925 481 
Q 2391 481 2648 825 
Q 2906 1169 2906 1791 
z
M 3481 434 
Q 3481 -459 3084 -895 
Q 2688 -1331 1869 -1331 
Q 1566 -1331 1297 -1286 
Q 1028 -1241 775 -1147 
L 775 -588 
Q 1028 -725 1275 -790 
Q 1522 -856 1778 -856 
Q 2344 -856 2625 -561 
Q 2906 -266 2906 331 
L 2906 616 
Q 2728 306 2450 153 
Q 2172 0 1784 0 
Q 1141 0 747 490 
Q 353 981 353 1791 
Q 353 2603 747 3093 
Q 1141 3584 1784 3584 
Q 2172 3584 2450 3431 
Q 2728 3278 2906 2969 
L 2906 3500 
L 3481 3500 
L 3481 434 
z
" transform="scale(0.015625)"/>
       <path id="DejaVuSans-74" d="M 1172 4494 
L 1172 3500 
L 2356 3500 
L 2356 3053 
L 1172 3053 
L 1172 1153 
Q 1172 725 1289 603 
Q 1406 481 1766 481 
L 2356 481 
L 2356 0 
L 1766 0 
Q 1100 0 847 248 
Q 594 497 594 1153 
L 594 3053 
L 172 3053 
L 172 3500 
L 594 3500 
L 594 4494 
L 1172 4494 
z
" transform="scale(0.015625)"/>
       <path id="DejaVuSans-68" d="M 3513 2113 
L 3513 0 
L 2938 0 
L 2938 2094 
Q 2938 2591 2744 2837 
Q 2550 3084 2163 3084 
Q 1697 3084 1428 2787 
Q 1159 2491 1159 1978 
L 1159 0 
L 581 0 
L 581 4863 
L 1159 4863 
L 1159 2956 
Q 1366 3272 1645 3428 
Q 1925 3584 2291 3584 
Q 2894 3584 3203 3211 
Q 3513 2838 3513 2113 
z
" transform="scale(0.015625)"/>
       <path id="DejaVuSans-20" transform="scale(0.015625)"/>
       <path id="DejaVuSans-5b" d="M 550 4863 
L 1875 4863 
L 1875 4416 
L 1125 4416 
L 1125 -397 
L 1875 -397 
L 1875 -844 
L 550 -844 
L 550 4863 
z
" transform="scale(0.015625)"/>
       <path id="DejaVuSans-c5" d="M 2663 5081 
Q 2663 5278 2523 5417 
Q 2384 5556 2188 5556 
Q 1988 5556 1852 5420 
Q 1716 5284 1716 5081 
Q 1716 4884 1853 4746 
Q 1991 4609 2188 4609 
Q 2384 4609 2523 4746 
Q 2663 4884 2663 5081 
z
M 2188 4044 
L 1338 1722 
L 3041 1722 
L 2188 4044 
z
M 1716 4366 
Q 1525 4494 1428 4673 
Q 1331 4853 1331 5081 
Q 1331 5441 1579 5691 
Q 1828 5941 2188 5941 
Q 2544 5941 2795 5689 
Q 3047 5438 3047 5081 
Q 3047 4863 2948 4678 
Q 2850 4494 2663 4366 
L 4325 0 
L 3669 0 
L 3244 1197 
L 1141 1197 
L 716 0 
L 50 0 
L 1716 4366 
z
" transform="scale(0.015625)"/>
       <path id="DejaVuSans-5d" d="M 1947 4863 
L 1947 -844 
L 622 -844 
L 622 -397 
L 1369 -397 
L 1369 4416 
L 622 4416 
L 622 4863 
L 1947 4863 
z
" transform="scale(0.015625)"/>
      </defs>
      <use xlink:href="#DejaVuSans-77"/>
      <use xlink:href="#DejaVuSans-61" transform="translate(81.787109 0)"/>
      <use xlink:href="#DejaVuSans-76" transform="translate(143.066406 0)"/>
      <use xlink:href="#DejaVuSans-65" transform="translate(202.246094 0)"/>
      <use xlink:href="#DejaVuSans-6c" transform="translate(263.769531 0)"/>
      <use xlink:href="#DejaVuSans-65" transform="translate(291.552734 0)"/>
      <use xlink:href="#DejaVuSans-6e" transform="translate(353.076172 0)"/>
      <use xlink:href="#DejaVuSans-67" transform="translate(416.455078 0)"/>
      <use xlink:href="#DejaVuSans-74" transform="translate(479.931641 0)"/>
      <use xlink:href="#DejaVuSans-68" transform="translate(519.140625 0)"/>
      <use xlink:href="#DejaVuSans-20" transform="translate(582.519531 0)"/>
      <use xlink:href="#DejaVuSans-5b" transform="translate(614.306641 0)"/>
      <use xlink:href="#DejaVuSans-c5" transform="translate(653.320312 0)"/>
      <use xlink:href="#DejaVuSans-5d" transform="translate(721.728516 0)"/>
     </g>
    </g>
   </g>
   <g id="matplotlib.axis_2">
    <g id="ytick_1">
     <g id="line2d_10">
      <defs>
       <path id="m01a380253c" d="M 0 0 
L -3.5 0 
" style="stroke: #000000; stroke-width: 0.8"/>
      </defs>
      <g>
       <use xlink:href="#m01a380253c" x="59.690625" y="218.88" style="stroke: #000000; stroke-width: 0.8"/>
      </g>
     </g>
     <g id="text_11">
      <!-- 0 -->
      <g transform="translate(46.328125 222.679219) scale(0.1 -0.1)">
       <use xlink:href="#DejaVuSans-30"/>
      </g>
     </g>
    </g>
    <g id="ytick_2">
     <g id="line2d_11">
      <g>
       <use xlink:href="#m01a380253c" x="59.690625" y="180.542071" style="stroke: #000000; stroke-width: 0.8"/>
      </g>
     </g>
     <g id="text_12">
      <!-- 2000 -->
      <g transform="translate(27.240625 184.34129) scale(0.1 -0.1)">
       <use xlink:href="#DejaVuSans-32"/>
       <use xlink:href="#DejaVuSans-30" transform="translate(63.623047 0)"/>
       <use xlink:href="#DejaVuSans-30" transform="translate(127.246094 0)"/>
       <use xlink:href="#DejaVuSans-30" transform="translate(190.869141 0)"/>
      </g>
     </g>
    </g>
    <g id="ytick_3">
     <g id="line2d_12">
      <g>
       <use xlink:href="#m01a380253c" x="59.690625" y="142.204142" style="stroke: #000000; stroke-width: 0.8"/>
      </g>
     </g>
     <g id="text_13">
      <!-- 4000 -->
      <g transform="translate(27.240625 146.003361) scale(0.1 -0.1)">
       <defs>
        <path id="DejaVuSans-34" d="M 2419 4116 
L 825 1625 
L 2419 1625 
L 2419 4116 
z
M 2253 4666 
L 3047 4666 
L 3047 1625 
L 3713 1625 
L 3713 1100 
L 3047 1100 
L 3047 0 
L 2419 0 
L 2419 1100 
L 313 1100 
L 313 1709 
L 2253 4666 
z
" transform="scale(0.015625)"/>
       </defs>
       <use xlink:href="#DejaVuSans-34"/>
       <use xlink:href="#DejaVuSans-30" transform="translate(63.623047 0)"/>
       <use xlink:href="#DejaVuSans-30" transform="translate(127.246094 0)"/>
       <use xlink:href="#DejaVuSans-30" transform="translate(190.869141 0)"/>
      </g>
     </g>
    </g>
    <g id="ytick_4">
     <g id="line2d_13">
      <g>
       <use xlink:href="#m01a380253c" x="59.690625" y="103.866213" style="stroke: #000000; stroke-width: 0.8"/>
      </g>
     </g>
     <g id="text_14">
      <!-- 6000 -->
      <g transform="translate(27.240625 107.665432) scale(0.1 -0.1)">
       <defs>
        <path id="DejaVuSans-36" d="M 2113 2584 
Q 1688 2584 1439 2293 
Q 1191 2003 1191 1497 
Q 1191 994 1439 701 
Q 1688 409 2113 409 
Q 2538 409 2786 701 
Q 3034 994 3034 1497 
Q 3034 2003 2786 2293 
Q 2538 2584 2113 2584 
z
M 3366 4563 
L 3366 3988 
Q 3128 4100 2886 4159 
Q 2644 4219 2406 4219 
Q 1781 4219 1451 3797 
Q 1122 3375 1075 2522 
Q 1259 2794 1537 2939 
Q 1816 3084 2150 3084 
Q 2853 3084 3261 2657 
Q 3669 2231 3669 1497 
Q 3669 778 3244 343 
Q 2819 -91 2113 -91 
Q 1303 -91 875 529 
Q 447 1150 447 2328 
Q 447 3434 972 4092 
Q 1497 4750 2381 4750 
Q 2619 4750 2861 4703 
Q 3103 4656 3366 4563 
z
" transform="scale(0.015625)"/>
       </defs>
       <use xlink:href="#DejaVuSans-36"/>
       <use xlink:href="#DejaVuSans-30" transform="translate(63.623047 0)"/>
       <use xlink:href="#DejaVuSans-30" transform="translate(127.246094 0)"/>
       <use xlink:href="#DejaVuSans-30" transform="translate(190.869141 0)"/>
      </g>
     </g>
    </g>
    <g id="ytick_5">
     <g id="line2d_14">
      <g>
       <use xlink:href="#m01a380253c" x="59.690625" y="65.528284" style="stroke: #000000; stroke-width: 0.8"/>
      </g>
     </g>
     <g id="text_15">
      <!-- 8000 -->
      <g transform="translate(27.240625 69.327502) scale(0.1 -0.1)">
       <defs>
        <path id="DejaVuSans-38" d="M 2034 2216 
Q 1584 2216 1326 1975 
Q 1069 1734 1069 1313 
Q 1069 891 1326 650 
Q 1584 409 2034 409 
Q 2484 409 2743 651 
Q 3003 894 3003 1313 
Q 3003 1734 2745 1975 
Q 2488 2216 2034 2216 
z
M 1403 2484 
Q 997 2584 770 2862 
Q 544 3141 544 3541 
Q 544 4100 942 4425 
Q 1341 4750 2034 4750 
Q 2731 4750 3128 4425 
Q 3525 4100 3525 3541 
Q 3525 3141 3298 2862 
Q 3072 2584 2669 2484 
Q 3125 2378 3379 2068 
Q 3634 1759 3634 1313 
Q 3634 634 3220 271 
Q 2806 -91 2034 -91 
Q 1263 -91 848 271 
Q 434 634 434 1313 
Q 434 1759 690 2068 
Q 947 2378 1403 2484 
z
M 1172 3481 
Q 1172 3119 1398 2916 
Q 1625 2713 2034 2713 
Q 2441 2713 2670 2916 
Q 2900 3119 2900 3481 
Q 2900 3844 2670 4047 
Q 2441 4250 2034 4250 
Q 1625 4250 1398 4047 
Q 1172 3844 1172 3481 
z
" transform="scale(0.015625)"/>
       </defs>
       <use xlink:href="#DejaVuSans-38"/>
       <use xlink:href="#DejaVuSans-30" transform="translate(63.623047 0)"/>
       <use xlink:href="#DejaVuSans-30" transform="translate(127.246094 0)"/>
       <use xlink:href="#DejaVuSans-30" transform="translate(190.869141 0)"/>
      </g>
     </g>
    </g>
    <g id="ytick_6">
     <g id="line2d_15">
      <g>
       <use xlink:href="#m01a380253c" x="59.690625" y="27.190355" style="stroke: #000000; stroke-width: 0.8"/>
      </g>
     </g>
     <g id="text_16">
      <!-- 10000 -->
      <g transform="translate(20.878125 30.989573) scale(0.1 -0.1)">
       <use xlink:href="#DejaVuSans-31"/>
       <use xlink:href="#DejaVuSans-30" transform="translate(63.623047 0)"/>
       <use xlink:href="#DejaVuSans-30" transform="translate(127.246094 0)"/>
       <use xlink:href="#DejaVuSans-30" transform="translate(190.869141 0)"/>
       <use xlink:href="#DejaVuSans-30" transform="translate(254.492188 0)"/>
      </g>
     </g>
    </g>
    <g id="text_17">
     <!-- [counts] -->
     <g transform="translate(14.798438 138.6925) rotate(-90) scale(0.1 -0.1)">
      <defs>
       <path id="DejaVuSans-63" d="M 3122 3366 
L 3122 2828 
Q 2878 2963 2633 3030 
Q 2388 3097 2138 3097 
Q 1578 3097 1268 2742 
Q 959 2388 959 1747 
Q 959 1106 1268 751 
Q 1578 397 2138 397 
Q 2388 397 2633 464 
Q 2878 531 3122 666 
L 3122 134 
Q 2881 22 2623 -34 
Q 2366 -91 2075 -91 
Q 1284 -91 818 406 
Q 353 903 353 1747 
Q 353 2603 823 3093 
Q 1294 3584 2113 3584 
Q 2378 3584 2631 3529 
Q 2884 3475 3122 3366 
z
" transform="scale(0.015625)"/>
       <path id="DejaVuSans-6f" d="M 1959 3097 
Q 1497 3097 1228 2736 
Q 959 2375 959 1747 
Q 959 1119 1226 758 
Q 1494 397 1959 397 
Q 2419 397 2687 759 
Q 2956 1122 2956 1747 
Q 2956 2369 2687 2733 
Q 2419 3097 1959 3097 
z
M 1959 3584 
Q 2709 3584 3137 3096 
Q 3566 2609 3566 1747 
Q 3566 888 3137 398 
Q 2709 -91 1959 -91 
Q 1206 -91 779 398 
Q 353 888 353 1747 
Q 353 2609 779 3096 
Q 1206 3584 1959 3584 
z
" transform="scale(0.015625)"/>
       <path id="DejaVuSans-75" d="M 544 1381 
L 544 3500 
L 1119 3500 
L 1119 1403 
Q 1119 906 1312 657 
Q 1506 409 1894 409 
Q 2359 409 2629 706 
Q 2900 1003 2900 1516 
L 2900 3500 
L 3475 3500 
L 3475 0 
L 2900 0 
L 2900 538 
Q 2691 219 2414 64 
Q 2138 -91 1772 -91 
Q 1169 -91 856 284 
Q 544 659 544 1381 
z
M 1991 3584 
L 1991 3584 
z
" transform="scale(0.015625)"/>
       <path id="DejaVuSans-73" d="M 2834 3397 
L 2834 2853 
Q 2591 2978 2328 3040 
Q 2066 3103 1784 3103 
Q 1356 3103 1142 2972 
Q 928 2841 928 2578 
Q 928 2378 1081 2264 
Q 1234 2150 1697 2047 
L 1894 2003 
Q 2506 1872 2764 1633 
Q 3022 1394 3022 966 
Q 3022 478 2636 193 
Q 2250 -91 1575 -91 
Q 1294 -91 989 -36 
Q 684 19 347 128 
L 347 722 
Q 666 556 975 473 
Q 1284 391 1588 391 
Q 1994 391 2212 530 
Q 2431 669 2431 922 
Q 2431 1156 2273 1281 
Q 2116 1406 1581 1522 
L 1381 1569 
Q 847 1681 609 1914 
Q 372 2147 372 2553 
Q 372 3047 722 3315 
Q 1072 3584 1716 3584 
Q 2034 3584 2315 3537 
Q 2597 3491 2834 3397 
z
" transform="scale(0.015625)"/>
      </defs>
      <use xlink:href="#DejaVuSans-5b"/>
      <use xlink:href="#DejaVuSans-63" transform="translate(39.013672 0)"/>
      <use xlink:href="#DejaVuSans-6f" transform="translate(93.994141 0)"/>
      <use xlink:href="#DejaVuSans-75" transform="translate(155.175781 0)"/>
      <use xlink:href="#DejaVuSans-6e" transform="translate(218.554688 0)"/>
      <use xlink:href="#DejaVuSans-74" transform="translate(281.933594 0)"/>
      <use xlink:href="#DejaVuSans-73" transform="translate(321.142578 0)"/>
      <use xlink:href="#DejaVuSans-5d" transform="translate(373.242188 0)"/>
     </g>
    </g>
   </g>
   <g id="line2d_16">
    <path d="M 74.908807 17.28 
L 75.517534 17.28 
L 75.517534 56.308012 
L 76.126261 56.308012 
L 76.126261 92.729044 
L 76.734989 92.729044 
L 76.734989 118.242936 
L 77.343716 118.242936 
L 77.343716 139.942204 
L 77.952443 139.942204 
L 77.952443 153.015438 
L 78.56117 153.015438 
L 78.56117 165.111054 
L 79.169898 165.111054 
L 79.169898 171.015096 
L 79.778625 171.015096 
L 79.778625 177.513375 
L 80.387352 177.513375 
L 80.387352 180.618747 
L 80.99608 180.618747 
L 80.99608 182.516474 
L 82.213534 182.612319 
L 82.213534 181.864729 
L 82.822261 181.864729 
L 82.822261 179.430271 
L 83.430989 179.430271 
L 83.430989 176.420744 
L 84.039716 176.420744 
L 84.039716 172.510275 
L 84.648443 172.510275 
L 84.648443 167.104627 
L 85.25717 167.104627 
L 85.25717 166.721248 
L 85.865898 166.721248 
L 85.865898 163.136651 
L 86.474625 163.136651 
L 86.474625 161.718148 
L 87.083352 161.718148 
L 87.083352 164.650999 
L 87.69208 164.650999 
L 87.69208 168.542299 
L 88.300807 168.542299 
L 88.300807 169.807451 
L 88.909534 169.807451 
L 88.909534 175.788168 
L 89.518261 175.788168 
L 89.518261 180.350381 
L 90.126989 180.350381 
L 90.126989 186.503619 
L 90.735716 186.503619 
L 90.735716 191.698408 
L 91.344443 191.698408 
L 91.344443 198.292532 
L 91.95317 198.292532 
L 91.95317 202.433028 
L 92.561898 202.433028 
L 92.561898 206.496849 
L 93.170625 206.496849 
L 93.170625 209.755573 
L 93.779352 209.755573 
L 93.779352 212.860945 
L 94.38808 212.860945 
L 94.38808 214.62449 
L 94.996807 214.62449 
L 94.996807 215.947148 
L 95.605534 215.947148 
L 95.605534 215.678783 
L 96.214261 215.678783 
L 96.214261 214.854517 
L 96.822989 214.854517 
L 96.822989 213.915238 
L 97.431716 213.915238 
L 97.431716 213.205986 
L 98.040443 213.205986 
L 98.040443 211.250752 
L 98.64917 211.250752 
L 98.64917 210.253966 
L 99.257898 210.253966 
L 99.257898 208.375407 
L 99.866625 208.375407 
L 99.866625 204.25408 
L 100.475352 204.25408 
L 100.475352 203.295632 
L 101.08408 203.295632 
L 101.08408 201.11037 
L 101.692807 201.11037 
L 101.692807 199.385163 
L 102.301534 199.385163 
L 102.301534 198.503391 
L 102.910261 198.503391 
L 102.910261 196.241453 
L 104.127716 196.145608 
L 104.127716 194.937963 
L 104.736443 194.937963 
L 104.736443 194.477908 
L 105.34517 194.477908 
L 105.34517 193.998684 
L 105.953898 193.998684 
L 105.953898 193.749487 
L 106.562625 193.749487 
L 106.562625 194.26705 
L 107.171352 194.26705 
L 107.171352 191.449212 
L 107.78008 191.449212 
L 107.78008 191.640901 
L 108.388807 191.640901 
L 108.388807 191.29586 
L 108.997534 191.29586 
L 108.997534 188.554698 
L 109.606261 188.554698 
L 109.606261 188.209657 
L 110.214989 188.209657 
L 110.214989 186.886998 
L 110.823716 186.886998 
L 110.823716 186.331098 
L 111.432443 186.331098 
L 111.432443 183.858302 
L 112.04117 183.858302 
L 112.04117 183.609105 
L 112.649898 183.609105 
L 112.649898 184.759243 
L 113.258625 184.759243 
L 113.258625 185.046778 
L 113.867352 185.046778 
L 113.867352 185.238467 
L 114.47608 185.238467 
L 114.47608 185.832705 
L 115.084807 185.832705 
L 115.084807 186.714478 
L 115.693534 186.714478 
L 115.693534 188.286333 
L 116.302261 188.286333 
L 116.302261 187.826277 
L 116.910989 187.826277 
L 116.910989 187.078688 
L 117.519716 187.078688 
L 117.519716 188.324671 
L 118.128443 188.324671 
L 118.128443 188.51636 
L 118.73717 188.51636 
L 118.73717 187.155364 
L 119.345898 187.155364 
L 119.345898 187.883784 
L 119.954625 187.883784 
L 119.954625 185.698522 
L 120.563352 185.698522 
L 120.563352 183.839133 
L 121.17208 183.839133 
L 121.17208 184.318357 
L 121.780807 184.318357 
L 121.780807 182.113926 
L 122.389534 182.113926 
L 122.389534 181.692209 
L 122.998261 181.692209 
L 122.998261 180.465395 
L 123.606989 180.465395 
L 123.606989 180.312043 
L 124.215716 180.312043 
L 124.215716 182.267278 
L 124.824443 182.267278 
L 124.824443 182.018081 
L 125.43317 182.018081 
L 125.43317 185.487664 
L 126.041898 185.487664 
L 126.041898 186.714478 
L 126.650625 186.714478 
L 126.650625 190.107384 
L 127.259352 190.107384 
L 127.259352 191.506719 
L 127.86808 191.506719 
L 127.86808 193.634474 
L 128.476807 193.634474 
L 128.476807 196.433143 
L 129.085534 196.433143 
L 129.085534 197.314915 
L 129.694261 197.314915 
L 129.694261 200.209429 
L 130.302989 200.209429 
L 130.302989 199.883556 
L 130.911716 199.883556 
L 130.911716 200.324442 
L 131.520443 200.324442 
L 131.520443 201.704608 
L 132.12917 201.704608 
L 132.12917 201.512918 
L 132.737898 201.512918 
L 132.737898 203.008097 
L 133.346625 203.008097 
L 133.346625 201.244553 
L 133.955352 201.244553 
L 133.955352 201.992142 
L 134.56408 201.992142 
L 134.56408 202.298846 
L 135.172807 202.298846 
L 135.172807 201.66627 
L 135.781534 201.66627 
L 135.781534 203.027266 
L 136.390261 203.027266 
L 136.390261 203.33397 
L 136.998989 203.33397 
L 136.998989 203.180618 
L 137.607716 203.180618 
L 137.607716 202.548042 
L 138.216443 202.548042 
L 138.216443 202.95059 
L 138.82517 202.95059 
L 138.82517 202.758901 
L 139.433898 202.758901 
L 139.433898 202.375522 
L 140.042625 202.375522 
L 140.042625 201.47458 
L 140.651352 201.47458 
L 140.651352 201.340397 
L 141.26008 201.340397 
L 141.26008 200.899511 
L 141.868807 200.899511 
L 141.868807 199.327656 
L 142.477534 199.327656 
L 142.477534 200.113584 
L 143.086261 200.113584 
L 143.086261 199.001784 
L 143.694989 199.001784 
L 143.694989 199.576853 
L 144.303716 199.576853 
L 144.303716 198.445884 
L 144.912443 198.445884 
L 144.912443 201.244553 
L 145.52117 201.244553 
L 145.52117 201.033694 
L 146.129898 201.033694 
L 146.129898 202.087987 
L 146.738625 202.087987 
L 146.738625 201.532087 
L 147.347352 201.532087 
L 147.347352 204.388263 
L 147.95608 204.388263 
L 147.95608 203.813194 
L 148.564807 203.813194 
L 148.564807 205.270035 
L 149.173534 205.270035 
L 149.173534 207.455297 
L 150.390989 207.436128 
L 150.390989 208.567097 
L 150.999716 208.567097 
L 150.999716 209.199673 
L 151.608443 209.199673 
L 151.608443 208.892969 
L 152.21717 208.892969 
L 152.21717 210.062276 
L 152.825898 210.062276 
L 152.825898 209.774742 
L 154.043352 209.793911 
L 154.043352 210.445656 
L 154.65208 210.445656 
L 154.65208 209.314687 
L 155.260807 209.314687 
L 155.260807 209.928094 
L 155.869534 209.928094 
L 155.869534 209.698066 
L 156.478261 209.698066 
L 156.478261 209.851418 
L 157.695716 209.81308 
L 157.695716 209.238011 
L 158.304443 209.238011 
L 158.304443 207.877014 
L 158.91317 207.877014 
L 158.91317 209.007983 
L 159.521898 209.007983 
L 159.521898 208.605435 
L 160.130625 208.605435 
L 160.130625 208.011197 
L 161.34808 208.049535 
L 161.34808 207.838676 
L 161.956807 207.838676 
L 161.956807 208.14538 
L 162.565534 208.14538 
L 162.565534 208.298732 
L 163.174261 208.298732 
L 163.174261 209.353025 
L 163.782989 209.353025 
L 163.782989 208.471252 
L 164.391716 208.471252 
L 164.391716 208.70128 
L 165.000443 208.70128 
L 165.000443 209.276349 
L 165.60917 209.276349 
L 165.60917 209.583052 
L 166.217898 209.583052 
L 166.217898 210.311473 
L 167.435352 210.349811 
L 167.435352 211.48078 
L 168.652807 211.519118 
L 168.652807 210.963218 
L 169.261534 210.963218 
L 169.261534 211.595793 
L 169.870261 211.595793 
L 169.870261 212.151693 
L 170.478989 212.151693 
L 170.478989 213.51269 
L 171.087716 213.51269 
L 171.087716 213.167649 
L 171.696443 213.167649 
L 171.696443 213.301831 
L 172.913898 213.263493 
L 172.913898 213.474352 
L 173.522625 213.474352 
L 173.522625 213.761886 
L 174.74008 213.70438 
L 174.74008 213.14848 
L 175.348807 213.14848 
L 175.348807 212.995128 
L 175.957534 212.995128 
L 175.957534 212.075018 
L 176.566261 212.075018 
L 176.566261 212.880114 
L 177.174989 212.880114 
L 177.174989 212.688424 
L 179.00117 212.784269 
L 179.00117 211.921666 
L 179.609898 211.921666 
L 179.609898 212.688424 
L 180.218625 212.688424 
L 180.218625 211.921666 
L 180.827352 211.921666 
L 180.827352 212.324214 
L 181.43608 212.324214 
L 181.43608 212.745931 
L 182.653534 212.650087 
L 182.653534 212.554242 
L 183.262261 212.554242 
L 183.262261 212.899283 
L 183.870989 212.899283 
L 183.870989 213.244324 
L 184.479716 213.244324 
L 184.479716 213.70438 
L 185.69717 213.646873 
L 185.69717 214.145266 
L 186.305898 214.145266 
L 186.305898 214.490307 
L 187.523352 214.586152 
L 187.523352 214.605321 
L 188.13208 214.605321 
L 188.13208 214.356124 
L 188.740807 214.356124 
L 188.740807 214.490307 
L 189.349534 214.490307 
L 189.349534 214.356124 
L 189.958261 214.356124 
L 189.958261 214.969531 
L 191.784443 214.950362 
L 191.784443 214.4328 
L 192.39317 214.4328 
L 192.39317 214.777842 
L 193.001898 214.777842 
L 193.001898 215.199559 
L 193.610625 215.199559 
L 193.610625 214.835348 
L 194.82808 214.81618 
L 194.82808 215.257066 
L 195.436807 215.257066 
L 195.436807 214.643659 
L 196.654261 214.643659 
L 196.654261 214.26028 
L 197.262989 214.26028 
L 197.262989 214.701166 
L 197.871716 214.701166 
L 197.871716 214.049421 
L 199.08917 214.126097 
L 199.08917 214.854517 
L 199.697898 214.854517 
L 199.697898 214.720335 
L 200.306625 214.720335 
L 200.306625 214.9887 
L 200.915352 214.9887 
L 200.915352 215.391248 
L 201.52408 215.391248 
L 201.52408 214.912024 
L 202.132807 214.912024 
L 202.132807 215.927979 
L 202.741534 215.927979 
L 202.741534 216.388035 
L 203.350261 216.388035 
L 203.350261 215.755459 
L 203.958989 215.755459 
L 203.958989 215.966317 
L 204.567716 215.966317 
L 204.567716 216.349697 
L 205.78517 216.273021 
L 205.78517 216.46471 
L 206.393898 216.46471 
L 206.393898 216.84809 
L 207.002625 216.84809 
L 207.002625 217.097286 
L 207.611352 217.097286 
L 207.611352 216.905597 
L 208.22008 216.905597 
L 208.22008 217.173962 
L 208.828807 217.173962 
L 208.828807 216.943935 
L 210.046261 217.02061 
L 210.046261 217.461497 
L 210.654989 217.461497 
L 210.654989 217.135624 
L 211.263716 217.135624 
L 211.263716 217.269807 
L 211.872443 217.269807 
L 211.872443 217.40399 
L 213.089898 217.40399 
L 213.089898 217.595679 
L 214.307352 217.557341 
L 214.307352 217.940721 
L 214.91608 217.940721 
L 214.91608 217.499835 
L 215.524807 217.499835 
L 215.524807 218.13241 
L 216.742261 218.094072 
L 216.742261 218.017397 
L 217.350989 218.017397 
L 217.350989 218.189917 
L 218.568443 218.094072 
L 218.568443 218.439114 
L 219.17717 218.439114 
L 219.17717 218.304931 
L 219.785898 218.304931 
L 219.785898 218.477452 
L 221.61208 218.534959 
L 221.61208 218.669141 
L 222.220807 218.669141 
L 222.220807 218.554128 
L 223.438261 218.649972 
L 223.438261 218.784155 
L 230.134261 218.707479 
L 230.134261 218.630803 
L 233.786625 218.573297 
L 233.786625 218.51579 
L 236.830261 218.51579 
L 236.830261 218.745817 
L 237.438989 218.745817 
L 237.438989 218.51579 
L 239.873898 218.534959 
L 239.873898 218.630803 
L 242.308807 218.573297 
L 242.308807 218.419945 
L 242.917534 218.419945 
L 242.917534 218.649972 
L 248.39608 218.630803 
L 248.39608 218.458283 
L 251.439716 218.458283 
L 251.439716 218.573297 
L 253.265898 218.477452 
L 253.265898 218.3241 
L 253.874625 218.3241 
L 253.874625 218.573297 
L 256.309534 218.496621 
L 256.309534 218.68831 
L 256.918261 218.68831 
L 256.918261 218.554128 
L 257.526989 218.554128 
L 257.526989 218.439114 
L 258.135716 218.439114 
L 258.135716 218.649972 
L 263.614261 218.630803 
L 263.614261 218.496621 
L 264.222989 218.496621 
L 264.222989 218.649972 
L 267.266625 218.649972 
L 267.266625 218.439114 
L 267.875352 218.439114 
L 267.875352 218.573297 
L 269.701534 218.51579 
L 269.701534 218.458283 
L 270.310261 218.458283 
L 270.310261 218.611634 
L 275.18008 218.554128 
L 275.18008 218.496621 
L 275.788807 218.496621 
L 275.788807 218.630803 
L 278.223716 218.554128 
L 278.223716 218.419945 
L 279.44117 218.419945 
L 279.44117 218.669141 
L 281.267352 218.68831 
L 281.267352 218.534959 
L 281.87608 218.534959 
L 281.87608 218.669141 
L 283.093534 218.68831 
L 283.093534 218.784155 
L 284.310989 218.745817 
L 284.310989 218.51579 
L 285.528443 218.534959 
L 285.528443 218.669141 
L 290.398261 218.649972 
L 290.398261 218.496621 
L 291.615716 218.51579 
L 291.615716 218.630803 
L 292.224443 218.630803 
L 292.224443 218.51579 
L 292.83317 218.51579 
L 292.83317 218.784155 
L 293.441898 218.784155 
L 293.441898 218.649972 
L 297.702989 218.669141 
L 297.702989 218.764986 
L 299.52917 218.68831 
L 299.52917 218.630803 
L 302.572807 218.669141 
L 302.572807 218.764986 
L 305.616443 218.764986 
L 305.616443 218.592466 
L 307.442625 218.669141 
L 307.442625 218.745817 
L 309.268807 218.707479 
L 309.268807 218.592466 
L 309.877534 218.592466 
L 309.877534 218.477452 
L 310.486261 218.477452 
L 310.486261 218.707479 
L 312.92117 218.764986 
L 312.92117 218.573297 
L 313.529898 218.573297 
L 313.529898 218.726648 
L 314.747352 218.707479 
L 314.747352 218.592466 
L 315.35608 218.592466 
L 315.35608 218.726648 
L 317.790989 218.630803 
L 317.790989 218.592466 
L 318.399716 218.592466 
L 318.399716 218.745817 
L 320.225898 218.745817 
L 320.225898 218.611634 
L 320.834625 218.611634 
L 320.834625 218.784155 
L 321.443352 218.784155 
L 321.443352 218.611634 
L 322.660807 218.68831 
L 322.660807 218.726648 
L 324.486989 218.764986 
L 324.486989 218.554128 
L 325.095716 218.554128 
L 325.095716 218.707479 
L 330.574261 218.68831 
L 330.574261 218.573297 
L 331.182989 218.573297 
L 331.182989 218.822493 
L 331.791716 218.822493 
L 331.791716 218.68831 
L 333.617898 218.784155 
L 333.617898 218.803324 
L 379.272443 218.88 
L 379.272443 218.88 
" clip-path="url(#p1c25fc3e9f)" style="fill: none; stroke: #1f77b4; stroke-width: 1.5; stroke-linecap: square"/>
   </g>
   <g id="patch_3">
    <path d="M 59.690625 228.96 
L 59.690625 7.2 
" style="fill: none; stroke: #000000; stroke-width: 0.8; stroke-linejoin: miter; stroke-linecap: square"/>
   </g>
   <g id="patch_4">
    <path d="M 394.490625 228.96 
L 394.490625 7.2 
" style="fill: none; stroke: #000000; stroke-width: 0.8; stroke-linejoin: miter; stroke-linecap: square"/>
   </g>
   <g id="patch_5">
    <path d="M 59.690625 228.96 
L 394.490625 228.96 
" style="fill: none; stroke: #000000; stroke-width: 0.8; stroke-linejoin: miter; stroke-linecap: square"/>
   </g>
   <g id="patch_6">
    <path d="M 59.690625 7.2 
L 394.490625 7.2 
" style="fill: none; stroke: #000000; stroke-width: 0.8; stroke-linejoin: miter; stroke-linecap: square"/>
   </g>
  </g>
 </g>
 <defs>
  <clipPath id="p1c25fc3e9f">
   <rect x="59.690625" y="7.2" width="334.8" height="221.76"/>
  </clipPath>
 </defs>
</svg>
