<?xml version="1.0" encoding="utf-8" standalone="no"?>
<!DOCTYPE svg PUBLIC "-//W3C//DTD SVG 1.1//EN"
  "http://www.w3.org/Graphics/SVG/1.1/DTD/svg11.dtd">
<svg xmlns:xlink="http://www.w3.org/1999/xlink" width="872.39952pt" height="296.39952pt" viewBox="0 0 872.39952 296.39952" xmlns="http://www.w3.org/2000/svg" version="1.1">
 <metadata>
  <rdf:RDF xmlns:dc="http://purl.org/dc/elements/1.1/" xmlns:cc="http://creativecommons.org/ns#" xmlns:rdf="http://www.w3.org/1999/02/22-rdf-syntax-ns#">
   <cc:Work>
    <dc:type rdf:resource="http://purl.org/dc/dcmitype/StillImage"/>
    <dc:date>2025-11-13T11:12:00.129970</dc:date>
    <dc:format>image/svg+xml</dc:format>
    <dc:creator>
     <cc:Agent>
      <dc:title>Matplotlib v3.10.7, https://matplotlib.org/</dc:title>
     </cc:Agent>
    </dc:creator>
   </cc:Work>
  </rdf:RDF>
 </metadata>
 <defs>
  <style type="text/css">*{stroke-linejoin: round; stroke-linecap: butt}</style>
 </defs>
 <g id="figure_1">
  <g id="patch_1">
   <path d="M 0 296.39952 
L 872.39952 296.39952 
L 872.39952 0 
L 0 0 
z
" style="fill: #ffffff"/>
  </g>
  <g id="axes_1">
   <g id="patch_2">
    <path d="M 53.328125 257.158895 
L 411.41851 257.158895 
L 411.41851 7.2 
L 53.328125 7.2 
z
" style="fill: #ffffff"/>
   </g>
   <g id="matplotlib.axis_1">
    <g id="xtick_1">
     <g id="line2d_1">
      <defs>
       <path id="mc87a3b62b6" d="M 0 0 
L 0 3.5 
" style="stroke: #000000; stroke-width: 0.8"/>
      </defs>
      <g>
       <use xlink:href="#mc87a3b62b6" x="68.787038" y="257.158895" style="stroke: #000000; stroke-width: 0.8"/>
      </g>
     </g>
     <g id="text_1">
      <!-- 0 -->
      <g transform="translate(65.605788 271.757332) scale(0.1 -0.1)">
       <defs>
        <path id="DejaVuSans-30" d="M 2034 4250 
Q 1547 4250 1301 3770 
Q 1056 3291 1056 2328 
Q 1056 1369 1301 889 
Q 1547 409 2034 409 
Q 2525 409 2770 889 
Q 3016 1369 3016 2328 
Q 3016 3291 2770 3770 
Q 2525 4250 2034 4250 
z
M 2034 4750 
Q 2819 4750 3233 4129 
Q 3647 3509 3647 2328 
Q 3647 1150 3233 529 
Q 2819 -91 2034 -91 
Q 1250 -91 836 529 
Q 422 1150 422 2328 
Q 422 3509 836 4129 
Q 1250 4750 2034 4750 
z
" transform="scale(0.015625)"/>
       </defs>
       <use xlink:href="#DejaVuSans-30"/>
      </g>
     </g>
    </g>
    <g id="xtick_2">
     <g id="line2d_2">
      <g>
       <use xlink:href="#mc87a3b62b6" x="134.23469" y="257.158895" style="stroke: #000000; stroke-width: 0.8"/>
      </g>
     </g>
     <g id="text_2">
      <!-- 1000 -->
      <g transform="translate(121.50969 271.757332) scale(0.1 -0.1)">
       <defs>
        <path id="DejaVuSans-31" d="M 794 531 
L 1825 531 
L 1825 4091 
L 703 3866 
L 703 4441 
L 1819 4666 
L 2450 4666 
L 2450 531 
L 3481 531 
L 3481 0 
L 794 0 
L 794 531 
z
" transform="scale(0.015625)"/>
       </defs>
       <use xlink:href="#DejaVuSans-31"/>
       <use xlink:href="#DejaVuSans-30" transform="translate(63.623047 0)"/>
       <use xlink:href="#DejaVuSans-30" transform="translate(127.246094 0)"/>
       <use xlink:href="#DejaVuSans-30" transform="translate(190.869141 0)"/>
      </g>
     </g>
    </g>
    <g id="xtick_3">
     <g id="line2d_3">
      <g>
       <use xlink:href="#mc87a3b62b6" x="199.682342" y="257.158895" style="stroke: #000000; stroke-width: 0.8"/>
      </g>
     </g>
     <g id="text_3">
      <!-- 2000 -->
      <g transform="translate(186.957342 271.757332) scale(0.1 -0.1)">
       <defs>
        <path id="DejaVuSans-32" d="M 1228 531 
L 3431 531 
L 3431 0 
L 469 0 
L 469 531 
Q 828 903 1448 1529 
Q 2069 2156 2228 2338 
Q 2531 2678 2651 2914 
Q 2772 3150 2772 3378 
Q 2772 3750 2511 3984 
Q 2250 4219 1831 4219 
Q 1534 4219 1204 4116 
Q 875 4013 500 3803 
L 500 4441 
Q 881 4594 1212 4672 
Q 1544 4750 1819 4750 
Q 2544 4750 2975 4387 
Q 3406 4025 3406 3419 
Q 3406 3131 3298 2873 
Q 3191 2616 2906 2266 
Q 2828 2175 2409 1742 
Q 1991 1309 1228 531 
z
" transform="scale(0.015625)"/>
       </defs>
       <use xlink:href="#DejaVuSans-32"/>
       <use xlink:href="#DejaVuSans-30" transform="translate(63.623047 0)"/>
       <use xlink:href="#DejaVuSans-30" transform="translate(127.246094 0)"/>
       <use xlink:href="#DejaVuSans-30" transform="translate(190.869141 0)"/>
      </g>
     </g>
    </g>
    <g id="xtick_4">
     <g id="line2d_4">
      <g>
       <use xlink:href="#mc87a3b62b6" x="265.129994" y="257.158895" style="stroke: #000000; stroke-width: 0.8"/>
      </g>
     </g>
     <g id="text_4">
      <!-- 3000 -->
      <g transform="translate(252.404994 271.757332) scale(0.1 -0.1)">
       <defs>
        <path id="DejaVuSans-33" d="M 2597 2516 
Q 3050 2419 3304 2112 
Q 3559 1806 3559 1356 
Q 3559 666 3084 287 
Q 2609 -91 1734 -91 
Q 1441 -91 1130 -33 
Q 819 25 488 141 
L 488 750 
Q 750 597 1062 519 
Q 1375 441 1716 441 
Q 2309 441 2620 675 
Q 2931 909 2931 1356 
Q 2931 1769 2642 2001 
Q 2353 2234 1838 2234 
L 1294 2234 
L 1294 2753 
L 1863 2753 
Q 2328 2753 2575 2939 
Q 2822 3125 2822 3475 
Q 2822 3834 2567 4026 
Q 2313 4219 1838 4219 
Q 1578 4219 1281 4162 
Q 984 4106 628 3988 
L 628 4550 
Q 988 4650 1302 4700 
Q 1616 4750 1894 4750 
Q 2613 4750 3031 4423 
Q 3450 4097 3450 3541 
Q 3450 3153 3228 2886 
Q 3006 2619 2597 2516 
z
" transform="scale(0.015625)"/>
       </defs>
       <use xlink:href="#DejaVuSans-33"/>
       <use xlink:href="#DejaVuSans-30" transform="translate(63.623047 0)"/>
       <use xlink:href="#DejaVuSans-30" transform="translate(127.246094 0)"/>
       <use xlink:href="#DejaVuSans-30" transform="translate(190.869141 0)"/>
      </g>
     </g>
    </g>
    <g id="xtick_5">
     <g id="line2d_5">
      <g>
       <use xlink:href="#mc87a3b62b6" x="330.577646" y="257.158895" style="stroke: #000000; stroke-width: 0.8"/>
      </g>
     </g>
     <g id="text_5">
      <!-- 4000 -->
      <g transform="translate(317.852646 271.757332) scale(0.1 -0.1)">
       <defs>
        <path id="DejaVuSans-34" d="M 2419 4116 
L 825 1625 
L 2419 1625 
L 2419 4116 
z
M 2253 4666 
L 3047 4666 
L 3047 1625 
L 3713 1625 
L 3713 1100 
L 3047 1100 
L 3047 0 
L 2419 0 
L 2419 1100 
L 313 1100 
L 313 1709 
L 2253 4666 
z
" transform="scale(0.015625)"/>
       </defs>
       <use xlink:href="#DejaVuSans-34"/>
       <use xlink:href="#DejaVuSans-30" transform="translate(63.623047 0)"/>
       <use xlink:href="#DejaVuSans-30" transform="translate(127.246094 0)"/>
       <use xlink:href="#DejaVuSans-30" transform="translate(190.869141 0)"/>
      </g>
     </g>
    </g>
    <g id="xtick_6">
     <g id="line2d_6">
      <g>
       <use xlink:href="#mc87a3b62b6" x="396.025297" y="257.158895" style="stroke: #000000; stroke-width: 0.8"/>
      </g>
     </g>
     <g id="text_6">
      <!-- 5000 -->
      <g transform="translate(383.300297 271.757332) scale(0.1 -0.1)">
       <defs>
        <path id="DejaVuSans-35" d="M 691 4666 
L 3169 4666 
L 3169 4134 
L 1269 4134 
L 1269 2991 
Q 1406 3038 1543 3061 
Q 1681 3084 1819 3084 
Q 2600 3084 3056 2656 
Q 3513 2228 3513 1497 
Q 3513 744 3044 326 
Q 2575 -91 1722 -91 
Q 1428 -91 1123 -41 
Q 819 9 494 109 
L 494 744 
Q 775 591 1075 516 
Q 1375 441 1709 441 
Q 2250 441 2565 725 
Q 2881 1009 2881 1497 
Q 2881 1984 2565 2268 
Q 2250 2553 1709 2553 
Q 1456 2553 1204 2497 
Q 953 2441 691 2322 
L 691 4666 
z
" transform="scale(0.015625)"/>
       </defs>
       <use xlink:href="#DejaVuSans-35"/>
       <use xlink:href="#DejaVuSans-30" transform="translate(63.623047 0)"/>
       <use xlink:href="#DejaVuSans-30" transform="translate(127.246094 0)"/>
       <use xlink:href="#DejaVuSans-30" transform="translate(190.869141 0)"/>
      </g>
     </g>
    </g>
    <g id="text_7">
     <!-- birth_time [µs] -->
     <g transform="translate(195.553005 285.435457) scale(0.1 -0.1)">
      <defs>
       <path id="DejaVuSans-62" d="M 3116 1747 
Q 3116 2381 2855 2742 
Q 2594 3103 2138 3103 
Q 1681 3103 1420 2742 
Q 1159 2381 1159 1747 
Q 1159 1113 1420 752 
Q 1681 391 2138 391 
Q 2594 391 2855 752 
Q 3116 1113 3116 1747 
z
M 1159 2969 
Q 1341 3281 1617 3432 
Q 1894 3584 2278 3584 
Q 2916 3584 3314 3078 
Q 3713 2572 3713 1747 
Q 3713 922 3314 415 
Q 2916 -91 2278 -91 
Q 1894 -91 1617 61 
Q 1341 213 1159 525 
L 1159 0 
L 581 0 
L 581 4863 
L 1159 4863 
L 1159 2969 
z
" transform="scale(0.015625)"/>
       <path id="DejaVuSans-69" d="M 603 3500 
L 1178 3500 
L 1178 0 
L 603 0 
L 603 3500 
z
M 603 4863 
L 1178 4863 
L 1178 4134 
L 603 4134 
L 603 4863 
z
" transform="scale(0.015625)"/>
       <path id="DejaVuSans-72" d="M 2631 2963 
Q 2534 3019 2420 3045 
Q 2306 3072 2169 3072 
Q 1681 3072 1420 2755 
Q 1159 2438 1159 1844 
L 1159 0 
L 581 0 
L 581 3500 
L 1159 3500 
L 1159 2956 
Q 1341 3275 1631 3429 
Q 1922 3584 2338 3584 
Q 2397 3584 2469 3576 
Q 2541 3569 2628 3553 
L 2631 2963 
z
" transform="scale(0.015625)"/>
       <path id="DejaVuSans-74" d="M 1172 4494 
L 1172 3500 
L 2356 3500 
L 2356 3053 
L 1172 3053 
L 1172 1153 
Q 1172 725 1289 603 
Q 1406 481 1766 481 
L 2356 481 
L 2356 0 
L 1766 0 
Q 1100 0 847 248 
Q 594 497 594 1153 
L 594 3053 
L 172 3053 
L 172 3500 
L 594 3500 
L 594 4494 
L 1172 4494 
z
" transform="scale(0.015625)"/>
       <path id="DejaVuSans-68" d="M 3513 2113 
L 3513 0 
L 2938 0 
L 2938 2094 
Q 2938 2591 2744 2837 
Q 2550 3084 2163 3084 
Q 1697 3084 1428 2787 
Q 1159 2491 1159 1978 
L 1159 0 
L 581 0 
L 581 4863 
L 1159 4863 
L 1159 2956 
Q 1366 3272 1645 3428 
Q 1925 3584 2291 3584 
Q 2894 3584 3203 3211 
Q 3513 2838 3513 2113 
z
" transform="scale(0.015625)"/>
       <path id="DejaVuSans-5f" d="M 3263 -1063 
L 3263 -1509 
L -63 -1509 
L -63 -1063 
L 3263 -1063 
z
" transform="scale(0.015625)"/>
       <path id="DejaVuSans-6d" d="M 3328 2828 
Q 3544 3216 3844 3400 
Q 4144 3584 4550 3584 
Q 5097 3584 5394 3201 
Q 5691 2819 5691 2113 
L 5691 0 
L 5113 0 
L 5113 2094 
Q 5113 2597 4934 2840 
Q 4756 3084 4391 3084 
Q 3944 3084 3684 2787 
Q 3425 2491 3425 1978 
L 3425 0 
L 2847 0 
L 2847 2094 
Q 2847 2600 2669 2842 
Q 2491 3084 2119 3084 
Q 1678 3084 1418 2786 
Q 1159 2488 1159 1978 
L 1159 0 
L 581 0 
L 581 3500 
L 1159 3500 
L 1159 2956 
Q 1356 3278 1631 3431 
Q 1906 3584 2284 3584 
Q 2666 3584 2933 3390 
Q 3200 3197 3328 2828 
z
" transform="scale(0.015625)"/>
       <path id="DejaVuSans-65" d="M 3597 1894 
L 3597 1613 
L 953 1613 
Q 991 1019 1311 708 
Q 1631 397 2203 397 
Q 2534 397 2845 478 
Q 3156 559 3463 722 
L 3463 178 
Q 3153 47 2828 -22 
Q 2503 -91 2169 -91 
Q 1331 -91 842 396 
Q 353 884 353 1716 
Q 353 2575 817 3079 
Q 1281 3584 2069 3584 
Q 2775 3584 3186 3129 
Q 3597 2675 3597 1894 
z
M 3022 2063 
Q 3016 2534 2758 2815 
Q 2500 3097 2075 3097 
Q 1594 3097 1305 2825 
Q 1016 2553 972 2059 
L 3022 2063 
z
" transform="scale(0.015625)"/>
       <path id="DejaVuSans-20" transform="scale(0.015625)"/>
       <path id="DejaVuSans-5b" d="M 550 4863 
L 1875 4863 
L 1875 4416 
L 1125 4416 
L 1125 -397 
L 1875 -397 
L 1875 -844 
L 550 -844 
L 550 4863 
z
" transform="scale(0.015625)"/>
       <path id="DejaVuSans-b5" d="M 544 -1331 
L 544 3500 
L 1119 3500 
L 1119 1325 
Q 1119 872 1334 640 
Q 1550 409 1972 409 
Q 2434 409 2667 671 
Q 2900 934 2900 1459 
L 2900 3500 
L 3475 3500 
L 3475 806 
Q 3475 619 3529 530 
Q 3584 441 3700 441 
Q 3728 441 3778 458 
Q 3828 475 3916 513 
L 3916 50 
Q 3788 -22 3673 -56 
Q 3559 -91 3450 -91 
Q 3234 -91 3106 31 
Q 2978 153 2931 403 
Q 2775 156 2548 32 
Q 2322 -91 2016 -91 
Q 1697 -91 1473 31 
Q 1250 153 1119 397 
L 1119 -1331 
L 544 -1331 
z
" transform="scale(0.015625)"/>
       <path id="DejaVuSans-73" d="M 2834 3397 
L 2834 2853 
Q 2591 2978 2328 3040 
Q 2066 3103 1784 3103 
Q 1356 3103 1142 2972 
Q 928 2841 928 2578 
Q 928 2378 1081 2264 
Q 1234 2150 1697 2047 
L 1894 2003 
Q 2506 1872 2764 1633 
Q 3022 1394 3022 966 
Q 3022 478 2636 193 
Q 2250 -91 1575 -91 
Q 1294 -91 989 -36 
Q 684 19 347 128 
L 347 722 
Q 666 556 975 473 
Q 1284 391 1588 391 
Q 1994 391 2212 530 
Q 2431 669 2431 922 
Q 2431 1156 2273 1281 
Q 2116 1406 1581 1522 
L 1381 1569 
Q 847 1681 609 1914 
Q 372 2147 372 2553 
Q 372 3047 722 3315 
Q 1072 3584 1716 3584 
Q 2034 3584 2315 3537 
Q 2597 3491 2834 3397 
z
" transform="scale(0.015625)"/>
       <path id="DejaVuSans-5d" d="M 1947 4863 
L 1947 -844 
L 622 -844 
L 622 -397 
L 1369 -397 
L 1369 4416 
L 622 4416 
L 622 4863 
L 1947 4863 
z
" transform="scale(0.015625)"/>
      </defs>
      <use xlink:href="#DejaVuSans-62"/>
      <use xlink:href="#DejaVuSans-69" transform="translate(63.476562 0)"/>
      <use xlink:href="#DejaVuSans-72" transform="translate(91.259766 0)"/>
      <use xlink:href="#DejaVuSans-74" transform="translate(132.373047 0)"/>
      <use xlink:href="#DejaVuSans-68" transform="translate(171.582031 0)"/>
      <use xlink:href="#DejaVuSans-5f" transform="translate(234.960938 0)"/>
      <use xlink:href="#DejaVuSans-74" transform="translate(284.960938 0)"/>
      <use xlink:href="#DejaVuSans-69" transform="translate(324.169922 0)"/>
      <use xlink:href="#DejaVuSans-6d" transform="translate(351.953125 0)"/>
      <use xlink:href="#DejaVuSans-65" transform="translate(449.365234 0)"/>
      <use xlink:href="#DejaVuSans-20" transform="translate(510.888672 0)"/>
      <use xlink:href="#DejaVuSans-5b" transform="translate(542.675781 0)"/>
      <use xlink:href="#DejaVuSans-b5" transform="translate(581.689453 0)"/>
      <use xlink:href="#DejaVuSans-73" transform="translate(645.3125 0)"/>
      <use xlink:href="#DejaVuSans-5d" transform="translate(697.412109 0)"/>
     </g>
    </g>
   </g>
   <g id="matplotlib.axis_2">
    <g id="ytick_1">
     <g id="line2d_7">
      <defs>
       <path id="m057defd516" d="M 0 0 
L -3.5 0 
" style="stroke: #000000; stroke-width: 0.8"/>
      </defs>
      <g>
       <use xlink:href="#m057defd516" x="53.328125" y="245.986427" style="stroke: #000000; stroke-width: 0.8"/>
      </g>
     </g>
     <g id="text_8">
      <!-- 0 -->
      <g transform="translate(39.965625 249.785645) scale(0.1 -0.1)">
       <use xlink:href="#DejaVuSans-30"/>
      </g>
     </g>
    </g>
    <g id="ytick_2">
     <g id="line2d_8">
      <g>
       <use xlink:href="#m057defd516" x="53.328125" y="208.126487" style="stroke: #000000; stroke-width: 0.8"/>
      </g>
     </g>
     <g id="text_9">
      <!-- 1000 -->
      <g transform="translate(20.878125 211.925706) scale(0.1 -0.1)">
       <use xlink:href="#DejaVuSans-31"/>
       <use xlink:href="#DejaVuSans-30" transform="translate(63.623047 0)"/>
       <use xlink:href="#DejaVuSans-30" transform="translate(127.246094 0)"/>
       <use xlink:href="#DejaVuSans-30" transform="translate(190.869141 0)"/>
      </g>
     </g>
    </g>
    <g id="ytick_3">
     <g id="line2d_9">
      <g>
       <use xlink:href="#m057defd516" x="53.328125" y="170.266547" style="stroke: #000000; stroke-width: 0.8"/>
      </g>
     </g>
     <g id="text_10">
      <!-- 2000 -->
      <g transform="translate(20.878125 174.065766) scale(0.1 -0.1)">
       <use xlink:href="#DejaVuSans-32"/>
       <use xlink:href="#DejaVuSans-30" transform="translate(63.623047 0)"/>
       <use xlink:href="#DejaVuSans-30" transform="translate(127.246094 0)"/>
       <use xlink:href="#DejaVuSans-30" transform="translate(190.869141 0)"/>
      </g>
     </g>
    </g>
    <g id="ytick_4">
     <g id="line2d_10">
      <g>
       <use xlink:href="#m057defd516" x="53.328125" y="132.406607" style="stroke: #000000; stroke-width: 0.8"/>
      </g>
     </g>
     <g id="text_11">
      <!-- 3000 -->
      <g transform="translate(20.878125 136.205826) scale(0.1 -0.1)">
       <use xlink:href="#DejaVuSans-33"/>
       <use xlink:href="#DejaVuSans-30" transform="translate(63.623047 0)"/>
       <use xlink:href="#DejaVuSans-30" transform="translate(127.246094 0)"/>
       <use xlink:href="#DejaVuSans-30" transform="translate(190.869141 0)"/>
      </g>
     </g>
    </g>
    <g id="ytick_5">
     <g id="line2d_11">
      <g>
       <use xlink:href="#m057defd516" x="53.328125" y="94.546667" style="stroke: #000000; stroke-width: 0.8"/>
      </g>
     </g>
     <g id="text_12">
      <!-- 4000 -->
      <g transform="translate(20.878125 98.345886) scale(0.1 -0.1)">
       <use xlink:href="#DejaVuSans-34"/>
       <use xlink:href="#DejaVuSans-30" transform="translate(63.623047 0)"/>
       <use xlink:href="#DejaVuSans-30" transform="translate(127.246094 0)"/>
       <use xlink:href="#DejaVuSans-30" transform="translate(190.869141 0)"/>
      </g>
     </g>
    </g>
    <g id="ytick_6">
     <g id="line2d_12">
      <g>
       <use xlink:href="#m057defd516" x="53.328125" y="56.686727" style="stroke: #000000; stroke-width: 0.8"/>
      </g>
     </g>
     <g id="text_13">
      <!-- 5000 -->
      <g transform="translate(20.878125 60.485946) scale(0.1 -0.1)">
       <use xlink:href="#DejaVuSans-35"/>
       <use xlink:href="#DejaVuSans-30" transform="translate(63.623047 0)"/>
       <use xlink:href="#DejaVuSans-30" transform="translate(127.246094 0)"/>
       <use xlink:href="#DejaVuSans-30" transform="translate(190.869141 0)"/>
      </g>
     </g>
    </g>
    <g id="ytick_7">
     <g id="line2d_13">
      <g>
       <use xlink:href="#m057defd516" x="53.328125" y="18.826788" style="stroke: #000000; stroke-width: 0.8"/>
      </g>
     </g>
     <g id="text_14">
      <!-- 6000 -->
      <g transform="translate(20.878125 22.626006) scale(0.1 -0.1)">
       <defs>
        <path id="DejaVuSans-36" d="M 2113 2584 
Q 1688 2584 1439 2293 
Q 1191 2003 1191 1497 
Q 1191 994 1439 701 
Q 1688 409 2113 409 
Q 2538 409 2786 701 
Q 3034 994 3034 1497 
Q 3034 2003 2786 2293 
Q 2538 2584 2113 2584 
z
M 3366 4563 
L 3366 3988 
Q 3128 4100 2886 4159 
Q 2644 4219 2406 4219 
Q 1781 4219 1451 3797 
Q 1122 3375 1075 2522 
Q 1259 2794 1537 2939 
Q 1816 3084 2150 3084 
Q 2853 3084 3261 2657 
Q 3669 2231 3669 1497 
Q 3669 778 3244 343 
Q 2819 -91 2113 -91 
Q 1303 -91 875 529 
Q 447 1150 447 2328 
Q 447 3434 972 4092 
Q 1497 4750 2381 4750 
Q 2619 4750 2861 4703 
Q 3103 4656 3366 4563 
z
" transform="scale(0.015625)"/>
       </defs>
       <use xlink:href="#DejaVuSans-36"/>
       <use xlink:href="#DejaVuSans-30" transform="translate(63.623047 0)"/>
       <use xlink:href="#DejaVuSans-30" transform="translate(127.246094 0)"/>
       <use xlink:href="#DejaVuSans-30" transform="translate(190.869141 0)"/>
      </g>
     </g>
    </g>
    <g id="text_15">
     <!-- pulse:0 [counts] -->
     <g transform="translate(14.798438 172.659916) rotate(-90) scale(0.1 -0.1)">
      <defs>
       <path id="DejaVuSans-70" d="M 1159 525 
L 1159 -1331 
L 581 -1331 
L 581 3500 
L 1159 3500 
L 1159 2969 
Q 1341 3281 1617 3432 
Q 1894 3584 2278 3584 
Q 2916 3584 3314 3078 
Q 3713 2572 3713 1747 
Q 3713 922 3314 415 
Q 2916 -91 2278 -91 
Q 1894 -91 1617 61 
Q 1341 213 1159 525 
z
M 3116 1747 
Q 3116 2381 2855 2742 
Q 2594 3103 2138 3103 
Q 1681 3103 1420 2742 
Q 1159 2381 1159 1747 
Q 1159 1113 1420 752 
Q 1681 391 2138 391 
Q 2594 391 2855 752 
Q 3116 1113 3116 1747 
z
" transform="scale(0.015625)"/>
       <path id="DejaVuSans-75" d="M 544 1381 
L 544 3500 
L 1119 3500 
L 1119 1403 
Q 1119 906 1312 657 
Q 1506 409 1894 409 
Q 2359 409 2629 706 
Q 2900 1003 2900 1516 
L 2900 3500 
L 3475 3500 
L 3475 0 
L 2900 0 
L 2900 538 
Q 2691 219 2414 64 
Q 2138 -91 1772 -91 
Q 1169 -91 856 284 
Q 544 659 544 1381 
z
M 1991 3584 
L 1991 3584 
z
" transform="scale(0.015625)"/>
       <path id="DejaVuSans-6c" d="M 603 4863 
L 1178 4863 
L 1178 0 
L 603 0 
L 603 4863 
z
" transform="scale(0.015625)"/>
       <path id="DejaVuSans-3a" d="M 750 794 
L 1409 794 
L 1409 0 
L 750 0 
L 750 794 
z
M 750 3309 
L 1409 3309 
L 1409 2516 
L 750 2516 
L 750 3309 
z
" transform="scale(0.015625)"/>
       <path id="DejaVuSans-63" d="M 3122 3366 
L 3122 2828 
Q 2878 2963 2633 3030 
Q 2388 3097 2138 3097 
Q 1578 3097 1268 2742 
Q 959 2388 959 1747 
Q 959 1106 1268 751 
Q 1578 397 2138 397 
Q 2388 397 2633 464 
Q 2878 531 3122 666 
L 3122 134 
Q 2881 22 2623 -34 
Q 2366 -91 2075 -91 
Q 1284 -91 818 406 
Q 353 903 353 1747 
Q 353 2603 823 3093 
Q 1294 3584 2113 3584 
Q 2378 3584 2631 3529 
Q 2884 3475 3122 3366 
z
" transform="scale(0.015625)"/>
       <path id="DejaVuSans-6f" d="M 1959 3097 
Q 1497 3097 1228 2736 
Q 959 2375 959 1747 
Q 959 1119 1226 758 
Q 1494 397 1959 397 
Q 2419 397 2687 759 
Q 2956 1122 2956 1747 
Q 2956 2369 2687 2733 
Q 2419 3097 1959 3097 
z
M 1959 3584 
Q 2709 3584 3137 3096 
Q 3566 2609 3566 1747 
Q 3566 888 3137 398 
Q 2709 -91 1959 -91 
Q 1206 -91 779 398 
Q 353 888 353 1747 
Q 353 2609 779 3096 
Q 1206 3584 1959 3584 
z
" transform="scale(0.015625)"/>
       <path id="DejaVuSans-6e" d="M 3513 2113 
L 3513 0 
L 2938 0 
L 2938 2094 
Q 2938 2591 2744 2837 
Q 2550 3084 2163 3084 
Q 1697 3084 1428 2787 
Q 1159 2491 1159 1978 
L 1159 0 
L 581 0 
L 581 3500 
L 1159 3500 
L 1159 2956 
Q 1366 3272 1645 3428 
Q 1925 3584 2291 3584 
Q 2894 3584 3203 3211 
Q 3513 2838 3513 2113 
z
" transform="scale(0.015625)"/>
      </defs>
      <use xlink:href="#DejaVuSans-70"/>
      <use xlink:href="#DejaVuSans-75" transform="translate(63.476562 0)"/>
      <use xlink:href="#DejaVuSans-6c" transform="translate(126.855469 0)"/>
      <use xlink:href="#DejaVuSans-73" transform="translate(154.638672 0)"/>
      <use xlink:href="#DejaVuSans-65" transform="translate(206.738281 0)"/>
      <use xlink:href="#DejaVuSans-3a" transform="translate(268.261719 0)"/>
      <use xlink:href="#DejaVuSans-30" transform="translate(301.953125 0)"/>
      <use xlink:href="#DejaVuSans-20" transform="translate(365.576172 0)"/>
      <use xlink:href="#DejaVuSans-5b" transform="translate(397.363281 0)"/>
      <use xlink:href="#DejaVuSans-63" transform="translate(436.376953 0)"/>
      <use xlink:href="#DejaVuSans-6f" transform="translate(491.357422 0)"/>
      <use xlink:href="#DejaVuSans-75" transform="translate(552.539062 0)"/>
      <use xlink:href="#DejaVuSans-6e" transform="translate(615.917969 0)"/>
      <use xlink:href="#DejaVuSans-74" transform="translate(679.296875 0)"/>
      <use xlink:href="#DejaVuSans-73" transform="translate(718.505859 0)"/>
      <use xlink:href="#DejaVuSans-5d" transform="translate(770.605469 0)"/>
     </g>
    </g>
   </g>
   <g id="line2d_14">
    <path d="M 69.604961 234.136266 
L 70.690083 234.136266 
L 70.690083 227.132177 
L 71.775205 227.132177 
L 71.775205 220.430967 
L 72.860328 220.430967 
L 72.860328 211.003842 
L 73.94545 211.003842 
L 73.94545 203.166835 
L 75.030573 203.166835 
L 75.030573 193.133951 
L 76.115695 193.133951 
L 76.115695 183.971845 
L 77.200817 183.971845 
L 77.200817 172.727443 
L 78.28594 172.727443 
L 78.28594 165.458335 
L 79.371062 165.458335 
L 79.371062 161.180161 
L 80.456184 161.180161 
L 80.456184 151.336577 
L 81.541307 151.336577 
L 81.541307 147.437003 
L 82.626429 147.437003 
L 82.626429 137.290539 
L 83.711552 137.290539 
L 83.711552 133.580265 
L 84.796674 133.580265 
L 84.796674 128.242014 
L 85.881796 128.242014 
L 85.881796 119.155628 
L 86.966919 119.155628 
L 86.966919 113.817377 
L 88.052041 113.817377 
L 88.052041 112.454419 
L 89.137163 112.454419 
L 89.137163 107.873366 
L 90.222286 107.873366 
L 90.222286 98.90056 
L 91.307408 98.90056 
L 91.307408 100.907137 
L 92.392531 100.907137 
L 92.392531 96.363944 
L 93.477653 96.363944 
L 93.477653 91.063553 
L 94.562775 91.063553 
L 94.562775 88.451217 
L 95.647898 88.451217 
L 95.647898 81.825727 
L 96.73302 81.825727 
L 96.73302 80.27347 
L 97.818143 80.27347 
L 97.818143 76.336036 
L 98.903265 76.336036 
L 98.903265 71.830703 
L 99.988387 71.830703 
L 99.988387 74.1023 
L 101.07351 74.1023 
L 101.07351 73.042221 
L 102.158632 73.042221 
L 102.158632 70.089146 
L 103.243754 70.089146 
L 103.243754 66.113852 
L 104.328877 66.113852 
L 104.328877 61.1542 
L 105.413999 61.1542 
L 105.413999 60.056262 
L 107.584244 60.131982 
L 107.584244 52.635714 
L 108.669366 52.635714 
L 108.669366 60.359142 
L 109.754489 60.359142 
L 109.754489 55.967389 
L 110.839611 55.967389 
L 110.839611 50.023378 
L 111.924733 50.023378 
L 111.924733 50.212678 
L 113.009856 50.212678 
L 113.009856 46.691703 
L 114.094978 46.691703 
L 114.094978 51.575636 
L 115.180101 51.575636 
L 115.180101 46.956723 
L 116.265223 46.956723 
L 116.265223 46.464544 
L 117.350345 46.464544 
L 117.350345 47.713922 
L 118.435468 47.713922 
L 118.435468 46.918863 
L 119.52059 46.918863 
L 119.52059 42.45139 
L 120.605712 42.45139 
L 120.605712 38.400376 
L 121.690835 38.400376 
L 121.690835 43.852208 
L 122.775957 43.852208 
L 122.775957 48.5847 
L 123.86108 48.5847 
L 123.86108 44.420107 
L 124.946202 44.420107 
L 124.946202 36.923839 
L 126.031324 36.923839 
L 126.031324 37.870337 
L 127.116447 37.870337 
L 127.116447 40.709833 
L 128.201569 40.709833 
L 128.201569 34.803682 
L 129.286692 34.803682 
L 129.286692 35.560881 
L 130.371814 35.560881 
L 130.371814 33.630024 
L 131.456936 33.630024 
L 131.456936 37.794617 
L 132.542059 37.794617 
L 132.542059 31.812747 
L 133.627181 31.812747 
L 133.627181 37.491738 
L 134.712303 37.491738 
L 134.712303 32.721385 
L 135.797426 32.721385 
L 135.797426 32.948545 
L 136.882548 32.948545 
L 136.882548 30.14691 
L 137.967671 30.14691 
L 137.967671 32.304926 
L 139.052793 32.304926 
L 139.052793 28.178193 
L 140.137915 28.178193 
L 140.137915 33.175705 
L 141.223038 33.175705 
L 141.223038 31.017688 
L 142.30816 31.017688 
L 142.30816 31.661307 
L 143.393282 31.661307 
L 143.393282 33.592164 
L 144.478405 33.592164 
L 144.478405 29.65473 
L 145.563527 29.65473 
L 145.563527 30.07119 
L 146.64865 30.07119 
L 146.64865 28.064613 
L 147.733772 28.064613 
L 147.733772 31.661307 
L 148.818894 31.661307 
L 148.818894 25.225117 
L 149.904017 25.225117 
L 149.904017 33.705744 
L 150.989139 33.705744 
L 150.989139 33.516444 
L 152.074261 33.516444 
L 152.074261 28.897532 
L 153.159384 28.897532 
L 153.159384 26.625935 
L 154.244506 26.625935 
L 154.244506 26.966675 
L 155.329629 26.966675 
L 155.329629 29.503291 
L 156.414751 29.503291 
L 156.414751 24.392199 
L 157.499873 24.392199 
L 157.499873 25.262977 
L 158.584996 25.262977 
L 158.584996 21.287684 
L 159.670118 21.287684 
L 159.670118 31.093408 
L 160.75524 31.093408 
L 160.75524 31.396288 
L 161.840363 31.396288 
L 161.840363 25.490137 
L 162.925485 25.490137 
L 162.925485 32.267066 
L 164.010608 32.267066 
L 164.010608 29.65473 
L 165.09573 29.65473 
L 165.09573 33.327145 
L 166.180852 33.327145 
L 166.180852 25.414417 
L 167.265975 25.414417 
L 167.265975 32.304926 
L 168.351097 32.304926 
L 168.351097 24.846518 
L 169.43622 24.846518 
L 169.43622 29.427571 
L 170.521342 29.427571 
L 170.521342 27.080254 
L 171.606464 27.080254 
L 171.606464 22.953521 
L 172.691587 22.953521 
L 172.691587 28.670372 
L 173.776709 28.670372 
L 173.776709 28.291773 
L 174.861831 28.291773 
L 174.861831 27.761733 
L 175.946954 27.761733 
L 175.946954 26.815235 
L 177.032076 26.815235 
L 177.032076 25.982316 
L 178.117199 25.982316 
L 178.117199 20.227605 
L 179.202321 20.227605 
L 179.202321 26.701655 
L 180.287443 26.701655 
L 180.287443 21.628423 
L 181.372566 21.628423 
L 181.372566 28.253913 
L 182.457688 28.253913 
L 182.457688 27.610294 
L 183.54281 27.610294 
L 183.54281 28.821812 
L 184.627933 28.821812 
L 184.627933 26.474495 
L 185.713055 26.474495 
L 185.713055 27.383134 
L 186.798178 27.383134 
L 186.798178 23.2564 
L 187.8833 23.2564 
L 187.8833 33.327145 
L 188.968422 33.327145 
L 188.968422 31.964187 
L 190.053545 31.964187 
L 190.053545 28.783952 
L 191.138667 28.783952 
L 191.138667 24.808658 
L 192.223789 24.808658 
L 192.223789 25.111538 
L 193.308912 25.111538 
L 193.308912 26.663795 
L 194.394034 26.663795 
L 194.394034 24.808658 
L 195.479157 24.808658 
L 195.479157 27.345274 
L 196.564279 27.345274 
L 196.564279 24.581498 
L 197.649401 24.581498 
L 197.649401 29.313991 
L 198.734524 29.313991 
L 198.734524 30.14691 
L 199.819646 30.14691 
L 199.819646 23.59714 
L 200.904769 23.59714 
L 200.904769 26.853095 
L 201.989891 26.853095 
L 201.989891 26.701655 
L 203.075013 26.701655 
L 203.075013 28.708232 
L 204.160136 28.708232 
L 204.160136 27.004535 
L 205.245258 27.004535 
L 205.245258 22.991381 
L 206.33038 22.991381 
L 206.33038 31.737027 
L 207.415503 31.737027 
L 207.415503 25.490137 
L 208.500625 25.490137 
L 208.500625 27.913173 
L 210.67087 27.913173 
L 210.67087 30.487649 
L 211.755992 30.487649 
L 211.755992 26.020176 
L 212.841115 26.020176 
L 212.841115 24.695078 
L 213.926237 24.695078 
L 213.926237 26.247336 
L 215.011359 26.247336 
L 215.011359 21.628423 
L 216.096482 21.628423 
L 216.096482 27.534574 
L 217.181604 27.534574 
L 217.181604 26.436635 
L 218.266727 26.436635 
L 218.266727 27.383134 
L 219.351849 27.383134 
L 219.351849 27.534574 
L 220.436971 27.534574 
L 220.436971 29.048971 
L 221.522094 29.048971 
L 221.522094 22.764221 
L 222.607216 22.764221 
L 222.607216 22.877801 
L 223.692338 22.877801 
L 223.692338 26.474495 
L 224.777461 26.474495 
L 224.777461 30.563369 
L 225.862583 30.563369 
L 225.862583 25.641577 
L 226.947706 25.641577 
L 226.947706 25.906596 
L 228.032828 25.906596 
L 228.032828 28.178193 
L 229.11795 28.178193 
L 229.11795 23.74858 
L 230.203073 23.74858 
L 230.203073 18.561768 
L 231.288195 18.561768 
L 231.288195 26.663795 
L 232.373317 26.663795 
L 232.373317 28.859672 
L 233.45844 28.859672 
L 233.45844 22.650641 
L 234.543562 22.650641 
L 234.543562 27.307414 
L 235.628685 27.307414 
L 235.628685 28.102473 
L 236.713807 28.102473 
L 236.713807 26.171616 
L 237.798929 26.171616 
L 237.798929 21.476983 
L 238.884052 21.476983 
L 238.884052 21.249824 
L 239.969174 21.249824 
L 239.969174 24.127179 
L 241.054297 24.127179 
L 241.054297 30.752669 
L 242.139419 30.752669 
L 242.139419 30.904108 
L 243.224541 30.904108 
L 243.224541 26.853095 
L 244.309664 26.853095 
L 244.309664 29.69259 
L 245.394786 29.69259 
L 245.394786 27.610294 
L 246.479908 27.610294 
L 246.479908 29.351851 
L 247.565031 29.351851 
L 247.565031 23.33212 
L 248.650153 23.33212 
L 248.650153 26.815235 
L 249.735276 26.815235 
L 249.735276 23.218541 
L 250.820398 23.218541 
L 250.820398 29.95761 
L 251.90552 29.95761 
L 251.90552 27.761733 
L 252.990643 27.761733 
L 252.990643 23.36998 
L 254.075765 23.36998 
L 254.075765 30.487649 
L 255.160887 30.487649 
L 255.160887 29.086831 
L 256.24601 29.086831 
L 256.24601 37.416018 
L 257.331132 37.416018 
L 257.331132 44.722986 
L 258.416255 44.722986 
L 258.416255 53.620072 
L 259.501377 53.620072 
L 259.501377 58.125405 
L 260.586499 58.125405 
L 260.586499 66.568172 
L 261.671622 66.568172 
L 261.671622 77.509694 
L 262.756744 77.509694 
L 262.756744 89.738455 
L 263.841866 89.738455 
L 263.841866 93.10799 
L 264.926989 93.10799 
L 264.926989 101.323597 
L 266.012111 101.323597 
L 266.012111 108.895584 
L 267.097234 108.895584 
L 267.097234 119.231348 
L 268.182356 119.231348 
L 268.182356 125.288938 
L 269.267478 125.288938 
L 269.267478 131.346529 
L 270.352601 131.346529 
L 270.352601 135.624702 
L 271.437723 135.624702 
L 271.437723 145.241127 
L 272.522846 145.241127 
L 272.522846 147.853463 
L 273.607968 147.853463 
L 273.607968 156.371949 
L 274.69309 156.371949 
L 274.69309 161.255881 
L 275.778213 161.255881 
L 275.778213 165.344755 
L 276.863335 165.344755 
L 276.863335 168.941449 
L 277.948457 168.941449 
L 277.948457 176.096978 
L 279.03358 176.096978 
L 279.03358 177.346356 
L 280.118702 177.346356 
L 280.118702 179.352933 
L 281.203825 179.352933 
L 281.203825 183.366086 
L 282.288947 183.366086 
L 282.288947 187.30352 
L 283.374069 187.30352 
L 283.374069 189.082937 
L 284.459192 189.082937 
L 284.459192 193.81543 
L 285.544314 193.81543 
L 285.544314 197.601424 
L 286.629436 197.601424 
L 286.629436 198.699362 
L 287.714559 198.699362 
L 287.714559 203.356134 
L 288.799681 203.356134 
L 288.799681 204.794812 
L 289.884804 204.794812 
L 289.884804 206.08205 
L 290.969926 206.08205 
L 290.969926 209.981624 
L 292.055048 209.981624 
L 292.055048 209.489445 
L 293.140171 209.489445 
L 293.140171 212.139641 
L 294.225293 212.139641 
L 294.225293 213.843338 
L 295.310415 213.843338 
L 295.310415 215.471315 
L 296.395538 215.471315 
L 296.395538 216.379954 
L 297.48066 216.379954 
L 297.48066 218.72727 
L 298.565783 218.72727 
L 298.565783 219.863068 
L 299.650905 219.863068 
L 299.650905 221.566766 
L 300.736027 221.566766 
L 300.736027 224.406261 
L 301.82115 224.406261 
L 301.82115 222.210385 
L 302.906272 222.210385 
L 302.906272 225.579919 
L 305.076517 225.542059 
L 305.076517 227.586496 
L 306.161639 227.586496 
L 306.161639 228.684434 
L 307.246762 228.684434 
L 307.246762 230.236692 
L 308.331884 230.236692 
L 308.331884 231.03175 
L 309.417006 231.03175 
L 309.417006 231.63751 
L 311.587251 231.713229 
L 311.587251 232.924747 
L 312.672374 232.924747 
L 312.672374 233.568366 
L 313.757496 233.568366 
L 313.757496 234.779885 
L 314.842618 234.779885 
L 314.842618 233.265487 
L 315.927741 233.265487 
L 315.927741 234.249845 
L 317.012863 234.249845 
L 317.012863 236.256422 
L 318.097985 236.256422 
L 318.097985 235.991403 
L 319.183108 235.991403 
L 319.183108 235.839963 
L 320.26823 235.839963 
L 320.26823 236.975761 
L 321.353353 236.975761 
L 321.353353 237.316501 
L 322.438475 237.316501 
L 322.438475 236.559302 
L 323.523597 236.559302 
L 323.523597 238.944478 
L 324.60872 238.944478 
L 324.60872 239.777397 
L 327.864087 239.853116 
L 327.864087 239.209498 
L 328.949209 239.209498 
L 328.949209 240.155996 
L 330.034332 240.155996 
L 330.034332 240.648175 
L 331.119454 240.648175 
L 331.119454 241.216074 
L 332.204576 241.216074 
L 332.204576 241.443234 
L 333.289699 241.443234 
L 333.289699 241.821833 
L 335.459943 241.897553 
L 335.459943 241.178214 
L 336.545066 241.178214 
L 336.545066 242.238293 
L 337.630188 242.238293 
L 337.630188 242.579032 
L 338.715311 242.579032 
L 338.715311 241.594674 
L 339.800433 241.594674 
L 339.800433 242.579032 
L 340.885555 242.579032 
L 340.885555 242.465452 
L 343.0558 242.427592 
L 343.0558 242.957632 
L 344.140923 242.957632 
L 344.140923 243.487671 
L 345.226045 243.487671 
L 345.226045 243.86627 
L 346.311167 243.86627 
L 346.311167 243.67697 
L 347.39629 243.67697 
L 347.39629 243.97985 
L 349.566534 243.90413 
L 349.566534 243.63911 
L 350.651657 243.63911 
L 350.651657 244.13129 
L 354.992146 244.20701 
L 354.992146 244.509889 
L 357.162391 244.509889 
L 357.162391 244.623469 
L 358.247513 244.623469 
L 358.247513 244.358449 
L 359.332636 244.358449 
L 359.332636 244.661329 
L 360.417758 244.661329 
L 360.417758 245.002068 
L 361.502881 245.002068 
L 361.502881 244.774909 
L 363.673125 244.812769 
L 363.673125 245.153508 
L 364.758248 245.153508 
L 364.758248 245.039928 
L 366.928492 244.964208 
L 366.928492 245.229228 
L 368.013615 245.229228 
L 368.013615 244.926348 
L 369.098737 244.926348 
L 369.098737 245.380668 
L 370.18386 245.380668 
L 370.18386 245.191368 
L 371.268982 245.191368 
L 371.268982 245.304948 
L 372.354104 245.304948 
L 372.354104 245.153508 
L 373.439227 245.153508 
L 373.439227 245.456388 
L 375.609471 245.456388 
L 375.609471 245.115648 
L 376.694594 245.115648 
L 376.694594 245.380668 
L 377.779716 245.380668 
L 377.779716 245.229228 
L 378.864839 245.229228 
L 378.864839 245.532107 
L 379.949961 245.532107 
L 379.949961 245.191368 
L 381.035083 245.191368 
L 381.035083 245.569967 
L 382.120206 245.569967 
L 382.120206 245.797127 
L 383.205328 245.797127 
L 383.205328 245.683547 
L 384.290451 245.683547 
L 384.290451 245.532107 
L 387.545818 245.494248 
L 387.545818 245.683547 
L 388.63094 245.683547 
L 388.63094 245.797127 
L 390.801185 245.797127 
L 390.801185 245.683547 
L 394.056552 245.645687 
L 394.056552 245.797127 
L 395.141674 245.797127 
L 395.141674 245.797127 
" clip-path="url(#p849ba22d6a)" style="fill: none; stroke: #1f77b4; stroke-width: 1.5; stroke-linecap: square"/>
   </g>
   <g id="patch_3">
    <path d="M 53.328125 257.158895 
L 53.328125 7.2 
" style="fill: none; stroke: #000000; stroke-width: 0.8; stroke-linejoin: miter; stroke-linecap: square"/>
   </g>
   <g id="patch_4">
    <path d="M 411.41851 257.158895 
L 411.41851 7.2 
" style="fill: none; stroke: #000000; stroke-width: 0.8; stroke-linejoin: miter; stroke-linecap: square"/>
   </g>
   <g id="patch_5">
    <path d="M 53.328125 257.158895 
L 411.41851 257.158895 
" style="fill: none; stroke: #000000; stroke-width: 0.8; stroke-linejoin: miter; stroke-linecap: square"/>
   </g>
   <g id="patch_6">
    <path d="M 53.328125 7.2 
L 411.41851 7.2 
" style="fill: none; stroke: #000000; stroke-width: 0.8; stroke-linejoin: miter; stroke-linecap: square"/>
   </g>
  </g>
  <g id="axes_2">
   <g id="patch_7">
    <path d="M 507.109135 257.158895 
L 865.19952 257.158895 
L 865.19952 7.2 
L 507.109135 7.2 
z
" style="fill: #ffffff"/>
   </g>
   <g id="matplotlib.axis_3">
    <g id="xtick_7">
     <g id="line2d_15">
      <g>
       <use xlink:href="#mc87a3b62b6" x="520.105889" y="257.158895" style="stroke: #000000; stroke-width: 0.8"/>
      </g>
     </g>
     <g id="text_16">
      <!-- 0.0 -->
      <g transform="translate(512.154326 271.757332) scale(0.1 -0.1)">
       <defs>
        <path id="DejaVuSans-2e" d="M 684 794 
L 1344 794 
L 1344 0 
L 684 0 
L 684 794 
z
" transform="scale(0.015625)"/>
       </defs>
       <use xlink:href="#DejaVuSans-30"/>
       <use xlink:href="#DejaVuSans-2e" transform="translate(63.623047 0)"/>
       <use xlink:href="#DejaVuSans-30" transform="translate(95.410156 0)"/>
      </g>
     </g>
    </g>
    <g id="xtick_8">
     <g id="line2d_16">
      <g>
       <use xlink:href="#mc87a3b62b6" x="561.413465" y="257.158895" style="stroke: #000000; stroke-width: 0.8"/>
      </g>
     </g>
     <g id="text_17">
      <!-- 2.5 -->
      <g transform="translate(553.461903 271.757332) scale(0.1 -0.1)">
       <use xlink:href="#DejaVuSans-32"/>
       <use xlink:href="#DejaVuSans-2e" transform="translate(63.623047 0)"/>
       <use xlink:href="#DejaVuSans-35" transform="translate(95.410156 0)"/>
      </g>
     </g>
    </g>
    <g id="xtick_9">
     <g id="line2d_17">
      <g>
       <use xlink:href="#mc87a3b62b6" x="602.721042" y="257.158895" style="stroke: #000000; stroke-width: 0.8"/>
      </g>
     </g>
     <g id="text_18">
      <!-- 5.0 -->
      <g transform="translate(594.769479 271.757332) scale(0.1 -0.1)">
       <use xlink:href="#DejaVuSans-35"/>
       <use xlink:href="#DejaVuSans-2e" transform="translate(63.623047 0)"/>
       <use xlink:href="#DejaVuSans-30" transform="translate(95.410156 0)"/>
      </g>
     </g>
    </g>
    <g id="xtick_10">
     <g id="line2d_18">
      <g>
       <use xlink:href="#mc87a3b62b6" x="644.028618" y="257.158895" style="stroke: #000000; stroke-width: 0.8"/>
      </g>
     </g>
     <g id="text_19">
      <!-- 7.5 -->
      <g transform="translate(636.077055 271.757332) scale(0.1 -0.1)">
       <defs>
        <path id="DejaVuSans-37" d="M 525 4666 
L 3525 4666 
L 3525 4397 
L 1831 0 
L 1172 0 
L 2766 4134 
L 525 4134 
L 525 4666 
z
" transform="scale(0.015625)"/>
       </defs>
       <use xlink:href="#DejaVuSans-37"/>
       <use xlink:href="#DejaVuSans-2e" transform="translate(63.623047 0)"/>
       <use xlink:href="#DejaVuSans-35" transform="translate(95.410156 0)"/>
      </g>
     </g>
    </g>
    <g id="xtick_11">
     <g id="line2d_19">
      <g>
       <use xlink:href="#mc87a3b62b6" x="685.336194" y="257.158895" style="stroke: #000000; stroke-width: 0.8"/>
      </g>
     </g>
     <g id="text_20">
      <!-- 10.0 -->
      <g transform="translate(674.203382 271.757332) scale(0.1 -0.1)">
       <use xlink:href="#DejaVuSans-31"/>
       <use xlink:href="#DejaVuSans-30" transform="translate(63.623047 0)"/>
       <use xlink:href="#DejaVuSans-2e" transform="translate(127.246094 0)"/>
       <use xlink:href="#DejaVuSans-30" transform="translate(159.033203 0)"/>
      </g>
     </g>
    </g>
    <g id="xtick_12">
     <g id="line2d_20">
      <g>
       <use xlink:href="#mc87a3b62b6" x="726.64377" y="257.158895" style="stroke: #000000; stroke-width: 0.8"/>
      </g>
     </g>
     <g id="text_21">
      <!-- 12.5 -->
      <g transform="translate(715.510958 271.757332) scale(0.1 -0.1)">
       <use xlink:href="#DejaVuSans-31"/>
       <use xlink:href="#DejaVuSans-32" transform="translate(63.623047 0)"/>
       <use xlink:href="#DejaVuSans-2e" transform="translate(127.246094 0)"/>
       <use xlink:href="#DejaVuSans-35" transform="translate(159.033203 0)"/>
      </g>
     </g>
    </g>
    <g id="xtick_13">
     <g id="line2d_21">
      <g>
       <use xlink:href="#mc87a3b62b6" x="767.951347" y="257.158895" style="stroke: #000000; stroke-width: 0.8"/>
      </g>
     </g>
     <g id="text_22">
      <!-- 15.0 -->
      <g transform="translate(756.818534 271.757332) scale(0.1 -0.1)">
       <use xlink:href="#DejaVuSans-31"/>
       <use xlink:href="#DejaVuSans-35" transform="translate(63.623047 0)"/>
       <use xlink:href="#DejaVuSans-2e" transform="translate(127.246094 0)"/>
       <use xlink:href="#DejaVuSans-30" transform="translate(159.033203 0)"/>
      </g>
     </g>
    </g>
    <g id="xtick_14">
     <g id="line2d_22">
      <g>
       <use xlink:href="#mc87a3b62b6" x="809.258923" y="257.158895" style="stroke: #000000; stroke-width: 0.8"/>
      </g>
     </g>
     <g id="text_23">
      <!-- 17.5 -->
      <g transform="translate(798.12611 271.757332) scale(0.1 -0.1)">
       <use xlink:href="#DejaVuSans-31"/>
       <use xlink:href="#DejaVuSans-37" transform="translate(63.623047 0)"/>
       <use xlink:href="#DejaVuSans-2e" transform="translate(127.246094 0)"/>
       <use xlink:href="#DejaVuSans-35" transform="translate(159.033203 0)"/>
      </g>
     </g>
    </g>
    <g id="xtick_15">
     <g id="line2d_23">
      <g>
       <use xlink:href="#mc87a3b62b6" x="850.566499" y="257.158895" style="stroke: #000000; stroke-width: 0.8"/>
      </g>
     </g>
     <g id="text_24">
      <!-- 20.0 -->
      <g transform="translate(839.433687 271.757332) scale(0.1 -0.1)">
       <use xlink:href="#DejaVuSans-32"/>
       <use xlink:href="#DejaVuSans-30" transform="translate(63.623047 0)"/>
       <use xlink:href="#DejaVuSans-2e" transform="translate(127.246094 0)"/>
       <use xlink:href="#DejaVuSans-30" transform="translate(159.033203 0)"/>
      </g>
     </g>
    </g>
    <g id="text_25">
     <!-- wavelength [Å] -->
     <g transform="translate(648.116827 287.119832) scale(0.1 -0.1)">
      <defs>
       <path id="DejaVuSans-77" d="M 269 3500 
L 844 3500 
L 1563 769 
L 2278 3500 
L 2956 3500 
L 3675 769 
L 4391 3500 
L 4966 3500 
L 4050 0 
L 3372 0 
L 2619 2869 
L 1863 0 
L 1184 0 
L 269 3500 
z
" transform="scale(0.015625)"/>
       <path id="DejaVuSans-61" d="M 2194 1759 
Q 1497 1759 1228 1600 
Q 959 1441 959 1056 
Q 959 750 1161 570 
Q 1363 391 1709 391 
Q 2188 391 2477 730 
Q 2766 1069 2766 1631 
L 2766 1759 
L 2194 1759 
z
M 3341 1997 
L 3341 0 
L 2766 0 
L 2766 531 
Q 2569 213 2275 61 
Q 1981 -91 1556 -91 
Q 1019 -91 701 211 
Q 384 513 384 1019 
Q 384 1609 779 1909 
Q 1175 2209 1959 2209 
L 2766 2209 
L 2766 2266 
Q 2766 2663 2505 2880 
Q 2244 3097 1772 3097 
Q 1472 3097 1187 3025 
Q 903 2953 641 2809 
L 641 3341 
Q 956 3463 1253 3523 
Q 1550 3584 1831 3584 
Q 2591 3584 2966 3190 
Q 3341 2797 3341 1997 
z
" transform="scale(0.015625)"/>
       <path id="DejaVuSans-76" d="M 191 3500 
L 800 3500 
L 1894 563 
L 2988 3500 
L 3597 3500 
L 2284 0 
L 1503 0 
L 191 3500 
z
" transform="scale(0.015625)"/>
       <path id="DejaVuSans-67" d="M 2906 1791 
Q 2906 2416 2648 2759 
Q 2391 3103 1925 3103 
Q 1463 3103 1205 2759 
Q 947 2416 947 1791 
Q 947 1169 1205 825 
Q 1463 481 1925 481 
Q 2391 481 2648 825 
Q 2906 1169 2906 1791 
z
M 3481 434 
Q 3481 -459 3084 -895 
Q 2688 -1331 1869 -1331 
Q 1566 -1331 1297 -1286 
Q 1028 -1241 775 -1147 
L 775 -588 
Q 1028 -725 1275 -790 
Q 1522 -856 1778 -856 
Q 2344 -856 2625 -561 
Q 2906 -266 2906 331 
L 2906 616 
Q 2728 306 2450 153 
Q 2172 0 1784 0 
Q 1141 0 747 490 
Q 353 981 353 1791 
Q 353 2603 747 3093 
Q 1141 3584 1784 3584 
Q 2172 3584 2450 3431 
Q 2728 3278 2906 2969 
L 2906 3500 
L 3481 3500 
L 3481 434 
z
" transform="scale(0.015625)"/>
       <path id="DejaVuSans-c5" d="M 2663 5081 
Q 2663 5278 2523 5417 
Q 2384 5556 2188 5556 
Q 1988 5556 1852 5420 
Q 1716 5284 1716 5081 
Q 1716 4884 1853 4746 
Q 1991 4609 2188 4609 
Q 2384 4609 2523 4746 
Q 2663 4884 2663 5081 
z
M 2188 4044 
L 1338 1722 
L 3041 1722 
L 2188 4044 
z
M 1716 4366 
Q 1525 4494 1428 4673 
Q 1331 4853 1331 5081 
Q 1331 5441 1579 5691 
Q 1828 5941 2188 5941 
Q 2544 5941 2795 5689 
Q 3047 5438 3047 5081 
Q 3047 4863 2948 4678 
Q 2850 4494 2663 4366 
L 4325 0 
L 3669 0 
L 3244 1197 
L 1141 1197 
L 716 0 
L 50 0 
L 1716 4366 
z
" transform="scale(0.015625)"/>
      </defs>
      <use xlink:href="#DejaVuSans-77"/>
      <use xlink:href="#DejaVuSans-61" transform="translate(81.787109 0)"/>
      <use xlink:href="#DejaVuSans-76" transform="translate(143.066406 0)"/>
      <use xlink:href="#DejaVuSans-65" transform="translate(202.246094 0)"/>
      <use xlink:href="#DejaVuSans-6c" transform="translate(263.769531 0)"/>
      <use xlink:href="#DejaVuSans-65" transform="translate(291.552734 0)"/>
      <use xlink:href="#DejaVuSans-6e" transform="translate(353.076172 0)"/>
      <use xlink:href="#DejaVuSans-67" transform="translate(416.455078 0)"/>
      <use xlink:href="#DejaVuSans-74" transform="translate(479.931641 0)"/>
      <use xlink:href="#DejaVuSans-68" transform="translate(519.140625 0)"/>
      <use xlink:href="#DejaVuSans-20" transform="translate(582.519531 0)"/>
      <use xlink:href="#DejaVuSans-5b" transform="translate(614.306641 0)"/>
      <use xlink:href="#DejaVuSans-c5" transform="translate(653.320312 0)"/>
      <use xlink:href="#DejaVuSans-5d" transform="translate(721.728516 0)"/>
     </g>
    </g>
   </g>
   <g id="matplotlib.axis_4">
    <g id="ytick_8">
     <g id="line2d_24">
      <g>
       <use xlink:href="#m057defd516" x="507.109135" y="245.849855" style="stroke: #000000; stroke-width: 0.8"/>
      </g>
     </g>
     <g id="text_26">
      <!-- 0 -->
      <g transform="translate(493.746635 249.649074) scale(0.1 -0.1)">
       <use xlink:href="#DejaVuSans-30"/>
      </g>
     </g>
    </g>
    <g id="ytick_9">
     <g id="line2d_25">
      <g>
       <use xlink:href="#m057defd516" x="507.109135" y="193.12214" style="stroke: #000000; stroke-width: 0.8"/>
      </g>
     </g>
     <g id="text_27">
      <!-- 5000 -->
      <g transform="translate(474.659135 196.921359) scale(0.1 -0.1)">
       <use xlink:href="#DejaVuSans-35"/>
       <use xlink:href="#DejaVuSans-30" transform="translate(63.623047 0)"/>
       <use xlink:href="#DejaVuSans-30" transform="translate(127.246094 0)"/>
       <use xlink:href="#DejaVuSans-30" transform="translate(190.869141 0)"/>
      </g>
     </g>
    </g>
    <g id="ytick_10">
     <g id="line2d_26">
      <g>
       <use xlink:href="#m057defd516" x="507.109135" y="140.394425" style="stroke: #000000; stroke-width: 0.8"/>
      </g>
     </g>
     <g id="text_28">
      <!-- 10000 -->
      <g transform="translate(468.296635 144.193644) scale(0.1 -0.1)">
       <use xlink:href="#DejaVuSans-31"/>
       <use xlink:href="#DejaVuSans-30" transform="translate(63.623047 0)"/>
       <use xlink:href="#DejaVuSans-30" transform="translate(127.246094 0)"/>
       <use xlink:href="#DejaVuSans-30" transform="translate(190.869141 0)"/>
       <use xlink:href="#DejaVuSans-30" transform="translate(254.492188 0)"/>
      </g>
     </g>
    </g>
    <g id="ytick_11">
     <g id="line2d_27">
      <g>
       <use xlink:href="#m057defd516" x="507.109135" y="87.666711" style="stroke: #000000; stroke-width: 0.8"/>
      </g>
     </g>
     <g id="text_29">
      <!-- 15000 -->
      <g transform="translate(468.296635 91.46593) scale(0.1 -0.1)">
       <use xlink:href="#DejaVuSans-31"/>
       <use xlink:href="#DejaVuSans-35" transform="translate(63.623047 0)"/>
       <use xlink:href="#DejaVuSans-30" transform="translate(127.246094 0)"/>
       <use xlink:href="#DejaVuSans-30" transform="translate(190.869141 0)"/>
       <use xlink:href="#DejaVuSans-30" transform="translate(254.492188 0)"/>
      </g>
     </g>
    </g>
    <g id="ytick_12">
     <g id="line2d_28">
      <g>
       <use xlink:href="#m057defd516" x="507.109135" y="34.938996" style="stroke: #000000; stroke-width: 0.8"/>
      </g>
     </g>
     <g id="text_30">
      <!-- 20000 -->
      <g transform="translate(468.296635 38.738215) scale(0.1 -0.1)">
       <use xlink:href="#DejaVuSans-32"/>
       <use xlink:href="#DejaVuSans-30" transform="translate(63.623047 0)"/>
       <use xlink:href="#DejaVuSans-30" transform="translate(127.246094 0)"/>
       <use xlink:href="#DejaVuSans-30" transform="translate(190.869141 0)"/>
       <use xlink:href="#DejaVuSans-30" transform="translate(254.492188 0)"/>
      </g>
     </g>
    </g>
    <g id="text_31">
     <!-- pulse:0 [counts] -->
     <g transform="translate(462.216947 172.659916) rotate(-90) scale(0.1 -0.1)">
      <use xlink:href="#DejaVuSans-70"/>
      <use xlink:href="#DejaVuSans-75" transform="translate(63.476562 0)"/>
      <use xlink:href="#DejaVuSans-6c" transform="translate(126.855469 0)"/>
      <use xlink:href="#DejaVuSans-73" transform="translate(154.638672 0)"/>
      <use xlink:href="#DejaVuSans-65" transform="translate(206.738281 0)"/>
      <use xlink:href="#DejaVuSans-3a" transform="translate(268.261719 0)"/>
      <use xlink:href="#DejaVuSans-30" transform="translate(301.953125 0)"/>
      <use xlink:href="#DejaVuSans-20" transform="translate(365.576172 0)"/>
      <use xlink:href="#DejaVuSans-5b" transform="translate(397.363281 0)"/>
      <use xlink:href="#DejaVuSans-63" transform="translate(436.376953 0)"/>
      <use xlink:href="#DejaVuSans-6f" transform="translate(491.357422 0)"/>
      <use xlink:href="#DejaVuSans-75" transform="translate(552.539062 0)"/>
      <use xlink:href="#DejaVuSans-6e" transform="translate(615.917969 0)"/>
      <use xlink:href="#DejaVuSans-74" transform="translate(679.296875 0)"/>
      <use xlink:href="#DejaVuSans-73" transform="translate(718.505859 0)"/>
      <use xlink:href="#DejaVuSans-5d" transform="translate(770.605469 0)"/>
     </g>
    </g>
   </g>
   <g id="line2d_29">
    <path d="M 523.385971 154.746909 
L 524.471093 154.746909 
L 524.471093 145.277012 
L 525.556215 145.277012 
L 525.556215 136.123481 
L 526.641338 136.123481 
L 526.641338 136.640212 
L 527.72646 136.640212 
L 527.72646 147.459939 
L 528.811583 147.459939 
L 528.811583 152.806529 
L 529.896705 152.806529 
L 529.896705 147.734123 
L 530.981827 147.734123 
L 530.981827 127.46559 
L 532.06695 127.46559 
L 532.06695 105.931591 
L 533.152072 105.931591 
L 533.152072 82.752488 
L 534.237194 82.752488 
L 534.237194 59.330837 
L 535.322317 59.330837 
L 535.322317 36.784466 
L 536.407439 36.784466 
L 536.407439 20.038144 
L 537.492562 20.038144 
L 537.492562 21.050516 
L 538.577684 21.050516 
L 538.577684 18.561768 
L 539.662806 18.561768 
L 539.662806 20.82906 
L 540.747929 20.82906 
L 540.747929 30.298957 
L 541.833051 30.298957 
L 541.833051 38.155387 
L 542.918173 38.155387 
L 542.918173 47.54092 
L 544.003296 47.54092 
L 544.003296 57.685732 
L 545.088418 57.685732 
L 545.088418 70.034563 
L 546.173541 70.034563 
L 546.173541 77.722264 
L 547.258663 77.722264 
L 547.258663 83.975771 
L 548.343785 83.975771 
L 548.343785 90.514007 
L 549.428908 90.514007 
L 549.428908 94.468586 
L 550.51403 94.468586 
L 550.51403 95.850052 
L 551.599153 95.850052 
L 551.599153 97.906433 
L 552.684275 97.906433 
L 552.684275 96.451148 
L 553.769397 96.451148 
L 553.769397 90.039458 
L 554.85452 90.039458 
L 554.85452 91.136194 
L 555.939642 91.136194 
L 555.939642 79.578279 
L 557.024764 79.578279 
L 557.024764 70.804388 
L 558.109887 70.804388 
L 558.109887 61.4294 
L 559.195009 61.4294 
L 559.195009 52.307505 
L 560.280132 52.307505 
L 560.280132 43.354339 
L 561.365254 43.354339 
L 561.365254 35.835367 
L 562.450376 35.835367 
L 562.450376 34.759722 
L 563.535499 34.759722 
L 563.535499 41.920146 
L 564.620621 41.920146 
L 564.620621 51.91732 
L 565.705743 51.91732 
L 565.705743 58.645377 
L 566.790866 58.645377 
L 566.790866 70.456385 
L 567.875988 70.456385 
L 567.875988 79.567734 
L 568.961111 79.567734 
L 568.961111 89.638727 
L 570.046233 89.638727 
L 570.046233 97.326428 
L 571.131355 97.326428 
L 571.131355 105.646861 
L 572.216478 105.646861 
L 572.216478 110.497811 
L 573.3016 110.497811 
L 573.3016 119.672434 
L 574.386722 119.672434 
L 574.386722 125.736121 
L 575.471845 125.736121 
L 575.471845 132.305994 
L 576.556967 132.305994 
L 576.556967 137.199126 
L 577.64209 137.199126 
L 577.64209 141.828619 
L 578.727212 141.828619 
L 578.727212 147.301756 
L 579.812334 147.301756 
L 579.812334 150.549783 
L 580.897457 150.549783 
L 580.897457 157.573115 
L 581.982579 157.573115 
L 581.982579 160.230592 
L 583.067702 160.230592 
L 583.067702 164.258989 
L 584.152824 164.258989 
L 584.152824 170.375404 
L 585.237946 170.375404 
L 585.237946 172.210328 
L 586.323069 172.210328 
L 586.323069 176.808185 
L 587.408191 176.808185 
L 587.408191 180.077303 
L 588.493313 180.077303 
L 588.493313 182.33405 
L 589.578436 182.33405 
L 589.578436 184.696251 
L 590.663558 184.696251 
L 590.663558 187.575185 
L 591.748681 187.575185 
L 591.748681 191.614127 
L 592.833803 191.614127 
L 592.833803 193.111595 
L 593.918925 193.111595 
L 593.918925 195.863981 
L 595.004048 195.863981 
L 595.004048 199.175282 
L 596.08917 199.175282 
L 596.08917 199.860742 
L 597.174292 199.860742 
L 597.174292 201.505847 
L 598.259415 201.505847 
L 598.259415 203.520045 
L 599.344537 203.520045 
L 599.344537 206.240796 
L 600.42966 206.240796 
L 600.42966 208.202266 
L 601.514782 208.202266 
L 601.514782 208.824454 
L 602.599904 208.824454 
L 602.599904 212.040844 
L 603.685027 212.040844 
L 603.685027 213.316855 
L 604.770149 213.316855 
L 604.770149 214.234317 
L 605.855271 214.234317 
L 605.855271 214.888141 
L 606.940394 214.888141 
L 606.940394 217.092159 
L 608.025516 217.092159 
L 608.025516 218.252169 
L 609.110639 218.252169 
L 609.110639 219.275087 
L 610.195761 219.275087 
L 610.195761 219.73909 
L 611.280883 219.73909 
L 611.280883 221.226012 
L 612.366006 221.226012 
L 612.366006 222.818389 
L 613.451128 222.818389 
L 613.451128 223.482758 
L 614.53625 223.482758 
L 614.53625 224.959134 
L 615.621373 224.959134 
L 615.621373 225.581321 
L 616.706495 225.581321 
L 616.706495 226.108598 
L 617.791618 226.108598 
L 617.791618 227.163153 
L 618.87674 227.163153 
L 618.87674 227.437337 
L 621.046985 227.50061 
L 621.046985 228.639529 
L 622.132107 228.639529 
L 622.132107 230.432271 
L 623.21723 230.432271 
L 623.21723 230.210815 
L 624.302352 230.210815 
L 624.302352 231.159913 
L 625.387474 231.159913 
L 625.387474 231.6661 
L 626.472597 231.6661 
L 626.472597 231.803192 
L 627.557719 231.803192 
L 627.557719 232.44647 
L 628.642841 232.44647 
L 628.642841 233.342841 
L 629.727964 233.342841 
L 629.727964 232.899928 
L 630.813086 232.899928 
L 630.813086 234.038847 
L 632.983331 233.933391 
L 632.983331 234.186484 
L 634.068453 234.186484 
L 634.068453 235.525768 
L 635.153576 235.525768 
L 635.153576 235.399222 
L 636.238698 235.399222 
L 636.238698 235.85268 
L 637.32382 235.85268 
L 637.32382 236.675232 
L 638.408943 236.675232 
L 638.408943 237.044326 
L 639.494065 237.044326 
L 639.494065 236.685778 
L 640.579188 236.685778 
L 640.579188 236.981053 
L 641.66431 236.981053 
L 641.66431 237.771969 
L 644.919677 237.740332 
L 644.919677 238.119972 
L 646.004799 238.119972 
L 646.004799 238.815978 
L 648.175044 238.773795 
L 648.175044 239.343255 
L 650.345289 239.343255 
L 650.345289 239.216708 
L 651.430411 239.216708 
L 651.430411 239.817804 
L 653.600656 239.912714 
L 653.600656 240.007624 
L 655.770901 239.944351 
L 655.770901 240.218535 
L 657.941146 240.32399 
L 657.941146 240.745812 
L 659.026268 240.745812 
L 659.026268 241.019996 
L 661.196513 241.051633 
L 661.196513 241.167634 
L 663.366758 241.188725 
L 663.366758 241.853094 
L 665.537002 241.758184 
L 665.537002 241.515637 
L 667.707247 241.57891 
L 667.707247 241.758184 
L 668.792369 241.758184 
L 668.792369 242.011277 
L 673.132859 242.064005 
L 673.132859 242.45419 
L 676.388226 242.5491 
L 676.388226 242.812738 
L 677.473348 242.812738 
L 677.473348 242.665101 
L 678.558471 242.665101 
L 678.558471 243.034195 
L 682.89896 242.928739 
L 682.89896 243.192378 
L 683.984083 243.192378 
L 683.984083 243.340016 
L 687.23945 243.403289 
L 687.23945 243.498199 
L 688.324572 243.498199 
L 688.324572 243.666927 
L 691.579939 243.561472 
L 691.579939 243.498199 
L 693.750184 243.529835 
L 693.750184 243.92002 
L 694.835307 243.92002 
L 694.835307 243.698564 
L 697.005551 243.688018 
L 697.005551 244.057112 
L 698.090674 244.057112 
L 698.090674 244.173113 
L 700.260918 244.099295 
L 700.260918 244.01493 
L 702.431163 243.983294 
L 702.431163 244.268023 
L 703.516286 244.268023 
L 703.516286 244.141477 
L 704.601408 244.141477 
L 704.601408 244.29966 
L 705.68653 244.29966 
L 705.68653 244.141477 
L 706.771653 244.141477 
L 706.771653 244.521116 
L 707.856775 244.521116 
L 707.856775 244.373479 
L 708.941897 244.373479 
L 708.941897 244.246932 
L 710.02702 244.246932 
L 710.02702 244.447298 
L 713.282387 244.39457 
L 713.282387 244.710936 
L 714.367509 244.710936 
L 714.367509 244.48948 
L 715.452632 244.48948 
L 715.452632 244.710936 
L 716.537754 244.710936 
L 716.537754 244.563299 
L 718.707999 244.542207 
L 718.707999 244.679299 
L 724.133611 244.700391 
L 724.133611 244.932393 
L 725.218733 244.932393 
L 725.218733 244.689845 
L 726.303856 244.689845 
L 726.303856 244.858574 
L 732.81459 244.837483 
L 732.81459 244.974575 
L 737.155079 245.006211 
L 737.155079 245.122212 
L 742.580691 245.058939 
L 742.580691 244.964029 
L 743.665814 244.964029 
L 743.665814 245.122212 
L 744.750936 245.122212 
L 744.750936 244.995666 
L 745.836058 244.995666 
L 745.836058 245.238213 
L 749.091425 245.259304 
L 749.091425 245.037848 
L 750.176548 245.037848 
L 750.176548 245.248759 
L 761.027772 245.354214 
L 761.027772 245.449124 
L 766.453384 245.428033 
L 766.453384 245.280395 
L 768.623628 245.385851 
L 768.623628 245.501852 
L 790.326076 245.596762 
L 790.326076 245.628398 
L 817.454135 245.712763 
L 817.454135 245.744399 
L 848.922684 245.744399 
L 848.922684 245.744399 
" clip-path="url(#p3c0b5960ad)" style="fill: none; stroke: #1f77b4; stroke-width: 1.5; stroke-linecap: square"/>
   </g>
   <g id="patch_8">
    <path d="M 507.109135 257.158895 
L 507.109135 7.2 
" style="fill: none; stroke: #000000; stroke-width: 0.8; stroke-linejoin: miter; stroke-linecap: square"/>
   </g>
   <g id="patch_9">
    <path d="M 865.19952 257.158895 
L 865.19952 7.2 
" style="fill: none; stroke: #000000; stroke-width: 0.8; stroke-linejoin: miter; stroke-linecap: square"/>
   </g>
   <g id="patch_10">
    <path d="M 507.109135 257.158895 
L 865.19952 257.158895 
" style="fill: none; stroke: #000000; stroke-width: 0.8; stroke-linejoin: miter; stroke-linecap: square"/>
   </g>
   <g id="patch_11">
    <path d="M 507.109135 7.2 
L 865.19952 7.2 
" style="fill: none; stroke: #000000; stroke-width: 0.8; stroke-linejoin: miter; stroke-linecap: square"/>
   </g>
  </g>
 </g>
 <defs>
  <clipPath id="p849ba22d6a">
   <rect x="53.328125" y="7.2" width="358.090385" height="249.958895"/>
  </clipPath>
  <clipPath id="p3c0b5960ad">
   <rect x="507.109135" y="7.2" width="358.090385" height="249.958895"/>
  </clipPath>
 </defs>
</svg>
