<?xml version="1.0" encoding="utf-8" standalone="no"?>
<!DOCTYPE svg PUBLIC "-//W3C//DTD SVG 1.1//EN"
  "http://www.w3.org/Graphics/SVG/1.1/DTD/svg11.dtd">
<svg xmlns:xlink="http://www.w3.org/1999/xlink" width="395.328125pt" height="268.200625pt" viewBox="0 0 395.328125 268.200625" xmlns="http://www.w3.org/2000/svg" version="1.1">
 <metadata>
  <rdf:RDF xmlns:dc="http://purl.org/dc/elements/1.1/" xmlns:cc="http://creativecommons.org/ns#" xmlns:rdf="http://www.w3.org/1999/02/22-rdf-syntax-ns#">
   <cc:Work>
    <dc:type rdf:resource="http://purl.org/dc/dcmitype/StillImage"/>
    <dc:date>2025-10-02T14:01:01.175858</dc:date>
    <dc:format>image/svg+xml</dc:format>
    <dc:creator>
     <cc:Agent>
      <dc:title>Matplotlib v3.10.1, https://matplotlib.org/</dc:title>
     </cc:Agent>
    </dc:creator>
   </cc:Work>
  </rdf:RDF>
 </metadata>
 <defs>
  <style type="text/css">*{stroke-linejoin: round; stroke-linecap: butt}</style>
 </defs>
 <g id="figure_1">
  <g id="patch_1">
   <path d="M 0 268.200625 
L 395.328125 268.200625 
L 395.328125 0 
L 0 0 
z
" style="fill: #ffffff"/>
  </g>
  <g id="axes_1">
   <g id="patch_2">
    <path d="M 53.328125 228.96 
L 388.128125 228.96 
L 388.128125 7.2 
L 53.328125 7.2 
z
" style="fill: #ffffff"/>
   </g>
   <g id="matplotlib.axis_1">
    <g id="xtick_1">
     <g id="line2d_1">
      <defs>
       <path id="mc3b4280038" d="M 0 0 
L 0 3.5 
" style="stroke: #000000; stroke-width: 0.8"/>
      </defs>
      <g>
       <use xlink:href="#mc3b4280038" x="65.479279" y="228.96" style="stroke: #000000; stroke-width: 0.8"/>
      </g>
     </g>
     <g id="text_1">
      <!-- 0.0 -->
      <g transform="translate(57.527717 243.558437) scale(0.1 -0.1)">
       <defs>
        <path id="DejaVuSans-30" d="M 2034 4250 
Q 1547 4250 1301 3770 
Q 1056 3291 1056 2328 
Q 1056 1369 1301 889 
Q 1547 409 2034 409 
Q 2525 409 2770 889 
Q 3016 1369 3016 2328 
Q 3016 3291 2770 3770 
Q 2525 4250 2034 4250 
z
M 2034 4750 
Q 2819 4750 3233 4129 
Q 3647 3509 3647 2328 
Q 3647 1150 3233 529 
Q 2819 -91 2034 -91 
Q 1250 -91 836 529 
Q 422 1150 422 2328 
Q 422 3509 836 4129 
Q 1250 4750 2034 4750 
z
" transform="scale(0.015625)"/>
        <path id="DejaVuSans-2e" d="M 684 794 
L 1344 794 
L 1344 0 
L 684 0 
L 684 794 
z
" transform="scale(0.015625)"/>
       </defs>
       <use xlink:href="#DejaVuSans-30"/>
       <use xlink:href="#DejaVuSans-2e" transform="translate(63.623047 0)"/>
       <use xlink:href="#DejaVuSans-30" transform="translate(95.410156 0)"/>
      </g>
     </g>
    </g>
    <g id="xtick_2">
     <g id="line2d_2">
      <g>
       <use xlink:href="#mc3b4280038" x="104.102912" y="228.96" style="stroke: #000000; stroke-width: 0.8"/>
      </g>
     </g>
     <g id="text_2">
      <!-- 2.5 -->
      <g transform="translate(96.15135 243.558437) scale(0.1 -0.1)">
       <defs>
        <path id="DejaVuSans-32" d="M 1228 531 
L 3431 531 
L 3431 0 
L 469 0 
L 469 531 
Q 828 903 1448 1529 
Q 2069 2156 2228 2338 
Q 2531 2678 2651 2914 
Q 2772 3150 2772 3378 
Q 2772 3750 2511 3984 
Q 2250 4219 1831 4219 
Q 1534 4219 1204 4116 
Q 875 4013 500 3803 
L 500 4441 
Q 881 4594 1212 4672 
Q 1544 4750 1819 4750 
Q 2544 4750 2975 4387 
Q 3406 4025 3406 3419 
Q 3406 3131 3298 2873 
Q 3191 2616 2906 2266 
Q 2828 2175 2409 1742 
Q 1991 1309 1228 531 
z
" transform="scale(0.015625)"/>
        <path id="DejaVuSans-35" d="M 691 4666 
L 3169 4666 
L 3169 4134 
L 1269 4134 
L 1269 2991 
Q 1406 3038 1543 3061 
Q 1681 3084 1819 3084 
Q 2600 3084 3056 2656 
Q 3513 2228 3513 1497 
Q 3513 744 3044 326 
Q 2575 -91 1722 -91 
Q 1428 -91 1123 -41 
Q 819 9 494 109 
L 494 744 
Q 775 591 1075 516 
Q 1375 441 1709 441 
Q 2250 441 2565 725 
Q 2881 1009 2881 1497 
Q 2881 1984 2565 2268 
Q 2250 2553 1709 2553 
Q 1456 2553 1204 2497 
Q 953 2441 691 2322 
L 691 4666 
z
" transform="scale(0.015625)"/>
       </defs>
       <use xlink:href="#DejaVuSans-32"/>
       <use xlink:href="#DejaVuSans-2e" transform="translate(63.623047 0)"/>
       <use xlink:href="#DejaVuSans-35" transform="translate(95.410156 0)"/>
      </g>
     </g>
    </g>
    <g id="xtick_3">
     <g id="line2d_3">
      <g>
       <use xlink:href="#mc3b4280038" x="142.726545" y="228.96" style="stroke: #000000; stroke-width: 0.8"/>
      </g>
     </g>
     <g id="text_3">
      <!-- 5.0 -->
      <g transform="translate(134.774982 243.558437) scale(0.1 -0.1)">
       <use xlink:href="#DejaVuSans-35"/>
       <use xlink:href="#DejaVuSans-2e" transform="translate(63.623047 0)"/>
       <use xlink:href="#DejaVuSans-30" transform="translate(95.410156 0)"/>
      </g>
     </g>
    </g>
    <g id="xtick_4">
     <g id="line2d_4">
      <g>
       <use xlink:href="#mc3b4280038" x="181.350178" y="228.96" style="stroke: #000000; stroke-width: 0.8"/>
      </g>
     </g>
     <g id="text_4">
      <!-- 7.5 -->
      <g transform="translate(173.398615 243.558437) scale(0.1 -0.1)">
       <defs>
        <path id="DejaVuSans-37" d="M 525 4666 
L 3525 4666 
L 3525 4397 
L 1831 0 
L 1172 0 
L 2766 4134 
L 525 4134 
L 525 4666 
z
" transform="scale(0.015625)"/>
       </defs>
       <use xlink:href="#DejaVuSans-37"/>
       <use xlink:href="#DejaVuSans-2e" transform="translate(63.623047 0)"/>
       <use xlink:href="#DejaVuSans-35" transform="translate(95.410156 0)"/>
      </g>
     </g>
    </g>
    <g id="xtick_5">
     <g id="line2d_5">
      <g>
       <use xlink:href="#mc3b4280038" x="219.973811" y="228.96" style="stroke: #000000; stroke-width: 0.8"/>
      </g>
     </g>
     <g id="text_5">
      <!-- 10.0 -->
      <g transform="translate(208.840998 243.558437) scale(0.1 -0.1)">
       <defs>
        <path id="DejaVuSans-31" d="M 794 531 
L 1825 531 
L 1825 4091 
L 703 3866 
L 703 4441 
L 1819 4666 
L 2450 4666 
L 2450 531 
L 3481 531 
L 3481 0 
L 794 0 
L 794 531 
z
" transform="scale(0.015625)"/>
       </defs>
       <use xlink:href="#DejaVuSans-31"/>
       <use xlink:href="#DejaVuSans-30" transform="translate(63.623047 0)"/>
       <use xlink:href="#DejaVuSans-2e" transform="translate(127.246094 0)"/>
       <use xlink:href="#DejaVuSans-30" transform="translate(159.033203 0)"/>
      </g>
     </g>
    </g>
    <g id="xtick_6">
     <g id="line2d_6">
      <g>
       <use xlink:href="#mc3b4280038" x="258.597443" y="228.96" style="stroke: #000000; stroke-width: 0.8"/>
      </g>
     </g>
     <g id="text_6">
      <!-- 12.5 -->
      <g transform="translate(247.464631 243.558437) scale(0.1 -0.1)">
       <use xlink:href="#DejaVuSans-31"/>
       <use xlink:href="#DejaVuSans-32" transform="translate(63.623047 0)"/>
       <use xlink:href="#DejaVuSans-2e" transform="translate(127.246094 0)"/>
       <use xlink:href="#DejaVuSans-35" transform="translate(159.033203 0)"/>
      </g>
     </g>
    </g>
    <g id="xtick_7">
     <g id="line2d_7">
      <g>
       <use xlink:href="#mc3b4280038" x="297.221076" y="228.96" style="stroke: #000000; stroke-width: 0.8"/>
      </g>
     </g>
     <g id="text_7">
      <!-- 15.0 -->
      <g transform="translate(286.088264 243.558437) scale(0.1 -0.1)">
       <use xlink:href="#DejaVuSans-31"/>
       <use xlink:href="#DejaVuSans-35" transform="translate(63.623047 0)"/>
       <use xlink:href="#DejaVuSans-2e" transform="translate(127.246094 0)"/>
       <use xlink:href="#DejaVuSans-30" transform="translate(159.033203 0)"/>
      </g>
     </g>
    </g>
    <g id="xtick_8">
     <g id="line2d_8">
      <g>
       <use xlink:href="#mc3b4280038" x="335.844709" y="228.96" style="stroke: #000000; stroke-width: 0.8"/>
      </g>
     </g>
     <g id="text_8">
      <!-- 17.5 -->
      <g transform="translate(324.711897 243.558437) scale(0.1 -0.1)">
       <use xlink:href="#DejaVuSans-31"/>
       <use xlink:href="#DejaVuSans-37" transform="translate(63.623047 0)"/>
       <use xlink:href="#DejaVuSans-2e" transform="translate(127.246094 0)"/>
       <use xlink:href="#DejaVuSans-35" transform="translate(159.033203 0)"/>
      </g>
     </g>
    </g>
    <g id="xtick_9">
     <g id="line2d_9">
      <g>
       <use xlink:href="#mc3b4280038" x="374.468342" y="228.96" style="stroke: #000000; stroke-width: 0.8"/>
      </g>
     </g>
     <g id="text_9">
      <!-- 20.0 -->
      <g transform="translate(363.335529 243.558437) scale(0.1 -0.1)">
       <use xlink:href="#DejaVuSans-32"/>
       <use xlink:href="#DejaVuSans-30" transform="translate(63.623047 0)"/>
       <use xlink:href="#DejaVuSans-2e" transform="translate(127.246094 0)"/>
       <use xlink:href="#DejaVuSans-30" transform="translate(159.033203 0)"/>
      </g>
     </g>
    </g>
    <g id="text_10">
     <!-- wavelength [Å] -->
     <g transform="translate(182.690625 258.920937) scale(0.1 -0.1)">
      <defs>
       <path id="DejaVuSans-77" d="M 269 3500 
L 844 3500 
L 1563 769 
L 2278 3500 
L 2956 3500 
L 3675 769 
L 4391 3500 
L 4966 3500 
L 4050 0 
L 3372 0 
L 2619 2869 
L 1863 0 
L 1184 0 
L 269 3500 
z
" transform="scale(0.015625)"/>
       <path id="DejaVuSans-61" d="M 2194 1759 
Q 1497 1759 1228 1600 
Q 959 1441 959 1056 
Q 959 750 1161 570 
Q 1363 391 1709 391 
Q 2188 391 2477 730 
Q 2766 1069 2766 1631 
L 2766 1759 
L 2194 1759 
z
M 3341 1997 
L 3341 0 
L 2766 0 
L 2766 531 
Q 2569 213 2275 61 
Q 1981 -91 1556 -91 
Q 1019 -91 701 211 
Q 384 513 384 1019 
Q 384 1609 779 1909 
Q 1175 2209 1959 2209 
L 2766 2209 
L 2766 2266 
Q 2766 2663 2505 2880 
Q 2244 3097 1772 3097 
Q 1472 3097 1187 3025 
Q 903 2953 641 2809 
L 641 3341 
Q 956 3463 1253 3523 
Q 1550 3584 1831 3584 
Q 2591 3584 2966 3190 
Q 3341 2797 3341 1997 
z
" transform="scale(0.015625)"/>
       <path id="DejaVuSans-76" d="M 191 3500 
L 800 3500 
L 1894 563 
L 2988 3500 
L 3597 3500 
L 2284 0 
L 1503 0 
L 191 3500 
z
" transform="scale(0.015625)"/>
       <path id="DejaVuSans-65" d="M 3597 1894 
L 3597 1613 
L 953 1613 
Q 991 1019 1311 708 
Q 1631 397 2203 397 
Q 2534 397 2845 478 
Q 3156 559 3463 722 
L 3463 178 
Q 3153 47 2828 -22 
Q 2503 -91 2169 -91 
Q 1331 -91 842 396 
Q 353 884 353 1716 
Q 353 2575 817 3079 
Q 1281 3584 2069 3584 
Q 2775 3584 3186 3129 
Q 3597 2675 3597 1894 
z
M 3022 2063 
Q 3016 2534 2758 2815 
Q 2500 3097 2075 3097 
Q 1594 3097 1305 2825 
Q 1016 2553 972 2059 
L 3022 2063 
z
" transform="scale(0.015625)"/>
       <path id="DejaVuSans-6c" d="M 603 4863 
L 1178 4863 
L 1178 0 
L 603 0 
L 603 4863 
z
" transform="scale(0.015625)"/>
       <path id="DejaVuSans-6e" d="M 3513 2113 
L 3513 0 
L 2938 0 
L 2938 2094 
Q 2938 2591 2744 2837 
Q 2550 3084 2163 3084 
Q 1697 3084 1428 2787 
Q 1159 2491 1159 1978 
L 1159 0 
L 581 0 
L 581 3500 
L 1159 3500 
L 1159 2956 
Q 1366 3272 1645 3428 
Q 1925 3584 2291 3584 
Q 2894 3584 3203 3211 
Q 3513 2838 3513 2113 
z
" transform="scale(0.015625)"/>
       <path id="DejaVuSans-67" d="M 2906 1791 
Q 2906 2416 2648 2759 
Q 2391 3103 1925 3103 
Q 1463 3103 1205 2759 
Q 947 2416 947 1791 
Q 947 1169 1205 825 
Q 1463 481 1925 481 
Q 2391 481 2648 825 
Q 2906 1169 2906 1791 
z
M 3481 434 
Q 3481 -459 3084 -895 
Q 2688 -1331 1869 -1331 
Q 1566 -1331 1297 -1286 
Q 1028 -1241 775 -1147 
L 775 -588 
Q 1028 -725 1275 -790 
Q 1522 -856 1778 -856 
Q 2344 -856 2625 -561 
Q 2906 -266 2906 331 
L 2906 616 
Q 2728 306 2450 153 
Q 2172 0 1784 0 
Q 1141 0 747 490 
Q 353 981 353 1791 
Q 353 2603 747 3093 
Q 1141 3584 1784 3584 
Q 2172 3584 2450 3431 
Q 2728 3278 2906 2969 
L 2906 3500 
L 3481 3500 
L 3481 434 
z
" transform="scale(0.015625)"/>
       <path id="DejaVuSans-74" d="M 1172 4494 
L 1172 3500 
L 2356 3500 
L 2356 3053 
L 1172 3053 
L 1172 1153 
Q 1172 725 1289 603 
Q 1406 481 1766 481 
L 2356 481 
L 2356 0 
L 1766 0 
Q 1100 0 847 248 
Q 594 497 594 1153 
L 594 3053 
L 172 3053 
L 172 3500 
L 594 3500 
L 594 4494 
L 1172 4494 
z
" transform="scale(0.015625)"/>
       <path id="DejaVuSans-68" d="M 3513 2113 
L 3513 0 
L 2938 0 
L 2938 2094 
Q 2938 2591 2744 2837 
Q 2550 3084 2163 3084 
Q 1697 3084 1428 2787 
Q 1159 2491 1159 1978 
L 1159 0 
L 581 0 
L 581 4863 
L 1159 4863 
L 1159 2956 
Q 1366 3272 1645 3428 
Q 1925 3584 2291 3584 
Q 2894 3584 3203 3211 
Q 3513 2838 3513 2113 
z
" transform="scale(0.015625)"/>
       <path id="DejaVuSans-20" transform="scale(0.015625)"/>
       <path id="DejaVuSans-5b" d="M 550 4863 
L 1875 4863 
L 1875 4416 
L 1125 4416 
L 1125 -397 
L 1875 -397 
L 1875 -844 
L 550 -844 
L 550 4863 
z
" transform="scale(0.015625)"/>
       <path id="DejaVuSans-c5" d="M 2663 5081 
Q 2663 5278 2523 5417 
Q 2384 5556 2188 5556 
Q 1988 5556 1852 5420 
Q 1716 5284 1716 5081 
Q 1716 4884 1853 4746 
Q 1991 4609 2188 4609 
Q 2384 4609 2523 4746 
Q 2663 4884 2663 5081 
z
M 2188 4044 
L 1338 1722 
L 3041 1722 
L 2188 4044 
z
M 1716 4366 
Q 1525 4494 1428 4673 
Q 1331 4853 1331 5081 
Q 1331 5441 1579 5691 
Q 1828 5941 2188 5941 
Q 2544 5941 2795 5689 
Q 3047 5438 3047 5081 
Q 3047 4863 2948 4678 
Q 2850 4494 2663 4366 
L 4325 0 
L 3669 0 
L 3244 1197 
L 1141 1197 
L 716 0 
L 50 0 
L 1716 4366 
z
" transform="scale(0.015625)"/>
       <path id="DejaVuSans-5d" d="M 1947 4863 
L 1947 -844 
L 622 -844 
L 622 -397 
L 1369 -397 
L 1369 4416 
L 622 4416 
L 622 4863 
L 1947 4863 
z
" transform="scale(0.015625)"/>
      </defs>
      <use xlink:href="#DejaVuSans-77"/>
      <use xlink:href="#DejaVuSans-61" transform="translate(81.787109 0)"/>
      <use xlink:href="#DejaVuSans-76" transform="translate(143.066406 0)"/>
      <use xlink:href="#DejaVuSans-65" transform="translate(202.246094 0)"/>
      <use xlink:href="#DejaVuSans-6c" transform="translate(263.769531 0)"/>
      <use xlink:href="#DejaVuSans-65" transform="translate(291.552734 0)"/>
      <use xlink:href="#DejaVuSans-6e" transform="translate(353.076172 0)"/>
      <use xlink:href="#DejaVuSans-67" transform="translate(416.455078 0)"/>
      <use xlink:href="#DejaVuSans-74" transform="translate(479.931641 0)"/>
      <use xlink:href="#DejaVuSans-68" transform="translate(519.140625 0)"/>
      <use xlink:href="#DejaVuSans-20" transform="translate(582.519531 0)"/>
      <use xlink:href="#DejaVuSans-5b" transform="translate(614.306641 0)"/>
      <use xlink:href="#DejaVuSans-c5" transform="translate(653.320312 0)"/>
      <use xlink:href="#DejaVuSans-5d" transform="translate(721.728516 0)"/>
     </g>
    </g>
   </g>
   <g id="matplotlib.axis_2">
    <g id="ytick_1">
     <g id="line2d_10">
      <defs>
       <path id="mc668ab3f53" d="M 0 0 
L -3.5 0 
" style="stroke: #000000; stroke-width: 0.8"/>
      </defs>
      <g>
       <use xlink:href="#mc668ab3f53" x="53.328125" y="218.88" style="stroke: #000000; stroke-width: 0.8"/>
      </g>
     </g>
     <g id="text_11">
      <!-- 0 -->
      <g transform="translate(39.965625 222.679219) scale(0.1 -0.1)">
       <use xlink:href="#DejaVuSans-30"/>
      </g>
     </g>
    </g>
    <g id="ytick_2">
     <g id="line2d_11">
      <g>
       <use xlink:href="#mc668ab3f53" x="53.328125" y="179.535738" style="stroke: #000000; stroke-width: 0.8"/>
      </g>
     </g>
     <g id="text_12">
      <!-- 500 -->
      <g transform="translate(27.240625 183.334956) scale(0.1 -0.1)">
       <use xlink:href="#DejaVuSans-35"/>
       <use xlink:href="#DejaVuSans-30" transform="translate(63.623047 0)"/>
       <use xlink:href="#DejaVuSans-30" transform="translate(127.246094 0)"/>
      </g>
     </g>
    </g>
    <g id="ytick_3">
     <g id="line2d_12">
      <g>
       <use xlink:href="#mc668ab3f53" x="53.328125" y="140.191475" style="stroke: #000000; stroke-width: 0.8"/>
      </g>
     </g>
     <g id="text_13">
      <!-- 1000 -->
      <g transform="translate(20.878125 143.990694) scale(0.1 -0.1)">
       <use xlink:href="#DejaVuSans-31"/>
       <use xlink:href="#DejaVuSans-30" transform="translate(63.623047 0)"/>
       <use xlink:href="#DejaVuSans-30" transform="translate(127.246094 0)"/>
       <use xlink:href="#DejaVuSans-30" transform="translate(190.869141 0)"/>
      </g>
     </g>
    </g>
    <g id="ytick_4">
     <g id="line2d_13">
      <g>
       <use xlink:href="#mc668ab3f53" x="53.328125" y="100.847213" style="stroke: #000000; stroke-width: 0.8"/>
      </g>
     </g>
     <g id="text_14">
      <!-- 1500 -->
      <g transform="translate(20.878125 104.646432) scale(0.1 -0.1)">
       <use xlink:href="#DejaVuSans-31"/>
       <use xlink:href="#DejaVuSans-35" transform="translate(63.623047 0)"/>
       <use xlink:href="#DejaVuSans-30" transform="translate(127.246094 0)"/>
       <use xlink:href="#DejaVuSans-30" transform="translate(190.869141 0)"/>
      </g>
     </g>
    </g>
    <g id="ytick_5">
     <g id="line2d_14">
      <g>
       <use xlink:href="#mc668ab3f53" x="53.328125" y="61.502951" style="stroke: #000000; stroke-width: 0.8"/>
      </g>
     </g>
     <g id="text_15">
      <!-- 2000 -->
      <g transform="translate(20.878125 65.30217) scale(0.1 -0.1)">
       <use xlink:href="#DejaVuSans-32"/>
       <use xlink:href="#DejaVuSans-30" transform="translate(63.623047 0)"/>
       <use xlink:href="#DejaVuSans-30" transform="translate(127.246094 0)"/>
       <use xlink:href="#DejaVuSans-30" transform="translate(190.869141 0)"/>
      </g>
     </g>
    </g>
    <g id="ytick_6">
     <g id="line2d_15">
      <g>
       <use xlink:href="#mc668ab3f53" x="53.328125" y="22.158689" style="stroke: #000000; stroke-width: 0.8"/>
      </g>
     </g>
     <g id="text_16">
      <!-- 2500 -->
      <g transform="translate(20.878125 25.957907) scale(0.1 -0.1)">
       <use xlink:href="#DejaVuSans-32"/>
       <use xlink:href="#DejaVuSans-35" transform="translate(63.623047 0)"/>
       <use xlink:href="#DejaVuSans-30" transform="translate(127.246094 0)"/>
       <use xlink:href="#DejaVuSans-30" transform="translate(190.869141 0)"/>
      </g>
     </g>
    </g>
    <g id="text_17">
     <!-- [counts] -->
     <g transform="translate(14.798438 138.6925) rotate(-90) scale(0.1 -0.1)">
      <defs>
       <path id="DejaVuSans-63" d="M 3122 3366 
L 3122 2828 
Q 2878 2963 2633 3030 
Q 2388 3097 2138 3097 
Q 1578 3097 1268 2742 
Q 959 2388 959 1747 
Q 959 1106 1268 751 
Q 1578 397 2138 397 
Q 2388 397 2633 464 
Q 2878 531 3122 666 
L 3122 134 
Q 2881 22 2623 -34 
Q 2366 -91 2075 -91 
Q 1284 -91 818 406 
Q 353 903 353 1747 
Q 353 2603 823 3093 
Q 1294 3584 2113 3584 
Q 2378 3584 2631 3529 
Q 2884 3475 3122 3366 
z
" transform="scale(0.015625)"/>
       <path id="DejaVuSans-6f" d="M 1959 3097 
Q 1497 3097 1228 2736 
Q 959 2375 959 1747 
Q 959 1119 1226 758 
Q 1494 397 1959 397 
Q 2419 397 2687 759 
Q 2956 1122 2956 1747 
Q 2956 2369 2687 2733 
Q 2419 3097 1959 3097 
z
M 1959 3584 
Q 2709 3584 3137 3096 
Q 3566 2609 3566 1747 
Q 3566 888 3137 398 
Q 2709 -91 1959 -91 
Q 1206 -91 779 398 
Q 353 888 353 1747 
Q 353 2609 779 3096 
Q 1206 3584 1959 3584 
z
" transform="scale(0.015625)"/>
       <path id="DejaVuSans-75" d="M 544 1381 
L 544 3500 
L 1119 3500 
L 1119 1403 
Q 1119 906 1312 657 
Q 1506 409 1894 409 
Q 2359 409 2629 706 
Q 2900 1003 2900 1516 
L 2900 3500 
L 3475 3500 
L 3475 0 
L 2900 0 
L 2900 538 
Q 2691 219 2414 64 
Q 2138 -91 1772 -91 
Q 1169 -91 856 284 
Q 544 659 544 1381 
z
M 1991 3584 
L 1991 3584 
z
" transform="scale(0.015625)"/>
       <path id="DejaVuSans-73" d="M 2834 3397 
L 2834 2853 
Q 2591 2978 2328 3040 
Q 2066 3103 1784 3103 
Q 1356 3103 1142 2972 
Q 928 2841 928 2578 
Q 928 2378 1081 2264 
Q 1234 2150 1697 2047 
L 1894 2003 
Q 2506 1872 2764 1633 
Q 3022 1394 3022 966 
Q 3022 478 2636 193 
Q 2250 -91 1575 -91 
Q 1294 -91 989 -36 
Q 684 19 347 128 
L 347 722 
Q 666 556 975 473 
Q 1284 391 1588 391 
Q 1994 391 2212 530 
Q 2431 669 2431 922 
Q 2431 1156 2273 1281 
Q 2116 1406 1581 1522 
L 1381 1569 
Q 847 1681 609 1914 
Q 372 2147 372 2553 
Q 372 3047 722 3315 
Q 1072 3584 1716 3584 
Q 2034 3584 2315 3537 
Q 2597 3491 2834 3397 
z
" transform="scale(0.015625)"/>
      </defs>
      <use xlink:href="#DejaVuSans-5b"/>
      <use xlink:href="#DejaVuSans-63" transform="translate(39.013672 0)"/>
      <use xlink:href="#DejaVuSans-6f" transform="translate(93.994141 0)"/>
      <use xlink:href="#DejaVuSans-75" transform="translate(155.175781 0)"/>
      <use xlink:href="#DejaVuSans-6e" transform="translate(218.554688 0)"/>
      <use xlink:href="#DejaVuSans-74" transform="translate(281.933594 0)"/>
      <use xlink:href="#DejaVuSans-73" transform="translate(321.142578 0)"/>
      <use xlink:href="#DejaVuSans-5d" transform="translate(373.242188 0)"/>
     </g>
    </g>
   </g>
   <g id="line2d_16">
    <path d="M 68.546307 40.886557 
L 69.155034 40.886557 
L 69.155034 33.647213 
L 69.763761 33.647213 
L 69.763761 31.68 
L 70.372489 31.68 
L 70.372489 26.250492 
L 70.981216 26.250492 
L 70.981216 23.889836 
L 71.589943 23.889836 
L 71.589943 21.843934 
L 72.19867 21.843934 
L 72.19867 31.207869 
L 72.807398 31.207869 
L 72.807398 41.673443 
L 73.416125 41.673443 
L 73.416125 51.902951 
L 74.024852 51.902951 
L 74.024852 67.011148 
L 74.63358 67.011148 
L 74.63358 65.988197 
L 75.242307 65.988197 
L 75.242307 44.663607 
L 75.851034 44.663607 
L 75.851034 40.335738 
L 76.459761 40.335738 
L 76.459761 27.666885 
L 77.068489 27.666885 
L 77.068489 24.440656 
L 77.677216 24.440656 
L 77.677216 18.381639 
L 78.285943 18.381639 
L 78.285943 17.83082 
L 78.89467 17.83082 
L 78.89467 18.617705 
L 79.503398 18.617705 
L 79.503398 17.28 
L 80.112125 17.28 
L 80.112125 31.443934 
L 80.720852 31.443934 
L 80.720852 50.171803 
L 81.32958 50.171803 
L 81.32958 61.975082 
L 81.938307 61.975082 
L 81.938307 84.243934 
L 82.547034 84.243934 
L 82.547034 101.634098 
L 83.155761 101.634098 
L 83.155761 122.407869 
L 83.764489 122.407869 
L 83.764489 138.617705 
L 84.373216 138.617705 
L 84.373216 157.660328 
L 84.981943 157.660328 
L 84.981943 174.499672 
L 85.59067 174.499672 
L 85.59067 185.83082 
L 86.199398 185.83082 
L 86.199398 195.981639 
L 86.808125 195.981639 
L 86.808125 201.25377 
L 87.416852 201.25377 
L 87.416852 204.558689 
L 88.634307 204.637377 
L 88.634307 199.286557 
L 89.243034 199.286557 
L 89.243034 195.902951 
L 89.851761 195.902951 
L 89.851761 191.181639 
L 90.460489 191.181639 
L 90.460489 187.40459 
L 91.069216 187.40459 
L 91.069216 177.25377 
L 91.677943 177.25377 
L 91.677943 169.384918 
L 92.28667 169.384918 
L 92.28667 160.257049 
L 92.895398 160.257049 
L 92.895398 151.050492 
L 93.504125 151.050492 
L 93.504125 138.066885 
L 94.112852 138.066885 
L 94.112852 133.739016 
L 94.72158 133.739016 
L 94.72158 127.601311 
L 95.330307 127.601311 
L 95.330307 129.175082 
L 95.939034 129.175082 
L 95.939034 119.102951 
L 96.547761 119.102951 
L 96.547761 119.575082 
L 97.156489 119.575082 
L 97.156489 112.099672 
L 97.765216 112.099672 
L 97.765216 122.093115 
L 98.373943 122.093115 
L 98.373943 108.322623 
L 98.98267 108.322623 
L 98.98267 109.896393 
L 99.591398 109.896393 
L 99.591398 96.912787 
L 100.200125 96.912787 
L 100.200125 99.43082 
L 100.808852 99.43082 
L 100.808852 92.191475 
L 101.41758 92.191475 
L 101.41758 84.794754 
L 102.026307 84.794754 
L 102.026307 89.122623 
L 102.635034 89.122623 
L 102.635034 85.03082 
L 103.243761 85.03082 
L 103.243761 75.902951 
L 103.852489 75.902951 
L 103.852489 71.811148 
L 104.461216 71.811148 
L 104.461216 62.60459 
L 105.069943 62.60459 
L 105.069943 69.214426 
L 105.67867 69.214426 
L 105.67867 63.548852 
L 106.287398 63.548852 
L 106.287398 78.184918 
L 106.896125 78.184918 
L 106.896125 76.768525 
L 107.504852 76.768525 
L 107.504852 75.194754 
L 108.11358 75.194754 
L 108.11358 74.565246 
L 108.722307 74.565246 
L 108.722307 86.761967 
L 109.331034 86.761967 
L 109.331034 81.017705 
L 109.939761 81.017705 
L 109.939761 82.198033 
L 110.548489 82.198033 
L 110.548489 82.35541 
L 111.157216 82.35541 
L 111.157216 81.175082 
L 111.765943 81.175082 
L 111.765943 77.948852 
L 112.37467 77.948852 
L 112.37467 70.866885 
L 112.983398 70.866885 
L 112.983398 70.394754 
L 113.592125 70.394754 
L 113.592125 61.03082 
L 114.200852 61.03082 
L 114.200852 59.614426 
L 114.80958 59.614426 
L 114.80958 52.611148 
L 115.418307 52.611148 
L 115.418307 56.860328 
L 116.027034 56.860328 
L 116.027034 57.017705 
L 116.635761 57.017705 
L 116.635761 57.411148 
L 117.244489 57.411148 
L 117.244489 63.784918 
L 117.853216 63.784918 
L 117.853216 63.548852 
L 118.461943 63.548852 
L 118.461943 78.184918 
L 119.07067 78.184918 
L 119.07067 81.411148 
L 119.679398 81.411148 
L 119.679398 94.866885 
L 120.288125 94.866885 
L 120.288125 106.984918 
L 120.896852 106.984918 
L 120.896852 116.50623 
L 121.50558 116.50623 
L 121.50558 125.319344 
L 122.114307 125.319344 
L 122.114307 130.90623 
L 122.723034 130.90623 
L 122.723034 128.939016 
L 123.331761 128.939016 
L 123.331761 139.95541 
L 123.940489 139.95541 
L 123.940489 140.978361 
L 124.549216 140.978361 
L 124.549216 139.011148 
L 125.157943 139.011148 
L 125.157943 146.014426 
L 125.76667 146.014426 
L 125.76667 143.496393 
L 126.375398 143.496393 
L 126.375398 144.912787 
L 126.984125 144.912787 
L 126.984125 143.732459 
L 127.592852 143.732459 
L 127.592852 149.319344 
L 128.20158 149.319344 
L 128.20158 151.601311 
L 128.810307 151.601311 
L 128.810307 148.375082 
L 129.419034 148.375082 
L 129.419034 148.217705 
L 130.027761 148.217705 
L 130.027761 150.814426 
L 130.636489 150.814426 
L 130.636489 152.309508 
L 131.245216 152.309508 
L 131.245216 149.00459 
L 131.853943 149.00459 
L 131.853943 146.250492 
L 132.46267 146.250492 
L 132.46267 142.709508 
L 133.071398 142.709508 
L 133.071398 136.178361 
L 133.680125 136.178361 
L 133.680125 137.988197 
L 134.288852 137.988197 
L 134.288852 133.345574 
L 134.89758 133.345574 
L 134.89758 132.401311 
L 135.506307 132.401311 
L 135.506307 137.122623 
L 136.115034 137.122623 
L 136.115034 136.099672 
L 136.723761 136.099672 
L 136.723761 137.594754 
L 137.332489 137.594754 
L 137.332489 135.942295 
L 137.941216 135.942295 
L 137.941216 138.932459 
L 138.549943 138.932459 
L 138.549943 141.214426 
L 139.15867 141.214426 
L 139.15867 150.971803 
L 140.376125 151.050492 
L 140.376125 158.998033 
L 141.59358 158.919344 
L 141.59358 162.696393 
L 142.202307 162.696393 
L 142.202307 166.552131 
L 142.811034 166.552131 
L 142.811034 171.588197 
L 143.419761 171.588197 
L 143.419761 177.411148 
L 144.028489 177.411148 
L 144.028489 175.916066 
L 144.637216 175.916066 
L 144.637216 180.322623 
L 145.245943 180.322623 
L 145.245943 180.558689 
L 145.85467 180.558689 
L 145.85467 178.748852 
L 146.463398 178.748852 
L 146.463398 177.961967 
L 147.072125 177.961967 
L 147.072125 177.568525 
L 147.680852 177.568525 
L 147.680852 182.525902 
L 148.28958 182.525902 
L 148.28958 178.35541 
L 148.898307 178.35541 
L 148.898307 180.952131 
L 149.507034 180.952131 
L 149.507034 178.040656 
L 150.115761 178.040656 
L 150.115761 180.165246 
L 150.724489 180.165246 
L 150.724489 178.040656 
L 151.333216 178.040656 
L 151.333216 180.086557 
L 151.941943 180.086557 
L 151.941943 172.296393 
L 152.55067 172.296393 
L 152.55067 176.23082 
L 153.159398 176.23082 
L 153.159398 169.620984 
L 153.768125 169.620984 
L 153.768125 173.161967 
L 154.376852 173.161967 
L 154.376852 174.027541 
L 154.98558 174.027541 
L 154.98558 172.611148 
L 155.594307 172.611148 
L 155.594307 172.139016 
L 156.203034 172.139016 
L 156.203034 174.893115 
L 156.811761 174.893115 
L 156.811761 177.332459 
L 157.420489 177.332459 
L 157.420489 174.578361 
L 158.029216 174.578361 
L 158.029216 173.634098 
L 158.637943 173.634098 
L 158.637943 178.35541 
L 159.24667 178.35541 
L 159.24667 179.299672 
L 159.855398 179.299672 
L 159.855398 182.60459 
L 160.464125 182.60459 
L 160.464125 187.168525 
L 161.072852 187.168525 
L 161.072852 186.617705 
L 161.68158 186.617705 
L 161.68158 188.034098 
L 162.290307 188.034098 
L 162.290307 194.407869 
L 162.899034 194.407869 
L 162.899034 193.620984 
L 163.507761 193.620984 
L 163.507761 191.65377 
L 164.116489 191.65377 
L 164.116489 192.676721 
L 164.725216 192.676721 
L 164.725216 193.699672 
L 165.333943 193.699672 
L 165.333943 197.161967 
L 165.94267 197.161967 
L 165.94267 194.88 
L 166.551398 194.88 
L 166.551398 195.666885 
L 167.160125 195.666885 
L 167.160125 193.148852 
L 167.768852 193.148852 
L 167.768852 195.352131 
L 168.37758 195.352131 
L 168.37758 193.935738 
L 168.986307 193.935738 
L 168.986307 192.047213 
L 169.595034 192.047213 
L 169.595034 193.227541 
L 170.203761 193.227541 
L 170.203761 189.52918 
L 170.812489 189.52918 
L 170.812489 190.63082 
L 171.421216 190.63082 
L 171.421216 190.473443 
L 172.029943 190.473443 
L 172.029943 190.945574 
L 172.63867 190.945574 
L 172.63867 189.922623 
L 173.247398 189.922623 
L 173.247398 187.640656 
L 173.856125 187.640656 
L 173.856125 190.63082 
L 174.464852 190.63082 
L 174.464852 192.125902 
L 175.07358 192.125902 
L 175.07358 191.732459 
L 175.682307 191.732459 
L 175.682307 191.496393 
L 176.291034 191.496393 
L 176.291034 191.102951 
L 176.899761 191.102951 
L 176.899761 192.912787 
L 177.508489 192.912787 
L 177.508489 195.588197 
L 178.117216 195.588197 
L 178.117216 198.10623 
L 178.725943 198.10623 
L 178.725943 195.902951 
L 179.33467 195.902951 
L 179.33467 200.388197 
L 179.943398 200.388197 
L 179.943398 200.23082 
L 180.552125 200.23082 
L 180.552125 201.332459 
L 181.160852 201.332459 
L 181.160852 202.276721 
L 181.76958 202.276721 
L 181.76958 199.522623 
L 182.378307 199.522623 
L 182.378307 201.647213 
L 182.987034 201.647213 
L 182.987034 200.860328 
L 183.595761 200.860328 
L 183.595761 202.35541 
L 184.204489 202.35541 
L 184.204489 203.220984 
L 184.813216 203.220984 
L 184.813216 202.434098 
L 185.421943 202.434098 
L 185.421943 202.827541 
L 186.03067 202.827541 
L 186.03067 199.994754 
L 186.639398 199.994754 
L 186.639398 200.545574 
L 187.248125 200.545574 
L 187.248125 200.702951 
L 187.856852 200.702951 
L 187.856852 202.119344 
L 188.46558 202.119344 
L 188.46558 200.781639 
L 189.074307 200.781639 
L 189.074307 199.601311 
L 189.683034 199.601311 
L 189.683034 197.712787 
L 190.291761 197.712787 
L 190.291761 200.073443 
L 190.900489 200.073443 
L 190.900489 201.25377 
L 191.509216 201.25377 
L 191.509216 199.916066 
L 192.117943 199.916066 
L 192.117943 202.276721 
L 192.72667 202.276721 
L 192.72667 201.489836 
L 193.335398 201.489836 
L 193.335398 201.883279 
L 193.944125 201.883279 
L 193.944125 200.466885 
L 194.552852 200.466885 
L 194.552852 202.984918 
L 195.16158 202.984918 
L 195.16158 204.558689 
L 195.770307 204.558689 
L 195.770307 205.896393 
L 196.379034 205.896393 
L 196.379034 207.312787 
L 197.596489 207.234098 
L 197.596489 207.076721 
L 198.205216 207.076721 
L 198.205216 209.201311 
L 198.813943 209.201311 
L 198.813943 208.257049 
L 199.42267 208.257049 
L 199.42267 209.752131 
L 200.640125 209.752131 
L 200.640125 209.122623 
L 201.248852 209.122623 
L 201.248852 210.617705 
L 201.85758 210.617705 
L 201.85758 209.752131 
L 202.466307 209.752131 
L 202.466307 211.95541 
L 203.075034 211.95541 
L 203.075034 211.247213 
L 203.683761 211.247213 
L 203.683761 211.40459 
L 204.292489 211.40459 
L 204.292489 212.584918 
L 204.901216 212.584918 
L 204.901216 212.978361 
L 205.509943 212.978361 
L 205.509943 210.696393 
L 206.11867 210.696393 
L 206.11867 211.247213 
L 206.727398 211.247213 
L 206.727398 212.899672 
L 207.336125 212.899672 
L 207.336125 214.001311 
L 207.944852 214.001311 
L 207.944852 212.978361 
L 208.55358 212.978361 
L 208.55358 214.158689 
L 209.162307 214.158689 
L 209.162307 214.788197 
L 210.379761 214.709508 
L 210.379761 215.102951 
L 210.988489 215.102951 
L 210.988489 215.260328 
L 211.597216 215.260328 
L 211.597216 215.496393 
L 212.205943 215.496393 
L 212.205943 216.834098 
L 212.81467 216.834098 
L 212.81467 216.676721 
L 213.423398 216.676721 
L 213.423398 217.070164 
L 214.032125 217.070164 
L 214.032125 217.30623 
L 214.640852 217.30623 
L 214.640852 217.542295 
L 215.24958 217.542295 
L 215.24958 218.093115 
L 217.684489 218.171803 
L 217.684489 218.565246 
L 218.901943 218.565246 
L 218.901943 218.801311 
L 221.336852 218.722623 
L 221.336852 218.171803 
L 221.94558 218.171803 
L 221.94558 218.486557 
L 223.163034 218.486557 
L 223.163034 218.643934 
L 223.771761 218.643934 
L 223.771761 218.093115 
L 224.989216 218.093115 
L 224.989216 217.699672 
L 225.597943 217.699672 
L 225.597943 218.014426 
L 226.815398 218.093115 
L 226.815398 218.171803 
L 228.032852 218.171803 
L 228.032852 217.857049 
L 228.64158 217.857049 
L 228.64158 217.542295 
L 229.250307 217.542295 
L 229.250307 217.30623 
L 229.859034 217.30623 
L 229.859034 217.148852 
L 230.467761 217.148852 
L 230.467761 217.542295 
L 231.076489 217.542295 
L 231.076489 217.778361 
L 231.685216 217.778361 
L 231.685216 217.463607 
L 232.293943 217.463607 
L 232.293943 217.778361 
L 232.90267 217.778361 
L 232.90267 217.542295 
L 233.511398 217.542295 
L 233.511398 217.227541 
L 234.120125 217.227541 
L 234.120125 217.699672 
L 235.33758 217.620984 
L 235.33758 218.014426 
L 237.163761 218.093115 
L 237.163761 217.542295 
L 237.772489 217.542295 
L 237.772489 217.857049 
L 238.381216 217.857049 
L 238.381216 217.699672 
L 238.989943 217.699672 
L 238.989943 217.227541 
L 239.59867 217.227541 
L 239.59867 217.857049 
L 240.207398 217.857049 
L 240.207398 217.542295 
L 240.816125 217.542295 
L 240.816125 218.014426 
L 241.424852 218.014426 
L 241.424852 217.620984 
L 242.642307 217.620984 
L 242.642307 217.30623 
L 243.251034 217.30623 
L 243.251034 217.857049 
L 243.859761 217.857049 
L 243.859761 217.542295 
L 244.468489 217.542295 
L 244.468489 217.699672 
L 245.077216 217.699672 
L 245.077216 217.30623 
L 246.29467 217.227541 
L 246.29467 217.857049 
L 246.903398 217.857049 
L 246.903398 217.148852 
L 247.512125 217.148852 
L 247.512125 218.171803 
L 248.120852 218.171803 
L 248.120852 217.384918 
L 249.338307 217.30623 
L 249.338307 217.227541 
L 249.947034 217.227541 
L 249.947034 217.463607 
L 250.555761 217.463607 
L 250.555761 217.30623 
L 251.164489 217.30623 
L 251.164489 217.070164 
L 251.773216 217.070164 
L 251.773216 217.30623 
L 252.99067 217.227541 
L 252.99067 217.778361 
L 253.599398 217.778361 
L 253.599398 217.148852 
L 254.208125 217.148852 
L 254.208125 217.857049 
L 254.816852 217.857049 
L 254.816852 217.542295 
L 255.42558 217.542295 
L 255.42558 217.778361 
L 256.034307 217.778361 
L 256.034307 218.093115 
L 256.643034 218.093115 
L 256.643034 217.935738 
L 257.251761 217.935738 
L 257.251761 217.699672 
L 257.860489 217.699672 
L 257.860489 218.250492 
L 258.469216 218.250492 
L 258.469216 217.542295 
L 259.077943 217.542295 
L 259.077943 218.093115 
L 259.68667 218.093115 
L 259.68667 217.857049 
L 260.295398 217.857049 
L 260.295398 218.093115 
L 261.512852 218.093115 
L 261.512852 217.935738 
L 262.730307 217.935738 
L 262.730307 217.778361 
L 263.947761 217.857049 
L 263.947761 217.227541 
L 264.556489 217.227541 
L 264.556489 217.778361 
L 265.165216 217.778361 
L 265.165216 217.935738 
L 266.38267 217.935738 
L 266.38267 217.778361 
L 266.991398 217.778361 
L 266.991398 217.30623 
L 267.600125 217.30623 
L 267.600125 217.542295 
L 268.208852 217.542295 
L 268.208852 216.834098 
L 268.81758 216.834098 
L 268.81758 216.676721 
L 269.426307 216.676721 
L 269.426307 217.542295 
L 270.035034 217.542295 
L 270.035034 217.148852 
L 270.643761 217.148852 
L 270.643761 217.857049 
L 271.861216 217.935738 
L 271.861216 217.227541 
L 272.469943 217.227541 
L 272.469943 218.250492 
L 273.07867 218.250492 
L 273.07867 217.935738 
L 274.296125 217.935738 
L 274.296125 217.778361 
L 275.51358 217.699672 
L 275.51358 218.014426 
L 276.731034 217.935738 
L 276.731034 217.857049 
L 277.948489 217.935738 
L 277.948489 218.093115 
L 279.165943 218.093115 
L 279.165943 217.935738 
L 279.77467 217.935738 
L 279.77467 218.171803 
L 280.383398 218.171803 
L 280.383398 218.014426 
L 280.992125 218.014426 
L 280.992125 218.32918 
L 281.600852 218.32918 
L 281.600852 217.857049 
L 282.20958 217.857049 
L 282.20958 218.250492 
L 282.818307 218.250492 
L 282.818307 218.093115 
L 283.427034 218.093115 
L 283.427034 217.699672 
L 285.253216 217.699672 
L 285.253216 217.542295 
L 285.861943 217.542295 
L 285.861943 217.857049 
L 286.47067 217.857049 
L 286.47067 217.620984 
L 287.079398 217.620984 
L 287.079398 217.384918 
L 287.688125 217.384918 
L 287.688125 217.542295 
L 288.296852 217.542295 
L 288.296852 218.250492 
L 288.90558 218.250492 
L 288.90558 217.463607 
L 290.123034 217.542295 
L 290.123034 217.148852 
L 290.731761 217.148852 
L 290.731761 218.014426 
L 291.340489 218.014426 
L 291.340489 217.699672 
L 291.949216 217.699672 
L 291.949216 218.014426 
L 292.557943 218.014426 
L 292.557943 218.486557 
L 293.16667 218.486557 
L 293.16667 218.014426 
L 293.775398 218.014426 
L 293.775398 217.463607 
L 294.384125 217.463607 
L 294.384125 218.014426 
L 294.992852 218.014426 
L 294.992852 217.857049 
L 295.60158 217.857049 
L 295.60158 218.093115 
L 296.210307 218.093115 
L 296.210307 218.32918 
L 297.427761 218.250492 
L 297.427761 217.935738 
L 298.036489 217.935738 
L 298.036489 217.620984 
L 298.645216 217.620984 
L 298.645216 218.171803 
L 299.253943 218.171803 
L 299.253943 218.407869 
L 299.86267 218.407869 
L 299.86267 218.093115 
L 300.471398 218.093115 
L 300.471398 218.250492 
L 301.080125 218.250492 
L 301.080125 217.778361 
L 302.906307 217.699672 
L 302.906307 218.250492 
L 303.515034 218.250492 
L 303.515034 217.935738 
L 304.123761 217.935738 
L 304.123761 218.093115 
L 305.341216 218.093115 
L 305.341216 217.935738 
L 305.949943 217.935738 
L 305.949943 217.699672 
L 306.55867 217.699672 
L 306.55867 218.093115 
L 307.167398 218.093115 
L 307.167398 217.778361 
L 308.384852 217.857049 
L 308.384852 218.407869 
L 308.99358 218.407869 
L 308.99358 218.250492 
L 309.602307 218.250492 
L 309.602307 217.699672 
L 310.211034 217.699672 
L 310.211034 217.463607 
L 310.819761 217.463607 
L 310.819761 218.407869 
L 311.428489 218.407869 
L 311.428489 217.935738 
L 312.037216 217.935738 
L 312.037216 218.32918 
L 312.645943 218.32918 
L 312.645943 217.935738 
L 314.472125 217.935738 
L 314.472125 218.643934 
L 315.080852 218.643934 
L 315.080852 218.801311 
L 315.68958 218.801311 
L 315.68958 217.778361 
L 316.298307 217.778361 
L 316.298307 218.171803 
L 316.907034 218.171803 
L 316.907034 217.857049 
L 317.515761 217.857049 
L 317.515761 218.250492 
L 318.124489 218.250492 
L 318.124489 217.935738 
L 318.733216 217.935738 
L 318.733216 218.250492 
L 319.341943 218.250492 
L 319.341943 218.093115 
L 319.95067 218.093115 
L 319.95067 218.32918 
L 321.168125 218.407869 
L 321.168125 217.935738 
L 321.776852 217.935738 
L 321.776852 218.250492 
L 322.38558 218.250492 
L 322.38558 218.014426 
L 323.603034 218.093115 
L 323.603034 218.32918 
L 324.211761 218.32918 
L 324.211761 217.935738 
L 324.820489 217.935738 
L 324.820489 217.699672 
L 325.429216 217.699672 
L 325.429216 218.171803 
L 326.64667 218.171803 
L 326.64667 217.935738 
L 327.255398 217.935738 
L 327.255398 218.32918 
L 327.864125 218.32918 
L 327.864125 218.093115 
L 328.472852 218.093115 
L 328.472852 218.32918 
L 329.08158 218.32918 
L 329.08158 218.486557 
L 330.299034 218.407869 
L 330.299034 218.722623 
L 330.907761 218.722623 
L 330.907761 218.565246 
L 331.516489 218.565246 
L 331.516489 218.250492 
L 332.125216 218.250492 
L 332.125216 218.565246 
L 335.168852 218.486557 
L 335.168852 218.171803 
L 335.77758 218.171803 
L 335.77758 218.486557 
L 336.386307 218.486557 
L 336.386307 218.643934 
L 336.995034 218.643934 
L 336.995034 218.486557 
L 337.603761 218.486557 
L 337.603761 218.643934 
L 338.212489 218.643934 
L 338.212489 218.486557 
L 338.821216 218.486557 
L 338.821216 218.88 
L 339.429943 218.88 
L 339.429943 218.722623 
L 341.256125 218.722623 
L 341.256125 218.565246 
L 342.47358 218.565246 
L 342.47358 218.722623 
L 346.73467 218.801311 
L 346.73467 218.88 
L 347.343398 218.88 
L 347.343398 218.722623 
L 349.16958 218.722623 
L 349.16958 218.88 
L 360.735398 218.801311 
L 360.735398 218.722623 
L 362.56158 218.801311 
L 362.56158 218.88 
L 367.431398 218.801311 
L 367.431398 218.722623 
L 368.040125 218.722623 
L 368.040125 218.88 
L 369.25758 218.88 
L 369.25758 218.643934 
L 371.083761 218.722623 
L 371.083761 218.801311 
L 372.909943 218.801311 
L 372.909943 218.801311 
" clip-path="url(#p26a56a4d94)" style="fill: none; stroke: #1f77b4; stroke-width: 1.5; stroke-linecap: square"/>
   </g>
   <g id="patch_3">
    <path d="M 53.328125 228.96 
L 53.328125 7.2 
" style="fill: none; stroke: #000000; stroke-width: 0.8; stroke-linejoin: miter; stroke-linecap: square"/>
   </g>
   <g id="patch_4">
    <path d="M 388.128125 228.96 
L 388.128125 7.2 
" style="fill: none; stroke: #000000; stroke-width: 0.8; stroke-linejoin: miter; stroke-linecap: square"/>
   </g>
   <g id="patch_5">
    <path d="M 53.328125 228.96 
L 388.128125 228.96 
" style="fill: none; stroke: #000000; stroke-width: 0.8; stroke-linejoin: miter; stroke-linecap: square"/>
   </g>
   <g id="patch_6">
    <path d="M 53.328125 7.2 
L 388.128125 7.2 
" style="fill: none; stroke: #000000; stroke-width: 0.8; stroke-linejoin: miter; stroke-linecap: square"/>
   </g>
  </g>
 </g>
 <defs>
  <clipPath id="p26a56a4d94">
   <rect x="53.328125" y="7.2" width="334.8" height="221.76"/>
  </clipPath>
 </defs>
</svg>
