<?xml version="1.0" encoding="utf-8" standalone="no"?>
<!DOCTYPE svg PUBLIC "-//W3C//DTD SVG 1.1//EN"
  "http://www.w3.org/Graphics/SVG/1.1/DTD/svg11.dtd">
<svg xmlns:xlink="http://www.w3.org/1999/xlink" width="872.39952pt" height="296.39952pt" viewBox="0 0 872.39952 296.39952" xmlns="http://www.w3.org/2000/svg" version="1.1">
 <metadata>
  <rdf:RDF xmlns:dc="http://purl.org/dc/elements/1.1/" xmlns:cc="http://creativecommons.org/ns#" xmlns:rdf="http://www.w3.org/1999/02/22-rdf-syntax-ns#">
   <cc:Work>
    <dc:type rdf:resource="http://purl.org/dc/dcmitype/StillImage"/>
    <dc:date>2025-10-10T17:28:32.981250</dc:date>
    <dc:format>image/svg+xml</dc:format>
    <dc:creator>
     <cc:Agent>
      <dc:title>Matplotlib v3.10.6, https://matplotlib.org/</dc:title>
     </cc:Agent>
    </dc:creator>
   </cc:Work>
  </rdf:RDF>
 </metadata>
 <defs>
  <style type="text/css">*{stroke-linejoin: round; stroke-linecap: butt}</style>
 </defs>
 <g id="figure_1">
  <g id="patch_1">
   <path d="M 0 296.39952 
L 872.39952 296.39952 
L 872.39952 0 
L 0 0 
z
" style="fill: #ffffff"/>
  </g>
  <g id="axes_1">
   <g id="patch_2">
    <path d="M 53.328125 257.158895 
L 411.41851 257.158895 
L 411.41851 7.2 
L 53.328125 7.2 
z
" style="fill: #ffffff"/>
   </g>
   <g id="matplotlib.axis_1">
    <g id="xtick_1">
     <g id="line2d_1">
      <defs>
       <path id="m0fb89a9ba3" d="M 0 0 
L 0 3.5 
" style="stroke: #000000; stroke-width: 0.8"/>
      </defs>
      <g>
       <use xlink:href="#m0fb89a9ba3" x="54.426135" y="257.158895" style="stroke: #000000; stroke-width: 0.8"/>
      </g>
     </g>
     <g id="text_1">
      <!-- 0 -->
      <g transform="translate(51.244885 271.757332) scale(0.1 -0.1)">
       <defs>
        <path id="DejaVuSans-30" d="M 2034 4250 
Q 1547 4250 1301 3770 
Q 1056 3291 1056 2328 
Q 1056 1369 1301 889 
Q 1547 409 2034 409 
Q 2525 409 2770 889 
Q 3016 1369 3016 2328 
Q 3016 3291 2770 3770 
Q 2525 4250 2034 4250 
z
M 2034 4750 
Q 2819 4750 3233 4129 
Q 3647 3509 3647 2328 
Q 3647 1150 3233 529 
Q 2819 -91 2034 -91 
Q 1250 -91 836 529 
Q 422 1150 422 2328 
Q 422 3509 836 4129 
Q 1250 4750 2034 4750 
z
" transform="scale(0.015625)"/>
       </defs>
       <use xlink:href="#DejaVuSans-30"/>
      </g>
     </g>
    </g>
    <g id="xtick_2">
     <g id="line2d_2">
      <g>
       <use xlink:href="#m0fb89a9ba3" x="100.991887" y="257.158895" style="stroke: #000000; stroke-width: 0.8"/>
      </g>
     </g>
     <g id="text_2">
      <!-- 10000 -->
      <g transform="translate(85.085637 271.757332) scale(0.1 -0.1)">
       <defs>
        <path id="DejaVuSans-31" d="M 794 531 
L 1825 531 
L 1825 4091 
L 703 3866 
L 703 4441 
L 1819 4666 
L 2450 4666 
L 2450 531 
L 3481 531 
L 3481 0 
L 794 0 
L 794 531 
z
" transform="scale(0.015625)"/>
       </defs>
       <use xlink:href="#DejaVuSans-31"/>
       <use xlink:href="#DejaVuSans-30" transform="translate(63.623047 0)"/>
       <use xlink:href="#DejaVuSans-30" transform="translate(127.246094 0)"/>
       <use xlink:href="#DejaVuSans-30" transform="translate(190.869141 0)"/>
       <use xlink:href="#DejaVuSans-30" transform="translate(254.492188 0)"/>
      </g>
     </g>
    </g>
    <g id="xtick_3">
     <g id="line2d_3">
      <g>
       <use xlink:href="#m0fb89a9ba3" x="147.557639" y="257.158895" style="stroke: #000000; stroke-width: 0.8"/>
      </g>
     </g>
     <g id="text_3">
      <!-- 20000 -->
      <g transform="translate(131.651389 271.757332) scale(0.1 -0.1)">
       <defs>
        <path id="DejaVuSans-32" d="M 1228 531 
L 3431 531 
L 3431 0 
L 469 0 
L 469 531 
Q 828 903 1448 1529 
Q 2069 2156 2228 2338 
Q 2531 2678 2651 2914 
Q 2772 3150 2772 3378 
Q 2772 3750 2511 3984 
Q 2250 4219 1831 4219 
Q 1534 4219 1204 4116 
Q 875 4013 500 3803 
L 500 4441 
Q 881 4594 1212 4672 
Q 1544 4750 1819 4750 
Q 2544 4750 2975 4387 
Q 3406 4025 3406 3419 
Q 3406 3131 3298 2873 
Q 3191 2616 2906 2266 
Q 2828 2175 2409 1742 
Q 1991 1309 1228 531 
z
" transform="scale(0.015625)"/>
       </defs>
       <use xlink:href="#DejaVuSans-32"/>
       <use xlink:href="#DejaVuSans-30" transform="translate(63.623047 0)"/>
       <use xlink:href="#DejaVuSans-30" transform="translate(127.246094 0)"/>
       <use xlink:href="#DejaVuSans-30" transform="translate(190.869141 0)"/>
       <use xlink:href="#DejaVuSans-30" transform="translate(254.492188 0)"/>
      </g>
     </g>
    </g>
    <g id="xtick_4">
     <g id="line2d_4">
      <g>
       <use xlink:href="#m0fb89a9ba3" x="194.12339" y="257.158895" style="stroke: #000000; stroke-width: 0.8"/>
      </g>
     </g>
     <g id="text_4">
      <!-- 30000 -->
      <g transform="translate(178.21714 271.757332) scale(0.1 -0.1)">
       <defs>
        <path id="DejaVuSans-33" d="M 2597 2516 
Q 3050 2419 3304 2112 
Q 3559 1806 3559 1356 
Q 3559 666 3084 287 
Q 2609 -91 1734 -91 
Q 1441 -91 1130 -33 
Q 819 25 488 141 
L 488 750 
Q 750 597 1062 519 
Q 1375 441 1716 441 
Q 2309 441 2620 675 
Q 2931 909 2931 1356 
Q 2931 1769 2642 2001 
Q 2353 2234 1838 2234 
L 1294 2234 
L 1294 2753 
L 1863 2753 
Q 2328 2753 2575 2939 
Q 2822 3125 2822 3475 
Q 2822 3834 2567 4026 
Q 2313 4219 1838 4219 
Q 1578 4219 1281 4162 
Q 984 4106 628 3988 
L 628 4550 
Q 988 4650 1302 4700 
Q 1616 4750 1894 4750 
Q 2613 4750 3031 4423 
Q 3450 4097 3450 3541 
Q 3450 3153 3228 2886 
Q 3006 2619 2597 2516 
z
" transform="scale(0.015625)"/>
       </defs>
       <use xlink:href="#DejaVuSans-33"/>
       <use xlink:href="#DejaVuSans-30" transform="translate(63.623047 0)"/>
       <use xlink:href="#DejaVuSans-30" transform="translate(127.246094 0)"/>
       <use xlink:href="#DejaVuSans-30" transform="translate(190.869141 0)"/>
       <use xlink:href="#DejaVuSans-30" transform="translate(254.492188 0)"/>
      </g>
     </g>
    </g>
    <g id="xtick_5">
     <g id="line2d_5">
      <g>
       <use xlink:href="#m0fb89a9ba3" x="240.689142" y="257.158895" style="stroke: #000000; stroke-width: 0.8"/>
      </g>
     </g>
     <g id="text_5">
      <!-- 40000 -->
      <g transform="translate(224.782892 271.757332) scale(0.1 -0.1)">
       <defs>
        <path id="DejaVuSans-34" d="M 2419 4116 
L 825 1625 
L 2419 1625 
L 2419 4116 
z
M 2253 4666 
L 3047 4666 
L 3047 1625 
L 3713 1625 
L 3713 1100 
L 3047 1100 
L 3047 0 
L 2419 0 
L 2419 1100 
L 313 1100 
L 313 1709 
L 2253 4666 
z
" transform="scale(0.015625)"/>
       </defs>
       <use xlink:href="#DejaVuSans-34"/>
       <use xlink:href="#DejaVuSans-30" transform="translate(63.623047 0)"/>
       <use xlink:href="#DejaVuSans-30" transform="translate(127.246094 0)"/>
       <use xlink:href="#DejaVuSans-30" transform="translate(190.869141 0)"/>
       <use xlink:href="#DejaVuSans-30" transform="translate(254.492188 0)"/>
      </g>
     </g>
    </g>
    <g id="xtick_6">
     <g id="line2d_6">
      <g>
       <use xlink:href="#m0fb89a9ba3" x="287.254894" y="257.158895" style="stroke: #000000; stroke-width: 0.8"/>
      </g>
     </g>
     <g id="text_6">
      <!-- 50000 -->
      <g transform="translate(271.348644 271.757332) scale(0.1 -0.1)">
       <defs>
        <path id="DejaVuSans-35" d="M 691 4666 
L 3169 4666 
L 3169 4134 
L 1269 4134 
L 1269 2991 
Q 1406 3038 1543 3061 
Q 1681 3084 1819 3084 
Q 2600 3084 3056 2656 
Q 3513 2228 3513 1497 
Q 3513 744 3044 326 
Q 2575 -91 1722 -91 
Q 1428 -91 1123 -41 
Q 819 9 494 109 
L 494 744 
Q 775 591 1075 516 
Q 1375 441 1709 441 
Q 2250 441 2565 725 
Q 2881 1009 2881 1497 
Q 2881 1984 2565 2268 
Q 2250 2553 1709 2553 
Q 1456 2553 1204 2497 
Q 953 2441 691 2322 
L 691 4666 
z
" transform="scale(0.015625)"/>
       </defs>
       <use xlink:href="#DejaVuSans-35"/>
       <use xlink:href="#DejaVuSans-30" transform="translate(63.623047 0)"/>
       <use xlink:href="#DejaVuSans-30" transform="translate(127.246094 0)"/>
       <use xlink:href="#DejaVuSans-30" transform="translate(190.869141 0)"/>
       <use xlink:href="#DejaVuSans-30" transform="translate(254.492188 0)"/>
      </g>
     </g>
    </g>
    <g id="xtick_7">
     <g id="line2d_7">
      <g>
       <use xlink:href="#m0fb89a9ba3" x="333.820646" y="257.158895" style="stroke: #000000; stroke-width: 0.8"/>
      </g>
     </g>
     <g id="text_7">
      <!-- 60000 -->
      <g transform="translate(317.914396 271.757332) scale(0.1 -0.1)">
       <defs>
        <path id="DejaVuSans-36" d="M 2113 2584 
Q 1688 2584 1439 2293 
Q 1191 2003 1191 1497 
Q 1191 994 1439 701 
Q 1688 409 2113 409 
Q 2538 409 2786 701 
Q 3034 994 3034 1497 
Q 3034 2003 2786 2293 
Q 2538 2584 2113 2584 
z
M 3366 4563 
L 3366 3988 
Q 3128 4100 2886 4159 
Q 2644 4219 2406 4219 
Q 1781 4219 1451 3797 
Q 1122 3375 1075 2522 
Q 1259 2794 1537 2939 
Q 1816 3084 2150 3084 
Q 2853 3084 3261 2657 
Q 3669 2231 3669 1497 
Q 3669 778 3244 343 
Q 2819 -91 2113 -91 
Q 1303 -91 875 529 
Q 447 1150 447 2328 
Q 447 3434 972 4092 
Q 1497 4750 2381 4750 
Q 2619 4750 2861 4703 
Q 3103 4656 3366 4563 
z
" transform="scale(0.015625)"/>
       </defs>
       <use xlink:href="#DejaVuSans-36"/>
       <use xlink:href="#DejaVuSans-30" transform="translate(63.623047 0)"/>
       <use xlink:href="#DejaVuSans-30" transform="translate(127.246094 0)"/>
       <use xlink:href="#DejaVuSans-30" transform="translate(190.869141 0)"/>
       <use xlink:href="#DejaVuSans-30" transform="translate(254.492188 0)"/>
      </g>
     </g>
    </g>
    <g id="xtick_8">
     <g id="line2d_8">
      <g>
       <use xlink:href="#m0fb89a9ba3" x="380.386397" y="257.158895" style="stroke: #000000; stroke-width: 0.8"/>
      </g>
     </g>
     <g id="text_8">
      <!-- 70000 -->
      <g transform="translate(364.480147 271.757332) scale(0.1 -0.1)">
       <defs>
        <path id="DejaVuSans-37" d="M 525 4666 
L 3525 4666 
L 3525 4397 
L 1831 0 
L 1172 0 
L 2766 4134 
L 525 4134 
L 525 4666 
z
" transform="scale(0.015625)"/>
       </defs>
       <use xlink:href="#DejaVuSans-37"/>
       <use xlink:href="#DejaVuSans-30" transform="translate(63.623047 0)"/>
       <use xlink:href="#DejaVuSans-30" transform="translate(127.246094 0)"/>
       <use xlink:href="#DejaVuSans-30" transform="translate(190.869141 0)"/>
       <use xlink:href="#DejaVuSans-30" transform="translate(254.492188 0)"/>
      </g>
     </g>
    </g>
    <g id="text_9">
     <!-- birth_time [µs] -->
     <g transform="translate(195.553005 285.435457) scale(0.1 -0.1)">
      <defs>
       <path id="DejaVuSans-62" d="M 3116 1747 
Q 3116 2381 2855 2742 
Q 2594 3103 2138 3103 
Q 1681 3103 1420 2742 
Q 1159 2381 1159 1747 
Q 1159 1113 1420 752 
Q 1681 391 2138 391 
Q 2594 391 2855 752 
Q 3116 1113 3116 1747 
z
M 1159 2969 
Q 1341 3281 1617 3432 
Q 1894 3584 2278 3584 
Q 2916 3584 3314 3078 
Q 3713 2572 3713 1747 
Q 3713 922 3314 415 
Q 2916 -91 2278 -91 
Q 1894 -91 1617 61 
Q 1341 213 1159 525 
L 1159 0 
L 581 0 
L 581 4863 
L 1159 4863 
L 1159 2969 
z
" transform="scale(0.015625)"/>
       <path id="DejaVuSans-69" d="M 603 3500 
L 1178 3500 
L 1178 0 
L 603 0 
L 603 3500 
z
M 603 4863 
L 1178 4863 
L 1178 4134 
L 603 4134 
L 603 4863 
z
" transform="scale(0.015625)"/>
       <path id="DejaVuSans-72" d="M 2631 2963 
Q 2534 3019 2420 3045 
Q 2306 3072 2169 3072 
Q 1681 3072 1420 2755 
Q 1159 2438 1159 1844 
L 1159 0 
L 581 0 
L 581 3500 
L 1159 3500 
L 1159 2956 
Q 1341 3275 1631 3429 
Q 1922 3584 2338 3584 
Q 2397 3584 2469 3576 
Q 2541 3569 2628 3553 
L 2631 2963 
z
" transform="scale(0.015625)"/>
       <path id="DejaVuSans-74" d="M 1172 4494 
L 1172 3500 
L 2356 3500 
L 2356 3053 
L 1172 3053 
L 1172 1153 
Q 1172 725 1289 603 
Q 1406 481 1766 481 
L 2356 481 
L 2356 0 
L 1766 0 
Q 1100 0 847 248 
Q 594 497 594 1153 
L 594 3053 
L 172 3053 
L 172 3500 
L 594 3500 
L 594 4494 
L 1172 4494 
z
" transform="scale(0.015625)"/>
       <path id="DejaVuSans-68" d="M 3513 2113 
L 3513 0 
L 2938 0 
L 2938 2094 
Q 2938 2591 2744 2837 
Q 2550 3084 2163 3084 
Q 1697 3084 1428 2787 
Q 1159 2491 1159 1978 
L 1159 0 
L 581 0 
L 581 4863 
L 1159 4863 
L 1159 2956 
Q 1366 3272 1645 3428 
Q 1925 3584 2291 3584 
Q 2894 3584 3203 3211 
Q 3513 2838 3513 2113 
z
" transform="scale(0.015625)"/>
       <path id="DejaVuSans-5f" d="M 3263 -1063 
L 3263 -1509 
L -63 -1509 
L -63 -1063 
L 3263 -1063 
z
" transform="scale(0.015625)"/>
       <path id="DejaVuSans-6d" d="M 3328 2828 
Q 3544 3216 3844 3400 
Q 4144 3584 4550 3584 
Q 5097 3584 5394 3201 
Q 5691 2819 5691 2113 
L 5691 0 
L 5113 0 
L 5113 2094 
Q 5113 2597 4934 2840 
Q 4756 3084 4391 3084 
Q 3944 3084 3684 2787 
Q 3425 2491 3425 1978 
L 3425 0 
L 2847 0 
L 2847 2094 
Q 2847 2600 2669 2842 
Q 2491 3084 2119 3084 
Q 1678 3084 1418 2786 
Q 1159 2488 1159 1978 
L 1159 0 
L 581 0 
L 581 3500 
L 1159 3500 
L 1159 2956 
Q 1356 3278 1631 3431 
Q 1906 3584 2284 3584 
Q 2666 3584 2933 3390 
Q 3200 3197 3328 2828 
z
" transform="scale(0.015625)"/>
       <path id="DejaVuSans-65" d="M 3597 1894 
L 3597 1613 
L 953 1613 
Q 991 1019 1311 708 
Q 1631 397 2203 397 
Q 2534 397 2845 478 
Q 3156 559 3463 722 
L 3463 178 
Q 3153 47 2828 -22 
Q 2503 -91 2169 -91 
Q 1331 -91 842 396 
Q 353 884 353 1716 
Q 353 2575 817 3079 
Q 1281 3584 2069 3584 
Q 2775 3584 3186 3129 
Q 3597 2675 3597 1894 
z
M 3022 2063 
Q 3016 2534 2758 2815 
Q 2500 3097 2075 3097 
Q 1594 3097 1305 2825 
Q 1016 2553 972 2059 
L 3022 2063 
z
" transform="scale(0.015625)"/>
       <path id="DejaVuSans-20" transform="scale(0.015625)"/>
       <path id="DejaVuSans-5b" d="M 550 4863 
L 1875 4863 
L 1875 4416 
L 1125 4416 
L 1125 -397 
L 1875 -397 
L 1875 -844 
L 550 -844 
L 550 4863 
z
" transform="scale(0.015625)"/>
       <path id="DejaVuSans-b5" d="M 544 -1331 
L 544 3500 
L 1119 3500 
L 1119 1325 
Q 1119 872 1334 640 
Q 1550 409 1972 409 
Q 2434 409 2667 671 
Q 2900 934 2900 1459 
L 2900 3500 
L 3475 3500 
L 3475 806 
Q 3475 619 3529 530 
Q 3584 441 3700 441 
Q 3728 441 3778 458 
Q 3828 475 3916 513 
L 3916 50 
Q 3788 -22 3673 -56 
Q 3559 -91 3450 -91 
Q 3234 -91 3106 31 
Q 2978 153 2931 403 
Q 2775 156 2548 32 
Q 2322 -91 2016 -91 
Q 1697 -91 1473 31 
Q 1250 153 1119 397 
L 1119 -1331 
L 544 -1331 
z
" transform="scale(0.015625)"/>
       <path id="DejaVuSans-73" d="M 2834 3397 
L 2834 2853 
Q 2591 2978 2328 3040 
Q 2066 3103 1784 3103 
Q 1356 3103 1142 2972 
Q 928 2841 928 2578 
Q 928 2378 1081 2264 
Q 1234 2150 1697 2047 
L 1894 2003 
Q 2506 1872 2764 1633 
Q 3022 1394 3022 966 
Q 3022 478 2636 193 
Q 2250 -91 1575 -91 
Q 1294 -91 989 -36 
Q 684 19 347 128 
L 347 722 
Q 666 556 975 473 
Q 1284 391 1588 391 
Q 1994 391 2212 530 
Q 2431 669 2431 922 
Q 2431 1156 2273 1281 
Q 2116 1406 1581 1522 
L 1381 1569 
Q 847 1681 609 1914 
Q 372 2147 372 2553 
Q 372 3047 722 3315 
Q 1072 3584 1716 3584 
Q 2034 3584 2315 3537 
Q 2597 3491 2834 3397 
z
" transform="scale(0.015625)"/>
       <path id="DejaVuSans-5d" d="M 1947 4863 
L 1947 -844 
L 622 -844 
L 622 -397 
L 1369 -397 
L 1369 4416 
L 622 4416 
L 622 4863 
L 1947 4863 
z
" transform="scale(0.015625)"/>
      </defs>
      <use xlink:href="#DejaVuSans-62"/>
      <use xlink:href="#DejaVuSans-69" transform="translate(63.476562 0)"/>
      <use xlink:href="#DejaVuSans-72" transform="translate(91.259766 0)"/>
      <use xlink:href="#DejaVuSans-74" transform="translate(132.373047 0)"/>
      <use xlink:href="#DejaVuSans-68" transform="translate(171.582031 0)"/>
      <use xlink:href="#DejaVuSans-5f" transform="translate(234.960938 0)"/>
      <use xlink:href="#DejaVuSans-74" transform="translate(284.960938 0)"/>
      <use xlink:href="#DejaVuSans-69" transform="translate(324.169922 0)"/>
      <use xlink:href="#DejaVuSans-6d" transform="translate(351.953125 0)"/>
      <use xlink:href="#DejaVuSans-65" transform="translate(449.365234 0)"/>
      <use xlink:href="#DejaVuSans-20" transform="translate(510.888672 0)"/>
      <use xlink:href="#DejaVuSans-5b" transform="translate(542.675781 0)"/>
      <use xlink:href="#DejaVuSans-b5" transform="translate(581.689453 0)"/>
      <use xlink:href="#DejaVuSans-73" transform="translate(645.3125 0)"/>
      <use xlink:href="#DejaVuSans-5d" transform="translate(697.412109 0)"/>
     </g>
    </g>
   </g>
   <g id="matplotlib.axis_2">
    <g id="ytick_1">
     <g id="line2d_9">
      <defs>
       <path id="m4660a4cdd5" d="M 0 0 
L -3.5 0 
" style="stroke: #000000; stroke-width: 0.8"/>
      </defs>
      <g>
       <use xlink:href="#m4660a4cdd5" x="53.328125" y="245.871949" style="stroke: #000000; stroke-width: 0.8"/>
      </g>
     </g>
     <g id="text_10">
      <!-- 0 -->
      <g transform="translate(39.965625 249.671168) scale(0.1 -0.1)">
       <use xlink:href="#DejaVuSans-30"/>
      </g>
     </g>
    </g>
    <g id="ytick_2">
     <g id="line2d_10">
      <g>
       <use xlink:href="#m4660a4cdd5" x="53.328125" y="208.460794" style="stroke: #000000; stroke-width: 0.8"/>
      </g>
     </g>
     <g id="text_11">
      <!-- 500 -->
      <g transform="translate(27.240625 212.260013) scale(0.1 -0.1)">
       <use xlink:href="#DejaVuSans-35"/>
       <use xlink:href="#DejaVuSans-30" transform="translate(63.623047 0)"/>
       <use xlink:href="#DejaVuSans-30" transform="translate(127.246094 0)"/>
      </g>
     </g>
    </g>
    <g id="ytick_3">
     <g id="line2d_11">
      <g>
       <use xlink:href="#m4660a4cdd5" x="53.328125" y="171.049638" style="stroke: #000000; stroke-width: 0.8"/>
      </g>
     </g>
     <g id="text_12">
      <!-- 1000 -->
      <g transform="translate(20.878125 174.848857) scale(0.1 -0.1)">
       <use xlink:href="#DejaVuSans-31"/>
       <use xlink:href="#DejaVuSans-30" transform="translate(63.623047 0)"/>
       <use xlink:href="#DejaVuSans-30" transform="translate(127.246094 0)"/>
       <use xlink:href="#DejaVuSans-30" transform="translate(190.869141 0)"/>
      </g>
     </g>
    </g>
    <g id="ytick_4">
     <g id="line2d_12">
      <g>
       <use xlink:href="#m4660a4cdd5" x="53.328125" y="133.638483" style="stroke: #000000; stroke-width: 0.8"/>
      </g>
     </g>
     <g id="text_13">
      <!-- 1500 -->
      <g transform="translate(20.878125 137.437701) scale(0.1 -0.1)">
       <use xlink:href="#DejaVuSans-31"/>
       <use xlink:href="#DejaVuSans-35" transform="translate(63.623047 0)"/>
       <use xlink:href="#DejaVuSans-30" transform="translate(127.246094 0)"/>
       <use xlink:href="#DejaVuSans-30" transform="translate(190.869141 0)"/>
      </g>
     </g>
    </g>
    <g id="ytick_5">
     <g id="line2d_13">
      <g>
       <use xlink:href="#m4660a4cdd5" x="53.328125" y="96.227327" style="stroke: #000000; stroke-width: 0.8"/>
      </g>
     </g>
     <g id="text_14">
      <!-- 2000 -->
      <g transform="translate(20.878125 100.026546) scale(0.1 -0.1)">
       <use xlink:href="#DejaVuSans-32"/>
       <use xlink:href="#DejaVuSans-30" transform="translate(63.623047 0)"/>
       <use xlink:href="#DejaVuSans-30" transform="translate(127.246094 0)"/>
       <use xlink:href="#DejaVuSans-30" transform="translate(190.869141 0)"/>
      </g>
     </g>
    </g>
    <g id="ytick_6">
     <g id="line2d_14">
      <g>
       <use xlink:href="#m4660a4cdd5" x="53.328125" y="58.816171" style="stroke: #000000; stroke-width: 0.8"/>
      </g>
     </g>
     <g id="text_15">
      <!-- 2500 -->
      <g transform="translate(20.878125 62.61539) scale(0.1 -0.1)">
       <use xlink:href="#DejaVuSans-32"/>
       <use xlink:href="#DejaVuSans-35" transform="translate(63.623047 0)"/>
       <use xlink:href="#DejaVuSans-30" transform="translate(127.246094 0)"/>
       <use xlink:href="#DejaVuSans-30" transform="translate(190.869141 0)"/>
      </g>
     </g>
    </g>
    <g id="ytick_7">
     <g id="line2d_15">
      <g>
       <use xlink:href="#m4660a4cdd5" x="53.328125" y="21.405016" style="stroke: #000000; stroke-width: 0.8"/>
      </g>
     </g>
     <g id="text_16">
      <!-- 3000 -->
      <g transform="translate(20.878125 25.204235) scale(0.1 -0.1)">
       <use xlink:href="#DejaVuSans-33"/>
       <use xlink:href="#DejaVuSans-30" transform="translate(63.623047 0)"/>
       <use xlink:href="#DejaVuSans-30" transform="translate(127.246094 0)"/>
       <use xlink:href="#DejaVuSans-30" transform="translate(190.869141 0)"/>
      </g>
     </g>
    </g>
    <g id="text_17">
     <!-- [counts] -->
     <g transform="translate(14.798438 152.791947) rotate(-90) scale(0.1 -0.1)">
      <defs>
       <path id="DejaVuSans-63" d="M 3122 3366 
L 3122 2828 
Q 2878 2963 2633 3030 
Q 2388 3097 2138 3097 
Q 1578 3097 1268 2742 
Q 959 2388 959 1747 
Q 959 1106 1268 751 
Q 1578 397 2138 397 
Q 2388 397 2633 464 
Q 2878 531 3122 666 
L 3122 134 
Q 2881 22 2623 -34 
Q 2366 -91 2075 -91 
Q 1284 -91 818 406 
Q 353 903 353 1747 
Q 353 2603 823 3093 
Q 1294 3584 2113 3584 
Q 2378 3584 2631 3529 
Q 2884 3475 3122 3366 
z
" transform="scale(0.015625)"/>
       <path id="DejaVuSans-6f" d="M 1959 3097 
Q 1497 3097 1228 2736 
Q 959 2375 959 1747 
Q 959 1119 1226 758 
Q 1494 397 1959 397 
Q 2419 397 2687 759 
Q 2956 1122 2956 1747 
Q 2956 2369 2687 2733 
Q 2419 3097 1959 3097 
z
M 1959 3584 
Q 2709 3584 3137 3096 
Q 3566 2609 3566 1747 
Q 3566 888 3137 398 
Q 2709 -91 1959 -91 
Q 1206 -91 779 398 
Q 353 888 353 1747 
Q 353 2609 779 3096 
Q 1206 3584 1959 3584 
z
" transform="scale(0.015625)"/>
       <path id="DejaVuSans-75" d="M 544 1381 
L 544 3500 
L 1119 3500 
L 1119 1403 
Q 1119 906 1312 657 
Q 1506 409 1894 409 
Q 2359 409 2629 706 
Q 2900 1003 2900 1516 
L 2900 3500 
L 3475 3500 
L 3475 0 
L 2900 0 
L 2900 538 
Q 2691 219 2414 64 
Q 2138 -91 1772 -91 
Q 1169 -91 856 284 
Q 544 659 544 1381 
z
M 1991 3584 
L 1991 3584 
z
" transform="scale(0.015625)"/>
       <path id="DejaVuSans-6e" d="M 3513 2113 
L 3513 0 
L 2938 0 
L 2938 2094 
Q 2938 2591 2744 2837 
Q 2550 3084 2163 3084 
Q 1697 3084 1428 2787 
Q 1159 2491 1159 1978 
L 1159 0 
L 581 0 
L 581 3500 
L 1159 3500 
L 1159 2956 
Q 1366 3272 1645 3428 
Q 1925 3584 2291 3584 
Q 2894 3584 3203 3211 
Q 3513 2838 3513 2113 
z
" transform="scale(0.015625)"/>
      </defs>
      <use xlink:href="#DejaVuSans-5b"/>
      <use xlink:href="#DejaVuSans-63" transform="translate(39.013672 0)"/>
      <use xlink:href="#DejaVuSans-6f" transform="translate(93.994141 0)"/>
      <use xlink:href="#DejaVuSans-75" transform="translate(155.175781 0)"/>
      <use xlink:href="#DejaVuSans-6e" transform="translate(218.554688 0)"/>
      <use xlink:href="#DejaVuSans-74" transform="translate(281.933594 0)"/>
      <use xlink:href="#DejaVuSans-73" transform="translate(321.142578 0)"/>
      <use xlink:href="#DejaVuSans-5d" transform="translate(373.242188 0)"/>
     </g>
    </g>
   </g>
   <g id="line2d_16">
    <path d="M 54.485495 233.152156 
L 54.562653 233.152156 
L 54.639811 222.9015 
L 54.716969 222.9015 
L 54.794127 204.046277 
L 54.871284 204.046277 
L 54.948442 183.769431 
L 55.0256 183.769431 
L 55.102758 166.784766 
L 55.179916 166.784766 
L 55.257074 154.888019 
L 55.334232 154.888019 
L 55.41139 140.896247 
L 55.488548 140.896247 
L 55.565706 128.475743 
L 55.642864 128.475743 
L 55.720022 117.252396 
L 55.79718 117.252396 
L 55.874338 107.375851 
L 55.951496 107.375851 
L 56.028654 107.824785 
L 56.028654 104.457781 
L 56.105812 104.457781 
L 56.18297 89.867431 
L 56.260128 89.867431 
L 56.260128 94.581236 
L 56.337286 83.582356 
L 56.414444 83.582356 
L 56.491602 84.03129 
L 56.491602 80.364997 
L 56.56876 80.364997 
L 56.645918 72.882766 
L 56.723076 72.882766 
L 56.723076 65.550179 
L 56.800234 67.495559 
L 56.877392 67.495559 
L 56.877392 59.564394 
L 56.95455 61.734242 
L 57.031708 61.734242 
L 57.108866 62.557287 
L 57.108866 61.210485 
L 57.186024 61.210485 
L 57.263182 55.075056 
L 57.34034 55.075056 
L 57.417498 54.25201 
L 57.417498 58.067948 
L 57.494656 58.067948 
L 57.494656 50.136783 
L 57.571814 56.272213 
L 57.648972 56.272213 
L 57.72613 47.218713 
L 57.803287 47.218713 
L 57.803287 49.014449 
L 57.880445 45.123688 
L 57.957603 45.123688 
L 57.957603 40.260238 
L 58.034761 43.178308 
L 58.111919 43.178308 
L 58.111919 51.259118 
L 58.189077 42.879019 
L 58.266235 42.879019 
L 58.266235 48.640337 
L 58.343393 44.076176 
L 58.420551 44.076176 
L 58.420551 47.667647 
L 58.497709 40.933639 
L 58.574867 40.933639 
L 58.652025 42.57973 
L 58.652025 39.437193 
L 58.729183 39.437193 
L 58.729183 37.491813 
L 58.806341 40.63435 
L 58.883499 40.63435 
L 58.883499 42.953841 
L 58.960657 35.172321 
L 59.037815 35.172321 
L 59.114973 38.464503 
L 59.192131 38.464503 
L 59.269289 30.009582 
L 59.346447 30.009582 
L 59.346447 34.274453 
L 59.423605 31.730495 
L 59.500763 31.730495 
L 59.577921 37.042879 
L 59.655079 37.042879 
L 59.732237 29.934759 
L 59.732237 34.573743 
L 59.809395 34.573743 
L 59.886553 35.396788 
L 59.886553 29.036892 
L 59.963711 29.036892 
L 60.040869 38.464503 
L 60.118027 38.464503 
L 60.195185 31.730495 
L 60.272343 31.730495 
L 60.272343 26.567755 
L 60.349501 30.907449 
L 60.426659 30.907449 
L 60.426659 29.934759 
L 60.503817 32.628362 
L 60.580975 32.628362 
L 60.658133 28.66278 
L 60.735291 28.66278 
L 60.735291 30.907449 
L 60.812448 28.587958 
L 60.889606 28.587958 
L 60.889606 36.74359 
L 60.966764 21.629483 
L 61.043922 21.629483 
L 61.12108 37.491813 
L 61.198238 37.491813 
L 61.198238 22.302884 
L 61.275396 32.329073 
L 61.352554 32.329073 
L 61.352554 29.336181 
L 61.429712 32.254251 
L 61.50687 32.254251 
L 61.584028 28.438313 
L 61.661186 28.438313 
L 61.661186 40.783994 
L 61.738344 30.60816 
L 61.815502 30.60816 
L 61.815502 22.377706 
L 61.89266 36.294656 
L 61.969818 36.294656 
L 61.969818 30.533338 
L 62.046976 32.254251 
L 62.124134 32.254251 
L 62.201292 26.118821 
L 62.27845 26.118821 
L 62.27845 25.74471 
L 62.355608 29.111714 
L 62.432766 29.111714 
L 62.432766 38.464503 
L 62.509924 22.452528 
L 62.587082 22.452528 
L 62.66424 30.533338 
L 62.741398 30.533338 
L 62.818556 40.335061 
L 62.895714 40.335061 
L 62.895714 28.064201 
L 62.972872 31.281561 
L 63.05003 31.281561 
L 63.05003 29.485825 
L 63.127188 32.104606 
L 63.204346 32.104606 
L 63.204346 22.078417 
L 63.281504 27.540445 
L 63.358662 27.540445 
L 63.358662 27.390801 
L 63.43582 34.124809 
L 63.512978 34.124809 
L 63.590136 23.874152 
L 63.667294 23.874152 
L 63.744451 35.097499 
L 63.821609 35.097499 
L 63.898767 28.513135 
L 63.975925 28.513135 
L 64.053083 34.648565 
L 64.130241 34.648565 
L 64.130241 28.513135 
L 64.207399 29.485825 
L 64.361715 29.411003 
L 64.438873 32.778007 
L 64.516031 32.778007 
L 64.516031 27.315978 
L 64.593189 35.247143 
L 64.670347 35.247143 
L 64.670347 27.016689 
L 64.747505 29.785115 
L 64.824663 29.785115 
L 64.901821 25.819532 
L 64.978979 25.819532 
L 64.978979 36.74359 
L 65.056137 35.172321 
L 65.133295 35.172321 
L 65.133295 27.989379 
L 65.210453 32.778007 
L 65.287611 32.778007 
L 65.287611 29.710292 
L 65.364769 29.710292 
L 65.441927 29.710292 
L 65.441927 34.573743 
L 65.519085 27.465623 
L 65.596243 27.465623 
L 65.673401 30.982272 
L 65.673401 24.547553 
L 65.750559 24.547553 
L 65.827717 31.206739 
L 65.827717 27.914557 
L 65.904875 27.914557 
L 65.904875 31.281561 
L 65.982033 27.764912 
L 66.059191 27.764912 
L 66.059191 26.193644 
L 66.136349 26.642578 
L 66.213507 26.642578 
L 66.213507 22.82664 
L 66.290665 34.49892 
L 66.367823 34.49892 
L 66.444981 24.547553 
L 66.522139 24.547553 
L 66.599297 28.887247 
L 66.676454 28.887247 
L 66.753612 25.445421 
L 66.83077 25.445421 
L 66.83077 32.778007 
L 66.907928 28.288668 
L 66.985086 28.288668 
L 66.985086 25.894354 
L 67.062244 34.349276 
L 67.139402 34.349276 
L 67.21656 25.520243 
L 67.293718 25.520243 
L 67.293718 34.723387 
L 67.370876 27.69009 
L 67.448034 27.69009 
L 67.448034 29.411003 
L 67.525192 28.962069 
L 67.60235 28.962069 
L 67.60235 24.098619 
L 67.679508 29.111714 
L 67.756666 29.111714 
L 67.833824 55.898101 
L 67.910982 55.898101 
L 67.910982 51.408763 
L 67.98814 60.088151 
L 68.065298 60.088151 
L 68.142456 77.821038 
L 68.219614 77.821038 
L 68.296772 89.642964 
L 68.37393 89.642964 
L 68.451088 114.409149 
L 68.528246 114.409149 
L 68.605404 125.482851 
L 68.682562 125.482851 
L 68.75972 143.58985 
L 68.836878 143.58985 
L 68.914036 152.34406 
L 68.991194 152.34406 
L 69.068352 158.47949 
L 69.14551 158.47949 
L 69.222668 163.417762 
L 69.299826 163.417762 
L 69.376984 180.701716 
L 69.454142 180.701716 
L 69.454142 179.429737 
L 69.5313 179.579382 
L 69.608458 179.579382 
L 69.685615 193.870443 
L 69.762773 193.870443 
L 69.839931 194.992778 
L 69.917089 194.992778 
L 69.917089 202.774298 
L 69.994247 199.033183 
L 70.071405 199.033183 
L 70.071405 205.09379 
L 70.148563 203.073587 
L 70.225721 203.073587 
L 70.302879 211.304042 
L 70.380037 211.304042 
L 70.457195 214.82069 
L 70.534353 214.82069 
L 70.534353 220.207897 
L 70.611511 216.915715 
L 70.688669 216.915715 
L 70.688669 218.786273 
L 70.765827 218.786273 
L 70.842985 218.786273 
L 70.920143 222.826678 
L 70.997301 222.826678 
L 70.997301 222.677033 
L 71.074459 226.717438 
L 71.228775 226.717438 
L 71.228775 225.969215 
L 71.305933 228.587995 
L 71.383091 228.587995 
L 71.383091 227.989417 
L 71.460249 229.560686 
L 71.537407 229.560686 
L 71.614565 231.431243 
L 71.691723 231.431243 
L 71.691723 234.648603 
L 71.768881 234.57378 
L 71.846039 234.57378 
L 71.846039 231.954999 
L 71.923197 234.124846 
L 72.000355 234.124846 
L 72.077513 233.451446 
L 72.077513 234.798247 
L 72.154671 234.798247 
L 72.154671 237.417028 
L 72.231829 236.593983 
L 72.308987 236.593983 
L 72.308987 236.968094 
L 72.386145 236.219871 
L 72.463303 236.219871 
L 72.540461 239.362408 
L 72.617618 239.362408 
L 72.617618 238.988297 
L 72.694776 239.73652 
L 72.771934 239.73652 
L 72.849092 240.559565 
L 72.92625 240.559565 
L 72.92625 239.811342 
L 73.003408 239.886164 
L 73.080566 239.886164 
L 73.080566 241.382611 
L 73.157724 240.784032 
L 73.234882 240.784032 
L 73.31204 241.831545 
L 73.389198 241.831545 
L 73.466356 241.607078 
L 73.466356 241.906367 
L 73.543514 241.906367 
L 73.620672 241.6819 
L 73.620672 242.504945 
L 73.69783 242.504945 
L 73.69783 242.130834 
L 73.774988 242.879057 
L 73.852146 242.879057 
L 73.852146 241.457433 
L 73.929304 244.001392 
L 74.006462 244.001392 
L 74.006462 242.729412 
L 74.08362 242.879057 
L 74.160778 242.879057 
L 74.237936 243.702102 
L 74.315094 243.702102 
L 74.392252 243.028702 
L 74.392252 243.62728 
L 74.546568 243.552458 
L 74.546568 244.076214 
L 74.623726 244.076214 
L 74.700884 244.076214 
L 74.700884 243.477635 
L 74.778042 243.552458 
L 74.8552 243.552458 
L 74.8552 245.423015 
L 74.932358 244.525148 
L 75.009516 244.525148 
L 75.086674 244.076214 
L 75.086674 244.824437 
L 75.163832 244.824437 
L 75.163832 244.974082 
L 75.24099 244.59997 
L 75.318148 244.59997 
L 75.318148 244.749615 
L 75.395306 244.300681 
L 75.472464 244.300681 
L 75.472464 244.974082 
L 75.549622 244.525148 
L 75.626779 244.525148 
L 75.703937 245.048904 
L 75.781095 245.048904 
L 75.781095 244.674792 
L 75.858253 245.273371 
L 76.012569 245.348193 
L 76.012569 245.423015 
L 76.089727 245.198549 
L 76.166885 245.198549 
L 76.166885 245.497838 
L 76.244043 244.974082 
L 76.321201 244.974082 
L 76.398359 245.722305 
L 76.475517 245.722305 
L 76.552675 245.198549 
L 76.706991 245.198549 
L 76.784149 245.423015 
L 76.784149 245.423015 
L 76.938465 245.423015 
L 77.015623 245.123726 
L 77.092781 245.123726 
L 77.169939 245.497838 
L 77.401413 245.423015 
L 77.478571 245.722305 
L 77.555729 245.722305 
L 77.632887 245.497838 
L 77.632887 245.497838 
" clip-path="url(#pf3b1c86a1d)" style="fill: none; stroke: #1f77b4; stroke-width: 1.5; stroke-linecap: square"/>
   </g>
   <g id="line2d_17">
    <path d="M 387.09747 235.322003 
L 387.17468 235.322003 
L 387.251889 220.95612 
L 387.329099 220.95612 
L 387.406309 203.971455 
L 387.483518 203.971455 
L 387.560728 181.824051 
L 387.637938 181.824051 
L 387.715147 170.45106 
L 387.792357 170.45106 
L 387.869566 152.792994 
L 387.946776 152.792994 
L 388.023986 137.978177 
L 388.101195 137.978177 
L 388.178405 123.013714 
L 388.255615 123.013714 
L 388.332824 113.960215 
L 388.410034 113.960215 
L 388.487244 108.198897 
L 388.564453 108.198897 
L 388.564453 101.764178 
L 388.641663 102.437579 
L 388.718873 102.437579 
L 388.796082 87.473117 
L 388.873292 87.473117 
L 388.950502 88.071695 
L 389.027711 88.071695 
L 389.104921 78.793728 
L 389.182131 78.793728 
L 389.25934 70.937386 
L 389.33655 70.937386 
L 389.33655 70.563274 
L 389.41376 71.535964 
L 389.490969 71.535964 
L 389.490969 62.931398 
L 389.568179 71.012208 
L 389.645388 71.012208 
L 389.722598 62.108353 
L 389.799808 62.108353 
L 389.799808 63.604799 
L 389.877017 58.816171 
L 389.954227 58.816171 
L 390.031437 52.680742 
L 390.108646 52.680742 
L 390.185856 51.857696 
L 390.185856 54.850589 
L 390.263066 54.850589 
L 390.340275 55.299523 
L 390.340275 50.810184 
L 390.417485 50.810184 
L 390.494695 45.198511 
L 390.571904 45.198511 
L 390.649114 41.008461 
L 390.726324 41.008461 
L 390.803533 46.545312 
L 390.880743 46.545312 
L 390.957953 43.627242 
L 391.112372 43.627242 
L 391.112372 47.44318 
L 391.189581 34.947854 
L 391.266791 34.947854 
L 391.266791 47.817292 
L 391.344001 41.382573 
L 391.42121 41.382573 
L 391.42121 36.070189 
L 391.49842 41.981151 
L 391.57563 41.981151 
L 391.57563 44.52511 
L 391.652839 35.022676 
L 391.730049 35.022676 
L 391.730049 31.730495 
L 391.807259 35.247143 
L 391.884468 35.247143 
L 391.884468 36.369478 
L 391.961678 36.294656 
L 392.038888 36.294656 
L 392.038888 37.042879 
L 392.116097 35.321966 
L 392.193307 35.321966 
L 392.193307 37.491813 
L 392.270517 32.029784 
L 392.347726 32.029784 
L 392.424936 30.533338 
L 392.502146 30.533338 
L 392.502146 33.825519 
L 392.579355 24.472731 
L 392.656565 24.472731 
L 392.733774 30.60816 
L 392.810984 30.60816 
L 392.888194 29.785115 
L 392.965403 29.785115 
L 393.042613 30.60816 
L 393.119823 30.60816 
L 393.197032 40.035771 
L 393.274242 40.035771 
L 393.351452 31.356383 
L 393.428661 31.356383 
L 393.428661 39.212726 
L 393.505871 21.928772 
L 393.583081 21.928772 
L 393.583081 34.573743 
L 393.66029 31.281561 
L 393.7375 31.281561 
L 393.7375 32.927652 
L 393.81471 31.805317 
L 393.891919 31.805317 
L 393.891919 34.723387 
L 393.969129 24.996487 
L 394.046339 24.996487 
L 394.123548 35.7709 
L 394.123548 27.914557 
L 394.200758 27.914557 
L 394.200758 34.274453 
L 394.277968 33.152119 
L 394.355177 33.152119 
L 394.355177 36.4443 
L 394.432387 24.77202 
L 394.509596 24.77202 
L 394.509596 27.241156 
L 394.586806 25.146131 
L 394.664016 25.146131 
L 394.664016 39.137904 
L 394.741225 21.928772 
L 394.818435 21.928772 
L 394.818435 28.812425 
L 394.895645 28.288668 
L 394.972854 28.288668 
L 394.972854 27.615268 
L 395.050064 33.750697 
L 395.127274 33.750697 
L 395.127274 38.763792 
L 395.204483 35.621255 
L 395.281693 35.621255 
L 395.281693 27.989379 
L 395.358903 29.036892 
L 395.436112 29.036892 
L 395.436112 24.547553 
L 395.513322 25.445421 
L 395.590532 25.445421 
L 395.667741 29.710292 
L 395.744951 29.710292 
L 395.744951 28.587958 
L 395.822161 36.593945 
L 395.89937 36.593945 
L 395.89937 26.268466 
L 395.97658 27.390801 
L 396.053789 27.390801 
L 396.053789 26.792222 
L 396.130999 33.226941 
L 396.208209 33.226941 
L 396.285418 33.451408 
L 396.285418 29.261358 
L 396.362628 29.261358 
L 396.362628 34.873032 
L 396.439838 30.383693 
L 396.517047 30.383693 
L 396.517047 33.675875 
L 396.594257 23.874152 
L 396.671467 23.874152 
L 396.671467 18.561768 
L 396.748676 32.628362 
L 396.825886 32.628362 
L 396.903096 35.845722 
L 396.903096 19.758925 
L 396.980305 19.758925 
L 397.057515 30.458515 
L 397.134725 30.458515 
L 397.134725 26.642578 
L 397.211934 32.104606 
L 397.289144 32.104606 
L 397.366354 24.77202 
L 397.443563 24.77202 
L 397.520773 36.369478 
L 397.597983 36.369478 
L 397.675192 23.724507 
L 397.752402 23.724507 
L 397.752402 30.308871 
L 397.829611 29.111714 
L 397.906821 29.111714 
L 397.906821 27.989379 
L 397.984031 31.58085 
L 398.06124 31.58085 
L 398.13845 34.573743 
L 398.21566 34.573743 
L 398.21566 24.397908 
L 398.292869 27.166334 
L 398.370079 27.166334 
L 398.447289 28.812425 
L 398.524498 28.812425 
L 398.601708 27.390801 
L 398.678918 27.390801 
L 398.756127 24.023797 
L 398.833337 24.023797 
L 398.910547 28.812425 
L 398.987756 28.812425 
L 398.987756 33.451408 
L 399.064966 22.153239 
L 399.142176 22.153239 
L 399.219385 31.954962 
L 399.296595 31.954962 
L 399.296595 33.002474 
L 399.373804 28.213846 
L 399.451014 28.213846 
L 399.528224 31.805317 
L 399.605433 31.805317 
L 399.605433 32.254251 
L 399.682643 29.859937 
L 399.759853 29.859937 
L 399.837062 23.50004 
L 399.914272 23.50004 
L 399.914272 32.029784 
L 399.991482 25.445421 
L 400.068691 25.445421 
L 400.145901 33.601053 
L 400.223111 33.601053 
L 400.223111 23.125929 
L 400.30032 37.491813 
L 400.37753 37.491813 
L 400.37753 33.226941 
L 400.45474 43.702065 
L 400.531949 43.702065 
L 400.609159 65.026423 
L 400.686369 65.026423 
L 400.763578 87.697583 
L 400.840788 87.697583 
L 400.917997 90.914943 
L 400.995207 90.914943 
L 401.072417 112.987525 
L 401.149626 112.987525 
L 401.226836 126.829652 
L 401.304046 126.829652 
L 401.381255 137.678887 
L 401.458465 137.678887 
L 401.535675 152.418883 
L 401.612884 152.418883 
L 401.690094 162.295428 
L 401.767304 162.295428 
L 401.844513 170.600704 
L 401.921723 170.600704 
L 401.998933 175.613799 
L 402.076142 175.613799 
L 402.153352 186.0141 
L 402.230562 186.0141 
L 402.230562 189.830038 
L 402.307771 188.25877 
L 402.384981 188.25877 
L 402.462191 197.836026 
L 402.5394 197.836026 
L 402.61661 202.400187 
L 402.693819 202.400187 
L 402.693819 201.651963 
L 402.771029 206.665058 
L 402.848239 206.665058 
L 402.848239 205.467901 
L 402.925448 209.882418 
L 403.002658 209.882418 
L 403.002658 212.725665 
L 403.079868 210.331352 
L 403.157077 210.331352 
L 403.234287 216.990537 
L 403.311497 216.990537 
L 403.388706 222.452566 
L 403.465916 222.452566 
L 403.543126 221.629521 
L 403.543126 223.275611 
L 403.620335 223.275611 
L 403.697545 221.92881 
L 403.697545 226.418148 
L 403.774755 226.418148 
L 403.851964 225.595103 
L 403.851964 226.418148 
L 403.929174 226.418148 
L 403.929174 229.186574 
L 404.006384 228.73764 
L 404.160803 228.812462 
L 404.238012 231.356421 
L 404.315222 231.356421 
L 404.392432 233.60109 
L 404.469641 233.60109 
L 404.546851 234.424136 
L 404.624061 234.424136 
L 404.624061 234.124846 
L 404.70127 235.247181 
L 404.77848 235.247181 
L 404.85569 238.015607 
L 404.932899 238.015607 
L 404.932899 236.593983 
L 405.010109 238.165251 
L 405.087319 238.165251 
L 405.087319 239.362408 
L 405.164528 238.240074 
L 405.241738 238.240074 
L 405.318948 239.73652 
L 405.396157 239.73652 
L 405.396157 239.886164 
L 405.473367 239.586875 
L 405.550577 239.586875 
L 405.550577 240.784032 
L 405.627786 240.784032 
L 405.704996 240.784032 
L 405.782205 241.232966 
L 405.782205 240.110631 
L 405.859415 240.110631 
L 405.936625 242.205656 
L 406.013834 242.205656 
L 406.013834 241.6819 
L 406.091044 242.504945 
L 406.168254 242.504945 
L 406.245463 241.6819 
L 406.245463 242.879057 
L 406.322673 242.879057 
L 406.399883 241.083321 
L 406.477092 241.083321 
L 406.554302 243.028702 
L 406.631512 243.028702 
L 406.631512 243.552458 
L 406.708721 243.253168 
L 406.785931 243.253168 
L 406.863141 243.776925 
L 407.01756 243.776925 
L 407.01756 243.62728 
L 407.09477 243.926569 
L 407.403608 243.926569 
L 407.403608 244.525148 
L 407.480818 243.702102 
L 407.558027 243.702102 
L 407.558027 244.824437 
L 407.635237 244.450325 
L 407.789656 244.450325 
L 407.789656 244.824437 
L 407.866866 244.824437 
L 407.944076 244.824437 
L 407.944076 244.974082 
L 408.021285 244.899259 
L 408.098495 244.899259 
L 408.175705 245.273371 
L 408.252914 245.273371 
L 408.330124 245.048904 
L 408.330124 245.123726 
L 408.407334 245.123726 
L 408.407334 244.749615 
L 408.484543 244.974082 
L 408.561753 244.974082 
L 408.561753 244.749615 
L 408.638963 244.974082 
L 408.716172 244.974082 
L 408.716172 244.749615 
L 408.793382 244.749615 
L 408.870592 244.749615 
L 408.947801 245.57266 
L 408.947801 245.123726 
L 409.10222 245.048904 
L 409.17943 245.57266 
L 409.25664 245.57266 
L 409.333849 245.123726 
L 409.333849 245.57266 
L 409.411059 245.57266 
L 409.488269 245.348193 
L 409.488269 245.647482 
L 409.565478 245.647482 
L 409.565478 245.273371 
L 409.642688 245.722305 
L 409.719898 245.722305 
L 409.719898 245.198549 
L 409.797107 245.423015 
L 409.874317 245.423015 
L 409.874317 245.722305 
L 409.951527 245.722305 
L 410.183156 245.722305 
L 410.183156 245.57266 
L 410.260365 245.57266 
" clip-path="url(#pf3b1c86a1d)" style="fill: none; stroke: #ff7f0e; stroke-width: 1.5; stroke-linecap: square"/>
   </g>
   <g id="patch_3">
    <path d="M 53.328125 257.158895 
L 53.328125 7.2 
" style="fill: none; stroke: #000000; stroke-width: 0.8; stroke-linejoin: miter; stroke-linecap: square"/>
   </g>
   <g id="patch_4">
    <path d="M 411.41851 257.158895 
L 411.41851 7.2 
" style="fill: none; stroke: #000000; stroke-width: 0.8; stroke-linejoin: miter; stroke-linecap: square"/>
   </g>
   <g id="patch_5">
    <path d="M 53.328125 257.158895 
L 411.41851 257.158895 
" style="fill: none; stroke: #000000; stroke-width: 0.8; stroke-linejoin: miter; stroke-linecap: square"/>
   </g>
   <g id="patch_6">
    <path d="M 53.328125 7.2 
L 411.41851 7.2 
" style="fill: none; stroke: #000000; stroke-width: 0.8; stroke-linejoin: miter; stroke-linecap: square"/>
   </g>
   <g id="legend_1">
    <g id="patch_7">
     <path d="M 198.094411 252.158895 
L 266.652224 252.158895 
Q 268.652224 252.158895 268.652224 250.158895 
L 268.652224 221.802645 
Q 268.652224 219.802645 266.652224 219.802645 
L 198.094411 219.802645 
Q 196.094411 219.802645 196.094411 221.802645 
L 196.094411 250.158895 
Q 196.094411 252.158895 198.094411 252.158895 
z
" style="fill: #ffffff; opacity: 0.8; stroke: #cccccc; stroke-linejoin: miter"/>
    </g>
    <g id="line2d_18">
     <path d="M 200.094411 227.901082 
L 200.094411 227.901082 
L 210.094411 227.901082 
L 210.094411 227.901082 
L 220.094411 227.901082 
" style="fill: none; stroke: #1f77b4; stroke-width: 1.5; stroke-linecap: square"/>
    </g>
    <g id="text_18">
     <!-- pulse:0 -->
     <g transform="translate(228.094411 231.401082) scale(0.1 -0.1)">
      <defs>
       <path id="DejaVuSans-70" d="M 1159 525 
L 1159 -1331 
L 581 -1331 
L 581 3500 
L 1159 3500 
L 1159 2969 
Q 1341 3281 1617 3432 
Q 1894 3584 2278 3584 
Q 2916 3584 3314 3078 
Q 3713 2572 3713 1747 
Q 3713 922 3314 415 
Q 2916 -91 2278 -91 
Q 1894 -91 1617 61 
Q 1341 213 1159 525 
z
M 3116 1747 
Q 3116 2381 2855 2742 
Q 2594 3103 2138 3103 
Q 1681 3103 1420 2742 
Q 1159 2381 1159 1747 
Q 1159 1113 1420 752 
Q 1681 391 2138 391 
Q 2594 391 2855 752 
Q 3116 1113 3116 1747 
z
" transform="scale(0.015625)"/>
       <path id="DejaVuSans-6c" d="M 603 4863 
L 1178 4863 
L 1178 0 
L 603 0 
L 603 4863 
z
" transform="scale(0.015625)"/>
       <path id="DejaVuSans-3a" d="M 750 794 
L 1409 794 
L 1409 0 
L 750 0 
L 750 794 
z
M 750 3309 
L 1409 3309 
L 1409 2516 
L 750 2516 
L 750 3309 
z
" transform="scale(0.015625)"/>
      </defs>
      <use xlink:href="#DejaVuSans-70"/>
      <use xlink:href="#DejaVuSans-75" transform="translate(63.476562 0)"/>
      <use xlink:href="#DejaVuSans-6c" transform="translate(126.855469 0)"/>
      <use xlink:href="#DejaVuSans-73" transform="translate(154.638672 0)"/>
      <use xlink:href="#DejaVuSans-65" transform="translate(206.738281 0)"/>
      <use xlink:href="#DejaVuSans-3a" transform="translate(268.261719 0)"/>
      <use xlink:href="#DejaVuSans-30" transform="translate(301.953125 0)"/>
     </g>
    </g>
    <g id="line2d_19">
     <path d="M 200.094411 242.579207 
L 200.094411 242.579207 
L 210.094411 242.579207 
L 210.094411 242.579207 
L 220.094411 242.579207 
" style="fill: none; stroke: #ff7f0e; stroke-width: 1.5; stroke-linecap: square"/>
    </g>
    <g id="text_19">
     <!-- pulse:1 -->
     <g transform="translate(228.094411 246.079207) scale(0.1 -0.1)">
      <use xlink:href="#DejaVuSans-70"/>
      <use xlink:href="#DejaVuSans-75" transform="translate(63.476562 0)"/>
      <use xlink:href="#DejaVuSans-6c" transform="translate(126.855469 0)"/>
      <use xlink:href="#DejaVuSans-73" transform="translate(154.638672 0)"/>
      <use xlink:href="#DejaVuSans-65" transform="translate(206.738281 0)"/>
      <use xlink:href="#DejaVuSans-3a" transform="translate(268.261719 0)"/>
      <use xlink:href="#DejaVuSans-31" transform="translate(301.953125 0)"/>
     </g>
    </g>
   </g>
  </g>
  <g id="axes_2">
   <g id="patch_8">
    <path d="M 507.109135 257.158895 
L 865.19952 257.158895 
L 865.19952 7.2 
L 507.109135 7.2 
z
" style="fill: #ffffff"/>
   </g>
   <g id="matplotlib.axis_3">
    <g id="xtick_9">
     <g id="line2d_20">
      <g>
       <use xlink:href="#m0fb89a9ba3" x="520.105137" y="257.158895" style="stroke: #000000; stroke-width: 0.8"/>
      </g>
     </g>
     <g id="text_20">
      <!-- 0.0 -->
      <g transform="translate(512.153575 271.757332) scale(0.1 -0.1)">
       <defs>
        <path id="DejaVuSans-2e" d="M 684 794 
L 1344 794 
L 1344 0 
L 684 0 
L 684 794 
z
" transform="scale(0.015625)"/>
       </defs>
       <use xlink:href="#DejaVuSans-30"/>
       <use xlink:href="#DejaVuSans-2e" transform="translate(63.623047 0)"/>
       <use xlink:href="#DejaVuSans-30" transform="translate(95.410156 0)"/>
      </g>
     </g>
    </g>
    <g id="xtick_10">
     <g id="line2d_21">
      <g>
       <use xlink:href="#m0fb89a9ba3" x="561.415098" y="257.158895" style="stroke: #000000; stroke-width: 0.8"/>
      </g>
     </g>
     <g id="text_21">
      <!-- 2.5 -->
      <g transform="translate(553.463535 271.757332) scale(0.1 -0.1)">
       <use xlink:href="#DejaVuSans-32"/>
       <use xlink:href="#DejaVuSans-2e" transform="translate(63.623047 0)"/>
       <use xlink:href="#DejaVuSans-35" transform="translate(95.410156 0)"/>
      </g>
     </g>
    </g>
    <g id="xtick_11">
     <g id="line2d_22">
      <g>
       <use xlink:href="#m0fb89a9ba3" x="602.725058" y="257.158895" style="stroke: #000000; stroke-width: 0.8"/>
      </g>
     </g>
     <g id="text_22">
      <!-- 5.0 -->
      <g transform="translate(594.773495 271.757332) scale(0.1 -0.1)">
       <use xlink:href="#DejaVuSans-35"/>
       <use xlink:href="#DejaVuSans-2e" transform="translate(63.623047 0)"/>
       <use xlink:href="#DejaVuSans-30" transform="translate(95.410156 0)"/>
      </g>
     </g>
    </g>
    <g id="xtick_12">
     <g id="line2d_23">
      <g>
       <use xlink:href="#m0fb89a9ba3" x="644.035018" y="257.158895" style="stroke: #000000; stroke-width: 0.8"/>
      </g>
     </g>
     <g id="text_23">
      <!-- 7.5 -->
      <g transform="translate(636.083456 271.757332) scale(0.1 -0.1)">
       <use xlink:href="#DejaVuSans-37"/>
       <use xlink:href="#DejaVuSans-2e" transform="translate(63.623047 0)"/>
       <use xlink:href="#DejaVuSans-35" transform="translate(95.410156 0)"/>
      </g>
     </g>
    </g>
    <g id="xtick_13">
     <g id="line2d_24">
      <g>
       <use xlink:href="#m0fb89a9ba3" x="685.344979" y="257.158895" style="stroke: #000000; stroke-width: 0.8"/>
      </g>
     </g>
     <g id="text_24">
      <!-- 10.0 -->
      <g transform="translate(674.212166 271.757332) scale(0.1 -0.1)">
       <use xlink:href="#DejaVuSans-31"/>
       <use xlink:href="#DejaVuSans-30" transform="translate(63.623047 0)"/>
       <use xlink:href="#DejaVuSans-2e" transform="translate(127.246094 0)"/>
       <use xlink:href="#DejaVuSans-30" transform="translate(159.033203 0)"/>
      </g>
     </g>
    </g>
    <g id="xtick_14">
     <g id="line2d_25">
      <g>
       <use xlink:href="#m0fb89a9ba3" x="726.654939" y="257.158895" style="stroke: #000000; stroke-width: 0.8"/>
      </g>
     </g>
     <g id="text_25">
      <!-- 12.5 -->
      <g transform="translate(715.522126 271.757332) scale(0.1 -0.1)">
       <use xlink:href="#DejaVuSans-31"/>
       <use xlink:href="#DejaVuSans-32" transform="translate(63.623047 0)"/>
       <use xlink:href="#DejaVuSans-2e" transform="translate(127.246094 0)"/>
       <use xlink:href="#DejaVuSans-35" transform="translate(159.033203 0)"/>
      </g>
     </g>
    </g>
    <g id="xtick_15">
     <g id="line2d_26">
      <g>
       <use xlink:href="#m0fb89a9ba3" x="767.964899" y="257.158895" style="stroke: #000000; stroke-width: 0.8"/>
      </g>
     </g>
     <g id="text_26">
      <!-- 15.0 -->
      <g transform="translate(756.832087 271.757332) scale(0.1 -0.1)">
       <use xlink:href="#DejaVuSans-31"/>
       <use xlink:href="#DejaVuSans-35" transform="translate(63.623047 0)"/>
       <use xlink:href="#DejaVuSans-2e" transform="translate(127.246094 0)"/>
       <use xlink:href="#DejaVuSans-30" transform="translate(159.033203 0)"/>
      </g>
     </g>
    </g>
    <g id="xtick_16">
     <g id="line2d_27">
      <g>
       <use xlink:href="#m0fb89a9ba3" x="809.27486" y="257.158895" style="stroke: #000000; stroke-width: 0.8"/>
      </g>
     </g>
     <g id="text_27">
      <!-- 17.5 -->
      <g transform="translate(798.142047 271.757332) scale(0.1 -0.1)">
       <use xlink:href="#DejaVuSans-31"/>
       <use xlink:href="#DejaVuSans-37" transform="translate(63.623047 0)"/>
       <use xlink:href="#DejaVuSans-2e" transform="translate(127.246094 0)"/>
       <use xlink:href="#DejaVuSans-35" transform="translate(159.033203 0)"/>
      </g>
     </g>
    </g>
    <g id="xtick_17">
     <g id="line2d_28">
      <g>
       <use xlink:href="#m0fb89a9ba3" x="850.58482" y="257.158895" style="stroke: #000000; stroke-width: 0.8"/>
      </g>
     </g>
     <g id="text_28">
      <!-- 20.0 -->
      <g transform="translate(839.452008 271.757332) scale(0.1 -0.1)">
       <use xlink:href="#DejaVuSans-32"/>
       <use xlink:href="#DejaVuSans-30" transform="translate(63.623047 0)"/>
       <use xlink:href="#DejaVuSans-2e" transform="translate(127.246094 0)"/>
       <use xlink:href="#DejaVuSans-30" transform="translate(159.033203 0)"/>
      </g>
     </g>
    </g>
    <g id="text_29">
     <!-- wavelength [Å] -->
     <g transform="translate(648.116827 287.119832) scale(0.1 -0.1)">
      <defs>
       <path id="DejaVuSans-77" d="M 269 3500 
L 844 3500 
L 1563 769 
L 2278 3500 
L 2956 3500 
L 3675 769 
L 4391 3500 
L 4966 3500 
L 4050 0 
L 3372 0 
L 2619 2869 
L 1863 0 
L 1184 0 
L 269 3500 
z
" transform="scale(0.015625)"/>
       <path id="DejaVuSans-61" d="M 2194 1759 
Q 1497 1759 1228 1600 
Q 959 1441 959 1056 
Q 959 750 1161 570 
Q 1363 391 1709 391 
Q 2188 391 2477 730 
Q 2766 1069 2766 1631 
L 2766 1759 
L 2194 1759 
z
M 3341 1997 
L 3341 0 
L 2766 0 
L 2766 531 
Q 2569 213 2275 61 
Q 1981 -91 1556 -91 
Q 1019 -91 701 211 
Q 384 513 384 1019 
Q 384 1609 779 1909 
Q 1175 2209 1959 2209 
L 2766 2209 
L 2766 2266 
Q 2766 2663 2505 2880 
Q 2244 3097 1772 3097 
Q 1472 3097 1187 3025 
Q 903 2953 641 2809 
L 641 3341 
Q 956 3463 1253 3523 
Q 1550 3584 1831 3584 
Q 2591 3584 2966 3190 
Q 3341 2797 3341 1997 
z
" transform="scale(0.015625)"/>
       <path id="DejaVuSans-76" d="M 191 3500 
L 800 3500 
L 1894 563 
L 2988 3500 
L 3597 3500 
L 2284 0 
L 1503 0 
L 191 3500 
z
" transform="scale(0.015625)"/>
       <path id="DejaVuSans-67" d="M 2906 1791 
Q 2906 2416 2648 2759 
Q 2391 3103 1925 3103 
Q 1463 3103 1205 2759 
Q 947 2416 947 1791 
Q 947 1169 1205 825 
Q 1463 481 1925 481 
Q 2391 481 2648 825 
Q 2906 1169 2906 1791 
z
M 3481 434 
Q 3481 -459 3084 -895 
Q 2688 -1331 1869 -1331 
Q 1566 -1331 1297 -1286 
Q 1028 -1241 775 -1147 
L 775 -588 
Q 1028 -725 1275 -790 
Q 1522 -856 1778 -856 
Q 2344 -856 2625 -561 
Q 2906 -266 2906 331 
L 2906 616 
Q 2728 306 2450 153 
Q 2172 0 1784 0 
Q 1141 0 747 490 
Q 353 981 353 1791 
Q 353 2603 747 3093 
Q 1141 3584 1784 3584 
Q 2172 3584 2450 3431 
Q 2728 3278 2906 2969 
L 2906 3500 
L 3481 3500 
L 3481 434 
z
" transform="scale(0.015625)"/>
       <path id="DejaVuSans-c5" d="M 2663 5081 
Q 2663 5278 2523 5417 
Q 2384 5556 2188 5556 
Q 1988 5556 1852 5420 
Q 1716 5284 1716 5081 
Q 1716 4884 1853 4746 
Q 1991 4609 2188 4609 
Q 2384 4609 2523 4746 
Q 2663 4884 2663 5081 
z
M 2188 4044 
L 1338 1722 
L 3041 1722 
L 2188 4044 
z
M 1716 4366 
Q 1525 4494 1428 4673 
Q 1331 4853 1331 5081 
Q 1331 5441 1579 5691 
Q 1828 5941 2188 5941 
Q 2544 5941 2795 5689 
Q 3047 5438 3047 5081 
Q 3047 4863 2948 4678 
Q 2850 4494 2663 4366 
L 4325 0 
L 3669 0 
L 3244 1197 
L 1141 1197 
L 716 0 
L 50 0 
L 1716 4366 
z
" transform="scale(0.015625)"/>
      </defs>
      <use xlink:href="#DejaVuSans-77"/>
      <use xlink:href="#DejaVuSans-61" transform="translate(81.787109 0)"/>
      <use xlink:href="#DejaVuSans-76" transform="translate(143.066406 0)"/>
      <use xlink:href="#DejaVuSans-65" transform="translate(202.246094 0)"/>
      <use xlink:href="#DejaVuSans-6c" transform="translate(263.769531 0)"/>
      <use xlink:href="#DejaVuSans-65" transform="translate(291.552734 0)"/>
      <use xlink:href="#DejaVuSans-6e" transform="translate(353.076172 0)"/>
      <use xlink:href="#DejaVuSans-67" transform="translate(416.455078 0)"/>
      <use xlink:href="#DejaVuSans-74" transform="translate(479.931641 0)"/>
      <use xlink:href="#DejaVuSans-68" transform="translate(519.140625 0)"/>
      <use xlink:href="#DejaVuSans-20" transform="translate(582.519531 0)"/>
      <use xlink:href="#DejaVuSans-5b" transform="translate(614.306641 0)"/>
      <use xlink:href="#DejaVuSans-c5" transform="translate(653.320312 0)"/>
      <use xlink:href="#DejaVuSans-5d" transform="translate(721.728516 0)"/>
     </g>
    </g>
   </g>
   <g id="matplotlib.axis_4">
    <g id="ytick_8">
     <g id="line2d_29">
      <g>
       <use xlink:href="#m4660a4cdd5" x="507.109135" y="245.839099" style="stroke: #000000; stroke-width: 0.8"/>
      </g>
     </g>
     <g id="text_30">
      <!-- 0 -->
      <g transform="translate(493.746635 249.638318) scale(0.1 -0.1)">
       <use xlink:href="#DejaVuSans-30"/>
      </g>
     </g>
    </g>
    <g id="ytick_9">
     <g id="line2d_30">
      <g>
       <use xlink:href="#m4660a4cdd5" x="507.109135" y="203.867293" style="stroke: #000000; stroke-width: 0.8"/>
      </g>
     </g>
     <g id="text_31">
      <!-- 2000 -->
      <g transform="translate(474.659135 207.666511) scale(0.1 -0.1)">
       <use xlink:href="#DejaVuSans-32"/>
       <use xlink:href="#DejaVuSans-30" transform="translate(63.623047 0)"/>
       <use xlink:href="#DejaVuSans-30" transform="translate(127.246094 0)"/>
       <use xlink:href="#DejaVuSans-30" transform="translate(190.869141 0)"/>
      </g>
     </g>
    </g>
    <g id="ytick_10">
     <g id="line2d_31">
      <g>
       <use xlink:href="#m4660a4cdd5" x="507.109135" y="161.895486" style="stroke: #000000; stroke-width: 0.8"/>
      </g>
     </g>
     <g id="text_32">
      <!-- 4000 -->
      <g transform="translate(474.659135 165.694705) scale(0.1 -0.1)">
       <use xlink:href="#DejaVuSans-34"/>
       <use xlink:href="#DejaVuSans-30" transform="translate(63.623047 0)"/>
       <use xlink:href="#DejaVuSans-30" transform="translate(127.246094 0)"/>
       <use xlink:href="#DejaVuSans-30" transform="translate(190.869141 0)"/>
      </g>
     </g>
    </g>
    <g id="ytick_11">
     <g id="line2d_32">
      <g>
       <use xlink:href="#m4660a4cdd5" x="507.109135" y="119.92368" style="stroke: #000000; stroke-width: 0.8"/>
      </g>
     </g>
     <g id="text_33">
      <!-- 6000 -->
      <g transform="translate(474.659135 123.722899) scale(0.1 -0.1)">
       <use xlink:href="#DejaVuSans-36"/>
       <use xlink:href="#DejaVuSans-30" transform="translate(63.623047 0)"/>
       <use xlink:href="#DejaVuSans-30" transform="translate(127.246094 0)"/>
       <use xlink:href="#DejaVuSans-30" transform="translate(190.869141 0)"/>
      </g>
     </g>
    </g>
    <g id="ytick_12">
     <g id="line2d_33">
      <g>
       <use xlink:href="#m4660a4cdd5" x="507.109135" y="77.951874" style="stroke: #000000; stroke-width: 0.8"/>
      </g>
     </g>
     <g id="text_34">
      <!-- 8000 -->
      <g transform="translate(474.659135 81.751093) scale(0.1 -0.1)">
       <defs>
        <path id="DejaVuSans-38" d="M 2034 2216 
Q 1584 2216 1326 1975 
Q 1069 1734 1069 1313 
Q 1069 891 1326 650 
Q 1584 409 2034 409 
Q 2484 409 2743 651 
Q 3003 894 3003 1313 
Q 3003 1734 2745 1975 
Q 2488 2216 2034 2216 
z
M 1403 2484 
Q 997 2584 770 2862 
Q 544 3141 544 3541 
Q 544 4100 942 4425 
Q 1341 4750 2034 4750 
Q 2731 4750 3128 4425 
Q 3525 4100 3525 3541 
Q 3525 3141 3298 2862 
Q 3072 2584 2669 2484 
Q 3125 2378 3379 2068 
Q 3634 1759 3634 1313 
Q 3634 634 3220 271 
Q 2806 -91 2034 -91 
Q 1263 -91 848 271 
Q 434 634 434 1313 
Q 434 1759 690 2068 
Q 947 2378 1403 2484 
z
M 1172 3481 
Q 1172 3119 1398 2916 
Q 1625 2713 2034 2713 
Q 2441 2713 2670 2916 
Q 2900 3119 2900 3481 
Q 2900 3844 2670 4047 
Q 2441 4250 2034 4250 
Q 1625 4250 1398 4047 
Q 1172 3844 1172 3481 
z
" transform="scale(0.015625)"/>
       </defs>
       <use xlink:href="#DejaVuSans-38"/>
       <use xlink:href="#DejaVuSans-30" transform="translate(63.623047 0)"/>
       <use xlink:href="#DejaVuSans-30" transform="translate(127.246094 0)"/>
       <use xlink:href="#DejaVuSans-30" transform="translate(190.869141 0)"/>
      </g>
     </g>
    </g>
    <g id="ytick_13">
     <g id="line2d_34">
      <g>
       <use xlink:href="#m4660a4cdd5" x="507.109135" y="35.980068" style="stroke: #000000; stroke-width: 0.8"/>
      </g>
     </g>
     <g id="text_35">
      <!-- 10000 -->
      <g transform="translate(468.296635 39.779286) scale(0.1 -0.1)">
       <use xlink:href="#DejaVuSans-31"/>
       <use xlink:href="#DejaVuSans-30" transform="translate(63.623047 0)"/>
       <use xlink:href="#DejaVuSans-30" transform="translate(127.246094 0)"/>
       <use xlink:href="#DejaVuSans-30" transform="translate(190.869141 0)"/>
       <use xlink:href="#DejaVuSans-30" transform="translate(254.492188 0)"/>
      </g>
     </g>
    </g>
    <g id="text_36">
     <!-- [counts] -->
     <g transform="translate(462.216947 152.791947) rotate(-90) scale(0.1 -0.1)">
      <use xlink:href="#DejaVuSans-5b"/>
      <use xlink:href="#DejaVuSans-63" transform="translate(39.013672 0)"/>
      <use xlink:href="#DejaVuSans-6f" transform="translate(93.994141 0)"/>
      <use xlink:href="#DejaVuSans-75" transform="translate(155.175781 0)"/>
      <use xlink:href="#DejaVuSans-6e" transform="translate(218.554688 0)"/>
      <use xlink:href="#DejaVuSans-74" transform="translate(281.933594 0)"/>
      <use xlink:href="#DejaVuSans-73" transform="translate(321.142578 0)"/>
      <use xlink:href="#DejaVuSans-5d" transform="translate(373.242188 0)"/>
     </g>
    </g>
   </g>
   <g id="line2d_35">
    <path d="M 523.385971 153.8369 
L 524.471093 153.8369 
L 524.471093 146.575777 
L 525.556215 146.575777 
L 525.556215 137.866627 
L 526.641338 137.866627 
L 526.641338 136.901276 
L 527.72646 136.901276 
L 527.72646 146.260989 
L 528.811583 146.260989 
L 528.811583 156.103377 
L 529.896705 156.103377 
L 529.896705 149.807606 
L 530.981827 149.807606 
L 530.981827 128.98959 
L 532.06695 128.98959 
L 532.06695 103.911436 
L 533.152072 103.911436 
L 533.152072 85.359898 
L 534.237194 85.359898 
L 534.237194 59.421321 
L 535.322317 59.421321 
L 535.322317 39.106967 
L 536.407439 39.106967 
L 536.407439 25.382186 
L 537.492562 25.382186 
L 537.492562 18.561768 
L 538.577684 18.561768 
L 538.577684 20.408527 
L 539.662806 20.408527 
L 539.662806 24.689652 
L 540.747929 24.689652 
L 540.747929 34.699927 
L 541.833051 34.699927 
L 541.833051 38.792179 
L 542.918173 38.792179 
L 542.918173 49.830764 
L 544.003296 49.830764 
L 544.003296 59.862025 
L 545.088418 59.862025 
L 545.088418 73.964552 
L 546.173541 73.964552 
L 546.173541 74.803988 
L 547.258663 74.803988 
L 547.258663 88.109051 
L 548.343785 88.109051 
L 548.343785 91.928485 
L 549.428908 91.928485 
L 549.428908 93.922146 
L 550.51403 93.922146 
L 550.51403 95.1813 
L 551.599153 95.1813 
L 551.599153 93.775245 
L 552.684275 93.775245 
L 552.684275 94.929469 
L 553.769397 94.929469 
L 553.769397 91.823556 
L 554.85452 91.823556 
L 554.85452 90.564402 
L 555.939642 90.564402 
L 555.939642 82.694688 
L 557.024764 82.694688 
L 557.024764 71.194413 
L 558.109887 71.194413 
L 558.109887 60.260757 
L 559.195009 60.260757 
L 559.195009 48.907384 
L 560.280132 48.907384 
L 560.280132 42.506683 
L 561.365254 42.506683 
L 561.365254 30.901479 
L 562.450376 30.901479 
L 562.450376 33.776548 
L 563.535499 33.776548 
L 563.535499 44.941048 
L 564.620621 44.941048 
L 564.620621 51.95034 
L 565.705743 51.95034 
L 565.705743 60.890335 
L 566.790866 60.890335 
L 566.790866 74.216383 
L 567.875988 74.216383 
L 567.875988 81.036802 
L 568.961111 81.036802 
L 568.961111 91.865528 
L 570.046233 91.865528 
L 570.046233 99.525382 
L 571.131355 99.525382 
L 571.131355 104.310168 
L 572.216478 104.310168 
L 572.216478 108.969039 
L 573.3016 108.969039 
L 573.3016 118.664526 
L 574.386722 118.664526 
L 574.386722 128.06621 
L 575.471845 128.06621 
L 575.471845 133.060855 
L 576.556967 133.060855 
L 576.556967 138.433247 
L 577.64209 138.433247 
L 577.64209 142.10578 
L 578.727212 142.10578 
L 578.727212 146.470848 
L 579.812334 146.470848 
L 579.812334 152.409858 
L 580.897457 152.409858 
L 580.897457 158.201967 
L 581.982579 158.201967 
L 581.982579 159.356192 
L 583.067702 159.356192 
L 583.067702 163.826189 
L 584.152824 163.826189 
L 584.152824 171.758861 
L 585.237946 171.758861 
L 585.237946 173.018015 
L 586.323069 173.018015 
L 586.323069 176.438717 
L 587.408191 176.438717 
L 587.408191 179.39773 
L 588.493313 179.39773 
L 588.493313 181.685193 
L 589.578436 181.685193 
L 589.578436 186.176176 
L 590.663558 186.176176 
L 590.663558 189.156174 
L 591.748681 189.156174 
L 591.748681 192.157159 
L 592.833803 192.157159 
L 592.833803 193.374341 
L 593.918925 193.374341 
L 593.918925 194.465608 
L 595.004048 194.465608 
L 595.004048 197.508564 
L 596.08917 197.508564 
L 596.08917 200.761379 
L 597.174292 200.761379 
L 597.174292 203.363631 
L 598.259415 203.363631 
L 598.259415 205.504193 
L 599.344537 205.504193 
L 599.344537 207.665741 
L 600.42966 207.665741 
L 600.42966 208.547149 
L 601.514782 208.547149 
L 601.514782 210.142078 
L 602.599904 210.142078 
L 602.599904 211.212359 
L 603.685027 211.212359 
L 603.685027 212.849259 
L 604.770149 212.849259 
L 604.770149 214.926864 
L 605.855271 214.926864 
L 605.855271 215.367568 
L 606.940394 215.367568 
L 606.940394 217.487144 
L 608.025516 217.487144 
L 608.025516 218.179679 
L 609.110639 218.179679 
L 609.110639 220.509114 
L 610.195761 220.509114 
L 610.195761 220.131368 
L 611.280883 220.131368 
L 611.280883 222.796577 
L 612.366006 222.796577 
L 612.366006 222.167 
L 613.451128 222.167 
L 613.451128 224.118689 
L 614.53625 224.118689 
L 614.53625 223.887844 
L 615.621373 223.887844 
L 615.621373 225.2939 
L 616.706495 225.2939 
L 616.706495 226.909814 
L 617.791618 226.909814 
L 617.791618 227.245589 
L 618.87674 227.245589 
L 618.87674 226.699955 
L 619.961862 226.699955 
L 619.961862 229.218264 
L 621.046985 229.218264 
L 621.046985 228.693616 
L 622.132107 228.693616 
L 622.132107 229.260235 
L 623.21723 229.260235 
L 623.21723 231.086009 
L 624.302352 231.086009 
L 624.302352 231.358826 
L 625.387474 231.358826 
L 625.387474 230.834178 
L 626.472597 230.834178 
L 626.472597 231.23291 
L 627.557719 231.23291 
L 627.557719 232.072346 
L 629.727964 232.093332 
L 629.727964 233.226571 
L 630.813086 233.226571 
L 630.813086 234.149951 
L 631.898209 234.149951 
L 631.898209 233.940092 
L 632.983331 233.940092 
L 632.983331 233.583331 
L 634.068453 233.583331 
L 634.068453 235.115302 
L 635.153576 235.115302 
L 635.153576 235.63995 
L 636.238698 235.63995 
L 636.238698 235.786851 
L 637.32382 235.786851 
L 637.32382 236.479386 
L 638.408943 236.479386 
L 638.408943 237.360794 
L 639.494065 237.360794 
L 639.494065 236.899104 
L 640.579188 236.899104 
L 640.579188 237.087977 
L 641.66431 237.087977 
L 641.66431 237.885442 
L 642.749432 237.885442 
L 642.749432 237.528681 
L 643.834555 237.528681 
L 643.834555 238.263188 
L 644.919677 238.263188 
L 644.919677 237.969385 
L 646.004799 237.969385 
L 646.004799 238.682906 
L 647.089922 238.682906 
L 647.089922 239.669243 
L 648.175044 239.669243 
L 648.175044 238.410089 
L 649.260167 238.410089 
L 649.260167 239.459384 
L 650.345289 239.459384 
L 650.345289 239.774173 
L 651.430411 239.774173 
L 651.430411 239.375441 
L 653.600656 239.375441 
L 653.600656 240.508679 
L 655.770901 240.613609 
L 655.770901 240.04699 
L 657.941146 240.109947 
L 657.941146 240.991355 
L 659.026268 240.991355 
L 659.026268 240.844454 
L 660.11139 240.844454 
L 660.11139 240.970369 
L 661.196513 240.970369 
L 661.196513 241.725862 
L 664.45188 241.662904 
L 664.45188 241.495017 
L 665.537002 241.495017 
L 665.537002 242.166566 
L 666.622125 242.166566 
L 666.622125 241.557975 
L 667.707247 241.557975 
L 667.707247 241.809805 
L 668.792369 241.809805 
L 668.792369 242.229524 
L 669.877492 242.229524 
L 669.877492 242.376425 
L 670.962614 242.376425 
L 670.962614 241.809805 
L 672.047737 241.809805 
L 672.047737 242.187552 
L 673.132859 242.187552 
L 673.132859 242.628256 
L 674.217981 242.628256 
L 674.217981 242.250509 
L 675.303104 242.250509 
L 675.303104 243.006002 
L 676.388226 243.006002 
L 676.388226 242.649242 
L 677.473348 242.649242 
L 677.473348 243.173889 
L 678.558471 243.173889 
L 678.558471 242.901072 
L 679.643593 242.901072 
L 679.643593 243.152903 
L 680.728716 243.152903 
L 680.728716 243.32079 
L 681.813838 243.32079 
L 681.813838 242.376425 
L 682.89896 242.376425 
L 682.89896 243.32079 
L 685.069205 243.32079 
L 685.069205 243.173889 
L 686.154327 243.173889 
L 686.154327 243.446706 
L 687.23945 243.446706 
L 687.23945 243.32079 
L 688.324572 243.32079 
L 688.324572 243.614593 
L 689.409695 243.614593 
L 689.409695 243.341776 
L 690.494817 243.341776 
L 690.494817 243.53065 
L 691.579939 243.53065 
L 691.579939 243.908396 
L 693.750184 243.971353 
L 693.750184 243.677551 
L 695.920429 243.761494 
L 695.920429 243.992339 
L 697.005551 243.992339 
L 697.005551 243.803466 
L 698.090674 243.803466 
L 698.090674 244.034311 
L 700.260918 243.929382 
L 700.260918 244.223184 
L 701.346041 244.223184 
L 701.346041 243.803466 
L 702.431163 243.803466 
L 702.431163 244.24417 
L 703.516286 244.24417 
L 703.516286 244.097269 
L 704.601408 244.097269 
L 704.601408 244.391072 
L 705.68653 244.391072 
L 705.68653 244.139241 
L 707.856775 244.118255 
L 707.856775 244.558959 
L 708.941897 244.558959 
L 708.941897 244.118255 
L 710.02702 244.118255 
L 710.02702 244.265156 
L 712.197265 244.3491 
L 712.197265 244.642902 
L 713.282387 244.642902 
L 713.282387 244.391072 
L 714.367509 244.391072 
L 714.367509 244.139241 
L 715.452632 244.139241 
L 715.452632 244.663888 
L 716.537754 244.663888 
L 716.537754 245.06262 
L 717.622876 245.06262 
L 717.622876 244.852761 
L 718.707999 244.852761 
L 718.707999 244.684874 
L 719.793121 244.684874 
L 719.793121 244.537973 
L 720.878244 244.537973 
L 720.878244 244.831776 
L 723.048488 244.81079 
L 723.048488 244.600931 
L 725.218733 244.496001 
L 725.218733 244.873747 
L 726.303856 244.873747 
L 726.303856 245.041635 
L 727.388978 245.041635 
L 727.388978 244.915719 
L 728.4741 244.915719 
L 728.4741 244.789804 
L 729.559223 244.789804 
L 729.559223 244.957691 
L 730.644345 244.957691 
L 730.644345 244.831776 
L 731.729467 244.831776 
L 731.729467 245.146564 
L 733.899712 245.230508 
L 733.899712 244.852761 
L 734.984835 244.852761 
L 734.984835 245.209522 
L 736.069957 245.209522 
L 736.069957 244.936705 
L 737.155079 244.936705 
L 737.155079 244.70586 
L 738.240202 244.70586 
L 738.240202 244.999663 
L 740.410446 245.041635 
L 740.410446 245.188536 
L 741.495569 245.188536 
L 741.495569 245.020649 
L 742.580691 245.020649 
L 742.580691 244.873747 
L 744.750936 244.852761 
L 744.750936 245.06262 
L 745.836058 245.06262 
L 745.836058 245.209522 
L 749.091425 245.293465 
L 749.091425 244.999663 
L 750.176548 244.999663 
L 750.176548 245.335437 
L 751.26167 245.335437 
L 751.26167 245.188536 
L 753.431915 245.209522 
L 753.431915 245.335437 
L 757.772404 245.440367 
L 757.772404 245.16755 
L 759.942649 245.272479 
L 759.942649 245.398395 
L 762.112894 245.377409 
L 762.112894 245.272479 
L 766.453384 245.335437 
L 766.453384 245.566282 
L 767.538506 245.566282 
L 767.538506 245.251494 
L 769.708751 245.272479 
L 769.708751 245.419381 
L 774.04924 245.482338 
L 774.04924 245.545296 
L 775.134363 245.545296 
L 775.134363 245.314451 
L 776.219485 245.314451 
L 776.219485 245.503324 
L 790.326076 245.587268 
L 790.326076 245.734169 
L 793.581443 245.755155 
L 793.581443 245.566282 
L 814.198768 245.671212 
L 814.198768 245.713183 
L 848.922684 245.692198 
L 848.922684 245.692198 
" clip-path="url(#pd485ca6284)" style="fill: none; stroke: #1f77b4; stroke-width: 1.5; stroke-linecap: square"/>
   </g>
   <g id="line2d_36">
    <path d="M 523.385401 154.19366 
L 524.469805 154.19366 
L 524.469805 145.988172 
L 525.554209 145.988172 
L 525.554209 138.496204 
L 527.723017 138.412261 
L 527.723017 144.393243 
L 528.807421 144.393243 
L 528.807421 151.06676 
L 529.891824 151.06676 
L 529.891824 148.170706 
L 530.976228 148.170706 
L 530.976228 126.513254 
L 532.060632 126.513254 
L 532.060632 110.060306 
L 533.145036 110.060306 
L 533.145036 83.513138 
L 534.22944 83.513138 
L 534.22944 63.933291 
L 535.313844 63.933291 
L 535.313844 38.813164 
L 536.398248 38.813164 
L 536.398248 22.045428 
L 537.482652 22.045428 
L 537.482652 21.310921 
L 538.567055 21.310921 
L 538.567055 20.072753 
L 539.651459 20.072753 
L 539.651459 25.46613 
L 540.735863 25.46613 
L 540.735863 30.313874 
L 541.820267 30.313874 
L 541.820267 41.415416 
L 542.904671 41.415416 
L 542.904671 54.61555 
L 543.989075 54.61555 
L 543.989075 58.854702 
L 545.073479 58.854702 
L 545.073479 70.08216 
L 546.157882 70.08216 
L 546.157882 76.210044 
L 547.242286 76.210044 
L 547.242286 86.283277 
L 548.32669 86.283277 
L 548.32669 90.249613 
L 549.411094 90.249613 
L 549.411094 94.614681 
L 550.495498 94.614681 
L 550.495498 96.650314 
L 551.579902 96.650314 
L 551.579902 101.351156 
L 552.664306 101.351156 
L 552.664306 96.818201 
L 553.74871 96.818201 
L 553.74871 90.501444 
L 554.833113 90.501444 
L 554.833113 87.773276 
L 555.917517 87.773276 
L 555.917517 83.09342 
L 557.001921 83.09342 
L 557.001921 71.698075 
L 558.086325 71.698075 
L 558.086325 60.638504 
L 559.170729 60.638504 
L 559.170729 51.887382 
L 560.255133 51.887382 
L 560.255133 43.24119 
L 561.339537 43.24119 
L 561.339537 40.450065 
L 562.423941 40.450065 
L 562.423941 38.561334 
L 563.508344 38.561334 
L 563.508344 42.800486 
L 564.592748 42.800486 
L 564.592748 50.334425 
L 565.677152 50.334425 
L 565.677152 61.8347 
L 566.761556 61.8347 
L 566.761556 70.480892 
L 567.84596 70.480892 
L 567.84596 81.70835 
L 568.930364 81.70835 
L 568.930364 85.527785 
L 570.014768 85.527785 
L 570.014768 98.098341 
L 571.099171 98.098341 
L 571.099171 104.834816 
L 572.183575 104.834816 
L 572.183575 110.542981 
L 573.267979 110.542981 
L 573.267979 118.013963 
L 574.352383 118.013963 
L 574.352383 124.057903 
L 575.436787 124.057903 
L 575.436787 131.696772 
L 576.521191 131.696772 
L 576.521191 135.998882 
L 577.605595 135.998882 
L 577.605595 142.630427 
L 578.689999 142.630427 
L 578.689999 149.010142 
L 579.774402 149.010142 
L 579.774402 153.333238 
L 580.858806 153.333238 
L 580.858806 157.089715 
L 581.94321 157.089715 
L 581.94321 162.90281 
L 583.027614 162.90281 
L 583.027614 165.274217 
L 584.112018 165.274217 
L 584.112018 169.597313 
L 585.196422 169.597313 
L 585.196422 171.423086 
L 586.280826 171.423086 
L 586.280826 176.438717 
L 587.36523 176.438717 
L 587.36523 178.93604 
L 588.449633 178.93604 
L 588.449633 182.545615 
L 589.534037 182.545615 
L 589.534037 187.54026 
L 590.618441 187.54026 
L 590.618441 187.057584 
L 591.702845 187.057584 
L 591.702845 189.974625 
L 592.787249 189.974625 
L 592.787249 193.878003 
L 593.871653 193.878003 
L 593.871653 196.564198 
L 594.956057 196.564198 
L 594.956057 199.250394 
L 596.040461 199.250394 
L 596.040461 200.404619 
L 597.124864 200.404619 
L 597.124864 201.747716 
L 598.209268 201.747716 
L 598.209268 203.993208 
L 599.293672 203.993208 
L 599.293672 206.658418 
L 600.378076 206.658418 
L 600.378076 207.896586 
L 601.46248 207.896586 
L 601.46248 211.107429 
L 602.546884 211.107429 
L 602.546884 210.813627 
L 603.631288 210.813627 
L 603.631288 212.723344 
L 604.715691 212.723344 
L 604.715691 214.02447 
L 605.800095 214.02447 
L 605.800095 216.186018 
L 606.884499 216.186018 
L 606.884499 216.416863 
L 607.968903 216.416863 
L 607.968903 218.494467 
L 609.053307 218.494467 
L 609.053307 219.061086 
L 610.137711 219.061086 
L 610.137711 220.236297 
L 611.222115 220.236297 
L 611.222115 221.978127 
L 612.306519 221.978127 
L 612.306519 221.621367 
L 613.390922 221.621367 
L 613.390922 222.544746 
L 614.475326 222.544746 
L 614.475326 223.006436 
L 615.55973 223.006436 
L 615.55973 225.146998 
L 616.644134 225.146998 
L 616.644134 225.839533 
L 618.812942 225.734604 
L 618.812942 226.783899 
L 619.897346 226.783899 
L 619.897346 228.630658 
L 620.98175 228.630658 
L 620.98175 229.616996 
L 622.066153 229.616996 
L 622.066153 230.141643 
L 623.150557 230.141643 
L 623.150557 230.435446 
L 624.234961 230.435446 
L 624.234961 230.267559 
L 625.319365 230.267559 
L 625.319365 231.358826 
L 626.403769 231.358826 
L 626.403769 232.366149 
L 627.488173 232.366149 
L 627.488173 232.890797 
L 629.65698 232.827839 
L 629.65698 233.457416 
L 630.741384 233.457416 
L 630.741384 234.296852 
L 631.825788 234.296852 
L 631.825788 234.989387 
L 633.994596 235.073331 
L 633.994596 234.8215 
L 635.079 234.8215 
L 635.079 236.647273 
L 636.163404 236.647273 
L 636.163404 235.849809 
L 637.247808 235.849809 
L 637.247808 236.710231 
L 639.416615 236.626287 
L 639.416615 237.234879 
L 641.585423 237.213893 
L 641.585423 237.675583 
L 642.669827 237.675583 
L 642.669827 238.053329 
L 643.754231 238.053329 
L 643.754231 238.326146 
L 645.923039 238.368117 
L 645.923039 238.976709 
L 647.007442 238.976709 
L 647.007442 238.724878 
L 648.091846 238.724878 
L 648.091846 239.102624 
L 649.17625 239.102624 
L 649.17625 239.606286 
L 650.260654 239.606286 
L 650.260654 239.291497 
L 651.345058 239.291497 
L 651.345058 239.984032 
L 652.429462 239.984032 
L 652.429462 239.669243 
L 653.513866 239.669243 
L 653.513866 240.005018 
L 654.59827 240.005018 
L 654.59827 240.319806 
L 656.767077 240.382764 
L 656.767077 240.005018 
L 657.851481 240.005018 
L 657.851481 241.012341 
L 658.935885 241.012341 
L 658.935885 240.508679 
L 660.020289 240.508679 
L 660.020289 241.201214 
L 661.104693 241.201214 
L 661.104693 241.662904 
L 662.189097 241.662904 
L 662.189097 241.536989 
L 663.2735 241.536989 
L 663.2735 241.746848 
L 664.357904 241.746848 
L 664.357904 241.180228 
L 665.442308 241.180228 
L 665.442308 242.271495 
L 666.526712 242.271495 
L 666.526712 241.411073 
L 667.611116 241.411073 
L 667.611116 242.586284 
L 668.69552 242.586284 
L 668.69552 241.68389 
L 669.779924 241.68389 
L 669.779924 241.956707 
L 670.864328 241.956707 
L 670.864328 242.229524 
L 671.948731 242.229524 
L 671.948731 242.019664 
L 673.033135 242.019664 
L 673.033135 242.397411 
L 675.201943 242.460368 
L 675.201943 242.544312 
L 676.286347 242.544312 
L 676.286347 242.838115 
L 677.370751 242.838115 
L 677.370751 242.418397 
L 678.455155 242.418397 
L 678.455155 243.006002 
L 682.79277 242.922058 
L 682.79277 243.215861 
L 683.877174 243.215861 
L 683.877174 242.796143 
L 684.961578 242.796143 
L 684.961578 243.06896 
L 687.130386 243.152903 
L 687.130386 243.362762 
L 689.299193 243.404734 
L 689.299193 243.635579 
L 690.383597 243.635579 
L 690.383597 243.488678 
L 691.468001 243.488678 
L 691.468001 243.677551 
L 692.552405 243.677551 
L 692.552405 243.929382 
L 694.721213 243.88741 
L 694.721213 243.698537 
L 695.805617 243.698537 
L 695.805617 243.88741 
L 697.974424 243.992339 
L 697.974424 243.740509 
L 700.143232 243.824452 
L 700.143232 244.097269 
L 701.227636 244.097269 
L 701.227636 244.370086 
L 702.31204 244.370086 
L 702.31204 244.097269 
L 703.396444 244.097269 
L 703.396444 244.307128 
L 704.480848 244.307128 
L 704.480848 244.034311 
L 705.565251 244.034311 
L 705.565251 243.88741 
L 706.649655 243.88741 
L 706.649655 244.097269 
L 709.902867 244.202198 
L 709.902867 244.370086 
L 713.156078 244.454029 
L 713.156078 244.181213 
L 714.240482 244.181213 
L 714.240482 244.433043 
L 716.40929 244.412057 
L 716.40929 244.663888 
L 717.493694 244.663888 
L 717.493694 244.454029 
L 718.578098 244.454029 
L 718.578098 244.684874 
L 720.746906 244.579945 
L 720.746906 244.433043 
L 721.831309 244.433043 
L 721.831309 244.747832 
L 725.084521 244.642902 
L 725.084521 245.146564 
L 726.168925 245.146564 
L 726.168925 244.999663 
L 727.253329 244.999663 
L 727.253329 244.81079 
L 728.337733 244.81079 
L 728.337733 245.146564 
L 729.422137 245.146564 
L 729.422137 244.852761 
L 730.50654 244.852761 
L 730.50654 245.251494 
L 731.590944 245.251494 
L 731.590944 244.978677 
L 735.92856 244.894733 
L 735.92856 245.16755 
L 737.012964 245.16755 
L 737.012964 244.936705 
L 739.181771 244.873747 
L 739.181771 245.209522 
L 740.266175 245.209522 
L 740.266175 245.06262 
L 742.434983 245.083606 
L 742.434983 244.873747 
L 743.519387 244.873747 
L 743.519387 245.419381 
L 745.688195 245.356423 
L 745.688195 245.041635 
L 747.857002 245.104592 
L 747.857002 245.230508 
L 751.110214 245.230508 
L 751.110214 245.083606 
L 753.279022 245.188536 
L 753.279022 245.356423 
L 756.532233 245.293465 
L 756.532233 245.482338 
L 758.701041 245.482338 
L 758.701041 245.335437 
L 764.12306 245.272479 
L 764.12306 245.52431 
L 768.460676 245.440367 
L 768.460676 245.356423 
L 769.54508 245.356423 
L 769.54508 245.503324 
L 776.051503 245.587268 
L 776.051503 245.377409 
L 777.135907 245.377409 
L 777.135907 245.503324 
L 779.304715 245.503324 
L 779.304715 245.356423 
L 782.557926 245.461353 
L 782.557926 245.482338 
L 785.811138 245.545296 
L 785.811138 245.692198 
L 790.148753 245.62924 
L 790.148753 245.545296 
L 796.655177 245.587268 
L 796.655177 245.671212 
L 809.668023 245.671212 
L 809.668023 245.545296 
L 814.005638 245.566282 
L 814.005638 245.776141 
L 815.090042 245.776141 
L 815.090042 245.650226 
L 818.343254 245.692198 
L 818.343254 245.797127 
L 821.596466 245.734169 
L 821.596466 245.650226 
L 832.440504 245.692198 
L 832.440504 245.776141 
L 840.031331 245.776141 
L 840.031331 245.650226 
L 845.453351 245.713183 
L 845.453351 245.776141 
L 848.706562 245.671212 
L 848.706562 245.671212 
" clip-path="url(#pd485ca6284)" style="fill: none; stroke: #ff7f0e; stroke-width: 1.5; stroke-linecap: square"/>
   </g>
   <g id="patch_9">
    <path d="M 507.109135 257.158895 
L 507.109135 7.2 
" style="fill: none; stroke: #000000; stroke-width: 0.8; stroke-linejoin: miter; stroke-linecap: square"/>
   </g>
   <g id="patch_10">
    <path d="M 865.19952 257.158895 
L 865.19952 7.2 
" style="fill: none; stroke: #000000; stroke-width: 0.8; stroke-linejoin: miter; stroke-linecap: square"/>
   </g>
   <g id="patch_11">
    <path d="M 507.109135 257.158895 
L 865.19952 257.158895 
" style="fill: none; stroke: #000000; stroke-width: 0.8; stroke-linejoin: miter; stroke-linecap: square"/>
   </g>
   <g id="patch_12">
    <path d="M 507.109135 7.2 
L 865.19952 7.2 
" style="fill: none; stroke: #000000; stroke-width: 0.8; stroke-linejoin: miter; stroke-linecap: square"/>
   </g>
   <g id="legend_2">
    <g id="patch_13">
     <path d="M 789.641707 44.55625 
L 858.19952 44.55625 
Q 860.19952 44.55625 860.19952 42.55625 
L 860.19952 14.2 
Q 860.19952 12.2 858.19952 12.2 
L 789.641707 12.2 
Q 787.641707 12.2 787.641707 14.2 
L 787.641707 42.55625 
Q 787.641707 44.55625 789.641707 44.55625 
z
" style="fill: #ffffff; opacity: 0.8; stroke: #cccccc; stroke-linejoin: miter"/>
    </g>
    <g id="line2d_37">
     <path d="M 791.641707 20.298437 
L 791.641707 20.298437 
L 801.641707 20.298437 
L 801.641707 20.298437 
L 811.641707 20.298437 
" style="fill: none; stroke: #1f77b4; stroke-width: 1.5; stroke-linecap: square"/>
    </g>
    <g id="text_37">
     <!-- pulse:0 -->
     <g transform="translate(819.641707 23.798437) scale(0.1 -0.1)">
      <use xlink:href="#DejaVuSans-70"/>
      <use xlink:href="#DejaVuSans-75" transform="translate(63.476562 0)"/>
      <use xlink:href="#DejaVuSans-6c" transform="translate(126.855469 0)"/>
      <use xlink:href="#DejaVuSans-73" transform="translate(154.638672 0)"/>
      <use xlink:href="#DejaVuSans-65" transform="translate(206.738281 0)"/>
      <use xlink:href="#DejaVuSans-3a" transform="translate(268.261719 0)"/>
      <use xlink:href="#DejaVuSans-30" transform="translate(301.953125 0)"/>
     </g>
    </g>
    <g id="line2d_38">
     <path d="M 791.641707 34.976562 
L 791.641707 34.976562 
L 801.641707 34.976562 
L 801.641707 34.976562 
L 811.641707 34.976562 
" style="fill: none; stroke: #ff7f0e; stroke-width: 1.5; stroke-linecap: square"/>
    </g>
    <g id="text_38">
     <!-- pulse:1 -->
     <g transform="translate(819.641707 38.476562) scale(0.1 -0.1)">
      <use xlink:href="#DejaVuSans-70"/>
      <use xlink:href="#DejaVuSans-75" transform="translate(63.476562 0)"/>
      <use xlink:href="#DejaVuSans-6c" transform="translate(126.855469 0)"/>
      <use xlink:href="#DejaVuSans-73" transform="translate(154.638672 0)"/>
      <use xlink:href="#DejaVuSans-65" transform="translate(206.738281 0)"/>
      <use xlink:href="#DejaVuSans-3a" transform="translate(268.261719 0)"/>
      <use xlink:href="#DejaVuSans-31" transform="translate(301.953125 0)"/>
     </g>
    </g>
   </g>
  </g>
 </g>
 <defs>
  <clipPath id="pf3b1c86a1d">
   <rect x="53.328125" y="7.2" width="358.090385" height="249.958895"/>
  </clipPath>
  <clipPath id="pd485ca6284">
   <rect x="507.109135" y="7.2" width="358.090385" height="249.958895"/>
  </clipPath>
 </defs>
</svg>
