<?xml version="1.0" encoding="utf-8" standalone="no"?>
<!DOCTYPE svg PUBLIC "-//W3C//DTD SVG 1.1//EN"
  "http://www.w3.org/Graphics/SVG/1.1/DTD/svg11.dtd">
<svg xmlns:xlink="http://www.w3.org/1999/xlink" width="872.39952pt" height="296.39952pt" viewBox="0 0 872.39952 296.39952" xmlns="http://www.w3.org/2000/svg" version="1.1">
 <metadata>
  <rdf:RDF xmlns:dc="http://purl.org/dc/elements/1.1/" xmlns:cc="http://creativecommons.org/ns#" xmlns:rdf="http://www.w3.org/1999/02/22-rdf-syntax-ns#">
   <cc:Work>
    <dc:type rdf:resource="http://purl.org/dc/dcmitype/StillImage"/>
    <dc:date>2025-11-19T10:11:33.715987</dc:date>
    <dc:format>image/svg+xml</dc:format>
    <dc:creator>
     <cc:Agent>
      <dc:title>Matplotlib v3.10.7, https://matplotlib.org/</dc:title>
     </cc:Agent>
    </dc:creator>
   </cc:Work>
  </rdf:RDF>
 </metadata>
 <defs>
  <style type="text/css">*{stroke-linejoin: round; stroke-linecap: butt}</style>
 </defs>
 <g id="figure_1">
  <g id="patch_1">
   <path d="M 0 296.39952 
L 872.39952 296.39952 
L 872.39952 0 
L 0 0 
z
" style="fill: #ffffff"/>
  </g>
  <g id="axes_1">
   <g id="patch_2">
    <path d="M 53.328125 257.158895 
L 411.41851 257.158895 
L 411.41851 7.2 
L 53.328125 7.2 
z
" style="fill: #ffffff"/>
   </g>
   <g id="matplotlib.axis_1">
    <g id="xtick_1">
     <g id="line2d_1">
      <defs>
       <path id="m71b9ce8450" d="M 0 0 
L 0 3.5 
" style="stroke: #000000; stroke-width: 0.8"/>
      </defs>
      <g>
       <use xlink:href="#m71b9ce8450" x="54.428066" y="257.158895" style="stroke: #000000; stroke-width: 0.8"/>
      </g>
     </g>
     <g id="text_1">
      <!-- 0 -->
      <g transform="translate(51.246816 271.757332) scale(0.1 -0.1)">
       <defs>
        <path id="DejaVuSans-30" d="M 2034 4250 
Q 1547 4250 1301 3770 
Q 1056 3291 1056 2328 
Q 1056 1369 1301 889 
Q 1547 409 2034 409 
Q 2525 409 2770 889 
Q 3016 1369 3016 2328 
Q 3016 3291 2770 3770 
Q 2525 4250 2034 4250 
z
M 2034 4750 
Q 2819 4750 3233 4129 
Q 3647 3509 3647 2328 
Q 3647 1150 3233 529 
Q 2819 -91 2034 -91 
Q 1250 -91 836 529 
Q 422 1150 422 2328 
Q 422 3509 836 4129 
Q 1250 4750 2034 4750 
z
" transform="scale(0.015625)"/>
       </defs>
       <use xlink:href="#DejaVuSans-30"/>
      </g>
     </g>
    </g>
    <g id="xtick_2">
     <g id="line2d_2">
      <g>
       <use xlink:href="#m71b9ce8450" x="100.993278" y="257.158895" style="stroke: #000000; stroke-width: 0.8"/>
      </g>
     </g>
     <g id="text_2">
      <!-- 10000 -->
      <g transform="translate(85.087028 271.757332) scale(0.1 -0.1)">
       <defs>
        <path id="DejaVuSans-31" d="M 794 531 
L 1825 531 
L 1825 4091 
L 703 3866 
L 703 4441 
L 1819 4666 
L 2450 4666 
L 2450 531 
L 3481 531 
L 3481 0 
L 794 0 
L 794 531 
z
" transform="scale(0.015625)"/>
       </defs>
       <use xlink:href="#DejaVuSans-31"/>
       <use xlink:href="#DejaVuSans-30" transform="translate(63.623047 0)"/>
       <use xlink:href="#DejaVuSans-30" transform="translate(127.246094 0)"/>
       <use xlink:href="#DejaVuSans-30" transform="translate(190.869141 0)"/>
       <use xlink:href="#DejaVuSans-30" transform="translate(254.492188 0)"/>
      </g>
     </g>
    </g>
    <g id="xtick_3">
     <g id="line2d_3">
      <g>
       <use xlink:href="#m71b9ce8450" x="147.55849" y="257.158895" style="stroke: #000000; stroke-width: 0.8"/>
      </g>
     </g>
     <g id="text_3">
      <!-- 20000 -->
      <g transform="translate(131.65224 271.757332) scale(0.1 -0.1)">
       <defs>
        <path id="DejaVuSans-32" d="M 1228 531 
L 3431 531 
L 3431 0 
L 469 0 
L 469 531 
Q 828 903 1448 1529 
Q 2069 2156 2228 2338 
Q 2531 2678 2651 2914 
Q 2772 3150 2772 3378 
Q 2772 3750 2511 3984 
Q 2250 4219 1831 4219 
Q 1534 4219 1204 4116 
Q 875 4013 500 3803 
L 500 4441 
Q 881 4594 1212 4672 
Q 1544 4750 1819 4750 
Q 2544 4750 2975 4387 
Q 3406 4025 3406 3419 
Q 3406 3131 3298 2873 
Q 3191 2616 2906 2266 
Q 2828 2175 2409 1742 
Q 1991 1309 1228 531 
z
" transform="scale(0.015625)"/>
       </defs>
       <use xlink:href="#DejaVuSans-32"/>
       <use xlink:href="#DejaVuSans-30" transform="translate(63.623047 0)"/>
       <use xlink:href="#DejaVuSans-30" transform="translate(127.246094 0)"/>
       <use xlink:href="#DejaVuSans-30" transform="translate(190.869141 0)"/>
       <use xlink:href="#DejaVuSans-30" transform="translate(254.492188 0)"/>
      </g>
     </g>
    </g>
    <g id="xtick_4">
     <g id="line2d_4">
      <g>
       <use xlink:href="#m71b9ce8450" x="194.123701" y="257.158895" style="stroke: #000000; stroke-width: 0.8"/>
      </g>
     </g>
     <g id="text_4">
      <!-- 30000 -->
      <g transform="translate(178.217451 271.757332) scale(0.1 -0.1)">
       <defs>
        <path id="DejaVuSans-33" d="M 2597 2516 
Q 3050 2419 3304 2112 
Q 3559 1806 3559 1356 
Q 3559 666 3084 287 
Q 2609 -91 1734 -91 
Q 1441 -91 1130 -33 
Q 819 25 488 141 
L 488 750 
Q 750 597 1062 519 
Q 1375 441 1716 441 
Q 2309 441 2620 675 
Q 2931 909 2931 1356 
Q 2931 1769 2642 2001 
Q 2353 2234 1838 2234 
L 1294 2234 
L 1294 2753 
L 1863 2753 
Q 2328 2753 2575 2939 
Q 2822 3125 2822 3475 
Q 2822 3834 2567 4026 
Q 2313 4219 1838 4219 
Q 1578 4219 1281 4162 
Q 984 4106 628 3988 
L 628 4550 
Q 988 4650 1302 4700 
Q 1616 4750 1894 4750 
Q 2613 4750 3031 4423 
Q 3450 4097 3450 3541 
Q 3450 3153 3228 2886 
Q 3006 2619 2597 2516 
z
" transform="scale(0.015625)"/>
       </defs>
       <use xlink:href="#DejaVuSans-33"/>
       <use xlink:href="#DejaVuSans-30" transform="translate(63.623047 0)"/>
       <use xlink:href="#DejaVuSans-30" transform="translate(127.246094 0)"/>
       <use xlink:href="#DejaVuSans-30" transform="translate(190.869141 0)"/>
       <use xlink:href="#DejaVuSans-30" transform="translate(254.492188 0)"/>
      </g>
     </g>
    </g>
    <g id="xtick_5">
     <g id="line2d_5">
      <g>
       <use xlink:href="#m71b9ce8450" x="240.688913" y="257.158895" style="stroke: #000000; stroke-width: 0.8"/>
      </g>
     </g>
     <g id="text_5">
      <!-- 40000 -->
      <g transform="translate(224.782663 271.757332) scale(0.1 -0.1)">
       <defs>
        <path id="DejaVuSans-34" d="M 2419 4116 
L 825 1625 
L 2419 1625 
L 2419 4116 
z
M 2253 4666 
L 3047 4666 
L 3047 1625 
L 3713 1625 
L 3713 1100 
L 3047 1100 
L 3047 0 
L 2419 0 
L 2419 1100 
L 313 1100 
L 313 1709 
L 2253 4666 
z
" transform="scale(0.015625)"/>
       </defs>
       <use xlink:href="#DejaVuSans-34"/>
       <use xlink:href="#DejaVuSans-30" transform="translate(63.623047 0)"/>
       <use xlink:href="#DejaVuSans-30" transform="translate(127.246094 0)"/>
       <use xlink:href="#DejaVuSans-30" transform="translate(190.869141 0)"/>
       <use xlink:href="#DejaVuSans-30" transform="translate(254.492188 0)"/>
      </g>
     </g>
    </g>
    <g id="xtick_6">
     <g id="line2d_6">
      <g>
       <use xlink:href="#m71b9ce8450" x="287.254125" y="257.158895" style="stroke: #000000; stroke-width: 0.8"/>
      </g>
     </g>
     <g id="text_6">
      <!-- 50000 -->
      <g transform="translate(271.347875 271.757332) scale(0.1 -0.1)">
       <defs>
        <path id="DejaVuSans-35" d="M 691 4666 
L 3169 4666 
L 3169 4134 
L 1269 4134 
L 1269 2991 
Q 1406 3038 1543 3061 
Q 1681 3084 1819 3084 
Q 2600 3084 3056 2656 
Q 3513 2228 3513 1497 
Q 3513 744 3044 326 
Q 2575 -91 1722 -91 
Q 1428 -91 1123 -41 
Q 819 9 494 109 
L 494 744 
Q 775 591 1075 516 
Q 1375 441 1709 441 
Q 2250 441 2565 725 
Q 2881 1009 2881 1497 
Q 2881 1984 2565 2268 
Q 2250 2553 1709 2553 
Q 1456 2553 1204 2497 
Q 953 2441 691 2322 
L 691 4666 
z
" transform="scale(0.015625)"/>
       </defs>
       <use xlink:href="#DejaVuSans-35"/>
       <use xlink:href="#DejaVuSans-30" transform="translate(63.623047 0)"/>
       <use xlink:href="#DejaVuSans-30" transform="translate(127.246094 0)"/>
       <use xlink:href="#DejaVuSans-30" transform="translate(190.869141 0)"/>
       <use xlink:href="#DejaVuSans-30" transform="translate(254.492188 0)"/>
      </g>
     </g>
    </g>
    <g id="xtick_7">
     <g id="line2d_7">
      <g>
       <use xlink:href="#m71b9ce8450" x="333.819336" y="257.158895" style="stroke: #000000; stroke-width: 0.8"/>
      </g>
     </g>
     <g id="text_7">
      <!-- 60000 -->
      <g transform="translate(317.913086 271.757332) scale(0.1 -0.1)">
       <defs>
        <path id="DejaVuSans-36" d="M 2113 2584 
Q 1688 2584 1439 2293 
Q 1191 2003 1191 1497 
Q 1191 994 1439 701 
Q 1688 409 2113 409 
Q 2538 409 2786 701 
Q 3034 994 3034 1497 
Q 3034 2003 2786 2293 
Q 2538 2584 2113 2584 
z
M 3366 4563 
L 3366 3988 
Q 3128 4100 2886 4159 
Q 2644 4219 2406 4219 
Q 1781 4219 1451 3797 
Q 1122 3375 1075 2522 
Q 1259 2794 1537 2939 
Q 1816 3084 2150 3084 
Q 2853 3084 3261 2657 
Q 3669 2231 3669 1497 
Q 3669 778 3244 343 
Q 2819 -91 2113 -91 
Q 1303 -91 875 529 
Q 447 1150 447 2328 
Q 447 3434 972 4092 
Q 1497 4750 2381 4750 
Q 2619 4750 2861 4703 
Q 3103 4656 3366 4563 
z
" transform="scale(0.015625)"/>
       </defs>
       <use xlink:href="#DejaVuSans-36"/>
       <use xlink:href="#DejaVuSans-30" transform="translate(63.623047 0)"/>
       <use xlink:href="#DejaVuSans-30" transform="translate(127.246094 0)"/>
       <use xlink:href="#DejaVuSans-30" transform="translate(190.869141 0)"/>
       <use xlink:href="#DejaVuSans-30" transform="translate(254.492188 0)"/>
      </g>
     </g>
    </g>
    <g id="xtick_8">
     <g id="line2d_8">
      <g>
       <use xlink:href="#m71b9ce8450" x="380.384548" y="257.158895" style="stroke: #000000; stroke-width: 0.8"/>
      </g>
     </g>
     <g id="text_8">
      <!-- 70000 -->
      <g transform="translate(364.478298 271.757332) scale(0.1 -0.1)">
       <defs>
        <path id="DejaVuSans-37" d="M 525 4666 
L 3525 4666 
L 3525 4397 
L 1831 0 
L 1172 0 
L 2766 4134 
L 525 4134 
L 525 4666 
z
" transform="scale(0.015625)"/>
       </defs>
       <use xlink:href="#DejaVuSans-37"/>
       <use xlink:href="#DejaVuSans-30" transform="translate(63.623047 0)"/>
       <use xlink:href="#DejaVuSans-30" transform="translate(127.246094 0)"/>
       <use xlink:href="#DejaVuSans-30" transform="translate(190.869141 0)"/>
       <use xlink:href="#DejaVuSans-30" transform="translate(254.492188 0)"/>
      </g>
     </g>
    </g>
    <g id="text_9">
     <!-- birth_time [µs] -->
     <g transform="translate(195.553005 285.435457) scale(0.1 -0.1)">
      <defs>
       <path id="DejaVuSans-62" d="M 3116 1747 
Q 3116 2381 2855 2742 
Q 2594 3103 2138 3103 
Q 1681 3103 1420 2742 
Q 1159 2381 1159 1747 
Q 1159 1113 1420 752 
Q 1681 391 2138 391 
Q 2594 391 2855 752 
Q 3116 1113 3116 1747 
z
M 1159 2969 
Q 1341 3281 1617 3432 
Q 1894 3584 2278 3584 
Q 2916 3584 3314 3078 
Q 3713 2572 3713 1747 
Q 3713 922 3314 415 
Q 2916 -91 2278 -91 
Q 1894 -91 1617 61 
Q 1341 213 1159 525 
L 1159 0 
L 581 0 
L 581 4863 
L 1159 4863 
L 1159 2969 
z
" transform="scale(0.015625)"/>
       <path id="DejaVuSans-69" d="M 603 3500 
L 1178 3500 
L 1178 0 
L 603 0 
L 603 3500 
z
M 603 4863 
L 1178 4863 
L 1178 4134 
L 603 4134 
L 603 4863 
z
" transform="scale(0.015625)"/>
       <path id="DejaVuSans-72" d="M 2631 2963 
Q 2534 3019 2420 3045 
Q 2306 3072 2169 3072 
Q 1681 3072 1420 2755 
Q 1159 2438 1159 1844 
L 1159 0 
L 581 0 
L 581 3500 
L 1159 3500 
L 1159 2956 
Q 1341 3275 1631 3429 
Q 1922 3584 2338 3584 
Q 2397 3584 2469 3576 
Q 2541 3569 2628 3553 
L 2631 2963 
z
" transform="scale(0.015625)"/>
       <path id="DejaVuSans-74" d="M 1172 4494 
L 1172 3500 
L 2356 3500 
L 2356 3053 
L 1172 3053 
L 1172 1153 
Q 1172 725 1289 603 
Q 1406 481 1766 481 
L 2356 481 
L 2356 0 
L 1766 0 
Q 1100 0 847 248 
Q 594 497 594 1153 
L 594 3053 
L 172 3053 
L 172 3500 
L 594 3500 
L 594 4494 
L 1172 4494 
z
" transform="scale(0.015625)"/>
       <path id="DejaVuSans-68" d="M 3513 2113 
L 3513 0 
L 2938 0 
L 2938 2094 
Q 2938 2591 2744 2837 
Q 2550 3084 2163 3084 
Q 1697 3084 1428 2787 
Q 1159 2491 1159 1978 
L 1159 0 
L 581 0 
L 581 4863 
L 1159 4863 
L 1159 2956 
Q 1366 3272 1645 3428 
Q 1925 3584 2291 3584 
Q 2894 3584 3203 3211 
Q 3513 2838 3513 2113 
z
" transform="scale(0.015625)"/>
       <path id="DejaVuSans-5f" d="M 3263 -1063 
L 3263 -1509 
L -63 -1509 
L -63 -1063 
L 3263 -1063 
z
" transform="scale(0.015625)"/>
       <path id="DejaVuSans-6d" d="M 3328 2828 
Q 3544 3216 3844 3400 
Q 4144 3584 4550 3584 
Q 5097 3584 5394 3201 
Q 5691 2819 5691 2113 
L 5691 0 
L 5113 0 
L 5113 2094 
Q 5113 2597 4934 2840 
Q 4756 3084 4391 3084 
Q 3944 3084 3684 2787 
Q 3425 2491 3425 1978 
L 3425 0 
L 2847 0 
L 2847 2094 
Q 2847 2600 2669 2842 
Q 2491 3084 2119 3084 
Q 1678 3084 1418 2786 
Q 1159 2488 1159 1978 
L 1159 0 
L 581 0 
L 581 3500 
L 1159 3500 
L 1159 2956 
Q 1356 3278 1631 3431 
Q 1906 3584 2284 3584 
Q 2666 3584 2933 3390 
Q 3200 3197 3328 2828 
z
" transform="scale(0.015625)"/>
       <path id="DejaVuSans-65" d="M 3597 1894 
L 3597 1613 
L 953 1613 
Q 991 1019 1311 708 
Q 1631 397 2203 397 
Q 2534 397 2845 478 
Q 3156 559 3463 722 
L 3463 178 
Q 3153 47 2828 -22 
Q 2503 -91 2169 -91 
Q 1331 -91 842 396 
Q 353 884 353 1716 
Q 353 2575 817 3079 
Q 1281 3584 2069 3584 
Q 2775 3584 3186 3129 
Q 3597 2675 3597 1894 
z
M 3022 2063 
Q 3016 2534 2758 2815 
Q 2500 3097 2075 3097 
Q 1594 3097 1305 2825 
Q 1016 2553 972 2059 
L 3022 2063 
z
" transform="scale(0.015625)"/>
       <path id="DejaVuSans-20" transform="scale(0.015625)"/>
       <path id="DejaVuSans-5b" d="M 550 4863 
L 1875 4863 
L 1875 4416 
L 1125 4416 
L 1125 -397 
L 1875 -397 
L 1875 -844 
L 550 -844 
L 550 4863 
z
" transform="scale(0.015625)"/>
       <path id="DejaVuSans-b5" d="M 544 -1331 
L 544 3500 
L 1119 3500 
L 1119 1325 
Q 1119 872 1334 640 
Q 1550 409 1972 409 
Q 2434 409 2667 671 
Q 2900 934 2900 1459 
L 2900 3500 
L 3475 3500 
L 3475 806 
Q 3475 619 3529 530 
Q 3584 441 3700 441 
Q 3728 441 3778 458 
Q 3828 475 3916 513 
L 3916 50 
Q 3788 -22 3673 -56 
Q 3559 -91 3450 -91 
Q 3234 -91 3106 31 
Q 2978 153 2931 403 
Q 2775 156 2548 32 
Q 2322 -91 2016 -91 
Q 1697 -91 1473 31 
Q 1250 153 1119 397 
L 1119 -1331 
L 544 -1331 
z
" transform="scale(0.015625)"/>
       <path id="DejaVuSans-73" d="M 2834 3397 
L 2834 2853 
Q 2591 2978 2328 3040 
Q 2066 3103 1784 3103 
Q 1356 3103 1142 2972 
Q 928 2841 928 2578 
Q 928 2378 1081 2264 
Q 1234 2150 1697 2047 
L 1894 2003 
Q 2506 1872 2764 1633 
Q 3022 1394 3022 966 
Q 3022 478 2636 193 
Q 2250 -91 1575 -91 
Q 1294 -91 989 -36 
Q 684 19 347 128 
L 347 722 
Q 666 556 975 473 
Q 1284 391 1588 391 
Q 1994 391 2212 530 
Q 2431 669 2431 922 
Q 2431 1156 2273 1281 
Q 2116 1406 1581 1522 
L 1381 1569 
Q 847 1681 609 1914 
Q 372 2147 372 2553 
Q 372 3047 722 3315 
Q 1072 3584 1716 3584 
Q 2034 3584 2315 3537 
Q 2597 3491 2834 3397 
z
" transform="scale(0.015625)"/>
       <path id="DejaVuSans-5d" d="M 1947 4863 
L 1947 -844 
L 622 -844 
L 622 -397 
L 1369 -397 
L 1369 4416 
L 622 4416 
L 622 4863 
L 1947 4863 
z
" transform="scale(0.015625)"/>
      </defs>
      <use xlink:href="#DejaVuSans-62"/>
      <use xlink:href="#DejaVuSans-69" transform="translate(63.476562 0)"/>
      <use xlink:href="#DejaVuSans-72" transform="translate(91.259766 0)"/>
      <use xlink:href="#DejaVuSans-74" transform="translate(132.373047 0)"/>
      <use xlink:href="#DejaVuSans-68" transform="translate(171.582031 0)"/>
      <use xlink:href="#DejaVuSans-5f" transform="translate(234.960938 0)"/>
      <use xlink:href="#DejaVuSans-74" transform="translate(284.960938 0)"/>
      <use xlink:href="#DejaVuSans-69" transform="translate(324.169922 0)"/>
      <use xlink:href="#DejaVuSans-6d" transform="translate(351.953125 0)"/>
      <use xlink:href="#DejaVuSans-65" transform="translate(449.365234 0)"/>
      <use xlink:href="#DejaVuSans-20" transform="translate(510.888672 0)"/>
      <use xlink:href="#DejaVuSans-5b" transform="translate(542.675781 0)"/>
      <use xlink:href="#DejaVuSans-b5" transform="translate(581.689453 0)"/>
      <use xlink:href="#DejaVuSans-73" transform="translate(645.3125 0)"/>
      <use xlink:href="#DejaVuSans-5d" transform="translate(697.412109 0)"/>
     </g>
    </g>
   </g>
   <g id="matplotlib.axis_2">
    <g id="ytick_1">
     <g id="line2d_9">
      <defs>
       <path id="m772d2156eb" d="M 0 0 
L -3.5 0 
" style="stroke: #000000; stroke-width: 0.8"/>
      </defs>
      <g>
       <use xlink:href="#m772d2156eb" x="53.328125" y="245.871777" style="stroke: #000000; stroke-width: 0.8"/>
      </g>
     </g>
     <g id="text_10">
      <!-- 0 -->
      <g transform="translate(39.965625 249.670996) scale(0.1 -0.1)">
       <use xlink:href="#DejaVuSans-30"/>
      </g>
     </g>
    </g>
    <g id="ytick_2">
     <g id="line2d_10">
      <g>
       <use xlink:href="#m772d2156eb" x="53.328125" y="208.546653" style="stroke: #000000; stroke-width: 0.8"/>
      </g>
     </g>
     <g id="text_11">
      <!-- 500 -->
      <g transform="translate(27.240625 212.345871) scale(0.1 -0.1)">
       <use xlink:href="#DejaVuSans-35"/>
       <use xlink:href="#DejaVuSans-30" transform="translate(63.623047 0)"/>
       <use xlink:href="#DejaVuSans-30" transform="translate(127.246094 0)"/>
      </g>
     </g>
    </g>
    <g id="ytick_3">
     <g id="line2d_11">
      <g>
       <use xlink:href="#m772d2156eb" x="53.328125" y="171.221528" style="stroke: #000000; stroke-width: 0.8"/>
      </g>
     </g>
     <g id="text_12">
      <!-- 1000 -->
      <g transform="translate(20.878125 175.020747) scale(0.1 -0.1)">
       <use xlink:href="#DejaVuSans-31"/>
       <use xlink:href="#DejaVuSans-30" transform="translate(63.623047 0)"/>
       <use xlink:href="#DejaVuSans-30" transform="translate(127.246094 0)"/>
       <use xlink:href="#DejaVuSans-30" transform="translate(190.869141 0)"/>
      </g>
     </g>
    </g>
    <g id="ytick_4">
     <g id="line2d_12">
      <g>
       <use xlink:href="#m772d2156eb" x="53.328125" y="133.896403" style="stroke: #000000; stroke-width: 0.8"/>
      </g>
     </g>
     <g id="text_13">
      <!-- 1500 -->
      <g transform="translate(20.878125 137.695622) scale(0.1 -0.1)">
       <use xlink:href="#DejaVuSans-31"/>
       <use xlink:href="#DejaVuSans-35" transform="translate(63.623047 0)"/>
       <use xlink:href="#DejaVuSans-30" transform="translate(127.246094 0)"/>
       <use xlink:href="#DejaVuSans-30" transform="translate(190.869141 0)"/>
      </g>
     </g>
    </g>
    <g id="ytick_5">
     <g id="line2d_13">
      <g>
       <use xlink:href="#m772d2156eb" x="53.328125" y="96.571279" style="stroke: #000000; stroke-width: 0.8"/>
      </g>
     </g>
     <g id="text_14">
      <!-- 2000 -->
      <g transform="translate(20.878125 100.370497) scale(0.1 -0.1)">
       <use xlink:href="#DejaVuSans-32"/>
       <use xlink:href="#DejaVuSans-30" transform="translate(63.623047 0)"/>
       <use xlink:href="#DejaVuSans-30" transform="translate(127.246094 0)"/>
       <use xlink:href="#DejaVuSans-30" transform="translate(190.869141 0)"/>
      </g>
     </g>
    </g>
    <g id="ytick_6">
     <g id="line2d_14">
      <g>
       <use xlink:href="#m772d2156eb" x="53.328125" y="59.246154" style="stroke: #000000; stroke-width: 0.8"/>
      </g>
     </g>
     <g id="text_15">
      <!-- 2500 -->
      <g transform="translate(20.878125 63.045373) scale(0.1 -0.1)">
       <use xlink:href="#DejaVuSans-32"/>
       <use xlink:href="#DejaVuSans-35" transform="translate(63.623047 0)"/>
       <use xlink:href="#DejaVuSans-30" transform="translate(127.246094 0)"/>
       <use xlink:href="#DejaVuSans-30" transform="translate(190.869141 0)"/>
      </g>
     </g>
    </g>
    <g id="ytick_7">
     <g id="line2d_15">
      <g>
       <use xlink:href="#m772d2156eb" x="53.328125" y="21.921029" style="stroke: #000000; stroke-width: 0.8"/>
      </g>
     </g>
     <g id="text_16">
      <!-- 3000 -->
      <g transform="translate(20.878125 25.720248) scale(0.1 -0.1)">
       <use xlink:href="#DejaVuSans-33"/>
       <use xlink:href="#DejaVuSans-30" transform="translate(63.623047 0)"/>
       <use xlink:href="#DejaVuSans-30" transform="translate(127.246094 0)"/>
       <use xlink:href="#DejaVuSans-30" transform="translate(190.869141 0)"/>
      </g>
     </g>
    </g>
    <g id="text_17">
     <!-- [counts] -->
     <g transform="translate(14.798438 152.791947) rotate(-90) scale(0.1 -0.1)">
      <defs>
       <path id="DejaVuSans-63" d="M 3122 3366 
L 3122 2828 
Q 2878 2963 2633 3030 
Q 2388 3097 2138 3097 
Q 1578 3097 1268 2742 
Q 959 2388 959 1747 
Q 959 1106 1268 751 
Q 1578 397 2138 397 
Q 2388 397 2633 464 
Q 2878 531 3122 666 
L 3122 134 
Q 2881 22 2623 -34 
Q 2366 -91 2075 -91 
Q 1284 -91 818 406 
Q 353 903 353 1747 
Q 353 2603 823 3093 
Q 1294 3584 2113 3584 
Q 2378 3584 2631 3529 
Q 2884 3475 3122 3366 
z
" transform="scale(0.015625)"/>
       <path id="DejaVuSans-6f" d="M 1959 3097 
Q 1497 3097 1228 2736 
Q 959 2375 959 1747 
Q 959 1119 1226 758 
Q 1494 397 1959 397 
Q 2419 397 2687 759 
Q 2956 1122 2956 1747 
Q 2956 2369 2687 2733 
Q 2419 3097 1959 3097 
z
M 1959 3584 
Q 2709 3584 3137 3096 
Q 3566 2609 3566 1747 
Q 3566 888 3137 398 
Q 2709 -91 1959 -91 
Q 1206 -91 779 398 
Q 353 888 353 1747 
Q 353 2609 779 3096 
Q 1206 3584 1959 3584 
z
" transform="scale(0.015625)"/>
       <path id="DejaVuSans-75" d="M 544 1381 
L 544 3500 
L 1119 3500 
L 1119 1403 
Q 1119 906 1312 657 
Q 1506 409 1894 409 
Q 2359 409 2629 706 
Q 2900 1003 2900 1516 
L 2900 3500 
L 3475 3500 
L 3475 0 
L 2900 0 
L 2900 538 
Q 2691 219 2414 64 
Q 2138 -91 1772 -91 
Q 1169 -91 856 284 
Q 544 659 544 1381 
z
M 1991 3584 
L 1991 3584 
z
" transform="scale(0.015625)"/>
       <path id="DejaVuSans-6e" d="M 3513 2113 
L 3513 0 
L 2938 0 
L 2938 2094 
Q 2938 2591 2744 2837 
Q 2550 3084 2163 3084 
Q 1697 3084 1428 2787 
Q 1159 2491 1159 1978 
L 1159 0 
L 581 0 
L 581 3500 
L 1159 3500 
L 1159 2956 
Q 1366 3272 1645 3428 
Q 1925 3584 2291 3584 
Q 2894 3584 3203 3211 
Q 3513 2838 3513 2113 
z
" transform="scale(0.015625)"/>
      </defs>
      <use xlink:href="#DejaVuSans-5b"/>
      <use xlink:href="#DejaVuSans-63" transform="translate(39.013672 0)"/>
      <use xlink:href="#DejaVuSans-6f" transform="translate(93.994141 0)"/>
      <use xlink:href="#DejaVuSans-75" transform="translate(155.175781 0)"/>
      <use xlink:href="#DejaVuSans-6e" transform="translate(218.554688 0)"/>
      <use xlink:href="#DejaVuSans-74" transform="translate(281.933594 0)"/>
      <use xlink:href="#DejaVuSans-73" transform="translate(321.142578 0)"/>
      <use xlink:href="#DejaVuSans-5d" transform="translate(373.242188 0)"/>
     </g>
    </g>
   </g>
   <g id="line2d_16">
    <path d="M 54.486122 234.450289 
L 54.563322 234.450289 
L 54.640522 221.237195 
L 54.717721 221.237195 
L 54.794921 202.723933 
L 54.872121 202.723933 
L 54.949321 186.002277 
L 55.02652 186.002277 
L 55.10372 165.697409 
L 55.18092 165.697409 
L 55.25812 152.558966 
L 55.33532 152.558966 
L 55.412519 137.404965 
L 55.489719 137.404965 
L 55.566919 127.849733 
L 55.644119 127.849733 
L 55.721319 117.473348 
L 55.798518 117.473348 
L 55.798518 112.471782 
L 55.875718 113.367585 
L 55.952918 113.367585 
L 55.952918 103.289801 
L 56.030118 103.812353 
L 56.107318 103.812353 
L 56.107318 88.359751 
L 56.184517 92.764116 
L 56.261717 92.764116 
L 56.261717 83.955386 
L 56.338917 90.076707 
L 56.416117 90.076707 
L 56.493317 80.820076 
L 56.570516 80.820076 
L 56.647716 70.966243 
L 56.724916 70.966243 
L 56.724916 73.653652 
L 56.802116 71.488795 
L 56.879316 71.488795 
L 56.956515 68.577435 
L 57.033715 68.577435 
L 57.110915 64.247721 
L 57.188115 64.247721 
L 57.265315 58.1264 
L 57.342514 58.1264 
L 57.419714 51.855779 
L 57.496914 51.855779 
L 57.496914 56.931996 
L 57.574114 49.24302 
L 57.651314 49.24302 
L 57.651314 53.199484 
L 57.728513 47.227464 
L 57.805713 47.227464 
L 57.882913 43.718902 
L 57.882913 50.810676 
L 57.960113 50.810676 
L 58.037313 46.480961 
L 58.114512 46.480961 
L 58.114512 42.673799 
L 58.191712 47.600715 
L 58.268912 47.600715 
L 58.346112 41.404744 
L 58.423311 41.404744 
L 58.423311 44.465404 
L 58.500511 40.284991 
L 58.577711 40.284991 
L 58.577711 39.165237 
L 58.654911 41.927296 
L 58.732111 41.927296 
L 58.732111 35.358074 
L 58.80931 40.508941 
L 58.88651 40.508941 
L 58.88651 37.672232 
L 58.96371 42.449848 
L 59.04091 42.449848 
L 59.11811 36.552478 
L 59.195309 36.552478 
L 59.195309 34.536921 
L 59.272509 37.821532 
L 59.349709 37.821532 
L 59.426909 32.222764 
L 59.581308 32.222764 
L 59.581308 42.972399 
L 59.658508 32.446714 
L 59.735708 32.446714 
L 59.735708 38.344084 
L 59.812908 34.23832 
L 59.890108 34.23832 
L 59.890108 25.728192 
L 59.967307 34.984823 
L 60.044507 34.984823 
L 60.044507 34.536921 
L 60.121707 37.746882 
L 60.198907 37.746882 
L 60.198907 30.132557 
L 60.276107 36.776429 
L 60.353306 36.776429 
L 60.353306 30.879059 
L 60.430506 32.670665 
L 60.507706 32.670665 
L 60.584906 34.611572 
L 60.662106 34.611572 
L 60.662106 29.087453 
L 60.739305 38.045483 
L 60.816505 38.045483 
L 60.816505 31.774862 
L 60.893705 33.491818 
L 60.970905 33.491818 
L 60.970905 24.907039 
L 61.048105 29.311404 
L 61.125304 29.311404 
L 61.202504 30.057906 
L 61.279704 30.057906 
L 61.279704 28.117 
L 61.356904 29.236754 
L 61.434103 29.236754 
L 61.434103 30.580458 
L 61.511303 25.354941 
L 61.588503 25.354941 
L 61.665703 34.984823 
L 61.742903 34.984823 
L 61.742903 32.372064 
L 61.820102 33.715769 
L 61.897302 33.715769 
L 61.897302 24.608438 
L 61.974502 28.714202 
L 62.051702 28.714202 
L 62.051702 34.23832 
L 62.128902 33.342517 
L 62.206101 33.342517 
L 62.206101 24.160537 
L 62.283301 28.117 
L 62.360501 28.117 
L 62.360501 38.045483 
L 62.437701 28.863502 
L 62.514901 28.863502 
L 62.514901 33.043916 
L 62.5921 27.594448 
L 62.6693 27.594448 
L 62.6693 31.625562 
L 62.7465 30.356507 
L 62.8237 30.356507 
L 62.8237 34.387621 
L 62.9009 31.774862 
L 62.978099 31.774862 
L 62.978099 26.026793 
L 63.055299 31.401611 
L 63.132499 31.401611 
L 63.209699 27.818399 
L 63.286899 27.818399 
L 63.286899 33.865069 
L 63.364098 28.117 
L 63.441298 28.117 
L 63.518498 24.085886 
L 63.672898 24.160537 
L 63.750097 34.08902 
L 63.827297 34.08902 
L 63.827297 33.043916 
L 63.904497 33.118567 
L 63.981697 33.118567 
L 63.981697 22.368931 
L 64.058897 25.653542 
L 64.136096 25.653542 
L 64.213296 33.193217 
L 64.290496 33.193217 
L 64.290496 22.368931 
L 64.367696 33.118567 
L 64.444895 33.118567 
L 64.522095 20.502674 
L 64.599295 20.502674 
L 64.676495 29.535355 
L 64.753695 29.535355 
L 64.830894 32.969266 
L 64.908094 32.969266 
L 64.908094 23.339384 
L 64.985294 27.146547 
L 65.062494 27.146547 
L 65.062494 30.057906 
L 65.139694 27.445148 
L 65.216893 27.445148 
L 65.216893 24.160537 
L 65.294093 27.818399 
L 65.371293 27.818399 
L 65.371293 31.10301 
L 65.448493 25.504241 
L 65.525693 25.504241 
L 65.525693 38.642685 
L 65.602892 27.594448 
L 65.680092 27.594448 
L 65.680092 35.208774 
L 65.757292 32.372064 
L 65.834492 32.372064 
L 65.911692 26.026793 
L 65.988891 26.026793 
L 65.988891 32.148113 
L 66.066091 27.370497 
L 66.143291 27.370497 
L 66.143291 25.952143 
L 66.220491 31.998813 
L 66.297691 31.998813 
L 66.297691 33.267867 
L 66.37489 27.445148 
L 66.45209 27.445148 
L 66.52929 33.193217 
L 66.60649 33.193217 
L 66.60649 29.610005 
L 66.68369 34.23832 
L 66.760889 34.23832 
L 66.838089 24.981689 
L 66.915289 24.981689 
L 66.915289 24.384487 
L 66.992489 35.582025 
L 67.069689 35.582025 
L 67.069689 33.715769 
L 67.146888 34.536921 
L 67.224088 34.536921 
L 67.224088 30.057906 
L 67.301288 30.057906 
L 67.378488 30.057906 
L 67.378488 33.865069 
L 67.455688 25.504241 
L 67.532887 25.504241 
L 67.532887 30.132557 
L 67.610087 22.667532 
L 67.687287 22.667532 
L 67.764487 36.925729 
L 67.841686 36.925729 
L 67.918886 54.841789 
L 67.996086 54.841789 
L 68.073286 72.757849 
L 68.150486 72.757849 
L 68.227685 83.208884 
L 68.304885 83.208884 
L 68.382085 104.110954 
L 68.459285 104.110954 
L 68.536485 120.98191 
L 68.613684 120.98191 
L 68.690884 131.059694 
L 68.768084 131.059694 
L 68.845284 143.526285 
L 68.922484 143.526285 
L 68.999683 154.798473 
L 69.076883 154.798473 
L 69.154083 167.787616 
L 69.231283 167.787616 
L 69.231283 173.162434 
L 69.308483 172.191981 
L 69.385682 172.191981 
L 69.462882 181.597913 
L 69.540082 181.597913 
L 69.617282 188.465736 
L 69.694482 188.465736 
L 69.694482 192.94475 
L 69.771681 192.571499 
L 69.848881 192.571499 
L 69.926081 196.154711 
L 70.003281 196.154711 
L 70.080481 204.142288 
L 70.15768 204.142288 
L 70.23488 207.949451 
L 70.31208 207.949451 
L 70.31208 213.62287 
L 70.38928 213.174968 
L 70.46648 213.174968 
L 70.543679 213.77217 
L 70.620879 213.77217 
L 70.620879 218.325835 
L 70.698079 218.176535 
L 70.775279 218.176535 
L 70.852478 224.148555 
L 70.929678 224.148555 
L 70.929678 221.162545 
L 71.006878 221.386496 
L 71.084078 221.386496 
L 71.161278 228.105018 
L 71.238477 228.105018 
L 71.315677 227.209215 
L 71.392877 227.209215 
L 71.470077 231.61358 
L 71.547277 231.61358 
L 71.547277 229.523373 
L 71.624476 230.493826 
L 71.701676 230.493826 
L 71.778876 233.703787 
L 71.856076 233.703787 
L 71.856076 235.271442 
L 71.933276 235.196792 
L 72.010475 235.196792 
L 72.010475 235.495393 
L 72.087675 235.271442 
L 72.164875 235.271442 
L 72.242075 236.988398 
L 72.319275 236.988398 
L 72.396474 236.241895 
L 72.473674 236.241895 
L 72.473674 238.182802 
L 72.550874 237.7349 
L 72.628074 237.7349 
L 72.705274 239.974408 
L 72.782473 239.974408 
L 72.859673 239.451856 
L 72.936873 239.451856 
L 73.014073 240.72091 
L 73.091273 240.72091 
L 73.091273 239.601156 
L 73.168472 240.64626 
L 73.245672 240.64626 
L 73.245672 241.392762 
L 73.322872 241.094161 
L 73.400072 241.094161 
L 73.400072 242.288565 
L 73.477272 242.288565 
L 73.554471 242.288565 
L 73.554471 242.960418 
L 73.631671 242.960418 
L 73.708871 242.960418 
L 73.786071 242.213915 
L 73.94047 242.288565 
L 74.01767 243.109718 
L 74.09487 243.109718 
L 74.09487 243.63227 
L 74.17207 243.55762 
L 74.249269 243.55762 
L 74.326469 244.453423 
L 74.403669 244.453423 
L 74.403669 243.259019 
L 74.480869 243.930871 
L 74.558069 243.930871 
L 74.558069 244.453423 
L 74.635268 243.930871 
L 74.712468 243.930871 
L 74.712468 244.080171 
L 74.789668 243.930871 
L 74.866868 243.930871 
L 74.866868 244.229472 
L 74.944068 244.229472 
L 75.021267 244.229472 
L 75.021267 244.453423 
L 75.098467 244.453423 
L 75.175667 244.453423 
L 75.175667 244.975974 
L 75.252867 244.602723 
L 75.330067 244.602723 
L 75.330067 245.125275 
L 75.407266 244.826674 
L 75.484466 244.826674 
L 75.484466 245.125275 
L 75.561666 244.602723 
L 75.638866 244.602723 
L 75.638866 245.199925 
L 75.716066 244.975974 
L 75.793265 244.975974 
L 75.870465 245.498526 
L 75.947665 245.498526 
L 75.947665 245.050625 
L 76.024865 245.050625 
L 76.102065 245.050625 
L 76.102065 244.602723 
L 76.179264 245.199925 
L 76.256464 245.199925 
L 76.256464 245.573176 
L 76.333664 244.975974 
L 76.488064 244.975974 
L 76.565263 245.423876 
L 76.796863 245.349226 
L 76.796863 245.573176 
L 76.874063 245.125275 
L 76.951262 245.125275 
L 77.028462 245.498526 
L 77.182862 245.498526 
L 77.182862 245.125275 
L 77.260061 245.573176 
L 77.414461 245.498526 
L 77.414461 245.797127 
L 77.491661 245.573176 
L 77.64606 245.498526 
L 77.64606 245.498526 
" clip-path="url(#p692892c163)" style="fill: none; stroke: #1f77b4; stroke-width: 1.5; stroke-linecap: square"/>
   </g>
   <g id="line2d_17">
    <path d="M 387.094741 234.524939 
L 387.171959 234.524939 
L 387.249177 220.416042 
L 387.326396 220.416042 
L 387.403614 203.022534 
L 387.480832 203.022534 
L 387.558051 185.405075 
L 387.635269 185.405075 
L 387.712487 164.428355 
L 387.789706 164.428355 
L 387.866924 151.812463 
L 387.944142 151.812463 
L 388.021361 141.80933 
L 388.098579 141.80933 
L 388.175797 125.684876 
L 388.253015 125.684876 
L 388.253015 127.401832 
L 388.330234 115.905693 
L 388.407452 115.905693 
L 388.48467 108.440668 
L 388.561889 108.440668 
L 388.639107 105.006757 
L 388.716325 105.006757 
L 388.793544 93.734569 
L 388.870762 93.734569 
L 388.94798 83.731436 
L 389.025199 83.731436 
L 389.025199 79.998923 
L 389.102417 83.358184 
L 389.179635 83.358184 
L 389.256854 69.025337 
L 389.334072 69.025337 
L 389.334072 73.952253 
L 389.41129 73.653652 
L 389.488509 73.653652 
L 389.565727 66.487228 
L 389.642945 66.487228 
L 389.642945 58.947553 
L 389.720163 65.068873 
L 389.797382 65.068873 
L 389.797382 63.799819 
L 389.8746 64.471671 
L 389.951818 64.471671 
L 390.029037 51.706479 
L 390.106255 51.706479 
L 390.183473 56.931996 
L 390.260692 56.931996 
L 390.33791 52.22903 
L 390.415128 52.22903 
L 390.415128 43.494951 
L 390.492347 50.138823 
L 390.569565 50.138823 
L 390.569565 45.659808 
L 390.646783 51.855779 
L 390.724002 51.855779 
L 390.80122 42.524498 
L 390.878438 42.524498 
L 390.878438 32.969266 
L 390.955656 44.838656 
L 391.032875 44.838656 
L 391.032875 46.331661 
L 391.110093 41.106143 
L 391.187311 41.106143 
L 391.26453 43.793552 
L 391.341748 43.793552 
L 391.341748 32.446714 
L 391.418966 34.984823 
L 391.496185 34.984823 
L 391.573403 40.732892 
L 391.650621 40.732892 
L 391.650621 38.269434 
L 391.72784 41.479395 
L 391.805058 41.479395 
L 391.882276 35.432724 
L 392.036713 35.507375 
L 392.036713 33.566468 
L 392.113931 39.015936 
L 392.19115 39.015936 
L 392.268368 34.984823 
L 392.345586 34.984823 
L 392.345586 39.98639 
L 392.422804 30.356507 
L 392.500023 30.356507 
L 392.577241 36.179227 
L 392.654459 36.179227 
L 392.731678 28.938153 
L 392.808896 28.938153 
L 392.808896 39.165237 
L 392.886114 25.05634 
L 392.963333 25.05634 
L 393.040551 31.998813 
L 393.117769 31.998813 
L 393.117769 27.967699 
L 393.194988 28.788852 
L 393.272206 28.788852 
L 393.272206 33.790419 
L 393.349424 29.535355 
L 393.426643 29.535355 
L 393.426643 28.2663 
L 393.503861 30.431158 
L 393.581079 30.431158 
L 393.581079 27.519798 
L 393.658298 37.672232 
L 393.735516 37.672232 
L 393.735516 32.894616 
L 393.812734 34.462271 
L 393.889952 34.462271 
L 393.889952 20.801275 
L 393.967171 29.684655 
L 394.044389 29.684655 
L 394.044389 31.700212 
L 394.121607 27.818399 
L 394.198826 27.818399 
L 394.198826 43.271 
L 394.276044 26.474694 
L 394.353262 26.474694 
L 394.353262 22.816832 
L 394.430481 34.462271 
L 394.507699 34.462271 
L 394.507699 32.297414 
L 394.584917 32.596015 
L 394.662136 32.596015 
L 394.662136 31.700212 
L 394.739354 35.880626 
L 394.816572 35.880626 
L 394.816572 24.907039 
L 394.893791 34.686222 
L 394.971009 34.686222 
L 395.048227 18.561768 
L 395.125446 18.561768 
L 395.125446 37.597582 
L 395.202664 32.969266 
L 395.279882 32.969266 
L 395.279882 29.162103 
L 395.3571 31.849512 
L 395.434319 31.849512 
L 395.511537 26.549345 
L 395.665974 26.623995 
L 395.665974 24.085886 
L 395.743192 29.833956 
L 395.82041 29.833956 
L 395.82041 29.386054 
L 395.897629 30.207207 
L 395.974847 30.207207 
L 396.052065 27.221197 
L 396.129284 27.221197 
L 396.129284 33.118567 
L 396.206502 28.938153 
L 396.28372 28.938153 
L 396.28372 27.445148 
L 396.360939 29.759305 
L 396.438157 29.759305 
L 396.438157 22.891482 
L 396.515375 26.101443 
L 396.592593 26.101443 
L 396.592593 31.10301 
L 396.669812 23.190083 
L 396.74703 23.190083 
L 396.824248 31.25231 
L 396.901467 31.25231 
L 396.901467 29.162103 
L 396.978685 29.833956 
L 397.055903 29.833956 
L 397.055903 32.222764 
L 397.133122 31.326961 
L 397.21034 31.326961 
L 397.21034 35.358074 
L 397.287558 25.13099 
L 397.364777 25.13099 
L 397.364777 36.029926 
L 397.441995 28.863502 
L 397.519213 28.863502 
L 397.596432 20.950576 
L 397.67365 20.950576 
L 397.750868 33.865069 
L 397.750868 31.700212 
L 397.828087 31.700212 
L 397.828087 24.459138 
L 397.905305 27.071896 
L 397.982523 27.071896 
L 397.982523 39.613138 
L 398.059741 31.998813 
L 398.13696 31.998813 
L 398.13696 34.387621 
L 398.214178 27.519798 
L 398.291396 27.519798 
L 398.291396 25.952143 
L 398.368615 37.14968 
L 398.445833 37.14968 
L 398.523051 25.952143 
L 398.60027 25.952143 
L 398.677488 36.477828 
L 398.754706 36.477828 
L 398.754706 24.683088 
L 398.831925 29.684655 
L 398.909143 29.684655 
L 398.986361 31.550911 
L 399.06358 31.550911 
L 399.140798 22.368931 
L 399.218016 22.368931 
L 399.295235 32.596015 
L 399.372453 32.596015 
L 399.449671 30.132557 
L 399.526889 30.132557 
L 399.526889 34.08902 
L 399.604108 31.849512 
L 399.681326 31.849512 
L 399.758544 26.101443 
L 399.835763 26.101443 
L 399.835763 24.608438 
L 399.912981 24.608438 
L 399.990199 24.608438 
L 400.067418 31.625562 
L 400.144636 31.625562 
L 400.221854 25.429591 
L 400.299073 25.429591 
L 400.376291 40.508941 
L 400.453509 40.508941 
L 400.530728 52.900883 
L 400.607946 52.900883 
L 400.607946 66.93513 
L 400.685164 64.919573 
L 400.762383 64.919573 
L 400.839601 84.477938 
L 400.916819 84.477938 
L 400.994037 103.1405 
L 401.071256 103.1405 
L 401.148474 120.310058 
L 401.225692 120.310058 
L 401.302911 133.523152 
L 401.380129 133.523152 
L 401.457347 147.632049 
L 401.534566 147.632049 
L 401.611784 157.635183 
L 401.766221 157.709833 
L 401.843439 170.475025 
L 401.997876 170.549676 
L 402.075094 181.896514 
L 402.152312 181.896514 
L 402.22953 187.122031 
L 402.306749 187.122031 
L 402.383967 194.213805 
L 402.461185 194.213805 
L 402.538404 199.812573 
L 402.615622 199.812573 
L 402.69284 205.038091 
L 402.770059 205.038091 
L 402.847277 209.367805 
L 402.924495 209.367805 
L 403.001714 210.487559 
L 403.078932 210.487559 
L 403.15615 214.817274 
L 403.233369 214.817274 
L 403.310587 220.192092 
L 403.387805 220.192092 
L 403.465024 223.103451 
L 403.542242 223.103451 
L 403.542242 223.849954 
L 403.61946 222.7302 
L 403.696678 222.7302 
L 403.696678 227.209215 
L 403.773897 226.835964 
L 403.928333 226.910614 
L 404.005552 227.881067 
L 404.08277 227.881067 
L 404.159988 230.867077 
L 404.237207 230.867077 
L 404.314425 231.83753 
L 404.391643 231.83753 
L 404.391643 232.882634 
L 404.468862 232.807984 
L 404.54608 232.807984 
L 404.623298 235.943294 
L 404.700517 235.943294 
L 404.700517 236.092595 
L 404.777735 234.972841 
L 404.854953 234.972841 
L 404.932172 238.332102 
L 405.00939 238.332102 
L 405.00939 237.063048 
L 405.086608 238.108151 
L 405.163826 238.108151 
L 405.163826 239.750457 
L 405.241045 239.451856 
L 405.318263 239.451856 
L 405.318263 238.556053 
L 405.395481 239.227905 
L 405.549918 239.302555 
L 405.549918 240.79556 
L 405.627136 240.64626 
L 405.704355 240.64626 
L 405.781573 241.392762 
L 405.858791 241.392762 
L 405.93601 242.437866 
L 406.013228 242.437866 
L 406.013228 241.467413 
L 406.090446 242.213915 
L 406.244883 242.288565 
L 406.322101 241.467413 
L 406.39932 241.467413 
L 406.476538 242.736467 
L 406.553756 242.736467 
L 406.630974 243.856221 
L 406.785411 243.78157 
L 406.785411 242.885767 
L 406.862629 243.856221 
L 406.939848 243.856221 
L 406.939848 242.960418 
L 407.017066 243.78157 
L 407.094284 243.78157 
L 407.171503 244.154822 
L 407.403158 244.154822 
L 407.403158 244.378772 
L 407.480376 243.856221 
L 407.557594 243.856221 
L 407.634813 244.378772 
L 407.789249 244.304122 
L 407.789249 245.274575 
L 407.866468 244.826674 
L 407.943686 244.826674 
L 407.943686 244.677373 
L 408.020904 245.050625 
L 408.175341 244.975974 
L 408.252559 244.826674 
L 408.329777 244.826674 
L 408.329777 245.050625 
L 408.406996 244.901324 
L 408.561432 244.826674 
L 408.638651 245.423876 
L 408.793087 245.349226 
L 408.793087 244.901324 
L 408.870306 245.498526 
L 409.024742 245.423876 
L 409.024742 245.647827 
L 409.101961 245.498526 
L 409.179179 245.498526 
L 409.256397 245.125275 
L 409.410834 245.125275 
L 409.410834 245.722477 
L 409.488052 245.573176 
L 409.719707 245.498526 
L 409.719707 245.797127 
L 409.796925 245.125275 
L 409.874144 245.125275 
L 409.874144 245.647827 
L 409.951362 245.423876 
L 410.02858 245.423876 
L 410.105799 245.722477 
L 410.260235 245.797127 
L 410.260235 245.797127 
" clip-path="url(#p692892c163)" style="fill: none; stroke: #ff7f0e; stroke-width: 1.5; stroke-linecap: square"/>
   </g>
   <g id="patch_3">
    <path d="M 53.328125 257.158895 
L 53.328125 7.2 
" style="fill: none; stroke: #000000; stroke-width: 0.8; stroke-linejoin: miter; stroke-linecap: square"/>
   </g>
   <g id="patch_4">
    <path d="M 411.41851 257.158895 
L 411.41851 7.2 
" style="fill: none; stroke: #000000; stroke-width: 0.8; stroke-linejoin: miter; stroke-linecap: square"/>
   </g>
   <g id="patch_5">
    <path d="M 53.328125 257.158895 
L 411.41851 257.158895 
" style="fill: none; stroke: #000000; stroke-width: 0.8; stroke-linejoin: miter; stroke-linecap: square"/>
   </g>
   <g id="patch_6">
    <path d="M 53.328125 7.2 
L 411.41851 7.2 
" style="fill: none; stroke: #000000; stroke-width: 0.8; stroke-linejoin: miter; stroke-linecap: square"/>
   </g>
   <g id="legend_1">
    <g id="patch_7">
     <path d="M 198.094411 252.158895 
L 266.652224 252.158895 
Q 268.652224 252.158895 268.652224 250.158895 
L 268.652224 221.802645 
Q 268.652224 219.802645 266.652224 219.802645 
L 198.094411 219.802645 
Q 196.094411 219.802645 196.094411 221.802645 
L 196.094411 250.158895 
Q 196.094411 252.158895 198.094411 252.158895 
z
" style="fill: #ffffff; opacity: 0.8; stroke: #cccccc; stroke-linejoin: miter"/>
    </g>
    <g id="line2d_18">
     <path d="M 200.094411 227.901082 
L 200.094411 227.901082 
L 210.094411 227.901082 
L 210.094411 227.901082 
L 220.094411 227.901082 
" style="fill: none; stroke: #1f77b4; stroke-width: 1.5; stroke-linecap: square"/>
    </g>
    <g id="text_18">
     <!-- pulse:0 -->
     <g transform="translate(228.094411 231.401082) scale(0.1 -0.1)">
      <defs>
       <path id="DejaVuSans-70" d="M 1159 525 
L 1159 -1331 
L 581 -1331 
L 581 3500 
L 1159 3500 
L 1159 2969 
Q 1341 3281 1617 3432 
Q 1894 3584 2278 3584 
Q 2916 3584 3314 3078 
Q 3713 2572 3713 1747 
Q 3713 922 3314 415 
Q 2916 -91 2278 -91 
Q 1894 -91 1617 61 
Q 1341 213 1159 525 
z
M 3116 1747 
Q 3116 2381 2855 2742 
Q 2594 3103 2138 3103 
Q 1681 3103 1420 2742 
Q 1159 2381 1159 1747 
Q 1159 1113 1420 752 
Q 1681 391 2138 391 
Q 2594 391 2855 752 
Q 3116 1113 3116 1747 
z
" transform="scale(0.015625)"/>
       <path id="DejaVuSans-6c" d="M 603 4863 
L 1178 4863 
L 1178 0 
L 603 0 
L 603 4863 
z
" transform="scale(0.015625)"/>
       <path id="DejaVuSans-3a" d="M 750 794 
L 1409 794 
L 1409 0 
L 750 0 
L 750 794 
z
M 750 3309 
L 1409 3309 
L 1409 2516 
L 750 2516 
L 750 3309 
z
" transform="scale(0.015625)"/>
      </defs>
      <use xlink:href="#DejaVuSans-70"/>
      <use xlink:href="#DejaVuSans-75" transform="translate(63.476562 0)"/>
      <use xlink:href="#DejaVuSans-6c" transform="translate(126.855469 0)"/>
      <use xlink:href="#DejaVuSans-73" transform="translate(154.638672 0)"/>
      <use xlink:href="#DejaVuSans-65" transform="translate(206.738281 0)"/>
      <use xlink:href="#DejaVuSans-3a" transform="translate(268.261719 0)"/>
      <use xlink:href="#DejaVuSans-30" transform="translate(301.953125 0)"/>
     </g>
    </g>
    <g id="line2d_19">
     <path d="M 200.094411 242.579207 
L 200.094411 242.579207 
L 210.094411 242.579207 
L 210.094411 242.579207 
L 220.094411 242.579207 
" style="fill: none; stroke: #ff7f0e; stroke-width: 1.5; stroke-linecap: square"/>
    </g>
    <g id="text_19">
     <!-- pulse:1 -->
     <g transform="translate(228.094411 246.079207) scale(0.1 -0.1)">
      <use xlink:href="#DejaVuSans-70"/>
      <use xlink:href="#DejaVuSans-75" transform="translate(63.476562 0)"/>
      <use xlink:href="#DejaVuSans-6c" transform="translate(126.855469 0)"/>
      <use xlink:href="#DejaVuSans-73" transform="translate(154.638672 0)"/>
      <use xlink:href="#DejaVuSans-65" transform="translate(206.738281 0)"/>
      <use xlink:href="#DejaVuSans-3a" transform="translate(268.261719 0)"/>
      <use xlink:href="#DejaVuSans-31" transform="translate(301.953125 0)"/>
     </g>
    </g>
   </g>
  </g>
  <g id="axes_2">
   <g id="patch_8">
    <path d="M 507.109135 257.158895 
L 865.19952 257.158895 
L 865.19952 7.2 
L 507.109135 7.2 
z
" style="fill: #ffffff"/>
   </g>
   <g id="matplotlib.axis_3">
    <g id="xtick_9">
     <g id="line2d_20">
      <g>
       <use xlink:href="#m71b9ce8450" x="520.105602" y="257.158895" style="stroke: #000000; stroke-width: 0.8"/>
      </g>
     </g>
     <g id="text_20">
      <!-- 0.0 -->
      <g transform="translate(512.15404 271.757332) scale(0.1 -0.1)">
       <defs>
        <path id="DejaVuSans-2e" d="M 684 794 
L 1344 794 
L 1344 0 
L 684 0 
L 684 794 
z
" transform="scale(0.015625)"/>
       </defs>
       <use xlink:href="#DejaVuSans-30"/>
       <use xlink:href="#DejaVuSans-2e" transform="translate(63.623047 0)"/>
       <use xlink:href="#DejaVuSans-30" transform="translate(95.410156 0)"/>
      </g>
     </g>
    </g>
    <g id="xtick_10">
     <g id="line2d_21">
      <g>
       <use xlink:href="#m71b9ce8450" x="561.415771" y="257.158895" style="stroke: #000000; stroke-width: 0.8"/>
      </g>
     </g>
     <g id="text_21">
      <!-- 2.5 -->
      <g transform="translate(553.464209 271.757332) scale(0.1 -0.1)">
       <use xlink:href="#DejaVuSans-32"/>
       <use xlink:href="#DejaVuSans-2e" transform="translate(63.623047 0)"/>
       <use xlink:href="#DejaVuSans-35" transform="translate(95.410156 0)"/>
      </g>
     </g>
    </g>
    <g id="xtick_11">
     <g id="line2d_22">
      <g>
       <use xlink:href="#m71b9ce8450" x="602.725941" y="257.158895" style="stroke: #000000; stroke-width: 0.8"/>
      </g>
     </g>
     <g id="text_22">
      <!-- 5.0 -->
      <g transform="translate(594.774378 271.757332) scale(0.1 -0.1)">
       <use xlink:href="#DejaVuSans-35"/>
       <use xlink:href="#DejaVuSans-2e" transform="translate(63.623047 0)"/>
       <use xlink:href="#DejaVuSans-30" transform="translate(95.410156 0)"/>
      </g>
     </g>
    </g>
    <g id="xtick_12">
     <g id="line2d_23">
      <g>
       <use xlink:href="#m71b9ce8450" x="644.03611" y="257.158895" style="stroke: #000000; stroke-width: 0.8"/>
      </g>
     </g>
     <g id="text_23">
      <!-- 7.5 -->
      <g transform="translate(636.084548 271.757332) scale(0.1 -0.1)">
       <use xlink:href="#DejaVuSans-37"/>
       <use xlink:href="#DejaVuSans-2e" transform="translate(63.623047 0)"/>
       <use xlink:href="#DejaVuSans-35" transform="translate(95.410156 0)"/>
      </g>
     </g>
    </g>
    <g id="xtick_13">
     <g id="line2d_24">
      <g>
       <use xlink:href="#m71b9ce8450" x="685.34628" y="257.158895" style="stroke: #000000; stroke-width: 0.8"/>
      </g>
     </g>
     <g id="text_24">
      <!-- 10.0 -->
      <g transform="translate(674.213467 271.757332) scale(0.1 -0.1)">
       <use xlink:href="#DejaVuSans-31"/>
       <use xlink:href="#DejaVuSans-30" transform="translate(63.623047 0)"/>
       <use xlink:href="#DejaVuSans-2e" transform="translate(127.246094 0)"/>
       <use xlink:href="#DejaVuSans-30" transform="translate(159.033203 0)"/>
      </g>
     </g>
    </g>
    <g id="xtick_14">
     <g id="line2d_25">
      <g>
       <use xlink:href="#m71b9ce8450" x="726.656449" y="257.158895" style="stroke: #000000; stroke-width: 0.8"/>
      </g>
     </g>
     <g id="text_25">
      <!-- 12.5 -->
      <g transform="translate(715.523636 271.757332) scale(0.1 -0.1)">
       <use xlink:href="#DejaVuSans-31"/>
       <use xlink:href="#DejaVuSans-32" transform="translate(63.623047 0)"/>
       <use xlink:href="#DejaVuSans-2e" transform="translate(127.246094 0)"/>
       <use xlink:href="#DejaVuSans-35" transform="translate(159.033203 0)"/>
      </g>
     </g>
    </g>
    <g id="xtick_15">
     <g id="line2d_26">
      <g>
       <use xlink:href="#m71b9ce8450" x="767.966618" y="257.158895" style="stroke: #000000; stroke-width: 0.8"/>
      </g>
     </g>
     <g id="text_26">
      <!-- 15.0 -->
      <g transform="translate(756.833806 271.757332) scale(0.1 -0.1)">
       <use xlink:href="#DejaVuSans-31"/>
       <use xlink:href="#DejaVuSans-35" transform="translate(63.623047 0)"/>
       <use xlink:href="#DejaVuSans-2e" transform="translate(127.246094 0)"/>
       <use xlink:href="#DejaVuSans-30" transform="translate(159.033203 0)"/>
      </g>
     </g>
    </g>
    <g id="xtick_16">
     <g id="line2d_27">
      <g>
       <use xlink:href="#m71b9ce8450" x="809.276788" y="257.158895" style="stroke: #000000; stroke-width: 0.8"/>
      </g>
     </g>
     <g id="text_27">
      <!-- 17.5 -->
      <g transform="translate(798.143975 271.757332) scale(0.1 -0.1)">
       <use xlink:href="#DejaVuSans-31"/>
       <use xlink:href="#DejaVuSans-37" transform="translate(63.623047 0)"/>
       <use xlink:href="#DejaVuSans-2e" transform="translate(127.246094 0)"/>
       <use xlink:href="#DejaVuSans-35" transform="translate(159.033203 0)"/>
      </g>
     </g>
    </g>
    <g id="xtick_17">
     <g id="line2d_28">
      <g>
       <use xlink:href="#m71b9ce8450" x="850.586957" y="257.158895" style="stroke: #000000; stroke-width: 0.8"/>
      </g>
     </g>
     <g id="text_28">
      <!-- 20.0 -->
      <g transform="translate(839.454144 271.757332) scale(0.1 -0.1)">
       <use xlink:href="#DejaVuSans-32"/>
       <use xlink:href="#DejaVuSans-30" transform="translate(63.623047 0)"/>
       <use xlink:href="#DejaVuSans-2e" transform="translate(127.246094 0)"/>
       <use xlink:href="#DejaVuSans-30" transform="translate(159.033203 0)"/>
      </g>
     </g>
    </g>
    <g id="text_29">
     <!-- wavelength [Å] -->
     <g transform="translate(648.116827 287.119832) scale(0.1 -0.1)">
      <defs>
       <path id="DejaVuSans-77" d="M 269 3500 
L 844 3500 
L 1563 769 
L 2278 3500 
L 2956 3500 
L 3675 769 
L 4391 3500 
L 4966 3500 
L 4050 0 
L 3372 0 
L 2619 2869 
L 1863 0 
L 1184 0 
L 269 3500 
z
" transform="scale(0.015625)"/>
       <path id="DejaVuSans-61" d="M 2194 1759 
Q 1497 1759 1228 1600 
Q 959 1441 959 1056 
Q 959 750 1161 570 
Q 1363 391 1709 391 
Q 2188 391 2477 730 
Q 2766 1069 2766 1631 
L 2766 1759 
L 2194 1759 
z
M 3341 1997 
L 3341 0 
L 2766 0 
L 2766 531 
Q 2569 213 2275 61 
Q 1981 -91 1556 -91 
Q 1019 -91 701 211 
Q 384 513 384 1019 
Q 384 1609 779 1909 
Q 1175 2209 1959 2209 
L 2766 2209 
L 2766 2266 
Q 2766 2663 2505 2880 
Q 2244 3097 1772 3097 
Q 1472 3097 1187 3025 
Q 903 2953 641 2809 
L 641 3341 
Q 956 3463 1253 3523 
Q 1550 3584 1831 3584 
Q 2591 3584 2966 3190 
Q 3341 2797 3341 1997 
z
" transform="scale(0.015625)"/>
       <path id="DejaVuSans-76" d="M 191 3500 
L 800 3500 
L 1894 563 
L 2988 3500 
L 3597 3500 
L 2284 0 
L 1503 0 
L 191 3500 
z
" transform="scale(0.015625)"/>
       <path id="DejaVuSans-67" d="M 2906 1791 
Q 2906 2416 2648 2759 
Q 2391 3103 1925 3103 
Q 1463 3103 1205 2759 
Q 947 2416 947 1791 
Q 947 1169 1205 825 
Q 1463 481 1925 481 
Q 2391 481 2648 825 
Q 2906 1169 2906 1791 
z
M 3481 434 
Q 3481 -459 3084 -895 
Q 2688 -1331 1869 -1331 
Q 1566 -1331 1297 -1286 
Q 1028 -1241 775 -1147 
L 775 -588 
Q 1028 -725 1275 -790 
Q 1522 -856 1778 -856 
Q 2344 -856 2625 -561 
Q 2906 -266 2906 331 
L 2906 616 
Q 2728 306 2450 153 
Q 2172 0 1784 0 
Q 1141 0 747 490 
Q 353 981 353 1791 
Q 353 2603 747 3093 
Q 1141 3584 1784 3584 
Q 2172 3584 2450 3431 
Q 2728 3278 2906 2969 
L 2906 3500 
L 3481 3500 
L 3481 434 
z
" transform="scale(0.015625)"/>
       <path id="DejaVuSans-c5" d="M 2663 5081 
Q 2663 5278 2523 5417 
Q 2384 5556 2188 5556 
Q 1988 5556 1852 5420 
Q 1716 5284 1716 5081 
Q 1716 4884 1853 4746 
Q 1991 4609 2188 4609 
Q 2384 4609 2523 4746 
Q 2663 4884 2663 5081 
z
M 2188 4044 
L 1338 1722 
L 3041 1722 
L 2188 4044 
z
M 1716 4366 
Q 1525 4494 1428 4673 
Q 1331 4853 1331 5081 
Q 1331 5441 1579 5691 
Q 1828 5941 2188 5941 
Q 2544 5941 2795 5689 
Q 3047 5438 3047 5081 
Q 3047 4863 2948 4678 
Q 2850 4494 2663 4366 
L 4325 0 
L 3669 0 
L 3244 1197 
L 1141 1197 
L 716 0 
L 50 0 
L 1716 4366 
z
" transform="scale(0.015625)"/>
      </defs>
      <use xlink:href="#DejaVuSans-77"/>
      <use xlink:href="#DejaVuSans-61" transform="translate(81.787109 0)"/>
      <use xlink:href="#DejaVuSans-76" transform="translate(143.066406 0)"/>
      <use xlink:href="#DejaVuSans-65" transform="translate(202.246094 0)"/>
      <use xlink:href="#DejaVuSans-6c" transform="translate(263.769531 0)"/>
      <use xlink:href="#DejaVuSans-65" transform="translate(291.552734 0)"/>
      <use xlink:href="#DejaVuSans-6e" transform="translate(353.076172 0)"/>
      <use xlink:href="#DejaVuSans-67" transform="translate(416.455078 0)"/>
      <use xlink:href="#DejaVuSans-74" transform="translate(479.931641 0)"/>
      <use xlink:href="#DejaVuSans-68" transform="translate(519.140625 0)"/>
      <use xlink:href="#DejaVuSans-20" transform="translate(582.519531 0)"/>
      <use xlink:href="#DejaVuSans-5b" transform="translate(614.306641 0)"/>
      <use xlink:href="#DejaVuSans-c5" transform="translate(653.320312 0)"/>
      <use xlink:href="#DejaVuSans-5d" transform="translate(721.728516 0)"/>
     </g>
    </g>
   </g>
   <g id="matplotlib.axis_4">
    <g id="ytick_8">
     <g id="line2d_29">
      <g>
       <use xlink:href="#m772d2156eb" x="507.109135" y="245.818065" style="stroke: #000000; stroke-width: 0.8"/>
      </g>
     </g>
     <g id="text_30">
      <!-- 0 -->
      <g transform="translate(493.746635 249.617283) scale(0.1 -0.1)">
       <use xlink:href="#DejaVuSans-30"/>
      </g>
     </g>
    </g>
    <g id="ytick_9">
     <g id="line2d_30">
      <g>
       <use xlink:href="#m772d2156eb" x="507.109135" y="203.942941" style="stroke: #000000; stroke-width: 0.8"/>
      </g>
     </g>
     <g id="text_31">
      <!-- 2000 -->
      <g transform="translate(474.659135 207.74216) scale(0.1 -0.1)">
       <use xlink:href="#DejaVuSans-32"/>
       <use xlink:href="#DejaVuSans-30" transform="translate(63.623047 0)"/>
       <use xlink:href="#DejaVuSans-30" transform="translate(127.246094 0)"/>
       <use xlink:href="#DejaVuSans-30" transform="translate(190.869141 0)"/>
      </g>
     </g>
    </g>
    <g id="ytick_10">
     <g id="line2d_31">
      <g>
       <use xlink:href="#m772d2156eb" x="507.109135" y="162.067817" style="stroke: #000000; stroke-width: 0.8"/>
      </g>
     </g>
     <g id="text_32">
      <!-- 4000 -->
      <g transform="translate(474.659135 165.867036) scale(0.1 -0.1)">
       <use xlink:href="#DejaVuSans-34"/>
       <use xlink:href="#DejaVuSans-30" transform="translate(63.623047 0)"/>
       <use xlink:href="#DejaVuSans-30" transform="translate(127.246094 0)"/>
       <use xlink:href="#DejaVuSans-30" transform="translate(190.869141 0)"/>
      </g>
     </g>
    </g>
    <g id="ytick_11">
     <g id="line2d_32">
      <g>
       <use xlink:href="#m772d2156eb" x="507.109135" y="120.192693" style="stroke: #000000; stroke-width: 0.8"/>
      </g>
     </g>
     <g id="text_33">
      <!-- 6000 -->
      <g transform="translate(474.659135 123.991912) scale(0.1 -0.1)">
       <use xlink:href="#DejaVuSans-36"/>
       <use xlink:href="#DejaVuSans-30" transform="translate(63.623047 0)"/>
       <use xlink:href="#DejaVuSans-30" transform="translate(127.246094 0)"/>
       <use xlink:href="#DejaVuSans-30" transform="translate(190.869141 0)"/>
      </g>
     </g>
    </g>
    <g id="ytick_12">
     <g id="line2d_33">
      <g>
       <use xlink:href="#m772d2156eb" x="507.109135" y="78.31757" style="stroke: #000000; stroke-width: 0.8"/>
      </g>
     </g>
     <g id="text_34">
      <!-- 8000 -->
      <g transform="translate(474.659135 82.116788) scale(0.1 -0.1)">
       <defs>
        <path id="DejaVuSans-38" d="M 2034 2216 
Q 1584 2216 1326 1975 
Q 1069 1734 1069 1313 
Q 1069 891 1326 650 
Q 1584 409 2034 409 
Q 2484 409 2743 651 
Q 3003 894 3003 1313 
Q 3003 1734 2745 1975 
Q 2488 2216 2034 2216 
z
M 1403 2484 
Q 997 2584 770 2862 
Q 544 3141 544 3541 
Q 544 4100 942 4425 
Q 1341 4750 2034 4750 
Q 2731 4750 3128 4425 
Q 3525 4100 3525 3541 
Q 3525 3141 3298 2862 
Q 3072 2584 2669 2484 
Q 3125 2378 3379 2068 
Q 3634 1759 3634 1313 
Q 3634 634 3220 271 
Q 2806 -91 2034 -91 
Q 1263 -91 848 271 
Q 434 634 434 1313 
Q 434 1759 690 2068 
Q 947 2378 1403 2484 
z
M 1172 3481 
Q 1172 3119 1398 2916 
Q 1625 2713 2034 2713 
Q 2441 2713 2670 2916 
Q 2900 3119 2900 3481 
Q 2900 3844 2670 4047 
Q 2441 4250 2034 4250 
Q 1625 4250 1398 4047 
Q 1172 3844 1172 3481 
z
" transform="scale(0.015625)"/>
       </defs>
       <use xlink:href="#DejaVuSans-38"/>
       <use xlink:href="#DejaVuSans-30" transform="translate(63.623047 0)"/>
       <use xlink:href="#DejaVuSans-30" transform="translate(127.246094 0)"/>
       <use xlink:href="#DejaVuSans-30" transform="translate(190.869141 0)"/>
      </g>
     </g>
    </g>
    <g id="ytick_13">
     <g id="line2d_34">
      <g>
       <use xlink:href="#m772d2156eb" x="507.109135" y="36.442446" style="stroke: #000000; stroke-width: 0.8"/>
      </g>
     </g>
     <g id="text_35">
      <!-- 10000 -->
      <g transform="translate(468.296635 40.241665) scale(0.1 -0.1)">
       <use xlink:href="#DejaVuSans-31"/>
       <use xlink:href="#DejaVuSans-30" transform="translate(63.623047 0)"/>
       <use xlink:href="#DejaVuSans-30" transform="translate(127.246094 0)"/>
       <use xlink:href="#DejaVuSans-30" transform="translate(190.869141 0)"/>
       <use xlink:href="#DejaVuSans-30" transform="translate(254.492188 0)"/>
      </g>
     </g>
    </g>
    <g id="text_36">
     <!-- [counts] -->
     <g transform="translate(462.216947 152.791947) rotate(-90) scale(0.1 -0.1)">
      <use xlink:href="#DejaVuSans-5b"/>
      <use xlink:href="#DejaVuSans-63" transform="translate(39.013672 0)"/>
      <use xlink:href="#DejaVuSans-6f" transform="translate(93.994141 0)"/>
      <use xlink:href="#DejaVuSans-75" transform="translate(155.175781 0)"/>
      <use xlink:href="#DejaVuSans-6e" transform="translate(218.554688 0)"/>
      <use xlink:href="#DejaVuSans-74" transform="translate(281.933594 0)"/>
      <use xlink:href="#DejaVuSans-73" transform="translate(321.142578 0)"/>
      <use xlink:href="#DejaVuSans-5d" transform="translate(373.242188 0)"/>
     </g>
    </g>
   </g>
   <g id="line2d_35">
    <path d="M 523.385971 156.226237 
L 524.471093 156.226237 
L 524.471093 150.028719 
L 525.556215 150.028719 
L 525.556215 140.690566 
L 526.641338 140.690566 
L 526.641338 141.695569 
L 527.72646 141.695569 
L 527.72646 148.542152 
L 528.811583 148.542152 
L 528.811583 151.096535 
L 529.896705 151.096535 
L 529.896705 140.523066 
L 530.981827 140.523066 
L 530.981827 129.15397 
L 532.06695 129.15397 
L 532.06695 102.87733 
L 533.152072 102.87733 
L 533.152072 84.368525 
L 534.237194 84.368525 
L 534.237194 64.331278 
L 535.322317 64.331278 
L 535.322317 42.221213 
L 536.407439 42.221213 
L 536.407439 28.50711 
L 537.492562 28.50711 
L 537.492562 31.040555 
L 538.577684 31.040555 
L 538.577684 18.561768 
L 539.662806 18.561768 
L 539.662806 24.047409 
L 540.747929 24.047409 
L 540.747929 39.038703 
L 541.833051 39.038703 
L 541.833051 40.902146 
L 542.918173 40.902146 
L 542.918173 49.507484 
L 544.003296 49.507484 
L 544.003296 63.20065 
L 545.088418 63.20065 
L 545.088418 74.548808 
L 546.173541 74.548808 
L 546.173541 78.48507 
L 547.258663 78.48507 
L 547.258663 85.310715 
L 548.343785 85.310715 
L 548.343785 86.943845 
L 549.428908 86.943845 
L 549.428908 93.162301 
L 550.51403 93.162301 
L 550.51403 96.302935 
L 552.684275 96.365748 
L 552.684275 93.455427 
L 553.769397 93.455427 
L 553.769397 94.54418 
L 554.85452 94.54418 
L 554.85452 82.232894 
L 555.939642 82.232894 
L 555.939642 80.516014 
L 557.024764 80.516014 
L 557.024764 75.511936 
L 558.109887 75.511936 
L 558.109887 55.935316 
L 559.195009 55.935316 
L 559.195009 54.61625 
L 560.280132 54.61625 
L 560.280132 48.523419 
L 561.365254 48.523419 
L 561.365254 33.238999 
L 562.450376 33.238999 
L 562.450376 34.914004 
L 563.535499 34.914004 
L 563.535499 44.189344 
L 564.620621 44.189344 
L 564.620621 51.999054 
L 565.705743 51.999054 
L 565.705743 60.583455 
L 566.790866 60.583455 
L 566.790866 70.989423 
L 567.875988 70.989423 
L 567.875988 78.736321 
L 568.961111 78.736321 
L 568.961111 87.216033 
L 570.046233 87.216033 
L 570.046233 100.281072 
L 571.131355 100.281072 
L 571.131355 106.415778 
L 572.216478 106.415778 
L 572.216478 109.91235 
L 573.3016 109.91235 
L 573.3016 121.951449 
L 574.386722 121.951449 
L 574.386722 127.227714 
L 575.471845 127.227714 
L 575.471845 130.724287 
L 576.556967 130.724287 
L 576.556967 137.528995 
L 577.64209 137.528995 
L 577.64209 144.43839 
L 578.727212 144.43839 
L 578.727212 147.432461 
L 579.812334 147.432461 
L 579.812334 155.158422 
L 580.897457 155.158422 
L 580.897457 156.519363 
L 581.982579 156.519363 
L 581.982579 161.251252 
L 583.067702 161.251252 
L 583.067702 166.527518 
L 584.152824 166.527518 
L 584.152824 169.102838 
L 585.237946 169.102838 
L 585.237946 173.89754 
L 586.323069 173.89754 
L 586.323069 175.844733 
L 587.408191 175.844733 
L 587.408191 180.702247 
L 588.493313 180.702247 
L 588.493313 181.288499 
L 589.578436 181.288499 
L 589.578436 187.360392 
L 590.663558 187.360392 
L 590.663558 187.883831 
L 591.748681 187.883831 
L 591.748681 190.81509 
L 592.833803 190.81509 
L 592.833803 195.316665 
L 593.918925 195.316665 
L 593.918925 193.809161 
L 595.004048 193.809161 
L 595.004048 196.531044 
L 596.08917 196.531044 
L 596.08917 199.922929 
L 597.174292 199.922929 
L 597.174292 202.66575 
L 598.259415 202.66575 
L 598.259415 204.215129 
L 599.344537 204.215129 
L 599.344537 205.806384 
L 600.42966 205.806384 
L 600.42966 207.481389 
L 601.514782 207.481389 
L 601.514782 209.282019 
L 602.599904 209.282019 
L 602.599904 211.522338 
L 603.685027 211.522338 
L 603.685027 211.941089 
L 604.770149 211.941089 
L 604.770149 215.793601 
L 605.855271 215.793601 
L 605.855271 216.840479 
L 606.940394 216.840479 
L 606.940394 217.049855 
L 608.025516 217.049855 
L 608.025516 217.280168 
L 609.110639 217.280168 
L 609.110639 220.52549 
L 610.195761 220.52549 
L 610.195761 219.499549 
L 611.280883 219.499549 
L 611.280883 220.399864 
L 612.366006 220.399864 
L 612.366006 222.493621 
L 613.451128 222.493621 
L 613.451128 223.980188 
L 614.53625 223.980188 
L 614.53625 224.671127 
L 615.621373 224.671127 
L 615.621373 225.927381 
L 616.706495 225.927381 
L 616.706495 225.257379 
L 617.791618 225.257379 
L 617.791618 226.53457 
L 618.87674 226.53457 
L 618.87674 226.806758 
L 619.961862 226.806758 
L 619.961862 227.748949 
L 621.046985 227.748949 
L 621.046985 228.628326 
L 622.132107 228.628326 
L 622.132107 230.198643 
L 624.302352 230.114893 
L 624.302352 231.60146 
L 625.387474 231.60146 
L 625.387474 231.078021 
L 626.472597 231.078021 
L 626.472597 232.438963 
L 627.557719 232.438963 
L 627.557719 231.580523 
L 628.642841 231.580523 
L 628.642841 231.915524 
L 629.727964 231.915524 
L 629.727964 233.297403 
L 630.813086 233.297403 
L 630.813086 234.051155 
L 631.898209 234.051155 
L 631.898209 233.904592 
L 632.983331 233.904592 
L 632.983331 234.553656 
L 634.068453 234.553656 
L 634.068453 235.014283 
L 635.153576 235.014283 
L 635.153576 236.123973 
L 636.238698 236.123973 
L 636.238698 235.705222 
L 637.32382 235.705222 
L 637.32382 236.186786 
L 638.408943 236.186786 
L 638.408943 236.877726 
L 639.494065 236.877726 
L 639.494065 237.317414 
L 640.579188 237.317414 
L 640.579188 237.52679 
L 641.66431 237.52679 
L 641.66431 236.898663 
L 642.749432 236.898663 
L 642.749432 237.736166 
L 643.834555 237.736166 
L 643.834555 238.30148 
L 646.004799 238.364293 
L 646.004799 238.133979 
L 647.089922 238.133979 
L 647.089922 238.783044 
L 648.175044 238.783044 
L 648.175044 239.138982 
L 649.260167 239.138982 
L 649.260167 239.662421 
L 650.345289 239.662421 
L 650.345289 239.222733 
L 651.430411 239.222733 
L 651.430411 239.557734 
L 652.515534 239.557734 
L 652.515534 239.976485 
L 653.600656 239.976485 
L 653.600656 239.746172 
L 654.685779 239.746172 
L 654.685779 240.332423 
L 655.770901 240.332423 
L 655.770901 239.808984 
L 656.856023 239.808984 
L 656.856023 240.437111 
L 660.11139 240.332423 
L 660.11139 241.148988 
L 661.196513 241.148988 
L 661.196513 240.939613 
L 664.45188 241.023363 
L 664.45188 241.190863 
L 665.537002 241.190863 
L 665.537002 242.091179 
L 666.622125 242.091179 
L 666.622125 241.190863 
L 667.707247 241.190863 
L 667.707247 242.258679 
L 668.792369 242.258679 
L 668.792369 241.944616 
L 669.877492 241.944616 
L 669.877492 242.237742 
L 670.962614 242.237742 
L 670.962614 242.488992 
L 672.047737 242.488992 
L 672.047737 242.174929 
L 673.132859 242.174929 
L 673.132859 242.740243 
L 675.303104 242.656493 
L 675.303104 242.572743 
L 678.558471 242.656493 
L 678.558471 243.431183 
L 679.643593 243.431183 
L 679.643593 242.823993 
L 680.728716 242.823993 
L 680.728716 243.033369 
L 681.813838 243.033369 
L 681.813838 243.221807 
L 685.069205 243.117119 
L 685.069205 243.556808 
L 686.154327 243.556808 
L 686.154327 243.389307 
L 689.409695 243.389307 
L 689.409695 243.53587 
L 690.494817 243.53587 
L 690.494817 243.703371 
L 691.579939 243.703371 
L 691.579939 243.828996 
L 692.665062 243.828996 
L 692.665062 243.514933 
L 693.750184 243.514933 
L 693.750184 244.080247 
L 694.835307 244.080247 
L 694.835307 243.912746 
L 695.920429 243.912746 
L 695.920429 243.766184 
L 701.346041 243.828996 
L 701.346041 244.059309 
L 702.431163 244.059309 
L 702.431163 244.31056 
L 703.516286 244.31056 
L 703.516286 243.912746 
L 704.601408 243.912746 
L 704.601408 244.22681 
L 705.68653 244.22681 
L 705.68653 244.373373 
L 708.941897 244.331498 
L 708.941897 244.519936 
L 711.112142 244.561811 
L 711.112142 244.352435 
L 713.282387 244.352435 
L 713.282387 244.603686 
L 716.537754 244.519936 
L 716.537754 244.436186 
L 717.622876 244.436186 
L 717.622876 244.771187 
L 718.707999 244.771187 
L 718.707999 244.540873 
L 719.793121 244.540873 
L 719.793121 244.687436 
L 721.963366 244.582748 
L 721.963366 244.813062 
L 725.218733 244.833999 
L 725.218733 244.603686 
L 726.303856 244.603686 
L 726.303856 244.750249 
L 727.388978 244.750249 
L 727.388978 244.980562 
L 728.4741 244.980562 
L 728.4741 244.750249 
L 729.559223 244.750249 
L 729.559223 244.519936 
L 730.644345 244.519936 
L 730.644345 244.938687 
L 732.81459 245.0015 
L 732.81459 245.106188 
L 733.899712 245.106188 
L 733.899712 244.813062 
L 734.984835 244.813062 
L 734.984835 244.938687 
L 737.155079 244.917749 
L 737.155079 245.148063 
L 738.240202 245.148063 
L 738.240202 244.771187 
L 739.325324 244.771187 
L 739.325324 245.0015 
L 740.410446 245.0015 
L 740.410446 245.441188 
L 741.495569 245.441188 
L 741.495569 244.959625 
L 743.665814 244.959625 
L 743.665814 245.25275 
L 746.921181 245.357438 
L 746.921181 245.127125 
L 749.091425 245.231813 
L 749.091425 245.315563 
L 751.26167 245.420251 
L 751.26167 245.169 
L 757.772404 245.169 
L 757.772404 245.043375 
L 758.857527 245.043375 
L 758.857527 245.294626 
L 766.453384 245.378376 
L 766.453384 245.420251 
L 771.878995 245.462126 
L 771.878995 245.545876 
L 775.134363 245.545876 
L 775.134363 245.357438 
L 777.304607 245.315563 
L 777.304607 245.524939 
L 780.559974 245.483064 
L 780.559974 245.399313 
L 782.730219 245.504001 
L 782.730219 245.608689 
L 783.815342 245.608689 
L 783.815342 245.462126 
L 788.155831 245.524939 
L 788.155831 245.608689 
L 795.751688 245.608689 
L 795.751688 245.462126 
L 796.83681 245.462126 
L 796.83681 245.608689 
L 800.092177 245.524939 
L 800.092177 245.734314 
L 801.1773 245.734314 
L 801.1773 245.504001 
L 802.262422 245.504001 
L 802.262422 245.629627 
L 825.049992 245.524939 
L 825.049992 245.776189 
L 831.560726 245.755252 
L 831.560726 245.587751 
L 832.645849 245.587751 
L 832.645849 245.755252 
L 834.816093 245.671502 
L 834.816093 245.629627 
L 836.986338 245.734314 
L 836.986338 245.755252 
L 848.922684 245.755252 
L 848.922684 245.755252 
" clip-path="url(#p82227308dd)" style="fill: none; stroke: #1f77b4; stroke-width: 1.5; stroke-linecap: square"/>
   </g>
   <g id="line2d_36">
    <path d="M 523.386173 156.97999 
L 524.46958 156.97999 
L 524.46958 146.594959 
L 525.552987 146.594959 
L 525.552987 142.009633 
L 526.636393 142.009633 
L 526.636393 140.983692 
L 527.7198 140.983692 
L 527.7198 145.924957 
L 528.803206 145.924957 
L 528.803206 150.614971 
L 529.886613 150.614971 
L 529.886613 141.967758 
L 530.970019 141.967758 
L 530.970019 129.091157 
L 532.053426 129.091157 
L 532.053426 102.10264 
L 533.136832 102.10264 
L 533.136832 82.567895 
L 534.220239 82.567895 
L 534.220239 62.928462 
L 535.303646 62.928462 
L 535.303646 39.708705 
L 536.387052 39.708705 
L 536.387052 26.455229 
L 538.553865 26.538979 
L 538.553865 19.755209 
L 539.637272 19.755209 
L 539.637272 23.796158 
L 540.720678 23.796158 
L 540.720678 35.898069 
L 541.804085 35.898069 
L 541.804085 42.200275 
L 542.887491 42.200275 
L 542.887491 45.801536 
L 543.970898 45.801536 
L 543.970898 60.750955 
L 545.054305 60.750955 
L 545.054305 72.769116 
L 546.137711 72.769116 
L 546.137711 76.328501 
L 547.221118 76.328501 
L 547.221118 86.81822 
L 548.304524 86.81822 
L 548.304524 91.759484 
L 549.387931 91.759484 
L 549.387931 98.773568 
L 550.471337 98.773568 
L 550.471337 99.401694 
L 551.554744 99.401694 
L 551.554744 96.240123 
L 552.63815 96.240123 
L 552.63815 96.386685 
L 553.721557 96.386685 
L 553.721557 93.60199 
L 554.804963 93.60199 
L 554.804963 85.394465 
L 555.88837 85.394465 
L 555.88837 80.767264 
L 556.971777 80.767264 
L 556.971777 76.496002 
L 558.055183 76.496002 
L 558.055183 59.369076 
L 559.13859 59.369076 
L 559.13859 50.889363 
L 560.221996 50.889363 
L 560.221996 50.261237 
L 561.305403 50.261237 
L 561.305403 38.243076 
L 562.388809 38.243076 
L 562.388809 36.191195 
L 563.472216 36.191195 
L 563.472216 47.14154 
L 564.555622 47.14154 
L 564.555622 54.469687 
L 565.639029 54.469687 
L 565.639029 63.97534 
L 566.722436 63.97534 
L 566.722436 75.009435 
L 567.805842 75.009435 
L 567.805842 79.552886 
L 568.889249 79.552886 
L 568.889249 86.294781 
L 569.972655 86.294781 
L 569.972655 101.851389 
L 571.056062 101.851389 
L 571.056062 104.175458 
L 572.139468 104.175458 
L 572.139468 108.614222 
L 573.222875 108.614222 
L 573.222875 118.140812 
L 574.306281 118.140812 
L 574.306281 121.281447 
L 575.389688 121.281447 
L 575.389688 133.132107 
L 576.473095 133.132107 
L 576.473095 136.209928 
L 577.556501 136.209928 
L 577.556501 141.151193 
L 578.639908 141.151193 
L 578.639908 148.374652 
L 579.723314 148.374652 
L 579.723314 152.541226 
L 580.806721 152.541226 
L 580.806721 157.440616 
L 581.890127 157.440616 
L 581.890127 160.183437 
L 582.973534 160.183437 
L 582.973534 165.522515 
L 584.05694 165.522515 
L 584.05694 169.291276 
L 585.140347 169.291276 
L 585.140347 171.866596 
L 586.223753 171.866596 
L 586.223753 176.55661 
L 587.30716 176.55661 
L 587.30716 180.534747 
L 588.390567 180.534747 
L 588.390567 181.414124 
L 589.473973 181.414124 
L 589.473973 186.481014 
L 590.55738 186.481014 
L 590.55738 188.930709 
L 591.640786 188.930709 
L 591.640786 189.893837 
L 592.724193 189.893837 
L 592.724193 193.432285 
L 593.807599 193.432285 
L 593.807599 195.044477 
L 594.891006 195.044477 
L 594.891006 198.582925 
L 595.974412 198.582925 
L 595.974412 201.409496 
L 597.057819 201.409496 
L 597.057819 201.241995 
L 598.141226 201.241995 
L 598.141226 204.906069 
L 599.224632 204.906069 
L 599.224632 207.418576 
L 600.308039 207.418576 
L 600.308039 211.229212 
L 601.391445 211.229212 
L 601.391445 209.44952 
L 602.474852 209.44952 
L 602.474852 209.931084 
L 603.558258 209.931084 
L 603.558258 212.380778 
L 604.641665 212.380778 
L 604.641665 213.82547 
L 605.725071 213.82547 
L 605.725071 216.756729 
L 606.808478 216.756729 
L 606.808478 216.358915 
L 607.891885 216.358915 
L 607.891885 216.756729 
L 608.975291 216.756729 
L 608.975291 218.80861 
L 610.058698 218.80861 
L 610.058698 218.934235 
L 611.142104 218.934235 
L 611.142104 220.776741 
L 612.225511 220.776741 
L 612.225511 221.614243 
L 613.308917 221.614243 
L 613.308917 224.315189 
L 615.47573 224.252376 
L 615.47573 226.408945 
L 616.559137 226.408945 
L 616.559137 225.697068 
L 617.642544 225.697068 
L 617.642544 227.686136 
L 618.72595 227.686136 
L 618.72595 227.937387 
L 619.809357 227.937387 
L 619.809357 228.691139 
L 620.892763 228.691139 
L 620.892763 226.911446 
L 621.97617 226.911446 
L 621.97617 230.219581 
L 624.142983 230.303331 
L 624.142983 231.119896 
L 626.309796 231.057083 
L 626.309796 232.145837 
L 627.393202 232.145837 
L 627.393202 233.088027 
L 628.476609 233.088027 
L 628.476609 232.899589 
L 629.560016 232.899589 
L 629.560016 233.716154 
L 630.643422 233.716154 
L 630.643422 233.904592 
L 631.726829 233.904592 
L 631.726829 233.548653 
L 632.810235 233.548653 
L 632.810235 234.386156 
L 633.893642 234.386156 
L 633.893642 235.328346 
L 634.977048 235.328346 
L 634.977048 235.914598 
L 638.227268 235.998348 
L 638.227268 236.7521 
L 639.310675 236.7521 
L 639.310675 236.458974 
L 640.394081 236.458974 
L 640.394081 237.568665 
L 641.477488 237.568665 
L 641.477488 238.406168 
L 642.560894 238.406168 
L 642.560894 238.113042 
L 643.644301 238.113042 
L 643.644301 238.364293 
L 644.727707 238.364293 
L 644.727707 238.21773 
L 646.89452 238.259605 
L 646.89452 239.138982 
L 650.14474 239.055232 
L 650.14474 239.285545 
L 651.228147 239.285545 
L 651.228147 240.332423 
L 652.311553 240.332423 
L 652.311553 239.788047 
L 653.39496 239.788047 
L 653.39496 239.997422 
L 654.478366 239.997422 
L 654.478366 240.164923 
L 655.561773 240.164923 
L 655.561773 240.625549 
L 656.645179 240.625549 
L 656.645179 240.437111 
L 657.728586 240.437111 
L 657.728586 241.148988 
L 658.811992 241.148988 
L 658.811992 240.520861 
L 660.978806 240.458049 
L 660.978806 241.253676 
L 663.145619 241.337426 
L 663.145619 242.028366 
L 664.229025 242.028366 
L 664.229025 242.258679 
L 665.312432 242.258679 
L 665.312432 241.756178 
L 666.395838 241.756178 
L 666.395838 241.463052 
L 667.479245 241.463052 
L 667.479245 241.65149 
L 669.646058 241.693365 
L 669.646058 242.258679 
L 670.729465 242.258679 
L 670.729465 242.447117 
L 671.812871 242.447117 
L 671.812871 241.839928 
L 672.896278 241.839928 
L 672.896278 242.551805 
L 673.979684 242.551805 
L 673.979684 242.153991 
L 675.063091 242.153991 
L 675.063091 242.656493 
L 676.146497 242.656493 
L 676.146497 242.216804 
L 677.229904 242.216804 
L 677.229904 243.28462 
L 678.31331 243.28462 
L 678.31331 242.886806 
L 679.396717 242.886806 
L 679.396717 242.572743 
L 680.480124 242.572743 
L 680.480124 243.242744 
L 681.56353 243.242744 
L 681.56353 242.656493 
L 682.646937 242.656493 
L 682.646937 243.117119 
L 683.730343 243.117119 
L 683.730343 243.473058 
L 684.81375 243.473058 
L 684.81375 243.158994 
L 685.897156 243.158994 
L 685.897156 243.53587 
L 686.980563 243.53587 
L 686.980563 243.724308 
L 688.063969 243.724308 
L 688.063969 243.410245 
L 689.147376 243.410245 
L 689.147376 243.158994 
L 690.230782 243.158994 
L 690.230782 243.389307 
L 691.314189 243.389307 
L 691.314189 243.703371 
L 693.481002 243.661496 
L 693.481002 244.059309 
L 694.564409 244.059309 
L 694.564409 243.431183 
L 695.647815 243.431183 
L 695.647815 244.205872 
L 696.731222 244.205872 
L 696.731222 243.996497 
L 697.814628 243.996497 
L 697.814628 243.787121 
L 698.898035 243.787121 
L 698.898035 244.247747 
L 699.981441 244.247747 
L 699.981441 243.849934 
L 701.064848 243.849934 
L 701.064848 244.080247 
L 702.148255 244.080247 
L 702.148255 244.22681 
L 703.231661 244.22681 
L 703.231661 244.415248 
L 705.398474 244.352435 
L 705.398474 244.163997 
L 706.481881 244.163997 
L 706.481881 244.373373 
L 708.648694 244.373373 
L 708.648694 244.247747 
L 709.7321 244.247747 
L 709.7321 244.645561 
L 711.898914 244.540873 
L 711.898914 244.22681 
L 712.98232 244.22681 
L 712.98232 244.603686 
L 714.065727 244.603686 
L 714.065727 244.247747 
L 715.149133 244.247747 
L 715.149133 244.813062 
L 716.23254 244.813062 
L 716.23254 244.373373 
L 717.315946 244.373373 
L 717.315946 244.540873 
L 719.482759 244.645561 
L 719.482759 244.771187 
L 720.566166 244.771187 
L 720.566166 244.289623 
L 721.649572 244.289623 
L 721.649572 244.792124 
L 724.899792 244.708374 
L 724.899792 244.331498 
L 725.983199 244.331498 
L 725.983199 244.666499 
L 727.066605 244.666499 
L 727.066605 244.938687 
L 728.150012 244.938687 
L 728.150012 244.750249 
L 729.233418 244.750249 
L 729.233418 245.022437 
L 730.316825 245.022437 
L 730.316825 244.875874 
L 732.483638 244.813062 
L 732.483638 245.0015 
L 736.817264 244.896812 
L 736.817264 244.729311 
L 737.900671 244.729311 
L 737.900671 244.938687 
L 740.067484 245.022437 
L 740.067484 245.189938 
L 741.15089 245.189938 
L 741.15089 244.980562 
L 746.567923 244.980562 
L 746.567923 245.210875 
L 748.734736 245.169 
L 748.734736 245.378376 
L 753.068363 245.273688 
L 753.068363 245.148063 
L 756.318582 245.231813 
L 756.318582 245.399313 
L 758.485395 245.462126 
L 758.485395 245.273688 
L 764.985835 245.231813 
L 764.985835 245.524939 
L 766.069241 245.524939 
L 766.069241 245.294626 
L 770.402867 245.315563 
L 770.402867 245.483064 
L 771.486274 245.483064 
L 771.486274 245.357438 
L 780.153526 245.315563 
L 780.153526 245.566814 
L 781.236933 245.566814 
L 781.236933 245.357438 
L 782.320339 245.357438 
L 782.320339 245.483064 
L 789.904185 245.483064 
L 789.904185 245.692439 
L 793.154405 245.608689 
L 793.154405 245.441188 
L 796.404625 245.545876 
L 796.404625 245.713377 
L 798.571438 245.650564 
L 798.571438 245.545876 
L 800.738251 245.504001 
L 800.738251 245.713377 
L 801.821657 245.713377 
L 801.821657 245.483064 
L 803.98847 245.545876 
L 803.98847 245.629627 
L 823.489788 245.671502 
L 823.489788 245.755252 
L 827.823415 245.734314 
L 827.823415 245.629627 
L 835.40726 245.671502 
L 835.40726 245.755252 
L 848.408139 245.734314 
L 848.408139 245.734314 
" clip-path="url(#p82227308dd)" style="fill: none; stroke: #ff7f0e; stroke-width: 1.5; stroke-linecap: square"/>
   </g>
   <g id="patch_9">
    <path d="M 507.109135 257.158895 
L 507.109135 7.2 
" style="fill: none; stroke: #000000; stroke-width: 0.8; stroke-linejoin: miter; stroke-linecap: square"/>
   </g>
   <g id="patch_10">
    <path d="M 865.19952 257.158895 
L 865.19952 7.2 
" style="fill: none; stroke: #000000; stroke-width: 0.8; stroke-linejoin: miter; stroke-linecap: square"/>
   </g>
   <g id="patch_11">
    <path d="M 507.109135 257.158895 
L 865.19952 257.158895 
" style="fill: none; stroke: #000000; stroke-width: 0.8; stroke-linejoin: miter; stroke-linecap: square"/>
   </g>
   <g id="patch_12">
    <path d="M 507.109135 7.2 
L 865.19952 7.2 
" style="fill: none; stroke: #000000; stroke-width: 0.8; stroke-linejoin: miter; stroke-linecap: square"/>
   </g>
   <g id="legend_2">
    <g id="patch_13">
     <path d="M 789.641707 44.55625 
L 858.19952 44.55625 
Q 860.19952 44.55625 860.19952 42.55625 
L 860.19952 14.2 
Q 860.19952 12.2 858.19952 12.2 
L 789.641707 12.2 
Q 787.641707 12.2 787.641707 14.2 
L 787.641707 42.55625 
Q 787.641707 44.55625 789.641707 44.55625 
z
" style="fill: #ffffff; opacity: 0.8; stroke: #cccccc; stroke-linejoin: miter"/>
    </g>
    <g id="line2d_37">
     <path d="M 791.641707 20.298437 
L 791.641707 20.298437 
L 801.641707 20.298437 
L 801.641707 20.298437 
L 811.641707 20.298437 
" style="fill: none; stroke: #1f77b4; stroke-width: 1.5; stroke-linecap: square"/>
    </g>
    <g id="text_37">
     <!-- pulse:0 -->
     <g transform="translate(819.641707 23.798437) scale(0.1 -0.1)">
      <use xlink:href="#DejaVuSans-70"/>
      <use xlink:href="#DejaVuSans-75" transform="translate(63.476562 0)"/>
      <use xlink:href="#DejaVuSans-6c" transform="translate(126.855469 0)"/>
      <use xlink:href="#DejaVuSans-73" transform="translate(154.638672 0)"/>
      <use xlink:href="#DejaVuSans-65" transform="translate(206.738281 0)"/>
      <use xlink:href="#DejaVuSans-3a" transform="translate(268.261719 0)"/>
      <use xlink:href="#DejaVuSans-30" transform="translate(301.953125 0)"/>
     </g>
    </g>
    <g id="line2d_38">
     <path d="M 791.641707 34.976562 
L 791.641707 34.976562 
L 801.641707 34.976562 
L 801.641707 34.976562 
L 811.641707 34.976562 
" style="fill: none; stroke: #ff7f0e; stroke-width: 1.5; stroke-linecap: square"/>
    </g>
    <g id="text_38">
     <!-- pulse:1 -->
     <g transform="translate(819.641707 38.476562) scale(0.1 -0.1)">
      <use xlink:href="#DejaVuSans-70"/>
      <use xlink:href="#DejaVuSans-75" transform="translate(63.476562 0)"/>
      <use xlink:href="#DejaVuSans-6c" transform="translate(126.855469 0)"/>
      <use xlink:href="#DejaVuSans-73" transform="translate(154.638672 0)"/>
      <use xlink:href="#DejaVuSans-65" transform="translate(206.738281 0)"/>
      <use xlink:href="#DejaVuSans-3a" transform="translate(268.261719 0)"/>
      <use xlink:href="#DejaVuSans-31" transform="translate(301.953125 0)"/>
     </g>
    </g>
   </g>
  </g>
 </g>
 <defs>
  <clipPath id="p692892c163">
   <rect x="53.328125" y="7.2" width="358.090385" height="249.958895"/>
  </clipPath>
  <clipPath id="p82227308dd">
   <rect x="507.109135" y="7.2" width="358.090385" height="249.958895"/>
  </clipPath>
 </defs>
</svg>
