<?xml version="1.0" encoding="utf-8" standalone="no"?>
<!DOCTYPE svg PUBLIC "-//W3C//DTD SVG 1.1//EN"
  "http://www.w3.org/Graphics/SVG/1.1/DTD/svg11.dtd">
<svg xmlns:xlink="http://www.w3.org/1999/xlink" width="388.965625pt" height="268.200625pt" viewBox="0 0 388.965625 268.200625" xmlns="http://www.w3.org/2000/svg" version="1.1">
 <metadata>
  <rdf:RDF xmlns:dc="http://purl.org/dc/elements/1.1/" xmlns:cc="http://creativecommons.org/ns#" xmlns:rdf="http://www.w3.org/1999/02/22-rdf-syntax-ns#">
   <cc:Work>
    <dc:type rdf:resource="http://purl.org/dc/dcmitype/StillImage"/>
    <dc:date>2025-11-13T11:12:06.856304</dc:date>
    <dc:format>image/svg+xml</dc:format>
    <dc:creator>
     <cc:Agent>
      <dc:title>Matplotlib v3.10.7, https://matplotlib.org/</dc:title>
     </cc:Agent>
    </dc:creator>
   </cc:Work>
  </rdf:RDF>
 </metadata>
 <defs>
  <style type="text/css">*{stroke-linejoin: round; stroke-linecap: butt}</style>
 </defs>
 <g id="figure_1">
  <g id="patch_1">
   <path d="M 0 268.200625 
L 388.965625 268.200625 
L 388.965625 0 
L 0 0 
z
" style="fill: #ffffff"/>
  </g>
  <g id="axes_1">
   <g id="patch_2">
    <path d="M 46.965625 228.96 
L 381.765625 228.96 
L 381.765625 7.2 
L 46.965625 7.2 
z
" style="fill: #ffffff"/>
   </g>
   <g id="matplotlib.axis_1">
    <g id="xtick_1">
     <g id="line2d_1">
      <defs>
       <path id="m4365b6e82e" d="M 0 0 
L 0 3.5 
" style="stroke: #000000; stroke-width: 0.8"/>
      </defs>
      <g>
       <use xlink:href="#m4365b6e82e" x="70.666234" y="228.96" style="stroke: #000000; stroke-width: 0.8"/>
      </g>
     </g>
     <g id="text_1">
      <!-- 1.0 -->
      <g transform="translate(62.714671 243.558437) scale(0.1 -0.1)">
       <defs>
        <path id="DejaVuSans-31" d="M 794 531 
L 1825 531 
L 1825 4091 
L 703 3866 
L 703 4441 
L 1819 4666 
L 2450 4666 
L 2450 531 
L 3481 531 
L 3481 0 
L 794 0 
L 794 531 
z
" transform="scale(0.015625)"/>
        <path id="DejaVuSans-2e" d="M 684 794 
L 1344 794 
L 1344 0 
L 684 0 
L 684 794 
z
" transform="scale(0.015625)"/>
        <path id="DejaVuSans-30" d="M 2034 4250 
Q 1547 4250 1301 3770 
Q 1056 3291 1056 2328 
Q 1056 1369 1301 889 
Q 1547 409 2034 409 
Q 2525 409 2770 889 
Q 3016 1369 3016 2328 
Q 3016 3291 2770 3770 
Q 2525 4250 2034 4250 
z
M 2034 4750 
Q 2819 4750 3233 4129 
Q 3647 3509 3647 2328 
Q 3647 1150 3233 529 
Q 2819 -91 2034 -91 
Q 1250 -91 836 529 
Q 422 1150 422 2328 
Q 422 3509 836 4129 
Q 1250 4750 2034 4750 
z
" transform="scale(0.015625)"/>
       </defs>
       <use xlink:href="#DejaVuSans-31"/>
       <use xlink:href="#DejaVuSans-2e" transform="translate(63.623047 0)"/>
       <use xlink:href="#DejaVuSans-30" transform="translate(95.410156 0)"/>
      </g>
     </g>
    </g>
    <g id="xtick_2">
     <g id="line2d_2">
      <g>
       <use xlink:href="#m4365b6e82e" x="112.84197" y="228.96" style="stroke: #000000; stroke-width: 0.8"/>
      </g>
     </g>
     <g id="text_2">
      <!-- 1.5 -->
      <g transform="translate(104.890407 243.558437) scale(0.1 -0.1)">
       <defs>
        <path id="DejaVuSans-35" d="M 691 4666 
L 3169 4666 
L 3169 4134 
L 1269 4134 
L 1269 2991 
Q 1406 3038 1543 3061 
Q 1681 3084 1819 3084 
Q 2600 3084 3056 2656 
Q 3513 2228 3513 1497 
Q 3513 744 3044 326 
Q 2575 -91 1722 -91 
Q 1428 -91 1123 -41 
Q 819 9 494 109 
L 494 744 
Q 775 591 1075 516 
Q 1375 441 1709 441 
Q 2250 441 2565 725 
Q 2881 1009 2881 1497 
Q 2881 1984 2565 2268 
Q 2250 2553 1709 2553 
Q 1456 2553 1204 2497 
Q 953 2441 691 2322 
L 691 4666 
z
" transform="scale(0.015625)"/>
       </defs>
       <use xlink:href="#DejaVuSans-31"/>
       <use xlink:href="#DejaVuSans-2e" transform="translate(63.623047 0)"/>
       <use xlink:href="#DejaVuSans-35" transform="translate(95.410156 0)"/>
      </g>
     </g>
    </g>
    <g id="xtick_3">
     <g id="line2d_3">
      <g>
       <use xlink:href="#m4365b6e82e" x="155.017705" y="228.96" style="stroke: #000000; stroke-width: 0.8"/>
      </g>
     </g>
     <g id="text_3">
      <!-- 2.0 -->
      <g transform="translate(147.066143 243.558437) scale(0.1 -0.1)">
       <defs>
        <path id="DejaVuSans-32" d="M 1228 531 
L 3431 531 
L 3431 0 
L 469 0 
L 469 531 
Q 828 903 1448 1529 
Q 2069 2156 2228 2338 
Q 2531 2678 2651 2914 
Q 2772 3150 2772 3378 
Q 2772 3750 2511 3984 
Q 2250 4219 1831 4219 
Q 1534 4219 1204 4116 
Q 875 4013 500 3803 
L 500 4441 
Q 881 4594 1212 4672 
Q 1544 4750 1819 4750 
Q 2544 4750 2975 4387 
Q 3406 4025 3406 3419 
Q 3406 3131 3298 2873 
Q 3191 2616 2906 2266 
Q 2828 2175 2409 1742 
Q 1991 1309 1228 531 
z
" transform="scale(0.015625)"/>
       </defs>
       <use xlink:href="#DejaVuSans-32"/>
       <use xlink:href="#DejaVuSans-2e" transform="translate(63.623047 0)"/>
       <use xlink:href="#DejaVuSans-30" transform="translate(95.410156 0)"/>
      </g>
     </g>
    </g>
    <g id="xtick_4">
     <g id="line2d_4">
      <g>
       <use xlink:href="#m4365b6e82e" x="197.193441" y="228.96" style="stroke: #000000; stroke-width: 0.8"/>
      </g>
     </g>
     <g id="text_4">
      <!-- 2.5 -->
      <g transform="translate(189.241878 243.558437) scale(0.1 -0.1)">
       <use xlink:href="#DejaVuSans-32"/>
       <use xlink:href="#DejaVuSans-2e" transform="translate(63.623047 0)"/>
       <use xlink:href="#DejaVuSans-35" transform="translate(95.410156 0)"/>
      </g>
     </g>
    </g>
    <g id="xtick_5">
     <g id="line2d_5">
      <g>
       <use xlink:href="#m4365b6e82e" x="239.369176" y="228.96" style="stroke: #000000; stroke-width: 0.8"/>
      </g>
     </g>
     <g id="text_5">
      <!-- 3.0 -->
      <g transform="translate(231.417614 243.558437) scale(0.1 -0.1)">
       <defs>
        <path id="DejaVuSans-33" d="M 2597 2516 
Q 3050 2419 3304 2112 
Q 3559 1806 3559 1356 
Q 3559 666 3084 287 
Q 2609 -91 1734 -91 
Q 1441 -91 1130 -33 
Q 819 25 488 141 
L 488 750 
Q 750 597 1062 519 
Q 1375 441 1716 441 
Q 2309 441 2620 675 
Q 2931 909 2931 1356 
Q 2931 1769 2642 2001 
Q 2353 2234 1838 2234 
L 1294 2234 
L 1294 2753 
L 1863 2753 
Q 2328 2753 2575 2939 
Q 2822 3125 2822 3475 
Q 2822 3834 2567 4026 
Q 2313 4219 1838 4219 
Q 1578 4219 1281 4162 
Q 984 4106 628 3988 
L 628 4550 
Q 988 4650 1302 4700 
Q 1616 4750 1894 4750 
Q 2613 4750 3031 4423 
Q 3450 4097 3450 3541 
Q 3450 3153 3228 2886 
Q 3006 2619 2597 2516 
z
" transform="scale(0.015625)"/>
       </defs>
       <use xlink:href="#DejaVuSans-33"/>
       <use xlink:href="#DejaVuSans-2e" transform="translate(63.623047 0)"/>
       <use xlink:href="#DejaVuSans-30" transform="translate(95.410156 0)"/>
      </g>
     </g>
    </g>
    <g id="xtick_6">
     <g id="line2d_6">
      <g>
       <use xlink:href="#m4365b6e82e" x="281.544912" y="228.96" style="stroke: #000000; stroke-width: 0.8"/>
      </g>
     </g>
     <g id="text_6">
      <!-- 3.5 -->
      <g transform="translate(273.59335 243.558437) scale(0.1 -0.1)">
       <use xlink:href="#DejaVuSans-33"/>
       <use xlink:href="#DejaVuSans-2e" transform="translate(63.623047 0)"/>
       <use xlink:href="#DejaVuSans-35" transform="translate(95.410156 0)"/>
      </g>
     </g>
    </g>
    <g id="xtick_7">
     <g id="line2d_7">
      <g>
       <use xlink:href="#m4365b6e82e" x="323.720648" y="228.96" style="stroke: #000000; stroke-width: 0.8"/>
      </g>
     </g>
     <g id="text_7">
      <!-- 4.0 -->
      <g transform="translate(315.769085 243.558437) scale(0.1 -0.1)">
       <defs>
        <path id="DejaVuSans-34" d="M 2419 4116 
L 825 1625 
L 2419 1625 
L 2419 4116 
z
M 2253 4666 
L 3047 4666 
L 3047 1625 
L 3713 1625 
L 3713 1100 
L 3047 1100 
L 3047 0 
L 2419 0 
L 2419 1100 
L 313 1100 
L 313 1709 
L 2253 4666 
z
" transform="scale(0.015625)"/>
       </defs>
       <use xlink:href="#DejaVuSans-34"/>
       <use xlink:href="#DejaVuSans-2e" transform="translate(63.623047 0)"/>
       <use xlink:href="#DejaVuSans-30" transform="translate(95.410156 0)"/>
      </g>
     </g>
    </g>
    <g id="xtick_8">
     <g id="line2d_8">
      <g>
       <use xlink:href="#m4365b6e82e" x="365.896383" y="228.96" style="stroke: #000000; stroke-width: 0.8"/>
      </g>
     </g>
     <g id="text_8">
      <!-- 4.5 -->
      <g transform="translate(357.944821 243.558437) scale(0.1 -0.1)">
       <use xlink:href="#DejaVuSans-34"/>
       <use xlink:href="#DejaVuSans-2e" transform="translate(63.623047 0)"/>
       <use xlink:href="#DejaVuSans-35" transform="translate(95.410156 0)"/>
      </g>
     </g>
    </g>
    <g id="text_9">
     <!-- wavelength [Å] -->
     <g transform="translate(176.328125 258.920937) scale(0.1 -0.1)">
      <defs>
       <path id="DejaVuSans-77" d="M 269 3500 
L 844 3500 
L 1563 769 
L 2278 3500 
L 2956 3500 
L 3675 769 
L 4391 3500 
L 4966 3500 
L 4050 0 
L 3372 0 
L 2619 2869 
L 1863 0 
L 1184 0 
L 269 3500 
z
" transform="scale(0.015625)"/>
       <path id="DejaVuSans-61" d="M 2194 1759 
Q 1497 1759 1228 1600 
Q 959 1441 959 1056 
Q 959 750 1161 570 
Q 1363 391 1709 391 
Q 2188 391 2477 730 
Q 2766 1069 2766 1631 
L 2766 1759 
L 2194 1759 
z
M 3341 1997 
L 3341 0 
L 2766 0 
L 2766 531 
Q 2569 213 2275 61 
Q 1981 -91 1556 -91 
Q 1019 -91 701 211 
Q 384 513 384 1019 
Q 384 1609 779 1909 
Q 1175 2209 1959 2209 
L 2766 2209 
L 2766 2266 
Q 2766 2663 2505 2880 
Q 2244 3097 1772 3097 
Q 1472 3097 1187 3025 
Q 903 2953 641 2809 
L 641 3341 
Q 956 3463 1253 3523 
Q 1550 3584 1831 3584 
Q 2591 3584 2966 3190 
Q 3341 2797 3341 1997 
z
" transform="scale(0.015625)"/>
       <path id="DejaVuSans-76" d="M 191 3500 
L 800 3500 
L 1894 563 
L 2988 3500 
L 3597 3500 
L 2284 0 
L 1503 0 
L 191 3500 
z
" transform="scale(0.015625)"/>
       <path id="DejaVuSans-65" d="M 3597 1894 
L 3597 1613 
L 953 1613 
Q 991 1019 1311 708 
Q 1631 397 2203 397 
Q 2534 397 2845 478 
Q 3156 559 3463 722 
L 3463 178 
Q 3153 47 2828 -22 
Q 2503 -91 2169 -91 
Q 1331 -91 842 396 
Q 353 884 353 1716 
Q 353 2575 817 3079 
Q 1281 3584 2069 3584 
Q 2775 3584 3186 3129 
Q 3597 2675 3597 1894 
z
M 3022 2063 
Q 3016 2534 2758 2815 
Q 2500 3097 2075 3097 
Q 1594 3097 1305 2825 
Q 1016 2553 972 2059 
L 3022 2063 
z
" transform="scale(0.015625)"/>
       <path id="DejaVuSans-6c" d="M 603 4863 
L 1178 4863 
L 1178 0 
L 603 0 
L 603 4863 
z
" transform="scale(0.015625)"/>
       <path id="DejaVuSans-6e" d="M 3513 2113 
L 3513 0 
L 2938 0 
L 2938 2094 
Q 2938 2591 2744 2837 
Q 2550 3084 2163 3084 
Q 1697 3084 1428 2787 
Q 1159 2491 1159 1978 
L 1159 0 
L 581 0 
L 581 3500 
L 1159 3500 
L 1159 2956 
Q 1366 3272 1645 3428 
Q 1925 3584 2291 3584 
Q 2894 3584 3203 3211 
Q 3513 2838 3513 2113 
z
" transform="scale(0.015625)"/>
       <path id="DejaVuSans-67" d="M 2906 1791 
Q 2906 2416 2648 2759 
Q 2391 3103 1925 3103 
Q 1463 3103 1205 2759 
Q 947 2416 947 1791 
Q 947 1169 1205 825 
Q 1463 481 1925 481 
Q 2391 481 2648 825 
Q 2906 1169 2906 1791 
z
M 3481 434 
Q 3481 -459 3084 -895 
Q 2688 -1331 1869 -1331 
Q 1566 -1331 1297 -1286 
Q 1028 -1241 775 -1147 
L 775 -588 
Q 1028 -725 1275 -790 
Q 1522 -856 1778 -856 
Q 2344 -856 2625 -561 
Q 2906 -266 2906 331 
L 2906 616 
Q 2728 306 2450 153 
Q 2172 0 1784 0 
Q 1141 0 747 490 
Q 353 981 353 1791 
Q 353 2603 747 3093 
Q 1141 3584 1784 3584 
Q 2172 3584 2450 3431 
Q 2728 3278 2906 2969 
L 2906 3500 
L 3481 3500 
L 3481 434 
z
" transform="scale(0.015625)"/>
       <path id="DejaVuSans-74" d="M 1172 4494 
L 1172 3500 
L 2356 3500 
L 2356 3053 
L 1172 3053 
L 1172 1153 
Q 1172 725 1289 603 
Q 1406 481 1766 481 
L 2356 481 
L 2356 0 
L 1766 0 
Q 1100 0 847 248 
Q 594 497 594 1153 
L 594 3053 
L 172 3053 
L 172 3500 
L 594 3500 
L 594 4494 
L 1172 4494 
z
" transform="scale(0.015625)"/>
       <path id="DejaVuSans-68" d="M 3513 2113 
L 3513 0 
L 2938 0 
L 2938 2094 
Q 2938 2591 2744 2837 
Q 2550 3084 2163 3084 
Q 1697 3084 1428 2787 
Q 1159 2491 1159 1978 
L 1159 0 
L 581 0 
L 581 4863 
L 1159 4863 
L 1159 2956 
Q 1366 3272 1645 3428 
Q 1925 3584 2291 3584 
Q 2894 3584 3203 3211 
Q 3513 2838 3513 2113 
z
" transform="scale(0.015625)"/>
       <path id="DejaVuSans-20" transform="scale(0.015625)"/>
       <path id="DejaVuSans-5b" d="M 550 4863 
L 1875 4863 
L 1875 4416 
L 1125 4416 
L 1125 -397 
L 1875 -397 
L 1875 -844 
L 550 -844 
L 550 4863 
z
" transform="scale(0.015625)"/>
       <path id="DejaVuSans-c5" d="M 2663 5081 
Q 2663 5278 2523 5417 
Q 2384 5556 2188 5556 
Q 1988 5556 1852 5420 
Q 1716 5284 1716 5081 
Q 1716 4884 1853 4746 
Q 1991 4609 2188 4609 
Q 2384 4609 2523 4746 
Q 2663 4884 2663 5081 
z
M 2188 4044 
L 1338 1722 
L 3041 1722 
L 2188 4044 
z
M 1716 4366 
Q 1525 4494 1428 4673 
Q 1331 4853 1331 5081 
Q 1331 5441 1579 5691 
Q 1828 5941 2188 5941 
Q 2544 5941 2795 5689 
Q 3047 5438 3047 5081 
Q 3047 4863 2948 4678 
Q 2850 4494 2663 4366 
L 4325 0 
L 3669 0 
L 3244 1197 
L 1141 1197 
L 716 0 
L 50 0 
L 1716 4366 
z
" transform="scale(0.015625)"/>
       <path id="DejaVuSans-5d" d="M 1947 4863 
L 1947 -844 
L 622 -844 
L 622 -397 
L 1369 -397 
L 1369 4416 
L 622 4416 
L 622 4863 
L 1947 4863 
z
" transform="scale(0.015625)"/>
      </defs>
      <use xlink:href="#DejaVuSans-77"/>
      <use xlink:href="#DejaVuSans-61" transform="translate(81.787109 0)"/>
      <use xlink:href="#DejaVuSans-76" transform="translate(143.066406 0)"/>
      <use xlink:href="#DejaVuSans-65" transform="translate(202.246094 0)"/>
      <use xlink:href="#DejaVuSans-6c" transform="translate(263.769531 0)"/>
      <use xlink:href="#DejaVuSans-65" transform="translate(291.552734 0)"/>
      <use xlink:href="#DejaVuSans-6e" transform="translate(353.076172 0)"/>
      <use xlink:href="#DejaVuSans-67" transform="translate(416.455078 0)"/>
      <use xlink:href="#DejaVuSans-74" transform="translate(479.931641 0)"/>
      <use xlink:href="#DejaVuSans-68" transform="translate(519.140625 0)"/>
      <use xlink:href="#DejaVuSans-20" transform="translate(582.519531 0)"/>
      <use xlink:href="#DejaVuSans-5b" transform="translate(614.306641 0)"/>
      <use xlink:href="#DejaVuSans-c5" transform="translate(653.320312 0)"/>
      <use xlink:href="#DejaVuSans-5d" transform="translate(721.728516 0)"/>
     </g>
    </g>
   </g>
   <g id="matplotlib.axis_2">
    <g id="ytick_1">
     <g id="line2d_9">
      <defs>
       <path id="m55dea9cc11" d="M 0 0 
L -3.5 0 
" style="stroke: #000000; stroke-width: 0.8"/>
      </defs>
      <g>
       <use xlink:href="#m55dea9cc11" x="46.965625" y="218.88" style="stroke: #000000; stroke-width: 0.8"/>
      </g>
     </g>
     <g id="text_10">
      <!-- 0 -->
      <g transform="translate(33.603125 222.679219) scale(0.1 -0.1)">
       <use xlink:href="#DejaVuSans-30"/>
      </g>
     </g>
    </g>
    <g id="ytick_2">
     <g id="line2d_10">
      <g>
       <use xlink:href="#m55dea9cc11" x="46.965625" y="186.416232" style="stroke: #000000; stroke-width: 0.8"/>
      </g>
     </g>
     <g id="text_11">
      <!-- 100 -->
      <g transform="translate(20.878125 190.215451) scale(0.1 -0.1)">
       <use xlink:href="#DejaVuSans-31"/>
       <use xlink:href="#DejaVuSans-30" transform="translate(63.623047 0)"/>
       <use xlink:href="#DejaVuSans-30" transform="translate(127.246094 0)"/>
      </g>
     </g>
    </g>
    <g id="ytick_3">
     <g id="line2d_11">
      <g>
       <use xlink:href="#m55dea9cc11" x="46.965625" y="153.952464" style="stroke: #000000; stroke-width: 0.8"/>
      </g>
     </g>
     <g id="text_12">
      <!-- 200 -->
      <g transform="translate(20.878125 157.751683) scale(0.1 -0.1)">
       <use xlink:href="#DejaVuSans-32"/>
       <use xlink:href="#DejaVuSans-30" transform="translate(63.623047 0)"/>
       <use xlink:href="#DejaVuSans-30" transform="translate(127.246094 0)"/>
      </g>
     </g>
    </g>
    <g id="ytick_4">
     <g id="line2d_12">
      <g>
       <use xlink:href="#m55dea9cc11" x="46.965625" y="121.488696" style="stroke: #000000; stroke-width: 0.8"/>
      </g>
     </g>
     <g id="text_13">
      <!-- 300 -->
      <g transform="translate(20.878125 125.287914) scale(0.1 -0.1)">
       <use xlink:href="#DejaVuSans-33"/>
       <use xlink:href="#DejaVuSans-30" transform="translate(63.623047 0)"/>
       <use xlink:href="#DejaVuSans-30" transform="translate(127.246094 0)"/>
      </g>
     </g>
    </g>
    <g id="ytick_5">
     <g id="line2d_13">
      <g>
       <use xlink:href="#m55dea9cc11" x="46.965625" y="89.024928" style="stroke: #000000; stroke-width: 0.8"/>
      </g>
     </g>
     <g id="text_14">
      <!-- 400 -->
      <g transform="translate(20.878125 92.824146) scale(0.1 -0.1)">
       <use xlink:href="#DejaVuSans-34"/>
       <use xlink:href="#DejaVuSans-30" transform="translate(63.623047 0)"/>
       <use xlink:href="#DejaVuSans-30" transform="translate(127.246094 0)"/>
      </g>
     </g>
    </g>
    <g id="ytick_6">
     <g id="line2d_14">
      <g>
       <use xlink:href="#m55dea9cc11" x="46.965625" y="56.561159" style="stroke: #000000; stroke-width: 0.8"/>
      </g>
     </g>
     <g id="text_15">
      <!-- 500 -->
      <g transform="translate(20.878125 60.360378) scale(0.1 -0.1)">
       <use xlink:href="#DejaVuSans-35"/>
       <use xlink:href="#DejaVuSans-30" transform="translate(63.623047 0)"/>
       <use xlink:href="#DejaVuSans-30" transform="translate(127.246094 0)"/>
      </g>
     </g>
    </g>
    <g id="ytick_7">
     <g id="line2d_15">
      <g>
       <use xlink:href="#m55dea9cc11" x="46.965625" y="24.097391" style="stroke: #000000; stroke-width: 0.8"/>
      </g>
     </g>
     <g id="text_16">
      <!-- 600 -->
      <g transform="translate(20.878125 27.89661) scale(0.1 -0.1)">
       <defs>
        <path id="DejaVuSans-36" d="M 2113 2584 
Q 1688 2584 1439 2293 
Q 1191 2003 1191 1497 
Q 1191 994 1439 701 
Q 1688 409 2113 409 
Q 2538 409 2786 701 
Q 3034 994 3034 1497 
Q 3034 2003 2786 2293 
Q 2538 2584 2113 2584 
z
M 3366 4563 
L 3366 3988 
Q 3128 4100 2886 4159 
Q 2644 4219 2406 4219 
Q 1781 4219 1451 3797 
Q 1122 3375 1075 2522 
Q 1259 2794 1537 2939 
Q 1816 3084 2150 3084 
Q 2853 3084 3261 2657 
Q 3669 2231 3669 1497 
Q 3669 778 3244 343 
Q 2819 -91 2113 -91 
Q 1303 -91 875 529 
Q 447 1150 447 2328 
Q 447 3434 972 4092 
Q 1497 4750 2381 4750 
Q 2619 4750 2861 4703 
Q 3103 4656 3366 4563 
z
" transform="scale(0.015625)"/>
       </defs>
       <use xlink:href="#DejaVuSans-36"/>
       <use xlink:href="#DejaVuSans-30" transform="translate(63.623047 0)"/>
       <use xlink:href="#DejaVuSans-30" transform="translate(127.246094 0)"/>
      </g>
     </g>
    </g>
    <g id="text_17">
     <!-- [counts] -->
     <g transform="translate(14.798438 138.6925) rotate(-90) scale(0.1 -0.1)">
      <defs>
       <path id="DejaVuSans-63" d="M 3122 3366 
L 3122 2828 
Q 2878 2963 2633 3030 
Q 2388 3097 2138 3097 
Q 1578 3097 1268 2742 
Q 959 2388 959 1747 
Q 959 1106 1268 751 
Q 1578 397 2138 397 
Q 2388 397 2633 464 
Q 2878 531 3122 666 
L 3122 134 
Q 2881 22 2623 -34 
Q 2366 -91 2075 -91 
Q 1284 -91 818 406 
Q 353 903 353 1747 
Q 353 2603 823 3093 
Q 1294 3584 2113 3584 
Q 2378 3584 2631 3529 
Q 2884 3475 3122 3366 
z
" transform="scale(0.015625)"/>
       <path id="DejaVuSans-6f" d="M 1959 3097 
Q 1497 3097 1228 2736 
Q 959 2375 959 1747 
Q 959 1119 1226 758 
Q 1494 397 1959 397 
Q 2419 397 2687 759 
Q 2956 1122 2956 1747 
Q 2956 2369 2687 2733 
Q 2419 3097 1959 3097 
z
M 1959 3584 
Q 2709 3584 3137 3096 
Q 3566 2609 3566 1747 
Q 3566 888 3137 398 
Q 2709 -91 1959 -91 
Q 1206 -91 779 398 
Q 353 888 353 1747 
Q 353 2609 779 3096 
Q 1206 3584 1959 3584 
z
" transform="scale(0.015625)"/>
       <path id="DejaVuSans-75" d="M 544 1381 
L 544 3500 
L 1119 3500 
L 1119 1403 
Q 1119 906 1312 657 
Q 1506 409 1894 409 
Q 2359 409 2629 706 
Q 2900 1003 2900 1516 
L 2900 3500 
L 3475 3500 
L 3475 0 
L 2900 0 
L 2900 538 
Q 2691 219 2414 64 
Q 2138 -91 1772 -91 
Q 1169 -91 856 284 
Q 544 659 544 1381 
z
M 1991 3584 
L 1991 3584 
z
" transform="scale(0.015625)"/>
       <path id="DejaVuSans-73" d="M 2834 3397 
L 2834 2853 
Q 2591 2978 2328 3040 
Q 2066 3103 1784 3103 
Q 1356 3103 1142 2972 
Q 928 2841 928 2578 
Q 928 2378 1081 2264 
Q 1234 2150 1697 2047 
L 1894 2003 
Q 2506 1872 2764 1633 
Q 3022 1394 3022 966 
Q 3022 478 2636 193 
Q 2250 -91 1575 -91 
Q 1294 -91 989 -36 
Q 684 19 347 128 
L 347 722 
Q 666 556 975 473 
Q 1284 391 1588 391 
Q 1994 391 2212 530 
Q 2431 669 2431 922 
Q 2431 1156 2273 1281 
Q 2116 1406 1581 1522 
L 1381 1569 
Q 847 1681 609 1914 
Q 372 2147 372 2553 
Q 372 3047 722 3315 
Q 1072 3584 1716 3584 
Q 2034 3584 2315 3537 
Q 2597 3491 2834 3397 
z
" transform="scale(0.015625)"/>
      </defs>
      <use xlink:href="#DejaVuSans-5b"/>
      <use xlink:href="#DejaVuSans-63" transform="translate(39.013672 0)"/>
      <use xlink:href="#DejaVuSans-6f" transform="translate(93.994141 0)"/>
      <use xlink:href="#DejaVuSans-75" transform="translate(155.175781 0)"/>
      <use xlink:href="#DejaVuSans-6e" transform="translate(218.554688 0)"/>
      <use xlink:href="#DejaVuSans-74" transform="translate(281.933594 0)"/>
      <use xlink:href="#DejaVuSans-73" transform="translate(321.142578 0)"/>
      <use xlink:href="#DejaVuSans-5d" transform="translate(373.242188 0)"/>
     </g>
    </g>
   </g>
   <g id="line2d_16">
    <path d="M 62.946584 210.764058 
L 63.947285 210.764058 
L 63.947285 214.335072 
L 64.947987 214.335072 
L 64.947987 207.842319 
L 65.948688 207.842319 
L 65.948688 193.558261 
L 66.949389 193.558261 
L 66.949389 188.688696 
L 67.950091 188.688696 
L 67.950091 186.74087 
L 68.950792 186.74087 
L 68.950792 190.961159 
L 70.952195 190.961159 
L 70.952195 173.430725 
L 71.952896 173.430725 
L 71.952896 166.288696 
L 72.953597 166.288696 
L 72.953597 167.911884 
L 73.954299 167.911884 
L 73.954299 164.990145 
L 74.955 164.990145 
L 74.955 154.601739 
L 75.955701 154.601739 
L 75.955701 153.952464 
L 76.956403 153.952464 
L 76.956403 145.187246 
L 77.957104 145.187246 
L 77.957104 135.772754 
L 78.957805 135.772754 
L 78.957805 141.291594 
L 79.958507 141.291594 
L 79.958507 127.981449 
L 80.959208 127.981449 
L 80.959208 125.384348 
L 81.959909 125.384348 
L 81.959909 117.593043 
L 82.960611 117.593043 
L 82.960611 119.865507 
L 83.961312 119.865507 
L 83.961312 106.88 
L 84.962013 106.88 
L 84.962013 96.166957 
L 85.962715 96.166957 
L 85.962715 101.361159 
L 86.963416 101.361159 
L 86.963416 112.074203 
L 87.964118 112.074203 
L 87.964118 87.401739 
L 88.964819 87.401739 
L 88.964819 104.607536 
L 89.96552 104.607536 
L 89.96552 96.816232 
L 90.966222 96.816232 
L 90.966222 72.468406 
L 91.966923 72.468406 
L 91.966923 84.155362 
L 92.967624 84.155362 
L 92.967624 78.636522 
L 93.968326 78.636522 
L 93.968326 70.195942 
L 94.969027 70.195942 
L 94.969027 51.366957 
L 95.969728 51.366957 
L 95.969728 70.195942 
L 96.97043 70.195942 
L 96.97043 69.222029 
L 97.971131 69.222029 
L 97.971131 59.482899 
L 98.971832 59.482899 
L 98.971832 55.587246 
L 99.972534 55.587246 
L 99.972534 49.743768 
L 100.973235 49.743768 
L 100.973235 39.68 
L 101.973936 39.68 
L 101.973936 55.911884 
L 102.974638 55.911884 
L 102.974638 45.523478 
L 103.975339 45.523478 
L 103.975339 42.926377 
L 104.97604 42.926377 
L 104.97604 22.474203 
L 105.976742 22.474203 
L 105.976742 41.952464 
L 106.977443 41.952464 
L 106.977443 42.926377 
L 107.978144 42.926377 
L 107.978144 32.213333 
L 108.978846 32.213333 
L 108.978846 39.68 
L 109.979547 39.68 
L 109.979547 22.149565 
L 110.980248 22.149565 
L 110.980248 36.108986 
L 111.98095 36.108986 
L 111.98095 32.213333 
L 112.981651 32.213333 
L 112.981651 23.772754 
L 113.982353 23.772754 
L 113.982353 21.824928 
L 114.983054 21.824928 
L 114.983054 30.914783 
L 115.983755 30.914783 
L 115.983755 25.071304 
L 116.984457 25.071304 
L 116.984457 26.369855 
L 117.985158 26.369855 
L 117.985158 35.135072 
L 118.985859 35.135072 
L 118.985859 38.381449 
L 119.986561 38.381449 
L 119.986561 38.706087 
L 120.987262 38.706087 
L 120.987262 39.030725 
L 121.987963 39.030725 
L 121.987963 27.668406 
L 122.988665 27.668406 
L 122.988665 33.511884 
L 123.989366 33.511884 
L 123.989366 36.433623 
L 124.990067 36.433623 
L 124.990067 39.030725 
L 126.99147 39.030725 
L 126.99147 32.862609 
L 127.992171 32.862609 
L 127.992171 53.314783 
L 128.992873 53.314783 
L 128.992873 40.653913 
L 129.993574 40.653913 
L 129.993574 45.848116 
L 130.994275 45.848116 
L 130.994275 64.352464 
L 131.994977 64.352464 
L 131.994977 47.146667 
L 132.995678 47.146667 
L 132.995678 39.68 
L 133.996379 39.68 
L 133.996379 61.755362 
L 134.997081 61.755362 
L 134.997081 66.30029 
L 135.997782 66.30029 
L 135.997782 29.616232 
L 136.998483 29.616232 
L 136.998483 42.926377 
L 137.999185 42.926377 
L 137.999185 61.755362 
L 138.999886 61.755362 
L 138.999886 73.442319 
L 140.000588 73.442319 
L 140.000588 46.497391 
L 141.001289 46.497391 
L 141.001289 55.911884 
L 142.00199 55.911884 
L 142.00199 52.665507 
L 143.002692 52.665507 
L 143.002692 59.482899 
L 144.003393 59.482899 
L 144.003393 64.677101 
L 145.004094 64.677101 
L 145.004094 58.833623 
L 146.004796 58.833623 
L 146.004796 50.068406 
L 147.005497 50.068406 
L 147.005497 65.651014 
L 148.006198 65.651014 
L 148.006198 48.445217 
L 149.0069 48.445217 
L 149.0069 61.430725 
L 150.007601 61.430725 
L 150.007601 71.81913 
L 151.008302 71.81913 
L 151.008302 65.001739 
L 152.009004 65.001739 
L 152.009004 71.81913 
L 153.009705 71.81913 
L 153.009705 56.236522 
L 154.010406 56.236522 
L 154.010406 51.691594 
L 155.011108 51.691594 
L 155.011108 70.845217 
L 156.011809 70.845217 
L 156.011809 65.326377 
L 157.01251 65.326377 
L 157.01251 64.027826 
L 158.013212 64.027826 
L 158.013212 62.404638 
L 159.013913 62.404638 
L 159.013913 64.027826 
L 160.014614 64.027826 
L 160.014614 75.714783 
L 161.015316 75.714783 
L 161.015316 62.729275 
L 162.016017 62.729275 
L 162.016017 51.691594 
L 163.016719 51.691594 
L 163.016719 65.651014 
L 164.01742 65.651014 
L 164.01742 66.624928 
L 165.018121 66.624928 
L 165.018121 77.013333 
L 166.018823 77.013333 
L 166.018823 70.52058 
L 167.019524 70.52058 
L 167.019524 57.535072 
L 168.020225 57.535072 
L 168.020225 58.184348 
L 169.020927 58.184348 
L 169.020927 91.622029 
L 170.021628 91.622029 
L 170.021628 88.375652 
L 171.022329 88.375652 
L 171.022329 60.132174 
L 172.023031 60.132174 
L 172.023031 83.830725 
L 173.023732 83.830725 
L 173.023732 64.352464 
L 174.024433 64.352464 
L 174.024433 86.427826 
L 175.025135 86.427826 
L 175.025135 104.932174 
L 176.025836 104.932174 
L 176.025836 64.027826 
L 177.026537 64.027826 
L 177.026537 80.584348 
L 178.027239 80.584348 
L 178.027239 94.21913 
L 179.02794 94.21913 
L 179.02794 98.43942 
L 180.028641 98.43942 
L 180.028641 89.674203 
L 181.029343 89.674203 
L 181.029343 91.946667 
L 182.030044 91.946667 
L 182.030044 102.65971 
L 183.030745 102.65971 
L 183.030745 114.346667 
L 184.031447 114.346667 
L 184.031447 110.451014 
L 185.032148 110.451014 
L 185.032148 122.137971 
L 186.032849 122.137971 
L 186.032849 126.682899 
L 187.033551 126.682899 
L 187.033551 120.190145 
L 188.034252 120.190145 
L 188.034252 126.682899 
L 189.034954 126.682899 
L 189.034954 127.656812 
L 190.035655 127.656812 
L 190.035655 135.448116 
L 191.036356 135.448116 
L 191.036356 152.978551 
L 192.037058 152.978551 
L 192.037058 145.187246 
L 193.037759 145.187246 
L 193.037759 149.732174 
L 194.03846 149.732174 
L 194.03846 165.314783 
L 195.039162 165.314783 
L 195.039162 158.822029 
L 196.039863 158.822029 
L 196.039863 167.587246 
L 197.040564 167.587246 
L 197.040564 175.703188 
L 198.041266 175.703188 
L 198.041266 181.222029 
L 199.041967 181.222029 
L 199.041967 178.624928 
L 200.042668 178.624928 
L 200.042668 193.882899 
L 201.04337 193.882899 
L 201.04337 193.558261 
L 202.044071 193.558261 
L 202.044071 187.714783 
L 203.044772 187.714783 
L 203.044772 201.024928 
L 204.045474 201.024928 
L 204.045474 200.70029 
L 205.046175 200.70029 
L 205.046175 199.077101 
L 206.046876 199.077101 
L 206.046876 205.894493 
L 207.047578 205.894493 
L 207.047578 209.790145 
L 208.048279 209.790145 
L 208.048279 211.413333 
L 209.04898 211.413333 
L 209.04898 214.335072 
L 210.049682 214.335072 
L 210.049682 217.581449 
L 211.050383 217.581449 
L 211.050383 217.906087 
L 212.051084 217.906087 
L 212.051084 216.932174 
L 213.051786 216.932174 
L 213.051786 211.737971 
L 214.052487 211.737971 
L 214.052487 202.323478 
L 215.053189 202.323478 
L 215.053189 199.726377 
L 216.05389 199.726377 
L 216.05389 205.894493 
L 217.054591 205.894493 
L 217.054591 200.051014 
L 218.055293 200.051014 
L 218.055293 189.987246 
L 219.055994 189.987246 
L 219.055994 186.416232 
L 220.056695 186.416232 
L 220.056695 180.248116 
L 222.058098 180.248116 
L 222.058098 183.169855 
L 223.058799 183.169855 
L 223.058799 177.001739 
L 224.059501 177.001739 
L 224.059501 166.937971 
L 225.060202 166.937971 
L 225.060202 166.288696 
L 226.060903 166.288696 
L 226.060903 164.665507 
L 227.061605 164.665507 
L 227.061605 162.068406 
L 228.062306 162.068406 
L 228.062306 155.575652 
L 229.063007 155.575652 
L 229.063007 149.732174 
L 230.063709 149.732174 
L 230.063709 153.952464 
L 231.06441 153.952464 
L 231.06441 151.355362 
L 232.065111 151.355362 
L 232.065111 144.213333 
L 233.065813 144.213333 
L 233.065813 139.993043 
L 234.066514 139.993043 
L 234.066514 149.732174 
L 235.067215 149.732174 
L 235.067215 135.772754 
L 236.067917 135.772754 
L 236.067917 143.564058 
L 237.068618 143.564058 
L 237.068618 133.824928 
L 238.069319 133.824928 
L 238.069319 126.682899 
L 239.070021 126.682899 
L 239.070021 111.749565 
L 240.070722 111.749565 
L 240.070722 117.917681 
L 241.071424 117.917681 
L 241.071424 124.735072 
L 242.072125 124.735072 
L 242.072125 122.137971 
L 243.072826 122.137971 
L 243.072826 114.346667 
L 244.073528 114.346667 
L 244.073528 108.178551 
L 245.074229 108.178551 
L 245.074229 117.593043 
L 246.07493 117.593043 
L 246.07493 106.555362 
L 247.075632 106.555362 
L 247.075632 114.022029 
L 248.076333 114.022029 
L 248.076333 105.906087 
L 249.077034 105.906087 
L 249.077034 117.917681 
L 250.077736 117.917681 
L 250.077736 104.932174 
L 251.078437 104.932174 
L 251.078437 100.062609 
L 252.079138 100.062609 
L 252.079138 107.853913 
L 253.07984 107.853913 
L 253.07984 99.413333 
L 254.080541 99.413333 
L 254.080541 124.085797 
L 255.081242 124.085797 
L 255.081242 80.25971 
L 256.081944 80.25971 
L 256.081944 90.648116 
L 257.082645 90.648116 
L 257.082645 77.013333 
L 258.083346 77.013333 
L 258.083346 90.648116 
L 259.084048 90.648116 
L 259.084048 74.74087 
L 260.084749 74.74087 
L 260.084749 62.08 
L 261.08545 62.08 
L 261.08545 81.558261 
L 262.086152 81.558261 
L 262.086152 84.155362 
L 263.086853 84.155362 
L 263.086853 99.088696 
L 264.087554 99.088696 
L 264.087554 81.882899 
L 265.088256 81.882899 
L 265.088256 71.81913 
L 266.088957 71.81913 
L 266.088957 94.543768 
L 267.089659 94.543768 
L 267.089659 95.193043 
L 268.09036 95.193043 
L 268.09036 82.532174 
L 269.091061 82.532174 
L 269.091061 89.349565 
L 270.091763 89.349565 
L 270.091763 88.70029 
L 271.092464 88.70029 
L 271.092464 101.685797 
L 272.093165 101.685797 
L 272.093165 98.764058 
L 273.093867 98.764058 
L 273.093867 93.894493 
L 274.094568 93.894493 
L 274.094568 92.595942 
L 275.095269 92.595942 
L 275.095269 103.633623 
L 276.095971 103.633623 
L 276.095971 115.969855 
L 277.096672 115.969855 
L 277.096672 96.816232 
L 278.097373 96.816232 
L 278.097373 105.581449 
L 279.098075 105.581449 
L 279.098075 102.335072 
L 280.098776 102.335072 
L 280.098776 108.503188 
L 281.099477 108.503188 
L 281.099477 110.126377 
L 282.100179 110.126377 
L 282.100179 105.581449 
L 283.10088 105.581449 
L 283.10088 114.671304 
L 284.101581 114.671304 
L 284.101581 122.137971 
L 285.102283 122.137971 
L 285.102283 109.801739 
L 286.102984 109.801739 
L 286.102984 113.372754 
L 287.103685 113.372754 
L 287.103685 111.749565 
L 288.104387 111.749565 
L 288.104387 131.552464 
L 289.105088 131.552464 
L 289.105088 116.294493 
L 290.105789 116.294493 
L 290.105789 122.787246 
L 291.106491 122.787246 
L 291.106491 131.227826 
L 292.107192 131.227826 
L 292.107192 114.995942 
L 293.107894 114.995942 
L 293.107894 122.462609 
L 294.108595 122.462609 
L 294.108595 129.28 
L 295.109296 129.28 
L 295.109296 132.201739 
L 296.109998 132.201739 
L 296.109998 118.891594 
L 297.110699 118.891594 
L 297.110699 121.813333 
L 298.1114 121.813333 
L 298.1114 132.201739 
L 299.112102 132.201739 
L 299.112102 118.242319 
L 300.112803 118.242319 
L 300.112803 131.877101 
L 301.113504 131.877101 
L 301.113504 122.462609 
L 302.114206 122.462609 
L 302.114206 129.604638 
L 303.114907 129.604638 
L 303.114907 134.474203 
L 304.115608 134.474203 
L 304.115608 135.772754 
L 305.11631 135.772754 
L 305.11631 143.564058 
L 306.117011 143.564058 
L 306.117011 129.929275 
L 307.117712 129.929275 
L 307.117712 127.981449 
L 308.118414 127.981449 
L 308.118414 139.993043 
L 309.119115 139.993043 
L 309.119115 136.422029 
L 310.119816 136.422029 
L 310.119816 138.045217 
L 311.120518 138.045217 
L 311.120518 129.604638 
L 312.121219 129.604638 
L 312.121219 140.642319 
L 313.12192 140.642319 
L 313.12192 153.952464 
L 314.122622 153.952464 
L 314.122622 141.616232 
L 315.123323 141.616232 
L 315.123323 157.848116 
L 316.124024 157.848116 
L 316.124024 141.94087 
L 317.124726 141.94087 
L 317.124726 143.564058 
L 318.125427 143.564058 
L 318.125427 145.511884 
L 319.126129 145.511884 
L 319.126129 151.355362 
L 320.12683 151.355362 
L 320.12683 151.68 
L 321.127531 151.68 
L 321.127531 154.601739 
L 322.128233 154.601739 
L 322.128233 159.795942 
L 323.128934 159.795942 
L 323.128934 161.743768 
L 324.129635 161.743768 
L 324.129635 149.407536 
L 325.130337 149.407536 
L 325.130337 156.549565 
L 326.131038 156.549565 
L 326.131038 155.575652 
L 327.131739 155.575652 
L 327.131739 167.587246 
L 328.132441 167.587246 
L 328.132441 167.262609 
L 329.133142 167.262609 
L 329.133142 164.34087 
L 330.133843 164.34087 
L 330.133843 168.561159 
L 331.134545 168.561159 
L 331.134545 172.132174 
L 332.135246 172.132174 
L 332.135246 171.482899 
L 333.135947 171.482899 
L 333.135947 172.132174 
L 334.136649 172.132174 
L 334.136649 181.222029 
L 335.13735 181.222029 
L 335.13735 180.572754 
L 336.138051 180.572754 
L 336.138051 174.404638 
L 337.138753 174.404638 
L 337.138753 187.390145 
L 338.139454 187.390145 
L 338.139454 178.624928 
L 339.140155 178.624928 
L 339.140155 187.065507 
L 340.140857 187.065507 
L 340.140857 185.766957 
L 341.141558 185.766957 
L 341.141558 190.636522 
L 342.142259 190.636522 
L 342.142259 197.129275 
L 343.142961 197.129275 
L 343.142961 184.143768 
L 344.143662 184.143768 
L 344.143662 195.830725 
L 345.144364 195.830725 
L 345.144364 200.70029 
L 346.145065 200.70029 
L 346.145065 202.972754 
L 347.145766 202.972754 
L 347.145766 194.856812 
L 348.146468 194.856812 
L 348.146468 201.998841 
L 349.147169 201.998841 
L 349.147169 203.946667 
L 350.14787 203.946667 
L 350.14787 206.21913 
L 351.148572 206.21913 
L 351.148572 209.790145 
L 352.149273 209.790145 
L 352.149273 206.21913 
L 353.149974 206.21913 
L 353.149974 205.894493 
L 354.150676 205.894493 
L 354.150676 211.413333 
L 355.151377 211.413333 
L 355.151377 212.711884 
L 356.152078 212.711884 
L 356.152078 213.036522 
L 357.15278 213.036522 
L 357.15278 213.685797 
L 358.153481 213.685797 
L 358.153481 214.335072 
L 359.154182 214.335072 
L 359.154182 216.282899 
L 360.154884 216.282899 
L 360.154884 215.958261 
L 361.155585 215.958261 
L 361.155585 217.581449 
L 362.156286 217.581449 
L 362.156286 214.65971 
L 363.156988 214.65971 
L 363.156988 214.65971 
" clip-path="url(#pffe92aaff8)" style="fill: none; stroke: #1f77b4; stroke-width: 1.5; stroke-linecap: square"/>
   </g>
   <g id="line2d_17">
    <path d="M 62.183807 215.308986 
L 63.198352 215.308986 
L 63.198352 212.387246 
L 64.212898 212.387246 
L 64.212898 213.036522 
L 65.227443 213.036522 
L 65.227443 201.674203 
L 66.241989 201.674203 
L 66.241989 192.908986 
L 67.256534 192.908986 
L 67.256534 189.337971 
L 68.27108 189.337971 
L 68.27108 182.195942 
L 69.285625 182.195942 
L 69.285625 189.987246 
L 70.30017 189.987246 
L 70.30017 184.468406 
L 71.314716 184.468406 
L 71.314716 172.781449 
L 72.329261 172.781449 
L 72.329261 165.63942 
L 73.343807 165.63942 
L 73.343807 167.911884 
L 74.358352 167.911884 
L 74.358352 157.848116 
L 75.372898 157.848116 
L 75.372898 153.627826 
L 76.387443 153.627826 
L 76.387443 149.407536 
L 77.401989 149.407536 
L 77.401989 138.694493 
L 78.416534 138.694493 
L 78.416534 137.72058 
L 79.43108 137.72058 
L 79.43108 132.526377 
L 80.445625 132.526377 
L 80.445625 126.358261 
L 81.46017 126.358261 
L 81.46017 122.462609 
L 82.474716 122.462609 
L 82.474716 119.54087 
L 83.489261 119.54087 
L 83.489261 111.749565 
L 84.503807 111.749565 
L 84.503807 94.21913 
L 85.518352 94.21913 
L 85.518352 99.737971 
L 86.532898 99.737971 
L 86.532898 109.477101 
L 87.547443 109.477101 
L 87.547443 90.972754 
L 88.561989 90.972754 
L 88.561989 93.569855 
L 89.576534 93.569855 
L 89.576534 95.842319 
L 90.59108 95.842319 
L 90.59108 82.207536 
L 91.605625 82.207536 
L 91.605625 81.558261 
L 92.62017 81.558261 
L 92.62017 77.987246 
L 93.634716 77.987246 
L 93.634716 75.714783 
L 94.649261 75.714783 
L 94.649261 49.743768 
L 95.663807 49.743768 
L 95.663807 63.053913 
L 96.678352 63.053913 
L 96.678352 68.248116 
L 97.692898 68.248116 
L 97.692898 62.08 
L 98.707443 62.08 
L 98.707443 46.497391 
L 99.721989 46.497391 
L 99.721989 51.691594 
L 100.736534 51.691594 
L 100.736534 31.23942 
L 101.75108 31.23942 
L 101.75108 54.613333 
L 102.765625 54.613333 
L 102.765625 57.535072 
L 103.78017 57.535072 
L 103.78017 21.824928 
L 104.794716 21.824928 
L 104.794716 48.12058 
L 105.809261 48.12058 
L 105.809261 25.72058 
L 106.823807 25.72058 
L 106.823807 31.888696 
L 107.838352 31.888696 
L 107.838352 30.265507 
L 108.852898 30.265507 
L 108.852898 41.952464 
L 109.867443 41.952464 
L 109.867443 23.772754 
L 110.881989 23.772754 
L 110.881989 30.590145 
L 112.91108 30.590145 
L 112.91108 26.045217 
L 113.925625 26.045217 
L 113.925625 17.28 
L 114.94017 17.28 
L 114.94017 23.772754 
L 115.954716 23.772754 
L 115.954716 24.746667 
L 116.969261 24.746667 
L 116.969261 29.616232 
L 117.983807 29.616232 
L 117.983807 29.94087 
L 118.998352 29.94087 
L 118.998352 33.187246 
L 120.012898 33.187246 
L 120.012898 42.926377 
L 121.027443 42.926377 
L 121.027443 23.123478 
L 122.041989 23.123478 
L 122.041989 35.135072 
L 123.056534 35.135072 
L 123.056534 30.590145 
L 124.07108 30.590145 
L 124.07108 27.993043 
L 125.085625 27.993043 
L 125.085625 40.329275 
L 126.10017 40.329275 
L 126.10017 31.23942 
L 127.114716 31.23942 
L 127.114716 41.303188 
L 128.129261 41.303188 
L 128.129261 35.784348 
L 129.143807 35.784348 
L 129.143807 42.601739 
L 130.158352 42.601739 
L 130.158352 51.366957 
L 131.172898 51.366957 
L 131.172898 57.535072 
L 132.187443 57.535072 
L 132.187443 42.601739 
L 133.201989 42.601739 
L 133.201989 47.471304 
L 134.216534 47.471304 
L 134.216534 54.288696 
L 135.23108 54.288696 
L 135.23108 51.691594 
L 136.245625 51.691594 
L 136.245625 43.575652 
L 137.26017 43.575652 
L 137.26017 44.874203 
L 138.274716 44.874203 
L 138.274716 55.911884 
L 139.289261 55.911884 
L 139.289261 65.001739 
L 140.303807 65.001739 
L 140.303807 48.769855 
L 141.318352 48.769855 
L 141.318352 52.016232 
L 142.332898 52.016232 
L 142.332898 46.822029 
L 143.347443 46.822029 
L 143.347443 61.430725 
L 144.361989 61.430725 
L 144.361989 57.210435 
L 145.376534 57.210435 
L 145.376534 59.158261 
L 146.39108 59.158261 
L 146.39108 54.937971 
L 147.405625 54.937971 
L 147.405625 59.807536 
L 148.42017 59.807536 
L 148.42017 50.068406 
L 149.434716 50.068406 
L 149.434716 54.937971 
L 150.449261 54.937971 
L 150.449261 77.662609 
L 151.463807 77.662609 
L 151.463807 63.053913 
L 152.478352 63.053913 
L 152.478352 56.236522 
L 153.492898 56.236522 
L 153.492898 54.288696 
L 154.507443 54.288696 
L 154.507443 58.833623 
L 155.521989 58.833623 
L 155.521989 66.949565 
L 156.536534 66.949565 
L 156.536534 62.729275 
L 157.55108 62.729275 
L 157.55108 55.587246 
L 158.565625 55.587246 
L 158.565625 73.766957 
L 159.58017 73.766957 
L 159.58017 64.677101 
L 160.594716 64.677101 
L 160.594716 63.703188 
L 161.609261 63.703188 
L 161.609261 57.85971 
L 162.623807 57.85971 
L 162.623807 65.001739 
L 163.638352 65.001739 
L 163.638352 59.482899 
L 164.652898 59.482899 
L 164.652898 67.923478 
L 165.667443 67.923478 
L 165.667443 63.053913 
L 167.696534 63.053913 
L 167.696534 64.352464 
L 168.71108 64.352464 
L 168.71108 73.117681 
L 169.725625 73.117681 
L 169.725625 85.778551 
L 170.74017 85.778551 
L 170.74017 76.03942 
L 171.754716 76.03942 
L 171.754716 64.352464 
L 172.769261 64.352464 
L 172.769261 74.416232 
L 173.783807 74.416232 
L 173.783807 76.03942 
L 174.798352 76.03942 
L 174.798352 91.622029 
L 175.812898 91.622029 
L 175.812898 79.610435 
L 176.827443 79.610435 
L 176.827443 76.03942 
L 177.841989 76.03942 
L 177.841989 92.92058 
L 178.856534 92.92058 
L 178.856534 93.245217 
L 179.87108 93.245217 
L 179.87108 81.233623 
L 180.885625 81.233623 
L 180.885625 101.036522 
L 181.90017 101.036522 
L 181.90017 99.088696 
L 182.914716 99.088696 
L 182.914716 108.178551 
L 183.929261 108.178551 
L 183.929261 112.398841 
L 184.943807 112.398841 
L 184.943807 118.891594 
L 185.958352 118.891594 
L 185.958352 116.61913 
L 186.972898 116.61913 
L 186.972898 121.813333 
L 187.987443 121.813333 
L 187.987443 127.656812 
L 189.001989 127.656812 
L 189.001989 124.735072 
L 190.016534 124.735072 
L 190.016534 136.422029 
L 191.03108 136.422029 
L 191.03108 149.407536 
L 192.045625 149.407536 
L 192.045625 147.784348 
L 194.074716 147.784348 
L 194.074716 161.743768 
L 195.089261 161.743768 
L 195.089261 163.042319 
L 196.103807 163.042319 
L 196.103807 167.587246 
L 197.118352 167.587246 
L 197.118352 175.053913 
L 198.132898 175.053913 
L 198.132898 176.352464 
L 199.147443 176.352464 
L 199.147443 183.169855 
L 200.161989 183.169855 
L 200.161989 190.311884 
L 201.176534 190.311884 
L 201.176534 191.935072 
L 202.19108 191.935072 
L 202.19108 188.364058 
L 203.205625 188.364058 
L 203.205625 202.972754 
L 204.22017 202.972754 
L 204.22017 200.375652 
L 205.234716 200.375652 
L 205.234716 201.024928 
L 206.249261 201.024928 
L 206.249261 206.21913 
L 207.263807 206.21913 
L 207.263807 209.790145 
L 208.278352 209.790145 
L 208.278352 210.114783 
L 209.292898 210.114783 
L 209.292898 214.984348 
L 210.307443 214.984348 
L 210.307443 217.256812 
L 211.321989 217.256812 
L 211.321989 216.932174 
L 212.336534 216.932174 
L 212.336534 214.335072 
L 213.35108 214.335072 
L 213.35108 206.543768 
L 214.365625 206.543768 
L 214.365625 202.648116 
L 215.38017 202.648116 
L 215.38017 203.297391 
L 216.394716 203.297391 
L 216.394716 201.349565 
L 217.409261 201.349565 
L 217.409261 194.532174 
L 218.423807 194.532174 
L 218.423807 189.987246 
L 219.438352 189.987246 
L 219.438352 183.81913 
L 220.452898 183.81913 
L 220.452898 180.897391 
L 221.467443 180.897391 
L 221.467443 177.651014 
L 222.481989 177.651014 
L 222.481989 183.494493 
L 223.496534 183.494493 
L 223.496534 171.482899 
L 224.51108 171.482899 
L 224.51108 166.288696 
L 225.525625 166.288696 
L 225.525625 161.743768 
L 226.54017 161.743768 
L 226.54017 160.445217 
L 227.554716 160.445217 
L 227.554716 164.34087 
L 228.569261 164.34087 
L 228.569261 148.758261 
L 229.583807 148.758261 
L 229.583807 150.056812 
L 230.598352 150.056812 
L 230.598352 153.303188 
L 231.612898 153.303188 
L 231.612898 149.082899 
L 232.627443 149.082899 
L 232.627443 138.369855 
L 233.641989 138.369855 
L 233.641989 140.966957 
L 234.656534 140.966957 
L 234.656534 144.213333 
L 235.67108 144.213333 
L 235.67108 139.993043 
L 236.685625 139.993043 
L 236.685625 135.448116 
L 237.70017 135.448116 
L 237.70017 122.137971 
L 238.714716 122.137971 
L 238.714716 117.593043 
L 239.729261 117.593043 
L 239.729261 120.514783 
L 240.743807 120.514783 
L 240.743807 115.645217 
L 241.758352 115.645217 
L 241.758352 121.488696 
L 242.772898 121.488696 
L 242.772898 125.05971 
L 243.787443 125.05971 
L 243.787443 101.685797 
L 244.801989 101.685797 
L 244.801989 110.775652 
L 245.816534 110.775652 
L 245.816534 111.10029 
L 246.83108 111.10029 
L 246.83108 106.230725 
L 247.845625 106.230725 
L 247.845625 109.477101 
L 248.86017 109.477101 
L 248.86017 114.022029 
L 249.874716 114.022029 
L 249.874716 111.424928 
L 250.889261 111.424928 
L 250.889261 98.114783 
L 251.903807 98.114783 
L 251.903807 95.517681 
L 252.918352 95.517681 
L 252.918352 113.372754 
L 253.932898 113.372754 
L 253.932898 99.088696 
L 254.947443 99.088696 
L 254.947443 92.92058 
L 255.961989 92.92058 
L 255.961989 83.181449 
L 256.976534 83.181449 
L 256.976534 87.077101 
L 257.99108 87.077101 
L 257.99108 78.961159 
L 259.005625 78.961159 
L 259.005625 71.169855 
L 260.02017 71.169855 
L 260.02017 68.248116 
L 261.034716 68.248116 
L 261.034716 85.778551 
L 262.049261 85.778551 
L 262.049261 81.233623 
L 263.063807 81.233623 
L 263.063807 81.882899 
L 264.078352 81.882899 
L 264.078352 88.70029 
L 265.092898 88.70029 
L 265.092898 75.065507 
L 266.107443 75.065507 
L 266.107443 88.375652 
L 267.121989 88.375652 
L 267.121989 91.622029 
L 268.136534 91.622029 
L 268.136534 86.752464 
L 269.15108 86.752464 
L 269.15108 88.051014 
L 270.165625 88.051014 
L 270.165625 90.972754 
L 271.18017 90.972754 
L 271.18017 89.349565 
L 272.194716 89.349565 
L 272.194716 99.737971 
L 273.209261 99.737971 
L 273.209261 94.21913 
L 274.223807 94.21913 
L 274.223807 89.674203 
L 275.238352 89.674203 
L 275.238352 109.477101 
L 276.252898 109.477101 
L 276.252898 106.555362 
L 277.267443 106.555362 
L 277.267443 98.764058 
L 278.281989 98.764058 
L 278.281989 97.465507 
L 279.296534 97.465507 
L 279.296534 104.607536 
L 280.31108 104.607536 
L 280.31108 109.152464 
L 281.325625 109.152464 
L 281.325625 105.256812 
L 282.34017 105.256812 
L 282.34017 114.022029 
L 283.354716 114.022029 
L 283.354716 112.723478 
L 284.369261 112.723478 
L 284.369261 113.372754 
L 285.383807 113.372754 
L 285.383807 105.906087 
L 286.398352 105.906087 
L 286.398352 116.61913 
L 287.412898 116.61913 
L 287.412898 119.865507 
L 288.427443 119.865507 
L 288.427443 120.190145 
L 289.441989 120.190145 
L 289.441989 116.61913 
L 290.456534 116.61913 
L 290.456534 125.384348 
L 292.485625 125.384348 
L 292.485625 115.969855 
L 293.50017 115.969855 
L 293.50017 124.085797 
L 294.514716 124.085797 
L 294.514716 130.903188 
L 295.529261 130.903188 
L 295.529261 120.514783 
L 296.543807 120.514783 
L 296.543807 124.735072 
L 297.558352 124.735072 
L 297.558352 127.007536 
L 298.572898 127.007536 
L 298.572898 114.022029 
L 299.587443 114.022029 
L 299.587443 125.708986 
L 300.601989 125.708986 
L 300.601989 127.007536 
L 301.616534 127.007536 
L 301.616534 130.578551 
L 302.63108 130.578551 
L 302.63108 129.28 
L 303.645625 129.28 
L 303.645625 130.578551 
L 304.66017 130.578551 
L 304.66017 135.772754 
L 305.674716 135.772754 
L 305.674716 145.836522 
L 306.689261 145.836522 
L 306.689261 123.436522 
L 307.703807 123.436522 
L 307.703807 132.851014 
L 308.718352 132.851014 
L 308.718352 134.474203 
L 309.732898 134.474203 
L 309.732898 136.097391 
L 310.747443 136.097391 
L 310.747443 134.798841 
L 311.761989 134.798841 
L 311.761989 136.746667 
L 312.776534 136.746667 
L 312.776534 143.564058 
L 313.79108 143.564058 
L 313.79108 146.485797 
L 314.805625 146.485797 
L 314.805625 153.952464 
L 315.82017 153.952464 
L 315.82017 138.694493 
L 316.834716 138.694493 
L 316.834716 145.836522 
L 317.849261 145.836522 
L 317.849261 147.45971 
L 318.863807 147.45971 
L 318.863807 146.485797 
L 319.878352 146.485797 
L 319.878352 151.030725 
L 320.892898 151.030725 
L 320.892898 155.575652 
L 321.907443 155.575652 
L 321.907443 157.848116 
L 322.921989 157.848116 
L 322.921989 155.90029 
L 323.936534 155.90029 
L 323.936534 152.004638 
L 324.95108 152.004638 
L 324.95108 148.108986 
L 325.965625 148.108986 
L 325.965625 165.314783 
L 326.98017 165.314783 
L 326.98017 158.172754 
L 327.994716 158.172754 
L 327.994716 169.535072 
L 329.009261 169.535072 
L 329.009261 165.314783 
L 330.023807 165.314783 
L 330.023807 166.288696 
L 331.038352 166.288696 
L 331.038352 170.508986 
L 332.052898 170.508986 
L 332.052898 174.404638 
L 333.067443 174.404638 
L 333.067443 170.833623 
L 334.081989 170.833623 
L 334.081989 176.677101 
L 335.096534 176.677101 
L 335.096534 178.624928 
L 336.11108 178.624928 
L 336.11108 175.378551 
L 337.125625 175.378551 
L 337.125625 187.065507 
L 338.14017 187.065507 
L 338.14017 183.494493 
L 339.154716 183.494493 
L 339.154716 181.871304 
L 340.169261 181.871304 
L 340.169261 187.714783 
L 341.183807 187.714783 
L 341.183807 191.285797 
L 342.198352 191.285797 
L 342.198352 190.311884 
L 343.212898 190.311884 
L 343.212898 189.987246 
L 344.227443 189.987246 
L 344.227443 198.103188 
L 345.241989 198.103188 
L 345.241989 197.453913 
L 346.256534 197.453913 
L 346.256534 199.401739 
L 347.27108 199.401739 
L 347.27108 198.103188 
L 348.285625 198.103188 
L 348.285625 201.349565 
L 349.30017 201.349565 
L 349.30017 205.569855 
L 350.314716 205.569855 
L 350.314716 204.595942 
L 351.329261 204.595942 
L 351.329261 208.491594 
L 352.343807 208.491594 
L 352.343807 206.21913 
L 353.358352 206.21913 
L 353.358352 207.842319 
L 354.372898 207.842319 
L 354.372898 210.764058 
L 355.387443 210.764058 
L 355.387443 213.685797 
L 356.401989 213.685797 
L 356.401989 213.361159 
L 357.416534 213.361159 
L 357.416534 213.036522 
L 358.43108 213.036522 
L 358.43108 214.984348 
L 359.445625 214.984348 
L 359.445625 215.958261 
L 360.46017 215.958261 
L 360.46017 215.308986 
L 361.474716 215.308986 
L 361.474716 216.282899 
L 362.489261 216.282899 
L 362.489261 216.932174 
L 363.503807 216.932174 
L 363.503807 218.230725 
L 364.518352 218.230725 
L 364.518352 218.88 
L 365.532898 218.88 
L 365.532898 218.555362 
L 366.547443 218.555362 
L 366.547443 218.555362 
" clip-path="url(#pffe92aaff8)" style="fill: none; stroke: #ff7f0e; stroke-width: 1.5; stroke-linecap: square"/>
   </g>
   <g id="patch_3">
    <path d="M 46.965625 228.96 
L 46.965625 7.2 
" style="fill: none; stroke: #000000; stroke-width: 0.8; stroke-linejoin: miter; stroke-linecap: square"/>
   </g>
   <g id="patch_4">
    <path d="M 381.765625 228.96 
L 381.765625 7.2 
" style="fill: none; stroke: #000000; stroke-width: 0.8; stroke-linejoin: miter; stroke-linecap: square"/>
   </g>
   <g id="patch_5">
    <path d="M 46.965625 228.96 
L 381.765625 228.96 
" style="fill: none; stroke: #000000; stroke-width: 0.8; stroke-linejoin: miter; stroke-linecap: square"/>
   </g>
   <g id="patch_6">
    <path d="M 46.965625 7.2 
L 381.765625 7.2 
" style="fill: none; stroke: #000000; stroke-width: 0.8; stroke-linejoin: miter; stroke-linecap: square"/>
   </g>
   <g id="legend_1">
    <g id="patch_7">
     <path d="M 305.3875 44.55625 
L 374.765625 44.55625 
Q 376.765625 44.55625 376.765625 42.55625 
L 376.765625 14.2 
Q 376.765625 12.2 374.765625 12.2 
L 305.3875 12.2 
Q 303.3875 12.2 303.3875 14.2 
L 303.3875 42.55625 
Q 303.3875 44.55625 305.3875 44.55625 
z
" style="fill: #ffffff; opacity: 0.8; stroke: #cccccc; stroke-linejoin: miter"/>
    </g>
    <g id="line2d_18">
     <path d="M 307.3875 20.298438 
L 307.3875 20.298438 
L 317.3875 20.298438 
L 317.3875 20.298438 
L 327.3875 20.298438 
" style="fill: none; stroke: #1f77b4; stroke-width: 1.5; stroke-linecap: square"/>
    </g>
    <g id="text_18">
     <!-- wfm -->
     <g transform="translate(335.3875 23.798438) scale(0.1 -0.1)">
      <defs>
       <path id="DejaVuSans-66" d="M 2375 4863 
L 2375 4384 
L 1825 4384 
Q 1516 4384 1395 4259 
Q 1275 4134 1275 3809 
L 1275 3500 
L 2222 3500 
L 2222 3053 
L 1275 3053 
L 1275 0 
L 697 0 
L 697 3053 
L 147 3053 
L 147 3500 
L 697 3500 
L 697 3744 
Q 697 4328 969 4595 
Q 1241 4863 1831 4863 
L 2375 4863 
z
" transform="scale(0.015625)"/>
       <path id="DejaVuSans-6d" d="M 3328 2828 
Q 3544 3216 3844 3400 
Q 4144 3584 4550 3584 
Q 5097 3584 5394 3201 
Q 5691 2819 5691 2113 
L 5691 0 
L 5113 0 
L 5113 2094 
Q 5113 2597 4934 2840 
Q 4756 3084 4391 3084 
Q 3944 3084 3684 2787 
Q 3425 2491 3425 1978 
L 3425 0 
L 2847 0 
L 2847 2094 
Q 2847 2600 2669 2842 
Q 2491 3084 2119 3084 
Q 1678 3084 1418 2786 
Q 1159 2488 1159 1978 
L 1159 0 
L 581 0 
L 581 3500 
L 1159 3500 
L 1159 2956 
Q 1356 3278 1631 3431 
Q 1906 3584 2284 3584 
Q 2666 3584 2933 3390 
Q 3200 3197 3328 2828 
z
" transform="scale(0.015625)"/>
      </defs>
      <use xlink:href="#DejaVuSans-77"/>
      <use xlink:href="#DejaVuSans-66" transform="translate(81.787109 0)"/>
      <use xlink:href="#DejaVuSans-6d" transform="translate(116.992188 0)"/>
     </g>
    </g>
    <g id="line2d_19">
     <path d="M 307.3875 34.976562 
L 307.3875 34.976562 
L 317.3875 34.976562 
L 317.3875 34.976562 
L 327.3875 34.976562 
" style="fill: none; stroke: #ff7f0e; stroke-width: 1.5; stroke-linecap: square"/>
    </g>
    <g id="text_19">
     <!-- original -->
     <g transform="translate(335.3875 38.476562) scale(0.1 -0.1)">
      <defs>
       <path id="DejaVuSans-72" d="M 2631 2963 
Q 2534 3019 2420 3045 
Q 2306 3072 2169 3072 
Q 1681 3072 1420 2755 
Q 1159 2438 1159 1844 
L 1159 0 
L 581 0 
L 581 3500 
L 1159 3500 
L 1159 2956 
Q 1341 3275 1631 3429 
Q 1922 3584 2338 3584 
Q 2397 3584 2469 3576 
Q 2541 3569 2628 3553 
L 2631 2963 
z
" transform="scale(0.015625)"/>
       <path id="DejaVuSans-69" d="M 603 3500 
L 1178 3500 
L 1178 0 
L 603 0 
L 603 3500 
z
M 603 4863 
L 1178 4863 
L 1178 4134 
L 603 4134 
L 603 4863 
z
" transform="scale(0.015625)"/>
      </defs>
      <use xlink:href="#DejaVuSans-6f"/>
      <use xlink:href="#DejaVuSans-72" transform="translate(61.181641 0)"/>
      <use xlink:href="#DejaVuSans-69" transform="translate(102.294922 0)"/>
      <use xlink:href="#DejaVuSans-67" transform="translate(130.078125 0)"/>
      <use xlink:href="#DejaVuSans-69" transform="translate(193.554688 0)"/>
      <use xlink:href="#DejaVuSans-6e" transform="translate(221.337891 0)"/>
      <use xlink:href="#DejaVuSans-61" transform="translate(284.716797 0)"/>
      <use xlink:href="#DejaVuSans-6c" transform="translate(345.996094 0)"/>
     </g>
    </g>
   </g>
  </g>
 </g>
 <defs>
  <clipPath id="pffe92aaff8">
   <rect x="46.965625" y="7.2" width="334.8" height="221.76"/>
  </clipPath>
 </defs>
</svg>
