<?xml version="1.0" encoding="utf-8" standalone="no"?>
<!DOCTYPE svg PUBLIC "-//W3C//DTD SVG 1.1//EN"
  "http://www.w3.org/Graphics/SVG/1.1/DTD/svg11.dtd">
<svg xmlns:xlink="http://www.w3.org/1999/xlink" width="388.965625pt" height="268.200625pt" viewBox="0 0 388.965625 268.200625" xmlns="http://www.w3.org/2000/svg" version="1.1">
 <metadata>
  <rdf:RDF xmlns:dc="http://purl.org/dc/elements/1.1/" xmlns:cc="http://creativecommons.org/ns#" xmlns:rdf="http://www.w3.org/1999/02/22-rdf-syntax-ns#">
   <cc:Work>
    <dc:type rdf:resource="http://purl.org/dc/dcmitype/StillImage"/>
    <dc:date>2025-10-02T14:01:15.395674</dc:date>
    <dc:format>image/svg+xml</dc:format>
    <dc:creator>
     <cc:Agent>
      <dc:title>Matplotlib v3.10.1, https://matplotlib.org/</dc:title>
     </cc:Agent>
    </dc:creator>
   </cc:Work>
  </rdf:RDF>
 </metadata>
 <defs>
  <style type="text/css">*{stroke-linejoin: round; stroke-linecap: butt}</style>
 </defs>
 <g id="figure_1">
  <g id="patch_1">
   <path d="M 0 268.200625 
L 388.965625 268.200625 
L 388.965625 0 
L 0 0 
z
" style="fill: #ffffff"/>
  </g>
  <g id="axes_1">
   <g id="patch_2">
    <path d="M 46.965625 228.96 
L 381.765625 228.96 
L 381.765625 7.2 
L 46.965625 7.2 
z
" style="fill: #ffffff"/>
   </g>
   <g id="matplotlib.axis_1">
    <g id="xtick_1">
     <g id="line2d_1">
      <defs>
       <path id="m965b46b447" d="M 0 0 
L 0 3.5 
" style="stroke: #000000; stroke-width: 0.8"/>
      </defs>
      <g>
       <use xlink:href="#m965b46b447" x="98.713344" y="228.96" style="stroke: #000000; stroke-width: 0.8"/>
      </g>
     </g>
     <g id="text_1">
      <!-- 2 -->
      <g transform="translate(95.532094 243.558437) scale(0.1 -0.1)">
       <defs>
        <path id="DejaVuSans-32" d="M 1228 531 
L 3431 531 
L 3431 0 
L 469 0 
L 469 531 
Q 828 903 1448 1529 
Q 2069 2156 2228 2338 
Q 2531 2678 2651 2914 
Q 2772 3150 2772 3378 
Q 2772 3750 2511 3984 
Q 2250 4219 1831 4219 
Q 1534 4219 1204 4116 
Q 875 4013 500 3803 
L 500 4441 
Q 881 4594 1212 4672 
Q 1544 4750 1819 4750 
Q 2544 4750 2975 4387 
Q 3406 4025 3406 3419 
Q 3406 3131 3298 2873 
Q 3191 2616 2906 2266 
Q 2828 2175 2409 1742 
Q 1991 1309 1228 531 
z
" transform="scale(0.015625)"/>
       </defs>
       <use xlink:href="#DejaVuSans-32"/>
      </g>
     </g>
    </g>
    <g id="xtick_2">
     <g id="line2d_2">
      <g>
       <use xlink:href="#m965b46b447" x="171.056365" y="228.96" style="stroke: #000000; stroke-width: 0.8"/>
      </g>
     </g>
     <g id="text_2">
      <!-- 4 -->
      <g transform="translate(167.875115 243.558437) scale(0.1 -0.1)">
       <defs>
        <path id="DejaVuSans-34" d="M 2419 4116 
L 825 1625 
L 2419 1625 
L 2419 4116 
z
M 2253 4666 
L 3047 4666 
L 3047 1625 
L 3713 1625 
L 3713 1100 
L 3047 1100 
L 3047 0 
L 2419 0 
L 2419 1100 
L 313 1100 
L 313 1709 
L 2253 4666 
z
" transform="scale(0.015625)"/>
       </defs>
       <use xlink:href="#DejaVuSans-34"/>
      </g>
     </g>
    </g>
    <g id="xtick_3">
     <g id="line2d_3">
      <g>
       <use xlink:href="#m965b46b447" x="243.399386" y="228.96" style="stroke: #000000; stroke-width: 0.8"/>
      </g>
     </g>
     <g id="text_3">
      <!-- 6 -->
      <g transform="translate(240.218136 243.558437) scale(0.1 -0.1)">
       <defs>
        <path id="DejaVuSans-36" d="M 2113 2584 
Q 1688 2584 1439 2293 
Q 1191 2003 1191 1497 
Q 1191 994 1439 701 
Q 1688 409 2113 409 
Q 2538 409 2786 701 
Q 3034 994 3034 1497 
Q 3034 2003 2786 2293 
Q 2538 2584 2113 2584 
z
M 3366 4563 
L 3366 3988 
Q 3128 4100 2886 4159 
Q 2644 4219 2406 4219 
Q 1781 4219 1451 3797 
Q 1122 3375 1075 2522 
Q 1259 2794 1537 2939 
Q 1816 3084 2150 3084 
Q 2853 3084 3261 2657 
Q 3669 2231 3669 1497 
Q 3669 778 3244 343 
Q 2819 -91 2113 -91 
Q 1303 -91 875 529 
Q 447 1150 447 2328 
Q 447 3434 972 4092 
Q 1497 4750 2381 4750 
Q 2619 4750 2861 4703 
Q 3103 4656 3366 4563 
z
" transform="scale(0.015625)"/>
       </defs>
       <use xlink:href="#DejaVuSans-36"/>
      </g>
     </g>
    </g>
    <g id="xtick_4">
     <g id="line2d_4">
      <g>
       <use xlink:href="#m965b46b447" x="315.742407" y="228.96" style="stroke: #000000; stroke-width: 0.8"/>
      </g>
     </g>
     <g id="text_4">
      <!-- 8 -->
      <g transform="translate(312.561157 243.558437) scale(0.1 -0.1)">
       <defs>
        <path id="DejaVuSans-38" d="M 2034 2216 
Q 1584 2216 1326 1975 
Q 1069 1734 1069 1313 
Q 1069 891 1326 650 
Q 1584 409 2034 409 
Q 2484 409 2743 651 
Q 3003 894 3003 1313 
Q 3003 1734 2745 1975 
Q 2488 2216 2034 2216 
z
M 1403 2484 
Q 997 2584 770 2862 
Q 544 3141 544 3541 
Q 544 4100 942 4425 
Q 1341 4750 2034 4750 
Q 2731 4750 3128 4425 
Q 3525 4100 3525 3541 
Q 3525 3141 3298 2862 
Q 3072 2584 2669 2484 
Q 3125 2378 3379 2068 
Q 3634 1759 3634 1313 
Q 3634 634 3220 271 
Q 2806 -91 2034 -91 
Q 1263 -91 848 271 
Q 434 634 434 1313 
Q 434 1759 690 2068 
Q 947 2378 1403 2484 
z
M 1172 3481 
Q 1172 3119 1398 2916 
Q 1625 2713 2034 2713 
Q 2441 2713 2670 2916 
Q 2900 3119 2900 3481 
Q 2900 3844 2670 4047 
Q 2441 4250 2034 4250 
Q 1625 4250 1398 4047 
Q 1172 3844 1172 3481 
z
" transform="scale(0.015625)"/>
       </defs>
       <use xlink:href="#DejaVuSans-38"/>
      </g>
     </g>
    </g>
    <g id="text_5">
     <!-- wavelength [Å] -->
     <g transform="translate(176.328125 258.920937) scale(0.1 -0.1)">
      <defs>
       <path id="DejaVuSans-77" d="M 269 3500 
L 844 3500 
L 1563 769 
L 2278 3500 
L 2956 3500 
L 3675 769 
L 4391 3500 
L 4966 3500 
L 4050 0 
L 3372 0 
L 2619 2869 
L 1863 0 
L 1184 0 
L 269 3500 
z
" transform="scale(0.015625)"/>
       <path id="DejaVuSans-61" d="M 2194 1759 
Q 1497 1759 1228 1600 
Q 959 1441 959 1056 
Q 959 750 1161 570 
Q 1363 391 1709 391 
Q 2188 391 2477 730 
Q 2766 1069 2766 1631 
L 2766 1759 
L 2194 1759 
z
M 3341 1997 
L 3341 0 
L 2766 0 
L 2766 531 
Q 2569 213 2275 61 
Q 1981 -91 1556 -91 
Q 1019 -91 701 211 
Q 384 513 384 1019 
Q 384 1609 779 1909 
Q 1175 2209 1959 2209 
L 2766 2209 
L 2766 2266 
Q 2766 2663 2505 2880 
Q 2244 3097 1772 3097 
Q 1472 3097 1187 3025 
Q 903 2953 641 2809 
L 641 3341 
Q 956 3463 1253 3523 
Q 1550 3584 1831 3584 
Q 2591 3584 2966 3190 
Q 3341 2797 3341 1997 
z
" transform="scale(0.015625)"/>
       <path id="DejaVuSans-76" d="M 191 3500 
L 800 3500 
L 1894 563 
L 2988 3500 
L 3597 3500 
L 2284 0 
L 1503 0 
L 191 3500 
z
" transform="scale(0.015625)"/>
       <path id="DejaVuSans-65" d="M 3597 1894 
L 3597 1613 
L 953 1613 
Q 991 1019 1311 708 
Q 1631 397 2203 397 
Q 2534 397 2845 478 
Q 3156 559 3463 722 
L 3463 178 
Q 3153 47 2828 -22 
Q 2503 -91 2169 -91 
Q 1331 -91 842 396 
Q 353 884 353 1716 
Q 353 2575 817 3079 
Q 1281 3584 2069 3584 
Q 2775 3584 3186 3129 
Q 3597 2675 3597 1894 
z
M 3022 2063 
Q 3016 2534 2758 2815 
Q 2500 3097 2075 3097 
Q 1594 3097 1305 2825 
Q 1016 2553 972 2059 
L 3022 2063 
z
" transform="scale(0.015625)"/>
       <path id="DejaVuSans-6c" d="M 603 4863 
L 1178 4863 
L 1178 0 
L 603 0 
L 603 4863 
z
" transform="scale(0.015625)"/>
       <path id="DejaVuSans-6e" d="M 3513 2113 
L 3513 0 
L 2938 0 
L 2938 2094 
Q 2938 2591 2744 2837 
Q 2550 3084 2163 3084 
Q 1697 3084 1428 2787 
Q 1159 2491 1159 1978 
L 1159 0 
L 581 0 
L 581 3500 
L 1159 3500 
L 1159 2956 
Q 1366 3272 1645 3428 
Q 1925 3584 2291 3584 
Q 2894 3584 3203 3211 
Q 3513 2838 3513 2113 
z
" transform="scale(0.015625)"/>
       <path id="DejaVuSans-67" d="M 2906 1791 
Q 2906 2416 2648 2759 
Q 2391 3103 1925 3103 
Q 1463 3103 1205 2759 
Q 947 2416 947 1791 
Q 947 1169 1205 825 
Q 1463 481 1925 481 
Q 2391 481 2648 825 
Q 2906 1169 2906 1791 
z
M 3481 434 
Q 3481 -459 3084 -895 
Q 2688 -1331 1869 -1331 
Q 1566 -1331 1297 -1286 
Q 1028 -1241 775 -1147 
L 775 -588 
Q 1028 -725 1275 -790 
Q 1522 -856 1778 -856 
Q 2344 -856 2625 -561 
Q 2906 -266 2906 331 
L 2906 616 
Q 2728 306 2450 153 
Q 2172 0 1784 0 
Q 1141 0 747 490 
Q 353 981 353 1791 
Q 353 2603 747 3093 
Q 1141 3584 1784 3584 
Q 2172 3584 2450 3431 
Q 2728 3278 2906 2969 
L 2906 3500 
L 3481 3500 
L 3481 434 
z
" transform="scale(0.015625)"/>
       <path id="DejaVuSans-74" d="M 1172 4494 
L 1172 3500 
L 2356 3500 
L 2356 3053 
L 1172 3053 
L 1172 1153 
Q 1172 725 1289 603 
Q 1406 481 1766 481 
L 2356 481 
L 2356 0 
L 1766 0 
Q 1100 0 847 248 
Q 594 497 594 1153 
L 594 3053 
L 172 3053 
L 172 3500 
L 594 3500 
L 594 4494 
L 1172 4494 
z
" transform="scale(0.015625)"/>
       <path id="DejaVuSans-68" d="M 3513 2113 
L 3513 0 
L 2938 0 
L 2938 2094 
Q 2938 2591 2744 2837 
Q 2550 3084 2163 3084 
Q 1697 3084 1428 2787 
Q 1159 2491 1159 1978 
L 1159 0 
L 581 0 
L 581 4863 
L 1159 4863 
L 1159 2956 
Q 1366 3272 1645 3428 
Q 1925 3584 2291 3584 
Q 2894 3584 3203 3211 
Q 3513 2838 3513 2113 
z
" transform="scale(0.015625)"/>
       <path id="DejaVuSans-20" transform="scale(0.015625)"/>
       <path id="DejaVuSans-5b" d="M 550 4863 
L 1875 4863 
L 1875 4416 
L 1125 4416 
L 1125 -397 
L 1875 -397 
L 1875 -844 
L 550 -844 
L 550 4863 
z
" transform="scale(0.015625)"/>
       <path id="DejaVuSans-c5" d="M 2663 5081 
Q 2663 5278 2523 5417 
Q 2384 5556 2188 5556 
Q 1988 5556 1852 5420 
Q 1716 5284 1716 5081 
Q 1716 4884 1853 4746 
Q 1991 4609 2188 4609 
Q 2384 4609 2523 4746 
Q 2663 4884 2663 5081 
z
M 2188 4044 
L 1338 1722 
L 3041 1722 
L 2188 4044 
z
M 1716 4366 
Q 1525 4494 1428 4673 
Q 1331 4853 1331 5081 
Q 1331 5441 1579 5691 
Q 1828 5941 2188 5941 
Q 2544 5941 2795 5689 
Q 3047 5438 3047 5081 
Q 3047 4863 2948 4678 
Q 2850 4494 2663 4366 
L 4325 0 
L 3669 0 
L 3244 1197 
L 1141 1197 
L 716 0 
L 50 0 
L 1716 4366 
z
" transform="scale(0.015625)"/>
       <path id="DejaVuSans-5d" d="M 1947 4863 
L 1947 -844 
L 622 -844 
L 622 -397 
L 1369 -397 
L 1369 4416 
L 622 4416 
L 622 4863 
L 1947 4863 
z
" transform="scale(0.015625)"/>
      </defs>
      <use xlink:href="#DejaVuSans-77"/>
      <use xlink:href="#DejaVuSans-61" transform="translate(81.787109 0)"/>
      <use xlink:href="#DejaVuSans-76" transform="translate(143.066406 0)"/>
      <use xlink:href="#DejaVuSans-65" transform="translate(202.246094 0)"/>
      <use xlink:href="#DejaVuSans-6c" transform="translate(263.769531 0)"/>
      <use xlink:href="#DejaVuSans-65" transform="translate(291.552734 0)"/>
      <use xlink:href="#DejaVuSans-6e" transform="translate(353.076172 0)"/>
      <use xlink:href="#DejaVuSans-67" transform="translate(416.455078 0)"/>
      <use xlink:href="#DejaVuSans-74" transform="translate(479.931641 0)"/>
      <use xlink:href="#DejaVuSans-68" transform="translate(519.140625 0)"/>
      <use xlink:href="#DejaVuSans-20" transform="translate(582.519531 0)"/>
      <use xlink:href="#DejaVuSans-5b" transform="translate(614.306641 0)"/>
      <use xlink:href="#DejaVuSans-c5" transform="translate(653.320312 0)"/>
      <use xlink:href="#DejaVuSans-5d" transform="translate(721.728516 0)"/>
     </g>
    </g>
   </g>
   <g id="matplotlib.axis_2">
    <g id="ytick_1">
     <g id="line2d_5">
      <defs>
       <path id="mc523618d9f" d="M 0 0 
L -3.5 0 
" style="stroke: #000000; stroke-width: 0.8"/>
      </defs>
      <g>
       <use xlink:href="#mc523618d9f" x="46.965625" y="218.88" style="stroke: #000000; stroke-width: 0.8"/>
      </g>
     </g>
     <g id="text_6">
      <!-- 0 -->
      <g transform="translate(33.603125 222.679219) scale(0.1 -0.1)">
       <defs>
        <path id="DejaVuSans-30" d="M 2034 4250 
Q 1547 4250 1301 3770 
Q 1056 3291 1056 2328 
Q 1056 1369 1301 889 
Q 1547 409 2034 409 
Q 2525 409 2770 889 
Q 3016 1369 3016 2328 
Q 3016 3291 2770 3770 
Q 2525 4250 2034 4250 
z
M 2034 4750 
Q 2819 4750 3233 4129 
Q 3647 3509 3647 2328 
Q 3647 1150 3233 529 
Q 2819 -91 2034 -91 
Q 1250 -91 836 529 
Q 422 1150 422 2328 
Q 422 3509 836 4129 
Q 1250 4750 2034 4750 
z
" transform="scale(0.015625)"/>
       </defs>
       <use xlink:href="#DejaVuSans-30"/>
      </g>
     </g>
    </g>
    <g id="ytick_2">
     <g id="line2d_6">
      <g>
       <use xlink:href="#mc523618d9f" x="46.965625" y="191.225679" style="stroke: #000000; stroke-width: 0.8"/>
      </g>
     </g>
     <g id="text_7">
      <!-- 100 -->
      <g transform="translate(20.878125 195.024898) scale(0.1 -0.1)">
       <defs>
        <path id="DejaVuSans-31" d="M 794 531 
L 1825 531 
L 1825 4091 
L 703 3866 
L 703 4441 
L 1819 4666 
L 2450 4666 
L 2450 531 
L 3481 531 
L 3481 0 
L 794 0 
L 794 531 
z
" transform="scale(0.015625)"/>
       </defs>
       <use xlink:href="#DejaVuSans-31"/>
       <use xlink:href="#DejaVuSans-30" transform="translate(63.623047 0)"/>
       <use xlink:href="#DejaVuSans-30" transform="translate(127.246094 0)"/>
      </g>
     </g>
    </g>
    <g id="ytick_3">
     <g id="line2d_7">
      <g>
       <use xlink:href="#mc523618d9f" x="46.965625" y="163.571358" style="stroke: #000000; stroke-width: 0.8"/>
      </g>
     </g>
     <g id="text_8">
      <!-- 200 -->
      <g transform="translate(20.878125 167.370577) scale(0.1 -0.1)">
       <use xlink:href="#DejaVuSans-32"/>
       <use xlink:href="#DejaVuSans-30" transform="translate(63.623047 0)"/>
       <use xlink:href="#DejaVuSans-30" transform="translate(127.246094 0)"/>
      </g>
     </g>
    </g>
    <g id="ytick_4">
     <g id="line2d_8">
      <g>
       <use xlink:href="#mc523618d9f" x="46.965625" y="135.917037" style="stroke: #000000; stroke-width: 0.8"/>
      </g>
     </g>
     <g id="text_9">
      <!-- 300 -->
      <g transform="translate(20.878125 139.716256) scale(0.1 -0.1)">
       <defs>
        <path id="DejaVuSans-33" d="M 2597 2516 
Q 3050 2419 3304 2112 
Q 3559 1806 3559 1356 
Q 3559 666 3084 287 
Q 2609 -91 1734 -91 
Q 1441 -91 1130 -33 
Q 819 25 488 141 
L 488 750 
Q 750 597 1062 519 
Q 1375 441 1716 441 
Q 2309 441 2620 675 
Q 2931 909 2931 1356 
Q 2931 1769 2642 2001 
Q 2353 2234 1838 2234 
L 1294 2234 
L 1294 2753 
L 1863 2753 
Q 2328 2753 2575 2939 
Q 2822 3125 2822 3475 
Q 2822 3834 2567 4026 
Q 2313 4219 1838 4219 
Q 1578 4219 1281 4162 
Q 984 4106 628 3988 
L 628 4550 
Q 988 4650 1302 4700 
Q 1616 4750 1894 4750 
Q 2613 4750 3031 4423 
Q 3450 4097 3450 3541 
Q 3450 3153 3228 2886 
Q 3006 2619 2597 2516 
z
" transform="scale(0.015625)"/>
       </defs>
       <use xlink:href="#DejaVuSans-33"/>
       <use xlink:href="#DejaVuSans-30" transform="translate(63.623047 0)"/>
       <use xlink:href="#DejaVuSans-30" transform="translate(127.246094 0)"/>
      </g>
     </g>
    </g>
    <g id="ytick_5">
     <g id="line2d_9">
      <g>
       <use xlink:href="#mc523618d9f" x="46.965625" y="108.262716" style="stroke: #000000; stroke-width: 0.8"/>
      </g>
     </g>
     <g id="text_10">
      <!-- 400 -->
      <g transform="translate(20.878125 112.061935) scale(0.1 -0.1)">
       <use xlink:href="#DejaVuSans-34"/>
       <use xlink:href="#DejaVuSans-30" transform="translate(63.623047 0)"/>
       <use xlink:href="#DejaVuSans-30" transform="translate(127.246094 0)"/>
      </g>
     </g>
    </g>
    <g id="ytick_6">
     <g id="line2d_10">
      <g>
       <use xlink:href="#mc523618d9f" x="46.965625" y="80.608395" style="stroke: #000000; stroke-width: 0.8"/>
      </g>
     </g>
     <g id="text_11">
      <!-- 500 -->
      <g transform="translate(20.878125 84.407614) scale(0.1 -0.1)">
       <defs>
        <path id="DejaVuSans-35" d="M 691 4666 
L 3169 4666 
L 3169 4134 
L 1269 4134 
L 1269 2991 
Q 1406 3038 1543 3061 
Q 1681 3084 1819 3084 
Q 2600 3084 3056 2656 
Q 3513 2228 3513 1497 
Q 3513 744 3044 326 
Q 2575 -91 1722 -91 
Q 1428 -91 1123 -41 
Q 819 9 494 109 
L 494 744 
Q 775 591 1075 516 
Q 1375 441 1709 441 
Q 2250 441 2565 725 
Q 2881 1009 2881 1497 
Q 2881 1984 2565 2268 
Q 2250 2553 1709 2553 
Q 1456 2553 1204 2497 
Q 953 2441 691 2322 
L 691 4666 
z
" transform="scale(0.015625)"/>
       </defs>
       <use xlink:href="#DejaVuSans-35"/>
       <use xlink:href="#DejaVuSans-30" transform="translate(63.623047 0)"/>
       <use xlink:href="#DejaVuSans-30" transform="translate(127.246094 0)"/>
      </g>
     </g>
    </g>
    <g id="ytick_7">
     <g id="line2d_11">
      <g>
       <use xlink:href="#mc523618d9f" x="46.965625" y="52.954074" style="stroke: #000000; stroke-width: 0.8"/>
      </g>
     </g>
     <g id="text_12">
      <!-- 600 -->
      <g transform="translate(20.878125 56.753293) scale(0.1 -0.1)">
       <use xlink:href="#DejaVuSans-36"/>
       <use xlink:href="#DejaVuSans-30" transform="translate(63.623047 0)"/>
       <use xlink:href="#DejaVuSans-30" transform="translate(127.246094 0)"/>
      </g>
     </g>
    </g>
    <g id="ytick_8">
     <g id="line2d_12">
      <g>
       <use xlink:href="#mc523618d9f" x="46.965625" y="25.299753" style="stroke: #000000; stroke-width: 0.8"/>
      </g>
     </g>
     <g id="text_13">
      <!-- 700 -->
      <g transform="translate(20.878125 29.098972) scale(0.1 -0.1)">
       <defs>
        <path id="DejaVuSans-37" d="M 525 4666 
L 3525 4666 
L 3525 4397 
L 1831 0 
L 1172 0 
L 2766 4134 
L 525 4134 
L 525 4666 
z
" transform="scale(0.015625)"/>
       </defs>
       <use xlink:href="#DejaVuSans-37"/>
       <use xlink:href="#DejaVuSans-30" transform="translate(63.623047 0)"/>
       <use xlink:href="#DejaVuSans-30" transform="translate(127.246094 0)"/>
      </g>
     </g>
    </g>
    <g id="text_14">
     <!-- [counts] -->
     <g transform="translate(14.798438 138.6925) rotate(-90) scale(0.1 -0.1)">
      <defs>
       <path id="DejaVuSans-63" d="M 3122 3366 
L 3122 2828 
Q 2878 2963 2633 3030 
Q 2388 3097 2138 3097 
Q 1578 3097 1268 2742 
Q 959 2388 959 1747 
Q 959 1106 1268 751 
Q 1578 397 2138 397 
Q 2388 397 2633 464 
Q 2878 531 3122 666 
L 3122 134 
Q 2881 22 2623 -34 
Q 2366 -91 2075 -91 
Q 1284 -91 818 406 
Q 353 903 353 1747 
Q 353 2603 823 3093 
Q 1294 3584 2113 3584 
Q 2378 3584 2631 3529 
Q 2884 3475 3122 3366 
z
" transform="scale(0.015625)"/>
       <path id="DejaVuSans-6f" d="M 1959 3097 
Q 1497 3097 1228 2736 
Q 959 2375 959 1747 
Q 959 1119 1226 758 
Q 1494 397 1959 397 
Q 2419 397 2687 759 
Q 2956 1122 2956 1747 
Q 2956 2369 2687 2733 
Q 2419 3097 1959 3097 
z
M 1959 3584 
Q 2709 3584 3137 3096 
Q 3566 2609 3566 1747 
Q 3566 888 3137 398 
Q 2709 -91 1959 -91 
Q 1206 -91 779 398 
Q 353 888 353 1747 
Q 353 2609 779 3096 
Q 1206 3584 1959 3584 
z
" transform="scale(0.015625)"/>
       <path id="DejaVuSans-75" d="M 544 1381 
L 544 3500 
L 1119 3500 
L 1119 1403 
Q 1119 906 1312 657 
Q 1506 409 1894 409 
Q 2359 409 2629 706 
Q 2900 1003 2900 1516 
L 2900 3500 
L 3475 3500 
L 3475 0 
L 2900 0 
L 2900 538 
Q 2691 219 2414 64 
Q 2138 -91 1772 -91 
Q 1169 -91 856 284 
Q 544 659 544 1381 
z
M 1991 3584 
L 1991 3584 
z
" transform="scale(0.015625)"/>
       <path id="DejaVuSans-73" d="M 2834 3397 
L 2834 2853 
Q 2591 2978 2328 3040 
Q 2066 3103 1784 3103 
Q 1356 3103 1142 2972 
Q 928 2841 928 2578 
Q 928 2378 1081 2264 
Q 1234 2150 1697 2047 
L 1894 2003 
Q 2506 1872 2764 1633 
Q 3022 1394 3022 966 
Q 3022 478 2636 193 
Q 2250 -91 1575 -91 
Q 1294 -91 989 -36 
Q 684 19 347 128 
L 347 722 
Q 666 556 975 473 
Q 1284 391 1588 391 
Q 1994 391 2212 530 
Q 2431 669 2431 922 
Q 2431 1156 2273 1281 
Q 2116 1406 1581 1522 
L 1381 1569 
Q 847 1681 609 1914 
Q 372 2147 372 2553 
Q 372 3047 722 3315 
Q 1072 3584 1716 3584 
Q 2034 3584 2315 3537 
Q 2597 3491 2834 3397 
z
" transform="scale(0.015625)"/>
      </defs>
      <use xlink:href="#DejaVuSans-5b"/>
      <use xlink:href="#DejaVuSans-63" transform="translate(39.013672 0)"/>
      <use xlink:href="#DejaVuSans-6f" transform="translate(93.994141 0)"/>
      <use xlink:href="#DejaVuSans-75" transform="translate(155.175781 0)"/>
      <use xlink:href="#DejaVuSans-6e" transform="translate(218.554688 0)"/>
      <use xlink:href="#DejaVuSans-74" transform="translate(281.933594 0)"/>
      <use xlink:href="#DejaVuSans-73" transform="translate(321.142578 0)"/>
      <use xlink:href="#DejaVuSans-5d" transform="translate(373.242188 0)"/>
     </g>
    </g>
   </g>
   <g id="line2d_13">
    <path d="M 62.728097 160.25284 
L 63.735867 160.25284 
L 63.735867 154.721975 
L 64.743637 154.721975 
L 64.743637 144.76642 
L 65.751407 144.76642 
L 65.751407 150.297284 
L 66.759177 150.297284 
L 66.759177 148.361481 
L 67.766947 148.361481 
L 67.766947 150.020741 
L 68.774717 150.020741 
L 68.774717 139.235556 
L 69.782487 139.235556 
L 69.782487 144.213333 
L 70.790257 144.213333 
L 70.790257 141.171358 
L 71.798027 141.171358 
L 71.798027 137.576296 
L 72.805797 137.576296 
L 72.805797 140.894815 
L 73.813567 140.894815 
L 73.813567 135.087407 
L 74.821337 135.087407 
L 74.821337 129.003457 
L 75.829107 129.003457 
L 75.829107 138.682469 
L 76.836877 138.682469 
L 76.836877 142.000988 
L 77.844647 142.000988 
L 77.844647 134.810864 
L 78.852417 134.810864 
L 78.852417 140.065185 
L 79.860187 140.065185 
L 79.860187 144.489877 
L 80.867957 144.489877 
L 80.867957 139.235556 
L 81.875727 139.235556 
L 81.875727 138.959012 
L 82.883497 138.959012 
L 82.883497 142.554074 
L 83.891267 142.554074 
L 83.891267 142.277531 
L 84.899037 142.277531 
L 84.899037 133.428148 
L 85.906807 133.428148 
L 85.906807 139.788642 
L 87.922347 139.788642 
L 87.922347 141.724444 
L 88.930117 141.724444 
L 88.930117 122.36642 
L 89.937887 122.36642 
L 89.937887 145.596049 
L 90.945657 145.596049 
L 90.945657 139.235556 
L 91.953427 139.235556 
L 91.953427 137.576296 
L 92.961197 137.576296 
L 92.961197 139.788642 
L 93.968967 139.788642 
L 93.968967 138.129383 
L 94.976737 138.129383 
L 94.976737 126.791111 
L 95.984507 126.791111 
L 95.984507 140.065185 
L 96.992277 140.065185 
L 96.992277 133.704691 
L 98.000047 133.704691 
L 98.000047 140.065185 
L 99.007817 140.065185 
L 99.007817 125.131852 
L 100.015587 125.131852 
L 100.015587 127.344198 
L 101.023357 127.344198 
L 101.023357 132.598519 
L 102.031127 132.598519 
L 102.031127 134.534321 
L 103.038897 134.534321 
L 103.038897 129.556543 
L 104.046667 129.556543 
L 104.046667 117.665185 
L 105.054437 117.665185 
L 105.054437 117.941728 
L 106.062207 117.941728 
L 106.062207 122.36642 
L 107.069977 122.36642 
L 107.069977 114.899753 
L 108.077747 114.899753 
L 108.077747 110.198519 
L 109.085517 110.198519 
L 109.085517 105.497284 
L 110.093287 105.497284 
L 110.093287 101.072593 
L 111.101057 101.072593 
L 111.101057 121.260247 
L 112.108827 121.260247 
L 112.108827 105.773827 
L 113.116597 105.773827 
L 113.116597 111.857778 
L 114.124367 111.857778 
L 114.124367 112.410864 
L 115.132137 112.410864 
L 115.132137 115.45284 
L 116.139907 115.45284 
L 116.139907 127.344198 
L 117.147677 127.344198 
L 117.147677 108.815802 
L 118.155447 108.815802 
L 118.155447 17.28 
L 119.163217 17.28 
L 119.163217 51.294815 
L 120.170987 51.294815 
L 120.170987 63.462716 
L 121.178757 63.462716 
L 121.178757 79.225679 
L 122.186526 79.225679 
L 122.186526 66.228148 
L 123.194296 66.228148 
L 123.194296 51.571358 
L 124.202066 51.571358 
L 124.202066 56.549136 
L 125.209836 56.549136 
L 125.209836 65.121975 
L 126.217606 65.121975 
L 126.217606 70.099753 
L 127.225376 70.099753 
L 127.225376 71.205926 
L 128.233146 71.205926 
L 128.233146 61.25037 
L 129.240916 61.25037 
L 129.240916 66.228148 
L 130.248686 66.228148 
L 130.248686 79.502222 
L 131.256456 79.502222 
L 131.256456 76.460247 
L 132.264226 76.460247 
L 132.264226 72.312099 
L 134.279766 72.312099 
L 134.279766 84.203457 
L 135.287536 84.203457 
L 135.287536 78.119506 
L 136.295306 78.119506 
L 136.295306 95.265185 
L 137.303076 95.265185 
L 137.303076 97.200988 
L 138.310846 97.200988 
L 138.310846 74.247901 
L 139.318616 74.247901 
L 139.318616 83.097284 
L 140.326386 83.097284 
L 140.326386 86.139259 
L 141.334156 86.139259 
L 141.334156 95.818272 
L 142.341926 95.818272 
L 142.341926 91.670123 
L 143.349696 91.670123 
L 143.349696 116.005926 
L 144.357466 116.005926 
L 144.357466 98.030617 
L 146.373006 98.030617 
L 146.373006 114.070123 
L 147.380776 114.070123 
L 147.380776 111.028148 
L 148.388546 111.028148 
L 148.388546 88.075062 
L 149.396316 88.075062 
L 149.396316 105.220741 
L 150.404086 105.220741 
L 150.404086 109.368889 
L 151.411856 109.368889 
L 151.411856 106.88 
L 152.419626 106.88 
L 152.419626 119.047901 
L 153.427396 119.047901 
L 153.427396 108.815802 
L 154.435166 108.815802 
L 154.435166 125.961481 
L 155.442936 125.961481 
L 155.442936 122.36642 
L 156.450706 122.36642 
L 156.450706 114.070123 
L 157.458476 114.070123 
L 157.458476 124.025679 
L 158.466246 124.025679 
L 158.466246 137.299753 
L 159.474016 137.299753 
L 159.474016 120.430617 
L 160.481786 120.430617 
L 160.481786 127.344198 
L 161.489556 127.344198 
L 161.489556 120.430617 
L 162.497326 120.430617 
L 162.497326 134.257778 
L 163.505096 134.257778 
L 163.505096 132.321975 
L 164.512866 132.321975 
L 164.512866 140.341728 
L 165.520636 140.341728 
L 165.520636 150.297284 
L 166.528406 150.297284 
L 166.528406 147.531852 
L 167.536176 147.531852 
L 167.536176 148.914568 
L 168.543946 148.914568 
L 168.543946 157.487407 
L 169.551716 157.487407 
L 169.551716 159.146667 
L 170.559486 159.146667 
L 170.559486 120.154074 
L 171.567256 120.154074 
L 171.567256 114.070123 
L 172.575026 114.070123 
L 172.575026 126.791111 
L 173.582796 126.791111 
L 173.582796 132.045432 
L 174.590566 132.045432 
L 174.590566 134.534321 
L 175.598336 134.534321 
L 175.598336 144.76642 
L 176.606106 144.76642 
L 176.606106 148.084938 
L 177.613876 148.084938 
L 177.613876 143.10716 
L 178.621646 143.10716 
L 178.621646 129.833086 
L 179.629416 129.833086 
L 179.629416 135.917037 
L 180.637185 135.917037 
L 180.637185 142.554074 
L 181.644955 142.554074 
L 181.644955 143.10716 
L 182.652725 143.10716 
L 182.652725 139.235556 
L 183.660495 139.235556 
L 183.660495 146.425679 
L 184.668265 146.425679 
L 184.668265 148.361481 
L 185.676035 148.361481 
L 185.676035 153.615802 
L 186.683805 153.615802 
L 186.683805 148.084938 
L 187.691575 148.084938 
L 187.691575 146.425679 
L 188.699345 146.425679 
L 188.699345 158.59358 
L 189.707115 158.59358 
L 189.707115 147.808395 
L 191.722655 147.808395 
L 191.722655 166.060247 
L 192.730425 166.060247 
L 192.730425 158.317037 
L 193.738195 158.317037 
L 193.738195 159.42321 
L 194.745965 159.42321 
L 194.745965 155.828148 
L 195.753735 155.828148 
L 195.753735 158.317037 
L 196.761505 158.317037 
L 196.761505 155.828148 
L 197.769275 155.828148 
L 197.769275 158.870123 
L 198.777045 158.870123 
L 198.777045 153.339259 
L 199.784815 153.339259 
L 199.784815 164.124444 
L 200.792585 164.124444 
L 200.792585 169.378765 
L 201.800355 169.378765 
L 201.800355 167.442963 
L 202.808125 167.442963 
L 202.808125 160.529383 
L 203.815895 160.529383 
L 203.815895 161.912099 
L 204.823665 161.912099 
L 204.823665 163.571358 
L 205.831435 163.571358 
L 205.831435 165.783704 
L 206.839205 165.783704 
L 206.839205 164.677531 
L 207.846975 164.677531 
L 207.846975 169.655309 
L 208.854745 169.655309 
L 208.854745 164.677531 
L 209.862515 164.677531 
L 209.862515 163.571358 
L 210.870285 163.571358 
L 210.870285 174.90963 
L 211.878055 174.90963 
L 211.878055 171.314568 
L 212.885825 171.314568 
L 212.885825 174.90963 
L 213.893595 174.90963 
L 213.893595 178.228148 
L 214.901365 178.228148 
L 214.901365 170.761481 
L 215.909135 170.761481 
L 215.909135 176.568889 
L 216.916905 176.568889 
L 216.916905 174.633086 
L 217.924675 174.633086 
L 217.924675 180.99358 
L 218.932445 180.99358 
L 218.932445 189.56642 
L 219.940215 189.56642 
L 219.940215 180.163951 
L 220.947985 180.163951 
L 220.947985 186.524444 
L 221.955755 186.524444 
L 221.955755 201.181235 
L 222.963525 201.181235 
L 222.963525 197.862716 
L 223.971295 197.862716 
L 223.971295 173.25037 
L 224.979065 173.25037 
L 224.979065 181.270123 
L 228.002375 181.270123 
L 228.002375 180.163951 
L 229.010145 180.163951 
L 229.010145 175.739259 
L 230.017915 175.739259 
L 230.017915 175.462716 
L 231.025685 175.462716 
L 231.025685 186.800988 
L 232.033455 186.800988 
L 232.033455 174.90963 
L 233.041225 174.90963 
L 233.041225 180.717037 
L 234.048995 180.717037 
L 234.048995 184.312099 
L 235.056765 184.312099 
L 235.056765 183.482469 
L 236.064535 183.482469 
L 236.064535 181.546667 
L 237.072305 181.546667 
L 237.072305 177.121975 
L 238.080075 177.121975 
L 238.080075 185.418272 
L 239.087844 185.418272 
L 239.087844 184.865185 
L 240.095614 184.865185 
L 240.095614 184.312099 
L 241.103384 184.312099 
L 241.103384 185.694815 
L 242.111154 185.694815 
L 242.111154 187.630617 
L 243.118924 187.630617 
L 243.118924 184.865185 
L 244.126694 184.865185 
L 244.126694 182.099753 
L 245.134464 182.099753 
L 245.134464 191.778765 
L 246.142234 191.778765 
L 246.142234 190.672593 
L 247.150004 190.672593 
L 247.150004 189.289877 
L 248.157774 189.289877 
L 248.157774 190.119506 
L 249.165544 190.119506 
L 249.165544 187.077531 
L 250.173314 187.077531 
L 250.173314 187.354074 
L 251.181084 187.354074 
L 251.181084 189.56642 
L 252.188854 189.56642 
L 252.188854 189.289877 
L 253.196624 189.289877 
L 253.196624 190.119506 
L 254.204394 190.119506 
L 254.204394 190.672593 
L 255.212164 190.672593 
L 255.212164 190.396049 
L 256.219934 190.396049 
L 256.219934 192.884938 
L 257.227704 192.884938 
L 257.227704 194.544198 
L 258.235474 194.544198 
L 258.235474 191.778765 
L 259.243244 191.778765 
L 259.243244 190.672593 
L 260.251014 190.672593 
L 260.251014 198.968889 
L 261.258784 198.968889 
L 261.258784 187.077531 
L 262.266554 187.077531 
L 262.266554 200.075062 
L 263.274324 200.075062 
L 263.274324 192.884938 
L 264.282094 192.884938 
L 264.282094 197.586173 
L 265.289864 197.586173 
L 265.289864 198.692346 
L 266.297634 198.692346 
L 266.297634 201.734321 
L 267.305404 201.734321 
L 267.305404 196.48 
L 268.313174 196.48 
L 268.313174 199.245432 
L 269.320944 199.245432 
L 269.320944 202.287407 
L 270.328714 202.287407 
L 270.328714 210.583704 
L 271.336484 210.583704 
L 271.336484 218.88 
L 272.344254 218.88 
L 272.344254 211.413333 
L 273.352024 211.413333 
L 273.352024 197.586173 
L 275.367564 197.586173 
L 275.367564 195.926914 
L 276.375334 195.926914 
L 276.375334 199.245432 
L 277.383104 199.245432 
L 277.383104 193.714568 
L 278.390874 193.714568 
L 278.390874 197.30963 
L 279.398644 197.30963 
L 279.398644 199.798519 
L 280.406414 199.798519 
L 280.406414 201.181235 
L 281.414184 201.181235 
L 281.414184 198.968889 
L 282.421954 198.968889 
L 282.421954 202.287407 
L 283.429724 202.287407 
L 283.429724 201.181235 
L 284.437494 201.181235 
L 284.437494 196.48 
L 285.445264 196.48 
L 285.445264 194.267654 
L 286.453034 194.267654 
L 286.453034 199.521975 
L 287.460804 199.521975 
L 287.460804 200.351605 
L 289.476344 200.351605 
L 289.476344 192.608395 
L 290.484114 192.608395 
L 290.484114 196.756543 
L 291.491884 196.756543 
L 291.491884 200.904691 
L 292.499654 200.904691 
L 292.499654 205.05284 
L 293.507424 205.05284 
L 293.507424 199.245432 
L 294.515194 199.245432 
L 294.515194 200.904691 
L 295.522964 200.904691 
L 295.522964 202.010864 
L 296.530734 202.010864 
L 296.530734 201.734321 
L 297.538503 201.734321 
L 297.538503 197.30963 
L 298.546273 197.30963 
L 298.546273 200.628148 
L 299.554043 200.628148 
L 299.554043 202.287407 
L 300.561813 202.287407 
L 300.561813 205.882469 
L 301.569583 205.882469 
L 301.569583 203.117037 
L 302.577353 203.117037 
L 302.577353 201.181235 
L 303.585123 201.181235 
L 303.585123 203.670123 
L 304.592893 203.670123 
L 304.592893 204.499753 
L 305.600663 204.499753 
L 305.600663 207.541728 
L 306.608433 207.541728 
L 306.608433 201.457778 
L 307.616203 201.457778 
L 307.616203 204.499753 
L 308.623973 204.499753 
L 308.623973 204.22321 
L 309.631743 204.22321 
L 309.631743 205.05284 
L 310.639513 205.05284 
L 310.639513 201.181235 
L 311.647283 201.181235 
L 311.647283 203.946667 
L 312.655053 203.946667 
L 312.655053 207.541728 
L 313.662823 207.541728 
L 313.662823 208.371358 
L 314.670593 208.371358 
L 314.670593 206.988642 
L 315.678363 206.988642 
L 315.678363 208.094815 
L 316.686133 208.094815 
L 316.686133 216.114568 
L 317.693903 216.114568 
L 317.693903 218.88 
L 319.709443 218.88 
L 319.709443 215.561481 
L 320.717213 215.561481 
L 320.717213 208.371358 
L 321.724983 208.371358 
L 321.724983 209.477531 
L 322.732753 209.477531 
L 322.732753 204.499753 
L 323.740523 204.499753 
L 323.740523 208.647901 
L 324.748293 208.647901 
L 324.748293 211.13679 
L 325.756063 211.13679 
L 325.756063 204.499753 
L 326.763833 204.499753 
L 326.763833 209.200988 
L 327.771603 209.200988 
L 327.771603 210.583704 
L 328.779373 210.583704 
L 328.779373 207.265185 
L 329.787143 207.265185 
L 329.787143 206.712099 
L 330.794913 206.712099 
L 330.794913 204.776296 
L 331.802683 204.776296 
L 331.802683 208.924444 
L 332.810453 208.924444 
L 332.810453 208.371358 
L 333.818223 208.371358 
L 333.818223 210.030617 
L 334.825993 210.030617 
L 334.825993 204.499753 
L 335.833763 204.499753 
L 335.833763 205.882469 
L 336.841533 205.882469 
L 336.841533 207.818272 
L 337.849303 207.818272 
L 337.849303 209.754074 
L 338.857073 209.754074 
L 338.857073 207.818272 
L 339.864843 207.818272 
L 339.864843 208.371358 
L 340.872613 208.371358 
L 340.872613 207.541728 
L 341.880383 207.541728 
L 341.880383 209.200988 
L 342.888153 209.200988 
L 342.888153 208.094815 
L 343.895923 208.094815 
L 343.895923 206.435556 
L 344.903693 206.435556 
L 344.903693 208.094815 
L 345.911463 208.094815 
L 345.911463 210.30716 
L 346.919233 210.30716 
L 346.919233 210.860247 
L 348.934773 210.860247 
L 348.934773 213.625679 
L 349.942543 213.625679 
L 349.942543 212.519506 
L 350.950313 212.519506 
L 350.950313 208.094815 
L 351.958083 208.094815 
L 351.958083 210.30716 
L 352.965853 210.30716 
L 352.965853 210.860247 
L 353.973623 210.860247 
L 353.973623 209.200988 
L 354.981393 209.200988 
L 354.981393 212.242963 
L 355.989162 212.242963 
L 355.989162 210.30716 
L 356.996932 210.30716 
L 356.996932 208.094815 
L 358.004702 208.094815 
L 358.004702 208.371358 
L 359.012472 208.371358 
L 359.012472 210.583704 
L 360.020242 210.583704 
L 360.020242 209.477531 
L 361.028012 209.477531 
L 361.028012 211.96642 
L 362.035782 211.96642 
L 362.035782 214.455309 
L 363.043552 214.455309 
L 363.043552 211.689877 
L 365.059092 211.689877 
L 365.059092 211.689877 
" clip-path="url(#pd66106129c)" style="fill: none; stroke: #1f77b4; stroke-width: 1.5; stroke-linecap: square"/>
   </g>
   <g id="line2d_14">
    <path d="M 62.183807 177.951605 
L 63.198352 177.951605 
L 63.198352 158.040494 
L 64.212898 158.040494 
L 64.212898 156.104691 
L 65.227443 156.104691 
L 65.227443 139.235556 
L 66.241989 139.235556 
L 66.241989 147.255309 
L 67.256534 147.255309 
L 67.256534 145.596049 
L 68.27108 145.596049 
L 68.27108 148.914568 
L 69.285625 148.914568 
L 69.285625 144.213333 
L 70.30017 144.213333 
L 70.30017 140.618272 
L 71.314716 140.618272 
L 71.314716 135.363951 
L 72.329261 135.363951 
L 72.329261 139.235556 
L 73.343807 139.235556 
L 73.343807 139.788642 
L 74.358352 139.788642 
L 74.358352 128.726914 
L 75.372898 128.726914 
L 75.372898 132.321975 
L 76.387443 132.321975 
L 76.387443 148.084938 
L 77.401989 148.084938 
L 77.401989 130.386173 
L 78.416534 130.386173 
L 78.416534 143.660247 
L 79.43108 143.660247 
L 79.43108 138.682469 
L 80.445625 138.682469 
L 80.445625 143.93679 
L 81.46017 143.93679 
L 81.46017 133.981235 
L 82.474716 133.981235 
L 82.474716 143.10716 
L 83.489261 143.10716 
L 83.489261 140.894815 
L 84.503807 140.894815 
L 84.503807 136.19358 
L 85.518352 136.19358 
L 85.518352 136.746667 
L 86.532898 136.746667 
L 86.532898 140.894815 
L 87.547443 140.894815 
L 87.547443 135.087407 
L 88.561989 135.087407 
L 88.561989 127.620741 
L 89.576534 127.620741 
L 89.576534 140.065185 
L 90.59108 140.065185 
L 90.59108 140.618272 
L 91.605625 140.618272 
L 91.605625 140.341728 
L 92.62017 140.341728 
L 92.62017 138.129383 
L 93.634716 138.129383 
L 93.634716 137.576296 
L 94.649261 137.576296 
L 94.649261 130.10963 
L 95.663807 130.10963 
L 95.663807 138.129383 
L 96.678352 138.129383 
L 96.678352 131.215802 
L 97.692898 131.215802 
L 97.692898 139.788642 
L 98.707443 139.788642 
L 98.707443 128.173827 
L 99.721989 128.173827 
L 99.721989 124.302222 
L 100.736534 124.302222 
L 100.736534 134.534321 
L 101.75108 134.534321 
L 101.75108 129.833086 
L 102.765625 129.833086 
L 102.765625 126.791111 
L 103.78017 126.791111 
L 103.78017 124.025679 
L 104.794716 124.025679 
L 104.794716 117.112099 
L 105.809261 117.112099 
L 105.809261 114.346667 
L 106.823807 114.346667 
L 106.823807 121.260247 
L 107.838352 121.260247 
L 107.838352 109.092346 
L 108.852898 109.092346 
L 108.852898 110.198519 
L 109.867443 110.198519 
L 109.867443 98.30716 
L 110.881989 98.30716 
L 110.881989 119.877531 
L 111.896534 119.877531 
L 111.896534 104.114568 
L 112.91108 104.114568 
L 112.91108 113.79358 
L 113.925625 113.79358 
L 113.925625 111.028148 
L 114.94017 111.028148 
L 114.94017 115.176296 
L 115.954716 115.176296 
L 115.954716 120.70716 
L 116.969261 120.70716 
L 116.969261 100.519506 
L 117.983807 100.519506 
L 117.983807 23.363951 
L 118.998352 23.363951 
L 118.998352 62.356543 
L 120.012898 62.356543 
L 120.012898 52.400988 
L 121.027443 52.400988 
L 121.027443 77.842963 
L 122.041989 77.842963 
L 122.041989 64.292346 
L 123.056534 64.292346 
L 123.056534 56.825679 
L 124.07108 56.825679 
L 124.07108 59.038025 
L 125.085625 59.038025 
L 125.085625 56.549136 
L 126.10017 56.549136 
L 126.10017 72.312099 
L 127.114716 72.312099 
L 127.114716 64.568889 
L 128.129261 64.568889 
L 128.129261 64.015802 
L 129.143807 64.015802 
L 129.143807 72.588642 
L 130.158352 72.588642 
L 130.158352 71.482469 
L 131.172898 71.482469 
L 131.172898 78.672593 
L 132.187443 78.672593 
L 132.187443 64.015802 
L 133.201989 64.015802 
L 133.201989 78.119506 
L 134.216534 78.119506 
L 134.216534 75.630617 
L 135.23108 75.630617 
L 135.23108 83.097284 
L 136.245625 83.097284 
L 136.245625 92.499753 
L 137.26017 92.499753 
L 137.26017 84.756543 
L 138.274716 84.756543 
L 138.274716 84.203457 
L 139.289261 84.203457 
L 139.289261 84.756543 
L 140.303807 84.756543 
L 140.303807 85.033086 
L 141.318352 85.033086 
L 141.318352 95.818272 
L 142.332898 95.818272 
L 142.332898 93.05284 
L 143.347443 93.05284 
L 143.347443 110.198519 
L 144.361989 110.198519 
L 144.361989 93.605926 
L 145.376534 93.605926 
L 145.376534 99.96642 
L 146.39108 99.96642 
L 146.39108 111.857778 
L 147.405625 111.857778 
L 147.405625 109.921975 
L 148.42017 109.921975 
L 148.42017 92.22321 
L 149.434716 92.22321 
L 149.434716 107.986173 
L 150.449261 107.986173 
L 150.449261 101.625679 
L 151.463807 101.625679 
L 151.463807 110.198519 
L 152.478352 110.198519 
L 152.478352 113.517037 
L 153.492898 113.517037 
L 153.492898 107.70963 
L 154.507443 107.70963 
L 154.507443 130.10963 
L 155.521989 130.10963 
L 155.521989 113.79358 
L 156.536534 113.79358 
L 156.536534 122.642963 
L 157.55108 122.642963 
L 157.55108 123.472593 
L 158.565625 123.472593 
L 158.565625 132.598519 
L 159.58017 132.598519 
L 159.58017 121.260247 
L 160.594716 121.260247 
L 160.594716 125.131852 
L 161.609261 125.131852 
L 161.609261 125.961481 
L 162.623807 125.961481 
L 162.623807 130.386173 
L 163.638352 130.386173 
L 163.638352 129.833086 
L 164.652898 129.833086 
L 164.652898 143.383704 
L 165.667443 143.383704 
L 165.667443 146.149136 
L 166.681989 146.149136 
L 166.681989 148.638025 
L 167.696534 148.638025 
L 167.696534 151.956543 
L 168.71108 151.956543 
L 168.71108 159.42321 
L 169.725625 159.42321 
L 169.725625 150.020741 
L 170.74017 150.020741 
L 170.74017 98.583704 
L 171.754716 98.583704 
L 171.754716 123.472593 
L 172.769261 123.472593 
L 172.769261 121.53679 
L 173.783807 121.53679 
L 173.783807 135.363951 
L 175.812898 135.363951 
L 175.812898 143.383704 
L 176.827443 143.383704 
L 176.827443 147.531852 
L 177.841989 147.531852 
L 177.841989 134.534321 
L 178.856534 134.534321 
L 178.856534 133.704691 
L 179.87108 133.704691 
L 179.87108 137.576296 
L 180.885625 137.576296 
L 180.885625 145.042963 
L 181.90017 145.042963 
L 181.90017 140.341728 
L 182.914716 140.341728 
L 182.914716 142.554074 
L 183.929261 142.554074 
L 183.929261 142.000988 
L 184.943807 142.000988 
L 184.943807 148.914568 
L 185.958352 148.914568 
L 185.958352 153.615802 
L 186.972898 153.615802 
L 186.972898 146.149136 
L 187.987443 146.149136 
L 187.987443 151.403457 
L 189.001989 151.403457 
L 189.001989 154.721975 
L 190.016534 154.721975 
L 190.016534 145.596049 
L 191.03108 145.596049 
L 191.03108 152.50963 
L 192.045625 152.50963 
L 192.045625 161.082469 
L 193.06017 161.082469 
L 193.06017 163.294815 
L 194.074716 163.294815 
L 194.074716 155.275062 
L 195.089261 155.275062 
L 195.089261 156.934321 
L 196.103807 156.934321 
L 196.103807 154.445432 
L 197.118352 154.445432 
L 197.118352 158.870123 
L 198.132898 158.870123 
L 198.132898 157.210864 
L 199.147443 157.210864 
L 199.147443 157.487407 
L 200.161989 157.487407 
L 200.161989 163.847901 
L 201.176534 163.847901 
L 201.176534 171.591111 
L 202.19108 171.591111 
L 202.19108 161.359012 
L 203.205625 161.359012 
L 203.205625 161.912099 
L 204.22017 161.912099 
L 204.22017 161.635556 
L 205.234716 161.635556 
L 205.234716 161.912099 
L 206.249261 161.912099 
L 206.249261 167.442963 
L 207.263807 167.442963 
L 207.263807 166.060247 
L 208.278352 166.060247 
L 208.278352 165.783704 
L 209.292898 165.783704 
L 209.292898 163.847901 
L 210.307443 163.847901 
L 210.307443 169.655309 
L 211.321989 169.655309 
L 211.321989 172.697284 
L 212.336534 172.697284 
L 212.336534 173.25037 
L 213.35108 173.25037 
L 213.35108 174.633086 
L 214.365625 174.633086 
L 214.365625 174.90963 
L 215.38017 174.90963 
L 215.38017 171.038025 
L 216.394716 171.038025 
L 216.394716 175.462716 
L 217.409261 175.462716 
L 217.409261 177.675062 
L 218.423807 177.675062 
L 218.423807 185.418272 
L 219.438352 185.418272 
L 219.438352 183.205926 
L 220.452898 183.205926 
L 220.452898 185.971358 
L 221.467443 185.971358 
L 221.467443 193.714568 
L 222.481989 193.714568 
L 222.481989 193.438025 
L 223.496534 193.438025 
L 223.496534 183.482469 
L 224.51108 183.482469 
L 224.51108 174.633086 
L 225.525625 174.633086 
L 225.525625 179.057778 
L 226.54017 179.057778 
L 226.54017 185.418272 
L 227.554716 185.418272 
L 227.554716 179.057778 
L 228.569261 179.057778 
L 228.569261 177.121975 
L 229.583807 177.121975 
L 229.583807 176.015802 
L 230.598352 176.015802 
L 230.598352 182.099753 
L 231.612898 182.099753 
L 231.612898 176.845432 
L 232.627443 176.845432 
L 232.627443 178.781235 
L 233.641989 178.781235 
L 233.641989 182.65284 
L 234.656534 182.65284 
L 234.656534 183.482469 
L 235.67108 183.482469 
L 235.67108 183.205926 
L 236.685625 183.205926 
L 236.685625 176.568889 
L 237.70017 176.568889 
L 237.70017 185.418272 
L 238.714716 185.418272 
L 238.714716 183.759012 
L 239.729261 183.759012 
L 239.729261 184.312099 
L 240.743807 184.312099 
L 240.743807 184.588642 
L 241.758352 184.588642 
L 241.758352 184.035556 
L 242.772898 184.035556 
L 242.772898 188.183704 
L 243.787443 188.183704 
L 243.787443 184.588642 
L 244.801989 184.588642 
L 244.801989 184.312099 
L 245.816534 184.312099 
L 245.816534 192.884938 
L 246.83108 192.884938 
L 246.83108 190.119506 
L 247.845625 190.119506 
L 247.845625 188.183704 
L 248.86017 188.183704 
L 248.86017 187.354074 
L 249.874716 187.354074 
L 249.874716 187.630617 
L 250.889261 187.630617 
L 250.889261 189.289877 
L 251.903807 189.289877 
L 251.903807 187.077531 
L 252.918352 187.077531 
L 252.918352 193.438025 
L 253.932898 193.438025 
L 253.932898 189.013333 
L 254.947443 189.013333 
L 254.947443 187.354074 
L 255.961989 187.354074 
L 255.961989 195.65037 
L 256.976534 195.65037 
L 256.976534 195.097284 
L 257.99108 195.097284 
L 257.99108 193.991111 
L 259.005625 193.991111 
L 259.005625 186.247901 
L 260.02017 186.247901 
L 260.02017 197.30963 
L 261.034716 197.30963 
L 261.034716 189.56642 
L 262.049261 189.56642 
L 262.049261 197.033086 
L 263.063807 197.033086 
L 263.063807 196.756543 
L 264.078352 196.756543 
L 264.078352 195.65037 
L 265.092898 195.65037 
L 265.092898 199.521975 
L 267.121989 199.521975 
L 267.121989 198.139259 
L 269.15108 198.139259 
L 269.15108 203.117037 
L 270.165625 203.117037 
L 270.165625 208.371358 
L 271.18017 208.371358 
L 271.18017 213.072593 
L 272.194716 213.072593 
L 272.194716 210.860247 
L 273.209261 210.860247 
L 273.209261 201.181235 
L 274.223807 201.181235 
L 274.223807 197.033086 
L 275.238352 197.033086 
L 275.238352 197.586173 
L 276.252898 197.586173 
L 276.252898 195.373827 
L 277.267443 195.373827 
L 277.267443 197.586173 
L 278.281989 197.586173 
L 278.281989 196.756543 
L 279.296534 196.756543 
L 279.296534 200.904691 
L 280.31108 200.904691 
L 280.31108 200.075062 
L 281.325625 200.075062 
L 281.325625 198.139259 
L 282.34017 198.139259 
L 282.34017 201.734321 
L 283.354716 201.734321 
L 283.354716 202.010864 
L 284.369261 202.010864 
L 284.369261 195.097284 
L 285.383807 195.097284 
L 285.383807 197.30963 
L 286.398352 197.30963 
L 286.398352 198.692346 
L 287.412898 198.692346 
L 287.412898 197.586173 
L 288.427443 197.586173 
L 288.427443 199.798519 
L 289.441989 199.798519 
L 289.441989 196.756543 
L 290.456534 196.756543 
L 290.456534 195.65037 
L 291.47108 195.65037 
L 291.47108 200.904691 
L 292.485625 200.904691 
L 292.485625 202.840494 
L 293.50017 202.840494 
L 293.50017 198.139259 
L 294.514716 198.139259 
L 294.514716 202.010864 
L 295.529261 202.010864 
L 295.529261 201.734321 
L 296.543807 201.734321 
L 296.543807 199.521975 
L 297.558352 199.521975 
L 297.558352 198.968889 
L 298.572898 198.968889 
L 298.572898 201.734321 
L 299.587443 201.734321 
L 299.587443 204.22321 
L 300.601989 204.22321 
L 300.601989 205.05284 
L 301.616534 205.05284 
L 301.616534 199.245432 
L 302.63108 199.245432 
L 302.63108 203.670123 
L 303.645625 203.670123 
L 303.645625 203.117037 
L 304.66017 203.117037 
L 304.66017 202.840494 
L 305.674716 202.840494 
L 305.674716 207.818272 
L 306.689261 207.818272 
L 306.689261 202.287407 
L 307.703807 202.287407 
L 307.703807 203.946667 
L 308.718352 203.946667 
L 308.718352 204.499753 
L 309.732898 204.499753 
L 309.732898 203.117037 
L 310.747443 203.117037 
L 310.747443 202.840494 
L 311.761989 202.840494 
L 311.761989 205.882469 
L 312.776534 205.882469 
L 312.776534 206.435556 
L 313.79108 206.435556 
L 313.79108 208.094815 
L 314.805625 208.094815 
L 314.805625 207.265185 
L 315.82017 207.265185 
L 315.82017 211.13679 
L 316.834716 211.13679 
L 316.834716 214.455309 
L 317.849261 214.455309 
L 317.849261 218.326914 
L 318.863807 218.326914 
L 318.863807 217.497284 
L 319.878352 217.497284 
L 319.878352 213.349136 
L 320.892898 213.349136 
L 320.892898 208.647901 
L 321.907443 208.647901 
L 321.907443 207.541728 
L 322.921989 207.541728 
L 322.921989 205.05284 
L 323.936534 205.05284 
L 323.936534 209.754074 
L 324.95108 209.754074 
L 324.95108 208.924444 
L 325.965625 208.924444 
L 325.965625 206.435556 
L 326.98017 206.435556 
L 326.98017 208.094815 
L 327.994716 208.094815 
L 327.994716 210.030617 
L 329.009261 210.030617 
L 329.009261 207.541728 
L 330.023807 207.541728 
L 330.023807 205.882469 
L 331.038352 205.882469 
L 331.038352 207.541728 
L 332.052898 207.541728 
L 332.052898 207.265185 
L 333.067443 207.265185 
L 333.067443 208.924444 
L 334.081989 208.924444 
L 334.081989 206.712099 
L 335.096534 206.712099 
L 335.096534 207.541728 
L 336.11108 207.541728 
L 336.11108 206.712099 
L 337.125625 206.712099 
L 337.125625 206.988642 
L 338.14017 206.988642 
L 338.14017 208.371358 
L 339.154716 208.371358 
L 339.154716 207.541728 
L 340.169261 207.541728 
L 340.169261 210.583704 
L 341.183807 210.583704 
L 341.183807 206.159012 
L 342.198352 206.159012 
L 342.198352 209.754074 
L 343.212898 209.754074 
L 343.212898 206.159012 
L 344.227443 206.159012 
L 344.227443 207.265185 
L 345.241989 207.265185 
L 345.241989 210.030617 
L 346.256534 210.030617 
L 346.256534 208.647901 
L 347.27108 208.647901 
L 347.27108 212.242963 
L 348.285625 212.242963 
L 348.285625 211.413333 
L 349.30017 211.413333 
L 349.30017 212.242963 
L 350.314716 212.242963 
L 350.314716 211.96642 
L 351.329261 211.96642 
L 351.329261 209.200988 
L 352.343807 209.200988 
L 352.343807 211.413333 
L 353.358352 211.413333 
L 353.358352 210.30716 
L 354.372898 210.30716 
L 354.372898 208.924444 
L 355.387443 208.924444 
L 355.387443 210.30716 
L 356.401989 210.30716 
L 356.401989 211.13679 
L 357.416534 211.13679 
L 357.416534 207.541728 
L 358.43108 207.541728 
L 358.43108 210.583704 
L 359.445625 210.583704 
L 359.445625 208.924444 
L 360.46017 208.924444 
L 360.46017 209.200988 
L 361.474716 209.200988 
L 361.474716 213.902222 
L 362.489261 213.902222 
L 362.489261 212.796049 
L 363.503807 212.796049 
L 363.503807 211.689877 
L 364.518352 211.689877 
L 364.518352 215.284938 
L 365.532898 215.284938 
L 365.532898 216.391111 
L 366.547443 216.391111 
L 366.547443 216.391111 
" clip-path="url(#pd66106129c)" style="fill: none; stroke: #ff7f0e; stroke-width: 1.5; stroke-linecap: square"/>
   </g>
   <g id="patch_3">
    <path d="M 46.965625 228.96 
L 46.965625 7.2 
" style="fill: none; stroke: #000000; stroke-width: 0.8; stroke-linejoin: miter; stroke-linecap: square"/>
   </g>
   <g id="patch_4">
    <path d="M 381.765625 228.96 
L 381.765625 7.2 
" style="fill: none; stroke: #000000; stroke-width: 0.8; stroke-linejoin: miter; stroke-linecap: square"/>
   </g>
   <g id="patch_5">
    <path d="M 46.965625 228.96 
L 381.765625 228.96 
" style="fill: none; stroke: #000000; stroke-width: 0.8; stroke-linejoin: miter; stroke-linecap: square"/>
   </g>
   <g id="patch_6">
    <path d="M 46.965625 7.2 
L 381.765625 7.2 
" style="fill: none; stroke: #000000; stroke-width: 0.8; stroke-linejoin: miter; stroke-linecap: square"/>
   </g>
   <g id="legend_1">
    <g id="patch_7">
     <path d="M 305.3875 44.55625 
L 374.765625 44.55625 
Q 376.765625 44.55625 376.765625 42.55625 
L 376.765625 14.2 
Q 376.765625 12.2 374.765625 12.2 
L 305.3875 12.2 
Q 303.3875 12.2 303.3875 14.2 
L 303.3875 42.55625 
Q 303.3875 44.55625 305.3875 44.55625 
z
" style="fill: #ffffff; opacity: 0.8; stroke: #cccccc; stroke-linejoin: miter"/>
    </g>
    <g id="line2d_15">
     <path d="M 307.3875 20.298438 
L 307.3875 20.298438 
L 317.3875 20.298438 
L 317.3875 20.298438 
L 327.3875 20.298438 
" style="fill: none; stroke: #1f77b4; stroke-width: 1.5; stroke-linecap: square"/>
    </g>
    <g id="text_15">
     <!-- wfm -->
     <g transform="translate(335.3875 23.798438) scale(0.1 -0.1)">
      <defs>
       <path id="DejaVuSans-66" d="M 2375 4863 
L 2375 4384 
L 1825 4384 
Q 1516 4384 1395 4259 
Q 1275 4134 1275 3809 
L 1275 3500 
L 2222 3500 
L 2222 3053 
L 1275 3053 
L 1275 0 
L 697 0 
L 697 3053 
L 147 3053 
L 147 3500 
L 697 3500 
L 697 3744 
Q 697 4328 969 4595 
Q 1241 4863 1831 4863 
L 2375 4863 
z
" transform="scale(0.015625)"/>
       <path id="DejaVuSans-6d" d="M 3328 2828 
Q 3544 3216 3844 3400 
Q 4144 3584 4550 3584 
Q 5097 3584 5394 3201 
Q 5691 2819 5691 2113 
L 5691 0 
L 5113 0 
L 5113 2094 
Q 5113 2597 4934 2840 
Q 4756 3084 4391 3084 
Q 3944 3084 3684 2787 
Q 3425 2491 3425 1978 
L 3425 0 
L 2847 0 
L 2847 2094 
Q 2847 2600 2669 2842 
Q 2491 3084 2119 3084 
Q 1678 3084 1418 2786 
Q 1159 2488 1159 1978 
L 1159 0 
L 581 0 
L 581 3500 
L 1159 3500 
L 1159 2956 
Q 1356 3278 1631 3431 
Q 1906 3584 2284 3584 
Q 2666 3584 2933 3390 
Q 3200 3197 3328 2828 
z
" transform="scale(0.015625)"/>
      </defs>
      <use xlink:href="#DejaVuSans-77"/>
      <use xlink:href="#DejaVuSans-66" transform="translate(81.787109 0)"/>
      <use xlink:href="#DejaVuSans-6d" transform="translate(116.992188 0)"/>
     </g>
    </g>
    <g id="line2d_16">
     <path d="M 307.3875 34.976562 
L 307.3875 34.976562 
L 317.3875 34.976562 
L 317.3875 34.976562 
L 327.3875 34.976562 
" style="fill: none; stroke: #ff7f0e; stroke-width: 1.5; stroke-linecap: square"/>
    </g>
    <g id="text_16">
     <!-- original -->
     <g transform="translate(335.3875 38.476562) scale(0.1 -0.1)">
      <defs>
       <path id="DejaVuSans-72" d="M 2631 2963 
Q 2534 3019 2420 3045 
Q 2306 3072 2169 3072 
Q 1681 3072 1420 2755 
Q 1159 2438 1159 1844 
L 1159 0 
L 581 0 
L 581 3500 
L 1159 3500 
L 1159 2956 
Q 1341 3275 1631 3429 
Q 1922 3584 2338 3584 
Q 2397 3584 2469 3576 
Q 2541 3569 2628 3553 
L 2631 2963 
z
" transform="scale(0.015625)"/>
       <path id="DejaVuSans-69" d="M 603 3500 
L 1178 3500 
L 1178 0 
L 603 0 
L 603 3500 
z
M 603 4863 
L 1178 4863 
L 1178 4134 
L 603 4134 
L 603 4863 
z
" transform="scale(0.015625)"/>
      </defs>
      <use xlink:href="#DejaVuSans-6f"/>
      <use xlink:href="#DejaVuSans-72" transform="translate(61.181641 0)"/>
      <use xlink:href="#DejaVuSans-69" transform="translate(102.294922 0)"/>
      <use xlink:href="#DejaVuSans-67" transform="translate(130.078125 0)"/>
      <use xlink:href="#DejaVuSans-69" transform="translate(193.554688 0)"/>
      <use xlink:href="#DejaVuSans-6e" transform="translate(221.337891 0)"/>
      <use xlink:href="#DejaVuSans-61" transform="translate(284.716797 0)"/>
      <use xlink:href="#DejaVuSans-6c" transform="translate(345.996094 0)"/>
     </g>
    </g>
   </g>
  </g>
 </g>
 <defs>
  <clipPath id="pd66106129c">
   <rect x="46.965625" y="7.2" width="334.8" height="221.76"/>
  </clipPath>
 </defs>
</svg>
