<?xml version="1.0" encoding="utf-8" standalone="no"?>
<!DOCTYPE svg PUBLIC "-//W3C//DTD SVG 1.1//EN"
  "http://www.w3.org/Graphics/SVG/1.1/DTD/svg11.dtd">
<svg xmlns:xlink="http://www.w3.org/1999/xlink" width="388.965625pt" height="268.200625pt" viewBox="0 0 388.965625 268.200625" xmlns="http://www.w3.org/2000/svg" version="1.1">
 <metadata>
  <rdf:RDF xmlns:dc="http://purl.org/dc/elements/1.1/" xmlns:cc="http://creativecommons.org/ns#" xmlns:rdf="http://www.w3.org/1999/02/22-rdf-syntax-ns#">
   <cc:Work>
    <dc:type rdf:resource="http://purl.org/dc/dcmitype/StillImage"/>
    <dc:date>2025-10-02T14:01:06.480595</dc:date>
    <dc:format>image/svg+xml</dc:format>
    <dc:creator>
     <cc:Agent>
      <dc:title>Matplotlib v3.10.1, https://matplotlib.org/</dc:title>
     </cc:Agent>
    </dc:creator>
   </cc:Work>
  </rdf:RDF>
 </metadata>
 <defs>
  <style type="text/css">*{stroke-linejoin: round; stroke-linecap: butt}</style>
 </defs>
 <g id="figure_1">
  <g id="patch_1">
   <path d="M 0 268.200625 
L 388.965625 268.200625 
L 388.965625 0 
L 0 0 
z
" style="fill: #ffffff"/>
  </g>
  <g id="axes_1">
   <g id="patch_2">
    <path d="M 46.965625 228.96 
L 381.765625 228.96 
L 381.765625 7.2 
L 46.965625 7.2 
z
" style="fill: #ffffff"/>
   </g>
   <g id="matplotlib.axis_1">
    <g id="xtick_1">
     <g id="line2d_1">
      <defs>
       <path id="md72733770b" d="M 0 0 
L 0 3.5 
" style="stroke: #000000; stroke-width: 0.8"/>
      </defs>
      <g>
       <use xlink:href="#md72733770b" x="70.358912" y="228.96" style="stroke: #000000; stroke-width: 0.8"/>
      </g>
     </g>
     <g id="text_1">
      <!-- 1.0 -->
      <g transform="translate(62.40735 243.558437) scale(0.1 -0.1)">
       <defs>
        <path id="DejaVuSans-31" d="M 794 531 
L 1825 531 
L 1825 4091 
L 703 3866 
L 703 4441 
L 1819 4666 
L 2450 4666 
L 2450 531 
L 3481 531 
L 3481 0 
L 794 0 
L 794 531 
z
" transform="scale(0.015625)"/>
        <path id="DejaVuSans-2e" d="M 684 794 
L 1344 794 
L 1344 0 
L 684 0 
L 684 794 
z
" transform="scale(0.015625)"/>
        <path id="DejaVuSans-30" d="M 2034 4250 
Q 1547 4250 1301 3770 
Q 1056 3291 1056 2328 
Q 1056 1369 1301 889 
Q 1547 409 2034 409 
Q 2525 409 2770 889 
Q 3016 1369 3016 2328 
Q 3016 3291 2770 3770 
Q 2525 4250 2034 4250 
z
M 2034 4750 
Q 2819 4750 3233 4129 
Q 3647 3509 3647 2328 
Q 3647 1150 3233 529 
Q 2819 -91 2034 -91 
Q 1250 -91 836 529 
Q 422 1150 422 2328 
Q 422 3509 836 4129 
Q 1250 4750 2034 4750 
z
" transform="scale(0.015625)"/>
       </defs>
       <use xlink:href="#DejaVuSans-31"/>
       <use xlink:href="#DejaVuSans-2e" transform="translate(63.623047 0)"/>
       <use xlink:href="#DejaVuSans-30" transform="translate(95.410156 0)"/>
      </g>
     </g>
    </g>
    <g id="xtick_2">
     <g id="line2d_2">
      <g>
       <use xlink:href="#md72733770b" x="112.584548" y="228.96" style="stroke: #000000; stroke-width: 0.8"/>
      </g>
     </g>
     <g id="text_2">
      <!-- 1.5 -->
      <g transform="translate(104.632985 243.558437) scale(0.1 -0.1)">
       <defs>
        <path id="DejaVuSans-35" d="M 691 4666 
L 3169 4666 
L 3169 4134 
L 1269 4134 
L 1269 2991 
Q 1406 3038 1543 3061 
Q 1681 3084 1819 3084 
Q 2600 3084 3056 2656 
Q 3513 2228 3513 1497 
Q 3513 744 3044 326 
Q 2575 -91 1722 -91 
Q 1428 -91 1123 -41 
Q 819 9 494 109 
L 494 744 
Q 775 591 1075 516 
Q 1375 441 1709 441 
Q 2250 441 2565 725 
Q 2881 1009 2881 1497 
Q 2881 1984 2565 2268 
Q 2250 2553 1709 2553 
Q 1456 2553 1204 2497 
Q 953 2441 691 2322 
L 691 4666 
z
" transform="scale(0.015625)"/>
       </defs>
       <use xlink:href="#DejaVuSans-31"/>
       <use xlink:href="#DejaVuSans-2e" transform="translate(63.623047 0)"/>
       <use xlink:href="#DejaVuSans-35" transform="translate(95.410156 0)"/>
      </g>
     </g>
    </g>
    <g id="xtick_3">
     <g id="line2d_3">
      <g>
       <use xlink:href="#md72733770b" x="154.810183" y="228.96" style="stroke: #000000; stroke-width: 0.8"/>
      </g>
     </g>
     <g id="text_3">
      <!-- 2.0 -->
      <g transform="translate(146.858621 243.558437) scale(0.1 -0.1)">
       <defs>
        <path id="DejaVuSans-32" d="M 1228 531 
L 3431 531 
L 3431 0 
L 469 0 
L 469 531 
Q 828 903 1448 1529 
Q 2069 2156 2228 2338 
Q 2531 2678 2651 2914 
Q 2772 3150 2772 3378 
Q 2772 3750 2511 3984 
Q 2250 4219 1831 4219 
Q 1534 4219 1204 4116 
Q 875 4013 500 3803 
L 500 4441 
Q 881 4594 1212 4672 
Q 1544 4750 1819 4750 
Q 2544 4750 2975 4387 
Q 3406 4025 3406 3419 
Q 3406 3131 3298 2873 
Q 3191 2616 2906 2266 
Q 2828 2175 2409 1742 
Q 1991 1309 1228 531 
z
" transform="scale(0.015625)"/>
       </defs>
       <use xlink:href="#DejaVuSans-32"/>
       <use xlink:href="#DejaVuSans-2e" transform="translate(63.623047 0)"/>
       <use xlink:href="#DejaVuSans-30" transform="translate(95.410156 0)"/>
      </g>
     </g>
    </g>
    <g id="xtick_4">
     <g id="line2d_4">
      <g>
       <use xlink:href="#md72733770b" x="197.035819" y="228.96" style="stroke: #000000; stroke-width: 0.8"/>
      </g>
     </g>
     <g id="text_4">
      <!-- 2.5 -->
      <g transform="translate(189.084256 243.558437) scale(0.1 -0.1)">
       <use xlink:href="#DejaVuSans-32"/>
       <use xlink:href="#DejaVuSans-2e" transform="translate(63.623047 0)"/>
       <use xlink:href="#DejaVuSans-35" transform="translate(95.410156 0)"/>
      </g>
     </g>
    </g>
    <g id="xtick_5">
     <g id="line2d_5">
      <g>
       <use xlink:href="#md72733770b" x="239.261454" y="228.96" style="stroke: #000000; stroke-width: 0.8"/>
      </g>
     </g>
     <g id="text_5">
      <!-- 3.0 -->
      <g transform="translate(231.309892 243.558437) scale(0.1 -0.1)">
       <defs>
        <path id="DejaVuSans-33" d="M 2597 2516 
Q 3050 2419 3304 2112 
Q 3559 1806 3559 1356 
Q 3559 666 3084 287 
Q 2609 -91 1734 -91 
Q 1441 -91 1130 -33 
Q 819 25 488 141 
L 488 750 
Q 750 597 1062 519 
Q 1375 441 1716 441 
Q 2309 441 2620 675 
Q 2931 909 2931 1356 
Q 2931 1769 2642 2001 
Q 2353 2234 1838 2234 
L 1294 2234 
L 1294 2753 
L 1863 2753 
Q 2328 2753 2575 2939 
Q 2822 3125 2822 3475 
Q 2822 3834 2567 4026 
Q 2313 4219 1838 4219 
Q 1578 4219 1281 4162 
Q 984 4106 628 3988 
L 628 4550 
Q 988 4650 1302 4700 
Q 1616 4750 1894 4750 
Q 2613 4750 3031 4423 
Q 3450 4097 3450 3541 
Q 3450 3153 3228 2886 
Q 3006 2619 2597 2516 
z
" transform="scale(0.015625)"/>
       </defs>
       <use xlink:href="#DejaVuSans-33"/>
       <use xlink:href="#DejaVuSans-2e" transform="translate(63.623047 0)"/>
       <use xlink:href="#DejaVuSans-30" transform="translate(95.410156 0)"/>
      </g>
     </g>
    </g>
    <g id="xtick_6">
     <g id="line2d_6">
      <g>
       <use xlink:href="#md72733770b" x="281.48709" y="228.96" style="stroke: #000000; stroke-width: 0.8"/>
      </g>
     </g>
     <g id="text_6">
      <!-- 3.5 -->
      <g transform="translate(273.535527 243.558437) scale(0.1 -0.1)">
       <use xlink:href="#DejaVuSans-33"/>
       <use xlink:href="#DejaVuSans-2e" transform="translate(63.623047 0)"/>
       <use xlink:href="#DejaVuSans-35" transform="translate(95.410156 0)"/>
      </g>
     </g>
    </g>
    <g id="xtick_7">
     <g id="line2d_7">
      <g>
       <use xlink:href="#md72733770b" x="323.712725" y="228.96" style="stroke: #000000; stroke-width: 0.8"/>
      </g>
     </g>
     <g id="text_7">
      <!-- 4.0 -->
      <g transform="translate(315.761163 243.558437) scale(0.1 -0.1)">
       <defs>
        <path id="DejaVuSans-34" d="M 2419 4116 
L 825 1625 
L 2419 1625 
L 2419 4116 
z
M 2253 4666 
L 3047 4666 
L 3047 1625 
L 3713 1625 
L 3713 1100 
L 3047 1100 
L 3047 0 
L 2419 0 
L 2419 1100 
L 313 1100 
L 313 1709 
L 2253 4666 
z
" transform="scale(0.015625)"/>
       </defs>
       <use xlink:href="#DejaVuSans-34"/>
       <use xlink:href="#DejaVuSans-2e" transform="translate(63.623047 0)"/>
       <use xlink:href="#DejaVuSans-30" transform="translate(95.410156 0)"/>
      </g>
     </g>
    </g>
    <g id="xtick_8">
     <g id="line2d_8">
      <g>
       <use xlink:href="#md72733770b" x="365.938361" y="228.96" style="stroke: #000000; stroke-width: 0.8"/>
      </g>
     </g>
     <g id="text_8">
      <!-- 4.5 -->
      <g transform="translate(357.986798 243.558437) scale(0.1 -0.1)">
       <use xlink:href="#DejaVuSans-34"/>
       <use xlink:href="#DejaVuSans-2e" transform="translate(63.623047 0)"/>
       <use xlink:href="#DejaVuSans-35" transform="translate(95.410156 0)"/>
      </g>
     </g>
    </g>
    <g id="text_9">
     <!-- wavelength [Å] -->
     <g transform="translate(176.328125 258.920937) scale(0.1 -0.1)">
      <defs>
       <path id="DejaVuSans-77" d="M 269 3500 
L 844 3500 
L 1563 769 
L 2278 3500 
L 2956 3500 
L 3675 769 
L 4391 3500 
L 4966 3500 
L 4050 0 
L 3372 0 
L 2619 2869 
L 1863 0 
L 1184 0 
L 269 3500 
z
" transform="scale(0.015625)"/>
       <path id="DejaVuSans-61" d="M 2194 1759 
Q 1497 1759 1228 1600 
Q 959 1441 959 1056 
Q 959 750 1161 570 
Q 1363 391 1709 391 
Q 2188 391 2477 730 
Q 2766 1069 2766 1631 
L 2766 1759 
L 2194 1759 
z
M 3341 1997 
L 3341 0 
L 2766 0 
L 2766 531 
Q 2569 213 2275 61 
Q 1981 -91 1556 -91 
Q 1019 -91 701 211 
Q 384 513 384 1019 
Q 384 1609 779 1909 
Q 1175 2209 1959 2209 
L 2766 2209 
L 2766 2266 
Q 2766 2663 2505 2880 
Q 2244 3097 1772 3097 
Q 1472 3097 1187 3025 
Q 903 2953 641 2809 
L 641 3341 
Q 956 3463 1253 3523 
Q 1550 3584 1831 3584 
Q 2591 3584 2966 3190 
Q 3341 2797 3341 1997 
z
" transform="scale(0.015625)"/>
       <path id="DejaVuSans-76" d="M 191 3500 
L 800 3500 
L 1894 563 
L 2988 3500 
L 3597 3500 
L 2284 0 
L 1503 0 
L 191 3500 
z
" transform="scale(0.015625)"/>
       <path id="DejaVuSans-65" d="M 3597 1894 
L 3597 1613 
L 953 1613 
Q 991 1019 1311 708 
Q 1631 397 2203 397 
Q 2534 397 2845 478 
Q 3156 559 3463 722 
L 3463 178 
Q 3153 47 2828 -22 
Q 2503 -91 2169 -91 
Q 1331 -91 842 396 
Q 353 884 353 1716 
Q 353 2575 817 3079 
Q 1281 3584 2069 3584 
Q 2775 3584 3186 3129 
Q 3597 2675 3597 1894 
z
M 3022 2063 
Q 3016 2534 2758 2815 
Q 2500 3097 2075 3097 
Q 1594 3097 1305 2825 
Q 1016 2553 972 2059 
L 3022 2063 
z
" transform="scale(0.015625)"/>
       <path id="DejaVuSans-6c" d="M 603 4863 
L 1178 4863 
L 1178 0 
L 603 0 
L 603 4863 
z
" transform="scale(0.015625)"/>
       <path id="DejaVuSans-6e" d="M 3513 2113 
L 3513 0 
L 2938 0 
L 2938 2094 
Q 2938 2591 2744 2837 
Q 2550 3084 2163 3084 
Q 1697 3084 1428 2787 
Q 1159 2491 1159 1978 
L 1159 0 
L 581 0 
L 581 3500 
L 1159 3500 
L 1159 2956 
Q 1366 3272 1645 3428 
Q 1925 3584 2291 3584 
Q 2894 3584 3203 3211 
Q 3513 2838 3513 2113 
z
" transform="scale(0.015625)"/>
       <path id="DejaVuSans-67" d="M 2906 1791 
Q 2906 2416 2648 2759 
Q 2391 3103 1925 3103 
Q 1463 3103 1205 2759 
Q 947 2416 947 1791 
Q 947 1169 1205 825 
Q 1463 481 1925 481 
Q 2391 481 2648 825 
Q 2906 1169 2906 1791 
z
M 3481 434 
Q 3481 -459 3084 -895 
Q 2688 -1331 1869 -1331 
Q 1566 -1331 1297 -1286 
Q 1028 -1241 775 -1147 
L 775 -588 
Q 1028 -725 1275 -790 
Q 1522 -856 1778 -856 
Q 2344 -856 2625 -561 
Q 2906 -266 2906 331 
L 2906 616 
Q 2728 306 2450 153 
Q 2172 0 1784 0 
Q 1141 0 747 490 
Q 353 981 353 1791 
Q 353 2603 747 3093 
Q 1141 3584 1784 3584 
Q 2172 3584 2450 3431 
Q 2728 3278 2906 2969 
L 2906 3500 
L 3481 3500 
L 3481 434 
z
" transform="scale(0.015625)"/>
       <path id="DejaVuSans-74" d="M 1172 4494 
L 1172 3500 
L 2356 3500 
L 2356 3053 
L 1172 3053 
L 1172 1153 
Q 1172 725 1289 603 
Q 1406 481 1766 481 
L 2356 481 
L 2356 0 
L 1766 0 
Q 1100 0 847 248 
Q 594 497 594 1153 
L 594 3053 
L 172 3053 
L 172 3500 
L 594 3500 
L 594 4494 
L 1172 4494 
z
" transform="scale(0.015625)"/>
       <path id="DejaVuSans-68" d="M 3513 2113 
L 3513 0 
L 2938 0 
L 2938 2094 
Q 2938 2591 2744 2837 
Q 2550 3084 2163 3084 
Q 1697 3084 1428 2787 
Q 1159 2491 1159 1978 
L 1159 0 
L 581 0 
L 581 4863 
L 1159 4863 
L 1159 2956 
Q 1366 3272 1645 3428 
Q 1925 3584 2291 3584 
Q 2894 3584 3203 3211 
Q 3513 2838 3513 2113 
z
" transform="scale(0.015625)"/>
       <path id="DejaVuSans-20" transform="scale(0.015625)"/>
       <path id="DejaVuSans-5b" d="M 550 4863 
L 1875 4863 
L 1875 4416 
L 1125 4416 
L 1125 -397 
L 1875 -397 
L 1875 -844 
L 550 -844 
L 550 4863 
z
" transform="scale(0.015625)"/>
       <path id="DejaVuSans-c5" d="M 2663 5081 
Q 2663 5278 2523 5417 
Q 2384 5556 2188 5556 
Q 1988 5556 1852 5420 
Q 1716 5284 1716 5081 
Q 1716 4884 1853 4746 
Q 1991 4609 2188 4609 
Q 2384 4609 2523 4746 
Q 2663 4884 2663 5081 
z
M 2188 4044 
L 1338 1722 
L 3041 1722 
L 2188 4044 
z
M 1716 4366 
Q 1525 4494 1428 4673 
Q 1331 4853 1331 5081 
Q 1331 5441 1579 5691 
Q 1828 5941 2188 5941 
Q 2544 5941 2795 5689 
Q 3047 5438 3047 5081 
Q 3047 4863 2948 4678 
Q 2850 4494 2663 4366 
L 4325 0 
L 3669 0 
L 3244 1197 
L 1141 1197 
L 716 0 
L 50 0 
L 1716 4366 
z
" transform="scale(0.015625)"/>
       <path id="DejaVuSans-5d" d="M 1947 4863 
L 1947 -844 
L 622 -844 
L 622 -397 
L 1369 -397 
L 1369 4416 
L 622 4416 
L 622 4863 
L 1947 4863 
z
" transform="scale(0.015625)"/>
      </defs>
      <use xlink:href="#DejaVuSans-77"/>
      <use xlink:href="#DejaVuSans-61" transform="translate(81.787109 0)"/>
      <use xlink:href="#DejaVuSans-76" transform="translate(143.066406 0)"/>
      <use xlink:href="#DejaVuSans-65" transform="translate(202.246094 0)"/>
      <use xlink:href="#DejaVuSans-6c" transform="translate(263.769531 0)"/>
      <use xlink:href="#DejaVuSans-65" transform="translate(291.552734 0)"/>
      <use xlink:href="#DejaVuSans-6e" transform="translate(353.076172 0)"/>
      <use xlink:href="#DejaVuSans-67" transform="translate(416.455078 0)"/>
      <use xlink:href="#DejaVuSans-74" transform="translate(479.931641 0)"/>
      <use xlink:href="#DejaVuSans-68" transform="translate(519.140625 0)"/>
      <use xlink:href="#DejaVuSans-20" transform="translate(582.519531 0)"/>
      <use xlink:href="#DejaVuSans-5b" transform="translate(614.306641 0)"/>
      <use xlink:href="#DejaVuSans-c5" transform="translate(653.320312 0)"/>
      <use xlink:href="#DejaVuSans-5d" transform="translate(721.728516 0)"/>
     </g>
    </g>
   </g>
   <g id="matplotlib.axis_2">
    <g id="ytick_1">
     <g id="line2d_9">
      <defs>
       <path id="m9a88c20f46" d="M 0 0 
L -3.5 0 
" style="stroke: #000000; stroke-width: 0.8"/>
      </defs>
      <g>
       <use xlink:href="#m9a88c20f46" x="46.965625" y="218.88" style="stroke: #000000; stroke-width: 0.8"/>
      </g>
     </g>
     <g id="text_10">
      <!-- 0 -->
      <g transform="translate(33.603125 222.679219) scale(0.1 -0.1)">
       <use xlink:href="#DejaVuSans-30"/>
      </g>
     </g>
    </g>
    <g id="ytick_2">
     <g id="line2d_10">
      <g>
       <use xlink:href="#m9a88c20f46" x="46.965625" y="187.38" style="stroke: #000000; stroke-width: 0.8"/>
      </g>
     </g>
     <g id="text_11">
      <!-- 100 -->
      <g transform="translate(20.878125 191.179219) scale(0.1 -0.1)">
       <use xlink:href="#DejaVuSans-31"/>
       <use xlink:href="#DejaVuSans-30" transform="translate(63.623047 0)"/>
       <use xlink:href="#DejaVuSans-30" transform="translate(127.246094 0)"/>
      </g>
     </g>
    </g>
    <g id="ytick_3">
     <g id="line2d_11">
      <g>
       <use xlink:href="#m9a88c20f46" x="46.965625" y="155.88" style="stroke: #000000; stroke-width: 0.8"/>
      </g>
     </g>
     <g id="text_12">
      <!-- 200 -->
      <g transform="translate(20.878125 159.679219) scale(0.1 -0.1)">
       <use xlink:href="#DejaVuSans-32"/>
       <use xlink:href="#DejaVuSans-30" transform="translate(63.623047 0)"/>
       <use xlink:href="#DejaVuSans-30" transform="translate(127.246094 0)"/>
      </g>
     </g>
    </g>
    <g id="ytick_4">
     <g id="line2d_12">
      <g>
       <use xlink:href="#m9a88c20f46" x="46.965625" y="124.38" style="stroke: #000000; stroke-width: 0.8"/>
      </g>
     </g>
     <g id="text_13">
      <!-- 300 -->
      <g transform="translate(20.878125 128.179219) scale(0.1 -0.1)">
       <use xlink:href="#DejaVuSans-33"/>
       <use xlink:href="#DejaVuSans-30" transform="translate(63.623047 0)"/>
       <use xlink:href="#DejaVuSans-30" transform="translate(127.246094 0)"/>
      </g>
     </g>
    </g>
    <g id="ytick_5">
     <g id="line2d_13">
      <g>
       <use xlink:href="#m9a88c20f46" x="46.965625" y="92.88" style="stroke: #000000; stroke-width: 0.8"/>
      </g>
     </g>
     <g id="text_14">
      <!-- 400 -->
      <g transform="translate(20.878125 96.679219) scale(0.1 -0.1)">
       <use xlink:href="#DejaVuSans-34"/>
       <use xlink:href="#DejaVuSans-30" transform="translate(63.623047 0)"/>
       <use xlink:href="#DejaVuSans-30" transform="translate(127.246094 0)"/>
      </g>
     </g>
    </g>
    <g id="ytick_6">
     <g id="line2d_14">
      <g>
       <use xlink:href="#m9a88c20f46" x="46.965625" y="61.38" style="stroke: #000000; stroke-width: 0.8"/>
      </g>
     </g>
     <g id="text_15">
      <!-- 500 -->
      <g transform="translate(20.878125 65.179219) scale(0.1 -0.1)">
       <use xlink:href="#DejaVuSans-35"/>
       <use xlink:href="#DejaVuSans-30" transform="translate(63.623047 0)"/>
       <use xlink:href="#DejaVuSans-30" transform="translate(127.246094 0)"/>
      </g>
     </g>
    </g>
    <g id="ytick_7">
     <g id="line2d_15">
      <g>
       <use xlink:href="#m9a88c20f46" x="46.965625" y="29.88" style="stroke: #000000; stroke-width: 0.8"/>
      </g>
     </g>
     <g id="text_16">
      <!-- 600 -->
      <g transform="translate(20.878125 33.679219) scale(0.1 -0.1)">
       <defs>
        <path id="DejaVuSans-36" d="M 2113 2584 
Q 1688 2584 1439 2293 
Q 1191 2003 1191 1497 
Q 1191 994 1439 701 
Q 1688 409 2113 409 
Q 2538 409 2786 701 
Q 3034 994 3034 1497 
Q 3034 2003 2786 2293 
Q 2538 2584 2113 2584 
z
M 3366 4563 
L 3366 3988 
Q 3128 4100 2886 4159 
Q 2644 4219 2406 4219 
Q 1781 4219 1451 3797 
Q 1122 3375 1075 2522 
Q 1259 2794 1537 2939 
Q 1816 3084 2150 3084 
Q 2853 3084 3261 2657 
Q 3669 2231 3669 1497 
Q 3669 778 3244 343 
Q 2819 -91 2113 -91 
Q 1303 -91 875 529 
Q 447 1150 447 2328 
Q 447 3434 972 4092 
Q 1497 4750 2381 4750 
Q 2619 4750 2861 4703 
Q 3103 4656 3366 4563 
z
" transform="scale(0.015625)"/>
       </defs>
       <use xlink:href="#DejaVuSans-36"/>
       <use xlink:href="#DejaVuSans-30" transform="translate(63.623047 0)"/>
       <use xlink:href="#DejaVuSans-30" transform="translate(127.246094 0)"/>
      </g>
     </g>
    </g>
    <g id="text_17">
     <!-- [counts] -->
     <g transform="translate(14.798438 138.6925) rotate(-90) scale(0.1 -0.1)">
      <defs>
       <path id="DejaVuSans-63" d="M 3122 3366 
L 3122 2828 
Q 2878 2963 2633 3030 
Q 2388 3097 2138 3097 
Q 1578 3097 1268 2742 
Q 959 2388 959 1747 
Q 959 1106 1268 751 
Q 1578 397 2138 397 
Q 2388 397 2633 464 
Q 2878 531 3122 666 
L 3122 134 
Q 2881 22 2623 -34 
Q 2366 -91 2075 -91 
Q 1284 -91 818 406 
Q 353 903 353 1747 
Q 353 2603 823 3093 
Q 1294 3584 2113 3584 
Q 2378 3584 2631 3529 
Q 2884 3475 3122 3366 
z
" transform="scale(0.015625)"/>
       <path id="DejaVuSans-6f" d="M 1959 3097 
Q 1497 3097 1228 2736 
Q 959 2375 959 1747 
Q 959 1119 1226 758 
Q 1494 397 1959 397 
Q 2419 397 2687 759 
Q 2956 1122 2956 1747 
Q 2956 2369 2687 2733 
Q 2419 3097 1959 3097 
z
M 1959 3584 
Q 2709 3584 3137 3096 
Q 3566 2609 3566 1747 
Q 3566 888 3137 398 
Q 2709 -91 1959 -91 
Q 1206 -91 779 398 
Q 353 888 353 1747 
Q 353 2609 779 3096 
Q 1206 3584 1959 3584 
z
" transform="scale(0.015625)"/>
       <path id="DejaVuSans-75" d="M 544 1381 
L 544 3500 
L 1119 3500 
L 1119 1403 
Q 1119 906 1312 657 
Q 1506 409 1894 409 
Q 2359 409 2629 706 
Q 2900 1003 2900 1516 
L 2900 3500 
L 3475 3500 
L 3475 0 
L 2900 0 
L 2900 538 
Q 2691 219 2414 64 
Q 2138 -91 1772 -91 
Q 1169 -91 856 284 
Q 544 659 544 1381 
z
M 1991 3584 
L 1991 3584 
z
" transform="scale(0.015625)"/>
       <path id="DejaVuSans-73" d="M 2834 3397 
L 2834 2853 
Q 2591 2978 2328 3040 
Q 2066 3103 1784 3103 
Q 1356 3103 1142 2972 
Q 928 2841 928 2578 
Q 928 2378 1081 2264 
Q 1234 2150 1697 2047 
L 1894 2003 
Q 2506 1872 2764 1633 
Q 3022 1394 3022 966 
Q 3022 478 2636 193 
Q 2250 -91 1575 -91 
Q 1294 -91 989 -36 
Q 684 19 347 128 
L 347 722 
Q 666 556 975 473 
Q 1284 391 1588 391 
Q 1994 391 2212 530 
Q 2431 669 2431 922 
Q 2431 1156 2273 1281 
Q 2116 1406 1581 1522 
L 1381 1569 
Q 847 1681 609 1914 
Q 372 2147 372 2553 
Q 372 3047 722 3315 
Q 1072 3584 1716 3584 
Q 2034 3584 2315 3537 
Q 2597 3491 2834 3397 
z
" transform="scale(0.015625)"/>
      </defs>
      <use xlink:href="#DejaVuSans-5b"/>
      <use xlink:href="#DejaVuSans-63" transform="translate(39.013672 0)"/>
      <use xlink:href="#DejaVuSans-6f" transform="translate(93.994141 0)"/>
      <use xlink:href="#DejaVuSans-75" transform="translate(155.175781 0)"/>
      <use xlink:href="#DejaVuSans-6e" transform="translate(218.554688 0)"/>
      <use xlink:href="#DejaVuSans-74" transform="translate(281.933594 0)"/>
      <use xlink:href="#DejaVuSans-73" transform="translate(321.142578 0)"/>
      <use xlink:href="#DejaVuSans-5d" transform="translate(373.242188 0)"/>
     </g>
    </g>
   </g>
   <g id="line2d_16">
    <path d="M 62.764508 213.21 
L 63.77504 213.21 
L 63.77504 206.595 
L 64.785572 206.595 
L 64.785572 206.28 
L 65.796104 206.28 
L 65.796104 196.83 
L 66.806636 196.83 
L 66.806636 190.215 
L 67.817168 190.215 
L 67.817168 189.27 
L 69.838232 189.27 
L 69.838232 182.025 
L 70.848764 182.025 
L 70.848764 170.685 
L 71.859296 170.685 
L 71.859296 166.905 
L 72.869828 166.905 
L 72.869828 167.85 
L 73.88036 167.85 
L 73.88036 156.195 
L 74.890892 156.195 
L 74.890892 160.29 
L 75.901424 160.29 
L 75.901424 148.95 
L 76.911956 148.95 
L 76.911956 149.58 
L 77.922488 149.58 
L 77.922488 144.54 
L 78.93302 144.54 
L 78.93302 141.075 
L 79.943552 141.075 
L 79.943552 128.475 
L 80.954083 128.475 
L 80.954083 124.695 
L 81.964615 124.695 
L 81.964615 112.725 
L 82.975147 112.725 
L 82.975147 111.78 
L 83.985679 111.78 
L 83.985679 108.945 
L 84.996211 108.945 
L 84.996211 105.48 
L 86.006743 105.48 
L 86.006743 98.865 
L 87.017275 98.865 
L 87.017275 83.745 
L 88.027807 83.745 
L 88.027807 104.535 
L 89.038339 104.535 
L 89.038339 96.03 
L 90.048871 96.03 
L 90.048871 83.115 
L 91.059403 83.115 
L 91.059403 79.335 
L 92.069935 79.335 
L 92.069935 92.565 
L 93.080467 92.565 
L 93.080467 68.31 
L 94.090999 68.31 
L 94.090999 53.505 
L 95.101531 53.505 
L 95.101531 69.885 
L 96.112063 69.885 
L 96.112063 66.735 
L 97.122595 66.735 
L 97.122595 50.985 
L 98.133127 50.985 
L 98.133127 63.585 
L 99.143659 63.585 
L 99.143659 61.065 
L 100.154191 61.065 
L 100.154191 66.105 
L 101.164723 66.105 
L 101.164723 48.465 
L 102.175255 48.465 
L 102.175255 50.355 
L 103.185787 50.355 
L 103.185787 52.56 
L 104.196319 52.56 
L 104.196319 30.195 
L 105.206851 30.195 
L 105.206851 49.725 
L 106.217383 49.725 
L 106.217383 38.07 
L 107.227915 38.07 
L 107.227915 27.045 
L 108.238447 27.045 
L 108.238447 33.345 
L 109.248979 33.345 
L 109.248979 42.165 
L 110.259511 42.165 
L 110.259511 43.425 
L 111.270043 43.425 
L 111.270043 44.37 
L 112.280575 44.37 
L 112.280575 20.745 
L 113.291106 20.745 
L 113.291106 19.8 
L 114.301638 19.8 
L 114.301638 47.205 
L 115.31217 47.205 
L 115.31217 39.015 
L 116.322702 39.015 
L 116.322702 27.99 
L 117.333234 27.99 
L 117.333234 39.015 
L 118.343766 39.015 
L 118.343766 34.29 
L 119.354298 34.29 
L 119.354298 41.22 
L 120.36483 41.22 
L 120.36483 27.36 
L 121.375362 27.36 
L 121.375362 17.28 
L 122.385894 17.28 
L 122.385894 47.52 
L 123.396426 47.52 
L 123.396426 35.235 
L 124.406958 35.235 
L 124.406958 37.125 
L 125.41749 37.125 
L 125.41749 54.45 
L 126.428022 54.45 
L 126.428022 25.785 
L 127.438554 25.785 
L 127.438554 58.23 
L 128.449086 58.23 
L 128.449086 38.07 
L 129.459618 38.07 
L 129.459618 51.93 
L 130.47015 51.93 
L 130.47015 41.535 
L 131.480682 41.535 
L 131.480682 40.59 
L 132.491214 40.59 
L 132.491214 53.82 
L 133.501746 53.82 
L 133.501746 45.63 
L 134.512278 45.63 
L 134.512278 57.6 
L 135.52281 57.6 
L 135.52281 45.63 
L 136.533342 45.63 
L 136.533342 63.9 
L 137.543874 63.9 
L 137.543874 60.435 
L 138.554406 60.435 
L 138.554406 53.82 
L 139.564938 53.82 
L 139.564938 63.9 
L 140.57547 63.9 
L 140.57547 72.72 
L 141.586002 72.72 
L 141.586002 55.395 
L 142.596534 55.395 
L 142.596534 46.89 
L 143.607066 46.89 
L 143.607066 56.97 
L 144.617598 56.97 
L 144.617598 62.64 
L 145.62813 62.64 
L 145.62813 69.57 
L 146.638661 69.57 
L 146.638661 62.01 
L 147.649193 62.01 
L 147.649193 71.46 
L 148.659725 71.46 
L 148.659725 59.49 
L 149.670257 59.49 
L 149.670257 74.925 
L 150.680789 74.925 
L 150.680789 49.095 
L 151.691321 49.095 
L 151.691321 72.09 
L 152.701853 72.09 
L 152.701853 77.76 
L 153.712385 77.76 
L 153.712385 73.035 
L 154.722917 73.035 
L 154.722917 76.5 
L 155.733449 76.5 
L 155.733449 67.365 
L 156.743981 67.365 
L 156.743981 61.695 
L 157.754513 61.695 
L 157.754513 76.815 
L 158.765045 76.815 
L 158.765045 72.405 
L 159.775577 72.405 
L 159.775577 45.315 
L 160.786109 45.315 
L 160.786109 68.625 
L 161.796641 68.625 
L 161.796641 86.265 
L 162.807173 86.265 
L 162.807173 64.845 
L 163.817705 64.845 
L 163.817705 65.16 
L 164.828237 65.16 
L 164.828237 75.24 
L 165.838769 75.24 
L 165.838769 76.185 
L 166.849301 76.185 
L 166.849301 76.815 
L 167.859833 76.815 
L 167.859833 63.27 
L 168.870365 63.27 
L 168.870365 78.075 
L 169.880897 78.075 
L 169.880897 77.76 
L 170.891429 77.76 
L 170.891429 79.965 
L 171.901961 79.965 
L 171.901961 91.935 
L 172.912493 91.935 
L 172.912493 77.445 
L 173.923025 77.445 
L 173.923025 89.415 
L 174.933557 89.415 
L 174.933557 75.87 
L 175.944089 75.87 
L 175.944089 95.715 
L 176.954621 95.715 
L 176.954621 94.14 
L 177.965153 94.14 
L 177.965153 78.075 
L 178.975685 78.075 
L 178.975685 91.935 
L 179.986216 91.935 
L 179.986216 103.59 
L 180.996748 103.59 
L 180.996748 102.015 
L 182.00728 102.015 
L 182.00728 103.59 
L 183.017812 103.59 
L 183.017812 112.41 
L 184.028344 112.41 
L 184.028344 129.105 
L 185.038876 129.105 
L 185.038876 123.75 
L 186.049408 123.75 
L 186.049408 120.285 
L 187.05994 120.285 
L 187.05994 129.105 
L 188.070472 129.105 
L 188.070472 134.775 
L 189.081004 134.775 
L 189.081004 128.16 
L 190.091536 128.16 
L 190.091536 137.61 
L 191.102068 137.61 
L 191.102068 150.84 
L 192.1126 150.84 
L 192.1126 154.305 
L 193.123132 154.305 
L 193.123132 153.045 
L 194.133664 153.045 
L 194.133664 161.55 
L 195.144196 161.55 
L 195.144196 162.81 
L 196.154728 162.81 
L 196.154728 164.385 
L 197.16526 164.385 
L 197.16526 171 
L 198.175792 171 
L 198.175792 187.38 
L 199.186324 187.38 
L 199.186324 180.765 
L 200.196856 180.765 
L 200.196856 189.27 
L 201.207388 189.27 
L 201.207388 197.775 
L 202.21792 197.775 
L 202.21792 198.72 
L 203.228452 198.72 
L 203.228452 198.405 
L 204.238984 198.405 
L 204.238984 197.775 
L 205.249516 197.775 
L 205.249516 206.28 
L 206.260048 206.28 
L 206.260048 209.745 
L 207.27058 209.745 
L 207.27058 212.58 
L 208.281112 212.58 
L 208.281112 211.635 
L 209.291644 211.635 
L 209.291644 214.785 
L 211.312708 214.785 
L 211.312708 218.565 
L 212.32324 218.565 
L 212.32324 216.36 
L 213.333771 216.36 
L 213.333771 208.17 
L 214.344303 208.17 
L 214.344303 208.485 
L 215.354835 208.485 
L 215.354835 202.185 
L 216.365367 202.185 
L 216.365367 199.035 
L 217.375899 199.035 
L 217.375899 193.05 
L 218.386431 193.05 
L 218.386431 183.285 
L 219.396963 183.285 
L 219.396963 191.79 
L 220.407495 191.79 
L 220.407495 184.545 
L 221.418027 184.545 
L 221.418027 180.765 
L 222.428559 180.765 
L 222.428559 179.505 
L 223.439091 179.505 
L 223.439091 174.15 
L 224.449623 174.15 
L 224.449623 159.66 
L 225.460155 159.66 
L 225.460155 166.59 
L 226.470687 166.59 
L 226.470687 165.96 
L 227.481219 165.96 
L 227.481219 159.03 
L 228.491751 159.03 
L 228.491751 155.25 
L 229.502283 155.25 
L 229.502283 156.51 
L 230.512815 156.51 
L 230.512815 153.36 
L 231.523347 153.36 
L 231.523347 149.265 
L 232.533879 149.265 
L 232.533879 149.58 
L 233.544411 149.58 
L 233.544411 142.965 
L 234.554943 142.965 
L 234.554943 143.28 
L 235.565475 143.28 
L 235.565475 137.925 
L 236.576007 137.925 
L 236.576007 126.585 
L 237.586539 126.585 
L 237.586539 132.885 
L 238.597071 132.885 
L 238.597071 136.665 
L 239.607603 136.665 
L 239.607603 114.615 
L 240.618135 114.615 
L 240.618135 112.41 
L 241.628667 112.41 
L 241.628667 118.71 
L 242.639199 118.71 
L 242.639199 121.86 
L 243.649731 121.86 
L 243.649731 117.765 
L 244.660263 117.765 
L 244.660263 116.505 
L 245.670795 116.505 
L 245.670795 119.025 
L 246.681326 119.025 
L 246.681326 121.23 
L 247.691858 121.23 
L 247.691858 110.205 
L 248.70239 110.205 
L 248.70239 97.92 
L 249.712922 97.92 
L 249.712922 110.835 
L 250.723454 110.835 
L 250.723454 106.11 
L 251.733986 106.11 
L 251.733986 100.44 
L 252.744518 100.44 
L 252.744518 105.165 
L 253.75505 105.165 
L 253.75505 98.55 
L 254.765582 98.55 
L 254.765582 100.755 
L 255.776114 100.755 
L 255.776114 105.48 
L 256.786646 105.48 
L 256.786646 89.415 
L 257.797178 89.415 
L 257.797178 98.865 
L 258.80771 98.865 
L 258.80771 86.265 
L 259.818242 86.265 
L 259.818242 97.92 
L 260.828774 97.92 
L 260.828774 96.66 
L 261.839306 96.66 
L 261.839306 98.55 
L 262.849838 98.55 
L 262.849838 85.95 
L 263.86037 85.95 
L 263.86037 77.13 
L 264.870902 77.13 
L 264.870902 82.485 
L 265.881434 82.485 
L 265.881434 94.14 
L 266.891966 94.14 
L 266.891966 90.99 
L 267.902498 90.99 
L 267.902498 109.26 
L 268.91303 109.26 
L 268.91303 110.52 
L 269.923562 110.52 
L 269.923562 91.935 
L 270.934094 91.935 
L 270.934094 99.81 
L 271.944626 99.81 
L 271.944626 113.985 
L 272.955158 113.985 
L 272.955158 99.81 
L 273.96569 99.81 
L 273.96569 98.235 
L 274.976222 98.235 
L 274.976222 106.74 
L 275.986754 106.74 
L 275.986754 112.095 
L 276.997286 112.095 
L 276.997286 100.755 
L 278.007818 100.755 
L 278.007818 111.15 
L 279.018349 111.15 
L 279.018349 103.905 
L 280.028881 103.905 
L 280.028881 108.63 
L 281.039413 108.63 
L 281.039413 105.165 
L 282.049945 105.165 
L 282.049945 112.41 
L 283.060477 112.41 
L 283.060477 101.385 
L 284.071009 101.385 
L 284.071009 102.96 
L 285.081541 102.96 
L 285.081541 127.845 
L 286.092073 127.845 
L 286.092073 108.945 
L 287.102605 108.945 
L 287.102605 113.04 
L 288.113137 113.04 
L 288.113137 122.805 
L 289.123669 122.805 
L 289.123669 116.505 
L 290.134201 116.505 
L 290.134201 118.395 
L 291.144733 118.395 
L 291.144733 104.85 
L 292.155265 104.85 
L 292.155265 119.025 
L 293.165797 119.025 
L 293.165797 122.49 
L 294.176329 122.49 
L 294.176329 129.42 
L 295.186861 129.42 
L 295.186861 124.695 
L 296.197393 124.695 
L 296.197393 127.215 
L 297.207925 127.215 
L 297.207925 122.175 
L 298.218457 122.175 
L 298.218457 125.64 
L 299.228989 125.64 
L 299.228989 134.145 
L 300.239521 134.145 
L 300.239521 127.845 
L 301.250053 127.845 
L 301.250053 126.585 
L 302.260585 126.585 
L 302.260585 131.94 
L 303.271117 131.94 
L 303.271117 131.625 
L 304.281649 131.625 
L 304.281649 133.515 
L 305.292181 133.515 
L 305.292181 139.815 
L 306.302713 139.815 
L 306.302713 129.735 
L 307.313245 129.735 
L 307.313245 133.515 
L 308.323777 133.515 
L 308.323777 141.075 
L 309.334309 141.075 
L 309.334309 144.225 
L 310.344841 144.225 
L 310.344841 140.13 
L 311.355373 140.13 
L 311.355373 137.61 
L 312.365904 137.61 
L 312.365904 144.225 
L 313.376436 144.225 
L 313.376436 150.21 
L 314.386968 150.21 
L 314.386968 144.54 
L 315.3975 144.54 
L 315.3975 143.595 
L 316.408032 143.595 
L 316.408032 154.935 
L 317.418564 154.935 
L 317.418564 152.1 
L 318.429096 152.1 
L 318.429096 146.745 
L 320.45016 146.745 
L 320.45016 155.25 
L 321.460692 155.25 
L 321.460692 159.345 
L 322.471224 159.345 
L 322.471224 154.305 
L 323.481756 154.305 
L 323.481756 161.235 
L 324.492288 161.235 
L 324.492288 162.495 
L 325.50282 162.495 
L 325.50282 175.095 
L 326.513352 175.095 
L 326.513352 159.345 
L 327.523884 159.345 
L 327.523884 163.44 
L 328.534416 163.44 
L 328.534416 172.26 
L 329.544948 172.26 
L 329.544948 165.645 
L 330.55548 165.645 
L 330.55548 159.66 
L 331.566012 159.66 
L 331.566012 178.245 
L 332.576544 178.245 
L 332.576544 182.97 
L 333.587076 182.97 
L 333.587076 179.505 
L 334.597608 179.505 
L 334.597608 178.875 
L 335.60814 178.875 
L 335.60814 173.205 
L 336.618672 173.205 
L 336.618672 182.025 
L 337.629204 182.025 
L 337.629204 180.765 
L 338.639736 180.765 
L 338.639736 183.6 
L 339.650268 183.6 
L 339.650268 178.245 
L 340.6608 178.245 
L 340.6608 187.065 
L 341.671332 187.065 
L 341.671332 188.01 
L 342.681864 188.01 
L 342.681864 189.585 
L 343.692396 189.585 
L 343.692396 195.57 
L 344.702928 195.57 
L 344.702928 197.145 
L 345.713459 197.145 
L 345.713459 199.665 
L 346.723991 199.665 
L 346.723991 199.98 
L 347.734523 199.98 
L 347.734523 195.885 
L 348.745055 195.885 
L 348.745055 205.02 
L 349.755587 205.02 
L 349.755587 204.705 
L 350.766119 204.705 
L 350.766119 208.17 
L 351.776651 208.17 
L 351.776651 210.375 
L 353.797715 210.375 
L 353.797715 207.855 
L 354.808247 207.855 
L 354.808247 213.21 
L 355.818779 213.21 
L 355.818779 210.06 
L 356.829311 210.06 
L 356.829311 210.69 
L 357.839843 210.69 
L 357.839843 214.155 
L 358.850375 214.155 
L 358.850375 215.1 
L 359.860907 215.1 
L 359.860907 216.99 
L 360.871439 216.99 
L 360.871439 215.415 
L 361.881971 215.415 
L 361.881971 218.25 
L 363.903035 218.25 
L 363.903035 218.88 
L 364.913567 218.88 
L 364.913567 218.565 
L 365.924099 218.565 
L 365.924099 218.565 
" clip-path="url(#pea27060edd)" style="fill: none; stroke: #1f77b4; stroke-width: 1.5; stroke-linecap: square"/>
   </g>
   <g id="line2d_17">
    <path d="M 62.183807 215.1 
L 63.198352 215.1 
L 63.198352 209.43 
L 64.212898 209.43 
L 64.212898 206.595 
L 65.227443 206.595 
L 65.227443 204.075 
L 66.241989 204.075 
L 66.241989 193.05 
L 67.256534 193.05 
L 67.256534 190.53 
L 68.27108 190.53 
L 68.27108 189.27 
L 69.285625 189.27 
L 69.285625 184.86 
L 70.30017 184.86 
L 70.30017 178.245 
L 71.314716 178.245 
L 71.314716 165.33 
L 72.329261 165.33 
L 72.329261 171.315 
L 73.343807 171.315 
L 73.343807 158.085 
L 74.358352 158.085 
L 74.358352 158.4 
L 75.372898 158.4 
L 75.372898 156.195 
L 76.387443 156.195 
L 76.387443 144.855 
L 77.401989 144.855 
L 77.401989 150.525 
L 78.416534 150.525 
L 78.416534 143.28 
L 79.43108 143.28 
L 79.43108 129.42 
L 80.445625 129.42 
L 80.445625 128.16 
L 81.46017 128.16 
L 81.46017 123.75 
L 82.474716 123.75 
L 82.474716 109.575 
L 83.489261 109.575 
L 83.489261 111.78 
L 84.503807 111.78 
L 84.503807 103.275 
L 85.518352 103.275 
L 85.518352 98.235 
L 86.532898 98.235 
L 86.532898 96.975 
L 87.547443 96.975 
L 87.547443 90.045 
L 88.561989 90.045 
L 88.561989 100.125 
L 89.576534 100.125 
L 89.576534 85.635 
L 90.59108 85.635 
L 90.59108 83.115 
L 91.605625 83.115 
L 91.605625 85.635 
L 92.62017 85.635 
L 92.62017 78.705 
L 93.634716 78.705 
L 93.634716 51.93 
L 94.649261 51.93 
L 94.649261 72.405 
L 95.663807 72.405 
L 95.663807 56.97 
L 96.678352 56.97 
L 96.678352 66.105 
L 97.692898 66.105 
L 97.692898 61.065 
L 98.707443 61.065 
L 98.707443 56.97 
L 99.721989 56.97 
L 99.721989 57.6 
L 100.736534 57.6 
L 100.736534 59.49 
L 101.75108 59.49 
L 101.75108 50.04 
L 102.765625 50.04 
L 102.765625 49.725 
L 103.78017 49.725 
L 103.78017 37.755 
L 104.794716 37.755 
L 104.794716 46.26 
L 105.809261 46.26 
L 105.809261 31.77 
L 106.823807 31.77 
L 106.823807 37.125 
L 107.838352 37.125 
L 107.838352 38.7 
L 108.852898 38.7 
L 108.852898 32.4 
L 109.867443 32.4 
L 109.867443 47.52 
L 110.881989 47.52 
L 110.881989 36.495 
L 111.896534 36.495 
L 111.896534 23.895 
L 112.91108 23.895 
L 112.91108 29.565 
L 113.925625 29.565 
L 113.925625 32.085 
L 114.94017 32.085 
L 114.94017 44.685 
L 115.954716 44.685 
L 115.954716 22.32 
L 116.969261 22.32 
L 116.969261 35.865 
L 117.983807 35.865 
L 117.983807 35.235 
L 118.998352 35.235 
L 118.998352 39.015 
L 120.012898 39.015 
L 120.012898 36.81 
L 121.027443 36.81 
L 121.027443 19.17 
L 122.041989 19.17 
L 122.041989 36.81 
L 123.056534 36.81 
L 123.056534 36.495 
L 124.07108 36.495 
L 124.07108 38.385 
L 125.085625 38.385 
L 125.085625 37.755 
L 126.10017 37.755 
L 126.10017 45.945 
L 127.114716 45.945 
L 127.114716 41.535 
L 128.129261 41.535 
L 128.129261 43.74 
L 129.143807 43.74 
L 129.143807 47.52 
L 130.158352 47.52 
L 130.158352 40.59 
L 131.172898 40.59 
L 131.172898 57.915 
L 132.187443 57.915 
L 132.187443 37.44 
L 133.201989 37.44 
L 133.201989 45.63 
L 134.216534 45.63 
L 134.216534 52.245 
L 135.23108 52.245 
L 135.23108 47.205 
L 136.245625 47.205 
L 136.245625 58.545 
L 137.26017 58.545 
L 137.26017 66.105 
L 138.274716 66.105 
L 138.274716 49.41 
L 139.289261 49.41 
L 139.289261 67.68 
L 140.303807 67.68 
L 140.303807 62.01 
L 141.318352 62.01 
L 141.318352 61.695 
L 142.332898 61.695 
L 142.332898 53.19 
L 143.347443 53.19 
L 143.347443 57.6 
L 144.361989 57.6 
L 144.361989 52.56 
L 145.376534 52.56 
L 145.376534 61.38 
L 146.39108 61.38 
L 146.39108 73.035 
L 147.405625 73.035 
L 147.405625 61.695 
L 148.42017 61.695 
L 148.42017 70.515 
L 149.434716 70.515 
L 149.434716 58.23 
L 150.449261 58.23 
L 150.449261 66.105 
L 151.463807 66.105 
L 151.463807 61.695 
L 152.478352 61.695 
L 152.478352 76.5 
L 153.492898 76.5 
L 153.492898 67.995 
L 154.507443 67.995 
L 154.507443 74.925 
L 155.521989 74.925 
L 155.521989 72.72 
L 156.536534 72.72 
L 156.536534 71.775 
L 157.55108 71.775 
L 157.55108 63.9 
L 158.565625 63.9 
L 158.565625 67.365 
L 159.58017 67.365 
L 159.58017 53.505 
L 160.594716 53.505 
L 160.594716 72.72 
L 162.623807 72.72 
L 162.623807 67.05 
L 163.638352 67.05 
L 163.638352 72.405 
L 164.652898 72.405 
L 164.652898 70.515 
L 165.667443 70.515 
L 165.667443 77.76 
L 166.681989 77.76 
L 166.681989 67.365 
L 167.696534 67.365 
L 167.696534 72.09 
L 169.725625 72.09 
L 169.725625 80.91 
L 170.74017 80.91 
L 170.74017 81.225 
L 171.754716 81.225 
L 171.754716 89.73 
L 172.769261 89.73 
L 172.769261 78.705 
L 173.783807 78.705 
L 173.783807 75.555 
L 174.798352 75.555 
L 174.798352 89.73 
L 175.812898 89.73 
L 175.812898 82.485 
L 176.827443 82.485 
L 176.827443 92.25 
L 177.841989 92.25 
L 177.841989 93.825 
L 178.856534 93.825 
L 178.856534 83.115 
L 179.87108 83.115 
L 179.87108 106.425 
L 180.885625 106.425 
L 180.885625 97.29 
L 181.90017 97.29 
L 181.90017 109.89 
L 182.914716 109.89 
L 182.914716 107.685 
L 183.929261 107.685 
L 183.929261 130.365 
L 184.943807 130.365 
L 184.943807 113.355 
L 185.958352 113.355 
L 185.958352 124.38 
L 186.972898 124.38 
L 186.972898 122.805 
L 187.987443 122.805 
L 187.987443 132.255 
L 189.001989 132.255 
L 189.001989 133.2 
L 190.016534 133.2 
L 190.016534 141.705 
L 191.03108 141.705 
L 191.03108 146.115 
L 192.045625 146.115 
L 192.045625 150.84 
L 193.06017 150.84 
L 193.06017 161.55 
L 194.074716 161.55 
L 194.074716 155.25 
L 195.089261 155.25 
L 195.089261 162.81 
L 196.103807 162.81 
L 196.103807 162.495 
L 197.118352 162.495 
L 197.118352 173.205 
L 198.132898 173.205 
L 198.132898 181.395 
L 199.147443 181.395 
L 199.147443 185.175 
L 200.161989 185.175 
L 200.161989 189.9 
L 201.176534 189.9 
L 201.176534 194.625 
L 202.19108 194.625 
L 202.19108 198.09 
L 203.205625 198.09 
L 203.205625 199.665 
L 204.22017 199.665 
L 204.22017 198.72 
L 205.234716 198.72 
L 205.234716 205.02 
L 206.249261 205.02 
L 206.249261 209.43 
L 207.263807 209.43 
L 207.263807 211.95 
L 208.278352 211.95 
L 208.278352 211.32 
L 209.292898 211.32 
L 209.292898 215.415 
L 210.307443 215.415 
L 210.307443 214.785 
L 211.321989 214.785 
L 211.321989 217.935 
L 212.336534 217.935 
L 212.336534 212.895 
L 213.35108 212.895 
L 213.35108 209.115 
L 214.365625 209.115 
L 214.365625 207.855 
L 215.38017 207.855 
L 215.38017 202.5 
L 216.394716 202.5 
L 216.394716 198.405 
L 217.409261 198.405 
L 217.409261 192.105 
L 218.423807 192.105 
L 218.423807 187.38 
L 219.438352 187.38 
L 219.438352 188.01 
L 220.452898 188.01 
L 220.452898 185.805 
L 221.467443 185.805 
L 221.467443 178.245 
L 222.481989 178.245 
L 222.481989 177.93 
L 223.496534 177.93 
L 223.496534 172.575 
L 224.51108 172.575 
L 224.51108 159.975 
L 225.525625 159.975 
L 225.525625 165.96 
L 226.54017 165.96 
L 226.54017 166.275 
L 227.554716 166.275 
L 227.554716 164.07 
L 228.569261 164.07 
L 228.569261 151.47 
L 229.583807 151.47 
L 229.583807 153.675 
L 230.598352 153.675 
L 230.598352 154.935 
L 231.612898 154.935 
L 231.612898 151.785 
L 232.627443 151.785 
L 232.627443 144.855 
L 233.641989 144.855 
L 233.641989 143.595 
L 234.656534 143.595 
L 234.656534 142.335 
L 235.67108 142.335 
L 235.67108 133.515 
L 236.685625 133.515 
L 236.685625 128.79 
L 237.70017 128.79 
L 237.70017 139.185 
L 238.714716 139.185 
L 238.714716 121.86 
L 239.729261 121.86 
L 239.729261 121.545 
L 240.743807 121.545 
L 240.743807 116.82 
L 241.758352 116.82 
L 241.758352 115.56 
L 242.772898 115.56 
L 242.772898 121.23 
L 243.787443 121.23 
L 243.787443 115.875 
L 244.801989 115.875 
L 244.801989 115.245 
L 245.816534 115.245 
L 245.816534 117.765 
L 246.83108 117.765 
L 246.83108 116.82 
L 247.845625 116.82 
L 247.845625 108 
L 248.86017 108 
L 248.86017 110.52 
L 249.874716 110.52 
L 249.874716 101.7 
L 250.889261 101.7 
L 250.889261 102.015 
L 251.903807 102.015 
L 251.903807 103.905 
L 252.918352 103.905 
L 252.918352 101.7 
L 253.932898 101.7 
L 253.932898 101.385 
L 254.947443 101.385 
L 254.947443 101.7 
L 255.961989 101.7 
L 255.961989 100.44 
L 256.976534 100.44 
L 256.976534 88.47 
L 257.99108 88.47 
L 257.99108 96.975 
L 259.005625 96.975 
L 259.005625 97.605 
L 260.02017 97.605 
L 260.02017 85.32 
L 261.034716 85.32 
L 261.034716 97.605 
L 262.049261 97.605 
L 262.049261 96.66 
L 263.063807 96.66 
L 263.063807 83.745 
L 264.078352 83.745 
L 264.078352 77.13 
L 265.092898 77.13 
L 265.092898 89.1 
L 266.107443 89.1 
L 266.107443 91.305 
L 267.121989 91.305 
L 267.121989 96.03 
L 268.136534 96.03 
L 268.136534 102.015 
L 269.15108 102.015 
L 269.15108 106.425 
L 270.165625 106.425 
L 270.165625 94.77 
L 271.18017 94.77 
L 271.18017 106.11 
L 272.194716 106.11 
L 272.194716 107.685 
L 273.209261 107.685 
L 273.209261 100.44 
L 274.223807 100.44 
L 274.223807 103.59 
L 275.238352 103.59 
L 275.238352 106.425 
L 276.252898 106.425 
L 276.252898 102.645 
L 277.267443 102.645 
L 277.267443 107.685 
L 278.281989 107.685 
L 278.281989 107.37 
L 279.296534 107.37 
L 279.296534 106.74 
L 280.31108 106.74 
L 280.31108 105.48 
L 281.325625 105.48 
L 281.325625 107.685 
L 282.34017 107.685 
L 282.34017 104.535 
L 283.354716 104.535 
L 283.354716 105.165 
L 284.369261 105.165 
L 284.369261 110.835 
L 285.383807 110.835 
L 285.383807 119.655 
L 286.398352 119.655 
L 286.398352 107.055 
L 287.412898 107.055 
L 287.412898 120.285 
L 288.427443 120.285 
L 288.427443 119.97 
L 289.441989 119.97 
L 289.441989 117.765 
L 290.456534 117.765 
L 290.456534 112.41 
L 291.47108 112.41 
L 291.47108 114.615 
L 292.485625 114.615 
L 292.485625 113.985 
L 293.50017 113.985 
L 293.50017 126.27 
L 294.514716 126.27 
L 294.514716 125.01 
L 295.529261 125.01 
L 295.529261 122.805 
L 296.543807 122.805 
L 296.543807 129.735 
L 297.558352 129.735 
L 297.558352 120.6 
L 298.572898 120.6 
L 298.572898 127.53 
L 299.587443 127.53 
L 299.587443 134.46 
L 300.601989 134.46 
L 300.601989 125.64 
L 301.616534 125.64 
L 301.616534 127.845 
L 302.63108 127.845 
L 302.63108 132.255 
L 303.645625 132.255 
L 303.645625 128.79 
L 304.66017 128.79 
L 304.66017 140.76 
L 305.674716 140.76 
L 305.674716 134.775 
L 306.689261 134.775 
L 306.689261 129.42 
L 307.703807 129.42 
L 307.703807 141.39 
L 308.718352 141.39 
L 308.718352 138.87 
L 309.732898 138.87 
L 309.732898 137.61 
L 310.747443 137.61 
L 310.747443 145.485 
L 311.761989 145.485 
L 311.761989 137.925 
L 312.776534 137.925 
L 312.776534 144.855 
L 313.79108 144.855 
L 313.79108 140.13 
L 314.805625 140.13 
L 314.805625 155.565 
L 315.82017 155.565 
L 315.82017 147.06 
L 316.834716 147.06 
L 316.834716 148.635 
L 317.849261 148.635 
L 317.849261 151.47 
L 318.863807 151.47 
L 318.863807 145.485 
L 319.878352 145.485 
L 319.878352 155.25 
L 320.892898 155.25 
L 320.892898 157.77 
L 321.907443 157.77 
L 321.907443 152.73 
L 322.921989 152.73 
L 322.921989 152.415 
L 323.936534 152.415 
L 323.936534 166.275 
L 324.95108 166.275 
L 324.95108 165.645 
L 325.965625 165.645 
L 325.965625 165.33 
L 326.98017 165.33 
L 326.98017 161.865 
L 327.994716 161.865 
L 327.994716 169.11 
L 329.009261 169.11 
L 329.009261 171.63 
L 330.023807 171.63 
L 330.023807 161.55 
L 331.038352 161.55 
L 331.038352 170.685 
L 332.052898 170.685 
L 332.052898 175.725 
L 333.067443 175.725 
L 333.067443 182.655 
L 334.081989 182.655 
L 334.081989 179.505 
L 335.096534 179.505 
L 335.096534 176.355 
L 336.11108 176.355 
L 336.11108 174.78 
L 337.125625 174.78 
L 337.125625 185.175 
L 338.14017 185.175 
L 338.14017 180.135 
L 339.154716 180.135 
L 339.154716 181.71 
L 340.169261 181.71 
L 340.169261 181.395 
L 341.183807 181.395 
L 341.183807 188.325 
L 342.198352 188.325 
L 342.198352 187.065 
L 343.212898 187.065 
L 343.212898 194.31 
L 344.227443 194.31 
L 344.227443 195.57 
L 345.241989 195.57 
L 345.241989 196.83 
L 346.256534 196.83 
L 346.256534 199.98 
L 347.27108 199.98 
L 347.27108 197.46 
L 348.285625 197.46 
L 348.285625 201.24 
L 349.30017 201.24 
L 349.30017 205.335 
L 350.314716 205.335 
L 350.314716 205.965 
L 351.329261 205.965 
L 351.329261 210.06 
L 352.343807 210.06 
L 352.343807 211.005 
L 353.358352 211.005 
L 353.358352 206.91 
L 354.372898 206.91 
L 354.372898 210.69 
L 355.387443 210.69 
L 355.387443 212.265 
L 356.401989 212.265 
L 356.401989 211.635 
L 358.43108 211.635 
L 358.43108 215.415 
L 359.445625 215.415 
L 359.445625 216.045 
L 360.46017 216.045 
L 360.46017 216.36 
L 362.489261 216.36 
L 362.489261 218.25 
L 363.503807 218.25 
L 363.503807 217.62 
L 364.518352 217.62 
L 364.518352 218.565 
L 365.532898 218.565 
L 365.532898 218.25 
L 366.547443 218.25 
L 366.547443 218.25 
" clip-path="url(#pea27060edd)" style="fill: none; stroke: #ff7f0e; stroke-width: 1.5; stroke-linecap: square"/>
   </g>
   <g id="patch_3">
    <path d="M 46.965625 228.96 
L 46.965625 7.2 
" style="fill: none; stroke: #000000; stroke-width: 0.8; stroke-linejoin: miter; stroke-linecap: square"/>
   </g>
   <g id="patch_4">
    <path d="M 381.765625 228.96 
L 381.765625 7.2 
" style="fill: none; stroke: #000000; stroke-width: 0.8; stroke-linejoin: miter; stroke-linecap: square"/>
   </g>
   <g id="patch_5">
    <path d="M 46.965625 228.96 
L 381.765625 228.96 
" style="fill: none; stroke: #000000; stroke-width: 0.8; stroke-linejoin: miter; stroke-linecap: square"/>
   </g>
   <g id="patch_6">
    <path d="M 46.965625 7.2 
L 381.765625 7.2 
" style="fill: none; stroke: #000000; stroke-width: 0.8; stroke-linejoin: miter; stroke-linecap: square"/>
   </g>
   <g id="legend_1">
    <g id="patch_7">
     <path d="M 305.3875 44.55625 
L 374.765625 44.55625 
Q 376.765625 44.55625 376.765625 42.55625 
L 376.765625 14.2 
Q 376.765625 12.2 374.765625 12.2 
L 305.3875 12.2 
Q 303.3875 12.2 303.3875 14.2 
L 303.3875 42.55625 
Q 303.3875 44.55625 305.3875 44.55625 
z
" style="fill: #ffffff; opacity: 0.8; stroke: #cccccc; stroke-linejoin: miter"/>
    </g>
    <g id="line2d_18">
     <path d="M 307.3875 20.298438 
L 307.3875 20.298438 
L 317.3875 20.298438 
L 317.3875 20.298438 
L 327.3875 20.298438 
" style="fill: none; stroke: #1f77b4; stroke-width: 1.5; stroke-linecap: square"/>
    </g>
    <g id="text_18">
     <!-- wfm -->
     <g transform="translate(335.3875 23.798438) scale(0.1 -0.1)">
      <defs>
       <path id="DejaVuSans-66" d="M 2375 4863 
L 2375 4384 
L 1825 4384 
Q 1516 4384 1395 4259 
Q 1275 4134 1275 3809 
L 1275 3500 
L 2222 3500 
L 2222 3053 
L 1275 3053 
L 1275 0 
L 697 0 
L 697 3053 
L 147 3053 
L 147 3500 
L 697 3500 
L 697 3744 
Q 697 4328 969 4595 
Q 1241 4863 1831 4863 
L 2375 4863 
z
" transform="scale(0.015625)"/>
       <path id="DejaVuSans-6d" d="M 3328 2828 
Q 3544 3216 3844 3400 
Q 4144 3584 4550 3584 
Q 5097 3584 5394 3201 
Q 5691 2819 5691 2113 
L 5691 0 
L 5113 0 
L 5113 2094 
Q 5113 2597 4934 2840 
Q 4756 3084 4391 3084 
Q 3944 3084 3684 2787 
Q 3425 2491 3425 1978 
L 3425 0 
L 2847 0 
L 2847 2094 
Q 2847 2600 2669 2842 
Q 2491 3084 2119 3084 
Q 1678 3084 1418 2786 
Q 1159 2488 1159 1978 
L 1159 0 
L 581 0 
L 581 3500 
L 1159 3500 
L 1159 2956 
Q 1356 3278 1631 3431 
Q 1906 3584 2284 3584 
Q 2666 3584 2933 3390 
Q 3200 3197 3328 2828 
z
" transform="scale(0.015625)"/>
      </defs>
      <use xlink:href="#DejaVuSans-77"/>
      <use xlink:href="#DejaVuSans-66" transform="translate(81.787109 0)"/>
      <use xlink:href="#DejaVuSans-6d" transform="translate(116.992188 0)"/>
     </g>
    </g>
    <g id="line2d_19">
     <path d="M 307.3875 34.976562 
L 307.3875 34.976562 
L 317.3875 34.976562 
L 317.3875 34.976562 
L 327.3875 34.976562 
" style="fill: none; stroke: #ff7f0e; stroke-width: 1.5; stroke-linecap: square"/>
    </g>
    <g id="text_19">
     <!-- original -->
     <g transform="translate(335.3875 38.476562) scale(0.1 -0.1)">
      <defs>
       <path id="DejaVuSans-72" d="M 2631 2963 
Q 2534 3019 2420 3045 
Q 2306 3072 2169 3072 
Q 1681 3072 1420 2755 
Q 1159 2438 1159 1844 
L 1159 0 
L 581 0 
L 581 3500 
L 1159 3500 
L 1159 2956 
Q 1341 3275 1631 3429 
Q 1922 3584 2338 3584 
Q 2397 3584 2469 3576 
Q 2541 3569 2628 3553 
L 2631 2963 
z
" transform="scale(0.015625)"/>
       <path id="DejaVuSans-69" d="M 603 3500 
L 1178 3500 
L 1178 0 
L 603 0 
L 603 3500 
z
M 603 4863 
L 1178 4863 
L 1178 4134 
L 603 4134 
L 603 4863 
z
" transform="scale(0.015625)"/>
      </defs>
      <use xlink:href="#DejaVuSans-6f"/>
      <use xlink:href="#DejaVuSans-72" transform="translate(61.181641 0)"/>
      <use xlink:href="#DejaVuSans-69" transform="translate(102.294922 0)"/>
      <use xlink:href="#DejaVuSans-67" transform="translate(130.078125 0)"/>
      <use xlink:href="#DejaVuSans-69" transform="translate(193.554688 0)"/>
      <use xlink:href="#DejaVuSans-6e" transform="translate(221.337891 0)"/>
      <use xlink:href="#DejaVuSans-61" transform="translate(284.716797 0)"/>
      <use xlink:href="#DejaVuSans-6c" transform="translate(345.996094 0)"/>
     </g>
    </g>
   </g>
  </g>
 </g>
 <defs>
  <clipPath id="pea27060edd">
   <rect x="46.965625" y="7.2" width="334.8" height="221.76"/>
  </clipPath>
 </defs>
</svg>
