<?xml version="1.0" encoding="utf-8" standalone="no"?>
<!DOCTYPE svg PUBLIC "-//W3C//DTD SVG 1.1//EN"
  "http://www.w3.org/Graphics/SVG/1.1/DTD/svg11.dtd">
<svg xmlns:xlink="http://www.w3.org/1999/xlink" width="872.39952pt" height="296.39952pt" viewBox="0 0 872.39952 296.39952" xmlns="http://www.w3.org/2000/svg" version="1.1">
 <metadata>
  <rdf:RDF xmlns:dc="http://purl.org/dc/elements/1.1/" xmlns:cc="http://creativecommons.org/ns#" xmlns:rdf="http://www.w3.org/1999/02/22-rdf-syntax-ns#">
   <cc:Work>
    <dc:type rdf:resource="http://purl.org/dc/dcmitype/StillImage"/>
    <dc:date>2025-04-29T09:31:51.503786</dc:date>
    <dc:format>image/svg+xml</dc:format>
    <dc:creator>
     <cc:Agent>
      <dc:title>Matplotlib v3.10.1, https://matplotlib.org/</dc:title>
     </cc:Agent>
    </dc:creator>
   </cc:Work>
  </rdf:RDF>
 </metadata>
 <defs>
  <style type="text/css">*{stroke-linejoin: round; stroke-linecap: butt}</style>
 </defs>
 <g id="figure_1">
  <g id="patch_1">
   <path d="M 0 296.39952 
L 872.39952 296.39952 
L 872.39952 0 
L 0 0 
z
" style="fill: #ffffff"/>
  </g>
  <g id="axes_1">
   <g id="patch_2">
    <path d="M 53.328125 257.158895 
L 428.69851 257.158895 
L 428.69851 7.2 
L 53.328125 7.2 
z
" style="fill: #ffffff"/>
   </g>
   <g id="matplotlib.axis_1">
    <g id="xtick_1">
     <g id="line2d_1">
      <defs>
       <path id="m49843ec68a" d="M 0 0 
L 0 3.5 
" style="stroke: #000000; stroke-width: 0.8"/>
      </defs>
      <g>
       <use xlink:href="#m49843ec68a" x="54.480493" y="257.158895" style="stroke: #000000; stroke-width: 0.8"/>
      </g>
     </g>
     <g id="text_1">
      <!-- 0 -->
      <g transform="translate(51.299243 271.757332) scale(0.1 -0.1)">
       <defs>
        <path id="DejaVuSans-30" d="M 2034 4250 
Q 1547 4250 1301 3770 
Q 1056 3291 1056 2328 
Q 1056 1369 1301 889 
Q 1547 409 2034 409 
Q 2525 409 2770 889 
Q 3016 1369 3016 2328 
Q 3016 3291 2770 3770 
Q 2525 4250 2034 4250 
z
M 2034 4750 
Q 2819 4750 3233 4129 
Q 3647 3509 3647 2328 
Q 3647 1150 3233 529 
Q 2819 -91 2034 -91 
Q 1250 -91 836 529 
Q 422 1150 422 2328 
Q 422 3509 836 4129 
Q 1250 4750 2034 4750 
z
" transform="scale(0.015625)"/>
       </defs>
       <use xlink:href="#DejaVuSans-30"/>
      </g>
     </g>
    </g>
    <g id="xtick_2">
     <g id="line2d_2">
      <g>
       <use xlink:href="#m49843ec68a" x="103.304046" y="257.158895" style="stroke: #000000; stroke-width: 0.8"/>
      </g>
     </g>
     <g id="text_2">
      <!-- 10000 -->
      <g transform="translate(87.397796 271.757332) scale(0.1 -0.1)">
       <defs>
        <path id="DejaVuSans-31" d="M 794 531 
L 1825 531 
L 1825 4091 
L 703 3866 
L 703 4441 
L 1819 4666 
L 2450 4666 
L 2450 531 
L 3481 531 
L 3481 0 
L 794 0 
L 794 531 
z
" transform="scale(0.015625)"/>
       </defs>
       <use xlink:href="#DejaVuSans-31"/>
       <use xlink:href="#DejaVuSans-30" transform="translate(63.623047 0)"/>
       <use xlink:href="#DejaVuSans-30" transform="translate(127.246094 0)"/>
       <use xlink:href="#DejaVuSans-30" transform="translate(190.869141 0)"/>
       <use xlink:href="#DejaVuSans-30" transform="translate(254.492188 0)"/>
      </g>
     </g>
    </g>
    <g id="xtick_3">
     <g id="line2d_3">
      <g>
       <use xlink:href="#m49843ec68a" x="152.1276" y="257.158895" style="stroke: #000000; stroke-width: 0.8"/>
      </g>
     </g>
     <g id="text_3">
      <!-- 20000 -->
      <g transform="translate(136.22135 271.757332) scale(0.1 -0.1)">
       <defs>
        <path id="DejaVuSans-32" d="M 1228 531 
L 3431 531 
L 3431 0 
L 469 0 
L 469 531 
Q 828 903 1448 1529 
Q 2069 2156 2228 2338 
Q 2531 2678 2651 2914 
Q 2772 3150 2772 3378 
Q 2772 3750 2511 3984 
Q 2250 4219 1831 4219 
Q 1534 4219 1204 4116 
Q 875 4013 500 3803 
L 500 4441 
Q 881 4594 1212 4672 
Q 1544 4750 1819 4750 
Q 2544 4750 2975 4387 
Q 3406 4025 3406 3419 
Q 3406 3131 3298 2873 
Q 3191 2616 2906 2266 
Q 2828 2175 2409 1742 
Q 1991 1309 1228 531 
z
" transform="scale(0.015625)"/>
       </defs>
       <use xlink:href="#DejaVuSans-32"/>
       <use xlink:href="#DejaVuSans-30" transform="translate(63.623047 0)"/>
       <use xlink:href="#DejaVuSans-30" transform="translate(127.246094 0)"/>
       <use xlink:href="#DejaVuSans-30" transform="translate(190.869141 0)"/>
       <use xlink:href="#DejaVuSans-30" transform="translate(254.492188 0)"/>
      </g>
     </g>
    </g>
    <g id="xtick_4">
     <g id="line2d_4">
      <g>
       <use xlink:href="#m49843ec68a" x="200.951153" y="257.158895" style="stroke: #000000; stroke-width: 0.8"/>
      </g>
     </g>
     <g id="text_4">
      <!-- 30000 -->
      <g transform="translate(185.044903 271.757332) scale(0.1 -0.1)">
       <defs>
        <path id="DejaVuSans-33" d="M 2597 2516 
Q 3050 2419 3304 2112 
Q 3559 1806 3559 1356 
Q 3559 666 3084 287 
Q 2609 -91 1734 -91 
Q 1441 -91 1130 -33 
Q 819 25 488 141 
L 488 750 
Q 750 597 1062 519 
Q 1375 441 1716 441 
Q 2309 441 2620 675 
Q 2931 909 2931 1356 
Q 2931 1769 2642 2001 
Q 2353 2234 1838 2234 
L 1294 2234 
L 1294 2753 
L 1863 2753 
Q 2328 2753 2575 2939 
Q 2822 3125 2822 3475 
Q 2822 3834 2567 4026 
Q 2313 4219 1838 4219 
Q 1578 4219 1281 4162 
Q 984 4106 628 3988 
L 628 4550 
Q 988 4650 1302 4700 
Q 1616 4750 1894 4750 
Q 2613 4750 3031 4423 
Q 3450 4097 3450 3541 
Q 3450 3153 3228 2886 
Q 3006 2619 2597 2516 
z
" transform="scale(0.015625)"/>
       </defs>
       <use xlink:href="#DejaVuSans-33"/>
       <use xlink:href="#DejaVuSans-30" transform="translate(63.623047 0)"/>
       <use xlink:href="#DejaVuSans-30" transform="translate(127.246094 0)"/>
       <use xlink:href="#DejaVuSans-30" transform="translate(190.869141 0)"/>
       <use xlink:href="#DejaVuSans-30" transform="translate(254.492188 0)"/>
      </g>
     </g>
    </g>
    <g id="xtick_5">
     <g id="line2d_5">
      <g>
       <use xlink:href="#m49843ec68a" x="249.774706" y="257.158895" style="stroke: #000000; stroke-width: 0.8"/>
      </g>
     </g>
     <g id="text_5">
      <!-- 40000 -->
      <g transform="translate(233.868456 271.757332) scale(0.1 -0.1)">
       <defs>
        <path id="DejaVuSans-34" d="M 2419 4116 
L 825 1625 
L 2419 1625 
L 2419 4116 
z
M 2253 4666 
L 3047 4666 
L 3047 1625 
L 3713 1625 
L 3713 1100 
L 3047 1100 
L 3047 0 
L 2419 0 
L 2419 1100 
L 313 1100 
L 313 1709 
L 2253 4666 
z
" transform="scale(0.015625)"/>
       </defs>
       <use xlink:href="#DejaVuSans-34"/>
       <use xlink:href="#DejaVuSans-30" transform="translate(63.623047 0)"/>
       <use xlink:href="#DejaVuSans-30" transform="translate(127.246094 0)"/>
       <use xlink:href="#DejaVuSans-30" transform="translate(190.869141 0)"/>
       <use xlink:href="#DejaVuSans-30" transform="translate(254.492188 0)"/>
      </g>
     </g>
    </g>
    <g id="xtick_6">
     <g id="line2d_6">
      <g>
       <use xlink:href="#m49843ec68a" x="298.59826" y="257.158895" style="stroke: #000000; stroke-width: 0.8"/>
      </g>
     </g>
     <g id="text_6">
      <!-- 50000 -->
      <g transform="translate(282.69201 271.757332) scale(0.1 -0.1)">
       <defs>
        <path id="DejaVuSans-35" d="M 691 4666 
L 3169 4666 
L 3169 4134 
L 1269 4134 
L 1269 2991 
Q 1406 3038 1543 3061 
Q 1681 3084 1819 3084 
Q 2600 3084 3056 2656 
Q 3513 2228 3513 1497 
Q 3513 744 3044 326 
Q 2575 -91 1722 -91 
Q 1428 -91 1123 -41 
Q 819 9 494 109 
L 494 744 
Q 775 591 1075 516 
Q 1375 441 1709 441 
Q 2250 441 2565 725 
Q 2881 1009 2881 1497 
Q 2881 1984 2565 2268 
Q 2250 2553 1709 2553 
Q 1456 2553 1204 2497 
Q 953 2441 691 2322 
L 691 4666 
z
" transform="scale(0.015625)"/>
       </defs>
       <use xlink:href="#DejaVuSans-35"/>
       <use xlink:href="#DejaVuSans-30" transform="translate(63.623047 0)"/>
       <use xlink:href="#DejaVuSans-30" transform="translate(127.246094 0)"/>
       <use xlink:href="#DejaVuSans-30" transform="translate(190.869141 0)"/>
       <use xlink:href="#DejaVuSans-30" transform="translate(254.492188 0)"/>
      </g>
     </g>
    </g>
    <g id="xtick_7">
     <g id="line2d_7">
      <g>
       <use xlink:href="#m49843ec68a" x="347.421813" y="257.158895" style="stroke: #000000; stroke-width: 0.8"/>
      </g>
     </g>
     <g id="text_7">
      <!-- 60000 -->
      <g transform="translate(331.515563 271.757332) scale(0.1 -0.1)">
       <defs>
        <path id="DejaVuSans-36" d="M 2113 2584 
Q 1688 2584 1439 2293 
Q 1191 2003 1191 1497 
Q 1191 994 1439 701 
Q 1688 409 2113 409 
Q 2538 409 2786 701 
Q 3034 994 3034 1497 
Q 3034 2003 2786 2293 
Q 2538 2584 2113 2584 
z
M 3366 4563 
L 3366 3988 
Q 3128 4100 2886 4159 
Q 2644 4219 2406 4219 
Q 1781 4219 1451 3797 
Q 1122 3375 1075 2522 
Q 1259 2794 1537 2939 
Q 1816 3084 2150 3084 
Q 2853 3084 3261 2657 
Q 3669 2231 3669 1497 
Q 3669 778 3244 343 
Q 2819 -91 2113 -91 
Q 1303 -91 875 529 
Q 447 1150 447 2328 
Q 447 3434 972 4092 
Q 1497 4750 2381 4750 
Q 2619 4750 2861 4703 
Q 3103 4656 3366 4563 
z
" transform="scale(0.015625)"/>
       </defs>
       <use xlink:href="#DejaVuSans-36"/>
       <use xlink:href="#DejaVuSans-30" transform="translate(63.623047 0)"/>
       <use xlink:href="#DejaVuSans-30" transform="translate(127.246094 0)"/>
       <use xlink:href="#DejaVuSans-30" transform="translate(190.869141 0)"/>
       <use xlink:href="#DejaVuSans-30" transform="translate(254.492188 0)"/>
      </g>
     </g>
    </g>
    <g id="xtick_8">
     <g id="line2d_8">
      <g>
       <use xlink:href="#m49843ec68a" x="396.245367" y="257.158895" style="stroke: #000000; stroke-width: 0.8"/>
      </g>
     </g>
     <g id="text_8">
      <!-- 70000 -->
      <g transform="translate(380.339117 271.757332) scale(0.1 -0.1)">
       <defs>
        <path id="DejaVuSans-37" d="M 525 4666 
L 3525 4666 
L 3525 4397 
L 1831 0 
L 1172 0 
L 2766 4134 
L 525 4134 
L 525 4666 
z
" transform="scale(0.015625)"/>
       </defs>
       <use xlink:href="#DejaVuSans-37"/>
       <use xlink:href="#DejaVuSans-30" transform="translate(63.623047 0)"/>
       <use xlink:href="#DejaVuSans-30" transform="translate(127.246094 0)"/>
       <use xlink:href="#DejaVuSans-30" transform="translate(190.869141 0)"/>
       <use xlink:href="#DejaVuSans-30" transform="translate(254.492188 0)"/>
      </g>
     </g>
    </g>
    <g id="text_9">
     <!-- birth_time [µs] -->
     <g transform="translate(204.193005 285.435457) scale(0.1 -0.1)">
      <defs>
       <path id="DejaVuSans-62" d="M 3116 1747 
Q 3116 2381 2855 2742 
Q 2594 3103 2138 3103 
Q 1681 3103 1420 2742 
Q 1159 2381 1159 1747 
Q 1159 1113 1420 752 
Q 1681 391 2138 391 
Q 2594 391 2855 752 
Q 3116 1113 3116 1747 
z
M 1159 2969 
Q 1341 3281 1617 3432 
Q 1894 3584 2278 3584 
Q 2916 3584 3314 3078 
Q 3713 2572 3713 1747 
Q 3713 922 3314 415 
Q 2916 -91 2278 -91 
Q 1894 -91 1617 61 
Q 1341 213 1159 525 
L 1159 0 
L 581 0 
L 581 4863 
L 1159 4863 
L 1159 2969 
z
" transform="scale(0.015625)"/>
       <path id="DejaVuSans-69" d="M 603 3500 
L 1178 3500 
L 1178 0 
L 603 0 
L 603 3500 
z
M 603 4863 
L 1178 4863 
L 1178 4134 
L 603 4134 
L 603 4863 
z
" transform="scale(0.015625)"/>
       <path id="DejaVuSans-72" d="M 2631 2963 
Q 2534 3019 2420 3045 
Q 2306 3072 2169 3072 
Q 1681 3072 1420 2755 
Q 1159 2438 1159 1844 
L 1159 0 
L 581 0 
L 581 3500 
L 1159 3500 
L 1159 2956 
Q 1341 3275 1631 3429 
Q 1922 3584 2338 3584 
Q 2397 3584 2469 3576 
Q 2541 3569 2628 3553 
L 2631 2963 
z
" transform="scale(0.015625)"/>
       <path id="DejaVuSans-74" d="M 1172 4494 
L 1172 3500 
L 2356 3500 
L 2356 3053 
L 1172 3053 
L 1172 1153 
Q 1172 725 1289 603 
Q 1406 481 1766 481 
L 2356 481 
L 2356 0 
L 1766 0 
Q 1100 0 847 248 
Q 594 497 594 1153 
L 594 3053 
L 172 3053 
L 172 3500 
L 594 3500 
L 594 4494 
L 1172 4494 
z
" transform="scale(0.015625)"/>
       <path id="DejaVuSans-68" d="M 3513 2113 
L 3513 0 
L 2938 0 
L 2938 2094 
Q 2938 2591 2744 2837 
Q 2550 3084 2163 3084 
Q 1697 3084 1428 2787 
Q 1159 2491 1159 1978 
L 1159 0 
L 581 0 
L 581 4863 
L 1159 4863 
L 1159 2956 
Q 1366 3272 1645 3428 
Q 1925 3584 2291 3584 
Q 2894 3584 3203 3211 
Q 3513 2838 3513 2113 
z
" transform="scale(0.015625)"/>
       <path id="DejaVuSans-5f" d="M 3263 -1063 
L 3263 -1509 
L -63 -1509 
L -63 -1063 
L 3263 -1063 
z
" transform="scale(0.015625)"/>
       <path id="DejaVuSans-6d" d="M 3328 2828 
Q 3544 3216 3844 3400 
Q 4144 3584 4550 3584 
Q 5097 3584 5394 3201 
Q 5691 2819 5691 2113 
L 5691 0 
L 5113 0 
L 5113 2094 
Q 5113 2597 4934 2840 
Q 4756 3084 4391 3084 
Q 3944 3084 3684 2787 
Q 3425 2491 3425 1978 
L 3425 0 
L 2847 0 
L 2847 2094 
Q 2847 2600 2669 2842 
Q 2491 3084 2119 3084 
Q 1678 3084 1418 2786 
Q 1159 2488 1159 1978 
L 1159 0 
L 581 0 
L 581 3500 
L 1159 3500 
L 1159 2956 
Q 1356 3278 1631 3431 
Q 1906 3584 2284 3584 
Q 2666 3584 2933 3390 
Q 3200 3197 3328 2828 
z
" transform="scale(0.015625)"/>
       <path id="DejaVuSans-65" d="M 3597 1894 
L 3597 1613 
L 953 1613 
Q 991 1019 1311 708 
Q 1631 397 2203 397 
Q 2534 397 2845 478 
Q 3156 559 3463 722 
L 3463 178 
Q 3153 47 2828 -22 
Q 2503 -91 2169 -91 
Q 1331 -91 842 396 
Q 353 884 353 1716 
Q 353 2575 817 3079 
Q 1281 3584 2069 3584 
Q 2775 3584 3186 3129 
Q 3597 2675 3597 1894 
z
M 3022 2063 
Q 3016 2534 2758 2815 
Q 2500 3097 2075 3097 
Q 1594 3097 1305 2825 
Q 1016 2553 972 2059 
L 3022 2063 
z
" transform="scale(0.015625)"/>
       <path id="DejaVuSans-20" transform="scale(0.015625)"/>
       <path id="DejaVuSans-5b" d="M 550 4863 
L 1875 4863 
L 1875 4416 
L 1125 4416 
L 1125 -397 
L 1875 -397 
L 1875 -844 
L 550 -844 
L 550 4863 
z
" transform="scale(0.015625)"/>
       <path id="DejaVuSans-b5" d="M 544 -1331 
L 544 3500 
L 1119 3500 
L 1119 1325 
Q 1119 872 1334 640 
Q 1550 409 1972 409 
Q 2434 409 2667 671 
Q 2900 934 2900 1459 
L 2900 3500 
L 3475 3500 
L 3475 806 
Q 3475 619 3529 530 
Q 3584 441 3700 441 
Q 3728 441 3778 458 
Q 3828 475 3916 513 
L 3916 50 
Q 3788 -22 3673 -56 
Q 3559 -91 3450 -91 
Q 3234 -91 3106 31 
Q 2978 153 2931 403 
Q 2775 156 2548 32 
Q 2322 -91 2016 -91 
Q 1697 -91 1473 31 
Q 1250 153 1119 397 
L 1119 -1331 
L 544 -1331 
z
" transform="scale(0.015625)"/>
       <path id="DejaVuSans-73" d="M 2834 3397 
L 2834 2853 
Q 2591 2978 2328 3040 
Q 2066 3103 1784 3103 
Q 1356 3103 1142 2972 
Q 928 2841 928 2578 
Q 928 2378 1081 2264 
Q 1234 2150 1697 2047 
L 1894 2003 
Q 2506 1872 2764 1633 
Q 3022 1394 3022 966 
Q 3022 478 2636 193 
Q 2250 -91 1575 -91 
Q 1294 -91 989 -36 
Q 684 19 347 128 
L 347 722 
Q 666 556 975 473 
Q 1284 391 1588 391 
Q 1994 391 2212 530 
Q 2431 669 2431 922 
Q 2431 1156 2273 1281 
Q 2116 1406 1581 1522 
L 1381 1569 
Q 847 1681 609 1914 
Q 372 2147 372 2553 
Q 372 3047 722 3315 
Q 1072 3584 1716 3584 
Q 2034 3584 2315 3537 
Q 2597 3491 2834 3397 
z
" transform="scale(0.015625)"/>
       <path id="DejaVuSans-5d" d="M 1947 4863 
L 1947 -844 
L 622 -844 
L 622 -397 
L 1369 -397 
L 1369 4416 
L 622 4416 
L 622 4863 
L 1947 4863 
z
" transform="scale(0.015625)"/>
      </defs>
      <use xlink:href="#DejaVuSans-62"/>
      <use xlink:href="#DejaVuSans-69" transform="translate(63.476562 0)"/>
      <use xlink:href="#DejaVuSans-72" transform="translate(91.259766 0)"/>
      <use xlink:href="#DejaVuSans-74" transform="translate(132.373047 0)"/>
      <use xlink:href="#DejaVuSans-68" transform="translate(171.582031 0)"/>
      <use xlink:href="#DejaVuSans-5f" transform="translate(234.960938 0)"/>
      <use xlink:href="#DejaVuSans-74" transform="translate(284.960938 0)"/>
      <use xlink:href="#DejaVuSans-69" transform="translate(324.169922 0)"/>
      <use xlink:href="#DejaVuSans-6d" transform="translate(351.953125 0)"/>
      <use xlink:href="#DejaVuSans-65" transform="translate(449.365234 0)"/>
      <use xlink:href="#DejaVuSans-20" transform="translate(510.888672 0)"/>
      <use xlink:href="#DejaVuSans-5b" transform="translate(542.675781 0)"/>
      <use xlink:href="#DejaVuSans-b5" transform="translate(581.689453 0)"/>
      <use xlink:href="#DejaVuSans-73" transform="translate(645.3125 0)"/>
      <use xlink:href="#DejaVuSans-5d" transform="translate(697.412109 0)"/>
     </g>
    </g>
   </g>
   <g id="matplotlib.axis_2">
    <g id="ytick_1">
     <g id="line2d_9">
      <defs>
       <path id="ma16142b1e6" d="M 0 0 
L -3.5 0 
" style="stroke: #000000; stroke-width: 0.8"/>
      </defs>
      <g>
       <use xlink:href="#ma16142b1e6" x="53.328125" y="245.872395" style="stroke: #000000; stroke-width: 0.8"/>
      </g>
     </g>
     <g id="text_10">
      <!-- 0 -->
      <g transform="translate(39.965625 249.671614) scale(0.1 -0.1)">
       <use xlink:href="#DejaVuSans-30"/>
      </g>
     </g>
    </g>
    <g id="ytick_2">
     <g id="line2d_10">
      <g>
       <use xlink:href="#ma16142b1e6" x="53.328125" y="208.238186" style="stroke: #000000; stroke-width: 0.8"/>
      </g>
     </g>
     <g id="text_11">
      <!-- 500 -->
      <g transform="translate(27.240625 212.037404) scale(0.1 -0.1)">
       <use xlink:href="#DejaVuSans-35"/>
       <use xlink:href="#DejaVuSans-30" transform="translate(63.623047 0)"/>
       <use xlink:href="#DejaVuSans-30" transform="translate(127.246094 0)"/>
      </g>
     </g>
    </g>
    <g id="ytick_3">
     <g id="line2d_11">
      <g>
       <use xlink:href="#ma16142b1e6" x="53.328125" y="170.603976" style="stroke: #000000; stroke-width: 0.8"/>
      </g>
     </g>
     <g id="text_12">
      <!-- 1000 -->
      <g transform="translate(20.878125 174.403195) scale(0.1 -0.1)">
       <use xlink:href="#DejaVuSans-31"/>
       <use xlink:href="#DejaVuSans-30" transform="translate(63.623047 0)"/>
       <use xlink:href="#DejaVuSans-30" transform="translate(127.246094 0)"/>
       <use xlink:href="#DejaVuSans-30" transform="translate(190.869141 0)"/>
      </g>
     </g>
    </g>
    <g id="ytick_4">
     <g id="line2d_12">
      <g>
       <use xlink:href="#ma16142b1e6" x="53.328125" y="132.969766" style="stroke: #000000; stroke-width: 0.8"/>
      </g>
     </g>
     <g id="text_13">
      <!-- 1500 -->
      <g transform="translate(20.878125 136.768985) scale(0.1 -0.1)">
       <use xlink:href="#DejaVuSans-31"/>
       <use xlink:href="#DejaVuSans-35" transform="translate(63.623047 0)"/>
       <use xlink:href="#DejaVuSans-30" transform="translate(127.246094 0)"/>
       <use xlink:href="#DejaVuSans-30" transform="translate(190.869141 0)"/>
      </g>
     </g>
    </g>
    <g id="ytick_5">
     <g id="line2d_13">
      <g>
       <use xlink:href="#ma16142b1e6" x="53.328125" y="95.335556" style="stroke: #000000; stroke-width: 0.8"/>
      </g>
     </g>
     <g id="text_14">
      <!-- 2000 -->
      <g transform="translate(20.878125 99.134775) scale(0.1 -0.1)">
       <use xlink:href="#DejaVuSans-32"/>
       <use xlink:href="#DejaVuSans-30" transform="translate(63.623047 0)"/>
       <use xlink:href="#DejaVuSans-30" transform="translate(127.246094 0)"/>
       <use xlink:href="#DejaVuSans-30" transform="translate(190.869141 0)"/>
      </g>
     </g>
    </g>
    <g id="ytick_6">
     <g id="line2d_14">
      <g>
       <use xlink:href="#ma16142b1e6" x="53.328125" y="57.701346" style="stroke: #000000; stroke-width: 0.8"/>
      </g>
     </g>
     <g id="text_15">
      <!-- 2500 -->
      <g transform="translate(20.878125 61.500565) scale(0.1 -0.1)">
       <use xlink:href="#DejaVuSans-32"/>
       <use xlink:href="#DejaVuSans-35" transform="translate(63.623047 0)"/>
       <use xlink:href="#DejaVuSans-30" transform="translate(127.246094 0)"/>
       <use xlink:href="#DejaVuSans-30" transform="translate(190.869141 0)"/>
      </g>
     </g>
    </g>
    <g id="ytick_7">
     <g id="line2d_15">
      <g>
       <use xlink:href="#ma16142b1e6" x="53.328125" y="20.067136" style="stroke: #000000; stroke-width: 0.8"/>
      </g>
     </g>
     <g id="text_16">
      <!-- 3000 -->
      <g transform="translate(20.878125 23.866355) scale(0.1 -0.1)">
       <use xlink:href="#DejaVuSans-33"/>
       <use xlink:href="#DejaVuSans-30" transform="translate(63.623047 0)"/>
       <use xlink:href="#DejaVuSans-30" transform="translate(127.246094 0)"/>
       <use xlink:href="#DejaVuSans-30" transform="translate(190.869141 0)"/>
      </g>
     </g>
    </g>
    <g id="text_17">
     <!-- [counts] -->
     <g transform="translate(14.798438 152.791947) rotate(-90) scale(0.1 -0.1)">
      <defs>
       <path id="DejaVuSans-63" d="M 3122 3366 
L 3122 2828 
Q 2878 2963 2633 3030 
Q 2388 3097 2138 3097 
Q 1578 3097 1268 2742 
Q 959 2388 959 1747 
Q 959 1106 1268 751 
Q 1578 397 2138 397 
Q 2388 397 2633 464 
Q 2878 531 3122 666 
L 3122 134 
Q 2881 22 2623 -34 
Q 2366 -91 2075 -91 
Q 1284 -91 818 406 
Q 353 903 353 1747 
Q 353 2603 823 3093 
Q 1294 3584 2113 3584 
Q 2378 3584 2631 3529 
Q 2884 3475 3122 3366 
z
" transform="scale(0.015625)"/>
       <path id="DejaVuSans-6f" d="M 1959 3097 
Q 1497 3097 1228 2736 
Q 959 2375 959 1747 
Q 959 1119 1226 758 
Q 1494 397 1959 397 
Q 2419 397 2687 759 
Q 2956 1122 2956 1747 
Q 2956 2369 2687 2733 
Q 2419 3097 1959 3097 
z
M 1959 3584 
Q 2709 3584 3137 3096 
Q 3566 2609 3566 1747 
Q 3566 888 3137 398 
Q 2709 -91 1959 -91 
Q 1206 -91 779 398 
Q 353 888 353 1747 
Q 353 2609 779 3096 
Q 1206 3584 1959 3584 
z
" transform="scale(0.015625)"/>
       <path id="DejaVuSans-75" d="M 544 1381 
L 544 3500 
L 1119 3500 
L 1119 1403 
Q 1119 906 1312 657 
Q 1506 409 1894 409 
Q 2359 409 2629 706 
Q 2900 1003 2900 1516 
L 2900 3500 
L 3475 3500 
L 3475 0 
L 2900 0 
L 2900 538 
Q 2691 219 2414 64 
Q 2138 -91 1772 -91 
Q 1169 -91 856 284 
Q 544 659 544 1381 
z
M 1991 3584 
L 1991 3584 
z
" transform="scale(0.015625)"/>
       <path id="DejaVuSans-6e" d="M 3513 2113 
L 3513 0 
L 2938 0 
L 2938 2094 
Q 2938 2591 2744 2837 
Q 2550 3084 2163 3084 
Q 1697 3084 1428 2787 
Q 1159 2491 1159 1978 
L 1159 0 
L 581 0 
L 581 3500 
L 1159 3500 
L 1159 2956 
Q 1366 3272 1645 3428 
Q 1925 3584 2291 3584 
Q 2894 3584 3203 3211 
Q 3513 2838 3513 2113 
z
" transform="scale(0.015625)"/>
      </defs>
      <use xlink:href="#DejaVuSans-5b"/>
      <use xlink:href="#DejaVuSans-63" transform="translate(39.013672 0)"/>
      <use xlink:href="#DejaVuSans-6f" transform="translate(93.994141 0)"/>
      <use xlink:href="#DejaVuSans-75" transform="translate(155.175781 0)"/>
      <use xlink:href="#DejaVuSans-6e" transform="translate(218.554688 0)"/>
      <use xlink:href="#DejaVuSans-74" transform="translate(281.933594 0)"/>
      <use xlink:href="#DejaVuSans-73" transform="translate(321.142578 0)"/>
      <use xlink:href="#DejaVuSans-5d" transform="translate(373.242188 0)"/>
     </g>
    </g>
   </g>
   <g id="line2d_16">
    <path d="M 54.542459 233.152033 
L 54.623415 233.152033 
L 54.70437 221.410159 
L 54.785326 221.410159 
L 54.866281 201.915638 
L 54.947237 201.915638 
L 55.028193 183.926486 
L 55.109148 183.926486 
L 55.190104 168.044849 
L 55.271059 168.044849 
L 55.352015 147.421302 
L 55.432971 147.421302 
L 55.432971 147.948181 
L 55.513926 142.604124 
L 55.594882 142.604124 
L 55.675837 130.335371 
L 55.756793 130.335371 
L 55.837749 111.744072 
L 55.918704 111.744072 
L 55.918704 113.625782 
L 55.99966 106.625819 
L 56.080615 106.625819 
L 56.161571 102.109714 
L 56.242527 102.109714 
L 56.242527 96.765656 
L 56.323482 96.765656 
L 56.404438 96.765656 
L 56.485393 84.722709 
L 56.566349 84.722709 
L 56.566349 84.421635 
L 56.647305 84.572172 
L 56.72826 84.572172 
L 56.809216 75.464693 
L 56.890171 75.464693 
L 56.971127 67.561509 
L 57.052083 67.561509 
L 57.133038 60.260472 
L 57.213994 60.260472 
L 57.213994 53.71212 
L 57.294949 55.744367 
L 57.375905 55.744367 
L 57.375905 61.615304 
L 57.456861 53.185241 
L 57.537816 53.185241 
L 57.537816 57.626078 
L 57.618772 50.701383 
L 57.699727 50.701383 
L 57.780683 57.325004 
L 57.861639 57.325004 
L 57.861639 50.85192 
L 57.942594 50.85192 
L 58.02355 50.85192 
L 58.02355 54.464804 
L 58.104505 43.475615 
L 58.185461 43.475615 
L 58.185461 47.916452 
L 58.266417 47.615378 
L 58.347372 47.615378 
L 58.347372 49.045478 
L 58.428328 36.400383 
L 58.509283 36.400383 
L 58.509283 44.905715 
L 58.590239 44.378836 
L 58.671195 44.378836 
L 58.671195 41.443368 
L 58.75215 47.690646 
L 58.833106 47.690646 
L 58.833106 39.486389 
L 58.914061 40.013268 
L 58.995017 40.013268 
L 58.995017 44.830446 
L 59.075973 33.916526 
L 59.156928 33.916526 
L 59.237884 42.647662 
L 59.318839 42.647662 
L 59.318839 43.325078 
L 59.399795 38.357362 
L 59.480751 38.357362 
L 59.561706 29.024078 
L 59.642662 29.024078 
L 59.642662 38.432631 
L 59.723617 26.991831 
L 59.804573 26.991831 
L 59.804573 39.712194 
L 59.885529 26.08861 
L 59.966484 26.08861 
L 59.966484 35.798236 
L 60.04744 32.110084 
L 60.128395 32.110084 
L 60.128395 36.851994 
L 60.209351 35.497162 
L 60.290307 35.497162 
L 60.371262 30.077836 
L 60.452218 30.077836 
L 60.533173 35.572431 
L 60.614129 35.572431 
L 60.614129 31.131594 
L 60.695085 32.411157 
L 60.77604 32.411157 
L 60.77604 37.755215 
L 60.856996 35.948773 
L 60.937951 35.948773 
L 60.937951 24.884315 
L 61.018907 31.357399 
L 61.099863 31.357399 
L 61.099863 29.249884 
L 61.180818 30.604715 
L 61.261774 30.604715 
L 61.261774 22.099384 
L 61.342729 27.292905 
L 61.423685 27.292905 
L 61.504641 34.66921 
L 61.585596 34.66921 
L 61.666552 22.927336 
L 61.747507 22.927336 
L 61.747507 31.884278 
L 61.828463 24.884315 
L 61.909419 24.884315 
L 61.990374 36.776726 
L 62.07133 36.776726 
L 62.07133 20.36821 
L 62.152285 26.841294 
L 62.233241 26.841294 
L 62.314196 27.669247 
L 62.314196 21.647773 
L 62.395152 21.647773 
L 62.395152 31.80901 
L 62.476108 24.583242 
L 62.557063 24.583242 
L 62.638019 26.163878 
L 62.718974 26.163878 
L 62.79993 36.475652 
L 62.880886 36.475652 
L 62.880886 26.239147 
L 62.961841 28.572468 
L 63.042797 28.572468 
L 63.123752 31.432668 
L 63.204708 31.432668 
L 63.204708 26.013342 
L 63.285664 26.766026 
L 63.366619 26.766026 
L 63.366619 27.142368 
L 63.447575 20.067136 
L 63.52853 20.067136 
L 63.52853 32.862768 
L 63.609486 25.335926 
L 63.690442 25.335926 
L 63.690442 29.174615 
L 63.771397 26.841294 
L 63.852353 26.841294 
L 63.852353 24.959584 
L 63.933308 30.454178 
L 64.014264 30.454178 
L 64.014264 20.443478 
L 64.09522 28.120857 
L 64.176175 28.120857 
L 64.176175 22.475726 
L 64.257131 33.841257 
L 64.338086 33.841257 
L 64.419042 27.368173 
L 64.499998 27.368173 
L 64.580953 25.712268 
L 64.580953 26.766026 
L 64.742864 26.766026 
L 64.742864 30.228373 
L 64.82382 25.185389 
L 64.904776 25.185389 
L 64.904776 30.077836 
L 64.985731 27.895052 
L 65.066687 27.895052 
L 65.066687 23.153142 
L 65.147642 32.938036 
L 65.228598 32.938036 
L 65.228598 26.991831 
L 65.309554 27.292905 
L 65.390509 27.292905 
L 65.471465 23.22841 
L 65.55242 23.22841 
L 65.55242 30.454178 
L 65.633376 29.475689 
L 65.714332 29.475689 
L 65.714332 34.819747 
L 65.795287 24.432705 
L 65.876243 24.432705 
L 65.957198 20.895089 
L 66.038154 20.895089 
L 66.038154 29.927299 
L 66.11911 29.927299 
L 66.200065 29.927299 
L 66.200065 30.153105 
L 66.281021 26.239147 
L 66.361976 26.239147 
L 66.361976 26.464952 
L 66.442932 22.400457 
L 66.523888 22.400457 
L 66.604843 27.593978 
L 66.685799 27.593978 
L 66.685799 28.497199 
L 66.766754 26.464952 
L 66.84771 26.464952 
L 66.84771 30.37891 
L 66.928666 28.873541 
L 67.009621 28.873541 
L 67.090577 33.314378 
L 67.171532 33.314378 
L 67.252488 24.056363 
L 67.333444 24.056363 
L 67.333444 19.690794 
L 67.414399 27.067099 
L 67.495355 27.067099 
L 67.495355 27.292905 
L 67.57631 23.981094 
L 67.657266 23.981094 
L 67.657266 28.196126 
L 67.738222 19.239184 
L 67.819177 19.239184 
L 67.819177 29.475689 
L 67.900133 21.647773 
L 67.981088 21.647773 
L 67.981088 22.776799 
L 68.062044 19.9166 
L 68.143 19.9166 
L 68.143 27.593978 
L 68.223955 25.185389 
L 68.304911 25.185389 
L 68.304911 22.174652 
L 68.385866 29.852031 
L 68.466822 29.852031 
L 68.547778 40.690683 
L 68.628733 40.690683 
L 68.709689 63.497015 
L 68.790644 63.497015 
L 68.8716 81.636704 
L 68.952556 81.636704 
L 69.033511 98.271024 
L 69.114467 98.271024 
L 69.114467 97.292535 
L 69.195422 111.894608 
L 69.276378 111.894608 
L 69.357334 121.679503 
L 69.438289 121.679503 
L 69.519245 136.206308 
L 69.6002 136.206308 
L 69.6002 147.722376 
L 69.681156 147.496571 
L 69.762112 147.496571 
L 69.843067 159.991129 
L 69.924023 159.991129 
L 70.004978 168.49646 
L 70.085934 168.49646 
L 70.16689 177.980281 
L 70.247845 177.980281 
L 70.247845 186.410344 
L 70.328801 182.496386 
L 70.409756 182.496386 
L 70.490712 194.614602 
L 70.571668 194.614602 
L 70.571668 195.367286 
L 70.652623 193.485575 
L 70.733579 193.485575 
L 70.733579 202.141444 
L 70.814534 201.238223 
L 70.89549 201.238223 
L 70.89549 206.732817 
L 70.976446 204.775838 
L 71.057401 204.775838 
L 71.138357 210.42097 
L 71.300268 210.345701 
L 71.381224 218.625228 
L 71.462179 218.625228 
L 71.462179 216.969322 
L 71.543135 218.474691 
L 71.62409 218.474691 
L 71.62409 223.066064 
L 71.705046 220.356401 
L 71.786002 220.356401 
L 71.866957 221.711233 
L 71.947913 221.711233 
L 71.947913 225.474654 
L 72.028868 224.797238 
L 72.19078 224.872506 
L 72.19078 229.313343 
L 72.271735 227.431633 
L 72.352691 227.431633 
L 72.352691 230.969248 
L 72.433646 230.291833 
L 72.514602 230.291833 
L 72.514602 230.668175 
L 72.595558 230.367101 
L 72.676513 230.367101 
L 72.757469 232.926227 
L 72.838424 232.926227 
L 72.91938 236.087501 
L 73.000336 236.087501 
L 73.000336 234.958475 
L 73.081291 235.936964 
L 73.162247 235.936964 
L 73.162247 235.334817 
L 73.243202 238.04448 
L 73.324158 238.04448 
L 73.324158 239.324043 
L 73.405114 238.270285 
L 73.486069 238.270285 
L 73.486069 236.689648 
L 73.567025 238.797164 
L 73.64798 238.797164 
L 73.728936 239.700385 
L 73.809892 239.700385 
L 73.809892 238.947701 
L 73.890847 239.775653 
L 73.971803 239.775653 
L 73.971803 241.205753 
L 74.052758 240.603606 
L 74.133714 240.603606 
L 74.133714 240.979948 
L 74.21467 239.850922 
L 74.295625 239.850922 
L 74.295625 242.033706 
L 74.376581 241.732632 
L 74.457536 241.732632 
L 74.457536 241.281022 
L 74.538492 241.281022 
L 74.619448 241.281022 
L 74.619448 242.184243 
L 74.700403 241.582096 
L 74.781359 241.582096 
L 74.781359 243.012196 
L 74.862314 243.012196 
L 74.94327 243.012196 
L 74.94327 243.388538 
L 75.024226 243.162732 
L 75.105181 243.162732 
L 75.105181 243.463806 
L 75.186137 243.087464 
L 75.267092 243.087464 
L 75.348048 243.840148 
L 75.509959 243.840148 
L 75.590915 244.21649 
L 75.67187 244.21649 
L 75.67187 244.065953 
L 75.752826 244.065953 
L 75.833782 244.065953 
L 75.833782 244.442295 
L 75.914737 244.291759 
L 75.995693 244.291759 
L 75.995693 244.743369 
L 76.076648 244.668101 
L 76.157604 244.668101 
L 76.157604 244.065953 
L 76.23856 244.592832 
L 76.319515 244.592832 
L 76.319515 244.893906 
L 76.400471 244.743369 
L 76.481426 244.743369 
L 76.481426 244.367027 
L 76.562382 244.743369 
L 76.724293 244.743369 
L 76.724293 244.969174 
L 76.805249 244.592832 
L 76.886204 244.592832 
L 76.886204 245.044443 
L 76.96716 244.893906 
L 77.048116 244.893906 
L 77.048116 245.19498 
L 77.129071 244.743369 
L 77.210027 244.743369 
L 77.210027 245.19498 
L 77.290982 245.119711 
L 77.371938 245.119711 
L 77.371938 245.345517 
L 77.452894 245.345517 
L 77.69576 245.345517 
L 77.69576 245.721859 
L 77.776716 245.19498 
L 77.857672 245.19498 
L 77.857672 245.345517 
L 77.938627 245.345517 
L 78.26245 245.420785 
L 78.343405 245.721859 
L 78.586272 245.64659 
L 78.586272 245.571322 
L 78.667228 245.64659 
L 78.829139 245.571322 
L 78.829139 245.571322 
" clip-path="url(#p9eaff02bba)" style="fill: none; stroke: #1f77b4; stroke-width: 1.5; stroke-linecap: square"/>
   </g>
   <g id="line2d_17">
    <path d="M 403.282982 232.926227 
L 403.363666 232.926227 
L 403.444351 218.098349 
L 403.525035 218.098349 
L 403.605719 203.195201 
L 403.686403 203.195201 
L 403.767087 182.270581 
L 403.847772 182.270581 
L 403.928456 160.668544 
L 404.00914 160.668544 
L 404.00914 162.625523 
L 404.089824 153.518044 
L 404.170509 153.518044 
L 404.251193 140.87295 
L 404.331877 140.87295 
L 404.412561 120.776282 
L 404.493245 120.776282 
L 404.57393 117.163398 
L 404.654614 117.163398 
L 404.735298 109.787093 
L 404.815982 109.787093 
L 404.815982 98.797903 
L 404.896666 104.443035 
L 404.977351 104.443035 
L 405.058035 87.432372 
L 405.138719 87.432372 
L 405.138719 89.690425 
L 405.219403 84.421635 
L 405.300088 84.421635 
L 405.300088 84.797977 
L 405.380772 76.970062 
L 405.461456 76.970062 
L 405.461456 71.174393 
L 405.54214 81.711972 
L 405.622824 81.711972 
L 405.622824 72.152883 
L 405.703509 73.206641 
L 405.784193 73.206641 
L 405.864877 64.776578 
L 405.945561 64.776578 
L 406.026245 59.206715 
L 406.10693 59.206715 
L 406.10693 59.88413 
L 406.187614 55.744367 
L 406.268298 55.744367 
L 406.348982 61.389499 
L 406.429667 61.389499 
L 406.510351 53.335778 
L 406.591035 53.335778 
L 406.591035 56.873394 
L 406.671719 46.486352 
L 406.752403 46.486352 
L 406.752403 53.71212 
L 406.833088 50.927188 
L 406.913772 50.927188 
L 406.913772 47.088499 
L 406.994456 51.152994 
L 407.07514 51.152994 
L 407.07514 41.970246 
L 407.155824 43.626152 
L 407.236509 43.626152 
L 407.236509 41.142294 
L 407.317193 46.411083 
L 407.397877 46.411083 
L 407.397877 46.56162 
L 407.478561 40.84122 
L 407.559246 40.84122 
L 407.63993 35.421894 
L 407.720614 35.421894 
L 407.801298 39.787462 
L 407.881982 39.787462 
L 407.881982 40.84122 
L 407.962667 36.09931 
L 408.043351 36.09931 
L 408.124035 29.852031 
L 408.204719 29.852031 
L 408.285403 36.701457 
L 408.366088 36.701457 
L 408.366088 37.98102 
L 408.446772 31.282131 
L 408.527456 31.282131 
L 408.527456 35.346626 
L 408.60814 33.991794 
L 408.688825 33.991794 
L 408.688825 35.497162 
L 408.769509 35.497162 
L 408.850193 35.497162 
L 408.850193 25.335926 
L 408.930877 35.572431 
L 409.011561 35.572431 
L 409.092246 21.421968 
L 409.17293 21.421968 
L 409.253614 34.217599 
L 409.334298 34.217599 
L 409.414983 23.077873 
L 409.495667 23.077873 
L 409.495667 33.163841 
L 409.576351 25.636999 
L 409.657035 25.636999 
L 409.657035 41.292831 
L 409.737719 26.464952 
L 409.818404 26.464952 
L 409.818404 30.981057 
L 409.899088 28.723005 
L 409.979772 28.723005 
L 409.979772 31.583205 
L 410.060456 27.97032 
L 410.14114 27.97032 
L 410.14114 36.55092 
L 410.221825 34.292868 
L 410.302509 34.292868 
L 410.302509 38.357362 
L 410.383193 19.615526 
L 410.463877 19.615526 
L 410.463877 33.23911 
L 410.544562 27.895052 
L 410.625246 27.895052 
L 410.625246 25.185389 
L 410.70593 37.454141 
L 410.786614 37.454141 
L 410.867298 22.701531 
L 410.947983 22.701531 
L 411.028667 37.679947 
L 411.109351 37.679947 
L 411.109351 22.852068 
L 411.190035 32.636962 
L 411.270719 32.636962 
L 411.270719 37.454141 
L 411.351404 27.97032 
L 411.432088 27.97032 
L 411.432088 26.690757 
L 411.512772 29.927299 
L 411.593456 29.927299 
L 411.674141 23.905826 
L 411.754825 23.905826 
L 411.835509 31.282131 
L 411.916193 31.282131 
L 411.916193 22.852068 
L 411.996877 32.787499 
L 412.077562 32.787499 
L 412.158246 28.497199 
L 412.23893 28.497199 
L 412.23893 21.045626 
L 412.319614 27.067099 
L 412.400298 27.067099 
L 412.400298 18.712305 
L 412.480983 22.626263 
L 412.561667 22.626263 
L 412.642351 29.099347 
L 412.723035 29.099347 
L 412.723035 37.153068 
L 412.80372 28.873541 
L 412.884404 28.873541 
L 412.965088 38.658436 
L 413.045772 38.658436 
L 413.045772 24.959584 
L 413.126456 30.454178 
L 413.207141 30.454178 
L 413.207141 33.916526 
L 413.287825 29.249884 
L 413.368509 29.249884 
L 413.368509 33.389647 
L 413.449193 32.034815 
L 413.529878 32.034815 
L 413.610562 26.991831 
L 413.691246 26.991831 
L 413.691246 28.120857 
L 413.77193 27.97032 
L 413.852614 27.97032 
L 413.852614 32.26062 
L 413.933299 24.959584 
L 414.013983 24.959584 
L 414.013983 20.292942 
L 414.094667 29.927299 
L 414.175351 29.927299 
L 414.175351 26.690757 
L 414.256035 29.776762 
L 414.417404 29.852031 
L 414.498088 27.443441 
L 414.578772 27.443441 
L 414.578772 22.400457 
L 414.659457 32.712231 
L 414.740141 32.712231 
L 414.820825 28.271394 
L 414.901509 28.271394 
L 414.901509 27.292905 
L 414.982193 31.056326 
L 415.062878 31.056326 
L 415.062878 32.26062 
L 415.143562 31.432668 
L 415.224246 31.432668 
L 415.224246 18.561768 
L 415.30493 29.024078 
L 415.385614 29.024078 
L 415.466299 30.679984 
L 415.466299 24.357436 
L 415.546983 24.357436 
L 415.627667 28.873541 
L 415.789036 28.873541 
L 415.789036 34.593941 
L 415.86972 28.572468 
L 415.950404 28.572468 
L 415.950404 31.583205 
L 416.031088 31.583205 
L 416.111772 31.583205 
L 416.192457 28.572468 
L 416.273141 28.572468 
L 416.273141 20.067136 
L 416.353825 25.185389 
L 416.434509 25.185389 
L 416.434509 31.80901 
L 416.515193 25.787536 
L 416.595878 25.787536 
L 416.595878 30.303641 
L 416.676562 22.550994 
L 416.757246 22.550994 
L 416.757246 36.400383 
L 416.83793 31.206862 
L 416.918615 31.206862 
L 416.999299 25.636999 
L 417.079983 25.636999 
L 417.160667 35.045552 
L 417.241351 35.045552 
L 417.322036 44.303567 
L 417.40272 44.303567 
L 417.483404 67.335704 
L 417.564088 67.335704 
L 417.644772 78.776504 
L 417.725457 78.776504 
L 417.806141 104.744109 
L 417.886825 104.744109 
L 417.967509 111.442998 
L 418.048194 111.442998 
L 418.128878 130.034298 
L 418.209562 130.034298 
L 418.290246 144.109492 
L 418.37093 144.109492 
L 418.451615 151.937408 
L 418.532299 151.937408 
L 418.612983 159.163176 
L 418.693667 159.163176 
L 418.774352 169.399681 
L 418.855036 169.399681 
L 418.93572 180.163065 
L 419.097088 180.238333 
L 419.177773 187.313565 
L 419.258457 187.313565 
L 419.339141 194.614602 
L 419.419825 194.614602 
L 419.500509 193.786649 
L 419.500509 199.281244 
L 419.581194 199.281244 
L 419.661878 205.754328 
L 419.742562 205.754328 
L 419.742562 207.56077 
L 419.823246 207.410233 
L 419.903931 207.410233 
L 419.984615 212.754291 
L 420.065299 212.754291 
L 420.145983 218.474691 
L 420.226667 218.474691 
L 420.226667 215.614491 
L 420.307352 220.43167 
L 420.388036 220.43167 
L 420.46872 221.86177 
L 420.549404 221.86177 
L 420.549404 223.74348 
L 420.630088 223.29187 
L 420.710773 223.29187 
L 420.710773 226.001533 
L 420.791457 224.195091 
L 420.872141 224.195091 
L 420.952825 229.087538 
L 421.03351 229.087538 
L 421.114194 230.668175 
L 421.194878 230.668175 
L 421.194878 230.517638 
L 421.275562 233.377838 
L 421.356246 233.377838 
L 421.436931 232.098275 
L 421.517615 232.098275 
L 421.598299 235.63589 
L 421.678983 235.63589 
L 421.678983 235.109011 
L 421.759667 235.786427 
L 421.840352 235.786427 
L 421.840352 237.743406 
L 421.921036 236.61438 
L 422.00172 236.61438 
L 422.082404 238.195017 
L 422.163089 238.195017 
L 422.163089 238.947701 
L 422.243773 237.442332 
L 422.324457 237.442332 
L 422.405141 239.92619 
L 422.485825 239.92619 
L 422.485825 238.872432 
L 422.56651 240.227264 
L 422.727878 240.227264 
L 422.808562 241.055217 
L 422.969931 240.979948 
L 423.050615 242.33478 
L 423.211983 242.33478 
L 423.292668 241.506827 
L 423.373352 241.506827 
L 423.373352 242.78639 
L 423.454036 242.33478 
L 423.53472 242.33478 
L 423.615404 243.990685 
L 423.696089 243.990685 
L 423.696089 242.108974 
L 423.776773 243.388538 
L 423.857457 243.388538 
L 423.857457 242.861659 
L 423.938141 243.087464 
L 424.018826 243.087464 
L 424.018826 243.840148 
L 424.09951 243.313269 
L 424.180194 243.313269 
L 424.260878 244.442295 
L 424.341562 244.442295 
L 424.341562 243.689611 
L 424.422247 244.141222 
L 424.502931 244.141222 
L 424.502931 244.818638 
L 424.583615 244.141222 
L 424.664299 244.141222 
L 424.664299 244.291759 
L 424.744983 243.463806 
L 424.825668 243.463806 
L 424.906352 244.21649 
L 424.987036 244.21649 
L 424.987036 245.119711 
L 425.06772 245.119711 
L 425.148405 245.119711 
L 425.229089 244.065953 
L 425.309773 244.065953 
L 425.309773 245.19498 
L 425.390457 244.893906 
L 425.63251 244.893906 
L 425.63251 245.420785 
L 425.713194 245.345517 
L 425.793878 245.345517 
L 425.793878 245.496053 
L 425.874562 245.19498 
L 425.955247 245.19498 
L 425.955247 244.969174 
L 426.035931 245.345517 
L 426.116615 245.345517 
L 426.116615 245.19498 
L 426.197299 245.19498 
L 426.277984 245.19498 
L 426.358668 245.571322 
L 426.60072 245.64659 
L 426.60072 245.19498 
L 426.681405 245.571322 
L 426.762089 245.571322 
L 426.762089 245.345517 
L 426.842773 245.420785 
L 427.004141 245.420785 
L 427.004141 245.64659 
L 427.084826 245.571322 
L 427.16551 245.571322 
L 427.16551 245.19498 
L 427.246194 245.797127 
L 427.326878 245.797127 
L 427.326878 245.270248 
L 427.407563 245.496053 
L 427.488247 245.496053 
L 427.488247 245.496053 
" clip-path="url(#p9eaff02bba)" style="fill: none; stroke: #ff7f0e; stroke-width: 1.5; stroke-linecap: square"/>
   </g>
   <g id="patch_3">
    <path d="M 53.328125 257.158895 
L 53.328125 7.2 
" style="fill: none; stroke: #000000; stroke-width: 0.8; stroke-linejoin: miter; stroke-linecap: square"/>
   </g>
   <g id="patch_4">
    <path d="M 428.69851 257.158895 
L 428.69851 7.2 
" style="fill: none; stroke: #000000; stroke-width: 0.8; stroke-linejoin: miter; stroke-linecap: square"/>
   </g>
   <g id="patch_5">
    <path d="M 53.328125 257.158895 
L 428.69851 257.158895 
" style="fill: none; stroke: #000000; stroke-width: 0.8; stroke-linejoin: miter; stroke-linecap: square"/>
   </g>
   <g id="patch_6">
    <path d="M 53.328125 7.2 
L 428.69851 7.2 
" style="fill: none; stroke: #000000; stroke-width: 0.8; stroke-linejoin: miter; stroke-linecap: square"/>
   </g>
   <g id="legend_1">
    <g id="patch_7">
     <path d="M 206.734411 252.158895 
L 275.292224 252.158895 
Q 277.292224 252.158895 277.292224 250.158895 
L 277.292224 221.802645 
Q 277.292224 219.802645 275.292224 219.802645 
L 206.734411 219.802645 
Q 204.734411 219.802645 204.734411 221.802645 
L 204.734411 250.158895 
Q 204.734411 252.158895 206.734411 252.158895 
z
" style="fill: #ffffff; opacity: 0.8; stroke: #cccccc; stroke-linejoin: miter"/>
    </g>
    <g id="line2d_18">
     <path d="M 208.734411 227.901082 
L 208.734411 227.901082 
L 218.734411 227.901082 
L 218.734411 227.901082 
L 228.734411 227.901082 
" style="fill: none; stroke: #1f77b4; stroke-width: 1.5; stroke-linecap: square"/>
    </g>
    <g id="text_18">
     <!-- pulse:0 -->
     <g transform="translate(236.734411 231.401082) scale(0.1 -0.1)">
      <defs>
       <path id="DejaVuSans-70" d="M 1159 525 
L 1159 -1331 
L 581 -1331 
L 581 3500 
L 1159 3500 
L 1159 2969 
Q 1341 3281 1617 3432 
Q 1894 3584 2278 3584 
Q 2916 3584 3314 3078 
Q 3713 2572 3713 1747 
Q 3713 922 3314 415 
Q 2916 -91 2278 -91 
Q 1894 -91 1617 61 
Q 1341 213 1159 525 
z
M 3116 1747 
Q 3116 2381 2855 2742 
Q 2594 3103 2138 3103 
Q 1681 3103 1420 2742 
Q 1159 2381 1159 1747 
Q 1159 1113 1420 752 
Q 1681 391 2138 391 
Q 2594 391 2855 752 
Q 3116 1113 3116 1747 
z
" transform="scale(0.015625)"/>
       <path id="DejaVuSans-6c" d="M 603 4863 
L 1178 4863 
L 1178 0 
L 603 0 
L 603 4863 
z
" transform="scale(0.015625)"/>
       <path id="DejaVuSans-3a" d="M 750 794 
L 1409 794 
L 1409 0 
L 750 0 
L 750 794 
z
M 750 3309 
L 1409 3309 
L 1409 2516 
L 750 2516 
L 750 3309 
z
" transform="scale(0.015625)"/>
      </defs>
      <use xlink:href="#DejaVuSans-70"/>
      <use xlink:href="#DejaVuSans-75" transform="translate(63.476562 0)"/>
      <use xlink:href="#DejaVuSans-6c" transform="translate(126.855469 0)"/>
      <use xlink:href="#DejaVuSans-73" transform="translate(154.638672 0)"/>
      <use xlink:href="#DejaVuSans-65" transform="translate(206.738281 0)"/>
      <use xlink:href="#DejaVuSans-3a" transform="translate(268.261719 0)"/>
      <use xlink:href="#DejaVuSans-30" transform="translate(301.953125 0)"/>
     </g>
    </g>
    <g id="line2d_19">
     <path d="M 208.734411 242.579207 
L 208.734411 242.579207 
L 218.734411 242.579207 
L 218.734411 242.579207 
L 228.734411 242.579207 
" style="fill: none; stroke: #ff7f0e; stroke-width: 1.5; stroke-linecap: square"/>
    </g>
    <g id="text_19">
     <!-- pulse:1 -->
     <g transform="translate(236.734411 246.079207) scale(0.1 -0.1)">
      <use xlink:href="#DejaVuSans-70"/>
      <use xlink:href="#DejaVuSans-75" transform="translate(63.476562 0)"/>
      <use xlink:href="#DejaVuSans-6c" transform="translate(126.855469 0)"/>
      <use xlink:href="#DejaVuSans-73" transform="translate(154.638672 0)"/>
      <use xlink:href="#DejaVuSans-65" transform="translate(206.738281 0)"/>
      <use xlink:href="#DejaVuSans-3a" transform="translate(268.261719 0)"/>
      <use xlink:href="#DejaVuSans-31" transform="translate(301.953125 0)"/>
     </g>
    </g>
   </g>
  </g>
  <g id="axes_2">
   <g id="patch_8">
    <path d="M 489.829135 257.158895 
L 865.19952 257.158895 
L 865.19952 7.2 
L 489.829135 7.2 
z
" style="fill: #ffffff"/>
   </g>
   <g id="matplotlib.axis_3">
    <g id="xtick_9">
     <g id="line2d_20">
      <g>
       <use xlink:href="#m49843ec68a" x="503.452387" y="257.158895" style="stroke: #000000; stroke-width: 0.8"/>
      </g>
     </g>
     <g id="text_20">
      <!-- 0.0 -->
      <g transform="translate(495.500824 271.757332) scale(0.1 -0.1)">
       <defs>
        <path id="DejaVuSans-2e" d="M 684 794 
L 1344 794 
L 1344 0 
L 684 0 
L 684 794 
z
" transform="scale(0.015625)"/>
       </defs>
       <use xlink:href="#DejaVuSans-30"/>
       <use xlink:href="#DejaVuSans-2e" transform="translate(63.623047 0)"/>
       <use xlink:href="#DejaVuSans-30" transform="translate(95.410156 0)"/>
      </g>
     </g>
    </g>
    <g id="xtick_10">
     <g id="line2d_21">
      <g>
       <use xlink:href="#m49843ec68a" x="546.760673" y="257.158895" style="stroke: #000000; stroke-width: 0.8"/>
      </g>
     </g>
     <g id="text_21">
      <!-- 2.5 -->
      <g transform="translate(538.80911 271.757332) scale(0.1 -0.1)">
       <use xlink:href="#DejaVuSans-32"/>
       <use xlink:href="#DejaVuSans-2e" transform="translate(63.623047 0)"/>
       <use xlink:href="#DejaVuSans-35" transform="translate(95.410156 0)"/>
      </g>
     </g>
    </g>
    <g id="xtick_11">
     <g id="line2d_22">
      <g>
       <use xlink:href="#m49843ec68a" x="590.068959" y="257.158895" style="stroke: #000000; stroke-width: 0.8"/>
      </g>
     </g>
     <g id="text_22">
      <!-- 5.0 -->
      <g transform="translate(582.117396 271.757332) scale(0.1 -0.1)">
       <use xlink:href="#DejaVuSans-35"/>
       <use xlink:href="#DejaVuSans-2e" transform="translate(63.623047 0)"/>
       <use xlink:href="#DejaVuSans-30" transform="translate(95.410156 0)"/>
      </g>
     </g>
    </g>
    <g id="xtick_12">
     <g id="line2d_23">
      <g>
       <use xlink:href="#m49843ec68a" x="633.377245" y="257.158895" style="stroke: #000000; stroke-width: 0.8"/>
      </g>
     </g>
     <g id="text_23">
      <!-- 7.5 -->
      <g transform="translate(625.425683 271.757332) scale(0.1 -0.1)">
       <use xlink:href="#DejaVuSans-37"/>
       <use xlink:href="#DejaVuSans-2e" transform="translate(63.623047 0)"/>
       <use xlink:href="#DejaVuSans-35" transform="translate(95.410156 0)"/>
      </g>
     </g>
    </g>
    <g id="xtick_13">
     <g id="line2d_24">
      <g>
       <use xlink:href="#m49843ec68a" x="676.685531" y="257.158895" style="stroke: #000000; stroke-width: 0.8"/>
      </g>
     </g>
     <g id="text_24">
      <!-- 10.0 -->
      <g transform="translate(665.552719 271.757332) scale(0.1 -0.1)">
       <use xlink:href="#DejaVuSans-31"/>
       <use xlink:href="#DejaVuSans-30" transform="translate(63.623047 0)"/>
       <use xlink:href="#DejaVuSans-2e" transform="translate(127.246094 0)"/>
       <use xlink:href="#DejaVuSans-30" transform="translate(159.033203 0)"/>
      </g>
     </g>
    </g>
    <g id="xtick_14">
     <g id="line2d_25">
      <g>
       <use xlink:href="#m49843ec68a" x="719.993817" y="257.158895" style="stroke: #000000; stroke-width: 0.8"/>
      </g>
     </g>
     <g id="text_25">
      <!-- 12.5 -->
      <g transform="translate(708.861005 271.757332) scale(0.1 -0.1)">
       <use xlink:href="#DejaVuSans-31"/>
       <use xlink:href="#DejaVuSans-32" transform="translate(63.623047 0)"/>
       <use xlink:href="#DejaVuSans-2e" transform="translate(127.246094 0)"/>
       <use xlink:href="#DejaVuSans-35" transform="translate(159.033203 0)"/>
      </g>
     </g>
    </g>
    <g id="xtick_15">
     <g id="line2d_26">
      <g>
       <use xlink:href="#m49843ec68a" x="763.302103" y="257.158895" style="stroke: #000000; stroke-width: 0.8"/>
      </g>
     </g>
     <g id="text_26">
      <!-- 15.0 -->
      <g transform="translate(752.169291 271.757332) scale(0.1 -0.1)">
       <use xlink:href="#DejaVuSans-31"/>
       <use xlink:href="#DejaVuSans-35" transform="translate(63.623047 0)"/>
       <use xlink:href="#DejaVuSans-2e" transform="translate(127.246094 0)"/>
       <use xlink:href="#DejaVuSans-30" transform="translate(159.033203 0)"/>
      </g>
     </g>
    </g>
    <g id="xtick_16">
     <g id="line2d_27">
      <g>
       <use xlink:href="#m49843ec68a" x="806.610389" y="257.158895" style="stroke: #000000; stroke-width: 0.8"/>
      </g>
     </g>
     <g id="text_27">
      <!-- 17.5 -->
      <g transform="translate(795.477577 271.757332) scale(0.1 -0.1)">
       <use xlink:href="#DejaVuSans-31"/>
       <use xlink:href="#DejaVuSans-37" transform="translate(63.623047 0)"/>
       <use xlink:href="#DejaVuSans-2e" transform="translate(127.246094 0)"/>
       <use xlink:href="#DejaVuSans-35" transform="translate(159.033203 0)"/>
      </g>
     </g>
    </g>
    <g id="xtick_17">
     <g id="line2d_28">
      <g>
       <use xlink:href="#m49843ec68a" x="849.918675" y="257.158895" style="stroke: #000000; stroke-width: 0.8"/>
      </g>
     </g>
     <g id="text_28">
      <!-- 20.0 -->
      <g transform="translate(838.785863 271.757332) scale(0.1 -0.1)">
       <use xlink:href="#DejaVuSans-32"/>
       <use xlink:href="#DejaVuSans-30" transform="translate(63.623047 0)"/>
       <use xlink:href="#DejaVuSans-2e" transform="translate(127.246094 0)"/>
       <use xlink:href="#DejaVuSans-30" transform="translate(159.033203 0)"/>
      </g>
     </g>
    </g>
    <g id="text_29">
     <!-- wavelength [Å] -->
     <g transform="translate(639.476827 287.119832) scale(0.1 -0.1)">
      <defs>
       <path id="DejaVuSans-77" d="M 269 3500 
L 844 3500 
L 1563 769 
L 2278 3500 
L 2956 3500 
L 3675 769 
L 4391 3500 
L 4966 3500 
L 4050 0 
L 3372 0 
L 2619 2869 
L 1863 0 
L 1184 0 
L 269 3500 
z
" transform="scale(0.015625)"/>
       <path id="DejaVuSans-61" d="M 2194 1759 
Q 1497 1759 1228 1600 
Q 959 1441 959 1056 
Q 959 750 1161 570 
Q 1363 391 1709 391 
Q 2188 391 2477 730 
Q 2766 1069 2766 1631 
L 2766 1759 
L 2194 1759 
z
M 3341 1997 
L 3341 0 
L 2766 0 
L 2766 531 
Q 2569 213 2275 61 
Q 1981 -91 1556 -91 
Q 1019 -91 701 211 
Q 384 513 384 1019 
Q 384 1609 779 1909 
Q 1175 2209 1959 2209 
L 2766 2209 
L 2766 2266 
Q 2766 2663 2505 2880 
Q 2244 3097 1772 3097 
Q 1472 3097 1187 3025 
Q 903 2953 641 2809 
L 641 3341 
Q 956 3463 1253 3523 
Q 1550 3584 1831 3584 
Q 2591 3584 2966 3190 
Q 3341 2797 3341 1997 
z
" transform="scale(0.015625)"/>
       <path id="DejaVuSans-76" d="M 191 3500 
L 800 3500 
L 1894 563 
L 2988 3500 
L 3597 3500 
L 2284 0 
L 1503 0 
L 191 3500 
z
" transform="scale(0.015625)"/>
       <path id="DejaVuSans-67" d="M 2906 1791 
Q 2906 2416 2648 2759 
Q 2391 3103 1925 3103 
Q 1463 3103 1205 2759 
Q 947 2416 947 1791 
Q 947 1169 1205 825 
Q 1463 481 1925 481 
Q 2391 481 2648 825 
Q 2906 1169 2906 1791 
z
M 3481 434 
Q 3481 -459 3084 -895 
Q 2688 -1331 1869 -1331 
Q 1566 -1331 1297 -1286 
Q 1028 -1241 775 -1147 
L 775 -588 
Q 1028 -725 1275 -790 
Q 1522 -856 1778 -856 
Q 2344 -856 2625 -561 
Q 2906 -266 2906 331 
L 2906 616 
Q 2728 306 2450 153 
Q 2172 0 1784 0 
Q 1141 0 747 490 
Q 353 981 353 1791 
Q 353 2603 747 3093 
Q 1141 3584 1784 3584 
Q 2172 3584 2450 3431 
Q 2728 3278 2906 2969 
L 2906 3500 
L 3481 3500 
L 3481 434 
z
" transform="scale(0.015625)"/>
       <path id="DejaVuSans-c5" d="M 2663 5081 
Q 2663 5278 2523 5417 
Q 2384 5556 2188 5556 
Q 1988 5556 1852 5420 
Q 1716 5284 1716 5081 
Q 1716 4884 1853 4746 
Q 1991 4609 2188 4609 
Q 2384 4609 2523 4746 
Q 2663 4884 2663 5081 
z
M 2188 4044 
L 1338 1722 
L 3041 1722 
L 2188 4044 
z
M 1716 4366 
Q 1525 4494 1428 4673 
Q 1331 4853 1331 5081 
Q 1331 5441 1579 5691 
Q 1828 5941 2188 5941 
Q 2544 5941 2795 5689 
Q 3047 5438 3047 5081 
Q 3047 4863 2948 4678 
Q 2850 4494 2663 4366 
L 4325 0 
L 3669 0 
L 3244 1197 
L 1141 1197 
L 716 0 
L 50 0 
L 1716 4366 
z
" transform="scale(0.015625)"/>
      </defs>
      <use xlink:href="#DejaVuSans-77"/>
      <use xlink:href="#DejaVuSans-61" transform="translate(81.787109 0)"/>
      <use xlink:href="#DejaVuSans-76" transform="translate(143.066406 0)"/>
      <use xlink:href="#DejaVuSans-65" transform="translate(202.246094 0)"/>
      <use xlink:href="#DejaVuSans-6c" transform="translate(263.769531 0)"/>
      <use xlink:href="#DejaVuSans-65" transform="translate(291.552734 0)"/>
      <use xlink:href="#DejaVuSans-6e" transform="translate(353.076172 0)"/>
      <use xlink:href="#DejaVuSans-67" transform="translate(416.455078 0)"/>
      <use xlink:href="#DejaVuSans-74" transform="translate(479.931641 0)"/>
      <use xlink:href="#DejaVuSans-68" transform="translate(519.140625 0)"/>
      <use xlink:href="#DejaVuSans-20" transform="translate(582.519531 0)"/>
      <use xlink:href="#DejaVuSans-5b" transform="translate(614.306641 0)"/>
      <use xlink:href="#DejaVuSans-c5" transform="translate(653.320312 0)"/>
      <use xlink:href="#DejaVuSans-5d" transform="translate(721.728516 0)"/>
     </g>
    </g>
   </g>
   <g id="matplotlib.axis_4">
    <g id="ytick_8">
     <g id="line2d_29">
      <g>
       <use xlink:href="#ma16142b1e6" x="489.829135" y="245.81823" style="stroke: #000000; stroke-width: 0.8"/>
      </g>
     </g>
     <g id="text_30">
      <!-- 0 -->
      <g transform="translate(476.466635 249.617449) scale(0.1 -0.1)">
       <use xlink:href="#DejaVuSans-30"/>
      </g>
     </g>
    </g>
    <g id="ytick_9">
     <g id="line2d_30">
      <g>
       <use xlink:href="#ma16142b1e6" x="489.829135" y="203.612554" style="stroke: #000000; stroke-width: 0.8"/>
      </g>
     </g>
     <g id="text_31">
      <!-- 2000 -->
      <g transform="translate(457.379135 207.411773) scale(0.1 -0.1)">
       <use xlink:href="#DejaVuSans-32"/>
       <use xlink:href="#DejaVuSans-30" transform="translate(63.623047 0)"/>
       <use xlink:href="#DejaVuSans-30" transform="translate(127.246094 0)"/>
       <use xlink:href="#DejaVuSans-30" transform="translate(190.869141 0)"/>
      </g>
     </g>
    </g>
    <g id="ytick_10">
     <g id="line2d_31">
      <g>
       <use xlink:href="#ma16142b1e6" x="489.829135" y="161.406878" style="stroke: #000000; stroke-width: 0.8"/>
      </g>
     </g>
     <g id="text_32">
      <!-- 4000 -->
      <g transform="translate(457.379135 165.206097) scale(0.1 -0.1)">
       <use xlink:href="#DejaVuSans-34"/>
       <use xlink:href="#DejaVuSans-30" transform="translate(63.623047 0)"/>
       <use xlink:href="#DejaVuSans-30" transform="translate(127.246094 0)"/>
       <use xlink:href="#DejaVuSans-30" transform="translate(190.869141 0)"/>
      </g>
     </g>
    </g>
    <g id="ytick_11">
     <g id="line2d_32">
      <g>
       <use xlink:href="#ma16142b1e6" x="489.829135" y="119.201202" style="stroke: #000000; stroke-width: 0.8"/>
      </g>
     </g>
     <g id="text_33">
      <!-- 6000 -->
      <g transform="translate(457.379135 123.000421) scale(0.1 -0.1)">
       <use xlink:href="#DejaVuSans-36"/>
       <use xlink:href="#DejaVuSans-30" transform="translate(63.623047 0)"/>
       <use xlink:href="#DejaVuSans-30" transform="translate(127.246094 0)"/>
       <use xlink:href="#DejaVuSans-30" transform="translate(190.869141 0)"/>
      </g>
     </g>
    </g>
    <g id="ytick_12">
     <g id="line2d_33">
      <g>
       <use xlink:href="#ma16142b1e6" x="489.829135" y="76.995526" style="stroke: #000000; stroke-width: 0.8"/>
      </g>
     </g>
     <g id="text_34">
      <!-- 8000 -->
      <g transform="translate(457.379135 80.794745) scale(0.1 -0.1)">
       <defs>
        <path id="DejaVuSans-38" d="M 2034 2216 
Q 1584 2216 1326 1975 
Q 1069 1734 1069 1313 
Q 1069 891 1326 650 
Q 1584 409 2034 409 
Q 2484 409 2743 651 
Q 3003 894 3003 1313 
Q 3003 1734 2745 1975 
Q 2488 2216 2034 2216 
z
M 1403 2484 
Q 997 2584 770 2862 
Q 544 3141 544 3541 
Q 544 4100 942 4425 
Q 1341 4750 2034 4750 
Q 2731 4750 3128 4425 
Q 3525 4100 3525 3541 
Q 3525 3141 3298 2862 
Q 3072 2584 2669 2484 
Q 3125 2378 3379 2068 
Q 3634 1759 3634 1313 
Q 3634 634 3220 271 
Q 2806 -91 2034 -91 
Q 1263 -91 848 271 
Q 434 634 434 1313 
Q 434 1759 690 2068 
Q 947 2378 1403 2484 
z
M 1172 3481 
Q 1172 3119 1398 2916 
Q 1625 2713 2034 2713 
Q 2441 2713 2670 2916 
Q 2900 3119 2900 3481 
Q 2900 3844 2670 4047 
Q 2441 4250 2034 4250 
Q 1625 4250 1398 4047 
Q 1172 3844 1172 3481 
z
" transform="scale(0.015625)"/>
       </defs>
       <use xlink:href="#DejaVuSans-38"/>
       <use xlink:href="#DejaVuSans-30" transform="translate(63.623047 0)"/>
       <use xlink:href="#DejaVuSans-30" transform="translate(127.246094 0)"/>
       <use xlink:href="#DejaVuSans-30" transform="translate(190.869141 0)"/>
      </g>
     </g>
    </g>
    <g id="ytick_13">
     <g id="line2d_34">
      <g>
       <use xlink:href="#ma16142b1e6" x="489.829135" y="34.78985" style="stroke: #000000; stroke-width: 0.8"/>
      </g>
     </g>
     <g id="text_35">
      <!-- 10000 -->
      <g transform="translate(451.016635 38.589069) scale(0.1 -0.1)">
       <use xlink:href="#DejaVuSans-31"/>
       <use xlink:href="#DejaVuSans-30" transform="translate(63.623047 0)"/>
       <use xlink:href="#DejaVuSans-30" transform="translate(127.246094 0)"/>
       <use xlink:href="#DejaVuSans-30" transform="translate(190.869141 0)"/>
       <use xlink:href="#DejaVuSans-30" transform="translate(254.492188 0)"/>
      </g>
     </g>
    </g>
    <g id="text_36">
     <!-- [counts] -->
     <g transform="translate(444.936947 152.791947) rotate(-90) scale(0.1 -0.1)">
      <use xlink:href="#DejaVuSans-5b"/>
      <use xlink:href="#DejaVuSans-63" transform="translate(39.013672 0)"/>
      <use xlink:href="#DejaVuSans-6f" transform="translate(93.994141 0)"/>
      <use xlink:href="#DejaVuSans-75" transform="translate(155.175781 0)"/>
      <use xlink:href="#DejaVuSans-6e" transform="translate(218.554688 0)"/>
      <use xlink:href="#DejaVuSans-74" transform="translate(281.933594 0)"/>
      <use xlink:href="#DejaVuSans-73" transform="translate(321.142578 0)"/>
      <use xlink:href="#DejaVuSans-5d" transform="translate(373.242188 0)"/>
     </g>
    </g>
   </g>
   <g id="line2d_35">
    <path d="M 506.89144 156.405505 
L 508.027359 156.405505 
L 508.027359 143.406157 
L 509.163277 143.406157 
L 509.163277 138.214859 
L 510.299195 138.214859 
L 510.299195 136.779866 
L 511.435113 136.779866 
L 511.435113 146.40276 
L 512.571031 146.40276 
L 512.571031 157.017488 
L 513.706949 157.017488 
L 513.706949 145.917395 
L 514.842868 145.917395 
L 514.842868 126.333961 
L 515.978786 126.333961 
L 515.978786 106.792733 
L 517.114704 106.792733 
L 517.114704 82.22903 
L 518.250622 82.22903 
L 518.250622 62.054717 
L 519.38654 62.054717 
L 519.38654 36.921237 
L 520.522458 36.921237 
L 520.522458 23.985197 
L 521.658377 23.985197 
L 521.658377 24.470563 
L 522.794295 24.470563 
L 522.794295 18.561768 
L 523.930213 18.561768 
L 523.930213 22.655719 
L 525.066131 22.655719 
L 525.066131 29.535244 
L 526.202049 29.535244 
L 526.202049 37.891968 
L 527.337967 37.891968 
L 527.337967 52.220794 
L 528.473885 52.220794 
L 528.473885 60.66193 
L 529.609804 60.66193 
L 529.609804 70.8546 
L 530.745722 70.8546 
L 530.745722 78.915885 
L 531.88164 78.915885 
L 531.88164 84.402622 
L 533.017558 84.402622 
L 533.017558 89.910463 
L 534.153476 89.910463 
L 534.153476 93.1603 
L 535.289394 93.1603 
L 535.289394 96.072492 
L 536.425313 96.072492 
L 536.425313 101.26379 
L 537.561231 101.26379 
L 537.561231 99.723283 
L 538.697149 99.723283 
L 538.697149 92.569421 
L 539.833067 92.569421 
L 539.833067 88.91863 
L 540.968985 88.91863 
L 540.968985 80.498597 
L 542.104903 80.498597 
L 542.104903 71.783125 
L 543.240822 71.783125 
L 543.240822 63.78515 
L 544.37674 63.78515 
L 544.37674 51.355578 
L 545.512658 51.355578 
L 545.512658 41.964815 
L 546.648576 41.964815 
L 546.648576 32.55295 
L 547.784494 32.55295 
L 547.784494 35.190804 
L 548.920412 35.190804 
L 548.920412 45.594503 
L 550.056331 45.594503 
L 550.056331 51.039036 
L 551.192249 51.039036 
L 551.192249 59.015908 
L 552.328167 59.015908 
L 552.328167 68.744317 
L 553.464085 68.744317 
L 553.464085 76.636778 
L 554.600003 76.636778 
L 554.600003 86.301878 
L 555.735921 86.301878 
L 555.735921 96.43124 
L 556.871839 96.43124 
L 556.871839 102.698783 
L 558.007758 102.698783 
L 558.007758 111.097712 
L 559.143676 111.097712 
L 559.143676 117.449667 
L 560.279594 117.449667 
L 560.279594 126.228447 
L 561.415512 126.228447 
L 561.415512 129.330564 
L 562.55143 129.330564 
L 562.55143 136.611043 
L 563.687348 136.611043 
L 563.687348 140.240732 
L 564.823267 140.240732 
L 564.823267 146.001806 
L 565.959185 146.001806 
L 565.959185 150.348991 
L 567.095103 150.348991 
L 567.095103 158.051527 
L 568.231021 158.051527 
L 568.231021 158.494686 
L 569.366939 158.494686 
L 569.366939 166.471559 
L 570.502857 166.471559 
L 570.502857 169.615882 
L 571.638776 169.615882 
L 571.638776 171.68396 
L 572.774694 171.68396 
L 572.774694 179.407599 
L 573.910612 179.407599 
L 573.910612 178.647897 
L 575.04653 178.647897 
L 575.04653 182.108762 
L 576.182448 182.108762 
L 576.182448 184.76772 
L 577.318366 184.76772 
L 577.318366 189.030493 
L 578.454285 189.030493 
L 578.454285 189.579167 
L 579.590203 189.579167 
L 579.590203 192.42805 
L 580.726121 192.42805 
L 580.726121 195.25583 
L 581.862039 195.25583 
L 581.862039 199.159855 
L 582.997957 199.159855 
L 582.997957 199.919557 
L 584.133875 199.919557 
L 584.133875 203.380423 
L 585.269794 203.380423 
L 585.269794 202.747338 
L 586.405712 202.747338 
L 586.405712 206.271512 
L 587.54163 206.271512 
L 587.54163 208.381795 
L 588.677548 208.381795 
L 588.677548 208.550618 
L 589.813466 208.550618 
L 589.813466 212.074792 
L 590.949384 212.074792 
L 590.949384 212.517952 
L 592.085302 212.517952 
L 592.085302 212.686774 
L 593.221221 212.686774 
L 593.221221 214.100664 
L 594.357139 214.100664 
L 594.357139 215.915509 
L 595.493057 215.915509 
L 595.493057 217.814764 
L 596.628975 217.814764 
L 596.628975 218.97542 
L 597.764893 218.97542 
L 597.764893 219.376374 
L 598.900811 219.376374 
L 598.900811 220.916881 
L 600.03673 220.916881 
L 600.03673 221.676583 
L 601.172648 221.676583 
L 601.172648 223.006062 
L 602.308566 223.006062 
L 602.308566 223.850176 
L 603.444484 223.850176 
L 603.444484 224.040101 
L 604.580402 224.040101 
L 604.580402 224.694289 
L 605.71632 224.694289 
L 605.71632 227.142218 
L 606.852239 227.142218 
L 606.852239 226.382516 
L 607.988157 226.382516 
L 607.988157 227.311041 
L 609.124075 227.311041 
L 609.124075 228.957062 
L 610.259993 228.957062 
L 610.259993 229.484633 
L 612.531829 229.590147 
L 612.531829 230.708598 
L 613.667748 230.708598 
L 613.667748 230.919626 
L 614.803666 230.919626 
L 614.803666 231.4683 
L 615.939584 231.4683 
L 615.939584 232.481236 
L 617.075502 232.481236 
L 617.075502 233.662995 
L 618.21142 233.662995 
L 618.21142 232.945499 
L 619.347338 232.945499 
L 619.347338 234.085052 
L 620.483257 234.085052 
L 620.483257 233.430864 
L 621.619175 233.430864 
L 621.619175 235.055783 
L 622.755093 235.055783 
L 622.755093 235.224605 
L 625.026929 235.224605 
L 625.026929 236.195336 
L 626.162847 236.195336 
L 626.162847 235.984307 
L 628.434684 236.089822 
L 628.434684 236.976141 
L 629.570602 236.976141 
L 629.570602 237.102758 
L 630.70652 237.102758 
L 630.70652 236.722907 
L 631.842438 236.722907 
L 631.842438 238.368928 
L 632.978356 238.368928 
L 632.978356 237.756946 
L 634.114274 237.756946 
L 634.114274 238.622162 
L 635.250193 238.622162 
L 635.250193 238.284517 
L 636.386111 238.284517 
L 636.386111 238.495545 
L 637.522029 238.495545 
L 637.522029 238.769882 
L 638.657947 238.769882 
L 638.657947 239.339659 
L 639.793865 239.339659 
L 639.793865 238.601059 
L 640.929783 238.601059 
L 640.929783 239.023116 
L 642.065702 239.023116 
L 642.065702 240.014949 
L 643.20162 240.014949 
L 643.20162 240.500315 
L 644.337538 240.500315 
L 644.337538 240.141566 
L 645.473456 240.141566 
L 645.473456 240.310389 
L 646.609374 240.310389 
L 646.609374 240.458109 
L 647.745292 240.458109 
L 647.745292 240.816857 
L 648.881211 240.816857 
L 648.881211 241.1334 
L 650.017129 241.1334 
L 650.017129 240.605829 
L 651.153047 240.605829 
L 651.153047 241.217811 
L 654.560801 241.260017 
L 654.560801 241.513251 
L 655.696719 241.513251 
L 655.696719 241.238914 
L 656.832638 241.238914 
L 656.832638 241.808691 
L 659.104474 241.745382 
L 659.104474 242.061925 
L 660.240392 242.061925 
L 660.240392 242.462879 
L 662.512228 242.39957 
L 662.512228 241.639868 
L 663.648147 241.639868 
L 663.648147 242.167439 
L 664.784065 242.167439 
L 664.784065 242.652804 
L 668.191819 242.652804 
L 668.191819 242.209645 
L 669.327737 242.209645 
L 669.327737 243.011552 
L 671.599574 243.011552 
L 671.599574 243.180375 
L 672.735492 243.180375 
L 672.735492 242.948244 
L 673.87141 242.948244 
L 673.87141 243.412506 
L 676.143246 243.328095 
L 676.143246 243.792357 
L 677.279165 243.792357 
L 677.279165 242.906038 
L 678.415083 242.906038 
L 678.415083 243.117067 
L 679.551001 243.117067 
L 679.551001 243.349198 
L 680.686919 243.349198 
L 680.686919 243.771255 
L 681.822837 243.771255 
L 681.822837 243.391404 
L 685.230592 243.454712 
L 685.230592 243.581329 
L 687.502428 243.644638 
L 687.502428 243.855666 
L 689.774264 243.834563 
L 689.774264 243.729049 
L 690.910182 243.729049 
L 690.910182 244.024489 
L 692.046101 244.024489 
L 692.046101 243.686843 
L 693.182019 243.686843 
L 693.182019 244.024489 
L 694.317937 244.024489 
L 694.317937 244.193311 
L 696.589773 244.298826 
L 696.589773 243.81346 
L 697.725691 243.81346 
L 697.725691 244.467648 
L 698.86161 244.467648 
L 698.86161 243.918974 
L 699.997528 243.918974 
L 699.997528 244.277723 
L 702.269364 244.362134 
L 702.269364 244.467648 
L 706.813037 244.509854 
L 706.813037 244.066694 
L 709.084873 244.1089 
L 709.084873 244.636471 
L 711.356709 244.530957 
L 711.356709 244.805294 
L 712.492628 244.805294 
L 712.492628 244.383237 
L 713.628546 244.383237 
L 713.628546 244.720882 
L 718.172218 244.699779 
L 718.172218 244.868602 
L 720.444055 244.805294 
L 720.444055 244.615368 
L 721.579973 244.615368 
L 721.579973 244.868602 
L 728.395482 244.974116 
L 728.395482 245.058528 
L 730.667318 244.953014 
L 730.667318 244.720882 
L 731.803236 244.720882 
L 731.803236 245.058528 
L 737.482827 245.100733 
L 737.482827 244.931911 
L 738.618745 244.931911 
L 738.618745 245.100733 
L 743.162418 245.164042 
L 743.162418 245.248453 
L 746.570172 245.290659 
L 746.570172 245.079631 
L 748.842009 245.079631 
L 748.842009 245.417276 
L 749.977927 245.417276 
L 749.977927 245.164042 
L 751.113845 245.164042 
L 751.113845 245.353967 
L 768.152617 245.438379 
L 768.152617 245.52279 
L 769.288536 245.52279 
L 769.288536 245.37507 
L 773.832208 245.438379 
L 773.832208 245.543893 
L 774.968126 245.543893 
L 774.968126 245.290659 
L 776.104045 245.290659 
L 776.104045 245.480584 
L 778.375881 245.543893 
L 778.375881 245.628304 
L 780.647717 245.543893 
L 780.647717 245.332865 
L 781.783635 245.332865 
L 781.783635 245.543893 
L 792.006899 245.543893 
L 792.006899 245.396173 
L 793.142817 245.396173 
L 793.142817 245.691613 
L 794.278735 245.691613 
L 794.278735 245.480584 
L 796.550571 245.586099 
L 796.550571 245.712716 
L 797.68649 245.712716 
L 797.68649 245.52279 
L 798.822408 245.52279 
L 798.822408 245.649407 
L 804.501999 245.564996 
L 804.501999 245.52279 
L 807.909753 245.564996 
L 807.909753 245.67051 
L 811.317508 245.586099 
L 811.317508 245.480584 
L 812.453426 245.480584 
L 812.453426 245.649407 
L 820.404853 245.691613 
L 820.404853 245.797127 
L 821.540771 245.797127 
L 821.540771 245.649407 
L 832.899953 245.712716 
L 832.899953 245.776024 
L 834.035871 245.776024 
L 834.035871 245.649407 
L 843.123216 245.733819 
L 843.123216 245.776024 
L 846.530971 245.776024 
L 846.530971 245.649407 
L 847.666889 245.649407 
L 847.666889 245.649407 
" clip-path="url(#p5802599738)" style="fill: none; stroke: #1f77b4; stroke-width: 1.5; stroke-linecap: square"/>
   </g>
   <g id="line2d_36">
    <path d="M 506.891425 152.332658 
L 508.028911 152.332658 
L 508.028911 147.120257 
L 509.166397 147.120257 
L 509.166397 137.539568 
L 510.303883 137.539568 
L 510.303883 137.940522 
L 511.441369 137.940522 
L 511.441369 144.967767 
L 512.578855 144.967767 
L 512.578855 152.733612 
L 513.716341 152.733612 
L 513.716341 148.090987 
L 514.853827 148.090987 
L 514.853827 128.739685 
L 515.991313 128.739685 
L 515.991313 104.935684 
L 517.128799 104.935684 
L 517.128799 83.136452 
L 518.266285 83.136452 
L 518.266285 60.788547 
L 519.403771 60.788547 
L 519.403771 35.23301 
L 520.541257 35.23301 
L 520.541257 19.806835 
L 521.678743 19.806835 
L 521.678743 20.650949 
L 522.816229 20.650949 
L 522.816229 19.996761 
L 523.953715 19.996761 
L 523.953715 21.368445 
L 525.091201 21.368445 
L 525.091201 29.387524 
L 526.228687 29.387524 
L 526.228687 41.753787 
L 527.366173 41.753787 
L 527.366173 48.823238 
L 528.50366 48.823238 
L 528.50366 62.37126 
L 529.641146 62.37126 
L 529.641146 68.596597 
L 530.778632 68.596597 
L 530.778632 78.029565 
L 531.916118 78.029565 
L 531.916118 84.951296 
L 533.053604 84.951296 
L 533.053604 91.134428 
L 534.19109 91.134428 
L 534.19109 94.046619 
L 536.466062 93.983311 
L 536.466062 93.835591 
L 537.603548 93.835591 
L 537.603548 93.413534 
L 538.741034 93.413534 
L 538.741034 90.100389 
L 539.87852 90.100389 
L 539.87852 86.892757 
L 541.016006 86.892757 
L 541.016006 80.118746 
L 542.153492 80.118746 
L 542.153492 73.15481 
L 543.290978 73.15481 
L 543.290978 62.687802 
L 544.428464 62.687802 
L 544.428464 53.782405 
L 545.56595 53.782405 
L 545.56595 41.352833 
L 546.703436 41.352833 
L 546.703436 37.659836 
L 547.840922 37.659836 
L 547.840922 30.885825 
L 548.978408 30.885825 
L 548.978408 40.192177 
L 550.115894 40.192177 
L 550.115894 51.672121 
L 551.25338 51.672121 
L 551.25338 57.580915 
L 552.390866 57.580915 
L 552.390866 72.964884 
L 553.528352 72.964884 
L 553.528352 80.182055 
L 554.665838 80.182055 
L 554.665838 87.715768 
L 555.803324 87.715768 
L 555.803324 95.376098 
L 556.94081 95.376098 
L 556.94081 106.581705 
L 558.078296 106.581705 
L 558.078296 110.549039 
L 559.215782 110.549039 
L 559.215782 118.103855 
L 560.353268 118.103855 
L 560.353268 124.814557 
L 561.490754 124.814557 
L 561.490754 131.22982 
L 562.62824 131.22982 
L 562.62824 135.492593 
L 563.765726 135.492593 
L 563.765726 142.540941 
L 564.903212 142.540941 
L 564.903212 148.196502 
L 566.040698 148.196502 
L 566.040698 152.142732 
L 567.178184 152.142732 
L 567.178184 155.265952 
L 568.31567 155.265952 
L 568.31567 159.528725 
L 569.453156 159.528725 
L 569.453156 165.268697 
L 570.590642 165.268697 
L 570.590642 171.240801 
L 572.865614 171.219698 
L 572.865614 175.777911 
L 574.0031 175.777911 
L 574.0031 180.399432 
L 575.140586 180.399432 
L 575.140586 182.024351 
L 576.278072 182.024351 
L 576.278072 184.62 
L 577.415558 184.62 
L 577.415558 188.207482 
L 578.553044 188.207482 
L 578.553044 190.507692 
L 579.69053 190.507692 
L 579.69053 193.757529 
L 580.828016 193.757529 
L 580.828016 196.986263 
L 581.965502 196.986263 
L 581.965502 197.767068 
L 583.102988 197.767068 
L 583.102988 200.573745 
L 584.240474 200.573745 
L 584.240474 202.304178 
L 585.37796 202.304178 
L 585.37796 205.237472 
L 586.515446 205.237472 
L 586.515446 206.946802 
L 587.652932 206.946802 
L 587.652932 208.719441 
L 588.790418 208.719441 
L 588.790418 210.850827 
L 591.06539 210.956342 
L 591.06539 211.969278 
L 592.202876 211.969278 
L 592.202876 213.425374 
L 593.340362 213.425374 
L 593.340362 214.965881 
L 594.477848 214.965881 
L 594.477848 216.738519 
L 595.615334 216.738519 
L 595.615334 218.468952 
L 596.75282 218.468952 
L 596.75282 219.671814 
L 597.890306 219.671814 
L 597.890306 220.621441 
L 599.027792 220.621441 
L 599.027792 221.191218 
L 600.165278 221.191218 
L 600.165278 222.161949 
L 601.302764 222.161949 
L 601.302764 223.36481 
L 602.44025 223.36481 
L 602.44025 224.419952 
L 603.577737 224.419952 
L 603.577737 226.002665 
L 604.715223 226.002665 
L 604.715223 224.525466 
L 605.852709 224.525466 
L 605.852709 226.994498 
L 606.990195 226.994498 
L 606.990195 227.332144 
L 608.127681 227.332144 
L 608.127681 227.733098 
L 609.265167 227.733098 
L 609.265167 229.547942 
L 610.402653 229.547942 
L 610.402653 229.379119 
L 611.540139 229.379119 
L 611.540139 231.299477 
L 612.677625 231.299477 
L 612.677625 230.793009 
L 613.815111 230.793009 
L 613.815111 230.940729 
L 614.952597 230.940729 
L 614.952597 231.848151 
L 616.090083 231.848151 
L 616.090083 232.439031 
L 617.227569 232.439031 
L 617.227569 233.430864 
L 618.365055 233.430864 
L 618.365055 234.042846 
L 620.640027 234.021743 
L 620.640027 234.486006 
L 622.914999 234.486006 
L 622.914999 235.287914 
L 624.052485 235.287914 
L 624.052485 235.646662 
L 625.189971 235.646662 
L 625.189971 236.532981 
L 626.327457 236.532981 
L 626.327457 235.414531 
L 627.464943 235.414531 
L 627.464943 236.912832 
L 628.602429 236.912832 
L 628.602429 237.503712 
L 630.877401 237.440403 
L 630.877401 237.292683 
L 632.014887 237.292683 
L 632.014887 237.904666 
L 634.289859 238.01018 
L 634.289859 237.756946 
L 635.427345 237.756946 
L 635.427345 238.326722 
L 636.564831 238.326722 
L 636.564831 238.706573 
L 638.839803 238.622162 
L 638.839803 239.297453 
L 641.114775 239.402967 
L 641.114775 239.656201 
L 642.252261 239.656201 
L 642.252261 240.247081 
L 643.389747 240.247081 
L 643.389747 240.669137 
L 644.527233 240.669137 
L 644.527233 240.352595 
L 645.664719 240.352595 
L 645.664719 239.930538 
L 646.802205 239.930538 
L 646.802205 240.415903 
L 647.939691 240.415903 
L 647.939691 240.162669 
L 650.214663 240.247081 
L 650.214663 240.584726 
L 651.352149 240.584726 
L 651.352149 241.449942 
L 652.489635 241.449942 
L 652.489635 241.154503 
L 653.627121 241.154503 
L 653.627121 241.871999 
L 654.764607 241.871999 
L 654.764607 241.555457 
L 657.039579 241.471045 
L 657.039579 241.745382 
L 658.177065 241.745382 
L 658.177065 241.344428 
L 659.314551 241.344428 
L 659.314551 241.914205 
L 660.452037 241.914205 
L 660.452037 241.660971 
L 661.589523 241.660971 
L 661.589523 241.956411 
L 662.727009 241.956411 
L 662.727009 242.125233 
L 663.864495 242.125233 
L 663.864495 242.336262 
L 666.139467 242.420673 
L 666.139467 242.758318 
L 668.414439 242.800524 
L 668.414439 242.99045 
L 670.689411 243.095964 
L 670.689411 242.84273 
L 672.964383 242.948244 
L 672.964383 243.306992 
L 674.101869 243.306992 
L 674.101869 243.053758 
L 675.239355 243.053758 
L 675.239355 243.222581 
L 676.376841 243.222581 
L 676.376841 242.821627 
L 677.514327 242.821627 
L 677.514327 243.306992 
L 679.7893 243.391404 
L 679.7893 243.518021 
L 680.926786 243.518021 
L 680.926786 243.391404 
L 682.064272 243.391404 
L 682.064272 243.201478 
L 683.201758 243.201478 
L 683.201758 243.433609 
L 684.339244 243.433609 
L 684.339244 243.855666 
L 686.614216 243.897872 
L 686.614216 243.602432 
L 687.751702 243.602432 
L 687.751702 243.454712 
L 688.889188 243.454712 
L 688.889188 243.855666 
L 691.16416 243.918974 
L 691.16416 244.045591 
L 693.439132 243.96118 
L 693.439132 243.750152 
L 694.576618 243.750152 
L 694.576618 244.1089 
L 695.714104 244.1089 
L 695.714104 244.235517 
L 696.85159 244.235517 
L 696.85159 244.024489 
L 697.989076 244.024489 
L 697.989076 244.383237 
L 699.126562 244.383237 
L 699.126562 244.509854 
L 700.264048 244.509854 
L 700.264048 244.214414 
L 701.401534 244.214414 
L 701.401534 244.40434 
L 703.676506 244.383237 
L 703.676506 244.193311 
L 704.813992 244.193311 
L 704.813992 244.446545 
L 705.951478 244.446545 
L 705.951478 244.763088 
L 708.22645 244.720882 
L 708.22645 244.341031 
L 709.363936 244.341031 
L 709.363936 244.657574 
L 711.638908 244.636471 
L 711.638908 244.446545 
L 712.776394 244.446545 
L 712.776394 244.615368 
L 713.91388 244.615368 
L 713.91388 244.763088 
L 716.188852 244.741985 
L 716.188852 245.058528 
L 717.326338 245.058528 
L 717.326338 244.826396 
L 719.60131 244.763088 
L 719.60131 244.594265 
L 721.876282 244.615368 
L 721.876282 244.805294 
L 724.151254 244.805294 
L 724.151254 244.974116 
L 725.28874 244.974116 
L 725.28874 244.741985 
L 726.426226 244.741985 
L 726.426226 244.889705 
L 728.701198 244.974116 
L 728.701198 245.058528 
L 733.251142 245.037425 
L 733.251142 245.269556 
L 734.388628 245.269556 
L 734.388628 244.784191 
L 735.526114 244.784191 
L 735.526114 245.058528 
L 736.6636 245.058528 
L 736.6636 245.22735 
L 737.801086 245.22735 
L 737.801086 244.826396 
L 740.076058 244.931911 
L 740.076058 245.185145 
L 741.213544 245.185145 
L 741.213544 245.058528 
L 743.488516 245.100733 
L 743.488516 245.248453 
L 744.626002 245.248453 
L 744.626002 245.079631 
L 746.900974 245.058528 
L 746.900974 245.248453 
L 748.03846 245.248453 
L 748.03846 245.37507 
L 750.313432 245.290659 
L 750.313432 245.121836 
L 751.450918 245.121836 
L 751.450918 245.269556 
L 752.588404 245.269556 
L 752.588404 244.868602 
L 753.725891 244.868602 
L 753.725891 245.248453 
L 754.863377 245.248453 
L 754.863377 245.459482 
L 756.000863 245.459482 
L 756.000863 245.290659 
L 762.825779 245.248453 
L 762.825779 245.417276 
L 767.375723 245.438379 
L 767.375723 245.564996 
L 768.513209 245.564996 
L 768.513209 245.332865 
L 770.788181 245.332865 
L 770.788181 245.480584 
L 773.063153 245.417276 
L 773.063153 245.649407 
L 774.200639 245.649407 
L 774.200639 245.269556 
L 775.338125 245.269556 
L 775.338125 245.607202 
L 776.475611 245.607202 
L 776.475611 245.438379 
L 779.888069 245.52279 
L 779.888069 245.586099 
L 795.812873 245.628304 
L 795.812873 245.438379 
L 798.087845 245.52279 
L 798.087845 245.649407 
L 837.899856 245.607202 
L 837.899856 245.797127 
L 848.13723 245.712716 
L 848.13723 245.712716 
" clip-path="url(#p5802599738)" style="fill: none; stroke: #ff7f0e; stroke-width: 1.5; stroke-linecap: square"/>
   </g>
   <g id="patch_9">
    <path d="M 489.829135 257.158895 
L 489.829135 7.2 
" style="fill: none; stroke: #000000; stroke-width: 0.8; stroke-linejoin: miter; stroke-linecap: square"/>
   </g>
   <g id="patch_10">
    <path d="M 865.19952 257.158895 
L 865.19952 7.2 
" style="fill: none; stroke: #000000; stroke-width: 0.8; stroke-linejoin: miter; stroke-linecap: square"/>
   </g>
   <g id="patch_11">
    <path d="M 489.829135 257.158895 
L 865.19952 257.158895 
" style="fill: none; stroke: #000000; stroke-width: 0.8; stroke-linejoin: miter; stroke-linecap: square"/>
   </g>
   <g id="patch_12">
    <path d="M 489.829135 7.2 
L 865.19952 7.2 
" style="fill: none; stroke: #000000; stroke-width: 0.8; stroke-linejoin: miter; stroke-linecap: square"/>
   </g>
   <g id="legend_2">
    <g id="patch_13">
     <path d="M 789.641707 44.55625 
L 858.19952 44.55625 
Q 860.19952 44.55625 860.19952 42.55625 
L 860.19952 14.2 
Q 860.19952 12.2 858.19952 12.2 
L 789.641707 12.2 
Q 787.641707 12.2 787.641707 14.2 
L 787.641707 42.55625 
Q 787.641707 44.55625 789.641707 44.55625 
z
" style="fill: #ffffff; opacity: 0.8; stroke: #cccccc; stroke-linejoin: miter"/>
    </g>
    <g id="line2d_37">
     <path d="M 791.641707 20.298437 
L 791.641707 20.298437 
L 801.641707 20.298437 
L 801.641707 20.298437 
L 811.641707 20.298437 
" style="fill: none; stroke: #1f77b4; stroke-width: 1.5; stroke-linecap: square"/>
    </g>
    <g id="text_37">
     <!-- pulse:0 -->
     <g transform="translate(819.641707 23.798437) scale(0.1 -0.1)">
      <use xlink:href="#DejaVuSans-70"/>
      <use xlink:href="#DejaVuSans-75" transform="translate(63.476562 0)"/>
      <use xlink:href="#DejaVuSans-6c" transform="translate(126.855469 0)"/>
      <use xlink:href="#DejaVuSans-73" transform="translate(154.638672 0)"/>
      <use xlink:href="#DejaVuSans-65" transform="translate(206.738281 0)"/>
      <use xlink:href="#DejaVuSans-3a" transform="translate(268.261719 0)"/>
      <use xlink:href="#DejaVuSans-30" transform="translate(301.953125 0)"/>
     </g>
    </g>
    <g id="line2d_38">
     <path d="M 791.641707 34.976562 
L 791.641707 34.976562 
L 801.641707 34.976562 
L 801.641707 34.976562 
L 811.641707 34.976562 
" style="fill: none; stroke: #ff7f0e; stroke-width: 1.5; stroke-linecap: square"/>
    </g>
    <g id="text_38">
     <!-- pulse:1 -->
     <g transform="translate(819.641707 38.476562) scale(0.1 -0.1)">
      <use xlink:href="#DejaVuSans-70"/>
      <use xlink:href="#DejaVuSans-75" transform="translate(63.476562 0)"/>
      <use xlink:href="#DejaVuSans-6c" transform="translate(126.855469 0)"/>
      <use xlink:href="#DejaVuSans-73" transform="translate(154.638672 0)"/>
      <use xlink:href="#DejaVuSans-65" transform="translate(206.738281 0)"/>
      <use xlink:href="#DejaVuSans-3a" transform="translate(268.261719 0)"/>
      <use xlink:href="#DejaVuSans-31" transform="translate(301.953125 0)"/>
     </g>
    </g>
   </g>
  </g>
 </g>
 <defs>
  <clipPath id="p9eaff02bba">
   <rect x="53.328125" y="7.2" width="375.370385" height="249.958895"/>
  </clipPath>
  <clipPath id="p5802599738">
   <rect x="489.829135" y="7.2" width="375.370385" height="249.958895"/>
  </clipPath>
 </defs>
</svg>
