<?xml version="1.0" encoding="utf-8" standalone="no"?>
<!DOCTYPE svg PUBLIC "-//W3C//DTD SVG 1.1//EN"
  "http://www.w3.org/Graphics/SVG/1.1/DTD/svg11.dtd">
<svg xmlns:xlink="http://www.w3.org/1999/xlink" width="388.965625pt" height="268.200625pt" viewBox="0 0 388.965625 268.200625" xmlns="http://www.w3.org/2000/svg" version="1.1">
 <metadata>
  <rdf:RDF xmlns:dc="http://purl.org/dc/elements/1.1/" xmlns:cc="http://creativecommons.org/ns#" xmlns:rdf="http://www.w3.org/1999/02/22-rdf-syntax-ns#">
   <cc:Work>
    <dc:type rdf:resource="http://purl.org/dc/dcmitype/StillImage"/>
    <dc:date>2025-04-29T09:32:02.541661</dc:date>
    <dc:format>image/svg+xml</dc:format>
    <dc:creator>
     <cc:Agent>
      <dc:title>Matplotlib v3.10.1, https://matplotlib.org/</dc:title>
     </cc:Agent>
    </dc:creator>
   </cc:Work>
  </rdf:RDF>
 </metadata>
 <defs>
  <style type="text/css">*{stroke-linejoin: round; stroke-linecap: butt}</style>
 </defs>
 <g id="figure_1">
  <g id="patch_1">
   <path d="M 0 268.200625 
L 388.965625 268.200625 
L 388.965625 0 
L 0 0 
z
" style="fill: #ffffff"/>
  </g>
  <g id="axes_1">
   <g id="patch_2">
    <path d="M 46.965625 228.96 
L 381.765625 228.96 
L 381.765625 7.2 
L 46.965625 7.2 
z
" style="fill: #ffffff"/>
   </g>
   <g id="matplotlib.axis_1">
    <g id="xtick_1">
     <g id="line2d_1">
      <defs>
       <path id="m0a75d32ecb" d="M 0 0 
L 0 3.5 
" style="stroke: #000000; stroke-width: 0.8"/>
      </defs>
      <g>
       <use xlink:href="#m0a75d32ecb" x="98.702929" y="228.96" style="stroke: #000000; stroke-width: 0.8"/>
      </g>
     </g>
     <g id="text_1">
      <!-- 2 -->
      <g transform="translate(95.521679 243.558437) scale(0.1 -0.1)">
       <defs>
        <path id="DejaVuSans-32" d="M 1228 531 
L 3431 531 
L 3431 0 
L 469 0 
L 469 531 
Q 828 903 1448 1529 
Q 2069 2156 2228 2338 
Q 2531 2678 2651 2914 
Q 2772 3150 2772 3378 
Q 2772 3750 2511 3984 
Q 2250 4219 1831 4219 
Q 1534 4219 1204 4116 
Q 875 4013 500 3803 
L 500 4441 
Q 881 4594 1212 4672 
Q 1544 4750 1819 4750 
Q 2544 4750 2975 4387 
Q 3406 4025 3406 3419 
Q 3406 3131 3298 2873 
Q 3191 2616 2906 2266 
Q 2828 2175 2409 1742 
Q 1991 1309 1228 531 
z
" transform="scale(0.015625)"/>
       </defs>
       <use xlink:href="#DejaVuSans-32"/>
      </g>
     </g>
    </g>
    <g id="xtick_2">
     <g id="line2d_2">
      <g>
       <use xlink:href="#m0a75d32ecb" x="171.069006" y="228.96" style="stroke: #000000; stroke-width: 0.8"/>
      </g>
     </g>
     <g id="text_2">
      <!-- 4 -->
      <g transform="translate(167.887756 243.558437) scale(0.1 -0.1)">
       <defs>
        <path id="DejaVuSans-34" d="M 2419 4116 
L 825 1625 
L 2419 1625 
L 2419 4116 
z
M 2253 4666 
L 3047 4666 
L 3047 1625 
L 3713 1625 
L 3713 1100 
L 3047 1100 
L 3047 0 
L 2419 0 
L 2419 1100 
L 313 1100 
L 313 1709 
L 2253 4666 
z
" transform="scale(0.015625)"/>
       </defs>
       <use xlink:href="#DejaVuSans-34"/>
      </g>
     </g>
    </g>
    <g id="xtick_3">
     <g id="line2d_3">
      <g>
       <use xlink:href="#m0a75d32ecb" x="243.435084" y="228.96" style="stroke: #000000; stroke-width: 0.8"/>
      </g>
     </g>
     <g id="text_3">
      <!-- 6 -->
      <g transform="translate(240.253834 243.558437) scale(0.1 -0.1)">
       <defs>
        <path id="DejaVuSans-36" d="M 2113 2584 
Q 1688 2584 1439 2293 
Q 1191 2003 1191 1497 
Q 1191 994 1439 701 
Q 1688 409 2113 409 
Q 2538 409 2786 701 
Q 3034 994 3034 1497 
Q 3034 2003 2786 2293 
Q 2538 2584 2113 2584 
z
M 3366 4563 
L 3366 3988 
Q 3128 4100 2886 4159 
Q 2644 4219 2406 4219 
Q 1781 4219 1451 3797 
Q 1122 3375 1075 2522 
Q 1259 2794 1537 2939 
Q 1816 3084 2150 3084 
Q 2853 3084 3261 2657 
Q 3669 2231 3669 1497 
Q 3669 778 3244 343 
Q 2819 -91 2113 -91 
Q 1303 -91 875 529 
Q 447 1150 447 2328 
Q 447 3434 972 4092 
Q 1497 4750 2381 4750 
Q 2619 4750 2861 4703 
Q 3103 4656 3366 4563 
z
" transform="scale(0.015625)"/>
       </defs>
       <use xlink:href="#DejaVuSans-36"/>
      </g>
     </g>
    </g>
    <g id="xtick_4">
     <g id="line2d_4">
      <g>
       <use xlink:href="#m0a75d32ecb" x="315.801161" y="228.96" style="stroke: #000000; stroke-width: 0.8"/>
      </g>
     </g>
     <g id="text_4">
      <!-- 8 -->
      <g transform="translate(312.619911 243.558437) scale(0.1 -0.1)">
       <defs>
        <path id="DejaVuSans-38" d="M 2034 2216 
Q 1584 2216 1326 1975 
Q 1069 1734 1069 1313 
Q 1069 891 1326 650 
Q 1584 409 2034 409 
Q 2484 409 2743 651 
Q 3003 894 3003 1313 
Q 3003 1734 2745 1975 
Q 2488 2216 2034 2216 
z
M 1403 2484 
Q 997 2584 770 2862 
Q 544 3141 544 3541 
Q 544 4100 942 4425 
Q 1341 4750 2034 4750 
Q 2731 4750 3128 4425 
Q 3525 4100 3525 3541 
Q 3525 3141 3298 2862 
Q 3072 2584 2669 2484 
Q 3125 2378 3379 2068 
Q 3634 1759 3634 1313 
Q 3634 634 3220 271 
Q 2806 -91 2034 -91 
Q 1263 -91 848 271 
Q 434 634 434 1313 
Q 434 1759 690 2068 
Q 947 2378 1403 2484 
z
M 1172 3481 
Q 1172 3119 1398 2916 
Q 1625 2713 2034 2713 
Q 2441 2713 2670 2916 
Q 2900 3119 2900 3481 
Q 2900 3844 2670 4047 
Q 2441 4250 2034 4250 
Q 1625 4250 1398 4047 
Q 1172 3844 1172 3481 
z
" transform="scale(0.015625)"/>
       </defs>
       <use xlink:href="#DejaVuSans-38"/>
      </g>
     </g>
    </g>
    <g id="text_5">
     <!-- wavelength [Å] -->
     <g transform="translate(176.328125 258.920937) scale(0.1 -0.1)">
      <defs>
       <path id="DejaVuSans-77" d="M 269 3500 
L 844 3500 
L 1563 769 
L 2278 3500 
L 2956 3500 
L 3675 769 
L 4391 3500 
L 4966 3500 
L 4050 0 
L 3372 0 
L 2619 2869 
L 1863 0 
L 1184 0 
L 269 3500 
z
" transform="scale(0.015625)"/>
       <path id="DejaVuSans-61" d="M 2194 1759 
Q 1497 1759 1228 1600 
Q 959 1441 959 1056 
Q 959 750 1161 570 
Q 1363 391 1709 391 
Q 2188 391 2477 730 
Q 2766 1069 2766 1631 
L 2766 1759 
L 2194 1759 
z
M 3341 1997 
L 3341 0 
L 2766 0 
L 2766 531 
Q 2569 213 2275 61 
Q 1981 -91 1556 -91 
Q 1019 -91 701 211 
Q 384 513 384 1019 
Q 384 1609 779 1909 
Q 1175 2209 1959 2209 
L 2766 2209 
L 2766 2266 
Q 2766 2663 2505 2880 
Q 2244 3097 1772 3097 
Q 1472 3097 1187 3025 
Q 903 2953 641 2809 
L 641 3341 
Q 956 3463 1253 3523 
Q 1550 3584 1831 3584 
Q 2591 3584 2966 3190 
Q 3341 2797 3341 1997 
z
" transform="scale(0.015625)"/>
       <path id="DejaVuSans-76" d="M 191 3500 
L 800 3500 
L 1894 563 
L 2988 3500 
L 3597 3500 
L 2284 0 
L 1503 0 
L 191 3500 
z
" transform="scale(0.015625)"/>
       <path id="DejaVuSans-65" d="M 3597 1894 
L 3597 1613 
L 953 1613 
Q 991 1019 1311 708 
Q 1631 397 2203 397 
Q 2534 397 2845 478 
Q 3156 559 3463 722 
L 3463 178 
Q 3153 47 2828 -22 
Q 2503 -91 2169 -91 
Q 1331 -91 842 396 
Q 353 884 353 1716 
Q 353 2575 817 3079 
Q 1281 3584 2069 3584 
Q 2775 3584 3186 3129 
Q 3597 2675 3597 1894 
z
M 3022 2063 
Q 3016 2534 2758 2815 
Q 2500 3097 2075 3097 
Q 1594 3097 1305 2825 
Q 1016 2553 972 2059 
L 3022 2063 
z
" transform="scale(0.015625)"/>
       <path id="DejaVuSans-6c" d="M 603 4863 
L 1178 4863 
L 1178 0 
L 603 0 
L 603 4863 
z
" transform="scale(0.015625)"/>
       <path id="DejaVuSans-6e" d="M 3513 2113 
L 3513 0 
L 2938 0 
L 2938 2094 
Q 2938 2591 2744 2837 
Q 2550 3084 2163 3084 
Q 1697 3084 1428 2787 
Q 1159 2491 1159 1978 
L 1159 0 
L 581 0 
L 581 3500 
L 1159 3500 
L 1159 2956 
Q 1366 3272 1645 3428 
Q 1925 3584 2291 3584 
Q 2894 3584 3203 3211 
Q 3513 2838 3513 2113 
z
" transform="scale(0.015625)"/>
       <path id="DejaVuSans-67" d="M 2906 1791 
Q 2906 2416 2648 2759 
Q 2391 3103 1925 3103 
Q 1463 3103 1205 2759 
Q 947 2416 947 1791 
Q 947 1169 1205 825 
Q 1463 481 1925 481 
Q 2391 481 2648 825 
Q 2906 1169 2906 1791 
z
M 3481 434 
Q 3481 -459 3084 -895 
Q 2688 -1331 1869 -1331 
Q 1566 -1331 1297 -1286 
Q 1028 -1241 775 -1147 
L 775 -588 
Q 1028 -725 1275 -790 
Q 1522 -856 1778 -856 
Q 2344 -856 2625 -561 
Q 2906 -266 2906 331 
L 2906 616 
Q 2728 306 2450 153 
Q 2172 0 1784 0 
Q 1141 0 747 490 
Q 353 981 353 1791 
Q 353 2603 747 3093 
Q 1141 3584 1784 3584 
Q 2172 3584 2450 3431 
Q 2728 3278 2906 2969 
L 2906 3500 
L 3481 3500 
L 3481 434 
z
" transform="scale(0.015625)"/>
       <path id="DejaVuSans-74" d="M 1172 4494 
L 1172 3500 
L 2356 3500 
L 2356 3053 
L 1172 3053 
L 1172 1153 
Q 1172 725 1289 603 
Q 1406 481 1766 481 
L 2356 481 
L 2356 0 
L 1766 0 
Q 1100 0 847 248 
Q 594 497 594 1153 
L 594 3053 
L 172 3053 
L 172 3500 
L 594 3500 
L 594 4494 
L 1172 4494 
z
" transform="scale(0.015625)"/>
       <path id="DejaVuSans-68" d="M 3513 2113 
L 3513 0 
L 2938 0 
L 2938 2094 
Q 2938 2591 2744 2837 
Q 2550 3084 2163 3084 
Q 1697 3084 1428 2787 
Q 1159 2491 1159 1978 
L 1159 0 
L 581 0 
L 581 4863 
L 1159 4863 
L 1159 2956 
Q 1366 3272 1645 3428 
Q 1925 3584 2291 3584 
Q 2894 3584 3203 3211 
Q 3513 2838 3513 2113 
z
" transform="scale(0.015625)"/>
       <path id="DejaVuSans-20" transform="scale(0.015625)"/>
       <path id="DejaVuSans-5b" d="M 550 4863 
L 1875 4863 
L 1875 4416 
L 1125 4416 
L 1125 -397 
L 1875 -397 
L 1875 -844 
L 550 -844 
L 550 4863 
z
" transform="scale(0.015625)"/>
       <path id="DejaVuSans-c5" d="M 2663 5081 
Q 2663 5278 2523 5417 
Q 2384 5556 2188 5556 
Q 1988 5556 1852 5420 
Q 1716 5284 1716 5081 
Q 1716 4884 1853 4746 
Q 1991 4609 2188 4609 
Q 2384 4609 2523 4746 
Q 2663 4884 2663 5081 
z
M 2188 4044 
L 1338 1722 
L 3041 1722 
L 2188 4044 
z
M 1716 4366 
Q 1525 4494 1428 4673 
Q 1331 4853 1331 5081 
Q 1331 5441 1579 5691 
Q 1828 5941 2188 5941 
Q 2544 5941 2795 5689 
Q 3047 5438 3047 5081 
Q 3047 4863 2948 4678 
Q 2850 4494 2663 4366 
L 4325 0 
L 3669 0 
L 3244 1197 
L 1141 1197 
L 716 0 
L 50 0 
L 1716 4366 
z
" transform="scale(0.015625)"/>
       <path id="DejaVuSans-5d" d="M 1947 4863 
L 1947 -844 
L 622 -844 
L 622 -397 
L 1369 -397 
L 1369 4416 
L 622 4416 
L 622 4863 
L 1947 4863 
z
" transform="scale(0.015625)"/>
      </defs>
      <use xlink:href="#DejaVuSans-77"/>
      <use xlink:href="#DejaVuSans-61" transform="translate(81.787109 0)"/>
      <use xlink:href="#DejaVuSans-76" transform="translate(143.066406 0)"/>
      <use xlink:href="#DejaVuSans-65" transform="translate(202.246094 0)"/>
      <use xlink:href="#DejaVuSans-6c" transform="translate(263.769531 0)"/>
      <use xlink:href="#DejaVuSans-65" transform="translate(291.552734 0)"/>
      <use xlink:href="#DejaVuSans-6e" transform="translate(353.076172 0)"/>
      <use xlink:href="#DejaVuSans-67" transform="translate(416.455078 0)"/>
      <use xlink:href="#DejaVuSans-74" transform="translate(479.931641 0)"/>
      <use xlink:href="#DejaVuSans-68" transform="translate(519.140625 0)"/>
      <use xlink:href="#DejaVuSans-20" transform="translate(582.519531 0)"/>
      <use xlink:href="#DejaVuSans-5b" transform="translate(614.306641 0)"/>
      <use xlink:href="#DejaVuSans-c5" transform="translate(653.320312 0)"/>
      <use xlink:href="#DejaVuSans-5d" transform="translate(721.728516 0)"/>
     </g>
    </g>
   </g>
   <g id="matplotlib.axis_2">
    <g id="ytick_1">
     <g id="line2d_5">
      <defs>
       <path id="m4a00a34082" d="M 0 0 
L -3.5 0 
" style="stroke: #000000; stroke-width: 0.8"/>
      </defs>
      <g>
       <use xlink:href="#m4a00a34082" x="46.965625" y="219.034416" style="stroke: #000000; stroke-width: 0.8"/>
      </g>
     </g>
     <g id="text_6">
      <!-- 0 -->
      <g transform="translate(33.603125 222.833635) scale(0.1 -0.1)">
       <defs>
        <path id="DejaVuSans-30" d="M 2034 4250 
Q 1547 4250 1301 3770 
Q 1056 3291 1056 2328 
Q 1056 1369 1301 889 
Q 1547 409 2034 409 
Q 2525 409 2770 889 
Q 3016 1369 3016 2328 
Q 3016 3291 2770 3770 
Q 2525 4250 2034 4250 
z
M 2034 4750 
Q 2819 4750 3233 4129 
Q 3647 3509 3647 2328 
Q 3647 1150 3233 529 
Q 2819 -91 2034 -91 
Q 1250 -91 836 529 
Q 422 1150 422 2328 
Q 422 3509 836 4129 
Q 1250 4750 2034 4750 
z
" transform="scale(0.015625)"/>
       </defs>
       <use xlink:href="#DejaVuSans-30"/>
      </g>
     </g>
    </g>
    <g id="ytick_2">
     <g id="line2d_6">
      <g>
       <use xlink:href="#m4a00a34082" x="46.965625" y="189.493987" style="stroke: #000000; stroke-width: 0.8"/>
      </g>
     </g>
     <g id="text_7">
      <!-- 100 -->
      <g transform="translate(20.878125 193.293206) scale(0.1 -0.1)">
       <defs>
        <path id="DejaVuSans-31" d="M 794 531 
L 1825 531 
L 1825 4091 
L 703 3866 
L 703 4441 
L 1819 4666 
L 2450 4666 
L 2450 531 
L 3481 531 
L 3481 0 
L 794 0 
L 794 531 
z
" transform="scale(0.015625)"/>
       </defs>
       <use xlink:href="#DejaVuSans-31"/>
       <use xlink:href="#DejaVuSans-30" transform="translate(63.623047 0)"/>
       <use xlink:href="#DejaVuSans-30" transform="translate(127.246094 0)"/>
      </g>
     </g>
    </g>
    <g id="ytick_3">
     <g id="line2d_7">
      <g>
       <use xlink:href="#m4a00a34082" x="46.965625" y="159.953558" style="stroke: #000000; stroke-width: 0.8"/>
      </g>
     </g>
     <g id="text_8">
      <!-- 200 -->
      <g transform="translate(20.878125 163.752777) scale(0.1 -0.1)">
       <use xlink:href="#DejaVuSans-32"/>
       <use xlink:href="#DejaVuSans-30" transform="translate(63.623047 0)"/>
       <use xlink:href="#DejaVuSans-30" transform="translate(127.246094 0)"/>
      </g>
     </g>
    </g>
    <g id="ytick_4">
     <g id="line2d_8">
      <g>
       <use xlink:href="#m4a00a34082" x="46.965625" y="130.413129" style="stroke: #000000; stroke-width: 0.8"/>
      </g>
     </g>
     <g id="text_9">
      <!-- 300 -->
      <g transform="translate(20.878125 134.212348) scale(0.1 -0.1)">
       <defs>
        <path id="DejaVuSans-33" d="M 2597 2516 
Q 3050 2419 3304 2112 
Q 3559 1806 3559 1356 
Q 3559 666 3084 287 
Q 2609 -91 1734 -91 
Q 1441 -91 1130 -33 
Q 819 25 488 141 
L 488 750 
Q 750 597 1062 519 
Q 1375 441 1716 441 
Q 2309 441 2620 675 
Q 2931 909 2931 1356 
Q 2931 1769 2642 2001 
Q 2353 2234 1838 2234 
L 1294 2234 
L 1294 2753 
L 1863 2753 
Q 2328 2753 2575 2939 
Q 2822 3125 2822 3475 
Q 2822 3834 2567 4026 
Q 2313 4219 1838 4219 
Q 1578 4219 1281 4162 
Q 984 4106 628 3988 
L 628 4550 
Q 988 4650 1302 4700 
Q 1616 4750 1894 4750 
Q 2613 4750 3031 4423 
Q 3450 4097 3450 3541 
Q 3450 3153 3228 2886 
Q 3006 2619 2597 2516 
z
" transform="scale(0.015625)"/>
       </defs>
       <use xlink:href="#DejaVuSans-33"/>
       <use xlink:href="#DejaVuSans-30" transform="translate(63.623047 0)"/>
       <use xlink:href="#DejaVuSans-30" transform="translate(127.246094 0)"/>
      </g>
     </g>
    </g>
    <g id="ytick_5">
     <g id="line2d_9">
      <g>
       <use xlink:href="#m4a00a34082" x="46.965625" y="100.8727" style="stroke: #000000; stroke-width: 0.8"/>
      </g>
     </g>
     <g id="text_10">
      <!-- 400 -->
      <g transform="translate(20.878125 104.671919) scale(0.1 -0.1)">
       <use xlink:href="#DejaVuSans-34"/>
       <use xlink:href="#DejaVuSans-30" transform="translate(63.623047 0)"/>
       <use xlink:href="#DejaVuSans-30" transform="translate(127.246094 0)"/>
      </g>
     </g>
    </g>
    <g id="ytick_6">
     <g id="line2d_10">
      <g>
       <use xlink:href="#m4a00a34082" x="46.965625" y="71.332271" style="stroke: #000000; stroke-width: 0.8"/>
      </g>
     </g>
     <g id="text_11">
      <!-- 500 -->
      <g transform="translate(20.878125 75.13149) scale(0.1 -0.1)">
       <defs>
        <path id="DejaVuSans-35" d="M 691 4666 
L 3169 4666 
L 3169 4134 
L 1269 4134 
L 1269 2991 
Q 1406 3038 1543 3061 
Q 1681 3084 1819 3084 
Q 2600 3084 3056 2656 
Q 3513 2228 3513 1497 
Q 3513 744 3044 326 
Q 2575 -91 1722 -91 
Q 1428 -91 1123 -41 
Q 819 9 494 109 
L 494 744 
Q 775 591 1075 516 
Q 1375 441 1709 441 
Q 2250 441 2565 725 
Q 2881 1009 2881 1497 
Q 2881 1984 2565 2268 
Q 2250 2553 1709 2553 
Q 1456 2553 1204 2497 
Q 953 2441 691 2322 
L 691 4666 
z
" transform="scale(0.015625)"/>
       </defs>
       <use xlink:href="#DejaVuSans-35"/>
       <use xlink:href="#DejaVuSans-30" transform="translate(63.623047 0)"/>
       <use xlink:href="#DejaVuSans-30" transform="translate(127.246094 0)"/>
      </g>
     </g>
    </g>
    <g id="ytick_7">
     <g id="line2d_11">
      <g>
       <use xlink:href="#m4a00a34082" x="46.965625" y="41.791842" style="stroke: #000000; stroke-width: 0.8"/>
      </g>
     </g>
     <g id="text_12">
      <!-- 600 -->
      <g transform="translate(20.878125 45.591061) scale(0.1 -0.1)">
       <use xlink:href="#DejaVuSans-36"/>
       <use xlink:href="#DejaVuSans-30" transform="translate(63.623047 0)"/>
       <use xlink:href="#DejaVuSans-30" transform="translate(127.246094 0)"/>
      </g>
     </g>
    </g>
    <g id="ytick_8">
     <g id="line2d_12">
      <g>
       <use xlink:href="#m4a00a34082" x="46.965625" y="12.251413" style="stroke: #000000; stroke-width: 0.8"/>
      </g>
     </g>
     <g id="text_13">
      <!-- 700 -->
      <g transform="translate(20.878125 16.050632) scale(0.1 -0.1)">
       <defs>
        <path id="DejaVuSans-37" d="M 525 4666 
L 3525 4666 
L 3525 4397 
L 1831 0 
L 1172 0 
L 2766 4134 
L 525 4134 
L 525 4666 
z
" transform="scale(0.015625)"/>
       </defs>
       <use xlink:href="#DejaVuSans-37"/>
       <use xlink:href="#DejaVuSans-30" transform="translate(63.623047 0)"/>
       <use xlink:href="#DejaVuSans-30" transform="translate(127.246094 0)"/>
      </g>
     </g>
    </g>
    <g id="text_14">
     <!-- [counts] -->
     <g transform="translate(14.798438 138.6925) rotate(-90) scale(0.1 -0.1)">
      <defs>
       <path id="DejaVuSans-63" d="M 3122 3366 
L 3122 2828 
Q 2878 2963 2633 3030 
Q 2388 3097 2138 3097 
Q 1578 3097 1268 2742 
Q 959 2388 959 1747 
Q 959 1106 1268 751 
Q 1578 397 2138 397 
Q 2388 397 2633 464 
Q 2878 531 3122 666 
L 3122 134 
Q 2881 22 2623 -34 
Q 2366 -91 2075 -91 
Q 1284 -91 818 406 
Q 353 903 353 1747 
Q 353 2603 823 3093 
Q 1294 3584 2113 3584 
Q 2378 3584 2631 3529 
Q 2884 3475 3122 3366 
z
" transform="scale(0.015625)"/>
       <path id="DejaVuSans-6f" d="M 1959 3097 
Q 1497 3097 1228 2736 
Q 959 2375 959 1747 
Q 959 1119 1226 758 
Q 1494 397 1959 397 
Q 2419 397 2687 759 
Q 2956 1122 2956 1747 
Q 2956 2369 2687 2733 
Q 2419 3097 1959 3097 
z
M 1959 3584 
Q 2709 3584 3137 3096 
Q 3566 2609 3566 1747 
Q 3566 888 3137 398 
Q 2709 -91 1959 -91 
Q 1206 -91 779 398 
Q 353 888 353 1747 
Q 353 2609 779 3096 
Q 1206 3584 1959 3584 
z
" transform="scale(0.015625)"/>
       <path id="DejaVuSans-75" d="M 544 1381 
L 544 3500 
L 1119 3500 
L 1119 1403 
Q 1119 906 1312 657 
Q 1506 409 1894 409 
Q 2359 409 2629 706 
Q 2900 1003 2900 1516 
L 2900 3500 
L 3475 3500 
L 3475 0 
L 2900 0 
L 2900 538 
Q 2691 219 2414 64 
Q 2138 -91 1772 -91 
Q 1169 -91 856 284 
Q 544 659 544 1381 
z
M 1991 3584 
L 1991 3584 
z
" transform="scale(0.015625)"/>
       <path id="DejaVuSans-73" d="M 2834 3397 
L 2834 2853 
Q 2591 2978 2328 3040 
Q 2066 3103 1784 3103 
Q 1356 3103 1142 2972 
Q 928 2841 928 2578 
Q 928 2378 1081 2264 
Q 1234 2150 1697 2047 
L 1894 2003 
Q 2506 1872 2764 1633 
Q 3022 1394 3022 966 
Q 3022 478 2636 193 
Q 2250 -91 1575 -91 
Q 1294 -91 989 -36 
Q 684 19 347 128 
L 347 722 
Q 666 556 975 473 
Q 1284 391 1588 391 
Q 1994 391 2212 530 
Q 2431 669 2431 922 
Q 2431 1156 2273 1281 
Q 2116 1406 1581 1522 
L 1381 1569 
Q 847 1681 609 1914 
Q 372 2147 372 2553 
Q 372 3047 722 3315 
Q 1072 3584 1716 3584 
Q 2034 3584 2315 3537 
Q 2597 3491 2834 3397 
z
" transform="scale(0.015625)"/>
      </defs>
      <use xlink:href="#DejaVuSans-5b"/>
      <use xlink:href="#DejaVuSans-63" transform="translate(39.013672 0)"/>
      <use xlink:href="#DejaVuSans-6f" transform="translate(93.994141 0)"/>
      <use xlink:href="#DejaVuSans-75" transform="translate(155.175781 0)"/>
      <use xlink:href="#DejaVuSans-6e" transform="translate(218.554688 0)"/>
      <use xlink:href="#DejaVuSans-74" transform="translate(281.933594 0)"/>
      <use xlink:href="#DejaVuSans-73" transform="translate(321.142578 0)"/>
      <use xlink:href="#DejaVuSans-5d" transform="translate(373.242188 0)"/>
     </g>
    </g>
   </g>
   <g id="line2d_13">
    <path d="M 62.664792 152.273046 
L 63.675399 152.273046 
L 63.675399 149.614408 
L 64.686006 149.614408 
L 64.686006 148.137386 
L 65.696613 148.137386 
L 65.696613 143.410918 
L 66.70722 143.410918 
L 66.70722 144.001726 
L 67.717827 144.001726 
L 67.717827 140.456875 
L 68.728434 140.456875 
L 68.728434 131.594746 
L 69.739041 131.594746 
L 69.739041 128.936108 
L 70.749648 128.936108 
L 70.749648 137.798236 
L 71.760255 137.798236 
L 71.760255 117.41534 
L 72.770862 117.41534 
L 72.770862 137.798236 
L 73.781469 137.798236 
L 73.781469 139.275258 
L 74.792076 139.275258 
L 74.792076 143.115514 
L 75.802683 143.115514 
L 75.802683 130.708533 
L 76.81329 130.708533 
L 76.81329 138.979853 
L 77.823897 138.979853 
L 77.823897 119.778575 
L 78.834504 119.778575 
L 78.834504 125.095852 
L 79.845112 125.095852 
L 79.845112 123.61883 
L 80.855719 123.61883 
L 80.855719 135.139598 
L 81.866326 135.139598 
L 81.866326 127.75449 
L 82.876933 127.75449 
L 82.876933 134.844193 
L 83.88754 134.844193 
L 83.88754 133.071768 
L 84.898147 133.071768 
L 84.898147 143.410918 
L 85.908754 143.410918 
L 85.908754 131.299342 
L 86.919361 131.299342 
L 86.919361 127.163682 
L 87.929968 127.163682 
L 87.929968 128.049895 
L 88.940575 128.049895 
L 88.940575 123.61883 
L 89.951182 123.61883 
L 89.951182 128.936108 
L 90.961789 128.936108 
L 90.961789 130.708533 
L 91.972396 130.708533 
L 91.972396 143.410918 
L 92.983003 143.410918 
L 92.983003 134.253385 
L 93.99361 134.253385 
L 93.99361 130.708533 
L 95.004217 130.708533 
L 95.004217 133.662576 
L 96.014824 133.662576 
L 96.014824 125.982065 
L 97.025431 125.982065 
L 97.025431 122.141809 
L 98.036038 122.141809 
L 98.036038 123.61883 
L 99.046645 123.61883 
L 99.046645 128.640703 
L 100.057252 128.640703 
L 100.057252 112.393467 
L 101.067859 112.393467 
L 101.067859 118.596958 
L 102.078466 118.596958 
L 102.078466 112.688872 
L 103.089073 112.688872 
L 103.089073 118.892362 
L 104.09968 118.892362 
L 104.09968 122.437213 
L 105.110288 122.437213 
L 105.110288 97.623253 
L 106.120895 97.623253 
L 106.120895 125.095852 
L 107.131502 125.095852 
L 107.131502 115.642915 
L 108.142109 115.642915 
L 108.142109 107.962403 
L 109.152716 107.962403 
L 109.152716 105.599169 
L 110.163323 105.599169 
L 110.163323 101.168104 
L 111.17393 101.168104 
L 111.17393 99.691083 
L 112.184537 99.691083 
L 112.184537 107.07619 
L 113.195144 107.07619 
L 113.195144 114.461297 
L 114.205751 114.461297 
L 114.205751 94.66921 
L 115.216358 94.66921 
L 115.216358 119.778575 
L 116.226965 119.778575 
L 116.226965 115.642915 
L 117.237572 115.642915 
L 117.237572 73.400101 
L 118.248179 73.400101 
L 118.248179 24.362989 
L 119.258786 24.362989 
L 119.258786 36.179161 
L 120.269393 36.179161 
L 120.269393 42.678055 
L 121.28 42.678055 
L 121.28 53.903418 
L 122.290607 53.903418 
L 122.290607 20.522733 
L 123.301214 20.522733 
L 123.301214 43.564268 
L 124.311821 43.564268 
L 124.311821 60.697717 
L 125.322428 60.697717 
L 125.322428 55.085035 
L 127.343642 55.085035 
L 127.343642 56.266652 
L 128.354249 56.266652 
L 128.354249 50.949375 
L 129.364857 50.949375 
L 129.364857 64.537973 
L 130.375464 64.537973 
L 130.375464 67.492015 
L 131.386071 67.492015 
L 131.386071 69.264441 
L 132.396678 69.264441 
L 132.396678 65.128781 
L 133.407285 65.128781 
L 133.407285 71.332271 
L 134.417892 71.332271 
L 134.417892 81.671421 
L 135.428499 81.671421 
L 135.428499 73.695506 
L 136.439106 73.695506 
L 136.439106 60.402313 
L 137.449713 60.402313 
L 137.449713 78.421974 
L 138.46032 78.421974 
L 138.46032 85.511677 
L 139.470927 85.511677 
L 139.470927 61.288525 
L 140.481534 61.288525 
L 140.481534 100.577296 
L 141.492141 100.577296 
L 141.492141 89.647337 
L 142.502748 89.647337 
L 142.502748 92.010571 
L 143.513355 92.010571 
L 143.513355 99.395679 
L 144.523962 99.395679 
L 144.523962 91.124359 
L 145.534569 91.124359 
L 145.534569 86.988699 
L 146.545176 86.988699 
L 146.545176 95.850827 
L 147.555783 95.850827 
L 147.555783 88.761124 
L 148.56639 88.761124 
L 148.56639 94.964614 
L 149.576997 94.964614 
L 149.576997 114.165893 
L 150.587604 114.165893 
L 150.587604 106.189977 
L 151.598211 106.189977 
L 151.598211 106.485382 
L 152.608818 106.485382 
L 152.608818 102.94053 
L 153.619425 102.94053 
L 153.619425 109.734829 
L 154.630033 109.734829 
L 154.630033 108.257807 
L 155.64064 108.257807 
L 155.64064 102.054317 
L 156.651247 102.054317 
L 156.651247 113.870489 
L 157.661854 113.870489 
L 157.661854 116.529127 
L 158.672461 116.529127 
L 158.672461 123.914235 
L 159.683068 123.914235 
L 159.683068 120.960192 
L 160.693675 120.960192 
L 160.693675 120.369383 
L 161.704282 120.369383 
L 161.704282 121.551 
L 162.714889 121.551 
L 162.714889 125.68666 
L 163.725496 125.68666 
L 163.725496 128.345299 
L 164.736103 128.345299 
L 164.736103 135.139598 
L 165.74671 135.139598 
L 165.74671 145.183344 
L 166.757317 145.183344 
L 166.757317 146.069556 
L 167.767924 146.069556 
L 167.767924 148.137386 
L 168.778531 148.137386 
L 168.778531 147.546578 
L 169.789138 147.546578 
L 169.789138 160.544367 
L 170.799745 160.544367 
L 170.799745 113.27968 
L 171.810352 113.27968 
L 171.810352 125.391256 
L 172.820959 125.391256 
L 172.820959 137.502832 
L 173.831566 137.502832 
L 173.831566 136.616619 
L 174.842173 136.616619 
L 174.842173 135.435002 
L 175.85278 135.435002 
L 175.85278 143.410918 
L 176.863387 143.410918 
L 176.863387 139.866066 
L 177.873994 139.866066 
L 177.873994 136.616619 
L 178.884601 136.616619 
L 178.884601 137.502832 
L 179.895209 137.502832 
L 179.895209 134.253385 
L 180.905816 134.253385 
L 180.905816 147.841982 
L 181.916423 147.841982 
L 181.916423 151.977642 
L 182.92703 151.977642 
L 182.92703 156.408707 
L 183.937637 156.408707 
L 183.937637 138.389045 
L 184.948244 138.389045 
L 184.948244 139.866066 
L 185.958851 139.866066 
L 185.958851 151.682238 
L 186.969458 151.682238 
L 186.969458 150.500621 
L 187.980065 150.500621 
L 187.980065 146.069556 
L 188.990672 146.069556 
L 188.990672 149.614408 
L 190.001279 149.614408 
L 190.001279 144.001726 
L 191.011886 144.001726 
L 191.011886 152.273046 
L 192.022493 152.273046 
L 192.022493 147.841982 
L 193.0331 147.841982 
L 193.0331 159.953558 
L 194.043707 159.953558 
L 194.043707 159.067345 
L 195.054314 159.067345 
L 195.054314 151.682238 
L 196.064921 151.682238 
L 196.064921 149.909812 
L 197.075528 149.909812 
L 197.075528 152.273046 
L 198.086135 152.273046 
L 198.086135 158.181132 
L 199.096742 158.181132 
L 199.096742 161.430579 
L 200.107349 161.430579 
L 200.107349 151.682238 
L 201.117956 151.682238 
L 201.117956 160.544367 
L 202.128563 160.544367 
L 202.128563 159.658154 
L 203.13917 159.658154 
L 203.13917 161.430579 
L 204.149778 161.430579 
L 204.149778 165.270835 
L 205.160385 165.270835 
L 205.160385 167.338665 
L 206.170992 167.338665 
L 206.170992 157.590324 
L 207.181599 157.590324 
L 207.181599 166.157048 
L 208.192206 166.157048 
L 208.192206 163.793814 
L 209.202813 163.793814 
L 209.202813 164.384622 
L 210.21342 164.384622 
L 210.21342 169.7019 
L 211.224027 169.7019 
L 211.224027 171.178921 
L 212.234634 171.178921 
L 212.234634 178.268624 
L 213.245241 178.268624 
L 213.245241 177.087007 
L 214.255848 177.087007 
L 214.255848 174.132964 
L 215.266455 174.132964 
L 215.266455 173.83756 
L 216.277062 173.83756 
L 216.277062 170.292708 
L 217.287669 170.292708 
L 217.287669 177.97322 
L 218.298276 177.97322 
L 218.298276 180.336454 
L 219.308883 180.336454 
L 219.308883 176.200794 
L 220.31949 176.200794 
L 220.31949 186.539944 
L 221.330097 186.539944 
L 221.330097 179.154837 
L 222.340704 179.154837 
L 222.340704 210.172287 
L 223.351311 210.172287 
L 223.351311 184.767518 
L 224.361918 184.767518 
L 224.361918 171.178921 
L 225.372525 171.178921 
L 225.372525 176.200794 
L 226.383132 176.200794 
L 226.383132 173.542155 
L 227.393739 173.542155 
L 227.393739 175.609985 
L 228.404346 175.609985 
L 228.404346 172.065134 
L 229.414954 172.065134 
L 229.414954 186.835348 
L 230.425561 186.835348 
L 230.425561 179.154837 
L 231.436168 179.154837 
L 231.436168 174.723772 
L 232.446775 174.723772 
L 232.446775 177.677815 
L 233.457382 177.677815 
L 233.457382 180.336454 
L 234.467989 180.336454 
L 234.467989 177.382411 
L 235.478596 177.382411 
L 235.478596 179.745645 
L 236.489203 179.745645 
L 236.489203 177.677815 
L 237.49981 177.677815 
L 237.49981 180.04105 
L 238.510417 180.04105 
L 238.510417 182.10888 
L 239.521024 182.10888 
L 239.521024 188.903178 
L 240.531631 188.903178 
L 240.531631 182.404284 
L 241.542238 182.404284 
L 241.542238 181.222667 
L 242.552845 181.222667 
L 242.552845 185.062923 
L 243.563452 185.062923 
L 243.563452 181.222667 
L 244.574059 181.222667 
L 244.574059 181.813475 
L 245.584666 181.813475 
L 245.584666 189.789391 
L 246.595273 189.789391 
L 246.595273 183.290497 
L 247.60588 183.290497 
L 247.60588 181.813475 
L 248.616487 181.813475 
L 248.616487 188.903178 
L 249.627094 188.903178 
L 249.627094 188.607774 
L 250.637701 188.607774 
L 250.637701 187.426157 
L 251.648308 187.426157 
L 251.648308 191.857221 
L 252.658915 191.857221 
L 252.658915 190.675604 
L 253.669523 190.675604 
L 253.669523 189.789391 
L 254.68013 189.789391 
L 254.68013 186.835348 
L 255.690737 186.835348 
L 255.690737 185.653731 
L 256.701344 185.653731 
L 256.701344 193.925051 
L 257.711951 193.925051 
L 257.711951 190.971008 
L 258.722558 190.971008 
L 258.722558 188.016965 
L 259.733165 188.016965 
L 259.733165 196.879094 
L 260.743772 196.879094 
L 260.743772 189.789391 
L 261.754379 189.789391 
L 261.754379 191.561817 
L 262.764986 191.561817 
L 262.764986 195.106668 
L 263.775593 195.106668 
L 263.775593 193.629647 
L 264.7862 193.629647 
L 264.7862 197.174498 
L 265.796807 197.174498 
L 265.796807 193.038838 
L 267.818021 193.038838 
L 267.818021 195.402073 
L 268.828628 195.402073 
L 268.828628 200.423946 
L 269.839235 200.423946 
L 269.839235 199.537733 
L 270.849842 199.537733 
L 270.849842 216.080373 
L 272.871056 216.080373 
L 272.871056 202.491776 
L 273.881663 202.491776 
L 273.881663 189.198583 
L 274.89227 189.198583 
L 274.89227 191.857221 
L 275.902877 191.857221 
L 275.902877 196.58369 
L 276.913484 196.58369 
L 276.913484 196.288286 
L 278.934699 196.288286 
L 278.934699 193.334243 
L 279.945306 193.334243 
L 279.945306 201.310159 
L 280.955913 201.310159 
L 280.955913 197.469903 
L 281.96652 197.469903 
L 281.96652 189.493987 
L 282.977127 189.493987 
L 282.977127 198.946924 
L 283.987734 198.946924 
L 283.987734 197.469903 
L 284.998341 197.469903 
L 284.998341 199.833137 
L 286.008948 199.833137 
L 286.008948 200.423946 
L 287.019555 200.423946 
L 287.019555 195.697477 
L 288.030162 195.697477 
L 288.030162 197.174498 
L 290.051376 197.174498 
L 290.051376 198.060711 
L 291.061983 198.060711 
L 291.061983 198.356116 
L 292.07259 198.356116 
L 292.07259 201.310159 
L 293.083197 201.310159 
L 293.083197 199.242328 
L 294.093804 199.242328 
L 294.093804 196.58369 
L 295.104411 196.58369 
L 295.104411 199.833137 
L 296.115018 199.833137 
L 296.115018 199.537733 
L 298.136232 199.537733 
L 298.136232 197.469903 
L 299.146839 197.469903 
L 299.146839 197.174498 
L 300.157446 197.174498 
L 300.157446 200.71935 
L 301.168053 200.71935 
L 301.168053 201.605563 
L 302.17866 201.605563 
L 302.17866 203.377989 
L 303.189268 203.377989 
L 303.189268 201.310159 
L 304.199875 201.310159 
L 304.199875 203.082584 
L 305.210482 203.082584 
L 305.210482 198.356116 
L 306.221089 198.356116 
L 306.221089 210.467691 
L 307.231696 210.467691 
L 307.231696 206.036627 
L 308.242303 206.036627 
L 308.242303 200.423946 
L 309.25291 200.423946 
L 309.25291 198.356116 
L 310.263517 198.356116 
L 310.263517 203.968797 
L 311.274124 203.968797 
L 311.274124 205.150414 
L 312.284731 205.150414 
L 312.284731 203.377989 
L 313.295338 203.377989 
L 313.295338 205.445819 
L 314.305945 205.445819 
L 314.305945 204.264201 
L 315.316552 204.264201 
L 315.316552 206.036627 
L 316.327159 206.036627 
L 316.327159 214.307947 
L 317.337766 214.307947 
L 317.337766 219.034416 
L 319.35898 219.034416 
L 319.35898 217.26199 
L 320.369587 217.26199 
L 320.369587 211.0585 
L 321.380194 211.0585 
L 321.380194 206.92284 
L 322.390801 206.92284 
L 322.390801 203.968797 
L 323.401408 203.968797 
L 323.401408 206.627436 
L 324.412015 206.627436 
L 324.412015 210.467691 
L 325.422622 210.467691 
L 325.422622 205.445819 
L 326.433229 205.445819 
L 326.433229 208.695266 
L 327.443836 208.695266 
L 327.443836 208.399861 
L 328.454444 208.399861 
L 328.454444 205.445819 
L 329.465051 205.445819 
L 329.465051 206.627436 
L 330.475658 206.627436 
L 330.475658 209.286074 
L 331.486265 209.286074 
L 331.486265 210.172287 
L 332.496872 210.172287 
L 332.496872 204.85501 
L 333.507479 204.85501 
L 333.507479 205.445819 
L 334.518086 205.445819 
L 334.518086 206.92284 
L 335.528693 206.92284 
L 335.528693 208.695266 
L 336.5393 208.695266 
L 336.5393 206.92284 
L 337.549907 206.92284 
L 337.549907 206.627436 
L 338.560514 206.627436 
L 338.560514 206.036627 
L 339.571121 206.036627 
L 339.571121 205.445819 
L 340.581728 205.445819 
L 340.581728 208.695266 
L 341.592335 208.695266 
L 341.592335 207.218244 
L 342.602942 207.218244 
L 342.602942 205.445819 
L 343.613549 205.445819 
L 343.613549 207.218244 
L 344.624156 207.218244 
L 344.624156 206.036627 
L 345.634763 206.036627 
L 345.634763 205.150414 
L 346.64537 205.150414 
L 346.64537 209.286074 
L 347.655977 209.286074 
L 347.655977 203.082584 
L 348.666584 203.082584 
L 348.666584 207.513649 
L 349.677191 207.513649 
L 349.677191 207.218244 
L 350.687798 207.218244 
L 350.687798 207.809053 
L 351.698405 207.809053 
L 351.698405 212.240117 
L 352.709013 212.240117 
L 352.709013 213.12633 
L 353.71962 213.12633 
L 353.71962 206.92284 
L 354.730227 206.92284 
L 354.730227 208.104457 
L 355.740834 208.104457 
L 355.740834 212.240117 
L 356.751441 212.240117 
L 356.751441 208.99067 
L 357.762048 208.99067 
L 357.762048 209.286074 
L 358.772655 209.286074 
L 358.772655 213.12633 
L 359.783262 213.12633 
L 359.783262 212.830926 
L 360.793869 212.830926 
L 360.793869 211.353904 
L 361.804476 211.353904 
L 361.804476 211.649309 
L 362.815083 211.649309 
L 362.815083 212.830926 
L 363.82569 212.830926 
L 363.82569 211.649309 
L 364.836297 211.649309 
L 364.836297 215.784969 
L 365.846904 215.784969 
L 365.846904 215.784969 
" clip-path="url(#pf9d4760900)" style="fill: none; stroke: #1f77b4; stroke-width: 1.5; stroke-linecap: square"/>
   </g>
   <g id="line2d_14">
    <path d="M 62.183807 162.907601 
L 63.198352 162.907601 
L 63.198352 149.319004 
L 64.212898 149.319004 
L 64.212898 153.750068 
L 65.227443 153.750068 
L 65.227443 141.638492 
L 66.241989 141.638492 
L 66.241989 141.343088 
L 67.256534 141.343088 
L 67.256534 139.275258 
L 68.27108 139.275258 
L 68.27108 135.139598 
L 69.285625 135.139598 
L 69.285625 134.548789 
L 70.30017 134.548789 
L 70.30017 128.049895 
L 71.314716 128.049895 
L 71.314716 139.275258 
L 72.329261 139.275258 
L 72.329261 123.323426 
L 73.343807 123.323426 
L 73.343807 133.367172 
L 74.358352 133.367172 
L 74.358352 142.524705 
L 75.372898 142.524705 
L 75.372898 132.776363 
L 76.387443 132.776363 
L 76.387443 134.844193 
L 77.401989 134.844193 
L 77.401989 127.459086 
L 78.416534 127.459086 
L 78.416534 126.277469 
L 79.43108 126.277469 
L 79.43108 124.800448 
L 80.445625 124.800448 
L 80.445625 124.505043 
L 81.46017 124.505043 
L 81.46017 133.957981 
L 82.474716 133.957981 
L 82.474716 133.071768 
L 83.489261 133.071768 
L 83.489261 127.75449 
L 84.503807 127.75449 
L 84.503807 141.047683 
L 85.518352 141.047683 
L 85.518352 134.844193 
L 86.532898 134.844193 
L 86.532898 130.708533 
L 87.547443 130.708533 
L 87.547443 125.095852 
L 88.561989 125.095852 
L 88.561989 127.163682 
L 89.576534 127.163682 
L 89.576534 132.185555 
L 90.59108 132.185555 
L 90.59108 128.640703 
L 91.605625 128.640703 
L 91.605625 135.435002 
L 92.62017 135.435002 
L 92.62017 135.139598 
L 93.634716 135.139598 
L 93.634716 131.890151 
L 95.663807 131.890151 
L 95.663807 129.822321 
L 96.678352 129.822321 
L 96.678352 123.914235 
L 97.692898 123.914235 
L 97.692898 117.41534 
L 98.707443 117.41534 
L 98.707443 128.049895 
L 99.721989 128.049895 
L 99.721989 117.710745 
L 100.736534 117.710745 
L 100.736534 115.052106 
L 101.75108 115.052106 
L 101.75108 117.119936 
L 102.765625 117.119936 
L 102.765625 114.756702 
L 103.78017 114.756702 
L 103.78017 128.345299 
L 104.794716 128.345299 
L 104.794716 102.645126 
L 105.809261 102.645126 
L 105.809261 113.575085 
L 106.823807 113.575085 
L 106.823807 118.892362 
L 107.838352 118.892362 
L 107.838352 108.553212 
L 109.867443 108.553212 
L 109.867443 100.281892 
L 110.881989 100.281892 
L 110.881989 102.94053 
L 111.896534 102.94053 
L 111.896534 100.281892 
L 112.91108 100.281892 
L 112.91108 113.27968 
L 113.925625 113.27968 
L 113.925625 100.577296 
L 114.94017 100.577296 
L 114.94017 111.21185 
L 115.954716 111.21185 
L 115.954716 118.006149 
L 116.969261 118.006149 
L 116.969261 81.080613 
L 117.983807 81.080613 
L 117.983807 17.273286 
L 118.998352 17.273286 
L 118.998352 46.518311 
L 120.012898 46.518311 
L 120.012898 32.634309 
L 121.027443 32.634309 
L 121.027443 55.675844 
L 122.041989 55.675844 
L 122.041989 22.295159 
L 123.056534 22.295159 
L 123.056534 42.678055 
L 124.07108 42.678055 
L 124.07108 55.085035 
L 125.085625 55.085035 
L 125.085625 58.334482 
L 126.10017 58.334482 
L 126.10017 53.903418 
L 127.114716 53.903418 
L 127.114716 56.266652 
L 128.129261 56.266652 
L 128.129261 48.586141 
L 129.143807 48.586141 
L 129.143807 65.71959 
L 130.158352 65.71959 
L 130.158352 65.128781 
L 131.172898 65.128781 
L 131.172898 67.78742 
L 132.187443 67.78742 
L 132.187443 60.993121 
L 133.201989 60.993121 
L 133.201989 72.513888 
L 134.216534 72.513888 
L 134.216534 78.421974 
L 135.23108 78.421974 
L 135.23108 79.898996 
L 136.245625 79.898996 
L 136.245625 65.71959 
L 137.26017 65.71959 
L 137.26017 63.65176 
L 138.274716 63.65176 
L 138.274716 86.102486 
L 139.289261 86.102486 
L 139.289261 68.378228 
L 140.303807 68.378228 
L 140.303807 89.647337 
L 141.318352 89.647337 
L 141.318352 90.828954 
L 142.332898 90.828954 
L 142.332898 91.715167 
L 143.347443 91.715167 
L 143.347443 93.192189 
L 144.361989 93.192189 
L 144.361989 93.782997 
L 145.376534 93.782997 
L 145.376534 89.647337 
L 146.39108 89.647337 
L 146.39108 91.419763 
L 147.405625 91.419763 
L 147.405625 92.60138 
L 148.42017 92.60138 
L 148.42017 95.850827 
L 149.434716 95.850827 
L 149.434716 106.485382 
L 150.449261 106.485382 
L 150.449261 107.666999 
L 151.463807 107.666999 
L 151.463807 108.848616 
L 152.478352 108.848616 
L 152.478352 99.691083 
L 153.492898 99.691083 
L 153.492898 105.303764 
L 154.507443 105.303764 
L 154.507443 112.098063 
L 155.521989 112.098063 
L 155.521989 106.189977 
L 156.536534 106.189977 
L 156.536534 111.507255 
L 157.55108 111.507255 
L 157.55108 118.596958 
L 158.565625 118.596958 
L 158.565625 113.870489 
L 159.58017 113.870489 
L 159.58017 122.437213 
L 160.594716 122.437213 
L 160.594716 117.119936 
L 161.609261 117.119936 
L 161.609261 126.868278 
L 162.623807 126.868278 
L 162.623807 123.61883 
L 163.638352 123.61883 
L 163.638352 129.231512 
L 164.652898 129.231512 
L 164.652898 136.025811 
L 165.667443 136.025811 
L 165.667443 139.866066 
L 166.681989 139.866066 
L 166.681989 150.500621 
L 167.696534 150.500621 
L 167.696534 142.820109 
L 168.71108 142.820109 
L 168.71108 147.546578 
L 169.725625 147.546578 
L 169.725625 151.977642 
L 170.74017 151.977642 
L 170.74017 114.461297 
L 171.754716 114.461297 
L 171.754716 112.984276 
L 172.769261 112.984276 
L 172.769261 136.912023 
L 173.783807 136.912023 
L 173.783807 136.616619 
L 174.798352 136.616619 
L 174.798352 135.139598 
L 175.812898 135.139598 
L 175.812898 142.229301 
L 176.827443 142.229301 
L 176.827443 139.570662 
L 177.841989 139.570662 
L 177.841989 139.866066 
L 178.856534 139.866066 
L 178.856534 131.299342 
L 179.87108 131.299342 
L 179.87108 139.570662 
L 180.885625 139.570662 
L 180.885625 146.364961 
L 181.90017 146.364961 
L 181.90017 150.796025 
L 182.914716 150.796025 
L 182.914716 156.704111 
L 183.929261 156.704111 
L 183.929261 134.548789 
L 184.943807 134.548789 
L 184.943807 145.774152 
L 185.958352 145.774152 
L 185.958352 148.137386 
L 186.972898 148.137386 
L 186.972898 151.091429 
L 187.987443 151.091429 
L 187.987443 147.841982 
L 189.001989 147.841982 
L 189.001989 148.432791 
L 190.016534 148.432791 
L 190.016534 142.229301 
L 191.03108 142.229301 
L 191.03108 154.636281 
L 192.045625 154.636281 
L 192.045625 144.001726 
L 193.06017 144.001726 
L 193.06017 160.839771 
L 194.074716 160.839771 
L 194.074716 157.590324 
L 195.089261 157.590324 
L 195.089261 150.205216 
L 196.103807 150.205216 
L 196.103807 154.931685 
L 197.118352 154.931685 
L 197.118352 153.454664 
L 198.132898 153.454664 
L 198.132898 153.750068 
L 199.147443 153.750068 
L 199.147443 158.181132 
L 200.161989 158.181132 
L 200.161989 155.227089 
L 201.176534 155.227089 
L 201.176534 161.135175 
L 202.19108 161.135175 
L 202.19108 158.476537 
L 203.205625 158.476537 
L 203.205625 157.590324 
L 204.22017 157.590324 
L 204.22017 166.157048 
L 205.234716 166.157048 
L 205.234716 167.043261 
L 206.249261 167.043261 
L 206.249261 156.999515 
L 207.263807 156.999515 
L 207.263807 167.929474 
L 208.278352 167.929474 
L 208.278352 164.975431 
L 210.307443 164.975431 
L 210.307443 166.157048 
L 211.321989 166.157048 
L 211.321989 174.132964 
L 212.336534 174.132964 
L 212.336534 174.428368 
L 213.35108 174.428368 
L 213.35108 177.087007 
L 214.365625 177.087007 
L 214.365625 176.791603 
L 215.38017 176.791603 
L 215.38017 169.997304 
L 216.394716 169.997304 
L 216.394716 172.951347 
L 217.409261 172.951347 
L 217.409261 181.518071 
L 218.423807 181.518071 
L 218.423807 177.677815 
L 219.438352 177.677815 
L 219.438352 180.336454 
L 220.452898 180.336454 
L 220.452898 184.17671 
L 221.467443 184.17671 
L 221.467443 187.426157 
L 222.481989 187.426157 
L 222.481989 195.402073 
L 223.496534 195.402073 
L 223.496534 186.539944 
L 224.51108 186.539944 
L 224.51108 168.224878 
L 225.525625 168.224878 
L 225.525625 182.699688 
L 226.54017 182.699688 
L 226.54017 170.588112 
L 227.554716 170.588112 
L 227.554716 173.542155 
L 228.569261 173.542155 
L 228.569261 177.97322 
L 229.583807 177.97322 
L 229.583807 181.222667 
L 230.598352 181.222667 
L 230.598352 174.428368 
L 231.612898 174.428368 
L 231.612898 180.336454 
L 232.627443 180.336454 
L 232.627443 179.154837 
L 233.641989 179.154837 
L 233.641989 177.677815 
L 234.656534 177.677815 
L 234.656534 180.927263 
L 235.67108 180.927263 
L 235.67108 175.019177 
L 236.685625 175.019177 
L 236.685625 180.631858 
L 237.70017 180.631858 
L 237.70017 176.791603 
L 238.714716 176.791603 
L 238.714716 186.24454 
L 240.743807 186.24454 
L 240.743807 180.336454 
L 241.758352 180.336454 
L 241.758352 184.17671 
L 242.772898 184.17671 
L 242.772898 180.336454 
L 243.787443 180.336454 
L 243.787443 183.585901 
L 244.801989 183.585901 
L 244.801989 187.426157 
L 245.816534 187.426157 
L 245.816534 186.24454 
L 246.83108 186.24454 
L 246.83108 184.472114 
L 247.845625 184.472114 
L 247.845625 180.631858 
L 248.86017 180.631858 
L 248.86017 191.266413 
L 249.874716 191.266413 
L 249.874716 186.24454 
L 250.889261 186.24454 
L 250.889261 187.426157 
L 251.903807 187.426157 
L 251.903807 193.038838 
L 252.918352 193.038838 
L 252.918352 185.949135 
L 253.932898 185.949135 
L 253.932898 192.743434 
L 254.947443 192.743434 
L 254.947443 187.426157 
L 255.961989 187.426157 
L 255.961989 188.903178 
L 256.976534 188.903178 
L 256.976534 190.084796 
L 257.99108 190.084796 
L 257.99108 190.675604 
L 259.005625 190.675604 
L 259.005625 192.44803 
L 260.02017 192.44803 
L 260.02017 194.220456 
L 261.034716 194.220456 
L 261.034716 189.198583 
L 262.049261 189.198583 
L 262.049261 191.561817 
L 263.063807 191.561817 
L 263.063807 194.51586 
L 264.078352 194.51586 
L 264.078352 195.106668 
L 265.092898 195.106668 
L 265.092898 194.51586 
L 266.107443 194.51586 
L 266.107443 193.038838 
L 267.121989 193.038838 
L 267.121989 193.925051 
L 268.136534 193.925051 
L 268.136534 199.242328 
L 269.15108 199.242328 
L 269.15108 198.356116 
L 270.165625 198.356116 
L 270.165625 205.741223 
L 271.18017 205.741223 
L 271.18017 210.467691 
L 272.194716 210.467691 
L 272.194716 210.763096 
L 273.209261 210.763096 
L 273.209261 196.58369 
L 274.223807 196.58369 
L 274.223807 193.629647 
L 275.238352 193.629647 
L 275.238352 193.038838 
L 276.252898 193.038838 
L 276.252898 195.106668 
L 277.267443 195.106668 
L 277.267443 197.765307 
L 278.281989 197.765307 
L 278.281989 195.106668 
L 279.296534 195.106668 
L 279.296534 196.58369 
L 280.31108 196.58369 
L 280.31108 199.242328 
L 281.325625 199.242328 
L 281.325625 194.51586 
L 282.34017 194.51586 
L 282.34017 191.266413 
L 283.354716 191.266413 
L 283.354716 196.288286 
L 284.369261 196.288286 
L 284.369261 200.71935 
L 285.383807 200.71935 
L 285.383807 199.537733 
L 286.398352 199.537733 
L 286.398352 200.423946 
L 287.412898 200.423946 
L 287.412898 194.51586 
L 288.427443 194.51586 
L 288.427443 197.174498 
L 289.441989 197.174498 
L 289.441989 199.242328 
L 290.456534 199.242328 
L 290.456534 195.402073 
L 291.47108 195.402073 
L 291.47108 200.128541 
L 292.485625 200.128541 
L 292.485625 199.833137 
L 293.50017 199.833137 
L 293.50017 200.71935 
L 294.514716 200.71935 
L 294.514716 196.58369 
L 295.529261 196.58369 
L 295.529261 198.946924 
L 296.543807 198.946924 
L 296.543807 199.833137 
L 297.558352 199.833137 
L 297.558352 198.946924 
L 298.572898 198.946924 
L 298.572898 199.537733 
L 299.587443 199.537733 
L 299.587443 197.469903 
L 300.601989 197.469903 
L 300.601989 201.014754 
L 301.616534 201.014754 
L 301.616534 199.833137 
L 302.63108 199.833137 
L 302.63108 205.445819 
L 303.645625 205.445819 
L 303.645625 200.423946 
L 304.66017 200.423946 
L 304.66017 200.71935 
L 305.674716 200.71935 
L 305.674716 205.741223 
L 306.689261 205.741223 
L 306.689261 205.445819 
L 307.703807 205.445819 
L 307.703807 204.85501 
L 308.718352 204.85501 
L 308.718352 199.242328 
L 309.732898 199.242328 
L 309.732898 201.014754 
L 310.747443 201.014754 
L 310.747443 206.036627 
L 311.761989 206.036627 
L 311.761989 203.968797 
L 313.79108 203.968797 
L 313.79108 202.78718 
L 314.805625 202.78718 
L 314.805625 205.741223 
L 315.82017 205.741223 
L 315.82017 211.0585 
L 316.834716 211.0585 
L 316.834716 214.012543 
L 317.849261 214.012543 
L 317.849261 218.739012 
L 318.863807 218.739012 
L 318.863807 218.148203 
L 319.878352 218.148203 
L 319.878352 212.240117 
L 320.892898 212.240117 
L 320.892898 207.809053 
L 322.921989 207.809053 
L 322.921989 204.264201 
L 323.936534 204.264201 
L 323.936534 208.104457 
L 324.95108 208.104457 
L 324.95108 208.695266 
L 325.965625 208.695266 
L 325.965625 208.104457 
L 326.98017 208.104457 
L 326.98017 205.741223 
L 327.994716 205.741223 
L 327.994716 208.399861 
L 329.009261 208.399861 
L 329.009261 205.741223 
L 330.023807 205.741223 
L 330.023807 206.627436 
L 331.038352 206.627436 
L 331.038352 210.467691 
L 332.052898 210.467691 
L 332.052898 208.99067 
L 333.067443 208.99067 
L 333.067443 203.377989 
L 334.081989 203.377989 
L 334.081989 206.92284 
L 335.096534 206.92284 
L 335.096534 208.695266 
L 336.11108 208.695266 
L 336.11108 206.332031 
L 337.125625 206.332031 
L 337.125625 207.809053 
L 339.154716 207.809053 
L 339.154716 203.673393 
L 340.169261 203.673393 
L 340.169261 207.809053 
L 341.183807 207.809053 
L 341.183807 206.92284 
L 342.198352 206.92284 
L 342.198352 207.218244 
L 343.212898 207.218244 
L 343.212898 207.513649 
L 344.227443 207.513649 
L 344.227443 204.559606 
L 345.241989 204.559606 
L 345.241989 205.150414 
L 346.256534 205.150414 
L 346.256534 208.695266 
L 347.27108 208.695266 
L 347.27108 205.150414 
L 349.30017 205.150414 
L 349.30017 206.036627 
L 350.314716 206.036627 
L 350.314716 207.513649 
L 351.329261 207.513649 
L 351.329261 211.353904 
L 353.358352 211.353904 
L 353.358352 208.695266 
L 354.372898 208.695266 
L 354.372898 209.876883 
L 355.387443 209.876883 
L 355.387443 211.0585 
L 356.401989 211.0585 
L 356.401989 209.581479 
L 357.416534 209.581479 
L 357.416534 208.99067 
L 358.43108 208.99067 
L 358.43108 212.535522 
L 359.445625 212.535522 
L 359.445625 213.12633 
L 360.46017 213.12633 
L 360.46017 209.876883 
L 361.474716 209.876883 
L 361.474716 211.944713 
L 362.489261 211.944713 
L 362.489261 212.535522 
L 363.503807 212.535522 
L 363.503807 211.944713 
L 364.518352 211.944713 
L 364.518352 214.603352 
L 365.532898 214.603352 
L 365.532898 216.966586 
L 366.547443 216.966586 
L 366.547443 216.966586 
" clip-path="url(#pf9d4760900)" style="fill: none; stroke: #ff7f0e; stroke-width: 1.5; stroke-linecap: square"/>
   </g>
   <g id="patch_3">
    <path d="M 46.965625 228.96 
L 46.965625 7.2 
" style="fill: none; stroke: #000000; stroke-width: 0.8; stroke-linejoin: miter; stroke-linecap: square"/>
   </g>
   <g id="patch_4">
    <path d="M 381.765625 228.96 
L 381.765625 7.2 
" style="fill: none; stroke: #000000; stroke-width: 0.8; stroke-linejoin: miter; stroke-linecap: square"/>
   </g>
   <g id="patch_5">
    <path d="M 46.965625 228.96 
L 381.765625 228.96 
" style="fill: none; stroke: #000000; stroke-width: 0.8; stroke-linejoin: miter; stroke-linecap: square"/>
   </g>
   <g id="patch_6">
    <path d="M 46.965625 7.2 
L 381.765625 7.2 
" style="fill: none; stroke: #000000; stroke-width: 0.8; stroke-linejoin: miter; stroke-linecap: square"/>
   </g>
   <g id="legend_1">
    <g id="patch_7">
     <path d="M 305.3875 44.55625 
L 374.765625 44.55625 
Q 376.765625 44.55625 376.765625 42.55625 
L 376.765625 14.2 
Q 376.765625 12.2 374.765625 12.2 
L 305.3875 12.2 
Q 303.3875 12.2 303.3875 14.2 
L 303.3875 42.55625 
Q 303.3875 44.55625 305.3875 44.55625 
z
" style="fill: #ffffff; opacity: 0.8; stroke: #cccccc; stroke-linejoin: miter"/>
    </g>
    <g id="line2d_15">
     <path d="M 307.3875 20.298438 
L 307.3875 20.298438 
L 317.3875 20.298438 
L 317.3875 20.298438 
L 327.3875 20.298438 
" style="fill: none; stroke: #1f77b4; stroke-width: 1.5; stroke-linecap: square"/>
    </g>
    <g id="text_15">
     <!-- wfm -->
     <g transform="translate(335.3875 23.798438) scale(0.1 -0.1)">
      <defs>
       <path id="DejaVuSans-66" d="M 2375 4863 
L 2375 4384 
L 1825 4384 
Q 1516 4384 1395 4259 
Q 1275 4134 1275 3809 
L 1275 3500 
L 2222 3500 
L 2222 3053 
L 1275 3053 
L 1275 0 
L 697 0 
L 697 3053 
L 147 3053 
L 147 3500 
L 697 3500 
L 697 3744 
Q 697 4328 969 4595 
Q 1241 4863 1831 4863 
L 2375 4863 
z
" transform="scale(0.015625)"/>
       <path id="DejaVuSans-6d" d="M 3328 2828 
Q 3544 3216 3844 3400 
Q 4144 3584 4550 3584 
Q 5097 3584 5394 3201 
Q 5691 2819 5691 2113 
L 5691 0 
L 5113 0 
L 5113 2094 
Q 5113 2597 4934 2840 
Q 4756 3084 4391 3084 
Q 3944 3084 3684 2787 
Q 3425 2491 3425 1978 
L 3425 0 
L 2847 0 
L 2847 2094 
Q 2847 2600 2669 2842 
Q 2491 3084 2119 3084 
Q 1678 3084 1418 2786 
Q 1159 2488 1159 1978 
L 1159 0 
L 581 0 
L 581 3500 
L 1159 3500 
L 1159 2956 
Q 1356 3278 1631 3431 
Q 1906 3584 2284 3584 
Q 2666 3584 2933 3390 
Q 3200 3197 3328 2828 
z
" transform="scale(0.015625)"/>
      </defs>
      <use xlink:href="#DejaVuSans-77"/>
      <use xlink:href="#DejaVuSans-66" transform="translate(81.787109 0)"/>
      <use xlink:href="#DejaVuSans-6d" transform="translate(116.992188 0)"/>
     </g>
    </g>
    <g id="line2d_16">
     <path d="M 307.3875 34.976562 
L 307.3875 34.976562 
L 317.3875 34.976562 
L 317.3875 34.976562 
L 327.3875 34.976562 
" style="fill: none; stroke: #ff7f0e; stroke-width: 1.5; stroke-linecap: square"/>
    </g>
    <g id="text_16">
     <!-- original -->
     <g transform="translate(335.3875 38.476562) scale(0.1 -0.1)">
      <defs>
       <path id="DejaVuSans-72" d="M 2631 2963 
Q 2534 3019 2420 3045 
Q 2306 3072 2169 3072 
Q 1681 3072 1420 2755 
Q 1159 2438 1159 1844 
L 1159 0 
L 581 0 
L 581 3500 
L 1159 3500 
L 1159 2956 
Q 1341 3275 1631 3429 
Q 1922 3584 2338 3584 
Q 2397 3584 2469 3576 
Q 2541 3569 2628 3553 
L 2631 2963 
z
" transform="scale(0.015625)"/>
       <path id="DejaVuSans-69" d="M 603 3500 
L 1178 3500 
L 1178 0 
L 603 0 
L 603 3500 
z
M 603 4863 
L 1178 4863 
L 1178 4134 
L 603 4134 
L 603 4863 
z
" transform="scale(0.015625)"/>
      </defs>
      <use xlink:href="#DejaVuSans-6f"/>
      <use xlink:href="#DejaVuSans-72" transform="translate(61.181641 0)"/>
      <use xlink:href="#DejaVuSans-69" transform="translate(102.294922 0)"/>
      <use xlink:href="#DejaVuSans-67" transform="translate(130.078125 0)"/>
      <use xlink:href="#DejaVuSans-69" transform="translate(193.554688 0)"/>
      <use xlink:href="#DejaVuSans-6e" transform="translate(221.337891 0)"/>
      <use xlink:href="#DejaVuSans-61" transform="translate(284.716797 0)"/>
      <use xlink:href="#DejaVuSans-6c" transform="translate(345.996094 0)"/>
     </g>
    </g>
   </g>
  </g>
 </g>
 <defs>
  <clipPath id="pf9d4760900">
   <rect x="46.965625" y="7.2" width="334.8" height="221.76"/>
  </clipPath>
 </defs>
</svg>
