<?xml version="1.0" encoding="utf-8" standalone="no"?>
<!DOCTYPE svg PUBLIC "-//W3C//DTD SVG 1.1//EN"
  "http://www.w3.org/Graphics/SVG/1.1/DTD/svg11.dtd">
<svg xmlns:xlink="http://www.w3.org/1999/xlink" width="388.965625pt" height="268.200625pt" viewBox="0 0 388.965625 268.200625" xmlns="http://www.w3.org/2000/svg" version="1.1">
 <metadata>
  <rdf:RDF xmlns:dc="http://purl.org/dc/elements/1.1/" xmlns:cc="http://creativecommons.org/ns#" xmlns:rdf="http://www.w3.org/1999/02/22-rdf-syntax-ns#">
   <cc:Work>
    <dc:type rdf:resource="http://purl.org/dc/dcmitype/StillImage"/>
    <dc:date>2025-11-19T10:11:35.836889</dc:date>
    <dc:format>image/svg+xml</dc:format>
    <dc:creator>
     <cc:Agent>
      <dc:title>Matplotlib v3.10.7, https://matplotlib.org/</dc:title>
     </cc:Agent>
    </dc:creator>
   </cc:Work>
  </rdf:RDF>
 </metadata>
 <defs>
  <style type="text/css">*{stroke-linejoin: round; stroke-linecap: butt}</style>
 </defs>
 <g id="figure_1">
  <g id="patch_1">
   <path d="M 0 268.200625 
L 388.965625 268.200625 
L 388.965625 0 
L 0 0 
z
" style="fill: #ffffff"/>
  </g>
  <g id="axes_1">
   <g id="patch_2">
    <path d="M 46.965625 228.96 
L 381.765625 228.96 
L 381.765625 7.2 
L 46.965625 7.2 
z
" style="fill: #ffffff"/>
   </g>
   <g id="matplotlib.axis_1">
    <g id="xtick_1">
     <g id="line2d_1">
      <defs>
       <path id="ma33348e037" d="M 0 0 
L 0 3.5 
" style="stroke: #000000; stroke-width: 0.8"/>
      </defs>
      <g>
       <use xlink:href="#ma33348e037" x="70.648661" y="228.96" style="stroke: #000000; stroke-width: 0.8"/>
      </g>
     </g>
     <g id="text_1">
      <!-- 1.0 -->
      <g transform="translate(62.697098 243.558437) scale(0.1 -0.1)">
       <defs>
        <path id="DejaVuSans-31" d="M 794 531 
L 1825 531 
L 1825 4091 
L 703 3866 
L 703 4441 
L 1819 4666 
L 2450 4666 
L 2450 531 
L 3481 531 
L 3481 0 
L 794 0 
L 794 531 
z
" transform="scale(0.015625)"/>
        <path id="DejaVuSans-2e" d="M 684 794 
L 1344 794 
L 1344 0 
L 684 0 
L 684 794 
z
" transform="scale(0.015625)"/>
        <path id="DejaVuSans-30" d="M 2034 4250 
Q 1547 4250 1301 3770 
Q 1056 3291 1056 2328 
Q 1056 1369 1301 889 
Q 1547 409 2034 409 
Q 2525 409 2770 889 
Q 3016 1369 3016 2328 
Q 3016 3291 2770 3770 
Q 2525 4250 2034 4250 
z
M 2034 4750 
Q 2819 4750 3233 4129 
Q 3647 3509 3647 2328 
Q 3647 1150 3233 529 
Q 2819 -91 2034 -91 
Q 1250 -91 836 529 
Q 422 1150 422 2328 
Q 422 3509 836 4129 
Q 1250 4750 2034 4750 
z
" transform="scale(0.015625)"/>
       </defs>
       <use xlink:href="#DejaVuSans-31"/>
       <use xlink:href="#DejaVuSans-2e" transform="translate(63.623047 0)"/>
       <use xlink:href="#DejaVuSans-30" transform="translate(95.410156 0)"/>
      </g>
     </g>
    </g>
    <g id="xtick_2">
     <g id="line2d_2">
      <g>
       <use xlink:href="#ma33348e037" x="112.855876" y="228.96" style="stroke: #000000; stroke-width: 0.8"/>
      </g>
     </g>
     <g id="text_2">
      <!-- 1.5 -->
      <g transform="translate(104.904313 243.558437) scale(0.1 -0.1)">
       <defs>
        <path id="DejaVuSans-35" d="M 691 4666 
L 3169 4666 
L 3169 4134 
L 1269 4134 
L 1269 2991 
Q 1406 3038 1543 3061 
Q 1681 3084 1819 3084 
Q 2600 3084 3056 2656 
Q 3513 2228 3513 1497 
Q 3513 744 3044 326 
Q 2575 -91 1722 -91 
Q 1428 -91 1123 -41 
Q 819 9 494 109 
L 494 744 
Q 775 591 1075 516 
Q 1375 441 1709 441 
Q 2250 441 2565 725 
Q 2881 1009 2881 1497 
Q 2881 1984 2565 2268 
Q 2250 2553 1709 2553 
Q 1456 2553 1204 2497 
Q 953 2441 691 2322 
L 691 4666 
z
" transform="scale(0.015625)"/>
       </defs>
       <use xlink:href="#DejaVuSans-31"/>
       <use xlink:href="#DejaVuSans-2e" transform="translate(63.623047 0)"/>
       <use xlink:href="#DejaVuSans-35" transform="translate(95.410156 0)"/>
      </g>
     </g>
    </g>
    <g id="xtick_3">
     <g id="line2d_3">
      <g>
       <use xlink:href="#ma33348e037" x="155.063091" y="228.96" style="stroke: #000000; stroke-width: 0.8"/>
      </g>
     </g>
     <g id="text_3">
      <!-- 2.0 -->
      <g transform="translate(147.111529 243.558437) scale(0.1 -0.1)">
       <defs>
        <path id="DejaVuSans-32" d="M 1228 531 
L 3431 531 
L 3431 0 
L 469 0 
L 469 531 
Q 828 903 1448 1529 
Q 2069 2156 2228 2338 
Q 2531 2678 2651 2914 
Q 2772 3150 2772 3378 
Q 2772 3750 2511 3984 
Q 2250 4219 1831 4219 
Q 1534 4219 1204 4116 
Q 875 4013 500 3803 
L 500 4441 
Q 881 4594 1212 4672 
Q 1544 4750 1819 4750 
Q 2544 4750 2975 4387 
Q 3406 4025 3406 3419 
Q 3406 3131 3298 2873 
Q 3191 2616 2906 2266 
Q 2828 2175 2409 1742 
Q 1991 1309 1228 531 
z
" transform="scale(0.015625)"/>
       </defs>
       <use xlink:href="#DejaVuSans-32"/>
       <use xlink:href="#DejaVuSans-2e" transform="translate(63.623047 0)"/>
       <use xlink:href="#DejaVuSans-30" transform="translate(95.410156 0)"/>
      </g>
     </g>
    </g>
    <g id="xtick_4">
     <g id="line2d_4">
      <g>
       <use xlink:href="#ma33348e037" x="197.270306" y="228.96" style="stroke: #000000; stroke-width: 0.8"/>
      </g>
     </g>
     <g id="text_4">
      <!-- 2.5 -->
      <g transform="translate(189.318744 243.558437) scale(0.1 -0.1)">
       <use xlink:href="#DejaVuSans-32"/>
       <use xlink:href="#DejaVuSans-2e" transform="translate(63.623047 0)"/>
       <use xlink:href="#DejaVuSans-35" transform="translate(95.410156 0)"/>
      </g>
     </g>
    </g>
    <g id="xtick_5">
     <g id="line2d_5">
      <g>
       <use xlink:href="#ma33348e037" x="239.477521" y="228.96" style="stroke: #000000; stroke-width: 0.8"/>
      </g>
     </g>
     <g id="text_5">
      <!-- 3.0 -->
      <g transform="translate(231.525959 243.558437) scale(0.1 -0.1)">
       <defs>
        <path id="DejaVuSans-33" d="M 2597 2516 
Q 3050 2419 3304 2112 
Q 3559 1806 3559 1356 
Q 3559 666 3084 287 
Q 2609 -91 1734 -91 
Q 1441 -91 1130 -33 
Q 819 25 488 141 
L 488 750 
Q 750 597 1062 519 
Q 1375 441 1716 441 
Q 2309 441 2620 675 
Q 2931 909 2931 1356 
Q 2931 1769 2642 2001 
Q 2353 2234 1838 2234 
L 1294 2234 
L 1294 2753 
L 1863 2753 
Q 2328 2753 2575 2939 
Q 2822 3125 2822 3475 
Q 2822 3834 2567 4026 
Q 2313 4219 1838 4219 
Q 1578 4219 1281 4162 
Q 984 4106 628 3988 
L 628 4550 
Q 988 4650 1302 4700 
Q 1616 4750 1894 4750 
Q 2613 4750 3031 4423 
Q 3450 4097 3450 3541 
Q 3450 3153 3228 2886 
Q 3006 2619 2597 2516 
z
" transform="scale(0.015625)"/>
       </defs>
       <use xlink:href="#DejaVuSans-33"/>
       <use xlink:href="#DejaVuSans-2e" transform="translate(63.623047 0)"/>
       <use xlink:href="#DejaVuSans-30" transform="translate(95.410156 0)"/>
      </g>
     </g>
    </g>
    <g id="xtick_6">
     <g id="line2d_6">
      <g>
       <use xlink:href="#ma33348e037" x="281.684737" y="228.96" style="stroke: #000000; stroke-width: 0.8"/>
      </g>
     </g>
     <g id="text_6">
      <!-- 3.5 -->
      <g transform="translate(273.733174 243.558437) scale(0.1 -0.1)">
       <use xlink:href="#DejaVuSans-33"/>
       <use xlink:href="#DejaVuSans-2e" transform="translate(63.623047 0)"/>
       <use xlink:href="#DejaVuSans-35" transform="translate(95.410156 0)"/>
      </g>
     </g>
    </g>
    <g id="xtick_7">
     <g id="line2d_7">
      <g>
       <use xlink:href="#ma33348e037" x="323.891952" y="228.96" style="stroke: #000000; stroke-width: 0.8"/>
      </g>
     </g>
     <g id="text_7">
      <!-- 4.0 -->
      <g transform="translate(315.940389 243.558437) scale(0.1 -0.1)">
       <defs>
        <path id="DejaVuSans-34" d="M 2419 4116 
L 825 1625 
L 2419 1625 
L 2419 4116 
z
M 2253 4666 
L 3047 4666 
L 3047 1625 
L 3713 1625 
L 3713 1100 
L 3047 1100 
L 3047 0 
L 2419 0 
L 2419 1100 
L 313 1100 
L 313 1709 
L 2253 4666 
z
" transform="scale(0.015625)"/>
       </defs>
       <use xlink:href="#DejaVuSans-34"/>
       <use xlink:href="#DejaVuSans-2e" transform="translate(63.623047 0)"/>
       <use xlink:href="#DejaVuSans-30" transform="translate(95.410156 0)"/>
      </g>
     </g>
    </g>
    <g id="xtick_8">
     <g id="line2d_8">
      <g>
       <use xlink:href="#ma33348e037" x="366.099167" y="228.96" style="stroke: #000000; stroke-width: 0.8"/>
      </g>
     </g>
     <g id="text_8">
      <!-- 4.5 -->
      <g transform="translate(358.147605 243.558437) scale(0.1 -0.1)">
       <use xlink:href="#DejaVuSans-34"/>
       <use xlink:href="#DejaVuSans-2e" transform="translate(63.623047 0)"/>
       <use xlink:href="#DejaVuSans-35" transform="translate(95.410156 0)"/>
      </g>
     </g>
    </g>
    <g id="text_9">
     <!-- wavelength [Å] -->
     <g transform="translate(176.328125 258.920937) scale(0.1 -0.1)">
      <defs>
       <path id="DejaVuSans-77" d="M 269 3500 
L 844 3500 
L 1563 769 
L 2278 3500 
L 2956 3500 
L 3675 769 
L 4391 3500 
L 4966 3500 
L 4050 0 
L 3372 0 
L 2619 2869 
L 1863 0 
L 1184 0 
L 269 3500 
z
" transform="scale(0.015625)"/>
       <path id="DejaVuSans-61" d="M 2194 1759 
Q 1497 1759 1228 1600 
Q 959 1441 959 1056 
Q 959 750 1161 570 
Q 1363 391 1709 391 
Q 2188 391 2477 730 
Q 2766 1069 2766 1631 
L 2766 1759 
L 2194 1759 
z
M 3341 1997 
L 3341 0 
L 2766 0 
L 2766 531 
Q 2569 213 2275 61 
Q 1981 -91 1556 -91 
Q 1019 -91 701 211 
Q 384 513 384 1019 
Q 384 1609 779 1909 
Q 1175 2209 1959 2209 
L 2766 2209 
L 2766 2266 
Q 2766 2663 2505 2880 
Q 2244 3097 1772 3097 
Q 1472 3097 1187 3025 
Q 903 2953 641 2809 
L 641 3341 
Q 956 3463 1253 3523 
Q 1550 3584 1831 3584 
Q 2591 3584 2966 3190 
Q 3341 2797 3341 1997 
z
" transform="scale(0.015625)"/>
       <path id="DejaVuSans-76" d="M 191 3500 
L 800 3500 
L 1894 563 
L 2988 3500 
L 3597 3500 
L 2284 0 
L 1503 0 
L 191 3500 
z
" transform="scale(0.015625)"/>
       <path id="DejaVuSans-65" d="M 3597 1894 
L 3597 1613 
L 953 1613 
Q 991 1019 1311 708 
Q 1631 397 2203 397 
Q 2534 397 2845 478 
Q 3156 559 3463 722 
L 3463 178 
Q 3153 47 2828 -22 
Q 2503 -91 2169 -91 
Q 1331 -91 842 396 
Q 353 884 353 1716 
Q 353 2575 817 3079 
Q 1281 3584 2069 3584 
Q 2775 3584 3186 3129 
Q 3597 2675 3597 1894 
z
M 3022 2063 
Q 3016 2534 2758 2815 
Q 2500 3097 2075 3097 
Q 1594 3097 1305 2825 
Q 1016 2553 972 2059 
L 3022 2063 
z
" transform="scale(0.015625)"/>
       <path id="DejaVuSans-6c" d="M 603 4863 
L 1178 4863 
L 1178 0 
L 603 0 
L 603 4863 
z
" transform="scale(0.015625)"/>
       <path id="DejaVuSans-6e" d="M 3513 2113 
L 3513 0 
L 2938 0 
L 2938 2094 
Q 2938 2591 2744 2837 
Q 2550 3084 2163 3084 
Q 1697 3084 1428 2787 
Q 1159 2491 1159 1978 
L 1159 0 
L 581 0 
L 581 3500 
L 1159 3500 
L 1159 2956 
Q 1366 3272 1645 3428 
Q 1925 3584 2291 3584 
Q 2894 3584 3203 3211 
Q 3513 2838 3513 2113 
z
" transform="scale(0.015625)"/>
       <path id="DejaVuSans-67" d="M 2906 1791 
Q 2906 2416 2648 2759 
Q 2391 3103 1925 3103 
Q 1463 3103 1205 2759 
Q 947 2416 947 1791 
Q 947 1169 1205 825 
Q 1463 481 1925 481 
Q 2391 481 2648 825 
Q 2906 1169 2906 1791 
z
M 3481 434 
Q 3481 -459 3084 -895 
Q 2688 -1331 1869 -1331 
Q 1566 -1331 1297 -1286 
Q 1028 -1241 775 -1147 
L 775 -588 
Q 1028 -725 1275 -790 
Q 1522 -856 1778 -856 
Q 2344 -856 2625 -561 
Q 2906 -266 2906 331 
L 2906 616 
Q 2728 306 2450 153 
Q 2172 0 1784 0 
Q 1141 0 747 490 
Q 353 981 353 1791 
Q 353 2603 747 3093 
Q 1141 3584 1784 3584 
Q 2172 3584 2450 3431 
Q 2728 3278 2906 2969 
L 2906 3500 
L 3481 3500 
L 3481 434 
z
" transform="scale(0.015625)"/>
       <path id="DejaVuSans-74" d="M 1172 4494 
L 1172 3500 
L 2356 3500 
L 2356 3053 
L 1172 3053 
L 1172 1153 
Q 1172 725 1289 603 
Q 1406 481 1766 481 
L 2356 481 
L 2356 0 
L 1766 0 
Q 1100 0 847 248 
Q 594 497 594 1153 
L 594 3053 
L 172 3053 
L 172 3500 
L 594 3500 
L 594 4494 
L 1172 4494 
z
" transform="scale(0.015625)"/>
       <path id="DejaVuSans-68" d="M 3513 2113 
L 3513 0 
L 2938 0 
L 2938 2094 
Q 2938 2591 2744 2837 
Q 2550 3084 2163 3084 
Q 1697 3084 1428 2787 
Q 1159 2491 1159 1978 
L 1159 0 
L 581 0 
L 581 4863 
L 1159 4863 
L 1159 2956 
Q 1366 3272 1645 3428 
Q 1925 3584 2291 3584 
Q 2894 3584 3203 3211 
Q 3513 2838 3513 2113 
z
" transform="scale(0.015625)"/>
       <path id="DejaVuSans-20" transform="scale(0.015625)"/>
       <path id="DejaVuSans-5b" d="M 550 4863 
L 1875 4863 
L 1875 4416 
L 1125 4416 
L 1125 -397 
L 1875 -397 
L 1875 -844 
L 550 -844 
L 550 4863 
z
" transform="scale(0.015625)"/>
       <path id="DejaVuSans-c5" d="M 2663 5081 
Q 2663 5278 2523 5417 
Q 2384 5556 2188 5556 
Q 1988 5556 1852 5420 
Q 1716 5284 1716 5081 
Q 1716 4884 1853 4746 
Q 1991 4609 2188 4609 
Q 2384 4609 2523 4746 
Q 2663 4884 2663 5081 
z
M 2188 4044 
L 1338 1722 
L 3041 1722 
L 2188 4044 
z
M 1716 4366 
Q 1525 4494 1428 4673 
Q 1331 4853 1331 5081 
Q 1331 5441 1579 5691 
Q 1828 5941 2188 5941 
Q 2544 5941 2795 5689 
Q 3047 5438 3047 5081 
Q 3047 4863 2948 4678 
Q 2850 4494 2663 4366 
L 4325 0 
L 3669 0 
L 3244 1197 
L 1141 1197 
L 716 0 
L 50 0 
L 1716 4366 
z
" transform="scale(0.015625)"/>
       <path id="DejaVuSans-5d" d="M 1947 4863 
L 1947 -844 
L 622 -844 
L 622 -397 
L 1369 -397 
L 1369 4416 
L 622 4416 
L 622 4863 
L 1947 4863 
z
" transform="scale(0.015625)"/>
      </defs>
      <use xlink:href="#DejaVuSans-77"/>
      <use xlink:href="#DejaVuSans-61" transform="translate(81.787109 0)"/>
      <use xlink:href="#DejaVuSans-76" transform="translate(143.066406 0)"/>
      <use xlink:href="#DejaVuSans-65" transform="translate(202.246094 0)"/>
      <use xlink:href="#DejaVuSans-6c" transform="translate(263.769531 0)"/>
      <use xlink:href="#DejaVuSans-65" transform="translate(291.552734 0)"/>
      <use xlink:href="#DejaVuSans-6e" transform="translate(353.076172 0)"/>
      <use xlink:href="#DejaVuSans-67" transform="translate(416.455078 0)"/>
      <use xlink:href="#DejaVuSans-74" transform="translate(479.931641 0)"/>
      <use xlink:href="#DejaVuSans-68" transform="translate(519.140625 0)"/>
      <use xlink:href="#DejaVuSans-20" transform="translate(582.519531 0)"/>
      <use xlink:href="#DejaVuSans-5b" transform="translate(614.306641 0)"/>
      <use xlink:href="#DejaVuSans-c5" transform="translate(653.320312 0)"/>
      <use xlink:href="#DejaVuSans-5d" transform="translate(721.728516 0)"/>
     </g>
    </g>
   </g>
   <g id="matplotlib.axis_2">
    <g id="ytick_1">
     <g id="line2d_9">
      <defs>
       <path id="mfdae8e8198" d="M 0 0 
L -3.5 0 
" style="stroke: #000000; stroke-width: 0.8"/>
      </defs>
      <g>
       <use xlink:href="#mfdae8e8198" x="46.965625" y="219.521017" style="stroke: #000000; stroke-width: 0.8"/>
      </g>
     </g>
     <g id="text_10">
      <!-- 0 -->
      <g transform="translate(33.603125 223.320236) scale(0.1 -0.1)">
       <use xlink:href="#DejaVuSans-30"/>
      </g>
     </g>
    </g>
    <g id="ytick_2">
     <g id="line2d_10">
      <g>
       <use xlink:href="#mfdae8e8198" x="46.965625" y="187.470143" style="stroke: #000000; stroke-width: 0.8"/>
      </g>
     </g>
     <g id="text_11">
      <!-- 100 -->
      <g transform="translate(20.878125 191.269362) scale(0.1 -0.1)">
       <use xlink:href="#DejaVuSans-31"/>
       <use xlink:href="#DejaVuSans-30" transform="translate(63.623047 0)"/>
       <use xlink:href="#DejaVuSans-30" transform="translate(127.246094 0)"/>
      </g>
     </g>
    </g>
    <g id="ytick_3">
     <g id="line2d_11">
      <g>
       <use xlink:href="#mfdae8e8198" x="46.965625" y="155.419269" style="stroke: #000000; stroke-width: 0.8"/>
      </g>
     </g>
     <g id="text_12">
      <!-- 200 -->
      <g transform="translate(20.878125 159.218487) scale(0.1 -0.1)">
       <use xlink:href="#DejaVuSans-32"/>
       <use xlink:href="#DejaVuSans-30" transform="translate(63.623047 0)"/>
       <use xlink:href="#DejaVuSans-30" transform="translate(127.246094 0)"/>
      </g>
     </g>
    </g>
    <g id="ytick_4">
     <g id="line2d_12">
      <g>
       <use xlink:href="#mfdae8e8198" x="46.965625" y="123.368394" style="stroke: #000000; stroke-width: 0.8"/>
      </g>
     </g>
     <g id="text_13">
      <!-- 300 -->
      <g transform="translate(20.878125 127.167613) scale(0.1 -0.1)">
       <use xlink:href="#DejaVuSans-33"/>
       <use xlink:href="#DejaVuSans-30" transform="translate(63.623047 0)"/>
       <use xlink:href="#DejaVuSans-30" transform="translate(127.246094 0)"/>
      </g>
     </g>
    </g>
    <g id="ytick_5">
     <g id="line2d_13">
      <g>
       <use xlink:href="#mfdae8e8198" x="46.965625" y="91.31752" style="stroke: #000000; stroke-width: 0.8"/>
      </g>
     </g>
     <g id="text_14">
      <!-- 400 -->
      <g transform="translate(20.878125 95.116739) scale(0.1 -0.1)">
       <use xlink:href="#DejaVuSans-34"/>
       <use xlink:href="#DejaVuSans-30" transform="translate(63.623047 0)"/>
       <use xlink:href="#DejaVuSans-30" transform="translate(127.246094 0)"/>
      </g>
     </g>
    </g>
    <g id="ytick_6">
     <g id="line2d_14">
      <g>
       <use xlink:href="#mfdae8e8198" x="46.965625" y="59.266645" style="stroke: #000000; stroke-width: 0.8"/>
      </g>
     </g>
     <g id="text_15">
      <!-- 500 -->
      <g transform="translate(20.878125 63.065864) scale(0.1 -0.1)">
       <use xlink:href="#DejaVuSans-35"/>
       <use xlink:href="#DejaVuSans-30" transform="translate(63.623047 0)"/>
       <use xlink:href="#DejaVuSans-30" transform="translate(127.246094 0)"/>
      </g>
     </g>
    </g>
    <g id="ytick_7">
     <g id="line2d_15">
      <g>
       <use xlink:href="#mfdae8e8198" x="46.965625" y="27.215771" style="stroke: #000000; stroke-width: 0.8"/>
      </g>
     </g>
     <g id="text_16">
      <!-- 600 -->
      <g transform="translate(20.878125 31.01499) scale(0.1 -0.1)">
       <defs>
        <path id="DejaVuSans-36" d="M 2113 2584 
Q 1688 2584 1439 2293 
Q 1191 2003 1191 1497 
Q 1191 994 1439 701 
Q 1688 409 2113 409 
Q 2538 409 2786 701 
Q 3034 994 3034 1497 
Q 3034 2003 2786 2293 
Q 2538 2584 2113 2584 
z
M 3366 4563 
L 3366 3988 
Q 3128 4100 2886 4159 
Q 2644 4219 2406 4219 
Q 1781 4219 1451 3797 
Q 1122 3375 1075 2522 
Q 1259 2794 1537 2939 
Q 1816 3084 2150 3084 
Q 2853 3084 3261 2657 
Q 3669 2231 3669 1497 
Q 3669 778 3244 343 
Q 2819 -91 2113 -91 
Q 1303 -91 875 529 
Q 447 1150 447 2328 
Q 447 3434 972 4092 
Q 1497 4750 2381 4750 
Q 2619 4750 2861 4703 
Q 3103 4656 3366 4563 
z
" transform="scale(0.015625)"/>
       </defs>
       <use xlink:href="#DejaVuSans-36"/>
       <use xlink:href="#DejaVuSans-30" transform="translate(63.623047 0)"/>
       <use xlink:href="#DejaVuSans-30" transform="translate(127.246094 0)"/>
      </g>
     </g>
    </g>
    <g id="text_17">
     <!-- [counts] -->
     <g transform="translate(14.798438 138.6925) rotate(-90) scale(0.1 -0.1)">
      <defs>
       <path id="DejaVuSans-63" d="M 3122 3366 
L 3122 2828 
Q 2878 2963 2633 3030 
Q 2388 3097 2138 3097 
Q 1578 3097 1268 2742 
Q 959 2388 959 1747 
Q 959 1106 1268 751 
Q 1578 397 2138 397 
Q 2388 397 2633 464 
Q 2878 531 3122 666 
L 3122 134 
Q 2881 22 2623 -34 
Q 2366 -91 2075 -91 
Q 1284 -91 818 406 
Q 353 903 353 1747 
Q 353 2603 823 3093 
Q 1294 3584 2113 3584 
Q 2378 3584 2631 3529 
Q 2884 3475 3122 3366 
z
" transform="scale(0.015625)"/>
       <path id="DejaVuSans-6f" d="M 1959 3097 
Q 1497 3097 1228 2736 
Q 959 2375 959 1747 
Q 959 1119 1226 758 
Q 1494 397 1959 397 
Q 2419 397 2687 759 
Q 2956 1122 2956 1747 
Q 2956 2369 2687 2733 
Q 2419 3097 1959 3097 
z
M 1959 3584 
Q 2709 3584 3137 3096 
Q 3566 2609 3566 1747 
Q 3566 888 3137 398 
Q 2709 -91 1959 -91 
Q 1206 -91 779 398 
Q 353 888 353 1747 
Q 353 2609 779 3096 
Q 1206 3584 1959 3584 
z
" transform="scale(0.015625)"/>
       <path id="DejaVuSans-75" d="M 544 1381 
L 544 3500 
L 1119 3500 
L 1119 1403 
Q 1119 906 1312 657 
Q 1506 409 1894 409 
Q 2359 409 2629 706 
Q 2900 1003 2900 1516 
L 2900 3500 
L 3475 3500 
L 3475 0 
L 2900 0 
L 2900 538 
Q 2691 219 2414 64 
Q 2138 -91 1772 -91 
Q 1169 -91 856 284 
Q 544 659 544 1381 
z
M 1991 3584 
L 1991 3584 
z
" transform="scale(0.015625)"/>
       <path id="DejaVuSans-73" d="M 2834 3397 
L 2834 2853 
Q 2591 2978 2328 3040 
Q 2066 3103 1784 3103 
Q 1356 3103 1142 2972 
Q 928 2841 928 2578 
Q 928 2378 1081 2264 
Q 1234 2150 1697 2047 
L 1894 2003 
Q 2506 1872 2764 1633 
Q 3022 1394 3022 966 
Q 3022 478 2636 193 
Q 2250 -91 1575 -91 
Q 1294 -91 989 -36 
Q 684 19 347 128 
L 347 722 
Q 666 556 975 473 
Q 1284 391 1588 391 
Q 1994 391 2212 530 
Q 2431 669 2431 922 
Q 2431 1156 2273 1281 
Q 2116 1406 1581 1522 
L 1381 1569 
Q 847 1681 609 1914 
Q 372 2147 372 2553 
Q 372 3047 722 3315 
Q 1072 3584 1716 3584 
Q 2034 3584 2315 3537 
Q 2597 3491 2834 3397 
z
" transform="scale(0.015625)"/>
      </defs>
      <use xlink:href="#DejaVuSans-5b"/>
      <use xlink:href="#DejaVuSans-63" transform="translate(39.013672 0)"/>
      <use xlink:href="#DejaVuSans-6f" transform="translate(93.994141 0)"/>
      <use xlink:href="#DejaVuSans-75" transform="translate(155.175781 0)"/>
      <use xlink:href="#DejaVuSans-6e" transform="translate(218.554688 0)"/>
      <use xlink:href="#DejaVuSans-74" transform="translate(281.933594 0)"/>
      <use xlink:href="#DejaVuSans-73" transform="translate(321.142578 0)"/>
      <use xlink:href="#DejaVuSans-5d" transform="translate(373.242188 0)"/>
     </g>
    </g>
   </g>
   <g id="line2d_16">
    <path d="M 62.649951 215.674913 
L 63.659708 215.674913 
L 63.659708 213.75186 
L 64.669464 213.75186 
L 64.669464 208.303211 
L 65.679221 208.303211 
L 65.679221 201.893037 
L 66.688978 201.893037 
L 66.688978 200.93151 
L 67.698734 200.93151 
L 67.698734 187.470143 
L 68.708491 187.470143 
L 68.708491 187.790652 
L 69.718248 187.790652 
L 69.718248 179.136916 
L 70.728004 179.136916 
L 70.728004 182.342003 
L 71.737761 182.342003 
L 71.737761 175.931828 
L 72.747518 175.931828 
L 72.747518 168.560127 
L 73.757274 168.560127 
L 73.757274 151.893672 
L 74.767031 151.893672 
L 74.767031 154.137234 
L 75.776788 154.137234 
L 75.776788 152.855199 
L 76.786544 152.855199 
L 76.786544 159.585882 
L 77.796301 159.585882 
L 77.796301 157.021812 
L 78.806057 157.021812 
L 78.806057 137.470779 
L 79.815814 137.470779 
L 79.815814 134.906709 
L 80.825571 134.906709 
L 80.825571 124.329921 
L 81.835327 124.329921 
L 81.835327 118.881272 
L 82.845084 118.881272 
L 82.845084 113.112114 
L 83.854841 113.112114 
L 83.854841 111.830079 
L 84.864597 111.830079 
L 84.864597 108.945501 
L 85.874354 108.945501 
L 85.874354 112.791606 
L 86.884111 112.791606 
L 86.884111 96.766169 
L 87.893867 96.766169 
L 87.893867 92.279046 
L 88.903624 92.279046 
L 88.903624 98.368712 
L 89.913381 98.368712 
L 89.913381 96.766169 
L 90.923137 96.766169 
L 90.923137 80.740731 
L 91.932894 80.740731 
L 91.932894 98.689221 
L 92.942651 98.689221 
L 92.942651 77.856153 
L 93.952407 77.856153 
L 93.952407 76.253609 
L 94.962164 76.253609 
L 94.962164 67.599873 
L 95.971921 67.599873 
L 95.971921 73.048521 
L 96.981677 73.048521 
L 96.981677 52.856471 
L 97.991434 52.856471 
L 97.991434 72.086995 
L 99.00119 72.086995 
L 99.00119 51.574436 
L 101.020704 51.574436 
L 101.020704 39.395103 
L 102.03046 39.395103 
L 102.03046 42.9207 
L 103.040217 42.9207 
L 103.040217 40.677138 
L 104.049974 40.677138 
L 104.049974 48.369348 
L 105.05973 48.369348 
L 105.05973 32.984928 
L 106.069487 32.984928 
L 106.069487 39.074595 
L 107.079244 39.074595 
L 107.079244 39.715612 
L 108.089 39.715612 
L 108.089 42.279682 
L 109.098757 42.279682 
L 109.098757 18.241526 
L 110.108514 18.241526 
L 110.108514 40.35663 
L 111.11827 40.35663 
L 111.11827 29.779841 
L 112.128027 29.779841 
L 112.128027 17.28 
L 113.137784 17.28 
L 113.137784 40.997647 
L 114.14754 40.997647 
L 114.14754 28.818315 
L 115.157297 28.818315 
L 115.157297 27.215771 
L 116.167054 27.215771 
L 116.167054 33.305437 
L 117.17681 33.305437 
L 117.17681 27.856789 
L 118.186567 27.856789 
L 118.186567 30.420859 
L 119.196324 30.420859 
L 119.196324 28.497806 
L 120.20608 28.497806 
L 120.20608 18.241526 
L 121.215837 18.241526 
L 121.215837 49.330874 
L 122.225593 49.330874 
L 122.225593 22.728649 
L 123.23535 22.728649 
L 123.23535 49.971892 
L 124.245107 49.971892 
L 124.245107 24.651701 
L 125.254863 24.651701 
L 125.254863 37.79256 
L 126.26462 37.79256 
L 126.26462 25.933736 
L 127.274377 25.933736 
L 127.274377 45.164261 
L 128.284133 45.164261 
L 128.284133 50.292401 
L 129.29389 50.292401 
L 129.29389 50.933418 
L 130.303647 50.933418 
L 130.303647 66.958855 
L 131.313403 66.958855 
L 131.313403 45.164261 
L 132.32316 45.164261 
L 132.32316 47.407822 
L 133.332917 47.407822 
L 133.332917 36.510525 
L 134.342673 36.510525 
L 134.342673 50.933418 
L 135.35243 50.933418 
L 135.35243 63.11275 
L 136.362187 63.11275 
L 136.362187 46.446296 
L 137.371943 46.446296 
L 137.371943 68.24089 
L 138.3817 68.24089 
L 138.3817 46.125787 
L 139.391457 46.125787 
L 139.391457 49.330874 
L 140.401213 49.330874 
L 140.401213 64.074277 
L 141.41097 64.074277 
L 141.41097 87.471415 
L 142.420726 87.471415 
L 142.420726 62.471733 
L 143.430483 62.471733 
L 143.430483 60.228172 
L 144.44024 60.228172 
L 144.44024 61.510207 
L 145.449996 61.510207 
L 145.449996 72.086995 
L 146.459753 72.086995 
L 146.459753 46.446296 
L 147.46951 46.446296 
L 147.46951 55.100032 
L 148.479266 55.100032 
L 148.479266 50.933418 
L 149.489023 50.933418 
L 149.489023 59.587154 
L 150.49878 59.587154 
L 150.49878 58.946137 
L 151.508536 58.946137 
L 151.508536 79.458696 
L 152.518293 79.458696 
L 152.518293 67.599873 
L 153.52805 67.599873 
L 153.52805 65.67682 
L 154.537806 65.67682 
L 154.537806 57.343593 
L 155.547563 57.343593 
L 155.547563 77.215135 
L 156.55732 77.215135 
L 156.55732 65.997329 
L 157.567076 65.997329 
L 157.567076 69.202417 
L 158.576833 69.202417 
L 158.576833 75.292083 
L 159.58659 75.292083 
L 159.58659 78.817679 
L 160.596346 78.817679 
L 160.596346 65.67682 
L 161.606103 65.67682 
L 161.606103 80.099714 
L 162.615859 80.099714 
L 162.615859 58.305119 
L 163.625616 58.305119 
L 163.625616 74.330556 
L 164.635373 74.330556 
L 164.635373 68.561399 
L 165.645129 68.561399 
L 165.645129 83.62531 
L 166.654886 83.62531 
L 166.654886 54.459014 
L 167.664643 54.459014 
L 167.664643 80.740731 
L 168.674399 80.740731 
L 168.674399 65.035803 
L 169.684156 65.035803 
L 169.684156 62.471733 
L 170.693913 62.471733 
L 170.693913 77.215135 
L 171.703669 77.215135 
L 171.703669 50.612909 
L 172.713426 50.612909 
L 172.713426 89.714976 
L 173.723183 89.714976 
L 173.723183 90.035485 
L 174.732939 90.035485 
L 174.732939 86.18938 
L 175.742696 86.18938 
L 175.742696 89.073959 
L 176.752453 89.073959 
L 176.752453 77.856153 
L 177.762209 77.856153 
L 177.762209 95.804642 
L 178.771966 95.804642 
L 178.771966 94.843116 
L 179.781723 94.843116 
L 179.781723 94.522607 
L 180.791479 94.522607 
L 180.791479 88.75345 
L 181.801236 88.75345 
L 181.801236 91.638029 
L 182.810993 91.638029 
L 182.810993 115.035167 
L 183.820749 115.035167 
L 183.820749 122.406868 
L 184.830506 122.406868 
L 184.830506 102.214817 
L 185.840262 102.214817 
L 185.840262 110.227536 
L 186.850019 110.227536 
L 186.850019 118.560763 
L 187.859776 118.560763 
L 187.859776 134.906709 
L 188.869532 134.906709 
L 188.869532 137.15027 
L 189.879289 137.15027 
L 189.879289 130.740095 
L 190.889046 130.740095 
L 190.889046 137.791288 
L 191.898802 137.791288 
L 191.898802 155.09876 
L 192.908559 155.09876 
L 192.908559 164.393514 
L 193.918316 164.393514 
L 193.918316 161.508935 
L 194.928072 161.508935 
L 194.928072 160.2269 
L 195.937829 160.2269 
L 195.937829 175.290811 
L 196.947586 175.290811 
L 196.947586 172.726741 
L 197.957342 172.726741 
L 197.957342 174.008776 
L 198.967099 174.008776 
L 198.967099 177.854881 
L 199.976856 177.854881 
L 199.976856 187.470143 
L 200.986612 187.470143 
L 200.986612 185.867599 
L 201.996369 185.867599 
L 201.996369 194.521335 
L 203.006126 194.521335 
L 203.006126 196.444388 
L 204.015882 196.444388 
L 204.015882 205.098124 
L 205.025639 205.098124 
L 205.025639 201.572528 
L 206.035395 201.572528 
L 206.035395 204.457107 
L 207.045152 204.457107 
L 207.045152 212.469825 
L 208.054909 212.469825 
L 208.054909 213.431351 
L 209.064665 213.431351 
L 209.064665 213.110843 
L 210.074422 213.110843 
L 210.074422 217.597965 
L 211.084179 217.597965 
L 211.084179 217.277456 
L 212.093935 217.277456 
L 212.093935 217.597965 
L 213.103692 217.597965 
L 213.103692 216.31593 
L 214.113449 216.31593 
L 214.113449 207.021176 
L 215.123205 207.021176 
L 215.123205 204.777615 
L 216.132962 204.777615 
L 216.132962 195.80337 
L 217.142719 195.80337 
L 217.142719 197.085405 
L 218.152475 197.085405 
L 218.152475 189.072687 
L 219.162232 189.072687 
L 219.162232 186.508617 
L 220.171989 186.508617 
L 220.171989 187.790652 
L 221.181745 187.790652 
L 221.181745 178.495898 
L 222.191502 178.495898 
L 222.191502 175.61132 
L 223.201259 175.61132 
L 223.201259 182.342003 
L 224.211015 182.342003 
L 224.211015 170.48318 
L 225.220772 170.48318 
L 225.220772 168.239618 
L 226.230529 168.239618 
L 226.230529 170.48318 
L 227.240285 170.48318 
L 227.240285 171.765215 
L 228.250042 171.765215 
L 228.250042 158.303847 
L 229.259798 158.303847 
L 229.259798 151.573164 
L 230.269555 151.573164 
L 230.269555 156.701304 
L 231.279312 156.701304 
L 231.279312 153.816725 
L 232.289068 153.816725 
L 232.289068 140.996375 
L 233.298825 140.996375 
L 233.298825 151.252655 
L 234.308582 151.252655 
L 234.308582 133.304165 
L 235.318338 133.304165 
L 235.318338 132.342639 
L 236.328095 132.342639 
L 236.328095 137.15027 
L 237.337852 137.15027 
L 237.337852 138.111797 
L 238.347608 138.111797 
L 238.347608 127.214499 
L 239.357365 127.214499 
L 239.357365 129.137552 
L 240.367122 129.137552 
L 240.367122 120.804324 
L 241.376878 120.804324 
L 241.376878 126.573482 
L 242.386635 126.573482 
L 242.386635 121.765851 
L 243.396392 121.765851 
L 243.396392 131.381113 
L 244.406148 131.381113 
L 244.406148 129.137552 
L 245.415905 129.137552 
L 245.415905 121.124833 
L 246.425662 121.124833 
L 246.425662 111.830079 
L 247.435418 111.830079 
L 247.435418 114.073641 
L 248.445175 114.073641 
L 248.445175 108.945501 
L 249.454931 108.945501 
L 249.454931 103.176343 
L 250.464688 103.176343 
L 250.464688 107.983975 
L 251.474445 107.983975 
L 251.474445 100.291765 
L 252.484201 100.291765 
L 252.484201 98.689221 
L 253.493958 98.689221 
L 253.493958 100.932782 
L 254.503715 100.932782 
L 254.503715 81.702258 
L 255.513471 81.702258 
L 255.513471 96.125151 
L 256.523228 96.125151 
L 256.523228 93.88159 
L 257.532985 93.88159 
L 257.532985 103.176343 
L 258.542741 103.176343 
L 258.542741 90.676502 
L 259.552498 90.676502 
L 259.552498 88.112432 
L 260.562255 88.112432 
L 260.562255 91.31752 
L 261.572011 91.31752 
L 261.572011 72.728013 
L 262.581768 72.728013 
L 262.581768 84.266328 
L 263.591525 84.266328 
L 263.591525 86.509889 
L 264.601281 86.509889 
L 264.601281 75.292083 
L 265.611038 75.292083 
L 265.611038 93.561081 
L 266.620795 93.561081 
L 266.620795 88.75345 
L 267.630551 88.75345 
L 267.630551 97.727695 
L 268.640308 97.727695 
L 268.640308 85.548362 
L 269.650065 85.548362 
L 269.650065 82.022766 
L 270.659821 82.022766 
L 270.659821 92.599555 
L 271.669578 92.599555 
L 271.669578 92.279046 
L 272.679334 92.279046 
L 272.679334 92.920064 
L 273.689091 92.920064 
L 273.689091 107.022448 
L 274.698848 107.022448 
L 274.698848 94.522607 
L 275.708604 94.522607 
L 275.708604 116.958219 
L 276.718361 116.958219 
L 276.718361 103.496852 
L 277.728118 103.496852 
L 277.728118 100.612273 
L 278.737874 100.612273 
L 278.737874 115.676184 
L 279.747631 115.676184 
L 279.747631 102.855835 
L 280.757388 102.855835 
L 280.757388 94.522607 
L 281.767144 94.522607 
L 281.767144 114.394149 
L 282.776901 114.394149 
L 282.776901 104.778887 
L 283.786658 104.778887 
L 283.786658 114.073641 
L 284.796414 114.073641 
L 284.796414 125.611955 
L 285.806171 125.611955 
L 285.806171 114.394149 
L 286.815928 114.394149 
L 286.815928 112.791606 
L 287.825684 112.791606 
L 287.825684 113.112114 
L 288.835441 113.112114 
L 288.835441 120.163307 
L 289.845198 120.163307 
L 289.845198 112.150588 
L 290.854954 112.150588 
L 290.854954 119.522289 
L 291.864711 119.522289 
L 291.864711 127.855517 
L 292.874467 127.855517 
L 292.874467 138.752814 
L 293.884224 138.752814 
L 293.884224 113.753132 
L 294.893981 113.753132 
L 294.893981 122.727377 
L 295.903737 122.727377 
L 295.903737 124.650429 
L 296.913494 124.650429 
L 296.913494 124.009412 
L 297.923251 124.009412 
L 297.923251 135.227218 
L 298.933007 135.227218 
L 298.933007 140.034849 
L 299.942764 140.034849 
L 299.942764 113.432623 
L 300.952521 113.432623 
L 300.952521 124.970938 
L 301.962277 124.970938 
L 301.962277 123.368394 
L 302.972034 123.368394 
L 302.972034 134.5862 
L 303.981791 134.5862 
L 303.981791 137.791288 
L 304.991547 137.791288 
L 304.991547 133.945183 
L 307.011061 133.945183 
L 307.011061 138.752814 
L 308.020817 138.752814 
L 308.020817 141.637393 
L 309.030574 141.637393 
L 309.030574 144.521971 
L 310.040331 144.521971 
L 310.040331 138.752814 
L 311.050087 138.752814 
L 311.050087 140.034849 
L 312.059844 140.034849 
L 312.059844 136.829762 
L 313.069601 136.829762 
L 313.069601 143.560445 
L 314.079357 143.560445 
L 314.079357 148.047568 
L 315.089114 148.047568 
L 315.089114 140.355358 
L 316.09887 140.355358 
L 316.09887 162.149952 
L 317.108627 162.149952 
L 317.108627 150.291129 
L 318.118384 150.291129 
L 318.118384 142.919428 
L 319.12814 142.919428 
L 319.12814 140.675866 
L 320.137897 140.675866 
L 320.137897 157.342321 
L 321.147654 157.342321 
L 321.147654 157.66283 
L 322.15741 157.66283 
L 322.15741 162.79097 
L 323.167167 162.79097 
L 323.167167 156.380795 
L 324.176924 156.380795 
L 324.176924 151.893672 
L 325.18668 151.893672 
L 325.18668 159.265374 
L 326.196437 159.265374 
L 326.196437 157.021812 
L 327.206194 157.021812 
L 327.206194 162.470461 
L 328.21595 162.470461 
L 328.21595 169.842162 
L 329.225707 169.842162 
L 329.225707 153.496216 
L 330.235464 153.496216 
L 330.235464 166.957583 
L 331.24522 166.957583 
L 331.24522 178.17539 
L 332.254977 178.17539 
L 332.254977 187.149634 
L 333.264734 187.149634 
L 333.264734 173.04725 
L 334.27449 173.04725 
L 334.27449 170.803688 
L 335.284247 170.803688 
L 335.284247 177.854881 
L 336.294003 177.854881 
L 336.294003 176.893355 
L 337.30376 176.893355 
L 337.30376 178.17539 
L 338.313517 178.17539 
L 338.313517 187.790652 
L 339.323273 187.790652 
L 339.323273 187.149634 
L 340.33303 187.149634 
L 340.33303 184.585564 
L 341.342787 184.585564 
L 341.342787 190.034213 
L 342.352543 190.034213 
L 342.352543 198.687949 
L 343.3623 198.687949 
L 343.3623 196.444388 
L 344.372057 196.444388 
L 344.372057 188.111161 
L 345.381813 188.111161 
L 345.381813 196.444388 
L 346.39157 196.444388 
L 346.39157 194.200827 
L 347.401327 194.200827 
L 347.401327 206.05965 
L 348.411083 206.05965 
L 348.411083 204.777615 
L 349.42084 204.777615 
L 349.42084 205.098124 
L 350.430597 205.098124 
L 350.430597 207.341685 
L 351.440353 207.341685 
L 351.440353 206.05965 
L 352.45011 206.05965 
L 352.45011 208.62372 
L 353.459867 208.62372 
L 353.459867 214.072369 
L 354.469623 214.072369 
L 354.469623 211.18779 
L 355.47938 211.18779 
L 355.47938 213.110843 
L 356.489137 213.110843 
L 356.489137 215.033895 
L 358.50865 215.033895 
L 358.50865 216.636439 
L 359.518406 216.636439 
L 359.518406 215.995421 
L 361.53792 215.995421 
L 361.53792 217.277456 
L 362.547676 217.277456 
L 362.547676 215.995421 
L 363.557433 215.995421 
L 363.557433 218.559491 
L 364.56719 218.559491 
L 364.56719 218.88 
L 365.576946 218.88 
L 365.576946 218.88 
" clip-path="url(#pa1dd86ba23)" style="fill: none; stroke: #1f77b4; stroke-width: 1.5; stroke-linecap: square"/>
   </g>
   <g id="line2d_17">
    <path d="M 62.183807 217.277456 
L 63.198352 217.277456 
L 63.198352 214.392878 
L 64.212898 214.392878 
L 64.212898 209.264738 
L 65.227443 209.264738 
L 65.227443 205.418633 
L 66.241989 205.418633 
L 66.241989 201.893037 
L 67.256534 201.893037 
L 67.256534 191.316248 
L 68.27108 191.316248 
L 68.27108 187.149634 
L 69.285625 187.149634 
L 69.285625 185.547091 
L 70.30017 185.547091 
L 70.30017 180.098442 
L 71.314716 180.098442 
L 71.314716 178.17539 
L 72.329261 178.17539 
L 72.329261 170.48318 
L 73.343807 170.48318 
L 73.343807 157.021812 
L 74.358352 157.021812 
L 74.358352 151.573164 
L 75.372898 151.573164 
L 75.372898 157.66283 
L 76.387443 157.66283 
L 76.387443 154.457742 
L 77.401989 154.457742 
L 77.401989 156.701304 
L 78.416534 156.701304 
L 78.416534 142.598919 
L 79.43108 142.598919 
L 79.43108 139.073323 
L 80.445625 139.073323 
L 80.445625 129.45806 
L 81.46017 129.45806 
L 81.46017 119.842798 
L 82.474716 119.842798 
L 82.474716 119.201781 
L 83.489261 119.201781 
L 83.489261 106.381431 
L 85.518352 106.381431 
L 85.518352 109.586518 
L 86.532898 109.586518 
L 86.532898 110.548045 
L 87.547443 110.548045 
L 87.547443 91.31752 
L 88.561989 91.31752 
L 88.561989 96.125151 
L 89.576534 96.125151 
L 89.576534 95.804642 
L 90.59108 95.804642 
L 90.59108 85.227854 
L 91.605625 85.227854 
L 91.605625 89.394467 
L 92.62017 89.394467 
L 92.62017 78.49717 
L 93.634716 78.49717 
L 93.634716 82.343275 
L 94.649261 82.343275 
L 94.649261 67.920382 
L 95.663807 67.920382 
L 95.663807 71.125469 
L 96.678352 71.125469 
L 96.678352 60.228172 
L 97.692898 60.228172 
L 97.692898 60.54868 
L 98.707443 60.54868 
L 98.707443 56.702576 
L 99.721989 56.702576 
L 99.721989 50.292401 
L 100.736534 50.292401 
L 100.736534 49.330874 
L 101.75108 49.330874 
L 101.75108 43.561717 
L 102.765625 43.561717 
L 102.765625 38.433577 
L 103.78017 38.433577 
L 103.78017 33.305437 
L 104.794716 33.305437 
L 104.794716 48.689857 
L 105.809261 48.689857 
L 105.809261 31.061876 
L 106.823807 31.061876 
L 106.823807 45.805278 
L 107.838352 45.805278 
L 107.838352 30.741367 
L 108.852898 30.741367 
L 108.852898 35.548998 
L 109.867443 35.548998 
L 109.867443 21.126105 
L 110.881989 21.126105 
L 110.881989 34.907981 
L 111.896534 34.907981 
L 111.896534 25.933736 
L 112.91108 25.933736 
L 112.91108 30.420859 
L 113.925625 30.420859 
L 113.925625 26.574754 
L 114.94017 26.574754 
L 114.94017 35.869507 
L 115.954716 35.869507 
L 115.954716 31.702893 
L 116.969261 31.702893 
L 116.969261 18.241526 
L 117.983807 18.241526 
L 117.983807 32.343911 
L 118.998352 32.343911 
L 118.998352 26.895262 
L 120.012898 26.895262 
L 120.012898 31.061876 
L 121.027443 31.061876 
L 121.027443 32.343911 
L 122.041989 32.343911 
L 122.041989 32.66442 
L 123.056534 32.66442 
L 123.056534 31.061876 
L 124.07108 31.061876 
L 124.07108 45.164261 
L 125.085625 45.164261 
L 125.085625 27.53628 
L 126.10017 27.53628 
L 126.10017 26.254245 
L 127.114716 26.254245 
L 127.114716 50.933418 
L 128.129261 50.933418 
L 128.129261 45.484769 
L 129.143807 45.484769 
L 129.143807 45.164261 
L 130.158352 45.164261 
L 130.158352 56.061558 
L 132.187443 56.061558 
L 132.187443 41.959173 
L 133.201989 41.959173 
L 133.201989 44.202734 
L 134.216534 44.202734 
L 134.216534 46.446296 
L 135.23108 46.446296 
L 135.23108 54.779523 
L 136.245625 54.779523 
L 136.245625 59.907663 
L 137.26017 59.907663 
L 137.26017 45.164261 
L 138.274716 45.164261 
L 138.274716 57.023084 
L 139.289261 57.023084 
L 139.289261 50.292401 
L 140.303807 50.292401 
L 140.303807 65.67682 
L 141.318352 65.67682 
L 141.318352 72.407504 
L 142.332898 72.407504 
L 142.332898 67.599873 
L 143.347443 67.599873 
L 143.347443 61.830715 
L 144.361989 61.830715 
L 144.361989 57.343593 
L 145.376534 57.343593 
L 145.376534 61.189698 
L 146.39108 61.189698 
L 146.39108 61.830715 
L 147.405625 61.830715 
L 147.405625 52.535962 
L 148.42017 52.535962 
L 148.42017 56.061558 
L 149.434716 56.061558 
L 149.434716 57.343593 
L 150.449261 57.343593 
L 150.449261 59.907663 
L 151.463807 59.907663 
L 151.463807 73.689539 
L 152.478352 73.689539 
L 152.478352 66.958855 
L 153.492898 66.958855 
L 153.492898 58.305119 
L 154.507443 58.305119 
L 154.507443 73.689539 
L 155.521989 73.689539 
L 155.521989 70.484452 
L 156.536534 70.484452 
L 156.536534 59.907663 
L 157.55108 59.907663 
L 157.55108 67.599873 
L 158.565625 67.599873 
L 158.565625 75.9331 
L 159.58017 75.9331 
L 159.58017 76.574118 
L 160.594716 76.574118 
L 160.594716 66.958855 
L 161.609261 66.958855 
L 161.609261 71.766486 
L 162.623807 71.766486 
L 162.623807 68.24089 
L 163.638352 68.24089 
L 163.638352 60.228172 
L 164.652898 60.228172 
L 164.652898 80.099714 
L 165.667443 80.099714 
L 165.667443 74.971574 
L 166.681989 74.971574 
L 166.681989 71.125469 
L 167.696534 71.125469 
L 167.696534 62.792242 
L 168.71108 62.792242 
L 168.71108 68.881908 
L 169.725625 68.881908 
L 169.725625 67.599873 
L 170.74017 67.599873 
L 170.74017 68.881908 
L 171.754716 68.881908 
L 171.754716 63.11275 
L 172.769261 63.11275 
L 172.769261 81.702258 
L 173.783807 81.702258 
L 173.783807 90.997011 
L 174.798352 90.997011 
L 174.798352 81.06124 
L 175.812898 81.06124 
L 175.812898 82.343275 
L 176.827443 82.343275 
L 176.827443 92.599555 
L 177.841989 92.599555 
L 177.841989 90.997011 
L 179.87108 90.997011 
L 179.87108 95.163625 
L 180.885625 95.163625 
L 180.885625 85.227854 
L 181.90017 85.227854 
L 181.90017 105.419905 
L 182.914716 105.419905 
L 182.914716 111.509571 
L 183.929261 111.509571 
L 183.929261 108.945501 
L 184.943807 108.945501 
L 184.943807 108.304483 
L 185.958352 108.304483 
L 185.958352 110.548045 
L 186.972898 110.548045 
L 186.972898 120.483816 
L 187.987443 120.483816 
L 187.987443 137.15027 
L 189.001989 137.15027 
L 189.001989 127.855517 
L 190.016534 127.855517 
L 190.016534 135.868235 
L 191.03108 135.868235 
L 191.03108 141.316884 
L 192.045625 141.316884 
L 192.045625 155.419269 
L 193.06017 155.419269 
L 193.06017 160.547409 
L 194.074716 160.547409 
L 194.074716 161.508935 
L 195.089261 161.508935 
L 195.089261 164.714022 
L 196.103807 164.714022 
L 196.103807 172.085723 
L 197.118352 172.085723 
L 197.118352 174.649793 
L 198.132898 174.649793 
L 198.132898 171.124197 
L 199.147443 171.124197 
L 199.147443 179.777933 
L 200.161989 179.777933 
L 200.161989 188.752178 
L 201.176534 188.752178 
L 201.176534 186.508617 
L 202.19108 186.508617 
L 202.19108 197.085405 
L 203.205625 197.085405 
L 203.205625 199.008458 
L 204.22017 199.008458 
L 204.22017 202.213545 
L 205.234716 202.213545 
L 205.234716 199.649475 
L 206.249261 199.649475 
L 206.249261 208.303211 
L 207.263807 208.303211 
L 207.263807 212.469825 
L 208.278352 212.469825 
L 208.278352 213.75186 
L 210.307443 213.75186 
L 210.307443 217.597965 
L 211.321989 217.597965 
L 211.321989 216.636439 
L 212.336534 216.636439 
L 212.336534 216.31593 
L 213.35108 216.31593 
L 213.35108 211.508299 
L 214.365625 211.508299 
L 214.365625 207.341685 
L 215.38017 207.341685 
L 215.38017 201.572528 
L 216.394716 201.572528 
L 216.394716 196.764897 
L 217.409261 196.764897 
L 217.409261 194.521335 
L 218.423807 194.521335 
L 218.423807 189.713704 
L 219.438352 189.713704 
L 219.438352 183.944547 
L 220.452898 183.944547 
L 220.452898 187.470143 
L 221.467443 187.470143 
L 221.467443 175.931828 
L 222.481989 175.931828 
L 222.481989 176.572846 
L 223.496534 176.572846 
L 223.496534 178.495898 
L 224.51108 178.495898 
L 224.51108 166.957583 
L 225.525625 166.957583 
L 225.525625 172.406232 
L 226.54017 172.406232 
L 226.54017 168.239618 
L 227.554716 168.239618 
L 227.554716 169.201145 
L 228.569261 169.201145 
L 228.569261 153.816725 
L 229.583807 153.816725 
L 229.583807 157.021812 
L 230.598352 157.021812 
L 230.598352 155.09876 
L 231.612898 155.09876 
L 231.612898 145.162989 
L 232.627443 145.162989 
L 232.627443 148.688585 
L 233.641989 148.688585 
L 233.641989 143.560445 
L 234.656534 143.560445 
L 234.656534 131.381113 
L 235.67108 131.381113 
L 235.67108 137.470779 
L 236.685625 137.470779 
L 236.685625 134.265692 
L 237.70017 134.265692 
L 237.70017 131.701622 
L 238.714716 131.701622 
L 238.714716 129.778569 
L 239.729261 129.778569 
L 239.729261 119.201781 
L 240.743807 119.201781 
L 240.743807 127.855517 
L 241.758352 127.855517 
L 241.758352 121.765851 
L 242.772898 121.765851 
L 242.772898 126.252973 
L 243.787443 126.252973 
L 243.787443 131.701622 
L 244.801989 131.701622 
L 244.801989 125.932464 
L 245.816534 125.932464 
L 245.816534 116.637711 
L 246.83108 116.637711 
L 246.83108 113.753132 
L 247.845625 113.753132 
L 247.845625 105.419905 
L 248.86017 105.419905 
L 248.86017 114.714658 
L 249.874716 114.714658 
L 249.874716 102.214817 
L 250.889261 102.214817 
L 250.889261 103.817361 
L 251.903807 103.817361 
L 251.903807 91.638029 
L 252.918352 91.638029 
L 252.918352 102.214817 
L 253.932898 102.214817 
L 253.932898 97.407186 
L 254.947443 97.407186 
L 254.947443 85.227854 
L 255.961989 85.227854 
L 255.961989 93.561081 
L 256.976534 93.561081 
L 256.976534 97.407186 
L 257.99108 97.407186 
L 257.99108 95.163625 
L 259.005625 95.163625 
L 259.005625 85.548362 
L 260.02017 85.548362 
L 260.02017 102.855835 
L 261.034716 102.855835 
L 261.034716 73.689539 
L 262.049261 73.689539 
L 262.049261 76.894626 
L 263.063807 76.894626 
L 263.063807 80.420223 
L 264.078352 80.420223 
L 264.078352 84.586836 
L 265.092898 84.586836 
L 265.092898 86.18938 
L 266.107443 86.18938 
L 266.107443 96.766169 
L 267.121989 96.766169 
L 267.121989 83.62531 
L 268.136534 83.62531 
L 268.136534 90.676502 
L 269.15108 90.676502 
L 269.15108 90.997011 
L 270.165625 90.997011 
L 270.165625 79.779205 
L 271.18017 79.779205 
L 271.18017 91.958537 
L 272.194716 91.958537 
L 272.194716 97.407186 
L 273.209261 97.407186 
L 273.209261 93.240572 
L 274.223807 93.240572 
L 274.223807 104.778887 
L 275.238352 104.778887 
L 275.238352 103.176343 
L 276.252898 103.176343 
L 276.252898 106.70194 
L 277.267443 106.70194 
L 277.267443 107.663466 
L 278.281989 107.663466 
L 278.281989 103.817361 
L 279.296534 103.817361 
L 279.296534 107.983975 
L 280.31108 107.983975 
L 280.31108 103.817361 
L 281.325625 103.817361 
L 281.325625 102.214817 
L 283.354716 102.214817 
L 283.354716 112.791606 
L 284.369261 112.791606 
L 284.369261 117.599237 
L 285.383807 117.599237 
L 285.383807 115.996693 
L 286.398352 115.996693 
L 286.398352 110.227536 
L 287.412898 110.227536 
L 287.412898 123.688903 
L 288.427443 123.688903 
L 288.427443 110.227536 
L 289.441989 110.227536 
L 289.441989 120.483816 
L 290.456534 120.483816 
L 290.456534 116.958219 
L 291.47108 116.958219 
L 291.47108 118.240254 
L 292.485625 118.240254 
L 292.485625 134.265692 
L 293.50017 134.265692 
L 293.50017 121.765851 
L 294.514716 121.765851 
L 294.514716 121.124833 
L 295.529261 121.124833 
L 295.529261 131.060604 
L 296.543807 131.060604 
L 296.543807 113.753132 
L 297.558352 113.753132 
L 297.558352 131.060604 
L 298.572898 131.060604 
L 298.572898 136.829762 
L 299.587443 136.829762 
L 299.587443 126.89399 
L 300.601989 126.89399 
L 300.601989 124.970938 
L 301.616534 124.970938 
L 301.616534 120.163307 
L 302.63108 120.163307 
L 302.63108 135.227218 
L 303.645625 135.227218 
L 303.645625 135.547727 
L 304.66017 135.547727 
L 304.66017 131.381113 
L 305.674716 131.381113 
L 305.674716 133.304165 
L 306.689261 133.304165 
L 306.689261 136.829762 
L 307.703807 136.829762 
L 307.703807 135.547727 
L 308.718352 135.547727 
L 308.718352 147.40655 
L 309.732898 147.40655 
L 309.732898 142.919428 
L 310.747443 142.919428 
L 310.747443 134.265692 
L 311.761989 134.265692 
L 311.761989 136.188744 
L 312.776534 136.188744 
L 312.776534 146.124515 
L 313.79108 146.124515 
L 313.79108 147.727059 
L 314.805625 147.727059 
L 314.805625 140.675866 
L 315.82017 140.675866 
L 315.82017 154.778251 
L 316.834716 154.778251 
L 316.834716 151.893672 
L 317.849261 151.893672 
L 317.849261 145.483498 
L 318.863807 145.483498 
L 318.863807 146.124515 
L 319.878352 146.124515 
L 319.878352 148.368076 
L 320.892898 148.368076 
L 320.892898 154.457742 
L 321.907443 154.457742 
L 321.907443 161.188426 
L 322.921989 161.188426 
L 322.921989 157.342321 
L 323.936534 157.342321 
L 323.936534 158.624356 
L 324.95108 158.624356 
L 324.95108 149.97062 
L 325.965625 149.97062 
L 325.965625 161.829444 
L 326.98017 161.829444 
L 326.98017 162.470461 
L 327.994716 162.470461 
L 327.994716 162.149952 
L 329.009261 162.149952 
L 329.009261 164.714022 
L 330.023807 164.714022 
L 330.023807 158.303847 
L 331.038352 158.303847 
L 331.038352 178.17539 
L 332.052898 178.17539 
L 332.052898 179.136916 
L 333.067443 179.136916 
L 333.067443 176.572846 
L 334.081989 176.572846 
L 334.081989 177.213863 
L 335.096534 177.213863 
L 335.096534 173.04725 
L 336.11108 173.04725 
L 336.11108 177.854881 
L 337.125625 177.854881 
L 337.125625 182.021494 
L 338.14017 182.021494 
L 338.14017 180.739459 
L 339.154716 180.739459 
L 339.154716 187.149634 
L 340.169261 187.149634 
L 340.169261 184.906073 
L 341.183807 184.906073 
L 341.183807 191.636757 
L 342.198352 191.636757 
L 342.198352 195.80337 
L 343.212898 195.80337 
L 343.212898 194.841844 
L 344.227443 194.841844 
L 344.227443 191.316248 
L 345.241989 191.316248 
L 345.241989 192.918792 
L 346.256534 192.918792 
L 346.256534 198.046932 
L 347.27108 198.046932 
L 347.27108 201.572528 
L 348.285625 201.572528 
L 348.285625 205.098124 
L 350.314716 205.098124 
L 350.314716 206.05965 
L 351.329261 206.05965 
L 351.329261 205.739141 
L 352.343807 205.739141 
L 352.343807 209.585246 
L 353.358352 209.585246 
L 353.358352 213.431351 
L 354.372898 213.431351 
L 354.372898 210.546773 
L 355.387443 210.546773 
L 355.387443 214.713386 
L 356.401989 214.713386 
L 356.401989 213.75186 
L 357.416534 213.75186 
L 357.416534 215.033895 
L 358.43108 215.033895 
L 358.43108 216.31593 
L 359.445625 216.31593 
L 359.445625 215.674913 
L 360.46017 215.674913 
L 360.46017 216.31593 
L 361.474716 216.31593 
L 361.474716 216.956948 
L 362.489261 216.956948 
L 362.489261 216.636439 
L 363.503807 216.636439 
L 363.503807 218.238983 
L 364.518352 218.238983 
L 364.518352 218.559491 
L 365.532898 218.559491 
L 365.532898 218.88 
L 366.547443 218.88 
L 366.547443 218.88 
" clip-path="url(#pa1dd86ba23)" style="fill: none; stroke: #ff7f0e; stroke-width: 1.5; stroke-linecap: square"/>
   </g>
   <g id="patch_3">
    <path d="M 46.965625 228.96 
L 46.965625 7.2 
" style="fill: none; stroke: #000000; stroke-width: 0.8; stroke-linejoin: miter; stroke-linecap: square"/>
   </g>
   <g id="patch_4">
    <path d="M 381.765625 228.96 
L 381.765625 7.2 
" style="fill: none; stroke: #000000; stroke-width: 0.8; stroke-linejoin: miter; stroke-linecap: square"/>
   </g>
   <g id="patch_5">
    <path d="M 46.965625 228.96 
L 381.765625 228.96 
" style="fill: none; stroke: #000000; stroke-width: 0.8; stroke-linejoin: miter; stroke-linecap: square"/>
   </g>
   <g id="patch_6">
    <path d="M 46.965625 7.2 
L 381.765625 7.2 
" style="fill: none; stroke: #000000; stroke-width: 0.8; stroke-linejoin: miter; stroke-linecap: square"/>
   </g>
   <g id="legend_1">
    <g id="patch_7">
     <path d="M 305.3875 44.55625 
L 374.765625 44.55625 
Q 376.765625 44.55625 376.765625 42.55625 
L 376.765625 14.2 
Q 376.765625 12.2 374.765625 12.2 
L 305.3875 12.2 
Q 303.3875 12.2 303.3875 14.2 
L 303.3875 42.55625 
Q 303.3875 44.55625 305.3875 44.55625 
z
" style="fill: #ffffff; opacity: 0.8; stroke: #cccccc; stroke-linejoin: miter"/>
    </g>
    <g id="line2d_18">
     <path d="M 307.3875 20.298438 
L 307.3875 20.298438 
L 317.3875 20.298438 
L 317.3875 20.298438 
L 327.3875 20.298438 
" style="fill: none; stroke: #1f77b4; stroke-width: 1.5; stroke-linecap: square"/>
    </g>
    <g id="text_18">
     <!-- wfm -->
     <g transform="translate(335.3875 23.798438) scale(0.1 -0.1)">
      <defs>
       <path id="DejaVuSans-66" d="M 2375 4863 
L 2375 4384 
L 1825 4384 
Q 1516 4384 1395 4259 
Q 1275 4134 1275 3809 
L 1275 3500 
L 2222 3500 
L 2222 3053 
L 1275 3053 
L 1275 0 
L 697 0 
L 697 3053 
L 147 3053 
L 147 3500 
L 697 3500 
L 697 3744 
Q 697 4328 969 4595 
Q 1241 4863 1831 4863 
L 2375 4863 
z
" transform="scale(0.015625)"/>
       <path id="DejaVuSans-6d" d="M 3328 2828 
Q 3544 3216 3844 3400 
Q 4144 3584 4550 3584 
Q 5097 3584 5394 3201 
Q 5691 2819 5691 2113 
L 5691 0 
L 5113 0 
L 5113 2094 
Q 5113 2597 4934 2840 
Q 4756 3084 4391 3084 
Q 3944 3084 3684 2787 
Q 3425 2491 3425 1978 
L 3425 0 
L 2847 0 
L 2847 2094 
Q 2847 2600 2669 2842 
Q 2491 3084 2119 3084 
Q 1678 3084 1418 2786 
Q 1159 2488 1159 1978 
L 1159 0 
L 581 0 
L 581 3500 
L 1159 3500 
L 1159 2956 
Q 1356 3278 1631 3431 
Q 1906 3584 2284 3584 
Q 2666 3584 2933 3390 
Q 3200 3197 3328 2828 
z
" transform="scale(0.015625)"/>
      </defs>
      <use xlink:href="#DejaVuSans-77"/>
      <use xlink:href="#DejaVuSans-66" transform="translate(81.787109 0)"/>
      <use xlink:href="#DejaVuSans-6d" transform="translate(116.992188 0)"/>
     </g>
    </g>
    <g id="line2d_19">
     <path d="M 307.3875 34.976562 
L 307.3875 34.976562 
L 317.3875 34.976562 
L 317.3875 34.976562 
L 327.3875 34.976562 
" style="fill: none; stroke: #ff7f0e; stroke-width: 1.5; stroke-linecap: square"/>
    </g>
    <g id="text_19">
     <!-- original -->
     <g transform="translate(335.3875 38.476562) scale(0.1 -0.1)">
      <defs>
       <path id="DejaVuSans-72" d="M 2631 2963 
Q 2534 3019 2420 3045 
Q 2306 3072 2169 3072 
Q 1681 3072 1420 2755 
Q 1159 2438 1159 1844 
L 1159 0 
L 581 0 
L 581 3500 
L 1159 3500 
L 1159 2956 
Q 1341 3275 1631 3429 
Q 1922 3584 2338 3584 
Q 2397 3584 2469 3576 
Q 2541 3569 2628 3553 
L 2631 2963 
z
" transform="scale(0.015625)"/>
       <path id="DejaVuSans-69" d="M 603 3500 
L 1178 3500 
L 1178 0 
L 603 0 
L 603 3500 
z
M 603 4863 
L 1178 4863 
L 1178 4134 
L 603 4134 
L 603 4863 
z
" transform="scale(0.015625)"/>
      </defs>
      <use xlink:href="#DejaVuSans-6f"/>
      <use xlink:href="#DejaVuSans-72" transform="translate(61.181641 0)"/>
      <use xlink:href="#DejaVuSans-69" transform="translate(102.294922 0)"/>
      <use xlink:href="#DejaVuSans-67" transform="translate(130.078125 0)"/>
      <use xlink:href="#DejaVuSans-69" transform="translate(193.554688 0)"/>
      <use xlink:href="#DejaVuSans-6e" transform="translate(221.337891 0)"/>
      <use xlink:href="#DejaVuSans-61" transform="translate(284.716797 0)"/>
      <use xlink:href="#DejaVuSans-6c" transform="translate(345.996094 0)"/>
     </g>
    </g>
   </g>
  </g>
 </g>
 <defs>
  <clipPath id="pa1dd86ba23">
   <rect x="46.965625" y="7.2" width="334.8" height="221.76"/>
  </clipPath>
 </defs>
</svg>
