<?xml version="1.0" encoding="utf-8" standalone="no"?>
<!DOCTYPE svg PUBLIC "-//W3C//DTD SVG 1.1//EN"
  "http://www.w3.org/Graphics/SVG/1.1/DTD/svg11.dtd">
<svg xmlns:xlink="http://www.w3.org/1999/xlink" width="388.965625pt" height="271.261548pt" viewBox="0 0 388.965625 271.261548" xmlns="http://www.w3.org/2000/svg" version="1.1">
 <metadata>
  <rdf:RDF xmlns:dc="http://purl.org/dc/elements/1.1/" xmlns:cc="http://creativecommons.org/ns#" xmlns:rdf="http://www.w3.org/1999/02/22-rdf-syntax-ns#">
   <cc:Work>
    <dc:type rdf:resource="http://purl.org/dc/dcmitype/StillImage"/>
    <dc:date>2025-10-10T17:28:34.929323</dc:date>
    <dc:format>image/svg+xml</dc:format>
    <dc:creator>
     <cc:Agent>
      <dc:title>Matplotlib v3.10.6, https://matplotlib.org/</dc:title>
     </cc:Agent>
    </dc:creator>
   </cc:Work>
  </rdf:RDF>
 </metadata>
 <defs>
  <style type="text/css">*{stroke-linejoin: round; stroke-linecap: butt}</style>
 </defs>
 <g id="figure_1">
  <g id="patch_1">
   <path d="M 0 271.261548 
L 388.965625 271.261548 
L 388.965625 0 
L 0 0 
z
" style="fill: #ffffff"/>
  </g>
  <g id="axes_1">
   <g id="patch_2">
    <path d="M 46.965625 232.020923 
L 381.765625 232.020923 
L 381.765625 10.260923 
L 46.965625 10.260923 
z
" style="fill: #ffffff"/>
   </g>
   <g id="matplotlib.axis_1">
    <g id="xtick_1">
     <g id="line2d_1">
      <defs>
       <path id="mbf78a15f20" d="M 0 0 
L 0 3.5 
" style="stroke: #000000; stroke-width: 0.8"/>
      </defs>
      <g>
       <use xlink:href="#mbf78a15f20" x="70.427023" y="232.020923" style="stroke: #000000; stroke-width: 0.8"/>
      </g>
     </g>
     <g id="text_1">
      <!-- 1.0 -->
      <g transform="translate(62.475461 246.61936) scale(0.1 -0.1)">
       <defs>
        <path id="DejaVuSans-31" d="M 794 531 
L 1825 531 
L 1825 4091 
L 703 3866 
L 703 4441 
L 1819 4666 
L 2450 4666 
L 2450 531 
L 3481 531 
L 3481 0 
L 794 0 
L 794 531 
z
" transform="scale(0.015625)"/>
        <path id="DejaVuSans-2e" d="M 684 794 
L 1344 794 
L 1344 0 
L 684 0 
L 684 794 
z
" transform="scale(0.015625)"/>
        <path id="DejaVuSans-30" d="M 2034 4250 
Q 1547 4250 1301 3770 
Q 1056 3291 1056 2328 
Q 1056 1369 1301 889 
Q 1547 409 2034 409 
Q 2525 409 2770 889 
Q 3016 1369 3016 2328 
Q 3016 3291 2770 3770 
Q 2525 4250 2034 4250 
z
M 2034 4750 
Q 2819 4750 3233 4129 
Q 3647 3509 3647 2328 
Q 3647 1150 3233 529 
Q 2819 -91 2034 -91 
Q 1250 -91 836 529 
Q 422 1150 422 2328 
Q 422 3509 836 4129 
Q 1250 4750 2034 4750 
z
" transform="scale(0.015625)"/>
       </defs>
       <use xlink:href="#DejaVuSans-31"/>
       <use xlink:href="#DejaVuSans-2e" transform="translate(63.623047 0)"/>
       <use xlink:href="#DejaVuSans-30" transform="translate(95.410156 0)"/>
      </g>
     </g>
    </g>
    <g id="xtick_2">
     <g id="line2d_2">
      <g>
       <use xlink:href="#mbf78a15f20" x="112.589577" y="232.020923" style="stroke: #000000; stroke-width: 0.8"/>
      </g>
     </g>
     <g id="text_2">
      <!-- 1.5 -->
      <g transform="translate(104.638015 246.61936) scale(0.1 -0.1)">
       <defs>
        <path id="DejaVuSans-35" d="M 691 4666 
L 3169 4666 
L 3169 4134 
L 1269 4134 
L 1269 2991 
Q 1406 3038 1543 3061 
Q 1681 3084 1819 3084 
Q 2600 3084 3056 2656 
Q 3513 2228 3513 1497 
Q 3513 744 3044 326 
Q 2575 -91 1722 -91 
Q 1428 -91 1123 -41 
Q 819 9 494 109 
L 494 744 
Q 775 591 1075 516 
Q 1375 441 1709 441 
Q 2250 441 2565 725 
Q 2881 1009 2881 1497 
Q 2881 1984 2565 2268 
Q 2250 2553 1709 2553 
Q 1456 2553 1204 2497 
Q 953 2441 691 2322 
L 691 4666 
z
" transform="scale(0.015625)"/>
       </defs>
       <use xlink:href="#DejaVuSans-31"/>
       <use xlink:href="#DejaVuSans-2e" transform="translate(63.623047 0)"/>
       <use xlink:href="#DejaVuSans-35" transform="translate(95.410156 0)"/>
      </g>
     </g>
    </g>
    <g id="xtick_3">
     <g id="line2d_3">
      <g>
       <use xlink:href="#mbf78a15f20" x="154.752131" y="232.020923" style="stroke: #000000; stroke-width: 0.8"/>
      </g>
     </g>
     <g id="text_3">
      <!-- 2.0 -->
      <g transform="translate(146.800569 246.61936) scale(0.1 -0.1)">
       <defs>
        <path id="DejaVuSans-32" d="M 1228 531 
L 3431 531 
L 3431 0 
L 469 0 
L 469 531 
Q 828 903 1448 1529 
Q 2069 2156 2228 2338 
Q 2531 2678 2651 2914 
Q 2772 3150 2772 3378 
Q 2772 3750 2511 3984 
Q 2250 4219 1831 4219 
Q 1534 4219 1204 4116 
Q 875 4013 500 3803 
L 500 4441 
Q 881 4594 1212 4672 
Q 1544 4750 1819 4750 
Q 2544 4750 2975 4387 
Q 3406 4025 3406 3419 
Q 3406 3131 3298 2873 
Q 3191 2616 2906 2266 
Q 2828 2175 2409 1742 
Q 1991 1309 1228 531 
z
" transform="scale(0.015625)"/>
       </defs>
       <use xlink:href="#DejaVuSans-32"/>
       <use xlink:href="#DejaVuSans-2e" transform="translate(63.623047 0)"/>
       <use xlink:href="#DejaVuSans-30" transform="translate(95.410156 0)"/>
      </g>
     </g>
    </g>
    <g id="xtick_4">
     <g id="line2d_4">
      <g>
       <use xlink:href="#mbf78a15f20" x="196.914685" y="232.020923" style="stroke: #000000; stroke-width: 0.8"/>
      </g>
     </g>
     <g id="text_4">
      <!-- 2.5 -->
      <g transform="translate(188.963123 246.61936) scale(0.1 -0.1)">
       <use xlink:href="#DejaVuSans-32"/>
       <use xlink:href="#DejaVuSans-2e" transform="translate(63.623047 0)"/>
       <use xlink:href="#DejaVuSans-35" transform="translate(95.410156 0)"/>
      </g>
     </g>
    </g>
    <g id="xtick_5">
     <g id="line2d_5">
      <g>
       <use xlink:href="#mbf78a15f20" x="239.077239" y="232.020923" style="stroke: #000000; stroke-width: 0.8"/>
      </g>
     </g>
     <g id="text_5">
      <!-- 3.0 -->
      <g transform="translate(231.125677 246.61936) scale(0.1 -0.1)">
       <defs>
        <path id="DejaVuSans-33" d="M 2597 2516 
Q 3050 2419 3304 2112 
Q 3559 1806 3559 1356 
Q 3559 666 3084 287 
Q 2609 -91 1734 -91 
Q 1441 -91 1130 -33 
Q 819 25 488 141 
L 488 750 
Q 750 597 1062 519 
Q 1375 441 1716 441 
Q 2309 441 2620 675 
Q 2931 909 2931 1356 
Q 2931 1769 2642 2001 
Q 2353 2234 1838 2234 
L 1294 2234 
L 1294 2753 
L 1863 2753 
Q 2328 2753 2575 2939 
Q 2822 3125 2822 3475 
Q 2822 3834 2567 4026 
Q 2313 4219 1838 4219 
Q 1578 4219 1281 4162 
Q 984 4106 628 3988 
L 628 4550 
Q 988 4650 1302 4700 
Q 1616 4750 1894 4750 
Q 2613 4750 3031 4423 
Q 3450 4097 3450 3541 
Q 3450 3153 3228 2886 
Q 3006 2619 2597 2516 
z
" transform="scale(0.015625)"/>
       </defs>
       <use xlink:href="#DejaVuSans-33"/>
       <use xlink:href="#DejaVuSans-2e" transform="translate(63.623047 0)"/>
       <use xlink:href="#DejaVuSans-30" transform="translate(95.410156 0)"/>
      </g>
     </g>
    </g>
    <g id="xtick_6">
     <g id="line2d_6">
      <g>
       <use xlink:href="#mbf78a15f20" x="281.239794" y="232.020923" style="stroke: #000000; stroke-width: 0.8"/>
      </g>
     </g>
     <g id="text_6">
      <!-- 3.5 -->
      <g transform="translate(273.288231 246.61936) scale(0.1 -0.1)">
       <use xlink:href="#DejaVuSans-33"/>
       <use xlink:href="#DejaVuSans-2e" transform="translate(63.623047 0)"/>
       <use xlink:href="#DejaVuSans-35" transform="translate(95.410156 0)"/>
      </g>
     </g>
    </g>
    <g id="xtick_7">
     <g id="line2d_7">
      <g>
       <use xlink:href="#mbf78a15f20" x="323.402348" y="232.020923" style="stroke: #000000; stroke-width: 0.8"/>
      </g>
     </g>
     <g id="text_7">
      <!-- 4.0 -->
      <g transform="translate(315.450785 246.61936) scale(0.1 -0.1)">
       <defs>
        <path id="DejaVuSans-34" d="M 2419 4116 
L 825 1625 
L 2419 1625 
L 2419 4116 
z
M 2253 4666 
L 3047 4666 
L 3047 1625 
L 3713 1625 
L 3713 1100 
L 3047 1100 
L 3047 0 
L 2419 0 
L 2419 1100 
L 313 1100 
L 313 1709 
L 2253 4666 
z
" transform="scale(0.015625)"/>
       </defs>
       <use xlink:href="#DejaVuSans-34"/>
       <use xlink:href="#DejaVuSans-2e" transform="translate(63.623047 0)"/>
       <use xlink:href="#DejaVuSans-30" transform="translate(95.410156 0)"/>
      </g>
     </g>
    </g>
    <g id="xtick_8">
     <g id="line2d_8">
      <g>
       <use xlink:href="#mbf78a15f20" x="365.564902" y="232.020923" style="stroke: #000000; stroke-width: 0.8"/>
      </g>
     </g>
     <g id="text_8">
      <!-- 4.5 -->
      <g transform="translate(357.613339 246.61936) scale(0.1 -0.1)">
       <use xlink:href="#DejaVuSans-34"/>
       <use xlink:href="#DejaVuSans-2e" transform="translate(63.623047 0)"/>
       <use xlink:href="#DejaVuSans-35" transform="translate(95.410156 0)"/>
      </g>
     </g>
    </g>
    <g id="text_9">
     <!-- wavelength [Å] -->
     <g transform="translate(176.328125 261.98186) scale(0.1 -0.1)">
      <defs>
       <path id="DejaVuSans-77" d="M 269 3500 
L 844 3500 
L 1563 769 
L 2278 3500 
L 2956 3500 
L 3675 769 
L 4391 3500 
L 4966 3500 
L 4050 0 
L 3372 0 
L 2619 2869 
L 1863 0 
L 1184 0 
L 269 3500 
z
" transform="scale(0.015625)"/>
       <path id="DejaVuSans-61" d="M 2194 1759 
Q 1497 1759 1228 1600 
Q 959 1441 959 1056 
Q 959 750 1161 570 
Q 1363 391 1709 391 
Q 2188 391 2477 730 
Q 2766 1069 2766 1631 
L 2766 1759 
L 2194 1759 
z
M 3341 1997 
L 3341 0 
L 2766 0 
L 2766 531 
Q 2569 213 2275 61 
Q 1981 -91 1556 -91 
Q 1019 -91 701 211 
Q 384 513 384 1019 
Q 384 1609 779 1909 
Q 1175 2209 1959 2209 
L 2766 2209 
L 2766 2266 
Q 2766 2663 2505 2880 
Q 2244 3097 1772 3097 
Q 1472 3097 1187 3025 
Q 903 2953 641 2809 
L 641 3341 
Q 956 3463 1253 3523 
Q 1550 3584 1831 3584 
Q 2591 3584 2966 3190 
Q 3341 2797 3341 1997 
z
" transform="scale(0.015625)"/>
       <path id="DejaVuSans-76" d="M 191 3500 
L 800 3500 
L 1894 563 
L 2988 3500 
L 3597 3500 
L 2284 0 
L 1503 0 
L 191 3500 
z
" transform="scale(0.015625)"/>
       <path id="DejaVuSans-65" d="M 3597 1894 
L 3597 1613 
L 953 1613 
Q 991 1019 1311 708 
Q 1631 397 2203 397 
Q 2534 397 2845 478 
Q 3156 559 3463 722 
L 3463 178 
Q 3153 47 2828 -22 
Q 2503 -91 2169 -91 
Q 1331 -91 842 396 
Q 353 884 353 1716 
Q 353 2575 817 3079 
Q 1281 3584 2069 3584 
Q 2775 3584 3186 3129 
Q 3597 2675 3597 1894 
z
M 3022 2063 
Q 3016 2534 2758 2815 
Q 2500 3097 2075 3097 
Q 1594 3097 1305 2825 
Q 1016 2553 972 2059 
L 3022 2063 
z
" transform="scale(0.015625)"/>
       <path id="DejaVuSans-6c" d="M 603 4863 
L 1178 4863 
L 1178 0 
L 603 0 
L 603 4863 
z
" transform="scale(0.015625)"/>
       <path id="DejaVuSans-6e" d="M 3513 2113 
L 3513 0 
L 2938 0 
L 2938 2094 
Q 2938 2591 2744 2837 
Q 2550 3084 2163 3084 
Q 1697 3084 1428 2787 
Q 1159 2491 1159 1978 
L 1159 0 
L 581 0 
L 581 3500 
L 1159 3500 
L 1159 2956 
Q 1366 3272 1645 3428 
Q 1925 3584 2291 3584 
Q 2894 3584 3203 3211 
Q 3513 2838 3513 2113 
z
" transform="scale(0.015625)"/>
       <path id="DejaVuSans-67" d="M 2906 1791 
Q 2906 2416 2648 2759 
Q 2391 3103 1925 3103 
Q 1463 3103 1205 2759 
Q 947 2416 947 1791 
Q 947 1169 1205 825 
Q 1463 481 1925 481 
Q 2391 481 2648 825 
Q 2906 1169 2906 1791 
z
M 3481 434 
Q 3481 -459 3084 -895 
Q 2688 -1331 1869 -1331 
Q 1566 -1331 1297 -1286 
Q 1028 -1241 775 -1147 
L 775 -588 
Q 1028 -725 1275 -790 
Q 1522 -856 1778 -856 
Q 2344 -856 2625 -561 
Q 2906 -266 2906 331 
L 2906 616 
Q 2728 306 2450 153 
Q 2172 0 1784 0 
Q 1141 0 747 490 
Q 353 981 353 1791 
Q 353 2603 747 3093 
Q 1141 3584 1784 3584 
Q 2172 3584 2450 3431 
Q 2728 3278 2906 2969 
L 2906 3500 
L 3481 3500 
L 3481 434 
z
" transform="scale(0.015625)"/>
       <path id="DejaVuSans-74" d="M 1172 4494 
L 1172 3500 
L 2356 3500 
L 2356 3053 
L 1172 3053 
L 1172 1153 
Q 1172 725 1289 603 
Q 1406 481 1766 481 
L 2356 481 
L 2356 0 
L 1766 0 
Q 1100 0 847 248 
Q 594 497 594 1153 
L 594 3053 
L 172 3053 
L 172 3500 
L 594 3500 
L 594 4494 
L 1172 4494 
z
" transform="scale(0.015625)"/>
       <path id="DejaVuSans-68" d="M 3513 2113 
L 3513 0 
L 2938 0 
L 2938 2094 
Q 2938 2591 2744 2837 
Q 2550 3084 2163 3084 
Q 1697 3084 1428 2787 
Q 1159 2491 1159 1978 
L 1159 0 
L 581 0 
L 581 4863 
L 1159 4863 
L 1159 2956 
Q 1366 3272 1645 3428 
Q 1925 3584 2291 3584 
Q 2894 3584 3203 3211 
Q 3513 2838 3513 2113 
z
" transform="scale(0.015625)"/>
       <path id="DejaVuSans-20" transform="scale(0.015625)"/>
       <path id="DejaVuSans-5b" d="M 550 4863 
L 1875 4863 
L 1875 4416 
L 1125 4416 
L 1125 -397 
L 1875 -397 
L 1875 -844 
L 550 -844 
L 550 4863 
z
" transform="scale(0.015625)"/>
       <path id="DejaVuSans-c5" d="M 2663 5081 
Q 2663 5278 2523 5417 
Q 2384 5556 2188 5556 
Q 1988 5556 1852 5420 
Q 1716 5284 1716 5081 
Q 1716 4884 1853 4746 
Q 1991 4609 2188 4609 
Q 2384 4609 2523 4746 
Q 2663 4884 2663 5081 
z
M 2188 4044 
L 1338 1722 
L 3041 1722 
L 2188 4044 
z
M 1716 4366 
Q 1525 4494 1428 4673 
Q 1331 4853 1331 5081 
Q 1331 5441 1579 5691 
Q 1828 5941 2188 5941 
Q 2544 5941 2795 5689 
Q 3047 5438 3047 5081 
Q 3047 4863 2948 4678 
Q 2850 4494 2663 4366 
L 4325 0 
L 3669 0 
L 3244 1197 
L 1141 1197 
L 716 0 
L 50 0 
L 1716 4366 
z
" transform="scale(0.015625)"/>
       <path id="DejaVuSans-5d" d="M 1947 4863 
L 1947 -844 
L 622 -844 
L 622 -397 
L 1369 -397 
L 1369 4416 
L 622 4416 
L 622 4863 
L 1947 4863 
z
" transform="scale(0.015625)"/>
      </defs>
      <use xlink:href="#DejaVuSans-77"/>
      <use xlink:href="#DejaVuSans-61" transform="translate(81.787109 0)"/>
      <use xlink:href="#DejaVuSans-76" transform="translate(143.066406 0)"/>
      <use xlink:href="#DejaVuSans-65" transform="translate(202.246094 0)"/>
      <use xlink:href="#DejaVuSans-6c" transform="translate(263.769531 0)"/>
      <use xlink:href="#DejaVuSans-65" transform="translate(291.552734 0)"/>
      <use xlink:href="#DejaVuSans-6e" transform="translate(353.076172 0)"/>
      <use xlink:href="#DejaVuSans-67" transform="translate(416.455078 0)"/>
      <use xlink:href="#DejaVuSans-74" transform="translate(479.931641 0)"/>
      <use xlink:href="#DejaVuSans-68" transform="translate(519.140625 0)"/>
      <use xlink:href="#DejaVuSans-20" transform="translate(582.519531 0)"/>
      <use xlink:href="#DejaVuSans-5b" transform="translate(614.306641 0)"/>
      <use xlink:href="#DejaVuSans-c5" transform="translate(653.320312 0)"/>
      <use xlink:href="#DejaVuSans-5d" transform="translate(721.728516 0)"/>
     </g>
    </g>
   </g>
   <g id="matplotlib.axis_2">
    <g id="ytick_1">
     <g id="line2d_9">
      <defs>
       <path id="m558be21d59" d="M 0 0 
L -3.5 0 
" style="stroke: #000000; stroke-width: 0.8"/>
      </defs>
      <g>
       <use xlink:href="#m558be21d59" x="46.965625" y="221.940923" style="stroke: #000000; stroke-width: 0.8"/>
      </g>
     </g>
     <g id="text_10">
      <!-- 0 -->
      <g transform="translate(33.603125 225.740142) scale(0.1 -0.1)">
       <use xlink:href="#DejaVuSans-30"/>
      </g>
     </g>
    </g>
    <g id="ytick_2">
     <g id="line2d_10">
      <g>
       <use xlink:href="#m558be21d59" x="46.965625" y="191.806394" style="stroke: #000000; stroke-width: 0.8"/>
      </g>
     </g>
     <g id="text_11">
      <!-- 100 -->
      <g transform="translate(20.878125 195.605612) scale(0.1 -0.1)">
       <use xlink:href="#DejaVuSans-31"/>
       <use xlink:href="#DejaVuSans-30" transform="translate(63.623047 0)"/>
       <use xlink:href="#DejaVuSans-30" transform="translate(127.246094 0)"/>
      </g>
     </g>
    </g>
    <g id="ytick_3">
     <g id="line2d_11">
      <g>
       <use xlink:href="#m558be21d59" x="46.965625" y="161.671864" style="stroke: #000000; stroke-width: 0.8"/>
      </g>
     </g>
     <g id="text_12">
      <!-- 200 -->
      <g transform="translate(20.878125 165.471083) scale(0.1 -0.1)">
       <use xlink:href="#DejaVuSans-32"/>
       <use xlink:href="#DejaVuSans-30" transform="translate(63.623047 0)"/>
       <use xlink:href="#DejaVuSans-30" transform="translate(127.246094 0)"/>
      </g>
     </g>
    </g>
    <g id="ytick_4">
     <g id="line2d_12">
      <g>
       <use xlink:href="#m558be21d59" x="46.965625" y="131.537335" style="stroke: #000000; stroke-width: 0.8"/>
      </g>
     </g>
     <g id="text_13">
      <!-- 300 -->
      <g transform="translate(20.878125 135.336554) scale(0.1 -0.1)">
       <use xlink:href="#DejaVuSans-33"/>
       <use xlink:href="#DejaVuSans-30" transform="translate(63.623047 0)"/>
       <use xlink:href="#DejaVuSans-30" transform="translate(127.246094 0)"/>
      </g>
     </g>
    </g>
    <g id="ytick_5">
     <g id="line2d_13">
      <g>
       <use xlink:href="#m558be21d59" x="46.965625" y="101.402806" style="stroke: #000000; stroke-width: 0.8"/>
      </g>
     </g>
     <g id="text_14">
      <!-- 400 -->
      <g transform="translate(20.878125 105.202025) scale(0.1 -0.1)">
       <use xlink:href="#DejaVuSans-34"/>
       <use xlink:href="#DejaVuSans-30" transform="translate(63.623047 0)"/>
       <use xlink:href="#DejaVuSans-30" transform="translate(127.246094 0)"/>
      </g>
     </g>
    </g>
    <g id="ytick_6">
     <g id="line2d_14">
      <g>
       <use xlink:href="#m558be21d59" x="46.965625" y="71.268277" style="stroke: #000000; stroke-width: 0.8"/>
      </g>
     </g>
     <g id="text_15">
      <!-- 500 -->
      <g transform="translate(20.878125 75.067496) scale(0.1 -0.1)">
       <use xlink:href="#DejaVuSans-35"/>
       <use xlink:href="#DejaVuSans-30" transform="translate(63.623047 0)"/>
       <use xlink:href="#DejaVuSans-30" transform="translate(127.246094 0)"/>
      </g>
     </g>
    </g>
    <g id="ytick_7">
     <g id="line2d_15">
      <g>
       <use xlink:href="#m558be21d59" x="46.965625" y="41.133748" style="stroke: #000000; stroke-width: 0.8"/>
      </g>
     </g>
     <g id="text_16">
      <!-- 600 -->
      <g transform="translate(20.878125 44.932967) scale(0.1 -0.1)">
       <defs>
        <path id="DejaVuSans-36" d="M 2113 2584 
Q 1688 2584 1439 2293 
Q 1191 2003 1191 1497 
Q 1191 994 1439 701 
Q 1688 409 2113 409 
Q 2538 409 2786 701 
Q 3034 994 3034 1497 
Q 3034 2003 2786 2293 
Q 2538 2584 2113 2584 
z
M 3366 4563 
L 3366 3988 
Q 3128 4100 2886 4159 
Q 2644 4219 2406 4219 
Q 1781 4219 1451 3797 
Q 1122 3375 1075 2522 
Q 1259 2794 1537 2939 
Q 1816 3084 2150 3084 
Q 2853 3084 3261 2657 
Q 3669 2231 3669 1497 
Q 3669 778 3244 343 
Q 2819 -91 2113 -91 
Q 1303 -91 875 529 
Q 447 1150 447 2328 
Q 447 3434 972 4092 
Q 1497 4750 2381 4750 
Q 2619 4750 2861 4703 
Q 3103 4656 3366 4563 
z
" transform="scale(0.015625)"/>
       </defs>
       <use xlink:href="#DejaVuSans-36"/>
       <use xlink:href="#DejaVuSans-30" transform="translate(63.623047 0)"/>
       <use xlink:href="#DejaVuSans-30" transform="translate(127.246094 0)"/>
      </g>
     </g>
    </g>
    <g id="ytick_8">
     <g id="line2d_16">
      <g>
       <use xlink:href="#m558be21d59" x="46.965625" y="10.999219" style="stroke: #000000; stroke-width: 0.8"/>
      </g>
     </g>
     <g id="text_17">
      <!-- 700 -->
      <g transform="translate(20.878125 14.798437) scale(0.1 -0.1)">
       <defs>
        <path id="DejaVuSans-37" d="M 525 4666 
L 3525 4666 
L 3525 4397 
L 1831 0 
L 1172 0 
L 2766 4134 
L 525 4134 
L 525 4666 
z
" transform="scale(0.015625)"/>
       </defs>
       <use xlink:href="#DejaVuSans-37"/>
       <use xlink:href="#DejaVuSans-30" transform="translate(63.623047 0)"/>
       <use xlink:href="#DejaVuSans-30" transform="translate(127.246094 0)"/>
      </g>
     </g>
    </g>
    <g id="text_18">
     <!-- [counts] -->
     <g transform="translate(14.798438 141.753423) rotate(-90) scale(0.1 -0.1)">
      <defs>
       <path id="DejaVuSans-63" d="M 3122 3366 
L 3122 2828 
Q 2878 2963 2633 3030 
Q 2388 3097 2138 3097 
Q 1578 3097 1268 2742 
Q 959 2388 959 1747 
Q 959 1106 1268 751 
Q 1578 397 2138 397 
Q 2388 397 2633 464 
Q 2878 531 3122 666 
L 3122 134 
Q 2881 22 2623 -34 
Q 2366 -91 2075 -91 
Q 1284 -91 818 406 
Q 353 903 353 1747 
Q 353 2603 823 3093 
Q 1294 3584 2113 3584 
Q 2378 3584 2631 3529 
Q 2884 3475 3122 3366 
z
" transform="scale(0.015625)"/>
       <path id="DejaVuSans-6f" d="M 1959 3097 
Q 1497 3097 1228 2736 
Q 959 2375 959 1747 
Q 959 1119 1226 758 
Q 1494 397 1959 397 
Q 2419 397 2687 759 
Q 2956 1122 2956 1747 
Q 2956 2369 2687 2733 
Q 2419 3097 1959 3097 
z
M 1959 3584 
Q 2709 3584 3137 3096 
Q 3566 2609 3566 1747 
Q 3566 888 3137 398 
Q 2709 -91 1959 -91 
Q 1206 -91 779 398 
Q 353 888 353 1747 
Q 353 2609 779 3096 
Q 1206 3584 1959 3584 
z
" transform="scale(0.015625)"/>
       <path id="DejaVuSans-75" d="M 544 1381 
L 544 3500 
L 1119 3500 
L 1119 1403 
Q 1119 906 1312 657 
Q 1506 409 1894 409 
Q 2359 409 2629 706 
Q 2900 1003 2900 1516 
L 2900 3500 
L 3475 3500 
L 3475 0 
L 2900 0 
L 2900 538 
Q 2691 219 2414 64 
Q 2138 -91 1772 -91 
Q 1169 -91 856 284 
Q 544 659 544 1381 
z
M 1991 3584 
L 1991 3584 
z
" transform="scale(0.015625)"/>
       <path id="DejaVuSans-73" d="M 2834 3397 
L 2834 2853 
Q 2591 2978 2328 3040 
Q 2066 3103 1784 3103 
Q 1356 3103 1142 2972 
Q 928 2841 928 2578 
Q 928 2378 1081 2264 
Q 1234 2150 1697 2047 
L 1894 2003 
Q 2506 1872 2764 1633 
Q 3022 1394 3022 966 
Q 3022 478 2636 193 
Q 2250 -91 1575 -91 
Q 1294 -91 989 -36 
Q 684 19 347 128 
L 347 722 
Q 666 556 975 473 
Q 1284 391 1588 391 
Q 1994 391 2212 530 
Q 2431 669 2431 922 
Q 2431 1156 2273 1281 
Q 2116 1406 1581 1522 
L 1381 1569 
Q 847 1681 609 1914 
Q 372 2147 372 2553 
Q 372 3047 722 3315 
Q 1072 3584 1716 3584 
Q 2034 3584 2315 3537 
Q 2597 3491 2834 3397 
z
" transform="scale(0.015625)"/>
      </defs>
      <use xlink:href="#DejaVuSans-5b"/>
      <use xlink:href="#DejaVuSans-63" transform="translate(39.013672 0)"/>
      <use xlink:href="#DejaVuSans-6f" transform="translate(93.994141 0)"/>
      <use xlink:href="#DejaVuSans-75" transform="translate(155.175781 0)"/>
      <use xlink:href="#DejaVuSans-6e" transform="translate(218.554688 0)"/>
      <use xlink:href="#DejaVuSans-74" transform="translate(281.933594 0)"/>
      <use xlink:href="#DejaVuSans-73" transform="translate(321.142578 0)"/>
      <use xlink:href="#DejaVuSans-5d" transform="translate(373.242188 0)"/>
     </g>
    </g>
   </g>
   <g id="line2d_17">
    <path d="M 62.926816 219.228815 
L 63.938318 219.228815 
L 63.938318 210.489802 
L 64.949821 210.489802 
L 64.949821 203.257515 
L 65.961323 203.257515 
L 65.961323 208.079039 
L 66.972825 208.079039 
L 66.972825 197.230609 
L 67.984327 197.230609 
L 67.984327 191.806394 
L 68.995829 191.806394 
L 68.995829 186.984869 
L 70.007332 186.984869 
L 70.007332 183.368725 
L 71.018834 183.368725 
L 71.018834 179.752582 
L 72.030336 179.752582 
L 72.030336 175.533748 
L 73.041838 175.533748 
L 73.041838 171.013569 
L 74.05334 171.013569 
L 74.05334 159.261102 
L 75.064843 159.261102 
L 75.064843 158.959757 
L 76.076345 158.959757 
L 76.076345 149.919398 
L 77.087847 149.919398 
L 77.087847 155.946304 
L 78.099349 155.946304 
L 78.099349 150.823434 
L 79.110851 150.823434 
L 79.110851 142.988456 
L 80.122354 142.988456 
L 80.122354 135.153479 
L 81.133856 135.153479 
L 81.133856 139.372313 
L 82.145358 139.372313 
L 82.145358 133.345407 
L 83.15686 133.345407 
L 83.15686 131.838681 
L 84.168362 131.838681 
L 84.168362 121.894286 
L 85.179865 121.894286 
L 85.179865 107.429712 
L 86.191367 107.429712 
L 86.191367 110.443165 
L 87.202869 110.443165 
L 87.202869 107.731057 
L 88.214371 107.731057 
L 88.214371 98.992044 
L 89.225873 98.992044 
L 89.225873 101.704151 
L 90.237376 101.704151 
L 90.237376 104.114914 
L 91.248878 104.114914 
L 91.248878 95.978591 
L 92.26038 95.978591 
L 92.26038 87.239577 
L 93.271882 87.239577 
L 93.271882 76.692492 
L 94.283384 76.692492 
L 94.283384 70.062896 
L 95.294887 70.062896 
L 95.294887 89.65034 
L 96.306389 89.65034 
L 96.306389 69.761551 
L 97.317891 69.761551 
L 97.317891 58.91312 
L 98.329393 58.91312 
L 98.329393 73.679039 
L 99.340895 73.679039 
L 99.340895 82.719398 
L 100.352398 82.719398 
L 100.352398 59.817156 
L 101.3639 59.817156 
L 101.3639 35.408187 
L 102.375402 35.408187 
L 102.375402 64.638681 
L 103.386904 64.638681 
L 103.386904 47.763344 
L 104.398406 47.763344 
L 104.398406 62.227918 
L 105.409909 62.227918 
L 105.409909 65.844062 
L 106.421411 65.844062 
L 106.421411 40.832403 
L 107.432913 40.832403 
L 107.432913 36.010878 
L 108.444415 36.010878 
L 108.444415 41.736438 
L 109.455917 41.736438 
L 109.455917 49.872761 
L 110.46742 49.872761 
L 110.46742 38.722986 
L 111.478922 38.722986 
L 111.478922 20.340923 
L 112.490424 20.340923 
L 112.490424 33.29877 
L 113.501926 33.29877 
L 113.501926 35.408187 
L 114.513428 35.408187 
L 114.513428 31.792044 
L 115.524931 31.792044 
L 115.524931 55.296977 
L 116.536433 55.296977 
L 116.536433 32.394734 
L 117.547935 32.394734 
L 117.547935 50.776797 
L 118.559437 50.776797 
L 118.559437 49.270071 
L 119.570939 49.270071 
L 119.570939 29.381282 
L 120.582442 29.381282 
L 120.582442 48.66738 
L 121.593944 48.66738 
L 121.593944 63.734645 
L 122.605446 63.734645 
L 122.605446 45.653927 
L 123.616948 45.653927 
L 123.616948 29.079936 
L 124.62845 29.079936 
L 124.62845 61.022537 
L 125.639953 61.022537 
L 125.639953 65.542717 
L 126.651455 65.542717 
L 126.651455 53.488905 
L 127.662957 53.488905 
L 127.662957 63.433299 
L 128.674459 63.433299 
L 128.674459 67.652134 
L 129.685961 67.652134 
L 129.685961 57.707739 
L 130.697464 57.707739 
L 130.697464 56.201012 
L 131.708966 56.201012 
L 131.708966 59.214465 
L 132.720468 59.214465 
L 132.720468 71.870968 
L 133.73197 71.870968 
L 133.73197 57.406394 
L 134.743472 57.406394 
L 134.743472 67.953479 
L 135.754974 67.953479 
L 135.754974 78.801909 
L 136.766477 78.801909 
L 136.766477 64.03599 
L 137.777979 64.03599 
L 137.777979 65.241371 
L 138.789481 65.241371 
L 138.789481 66.145407 
L 139.800983 66.145407 
L 139.800983 63.433299 
L 140.812485 63.433299 
L 140.812485 70.966932 
L 141.823988 70.966932 
L 141.823988 71.870968 
L 142.83549 71.870968 
L 142.83549 71.569622 
L 143.846992 71.569622 
L 143.846992 74.28173 
L 144.858494 74.28173 
L 144.858494 64.337335 
L 145.869996 64.337335 
L 145.869996 63.734645 
L 146.881499 63.734645 
L 146.881499 68.556169 
L 147.893001 68.556169 
L 147.893001 79.4046 
L 148.904503 79.4046 
L 148.904503 66.446752 
L 149.916005 66.446752 
L 149.916005 74.28173 
L 150.927507 74.28173 
L 150.927507 65.542717 
L 151.93901 65.542717 
L 151.93901 94.471864 
L 152.950512 94.471864 
L 152.950512 71.870968 
L 153.962014 71.870968 
L 153.962014 81.514017 
L 154.973516 81.514017 
L 154.973516 67.953479 
L 155.985018 67.953479 
L 155.985018 70.665586 
L 156.996521 70.665586 
L 156.996521 86.636887 
L 158.008023 86.636887 
L 158.008023 81.815362 
L 159.019525 81.815362 
L 159.019525 75.487111 
L 160.031027 75.487111 
L 160.031027 85.431506 
L 161.042529 85.431506 
L 161.042529 78.801909 
L 162.054032 78.801909 
L 162.054032 93.266483 
L 163.065534 93.266483 
L 163.065534 69.761551 
L 164.077036 69.761551 
L 164.077036 73.377694 
L 165.088538 73.377694 
L 165.088538 78.500564 
L 166.10004 78.500564 
L 166.10004 85.732851 
L 167.111543 85.732851 
L 167.111543 72.473658 
L 168.123045 72.473658 
L 168.123045 92.965138 
L 169.134547 92.965138 
L 169.134547 79.103255 
L 170.146049 79.103255 
L 170.146049 83.322089 
L 171.157551 83.322089 
L 171.157551 98.992044 
L 172.169054 98.992044 
L 172.169054 84.52747 
L 173.180556 84.52747 
L 173.180556 91.759757 
L 174.192058 91.759757 
L 174.192058 90.25303 
L 175.20356 90.25303 
L 175.20356 81.815362 
L 176.215062 81.815362 
L 176.215062 90.25303 
L 178.238067 90.25303 
L 178.238067 95.978591 
L 179.249569 95.978591 
L 179.249569 98.088008 
L 180.261071 98.088008 
L 180.261071 105.01895 
L 181.272573 105.01895 
L 181.272573 114.963344 
L 182.284076 114.963344 
L 182.284076 119.784869 
L 183.295578 119.784869 
L 183.295578 120.086214 
L 184.30708 120.086214 
L 184.30708 119.483524 
L 185.318582 119.483524 
L 185.318582 119.784869 
L 186.330084 119.784869 
L 186.330084 123.401012 
L 187.341587 123.401012 
L 187.341587 133.345407 
L 188.353089 133.345407 
L 188.353089 145.399219 
L 189.364591 145.399219 
L 189.364591 150.823434 
L 190.376093 150.823434 
L 190.376093 151.124779 
L 191.387595 151.124779 
L 191.387595 149.618053 
L 192.399098 149.618053 
L 192.399098 153.535542 
L 193.4106 153.535542 
L 193.4106 168.000116 
L 194.422102 168.000116 
L 194.422102 167.09608 
L 195.433604 167.09608 
L 195.433604 175.533748 
L 196.445106 175.533748 
L 196.445106 179.752582 
L 197.456609 179.752582 
L 197.456609 180.957963 
L 198.468111 180.957963 
L 198.468111 183.368725 
L 199.479613 183.368725 
L 199.479613 186.984869 
L 200.491115 186.984869 
L 200.491115 196.627918 
L 201.502617 196.627918 
L 201.502617 197.833299 
L 202.51412 197.833299 
L 202.51412 200.545407 
L 203.525622 200.545407 
L 203.525622 206.873658 
L 204.537124 206.873658 
L 204.537124 202.956169 
L 205.548626 202.956169 
L 205.548626 209.284421 
L 206.560128 209.284421 
L 206.560128 216.215362 
L 207.57163 216.215362 
L 207.57163 216.516708 
L 208.583133 216.516708 
L 208.583133 215.311326 
L 209.594635 215.311326 
L 209.594635 215.009981 
L 210.606137 215.009981 
L 210.606137 219.831506 
L 211.617639 219.831506 
L 211.617639 220.434196 
L 212.629141 220.434196 
L 212.629141 215.009981 
L 213.640644 215.009981 
L 213.640644 215.612672 
L 214.652146 215.612672 
L 214.652146 205.668277 
L 215.663648 205.668277 
L 215.663648 203.860205 
L 216.67515 203.860205 
L 216.67515 201.449443 
L 217.686652 201.449443 
L 217.686652 197.833299 
L 218.698155 197.833299 
L 218.698155 197.531954 
L 219.709657 197.531954 
L 219.709657 184.875452 
L 220.721159 184.875452 
L 220.721159 189.395631 
L 221.732661 189.395631 
L 221.732661 177.34182 
L 222.744163 177.34182 
L 222.744163 183.971416 
L 223.755666 183.971416 
L 223.755666 168.602806 
L 224.767168 168.602806 
L 224.767168 173.122986 
L 225.77867 173.122986 
L 225.77867 166.493389 
L 226.790172 166.493389 
L 226.790172 166.794734 
L 227.801674 166.794734 
L 227.801674 164.685317 
L 228.813177 164.685317 
L 228.813177 161.069174 
L 229.824679 161.069174 
L 229.824679 166.794734 
L 230.836181 166.794734 
L 230.836181 155.343613 
L 231.847683 155.343613 
L 231.847683 149.316708 
L 232.859185 149.316708 
L 232.859185 154.138232 
L 233.870688 154.138232 
L 233.870688 145.399219 
L 234.88219 145.399219 
L 234.88219 136.961551 
L 235.893692 136.961551 
L 235.893692 146.303255 
L 236.905194 146.303255 
L 236.905194 139.975004 
L 237.916696 139.975004 
L 237.916696 130.030609 
L 238.928199 130.030609 
L 238.928199 139.673658 
L 239.939701 139.673658 
L 239.939701 137.564241 
L 240.951203 137.564241 
L 240.951203 130.934645 
L 241.962705 130.934645 
L 241.962705 127.017156 
L 242.974207 127.017156 
L 242.974207 117.675452 
L 243.98571 117.675452 
L 243.98571 128.523882 
L 244.997212 128.523882 
L 244.997212 121.894286 
L 246.008714 121.894286 
L 246.008714 119.784869 
L 247.020216 119.784869 
L 247.020216 114.360654 
L 248.031718 114.360654 
L 248.031718 113.757963 
L 249.043221 113.757963 
L 249.043221 117.072761 
L 250.054723 117.072761 
L 250.054723 121.592941 
L 251.066225 121.592941 
L 251.066225 112.853927 
L 252.077727 112.853927 
L 252.077727 96.882627 
L 253.089229 96.882627 
L 253.089229 95.677246 
L 254.100732 95.677246 
L 254.100732 125.811775 
L 255.112234 125.811775 
L 255.112234 106.827021 
L 256.123736 106.827021 
L 256.123736 107.429712 
L 257.135238 107.429712 
L 257.135238 105.320295 
L 258.14674 105.320295 
L 258.14674 114.059308 
L 259.158243 114.059308 
L 259.158243 91.157066 
L 260.169745 91.157066 
L 260.169745 105.922986 
L 261.181247 105.922986 
L 261.181247 86.636887 
L 262.192749 86.636887 
L 262.192749 92.061102 
L 263.204251 92.061102 
L 263.204251 88.444959 
L 264.215754 88.444959 
L 264.215754 84.226125 
L 265.227256 84.226125 
L 265.227256 95.978591 
L 266.238758 95.978591 
L 266.238758 103.813569 
L 267.25026 103.813569 
L 267.25026 109.840474 
L 268.261762 109.840474 
L 268.261762 110.14182 
L 269.273265 110.14182 
L 269.273265 111.949891 
L 270.284767 111.949891 
L 270.284767 105.01895 
L 271.296269 105.01895 
L 271.296269 108.032403 
L 272.307771 108.032403 
L 272.307771 105.320295 
L 273.319273 105.320295 
L 273.319273 98.992044 
L 274.330776 98.992044 
L 274.330776 122.798322 
L 275.342278 122.798322 
L 275.342278 100.800116 
L 276.35378 100.800116 
L 276.35378 113.757963 
L 277.365282 113.757963 
L 277.365282 110.74451 
L 278.376784 110.74451 
L 278.376784 125.811775 
L 279.388286 125.811775 
L 279.388286 124.305048 
L 280.399789 124.305048 
L 280.399789 118.579488 
L 281.411291 118.579488 
L 281.411291 123.702358 
L 282.422793 123.702358 
L 282.422793 117.976797 
L 283.434295 117.976797 
L 283.434295 123.401012 
L 284.445797 123.401012 
L 284.445797 130.934645 
L 285.4573 130.934645 
L 285.4573 119.182178 
L 286.468802 119.182178 
L 286.468802 125.811775 
L 287.480304 125.811775 
L 287.480304 121.592941 
L 288.491806 121.592941 
L 288.491806 123.401012 
L 289.503308 123.401012 
L 289.503308 129.729264 
L 290.514811 129.729264 
L 290.514811 122.195631 
L 291.526313 122.195631 
L 291.526313 128.825228 
L 292.537815 128.825228 
L 292.537815 134.550788 
L 293.549317 134.550788 
L 293.549317 117.976797 
L 294.560819 117.976797 
L 294.560819 141.48173 
L 295.572322 141.48173 
L 295.572322 135.153479 
L 296.583824 135.153479 
L 296.583824 133.345407 
L 297.595326 133.345407 
L 297.595326 138.769622 
L 298.606828 138.769622 
L 298.606828 129.126573 
L 299.61833 129.126573 
L 299.61833 140.276349 
L 300.629833 140.276349 
L 300.629833 140.577694 
L 301.641335 140.577694 
L 301.641335 146.6046 
L 302.652837 146.6046 
L 302.652837 134.249443 
L 303.664339 134.249443 
L 303.664339 136.961551 
L 304.675841 136.961551 
L 304.675841 136.057515 
L 305.687344 136.057515 
L 305.687344 148.412672 
L 306.698846 148.412672 
L 306.698846 144.796528 
L 307.710348 144.796528 
L 307.710348 138.769622 
L 308.72185 138.769622 
L 308.72185 146.6046 
L 309.733352 146.6046 
L 309.733352 149.919398 
L 310.744855 149.919398 
L 310.744855 144.193838 
L 311.756357 144.193838 
L 311.756357 146.905945 
L 312.767859 146.905945 
L 312.767859 153.535542 
L 313.779361 153.535542 
L 313.779361 155.343613 
L 314.790863 155.343613 
L 314.790863 146.303255 
L 315.802366 146.303255 
L 315.802366 158.959757 
L 316.813868 158.959757 
L 316.813868 163.479936 
L 317.82537 163.479936 
L 317.82537 150.220743 
L 318.836872 150.220743 
L 318.836872 153.234196 
L 319.848374 153.234196 
L 319.848374 160.466483 
L 320.859877 160.466483 
L 320.859877 158.357066 
L 321.871379 158.357066 
L 321.871379 157.754376 
L 322.882881 157.754376 
L 322.882881 161.370519 
L 323.894383 161.370519 
L 323.894383 159.562447 
L 324.905885 159.562447 
L 324.905885 159.261102 
L 325.917388 159.261102 
L 325.917388 174.027021 
L 326.92889 174.027021 
L 326.92889 175.835093 
L 327.940392 175.835093 
L 327.940392 162.877246 
L 328.951894 162.877246 
L 328.951894 169.808187 
L 329.963396 169.808187 
L 329.963396 174.931057 
L 330.974899 174.931057 
L 330.974899 177.643165 
L 331.986401 177.643165 
L 331.986401 171.917604 
L 332.997903 171.917604 
L 332.997903 171.616259 
L 334.009405 171.616259 
L 334.009405 180.957963 
L 335.020907 180.957963 
L 335.020907 185.176797 
L 336.03241 185.176797 
L 336.03241 180.053927 
L 337.043912 180.053927 
L 337.043912 184.875452 
L 338.055414 184.875452 
L 338.055414 183.368725 
L 339.066916 183.368725 
L 339.066916 192.409084 
L 340.078418 192.409084 
L 340.078418 191.505048 
L 341.089921 191.505048 
L 341.089921 197.833299 
L 342.101423 197.833299 
L 342.101423 196.025228 
L 343.112925 196.025228 
L 343.112925 194.217156 
L 344.124427 194.217156 
L 344.124427 199.942717 
L 345.135929 199.942717 
L 345.135929 202.956169 
L 346.147432 202.956169 
L 346.147432 203.860205 
L 347.158934 203.860205 
L 347.158934 199.942717 
L 348.170436 199.942717 
L 348.170436 205.969622 
L 349.181938 205.969622 
L 349.181938 208.983075 
L 350.19344 208.983075 
L 350.19344 209.887111 
L 351.204943 209.887111 
L 351.204943 211.092492 
L 352.216445 211.092492 
L 352.216445 212.297873 
L 353.227947 212.297873 
L 353.227947 211.996528 
L 354.239449 211.996528 
L 354.239449 213.503255 
L 355.250951 213.503255 
L 355.250951 215.612672 
L 356.262453 215.612672 
L 356.262453 213.503255 
L 357.273956 213.503255 
L 357.273956 218.023434 
L 358.285458 218.023434 
L 358.285458 215.612672 
L 359.29696 215.612672 
L 359.29696 219.831506 
L 360.308462 219.831506 
L 360.308462 220.735542 
L 361.319964 220.735542 
L 361.319964 220.132851 
L 362.331467 220.132851 
L 362.331467 221.940923 
L 363.342969 221.940923 
L 363.342969 221.036887 
L 364.354471 221.036887 
L 364.354471 221.940923 
L 365.365973 221.940923 
L 365.365973 221.639577 
L 366.377475 221.639577 
L 366.377475 221.639577 
" clip-path="url(#p2a75a6ab9e)" style="fill: none; stroke: #1f77b4; stroke-width: 1.5; stroke-linecap: square"/>
   </g>
   <g id="line2d_18">
    <path d="M 62.183807 219.53016 
L 63.198352 219.53016 
L 63.198352 216.215362 
L 64.212898 216.215362 
L 64.212898 208.68173 
L 65.227443 208.68173 
L 65.227443 204.161551 
L 66.241989 204.161551 
L 66.241989 206.873658 
L 67.256534 206.873658 
L 67.256534 193.614465 
L 68.27108 193.614465 
L 68.27108 189.395631 
L 69.285625 189.395631 
L 69.285625 189.696977 
L 70.30017 189.696977 
L 70.30017 177.94451 
L 71.314716 177.94451 
L 71.314716 176.437784 
L 72.329261 176.437784 
L 72.329261 177.040474 
L 73.343807 177.040474 
L 73.343807 167.09608 
L 74.358352 167.09608 
L 74.358352 159.863793 
L 75.372898 159.863793 
L 75.372898 154.439577 
L 76.387443 154.439577 
L 76.387443 153.234196 
L 77.401989 153.234196 
L 77.401989 150.823434 
L 78.416534 150.823434 
L 78.416534 151.72747 
L 79.43108 151.72747 
L 79.43108 137.865586 
L 80.445625 137.865586 
L 80.445625 140.276349 
L 81.46017 140.276349 
L 81.46017 136.057515 
L 82.474716 136.057515 
L 82.474716 128.222537 
L 83.489261 128.222537 
L 83.489261 132.742717 
L 84.503807 132.742717 
L 84.503807 118.278143 
L 85.518352 118.278143 
L 85.518352 109.237784 
L 86.532898 109.237784 
L 86.532898 105.922986 
L 87.547443 105.922986 
L 87.547443 102.909533 
L 88.561989 102.909533 
L 88.561989 99.89608 
L 89.576534 99.89608 
L 89.576534 102.909533 
L 90.59108 102.909533 
L 90.59108 100.800116 
L 91.605625 100.800116 
L 91.605625 97.183972 
L 92.62017 97.183972 
L 92.62017 77.295183 
L 93.634716 77.295183 
L 93.634716 74.28173 
L 94.649261 74.28173 
L 94.649261 80.00729 
L 95.663807 80.00729 
L 95.663807 77.897873 
L 96.678352 77.897873 
L 96.678352 60.118501 
L 97.692898 60.118501 
L 97.692898 73.980385 
L 98.707443 73.980385 
L 98.707443 70.966932 
L 99.721989 70.966932 
L 99.721989 69.460205 
L 100.736534 69.460205 
L 100.736534 52.584869 
L 103.78017 52.584869 
L 103.78017 58.611775 
L 104.794716 58.611775 
L 104.794716 60.419847 
L 105.809261 60.419847 
L 105.809261 40.229712 
L 106.823807 40.229712 
L 106.823807 41.133748 
L 107.838352 41.133748 
L 107.838352 50.475452 
L 108.852898 50.475452 
L 108.852898 42.339129 
L 109.867443 42.339129 
L 109.867443 35.408187 
L 110.881989 35.408187 
L 110.881989 38.42164 
L 111.896534 38.42164 
L 111.896534 33.901461 
L 112.91108 33.901461 
L 112.91108 29.381282 
L 113.925625 29.381282 
L 113.925625 30.888008 
L 114.94017 30.888008 
L 114.94017 49.872761 
L 115.954716 49.872761 
L 115.954716 36.312223 
L 116.969261 36.312223 
L 116.969261 39.325676 
L 117.983807 39.325676 
L 117.983807 50.475452 
L 118.998352 50.475452 
L 118.998352 38.722986 
L 120.012898 38.722986 
L 120.012898 46.256618 
L 122.041989 46.256618 
L 122.041989 53.488905 
L 123.056534 53.488905 
L 123.056534 43.243165 
L 124.07108 43.243165 
L 124.07108 41.736438 
L 125.085625 41.736438 
L 125.085625 61.926573 
L 126.10017 61.926573 
L 126.10017 65.844062 
L 127.114716 65.844062 
L 127.114716 52.886214 
L 128.129261 52.886214 
L 128.129261 61.625228 
L 129.143807 61.625228 
L 129.143807 64.03599 
L 131.172898 64.03599 
L 131.172898 51.982178 
L 132.187443 51.982178 
L 132.187443 59.515811 
L 133.201989 59.515811 
L 133.201989 66.748098 
L 134.216534 66.748098 
L 134.216534 72.473658 
L 135.23108 72.473658 
L 135.23108 62.529264 
L 136.245625 62.529264 
L 136.245625 65.844062 
L 137.26017 65.844062 
L 137.26017 70.364241 
L 138.274716 70.364241 
L 138.274716 64.03599 
L 139.289261 64.03599 
L 139.289261 63.734645 
L 140.303807 63.734645 
L 140.303807 69.460205 
L 141.318352 69.460205 
L 141.318352 73.377694 
L 142.332898 73.377694 
L 142.332898 67.049443 
L 143.347443 67.049443 
L 143.347443 74.28173 
L 144.361989 74.28173 
L 144.361989 66.446752 
L 145.376534 66.446752 
L 145.376534 65.844062 
L 146.39108 65.844062 
L 146.39108 69.761551 
L 147.405625 69.761551 
L 147.405625 69.460205 
L 148.42017 69.460205 
L 148.42017 69.15886 
L 149.434716 69.15886 
L 149.434716 72.473658 
L 150.449261 72.473658 
L 150.449261 71.569622 
L 151.463807 71.569622 
L 151.463807 73.076349 
L 152.478352 73.076349 
L 152.478352 78.801909 
L 153.492898 78.801909 
L 153.492898 76.692492 
L 154.507443 76.692492 
L 154.507443 80.00729 
L 155.521989 80.00729 
L 155.521989 75.487111 
L 156.536534 75.487111 
L 156.536534 74.884421 
L 157.55108 74.884421 
L 157.55108 83.020743 
L 158.565625 83.020743 
L 158.565625 81.815362 
L 159.58017 81.815362 
L 159.58017 76.089802 
L 160.594716 76.089802 
L 160.594716 85.13016 
L 161.609261 85.13016 
L 161.609261 77.897873 
L 162.623807 77.897873 
L 162.623807 80.308636 
L 163.638352 80.308636 
L 163.638352 77.295183 
L 165.667443 77.295183 
L 165.667443 79.705945 
L 166.681989 79.705945 
L 166.681989 80.609981 
L 167.696534 80.609981 
L 167.696534 78.199219 
L 168.71108 78.199219 
L 168.71108 83.322089 
L 169.725625 83.322089 
L 169.725625 82.719398 
L 170.74017 82.719398 
L 170.74017 98.088008 
L 171.754716 98.088008 
L 171.754716 80.00729 
L 172.769261 80.00729 
L 172.769261 91.157066 
L 173.783807 91.157066 
L 173.783807 89.951685 
L 174.798352 89.951685 
L 174.798352 86.034196 
L 175.812898 86.034196 
L 175.812898 88.143613 
L 176.827443 88.143613 
L 176.827443 91.458412 
L 177.841989 91.458412 
L 177.841989 99.594734 
L 178.856534 99.594734 
L 178.856534 95.677246 
L 179.87108 95.677246 
L 179.87108 98.992044 
L 180.885625 98.992044 
L 180.885625 111.045856 
L 181.90017 111.045856 
L 181.90017 119.784869 
L 182.914716 119.784869 
L 182.914716 115.86738 
L 183.929261 115.86738 
L 183.929261 116.771416 
L 184.943807 116.771416 
L 184.943807 119.483524 
L 185.958352 119.483524 
L 185.958352 128.825228 
L 186.972898 128.825228 
L 186.972898 125.209084 
L 187.987443 125.209084 
L 187.987443 139.070968 
L 189.001989 139.070968 
L 189.001989 153.836887 
L 190.016534 153.836887 
L 190.016534 147.20729 
L 191.03108 147.20729 
L 191.03108 148.714017 
L 192.045625 148.714017 
L 192.045625 155.946304 
L 193.06017 155.946304 
L 193.06017 158.357066 
L 194.074716 158.357066 
L 194.074716 169.808187 
L 195.089261 169.808187 
L 195.089261 170.109533 
L 196.103807 170.109533 
L 196.103807 177.94451 
L 197.118352 177.94451 
L 197.118352 182.46469 
L 198.132898 182.46469 
L 198.132898 181.861999 
L 199.147443 181.861999 
L 199.147443 188.19025 
L 200.161989 188.19025 
L 200.161989 191.203703 
L 201.176534 191.203703 
L 201.176534 196.627918 
L 202.19108 196.627918 
L 202.19108 201.750788 
L 204.22017 201.750788 
L 204.22017 202.052134 
L 205.234716 202.052134 
L 205.234716 209.887111 
L 206.249261 209.887111 
L 206.249261 213.201909 
L 207.263807 213.201909 
L 207.263807 216.818053 
L 208.278352 216.818053 
L 208.278352 215.612672 
L 209.292898 215.612672 
L 209.292898 214.105945 
L 210.307443 214.105945 
L 210.307443 218.626125 
L 211.321989 218.626125 
L 211.321989 220.132851 
L 212.336534 220.132851 
L 212.336534 216.516708 
L 213.35108 216.516708 
L 213.35108 214.105945 
L 214.365625 214.105945 
L 214.365625 208.380385 
L 215.38017 208.380385 
L 215.38017 203.55886 
L 216.394716 203.55886 
L 216.394716 202.353479 
L 217.409261 202.353479 
L 217.409261 200.846752 
L 218.423807 200.846752 
L 218.423807 195.121192 
L 219.438352 195.121192 
L 219.438352 188.792941 
L 220.452898 188.792941 
L 220.452898 186.683524 
L 221.467443 186.683524 
L 221.467443 183.06738 
L 222.481989 183.06738 
L 222.481989 181.560654 
L 223.496534 181.560654 
L 223.496534 173.424331 
L 224.51108 173.424331 
L 224.51108 170.712223 
L 225.525625 170.712223 
L 225.525625 168.301461 
L 226.54017 168.301461 
L 226.54017 162.5759 
L 227.554716 162.5759 
L 227.554716 165.589353 
L 228.569261 165.589353 
L 228.569261 161.97321 
L 229.583807 161.97321 
L 229.583807 163.781282 
L 230.598352 163.781282 
L 230.598352 160.165138 
L 231.612898 160.165138 
L 231.612898 147.508636 
L 232.627443 147.508636 
L 232.627443 153.836887 
L 233.641989 153.836887 
L 233.641989 154.138232 
L 234.656534 154.138232 
L 234.656534 135.454824 
L 235.67108 135.454824 
L 235.67108 146.001909 
L 236.685625 146.001909 
L 236.685625 138.769622 
L 237.70017 138.769622 
L 237.70017 130.633299 
L 238.714716 130.633299 
L 238.714716 137.262896 
L 239.729261 137.262896 
L 239.729261 139.975004 
L 240.743807 139.975004 
L 240.743807 127.619847 
L 241.758352 127.619847 
L 241.758352 125.51043 
L 242.772898 125.51043 
L 242.772898 125.811775 
L 243.787443 125.811775 
L 243.787443 122.798322 
L 244.801989 122.798322 
L 244.801989 121.291595 
L 246.83108 121.291595 
L 246.83108 118.278143 
L 247.845625 118.278143 
L 247.845625 112.251237 
L 248.86017 112.251237 
L 248.86017 114.059308 
L 249.874716 114.059308 
L 249.874716 122.798322 
L 250.889261 122.798322 
L 250.889261 116.771416 
L 251.903807 116.771416 
L 251.903807 91.458412 
L 252.918352 91.458412 
L 252.918352 104.416259 
L 253.932898 104.416259 
L 253.932898 112.251237 
L 254.947443 112.251237 
L 254.947443 108.635093 
L 255.961989 108.635093 
L 255.961989 113.757963 
L 256.976534 113.757963 
L 256.976534 103.210878 
L 257.99108 103.210878 
L 257.99108 105.320295 
L 259.005625 105.320295 
L 259.005625 108.936438 
L 260.02017 108.936438 
L 260.02017 89.951685 
L 261.034716 89.951685 
L 261.034716 89.65034 
L 262.049261 89.65034 
L 262.049261 96.279936 
L 263.063807 96.279936 
L 263.063807 90.855721 
L 264.078352 90.855721 
L 264.078352 84.226125 
L 265.092898 84.226125 
L 265.092898 98.389353 
L 266.107443 98.389353 
L 266.107443 103.210878 
L 267.121989 103.210878 
L 267.121989 100.49877 
L 268.136534 100.49877 
L 268.136534 110.443165 
L 269.15108 110.443165 
L 269.15108 103.813569 
L 270.165625 103.813569 
L 270.165625 117.374107 
L 271.18017 117.374107 
L 271.18017 105.01895 
L 272.194716 105.01895 
L 272.194716 99.594734 
L 273.209261 99.594734 
L 273.209261 109.237784 
L 274.223807 109.237784 
L 274.223807 110.14182 
L 275.238352 110.14182 
L 275.238352 109.237784 
L 276.252898 109.237784 
L 276.252898 107.128367 
L 277.267443 107.128367 
L 277.267443 115.566035 
L 278.281989 115.566035 
L 278.281989 124.305048 
L 279.296534 124.305048 
L 279.296534 119.182178 
L 280.31108 119.182178 
L 280.31108 117.675452 
L 281.325625 117.675452 
L 281.325625 129.729264 
L 282.34017 129.729264 
L 282.34017 116.771416 
L 283.354716 116.771416 
L 283.354716 125.209084 
L 284.369261 125.209084 
L 284.369261 128.825228 
L 285.383807 128.825228 
L 285.383807 123.099667 
L 286.398352 123.099667 
L 286.398352 117.675452 
L 287.412898 117.675452 
L 287.412898 122.798322 
L 288.427443 122.798322 
L 288.427443 122.496977 
L 289.441989 122.496977 
L 289.441989 133.345407 
L 290.456534 133.345407 
L 290.456534 122.496977 
L 291.47108 122.496977 
L 291.47108 127.921192 
L 292.485625 127.921192 
L 292.485625 127.318501 
L 293.50017 127.318501 
L 293.50017 125.51043 
L 294.514716 125.51043 
L 294.514716 133.345407 
L 295.529261 133.345407 
L 295.529261 139.070968 
L 296.543807 139.070968 
L 296.543807 135.454824 
L 297.558352 135.454824 
L 297.558352 131.838681 
L 298.572898 131.838681 
L 298.572898 130.633299 
L 299.587443 130.633299 
L 299.587443 142.687111 
L 300.601989 142.687111 
L 300.601989 138.166932 
L 301.616534 138.166932 
L 301.616534 146.6046 
L 302.63108 146.6046 
L 302.63108 138.769622 
L 303.645625 138.769622 
L 303.645625 135.454824 
L 304.66017 135.454824 
L 304.66017 134.852134 
L 305.674716 134.852134 
L 305.674716 149.618053 
L 306.689261 149.618053 
L 306.689261 138.769622 
L 307.703807 138.769622 
L 307.703807 145.700564 
L 308.718352 145.700564 
L 308.718352 141.48173 
L 309.732898 141.48173 
L 309.732898 146.6046 
L 310.747443 146.6046 
L 310.747443 148.111326 
L 311.761989 148.111326 
L 311.761989 146.905945 
L 312.776534 146.905945 
L 312.776534 150.823434 
L 313.79108 150.823434 
L 313.79108 151.426125 
L 314.805625 151.426125 
L 314.805625 157.151685 
L 315.82017 157.151685 
L 315.82017 158.357066 
L 316.834716 158.357066 
L 316.834716 149.316708 
L 317.849261 149.316708 
L 317.849261 161.069174 
L 318.863807 161.069174 
L 318.863807 153.535542 
L 319.878352 153.535542 
L 319.878352 158.357066 
L 320.892898 158.357066 
L 320.892898 156.247649 
L 321.907443 156.247649 
L 321.907443 162.274555 
L 322.921989 162.274555 
L 322.921989 153.234196 
L 323.936534 153.234196 
L 323.936534 165.288008 
L 324.95108 165.288008 
L 324.95108 162.274555 
L 325.965625 162.274555 
L 325.965625 166.192044 
L 326.98017 166.192044 
L 326.98017 174.931057 
L 327.994716 174.931057 
L 327.994716 171.616259 
L 329.009261 171.616259 
L 329.009261 166.493389 
L 330.023807 166.493389 
L 330.023807 172.520295 
L 331.038352 172.520295 
L 331.038352 178.547201 
L 332.052898 178.547201 
L 332.052898 173.122986 
L 333.067443 173.122986 
L 333.067443 171.013569 
L 334.081989 171.013569 
L 334.081989 180.656618 
L 335.096534 180.656618 
L 335.096534 184.272761 
L 336.11108 184.272761 
L 336.11108 182.163344 
L 337.125625 182.163344 
L 337.125625 181.861999 
L 338.14017 181.861999 
L 338.14017 188.19025 
L 339.154716 188.19025 
L 339.154716 187.888905 
L 340.169261 187.888905 
L 340.169261 194.819847 
L 341.183807 194.819847 
L 341.183807 195.422537 
L 342.198352 195.422537 
L 342.198352 198.737335 
L 343.212898 198.737335 
L 343.212898 192.71043 
L 344.227443 192.71043 
L 344.227443 200.545407 
L 345.241989 200.545407 
L 345.241989 201.750788 
L 346.256534 201.750788 
L 346.256534 203.860205 
L 347.27108 203.860205 
L 347.27108 200.846752 
L 348.285625 200.846752 
L 348.285625 206.572313 
L 349.30017 206.572313 
L 349.30017 207.777694 
L 350.314716 207.777694 
L 350.314716 212.297873 
L 351.329261 212.297873 
L 351.329261 209.887111 
L 352.343807 209.887111 
L 352.343807 212.297873 
L 353.358352 212.297873 
L 353.358352 211.393838 
L 354.372898 211.393838 
L 354.372898 214.708636 
L 355.387443 214.708636 
L 355.387443 215.009981 
L 356.401989 215.009981 
L 356.401989 214.708636 
L 357.416534 214.708636 
L 357.416534 215.914017 
L 358.43108 215.914017 
L 358.43108 217.119398 
L 359.445625 217.119398 
L 359.445625 220.132851 
L 360.46017 220.132851 
L 360.46017 219.831506 
L 361.474716 219.831506 
L 361.474716 220.735542 
L 362.489261 220.735542 
L 362.489261 221.639577 
L 363.503807 221.639577 
L 363.503807 221.338232 
L 364.518352 221.338232 
L 364.518352 221.036887 
L 365.532898 221.036887 
L 365.532898 221.639577 
L 366.547443 221.639577 
L 366.547443 221.639577 
" clip-path="url(#p2a75a6ab9e)" style="fill: none; stroke: #ff7f0e; stroke-width: 1.5; stroke-linecap: square"/>
   </g>
   <g id="patch_3">
    <path d="M 46.965625 232.020923 
L 46.965625 10.260923 
" style="fill: none; stroke: #000000; stroke-width: 0.8; stroke-linejoin: miter; stroke-linecap: square"/>
   </g>
   <g id="patch_4">
    <path d="M 381.765625 232.020923 
L 381.765625 10.260923 
" style="fill: none; stroke: #000000; stroke-width: 0.8; stroke-linejoin: miter; stroke-linecap: square"/>
   </g>
   <g id="patch_5">
    <path d="M 46.965625 232.020923 
L 381.765625 232.020923 
" style="fill: none; stroke: #000000; stroke-width: 0.8; stroke-linejoin: miter; stroke-linecap: square"/>
   </g>
   <g id="patch_6">
    <path d="M 46.965625 10.260923 
L 381.765625 10.260923 
" style="fill: none; stroke: #000000; stroke-width: 0.8; stroke-linejoin: miter; stroke-linecap: square"/>
   </g>
   <g id="legend_1">
    <g id="patch_7">
     <path d="M 305.3875 47.617173 
L 374.765625 47.617173 
Q 376.765625 47.617173 376.765625 45.617173 
L 376.765625 17.260923 
Q 376.765625 15.260923 374.765625 15.260923 
L 305.3875 15.260923 
Q 303.3875 15.260923 303.3875 17.260923 
L 303.3875 45.617173 
Q 303.3875 47.617173 305.3875 47.617173 
z
" style="fill: #ffffff; opacity: 0.8; stroke: #cccccc; stroke-linejoin: miter"/>
    </g>
    <g id="line2d_19">
     <path d="M 307.3875 23.35936 
L 307.3875 23.35936 
L 317.3875 23.35936 
L 317.3875 23.35936 
L 327.3875 23.35936 
" style="fill: none; stroke: #1f77b4; stroke-width: 1.5; stroke-linecap: square"/>
    </g>
    <g id="text_19">
     <!-- wfm -->
     <g transform="translate(335.3875 26.85936) scale(0.1 -0.1)">
      <defs>
       <path id="DejaVuSans-66" d="M 2375 4863 
L 2375 4384 
L 1825 4384 
Q 1516 4384 1395 4259 
Q 1275 4134 1275 3809 
L 1275 3500 
L 2222 3500 
L 2222 3053 
L 1275 3053 
L 1275 0 
L 697 0 
L 697 3053 
L 147 3053 
L 147 3500 
L 697 3500 
L 697 3744 
Q 697 4328 969 4595 
Q 1241 4863 1831 4863 
L 2375 4863 
z
" transform="scale(0.015625)"/>
       <path id="DejaVuSans-6d" d="M 3328 2828 
Q 3544 3216 3844 3400 
Q 4144 3584 4550 3584 
Q 5097 3584 5394 3201 
Q 5691 2819 5691 2113 
L 5691 0 
L 5113 0 
L 5113 2094 
Q 5113 2597 4934 2840 
Q 4756 3084 4391 3084 
Q 3944 3084 3684 2787 
Q 3425 2491 3425 1978 
L 3425 0 
L 2847 0 
L 2847 2094 
Q 2847 2600 2669 2842 
Q 2491 3084 2119 3084 
Q 1678 3084 1418 2786 
Q 1159 2488 1159 1978 
L 1159 0 
L 581 0 
L 581 3500 
L 1159 3500 
L 1159 2956 
Q 1356 3278 1631 3431 
Q 1906 3584 2284 3584 
Q 2666 3584 2933 3390 
Q 3200 3197 3328 2828 
z
" transform="scale(0.015625)"/>
      </defs>
      <use xlink:href="#DejaVuSans-77"/>
      <use xlink:href="#DejaVuSans-66" transform="translate(81.787109 0)"/>
      <use xlink:href="#DejaVuSans-6d" transform="translate(116.992188 0)"/>
     </g>
    </g>
    <g id="line2d_20">
     <path d="M 307.3875 38.037485 
L 307.3875 38.037485 
L 317.3875 38.037485 
L 317.3875 38.037485 
L 327.3875 38.037485 
" style="fill: none; stroke: #ff7f0e; stroke-width: 1.5; stroke-linecap: square"/>
    </g>
    <g id="text_20">
     <!-- original -->
     <g transform="translate(335.3875 41.537485) scale(0.1 -0.1)">
      <defs>
       <path id="DejaVuSans-72" d="M 2631 2963 
Q 2534 3019 2420 3045 
Q 2306 3072 2169 3072 
Q 1681 3072 1420 2755 
Q 1159 2438 1159 1844 
L 1159 0 
L 581 0 
L 581 3500 
L 1159 3500 
L 1159 2956 
Q 1341 3275 1631 3429 
Q 1922 3584 2338 3584 
Q 2397 3584 2469 3576 
Q 2541 3569 2628 3553 
L 2631 2963 
z
" transform="scale(0.015625)"/>
       <path id="DejaVuSans-69" d="M 603 3500 
L 1178 3500 
L 1178 0 
L 603 0 
L 603 3500 
z
M 603 4863 
L 1178 4863 
L 1178 4134 
L 603 4134 
L 603 4863 
z
" transform="scale(0.015625)"/>
      </defs>
      <use xlink:href="#DejaVuSans-6f"/>
      <use xlink:href="#DejaVuSans-72" transform="translate(61.181641 0)"/>
      <use xlink:href="#DejaVuSans-69" transform="translate(102.294922 0)"/>
      <use xlink:href="#DejaVuSans-67" transform="translate(130.078125 0)"/>
      <use xlink:href="#DejaVuSans-69" transform="translate(193.554688 0)"/>
      <use xlink:href="#DejaVuSans-6e" transform="translate(221.337891 0)"/>
      <use xlink:href="#DejaVuSans-61" transform="translate(284.716797 0)"/>
      <use xlink:href="#DejaVuSans-6c" transform="translate(345.996094 0)"/>
     </g>
    </g>
   </g>
  </g>
 </g>
 <defs>
  <clipPath id="p2a75a6ab9e">
   <rect x="46.965625" y="10.260923" width="334.8" height="221.76"/>
  </clipPath>
 </defs>
</svg>
