<?xml version="1.0" encoding="utf-8" standalone="no"?>
<!DOCTYPE svg PUBLIC "-//W3C//DTD SVG 1.1//EN"
  "http://www.w3.org/Graphics/SVG/1.1/DTD/svg11.dtd">
<svg xmlns:xlink="http://www.w3.org/1999/xlink" width="388.965625pt" height="268.200625pt" viewBox="0 0 388.965625 268.200625" xmlns="http://www.w3.org/2000/svg" version="1.1">
 <metadata>
  <rdf:RDF xmlns:dc="http://purl.org/dc/elements/1.1/" xmlns:cc="http://creativecommons.org/ns#" xmlns:rdf="http://www.w3.org/1999/02/22-rdf-syntax-ns#">
   <cc:Work>
    <dc:type rdf:resource="http://purl.org/dc/dcmitype/StillImage"/>
    <dc:date>2025-04-29T09:31:53.530172</dc:date>
    <dc:format>image/svg+xml</dc:format>
    <dc:creator>
     <cc:Agent>
      <dc:title>Matplotlib v3.10.1, https://matplotlib.org/</dc:title>
     </cc:Agent>
    </dc:creator>
   </cc:Work>
  </rdf:RDF>
 </metadata>
 <defs>
  <style type="text/css">*{stroke-linejoin: round; stroke-linecap: butt}</style>
 </defs>
 <g id="figure_1">
  <g id="patch_1">
   <path d="M 0 268.200625 
L 388.965625 268.200625 
L 388.965625 0 
L 0 0 
z
" style="fill: #ffffff"/>
  </g>
  <g id="axes_1">
   <g id="patch_2">
    <path d="M 46.965625 228.96 
L 381.765625 228.96 
L 381.765625 7.2 
L 46.965625 7.2 
z
" style="fill: #ffffff"/>
   </g>
   <g id="matplotlib.axis_1">
    <g id="xtick_1">
     <g id="line2d_1">
      <defs>
       <path id="m79e05364b7" d="M 0 0 
L 0 3.5 
" style="stroke: #000000; stroke-width: 0.8"/>
      </defs>
      <g>
       <use xlink:href="#m79e05364b7" x="70.377635" y="228.96" style="stroke: #000000; stroke-width: 0.8"/>
      </g>
     </g>
     <g id="text_1">
      <!-- 1.0 -->
      <g transform="translate(62.426073 243.558437) scale(0.1 -0.1)">
       <defs>
        <path id="DejaVuSans-31" d="M 794 531 
L 1825 531 
L 1825 4091 
L 703 3866 
L 703 4441 
L 1819 4666 
L 2450 4666 
L 2450 531 
L 3481 531 
L 3481 0 
L 794 0 
L 794 531 
z
" transform="scale(0.015625)"/>
        <path id="DejaVuSans-2e" d="M 684 794 
L 1344 794 
L 1344 0 
L 684 0 
L 684 794 
z
" transform="scale(0.015625)"/>
        <path id="DejaVuSans-30" d="M 2034 4250 
Q 1547 4250 1301 3770 
Q 1056 3291 1056 2328 
Q 1056 1369 1301 889 
Q 1547 409 2034 409 
Q 2525 409 2770 889 
Q 3016 1369 3016 2328 
Q 3016 3291 2770 3770 
Q 2525 4250 2034 4250 
z
M 2034 4750 
Q 2819 4750 3233 4129 
Q 3647 3509 3647 2328 
Q 3647 1150 3233 529 
Q 2819 -91 2034 -91 
Q 1250 -91 836 529 
Q 422 1150 422 2328 
Q 422 3509 836 4129 
Q 1250 4750 2034 4750 
z
" transform="scale(0.015625)"/>
       </defs>
       <use xlink:href="#DejaVuSans-31"/>
       <use xlink:href="#DejaVuSans-2e" transform="translate(63.623047 0)"/>
       <use xlink:href="#DejaVuSans-30" transform="translate(95.410156 0)"/>
      </g>
     </g>
    </g>
    <g id="xtick_2">
     <g id="line2d_2">
      <g>
       <use xlink:href="#m79e05364b7" x="112.603324" y="228.96" style="stroke: #000000; stroke-width: 0.8"/>
      </g>
     </g>
     <g id="text_2">
      <!-- 1.5 -->
      <g transform="translate(104.651762 243.558437) scale(0.1 -0.1)">
       <defs>
        <path id="DejaVuSans-35" d="M 691 4666 
L 3169 4666 
L 3169 4134 
L 1269 4134 
L 1269 2991 
Q 1406 3038 1543 3061 
Q 1681 3084 1819 3084 
Q 2600 3084 3056 2656 
Q 3513 2228 3513 1497 
Q 3513 744 3044 326 
Q 2575 -91 1722 -91 
Q 1428 -91 1123 -41 
Q 819 9 494 109 
L 494 744 
Q 775 591 1075 516 
Q 1375 441 1709 441 
Q 2250 441 2565 725 
Q 2881 1009 2881 1497 
Q 2881 1984 2565 2268 
Q 2250 2553 1709 2553 
Q 1456 2553 1204 2497 
Q 953 2441 691 2322 
L 691 4666 
z
" transform="scale(0.015625)"/>
       </defs>
       <use xlink:href="#DejaVuSans-31"/>
       <use xlink:href="#DejaVuSans-2e" transform="translate(63.623047 0)"/>
       <use xlink:href="#DejaVuSans-35" transform="translate(95.410156 0)"/>
      </g>
     </g>
    </g>
    <g id="xtick_3">
     <g id="line2d_3">
      <g>
       <use xlink:href="#m79e05364b7" x="154.829013" y="228.96" style="stroke: #000000; stroke-width: 0.8"/>
      </g>
     </g>
     <g id="text_3">
      <!-- 2.0 -->
      <g transform="translate(146.877451 243.558437) scale(0.1 -0.1)">
       <defs>
        <path id="DejaVuSans-32" d="M 1228 531 
L 3431 531 
L 3431 0 
L 469 0 
L 469 531 
Q 828 903 1448 1529 
Q 2069 2156 2228 2338 
Q 2531 2678 2651 2914 
Q 2772 3150 2772 3378 
Q 2772 3750 2511 3984 
Q 2250 4219 1831 4219 
Q 1534 4219 1204 4116 
Q 875 4013 500 3803 
L 500 4441 
Q 881 4594 1212 4672 
Q 1544 4750 1819 4750 
Q 2544 4750 2975 4387 
Q 3406 4025 3406 3419 
Q 3406 3131 3298 2873 
Q 3191 2616 2906 2266 
Q 2828 2175 2409 1742 
Q 1991 1309 1228 531 
z
" transform="scale(0.015625)"/>
       </defs>
       <use xlink:href="#DejaVuSans-32"/>
       <use xlink:href="#DejaVuSans-2e" transform="translate(63.623047 0)"/>
       <use xlink:href="#DejaVuSans-30" transform="translate(95.410156 0)"/>
      </g>
     </g>
    </g>
    <g id="xtick_4">
     <g id="line2d_4">
      <g>
       <use xlink:href="#m79e05364b7" x="197.054702" y="228.96" style="stroke: #000000; stroke-width: 0.8"/>
      </g>
     </g>
     <g id="text_4">
      <!-- 2.5 -->
      <g transform="translate(189.10314 243.558437) scale(0.1 -0.1)">
       <use xlink:href="#DejaVuSans-32"/>
       <use xlink:href="#DejaVuSans-2e" transform="translate(63.623047 0)"/>
       <use xlink:href="#DejaVuSans-35" transform="translate(95.410156 0)"/>
      </g>
     </g>
    </g>
    <g id="xtick_5">
     <g id="line2d_5">
      <g>
       <use xlink:href="#m79e05364b7" x="239.280391" y="228.96" style="stroke: #000000; stroke-width: 0.8"/>
      </g>
     </g>
     <g id="text_5">
      <!-- 3.0 -->
      <g transform="translate(231.328829 243.558437) scale(0.1 -0.1)">
       <defs>
        <path id="DejaVuSans-33" d="M 2597 2516 
Q 3050 2419 3304 2112 
Q 3559 1806 3559 1356 
Q 3559 666 3084 287 
Q 2609 -91 1734 -91 
Q 1441 -91 1130 -33 
Q 819 25 488 141 
L 488 750 
Q 750 597 1062 519 
Q 1375 441 1716 441 
Q 2309 441 2620 675 
Q 2931 909 2931 1356 
Q 2931 1769 2642 2001 
Q 2353 2234 1838 2234 
L 1294 2234 
L 1294 2753 
L 1863 2753 
Q 2328 2753 2575 2939 
Q 2822 3125 2822 3475 
Q 2822 3834 2567 4026 
Q 2313 4219 1838 4219 
Q 1578 4219 1281 4162 
Q 984 4106 628 3988 
L 628 4550 
Q 988 4650 1302 4700 
Q 1616 4750 1894 4750 
Q 2613 4750 3031 4423 
Q 3450 4097 3450 3541 
Q 3450 3153 3228 2886 
Q 3006 2619 2597 2516 
z
" transform="scale(0.015625)"/>
       </defs>
       <use xlink:href="#DejaVuSans-33"/>
       <use xlink:href="#DejaVuSans-2e" transform="translate(63.623047 0)"/>
       <use xlink:href="#DejaVuSans-30" transform="translate(95.410156 0)"/>
      </g>
     </g>
    </g>
    <g id="xtick_6">
     <g id="line2d_6">
      <g>
       <use xlink:href="#m79e05364b7" x="281.50608" y="228.96" style="stroke: #000000; stroke-width: 0.8"/>
      </g>
     </g>
     <g id="text_6">
      <!-- 3.5 -->
      <g transform="translate(273.554517 243.558437) scale(0.1 -0.1)">
       <use xlink:href="#DejaVuSans-33"/>
       <use xlink:href="#DejaVuSans-2e" transform="translate(63.623047 0)"/>
       <use xlink:href="#DejaVuSans-35" transform="translate(95.410156 0)"/>
      </g>
     </g>
    </g>
    <g id="xtick_7">
     <g id="line2d_7">
      <g>
       <use xlink:href="#m79e05364b7" x="323.731769" y="228.96" style="stroke: #000000; stroke-width: 0.8"/>
      </g>
     </g>
     <g id="text_7">
      <!-- 4.0 -->
      <g transform="translate(315.780206 243.558437) scale(0.1 -0.1)">
       <defs>
        <path id="DejaVuSans-34" d="M 2419 4116 
L 825 1625 
L 2419 1625 
L 2419 4116 
z
M 2253 4666 
L 3047 4666 
L 3047 1625 
L 3713 1625 
L 3713 1100 
L 3047 1100 
L 3047 0 
L 2419 0 
L 2419 1100 
L 313 1100 
L 313 1709 
L 2253 4666 
z
" transform="scale(0.015625)"/>
       </defs>
       <use xlink:href="#DejaVuSans-34"/>
       <use xlink:href="#DejaVuSans-2e" transform="translate(63.623047 0)"/>
       <use xlink:href="#DejaVuSans-30" transform="translate(95.410156 0)"/>
      </g>
     </g>
    </g>
    <g id="xtick_8">
     <g id="line2d_8">
      <g>
       <use xlink:href="#m79e05364b7" x="365.957458" y="228.96" style="stroke: #000000; stroke-width: 0.8"/>
      </g>
     </g>
     <g id="text_8">
      <!-- 4.5 -->
      <g transform="translate(358.005895 243.558437) scale(0.1 -0.1)">
       <use xlink:href="#DejaVuSans-34"/>
       <use xlink:href="#DejaVuSans-2e" transform="translate(63.623047 0)"/>
       <use xlink:href="#DejaVuSans-35" transform="translate(95.410156 0)"/>
      </g>
     </g>
    </g>
    <g id="text_9">
     <!-- wavelength [Å] -->
     <g transform="translate(176.328125 258.920937) scale(0.1 -0.1)">
      <defs>
       <path id="DejaVuSans-77" d="M 269 3500 
L 844 3500 
L 1563 769 
L 2278 3500 
L 2956 3500 
L 3675 769 
L 4391 3500 
L 4966 3500 
L 4050 0 
L 3372 0 
L 2619 2869 
L 1863 0 
L 1184 0 
L 269 3500 
z
" transform="scale(0.015625)"/>
       <path id="DejaVuSans-61" d="M 2194 1759 
Q 1497 1759 1228 1600 
Q 959 1441 959 1056 
Q 959 750 1161 570 
Q 1363 391 1709 391 
Q 2188 391 2477 730 
Q 2766 1069 2766 1631 
L 2766 1759 
L 2194 1759 
z
M 3341 1997 
L 3341 0 
L 2766 0 
L 2766 531 
Q 2569 213 2275 61 
Q 1981 -91 1556 -91 
Q 1019 -91 701 211 
Q 384 513 384 1019 
Q 384 1609 779 1909 
Q 1175 2209 1959 2209 
L 2766 2209 
L 2766 2266 
Q 2766 2663 2505 2880 
Q 2244 3097 1772 3097 
Q 1472 3097 1187 3025 
Q 903 2953 641 2809 
L 641 3341 
Q 956 3463 1253 3523 
Q 1550 3584 1831 3584 
Q 2591 3584 2966 3190 
Q 3341 2797 3341 1997 
z
" transform="scale(0.015625)"/>
       <path id="DejaVuSans-76" d="M 191 3500 
L 800 3500 
L 1894 563 
L 2988 3500 
L 3597 3500 
L 2284 0 
L 1503 0 
L 191 3500 
z
" transform="scale(0.015625)"/>
       <path id="DejaVuSans-65" d="M 3597 1894 
L 3597 1613 
L 953 1613 
Q 991 1019 1311 708 
Q 1631 397 2203 397 
Q 2534 397 2845 478 
Q 3156 559 3463 722 
L 3463 178 
Q 3153 47 2828 -22 
Q 2503 -91 2169 -91 
Q 1331 -91 842 396 
Q 353 884 353 1716 
Q 353 2575 817 3079 
Q 1281 3584 2069 3584 
Q 2775 3584 3186 3129 
Q 3597 2675 3597 1894 
z
M 3022 2063 
Q 3016 2534 2758 2815 
Q 2500 3097 2075 3097 
Q 1594 3097 1305 2825 
Q 1016 2553 972 2059 
L 3022 2063 
z
" transform="scale(0.015625)"/>
       <path id="DejaVuSans-6c" d="M 603 4863 
L 1178 4863 
L 1178 0 
L 603 0 
L 603 4863 
z
" transform="scale(0.015625)"/>
       <path id="DejaVuSans-6e" d="M 3513 2113 
L 3513 0 
L 2938 0 
L 2938 2094 
Q 2938 2591 2744 2837 
Q 2550 3084 2163 3084 
Q 1697 3084 1428 2787 
Q 1159 2491 1159 1978 
L 1159 0 
L 581 0 
L 581 3500 
L 1159 3500 
L 1159 2956 
Q 1366 3272 1645 3428 
Q 1925 3584 2291 3584 
Q 2894 3584 3203 3211 
Q 3513 2838 3513 2113 
z
" transform="scale(0.015625)"/>
       <path id="DejaVuSans-67" d="M 2906 1791 
Q 2906 2416 2648 2759 
Q 2391 3103 1925 3103 
Q 1463 3103 1205 2759 
Q 947 2416 947 1791 
Q 947 1169 1205 825 
Q 1463 481 1925 481 
Q 2391 481 2648 825 
Q 2906 1169 2906 1791 
z
M 3481 434 
Q 3481 -459 3084 -895 
Q 2688 -1331 1869 -1331 
Q 1566 -1331 1297 -1286 
Q 1028 -1241 775 -1147 
L 775 -588 
Q 1028 -725 1275 -790 
Q 1522 -856 1778 -856 
Q 2344 -856 2625 -561 
Q 2906 -266 2906 331 
L 2906 616 
Q 2728 306 2450 153 
Q 2172 0 1784 0 
Q 1141 0 747 490 
Q 353 981 353 1791 
Q 353 2603 747 3093 
Q 1141 3584 1784 3584 
Q 2172 3584 2450 3431 
Q 2728 3278 2906 2969 
L 2906 3500 
L 3481 3500 
L 3481 434 
z
" transform="scale(0.015625)"/>
       <path id="DejaVuSans-74" d="M 1172 4494 
L 1172 3500 
L 2356 3500 
L 2356 3053 
L 1172 3053 
L 1172 1153 
Q 1172 725 1289 603 
Q 1406 481 1766 481 
L 2356 481 
L 2356 0 
L 1766 0 
Q 1100 0 847 248 
Q 594 497 594 1153 
L 594 3053 
L 172 3053 
L 172 3500 
L 594 3500 
L 594 4494 
L 1172 4494 
z
" transform="scale(0.015625)"/>
       <path id="DejaVuSans-68" d="M 3513 2113 
L 3513 0 
L 2938 0 
L 2938 2094 
Q 2938 2591 2744 2837 
Q 2550 3084 2163 3084 
Q 1697 3084 1428 2787 
Q 1159 2491 1159 1978 
L 1159 0 
L 581 0 
L 581 4863 
L 1159 4863 
L 1159 2956 
Q 1366 3272 1645 3428 
Q 1925 3584 2291 3584 
Q 2894 3584 3203 3211 
Q 3513 2838 3513 2113 
z
" transform="scale(0.015625)"/>
       <path id="DejaVuSans-20" transform="scale(0.015625)"/>
       <path id="DejaVuSans-5b" d="M 550 4863 
L 1875 4863 
L 1875 4416 
L 1125 4416 
L 1125 -397 
L 1875 -397 
L 1875 -844 
L 550 -844 
L 550 4863 
z
" transform="scale(0.015625)"/>
       <path id="DejaVuSans-c5" d="M 2663 5081 
Q 2663 5278 2523 5417 
Q 2384 5556 2188 5556 
Q 1988 5556 1852 5420 
Q 1716 5284 1716 5081 
Q 1716 4884 1853 4746 
Q 1991 4609 2188 4609 
Q 2384 4609 2523 4746 
Q 2663 4884 2663 5081 
z
M 2188 4044 
L 1338 1722 
L 3041 1722 
L 2188 4044 
z
M 1716 4366 
Q 1525 4494 1428 4673 
Q 1331 4853 1331 5081 
Q 1331 5441 1579 5691 
Q 1828 5941 2188 5941 
Q 2544 5941 2795 5689 
Q 3047 5438 3047 5081 
Q 3047 4863 2948 4678 
Q 2850 4494 2663 4366 
L 4325 0 
L 3669 0 
L 3244 1197 
L 1141 1197 
L 716 0 
L 50 0 
L 1716 4366 
z
" transform="scale(0.015625)"/>
       <path id="DejaVuSans-5d" d="M 1947 4863 
L 1947 -844 
L 622 -844 
L 622 -397 
L 1369 -397 
L 1369 4416 
L 622 4416 
L 622 4863 
L 1947 4863 
z
" transform="scale(0.015625)"/>
      </defs>
      <use xlink:href="#DejaVuSans-77"/>
      <use xlink:href="#DejaVuSans-61" transform="translate(81.787109 0)"/>
      <use xlink:href="#DejaVuSans-76" transform="translate(143.066406 0)"/>
      <use xlink:href="#DejaVuSans-65" transform="translate(202.246094 0)"/>
      <use xlink:href="#DejaVuSans-6c" transform="translate(263.769531 0)"/>
      <use xlink:href="#DejaVuSans-65" transform="translate(291.552734 0)"/>
      <use xlink:href="#DejaVuSans-6e" transform="translate(353.076172 0)"/>
      <use xlink:href="#DejaVuSans-67" transform="translate(416.455078 0)"/>
      <use xlink:href="#DejaVuSans-74" transform="translate(479.931641 0)"/>
      <use xlink:href="#DejaVuSans-68" transform="translate(519.140625 0)"/>
      <use xlink:href="#DejaVuSans-20" transform="translate(582.519531 0)"/>
      <use xlink:href="#DejaVuSans-5b" transform="translate(614.306641 0)"/>
      <use xlink:href="#DejaVuSans-c5" transform="translate(653.320312 0)"/>
      <use xlink:href="#DejaVuSans-5d" transform="translate(721.728516 0)"/>
     </g>
    </g>
   </g>
   <g id="matplotlib.axis_2">
    <g id="ytick_1">
     <g id="line2d_9">
      <defs>
       <path id="mb90775fa42" d="M 0 0 
L -3.5 0 
" style="stroke: #000000; stroke-width: 0.8"/>
      </defs>
      <g>
       <use xlink:href="#mb90775fa42" x="46.965625" y="219.195987" style="stroke: #000000; stroke-width: 0.8"/>
      </g>
     </g>
     <g id="text_10">
      <!-- 0 -->
      <g transform="translate(33.603125 222.995206) scale(0.1 -0.1)">
       <use xlink:href="#DejaVuSans-30"/>
      </g>
     </g>
    </g>
    <g id="ytick_2">
     <g id="line2d_10">
      <g>
       <use xlink:href="#mb90775fa42" x="46.965625" y="187.597241" style="stroke: #000000; stroke-width: 0.8"/>
      </g>
     </g>
     <g id="text_11">
      <!-- 100 -->
      <g transform="translate(20.878125 191.39646) scale(0.1 -0.1)">
       <use xlink:href="#DejaVuSans-31"/>
       <use xlink:href="#DejaVuSans-30" transform="translate(63.623047 0)"/>
       <use xlink:href="#DejaVuSans-30" transform="translate(127.246094 0)"/>
      </g>
     </g>
    </g>
    <g id="ytick_3">
     <g id="line2d_11">
      <g>
       <use xlink:href="#mb90775fa42" x="46.965625" y="155.998495" style="stroke: #000000; stroke-width: 0.8"/>
      </g>
     </g>
     <g id="text_12">
      <!-- 200 -->
      <g transform="translate(20.878125 159.797714) scale(0.1 -0.1)">
       <use xlink:href="#DejaVuSans-32"/>
       <use xlink:href="#DejaVuSans-30" transform="translate(63.623047 0)"/>
       <use xlink:href="#DejaVuSans-30" transform="translate(127.246094 0)"/>
      </g>
     </g>
    </g>
    <g id="ytick_4">
     <g id="line2d_12">
      <g>
       <use xlink:href="#mb90775fa42" x="46.965625" y="124.399749" style="stroke: #000000; stroke-width: 0.8"/>
      </g>
     </g>
     <g id="text_13">
      <!-- 300 -->
      <g transform="translate(20.878125 128.198968) scale(0.1 -0.1)">
       <use xlink:href="#DejaVuSans-33"/>
       <use xlink:href="#DejaVuSans-30" transform="translate(63.623047 0)"/>
       <use xlink:href="#DejaVuSans-30" transform="translate(127.246094 0)"/>
      </g>
     </g>
    </g>
    <g id="ytick_5">
     <g id="line2d_13">
      <g>
       <use xlink:href="#mb90775fa42" x="46.965625" y="92.801003" style="stroke: #000000; stroke-width: 0.8"/>
      </g>
     </g>
     <g id="text_14">
      <!-- 400 -->
      <g transform="translate(20.878125 96.600222) scale(0.1 -0.1)">
       <use xlink:href="#DejaVuSans-34"/>
       <use xlink:href="#DejaVuSans-30" transform="translate(63.623047 0)"/>
       <use xlink:href="#DejaVuSans-30" transform="translate(127.246094 0)"/>
      </g>
     </g>
    </g>
    <g id="ytick_6">
     <g id="line2d_14">
      <g>
       <use xlink:href="#mb90775fa42" x="46.965625" y="61.202257" style="stroke: #000000; stroke-width: 0.8"/>
      </g>
     </g>
     <g id="text_15">
      <!-- 500 -->
      <g transform="translate(20.878125 65.001476) scale(0.1 -0.1)">
       <use xlink:href="#DejaVuSans-35"/>
       <use xlink:href="#DejaVuSans-30" transform="translate(63.623047 0)"/>
       <use xlink:href="#DejaVuSans-30" transform="translate(127.246094 0)"/>
      </g>
     </g>
    </g>
    <g id="ytick_7">
     <g id="line2d_15">
      <g>
       <use xlink:href="#mb90775fa42" x="46.965625" y="29.603511" style="stroke: #000000; stroke-width: 0.8"/>
      </g>
     </g>
     <g id="text_16">
      <!-- 600 -->
      <g transform="translate(20.878125 33.40273) scale(0.1 -0.1)">
       <defs>
        <path id="DejaVuSans-36" d="M 2113 2584 
Q 1688 2584 1439 2293 
Q 1191 2003 1191 1497 
Q 1191 994 1439 701 
Q 1688 409 2113 409 
Q 2538 409 2786 701 
Q 3034 994 3034 1497 
Q 3034 2003 2786 2293 
Q 2538 2584 2113 2584 
z
M 3366 4563 
L 3366 3988 
Q 3128 4100 2886 4159 
Q 2644 4219 2406 4219 
Q 1781 4219 1451 3797 
Q 1122 3375 1075 2522 
Q 1259 2794 1537 2939 
Q 1816 3084 2150 3084 
Q 2853 3084 3261 2657 
Q 3669 2231 3669 1497 
Q 3669 778 3244 343 
Q 2819 -91 2113 -91 
Q 1303 -91 875 529 
Q 447 1150 447 2328 
Q 447 3434 972 4092 
Q 1497 4750 2381 4750 
Q 2619 4750 2861 4703 
Q 3103 4656 3366 4563 
z
" transform="scale(0.015625)"/>
       </defs>
       <use xlink:href="#DejaVuSans-36"/>
       <use xlink:href="#DejaVuSans-30" transform="translate(63.623047 0)"/>
       <use xlink:href="#DejaVuSans-30" transform="translate(127.246094 0)"/>
      </g>
     </g>
    </g>
    <g id="text_17">
     <!-- [counts] -->
     <g transform="translate(14.798438 138.6925) rotate(-90) scale(0.1 -0.1)">
      <defs>
       <path id="DejaVuSans-63" d="M 3122 3366 
L 3122 2828 
Q 2878 2963 2633 3030 
Q 2388 3097 2138 3097 
Q 1578 3097 1268 2742 
Q 959 2388 959 1747 
Q 959 1106 1268 751 
Q 1578 397 2138 397 
Q 2388 397 2633 464 
Q 2878 531 3122 666 
L 3122 134 
Q 2881 22 2623 -34 
Q 2366 -91 2075 -91 
Q 1284 -91 818 406 
Q 353 903 353 1747 
Q 353 2603 823 3093 
Q 1294 3584 2113 3584 
Q 2378 3584 2631 3529 
Q 2884 3475 3122 3366 
z
" transform="scale(0.015625)"/>
       <path id="DejaVuSans-6f" d="M 1959 3097 
Q 1497 3097 1228 2736 
Q 959 2375 959 1747 
Q 959 1119 1226 758 
Q 1494 397 1959 397 
Q 2419 397 2687 759 
Q 2956 1122 2956 1747 
Q 2956 2369 2687 2733 
Q 2419 3097 1959 3097 
z
M 1959 3584 
Q 2709 3584 3137 3096 
Q 3566 2609 3566 1747 
Q 3566 888 3137 398 
Q 2709 -91 1959 -91 
Q 1206 -91 779 398 
Q 353 888 353 1747 
Q 353 2609 779 3096 
Q 1206 3584 1959 3584 
z
" transform="scale(0.015625)"/>
       <path id="DejaVuSans-75" d="M 544 1381 
L 544 3500 
L 1119 3500 
L 1119 1403 
Q 1119 906 1312 657 
Q 1506 409 1894 409 
Q 2359 409 2629 706 
Q 2900 1003 2900 1516 
L 2900 3500 
L 3475 3500 
L 3475 0 
L 2900 0 
L 2900 538 
Q 2691 219 2414 64 
Q 2138 -91 1772 -91 
Q 1169 -91 856 284 
Q 544 659 544 1381 
z
M 1991 3584 
L 1991 3584 
z
" transform="scale(0.015625)"/>
       <path id="DejaVuSans-73" d="M 2834 3397 
L 2834 2853 
Q 2591 2978 2328 3040 
Q 2066 3103 1784 3103 
Q 1356 3103 1142 2972 
Q 928 2841 928 2578 
Q 928 2378 1081 2264 
Q 1234 2150 1697 2047 
L 1894 2003 
Q 2506 1872 2764 1633 
Q 3022 1394 3022 966 
Q 3022 478 2636 193 
Q 2250 -91 1575 -91 
Q 1294 -91 989 -36 
Q 684 19 347 128 
L 347 722 
Q 666 556 975 473 
Q 1284 391 1588 391 
Q 1994 391 2212 530 
Q 2431 669 2431 922 
Q 2431 1156 2273 1281 
Q 2116 1406 1581 1522 
L 1381 1569 
Q 847 1681 609 1914 
Q 372 2147 372 2553 
Q 372 3047 722 3315 
Q 1072 3584 1716 3584 
Q 2034 3584 2315 3537 
Q 2597 3491 2834 3397 
z
" transform="scale(0.015625)"/>
      </defs>
      <use xlink:href="#DejaVuSans-5b"/>
      <use xlink:href="#DejaVuSans-63" transform="translate(39.013672 0)"/>
      <use xlink:href="#DejaVuSans-6f" transform="translate(93.994141 0)"/>
      <use xlink:href="#DejaVuSans-75" transform="translate(155.175781 0)"/>
      <use xlink:href="#DejaVuSans-6e" transform="translate(218.554688 0)"/>
      <use xlink:href="#DejaVuSans-74" transform="translate(281.933594 0)"/>
      <use xlink:href="#DejaVuSans-73" transform="translate(321.142578 0)"/>
      <use xlink:href="#DejaVuSans-5d" transform="translate(373.242188 0)"/>
     </g>
    </g>
   </g>
   <g id="line2d_16">
    <path d="M 62.298492 216.984075 
L 63.311418 216.984075 
L 63.311418 212.244263 
L 64.324344 212.244263 
L 64.324344 204.660564 
L 65.337269 204.660564 
L 65.337269 199.604765 
L 66.350195 199.604765 
L 66.350195 196.760878 
L 67.363121 196.760878 
L 67.363121 192.021066 
L 68.376047 192.021066 
L 68.376047 182.857429 
L 69.388973 182.857429 
L 69.388973 187.597241 
L 70.401899 187.597241 
L 70.401899 174.957743 
L 71.414824 174.957743 
L 71.414824 169.269969 
L 72.42775 169.269969 
L 72.42775 164.214169 
L 73.440676 164.214169 
L 73.440676 166.110094 
L 74.453602 166.110094 
L 74.453602 163.898182 
L 75.466528 163.898182 
L 75.466528 157.262445 
L 76.479453 157.262445 
L 76.479453 147.466834 
L 77.492379 147.466834 
L 77.492379 145.570909 
L 78.505305 145.570909 
L 78.505305 136.72326 
L 79.518231 136.72326 
L 79.518231 131.035486 
L 80.531157 131.035486 
L 80.531157 131.351473 
L 81.544082 131.351473 
L 81.544082 123.135799 
L 82.557008 123.135799 
L 82.557008 116.81605 
L 83.569934 116.81605 
L 83.569934 106.704451 
L 84.58286 106.704451 
L 84.58286 106.072476 
L 85.595786 106.072476 
L 85.595786 103.544577 
L 86.608711 103.544577 
L 86.608711 101.016677 
L 87.621637 101.016677 
L 87.621637 101.964639 
L 88.634563 101.964639 
L 88.634563 103.228589 
L 89.647489 103.228589 
L 89.647489 91.853041 
L 90.660415 91.853041 
L 90.660415 82.373417 
L 91.673341 82.373417 
L 91.673341 73.525768 
L 92.686266 73.525768 
L 92.686266 89.009154 
L 93.699192 89.009154 
L 93.699192 77.00163 
L 94.712118 77.00163 
L 94.712118 66.890031 
L 95.725044 66.890031 
L 95.725044 74.47373 
L 96.73797 74.47373 
L 96.73797 61.202257 
L 97.750895 61.202257 
L 97.750895 69.417931 
L 98.763821 69.417931 
L 98.763821 68.153981 
L 99.776747 68.153981 
L 99.776747 29.919498 
L 100.789673 29.919498 
L 100.789673 54.882508 
L 101.802599 54.882508 
L 101.802599 30.551473 
L 102.815524 30.551473 
L 102.815524 47.614796 
L 103.82845 47.614796 
L 103.82845 63.414169 
L 104.841376 63.414169 
L 104.841376 34.343323 
L 105.854302 34.343323 
L 105.854302 30.867461 
L 106.867228 30.867461 
L 106.867228 46.350846 
L 107.880153 46.350846 
L 107.880153 29.287524 
L 108.893079 29.287524 
L 108.893079 39.71511 
L 109.906005 39.71511 
L 109.906005 42.243009 
L 110.918931 42.243009 
L 110.918931 40.031097 
L 111.931857 40.031097 
L 111.931857 24.863699 
L 112.944782 24.863699 
L 112.944782 31.499436 
L 113.957708 31.499436 
L 113.957708 18.54395 
L 114.970634 18.54395 
L 114.970634 19.175925 
L 115.98356 19.175925 
L 115.98356 17.28 
L 116.996486 17.28 
L 116.996486 29.603511 
L 118.009412 29.603511 
L 118.009412 33.395361 
L 119.022337 33.395361 
L 119.022337 46.350846 
L 120.035263 46.350846 
L 120.035263 35.92326 
L 121.048189 35.92326 
L 121.048189 28.655549 
L 122.061115 28.655549 
L 122.061115 22.651787 
L 123.074041 22.651787 
L 123.074041 34.975298 
L 124.086966 34.975298 
L 124.086966 33.395361 
L 125.099892 33.395361 
L 125.099892 51.406646 
L 126.112818 51.406646 
L 126.112818 62.466207 
L 127.125744 62.466207 
L 127.125744 40.663072 
L 128.13867 40.663072 
L 128.13867 59.306332 
L 129.151595 59.306332 
L 129.151595 61.202257 
L 130.164521 61.202257 
L 130.164521 45.402884 
L 131.177447 45.402884 
L 131.177447 61.202257 
L 132.190373 61.202257 
L 132.190373 80.477492 
L 133.203299 80.477492 
L 133.203299 55.198495 
L 134.216224 55.198495 
L 134.216224 50.142696 
L 136.242076 50.142696 
L 136.242076 53.302571 
L 137.255002 53.302571 
L 137.255002 63.730157 
L 138.267928 63.730157 
L 138.267928 74.47373 
L 139.280854 74.47373 
L 139.280854 59.306332 
L 140.293779 59.306332 
L 140.293779 45.086897 
L 141.306705 45.086897 
L 141.306705 43.822947 
L 142.319631 43.822947 
L 142.319631 58.990345 
L 143.332557 58.990345 
L 143.332557 67.206019 
L 144.345483 67.206019 
L 144.345483 77.949592 
L 145.358408 77.949592 
L 145.358408 68.469969 
L 146.371334 68.469969 
L 146.371334 53.618558 
L 147.38426 53.618558 
L 147.38426 64.994107 
L 148.397186 64.994107 
L 148.397186 77.317618 
L 149.410112 77.317618 
L 149.410112 86.165266 
L 150.423037 86.165266 
L 150.423037 76.053668 
L 151.435963 76.053668 
L 151.435963 71.945831 
L 152.448889 71.945831 
L 152.448889 46.350846 
L 153.461815 46.350846 
L 153.461815 70.997868 
L 154.474741 70.997868 
L 154.474741 75.105705 
L 155.487666 75.105705 
L 155.487666 82.057429 
L 156.500592 82.057429 
L 156.500592 61.202257 
L 157.513518 61.202257 
L 157.513518 66.890031 
L 158.526444 66.890031 
L 158.526444 55.514483 
L 159.53937 55.514483 
L 159.53937 66.890031 
L 160.552296 66.890031 
L 160.552296 71.945831 
L 161.565221 71.945831 
L 161.565221 71.313856 
L 162.578147 71.313856 
L 162.578147 55.198495 
L 163.591073 55.198495 
L 163.591073 69.733918 
L 164.603999 69.733918 
L 164.603999 67.522006 
L 165.616925 67.522006 
L 165.616925 75.73768 
L 166.62985 75.73768 
L 166.62985 78.26558 
L 167.642776 78.26558 
L 167.642776 86.481254 
L 168.655702 86.481254 
L 168.655702 76.369655 
L 169.668628 76.369655 
L 169.668628 89.325141 
L 170.681554 89.325141 
L 170.681554 82.373417 
L 171.694479 82.373417 
L 171.694479 92.801003 
L 172.707405 92.801003 
L 172.707405 89.009154 
L 173.720331 89.009154 
L 173.720331 84.269342 
L 174.733257 84.269342 
L 174.733257 71.945831 
L 175.746183 71.945831 
L 175.746183 94.696928 
L 176.759108 94.696928 
L 176.759108 91.537053 
L 177.772034 91.537053 
L 177.772034 89.325141 
L 178.78496 89.325141 
L 178.78496 96.276865 
L 179.797886 96.276865 
L 179.797886 95.960878 
L 180.810812 95.960878 
L 180.810812 101.648652 
L 181.823738 101.648652 
L 181.823738 106.704451 
L 182.836663 106.704451 
L 182.836663 118.395987 
L 183.849589 118.395987 
L 183.849589 107.968401 
L 184.862515 107.968401 
L 184.862515 124.399749 
L 185.875441 124.399749 
L 185.875441 119.34395 
L 186.888367 119.34395 
L 186.888367 132.931411 
L 187.901292 132.931411 
L 187.901292 130.087524 
L 188.914218 130.087524 
L 188.914218 149.678746 
L 189.927144 149.678746 
L 189.927144 141.77906 
L 190.94007 141.77906 
L 190.94007 147.150846 
L 191.952996 147.150846 
L 191.952996 153.470596 
L 192.965921 153.470596 
L 192.965921 153.154608 
L 193.978847 153.154608 
L 193.978847 153.786583 
L 194.991773 153.786583 
L 194.991773 169.269969 
L 196.004699 169.269969 
L 196.004699 162.950219 
L 197.017625 162.950219 
L 197.017625 168.637994 
L 198.03055 168.637994 
L 198.03055 180.013542 
L 199.043476 180.013542 
L 199.043476 185.069342 
L 200.056402 185.069342 
L 200.056402 188.861191 
L 201.069328 188.861191 
L 201.069328 195.496928 
L 202.082254 195.496928 
L 202.082254 190.757116 
L 203.09518 190.757116 
L 203.09518 199.288777 
L 204.108105 199.288777 
L 204.108105 203.080627 
L 205.121031 203.080627 
L 205.121031 204.660564 
L 206.133957 204.660564 
L 206.133957 209.084389 
L 207.146883 209.084389 
L 207.146883 209.716364 
L 208.159809 209.716364 
L 208.159809 211.612288 
L 209.172734 211.612288 
L 209.172734 216.668088 
L 210.18566 216.668088 
L 210.18566 216.036113 
L 211.198586 216.036113 
L 211.198586 217.300063 
L 212.211512 217.300063 
L 212.211512 216.3521 
L 213.224438 216.3521 
L 213.224438 210.980313 
L 214.237363 210.980313 
L 214.237363 204.660564 
L 215.250289 204.660564 
L 215.250289 202.764639 
L 216.263215 202.764639 
L 216.263215 199.288777 
L 217.276141 199.288777 
L 217.276141 195.496928 
L 218.289067 195.496928 
L 218.289067 193.916991 
L 219.301992 193.916991 
L 219.301992 182.225455 
L 220.314918 182.225455 
L 220.314918 186.965266 
L 221.327844 186.965266 
L 221.327844 180.645517 
L 222.34077 180.645517 
L 222.34077 171.165893 
L 223.353696 171.165893 
L 223.353696 171.797868 
L 224.366622 171.797868 
L 224.366622 174.957743 
L 225.379547 174.957743 
L 225.379547 163.898182 
L 226.392473 163.898182 
L 226.392473 173.377806 
L 227.405399 173.377806 
L 227.405399 150.310721 
L 228.418325 150.310721 
L 228.418325 163.898182 
L 229.431251 163.898182 
L 229.431251 160.42232 
L 230.444176 160.42232 
L 230.444176 155.36652 
L 231.457102 155.36652 
L 231.457102 144.622947 
L 232.470028 144.622947 
L 232.470028 148.414796 
L 233.482954 148.414796 
L 233.482954 137.671223 
L 234.49588 137.671223 
L 234.49588 142.411034 
L 235.508805 142.411034 
L 235.508805 146.202884 
L 236.521731 146.202884 
L 236.521731 137.671223 
L 237.534657 137.671223 
L 237.534657 135.775298 
L 238.547583 135.775298 
L 238.547583 113.024201 
L 239.560509 113.024201 
L 239.560509 120.923887 
L 240.573434 120.923887 
L 240.573434 132.615423 
L 241.58636 132.615423 
L 241.58636 117.764013 
L 242.599286 117.764013 
L 242.599286 125.347712 
L 243.612212 125.347712 
L 243.612212 116.500063 
L 244.625138 116.500063 
L 244.625138 115.5521 
L 246.650989 115.5521 
L 246.650989 107.020439 
L 247.663915 107.020439 
L 247.663915 109.864326 
L 248.676841 109.864326 
L 248.676841 115.868088 
L 249.689767 115.868088 
L 249.689767 105.440502 
L 250.702693 105.440502 
L 250.702693 102.596614 
L 251.715618 102.596614 
L 251.715618 109.864326 
L 252.728544 109.864326 
L 252.728544 107.652414 
L 253.74147 107.652414 
L 253.74147 96.592853 
L 254.754396 96.592853 
L 254.754396 88.061191 
L 255.767322 88.061191 
L 255.767322 89.009154 
L 256.780247 89.009154 
L 256.780247 95.960878 
L 257.793173 95.960878 
L 257.793173 87.745204 
L 258.806099 87.745204 
L 258.806099 100.70069 
L 259.819025 100.70069 
L 259.819025 98.804765 
L 260.831951 98.804765 
L 260.831951 101.016677 
L 261.844876 101.016677 
L 261.844876 79.845517 
L 262.857802 79.845517 
L 262.857802 86.797241 
L 264.883654 86.797241 
L 264.883654 92.169028 
L 265.89658 92.169028 
L 265.89658 100.70069 
L 266.909505 100.70069 
L 266.909505 96.276865 
L 267.922431 96.276865 
L 267.922431 95.960878 
L 268.935357 95.960878 
L 268.935357 103.544577 
L 269.948283 103.544577 
L 269.948283 89.325141 
L 270.961209 89.325141 
L 270.961209 95.960878 
L 271.974135 95.960878 
L 271.974135 105.440502 
L 272.98706 105.440502 
L 272.98706 94.064953 
L 273.999986 94.064953 
L 273.999986 102.280627 
L 275.012912 102.280627 
L 275.012912 114.604138 
L 276.025838 114.604138 
L 276.025838 90.589091 
L 277.038764 90.589091 
L 277.038764 105.756489 
L 278.051689 105.756489 
L 278.051689 111.760251 
L 279.064615 111.760251 
L 279.064615 116.500063 
L 280.077541 116.500063 
L 280.077541 104.808527 
L 281.090467 104.808527 
L 281.090467 103.860564 
L 282.103393 103.860564 
L 282.103393 102.596614 
L 283.116318 102.596614 
L 283.116318 125.663699 
L 284.129244 125.663699 
L 284.129244 107.968401 
L 285.14217 107.968401 
L 285.14217 115.236113 
L 286.155096 115.236113 
L 286.155096 112.708213 
L 287.168022 112.708213 
L 287.168022 117.764013 
L 288.180947 117.764013 
L 288.180947 129.771536 
L 289.193873 129.771536 
L 289.193873 130.087524 
L 290.206799 130.087524 
L 290.206799 112.076238 
L 291.219725 112.076238 
L 291.219725 113.024201 
L 292.232651 113.024201 
L 292.232651 128.191599 
L 293.245577 128.191599 
L 293.245577 120.291912 
L 294.258502 120.291912 
L 294.258502 105.756489 
L 295.271428 105.756489 
L 295.271428 129.455549 
L 296.284354 129.455549 
L 296.284354 119.027962 
L 297.29728 119.027962 
L 297.29728 121.239875 
L 298.310206 121.239875 
L 298.310206 127.559624 
L 299.323131 127.559624 
L 299.323131 126.611661 
L 300.336057 126.611661 
L 300.336057 131.983448 
L 301.348983 131.983448 
L 301.348983 125.347712 
L 302.361909 125.347712 
L 302.361909 129.139561 
L 303.374835 129.139561 
L 303.374835 135.775298 
L 304.38776 135.775298 
L 304.38776 133.563386 
L 305.400686 133.563386 
L 305.400686 129.771536 
L 306.413612 129.771536 
L 306.413612 133.879373 
L 307.426538 133.879373 
L 307.426538 140.51511 
L 308.439464 140.51511 
L 308.439464 152.206646 
L 309.452389 152.206646 
L 309.452389 142.095047 
L 310.465315 142.095047 
L 310.465315 140.199122 
L 312.491167 140.199122 
L 312.491167 147.782821 
L 313.504093 147.782821 
L 313.504093 149.046771 
L 314.517019 149.046771 
L 314.517019 152.206646 
L 315.529944 152.206646 
L 315.529944 149.678746 
L 316.54287 149.678746 
L 316.54287 146.834859 
L 317.555796 146.834859 
L 317.555796 149.362759 
L 318.568722 149.362759 
L 318.568722 153.470596 
L 319.581648 153.470596 
L 319.581648 158.210408 
L 320.594573 158.210408 
L 320.594573 160.738307 
L 321.607499 160.738307 
L 321.607499 150.942696 
L 322.620425 150.942696 
L 322.620425 164.214169 
L 323.633351 164.214169 
L 323.633351 155.682508 
L 324.646277 155.682508 
L 324.646277 162.950219 
L 325.659202 162.950219 
L 325.659202 169.901944 
L 326.672128 169.901944 
L 326.672128 165.162132 
L 327.685054 165.162132 
L 327.685054 164.214169 
L 328.69798 164.214169 
L 328.69798 161.054295 
L 329.710906 161.054295 
L 329.710906 168.953981 
L 330.723831 168.953981 
L 330.723831 169.269969 
L 331.736757 169.269969 
L 331.736757 174.641755 
L 332.749683 174.641755 
L 332.749683 176.53768 
L 333.762609 176.53768 
L 333.762609 182.541442 
L 334.775535 182.541442 
L 334.775535 162.950219 
L 335.788461 162.950219 
L 335.788461 182.857429 
L 336.801386 182.857429 
L 336.801386 176.53768 
L 337.814312 176.53768 
L 337.814312 184.121379 
L 339.840164 184.121379 
L 339.840164 186.965266 
L 340.85309 186.965266 
L 340.85309 193.601003 
L 341.866015 193.601003 
L 341.866015 191.705078 
L 342.878941 191.705078 
L 342.878941 193.916991 
L 343.891867 193.916991 
L 343.891867 195.812915 
L 344.904793 195.812915 
L 344.904793 200.552727 
L 345.917719 200.552727 
L 345.917719 198.024828 
L 346.930644 198.024828 
L 346.930644 201.184702 
L 347.94357 201.184702 
L 347.94357 204.028589 
L 348.956496 204.028589 
L 348.956496 204.976552 
L 349.969422 204.976552 
L 349.969422 209.716364 
L 350.982348 209.716364 
L 350.982348 205.608527 
L 351.995273 205.608527 
L 351.995273 209.716364 
L 353.008199 209.716364 
L 353.008199 208.768401 
L 354.021125 208.768401 
L 354.021125 209.716364 
L 355.034051 209.716364 
L 355.034051 211.612288 
L 356.046977 211.612288 
L 356.046977 213.824201 
L 357.059903 213.824201 
L 357.059903 214.772163 
L 358.072828 214.772163 
L 358.072828 213.192226 
L 359.085754 213.192226 
L 359.085754 215.404138 
L 360.09868 215.404138 
L 360.09868 216.668088 
L 361.111606 216.668088 
L 361.111606 217.300063 
L 362.124532 217.300063 
L 362.124532 218.564013 
L 363.137457 218.564013 
L 363.137457 217.932038 
L 364.150383 217.932038 
L 364.150383 218.88 
L 365.163309 218.88 
L 365.163309 218.248025 
L 366.176235 218.248025 
L 366.176235 218.248025 
" clip-path="url(#pef54dd2534)" style="fill: none; stroke: #1f77b4; stroke-width: 1.5; stroke-linecap: square"/>
   </g>
   <g id="line2d_17">
    <path d="M 62.183807 214.140188 
L 63.198352 214.140188 
L 63.198352 212.244263 
L 64.212898 212.244263 
L 64.212898 205.292539 
L 65.227443 205.292539 
L 65.227443 199.920752 
L 66.241989 199.920752 
L 66.241989 196.44489 
L 67.256534 196.44489 
L 67.256534 192.969028 
L 68.27108 192.969028 
L 68.27108 185.701317 
L 69.285625 185.701317 
L 69.285625 187.597241 
L 70.30017 187.597241 
L 70.30017 173.693793 
L 71.314716 173.693793 
L 71.314716 170.533918 
L 72.329261 170.533918 
L 72.329261 169.269969 
L 73.343807 169.269969 
L 73.343807 161.68627 
L 75.372898 161.68627 
L 75.372898 157.578433 
L 76.387443 157.578433 
L 76.387443 147.150846 
L 77.401989 147.150846 
L 77.401989 146.202884 
L 78.416534 146.202884 
L 78.416534 138.303197 
L 79.43108 138.303197 
L 79.43108 131.667461 
L 80.445625 131.667461 
L 80.445625 131.983448 
L 81.46017 131.983448 
L 81.46017 121.555862 
L 82.474716 121.555862 
L 82.474716 119.975925 
L 83.489261 119.975925 
L 83.489261 99.120752 
L 84.503807 99.120752 
L 84.503807 112.708213 
L 85.518352 112.708213 
L 85.518352 100.384702 
L 86.532898 100.384702 
L 86.532898 102.280627 
L 87.547443 102.280627 
L 87.547443 104.176552 
L 88.561989 104.176552 
L 88.561989 98.804765 
L 89.576534 98.804765 
L 89.576534 93.432978 
L 90.59108 93.432978 
L 90.59108 83.953354 
L 91.605625 83.953354 
L 91.605625 78.581567 
L 92.62017 78.581567 
L 92.62017 81.109467 
L 93.634716 81.109467 
L 93.634716 79.52953 
L 94.649261 79.52953 
L 94.649261 72.261818 
L 95.663807 72.261818 
L 95.663807 65.310094 
L 96.678352 65.310094 
L 96.678352 72.261818 
L 97.692898 72.261818 
L 97.692898 57.410408 
L 98.707443 57.410408 
L 98.707443 64.362132 
L 99.721989 64.362132 
L 99.721989 35.291285 
L 100.736534 35.291285 
L 100.736534 52.354608 
L 101.75108 52.354608 
L 101.75108 44.454922 
L 102.765625 44.454922 
L 102.765625 47.614796 
L 103.78017 47.614796 
L 103.78017 46.034859 
L 104.794716 46.034859 
L 104.794716 50.774671 
L 105.809261 50.774671 
L 105.809261 25.811661 
L 106.823807 25.811661 
L 106.823807 41.927022 
L 107.838352 41.927022 
L 107.838352 37.503197 
L 108.852898 37.503197 
L 108.852898 34.975298 
L 109.867443 34.975298 
L 109.867443 36.239248 
L 110.881989 36.239248 
L 110.881989 42.243009 
L 111.896534 42.243009 
L 111.896534 27.391599 
L 113.925625 27.391599 
L 113.925625 23.283762 
L 114.94017 23.283762 
L 114.94017 19.8079 
L 115.954716 19.8079 
L 115.954716 23.599749 
L 116.969261 23.599749 
L 116.969261 22.335799 
L 117.983807 22.335799 
L 117.983807 28.971536 
L 118.998352 28.971536 
L 118.998352 35.92326 
L 120.012898 35.92326 
L 120.012898 37.18721 
L 121.027443 37.18721 
L 121.027443 37.819185 
L 122.041989 37.819185 
L 122.041989 28.339561 
L 123.056534 28.339561 
L 123.056534 32.131411 
L 124.07108 32.131411 
L 124.07108 29.603511 
L 125.085625 29.603511 
L 125.085625 57.410408 
L 126.10017 57.410408 
L 126.10017 61.202257 
L 127.114716 61.202257 
L 127.114716 43.506959 
L 128.129261 43.506959 
L 128.129261 58.35837 
L 129.143807 58.35837 
L 129.143807 55.198495 
L 130.158352 55.198495 
L 130.158352 52.038621 
L 131.172898 52.038621 
L 131.172898 65.626082 
L 132.187443 65.626082 
L 132.187443 60.88627 
L 133.201989 60.88627 
L 133.201989 57.410408 
L 134.216534 57.410408 
L 134.216534 53.618558 
L 135.23108 53.618558 
L 135.23108 57.410408 
L 136.245625 57.410408 
L 136.245625 52.354608 
L 137.26017 52.354608 
L 137.26017 58.990345 
L 138.274716 58.990345 
L 138.274716 59.938307 
L 139.289261 59.938307 
L 139.289261 70.681881 
L 140.303807 70.681881 
L 140.303807 48.246771 
L 141.318352 48.246771 
L 141.318352 50.458683 
L 142.332898 50.458683 
L 142.332898 48.562759 
L 143.347443 48.562759 
L 143.347443 73.525768 
L 144.361989 73.525768 
L 144.361989 71.945831 
L 145.376534 71.945831 
L 145.376534 68.785956 
L 146.39108 68.785956 
L 146.39108 61.834232 
L 147.405625 61.834232 
L 147.405625 66.890031 
L 148.42017 66.890031 
L 148.42017 69.733918 
L 149.434716 69.733918 
L 149.434716 86.797241 
L 150.449261 86.797241 
L 150.449261 66.574044 
L 151.463807 66.574044 
L 151.463807 65.310094 
L 152.478352 65.310094 
L 152.478352 66.258056 
L 153.492898 66.258056 
L 153.492898 64.994107 
L 154.507443 64.994107 
L 154.507443 76.053668 
L 155.521989 76.053668 
L 155.521989 73.209781 
L 156.536534 73.209781 
L 156.536534 63.730157 
L 157.55108 63.730157 
L 157.55108 62.150219 
L 158.565625 62.150219 
L 158.565625 63.414169 
L 159.58017 63.414169 
L 159.58017 74.157743 
L 160.594716 74.157743 
L 160.594716 63.414169 
L 161.609261 63.414169 
L 161.609261 60.570282 
L 162.623807 60.570282 
L 162.623807 61.834232 
L 163.638352 61.834232 
L 163.638352 72.893793 
L 164.652898 72.893793 
L 164.652898 70.997868 
L 165.667443 70.997868 
L 165.667443 75.73768 
L 166.681989 75.73768 
L 166.681989 78.26558 
L 167.696534 78.26558 
L 167.696534 80.477492 
L 168.71108 80.477492 
L 168.71108 79.52953 
L 169.725625 79.52953 
L 169.725625 95.960878 
L 170.74017 95.960878 
L 170.74017 83.005392 
L 171.754716 83.005392 
L 171.754716 83.637367 
L 172.769261 83.637367 
L 172.769261 94.38094 
L 173.783807 94.38094 
L 173.783807 73.525768 
L 174.798352 73.525768 
L 174.798352 81.741442 
L 175.812898 81.741442 
L 175.812898 89.009154 
L 176.827443 89.009154 
L 176.827443 95.64489 
L 177.841989 95.64489 
L 177.841989 84.901317 
L 178.856534 84.901317 
L 178.856534 100.384702 
L 179.87108 100.384702 
L 179.87108 93.748966 
L 180.885625 93.748966 
L 180.885625 103.544577 
L 181.90017 103.544577 
L 181.90017 105.440502 
L 182.914716 105.440502 
L 182.914716 119.659937 
L 183.929261 119.659937 
L 183.929261 113.972163 
L 184.943807 113.972163 
L 184.943807 117.132038 
L 185.958352 117.132038 
L 185.958352 119.34395 
L 186.972898 119.34395 
L 186.972898 132.299436 
L 187.987443 132.299436 
L 187.987443 135.45931 
L 189.001989 135.45931 
L 189.001989 144.622947 
L 190.016534 144.622947 
L 190.016534 144.306959 
L 191.03108 144.306959 
L 191.03108 146.202884 
L 192.045625 146.202884 
L 192.045625 155.36652 
L 193.06017 155.36652 
L 193.06017 152.838621 
L 194.074716 152.838621 
L 194.074716 152.206646 
L 195.089261 152.206646 
L 195.089261 166.110094 
L 197.118352 166.110094 
L 197.118352 172.745831 
L 198.132898 172.745831 
L 198.132898 179.06558 
L 199.147443 179.06558 
L 199.147443 186.333292 
L 200.161989 186.333292 
L 200.161989 187.913229 
L 201.176534 187.913229 
L 201.176534 193.601003 
L 202.19108 193.601003 
L 202.19108 191.073103 
L 203.205625 191.073103 
L 203.205625 201.184702 
L 204.22017 201.184702 
L 204.22017 203.396614 
L 205.234716 203.396614 
L 205.234716 204.976552 
L 206.249261 204.976552 
L 206.249261 208.768401 
L 207.263807 208.768401 
L 207.263807 210.664326 
L 208.278352 210.664326 
L 208.278352 212.560251 
L 209.292898 212.560251 
L 209.292898 215.08815 
L 210.307443 215.08815 
L 210.307443 216.668088 
L 211.321989 216.668088 
L 211.321989 216.984075 
L 212.336534 216.984075 
L 212.336534 213.824201 
L 213.35108 213.824201 
L 213.35108 209.400376 
L 214.365625 209.400376 
L 214.365625 205.608527 
L 215.38017 205.608527 
L 215.38017 200.868715 
L 216.394716 200.868715 
L 216.394716 199.288777 
L 217.409261 199.288777 
L 217.409261 195.812915 
L 218.423807 195.812915 
L 218.423807 192.021066 
L 219.438352 192.021066 
L 219.438352 184.437367 
L 220.452898 184.437367 
L 220.452898 184.121379 
L 221.467443 184.121379 
L 221.467443 180.013542 
L 222.481989 180.013542 
L 222.481989 172.429843 
L 223.496534 172.429843 
L 223.496534 169.901944 
L 224.51108 169.901944 
L 224.51108 173.693793 
L 225.525625 173.693793 
L 225.525625 165.162132 
L 226.54017 165.162132 
L 226.54017 168.322006 
L 227.554716 168.322006 
L 227.554716 155.36652 
L 228.569261 155.36652 
L 228.569261 162.002257 
L 229.583807 162.002257 
L 229.583807 157.578433 
L 230.598352 157.578433 
L 230.598352 152.838621 
L 231.612898 152.838621 
L 231.612898 143.358997 
L 232.627443 143.358997 
L 232.627443 147.150846 
L 233.641989 147.150846 
L 233.641989 141.463072 
L 234.656534 141.463072 
L 234.656534 143.674984 
L 235.67108 143.674984 
L 235.67108 142.095047 
L 236.685625 142.095047 
L 236.685625 137.039248 
L 237.70017 137.039248 
L 237.70017 132.931411 
L 238.714716 132.931411 
L 238.714716 118.395987 
L 239.729261 118.395987 
L 239.729261 121.555862 
L 240.743807 121.555862 
L 240.743807 122.503824 
L 241.758352 122.503824 
L 241.758352 121.87185 
L 242.772898 121.87185 
L 242.772898 127.875611 
L 243.787443 127.875611 
L 243.787443 113.656176 
L 244.801989 113.656176 
L 244.801989 119.34395 
L 245.816534 119.34395 
L 245.816534 109.548339 
L 246.83108 109.548339 
L 246.83108 108.284389 
L 247.845625 108.284389 
L 247.845625 113.024201 
L 248.86017 113.024201 
L 248.86017 110.180313 
L 249.874716 110.180313 
L 249.874716 109.864326 
L 250.889261 109.864326 
L 250.889261 98.804765 
L 251.903807 98.804765 
L 251.903807 108.284389 
L 252.918352 108.284389 
L 252.918352 107.336426 
L 253.932898 107.336426 
L 253.932898 92.801003 
L 254.947443 92.801003 
L 254.947443 90.273103 
L 255.961989 90.273103 
L 255.961989 89.957116 
L 256.976534 89.957116 
L 256.976534 90.273103 
L 257.99108 90.273103 
L 257.99108 103.860564 
L 259.005625 103.860564 
L 259.005625 88.061191 
L 260.02017 88.061191 
L 260.02017 102.912602 
L 261.034716 102.912602 
L 261.034716 94.064953 
L 262.049261 94.064953 
L 262.049261 84.585329 
L 263.063807 84.585329 
L 263.063807 86.165266 
L 264.078352 86.165266 
L 264.078352 85.849279 
L 265.092898 85.849279 
L 265.092898 92.169028 
L 266.107443 92.169028 
L 266.107443 106.072476 
L 267.121989 106.072476 
L 267.121989 92.801003 
L 268.136534 92.801003 
L 268.136534 95.64489 
L 269.15108 95.64489 
L 269.15108 98.488777 
L 270.165625 98.488777 
L 270.165625 92.169028 
L 271.18017 92.169028 
L 271.18017 101.964639 
L 272.194716 101.964639 
L 272.194716 95.012915 
L 273.209261 95.012915 
L 273.209261 107.968401 
L 274.223807 107.968401 
L 274.223807 98.488777 
L 275.238352 98.488777 
L 275.238352 101.964639 
L 276.252898 101.964639 
L 276.252898 107.652414 
L 277.267443 107.652414 
L 277.267443 102.912602 
L 278.281989 102.912602 
L 278.281989 106.072476 
L 279.296534 106.072476 
L 279.296534 115.5521 
L 280.31108 115.5521 
L 280.31108 101.964639 
L 281.325625 101.964639 
L 281.325625 102.280627 
L 282.34017 102.280627 
L 282.34017 110.180313 
L 283.354716 110.180313 
L 283.354716 120.923887 
L 284.369261 120.923887 
L 284.369261 119.975925 
L 285.383807 119.975925 
L 285.383807 107.652414 
L 286.398352 107.652414 
L 286.398352 114.28815 
L 287.412898 114.28815 
L 287.412898 120.291912 
L 288.427443 120.291912 
L 288.427443 131.351473 
L 289.441989 131.351473 
L 289.441989 114.920125 
L 290.456534 114.920125 
L 290.456534 122.503824 
L 291.47108 122.503824 
L 291.47108 113.656176 
L 292.485625 113.656176 
L 292.485625 124.399749 
L 293.50017 124.399749 
L 293.50017 120.6079 
L 294.514716 120.6079 
L 294.514716 115.5521 
L 295.529261 115.5521 
L 295.529261 115.236113 
L 296.543807 115.236113 
L 296.543807 128.507586 
L 297.558352 128.507586 
L 297.558352 123.767774 
L 298.572898 123.767774 
L 298.572898 122.819812 
L 299.587443 122.819812 
L 299.587443 130.087524 
L 300.601989 130.087524 
L 300.601989 127.559624 
L 301.616534 127.559624 
L 301.616534 128.507586 
L 302.63108 128.507586 
L 302.63108 132.931411 
L 303.645625 132.931411 
L 303.645625 129.455549 
L 304.66017 129.455549 
L 304.66017 134.827335 
L 305.674716 134.827335 
L 305.674716 128.823574 
L 306.689261 128.823574 
L 306.689261 137.98721 
L 307.703807 137.98721 
L 307.703807 147.782821 
L 308.718352 147.782821 
L 308.718352 139.25116 
L 309.732898 139.25116 
L 309.732898 141.147085 
L 310.747443 141.147085 
L 310.747443 143.674984 
L 311.761989 143.674984 
L 311.761989 144.622947 
L 312.776534 144.622947 
L 312.776534 145.886897 
L 313.79108 145.886897 
L 313.79108 147.782821 
L 314.805625 147.782821 
L 314.805625 152.522633 
L 315.82017 152.522633 
L 315.82017 146.518871 
L 316.834716 146.518871 
L 316.834716 152.206646 
L 317.849261 152.206646 
L 317.849261 155.050533 
L 318.863807 155.050533 
L 318.863807 149.994734 
L 319.878352 149.994734 
L 319.878352 157.89442 
L 320.892898 157.89442 
L 320.892898 153.786583 
L 321.907443 153.786583 
L 321.907443 162.318245 
L 322.921989 162.318245 
L 322.921989 154.418558 
L 323.936534 154.418558 
L 323.936534 165.162132 
L 324.95108 165.162132 
L 324.95108 159.15837 
L 325.965625 159.15837 
L 325.965625 167.058056 
L 326.98017 167.058056 
L 326.98017 167.690031 
L 327.994716 167.690031 
L 327.994716 162.950219 
L 329.009261 162.950219 
L 329.009261 166.742069 
L 330.023807 166.742069 
L 330.023807 165.478119 
L 331.038352 165.478119 
L 331.038352 169.269969 
L 332.052898 169.269969 
L 332.052898 179.697555 
L 333.067443 179.697555 
L 333.067443 177.80163 
L 334.081989 177.80163 
L 334.081989 173.061818 
L 335.096534 173.061818 
L 335.096534 172.745831 
L 336.11108 172.745831 
L 336.11108 178.749592 
L 337.125625 178.749592 
L 337.125625 180.645517 
L 338.14017 180.645517 
L 338.14017 181.909467 
L 339.154716 181.909467 
L 339.154716 186.965266 
L 340.169261 186.965266 
L 340.169261 191.073103 
L 341.183807 191.073103 
L 341.183807 189.809154 
L 342.198352 189.809154 
L 342.198352 190.125141 
L 343.212898 190.125141 
L 343.212898 197.70884 
L 344.227443 197.70884 
L 344.227443 195.18094 
L 345.241989 195.18094 
L 345.241989 199.920752 
L 346.256534 199.920752 
L 346.256534 201.816677 
L 347.27108 201.816677 
L 347.27108 200.868715 
L 348.285625 200.868715 
L 348.285625 202.132665 
L 349.30017 202.132665 
L 349.30017 206.872476 
L 350.314716 206.872476 
L 350.314716 210.032351 
L 351.329261 210.032351 
L 351.329261 204.976552 
L 352.343807 204.976552 
L 352.343807 210.032351 
L 353.358352 210.032351 
L 353.358352 209.400376 
L 354.372898 209.400376 
L 354.372898 210.980313 
L 356.401989 210.980313 
L 356.401989 214.456176 
L 357.416534 214.456176 
L 357.416534 215.08815 
L 358.43108 215.08815 
L 358.43108 214.456176 
L 359.445625 214.456176 
L 359.445625 215.720125 
L 360.46017 215.720125 
L 360.46017 216.036113 
L 361.474716 216.036113 
L 361.474716 217.61605 
L 362.489261 217.61605 
L 362.489261 218.248025 
L 364.518352 218.248025 
L 364.518352 218.564013 
L 365.532898 218.564013 
L 365.532898 217.932038 
L 366.547443 217.932038 
L 366.547443 217.932038 
" clip-path="url(#pef54dd2534)" style="fill: none; stroke: #ff7f0e; stroke-width: 1.5; stroke-linecap: square"/>
   </g>
   <g id="patch_3">
    <path d="M 46.965625 228.96 
L 46.965625 7.2 
" style="fill: none; stroke: #000000; stroke-width: 0.8; stroke-linejoin: miter; stroke-linecap: square"/>
   </g>
   <g id="patch_4">
    <path d="M 381.765625 228.96 
L 381.765625 7.2 
" style="fill: none; stroke: #000000; stroke-width: 0.8; stroke-linejoin: miter; stroke-linecap: square"/>
   </g>
   <g id="patch_5">
    <path d="M 46.965625 228.96 
L 381.765625 228.96 
" style="fill: none; stroke: #000000; stroke-width: 0.8; stroke-linejoin: miter; stroke-linecap: square"/>
   </g>
   <g id="patch_6">
    <path d="M 46.965625 7.2 
L 381.765625 7.2 
" style="fill: none; stroke: #000000; stroke-width: 0.8; stroke-linejoin: miter; stroke-linecap: square"/>
   </g>
   <g id="legend_1">
    <g id="patch_7">
     <path d="M 305.3875 44.55625 
L 374.765625 44.55625 
Q 376.765625 44.55625 376.765625 42.55625 
L 376.765625 14.2 
Q 376.765625 12.2 374.765625 12.2 
L 305.3875 12.2 
Q 303.3875 12.2 303.3875 14.2 
L 303.3875 42.55625 
Q 303.3875 44.55625 305.3875 44.55625 
z
" style="fill: #ffffff; opacity: 0.8; stroke: #cccccc; stroke-linejoin: miter"/>
    </g>
    <g id="line2d_18">
     <path d="M 307.3875 20.298438 
L 307.3875 20.298438 
L 317.3875 20.298438 
L 317.3875 20.298438 
L 327.3875 20.298438 
" style="fill: none; stroke: #1f77b4; stroke-width: 1.5; stroke-linecap: square"/>
    </g>
    <g id="text_18">
     <!-- wfm -->
     <g transform="translate(335.3875 23.798438) scale(0.1 -0.1)">
      <defs>
       <path id="DejaVuSans-66" d="M 2375 4863 
L 2375 4384 
L 1825 4384 
Q 1516 4384 1395 4259 
Q 1275 4134 1275 3809 
L 1275 3500 
L 2222 3500 
L 2222 3053 
L 1275 3053 
L 1275 0 
L 697 0 
L 697 3053 
L 147 3053 
L 147 3500 
L 697 3500 
L 697 3744 
Q 697 4328 969 4595 
Q 1241 4863 1831 4863 
L 2375 4863 
z
" transform="scale(0.015625)"/>
       <path id="DejaVuSans-6d" d="M 3328 2828 
Q 3544 3216 3844 3400 
Q 4144 3584 4550 3584 
Q 5097 3584 5394 3201 
Q 5691 2819 5691 2113 
L 5691 0 
L 5113 0 
L 5113 2094 
Q 5113 2597 4934 2840 
Q 4756 3084 4391 3084 
Q 3944 3084 3684 2787 
Q 3425 2491 3425 1978 
L 3425 0 
L 2847 0 
L 2847 2094 
Q 2847 2600 2669 2842 
Q 2491 3084 2119 3084 
Q 1678 3084 1418 2786 
Q 1159 2488 1159 1978 
L 1159 0 
L 581 0 
L 581 3500 
L 1159 3500 
L 1159 2956 
Q 1356 3278 1631 3431 
Q 1906 3584 2284 3584 
Q 2666 3584 2933 3390 
Q 3200 3197 3328 2828 
z
" transform="scale(0.015625)"/>
      </defs>
      <use xlink:href="#DejaVuSans-77"/>
      <use xlink:href="#DejaVuSans-66" transform="translate(81.787109 0)"/>
      <use xlink:href="#DejaVuSans-6d" transform="translate(116.992188 0)"/>
     </g>
    </g>
    <g id="line2d_19">
     <path d="M 307.3875 34.976562 
L 307.3875 34.976562 
L 317.3875 34.976562 
L 317.3875 34.976562 
L 327.3875 34.976562 
" style="fill: none; stroke: #ff7f0e; stroke-width: 1.5; stroke-linecap: square"/>
    </g>
    <g id="text_19">
     <!-- original -->
     <g transform="translate(335.3875 38.476562) scale(0.1 -0.1)">
      <defs>
       <path id="DejaVuSans-72" d="M 2631 2963 
Q 2534 3019 2420 3045 
Q 2306 3072 2169 3072 
Q 1681 3072 1420 2755 
Q 1159 2438 1159 1844 
L 1159 0 
L 581 0 
L 581 3500 
L 1159 3500 
L 1159 2956 
Q 1341 3275 1631 3429 
Q 1922 3584 2338 3584 
Q 2397 3584 2469 3576 
Q 2541 3569 2628 3553 
L 2631 2963 
z
" transform="scale(0.015625)"/>
       <path id="DejaVuSans-69" d="M 603 3500 
L 1178 3500 
L 1178 0 
L 603 0 
L 603 3500 
z
M 603 4863 
L 1178 4863 
L 1178 4134 
L 603 4134 
L 603 4863 
z
" transform="scale(0.015625)"/>
      </defs>
      <use xlink:href="#DejaVuSans-6f"/>
      <use xlink:href="#DejaVuSans-72" transform="translate(61.181641 0)"/>
      <use xlink:href="#DejaVuSans-69" transform="translate(102.294922 0)"/>
      <use xlink:href="#DejaVuSans-67" transform="translate(130.078125 0)"/>
      <use xlink:href="#DejaVuSans-69" transform="translate(193.554688 0)"/>
      <use xlink:href="#DejaVuSans-6e" transform="translate(221.337891 0)"/>
      <use xlink:href="#DejaVuSans-61" transform="translate(284.716797 0)"/>
      <use xlink:href="#DejaVuSans-6c" transform="translate(345.996094 0)"/>
     </g>
    </g>
   </g>
  </g>
 </g>
 <defs>
  <clipPath id="pef54dd2534">
   <rect x="46.965625" y="7.2" width="334.8" height="221.76"/>
  </clipPath>
 </defs>
</svg>
