<?xml version="1.0" encoding="utf-8" standalone="no"?>
<!DOCTYPE svg PUBLIC "-//W3C//DTD SVG 1.1//EN"
  "http://www.w3.org/Graphics/SVG/1.1/DTD/svg11.dtd">
<svg xmlns:xlink="http://www.w3.org/1999/xlink" width="395.328125pt" height="266.51625pt" viewBox="0 0 395.328125 266.51625" xmlns="http://www.w3.org/2000/svg" version="1.1">
 <metadata>
  <rdf:RDF xmlns:dc="http://purl.org/dc/elements/1.1/" xmlns:cc="http://creativecommons.org/ns#" xmlns:rdf="http://www.w3.org/1999/02/22-rdf-syntax-ns#">
   <cc:Work>
    <dc:type rdf:resource="http://purl.org/dc/dcmitype/StillImage"/>
    <dc:date>2025-12-09T08:59:24.107324</dc:date>
    <dc:format>image/svg+xml</dc:format>
    <dc:creator>
     <cc:Agent>
      <dc:title>Matplotlib v3.10.7, https://matplotlib.org/</dc:title>
     </cc:Agent>
    </dc:creator>
   </cc:Work>
  </rdf:RDF>
 </metadata>
 <defs>
  <style type="text/css">*{stroke-linejoin: round; stroke-linecap: butt}</style>
 </defs>
 <g id="figure_1">
  <g id="patch_1">
   <path d="M 0 266.51625 
L 395.328125 266.51625 
L 395.328125 0 
L 0 0 
z
" style="fill: #ffffff"/>
  </g>
  <g id="axes_1">
   <g id="patch_2">
    <path d="M 53.328125 228.96 
L 388.128125 228.96 
L 388.128125 7.2 
L 53.328125 7.2 
z
" style="fill: #ffffff"/>
   </g>
   <g id="matplotlib.axis_1">
    <g id="xtick_1">
     <g id="line2d_1">
      <defs>
       <path id="m8faf3b7068" d="M 0 0 
L 0 3.5 
" style="stroke: #000000; stroke-width: 0.8"/>
      </defs>
      <g>
       <use xlink:href="#m8faf3b7068" x="67.556051" y="228.96" style="stroke: #000000; stroke-width: 0.8"/>
      </g>
     </g>
     <g id="text_1">
      <!-- 25000 -->
      <g transform="translate(51.649801 243.558437) scale(0.1 -0.1)">
       <defs>
        <path id="DejaVuSans-32" d="M 1228 531 
L 3431 531 
L 3431 0 
L 469 0 
L 469 531 
Q 828 903 1448 1529 
Q 2069 2156 2228 2338 
Q 2531 2678 2651 2914 
Q 2772 3150 2772 3378 
Q 2772 3750 2511 3984 
Q 2250 4219 1831 4219 
Q 1534 4219 1204 4116 
Q 875 4013 500 3803 
L 500 4441 
Q 881 4594 1212 4672 
Q 1544 4750 1819 4750 
Q 2544 4750 2975 4387 
Q 3406 4025 3406 3419 
Q 3406 3131 3298 2873 
Q 3191 2616 2906 2266 
Q 2828 2175 2409 1742 
Q 1991 1309 1228 531 
z
" transform="scale(0.015625)"/>
        <path id="DejaVuSans-35" d="M 691 4666 
L 3169 4666 
L 3169 4134 
L 1269 4134 
L 1269 2991 
Q 1406 3038 1543 3061 
Q 1681 3084 1819 3084 
Q 2600 3084 3056 2656 
Q 3513 2228 3513 1497 
Q 3513 744 3044 326 
Q 2575 -91 1722 -91 
Q 1428 -91 1123 -41 
Q 819 9 494 109 
L 494 744 
Q 775 591 1075 516 
Q 1375 441 1709 441 
Q 2250 441 2565 725 
Q 2881 1009 2881 1497 
Q 2881 1984 2565 2268 
Q 2250 2553 1709 2553 
Q 1456 2553 1204 2497 
Q 953 2441 691 2322 
L 691 4666 
z
" transform="scale(0.015625)"/>
        <path id="DejaVuSans-30" d="M 2034 4250 
Q 1547 4250 1301 3770 
Q 1056 3291 1056 2328 
Q 1056 1369 1301 889 
Q 1547 409 2034 409 
Q 2525 409 2770 889 
Q 3016 1369 3016 2328 
Q 3016 3291 2770 3770 
Q 2525 4250 2034 4250 
z
M 2034 4750 
Q 2819 4750 3233 4129 
Q 3647 3509 3647 2328 
Q 3647 1150 3233 529 
Q 2819 -91 2034 -91 
Q 1250 -91 836 529 
Q 422 1150 422 2328 
Q 422 3509 836 4129 
Q 1250 4750 2034 4750 
z
" transform="scale(0.015625)"/>
       </defs>
       <use xlink:href="#DejaVuSans-32"/>
       <use xlink:href="#DejaVuSans-35" transform="translate(63.623047 0)"/>
       <use xlink:href="#DejaVuSans-30" transform="translate(127.246094 0)"/>
       <use xlink:href="#DejaVuSans-30" transform="translate(190.869141 0)"/>
       <use xlink:href="#DejaVuSans-30" transform="translate(254.492188 0)"/>
      </g>
     </g>
    </g>
    <g id="xtick_2">
     <g id="line2d_2">
      <g>
       <use xlink:href="#m8faf3b7068" x="108.116237" y="228.96" style="stroke: #000000; stroke-width: 0.8"/>
      </g>
     </g>
     <g id="text_2">
      <!-- 50000 -->
      <g transform="translate(92.209987 243.558437) scale(0.1 -0.1)">
       <use xlink:href="#DejaVuSans-35"/>
       <use xlink:href="#DejaVuSans-30" transform="translate(63.623047 0)"/>
       <use xlink:href="#DejaVuSans-30" transform="translate(127.246094 0)"/>
       <use xlink:href="#DejaVuSans-30" transform="translate(190.869141 0)"/>
       <use xlink:href="#DejaVuSans-30" transform="translate(254.492188 0)"/>
      </g>
     </g>
    </g>
    <g id="xtick_3">
     <g id="line2d_3">
      <g>
       <use xlink:href="#m8faf3b7068" x="148.676423" y="228.96" style="stroke: #000000; stroke-width: 0.8"/>
      </g>
     </g>
     <g id="text_3">
      <!-- 75000 -->
      <g transform="translate(132.770173 243.558437) scale(0.1 -0.1)">
       <defs>
        <path id="DejaVuSans-37" d="M 525 4666 
L 3525 4666 
L 3525 4397 
L 1831 0 
L 1172 0 
L 2766 4134 
L 525 4134 
L 525 4666 
z
" transform="scale(0.015625)"/>
       </defs>
       <use xlink:href="#DejaVuSans-37"/>
       <use xlink:href="#DejaVuSans-35" transform="translate(63.623047 0)"/>
       <use xlink:href="#DejaVuSans-30" transform="translate(127.246094 0)"/>
       <use xlink:href="#DejaVuSans-30" transform="translate(190.869141 0)"/>
       <use xlink:href="#DejaVuSans-30" transform="translate(254.492188 0)"/>
      </g>
     </g>
    </g>
    <g id="xtick_4">
     <g id="line2d_4">
      <g>
       <use xlink:href="#m8faf3b7068" x="189.236608" y="228.96" style="stroke: #000000; stroke-width: 0.8"/>
      </g>
     </g>
     <g id="text_4">
      <!-- 100000 -->
      <g transform="translate(170.149108 243.558437) scale(0.1 -0.1)">
       <defs>
        <path id="DejaVuSans-31" d="M 794 531 
L 1825 531 
L 1825 4091 
L 703 3866 
L 703 4441 
L 1819 4666 
L 2450 4666 
L 2450 531 
L 3481 531 
L 3481 0 
L 794 0 
L 794 531 
z
" transform="scale(0.015625)"/>
       </defs>
       <use xlink:href="#DejaVuSans-31"/>
       <use xlink:href="#DejaVuSans-30" transform="translate(63.623047 0)"/>
       <use xlink:href="#DejaVuSans-30" transform="translate(127.246094 0)"/>
       <use xlink:href="#DejaVuSans-30" transform="translate(190.869141 0)"/>
       <use xlink:href="#DejaVuSans-30" transform="translate(254.492188 0)"/>
       <use xlink:href="#DejaVuSans-30" transform="translate(318.115234 0)"/>
      </g>
     </g>
    </g>
    <g id="xtick_5">
     <g id="line2d_5">
      <g>
       <use xlink:href="#m8faf3b7068" x="229.796794" y="228.96" style="stroke: #000000; stroke-width: 0.8"/>
      </g>
     </g>
     <g id="text_5">
      <!-- 125000 -->
      <g transform="translate(210.709294 243.558437) scale(0.1 -0.1)">
       <use xlink:href="#DejaVuSans-31"/>
       <use xlink:href="#DejaVuSans-32" transform="translate(63.623047 0)"/>
       <use xlink:href="#DejaVuSans-35" transform="translate(127.246094 0)"/>
       <use xlink:href="#DejaVuSans-30" transform="translate(190.869141 0)"/>
       <use xlink:href="#DejaVuSans-30" transform="translate(254.492188 0)"/>
       <use xlink:href="#DejaVuSans-30" transform="translate(318.115234 0)"/>
      </g>
     </g>
    </g>
    <g id="xtick_6">
     <g id="line2d_6">
      <g>
       <use xlink:href="#m8faf3b7068" x="270.35698" y="228.96" style="stroke: #000000; stroke-width: 0.8"/>
      </g>
     </g>
     <g id="text_6">
      <!-- 150000 -->
      <g transform="translate(251.26948 243.558437) scale(0.1 -0.1)">
       <use xlink:href="#DejaVuSans-31"/>
       <use xlink:href="#DejaVuSans-35" transform="translate(63.623047 0)"/>
       <use xlink:href="#DejaVuSans-30" transform="translate(127.246094 0)"/>
       <use xlink:href="#DejaVuSans-30" transform="translate(190.869141 0)"/>
       <use xlink:href="#DejaVuSans-30" transform="translate(254.492188 0)"/>
       <use xlink:href="#DejaVuSans-30" transform="translate(318.115234 0)"/>
      </g>
     </g>
    </g>
    <g id="xtick_7">
     <g id="line2d_7">
      <g>
       <use xlink:href="#m8faf3b7068" x="310.917166" y="228.96" style="stroke: #000000; stroke-width: 0.8"/>
      </g>
     </g>
     <g id="text_7">
      <!-- 175000 -->
      <g transform="translate(291.829666 243.558437) scale(0.1 -0.1)">
       <use xlink:href="#DejaVuSans-31"/>
       <use xlink:href="#DejaVuSans-37" transform="translate(63.623047 0)"/>
       <use xlink:href="#DejaVuSans-35" transform="translate(127.246094 0)"/>
       <use xlink:href="#DejaVuSans-30" transform="translate(190.869141 0)"/>
       <use xlink:href="#DejaVuSans-30" transform="translate(254.492188 0)"/>
       <use xlink:href="#DejaVuSans-30" transform="translate(318.115234 0)"/>
      </g>
     </g>
    </g>
    <g id="xtick_8">
     <g id="line2d_8">
      <g>
       <use xlink:href="#m8faf3b7068" x="351.477351" y="228.96" style="stroke: #000000; stroke-width: 0.8"/>
      </g>
     </g>
     <g id="text_8">
      <!-- 200000 -->
      <g transform="translate(332.389851 243.558437) scale(0.1 -0.1)">
       <use xlink:href="#DejaVuSans-32"/>
       <use xlink:href="#DejaVuSans-30" transform="translate(63.623047 0)"/>
       <use xlink:href="#DejaVuSans-30" transform="translate(127.246094 0)"/>
       <use xlink:href="#DejaVuSans-30" transform="translate(190.869141 0)"/>
       <use xlink:href="#DejaVuSans-30" transform="translate(254.492188 0)"/>
       <use xlink:href="#DejaVuSans-30" transform="translate(318.115234 0)"/>
      </g>
     </g>
    </g>
    <g id="text_9">
     <!-- toa [µs] -->
     <g transform="translate(201.367969 257.236562) scale(0.1 -0.1)">
      <defs>
       <path id="DejaVuSans-74" d="M 1172 4494 
L 1172 3500 
L 2356 3500 
L 2356 3053 
L 1172 3053 
L 1172 1153 
Q 1172 725 1289 603 
Q 1406 481 1766 481 
L 2356 481 
L 2356 0 
L 1766 0 
Q 1100 0 847 248 
Q 594 497 594 1153 
L 594 3053 
L 172 3053 
L 172 3500 
L 594 3500 
L 594 4494 
L 1172 4494 
z
" transform="scale(0.015625)"/>
       <path id="DejaVuSans-6f" d="M 1959 3097 
Q 1497 3097 1228 2736 
Q 959 2375 959 1747 
Q 959 1119 1226 758 
Q 1494 397 1959 397 
Q 2419 397 2687 759 
Q 2956 1122 2956 1747 
Q 2956 2369 2687 2733 
Q 2419 3097 1959 3097 
z
M 1959 3584 
Q 2709 3584 3137 3096 
Q 3566 2609 3566 1747 
Q 3566 888 3137 398 
Q 2709 -91 1959 -91 
Q 1206 -91 779 398 
Q 353 888 353 1747 
Q 353 2609 779 3096 
Q 1206 3584 1959 3584 
z
" transform="scale(0.015625)"/>
       <path id="DejaVuSans-61" d="M 2194 1759 
Q 1497 1759 1228 1600 
Q 959 1441 959 1056 
Q 959 750 1161 570 
Q 1363 391 1709 391 
Q 2188 391 2477 730 
Q 2766 1069 2766 1631 
L 2766 1759 
L 2194 1759 
z
M 3341 1997 
L 3341 0 
L 2766 0 
L 2766 531 
Q 2569 213 2275 61 
Q 1981 -91 1556 -91 
Q 1019 -91 701 211 
Q 384 513 384 1019 
Q 384 1609 779 1909 
Q 1175 2209 1959 2209 
L 2766 2209 
L 2766 2266 
Q 2766 2663 2505 2880 
Q 2244 3097 1772 3097 
Q 1472 3097 1187 3025 
Q 903 2953 641 2809 
L 641 3341 
Q 956 3463 1253 3523 
Q 1550 3584 1831 3584 
Q 2591 3584 2966 3190 
Q 3341 2797 3341 1997 
z
" transform="scale(0.015625)"/>
       <path id="DejaVuSans-20" transform="scale(0.015625)"/>
       <path id="DejaVuSans-5b" d="M 550 4863 
L 1875 4863 
L 1875 4416 
L 1125 4416 
L 1125 -397 
L 1875 -397 
L 1875 -844 
L 550 -844 
L 550 4863 
z
" transform="scale(0.015625)"/>
       <path id="DejaVuSans-b5" d="M 544 -1331 
L 544 3500 
L 1119 3500 
L 1119 1325 
Q 1119 872 1334 640 
Q 1550 409 1972 409 
Q 2434 409 2667 671 
Q 2900 934 2900 1459 
L 2900 3500 
L 3475 3500 
L 3475 806 
Q 3475 619 3529 530 
Q 3584 441 3700 441 
Q 3728 441 3778 458 
Q 3828 475 3916 513 
L 3916 50 
Q 3788 -22 3673 -56 
Q 3559 -91 3450 -91 
Q 3234 -91 3106 31 
Q 2978 153 2931 403 
Q 2775 156 2548 32 
Q 2322 -91 2016 -91 
Q 1697 -91 1473 31 
Q 1250 153 1119 397 
L 1119 -1331 
L 544 -1331 
z
" transform="scale(0.015625)"/>
       <path id="DejaVuSans-73" d="M 2834 3397 
L 2834 2853 
Q 2591 2978 2328 3040 
Q 2066 3103 1784 3103 
Q 1356 3103 1142 2972 
Q 928 2841 928 2578 
Q 928 2378 1081 2264 
Q 1234 2150 1697 2047 
L 1894 2003 
Q 2506 1872 2764 1633 
Q 3022 1394 3022 966 
Q 3022 478 2636 193 
Q 2250 -91 1575 -91 
Q 1294 -91 989 -36 
Q 684 19 347 128 
L 347 722 
Q 666 556 975 473 
Q 1284 391 1588 391 
Q 1994 391 2212 530 
Q 2431 669 2431 922 
Q 2431 1156 2273 1281 
Q 2116 1406 1581 1522 
L 1381 1569 
Q 847 1681 609 1914 
Q 372 2147 372 2553 
Q 372 3047 722 3315 
Q 1072 3584 1716 3584 
Q 2034 3584 2315 3537 
Q 2597 3491 2834 3397 
z
" transform="scale(0.015625)"/>
       <path id="DejaVuSans-5d" d="M 1947 4863 
L 1947 -844 
L 622 -844 
L 622 -397 
L 1369 -397 
L 1369 4416 
L 622 4416 
L 622 4863 
L 1947 4863 
z
" transform="scale(0.015625)"/>
      </defs>
      <use xlink:href="#DejaVuSans-74"/>
      <use xlink:href="#DejaVuSans-6f" transform="translate(39.208984 0)"/>
      <use xlink:href="#DejaVuSans-61" transform="translate(100.390625 0)"/>
      <use xlink:href="#DejaVuSans-20" transform="translate(161.669922 0)"/>
      <use xlink:href="#DejaVuSans-5b" transform="translate(193.457031 0)"/>
      <use xlink:href="#DejaVuSans-b5" transform="translate(232.470703 0)"/>
      <use xlink:href="#DejaVuSans-73" transform="translate(296.09375 0)"/>
      <use xlink:href="#DejaVuSans-5d" transform="translate(348.193359 0)"/>
     </g>
    </g>
   </g>
   <g id="matplotlib.axis_2">
    <g id="ytick_1">
     <g id="line2d_9">
      <defs>
       <path id="mbea7ea7a01" d="M 0 0 
L -3.5 0 
" style="stroke: #000000; stroke-width: 0.8"/>
      </defs>
      <g>
       <use xlink:href="#mbea7ea7a01" x="53.328125" y="218.88" style="stroke: #000000; stroke-width: 0.8"/>
      </g>
     </g>
     <g id="text_10">
      <!-- 0 -->
      <g transform="translate(39.965625 222.679219) scale(0.1 -0.1)">
       <use xlink:href="#DejaVuSans-30"/>
      </g>
     </g>
    </g>
    <g id="ytick_2">
     <g id="line2d_10">
      <g>
       <use xlink:href="#mbea7ea7a01" x="53.328125" y="182.125214" style="stroke: #000000; stroke-width: 0.8"/>
      </g>
     </g>
     <g id="text_11">
      <!-- 200 -->
      <g transform="translate(27.240625 185.924433) scale(0.1 -0.1)">
       <use xlink:href="#DejaVuSans-32"/>
       <use xlink:href="#DejaVuSans-30" transform="translate(63.623047 0)"/>
       <use xlink:href="#DejaVuSans-30" transform="translate(127.246094 0)"/>
      </g>
     </g>
    </g>
    <g id="ytick_3">
     <g id="line2d_11">
      <g>
       <use xlink:href="#mbea7ea7a01" x="53.328125" y="145.370428" style="stroke: #000000; stroke-width: 0.8"/>
      </g>
     </g>
     <g id="text_12">
      <!-- 400 -->
      <g transform="translate(27.240625 149.169647) scale(0.1 -0.1)">
       <defs>
        <path id="DejaVuSans-34" d="M 2419 4116 
L 825 1625 
L 2419 1625 
L 2419 4116 
z
M 2253 4666 
L 3047 4666 
L 3047 1625 
L 3713 1625 
L 3713 1100 
L 3047 1100 
L 3047 0 
L 2419 0 
L 2419 1100 
L 313 1100 
L 313 1709 
L 2253 4666 
z
" transform="scale(0.015625)"/>
       </defs>
       <use xlink:href="#DejaVuSans-34"/>
       <use xlink:href="#DejaVuSans-30" transform="translate(63.623047 0)"/>
       <use xlink:href="#DejaVuSans-30" transform="translate(127.246094 0)"/>
      </g>
     </g>
    </g>
    <g id="ytick_4">
     <g id="line2d_12">
      <g>
       <use xlink:href="#mbea7ea7a01" x="53.328125" y="108.615643" style="stroke: #000000; stroke-width: 0.8"/>
      </g>
     </g>
     <g id="text_13">
      <!-- 600 -->
      <g transform="translate(27.240625 112.414861) scale(0.1 -0.1)">
       <defs>
        <path id="DejaVuSans-36" d="M 2113 2584 
Q 1688 2584 1439 2293 
Q 1191 2003 1191 1497 
Q 1191 994 1439 701 
Q 1688 409 2113 409 
Q 2538 409 2786 701 
Q 3034 994 3034 1497 
Q 3034 2003 2786 2293 
Q 2538 2584 2113 2584 
z
M 3366 4563 
L 3366 3988 
Q 3128 4100 2886 4159 
Q 2644 4219 2406 4219 
Q 1781 4219 1451 3797 
Q 1122 3375 1075 2522 
Q 1259 2794 1537 2939 
Q 1816 3084 2150 3084 
Q 2853 3084 3261 2657 
Q 3669 2231 3669 1497 
Q 3669 778 3244 343 
Q 2819 -91 2113 -91 
Q 1303 -91 875 529 
Q 447 1150 447 2328 
Q 447 3434 972 4092 
Q 1497 4750 2381 4750 
Q 2619 4750 2861 4703 
Q 3103 4656 3366 4563 
z
" transform="scale(0.015625)"/>
       </defs>
       <use xlink:href="#DejaVuSans-36"/>
       <use xlink:href="#DejaVuSans-30" transform="translate(63.623047 0)"/>
       <use xlink:href="#DejaVuSans-30" transform="translate(127.246094 0)"/>
      </g>
     </g>
    </g>
    <g id="ytick_5">
     <g id="line2d_13">
      <g>
       <use xlink:href="#mbea7ea7a01" x="53.328125" y="71.860857" style="stroke: #000000; stroke-width: 0.8"/>
      </g>
     </g>
     <g id="text_14">
      <!-- 800 -->
      <g transform="translate(27.240625 75.660076) scale(0.1 -0.1)">
       <defs>
        <path id="DejaVuSans-38" d="M 2034 2216 
Q 1584 2216 1326 1975 
Q 1069 1734 1069 1313 
Q 1069 891 1326 650 
Q 1584 409 2034 409 
Q 2484 409 2743 651 
Q 3003 894 3003 1313 
Q 3003 1734 2745 1975 
Q 2488 2216 2034 2216 
z
M 1403 2484 
Q 997 2584 770 2862 
Q 544 3141 544 3541 
Q 544 4100 942 4425 
Q 1341 4750 2034 4750 
Q 2731 4750 3128 4425 
Q 3525 4100 3525 3541 
Q 3525 3141 3298 2862 
Q 3072 2584 2669 2484 
Q 3125 2378 3379 2068 
Q 3634 1759 3634 1313 
Q 3634 634 3220 271 
Q 2806 -91 2034 -91 
Q 1263 -91 848 271 
Q 434 634 434 1313 
Q 434 1759 690 2068 
Q 947 2378 1403 2484 
z
M 1172 3481 
Q 1172 3119 1398 2916 
Q 1625 2713 2034 2713 
Q 2441 2713 2670 2916 
Q 2900 3119 2900 3481 
Q 2900 3844 2670 4047 
Q 2441 4250 2034 4250 
Q 1625 4250 1398 4047 
Q 1172 3844 1172 3481 
z
" transform="scale(0.015625)"/>
       </defs>
       <use xlink:href="#DejaVuSans-38"/>
       <use xlink:href="#DejaVuSans-30" transform="translate(63.623047 0)"/>
       <use xlink:href="#DejaVuSans-30" transform="translate(127.246094 0)"/>
      </g>
     </g>
    </g>
    <g id="ytick_6">
     <g id="line2d_14">
      <g>
       <use xlink:href="#mbea7ea7a01" x="53.328125" y="35.106071" style="stroke: #000000; stroke-width: 0.8"/>
      </g>
     </g>
     <g id="text_15">
      <!-- 1000 -->
      <g transform="translate(20.878125 38.90529) scale(0.1 -0.1)">
       <use xlink:href="#DejaVuSans-31"/>
       <use xlink:href="#DejaVuSans-30" transform="translate(63.623047 0)"/>
       <use xlink:href="#DejaVuSans-30" transform="translate(127.246094 0)"/>
       <use xlink:href="#DejaVuSans-30" transform="translate(190.869141 0)"/>
      </g>
     </g>
    </g>
    <g id="text_16">
     <!-- [counts] -->
     <g transform="translate(14.798438 138.6925) rotate(-90) scale(0.1 -0.1)">
      <defs>
       <path id="DejaVuSans-63" d="M 3122 3366 
L 3122 2828 
Q 2878 2963 2633 3030 
Q 2388 3097 2138 3097 
Q 1578 3097 1268 2742 
Q 959 2388 959 1747 
Q 959 1106 1268 751 
Q 1578 397 2138 397 
Q 2388 397 2633 464 
Q 2878 531 3122 666 
L 3122 134 
Q 2881 22 2623 -34 
Q 2366 -91 2075 -91 
Q 1284 -91 818 406 
Q 353 903 353 1747 
Q 353 2603 823 3093 
Q 1294 3584 2113 3584 
Q 2378 3584 2631 3529 
Q 2884 3475 3122 3366 
z
" transform="scale(0.015625)"/>
       <path id="DejaVuSans-75" d="M 544 1381 
L 544 3500 
L 1119 3500 
L 1119 1403 
Q 1119 906 1312 657 
Q 1506 409 1894 409 
Q 2359 409 2629 706 
Q 2900 1003 2900 1516 
L 2900 3500 
L 3475 3500 
L 3475 0 
L 2900 0 
L 2900 538 
Q 2691 219 2414 64 
Q 2138 -91 1772 -91 
Q 1169 -91 856 284 
Q 544 659 544 1381 
z
M 1991 3584 
L 1991 3584 
z
" transform="scale(0.015625)"/>
       <path id="DejaVuSans-6e" d="M 3513 2113 
L 3513 0 
L 2938 0 
L 2938 2094 
Q 2938 2591 2744 2837 
Q 2550 3084 2163 3084 
Q 1697 3084 1428 2787 
Q 1159 2491 1159 1978 
L 1159 0 
L 581 0 
L 581 3500 
L 1159 3500 
L 1159 2956 
Q 1366 3272 1645 3428 
Q 1925 3584 2291 3584 
Q 2894 3584 3203 3211 
Q 3513 2838 3513 2113 
z
" transform="scale(0.015625)"/>
      </defs>
      <use xlink:href="#DejaVuSans-5b"/>
      <use xlink:href="#DejaVuSans-63" transform="translate(39.013672 0)"/>
      <use xlink:href="#DejaVuSans-6f" transform="translate(93.994141 0)"/>
      <use xlink:href="#DejaVuSans-75" transform="translate(155.175781 0)"/>
      <use xlink:href="#DejaVuSans-6e" transform="translate(218.554688 0)"/>
      <use xlink:href="#DejaVuSans-74" transform="translate(281.933594 0)"/>
      <use xlink:href="#DejaVuSans-73" transform="translate(321.142578 0)"/>
      <use xlink:href="#DejaVuSans-5d" transform="translate(373.242188 0)"/>
     </g>
    </g>
   </g>
   <g id="line2d_15">
    <path d="M 58.013208 194.989389 
L 58.325547 194.989389 
L 58.325547 140.040985 
L 58.637886 140.040985 
L 58.637886 107.145451 
L 58.950225 107.145451 
L 58.950225 98.324303 
L 59.262564 98.324303 
L 59.262564 90.973345 
L 59.574903 90.973345 
L 59.574903 91.524667 
L 59.887242 91.524667 
L 59.887242 90.973345 
L 60.199581 90.973345 
L 60.199581 89.870702 
L 60.51192 89.870702 
L 60.51192 75.720109 
L 60.824259 75.720109 
L 60.824259 62.120839 
L 61.136597 62.120839 
L 61.136597 61.385743 
L 61.448936 61.385743 
L 61.448936 50.543081 
L 61.761275 50.543081 
L 61.761275 47.051376 
L 62.073614 47.051376 
L 62.073614 52.013273 
L 62.385953 52.013273 
L 62.385953 40.803063 
L 62.698292 40.803063 
L 62.698292 35.106071 
L 63.010631 35.106071 
L 63.010631 31.614366 
L 63.32297 31.614366 
L 63.32297 21.139253 
L 63.635309 21.139253 
L 63.635309 24.998505 
L 63.947648 24.998505 
L 63.947648 22.976992 
L 64.259986 22.976992 
L 64.259986 28.857758 
L 64.572325 28.857758 
L 64.572325 27.020018 
L 64.884664 27.020018 
L 64.884664 17.28 
L 65.197003 17.28 
L 65.197003 31.430593 
L 65.509342 31.430593 
L 65.509342 42.640802 
L 65.821681 42.640802 
L 65.821681 23.895861 
L 66.13402 23.895861 
L 66.13402 40.803063 
L 66.446359 40.803063 
L 66.446359 53.115916 
L 66.758698 53.115916 
L 66.758698 58.44536 
L 67.071037 58.44536 
L 67.071037 55.872525 
L 67.383375 55.872525 
L 67.383375 65.612543 
L 67.695714 65.612543 
L 67.695714 70.206892 
L 68.008053 70.206892 
L 68.008053 86.195223 
L 68.320392 86.195223 
L 68.320392 99.059398 
L 68.632731 99.059398 
L 68.632731 105.491486 
L 68.94507 105.491486 
L 68.94507 114.128861 
L 69.257409 114.128861 
L 69.257409 124.603974 
L 69.569748 124.603974 
L 69.569748 144.084011 
L 69.882087 144.084011 
L 69.882087 148.678359 
L 70.194426 148.678359 
L 70.194426 156.580638 
L 70.506764 156.580638 
L 70.506764 166.871978 
L 70.819103 166.871978 
L 70.819103 180.103701 
L 71.131442 180.103701 
L 71.131442 186.352015 
L 71.443781 186.352015 
L 71.443781 191.130137 
L 71.75612 191.130137 
L 71.75612 199.399964 
L 72.068459 199.399964 
L 72.068459 207.66979 
L 72.380798 207.66979 
L 72.380798 214.101878 
L 72.693137 214.101878 
L 72.693137 216.858487 
L 73.005476 216.858487 
L 73.005476 218.88 
L 75.816526 218.88 
L 75.816526 206.934695 
L 76.128865 206.934695 
L 76.128865 164.666691 
L 76.441204 164.666691 
L 76.441204 125.522844 
L 76.753542 125.522844 
L 76.753542 98.875624 
L 77.065881 98.875624 
L 77.065881 83.989936 
L 77.37822 83.989936 
L 77.37822 76.087657 
L 77.690559 76.087657 
L 77.690559 85.276354 
L 78.002898 85.276354 
L 78.002898 103.286199 
L 78.315237 103.286199 
L 78.315237 92.994859 
L 78.627576 92.994859 
L 78.627576 96.486563 
L 78.939915 96.486563 
L 78.939915 107.145451 
L 79.252254 107.145451 
L 79.252254 102.734877 
L 79.564593 102.734877 
L 79.564593 96.302789 
L 79.876931 96.302789 
L 79.876931 108.615643 
L 80.18927 108.615643 
L 80.18927 98.508077 
L 80.501609 98.508077 
L 80.501609 117.988113 
L 80.813948 117.988113 
L 80.813948 120.928496 
L 81.126287 120.928496 
L 81.126287 109.166964 
L 81.438626 109.166964 
L 81.438626 112.474895 
L 81.750965 112.474895 
L 81.750965 117.069243 
L 82.063304 117.069243 
L 82.063304 119.090757 
L 82.375643 119.090757 
L 82.375643 112.291121 
L 82.687982 112.291121 
L 82.687982 117.804339 
L 83.00032 117.804339 
L 83.00032 124.420201 
L 83.312659 124.420201 
L 83.312659 119.642078 
L 83.937337 119.642078 
L 83.937337 124.052653 
L 84.249676 124.052653 
L 84.249676 127.911905 
L 84.562015 127.911905 
L 84.562015 126.809262 
L 84.874354 126.809262 
L 84.874354 126.993036 
L 85.186693 126.993036 
L 85.186693 138.019471 
L 85.499032 138.019471 
L 85.499032 126.625488 
L 85.811371 126.625488 
L 85.811371 135.079088 
L 86.123709 135.079088 
L 86.123709 139.857211 
L 86.436048 139.857211 
L 86.436048 139.673437 
L 86.748387 139.673437 
L 86.748387 140.040985 
L 87.060726 140.040985 
L 87.060726 148.678359 
L 87.373065 148.678359 
L 87.373065 151.06742 
L 87.685404 151.06742 
L 87.685404 150.148551 
L 87.997743 150.148551 
L 87.997743 149.964777 
L 88.310082 149.964777 
L 88.310082 156.396864 
L 88.622421 156.396864 
L 88.622421 162.828952 
L 88.93476 162.828952 
L 88.93476 167.607074 
L 89.247098 167.607074 
L 89.247098 167.974622 
L 89.559437 167.974622 
L 89.559437 178.449736 
L 89.871776 178.449736 
L 89.871776 184.330501 
L 90.184115 184.330501 
L 90.184115 190.027493 
L 90.496454 190.027493 
L 90.496454 198.113546 
L 90.808793 198.113546 
L 90.808793 202.891668 
L 91.121132 202.891668 
L 91.121132 207.66979 
L 91.433471 207.66979 
L 91.433471 210.793947 
L 91.74581 210.793947 
L 91.74581 214.836974 
L 92.058149 214.836974 
L 92.058149 216.490939 
L 92.370487 216.490939 
L 92.370487 218.512452 
L 92.682826 218.512452 
L 92.682826 216.123391 
L 92.995165 216.123391 
L 92.995165 204.729407 
L 93.307504 204.729407 
L 93.307504 189.843719 
L 93.619843 189.843719 
L 93.619843 180.471249 
L 93.932182 180.471249 
L 93.932182 165.769335 
L 94.244521 165.769335 
L 94.244521 163.380273 
L 94.55686 163.380273 
L 94.55686 149.413455 
L 94.869199 149.413455 
L 94.869199 149.781003 
L 95.181538 149.781003 
L 95.181538 156.580638 
L 95.493876 156.580638 
L 95.493876 156.948186 
L 95.806215 156.948186 
L 95.806215 158.602151 
L 96.118554 158.602151 
L 96.118554 157.13196 
L 96.430893 157.13196 
L 96.430893 157.867056 
L 96.743232 157.867056 
L 96.743232 162.27763 
L 97.055571 162.27763 
L 97.055571 158.234603 
L 97.36791 158.234603 
L 97.36791 161.174986 
L 97.680249 161.174986 
L 97.680249 161.910082 
L 97.992588 161.910082 
L 97.992588 165.218013 
L 98.304927 165.218013 
L 98.304927 160.623665 
L 98.617265 160.623665 
L 98.617265 163.931595 
L 98.929604 163.931595 
L 98.929604 161.910082 
L 99.241943 161.910082 
L 99.241943 165.585561 
L 99.554282 165.585561 
L 99.554282 169.996135 
L 99.866621 169.996135 
L 99.866621 171.282552 
L 100.17896 171.282552 
L 100.17896 172.56897 
L 100.491299 172.56897 
L 100.491299 177.898414 
L 100.803638 177.898414 
L 100.803638 174.039161 
L 101.115977 174.039161 
L 101.115977 176.79577 
L 101.428316 176.79577 
L 101.428316 179.919927 
L 101.740654 179.919927 
L 101.740654 184.881823 
L 102.052993 184.881823 
L 102.052993 185.249371 
L 102.365332 185.249371 
L 102.365332 186.535789 
L 102.677671 186.535789 
L 102.677671 187.454658 
L 102.99001 187.454658 
L 102.99001 192.23278 
L 103.302349 192.23278 
L 103.302349 187.270884 
L 103.614688 187.270884 
L 103.614688 197.010902 
L 103.927027 197.010902 
L 103.927027 195.173163 
L 104.239366 195.173163 
L 104.239366 193.702972 
L 104.551705 193.702972 
L 104.551705 197.562224 
L 104.864043 197.562224 
L 104.864043 198.848642 
L 105.176382 198.848642 
L 105.176382 200.686381 
L 105.488721 200.686381 
L 105.488721 202.340346 
L 105.80106 202.340346 
L 105.80106 203.810538 
L 106.113399 203.810538 
L 106.113399 210.426399 
L 106.425738 210.426399 
L 106.425738 211.161495 
L 106.738077 211.161495 
L 106.738077 212.447912 
L 107.050416 212.447912 
L 107.050416 216.307165 
L 107.362755 216.307165 
L 107.362755 217.777356 
L 107.987432 217.777356 
L 107.987432 214.836974 
L 108.299771 214.836974 
L 108.299771 212.080365 
L 108.61211 212.080365 
L 108.61211 201.789025 
L 108.924449 201.789025 
L 108.924449 197.37845 
L 109.236788 197.37845 
L 109.236788 193.335424 
L 109.549127 193.335424 
L 109.549127 182.125214 
L 109.861466 182.125214 
L 109.861466 188.92485 
L 110.173805 188.92485 
L 110.173805 187.270884 
L 110.486144 187.270884 
L 110.486144 191.313911 
L 110.798483 191.313911 
L 110.798483 194.07052 
L 111.110821 194.07052 
L 111.110821 190.946363 
L 111.42316 190.946363 
L 111.42316 193.702972 
L 111.735499 193.702972 
L 111.735499 195.724485 
L 112.047838 195.724485 
L 112.047838 192.967876 
L 112.360177 192.967876 
L 112.360177 198.848642 
L 112.672516 198.848642 
L 112.672516 200.135059 
L 112.984855 200.135059 
L 112.984855 200.686381 
L 113.297194 200.686381 
L 113.297194 201.237703 
L 113.609533 201.237703 
L 113.609533 202.156572 
L 113.921872 202.156572 
L 113.921872 200.686381 
L 114.23421 200.686381 
L 114.23421 205.096955 
L 114.546549 205.096955 
L 114.546549 205.464503 
L 114.858888 205.464503 
L 114.858888 204.36186 
L 115.171227 204.36186 
L 115.171227 207.118469 
L 115.483566 207.118469 
L 115.483566 207.302242 
L 115.795905 207.302242 
L 115.795905 207.66979 
L 116.108244 207.66979 
L 116.108244 209.323756 
L 116.420583 209.323756 
L 116.420583 209.139982 
L 116.732922 209.139982 
L 116.732922 208.772434 
L 117.045261 208.772434 
L 117.045261 209.691304 
L 117.357599 209.691304 
L 117.357599 212.264139 
L 117.669938 212.264139 
L 117.669938 213.73433 
L 117.982277 213.73433 
L 117.982277 209.875077 
L 118.294616 209.875077 
L 118.294616 211.896591 
L 118.606955 211.896591 
L 118.606955 211.712817 
L 118.919294 211.712817 
L 118.919294 213.73433 
L 119.231633 213.73433 
L 119.231633 215.388295 
L 119.543972 215.388295 
L 119.543972 216.674713 
L 119.856311 216.674713 
L 119.856311 215.755843 
L 120.16865 215.755843 
L 120.16865 217.409809 
L 120.480988 217.409809 
L 120.480988 217.042261 
L 120.793327 217.042261 
L 120.793327 217.777356 
L 121.105666 217.777356 
L 121.105666 217.593582 
L 121.418005 217.593582 
L 121.418005 218.512452 
L 121.730344 218.512452 
L 121.730344 218.88 
L 122.667361 218.88 
L 122.667361 217.593582 
L 122.9797 217.593582 
L 122.9797 216.490939 
L 123.292039 216.490939 
L 123.292039 210.058851 
L 123.604377 210.058851 
L 123.604377 210.977721 
L 123.916716 210.977721 
L 123.916716 207.118469 
L 124.229055 207.118469 
L 124.229055 203.075442 
L 124.541394 203.075442 
L 124.541394 205.832051 
L 124.853733 205.832051 
L 124.853733 208.956208 
L 125.166072 208.956208 
L 125.166072 206.750921 
L 125.478411 206.750921 
L 125.478411 208.221112 
L 125.79075 208.221112 
L 125.79075 209.691304 
L 126.103089 209.691304 
L 126.103089 206.567147 
L 126.415428 206.567147 
L 126.415428 209.139982 
L 126.727766 209.139982 
L 126.727766 207.66979 
L 127.040105 207.66979 
L 127.040105 212.631686 
L 127.352444 212.631686 
L 127.352444 209.875077 
L 127.664783 209.875077 
L 127.664783 209.139982 
L 127.977122 209.139982 
L 127.977122 211.345269 
L 128.289461 211.345269 
L 128.289461 208.956208 
L 128.6018 208.956208 
L 128.6018 211.345269 
L 128.914139 211.345269 
L 128.914139 213.183008 
L 129.226478 213.183008 
L 129.226478 212.631686 
L 129.538816 212.631686 
L 129.538816 213.73433 
L 129.851155 213.73433 
L 129.851155 212.080365 
L 130.163494 212.080365 
L 130.163494 214.285652 
L 130.475833 214.285652 
L 130.475833 215.388295 
L 130.788172 215.388295 
L 130.788172 215.020747 
L 131.100511 215.020747 
L 131.100511 217.409809 
L 131.41285 217.409809 
L 131.41285 215.388295 
L 131.725189 215.388295 
L 131.725189 215.204521 
L 132.037528 215.204521 
L 132.037528 217.042261 
L 132.349867 217.042261 
L 132.349867 216.490939 
L 132.662205 216.490939 
L 132.662205 217.226035 
L 132.974544 217.226035 
L 132.974544 218.328678 
L 133.286883 218.328678 
L 133.286883 218.144904 
L 133.599222 218.144904 
L 133.599222 217.777356 
L 133.911561 217.777356 
L 133.911561 218.144904 
L 134.536239 218.144904 
L 134.536239 218.512452 
L 135.473256 218.512452 
L 135.473256 218.88 
L 137.347289 218.88 
L 137.347289 217.593582 
L 137.659628 217.593582 
L 137.659628 216.674713 
L 137.971967 216.674713 
L 137.971967 213.918104 
L 138.284306 213.918104 
L 138.284306 209.691304 
L 138.596645 209.691304 
L 138.596645 208.772434 
L 138.908983 208.772434 
L 138.908983 207.486016 
L 139.221322 207.486016 
L 139.221322 207.853564 
L 139.533661 207.853564 
L 139.533661 203.075442 
L 139.846 203.075442 
L 139.846 205.648277 
L 140.158339 205.648277 
L 140.158339 201.237703 
L 140.783017 201.237703 
L 140.783017 200.870155 
L 141.095356 200.870155 
L 141.095356 205.464503 
L 141.407695 205.464503 
L 141.407695 201.972799 
L 141.720034 201.972799 
L 141.720034 203.075442 
L 142.032372 203.075442 
L 142.032372 207.486016 
L 142.344711 207.486016 
L 142.344711 202.891668 
L 142.65705 202.891668 
L 142.65705 204.36186 
L 142.969389 204.36186 
L 142.969389 204.913181 
L 143.281728 204.913181 
L 143.281728 205.096955 
L 143.594067 205.096955 
L 143.594067 204.36186 
L 143.906406 204.36186 
L 143.906406 205.648277 
L 144.218745 205.648277 
L 144.218745 201.237703 
L 144.531084 201.237703 
L 144.531084 206.199599 
L 144.843423 206.199599 
L 144.843423 209.139982 
L 145.155761 209.139982 
L 145.155761 208.037338 
L 145.4681 208.037338 
L 145.4681 207.302242 
L 145.780439 207.302242 
L 145.780439 207.486016 
L 146.092778 207.486016 
L 146.092778 208.58866 
L 146.405117 208.58866 
L 146.405117 207.66979 
L 146.717456 207.66979 
L 146.717456 208.956208 
L 147.029795 208.956208 
L 147.029795 210.058851 
L 147.342134 210.058851 
L 147.342134 209.691304 
L 147.654473 209.691304 
L 147.654473 209.323756 
L 147.966812 209.323756 
L 147.966812 209.691304 
L 148.27915 209.691304 
L 148.27915 211.896591 
L 148.591489 211.896591 
L 148.591489 212.080365 
L 148.903828 212.080365 
L 148.903828 212.264139 
L 149.528506 212.264139 
L 149.528506 213.183008 
L 149.840845 213.183008 
L 149.840845 215.755843 
L 150.153184 215.755843 
L 150.153184 213.366782 
L 150.465523 213.366782 
L 150.465523 214.836974 
L 150.777862 214.836974 
L 150.777862 215.388295 
L 151.090201 215.388295 
L 151.090201 217.96113 
L 151.402539 217.96113 
L 151.402539 217.409809 
L 151.714878 217.409809 
L 151.714878 217.409809 
" clip-path="url(#p5a9528dda0)" style="fill: none; stroke: #1f77b4; stroke-width: 1.5; stroke-linecap: square"/>
   </g>
   <g id="line2d_16">
    <path d="M 173.91478 186.535789 
L 174.226956 186.535789 
L 174.226956 148.127037 
L 174.539132 148.127037 
L 174.539132 104.388842 
L 174.851308 104.388842 
L 174.851308 92.259763 
L 175.163484 92.259763 
L 175.163484 83.806162 
L 175.47566 83.806162 
L 175.47566 83.25484 
L 175.787836 83.25484 
L 175.787836 88.032963 
L 176.100012 88.032963 
L 176.100012 84.908806 
L 176.412188 84.908806 
L 176.412188 65.980091 
L 176.724364 65.980091 
L 176.724364 69.104248 
L 177.03654 69.104248 
L 177.03654 58.996682 
L 177.348716 58.996682 
L 177.348716 52.564594 
L 177.660893 52.564594 
L 177.660893 47.23515 
L 177.973069 47.23515 
L 177.973069 49.624211 
L 178.285245 49.624211 
L 178.285245 51.278177 
L 178.597421 51.278177 
L 178.597421 38.046454 
L 178.909597 38.046454 
L 178.909597 34.554749 
L 179.221773 34.554749 
L 179.221773 27.57134 
L 179.533949 27.57134 
L 179.533949 28.49021 
L 179.846125 28.49021 
L 179.846125 30.327949 
L 180.158301 30.327949 
L 180.158301 27.755114 
L 180.470477 27.755114 
L 180.470477 34.003428 
L 180.782653 34.003428 
L 180.782653 30.879271 
L 181.094829 30.879271 
L 181.094829 31.981914 
L 181.407005 31.981914 
L 181.407005 37.678906 
L 181.719181 37.678906 
L 181.719181 38.597776 
L 182.031357 38.597776 
L 182.031357 40.619289 
L 182.343533 40.619289 
L 182.343533 39.149098 
L 182.967885 39.149098 
L 182.967885 50.359307 
L 183.280062 50.359307 
L 183.280062 63.958578 
L 183.592238 63.958578 
L 183.592238 85.276354 
L 183.904414 85.276354 
L 183.904414 84.725032 
L 184.21659 84.725032 
L 184.21659 102.183555 
L 184.528766 102.183555 
L 184.528766 115.231504 
L 184.840942 115.231504 
L 184.840942 111.739799 
L 185.153118 111.739799 
L 185.153118 124.971522 
L 185.465294 124.971522 
L 185.465294 140.592306 
L 185.77747 140.592306 
L 185.77747 145.186655 
L 186.089646 145.186655 
L 186.089646 156.396864 
L 186.401822 156.396864 
L 186.401822 167.239526 
L 186.713998 167.239526 
L 186.713998 176.79577 
L 187.026174 176.79577 
L 187.026174 182.492762 
L 187.33835 182.492762 
L 187.33835 189.292397 
L 187.650526 189.292397 
L 187.650526 201.237703 
L 187.962702 201.237703 
L 187.962702 208.956208 
L 188.274878 208.956208 
L 188.274878 214.285652 
L 188.587054 214.285652 
L 188.587054 218.328678 
L 188.89923 218.328678 
L 188.89923 218.88 
L 191.708815 218.88 
L 191.708815 206.199599 
L 192.020991 206.199599 
L 192.020991 170.547457 
L 192.333167 170.547457 
L 192.333167 125.33907 
L 192.645343 125.33907 
L 192.645343 101.999781 
L 192.957519 101.999781 
L 192.957519 87.114093 
L 193.269695 87.114093 
L 193.269695 90.973345 
L 193.581871 90.973345 
L 193.581871 98.324303 
L 193.894047 98.324303 
L 193.894047 96.670337 
L 194.206223 96.670337 
L 194.206223 99.426946 
L 194.518399 99.426946 
L 194.518399 96.854111 
L 194.830575 96.854111 
L 194.830575 104.75639 
L 195.142752 104.75639 
L 195.142752 95.751468 
L 195.454928 95.751468 
L 195.454928 99.794494 
L 195.767104 99.794494 
L 195.767104 107.329225 
L 196.07928 107.329225 
L 196.07928 106.042808 
L 196.391456 106.042808 
L 196.391456 112.842443 
L 196.703632 112.842443 
L 196.703632 110.085834 
L 197.015808 110.085834 
L 197.015808 109.718286 
L 197.327984 109.718286 
L 197.327984 106.042808 
L 197.64016 106.042808 
L 197.64016 114.863956 
L 197.952336 114.863956 
L 197.952336 117.069243 
L 198.264512 117.069243 
L 198.264512 119.274531 
L 198.576688 119.274531 
L 198.576688 118.906983 
L 198.888864 118.906983 
L 198.888864 120.1934 
L 199.20104 120.1934 
L 199.20104 124.971522 
L 199.513216 124.971522 
L 199.513216 124.603974 
L 199.825392 124.603974 
L 199.825392 126.25794 
L 200.137568 126.25794 
L 200.137568 125.155296 
L 200.449744 125.155296 
L 200.449744 126.809262 
L 200.761921 126.809262 
L 200.761921 126.25794 
L 201.074097 126.25794 
L 201.074097 130.852288 
L 201.386273 130.852288 
L 201.386273 135.446636 
L 201.698449 135.446636 
L 201.698449 130.117192 
L 202.010625 130.117192 
L 202.010625 140.592306 
L 202.322801 140.592306 
L 202.322801 140.408532 
L 202.634977 140.408532 
L 202.634977 138.754567 
L 202.947153 138.754567 
L 202.947153 140.224758 
L 203.259329 140.224758 
L 203.259329 148.494585 
L 203.571505 148.494585 
L 203.571505 147.75949 
L 203.883681 147.75949 
L 203.883681 141.143628 
L 204.195857 141.143628 
L 204.195857 154.191577 
L 204.508033 154.191577 
L 204.508033 160.991212 
L 204.820209 160.991212 
L 204.820209 164.299143 
L 205.132385 164.299143 
L 205.132385 173.120292 
L 205.444561 173.120292 
L 205.444561 181.573892 
L 205.756737 181.573892 
L 205.756737 179.184831 
L 206.068913 179.184831 
L 206.068913 185.065597 
L 206.381089 185.065597 
L 206.381089 191.681459 
L 206.693266 191.681459 
L 206.693266 202.340346 
L 207.005442 202.340346 
L 207.005442 205.096955 
L 207.317618 205.096955 
L 207.317618 211.896591 
L 207.629794 211.896591 
L 207.629794 214.836974 
L 208.254146 214.836974 
L 208.254146 218.512452 
L 208.566322 218.512452 
L 208.566322 215.755843 
L 208.878498 215.755843 
L 208.878498 206.750921 
L 209.190674 206.750921 
L 209.190674 191.681459 
L 209.50285 191.681459 
L 209.50285 178.082188 
L 209.815026 178.082188 
L 209.815026 165.769335 
L 210.127202 165.769335 
L 210.127202 150.148551 
L 210.439378 150.148551 
L 210.439378 137.284376 
L 210.751554 137.284376 
L 210.751554 150.699872 
L 211.06373 150.699872 
L 211.06373 154.191577 
L 211.375906 154.191577 
L 211.375906 152.537612 
L 211.688082 152.537612 
L 211.688082 159.521021 
L 212.000258 159.521021 
L 212.000258 157.499508 
L 212.312434 157.499508 
L 212.312434 158.234603 
L 212.624611 158.234603 
L 212.624611 157.315734 
L 212.936787 157.315734 
L 212.936787 163.931595 
L 213.248963 163.931595 
L 213.248963 163.1965 
L 213.561139 163.1965 
L 213.561139 159.153473 
L 213.873315 159.153473 
L 213.873315 162.093856 
L 214.497667 162.093856 
L 214.497667 162.645178 
L 214.809843 162.645178 
L 214.809843 163.564047 
L 215.122019 163.564047 
L 215.122019 165.953108 
L 215.434195 165.953108 
L 215.434195 164.299143 
L 215.746371 164.299143 
L 215.746371 166.50443 
L 216.058547 166.50443 
L 216.058547 173.48784 
L 216.370723 173.48784 
L 216.370723 174.590483 
L 216.682899 174.590483 
L 216.682899 178.817284 
L 216.995075 178.817284 
L 216.995075 177.163318 
L 217.307251 177.163318 
L 217.307251 179.552379 
L 217.619427 179.552379 
L 217.619427 176.428222 
L 217.931603 176.428222 
L 217.931603 181.757666 
L 218.243779 181.757666 
L 218.243779 185.616919 
L 218.555956 185.616919 
L 218.555956 187.454658 
L 218.868132 187.454658 
L 218.868132 189.659945 
L 219.180308 189.659945 
L 219.180308 187.270884 
L 219.492484 187.270884 
L 219.492484 192.967876 
L 219.80466 192.967876 
L 219.80466 193.519198 
L 220.116836 193.519198 
L 220.116836 198.481094 
L 220.429012 198.481094 
L 220.429012 196.643355 
L 220.741188 196.643355 
L 220.741188 198.29732 
L 221.053364 198.29732 
L 221.053364 203.626764 
L 221.36554 203.626764 
L 221.36554 202.156572 
L 221.677716 202.156572 
L 221.677716 203.075442 
L 221.989892 203.075442 
L 221.989892 208.772434 
L 222.302068 208.772434 
L 222.302068 211.529043 
L 222.614244 211.529043 
L 222.614244 214.469426 
L 222.92642 214.469426 
L 222.92642 215.939617 
L 223.238596 215.939617 
L 223.238596 217.226035 
L 223.550772 217.226035 
L 223.550772 218.696226 
L 223.862948 218.696226 
L 223.862948 215.020747 
L 224.175125 215.020747 
L 224.175125 211.529043 
L 224.487301 211.529043 
L 224.487301 206.934695 
L 224.799477 206.934695 
L 224.799477 198.113546 
L 225.111653 198.113546 
L 225.111653 196.275807 
L 225.423829 196.275807 
L 225.423829 188.189754 
L 225.736005 188.189754 
L 225.736005 184.881823 
L 226.048181 184.881823 
L 226.048181 190.395041 
L 226.360357 190.395041 
L 226.360357 194.254294 
L 226.672533 194.254294 
L 226.672533 194.621841 
L 226.984709 194.621841 
L 226.984709 191.497685 
L 227.296885 191.497685 
L 227.296885 193.335424 
L 227.609061 193.335424 
L 227.609061 197.010902 
L 227.921237 197.010902 
L 227.921237 199.032416 
L 228.233413 199.032416 
L 228.233413 195.908259 
L 228.545589 195.908259 
L 228.545589 199.583737 
L 228.857765 199.583737 
L 228.857765 198.848642 
L 229.169941 198.848642 
L 229.169941 201.421477 
L 229.482117 201.421477 
L 229.482117 203.810538 
L 229.794293 203.810538 
L 229.794293 202.156572 
L 230.10647 202.156572 
L 230.10647 202.52412 
L 230.418646 202.52412 
L 230.418646 202.891668 
L 230.730822 202.891668 
L 230.730822 206.199599 
L 231.042998 206.199599 
L 231.042998 204.913181 
L 231.355174 204.913181 
L 231.355174 206.199599 
L 231.66735 206.199599 
L 231.66735 205.464503 
L 231.979526 205.464503 
L 231.979526 208.956208 
L 232.291702 208.956208 
L 232.291702 208.404886 
L 232.603878 208.404886 
L 232.603878 208.221112 
L 232.916054 208.221112 
L 232.916054 210.058851 
L 233.22823 210.058851 
L 233.22823 210.242625 
L 233.540406 210.242625 
L 233.540406 210.610173 
L 233.852582 210.610173 
L 233.852582 212.080365 
L 234.164758 212.080365 
L 234.164758 212.631686 
L 234.476934 212.631686 
L 234.476934 212.999234 
L 234.78911 212.999234 
L 234.78911 214.469426 
L 235.101286 214.469426 
L 235.101286 216.123391 
L 235.413462 216.123391 
L 235.413462 215.020747 
L 235.725638 215.020747 
L 235.725638 215.939617 
L 236.037815 215.939617 
L 236.037815 217.226035 
L 236.349991 217.226035 
L 236.349991 216.490939 
L 236.662167 216.490939 
L 236.662167 217.226035 
L 236.974343 217.226035 
L 236.974343 218.144904 
L 237.286519 218.144904 
L 237.286519 218.696226 
L 237.598695 218.696226 
L 237.598695 218.88 
L 238.535223 218.88 
L 238.535223 217.777356 
L 238.847399 217.777356 
L 238.847399 216.490939 
L 239.159575 216.490939 
L 239.159575 212.447912 
L 239.471751 212.447912 
L 239.471751 210.242625 
L 239.783927 210.242625 
L 239.783927 208.221112 
L 240.096103 208.221112 
L 240.096103 205.280729 
L 240.408279 205.280729 
L 240.408279 205.096955 
L 240.720455 205.096955 
L 240.720455 204.913181 
L 241.032631 204.913181 
L 241.032631 208.58866 
L 241.344807 208.58866 
L 241.344807 207.486016 
L 241.656984 207.486016 
L 241.656984 205.832051 
L 241.96916 205.832051 
L 241.96916 208.956208 
L 242.281336 208.956208 
L 242.281336 210.242625 
L 242.593512 210.242625 
L 242.593512 206.567147 
L 242.905688 206.567147 
L 242.905688 208.956208 
L 243.53004 208.956208 
L 243.53004 209.691304 
L 243.842216 209.691304 
L 243.842216 209.323756 
L 244.154392 209.323756 
L 244.154392 210.977721 
L 244.466568 210.977721 
L 244.466568 211.896591 
L 245.09092 211.896591 
L 245.09092 213.366782 
L 245.403096 213.366782 
L 245.403096 213.73433 
L 245.715272 213.73433 
L 245.715272 212.631686 
L 246.027448 212.631686 
L 246.027448 213.183008 
L 246.339624 213.183008 
L 246.339624 212.999234 
L 246.963976 212.999234 
L 246.963976 212.81546 
L 247.276152 212.81546 
L 247.276152 215.572069 
L 247.588329 215.572069 
L 247.588329 216.123391 
L 247.900505 216.123391 
L 247.900505 216.307165 
L 248.212681 216.307165 
L 248.212681 217.042261 
L 248.524857 217.042261 
L 248.524857 215.939617 
L 248.837033 215.939617 
L 248.837033 216.858487 
L 249.149209 216.858487 
L 249.149209 218.328678 
L 249.461385 218.328678 
L 249.461385 217.593582 
L 249.773561 217.593582 
L 249.773561 218.144904 
L 250.085737 218.144904 
L 250.085737 217.593582 
L 250.397913 217.593582 
L 250.397913 218.696226 
L 250.710089 218.696226 
L 250.710089 218.88 
L 251.022265 218.88 
L 251.022265 218.696226 
L 251.334441 218.696226 
L 251.334441 218.88 
L 252.895321 218.88 
L 252.895321 218.512452 
L 253.207497 218.512452 
L 253.207497 217.96113 
L 253.519674 217.96113 
L 253.519674 215.939617 
L 253.83185 215.939617 
L 253.83185 213.73433 
L 254.144026 213.73433 
L 254.144026 214.101878 
L 254.456202 214.101878 
L 254.456202 210.242625 
L 254.768378 210.242625 
L 254.768378 206.934695 
L 255.080554 206.934695 
L 255.080554 206.567147 
L 255.39273 206.567147 
L 255.39273 203.44299 
L 255.704906 203.44299 
L 255.704906 203.075442 
L 256.017082 203.075442 
L 256.017082 203.259216 
L 256.329258 203.259216 
L 256.329258 203.44299 
L 256.641434 203.44299 
L 256.641434 205.096955 
L 256.95361 205.096955 
L 256.95361 201.237703 
L 257.265786 201.237703 
L 257.265786 204.913181 
L 257.577962 204.913181 
L 257.577962 204.545634 
L 257.890138 204.545634 
L 257.890138 205.832051 
L 258.202314 205.832051 
L 258.202314 203.075442 
L 258.51449 203.075442 
L 258.51449 205.648277 
L 258.826666 205.648277 
L 258.826666 201.789025 
L 259.138842 201.789025 
L 259.138842 205.280729 
L 259.451019 205.280729 
L 259.451019 206.934695 
L 259.763195 206.934695 
L 259.763195 205.832051 
L 260.075371 205.832051 
L 260.075371 207.853564 
L 260.387547 207.853564 
L 260.387547 207.486016 
L 260.699723 207.486016 
L 260.699723 204.545634 
L 261.011899 204.545634 
L 261.011899 205.832051 
L 261.324075 205.832051 
L 261.324075 206.567147 
L 261.636251 206.567147 
L 261.636251 210.793947 
L 261.948427 210.793947 
L 261.948427 206.199599 
L 262.260603 206.199599 
L 262.260603 207.302242 
L 262.572779 207.302242 
L 262.572779 209.50753 
L 262.884955 209.50753 
L 262.884955 207.853564 
L 263.197131 207.853564 
L 263.197131 209.691304 
L 263.509307 209.691304 
L 263.509307 211.161495 
L 263.821483 211.161495 
L 263.821483 209.50753 
L 264.133659 209.50753 
L 264.133659 212.999234 
L 264.445835 212.999234 
L 264.445835 212.631686 
L 264.758011 212.631686 
L 264.758011 213.73433 
L 265.070188 213.73433 
L 265.070188 212.631686 
L 265.382364 212.631686 
L 265.382364 215.939617 
L 265.69454 215.939617 
L 265.69454 215.388295 
L 266.006716 215.388295 
L 266.006716 214.6532 
L 266.318892 214.6532 
L 266.318892 215.572069 
L 266.631068 215.572069 
L 266.631068 217.042261 
L 266.943244 217.042261 
L 266.943244 217.777356 
L 267.25542 217.777356 
L 267.25542 217.593582 
L 267.567596 217.593582 
L 267.567596 217.593582 
" clip-path="url(#p5a9528dda0)" style="fill: none; stroke: #ff7f0e; stroke-width: 1.5; stroke-linecap: square"/>
   </g>
   <g id="line2d_17">
    <path d="M 289.775512 197.194676 
L 290.087742 197.194676 
L 290.087742 143.348915 
L 290.399973 143.348915 
L 290.399973 109.166964 
L 290.712203 109.166964 
L 290.712203 100.162042 
L 291.024434 100.162042 
L 291.024434 97.037885 
L 291.336664 97.037885 
L 291.336664 93.729954 
L 291.648895 93.729954 
L 291.648895 86.195223 
L 291.961125 86.195223 
L 291.961125 83.438614 
L 292.273356 83.438614 
L 292.273356 78.10917 
L 292.585586 78.10917 
L 292.585586 71.860857 
L 292.897817 71.860857 
L 292.897817 60.834421 
L 293.210047 60.834421 
L 293.210047 49.991759 
L 293.522278 49.991759 
L 293.522278 46.683829 
L 293.834508 46.683829 
L 293.834508 47.970246 
L 294.146739 47.970246 
L 294.146739 52.013273 
L 294.458969 52.013273 
L 294.458969 40.619289 
L 294.7712 40.619289 
L 294.7712 26.65247 
L 295.08343 26.65247 
L 295.08343 25.366053 
L 295.395661 25.366053 
L 295.395661 21.139253 
L 295.707891 21.139253 
L 295.707891 34.370975 
L 296.020122 34.370975 
L 296.020122 35.657393 
L 296.332352 35.657393 
L 296.332352 31.063045 
L 296.644583 31.063045 
L 296.644583 40.435515 
L 296.956813 40.435515 
L 296.956813 29.409079 
L 297.269044 29.409079 
L 297.269044 27.203792 
L 297.581275 27.203792 
L 297.581275 34.738523 
L 297.893505 34.738523 
L 297.893505 36.392489 
L 298.205736 36.392489 
L 298.205736 43.743446 
L 298.517966 43.743446 
L 298.517966 49.256664 
L 298.830197 49.256664 
L 298.830197 54.586108 
L 299.142427 54.586108 
L 299.142427 71.860857 
L 299.454658 71.860857 
L 299.454658 85.827675 
L 299.766888 85.827675 
L 299.766888 91.892215 
L 300.079119 91.892215 
L 300.079119 109.534512 
L 300.391349 109.534512 
L 300.391349 110.453382 
L 300.70358 110.453382 
L 300.70358 122.766235 
L 301.01581 122.766235 
L 301.01581 130.668514 
L 301.328041 130.668514 
L 301.328041 138.938341 
L 301.640271 138.938341 
L 301.640271 145.737976 
L 301.952502 145.737976 
L 301.952502 158.969699 
L 302.576963 158.969699 
L 302.576963 171.833874 
L 302.889193 171.833874 
L 302.889193 184.698049 
L 303.201424 184.698049 
L 303.201424 194.07052 
L 303.513654 194.07052 
L 303.513654 199.032416 
L 303.825885 199.032416 
L 303.825885 207.66979 
L 304.138115 207.66979 
L 304.138115 212.999234 
L 304.450346 212.999234 
L 304.450346 217.409809 
L 304.762576 217.409809 
L 304.762576 218.88 
L 307.572651 218.88 
L 307.572651 205.832051 
L 307.884882 205.832051 
L 307.884882 172.56897 
L 308.197112 172.56897 
L 308.197112 142.062498 
L 308.509343 142.062498 
L 308.509343 101.264686 
L 308.821573 101.264686 
L 308.821573 86.011449 
L 309.133804 86.011449 
L 309.133804 86.562771 
L 309.446034 86.562771 
L 309.446034 91.524667 
L 309.758265 91.524667 
L 309.758265 90.789572 
L 310.070495 90.789572 
L 310.070495 98.508077 
L 310.382726 98.508077 
L 310.382726 97.037885 
L 310.694956 97.037885 
L 310.694956 95.567694 
L 311.007187 95.567694 
L 311.007187 106.226582 
L 311.319417 106.226582 
L 311.319417 98.875624 
L 311.631648 98.875624 
L 311.631648 105.307712 
L 311.943878 105.307712 
L 311.943878 96.302789 
L 312.256109 96.302789 
L 312.256109 111.372252 
L 312.568339 111.372252 
L 312.568339 107.329225 
L 312.88057 107.329225 
L 312.88057 110.453382 
L 313.1928 110.453382 
L 313.1928 104.021294 
L 313.505031 104.021294 
L 313.505031 118.723209 
L 313.817262 118.723209 
L 313.817262 115.599052 
L 314.129492 115.599052 
L 314.129492 127.176809 
L 314.441723 127.176809 
L 314.441723 122.398687 
L 314.753953 122.398687 
L 314.753953 117.620565 
L 315.066184 117.620565 
L 315.066184 121.663592 
L 315.378414 121.663592 
L 315.378414 127.360583 
L 315.690645 127.360583 
L 315.690645 119.458304 
L 316.002875 119.458304 
L 316.002875 133.792671 
L 316.315106 133.792671 
L 316.315106 130.48474 
L 316.627336 130.48474 
L 316.627336 127.176809 
L 316.939567 127.176809 
L 316.939567 132.322479 
L 317.251797 132.322479 
L 317.251797 128.647001 
L 317.564028 128.647001 
L 317.564028 132.506253 
L 317.876258 132.506253 
L 317.876258 136.733054 
L 318.188489 136.733054 
L 318.188489 138.938341 
L 318.500719 138.938341 
L 318.500719 145.186655 
L 318.81295 145.186655 
L 318.81295 139.673437 
L 319.12518 139.673437 
L 319.12518 146.289298 
L 319.437411 146.289298 
L 319.437411 147.208168 
L 319.749641 147.208168 
L 319.749641 147.024394 
L 320.061872 147.024394 
L 320.061872 151.802516 
L 320.374102 151.802516 
L 320.374102 158.785925 
L 320.686333 158.785925 
L 320.686333 165.585561 
L 320.998563 165.585561 
L 320.998563 165.769335 
L 321.310794 165.769335 
L 321.310794 177.347092 
L 321.623024 177.347092 
L 321.623024 182.308988 
L 321.935255 182.308988 
L 321.935255 187.822206 
L 322.247486 187.822206 
L 322.247486 194.254294 
L 322.559716 194.254294 
L 322.559716 201.605251 
L 322.871947 201.605251 
L 322.871947 207.486016 
L 323.184177 207.486016 
L 323.184177 209.691304 
L 323.496408 209.691304 
L 323.496408 213.183008 
L 323.808638 213.183008 
L 323.808638 217.042261 
L 324.120869 217.042261 
L 324.120869 218.696226 
L 324.433099 218.696226 
L 324.433099 216.123391 
L 324.74533 216.123391 
L 324.74533 206.015825 
L 325.05756 206.015825 
L 325.05756 193.15165 
L 325.369791 193.15165 
L 325.369791 179.919927 
L 325.682021 179.919927 
L 325.682021 163.931595 
L 325.994252 163.931595 
L 325.994252 156.21309 
L 326.306482 156.21309 
L 326.306482 150.148551 
L 326.618713 150.148551 
L 326.618713 156.029316 
L 326.930943 156.029316 
L 326.930943 154.007803 
L 327.243174 154.007803 
L 327.243174 153.272707 
L 327.555404 153.272707 
L 327.555404 158.234603 
L 327.867635 158.234603 
L 327.867635 156.21309 
L 328.179865 156.21309 
L 328.179865 160.807438 
L 328.492096 160.807438 
L 328.492096 156.948186 
L 328.804326 156.948186 
L 328.804326 157.867056 
L 329.116557 157.867056 
L 329.116557 159.153473 
L 329.428787 159.153473 
L 329.428787 164.666691 
L 329.741018 164.666691 
L 329.741018 167.239526 
L 330.053248 167.239526 
L 330.053248 163.747821 
L 330.365479 163.747821 
L 330.365479 163.1965 
L 330.67771 163.1965 
L 330.67771 168.709717 
L 330.98994 168.709717 
L 330.98994 167.4233 
L 331.302171 167.4233 
L 331.302171 164.482917 
L 331.614401 164.482917 
L 331.614401 171.6501 
L 331.926632 171.6501 
L 331.926632 174.222935 
L 332.238862 174.222935 
L 332.238862 176.060675 
L 332.551093 176.060675 
L 332.551093 170.547457 
L 332.863323 170.547457 
L 332.863323 176.244448 
L 333.175554 176.244448 
L 333.175554 174.590483 
L 333.487784 174.590483 
L 333.487784 179.919927 
L 333.800015 179.919927 
L 333.800015 181.206345 
L 334.112245 181.206345 
L 334.112245 187.08711 
L 334.424476 187.08711 
L 334.424476 186.168241 
L 334.736706 186.168241 
L 334.736706 191.313911 
L 335.048937 191.313911 
L 335.048937 191.497685 
L 335.673398 191.497685 
L 335.673398 194.805615 
L 335.985628 194.805615 
L 335.985628 196.092033 
L 336.297859 196.092033 
L 336.297859 198.848642 
L 336.610089 198.848642 
L 336.610089 200.502607 
L 336.92232 200.502607 
L 336.92232 204.729407 
L 337.23455 204.729407 
L 337.23455 203.810538 
L 337.546781 203.810538 
L 337.546781 207.66979 
L 337.859011 207.66979 
L 337.859011 207.302242 
L 338.171242 207.302242 
L 338.171242 208.58866 
L 338.483472 208.58866 
L 338.483472 213.918104 
L 338.795703 213.918104 
L 338.795703 215.755843 
L 339.107934 215.755843 
L 339.107934 217.777356 
L 339.420164 217.777356 
L 339.420164 218.328678 
L 339.732395 218.328678 
L 339.732395 216.490939 
L 340.044625 216.490939 
L 340.044625 212.264139 
L 340.356856 212.264139 
L 340.356856 206.567147 
L 340.669086 206.567147 
L 340.669086 199.399964 
L 340.981317 199.399964 
L 340.981317 192.23278 
L 341.293547 192.23278 
L 341.293547 188.557302 
L 341.605778 188.557302 
L 341.605778 184.330501 
L 341.918008 184.330501 
L 341.918008 190.211267 
L 342.230239 190.211267 
L 342.230239 193.335424 
L 342.542469 193.335424 
L 342.542469 193.519198 
L 343.16693 193.519198 
L 343.16693 194.07052 
L 343.791391 194.07052 
L 343.791391 199.032416 
L 344.103622 199.032416 
L 344.103622 195.724485 
L 344.415852 195.724485 
L 344.415852 197.745998 
L 344.728083 197.745998 
L 344.728083 200.870155 
L 345.040313 200.870155 
L 345.040313 198.664868 
L 345.352544 198.664868 
L 345.352544 204.36186 
L 345.664774 204.36186 
L 345.664774 203.626764 
L 345.977005 203.626764 
L 345.977005 205.648277 
L 346.289235 205.648277 
L 346.289235 204.36186 
L 346.601466 204.36186 
L 346.601466 204.729407 
L 346.913697 204.729407 
L 346.913697 203.994312 
L 347.225927 203.994312 
L 347.225927 206.567147 
L 347.538158 206.567147 
L 347.538158 208.404886 
L 347.850388 208.404886 
L 347.850388 208.037338 
L 348.162619 208.037338 
L 348.162619 207.853564 
L 348.474849 207.853564 
L 348.474849 211.345269 
L 348.78708 211.345269 
L 348.78708 210.242625 
L 349.09931 210.242625 
L 349.09931 211.161495 
L 349.411541 211.161495 
L 349.411541 211.896591 
L 349.723771 211.896591 
L 349.723771 209.875077 
L 350.036002 209.875077 
L 350.036002 214.101878 
L 350.348232 214.101878 
L 350.348232 213.366782 
L 350.660463 213.366782 
L 350.660463 215.755843 
L 350.972693 215.755843 
L 350.972693 215.388295 
L 351.284924 215.388295 
L 351.284924 214.836974 
L 351.597154 214.836974 
L 351.597154 215.572069 
L 351.909385 215.572069 
L 351.909385 217.409809 
L 352.533846 217.409809 
L 352.533846 217.777356 
L 352.846076 217.777356 
L 352.846076 218.144904 
L 353.470537 218.144904 
L 353.470537 218.88 
L 354.407229 218.88 
L 354.407229 218.144904 
L 354.719459 218.144904 
L 354.719459 214.469426 
L 355.03169 214.469426 
L 355.03169 211.896591 
L 355.343921 211.896591 
L 355.343921 210.426399 
L 355.656151 210.426399 
L 355.656151 204.178086 
L 355.968382 204.178086 
L 355.968382 206.383373 
L 356.280612 206.383373 
L 356.280612 206.934695 
L 356.592843 206.934695 
L 356.592843 203.44299 
L 356.905073 203.44299 
L 356.905073 204.729407 
L 357.217304 204.729407 
L 357.217304 209.323756 
L 357.529534 209.323756 
L 357.529534 207.486016 
L 358.153995 207.486016 
L 358.153995 206.567147 
L 358.466226 206.567147 
L 358.466226 208.58866 
L 358.778456 208.58866 
L 358.778456 210.610173 
L 359.090687 210.610173 
L 359.090687 211.529043 
L 359.402917 211.529043 
L 359.402917 209.691304 
L 359.715148 209.691304 
L 359.715148 212.080365 
L 360.027378 212.080365 
L 360.027378 211.712817 
L 360.339609 211.712817 
L 360.339609 212.264139 
L 360.651839 212.264139 
L 360.651839 212.999234 
L 360.96407 212.999234 
L 360.96407 211.896591 
L 361.2763 211.896591 
L 361.2763 215.020747 
L 361.588531 215.020747 
L 361.588531 214.285652 
L 361.900761 214.285652 
L 361.900761 213.918104 
L 362.212992 213.918104 
L 362.212992 215.572069 
L 362.525222 215.572069 
L 362.525222 215.020747 
L 363.149683 215.020747 
L 363.149683 213.918104 
L 363.461914 213.918104 
L 363.461914 215.388295 
L 363.774145 215.388295 
L 363.774145 216.674713 
L 364.086375 216.674713 
L 364.086375 216.307165 
L 364.398606 216.307165 
L 364.398606 217.226035 
L 364.710836 217.226035 
L 364.710836 216.858487 
L 365.023067 216.858487 
L 365.023067 217.96113 
L 365.335297 217.96113 
L 365.335297 217.226035 
L 365.647528 217.226035 
L 365.647528 217.777356 
L 365.959758 217.777356 
L 365.959758 218.512452 
L 366.271989 218.512452 
L 366.271989 218.696226 
L 366.89645 218.696226 
L 366.89645 218.512452 
L 367.20868 218.512452 
L 367.20868 218.88 
L 368.769833 218.88 
L 368.769833 218.328678 
L 369.082063 218.328678 
L 369.082063 217.593582 
L 369.394294 217.593582 
L 369.394294 216.674713 
L 369.706524 216.674713 
L 369.706524 212.81546 
L 370.018755 212.81546 
L 370.018755 213.550556 
L 370.330985 213.550556 
L 370.330985 210.242625 
L 370.643216 210.242625 
L 370.643216 208.956208 
L 370.955446 208.956208 
L 370.955446 206.934695 
L 371.267677 206.934695 
L 371.267677 206.750921 
L 371.579907 206.750921 
L 371.579907 203.626764 
L 371.892138 203.626764 
L 371.892138 200.686381 
L 372.204369 200.686381 
L 372.204369 202.891668 
L 372.516599 202.891668 
L 372.516599 204.36186 
L 372.82883 204.36186 
L 372.82883 204.913181 
L 373.14106 204.913181 
L 373.14106 203.994312 
L 373.453291 203.994312 
L 373.453291 205.280729 
L 373.765521 205.280729 
L 373.765521 203.810538 
L 374.077752 203.810538 
L 374.077752 200.502607 
L 374.389982 200.502607 
L 374.389982 204.36186 
L 374.702213 204.36186 
L 374.702213 205.832051 
L 375.014443 205.832051 
L 375.014443 201.605251 
L 375.326674 201.605251 
L 375.326674 203.259216 
L 375.638904 203.259216 
L 375.638904 207.66979 
L 375.951135 207.66979 
L 375.951135 205.280729 
L 376.263365 205.280729 
L 376.263365 205.648277 
L 376.575596 205.648277 
L 376.575596 207.66979 
L 376.887826 207.66979 
L 376.887826 206.383373 
L 377.200057 206.383373 
L 377.200057 207.66979 
L 377.824518 207.66979 
L 377.824518 207.302242 
L 378.136748 207.302242 
L 378.136748 208.221112 
L 378.448979 208.221112 
L 378.448979 208.956208 
L 378.761209 208.956208 
L 378.761209 211.161495 
L 379.07344 211.161495 
L 379.07344 209.875077 
L 379.38567 209.875077 
L 379.38567 211.712817 
L 379.697901 211.712817 
L 379.697901 210.793947 
L 380.010132 210.793947 
L 380.010132 212.264139 
L 380.322362 212.264139 
L 380.322362 211.529043 
L 380.634593 211.529043 
L 380.634593 213.183008 
L 380.946823 213.183008 
L 380.946823 211.896591 
L 381.259054 211.896591 
L 381.259054 212.999234 
L 381.571284 212.999234 
L 381.571284 213.366782 
L 381.883515 213.366782 
L 381.883515 215.939617 
L 382.195745 215.939617 
L 382.195745 217.226035 
L 382.507976 217.226035 
L 382.507976 215.939617 
L 382.820206 215.939617 
L 382.820206 217.593582 
L 383.132437 217.593582 
L 383.132437 217.777356 
L 383.444667 217.777356 
L 383.444667 217.777356 
" clip-path="url(#p5a9528dda0)" style="fill: none; stroke: #2ca02c; stroke-width: 1.5; stroke-linecap: square"/>
   </g>
   <g id="patch_3">
    <path d="M 53.328125 228.96 
L 53.328125 7.2 
" style="fill: none; stroke: #000000; stroke-width: 0.8; stroke-linejoin: miter; stroke-linecap: square"/>
   </g>
   <g id="patch_4">
    <path d="M 388.128125 228.96 
L 388.128125 7.2 
" style="fill: none; stroke: #000000; stroke-width: 0.8; stroke-linejoin: miter; stroke-linecap: square"/>
   </g>
   <g id="patch_5">
    <path d="M 53.328125 228.96 
L 388.128125 228.96 
" style="fill: none; stroke: #000000; stroke-width: 0.8; stroke-linejoin: miter; stroke-linecap: square"/>
   </g>
   <g id="patch_6">
    <path d="M 53.328125 7.2 
L 388.128125 7.2 
" style="fill: none; stroke: #000000; stroke-width: 0.8; stroke-linejoin: miter; stroke-linecap: square"/>
   </g>
   <g id="legend_1">
    <g id="patch_7">
     <path d="M 312.570312 59.234375 
L 381.128125 59.234375 
Q 383.128125 59.234375 383.128125 57.234375 
L 383.128125 14.2 
Q 383.128125 12.2 381.128125 12.2 
L 312.570312 12.2 
Q 310.570312 12.2 310.570312 14.2 
L 310.570312 57.234375 
Q 310.570312 59.234375 312.570312 59.234375 
z
" style="fill: #ffffff; opacity: 0.8; stroke: #cccccc; stroke-linejoin: miter"/>
    </g>
    <g id="line2d_18">
     <path d="M 314.570312 20.298437 
L 314.570312 20.298437 
L 324.570312 20.298437 
L 324.570312 20.298437 
L 334.570312 20.298437 
" style="fill: none; stroke: #1f77b4; stroke-width: 1.5; stroke-linecap: square"/>
    </g>
    <g id="text_17">
     <!-- pulse:0 -->
     <g transform="translate(342.570312 23.798437) scale(0.1 -0.1)">
      <defs>
       <path id="DejaVuSans-70" d="M 1159 525 
L 1159 -1331 
L 581 -1331 
L 581 3500 
L 1159 3500 
L 1159 2969 
Q 1341 3281 1617 3432 
Q 1894 3584 2278 3584 
Q 2916 3584 3314 3078 
Q 3713 2572 3713 1747 
Q 3713 922 3314 415 
Q 2916 -91 2278 -91 
Q 1894 -91 1617 61 
Q 1341 213 1159 525 
z
M 3116 1747 
Q 3116 2381 2855 2742 
Q 2594 3103 2138 3103 
Q 1681 3103 1420 2742 
Q 1159 2381 1159 1747 
Q 1159 1113 1420 752 
Q 1681 391 2138 391 
Q 2594 391 2855 752 
Q 3116 1113 3116 1747 
z
" transform="scale(0.015625)"/>
       <path id="DejaVuSans-6c" d="M 603 4863 
L 1178 4863 
L 1178 0 
L 603 0 
L 603 4863 
z
" transform="scale(0.015625)"/>
       <path id="DejaVuSans-65" d="M 3597 1894 
L 3597 1613 
L 953 1613 
Q 991 1019 1311 708 
Q 1631 397 2203 397 
Q 2534 397 2845 478 
Q 3156 559 3463 722 
L 3463 178 
Q 3153 47 2828 -22 
Q 2503 -91 2169 -91 
Q 1331 -91 842 396 
Q 353 884 353 1716 
Q 353 2575 817 3079 
Q 1281 3584 2069 3584 
Q 2775 3584 3186 3129 
Q 3597 2675 3597 1894 
z
M 3022 2063 
Q 3016 2534 2758 2815 
Q 2500 3097 2075 3097 
Q 1594 3097 1305 2825 
Q 1016 2553 972 2059 
L 3022 2063 
z
" transform="scale(0.015625)"/>
       <path id="DejaVuSans-3a" d="M 750 794 
L 1409 794 
L 1409 0 
L 750 0 
L 750 794 
z
M 750 3309 
L 1409 3309 
L 1409 2516 
L 750 2516 
L 750 3309 
z
" transform="scale(0.015625)"/>
      </defs>
      <use xlink:href="#DejaVuSans-70"/>
      <use xlink:href="#DejaVuSans-75" transform="translate(63.476562 0)"/>
      <use xlink:href="#DejaVuSans-6c" transform="translate(126.855469 0)"/>
      <use xlink:href="#DejaVuSans-73" transform="translate(154.638672 0)"/>
      <use xlink:href="#DejaVuSans-65" transform="translate(206.738281 0)"/>
      <use xlink:href="#DejaVuSans-3a" transform="translate(268.261719 0)"/>
      <use xlink:href="#DejaVuSans-30" transform="translate(301.953125 0)"/>
     </g>
    </g>
    <g id="line2d_19">
     <path d="M 314.570312 34.976562 
L 314.570312 34.976562 
L 324.570312 34.976562 
L 324.570312 34.976562 
L 334.570312 34.976562 
" style="fill: none; stroke: #ff7f0e; stroke-width: 1.5; stroke-linecap: square"/>
    </g>
    <g id="text_18">
     <!-- pulse:1 -->
     <g transform="translate(342.570312 38.476562) scale(0.1 -0.1)">
      <use xlink:href="#DejaVuSans-70"/>
      <use xlink:href="#DejaVuSans-75" transform="translate(63.476562 0)"/>
      <use xlink:href="#DejaVuSans-6c" transform="translate(126.855469 0)"/>
      <use xlink:href="#DejaVuSans-73" transform="translate(154.638672 0)"/>
      <use xlink:href="#DejaVuSans-65" transform="translate(206.738281 0)"/>
      <use xlink:href="#DejaVuSans-3a" transform="translate(268.261719 0)"/>
      <use xlink:href="#DejaVuSans-31" transform="translate(301.953125 0)"/>
     </g>
    </g>
    <g id="line2d_20">
     <path d="M 314.570312 49.654687 
L 314.570312 49.654687 
L 324.570312 49.654687 
L 324.570312 49.654687 
L 334.570312 49.654687 
" style="fill: none; stroke: #2ca02c; stroke-width: 1.5; stroke-linecap: square"/>
    </g>
    <g id="text_19">
     <!-- pulse:2 -->
     <g transform="translate(342.570312 53.154687) scale(0.1 -0.1)">
      <use xlink:href="#DejaVuSans-70"/>
      <use xlink:href="#DejaVuSans-75" transform="translate(63.476562 0)"/>
      <use xlink:href="#DejaVuSans-6c" transform="translate(126.855469 0)"/>
      <use xlink:href="#DejaVuSans-73" transform="translate(154.638672 0)"/>
      <use xlink:href="#DejaVuSans-65" transform="translate(206.738281 0)"/>
      <use xlink:href="#DejaVuSans-3a" transform="translate(268.261719 0)"/>
      <use xlink:href="#DejaVuSans-32" transform="translate(301.953125 0)"/>
     </g>
    </g>
   </g>
  </g>
 </g>
 <defs>
  <clipPath id="p5a9528dda0">
   <rect x="53.328125" y="7.2" width="334.8" height="221.76"/>
  </clipPath>
 </defs>
</svg>
