<?xml version="1.0" encoding="utf-8" standalone="no"?>
<!DOCTYPE svg PUBLIC "-//W3C//DTD SVG 1.1//EN"
  "http://www.w3.org/Graphics/SVG/1.1/DTD/svg11.dtd">
<svg xmlns:xlink="http://www.w3.org/1999/xlink" width="395.328125pt" height="267.007562pt" viewBox="0 0 395.328125 267.007562" xmlns="http://www.w3.org/2000/svg" version="1.1">
 <metadata>
  <rdf:RDF xmlns:dc="http://purl.org/dc/elements/1.1/" xmlns:cc="http://creativecommons.org/ns#" xmlns:rdf="http://www.w3.org/1999/02/22-rdf-syntax-ns#">
   <cc:Work>
    <dc:type rdf:resource="http://purl.org/dc/dcmitype/StillImage"/>
    <dc:date>2025-10-10T17:28:26.022790</dc:date>
    <dc:format>image/svg+xml</dc:format>
    <dc:creator>
     <cc:Agent>
      <dc:title>Matplotlib v3.10.6, https://matplotlib.org/</dc:title>
     </cc:Agent>
    </dc:creator>
   </cc:Work>
  </rdf:RDF>
 </metadata>
 <defs>
  <style type="text/css">*{stroke-linejoin: round; stroke-linecap: butt}</style>
 </defs>
 <g id="figure_1">
  <g id="patch_1">
   <path d="M 0 267.007562 
L 395.328125 267.007562 
L 395.328125 0 
L 0 0 
z
" style="fill: #ffffff"/>
  </g>
  <g id="axes_1">
   <g id="patch_2">
    <path d="M 53.328125 229.451312 
L 388.128125 229.451312 
L 388.128125 7.691312 
L 53.328125 7.691312 
z
" style="fill: #ffffff"/>
   </g>
   <g id="matplotlib.axis_1">
    <g id="xtick_1">
     <g id="line2d_1">
      <defs>
       <path id="m76be3bf6a4" d="M 0 0 
L 0 3.5 
" style="stroke: #000000; stroke-width: 0.8"/>
      </defs>
      <g>
       <use xlink:href="#m76be3bf6a4" x="73.09139" y="229.451312" style="stroke: #000000; stroke-width: 0.8"/>
      </g>
     </g>
     <g id="text_1">
      <!-- 20000 -->
      <g transform="translate(57.18514 244.049749) scale(0.1 -0.1)">
       <defs>
        <path id="DejaVuSans-32" d="M 1228 531 
L 3431 531 
L 3431 0 
L 469 0 
L 469 531 
Q 828 903 1448 1529 
Q 2069 2156 2228 2338 
Q 2531 2678 2651 2914 
Q 2772 3150 2772 3378 
Q 2772 3750 2511 3984 
Q 2250 4219 1831 4219 
Q 1534 4219 1204 4116 
Q 875 4013 500 3803 
L 500 4441 
Q 881 4594 1212 4672 
Q 1544 4750 1819 4750 
Q 2544 4750 2975 4387 
Q 3406 4025 3406 3419 
Q 3406 3131 3298 2873 
Q 3191 2616 2906 2266 
Q 2828 2175 2409 1742 
Q 1991 1309 1228 531 
z
" transform="scale(0.015625)"/>
        <path id="DejaVuSans-30" d="M 2034 4250 
Q 1547 4250 1301 3770 
Q 1056 3291 1056 2328 
Q 1056 1369 1301 889 
Q 1547 409 2034 409 
Q 2525 409 2770 889 
Q 3016 1369 3016 2328 
Q 3016 3291 2770 3770 
Q 2525 4250 2034 4250 
z
M 2034 4750 
Q 2819 4750 3233 4129 
Q 3647 3509 3647 2328 
Q 3647 1150 3233 529 
Q 2819 -91 2034 -91 
Q 1250 -91 836 529 
Q 422 1150 422 2328 
Q 422 3509 836 4129 
Q 1250 4750 2034 4750 
z
" transform="scale(0.015625)"/>
       </defs>
       <use xlink:href="#DejaVuSans-32"/>
       <use xlink:href="#DejaVuSans-30" transform="translate(63.623047 0)"/>
       <use xlink:href="#DejaVuSans-30" transform="translate(127.246094 0)"/>
       <use xlink:href="#DejaVuSans-30" transform="translate(190.869141 0)"/>
       <use xlink:href="#DejaVuSans-30" transform="translate(254.492188 0)"/>
      </g>
     </g>
    </g>
    <g id="xtick_2">
     <g id="line2d_2">
      <g>
       <use xlink:href="#m76be3bf6a4" x="125.813073" y="229.451312" style="stroke: #000000; stroke-width: 0.8"/>
      </g>
     </g>
     <g id="text_2">
      <!-- 30000 -->
      <g transform="translate(109.906823 244.049749) scale(0.1 -0.1)">
       <defs>
        <path id="DejaVuSans-33" d="M 2597 2516 
Q 3050 2419 3304 2112 
Q 3559 1806 3559 1356 
Q 3559 666 3084 287 
Q 2609 -91 1734 -91 
Q 1441 -91 1130 -33 
Q 819 25 488 141 
L 488 750 
Q 750 597 1062 519 
Q 1375 441 1716 441 
Q 2309 441 2620 675 
Q 2931 909 2931 1356 
Q 2931 1769 2642 2001 
Q 2353 2234 1838 2234 
L 1294 2234 
L 1294 2753 
L 1863 2753 
Q 2328 2753 2575 2939 
Q 2822 3125 2822 3475 
Q 2822 3834 2567 4026 
Q 2313 4219 1838 4219 
Q 1578 4219 1281 4162 
Q 984 4106 628 3988 
L 628 4550 
Q 988 4650 1302 4700 
Q 1616 4750 1894 4750 
Q 2613 4750 3031 4423 
Q 3450 4097 3450 3541 
Q 3450 3153 3228 2886 
Q 3006 2619 2597 2516 
z
" transform="scale(0.015625)"/>
       </defs>
       <use xlink:href="#DejaVuSans-33"/>
       <use xlink:href="#DejaVuSans-30" transform="translate(63.623047 0)"/>
       <use xlink:href="#DejaVuSans-30" transform="translate(127.246094 0)"/>
       <use xlink:href="#DejaVuSans-30" transform="translate(190.869141 0)"/>
       <use xlink:href="#DejaVuSans-30" transform="translate(254.492188 0)"/>
      </g>
     </g>
    </g>
    <g id="xtick_3">
     <g id="line2d_3">
      <g>
       <use xlink:href="#m76be3bf6a4" x="178.534757" y="229.451312" style="stroke: #000000; stroke-width: 0.8"/>
      </g>
     </g>
     <g id="text_3">
      <!-- 40000 -->
      <g transform="translate(162.628507 244.049749) scale(0.1 -0.1)">
       <defs>
        <path id="DejaVuSans-34" d="M 2419 4116 
L 825 1625 
L 2419 1625 
L 2419 4116 
z
M 2253 4666 
L 3047 4666 
L 3047 1625 
L 3713 1625 
L 3713 1100 
L 3047 1100 
L 3047 0 
L 2419 0 
L 2419 1100 
L 313 1100 
L 313 1709 
L 2253 4666 
z
" transform="scale(0.015625)"/>
       </defs>
       <use xlink:href="#DejaVuSans-34"/>
       <use xlink:href="#DejaVuSans-30" transform="translate(63.623047 0)"/>
       <use xlink:href="#DejaVuSans-30" transform="translate(127.246094 0)"/>
       <use xlink:href="#DejaVuSans-30" transform="translate(190.869141 0)"/>
       <use xlink:href="#DejaVuSans-30" transform="translate(254.492188 0)"/>
      </g>
     </g>
    </g>
    <g id="xtick_4">
     <g id="line2d_4">
      <g>
       <use xlink:href="#m76be3bf6a4" x="231.25644" y="229.451312" style="stroke: #000000; stroke-width: 0.8"/>
      </g>
     </g>
     <g id="text_4">
      <!-- 50000 -->
      <g transform="translate(215.35019 244.049749) scale(0.1 -0.1)">
       <defs>
        <path id="DejaVuSans-35" d="M 691 4666 
L 3169 4666 
L 3169 4134 
L 1269 4134 
L 1269 2991 
Q 1406 3038 1543 3061 
Q 1681 3084 1819 3084 
Q 2600 3084 3056 2656 
Q 3513 2228 3513 1497 
Q 3513 744 3044 326 
Q 2575 -91 1722 -91 
Q 1428 -91 1123 -41 
Q 819 9 494 109 
L 494 744 
Q 775 591 1075 516 
Q 1375 441 1709 441 
Q 2250 441 2565 725 
Q 2881 1009 2881 1497 
Q 2881 1984 2565 2268 
Q 2250 2553 1709 2553 
Q 1456 2553 1204 2497 
Q 953 2441 691 2322 
L 691 4666 
z
" transform="scale(0.015625)"/>
       </defs>
       <use xlink:href="#DejaVuSans-35"/>
       <use xlink:href="#DejaVuSans-30" transform="translate(63.623047 0)"/>
       <use xlink:href="#DejaVuSans-30" transform="translate(127.246094 0)"/>
       <use xlink:href="#DejaVuSans-30" transform="translate(190.869141 0)"/>
       <use xlink:href="#DejaVuSans-30" transform="translate(254.492188 0)"/>
      </g>
     </g>
    </g>
    <g id="xtick_5">
     <g id="line2d_5">
      <g>
       <use xlink:href="#m76be3bf6a4" x="283.978124" y="229.451312" style="stroke: #000000; stroke-width: 0.8"/>
      </g>
     </g>
     <g id="text_5">
      <!-- 60000 -->
      <g transform="translate(268.071874 244.049749) scale(0.1 -0.1)">
       <defs>
        <path id="DejaVuSans-36" d="M 2113 2584 
Q 1688 2584 1439 2293 
Q 1191 2003 1191 1497 
Q 1191 994 1439 701 
Q 1688 409 2113 409 
Q 2538 409 2786 701 
Q 3034 994 3034 1497 
Q 3034 2003 2786 2293 
Q 2538 2584 2113 2584 
z
M 3366 4563 
L 3366 3988 
Q 3128 4100 2886 4159 
Q 2644 4219 2406 4219 
Q 1781 4219 1451 3797 
Q 1122 3375 1075 2522 
Q 1259 2794 1537 2939 
Q 1816 3084 2150 3084 
Q 2853 3084 3261 2657 
Q 3669 2231 3669 1497 
Q 3669 778 3244 343 
Q 2819 -91 2113 -91 
Q 1303 -91 875 529 
Q 447 1150 447 2328 
Q 447 3434 972 4092 
Q 1497 4750 2381 4750 
Q 2619 4750 2861 4703 
Q 3103 4656 3366 4563 
z
" transform="scale(0.015625)"/>
       </defs>
       <use xlink:href="#DejaVuSans-36"/>
       <use xlink:href="#DejaVuSans-30" transform="translate(63.623047 0)"/>
       <use xlink:href="#DejaVuSans-30" transform="translate(127.246094 0)"/>
       <use xlink:href="#DejaVuSans-30" transform="translate(190.869141 0)"/>
       <use xlink:href="#DejaVuSans-30" transform="translate(254.492188 0)"/>
      </g>
     </g>
    </g>
    <g id="xtick_6">
     <g id="line2d_6">
      <g>
       <use xlink:href="#m76be3bf6a4" x="336.699807" y="229.451312" style="stroke: #000000; stroke-width: 0.8"/>
      </g>
     </g>
     <g id="text_6">
      <!-- 70000 -->
      <g transform="translate(320.793557 244.049749) scale(0.1 -0.1)">
       <defs>
        <path id="DejaVuSans-37" d="M 525 4666 
L 3525 4666 
L 3525 4397 
L 1831 0 
L 1172 0 
L 2766 4134 
L 525 4134 
L 525 4666 
z
" transform="scale(0.015625)"/>
       </defs>
       <use xlink:href="#DejaVuSans-37"/>
       <use xlink:href="#DejaVuSans-30" transform="translate(63.623047 0)"/>
       <use xlink:href="#DejaVuSans-30" transform="translate(127.246094 0)"/>
       <use xlink:href="#DejaVuSans-30" transform="translate(190.869141 0)"/>
       <use xlink:href="#DejaVuSans-30" transform="translate(254.492188 0)"/>
      </g>
     </g>
    </g>
    <g id="text_7">
     <!-- toa [µs] -->
     <g transform="translate(201.367969 257.727874) scale(0.1 -0.1)">
      <defs>
       <path id="DejaVuSans-74" d="M 1172 4494 
L 1172 3500 
L 2356 3500 
L 2356 3053 
L 1172 3053 
L 1172 1153 
Q 1172 725 1289 603 
Q 1406 481 1766 481 
L 2356 481 
L 2356 0 
L 1766 0 
Q 1100 0 847 248 
Q 594 497 594 1153 
L 594 3053 
L 172 3053 
L 172 3500 
L 594 3500 
L 594 4494 
L 1172 4494 
z
" transform="scale(0.015625)"/>
       <path id="DejaVuSans-6f" d="M 1959 3097 
Q 1497 3097 1228 2736 
Q 959 2375 959 1747 
Q 959 1119 1226 758 
Q 1494 397 1959 397 
Q 2419 397 2687 759 
Q 2956 1122 2956 1747 
Q 2956 2369 2687 2733 
Q 2419 3097 1959 3097 
z
M 1959 3584 
Q 2709 3584 3137 3096 
Q 3566 2609 3566 1747 
Q 3566 888 3137 398 
Q 2709 -91 1959 -91 
Q 1206 -91 779 398 
Q 353 888 353 1747 
Q 353 2609 779 3096 
Q 1206 3584 1959 3584 
z
" transform="scale(0.015625)"/>
       <path id="DejaVuSans-61" d="M 2194 1759 
Q 1497 1759 1228 1600 
Q 959 1441 959 1056 
Q 959 750 1161 570 
Q 1363 391 1709 391 
Q 2188 391 2477 730 
Q 2766 1069 2766 1631 
L 2766 1759 
L 2194 1759 
z
M 3341 1997 
L 3341 0 
L 2766 0 
L 2766 531 
Q 2569 213 2275 61 
Q 1981 -91 1556 -91 
Q 1019 -91 701 211 
Q 384 513 384 1019 
Q 384 1609 779 1909 
Q 1175 2209 1959 2209 
L 2766 2209 
L 2766 2266 
Q 2766 2663 2505 2880 
Q 2244 3097 1772 3097 
Q 1472 3097 1187 3025 
Q 903 2953 641 2809 
L 641 3341 
Q 956 3463 1253 3523 
Q 1550 3584 1831 3584 
Q 2591 3584 2966 3190 
Q 3341 2797 3341 1997 
z
" transform="scale(0.015625)"/>
       <path id="DejaVuSans-20" transform="scale(0.015625)"/>
       <path id="DejaVuSans-5b" d="M 550 4863 
L 1875 4863 
L 1875 4416 
L 1125 4416 
L 1125 -397 
L 1875 -397 
L 1875 -844 
L 550 -844 
L 550 4863 
z
" transform="scale(0.015625)"/>
       <path id="DejaVuSans-b5" d="M 544 -1331 
L 544 3500 
L 1119 3500 
L 1119 1325 
Q 1119 872 1334 640 
Q 1550 409 1972 409 
Q 2434 409 2667 671 
Q 2900 934 2900 1459 
L 2900 3500 
L 3475 3500 
L 3475 806 
Q 3475 619 3529 530 
Q 3584 441 3700 441 
Q 3728 441 3778 458 
Q 3828 475 3916 513 
L 3916 50 
Q 3788 -22 3673 -56 
Q 3559 -91 3450 -91 
Q 3234 -91 3106 31 
Q 2978 153 2931 403 
Q 2775 156 2548 32 
Q 2322 -91 2016 -91 
Q 1697 -91 1473 31 
Q 1250 153 1119 397 
L 1119 -1331 
L 544 -1331 
z
" transform="scale(0.015625)"/>
       <path id="DejaVuSans-73" d="M 2834 3397 
L 2834 2853 
Q 2591 2978 2328 3040 
Q 2066 3103 1784 3103 
Q 1356 3103 1142 2972 
Q 928 2841 928 2578 
Q 928 2378 1081 2264 
Q 1234 2150 1697 2047 
L 1894 2003 
Q 2506 1872 2764 1633 
Q 3022 1394 3022 966 
Q 3022 478 2636 193 
Q 2250 -91 1575 -91 
Q 1294 -91 989 -36 
Q 684 19 347 128 
L 347 722 
Q 666 556 975 473 
Q 1284 391 1588 391 
Q 1994 391 2212 530 
Q 2431 669 2431 922 
Q 2431 1156 2273 1281 
Q 2116 1406 1581 1522 
L 1381 1569 
Q 847 1681 609 1914 
Q 372 2147 372 2553 
Q 372 3047 722 3315 
Q 1072 3584 1716 3584 
Q 2034 3584 2315 3537 
Q 2597 3491 2834 3397 
z
" transform="scale(0.015625)"/>
       <path id="DejaVuSans-5d" d="M 1947 4863 
L 1947 -844 
L 622 -844 
L 622 -397 
L 1369 -397 
L 1369 4416 
L 622 4416 
L 622 4863 
L 1947 4863 
z
" transform="scale(0.015625)"/>
      </defs>
      <use xlink:href="#DejaVuSans-74"/>
      <use xlink:href="#DejaVuSans-6f" transform="translate(39.208984 0)"/>
      <use xlink:href="#DejaVuSans-61" transform="translate(100.390625 0)"/>
      <use xlink:href="#DejaVuSans-20" transform="translate(161.669922 0)"/>
      <use xlink:href="#DejaVuSans-5b" transform="translate(193.457031 0)"/>
      <use xlink:href="#DejaVuSans-b5" transform="translate(232.470703 0)"/>
      <use xlink:href="#DejaVuSans-73" transform="translate(296.09375 0)"/>
      <use xlink:href="#DejaVuSans-5d" transform="translate(348.193359 0)"/>
     </g>
    </g>
   </g>
   <g id="matplotlib.axis_2">
    <g id="ytick_1">
     <g id="line2d_7">
      <defs>
       <path id="m53c88415a5" d="M 0 0 
L -3.5 0 
" style="stroke: #000000; stroke-width: 0.8"/>
      </defs>
      <g>
       <use xlink:href="#m53c88415a5" x="53.328125" y="219.371312" style="stroke: #000000; stroke-width: 0.8"/>
      </g>
     </g>
     <g id="text_8">
      <!-- 0 -->
      <g transform="translate(39.965625 223.170531) scale(0.1 -0.1)">
       <use xlink:href="#DejaVuSans-30"/>
      </g>
     </g>
    </g>
    <g id="ytick_2">
     <g id="line2d_8">
      <g>
       <use xlink:href="#m53c88415a5" x="53.328125" y="184.64263" style="stroke: #000000; stroke-width: 0.8"/>
      </g>
     </g>
     <g id="text_9">
      <!-- 200 -->
      <g transform="translate(27.240625 188.441848) scale(0.1 -0.1)">
       <use xlink:href="#DejaVuSans-32"/>
       <use xlink:href="#DejaVuSans-30" transform="translate(63.623047 0)"/>
       <use xlink:href="#DejaVuSans-30" transform="translate(127.246094 0)"/>
      </g>
     </g>
    </g>
    <g id="ytick_3">
     <g id="line2d_9">
      <g>
       <use xlink:href="#m53c88415a5" x="53.328125" y="149.913947" style="stroke: #000000; stroke-width: 0.8"/>
      </g>
     </g>
     <g id="text_10">
      <!-- 400 -->
      <g transform="translate(27.240625 153.713166) scale(0.1 -0.1)">
       <use xlink:href="#DejaVuSans-34"/>
       <use xlink:href="#DejaVuSans-30" transform="translate(63.623047 0)"/>
       <use xlink:href="#DejaVuSans-30" transform="translate(127.246094 0)"/>
      </g>
     </g>
    </g>
    <g id="ytick_4">
     <g id="line2d_10">
      <g>
       <use xlink:href="#m53c88415a5" x="53.328125" y="115.185265" style="stroke: #000000; stroke-width: 0.8"/>
      </g>
     </g>
     <g id="text_11">
      <!-- 600 -->
      <g transform="translate(27.240625 118.984484) scale(0.1 -0.1)">
       <use xlink:href="#DejaVuSans-36"/>
       <use xlink:href="#DejaVuSans-30" transform="translate(63.623047 0)"/>
       <use xlink:href="#DejaVuSans-30" transform="translate(127.246094 0)"/>
      </g>
     </g>
    </g>
    <g id="ytick_5">
     <g id="line2d_11">
      <g>
       <use xlink:href="#m53c88415a5" x="53.328125" y="80.456583" style="stroke: #000000; stroke-width: 0.8"/>
      </g>
     </g>
     <g id="text_12">
      <!-- 800 -->
      <g transform="translate(27.240625 84.255802) scale(0.1 -0.1)">
       <defs>
        <path id="DejaVuSans-38" d="M 2034 2216 
Q 1584 2216 1326 1975 
Q 1069 1734 1069 1313 
Q 1069 891 1326 650 
Q 1584 409 2034 409 
Q 2484 409 2743 651 
Q 3003 894 3003 1313 
Q 3003 1734 2745 1975 
Q 2488 2216 2034 2216 
z
M 1403 2484 
Q 997 2584 770 2862 
Q 544 3141 544 3541 
Q 544 4100 942 4425 
Q 1341 4750 2034 4750 
Q 2731 4750 3128 4425 
Q 3525 4100 3525 3541 
Q 3525 3141 3298 2862 
Q 3072 2584 2669 2484 
Q 3125 2378 3379 2068 
Q 3634 1759 3634 1313 
Q 3634 634 3220 271 
Q 2806 -91 2034 -91 
Q 1263 -91 848 271 
Q 434 634 434 1313 
Q 434 1759 690 2068 
Q 947 2378 1403 2484 
z
M 1172 3481 
Q 1172 3119 1398 2916 
Q 1625 2713 2034 2713 
Q 2441 2713 2670 2916 
Q 2900 3119 2900 3481 
Q 2900 3844 2670 4047 
Q 2441 4250 2034 4250 
Q 1625 4250 1398 4047 
Q 1172 3844 1172 3481 
z
" transform="scale(0.015625)"/>
       </defs>
       <use xlink:href="#DejaVuSans-38"/>
       <use xlink:href="#DejaVuSans-30" transform="translate(63.623047 0)"/>
       <use xlink:href="#DejaVuSans-30" transform="translate(127.246094 0)"/>
      </g>
     </g>
    </g>
    <g id="ytick_6">
     <g id="line2d_12">
      <g>
       <use xlink:href="#m53c88415a5" x="53.328125" y="45.727901" style="stroke: #000000; stroke-width: 0.8"/>
      </g>
     </g>
     <g id="text_13">
      <!-- 1000 -->
      <g transform="translate(20.878125 49.52712) scale(0.1 -0.1)">
       <defs>
        <path id="DejaVuSans-31" d="M 794 531 
L 1825 531 
L 1825 4091 
L 703 3866 
L 703 4441 
L 1819 4666 
L 2450 4666 
L 2450 531 
L 3481 531 
L 3481 0 
L 794 0 
L 794 531 
z
" transform="scale(0.015625)"/>
       </defs>
       <use xlink:href="#DejaVuSans-31"/>
       <use xlink:href="#DejaVuSans-30" transform="translate(63.623047 0)"/>
       <use xlink:href="#DejaVuSans-30" transform="translate(127.246094 0)"/>
       <use xlink:href="#DejaVuSans-30" transform="translate(190.869141 0)"/>
      </g>
     </g>
    </g>
    <g id="ytick_7">
     <g id="line2d_13">
      <g>
       <use xlink:href="#m53c88415a5" x="53.328125" y="10.999219" style="stroke: #000000; stroke-width: 0.8"/>
      </g>
     </g>
     <g id="text_14">
      <!-- 1200 -->
      <g transform="translate(20.878125 14.798437) scale(0.1 -0.1)">
       <use xlink:href="#DejaVuSans-31"/>
       <use xlink:href="#DejaVuSans-32" transform="translate(63.623047 0)"/>
       <use xlink:href="#DejaVuSans-30" transform="translate(127.246094 0)"/>
       <use xlink:href="#DejaVuSans-30" transform="translate(190.869141 0)"/>
      </g>
     </g>
    </g>
    <g id="text_15">
     <!-- [counts] -->
     <g transform="translate(14.798438 139.183812) rotate(-90) scale(0.1 -0.1)">
      <defs>
       <path id="DejaVuSans-63" d="M 3122 3366 
L 3122 2828 
Q 2878 2963 2633 3030 
Q 2388 3097 2138 3097 
Q 1578 3097 1268 2742 
Q 959 2388 959 1747 
Q 959 1106 1268 751 
Q 1578 397 2138 397 
Q 2388 397 2633 464 
Q 2878 531 3122 666 
L 3122 134 
Q 2881 22 2623 -34 
Q 2366 -91 2075 -91 
Q 1284 -91 818 406 
Q 353 903 353 1747 
Q 353 2603 823 3093 
Q 1294 3584 2113 3584 
Q 2378 3584 2631 3529 
Q 2884 3475 3122 3366 
z
" transform="scale(0.015625)"/>
       <path id="DejaVuSans-75" d="M 544 1381 
L 544 3500 
L 1119 3500 
L 1119 1403 
Q 1119 906 1312 657 
Q 1506 409 1894 409 
Q 2359 409 2629 706 
Q 2900 1003 2900 1516 
L 2900 3500 
L 3475 3500 
L 3475 0 
L 2900 0 
L 2900 538 
Q 2691 219 2414 64 
Q 2138 -91 1772 -91 
Q 1169 -91 856 284 
Q 544 659 544 1381 
z
M 1991 3584 
L 1991 3584 
z
" transform="scale(0.015625)"/>
       <path id="DejaVuSans-6e" d="M 3513 2113 
L 3513 0 
L 2938 0 
L 2938 2094 
Q 2938 2591 2744 2837 
Q 2550 3084 2163 3084 
Q 1697 3084 1428 2787 
Q 1159 2491 1159 1978 
L 1159 0 
L 581 0 
L 581 3500 
L 1159 3500 
L 1159 2956 
Q 1366 3272 1645 3428 
Q 1925 3584 2291 3584 
Q 2894 3584 3203 3211 
Q 3513 2838 3513 2113 
z
" transform="scale(0.015625)"/>
      </defs>
      <use xlink:href="#DejaVuSans-5b"/>
      <use xlink:href="#DejaVuSans-63" transform="translate(39.013672 0)"/>
      <use xlink:href="#DejaVuSans-6f" transform="translate(93.994141 0)"/>
      <use xlink:href="#DejaVuSans-75" transform="translate(155.175781 0)"/>
      <use xlink:href="#DejaVuSans-6e" transform="translate(218.554688 0)"/>
      <use xlink:href="#DejaVuSans-74" transform="translate(281.933594 0)"/>
      <use xlink:href="#DejaVuSans-73" transform="translate(321.142578 0)"/>
      <use xlink:href="#DejaVuSans-5d" transform="translate(373.242188 0)"/>
     </g>
    </g>
   </g>
   <g id="line2d_14">
    <path d="M 68.546307 188.289141 
L 69.560852 188.289141 
L 69.560852 141.579064 
L 70.575398 141.579064 
L 70.575398 112.406971 
L 71.589943 112.406971 
L 71.589943 109.80232 
L 72.604489 109.80232 
L 72.604489 100.946506 
L 73.619034 100.946506 
L 73.619034 98.341854 
L 74.63358 98.341854 
L 74.63358 85.144955 
L 76.66267 85.144955 
L 76.66267 75.247281 
L 77.677216 75.247281 
L 77.677216 84.103095 
L 78.691761 84.103095 
L 78.691761 70.732552 
L 79.706307 70.732552 
L 79.706307 69.343405 
L 80.720852 69.343405 
L 80.720852 51.80542 
L 81.735398 51.80542 
L 81.735398 61.355808 
L 82.749943 61.355808 
L 82.749943 49.200769 
L 83.764489 49.200769 
L 83.764489 53.194568 
L 84.779034 53.194568 
L 84.779034 37.04573 
L 85.79358 37.04573 
L 85.79358 34.962009 
L 86.808125 34.962009 
L 86.808125 17.771312 
L 87.82267 17.771312 
L 87.82267 37.04573 
L 88.837216 37.04573 
L 88.837216 38.261234 
L 89.851761 38.261234 
L 89.851761 39.997668 
L 90.866307 39.997668 
L 90.866307 36.698444 
L 91.880852 36.698444 
L 91.880852 44.16511 
L 92.895398 44.16511 
L 92.895398 47.985265 
L 93.909943 47.985265 
L 93.909943 61.876738 
L 94.924489 61.876738 
L 94.924489 48.332552 
L 95.939034 48.332552 
L 95.939034 46.769761 
L 96.95358 46.769761 
L 96.95358 58.40387 
L 97.968125 58.40387 
L 97.968125 64.655033 
L 98.98267 64.655033 
L 98.98267 73.858133 
L 99.997216 73.858133 
L 99.997216 94.174413 
L 101.011761 94.174413 
L 101.011761 96.431777 
L 102.026307 96.431777 
L 102.026307 105.634878 
L 103.040852 105.634878 
L 103.040852 113.275188 
L 104.055398 113.275188 
L 104.055398 126.993017 
L 105.069943 126.993017 
L 105.069943 138.279839 
L 106.084489 138.279839 
L 106.084489 144.183715 
L 107.099034 144.183715 
L 107.099034 156.859684 
L 108.11358 156.859684 
L 108.11358 167.104645 
L 109.128125 167.104645 
L 109.128125 165.368211 
L 110.14267 165.368211 
L 110.14267 178.391467 
L 111.157216 178.391467 
L 111.157216 184.989916 
L 112.171761 184.989916 
L 112.171761 194.713947 
L 113.186307 194.713947 
L 113.186307 202.701544 
L 114.200852 202.701544 
L 114.200852 209.473637 
L 115.215398 209.473637 
L 115.215398 214.335653 
L 116.229943 214.335653 
L 116.229943 219.024025 
L 117.244489 219.024025 
L 117.244489 219.371312 
L 125.360852 219.371312 
L 125.360852 219.024025 
L 126.375398 219.024025 
L 126.375398 205.653482 
L 127.389943 205.653482 
L 127.389943 170.230227 
L 128.404489 170.230227 
L 128.404489 140.88449 
L 129.419034 140.88449 
L 129.419034 106.503095 
L 130.43358 106.503095 
L 130.43358 100.599219 
L 131.448125 100.599219 
L 131.448125 94.521699 
L 132.46267 94.521699 
L 132.46267 112.580614 
L 133.477216 112.580614 
L 133.477216 108.065885 
L 134.491761 108.065885 
L 134.491761 110.84418 
L 135.506307 110.84418 
L 135.506307 110.496893 
L 136.520852 110.496893 
L 136.520852 105.634878 
L 137.535398 105.634878 
L 137.535398 115.011622 
L 138.549943 115.011622 
L 138.549943 105.982164 
L 139.564489 105.982164 
L 139.564489 109.975963 
L 140.579034 109.975963 
L 140.579034 113.969761 
L 141.59358 113.969761 
L 141.59358 111.88604 
L 142.608125 111.88604 
L 142.608125 113.275188 
L 143.62267 113.275188 
L 143.62267 116.053482 
L 144.637216 116.053482 
L 144.637216 121.262785 
L 145.651761 121.262785 
L 145.651761 122.651932 
L 146.666307 122.651932 
L 146.666307 122.825575 
L 147.680852 122.825575 
L 147.680852 131.334102 
L 148.695398 131.334102 
L 148.695398 117.616273 
L 149.709943 117.616273 
L 149.709943 123.172862 
L 150.724489 123.172862 
L 150.724489 128.382164 
L 151.739034 128.382164 
L 151.739034 129.250382 
L 152.75358 129.250382 
L 152.75358 132.549606 
L 153.768125 132.549606 
L 153.768125 136.022475 
L 154.78267 136.022475 
L 154.78267 133.417823 
L 155.797216 133.417823 
L 155.797216 137.932552 
L 156.811761 137.932552 
L 156.811761 140.36356 
L 157.826307 140.36356 
L 157.826307 137.411622 
L 158.840852 137.411622 
L 158.840852 141.752707 
L 159.855398 141.752707 
L 159.855398 138.453482 
L 160.869943 138.453482 
L 160.869943 145.399219 
L 161.884489 145.399219 
L 161.884489 149.393017 
L 162.899034 149.393017 
L 162.899034 152.518599 
L 163.91358 152.518599 
L 163.91358 149.913947 
L 164.928125 149.913947 
L 164.928125 148.00387 
L 165.94267 148.00387 
L 165.94267 157.554258 
L 166.957216 157.554258 
L 166.957216 154.949606 
L 167.971761 154.949606 
L 167.971761 164.499994 
L 168.986307 164.499994 
L 168.986307 167.972862 
L 170.000852 167.972862 
L 170.000852 175.960459 
L 171.015398 175.960459 
L 171.015398 179.780614 
L 172.029943 179.780614 
L 172.029943 188.115498 
L 173.044489 188.115498 
L 173.044489 190.546506 
L 174.059034 190.546506 
L 174.059034 199.92325 
L 175.07358 199.92325 
L 175.07358 202.180614 
L 176.088125 202.180614 
L 176.088125 206.521699 
L 177.10267 206.521699 
L 177.10267 213.293792 
L 178.117216 213.293792 
L 178.117216 214.68294 
L 179.131761 214.68294 
L 179.131761 218.329451 
L 180.146307 218.329451 
L 180.146307 219.024025 
L 181.160852 219.024025 
L 181.160852 216.940304 
L 182.175398 216.940304 
L 182.175398 207.56356 
L 183.189943 207.56356 
L 183.189943 193.84573 
L 184.204489 193.84573 
L 184.204489 180.996118 
L 185.219034 180.996118 
L 185.219034 170.056583 
L 186.23358 170.056583 
L 186.23358 159.117048 
L 187.248125 159.117048 
L 187.248125 157.727901 
L 188.26267 157.727901 
L 188.26267 162.068986 
L 189.277216 162.068986 
L 189.277216 155.470537 
L 190.291761 155.470537 
L 190.291761 162.416273 
L 191.306307 162.416273 
L 191.306307 164.673637 
L 192.320852 164.673637 
L 192.320852 158.422475 
L 193.335398 158.422475 
L 193.335398 159.985265 
L 194.349943 159.985265 
L 194.349943 167.625575 
L 195.364489 167.625575 
L 195.364489 163.80542 
L 196.379034 163.80542 
L 196.379034 167.799219 
L 197.39358 167.799219 
L 197.39358 170.230227 
L 198.408125 170.230227 
L 198.408125 167.625575 
L 199.42267 167.625575 
L 199.42267 158.075188 
L 200.437216 158.075188 
L 200.437216 166.236428 
L 201.451761 166.236428 
L 201.451761 166.062785 
L 202.466307 166.062785 
L 202.466307 167.104645 
L 203.480852 167.104645 
L 203.480852 169.362009 
L 204.495398 169.362009 
L 204.495398 171.966661 
L 205.509943 171.966661 
L 205.509943 175.786816 
L 206.524489 175.786816 
L 206.524489 176.655033 
L 207.539034 176.655033 
L 207.539034 179.606971 
L 208.55358 179.606971 
L 208.55358 181.343405 
L 209.568125 181.343405 
L 209.568125 182.906195 
L 210.58267 182.906195 
L 210.58267 182.558909 
L 211.597216 182.558909 
L 211.597216 183.427126 
L 212.611761 183.427126 
L 212.611761 188.636428 
L 213.626307 188.636428 
L 213.626307 187.247281 
L 214.640852 187.247281 
L 214.640852 194.019374 
L 215.655398 194.019374 
L 215.655398 190.199219 
L 216.669943 190.199219 
L 216.669943 194.019374 
L 217.684489 194.019374 
L 217.684489 195.755808 
L 218.699034 195.755808 
L 218.699034 200.96511 
L 219.71358 200.96511 
L 219.71358 199.575963 
L 220.728125 199.575963 
L 220.728125 200.270537 
L 221.74267 200.270537 
L 221.74267 206.868986 
L 222.757216 206.868986 
L 222.757216 204.611622 
L 223.771761 204.611622 
L 223.771761 205.479839 
L 224.786307 205.479839 
L 224.786307 207.216273 
L 225.800852 207.216273 
L 225.800852 212.772862 
L 226.815398 212.772862 
L 226.815398 213.120149 
L 227.829943 213.120149 
L 227.829943 217.113947 
L 228.844489 217.113947 
L 228.844489 218.676738 
L 229.859034 218.676738 
L 229.859034 218.329451 
L 230.87358 218.329451 
L 230.87358 216.940304 
L 231.888125 216.940304 
L 231.888125 213.641079 
L 232.90267 213.641079 
L 232.90267 200.96511 
L 233.917216 200.96511 
L 233.917216 198.186816 
L 234.931761 198.186816 
L 234.931761 193.672087 
L 235.946307 193.672087 
L 235.946307 192.80387 
L 236.960852 192.80387 
L 236.960852 193.498444 
L 237.975398 193.498444 
L 237.975398 194.540304 
L 238.989943 194.540304 
L 238.989943 194.887591 
L 240.004489 194.887591 
L 240.004489 195.408521 
L 241.019034 195.408521 
L 241.019034 199.40232 
L 242.03358 199.40232 
L 242.03358 195.061234 
L 243.048125 195.061234 
L 243.048125 203.048831 
L 244.06267 203.048831 
L 244.06267 201.48604 
L 245.077216 201.48604 
L 245.077216 198.360459 
L 246.091761 198.360459 
L 246.091761 200.44418 
L 247.106307 200.44418 
L 247.106307 200.096893 
L 248.120852 200.096893 
L 248.120852 203.743405 
L 249.135398 203.743405 
L 249.135398 201.312397 
L 250.149943 201.312397 
L 250.149943 204.264335 
L 251.164489 204.264335 
L 251.164489 203.048831 
L 252.179034 203.048831 
L 252.179034 206.868986 
L 253.19358 206.868986 
L 253.19358 207.216273 
L 254.208125 207.216273 
L 254.208125 207.56356 
L 256.237216 207.56356 
L 256.237216 208.258133 
L 257.251761 208.258133 
L 257.251761 210.341854 
L 258.266307 210.341854 
L 258.266307 207.56356 
L 259.280852 207.56356 
L 259.280852 211.904645 
L 260.295398 211.904645 
L 260.295398 211.210071 
L 262.324489 211.210071 
L 262.324489 212.425575 
L 263.339034 212.425575 
L 263.339034 212.599219 
L 264.35358 212.599219 
L 264.35358 215.030227 
L 266.38267 215.030227 
L 266.38267 215.377513 
L 267.397216 215.377513 
L 267.397216 214.68294 
L 268.411761 214.68294 
L 268.411761 216.940304 
L 269.426307 216.940304 
L 269.426307 216.072087 
L 270.440852 216.072087 
L 270.440852 217.287591 
L 271.455398 217.287591 
L 271.455398 217.808521 
L 272.469943 217.808521 
L 272.469943 218.329451 
L 273.484489 218.329451 
L 273.484489 218.676738 
L 274.499034 218.676738 
L 274.499034 217.982164 
L 275.51358 217.982164 
L 275.51358 219.371312 
L 278.557216 219.371312 
L 278.557216 218.329451 
L 279.571761 218.329451 
L 279.571761 217.287591 
L 280.586307 217.287591 
L 280.586307 213.641079 
L 281.600852 213.641079 
L 281.600852 210.168211 
L 282.615398 210.168211 
L 282.615398 207.56356 
L 283.629943 207.56356 
L 283.629943 205.653482 
L 284.644489 205.653482 
L 284.644489 204.785265 
L 285.659034 204.785265 
L 285.659034 209.820924 
L 286.67358 209.820924 
L 286.67358 207.737203 
L 287.688125 207.737203 
L 287.688125 208.08449 
L 288.70267 208.08449 
L 288.70267 209.299994 
L 289.717216 209.299994 
L 289.717216 209.126351 
L 290.731761 209.126351 
L 290.731761 208.60542 
L 291.746307 208.60542 
L 291.746307 209.647281 
L 292.760852 209.647281 
L 292.760852 211.383715 
L 293.775398 211.383715 
L 293.775398 212.251932 
L 294.789943 212.251932 
L 294.789943 212.599219 
L 295.804489 212.599219 
L 295.804489 212.078289 
L 296.819034 212.078289 
L 296.819034 210.515498 
L 297.83358 210.515498 
L 297.83358 213.120149 
L 298.848125 213.120149 
L 298.848125 213.641079 
L 299.86267 213.641079 
L 299.86267 213.293792 
L 300.877216 213.293792 
L 300.877216 212.772862 
L 301.891761 212.772862 
L 301.891761 212.946506 
L 302.906307 212.946506 
L 302.906307 214.509296 
L 303.920852 214.509296 
L 303.920852 215.030227 
L 304.935398 215.030227 
L 304.935398 214.856583 
L 305.949943 214.856583 
L 305.949943 216.419374 
L 306.964489 216.419374 
L 306.964489 216.593017 
L 307.979034 216.593017 
L 307.979034 216.419374 
L 308.99358 216.419374 
L 308.99358 216.593017 
L 310.008125 216.593017 
L 310.008125 218.503095 
L 311.02267 218.503095 
L 311.02267 217.461234 
L 313.051761 217.461234 
L 313.051761 218.155808 
L 314.066307 218.155808 
L 314.066307 218.850382 
L 315.080852 218.850382 
L 315.080852 218.676738 
L 317.109943 218.676738 
L 317.109943 219.197668 
L 318.124489 219.197668 
L 318.124489 218.850382 
L 319.139034 218.850382 
L 319.139034 219.024025 
L 320.15358 219.024025 
L 320.15358 219.371312 
L 324.211761 219.371312 
L 324.211761 219.197668 
L 325.226307 219.197668 
L 325.226307 219.371312 
L 326.240852 219.371312 
L 326.240852 218.155808 
L 327.255398 218.155808 
L 327.255398 216.593017 
L 328.269943 216.593017 
L 328.269943 214.509296 
L 329.284489 214.509296 
L 329.284489 214.856583 
L 330.299034 214.856583 
L 330.299034 210.862785 
L 331.31358 210.862785 
L 331.31358 210.341854 
L 332.328125 210.341854 
L 332.328125 207.910847 
L 333.34267 207.910847 
L 333.34267 206.348056 
L 334.357216 206.348056 
L 334.357216 205.827126 
L 335.371761 205.827126 
L 335.371761 204.437978 
L 336.386307 204.437978 
L 336.386307 202.875188 
L 337.400852 202.875188 
L 337.400852 206.348056 
L 338.415398 206.348056 
L 338.415398 204.958909 
L 339.429943 204.958909 
L 339.429943 207.04263 
L 340.444489 207.04263 
L 340.444489 204.785265 
L 341.459034 204.785265 
L 341.459034 206.174413 
L 342.47358 206.174413 
L 342.47358 208.08449 
L 343.488125 208.08449 
L 343.488125 205.132552 
L 344.50267 205.132552 
L 344.50267 206.174413 
L 345.517216 206.174413 
L 345.517216 206.695343 
L 346.531761 206.695343 
L 346.531761 205.479839 
L 347.546307 205.479839 
L 347.546307 207.737203 
L 348.560852 207.737203 
L 348.560852 207.04263 
L 349.575398 207.04263 
L 349.575398 206.174413 
L 350.589943 206.174413 
L 350.589943 208.431777 
L 351.604489 208.431777 
L 351.604489 207.56356 
L 352.619034 207.56356 
L 352.619034 209.994568 
L 353.63358 209.994568 
L 353.63358 206.521699 
L 354.648125 206.521699 
L 354.648125 212.425575 
L 355.66267 212.425575 
L 355.66267 210.689141 
L 356.677216 210.689141 
L 356.677216 207.737203 
L 357.691761 207.737203 
L 357.691761 209.647281 
L 358.706307 209.647281 
L 358.706307 213.120149 
L 359.720852 213.120149 
L 359.720852 210.515498 
L 360.735398 210.515498 
L 360.735398 211.036428 
L 361.749943 211.036428 
L 361.749943 212.946506 
L 362.764489 212.946506 
L 362.764489 213.293792 
L 364.79358 213.293792 
L 364.79358 212.425575 
L 365.808125 212.425575 
L 365.808125 214.162009 
L 366.82267 214.162009 
L 366.82267 215.7248 
L 367.837216 215.7248 
L 367.837216 214.335653 
L 368.851761 214.335653 
L 368.851761 216.24573 
L 369.866307 216.24573 
L 369.866307 217.287591 
L 370.880852 217.287591 
L 370.880852 217.982164 
L 371.895398 217.982164 
L 371.895398 218.329451 
L 372.909943 218.329451 
L 372.909943 218.329451 
" clip-path="url(#pebaf1918c8)" style="fill: none; stroke: #1f77b4; stroke-width: 1.5; stroke-linecap: square"/>
   </g>
   <g id="patch_3">
    <path d="M 53.328125 229.451312 
L 53.328125 7.691312 
" style="fill: none; stroke: #000000; stroke-width: 0.8; stroke-linejoin: miter; stroke-linecap: square"/>
   </g>
   <g id="patch_4">
    <path d="M 388.128125 229.451312 
L 388.128125 7.691312 
" style="fill: none; stroke: #000000; stroke-width: 0.8; stroke-linejoin: miter; stroke-linecap: square"/>
   </g>
   <g id="patch_5">
    <path d="M 53.328125 229.451312 
L 388.128125 229.451312 
" style="fill: none; stroke: #000000; stroke-width: 0.8; stroke-linejoin: miter; stroke-linecap: square"/>
   </g>
   <g id="patch_6">
    <path d="M 53.328125 7.691312 
L 388.128125 7.691312 
" style="fill: none; stroke: #000000; stroke-width: 0.8; stroke-linejoin: miter; stroke-linecap: square"/>
   </g>
  </g>
 </g>
 <defs>
  <clipPath id="pebaf1918c8">
   <rect x="53.328125" y="7.691312" width="334.8" height="221.76"/>
  </clipPath>
 </defs>
</svg>
