<?xml version="1.0" encoding="utf-8" standalone="no"?>
<!DOCTYPE svg PUBLIC "-//W3C//DTD SVG 1.1//EN"
  "http://www.w3.org/Graphics/SVG/1.1/DTD/svg11.dtd">
<svg xmlns:xlink="http://www.w3.org/1999/xlink" width="395.328125pt" height="266.51625pt" viewBox="0 0 395.328125 266.51625" xmlns="http://www.w3.org/2000/svg" version="1.1">
 <metadata>
  <rdf:RDF xmlns:dc="http://purl.org/dc/elements/1.1/" xmlns:cc="http://creativecommons.org/ns#" xmlns:rdf="http://www.w3.org/1999/02/22-rdf-syntax-ns#">
   <cc:Work>
    <dc:type rdf:resource="http://purl.org/dc/dcmitype/StillImage"/>
    <dc:date>2026-03-12T12:42:18.060009</dc:date>
    <dc:format>image/svg+xml</dc:format>
    <dc:creator>
     <cc:Agent>
      <dc:title>Matplotlib v3.10.7, https://matplotlib.org/</dc:title>
     </cc:Agent>
    </dc:creator>
   </cc:Work>
  </rdf:RDF>
 </metadata>
 <defs>
  <style type="text/css">*{stroke-linejoin: round; stroke-linecap: butt}</style>
 </defs>
 <g id="figure_1">
  <g id="patch_1">
   <path d="M 0 266.51625 
L 395.328125 266.51625 
L 395.328125 0 
L 0 0 
z
" style="fill: #ffffff"/>
  </g>
  <g id="axes_1">
   <g id="patch_2">
    <path d="M 53.328125 228.96 
L 388.128125 228.96 
L 388.128125 7.2 
L 53.328125 7.2 
z
" style="fill: #ffffff"/>
   </g>
   <g id="matplotlib.axis_1">
    <g id="xtick_1">
     <g id="line2d_1">
      <defs>
       <path id="m556682bd49" d="M 0 0 
L 0 3.5 
" style="stroke: #000000; stroke-width: 0.8"/>
      </defs>
      <g>
       <use xlink:href="#m556682bd49" x="67.552775" y="228.96" style="stroke: #000000; stroke-width: 0.8"/>
      </g>
     </g>
     <g id="text_1">
      <!-- 25000 -->
      <g transform="translate(51.646525 243.558437) scale(0.1 -0.1)">
       <defs>
        <path id="DejaVuSans-32" d="M 1228 531 
L 3431 531 
L 3431 0 
L 469 0 
L 469 531 
Q 828 903 1448 1529 
Q 2069 2156 2228 2338 
Q 2531 2678 2651 2914 
Q 2772 3150 2772 3378 
Q 2772 3750 2511 3984 
Q 2250 4219 1831 4219 
Q 1534 4219 1204 4116 
Q 875 4013 500 3803 
L 500 4441 
Q 881 4594 1212 4672 
Q 1544 4750 1819 4750 
Q 2544 4750 2975 4387 
Q 3406 4025 3406 3419 
Q 3406 3131 3298 2873 
Q 3191 2616 2906 2266 
Q 2828 2175 2409 1742 
Q 1991 1309 1228 531 
z
" transform="scale(0.015625)"/>
        <path id="DejaVuSans-35" d="M 691 4666 
L 3169 4666 
L 3169 4134 
L 1269 4134 
L 1269 2991 
Q 1406 3038 1543 3061 
Q 1681 3084 1819 3084 
Q 2600 3084 3056 2656 
Q 3513 2228 3513 1497 
Q 3513 744 3044 326 
Q 2575 -91 1722 -91 
Q 1428 -91 1123 -41 
Q 819 9 494 109 
L 494 744 
Q 775 591 1075 516 
Q 1375 441 1709 441 
Q 2250 441 2565 725 
Q 2881 1009 2881 1497 
Q 2881 1984 2565 2268 
Q 2250 2553 1709 2553 
Q 1456 2553 1204 2497 
Q 953 2441 691 2322 
L 691 4666 
z
" transform="scale(0.015625)"/>
        <path id="DejaVuSans-30" d="M 2034 4250 
Q 1547 4250 1301 3770 
Q 1056 3291 1056 2328 
Q 1056 1369 1301 889 
Q 1547 409 2034 409 
Q 2525 409 2770 889 
Q 3016 1369 3016 2328 
Q 3016 3291 2770 3770 
Q 2525 4250 2034 4250 
z
M 2034 4750 
Q 2819 4750 3233 4129 
Q 3647 3509 3647 2328 
Q 3647 1150 3233 529 
Q 2819 -91 2034 -91 
Q 1250 -91 836 529 
Q 422 1150 422 2328 
Q 422 3509 836 4129 
Q 1250 4750 2034 4750 
z
" transform="scale(0.015625)"/>
       </defs>
       <use xlink:href="#DejaVuSans-32"/>
       <use xlink:href="#DejaVuSans-35" transform="translate(63.623047 0)"/>
       <use xlink:href="#DejaVuSans-30" transform="translate(127.246094 0)"/>
       <use xlink:href="#DejaVuSans-30" transform="translate(190.869141 0)"/>
       <use xlink:href="#DejaVuSans-30" transform="translate(254.492188 0)"/>
      </g>
     </g>
    </g>
    <g id="xtick_2">
     <g id="line2d_2">
      <g>
       <use xlink:href="#m556682bd49" x="108.102633" y="228.96" style="stroke: #000000; stroke-width: 0.8"/>
      </g>
     </g>
     <g id="text_2">
      <!-- 50000 -->
      <g transform="translate(92.196383 243.558437) scale(0.1 -0.1)">
       <use xlink:href="#DejaVuSans-35"/>
       <use xlink:href="#DejaVuSans-30" transform="translate(63.623047 0)"/>
       <use xlink:href="#DejaVuSans-30" transform="translate(127.246094 0)"/>
       <use xlink:href="#DejaVuSans-30" transform="translate(190.869141 0)"/>
       <use xlink:href="#DejaVuSans-30" transform="translate(254.492188 0)"/>
      </g>
     </g>
    </g>
    <g id="xtick_3">
     <g id="line2d_3">
      <g>
       <use xlink:href="#m556682bd49" x="148.652491" y="228.96" style="stroke: #000000; stroke-width: 0.8"/>
      </g>
     </g>
     <g id="text_3">
      <!-- 75000 -->
      <g transform="translate(132.746241 243.558437) scale(0.1 -0.1)">
       <defs>
        <path id="DejaVuSans-37" d="M 525 4666 
L 3525 4666 
L 3525 4397 
L 1831 0 
L 1172 0 
L 2766 4134 
L 525 4134 
L 525 4666 
z
" transform="scale(0.015625)"/>
       </defs>
       <use xlink:href="#DejaVuSans-37"/>
       <use xlink:href="#DejaVuSans-35" transform="translate(63.623047 0)"/>
       <use xlink:href="#DejaVuSans-30" transform="translate(127.246094 0)"/>
       <use xlink:href="#DejaVuSans-30" transform="translate(190.869141 0)"/>
       <use xlink:href="#DejaVuSans-30" transform="translate(254.492188 0)"/>
      </g>
     </g>
    </g>
    <g id="xtick_4">
     <g id="line2d_4">
      <g>
       <use xlink:href="#m556682bd49" x="189.20235" y="228.96" style="stroke: #000000; stroke-width: 0.8"/>
      </g>
     </g>
     <g id="text_4">
      <!-- 100000 -->
      <g transform="translate(170.11485 243.558437) scale(0.1 -0.1)">
       <defs>
        <path id="DejaVuSans-31" d="M 794 531 
L 1825 531 
L 1825 4091 
L 703 3866 
L 703 4441 
L 1819 4666 
L 2450 4666 
L 2450 531 
L 3481 531 
L 3481 0 
L 794 0 
L 794 531 
z
" transform="scale(0.015625)"/>
       </defs>
       <use xlink:href="#DejaVuSans-31"/>
       <use xlink:href="#DejaVuSans-30" transform="translate(63.623047 0)"/>
       <use xlink:href="#DejaVuSans-30" transform="translate(127.246094 0)"/>
       <use xlink:href="#DejaVuSans-30" transform="translate(190.869141 0)"/>
       <use xlink:href="#DejaVuSans-30" transform="translate(254.492188 0)"/>
       <use xlink:href="#DejaVuSans-30" transform="translate(318.115234 0)"/>
      </g>
     </g>
    </g>
    <g id="xtick_5">
     <g id="line2d_5">
      <g>
       <use xlink:href="#m556682bd49" x="229.752208" y="228.96" style="stroke: #000000; stroke-width: 0.8"/>
      </g>
     </g>
     <g id="text_5">
      <!-- 125000 -->
      <g transform="translate(210.664708 243.558437) scale(0.1 -0.1)">
       <use xlink:href="#DejaVuSans-31"/>
       <use xlink:href="#DejaVuSans-32" transform="translate(63.623047 0)"/>
       <use xlink:href="#DejaVuSans-35" transform="translate(127.246094 0)"/>
       <use xlink:href="#DejaVuSans-30" transform="translate(190.869141 0)"/>
       <use xlink:href="#DejaVuSans-30" transform="translate(254.492188 0)"/>
       <use xlink:href="#DejaVuSans-30" transform="translate(318.115234 0)"/>
      </g>
     </g>
    </g>
    <g id="xtick_6">
     <g id="line2d_6">
      <g>
       <use xlink:href="#m556682bd49" x="270.302066" y="228.96" style="stroke: #000000; stroke-width: 0.8"/>
      </g>
     </g>
     <g id="text_6">
      <!-- 150000 -->
      <g transform="translate(251.214566 243.558437) scale(0.1 -0.1)">
       <use xlink:href="#DejaVuSans-31"/>
       <use xlink:href="#DejaVuSans-35" transform="translate(63.623047 0)"/>
       <use xlink:href="#DejaVuSans-30" transform="translate(127.246094 0)"/>
       <use xlink:href="#DejaVuSans-30" transform="translate(190.869141 0)"/>
       <use xlink:href="#DejaVuSans-30" transform="translate(254.492188 0)"/>
       <use xlink:href="#DejaVuSans-30" transform="translate(318.115234 0)"/>
      </g>
     </g>
    </g>
    <g id="xtick_7">
     <g id="line2d_7">
      <g>
       <use xlink:href="#m556682bd49" x="310.851925" y="228.96" style="stroke: #000000; stroke-width: 0.8"/>
      </g>
     </g>
     <g id="text_7">
      <!-- 175000 -->
      <g transform="translate(291.764425 243.558437) scale(0.1 -0.1)">
       <use xlink:href="#DejaVuSans-31"/>
       <use xlink:href="#DejaVuSans-37" transform="translate(63.623047 0)"/>
       <use xlink:href="#DejaVuSans-35" transform="translate(127.246094 0)"/>
       <use xlink:href="#DejaVuSans-30" transform="translate(190.869141 0)"/>
       <use xlink:href="#DejaVuSans-30" transform="translate(254.492188 0)"/>
       <use xlink:href="#DejaVuSans-30" transform="translate(318.115234 0)"/>
      </g>
     </g>
    </g>
    <g id="xtick_8">
     <g id="line2d_8">
      <g>
       <use xlink:href="#m556682bd49" x="351.401783" y="228.96" style="stroke: #000000; stroke-width: 0.8"/>
      </g>
     </g>
     <g id="text_8">
      <!-- 200000 -->
      <g transform="translate(332.314283 243.558437) scale(0.1 -0.1)">
       <use xlink:href="#DejaVuSans-32"/>
       <use xlink:href="#DejaVuSans-30" transform="translate(63.623047 0)"/>
       <use xlink:href="#DejaVuSans-30" transform="translate(127.246094 0)"/>
       <use xlink:href="#DejaVuSans-30" transform="translate(190.869141 0)"/>
       <use xlink:href="#DejaVuSans-30" transform="translate(254.492188 0)"/>
       <use xlink:href="#DejaVuSans-30" transform="translate(318.115234 0)"/>
      </g>
     </g>
    </g>
    <g id="text_9">
     <!-- toa [µs] -->
     <g transform="translate(201.367969 257.236562) scale(0.1 -0.1)">
      <defs>
       <path id="DejaVuSans-74" d="M 1172 4494 
L 1172 3500 
L 2356 3500 
L 2356 3053 
L 1172 3053 
L 1172 1153 
Q 1172 725 1289 603 
Q 1406 481 1766 481 
L 2356 481 
L 2356 0 
L 1766 0 
Q 1100 0 847 248 
Q 594 497 594 1153 
L 594 3053 
L 172 3053 
L 172 3500 
L 594 3500 
L 594 4494 
L 1172 4494 
z
" transform="scale(0.015625)"/>
       <path id="DejaVuSans-6f" d="M 1959 3097 
Q 1497 3097 1228 2736 
Q 959 2375 959 1747 
Q 959 1119 1226 758 
Q 1494 397 1959 397 
Q 2419 397 2687 759 
Q 2956 1122 2956 1747 
Q 2956 2369 2687 2733 
Q 2419 3097 1959 3097 
z
M 1959 3584 
Q 2709 3584 3137 3096 
Q 3566 2609 3566 1747 
Q 3566 888 3137 398 
Q 2709 -91 1959 -91 
Q 1206 -91 779 398 
Q 353 888 353 1747 
Q 353 2609 779 3096 
Q 1206 3584 1959 3584 
z
" transform="scale(0.015625)"/>
       <path id="DejaVuSans-61" d="M 2194 1759 
Q 1497 1759 1228 1600 
Q 959 1441 959 1056 
Q 959 750 1161 570 
Q 1363 391 1709 391 
Q 2188 391 2477 730 
Q 2766 1069 2766 1631 
L 2766 1759 
L 2194 1759 
z
M 3341 1997 
L 3341 0 
L 2766 0 
L 2766 531 
Q 2569 213 2275 61 
Q 1981 -91 1556 -91 
Q 1019 -91 701 211 
Q 384 513 384 1019 
Q 384 1609 779 1909 
Q 1175 2209 1959 2209 
L 2766 2209 
L 2766 2266 
Q 2766 2663 2505 2880 
Q 2244 3097 1772 3097 
Q 1472 3097 1187 3025 
Q 903 2953 641 2809 
L 641 3341 
Q 956 3463 1253 3523 
Q 1550 3584 1831 3584 
Q 2591 3584 2966 3190 
Q 3341 2797 3341 1997 
z
" transform="scale(0.015625)"/>
       <path id="DejaVuSans-20" transform="scale(0.015625)"/>
       <path id="DejaVuSans-5b" d="M 550 4863 
L 1875 4863 
L 1875 4416 
L 1125 4416 
L 1125 -397 
L 1875 -397 
L 1875 -844 
L 550 -844 
L 550 4863 
z
" transform="scale(0.015625)"/>
       <path id="DejaVuSans-b5" d="M 544 -1331 
L 544 3500 
L 1119 3500 
L 1119 1325 
Q 1119 872 1334 640 
Q 1550 409 1972 409 
Q 2434 409 2667 671 
Q 2900 934 2900 1459 
L 2900 3500 
L 3475 3500 
L 3475 806 
Q 3475 619 3529 530 
Q 3584 441 3700 441 
Q 3728 441 3778 458 
Q 3828 475 3916 513 
L 3916 50 
Q 3788 -22 3673 -56 
Q 3559 -91 3450 -91 
Q 3234 -91 3106 31 
Q 2978 153 2931 403 
Q 2775 156 2548 32 
Q 2322 -91 2016 -91 
Q 1697 -91 1473 31 
Q 1250 153 1119 397 
L 1119 -1331 
L 544 -1331 
z
" transform="scale(0.015625)"/>
       <path id="DejaVuSans-73" d="M 2834 3397 
L 2834 2853 
Q 2591 2978 2328 3040 
Q 2066 3103 1784 3103 
Q 1356 3103 1142 2972 
Q 928 2841 928 2578 
Q 928 2378 1081 2264 
Q 1234 2150 1697 2047 
L 1894 2003 
Q 2506 1872 2764 1633 
Q 3022 1394 3022 966 
Q 3022 478 2636 193 
Q 2250 -91 1575 -91 
Q 1294 -91 989 -36 
Q 684 19 347 128 
L 347 722 
Q 666 556 975 473 
Q 1284 391 1588 391 
Q 1994 391 2212 530 
Q 2431 669 2431 922 
Q 2431 1156 2273 1281 
Q 2116 1406 1581 1522 
L 1381 1569 
Q 847 1681 609 1914 
Q 372 2147 372 2553 
Q 372 3047 722 3315 
Q 1072 3584 1716 3584 
Q 2034 3584 2315 3537 
Q 2597 3491 2834 3397 
z
" transform="scale(0.015625)"/>
       <path id="DejaVuSans-5d" d="M 1947 4863 
L 1947 -844 
L 622 -844 
L 622 -397 
L 1369 -397 
L 1369 4416 
L 622 4416 
L 622 4863 
L 1947 4863 
z
" transform="scale(0.015625)"/>
      </defs>
      <use xlink:href="#DejaVuSans-74"/>
      <use xlink:href="#DejaVuSans-6f" transform="translate(39.208984 0)"/>
      <use xlink:href="#DejaVuSans-61" transform="translate(100.390625 0)"/>
      <use xlink:href="#DejaVuSans-20" transform="translate(161.669922 0)"/>
      <use xlink:href="#DejaVuSans-5b" transform="translate(193.457031 0)"/>
      <use xlink:href="#DejaVuSans-b5" transform="translate(232.470703 0)"/>
      <use xlink:href="#DejaVuSans-73" transform="translate(296.09375 0)"/>
      <use xlink:href="#DejaVuSans-5d" transform="translate(348.193359 0)"/>
     </g>
    </g>
   </g>
   <g id="matplotlib.axis_2">
    <g id="ytick_1">
     <g id="line2d_9">
      <defs>
       <path id="mbf4fe6eea4" d="M 0 0 
L -3.5 0 
" style="stroke: #000000; stroke-width: 0.8"/>
      </defs>
      <g>
       <use xlink:href="#mbf4fe6eea4" x="53.328125" y="218.88" style="stroke: #000000; stroke-width: 0.8"/>
      </g>
     </g>
     <g id="text_10">
      <!-- 0 -->
      <g transform="translate(39.965625 222.679219) scale(0.1 -0.1)">
       <use xlink:href="#DejaVuSans-30"/>
      </g>
     </g>
    </g>
    <g id="ytick_2">
     <g id="line2d_10">
      <g>
       <use xlink:href="#mbf4fe6eea4" x="53.328125" y="182.391312" style="stroke: #000000; stroke-width: 0.8"/>
      </g>
     </g>
     <g id="text_11">
      <!-- 200 -->
      <g transform="translate(27.240625 186.190531) scale(0.1 -0.1)">
       <use xlink:href="#DejaVuSans-32"/>
       <use xlink:href="#DejaVuSans-30" transform="translate(63.623047 0)"/>
       <use xlink:href="#DejaVuSans-30" transform="translate(127.246094 0)"/>
      </g>
     </g>
    </g>
    <g id="ytick_3">
     <g id="line2d_11">
      <g>
       <use xlink:href="#mbf4fe6eea4" x="53.328125" y="145.902624" style="stroke: #000000; stroke-width: 0.8"/>
      </g>
     </g>
     <g id="text_12">
      <!-- 400 -->
      <g transform="translate(27.240625 149.701843) scale(0.1 -0.1)">
       <defs>
        <path id="DejaVuSans-34" d="M 2419 4116 
L 825 1625 
L 2419 1625 
L 2419 4116 
z
M 2253 4666 
L 3047 4666 
L 3047 1625 
L 3713 1625 
L 3713 1100 
L 3047 1100 
L 3047 0 
L 2419 0 
L 2419 1100 
L 313 1100 
L 313 1709 
L 2253 4666 
z
" transform="scale(0.015625)"/>
       </defs>
       <use xlink:href="#DejaVuSans-34"/>
       <use xlink:href="#DejaVuSans-30" transform="translate(63.623047 0)"/>
       <use xlink:href="#DejaVuSans-30" transform="translate(127.246094 0)"/>
      </g>
     </g>
    </g>
    <g id="ytick_4">
     <g id="line2d_12">
      <g>
       <use xlink:href="#mbf4fe6eea4" x="53.328125" y="109.413937" style="stroke: #000000; stroke-width: 0.8"/>
      </g>
     </g>
     <g id="text_13">
      <!-- 600 -->
      <g transform="translate(27.240625 113.213155) scale(0.1 -0.1)">
       <defs>
        <path id="DejaVuSans-36" d="M 2113 2584 
Q 1688 2584 1439 2293 
Q 1191 2003 1191 1497 
Q 1191 994 1439 701 
Q 1688 409 2113 409 
Q 2538 409 2786 701 
Q 3034 994 3034 1497 
Q 3034 2003 2786 2293 
Q 2538 2584 2113 2584 
z
M 3366 4563 
L 3366 3988 
Q 3128 4100 2886 4159 
Q 2644 4219 2406 4219 
Q 1781 4219 1451 3797 
Q 1122 3375 1075 2522 
Q 1259 2794 1537 2939 
Q 1816 3084 2150 3084 
Q 2853 3084 3261 2657 
Q 3669 2231 3669 1497 
Q 3669 778 3244 343 
Q 2819 -91 2113 -91 
Q 1303 -91 875 529 
Q 447 1150 447 2328 
Q 447 3434 972 4092 
Q 1497 4750 2381 4750 
Q 2619 4750 2861 4703 
Q 3103 4656 3366 4563 
z
" transform="scale(0.015625)"/>
       </defs>
       <use xlink:href="#DejaVuSans-36"/>
       <use xlink:href="#DejaVuSans-30" transform="translate(63.623047 0)"/>
       <use xlink:href="#DejaVuSans-30" transform="translate(127.246094 0)"/>
      </g>
     </g>
    </g>
    <g id="ytick_5">
     <g id="line2d_13">
      <g>
       <use xlink:href="#mbf4fe6eea4" x="53.328125" y="72.925249" style="stroke: #000000; stroke-width: 0.8"/>
      </g>
     </g>
     <g id="text_14">
      <!-- 800 -->
      <g transform="translate(27.240625 76.724468) scale(0.1 -0.1)">
       <defs>
        <path id="DejaVuSans-38" d="M 2034 2216 
Q 1584 2216 1326 1975 
Q 1069 1734 1069 1313 
Q 1069 891 1326 650 
Q 1584 409 2034 409 
Q 2484 409 2743 651 
Q 3003 894 3003 1313 
Q 3003 1734 2745 1975 
Q 2488 2216 2034 2216 
z
M 1403 2484 
Q 997 2584 770 2862 
Q 544 3141 544 3541 
Q 544 4100 942 4425 
Q 1341 4750 2034 4750 
Q 2731 4750 3128 4425 
Q 3525 4100 3525 3541 
Q 3525 3141 3298 2862 
Q 3072 2584 2669 2484 
Q 3125 2378 3379 2068 
Q 3634 1759 3634 1313 
Q 3634 634 3220 271 
Q 2806 -91 2034 -91 
Q 1263 -91 848 271 
Q 434 634 434 1313 
Q 434 1759 690 2068 
Q 947 2378 1403 2484 
z
M 1172 3481 
Q 1172 3119 1398 2916 
Q 1625 2713 2034 2713 
Q 2441 2713 2670 2916 
Q 2900 3119 2900 3481 
Q 2900 3844 2670 4047 
Q 2441 4250 2034 4250 
Q 1625 4250 1398 4047 
Q 1172 3844 1172 3481 
z
" transform="scale(0.015625)"/>
       </defs>
       <use xlink:href="#DejaVuSans-38"/>
       <use xlink:href="#DejaVuSans-30" transform="translate(63.623047 0)"/>
       <use xlink:href="#DejaVuSans-30" transform="translate(127.246094 0)"/>
      </g>
     </g>
    </g>
    <g id="ytick_6">
     <g id="line2d_14">
      <g>
       <use xlink:href="#mbf4fe6eea4" x="53.328125" y="36.436561" style="stroke: #000000; stroke-width: 0.8"/>
      </g>
     </g>
     <g id="text_15">
      <!-- 1000 -->
      <g transform="translate(20.878125 40.23578) scale(0.1 -0.1)">
       <use xlink:href="#DejaVuSans-31"/>
       <use xlink:href="#DejaVuSans-30" transform="translate(63.623047 0)"/>
       <use xlink:href="#DejaVuSans-30" transform="translate(127.246094 0)"/>
       <use xlink:href="#DejaVuSans-30" transform="translate(190.869141 0)"/>
      </g>
     </g>
    </g>
    <g id="text_16">
     <!-- [counts] -->
     <g transform="translate(14.798438 138.6925) rotate(-90) scale(0.1 -0.1)">
      <defs>
       <path id="DejaVuSans-63" d="M 3122 3366 
L 3122 2828 
Q 2878 2963 2633 3030 
Q 2388 3097 2138 3097 
Q 1578 3097 1268 2742 
Q 959 2388 959 1747 
Q 959 1106 1268 751 
Q 1578 397 2138 397 
Q 2388 397 2633 464 
Q 2878 531 3122 666 
L 3122 134 
Q 2881 22 2623 -34 
Q 2366 -91 2075 -91 
Q 1284 -91 818 406 
Q 353 903 353 1747 
Q 353 2603 823 3093 
Q 1294 3584 2113 3584 
Q 2378 3584 2631 3529 
Q 2884 3475 3122 3366 
z
" transform="scale(0.015625)"/>
       <path id="DejaVuSans-75" d="M 544 1381 
L 544 3500 
L 1119 3500 
L 1119 1403 
Q 1119 906 1312 657 
Q 1506 409 1894 409 
Q 2359 409 2629 706 
Q 2900 1003 2900 1516 
L 2900 3500 
L 3475 3500 
L 3475 0 
L 2900 0 
L 2900 538 
Q 2691 219 2414 64 
Q 2138 -91 1772 -91 
Q 1169 -91 856 284 
Q 544 659 544 1381 
z
M 1991 3584 
L 1991 3584 
z
" transform="scale(0.015625)"/>
       <path id="DejaVuSans-6e" d="M 3513 2113 
L 3513 0 
L 2938 0 
L 2938 2094 
Q 2938 2591 2744 2837 
Q 2550 3084 2163 3084 
Q 1697 3084 1428 2787 
Q 1159 2491 1159 1978 
L 1159 0 
L 581 0 
L 581 3500 
L 1159 3500 
L 1159 2956 
Q 1366 3272 1645 3428 
Q 1925 3584 2291 3584 
Q 2894 3584 3203 3211 
Q 3513 2838 3513 2113 
z
" transform="scale(0.015625)"/>
      </defs>
      <use xlink:href="#DejaVuSans-5b"/>
      <use xlink:href="#DejaVuSans-63" transform="translate(39.013672 0)"/>
      <use xlink:href="#DejaVuSans-6f" transform="translate(93.994141 0)"/>
      <use xlink:href="#DejaVuSans-75" transform="translate(155.175781 0)"/>
      <use xlink:href="#DejaVuSans-6e" transform="translate(218.554688 0)"/>
      <use xlink:href="#DejaVuSans-74" transform="translate(281.933594 0)"/>
      <use xlink:href="#DejaVuSans-73" transform="translate(321.142578 0)"/>
      <use xlink:href="#DejaVuSans-5d" transform="translate(373.242188 0)"/>
     </g>
    </g>
   </g>
   <g id="line2d_15">
    <path d="M 58.016314 189.871493 
L 58.32886 189.871493 
L 58.32886 145.172851 
L 58.641406 145.172851 
L 58.641406 99.014661 
L 58.953952 99.014661 
L 58.953952 94.453575 
L 59.266498 94.453575 
L 59.266498 101.751312 
L 59.579044 101.751312 
L 59.579044 91.53448 
L 59.89159 91.53448 
L 59.89159 94.636018 
L 60.204136 94.636018 
L 60.204136 79.8581 
L 60.516682 79.8581 
L 60.516682 78.216109 
L 60.829228 78.216109 
L 60.829228 65.445068 
L 61.141774 65.445068 
L 61.141774 54.498462 
L 61.45432 54.498462 
L 61.45432 52.126697 
L 61.766866 52.126697 
L 61.766866 56.870226 
L 62.079412 56.870226 
L 62.079412 61.978643 
L 62.391958 61.978643 
L 62.391958 37.713665 
L 62.704504 37.713665 
L 62.704504 30.780814 
L 63.01705 30.780814 
L 63.01705 24.030407 
L 63.329596 24.030407 
L 63.329596 29.321267 
L 63.642142 29.321267 
L 63.642142 29.868597 
L 64.267234 29.868597 
L 64.267234 26.584615 
L 64.57978 26.584615 
L 64.57978 22.023529 
L 64.892326 22.023529 
L 64.892326 28.773937 
L 65.204872 28.773937 
L 65.204872 19.651765 
L 65.517418 19.651765 
L 65.517418 33.69991 
L 65.829964 33.69991 
L 65.829964 36.801448 
L 66.142509 36.801448 
L 66.142509 50.484706 
L 66.455055 50.484706 
L 66.455055 44.099186 
L 66.767601 44.099186 
L 66.767601 42.274751 
L 67.080147 42.274751 
L 67.080147 57.235113 
L 67.392693 57.235113 
L 67.392693 65.262624 
L 67.705239 65.262624 
L 67.705239 80.40543 
L 68.017785 80.40543 
L 68.017785 91.169593 
L 68.330331 91.169593 
L 68.330331 102.298643 
L 68.642877 102.298643 
L 68.642877 110.326154 
L 68.955423 110.326154 
L 68.955423 123.279638 
L 69.267969 123.279638 
L 69.267969 131.124706 
L 69.580515 131.124706 
L 69.580515 134.408688 
L 69.893061 134.408688 
L 69.893061 151.923258 
L 70.205607 151.923258 
L 70.205607 154.842353 
L 70.518153 154.842353 
L 70.518153 167.43095 
L 70.830699 167.43095 
L 70.830699 172.72181 
L 71.143245 172.72181 
L 71.143245 185.492851 
L 71.455791 185.492851 
L 71.455791 189.68905 
L 71.768337 189.68905 
L 71.768337 198.263891 
L 72.080883 198.263891 
L 72.080883 205.014299 
L 72.393429 205.014299 
L 72.393429 213.771584 
L 72.705975 213.771584 
L 72.705975 218.33267 
L 73.018521 218.33267 
L 73.018521 218.88 
L 75.518888 218.88 
L 75.518888 218.697557 
L 75.831434 218.697557 
L 75.831434 201.547873 
L 76.14398 201.547873 
L 76.14398 169.072941 
L 76.456526 169.072941 
L 76.456526 130.394932 
L 76.769072 130.394932 
L 76.769072 106.859729 
L 77.081618 106.859729 
L 77.081618 92.811584 
L 77.394164 92.811584 
L 77.394164 93.176471 
L 77.70671 93.176471 
L 77.70671 92.994027 
L 78.019256 92.994027 
L 78.019256 91.53448 
L 78.331802 91.53448 
L 78.331802 97.737557 
L 78.644348 97.737557 
L 78.644348 98.832217 
L 78.956894 98.832217 
L 78.956894 103.75819 
L 79.26944 103.75819 
L 79.26944 106.129955 
L 79.581986 106.129955 
L 79.581986 107.407059 
L 79.894532 107.407059 
L 79.894532 105.582624 
L 80.207078 105.582624 
L 80.207078 110.326154 
L 80.519624 110.326154 
L 80.519624 113.975023 
L 80.83217 113.975023 
L 80.83217 114.522353 
L 81.144716 114.522353 
L 81.144716 106.494842 
L 81.457262 106.494842 
L 81.457262 113.792579 
L 81.769808 113.792579 
L 81.769808 108.319276 
L 82.082354 108.319276 
L 82.082354 122.914751 
L 82.3949 122.914751 
L 82.3949 119.995656 
L 82.707446 119.995656 
L 82.707446 116.711674 
L 83.019992 116.711674 
L 83.019992 125.104072 
L 83.332537 125.104072 
L 83.332537 121.090317 
L 83.645083 121.090317 
L 83.645083 125.104072 
L 83.957629 125.104072 
L 83.957629 125.833846 
L 84.270175 125.833846 
L 84.270175 130.759819 
L 84.582721 130.759819 
L 84.582721 132.219367 
L 84.895267 132.219367 
L 84.895267 129.482715 
L 85.207813 129.482715 
L 85.207813 128.388054 
L 85.520359 128.388054 
L 85.520359 135.320905 
L 85.832905 135.320905 
L 85.832905 138.604887 
L 86.145451 138.604887 
L 86.145451 134.773575 
L 86.457997 134.773575 
L 86.457997 140.429321 
L 86.770543 140.429321 
L 86.770543 137.69267 
L 87.083089 137.69267 
L 87.083089 141.341538 
L 87.395635 141.341538 
L 87.395635 143.165973 
L 87.708181 143.165973 
L 87.708181 147.544615 
L 88.020727 147.544615 
L 88.020727 151.011041 
L 88.333273 151.011041 
L 88.333273 157.396561 
L 88.645819 157.396561 
L 88.645819 162.869864 
L 88.958365 162.869864 
L 88.958365 167.43095 
L 89.270911 167.43095 
L 89.270911 169.437828 
L 89.583457 169.437828 
L 89.583457 181.114208 
L 89.896003 181.114208 
L 89.896003 183.303529 
L 90.208549 183.303529 
L 90.208549 188.959276 
L 90.521095 188.959276 
L 90.521095 195.892127 
L 90.833641 195.892127 
L 90.833641 201.91276 
L 91.146187 201.91276 
L 91.146187 207.75095 
L 91.458733 207.75095 
L 91.458733 213.224253 
L 91.771278 213.224253 
L 91.771278 213.04181 
L 92.083824 213.04181 
L 92.083824 217.055566 
L 92.39637 217.055566 
L 92.39637 218.88 
L 92.708916 218.88 
L 92.708916 214.136471 
L 93.021462 214.136471 
L 93.021462 206.838733 
L 93.334008 206.838733 
L 93.334008 187.682172 
L 93.646554 187.682172 
L 93.646554 170.714932 
L 93.9591 170.714932 
L 93.9591 165.241629 
L 94.271646 165.241629 
L 94.271646 153.565249 
L 94.584192 153.565249 
L 94.584192 146.085068 
L 94.896738 146.085068 
L 94.896738 155.389683 
L 95.209284 155.389683 
L 95.209284 148.821719 
L 95.52183 148.821719 
L 95.52183 155.024796 
L 95.834376 155.024796 
L 95.834376 160.4981 
L 96.146922 160.4981 
L 96.146922 161.227873 
L 96.459468 161.227873 
L 96.459468 155.572127 
L 96.772014 155.572127 
L 96.772014 159.768326 
L 97.08456 159.768326 
L 97.08456 159.585882 
L 97.397106 159.585882 
L 97.397106 156.119457 
L 97.709652 156.119457 
L 97.709652 162.322534 
L 98.022198 162.322534 
L 98.022198 158.308778 
L 98.334744 158.308778 
L 98.334744 161.04543 
L 98.64729 161.04543 
L 98.64729 157.031674 
L 98.959836 157.031674 
L 98.959836 163.964525 
L 99.272382 163.964525 
L 99.272382 161.227873 
L 99.584928 161.227873 
L 99.584928 168.160724 
L 99.897474 168.160724 
L 99.897474 173.816471 
L 100.210019 173.816471 
L 100.210019 175.458462 
L 100.835111 175.458462 
L 100.835111 177.647783 
L 101.147657 177.647783 
L 101.147657 180.019548 
L 101.460203 180.019548 
L 101.460203 180.566878 
L 101.772749 180.566878 
L 101.772749 184.215747 
L 102.085295 184.215747 
L 102.085295 186.952398 
L 102.397841 186.952398 
L 102.397841 187.499729 
L 102.710387 187.499729 
L 102.710387 183.303529 
L 103.022933 183.303529 
L 103.022933 188.411946 
L 103.335479 188.411946 
L 103.335479 192.973032 
L 103.648025 192.973032 
L 103.648025 195.709683 
L 103.960571 195.709683 
L 103.960571 195.162353 
L 104.273117 195.162353 
L 104.273117 198.628778 
L 104.585663 198.628778 
L 104.585663 199.540995 
L 104.898209 199.540995 
L 104.898209 198.446335 
L 105.210755 198.446335 
L 105.210755 206.108959 
L 105.523301 206.108959 
L 105.523301 205.014299 
L 105.835847 205.014299 
L 105.835847 208.845611 
L 106.148393 208.845611 
L 106.148393 207.75095 
L 106.460939 207.75095 
L 106.460939 212.312036 
L 106.773485 212.312036 
L 106.773485 214.318914 
L 107.086031 214.318914 
L 107.086031 214.683801 
L 107.398577 214.683801 
L 107.398577 218.150226 
L 107.711123 218.150226 
L 107.711123 217.055566 
L 108.023669 217.055566 
L 108.023669 215.596018 
L 108.336215 215.596018 
L 108.336215 211.947149 
L 108.64876 211.947149 
L 108.64876 204.284525 
L 108.961306 204.284525 
L 108.961306 192.060814 
L 109.273852 192.060814 
L 109.273852 188.411946 
L 109.586398 188.411946 
L 109.586398 185.127964 
L 109.898944 185.127964 
L 109.898944 186.040181 
L 110.21149 186.040181 
L 110.21149 191.695928 
L 110.524036 191.695928 
L 110.524036 188.411946 
L 110.836582 188.411946 
L 110.836582 193.885249 
L 111.149128 193.885249 
L 111.149128 193.520362 
L 111.461674 193.520362 
L 111.461674 193.702805 
L 111.77422 193.702805 
L 111.77422 197.351674 
L 112.086766 197.351674 
L 112.086766 196.6219 
L 112.399312 196.6219 
L 112.399312 199.358552 
L 112.711858 199.358552 
L 112.711858 199.540995 
L 113.024404 199.540995 
L 113.024404 203.919638 
L 113.33695 203.919638 
L 113.33695 199.176109 
L 113.649496 199.176109 
L 113.649496 200.8181 
L 113.962042 200.8181 
L 113.962042 199.176109 
L 114.274588 199.176109 
L 114.274588 204.649412 
L 114.587134 204.649412 
L 114.587134 205.379186 
L 114.89968 205.379186 
L 114.89968 201.547873 
L 115.212226 201.547873 
L 115.212226 208.845611 
L 115.524772 208.845611 
L 115.524772 206.838733 
L 115.837318 206.838733 
L 115.837318 208.115837 
L 116.149864 208.115837 
L 116.149864 211.034932 
L 116.46241 211.034932 
L 116.46241 210.670045 
L 116.774956 210.670045 
L 116.774956 210.122715 
L 117.087501 210.122715 
L 117.087501 210.670045 
L 117.400047 210.670045 
L 117.400047 210.487602 
L 117.712593 210.487602 
L 117.712593 211.947149 
L 118.025139 211.947149 
L 118.025139 210.852489 
L 118.337685 210.852489 
L 118.337685 213.04181 
L 118.650231 213.04181 
L 118.650231 211.399819 
L 118.962777 211.399819 
L 118.962777 214.866244 
L 119.587869 214.866244 
L 119.587869 216.690679 
L 119.900415 216.690679 
L 119.900415 216.325792 
L 120.212961 216.325792 
L 120.212961 217.602896 
L 120.525507 217.602896 
L 120.525507 216.143348 
L 120.838053 216.143348 
L 120.838053 217.602896 
L 121.150599 217.602896 
L 121.150599 217.785339 
L 121.463145 217.785339 
L 121.463145 218.33267 
L 121.775691 218.33267 
L 121.775691 218.88 
L 122.400783 218.88 
L 122.400783 218.697557 
L 122.713329 218.697557 
L 122.713329 217.420452 
L 123.025875 217.420452 
L 123.025875 214.866244 
L 123.338421 214.866244 
L 123.338421 211.764706 
L 123.650967 211.764706 
L 123.650967 210.670045 
L 123.963513 210.670045 
L 123.963513 209.028054 
L 124.276059 209.028054 
L 124.276059 205.014299 
L 124.588605 205.014299 
L 124.588605 205.561629 
L 124.901151 205.561629 
L 124.901151 208.298281 
L 125.213697 208.298281 
L 125.213697 206.473846 
L 125.526243 206.473846 
L 125.526243 206.838733 
L 125.838788 206.838733 
L 125.838788 209.575385 
L 126.151334 209.575385 
L 126.151334 210.122715 
L 126.46388 210.122715 
L 126.46388 207.933394 
L 126.776426 207.933394 
L 126.776426 210.487602 
L 127.088972 210.487602 
L 127.088972 211.217376 
L 127.401518 211.217376 
L 127.401518 210.122715 
L 127.714064 210.122715 
L 127.714064 211.399819 
L 128.02661 211.399819 
L 128.02661 212.676923 
L 128.339156 212.676923 
L 128.339156 211.582262 
L 128.651702 211.582262 
L 128.651702 211.764706 
L 128.964248 211.764706 
L 128.964248 214.136471 
L 129.276794 214.136471 
L 129.276794 212.312036 
L 129.58934 212.312036 
L 129.58934 213.954027 
L 129.901886 213.954027 
L 129.901886 213.58914 
L 130.214432 213.58914 
L 130.214432 214.683801 
L 130.526978 214.683801 
L 130.526978 215.413575 
L 130.839524 215.413575 
L 130.839524 215.596018 
L 131.15207 215.596018 
L 131.15207 214.866244 
L 131.464616 214.866244 
L 131.464616 215.960905 
L 131.777162 215.960905 
L 131.777162 216.873122 
L 132.089708 216.873122 
L 132.089708 216.143348 
L 132.402254 216.143348 
L 132.402254 216.873122 
L 132.7148 216.873122 
L 132.7148 215.413575 
L 133.027346 215.413575 
L 133.027346 217.785339 
L 133.652438 217.785339 
L 133.652438 217.420452 
L 133.964984 217.420452 
L 133.964984 218.150226 
L 134.277529 218.150226 
L 134.277529 217.967783 
L 134.590075 217.967783 
L 134.590075 218.697557 
L 134.902621 218.697557 
L 134.902621 218.88 
L 137.090443 218.88 
L 137.090443 218.697557 
L 137.402989 218.697557 
L 137.402989 217.785339 
L 137.715535 217.785339 
L 137.715535 216.690679 
L 138.028081 216.690679 
L 138.028081 213.224253 
L 138.340627 213.224253 
L 138.340627 211.582262 
L 138.653173 211.582262 
L 138.653173 211.217376 
L 138.965719 211.217376 
L 138.965719 208.115837 
L 139.278265 208.115837 
L 139.278265 204.102081 
L 139.903357 204.102081 
L 139.903357 205.014299 
L 140.215903 205.014299 
L 140.215903 203.189864 
L 140.528449 203.189864 
L 140.528449 203.919638 
L 140.840995 203.919638 
L 140.840995 204.466968 
L 141.153541 204.466968 
L 141.153541 204.284525 
L 141.466087 204.284525 
L 141.466087 205.744072 
L 141.778633 205.744072 
L 141.778633 205.379186 
L 142.091179 205.379186 
L 142.091179 203.189864 
L 142.403725 203.189864 
L 142.403725 202.824977 
L 142.71627 202.824977 
L 142.71627 204.831855 
L 143.028816 204.831855 
L 143.028816 203.919638 
L 143.341362 203.919638 
L 143.341362 205.926516 
L 143.653908 205.926516 
L 143.653908 204.466968 
L 143.966454 204.466968 
L 143.966454 209.028054 
L 144.279 209.028054 
L 144.279 206.291403 
L 144.591546 206.291403 
L 144.591546 203.919638 
L 144.904092 203.919638 
L 144.904092 206.108959 
L 145.216638 206.108959 
L 145.216638 206.291403 
L 145.529184 206.291403 
L 145.529184 204.649412 
L 145.84173 204.649412 
L 145.84173 208.480724 
L 146.154276 208.480724 
L 146.154276 209.028054 
L 146.466822 209.028054 
L 146.466822 207.386063 
L 146.779368 207.386063 
L 146.779368 207.75095 
L 147.091914 207.75095 
L 147.091914 207.568507 
L 147.40446 207.568507 
L 147.40446 209.757828 
L 147.717006 209.757828 
L 147.717006 210.122715 
L 148.029552 210.122715 
L 148.029552 209.392941 
L 148.342098 209.392941 
L 148.342098 209.575385 
L 148.654644 209.575385 
L 148.654644 212.312036 
L 148.96719 212.312036 
L 148.96719 212.49448 
L 149.279736 212.49448 
L 149.279736 213.406697 
L 149.592282 213.406697 
L 149.592282 212.49448 
L 149.904828 212.49448 
L 149.904828 215.596018 
L 150.217374 215.596018 
L 150.217374 214.866244 
L 150.52992 214.866244 
L 150.52992 215.048688 
L 150.842466 215.048688 
L 150.842466 216.325792 
L 151.155011 216.325792 
L 151.155011 218.150226 
L 151.780103 218.150226 
L 151.780103 218.150226 
" clip-path="url(#pec03627085)" style="fill: none; stroke: #1f77b4; stroke-width: 1.5; stroke-linecap: square"/>
   </g>
   <g id="line2d_16">
    <path d="M 173.867515 191.331041 
L 174.179132 191.331041 
L 174.179132 146.267511 
L 174.490749 146.267511 
L 174.490749 104.487964 
L 174.802366 104.487964 
L 174.802366 95.548235 
L 175.113982 95.548235 
L 175.113982 93.906244 
L 175.425599 93.906244 
L 175.425599 90.622262 
L 175.737216 90.622262 
L 175.737216 76.391674 
L 176.048833 76.391674 
L 176.048833 79.493213 
L 176.36045 79.493213 
L 176.36045 69.093937 
L 176.672067 69.093937 
L 176.672067 67.451946 
L 176.983683 67.451946 
L 176.983683 66.357285 
L 177.2953 66.357285 
L 177.2953 57.964887 
L 177.606917 57.964887 
L 177.606917 49.207602 
L 177.918534 49.207602 
L 177.918534 42.822081 
L 178.230151 42.822081 
L 178.230151 39.720543 
L 178.541768 39.720543 
L 178.541768 44.646516 
L 178.853384 44.646516 
L 178.853384 39.5381 
L 179.165001 39.5381 
L 179.165001 33.882353 
L 179.476618 33.882353 
L 179.476618 35.3419 
L 179.788235 35.3419 
L 179.788235 31.328145 
L 180.099852 31.328145 
L 180.099852 23.300633 
L 180.411469 23.300633 
L 180.411469 24.942624 
L 180.723086 24.942624 
L 180.723086 34.79457 
L 181.034702 34.79457 
L 181.034702 38.808326 
L 181.346319 38.808326 
L 181.346319 35.889231 
L 181.657936 35.889231 
L 181.657936 36.254118 
L 181.969553 36.254118 
L 181.969553 41.362534 
L 182.28117 41.362534 
L 182.28117 40.815204 
L 182.592787 40.815204 
L 182.592787 43.186968 
L 182.904403 43.186968 
L 182.904403 62.343529 
L 183.21602 62.343529 
L 183.21602 70.371041 
L 183.527637 70.371041 
L 183.527637 77.668778 
L 183.839254 77.668778 
L 183.839254 93.176471 
L 184.150871 93.176471 
L 184.150871 105.947511 
L 184.462488 105.947511 
L 184.462488 116.711674 
L 184.774104 116.711674 
L 184.774104 122.184977 
L 185.085721 122.184977 
L 185.085721 130.394932 
L 185.397338 130.394932 
L 185.397338 137.69267 
L 185.708955 137.69267 
L 185.708955 150.46371 
L 186.020572 150.46371 
L 186.020572 156.666787 
L 186.332189 156.666787 
L 186.332189 163.417195 
L 186.643806 163.417195 
L 186.643806 176.553122 
L 186.955422 176.553122 
L 186.955422 184.215747 
L 187.267039 184.215747 
L 187.267039 193.337919 
L 187.578656 193.337919 
L 187.578656 197.351674 
L 187.890273 197.351674 
L 187.890273 204.466968 
L 188.20189 204.466968 
L 188.20189 213.04181 
L 188.513507 213.04181 
L 188.513507 217.238009 
L 188.825123 217.238009 
L 188.825123 218.88 
L 191.629675 218.88 
L 191.629675 209.940271 
L 191.941292 209.940271 
L 191.941292 176.005792 
L 192.252909 176.005792 
L 192.252909 134.591131 
L 192.564526 134.591131 
L 192.564526 109.778824 
L 192.876142 109.778824 
L 192.876142 86.79095 
L 193.187759 86.79095 
L 193.187759 91.53448 
L 193.499376 91.53448 
L 193.499376 92.264253 
L 193.810993 92.264253 
L 193.810993 102.116199 
L 194.12261 102.116199 
L 194.12261 93.906244 
L 194.434227 93.906244 
L 194.434227 97.37267 
L 194.745843 97.37267 
L 194.745843 103.575747 
L 195.05746 103.575747 
L 195.05746 105.765068 
L 195.369077 105.765068 
L 195.369077 99.014661 
L 195.680694 99.014661 
L 195.680694 109.778824 
L 195.992311 109.778824 
L 195.992311 104.670407 
L 196.303928 104.670407 
L 196.303928 115.252127 
L 196.615544 115.252127 
L 196.615544 113.792579 
L 196.927161 113.792579 
L 196.927161 113.062805 
L 197.238778 113.062805 
L 197.238778 109.961267 
L 197.550395 109.961267 
L 197.550395 114.157466 
L 197.862012 114.157466 
L 197.862012 117.076561 
L 198.173629 117.076561 
L 198.173629 115.799457 
L 198.485246 115.799457 
L 198.485246 129.482715 
L 198.796862 129.482715 
L 198.796862 122.914751 
L 199.108479 122.914751 
L 199.108479 119.995656 
L 199.420096 119.995656 
L 199.420096 123.097195 
L 199.731713 123.097195 
L 199.731713 123.644525 
L 200.04333 123.644525 
L 200.04333 125.286516 
L 200.354947 125.286516 
L 200.354947 133.496471 
L 200.666563 133.496471 
L 200.666563 131.307149 
L 200.97818 131.307149 
L 200.97818 128.570498 
L 201.289797 128.570498 
L 201.289797 126.381176 
L 201.601414 126.381176 
L 201.601414 138.969774 
L 201.913031 138.969774 
L 201.913031 135.685792 
L 202.224648 135.685792 
L 202.224648 136.050679 
L 202.536264 136.050679 
L 202.536264 144.07819 
L 202.847881 144.07819 
L 202.847881 140.246878 
L 203.159498 140.246878 
L 203.159498 146.632398 
L 203.471115 146.632398 
L 203.471115 149.186606 
L 203.782732 149.186606 
L 203.782732 143.53086 
L 204.094349 143.53086 
L 204.094349 157.396561 
L 204.405966 157.396561 
L 204.405966 159.768326 
L 204.717582 159.768326 
L 204.717582 167.066063 
L 205.029199 167.066063 
L 205.029199 170.897376 
L 205.340816 170.897376 
L 205.340816 171.262262 
L 205.652433 171.262262 
L 205.652433 183.485973 
L 205.96405 183.485973 
L 205.96405 191.878371 
L 206.275667 191.878371 
L 206.275667 191.513484 
L 206.587283 191.513484 
L 206.587283 199.540995 
L 206.8989 199.540995 
L 206.8989 204.649412 
L 207.210517 204.649412 
L 207.210517 209.940271 
L 207.522134 209.940271 
L 207.522134 213.771584 
L 207.833751 213.771584 
L 207.833751 216.143348 
L 208.145368 216.143348 
L 208.145368 218.697557 
L 208.456984 218.697557 
L 208.456984 217.420452 
L 208.768601 217.420452 
L 208.768601 209.575385 
L 209.080218 209.575385 
L 209.080218 194.432579 
L 209.391835 194.432579 
L 209.391835 183.303529 
L 209.703452 183.303529 
L 209.703452 166.33629 
L 210.015069 166.33629 
L 210.015069 154.112579 
L 210.326686 154.112579 
L 210.326686 151.375928 
L 210.638302 151.375928 
L 210.638302 154.295023 
L 210.949919 154.295023 
L 210.949919 156.666787 
L 211.261536 156.666787 
L 211.261536 149.551493 
L 211.573153 149.551493 
L 211.573153 156.849231 
L 211.88477 156.849231 
L 211.88477 159.220995 
L 212.196387 159.220995 
L 212.196387 161.410317 
L 212.508003 161.410317 
L 212.508003 154.477466 
L 212.81962 154.477466 
L 212.81962 159.585882 
L 213.131237 159.585882 
L 213.131237 157.761448 
L 213.442854 157.761448 
L 213.442854 155.937014 
L 213.754471 155.937014 
L 213.754471 161.227873 
L 214.066088 161.227873 
L 214.066088 166.88362 
L 214.377704 166.88362 
L 214.377704 163.417195 
L 214.689321 163.417195 
L 214.689321 161.59276 
L 215.000938 161.59276 
L 215.000938 161.227873 
L 215.312555 161.227873 
L 215.312555 170.350045 
L 215.624172 170.350045 
L 215.624172 166.518733 
L 215.935789 166.518733 
L 215.935789 175.823348 
L 216.247406 175.823348 
L 216.247406 171.262262 
L 216.559022 171.262262 
L 216.559022 175.823348 
L 216.870639 175.823348 
L 216.870639 176.553122 
L 217.182256 176.553122 
L 217.182256 179.289774 
L 217.493873 179.289774 
L 217.493873 176.188235 
L 217.80549 176.188235 
L 217.80549 180.019548 
L 218.117107 180.019548 
L 218.117107 189.506606 
L 218.428723 189.506606 
L 218.428723 190.78371 
L 218.74034 190.78371 
L 218.74034 188.047059 
L 219.051957 188.047059 
L 219.051957 191.878371 
L 219.363574 191.878371 
L 219.363574 189.68905 
L 219.675191 189.68905 
L 219.675191 196.804344 
L 219.986808 196.804344 
L 219.986808 195.344796 
L 220.298424 195.344796 
L 220.298424 197.716561 
L 220.610041 197.716561 
L 220.610041 200.088326 
L 220.921658 200.088326 
L 220.921658 203.919638 
L 221.233275 203.919638 
L 221.233275 202.824977 
L 221.544892 202.824977 
L 221.544892 208.480724 
L 221.856509 208.480724 
L 221.856509 207.75095 
L 222.168126 207.75095 
L 222.168126 210.670045 
L 222.479742 210.670045 
L 222.479742 210.122715 
L 222.791359 210.122715 
L 222.791359 214.136471 
L 223.102976 214.136471 
L 223.102976 216.873122 
L 223.414593 216.873122 
L 223.414593 218.33267 
L 223.72621 218.33267 
L 223.72621 217.238009 
L 224.037827 217.238009 
L 224.037827 215.231131 
L 224.349443 215.231131 
L 224.349443 209.575385 
L 224.66106 209.575385 
L 224.66106 201.730317 
L 224.972677 201.730317 
L 224.972677 193.702805 
L 225.284294 193.702805 
L 225.284294 183.668416 
L 225.595911 183.668416 
L 225.595911 190.78371 
L 225.907528 190.78371 
L 225.907528 188.959276 
L 226.219145 188.959276 
L 226.219145 189.871493 
L 226.530761 189.871493 
L 226.530761 193.155475 
L 226.842378 193.155475 
L 226.842378 190.78371 
L 227.153995 190.78371 
L 227.153995 197.716561 
L 227.465612 197.716561 
L 227.465612 196.6219 
L 227.777229 196.6219 
L 227.777229 195.892127 
L 228.088846 195.892127 
L 228.088846 196.439457 
L 228.400462 196.439457 
L 228.400462 199.358552 
L 228.712079 199.358552 
L 228.712079 198.993665 
L 229.023696 198.993665 
L 229.023696 199.176109 
L 229.335313 199.176109 
L 229.335313 199.540995 
L 229.64693 199.540995 
L 229.64693 203.372308 
L 229.958547 203.372308 
L 229.958547 203.737195 
L 230.58178 203.737195 
L 230.58178 204.102081 
L 230.893397 204.102081 
L 230.893397 205.926516 
L 231.205014 205.926516 
L 231.205014 207.386063 
L 231.516631 207.386063 
L 231.516631 208.480724 
L 231.828248 208.480724 
L 231.828248 207.75095 
L 232.139865 207.75095 
L 232.139865 208.845611 
L 232.451481 208.845611 
L 232.451481 211.399819 
L 232.763098 211.399819 
L 232.763098 211.034932 
L 233.074715 211.034932 
L 233.074715 211.217376 
L 233.386332 211.217376 
L 233.386332 210.852489 
L 233.697949 210.852489 
L 233.697949 213.771584 
L 234.009566 213.771584 
L 234.009566 213.58914 
L 234.321182 213.58914 
L 234.321182 212.676923 
L 234.632799 212.676923 
L 234.632799 215.048688 
L 234.944416 215.048688 
L 234.944416 214.318914 
L 235.256033 214.318914 
L 235.256033 214.683801 
L 235.56765 214.683801 
L 235.56765 216.690679 
L 235.879267 216.690679 
L 235.879267 215.960905 
L 236.190883 215.960905 
L 236.190883 217.238009 
L 236.5025 217.238009 
L 236.5025 217.785339 
L 236.814117 217.785339 
L 236.814117 218.515113 
L 237.125734 218.515113 
L 237.125734 218.33267 
L 237.437351 218.33267 
L 237.437351 218.88 
L 238.372201 218.88 
L 238.372201 218.515113 
L 238.683818 218.515113 
L 238.683818 216.508235 
L 238.995435 216.508235 
L 238.995435 213.771584 
L 239.307052 213.771584 
L 239.307052 209.940271 
L 239.618669 209.940271 
L 239.618669 206.65629 
L 239.930286 206.65629 
L 239.930286 206.473846 
L 240.241902 206.473846 
L 240.241902 204.649412 
L 240.553519 204.649412 
L 240.553519 207.021176 
L 240.865136 207.021176 
L 240.865136 205.196742 
L 241.176753 205.196742 
L 241.176753 206.65629 
L 241.48837 206.65629 
L 241.48837 204.284525 
L 241.799987 204.284525 
L 241.799987 207.386063 
L 242.111603 207.386063 
L 242.111603 209.940271 
L 242.42322 209.940271 
L 242.42322 208.298281 
L 242.734837 208.298281 
L 242.734837 207.75095 
L 243.046454 207.75095 
L 243.046454 211.034932 
L 243.358071 211.034932 
L 243.358071 209.757828 
L 243.669688 209.757828 
L 243.669688 211.764706 
L 243.981305 211.764706 
L 243.981305 213.58914 
L 244.292921 213.58914 
L 244.292921 211.764706 
L 244.604538 211.764706 
L 244.604538 210.487602 
L 244.916155 210.487602 
L 244.916155 211.399819 
L 245.227772 211.399819 
L 245.227772 211.947149 
L 245.539389 211.947149 
L 245.539389 213.224253 
L 246.162622 213.224253 
L 246.162622 212.859367 
L 246.474239 212.859367 
L 246.474239 215.413575 
L 247.097473 215.413575 
L 247.097473 215.596018 
L 247.40909 215.596018 
L 247.40909 217.055566 
L 247.720707 217.055566 
L 247.720707 215.778462 
L 248.032323 215.778462 
L 248.032323 215.960905 
L 248.34394 215.960905 
L 248.34394 216.690679 
L 248.655557 216.690679 
L 248.655557 217.238009 
L 248.967174 217.238009 
L 248.967174 215.778462 
L 249.278791 215.778462 
L 249.278791 217.602896 
L 249.590408 217.602896 
L 249.590408 217.238009 
L 249.902025 217.238009 
L 249.902025 218.515113 
L 250.213641 218.515113 
L 250.213641 218.33267 
L 250.836875 218.33267 
L 250.836875 218.697557 
L 251.148492 218.697557 
L 251.148492 218.88 
L 252.706576 218.88 
L 252.706576 218.697557 
L 253.32981 218.697557 
L 253.32981 217.602896 
L 253.641427 217.602896 
L 253.641427 215.048688 
L 253.953043 215.048688 
L 253.953043 213.04181 
L 254.26466 213.04181 
L 254.26466 211.034932 
L 254.576277 211.034932 
L 254.576277 209.575385 
L 254.887894 209.575385 
L 254.887894 206.65629 
L 255.199511 206.65629 
L 255.199511 203.919638 
L 255.511128 203.919638 
L 255.511128 201.547873 
L 255.822745 201.547873 
L 255.822745 201.730317 
L 256.134361 201.730317 
L 256.134361 207.021176 
L 256.445978 207.021176 
L 256.445978 206.838733 
L 256.757595 206.838733 
L 256.757595 203.919638 
L 257.069212 203.919638 
L 257.069212 198.993665 
L 257.380829 198.993665 
L 257.380829 204.102081 
L 257.692446 204.102081 
L 257.692446 204.284525 
L 258.004062 204.284525 
L 258.004062 205.014299 
L 258.315679 205.014299 
L 258.315679 207.75095 
L 258.627296 207.75095 
L 258.627296 204.466968 
L 258.938913 204.466968 
L 258.938913 206.108959 
L 259.25053 206.108959 
L 259.25053 203.189864 
L 259.562147 203.189864 
L 259.562147 205.926516 
L 259.873763 205.926516 
L 259.873763 205.744072 
L 260.18538 205.744072 
L 260.18538 206.473846 
L 260.496997 206.473846 
L 260.496997 202.824977 
L 260.808614 202.824977 
L 260.808614 206.473846 
L 261.120231 206.473846 
L 261.120231 207.568507 
L 261.431848 207.568507 
L 261.431848 206.838733 
L 261.743465 206.838733 
L 261.743465 209.392941 
L 262.055081 209.392941 
L 262.055081 209.757828 
L 262.366698 209.757828 
L 262.366698 209.210498 
L 262.678315 209.210498 
L 262.678315 210.852489 
L 262.989932 210.852489 
L 262.989932 209.575385 
L 263.301549 209.575385 
L 263.301549 211.034932 
L 263.613166 211.034932 
L 263.613166 210.305158 
L 263.924782 210.305158 
L 263.924782 210.122715 
L 264.236399 210.122715 
L 264.236399 212.49448 
L 264.548016 212.49448 
L 264.548016 212.129593 
L 264.859633 212.129593 
L 264.859633 213.771584 
L 265.17125 213.771584 
L 265.17125 213.58914 
L 265.482867 213.58914 
L 265.482867 212.859367 
L 265.794483 212.859367 
L 265.794483 213.58914 
L 266.1061 213.58914 
L 266.1061 213.406697 
L 266.417717 213.406697 
L 266.417717 215.231131 
L 266.729334 215.231131 
L 266.729334 215.048688 
L 267.040951 215.048688 
L 267.040951 217.602896 
L 267.352568 217.602896 
L 267.352568 217.602896 
" clip-path="url(#pec03627085)" style="fill: none; stroke: #ff7f0e; stroke-width: 1.5; stroke-linecap: square"/>
   </g>
   <g id="line2d_17">
    <path d="M 289.745638 189.68905 
L 290.057964 189.68905 
L 290.057964 140.429321 
L 290.370289 140.429321 
L 290.370289 104.123077 
L 290.682614 104.123077 
L 290.682614 105.765068 
L 290.99494 105.765068 
L 290.99494 94.636018 
L 291.307265 94.636018 
L 291.307265 87.885611 
L 291.61959 87.885611 
L 291.61959 83.689412 
L 291.931916 83.689412 
L 291.931916 84.054299 
L 292.244241 84.054299 
L 292.244241 67.269502 
L 292.556566 67.269502 
L 292.556566 65.992398 
L 292.868892 65.992398 
L 292.868892 59.059548 
L 293.181217 59.059548 
L 293.181217 53.221357 
L 293.493542 53.221357 
L 293.493542 50.849593 
L 293.805868 50.849593 
L 293.805868 43.916742 
L 294.118193 43.916742 
L 294.118193 40.450317 
L 294.430519 40.450317 
L 294.430519 44.099186 
L 294.742844 44.099186 
L 294.742844 32.057919 
L 295.055169 32.057919 
L 295.055169 26.037285 
L 295.367495 26.037285 
L 295.367495 17.28 
L 295.67982 17.28 
L 295.67982 29.868597 
L 295.992145 29.868597 
L 295.992145 39.5381 
L 296.304471 39.5381 
L 296.304471 26.037285 
L 296.616796 26.037285 
L 296.616796 36.801448 
L 296.929121 36.801448 
L 296.929121 36.436561 
L 297.241447 36.436561 
L 297.241447 30.780814 
L 297.553772 30.780814 
L 297.553772 29.686154 
L 297.866097 29.686154 
L 297.866097 37.531222 
L 298.178423 37.531222 
L 298.178423 51.579367 
L 298.490748 51.579367 
L 298.490748 52.674027 
L 298.803074 52.674027 
L 298.803074 51.579367 
L 299.115399 51.579367 
L 299.115399 63.255747 
L 299.427724 63.255747 
L 299.427724 79.8581 
L 299.74005 79.8581 
L 299.74005 84.966516 
L 300.052375 84.966516 
L 300.052375 107.224615 
L 300.3647 107.224615 
L 300.3647 114.704796 
L 300.677026 114.704796 
L 300.677026 119.630769 
L 300.989351 119.630769 
L 300.989351 133.314027 
L 301.301676 133.314027 
L 301.301676 135.685792 
L 301.614002 135.685792 
L 301.614002 148.639276 
L 301.926327 148.639276 
L 301.926327 161.410317 
L 302.238652 161.410317 
L 302.238652 164.694299 
L 302.550978 164.694299 
L 302.550978 178.924887 
L 302.863303 178.924887 
L 302.863303 186.952398 
L 303.175628 186.952398 
L 303.175628 192.790588 
L 303.487954 192.790588 
L 303.487954 199.905882 
L 303.800279 199.905882 
L 303.800279 208.845611 
L 304.112605 208.845611 
L 304.112605 212.859367 
L 304.42493 212.859367 
L 304.42493 218.150226 
L 304.737255 218.150226 
L 304.737255 218.88 
L 307.235858 218.88 
L 307.235858 218.33267 
L 307.548183 218.33267 
L 307.548183 202.277647 
L 307.860509 202.277647 
L 307.860509 165.059186 
L 308.172834 165.059186 
L 308.172834 132.94914 
L 308.48516 132.94914 
L 308.48516 98.102443 
L 308.797485 98.102443 
L 308.797485 84.054299 
L 309.10981 84.054299 
L 309.10981 87.338281 
L 309.422136 87.338281 
L 309.422136 79.310769 
L 309.734461 79.310769 
L 309.734461 95.000905 
L 310.046786 95.000905 
L 310.046786 95.548235 
L 310.359112 95.548235 
L 310.359112 95.730679 
L 310.671437 95.730679 
L 310.671437 104.487964 
L 310.983762 104.487964 
L 310.983762 101.203982 
L 311.296088 101.203982 
L 311.296088 99.014661 
L 311.608413 99.014661 
L 311.608413 100.291765 
L 311.920738 100.291765 
L 311.920738 113.245249 
L 312.233064 113.245249 
L 312.233064 116.711674 
L 312.545389 116.711674 
L 312.545389 112.880362 
L 312.857714 112.880362 
L 312.857714 112.515475 
L 313.17004 112.515475 
L 313.17004 113.975023 
L 313.482365 113.975023 
L 313.482365 111.055928 
L 313.794691 111.055928 
L 313.794691 119.630769 
L 314.107016 119.630769 
L 314.107016 119.995656 
L 314.419341 119.995656 
L 314.419341 117.806335 
L 314.731667 117.806335 
L 314.731667 125.286516 
L 315.043992 125.286516 
L 315.043992 121.090317 
L 315.356317 121.090317 
L 315.356317 126.381176 
L 315.668643 126.381176 
L 315.668643 131.489593 
L 315.980968 131.489593 
L 315.980968 118.718552 
L 316.293293 118.718552 
L 316.293293 128.752941 
L 316.605619 128.752941 
L 316.605619 135.685792 
L 316.917944 135.685792 
L 316.917944 129.847602 
L 317.230269 129.847602 
L 317.230269 126.381176 
L 317.542595 126.381176 
L 317.542595 136.050679 
L 317.85492 136.050679 
L 317.85492 135.685792 
L 318.167246 135.685792 
L 318.167246 138.969774 
L 318.479571 138.969774 
L 318.479571 141.523982 
L 318.791896 141.523982 
L 318.791896 138.422443 
L 319.104222 138.422443 
L 319.104222 146.267511 
L 319.416547 146.267511 
L 319.416547 150.281267 
L 319.728872 150.281267 
L 319.728872 151.740814 
L 320.041198 151.740814 
L 320.041198 155.937014 
L 320.353523 155.937014 
L 320.353523 159.585882 
L 320.665848 159.585882 
L 320.665848 170.714932 
L 320.978174 170.714932 
L 320.978174 171.809593 
L 321.290499 171.809593 
L 321.290499 178.195113 
L 321.602824 178.195113 
L 321.602824 184.763077 
L 321.91515 184.763077 
L 321.91515 187.317285 
L 322.227475 187.317285 
L 322.227475 195.892127 
L 322.5398 195.892127 
L 322.5398 199.540995 
L 322.852126 199.540995 
L 322.852126 205.561629 
L 323.164451 205.561629 
L 323.164451 210.670045 
L 323.476777 210.670045 
L 323.476777 214.683801 
L 323.789102 214.683801 
L 323.789102 216.508235 
L 324.101427 216.508235 
L 324.101427 218.515113 
L 324.413753 218.515113 
L 324.413753 214.866244 
L 324.726078 214.866244 
L 324.726078 203.007421 
L 325.038403 203.007421 
L 325.038403 186.952398 
L 325.350729 186.952398 
L 325.350729 173.26914 
L 325.663054 173.26914 
L 325.663054 164.694299 
L 325.975379 164.694299 
L 325.975379 154.477466 
L 326.287705 154.477466 
L 326.287705 150.46371 
L 326.60003 150.46371 
L 326.60003 155.389683 
L 326.912355 155.389683 
L 326.912355 147.727059 
L 327.224681 147.727059 
L 327.224681 152.105701 
L 327.537006 152.105701 
L 327.537006 154.112579 
L 327.849332 154.112579 
L 327.849332 149.733937 
L 328.161657 149.733937 
L 328.161657 158.126335 
L 328.473982 158.126335 
L 328.473982 160.680543 
L 328.786308 160.680543 
L 328.786308 159.950769 
L 329.098633 159.950769 
L 329.098633 157.031674 
L 329.410958 157.031674 
L 329.410958 160.4981 
L 329.723284 160.4981 
L 329.723284 161.957647 
L 330.035609 161.957647 
L 330.035609 163.782081 
L 330.347934 163.782081 
L 330.347934 158.673665 
L 330.66026 158.673665 
L 330.66026 165.424072 
L 330.972585 165.424072 
L 330.972585 164.146968 
L 331.28491 164.146968 
L 331.28491 160.862986 
L 331.597236 160.862986 
L 331.597236 169.802715 
L 331.909561 169.802715 
L 331.909561 166.88362 
L 332.221886 166.88362 
L 332.221886 174.911131 
L 332.534212 174.911131 
L 332.534212 177.465339 
L 332.846537 177.465339 
L 332.846537 182.573756 
L 333.158863 182.573756 
L 333.158863 172.539367 
L 333.471188 172.539367 
L 333.471188 185.310407 
L 333.783513 185.310407 
L 333.783513 184.580633 
L 334.095839 184.580633 
L 334.095839 186.222624 
L 334.408164 186.222624 
L 334.408164 187.682172 
L 334.720489 187.682172 
L 334.720489 186.405068 
L 335.032815 186.405068 
L 335.032815 189.871493 
L 335.34514 189.871493 
L 335.34514 194.97991 
L 335.657465 194.97991 
L 335.657465 194.797466 
L 335.969791 194.797466 
L 335.969791 197.899005 
L 336.282116 197.899005 
L 336.282116 201.182986 
L 336.594441 201.182986 
L 336.594441 196.439457 
L 336.906767 196.439457 
L 336.906767 202.095204 
L 337.219092 202.095204 
L 337.219092 203.554751 
L 337.531418 203.554751 
L 337.531418 208.480724 
L 337.843743 208.480724 
L 337.843743 210.122715 
L 338.156068 210.122715 
L 338.156068 211.764706 
L 338.468394 211.764706 
L 338.468394 213.58914 
L 338.780719 213.58914 
L 338.780719 214.866244 
L 339.093044 214.866244 
L 339.093044 218.150226 
L 339.40537 218.150226 
L 339.40537 217.785339 
L 339.717695 217.785339 
L 339.717695 215.960905 
L 340.03002 215.960905 
L 340.03002 208.115837 
L 340.342346 208.115837 
L 340.342346 201.91276 
L 340.654671 201.91276 
L 340.654671 195.52724 
L 340.966996 195.52724 
L 340.966996 191.513484 
L 341.279322 191.513484 
L 341.279322 187.682172 
L 341.591647 187.682172 
L 341.591647 188.959276 
L 341.903972 188.959276 
L 341.903972 190.053937 
L 342.528623 190.053937 
L 342.528623 195.52724 
L 343.153274 195.52724 
L 343.153274 196.257014 
L 343.465599 196.257014 
L 343.465599 195.892127 
L 343.777925 195.892127 
L 343.777925 196.257014 
L 344.09025 196.257014 
L 344.09025 194.615023 
L 344.402575 194.615023 
L 344.402575 198.081448 
L 344.714901 198.081448 
L 344.714901 200.635656 
L 345.027226 200.635656 
L 345.027226 199.723439 
L 345.339551 199.723439 
L 345.339551 196.439457 
L 345.651877 196.439457 
L 345.651877 203.737195 
L 345.964202 203.737195 
L 345.964202 201.91276 
L 346.276527 201.91276 
L 346.276527 204.102081 
L 346.588853 204.102081 
L 346.588853 204.466968 
L 346.901178 204.466968 
L 346.901178 205.561629 
L 347.213504 205.561629 
L 347.213504 207.021176 
L 347.525829 207.021176 
L 347.525829 206.291403 
L 347.838154 206.291403 
L 347.838154 208.663167 
L 348.15048 208.663167 
L 348.15048 209.757828 
L 348.462805 209.757828 
L 348.462805 209.575385 
L 348.77513 209.575385 
L 348.77513 208.845611 
L 349.087456 208.845611 
L 349.087456 206.838733 
L 349.399781 206.838733 
L 349.399781 211.947149 
L 349.712106 211.947149 
L 349.712106 212.49448 
L 350.024432 212.49448 
L 350.024432 213.406697 
L 350.336757 213.406697 
L 350.336757 212.312036 
L 350.649082 212.312036 
L 350.649082 215.231131 
L 350.961408 215.231131 
L 350.961408 214.318914 
L 351.273733 214.318914 
L 351.273733 216.873122 
L 351.586058 216.873122 
L 351.586058 215.413575 
L 351.898384 215.413575 
L 351.898384 217.785339 
L 352.210709 217.785339 
L 352.210709 215.778462 
L 352.523035 215.778462 
L 352.523035 217.785339 
L 352.83536 217.785339 
L 352.83536 218.515113 
L 353.460011 218.515113 
L 353.460011 218.697557 
L 353.772336 218.697557 
L 353.772336 218.88 
L 354.396987 218.88 
L 354.396987 218.515113 
L 354.709312 218.515113 
L 354.709312 216.325792 
L 355.021637 216.325792 
L 355.021637 212.859367 
L 355.333963 212.859367 
L 355.333963 210.122715 
L 355.646288 210.122715 
L 355.646288 205.379186 
L 355.958613 205.379186 
L 355.958613 204.649412 
L 356.270939 204.649412 
L 356.270939 207.021176 
L 356.583264 207.021176 
L 356.583264 205.379186 
L 356.89559 205.379186 
L 356.89559 205.196742 
L 357.207915 205.196742 
L 357.207915 208.115837 
L 357.52024 208.115837 
L 357.52024 207.386063 
L 357.832566 207.386063 
L 357.832566 208.480724 
L 358.144891 208.480724 
L 358.144891 210.122715 
L 358.457216 210.122715 
L 358.457216 208.663167 
L 358.769542 208.663167 
L 358.769542 210.305158 
L 359.081867 210.305158 
L 359.081867 209.392941 
L 359.394192 209.392941 
L 359.394192 211.764706 
L 359.706518 211.764706 
L 359.706518 211.034932 
L 360.018843 211.034932 
L 360.018843 213.406697 
L 360.331168 213.406697 
L 360.331168 213.771584 
L 360.643494 213.771584 
L 360.643494 212.129593 
L 360.955819 212.129593 
L 360.955819 213.406697 
L 361.268144 213.406697 
L 361.268144 211.399819 
L 361.58047 211.399819 
L 361.58047 214.318914 
L 361.892795 214.318914 
L 361.892795 213.954027 
L 362.205121 213.954027 
L 362.205121 215.413575 
L 362.517446 215.413575 
L 362.517446 215.048688 
L 362.829771 215.048688 
L 362.829771 214.318914 
L 363.142097 214.318914 
L 363.142097 215.413575 
L 363.454422 215.413575 
L 363.454422 215.231131 
L 363.766747 215.231131 
L 363.766747 215.596018 
L 364.079073 215.596018 
L 364.079073 216.873122 
L 364.391398 216.873122 
L 364.391398 217.055566 
L 364.703723 217.055566 
L 364.703723 217.967783 
L 365.016049 217.967783 
L 365.016049 217.785339 
L 365.328374 217.785339 
L 365.328374 217.967783 
L 365.953025 217.967783 
L 365.953025 218.515113 
L 366.26535 218.515113 
L 366.26535 218.33267 
L 366.577676 218.33267 
L 366.577676 218.697557 
L 366.890001 218.697557 
L 366.890001 218.515113 
L 367.202326 218.515113 
L 367.202326 218.88 
L 368.763953 218.88 
L 368.763953 218.697557 
L 369.076278 218.697557 
L 369.076278 217.785339 
L 369.388604 217.785339 
L 369.388604 215.231131 
L 369.700929 215.231131 
L 369.700929 214.501357 
L 370.013254 214.501357 
L 370.013254 211.947149 
L 370.32558 211.947149 
L 370.32558 209.940271 
L 370.637905 209.940271 
L 370.637905 207.75095 
L 370.95023 207.75095 
L 370.95023 206.838733 
L 371.262556 206.838733 
L 371.262556 203.189864 
L 371.574881 203.189864 
L 371.574881 203.007421 
L 371.887207 203.007421 
L 371.887207 205.196742 
L 372.199532 205.196742 
L 372.199532 203.189864 
L 372.511857 203.189864 
L 372.511857 206.838733 
L 372.824183 206.838733 
L 372.824183 201.000543 
L 373.136508 201.000543 
L 373.136508 202.095204 
L 373.448833 202.095204 
L 373.448833 206.65629 
L 373.761159 206.65629 
L 373.761159 204.284525 
L 374.073484 204.284525 
L 374.073484 203.737195 
L 374.385809 203.737195 
L 374.385809 207.75095 
L 374.698135 207.75095 
L 374.698135 203.737195 
L 375.01046 203.737195 
L 375.01046 207.021176 
L 375.322785 207.021176 
L 375.322785 206.473846 
L 375.635111 206.473846 
L 375.635111 204.649412 
L 375.947436 204.649412 
L 375.947436 204.284525 
L 376.259762 204.284525 
L 376.259762 208.115837 
L 376.572087 208.115837 
L 376.572087 208.663167 
L 376.884412 208.663167 
L 376.884412 206.291403 
L 377.196738 206.291403 
L 377.196738 206.473846 
L 377.509063 206.473846 
L 377.509063 208.298281 
L 377.821388 208.298281 
L 377.821388 206.838733 
L 378.133714 206.838733 
L 378.133714 205.014299 
L 378.446039 205.014299 
L 378.446039 207.20362 
L 378.758364 207.20362 
L 378.758364 210.305158 
L 379.07069 210.305158 
L 379.07069 210.487602 
L 379.69534 210.487602 
L 379.69534 211.399819 
L 380.007666 211.399819 
L 380.007666 209.575385 
L 380.319991 209.575385 
L 380.319991 211.947149 
L 380.632316 211.947149 
L 380.632316 213.406697 
L 380.944642 213.406697 
L 380.944642 212.129593 
L 381.256967 212.129593 
L 381.256967 213.771584 
L 381.569293 213.771584 
L 381.569293 214.318914 
L 381.881618 214.318914 
L 381.881618 214.683801 
L 382.193943 214.683801 
L 382.193943 214.866244 
L 382.506269 214.866244 
L 382.506269 216.873122 
L 382.818594 216.873122 
L 382.818594 217.238009 
L 383.130919 217.238009 
L 383.130919 217.785339 
L 383.443245 217.785339 
L 383.443245 217.785339 
" clip-path="url(#pec03627085)" style="fill: none; stroke: #2ca02c; stroke-width: 1.5; stroke-linecap: square"/>
   </g>
   <g id="patch_3">
    <path d="M 53.328125 228.96 
L 53.328125 7.2 
" style="fill: none; stroke: #000000; stroke-width: 0.8; stroke-linejoin: miter; stroke-linecap: square"/>
   </g>
   <g id="patch_4">
    <path d="M 388.128125 228.96 
L 388.128125 7.2 
" style="fill: none; stroke: #000000; stroke-width: 0.8; stroke-linejoin: miter; stroke-linecap: square"/>
   </g>
   <g id="patch_5">
    <path d="M 53.328125 228.96 
L 388.128125 228.96 
" style="fill: none; stroke: #000000; stroke-width: 0.8; stroke-linejoin: miter; stroke-linecap: square"/>
   </g>
   <g id="patch_6">
    <path d="M 53.328125 7.2 
L 388.128125 7.2 
" style="fill: none; stroke: #000000; stroke-width: 0.8; stroke-linejoin: miter; stroke-linecap: square"/>
   </g>
   <g id="legend_1">
    <g id="patch_7">
     <path d="M 312.570312 59.234375 
L 381.128125 59.234375 
Q 383.128125 59.234375 383.128125 57.234375 
L 383.128125 14.2 
Q 383.128125 12.2 381.128125 12.2 
L 312.570312 12.2 
Q 310.570312 12.2 310.570312 14.2 
L 310.570312 57.234375 
Q 310.570312 59.234375 312.570312 59.234375 
z
" style="fill: #ffffff; opacity: 0.8; stroke: #cccccc; stroke-linejoin: miter"/>
    </g>
    <g id="line2d_18">
     <path d="M 314.570312 20.298437 
L 314.570312 20.298437 
L 324.570312 20.298437 
L 324.570312 20.298437 
L 334.570312 20.298437 
" style="fill: none; stroke: #1f77b4; stroke-width: 1.5; stroke-linecap: square"/>
    </g>
    <g id="text_17">
     <!-- pulse:0 -->
     <g transform="translate(342.570312 23.798437) scale(0.1 -0.1)">
      <defs>
       <path id="DejaVuSans-70" d="M 1159 525 
L 1159 -1331 
L 581 -1331 
L 581 3500 
L 1159 3500 
L 1159 2969 
Q 1341 3281 1617 3432 
Q 1894 3584 2278 3584 
Q 2916 3584 3314 3078 
Q 3713 2572 3713 1747 
Q 3713 922 3314 415 
Q 2916 -91 2278 -91 
Q 1894 -91 1617 61 
Q 1341 213 1159 525 
z
M 3116 1747 
Q 3116 2381 2855 2742 
Q 2594 3103 2138 3103 
Q 1681 3103 1420 2742 
Q 1159 2381 1159 1747 
Q 1159 1113 1420 752 
Q 1681 391 2138 391 
Q 2594 391 2855 752 
Q 3116 1113 3116 1747 
z
" transform="scale(0.015625)"/>
       <path id="DejaVuSans-6c" d="M 603 4863 
L 1178 4863 
L 1178 0 
L 603 0 
L 603 4863 
z
" transform="scale(0.015625)"/>
       <path id="DejaVuSans-65" d="M 3597 1894 
L 3597 1613 
L 953 1613 
Q 991 1019 1311 708 
Q 1631 397 2203 397 
Q 2534 397 2845 478 
Q 3156 559 3463 722 
L 3463 178 
Q 3153 47 2828 -22 
Q 2503 -91 2169 -91 
Q 1331 -91 842 396 
Q 353 884 353 1716 
Q 353 2575 817 3079 
Q 1281 3584 2069 3584 
Q 2775 3584 3186 3129 
Q 3597 2675 3597 1894 
z
M 3022 2063 
Q 3016 2534 2758 2815 
Q 2500 3097 2075 3097 
Q 1594 3097 1305 2825 
Q 1016 2553 972 2059 
L 3022 2063 
z
" transform="scale(0.015625)"/>
       <path id="DejaVuSans-3a" d="M 750 794 
L 1409 794 
L 1409 0 
L 750 0 
L 750 794 
z
M 750 3309 
L 1409 3309 
L 1409 2516 
L 750 2516 
L 750 3309 
z
" transform="scale(0.015625)"/>
      </defs>
      <use xlink:href="#DejaVuSans-70"/>
      <use xlink:href="#DejaVuSans-75" transform="translate(63.476562 0)"/>
      <use xlink:href="#DejaVuSans-6c" transform="translate(126.855469 0)"/>
      <use xlink:href="#DejaVuSans-73" transform="translate(154.638672 0)"/>
      <use xlink:href="#DejaVuSans-65" transform="translate(206.738281 0)"/>
      <use xlink:href="#DejaVuSans-3a" transform="translate(268.261719 0)"/>
      <use xlink:href="#DejaVuSans-30" transform="translate(301.953125 0)"/>
     </g>
    </g>
    <g id="line2d_19">
     <path d="M 314.570312 34.976562 
L 314.570312 34.976562 
L 324.570312 34.976562 
L 324.570312 34.976562 
L 334.570312 34.976562 
" style="fill: none; stroke: #ff7f0e; stroke-width: 1.5; stroke-linecap: square"/>
    </g>
    <g id="text_18">
     <!-- pulse:1 -->
     <g transform="translate(342.570312 38.476562) scale(0.1 -0.1)">
      <use xlink:href="#DejaVuSans-70"/>
      <use xlink:href="#DejaVuSans-75" transform="translate(63.476562 0)"/>
      <use xlink:href="#DejaVuSans-6c" transform="translate(126.855469 0)"/>
      <use xlink:href="#DejaVuSans-73" transform="translate(154.638672 0)"/>
      <use xlink:href="#DejaVuSans-65" transform="translate(206.738281 0)"/>
      <use xlink:href="#DejaVuSans-3a" transform="translate(268.261719 0)"/>
      <use xlink:href="#DejaVuSans-31" transform="translate(301.953125 0)"/>
     </g>
    </g>
    <g id="line2d_20">
     <path d="M 314.570312 49.654687 
L 314.570312 49.654687 
L 324.570312 49.654687 
L 324.570312 49.654687 
L 334.570312 49.654687 
" style="fill: none; stroke: #2ca02c; stroke-width: 1.5; stroke-linecap: square"/>
    </g>
    <g id="text_19">
     <!-- pulse:2 -->
     <g transform="translate(342.570312 53.154687) scale(0.1 -0.1)">
      <use xlink:href="#DejaVuSans-70"/>
      <use xlink:href="#DejaVuSans-75" transform="translate(63.476562 0)"/>
      <use xlink:href="#DejaVuSans-6c" transform="translate(126.855469 0)"/>
      <use xlink:href="#DejaVuSans-73" transform="translate(154.638672 0)"/>
      <use xlink:href="#DejaVuSans-65" transform="translate(206.738281 0)"/>
      <use xlink:href="#DejaVuSans-3a" transform="translate(268.261719 0)"/>
      <use xlink:href="#DejaVuSans-32" transform="translate(301.953125 0)"/>
     </g>
    </g>
   </g>
  </g>
 </g>
 <defs>
  <clipPath id="pec03627085">
   <rect x="53.328125" y="7.2" width="334.8" height="221.76"/>
  </clipPath>
 </defs>
</svg>
