<?xml version="1.0" encoding="utf-8" standalone="no"?>
<!DOCTYPE svg PUBLIC "-//W3C//DTD SVG 1.1//EN"
  "http://www.w3.org/Graphics/SVG/1.1/DTD/svg11.dtd">
<svg xmlns:xlink="http://www.w3.org/1999/xlink" width="395.328125pt" height="266.51625pt" viewBox="0 0 395.328125 266.51625" xmlns="http://www.w3.org/2000/svg" version="1.1">
 <metadata>
  <rdf:RDF xmlns:dc="http://purl.org/dc/elements/1.1/" xmlns:cc="http://creativecommons.org/ns#" xmlns:rdf="http://www.w3.org/1999/02/22-rdf-syntax-ns#">
   <cc:Work>
    <dc:type rdf:resource="http://purl.org/dc/dcmitype/StillImage"/>
    <dc:date>2025-11-19T10:11:26.108734</dc:date>
    <dc:format>image/svg+xml</dc:format>
    <dc:creator>
     <cc:Agent>
      <dc:title>Matplotlib v3.10.7, https://matplotlib.org/</dc:title>
     </cc:Agent>
    </dc:creator>
   </cc:Work>
  </rdf:RDF>
 </metadata>
 <defs>
  <style type="text/css">*{stroke-linejoin: round; stroke-linecap: butt}</style>
 </defs>
 <g id="figure_1">
  <g id="patch_1">
   <path d="M 0 266.51625 
L 395.328125 266.51625 
L 395.328125 0 
L 0 0 
z
" style="fill: #ffffff"/>
  </g>
  <g id="axes_1">
   <g id="patch_2">
    <path d="M 53.328125 228.96 
L 388.128125 228.96 
L 388.128125 7.2 
L 53.328125 7.2 
z
" style="fill: #ffffff"/>
   </g>
   <g id="matplotlib.axis_1">
    <g id="xtick_1">
     <g id="line2d_1">
      <defs>
       <path id="m9f90257ca1" d="M 0 0 
L 0 3.5 
" style="stroke: #000000; stroke-width: 0.8"/>
      </defs>
      <g>
       <use xlink:href="#m9f90257ca1" x="73.141182" y="228.96" style="stroke: #000000; stroke-width: 0.8"/>
      </g>
     </g>
     <g id="text_1">
      <!-- 20000 -->
      <g transform="translate(57.234932 243.558437) scale(0.1 -0.1)">
       <defs>
        <path id="DejaVuSans-32" d="M 1228 531 
L 3431 531 
L 3431 0 
L 469 0 
L 469 531 
Q 828 903 1448 1529 
Q 2069 2156 2228 2338 
Q 2531 2678 2651 2914 
Q 2772 3150 2772 3378 
Q 2772 3750 2511 3984 
Q 2250 4219 1831 4219 
Q 1534 4219 1204 4116 
Q 875 4013 500 3803 
L 500 4441 
Q 881 4594 1212 4672 
Q 1544 4750 1819 4750 
Q 2544 4750 2975 4387 
Q 3406 4025 3406 3419 
Q 3406 3131 3298 2873 
Q 3191 2616 2906 2266 
Q 2828 2175 2409 1742 
Q 1991 1309 1228 531 
z
" transform="scale(0.015625)"/>
        <path id="DejaVuSans-30" d="M 2034 4250 
Q 1547 4250 1301 3770 
Q 1056 3291 1056 2328 
Q 1056 1369 1301 889 
Q 1547 409 2034 409 
Q 2525 409 2770 889 
Q 3016 1369 3016 2328 
Q 3016 3291 2770 3770 
Q 2525 4250 2034 4250 
z
M 2034 4750 
Q 2819 4750 3233 4129 
Q 3647 3509 3647 2328 
Q 3647 1150 3233 529 
Q 2819 -91 2034 -91 
Q 1250 -91 836 529 
Q 422 1150 422 2328 
Q 422 3509 836 4129 
Q 1250 4750 2034 4750 
z
" transform="scale(0.015625)"/>
       </defs>
       <use xlink:href="#DejaVuSans-32"/>
       <use xlink:href="#DejaVuSans-30" transform="translate(63.623047 0)"/>
       <use xlink:href="#DejaVuSans-30" transform="translate(127.246094 0)"/>
       <use xlink:href="#DejaVuSans-30" transform="translate(190.869141 0)"/>
       <use xlink:href="#DejaVuSans-30" transform="translate(254.492188 0)"/>
      </g>
     </g>
    </g>
    <g id="xtick_2">
     <g id="line2d_2">
      <g>
       <use xlink:href="#m9f90257ca1" x="126.013852" y="228.96" style="stroke: #000000; stroke-width: 0.8"/>
      </g>
     </g>
     <g id="text_2">
      <!-- 30000 -->
      <g transform="translate(110.107602 243.558437) scale(0.1 -0.1)">
       <defs>
        <path id="DejaVuSans-33" d="M 2597 2516 
Q 3050 2419 3304 2112 
Q 3559 1806 3559 1356 
Q 3559 666 3084 287 
Q 2609 -91 1734 -91 
Q 1441 -91 1130 -33 
Q 819 25 488 141 
L 488 750 
Q 750 597 1062 519 
Q 1375 441 1716 441 
Q 2309 441 2620 675 
Q 2931 909 2931 1356 
Q 2931 1769 2642 2001 
Q 2353 2234 1838 2234 
L 1294 2234 
L 1294 2753 
L 1863 2753 
Q 2328 2753 2575 2939 
Q 2822 3125 2822 3475 
Q 2822 3834 2567 4026 
Q 2313 4219 1838 4219 
Q 1578 4219 1281 4162 
Q 984 4106 628 3988 
L 628 4550 
Q 988 4650 1302 4700 
Q 1616 4750 1894 4750 
Q 2613 4750 3031 4423 
Q 3450 4097 3450 3541 
Q 3450 3153 3228 2886 
Q 3006 2619 2597 2516 
z
" transform="scale(0.015625)"/>
       </defs>
       <use xlink:href="#DejaVuSans-33"/>
       <use xlink:href="#DejaVuSans-30" transform="translate(63.623047 0)"/>
       <use xlink:href="#DejaVuSans-30" transform="translate(127.246094 0)"/>
       <use xlink:href="#DejaVuSans-30" transform="translate(190.869141 0)"/>
       <use xlink:href="#DejaVuSans-30" transform="translate(254.492188 0)"/>
      </g>
     </g>
    </g>
    <g id="xtick_3">
     <g id="line2d_3">
      <g>
       <use xlink:href="#m9f90257ca1" x="178.886521" y="228.96" style="stroke: #000000; stroke-width: 0.8"/>
      </g>
     </g>
     <g id="text_3">
      <!-- 40000 -->
      <g transform="translate(162.980271 243.558437) scale(0.1 -0.1)">
       <defs>
        <path id="DejaVuSans-34" d="M 2419 4116 
L 825 1625 
L 2419 1625 
L 2419 4116 
z
M 2253 4666 
L 3047 4666 
L 3047 1625 
L 3713 1625 
L 3713 1100 
L 3047 1100 
L 3047 0 
L 2419 0 
L 2419 1100 
L 313 1100 
L 313 1709 
L 2253 4666 
z
" transform="scale(0.015625)"/>
       </defs>
       <use xlink:href="#DejaVuSans-34"/>
       <use xlink:href="#DejaVuSans-30" transform="translate(63.623047 0)"/>
       <use xlink:href="#DejaVuSans-30" transform="translate(127.246094 0)"/>
       <use xlink:href="#DejaVuSans-30" transform="translate(190.869141 0)"/>
       <use xlink:href="#DejaVuSans-30" transform="translate(254.492188 0)"/>
      </g>
     </g>
    </g>
    <g id="xtick_4">
     <g id="line2d_4">
      <g>
       <use xlink:href="#m9f90257ca1" x="231.75919" y="228.96" style="stroke: #000000; stroke-width: 0.8"/>
      </g>
     </g>
     <g id="text_4">
      <!-- 50000 -->
      <g transform="translate(215.85294 243.558437) scale(0.1 -0.1)">
       <defs>
        <path id="DejaVuSans-35" d="M 691 4666 
L 3169 4666 
L 3169 4134 
L 1269 4134 
L 1269 2991 
Q 1406 3038 1543 3061 
Q 1681 3084 1819 3084 
Q 2600 3084 3056 2656 
Q 3513 2228 3513 1497 
Q 3513 744 3044 326 
Q 2575 -91 1722 -91 
Q 1428 -91 1123 -41 
Q 819 9 494 109 
L 494 744 
Q 775 591 1075 516 
Q 1375 441 1709 441 
Q 2250 441 2565 725 
Q 2881 1009 2881 1497 
Q 2881 1984 2565 2268 
Q 2250 2553 1709 2553 
Q 1456 2553 1204 2497 
Q 953 2441 691 2322 
L 691 4666 
z
" transform="scale(0.015625)"/>
       </defs>
       <use xlink:href="#DejaVuSans-35"/>
       <use xlink:href="#DejaVuSans-30" transform="translate(63.623047 0)"/>
       <use xlink:href="#DejaVuSans-30" transform="translate(127.246094 0)"/>
       <use xlink:href="#DejaVuSans-30" transform="translate(190.869141 0)"/>
       <use xlink:href="#DejaVuSans-30" transform="translate(254.492188 0)"/>
      </g>
     </g>
    </g>
    <g id="xtick_5">
     <g id="line2d_5">
      <g>
       <use xlink:href="#m9f90257ca1" x="284.63186" y="228.96" style="stroke: #000000; stroke-width: 0.8"/>
      </g>
     </g>
     <g id="text_5">
      <!-- 60000 -->
      <g transform="translate(268.72561 243.558437) scale(0.1 -0.1)">
       <defs>
        <path id="DejaVuSans-36" d="M 2113 2584 
Q 1688 2584 1439 2293 
Q 1191 2003 1191 1497 
Q 1191 994 1439 701 
Q 1688 409 2113 409 
Q 2538 409 2786 701 
Q 3034 994 3034 1497 
Q 3034 2003 2786 2293 
Q 2538 2584 2113 2584 
z
M 3366 4563 
L 3366 3988 
Q 3128 4100 2886 4159 
Q 2644 4219 2406 4219 
Q 1781 4219 1451 3797 
Q 1122 3375 1075 2522 
Q 1259 2794 1537 2939 
Q 1816 3084 2150 3084 
Q 2853 3084 3261 2657 
Q 3669 2231 3669 1497 
Q 3669 778 3244 343 
Q 2819 -91 2113 -91 
Q 1303 -91 875 529 
Q 447 1150 447 2328 
Q 447 3434 972 4092 
Q 1497 4750 2381 4750 
Q 2619 4750 2861 4703 
Q 3103 4656 3366 4563 
z
" transform="scale(0.015625)"/>
       </defs>
       <use xlink:href="#DejaVuSans-36"/>
       <use xlink:href="#DejaVuSans-30" transform="translate(63.623047 0)"/>
       <use xlink:href="#DejaVuSans-30" transform="translate(127.246094 0)"/>
       <use xlink:href="#DejaVuSans-30" transform="translate(190.869141 0)"/>
       <use xlink:href="#DejaVuSans-30" transform="translate(254.492188 0)"/>
      </g>
     </g>
    </g>
    <g id="xtick_6">
     <g id="line2d_6">
      <g>
       <use xlink:href="#m9f90257ca1" x="337.504529" y="228.96" style="stroke: #000000; stroke-width: 0.8"/>
      </g>
     </g>
     <g id="text_6">
      <!-- 70000 -->
      <g transform="translate(321.598279 243.558437) scale(0.1 -0.1)">
       <defs>
        <path id="DejaVuSans-37" d="M 525 4666 
L 3525 4666 
L 3525 4397 
L 1831 0 
L 1172 0 
L 2766 4134 
L 525 4134 
L 525 4666 
z
" transform="scale(0.015625)"/>
       </defs>
       <use xlink:href="#DejaVuSans-37"/>
       <use xlink:href="#DejaVuSans-30" transform="translate(63.623047 0)"/>
       <use xlink:href="#DejaVuSans-30" transform="translate(127.246094 0)"/>
       <use xlink:href="#DejaVuSans-30" transform="translate(190.869141 0)"/>
       <use xlink:href="#DejaVuSans-30" transform="translate(254.492188 0)"/>
      </g>
     </g>
    </g>
    <g id="text_7">
     <!-- toa [µs] -->
     <g transform="translate(201.367969 257.236562) scale(0.1 -0.1)">
      <defs>
       <path id="DejaVuSans-74" d="M 1172 4494 
L 1172 3500 
L 2356 3500 
L 2356 3053 
L 1172 3053 
L 1172 1153 
Q 1172 725 1289 603 
Q 1406 481 1766 481 
L 2356 481 
L 2356 0 
L 1766 0 
Q 1100 0 847 248 
Q 594 497 594 1153 
L 594 3053 
L 172 3053 
L 172 3500 
L 594 3500 
L 594 4494 
L 1172 4494 
z
" transform="scale(0.015625)"/>
       <path id="DejaVuSans-6f" d="M 1959 3097 
Q 1497 3097 1228 2736 
Q 959 2375 959 1747 
Q 959 1119 1226 758 
Q 1494 397 1959 397 
Q 2419 397 2687 759 
Q 2956 1122 2956 1747 
Q 2956 2369 2687 2733 
Q 2419 3097 1959 3097 
z
M 1959 3584 
Q 2709 3584 3137 3096 
Q 3566 2609 3566 1747 
Q 3566 888 3137 398 
Q 2709 -91 1959 -91 
Q 1206 -91 779 398 
Q 353 888 353 1747 
Q 353 2609 779 3096 
Q 1206 3584 1959 3584 
z
" transform="scale(0.015625)"/>
       <path id="DejaVuSans-61" d="M 2194 1759 
Q 1497 1759 1228 1600 
Q 959 1441 959 1056 
Q 959 750 1161 570 
Q 1363 391 1709 391 
Q 2188 391 2477 730 
Q 2766 1069 2766 1631 
L 2766 1759 
L 2194 1759 
z
M 3341 1997 
L 3341 0 
L 2766 0 
L 2766 531 
Q 2569 213 2275 61 
Q 1981 -91 1556 -91 
Q 1019 -91 701 211 
Q 384 513 384 1019 
Q 384 1609 779 1909 
Q 1175 2209 1959 2209 
L 2766 2209 
L 2766 2266 
Q 2766 2663 2505 2880 
Q 2244 3097 1772 3097 
Q 1472 3097 1187 3025 
Q 903 2953 641 2809 
L 641 3341 
Q 956 3463 1253 3523 
Q 1550 3584 1831 3584 
Q 2591 3584 2966 3190 
Q 3341 2797 3341 1997 
z
" transform="scale(0.015625)"/>
       <path id="DejaVuSans-20" transform="scale(0.015625)"/>
       <path id="DejaVuSans-5b" d="M 550 4863 
L 1875 4863 
L 1875 4416 
L 1125 4416 
L 1125 -397 
L 1875 -397 
L 1875 -844 
L 550 -844 
L 550 4863 
z
" transform="scale(0.015625)"/>
       <path id="DejaVuSans-b5" d="M 544 -1331 
L 544 3500 
L 1119 3500 
L 1119 1325 
Q 1119 872 1334 640 
Q 1550 409 1972 409 
Q 2434 409 2667 671 
Q 2900 934 2900 1459 
L 2900 3500 
L 3475 3500 
L 3475 806 
Q 3475 619 3529 530 
Q 3584 441 3700 441 
Q 3728 441 3778 458 
Q 3828 475 3916 513 
L 3916 50 
Q 3788 -22 3673 -56 
Q 3559 -91 3450 -91 
Q 3234 -91 3106 31 
Q 2978 153 2931 403 
Q 2775 156 2548 32 
Q 2322 -91 2016 -91 
Q 1697 -91 1473 31 
Q 1250 153 1119 397 
L 1119 -1331 
L 544 -1331 
z
" transform="scale(0.015625)"/>
       <path id="DejaVuSans-73" d="M 2834 3397 
L 2834 2853 
Q 2591 2978 2328 3040 
Q 2066 3103 1784 3103 
Q 1356 3103 1142 2972 
Q 928 2841 928 2578 
Q 928 2378 1081 2264 
Q 1234 2150 1697 2047 
L 1894 2003 
Q 2506 1872 2764 1633 
Q 3022 1394 3022 966 
Q 3022 478 2636 193 
Q 2250 -91 1575 -91 
Q 1294 -91 989 -36 
Q 684 19 347 128 
L 347 722 
Q 666 556 975 473 
Q 1284 391 1588 391 
Q 1994 391 2212 530 
Q 2431 669 2431 922 
Q 2431 1156 2273 1281 
Q 2116 1406 1581 1522 
L 1381 1569 
Q 847 1681 609 1914 
Q 372 2147 372 2553 
Q 372 3047 722 3315 
Q 1072 3584 1716 3584 
Q 2034 3584 2315 3537 
Q 2597 3491 2834 3397 
z
" transform="scale(0.015625)"/>
       <path id="DejaVuSans-5d" d="M 1947 4863 
L 1947 -844 
L 622 -844 
L 622 -397 
L 1369 -397 
L 1369 4416 
L 622 4416 
L 622 4863 
L 1947 4863 
z
" transform="scale(0.015625)"/>
      </defs>
      <use xlink:href="#DejaVuSans-74"/>
      <use xlink:href="#DejaVuSans-6f" transform="translate(39.208984 0)"/>
      <use xlink:href="#DejaVuSans-61" transform="translate(100.390625 0)"/>
      <use xlink:href="#DejaVuSans-20" transform="translate(161.669922 0)"/>
      <use xlink:href="#DejaVuSans-5b" transform="translate(193.457031 0)"/>
      <use xlink:href="#DejaVuSans-b5" transform="translate(232.470703 0)"/>
      <use xlink:href="#DejaVuSans-73" transform="translate(296.09375 0)"/>
      <use xlink:href="#DejaVuSans-5d" transform="translate(348.193359 0)"/>
     </g>
    </g>
   </g>
   <g id="matplotlib.axis_2">
    <g id="ytick_1">
     <g id="line2d_7">
      <defs>
       <path id="md70f61a414" d="M 0 0 
L -3.5 0 
" style="stroke: #000000; stroke-width: 0.8"/>
      </defs>
      <g>
       <use xlink:href="#md70f61a414" x="53.328125" y="218.88" style="stroke: #000000; stroke-width: 0.8"/>
      </g>
     </g>
     <g id="text_8">
      <!-- 0 -->
      <g transform="translate(39.965625 222.679219) scale(0.1 -0.1)">
       <use xlink:href="#DejaVuSans-30"/>
      </g>
     </g>
    </g>
    <g id="ytick_2">
     <g id="line2d_8">
      <g>
       <use xlink:href="#md70f61a414" x="53.328125" y="181.684428" style="stroke: #000000; stroke-width: 0.8"/>
      </g>
     </g>
     <g id="text_9">
      <!-- 200 -->
      <g transform="translate(27.240625 185.483647) scale(0.1 -0.1)">
       <use xlink:href="#DejaVuSans-32"/>
       <use xlink:href="#DejaVuSans-30" transform="translate(63.623047 0)"/>
       <use xlink:href="#DejaVuSans-30" transform="translate(127.246094 0)"/>
      </g>
     </g>
    </g>
    <g id="ytick_3">
     <g id="line2d_9">
      <g>
       <use xlink:href="#md70f61a414" x="53.328125" y="144.488856" style="stroke: #000000; stroke-width: 0.8"/>
      </g>
     </g>
     <g id="text_10">
      <!-- 400 -->
      <g transform="translate(27.240625 148.288075) scale(0.1 -0.1)">
       <use xlink:href="#DejaVuSans-34"/>
       <use xlink:href="#DejaVuSans-30" transform="translate(63.623047 0)"/>
       <use xlink:href="#DejaVuSans-30" transform="translate(127.246094 0)"/>
      </g>
     </g>
    </g>
    <g id="ytick_4">
     <g id="line2d_10">
      <g>
       <use xlink:href="#md70f61a414" x="53.328125" y="107.293284" style="stroke: #000000; stroke-width: 0.8"/>
      </g>
     </g>
     <g id="text_11">
      <!-- 600 -->
      <g transform="translate(27.240625 111.092503) scale(0.1 -0.1)">
       <use xlink:href="#DejaVuSans-36"/>
       <use xlink:href="#DejaVuSans-30" transform="translate(63.623047 0)"/>
       <use xlink:href="#DejaVuSans-30" transform="translate(127.246094 0)"/>
      </g>
     </g>
    </g>
    <g id="ytick_5">
     <g id="line2d_11">
      <g>
       <use xlink:href="#md70f61a414" x="53.328125" y="70.097712" style="stroke: #000000; stroke-width: 0.8"/>
      </g>
     </g>
     <g id="text_12">
      <!-- 800 -->
      <g transform="translate(27.240625 73.896931) scale(0.1 -0.1)">
       <defs>
        <path id="DejaVuSans-38" d="M 2034 2216 
Q 1584 2216 1326 1975 
Q 1069 1734 1069 1313 
Q 1069 891 1326 650 
Q 1584 409 2034 409 
Q 2484 409 2743 651 
Q 3003 894 3003 1313 
Q 3003 1734 2745 1975 
Q 2488 2216 2034 2216 
z
M 1403 2484 
Q 997 2584 770 2862 
Q 544 3141 544 3541 
Q 544 4100 942 4425 
Q 1341 4750 2034 4750 
Q 2731 4750 3128 4425 
Q 3525 4100 3525 3541 
Q 3525 3141 3298 2862 
Q 3072 2584 2669 2484 
Q 3125 2378 3379 2068 
Q 3634 1759 3634 1313 
Q 3634 634 3220 271 
Q 2806 -91 2034 -91 
Q 1263 -91 848 271 
Q 434 634 434 1313 
Q 434 1759 690 2068 
Q 947 2378 1403 2484 
z
M 1172 3481 
Q 1172 3119 1398 2916 
Q 1625 2713 2034 2713 
Q 2441 2713 2670 2916 
Q 2900 3119 2900 3481 
Q 2900 3844 2670 4047 
Q 2441 4250 2034 4250 
Q 1625 4250 1398 4047 
Q 1172 3844 1172 3481 
z
" transform="scale(0.015625)"/>
       </defs>
       <use xlink:href="#DejaVuSans-38"/>
       <use xlink:href="#DejaVuSans-30" transform="translate(63.623047 0)"/>
       <use xlink:href="#DejaVuSans-30" transform="translate(127.246094 0)"/>
      </g>
     </g>
    </g>
    <g id="ytick_6">
     <g id="line2d_12">
      <g>
       <use xlink:href="#md70f61a414" x="53.328125" y="32.90214" style="stroke: #000000; stroke-width: 0.8"/>
      </g>
     </g>
     <g id="text_13">
      <!-- 1000 -->
      <g transform="translate(20.878125 36.701359) scale(0.1 -0.1)">
       <defs>
        <path id="DejaVuSans-31" d="M 794 531 
L 1825 531 
L 1825 4091 
L 703 3866 
L 703 4441 
L 1819 4666 
L 2450 4666 
L 2450 531 
L 3481 531 
L 3481 0 
L 794 0 
L 794 531 
z
" transform="scale(0.015625)"/>
       </defs>
       <use xlink:href="#DejaVuSans-31"/>
       <use xlink:href="#DejaVuSans-30" transform="translate(63.623047 0)"/>
       <use xlink:href="#DejaVuSans-30" transform="translate(127.246094 0)"/>
       <use xlink:href="#DejaVuSans-30" transform="translate(190.869141 0)"/>
      </g>
     </g>
    </g>
    <g id="text_14">
     <!-- [counts] -->
     <g transform="translate(14.798438 138.6925) rotate(-90) scale(0.1 -0.1)">
      <defs>
       <path id="DejaVuSans-63" d="M 3122 3366 
L 3122 2828 
Q 2878 2963 2633 3030 
Q 2388 3097 2138 3097 
Q 1578 3097 1268 2742 
Q 959 2388 959 1747 
Q 959 1106 1268 751 
Q 1578 397 2138 397 
Q 2388 397 2633 464 
Q 2878 531 3122 666 
L 3122 134 
Q 2881 22 2623 -34 
Q 2366 -91 2075 -91 
Q 1284 -91 818 406 
Q 353 903 353 1747 
Q 353 2603 823 3093 
Q 1294 3584 2113 3584 
Q 2378 3584 2631 3529 
Q 2884 3475 3122 3366 
z
" transform="scale(0.015625)"/>
       <path id="DejaVuSans-75" d="M 544 1381 
L 544 3500 
L 1119 3500 
L 1119 1403 
Q 1119 906 1312 657 
Q 1506 409 1894 409 
Q 2359 409 2629 706 
Q 2900 1003 2900 1516 
L 2900 3500 
L 3475 3500 
L 3475 0 
L 2900 0 
L 2900 538 
Q 2691 219 2414 64 
Q 2138 -91 1772 -91 
Q 1169 -91 856 284 
Q 544 659 544 1381 
z
M 1991 3584 
L 1991 3584 
z
" transform="scale(0.015625)"/>
       <path id="DejaVuSans-6e" d="M 3513 2113 
L 3513 0 
L 2938 0 
L 2938 2094 
Q 2938 2591 2744 2837 
Q 2550 3084 2163 3084 
Q 1697 3084 1428 2787 
Q 1159 2491 1159 1978 
L 1159 0 
L 581 0 
L 581 3500 
L 1159 3500 
L 1159 2956 
Q 1366 3272 1645 3428 
Q 1925 3584 2291 3584 
Q 2894 3584 3203 3211 
Q 3513 2838 3513 2113 
z
" transform="scale(0.015625)"/>
      </defs>
      <use xlink:href="#DejaVuSans-5b"/>
      <use xlink:href="#DejaVuSans-63" transform="translate(39.013672 0)"/>
      <use xlink:href="#DejaVuSans-6f" transform="translate(93.994141 0)"/>
      <use xlink:href="#DejaVuSans-75" transform="translate(155.175781 0)"/>
      <use xlink:href="#DejaVuSans-6e" transform="translate(218.554688 0)"/>
      <use xlink:href="#DejaVuSans-74" transform="translate(281.933594 0)"/>
      <use xlink:href="#DejaVuSans-73" transform="translate(321.142578 0)"/>
      <use xlink:href="#DejaVuSans-5d" transform="translate(373.242188 0)"/>
     </g>
    </g>
   </g>
   <g id="line2d_13">
    <path d="M 68.546307 186.70583 
L 69.560852 186.70583 
L 69.560852 140.583321 
L 70.575398 140.583321 
L 70.575398 96.692546 
L 71.589943 96.692546 
L 71.589943 91.857122 
L 72.604489 91.857122 
L 72.604489 93.7169 
L 73.619034 93.7169 
L 73.619034 87.207675 
L 74.63358 87.207675 
L 74.63358 82.372251 
L 75.648125 82.372251 
L 75.648125 80.512472 
L 76.66267 80.512472 
L 76.66267 70.655646 
L 77.677216 70.655646 
L 77.677216 72.143469 
L 78.691761 72.143469 
L 78.691761 58.009151 
L 79.706307 58.009151 
L 79.706307 50.012103 
L 80.720852 50.012103 
L 80.720852 59.125018 
L 81.735398 59.125018 
L 81.735398 52.05786 
L 82.749943 52.05786 
L 82.749943 36.993653 
L 83.764489 36.993653 
L 83.764489 39.597343 
L 84.779034 39.597343 
L 84.779034 17.28 
L 85.79358 17.28 
L 85.79358 29.926494 
L 86.808125 29.926494 
L 86.808125 24.347159 
L 87.82267 24.347159 
L 87.82267 21.185535 
L 88.837216 21.185535 
L 88.837216 22.301402 
L 89.851761 22.301402 
L 89.851761 25.277048 
L 90.866307 25.277048 
L 90.866307 25.834982 
L 91.880852 25.834982 
L 91.880852 31.042362 
L 92.895398 31.042362 
L 92.895398 25.834982 
L 93.909943 25.834982 
L 93.909943 29.554539 
L 94.924489 29.554539 
L 94.924489 40.71321 
L 95.939034 40.71321 
L 95.939034 38.481476 
L 96.95358 38.481476 
L 96.95358 48.896236 
L 97.968125 48.896236 
L 97.968125 49.45417 
L 98.98267 49.45417 
L 98.98267 68.423911 
L 99.997216 68.423911 
L 99.997216 74.561181 
L 101.011761 74.561181 
L 101.011761 92.415055 
L 102.026307 92.415055 
L 102.026307 101.341993 
L 103.040852 101.341993 
L 103.040852 99.296236 
L 104.055398 99.296236 
L 104.055398 116.220221 
L 105.069943 116.220221 
L 105.069943 128.680738 
L 106.084489 128.680738 
L 106.084489 143.001033 
L 107.099034 143.001033 
L 107.099034 149.882214 
L 108.11358 149.882214 
L 108.11358 156.019483 
L 109.128125 156.019483 
L 109.128125 166.062288 
L 110.14267 166.062288 
L 110.14267 172.199557 
L 111.157216 172.199557 
L 111.157216 180.382583 
L 112.171761 180.382583 
L 112.171761 188.007675 
L 113.186307 188.007675 
L 113.186307 202.885904 
L 114.200852 202.885904 
L 114.200852 207.349373 
L 115.215398 207.349373 
L 115.215398 214.416531 
L 116.229943 214.416531 
L 116.229943 217.764133 
L 117.244489 217.764133 
L 117.244489 218.88 
L 126.375398 218.88 
L 126.375398 210.325018 
L 127.389943 210.325018 
L 127.389943 171.827601 
L 128.404489 171.827601 
L 128.404489 137.049742 
L 129.419034 137.049742 
L 129.419034 107.293284 
L 130.43358 107.293284 
L 130.43358 82.558229 
L 131.448125 82.558229 
L 131.448125 88.695498 
L 132.46267 88.695498 
L 132.46267 88.137565 
L 133.477216 88.137565 
L 133.477216 89.625387 
L 134.491761 89.625387 
L 134.491761 91.485166 
L 135.506307 91.485166 
L 135.506307 100.784059 
L 136.520852 100.784059 
L 136.520852 103.573727 
L 137.535398 103.573727 
L 137.535398 95.762657 
L 138.549943 95.762657 
L 138.549943 112.314686 
L 139.564489 112.314686 
L 139.564489 98.366347 
L 140.579034 98.366347 
L 140.579034 105.619483 
L 141.59358 105.619483 
L 141.59358 103.015793 
L 142.608125 103.015793 
L 142.608125 114.546421 
L 143.62267 114.546421 
L 143.62267 119.381845 
L 144.637216 119.381845 
L 144.637216 111.570775 
L 145.651761 111.570775 
L 145.651761 111.198819 
L 146.666307 111.198819 
L 146.666307 113.430554 
L 147.680852 113.430554 
L 147.680852 115.662288 
L 148.695398 115.662288 
L 148.695398 119.009889 
L 149.709943 119.009889 
L 149.709943 125.705092 
L 150.724489 125.705092 
L 150.724489 121.985535 
L 151.739034 121.985535 
L 151.739034 120.311734 
L 152.75358 120.311734 
L 152.75358 118.637934 
L 153.768125 118.637934 
L 153.768125 122.915424 
L 154.78267 122.915424 
L 154.78267 134.074096 
L 155.797216 134.074096 
L 155.797216 132.028339 
L 156.811761 132.028339 
L 156.811761 128.866716 
L 157.826307 128.866716 
L 157.826307 133.516162 
L 158.840852 133.516162 
L 158.840852 135.003985 
L 159.855398 135.003985 
L 159.855398 135.189963 
L 160.869943 135.189963 
L 160.869943 140.769299 
L 161.884489 140.769299 
L 161.884489 140.211365 
L 162.899034 140.211365 
L 162.899034 144.860812 
L 163.91358 144.860812 
L 163.91358 144.488856 
L 164.928125 144.488856 
L 164.928125 144.674834 
L 165.94267 144.674834 
L 165.94267 147.092546 
L 166.957216 147.092546 
L 166.957216 150.068192 
L 167.971761 150.068192 
L 167.971761 158.995129 
L 168.986307 158.995129 
L 168.986307 165.87631 
L 170.000852 165.87631 
L 170.000852 162.528708 
L 171.015398 162.528708 
L 171.015398 173.68738 
L 172.029943 173.68738 
L 172.029943 176.29107 
L 173.044489 176.29107 
L 173.044489 182.800295 
L 174.059034 182.800295 
L 174.059034 192.285166 
L 175.07358 192.285166 
L 175.07358 200.468192 
L 176.088125 200.468192 
L 176.088125 204.745683 
L 177.10267 204.745683 
L 177.10267 208.093284 
L 178.117216 208.093284 
L 178.117216 211.254908 
L 179.131761 211.254908 
L 179.131761 215.346421 
L 180.146307 215.346421 
L 180.146307 218.694022 
L 181.160852 218.694022 
L 181.160852 217.020221 
L 182.175398 217.020221 
L 182.175398 211.06893 
L 183.189943 211.06893 
L 183.189943 196.190701 
L 184.204489 196.190701 
L 184.204489 180.010627 
L 185.219034 180.010627 
L 185.219034 165.132399 
L 186.23358 165.132399 
L 186.23358 155.275572 
L 187.248125 155.275572 
L 187.248125 151.370037 
L 188.26267 151.370037 
L 188.26267 153.787749 
L 189.277216 153.787749 
L 189.277216 150.812103 
L 190.291761 150.812103 
L 190.291761 156.019483 
L 191.306307 156.019483 
L 191.306307 158.251218 
L 192.320852 158.251218 
L 192.320852 157.879262 
L 193.335398 157.879262 
L 193.335398 159.181107 
L 194.349943 159.181107 
L 194.349943 160.482952 
L 195.364489 160.482952 
L 195.364489 161.226863 
L 196.379034 161.226863 
L 196.379034 157.879262 
L 197.39358 157.879262 
L 197.39358 161.970775 
L 198.408125 161.970775 
L 198.408125 166.248266 
L 199.42267 166.248266 
L 199.42267 160.854908 
L 200.437216 160.854908 
L 200.437216 167.364133 
L 201.451761 167.364133 
L 201.451761 166.434244 
L 202.466307 166.434244 
L 202.466307 161.412841 
L 203.480852 161.412841 
L 203.480852 165.690332 
L 204.495398 165.690332 
L 204.495398 172.013579 
L 205.509943 172.013579 
L 205.509943 172.385535 
L 206.524489 172.385535 
L 206.524489 169.595867 
L 207.539034 169.595867 
L 207.539034 173.68738 
L 208.55358 173.68738 
L 208.55358 180.382583 
L 209.568125 180.382583 
L 209.568125 177.034982 
L 210.58267 177.034982 
L 210.58267 181.684428 
L 211.597216 181.684428 
L 211.597216 184.10214 
L 212.611761 184.10214 
L 212.611761 183.172251 
L 213.626307 183.172251 
L 213.626307 184.288118 
L 214.640852 184.288118 
L 214.640852 186.519852 
L 215.655398 186.519852 
L 215.655398 192.657122 
L 216.669943 192.657122 
L 216.669943 191.169299 
L 217.684489 191.169299 
L 217.684489 191.541255 
L 218.699034 191.541255 
L 218.699034 197.306568 
L 219.71358 197.306568 
L 219.71358 198.236458 
L 220.728125 198.236458 
L 220.728125 198.794391 
L 221.74267 198.794391 
L 221.74267 199.166347 
L 222.757216 199.166347 
L 222.757216 201.770037 
L 223.771761 201.770037 
L 223.771761 206.047528 
L 224.786307 206.047528 
L 224.786307 206.791439 
L 225.800852 206.791439 
L 225.800852 209.953063 
L 226.815398 209.953063 
L 226.815398 210.139041 
L 227.829943 210.139041 
L 227.829943 214.974465 
L 228.844489 214.974465 
L 228.844489 216.27631 
L 229.859034 216.27631 
L 229.859034 218.136089 
L 230.87358 218.136089 
L 230.87358 217.950111 
L 231.888125 217.950111 
L 231.888125 214.602509 
L 232.90267 214.602509 
L 232.90267 206.419483 
L 233.917216 206.419483 
L 233.917216 199.538303 
L 234.931761 199.538303 
L 234.931761 193.029077 
L 235.946307 193.029077 
L 235.946307 189.681476 
L 236.960852 189.681476 
L 236.960852 186.891808 
L 237.975398 186.891808 
L 237.975398 189.123542 
L 238.989943 189.123542 
L 238.989943 188.007675 
L 240.004489 188.007675 
L 240.004489 188.193653 
L 241.019034 188.193653 
L 241.019034 191.355277 
L 242.03358 191.355277 
L 242.03358 191.541255 
L 243.048125 191.541255 
L 243.048125 197.306568 
L 244.06267 197.306568 
L 244.06267 194.144945 
L 245.077216 194.144945 
L 245.077216 195.818745 
L 246.091761 195.818745 
L 246.091761 195.260812 
L 247.106307 195.260812 
L 247.106307 200.840148 
L 248.120852 200.840148 
L 248.120852 201.398081 
L 249.135398 201.398081 
L 249.135398 200.65417 
L 250.149943 200.65417 
L 250.149943 201.398081 
L 251.164489 201.398081 
L 251.164489 200.65417 
L 252.179034 200.65417 
L 252.179034 204.559705 
L 254.208125 204.559705 
L 254.208125 206.419483 
L 255.22267 206.419483 
L 255.22267 204.559705 
L 256.237216 204.559705 
L 256.237216 207.535351 
L 257.251761 207.535351 
L 257.251761 209.395129 
L 258.266307 209.395129 
L 258.266307 206.605461 
L 259.280852 206.605461 
L 259.280852 207.349373 
L 260.295398 207.349373 
L 260.295398 210.882952 
L 261.309943 210.882952 
L 261.309943 210.510996 
L 262.324489 210.510996 
L 262.324489 211.254908 
L 263.339034 211.254908 
L 263.339034 211.998819 
L 264.35358 211.998819 
L 264.35358 211.440886 
L 265.368125 211.440886 
L 265.368125 213.300664 
L 266.38267 213.300664 
L 266.38267 215.904354 
L 267.397216 215.904354 
L 267.397216 212.928708 
L 268.411761 212.928708 
L 268.411761 215.718376 
L 269.426307 215.718376 
L 269.426307 216.090332 
L 270.440852 216.090332 
L 270.440852 216.648266 
L 271.455398 216.648266 
L 271.455398 217.392177 
L 272.469943 217.392177 
L 272.469943 218.136089 
L 274.499034 218.136089 
L 274.499034 217.764133 
L 275.51358 217.764133 
L 275.51358 218.508044 
L 276.528125 218.508044 
L 276.528125 218.88 
L 278.557216 218.88 
L 278.557216 218.694022 
L 279.571761 218.694022 
L 279.571761 216.834244 
L 280.586307 216.834244 
L 280.586307 213.486642 
L 281.600852 213.486642 
L 281.600852 209.581107 
L 282.615398 209.581107 
L 282.615398 207.349373 
L 283.629943 207.349373 
L 283.629943 207.163395 
L 284.644489 207.163395 
L 284.644489 204.373727 
L 285.659034 204.373727 
L 285.659034 204.745683 
L 286.67358 204.745683 
L 286.67358 204.187749 
L 287.688125 204.187749 
L 287.688125 206.233506 
L 288.70267 206.233506 
L 288.70267 208.46524 
L 289.717216 208.46524 
L 289.717216 205.86155 
L 290.731761 205.86155 
L 290.731761 208.46524 
L 291.746307 208.46524 
L 291.746307 209.209151 
L 292.760852 209.209151 
L 292.760852 209.767085 
L 293.775398 209.767085 
L 293.775398 209.395129 
L 294.789943 209.395129 
L 294.789943 210.139041 
L 295.804489 210.139041 
L 295.804489 209.395129 
L 296.819034 209.395129 
L 296.819034 211.998819 
L 297.83358 211.998819 
L 297.83358 211.440886 
L 298.848125 211.440886 
L 298.848125 212.556753 
L 299.86267 212.556753 
L 299.86267 211.440886 
L 300.877216 211.440886 
L 300.877216 214.044576 
L 301.891761 214.044576 
L 301.891761 213.858598 
L 302.906307 213.858598 
L 302.906307 212.184797 
L 303.920852 212.184797 
L 303.920852 213.858598 
L 304.935398 213.858598 
L 304.935398 214.230554 
L 305.949943 214.230554 
L 305.949943 213.300664 
L 306.964489 213.300664 
L 306.964489 215.532399 
L 307.979034 215.532399 
L 307.979034 215.904354 
L 308.99358 215.904354 
L 308.99358 216.462288 
L 310.008125 216.462288 
L 310.008125 216.834244 
L 311.02267 216.834244 
L 311.02267 216.27631 
L 312.037216 216.27631 
L 312.037216 217.950111 
L 313.051761 217.950111 
L 313.051761 216.462288 
L 314.066307 216.462288 
L 314.066307 217.206199 
L 315.080852 217.206199 
L 315.080852 217.950111 
L 316.095398 217.950111 
L 316.095398 218.322066 
L 317.109943 218.322066 
L 317.109943 218.136089 
L 318.124489 218.136089 
L 318.124489 218.508044 
L 319.139034 218.508044 
L 319.139034 218.88 
L 326.240852 218.88 
L 326.240852 218.136089 
L 327.255398 218.136089 
L 327.255398 217.578155 
L 328.269943 217.578155 
L 328.269943 214.788487 
L 329.284489 214.788487 
L 329.284489 214.044576 
L 330.299034 214.044576 
L 330.299034 211.254908 
L 331.31358 211.254908 
L 331.31358 210.882952 
L 332.328125 210.882952 
L 332.328125 207.349373 
L 333.34267 207.349373 
L 333.34267 205.675572 
L 334.357216 205.675572 
L 334.357216 208.093284 
L 335.371761 208.093284 
L 335.371761 202.141993 
L 336.386307 202.141993 
L 336.386307 204.373727 
L 337.400852 204.373727 
L 337.400852 205.489594 
L 338.415398 205.489594 
L 338.415398 198.794391 
L 339.429943 198.794391 
L 339.429943 203.443838 
L 340.444489 203.443838 
L 340.444489 204.745683 
L 341.459034 204.745683 
L 341.459034 205.117638 
L 342.47358 205.117638 
L 342.47358 204.745683 
L 343.488125 204.745683 
L 343.488125 207.535351 
L 344.50267 207.535351 
L 344.50267 204.373727 
L 345.517216 204.373727 
L 345.517216 206.977417 
L 346.531761 206.977417 
L 346.531761 202.885904 
L 347.546307 202.885904 
L 347.546307 203.443838 
L 348.560852 203.443838 
L 348.560852 204.931661 
L 349.575398 204.931661 
L 349.575398 206.233506 
L 350.589943 206.233506 
L 350.589943 205.303616 
L 351.604489 205.303616 
L 351.604489 204.559705 
L 352.619034 204.559705 
L 352.619034 206.419483 
L 353.63358 206.419483 
L 353.63358 208.46524 
L 354.648125 208.46524 
L 354.648125 206.419483 
L 355.66267 206.419483 
L 355.66267 209.953063 
L 356.677216 209.953063 
L 356.677216 208.837196 
L 357.691761 208.837196 
L 357.691761 209.023173 
L 358.706307 209.023173 
L 358.706307 212.184797 
L 359.720852 212.184797 
L 359.720852 208.46524 
L 360.735398 208.46524 
L 360.735398 210.882952 
L 361.749943 210.882952 
L 361.749943 212.370775 
L 362.764489 212.370775 
L 362.764489 210.325018 
L 363.779034 210.325018 
L 363.779034 211.812841 
L 364.79358 211.812841 
L 364.79358 211.440886 
L 365.808125 211.440886 
L 365.808125 211.812841 
L 366.82267 211.812841 
L 366.82267 214.974465 
L 367.837216 214.974465 
L 367.837216 213.486642 
L 368.851761 213.486642 
L 368.851761 215.346421 
L 369.866307 215.346421 
L 369.866307 214.974465 
L 370.880852 214.974465 
L 370.880852 215.532399 
L 371.895398 215.532399 
L 371.895398 216.834244 
L 372.909943 216.834244 
L 372.909943 216.834244 
" clip-path="url(#p8ce0234743)" style="fill: none; stroke: #1f77b4; stroke-width: 1.5; stroke-linecap: square"/>
   </g>
   <g id="patch_3">
    <path d="M 53.328125 228.96 
L 53.328125 7.2 
" style="fill: none; stroke: #000000; stroke-width: 0.8; stroke-linejoin: miter; stroke-linecap: square"/>
   </g>
   <g id="patch_4">
    <path d="M 388.128125 228.96 
L 388.128125 7.2 
" style="fill: none; stroke: #000000; stroke-width: 0.8; stroke-linejoin: miter; stroke-linecap: square"/>
   </g>
   <g id="patch_5">
    <path d="M 53.328125 228.96 
L 388.128125 228.96 
" style="fill: none; stroke: #000000; stroke-width: 0.8; stroke-linejoin: miter; stroke-linecap: square"/>
   </g>
   <g id="patch_6">
    <path d="M 53.328125 7.2 
L 388.128125 7.2 
" style="fill: none; stroke: #000000; stroke-width: 0.8; stroke-linejoin: miter; stroke-linecap: square"/>
   </g>
  </g>
 </g>
 <defs>
  <clipPath id="p8ce0234743">
   <rect x="53.328125" y="7.2" width="334.8" height="221.76"/>
  </clipPath>
 </defs>
</svg>
