<?xml version="1.0" encoding="utf-8" standalone="no"?>
<!DOCTYPE svg PUBLIC "-//W3C//DTD SVG 1.1//EN"
  "http://www.w3.org/Graphics/SVG/1.1/DTD/svg11.dtd">
<svg xmlns:xlink="http://www.w3.org/1999/xlink" width="395.328125pt" height="266.51625pt" viewBox="0 0 395.328125 266.51625" xmlns="http://www.w3.org/2000/svg" version="1.1">
 <metadata>
  <rdf:RDF xmlns:dc="http://purl.org/dc/elements/1.1/" xmlns:cc="http://creativecommons.org/ns#" xmlns:rdf="http://www.w3.org/1999/02/22-rdf-syntax-ns#">
   <cc:Work>
    <dc:type rdf:resource="http://purl.org/dc/dcmitype/StillImage"/>
    <dc:date>2025-11-13T11:11:54.405989</dc:date>
    <dc:format>image/svg+xml</dc:format>
    <dc:creator>
     <cc:Agent>
      <dc:title>Matplotlib v3.10.7, https://matplotlib.org/</dc:title>
     </cc:Agent>
    </dc:creator>
   </cc:Work>
  </rdf:RDF>
 </metadata>
 <defs>
  <style type="text/css">*{stroke-linejoin: round; stroke-linecap: butt}</style>
 </defs>
 <g id="figure_1">
  <g id="patch_1">
   <path d="M 0 266.51625 
L 395.328125 266.51625 
L 395.328125 0 
L 0 0 
z
" style="fill: #ffffff"/>
  </g>
  <g id="axes_1">
   <g id="patch_2">
    <path d="M 53.328125 228.96 
L 388.128125 228.96 
L 388.128125 7.2 
L 53.328125 7.2 
z
" style="fill: #ffffff"/>
   </g>
   <g id="matplotlib.axis_1">
    <g id="xtick_1">
     <g id="line2d_1">
      <defs>
       <path id="m8daf7fe95c" d="M 0 0 
L 0 3.5 
" style="stroke: #000000; stroke-width: 0.8"/>
      </defs>
      <g>
       <use xlink:href="#m8daf7fe95c" x="73.195444" y="228.96" style="stroke: #000000; stroke-width: 0.8"/>
      </g>
     </g>
     <g id="text_1">
      <!-- 20000 -->
      <g transform="translate(57.289194 243.558437) scale(0.1 -0.1)">
       <defs>
        <path id="DejaVuSans-32" d="M 1228 531 
L 3431 531 
L 3431 0 
L 469 0 
L 469 531 
Q 828 903 1448 1529 
Q 2069 2156 2228 2338 
Q 2531 2678 2651 2914 
Q 2772 3150 2772 3378 
Q 2772 3750 2511 3984 
Q 2250 4219 1831 4219 
Q 1534 4219 1204 4116 
Q 875 4013 500 3803 
L 500 4441 
Q 881 4594 1212 4672 
Q 1544 4750 1819 4750 
Q 2544 4750 2975 4387 
Q 3406 4025 3406 3419 
Q 3406 3131 3298 2873 
Q 3191 2616 2906 2266 
Q 2828 2175 2409 1742 
Q 1991 1309 1228 531 
z
" transform="scale(0.015625)"/>
        <path id="DejaVuSans-30" d="M 2034 4250 
Q 1547 4250 1301 3770 
Q 1056 3291 1056 2328 
Q 1056 1369 1301 889 
Q 1547 409 2034 409 
Q 2525 409 2770 889 
Q 3016 1369 3016 2328 
Q 3016 3291 2770 3770 
Q 2525 4250 2034 4250 
z
M 2034 4750 
Q 2819 4750 3233 4129 
Q 3647 3509 3647 2328 
Q 3647 1150 3233 529 
Q 2819 -91 2034 -91 
Q 1250 -91 836 529 
Q 422 1150 422 2328 
Q 422 3509 836 4129 
Q 1250 4750 2034 4750 
z
" transform="scale(0.015625)"/>
       </defs>
       <use xlink:href="#DejaVuSans-32"/>
       <use xlink:href="#DejaVuSans-30" transform="translate(63.623047 0)"/>
       <use xlink:href="#DejaVuSans-30" transform="translate(127.246094 0)"/>
       <use xlink:href="#DejaVuSans-30" transform="translate(190.869141 0)"/>
       <use xlink:href="#DejaVuSans-30" transform="translate(254.492188 0)"/>
      </g>
     </g>
    </g>
    <g id="xtick_2">
     <g id="line2d_2">
      <g>
       <use xlink:href="#m8daf7fe95c" x="125.796394" y="228.96" style="stroke: #000000; stroke-width: 0.8"/>
      </g>
     </g>
     <g id="text_2">
      <!-- 30000 -->
      <g transform="translate(109.890144 243.558437) scale(0.1 -0.1)">
       <defs>
        <path id="DejaVuSans-33" d="M 2597 2516 
Q 3050 2419 3304 2112 
Q 3559 1806 3559 1356 
Q 3559 666 3084 287 
Q 2609 -91 1734 -91 
Q 1441 -91 1130 -33 
Q 819 25 488 141 
L 488 750 
Q 750 597 1062 519 
Q 1375 441 1716 441 
Q 2309 441 2620 675 
Q 2931 909 2931 1356 
Q 2931 1769 2642 2001 
Q 2353 2234 1838 2234 
L 1294 2234 
L 1294 2753 
L 1863 2753 
Q 2328 2753 2575 2939 
Q 2822 3125 2822 3475 
Q 2822 3834 2567 4026 
Q 2313 4219 1838 4219 
Q 1578 4219 1281 4162 
Q 984 4106 628 3988 
L 628 4550 
Q 988 4650 1302 4700 
Q 1616 4750 1894 4750 
Q 2613 4750 3031 4423 
Q 3450 4097 3450 3541 
Q 3450 3153 3228 2886 
Q 3006 2619 2597 2516 
z
" transform="scale(0.015625)"/>
       </defs>
       <use xlink:href="#DejaVuSans-33"/>
       <use xlink:href="#DejaVuSans-30" transform="translate(63.623047 0)"/>
       <use xlink:href="#DejaVuSans-30" transform="translate(127.246094 0)"/>
       <use xlink:href="#DejaVuSans-30" transform="translate(190.869141 0)"/>
       <use xlink:href="#DejaVuSans-30" transform="translate(254.492188 0)"/>
      </g>
     </g>
    </g>
    <g id="xtick_3">
     <g id="line2d_3">
      <g>
       <use xlink:href="#m8daf7fe95c" x="178.397343" y="228.96" style="stroke: #000000; stroke-width: 0.8"/>
      </g>
     </g>
     <g id="text_3">
      <!-- 40000 -->
      <g transform="translate(162.491093 243.558437) scale(0.1 -0.1)">
       <defs>
        <path id="DejaVuSans-34" d="M 2419 4116 
L 825 1625 
L 2419 1625 
L 2419 4116 
z
M 2253 4666 
L 3047 4666 
L 3047 1625 
L 3713 1625 
L 3713 1100 
L 3047 1100 
L 3047 0 
L 2419 0 
L 2419 1100 
L 313 1100 
L 313 1709 
L 2253 4666 
z
" transform="scale(0.015625)"/>
       </defs>
       <use xlink:href="#DejaVuSans-34"/>
       <use xlink:href="#DejaVuSans-30" transform="translate(63.623047 0)"/>
       <use xlink:href="#DejaVuSans-30" transform="translate(127.246094 0)"/>
       <use xlink:href="#DejaVuSans-30" transform="translate(190.869141 0)"/>
       <use xlink:href="#DejaVuSans-30" transform="translate(254.492188 0)"/>
      </g>
     </g>
    </g>
    <g id="xtick_4">
     <g id="line2d_4">
      <g>
       <use xlink:href="#m8daf7fe95c" x="230.998293" y="228.96" style="stroke: #000000; stroke-width: 0.8"/>
      </g>
     </g>
     <g id="text_4">
      <!-- 50000 -->
      <g transform="translate(215.092043 243.558437) scale(0.1 -0.1)">
       <defs>
        <path id="DejaVuSans-35" d="M 691 4666 
L 3169 4666 
L 3169 4134 
L 1269 4134 
L 1269 2991 
Q 1406 3038 1543 3061 
Q 1681 3084 1819 3084 
Q 2600 3084 3056 2656 
Q 3513 2228 3513 1497 
Q 3513 744 3044 326 
Q 2575 -91 1722 -91 
Q 1428 -91 1123 -41 
Q 819 9 494 109 
L 494 744 
Q 775 591 1075 516 
Q 1375 441 1709 441 
Q 2250 441 2565 725 
Q 2881 1009 2881 1497 
Q 2881 1984 2565 2268 
Q 2250 2553 1709 2553 
Q 1456 2553 1204 2497 
Q 953 2441 691 2322 
L 691 4666 
z
" transform="scale(0.015625)"/>
       </defs>
       <use xlink:href="#DejaVuSans-35"/>
       <use xlink:href="#DejaVuSans-30" transform="translate(63.623047 0)"/>
       <use xlink:href="#DejaVuSans-30" transform="translate(127.246094 0)"/>
       <use xlink:href="#DejaVuSans-30" transform="translate(190.869141 0)"/>
       <use xlink:href="#DejaVuSans-30" transform="translate(254.492188 0)"/>
      </g>
     </g>
    </g>
    <g id="xtick_5">
     <g id="line2d_5">
      <g>
       <use xlink:href="#m8daf7fe95c" x="283.599242" y="228.96" style="stroke: #000000; stroke-width: 0.8"/>
      </g>
     </g>
     <g id="text_5">
      <!-- 60000 -->
      <g transform="translate(267.692992 243.558437) scale(0.1 -0.1)">
       <defs>
        <path id="DejaVuSans-36" d="M 2113 2584 
Q 1688 2584 1439 2293 
Q 1191 2003 1191 1497 
Q 1191 994 1439 701 
Q 1688 409 2113 409 
Q 2538 409 2786 701 
Q 3034 994 3034 1497 
Q 3034 2003 2786 2293 
Q 2538 2584 2113 2584 
z
M 3366 4563 
L 3366 3988 
Q 3128 4100 2886 4159 
Q 2644 4219 2406 4219 
Q 1781 4219 1451 3797 
Q 1122 3375 1075 2522 
Q 1259 2794 1537 2939 
Q 1816 3084 2150 3084 
Q 2853 3084 3261 2657 
Q 3669 2231 3669 1497 
Q 3669 778 3244 343 
Q 2819 -91 2113 -91 
Q 1303 -91 875 529 
Q 447 1150 447 2328 
Q 447 3434 972 4092 
Q 1497 4750 2381 4750 
Q 2619 4750 2861 4703 
Q 3103 4656 3366 4563 
z
" transform="scale(0.015625)"/>
       </defs>
       <use xlink:href="#DejaVuSans-36"/>
       <use xlink:href="#DejaVuSans-30" transform="translate(63.623047 0)"/>
       <use xlink:href="#DejaVuSans-30" transform="translate(127.246094 0)"/>
       <use xlink:href="#DejaVuSans-30" transform="translate(190.869141 0)"/>
       <use xlink:href="#DejaVuSans-30" transform="translate(254.492188 0)"/>
      </g>
     </g>
    </g>
    <g id="xtick_6">
     <g id="line2d_6">
      <g>
       <use xlink:href="#m8daf7fe95c" x="336.200192" y="228.96" style="stroke: #000000; stroke-width: 0.8"/>
      </g>
     </g>
     <g id="text_6">
      <!-- 70000 -->
      <g transform="translate(320.293942 243.558437) scale(0.1 -0.1)">
       <defs>
        <path id="DejaVuSans-37" d="M 525 4666 
L 3525 4666 
L 3525 4397 
L 1831 0 
L 1172 0 
L 2766 4134 
L 525 4134 
L 525 4666 
z
" transform="scale(0.015625)"/>
       </defs>
       <use xlink:href="#DejaVuSans-37"/>
       <use xlink:href="#DejaVuSans-30" transform="translate(63.623047 0)"/>
       <use xlink:href="#DejaVuSans-30" transform="translate(127.246094 0)"/>
       <use xlink:href="#DejaVuSans-30" transform="translate(190.869141 0)"/>
       <use xlink:href="#DejaVuSans-30" transform="translate(254.492188 0)"/>
      </g>
     </g>
    </g>
    <g id="text_7">
     <!-- toa [µs] -->
     <g transform="translate(201.367969 257.236562) scale(0.1 -0.1)">
      <defs>
       <path id="DejaVuSans-74" d="M 1172 4494 
L 1172 3500 
L 2356 3500 
L 2356 3053 
L 1172 3053 
L 1172 1153 
Q 1172 725 1289 603 
Q 1406 481 1766 481 
L 2356 481 
L 2356 0 
L 1766 0 
Q 1100 0 847 248 
Q 594 497 594 1153 
L 594 3053 
L 172 3053 
L 172 3500 
L 594 3500 
L 594 4494 
L 1172 4494 
z
" transform="scale(0.015625)"/>
       <path id="DejaVuSans-6f" d="M 1959 3097 
Q 1497 3097 1228 2736 
Q 959 2375 959 1747 
Q 959 1119 1226 758 
Q 1494 397 1959 397 
Q 2419 397 2687 759 
Q 2956 1122 2956 1747 
Q 2956 2369 2687 2733 
Q 2419 3097 1959 3097 
z
M 1959 3584 
Q 2709 3584 3137 3096 
Q 3566 2609 3566 1747 
Q 3566 888 3137 398 
Q 2709 -91 1959 -91 
Q 1206 -91 779 398 
Q 353 888 353 1747 
Q 353 2609 779 3096 
Q 1206 3584 1959 3584 
z
" transform="scale(0.015625)"/>
       <path id="DejaVuSans-61" d="M 2194 1759 
Q 1497 1759 1228 1600 
Q 959 1441 959 1056 
Q 959 750 1161 570 
Q 1363 391 1709 391 
Q 2188 391 2477 730 
Q 2766 1069 2766 1631 
L 2766 1759 
L 2194 1759 
z
M 3341 1997 
L 3341 0 
L 2766 0 
L 2766 531 
Q 2569 213 2275 61 
Q 1981 -91 1556 -91 
Q 1019 -91 701 211 
Q 384 513 384 1019 
Q 384 1609 779 1909 
Q 1175 2209 1959 2209 
L 2766 2209 
L 2766 2266 
Q 2766 2663 2505 2880 
Q 2244 3097 1772 3097 
Q 1472 3097 1187 3025 
Q 903 2953 641 2809 
L 641 3341 
Q 956 3463 1253 3523 
Q 1550 3584 1831 3584 
Q 2591 3584 2966 3190 
Q 3341 2797 3341 1997 
z
" transform="scale(0.015625)"/>
       <path id="DejaVuSans-20" transform="scale(0.015625)"/>
       <path id="DejaVuSans-5b" d="M 550 4863 
L 1875 4863 
L 1875 4416 
L 1125 4416 
L 1125 -397 
L 1875 -397 
L 1875 -844 
L 550 -844 
L 550 4863 
z
" transform="scale(0.015625)"/>
       <path id="DejaVuSans-b5" d="M 544 -1331 
L 544 3500 
L 1119 3500 
L 1119 1325 
Q 1119 872 1334 640 
Q 1550 409 1972 409 
Q 2434 409 2667 671 
Q 2900 934 2900 1459 
L 2900 3500 
L 3475 3500 
L 3475 806 
Q 3475 619 3529 530 
Q 3584 441 3700 441 
Q 3728 441 3778 458 
Q 3828 475 3916 513 
L 3916 50 
Q 3788 -22 3673 -56 
Q 3559 -91 3450 -91 
Q 3234 -91 3106 31 
Q 2978 153 2931 403 
Q 2775 156 2548 32 
Q 2322 -91 2016 -91 
Q 1697 -91 1473 31 
Q 1250 153 1119 397 
L 1119 -1331 
L 544 -1331 
z
" transform="scale(0.015625)"/>
       <path id="DejaVuSans-73" d="M 2834 3397 
L 2834 2853 
Q 2591 2978 2328 3040 
Q 2066 3103 1784 3103 
Q 1356 3103 1142 2972 
Q 928 2841 928 2578 
Q 928 2378 1081 2264 
Q 1234 2150 1697 2047 
L 1894 2003 
Q 2506 1872 2764 1633 
Q 3022 1394 3022 966 
Q 3022 478 2636 193 
Q 2250 -91 1575 -91 
Q 1294 -91 989 -36 
Q 684 19 347 128 
L 347 722 
Q 666 556 975 473 
Q 1284 391 1588 391 
Q 1994 391 2212 530 
Q 2431 669 2431 922 
Q 2431 1156 2273 1281 
Q 2116 1406 1581 1522 
L 1381 1569 
Q 847 1681 609 1914 
Q 372 2147 372 2553 
Q 372 3047 722 3315 
Q 1072 3584 1716 3584 
Q 2034 3584 2315 3537 
Q 2597 3491 2834 3397 
z
" transform="scale(0.015625)"/>
       <path id="DejaVuSans-5d" d="M 1947 4863 
L 1947 -844 
L 622 -844 
L 622 -397 
L 1369 -397 
L 1369 4416 
L 622 4416 
L 622 4863 
L 1947 4863 
z
" transform="scale(0.015625)"/>
      </defs>
      <use xlink:href="#DejaVuSans-74"/>
      <use xlink:href="#DejaVuSans-6f" transform="translate(39.208984 0)"/>
      <use xlink:href="#DejaVuSans-61" transform="translate(100.390625 0)"/>
      <use xlink:href="#DejaVuSans-20" transform="translate(161.669922 0)"/>
      <use xlink:href="#DejaVuSans-5b" transform="translate(193.457031 0)"/>
      <use xlink:href="#DejaVuSans-b5" transform="translate(232.470703 0)"/>
      <use xlink:href="#DejaVuSans-73" transform="translate(296.09375 0)"/>
      <use xlink:href="#DejaVuSans-5d" transform="translate(348.193359 0)"/>
     </g>
    </g>
   </g>
   <g id="matplotlib.axis_2">
    <g id="ytick_1">
     <g id="line2d_7">
      <defs>
       <path id="m28d3fb4d49" d="M 0 0 
L -3.5 0 
" style="stroke: #000000; stroke-width: 0.8"/>
      </defs>
      <g>
       <use xlink:href="#m28d3fb4d49" x="53.328125" y="218.88" style="stroke: #000000; stroke-width: 0.8"/>
      </g>
     </g>
     <g id="text_8">
      <!-- 0 -->
      <g transform="translate(39.965625 222.679219) scale(0.1 -0.1)">
       <use xlink:href="#DejaVuSans-30"/>
      </g>
     </g>
    </g>
    <g id="ytick_2">
     <g id="line2d_8">
      <g>
       <use xlink:href="#m28d3fb4d49" x="53.328125" y="182.225455" style="stroke: #000000; stroke-width: 0.8"/>
      </g>
     </g>
     <g id="text_9">
      <!-- 200 -->
      <g transform="translate(27.240625 186.024673) scale(0.1 -0.1)">
       <use xlink:href="#DejaVuSans-32"/>
       <use xlink:href="#DejaVuSans-30" transform="translate(63.623047 0)"/>
       <use xlink:href="#DejaVuSans-30" transform="translate(127.246094 0)"/>
      </g>
     </g>
    </g>
    <g id="ytick_3">
     <g id="line2d_9">
      <g>
       <use xlink:href="#m28d3fb4d49" x="53.328125" y="145.570909" style="stroke: #000000; stroke-width: 0.8"/>
      </g>
     </g>
     <g id="text_10">
      <!-- 400 -->
      <g transform="translate(27.240625 149.370128) scale(0.1 -0.1)">
       <use xlink:href="#DejaVuSans-34"/>
       <use xlink:href="#DejaVuSans-30" transform="translate(63.623047 0)"/>
       <use xlink:href="#DejaVuSans-30" transform="translate(127.246094 0)"/>
      </g>
     </g>
    </g>
    <g id="ytick_4">
     <g id="line2d_10">
      <g>
       <use xlink:href="#m28d3fb4d49" x="53.328125" y="108.916364" style="stroke: #000000; stroke-width: 0.8"/>
      </g>
     </g>
     <g id="text_11">
      <!-- 600 -->
      <g transform="translate(27.240625 112.715582) scale(0.1 -0.1)">
       <use xlink:href="#DejaVuSans-36"/>
       <use xlink:href="#DejaVuSans-30" transform="translate(63.623047 0)"/>
       <use xlink:href="#DejaVuSans-30" transform="translate(127.246094 0)"/>
      </g>
     </g>
    </g>
    <g id="ytick_5">
     <g id="line2d_11">
      <g>
       <use xlink:href="#m28d3fb4d49" x="53.328125" y="72.261818" style="stroke: #000000; stroke-width: 0.8"/>
      </g>
     </g>
     <g id="text_12">
      <!-- 800 -->
      <g transform="translate(27.240625 76.061037) scale(0.1 -0.1)">
       <defs>
        <path id="DejaVuSans-38" d="M 2034 2216 
Q 1584 2216 1326 1975 
Q 1069 1734 1069 1313 
Q 1069 891 1326 650 
Q 1584 409 2034 409 
Q 2484 409 2743 651 
Q 3003 894 3003 1313 
Q 3003 1734 2745 1975 
Q 2488 2216 2034 2216 
z
M 1403 2484 
Q 997 2584 770 2862 
Q 544 3141 544 3541 
Q 544 4100 942 4425 
Q 1341 4750 2034 4750 
Q 2731 4750 3128 4425 
Q 3525 4100 3525 3541 
Q 3525 3141 3298 2862 
Q 3072 2584 2669 2484 
Q 3125 2378 3379 2068 
Q 3634 1759 3634 1313 
Q 3634 634 3220 271 
Q 2806 -91 2034 -91 
Q 1263 -91 848 271 
Q 434 634 434 1313 
Q 434 1759 690 2068 
Q 947 2378 1403 2484 
z
M 1172 3481 
Q 1172 3119 1398 2916 
Q 1625 2713 2034 2713 
Q 2441 2713 2670 2916 
Q 2900 3119 2900 3481 
Q 2900 3844 2670 4047 
Q 2441 4250 2034 4250 
Q 1625 4250 1398 4047 
Q 1172 3844 1172 3481 
z
" transform="scale(0.015625)"/>
       </defs>
       <use xlink:href="#DejaVuSans-38"/>
       <use xlink:href="#DejaVuSans-30" transform="translate(63.623047 0)"/>
       <use xlink:href="#DejaVuSans-30" transform="translate(127.246094 0)"/>
      </g>
     </g>
    </g>
    <g id="ytick_6">
     <g id="line2d_12">
      <g>
       <use xlink:href="#m28d3fb4d49" x="53.328125" y="35.607273" style="stroke: #000000; stroke-width: 0.8"/>
      </g>
     </g>
     <g id="text_13">
      <!-- 1000 -->
      <g transform="translate(20.878125 39.406491) scale(0.1 -0.1)">
       <defs>
        <path id="DejaVuSans-31" d="M 794 531 
L 1825 531 
L 1825 4091 
L 703 3866 
L 703 4441 
L 1819 4666 
L 2450 4666 
L 2450 531 
L 3481 531 
L 3481 0 
L 794 0 
L 794 531 
z
" transform="scale(0.015625)"/>
       </defs>
       <use xlink:href="#DejaVuSans-31"/>
       <use xlink:href="#DejaVuSans-30" transform="translate(63.623047 0)"/>
       <use xlink:href="#DejaVuSans-30" transform="translate(127.246094 0)"/>
       <use xlink:href="#DejaVuSans-30" transform="translate(190.869141 0)"/>
      </g>
     </g>
    </g>
    <g id="text_14">
     <!-- [counts] -->
     <g transform="translate(14.798438 138.6925) rotate(-90) scale(0.1 -0.1)">
      <defs>
       <path id="DejaVuSans-63" d="M 3122 3366 
L 3122 2828 
Q 2878 2963 2633 3030 
Q 2388 3097 2138 3097 
Q 1578 3097 1268 2742 
Q 959 2388 959 1747 
Q 959 1106 1268 751 
Q 1578 397 2138 397 
Q 2388 397 2633 464 
Q 2878 531 3122 666 
L 3122 134 
Q 2881 22 2623 -34 
Q 2366 -91 2075 -91 
Q 1284 -91 818 406 
Q 353 903 353 1747 
Q 353 2603 823 3093 
Q 1294 3584 2113 3584 
Q 2378 3584 2631 3529 
Q 2884 3475 3122 3366 
z
" transform="scale(0.015625)"/>
       <path id="DejaVuSans-75" d="M 544 1381 
L 544 3500 
L 1119 3500 
L 1119 1403 
Q 1119 906 1312 657 
Q 1506 409 1894 409 
Q 2359 409 2629 706 
Q 2900 1003 2900 1516 
L 2900 3500 
L 3475 3500 
L 3475 0 
L 2900 0 
L 2900 538 
Q 2691 219 2414 64 
Q 2138 -91 1772 -91 
Q 1169 -91 856 284 
Q 544 659 544 1381 
z
M 1991 3584 
L 1991 3584 
z
" transform="scale(0.015625)"/>
       <path id="DejaVuSans-6e" d="M 3513 2113 
L 3513 0 
L 2938 0 
L 2938 2094 
Q 2938 2591 2744 2837 
Q 2550 3084 2163 3084 
Q 1697 3084 1428 2787 
Q 1159 2491 1159 1978 
L 1159 0 
L 581 0 
L 581 3500 
L 1159 3500 
L 1159 2956 
Q 1366 3272 1645 3428 
Q 1925 3584 2291 3584 
Q 2894 3584 3203 3211 
Q 3513 2838 3513 2113 
z
" transform="scale(0.015625)"/>
      </defs>
      <use xlink:href="#DejaVuSans-5b"/>
      <use xlink:href="#DejaVuSans-63" transform="translate(39.013672 0)"/>
      <use xlink:href="#DejaVuSans-6f" transform="translate(93.994141 0)"/>
      <use xlink:href="#DejaVuSans-75" transform="translate(155.175781 0)"/>
      <use xlink:href="#DejaVuSans-6e" transform="translate(218.554688 0)"/>
      <use xlink:href="#DejaVuSans-74" transform="translate(281.933594 0)"/>
      <use xlink:href="#DejaVuSans-73" transform="translate(321.142578 0)"/>
      <use xlink:href="#DejaVuSans-5d" transform="translate(373.242188 0)"/>
     </g>
    </g>
   </g>
   <g id="line2d_13">
    <path d="M 68.546307 193.588364 
L 69.560852 193.588364 
L 69.560852 146.853818 
L 70.575398 146.853818 
L 70.575398 105.067636 
L 71.589943 105.067636 
L 71.589943 93.704727 
L 72.604489 93.704727 
L 72.604489 95.904 
L 73.619034 95.904 
L 73.619034 87.290182 
L 74.63358 87.290182 
L 74.63358 78.676364 
L 75.648125 78.676364 
L 75.648125 75.927273 
L 76.66267 75.927273 
L 76.66267 75.010909 
L 77.677216 75.010909 
L 77.677216 68.046545 
L 78.691761 68.046545 
L 78.691761 59.799273 
L 79.706307 59.799273 
L 79.706307 65.664 
L 80.720852 65.664 
L 80.720852 57.966545 
L 81.735398 57.966545 
L 81.735398 44.954182 
L 82.749943 44.954182 
L 82.749943 41.288727 
L 83.764489 41.288727 
L 83.764489 28.642909 
L 84.779034 28.642909 
L 84.779034 24.061091 
L 85.79358 24.061091 
L 85.79358 20.212364 
L 86.808125 20.212364 
L 86.808125 17.28 
L 87.82267 17.28 
L 87.82267 26.077091 
L 88.837216 26.077091 
L 88.837216 31.392 
L 89.851761 31.392 
L 89.851761 24.610909 
L 90.866307 24.610909 
L 90.866307 26.077091 
L 91.880852 26.077091 
L 91.880852 30.292364 
L 92.895398 30.292364 
L 92.895398 27.543273 
L 93.909943 27.543273 
L 93.909943 32.125091 
L 94.924489 32.125091 
L 94.924489 45.137455 
L 95.939034 45.137455 
L 95.939034 30.292364 
L 96.95358 30.292364 
L 96.95358 53.018182 
L 97.968125 53.018182 
L 97.968125 61.815273 
L 98.98267 61.815273 
L 98.98267 67.496727 
L 99.997216 67.496727 
L 99.997216 83.624727 
L 101.011761 83.624727 
L 101.011761 92.788364 
L 102.026307 92.788364 
L 102.026307 89.489455 
L 103.040852 89.489455 
L 103.040852 120.645818 
L 104.055398 120.645818 
L 104.055398 117.896727 
L 105.069943 117.896727 
L 105.069943 134.941091 
L 106.084489 134.941091 
L 106.084489 142.455273 
L 107.099034 142.455273 
L 107.099034 154.184727 
L 108.11358 154.184727 
L 108.11358 154.734545 
L 109.128125 154.734545 
L 109.128125 167.197091 
L 110.14267 167.197091 
L 110.14267 182.775273 
L 111.157216 182.775273 
L 111.157216 182.958545 
L 112.171761 182.958545 
L 112.171761 193.038545 
L 113.186307 193.038545 
L 113.186307 201.835636 
L 114.200852 201.835636 
L 114.200852 207.333818 
L 115.215398 207.333818 
L 115.215398 214.664727 
L 116.229943 214.664727 
L 116.229943 218.330182 
L 117.244489 218.330182 
L 117.244489 218.88 
L 126.375398 218.88 
L 126.375398 202.385455 
L 127.389943 202.385455 
L 127.389943 165.181091 
L 128.404489 165.181091 
L 128.404489 136.773818 
L 129.419034 136.773818 
L 129.419034 101.402182 
L 130.43358 101.402182 
L 130.43358 87.290182 
L 131.448125 87.290182 
L 131.448125 88.939636 
L 132.46267 88.939636 
L 132.46267 92.238545 
L 133.477216 92.238545 
L 133.477216 101.218909 
L 134.491761 101.218909 
L 134.491761 93.154909 
L 135.506307 93.154909 
L 135.506307 102.685091 
L 136.520852 102.685091 
L 136.520852 95.170909 
L 137.535398 95.170909 
L 137.535398 104.701091 
L 138.549943 104.701091 
L 138.549943 100.669091 
L 139.564489 100.669091 
L 139.564489 107.633455 
L 140.579034 107.633455 
L 140.579034 106.167273 
L 141.59358 106.167273 
L 141.59358 102.135273 
L 142.608125 102.135273 
L 142.608125 105.617455 
L 143.62267 105.617455 
L 143.62267 120.462545 
L 144.637216 120.462545 
L 144.637216 111.665455 
L 145.651761 111.665455 
L 145.651761 115.880727 
L 146.666307 115.880727 
L 146.666307 112.765091 
L 147.680852 112.765091 
L 147.680852 114.781091 
L 148.695398 114.781091 
L 148.695398 127.610182 
L 149.709943 127.610182 
L 149.709943 120.096 
L 150.724489 120.096 
L 150.724489 133.658182 
L 151.739034 133.658182 
L 151.739034 125.410909 
L 152.75358 125.410909 
L 152.75358 125.777455 
L 153.768125 125.777455 
L 153.768125 126.510545 
L 154.78267 126.510545 
L 154.78267 128.343273 
L 155.797216 128.343273 
L 155.797216 123.211636 
L 156.811761 123.211636 
L 156.811761 130.909091 
L 157.826307 130.909091 
L 157.826307 134.208 
L 158.840852 134.208 
L 158.840852 131.825455 
L 159.855398 131.825455 
L 159.855398 137.506909 
L 160.869943 137.506909 
L 160.869943 146.670545 
L 161.884489 146.670545 
L 161.884489 145.754182 
L 162.899034 145.754182 
L 162.899034 143.371636 
L 163.91358 143.371636 
L 163.91358 147.220364 
L 164.928125 147.220364 
L 164.928125 146.853818 
L 165.94267 146.853818 
L 165.94267 149.969455 
L 166.957216 149.969455 
L 166.957216 158.4 
L 167.971761 158.4 
L 167.971761 158.766545 
L 168.986307 158.766545 
L 168.986307 164.631273 
L 170.000852 164.631273 
L 170.000852 166.280727 
L 171.015398 166.280727 
L 171.015398 180.392727 
L 172.029943 180.392727 
L 172.029943 182.042182 
L 173.044489 182.042182 
L 173.044489 191.022545 
L 174.059034 191.022545 
L 174.059034 196.337455 
L 175.07358 196.337455 
L 175.07358 199.269818 
L 176.088125 199.269818 
L 176.088125 204.768 
L 177.10267 204.768 
L 177.10267 211.549091 
L 178.117216 211.549091 
L 178.117216 214.848 
L 179.131761 214.848 
L 179.131761 216.680727 
L 180.146307 216.680727 
L 180.146307 218.88 
L 181.160852 218.88 
L 181.160852 214.114909 
L 182.175398 214.114909 
L 182.175398 201.102545 
L 183.189943 201.102545 
L 183.189943 185.890909 
L 184.204489 185.890909 
L 184.204489 168.296727 
L 185.219034 168.296727 
L 185.219034 154.917818 
L 186.23358 154.917818 
L 186.23358 153.818182 
L 187.248125 153.818182 
L 187.248125 149.786182 
L 188.26267 149.786182 
L 188.26267 150.885818 
L 189.277216 150.885818 
L 189.277216 152.718545 
L 190.291761 152.718545 
L 190.291761 151.618909 
L 191.306307 151.618909 
L 191.306307 156.200727 
L 192.320852 156.200727 
L 192.320852 155.284364 
L 193.335398 155.284364 
L 193.335398 163.714909 
L 194.349943 163.714909 
L 194.349943 156.750545 
L 195.364489 156.750545 
L 195.364489 158.766545 
L 196.379034 158.766545 
L 196.379034 165.547636 
L 197.39358 165.547636 
L 197.39358 166.830545 
L 198.408125 166.830545 
L 198.408125 163.348364 
L 199.42267 163.348364 
L 199.42267 162.432 
L 200.437216 162.432 
L 200.437216 165.914182 
L 201.451761 165.914182 
L 201.451761 161.882182 
L 202.466307 161.882182 
L 202.466307 160.049455 
L 203.480852 160.049455 
L 203.480852 171.045818 
L 204.495398 171.045818 
L 204.495398 170.496 
L 205.509943 170.496 
L 205.509943 173.061818 
L 207.539034 173.061818 
L 207.539034 175.994182 
L 208.55358 175.994182 
L 208.55358 179.476364 
L 209.568125 179.476364 
L 209.568125 176.360727 
L 210.58267 176.360727 
L 210.58267 180.576 
L 211.597216 180.576 
L 211.597216 189.189818 
L 212.611761 189.189818 
L 212.611761 192.122182 
L 213.626307 192.122182 
L 213.626307 185.890909 
L 214.640852 185.890909 
L 214.640852 193.405091 
L 215.655398 193.405091 
L 215.655398 188.090182 
L 216.669943 188.090182 
L 216.669943 195.054545 
L 217.684489 195.054545 
L 217.684489 193.221818 
L 218.699034 193.221818 
L 218.699034 195.604364 
L 219.71358 195.604364 
L 219.71358 198.72 
L 220.728125 198.72 
L 220.728125 200.002909 
L 221.74267 200.002909 
L 221.74267 203.118545 
L 222.757216 203.118545 
L 222.757216 202.568727 
L 223.771761 202.568727 
L 223.771761 205.684364 
L 224.786307 205.684364 
L 224.786307 209.166545 
L 225.800852 209.166545 
L 225.800852 211.915636 
L 226.815398 211.915636 
L 226.815398 213.931636 
L 227.829943 213.931636 
L 227.829943 215.031273 
L 228.844489 215.031273 
L 228.844489 218.513455 
L 229.859034 218.513455 
L 229.859034 216.864 
L 230.87358 216.864 
L 230.87358 215.031273 
L 231.888125 215.031273 
L 231.888125 208.8 
L 232.90267 208.8 
L 232.90267 202.018909 
L 233.917216 202.018909 
L 233.917216 195.604364 
L 234.931761 195.604364 
L 234.931761 190.289455 
L 235.946307 190.289455 
L 235.946307 188.823273 
L 236.960852 188.823273 
L 236.960852 189.373091 
L 237.975398 189.373091 
L 237.975398 188.823273 
L 238.989943 188.823273 
L 238.989943 189.189818 
L 240.004489 189.189818 
L 240.004489 193.588364 
L 241.019034 193.588364 
L 241.019034 197.437091 
L 242.03358 197.437091 
L 242.03358 200.002909 
L 243.048125 200.002909 
L 243.048125 194.321455 
L 244.06267 194.321455 
L 244.06267 199.636364 
L 245.077216 199.636364 
L 245.077216 201.102545 
L 246.091761 201.102545 
L 246.091761 197.620364 
L 247.106307 197.620364 
L 247.106307 201.102545 
L 248.120852 201.102545 
L 248.120852 202.202182 
L 249.135398 202.202182 
L 249.135398 201.102545 
L 250.149943 201.102545 
L 250.149943 201.652364 
L 251.164489 201.652364 
L 251.164489 205.317818 
L 252.179034 205.317818 
L 252.179034 205.867636 
L 253.19358 205.867636 
L 253.19358 204.584727 
L 254.208125 204.584727 
L 254.208125 207.517091 
L 255.22267 207.517091 
L 255.22267 205.684364 
L 256.237216 205.684364 
L 256.237216 209.533091 
L 257.251761 209.533091 
L 257.251761 208.250182 
L 258.266307 208.250182 
L 258.266307 212.282182 
L 259.280852 212.282182 
L 259.280852 209.166545 
L 261.309943 209.166545 
L 261.309943 210.449455 
L 262.324489 210.449455 
L 262.324489 210.999273 
L 263.339034 210.999273 
L 263.339034 211.365818 
L 264.35358 211.365818 
L 264.35358 211.549091 
L 265.368125 211.549091 
L 265.368125 214.848 
L 266.38267 214.848 
L 266.38267 213.565091 
L 267.397216 213.565091 
L 267.397216 215.031273 
L 268.411761 215.031273 
L 268.411761 215.581091 
L 269.426307 215.581091 
L 269.426307 216.130909 
L 270.440852 216.130909 
L 270.440852 214.848 
L 271.455398 214.848 
L 271.455398 217.597091 
L 272.469943 217.597091 
L 272.469943 217.047273 
L 273.484489 217.047273 
L 273.484489 217.963636 
L 274.499034 217.963636 
L 274.499034 218.513455 
L 275.51358 218.513455 
L 275.51358 218.88 
L 277.54267 218.88 
L 277.54267 218.513455 
L 278.557216 218.513455 
L 278.557216 217.413818 
L 279.571761 217.413818 
L 279.571761 214.481455 
L 280.586307 214.481455 
L 280.586307 211.182545 
L 281.600852 211.182545 
L 281.600852 208.616727 
L 282.615398 208.616727 
L 282.615398 207.700364 
L 283.629943 207.700364 
L 283.629943 204.401455 
L 284.644489 204.401455 
L 284.644489 208.433455 
L 285.659034 208.433455 
L 285.659034 207.150545 
L 286.67358 207.150545 
L 286.67358 208.250182 
L 287.688125 208.250182 
L 287.688125 208.8 
L 288.70267 208.8 
L 288.70267 207.150545 
L 289.717216 207.150545 
L 289.717216 207.333818 
L 290.731761 207.333818 
L 290.731761 210.082909 
L 291.746307 210.082909 
L 291.746307 207.700364 
L 292.760852 207.700364 
L 292.760852 211.549091 
L 293.775398 211.549091 
L 293.775398 210.816 
L 294.789943 210.816 
L 294.789943 212.648727 
L 295.804489 212.648727 
L 295.804489 212.832 
L 296.819034 212.832 
L 296.819034 212.282182 
L 297.83358 212.282182 
L 297.83358 213.565091 
L 298.848125 213.565091 
L 298.848125 213.748364 
L 299.86267 213.748364 
L 299.86267 211.549091 
L 300.877216 211.549091 
L 300.877216 213.198545 
L 301.891761 213.198545 
L 301.891761 214.848 
L 302.906307 214.848 
L 302.906307 213.748364 
L 303.920852 213.748364 
L 303.920852 214.298182 
L 304.935398 214.298182 
L 304.935398 214.848 
L 305.949943 214.848 
L 305.949943 215.581091 
L 306.964489 215.581091 
L 306.964489 215.214545 
L 307.979034 215.214545 
L 307.979034 216.680727 
L 308.99358 216.680727 
L 308.99358 216.130909 
L 310.008125 216.130909 
L 310.008125 216.497455 
L 311.02267 216.497455 
L 311.02267 217.230545 
L 312.037216 217.230545 
L 312.037216 217.780364 
L 313.051761 217.780364 
L 313.051761 217.963636 
L 315.080852 217.963636 
L 315.080852 217.780364 
L 316.095398 217.780364 
L 316.095398 217.597091 
L 317.109943 217.597091 
L 317.109943 218.330182 
L 318.124489 218.330182 
L 318.124489 218.696727 
L 319.139034 218.696727 
L 319.139034 218.88 
L 324.211761 218.88 
L 324.211761 218.330182 
L 325.226307 218.330182 
L 325.226307 217.780364 
L 326.240852 217.780364 
L 326.240852 217.413818 
L 327.255398 217.413818 
L 327.255398 215.581091 
L 328.269943 215.581091 
L 328.269943 212.282182 
L 330.299034 212.282182 
L 330.299034 208.066909 
L 331.31358 208.066909 
L 331.31358 208.8 
L 332.328125 208.8 
L 332.328125 203.485091 
L 333.34267 203.485091 
L 333.34267 205.317818 
L 334.357216 205.317818 
L 334.357216 203.485091 
L 335.371761 203.485091 
L 335.371761 203.301818 
L 336.386307 203.301818 
L 336.386307 204.951273 
L 337.400852 204.951273 
L 337.400852 202.018909 
L 338.415398 202.018909 
L 338.415398 203.485091 
L 339.429943 203.485091 
L 339.429943 202.935273 
L 340.444489 202.935273 
L 340.444489 204.034909 
L 341.459034 204.034909 
L 341.459034 204.584727 
L 342.47358 204.584727 
L 342.47358 205.501091 
L 343.488125 205.501091 
L 343.488125 206.234182 
L 344.50267 206.234182 
L 344.50267 204.401455 
L 345.517216 204.401455 
L 345.517216 201.835636 
L 346.531761 201.835636 
L 346.531761 205.684364 
L 347.546307 205.684364 
L 347.546307 203.668364 
L 348.560852 203.668364 
L 348.560852 207.517091 
L 349.575398 207.517091 
L 349.575398 208.983273 
L 350.589943 208.983273 
L 350.589943 208.250182 
L 351.604489 208.250182 
L 351.604489 209.166545 
L 352.619034 209.166545 
L 352.619034 207.150545 
L 353.63358 207.150545 
L 353.63358 206.967273 
L 354.648125 206.967273 
L 354.648125 209.349818 
L 355.66267 209.349818 
L 355.66267 210.266182 
L 356.677216 210.266182 
L 356.677216 210.632727 
L 357.691761 210.632727 
L 357.691761 210.999273 
L 358.706307 210.999273 
L 358.706307 211.915636 
L 359.720852 211.915636 
L 359.720852 211.549091 
L 360.735398 211.549091 
L 360.735398 211.365818 
L 361.749943 211.365818 
L 361.749943 212.465455 
L 362.764489 212.465455 
L 362.764489 211.732364 
L 363.779034 211.732364 
L 363.779034 212.832 
L 364.79358 212.832 
L 364.79358 211.365818 
L 365.808125 211.365818 
L 365.808125 214.481455 
L 366.82267 214.481455 
L 366.82267 215.764364 
L 367.837216 215.764364 
L 367.837216 215.581091 
L 368.851761 215.581091 
L 368.851761 215.031273 
L 369.866307 215.031273 
L 369.866307 216.314182 
L 370.880852 216.314182 
L 370.880852 218.146909 
L 371.895398 218.146909 
L 371.895398 218.330182 
L 372.909943 218.330182 
L 372.909943 218.330182 
" clip-path="url(#p791f1a3719)" style="fill: none; stroke: #1f77b4; stroke-width: 1.5; stroke-linecap: square"/>
   </g>
   <g id="patch_3">
    <path d="M 53.328125 228.96 
L 53.328125 7.2 
" style="fill: none; stroke: #000000; stroke-width: 0.8; stroke-linejoin: miter; stroke-linecap: square"/>
   </g>
   <g id="patch_4">
    <path d="M 388.128125 228.96 
L 388.128125 7.2 
" style="fill: none; stroke: #000000; stroke-width: 0.8; stroke-linejoin: miter; stroke-linecap: square"/>
   </g>
   <g id="patch_5">
    <path d="M 53.328125 228.96 
L 388.128125 228.96 
" style="fill: none; stroke: #000000; stroke-width: 0.8; stroke-linejoin: miter; stroke-linecap: square"/>
   </g>
   <g id="patch_6">
    <path d="M 53.328125 7.2 
L 388.128125 7.2 
" style="fill: none; stroke: #000000; stroke-width: 0.8; stroke-linejoin: miter; stroke-linecap: square"/>
   </g>
  </g>
 </g>
 <defs>
  <clipPath id="p791f1a3719">
   <rect x="53.328125" y="7.2" width="334.8" height="221.76"/>
  </clipPath>
 </defs>
</svg>
