<?xml version="1.0" encoding="utf-8" standalone="no"?>
<!DOCTYPE svg PUBLIC "-//W3C//DTD SVG 1.1//EN"
  "http://www.w3.org/Graphics/SVG/1.1/DTD/svg11.dtd">
<svg xmlns:xlink="http://www.w3.org/1999/xlink" width="395.328125pt" height="266.51625pt" viewBox="0 0 395.328125 266.51625" xmlns="http://www.w3.org/2000/svg" version="1.1">
 <metadata>
  <rdf:RDF xmlns:dc="http://purl.org/dc/elements/1.1/" xmlns:cc="http://creativecommons.org/ns#" xmlns:rdf="http://www.w3.org/1999/02/22-rdf-syntax-ns#">
   <cc:Work>
    <dc:type rdf:resource="http://purl.org/dc/dcmitype/StillImage"/>
    <dc:date>2025-11-13T11:11:50.349254</dc:date>
    <dc:format>image/svg+xml</dc:format>
    <dc:creator>
     <cc:Agent>
      <dc:title>Matplotlib v3.10.7, https://matplotlib.org/</dc:title>
     </cc:Agent>
    </dc:creator>
   </cc:Work>
  </rdf:RDF>
 </metadata>
 <defs>
  <style type="text/css">*{stroke-linejoin: round; stroke-linecap: butt}</style>
 </defs>
 <g id="figure_1">
  <g id="patch_1">
   <path d="M 0 266.51625 
L 395.328125 266.51625 
L 395.328125 0 
L 0 0 
z
" style="fill: #ffffff"/>
  </g>
  <g id="axes_1">
   <g id="patch_2">
    <path d="M 53.328125 228.96 
L 388.128125 228.96 
L 388.128125 7.2 
L 53.328125 7.2 
z
" style="fill: #ffffff"/>
   </g>
   <g id="matplotlib.axis_1">
    <g id="xtick_1">
     <g id="line2d_1">
      <defs>
       <path id="md380ef8008" d="M 0 0 
L 0 3.5 
" style="stroke: #000000; stroke-width: 0.8"/>
      </defs>
      <g>
       <use xlink:href="#md380ef8008" x="98.386222" y="228.96" style="stroke: #000000; stroke-width: 0.8"/>
      </g>
     </g>
     <g id="text_1">
      <!-- 50000 -->
      <g transform="translate(82.479972 243.558437) scale(0.1 -0.1)">
       <defs>
        <path id="DejaVuSans-35" d="M 691 4666 
L 3169 4666 
L 3169 4134 
L 1269 4134 
L 1269 2991 
Q 1406 3038 1543 3061 
Q 1681 3084 1819 3084 
Q 2600 3084 3056 2656 
Q 3513 2228 3513 1497 
Q 3513 744 3044 326 
Q 2575 -91 1722 -91 
Q 1428 -91 1123 -41 
Q 819 9 494 109 
L 494 744 
Q 775 591 1075 516 
Q 1375 441 1709 441 
Q 2250 441 2565 725 
Q 2881 1009 2881 1497 
Q 2881 1984 2565 2268 
Q 2250 2553 1709 2553 
Q 1456 2553 1204 2497 
Q 953 2441 691 2322 
L 691 4666 
z
" transform="scale(0.015625)"/>
        <path id="DejaVuSans-30" d="M 2034 4250 
Q 1547 4250 1301 3770 
Q 1056 3291 1056 2328 
Q 1056 1369 1301 889 
Q 1547 409 2034 409 
Q 2525 409 2770 889 
Q 3016 1369 3016 2328 
Q 3016 3291 2770 3770 
Q 2525 4250 2034 4250 
z
M 2034 4750 
Q 2819 4750 3233 4129 
Q 3647 3509 3647 2328 
Q 3647 1150 3233 529 
Q 2819 -91 2034 -91 
Q 1250 -91 836 529 
Q 422 1150 422 2328 
Q 422 3509 836 4129 
Q 1250 4750 2034 4750 
z
" transform="scale(0.015625)"/>
       </defs>
       <use xlink:href="#DejaVuSans-35"/>
       <use xlink:href="#DejaVuSans-30" transform="translate(63.623047 0)"/>
       <use xlink:href="#DejaVuSans-30" transform="translate(127.246094 0)"/>
       <use xlink:href="#DejaVuSans-30" transform="translate(190.869141 0)"/>
       <use xlink:href="#DejaVuSans-30" transform="translate(254.492188 0)"/>
      </g>
     </g>
    </g>
    <g id="xtick_2">
     <g id="line2d_2">
      <g>
       <use xlink:href="#md380ef8008" x="159.545037" y="228.96" style="stroke: #000000; stroke-width: 0.8"/>
      </g>
     </g>
     <g id="text_2">
      <!-- 100000 -->
      <g transform="translate(140.457537 243.558437) scale(0.1 -0.1)">
       <defs>
        <path id="DejaVuSans-31" d="M 794 531 
L 1825 531 
L 1825 4091 
L 703 3866 
L 703 4441 
L 1819 4666 
L 2450 4666 
L 2450 531 
L 3481 531 
L 3481 0 
L 794 0 
L 794 531 
z
" transform="scale(0.015625)"/>
       </defs>
       <use xlink:href="#DejaVuSans-31"/>
       <use xlink:href="#DejaVuSans-30" transform="translate(63.623047 0)"/>
       <use xlink:href="#DejaVuSans-30" transform="translate(127.246094 0)"/>
       <use xlink:href="#DejaVuSans-30" transform="translate(190.869141 0)"/>
       <use xlink:href="#DejaVuSans-30" transform="translate(254.492188 0)"/>
       <use xlink:href="#DejaVuSans-30" transform="translate(318.115234 0)"/>
      </g>
     </g>
    </g>
    <g id="xtick_3">
     <g id="line2d_3">
      <g>
       <use xlink:href="#md380ef8008" x="220.703852" y="228.96" style="stroke: #000000; stroke-width: 0.8"/>
      </g>
     </g>
     <g id="text_3">
      <!-- 150000 -->
      <g transform="translate(201.616352 243.558437) scale(0.1 -0.1)">
       <use xlink:href="#DejaVuSans-31"/>
       <use xlink:href="#DejaVuSans-35" transform="translate(63.623047 0)"/>
       <use xlink:href="#DejaVuSans-30" transform="translate(127.246094 0)"/>
       <use xlink:href="#DejaVuSans-30" transform="translate(190.869141 0)"/>
       <use xlink:href="#DejaVuSans-30" transform="translate(254.492188 0)"/>
       <use xlink:href="#DejaVuSans-30" transform="translate(318.115234 0)"/>
      </g>
     </g>
    </g>
    <g id="xtick_4">
     <g id="line2d_4">
      <g>
       <use xlink:href="#md380ef8008" x="281.862667" y="228.96" style="stroke: #000000; stroke-width: 0.8"/>
      </g>
     </g>
     <g id="text_4">
      <!-- 200000 -->
      <g transform="translate(262.775167 243.558437) scale(0.1 -0.1)">
       <defs>
        <path id="DejaVuSans-32" d="M 1228 531 
L 3431 531 
L 3431 0 
L 469 0 
L 469 531 
Q 828 903 1448 1529 
Q 2069 2156 2228 2338 
Q 2531 2678 2651 2914 
Q 2772 3150 2772 3378 
Q 2772 3750 2511 3984 
Q 2250 4219 1831 4219 
Q 1534 4219 1204 4116 
Q 875 4013 500 3803 
L 500 4441 
Q 881 4594 1212 4672 
Q 1544 4750 1819 4750 
Q 2544 4750 2975 4387 
Q 3406 4025 3406 3419 
Q 3406 3131 3298 2873 
Q 3191 2616 2906 2266 
Q 2828 2175 2409 1742 
Q 1991 1309 1228 531 
z
" transform="scale(0.015625)"/>
       </defs>
       <use xlink:href="#DejaVuSans-32"/>
       <use xlink:href="#DejaVuSans-30" transform="translate(63.623047 0)"/>
       <use xlink:href="#DejaVuSans-30" transform="translate(127.246094 0)"/>
       <use xlink:href="#DejaVuSans-30" transform="translate(190.869141 0)"/>
       <use xlink:href="#DejaVuSans-30" transform="translate(254.492188 0)"/>
       <use xlink:href="#DejaVuSans-30" transform="translate(318.115234 0)"/>
      </g>
     </g>
    </g>
    <g id="xtick_5">
     <g id="line2d_5">
      <g>
       <use xlink:href="#md380ef8008" x="343.021482" y="228.96" style="stroke: #000000; stroke-width: 0.8"/>
      </g>
     </g>
     <g id="text_5">
      <!-- 250000 -->
      <g transform="translate(323.933982 243.558437) scale(0.1 -0.1)">
       <use xlink:href="#DejaVuSans-32"/>
       <use xlink:href="#DejaVuSans-35" transform="translate(63.623047 0)"/>
       <use xlink:href="#DejaVuSans-30" transform="translate(127.246094 0)"/>
       <use xlink:href="#DejaVuSans-30" transform="translate(190.869141 0)"/>
       <use xlink:href="#DejaVuSans-30" transform="translate(254.492188 0)"/>
       <use xlink:href="#DejaVuSans-30" transform="translate(318.115234 0)"/>
      </g>
     </g>
    </g>
    <g id="text_6">
     <!-- toa [µs] -->
     <g transform="translate(201.367969 257.236562) scale(0.1 -0.1)">
      <defs>
       <path id="DejaVuSans-74" d="M 1172 4494 
L 1172 3500 
L 2356 3500 
L 2356 3053 
L 1172 3053 
L 1172 1153 
Q 1172 725 1289 603 
Q 1406 481 1766 481 
L 2356 481 
L 2356 0 
L 1766 0 
Q 1100 0 847 248 
Q 594 497 594 1153 
L 594 3053 
L 172 3053 
L 172 3500 
L 594 3500 
L 594 4494 
L 1172 4494 
z
" transform="scale(0.015625)"/>
       <path id="DejaVuSans-6f" d="M 1959 3097 
Q 1497 3097 1228 2736 
Q 959 2375 959 1747 
Q 959 1119 1226 758 
Q 1494 397 1959 397 
Q 2419 397 2687 759 
Q 2956 1122 2956 1747 
Q 2956 2369 2687 2733 
Q 2419 3097 1959 3097 
z
M 1959 3584 
Q 2709 3584 3137 3096 
Q 3566 2609 3566 1747 
Q 3566 888 3137 398 
Q 2709 -91 1959 -91 
Q 1206 -91 779 398 
Q 353 888 353 1747 
Q 353 2609 779 3096 
Q 1206 3584 1959 3584 
z
" transform="scale(0.015625)"/>
       <path id="DejaVuSans-61" d="M 2194 1759 
Q 1497 1759 1228 1600 
Q 959 1441 959 1056 
Q 959 750 1161 570 
Q 1363 391 1709 391 
Q 2188 391 2477 730 
Q 2766 1069 2766 1631 
L 2766 1759 
L 2194 1759 
z
M 3341 1997 
L 3341 0 
L 2766 0 
L 2766 531 
Q 2569 213 2275 61 
Q 1981 -91 1556 -91 
Q 1019 -91 701 211 
Q 384 513 384 1019 
Q 384 1609 779 1909 
Q 1175 2209 1959 2209 
L 2766 2209 
L 2766 2266 
Q 2766 2663 2505 2880 
Q 2244 3097 1772 3097 
Q 1472 3097 1187 3025 
Q 903 2953 641 2809 
L 641 3341 
Q 956 3463 1253 3523 
Q 1550 3584 1831 3584 
Q 2591 3584 2966 3190 
Q 3341 2797 3341 1997 
z
" transform="scale(0.015625)"/>
       <path id="DejaVuSans-20" transform="scale(0.015625)"/>
       <path id="DejaVuSans-5b" d="M 550 4863 
L 1875 4863 
L 1875 4416 
L 1125 4416 
L 1125 -397 
L 1875 -397 
L 1875 -844 
L 550 -844 
L 550 4863 
z
" transform="scale(0.015625)"/>
       <path id="DejaVuSans-b5" d="M 544 -1331 
L 544 3500 
L 1119 3500 
L 1119 1325 
Q 1119 872 1334 640 
Q 1550 409 1972 409 
Q 2434 409 2667 671 
Q 2900 934 2900 1459 
L 2900 3500 
L 3475 3500 
L 3475 806 
Q 3475 619 3529 530 
Q 3584 441 3700 441 
Q 3728 441 3778 458 
Q 3828 475 3916 513 
L 3916 50 
Q 3788 -22 3673 -56 
Q 3559 -91 3450 -91 
Q 3234 -91 3106 31 
Q 2978 153 2931 403 
Q 2775 156 2548 32 
Q 2322 -91 2016 -91 
Q 1697 -91 1473 31 
Q 1250 153 1119 397 
L 1119 -1331 
L 544 -1331 
z
" transform="scale(0.015625)"/>
       <path id="DejaVuSans-73" d="M 2834 3397 
L 2834 2853 
Q 2591 2978 2328 3040 
Q 2066 3103 1784 3103 
Q 1356 3103 1142 2972 
Q 928 2841 928 2578 
Q 928 2378 1081 2264 
Q 1234 2150 1697 2047 
L 1894 2003 
Q 2506 1872 2764 1633 
Q 3022 1394 3022 966 
Q 3022 478 2636 193 
Q 2250 -91 1575 -91 
Q 1294 -91 989 -36 
Q 684 19 347 128 
L 347 722 
Q 666 556 975 473 
Q 1284 391 1588 391 
Q 1994 391 2212 530 
Q 2431 669 2431 922 
Q 2431 1156 2273 1281 
Q 2116 1406 1581 1522 
L 1381 1569 
Q 847 1681 609 1914 
Q 372 2147 372 2553 
Q 372 3047 722 3315 
Q 1072 3584 1716 3584 
Q 2034 3584 2315 3537 
Q 2597 3491 2834 3397 
z
" transform="scale(0.015625)"/>
       <path id="DejaVuSans-5d" d="M 1947 4863 
L 1947 -844 
L 622 -844 
L 622 -397 
L 1369 -397 
L 1369 4416 
L 622 4416 
L 622 4863 
L 1947 4863 
z
" transform="scale(0.015625)"/>
      </defs>
      <use xlink:href="#DejaVuSans-74"/>
      <use xlink:href="#DejaVuSans-6f" transform="translate(39.208984 0)"/>
      <use xlink:href="#DejaVuSans-61" transform="translate(100.390625 0)"/>
      <use xlink:href="#DejaVuSans-20" transform="translate(161.669922 0)"/>
      <use xlink:href="#DejaVuSans-5b" transform="translate(193.457031 0)"/>
      <use xlink:href="#DejaVuSans-b5" transform="translate(232.470703 0)"/>
      <use xlink:href="#DejaVuSans-73" transform="translate(296.09375 0)"/>
      <use xlink:href="#DejaVuSans-5d" transform="translate(348.193359 0)"/>
     </g>
    </g>
   </g>
   <g id="matplotlib.axis_2">
    <g id="ytick_1">
     <g id="line2d_6">
      <defs>
       <path id="m5e6803d344" d="M 0 0 
L -3.5 0 
" style="stroke: #000000; stroke-width: 0.8"/>
      </defs>
      <g>
       <use xlink:href="#m5e6803d344" x="53.328125" y="218.88" style="stroke: #000000; stroke-width: 0.8"/>
      </g>
     </g>
     <g id="text_7">
      <!-- 0 -->
      <g transform="translate(39.965625 222.679219) scale(0.1 -0.1)">
       <use xlink:href="#DejaVuSans-30"/>
      </g>
     </g>
    </g>
    <g id="ytick_2">
     <g id="line2d_7">
      <g>
       <use xlink:href="#m5e6803d344" x="53.328125" y="174.238725" style="stroke: #000000; stroke-width: 0.8"/>
      </g>
     </g>
     <g id="text_8">
      <!-- 500 -->
      <g transform="translate(27.240625 178.037943) scale(0.1 -0.1)">
       <use xlink:href="#DejaVuSans-35"/>
       <use xlink:href="#DejaVuSans-30" transform="translate(63.623047 0)"/>
       <use xlink:href="#DejaVuSans-30" transform="translate(127.246094 0)"/>
      </g>
     </g>
    </g>
    <g id="ytick_3">
     <g id="line2d_8">
      <g>
       <use xlink:href="#m5e6803d344" x="53.328125" y="129.597449" style="stroke: #000000; stroke-width: 0.8"/>
      </g>
     </g>
     <g id="text_9">
      <!-- 1000 -->
      <g transform="translate(20.878125 133.396668) scale(0.1 -0.1)">
       <use xlink:href="#DejaVuSans-31"/>
       <use xlink:href="#DejaVuSans-30" transform="translate(63.623047 0)"/>
       <use xlink:href="#DejaVuSans-30" transform="translate(127.246094 0)"/>
       <use xlink:href="#DejaVuSans-30" transform="translate(190.869141 0)"/>
      </g>
     </g>
    </g>
    <g id="ytick_4">
     <g id="line2d_9">
      <g>
       <use xlink:href="#m5e6803d344" x="53.328125" y="84.956174" style="stroke: #000000; stroke-width: 0.8"/>
      </g>
     </g>
     <g id="text_10">
      <!-- 1500 -->
      <g transform="translate(20.878125 88.755392) scale(0.1 -0.1)">
       <use xlink:href="#DejaVuSans-31"/>
       <use xlink:href="#DejaVuSans-35" transform="translate(63.623047 0)"/>
       <use xlink:href="#DejaVuSans-30" transform="translate(127.246094 0)"/>
       <use xlink:href="#DejaVuSans-30" transform="translate(190.869141 0)"/>
      </g>
     </g>
    </g>
    <g id="ytick_5">
     <g id="line2d_10">
      <g>
       <use xlink:href="#m5e6803d344" x="53.328125" y="40.314898" style="stroke: #000000; stroke-width: 0.8"/>
      </g>
     </g>
     <g id="text_11">
      <!-- 2000 -->
      <g transform="translate(20.878125 44.114117) scale(0.1 -0.1)">
       <use xlink:href="#DejaVuSans-32"/>
       <use xlink:href="#DejaVuSans-30" transform="translate(63.623047 0)"/>
       <use xlink:href="#DejaVuSans-30" transform="translate(127.246094 0)"/>
       <use xlink:href="#DejaVuSans-30" transform="translate(190.869141 0)"/>
      </g>
     </g>
    </g>
    <g id="text_12">
     <!-- [counts] -->
     <g transform="translate(14.798438 138.6925) rotate(-90) scale(0.1 -0.1)">
      <defs>
       <path id="DejaVuSans-63" d="M 3122 3366 
L 3122 2828 
Q 2878 2963 2633 3030 
Q 2388 3097 2138 3097 
Q 1578 3097 1268 2742 
Q 959 2388 959 1747 
Q 959 1106 1268 751 
Q 1578 397 2138 397 
Q 2388 397 2633 464 
Q 2878 531 3122 666 
L 3122 134 
Q 2881 22 2623 -34 
Q 2366 -91 2075 -91 
Q 1284 -91 818 406 
Q 353 903 353 1747 
Q 353 2603 823 3093 
Q 1294 3584 2113 3584 
Q 2378 3584 2631 3529 
Q 2884 3475 3122 3366 
z
" transform="scale(0.015625)"/>
       <path id="DejaVuSans-75" d="M 544 1381 
L 544 3500 
L 1119 3500 
L 1119 1403 
Q 1119 906 1312 657 
Q 1506 409 1894 409 
Q 2359 409 2629 706 
Q 2900 1003 2900 1516 
L 2900 3500 
L 3475 3500 
L 3475 0 
L 2900 0 
L 2900 538 
Q 2691 219 2414 64 
Q 2138 -91 1772 -91 
Q 1169 -91 856 284 
Q 544 659 544 1381 
z
M 1991 3584 
L 1991 3584 
z
" transform="scale(0.015625)"/>
       <path id="DejaVuSans-6e" d="M 3513 2113 
L 3513 0 
L 2938 0 
L 2938 2094 
Q 2938 2591 2744 2837 
Q 2550 3084 2163 3084 
Q 1697 3084 1428 2787 
Q 1159 2491 1159 1978 
L 1159 0 
L 581 0 
L 581 3500 
L 1159 3500 
L 1159 2956 
Q 1366 3272 1645 3428 
Q 1925 3584 2291 3584 
Q 2894 3584 3203 3211 
Q 3513 2838 3513 2113 
z
" transform="scale(0.015625)"/>
      </defs>
      <use xlink:href="#DejaVuSans-5b"/>
      <use xlink:href="#DejaVuSans-63" transform="translate(39.013672 0)"/>
      <use xlink:href="#DejaVuSans-6f" transform="translate(93.994141 0)"/>
      <use xlink:href="#DejaVuSans-75" transform="translate(155.175781 0)"/>
      <use xlink:href="#DejaVuSans-6e" transform="translate(218.554688 0)"/>
      <use xlink:href="#DejaVuSans-74" transform="translate(281.933594 0)"/>
      <use xlink:href="#DejaVuSans-73" transform="translate(321.142578 0)"/>
      <use xlink:href="#DejaVuSans-5d" transform="translate(373.242188 0)"/>
     </g>
    </g>
   </g>
   <g id="line2d_11">
    <path d="M 60.609828 168.524641 
L 61.095275 168.524641 
L 61.095275 99.509229 
L 61.580722 99.509229 
L 61.580722 88.973888 
L 62.066169 88.973888 
L 62.066169 78.1707 
L 62.551616 78.1707 
L 62.551616 66.206838 
L 63.037063 66.206838 
L 63.037063 64.421187 
L 63.52251 64.421187 
L 63.52251 48.261045 
L 64.007957 48.261045 
L 64.007957 29.333144 
L 64.493404 29.333144 
L 64.493404 19.869194 
L 64.978851 19.869194 
L 64.978851 26.297538 
L 65.464297 26.297538 
L 65.464297 25.047582 
L 65.949744 25.047582 
L 65.949744 30.672383 
L 66.435191 30.672383 
L 66.435191 33.083012 
L 66.920638 33.083012 
L 66.920638 39.33279 
L 67.406085 39.33279 
L 67.406085 63.081949 
L 67.891532 63.081949 
L 67.891532 87.99178 
L 68.376979 87.99178 
L 68.376979 103.616227 
L 68.862426 103.616227 
L 68.862426 126.47256 
L 69.347873 126.47256 
L 69.347873 148.52535 
L 69.83332 148.52535 
L 69.83332 162.453428 
L 70.318766 162.453428 
L 70.318766 183.345545 
L 70.804213 183.345545 
L 70.804213 199.237839 
L 71.28966 199.237839 
L 71.28966 213.344482 
L 71.775107 213.344482 
L 71.775107 218.790717 
L 73.716895 218.88 
L 73.716895 215.844393 
L 74.202342 215.844393 
L 74.202342 161.739167 
L 74.687789 161.739167 
L 74.687789 100.402055 
L 75.173235 100.402055 
L 75.173235 89.420301 
L 75.658682 89.420301 
L 75.658682 96.74147 
L 76.144129 96.74147 
L 76.144129 98.348556 
L 76.629576 98.348556 
L 76.629576 103.080531 
L 77.115023 103.080531 
L 77.115023 105.937573 
L 77.60047 105.937573 
L 77.60047 104.866182 
L 78.085917 104.866182 
L 78.085917 116.294349 
L 78.571364 116.294349 
L 78.571364 112.901612 
L 79.056811 112.901612 
L 79.056811 121.91915 
L 79.542257 121.91915 
L 79.542257 126.11543 
L 80.027704 126.11543 
L 80.027704 125.936864 
L 80.513151 125.936864 
L 80.513151 126.651125 
L 80.998598 126.651125 
L 80.998598 129.240319 
L 81.484045 129.240319 
L 81.484045 133.793729 
L 81.969492 133.793729 
L 81.969492 143.346962 
L 82.454939 143.346962 
L 82.454939 147.007547 
L 82.940386 147.007547 
L 82.940386 146.114721 
L 83.425833 146.114721 
L 83.425833 157.63217 
L 83.91128 157.63217 
L 83.91128 164.685492 
L 84.396726 164.685492 
L 84.396726 179.238547 
L 84.882173 179.238547 
L 84.882173 193.255908 
L 85.36762 193.255908 
L 85.36762 201.916315 
L 85.853067 201.916315 
L 85.853067 213.344482 
L 86.338514 213.344482 
L 86.338514 217.630044 
L 86.823961 217.630044 
L 86.823961 205.844748 
L 87.309408 205.844748 
L 87.309408 174.685137 
L 87.794855 174.685137 
L 87.794855 152.989477 
L 88.280302 152.989477 
L 88.280302 149.328893 
L 88.765749 149.328893 
L 88.765749 153.79302 
L 89.251195 153.79302 
L 89.251195 157.007192 
L 89.736642 157.007192 
L 89.736642 157.364322 
L 90.222089 157.364322 
L 90.222089 166.471143 
L 90.707536 166.471143 
L 90.707536 162.631993 
L 91.192983 162.631993 
L 91.192983 163.078406 
L 91.67843 163.078406 
L 91.67843 164.864057 
L 92.163877 164.864057 
L 92.163877 171.203118 
L 92.649324 171.203118 
L 92.649324 174.595855 
L 93.134771 174.595855 
L 93.134771 177.720744 
L 93.620218 177.720744 
L 93.620218 184.416935 
L 94.105664 184.416935 
L 94.105664 189.059628 
L 94.591111 189.059628 
L 94.591111 191.023844 
L 95.076558 191.023844 
L 95.076558 193.613038 
L 95.562005 193.613038 
L 95.562005 197.720035 
L 96.047452 197.720035 
L 96.047452 201.916315 
L 96.532899 201.916315 
L 96.532899 204.86264 
L 97.018346 204.86264 
L 97.018346 211.737396 
L 97.503793 211.737396 
L 97.503793 215.04085 
L 97.98924 215.04085 
L 97.98924 217.094349 
L 98.474687 217.094349 
L 98.474687 208.612507 
L 98.960133 208.612507 
L 98.960133 196.023667 
L 99.44558 196.023667 
L 99.44558 187.809672 
L 99.931027 187.809672 
L 99.931027 189.773888 
L 100.416474 189.773888 
L 100.416474 194.059451 
L 100.901921 194.059451 
L 100.901921 197.452188 
L 101.387368 197.452188 
L 101.387368 199.773534 
L 101.872815 199.773534 
L 101.872815 199.416404 
L 102.358262 199.416404 
L 102.358262 201.469903 
L 102.843709 201.469903 
L 102.843709 203.701966 
L 103.329155 203.701966 
L 103.329155 205.487617 
L 103.814602 205.487617 
L 103.814602 206.826856 
L 104.300049 206.826856 
L 104.300049 209.058919 
L 104.785496 209.058919 
L 104.785496 209.594615 
L 105.270943 209.594615 
L 105.270943 210.48744 
L 105.75639 210.48744 
L 105.75639 211.737396 
L 106.241837 211.737396 
L 106.241837 213.255199 
L 106.727284 213.255199 
L 106.727284 214.773003 
L 107.212731 214.773003 
L 107.212731 215.665828 
L 107.698178 215.665828 
L 107.698178 216.737219 
L 108.183624 216.737219 
L 108.183624 218.076457 
L 108.669071 218.076457 
L 108.669071 218.88 
L 109.154518 218.88 
L 109.154518 218.16574 
L 109.639965 218.16574 
L 109.639965 213.433764 
L 110.125412 213.433764 
L 110.125412 208.076811 
L 110.610859 208.076811 
L 110.610859 206.469725 
L 111.096306 206.469725 
L 111.096306 207.541116 
L 111.581753 207.541116 
L 111.581753 207.987529 
L 112.0672 207.987529 
L 112.0672 208.701789 
L 112.552647 208.701789 
L 112.552647 209.951745 
L 113.038093 209.951745 
L 113.038093 212.005244 
L 113.52354 212.005244 
L 113.52354 212.362374 
L 114.008987 212.362374 
L 114.008987 213.790895 
L 114.494434 213.790895 
L 114.494434 212.987352 
L 114.979881 212.987352 
L 114.979881 213.96946 
L 115.465328 213.96946 
L 115.465328 214.594438 
L 115.950775 214.594438 
L 115.950775 215.933676 
L 116.436222 215.933676 
L 116.436222 216.290806 
L 116.921669 216.290806 
L 116.921669 217.362197 
L 117.407116 217.362197 
L 117.407116 218.076457 
L 117.892562 218.076457 
L 117.892562 217.630044 
L 118.378009 217.630044 
L 118.378009 218.52287 
L 118.863456 218.52287 
L 118.863456 218.88 
L 119.83435 218.88 
L 119.83435 218.52287 
L 120.319797 218.52287 
L 120.319797 217.362197 
L 120.805244 217.362197 
L 120.805244 213.790895 
L 121.290691 213.790895 
L 121.290691 209.77318 
L 121.776138 209.77318 
L 121.776138 205.398335 
L 122.261585 205.398335 
L 122.261585 204.86264 
L 122.747031 204.86264 
L 122.747031 202.809141 
L 123.232478 202.809141 
L 123.232478 203.791249 
L 123.717925 203.791249 
L 123.717925 204.773357 
L 124.203372 204.773357 
L 124.203372 204.237662 
L 124.688819 204.237662 
L 124.688819 203.255554 
L 125.174266 203.255554 
L 125.174266 204.505509 
L 125.659713 204.505509 
L 125.659713 207.630399 
L 126.14516 207.630399 
L 126.14516 208.701789 
L 126.630607 208.701789 
L 126.630607 207.362551 
L 127.116053 207.362551 
L 127.116053 209.505332 
L 127.6015 209.505332 
L 127.6015 210.84457 
L 128.086947 210.84457 
L 128.086947 211.737396 
L 129.057841 211.826678 
L 129.057841 212.362374 
L 129.543288 212.362374 
L 129.543288 213.344482 
L 130.028735 213.344482 
L 130.028735 215.665828 
L 130.514182 215.665828 
L 130.514182 216.022958 
L 130.999629 216.022958 
L 130.999629 218.433587 
L 131.485076 218.433587 
L 131.485076 218.88 
L 199.933088 218.88 
L 199.933088 218.701435 
L 200.903982 218.701435 
L 200.903982 218.344305 
L 201.389429 218.344305 
L 201.389429 218.612152 
L 202.84577 218.701435 
L 202.84577 218.255022 
L 203.331216 218.255022 
L 203.331216 218.612152 
L 203.816663 218.612152 
L 203.816663 218.344305 
L 204.787557 218.433587 
L 204.787557 218.790717 
L 206.243898 218.701435 
L 206.243898 218.701435 
" clip-path="url(#p5a5dced0d3)" style="fill: none; stroke: #1f77b4; stroke-width: 1.5; stroke-linecap: square"/>
   </g>
   <g id="line2d_12">
    <path d="M 148.007208 161.917733 
L 148.491778 161.917733 
L 148.491778 98.973534 
L 148.976348 98.973534 
L 148.976348 90.848822 
L 149.460919 90.848822 
L 149.460919 82.72411 
L 149.945489 82.72411 
L 149.945489 70.4924 
L 150.430059 70.4924 
L 150.430059 52.99302 
L 150.914629 52.99302 
L 150.914629 45.850416 
L 151.399199 45.850416 
L 151.399199 28.440319 
L 151.88377 28.440319 
L 151.88377 28.261754 
L 152.36834 28.261754 
L 152.36834 25.31543 
L 152.85291 25.31543 
L 152.85291 29.511709 
L 153.33748 29.511709 
L 153.33748 31.475926 
L 153.82205 31.475926 
L 153.82205 39.511355 
L 154.306621 39.511355 
L 154.306621 43.261222 
L 154.791191 43.261222 
L 154.791191 58.439256 
L 155.275761 58.439256 
L 155.275761 87.545368 
L 155.760331 87.545368 
L 155.760331 105.13403 
L 156.244902 105.13403 
L 156.244902 124.329779 
L 156.729472 124.329779 
L 156.729472 145.936156 
L 157.214042 145.936156 
L 157.214042 162.007015 
L 157.698612 162.007015 
L 157.698612 180.309938 
L 158.183182 180.309938 
L 158.183182 199.594969 
L 158.667753 199.594969 
L 158.667753 213.344482 
L 159.152323 213.344482 
L 159.152323 218.433587 
L 159.636893 218.433587 
L 159.636893 218.88 
L 161.090604 218.88 
L 161.090604 216.112241 
L 161.575174 216.112241 
L 161.575174 165.042622 
L 162.059744 165.042622 
L 162.059744 98.794969 
L 162.544314 98.794969 
L 162.544314 88.259628 
L 163.028885 88.259628 
L 163.028885 97.277166 
L 163.513455 97.277166 
L 163.513455 101.830576 
L 163.998025 101.830576 
L 163.998025 95.402232 
L 164.482595 95.402232 
L 164.482595 103.348379 
L 164.967165 103.348379 
L 164.967165 108.794615 
L 165.451736 108.794615 
L 165.451736 112.812329 
L 165.936306 112.812329 
L 165.936306 117.008609 
L 166.420876 117.008609 
L 166.420876 122.008432 
L 166.905446 122.008432 
L 166.905446 124.954756 
L 167.390016 124.954756 
L 167.390016 130.579557 
L 167.874587 130.579557 
L 167.874587 128.436776 
L 168.359157 128.436776 
L 168.359157 130.490275 
L 168.843727 130.490275 
L 168.843727 131.115252 
L 169.328297 131.115252 
L 169.328297 136.740053 
L 169.812868 136.740053 
L 169.812868 148.971763 
L 170.297438 148.971763 
L 170.297438 148.793198 
L 170.782008 148.793198 
L 170.782008 158.34643 
L 171.266578 158.34643 
L 171.266578 167.09612 
L 171.751148 167.09612 
L 171.751148 177.274331 
L 172.235719 177.274331 
L 172.235719 191.291692 
L 172.720289 191.291692 
L 172.720289 203.612684 
L 173.204859 203.612684 
L 173.204859 212.273091 
L 173.689429 212.273091 
L 173.689429 218.344305 
L 174.173999 218.344305 
L 174.173999 208.166094 
L 174.65857 208.166094 
L 174.65857 181.292046 
L 175.14314 181.292046 
L 175.14314 154.060868 
L 175.62771 154.060868 
L 175.62771 149.23961 
L 176.11228 149.23961 
L 176.11228 157.542888 
L 176.596851 157.542888 
L 176.596851 160.042799 
L 177.081421 160.042799 
L 177.081421 156.025084 
L 177.565991 156.025084 
L 177.565991 160.310647 
L 178.050561 160.310647 
L 178.050561 157.27504 
L 178.535131 157.27504 
L 178.535131 160.578494 
L 179.019702 160.578494 
L 179.019702 165.399752 
L 179.504272 165.399752 
L 179.504272 168.524641 
L 179.988842 168.524641 
L 179.988842 171.113835 
L 180.473412 171.113835 
L 180.473412 176.470788 
L 180.957982 176.470788 
L 180.957982 181.113481 
L 181.442553 181.113481 
L 181.442553 184.23837 
L 181.927123 184.23837 
L 181.927123 188.256085 
L 182.411693 188.256085 
L 182.411693 195.220124 
L 182.896263 195.220124 
L 182.896263 197.273623 
L 183.380834 197.273623 
L 183.380834 202.630576 
L 183.865404 202.630576 
L 183.865404 205.755465 
L 184.349974 205.755465 
L 184.349974 212.540939 
L 184.834544 212.540939 
L 184.834544 214.862285 
L 185.319114 214.862285 
L 185.319114 217.808609 
L 185.803685 217.808609 
L 185.803685 210.666005 
L 186.288255 210.666005 
L 186.288255 197.630753 
L 186.772825 197.630753 
L 186.772825 189.238193 
L 187.257395 189.238193 
L 187.257395 188.702498 
L 187.741965 188.702498 
L 187.741965 194.416581 
L 188.711106 194.327298 
L 188.711106 197.898601 
L 189.195676 197.898601 
L 189.195676 199.416404 
L 189.680246 199.416404 
L 189.680246 202.541293 
L 190.649387 202.541293 
L 190.649387 202.809141 
L 191.133957 202.809141 
L 191.133957 207.005421 
L 192.103097 206.916138 
L 192.103097 209.505332 
L 192.587668 209.505332 
L 192.587668 211.023136 
L 193.072238 211.023136 
L 193.072238 211.380266 
L 193.556808 211.380266 
L 193.556808 213.790895 
L 194.041378 213.790895 
L 194.041378 215.755111 
L 194.525948 215.755111 
L 194.525948 215.308698 
L 195.010519 215.308698 
L 195.010519 217.183632 
L 195.495089 217.183632 
L 195.495089 218.344305 
L 195.979659 218.344305 
L 195.979659 218.790717 
L 196.464229 218.790717 
L 196.464229 218.52287 
L 196.9488 218.52287 
L 196.9488 213.880177 
L 197.43337 213.880177 
L 197.43337 208.791072 
L 197.91794 208.791072 
L 197.91794 205.21977 
L 198.40251 205.21977 
L 198.40251 206.469725 
L 198.88708 206.469725 
L 198.88708 208.344659 
L 199.371651 208.344659 
L 199.371651 208.701789 
L 199.856221 208.701789 
L 199.856221 209.148202 
L 200.340791 209.148202 
L 200.340791 210.308875 
L 200.825361 210.308875 
L 200.825361 212.898069 
L 201.309931 212.898069 
L 201.309931 213.880177 
L 201.794502 213.880177 
L 201.794502 213.433764 
L 202.279072 213.433764 
L 202.279072 214.058742 
L 202.763642 214.058742 
L 202.763642 214.862285 
L 203.248212 214.862285 
L 203.248212 216.290806 
L 203.732783 216.290806 
L 203.732783 215.308698 
L 204.217353 215.308698 
L 204.217353 217.094349 
L 204.701923 217.094349 
L 204.701923 217.808609 
L 205.186493 217.808609 
L 205.186493 218.076457 
L 205.671063 218.076457 
L 205.671063 218.701435 
L 206.155634 218.701435 
L 206.155634 218.88 
L 207.124774 218.88 
L 207.124774 218.701435 
L 207.609344 218.701435 
L 207.609344 217.808609 
L 208.093914 217.808609 
L 208.093914 215.04085 
L 208.578485 215.04085 
L 208.578485 210.13031 
L 209.063055 210.13031 
L 209.063055 206.826856 
L 209.547625 206.826856 
L 209.547625 203.791249 
L 210.032195 203.791249 
L 210.032195 203.523401 
L 211.001336 203.523401 
L 211.001336 205.041205 
L 211.485906 205.041205 
L 211.485906 204.505509 
L 211.970476 204.505509 
L 211.970476 205.041205 
L 212.455046 205.041205 
L 212.455046 204.059097 
L 212.939617 204.059097 
L 212.939617 206.559008 
L 213.424187 206.559008 
L 213.424187 207.630399 
L 213.908757 207.630399 
L 213.908757 208.166094 
L 214.393327 208.166094 
L 214.393327 210.13031 
L 214.877897 210.13031 
L 214.877897 208.969637 
L 215.847038 208.880354 
L 215.847038 211.737396 
L 216.816178 211.826678 
L 216.816178 213.523047 
L 217.785319 213.523047 
L 217.785319 215.755111 
L 218.269889 215.755111 
L 218.269889 217.897892 
L 218.754459 217.897892 
L 218.754459 218.88 
L 285.140579 218.790717 
L 285.140579 218.701435 
L 285.625149 218.701435 
L 285.625149 218.88 
L 286.594289 218.790717 
L 286.594289 218.701435 
L 288.048 218.790717 
L 288.048 218.52287 
L 289.01714 218.52287 
L 289.01714 218.701435 
L 289.50171 218.701435 
L 289.50171 218.433587 
L 289.986281 218.433587 
L 289.986281 218.701435 
L 290.955421 218.701435 
L 290.955421 218.433587 
L 291.439991 218.433587 
L 291.439991 218.612152 
L 293.378272 218.612152 
L 293.378272 218.612152 
" clip-path="url(#p5a5dced0d3)" style="fill: none; stroke: #ff7f0e; stroke-width: 1.5; stroke-linecap: square"/>
   </g>
   <g id="line2d_13">
    <path d="M 235.345228 170.310292 
L 235.830253 170.310292 
L 235.830253 105.848291 
L 236.315278 105.848291 
L 236.315278 95.580797 
L 236.800303 95.580797 
L 236.800303 82.991957 
L 237.285328 82.991957 
L 237.285328 69.599575 
L 237.770353 69.599575 
L 237.770353 58.617821 
L 238.255378 58.617821 
L 238.255378 38.707812 
L 238.740404 38.707812 
L 238.740404 35.582923 
L 239.225429 35.582923 
L 239.225429 34.77938 
L 239.710454 34.77938 
L 239.710454 17.28 
L 240.195479 17.28 
L 240.195479 23.976191 
L 240.680504 23.976191 
L 240.680504 32.458034 
L 241.165529 32.458034 
L 241.165529 41.207724 
L 241.650554 41.207724 
L 241.650554 40.404181 
L 242.135579 40.404181 
L 242.135579 64.778317 
L 242.620604 64.778317 
L 242.620604 77.724287 
L 243.105629 77.724287 
L 243.105629 103.259097 
L 243.590654 103.259097 
L 243.590654 129.418884 
L 244.075679 129.418884 
L 244.075679 144.864765 
L 244.560704 144.864765 
L 244.560704 162.721275 
L 245.045729 162.721275 
L 245.045729 179.774243 
L 245.530755 179.774243 
L 245.530755 194.595146 
L 246.01578 194.595146 
L 246.01578 212.630221 
L 246.500805 212.630221 
L 246.500805 218.701435 
L 246.98583 218.701435 
L 246.98583 218.88 
L 248.440905 218.88 
L 248.440905 216.201523 
L 248.92593 216.201523 
L 248.92593 165.578317 
L 249.410955 165.578317 
L 249.410955 98.616404 
L 249.89598 98.616404 
L 249.89598 90.402409 
L 250.381005 90.402409 
L 250.381005 96.920035 
L 250.86603 96.920035 
L 250.86603 94.152276 
L 251.351055 94.152276 
L 251.351055 104.955465 
L 251.83608 104.955465 
L 251.83608 103.526944 
L 252.321106 103.526944 
L 252.321106 107.991072 
L 252.806131 107.991072 
L 252.806131 111.830221 
L 253.291156 111.830221 
L 253.291156 111.651656 
L 253.776181 111.651656 
L 253.776181 112.901612 
L 254.261206 112.901612 
L 254.261206 122.901258 
L 254.746231 122.901258 
L 254.746231 125.044039 
L 255.231256 125.044039 
L 255.231256 129.240319 
L 255.716281 129.240319 
L 255.716281 132.633056 
L 256.201306 132.633056 
L 256.201306 137.632879 
L 256.686331 137.632879 
L 256.686331 143.346962 
L 257.171356 143.346962 
L 257.171356 144.6862 
L 257.656381 144.6862 
L 257.656381 149.418175 
L 258.141406 149.418175 
L 258.141406 152.3645 
L 258.626431 152.3645 
L 258.626431 168.881771 
L 259.111456 168.881771 
L 259.111456 178.9707 
L 259.596482 178.9707 
L 259.596482 191.113127 
L 260.081507 191.113127 
L 260.081507 205.130487 
L 260.566532 205.130487 
L 260.566532 211.737396 
L 261.051557 211.737396 
L 261.051557 217.897892 
L 261.536582 217.897892 
L 261.536582 208.523224 
L 262.021607 208.523224 
L 262.021607 182.363437 
L 262.506632 182.363437 
L 262.506632 155.489389 
L 262.991657 155.489389 
L 262.991657 156.91791 
L 263.476682 156.91791 
L 263.476682 157.9893 
L 263.961707 157.9893 
L 263.961707 155.935802 
L 264.446732 155.935802 
L 264.446732 155.757236 
L 264.931757 155.757236 
L 264.931757 161.47132 
L 265.416782 161.47132 
L 265.416782 160.399929 
L 265.901807 160.399929 
L 265.901807 163.792666 
L 266.386833 163.792666 
L 266.386833 165.489035 
L 266.871858 165.489035 
L 266.871858 169.417467 
L 267.356883 169.417467 
L 267.356883 172.095943 
L 267.841908 172.095943 
L 267.841908 180.577786 
L 268.326933 180.577786 
L 268.326933 182.631284 
L 268.811958 182.631284 
L 268.811958 188.970345 
L 269.296983 188.970345 
L 269.296983 192.095235 
L 269.782008 192.095235 
L 269.782008 196.380797 
L 270.267033 196.380797 
L 270.267033 200.577077 
L 270.752058 200.577077 
L 270.752058 203.076988 
L 271.237083 203.076988 
L 271.237083 205.755465 
L 271.722108 205.755465 
L 271.722108 211.380266 
L 272.207133 211.380266 
L 272.207133 214.415872 
L 272.692158 214.415872 
L 272.692158 217.808609 
L 273.177184 217.808609 
L 273.177184 210.13031 
L 273.662209 210.13031 
L 273.662209 196.737927 
L 274.147234 196.737927 
L 274.147234 187.988237 
L 274.632259 187.988237 
L 274.632259 189.416758 
L 275.117284 189.416758 
L 275.117284 192.095235 
L 275.602309 192.095235 
L 275.602309 195.934384 
L 276.087334 195.934384 
L 276.087334 197.720035 
L 276.572359 197.720035 
L 276.572359 200.577077 
L 277.057384 200.577077 
L 277.057384 201.291337 
L 277.542409 201.291337 
L 277.542409 200.755642 
L 278.027434 200.755642 
L 278.027434 203.166271 
L 278.512459 203.166271 
L 278.512459 208.166094 
L 278.997484 208.166094 
L 278.997484 208.701789 
L 279.482509 208.701789 
L 279.482509 209.326767 
L 279.967534 209.326767 
L 279.967534 209.862462 
L 280.45256 209.862462 
L 280.45256 212.362374 
L 280.937585 212.362374 
L 280.937585 213.612329 
L 281.42261 213.612329 
L 281.42261 214.594438 
L 281.907635 214.594438 
L 281.907635 217.183632 
L 282.39266 217.183632 
L 282.39266 217.987174 
L 282.877685 217.987174 
L 282.877685 218.612152 
L 283.36271 218.612152 
L 283.36271 218.88 
L 283.847735 218.88 
L 283.847735 218.344305 
L 284.33276 218.344305 
L 284.33276 214.058742 
L 284.817785 214.058742 
L 284.817785 208.523224 
L 285.30281 208.523224 
L 285.30281 205.755465 
L 285.787835 205.755465 
L 285.787835 206.29116 
L 286.27286 206.29116 
L 286.27286 207.094703 
L 286.757885 207.094703 
L 286.757885 209.594615 
L 287.727936 209.683897 
L 287.727936 210.933853 
L 288.212961 210.933853 
L 288.212961 212.719504 
L 288.697986 212.719504 
L 288.697986 213.076634 
L 289.183011 213.076634 
L 289.183011 213.255199 
L 289.668036 213.255199 
L 289.668036 214.68372 
L 290.153061 214.68372 
L 290.153061 214.505155 
L 290.638086 214.505155 
L 290.638086 214.862285 
L 291.123111 214.862285 
L 291.123111 215.844393 
L 291.608136 215.844393 
L 291.608136 217.451479 
L 292.093161 217.451479 
L 292.093161 216.915784 
L 292.578186 216.915784 
L 292.578186 217.630044 
L 293.063211 217.630044 
L 293.063211 218.52287 
L 293.548236 218.52287 
L 293.548236 218.790717 
L 295.003312 218.88 
L 295.003312 218.076457 
L 295.488337 218.076457 
L 295.488337 214.415872 
L 295.973362 214.415872 
L 295.973362 209.862462 
L 296.458387 209.862462 
L 296.458387 207.808964 
L 296.943412 207.808964 
L 296.943412 204.148379 
L 297.913462 204.059097 
L 297.913462 203.255554 
L 298.398487 203.255554 
L 298.398487 206.201878 
L 298.883512 206.201878 
L 298.883512 203.076988 
L 299.368537 203.076988 
L 299.368537 203.255554 
L 299.853562 203.255554 
L 299.853562 205.041205 
L 300.338587 205.041205 
L 300.338587 206.112595 
L 300.823612 206.112595 
L 300.823612 208.612507 
L 301.308638 208.612507 
L 301.308638 207.630399 
L 301.793663 207.630399 
L 301.793663 206.648291 
L 302.278688 206.648291 
L 302.278688 208.166094 
L 302.763713 208.166094 
L 302.763713 210.13031 
L 303.248738 210.13031 
L 303.248738 210.666005 
L 303.733763 210.666005 
L 303.733763 213.523047 
L 304.218788 213.523047 
L 304.218788 213.165917 
L 304.703813 213.165917 
L 304.703813 215.308698 
L 305.188838 215.308698 
L 305.188838 216.112241 
L 305.673863 216.112241 
L 305.673863 218.612152 
L 306.158888 218.612152 
L 306.158888 218.88 
L 374.062398 218.790717 
L 374.062398 218.612152 
L 376.487523 218.701435 
L 376.487523 218.344305 
L 376.972548 218.344305 
L 376.972548 218.701435 
L 377.942599 218.701435 
L 377.942599 218.255022 
L 379.397674 218.255022 
L 379.397674 218.790717 
L 380.367724 218.701435 
L 380.367724 218.52287 
L 380.852749 218.52287 
L 380.852749 218.52287 
" clip-path="url(#p5a5dced0d3)" style="fill: none; stroke: #2ca02c; stroke-width: 1.5; stroke-linecap: square"/>
   </g>
   <g id="patch_3">
    <path d="M 53.328125 228.96 
L 53.328125 7.2 
" style="fill: none; stroke: #000000; stroke-width: 0.8; stroke-linejoin: miter; stroke-linecap: square"/>
   </g>
   <g id="patch_4">
    <path d="M 388.128125 228.96 
L 388.128125 7.2 
" style="fill: none; stroke: #000000; stroke-width: 0.8; stroke-linejoin: miter; stroke-linecap: square"/>
   </g>
   <g id="patch_5">
    <path d="M 53.328125 228.96 
L 388.128125 228.96 
" style="fill: none; stroke: #000000; stroke-width: 0.8; stroke-linejoin: miter; stroke-linecap: square"/>
   </g>
   <g id="patch_6">
    <path d="M 53.328125 7.2 
L 388.128125 7.2 
" style="fill: none; stroke: #000000; stroke-width: 0.8; stroke-linejoin: miter; stroke-linecap: square"/>
   </g>
   <g id="legend_1">
    <g id="patch_7">
     <path d="M 312.570312 59.234375 
L 381.128125 59.234375 
Q 383.128125 59.234375 383.128125 57.234375 
L 383.128125 14.2 
Q 383.128125 12.2 381.128125 12.2 
L 312.570312 12.2 
Q 310.570312 12.2 310.570312 14.2 
L 310.570312 57.234375 
Q 310.570312 59.234375 312.570312 59.234375 
z
" style="fill: #ffffff; opacity: 0.8; stroke: #cccccc; stroke-linejoin: miter"/>
    </g>
    <g id="line2d_14">
     <path d="M 314.570312 20.298437 
L 314.570312 20.298437 
L 324.570312 20.298437 
L 324.570312 20.298437 
L 334.570312 20.298437 
" style="fill: none; stroke: #1f77b4; stroke-width: 1.5; stroke-linecap: square"/>
    </g>
    <g id="text_13">
     <!-- pulse:0 -->
     <g transform="translate(342.570312 23.798437) scale(0.1 -0.1)">
      <defs>
       <path id="DejaVuSans-70" d="M 1159 525 
L 1159 -1331 
L 581 -1331 
L 581 3500 
L 1159 3500 
L 1159 2969 
Q 1341 3281 1617 3432 
Q 1894 3584 2278 3584 
Q 2916 3584 3314 3078 
Q 3713 2572 3713 1747 
Q 3713 922 3314 415 
Q 2916 -91 2278 -91 
Q 1894 -91 1617 61 
Q 1341 213 1159 525 
z
M 3116 1747 
Q 3116 2381 2855 2742 
Q 2594 3103 2138 3103 
Q 1681 3103 1420 2742 
Q 1159 2381 1159 1747 
Q 1159 1113 1420 752 
Q 1681 391 2138 391 
Q 2594 391 2855 752 
Q 3116 1113 3116 1747 
z
" transform="scale(0.015625)"/>
       <path id="DejaVuSans-6c" d="M 603 4863 
L 1178 4863 
L 1178 0 
L 603 0 
L 603 4863 
z
" transform="scale(0.015625)"/>
       <path id="DejaVuSans-65" d="M 3597 1894 
L 3597 1613 
L 953 1613 
Q 991 1019 1311 708 
Q 1631 397 2203 397 
Q 2534 397 2845 478 
Q 3156 559 3463 722 
L 3463 178 
Q 3153 47 2828 -22 
Q 2503 -91 2169 -91 
Q 1331 -91 842 396 
Q 353 884 353 1716 
Q 353 2575 817 3079 
Q 1281 3584 2069 3584 
Q 2775 3584 3186 3129 
Q 3597 2675 3597 1894 
z
M 3022 2063 
Q 3016 2534 2758 2815 
Q 2500 3097 2075 3097 
Q 1594 3097 1305 2825 
Q 1016 2553 972 2059 
L 3022 2063 
z
" transform="scale(0.015625)"/>
       <path id="DejaVuSans-3a" d="M 750 794 
L 1409 794 
L 1409 0 
L 750 0 
L 750 794 
z
M 750 3309 
L 1409 3309 
L 1409 2516 
L 750 2516 
L 750 3309 
z
" transform="scale(0.015625)"/>
      </defs>
      <use xlink:href="#DejaVuSans-70"/>
      <use xlink:href="#DejaVuSans-75" transform="translate(63.476562 0)"/>
      <use xlink:href="#DejaVuSans-6c" transform="translate(126.855469 0)"/>
      <use xlink:href="#DejaVuSans-73" transform="translate(154.638672 0)"/>
      <use xlink:href="#DejaVuSans-65" transform="translate(206.738281 0)"/>
      <use xlink:href="#DejaVuSans-3a" transform="translate(268.261719 0)"/>
      <use xlink:href="#DejaVuSans-30" transform="translate(301.953125 0)"/>
     </g>
    </g>
    <g id="line2d_15">
     <path d="M 314.570312 34.976562 
L 314.570312 34.976562 
L 324.570312 34.976562 
L 324.570312 34.976562 
L 334.570312 34.976562 
" style="fill: none; stroke: #ff7f0e; stroke-width: 1.5; stroke-linecap: square"/>
    </g>
    <g id="text_14">
     <!-- pulse:1 -->
     <g transform="translate(342.570312 38.476562) scale(0.1 -0.1)">
      <use xlink:href="#DejaVuSans-70"/>
      <use xlink:href="#DejaVuSans-75" transform="translate(63.476562 0)"/>
      <use xlink:href="#DejaVuSans-6c" transform="translate(126.855469 0)"/>
      <use xlink:href="#DejaVuSans-73" transform="translate(154.638672 0)"/>
      <use xlink:href="#DejaVuSans-65" transform="translate(206.738281 0)"/>
      <use xlink:href="#DejaVuSans-3a" transform="translate(268.261719 0)"/>
      <use xlink:href="#DejaVuSans-31" transform="translate(301.953125 0)"/>
     </g>
    </g>
    <g id="line2d_16">
     <path d="M 314.570312 49.654687 
L 314.570312 49.654687 
L 324.570312 49.654687 
L 324.570312 49.654687 
L 334.570312 49.654687 
" style="fill: none; stroke: #2ca02c; stroke-width: 1.5; stroke-linecap: square"/>
    </g>
    <g id="text_15">
     <!-- pulse:2 -->
     <g transform="translate(342.570312 53.154687) scale(0.1 -0.1)">
      <use xlink:href="#DejaVuSans-70"/>
      <use xlink:href="#DejaVuSans-75" transform="translate(63.476562 0)"/>
      <use xlink:href="#DejaVuSans-6c" transform="translate(126.855469 0)"/>
      <use xlink:href="#DejaVuSans-73" transform="translate(154.638672 0)"/>
      <use xlink:href="#DejaVuSans-65" transform="translate(206.738281 0)"/>
      <use xlink:href="#DejaVuSans-3a" transform="translate(268.261719 0)"/>
      <use xlink:href="#DejaVuSans-32" transform="translate(301.953125 0)"/>
     </g>
    </g>
   </g>
  </g>
 </g>
 <defs>
  <clipPath id="p5a5dced0d3">
   <rect x="53.328125" y="7.2" width="334.8" height="221.76"/>
  </clipPath>
 </defs>
</svg>
