<?xml version="1.0" encoding="utf-8" standalone="no"?>
<!DOCTYPE svg PUBLIC "-//W3C//DTD SVG 1.1//EN"
  "http://www.w3.org/Graphics/SVG/1.1/DTD/svg11.dtd">
<svg xmlns:xlink="http://www.w3.org/1999/xlink" width="872.39952pt" height="296.39952pt" viewBox="0 0 872.39952 296.39952" xmlns="http://www.w3.org/2000/svg" version="1.1">
 <metadata>
  <rdf:RDF xmlns:dc="http://purl.org/dc/elements/1.1/" xmlns:cc="http://creativecommons.org/ns#" xmlns:rdf="http://www.w3.org/1999/02/22-rdf-syntax-ns#">
   <cc:Work>
    <dc:type rdf:resource="http://purl.org/dc/dcmitype/StillImage"/>
    <dc:date>2025-10-02T14:00:48.341671</dc:date>
    <dc:format>image/svg+xml</dc:format>
    <dc:creator>
     <cc:Agent>
      <dc:title>Matplotlib v3.10.1, https://matplotlib.org/</dc:title>
     </cc:Agent>
    </dc:creator>
   </cc:Work>
  </rdf:RDF>
 </metadata>
 <defs>
  <style type="text/css">*{stroke-linejoin: round; stroke-linecap: butt}</style>
 </defs>
 <g id="figure_1">
  <g id="patch_1">
   <path d="M 0 296.39952 
L 872.39952 296.39952 
L 872.39952 0 
L 0 0 
z
" style="fill: #ffffff"/>
  </g>
  <g id="axes_1">
   <g id="patch_2">
    <path d="M 53.328125 257.158895 
L 428.69851 257.158895 
L 428.69851 7.2 
L 53.328125 7.2 
z
" style="fill: #ffffff"/>
   </g>
   <g id="matplotlib.axis_1">
    <g id="xtick_1">
     <g id="line2d_1">
      <defs>
       <path id="m284669defb" d="M 0 0 
L 0 3.5 
" style="stroke: #000000; stroke-width: 0.8"/>
      </defs>
      <g>
       <use xlink:href="#m284669defb" x="53.925751" y="257.158895" style="stroke: #000000; stroke-width: 0.8"/>
      </g>
     </g>
     <g id="text_1">
      <!-- 0 -->
      <g transform="translate(50.744501 271.757332) scale(0.1 -0.1)">
       <defs>
        <path id="DejaVuSans-30" d="M 2034 4250 
Q 1547 4250 1301 3770 
Q 1056 3291 1056 2328 
Q 1056 1369 1301 889 
Q 1547 409 2034 409 
Q 2525 409 2770 889 
Q 3016 1369 3016 2328 
Q 3016 3291 2770 3770 
Q 2525 4250 2034 4250 
z
M 2034 4750 
Q 2819 4750 3233 4129 
Q 3647 3509 3647 2328 
Q 3647 1150 3233 529 
Q 2819 -91 2034 -91 
Q 1250 -91 836 529 
Q 422 1150 422 2328 
Q 422 3509 836 4129 
Q 1250 4750 2034 4750 
z
" transform="scale(0.015625)"/>
       </defs>
       <use xlink:href="#DejaVuSans-30"/>
      </g>
     </g>
    </g>
    <g id="xtick_2">
     <g id="line2d_2">
      <g>
       <use xlink:href="#m284669defb" x="104.541228" y="257.158895" style="stroke: #000000; stroke-width: 0.8"/>
      </g>
     </g>
     <g id="text_2">
      <!-- 20000 -->
      <g transform="translate(88.634978 271.757332) scale(0.1 -0.1)">
       <defs>
        <path id="DejaVuSans-32" d="M 1228 531 
L 3431 531 
L 3431 0 
L 469 0 
L 469 531 
Q 828 903 1448 1529 
Q 2069 2156 2228 2338 
Q 2531 2678 2651 2914 
Q 2772 3150 2772 3378 
Q 2772 3750 2511 3984 
Q 2250 4219 1831 4219 
Q 1534 4219 1204 4116 
Q 875 4013 500 3803 
L 500 4441 
Q 881 4594 1212 4672 
Q 1544 4750 1819 4750 
Q 2544 4750 2975 4387 
Q 3406 4025 3406 3419 
Q 3406 3131 3298 2873 
Q 3191 2616 2906 2266 
Q 2828 2175 2409 1742 
Q 1991 1309 1228 531 
z
" transform="scale(0.015625)"/>
       </defs>
       <use xlink:href="#DejaVuSans-32"/>
       <use xlink:href="#DejaVuSans-30" transform="translate(63.623047 0)"/>
       <use xlink:href="#DejaVuSans-30" transform="translate(127.246094 0)"/>
       <use xlink:href="#DejaVuSans-30" transform="translate(190.869141 0)"/>
       <use xlink:href="#DejaVuSans-30" transform="translate(254.492188 0)"/>
      </g>
     </g>
    </g>
    <g id="xtick_3">
     <g id="line2d_3">
      <g>
       <use xlink:href="#m284669defb" x="155.156706" y="257.158895" style="stroke: #000000; stroke-width: 0.8"/>
      </g>
     </g>
     <g id="text_3">
      <!-- 40000 -->
      <g transform="translate(139.250456 271.757332) scale(0.1 -0.1)">
       <defs>
        <path id="DejaVuSans-34" d="M 2419 4116 
L 825 1625 
L 2419 1625 
L 2419 4116 
z
M 2253 4666 
L 3047 4666 
L 3047 1625 
L 3713 1625 
L 3713 1100 
L 3047 1100 
L 3047 0 
L 2419 0 
L 2419 1100 
L 313 1100 
L 313 1709 
L 2253 4666 
z
" transform="scale(0.015625)"/>
       </defs>
       <use xlink:href="#DejaVuSans-34"/>
       <use xlink:href="#DejaVuSans-30" transform="translate(63.623047 0)"/>
       <use xlink:href="#DejaVuSans-30" transform="translate(127.246094 0)"/>
       <use xlink:href="#DejaVuSans-30" transform="translate(190.869141 0)"/>
       <use xlink:href="#DejaVuSans-30" transform="translate(254.492188 0)"/>
      </g>
     </g>
    </g>
    <g id="xtick_4">
     <g id="line2d_4">
      <g>
       <use xlink:href="#m284669defb" x="205.772184" y="257.158895" style="stroke: #000000; stroke-width: 0.8"/>
      </g>
     </g>
     <g id="text_4">
      <!-- 60000 -->
      <g transform="translate(189.865934 271.757332) scale(0.1 -0.1)">
       <defs>
        <path id="DejaVuSans-36" d="M 2113 2584 
Q 1688 2584 1439 2293 
Q 1191 2003 1191 1497 
Q 1191 994 1439 701 
Q 1688 409 2113 409 
Q 2538 409 2786 701 
Q 3034 994 3034 1497 
Q 3034 2003 2786 2293 
Q 2538 2584 2113 2584 
z
M 3366 4563 
L 3366 3988 
Q 3128 4100 2886 4159 
Q 2644 4219 2406 4219 
Q 1781 4219 1451 3797 
Q 1122 3375 1075 2522 
Q 1259 2794 1537 2939 
Q 1816 3084 2150 3084 
Q 2853 3084 3261 2657 
Q 3669 2231 3669 1497 
Q 3669 778 3244 343 
Q 2819 -91 2113 -91 
Q 1303 -91 875 529 
Q 447 1150 447 2328 
Q 447 3434 972 4092 
Q 1497 4750 2381 4750 
Q 2619 4750 2861 4703 
Q 3103 4656 3366 4563 
z
" transform="scale(0.015625)"/>
       </defs>
       <use xlink:href="#DejaVuSans-36"/>
       <use xlink:href="#DejaVuSans-30" transform="translate(63.623047 0)"/>
       <use xlink:href="#DejaVuSans-30" transform="translate(127.246094 0)"/>
       <use xlink:href="#DejaVuSans-30" transform="translate(190.869141 0)"/>
       <use xlink:href="#DejaVuSans-30" transform="translate(254.492188 0)"/>
      </g>
     </g>
    </g>
    <g id="xtick_5">
     <g id="line2d_5">
      <g>
       <use xlink:href="#m284669defb" x="256.387661" y="257.158895" style="stroke: #000000; stroke-width: 0.8"/>
      </g>
     </g>
     <g id="text_5">
      <!-- 80000 -->
      <g transform="translate(240.481411 271.757332) scale(0.1 -0.1)">
       <defs>
        <path id="DejaVuSans-38" d="M 2034 2216 
Q 1584 2216 1326 1975 
Q 1069 1734 1069 1313 
Q 1069 891 1326 650 
Q 1584 409 2034 409 
Q 2484 409 2743 651 
Q 3003 894 3003 1313 
Q 3003 1734 2745 1975 
Q 2488 2216 2034 2216 
z
M 1403 2484 
Q 997 2584 770 2862 
Q 544 3141 544 3541 
Q 544 4100 942 4425 
Q 1341 4750 2034 4750 
Q 2731 4750 3128 4425 
Q 3525 4100 3525 3541 
Q 3525 3141 3298 2862 
Q 3072 2584 2669 2484 
Q 3125 2378 3379 2068 
Q 3634 1759 3634 1313 
Q 3634 634 3220 271 
Q 2806 -91 2034 -91 
Q 1263 -91 848 271 
Q 434 634 434 1313 
Q 434 1759 690 2068 
Q 947 2378 1403 2484 
z
M 1172 3481 
Q 1172 3119 1398 2916 
Q 1625 2713 2034 2713 
Q 2441 2713 2670 2916 
Q 2900 3119 2900 3481 
Q 2900 3844 2670 4047 
Q 2441 4250 2034 4250 
Q 1625 4250 1398 4047 
Q 1172 3844 1172 3481 
z
" transform="scale(0.015625)"/>
       </defs>
       <use xlink:href="#DejaVuSans-38"/>
       <use xlink:href="#DejaVuSans-30" transform="translate(63.623047 0)"/>
       <use xlink:href="#DejaVuSans-30" transform="translate(127.246094 0)"/>
       <use xlink:href="#DejaVuSans-30" transform="translate(190.869141 0)"/>
       <use xlink:href="#DejaVuSans-30" transform="translate(254.492188 0)"/>
      </g>
     </g>
    </g>
    <g id="xtick_6">
     <g id="line2d_6">
      <g>
       <use xlink:href="#m284669defb" x="307.003139" y="257.158895" style="stroke: #000000; stroke-width: 0.8"/>
      </g>
     </g>
     <g id="text_6">
      <!-- 100000 -->
      <g transform="translate(287.915639 271.757332) scale(0.1 -0.1)">
       <defs>
        <path id="DejaVuSans-31" d="M 794 531 
L 1825 531 
L 1825 4091 
L 703 3866 
L 703 4441 
L 1819 4666 
L 2450 4666 
L 2450 531 
L 3481 531 
L 3481 0 
L 794 0 
L 794 531 
z
" transform="scale(0.015625)"/>
       </defs>
       <use xlink:href="#DejaVuSans-31"/>
       <use xlink:href="#DejaVuSans-30" transform="translate(63.623047 0)"/>
       <use xlink:href="#DejaVuSans-30" transform="translate(127.246094 0)"/>
       <use xlink:href="#DejaVuSans-30" transform="translate(190.869141 0)"/>
       <use xlink:href="#DejaVuSans-30" transform="translate(254.492188 0)"/>
       <use xlink:href="#DejaVuSans-30" transform="translate(318.115234 0)"/>
      </g>
     </g>
    </g>
    <g id="xtick_7">
     <g id="line2d_7">
      <g>
       <use xlink:href="#m284669defb" x="357.618617" y="257.158895" style="stroke: #000000; stroke-width: 0.8"/>
      </g>
     </g>
     <g id="text_7">
      <!-- 120000 -->
      <g transform="translate(338.531117 271.757332) scale(0.1 -0.1)">
       <use xlink:href="#DejaVuSans-31"/>
       <use xlink:href="#DejaVuSans-32" transform="translate(63.623047 0)"/>
       <use xlink:href="#DejaVuSans-30" transform="translate(127.246094 0)"/>
       <use xlink:href="#DejaVuSans-30" transform="translate(190.869141 0)"/>
       <use xlink:href="#DejaVuSans-30" transform="translate(254.492188 0)"/>
       <use xlink:href="#DejaVuSans-30" transform="translate(318.115234 0)"/>
      </g>
     </g>
    </g>
    <g id="xtick_8">
     <g id="line2d_8">
      <g>
       <use xlink:href="#m284669defb" x="408.234095" y="257.158895" style="stroke: #000000; stroke-width: 0.8"/>
      </g>
     </g>
     <g id="text_8">
      <!-- 140000 -->
      <g transform="translate(389.146595 271.757332) scale(0.1 -0.1)">
       <use xlink:href="#DejaVuSans-31"/>
       <use xlink:href="#DejaVuSans-34" transform="translate(63.623047 0)"/>
       <use xlink:href="#DejaVuSans-30" transform="translate(127.246094 0)"/>
       <use xlink:href="#DejaVuSans-30" transform="translate(190.869141 0)"/>
       <use xlink:href="#DejaVuSans-30" transform="translate(254.492188 0)"/>
       <use xlink:href="#DejaVuSans-30" transform="translate(318.115234 0)"/>
      </g>
     </g>
    </g>
    <g id="text_9">
     <!-- birth_time [µs] -->
     <g transform="translate(204.193005 285.435457) scale(0.1 -0.1)">
      <defs>
       <path id="DejaVuSans-62" d="M 3116 1747 
Q 3116 2381 2855 2742 
Q 2594 3103 2138 3103 
Q 1681 3103 1420 2742 
Q 1159 2381 1159 1747 
Q 1159 1113 1420 752 
Q 1681 391 2138 391 
Q 2594 391 2855 752 
Q 3116 1113 3116 1747 
z
M 1159 2969 
Q 1341 3281 1617 3432 
Q 1894 3584 2278 3584 
Q 2916 3584 3314 3078 
Q 3713 2572 3713 1747 
Q 3713 922 3314 415 
Q 2916 -91 2278 -91 
Q 1894 -91 1617 61 
Q 1341 213 1159 525 
L 1159 0 
L 581 0 
L 581 4863 
L 1159 4863 
L 1159 2969 
z
" transform="scale(0.015625)"/>
       <path id="DejaVuSans-69" d="M 603 3500 
L 1178 3500 
L 1178 0 
L 603 0 
L 603 3500 
z
M 603 4863 
L 1178 4863 
L 1178 4134 
L 603 4134 
L 603 4863 
z
" transform="scale(0.015625)"/>
       <path id="DejaVuSans-72" d="M 2631 2963 
Q 2534 3019 2420 3045 
Q 2306 3072 2169 3072 
Q 1681 3072 1420 2755 
Q 1159 2438 1159 1844 
L 1159 0 
L 581 0 
L 581 3500 
L 1159 3500 
L 1159 2956 
Q 1341 3275 1631 3429 
Q 1922 3584 2338 3584 
Q 2397 3584 2469 3576 
Q 2541 3569 2628 3553 
L 2631 2963 
z
" transform="scale(0.015625)"/>
       <path id="DejaVuSans-74" d="M 1172 4494 
L 1172 3500 
L 2356 3500 
L 2356 3053 
L 1172 3053 
L 1172 1153 
Q 1172 725 1289 603 
Q 1406 481 1766 481 
L 2356 481 
L 2356 0 
L 1766 0 
Q 1100 0 847 248 
Q 594 497 594 1153 
L 594 3053 
L 172 3053 
L 172 3500 
L 594 3500 
L 594 4494 
L 1172 4494 
z
" transform="scale(0.015625)"/>
       <path id="DejaVuSans-68" d="M 3513 2113 
L 3513 0 
L 2938 0 
L 2938 2094 
Q 2938 2591 2744 2837 
Q 2550 3084 2163 3084 
Q 1697 3084 1428 2787 
Q 1159 2491 1159 1978 
L 1159 0 
L 581 0 
L 581 4863 
L 1159 4863 
L 1159 2956 
Q 1366 3272 1645 3428 
Q 1925 3584 2291 3584 
Q 2894 3584 3203 3211 
Q 3513 2838 3513 2113 
z
" transform="scale(0.015625)"/>
       <path id="DejaVuSans-5f" d="M 3263 -1063 
L 3263 -1509 
L -63 -1509 
L -63 -1063 
L 3263 -1063 
z
" transform="scale(0.015625)"/>
       <path id="DejaVuSans-6d" d="M 3328 2828 
Q 3544 3216 3844 3400 
Q 4144 3584 4550 3584 
Q 5097 3584 5394 3201 
Q 5691 2819 5691 2113 
L 5691 0 
L 5113 0 
L 5113 2094 
Q 5113 2597 4934 2840 
Q 4756 3084 4391 3084 
Q 3944 3084 3684 2787 
Q 3425 2491 3425 1978 
L 3425 0 
L 2847 0 
L 2847 2094 
Q 2847 2600 2669 2842 
Q 2491 3084 2119 3084 
Q 1678 3084 1418 2786 
Q 1159 2488 1159 1978 
L 1159 0 
L 581 0 
L 581 3500 
L 1159 3500 
L 1159 2956 
Q 1356 3278 1631 3431 
Q 1906 3584 2284 3584 
Q 2666 3584 2933 3390 
Q 3200 3197 3328 2828 
z
" transform="scale(0.015625)"/>
       <path id="DejaVuSans-65" d="M 3597 1894 
L 3597 1613 
L 953 1613 
Q 991 1019 1311 708 
Q 1631 397 2203 397 
Q 2534 397 2845 478 
Q 3156 559 3463 722 
L 3463 178 
Q 3153 47 2828 -22 
Q 2503 -91 2169 -91 
Q 1331 -91 842 396 
Q 353 884 353 1716 
Q 353 2575 817 3079 
Q 1281 3584 2069 3584 
Q 2775 3584 3186 3129 
Q 3597 2675 3597 1894 
z
M 3022 2063 
Q 3016 2534 2758 2815 
Q 2500 3097 2075 3097 
Q 1594 3097 1305 2825 
Q 1016 2553 972 2059 
L 3022 2063 
z
" transform="scale(0.015625)"/>
       <path id="DejaVuSans-20" transform="scale(0.015625)"/>
       <path id="DejaVuSans-5b" d="M 550 4863 
L 1875 4863 
L 1875 4416 
L 1125 4416 
L 1125 -397 
L 1875 -397 
L 1875 -844 
L 550 -844 
L 550 4863 
z
" transform="scale(0.015625)"/>
       <path id="DejaVuSans-b5" d="M 544 -1331 
L 544 3500 
L 1119 3500 
L 1119 1325 
Q 1119 872 1334 640 
Q 1550 409 1972 409 
Q 2434 409 2667 671 
Q 2900 934 2900 1459 
L 2900 3500 
L 3475 3500 
L 3475 806 
Q 3475 619 3529 530 
Q 3584 441 3700 441 
Q 3728 441 3778 458 
Q 3828 475 3916 513 
L 3916 50 
Q 3788 -22 3673 -56 
Q 3559 -91 3450 -91 
Q 3234 -91 3106 31 
Q 2978 153 2931 403 
Q 2775 156 2548 32 
Q 2322 -91 2016 -91 
Q 1697 -91 1473 31 
Q 1250 153 1119 397 
L 1119 -1331 
L 544 -1331 
z
" transform="scale(0.015625)"/>
       <path id="DejaVuSans-73" d="M 2834 3397 
L 2834 2853 
Q 2591 2978 2328 3040 
Q 2066 3103 1784 3103 
Q 1356 3103 1142 2972 
Q 928 2841 928 2578 
Q 928 2378 1081 2264 
Q 1234 2150 1697 2047 
L 1894 2003 
Q 2506 1872 2764 1633 
Q 3022 1394 3022 966 
Q 3022 478 2636 193 
Q 2250 -91 1575 -91 
Q 1294 -91 989 -36 
Q 684 19 347 128 
L 347 722 
Q 666 556 975 473 
Q 1284 391 1588 391 
Q 1994 391 2212 530 
Q 2431 669 2431 922 
Q 2431 1156 2273 1281 
Q 2116 1406 1581 1522 
L 1381 1569 
Q 847 1681 609 1914 
Q 372 2147 372 2553 
Q 372 3047 722 3315 
Q 1072 3584 1716 3584 
Q 2034 3584 2315 3537 
Q 2597 3491 2834 3397 
z
" transform="scale(0.015625)"/>
       <path id="DejaVuSans-5d" d="M 1947 4863 
L 1947 -844 
L 622 -844 
L 622 -397 
L 1369 -397 
L 1369 4416 
L 622 4416 
L 622 4863 
L 1947 4863 
z
" transform="scale(0.015625)"/>
      </defs>
      <use xlink:href="#DejaVuSans-62"/>
      <use xlink:href="#DejaVuSans-69" transform="translate(63.476562 0)"/>
      <use xlink:href="#DejaVuSans-72" transform="translate(91.259766 0)"/>
      <use xlink:href="#DejaVuSans-74" transform="translate(132.373047 0)"/>
      <use xlink:href="#DejaVuSans-68" transform="translate(171.582031 0)"/>
      <use xlink:href="#DejaVuSans-5f" transform="translate(234.960938 0)"/>
      <use xlink:href="#DejaVuSans-74" transform="translate(284.960938 0)"/>
      <use xlink:href="#DejaVuSans-69" transform="translate(324.169922 0)"/>
      <use xlink:href="#DejaVuSans-6d" transform="translate(351.953125 0)"/>
      <use xlink:href="#DejaVuSans-65" transform="translate(449.365234 0)"/>
      <use xlink:href="#DejaVuSans-20" transform="translate(510.888672 0)"/>
      <use xlink:href="#DejaVuSans-5b" transform="translate(542.675781 0)"/>
      <use xlink:href="#DejaVuSans-b5" transform="translate(581.689453 0)"/>
      <use xlink:href="#DejaVuSans-73" transform="translate(645.3125 0)"/>
      <use xlink:href="#DejaVuSans-5d" transform="translate(697.412109 0)"/>
     </g>
    </g>
   </g>
   <g id="matplotlib.axis_2">
    <g id="ytick_1">
     <g id="line2d_9">
      <defs>
       <path id="m1a2d556e94" d="M 0 0 
L -3.5 0 
" style="stroke: #000000; stroke-width: 0.8"/>
      </defs>
      <g>
       <use xlink:href="#m1a2d556e94" x="53.328125" y="245.911125" style="stroke: #000000; stroke-width: 0.8"/>
      </g>
     </g>
     <g id="text_10">
      <!-- 0 -->
      <g transform="translate(39.965625 249.710343) scale(0.1 -0.1)">
       <use xlink:href="#DejaVuSans-30"/>
      </g>
     </g>
    </g>
    <g id="ytick_2">
     <g id="line2d_10">
      <g>
       <use xlink:href="#m1a2d556e94" x="53.328125" y="207.911901" style="stroke: #000000; stroke-width: 0.8"/>
      </g>
     </g>
     <g id="text_11">
      <!-- 1000 -->
      <g transform="translate(20.878125 211.71112) scale(0.1 -0.1)">
       <use xlink:href="#DejaVuSans-31"/>
       <use xlink:href="#DejaVuSans-30" transform="translate(63.623047 0)"/>
       <use xlink:href="#DejaVuSans-30" transform="translate(127.246094 0)"/>
       <use xlink:href="#DejaVuSans-30" transform="translate(190.869141 0)"/>
      </g>
     </g>
    </g>
    <g id="ytick_3">
     <g id="line2d_11">
      <g>
       <use xlink:href="#m1a2d556e94" x="53.328125" y="169.912677" style="stroke: #000000; stroke-width: 0.8"/>
      </g>
     </g>
     <g id="text_12">
      <!-- 2000 -->
      <g transform="translate(20.878125 173.711896) scale(0.1 -0.1)">
       <use xlink:href="#DejaVuSans-32"/>
       <use xlink:href="#DejaVuSans-30" transform="translate(63.623047 0)"/>
       <use xlink:href="#DejaVuSans-30" transform="translate(127.246094 0)"/>
       <use xlink:href="#DejaVuSans-30" transform="translate(190.869141 0)"/>
      </g>
     </g>
    </g>
    <g id="ytick_4">
     <g id="line2d_12">
      <g>
       <use xlink:href="#m1a2d556e94" x="53.328125" y="131.913453" style="stroke: #000000; stroke-width: 0.8"/>
      </g>
     </g>
     <g id="text_13">
      <!-- 3000 -->
      <g transform="translate(20.878125 135.712672) scale(0.1 -0.1)">
       <defs>
        <path id="DejaVuSans-33" d="M 2597 2516 
Q 3050 2419 3304 2112 
Q 3559 1806 3559 1356 
Q 3559 666 3084 287 
Q 2609 -91 1734 -91 
Q 1441 -91 1130 -33 
Q 819 25 488 141 
L 488 750 
Q 750 597 1062 519 
Q 1375 441 1716 441 
Q 2309 441 2620 675 
Q 2931 909 2931 1356 
Q 2931 1769 2642 2001 
Q 2353 2234 1838 2234 
L 1294 2234 
L 1294 2753 
L 1863 2753 
Q 2328 2753 2575 2939 
Q 2822 3125 2822 3475 
Q 2822 3834 2567 4026 
Q 2313 4219 1838 4219 
Q 1578 4219 1281 4162 
Q 984 4106 628 3988 
L 628 4550 
Q 988 4650 1302 4700 
Q 1616 4750 1894 4750 
Q 2613 4750 3031 4423 
Q 3450 4097 3450 3541 
Q 3450 3153 3228 2886 
Q 3006 2619 2597 2516 
z
" transform="scale(0.015625)"/>
       </defs>
       <use xlink:href="#DejaVuSans-33"/>
       <use xlink:href="#DejaVuSans-30" transform="translate(63.623047 0)"/>
       <use xlink:href="#DejaVuSans-30" transform="translate(127.246094 0)"/>
       <use xlink:href="#DejaVuSans-30" transform="translate(190.869141 0)"/>
      </g>
     </g>
    </g>
    <g id="ytick_5">
     <g id="line2d_13">
      <g>
       <use xlink:href="#m1a2d556e94" x="53.328125" y="93.914229" style="stroke: #000000; stroke-width: 0.8"/>
      </g>
     </g>
     <g id="text_14">
      <!-- 4000 -->
      <g transform="translate(20.878125 97.713448) scale(0.1 -0.1)">
       <use xlink:href="#DejaVuSans-34"/>
       <use xlink:href="#DejaVuSans-30" transform="translate(63.623047 0)"/>
       <use xlink:href="#DejaVuSans-30" transform="translate(127.246094 0)"/>
       <use xlink:href="#DejaVuSans-30" transform="translate(190.869141 0)"/>
      </g>
     </g>
    </g>
    <g id="ytick_6">
     <g id="line2d_14">
      <g>
       <use xlink:href="#m1a2d556e94" x="53.328125" y="55.915005" style="stroke: #000000; stroke-width: 0.8"/>
      </g>
     </g>
     <g id="text_15">
      <!-- 5000 -->
      <g transform="translate(20.878125 59.714224) scale(0.1 -0.1)">
       <defs>
        <path id="DejaVuSans-35" d="M 691 4666 
L 3169 4666 
L 3169 4134 
L 1269 4134 
L 1269 2991 
Q 1406 3038 1543 3061 
Q 1681 3084 1819 3084 
Q 2600 3084 3056 2656 
Q 3513 2228 3513 1497 
Q 3513 744 3044 326 
Q 2575 -91 1722 -91 
Q 1428 -91 1123 -41 
Q 819 9 494 109 
L 494 744 
Q 775 591 1075 516 
Q 1375 441 1709 441 
Q 2250 441 2565 725 
Q 2881 1009 2881 1497 
Q 2881 1984 2565 2268 
Q 2250 2553 1709 2553 
Q 1456 2553 1204 2497 
Q 953 2441 691 2322 
L 691 4666 
z
" transform="scale(0.015625)"/>
       </defs>
       <use xlink:href="#DejaVuSans-35"/>
       <use xlink:href="#DejaVuSans-30" transform="translate(63.623047 0)"/>
       <use xlink:href="#DejaVuSans-30" transform="translate(127.246094 0)"/>
       <use xlink:href="#DejaVuSans-30" transform="translate(190.869141 0)"/>
      </g>
     </g>
    </g>
    <g id="ytick_7">
     <g id="line2d_15">
      <g>
       <use xlink:href="#m1a2d556e94" x="53.328125" y="17.915781" style="stroke: #000000; stroke-width: 0.8"/>
      </g>
     </g>
     <g id="text_16">
      <!-- 6000 -->
      <g transform="translate(20.878125 21.715) scale(0.1 -0.1)">
       <use xlink:href="#DejaVuSans-36"/>
       <use xlink:href="#DejaVuSans-30" transform="translate(63.623047 0)"/>
       <use xlink:href="#DejaVuSans-30" transform="translate(127.246094 0)"/>
       <use xlink:href="#DejaVuSans-30" transform="translate(190.869141 0)"/>
      </g>
     </g>
    </g>
    <g id="text_17">
     <!-- [counts] -->
     <g transform="translate(14.798438 152.791947) rotate(-90) scale(0.1 -0.1)">
      <defs>
       <path id="DejaVuSans-63" d="M 3122 3366 
L 3122 2828 
Q 2878 2963 2633 3030 
Q 2388 3097 2138 3097 
Q 1578 3097 1268 2742 
Q 959 2388 959 1747 
Q 959 1106 1268 751 
Q 1578 397 2138 397 
Q 2388 397 2633 464 
Q 2878 531 3122 666 
L 3122 134 
Q 2881 22 2623 -34 
Q 2366 -91 2075 -91 
Q 1284 -91 818 406 
Q 353 903 353 1747 
Q 353 2603 823 3093 
Q 1294 3584 2113 3584 
Q 2378 3584 2631 3529 
Q 2884 3475 3122 3366 
z
" transform="scale(0.015625)"/>
       <path id="DejaVuSans-6f" d="M 1959 3097 
Q 1497 3097 1228 2736 
Q 959 2375 959 1747 
Q 959 1119 1226 758 
Q 1494 397 1959 397 
Q 2419 397 2687 759 
Q 2956 1122 2956 1747 
Q 2956 2369 2687 2733 
Q 2419 3097 1959 3097 
z
M 1959 3584 
Q 2709 3584 3137 3096 
Q 3566 2609 3566 1747 
Q 3566 888 3137 398 
Q 2709 -91 1959 -91 
Q 1206 -91 779 398 
Q 353 888 353 1747 
Q 353 2609 779 3096 
Q 1206 3584 1959 3584 
z
" transform="scale(0.015625)"/>
       <path id="DejaVuSans-75" d="M 544 1381 
L 544 3500 
L 1119 3500 
L 1119 1403 
Q 1119 906 1312 657 
Q 1506 409 1894 409 
Q 2359 409 2629 706 
Q 2900 1003 2900 1516 
L 2900 3500 
L 3475 3500 
L 3475 0 
L 2900 0 
L 2900 538 
Q 2691 219 2414 64 
Q 2138 -91 1772 -91 
Q 1169 -91 856 284 
Q 544 659 544 1381 
z
M 1991 3584 
L 1991 3584 
z
" transform="scale(0.015625)"/>
       <path id="DejaVuSans-6e" d="M 3513 2113 
L 3513 0 
L 2938 0 
L 2938 2094 
Q 2938 2591 2744 2837 
Q 2550 3084 2163 3084 
Q 1697 3084 1428 2787 
Q 1159 2491 1159 1978 
L 1159 0 
L 581 0 
L 581 3500 
L 1159 3500 
L 1159 2956 
Q 1366 3272 1645 3428 
Q 1925 3584 2291 3584 
Q 2894 3584 3203 3211 
Q 3513 2838 3513 2113 
z
" transform="scale(0.015625)"/>
      </defs>
      <use xlink:href="#DejaVuSans-5b"/>
      <use xlink:href="#DejaVuSans-63" transform="translate(39.013672 0)"/>
      <use xlink:href="#DejaVuSans-6f" transform="translate(93.994141 0)"/>
      <use xlink:href="#DejaVuSans-75" transform="translate(155.175781 0)"/>
      <use xlink:href="#DejaVuSans-6e" transform="translate(218.554688 0)"/>
      <use xlink:href="#DejaVuSans-74" transform="translate(281.933594 0)"/>
      <use xlink:href="#DejaVuSans-73" transform="translate(321.142578 0)"/>
      <use xlink:href="#DejaVuSans-5d" transform="translate(373.242188 0)"/>
     </g>
    </g>
   </g>
   <g id="line2d_16">
    <path d="M 53.957257 233.90337 
L 53.999199 233.90337 
L 54.083083 211.901819 
L 54.125025 211.901819 
L 54.20891 184.618377 
L 54.250852 184.618377 
L 54.334736 163.452809 
L 54.376678 163.452809 
L 54.460563 138.525318 
L 54.502505 138.525318 
L 54.586389 118.157734 
L 54.628331 118.157734 
L 54.712215 105.61799 
L 54.754157 105.61799 
L 54.838042 95.396199 
L 54.879984 95.396199 
L 54.963868 84.186428 
L 55.00581 84.186428 
L 55.089694 71.494687 
L 55.131637 71.494687 
L 55.173579 72.900658 
L 55.215521 68.606746 
L 55.257463 68.606746 
L 55.257463 72.292671 
L 55.341347 60.740907 
L 55.383289 60.740907 
L 55.467174 55.19302 
L 55.509116 55.19302 
L 55.593 49.493136 
L 55.634942 49.493136 
L 55.718826 39.765335 
L 55.760769 39.765335 
L 55.760769 49.531135 
L 55.844653 45.009228 
L 55.886595 45.009228 
L 55.928537 37.979371 
L 55.970479 39.689336 
L 56.012421 39.689336 
L 56.054363 44.819232 
L 56.096306 37.599379 
L 56.138248 37.599379 
L 56.138248 35.509422 
L 56.18019 38.093369 
L 56.222132 36.915393 
L 56.264074 36.915393 
L 56.264074 35.433423 
L 56.347958 37.979371 
L 56.3899 37.979371 
L 56.431843 27.529585 
L 56.473785 34.255447 
L 56.515727 34.255447 
L 56.515727 31.937495 
L 56.599611 32.469484 
L 56.641553 32.469484 
L 56.683495 29.353548 
L 56.725438 31.6715 
L 56.76738 31.6715 
L 56.76738 28.973555 
L 56.809322 36.497402 
L 56.851264 33.039472 
L 56.893206 33.039472 
L 56.893206 27.339589 
L 56.97709 28.099573 
L 57.019032 28.099573 
L 57.019032 32.203489 
L 57.060975 25.477627 
L 57.102917 31.101512 
L 57.186801 31.101512 
L 57.228743 27.149593 
L 57.270685 36.307406 
L 57.312627 36.307406 
L 57.354569 24.33765 
L 57.396512 26.8076 
L 57.438454 26.8076 
L 57.438454 29.23955 
L 57.480396 23.957658 
L 57.522338 25.249631 
L 57.56428 25.249631 
L 57.606222 27.073594 
L 57.648164 22.627685 
L 57.690106 22.627685 
L 57.690106 30.379527 
L 57.773991 26.693602 
L 57.815933 26.693602 
L 57.857875 30.987514 
L 57.899817 24.793641 
L 57.941759 24.793641 
L 57.941759 24.945638 
L 57.983701 23.995657 
L 58.025644 24.489647 
L 58.067586 24.489647 
L 58.109528 29.999534 
L 58.109528 23.045676 
L 58.15147 25.743621 
L 58.193412 25.743621 
L 58.235354 32.65948 
L 58.277296 23.995657 
L 58.319238 23.995657 
L 58.361181 30.22753 
L 58.403123 26.579604 
L 58.445065 26.579604 
L 58.487007 30.037534 
L 58.528949 24.907638 
L 58.570891 24.907638 
L 58.570891 24.565645 
L 58.654775 28.441566 
L 58.696718 28.441566 
L 58.73866 31.063513 
L 58.780602 21.107716 
L 58.822544 21.107716 
L 58.822544 30.341527 
L 58.906428 27.833579 
L 58.94837 27.833579 
L 58.94837 20.119736 
L 58.990313 30.873517 
L 59.032255 26.579604 
L 59.074197 26.579604 
L 59.116139 27.301589 
L 59.158081 21.753703 
L 59.200023 21.753703 
L 59.200023 26.579604 
L 59.241965 21.639705 
L 59.283907 26.199612 
L 59.32585 26.199612 
L 59.367792 21.525707 
L 59.409734 27.26359 
L 59.451676 27.26359 
L 59.451676 24.945638 
L 59.53556 27.567584 
L 59.577502 27.567584 
L 59.619444 23.805661 
L 59.661387 26.465607 
L 59.703329 26.465607 
L 59.703329 25.32563 
L 59.745271 29.125552 
L 59.787213 26.237611 
L 59.829155 26.237611 
L 59.829155 19.207755 
L 59.913039 28.783559 
L 59.954982 28.783559 
L 59.954982 29.391547 
L 59.996924 27.795579 
L 60.038866 29.011555 
L 60.080808 29.011555 
L 60.080808 22.095696 
L 60.164692 25.781621 
L 60.206634 25.781621 
L 60.206634 28.821558 
L 60.290519 26.959596 
L 60.332461 26.959596 
L 60.332461 25.249631 
L 60.416345 26.123614 
L 60.500229 26.123614 
L 60.500229 29.125552 
L 60.584113 20.803722 
L 60.626056 20.803722 
L 60.667998 27.719581 
L 60.70994 26.845599 
L 60.793824 26.8076 
L 60.793824 29.277549 
L 60.835766 22.285692 
L 60.877708 27.491586 
L 60.91965 27.491586 
L 61.003535 18.903761 
L 61.045477 18.903761 
L 61.129361 27.073594 
L 61.171303 27.073594 
L 61.255188 44.249243 
L 61.29713 44.249243 
L 61.381014 76.206591 
L 61.422956 76.206591 
L 61.50684 102.046063 
L 61.548782 102.046063 
L 61.632667 120.589684 
L 61.674609 120.589684 
L 61.758493 141.907249 
L 61.800435 141.907249 
L 61.884319 156.346954 
L 61.926262 156.346954 
L 61.968204 170.140672 
L 62.010146 170.064674 
L 62.052088 170.064674 
L 62.135972 183.060408 
L 62.177914 183.060408 
L 62.261799 194.422176 
L 62.303741 194.422176 
L 62.387625 199.476073 
L 62.429567 199.476073 
L 62.513451 207.493909 
L 62.555394 207.493909 
L 62.639278 214.941757 
L 62.68122 214.941757 
L 62.723162 213.991777 
L 62.765104 219.349667 
L 62.807046 219.349667 
L 62.890931 224.327566 
L 62.932873 224.327566 
L 62.932873 222.579601 
L 63.016757 228.089489 
L 63.058699 228.089489 
L 63.100641 228.697476 
L 63.142583 227.291505 
L 63.184525 227.291505 
L 63.26841 232.117406 
L 63.310352 232.117406 
L 63.310352 231.813413 
L 63.352294 232.991389 
L 63.394236 232.877391 
L 63.436178 232.877391 
L 63.436178 235.423339 
L 63.520063 234.701354 
L 63.562005 234.701354 
L 63.645889 236.601315 
L 63.687831 236.601315 
L 63.687831 236.411319 
L 63.771715 238.767271 
L 63.813657 238.767271 
L 63.897542 240.211241 
L 63.939484 240.211241 
L 64.023368 239.869248 
L 64.06531 239.869248 
L 64.06531 241.085223 
L 64.149194 241.009225 
L 64.191137 241.009225 
L 64.191137 240.857228 
L 64.233079 241.997205 
L 64.275021 241.807209 
L 64.316963 241.807209 
L 64.400847 242.529194 
L 64.442789 242.529194 
L 64.484732 242.909186 
L 64.526674 242.643191 
L 64.568616 242.643191 
L 64.568616 243.631171 
L 64.6525 243.555173 
L 64.694442 243.555173 
L 64.694442 243.175181 
L 64.736384 243.783168 
L 64.778326 243.669171 
L 64.820269 243.669171 
L 64.904153 244.505153 
L 64.946095 244.505153 
L 65.029979 244.049163 
L 65.071921 244.049163 
L 65.113863 244.581152 
L 65.155806 244.581152 
L 65.197748 244.581152 
L 65.23969 244.809147 
L 65.281632 244.733149 
L 65.323574 244.733149 
L 65.407458 245.113141 
L 65.491343 245.15114 
L 65.491343 245.227139 
L 65.533285 244.847146 
L 65.575227 245.15114 
L 65.659111 245.227139 
L 65.659111 244.961144 
L 65.742995 245.303137 
L 65.82688 245.265138 
L 65.868822 245.455134 
L 65.910764 245.113141 
L 65.994648 245.15114 
L 66.03659 245.683129 
L 66.078532 245.455134 
L 66.120475 245.455134 
L 66.162417 245.341136 
L 66.162417 245.493133 
L 66.204359 245.493133 
L 66.372127 245.569132 
L 66.372127 245.721129 
L 66.414069 245.531132 
L 66.456012 245.607131 
L 66.539896 245.607131 
L 66.539896 245.607131 
" clip-path="url(#p0c2d3de118)" style="fill: none; stroke: #1f77b4; stroke-width: 1.5; stroke-linecap: square"/>
   </g>
   <g id="line2d_17">
    <path d="M 234.726798 234.359361 
L 234.768737 234.359361 
L 234.852615 208.823882 
L 234.894553 208.823882 
L 234.978431 181.540439 
L 235.020369 181.540439 
L 235.104247 158.132917 
L 235.146185 158.132917 
L 235.230063 138.259323 
L 235.272001 138.259323 
L 235.355879 121.805659 
L 235.397817 121.805659 
L 235.481695 103.262038 
L 235.523633 103.262038 
L 235.523633 107.821945 
L 235.607511 88.632337 
L 235.649449 88.632337 
L 235.691388 81.906474 
L 235.733327 85.782395 
L 235.775265 85.782395 
L 235.859143 73.660643 
L 235.901082 73.660643 
L 235.901082 73.926637 
L 235.984959 68.264753 
L 236.026898 68.264753 
L 236.068836 57.548972 
L 236.110775 62.716866 
L 236.152714 62.716866 
L 236.236591 53.21706 
L 236.27853 53.21706 
L 236.27853 56.598991 
L 236.320468 53.103063 
L 236.362407 54.965024 
L 236.404346 54.965024 
L 236.488223 46.681194 
L 236.530162 46.681194 
L 236.614039 42.91927 
L 236.697916 42.95727 
L 236.697916 44.971229 
L 236.739855 40.297324 
L 236.781794 42.91927 
L 236.823732 42.91927 
L 236.865671 32.507483 
L 236.90761 44.325242 
L 236.949549 44.325242 
L 236.949549 34.787437 
L 237.033426 35.167429 
L 237.075365 35.167429 
L 237.075365 36.307406 
L 237.159242 29.923536 
L 237.201181 29.923536 
L 237.243119 36.307406 
L 237.285058 31.747499 
L 237.326997 31.747499 
L 237.326997 38.359364 
L 237.410874 28.099573 
L 237.452813 28.099573 
L 237.53669 31.899496 
L 237.578629 31.899496 
L 237.620567 29.467545 
L 237.662506 30.075533 
L 237.704445 30.075533 
L 237.704445 34.977433 
L 237.788322 25.857619 
L 237.830261 25.857619 
L 237.872199 29.429546 
L 237.914138 29.087553 
L 237.956077 29.087553 
L 238.039954 23.729662 
L 238.081893 23.729662 
L 238.081893 31.025513 
L 238.16577 29.23955 
L 238.249648 29.277549 
L 238.249648 24.413648 
L 238.333525 29.505544 
L 238.375464 29.505544 
L 238.375464 25.705622 
L 238.459341 26.161613 
L 238.50128 26.161613 
L 238.543218 29.277549 
L 238.585157 23.007677 
L 238.627096 23.007677 
L 238.627096 25.81962 
L 238.669034 22.703683 
L 238.710973 25.553625 
L 238.752912 25.553625 
L 238.836789 30.645521 
L 238.878728 30.645521 
L 238.920666 23.691663 
L 238.962605 31.557503 
L 239.004544 31.557503 
L 239.088421 23.84366 
L 239.13036 23.84366 
L 239.13036 31.595502 
L 239.172299 21.107716 
L 239.214237 24.717642 
L 239.256176 24.717642 
L 239.256176 24.413648 
L 239.340053 30.18953 
L 239.381992 30.18953 
L 239.381992 21.677704 
L 239.423931 30.569523 
L 239.465869 24.603645 
L 239.507808 24.603645 
L 239.507808 20.157735 
L 239.549747 29.087553 
L 239.591685 24.261652 
L 239.633624 24.261652 
L 239.633624 21.41171 
L 239.717501 25.895618 
L 239.75944 25.895618 
L 239.843317 20.765723 
L 239.885256 20.765723 
L 239.885256 27.26359 
L 239.969133 23.121675 
L 240.011072 23.121675 
L 240.011072 26.8076 
L 240.094949 24.109655 
L 240.136888 24.109655 
L 240.136888 27.681582 
L 240.220766 21.373711 
L 240.262704 21.373711 
L 240.304643 25.211632 
L 240.346582 23.045676 
L 240.38852 23.045676 
L 240.38852 28.973555 
L 240.472398 25.515626 
L 240.514336 25.515626 
L 240.556275 23.881659 
L 240.598214 31.975494 
L 240.640152 31.975494 
L 240.682091 22.39969 
L 240.72403 26.655603 
L 240.765968 26.655603 
L 240.807907 22.209693 
L 240.849846 31.785498 
L 240.891784 31.785498 
L 240.975662 27.035595 
L 241.0176 27.035595 
L 241.101478 23.121675 
L 241.143416 23.121675 
L 241.227294 30.379527 
L 241.269232 30.379527 
L 241.35311 24.185653 
L 241.395049 24.185653 
L 241.395049 20.157735 
L 241.436987 25.553625 
L 241.478926 22.247693 
L 241.520865 22.247693 
L 241.562803 21.563707 
L 241.604742 27.985575 
L 241.646681 27.985575 
L 241.688619 26.123614 
L 241.730558 26.997596 
L 241.772497 26.997596 
L 241.772497 24.527646 
L 241.856374 27.909577 
L 241.898313 27.909577 
L 241.898313 27.75758 
L 241.940251 39.385343 
L 241.98219 38.891353 
L 242.024129 38.891353 
L 242.108006 63.590848 
L 242.149945 63.590848 
L 242.233822 94.598215 
L 242.275761 94.598215 
L 242.359638 116.561766 
L 242.401577 116.561766 
L 242.485454 137.005349 
L 242.527393 137.005349 
L 242.61127 153.763007 
L 242.653209 153.763007 
L 242.737086 168.202712 
L 242.779025 168.202712 
L 242.862902 178.918493 
L 242.904841 178.918493 
L 242.988718 192.864208 
L 243.030657 192.864208 
L 243.114534 199.172079 
L 243.156473 199.172079 
L 243.24035 204.263975 
L 243.282289 204.263975 
L 243.366166 212.775801 
L 243.408105 212.775801 
L 243.491983 217.905697 
L 243.533921 217.905697 
L 243.617799 222.16161 
L 243.659737 222.16161 
L 243.659737 221.857616 
L 243.743615 225.771536 
L 243.785553 225.771536 
L 243.827492 224.973552 
L 243.869431 228.50748 
L 243.911369 228.50748 
L 243.995247 232.079407 
L 244.037185 232.079407 
L 244.037185 232.953389 
L 244.121063 231.661416 
L 244.163001 231.661416 
L 244.246879 235.613335 
L 244.288817 235.613335 
L 244.288817 235.461338 
L 244.372695 237.361299 
L 244.414633 237.361299 
L 244.456572 236.563316 
L 244.498511 238.653273 
L 244.540449 238.653273 
L 244.540449 238.121284 
L 244.624327 239.641253 
L 244.666266 239.641253 
L 244.666266 238.615274 
L 244.750143 239.603254 
L 244.792082 239.603254 
L 244.83402 241.085223 
L 244.875959 240.705231 
L 244.917898 240.705231 
L 245.001775 242.301198 
L 245.043714 242.301198 
L 245.085652 241.693211 
L 245.127591 242.567193 
L 245.16953 242.567193 
L 245.16953 242.035204 
L 245.253407 242.833188 
L 245.295346 242.833188 
L 245.295346 243.251179 
L 245.379223 243.061183 
L 245.421162 243.061183 
L 245.505039 243.859167 
L 245.546978 243.859167 
L 245.588916 243.745169 
L 245.588916 244.087162 
L 245.630855 243.821167 
L 245.714733 243.859167 
L 245.756671 243.631171 
L 245.79861 244.467154 
L 245.882487 244.429155 
L 245.882487 244.277158 
L 245.966365 244.69515 
L 246.008303 244.69515 
L 246.050242 245.037143 
L 246.092181 244.581152 
L 246.134119 244.581152 
L 246.217997 244.999143 
L 246.259935 244.999143 
L 246.259935 244.847146 
L 246.301874 245.037143 
L 246.343813 244.961144 
L 246.42769 244.885146 
L 246.42769 245.493133 
L 246.511567 245.075142 
L 246.553506 245.075142 
L 246.595445 245.455134 
L 246.637383 245.379136 
L 246.805138 245.341136 
L 246.805138 245.113141 
L 246.847077 245.607131 
L 246.889016 245.15114 
L 246.930954 245.15114 
L 246.972893 245.569132 
L 247.014832 245.303137 
L 247.05677 245.303137 
L 247.05677 245.721129 
L 247.140648 245.607131 
L 247.182586 245.607131 
L 247.224525 245.721129 
L 247.266464 245.683129 
L 247.308402 245.683129 
L 247.308402 245.683129 
" clip-path="url(#p0c2d3de118)" style="fill: none; stroke: #ff7f0e; stroke-width: 1.5; stroke-linecap: square"/>
   </g>
   <g id="line2d_18">
    <path d="M 415.496614 235.613335 
L 415.538524 235.613335 
L 415.622346 211.825821 
L 415.664257 211.825821 
L 415.748078 183.250404 
L 415.789989 183.250404 
L 415.873811 160.602867 
L 415.915721 160.602867 
L 415.999543 138.981309 
L 416.041454 138.981309 
L 416.125275 118.879719 
L 416.167186 118.879719 
L 416.251008 103.300037 
L 416.292919 103.300037 
L 416.37674 93.648234 
L 416.418651 93.648234 
L 416.502472 82.628459 
L 416.544383 82.628459 
L 416.628205 69.518727 
L 416.670116 69.518727 
L 416.670116 71.950678 
L 416.712026 64.00884 
L 416.753937 65.642806 
L 416.795848 65.642806 
L 416.879669 58.422954 
L 416.92158 58.422954 
L 416.92158 61.994881 
L 417.005402 53.065063 
L 417.047313 53.065063 
L 417.047313 49.569135 
L 417.131134 51.73509 
L 417.173045 51.73509 
L 417.173045 53.483055 
L 417.256866 45.845211 
L 417.298777 45.845211 
L 417.382599 41.095308 
L 417.42451 41.095308 
L 417.42451 41.589298 
L 417.508331 37.941372 
L 417.550242 37.941372 
L 417.634064 42.881271 
L 417.675974 42.881271 
L 417.759796 34.749437 
L 417.801707 34.749437 
L 417.801707 38.929352 
L 417.843617 31.253509 
L 417.885528 35.12943 
L 417.927439 35.12943 
L 418.011261 30.151531 
L 418.053171 30.151531 
L 418.053171 36.383404 
L 418.136993 35.015432 
L 418.178904 35.015432 
L 418.178904 24.83164 
L 418.262725 33.229468 
L 418.304636 33.229468 
L 418.388458 28.517565 
L 418.430368 28.517565 
L 418.430368 30.569523 
L 418.472279 28.289569 
L 418.51419 30.493524 
L 418.556101 30.493524 
L 418.556101 35.09143 
L 418.639922 26.161613 
L 418.681833 26.161613 
L 418.681833 28.365568 
L 418.765655 27.909577 
L 418.807565 27.909577 
L 418.807565 27.415587 
L 418.849476 32.16549 
L 418.891387 31.709499 
L 418.933298 31.709499 
L 418.975209 32.127491 
L 419.017119 26.465607 
L 419.05903 26.465607 
L 419.05903 32.469484 
L 419.142852 31.139511 
L 419.184762 31.139511 
L 419.226673 23.729662 
L 419.268584 25.211632 
L 419.310495 25.211632 
L 419.310495 23.121675 
L 419.394316 29.771539 
L 419.436227 29.771539 
L 419.436227 25.81962 
L 419.478138 29.809538 
L 419.520049 28.137572 
L 419.56196 28.137572 
L 419.56196 33.077471 
L 419.645781 24.375649 
L 419.687692 24.375649 
L 419.729603 26.389608 
L 419.771513 24.261652 
L 419.813424 24.261652 
L 419.813424 28.517565 
L 419.855335 20.689724 
L 419.897246 25.781621 
L 419.939157 25.781621 
L 419.939157 31.595502 
L 419.981067 25.363629 
L 420.022978 27.985575 
L 420.064889 27.985575 
L 420.14871 22.85568 
L 420.190621 22.85568 
L 420.232532 19.739744 
L 420.274443 28.023575 
L 420.316354 28.023575 
L 420.358264 26.389608 
L 420.400175 29.201551 
L 420.442086 29.201551 
L 420.442086 22.665684 
L 420.525907 25.059635 
L 420.567818 25.059635 
L 420.609729 24.793641 
L 420.65164 31.329507 
L 420.693551 31.329507 
L 420.777372 25.591624 
L 420.819283 25.591624 
L 420.819283 26.655603 
L 420.903105 25.401628 
L 420.945015 25.401628 
L 420.986926 26.8076 
L 421.028837 21.373711 
L 421.070748 21.373711 
L 421.070748 25.857619 
L 421.154569 25.81962 
L 421.19648 25.81962 
L 421.19648 29.885537 
L 421.238391 22.475688 
L 421.280302 24.603645 
L 421.322212 24.603645 
L 421.322212 27.681582 
L 421.406034 24.679643 
L 421.447945 24.679643 
L 421.447945 24.147654 
L 421.531766 27.529585 
L 421.573677 27.529585 
L 421.615588 22.209693 
L 421.657499 30.72152 
L 421.699409 30.72152 
L 421.74132 18.561768 
L 421.783231 24.907638 
L 421.825142 24.907638 
L 421.908963 31.481504 
L 421.950874 31.481504 
L 422.034696 22.475688 
L 422.076606 22.475688 
L 422.160428 28.783559 
L 422.202339 28.783559 
L 422.202339 31.861496 
L 422.28616 23.805661 
L 422.328071 23.805661 
L 422.328071 28.74556 
L 422.411893 28.365568 
L 422.453803 28.365568 
L 422.453803 23.425669 
L 422.537625 23.577666 
L 422.579536 23.577666 
L 422.663357 31.747499 
L 422.705268 31.747499 
L 422.78909 43.261264 
L 422.831001 43.261264 
L 422.914822 75.104613 
L 422.956733 75.104613 
L 423.040554 97.714151 
L 423.082465 97.714151 
L 423.166287 124.465605 
L 423.208198 124.465605 
L 423.292019 142.021246 
L 423.33393 142.021246 
L 423.417751 157.866923 
L 423.459662 157.866923 
L 423.501573 172.116632 
L 423.543484 170.976655 
L 423.585395 170.976655 
L 423.627305 181.50244 
L 423.669216 180.742456 
L 423.711127 180.742456 
L 423.794948 190.280261 
L 423.836859 190.280261 
L 423.920681 201.642029 
L 423.962592 201.642029 
L 424.046413 207.645906 
L 424.088324 207.645906 
L 424.172146 213.155794 
L 424.214056 213.155794 
L 424.255967 217.335708 
L 424.297878 217.183711 
L 424.339789 217.183711 
L 424.381699 222.6556 
L 424.42361 222.351606 
L 424.465521 222.351606 
L 424.549343 225.657538 
L 424.591253 225.657538 
L 424.675075 228.773475 
L 424.716986 228.773475 
L 424.800807 230.635437 
L 424.842718 230.635437 
L 424.884629 234.435359 
L 424.92654 233.067387 
L 424.96845 233.067387 
L 425.010361 236.411319 
L 425.052272 235.423339 
L 425.094183 235.423339 
L 425.178004 238.463277 
L 425.219915 238.463277 
L 425.219915 237.437298 
L 425.261826 238.843269 
L 425.303737 238.387278 
L 425.345647 238.387278 
L 425.429469 239.641253 
L 425.47138 239.641253 
L 425.513291 240.363238 
L 425.555201 239.79325 
L 425.597112 239.79325 
L 425.680934 241.579213 
L 425.764755 241.541214 
L 425.764755 241.085223 
L 425.848577 241.921206 
L 425.890488 241.921206 
L 425.932398 243.023184 
L 425.974309 242.681191 
L 426.01622 242.681191 
L 426.058131 242.377197 
L 426.100042 243.251179 
L 426.141952 243.251179 
L 426.225774 243.593172 
L 426.267685 243.593172 
L 426.351506 244.239159 
L 426.519149 244.239159 
L 426.519149 244.429155 
L 426.602971 244.353157 
L 426.644882 244.353157 
L 426.686792 244.049163 
L 426.728703 244.885146 
L 426.770614 244.885146 
L 426.770614 244.619151 
L 426.854436 244.69515 
L 426.938257 244.619151 
L 426.980168 245.037143 
L 427.022079 244.923145 
L 427.063989 244.923145 
L 427.1059 244.69515 
L 427.147811 245.303137 
L 427.189722 245.303137 
L 427.189722 244.923145 
L 427.273543 245.417135 
L 427.315454 245.417135 
L 427.315454 244.961144 
L 427.399276 245.417135 
L 427.441187 245.417135 
L 427.441187 245.721129 
L 427.525008 245.493133 
L 427.566919 245.493133 
L 427.566919 245.227139 
L 427.60883 245.607131 
L 427.65074 245.455134 
L 427.734562 245.531132 
L 427.776473 245.303137 
L 427.818384 245.531132 
L 427.944116 245.493133 
L 428.027937 245.797127 
L 428.069848 245.797127 
L 428.069848 245.797127 
" clip-path="url(#p0c2d3de118)" style="fill: none; stroke: #2ca02c; stroke-width: 1.5; stroke-linecap: square"/>
   </g>
   <g id="patch_3">
    <path d="M 53.328125 257.158895 
L 53.328125 7.2 
" style="fill: none; stroke: #000000; stroke-width: 0.8; stroke-linejoin: miter; stroke-linecap: square"/>
   </g>
   <g id="patch_4">
    <path d="M 428.69851 257.158895 
L 428.69851 7.2 
" style="fill: none; stroke: #000000; stroke-width: 0.8; stroke-linejoin: miter; stroke-linecap: square"/>
   </g>
   <g id="patch_5">
    <path d="M 53.328125 257.158895 
L 428.69851 257.158895 
" style="fill: none; stroke: #000000; stroke-width: 0.8; stroke-linejoin: miter; stroke-linecap: square"/>
   </g>
   <g id="patch_6">
    <path d="M 53.328125 7.2 
L 428.69851 7.2 
" style="fill: none; stroke: #000000; stroke-width: 0.8; stroke-linejoin: miter; stroke-linecap: square"/>
   </g>
   <g id="legend_1">
    <g id="patch_7">
     <path d="M 353.140697 252.158895 
L 421.69851 252.158895 
Q 423.69851 252.158895 423.69851 250.158895 
L 423.69851 207.12452 
Q 423.69851 205.12452 421.69851 205.12452 
L 353.140697 205.12452 
Q 351.140697 205.12452 351.140697 207.12452 
L 351.140697 250.158895 
Q 351.140697 252.158895 353.140697 252.158895 
z
" style="fill: #ffffff; opacity: 0.8; stroke: #cccccc; stroke-linejoin: miter"/>
    </g>
    <g id="line2d_19">
     <path d="M 355.140697 213.222957 
L 355.140697 213.222957 
L 365.140697 213.222957 
L 365.140697 213.222957 
L 375.140697 213.222957 
" style="fill: none; stroke: #1f77b4; stroke-width: 1.5; stroke-linecap: square"/>
    </g>
    <g id="text_18">
     <!-- pulse:0 -->
     <g transform="translate(383.140697 216.722957) scale(0.1 -0.1)">
      <defs>
       <path id="DejaVuSans-70" d="M 1159 525 
L 1159 -1331 
L 581 -1331 
L 581 3500 
L 1159 3500 
L 1159 2969 
Q 1341 3281 1617 3432 
Q 1894 3584 2278 3584 
Q 2916 3584 3314 3078 
Q 3713 2572 3713 1747 
Q 3713 922 3314 415 
Q 2916 -91 2278 -91 
Q 1894 -91 1617 61 
Q 1341 213 1159 525 
z
M 3116 1747 
Q 3116 2381 2855 2742 
Q 2594 3103 2138 3103 
Q 1681 3103 1420 2742 
Q 1159 2381 1159 1747 
Q 1159 1113 1420 752 
Q 1681 391 2138 391 
Q 2594 391 2855 752 
Q 3116 1113 3116 1747 
z
" transform="scale(0.015625)"/>
       <path id="DejaVuSans-6c" d="M 603 4863 
L 1178 4863 
L 1178 0 
L 603 0 
L 603 4863 
z
" transform="scale(0.015625)"/>
       <path id="DejaVuSans-3a" d="M 750 794 
L 1409 794 
L 1409 0 
L 750 0 
L 750 794 
z
M 750 3309 
L 1409 3309 
L 1409 2516 
L 750 2516 
L 750 3309 
z
" transform="scale(0.015625)"/>
      </defs>
      <use xlink:href="#DejaVuSans-70"/>
      <use xlink:href="#DejaVuSans-75" transform="translate(63.476562 0)"/>
      <use xlink:href="#DejaVuSans-6c" transform="translate(126.855469 0)"/>
      <use xlink:href="#DejaVuSans-73" transform="translate(154.638672 0)"/>
      <use xlink:href="#DejaVuSans-65" transform="translate(206.738281 0)"/>
      <use xlink:href="#DejaVuSans-3a" transform="translate(268.261719 0)"/>
      <use xlink:href="#DejaVuSans-30" transform="translate(301.953125 0)"/>
     </g>
    </g>
    <g id="line2d_20">
     <path d="M 355.140697 227.901082 
L 355.140697 227.901082 
L 365.140697 227.901082 
L 365.140697 227.901082 
L 375.140697 227.901082 
" style="fill: none; stroke: #ff7f0e; stroke-width: 1.5; stroke-linecap: square"/>
    </g>
    <g id="text_19">
     <!-- pulse:1 -->
     <g transform="translate(383.140697 231.401082) scale(0.1 -0.1)">
      <use xlink:href="#DejaVuSans-70"/>
      <use xlink:href="#DejaVuSans-75" transform="translate(63.476562 0)"/>
      <use xlink:href="#DejaVuSans-6c" transform="translate(126.855469 0)"/>
      <use xlink:href="#DejaVuSans-73" transform="translate(154.638672 0)"/>
      <use xlink:href="#DejaVuSans-65" transform="translate(206.738281 0)"/>
      <use xlink:href="#DejaVuSans-3a" transform="translate(268.261719 0)"/>
      <use xlink:href="#DejaVuSans-31" transform="translate(301.953125 0)"/>
     </g>
    </g>
    <g id="line2d_21">
     <path d="M 355.140697 242.579207 
L 355.140697 242.579207 
L 365.140697 242.579207 
L 365.140697 242.579207 
L 375.140697 242.579207 
" style="fill: none; stroke: #2ca02c; stroke-width: 1.5; stroke-linecap: square"/>
    </g>
    <g id="text_20">
     <!-- pulse:2 -->
     <g transform="translate(383.140697 246.079207) scale(0.1 -0.1)">
      <use xlink:href="#DejaVuSans-70"/>
      <use xlink:href="#DejaVuSans-75" transform="translate(63.476562 0)"/>
      <use xlink:href="#DejaVuSans-6c" transform="translate(126.855469 0)"/>
      <use xlink:href="#DejaVuSans-73" transform="translate(154.638672 0)"/>
      <use xlink:href="#DejaVuSans-65" transform="translate(206.738281 0)"/>
      <use xlink:href="#DejaVuSans-3a" transform="translate(268.261719 0)"/>
      <use xlink:href="#DejaVuSans-32" transform="translate(301.953125 0)"/>
     </g>
    </g>
   </g>
  </g>
  <g id="axes_2">
   <g id="patch_8">
    <path d="M 489.829135 257.158895 
L 865.19952 257.158895 
L 865.19952 7.2 
L 489.829135 7.2 
z
" style="fill: #ffffff"/>
   </g>
   <g id="matplotlib.axis_3">
    <g id="xtick_9">
     <g id="line2d_22">
      <g>
       <use xlink:href="#m284669defb" x="503.452919" y="257.158895" style="stroke: #000000; stroke-width: 0.8"/>
      </g>
     </g>
     <g id="text_21">
      <!-- 0.0 -->
      <g transform="translate(495.501357 271.757332) scale(0.1 -0.1)">
       <defs>
        <path id="DejaVuSans-2e" d="M 684 794 
L 1344 794 
L 1344 0 
L 684 0 
L 684 794 
z
" transform="scale(0.015625)"/>
       </defs>
       <use xlink:href="#DejaVuSans-30"/>
       <use xlink:href="#DejaVuSans-2e" transform="translate(63.623047 0)"/>
       <use xlink:href="#DejaVuSans-30" transform="translate(95.410156 0)"/>
      </g>
     </g>
    </g>
    <g id="xtick_10">
     <g id="line2d_23">
      <g>
       <use xlink:href="#m284669defb" x="546.752162" y="257.158895" style="stroke: #000000; stroke-width: 0.8"/>
      </g>
     </g>
     <g id="text_22">
      <!-- 2.5 -->
      <g transform="translate(538.8006 271.757332) scale(0.1 -0.1)">
       <use xlink:href="#DejaVuSans-32"/>
       <use xlink:href="#DejaVuSans-2e" transform="translate(63.623047 0)"/>
       <use xlink:href="#DejaVuSans-35" transform="translate(95.410156 0)"/>
      </g>
     </g>
    </g>
    <g id="xtick_11">
     <g id="line2d_24">
      <g>
       <use xlink:href="#m284669defb" x="590.051405" y="257.158895" style="stroke: #000000; stroke-width: 0.8"/>
      </g>
     </g>
     <g id="text_23">
      <!-- 5.0 -->
      <g transform="translate(582.099843 271.757332) scale(0.1 -0.1)">
       <use xlink:href="#DejaVuSans-35"/>
       <use xlink:href="#DejaVuSans-2e" transform="translate(63.623047 0)"/>
       <use xlink:href="#DejaVuSans-30" transform="translate(95.410156 0)"/>
      </g>
     </g>
    </g>
    <g id="xtick_12">
     <g id="line2d_25">
      <g>
       <use xlink:href="#m284669defb" x="633.350648" y="257.158895" style="stroke: #000000; stroke-width: 0.8"/>
      </g>
     </g>
     <g id="text_24">
      <!-- 7.5 -->
      <g transform="translate(625.399086 271.757332) scale(0.1 -0.1)">
       <defs>
        <path id="DejaVuSans-37" d="M 525 4666 
L 3525 4666 
L 3525 4397 
L 1831 0 
L 1172 0 
L 2766 4134 
L 525 4134 
L 525 4666 
z
" transform="scale(0.015625)"/>
       </defs>
       <use xlink:href="#DejaVuSans-37"/>
       <use xlink:href="#DejaVuSans-2e" transform="translate(63.623047 0)"/>
       <use xlink:href="#DejaVuSans-35" transform="translate(95.410156 0)"/>
      </g>
     </g>
    </g>
    <g id="xtick_13">
     <g id="line2d_26">
      <g>
       <use xlink:href="#m284669defb" x="676.649891" y="257.158895" style="stroke: #000000; stroke-width: 0.8"/>
      </g>
     </g>
     <g id="text_25">
      <!-- 10.0 -->
      <g transform="translate(665.517079 271.757332) scale(0.1 -0.1)">
       <use xlink:href="#DejaVuSans-31"/>
       <use xlink:href="#DejaVuSans-30" transform="translate(63.623047 0)"/>
       <use xlink:href="#DejaVuSans-2e" transform="translate(127.246094 0)"/>
       <use xlink:href="#DejaVuSans-30" transform="translate(159.033203 0)"/>
      </g>
     </g>
    </g>
    <g id="xtick_14">
     <g id="line2d_27">
      <g>
       <use xlink:href="#m284669defb" x="719.949135" y="257.158895" style="stroke: #000000; stroke-width: 0.8"/>
      </g>
     </g>
     <g id="text_26">
      <!-- 12.5 -->
      <g transform="translate(708.816322 271.757332) scale(0.1 -0.1)">
       <use xlink:href="#DejaVuSans-31"/>
       <use xlink:href="#DejaVuSans-32" transform="translate(63.623047 0)"/>
       <use xlink:href="#DejaVuSans-2e" transform="translate(127.246094 0)"/>
       <use xlink:href="#DejaVuSans-35" transform="translate(159.033203 0)"/>
      </g>
     </g>
    </g>
    <g id="xtick_15">
     <g id="line2d_28">
      <g>
       <use xlink:href="#m284669defb" x="763.248378" y="257.158895" style="stroke: #000000; stroke-width: 0.8"/>
      </g>
     </g>
     <g id="text_27">
      <!-- 15.0 -->
      <g transform="translate(752.115565 271.757332) scale(0.1 -0.1)">
       <use xlink:href="#DejaVuSans-31"/>
       <use xlink:href="#DejaVuSans-35" transform="translate(63.623047 0)"/>
       <use xlink:href="#DejaVuSans-2e" transform="translate(127.246094 0)"/>
       <use xlink:href="#DejaVuSans-30" transform="translate(159.033203 0)"/>
      </g>
     </g>
    </g>
    <g id="xtick_16">
     <g id="line2d_29">
      <g>
       <use xlink:href="#m284669defb" x="806.547621" y="257.158895" style="stroke: #000000; stroke-width: 0.8"/>
      </g>
     </g>
     <g id="text_28">
      <!-- 17.5 -->
      <g transform="translate(795.414808 271.757332) scale(0.1 -0.1)">
       <use xlink:href="#DejaVuSans-31"/>
       <use xlink:href="#DejaVuSans-37" transform="translate(63.623047 0)"/>
       <use xlink:href="#DejaVuSans-2e" transform="translate(127.246094 0)"/>
       <use xlink:href="#DejaVuSans-35" transform="translate(159.033203 0)"/>
      </g>
     </g>
    </g>
    <g id="xtick_17">
     <g id="line2d_30">
      <g>
       <use xlink:href="#m284669defb" x="849.846864" y="257.158895" style="stroke: #000000; stroke-width: 0.8"/>
      </g>
     </g>
     <g id="text_29">
      <!-- 20.0 -->
      <g transform="translate(838.714051 271.757332) scale(0.1 -0.1)">
       <use xlink:href="#DejaVuSans-32"/>
       <use xlink:href="#DejaVuSans-30" transform="translate(63.623047 0)"/>
       <use xlink:href="#DejaVuSans-2e" transform="translate(127.246094 0)"/>
       <use xlink:href="#DejaVuSans-30" transform="translate(159.033203 0)"/>
      </g>
     </g>
    </g>
    <g id="text_30">
     <!-- wavelength [Å] -->
     <g transform="translate(639.476827 287.119832) scale(0.1 -0.1)">
      <defs>
       <path id="DejaVuSans-77" d="M 269 3500 
L 844 3500 
L 1563 769 
L 2278 3500 
L 2956 3500 
L 3675 769 
L 4391 3500 
L 4966 3500 
L 4050 0 
L 3372 0 
L 2619 2869 
L 1863 0 
L 1184 0 
L 269 3500 
z
" transform="scale(0.015625)"/>
       <path id="DejaVuSans-61" d="M 2194 1759 
Q 1497 1759 1228 1600 
Q 959 1441 959 1056 
Q 959 750 1161 570 
Q 1363 391 1709 391 
Q 2188 391 2477 730 
Q 2766 1069 2766 1631 
L 2766 1759 
L 2194 1759 
z
M 3341 1997 
L 3341 0 
L 2766 0 
L 2766 531 
Q 2569 213 2275 61 
Q 1981 -91 1556 -91 
Q 1019 -91 701 211 
Q 384 513 384 1019 
Q 384 1609 779 1909 
Q 1175 2209 1959 2209 
L 2766 2209 
L 2766 2266 
Q 2766 2663 2505 2880 
Q 2244 3097 1772 3097 
Q 1472 3097 1187 3025 
Q 903 2953 641 2809 
L 641 3341 
Q 956 3463 1253 3523 
Q 1550 3584 1831 3584 
Q 2591 3584 2966 3190 
Q 3341 2797 3341 1997 
z
" transform="scale(0.015625)"/>
       <path id="DejaVuSans-76" d="M 191 3500 
L 800 3500 
L 1894 563 
L 2988 3500 
L 3597 3500 
L 2284 0 
L 1503 0 
L 191 3500 
z
" transform="scale(0.015625)"/>
       <path id="DejaVuSans-67" d="M 2906 1791 
Q 2906 2416 2648 2759 
Q 2391 3103 1925 3103 
Q 1463 3103 1205 2759 
Q 947 2416 947 1791 
Q 947 1169 1205 825 
Q 1463 481 1925 481 
Q 2391 481 2648 825 
Q 2906 1169 2906 1791 
z
M 3481 434 
Q 3481 -459 3084 -895 
Q 2688 -1331 1869 -1331 
Q 1566 -1331 1297 -1286 
Q 1028 -1241 775 -1147 
L 775 -588 
Q 1028 -725 1275 -790 
Q 1522 -856 1778 -856 
Q 2344 -856 2625 -561 
Q 2906 -266 2906 331 
L 2906 616 
Q 2728 306 2450 153 
Q 2172 0 1784 0 
Q 1141 0 747 490 
Q 353 981 353 1791 
Q 353 2603 747 3093 
Q 1141 3584 1784 3584 
Q 2172 3584 2450 3431 
Q 2728 3278 2906 2969 
L 2906 3500 
L 3481 3500 
L 3481 434 
z
" transform="scale(0.015625)"/>
       <path id="DejaVuSans-c5" d="M 2663 5081 
Q 2663 5278 2523 5417 
Q 2384 5556 2188 5556 
Q 1988 5556 1852 5420 
Q 1716 5284 1716 5081 
Q 1716 4884 1853 4746 
Q 1991 4609 2188 4609 
Q 2384 4609 2523 4746 
Q 2663 4884 2663 5081 
z
M 2188 4044 
L 1338 1722 
L 3041 1722 
L 2188 4044 
z
M 1716 4366 
Q 1525 4494 1428 4673 
Q 1331 4853 1331 5081 
Q 1331 5441 1579 5691 
Q 1828 5941 2188 5941 
Q 2544 5941 2795 5689 
Q 3047 5438 3047 5081 
Q 3047 4863 2948 4678 
Q 2850 4494 2663 4366 
L 4325 0 
L 3669 0 
L 3244 1197 
L 1141 1197 
L 716 0 
L 50 0 
L 1716 4366 
z
" transform="scale(0.015625)"/>
      </defs>
      <use xlink:href="#DejaVuSans-77"/>
      <use xlink:href="#DejaVuSans-61" transform="translate(81.787109 0)"/>
      <use xlink:href="#DejaVuSans-76" transform="translate(143.066406 0)"/>
      <use xlink:href="#DejaVuSans-65" transform="translate(202.246094 0)"/>
      <use xlink:href="#DejaVuSans-6c" transform="translate(263.769531 0)"/>
      <use xlink:href="#DejaVuSans-65" transform="translate(291.552734 0)"/>
      <use xlink:href="#DejaVuSans-6e" transform="translate(353.076172 0)"/>
      <use xlink:href="#DejaVuSans-67" transform="translate(416.455078 0)"/>
      <use xlink:href="#DejaVuSans-74" transform="translate(479.931641 0)"/>
      <use xlink:href="#DejaVuSans-68" transform="translate(519.140625 0)"/>
      <use xlink:href="#DejaVuSans-20" transform="translate(582.519531 0)"/>
      <use xlink:href="#DejaVuSans-5b" transform="translate(614.306641 0)"/>
      <use xlink:href="#DejaVuSans-c5" transform="translate(653.320312 0)"/>
      <use xlink:href="#DejaVuSans-5d" transform="translate(721.728516 0)"/>
     </g>
    </g>
   </g>
   <g id="matplotlib.axis_4">
    <g id="ytick_8">
     <g id="line2d_31">
      <g>
       <use xlink:href="#m1a2d556e94" x="489.829135" y="245.828526" style="stroke: #000000; stroke-width: 0.8"/>
      </g>
     </g>
     <g id="text_31">
      <!-- 0 -->
      <g transform="translate(476.466635 249.627745) scale(0.1 -0.1)">
       <use xlink:href="#DejaVuSans-30"/>
      </g>
     </g>
    </g>
    <g id="ytick_9">
     <g id="line2d_32">
      <g>
       <use xlink:href="#m1a2d556e94" x="489.829135" y="193.496676" style="stroke: #000000; stroke-width: 0.8"/>
      </g>
     </g>
     <g id="text_32">
      <!-- 5000 -->
      <g transform="translate(457.379135 197.295895) scale(0.1 -0.1)">
       <use xlink:href="#DejaVuSans-35"/>
       <use xlink:href="#DejaVuSans-30" transform="translate(63.623047 0)"/>
       <use xlink:href="#DejaVuSans-30" transform="translate(127.246094 0)"/>
       <use xlink:href="#DejaVuSans-30" transform="translate(190.869141 0)"/>
      </g>
     </g>
    </g>
    <g id="ytick_10">
     <g id="line2d_33">
      <g>
       <use xlink:href="#m1a2d556e94" x="489.829135" y="141.164826" style="stroke: #000000; stroke-width: 0.8"/>
      </g>
     </g>
     <g id="text_33">
      <!-- 10000 -->
      <g transform="translate(451.016635 144.964045) scale(0.1 -0.1)">
       <use xlink:href="#DejaVuSans-31"/>
       <use xlink:href="#DejaVuSans-30" transform="translate(63.623047 0)"/>
       <use xlink:href="#DejaVuSans-30" transform="translate(127.246094 0)"/>
       <use xlink:href="#DejaVuSans-30" transform="translate(190.869141 0)"/>
       <use xlink:href="#DejaVuSans-30" transform="translate(254.492188 0)"/>
      </g>
     </g>
    </g>
    <g id="ytick_11">
     <g id="line2d_34">
      <g>
       <use xlink:href="#m1a2d556e94" x="489.829135" y="88.832976" style="stroke: #000000; stroke-width: 0.8"/>
      </g>
     </g>
     <g id="text_34">
      <!-- 15000 -->
      <g transform="translate(451.016635 92.632195) scale(0.1 -0.1)">
       <use xlink:href="#DejaVuSans-31"/>
       <use xlink:href="#DejaVuSans-35" transform="translate(63.623047 0)"/>
       <use xlink:href="#DejaVuSans-30" transform="translate(127.246094 0)"/>
       <use xlink:href="#DejaVuSans-30" transform="translate(190.869141 0)"/>
       <use xlink:href="#DejaVuSans-30" transform="translate(254.492188 0)"/>
      </g>
     </g>
    </g>
    <g id="ytick_12">
     <g id="line2d_35">
      <g>
       <use xlink:href="#m1a2d556e94" x="489.829135" y="36.501126" style="stroke: #000000; stroke-width: 0.8"/>
      </g>
     </g>
     <g id="text_35">
      <!-- 20000 -->
      <g transform="translate(451.016635 40.300345) scale(0.1 -0.1)">
       <use xlink:href="#DejaVuSans-32"/>
       <use xlink:href="#DejaVuSans-30" transform="translate(63.623047 0)"/>
       <use xlink:href="#DejaVuSans-30" transform="translate(127.246094 0)"/>
       <use xlink:href="#DejaVuSans-30" transform="translate(190.869141 0)"/>
       <use xlink:href="#DejaVuSans-30" transform="translate(254.492188 0)"/>
      </g>
     </g>
    </g>
    <g id="text_36">
     <!-- [counts] -->
     <g transform="translate(444.936947 152.791947) rotate(-90) scale(0.1 -0.1)">
      <use xlink:href="#DejaVuSans-5b"/>
      <use xlink:href="#DejaVuSans-63" transform="translate(39.013672 0)"/>
      <use xlink:href="#DejaVuSans-6f" transform="translate(93.994141 0)"/>
      <use xlink:href="#DejaVuSans-75" transform="translate(155.175781 0)"/>
      <use xlink:href="#DejaVuSans-6e" transform="translate(218.554688 0)"/>
      <use xlink:href="#DejaVuSans-74" transform="translate(281.933594 0)"/>
      <use xlink:href="#DejaVuSans-73" transform="translate(321.142578 0)"/>
      <use xlink:href="#DejaVuSans-5d" transform="translate(373.242188 0)"/>
     </g>
    </g>
   </g>
   <g id="line2d_36">
    <path d="M 506.891425 155.880542 
L 508.028911 155.880542 
L 508.028911 145.225778 
L 509.166397 145.225778 
L 509.166397 139.62627 
L 510.303883 139.62627 
L 510.303883 139.866996 
L 511.441369 139.866996 
L 511.441369 146.565473 
L 512.578855 146.565473 
L 512.578855 154.007062 
L 513.716341 154.007062 
L 513.716341 147.559778 
L 514.853827 147.559778 
L 514.853827 128.573783 
L 515.991313 128.573783 
L 515.991313 107.609644 
L 517.128799 107.609644 
L 517.128799 83.987047 
L 518.266285 83.987047 
L 518.266285 62.708917 
L 519.403771 62.708917 
L 519.403771 39.986427 
L 520.541257 39.986427 
L 520.541257 26.390613 
L 521.678743 26.390613 
L 521.678743 21.942405 
L 522.816229 21.942405 
L 522.816229 18.561768 
L 523.953715 18.561768 
L 523.953715 22.413392 
L 525.091201 22.413392 
L 525.091201 31.29934 
L 526.228687 31.29934 
L 526.228687 43.000742 
L 527.366173 43.000742 
L 527.366173 49.322429 
L 528.50366 49.322429 
L 528.50366 63.378764 
L 529.641146 63.378764 
L 529.641146 71.542533 
L 530.778632 71.542533 
L 530.778632 80.281952 
L 531.916118 80.281952 
L 531.916118 84.625495 
L 533.053604 84.625495 
L 533.053604 91.313506 
L 534.19109 91.313506 
L 534.19109 96.965346 
L 535.328576 96.965346 
L 535.328576 97.227005 
L 537.603548 97.310736 
L 537.603548 95.531453 
L 538.741034 95.531453 
L 538.741034 91.313506 
L 539.87852 91.313506 
L 539.87852 87.043227 
L 541.016006 87.043227 
L 541.016006 79.434176 
L 542.153492 79.434176 
L 542.153492 72.212381 
L 543.290978 72.212381 
L 543.290978 62.677518 
L 544.428464 62.677518 
L 544.428464 52.943793 
L 545.56595 52.943793 
L 545.56595 44.068312 
L 546.703436 44.068312 
L 546.703436 34.041529 
L 547.840922 34.041529 
L 547.840922 35.496355 
L 548.978408 35.496355 
L 548.978408 43.429863 
L 550.115894 43.429863 
L 550.115894 53.247318 
L 551.25338 53.247318 
L 551.25338 62.039069 
L 552.390866 62.039069 
L 552.390866 70.412165 
L 553.528352 70.412165 
L 553.528352 81.904239 
L 554.665838 81.904239 
L 554.665838 89.429559 
L 555.803324 89.429559 
L 555.803324 99.236548 
L 556.94081 99.236548 
L 556.94081 104.553464 
L 558.078296 104.553464 
L 558.078296 112.518371 
L 559.215782 112.518371 
L 559.215782 119.007521 
L 560.353268 119.007521 
L 560.353268 124.931486 
L 561.490754 124.931486 
L 561.490754 131.734627 
L 562.62824 131.734627 
L 562.62824 138.077247 
L 563.765726 138.077247 
L 563.765726 141.552082 
L 564.903212 141.552082 
L 564.903212 147.350451 
L 566.040698 147.350451 
L 566.040698 153.012757 
L 567.178184 153.012757 
L 567.178184 157.680758 
L 568.31567 157.680758 
L 568.31567 163.248867 
L 569.453156 163.248867 
L 569.453156 165.802661 
L 570.590642 165.802661 
L 570.590642 171.130043 
L 571.728128 171.130043 
L 571.728128 172.825595 
L 572.865614 172.825595 
L 572.865614 177.409865 
L 574.0031 177.409865 
L 574.0031 180.863768 
L 575.140586 180.863768 
L 575.140586 184.097876 
L 576.278072 184.097876 
L 576.278072 186.19115 
L 577.415558 186.19115 
L 577.415558 189.634586 
L 578.553044 189.634586 
L 578.553044 191.434801 
L 579.69053 191.434801 
L 579.69053 193.130353 
L 580.828016 193.130353 
L 580.828016 197.95535 
L 581.965502 197.95535 
L 581.965502 198.353072 
L 583.102988 198.353072 
L 583.102988 199.588103 
L 584.240474 199.588103 
L 584.240474 202.581485 
L 585.37796 202.581485 
L 585.37796 203.858382 
L 586.515446 203.858382 
L 586.515446 206.28658 
L 587.652932 206.28658 
L 587.652932 208.526383 
L 588.790418 208.526383 
L 588.790418 209.217164 
L 589.927904 209.217164 
L 589.927904 210.996447 
L 591.06539 210.996447 
L 591.06539 211.93842 
L 592.202876 211.93842 
L 592.202876 214.586412 
L 593.340362 214.586412 
L 593.340362 215.277192 
L 594.477848 215.277192 
L 594.477848 217.830986 
L 595.615334 217.830986 
L 595.615334 218.626431 
L 596.75282 218.626431 
L 596.75282 218.846224 
L 597.890306 218.846224 
L 597.890306 220.238252 
L 599.027792 220.238252 
L 599.027792 221.891938 
L 600.165278 221.891938 
L 600.165278 222.676916 
L 601.302764 222.676916 
L 601.302764 223.58749 
L 602.44025 223.58749 
L 602.44025 224.121275 
L 603.577737 224.121275 
L 603.577737 225.565634 
L 604.715223 225.565634 
L 604.715223 225.785428 
L 605.852709 225.785428 
L 605.852709 226.29828 
L 606.990195 226.29828 
L 606.990195 228.088029 
L 608.127681 228.088029 
L 608.127681 227.805437 
L 609.265167 227.805437 
L 609.265167 228.810209 
L 610.402653 228.810209 
L 610.402653 230.254568 
L 611.540139 230.254568 
L 611.540139 231.11281 
L 612.677625 231.11281 
L 612.677625 231.22794 
L 614.952597 231.133743 
L 614.952597 231.68846 
L 616.090083 231.68846 
L 616.090083 232.933958 
L 617.227569 232.933958 
L 617.227569 232.724631 
L 618.365055 232.724631 
L 618.365055 233.792201 
L 619.502541 233.792201 
L 619.502541 233.237483 
L 620.640027 233.237483 
L 620.640027 234.325986 
L 621.777513 234.325986 
L 621.777513 234.650443 
L 624.052485 234.608578 
L 624.052485 235.92734 
L 625.189971 235.92734 
L 625.189971 235.780811 
L 626.327457 235.780811 
L 626.327457 236.461125 
L 627.464943 236.461125 
L 627.464943 236.304129 
L 628.602429 236.304129 
L 628.602429 236.890246 
L 629.739915 236.890246 
L 629.739915 237.507762 
L 630.877401 237.507762 
L 630.877401 237.350766 
L 633.152373 237.444964 
L 633.152373 237.895018 
L 634.289859 237.895018 
L 634.289859 237.738022 
L 635.427345 237.738022 
L 635.427345 238.324139 
L 637.702317 238.418336 
L 637.702317 238.952121 
L 638.839803 238.952121 
L 638.839803 239.224247 
L 639.977289 239.224247 
L 639.977289 239.349843 
L 641.114775 239.349843 
L 641.114775 239.632435 
L 642.252261 239.632435 
L 642.252261 239.862695 
L 643.389747 239.862695 
L 643.389747 240.386014 
L 644.527233 240.386014 
L 644.527233 239.810363 
L 645.664719 239.810363 
L 645.664719 240.616274 
L 646.802205 240.616274 
L 646.802205 240.8884 
L 649.077177 240.794202 
L 649.077177 241.024462 
L 651.352149 241.066328 
L 651.352149 240.877933 
L 652.489635 240.877933 
L 652.489635 241.411718 
L 653.627121 241.411718 
L 653.627121 241.286122 
L 654.764607 241.286122 
L 654.764607 241.673377 
L 655.902093 241.673377 
L 655.902093 241.547781 
L 657.039579 241.547781 
L 657.039579 241.914104 
L 658.177065 241.914104 
L 658.177065 242.186229 
L 660.452037 242.249028 
L 660.452037 242.301359 
L 661.589523 242.301359 
L 661.589523 242.133898 
L 662.727009 242.133898 
L 662.727009 242.542086 
L 665.001981 242.563019 
L 665.001981 242.259494 
L 666.139467 242.259494 
L 666.139467 242.908409 
L 667.276953 242.908409 
L 667.276953 242.615351 
L 668.414439 242.615351 
L 668.414439 242.489754 
L 670.689411 242.542086 
L 670.689411 242.793279 
L 672.964383 242.835144 
L 672.964383 243.138669 
L 674.101869 243.138669 
L 674.101869 243.013073 
L 675.239355 243.013073 
L 675.239355 243.191001 
L 676.376841 243.191001 
L 676.376841 243.358463 
L 677.514327 243.358463 
L 677.514327 243.2224 
L 678.651814 243.2224 
L 678.651814 243.410795 
L 680.926786 243.431727 
L 680.926786 243.588723 
L 682.064272 243.588723 
L 682.064272 243.829449 
L 683.201758 243.829449 
L 683.201758 243.536391 
L 684.339244 243.536391 
L 684.339244 243.777118 
L 686.614216 243.850382 
L 686.614216 243.965512 
L 687.751702 243.965512 
L 687.751702 243.703853 
L 688.889188 243.703853 
L 688.889188 244.017844 
L 690.026674 244.017844 
L 690.026674 244.216705 
L 691.16416 244.216705 
L 691.16416 243.923647 
L 693.439132 243.818983 
L 693.439132 244.091109 
L 695.714104 244.153907 
L 695.714104 244.227172 
L 697.989076 244.216705 
L 697.989076 244.363234 
L 700.264048 244.321369 
L 700.264048 244.038777 
L 701.401534 244.038777 
L 701.401534 244.342302 
L 703.676506 244.342302 
L 703.676506 244.530696 
L 704.813992 244.530696 
L 704.813992 244.300436 
L 705.951478 244.300436 
L 705.951478 244.467898 
L 708.22645 244.467898 
L 708.22645 244.823755 
L 709.363936 244.823755 
L 709.363936 244.551629 
L 711.638908 244.63536 
L 711.638908 244.384167 
L 712.776394 244.384167 
L 712.776394 244.614427 
L 713.91388 244.614427 
L 713.91388 244.729557 
L 719.60131 244.802822 
L 719.60131 244.844687 
L 721.876282 244.760956 
L 721.876282 244.698158 
L 723.013768 244.698158 
L 723.013768 244.86562 
L 728.701198 244.949351 
L 728.701198 245.158678 
L 729.838684 245.158678 
L 729.838684 245.033082 
L 733.251142 245.022616 
L 733.251142 245.21101 
L 734.388628 245.21101 
L 734.388628 245.054015 
L 737.801086 245.158678 
L 737.801086 245.315674 
L 738.938572 245.315674 
L 738.938572 245.190078 
L 745.763488 245.221477 
L 745.763488 245.35754 
L 750.313432 245.284275 
L 750.313432 245.158678 
L 751.450918 245.158678 
L 751.450918 245.294741 
L 758.275835 245.368006 
L 758.275835 245.47267 
L 760.550807 245.47267 
L 760.550807 245.305208 
L 762.825779 245.305208 
L 762.825779 245.44127 
L 763.963265 245.44127 
L 763.963265 245.32614 
L 766.238237 245.409871 
L 766.238237 245.462203 
L 785.575499 245.514535 
L 785.575499 245.577333 
L 803.775275 245.629665 
L 803.775275 245.692463 
L 848.13723 245.723862 
L 848.13723 245.723862 
" clip-path="url(#p3a7f294c9e)" style="fill: none; stroke: #1f77b4; stroke-width: 1.5; stroke-linecap: square"/>
   </g>
   <g id="line2d_37">
    <path d="M 506.891194 156.121269 
L 508.028641 156.121269 
L 508.028641 146.293347 
L 509.166088 146.293347 
L 509.166088 137.86792 
L 510.303535 137.86792 
L 510.303535 139.092485 
L 511.440982 139.092485 
L 511.440982 146.8062 
L 512.578429 146.8062 
L 512.578429 153.60934 
L 513.715876 153.60934 
L 513.715876 149.694918 
L 514.853323 149.694918 
L 514.853323 125.454805 
L 515.99077 125.454805 
L 515.99077 105.390773 
L 517.128218 105.390773 
L 517.128218 85.50467 
L 518.265665 85.50467 
L 518.265665 60.123723 
L 519.403112 60.123723 
L 519.403112 36.103404 
L 520.540559 36.103404 
L 520.540559 23.030908 
L 521.678006 23.030908 
L 521.678006 23.470495 
L 522.815453 23.470495 
L 522.815453 20.801571 
L 523.9529 20.801571 
L 523.9529 21.984271 
L 525.090347 21.984271 
L 525.090347 34.533449 
L 526.227794 34.533449 
L 526.227794 41.76571 
L 527.365241 41.76571 
L 527.365241 51.897156 
L 528.502688 51.897156 
L 528.502688 60.008593 
L 529.640135 60.008593 
L 529.640135 69.166667 
L 530.777582 69.166667 
L 530.777582 79.381844 
L 531.915029 79.381844 
L 531.915029 85.672132 
L 533.052477 85.672132 
L 533.052477 89.921479 
L 534.189924 89.921479 
L 534.189924 95.782646 
L 535.327371 95.782646 
L 535.327371 98.807427 
L 536.464818 98.807427 
L 536.464818 96.902547 
L 537.602265 96.902547 
L 537.602265 93.553309 
L 538.739712 93.553309 
L 538.739712 92.140349 
L 539.877159 92.140349 
L 539.877159 90.319201 
L 541.014606 90.319201 
L 541.014606 80.124956 
L 542.152053 80.124956 
L 542.152053 74.661511 
L 543.2895 74.661511 
L 543.2895 59.935329 
L 544.426947 59.935329 
L 544.426947 52.713533 
L 545.564394 52.713533 
L 545.564394 45.324276 
L 546.701841 45.324276 
L 546.701841 36.909315 
L 547.839288 36.909315 
L 547.839288 36.019673 
L 548.976736 36.019673 
L 548.976736 45.387074 
L 550.114183 45.387074 
L 550.114183 52.127417 
L 551.25163 52.127417 
L 551.25163 65.304576 
L 552.389077 65.304576 
L 552.389077 72.065851 
L 553.526524 72.065851 
L 553.526524 79.465575 
L 554.663971 79.465575 
L 554.663971 90.769255 
L 555.801418 90.769255 
L 555.801418 100.073858 
L 556.938865 100.073858 
L 556.938865 104.972119 
L 558.076312 104.972119 
L 558.076312 114.716309 
L 559.213759 114.716309 
L 559.213759 119.719234 
L 560.351206 119.719234 
L 560.351206 124.795423 
L 561.488653 124.795423 
L 561.488653 132.153282 
L 562.6261 132.153282 
L 562.6261 136.884081 
L 563.763547 136.884081 
L 563.763547 143.519759 
L 564.900995 143.519759 
L 564.900995 147.26672 
L 566.038442 147.26672 
L 566.038442 151.662595 
L 567.175889 151.662595 
L 567.175889 157.743556 
L 568.313336 157.743556 
L 568.313336 160.935799 
L 569.450783 160.935799 
L 569.450783 164.756024 
L 570.58823 164.756024 
L 570.58823 170.899783 
L 571.725677 170.899783 
L 571.725677 174.238555 
L 572.863124 174.238555 
L 572.863124 177.315668 
L 574.000571 177.315668 
L 574.000571 180.382315 
L 575.138018 180.382315 
L 575.138018 182.747714 
L 576.275465 182.747714 
L 576.275465 185.479437 
L 577.412912 185.479437 
L 577.412912 188.797276 
L 578.550359 188.797276 
L 578.550359 190.817285 
L 579.687806 190.817285 
L 579.687806 194.156057 
L 580.825253 194.156057 
L 580.825253 196.197 
L 581.962701 196.197 
L 581.962701 199.043852 
L 583.100148 199.043852 
L 583.100148 199.577637 
L 584.237595 199.577637 
L 584.237595 202.277961 
L 585.375042 202.277961 
L 585.375042 204.517764 
L 586.512489 204.517764 
L 586.512489 206.098186 
L 587.649936 206.098186 
L 587.649936 207.69954 
L 588.787383 207.69954 
L 588.787383 208.327522 
L 589.92483 208.327522 
L 589.92483 210.891783 
L 591.062277 210.891783 
L 591.062277 212.974591 
L 592.199724 212.974591 
L 592.199724 214.146824 
L 593.337171 214.146824 
L 593.337171 215.685381 
L 594.474618 215.685381 
L 594.474618 217.025076 
L 595.612065 217.025076 
L 595.612065 218.029847 
L 596.749512 218.029847 
L 596.749512 220.217319 
L 597.88696 220.217319 
L 597.88696 219.191615 
L 599.024407 219.191615 
L 599.024407 222.216395 
L 600.161854 222.216395 
L 600.161854 222.007068 
L 601.299301 222.007068 
L 601.299301 223.943346 
L 602.436748 223.943346 
L 602.436748 223.095571 
L 603.574195 223.095571 
L 603.574195 225.659831 
L 604.711642 225.659831 
L 604.711642 226.204082 
L 605.849089 226.204082 
L 605.849089 226.319212 
L 606.986536 226.319212 
L 606.986536 227.491446 
L 608.123983 227.491446 
L 608.123983 228.05663 
L 609.26143 228.05663 
L 609.26143 229.657985 
L 610.398877 229.657985 
L 610.398877 230.055707 
L 611.536324 230.055707 
L 611.536324 229.940576 
L 612.673771 229.940576 
L 612.673771 230.610424 
L 613.811219 230.610424 
L 613.811219 231.834989 
L 614.948666 231.834989 
L 614.948666 232.6409 
L 616.086113 232.6409 
L 616.086113 232.87116 
L 617.22356 232.87116 
L 617.22356 233.268882 
L 618.361007 233.268882 
L 618.361007 233.509609 
L 619.498454 233.509609 
L 619.498454 233.928263 
L 620.635901 233.928263 
L 620.635901 234.367851 
L 621.773348 234.367851 
L 621.773348 235.435421 
L 622.910795 235.435421 
L 622.910795 234.713241 
L 624.048242 234.713241 
L 624.048242 235.958739 
L 627.460583 236.04247 
L 627.460583 236.576255 
L 628.59803 236.576255 
L 628.59803 237.371699 
L 629.735478 237.371699 
L 629.735478 237.172838 
L 630.872925 237.172838 
L 630.872925 237.643825 
L 633.147819 237.560094 
L 633.147819 238.376471 
L 634.285266 238.376471 
L 634.285266 238.575332 
L 635.422713 238.575332 
L 635.422713 239.161448 
L 636.56016 239.161448 
L 636.56016 238.648596 
L 637.697607 238.648596 
L 637.697607 238.98352 
L 638.835054 238.98352 
L 638.835054 239.391709 
L 639.972501 239.391709 
L 639.972501 239.674301 
L 641.109948 239.674301 
L 641.109948 239.47544 
L 642.247395 239.47544 
L 642.247395 239.904561 
L 643.384842 239.904561 
L 643.384842 240.354615 
L 646.797184 240.39648 
L 646.797184 240.469745 
L 647.934631 240.469745 
L 647.934631 240.773269 
L 649.072078 240.773269 
L 649.072078 240.553476 
L 650.209525 240.553476 
L 650.209525 241.23379 
L 652.484419 241.327987 
L 652.484419 241.34892 
L 657.034207 241.34892 
L 657.034207 241.851306 
L 660.446548 241.935037 
L 660.446548 242.112965 
L 661.583996 242.112965 
L 661.583996 242.332759 
L 663.85889 242.280427 
L 663.85889 242.782812 
L 666.133784 242.772346 
L 666.133784 242.290893 
L 667.271231 242.290893 
L 667.271231 242.699082 
L 669.546125 242.793279 
L 669.546125 242.950274 
L 671.821019 242.960741 
L 671.821019 242.793279 
L 672.958466 242.793279 
L 672.958466 242.939808 
L 674.095913 242.939808 
L 674.095913 243.33753 
L 678.645702 243.379396 
L 678.645702 243.557324 
L 680.920596 243.473593 
L 680.920596 243.808517 
L 682.058043 243.808517 
L 682.058043 243.525925 
L 683.19549 243.525925 
L 683.19549 243.703853 
L 685.470384 243.766651 
L 685.470384 243.484059 
L 686.607831 243.484059 
L 686.607831 243.79805 
L 687.745278 243.79805 
L 687.745278 244.300436 
L 688.882725 244.300436 
L 688.882725 244.007378 
L 695.707408 244.05971 
L 695.707408 244.143441 
L 697.982302 244.216705 
L 697.982302 244.310903 
L 701.394643 244.352768 
L 701.394643 244.195772 
L 702.53209 244.195772 
L 702.53209 244.373701 
L 703.669537 244.373701 
L 703.669537 244.52023 
L 704.806984 244.52023 
L 704.806984 244.195772 
L 705.944431 244.195772 
L 705.944431 244.488831 
L 707.081878 244.488831 
L 707.081878 244.75049 
L 708.219325 244.75049 
L 708.219325 244.624894 
L 710.49422 244.708625 
L 710.49422 244.352768 
L 711.631667 244.352768 
L 711.631667 244.541163 
L 712.769114 244.541163 
L 712.769114 244.729557 
L 713.906561 244.729557 
L 713.906561 244.928418 
L 717.318902 244.991217 
L 717.318902 244.666759 
L 719.593796 244.75049 
L 719.593796 244.813288 
L 720.731243 244.813288 
L 720.731243 244.928418 
L 725.281032 244.98075 
L 725.281032 245.064481 
L 727.555926 245.09588 
L 727.555926 244.928418 
L 729.83082 244.907486 
L 729.83082 245.043548 
L 730.968267 245.043548 
L 730.968267 244.886553 
L 732.105714 244.886553 
L 732.105714 245.127279 
L 734.380608 245.074948 
L 734.380608 244.938885 
L 735.518055 244.938885 
L 735.518055 245.169145 
L 736.655502 245.169145 
L 736.655502 244.98075 
L 737.792949 244.98075 
L 737.792949 245.190078 
L 740.067843 245.21101 
L 740.067843 245.054015 
L 743.480185 245.116813 
L 743.480185 245.200544 
L 745.755079 245.158678 
L 745.755079 245.315674 
L 755.992102 245.294741 
L 755.992102 245.190078 
L 757.129549 245.190078 
L 757.129549 245.32614 
L 759.404444 245.378472 
L 759.404444 245.462203 
L 779.878491 245.483136 
L 779.878491 245.347073 
L 781.015938 245.347073 
L 781.015938 245.545934 
L 808.314668 245.608732 
L 808.314668 245.70293 
L 848.125315 245.713396 
L 848.125315 245.713396 
" clip-path="url(#p3a7f294c9e)" style="fill: none; stroke: #ff7f0e; stroke-width: 1.5; stroke-linecap: square"/>
   </g>
   <g id="line2d_38">
    <path d="M 506.89127 156.257332 
L 508.028663 156.257332 
L 508.028663 146.617805 
L 509.166055 146.617805 
L 509.166055 138.621498 
L 510.303448 138.621498 
L 510.303448 137.878386 
L 511.44084 137.878386 
L 511.44084 146.450343 
L 512.578233 146.450343 
L 512.578233 154.18499 
L 513.715625 154.18499 
L 513.715625 148.104029 
L 514.853018 148.104029 
L 514.853018 127.726007 
L 515.99041 127.726007 
L 515.99041 106.489742 
L 517.127803 106.489742 
L 517.127803 83.955648 
L 518.265195 83.955648 
L 518.265195 61.630881 
L 519.402588 61.630881 
L 519.402588 37.18144 
L 520.53998 37.18144 
L 520.53998 25.41724 
L 521.677373 25.41724 
L 521.677373 23.763554 
L 522.814765 23.763554 
L 522.814765 21.827275 
L 523.952158 21.827275 
L 523.952158 22.120334 
L 525.08955 22.120334 
L 525.08955 34.156659 
L 526.226943 34.156659 
L 526.226943 42.079701 
L 527.364335 42.079701 
L 527.364335 51.04938 
L 528.501728 51.04938 
L 528.501728 59.809732 
L 529.63912 59.809732 
L 529.63912 70.443564 
L 530.776513 70.443564 
L 530.776513 78.523602 
L 531.913905 78.523602 
L 531.913905 82.47989 
L 533.051298 82.47989 
L 533.051298 93.438179 
L 534.18869 93.438179 
L 534.18869 92.559004 
L 535.326083 92.559004 
L 535.326083 98.085247 
L 537.600867 98.095714 
L 537.600867 98.608566 
L 538.73826 98.608566 
L 538.73826 93.166053 
L 539.875652 93.166053 
L 539.875652 85.755863 
L 541.013045 85.755863 
L 541.013045 78.293342 
L 542.150437 78.293342 
L 542.150437 71.63673 
L 543.28783 71.63673 
L 543.28783 63.431096 
L 544.425222 63.431096 
L 544.425222 52.305345 
L 545.562615 52.305345 
L 545.562615 45.230079 
L 546.700007 45.230079 
L 546.700007 33.444946 
L 547.8374 33.444946 
L 547.8374 36.846516 
L 548.974792 36.846516 
L 548.974792 42.48789 
L 550.112185 42.48789 
L 550.112185 52.828663 
L 551.249577 52.828663 
L 551.249577 59.945795 
L 552.38697 59.945795 
L 552.38697 69.396927 
L 553.524362 69.396927 
L 553.524362 80.993665 
L 554.661755 80.993665 
L 554.661755 87.995667 
L 555.799147 87.995667 
L 555.799147 99.435409 
L 556.93654 99.435409 
L 556.93654 103.789419 
L 558.073932 103.789419 
L 558.073932 111.105412 
L 559.211325 111.105412 
L 559.211325 120.064624 
L 560.348717 120.064624 
L 560.348717 127.307352 
L 561.48611 127.307352 
L 561.48611 130.792653 
L 562.623502 130.792653 
L 562.623502 138.652897 
L 563.760895 138.652897 
L 563.760895 141.698611 
L 564.898287 141.698611 
L 564.898287 148.376155 
L 566.03568 148.376155 
L 566.03568 153.222084 
L 567.173072 153.222084 
L 567.173072 156.874848 
L 568.310465 156.874848 
L 568.310465 164.358302 
L 569.447857 164.358302 
L 569.447857 166.524841 
L 570.585249 166.524841 
L 570.585249 170.522994 
L 571.722642 170.522994 
L 571.722642 173.495443 
L 572.860034 173.495443 
L 572.860034 177.127273 
L 573.997427 177.127273 
L 573.997427 180.288117 
L 575.134819 180.288117 
L 575.134819 183.899015 
L 576.272212 183.899015 
L 576.272212 185.605033 
L 577.409604 185.605033 
L 577.409604 189.864846 
L 578.546997 189.864846 
L 578.546997 191.999985 
L 579.684389 191.999985 
L 579.684389 194.375851 
L 580.821782 194.375851 
L 580.821782 196.699385 
L 581.959174 196.699385 
L 581.959174 198.258875 
L 583.096567 198.258875 
L 583.096567 201.116194 
L 584.233959 201.116194 
L 584.233959 202.414023 
L 585.371352 202.414023 
L 585.371352 203.554858 
L 586.508744 203.554858 
L 586.508744 207.563477 
L 587.646137 207.563477 
L 587.646137 208.746177 
L 588.783529 208.746177 
L 588.783529 209.593953 
L 589.920922 209.593953 
L 589.920922 211.258106 
L 591.058314 211.258106 
L 591.058314 212.691999 
L 592.195707 212.691999 
L 592.195707 214.743407 
L 593.333099 214.743407 
L 593.333099 215.94704 
L 594.470492 215.94704 
L 594.470492 217.443731 
L 596.745277 217.401865 
L 596.745277 219.599803 
L 597.882669 219.599803 
L 597.882669 220.834835 
L 599.020062 220.834835 
L 599.020062 221.504682 
L 600.157454 221.504682 
L 600.157454 222.164064 
L 601.294847 222.164064 
L 601.294847 223.681687 
L 602.432239 223.681687 
L 602.432239 224.173607 
L 603.569632 224.173607 
L 603.569632 225.607499 
L 604.707024 225.607499 
L 604.707024 225.911024 
L 605.844416 225.911024 
L 605.844416 226.476208 
L 606.981809 226.476208 
L 606.981809 227.292585 
L 608.119201 227.292585 
L 608.119201 228.485751 
L 610.393986 228.443886 
L 610.393986 230.16037 
L 611.531379 230.16037 
L 611.531379 230.369698 
L 612.668771 230.369698 
L 612.668771 230.976747 
L 613.806164 230.976747 
L 613.806164 231.395402 
L 614.943556 231.395402 
L 614.943556 232.190846 
L 616.080949 232.190846 
L 616.080949 232.06525 
L 617.218341 232.06525 
L 617.218341 232.703698 
L 618.355734 232.703698 
L 618.355734 233.44681 
L 619.493126 233.44681 
L 619.493126 234.325986 
L 620.630519 234.325986 
L 620.630519 234.503914 
L 621.767911 234.503914 
L 621.767911 234.901636 
L 622.905304 234.901636 
L 622.905304 234.472515 
L 624.042696 234.472515 
L 624.042696 235.770345 
L 625.180089 235.770345 
L 625.180089 236.41926 
L 626.317481 236.41926 
L 626.317481 236.27273 
L 627.454874 236.27273 
L 627.454874 236.461125 
L 628.592266 236.461125 
L 628.592266 236.973977 
L 629.729659 236.973977 
L 629.729659 237.392632 
L 630.867051 237.392632 
L 630.867051 237.068174 
L 632.004444 237.068174 
L 632.004444 238.240408 
L 633.141836 238.240408 
L 633.141836 238.470668 
L 634.279229 238.470668 
L 634.279229 238.763726 
L 635.416621 238.763726 
L 635.416621 238.449735 
L 636.554014 238.449735 
L 636.554014 238.721861 
L 638.828799 238.826525 
L 638.828799 239.255646 
L 639.966191 239.255646 
L 639.966191 239.862695 
L 641.103583 239.862695 
L 641.103583 239.747565 
L 642.240976 239.747565 
L 642.240976 239.59057 
L 643.378368 239.59057 
L 643.378368 240.323216 
L 645.653153 240.365081 
L 645.653153 240.605808 
L 646.790546 240.605808 
L 646.790546 240.867467 
L 647.927938 240.867467 
L 647.927938 240.333682 
L 649.065331 240.333682 
L 649.065331 241.00353 
L 651.340116 241.087261 
L 651.340116 241.443117 
L 652.477508 241.443117 
L 652.477508 241.286122 
L 653.614901 241.286122 
L 653.614901 241.882705 
L 654.752293 241.882705 
L 654.752293 241.610579 
L 655.889686 241.610579 
L 655.889686 241.443117 
L 657.027078 241.443117 
L 657.027078 241.830373 
L 658.164471 241.830373 
L 658.164471 241.945503 
L 659.301863 241.945503 
L 659.301863 242.112965 
L 660.439256 242.112965 
L 660.439256 242.437422 
L 661.576648 242.437422 
L 661.576648 242.228095 
L 662.714041 242.228095 
L 662.714041 242.479288 
L 663.851433 242.479288 
L 663.851433 242.311826 
L 664.988826 242.311826 
L 664.988826 242.699082 
L 666.126218 242.699082 
L 666.126218 242.489754 
L 667.263611 242.489754 
L 667.263611 242.657216 
L 668.401003 242.657216 
L 668.401003 242.395557 
L 669.538396 242.395557 
L 669.538396 242.709548 
L 670.675788 242.709548 
L 670.675788 242.981674 
L 671.813181 242.981674 
L 671.813181 243.128203 
L 672.950573 243.128203 
L 672.950573 243.379396 
L 674.087965 243.379396 
L 674.087965 243.2224 
L 676.36275 243.128203 
L 676.36275 243.347996 
L 677.500143 243.347996 
L 677.500143 243.525925 
L 679.774928 243.494526 
L 679.774928 243.065404 
L 680.91232 243.065404 
L 680.91232 243.620122 
L 685.46189 243.620122 
L 685.46189 243.94458 
L 687.736675 243.902714 
L 687.736675 243.630588 
L 688.874068 243.630588 
L 688.874068 243.787584 
L 693.423638 243.881781 
L 693.423638 244.248104 
L 694.56103 244.248104 
L 694.56103 244.132974 
L 696.835815 244.080642 
L 696.835815 244.321369 
L 701.385385 244.237638 
L 701.385385 244.05971 
L 702.522778 244.05971 
L 702.522778 244.4051 
L 707.072348 244.457432 
L 707.072348 244.781889 
L 708.20974 244.781889 
L 708.20974 244.541163 
L 710.484525 244.583028 
L 710.484525 244.666759 
L 717.30888 244.729557 
L 717.30888 244.897019 
L 724.133235 244.844687 
L 724.133235 245.033082 
L 735.50716 245.064481 
L 735.50716 245.148212 
L 737.781945 245.169145 
L 737.781945 244.959817 
L 738.919337 244.959817 
L 738.919337 245.158678 
L 743.468907 245.106347 
L 743.468907 245.284275 
L 751.430654 245.347073 
L 751.430654 245.169145 
L 752.568047 245.169145 
L 752.568047 245.305208 
L 758.255009 245.347073 
L 758.255009 245.451737 
L 761.667187 245.388939 
L 761.667187 245.294741 
L 763.941972 245.399405 
L 763.941972 245.483136 
L 769.628934 245.44127 
L 769.628934 245.305208 
L 770.766327 245.305208 
L 770.766327 245.566867 
L 799.201139 245.619199 
L 799.201139 245.692463 
L 804.888101 245.681997 
L 804.888101 245.577333 
L 809.437671 245.640131 
L 809.437671 245.723862 
L 815.124633 245.650598 
L 815.124633 245.577333 
L 816.262026 245.577333 
L 816.262026 245.70293 
L 848.109015 245.776194 
L 848.109015 245.776194 
" clip-path="url(#p3a7f294c9e)" style="fill: none; stroke: #2ca02c; stroke-width: 1.5; stroke-linecap: square"/>
   </g>
   <g id="patch_9">
    <path d="M 489.829135 257.158895 
L 489.829135 7.2 
" style="fill: none; stroke: #000000; stroke-width: 0.8; stroke-linejoin: miter; stroke-linecap: square"/>
   </g>
   <g id="patch_10">
    <path d="M 865.19952 257.158895 
L 865.19952 7.2 
" style="fill: none; stroke: #000000; stroke-width: 0.8; stroke-linejoin: miter; stroke-linecap: square"/>
   </g>
   <g id="patch_11">
    <path d="M 489.829135 257.158895 
L 865.19952 257.158895 
" style="fill: none; stroke: #000000; stroke-width: 0.8; stroke-linejoin: miter; stroke-linecap: square"/>
   </g>
   <g id="patch_12">
    <path d="M 489.829135 7.2 
L 865.19952 7.2 
" style="fill: none; stroke: #000000; stroke-width: 0.8; stroke-linejoin: miter; stroke-linecap: square"/>
   </g>
   <g id="legend_2">
    <g id="patch_13">
     <path d="M 789.641707 59.234375 
L 858.19952 59.234375 
Q 860.19952 59.234375 860.19952 57.234375 
L 860.19952 14.2 
Q 860.19952 12.2 858.19952 12.2 
L 789.641707 12.2 
Q 787.641707 12.2 787.641707 14.2 
L 787.641707 57.234375 
Q 787.641707 59.234375 789.641707 59.234375 
z
" style="fill: #ffffff; opacity: 0.8; stroke: #cccccc; stroke-linejoin: miter"/>
    </g>
    <g id="line2d_39">
     <path d="M 791.641707 20.298437 
L 791.641707 20.298437 
L 801.641707 20.298437 
L 801.641707 20.298437 
L 811.641707 20.298437 
" style="fill: none; stroke: #1f77b4; stroke-width: 1.5; stroke-linecap: square"/>
    </g>
    <g id="text_37">
     <!-- pulse:0 -->
     <g transform="translate(819.641707 23.798437) scale(0.1 -0.1)">
      <use xlink:href="#DejaVuSans-70"/>
      <use xlink:href="#DejaVuSans-75" transform="translate(63.476562 0)"/>
      <use xlink:href="#DejaVuSans-6c" transform="translate(126.855469 0)"/>
      <use xlink:href="#DejaVuSans-73" transform="translate(154.638672 0)"/>
      <use xlink:href="#DejaVuSans-65" transform="translate(206.738281 0)"/>
      <use xlink:href="#DejaVuSans-3a" transform="translate(268.261719 0)"/>
      <use xlink:href="#DejaVuSans-30" transform="translate(301.953125 0)"/>
     </g>
    </g>
    <g id="line2d_40">
     <path d="M 791.641707 34.976562 
L 791.641707 34.976562 
L 801.641707 34.976562 
L 801.641707 34.976562 
L 811.641707 34.976562 
" style="fill: none; stroke: #ff7f0e; stroke-width: 1.5; stroke-linecap: square"/>
    </g>
    <g id="text_38">
     <!-- pulse:1 -->
     <g transform="translate(819.641707 38.476562) scale(0.1 -0.1)">
      <use xlink:href="#DejaVuSans-70"/>
      <use xlink:href="#DejaVuSans-75" transform="translate(63.476562 0)"/>
      <use xlink:href="#DejaVuSans-6c" transform="translate(126.855469 0)"/>
      <use xlink:href="#DejaVuSans-73" transform="translate(154.638672 0)"/>
      <use xlink:href="#DejaVuSans-65" transform="translate(206.738281 0)"/>
      <use xlink:href="#DejaVuSans-3a" transform="translate(268.261719 0)"/>
      <use xlink:href="#DejaVuSans-31" transform="translate(301.953125 0)"/>
     </g>
    </g>
    <g id="line2d_41">
     <path d="M 791.641707 49.654687 
L 791.641707 49.654687 
L 801.641707 49.654687 
L 801.641707 49.654687 
L 811.641707 49.654687 
" style="fill: none; stroke: #2ca02c; stroke-width: 1.5; stroke-linecap: square"/>
    </g>
    <g id="text_39">
     <!-- pulse:2 -->
     <g transform="translate(819.641707 53.154687) scale(0.1 -0.1)">
      <use xlink:href="#DejaVuSans-70"/>
      <use xlink:href="#DejaVuSans-75" transform="translate(63.476562 0)"/>
      <use xlink:href="#DejaVuSans-6c" transform="translate(126.855469 0)"/>
      <use xlink:href="#DejaVuSans-73" transform="translate(154.638672 0)"/>
      <use xlink:href="#DejaVuSans-65" transform="translate(206.738281 0)"/>
      <use xlink:href="#DejaVuSans-3a" transform="translate(268.261719 0)"/>
      <use xlink:href="#DejaVuSans-32" transform="translate(301.953125 0)"/>
     </g>
    </g>
   </g>
  </g>
 </g>
 <defs>
  <clipPath id="p0c2d3de118">
   <rect x="53.328125" y="7.2" width="375.370385" height="249.958895"/>
  </clipPath>
  <clipPath id="p3a7f294c9e">
   <rect x="489.829135" y="7.2" width="375.370385" height="249.958895"/>
  </clipPath>
 </defs>
</svg>
