<?xml version="1.0" encoding="utf-8" standalone="no"?>
<!DOCTYPE svg PUBLIC "-//W3C//DTD SVG 1.1//EN"
  "http://www.w3.org/Graphics/SVG/1.1/DTD/svg11.dtd">
<svg xmlns:xlink="http://www.w3.org/1999/xlink" width="395.328125pt" height="267.007562pt" viewBox="0 0 395.328125 267.007562" xmlns="http://www.w3.org/2000/svg" version="1.1">
 <metadata>
  <rdf:RDF xmlns:dc="http://purl.org/dc/elements/1.1/" xmlns:cc="http://creativecommons.org/ns#" xmlns:rdf="http://www.w3.org/1999/02/22-rdf-syntax-ns#">
   <cc:Work>
    <dc:type rdf:resource="http://purl.org/dc/dcmitype/StillImage"/>
    <dc:date>2025-10-10T17:28:25.914608</dc:date>
    <dc:format>image/svg+xml</dc:format>
    <dc:creator>
     <cc:Agent>
      <dc:title>Matplotlib v3.10.6, https://matplotlib.org/</dc:title>
     </cc:Agent>
    </dc:creator>
   </cc:Work>
  </rdf:RDF>
 </metadata>
 <defs>
  <style type="text/css">*{stroke-linejoin: round; stroke-linecap: butt}</style>
 </defs>
 <g id="figure_1">
  <g id="patch_1">
   <path d="M 0 267.007562 
L 395.328125 267.007562 
L 395.328125 0 
L 0 0 
z
" style="fill: #ffffff"/>
  </g>
  <g id="axes_1">
   <g id="patch_2">
    <path d="M 53.328125 229.451312 
L 388.128125 229.451312 
L 388.128125 7.691312 
L 53.328125 7.691312 
z
" style="fill: #ffffff"/>
   </g>
   <g id="matplotlib.axis_1">
    <g id="xtick_1">
     <g id="line2d_1">
      <defs>
       <path id="mffef4efdcb" d="M 0 0 
L 0 3.5 
" style="stroke: #000000; stroke-width: 0.8"/>
      </defs>
      <g>
       <use xlink:href="#mffef4efdcb" x="67.530605" y="229.451312" style="stroke: #000000; stroke-width: 0.8"/>
      </g>
     </g>
     <g id="text_1">
      <!-- 25000 -->
      <g transform="translate(51.624355 244.049749) scale(0.1 -0.1)">
       <defs>
        <path id="DejaVuSans-32" d="M 1228 531 
L 3431 531 
L 3431 0 
L 469 0 
L 469 531 
Q 828 903 1448 1529 
Q 2069 2156 2228 2338 
Q 2531 2678 2651 2914 
Q 2772 3150 2772 3378 
Q 2772 3750 2511 3984 
Q 2250 4219 1831 4219 
Q 1534 4219 1204 4116 
Q 875 4013 500 3803 
L 500 4441 
Q 881 4594 1212 4672 
Q 1544 4750 1819 4750 
Q 2544 4750 2975 4387 
Q 3406 4025 3406 3419 
Q 3406 3131 3298 2873 
Q 3191 2616 2906 2266 
Q 2828 2175 2409 1742 
Q 1991 1309 1228 531 
z
" transform="scale(0.015625)"/>
        <path id="DejaVuSans-35" d="M 691 4666 
L 3169 4666 
L 3169 4134 
L 1269 4134 
L 1269 2991 
Q 1406 3038 1543 3061 
Q 1681 3084 1819 3084 
Q 2600 3084 3056 2656 
Q 3513 2228 3513 1497 
Q 3513 744 3044 326 
Q 2575 -91 1722 -91 
Q 1428 -91 1123 -41 
Q 819 9 494 109 
L 494 744 
Q 775 591 1075 516 
Q 1375 441 1709 441 
Q 2250 441 2565 725 
Q 2881 1009 2881 1497 
Q 2881 1984 2565 2268 
Q 2250 2553 1709 2553 
Q 1456 2553 1204 2497 
Q 953 2441 691 2322 
L 691 4666 
z
" transform="scale(0.015625)"/>
        <path id="DejaVuSans-30" d="M 2034 4250 
Q 1547 4250 1301 3770 
Q 1056 3291 1056 2328 
Q 1056 1369 1301 889 
Q 1547 409 2034 409 
Q 2525 409 2770 889 
Q 3016 1369 3016 2328 
Q 3016 3291 2770 3770 
Q 2525 4250 2034 4250 
z
M 2034 4750 
Q 2819 4750 3233 4129 
Q 3647 3509 3647 2328 
Q 3647 1150 3233 529 
Q 2819 -91 2034 -91 
Q 1250 -91 836 529 
Q 422 1150 422 2328 
Q 422 3509 836 4129 
Q 1250 4750 2034 4750 
z
" transform="scale(0.015625)"/>
       </defs>
       <use xlink:href="#DejaVuSans-32"/>
       <use xlink:href="#DejaVuSans-35" transform="translate(63.623047 0)"/>
       <use xlink:href="#DejaVuSans-30" transform="translate(127.246094 0)"/>
       <use xlink:href="#DejaVuSans-30" transform="translate(190.869141 0)"/>
       <use xlink:href="#DejaVuSans-30" transform="translate(254.492188 0)"/>
      </g>
     </g>
    </g>
    <g id="xtick_2">
     <g id="line2d_2">
      <g>
       <use xlink:href="#mffef4efdcb" x="108.115602" y="229.451312" style="stroke: #000000; stroke-width: 0.8"/>
      </g>
     </g>
     <g id="text_2">
      <!-- 50000 -->
      <g transform="translate(92.209352 244.049749) scale(0.1 -0.1)">
       <use xlink:href="#DejaVuSans-35"/>
       <use xlink:href="#DejaVuSans-30" transform="translate(63.623047 0)"/>
       <use xlink:href="#DejaVuSans-30" transform="translate(127.246094 0)"/>
       <use xlink:href="#DejaVuSans-30" transform="translate(190.869141 0)"/>
       <use xlink:href="#DejaVuSans-30" transform="translate(254.492188 0)"/>
      </g>
     </g>
    </g>
    <g id="xtick_3">
     <g id="line2d_3">
      <g>
       <use xlink:href="#mffef4efdcb" x="148.700598" y="229.451312" style="stroke: #000000; stroke-width: 0.8"/>
      </g>
     </g>
     <g id="text_3">
      <!-- 75000 -->
      <g transform="translate(132.794348 244.049749) scale(0.1 -0.1)">
       <defs>
        <path id="DejaVuSans-37" d="M 525 4666 
L 3525 4666 
L 3525 4397 
L 1831 0 
L 1172 0 
L 2766 4134 
L 525 4134 
L 525 4666 
z
" transform="scale(0.015625)"/>
       </defs>
       <use xlink:href="#DejaVuSans-37"/>
       <use xlink:href="#DejaVuSans-35" transform="translate(63.623047 0)"/>
       <use xlink:href="#DejaVuSans-30" transform="translate(127.246094 0)"/>
       <use xlink:href="#DejaVuSans-30" transform="translate(190.869141 0)"/>
       <use xlink:href="#DejaVuSans-30" transform="translate(254.492188 0)"/>
      </g>
     </g>
    </g>
    <g id="xtick_4">
     <g id="line2d_4">
      <g>
       <use xlink:href="#mffef4efdcb" x="189.285594" y="229.451312" style="stroke: #000000; stroke-width: 0.8"/>
      </g>
     </g>
     <g id="text_4">
      <!-- 100000 -->
      <g transform="translate(170.198094 244.049749) scale(0.1 -0.1)">
       <defs>
        <path id="DejaVuSans-31" d="M 794 531 
L 1825 531 
L 1825 4091 
L 703 3866 
L 703 4441 
L 1819 4666 
L 2450 4666 
L 2450 531 
L 3481 531 
L 3481 0 
L 794 0 
L 794 531 
z
" transform="scale(0.015625)"/>
       </defs>
       <use xlink:href="#DejaVuSans-31"/>
       <use xlink:href="#DejaVuSans-30" transform="translate(63.623047 0)"/>
       <use xlink:href="#DejaVuSans-30" transform="translate(127.246094 0)"/>
       <use xlink:href="#DejaVuSans-30" transform="translate(190.869141 0)"/>
       <use xlink:href="#DejaVuSans-30" transform="translate(254.492188 0)"/>
       <use xlink:href="#DejaVuSans-30" transform="translate(318.115234 0)"/>
      </g>
     </g>
    </g>
    <g id="xtick_5">
     <g id="line2d_5">
      <g>
       <use xlink:href="#mffef4efdcb" x="229.87059" y="229.451312" style="stroke: #000000; stroke-width: 0.8"/>
      </g>
     </g>
     <g id="text_5">
      <!-- 125000 -->
      <g transform="translate(210.78309 244.049749) scale(0.1 -0.1)">
       <use xlink:href="#DejaVuSans-31"/>
       <use xlink:href="#DejaVuSans-32" transform="translate(63.623047 0)"/>
       <use xlink:href="#DejaVuSans-35" transform="translate(127.246094 0)"/>
       <use xlink:href="#DejaVuSans-30" transform="translate(190.869141 0)"/>
       <use xlink:href="#DejaVuSans-30" transform="translate(254.492188 0)"/>
       <use xlink:href="#DejaVuSans-30" transform="translate(318.115234 0)"/>
      </g>
     </g>
    </g>
    <g id="xtick_6">
     <g id="line2d_6">
      <g>
       <use xlink:href="#mffef4efdcb" x="270.455587" y="229.451312" style="stroke: #000000; stroke-width: 0.8"/>
      </g>
     </g>
     <g id="text_6">
      <!-- 150000 -->
      <g transform="translate(251.368087 244.049749) scale(0.1 -0.1)">
       <use xlink:href="#DejaVuSans-31"/>
       <use xlink:href="#DejaVuSans-35" transform="translate(63.623047 0)"/>
       <use xlink:href="#DejaVuSans-30" transform="translate(127.246094 0)"/>
       <use xlink:href="#DejaVuSans-30" transform="translate(190.869141 0)"/>
       <use xlink:href="#DejaVuSans-30" transform="translate(254.492188 0)"/>
       <use xlink:href="#DejaVuSans-30" transform="translate(318.115234 0)"/>
      </g>
     </g>
    </g>
    <g id="xtick_7">
     <g id="line2d_7">
      <g>
       <use xlink:href="#mffef4efdcb" x="311.040583" y="229.451312" style="stroke: #000000; stroke-width: 0.8"/>
      </g>
     </g>
     <g id="text_7">
      <!-- 175000 -->
      <g transform="translate(291.953083 244.049749) scale(0.1 -0.1)">
       <use xlink:href="#DejaVuSans-31"/>
       <use xlink:href="#DejaVuSans-37" transform="translate(63.623047 0)"/>
       <use xlink:href="#DejaVuSans-35" transform="translate(127.246094 0)"/>
       <use xlink:href="#DejaVuSans-30" transform="translate(190.869141 0)"/>
       <use xlink:href="#DejaVuSans-30" transform="translate(254.492188 0)"/>
       <use xlink:href="#DejaVuSans-30" transform="translate(318.115234 0)"/>
      </g>
     </g>
    </g>
    <g id="xtick_8">
     <g id="line2d_8">
      <g>
       <use xlink:href="#mffef4efdcb" x="351.625579" y="229.451312" style="stroke: #000000; stroke-width: 0.8"/>
      </g>
     </g>
     <g id="text_8">
      <!-- 200000 -->
      <g transform="translate(332.538079 244.049749) scale(0.1 -0.1)">
       <use xlink:href="#DejaVuSans-32"/>
       <use xlink:href="#DejaVuSans-30" transform="translate(63.623047 0)"/>
       <use xlink:href="#DejaVuSans-30" transform="translate(127.246094 0)"/>
       <use xlink:href="#DejaVuSans-30" transform="translate(190.869141 0)"/>
       <use xlink:href="#DejaVuSans-30" transform="translate(254.492188 0)"/>
       <use xlink:href="#DejaVuSans-30" transform="translate(318.115234 0)"/>
      </g>
     </g>
    </g>
    <g id="text_9">
     <!-- toa [µs] -->
     <g transform="translate(201.367969 257.727874) scale(0.1 -0.1)">
      <defs>
       <path id="DejaVuSans-74" d="M 1172 4494 
L 1172 3500 
L 2356 3500 
L 2356 3053 
L 1172 3053 
L 1172 1153 
Q 1172 725 1289 603 
Q 1406 481 1766 481 
L 2356 481 
L 2356 0 
L 1766 0 
Q 1100 0 847 248 
Q 594 497 594 1153 
L 594 3053 
L 172 3053 
L 172 3500 
L 594 3500 
L 594 4494 
L 1172 4494 
z
" transform="scale(0.015625)"/>
       <path id="DejaVuSans-6f" d="M 1959 3097 
Q 1497 3097 1228 2736 
Q 959 2375 959 1747 
Q 959 1119 1226 758 
Q 1494 397 1959 397 
Q 2419 397 2687 759 
Q 2956 1122 2956 1747 
Q 2956 2369 2687 2733 
Q 2419 3097 1959 3097 
z
M 1959 3584 
Q 2709 3584 3137 3096 
Q 3566 2609 3566 1747 
Q 3566 888 3137 398 
Q 2709 -91 1959 -91 
Q 1206 -91 779 398 
Q 353 888 353 1747 
Q 353 2609 779 3096 
Q 1206 3584 1959 3584 
z
" transform="scale(0.015625)"/>
       <path id="DejaVuSans-61" d="M 2194 1759 
Q 1497 1759 1228 1600 
Q 959 1441 959 1056 
Q 959 750 1161 570 
Q 1363 391 1709 391 
Q 2188 391 2477 730 
Q 2766 1069 2766 1631 
L 2766 1759 
L 2194 1759 
z
M 3341 1997 
L 3341 0 
L 2766 0 
L 2766 531 
Q 2569 213 2275 61 
Q 1981 -91 1556 -91 
Q 1019 -91 701 211 
Q 384 513 384 1019 
Q 384 1609 779 1909 
Q 1175 2209 1959 2209 
L 2766 2209 
L 2766 2266 
Q 2766 2663 2505 2880 
Q 2244 3097 1772 3097 
Q 1472 3097 1187 3025 
Q 903 2953 641 2809 
L 641 3341 
Q 956 3463 1253 3523 
Q 1550 3584 1831 3584 
Q 2591 3584 2966 3190 
Q 3341 2797 3341 1997 
z
" transform="scale(0.015625)"/>
       <path id="DejaVuSans-20" transform="scale(0.015625)"/>
       <path id="DejaVuSans-5b" d="M 550 4863 
L 1875 4863 
L 1875 4416 
L 1125 4416 
L 1125 -397 
L 1875 -397 
L 1875 -844 
L 550 -844 
L 550 4863 
z
" transform="scale(0.015625)"/>
       <path id="DejaVuSans-b5" d="M 544 -1331 
L 544 3500 
L 1119 3500 
L 1119 1325 
Q 1119 872 1334 640 
Q 1550 409 1972 409 
Q 2434 409 2667 671 
Q 2900 934 2900 1459 
L 2900 3500 
L 3475 3500 
L 3475 806 
Q 3475 619 3529 530 
Q 3584 441 3700 441 
Q 3728 441 3778 458 
Q 3828 475 3916 513 
L 3916 50 
Q 3788 -22 3673 -56 
Q 3559 -91 3450 -91 
Q 3234 -91 3106 31 
Q 2978 153 2931 403 
Q 2775 156 2548 32 
Q 2322 -91 2016 -91 
Q 1697 -91 1473 31 
Q 1250 153 1119 397 
L 1119 -1331 
L 544 -1331 
z
" transform="scale(0.015625)"/>
       <path id="DejaVuSans-73" d="M 2834 3397 
L 2834 2853 
Q 2591 2978 2328 3040 
Q 2066 3103 1784 3103 
Q 1356 3103 1142 2972 
Q 928 2841 928 2578 
Q 928 2378 1081 2264 
Q 1234 2150 1697 2047 
L 1894 2003 
Q 2506 1872 2764 1633 
Q 3022 1394 3022 966 
Q 3022 478 2636 193 
Q 2250 -91 1575 -91 
Q 1294 -91 989 -36 
Q 684 19 347 128 
L 347 722 
Q 666 556 975 473 
Q 1284 391 1588 391 
Q 1994 391 2212 530 
Q 2431 669 2431 922 
Q 2431 1156 2273 1281 
Q 2116 1406 1581 1522 
L 1381 1569 
Q 847 1681 609 1914 
Q 372 2147 372 2553 
Q 372 3047 722 3315 
Q 1072 3584 1716 3584 
Q 2034 3584 2315 3537 
Q 2597 3491 2834 3397 
z
" transform="scale(0.015625)"/>
       <path id="DejaVuSans-5d" d="M 1947 4863 
L 1947 -844 
L 622 -844 
L 622 -397 
L 1369 -397 
L 1369 4416 
L 622 4416 
L 622 4863 
L 1947 4863 
z
" transform="scale(0.015625)"/>
      </defs>
      <use xlink:href="#DejaVuSans-74"/>
      <use xlink:href="#DejaVuSans-6f" transform="translate(39.208984 0)"/>
      <use xlink:href="#DejaVuSans-61" transform="translate(100.390625 0)"/>
      <use xlink:href="#DejaVuSans-20" transform="translate(161.669922 0)"/>
      <use xlink:href="#DejaVuSans-5b" transform="translate(193.457031 0)"/>
      <use xlink:href="#DejaVuSans-b5" transform="translate(232.470703 0)"/>
      <use xlink:href="#DejaVuSans-73" transform="translate(296.09375 0)"/>
      <use xlink:href="#DejaVuSans-5d" transform="translate(348.193359 0)"/>
     </g>
    </g>
   </g>
   <g id="matplotlib.axis_2">
    <g id="ytick_1">
     <g id="line2d_9">
      <defs>
       <path id="m80dcca3002" d="M 0 0 
L -3.5 0 
" style="stroke: #000000; stroke-width: 0.8"/>
      </defs>
      <g>
       <use xlink:href="#m80dcca3002" x="53.328125" y="219.371312" style="stroke: #000000; stroke-width: 0.8"/>
      </g>
     </g>
     <g id="text_10">
      <!-- 0 -->
      <g transform="translate(39.965625 223.170531) scale(0.1 -0.1)">
       <use xlink:href="#DejaVuSans-30"/>
      </g>
     </g>
    </g>
    <g id="ytick_2">
     <g id="line2d_10">
      <g>
       <use xlink:href="#m80dcca3002" x="53.328125" y="184.64263" style="stroke: #000000; stroke-width: 0.8"/>
      </g>
     </g>
     <g id="text_11">
      <!-- 200 -->
      <g transform="translate(27.240625 188.441848) scale(0.1 -0.1)">
       <use xlink:href="#DejaVuSans-32"/>
       <use xlink:href="#DejaVuSans-30" transform="translate(63.623047 0)"/>
       <use xlink:href="#DejaVuSans-30" transform="translate(127.246094 0)"/>
      </g>
     </g>
    </g>
    <g id="ytick_3">
     <g id="line2d_11">
      <g>
       <use xlink:href="#m80dcca3002" x="53.328125" y="149.913947" style="stroke: #000000; stroke-width: 0.8"/>
      </g>
     </g>
     <g id="text_12">
      <!-- 400 -->
      <g transform="translate(27.240625 153.713166) scale(0.1 -0.1)">
       <defs>
        <path id="DejaVuSans-34" d="M 2419 4116 
L 825 1625 
L 2419 1625 
L 2419 4116 
z
M 2253 4666 
L 3047 4666 
L 3047 1625 
L 3713 1625 
L 3713 1100 
L 3047 1100 
L 3047 0 
L 2419 0 
L 2419 1100 
L 313 1100 
L 313 1709 
L 2253 4666 
z
" transform="scale(0.015625)"/>
       </defs>
       <use xlink:href="#DejaVuSans-34"/>
       <use xlink:href="#DejaVuSans-30" transform="translate(63.623047 0)"/>
       <use xlink:href="#DejaVuSans-30" transform="translate(127.246094 0)"/>
      </g>
     </g>
    </g>
    <g id="ytick_4">
     <g id="line2d_12">
      <g>
       <use xlink:href="#m80dcca3002" x="53.328125" y="115.185265" style="stroke: #000000; stroke-width: 0.8"/>
      </g>
     </g>
     <g id="text_13">
      <!-- 600 -->
      <g transform="translate(27.240625 118.984484) scale(0.1 -0.1)">
       <defs>
        <path id="DejaVuSans-36" d="M 2113 2584 
Q 1688 2584 1439 2293 
Q 1191 2003 1191 1497 
Q 1191 994 1439 701 
Q 1688 409 2113 409 
Q 2538 409 2786 701 
Q 3034 994 3034 1497 
Q 3034 2003 2786 2293 
Q 2538 2584 2113 2584 
z
M 3366 4563 
L 3366 3988 
Q 3128 4100 2886 4159 
Q 2644 4219 2406 4219 
Q 1781 4219 1451 3797 
Q 1122 3375 1075 2522 
Q 1259 2794 1537 2939 
Q 1816 3084 2150 3084 
Q 2853 3084 3261 2657 
Q 3669 2231 3669 1497 
Q 3669 778 3244 343 
Q 2819 -91 2113 -91 
Q 1303 -91 875 529 
Q 447 1150 447 2328 
Q 447 3434 972 4092 
Q 1497 4750 2381 4750 
Q 2619 4750 2861 4703 
Q 3103 4656 3366 4563 
z
" transform="scale(0.015625)"/>
       </defs>
       <use xlink:href="#DejaVuSans-36"/>
       <use xlink:href="#DejaVuSans-30" transform="translate(63.623047 0)"/>
       <use xlink:href="#DejaVuSans-30" transform="translate(127.246094 0)"/>
      </g>
     </g>
    </g>
    <g id="ytick_5">
     <g id="line2d_13">
      <g>
       <use xlink:href="#m80dcca3002" x="53.328125" y="80.456583" style="stroke: #000000; stroke-width: 0.8"/>
      </g>
     </g>
     <g id="text_14">
      <!-- 800 -->
      <g transform="translate(27.240625 84.255802) scale(0.1 -0.1)">
       <defs>
        <path id="DejaVuSans-38" d="M 2034 2216 
Q 1584 2216 1326 1975 
Q 1069 1734 1069 1313 
Q 1069 891 1326 650 
Q 1584 409 2034 409 
Q 2484 409 2743 651 
Q 3003 894 3003 1313 
Q 3003 1734 2745 1975 
Q 2488 2216 2034 2216 
z
M 1403 2484 
Q 997 2584 770 2862 
Q 544 3141 544 3541 
Q 544 4100 942 4425 
Q 1341 4750 2034 4750 
Q 2731 4750 3128 4425 
Q 3525 4100 3525 3541 
Q 3525 3141 3298 2862 
Q 3072 2584 2669 2484 
Q 3125 2378 3379 2068 
Q 3634 1759 3634 1313 
Q 3634 634 3220 271 
Q 2806 -91 2034 -91 
Q 1263 -91 848 271 
Q 434 634 434 1313 
Q 434 1759 690 2068 
Q 947 2378 1403 2484 
z
M 1172 3481 
Q 1172 3119 1398 2916 
Q 1625 2713 2034 2713 
Q 2441 2713 2670 2916 
Q 2900 3119 2900 3481 
Q 2900 3844 2670 4047 
Q 2441 4250 2034 4250 
Q 1625 4250 1398 4047 
Q 1172 3844 1172 3481 
z
" transform="scale(0.015625)"/>
       </defs>
       <use xlink:href="#DejaVuSans-38"/>
       <use xlink:href="#DejaVuSans-30" transform="translate(63.623047 0)"/>
       <use xlink:href="#DejaVuSans-30" transform="translate(127.246094 0)"/>
      </g>
     </g>
    </g>
    <g id="ytick_6">
     <g id="line2d_14">
      <g>
       <use xlink:href="#m80dcca3002" x="53.328125" y="45.727901" style="stroke: #000000; stroke-width: 0.8"/>
      </g>
     </g>
     <g id="text_15">
      <!-- 1000 -->
      <g transform="translate(20.878125 49.52712) scale(0.1 -0.1)">
       <use xlink:href="#DejaVuSans-31"/>
       <use xlink:href="#DejaVuSans-30" transform="translate(63.623047 0)"/>
       <use xlink:href="#DejaVuSans-30" transform="translate(127.246094 0)"/>
       <use xlink:href="#DejaVuSans-30" transform="translate(190.869141 0)"/>
      </g>
     </g>
    </g>
    <g id="ytick_7">
     <g id="line2d_15">
      <g>
       <use xlink:href="#m80dcca3002" x="53.328125" y="10.999219" style="stroke: #000000; stroke-width: 0.8"/>
      </g>
     </g>
     <g id="text_16">
      <!-- 1200 -->
      <g transform="translate(20.878125 14.798437) scale(0.1 -0.1)">
       <use xlink:href="#DejaVuSans-31"/>
       <use xlink:href="#DejaVuSans-32" transform="translate(63.623047 0)"/>
       <use xlink:href="#DejaVuSans-30" transform="translate(127.246094 0)"/>
       <use xlink:href="#DejaVuSans-30" transform="translate(190.869141 0)"/>
      </g>
     </g>
    </g>
    <g id="text_17">
     <!-- [counts] -->
     <g transform="translate(14.798438 139.183812) rotate(-90) scale(0.1 -0.1)">
      <defs>
       <path id="DejaVuSans-63" d="M 3122 3366 
L 3122 2828 
Q 2878 2963 2633 3030 
Q 2388 3097 2138 3097 
Q 1578 3097 1268 2742 
Q 959 2388 959 1747 
Q 959 1106 1268 751 
Q 1578 397 2138 397 
Q 2388 397 2633 464 
Q 2878 531 3122 666 
L 3122 134 
Q 2881 22 2623 -34 
Q 2366 -91 2075 -91 
Q 1284 -91 818 406 
Q 353 903 353 1747 
Q 353 2603 823 3093 
Q 1294 3584 2113 3584 
Q 2378 3584 2631 3529 
Q 2884 3475 3122 3366 
z
" transform="scale(0.015625)"/>
       <path id="DejaVuSans-75" d="M 544 1381 
L 544 3500 
L 1119 3500 
L 1119 1403 
Q 1119 906 1312 657 
Q 1506 409 1894 409 
Q 2359 409 2629 706 
Q 2900 1003 2900 1516 
L 2900 3500 
L 3475 3500 
L 3475 0 
L 2900 0 
L 2900 538 
Q 2691 219 2414 64 
Q 2138 -91 1772 -91 
Q 1169 -91 856 284 
Q 544 659 544 1381 
z
M 1991 3584 
L 1991 3584 
z
" transform="scale(0.015625)"/>
       <path id="DejaVuSans-6e" d="M 3513 2113 
L 3513 0 
L 2938 0 
L 2938 2094 
Q 2938 2591 2744 2837 
Q 2550 3084 2163 3084 
Q 1697 3084 1428 2787 
Q 1159 2491 1159 1978 
L 1159 0 
L 581 0 
L 581 3500 
L 1159 3500 
L 1159 2956 
Q 1366 3272 1645 3428 
Q 1925 3584 2291 3584 
Q 2894 3584 3203 3211 
Q 3513 2838 3513 2113 
z
" transform="scale(0.015625)"/>
      </defs>
      <use xlink:href="#DejaVuSans-5b"/>
      <use xlink:href="#DejaVuSans-63" transform="translate(39.013672 0)"/>
      <use xlink:href="#DejaVuSans-6f" transform="translate(93.994141 0)"/>
      <use xlink:href="#DejaVuSans-75" transform="translate(155.175781 0)"/>
      <use xlink:href="#DejaVuSans-6e" transform="translate(218.554688 0)"/>
      <use xlink:href="#DejaVuSans-74" transform="translate(281.933594 0)"/>
      <use xlink:href="#DejaVuSans-73" transform="translate(321.142578 0)"/>
      <use xlink:href="#DejaVuSans-5d" transform="translate(373.242188 0)"/>
     </g>
    </g>
   </g>
   <g id="line2d_16">
    <path d="M 58.01409 188.289141 
L 58.326487 188.289141 
L 58.326487 141.579064 
L 58.638885 141.579064 
L 58.638885 112.406971 
L 58.951282 112.406971 
L 58.951282 109.80232 
L 59.26368 109.80232 
L 59.26368 100.946506 
L 59.576078 100.946506 
L 59.576078 98.341854 
L 59.888475 98.341854 
L 59.888475 85.144955 
L 60.513271 85.144955 
L 60.513271 75.247281 
L 60.825668 75.247281 
L 60.825668 84.103095 
L 61.138066 84.103095 
L 61.138066 70.732552 
L 61.450464 70.732552 
L 61.450464 69.343405 
L 61.762861 69.343405 
L 61.762861 51.80542 
L 62.075259 51.80542 
L 62.075259 61.355808 
L 62.387657 61.355808 
L 62.387657 49.200769 
L 62.700054 49.200769 
L 62.700054 53.194568 
L 63.012452 53.194568 
L 63.012452 37.04573 
L 63.324849 37.04573 
L 63.324849 34.962009 
L 63.637247 34.962009 
L 63.637247 17.771312 
L 63.949645 17.771312 
L 63.949645 37.04573 
L 64.262042 37.04573 
L 64.262042 38.261234 
L 64.57444 38.261234 
L 64.57444 39.997668 
L 64.886838 39.997668 
L 64.886838 36.698444 
L 65.199235 36.698444 
L 65.199235 44.16511 
L 65.511633 44.16511 
L 65.511633 47.985265 
L 65.824031 47.985265 
L 65.824031 61.876738 
L 66.136428 61.876738 
L 66.136428 48.332552 
L 66.448826 48.332552 
L 66.448826 46.769761 
L 66.761223 46.769761 
L 66.761223 58.40387 
L 67.073621 58.40387 
L 67.073621 64.655033 
L 67.386019 64.655033 
L 67.386019 73.858133 
L 67.698416 73.858133 
L 67.698416 94.174413 
L 68.010814 94.174413 
L 68.010814 96.431777 
L 68.323212 96.431777 
L 68.323212 105.634878 
L 68.635609 105.634878 
L 68.635609 113.275188 
L 68.948007 113.275188 
L 68.948007 126.993017 
L 69.260405 126.993017 
L 69.260405 138.279839 
L 69.572802 138.279839 
L 69.572802 144.183715 
L 69.8852 144.183715 
L 69.8852 156.859684 
L 70.197597 156.859684 
L 70.197597 167.104645 
L 70.509995 167.104645 
L 70.509995 165.368211 
L 70.822393 165.368211 
L 70.822393 178.391467 
L 71.13479 178.391467 
L 71.13479 184.989916 
L 71.447188 184.989916 
L 71.447188 194.713947 
L 71.759586 194.713947 
L 71.759586 202.701544 
L 72.071983 202.701544 
L 72.071983 209.473637 
L 72.384381 209.473637 
L 72.384381 214.335653 
L 72.696779 214.335653 
L 72.696779 219.024025 
L 73.009176 219.024025 
L 73.009176 219.371312 
L 75.508357 219.371312 
L 75.508357 219.024025 
L 75.820755 219.024025 
L 75.820755 205.653482 
L 76.133153 205.653482 
L 76.133153 170.230227 
L 76.44555 170.230227 
L 76.44555 140.88449 
L 76.757948 140.88449 
L 76.757948 106.503095 
L 77.070345 106.503095 
L 77.070345 100.599219 
L 77.382743 100.599219 
L 77.382743 94.521699 
L 77.695141 94.521699 
L 77.695141 112.580614 
L 78.007538 112.580614 
L 78.007538 108.065885 
L 78.319936 108.065885 
L 78.319936 110.84418 
L 78.632334 110.84418 
L 78.632334 110.496893 
L 78.944731 110.496893 
L 78.944731 105.634878 
L 79.257129 105.634878 
L 79.257129 115.011622 
L 79.569527 115.011622 
L 79.569527 105.982164 
L 79.881924 105.982164 
L 79.881924 109.975963 
L 80.194322 109.975963 
L 80.194322 113.969761 
L 80.50672 113.969761 
L 80.50672 111.88604 
L 80.819117 111.88604 
L 80.819117 113.275188 
L 81.131515 113.275188 
L 81.131515 116.053482 
L 81.443912 116.053482 
L 81.443912 121.262785 
L 81.75631 121.262785 
L 81.75631 122.651932 
L 82.068708 122.651932 
L 82.068708 122.825575 
L 82.381105 122.825575 
L 82.381105 131.334102 
L 82.693503 131.334102 
L 82.693503 117.616273 
L 83.005901 117.616273 
L 83.005901 123.172862 
L 83.318298 123.172862 
L 83.318298 128.382164 
L 83.630696 128.382164 
L 83.630696 129.250382 
L 83.943094 129.250382 
L 83.943094 132.549606 
L 84.255491 132.549606 
L 84.255491 136.022475 
L 84.567889 136.022475 
L 84.567889 133.417823 
L 84.880286 133.417823 
L 84.880286 137.932552 
L 85.192684 137.932552 
L 85.192684 140.36356 
L 85.505082 140.36356 
L 85.505082 137.411622 
L 85.817479 137.411622 
L 85.817479 141.752707 
L 86.129877 141.752707 
L 86.129877 138.453482 
L 86.442275 138.453482 
L 86.442275 145.399219 
L 86.754672 145.399219 
L 86.754672 149.393017 
L 87.06707 149.393017 
L 87.06707 152.518599 
L 87.379468 152.518599 
L 87.379468 149.913947 
L 87.691865 149.913947 
L 87.691865 148.00387 
L 88.004263 148.00387 
L 88.004263 157.554258 
L 88.31666 157.554258 
L 88.31666 154.949606 
L 88.629058 154.949606 
L 88.629058 164.499994 
L 88.941456 164.499994 
L 88.941456 167.972862 
L 89.253853 167.972862 
L 89.253853 175.960459 
L 89.566251 175.960459 
L 89.566251 179.780614 
L 89.878649 179.780614 
L 89.878649 188.115498 
L 90.191046 188.115498 
L 90.191046 190.546506 
L 90.503444 190.546506 
L 90.503444 199.92325 
L 90.815842 199.92325 
L 90.815842 202.180614 
L 91.128239 202.180614 
L 91.128239 206.521699 
L 91.440637 206.521699 
L 91.440637 213.293792 
L 91.753034 213.293792 
L 91.753034 214.68294 
L 92.065432 214.68294 
L 92.065432 218.329451 
L 92.37783 218.329451 
L 92.37783 219.024025 
L 92.690227 219.024025 
L 92.690227 216.940304 
L 93.002625 216.940304 
L 93.002625 207.56356 
L 93.315023 207.56356 
L 93.315023 193.84573 
L 93.62742 193.84573 
L 93.62742 180.996118 
L 93.939818 180.996118 
L 93.939818 170.056583 
L 94.252216 170.056583 
L 94.252216 159.117048 
L 94.564613 159.117048 
L 94.564613 157.727901 
L 94.877011 157.727901 
L 94.877011 162.068986 
L 95.189409 162.068986 
L 95.189409 155.470537 
L 95.501806 155.470537 
L 95.501806 162.416273 
L 95.814204 162.416273 
L 95.814204 164.673637 
L 96.126601 164.673637 
L 96.126601 158.422475 
L 96.438999 158.422475 
L 96.438999 159.985265 
L 96.751397 159.985265 
L 96.751397 167.625575 
L 97.063794 167.625575 
L 97.063794 163.80542 
L 97.376192 163.80542 
L 97.376192 167.799219 
L 97.68859 167.799219 
L 97.68859 170.230227 
L 98.000987 170.230227 
L 98.000987 167.625575 
L 98.313385 167.625575 
L 98.313385 158.075188 
L 98.625783 158.075188 
L 98.625783 166.236428 
L 98.93818 166.236428 
L 98.93818 166.062785 
L 99.250578 166.062785 
L 99.250578 167.104645 
L 99.562975 167.104645 
L 99.562975 169.362009 
L 99.875373 169.362009 
L 99.875373 171.966661 
L 100.187771 171.966661 
L 100.187771 175.786816 
L 100.500168 175.786816 
L 100.500168 176.655033 
L 100.812566 176.655033 
L 100.812566 179.606971 
L 101.124964 179.606971 
L 101.124964 181.343405 
L 101.437361 181.343405 
L 101.437361 182.906195 
L 101.749759 182.906195 
L 101.749759 182.558909 
L 102.062157 182.558909 
L 102.062157 183.427126 
L 102.374554 183.427126 
L 102.374554 188.636428 
L 102.686952 188.636428 
L 102.686952 187.247281 
L 102.999349 187.247281 
L 102.999349 194.019374 
L 103.311747 194.019374 
L 103.311747 190.199219 
L 103.624145 190.199219 
L 103.624145 194.019374 
L 103.936542 194.019374 
L 103.936542 195.755808 
L 104.24894 195.755808 
L 104.24894 200.96511 
L 104.561338 200.96511 
L 104.561338 199.575963 
L 104.873735 199.575963 
L 104.873735 200.270537 
L 105.186133 200.270537 
L 105.186133 206.868986 
L 105.498531 206.868986 
L 105.498531 204.611622 
L 105.810928 204.611622 
L 105.810928 205.479839 
L 106.123326 205.479839 
L 106.123326 207.216273 
L 106.435723 207.216273 
L 106.435723 212.772862 
L 106.748121 212.772862 
L 106.748121 213.120149 
L 107.060519 213.120149 
L 107.060519 217.113947 
L 107.372916 217.113947 
L 107.372916 218.676738 
L 107.685314 218.676738 
L 107.685314 218.329451 
L 107.997712 218.329451 
L 107.997712 216.940304 
L 108.310109 216.940304 
L 108.310109 213.641079 
L 108.622507 213.641079 
L 108.622507 200.96511 
L 108.934905 200.96511 
L 108.934905 198.186816 
L 109.247302 198.186816 
L 109.247302 193.672087 
L 109.5597 193.672087 
L 109.5597 192.80387 
L 109.872098 192.80387 
L 109.872098 193.498444 
L 110.184495 193.498444 
L 110.184495 194.540304 
L 110.496893 194.540304 
L 110.496893 194.887591 
L 110.80929 194.887591 
L 110.80929 195.408521 
L 111.121688 195.408521 
L 111.121688 199.40232 
L 111.434086 199.40232 
L 111.434086 195.061234 
L 111.746483 195.061234 
L 111.746483 203.048831 
L 112.058881 203.048831 
L 112.058881 201.48604 
L 112.371279 201.48604 
L 112.371279 198.360459 
L 112.683676 198.360459 
L 112.683676 200.44418 
L 112.996074 200.44418 
L 112.996074 200.096893 
L 113.308472 200.096893 
L 113.308472 203.743405 
L 113.620869 203.743405 
L 113.620869 201.312397 
L 113.933267 201.312397 
L 113.933267 204.264335 
L 114.245664 204.264335 
L 114.245664 203.048831 
L 114.558062 203.048831 
L 114.558062 206.868986 
L 114.87046 206.868986 
L 114.87046 207.216273 
L 115.182857 207.216273 
L 115.182857 207.56356 
L 115.807653 207.56356 
L 115.807653 208.258133 
L 116.12005 208.258133 
L 116.12005 210.341854 
L 116.432448 210.341854 
L 116.432448 207.56356 
L 116.744846 207.56356 
L 116.744846 211.904645 
L 117.057243 211.904645 
L 117.057243 211.210071 
L 117.682038 211.210071 
L 117.682038 212.425575 
L 117.994436 212.425575 
L 117.994436 212.599219 
L 118.306834 212.599219 
L 118.306834 215.030227 
L 118.931629 215.030227 
L 118.931629 215.377513 
L 119.244027 215.377513 
L 119.244027 214.68294 
L 119.556424 214.68294 
L 119.556424 216.940304 
L 119.868822 216.940304 
L 119.868822 216.072087 
L 120.18122 216.072087 
L 120.18122 217.287591 
L 120.493617 217.287591 
L 120.493617 217.808521 
L 120.806015 217.808521 
L 120.806015 218.329451 
L 121.118412 218.329451 
L 121.118412 218.676738 
L 121.43081 218.676738 
L 121.43081 217.982164 
L 121.743208 217.982164 
L 121.743208 219.371312 
L 122.680401 219.371312 
L 122.680401 218.329451 
L 122.992798 218.329451 
L 122.992798 217.287591 
L 123.305196 217.287591 
L 123.305196 213.641079 
L 123.617594 213.641079 
L 123.617594 210.168211 
L 123.929991 210.168211 
L 123.929991 207.56356 
L 124.242389 207.56356 
L 124.242389 205.653482 
L 124.554786 205.653482 
L 124.554786 204.785265 
L 124.867184 204.785265 
L 124.867184 209.820924 
L 125.179582 209.820924 
L 125.179582 207.737203 
L 125.491979 207.737203 
L 125.491979 208.08449 
L 125.804377 208.08449 
L 125.804377 209.299994 
L 126.116775 209.299994 
L 126.116775 209.126351 
L 126.429172 209.126351 
L 126.429172 208.60542 
L 126.74157 208.60542 
L 126.74157 209.647281 
L 127.053968 209.647281 
L 127.053968 211.383715 
L 127.366365 211.383715 
L 127.366365 212.251932 
L 127.678763 212.251932 
L 127.678763 212.599219 
L 127.991161 212.599219 
L 127.991161 212.078289 
L 128.303558 212.078289 
L 128.303558 210.515498 
L 128.615956 210.515498 
L 128.615956 213.120149 
L 128.928353 213.120149 
L 128.928353 213.641079 
L 129.240751 213.641079 
L 129.240751 213.293792 
L 129.553149 213.293792 
L 129.553149 212.772862 
L 129.865546 212.772862 
L 129.865546 212.946506 
L 130.177944 212.946506 
L 130.177944 214.509296 
L 130.490342 214.509296 
L 130.490342 215.030227 
L 130.802739 215.030227 
L 130.802739 214.856583 
L 131.115137 214.856583 
L 131.115137 216.419374 
L 131.427535 216.419374 
L 131.427535 216.593017 
L 131.739932 216.593017 
L 131.739932 216.419374 
L 132.05233 216.419374 
L 132.05233 216.593017 
L 132.364727 216.593017 
L 132.364727 218.503095 
L 132.677125 218.503095 
L 132.677125 217.461234 
L 133.30192 217.461234 
L 133.30192 218.155808 
L 133.614318 218.155808 
L 133.614318 218.850382 
L 133.926716 218.850382 
L 133.926716 218.676738 
L 134.551511 218.676738 
L 134.551511 219.197668 
L 134.863909 219.197668 
L 134.863909 218.850382 
L 135.176306 218.850382 
L 135.176306 219.024025 
L 135.488704 219.024025 
L 135.488704 219.371312 
L 136.738294 219.371312 
L 136.738294 219.197668 
L 137.050692 219.197668 
L 137.050692 219.371312 
L 137.36309 219.371312 
L 137.36309 218.155808 
L 137.675487 218.155808 
L 137.675487 216.593017 
L 137.987885 216.593017 
L 137.987885 214.509296 
L 138.300283 214.509296 
L 138.300283 214.856583 
L 138.61268 214.856583 
L 138.61268 210.862785 
L 138.925078 210.862785 
L 138.925078 210.341854 
L 139.237475 210.341854 
L 139.237475 207.910847 
L 139.549873 207.910847 
L 139.549873 206.348056 
L 139.862271 206.348056 
L 139.862271 205.827126 
L 140.174668 205.827126 
L 140.174668 204.437978 
L 140.487066 204.437978 
L 140.487066 202.875188 
L 140.799464 202.875188 
L 140.799464 206.348056 
L 141.111861 206.348056 
L 141.111861 204.958909 
L 141.424259 204.958909 
L 141.424259 207.04263 
L 141.736657 207.04263 
L 141.736657 204.785265 
L 142.049054 204.785265 
L 142.049054 206.174413 
L 142.361452 206.174413 
L 142.361452 208.08449 
L 142.67385 208.08449 
L 142.67385 205.132552 
L 142.986247 205.132552 
L 142.986247 206.174413 
L 143.298645 206.174413 
L 143.298645 206.695343 
L 143.611042 206.695343 
L 143.611042 205.479839 
L 143.92344 205.479839 
L 143.92344 207.737203 
L 144.235838 207.737203 
L 144.235838 207.04263 
L 144.548235 207.04263 
L 144.548235 206.174413 
L 144.860633 206.174413 
L 144.860633 208.431777 
L 145.173031 208.431777 
L 145.173031 207.56356 
L 145.485428 207.56356 
L 145.485428 209.994568 
L 145.797826 209.994568 
L 145.797826 206.521699 
L 146.110224 206.521699 
L 146.110224 212.425575 
L 146.422621 212.425575 
L 146.422621 210.689141 
L 146.735019 210.689141 
L 146.735019 207.737203 
L 147.047416 207.737203 
L 147.047416 209.647281 
L 147.359814 209.647281 
L 147.359814 213.120149 
L 147.672212 213.120149 
L 147.672212 210.515498 
L 147.984609 210.515498 
L 147.984609 211.036428 
L 148.297007 211.036428 
L 148.297007 212.946506 
L 148.609405 212.946506 
L 148.609405 213.293792 
L 149.2342 213.293792 
L 149.2342 212.425575 
L 149.546598 212.425575 
L 149.546598 214.162009 
L 149.858995 214.162009 
L 149.858995 215.7248 
L 150.171393 215.7248 
L 150.171393 214.335653 
L 150.48379 214.335653 
L 150.48379 216.24573 
L 150.796188 216.24573 
L 150.796188 217.287591 
L 151.108586 217.287591 
L 151.108586 217.982164 
L 151.420983 217.982164 
L 151.420983 218.329451 
L 151.733381 218.329451 
L 151.733381 218.329451 
" clip-path="url(#pf26af426bd)" style="fill: none; stroke: #1f77b4; stroke-width: 1.5; stroke-linecap: square"/>
   </g>
   <g id="line2d_17">
    <path d="M 173.950488 191.935653 
L 174.261913 191.935653 
L 174.261913 149.393017 
L 174.573338 149.393017 
L 174.573338 108.934102 
L 174.884763 108.934102 
L 174.884763 105.461234 
L 175.507612 105.461234 
L 175.507612 102.509296 
L 175.819037 102.509296 
L 175.819037 97.299994 
L 176.130462 97.299994 
L 176.130462 89.312397 
L 176.441886 89.312397 
L 176.441886 83.408521 
L 176.753311 83.408521 
L 176.753311 75.594568 
L 177.064736 75.594568 
L 177.064736 66.391467 
L 177.37616 66.391467 
L 177.37616 67.606971 
L 177.687585 67.606971 
L 177.687585 73.858133 
L 177.99901 73.858133 
L 177.99901 55.972862 
L 178.310435 55.972862 
L 178.310435 45.554258 
L 178.621859 45.554258 
L 178.621859 56.493792 
L 178.933284 56.493792 
L 178.933284 38.261234 
L 179.244709 38.261234 
L 179.244709 53.889141 
L 179.556134 53.889141 
L 179.556134 36.177513 
L 179.867558 36.177513 
L 179.867558 30.620924 
L 180.178983 30.620924 
L 180.178983 35.309296 
L 180.490408 35.309296 
L 180.490408 41.386816 
L 180.801833 41.386816 
L 180.801833 40.518599 
L 181.113257 40.518599 
L 181.113257 41.213172 
L 181.424682 41.213172 
L 181.424682 42.081389 
L 181.736107 42.081389 
L 181.736107 66.391467 
L 182.047532 66.391467 
L 182.047532 54.931002 
L 182.358956 54.931002 
L 182.358956 44.859684 
L 182.670381 44.859684 
L 182.670381 56.841079 
L 182.981806 56.841079 
L 182.981806 72.468986 
L 183.29323 72.468986 
L 183.29323 76.983715 
L 183.604655 76.983715 
L 183.604655 90.180614 
L 183.91608 90.180614 
L 183.91608 88.96511 
L 184.227505 88.96511 
L 184.227505 108.413172 
L 184.538929 108.413172 
L 184.538929 123.346506 
L 184.850354 123.346506 
L 184.850354 130.813172 
L 185.161779 130.813172 
L 185.161779 141.40542 
L 185.473204 141.40542 
L 185.473204 144.357358 
L 185.784628 144.357358 
L 185.784628 148.872087 
L 186.096053 148.872087 
L 186.096053 158.422475 
L 186.407478 158.422475 
L 186.407478 169.362009 
L 186.718903 169.362009 
L 186.718903 176.828676 
L 187.030327 176.828676 
L 187.030327 185.858133 
L 187.341752 185.858133 
L 187.341752 195.408521 
L 187.653177 195.408521 
L 187.653177 199.575963 
L 187.964602 199.575963 
L 187.964602 206.695343 
L 188.276026 206.695343 
L 188.276026 212.772862 
L 188.587451 212.772862 
L 188.587451 217.982164 
L 188.898876 217.982164 
L 188.898876 219.371312 
L 191.701698 219.371312 
L 191.701698 210.341854 
L 192.013123 210.341854 
L 192.013123 179.780614 
L 192.324548 179.780614 
L 192.324548 147.135653 
L 192.635973 147.135653 
L 192.635973 115.358909 
L 192.947397 115.358909 
L 192.947397 99.210071 
L 193.570247 99.210071 
L 193.570247 92.785265 
L 193.881672 92.785265 
L 193.881672 104.072087 
L 194.193096 104.072087 
L 194.193096 103.20387 
L 194.504521 103.20387 
L 194.504521 111.36511 
L 194.815946 111.36511 
L 194.815946 112.059684 
L 195.12737 112.059684 
L 195.12737 102.509296 
L 195.438795 102.509296 
L 195.438795 111.538754 
L 195.75022 111.538754 
L 195.75022 110.496893 
L 196.061645 110.496893 
L 196.061645 118.137203 
L 196.373069 118.137203 
L 196.373069 111.538754 
L 196.684494 111.538754 
L 196.684494 122.478289 
L 196.995919 122.478289 
L 196.995919 120.394568 
L 197.307344 120.394568 
L 197.307344 124.562009 
L 197.618768 124.562009 
L 197.618768 117.789916 
L 197.930193 117.789916 
L 197.930193 125.777513 
L 198.241618 125.777513 
L 198.241618 120.220924 
L 198.553043 120.220924 
L 198.553043 124.735653 
L 198.864467 124.735653 
L 198.864467 131.160459 
L 199.175892 131.160459 
L 199.175892 128.729451 
L 199.487317 128.729451 
L 199.487317 119.526351 
L 199.798742 119.526351 
L 199.798742 136.022475 
L 200.110166 136.022475 
L 200.110166 136.717048 
L 200.421591 136.717048 
L 200.421591 134.28604 
L 200.733016 134.28604 
L 200.733016 137.064335 
L 201.04444 137.064335 
L 201.04444 133.938754 
L 201.355865 133.938754 
L 201.355865 131.160459 
L 201.66729 131.160459 
L 201.66729 135.848831 
L 201.978715 135.848831 
L 201.978715 142.099994 
L 202.290139 142.099994 
L 202.290139 138.453482 
L 202.601564 138.453482 
L 202.601564 143.836428 
L 202.912989 143.836428 
L 202.912989 145.399219 
L 203.224414 145.399219 
L 203.224414 150.608521 
L 203.535838 150.608521 
L 203.535838 152.518599 
L 203.847263 152.518599 
L 203.847263 151.303095 
L 204.158688 151.303095 
L 204.158688 156.859684 
L 204.470113 156.859684 
L 204.470113 162.416273 
L 204.781537 162.416273 
L 204.781537 164.326351 
L 205.092962 164.326351 
L 205.092962 173.703095 
L 205.404387 173.703095 
L 205.404387 176.481389 
L 205.715812 176.481389 
L 205.715812 181.517048 
L 206.027236 181.517048 
L 206.027236 190.025575 
L 206.338661 190.025575 
L 206.338661 194.366661 
L 206.650086 194.366661 
L 206.650086 198.186816 
L 206.96151 198.186816 
L 206.96151 205.306195 
L 207.272935 205.306195 
L 207.272935 210.168211 
L 207.58436 210.168211 
L 207.58436 212.772862 
L 207.895785 212.772862 
L 207.895785 216.766661 
L 208.207209 216.766661 
L 208.207209 218.329451 
L 208.830059 218.329451 
L 208.830059 210.168211 
L 209.141484 210.168211 
L 209.141484 198.186816 
L 209.452908 198.186816 
L 209.452908 186.20542 
L 209.764333 186.20542 
L 209.764333 169.88294 
L 210.075758 169.88294 
L 210.075758 159.985265 
L 210.387183 159.985265 
L 210.387183 156.68604 
L 210.698607 156.68604 
L 210.698607 152.518599 
L 211.010032 152.518599 
L 211.010032 153.560459 
L 211.321457 153.560459 
L 211.321457 160.506195 
L 211.632882 160.506195 
L 211.632882 160.853482 
L 211.944306 160.853482 
L 211.944306 157.727901 
L 212.255731 157.727901 
L 212.255731 159.985265 
L 212.567156 159.985265 
L 212.567156 157.380614 
L 212.87858 157.380614 
L 212.87858 158.248831 
L 213.190005 158.248831 
L 213.190005 163.28449 
L 213.50143 163.28449 
L 213.50143 162.76356 
L 213.812855 162.76356 
L 213.812855 167.972862 
L 214.124279 167.972862 
L 214.124279 161.548056 
L 214.435704 161.548056 
L 214.435704 164.673637 
L 214.747129 164.673637 
L 214.747129 174.224025 
L 215.058554 174.224025 
L 215.058554 173.008521 
L 215.369978 173.008521 
L 215.369978 166.931002 
L 215.681403 166.931002 
L 215.681403 162.76356 
L 215.992828 162.76356 
L 215.992828 172.487591 
L 216.304253 172.487591 
L 216.304253 170.577513 
L 216.615677 170.577513 
L 216.615677 180.996118 
L 216.927102 180.996118 
L 216.927102 177.870537 
L 217.238527 177.870537 
L 217.238527 182.211622 
L 217.549952 182.211622 
L 217.549952 185.16356 
L 217.861376 185.16356 
L 217.861376 188.810071 
L 218.172801 188.810071 
L 218.172801 186.899994 
L 218.484226 186.899994 
L 218.484226 189.331002 
L 218.79565 189.331002 
L 218.79565 191.935653 
L 219.107075 191.935653 
L 219.107075 190.199219 
L 219.4185 190.199219 
L 219.4185 193.3248 
L 219.729925 193.3248 
L 219.729925 191.067436 
L 220.041349 191.067436 
L 220.041349 198.881389 
L 220.352774 198.881389 
L 220.352774 199.575963 
L 220.664199 199.575963 
L 220.664199 198.881389 
L 220.975624 198.881389 
L 220.975624 205.653482 
L 221.287048 205.653482 
L 221.287048 205.132552 
L 221.598473 205.132552 
L 221.598473 205.306195 
L 221.909898 205.306195 
L 221.909898 207.910847 
L 222.221323 207.910847 
L 222.221323 212.946506 
L 222.532747 212.946506 
L 222.532747 213.641079 
L 222.844172 213.641079 
L 222.844172 214.335653 
L 223.155597 214.335653 
L 223.155597 216.940304 
L 223.467022 216.940304 
L 223.467022 218.676738 
L 223.778446 218.676738 
L 223.778446 216.593017 
L 224.089871 216.593017 
L 224.089871 214.509296 
L 224.401296 214.509296 
L 224.401296 211.036428 
L 224.71272 211.036428 
L 224.71272 204.090692 
L 225.024145 204.090692 
L 225.024145 195.755808 
L 225.33557 195.755808 
L 225.33557 192.28294 
L 225.646995 192.28294 
L 225.646995 192.456583 
L 225.958419 192.456583 
L 225.958419 189.504645 
L 226.269844 189.504645 
L 226.269844 192.109296 
L 226.581269 192.109296 
L 226.581269 192.28294 
L 226.892694 192.28294 
L 226.892694 197.492242 
L 227.204118 197.492242 
L 227.204118 188.983715 
L 227.515543 188.983715 
L 227.515543 196.797668 
L 227.826968 196.797668 
L 227.826968 194.193017 
L 228.138393 194.193017 
L 228.138393 196.797668 
L 228.449817 196.797668 
L 228.449817 199.40232 
L 228.761242 199.40232 
L 228.761242 202.006971 
L 229.072667 202.006971 
L 229.072667 203.222475 
L 229.384092 203.222475 
L 229.384092 201.659684 
L 229.695516 201.659684 
L 229.695516 204.785265 
L 230.006941 204.785265 
L 230.006941 205.306195 
L 230.318366 205.306195 
L 230.318366 204.785265 
L 230.62979 204.785265 
L 230.62979 204.264335 
L 230.941215 204.264335 
L 230.941215 205.132552 
L 231.25264 205.132552 
L 231.25264 208.60542 
L 231.564065 208.60542 
L 231.564065 207.04263 
L 231.875489 207.04263 
L 231.875489 207.389916 
L 232.186914 207.389916 
L 232.186914 208.60542 
L 232.498339 208.60542 
L 232.498339 208.952707 
L 232.809764 208.952707 
L 232.809764 212.946506 
L 233.121188 212.946506 
L 233.121188 209.647281 
L 233.432613 209.647281 
L 233.432613 211.731002 
L 233.744038 211.731002 
L 233.744038 212.251932 
L 234.055463 212.251932 
L 234.055463 213.988366 
L 234.366887 213.988366 
L 234.366887 216.24573 
L 234.678312 216.24573 
L 234.678312 213.641079 
L 234.989737 213.641079 
L 234.989737 215.377513 
L 235.301162 215.377513 
L 235.301162 216.419374 
L 235.612586 216.419374 
L 235.612586 216.766661 
L 235.924011 216.766661 
L 235.924011 215.898444 
L 236.235436 215.898444 
L 236.235436 218.155808 
L 236.858285 218.155808 
L 236.858285 218.329451 
L 237.16971 218.329451 
L 237.16971 218.676738 
L 237.481135 218.676738 
L 237.481135 218.503095 
L 237.792559 218.503095 
L 237.792559 219.371312 
L 238.726834 219.371312 
L 238.726834 217.982164 
L 239.038258 217.982164 
L 239.038258 215.377513 
L 239.349683 215.377513 
L 239.349683 211.210071 
L 239.972533 211.210071 
L 239.972533 210.168211 
L 240.283957 210.168211 
L 240.283957 204.785265 
L 240.595382 204.785265 
L 240.595382 209.820924 
L 240.906807 209.820924 
L 240.906807 205.653482 
L 241.218232 205.653482 
L 241.218232 209.126351 
L 241.529656 209.126351 
L 241.529656 208.258133 
L 241.841081 208.258133 
L 241.841081 209.299994 
L 242.152506 209.299994 
L 242.152506 209.994568 
L 242.775355 209.994568 
L 242.775355 211.557358 
L 243.08678 211.557358 
L 243.08678 210.862785 
L 243.398205 210.862785 
L 243.398205 210.341854 
L 243.709629 210.341854 
L 243.709629 213.641079 
L 244.021054 213.641079 
L 244.021054 212.946506 
L 244.332479 212.946506 
L 244.332479 212.599219 
L 244.643904 212.599219 
L 244.643904 212.251932 
L 244.955328 212.251932 
L 244.955328 213.293792 
L 245.266753 213.293792 
L 245.266753 213.120149 
L 245.578178 213.120149 
L 245.578178 214.509296 
L 245.889603 214.509296 
L 245.889603 215.551157 
L 246.201027 215.551157 
L 246.201027 215.030227 
L 246.512452 215.030227 
L 246.512452 214.856583 
L 246.823877 214.856583 
L 246.823877 215.030227 
L 247.135302 215.030227 
L 247.135302 215.377513 
L 247.446726 215.377513 
L 247.446726 215.7248 
L 247.758151 215.7248 
L 247.758151 215.898444 
L 248.069576 215.898444 
L 248.069576 216.940304 
L 248.381 216.940304 
L 248.381 217.982164 
L 248.692425 217.982164 
L 248.692425 218.329451 
L 249.00385 218.329451 
L 249.00385 216.766661 
L 249.315275 216.766661 
L 249.315275 217.808521 
L 249.626699 217.808521 
L 249.626699 217.982164 
L 249.938124 217.982164 
L 249.938124 218.155808 
L 250.249549 218.155808 
L 250.249549 219.371312 
L 250.560974 219.371312 
L 250.560974 218.850382 
L 250.872398 218.850382 
L 250.872398 219.024025 
L 251.183823 219.024025 
L 251.183823 219.197668 
L 251.495248 219.197668 
L 251.495248 219.371312 
L 253.052372 219.371312 
L 253.052372 218.676738 
L 253.363796 218.676738 
L 253.363796 217.808521 
L 253.675221 217.808521 
L 253.675221 216.593017 
L 253.986646 216.593017 
L 253.986646 214.509296 
L 254.29807 214.509296 
L 254.29807 212.772862 
L 254.609495 212.772862 
L 254.609495 212.251932 
L 254.92092 212.251932 
L 254.92092 208.258133 
L 255.232345 208.258133 
L 255.232345 205.132552 
L 255.543769 205.132552 
L 255.543769 205.479839 
L 255.855194 205.479839 
L 255.855194 206.174413 
L 256.166619 206.174413 
L 256.166619 203.917048 
L 256.478044 203.917048 
L 256.478044 202.701544 
L 256.789468 202.701544 
L 256.789468 204.264335 
L 257.100893 204.264335 
L 257.100893 206.695343 
L 257.412318 206.695343 
L 257.412318 204.958909 
L 257.723743 204.958909 
L 257.723743 203.917048 
L 258.035167 203.917048 
L 258.035167 206.868986 
L 258.346592 206.868986 
L 258.346592 207.910847 
L 258.658017 207.910847 
L 258.658017 204.958909 
L 258.969442 204.958909 
L 258.969442 203.048831 
L 259.280866 203.048831 
L 259.280866 206.868986 
L 259.903716 206.868986 
L 259.903716 206.348056 
L 260.21514 206.348056 
L 260.21514 208.60542 
L 260.526565 208.60542 
L 260.526565 208.08449 
L 260.83799 208.08449 
L 260.83799 208.952707 
L 261.149415 208.952707 
L 261.149415 206.868986 
L 261.460839 206.868986 
L 261.460839 208.60542 
L 262.395114 208.60542 
L 262.395114 209.647281 
L 262.706538 209.647281 
L 262.706538 208.952707 
L 263.017963 208.952707 
L 263.017963 209.126351 
L 263.329388 209.126351 
L 263.329388 210.862785 
L 263.640813 210.862785 
L 263.640813 211.557358 
L 263.952237 211.557358 
L 263.952237 212.772862 
L 264.886512 212.772862 
L 264.886512 212.946506 
L 265.197936 212.946506 
L 265.197936 213.120149 
L 265.509361 213.120149 
L 265.509361 214.68294 
L 265.820786 214.68294 
L 265.820786 214.335653 
L 266.13221 214.335653 
L 266.13221 217.634878 
L 266.443635 217.634878 
L 266.443635 215.898444 
L 266.75506 215.898444 
L 266.75506 216.940304 
L 267.066485 216.940304 
L 267.066485 218.850382 
L 267.377909 218.850382 
L 267.377909 218.850382 
" clip-path="url(#pf26af426bd)" style="fill: none; stroke: #ff7f0e; stroke-width: 1.5; stroke-linecap: square"/>
   </g>
   <g id="line2d_18">
    <path d="M 289.902484 188.983715 
L 290.214311 188.983715 
L 290.214311 151.129451 
L 290.526139 151.129451 
L 290.526139 111.712397 
L 290.837966 111.712397 
L 290.837966 103.377513 
L 291.149794 103.377513 
L 291.149794 97.994568 
L 291.461621 97.994568 
L 291.461621 94.868986 
L 291.773449 94.868986 
L 291.773449 100.772862 
L 292.085276 100.772862 
L 292.085276 87.575963 
L 292.397103 87.575963 
L 292.397103 87.40232 
L 292.708931 87.40232 
L 292.708931 84.103095 
L 293.020758 84.103095 
L 293.020758 66.912397 
L 293.332586 66.912397 
L 293.332586 63.265885 
L 293.644413 63.265885 
L 293.644413 69.690692 
L 293.956241 69.690692 
L 293.956241 48.853482 
L 294.268068 48.853482 
L 294.268068 58.9248 
L 294.579895 58.9248 
L 294.579895 49.548056 
L 294.891723 49.548056 
L 294.891723 45.206971 
L 295.20355 45.206971 
L 295.20355 30.968211 
L 295.515378 30.968211 
L 295.515378 32.531002 
L 295.827205 32.531002 
L 295.827205 40.344955 
L 296.139033 40.344955 
L 296.139033 44.512397 
L 296.45086 44.512397 
L 296.45086 39.476738 
L 296.762687 39.476738 
L 296.762687 45.033327 
L 297.074515 45.033327 
L 297.074515 37.219374 
L 297.386342 37.219374 
L 297.386342 43.991467 
L 297.69817 43.991467 
L 297.69817 49.374413 
L 298.009997 49.374413 
L 298.009997 46.248831 
L 298.321825 46.248831 
L 298.321825 62.224025 
L 298.633652 62.224025 
L 298.633652 50.76356 
L 298.945479 50.76356 
L 298.945479 61.355808 
L 299.257307 61.355808 
L 299.257307 81.3248 
L 299.569134 81.3248 
L 299.569134 84.624025 
L 299.880962 84.624025 
L 299.880962 91.048831 
L 300.192789 91.048831 
L 300.192789 110.670537 
L 300.504617 110.670537 
L 300.504617 120.568211 
L 300.816444 120.568211 
L 300.816444 125.08294 
L 301.128271 125.08294 
L 301.128271 134.633327 
L 301.440099 134.633327 
L 301.440099 143.836428 
L 301.751926 143.836428 
L 301.751926 151.650382 
L 302.063754 151.650382 
L 302.063754 166.062785 
L 302.375581 166.062785 
L 302.375581 166.236428 
L 302.687409 166.236428 
L 302.687409 175.786816 
L 302.999236 175.786816 
L 302.999236 185.337203 
L 303.311063 185.337203 
L 303.311063 195.755808 
L 303.622891 195.755808 
L 303.622891 199.055033 
L 303.934718 199.055033 
L 303.934718 208.779064 
L 304.246546 208.779064 
L 304.246546 212.946506 
L 304.558373 212.946506 
L 304.558373 218.503095 
L 304.870201 218.503095 
L 304.870201 219.371312 
L 307.676648 219.371312 
L 307.676648 210.168211 
L 307.988475 210.168211 
L 307.988475 177.175963 
L 308.300302 177.175963 
L 308.300302 144.531002 
L 308.61213 144.531002 
L 308.61213 111.712397 
L 308.923957 111.712397 
L 308.923957 100.772862 
L 309.235785 100.772862 
L 309.235785 93.827126 
L 309.547612 93.827126 
L 309.547612 99.731002 
L 309.85944 99.731002 
L 309.85944 101.120149 
L 310.171267 101.120149 
L 310.171267 108.413172 
L 310.483094 108.413172 
L 310.483094 106.676738 
L 310.794922 106.676738 
L 310.794922 112.927901 
L 311.106749 112.927901 
L 311.106749 117.44263 
L 311.418577 117.44263 
L 311.418577 111.017823 
L 311.730404 111.017823 
L 311.730404 115.358909 
L 312.042232 115.358909 
L 312.042232 112.233327 
L 312.665886 112.233327 
L 312.665886 100.772862 
L 312.977714 100.772862 
L 312.977714 112.059684 
L 313.289541 112.059684 
L 313.289541 117.96356 
L 313.601369 117.96356 
L 313.601369 130.292242 
L 313.913196 130.292242 
L 313.913196 127.687591 
L 314.225024 127.687591 
L 314.225024 124.735653 
L 314.536851 124.735653 
L 314.536851 125.430227 
L 314.848678 125.430227 
L 314.848678 119.699994 
L 315.160506 119.699994 
L 315.160506 129.424025 
L 315.472333 129.424025 
L 315.472333 126.1248 
L 315.784161 126.1248 
L 315.784161 127.687591 
L 316.095988 127.687591 
L 316.095988 132.20232 
L 316.407816 132.20232 
L 316.407816 134.28604 
L 316.719643 134.28604 
L 316.719643 133.591467 
L 317.031471 133.591467 
L 317.031471 137.932552 
L 317.343298 137.932552 
L 317.343298 140.189916 
L 317.655125 140.189916 
L 317.655125 145.225575 
L 317.966953 145.225575 
L 317.966953 141.058133 
L 318.27878 141.058133 
L 318.27878 144.183715 
L 318.590608 144.183715 
L 318.590608 150.434878 
L 318.902435 150.434878 
L 318.902435 151.476738 
L 319.214263 151.476738 
L 319.214263 145.051932 
L 319.52609 145.051932 
L 319.52609 149.393017 
L 319.837917 149.393017 
L 319.837917 155.817823 
L 320.149745 155.817823 
L 320.149745 157.380614 
L 320.461572 157.380614 
L 320.461572 161.027126 
L 320.7734 161.027126 
L 320.7734 168.146506 
L 321.085227 168.146506 
L 321.085227 175.092242 
L 321.397055 175.092242 
L 321.397055 178.56511 
L 321.708882 178.56511 
L 321.708882 185.510847 
L 322.020709 185.510847 
L 322.020709 192.630227 
L 322.332537 192.630227 
L 322.332537 199.055033 
L 322.644364 199.055033 
L 322.644364 202.354258 
L 322.956192 202.354258 
L 322.956192 205.653482 
L 323.268019 205.653482 
L 323.268019 209.647281 
L 323.579847 209.647281 
L 323.579847 214.509296 
L 323.891674 214.509296 
L 323.891674 215.551157 
L 324.203501 215.551157 
L 324.203501 218.676738 
L 324.827156 218.676738 
L 324.827156 210.862785 
L 325.138984 210.862785 
L 325.138984 194.019374 
L 325.450811 194.019374 
L 325.450811 182.037978 
L 325.762639 182.037978 
L 325.762639 172.313947 
L 326.074466 172.313947 
L 326.074466 156.68604 
L 326.386293 156.68604 
L 326.386293 153.734102 
L 326.698121 153.734102 
L 326.698121 158.596118 
L 327.009948 158.596118 
L 327.009948 155.470537 
L 327.321776 155.470537 
L 327.321776 162.068986 
L 327.633603 162.068986 
L 327.633603 158.943405 
L 327.945431 158.943405 
L 327.945431 161.895343 
L 328.257258 161.895343 
L 328.257258 161.721699 
L 328.569085 161.721699 
L 328.569085 162.589916 
L 328.880913 162.589916 
L 328.880913 158.943405 
L 329.19274 158.943405 
L 329.19274 166.931002 
L 329.504568 166.931002 
L 329.504568 164.326351 
L 329.816395 164.326351 
L 329.816395 168.320149 
L 330.128223 168.320149 
L 330.128223 167.799219 
L 330.44005 167.799219 
L 330.44005 169.88294 
L 330.751878 169.88294 
L 330.751878 167.625575 
L 331.063705 167.625575 
L 331.063705 167.104645 
L 331.375532 167.104645 
L 331.375532 173.182164 
L 331.68736 173.182164 
L 331.68736 174.050382 
L 331.999187 174.050382 
L 331.999187 174.571312 
L 332.311015 174.571312 
L 332.311015 180.301544 
L 332.622842 180.301544 
L 332.622842 176.828676 
L 332.93467 176.828676 
L 332.93467 175.265885 
L 333.246497 175.265885 
L 333.246497 179.433327 
L 333.558324 179.433327 
L 333.558324 183.600769 
L 333.870152 183.600769 
L 333.870152 185.337203 
L 334.181979 185.337203 
L 334.181979 187.768211 
L 334.805634 187.768211 
L 334.805634 192.109296 
L 335.117462 192.109296 
L 335.117462 190.893792 
L 335.429289 190.893792 
L 335.429289 194.019374 
L 335.741116 194.019374 
L 335.741116 195.929451 
L 336.052944 195.929451 
L 336.052944 198.707746 
L 336.364771 198.707746 
L 336.364771 202.006971 
L 336.676599 202.006971 
L 336.676599 198.186816 
L 336.988426 198.186816 
L 336.988426 204.611622 
L 337.300254 204.611622 
L 337.300254 205.827126 
L 337.923908 205.827126 
L 337.923908 211.036428 
L 338.547563 211.036428 
L 338.547563 212.251932 
L 338.859391 212.251932 
L 338.859391 213.988366 
L 339.171218 213.988366 
L 339.171218 218.155808 
L 339.483046 218.155808 
L 339.483046 218.850382 
L 339.794873 218.850382 
L 339.794873 217.982164 
L 340.1067 217.982164 
L 340.1067 215.030227 
L 340.418528 215.030227 
L 340.418528 208.431777 
L 340.730355 208.431777 
L 340.730355 202.006971 
L 341.042183 202.006971 
L 341.042183 195.061234 
L 341.35401 195.061234 
L 341.35401 190.720149 
L 341.665838 190.720149 
L 341.665838 194.713947 
L 341.977665 194.713947 
L 341.977665 195.755808 
L 342.289492 195.755808 
L 342.289492 190.893792 
L 342.60132 190.893792 
L 342.60132 191.414723 
L 342.913147 191.414723 
L 342.913147 196.450382 
L 343.224975 196.450382 
L 343.224975 197.492242 
L 343.536802 197.492242 
L 343.536802 200.617823 
L 343.84863 200.617823 
L 343.84863 197.144955 
L 344.160457 197.144955 
L 344.160457 197.839529 
L 344.472285 197.839529 
L 344.472285 200.44418 
L 344.784112 200.44418 
L 344.784112 199.749606 
L 345.095939 199.749606 
L 345.095939 202.006971 
L 345.407767 202.006971 
L 345.407767 201.833327 
L 345.719594 201.833327 
L 345.719594 206.174413 
L 346.031422 206.174413 
L 346.031422 206.521699 
L 346.343249 206.521699 
L 346.343249 204.264335 
L 346.655077 204.264335 
L 346.655077 205.479839 
L 346.966904 205.479839 
L 346.966904 206.868986 
L 347.278731 206.868986 
L 347.278731 209.647281 
L 347.590559 209.647281 
L 347.590559 207.04263 
L 347.902386 207.04263 
L 347.902386 207.389916 
L 348.214214 207.389916 
L 348.214214 209.126351 
L 348.526041 209.126351 
L 348.526041 208.779064 
L 348.837869 208.779064 
L 348.837869 212.078289 
L 349.149696 212.078289 
L 349.149696 212.946506 
L 349.461523 212.946506 
L 349.461523 213.120149 
L 349.773351 213.120149 
L 349.773351 214.335653 
L 350.085178 214.335653 
L 350.085178 214.162009 
L 350.397006 214.162009 
L 350.397006 213.467436 
L 350.708833 213.467436 
L 350.708833 213.988366 
L 351.020661 213.988366 
L 351.020661 216.593017 
L 351.332488 216.593017 
L 351.332488 215.7248 
L 351.956143 215.7248 
L 351.956143 217.113947 
L 352.26797 217.113947 
L 352.26797 216.593017 
L 352.579798 216.593017 
L 352.579798 217.287591 
L 352.891625 217.287591 
L 352.891625 218.155808 
L 353.203453 218.155808 
L 353.203453 218.676738 
L 353.51528 218.676738 
L 353.51528 219.197668 
L 353.827107 219.197668 
L 353.827107 219.371312 
L 354.76259 219.371312 
L 354.76259 217.461234 
L 355.074417 217.461234 
L 355.074417 214.162009 
L 355.386245 214.162009 
L 355.386245 212.251932 
L 355.698072 212.251932 
L 355.698072 207.389916 
L 356.0099 207.389916 
L 356.0099 206.521699 
L 356.321727 206.521699 
L 356.321727 206.695343 
L 356.633554 206.695343 
L 356.633554 205.132552 
L 356.945382 205.132552 
L 356.945382 208.952707 
L 357.257209 208.952707 
L 357.257209 207.389916 
L 357.569037 207.389916 
L 357.569037 207.56356 
L 357.880864 207.56356 
L 357.880864 210.862785 
L 358.192692 210.862785 
L 358.192692 210.341854 
L 358.504519 210.341854 
L 358.504519 213.641079 
L 358.816346 213.641079 
L 358.816346 212.425575 
L 359.128174 212.425575 
L 359.128174 212.946506 
L 359.440001 212.946506 
L 359.440001 210.341854 
L 359.751829 210.341854 
L 359.751829 211.557358 
L 360.063656 211.557358 
L 360.063656 212.772862 
L 360.375484 212.772862 
L 360.375484 211.557358 
L 360.687311 211.557358 
L 360.687311 213.641079 
L 361.310966 213.641079 
L 361.310966 212.772862 
L 361.622793 212.772862 
L 361.622793 212.946506 
L 361.934621 212.946506 
L 361.934621 214.509296 
L 362.246448 214.509296 
L 362.246448 215.898444 
L 362.870103 215.898444 
L 362.870103 214.68294 
L 363.18193 214.68294 
L 363.18193 215.7248 
L 363.493758 215.7248 
L 363.493758 215.898444 
L 363.805585 215.898444 
L 363.805585 216.072087 
L 364.42924 216.072087 
L 364.42924 217.808521 
L 364.741068 217.808521 
L 364.741068 218.155808 
L 365.052895 218.155808 
L 365.052895 217.287591 
L 365.364722 217.287591 
L 365.364722 218.503095 
L 365.988377 218.503095 
L 365.988377 218.850382 
L 366.92386 218.850382 
L 366.92386 219.371312 
L 368.794824 219.371312 
L 368.794824 219.197668 
L 369.106652 219.197668 
L 369.106652 219.024025 
L 369.418479 219.024025 
L 369.418479 217.634878 
L 369.730307 217.634878 
L 369.730307 216.24573 
L 370.042134 216.24573 
L 370.042134 213.467436 
L 370.353961 213.467436 
L 370.353961 210.341854 
L 370.665789 210.341854 
L 370.665789 211.731002 
L 370.977616 211.731002 
L 370.977616 208.258133 
L 371.289444 208.258133 
L 371.289444 204.437978 
L 371.601271 204.437978 
L 371.601271 207.04263 
L 371.913099 207.04263 
L 371.913099 208.08449 
L 372.224926 208.08449 
L 372.224926 204.611622 
L 372.536753 204.611622 
L 372.536753 207.389916 
L 372.848581 207.389916 
L 372.848581 208.08449 
L 373.160408 208.08449 
L 373.160408 206.174413 
L 373.472236 206.174413 
L 373.472236 205.306195 
L 373.784063 205.306195 
L 373.784063 203.743405 
L 374.095891 203.743405 
L 374.095891 203.396118 
L 374.407718 203.396118 
L 374.407718 205.306195 
L 374.719545 205.306195 
L 374.719545 203.569761 
L 375.031373 203.569761 
L 375.031373 205.306195 
L 375.3432 205.306195 
L 375.3432 205.653482 
L 375.655028 205.653482 
L 375.655028 206.000769 
L 375.966855 206.000769 
L 375.966855 204.958909 
L 376.278683 204.958909 
L 376.278683 207.56356 
L 376.59051 207.56356 
L 376.59051 207.737203 
L 376.902337 207.737203 
L 376.902337 208.258133 
L 377.214165 208.258133 
L 377.214165 209.473637 
L 377.525992 209.473637 
L 377.525992 207.910847 
L 377.83782 207.910847 
L 377.83782 211.557358 
L 378.149647 211.557358 
L 378.149647 209.820924 
L 378.461475 209.820924 
L 378.461475 208.60542 
L 378.773302 208.60542 
L 378.773302 209.299994 
L 379.085129 209.299994 
L 379.085129 210.689141 
L 379.396957 210.689141 
L 379.396957 212.078289 
L 379.708784 212.078289 
L 379.708784 211.383715 
L 380.020612 211.383715 
L 380.020612 212.251932 
L 380.332439 212.251932 
L 380.332439 213.467436 
L 380.644267 213.467436 
L 380.644267 213.120149 
L 380.956094 213.120149 
L 380.956094 213.814723 
L 381.267921 213.814723 
L 381.267921 214.68294 
L 381.579749 214.68294 
L 381.579749 213.467436 
L 381.891576 213.467436 
L 381.891576 216.593017 
L 382.203404 216.593017 
L 382.203404 215.7248 
L 382.827059 215.7248 
L 382.827059 216.766661 
L 383.138886 216.766661 
L 383.138886 217.982164 
L 383.450714 217.982164 
L 383.450714 217.982164 
" clip-path="url(#pf26af426bd)" style="fill: none; stroke: #2ca02c; stroke-width: 1.5; stroke-linecap: square"/>
   </g>
   <g id="patch_3">
    <path d="M 53.328125 229.451312 
L 53.328125 7.691312 
" style="fill: none; stroke: #000000; stroke-width: 0.8; stroke-linejoin: miter; stroke-linecap: square"/>
   </g>
   <g id="patch_4">
    <path d="M 388.128125 229.451312 
L 388.128125 7.691312 
" style="fill: none; stroke: #000000; stroke-width: 0.8; stroke-linejoin: miter; stroke-linecap: square"/>
   </g>
   <g id="patch_5">
    <path d="M 53.328125 229.451312 
L 388.128125 229.451312 
" style="fill: none; stroke: #000000; stroke-width: 0.8; stroke-linejoin: miter; stroke-linecap: square"/>
   </g>
   <g id="patch_6">
    <path d="M 53.328125 7.691312 
L 388.128125 7.691312 
" style="fill: none; stroke: #000000; stroke-width: 0.8; stroke-linejoin: miter; stroke-linecap: square"/>
   </g>
   <g id="legend_1">
    <g id="patch_7">
     <path d="M 312.570312 59.725687 
L 381.128125 59.725687 
Q 383.128125 59.725687 383.128125 57.725687 
L 383.128125 14.691312 
Q 383.128125 12.691312 381.128125 12.691312 
L 312.570312 12.691312 
Q 310.570312 12.691312 310.570312 14.691312 
L 310.570312 57.725687 
Q 310.570312 59.725687 312.570312 59.725687 
z
" style="fill: #ffffff; opacity: 0.8; stroke: #cccccc; stroke-linejoin: miter"/>
    </g>
    <g id="line2d_19">
     <path d="M 314.570312 20.789749 
L 314.570312 20.789749 
L 324.570312 20.789749 
L 324.570312 20.789749 
L 334.570312 20.789749 
" style="fill: none; stroke: #1f77b4; stroke-width: 1.5; stroke-linecap: square"/>
    </g>
    <g id="text_18">
     <!-- pulse:0 -->
     <g transform="translate(342.570312 24.289749) scale(0.1 -0.1)">
      <defs>
       <path id="DejaVuSans-70" d="M 1159 525 
L 1159 -1331 
L 581 -1331 
L 581 3500 
L 1159 3500 
L 1159 2969 
Q 1341 3281 1617 3432 
Q 1894 3584 2278 3584 
Q 2916 3584 3314 3078 
Q 3713 2572 3713 1747 
Q 3713 922 3314 415 
Q 2916 -91 2278 -91 
Q 1894 -91 1617 61 
Q 1341 213 1159 525 
z
M 3116 1747 
Q 3116 2381 2855 2742 
Q 2594 3103 2138 3103 
Q 1681 3103 1420 2742 
Q 1159 2381 1159 1747 
Q 1159 1113 1420 752 
Q 1681 391 2138 391 
Q 2594 391 2855 752 
Q 3116 1113 3116 1747 
z
" transform="scale(0.015625)"/>
       <path id="DejaVuSans-6c" d="M 603 4863 
L 1178 4863 
L 1178 0 
L 603 0 
L 603 4863 
z
" transform="scale(0.015625)"/>
       <path id="DejaVuSans-65" d="M 3597 1894 
L 3597 1613 
L 953 1613 
Q 991 1019 1311 708 
Q 1631 397 2203 397 
Q 2534 397 2845 478 
Q 3156 559 3463 722 
L 3463 178 
Q 3153 47 2828 -22 
Q 2503 -91 2169 -91 
Q 1331 -91 842 396 
Q 353 884 353 1716 
Q 353 2575 817 3079 
Q 1281 3584 2069 3584 
Q 2775 3584 3186 3129 
Q 3597 2675 3597 1894 
z
M 3022 2063 
Q 3016 2534 2758 2815 
Q 2500 3097 2075 3097 
Q 1594 3097 1305 2825 
Q 1016 2553 972 2059 
L 3022 2063 
z
" transform="scale(0.015625)"/>
       <path id="DejaVuSans-3a" d="M 750 794 
L 1409 794 
L 1409 0 
L 750 0 
L 750 794 
z
M 750 3309 
L 1409 3309 
L 1409 2516 
L 750 2516 
L 750 3309 
z
" transform="scale(0.015625)"/>
      </defs>
      <use xlink:href="#DejaVuSans-70"/>
      <use xlink:href="#DejaVuSans-75" transform="translate(63.476562 0)"/>
      <use xlink:href="#DejaVuSans-6c" transform="translate(126.855469 0)"/>
      <use xlink:href="#DejaVuSans-73" transform="translate(154.638672 0)"/>
      <use xlink:href="#DejaVuSans-65" transform="translate(206.738281 0)"/>
      <use xlink:href="#DejaVuSans-3a" transform="translate(268.261719 0)"/>
      <use xlink:href="#DejaVuSans-30" transform="translate(301.953125 0)"/>
     </g>
    </g>
    <g id="line2d_20">
     <path d="M 314.570312 35.467874 
L 314.570312 35.467874 
L 324.570312 35.467874 
L 324.570312 35.467874 
L 334.570312 35.467874 
" style="fill: none; stroke: #ff7f0e; stroke-width: 1.5; stroke-linecap: square"/>
    </g>
    <g id="text_19">
     <!-- pulse:1 -->
     <g transform="translate(342.570312 38.967874) scale(0.1 -0.1)">
      <use xlink:href="#DejaVuSans-70"/>
      <use xlink:href="#DejaVuSans-75" transform="translate(63.476562 0)"/>
      <use xlink:href="#DejaVuSans-6c" transform="translate(126.855469 0)"/>
      <use xlink:href="#DejaVuSans-73" transform="translate(154.638672 0)"/>
      <use xlink:href="#DejaVuSans-65" transform="translate(206.738281 0)"/>
      <use xlink:href="#DejaVuSans-3a" transform="translate(268.261719 0)"/>
      <use xlink:href="#DejaVuSans-31" transform="translate(301.953125 0)"/>
     </g>
    </g>
    <g id="line2d_21">
     <path d="M 314.570312 50.145999 
L 314.570312 50.145999 
L 324.570312 50.145999 
L 324.570312 50.145999 
L 334.570312 50.145999 
" style="fill: none; stroke: #2ca02c; stroke-width: 1.5; stroke-linecap: square"/>
    </g>
    <g id="text_20">
     <!-- pulse:2 -->
     <g transform="translate(342.570312 53.645999) scale(0.1 -0.1)">
      <use xlink:href="#DejaVuSans-70"/>
      <use xlink:href="#DejaVuSans-75" transform="translate(63.476562 0)"/>
      <use xlink:href="#DejaVuSans-6c" transform="translate(126.855469 0)"/>
      <use xlink:href="#DejaVuSans-73" transform="translate(154.638672 0)"/>
      <use xlink:href="#DejaVuSans-65" transform="translate(206.738281 0)"/>
      <use xlink:href="#DejaVuSans-3a" transform="translate(268.261719 0)"/>
      <use xlink:href="#DejaVuSans-32" transform="translate(301.953125 0)"/>
     </g>
    </g>
   </g>
  </g>
 </g>
 <defs>
  <clipPath id="pf26af426bd">
   <rect x="53.328125" y="7.691312" width="334.8" height="221.76"/>
  </clipPath>
 </defs>
</svg>
