<?xml version="1.0" encoding="utf-8" standalone="no"?>
<!DOCTYPE svg PUBLIC "-//W3C//DTD SVG 1.1//EN"
  "http://www.w3.org/Graphics/SVG/1.1/DTD/svg11.dtd">
<svg xmlns:xlink="http://www.w3.org/1999/xlink" width="395.328125pt" height="266.51625pt" viewBox="0 0 395.328125 266.51625" xmlns="http://www.w3.org/2000/svg" version="1.1">
 <metadata>
  <rdf:RDF xmlns:dc="http://purl.org/dc/elements/1.1/" xmlns:cc="http://creativecommons.org/ns#" xmlns:rdf="http://www.w3.org/1999/02/22-rdf-syntax-ns#">
   <cc:Work>
    <dc:type rdf:resource="http://purl.org/dc/dcmitype/StillImage"/>
    <dc:date>2025-10-02T14:00:57.181825</dc:date>
    <dc:format>image/svg+xml</dc:format>
    <dc:creator>
     <cc:Agent>
      <dc:title>Matplotlib v3.10.1, https://matplotlib.org/</dc:title>
     </cc:Agent>
    </dc:creator>
   </cc:Work>
  </rdf:RDF>
 </metadata>
 <defs>
  <style type="text/css">*{stroke-linejoin: round; stroke-linecap: butt}</style>
 </defs>
 <g id="figure_1">
  <g id="patch_1">
   <path d="M 0 266.51625 
L 395.328125 266.51625 
L 395.328125 0 
L 0 0 
z
" style="fill: #ffffff"/>
  </g>
  <g id="axes_1">
   <g id="patch_2">
    <path d="M 53.328125 228.96 
L 388.128125 228.96 
L 388.128125 7.2 
L 53.328125 7.2 
z
" style="fill: #ffffff"/>
   </g>
   <g id="matplotlib.axis_1">
    <g id="xtick_1">
     <g id="line2d_1">
      <defs>
       <path id="m1b3ade6c01" d="M 0 0 
L 0 3.5 
" style="stroke: #000000; stroke-width: 0.8"/>
      </defs>
      <g>
       <use xlink:href="#m1b3ade6c01" x="67.575817" y="228.96" style="stroke: #000000; stroke-width: 0.8"/>
      </g>
     </g>
     <g id="text_1">
      <!-- 25000 -->
      <g transform="translate(51.669567 243.558437) scale(0.1 -0.1)">
       <defs>
        <path id="DejaVuSans-32" d="M 1228 531 
L 3431 531 
L 3431 0 
L 469 0 
L 469 531 
Q 828 903 1448 1529 
Q 2069 2156 2228 2338 
Q 2531 2678 2651 2914 
Q 2772 3150 2772 3378 
Q 2772 3750 2511 3984 
Q 2250 4219 1831 4219 
Q 1534 4219 1204 4116 
Q 875 4013 500 3803 
L 500 4441 
Q 881 4594 1212 4672 
Q 1544 4750 1819 4750 
Q 2544 4750 2975 4387 
Q 3406 4025 3406 3419 
Q 3406 3131 3298 2873 
Q 3191 2616 2906 2266 
Q 2828 2175 2409 1742 
Q 1991 1309 1228 531 
z
" transform="scale(0.015625)"/>
        <path id="DejaVuSans-35" d="M 691 4666 
L 3169 4666 
L 3169 4134 
L 1269 4134 
L 1269 2991 
Q 1406 3038 1543 3061 
Q 1681 3084 1819 3084 
Q 2600 3084 3056 2656 
Q 3513 2228 3513 1497 
Q 3513 744 3044 326 
Q 2575 -91 1722 -91 
Q 1428 -91 1123 -41 
Q 819 9 494 109 
L 494 744 
Q 775 591 1075 516 
Q 1375 441 1709 441 
Q 2250 441 2565 725 
Q 2881 1009 2881 1497 
Q 2881 1984 2565 2268 
Q 2250 2553 1709 2553 
Q 1456 2553 1204 2497 
Q 953 2441 691 2322 
L 691 4666 
z
" transform="scale(0.015625)"/>
        <path id="DejaVuSans-30" d="M 2034 4250 
Q 1547 4250 1301 3770 
Q 1056 3291 1056 2328 
Q 1056 1369 1301 889 
Q 1547 409 2034 409 
Q 2525 409 2770 889 
Q 3016 1369 3016 2328 
Q 3016 3291 2770 3770 
Q 2525 4250 2034 4250 
z
M 2034 4750 
Q 2819 4750 3233 4129 
Q 3647 3509 3647 2328 
Q 3647 1150 3233 529 
Q 2819 -91 2034 -91 
Q 1250 -91 836 529 
Q 422 1150 422 2328 
Q 422 3509 836 4129 
Q 1250 4750 2034 4750 
z
" transform="scale(0.015625)"/>
       </defs>
       <use xlink:href="#DejaVuSans-32"/>
       <use xlink:href="#DejaVuSans-35" transform="translate(63.623047 0)"/>
       <use xlink:href="#DejaVuSans-30" transform="translate(127.246094 0)"/>
       <use xlink:href="#DejaVuSans-30" transform="translate(190.869141 0)"/>
       <use xlink:href="#DejaVuSans-30" transform="translate(254.492188 0)"/>
      </g>
     </g>
    </g>
    <g id="xtick_2">
     <g id="line2d_2">
      <g>
       <use xlink:href="#m1b3ade6c01" x="108.159095" y="228.96" style="stroke: #000000; stroke-width: 0.8"/>
      </g>
     </g>
     <g id="text_2">
      <!-- 50000 -->
      <g transform="translate(92.252845 243.558437) scale(0.1 -0.1)">
       <use xlink:href="#DejaVuSans-35"/>
       <use xlink:href="#DejaVuSans-30" transform="translate(63.623047 0)"/>
       <use xlink:href="#DejaVuSans-30" transform="translate(127.246094 0)"/>
       <use xlink:href="#DejaVuSans-30" transform="translate(190.869141 0)"/>
       <use xlink:href="#DejaVuSans-30" transform="translate(254.492188 0)"/>
      </g>
     </g>
    </g>
    <g id="xtick_3">
     <g id="line2d_3">
      <g>
       <use xlink:href="#m1b3ade6c01" x="148.742374" y="228.96" style="stroke: #000000; stroke-width: 0.8"/>
      </g>
     </g>
     <g id="text_3">
      <!-- 75000 -->
      <g transform="translate(132.836124 243.558437) scale(0.1 -0.1)">
       <defs>
        <path id="DejaVuSans-37" d="M 525 4666 
L 3525 4666 
L 3525 4397 
L 1831 0 
L 1172 0 
L 2766 4134 
L 525 4134 
L 525 4666 
z
" transform="scale(0.015625)"/>
       </defs>
       <use xlink:href="#DejaVuSans-37"/>
       <use xlink:href="#DejaVuSans-35" transform="translate(63.623047 0)"/>
       <use xlink:href="#DejaVuSans-30" transform="translate(127.246094 0)"/>
       <use xlink:href="#DejaVuSans-30" transform="translate(190.869141 0)"/>
       <use xlink:href="#DejaVuSans-30" transform="translate(254.492188 0)"/>
      </g>
     </g>
    </g>
    <g id="xtick_4">
     <g id="line2d_4">
      <g>
       <use xlink:href="#m1b3ade6c01" x="189.325653" y="228.96" style="stroke: #000000; stroke-width: 0.8"/>
      </g>
     </g>
     <g id="text_4">
      <!-- 100000 -->
      <g transform="translate(170.238153 243.558437) scale(0.1 -0.1)">
       <defs>
        <path id="DejaVuSans-31" d="M 794 531 
L 1825 531 
L 1825 4091 
L 703 3866 
L 703 4441 
L 1819 4666 
L 2450 4666 
L 2450 531 
L 3481 531 
L 3481 0 
L 794 0 
L 794 531 
z
" transform="scale(0.015625)"/>
       </defs>
       <use xlink:href="#DejaVuSans-31"/>
       <use xlink:href="#DejaVuSans-30" transform="translate(63.623047 0)"/>
       <use xlink:href="#DejaVuSans-30" transform="translate(127.246094 0)"/>
       <use xlink:href="#DejaVuSans-30" transform="translate(190.869141 0)"/>
       <use xlink:href="#DejaVuSans-30" transform="translate(254.492188 0)"/>
       <use xlink:href="#DejaVuSans-30" transform="translate(318.115234 0)"/>
      </g>
     </g>
    </g>
    <g id="xtick_5">
     <g id="line2d_5">
      <g>
       <use xlink:href="#m1b3ade6c01" x="229.908932" y="228.96" style="stroke: #000000; stroke-width: 0.8"/>
      </g>
     </g>
     <g id="text_5">
      <!-- 125000 -->
      <g transform="translate(210.821432 243.558437) scale(0.1 -0.1)">
       <use xlink:href="#DejaVuSans-31"/>
       <use xlink:href="#DejaVuSans-32" transform="translate(63.623047 0)"/>
       <use xlink:href="#DejaVuSans-35" transform="translate(127.246094 0)"/>
       <use xlink:href="#DejaVuSans-30" transform="translate(190.869141 0)"/>
       <use xlink:href="#DejaVuSans-30" transform="translate(254.492188 0)"/>
       <use xlink:href="#DejaVuSans-30" transform="translate(318.115234 0)"/>
      </g>
     </g>
    </g>
    <g id="xtick_6">
     <g id="line2d_6">
      <g>
       <use xlink:href="#m1b3ade6c01" x="270.492211" y="228.96" style="stroke: #000000; stroke-width: 0.8"/>
      </g>
     </g>
     <g id="text_6">
      <!-- 150000 -->
      <g transform="translate(251.404711 243.558437) scale(0.1 -0.1)">
       <use xlink:href="#DejaVuSans-31"/>
       <use xlink:href="#DejaVuSans-35" transform="translate(63.623047 0)"/>
       <use xlink:href="#DejaVuSans-30" transform="translate(127.246094 0)"/>
       <use xlink:href="#DejaVuSans-30" transform="translate(190.869141 0)"/>
       <use xlink:href="#DejaVuSans-30" transform="translate(254.492188 0)"/>
       <use xlink:href="#DejaVuSans-30" transform="translate(318.115234 0)"/>
      </g>
     </g>
    </g>
    <g id="xtick_7">
     <g id="line2d_7">
      <g>
       <use xlink:href="#m1b3ade6c01" x="311.075489" y="228.96" style="stroke: #000000; stroke-width: 0.8"/>
      </g>
     </g>
     <g id="text_7">
      <!-- 175000 -->
      <g transform="translate(291.987989 243.558437) scale(0.1 -0.1)">
       <use xlink:href="#DejaVuSans-31"/>
       <use xlink:href="#DejaVuSans-37" transform="translate(63.623047 0)"/>
       <use xlink:href="#DejaVuSans-35" transform="translate(127.246094 0)"/>
       <use xlink:href="#DejaVuSans-30" transform="translate(190.869141 0)"/>
       <use xlink:href="#DejaVuSans-30" transform="translate(254.492188 0)"/>
       <use xlink:href="#DejaVuSans-30" transform="translate(318.115234 0)"/>
      </g>
     </g>
    </g>
    <g id="xtick_8">
     <g id="line2d_8">
      <g>
       <use xlink:href="#m1b3ade6c01" x="351.658768" y="228.96" style="stroke: #000000; stroke-width: 0.8"/>
      </g>
     </g>
     <g id="text_8">
      <!-- 200000 -->
      <g transform="translate(332.571268 243.558437) scale(0.1 -0.1)">
       <use xlink:href="#DejaVuSans-32"/>
       <use xlink:href="#DejaVuSans-30" transform="translate(63.623047 0)"/>
       <use xlink:href="#DejaVuSans-30" transform="translate(127.246094 0)"/>
       <use xlink:href="#DejaVuSans-30" transform="translate(190.869141 0)"/>
       <use xlink:href="#DejaVuSans-30" transform="translate(254.492188 0)"/>
       <use xlink:href="#DejaVuSans-30" transform="translate(318.115234 0)"/>
      </g>
     </g>
    </g>
    <g id="text_9">
     <!-- toa [µs] -->
     <g transform="translate(201.367969 257.236562) scale(0.1 -0.1)">
      <defs>
       <path id="DejaVuSans-74" d="M 1172 4494 
L 1172 3500 
L 2356 3500 
L 2356 3053 
L 1172 3053 
L 1172 1153 
Q 1172 725 1289 603 
Q 1406 481 1766 481 
L 2356 481 
L 2356 0 
L 1766 0 
Q 1100 0 847 248 
Q 594 497 594 1153 
L 594 3053 
L 172 3053 
L 172 3500 
L 594 3500 
L 594 4494 
L 1172 4494 
z
" transform="scale(0.015625)"/>
       <path id="DejaVuSans-6f" d="M 1959 3097 
Q 1497 3097 1228 2736 
Q 959 2375 959 1747 
Q 959 1119 1226 758 
Q 1494 397 1959 397 
Q 2419 397 2687 759 
Q 2956 1122 2956 1747 
Q 2956 2369 2687 2733 
Q 2419 3097 1959 3097 
z
M 1959 3584 
Q 2709 3584 3137 3096 
Q 3566 2609 3566 1747 
Q 3566 888 3137 398 
Q 2709 -91 1959 -91 
Q 1206 -91 779 398 
Q 353 888 353 1747 
Q 353 2609 779 3096 
Q 1206 3584 1959 3584 
z
" transform="scale(0.015625)"/>
       <path id="DejaVuSans-61" d="M 2194 1759 
Q 1497 1759 1228 1600 
Q 959 1441 959 1056 
Q 959 750 1161 570 
Q 1363 391 1709 391 
Q 2188 391 2477 730 
Q 2766 1069 2766 1631 
L 2766 1759 
L 2194 1759 
z
M 3341 1997 
L 3341 0 
L 2766 0 
L 2766 531 
Q 2569 213 2275 61 
Q 1981 -91 1556 -91 
Q 1019 -91 701 211 
Q 384 513 384 1019 
Q 384 1609 779 1909 
Q 1175 2209 1959 2209 
L 2766 2209 
L 2766 2266 
Q 2766 2663 2505 2880 
Q 2244 3097 1772 3097 
Q 1472 3097 1187 3025 
Q 903 2953 641 2809 
L 641 3341 
Q 956 3463 1253 3523 
Q 1550 3584 1831 3584 
Q 2591 3584 2966 3190 
Q 3341 2797 3341 1997 
z
" transform="scale(0.015625)"/>
       <path id="DejaVuSans-20" transform="scale(0.015625)"/>
       <path id="DejaVuSans-5b" d="M 550 4863 
L 1875 4863 
L 1875 4416 
L 1125 4416 
L 1125 -397 
L 1875 -397 
L 1875 -844 
L 550 -844 
L 550 4863 
z
" transform="scale(0.015625)"/>
       <path id="DejaVuSans-b5" d="M 544 -1331 
L 544 3500 
L 1119 3500 
L 1119 1325 
Q 1119 872 1334 640 
Q 1550 409 1972 409 
Q 2434 409 2667 671 
Q 2900 934 2900 1459 
L 2900 3500 
L 3475 3500 
L 3475 806 
Q 3475 619 3529 530 
Q 3584 441 3700 441 
Q 3728 441 3778 458 
Q 3828 475 3916 513 
L 3916 50 
Q 3788 -22 3673 -56 
Q 3559 -91 3450 -91 
Q 3234 -91 3106 31 
Q 2978 153 2931 403 
Q 2775 156 2548 32 
Q 2322 -91 2016 -91 
Q 1697 -91 1473 31 
Q 1250 153 1119 397 
L 1119 -1331 
L 544 -1331 
z
" transform="scale(0.015625)"/>
       <path id="DejaVuSans-73" d="M 2834 3397 
L 2834 2853 
Q 2591 2978 2328 3040 
Q 2066 3103 1784 3103 
Q 1356 3103 1142 2972 
Q 928 2841 928 2578 
Q 928 2378 1081 2264 
Q 1234 2150 1697 2047 
L 1894 2003 
Q 2506 1872 2764 1633 
Q 3022 1394 3022 966 
Q 3022 478 2636 193 
Q 2250 -91 1575 -91 
Q 1294 -91 989 -36 
Q 684 19 347 128 
L 347 722 
Q 666 556 975 473 
Q 1284 391 1588 391 
Q 1994 391 2212 530 
Q 2431 669 2431 922 
Q 2431 1156 2273 1281 
Q 2116 1406 1581 1522 
L 1381 1569 
Q 847 1681 609 1914 
Q 372 2147 372 2553 
Q 372 3047 722 3315 
Q 1072 3584 1716 3584 
Q 2034 3584 2315 3537 
Q 2597 3491 2834 3397 
z
" transform="scale(0.015625)"/>
       <path id="DejaVuSans-5d" d="M 1947 4863 
L 1947 -844 
L 622 -844 
L 622 -397 
L 1369 -397 
L 1369 4416 
L 622 4416 
L 622 4863 
L 1947 4863 
z
" transform="scale(0.015625)"/>
      </defs>
      <use xlink:href="#DejaVuSans-74"/>
      <use xlink:href="#DejaVuSans-6f" transform="translate(39.208984 0)"/>
      <use xlink:href="#DejaVuSans-61" transform="translate(100.390625 0)"/>
      <use xlink:href="#DejaVuSans-20" transform="translate(161.669922 0)"/>
      <use xlink:href="#DejaVuSans-5b" transform="translate(193.457031 0)"/>
      <use xlink:href="#DejaVuSans-b5" transform="translate(232.470703 0)"/>
      <use xlink:href="#DejaVuSans-73" transform="translate(296.09375 0)"/>
      <use xlink:href="#DejaVuSans-5d" transform="translate(348.193359 0)"/>
     </g>
    </g>
   </g>
   <g id="matplotlib.axis_2">
    <g id="ytick_1">
     <g id="line2d_9">
      <defs>
       <path id="md12e9bba36" d="M 0 0 
L -3.5 0 
" style="stroke: #000000; stroke-width: 0.8"/>
      </defs>
      <g>
       <use xlink:href="#md12e9bba36" x="53.328125" y="218.88" style="stroke: #000000; stroke-width: 0.8"/>
      </g>
     </g>
     <g id="text_10">
      <!-- 0 -->
      <g transform="translate(39.965625 222.679219) scale(0.1 -0.1)">
       <use xlink:href="#DejaVuSans-30"/>
      </g>
     </g>
    </g>
    <g id="ytick_2">
     <g id="line2d_10">
      <g>
       <use xlink:href="#md12e9bba36" x="53.328125" y="182.555676" style="stroke: #000000; stroke-width: 0.8"/>
      </g>
     </g>
     <g id="text_11">
      <!-- 200 -->
      <g transform="translate(27.240625 186.354894) scale(0.1 -0.1)">
       <use xlink:href="#DejaVuSans-32"/>
       <use xlink:href="#DejaVuSans-30" transform="translate(63.623047 0)"/>
       <use xlink:href="#DejaVuSans-30" transform="translate(127.246094 0)"/>
      </g>
     </g>
    </g>
    <g id="ytick_3">
     <g id="line2d_11">
      <g>
       <use xlink:href="#md12e9bba36" x="53.328125" y="146.231351" style="stroke: #000000; stroke-width: 0.8"/>
      </g>
     </g>
     <g id="text_12">
      <!-- 400 -->
      <g transform="translate(27.240625 150.03057) scale(0.1 -0.1)">
       <defs>
        <path id="DejaVuSans-34" d="M 2419 4116 
L 825 1625 
L 2419 1625 
L 2419 4116 
z
M 2253 4666 
L 3047 4666 
L 3047 1625 
L 3713 1625 
L 3713 1100 
L 3047 1100 
L 3047 0 
L 2419 0 
L 2419 1100 
L 313 1100 
L 313 1709 
L 2253 4666 
z
" transform="scale(0.015625)"/>
       </defs>
       <use xlink:href="#DejaVuSans-34"/>
       <use xlink:href="#DejaVuSans-30" transform="translate(63.623047 0)"/>
       <use xlink:href="#DejaVuSans-30" transform="translate(127.246094 0)"/>
      </g>
     </g>
    </g>
    <g id="ytick_4">
     <g id="line2d_12">
      <g>
       <use xlink:href="#md12e9bba36" x="53.328125" y="109.907027" style="stroke: #000000; stroke-width: 0.8"/>
      </g>
     </g>
     <g id="text_13">
      <!-- 600 -->
      <g transform="translate(27.240625 113.706246) scale(0.1 -0.1)">
       <defs>
        <path id="DejaVuSans-36" d="M 2113 2584 
Q 1688 2584 1439 2293 
Q 1191 2003 1191 1497 
Q 1191 994 1439 701 
Q 1688 409 2113 409 
Q 2538 409 2786 701 
Q 3034 994 3034 1497 
Q 3034 2003 2786 2293 
Q 2538 2584 2113 2584 
z
M 3366 4563 
L 3366 3988 
Q 3128 4100 2886 4159 
Q 2644 4219 2406 4219 
Q 1781 4219 1451 3797 
Q 1122 3375 1075 2522 
Q 1259 2794 1537 2939 
Q 1816 3084 2150 3084 
Q 2853 3084 3261 2657 
Q 3669 2231 3669 1497 
Q 3669 778 3244 343 
Q 2819 -91 2113 -91 
Q 1303 -91 875 529 
Q 447 1150 447 2328 
Q 447 3434 972 4092 
Q 1497 4750 2381 4750 
Q 2619 4750 2861 4703 
Q 3103 4656 3366 4563 
z
" transform="scale(0.015625)"/>
       </defs>
       <use xlink:href="#DejaVuSans-36"/>
       <use xlink:href="#DejaVuSans-30" transform="translate(63.623047 0)"/>
       <use xlink:href="#DejaVuSans-30" transform="translate(127.246094 0)"/>
      </g>
     </g>
    </g>
    <g id="ytick_5">
     <g id="line2d_13">
      <g>
       <use xlink:href="#md12e9bba36" x="53.328125" y="73.582703" style="stroke: #000000; stroke-width: 0.8"/>
      </g>
     </g>
     <g id="text_14">
      <!-- 800 -->
      <g transform="translate(27.240625 77.381921) scale(0.1 -0.1)">
       <defs>
        <path id="DejaVuSans-38" d="M 2034 2216 
Q 1584 2216 1326 1975 
Q 1069 1734 1069 1313 
Q 1069 891 1326 650 
Q 1584 409 2034 409 
Q 2484 409 2743 651 
Q 3003 894 3003 1313 
Q 3003 1734 2745 1975 
Q 2488 2216 2034 2216 
z
M 1403 2484 
Q 997 2584 770 2862 
Q 544 3141 544 3541 
Q 544 4100 942 4425 
Q 1341 4750 2034 4750 
Q 2731 4750 3128 4425 
Q 3525 4100 3525 3541 
Q 3525 3141 3298 2862 
Q 3072 2584 2669 2484 
Q 3125 2378 3379 2068 
Q 3634 1759 3634 1313 
Q 3634 634 3220 271 
Q 2806 -91 2034 -91 
Q 1263 -91 848 271 
Q 434 634 434 1313 
Q 434 1759 690 2068 
Q 947 2378 1403 2484 
z
M 1172 3481 
Q 1172 3119 1398 2916 
Q 1625 2713 2034 2713 
Q 2441 2713 2670 2916 
Q 2900 3119 2900 3481 
Q 2900 3844 2670 4047 
Q 2441 4250 2034 4250 
Q 1625 4250 1398 4047 
Q 1172 3844 1172 3481 
z
" transform="scale(0.015625)"/>
       </defs>
       <use xlink:href="#DejaVuSans-38"/>
       <use xlink:href="#DejaVuSans-30" transform="translate(63.623047 0)"/>
       <use xlink:href="#DejaVuSans-30" transform="translate(127.246094 0)"/>
      </g>
     </g>
    </g>
    <g id="ytick_6">
     <g id="line2d_14">
      <g>
       <use xlink:href="#md12e9bba36" x="53.328125" y="37.258378" style="stroke: #000000; stroke-width: 0.8"/>
      </g>
     </g>
     <g id="text_15">
      <!-- 1000 -->
      <g transform="translate(20.878125 41.057597) scale(0.1 -0.1)">
       <use xlink:href="#DejaVuSans-31"/>
       <use xlink:href="#DejaVuSans-30" transform="translate(63.623047 0)"/>
       <use xlink:href="#DejaVuSans-30" transform="translate(127.246094 0)"/>
       <use xlink:href="#DejaVuSans-30" transform="translate(190.869141 0)"/>
      </g>
     </g>
    </g>
    <g id="text_16">
     <!-- [counts] -->
     <g transform="translate(14.798438 138.6925) rotate(-90) scale(0.1 -0.1)">
      <defs>
       <path id="DejaVuSans-63" d="M 3122 3366 
L 3122 2828 
Q 2878 2963 2633 3030 
Q 2388 3097 2138 3097 
Q 1578 3097 1268 2742 
Q 959 2388 959 1747 
Q 959 1106 1268 751 
Q 1578 397 2138 397 
Q 2388 397 2633 464 
Q 2878 531 3122 666 
L 3122 134 
Q 2881 22 2623 -34 
Q 2366 -91 2075 -91 
Q 1284 -91 818 406 
Q 353 903 353 1747 
Q 353 2603 823 3093 
Q 1294 3584 2113 3584 
Q 2378 3584 2631 3529 
Q 2884 3475 3122 3366 
z
" transform="scale(0.015625)"/>
       <path id="DejaVuSans-75" d="M 544 1381 
L 544 3500 
L 1119 3500 
L 1119 1403 
Q 1119 906 1312 657 
Q 1506 409 1894 409 
Q 2359 409 2629 706 
Q 2900 1003 2900 1516 
L 2900 3500 
L 3475 3500 
L 3475 0 
L 2900 0 
L 2900 538 
Q 2691 219 2414 64 
Q 2138 -91 1772 -91 
Q 1169 -91 856 284 
Q 544 659 544 1381 
z
M 1991 3584 
L 1991 3584 
z
" transform="scale(0.015625)"/>
       <path id="DejaVuSans-6e" d="M 3513 2113 
L 3513 0 
L 2938 0 
L 2938 2094 
Q 2938 2591 2744 2837 
Q 2550 3084 2163 3084 
Q 1697 3084 1428 2787 
Q 1159 2491 1159 1978 
L 1159 0 
L 581 0 
L 581 3500 
L 1159 3500 
L 1159 2956 
Q 1366 3272 1645 3428 
Q 1925 3584 2291 3584 
Q 2894 3584 3203 3211 
Q 3513 2838 3513 2113 
z
" transform="scale(0.015625)"/>
      </defs>
      <use xlink:href="#DejaVuSans-5b"/>
      <use xlink:href="#DejaVuSans-63" transform="translate(39.013672 0)"/>
      <use xlink:href="#DejaVuSans-6f" transform="translate(93.994141 0)"/>
      <use xlink:href="#DejaVuSans-75" transform="translate(155.175781 0)"/>
      <use xlink:href="#DejaVuSans-6e" transform="translate(218.554688 0)"/>
      <use xlink:href="#DejaVuSans-74" transform="translate(281.933594 0)"/>
      <use xlink:href="#DejaVuSans-73" transform="translate(321.142578 0)"/>
      <use xlink:href="#DejaVuSans-5d" transform="translate(373.242188 0)"/>
     </g>
    </g>
   </g>
   <g id="line2d_15">
    <path d="M 58.015392 194.361081 
L 58.327876 194.361081 
L 58.327876 140.056216 
L 58.640361 140.056216 
L 58.640361 106.637838 
L 58.952845 106.637838 
L 58.952845 96.467027 
L 59.26533 96.467027 
L 59.26533 91.381622 
L 59.577814 91.381622 
L 59.577814 91.018378 
L 59.890299 91.018378 
L 59.890299 80.302703 
L 60.202783 80.302703 
L 60.202783 80.665946 
L 60.515267 80.665946 
L 60.515267 70.858378 
L 60.827752 70.858378 
L 60.827752 73.219459 
L 61.140236 73.219459 
L 61.140236 71.04 
L 61.452721 71.04 
L 61.452721 60.869189 
L 61.765205 60.869189 
L 61.765205 51.424865 
L 62.07769 51.424865 
L 62.07769 59.416216 
L 62.390174 59.416216 
L 62.390174 44.16 
L 62.702659 44.16 
L 62.702659 26.905946 
L 63.015143 26.905946 
L 63.015143 32.717838 
L 63.327628 32.717838 
L 63.327628 27.632432 
L 63.640112 27.632432 
L 63.640112 20.549189 
L 63.952596 20.549189 
L 63.952596 17.28 
L 64.265081 17.28 
L 64.265081 30.538378 
L 64.577565 30.538378 
L 64.577565 34.715676 
L 64.89005 34.715676 
L 64.89005 39.074595 
L 65.202534 39.074595 
L 65.202534 36.168649 
L 65.515019 36.168649 
L 65.515019 40.164324 
L 65.827503 40.164324 
L 65.827503 32.354595 
L 66.139988 32.354595 
L 66.139988 43.796757 
L 66.452472 43.796757 
L 66.452472 39.619459 
L 66.764957 39.619459 
L 66.764957 53.241081 
L 67.077441 53.241081 
L 67.077441 55.783784 
L 67.389925 55.783784 
L 67.389925 79.394595 
L 67.70241 79.394595 
L 67.70241 77.033514 
L 68.014894 77.033514 
L 68.014894 80.484324 
L 68.327379 80.484324 
L 68.327379 106.092973 
L 68.639863 106.092973 
L 68.639863 115.900541 
L 68.952348 115.900541 
L 68.952348 123.528649 
L 69.264832 123.528649 
L 69.264832 127.161081 
L 69.577317 127.161081 
L 69.577317 137.513514 
L 69.889801 137.513514 
L 69.889801 145.323243 
L 70.202286 145.323243 
L 70.202286 160.034595 
L 70.51477 160.034595 
L 70.51477 164.03027 
L 70.827254 164.03027 
L 70.827254 168.934054 
L 71.139739 168.934054 
L 71.139739 184.008649 
L 71.452223 184.008649 
L 71.452223 189.638919 
L 71.764708 189.638919 
L 71.764708 202.170811 
L 72.077192 202.170811 
L 72.077192 206.892973 
L 72.389677 206.892973 
L 72.389677 215.792432 
L 72.702161 215.792432 
L 72.702161 217.79027 
L 73.014646 217.79027 
L 73.014646 218.88 
L 75.827006 218.88 
L 75.827006 205.258378 
L 76.13949 205.258378 
L 76.13949 172.566486 
L 76.451975 172.566486 
L 76.451975 134.244324 
L 76.764459 134.244324 
L 76.764459 103.731892 
L 77.076944 103.731892 
L 77.076944 83.571892 
L 77.389428 83.571892 
L 77.389428 92.834595 
L 77.701912 92.834595 
L 77.701912 91.563243 
L 78.014397 91.563243 
L 78.014397 95.014054 
L 78.326881 95.014054 
L 78.326881 98.283243 
L 78.639366 98.283243 
L 78.639366 99.554595 
L 78.95185 99.554595 
L 78.95185 109.543784 
L 79.264335 109.543784 
L 79.264335 102.823784 
L 79.576819 102.823784 
L 79.576819 100.644324 
L 79.889304 100.644324 
L 79.889304 99.554595 
L 80.201788 99.554595 
L 80.201788 108.454054 
L 80.514273 108.454054 
L 80.514273 107.545946 
L 80.826757 107.545946 
L 80.826757 117.716757 
L 81.139241 117.716757 
L 81.139241 110.633514 
L 81.451726 110.633514 
L 81.451726 110.088649 
L 81.76421 110.088649 
L 81.76421 116.99027 
L 82.076695 116.99027 
L 82.076695 116.627027 
L 82.389179 116.627027 
L 82.389179 118.261622 
L 82.701664 118.261622 
L 82.701664 121.894054 
L 83.014148 121.894054 
L 83.014148 117.353514 
L 83.326633 117.353514 
L 83.326633 123.891892 
L 83.639117 123.891892 
L 83.639117 129.703784 
L 83.951602 129.703784 
L 83.951602 126.071351 
L 84.264086 126.071351 
L 84.264086 128.069189 
L 84.57657 128.069189 
L 84.57657 130.793514 
L 84.889055 130.793514 
L 84.889055 124.981622 
L 85.201539 124.981622 
L 85.201539 143.143784 
L 85.514024 143.143784 
L 85.514024 130.067027 
L 85.826508 130.067027 
L 85.826508 128.977297 
L 86.138993 128.977297 
L 86.138993 136.423784 
L 86.451477 136.423784 
L 86.451477 137.876757 
L 86.763962 137.876757 
L 86.763962 146.231351 
L 87.076446 146.231351 
L 87.076446 143.325405 
L 87.388931 143.325405 
L 87.388931 144.596757 
L 87.701415 144.596757 
L 87.701415 148.955676 
L 88.013899 148.955676 
L 88.013899 149.318919 
L 88.326384 149.318919 
L 88.326384 152.588108 
L 88.638868 152.588108 
L 88.638868 158.218378 
L 88.951353 158.218378 
L 88.951353 161.124324 
L 89.263837 161.124324 
L 89.263837 169.842162 
L 89.576322 169.842162 
L 89.576322 179.104865 
L 89.888806 179.104865 
L 89.888806 184.553514 
L 90.201291 184.553514 
L 90.201291 190.547027 
L 90.513775 190.547027 
L 90.513775 198.356757 
L 90.82626 198.356757 
L 90.82626 200.536216 
L 91.138744 200.536216 
L 91.138744 206.711351 
L 91.451228 206.711351 
L 91.451228 211.433514 
L 91.763713 211.433514 
L 91.763713 212.16 
L 92.076197 212.16 
L 92.076197 217.427027 
L 92.388682 217.427027 
L 92.388682 218.516757 
L 92.701166 218.516757 
L 92.701166 215.429189 
L 93.013651 215.429189 
L 93.013651 205.621622 
L 93.326135 205.621622 
L 93.326135 192.544865 
L 93.63862 192.544865 
L 93.63862 182.374054 
L 93.951104 182.374054 
L 93.951104 165.301622 
L 94.263589 165.301622 
L 94.263589 152.224865 
L 94.576073 152.224865 
L 94.576073 152.406486 
L 94.888557 152.406486 
L 94.888557 162.032432 
L 95.201042 162.032432 
L 95.201042 152.043243 
L 95.513526 152.043243 
L 95.513526 153.677838 
L 95.826011 153.677838 
L 95.826011 156.220541 
L 96.138495 156.220541 
L 96.138495 157.31027 
L 96.45098 157.31027 
L 96.45098 156.220541 
L 96.763464 156.220541 
L 96.763464 160.034595 
L 97.075949 160.034595 
L 97.075949 155.857297 
L 97.388433 155.857297 
L 97.388433 165.301622 
L 97.700918 165.301622 
L 97.700918 162.940541 
L 98.013402 162.940541 
L 98.013402 158.581622 
L 98.325886 158.581622 
L 98.325886 168.207568 
L 98.638371 168.207568 
L 98.638371 164.393514 
L 98.950855 164.393514 
L 98.950855 162.577297 
L 99.26334 162.577297 
L 99.26334 168.389189 
L 99.575824 168.389189 
L 99.575824 170.931892 
L 99.888309 170.931892 
L 99.888309 169.297297 
L 100.200793 169.297297 
L 100.200793 171.476757 
L 100.513278 171.476757 
L 100.513278 172.566486 
L 101.138247 172.566486 
L 101.138247 179.64973 
L 101.450731 179.64973 
L 101.450731 182.010811 
L 101.763215 182.010811 
L 101.763215 182.555676 
L 102.0757 182.555676 
L 102.0757 180.376216 
L 102.388184 180.376216 
L 102.388184 184.19027 
L 102.700669 184.19027 
L 102.700669 191.636757 
L 103.013153 191.636757 
L 103.013153 192.908108 
L 103.325638 192.908108 
L 103.325638 192.181622 
L 103.638122 192.181622 
L 103.638122 193.452973 
L 103.950607 193.452973 
L 103.950607 193.997838 
L 104.263091 193.997838 
L 104.263091 197.267027 
L 104.575576 197.267027 
L 104.575576 199.083243 
L 104.88806 199.083243 
L 104.88806 200.536216 
L 105.200544 200.536216 
L 105.200544 203.805405 
L 105.513029 203.805405 
L 105.513029 204.895135 
L 105.825513 204.895135 
L 105.825513 206.892973 
L 106.137998 206.892973 
L 106.137998 209.072432 
L 106.450482 209.072432 
L 106.450482 208.709189 
L 106.762967 208.709189 
L 106.762967 211.615135 
L 107.075451 211.615135 
L 107.075451 215.065946 
L 107.387936 215.065946 
L 107.387936 218.335135 
L 107.70042 218.335135 
L 107.70042 217.971892 
L 108.012905 217.971892 
L 108.012905 217.063784 
L 108.325389 217.063784 
L 108.325389 211.251892 
L 108.637873 211.251892 
L 108.637873 206.348108 
L 108.950358 206.348108 
L 108.950358 197.993514 
L 109.262842 197.993514 
L 109.262842 190.183784 
L 109.575327 190.183784 
L 109.575327 192.544865 
L 109.887811 192.544865 
L 109.887811 189.457297 
L 110.200296 189.457297 
L 110.200296 191.818378 
L 110.51278 191.818378 
L 110.51278 190.547027 
L 110.825265 190.547027 
L 110.825265 192.544865 
L 111.137749 192.544865 
L 111.137749 194.724324 
L 111.450234 194.724324 
L 111.450234 190.365405 
L 111.762718 190.365405 
L 111.762718 194.542703 
L 112.075202 194.542703 
L 112.075202 196.722162 
L 112.387687 196.722162 
L 112.387687 200.536216 
L 112.700171 200.536216 
L 112.700171 197.085405 
L 113.012656 197.085405 
L 113.012656 199.628108 
L 113.32514 199.628108 
L 113.32514 203.623784 
L 113.637625 203.623784 
L 113.637625 198.538378 
L 113.950109 198.538378 
L 113.950109 201.625946 
L 114.262594 201.625946 
L 114.262594 202.715676 
L 114.575078 202.715676 
L 114.575078 203.987027 
L 114.887563 203.987027 
L 114.887563 203.442162 
L 115.200047 203.442162 
L 115.200047 205.984865 
L 115.512531 205.984865 
L 115.512531 207.982703 
L 115.825016 207.982703 
L 115.825016 203.805405 
L 116.1375 203.805405 
L 116.1375 209.798919 
L 116.449985 209.798919 
L 116.449985 207.437838 
L 116.762469 207.437838 
L 116.762469 209.617297 
L 117.074954 209.617297 
L 117.074954 211.251892 
L 117.387438 211.251892 
L 117.387438 210.525405 
L 117.699923 210.525405 
L 117.699923 211.251892 
L 118.324892 211.251892 
L 118.324892 213.976216 
L 118.637376 213.976216 
L 118.637376 214.702703 
L 118.94986 214.702703 
L 118.94986 213.794595 
L 119.262345 213.794595 
L 119.262345 215.429189 
L 119.574829 215.429189 
L 119.574829 215.610811 
L 119.887314 215.610811 
L 119.887314 216.155676 
L 120.199798 216.155676 
L 120.199798 215.974054 
L 120.512283 215.974054 
L 120.512283 217.427027 
L 120.824767 217.427027 
L 120.824767 217.79027 
L 121.137252 217.79027 
L 121.137252 218.153514 
L 121.449736 218.153514 
L 121.449736 218.516757 
L 121.762221 218.516757 
L 121.762221 218.698378 
L 122.074705 218.698378 
L 122.074705 218.88 
L 122.699674 218.88 
L 122.699674 217.971892 
L 123.012158 217.971892 
L 123.012158 216.700541 
L 123.324643 216.700541 
L 123.324643 213.24973 
L 123.637127 213.24973 
L 123.637127 209.798919 
L 123.949612 209.798919 
L 123.949612 209.254054 
L 124.262096 209.254054 
L 124.262096 203.805405 
L 124.574581 203.805405 
L 124.574581 204.713514 
L 124.887065 204.713514 
L 124.887065 206.348108 
L 125.19955 206.348108 
L 125.19955 204.713514 
L 125.512034 204.713514 
L 125.512034 209.798919 
L 125.824518 209.798919 
L 125.824518 207.256216 
L 126.449487 207.256216 
L 126.449487 210.525405 
L 126.761972 210.525405 
L 126.761972 206.52973 
L 127.074456 206.52973 
L 127.074456 211.07027 
L 127.386941 211.07027 
L 127.386941 208.527568 
L 127.699425 208.527568 
L 127.699425 211.433514 
L 128.324394 211.433514 
L 128.324394 212.704865 
L 128.636879 212.704865 
L 128.636879 211.796757 
L 128.949363 211.796757 
L 128.949363 213.431351 
L 129.261847 213.431351 
L 129.261847 212.16 
L 129.574332 212.16 
L 129.574332 213.431351 
L 129.886816 213.431351 
L 129.886816 212.341622 
L 130.199301 212.341622 
L 130.199301 212.886486 
L 130.511785 212.886486 
L 130.511785 214.339459 
L 130.82427 214.339459 
L 130.82427 214.521081 
L 131.449239 214.521081 
L 131.449239 215.247568 
L 131.761723 215.247568 
L 131.761723 216.518919 
L 132.074208 216.518919 
L 132.074208 215.610811 
L 132.386692 215.610811 
L 132.386692 216.337297 
L 132.699176 216.337297 
L 132.699176 216.882162 
L 133.011661 216.882162 
L 133.011661 216.700541 
L 133.324145 216.700541 
L 133.324145 217.245405 
L 133.63663 217.245405 
L 133.63663 217.971892 
L 133.949114 217.971892 
L 133.949114 218.153514 
L 134.574083 218.153514 
L 134.574083 218.516757 
L 135.511537 218.516757 
L 135.511537 218.88 
L 137.073959 218.88 
L 137.073959 218.698378 
L 137.386443 218.698378 
L 137.386443 217.79027 
L 137.698928 217.79027 
L 137.698928 215.792432 
L 138.011412 215.792432 
L 138.011412 213.976216 
L 138.323897 213.976216 
L 138.323897 210.525405 
L 138.636381 210.525405 
L 138.636381 212.341622 
L 138.948866 212.341622 
L 138.948866 208.527568 
L 139.26135 208.527568 
L 139.26135 208.345946 
L 139.573834 208.345946 
L 139.573834 204.35027 
L 139.886319 204.35027 
L 139.886319 204.895135 
L 140.198803 204.895135 
L 140.198803 202.534054 
L 140.511288 202.534054 
L 140.511288 207.074595 
L 140.823772 207.074595 
L 140.823772 202.897297 
L 141.136257 202.897297 
L 141.136257 205.621622 
L 141.448741 205.621622 
L 141.448741 206.348108 
L 141.761226 206.348108 
L 141.761226 202.534054 
L 142.07371 202.534054 
L 142.07371 203.260541 
L 142.386195 203.260541 
L 142.386195 201.444324 
L 142.698679 201.444324 
L 142.698679 202.170811 
L 143.011163 202.170811 
L 143.011163 207.801081 
L 143.323648 207.801081 
L 143.323648 204.35027 
L 143.636132 204.35027 
L 143.636132 205.984865 
L 143.948617 205.984865 
L 143.948617 203.442162 
L 144.261101 203.442162 
L 144.261101 204.168649 
L 144.573586 204.168649 
L 144.573586 205.803243 
L 144.88607 205.803243 
L 144.88607 207.982703 
L 145.198555 207.982703 
L 145.198555 206.348108 
L 145.511039 206.348108 
L 145.511039 207.619459 
L 145.823524 207.619459 
L 145.823524 209.980541 
L 146.136008 209.980541 
L 146.136008 208.890811 
L 146.448492 208.890811 
L 146.448492 210.707027 
L 146.760977 210.707027 
L 146.760977 207.801081 
L 147.073461 207.801081 
L 147.073461 211.978378 
L 147.385946 211.978378 
L 147.385946 211.07027 
L 147.69843 211.07027 
L 147.69843 211.433514 
L 148.010915 211.433514 
L 148.010915 210.707027 
L 148.323399 210.707027 
L 148.323399 211.433514 
L 148.635884 211.433514 
L 148.635884 212.523243 
L 148.948368 212.523243 
L 148.948368 211.615135 
L 149.260853 211.615135 
L 149.260853 213.068108 
L 149.573337 213.068108 
L 149.573337 214.157838 
L 149.885821 214.157838 
L 149.885821 214.521081 
L 150.198306 214.521081 
L 150.198306 215.429189 
L 150.51079 215.429189 
L 150.51079 214.521081 
L 150.823275 214.521081 
L 150.823275 215.610811 
L 151.135759 215.610811 
L 151.135759 218.153514 
L 151.448244 218.153514 
L 151.448244 217.79027 
L 151.760728 217.79027 
L 151.760728 217.79027 
" clip-path="url(#pee4e63c320)" style="fill: none; stroke: #1f77b4; stroke-width: 1.5; stroke-linecap: square"/>
   </g>
   <g id="line2d_16">
    <path d="M 173.998578 193.634595 
L 174.311342 193.634595 
L 174.311342 136.968649 
L 174.624106 136.968649 
L 174.624106 110.996757 
L 174.936871 110.996757 
L 174.936871 96.83027 
L 175.249635 96.83027 
L 175.249635 102.460541 
L 175.5624 102.460541 
L 175.5624 87.930811 
L 175.875164 87.930811 
L 175.875164 87.385946 
L 176.187928 87.385946 
L 176.187928 86.659459 
L 176.500693 86.659459 
L 176.500693 70.313514 
L 176.813457 70.313514 
L 176.813457 66.681081 
L 177.126222 66.681081 
L 177.126222 69.405405 
L 177.438986 69.405405 
L 177.438986 51.788108 
L 177.75175 51.788108 
L 177.75175 56.147027 
L 178.064515 56.147027 
L 178.064515 59.961081 
L 178.377279 59.961081 
L 178.377279 43.978378 
L 178.690044 43.978378 
L 178.690044 40.164324 
L 179.002808 40.164324 
L 179.002808 24.363243 
L 179.315572 24.363243 
L 179.315572 36.168649 
L 179.628337 36.168649 
L 179.628337 25.452973 
L 179.941101 25.452973 
L 179.941101 32.172973 
L 180.253866 32.172973 
L 180.253866 21.457297 
L 180.56663 21.457297 
L 180.56663 30.356757 
L 180.879394 30.356757 
L 180.879394 30.901622 
L 181.192159 30.901622 
L 181.192159 38.348108 
L 181.504923 38.348108 
L 181.504923 54.875676 
L 181.817688 54.875676 
L 181.817688 36.168649 
L 182.130452 36.168649 
L 182.130452 53.604324 
L 182.443216 53.604324 
L 182.443216 51.96973 
L 182.755981 51.96973 
L 182.755981 39.074595 
L 183.068745 39.074595 
L 183.068745 52.696216 
L 183.38151 52.696216 
L 183.38151 81.029189 
L 183.694274 81.029189 
L 183.694274 89.020541 
L 184.007038 89.020541 
L 184.007038 99.00973 
L 184.319803 99.00973 
L 184.319803 101.734054 
L 184.632567 101.734054 
L 184.632567 107.545946 
L 184.945332 107.545946 
L 184.945332 125.88973 
L 185.258096 125.88973 
L 185.258096 135.697297 
L 185.57086 135.697297 
L 185.57086 137.331892 
L 185.883625 137.331892 
L 185.883625 152.76973 
L 186.196389 152.76973 
L 186.196389 154.949189 
L 186.509154 154.949189 
L 186.509154 170.205405 
L 186.821918 170.205405 
L 186.821918 172.384865 
L 187.134683 172.384865 
L 187.134683 182.374054 
L 187.447447 182.374054 
L 187.447447 191.091892 
L 187.760211 191.091892 
L 187.760211 199.083243 
L 188.072976 199.083243 
L 188.072976 207.619459 
L 188.38574 207.619459 
L 188.38574 211.978378 
L 188.698505 211.978378 
L 188.698505 218.698378 
L 189.011269 218.698378 
L 189.011269 218.88 
L 191.513384 218.88 
L 191.513384 218.516757 
L 191.826149 218.516757 
L 191.826149 202.897297 
L 192.138913 202.897297 
L 192.138913 168.207568 
L 192.451677 168.207568 
L 192.451677 131.883243 
L 192.764442 131.883243 
L 192.764442 83.39027 
L 193.077206 83.39027 
L 193.077206 89.747027 
L 193.389971 89.747027 
L 193.389971 108.272432 
L 193.702735 108.272432 
L 193.702735 97.92 
L 194.015499 97.92 
L 194.015499 95.922162 
L 194.328264 95.922162 
L 194.328264 92.471351 
L 194.641028 92.471351 
L 194.641028 111.541622 
L 194.953793 111.541622 
L 194.953793 97.556757 
L 195.266557 97.556757 
L 195.266557 98.646486 
L 195.579321 98.646486 
L 195.579321 117.535135 
L 195.892086 117.535135 
L 195.892086 110.815135 
L 196.20485 110.815135 
L 196.20485 109.362162 
L 196.517615 109.362162 
L 196.517615 108.272432 
L 196.830379 108.272432 
L 196.830379 110.815135 
L 197.143143 110.815135 
L 197.143143 114.629189 
L 197.455908 114.629189 
L 197.455908 119.351351 
L 197.768672 119.351351 
L 197.768672 114.810811 
L 198.081437 114.810811 
L 198.081437 112.994595 
L 198.394201 112.994595 
L 198.394201 120.259459 
L 198.706966 120.259459 
L 198.706966 125.708108 
L 199.01973 125.708108 
L 199.01973 122.983784 
L 199.332494 122.983784 
L 199.332494 125.708108 
L 199.645259 125.708108 
L 199.645259 121.530811 
L 199.958023 121.530811 
L 199.958023 126.616216 
L 200.270788 126.616216 
L 200.270788 120.985946 
L 200.583552 120.985946 
L 200.583552 126.797838 
L 200.896316 126.797838 
L 200.896316 135.878919 
L 201.209081 135.878919 
L 201.209081 130.975135 
L 201.521845 130.975135 
L 201.521845 134.789189 
L 201.83461 134.789189 
L 201.83461 134.970811 
L 202.147374 134.970811 
L 202.147374 135.152432 
L 202.460138 135.152432 
L 202.460138 137.15027 
L 202.772903 137.15027 
L 202.772903 139.32973 
L 203.085667 139.32973 
L 203.085667 146.594595 
L 203.398432 146.594595 
L 203.398432 154.949189 
L 203.711196 154.949189 
L 203.711196 148.955676 
L 204.02396 148.955676 
L 204.02396 150.953514 
L 204.336725 150.953514 
L 204.336725 157.673514 
L 204.649489 157.673514 
L 204.649489 154.585946 
L 204.962254 154.585946 
L 204.962254 161.305946 
L 205.275018 161.305946 
L 205.275018 164.575135 
L 205.587782 164.575135 
L 205.587782 179.286486 
L 205.900547 179.286486 
L 205.900547 179.64973 
L 206.213311 179.64973 
L 206.213311 191.455135 
L 206.526076 191.455135 
L 206.526076 198.356757 
L 206.83884 198.356757 
L 206.83884 203.442162 
L 207.151604 203.442162 
L 207.151604 205.621622 
L 207.464369 205.621622 
L 207.464369 212.523243 
L 207.777133 212.523243 
L 207.777133 213.794595 
L 208.089898 213.794595 
L 208.089898 216.337297 
L 208.402662 216.337297 
L 208.402662 218.88 
L 208.715426 218.88 
L 208.715426 213.612973 
L 209.028191 213.612973 
L 209.028191 203.623784 
L 209.340955 203.623784 
L 209.340955 190.365405 
L 209.65372 190.365405 
L 209.65372 177.651892 
L 209.966484 177.651892 
L 209.966484 160.034595 
L 210.279248 160.034595 
L 210.279248 156.220541 
L 210.592013 156.220541 
L 210.592013 149.318919 
L 210.904777 149.318919 
L 210.904777 152.043243 
L 211.217542 152.043243 
L 211.217542 156.583784 
L 211.530306 156.583784 
L 211.530306 154.222703 
L 211.843071 154.222703 
L 211.843071 160.579459 
L 212.155835 160.579459 
L 212.155835 154.767568 
L 212.468599 154.767568 
L 212.468599 155.312432 
L 212.781364 155.312432 
L 212.781364 158.4 
L 213.094128 158.4 
L 213.094128 159.48973 
L 213.406893 159.48973 
L 213.406893 157.855135 
L 213.719657 157.855135 
L 213.719657 162.758919 
L 214.032421 162.758919 
L 214.032421 161.487568 
L 214.345186 161.487568 
L 214.345186 162.577297 
L 214.65795 162.577297 
L 214.65795 163.667027 
L 214.970715 163.667027 
L 214.970715 162.577297 
L 215.283479 162.577297 
L 215.283479 168.389189 
L 215.596243 168.389189 
L 215.596243 163.303784 
L 215.909008 163.303784 
L 215.909008 170.023784 
L 216.221772 170.023784 
L 216.221772 168.934054 
L 216.534537 168.934054 
L 216.534537 176.562162 
L 216.847301 176.562162 
L 216.847301 176.380541 
L 217.160065 176.380541 
L 217.160065 175.654054 
L 217.47283 175.654054 
L 217.47283 187.459459 
L 217.785594 187.459459 
L 217.785594 178.741622 
L 218.098359 178.741622 
L 218.098359 188.004324 
L 218.411123 188.004324 
L 218.411123 186.36973 
L 218.723887 186.36973 
L 218.723887 188.185946 
L 219.036652 188.185946 
L 219.036652 190.91027 
L 219.349416 190.91027 
L 219.349416 191.273514 
L 219.662181 191.273514 
L 219.662181 194.179459 
L 219.974945 194.179459 
L 219.974945 190.91027 
L 220.287709 190.91027 
L 220.287709 198.175135 
L 220.600474 198.175135 
L 220.600474 203.442162 
L 220.913238 203.442162 
L 220.913238 199.80973 
L 221.226003 199.80973 
L 221.226003 205.076757 
L 221.538767 205.076757 
L 221.538767 202.715676 
L 221.851531 202.715676 
L 221.851531 207.256216 
L 222.164296 207.256216 
L 222.164296 209.798919 
L 222.47706 209.798919 
L 222.47706 211.07027 
L 222.789825 211.07027 
L 222.789825 214.339459 
L 223.102589 214.339459 
L 223.102589 214.521081 
L 223.415354 214.521081 
L 223.415354 217.427027 
L 223.728118 217.427027 
L 223.728118 216.700541 
L 224.040882 216.700541 
L 224.040882 214.702703 
L 224.353647 214.702703 
L 224.353647 207.982703 
L 224.666411 207.982703 
L 224.666411 206.892973 
L 224.979176 206.892973 
L 224.979176 199.264865 
L 225.29194 199.264865 
L 225.29194 187.641081 
L 225.917469 187.641081 
L 225.917469 187.096216 
L 226.230233 187.096216 
L 226.230233 192.181622 
L 226.542998 192.181622 
L 226.542998 191.273514 
L 226.855762 191.273514 
L 226.855762 188.730811 
L 227.168526 188.730811 
L 227.168526 194.905946 
L 227.481291 194.905946 
L 227.481291 195.995676 
L 227.794055 195.995676 
L 227.794055 196.722162 
L 228.10682 196.722162 
L 228.10682 198.538378 
L 228.419584 198.538378 
L 228.419584 195.814054 
L 228.732348 195.814054 
L 228.732348 202.170811 
L 229.045113 202.170811 
L 229.045113 199.446486 
L 229.357877 199.446486 
L 229.357877 202.534054 
L 229.670642 202.534054 
L 229.670642 201.081081 
L 229.983406 201.081081 
L 229.983406 204.35027 
L 230.29617 204.35027 
L 230.29617 203.260541 
L 230.608935 203.260541 
L 230.608935 202.715676 
L 230.921699 202.715676 
L 230.921699 206.711351 
L 231.234464 206.711351 
L 231.234464 206.52973 
L 231.547228 206.52973 
L 231.547228 207.256216 
L 231.859992 207.256216 
L 231.859992 208.709189 
L 232.172757 208.709189 
L 232.172757 208.527568 
L 232.485521 208.527568 
L 232.485521 207.801081 
L 232.798286 207.801081 
L 232.798286 208.890811 
L 233.11105 208.890811 
L 233.11105 210.343784 
L 233.736579 210.343784 
L 233.736579 211.433514 
L 234.049343 211.433514 
L 234.049343 212.704865 
L 234.362108 212.704865 
L 234.362108 212.16 
L 234.674872 212.16 
L 234.674872 213.976216 
L 234.987636 213.976216 
L 234.987636 213.612973 
L 235.300401 213.612973 
L 235.300401 214.884324 
L 235.613165 214.884324 
L 235.613165 213.794595 
L 235.92593 213.794595 
L 235.92593 214.884324 
L 236.238694 214.884324 
L 236.238694 217.427027 
L 236.551459 217.427027 
L 236.551459 217.608649 
L 236.864223 217.608649 
L 236.864223 218.153514 
L 237.489752 218.153514 
L 237.489752 218.516757 
L 237.802516 218.516757 
L 237.802516 218.88 
L 238.428045 218.88 
L 238.428045 218.516757 
L 238.740809 218.516757 
L 238.740809 216.882162 
L 239.053574 216.882162 
L 239.053574 213.976216 
L 239.366338 213.976216 
L 239.366338 212.704865 
L 239.679103 212.704865 
L 239.679103 208.890811 
L 239.991867 208.890811 
L 239.991867 207.982703 
L 240.304631 207.982703 
L 240.304631 206.348108 
L 240.617396 206.348108 
L 240.617396 205.621622 
L 240.93016 205.621622 
L 240.93016 206.166486 
L 241.242925 206.166486 
L 241.242925 204.35027 
L 241.555689 204.35027 
L 241.555689 208.164324 
L 241.868453 208.164324 
L 241.868453 203.260541 
L 242.181218 203.260541 
L 242.181218 206.892973 
L 242.493982 206.892973 
L 242.493982 208.709189 
L 242.806747 208.709189 
L 242.806747 209.435676 
L 243.119511 209.435676 
L 243.119511 210.525405 
L 243.432275 210.525405 
L 243.432275 210.707027 
L 244.057804 210.707027 
L 244.057804 213.976216 
L 244.370569 213.976216 
L 244.370569 210.707027 
L 244.683333 210.707027 
L 244.683333 213.976216 
L 244.996097 213.976216 
L 244.996097 213.431351 
L 245.308862 213.431351 
L 245.308862 212.704865 
L 245.621626 212.704865 
L 245.621626 213.794595 
L 245.934391 213.794595 
L 245.934391 214.339459 
L 246.247155 214.339459 
L 246.247155 214.157838 
L 246.559919 214.157838 
L 246.559919 215.065946 
L 247.185448 215.065946 
L 247.185448 215.792432 
L 247.498213 215.792432 
L 247.498213 215.974054 
L 247.810977 215.974054 
L 247.810977 215.792432 
L 248.123742 215.792432 
L 248.123742 215.065946 
L 248.436506 215.065946 
L 248.436506 215.974054 
L 248.74927 215.974054 
L 248.74927 216.700541 
L 249.062035 216.700541 
L 249.062035 217.608649 
L 249.374799 217.608649 
L 249.374799 217.245405 
L 250.000328 217.245405 
L 250.000328 217.79027 
L 250.313092 217.79027 
L 250.313092 218.153514 
L 250.625857 218.153514 
L 250.625857 218.88 
L 251.251386 218.88 
L 251.251386 218.698378 
L 251.56415 218.698378 
L 251.56415 218.88 
L 252.815208 218.88 
L 252.815208 218.698378 
L 253.127972 218.698378 
L 253.127972 218.153514 
L 253.440736 218.153514 
L 253.440736 217.608649 
L 253.753501 217.608649 
L 253.753501 216.155676 
L 254.066265 216.155676 
L 254.066265 213.612973 
L 254.37903 213.612973 
L 254.37903 213.068108 
L 254.691794 213.068108 
L 254.691794 207.437838 
L 255.004558 207.437838 
L 255.004558 208.890811 
L 255.317323 208.890811 
L 255.317323 206.348108 
L 255.630087 206.348108 
L 255.630087 202.170811 
L 255.942852 202.170811 
L 255.942852 206.52973 
L 256.255616 206.52973 
L 256.255616 201.807568 
L 256.56838 201.807568 
L 256.56838 203.623784 
L 256.881145 203.623784 
L 256.881145 204.895135 
L 257.193909 204.895135 
L 257.193909 203.987027 
L 257.506674 203.987027 
L 257.506674 202.715676 
L 257.819438 202.715676 
L 257.819438 205.258378 
L 258.132202 205.258378 
L 258.132202 203.987027 
L 258.444967 203.987027 
L 258.444967 207.256216 
L 258.757731 207.256216 
L 258.757731 204.35027 
L 259.070496 204.35027 
L 259.070496 205.258378 
L 259.38326 205.258378 
L 259.38326 206.348108 
L 259.696024 206.348108 
L 259.696024 205.803243 
L 260.008789 205.803243 
L 260.008789 207.074595 
L 260.321553 207.074595 
L 260.321553 207.619459 
L 260.634318 207.619459 
L 260.634318 206.711351 
L 260.947082 206.711351 
L 260.947082 205.258378 
L 261.259847 205.258378 
L 261.259847 207.801081 
L 261.572611 207.801081 
L 261.572611 205.803243 
L 261.885375 205.803243 
L 261.885375 210.525405 
L 262.19814 210.525405 
L 262.19814 208.709189 
L 262.510904 208.709189 
L 262.510904 208.164324 
L 262.823669 208.164324 
L 262.823669 210.162162 
L 263.136433 210.162162 
L 263.136433 209.980541 
L 263.449197 209.980541 
L 263.449197 207.619459 
L 263.761962 207.619459 
L 263.761962 209.072432 
L 264.074726 209.072432 
L 264.074726 212.523243 
L 264.387491 212.523243 
L 264.387491 210.888649 
L 264.700255 210.888649 
L 264.700255 213.24973 
L 265.013019 213.24973 
L 265.013019 212.886486 
L 265.325784 212.886486 
L 265.325784 213.431351 
L 265.638548 213.431351 
L 265.638548 214.521081 
L 265.951313 214.521081 
L 265.951313 213.794595 
L 266.264077 213.794595 
L 266.264077 215.247568 
L 266.576841 215.247568 
L 266.576841 215.792432 
L 267.20237 215.792432 
L 267.20237 217.427027 
L 267.515135 217.427027 
L 267.515135 217.971892 
L 267.827899 217.971892 
L 267.827899 217.971892 
" clip-path="url(#pee4e63c320)" style="fill: none; stroke: #ff7f0e; stroke-width: 1.5; stroke-linecap: square"/>
   </g>
   <g id="line2d_17">
    <path d="M 289.931541 190.91027 
L 290.243277 190.91027 
L 290.243277 142.417297 
L 290.555012 142.417297 
L 290.555012 105.003243 
L 290.866747 105.003243 
L 290.866747 103.005405 
L 291.178482 103.005405 
L 291.178482 98.101622 
L 291.490217 98.101622 
L 291.490217 90.836757 
L 291.801953 90.836757 
L 291.801953 87.385946 
L 292.113688 87.385946 
L 292.113688 86.477838 
L 292.425423 86.477838 
L 292.425423 73.401081 
L 292.737158 73.401081 
L 292.737158 66.862703 
L 293.048893 66.862703 
L 293.048893 65.591351 
L 293.360629 65.591351 
L 293.360629 61.595676 
L 293.672364 61.595676 
L 293.672364 52.151351 
L 293.984099 52.151351 
L 293.984099 53.241081 
L 294.295834 53.241081 
L 294.295834 44.886486 
L 294.607569 44.886486 
L 294.607569 39.256216 
L 294.919304 39.256216 
L 294.919304 34.715676 
L 295.23104 34.715676 
L 295.23104 30.72 
L 295.542775 30.72 
L 295.542775 33.625946 
L 295.85451 33.625946 
L 295.85451 27.995676 
L 296.166245 27.995676 
L 296.166245 25.452973 
L 296.47798 25.452973 
L 296.47798 20.004324 
L 296.789716 20.004324 
L 296.789716 31.446486 
L 297.101451 31.446486 
L 297.101451 33.989189 
L 297.413186 33.989189 
L 297.413186 29.993514 
L 297.724921 29.993514 
L 297.724921 35.805405 
L 298.036656 35.805405 
L 298.036656 39.801081 
L 298.348392 39.801081 
L 298.348392 39.619459 
L 298.660127 39.619459 
L 298.660127 49.608649 
L 298.971862 49.608649 
L 298.971862 52.514595 
L 299.283597 52.514595 
L 299.283597 73.219459 
L 299.595332 73.219459 
L 299.595332 76.488649 
L 299.907067 76.488649 
L 299.907067 92.471351 
L 300.218803 92.471351 
L 300.218803 101.552432 
L 300.530538 101.552432 
L 300.530538 112.994595 
L 300.842273 112.994595 
L 300.842273 118.08 
L 301.154008 118.08 
L 301.154008 123.891892 
L 301.465743 123.891892 
L 301.465743 131.883243 
L 301.777479 131.883243 
L 301.777479 144.415135 
L 302.089214 144.415135 
L 302.089214 155.312432 
L 302.400949 155.312432 
L 302.400949 169.297297 
L 302.712684 169.297297 
L 302.712684 178.378378 
L 303.024419 178.378378 
L 303.024419 181.829189 
L 303.336154 181.829189 
L 303.336154 192.726486 
L 303.64789 192.726486 
L 303.64789 198.175135 
L 303.959625 198.175135 
L 303.959625 204.713514 
L 304.27136 204.713514 
L 304.27136 211.251892 
L 304.583095 211.251892 
L 304.583095 218.698378 
L 304.89483 218.698378 
L 304.89483 218.88 
L 307.700447 218.88 
L 307.700447 209.617297 
L 308.012182 209.617297 
L 308.012182 177.47027 
L 308.323917 177.47027 
L 308.323917 147.684324 
L 308.635653 147.684324 
L 308.635653 112.086486 
L 308.947388 112.086486 
L 308.947388 91.2 
L 309.259123 91.2 
L 309.259123 95.558919 
L 309.570858 95.558919 
L 309.570858 90.473514 
L 309.882593 90.473514 
L 309.882593 97.556757 
L 310.194329 97.556757 
L 310.194329 89.202162 
L 310.506064 89.202162 
L 310.506064 94.105946 
L 310.817799 94.105946 
L 310.817799 108.090811 
L 311.129534 108.090811 
L 311.129534 105.003243 
L 311.441269 105.003243 
L 311.441269 109.180541 
L 311.753004 109.180541 
L 311.753004 111.178378 
L 312.06474 111.178378 
L 312.06474 111.36 
L 312.376475 111.36 
L 312.376475 118.806486 
L 312.68821 118.806486 
L 312.68821 103.55027 
L 312.999945 103.55027 
L 312.999945 112.812973 
L 313.31168 112.812973 
L 313.31168 112.086486 
L 313.623416 112.086486 
L 313.623416 111.178378 
L 313.935151 111.178378 
L 313.935151 120.441081 
L 314.246886 120.441081 
L 314.246886 116.627027 
L 314.558621 116.627027 
L 314.558621 116.808649 
L 314.870356 116.808649 
L 314.870356 121.712432 
L 315.182092 121.712432 
L 315.182092 125.708108 
L 315.493827 125.708108 
L 315.493827 128.432432 
L 315.805562 128.432432 
L 315.805562 131.701622 
L 316.117297 131.701622 
L 316.117297 129.703784 
L 316.429032 129.703784 
L 316.429032 130.248649 
L 316.740767 130.248649 
L 316.740767 127.887568 
L 317.052503 127.887568 
L 317.052503 134.425946 
L 317.364238 134.425946 
L 317.364238 133.336216 
L 317.675973 133.336216 
L 317.675973 131.156757 
L 317.987708 131.156757 
L 317.987708 139.511351 
L 318.299443 139.511351 
L 318.299443 140.964324 
L 318.611179 140.964324 
L 318.611179 137.513514 
L 318.922914 137.513514 
L 318.922914 143.688649 
L 319.234649 143.688649 
L 319.234649 150.045405 
L 319.546384 150.045405 
L 319.546384 149.318919 
L 319.858119 149.318919 
L 319.858119 148.955676 
L 320.169855 148.955676 
L 320.169855 153.132973 
L 320.48159 153.132973 
L 320.48159 158.218378 
L 320.793325 158.218378 
L 320.793325 168.389189 
L 321.10506 168.389189 
L 321.10506 171.658378 
L 321.416795 171.658378 
L 321.416795 174.382703 
L 321.72853 174.382703 
L 321.72853 180.376216 
L 322.040266 180.376216 
L 322.040266 185.28 
L 322.352001 185.28 
L 322.352001 199.083243 
L 322.663736 199.083243 
L 322.663736 196.177297 
L 322.975471 196.177297 
L 322.975471 207.619459 
L 323.287206 207.619459 
L 323.287206 207.256216 
L 323.598942 207.256216 
L 323.598942 213.612973 
L 323.910677 213.612973 
L 323.910677 215.247568 
L 324.222412 215.247568 
L 324.222412 218.698378 
L 324.534147 218.698378 
L 324.534147 217.427027 
L 324.845882 217.427027 
L 324.845882 210.888649 
L 325.157617 210.888649 
L 325.157617 195.269189 
L 325.469353 195.269189 
L 325.469353 181.829189 
L 325.781088 181.829189 
L 325.781088 169.478919 
L 326.092823 169.478919 
L 326.092823 155.494054 
L 326.404558 155.494054 
L 326.404558 155.312432 
L 326.716293 155.312432 
L 326.716293 156.947027 
L 327.028029 156.947027 
L 327.028029 159.852973 
L 327.339764 159.852973 
L 327.339764 161.487568 
L 327.651499 161.487568 
L 327.651499 156.583784 
L 327.963234 156.583784 
L 327.963234 158.036757 
L 328.274969 158.036757 
L 328.274969 156.947027 
L 328.586705 156.947027 
L 328.586705 159.852973 
L 328.89844 159.852973 
L 328.89844 153.496216 
L 329.210175 153.496216 
L 329.210175 160.942703 
L 329.52191 160.942703 
L 329.52191 163.848649 
L 329.833645 163.848649 
L 329.833645 153.314595 
L 330.14538 153.314595 
L 330.14538 165.12 
L 330.457116 165.12 
L 330.457116 163.667027 
L 330.768851 163.667027 
L 330.768851 168.207568 
L 331.080586 168.207568 
L 331.080586 164.03027 
L 331.392321 164.03027 
L 331.392321 169.297297 
L 331.704056 169.297297 
L 331.704056 170.387027 
L 332.015792 170.387027 
L 332.015792 170.023784 
L 332.327527 170.023784 
L 332.327527 170.75027 
L 332.639262 170.75027 
L 332.639262 177.107027 
L 332.950997 177.107027 
L 332.950997 178.741622 
L 333.262732 178.741622 
L 333.262732 180.194595 
L 333.574467 180.194595 
L 333.574467 183.282162 
L 333.886203 183.282162 
L 333.886203 182.555676 
L 334.197938 182.555676 
L 334.197938 185.098378 
L 334.509673 185.098378 
L 334.509673 190.547027 
L 334.821408 190.547027 
L 334.821408 186.914595 
L 335.133143 186.914595 
L 335.133143 192 
L 335.444879 192 
L 335.444879 193.816216 
L 335.756614 193.816216 
L 335.756614 190.365405 
L 336.068349 190.365405 
L 336.068349 195.087568 
L 336.380084 195.087568 
L 336.380084 199.264865 
L 336.691819 199.264865 
L 336.691819 198.538378 
L 337.003555 198.538378 
L 337.003555 202.534054 
L 337.31529 202.534054 
L 337.31529 203.442162 
L 337.627025 203.442162 
L 337.627025 206.166486 
L 337.93876 206.166486 
L 337.93876 205.984865 
L 338.250495 205.984865 
L 338.250495 210.888649 
L 338.56223 210.888649 
L 338.56223 212.523243 
L 338.873966 212.523243 
L 338.873966 213.068108 
L 339.185701 213.068108 
L 339.185701 216.882162 
L 339.497436 216.882162 
L 339.497436 218.516757 
L 339.809171 218.516757 
L 339.809171 217.063784 
L 340.120906 217.063784 
L 340.120906 216.155676 
L 340.432642 216.155676 
L 340.432642 207.437838 
L 340.744377 207.437838 
L 340.744377 200.717838 
L 341.056112 200.717838 
L 341.056112 195.814054 
L 341.367847 195.814054 
L 341.367847 186.006486 
L 341.679582 186.006486 
L 341.679582 186.36973 
L 341.991318 186.36973 
L 341.991318 190.183784 
L 342.303053 190.183784 
L 342.303053 188.549189 
L 342.614788 188.549189 
L 342.614788 187.822703 
L 342.926523 187.822703 
L 342.926523 193.634595 
L 343.238258 193.634595 
L 343.238258 195.269189 
L 343.861729 195.269189 
L 343.861729 197.085405 
L 344.173464 197.085405 
L 344.173464 196.903784 
L 344.485199 196.903784 
L 344.485199 200.172973 
L 344.796934 200.172973 
L 344.796934 200.354595 
L 345.108669 200.354595 
L 345.108669 199.80973 
L 345.420405 199.80973 
L 345.420405 198.901622 
L 345.73214 198.901622 
L 345.73214 206.711351 
L 346.043875 206.711351 
L 346.043875 201.807568 
L 346.35561 201.807568 
L 346.35561 207.801081 
L 346.667345 207.801081 
L 346.667345 204.895135 
L 346.97908 204.895135 
L 346.97908 203.442162 
L 347.290816 203.442162 
L 347.290816 207.074595 
L 347.602551 207.074595 
L 347.602551 205.076757 
L 347.914286 205.076757 
L 347.914286 207.256216 
L 348.226021 207.256216 
L 348.226021 207.801081 
L 348.537756 207.801081 
L 348.537756 208.345946 
L 348.849492 208.345946 
L 348.849492 211.978378 
L 349.161227 211.978378 
L 349.161227 212.16 
L 349.472962 212.16 
L 349.472962 211.796757 
L 350.096432 211.796757 
L 350.096432 214.157838 
L 350.408168 214.157838 
L 350.408168 213.431351 
L 350.719903 213.431351 
L 350.719903 213.068108 
L 351.031638 213.068108 
L 351.031638 213.612973 
L 351.343373 213.612973 
L 351.343373 213.431351 
L 351.655108 213.431351 
L 351.655108 214.702703 
L 351.966843 214.702703 
L 351.966843 216.882162 
L 352.278579 216.882162 
L 352.278579 217.608649 
L 352.590314 217.608649 
L 352.590314 217.063784 
L 352.902049 217.063784 
L 352.902049 217.608649 
L 353.525519 217.608649 
L 353.525519 218.516757 
L 353.837255 218.516757 
L 353.837255 218.88 
L 354.460725 218.88 
L 354.460725 218.516757 
L 354.77246 218.516757 
L 354.77246 217.245405 
L 355.084195 217.245405 
L 355.084195 213.794595 
L 355.39593 213.794595 
L 355.39593 210.707027 
L 355.707666 210.707027 
L 355.707666 207.801081 
L 356.019401 207.801081 
L 356.019401 205.621622 
L 356.331136 205.621622 
L 356.331136 205.803243 
L 356.642871 205.803243 
L 356.642871 203.078919 
L 356.954606 203.078919 
L 356.954606 205.621622 
L 357.266342 205.621622 
L 357.266342 207.619459 
L 357.578077 207.619459 
L 357.578077 207.256216 
L 357.889812 207.256216 
L 357.889812 208.709189 
L 358.201547 208.709189 
L 358.201547 209.072432 
L 358.513282 209.072432 
L 358.513282 208.164324 
L 358.825018 208.164324 
L 358.825018 212.341622 
L 359.136753 212.341622 
L 359.136753 210.343784 
L 359.448488 210.343784 
L 359.448488 211.796757 
L 359.760223 211.796757 
L 359.760223 209.980541 
L 360.071958 209.980541 
L 360.071958 212.341622 
L 360.383693 212.341622 
L 360.383693 212.886486 
L 360.695429 212.886486 
L 360.695429 211.433514 
L 361.007164 211.433514 
L 361.007164 212.704865 
L 361.318899 212.704865 
L 361.318899 213.068108 
L 361.630634 213.068108 
L 361.630634 213.431351 
L 362.56584 213.431351 
L 362.56584 213.612973 
L 362.877575 213.612973 
L 362.877575 214.157838 
L 363.18931 214.157838 
L 363.18931 215.429189 
L 363.812781 215.429189 
L 363.812781 217.063784 
L 364.124516 217.063784 
L 364.124516 215.610811 
L 364.436251 215.610811 
L 364.436251 215.974054 
L 364.747986 215.974054 
L 364.747986 217.608649 
L 365.059721 217.608649 
L 365.059721 217.79027 
L 365.371456 217.79027 
L 365.371456 217.427027 
L 365.683192 217.427027 
L 365.683192 217.245405 
L 365.994927 217.245405 
L 365.994927 217.79027 
L 366.306662 217.79027 
L 366.306662 218.335135 
L 366.618397 218.335135 
L 366.618397 218.698378 
L 366.930132 218.698378 
L 366.930132 218.88 
L 367.241868 218.88 
L 367.241868 218.698378 
L 367.553603 218.698378 
L 367.553603 218.88 
L 368.800543 218.88 
L 368.800543 218.516757 
L 369.424014 218.516757 
L 369.424014 216.700541 
L 369.735749 216.700541 
L 369.735749 215.065946 
L 370.047484 215.065946 
L 370.047484 213.24973 
L 370.359219 213.24973 
L 370.359219 212.341622 
L 370.670955 212.341622 
L 370.670955 209.435676 
L 370.98269 209.435676 
L 370.98269 210.888649 
L 371.294425 210.888649 
L 371.294425 207.074595 
L 371.60616 207.074595 
L 371.60616 205.258378 
L 371.917895 205.258378 
L 371.917895 204.35027 
L 372.229631 204.35027 
L 372.229631 203.805405 
L 372.541366 203.805405 
L 372.541366 205.076757 
L 372.853101 205.076757 
L 372.853101 203.442162 
L 373.164836 203.442162 
L 373.164836 204.168649 
L 373.476571 204.168649 
L 373.476571 206.892973 
L 373.788306 206.892973 
L 373.788306 205.621622 
L 374.100042 205.621622 
L 374.100042 203.260541 
L 374.411777 203.260541 
L 374.411777 205.258378 
L 374.723512 205.258378 
L 374.723512 205.803243 
L 375.035247 205.803243 
L 375.035247 205.44 
L 375.346982 205.44 
L 375.346982 208.164324 
L 375.658718 208.164324 
L 375.658718 207.437838 
L 375.970453 207.437838 
L 375.970453 203.805405 
L 376.282188 203.805405 
L 376.282188 204.895135 
L 376.593923 204.895135 
L 376.593923 206.711351 
L 376.905658 206.711351 
L 376.905658 205.621622 
L 377.217393 205.621622 
L 377.217393 206.711351 
L 377.529129 206.711351 
L 377.529129 208.890811 
L 378.152599 208.890811 
L 378.152599 208.345946 
L 378.464334 208.345946 
L 378.464334 210.888649 
L 378.776069 210.888649 
L 378.776069 208.164324 
L 379.087805 208.164324 
L 379.087805 211.615135 
L 379.39954 211.615135 
L 379.39954 210.707027 
L 379.711275 210.707027 
L 379.711275 211.433514 
L 380.02301 211.433514 
L 380.02301 210.707027 
L 380.334745 210.707027 
L 380.334745 211.796757 
L 380.646481 211.796757 
L 380.646481 211.251892 
L 381.269951 211.251892 
L 381.269951 213.24973 
L 381.581686 213.24973 
L 381.581686 212.523243 
L 381.893421 212.523243 
L 381.893421 215.610811 
L 382.205156 215.610811 
L 382.205156 214.884324 
L 382.516892 214.884324 
L 382.516892 216.700541 
L 382.828627 216.700541 
L 382.828627 216.882162 
L 383.140362 216.882162 
L 383.140362 217.063784 
L 383.452097 217.063784 
L 383.452097 217.063784 
" clip-path="url(#pee4e63c320)" style="fill: none; stroke: #2ca02c; stroke-width: 1.5; stroke-linecap: square"/>
   </g>
   <g id="patch_3">
    <path d="M 53.328125 228.96 
L 53.328125 7.2 
" style="fill: none; stroke: #000000; stroke-width: 0.8; stroke-linejoin: miter; stroke-linecap: square"/>
   </g>
   <g id="patch_4">
    <path d="M 388.128125 228.96 
L 388.128125 7.2 
" style="fill: none; stroke: #000000; stroke-width: 0.8; stroke-linejoin: miter; stroke-linecap: square"/>
   </g>
   <g id="patch_5">
    <path d="M 53.328125 228.96 
L 388.128125 228.96 
" style="fill: none; stroke: #000000; stroke-width: 0.8; stroke-linejoin: miter; stroke-linecap: square"/>
   </g>
   <g id="patch_6">
    <path d="M 53.328125 7.2 
L 388.128125 7.2 
" style="fill: none; stroke: #000000; stroke-width: 0.8; stroke-linejoin: miter; stroke-linecap: square"/>
   </g>
   <g id="legend_1">
    <g id="patch_7">
     <path d="M 312.570312 59.234375 
L 381.128125 59.234375 
Q 383.128125 59.234375 383.128125 57.234375 
L 383.128125 14.2 
Q 383.128125 12.2 381.128125 12.2 
L 312.570312 12.2 
Q 310.570312 12.2 310.570312 14.2 
L 310.570312 57.234375 
Q 310.570312 59.234375 312.570312 59.234375 
z
" style="fill: #ffffff; opacity: 0.8; stroke: #cccccc; stroke-linejoin: miter"/>
    </g>
    <g id="line2d_18">
     <path d="M 314.570312 20.298437 
L 314.570312 20.298437 
L 324.570312 20.298437 
L 324.570312 20.298437 
L 334.570312 20.298437 
" style="fill: none; stroke: #1f77b4; stroke-width: 1.5; stroke-linecap: square"/>
    </g>
    <g id="text_17">
     <!-- pulse:0 -->
     <g transform="translate(342.570312 23.798437) scale(0.1 -0.1)">
      <defs>
       <path id="DejaVuSans-70" d="M 1159 525 
L 1159 -1331 
L 581 -1331 
L 581 3500 
L 1159 3500 
L 1159 2969 
Q 1341 3281 1617 3432 
Q 1894 3584 2278 3584 
Q 2916 3584 3314 3078 
Q 3713 2572 3713 1747 
Q 3713 922 3314 415 
Q 2916 -91 2278 -91 
Q 1894 -91 1617 61 
Q 1341 213 1159 525 
z
M 3116 1747 
Q 3116 2381 2855 2742 
Q 2594 3103 2138 3103 
Q 1681 3103 1420 2742 
Q 1159 2381 1159 1747 
Q 1159 1113 1420 752 
Q 1681 391 2138 391 
Q 2594 391 2855 752 
Q 3116 1113 3116 1747 
z
" transform="scale(0.015625)"/>
       <path id="DejaVuSans-6c" d="M 603 4863 
L 1178 4863 
L 1178 0 
L 603 0 
L 603 4863 
z
" transform="scale(0.015625)"/>
       <path id="DejaVuSans-65" d="M 3597 1894 
L 3597 1613 
L 953 1613 
Q 991 1019 1311 708 
Q 1631 397 2203 397 
Q 2534 397 2845 478 
Q 3156 559 3463 722 
L 3463 178 
Q 3153 47 2828 -22 
Q 2503 -91 2169 -91 
Q 1331 -91 842 396 
Q 353 884 353 1716 
Q 353 2575 817 3079 
Q 1281 3584 2069 3584 
Q 2775 3584 3186 3129 
Q 3597 2675 3597 1894 
z
M 3022 2063 
Q 3016 2534 2758 2815 
Q 2500 3097 2075 3097 
Q 1594 3097 1305 2825 
Q 1016 2553 972 2059 
L 3022 2063 
z
" transform="scale(0.015625)"/>
       <path id="DejaVuSans-3a" d="M 750 794 
L 1409 794 
L 1409 0 
L 750 0 
L 750 794 
z
M 750 3309 
L 1409 3309 
L 1409 2516 
L 750 2516 
L 750 3309 
z
" transform="scale(0.015625)"/>
      </defs>
      <use xlink:href="#DejaVuSans-70"/>
      <use xlink:href="#DejaVuSans-75" transform="translate(63.476562 0)"/>
      <use xlink:href="#DejaVuSans-6c" transform="translate(126.855469 0)"/>
      <use xlink:href="#DejaVuSans-73" transform="translate(154.638672 0)"/>
      <use xlink:href="#DejaVuSans-65" transform="translate(206.738281 0)"/>
      <use xlink:href="#DejaVuSans-3a" transform="translate(268.261719 0)"/>
      <use xlink:href="#DejaVuSans-30" transform="translate(301.953125 0)"/>
     </g>
    </g>
    <g id="line2d_19">
     <path d="M 314.570312 34.976562 
L 314.570312 34.976562 
L 324.570312 34.976562 
L 324.570312 34.976562 
L 334.570312 34.976562 
" style="fill: none; stroke: #ff7f0e; stroke-width: 1.5; stroke-linecap: square"/>
    </g>
    <g id="text_18">
     <!-- pulse:1 -->
     <g transform="translate(342.570312 38.476562) scale(0.1 -0.1)">
      <use xlink:href="#DejaVuSans-70"/>
      <use xlink:href="#DejaVuSans-75" transform="translate(63.476562 0)"/>
      <use xlink:href="#DejaVuSans-6c" transform="translate(126.855469 0)"/>
      <use xlink:href="#DejaVuSans-73" transform="translate(154.638672 0)"/>
      <use xlink:href="#DejaVuSans-65" transform="translate(206.738281 0)"/>
      <use xlink:href="#DejaVuSans-3a" transform="translate(268.261719 0)"/>
      <use xlink:href="#DejaVuSans-31" transform="translate(301.953125 0)"/>
     </g>
    </g>
    <g id="line2d_20">
     <path d="M 314.570312 49.654687 
L 314.570312 49.654687 
L 324.570312 49.654687 
L 324.570312 49.654687 
L 334.570312 49.654687 
" style="fill: none; stroke: #2ca02c; stroke-width: 1.5; stroke-linecap: square"/>
    </g>
    <g id="text_19">
     <!-- pulse:2 -->
     <g transform="translate(342.570312 53.154687) scale(0.1 -0.1)">
      <use xlink:href="#DejaVuSans-70"/>
      <use xlink:href="#DejaVuSans-75" transform="translate(63.476562 0)"/>
      <use xlink:href="#DejaVuSans-6c" transform="translate(126.855469 0)"/>
      <use xlink:href="#DejaVuSans-73" transform="translate(154.638672 0)"/>
      <use xlink:href="#DejaVuSans-65" transform="translate(206.738281 0)"/>
      <use xlink:href="#DejaVuSans-3a" transform="translate(268.261719 0)"/>
      <use xlink:href="#DejaVuSans-32" transform="translate(301.953125 0)"/>
     </g>
    </g>
   </g>
  </g>
 </g>
 <defs>
  <clipPath id="pee4e63c320">
   <rect x="53.328125" y="7.2" width="334.8" height="221.76"/>
  </clipPath>
 </defs>
</svg>
