<?xml version="1.0" encoding="utf-8" standalone="no"?>
<!DOCTYPE svg PUBLIC "-//W3C//DTD SVG 1.1//EN"
  "http://www.w3.org/Graphics/SVG/1.1/DTD/svg11.dtd">
<svg xmlns:xlink="http://www.w3.org/1999/xlink" width="872.39952pt" height="296.39952pt" viewBox="0 0 872.39952 296.39952" xmlns="http://www.w3.org/2000/svg" version="1.1">
 <metadata>
  <rdf:RDF xmlns:dc="http://purl.org/dc/elements/1.1/" xmlns:cc="http://creativecommons.org/ns#" xmlns:rdf="http://www.w3.org/1999/02/22-rdf-syntax-ns#">
   <cc:Work>
    <dc:type rdf:resource="http://purl.org/dc/dcmitype/StillImage"/>
    <dc:date>2025-10-10T17:28:17.769156</dc:date>
    <dc:format>image/svg+xml</dc:format>
    <dc:creator>
     <cc:Agent>
      <dc:title>Matplotlib v3.10.6, https://matplotlib.org/</dc:title>
     </cc:Agent>
    </dc:creator>
   </cc:Work>
  </rdf:RDF>
 </metadata>
 <defs>
  <style type="text/css">*{stroke-linejoin: round; stroke-linecap: butt}</style>
 </defs>
 <g id="figure_1">
  <g id="patch_1">
   <path d="M 0 296.39952 
L 872.39952 296.39952 
L 872.39952 0 
L 0 0 
z
" style="fill: #ffffff"/>
  </g>
  <g id="axes_1">
   <g id="patch_2">
    <path d="M 53.328125 257.158895 
L 411.41851 257.158895 
L 411.41851 7.2 
L 53.328125 7.2 
z
" style="fill: #ffffff"/>
   </g>
   <g id="matplotlib.axis_1">
    <g id="xtick_1">
     <g id="line2d_1">
      <defs>
       <path id="m0a2b4cc1fb" d="M 0 0 
L 0 3.5 
" style="stroke: #000000; stroke-width: 0.8"/>
      </defs>
      <g>
       <use xlink:href="#m0a2b4cc1fb" x="53.898093" y="257.158895" style="stroke: #000000; stroke-width: 0.8"/>
      </g>
     </g>
     <g id="text_1">
      <!-- 0 -->
      <g transform="translate(50.716843 271.757332) scale(0.1 -0.1)">
       <defs>
        <path id="DejaVuSans-30" d="M 2034 4250 
Q 1547 4250 1301 3770 
Q 1056 3291 1056 2328 
Q 1056 1369 1301 889 
Q 1547 409 2034 409 
Q 2525 409 2770 889 
Q 3016 1369 3016 2328 
Q 3016 3291 2770 3770 
Q 2525 4250 2034 4250 
z
M 2034 4750 
Q 2819 4750 3233 4129 
Q 3647 3509 3647 2328 
Q 3647 1150 3233 529 
Q 2819 -91 2034 -91 
Q 1250 -91 836 529 
Q 422 1150 422 2328 
Q 422 3509 836 4129 
Q 1250 4750 2034 4750 
z
" transform="scale(0.015625)"/>
       </defs>
       <use xlink:href="#DejaVuSans-30"/>
      </g>
     </g>
    </g>
    <g id="xtick_2">
     <g id="line2d_2">
      <g>
       <use xlink:href="#m0a2b4cc1fb" x="102.181488" y="257.158895" style="stroke: #000000; stroke-width: 0.8"/>
      </g>
     </g>
     <g id="text_2">
      <!-- 20000 -->
      <g transform="translate(86.275238 271.757332) scale(0.1 -0.1)">
       <defs>
        <path id="DejaVuSans-32" d="M 1228 531 
L 3431 531 
L 3431 0 
L 469 0 
L 469 531 
Q 828 903 1448 1529 
Q 2069 2156 2228 2338 
Q 2531 2678 2651 2914 
Q 2772 3150 2772 3378 
Q 2772 3750 2511 3984 
Q 2250 4219 1831 4219 
Q 1534 4219 1204 4116 
Q 875 4013 500 3803 
L 500 4441 
Q 881 4594 1212 4672 
Q 1544 4750 1819 4750 
Q 2544 4750 2975 4387 
Q 3406 4025 3406 3419 
Q 3406 3131 3298 2873 
Q 3191 2616 2906 2266 
Q 2828 2175 2409 1742 
Q 1991 1309 1228 531 
z
" transform="scale(0.015625)"/>
       </defs>
       <use xlink:href="#DejaVuSans-32"/>
       <use xlink:href="#DejaVuSans-30" transform="translate(63.623047 0)"/>
       <use xlink:href="#DejaVuSans-30" transform="translate(127.246094 0)"/>
       <use xlink:href="#DejaVuSans-30" transform="translate(190.869141 0)"/>
       <use xlink:href="#DejaVuSans-30" transform="translate(254.492188 0)"/>
      </g>
     </g>
    </g>
    <g id="xtick_3">
     <g id="line2d_3">
      <g>
       <use xlink:href="#m0a2b4cc1fb" x="150.464882" y="257.158895" style="stroke: #000000; stroke-width: 0.8"/>
      </g>
     </g>
     <g id="text_3">
      <!-- 40000 -->
      <g transform="translate(134.558632 271.757332) scale(0.1 -0.1)">
       <defs>
        <path id="DejaVuSans-34" d="M 2419 4116 
L 825 1625 
L 2419 1625 
L 2419 4116 
z
M 2253 4666 
L 3047 4666 
L 3047 1625 
L 3713 1625 
L 3713 1100 
L 3047 1100 
L 3047 0 
L 2419 0 
L 2419 1100 
L 313 1100 
L 313 1709 
L 2253 4666 
z
" transform="scale(0.015625)"/>
       </defs>
       <use xlink:href="#DejaVuSans-34"/>
       <use xlink:href="#DejaVuSans-30" transform="translate(63.623047 0)"/>
       <use xlink:href="#DejaVuSans-30" transform="translate(127.246094 0)"/>
       <use xlink:href="#DejaVuSans-30" transform="translate(190.869141 0)"/>
       <use xlink:href="#DejaVuSans-30" transform="translate(254.492188 0)"/>
      </g>
     </g>
    </g>
    <g id="xtick_4">
     <g id="line2d_4">
      <g>
       <use xlink:href="#m0a2b4cc1fb" x="198.748276" y="257.158895" style="stroke: #000000; stroke-width: 0.8"/>
      </g>
     </g>
     <g id="text_4">
      <!-- 60000 -->
      <g transform="translate(182.842026 271.757332) scale(0.1 -0.1)">
       <defs>
        <path id="DejaVuSans-36" d="M 2113 2584 
Q 1688 2584 1439 2293 
Q 1191 2003 1191 1497 
Q 1191 994 1439 701 
Q 1688 409 2113 409 
Q 2538 409 2786 701 
Q 3034 994 3034 1497 
Q 3034 2003 2786 2293 
Q 2538 2584 2113 2584 
z
M 3366 4563 
L 3366 3988 
Q 3128 4100 2886 4159 
Q 2644 4219 2406 4219 
Q 1781 4219 1451 3797 
Q 1122 3375 1075 2522 
Q 1259 2794 1537 2939 
Q 1816 3084 2150 3084 
Q 2853 3084 3261 2657 
Q 3669 2231 3669 1497 
Q 3669 778 3244 343 
Q 2819 -91 2113 -91 
Q 1303 -91 875 529 
Q 447 1150 447 2328 
Q 447 3434 972 4092 
Q 1497 4750 2381 4750 
Q 2619 4750 2861 4703 
Q 3103 4656 3366 4563 
z
" transform="scale(0.015625)"/>
       </defs>
       <use xlink:href="#DejaVuSans-36"/>
       <use xlink:href="#DejaVuSans-30" transform="translate(63.623047 0)"/>
       <use xlink:href="#DejaVuSans-30" transform="translate(127.246094 0)"/>
       <use xlink:href="#DejaVuSans-30" transform="translate(190.869141 0)"/>
       <use xlink:href="#DejaVuSans-30" transform="translate(254.492188 0)"/>
      </g>
     </g>
    </g>
    <g id="xtick_5">
     <g id="line2d_5">
      <g>
       <use xlink:href="#m0a2b4cc1fb" x="247.03167" y="257.158895" style="stroke: #000000; stroke-width: 0.8"/>
      </g>
     </g>
     <g id="text_5">
      <!-- 80000 -->
      <g transform="translate(231.12542 271.757332) scale(0.1 -0.1)">
       <defs>
        <path id="DejaVuSans-38" d="M 2034 2216 
Q 1584 2216 1326 1975 
Q 1069 1734 1069 1313 
Q 1069 891 1326 650 
Q 1584 409 2034 409 
Q 2484 409 2743 651 
Q 3003 894 3003 1313 
Q 3003 1734 2745 1975 
Q 2488 2216 2034 2216 
z
M 1403 2484 
Q 997 2584 770 2862 
Q 544 3141 544 3541 
Q 544 4100 942 4425 
Q 1341 4750 2034 4750 
Q 2731 4750 3128 4425 
Q 3525 4100 3525 3541 
Q 3525 3141 3298 2862 
Q 3072 2584 2669 2484 
Q 3125 2378 3379 2068 
Q 3634 1759 3634 1313 
Q 3634 634 3220 271 
Q 2806 -91 2034 -91 
Q 1263 -91 848 271 
Q 434 634 434 1313 
Q 434 1759 690 2068 
Q 947 2378 1403 2484 
z
M 1172 3481 
Q 1172 3119 1398 2916 
Q 1625 2713 2034 2713 
Q 2441 2713 2670 2916 
Q 2900 3119 2900 3481 
Q 2900 3844 2670 4047 
Q 2441 4250 2034 4250 
Q 1625 4250 1398 4047 
Q 1172 3844 1172 3481 
z
" transform="scale(0.015625)"/>
       </defs>
       <use xlink:href="#DejaVuSans-38"/>
       <use xlink:href="#DejaVuSans-30" transform="translate(63.623047 0)"/>
       <use xlink:href="#DejaVuSans-30" transform="translate(127.246094 0)"/>
       <use xlink:href="#DejaVuSans-30" transform="translate(190.869141 0)"/>
       <use xlink:href="#DejaVuSans-30" transform="translate(254.492188 0)"/>
      </g>
     </g>
    </g>
    <g id="xtick_6">
     <g id="line2d_6">
      <g>
       <use xlink:href="#m0a2b4cc1fb" x="295.315065" y="257.158895" style="stroke: #000000; stroke-width: 0.8"/>
      </g>
     </g>
     <g id="text_6">
      <!-- 100000 -->
      <g transform="translate(276.227565 271.757332) scale(0.1 -0.1)">
       <defs>
        <path id="DejaVuSans-31" d="M 794 531 
L 1825 531 
L 1825 4091 
L 703 3866 
L 703 4441 
L 1819 4666 
L 2450 4666 
L 2450 531 
L 3481 531 
L 3481 0 
L 794 0 
L 794 531 
z
" transform="scale(0.015625)"/>
       </defs>
       <use xlink:href="#DejaVuSans-31"/>
       <use xlink:href="#DejaVuSans-30" transform="translate(63.623047 0)"/>
       <use xlink:href="#DejaVuSans-30" transform="translate(127.246094 0)"/>
       <use xlink:href="#DejaVuSans-30" transform="translate(190.869141 0)"/>
       <use xlink:href="#DejaVuSans-30" transform="translate(254.492188 0)"/>
       <use xlink:href="#DejaVuSans-30" transform="translate(318.115234 0)"/>
      </g>
     </g>
    </g>
    <g id="xtick_7">
     <g id="line2d_7">
      <g>
       <use xlink:href="#m0a2b4cc1fb" x="343.598459" y="257.158895" style="stroke: #000000; stroke-width: 0.8"/>
      </g>
     </g>
     <g id="text_7">
      <!-- 120000 -->
      <g transform="translate(324.510959 271.757332) scale(0.1 -0.1)">
       <use xlink:href="#DejaVuSans-31"/>
       <use xlink:href="#DejaVuSans-32" transform="translate(63.623047 0)"/>
       <use xlink:href="#DejaVuSans-30" transform="translate(127.246094 0)"/>
       <use xlink:href="#DejaVuSans-30" transform="translate(190.869141 0)"/>
       <use xlink:href="#DejaVuSans-30" transform="translate(254.492188 0)"/>
       <use xlink:href="#DejaVuSans-30" transform="translate(318.115234 0)"/>
      </g>
     </g>
    </g>
    <g id="xtick_8">
     <g id="line2d_8">
      <g>
       <use xlink:href="#m0a2b4cc1fb" x="391.881853" y="257.158895" style="stroke: #000000; stroke-width: 0.8"/>
      </g>
     </g>
     <g id="text_8">
      <!-- 140000 -->
      <g transform="translate(372.794353 271.757332) scale(0.1 -0.1)">
       <use xlink:href="#DejaVuSans-31"/>
       <use xlink:href="#DejaVuSans-34" transform="translate(63.623047 0)"/>
       <use xlink:href="#DejaVuSans-30" transform="translate(127.246094 0)"/>
       <use xlink:href="#DejaVuSans-30" transform="translate(190.869141 0)"/>
       <use xlink:href="#DejaVuSans-30" transform="translate(254.492188 0)"/>
       <use xlink:href="#DejaVuSans-30" transform="translate(318.115234 0)"/>
      </g>
     </g>
    </g>
    <g id="text_9">
     <!-- birth_time [µs] -->
     <g transform="translate(195.553005 285.435457) scale(0.1 -0.1)">
      <defs>
       <path id="DejaVuSans-62" d="M 3116 1747 
Q 3116 2381 2855 2742 
Q 2594 3103 2138 3103 
Q 1681 3103 1420 2742 
Q 1159 2381 1159 1747 
Q 1159 1113 1420 752 
Q 1681 391 2138 391 
Q 2594 391 2855 752 
Q 3116 1113 3116 1747 
z
M 1159 2969 
Q 1341 3281 1617 3432 
Q 1894 3584 2278 3584 
Q 2916 3584 3314 3078 
Q 3713 2572 3713 1747 
Q 3713 922 3314 415 
Q 2916 -91 2278 -91 
Q 1894 -91 1617 61 
Q 1341 213 1159 525 
L 1159 0 
L 581 0 
L 581 4863 
L 1159 4863 
L 1159 2969 
z
" transform="scale(0.015625)"/>
       <path id="DejaVuSans-69" d="M 603 3500 
L 1178 3500 
L 1178 0 
L 603 0 
L 603 3500 
z
M 603 4863 
L 1178 4863 
L 1178 4134 
L 603 4134 
L 603 4863 
z
" transform="scale(0.015625)"/>
       <path id="DejaVuSans-72" d="M 2631 2963 
Q 2534 3019 2420 3045 
Q 2306 3072 2169 3072 
Q 1681 3072 1420 2755 
Q 1159 2438 1159 1844 
L 1159 0 
L 581 0 
L 581 3500 
L 1159 3500 
L 1159 2956 
Q 1341 3275 1631 3429 
Q 1922 3584 2338 3584 
Q 2397 3584 2469 3576 
Q 2541 3569 2628 3553 
L 2631 2963 
z
" transform="scale(0.015625)"/>
       <path id="DejaVuSans-74" d="M 1172 4494 
L 1172 3500 
L 2356 3500 
L 2356 3053 
L 1172 3053 
L 1172 1153 
Q 1172 725 1289 603 
Q 1406 481 1766 481 
L 2356 481 
L 2356 0 
L 1766 0 
Q 1100 0 847 248 
Q 594 497 594 1153 
L 594 3053 
L 172 3053 
L 172 3500 
L 594 3500 
L 594 4494 
L 1172 4494 
z
" transform="scale(0.015625)"/>
       <path id="DejaVuSans-68" d="M 3513 2113 
L 3513 0 
L 2938 0 
L 2938 2094 
Q 2938 2591 2744 2837 
Q 2550 3084 2163 3084 
Q 1697 3084 1428 2787 
Q 1159 2491 1159 1978 
L 1159 0 
L 581 0 
L 581 4863 
L 1159 4863 
L 1159 2956 
Q 1366 3272 1645 3428 
Q 1925 3584 2291 3584 
Q 2894 3584 3203 3211 
Q 3513 2838 3513 2113 
z
" transform="scale(0.015625)"/>
       <path id="DejaVuSans-5f" d="M 3263 -1063 
L 3263 -1509 
L -63 -1509 
L -63 -1063 
L 3263 -1063 
z
" transform="scale(0.015625)"/>
       <path id="DejaVuSans-6d" d="M 3328 2828 
Q 3544 3216 3844 3400 
Q 4144 3584 4550 3584 
Q 5097 3584 5394 3201 
Q 5691 2819 5691 2113 
L 5691 0 
L 5113 0 
L 5113 2094 
Q 5113 2597 4934 2840 
Q 4756 3084 4391 3084 
Q 3944 3084 3684 2787 
Q 3425 2491 3425 1978 
L 3425 0 
L 2847 0 
L 2847 2094 
Q 2847 2600 2669 2842 
Q 2491 3084 2119 3084 
Q 1678 3084 1418 2786 
Q 1159 2488 1159 1978 
L 1159 0 
L 581 0 
L 581 3500 
L 1159 3500 
L 1159 2956 
Q 1356 3278 1631 3431 
Q 1906 3584 2284 3584 
Q 2666 3584 2933 3390 
Q 3200 3197 3328 2828 
z
" transform="scale(0.015625)"/>
       <path id="DejaVuSans-65" d="M 3597 1894 
L 3597 1613 
L 953 1613 
Q 991 1019 1311 708 
Q 1631 397 2203 397 
Q 2534 397 2845 478 
Q 3156 559 3463 722 
L 3463 178 
Q 3153 47 2828 -22 
Q 2503 -91 2169 -91 
Q 1331 -91 842 396 
Q 353 884 353 1716 
Q 353 2575 817 3079 
Q 1281 3584 2069 3584 
Q 2775 3584 3186 3129 
Q 3597 2675 3597 1894 
z
M 3022 2063 
Q 3016 2534 2758 2815 
Q 2500 3097 2075 3097 
Q 1594 3097 1305 2825 
Q 1016 2553 972 2059 
L 3022 2063 
z
" transform="scale(0.015625)"/>
       <path id="DejaVuSans-20" transform="scale(0.015625)"/>
       <path id="DejaVuSans-5b" d="M 550 4863 
L 1875 4863 
L 1875 4416 
L 1125 4416 
L 1125 -397 
L 1875 -397 
L 1875 -844 
L 550 -844 
L 550 4863 
z
" transform="scale(0.015625)"/>
       <path id="DejaVuSans-b5" d="M 544 -1331 
L 544 3500 
L 1119 3500 
L 1119 1325 
Q 1119 872 1334 640 
Q 1550 409 1972 409 
Q 2434 409 2667 671 
Q 2900 934 2900 1459 
L 2900 3500 
L 3475 3500 
L 3475 806 
Q 3475 619 3529 530 
Q 3584 441 3700 441 
Q 3728 441 3778 458 
Q 3828 475 3916 513 
L 3916 50 
Q 3788 -22 3673 -56 
Q 3559 -91 3450 -91 
Q 3234 -91 3106 31 
Q 2978 153 2931 403 
Q 2775 156 2548 32 
Q 2322 -91 2016 -91 
Q 1697 -91 1473 31 
Q 1250 153 1119 397 
L 1119 -1331 
L 544 -1331 
z
" transform="scale(0.015625)"/>
       <path id="DejaVuSans-73" d="M 2834 3397 
L 2834 2853 
Q 2591 2978 2328 3040 
Q 2066 3103 1784 3103 
Q 1356 3103 1142 2972 
Q 928 2841 928 2578 
Q 928 2378 1081 2264 
Q 1234 2150 1697 2047 
L 1894 2003 
Q 2506 1872 2764 1633 
Q 3022 1394 3022 966 
Q 3022 478 2636 193 
Q 2250 -91 1575 -91 
Q 1294 -91 989 -36 
Q 684 19 347 128 
L 347 722 
Q 666 556 975 473 
Q 1284 391 1588 391 
Q 1994 391 2212 530 
Q 2431 669 2431 922 
Q 2431 1156 2273 1281 
Q 2116 1406 1581 1522 
L 1381 1569 
Q 847 1681 609 1914 
Q 372 2147 372 2553 
Q 372 3047 722 3315 
Q 1072 3584 1716 3584 
Q 2034 3584 2315 3537 
Q 2597 3491 2834 3397 
z
" transform="scale(0.015625)"/>
       <path id="DejaVuSans-5d" d="M 1947 4863 
L 1947 -844 
L 622 -844 
L 622 -397 
L 1369 -397 
L 1369 4416 
L 622 4416 
L 622 4863 
L 1947 4863 
z
" transform="scale(0.015625)"/>
      </defs>
      <use xlink:href="#DejaVuSans-62"/>
      <use xlink:href="#DejaVuSans-69" transform="translate(63.476562 0)"/>
      <use xlink:href="#DejaVuSans-72" transform="translate(91.259766 0)"/>
      <use xlink:href="#DejaVuSans-74" transform="translate(132.373047 0)"/>
      <use xlink:href="#DejaVuSans-68" transform="translate(171.582031 0)"/>
      <use xlink:href="#DejaVuSans-5f" transform="translate(234.960938 0)"/>
      <use xlink:href="#DejaVuSans-74" transform="translate(284.960938 0)"/>
      <use xlink:href="#DejaVuSans-69" transform="translate(324.169922 0)"/>
      <use xlink:href="#DejaVuSans-6d" transform="translate(351.953125 0)"/>
      <use xlink:href="#DejaVuSans-65" transform="translate(449.365234 0)"/>
      <use xlink:href="#DejaVuSans-20" transform="translate(510.888672 0)"/>
      <use xlink:href="#DejaVuSans-5b" transform="translate(542.675781 0)"/>
      <use xlink:href="#DejaVuSans-b5" transform="translate(581.689453 0)"/>
      <use xlink:href="#DejaVuSans-73" transform="translate(645.3125 0)"/>
      <use xlink:href="#DejaVuSans-5d" transform="translate(697.412109 0)"/>
     </g>
    </g>
   </g>
   <g id="matplotlib.axis_2">
    <g id="ytick_1">
     <g id="line2d_9">
      <defs>
       <path id="m5267710fd4" d="M 0 0 
L -3.5 0 
" style="stroke: #000000; stroke-width: 0.8"/>
      </defs>
      <g>
       <use xlink:href="#m5267710fd4" x="53.328125" y="245.910348" style="stroke: #000000; stroke-width: 0.8"/>
      </g>
     </g>
     <g id="text_10">
      <!-- 0 -->
      <g transform="translate(39.965625 249.709567) scale(0.1 -0.1)">
       <use xlink:href="#DejaVuSans-30"/>
      </g>
     </g>
    </g>
    <g id="ytick_2">
     <g id="line2d_10">
      <g>
       <use xlink:href="#m5267710fd4" x="53.328125" y="208.16988" style="stroke: #000000; stroke-width: 0.8"/>
      </g>
     </g>
     <g id="text_11">
      <!-- 1000 -->
      <g transform="translate(20.878125 211.969099) scale(0.1 -0.1)">
       <use xlink:href="#DejaVuSans-31"/>
       <use xlink:href="#DejaVuSans-30" transform="translate(63.623047 0)"/>
       <use xlink:href="#DejaVuSans-30" transform="translate(127.246094 0)"/>
       <use xlink:href="#DejaVuSans-30" transform="translate(190.869141 0)"/>
      </g>
     </g>
    </g>
    <g id="ytick_3">
     <g id="line2d_11">
      <g>
       <use xlink:href="#m5267710fd4" x="53.328125" y="170.429412" style="stroke: #000000; stroke-width: 0.8"/>
      </g>
     </g>
     <g id="text_12">
      <!-- 2000 -->
      <g transform="translate(20.878125 174.228631) scale(0.1 -0.1)">
       <use xlink:href="#DejaVuSans-32"/>
       <use xlink:href="#DejaVuSans-30" transform="translate(63.623047 0)"/>
       <use xlink:href="#DejaVuSans-30" transform="translate(127.246094 0)"/>
       <use xlink:href="#DejaVuSans-30" transform="translate(190.869141 0)"/>
      </g>
     </g>
    </g>
    <g id="ytick_4">
     <g id="line2d_12">
      <g>
       <use xlink:href="#m5267710fd4" x="53.328125" y="132.688944" style="stroke: #000000; stroke-width: 0.8"/>
      </g>
     </g>
     <g id="text_13">
      <!-- 3000 -->
      <g transform="translate(20.878125 136.488163) scale(0.1 -0.1)">
       <defs>
        <path id="DejaVuSans-33" d="M 2597 2516 
Q 3050 2419 3304 2112 
Q 3559 1806 3559 1356 
Q 3559 666 3084 287 
Q 2609 -91 1734 -91 
Q 1441 -91 1130 -33 
Q 819 25 488 141 
L 488 750 
Q 750 597 1062 519 
Q 1375 441 1716 441 
Q 2309 441 2620 675 
Q 2931 909 2931 1356 
Q 2931 1769 2642 2001 
Q 2353 2234 1838 2234 
L 1294 2234 
L 1294 2753 
L 1863 2753 
Q 2328 2753 2575 2939 
Q 2822 3125 2822 3475 
Q 2822 3834 2567 4026 
Q 2313 4219 1838 4219 
Q 1578 4219 1281 4162 
Q 984 4106 628 3988 
L 628 4550 
Q 988 4650 1302 4700 
Q 1616 4750 1894 4750 
Q 2613 4750 3031 4423 
Q 3450 4097 3450 3541 
Q 3450 3153 3228 2886 
Q 3006 2619 2597 2516 
z
" transform="scale(0.015625)"/>
       </defs>
       <use xlink:href="#DejaVuSans-33"/>
       <use xlink:href="#DejaVuSans-30" transform="translate(63.623047 0)"/>
       <use xlink:href="#DejaVuSans-30" transform="translate(127.246094 0)"/>
       <use xlink:href="#DejaVuSans-30" transform="translate(190.869141 0)"/>
      </g>
     </g>
    </g>
    <g id="ytick_5">
     <g id="line2d_13">
      <g>
       <use xlink:href="#m5267710fd4" x="53.328125" y="94.948476" style="stroke: #000000; stroke-width: 0.8"/>
      </g>
     </g>
     <g id="text_14">
      <!-- 4000 -->
      <g transform="translate(20.878125 98.747694) scale(0.1 -0.1)">
       <use xlink:href="#DejaVuSans-34"/>
       <use xlink:href="#DejaVuSans-30" transform="translate(63.623047 0)"/>
       <use xlink:href="#DejaVuSans-30" transform="translate(127.246094 0)"/>
       <use xlink:href="#DejaVuSans-30" transform="translate(190.869141 0)"/>
      </g>
     </g>
    </g>
    <g id="ytick_6">
     <g id="line2d_14">
      <g>
       <use xlink:href="#m5267710fd4" x="53.328125" y="57.208007" style="stroke: #000000; stroke-width: 0.8"/>
      </g>
     </g>
     <g id="text_15">
      <!-- 5000 -->
      <g transform="translate(20.878125 61.007226) scale(0.1 -0.1)">
       <defs>
        <path id="DejaVuSans-35" d="M 691 4666 
L 3169 4666 
L 3169 4134 
L 1269 4134 
L 1269 2991 
Q 1406 3038 1543 3061 
Q 1681 3084 1819 3084 
Q 2600 3084 3056 2656 
Q 3513 2228 3513 1497 
Q 3513 744 3044 326 
Q 2575 -91 1722 -91 
Q 1428 -91 1123 -41 
Q 819 9 494 109 
L 494 744 
Q 775 591 1075 516 
Q 1375 441 1709 441 
Q 2250 441 2565 725 
Q 2881 1009 2881 1497 
Q 2881 1984 2565 2268 
Q 2250 2553 1709 2553 
Q 1456 2553 1204 2497 
Q 953 2441 691 2322 
L 691 4666 
z
" transform="scale(0.015625)"/>
       </defs>
       <use xlink:href="#DejaVuSans-35"/>
       <use xlink:href="#DejaVuSans-30" transform="translate(63.623047 0)"/>
       <use xlink:href="#DejaVuSans-30" transform="translate(127.246094 0)"/>
       <use xlink:href="#DejaVuSans-30" transform="translate(190.869141 0)"/>
      </g>
     </g>
    </g>
    <g id="ytick_7">
     <g id="line2d_15">
      <g>
       <use xlink:href="#m5267710fd4" x="53.328125" y="19.467539" style="stroke: #000000; stroke-width: 0.8"/>
      </g>
     </g>
     <g id="text_16">
      <!-- 6000 -->
      <g transform="translate(20.878125 23.266758) scale(0.1 -0.1)">
       <use xlink:href="#DejaVuSans-36"/>
       <use xlink:href="#DejaVuSans-30" transform="translate(63.623047 0)"/>
       <use xlink:href="#DejaVuSans-30" transform="translate(127.246094 0)"/>
       <use xlink:href="#DejaVuSans-30" transform="translate(190.869141 0)"/>
      </g>
     </g>
    </g>
    <g id="text_17">
     <!-- [counts] -->
     <g transform="translate(14.798438 152.791947) rotate(-90) scale(0.1 -0.1)">
      <defs>
       <path id="DejaVuSans-63" d="M 3122 3366 
L 3122 2828 
Q 2878 2963 2633 3030 
Q 2388 3097 2138 3097 
Q 1578 3097 1268 2742 
Q 959 2388 959 1747 
Q 959 1106 1268 751 
Q 1578 397 2138 397 
Q 2388 397 2633 464 
Q 2878 531 3122 666 
L 3122 134 
Q 2881 22 2623 -34 
Q 2366 -91 2075 -91 
Q 1284 -91 818 406 
Q 353 903 353 1747 
Q 353 2603 823 3093 
Q 1294 3584 2113 3584 
Q 2378 3584 2631 3529 
Q 2884 3475 3122 3366 
z
" transform="scale(0.015625)"/>
       <path id="DejaVuSans-6f" d="M 1959 3097 
Q 1497 3097 1228 2736 
Q 959 2375 959 1747 
Q 959 1119 1226 758 
Q 1494 397 1959 397 
Q 2419 397 2687 759 
Q 2956 1122 2956 1747 
Q 2956 2369 2687 2733 
Q 2419 3097 1959 3097 
z
M 1959 3584 
Q 2709 3584 3137 3096 
Q 3566 2609 3566 1747 
Q 3566 888 3137 398 
Q 2709 -91 1959 -91 
Q 1206 -91 779 398 
Q 353 888 353 1747 
Q 353 2609 779 3096 
Q 1206 3584 1959 3584 
z
" transform="scale(0.015625)"/>
       <path id="DejaVuSans-75" d="M 544 1381 
L 544 3500 
L 1119 3500 
L 1119 1403 
Q 1119 906 1312 657 
Q 1506 409 1894 409 
Q 2359 409 2629 706 
Q 2900 1003 2900 1516 
L 2900 3500 
L 3475 3500 
L 3475 0 
L 2900 0 
L 2900 538 
Q 2691 219 2414 64 
Q 2138 -91 1772 -91 
Q 1169 -91 856 284 
Q 544 659 544 1381 
z
M 1991 3584 
L 1991 3584 
z
" transform="scale(0.015625)"/>
       <path id="DejaVuSans-6e" d="M 3513 2113 
L 3513 0 
L 2938 0 
L 2938 2094 
Q 2938 2591 2744 2837 
Q 2550 3084 2163 3084 
Q 1697 3084 1428 2787 
Q 1159 2491 1159 1978 
L 1159 0 
L 581 0 
L 581 3500 
L 1159 3500 
L 1159 2956 
Q 1366 3272 1645 3428 
Q 1925 3584 2291 3584 
Q 2894 3584 3203 3211 
Q 3513 2838 3513 2113 
z
" transform="scale(0.015625)"/>
      </defs>
      <use xlink:href="#DejaVuSans-5b"/>
      <use xlink:href="#DejaVuSans-63" transform="translate(39.013672 0)"/>
      <use xlink:href="#DejaVuSans-6f" transform="translate(93.994141 0)"/>
      <use xlink:href="#DejaVuSans-75" transform="translate(155.175781 0)"/>
      <use xlink:href="#DejaVuSans-6e" transform="translate(218.554688 0)"/>
      <use xlink:href="#DejaVuSans-74" transform="translate(281.933594 0)"/>
      <use xlink:href="#DejaVuSans-73" transform="translate(321.142578 0)"/>
      <use xlink:href="#DejaVuSans-5d" transform="translate(373.242188 0)"/>
     </g>
    </g>
   </g>
   <g id="line2d_16">
    <path d="M 53.928231 234.173063 
L 53.968238 234.173063 
L 54.048252 208.509544 
L 54.088259 208.509544 
L 54.168273 183.487614 
L 54.20828 183.487614 
L 54.288294 157.446691 
L 54.328301 157.446691 
L 54.408315 140.689923 
L 54.448322 140.689923 
L 54.528336 115.932176 
L 54.568343 115.932176 
L 54.568343 116.2341 
L 54.648357 105.930952 
L 54.688364 105.930952 
L 54.688364 106.119654 
L 54.768378 95.137178 
L 54.808386 95.137178 
L 54.8884 85.966244 
L 54.968414 86.003985 
L 55.048428 71.775828 
L 55.088435 71.775828 
L 55.088435 71.92679 
L 55.168449 66.831827 
L 55.208456 66.831827 
L 55.248463 57.208007 
L 55.28847 63.05778 
L 55.328477 63.05778 
L 55.328477 51.660159 
L 55.408491 61.585902 
L 55.448498 61.585902 
L 55.528512 50.829868 
L 55.568519 50.829868 
L 55.608526 51.73564 
L 55.648533 44.904615 
L 55.68854 44.904615 
L 55.68854 44.678172 
L 55.768555 46.225531 
L 55.808562 46.225531 
L 55.848569 47.999333 
L 55.888576 41.243789 
L 55.928583 41.243789 
L 55.928583 35.205314 
L 56.008597 38.149071 
L 56.048604 38.149071 
L 56.048604 45.961348 
L 56.088611 36.639452 
L 56.128618 37.696185 
L 56.168625 37.696185 
L 56.248639 32.638963 
L 56.288646 32.638963 
L 56.36866 37.2433 
L 56.408667 37.2433 
L 56.488681 32.488001 
L 56.528688 32.488001 
L 56.568695 34.86565 
L 56.608702 29.808427 
L 56.648709 29.808427 
L 56.648709 34.752429 
L 56.728724 27.053373 
L 56.768731 27.053373 
L 56.768731 31.393527 
L 56.848745 30.299054 
L 56.888752 30.299054 
L 56.928759 31.318046 
L 56.968766 25.468274 
L 57.008773 25.468274 
L 57.088787 34.676948 
L 57.128794 34.676948 
L 57.128794 28.676213 
L 57.208808 29.544244 
L 57.248815 29.544244 
L 57.288822 24.826686 
L 57.328829 27.279816 
L 57.368836 27.279816 
L 57.408843 29.16684 
L 57.44885 24.675724 
L 57.488857 24.675724 
L 57.488857 33.20507 
L 57.568871 29.544244 
L 57.608878 29.544244 
L 57.648885 26.525007 
L 57.688893 33.356031 
L 57.7289 33.356031 
L 57.808914 21.731967 
L 57.848921 21.731967 
L 57.888928 30.638718 
L 57.928935 29.431023 
L 57.968942 29.431023 
L 57.968942 25.430533 
L 58.048956 29.883908 
L 58.088963 29.883908 
L 58.088963 25.732457 
L 58.12897 31.506749 
L 58.168977 29.355542 
L 58.208984 29.355542 
L 58.208984 27.204335 
L 58.288998 30.336794 
L 58.329005 30.336794 
L 58.329005 24.788945 
L 58.409019 26.75145 
L 58.449026 26.75145 
L 58.449026 20.599753 
L 58.52904 30.487756 
L 58.569047 30.487756 
L 58.609054 27.506259 
L 58.649061 27.61948 
L 58.729076 27.58174 
L 58.729076 28.336549 
L 58.769083 22.524517 
L 58.80909 27.657221 
L 58.849097 27.657221 
L 58.849097 23.694472 
L 58.929111 25.317312 
L 58.969118 25.317312 
L 59.009125 29.393282 
L 59.049132 28.487511 
L 59.089139 28.487511 
L 59.129146 25.430533 
L 59.169153 26.298564 
L 59.20916 26.298564 
L 59.20916 32.072856 
L 59.289174 20.524272 
L 59.329181 20.524272 
L 59.409195 27.921404 
L 59.449202 27.921404 
L 59.449202 24.939907 
L 59.529216 33.20507 
L 59.569223 33.20507 
L 59.60923 27.58174 
L 59.649238 28.902656 
L 59.689245 28.902656 
L 59.689245 29.581985 
L 59.769259 26.298564 
L 59.809266 26.298564 
L 59.849273 31.544489 
L 59.88928 24.3738 
L 59.929287 24.3738 
L 59.969294 23.090624 
L 60.009301 26.260823 
L 60.049308 26.260823 
L 60.049308 27.959145 
L 60.089315 25.128609 
L 60.129322 25.20409 
L 60.169329 25.20409 
L 60.169329 23.505769 
L 60.249343 31.431268 
L 60.28935 31.431268 
L 60.369364 21.203601 
L 60.409371 21.203601 
L 60.449378 28.261068 
L 60.489385 26.147602 
L 60.529392 26.147602 
L 60.569399 30.072611 
L 60.609407 28.525252 
L 60.649414 28.525252 
L 60.649414 22.675479 
L 60.729428 30.299054 
L 60.769435 30.299054 
L 60.769435 27.845923 
L 60.849449 37.960369 
L 60.889456 37.960369 
L 60.96947 67.964041 
L 61.009477 67.964041 
L 61.089491 94.722033 
L 61.129498 94.722033 
L 61.169505 114.384817 
L 61.209512 111.667503 
L 61.249519 111.667503 
L 61.329533 139.444488 
L 61.36954 139.444488 
L 61.449554 156.805103 
L 61.489561 156.805103 
L 61.569576 166.655365 
L 61.609583 166.655365 
L 61.689597 179.14746 
L 61.729604 179.14746 
L 61.809618 191.601815 
L 61.849625 191.601815 
L 61.849625 191.413112 
L 61.929639 199.791496 
L 61.969646 199.791496 
L 61.969646 199.036687 
L 62.04966 206.773483 
L 62.089667 206.773483 
L 62.169681 213.944172 
L 62.209688 213.944172 
L 62.289702 216.963409 
L 62.329709 216.963409 
L 62.409723 222.435777 
L 62.44973 222.435777 
L 62.529745 225.530496 
L 62.569752 225.530496 
L 62.609759 228.889397 
L 62.649766 227.832664 
L 62.689773 227.832664 
L 62.769787 232.36152 
L 62.809794 232.36152 
L 62.809794 231.380268 
L 62.889808 234.135322 
L 62.929815 234.135322 
L 62.969822 233.682437 
L 63.009829 236.173308 
L 63.049836 236.173308 
L 63.049836 236.286529 
L 63.089843 235.116575 
L 63.12985 236.173308 
L 63.169857 236.173308 
L 63.249871 238.513217 
L 63.289878 238.513217 
L 63.369892 239.456728 
L 63.409899 239.456728 
L 63.409899 238.286774 
L 63.489914 240.853126 
L 63.609935 240.777645 
L 63.609935 240.475721 
L 63.689949 241.381492 
L 63.729956 241.381492 
L 63.729956 242.060821 
L 63.80997 242.02308 
L 63.849977 242.02308 
L 63.929991 243.004332 
L 63.969998 243.004332 
L 63.969998 243.117554 
L 64.050012 242.362744 
L 64.090019 242.362744 
L 64.170033 243.872363 
L 64.21004 243.872363 
L 64.21004 243.343997 
L 64.290054 243.64592 
L 64.330061 243.64592 
L 64.330061 243.532699 
L 64.410075 244.136546 
L 64.450082 244.136546 
L 64.530097 244.43847 
L 64.570104 244.43847 
L 64.570104 244.664913 
L 64.650118 244.627173 
L 64.690125 244.627173 
L 64.730132 244.551692 
L 64.770139 244.929096 
L 64.850153 244.853615 
L 64.89016 244.627173 
L 64.930167 244.664913 
L 64.970174 244.664913 
L 65.010181 245.23102 
L 65.050188 244.929096 
L 65.090195 244.929096 
L 65.090195 245.117799 
L 65.170209 245.117799 
L 65.210216 245.117799 
L 65.210216 245.495203 
L 65.29023 245.23102 
L 65.330237 245.23102 
L 65.330237 245.570684 
L 65.410251 245.532944 
L 65.450259 245.532944 
L 65.450259 245.344241 
L 65.490266 245.608425 
L 65.530273 245.532944 
L 65.610287 245.608425 
L 65.650294 245.797127 
L 65.690301 245.759387 
L 65.730308 245.759387 
L 65.730308 245.532944 
L 65.810322 245.721646 
L 65.890336 245.646165 
L 65.890336 245.608425 
L 65.930343 245.608425 
" clip-path="url(#p1dcb749afb)" style="fill: none; stroke: #1f77b4; stroke-width: 1.5; stroke-linecap: square"/>
   </g>
   <g id="line2d_17">
    <path d="M 226.368838 234.097582 
L 226.408833 234.097582 
L 226.488823 213.679989 
L 226.528818 213.679989 
L 226.608808 185.903004 
L 226.648803 185.903004 
L 226.728793 159.711119 
L 226.768788 159.711119 
L 226.848777 138.04809 
L 226.888772 138.04809 
L 226.968762 121.668727 
L 227.008757 121.668727 
L 227.088747 110.195625 
L 227.128742 110.195625 
L 227.208732 96.94872 
L 227.248727 96.94872 
L 227.328717 83.022488 
L 227.368712 83.022488 
L 227.448702 71.209721 
L 227.488697 71.209721 
L 227.488697 68.190484 
L 227.568687 70.34169 
L 227.608682 70.34169 
L 227.648677 58.566664 
L 227.688672 59.585657 
L 227.768662 59.661138 
L 227.768662 59.8121 
L 227.848651 53.962327 
L 227.888646 53.962327 
L 227.888646 54.18877 
L 227.928641 47.244524 
L 227.968636 48.905104 
L 228.008631 48.905104 
L 228.008631 49.961838 
L 228.088621 45.583943 
L 228.128616 45.583943 
L 228.168611 45.093317 
L 228.208606 46.791638 
L 228.248601 46.791638 
L 228.328591 38.601957 
L 228.368586 38.601957 
L 228.408581 42.866629 
L 228.448576 35.544979 
L 228.488571 35.544979 
L 228.488571 40.715423 
L 228.568561 33.657955 
L 228.608556 33.657955 
L 228.608556 36.45075 
L 228.688546 33.431512 
L 228.728541 33.431512 
L 228.728541 37.545223 
L 228.80853 32.41252 
L 228.848525 32.41252 
L 228.848525 33.959879 
L 228.928515 31.016122 
L 228.96851 31.016122 
L 229.008505 31.997375 
L 229.0485 29.091359 
L 229.088495 29.091359 
L 229.088495 34.186322 
L 229.168485 30.714199 
L 229.20848 30.714199 
L 229.20848 30.110351 
L 229.28847 32.525741 
L 229.328465 32.525741 
L 229.36846 28.940397 
L 229.408455 35.507238 
L 229.44845 35.507238 
L 229.44845 38.564216 
L 229.52844 28.940397 
L 229.568435 28.940397 
L 229.568435 34.488246 
L 229.648425 25.845678 
L 229.68842 25.845678 
L 229.728415 32.789924 
L 229.768409 30.78968 
L 229.808404 30.78968 
L 229.808404 27.959145 
L 229.848399 30.865161 
L 229.888394 29.695206 
L 229.928389 29.695206 
L 229.928389 32.488001 
L 229.968384 24.826686 
L 230.008379 30.487756 
L 230.048374 30.487756 
L 230.048374 32.261558 
L 230.088369 26.034381 
L 230.128364 26.185343 
L 230.168359 26.185343 
L 230.208354 23.920914 
L 230.248349 33.054108 
L 230.288344 33.054108 
L 230.328339 26.411785 
L 230.368334 30.563237 
L 230.408329 30.563237 
L 230.448324 25.807938 
L 230.488319 29.355542 
L 230.528314 29.355542 
L 230.568309 32.41252 
L 230.608304 24.637983 
L 230.648299 24.637983 
L 230.688294 30.223573 
L 230.728288 26.336304 
L 230.768283 26.336304 
L 230.808278 23.166105 
L 230.848273 30.299054 
L 230.888268 30.299054 
L 230.888268 30.487756 
L 230.968258 28.110106 
L 231.008253 28.110106 
L 231.008253 31.959634 
L 231.088243 22.411296 
L 231.128238 22.411296 
L 231.128238 28.978137 
L 231.208228 25.732457 
L 231.248223 25.732457 
L 231.288218 31.884153 
L 231.328213 25.355052 
L 231.368208 25.355052 
L 231.408203 25.9589 
L 231.448198 25.16635 
L 231.488193 25.16635 
L 231.488193 22.637739 
L 231.528188 29.129099 
L 231.568183 24.260579 
L 231.608178 24.260579 
L 231.648173 26.82693 
L 231.688168 26.562747 
L 231.728162 26.562747 
L 231.728162 21.354563 
L 231.768157 30.525496 
L 231.808152 23.505769 
L 231.848147 23.505769 
L 231.928137 29.24232 
L 231.968132 29.24232 
L 231.968132 25.16635 
L 232.008127 32.299298 
L 232.048122 27.61948 
L 232.088117 27.61948 
L 232.128112 31.091603 
L 232.168107 29.883908 
L 232.208102 29.883908 
L 232.208102 31.884153 
L 232.248097 23.166105 
L 232.288092 28.261068 
L 232.368082 28.185587 
L 232.448072 24.902167 
L 232.488067 24.902167 
L 232.488067 23.203846 
L 232.568057 30.185832 
L 232.608052 30.185832 
L 232.648047 25.015388 
L 232.688041 29.732947 
L 232.728036 29.732947 
L 232.808026 24.411541 
L 232.848021 24.411541 
L 232.928011 30.978382 
L 232.968006 30.978382 
L 233.008001 23.883174 
L 233.047996 26.336304 
L 233.087991 26.336304 
L 233.167981 29.921649 
L 233.207976 29.921649 
L 233.287966 41.923118 
L 233.327961 41.923118 
L 233.407951 66.794086 
L 233.447946 66.794086 
L 233.527936 94.759773 
L 233.567931 94.759773 
L 233.64792 115.215107 
L 233.687915 115.215107 
L 233.767905 136.161067 
L 233.8079 136.161067 
L 233.88789 156.616401 
L 233.927885 156.616401 
L 234.007875 167.787579 
L 234.04787 167.787579 
L 234.12786 181.751552 
L 234.167855 181.751552 
L 234.247845 191.26215 
L 234.28784 191.26215 
L 234.36783 198.772504 
L 234.407825 198.772504 
L 234.487815 204.810979 
L 234.52781 204.810979 
L 234.6078 211.943927 
L 234.647794 211.943927 
L 234.727784 216.133119 
L 234.767779 216.133119 
L 234.847769 220.926158 
L 234.887764 220.926158 
L 234.967754 225.190831 
L 235.007749 225.190831 
L 235.007749 228.134588 
L 235.087739 227.870405 
L 235.127734 227.870405 
L 235.127734 227.757183 
L 235.207724 231.040604 
L 235.247719 231.040604 
L 235.327709 233.418253 
L 235.367704 233.418253 
L 235.367704 233.15407 
L 235.447694 235.456239 
L 235.487689 235.456239 
L 235.567679 236.248789 
L 235.607673 236.248789 
L 235.687663 238.664179 
L 235.727658 238.664179 
L 235.767653 238.475476 
L 235.807648 239.268026 
L 235.847643 239.268026 
L 235.927633 240.098316 
L 235.967628 240.098316 
L 236.047618 241.683416 
L 236.087613 241.683416 
L 236.087613 242.287264 
L 236.167603 241.570195 
L 236.247593 241.532454 
L 236.327583 242.891111 
L 236.367578 242.891111 
L 236.367578 242.513706 
L 236.447568 242.891111 
L 236.487563 242.891111 
L 236.487563 243.570439 
L 236.567552 243.494958 
L 236.607547 243.494958 
L 236.647542 243.721401 
L 236.687537 243.683661 
L 236.727532 243.683661 
L 236.807522 244.287508 
L 236.847517 244.287508 
L 236.847517 243.910104 
L 236.887512 244.43847 
L 236.927507 244.362989 
L 236.967502 244.362989 
L 236.967502 244.212027 
L 237.047492 244.513951 
L 237.087487 244.513951 
L 237.167477 244.891356 
L 237.207472 244.891356 
L 237.207472 244.551692 
L 237.287462 244.891356 
L 237.327457 244.891356 
L 237.367452 245.004577 
L 237.407447 244.929096 
L 237.447442 244.929096 
L 237.487437 245.23102 
L 237.527431 245.042318 
L 237.567426 245.042318 
L 237.567426 245.26876 
L 237.647416 245.26876 
L 237.727406 245.19328 
L 237.767401 245.608425 
L 237.807396 245.381982 
L 237.847391 245.381982 
L 237.847391 245.23102 
L 237.927381 245.457463 
L 237.967376 245.457463 
L 237.967376 245.646165 
L 238.047366 245.532944 
L 238.087361 245.532944 
L 238.087361 245.683906 
L 238.167351 245.419722 
L 238.207346 245.419722 
L 238.207346 245.721646 
L 238.287336 245.721646 
L 238.327331 245.721646 
L 238.327331 245.532944 
L 238.367326 245.532944 
" clip-path="url(#p1dcb749afb)" style="fill: none; stroke: #ff7f0e; stroke-width: 1.5; stroke-linecap: square"/>
   </g>
   <g id="line2d_18">
    <path d="M 398.80957 234.625948 
L 398.849598 234.625948 
L 398.929655 210.623011 
L 398.969683 210.623011 
L 399.04974 182.242179 
L 399.089769 182.242179 
L 399.169825 157.446691 
L 399.209854 157.446691 
L 399.28991 136.878136 
L 399.329939 136.878136 
L 399.409996 119.140116 
L 399.450024 119.140116 
L 399.530081 106.836723 
L 399.570109 106.836723 
L 399.610138 96.042949 
L 399.650166 97.137423 
L 399.690194 97.137423 
L 399.770251 84.871771 
L 399.810279 84.871771 
L 399.890336 75.851799 
L 399.930365 75.851799 
L 400.010421 63.359704 
L 400.05045 63.359704 
L 400.090478 65.963796 
L 400.130507 60.868833 
L 400.170535 60.868833 
L 400.210563 64.340956 
L 400.250592 59.245993 
L 400.29062 59.245993 
L 400.330648 51.245013 
L 400.370677 52.716892 
L 400.410705 52.716892 
L 400.410705 51.245013 
L 400.490762 51.358235 
L 400.53079 51.358235 
L 400.610847 41.923118 
L 400.650875 41.923118 
L 400.650875 48.074814 
L 400.730932 42.94211 
L 400.770961 42.94211 
L 400.851017 38.337773 
L 400.891046 38.337773 
L 400.891046 39.960613 
L 400.971103 33.808917 
L 401.051159 33.808917 
L 401.131216 36.752674 
L 401.171244 36.752674 
L 401.171244 31.582229 
L 401.251301 31.61997 
L 401.29133 31.61997 
L 401.29133 36.941376 
L 401.371386 35.62046 
L 401.411415 35.62046 
L 401.411415 36.299788 
L 401.491471 30.865161 
L 401.5315 30.865161 
L 401.5315 36.526231 
L 401.611557 32.676703 
L 401.651585 32.676703 
L 401.651585 23.732212 
L 401.731642 24.411541 
L 401.77167 24.411541 
L 401.77167 28.864916 
L 401.811699 24.260579 
L 401.851727 28.525252 
L 401.891755 28.525252 
L 401.931784 24.185098 
L 401.971812 29.808427 
L 402.01184 29.808427 
L 402.051869 23.468029 
L 402.091897 28.487511 
L 402.131926 28.487511 
L 402.171954 28.298809 
L 402.211982 33.280551 
L 402.252011 33.280551 
L 402.252011 26.147602 
L 402.332067 31.506749 
L 402.372096 31.506749 
L 402.372096 28.034625 
L 402.452153 30.185832 
L 402.492181 30.185832 
L 402.532209 25.694716 
L 402.572238 28.034625 
L 402.612266 28.034625 
L 402.612266 24.939907 
L 402.652295 29.99713 
L 402.692323 29.24232 
L 402.732351 29.24232 
L 402.732351 33.582474 
L 402.812408 24.109617 
L 402.852436 24.109617 
L 402.932493 32.638963 
L 402.972522 32.638963 
L 402.972522 33.959879 
L 403.052578 24.33606 
L 403.092607 24.33606 
L 403.172663 31.884153 
L 403.212692 31.884153 
L 403.25272 23.845434 
L 403.292749 25.770197 
L 403.332777 25.770197 
L 403.332777 32.186077 
L 403.412834 23.090624 
L 403.452862 23.090624 
L 403.532919 31.921894 
L 403.572947 31.921894 
L 403.572947 24.675724 
L 403.653004 26.977892 
L 403.693032 26.977892 
L 403.733061 24.33606 
L 403.773089 25.430533 
L 403.813118 25.430533 
L 403.813118 33.846658 
L 403.853146 23.807693 
L 403.893174 30.148092 
L 403.933203 30.148092 
L 404.013259 18.561768 
L 404.053288 18.561768 
L 404.093316 31.65771 
L 404.133345 28.902656 
L 404.173373 28.902656 
L 404.173373 27.808183 
L 404.213401 29.808427 
L 404.25343 28.902656 
L 404.293458 28.902656 
L 404.373515 21.845189 
L 404.413543 21.845189 
L 404.453572 30.336794 
L 404.4936 23.807693 
L 404.533628 23.807693 
L 404.533628 21.392303 
L 404.613685 27.468518 
L 404.653714 27.468518 
L 404.693742 23.845434 
L 404.73377 30.336794 
L 404.773799 30.336794 
L 404.853855 25.015388 
L 404.893884 25.015388 
L 404.933912 33.808917 
L 404.973941 28.41203 
L 405.013969 28.41203 
L 405.013969 22.713219 
L 405.094026 29.280061 
L 405.134054 29.280061 
L 405.134054 33.884398 
L 405.174083 20.826196 
L 405.214111 23.279326 
L 405.254139 23.279326 
L 405.294168 22.75096 
L 405.334196 28.223328 
L 405.374224 28.223328 
L 405.414253 29.657466 
L 405.454281 22.637739 
L 405.49431 22.637739 
L 405.534338 29.20458 
L 405.574366 26.78919 
L 405.614395 26.78919 
L 405.614395 25.506014 
L 405.694451 37.620704 
L 405.73448 37.620704 
L 405.814537 61.887825 
L 405.854565 61.887825 
L 405.934622 82.833785 
L 405.97465 82.833785 
L 406.054707 111.327839 
L 406.094735 111.327839 
L 406.174792 133.066349 
L 406.21482 133.066349 
L 406.294877 147.860612 
L 406.334906 147.860612 
L 406.414962 163.296464 
L 406.454991 163.296464 
L 406.535047 175.826299 
L 406.575076 175.826299 
L 406.655133 188.544837 
L 406.695161 188.544837 
L 406.775218 197.791251 
L 406.815246 197.791251 
L 406.895303 203.188138 
L 406.935331 203.188138 
L 407.015388 209.75498 
L 407.055416 209.75498 
L 407.135473 215.265088 
L 407.175502 215.265088 
L 407.175502 215.114126 
L 407.255558 218.963654 
L 407.295587 218.963654 
L 407.335615 224.851167 
L 407.375643 223.945396 
L 407.415672 223.945396 
L 407.4557 227.228817 
L 407.495729 227.191076 
L 407.535757 227.191076 
L 407.615814 229.342283 
L 407.655842 229.342283 
L 407.655842 232.172818 
L 407.735899 231.191566 
L 407.775927 231.191566 
L 407.855984 233.98436 
L 407.936041 233.98436 
L 407.936041 236.739415 
L 408.016098 236.663934 
L 408.056126 236.663934 
L 408.136183 239.230286 
L 408.176211 239.230286 
L 408.21624 238.7774 
L 408.21624 239.418988 
L 408.256268 239.154805 
L 408.296296 239.154805 
L 408.376353 240.173797 
L 408.496438 240.173797 
L 408.576495 241.570195 
L 408.616523 241.570195 
L 408.656552 242.438225 
L 408.69658 242.325004 
L 408.736608 242.325004 
L 408.736608 241.570195 
L 408.776637 242.438225 
L 408.816665 242.362744 
L 408.856694 242.362744 
L 408.93675 243.419478 
L 408.976779 243.419478 
L 409.016807 243.381737 
L 409.056836 243.796882 
L 409.096864 243.796882 
L 409.136892 243.419478 
L 409.176921 243.947844 
L 409.216949 243.947844 
L 409.256977 244.476211 
L 409.297006 243.60818 
L 409.337034 243.60818 
L 409.417091 244.476211 
L 409.457119 244.476211 
L 409.457119 244.249768 
L 409.497148 244.778134 
L 409.537176 244.362989 
L 409.577204 244.362989 
L 409.657261 244.778134 
L 409.69729 244.778134 
L 409.69729 245.117799 
L 409.777346 245.117799 
L 409.817375 245.117799 
L 409.857403 244.815875 
L 409.897432 245.26876 
L 410.017517 245.19328 
L 410.017517 244.966837 
L 410.057545 245.419722 
L 410.097573 245.26876 
L 410.137602 245.26876 
L 410.137602 245.608425 
L 410.217659 245.495203 
L 410.297715 245.495203 
L 410.337744 245.381982 
L 410.337744 245.570684 
L 410.377772 245.570684 
L 410.4178 245.570684 
L 410.497857 245.19328 
L 410.537886 245.19328 
L 410.577914 245.797127 
L 410.617942 245.457463 
L 410.657971 245.457463 
L 410.738028 245.721646 
L 410.778056 245.721646 
L 410.778056 245.608425 
L 410.818084 245.608425 
" clip-path="url(#p1dcb749afb)" style="fill: none; stroke: #2ca02c; stroke-width: 1.5; stroke-linecap: square"/>
   </g>
   <g id="patch_3">
    <path d="M 53.328125 257.158895 
L 53.328125 7.2 
" style="fill: none; stroke: #000000; stroke-width: 0.8; stroke-linejoin: miter; stroke-linecap: square"/>
   </g>
   <g id="patch_4">
    <path d="M 411.41851 257.158895 
L 411.41851 7.2 
" style="fill: none; stroke: #000000; stroke-width: 0.8; stroke-linejoin: miter; stroke-linecap: square"/>
   </g>
   <g id="patch_5">
    <path d="M 53.328125 257.158895 
L 411.41851 257.158895 
" style="fill: none; stroke: #000000; stroke-width: 0.8; stroke-linejoin: miter; stroke-linecap: square"/>
   </g>
   <g id="patch_6">
    <path d="M 53.328125 7.2 
L 411.41851 7.2 
" style="fill: none; stroke: #000000; stroke-width: 0.8; stroke-linejoin: miter; stroke-linecap: square"/>
   </g>
   <g id="legend_1">
    <g id="patch_7">
     <path d="M 335.860697 252.158895 
L 404.41851 252.158895 
Q 406.41851 252.158895 406.41851 250.158895 
L 406.41851 207.12452 
Q 406.41851 205.12452 404.41851 205.12452 
L 335.860697 205.12452 
Q 333.860697 205.12452 333.860697 207.12452 
L 333.860697 250.158895 
Q 333.860697 252.158895 335.860697 252.158895 
z
" style="fill: #ffffff; opacity: 0.8; stroke: #cccccc; stroke-linejoin: miter"/>
    </g>
    <g id="line2d_19">
     <path d="M 337.860697 213.222957 
L 337.860697 213.222957 
L 347.860697 213.222957 
L 347.860697 213.222957 
L 357.860697 213.222957 
" style="fill: none; stroke: #1f77b4; stroke-width: 1.5; stroke-linecap: square"/>
    </g>
    <g id="text_18">
     <!-- pulse:0 -->
     <g transform="translate(365.860697 216.722957) scale(0.1 -0.1)">
      <defs>
       <path id="DejaVuSans-70" d="M 1159 525 
L 1159 -1331 
L 581 -1331 
L 581 3500 
L 1159 3500 
L 1159 2969 
Q 1341 3281 1617 3432 
Q 1894 3584 2278 3584 
Q 2916 3584 3314 3078 
Q 3713 2572 3713 1747 
Q 3713 922 3314 415 
Q 2916 -91 2278 -91 
Q 1894 -91 1617 61 
Q 1341 213 1159 525 
z
M 3116 1747 
Q 3116 2381 2855 2742 
Q 2594 3103 2138 3103 
Q 1681 3103 1420 2742 
Q 1159 2381 1159 1747 
Q 1159 1113 1420 752 
Q 1681 391 2138 391 
Q 2594 391 2855 752 
Q 3116 1113 3116 1747 
z
" transform="scale(0.015625)"/>
       <path id="DejaVuSans-6c" d="M 603 4863 
L 1178 4863 
L 1178 0 
L 603 0 
L 603 4863 
z
" transform="scale(0.015625)"/>
       <path id="DejaVuSans-3a" d="M 750 794 
L 1409 794 
L 1409 0 
L 750 0 
L 750 794 
z
M 750 3309 
L 1409 3309 
L 1409 2516 
L 750 2516 
L 750 3309 
z
" transform="scale(0.015625)"/>
      </defs>
      <use xlink:href="#DejaVuSans-70"/>
      <use xlink:href="#DejaVuSans-75" transform="translate(63.476562 0)"/>
      <use xlink:href="#DejaVuSans-6c" transform="translate(126.855469 0)"/>
      <use xlink:href="#DejaVuSans-73" transform="translate(154.638672 0)"/>
      <use xlink:href="#DejaVuSans-65" transform="translate(206.738281 0)"/>
      <use xlink:href="#DejaVuSans-3a" transform="translate(268.261719 0)"/>
      <use xlink:href="#DejaVuSans-30" transform="translate(301.953125 0)"/>
     </g>
    </g>
    <g id="line2d_20">
     <path d="M 337.860697 227.901082 
L 337.860697 227.901082 
L 347.860697 227.901082 
L 347.860697 227.901082 
L 357.860697 227.901082 
" style="fill: none; stroke: #ff7f0e; stroke-width: 1.5; stroke-linecap: square"/>
    </g>
    <g id="text_19">
     <!-- pulse:1 -->
     <g transform="translate(365.860697 231.401082) scale(0.1 -0.1)">
      <use xlink:href="#DejaVuSans-70"/>
      <use xlink:href="#DejaVuSans-75" transform="translate(63.476562 0)"/>
      <use xlink:href="#DejaVuSans-6c" transform="translate(126.855469 0)"/>
      <use xlink:href="#DejaVuSans-73" transform="translate(154.638672 0)"/>
      <use xlink:href="#DejaVuSans-65" transform="translate(206.738281 0)"/>
      <use xlink:href="#DejaVuSans-3a" transform="translate(268.261719 0)"/>
      <use xlink:href="#DejaVuSans-31" transform="translate(301.953125 0)"/>
     </g>
    </g>
    <g id="line2d_21">
     <path d="M 337.860697 242.579207 
L 337.860697 242.579207 
L 347.860697 242.579207 
L 347.860697 242.579207 
L 357.860697 242.579207 
" style="fill: none; stroke: #2ca02c; stroke-width: 1.5; stroke-linecap: square"/>
    </g>
    <g id="text_20">
     <!-- pulse:2 -->
     <g transform="translate(365.860697 246.079207) scale(0.1 -0.1)">
      <use xlink:href="#DejaVuSans-70"/>
      <use xlink:href="#DejaVuSans-75" transform="translate(63.476562 0)"/>
      <use xlink:href="#DejaVuSans-6c" transform="translate(126.855469 0)"/>
      <use xlink:href="#DejaVuSans-73" transform="translate(154.638672 0)"/>
      <use xlink:href="#DejaVuSans-65" transform="translate(206.738281 0)"/>
      <use xlink:href="#DejaVuSans-3a" transform="translate(268.261719 0)"/>
      <use xlink:href="#DejaVuSans-32" transform="translate(301.953125 0)"/>
     </g>
    </g>
   </g>
  </g>
  <g id="axes_2">
   <g id="patch_8">
    <path d="M 507.109135 257.158895 
L 865.19952 257.158895 
L 865.19952 7.2 
L 507.109135 7.2 
z
" style="fill: #ffffff"/>
   </g>
   <g id="matplotlib.axis_3">
    <g id="xtick_9">
     <g id="line2d_22">
      <g>
       <use xlink:href="#m0a2b4cc1fb" x="520.105713" y="257.158895" style="stroke: #000000; stroke-width: 0.8"/>
      </g>
     </g>
     <g id="text_21">
      <!-- 0.0 -->
      <g transform="translate(512.154151 271.757332) scale(0.1 -0.1)">
       <defs>
        <path id="DejaVuSans-2e" d="M 684 794 
L 1344 794 
L 1344 0 
L 684 0 
L 684 794 
z
" transform="scale(0.015625)"/>
       </defs>
       <use xlink:href="#DejaVuSans-30"/>
       <use xlink:href="#DejaVuSans-2e" transform="translate(63.623047 0)"/>
       <use xlink:href="#DejaVuSans-30" transform="translate(95.410156 0)"/>
      </g>
     </g>
    </g>
    <g id="xtick_10">
     <g id="line2d_23">
      <g>
       <use xlink:href="#m0a2b4cc1fb" x="561.41534" y="257.158895" style="stroke: #000000; stroke-width: 0.8"/>
      </g>
     </g>
     <g id="text_22">
      <!-- 2.5 -->
      <g transform="translate(553.463777 271.757332) scale(0.1 -0.1)">
       <use xlink:href="#DejaVuSans-32"/>
       <use xlink:href="#DejaVuSans-2e" transform="translate(63.623047 0)"/>
       <use xlink:href="#DejaVuSans-35" transform="translate(95.410156 0)"/>
      </g>
     </g>
    </g>
    <g id="xtick_11">
     <g id="line2d_24">
      <g>
       <use xlink:href="#m0a2b4cc1fb" x="602.724966" y="257.158895" style="stroke: #000000; stroke-width: 0.8"/>
      </g>
     </g>
     <g id="text_23">
      <!-- 5.0 -->
      <g transform="translate(594.773404 271.757332) scale(0.1 -0.1)">
       <use xlink:href="#DejaVuSans-35"/>
       <use xlink:href="#DejaVuSans-2e" transform="translate(63.623047 0)"/>
       <use xlink:href="#DejaVuSans-30" transform="translate(95.410156 0)"/>
      </g>
     </g>
    </g>
    <g id="xtick_12">
     <g id="line2d_25">
      <g>
       <use xlink:href="#m0a2b4cc1fb" x="644.034593" y="257.158895" style="stroke: #000000; stroke-width: 0.8"/>
      </g>
     </g>
     <g id="text_24">
      <!-- 7.5 -->
      <g transform="translate(636.08303 271.757332) scale(0.1 -0.1)">
       <defs>
        <path id="DejaVuSans-37" d="M 525 4666 
L 3525 4666 
L 3525 4397 
L 1831 0 
L 1172 0 
L 2766 4134 
L 525 4134 
L 525 4666 
z
" transform="scale(0.015625)"/>
       </defs>
       <use xlink:href="#DejaVuSans-37"/>
       <use xlink:href="#DejaVuSans-2e" transform="translate(63.623047 0)"/>
       <use xlink:href="#DejaVuSans-35" transform="translate(95.410156 0)"/>
      </g>
     </g>
    </g>
    <g id="xtick_13">
     <g id="line2d_26">
      <g>
       <use xlink:href="#m0a2b4cc1fb" x="685.344219" y="257.158895" style="stroke: #000000; stroke-width: 0.8"/>
      </g>
     </g>
     <g id="text_25">
      <!-- 10.0 -->
      <g transform="translate(674.211406 271.757332) scale(0.1 -0.1)">
       <use xlink:href="#DejaVuSans-31"/>
       <use xlink:href="#DejaVuSans-30" transform="translate(63.623047 0)"/>
       <use xlink:href="#DejaVuSans-2e" transform="translate(127.246094 0)"/>
       <use xlink:href="#DejaVuSans-30" transform="translate(159.033203 0)"/>
      </g>
     </g>
    </g>
    <g id="xtick_14">
     <g id="line2d_27">
      <g>
       <use xlink:href="#m0a2b4cc1fb" x="726.653845" y="257.158895" style="stroke: #000000; stroke-width: 0.8"/>
      </g>
     </g>
     <g id="text_26">
      <!-- 12.5 -->
      <g transform="translate(715.521033 271.757332) scale(0.1 -0.1)">
       <use xlink:href="#DejaVuSans-31"/>
       <use xlink:href="#DejaVuSans-32" transform="translate(63.623047 0)"/>
       <use xlink:href="#DejaVuSans-2e" transform="translate(127.246094 0)"/>
       <use xlink:href="#DejaVuSans-35" transform="translate(159.033203 0)"/>
      </g>
     </g>
    </g>
    <g id="xtick_15">
     <g id="line2d_28">
      <g>
       <use xlink:href="#m0a2b4cc1fb" x="767.963472" y="257.158895" style="stroke: #000000; stroke-width: 0.8"/>
      </g>
     </g>
     <g id="text_27">
      <!-- 15.0 -->
      <g transform="translate(756.830659 271.757332) scale(0.1 -0.1)">
       <use xlink:href="#DejaVuSans-31"/>
       <use xlink:href="#DejaVuSans-35" transform="translate(63.623047 0)"/>
       <use xlink:href="#DejaVuSans-2e" transform="translate(127.246094 0)"/>
       <use xlink:href="#DejaVuSans-30" transform="translate(159.033203 0)"/>
      </g>
     </g>
    </g>
    <g id="xtick_16">
     <g id="line2d_29">
      <g>
       <use xlink:href="#m0a2b4cc1fb" x="809.273098" y="257.158895" style="stroke: #000000; stroke-width: 0.8"/>
      </g>
     </g>
     <g id="text_28">
      <!-- 17.5 -->
      <g transform="translate(798.140286 271.757332) scale(0.1 -0.1)">
       <use xlink:href="#DejaVuSans-31"/>
       <use xlink:href="#DejaVuSans-37" transform="translate(63.623047 0)"/>
       <use xlink:href="#DejaVuSans-2e" transform="translate(127.246094 0)"/>
       <use xlink:href="#DejaVuSans-35" transform="translate(159.033203 0)"/>
      </g>
     </g>
    </g>
    <g id="xtick_17">
     <g id="line2d_30">
      <g>
       <use xlink:href="#m0a2b4cc1fb" x="850.582725" y="257.158895" style="stroke: #000000; stroke-width: 0.8"/>
      </g>
     </g>
     <g id="text_29">
      <!-- 20.0 -->
      <g transform="translate(839.449912 271.757332) scale(0.1 -0.1)">
       <use xlink:href="#DejaVuSans-32"/>
       <use xlink:href="#DejaVuSans-30" transform="translate(63.623047 0)"/>
       <use xlink:href="#DejaVuSans-2e" transform="translate(127.246094 0)"/>
       <use xlink:href="#DejaVuSans-30" transform="translate(159.033203 0)"/>
      </g>
     </g>
    </g>
    <g id="text_30">
     <!-- wavelength [Å] -->
     <g transform="translate(648.116827 287.119832) scale(0.1 -0.1)">
      <defs>
       <path id="DejaVuSans-77" d="M 269 3500 
L 844 3500 
L 1563 769 
L 2278 3500 
L 2956 3500 
L 3675 769 
L 4391 3500 
L 4966 3500 
L 4050 0 
L 3372 0 
L 2619 2869 
L 1863 0 
L 1184 0 
L 269 3500 
z
" transform="scale(0.015625)"/>
       <path id="DejaVuSans-61" d="M 2194 1759 
Q 1497 1759 1228 1600 
Q 959 1441 959 1056 
Q 959 750 1161 570 
Q 1363 391 1709 391 
Q 2188 391 2477 730 
Q 2766 1069 2766 1631 
L 2766 1759 
L 2194 1759 
z
M 3341 1997 
L 3341 0 
L 2766 0 
L 2766 531 
Q 2569 213 2275 61 
Q 1981 -91 1556 -91 
Q 1019 -91 701 211 
Q 384 513 384 1019 
Q 384 1609 779 1909 
Q 1175 2209 1959 2209 
L 2766 2209 
L 2766 2266 
Q 2766 2663 2505 2880 
Q 2244 3097 1772 3097 
Q 1472 3097 1187 3025 
Q 903 2953 641 2809 
L 641 3341 
Q 956 3463 1253 3523 
Q 1550 3584 1831 3584 
Q 2591 3584 2966 3190 
Q 3341 2797 3341 1997 
z
" transform="scale(0.015625)"/>
       <path id="DejaVuSans-76" d="M 191 3500 
L 800 3500 
L 1894 563 
L 2988 3500 
L 3597 3500 
L 2284 0 
L 1503 0 
L 191 3500 
z
" transform="scale(0.015625)"/>
       <path id="DejaVuSans-67" d="M 2906 1791 
Q 2906 2416 2648 2759 
Q 2391 3103 1925 3103 
Q 1463 3103 1205 2759 
Q 947 2416 947 1791 
Q 947 1169 1205 825 
Q 1463 481 1925 481 
Q 2391 481 2648 825 
Q 2906 1169 2906 1791 
z
M 3481 434 
Q 3481 -459 3084 -895 
Q 2688 -1331 1869 -1331 
Q 1566 -1331 1297 -1286 
Q 1028 -1241 775 -1147 
L 775 -588 
Q 1028 -725 1275 -790 
Q 1522 -856 1778 -856 
Q 2344 -856 2625 -561 
Q 2906 -266 2906 331 
L 2906 616 
Q 2728 306 2450 153 
Q 2172 0 1784 0 
Q 1141 0 747 490 
Q 353 981 353 1791 
Q 353 2603 747 3093 
Q 1141 3584 1784 3584 
Q 2172 3584 2450 3431 
Q 2728 3278 2906 2969 
L 2906 3500 
L 3481 3500 
L 3481 434 
z
" transform="scale(0.015625)"/>
       <path id="DejaVuSans-c5" d="M 2663 5081 
Q 2663 5278 2523 5417 
Q 2384 5556 2188 5556 
Q 1988 5556 1852 5420 
Q 1716 5284 1716 5081 
Q 1716 4884 1853 4746 
Q 1991 4609 2188 4609 
Q 2384 4609 2523 4746 
Q 2663 4884 2663 5081 
z
M 2188 4044 
L 1338 1722 
L 3041 1722 
L 2188 4044 
z
M 1716 4366 
Q 1525 4494 1428 4673 
Q 1331 4853 1331 5081 
Q 1331 5441 1579 5691 
Q 1828 5941 2188 5941 
Q 2544 5941 2795 5689 
Q 3047 5438 3047 5081 
Q 3047 4863 2948 4678 
Q 2850 4494 2663 4366 
L 4325 0 
L 3669 0 
L 3244 1197 
L 1141 1197 
L 716 0 
L 50 0 
L 1716 4366 
z
" transform="scale(0.015625)"/>
      </defs>
      <use xlink:href="#DejaVuSans-77"/>
      <use xlink:href="#DejaVuSans-61" transform="translate(81.787109 0)"/>
      <use xlink:href="#DejaVuSans-76" transform="translate(143.066406 0)"/>
      <use xlink:href="#DejaVuSans-65" transform="translate(202.246094 0)"/>
      <use xlink:href="#DejaVuSans-6c" transform="translate(263.769531 0)"/>
      <use xlink:href="#DejaVuSans-65" transform="translate(291.552734 0)"/>
      <use xlink:href="#DejaVuSans-6e" transform="translate(353.076172 0)"/>
      <use xlink:href="#DejaVuSans-67" transform="translate(416.455078 0)"/>
      <use xlink:href="#DejaVuSans-74" transform="translate(479.931641 0)"/>
      <use xlink:href="#DejaVuSans-68" transform="translate(519.140625 0)"/>
      <use xlink:href="#DejaVuSans-20" transform="translate(582.519531 0)"/>
      <use xlink:href="#DejaVuSans-5b" transform="translate(614.306641 0)"/>
      <use xlink:href="#DejaVuSans-c5" transform="translate(653.320312 0)"/>
      <use xlink:href="#DejaVuSans-5d" transform="translate(721.728516 0)"/>
     </g>
    </g>
   </g>
   <g id="matplotlib.axis_4">
    <g id="ytick_8">
     <g id="line2d_31">
      <g>
       <use xlink:href="#m5267710fd4" x="507.109135" y="245.848819" style="stroke: #000000; stroke-width: 0.8"/>
      </g>
     </g>
     <g id="text_31">
      <!-- 0 -->
      <g transform="translate(493.746635 249.648038) scale(0.1 -0.1)">
       <use xlink:href="#DejaVuSans-30"/>
      </g>
     </g>
    </g>
    <g id="ytick_9">
     <g id="line2d_32">
      <g>
       <use xlink:href="#m5267710fd4" x="507.109135" y="193.658905" style="stroke: #000000; stroke-width: 0.8"/>
      </g>
     </g>
     <g id="text_32">
      <!-- 5000 -->
      <g transform="translate(474.659135 197.458124) scale(0.1 -0.1)">
       <use xlink:href="#DejaVuSans-35"/>
       <use xlink:href="#DejaVuSans-30" transform="translate(63.623047 0)"/>
       <use xlink:href="#DejaVuSans-30" transform="translate(127.246094 0)"/>
       <use xlink:href="#DejaVuSans-30" transform="translate(190.869141 0)"/>
      </g>
     </g>
    </g>
    <g id="ytick_10">
     <g id="line2d_33">
      <g>
       <use xlink:href="#m5267710fd4" x="507.109135" y="141.468991" style="stroke: #000000; stroke-width: 0.8"/>
      </g>
     </g>
     <g id="text_33">
      <!-- 10000 -->
      <g transform="translate(468.296635 145.26821) scale(0.1 -0.1)">
       <use xlink:href="#DejaVuSans-31"/>
       <use xlink:href="#DejaVuSans-30" transform="translate(63.623047 0)"/>
       <use xlink:href="#DejaVuSans-30" transform="translate(127.246094 0)"/>
       <use xlink:href="#DejaVuSans-30" transform="translate(190.869141 0)"/>
       <use xlink:href="#DejaVuSans-30" transform="translate(254.492188 0)"/>
      </g>
     </g>
    </g>
    <g id="ytick_11">
     <g id="line2d_34">
      <g>
       <use xlink:href="#m5267710fd4" x="507.109135" y="89.279077" style="stroke: #000000; stroke-width: 0.8"/>
      </g>
     </g>
     <g id="text_34">
      <!-- 15000 -->
      <g transform="translate(468.296635 93.078296) scale(0.1 -0.1)">
       <use xlink:href="#DejaVuSans-31"/>
       <use xlink:href="#DejaVuSans-35" transform="translate(63.623047 0)"/>
       <use xlink:href="#DejaVuSans-30" transform="translate(127.246094 0)"/>
       <use xlink:href="#DejaVuSans-30" transform="translate(190.869141 0)"/>
       <use xlink:href="#DejaVuSans-30" transform="translate(254.492188 0)"/>
      </g>
     </g>
    </g>
    <g id="ytick_12">
     <g id="line2d_35">
      <g>
       <use xlink:href="#m5267710fd4" x="507.109135" y="37.089164" style="stroke: #000000; stroke-width: 0.8"/>
      </g>
     </g>
     <g id="text_35">
      <!-- 20000 -->
      <g transform="translate(468.296635 40.888382) scale(0.1 -0.1)">
       <use xlink:href="#DejaVuSans-32"/>
       <use xlink:href="#DejaVuSans-30" transform="translate(63.623047 0)"/>
       <use xlink:href="#DejaVuSans-30" transform="translate(127.246094 0)"/>
       <use xlink:href="#DejaVuSans-30" transform="translate(190.869141 0)"/>
       <use xlink:href="#DejaVuSans-30" transform="translate(254.492188 0)"/>
      </g>
     </g>
    </g>
    <g id="text_36">
     <!-- [counts] -->
     <g transform="translate(462.216947 152.791947) rotate(-90) scale(0.1 -0.1)">
      <use xlink:href="#DejaVuSans-5b"/>
      <use xlink:href="#DejaVuSans-63" transform="translate(39.013672 0)"/>
      <use xlink:href="#DejaVuSans-6f" transform="translate(93.994141 0)"/>
      <use xlink:href="#DejaVuSans-75" transform="translate(155.175781 0)"/>
      <use xlink:href="#DejaVuSans-6e" transform="translate(218.554688 0)"/>
      <use xlink:href="#DejaVuSans-74" transform="translate(281.933594 0)"/>
      <use xlink:href="#DejaVuSans-73" transform="translate(321.142578 0)"/>
      <use xlink:href="#DejaVuSans-5d" transform="translate(373.242188 0)"/>
     </g>
    </g>
   </g>
   <g id="line2d_36">
    <path d="M 523.385949 155.153187 
L 524.470672 155.153187 
L 524.470672 148.1493 
L 525.555394 148.1493 
L 525.555394 138.274968 
L 526.640116 138.274968 
L 526.640116 137.878325 
L 527.724839 137.878325 
L 527.724839 145.111847 
L 528.809561 145.111847 
L 528.809561 156.729322 
L 529.894283 156.729322 
L 529.894283 148.890397 
L 530.979006 148.890397 
L 530.979006 127.836986 
L 532.063728 127.836986 
L 532.063728 105.781528 
L 533.14845 105.781528 
L 533.14845 85.135198 
L 534.233173 85.135198 
L 534.233173 63.246748 
L 535.317895 63.246748 
L 535.317895 39.354206 
L 536.402617 39.354206 
L 536.402617 24.072999 
L 538.572062 24.104313 
L 538.572062 22.632558 
L 539.656784 22.632558 
L 539.656784 23.279712 
L 540.741506 23.279712 
L 540.741506 34.41704 
L 541.826229 34.41704 
L 541.826229 41.97414 
L 542.910951 41.97414 
L 542.910951 51.984165 
L 543.995673 51.984165 
L 543.995673 64.749818 
L 545.080396 64.749818 
L 545.080396 70.626402 
L 546.165118 70.626402 
L 546.165118 79.060292 
L 547.24984 79.060292 
L 547.24984 86.669582 
L 548.334563 86.669582 
L 548.334563 90.750833 
L 549.419285 90.750833 
L 549.419285 96.09508 
L 550.504007 96.09508 
L 550.504007 97.034499 
L 551.58873 97.034499 
L 551.58873 97.211944 
L 552.673452 97.211944 
L 552.673452 98.746328 
L 553.758174 98.746328 
L 553.758174 93.047189 
L 554.842897 93.047189 
L 554.842897 89.571341 
L 555.927619 89.571341 
L 555.927619 82.682272 
L 557.012341 82.682272 
L 557.012341 71.106549 
L 558.097064 71.106549 
L 558.097064 62.265578 
L 559.181786 62.265578 
L 559.181786 53.633366 
L 560.266508 53.633366 
L 560.266508 45.961449 
L 561.351231 45.961449 
L 561.351231 37.88245 
L 562.435953 37.88245 
L 562.435953 34.552734 
L 563.520675 34.552734 
L 563.520675 44.583635 
L 564.605398 44.583635 
L 564.605398 52.902708 
L 565.69012 52.902708 
L 565.69012 62.432586 
L 566.774842 62.432586 
L 566.774842 73.799549 
L 567.859565 73.799549 
L 567.859565 78.684525 
L 568.944287 78.684525 
L 568.944287 90.656891 
L 570.029009 90.656891 
L 570.029009 97.733843 
L 571.113732 97.733843 
L 571.113732 106.292989 
L 572.198454 106.292989 
L 572.198454 112.409647 
L 573.283176 112.409647 
L 573.283176 119.747549 
L 574.367898 119.747549 
L 574.367898 128.077059 
L 575.452621 128.077059 
L 575.452621 132.836779 
L 576.537343 132.836779 
L 576.537343 138.107961 
L 577.622065 138.107961 
L 577.622065 142.721549 
L 578.706788 142.721549 
L 578.706788 149.015653 
L 579.79151 149.015653 
L 579.79151 151.886098 
L 580.876232 151.886098 
L 580.876232 156.614504 
L 581.960955 156.614504 
L 581.960955 161.165465 
L 583.045677 161.165465 
L 583.045677 165.716425 
L 584.130399 165.716425 
L 584.130399 170.559649 
L 585.215122 170.559649 
L 585.215122 173.127393 
L 586.299844 173.127393 
L 586.299844 177.083388 
L 587.384566 177.083388 
L 587.384566 178.513392 
L 588.469289 178.513392 
L 588.469289 183.471434 
L 589.554011 183.471434 
L 589.554011 186.498449 
L 590.638733 186.498449 
L 590.638733 188.377286 
L 591.723456 188.377286 
L 591.723456 190.391816 
L 592.808178 190.391816 
L 592.808178 194.065986 
L 593.8929 194.065986 
L 593.8929 195.402048 
L 594.977623 195.402048 
L 594.977623 199.284978 
L 596.062345 199.284978 
L 596.062345 200.850675 
L 597.147067 200.850675 
L 597.147067 202.155423 
L 598.23179 202.155423 
L 598.23179 205.004992 
L 599.316512 205.004992 
L 599.316512 205.787841 
L 600.401234 205.787841 
L 600.401234 208.397337 
L 601.485957 208.397337 
L 601.485957 209.796026 
L 602.570679 209.796026 
L 602.570679 212.238514 
L 603.655401 212.238514 
L 603.655401 213.042239 
L 604.740123 213.042239 
L 604.740123 214.409615 
L 605.824846 214.409615 
L 605.824846 215.265529 
L 606.909568 215.265529 
L 606.909568 217.342688 
L 607.99429 217.342688 
L 607.99429 217.937653 
L 609.079013 217.937653 
L 609.079013 219.639044 
L 611.248457 219.743424 
L 611.248457 221.820582 
L 612.33318 221.820582 
L 612.33318 222.060656 
L 613.417902 222.060656 
L 613.417902 222.739125 
L 614.502624 222.739125 
L 614.502624 223.949931 
L 615.587347 223.949931 
L 615.587347 225.098109 
L 616.672069 225.098109 
L 616.672069 225.379935 
L 617.756791 225.379935 
L 617.756791 226.496799 
L 618.841514 226.496799 
L 618.841514 228.031182 
L 619.926236 228.031182 
L 619.926236 228.469577 
L 621.010958 228.469577 
L 621.010958 228.782717 
L 622.095681 228.782717 
L 622.095681 230.609364 
L 623.180403 230.609364 
L 623.180403 230.36929 
L 624.265125 230.36929 
L 624.265125 231.047759 
L 625.349848 231.047759 
L 625.349848 231.841046 
L 626.43457 231.841046 
L 626.43457 232.415135 
L 627.519292 232.415135 
L 627.519292 232.770026 
L 628.604015 232.770026 
L 628.604015 233.27105 
L 630.773459 233.208422 
L 630.773459 234.053898 
L 631.858182 234.053898 
L 631.858182 234.554921 
L 632.942904 234.554921 
L 632.942904 235.275142 
L 634.027626 235.275142 
L 634.027626 235.974487 
L 635.112348 235.974487 
L 635.112348 235.682224 
L 636.197071 235.682224 
L 636.197071 235.828355 
L 637.281793 235.828355 
L 637.281793 236.339816 
L 638.366515 236.339816 
L 638.366515 236.63208 
L 640.53596 236.705146 
L 640.53596 237.258359 
L 641.620682 237.258359 
L 641.620682 237.133103 
L 642.705405 237.133103 
L 642.705405 237.832448 
L 643.790127 237.832448 
L 643.790127 237.957704 
L 644.874849 237.957704 
L 644.874849 238.239529 
L 645.959572 238.239529 
L 645.959572 238.542231 
L 647.044294 238.542231 
L 647.044294 238.688363 
L 648.129016 238.688363 
L 648.129016 239.2207 
L 649.213739 239.2207 
L 649.213739 238.991064 
L 650.298461 238.991064 
L 650.298461 239.460773 
L 651.383183 239.460773 
L 651.383183 239.972234 
L 652.467906 239.972234 
L 652.467906 239.669533 
L 653.552628 239.669533 
L 653.552628 239.99311 
L 654.63735 239.99311 
L 654.63735 240.337564 
L 655.722073 240.337564 
L 655.722073 240.650703 
L 656.806795 240.650703 
L 656.806795 240.368878 
L 657.891517 240.368878 
L 657.891517 240.546324 
L 658.97624 240.546324 
L 658.97624 240.849025 
L 660.060962 240.849025 
L 660.060962 241.130851 
L 663.315129 241.203916 
L 663.315129 241.412676 
L 664.399851 241.412676 
L 664.399851 241.54837 
L 665.484573 241.54837 
L 665.484573 241.75713 
L 666.569296 241.75713 
L 666.569296 242.049393 
L 667.654018 242.049393 
L 667.654018 241.934575 
L 668.73874 241.934575 
L 668.73874 242.049393 
L 670.908185 242.049393 
L 670.908185 242.706986 
L 671.992907 242.706986 
L 671.992907 242.560854 
L 673.07763 242.560854 
L 673.07763 242.42516 
L 674.162352 242.42516 
L 674.162352 242.800928 
L 676.331797 242.696548 
L 676.331797 242.279029 
L 677.416519 242.279029 
L 677.416519 242.863556 
L 678.501241 242.863556 
L 678.501241 243.082753 
L 680.670686 243.114067 
L 680.670686 242.905308 
L 682.840131 242.988812 
L 682.840131 243.020125 
L 683.924853 243.020125 
L 683.924853 243.249761 
L 685.009575 243.249761 
L 685.009575 243.573339 
L 686.094298 243.573339 
L 686.094298 243.375017 
L 688.263742 243.479397 
L 688.263742 243.583777 
L 692.602632 243.646404 
L 692.602632 243.92823 
L 693.687354 243.92823 
L 693.687354 243.468959 
L 694.772076 243.468959 
L 694.772076 244.043048 
L 696.941521 243.990858 
L 696.941521 243.834288 
L 698.026243 243.834288 
L 698.026243 244.053486 
L 702.365132 244.13699 
L 702.365132 244.178742 
L 703.449855 244.178742 
L 703.449855 244.366625 
L 704.534577 244.366625 
L 704.534577 244.251807 
L 706.704022 244.262245 
L 706.704022 244.105676 
L 707.788744 244.105676 
L 707.788744 244.606699 
L 708.873466 244.606699 
L 708.873466 244.439691 
L 713.212356 244.429253 
L 713.212356 244.606699 
L 714.297078 244.606699 
L 714.297078 244.408377 
L 718.635967 244.491881 
L 718.635967 244.752831 
L 720.805412 244.679765 
L 720.805412 244.919838 
L 721.890134 244.919838 
L 721.890134 244.711079 
L 725.144301 244.721517 
L 725.144301 244.898962 
L 727.313746 244.794583 
L 727.313746 244.742393 
L 728.398468 244.742393 
L 728.398468 244.930276 
L 730.567913 244.888524 
L 730.567913 244.721517 
L 731.652635 244.721517 
L 731.652635 245.034656 
L 735.991524 245.01378 
L 735.991524 245.191226 
L 737.076247 245.191226 
L 737.076247 244.898962 
L 738.160969 244.898962 
L 738.160969 245.076408 
L 741.415136 245.159912 
L 741.415136 245.32692 
L 742.499858 245.32692 
L 742.499858 245.17035 
L 751.177637 245.22254 
L 751.177637 245.37911 
L 754.431804 245.358234 
L 754.431804 245.253854 
L 756.601248 245.27473 
L 756.601248 245.410424 
L 772.872083 245.389548 
L 772.872083 245.264292 
L 773.956806 245.264292 
L 773.956806 245.431299 
L 778.295695 245.483489 
L 778.295695 245.566993 
L 807.583198 245.650497 
L 807.583198 245.734001 
L 848.802646 245.786191 
L 848.802646 245.786191 
" clip-path="url(#pd3354ede00)" style="fill: none; stroke: #1f77b4; stroke-width: 1.5; stroke-linecap: square"/>
   </g>
   <g id="line2d_37">
    <path d="M 523.386054 155.560268 
L 524.470657 155.560268 
L 524.470657 146.166083 
L 525.55526 146.166083 
L 525.55526 138.692488 
L 526.639863 138.692488 
L 526.639863 139.370957 
L 527.724466 139.370957 
L 527.724466 148.378936 
L 528.809069 148.378936 
L 528.809069 156.68757 
L 529.893672 156.68757 
L 529.893672 148.545944 
L 530.978275 148.545944 
L 530.978275 126.375668 
L 532.062878 126.375668 
L 532.062878 105.7189 
L 533.147481 105.7189 
L 533.147481 82.577892 
L 534.232084 82.577892 
L 534.232084 62.912733 
L 535.316687 62.912733 
L 535.316687 36.650768 
L 536.40129 36.650768 
L 536.40129 27.006072 
L 537.485893 27.006072 
L 537.485893 24.052123 
L 538.570496 24.052123 
L 538.570496 18.770504 
L 539.655099 18.770504 
L 539.655099 26.379793 
L 540.739702 26.379793 
L 540.739702 32.256378 
L 541.824305 32.256378 
L 541.824305 43.331077 
L 542.908908 43.331077 
L 542.908908 53.017525 
L 543.993511 53.017525 
L 543.993511 60.720757 
L 545.078113 60.720757 
L 545.078113 71.252681 
L 546.162716 71.252681 
L 546.162716 80.866063 
L 547.247319 80.866063 
L 547.247319 87.327175 
L 548.331922 87.327175 
L 548.331922 91.888573 
L 549.416525 91.888573 
L 549.416525 94.435441 
L 550.501128 94.435441 
L 550.501128 95.708875 
L 551.585731 95.708875 
L 551.585731 97.076251 
L 552.670334 97.076251 
L 552.670334 98.161801 
L 553.754937 98.161801 
L 553.754937 93.61084 
L 554.83954 93.61084 
L 554.83954 90.270686 
L 555.924143 90.270686 
L 555.924143 83.579939 
L 557.008746 83.579939 
L 557.008746 72.463487 
L 558.093349 72.463487 
L 558.093349 59.238563 
L 559.177952 59.238563 
L 559.177952 54.499719 
L 560.262555 54.499719 
L 560.262555 44.218306 
L 561.347158 44.218306 
L 561.347158 39.823915 
L 563.516364 39.771725 
L 563.516364 43.978232 
L 564.600967 43.978232 
L 564.600967 53.842126 
L 565.68557 53.842126 
L 565.68557 60.929516 
L 566.770173 60.929516 
L 566.770173 70.53246 
L 567.854776 70.53246 
L 567.854776 83.548625 
L 568.939379 83.548625 
L 568.939379 89.957546 
L 570.023982 89.957546 
L 570.023982 99.82144 
L 571.108585 99.82144 
L 571.108585 109.413946 
L 572.193188 109.413946 
L 572.193188 112.628845 
L 573.277791 112.628845 
L 573.277791 119.684921 
L 574.362394 119.684921 
L 574.362394 125.874645 
L 575.446997 125.874645 
L 575.446997 132.68021 
L 576.5316 132.68021 
L 576.5316 136.803213 
L 577.616203 136.803213 
L 577.616203 142.930309 
L 578.700806 142.930309 
L 578.700806 147.189006 
L 579.785408 147.189006 
L 579.785408 152.575005 
L 580.870011 152.575005 
L 580.870011 159.944221 
L 581.954614 159.944221 
L 581.954614 162.908608 
L 583.039217 162.908608 
L 583.039217 164.724817 
L 584.12382 164.724817 
L 584.12382 170.006436 
L 585.208423 170.006436 
L 585.208423 172.762064 
L 586.293026 172.762064 
L 586.293026 176.665869 
L 587.377629 176.665869 
L 587.377629 180.778434 
L 588.462232 180.778434 
L 588.462232 183.377492 
L 589.546835 183.377492 
L 589.546835 185.92436 
L 590.631438 185.92436 
L 590.631438 188.659111 
L 591.716041 188.659111 
L 591.716041 189.358456 
L 592.800644 189.358456 
L 592.800644 193.377079 
L 593.885247 193.377079 
L 593.885247 196.73811 
L 594.96985 196.73811 
L 594.96985 198.491691 
L 596.054453 198.491691 
L 596.054453 199.27454 
L 597.139056 199.27454 
L 597.139056 201.34126 
L 598.223659 201.34126 
L 598.223659 204.378713 
L 599.308262 204.378713 
L 599.308262 205.892221 
L 600.392865 205.892221 
L 600.392865 207.593612 
L 601.477468 207.593612 
L 601.477468 210.203108 
L 602.562071 210.203108 
L 602.562071 209.806464 
L 603.646674 209.806464 
L 603.646674 212.614282 
L 604.731277 212.614282 
L 604.731277 214.106913 
L 605.81588 214.106913 
L 605.81588 216.278014 
L 606.900483 216.278014 
L 606.900483 217.478382 
L 607.985086 217.478382 
L 607.985086 217.833273 
L 609.069689 217.833273 
L 609.069689 219.273715 
L 610.154292 219.273715 
L 610.154292 220.630652 
L 611.238895 220.630652 
L 611.238895 221.152552 
L 612.323498 221.152552 
L 612.323498 222.24854 
L 613.408101 222.24854 
L 613.408101 223.908179 
L 614.492703 223.908179 
L 614.492703 224.805846 
L 615.577306 224.805846 
L 615.577306 225.473876 
L 616.661909 225.473876 
L 616.661909 225.223365 
L 617.746512 225.223365 
L 617.746512 226.987384 
L 618.831115 226.987384 
L 618.831115 227.363151 
L 619.915718 227.363151 
L 619.915718 228.448702 
L 621.000321 228.448702 
L 621.000321 229.482062 
L 622.084924 229.482062 
L 622.084924 229.628194 
L 623.169527 229.628194 
L 623.169527 229.983085 
L 624.25413 229.983085 
L 624.25413 231.006007 
L 626.423336 231.016445 
L 626.423336 232.540391 
L 628.592542 232.529953 
L 628.592542 233.21886 
L 629.677145 233.21886 
L 629.677145 233.886891 
L 630.761748 233.886891 
L 630.761748 234.210468 
L 631.846351 234.210468 
L 631.846351 234.398352 
L 632.930954 234.398352 
L 632.930954 234.794995 
L 634.015557 234.794995 
L 634.015557 235.139448 
L 635.10016 235.139448 
L 635.10016 234.993317 
L 636.184763 234.993317 
L 636.184763 236.819964 
L 637.269366 236.819964 
L 637.269366 236.057991 
L 638.353969 236.057991 
L 638.353969 236.402444 
L 639.438572 236.402444 
L 639.438572 236.966095 
L 640.523175 236.966095 
L 640.523175 237.289673 
L 641.607778 237.289673 
L 641.607778 236.997409 
L 642.692381 236.997409 
L 642.692381 237.571498 
L 643.776984 237.571498 
L 643.776984 238.333471 
L 644.861587 238.333471 
L 644.861587 238.521355 
L 645.94619 238.521355 
L 645.94619 238.354347 
L 647.030793 238.354347 
L 647.030793 238.740553 
L 648.115395 238.740553 
L 648.115395 239.022378 
L 649.199998 239.022378 
L 649.199998 238.886684 
L 650.284601 238.886684 
L 650.284601 239.335518 
L 651.369204 239.335518 
L 651.369204 239.638219 
L 652.453807 239.638219 
L 652.453807 239.961797 
L 653.53841 239.961797 
L 653.53841 239.732161 
L 654.623013 239.732161 
L 654.623013 240.316688 
L 655.707616 240.316688 
L 655.707616 240.431506 
L 656.792219 240.431506 
L 656.792219 240.890777 
L 657.876822 240.890777 
L 657.876822 240.327126 
L 658.961425 240.327126 
L 658.961425 241.016033 
L 661.130631 241.026471 
L 661.130631 240.702893 
L 662.215234 240.702893 
L 662.215234 241.350048 
L 663.299837 241.350048 
L 663.299837 241.60056 
L 664.38444 241.60056 
L 664.38444 241.871947 
L 665.469043 241.871947 
L 665.469043 241.715378 
L 666.553646 241.715378 
L 666.553646 241.527494 
L 667.638249 241.527494 
L 667.638249 241.892823 
L 668.722852 241.892823 
L 668.722852 242.320781 
L 670.892058 242.372971 
L 670.892058 241.986765 
L 671.976661 241.986765 
L 671.976661 242.42516 
L 673.061264 242.42516 
L 673.061264 242.237277 
L 674.145867 242.237277 
L 674.145867 242.613044 
L 675.23047 242.613044 
L 675.23047 242.414722 
L 676.315073 242.414722 
L 676.315073 243.218447 
L 677.399676 243.218447 
L 677.399676 242.79049 
L 680.653485 242.863556 
L 680.653485 243.030563 
L 682.82269 242.988812 
L 682.82269 243.489835 
L 683.907293 243.489835 
L 683.907293 243.375017 
L 684.991896 243.375017 
L 684.991896 243.166257 
L 686.076499 243.166257 
L 686.076499 243.698594 
L 688.245705 243.709032 
L 688.245705 243.385455 
L 689.330308 243.385455 
L 689.330308 243.77166 
L 690.414911 243.77166 
L 690.414911 243.500273 
L 691.499514 243.500273 
L 691.499514 243.625528 
L 692.584117 243.625528 
L 692.584117 243.437645 
L 693.66872 243.437645 
L 693.66872 243.855164 
L 694.753323 243.855164 
L 694.753323 243.698594 
L 696.922529 243.688156 
L 696.922529 244.063924 
L 699.091735 244.074362 
L 699.091735 244.199618 
L 702.345544 244.293559 
L 702.345544 243.969982 
L 703.430147 243.969982 
L 703.430147 244.283121 
L 706.683956 244.314435 
L 706.683956 244.481443 
L 707.768559 244.481443 
L 707.768559 244.251807 
L 708.853162 244.251807 
L 708.853162 244.523195 
L 713.191574 244.523195 
L 713.191574 244.366625 
L 714.276177 244.366625 
L 714.276177 244.679765 
L 715.36078 244.679765 
L 715.36078 244.523195 
L 716.445383 244.523195 
L 716.445383 244.773707 
L 718.614588 244.731955 
L 718.614588 244.648451 
L 720.783794 244.575385 
L 720.783794 244.773707 
L 721.868397 244.773707 
L 721.868397 244.596261 
L 722.953 244.596261 
L 722.953 244.867648 
L 725.122206 244.784145 
L 725.122206 244.731955 
L 727.291412 244.721517 
L 727.291412 245.01378 
L 728.376015 245.01378 
L 728.376015 244.878086 
L 732.714427 244.972028 
L 732.714427 245.097284 
L 733.79903 245.097284 
L 733.79903 244.972028 
L 735.968236 245.045094 
L 735.968236 245.139036 
L 737.052839 245.139036 
L 737.052839 245.024218 
L 739.222045 245.086846 
L 739.222045 245.159912 
L 741.391251 245.055532 
L 741.391251 245.003342 
L 742.475854 245.003342 
L 742.475854 245.11816 
L 746.814266 245.212102 
L 746.814266 245.232978 
L 750.068075 245.253854 
L 750.068075 245.347796 
L 756.575692 245.410424 
L 756.575692 245.180788 
L 759.829501 245.22254 
L 759.829501 245.389548 
L 768.506325 245.420861 
L 768.506325 245.525241 
L 769.590928 245.525241 
L 769.590928 245.358234 
L 770.675531 245.358234 
L 770.675531 245.493927 
L 783.690767 245.483489 
L 783.690767 245.619183 
L 799.959811 245.577431 
L 799.959811 245.493927 
L 803.21362 245.598307 
L 803.21362 245.650497 
L 832.4979 245.734001 
L 832.4979 245.775753 
L 848.766945 245.786191 
L 848.766945 245.786191 
" clip-path="url(#pd3354ede00)" style="fill: none; stroke: #ff7f0e; stroke-width: 1.5; stroke-linecap: square"/>
   </g>
   <g id="line2d_38">
    <path d="M 523.385971 154.673039 
L 524.471093 154.673039 
L 524.471093 146.75061 
L 525.556215 146.75061 
L 525.556215 138.755116 
L 526.641338 138.755116 
L 526.641338 138.984751 
L 527.72646 138.984751 
L 527.72646 147.335138 
L 528.811583 147.335138 
L 528.811583 156.395307 
L 529.896705 156.395307 
L 529.896705 149.255726 
L 530.981827 149.255726 
L 530.981827 127.701292 
L 532.06695 127.701292 
L 532.06695 106.261675 
L 533.152072 106.261675 
L 533.152072 84.644613 
L 534.237194 84.644613 
L 534.237194 60.094478 
L 535.322317 60.094478 
L 535.322317 38.153838 
L 536.407439 38.153838 
L 536.407439 23.112705 
L 537.492562 23.112705 
L 537.492562 23.279712 
L 538.577684 23.279712 
L 538.577684 18.561744 
L 539.662806 18.561744 
L 539.662806 25.346433 
L 540.747929 25.346433 
L 540.747929 35.784416 
L 541.833051 35.784416 
L 541.833051 44.802833 
L 542.918173 44.802833 
L 542.918173 53.142781 
L 544.003296 53.142781 
L 544.003296 63.23631 
L 545.088418 63.23631 
L 545.088418 70.605526 
L 546.173541 70.605526 
L 546.173541 82.609206 
L 547.258663 82.609206 
L 547.258663 84.884687 
L 548.343785 84.884687 
L 548.343785 94.299747 
L 549.428908 94.299747 
L 549.428908 94.070112 
L 550.51403 94.070112 
L 550.51403 95.844569 
L 551.599153 95.844569 
L 551.599153 98.923773 
L 552.684275 98.923773 
L 552.684275 96.470848 
L 553.769397 96.470848 
L 553.769397 93.600402 
L 554.85452 93.600402 
L 554.85452 90.35419 
L 555.939642 90.35419 
L 555.939642 81.033071 
L 557.024764 81.033071 
L 557.024764 71.064798 
L 558.109887 71.064798 
L 558.109887 62.735287 
L 559.195009 62.735287 
L 559.195009 51.138688 
L 560.280132 51.138688 
L 560.280132 44.865461 
L 561.365254 44.865461 
L 561.365254 35.784416 
L 562.450376 35.784416 
L 562.450376 33.738571 
L 563.535499 33.738571 
L 563.535499 42.099395 
L 564.620621 42.099395 
L 564.620621 52.109421 
L 565.705743 52.109421 
L 565.705743 60.616377 
L 566.790866 60.616377 
L 566.790866 71.179615 
L 567.875988 71.179615 
L 567.875988 81.294021 
L 568.961111 81.294021 
L 568.961111 89.675721 
L 570.046233 89.675721 
L 570.046233 98.871584 
L 571.131355 98.871584 
L 571.131355 107.712555 
L 572.216478 107.712555 
L 572.216478 111.595485 
L 573.3016 111.595485 
L 573.3016 120.352952 
L 574.386722 120.352952 
L 574.386722 128.066621 
L 575.471845 128.066621 
L 575.471845 131.782543 
L 576.556967 131.782543 
L 576.556967 138.222779 
L 577.64209 138.222779 
L 577.64209 143.629654 
L 578.727212 143.629654 
L 578.727212 146.729735 
L 579.812334 146.729735 
L 579.812334 153.952819 
L 580.897457 153.952819 
L 580.897457 159.203124 
L 581.982579 159.203124 
L 581.982579 163.378317 
L 583.067702 163.378317 
L 583.067702 164.630875 
L 584.152824 164.630875 
L 584.152824 171.38425 
L 585.237946 171.38425 
L 585.237946 173.993745 
L 586.323069 173.993745 
L 586.323069 176.749373 
L 587.408191 176.749373 
L 587.408191 178.795218 
L 588.493313 178.795218 
L 588.493313 183.293988 
L 589.578436 183.293988 
L 589.578436 185.141511 
L 590.663558 185.141511 
L 590.663558 190.381378 
L 591.748681 190.381378 
L 591.748681 191.101599 
L 592.833803 191.101599 
L 592.833803 194.337374 
L 593.918925 194.337374 
L 593.918925 196.47716 
L 595.004048 196.47716 
L 595.004048 199.003152 
L 596.08917 199.003152 
L 596.08917 201.6544 
L 597.174292 201.6544 
L 597.174292 203.0009 
L 598.259415 203.0009 
L 598.259415 205.11981 
L 599.344537 205.11981 
L 599.344537 206.591566 
L 600.42966 206.591566 
L 600.42966 208.6896 
L 601.514782 208.6896 
L 601.514782 208.804418 
L 602.599904 208.804418 
L 602.599904 211.507856 
L 603.685027 211.507856 
L 603.685027 212.781289 
L 604.770149 212.781289 
L 604.770149 214.326111 
L 605.855271 214.326111 
L 605.855271 216.319766 
L 606.940394 216.319766 
L 606.940394 217.499258 
L 608.025516 217.499258 
L 608.025516 218.167289 
L 609.110639 218.167289 
L 609.110639 219.45116 
L 610.195761 219.45116 
L 610.195761 220.213133 
L 611.280883 220.213133 
L 611.280883 222.613869 
L 612.366006 222.613869 
L 612.366006 221.747517 
L 613.451128 221.747517 
L 613.451128 223.615916 
L 614.53625 223.615916 
L 614.53625 224.357012 
L 615.621373 224.357012 
L 615.621373 225.473876 
L 616.706495 225.473876 
L 616.706495 226.068841 
L 617.791618 226.068841 
L 617.791618 227.603225 
L 618.87674 227.603225 
L 618.87674 228.208628 
L 619.961862 228.208628 
L 619.961862 228.35476 
L 622.132107 228.271256 
L 622.132107 229.158484 
L 623.21723 229.158484 
L 623.21723 230.68243 
L 625.387474 230.63024 
L 625.387474 231.893236 
L 627.557719 231.914112 
L 627.557719 232.780464 
L 629.727964 232.770026 
L 629.727964 233.886891 
L 630.813086 233.886891 
L 630.813086 233.772073 
L 631.898209 233.772073 
L 631.898209 234.25222 
L 632.983331 234.25222 
L 632.983331 234.701053 
L 634.068453 234.701053 
L 634.068453 235.504778 
L 635.153576 235.504778 
L 635.153576 235.807479 
L 637.32382 235.817917 
L 637.32382 236.559014 
L 638.408943 236.559014 
L 638.408943 236.318941 
L 639.494065 236.318941 
L 639.494065 236.78865 
L 640.579188 236.78865 
L 640.579188 237.227045 
L 641.66431 237.227045 
L 641.66431 237.853324 
L 642.749432 237.853324 
L 642.749432 237.999456 
L 643.834555 237.999456 
L 643.834555 238.385661 
L 644.919677 238.385661 
L 644.919677 238.667487 
L 647.089922 238.688363 
L 647.089922 238.844932 
L 648.175044 238.844932 
L 648.175044 239.06413 
L 649.260167 239.06413 
L 649.260167 239.575591 
L 650.345289 239.575591 
L 650.345289 239.262452 
L 651.430411 239.262452 
L 651.430411 239.784351 
L 652.515534 239.784351 
L 652.515534 239.617343 
L 653.600656 239.617343 
L 653.600656 239.930483 
L 654.685779 239.930483 
L 654.685779 240.066176 
L 655.770901 240.066176 
L 655.770901 240.243622 
L 656.856023 240.243622 
L 656.856023 240.880339 
L 657.941146 240.880339 
L 657.941146 241.256106 
L 659.026268 241.256106 
L 659.026268 241.057785 
L 660.11139 241.057785 
L 660.11139 240.880339 
L 661.196513 240.880339 
L 661.196513 241.245668 
L 663.366758 241.172603 
L 663.366758 240.838587 
L 664.45188 240.838587 
L 664.45188 241.851071 
L 666.622125 241.809319 
L 666.622125 241.986765 
L 667.707247 241.986765 
L 667.707247 241.788443 
L 668.792369 241.788443 
L 668.792369 242.299905 
L 672.047737 242.341657 
L 672.047737 242.059831 
L 673.132859 242.059831 
L 673.132859 242.435598 
L 676.388226 242.519102 
L 676.388226 242.7383 
L 677.473348 242.7383 
L 677.473348 243.030563 
L 678.558471 243.030563 
L 678.558471 243.145381 
L 681.813838 243.187133 
L 681.813838 242.967936 
L 682.89896 242.967936 
L 682.89896 243.124505 
L 685.069205 243.134943 
L 685.069205 243.364579 
L 686.154327 243.364579 
L 686.154327 243.510711 
L 687.23945 243.510711 
L 687.23945 243.855164 
L 688.324572 243.855164 
L 688.324572 243.709032 
L 689.409695 243.709032 
L 689.409695 243.406331 
L 690.494817 243.406331 
L 690.494817 243.531587 
L 692.665062 243.604652 
L 692.665062 243.709032 
L 693.750184 243.709032 
L 693.750184 243.87604 
L 695.920429 243.886478 
L 695.920429 244.063924 
L 697.005551 244.063924 
L 697.005551 243.750784 
L 699.175796 243.750784 
L 699.175796 244.210055 
L 700.260918 244.210055 
L 700.260918 243.92823 
L 701.346041 243.92823 
L 701.346041 244.0848 
L 702.431163 244.0848 
L 702.431163 244.210055 
L 707.856775 244.178742 
L 707.856775 244.450129 
L 708.941897 244.450129 
L 708.941897 244.314435 
L 712.197265 244.345749 
L 712.197265 244.585823 
L 713.282387 244.585823 
L 713.282387 244.721517 
L 714.367509 244.721517 
L 714.367509 244.387501 
L 715.452632 244.387501 
L 715.452632 244.690203 
L 723.048488 244.721517 
L 723.048488 244.9094 
L 724.133611 244.9094 
L 724.133611 244.648451 
L 725.218733 244.648451 
L 725.218733 244.888524 
L 726.303856 244.888524 
L 726.303856 244.742393 
L 728.4741 244.690203 
L 728.4741 244.867648 
L 734.984835 244.940714 
L 734.984835 245.055532 
L 737.155079 245.159912 
L 737.155079 245.17035 
L 740.410446 245.097284 
L 740.410446 244.9094 
L 741.495569 244.9094 
L 741.495569 245.06597 
L 744.750936 245.024218 
L 744.750936 245.201664 
L 759.942649 245.264292 
L 759.942649 245.399986 
L 762.112894 245.358234 
L 762.112894 245.27473 
L 764.283139 245.306044 
L 764.283139 245.420861 
L 765.368261 245.420861 
L 765.368261 245.306044 
L 766.453384 245.306044 
L 766.453384 245.504365 
L 779.474852 245.514803 
L 779.474852 245.37911 
L 780.559974 245.37911 
L 780.559974 245.525241 
L 790.326076 245.608745 
L 790.326076 245.640059 
L 795.751688 245.640059 
L 795.751688 245.504365 
L 796.83681 245.504365 
L 796.83681 245.629621 
L 813.113646 245.681811 
L 813.113646 245.744439 
L 821.794625 245.713125 
L 821.794625 245.619183 
L 823.96487 245.713125 
L 823.96487 245.775753 
L 848.922684 245.702687 
L 848.922684 245.702687 
" clip-path="url(#pd3354ede00)" style="fill: none; stroke: #2ca02c; stroke-width: 1.5; stroke-linecap: square"/>
   </g>
   <g id="patch_9">
    <path d="M 507.109135 257.158895 
L 507.109135 7.2 
" style="fill: none; stroke: #000000; stroke-width: 0.8; stroke-linejoin: miter; stroke-linecap: square"/>
   </g>
   <g id="patch_10">
    <path d="M 865.19952 257.158895 
L 865.19952 7.2 
" style="fill: none; stroke: #000000; stroke-width: 0.8; stroke-linejoin: miter; stroke-linecap: square"/>
   </g>
   <g id="patch_11">
    <path d="M 507.109135 257.158895 
L 865.19952 257.158895 
" style="fill: none; stroke: #000000; stroke-width: 0.8; stroke-linejoin: miter; stroke-linecap: square"/>
   </g>
   <g id="patch_12">
    <path d="M 507.109135 7.2 
L 865.19952 7.2 
" style="fill: none; stroke: #000000; stroke-width: 0.8; stroke-linejoin: miter; stroke-linecap: square"/>
   </g>
   <g id="legend_2">
    <g id="patch_13">
     <path d="M 789.641707 59.234375 
L 858.19952 59.234375 
Q 860.19952 59.234375 860.19952 57.234375 
L 860.19952 14.2 
Q 860.19952 12.2 858.19952 12.2 
L 789.641707 12.2 
Q 787.641707 12.2 787.641707 14.2 
L 787.641707 57.234375 
Q 787.641707 59.234375 789.641707 59.234375 
z
" style="fill: #ffffff; opacity: 0.8; stroke: #cccccc; stroke-linejoin: miter"/>
    </g>
    <g id="line2d_39">
     <path d="M 791.641707 20.298437 
L 791.641707 20.298437 
L 801.641707 20.298437 
L 801.641707 20.298437 
L 811.641707 20.298437 
" style="fill: none; stroke: #1f77b4; stroke-width: 1.5; stroke-linecap: square"/>
    </g>
    <g id="text_37">
     <!-- pulse:0 -->
     <g transform="translate(819.641707 23.798437) scale(0.1 -0.1)">
      <use xlink:href="#DejaVuSans-70"/>
      <use xlink:href="#DejaVuSans-75" transform="translate(63.476562 0)"/>
      <use xlink:href="#DejaVuSans-6c" transform="translate(126.855469 0)"/>
      <use xlink:href="#DejaVuSans-73" transform="translate(154.638672 0)"/>
      <use xlink:href="#DejaVuSans-65" transform="translate(206.738281 0)"/>
      <use xlink:href="#DejaVuSans-3a" transform="translate(268.261719 0)"/>
      <use xlink:href="#DejaVuSans-30" transform="translate(301.953125 0)"/>
     </g>
    </g>
    <g id="line2d_40">
     <path d="M 791.641707 34.976562 
L 791.641707 34.976562 
L 801.641707 34.976562 
L 801.641707 34.976562 
L 811.641707 34.976562 
" style="fill: none; stroke: #ff7f0e; stroke-width: 1.5; stroke-linecap: square"/>
    </g>
    <g id="text_38">
     <!-- pulse:1 -->
     <g transform="translate(819.641707 38.476562) scale(0.1 -0.1)">
      <use xlink:href="#DejaVuSans-70"/>
      <use xlink:href="#DejaVuSans-75" transform="translate(63.476562 0)"/>
      <use xlink:href="#DejaVuSans-6c" transform="translate(126.855469 0)"/>
      <use xlink:href="#DejaVuSans-73" transform="translate(154.638672 0)"/>
      <use xlink:href="#DejaVuSans-65" transform="translate(206.738281 0)"/>
      <use xlink:href="#DejaVuSans-3a" transform="translate(268.261719 0)"/>
      <use xlink:href="#DejaVuSans-31" transform="translate(301.953125 0)"/>
     </g>
    </g>
    <g id="line2d_41">
     <path d="M 791.641707 49.654687 
L 791.641707 49.654687 
L 801.641707 49.654687 
L 801.641707 49.654687 
L 811.641707 49.654687 
" style="fill: none; stroke: #2ca02c; stroke-width: 1.5; stroke-linecap: square"/>
    </g>
    <g id="text_39">
     <!-- pulse:2 -->
     <g transform="translate(819.641707 53.154687) scale(0.1 -0.1)">
      <use xlink:href="#DejaVuSans-70"/>
      <use xlink:href="#DejaVuSans-75" transform="translate(63.476562 0)"/>
      <use xlink:href="#DejaVuSans-6c" transform="translate(126.855469 0)"/>
      <use xlink:href="#DejaVuSans-73" transform="translate(154.638672 0)"/>
      <use xlink:href="#DejaVuSans-65" transform="translate(206.738281 0)"/>
      <use xlink:href="#DejaVuSans-3a" transform="translate(268.261719 0)"/>
      <use xlink:href="#DejaVuSans-32" transform="translate(301.953125 0)"/>
     </g>
    </g>
   </g>
  </g>
 </g>
 <defs>
  <clipPath id="p1dcb749afb">
   <rect x="53.328125" y="7.2" width="358.090385" height="249.958895"/>
  </clipPath>
  <clipPath id="pd3354ede00">
   <rect x="507.109135" y="7.2" width="358.090385" height="249.958895"/>
  </clipPath>
 </defs>
</svg>
