<?xml version="1.0" encoding="utf-8" standalone="no"?>
<!DOCTYPE svg PUBLIC "-//W3C//DTD SVG 1.1//EN"
  "http://www.w3.org/Graphics/SVG/1.1/DTD/svg11.dtd">
<svg xmlns:xlink="http://www.w3.org/1999/xlink" width="395.328125pt" height="266.51625pt" viewBox="0 0 395.328125 266.51625" xmlns="http://www.w3.org/2000/svg" version="1.1">
 <metadata>
  <rdf:RDF xmlns:dc="http://purl.org/dc/elements/1.1/" xmlns:cc="http://creativecommons.org/ns#" xmlns:rdf="http://www.w3.org/1999/02/22-rdf-syntax-ns#">
   <cc:Work>
    <dc:type rdf:resource="http://purl.org/dc/dcmitype/StillImage"/>
    <dc:date>2025-11-13T11:11:54.231861</dc:date>
    <dc:format>image/svg+xml</dc:format>
    <dc:creator>
     <cc:Agent>
      <dc:title>Matplotlib v3.10.7, https://matplotlib.org/</dc:title>
     </cc:Agent>
    </dc:creator>
   </cc:Work>
  </rdf:RDF>
 </metadata>
 <defs>
  <style type="text/css">*{stroke-linejoin: round; stroke-linecap: butt}</style>
 </defs>
 <g id="figure_1">
  <g id="patch_1">
   <path d="M 0 266.51625 
L 395.328125 266.51625 
L 395.328125 0 
L 0 0 
z
" style="fill: #ffffff"/>
  </g>
  <g id="axes_1">
   <g id="patch_2">
    <path d="M 53.328125 228.96 
L 388.128125 228.96 
L 388.128125 7.2 
L 53.328125 7.2 
z
" style="fill: #ffffff"/>
   </g>
   <g id="matplotlib.axis_1">
    <g id="xtick_1">
     <g id="line2d_1">
      <defs>
       <path id="mbef071afaa" d="M 0 0 
L 0 3.5 
" style="stroke: #000000; stroke-width: 0.8"/>
      </defs>
      <g>
       <use xlink:href="#mbef071afaa" x="67.568813" y="228.96" style="stroke: #000000; stroke-width: 0.8"/>
      </g>
     </g>
     <g id="text_1">
      <!-- 25000 -->
      <g transform="translate(51.662563 243.558437) scale(0.1 -0.1)">
       <defs>
        <path id="DejaVuSans-32" d="M 1228 531 
L 3431 531 
L 3431 0 
L 469 0 
L 469 531 
Q 828 903 1448 1529 
Q 2069 2156 2228 2338 
Q 2531 2678 2651 2914 
Q 2772 3150 2772 3378 
Q 2772 3750 2511 3984 
Q 2250 4219 1831 4219 
Q 1534 4219 1204 4116 
Q 875 4013 500 3803 
L 500 4441 
Q 881 4594 1212 4672 
Q 1544 4750 1819 4750 
Q 2544 4750 2975 4387 
Q 3406 4025 3406 3419 
Q 3406 3131 3298 2873 
Q 3191 2616 2906 2266 
Q 2828 2175 2409 1742 
Q 1991 1309 1228 531 
z
" transform="scale(0.015625)"/>
        <path id="DejaVuSans-35" d="M 691 4666 
L 3169 4666 
L 3169 4134 
L 1269 4134 
L 1269 2991 
Q 1406 3038 1543 3061 
Q 1681 3084 1819 3084 
Q 2600 3084 3056 2656 
Q 3513 2228 3513 1497 
Q 3513 744 3044 326 
Q 2575 -91 1722 -91 
Q 1428 -91 1123 -41 
Q 819 9 494 109 
L 494 744 
Q 775 591 1075 516 
Q 1375 441 1709 441 
Q 2250 441 2565 725 
Q 2881 1009 2881 1497 
Q 2881 1984 2565 2268 
Q 2250 2553 1709 2553 
Q 1456 2553 1204 2497 
Q 953 2441 691 2322 
L 691 4666 
z
" transform="scale(0.015625)"/>
        <path id="DejaVuSans-30" d="M 2034 4250 
Q 1547 4250 1301 3770 
Q 1056 3291 1056 2328 
Q 1056 1369 1301 889 
Q 1547 409 2034 409 
Q 2525 409 2770 889 
Q 3016 1369 3016 2328 
Q 3016 3291 2770 3770 
Q 2525 4250 2034 4250 
z
M 2034 4750 
Q 2819 4750 3233 4129 
Q 3647 3509 3647 2328 
Q 3647 1150 3233 529 
Q 2819 -91 2034 -91 
Q 1250 -91 836 529 
Q 422 1150 422 2328 
Q 422 3509 836 4129 
Q 1250 4750 2034 4750 
z
" transform="scale(0.015625)"/>
       </defs>
       <use xlink:href="#DejaVuSans-32"/>
       <use xlink:href="#DejaVuSans-35" transform="translate(63.623047 0)"/>
       <use xlink:href="#DejaVuSans-30" transform="translate(127.246094 0)"/>
       <use xlink:href="#DejaVuSans-30" transform="translate(190.869141 0)"/>
       <use xlink:href="#DejaVuSans-30" transform="translate(254.492188 0)"/>
      </g>
     </g>
    </g>
    <g id="xtick_2">
     <g id="line2d_2">
      <g>
       <use xlink:href="#mbef071afaa" x="108.131379" y="228.96" style="stroke: #000000; stroke-width: 0.8"/>
      </g>
     </g>
     <g id="text_2">
      <!-- 50000 -->
      <g transform="translate(92.225129 243.558437) scale(0.1 -0.1)">
       <use xlink:href="#DejaVuSans-35"/>
       <use xlink:href="#DejaVuSans-30" transform="translate(63.623047 0)"/>
       <use xlink:href="#DejaVuSans-30" transform="translate(127.246094 0)"/>
       <use xlink:href="#DejaVuSans-30" transform="translate(190.869141 0)"/>
       <use xlink:href="#DejaVuSans-30" transform="translate(254.492188 0)"/>
      </g>
     </g>
    </g>
    <g id="xtick_3">
     <g id="line2d_3">
      <g>
       <use xlink:href="#mbef071afaa" x="148.693945" y="228.96" style="stroke: #000000; stroke-width: 0.8"/>
      </g>
     </g>
     <g id="text_3">
      <!-- 75000 -->
      <g transform="translate(132.787695 243.558437) scale(0.1 -0.1)">
       <defs>
        <path id="DejaVuSans-37" d="M 525 4666 
L 3525 4666 
L 3525 4397 
L 1831 0 
L 1172 0 
L 2766 4134 
L 525 4134 
L 525 4666 
z
" transform="scale(0.015625)"/>
       </defs>
       <use xlink:href="#DejaVuSans-37"/>
       <use xlink:href="#DejaVuSans-35" transform="translate(63.623047 0)"/>
       <use xlink:href="#DejaVuSans-30" transform="translate(127.246094 0)"/>
       <use xlink:href="#DejaVuSans-30" transform="translate(190.869141 0)"/>
       <use xlink:href="#DejaVuSans-30" transform="translate(254.492188 0)"/>
      </g>
     </g>
    </g>
    <g id="xtick_4">
     <g id="line2d_4">
      <g>
       <use xlink:href="#mbef071afaa" x="189.256512" y="228.96" style="stroke: #000000; stroke-width: 0.8"/>
      </g>
     </g>
     <g id="text_4">
      <!-- 100000 -->
      <g transform="translate(170.169012 243.558437) scale(0.1 -0.1)">
       <defs>
        <path id="DejaVuSans-31" d="M 794 531 
L 1825 531 
L 1825 4091 
L 703 3866 
L 703 4441 
L 1819 4666 
L 2450 4666 
L 2450 531 
L 3481 531 
L 3481 0 
L 794 0 
L 794 531 
z
" transform="scale(0.015625)"/>
       </defs>
       <use xlink:href="#DejaVuSans-31"/>
       <use xlink:href="#DejaVuSans-30" transform="translate(63.623047 0)"/>
       <use xlink:href="#DejaVuSans-30" transform="translate(127.246094 0)"/>
       <use xlink:href="#DejaVuSans-30" transform="translate(190.869141 0)"/>
       <use xlink:href="#DejaVuSans-30" transform="translate(254.492188 0)"/>
       <use xlink:href="#DejaVuSans-30" transform="translate(318.115234 0)"/>
      </g>
     </g>
    </g>
    <g id="xtick_5">
     <g id="line2d_5">
      <g>
       <use xlink:href="#mbef071afaa" x="229.819078" y="228.96" style="stroke: #000000; stroke-width: 0.8"/>
      </g>
     </g>
     <g id="text_5">
      <!-- 125000 -->
      <g transform="translate(210.731578 243.558437) scale(0.1 -0.1)">
       <use xlink:href="#DejaVuSans-31"/>
       <use xlink:href="#DejaVuSans-32" transform="translate(63.623047 0)"/>
       <use xlink:href="#DejaVuSans-35" transform="translate(127.246094 0)"/>
       <use xlink:href="#DejaVuSans-30" transform="translate(190.869141 0)"/>
       <use xlink:href="#DejaVuSans-30" transform="translate(254.492188 0)"/>
       <use xlink:href="#DejaVuSans-30" transform="translate(318.115234 0)"/>
      </g>
     </g>
    </g>
    <g id="xtick_6">
     <g id="line2d_6">
      <g>
       <use xlink:href="#mbef071afaa" x="270.381645" y="228.96" style="stroke: #000000; stroke-width: 0.8"/>
      </g>
     </g>
     <g id="text_6">
      <!-- 150000 -->
      <g transform="translate(251.294145 243.558437) scale(0.1 -0.1)">
       <use xlink:href="#DejaVuSans-31"/>
       <use xlink:href="#DejaVuSans-35" transform="translate(63.623047 0)"/>
       <use xlink:href="#DejaVuSans-30" transform="translate(127.246094 0)"/>
       <use xlink:href="#DejaVuSans-30" transform="translate(190.869141 0)"/>
       <use xlink:href="#DejaVuSans-30" transform="translate(254.492188 0)"/>
       <use xlink:href="#DejaVuSans-30" transform="translate(318.115234 0)"/>
      </g>
     </g>
    </g>
    <g id="xtick_7">
     <g id="line2d_7">
      <g>
       <use xlink:href="#mbef071afaa" x="310.944211" y="228.96" style="stroke: #000000; stroke-width: 0.8"/>
      </g>
     </g>
     <g id="text_7">
      <!-- 175000 -->
      <g transform="translate(291.856711 243.558437) scale(0.1 -0.1)">
       <use xlink:href="#DejaVuSans-31"/>
       <use xlink:href="#DejaVuSans-37" transform="translate(63.623047 0)"/>
       <use xlink:href="#DejaVuSans-35" transform="translate(127.246094 0)"/>
       <use xlink:href="#DejaVuSans-30" transform="translate(190.869141 0)"/>
       <use xlink:href="#DejaVuSans-30" transform="translate(254.492188 0)"/>
       <use xlink:href="#DejaVuSans-30" transform="translate(318.115234 0)"/>
      </g>
     </g>
    </g>
    <g id="xtick_8">
     <g id="line2d_8">
      <g>
       <use xlink:href="#mbef071afaa" x="351.506777" y="228.96" style="stroke: #000000; stroke-width: 0.8"/>
      </g>
     </g>
     <g id="text_8">
      <!-- 200000 -->
      <g transform="translate(332.419277 243.558437) scale(0.1 -0.1)">
       <use xlink:href="#DejaVuSans-32"/>
       <use xlink:href="#DejaVuSans-30" transform="translate(63.623047 0)"/>
       <use xlink:href="#DejaVuSans-30" transform="translate(127.246094 0)"/>
       <use xlink:href="#DejaVuSans-30" transform="translate(190.869141 0)"/>
       <use xlink:href="#DejaVuSans-30" transform="translate(254.492188 0)"/>
       <use xlink:href="#DejaVuSans-30" transform="translate(318.115234 0)"/>
      </g>
     </g>
    </g>
    <g id="text_9">
     <!-- toa [µs] -->
     <g transform="translate(201.367969 257.236562) scale(0.1 -0.1)">
      <defs>
       <path id="DejaVuSans-74" d="M 1172 4494 
L 1172 3500 
L 2356 3500 
L 2356 3053 
L 1172 3053 
L 1172 1153 
Q 1172 725 1289 603 
Q 1406 481 1766 481 
L 2356 481 
L 2356 0 
L 1766 0 
Q 1100 0 847 248 
Q 594 497 594 1153 
L 594 3053 
L 172 3053 
L 172 3500 
L 594 3500 
L 594 4494 
L 1172 4494 
z
" transform="scale(0.015625)"/>
       <path id="DejaVuSans-6f" d="M 1959 3097 
Q 1497 3097 1228 2736 
Q 959 2375 959 1747 
Q 959 1119 1226 758 
Q 1494 397 1959 397 
Q 2419 397 2687 759 
Q 2956 1122 2956 1747 
Q 2956 2369 2687 2733 
Q 2419 3097 1959 3097 
z
M 1959 3584 
Q 2709 3584 3137 3096 
Q 3566 2609 3566 1747 
Q 3566 888 3137 398 
Q 2709 -91 1959 -91 
Q 1206 -91 779 398 
Q 353 888 353 1747 
Q 353 2609 779 3096 
Q 1206 3584 1959 3584 
z
" transform="scale(0.015625)"/>
       <path id="DejaVuSans-61" d="M 2194 1759 
Q 1497 1759 1228 1600 
Q 959 1441 959 1056 
Q 959 750 1161 570 
Q 1363 391 1709 391 
Q 2188 391 2477 730 
Q 2766 1069 2766 1631 
L 2766 1759 
L 2194 1759 
z
M 3341 1997 
L 3341 0 
L 2766 0 
L 2766 531 
Q 2569 213 2275 61 
Q 1981 -91 1556 -91 
Q 1019 -91 701 211 
Q 384 513 384 1019 
Q 384 1609 779 1909 
Q 1175 2209 1959 2209 
L 2766 2209 
L 2766 2266 
Q 2766 2663 2505 2880 
Q 2244 3097 1772 3097 
Q 1472 3097 1187 3025 
Q 903 2953 641 2809 
L 641 3341 
Q 956 3463 1253 3523 
Q 1550 3584 1831 3584 
Q 2591 3584 2966 3190 
Q 3341 2797 3341 1997 
z
" transform="scale(0.015625)"/>
       <path id="DejaVuSans-20" transform="scale(0.015625)"/>
       <path id="DejaVuSans-5b" d="M 550 4863 
L 1875 4863 
L 1875 4416 
L 1125 4416 
L 1125 -397 
L 1875 -397 
L 1875 -844 
L 550 -844 
L 550 4863 
z
" transform="scale(0.015625)"/>
       <path id="DejaVuSans-b5" d="M 544 -1331 
L 544 3500 
L 1119 3500 
L 1119 1325 
Q 1119 872 1334 640 
Q 1550 409 1972 409 
Q 2434 409 2667 671 
Q 2900 934 2900 1459 
L 2900 3500 
L 3475 3500 
L 3475 806 
Q 3475 619 3529 530 
Q 3584 441 3700 441 
Q 3728 441 3778 458 
Q 3828 475 3916 513 
L 3916 50 
Q 3788 -22 3673 -56 
Q 3559 -91 3450 -91 
Q 3234 -91 3106 31 
Q 2978 153 2931 403 
Q 2775 156 2548 32 
Q 2322 -91 2016 -91 
Q 1697 -91 1473 31 
Q 1250 153 1119 397 
L 1119 -1331 
L 544 -1331 
z
" transform="scale(0.015625)"/>
       <path id="DejaVuSans-73" d="M 2834 3397 
L 2834 2853 
Q 2591 2978 2328 3040 
Q 2066 3103 1784 3103 
Q 1356 3103 1142 2972 
Q 928 2841 928 2578 
Q 928 2378 1081 2264 
Q 1234 2150 1697 2047 
L 1894 2003 
Q 2506 1872 2764 1633 
Q 3022 1394 3022 966 
Q 3022 478 2636 193 
Q 2250 -91 1575 -91 
Q 1294 -91 989 -36 
Q 684 19 347 128 
L 347 722 
Q 666 556 975 473 
Q 1284 391 1588 391 
Q 1994 391 2212 530 
Q 2431 669 2431 922 
Q 2431 1156 2273 1281 
Q 2116 1406 1581 1522 
L 1381 1569 
Q 847 1681 609 1914 
Q 372 2147 372 2553 
Q 372 3047 722 3315 
Q 1072 3584 1716 3584 
Q 2034 3584 2315 3537 
Q 2597 3491 2834 3397 
z
" transform="scale(0.015625)"/>
       <path id="DejaVuSans-5d" d="M 1947 4863 
L 1947 -844 
L 622 -844 
L 622 -397 
L 1369 -397 
L 1369 4416 
L 622 4416 
L 622 4863 
L 1947 4863 
z
" transform="scale(0.015625)"/>
      </defs>
      <use xlink:href="#DejaVuSans-74"/>
      <use xlink:href="#DejaVuSans-6f" transform="translate(39.208984 0)"/>
      <use xlink:href="#DejaVuSans-61" transform="translate(100.390625 0)"/>
      <use xlink:href="#DejaVuSans-20" transform="translate(161.669922 0)"/>
      <use xlink:href="#DejaVuSans-5b" transform="translate(193.457031 0)"/>
      <use xlink:href="#DejaVuSans-b5" transform="translate(232.470703 0)"/>
      <use xlink:href="#DejaVuSans-73" transform="translate(296.09375 0)"/>
      <use xlink:href="#DejaVuSans-5d" transform="translate(348.193359 0)"/>
     </g>
    </g>
   </g>
   <g id="matplotlib.axis_2">
    <g id="ytick_1">
     <g id="line2d_9">
      <defs>
       <path id="mb4a946b118" d="M 0 0 
L -3.5 0 
" style="stroke: #000000; stroke-width: 0.8"/>
      </defs>
      <g>
       <use xlink:href="#mb4a946b118" x="53.328125" y="218.88" style="stroke: #000000; stroke-width: 0.8"/>
      </g>
     </g>
     <g id="text_10">
      <!-- 0 -->
      <g transform="translate(39.965625 222.679219) scale(0.1 -0.1)">
       <use xlink:href="#DejaVuSans-30"/>
      </g>
     </g>
    </g>
    <g id="ytick_2">
     <g id="line2d_10">
      <g>
       <use xlink:href="#mb4a946b118" x="53.328125" y="182.258747" style="stroke: #000000; stroke-width: 0.8"/>
      </g>
     </g>
     <g id="text_11">
      <!-- 200 -->
      <g transform="translate(27.240625 186.057965) scale(0.1 -0.1)">
       <use xlink:href="#DejaVuSans-32"/>
       <use xlink:href="#DejaVuSans-30" transform="translate(63.623047 0)"/>
       <use xlink:href="#DejaVuSans-30" transform="translate(127.246094 0)"/>
      </g>
     </g>
    </g>
    <g id="ytick_3">
     <g id="line2d_11">
      <g>
       <use xlink:href="#mb4a946b118" x="53.328125" y="145.637493" style="stroke: #000000; stroke-width: 0.8"/>
      </g>
     </g>
     <g id="text_12">
      <!-- 400 -->
      <g transform="translate(27.240625 149.436712) scale(0.1 -0.1)">
       <defs>
        <path id="DejaVuSans-34" d="M 2419 4116 
L 825 1625 
L 2419 1625 
L 2419 4116 
z
M 2253 4666 
L 3047 4666 
L 3047 1625 
L 3713 1625 
L 3713 1100 
L 3047 1100 
L 3047 0 
L 2419 0 
L 2419 1100 
L 313 1100 
L 313 1709 
L 2253 4666 
z
" transform="scale(0.015625)"/>
       </defs>
       <use xlink:href="#DejaVuSans-34"/>
       <use xlink:href="#DejaVuSans-30" transform="translate(63.623047 0)"/>
       <use xlink:href="#DejaVuSans-30" transform="translate(127.246094 0)"/>
      </g>
     </g>
    </g>
    <g id="ytick_4">
     <g id="line2d_12">
      <g>
       <use xlink:href="#mb4a946b118" x="53.328125" y="109.01624" style="stroke: #000000; stroke-width: 0.8"/>
      </g>
     </g>
     <g id="text_13">
      <!-- 600 -->
      <g transform="translate(27.240625 112.815459) scale(0.1 -0.1)">
       <defs>
        <path id="DejaVuSans-36" d="M 2113 2584 
Q 1688 2584 1439 2293 
Q 1191 2003 1191 1497 
Q 1191 994 1439 701 
Q 1688 409 2113 409 
Q 2538 409 2786 701 
Q 3034 994 3034 1497 
Q 3034 2003 2786 2293 
Q 2538 2584 2113 2584 
z
M 3366 4563 
L 3366 3988 
Q 3128 4100 2886 4159 
Q 2644 4219 2406 4219 
Q 1781 4219 1451 3797 
Q 1122 3375 1075 2522 
Q 1259 2794 1537 2939 
Q 1816 3084 2150 3084 
Q 2853 3084 3261 2657 
Q 3669 2231 3669 1497 
Q 3669 778 3244 343 
Q 2819 -91 2113 -91 
Q 1303 -91 875 529 
Q 447 1150 447 2328 
Q 447 3434 972 4092 
Q 1497 4750 2381 4750 
Q 2619 4750 2861 4703 
Q 3103 4656 3366 4563 
z
" transform="scale(0.015625)"/>
       </defs>
       <use xlink:href="#DejaVuSans-36"/>
       <use xlink:href="#DejaVuSans-30" transform="translate(63.623047 0)"/>
       <use xlink:href="#DejaVuSans-30" transform="translate(127.246094 0)"/>
      </g>
     </g>
    </g>
    <g id="ytick_5">
     <g id="line2d_13">
      <g>
       <use xlink:href="#mb4a946b118" x="53.328125" y="72.394986" style="stroke: #000000; stroke-width: 0.8"/>
      </g>
     </g>
     <g id="text_14">
      <!-- 800 -->
      <g transform="translate(27.240625 76.194205) scale(0.1 -0.1)">
       <defs>
        <path id="DejaVuSans-38" d="M 2034 2216 
Q 1584 2216 1326 1975 
Q 1069 1734 1069 1313 
Q 1069 891 1326 650 
Q 1584 409 2034 409 
Q 2484 409 2743 651 
Q 3003 894 3003 1313 
Q 3003 1734 2745 1975 
Q 2488 2216 2034 2216 
z
M 1403 2484 
Q 997 2584 770 2862 
Q 544 3141 544 3541 
Q 544 4100 942 4425 
Q 1341 4750 2034 4750 
Q 2731 4750 3128 4425 
Q 3525 4100 3525 3541 
Q 3525 3141 3298 2862 
Q 3072 2584 2669 2484 
Q 3125 2378 3379 2068 
Q 3634 1759 3634 1313 
Q 3634 634 3220 271 
Q 2806 -91 2034 -91 
Q 1263 -91 848 271 
Q 434 634 434 1313 
Q 434 1759 690 2068 
Q 947 2378 1403 2484 
z
M 1172 3481 
Q 1172 3119 1398 2916 
Q 1625 2713 2034 2713 
Q 2441 2713 2670 2916 
Q 2900 3119 2900 3481 
Q 2900 3844 2670 4047 
Q 2441 4250 2034 4250 
Q 1625 4250 1398 4047 
Q 1172 3844 1172 3481 
z
" transform="scale(0.015625)"/>
       </defs>
       <use xlink:href="#DejaVuSans-38"/>
       <use xlink:href="#DejaVuSans-30" transform="translate(63.623047 0)"/>
       <use xlink:href="#DejaVuSans-30" transform="translate(127.246094 0)"/>
      </g>
     </g>
    </g>
    <g id="ytick_6">
     <g id="line2d_14">
      <g>
       <use xlink:href="#mb4a946b118" x="53.328125" y="35.773733" style="stroke: #000000; stroke-width: 0.8"/>
      </g>
     </g>
     <g id="text_15">
      <!-- 1000 -->
      <g transform="translate(20.878125 39.572952) scale(0.1 -0.1)">
       <use xlink:href="#DejaVuSans-31"/>
       <use xlink:href="#DejaVuSans-30" transform="translate(63.623047 0)"/>
       <use xlink:href="#DejaVuSans-30" transform="translate(127.246094 0)"/>
       <use xlink:href="#DejaVuSans-30" transform="translate(190.869141 0)"/>
      </g>
     </g>
    </g>
    <g id="text_16">
     <!-- [counts] -->
     <g transform="translate(14.798438 138.6925) rotate(-90) scale(0.1 -0.1)">
      <defs>
       <path id="DejaVuSans-63" d="M 3122 3366 
L 3122 2828 
Q 2878 2963 2633 3030 
Q 2388 3097 2138 3097 
Q 1578 3097 1268 2742 
Q 959 2388 959 1747 
Q 959 1106 1268 751 
Q 1578 397 2138 397 
Q 2388 397 2633 464 
Q 2878 531 3122 666 
L 3122 134 
Q 2881 22 2623 -34 
Q 2366 -91 2075 -91 
Q 1284 -91 818 406 
Q 353 903 353 1747 
Q 353 2603 823 3093 
Q 1294 3584 2113 3584 
Q 2378 3584 2631 3529 
Q 2884 3475 3122 3366 
z
" transform="scale(0.015625)"/>
       <path id="DejaVuSans-75" d="M 544 1381 
L 544 3500 
L 1119 3500 
L 1119 1403 
Q 1119 906 1312 657 
Q 1506 409 1894 409 
Q 2359 409 2629 706 
Q 2900 1003 2900 1516 
L 2900 3500 
L 3475 3500 
L 3475 0 
L 2900 0 
L 2900 538 
Q 2691 219 2414 64 
Q 2138 -91 1772 -91 
Q 1169 -91 856 284 
Q 544 659 544 1381 
z
M 1991 3584 
L 1991 3584 
z
" transform="scale(0.015625)"/>
       <path id="DejaVuSans-6e" d="M 3513 2113 
L 3513 0 
L 2938 0 
L 2938 2094 
Q 2938 2591 2744 2837 
Q 2550 3084 2163 3084 
Q 1697 3084 1428 2787 
Q 1159 2491 1159 1978 
L 1159 0 
L 581 0 
L 581 3500 
L 1159 3500 
L 1159 2956 
Q 1366 3272 1645 3428 
Q 1925 3584 2291 3584 
Q 2894 3584 3203 3211 
Q 3513 2838 3513 2113 
z
" transform="scale(0.015625)"/>
      </defs>
      <use xlink:href="#DejaVuSans-5b"/>
      <use xlink:href="#DejaVuSans-63" transform="translate(39.013672 0)"/>
      <use xlink:href="#DejaVuSans-6f" transform="translate(93.994141 0)"/>
      <use xlink:href="#DejaVuSans-75" transform="translate(155.175781 0)"/>
      <use xlink:href="#DejaVuSans-6e" transform="translate(218.554688 0)"/>
      <use xlink:href="#DejaVuSans-74" transform="translate(281.933594 0)"/>
      <use xlink:href="#DejaVuSans-73" transform="translate(321.142578 0)"/>
      <use xlink:href="#DejaVuSans-5d" transform="translate(373.242188 0)"/>
     </g>
    </g>
   </g>
   <g id="line2d_15">
    <path d="M 58.022249 193.611335 
L 58.335191 193.611335 
L 58.335191 146.919237 
L 58.648133 146.919237 
L 58.648133 105.171008 
L 58.961074 105.171008 
L 58.961074 93.81842 
L 59.274016 93.81842 
L 59.274016 96.015695 
L 59.586958 96.015695 
L 59.586958 87.4097 
L 59.899899 87.4097 
L 59.899899 78.803706 
L 60.212841 78.803706 
L 60.212841 76.057112 
L 60.525783 76.057112 
L 60.525783 75.14158 
L 60.838724 75.14158 
L 60.838724 68.183542 
L 61.151666 68.183542 
L 61.151666 59.94376 
L 61.464607 59.94376 
L 61.464607 65.803161 
L 61.777549 65.803161 
L 61.777549 58.112698 
L 62.090491 58.112698 
L 62.090491 45.112153 
L 62.403432 45.112153 
L 62.403432 41.450027 
L 62.716374 41.450027 
L 62.716374 28.815695 
L 63.029316 28.815695 
L 63.029316 24.238038 
L 63.342257 24.238038 
L 63.342257 20.392807 
L 63.655199 20.392807 
L 63.655199 17.463106 
L 63.96814 17.463106 
L 63.96814 26.252207 
L 64.281082 26.252207 
L 64.281082 31.562289 
L 64.594024 31.562289 
L 64.594024 24.787357 
L 64.906965 24.787357 
L 64.906965 26.252207 
L 65.219907 26.252207 
L 65.219907 30.463651 
L 65.532849 30.463651 
L 65.532849 27.717057 
L 65.84579 27.717057 
L 65.84579 32.294714 
L 66.158732 32.294714 
L 66.158732 45.295259 
L 66.471674 45.295259 
L 66.471674 30.463651 
L 66.784615 30.463651 
L 66.784615 53.168828 
L 67.097557 53.168828 
L 67.097557 61.957929 
L 67.410498 61.957929 
L 67.410498 67.634223 
L 67.72344 67.634223 
L 67.72344 83.747575 
L 68.036382 83.747575 
L 68.036382 92.902888 
L 68.349323 92.902888 
L 68.349323 89.606975 
L 68.662265 89.606975 
L 68.662265 120.735041 
L 68.975207 120.735041 
L 68.975207 117.988447 
L 69.288148 117.988447 
L 69.288148 135.01733 
L 69.60109 135.01733 
L 69.60109 142.524687 
L 69.914031 142.524687 
L 69.914031 154.243488 
L 70.226973 154.243488 
L 70.226973 154.792807 
L 70.539915 154.792807 
L 70.539915 167.244033 
L 70.852856 167.244033 
L 70.852856 182.808065 
L 71.165798 182.808065 
L 71.165798 182.991172 
L 71.47874 182.991172 
L 71.47874 193.062016 
L 71.791681 193.062016 
L 71.791681 201.851117 
L 72.104623 201.851117 
L 72.104623 207.344305 
L 72.417565 207.344305 
L 72.417565 214.668556 
L 72.730506 214.668556 
L 72.730506 218.330681 
L 73.043448 218.330681 
L 73.043448 218.88 
L 75.859922 218.88 
L 75.859922 202.400436 
L 76.172864 202.400436 
L 76.172864 165.229864 
L 76.485806 165.229864 
L 76.485806 136.848392 
L 76.798747 136.848392 
L 76.798747 101.508883 
L 77.111689 101.508883 
L 77.111689 87.4097 
L 77.424631 87.4097 
L 77.424631 89.057657 
L 77.737572 89.057657 
L 77.737572 92.353569 
L 78.050514 92.353569 
L 78.050514 101.325777 
L 78.363456 101.325777 
L 78.363456 93.269101 
L 78.676397 93.269101 
L 78.676397 102.790627 
L 78.989339 102.790627 
L 78.989339 95.28327 
L 79.30228 95.28327 
L 79.30228 104.804796 
L 79.615222 104.804796 
L 79.615222 100.776458 
L 79.928164 100.776458 
L 79.928164 107.734496 
L 80.241105 107.734496 
L 80.241105 106.269646 
L 80.554047 106.269646 
L 80.554047 102.241308 
L 80.866989 102.241308 
L 80.866989 105.720327 
L 81.17993 105.720327 
L 81.17993 120.551935 
L 81.492872 120.551935 
L 81.492872 111.762834 
L 81.805813 111.762834 
L 81.805813 115.974278 
L 82.118755 115.974278 
L 82.118755 112.861471 
L 82.431697 112.861471 
L 82.431697 114.87564 
L 82.744638 114.87564 
L 82.744638 127.693079 
L 83.05758 127.693079 
L 83.05758 120.185722 
L 83.370522 120.185722 
L 83.370522 133.735586 
L 83.683463 133.735586 
L 83.683463 125.495804 
L 83.996405 125.495804 
L 83.996405 125.862016 
L 84.309347 125.862016 
L 84.309347 126.594441 
L 84.622288 126.594441 
L 84.622288 128.425504 
L 84.93523 128.425504 
L 84.93523 123.298529 
L 85.248171 123.298529 
L 85.248171 130.988992 
L 85.561113 130.988992 
L 85.561113 134.284905 
L 85.874055 134.284905 
L 85.874055 131.904523 
L 86.186996 131.904523 
L 86.186996 137.580817 
L 86.499938 137.580817 
L 86.499938 146.736131 
L 86.81288 146.736131 
L 86.81288 145.820599 
L 87.125821 145.820599 
L 87.125821 143.440218 
L 87.438763 143.440218 
L 87.438763 147.28545 
L 87.751704 147.28545 
L 87.751704 146.919237 
L 88.064646 146.919237 
L 88.064646 150.032044 
L 88.377588 150.032044 
L 88.377588 158.454932 
L 88.690529 158.454932 
L 88.690529 158.821144 
L 89.003471 158.821144 
L 89.003471 164.680545 
L 89.316413 164.680545 
L 89.316413 166.328501 
L 89.629354 166.328501 
L 89.629354 180.427684 
L 89.942296 180.427684 
L 89.942296 182.07564 
L 90.255238 182.07564 
L 90.255238 191.047847 
L 90.568179 191.047847 
L 90.568179 196.357929 
L 90.881121 196.357929 
L 90.881121 199.287629 
L 91.194062 199.287629 
L 91.194062 204.780817 
L 91.507004 204.780817 
L 91.507004 211.555749 
L 91.819946 211.555749 
L 91.819946 214.851662 
L 92.132887 214.851662 
L 92.132887 216.682725 
L 92.445829 216.682725 
L 92.445829 218.88 
L 92.758771 218.88 
L 92.758771 214.119237 
L 93.071712 214.119237 
L 93.071712 201.118692 
L 93.384654 201.118692 
L 93.384654 185.920872 
L 93.697595 185.920872 
L 93.697595 168.34267 
L 94.010537 168.34267 
L 94.010537 154.975913 
L 94.323479 154.975913 
L 94.323479 153.877275 
L 94.63642 153.877275 
L 94.63642 149.848937 
L 94.949362 149.848937 
L 94.949362 150.947575 
L 95.262304 150.947575 
L 95.262304 152.778638 
L 95.575245 152.778638 
L 95.575245 151.68 
L 95.888187 151.68 
L 95.888187 156.257657 
L 96.201129 156.257657 
L 96.201129 155.342125 
L 96.51407 155.342125 
L 96.51407 163.765014 
L 96.827012 163.765014 
L 96.827012 156.806975 
L 97.139953 156.806975 
L 97.139953 158.821144 
L 97.452895 158.821144 
L 97.452895 165.596076 
L 97.765837 165.596076 
L 97.765837 166.87782 
L 98.078778 166.87782 
L 98.078778 163.398801 
L 98.39172 163.398801 
L 98.39172 162.48327 
L 98.704662 162.48327 
L 98.704662 165.962289 
L 99.017603 165.962289 
L 99.017603 161.933951 
L 99.330545 161.933951 
L 99.330545 160.102888 
L 99.643486 160.102888 
L 99.643486 171.089264 
L 99.956428 171.089264 
L 99.956428 170.539946 
L 100.26937 170.539946 
L 100.26937 173.103433 
L 100.895253 173.103433 
L 100.895253 176.033134 
L 101.208195 176.033134 
L 101.208195 179.512153 
L 101.521136 179.512153 
L 101.521136 176.399346 
L 101.834078 176.399346 
L 101.834078 180.61079 
L 102.14702 180.61079 
L 102.14702 189.216785 
L 102.459961 189.216785 
L 102.459961 192.146485 
L 102.772903 192.146485 
L 102.772903 185.920872 
L 103.085844 185.920872 
L 103.085844 193.428229 
L 103.398786 193.428229 
L 103.398786 188.118147 
L 103.711728 188.118147 
L 103.711728 195.076185 
L 104.024669 195.076185 
L 104.024669 193.245123 
L 104.337611 193.245123 
L 104.337611 195.625504 
L 104.650553 195.625504 
L 104.650553 198.738311 
L 104.963494 198.738311 
L 104.963494 200.020054 
L 105.276436 200.020054 
L 105.276436 203.132861 
L 105.589378 203.132861 
L 105.589378 202.583542 
L 105.902319 202.583542 
L 105.902319 205.696349 
L 106.215261 205.696349 
L 106.215261 209.175368 
L 106.528202 209.175368 
L 106.528202 211.921962 
L 106.841144 211.921962 
L 106.841144 213.936131 
L 107.154086 213.936131 
L 107.154086 215.034768 
L 107.467027 215.034768 
L 107.467027 218.513787 
L 107.779969 218.513787 
L 107.779969 216.865831 
L 108.092911 216.865831 
L 108.092911 215.034768 
L 108.405852 215.034768 
L 108.405852 208.809155 
L 108.718794 208.809155 
L 108.718794 202.034223 
L 109.031735 202.034223 
L 109.031735 195.625504 
L 109.344677 195.625504 
L 109.344677 190.315422 
L 109.657619 190.315422 
L 109.657619 188.850572 
L 109.97056 188.850572 
L 109.97056 189.399891 
L 110.283502 189.399891 
L 110.283502 188.850572 
L 110.596444 188.850572 
L 110.596444 189.216785 
L 110.909385 189.216785 
L 110.909385 193.611335 
L 111.222327 193.611335 
L 111.222327 197.456567 
L 111.535269 197.456567 
L 111.535269 200.020054 
L 111.84821 200.020054 
L 111.84821 194.34376 
L 112.161152 194.34376 
L 112.161152 199.653842 
L 112.474093 199.653842 
L 112.474093 201.118692 
L 112.787035 201.118692 
L 112.787035 197.639673 
L 113.099977 197.639673 
L 113.099977 201.118692 
L 113.412918 201.118692 
L 113.412918 202.21733 
L 113.72586 202.21733 
L 113.72586 201.118692 
L 114.038802 201.118692 
L 114.038802 201.668011 
L 114.351743 201.668011 
L 114.351743 205.330136 
L 114.664685 205.330136 
L 114.664685 205.879455 
L 114.977626 205.879455 
L 114.977626 204.597711 
L 115.290568 204.597711 
L 115.290568 207.527411 
L 115.60351 207.527411 
L 115.60351 205.696349 
L 115.916451 205.696349 
L 115.916451 209.54158 
L 116.229393 209.54158 
L 116.229393 208.259837 
L 116.542335 208.259837 
L 116.542335 212.288174 
L 116.855276 212.288174 
L 116.855276 209.175368 
L 117.48116 209.175368 
L 117.48116 210.457112 
L 117.794101 210.457112 
L 117.794101 211.006431 
L 118.107043 211.006431 
L 118.107043 211.372643 
L 118.419984 211.372643 
L 118.419984 211.555749 
L 118.732926 211.555749 
L 118.732926 214.851662 
L 119.045868 214.851662 
L 119.045868 213.569918 
L 119.358809 213.569918 
L 119.358809 215.034768 
L 119.671751 215.034768 
L 119.671751 215.584087 
L 119.984693 215.584087 
L 119.984693 216.133406 
L 120.297634 216.133406 
L 120.297634 214.851662 
L 120.610576 214.851662 
L 120.610576 217.598256 
L 120.923517 217.598256 
L 120.923517 217.048937 
L 121.236459 217.048937 
L 121.236459 217.964469 
L 121.549401 217.964469 
L 121.549401 218.513787 
L 121.862342 218.513787 
L 121.862342 218.88 
L 122.488226 218.88 
L 122.488226 218.513787 
L 122.801167 218.513787 
L 122.801167 217.41515 
L 123.114109 217.41515 
L 123.114109 214.48545 
L 123.427051 214.48545 
L 123.427051 211.189537 
L 123.739992 211.189537 
L 123.739992 208.626049 
L 124.052934 208.626049 
L 124.052934 207.710518 
L 124.365875 207.710518 
L 124.365875 204.414605 
L 124.678817 204.414605 
L 124.678817 208.442943 
L 124.991759 208.442943 
L 124.991759 207.161199 
L 125.3047 207.161199 
L 125.3047 208.259837 
L 125.617642 208.259837 
L 125.617642 208.809155 
L 125.930584 208.809155 
L 125.930584 207.161199 
L 126.243525 207.161199 
L 126.243525 207.344305 
L 126.556467 207.344305 
L 126.556467 210.090899 
L 126.869408 210.090899 
L 126.869408 207.710518 
L 127.18235 207.710518 
L 127.18235 211.555749 
L 127.495292 211.555749 
L 127.495292 210.823324 
L 127.808233 210.823324 
L 127.808233 212.654387 
L 128.121175 212.654387 
L 128.121175 212.837493 
L 128.434117 212.837493 
L 128.434117 212.288174 
L 128.747058 212.288174 
L 128.747058 213.569918 
L 129.06 213.569918 
L 129.06 213.753025 
L 129.372942 213.753025 
L 129.372942 211.555749 
L 129.685883 211.555749 
L 129.685883 213.203706 
L 129.998825 213.203706 
L 129.998825 214.851662 
L 130.311766 214.851662 
L 130.311766 213.753025 
L 130.624708 213.753025 
L 130.624708 214.302343 
L 130.93765 214.302343 
L 130.93765 214.851662 
L 131.250591 214.851662 
L 131.250591 215.584087 
L 131.563533 215.584087 
L 131.563533 215.217875 
L 131.876475 215.217875 
L 131.876475 216.682725 
L 132.189416 216.682725 
L 132.189416 216.133406 
L 132.502358 216.133406 
L 132.502358 216.499619 
L 132.815299 216.499619 
L 132.815299 217.232044 
L 133.128241 217.232044 
L 133.128241 217.781362 
L 133.441183 217.781362 
L 133.441183 217.964469 
L 134.067066 217.964469 
L 134.067066 217.781362 
L 134.380008 217.781362 
L 134.380008 217.598256 
L 134.692949 217.598256 
L 134.692949 218.330681 
L 135.005891 218.330681 
L 135.005891 218.696894 
L 135.318833 218.696894 
L 135.318833 218.88 
L 136.883541 218.88 
L 136.883541 218.330681 
L 137.196482 218.330681 
L 137.196482 217.781362 
L 137.509424 217.781362 
L 137.509424 217.41515 
L 137.822366 217.41515 
L 137.822366 215.584087 
L 138.135307 215.584087 
L 138.135307 212.288174 
L 138.76119 212.288174 
L 138.76119 208.07673 
L 139.074132 208.07673 
L 139.074132 208.809155 
L 139.387074 208.809155 
L 139.387074 203.499074 
L 139.700015 203.499074 
L 139.700015 205.330136 
L 140.012957 205.330136 
L 140.012957 203.499074 
L 140.325899 203.499074 
L 140.325899 203.315967 
L 140.63884 203.315967 
L 140.63884 204.963924 
L 140.951782 204.963924 
L 140.951782 202.034223 
L 141.264724 202.034223 
L 141.264724 203.499074 
L 141.577665 203.499074 
L 141.577665 202.949755 
L 141.890607 202.949755 
L 141.890607 204.048392 
L 142.203548 204.048392 
L 142.203548 204.597711 
L 142.51649 204.597711 
L 142.51649 205.513243 
L 142.829432 205.513243 
L 142.829432 206.245668 
L 143.142373 206.245668 
L 143.142373 204.414605 
L 143.455315 204.414605 
L 143.455315 201.851117 
L 143.768257 201.851117 
L 143.768257 205.696349 
L 144.081198 205.696349 
L 144.081198 203.68218 
L 144.39414 203.68218 
L 144.39414 207.527411 
L 144.707081 207.527411 
L 144.707081 208.992262 
L 145.020023 208.992262 
L 145.020023 208.259837 
L 145.332965 208.259837 
L 145.332965 209.175368 
L 145.645906 209.175368 
L 145.645906 207.161199 
L 145.958848 207.161199 
L 145.958848 206.978093 
L 146.27179 206.978093 
L 146.27179 209.358474 
L 146.584731 209.358474 
L 146.584731 210.274005 
L 146.897673 210.274005 
L 146.897673 210.640218 
L 147.210615 210.640218 
L 147.210615 211.006431 
L 147.523556 211.006431 
L 147.523556 211.921962 
L 147.836498 211.921962 
L 147.836498 211.555749 
L 148.149439 211.555749 
L 148.149439 211.372643 
L 148.462381 211.372643 
L 148.462381 212.471281 
L 148.775323 212.471281 
L 148.775323 211.738856 
L 149.088264 211.738856 
L 149.088264 212.837493 
L 149.401206 212.837493 
L 149.401206 211.372643 
L 149.714148 211.372643 
L 149.714148 214.48545 
L 150.027089 214.48545 
L 150.027089 215.767193 
L 150.340031 215.767193 
L 150.340031 215.584087 
L 150.652972 215.584087 
L 150.652972 215.034768 
L 150.965914 215.034768 
L 150.965914 216.316512 
L 151.278856 216.316512 
L 151.278856 218.147575 
L 151.591797 218.147575 
L 151.591797 218.330681 
L 151.904739 218.330681 
L 151.904739 218.330681 
" clip-path="url(#p518effbcb9)" style="fill: none; stroke: #1f77b4; stroke-width: 1.5; stroke-linecap: square"/>
   </g>
   <g id="line2d_16">
    <path d="M 173.951965 186.653297 
L 174.2643 186.653297 
L 174.2643 139.961199 
L 174.576634 139.961199 
L 174.576634 103.706158 
L 174.888969 103.706158 
L 174.888969 100.044033 
L 175.201303 100.044033 
L 175.201303 86.677275 
L 175.513637 86.677275 
L 175.513637 91.804251 
L 175.825972 91.804251 
L 175.825972 88.142125 
L 176.138306 88.142125 
L 176.138306 80.634768 
L 176.450641 80.634768 
L 176.450641 69.465286 
L 176.762975 69.465286 
L 176.762975 74.592262 
L 177.07531 74.592262 
L 177.07531 64.155204 
L 177.387644 64.155204 
L 177.387644 50.239128 
L 177.699979 50.239128 
L 177.699979 52.61951 
L 178.012313 52.61951 
L 178.012313 43.647302 
L 178.324647 43.647302 
L 178.324647 39.802071 
L 178.636982 39.802071 
L 178.636982 27.717057 
L 178.949316 27.717057 
L 178.949316 23.139401 
L 179.261651 23.139401 
L 179.261651 31.562289 
L 179.573985 31.562289 
L 179.573985 23.688719 
L 179.88632 23.688719 
L 179.88632 20.759019 
L 180.198654 20.759019 
L 180.198654 34.858202 
L 180.510989 34.858202 
L 180.510989 30.280545 
L 180.823323 30.280545 
L 180.823323 24.787357 
L 181.135657 24.787357 
L 181.135657 33.759564 
L 181.447992 33.759564 
L 181.447992 38.520327 
L 181.760326 38.520327 
L 181.760326 42.548665 
L 182.072661 42.548665 
L 182.072661 36.323052 
L 182.384995 36.323052 
L 182.384995 50.788447 
L 182.69733 50.788447 
L 182.69733 40.900708 
L 183.009664 40.900708 
L 183.009664 53.718147 
L 183.321999 53.718147 
L 183.321999 68.366649 
L 183.634333 68.366649 
L 183.634333 87.4097 
L 183.946667 87.4097 
L 183.946667 92.353569 
L 184.259002 92.353569 
L 184.259002 103.156839 
L 184.571336 103.156839 
L 184.571336 108.283815 
L 184.883671 108.283815 
L 184.883671 124.580272 
L 185.196005 124.580272 
L 185.196005 123.115422 
L 185.50834 123.115422 
L 185.50834 141.609155 
L 185.820674 141.609155 
L 185.820674 149.299619 
L 186.133009 149.299619 
L 186.133009 158.821144 
L 186.445343 158.821144 
L 186.445343 161.933951 
L 186.757677 161.933951 
L 186.757677 178.413515 
L 187.070012 178.413515 
L 187.070012 180.977003 
L 187.382346 180.977003 
L 187.382346 193.245123 
L 187.694681 193.245123 
L 187.694681 202.583542 
L 188.007015 202.583542 
L 188.007015 206.978093 
L 188.31935 206.978093 
L 188.31935 215.9503 
L 188.631684 215.9503 
L 188.631684 217.781362 
L 188.944019 217.781362 
L 188.944019 218.88 
L 191.442694 218.88 
L 191.442694 218.513787 
L 191.755029 218.513787 
L 191.755029 201.668011 
L 192.067363 201.668011 
L 192.067363 172.920327 
L 192.379697 172.920327 
L 192.379697 135.566649 
L 192.692032 135.566649 
L 192.692032 105.537221 
L 193.004366 105.537221 
L 193.004366 83.930681 
L 193.316701 83.930681 
L 193.316701 83.564469 
L 193.629035 83.564469 
L 193.629035 92.353569 
L 193.94137 92.353569 
L 193.94137 99.311608 
L 194.253704 99.311608 
L 194.253704 99.860926 
L 194.566039 99.860926 
L 194.566039 100.227139 
L 194.878373 100.227139 
L 194.878373 102.973733 
L 195.190707 102.973733 
L 195.190707 101.325777 
L 195.503042 101.325777 
L 195.503042 89.606975 
L 195.815376 89.606975 
L 195.815376 93.085995 
L 196.127711 93.085995 
L 196.127711 113.777003 
L 196.440045 113.777003 
L 196.440045 106.818965 
L 196.75238 106.818965 
L 196.75238 110.297984 
L 197.064714 110.297984 
L 197.064714 114.143215 
L 197.377049 114.143215 
L 197.377049 112.129046 
L 197.689383 112.129046 
L 197.689383 118.903978 
L 198.001717 118.903978 
L 198.001717 120.368828 
L 198.314052 120.368828 
L 198.314052 117.439128 
L 198.626386 117.439128 
L 198.626386 122.74921 
L 198.938721 122.74921 
L 198.938721 127.14376 
L 199.251055 127.14376 
L 199.251055 123.664741 
L 199.56339 123.664741 
L 199.56339 128.242398 
L 199.875724 128.242398 
L 199.875724 128.425504 
L 200.188059 128.425504 
L 200.188059 130.805886 
L 200.500393 130.805886 
L 200.500393 128.60861 
L 200.812727 128.60861 
L 200.812727 130.622779 
L 201.125062 130.622779 
L 201.125062 132.453842 
L 201.437396 132.453842 
L 201.437396 130.988992 
L 201.749731 130.988992 
L 201.749731 131.172098 
L 202.062065 131.172098 
L 202.062065 134.651117 
L 202.3744 134.651117 
L 202.3744 137.580817 
L 202.686734 137.580817 
L 202.686734 139.228774 
L 202.999069 139.228774 
L 202.999069 148.7503 
L 203.311403 148.7503 
L 203.311403 149.665831 
L 203.623737 149.665831 
L 203.623737 146.003706 
L 203.936072 146.003706 
L 203.936072 154.060381 
L 204.248406 154.060381 
L 204.248406 159.187357 
L 204.560741 159.187357 
L 204.560741 159.553569 
L 204.873075 159.553569 
L 204.873075 166.87782 
L 205.18541 166.87782 
L 205.18541 170.539946 
L 205.497744 170.539946 
L 205.497744 174.202071 
L 205.810079 174.202071 
L 205.810079 181.526322 
L 206.122413 181.526322 
L 206.122413 189.94921 
L 206.434747 189.94921 
L 206.434747 193.977548 
L 206.747082 193.977548 
L 206.747082 201.668011 
L 207.059416 201.668011 
L 207.059416 206.245668 
L 207.371751 206.245668 
L 207.371751 209.175368 
L 207.684085 209.175368 
L 207.684085 214.668556 
L 207.99642 214.668556 
L 207.99642 217.781362 
L 208.308754 217.781362 
L 208.308754 218.88 
L 208.621089 218.88 
L 208.621089 215.767193 
L 208.933423 215.767193 
L 208.933423 204.780817 
L 209.245757 204.780817 
L 209.245757 190.864741 
L 209.558092 190.864741 
L 209.558092 176.399346 
L 209.870426 176.399346 
L 209.870426 160.835313 
L 210.182761 160.835313 
L 210.182761 154.060381 
L 210.495095 154.060381 
L 210.495095 149.116512 
L 210.80743 149.116512 
L 210.80743 144.905068 
L 211.119764 144.905068 
L 211.119764 157.905613 
L 211.432099 157.905613 
L 211.432099 158.454932 
L 211.744433 158.454932 
L 211.744433 157.722507 
L 212.056767 157.722507 
L 212.056767 161.201526 
L 212.369102 161.201526 
L 212.369102 158.821144 
L 212.681436 158.821144 
L 212.681436 155.708338 
L 212.993771 155.708338 
L 212.993771 161.567738 
L 213.306105 161.567738 
L 213.306105 156.257657 
L 213.61844 156.257657 
L 213.61844 158.638038 
L 213.930774 158.638038 
L 213.930774 160.652207 
L 214.243109 160.652207 
L 214.243109 157.173188 
L 214.555443 157.173188 
L 214.555443 161.750845 
L 214.867777 161.750845 
L 214.867777 159.553569 
L 215.180112 159.553569 
L 215.180112 164.497439 
L 215.492446 164.497439 
L 215.492446 169.441308 
L 215.804781 169.441308 
L 215.804781 167.793351 
L 216.117115 167.793351 
L 216.117115 170.723052 
L 216.42945 170.723052 
L 216.42945 167.244033 
L 216.741784 167.244033 
L 216.741784 176.21624 
L 217.054119 176.21624 
L 217.054119 175.666921 
L 217.366453 175.666921 
L 217.366453 176.582452 
L 217.678787 176.582452 
L 217.678787 183.54049 
L 217.991122 183.54049 
L 217.991122 179.695259 
L 218.303456 179.695259 
L 218.303456 183.174278 
L 218.615791 183.174278 
L 218.615791 187.01951 
L 218.928125 187.01951 
L 218.928125 186.287084 
L 219.24046 186.287084 
L 219.24046 188.850572 
L 219.552794 188.850572 
L 219.552794 194.160654 
L 219.865129 194.160654 
L 219.865129 196.541035 
L 220.177463 196.541035 
L 220.177463 193.428229 
L 220.489797 193.428229 
L 220.489797 199.104523 
L 220.802132 199.104523 
L 220.802132 202.034223 
L 221.114466 202.034223 
L 221.114466 201.668011 
L 221.426801 201.668011 
L 221.426801 205.330136 
L 221.739135 205.330136 
L 221.739135 204.963924 
L 222.05147 204.963924 
L 222.05147 211.372643 
L 222.363804 211.372643 
L 222.363804 212.654387 
L 222.676139 212.654387 
L 222.676139 213.936131 
L 222.988473 213.936131 
L 222.988473 214.302343 
L 223.300807 214.302343 
L 223.300807 218.147575 
L 223.613142 218.147575 
L 223.613142 217.781362 
L 223.925476 217.781362 
L 223.925476 215.584087 
L 224.237811 215.584087 
L 224.237811 212.288174 
L 224.550145 212.288174 
L 224.550145 203.68218 
L 224.86248 203.68218 
L 224.86248 198.555204 
L 225.174814 198.555204 
L 225.174814 192.329591 
L 225.487149 192.329591 
L 225.487149 188.667466 
L 225.799483 188.667466 
L 225.799483 189.216785 
L 226.111817 189.216785 
L 226.111817 189.033678 
L 226.424152 189.033678 
L 226.424152 191.597166 
L 226.736486 191.597166 
L 226.736486 194.34376 
L 227.048821 194.34376 
L 227.048821 193.977548 
L 227.361155 193.977548 
L 227.361155 195.076185 
L 227.67349 195.076185 
L 227.67349 193.428229 
L 227.985824 193.428229 
L 227.985824 196.907248 
L 228.298159 196.907248 
L 228.298159 199.470736 
L 228.610493 199.470736 
L 228.610493 198.188992 
L 228.922828 198.188992 
L 228.922828 200.935586 
L 229.235162 200.935586 
L 229.235162 201.118692 
L 229.547496 201.118692 
L 229.547496 203.68218 
L 229.859831 203.68218 
L 229.859831 202.766649 
L 230.172165 202.766649 
L 230.172165 201.851117 
L 230.4845 201.851117 
L 230.4845 201.301798 
L 230.796834 201.301798 
L 230.796834 204.414605 
L 231.109169 204.414605 
L 231.109169 206.61188 
L 231.421503 206.61188 
L 231.421503 207.527411 
L 231.733838 207.527411 
L 231.733838 206.245668 
L 232.046172 206.245668 
L 232.046172 207.527411 
L 232.358506 207.527411 
L 232.358506 208.07673 
L 232.670841 208.07673 
L 232.670841 211.189537 
L 232.983175 211.189537 
L 232.983175 211.555749 
L 233.29551 211.555749 
L 233.29551 209.175368 
L 233.607844 209.175368 
L 233.607844 210.823324 
L 233.920179 210.823324 
L 233.920179 211.738856 
L 234.232513 211.738856 
L 234.232513 212.471281 
L 234.544848 212.471281 
L 234.544848 213.753025 
L 234.857182 213.753025 
L 234.857182 214.48545 
L 235.169516 214.48545 
L 235.169516 216.682725 
L 235.481851 216.682725 
L 235.481851 214.851662 
L 235.794185 214.851662 
L 235.794185 215.584087 
L 236.10652 215.584087 
L 236.10652 216.499619 
L 236.418854 216.499619 
L 236.418854 216.865831 
L 236.731189 216.865831 
L 236.731189 217.598256 
L 237.043523 217.598256 
L 237.043523 218.147575 
L 237.355858 218.147575 
L 237.355858 218.696894 
L 237.668192 218.696894 
L 237.668192 218.88 
L 238.605195 218.88 
L 238.605195 217.964469 
L 238.91753 217.964469 
L 238.91753 214.48545 
L 239.229864 214.48545 
L 239.229864 212.654387 
L 239.542199 212.654387 
L 239.542199 210.457112 
L 239.854533 210.457112 
L 239.854533 206.428774 
L 240.166868 206.428774 
L 240.166868 206.61188 
L 240.479202 206.61188 
L 240.479202 204.780817 
L 240.791536 204.780817 
L 240.791536 205.879455 
L 241.103871 205.879455 
L 241.103871 206.428774 
L 241.416205 206.428774 
L 241.416205 208.992262 
L 241.72854 208.992262 
L 241.72854 207.527411 
L 242.040874 207.527411 
L 242.040874 207.893624 
L 242.353209 207.893624 
L 242.353209 209.907793 
L 242.665543 209.907793 
L 242.665543 208.07673 
L 242.977878 208.07673 
L 242.977878 210.457112 
L 243.290212 210.457112 
L 243.290212 209.54158 
L 243.602546 209.54158 
L 243.602546 209.358474 
L 243.914881 209.358474 
L 243.914881 212.288174 
L 244.227215 212.288174 
L 244.227215 212.654387 
L 244.53955 212.654387 
L 244.53955 213.569918 
L 244.851884 213.569918 
L 244.851884 215.584087 
L 245.164219 215.584087 
L 245.164219 213.569918 
L 245.476553 213.569918 
L 245.476553 213.020599 
L 245.788888 213.020599 
L 245.788888 213.569918 
L 246.101222 213.569918 
L 246.101222 213.020599 
L 246.413556 213.020599 
L 246.413556 216.499619 
L 246.725891 216.499619 
L 246.725891 214.302343 
L 247.038225 214.302343 
L 247.038225 215.217875 
L 247.35056 215.217875 
L 247.35056 216.133406 
L 247.662894 216.133406 
L 247.662894 215.9503 
L 247.975229 215.9503 
L 247.975229 215.034768 
L 248.287563 215.034768 
L 248.287563 216.133406 
L 248.599898 216.133406 
L 248.599898 216.682725 
L 248.912232 216.682725 
L 248.912232 217.964469 
L 249.224566 217.964469 
L 249.224566 217.41515 
L 249.536901 217.41515 
L 249.536901 218.147575 
L 249.849235 218.147575 
L 249.849235 217.964469 
L 250.16157 217.964469 
L 250.16157 218.147575 
L 250.473904 218.147575 
L 250.473904 218.513787 
L 250.786239 218.513787 
L 250.786239 218.88 
L 252.660245 218.88 
L 252.660245 218.696894 
L 252.97258 218.696894 
L 252.97258 218.513787 
L 253.284914 218.513787 
L 253.284914 217.598256 
L 253.597249 217.598256 
L 253.597249 216.316512 
L 253.909583 216.316512 
L 253.909583 214.119237 
L 254.221918 214.119237 
L 254.221918 211.921962 
L 254.534252 211.921962 
L 254.534252 209.175368 
L 254.846586 209.175368 
L 254.846586 208.259837 
L 255.158921 208.259837 
L 255.158921 206.61188 
L 255.471255 206.61188 
L 255.471255 205.330136 
L 255.78359 205.330136 
L 255.78359 203.499074 
L 256.095924 203.499074 
L 256.095924 203.315967 
L 256.408259 203.315967 
L 256.408259 204.963924 
L 256.720593 204.963924 
L 256.720593 203.132861 
L 257.032928 203.132861 
L 257.032928 203.315967 
L 257.345262 203.315967 
L 257.345262 203.68218 
L 257.657596 203.68218 
L 257.657596 204.780817 
L 258.282265 204.780817 
L 258.282265 203.68218 
L 258.5946 203.68218 
L 258.5946 206.428774 
L 258.906934 206.428774 
L 258.906934 206.245668 
L 259.219269 206.245668 
L 259.219269 202.583542 
L 259.531603 202.583542 
L 259.531603 204.780817 
L 259.843938 204.780817 
L 259.843938 203.68218 
L 260.156272 203.68218 
L 260.156272 205.330136 
L 260.468606 205.330136 
L 260.468606 209.358474 
L 260.780941 209.358474 
L 260.780941 208.626049 
L 261.093275 208.626049 
L 261.093275 206.245668 
L 261.40561 206.245668 
L 261.40561 207.344305 
L 261.717944 207.344305 
L 261.717944 209.54158 
L 262.030279 209.54158 
L 262.030279 209.907793 
L 262.342613 209.907793 
L 262.342613 210.274005 
L 262.654948 210.274005 
L 262.654948 208.259837 
L 262.967282 208.259837 
L 262.967282 209.724687 
L 263.279616 209.724687 
L 263.279616 209.358474 
L 263.591951 209.358474 
L 263.591951 208.626049 
L 263.904285 208.626049 
L 263.904285 211.006431 
L 264.21662 211.006431 
L 264.21662 211.738856 
L 264.528954 211.738856 
L 264.528954 211.006431 
L 264.841289 211.006431 
L 264.841289 212.837493 
L 265.153623 212.837493 
L 265.153623 213.753025 
L 265.465958 213.753025 
L 265.465958 212.837493 
L 265.778292 212.837493 
L 265.778292 212.654387 
L 266.090626 212.654387 
L 266.090626 214.48545 
L 266.402961 214.48545 
L 266.402961 215.400981 
L 266.715295 215.400981 
L 266.715295 215.034768 
L 267.02763 215.034768 
L 267.02763 217.048937 
L 267.339964 217.048937 
L 267.339964 218.147575 
L 267.652299 218.147575 
L 267.652299 218.147575 
" clip-path="url(#p518effbcb9)" style="fill: none; stroke: #ff7f0e; stroke-width: 1.5; stroke-linecap: square"/>
   </g>
   <g id="line2d_17">
    <path d="M 289.802943 195.991717 
L 290.115086 195.991717 
L 290.115086 147.834768 
L 290.42723 147.834768 
L 290.42723 110.114877 
L 290.739373 110.114877 
L 290.739373 106.08654 
L 291.051516 106.08654 
L 291.051516 98.762289 
L 291.36366 98.762289 
L 291.36366 93.452207 
L 291.675803 93.452207 
L 291.675803 85.578638 
L 291.987947 85.578638 
L 291.987947 83.01515 
L 292.30009 83.01515 
L 292.30009 81.000981 
L 292.612234 81.000981 
L 292.612234 65.986267 
L 292.924377 65.986267 
L 292.924377 59.94376 
L 293.236521 59.94376 
L 293.236521 58.662016 
L 293.548664 58.662016 
L 293.548664 52.985722 
L 293.860807 52.985722 
L 293.860807 37.238583 
L 294.172951 37.238583 
L 294.172951 40.168283 
L 294.485094 40.168283 
L 294.485094 34.675095 
L 294.797238 34.675095 
L 294.797238 35.224414 
L 295.109381 35.224414 
L 295.109381 32.294714 
L 295.421525 32.294714 
L 295.421525 23.139401 
L 295.733668 23.139401 
L 295.733668 17.28 
L 296.045811 17.28 
L 296.045811 27.350845 
L 296.357955 27.350845 
L 296.357955 20.2097 
L 296.670098 20.2097 
L 296.670098 31.01297 
L 296.982242 31.01297 
L 296.982242 39.252752 
L 297.294385 39.252752 
L 297.294385 28.998801 
L 297.606529 28.998801 
L 297.606529 40.35139 
L 297.918672 40.35139 
L 297.918672 45.661471 
L 298.230816 45.661471 
L 298.230816 39.252752 
L 298.542959 39.252752 
L 298.542959 45.295259 
L 298.855102 45.295259 
L 298.855102 62.507248 
L 299.167246 62.507248 
L 299.167246 70.563924 
L 299.479389 70.563924 
L 299.479389 70.014605 
L 299.791533 70.014605 
L 299.791533 88.142125 
L 300.103676 88.142125 
L 300.103676 96.931226 
L 300.41582 96.931226 
L 300.41582 109.931771 
L 300.727963 109.931771 
L 300.727963 129.341035 
L 301.35225 129.341035 
L 301.35225 137.397711 
L 301.664393 137.397711 
L 301.664393 151.68 
L 301.976537 151.68 
L 301.976537 156.623869 
L 302.28868 156.623869 
L 302.28868 164.131226 
L 302.600824 164.131226 
L 302.600824 175.300708 
L 302.912967 175.300708 
L 302.912967 179.329046 
L 303.22511 179.329046 
L 303.22511 187.935041 
L 303.537254 187.935041 
L 303.537254 200.020054 
L 303.849397 200.020054 
L 303.849397 207.161199 
L 304.161541 207.161199 
L 304.161541 213.203706 
L 304.473684 213.203706 
L 304.473684 216.865831 
L 304.785828 216.865831 
L 304.785828 218.88 
L 307.595119 218.88 
L 307.595119 207.710518 
L 307.907262 207.710518 
L 307.907262 175.117602 
L 308.219405 175.117602 
L 308.219405 136.848392 
L 308.531549 136.848392 
L 308.531549 98.396076 
L 308.843692 98.396076 
L 308.843692 93.452207 
L 309.155836 93.452207 
L 309.155836 91.987357 
L 309.467979 91.987357 
L 309.467979 89.973188 
L 309.780123 89.973188 
L 309.780123 95.28327 
L 310.092266 95.28327 
L 310.092266 100.410245 
L 310.40441 100.410245 
L 310.40441 86.311063 
L 310.716553 86.311063 
L 310.716553 102.790627 
L 311.028696 102.790627 
L 311.028696 109.382452 
L 311.34084 109.382452 
L 311.34084 101.875095 
L 311.652983 101.875095 
L 311.652983 106.269646 
L 311.965127 106.269646 
L 311.965127 104.255477 
L 312.27727 104.255477 
L 312.27727 105.537221 
L 312.589414 105.537221 
L 312.589414 108.833134 
L 312.901557 108.833134 
L 312.901557 109.565559 
L 313.2137 109.565559 
L 313.2137 113.777003 
L 313.525844 113.777003 
L 313.525844 110.114877 
L 313.837987 110.114877 
L 313.837987 111.030409 
L 314.150131 111.030409 
L 314.150131 112.678365 
L 314.462274 112.678365 
L 314.462274 115.424959 
L 314.774418 115.424959 
L 314.774418 118.903978 
L 315.086561 118.903978 
L 315.086561 124.763379 
L 315.398704 124.763379 
L 315.398704 127.14376 
L 315.710848 127.14376 
L 315.710848 123.115422 
L 316.022991 123.115422 
L 316.022991 131.721417 
L 316.335135 131.721417 
L 316.335135 126.777548 
L 316.647278 126.777548 
L 316.647278 130.256567 
L 316.959422 130.256567 
L 316.959422 131.538311 
L 317.271565 131.538311 
L 317.271565 135.01733 
L 317.583709 135.01733 
L 317.583709 137.214605 
L 317.895852 137.214605 
L 317.895852 143.806431 
L 318.207995 143.806431 
L 318.207995 144.355749 
L 318.520139 144.355749 
L 318.520139 141.426049 
L 318.832282 141.426049 
L 318.832282 144.538856 
L 319.144426 144.538856 
L 319.144426 148.933406 
L 319.456569 148.933406 
L 319.456569 143.257112 
L 319.768713 143.257112 
L 319.768713 153.511063 
L 320.080856 153.511063 
L 320.080856 155.891444 
L 320.392999 155.891444 
L 320.392999 152.412425 
L 320.705143 152.412425 
L 320.705143 165.962289 
L 321.017286 165.962289 
L 321.017286 172.554114 
L 321.32943 172.554114 
L 321.32943 173.103433 
L 321.641573 173.103433 
L 321.641573 185.188447 
L 322.26586 185.188447 
L 322.26586 195.80861 
L 322.578004 195.80861 
L 322.578004 202.583542 
L 322.890147 202.583542 
L 322.890147 206.245668 
L 323.20229 206.245668 
L 323.20229 208.626049 
L 323.514434 208.626049 
L 323.514434 213.569918 
L 323.826577 213.569918 
L 323.826577 216.865831 
L 324.138721 216.865831 
L 324.138721 218.330681 
L 324.450864 218.330681 
L 324.450864 216.865831 
L 324.763008 216.865831 
L 324.763008 206.428774 
L 325.075151 206.428774 
L 325.075151 193.611335 
L 325.387294 193.611335 
L 325.387294 179.695259 
L 325.699438 179.695259 
L 325.699438 167.427139 
L 326.011581 167.427139 
L 326.011581 157.356294 
L 326.323725 157.356294 
L 326.323725 151.313787 
L 326.635868 151.313787 
L 326.635868 157.356294 
L 326.948012 157.356294 
L 326.948012 160.285995 
L 327.260155 160.285995 
L 327.260155 156.257657 
L 327.572298 156.257657 
L 327.572298 157.173188 
L 327.884442 157.173188 
L 327.884442 157.356294 
L 328.196585 157.356294 
L 328.196585 158.088719 
L 328.508729 158.088719 
L 328.508729 151.496894 
L 328.820872 151.496894 
L 328.820872 162.117057 
L 329.133016 162.117057 
L 329.133016 161.201526 
L 329.445159 161.201526 
L 329.445159 159.004251 
L 329.757303 159.004251 
L 329.757303 159.187357 
L 330.069446 159.187357 
L 330.069446 164.314332 
L 330.381589 164.314332 
L 330.381589 162.300163 
L 330.693733 162.300163 
L 330.693733 162.666376 
L 331.005876 162.666376 
L 331.005876 164.680545 
L 331.31802 164.680545 
L 331.31802 169.990627 
L 331.630163 169.990627 
L 331.630163 170.539946 
L 331.942307 170.539946 
L 331.942307 169.258202 
L 332.25445 169.258202 
L 332.25445 172.187902 
L 332.566593 172.187902 
L 332.566593 172.004796 
L 332.878737 172.004796 
L 332.878737 179.878365 
L 333.19088 179.878365 
L 333.19088 180.244578 
L 333.503024 180.244578 
L 333.503024 184.639128 
L 333.815167 184.639128 
L 333.815167 181.160109 
L 334.127311 181.160109 
L 334.127311 184.639128 
L 334.439454 184.639128 
L 334.439454 189.582997 
L 334.751597 189.582997 
L 334.751597 189.94921 
L 335.063741 189.94921 
L 335.063741 194.34376 
L 335.375884 194.34376 
L 335.375884 193.245123 
L 335.688028 193.245123 
L 335.688028 198.372098 
L 336.000171 198.372098 
L 336.000171 200.203161 
L 336.312315 200.203161 
L 336.312315 201.484905 
L 336.624458 201.484905 
L 336.624458 200.935586 
L 336.936602 200.935586 
L 336.936602 203.865286 
L 337.248745 203.865286 
L 337.248745 204.414605 
L 337.560888 204.414605 
L 337.560888 206.428774 
L 337.873032 206.428774 
L 337.873032 206.978093 
L 338.185175 206.978093 
L 338.185175 210.640218 
L 338.497319 210.640218 
L 338.497319 212.654387 
L 338.809462 212.654387 
L 338.809462 213.936131 
L 339.121606 213.936131 
L 339.121606 217.232044 
L 339.433749 217.232044 
L 339.433749 218.330681 
L 339.745892 218.330681 
L 339.745892 216.316512 
L 340.058036 216.316512 
L 340.058036 211.738856 
L 340.370179 211.738856 
L 340.370179 206.61188 
L 340.682323 206.61188 
L 340.682323 200.935586 
L 340.994466 200.935586 
L 340.994466 191.597166 
L 341.30661 191.597166 
L 341.30661 186.836403 
L 341.618753 186.836403 
L 341.618753 188.48436 
L 341.930897 188.48436 
L 341.930897 186.653297 
L 342.24304 186.653297 
L 342.24304 192.146485 
L 342.555183 192.146485 
L 342.555183 193.794441 
L 342.867327 193.794441 
L 342.867327 191.230954 
L 343.17947 191.230954 
L 343.17947 197.090354 
L 343.491614 197.090354 
L 343.491614 195.259292 
L 343.803757 195.259292 
L 343.803757 194.709973 
L 344.115901 194.709973 
L 344.115901 199.470736 
L 344.428044 199.470736 
L 344.428044 200.020054 
L 344.740187 200.020054 
L 344.740187 200.75248 
L 345.052331 200.75248 
L 345.052331 200.386267 
L 345.364474 200.386267 
L 345.364474 202.21733 
L 345.676618 202.21733 
L 345.676618 202.583542 
L 345.988761 202.583542 
L 345.988761 200.935586 
L 346.300905 200.935586 
L 346.300905 198.738311 
L 346.613048 198.738311 
L 346.613048 204.780817 
L 346.925191 204.780817 
L 346.925191 208.07673 
L 347.237335 208.07673 
L 347.237335 207.710518 
L 347.549478 207.710518 
L 347.549478 207.527411 
L 347.861622 207.527411 
L 347.861622 208.626049 
L 348.173765 208.626049 
L 348.173765 208.442943 
L 348.485909 208.442943 
L 348.485909 208.992262 
L 348.798052 208.992262 
L 348.798052 209.907793 
L 349.110196 209.907793 
L 349.110196 210.274005 
L 349.422339 210.274005 
L 349.422339 210.457112 
L 349.734482 210.457112 
L 349.734482 211.555749 
L 350.046626 211.555749 
L 350.046626 213.936131 
L 350.670913 213.936131 
L 350.670913 213.753025 
L 350.983056 213.753025 
L 350.983056 214.668556 
L 351.2952 214.668556 
L 351.2952 215.034768 
L 351.607343 215.034768 
L 351.607343 217.048937 
L 351.919486 217.048937 
L 351.919486 217.232044 
L 352.23163 217.232044 
L 352.23163 218.330681 
L 352.543773 218.330681 
L 352.543773 217.964469 
L 352.855917 217.964469 
L 352.855917 218.696894 
L 353.16806 218.696894 
L 353.16806 218.513787 
L 353.480204 218.513787 
L 353.480204 218.88 
L 354.416634 218.88 
L 354.416634 217.964469 
L 354.728777 217.964469 
L 354.728777 215.584087 
L 355.040921 215.584087 
L 355.040921 214.302343 
L 355.353064 214.302343 
L 355.353064 208.259837 
L 355.665208 208.259837 
L 355.665208 209.724687 
L 355.977351 209.724687 
L 355.977351 205.879455 
L 356.289495 205.879455 
L 356.289495 205.513243 
L 356.601638 205.513243 
L 356.601638 206.428774 
L 356.913781 206.428774 
L 356.913781 205.696349 
L 357.225925 205.696349 
L 357.225925 207.344305 
L 357.538068 207.344305 
L 357.538068 206.61188 
L 357.850212 206.61188 
L 357.850212 209.175368 
L 358.162355 209.175368 
L 358.162355 211.189537 
L 358.474499 211.189537 
L 358.474499 208.07673 
L 358.786642 208.07673 
L 358.786642 209.54158 
L 359.098785 209.54158 
L 359.098785 210.274005 
L 359.410929 210.274005 
L 359.410929 211.189537 
L 359.723072 211.189537 
L 359.723072 210.823324 
L 360.035216 210.823324 
L 360.035216 213.386812 
L 360.347359 213.386812 
L 360.347359 213.203706 
L 360.659503 213.203706 
L 360.659503 212.288174 
L 360.971646 212.288174 
L 360.971646 213.020599 
L 361.28379 213.020599 
L 361.28379 213.386812 
L 361.595933 213.386812 
L 361.595933 214.119237 
L 361.908076 214.119237 
L 361.908076 214.851662 
L 362.22022 214.851662 
L 362.22022 214.48545 
L 362.532363 214.48545 
L 362.532363 214.302343 
L 362.844507 214.302343 
L 362.844507 214.851662 
L 363.15665 214.851662 
L 363.15665 214.302343 
L 363.468794 214.302343 
L 363.468794 215.400981 
L 363.780937 215.400981 
L 363.780937 215.034768 
L 364.09308 215.034768 
L 364.09308 216.682725 
L 364.405224 216.682725 
L 364.405224 217.232044 
L 364.717367 217.232044 
L 364.717367 217.781362 
L 365.029511 217.781362 
L 365.029511 216.133406 
L 365.341654 216.133406 
L 365.341654 217.232044 
L 365.653798 217.232044 
L 365.653798 218.330681 
L 365.965941 218.330681 
L 365.965941 217.232044 
L 366.278085 217.232044 
L 366.278085 218.147575 
L 366.590228 218.147575 
L 366.590228 218.513787 
L 366.902371 218.513787 
L 366.902371 218.88 
L 367.214515 218.88 
L 367.214515 218.696894 
L 367.526658 218.696894 
L 367.526658 218.88 
L 368.775232 218.88 
L 368.775232 218.696894 
L 369.087375 218.696894 
L 369.087375 217.964469 
L 369.399519 217.964469 
L 369.399519 217.048937 
L 369.711662 217.048937 
L 369.711662 214.851662 
L 370.023806 214.851662 
L 370.023806 211.372643 
L 370.335949 211.372643 
L 370.335949 211.006431 
L 370.648093 211.006431 
L 370.648093 208.992262 
L 370.960236 208.992262 
L 370.960236 208.07673 
L 371.272379 208.07673 
L 371.272379 207.344305 
L 371.584523 207.344305 
L 371.584523 204.231499 
L 371.896666 204.231499 
L 371.896666 203.499074 
L 372.20881 203.499074 
L 372.20881 205.513243 
L 372.520953 205.513243 
L 372.520953 203.132861 
L 372.833097 203.132861 
L 372.833097 203.315967 
L 373.14524 203.315967 
L 373.14524 202.766649 
L 373.457384 202.766649 
L 373.457384 205.14703 
L 373.769527 205.14703 
L 373.769527 207.344305 
L 374.08167 207.344305 
L 374.08167 203.68218 
L 374.393814 203.68218 
L 374.393814 203.132861 
L 374.705957 203.132861 
L 374.705957 204.780817 
L 375.018101 204.780817 
L 375.018101 201.851117 
L 375.330244 201.851117 
L 375.330244 204.780817 
L 375.642388 204.780817 
L 375.642388 204.963924 
L 375.954531 204.963924 
L 375.954531 204.048392 
L 376.266674 204.048392 
L 376.266674 207.161199 
L 376.578818 207.161199 
L 376.578818 209.358474 
L 376.890961 209.358474 
L 376.890961 207.710518 
L 377.203105 207.710518 
L 377.203105 209.175368 
L 377.515248 209.175368 
L 377.515248 206.61188 
L 377.827392 206.61188 
L 377.827392 206.062561 
L 378.139535 206.062561 
L 378.139535 206.794986 
L 378.451678 206.794986 
L 378.451678 209.175368 
L 378.763822 209.175368 
L 378.763822 208.626049 
L 379.075965 208.626049 
L 379.075965 209.54158 
L 379.388109 209.54158 
L 379.388109 209.724687 
L 379.700252 209.724687 
L 379.700252 210.823324 
L 380.012396 210.823324 
L 380.012396 208.259837 
L 380.324539 208.259837 
L 380.324539 213.203706 
L 380.636683 213.203706 
L 380.636683 212.837493 
L 380.948826 212.837493 
L 380.948826 214.668556 
L 381.260969 214.668556 
L 381.260969 211.921962 
L 381.573113 211.921962 
L 381.573113 214.48545 
L 381.885256 214.48545 
L 381.885256 215.584087 
L 382.1974 215.584087 
L 382.1974 215.400981 
L 382.509543 215.400981 
L 382.509543 214.48545 
L 382.821687 214.48545 
L 382.821687 217.964469 
L 383.13383 217.964469 
L 383.13383 218.330681 
L 383.445973 218.330681 
L 383.445973 218.330681 
" clip-path="url(#p518effbcb9)" style="fill: none; stroke: #2ca02c; stroke-width: 1.5; stroke-linecap: square"/>
   </g>
   <g id="patch_3">
    <path d="M 53.328125 228.96 
L 53.328125 7.2 
" style="fill: none; stroke: #000000; stroke-width: 0.8; stroke-linejoin: miter; stroke-linecap: square"/>
   </g>
   <g id="patch_4">
    <path d="M 388.128125 228.96 
L 388.128125 7.2 
" style="fill: none; stroke: #000000; stroke-width: 0.8; stroke-linejoin: miter; stroke-linecap: square"/>
   </g>
   <g id="patch_5">
    <path d="M 53.328125 228.96 
L 388.128125 228.96 
" style="fill: none; stroke: #000000; stroke-width: 0.8; stroke-linejoin: miter; stroke-linecap: square"/>
   </g>
   <g id="patch_6">
    <path d="M 53.328125 7.2 
L 388.128125 7.2 
" style="fill: none; stroke: #000000; stroke-width: 0.8; stroke-linejoin: miter; stroke-linecap: square"/>
   </g>
   <g id="legend_1">
    <g id="patch_7">
     <path d="M 312.570312 59.234375 
L 381.128125 59.234375 
Q 383.128125 59.234375 383.128125 57.234375 
L 383.128125 14.2 
Q 383.128125 12.2 381.128125 12.2 
L 312.570312 12.2 
Q 310.570312 12.2 310.570312 14.2 
L 310.570312 57.234375 
Q 310.570312 59.234375 312.570312 59.234375 
z
" style="fill: #ffffff; opacity: 0.8; stroke: #cccccc; stroke-linejoin: miter"/>
    </g>
    <g id="line2d_18">
     <path d="M 314.570312 20.298437 
L 314.570312 20.298437 
L 324.570312 20.298437 
L 324.570312 20.298437 
L 334.570312 20.298437 
" style="fill: none; stroke: #1f77b4; stroke-width: 1.5; stroke-linecap: square"/>
    </g>
    <g id="text_17">
     <!-- pulse:0 -->
     <g transform="translate(342.570312 23.798437) scale(0.1 -0.1)">
      <defs>
       <path id="DejaVuSans-70" d="M 1159 525 
L 1159 -1331 
L 581 -1331 
L 581 3500 
L 1159 3500 
L 1159 2969 
Q 1341 3281 1617 3432 
Q 1894 3584 2278 3584 
Q 2916 3584 3314 3078 
Q 3713 2572 3713 1747 
Q 3713 922 3314 415 
Q 2916 -91 2278 -91 
Q 1894 -91 1617 61 
Q 1341 213 1159 525 
z
M 3116 1747 
Q 3116 2381 2855 2742 
Q 2594 3103 2138 3103 
Q 1681 3103 1420 2742 
Q 1159 2381 1159 1747 
Q 1159 1113 1420 752 
Q 1681 391 2138 391 
Q 2594 391 2855 752 
Q 3116 1113 3116 1747 
z
" transform="scale(0.015625)"/>
       <path id="DejaVuSans-6c" d="M 603 4863 
L 1178 4863 
L 1178 0 
L 603 0 
L 603 4863 
z
" transform="scale(0.015625)"/>
       <path id="DejaVuSans-65" d="M 3597 1894 
L 3597 1613 
L 953 1613 
Q 991 1019 1311 708 
Q 1631 397 2203 397 
Q 2534 397 2845 478 
Q 3156 559 3463 722 
L 3463 178 
Q 3153 47 2828 -22 
Q 2503 -91 2169 -91 
Q 1331 -91 842 396 
Q 353 884 353 1716 
Q 353 2575 817 3079 
Q 1281 3584 2069 3584 
Q 2775 3584 3186 3129 
Q 3597 2675 3597 1894 
z
M 3022 2063 
Q 3016 2534 2758 2815 
Q 2500 3097 2075 3097 
Q 1594 3097 1305 2825 
Q 1016 2553 972 2059 
L 3022 2063 
z
" transform="scale(0.015625)"/>
       <path id="DejaVuSans-3a" d="M 750 794 
L 1409 794 
L 1409 0 
L 750 0 
L 750 794 
z
M 750 3309 
L 1409 3309 
L 1409 2516 
L 750 2516 
L 750 3309 
z
" transform="scale(0.015625)"/>
      </defs>
      <use xlink:href="#DejaVuSans-70"/>
      <use xlink:href="#DejaVuSans-75" transform="translate(63.476562 0)"/>
      <use xlink:href="#DejaVuSans-6c" transform="translate(126.855469 0)"/>
      <use xlink:href="#DejaVuSans-73" transform="translate(154.638672 0)"/>
      <use xlink:href="#DejaVuSans-65" transform="translate(206.738281 0)"/>
      <use xlink:href="#DejaVuSans-3a" transform="translate(268.261719 0)"/>
      <use xlink:href="#DejaVuSans-30" transform="translate(301.953125 0)"/>
     </g>
    </g>
    <g id="line2d_19">
     <path d="M 314.570312 34.976562 
L 314.570312 34.976562 
L 324.570312 34.976562 
L 324.570312 34.976562 
L 334.570312 34.976562 
" style="fill: none; stroke: #ff7f0e; stroke-width: 1.5; stroke-linecap: square"/>
    </g>
    <g id="text_18">
     <!-- pulse:1 -->
     <g transform="translate(342.570312 38.476562) scale(0.1 -0.1)">
      <use xlink:href="#DejaVuSans-70"/>
      <use xlink:href="#DejaVuSans-75" transform="translate(63.476562 0)"/>
      <use xlink:href="#DejaVuSans-6c" transform="translate(126.855469 0)"/>
      <use xlink:href="#DejaVuSans-73" transform="translate(154.638672 0)"/>
      <use xlink:href="#DejaVuSans-65" transform="translate(206.738281 0)"/>
      <use xlink:href="#DejaVuSans-3a" transform="translate(268.261719 0)"/>
      <use xlink:href="#DejaVuSans-31" transform="translate(301.953125 0)"/>
     </g>
    </g>
    <g id="line2d_20">
     <path d="M 314.570312 49.654687 
L 314.570312 49.654687 
L 324.570312 49.654687 
L 324.570312 49.654687 
L 334.570312 49.654687 
" style="fill: none; stroke: #2ca02c; stroke-width: 1.5; stroke-linecap: square"/>
    </g>
    <g id="text_19">
     <!-- pulse:2 -->
     <g transform="translate(342.570312 53.154687) scale(0.1 -0.1)">
      <use xlink:href="#DejaVuSans-70"/>
      <use xlink:href="#DejaVuSans-75" transform="translate(63.476562 0)"/>
      <use xlink:href="#DejaVuSans-6c" transform="translate(126.855469 0)"/>
      <use xlink:href="#DejaVuSans-73" transform="translate(154.638672 0)"/>
      <use xlink:href="#DejaVuSans-65" transform="translate(206.738281 0)"/>
      <use xlink:href="#DejaVuSans-3a" transform="translate(268.261719 0)"/>
      <use xlink:href="#DejaVuSans-32" transform="translate(301.953125 0)"/>
     </g>
    </g>
   </g>
  </g>
 </g>
 <defs>
  <clipPath id="p518effbcb9">
   <rect x="53.328125" y="7.2" width="334.8" height="221.76"/>
  </clipPath>
 </defs>
</svg>
