<?xml version="1.0" encoding="utf-8" standalone="no"?>
<!DOCTYPE svg PUBLIC "-//W3C//DTD SVG 1.1//EN"
  "http://www.w3.org/Graphics/SVG/1.1/DTD/svg11.dtd">
<svg xmlns:xlink="http://www.w3.org/1999/xlink" width="395.328125pt" height="266.51625pt" viewBox="0 0 395.328125 266.51625" xmlns="http://www.w3.org/2000/svg" version="1.1">
 <metadata>
  <rdf:RDF xmlns:dc="http://purl.org/dc/elements/1.1/" xmlns:cc="http://creativecommons.org/ns#" xmlns:rdf="http://www.w3.org/1999/02/22-rdf-syntax-ns#">
   <cc:Work>
    <dc:type rdf:resource="http://purl.org/dc/dcmitype/StillImage"/>
    <dc:date>2026-06-24T08:33:42.998168</dc:date>
    <dc:format>image/svg+xml</dc:format>
    <dc:creator>
     <cc:Agent>
      <dc:title>Matplotlib v3.10.9, https://matplotlib.org/</dc:title>
     </cc:Agent>
    </dc:creator>
   </cc:Work>
  </rdf:RDF>
 </metadata>
 <defs>
  <style type="text/css">*{stroke-linejoin: round; stroke-linecap: butt}</style>
 </defs>
 <g id="figure_1">
  <g id="patch_1">
   <path d="M 0 266.51625 
L 395.328125 266.51625 
L 395.328125 0 
L 0 0 
z
" style="fill: #ffffff"/>
  </g>
  <g id="axes_1">
   <g id="patch_2">
    <path d="M 53.328125 228.96 
L 388.128125 228.96 
L 388.128125 7.2 
L 53.328125 7.2 
z
" style="fill: #ffffff"/>
   </g>
   <g id="matplotlib.axis_1">
    <g id="xtick_1">
     <g id="line2d_1">
      <defs>
       <path id="mbd702b9771" d="M 0 0 
L 0 3.5 
" style="stroke: #000000; stroke-width: 0.8"/>
      </defs>
      <g>
       <use xlink:href="#mbd702b9771" x="98.36645" y="228.96" style="stroke: #000000; stroke-width: 0.8"/>
      </g>
     </g>
     <g id="text_1">
      <!-- 50000 -->
      <g transform="translate(82.4602 243.558437) scale(0.1 -0.1)">
       <defs>
        <path id="DejaVuSans-35" d="M 691 4666 
L 3169 4666 
L 3169 4134 
L 1269 4134 
L 1269 2991 
Q 1406 3038 1543 3061 
Q 1681 3084 1819 3084 
Q 2600 3084 3056 2656 
Q 3513 2228 3513 1497 
Q 3513 744 3044 326 
Q 2575 -91 1722 -91 
Q 1428 -91 1123 -41 
Q 819 9 494 109 
L 494 744 
Q 775 591 1075 516 
Q 1375 441 1709 441 
Q 2250 441 2565 725 
Q 2881 1009 2881 1497 
Q 2881 1984 2565 2268 
Q 2250 2553 1709 2553 
Q 1456 2553 1204 2497 
Q 953 2441 691 2322 
L 691 4666 
z
" transform="scale(0.015625)"/>
        <path id="DejaVuSans-30" d="M 2034 4250 
Q 1547 4250 1301 3770 
Q 1056 3291 1056 2328 
Q 1056 1369 1301 889 
Q 1547 409 2034 409 
Q 2525 409 2770 889 
Q 3016 1369 3016 2328 
Q 3016 3291 2770 3770 
Q 2525 4250 2034 4250 
z
M 2034 4750 
Q 2819 4750 3233 4129 
Q 3647 3509 3647 2328 
Q 3647 1150 3233 529 
Q 2819 -91 2034 -91 
Q 1250 -91 836 529 
Q 422 1150 422 2328 
Q 422 3509 836 4129 
Q 1250 4750 2034 4750 
z
" transform="scale(0.015625)"/>
       </defs>
       <use xlink:href="#DejaVuSans-35"/>
       <use xlink:href="#DejaVuSans-30" transform="translate(63.623047 0)"/>
       <use xlink:href="#DejaVuSans-30" transform="translate(127.246094 0)"/>
       <use xlink:href="#DejaVuSans-30" transform="translate(190.869141 0)"/>
       <use xlink:href="#DejaVuSans-30" transform="translate(254.492188 0)"/>
      </g>
     </g>
    </g>
    <g id="xtick_2">
     <g id="line2d_2">
      <g>
       <use xlink:href="#mbd702b9771" x="159.53509" y="228.96" style="stroke: #000000; stroke-width: 0.8"/>
      </g>
     </g>
     <g id="text_2">
      <!-- 100000 -->
      <g transform="translate(140.44759 243.558437) scale(0.1 -0.1)">
       <defs>
        <path id="DejaVuSans-31" d="M 794 531 
L 1825 531 
L 1825 4091 
L 703 3866 
L 703 4441 
L 1819 4666 
L 2450 4666 
L 2450 531 
L 3481 531 
L 3481 0 
L 794 0 
L 794 531 
z
" transform="scale(0.015625)"/>
       </defs>
       <use xlink:href="#DejaVuSans-31"/>
       <use xlink:href="#DejaVuSans-30" transform="translate(63.623047 0)"/>
       <use xlink:href="#DejaVuSans-30" transform="translate(127.246094 0)"/>
       <use xlink:href="#DejaVuSans-30" transform="translate(190.869141 0)"/>
       <use xlink:href="#DejaVuSans-30" transform="translate(254.492188 0)"/>
       <use xlink:href="#DejaVuSans-30" transform="translate(318.115234 0)"/>
      </g>
     </g>
    </g>
    <g id="xtick_3">
     <g id="line2d_3">
      <g>
       <use xlink:href="#mbd702b9771" x="220.70373" y="228.96" style="stroke: #000000; stroke-width: 0.8"/>
      </g>
     </g>
     <g id="text_3">
      <!-- 150000 -->
      <g transform="translate(201.61623 243.558437) scale(0.1 -0.1)">
       <use xlink:href="#DejaVuSans-31"/>
       <use xlink:href="#DejaVuSans-35" transform="translate(63.623047 0)"/>
       <use xlink:href="#DejaVuSans-30" transform="translate(127.246094 0)"/>
       <use xlink:href="#DejaVuSans-30" transform="translate(190.869141 0)"/>
       <use xlink:href="#DejaVuSans-30" transform="translate(254.492188 0)"/>
       <use xlink:href="#DejaVuSans-30" transform="translate(318.115234 0)"/>
      </g>
     </g>
    </g>
    <g id="xtick_4">
     <g id="line2d_4">
      <g>
       <use xlink:href="#mbd702b9771" x="281.87237" y="228.96" style="stroke: #000000; stroke-width: 0.8"/>
      </g>
     </g>
     <g id="text_4">
      <!-- 200000 -->
      <g transform="translate(262.78487 243.558437) scale(0.1 -0.1)">
       <defs>
        <path id="DejaVuSans-32" d="M 1228 531 
L 3431 531 
L 3431 0 
L 469 0 
L 469 531 
Q 828 903 1448 1529 
Q 2069 2156 2228 2338 
Q 2531 2678 2651 2914 
Q 2772 3150 2772 3378 
Q 2772 3750 2511 3984 
Q 2250 4219 1831 4219 
Q 1534 4219 1204 4116 
Q 875 4013 500 3803 
L 500 4441 
Q 881 4594 1212 4672 
Q 1544 4750 1819 4750 
Q 2544 4750 2975 4387 
Q 3406 4025 3406 3419 
Q 3406 3131 3298 2873 
Q 3191 2616 2906 2266 
Q 2828 2175 2409 1742 
Q 1991 1309 1228 531 
z
" transform="scale(0.015625)"/>
       </defs>
       <use xlink:href="#DejaVuSans-32"/>
       <use xlink:href="#DejaVuSans-30" transform="translate(63.623047 0)"/>
       <use xlink:href="#DejaVuSans-30" transform="translate(127.246094 0)"/>
       <use xlink:href="#DejaVuSans-30" transform="translate(190.869141 0)"/>
       <use xlink:href="#DejaVuSans-30" transform="translate(254.492188 0)"/>
       <use xlink:href="#DejaVuSans-30" transform="translate(318.115234 0)"/>
      </g>
     </g>
    </g>
    <g id="xtick_5">
     <g id="line2d_5">
      <g>
       <use xlink:href="#mbd702b9771" x="343.04101" y="228.96" style="stroke: #000000; stroke-width: 0.8"/>
      </g>
     </g>
     <g id="text_5">
      <!-- 250000 -->
      <g transform="translate(323.95351 243.558437) scale(0.1 -0.1)">
       <use xlink:href="#DejaVuSans-32"/>
       <use xlink:href="#DejaVuSans-35" transform="translate(63.623047 0)"/>
       <use xlink:href="#DejaVuSans-30" transform="translate(127.246094 0)"/>
       <use xlink:href="#DejaVuSans-30" transform="translate(190.869141 0)"/>
       <use xlink:href="#DejaVuSans-30" transform="translate(254.492188 0)"/>
       <use xlink:href="#DejaVuSans-30" transform="translate(318.115234 0)"/>
      </g>
     </g>
    </g>
    <g id="text_6">
     <!-- toa [µs] -->
     <g transform="translate(201.367969 257.236562) scale(0.1 -0.1)">
      <defs>
       <path id="DejaVuSans-74" d="M 1172 4494 
L 1172 3500 
L 2356 3500 
L 2356 3053 
L 1172 3053 
L 1172 1153 
Q 1172 725 1289 603 
Q 1406 481 1766 481 
L 2356 481 
L 2356 0 
L 1766 0 
Q 1100 0 847 248 
Q 594 497 594 1153 
L 594 3053 
L 172 3053 
L 172 3500 
L 594 3500 
L 594 4494 
L 1172 4494 
z
" transform="scale(0.015625)"/>
       <path id="DejaVuSans-6f" d="M 1959 3097 
Q 1497 3097 1228 2736 
Q 959 2375 959 1747 
Q 959 1119 1226 758 
Q 1494 397 1959 397 
Q 2419 397 2687 759 
Q 2956 1122 2956 1747 
Q 2956 2369 2687 2733 
Q 2419 3097 1959 3097 
z
M 1959 3584 
Q 2709 3584 3137 3096 
Q 3566 2609 3566 1747 
Q 3566 888 3137 398 
Q 2709 -91 1959 -91 
Q 1206 -91 779 398 
Q 353 888 353 1747 
Q 353 2609 779 3096 
Q 1206 3584 1959 3584 
z
" transform="scale(0.015625)"/>
       <path id="DejaVuSans-61" d="M 2194 1759 
Q 1497 1759 1228 1600 
Q 959 1441 959 1056 
Q 959 750 1161 570 
Q 1363 391 1709 391 
Q 2188 391 2477 730 
Q 2766 1069 2766 1631 
L 2766 1759 
L 2194 1759 
z
M 3341 1997 
L 3341 0 
L 2766 0 
L 2766 531 
Q 2569 213 2275 61 
Q 1981 -91 1556 -91 
Q 1019 -91 701 211 
Q 384 513 384 1019 
Q 384 1609 779 1909 
Q 1175 2209 1959 2209 
L 2766 2209 
L 2766 2266 
Q 2766 2663 2505 2880 
Q 2244 3097 1772 3097 
Q 1472 3097 1187 3025 
Q 903 2953 641 2809 
L 641 3341 
Q 956 3463 1253 3523 
Q 1550 3584 1831 3584 
Q 2591 3584 2966 3190 
Q 3341 2797 3341 1997 
z
" transform="scale(0.015625)"/>
       <path id="DejaVuSans-20" transform="scale(0.015625)"/>
       <path id="DejaVuSans-5b" d="M 550 4863 
L 1875 4863 
L 1875 4416 
L 1125 4416 
L 1125 -397 
L 1875 -397 
L 1875 -844 
L 550 -844 
L 550 4863 
z
" transform="scale(0.015625)"/>
       <path id="DejaVuSans-b5" d="M 544 -1331 
L 544 3500 
L 1119 3500 
L 1119 1325 
Q 1119 872 1334 640 
Q 1550 409 1972 409 
Q 2434 409 2667 671 
Q 2900 934 2900 1459 
L 2900 3500 
L 3475 3500 
L 3475 806 
Q 3475 619 3529 530 
Q 3584 441 3700 441 
Q 3728 441 3778 458 
Q 3828 475 3916 513 
L 3916 50 
Q 3788 -22 3673 -56 
Q 3559 -91 3450 -91 
Q 3234 -91 3106 31 
Q 2978 153 2931 403 
Q 2775 156 2548 32 
Q 2322 -91 2016 -91 
Q 1697 -91 1473 31 
Q 1250 153 1119 397 
L 1119 -1331 
L 544 -1331 
z
" transform="scale(0.015625)"/>
       <path id="DejaVuSans-73" d="M 2834 3397 
L 2834 2853 
Q 2591 2978 2328 3040 
Q 2066 3103 1784 3103 
Q 1356 3103 1142 2972 
Q 928 2841 928 2578 
Q 928 2378 1081 2264 
Q 1234 2150 1697 2047 
L 1894 2003 
Q 2506 1872 2764 1633 
Q 3022 1394 3022 966 
Q 3022 478 2636 193 
Q 2250 -91 1575 -91 
Q 1294 -91 989 -36 
Q 684 19 347 128 
L 347 722 
Q 666 556 975 473 
Q 1284 391 1588 391 
Q 1994 391 2212 530 
Q 2431 669 2431 922 
Q 2431 1156 2273 1281 
Q 2116 1406 1581 1522 
L 1381 1569 
Q 847 1681 609 1914 
Q 372 2147 372 2553 
Q 372 3047 722 3315 
Q 1072 3584 1716 3584 
Q 2034 3584 2315 3537 
Q 2597 3491 2834 3397 
z
" transform="scale(0.015625)"/>
       <path id="DejaVuSans-5d" d="M 1947 4863 
L 1947 -844 
L 622 -844 
L 622 -397 
L 1369 -397 
L 1369 4416 
L 622 4416 
L 622 4863 
L 1947 4863 
z
" transform="scale(0.015625)"/>
      </defs>
      <use xlink:href="#DejaVuSans-74"/>
      <use xlink:href="#DejaVuSans-6f" transform="translate(39.208984 0)"/>
      <use xlink:href="#DejaVuSans-61" transform="translate(100.390625 0)"/>
      <use xlink:href="#DejaVuSans-20" transform="translate(161.669922 0)"/>
      <use xlink:href="#DejaVuSans-5b" transform="translate(193.457031 0)"/>
      <use xlink:href="#DejaVuSans-b5" transform="translate(232.470703 0)"/>
      <use xlink:href="#DejaVuSans-73" transform="translate(296.09375 0)"/>
      <use xlink:href="#DejaVuSans-5d" transform="translate(348.193359 0)"/>
     </g>
    </g>
   </g>
   <g id="matplotlib.axis_2">
    <g id="ytick_1">
     <g id="line2d_6">
      <defs>
       <path id="meedce7a2e6" d="M 0 0 
L -3.5 0 
" style="stroke: #000000; stroke-width: 0.8"/>
      </defs>
      <g>
       <use xlink:href="#meedce7a2e6" x="53.328125" y="218.88" style="stroke: #000000; stroke-width: 0.8"/>
      </g>
     </g>
     <g id="text_7">
      <!-- 0 -->
      <g transform="translate(39.965625 222.679219) scale(0.1 -0.1)">
       <use xlink:href="#DejaVuSans-30"/>
      </g>
     </g>
    </g>
    <g id="ytick_2">
     <g id="line2d_7">
      <g>
       <use xlink:href="#meedce7a2e6" x="53.328125" y="169.709268" style="stroke: #000000; stroke-width: 0.8"/>
      </g>
     </g>
     <g id="text_8">
      <!-- 500 -->
      <g transform="translate(27.240625 173.508487) scale(0.1 -0.1)">
       <use xlink:href="#DejaVuSans-35"/>
       <use xlink:href="#DejaVuSans-30" transform="translate(63.623047 0)"/>
       <use xlink:href="#DejaVuSans-30" transform="translate(127.246094 0)"/>
      </g>
     </g>
    </g>
    <g id="ytick_3">
     <g id="line2d_8">
      <g>
       <use xlink:href="#meedce7a2e6" x="53.328125" y="120.538537" style="stroke: #000000; stroke-width: 0.8"/>
      </g>
     </g>
     <g id="text_9">
      <!-- 1000 -->
      <g transform="translate(20.878125 124.337755) scale(0.1 -0.1)">
       <use xlink:href="#DejaVuSans-31"/>
       <use xlink:href="#DejaVuSans-30" transform="translate(63.623047 0)"/>
       <use xlink:href="#DejaVuSans-30" transform="translate(127.246094 0)"/>
       <use xlink:href="#DejaVuSans-30" transform="translate(190.869141 0)"/>
      </g>
     </g>
    </g>
    <g id="ytick_4">
     <g id="line2d_9">
      <g>
       <use xlink:href="#meedce7a2e6" x="53.328125" y="71.367805" style="stroke: #000000; stroke-width: 0.8"/>
      </g>
     </g>
     <g id="text_10">
      <!-- 1500 -->
      <g transform="translate(20.878125 75.167024) scale(0.1 -0.1)">
       <use xlink:href="#DejaVuSans-31"/>
       <use xlink:href="#DejaVuSans-35" transform="translate(63.623047 0)"/>
       <use xlink:href="#DejaVuSans-30" transform="translate(127.246094 0)"/>
       <use xlink:href="#DejaVuSans-30" transform="translate(190.869141 0)"/>
      </g>
     </g>
    </g>
    <g id="ytick_5">
     <g id="line2d_10">
      <g>
       <use xlink:href="#meedce7a2e6" x="53.328125" y="22.197073" style="stroke: #000000; stroke-width: 0.8"/>
      </g>
     </g>
     <g id="text_11">
      <!-- 2000 -->
      <g transform="translate(20.878125 25.996292) scale(0.1 -0.1)">
       <use xlink:href="#DejaVuSans-32"/>
       <use xlink:href="#DejaVuSans-30" transform="translate(63.623047 0)"/>
       <use xlink:href="#DejaVuSans-30" transform="translate(127.246094 0)"/>
       <use xlink:href="#DejaVuSans-30" transform="translate(190.869141 0)"/>
      </g>
     </g>
    </g>
    <g id="text_12">
     <!-- [counts] -->
     <g transform="translate(14.798438 138.6925) rotate(-90) scale(0.1 -0.1)">
      <defs>
       <path id="DejaVuSans-63" d="M 3122 3366 
L 3122 2828 
Q 2878 2963 2633 3030 
Q 2388 3097 2138 3097 
Q 1578 3097 1268 2742 
Q 959 2388 959 1747 
Q 959 1106 1268 751 
Q 1578 397 2138 397 
Q 2388 397 2633 464 
Q 2878 531 3122 666 
L 3122 134 
Q 2881 22 2623 -34 
Q 2366 -91 2075 -91 
Q 1284 -91 818 406 
Q 353 903 353 1747 
Q 353 2603 823 3093 
Q 1294 3584 2113 3584 
Q 2378 3584 2631 3529 
Q 2884 3475 3122 3366 
z
" transform="scale(0.015625)"/>
       <path id="DejaVuSans-75" d="M 544 1381 
L 544 3500 
L 1119 3500 
L 1119 1403 
Q 1119 906 1312 657 
Q 1506 409 1894 409 
Q 2359 409 2629 706 
Q 2900 1003 2900 1516 
L 2900 3500 
L 3475 3500 
L 3475 0 
L 2900 0 
L 2900 538 
Q 2691 219 2414 64 
Q 2138 -91 1772 -91 
Q 1169 -91 856 284 
Q 544 659 544 1381 
z
M 1991 3584 
L 1991 3584 
z
" transform="scale(0.015625)"/>
       <path id="DejaVuSans-6e" d="M 3513 2113 
L 3513 0 
L 2938 0 
L 2938 2094 
Q 2938 2591 2744 2837 
Q 2550 3084 2163 3084 
Q 1697 3084 1428 2787 
Q 1159 2491 1159 1978 
L 1159 0 
L 581 0 
L 581 3500 
L 1159 3500 
L 1159 2956 
Q 1366 3272 1645 3428 
Q 1925 3584 2291 3584 
Q 2894 3584 3203 3211 
Q 3513 2838 3513 2113 
z
" transform="scale(0.015625)"/>
      </defs>
      <use xlink:href="#DejaVuSans-5b"/>
      <use xlink:href="#DejaVuSans-63" transform="translate(39.013672 0)"/>
      <use xlink:href="#DejaVuSans-6f" transform="translate(93.994141 0)"/>
      <use xlink:href="#DejaVuSans-75" transform="translate(155.175781 0)"/>
      <use xlink:href="#DejaVuSans-6e" transform="translate(218.554688 0)"/>
      <use xlink:href="#DejaVuSans-74" transform="translate(281.933594 0)"/>
      <use xlink:href="#DejaVuSans-73" transform="translate(321.142578 0)"/>
      <use xlink:href="#DejaVuSans-5d" transform="translate(373.242188 0)"/>
     </g>
    </g>
   </g>
   <g id="line2d_11">
    <path d="M 60.58534 169.020878 
L 61.069155 169.020878 
L 61.069155 94.478049 
L 61.552969 94.478049 
L 61.552969 91.331122 
L 62.036783 91.331122 
L 62.036783 75.10478 
L 62.520598 75.10478 
L 62.520598 66.942439 
L 63.004412 66.942439 
L 63.004412 49.240976 
L 63.488226 49.240976 
L 63.488226 34.293073 
L 63.972041 34.293073 
L 63.972041 19.443512 
L 64.455855 19.443512 
L 64.455855 18.853463 
L 64.939669 18.853463 
L 64.939669 17.28 
L 65.423484 17.28 
L 65.423484 25.245659 
L 65.907298 25.245659 
L 65.907298 30.556098 
L 66.391112 30.556098 
L 66.391112 30.75278 
L 66.874927 30.75278 
L 66.874927 46.19239 
L 67.358741 46.19239 
L 67.358741 62.222049 
L 67.842555 62.222049 
L 67.842555 76.38322 
L 68.32637 76.38322 
L 68.32637 100.476878 
L 68.810184 100.476878 
L 68.810184 122.210341 
L 69.293998 122.210341 
L 69.293998 132.83122 
L 69.777813 132.83122 
L 69.777813 163.415415 
L 70.261627 163.415415 
L 70.261627 176.003122 
L 70.745441 176.003122 
L 70.745441 193.704585 
L 71.229256 193.704585 
L 71.229256 210.816 
L 71.71307 210.816 
L 71.71307 218.19161 
L 72.196884 218.19161 
L 72.196884 218.88 
L 73.648327 218.88 
L 73.648327 217.601561 
L 74.132142 217.601561 
L 74.132142 174.232976 
L 74.615956 174.232976 
L 74.615956 103.32878 
L 75.09977 103.32878 
L 75.09977 81.300293 
L 75.583585 81.300293 
L 75.583585 95.658146 
L 76.067399 95.658146 
L 76.067399 91.23278 
L 76.551214 91.23278 
L 76.551214 96.936585 
L 77.035028 96.936585 
L 77.035028 102.443707 
L 77.518842 102.443707 
L 77.518842 108.737561 
L 78.002657 108.737561 
L 78.002657 106.967415 
L 78.486471 106.967415 
L 78.486471 111.294439 
L 78.970285 111.294439 
L 78.970285 113.261268 
L 79.4541 113.261268 
L 79.4541 114.638049 
L 79.937914 114.638049 
L 79.937914 118.965073 
L 80.421728 118.965073 
L 80.421728 127.225756 
L 80.905543 127.225756 
L 80.905543 134.208 
L 81.389357 134.208 
L 81.389357 133.716293 
L 81.873171 133.716293 
L 81.873171 134.503024 
L 82.356986 134.503024 
L 82.356986 143.943805 
L 82.8408 143.943805 
L 82.8408 145.222244 
L 83.324614 145.222244 
L 83.324614 156.334829 
L 83.808429 156.334829 
L 83.808429 166.759024 
L 84.292243 166.759024 
L 84.292243 177.674927 
L 84.776057 177.674927 
L 84.776057 185.443902 
L 85.259872 185.443902 
L 85.259872 200.883512 
L 85.743686 200.883512 
L 85.743686 210.717659 
L 86.2275 210.717659 
L 86.2275 216.323122 
L 86.711315 216.323122 
L 86.711315 211.307707 
L 87.195129 211.307707 
L 87.195129 184.165463 
L 87.678943 184.165463 
L 87.678943 158.695024 
L 88.162758 158.695024 
L 88.162758 147.877463 
L 88.646572 147.877463 
L 88.646572 149.942634 
L 89.130386 149.942634 
L 89.130386 152.499512 
L 89.614201 152.499512 
L 89.614201 154.761366 
L 90.098015 154.761366 
L 90.098015 160.071805 
L 90.581829 160.071805 
L 90.581829 159.580098 
L 91.065644 159.580098 
L 91.065644 164.005463 
L 91.549458 164.005463 
L 91.549458 161.350244 
L 92.033273 161.350244 
L 92.033273 169.414244 
L 92.517087 169.414244 
L 92.517087 170.791024 
L 93.000901 170.791024 
L 93.000901 173.741268 
L 93.484716 173.741268 
L 93.484716 179.740098 
L 93.96853 179.740098 
L 93.96853 184.460488 
L 94.452344 184.460488 
L 94.452344 187.902439 
L 94.936159 187.902439 
L 94.936159 195.966439 
L 95.419973 195.966439 
L 95.419973 195.474732 
L 95.903787 195.474732 
L 95.903787 200.391805 
L 96.387602 200.391805 
L 96.387602 202.358634 
L 96.871416 202.358634 
L 96.871416 210.619317 
L 97.35523 210.619317 
L 97.35523 213.176195 
L 97.839045 213.176195 
L 97.839045 217.404878 
L 98.322859 217.404878 
L 98.322859 212.291122 
L 98.806673 212.291122 
L 98.806673 199.211707 
L 99.290488 199.211707 
L 99.290488 187.509073 
L 100.258116 187.509073 
L 100.258116 192.03278 
L 101.225745 192.131122 
L 101.225745 193.114537 
L 101.709559 193.114537 
L 101.709559 198.72 
L 102.193374 198.72 
L 102.193374 201.37522 
L 102.677188 201.37522 
L 102.677188 202.358634 
L 103.161002 202.358634 
L 103.161002 204.718829 
L 103.644817 204.718829 
L 103.644817 202.948683 
L 104.128631 202.948683 
L 104.128631 207.865756 
L 104.612445 207.865756 
L 104.612445 209.734244 
L 105.09626 209.734244 
L 105.09626 209.930927 
L 105.580074 209.930927 
L 105.580074 212.782829 
L 106.063889 212.782829 
L 106.063889 214.552976 
L 107.031517 214.552976 
L 107.031517 215.438049 
L 107.515332 215.438049 
L 107.515332 217.50322 
L 107.999146 217.50322 
L 107.999146 218.093268 
L 108.48296 218.093268 
L 108.48296 218.781659 
L 109.450589 218.781659 
L 109.450589 215.339707 
L 109.934403 215.339707 
L 109.934403 209.144195 
L 110.418218 209.144195 
L 110.418218 204.423805 
L 111.385846 204.325463 
L 111.385846 207.669073 
L 111.869661 207.669073 
L 111.869661 205.898927 
L 112.353475 205.898927 
L 112.353475 208.554146 
L 112.837289 208.554146 
L 112.837289 209.242537 
L 113.321104 209.242537 
L 113.321104 211.406049 
L 113.804918 211.406049 
L 113.804918 212.19278 
L 114.288732 212.19278 
L 114.288732 211.111024 
L 114.772547 211.111024 
L 114.772547 213.176195 
L 115.256361 213.176195 
L 115.256361 214.454634 
L 115.740175 214.454634 
L 115.740175 215.241366 
L 116.22399 215.241366 
L 116.22399 216.028098 
L 116.707804 216.028098 
L 116.707804 216.913171 
L 117.191618 216.913171 
L 117.191618 217.601561 
L 117.675433 217.601561 
L 117.675433 217.798244 
L 118.159247 217.798244 
L 118.159247 218.388293 
L 118.643061 218.388293 
L 118.643061 218.584976 
L 119.126876 218.584976 
L 119.126876 218.88 
L 120.094504 218.88 
L 120.094504 218.19161 
L 120.578319 218.19161 
L 120.578319 215.438049 
L 121.062133 215.438049 
L 121.062133 210.816 
L 121.545948 210.816 
L 121.545948 208.062439 
L 122.029762 208.062439 
L 122.029762 202.358634 
L 122.513576 202.358634 
L 122.513576 202.948683 
L 122.997391 202.948683 
L 122.997391 199.998439 
L 123.481205 199.998439 
L 123.481205 203.342049 
L 123.965019 203.342049 
L 123.965019 204.620488 
L 124.932648 204.718829 
L 124.932648 205.898927 
L 125.416462 205.898927 
L 125.416462 205.112195 
L 125.900277 205.112195 
L 125.900277 207.275707 
L 126.384091 207.275707 
L 126.384091 204.817171 
L 126.867905 204.817171 
L 126.867905 207.570732 
L 127.35172 207.570732 
L 127.35172 210.225951 
L 127.835534 210.225951 
L 127.835534 208.652488 
L 128.319348 208.652488 
L 128.319348 211.996098 
L 128.803163 211.996098 
L 128.803163 211.50439 
L 129.286977 211.50439 
L 129.286977 212.487805 
L 129.770791 212.487805 
L 129.770791 214.848 
L 130.254606 214.848 
L 130.254606 215.53639 
L 130.73842 215.53639 
L 130.73842 218.093268 
L 131.222234 218.093268 
L 131.222234 218.683317 
L 131.706049 218.683317 
L 131.706049 218.88 
L 193.634285 218.88 
L 193.634285 218.584976 
L 194.118099 218.584976 
L 194.118099 218.88 
L 198.472428 218.88 
L 198.472428 218.584976 
L 199.440057 218.683317 
L 199.440057 218.88 
L 200.407686 218.88 
L 200.407686 218.388293 
L 200.8915 218.388293 
L 200.8915 218.683317 
L 201.375314 218.683317 
L 201.375314 218.388293 
L 202.342943 218.486634 
L 202.342943 218.584976 
L 205.729643 218.486634 
L 205.729643 218.486634 
" clip-path="url(#p9467d13ab5)" style="fill: none; stroke: #1f77b4; stroke-width: 1.5; stroke-linecap: square"/>
   </g>
   <g id="line2d_12">
    <path d="M 147.971273 165.382244 
L 148.456113 165.382244 
L 148.456113 102.443707 
L 148.940952 102.443707 
L 148.940952 89.757659 
L 149.425792 89.757659 
L 149.425792 79.530146 
L 149.910632 79.530146 
L 149.910632 65.959024 
L 150.395472 65.959024 
L 150.395472 51.404488 
L 150.880312 51.404488 
L 150.880312 39.406829 
L 151.365152 39.406829 
L 151.365152 22.885463 
L 151.849992 22.885463 
L 151.849992 27.310829 
L 152.334832 27.310829 
L 152.334832 22.590439 
L 152.819672 22.590439 
L 152.819672 27.605854 
L 153.304512 27.605854 
L 153.304512 31.637854 
L 153.789352 31.637854 
L 153.789352 31.342829 
L 154.274192 31.342829 
L 154.274192 44.81561 
L 154.759032 44.81561 
L 154.759032 59.566829 
L 155.243872 59.566829 
L 155.243872 85.824 
L 155.728712 85.824 
L 155.728712 108.835902 
L 156.213552 108.835902 
L 156.213552 119.850146 
L 156.698392 119.850146 
L 156.698392 137.158244 
L 157.183232 137.158244 
L 157.183232 164.103805 
L 157.668072 164.103805 
L 157.668072 181.411902 
L 158.152912 181.411902 
L 158.152912 198.326634 
L 158.637752 198.326634 
L 158.637752 210.520976 
L 159.122592 210.520976 
L 159.122592 217.896585 
L 159.607432 217.896585 
L 159.607432 218.88 
L 161.061952 218.88 
L 161.061952 216.814829 
L 161.546792 216.814829 
L 161.546792 163.12039 
L 162.031632 163.12039 
L 162.031632 95.461463 
L 162.516472 95.461463 
L 162.516472 84.545561 
L 163.001312 84.545561 
L 163.001312 94.478049 
L 163.486152 94.478049 
L 163.486152 98.018341 
L 163.970992 98.018341 
L 163.970992 100.968585 
L 164.455832 100.968585 
L 164.455832 105.787317 
L 164.940672 105.787317 
L 164.940672 109.032585 
L 165.425512 109.032585 
L 165.425512 108.147512 
L 165.910352 108.147512 
L 165.910352 113.752976 
L 166.395192 113.752976 
L 166.395192 120.73522 
L 166.880032 120.73522 
L 166.880032 121.816976 
L 167.364872 121.816976 
L 167.364872 120.145171 
L 167.849712 120.145171 
L 167.849712 123.292098 
L 168.334552 123.292098 
L 168.334552 130.86439 
L 168.819392 130.86439 
L 168.819392 136.764878 
L 169.304232 136.764878 
L 169.304232 133.912976 
L 169.789072 133.912976 
L 169.789072 145.812293 
L 170.273911 145.812293 
L 170.273911 140.305171 
L 170.758751 140.305171 
L 170.758751 152.99122 
L 171.243591 152.99122 
L 171.243591 167.84078 
L 171.728431 167.84078 
L 171.728431 176.003122 
L 172.213271 176.003122 
L 172.213271 194.196293 
L 172.698111 194.196293 
L 172.698111 201.080195 
L 173.182951 201.080195 
L 173.182951 210.12761 
L 173.667791 210.12761 
L 173.667791 217.699902 
L 174.152631 217.699902 
L 174.152631 208.554146 
L 174.637471 208.554146 
L 174.637471 181.018537 
L 175.122311 181.018537 
L 175.122311 155.74478 
L 175.607151 155.74478 
L 175.607151 146.795707 
L 176.091991 146.795707 
L 176.091991 149.549268 
L 176.576831 149.549268 
L 176.576831 155.154732 
L 177.061671 155.154732 
L 177.061671 153.187902 
L 177.546511 153.187902 
L 177.546511 158.4 
L 178.031351 158.4 
L 178.031351 160.858537 
L 178.516191 160.858537 
L 178.516191 161.940293 
L 179.001031 161.940293 
L 179.001031 165.972293 
L 179.485871 165.972293 
L 179.485871 169.11922 
L 179.970711 169.11922 
L 179.970711 171.577756 
L 180.455551 171.577756 
L 180.455551 176.986537 
L 180.940391 176.986537 
L 180.940391 183.477073 
L 181.910071 183.378732 
L 181.910071 189.869268 
L 182.394911 189.869268 
L 182.394911 193.704585 
L 182.879751 193.704585 
L 182.879751 198.326634 
L 183.364591 198.326634 
L 183.364591 199.998439 
L 183.849431 199.998439 
L 183.849431 207.275707 
L 184.334271 207.275707 
L 184.334271 210.029268 
L 184.819111 210.029268 
L 184.819111 215.241366 
L 185.303951 215.241366 
L 185.303951 217.896585 
L 185.788791 217.896585 
L 185.788791 209.832585 
L 186.273631 209.832585 
L 186.273631 197.539902 
L 186.758471 197.539902 
L 186.758471 186.525659 
L 187.243311 186.525659 
L 187.243311 188.885854 
L 187.728151 188.885854 
L 187.728151 191.541073 
L 188.212991 191.541073 
L 188.212991 189.770927 
L 188.697831 189.770927 
L 188.697831 197.146537 
L 189.182671 197.146537 
L 189.182671 199.40839 
L 189.667511 199.40839 
L 189.667511 196.851512 
L 190.152351 196.851512 
L 190.152351 203.047024 
L 190.637191 203.047024 
L 190.637191 205.112195 
L 191.122031 205.112195 
L 191.122031 204.423805 
L 191.606871 204.423805 
L 191.606871 206.882341 
L 192.09171 206.882341 
L 192.09171 208.455805 
L 192.57655 208.455805 
L 192.57655 212.19278 
L 193.06139 212.19278 
L 193.06139 212.782829 
L 193.54623 212.782829 
L 193.54623 213.569561 
L 194.03107 213.569561 
L 194.03107 214.946341 
L 194.51591 214.946341 
L 194.51591 215.929756 
L 195.00075 215.929756 
L 195.00075 217.798244 
L 195.48559 217.798244 
L 195.48559 218.19161 
L 195.97043 218.19161 
L 195.97043 218.781659 
L 196.45527 218.781659 
L 196.45527 218.388293 
L 196.94011 218.388293 
L 196.94011 213.372878 
L 197.42495 213.372878 
L 197.42495 209.537561 
L 197.90979 209.537561 
L 197.90979 202.456976 
L 198.39463 202.456976 
L 198.39463 204.423805 
L 198.87947 204.423805 
L 198.87947 207.374049 
L 199.36431 207.374049 
L 199.36431 206.292293 
L 199.84915 206.292293 
L 199.84915 209.045854 
L 200.33399 209.045854 
L 200.33399 210.324293 
L 200.81883 210.324293 
L 200.81883 211.701073 
L 201.30367 211.701073 
L 201.30367 212.684488 
L 201.78851 212.684488 
L 201.78851 213.667902 
L 202.27335 213.667902 
L 202.27335 213.962927 
L 202.75819 213.962927 
L 202.75819 215.929756 
L 203.24303 215.929756 
L 203.24303 216.22478 
L 203.72787 216.22478 
L 203.72787 215.634732 
L 204.21271 215.634732 
L 204.21271 216.814829 
L 204.69755 216.814829 
L 204.69755 217.601561 
L 205.18239 217.601561 
L 205.18239 217.798244 
L 205.66723 217.798244 
L 205.66723 218.289951 
L 206.15207 218.289951 
L 206.15207 218.781659 
L 207.60659 218.781659 
L 207.60659 217.896585 
L 208.09143 217.896585 
L 208.09143 214.15961 
L 208.57627 214.15961 
L 208.57627 210.324293 
L 209.06111 210.324293 
L 209.06111 205.800585 
L 209.54595 205.800585 
L 209.54595 201.965268 
L 210.03079 201.965268 
L 210.03079 203.735415 
L 210.51563 203.735415 
L 210.51563 202.653659 
L 211.48531 202.752 
L 211.48531 204.030439 
L 211.97015 204.030439 
L 211.97015 202.456976 
L 212.45499 202.456976 
L 212.45499 204.620488 
L 212.93983 204.620488 
L 212.93983 206.09561 
L 213.42467 206.09561 
L 213.42467 204.522146 
L 213.909509 204.522146 
L 213.909509 206.292293 
L 214.394349 206.292293 
L 214.394349 207.47239 
L 214.879189 207.47239 
L 214.879189 209.832585 
L 215.848869 209.832585 
L 215.848869 210.816 
L 216.333709 210.816 
L 216.333709 212.979512 
L 216.818549 212.979512 
L 216.818549 214.749659 
L 217.303389 214.749659 
L 217.303389 215.438049 
L 217.788229 215.438049 
L 217.788229 217.109854 
L 218.273069 217.109854 
L 218.273069 218.781659 
L 287.605186 218.88 
L 287.605186 218.584976 
L 288.090026 218.584976 
L 288.090026 218.19161 
L 290.029386 218.093268 
L 290.029386 218.486634 
L 291.968746 218.584976 
L 291.968746 218.683317 
L 293.423266 218.683317 
L 293.423266 218.683317 
" clip-path="url(#p9467d13ab5)" style="fill: none; stroke: #ff7f0e; stroke-width: 1.5; stroke-linecap: square"/>
   </g>
   <g id="line2d_13">
    <path d="M 235.354407 161.350244 
L 235.839403 161.350244 
L 235.839403 93.297951 
L 236.324399 93.297951 
L 236.324399 87.004098 
L 236.809395 87.004098 
L 236.809395 76.874927 
L 237.294391 76.874927 
L 237.294391 70.581073 
L 237.779387 70.581073 
L 237.779387 55.633171 
L 238.264382 55.633171 
L 238.264382 33.998049 
L 238.749378 33.998049 
L 238.749378 22.787122 
L 239.234374 22.787122 
L 239.234374 22.492098 
L 240.204366 22.393756 
L 240.204366 21.607024 
L 240.689362 21.607024 
L 240.689362 33.014634 
L 241.174358 33.014634 
L 241.174358 34.78478 
L 241.659354 34.78478 
L 241.659354 42.455415 
L 242.14435 42.455415 
L 242.14435 69.00761 
L 242.629346 69.00761 
L 242.629346 72.056195 
L 243.114342 72.056195 
L 243.114342 101.656976 
L 243.599338 101.656976 
L 243.599338 123.783805 
L 244.084334 123.783805 
L 244.084334 143.157073 
L 244.56933 143.157073 
L 244.56933 160.661854 
L 245.054325 160.661854 
L 245.054325 179.24839 
L 245.539321 179.24839 
L 245.539321 195.671415 
L 246.024317 195.671415 
L 246.024317 211.111024 
L 246.509313 211.111024 
L 246.509313 218.388293 
L 246.994309 218.388293 
L 246.994309 218.88 
L 248.449297 218.88 
L 248.449297 216.421463 
L 248.934293 216.421463 
L 248.934293 158.695024 
L 249.419289 158.695024 
L 249.419289 93.986341 
L 249.904285 93.986341 
L 249.904285 91.23278 
L 250.389281 91.23278 
L 250.389281 98.215024 
L 250.874277 98.215024 
L 250.874277 94.478049 
L 251.359273 94.478049 
L 251.359273 102.148683 
L 251.844269 102.148683 
L 251.844269 107.655805 
L 252.329264 107.655805 
L 252.329264 99.591805 
L 252.81426 99.591805 
L 252.81426 112.376195 
L 253.299256 112.376195 
L 253.299256 114.933073 
L 253.784252 114.933073 
L 253.784252 115.719805 
L 254.269248 115.719805 
L 254.269248 120.046829 
L 254.754244 120.046829 
L 254.754244 123.685463 
L 255.23924 123.685463 
L 255.23924 122.997073 
L 255.724236 122.997073 
L 255.724236 128.504195 
L 256.209232 128.504195 
L 256.209232 134.011317 
L 256.694228 134.011317 
L 256.694228 137.059902 
L 257.179224 137.059902 
L 257.179224 142.862049 
L 257.66422 142.862049 
L 257.66422 148.467512 
L 258.149216 148.467512 
L 258.149216 151.614439 
L 258.634212 151.614439 
L 258.634212 165.578927 
L 259.119207 165.578927 
L 259.119207 176.691512 
L 259.604203 176.691512 
L 259.604203 190.656 
L 260.089199 190.656 
L 260.089199 202.653659 
L 260.574195 202.653659 
L 260.574195 210.12761 
L 261.059191 210.12761 
L 261.059191 216.814829 
L 261.544187 216.814829 
L 261.544187 209.734244 
L 262.029183 209.734244 
L 262.029183 179.445073 
L 262.514179 179.445073 
L 262.514179 147.090732 
L 262.999175 147.090732 
L 262.999175 152.696195 
L 263.484171 152.696195 
L 263.484171 150.729366 
L 263.969167 150.729366 
L 263.969167 152.007805 
L 264.454163 152.007805 
L 264.454163 155.05639 
L 264.939159 155.05639 
L 264.939159 156.334829 
L 265.909151 156.236488 
L 265.909151 160.170146 
L 266.394146 160.170146 
L 266.394146 164.890537 
L 266.879142 164.890537 
L 266.879142 172.069463 
L 267.364138 172.069463 
L 267.364138 173.446244 
L 267.849134 173.446244 
L 267.849134 178.855024 
L 268.33413 178.855024 
L 268.33413 183.28039 
L 268.819126 183.28039 
L 268.819126 186.230634 
L 269.304122 186.230634 
L 269.304122 191.147707 
L 269.789118 191.147707 
L 269.789118 193.212878 
L 270.274114 193.212878 
L 270.274114 197.146537 
L 270.75911 197.146537 
L 270.75911 202.358634 
L 271.244106 202.358634 
L 271.244106 204.030439 
L 271.729102 204.030439 
L 271.729102 210.029268 
L 272.214098 210.029268 
L 272.214098 213.766244 
L 272.699094 213.766244 
L 272.699094 216.913171 
L 273.184089 216.913171 
L 273.184089 209.832585 
L 273.669085 209.832585 
L 273.669085 196.458146 
L 274.154081 196.458146 
L 274.154081 188.197463 
L 274.639077 188.197463 
L 274.639077 191.147707 
L 275.124073 191.147707 
L 275.124073 191.34439 
L 275.609069 191.34439 
L 275.609069 195.37639 
L 276.094065 195.37639 
L 276.094065 194.983024 
L 276.579061 194.983024 
L 276.579061 197.048195 
L 277.064057 197.048195 
L 277.064057 199.801756 
L 277.549053 199.801756 
L 277.549053 201.768585 
L 278.034049 201.768585 
L 278.034049 203.833756 
L 278.519045 203.833756 
L 278.519045 208.750829 
L 279.004041 208.750829 
L 279.004041 207.767415 
L 279.489037 207.767415 
L 279.489037 209.340878 
L 279.974032 209.340878 
L 279.974032 210.717659 
L 280.459028 210.717659 
L 280.459028 211.701073 
L 280.944024 211.701073 
L 280.944024 214.15961 
L 281.42902 214.15961 
L 281.42902 214.848 
L 281.914016 214.848 
L 281.914016 216.323122 
L 282.399012 216.323122 
L 282.399012 216.913171 
L 282.884008 216.913171 
L 282.884008 218.19161 
L 283.369004 218.19161 
L 283.369004 218.88 
L 283.854 218.88 
L 283.854 217.994927 
L 284.338996 217.994927 
L 284.338996 214.749659 
L 284.823992 214.749659 
L 284.823992 208.16078 
L 285.308988 208.16078 
L 285.308988 202.850341 
L 285.793984 202.850341 
L 285.793984 205.898927 
L 286.27898 205.898927 
L 286.27898 205.702244 
L 286.763976 205.702244 
L 286.763976 209.045854 
L 287.248971 209.045854 
L 287.248971 208.259122 
L 287.733967 208.259122 
L 287.733967 210.816 
L 288.218963 210.816 
L 288.218963 211.209366 
L 288.703959 211.209366 
L 288.703959 211.701073 
L 289.188955 211.701073 
L 289.188955 212.684488 
L 289.673951 212.684488 
L 289.673951 214.257951 
L 290.158947 214.257951 
L 290.158947 215.634732 
L 290.643943 215.634732 
L 290.643943 214.848 
L 291.128939 214.848 
L 291.128939 216.323122 
L 291.613935 216.323122 
L 291.613935 216.519805 
L 292.098931 216.519805 
L 292.098931 217.109854 
L 292.583927 217.109854 
L 292.583927 218.19161 
L 293.068923 218.19161 
L 293.068923 218.486634 
L 293.553919 218.486634 
L 293.553919 218.88 
L 295.008906 218.88 
L 295.008906 217.601561 
L 295.493902 217.601561 
L 295.493902 214.946341 
L 295.978898 214.946341 
L 295.978898 212.291122 
L 296.463894 212.291122 
L 296.463894 205.210537 
L 296.94889 205.210537 
L 296.94889 202.358634 
L 297.433886 202.358634 
L 297.433886 201.965268 
L 297.918882 201.965268 
L 297.918882 202.752 
L 298.403878 202.752 
L 298.403878 204.522146 
L 298.888874 204.522146 
L 298.888874 203.833756 
L 299.37387 203.833756 
L 299.37387 204.817171 
L 299.858866 204.817171 
L 299.858866 203.735415 
L 300.343862 203.735415 
L 300.343862 205.308878 
L 300.828858 205.308878 
L 300.828858 206.292293 
L 301.313853 206.292293 
L 301.313853 207.079024 
L 301.798849 207.079024 
L 301.798849 209.242537 
L 302.283845 209.242537 
L 302.283845 207.079024 
L 302.768841 207.079024 
L 302.768841 210.029268 
L 303.253837 210.029268 
L 303.253837 210.619317 
L 303.738833 210.619317 
L 303.738833 212.487805 
L 304.223829 212.487805 
L 304.223829 213.47122 
L 304.708825 213.47122 
L 304.708825 215.339707 
L 305.193821 215.339707 
L 305.193821 216.028098 
L 305.678817 216.028098 
L 305.678817 218.486634 
L 306.163813 218.486634 
L 306.163813 218.88 
L 368.728288 218.781659 
L 368.728288 218.683317 
L 369.69828 218.781659 
L 369.69828 218.88 
L 371.638263 218.88 
L 371.638263 218.683317 
L 373.093251 218.781659 
L 373.093251 218.88 
L 373.578247 218.88 
L 373.578247 218.683317 
L 374.063243 218.683317 
L 374.063243 218.88 
L 375.518231 218.781659 
L 375.518231 218.289951 
L 376.003227 218.289951 
L 376.003227 218.683317 
L 377.94321 218.781659 
L 377.94321 218.093268 
L 378.428206 218.093268 
L 378.428206 218.388293 
L 379.398198 218.388293 
L 379.398198 218.781659 
L 380.853186 218.781659 
L 380.853186 218.781659 
" clip-path="url(#p9467d13ab5)" style="fill: none; stroke: #2ca02c; stroke-width: 1.5; stroke-linecap: square"/>
   </g>
   <g id="patch_3">
    <path d="M 53.328125 228.96 
L 53.328125 7.2 
" style="fill: none; stroke: #000000; stroke-width: 0.8; stroke-linejoin: miter; stroke-linecap: square"/>
   </g>
   <g id="patch_4">
    <path d="M 388.128125 228.96 
L 388.128125 7.2 
" style="fill: none; stroke: #000000; stroke-width: 0.8; stroke-linejoin: miter; stroke-linecap: square"/>
   </g>
   <g id="patch_5">
    <path d="M 53.328125 228.96 
L 388.128125 228.96 
" style="fill: none; stroke: #000000; stroke-width: 0.8; stroke-linejoin: miter; stroke-linecap: square"/>
   </g>
   <g id="patch_6">
    <path d="M 53.328125 7.2 
L 388.128125 7.2 
" style="fill: none; stroke: #000000; stroke-width: 0.8; stroke-linejoin: miter; stroke-linecap: square"/>
   </g>
   <g id="legend_1">
    <g id="patch_7">
     <path d="M 312.570312 59.234375 
L 381.128125 59.234375 
Q 383.128125 59.234375 383.128125 57.234375 
L 383.128125 14.2 
Q 383.128125 12.2 381.128125 12.2 
L 312.570312 12.2 
Q 310.570312 12.2 310.570312 14.2 
L 310.570312 57.234375 
Q 310.570312 59.234375 312.570312 59.234375 
z
" style="fill: #ffffff; opacity: 0.8; stroke: #cccccc; stroke-linejoin: miter"/>
    </g>
    <g id="line2d_14">
     <path d="M 314.570312 20.298437 
L 314.570312 20.298437 
L 324.570312 20.298437 
L 324.570312 20.298437 
L 334.570312 20.298437 
" style="fill: none; stroke: #1f77b4; stroke-width: 1.5; stroke-linecap: square"/>
    </g>
    <g id="text_13">
     <!-- pulse:0 -->
     <g transform="translate(342.570312 23.798437) scale(0.1 -0.1)">
      <defs>
       <path id="DejaVuSans-70" d="M 1159 525 
L 1159 -1331 
L 581 -1331 
L 581 3500 
L 1159 3500 
L 1159 2969 
Q 1341 3281 1617 3432 
Q 1894 3584 2278 3584 
Q 2916 3584 3314 3078 
Q 3713 2572 3713 1747 
Q 3713 922 3314 415 
Q 2916 -91 2278 -91 
Q 1894 -91 1617 61 
Q 1341 213 1159 525 
z
M 3116 1747 
Q 3116 2381 2855 2742 
Q 2594 3103 2138 3103 
Q 1681 3103 1420 2742 
Q 1159 2381 1159 1747 
Q 1159 1113 1420 752 
Q 1681 391 2138 391 
Q 2594 391 2855 752 
Q 3116 1113 3116 1747 
z
" transform="scale(0.015625)"/>
       <path id="DejaVuSans-6c" d="M 603 4863 
L 1178 4863 
L 1178 0 
L 603 0 
L 603 4863 
z
" transform="scale(0.015625)"/>
       <path id="DejaVuSans-65" d="M 3597 1894 
L 3597 1613 
L 953 1613 
Q 991 1019 1311 708 
Q 1631 397 2203 397 
Q 2534 397 2845 478 
Q 3156 559 3463 722 
L 3463 178 
Q 3153 47 2828 -22 
Q 2503 -91 2169 -91 
Q 1331 -91 842 396 
Q 353 884 353 1716 
Q 353 2575 817 3079 
Q 1281 3584 2069 3584 
Q 2775 3584 3186 3129 
Q 3597 2675 3597 1894 
z
M 3022 2063 
Q 3016 2534 2758 2815 
Q 2500 3097 2075 3097 
Q 1594 3097 1305 2825 
Q 1016 2553 972 2059 
L 3022 2063 
z
" transform="scale(0.015625)"/>
       <path id="DejaVuSans-3a" d="M 750 794 
L 1409 794 
L 1409 0 
L 750 0 
L 750 794 
z
M 750 3309 
L 1409 3309 
L 1409 2516 
L 750 2516 
L 750 3309 
z
" transform="scale(0.015625)"/>
      </defs>
      <use xlink:href="#DejaVuSans-70"/>
      <use xlink:href="#DejaVuSans-75" transform="translate(63.476562 0)"/>
      <use xlink:href="#DejaVuSans-6c" transform="translate(126.855469 0)"/>
      <use xlink:href="#DejaVuSans-73" transform="translate(154.638672 0)"/>
      <use xlink:href="#DejaVuSans-65" transform="translate(206.738281 0)"/>
      <use xlink:href="#DejaVuSans-3a" transform="translate(268.261719 0)"/>
      <use xlink:href="#DejaVuSans-30" transform="translate(301.953125 0)"/>
     </g>
    </g>
    <g id="line2d_15">
     <path d="M 314.570312 34.976562 
L 314.570312 34.976562 
L 324.570312 34.976562 
L 324.570312 34.976562 
L 334.570312 34.976562 
" style="fill: none; stroke: #ff7f0e; stroke-width: 1.5; stroke-linecap: square"/>
    </g>
    <g id="text_14">
     <!-- pulse:1 -->
     <g transform="translate(342.570312 38.476562) scale(0.1 -0.1)">
      <use xlink:href="#DejaVuSans-70"/>
      <use xlink:href="#DejaVuSans-75" transform="translate(63.476562 0)"/>
      <use xlink:href="#DejaVuSans-6c" transform="translate(126.855469 0)"/>
      <use xlink:href="#DejaVuSans-73" transform="translate(154.638672 0)"/>
      <use xlink:href="#DejaVuSans-65" transform="translate(206.738281 0)"/>
      <use xlink:href="#DejaVuSans-3a" transform="translate(268.261719 0)"/>
      <use xlink:href="#DejaVuSans-31" transform="translate(301.953125 0)"/>
     </g>
    </g>
    <g id="line2d_16">
     <path d="M 314.570312 49.654687 
L 314.570312 49.654687 
L 324.570312 49.654687 
L 324.570312 49.654687 
L 334.570312 49.654687 
" style="fill: none; stroke: #2ca02c; stroke-width: 1.5; stroke-linecap: square"/>
    </g>
    <g id="text_15">
     <!-- pulse:2 -->
     <g transform="translate(342.570312 53.154687) scale(0.1 -0.1)">
      <use xlink:href="#DejaVuSans-70"/>
      <use xlink:href="#DejaVuSans-75" transform="translate(63.476562 0)"/>
      <use xlink:href="#DejaVuSans-6c" transform="translate(126.855469 0)"/>
      <use xlink:href="#DejaVuSans-73" transform="translate(154.638672 0)"/>
      <use xlink:href="#DejaVuSans-65" transform="translate(206.738281 0)"/>
      <use xlink:href="#DejaVuSans-3a" transform="translate(268.261719 0)"/>
      <use xlink:href="#DejaVuSans-32" transform="translate(301.953125 0)"/>
     </g>
    </g>
   </g>
  </g>
 </g>
 <defs>
  <clipPath id="p9467d13ab5">
   <rect x="53.328125" y="7.2" width="334.8" height="221.76"/>
  </clipPath>
 </defs>
</svg>
