<?xml version="1.0" encoding="utf-8" standalone="no"?>
<!DOCTYPE svg PUBLIC "-//W3C//DTD SVG 1.1//EN"
  "http://www.w3.org/Graphics/SVG/1.1/DTD/svg11.dtd">
<svg xmlns:xlink="http://www.w3.org/1999/xlink" width="872.39952pt" height="296.396387pt" viewBox="0 0 872.39952 296.396387" xmlns="http://www.w3.org/2000/svg" version="1.1">
 <metadata>
  <rdf:RDF xmlns:dc="http://purl.org/dc/elements/1.1/" xmlns:cc="http://creativecommons.org/ns#" xmlns:rdf="http://www.w3.org/1999/02/22-rdf-syntax-ns#">
   <cc:Work>
    <dc:type rdf:resource="http://purl.org/dc/dcmitype/StillImage"/>
    <dc:date>2026-06-24T08:33:38.909276</dc:date>
    <dc:format>image/svg+xml</dc:format>
    <dc:creator>
     <cc:Agent>
      <dc:title>Matplotlib v3.10.9, https://matplotlib.org/</dc:title>
     </cc:Agent>
    </dc:creator>
   </cc:Work>
  </rdf:RDF>
 </metadata>
 <defs>
  <style type="text/css">*{stroke-linejoin: round; stroke-linecap: butt}</style>
 </defs>
 <g id="figure_1">
  <g id="patch_1">
   <path d="M 0 296.396387 
L 872.39952 296.396387 
L 872.39952 0 
L 0 0 
z
" style="fill: #ffffff"/>
  </g>
  <g id="axes_1">
   <g id="patch_2">
    <path d="M 53.328125 257.155762 
L 411.41851 257.155762 
L 411.41851 8.308592 
L 53.328125 8.308592 
z
" style="fill: #ffffff"/>
   </g>
   <g id="matplotlib.axis_1">
    <g id="xtick_1">
     <g id="line2d_1">
      <defs>
       <path id="m645beb29c7" d="M 0 0 
L 0 3.5 
" style="stroke: #000000; stroke-width: 0.8"/>
      </defs>
      <g>
       <use xlink:href="#m645beb29c7" x="54.046175" y="257.155762" style="stroke: #000000; stroke-width: 0.8"/>
      </g>
     </g>
     <g id="text_1">
      <!-- 0 -->
      <g transform="translate(50.864925 271.7542) scale(0.1 -0.1)">
       <defs>
        <path id="DejaVuSans-30" d="M 2034 4250 
Q 1547 4250 1301 3770 
Q 1056 3291 1056 2328 
Q 1056 1369 1301 889 
Q 1547 409 2034 409 
Q 2525 409 2770 889 
Q 3016 1369 3016 2328 
Q 3016 3291 2770 3770 
Q 2525 4250 2034 4250 
z
M 2034 4750 
Q 2819 4750 3233 4129 
Q 3647 3509 3647 2328 
Q 3647 1150 3233 529 
Q 2819 -91 2034 -91 
Q 1250 -91 836 529 
Q 422 1150 422 2328 
Q 422 3509 836 4129 
Q 1250 4750 2034 4750 
z
" transform="scale(0.015625)"/>
       </defs>
       <use xlink:href="#DejaVuSans-30"/>
      </g>
     </g>
    </g>
    <g id="xtick_2">
     <g id="line2d_2">
      <g>
       <use xlink:href="#m645beb29c7" x="101.982899" y="257.155762" style="stroke: #000000; stroke-width: 0.8"/>
      </g>
     </g>
     <g id="text_2">
      <!-- 20000 -->
      <g transform="translate(86.076649 271.7542) scale(0.1 -0.1)">
       <defs>
        <path id="DejaVuSans-32" d="M 1228 531 
L 3431 531 
L 3431 0 
L 469 0 
L 469 531 
Q 828 903 1448 1529 
Q 2069 2156 2228 2338 
Q 2531 2678 2651 2914 
Q 2772 3150 2772 3378 
Q 2772 3750 2511 3984 
Q 2250 4219 1831 4219 
Q 1534 4219 1204 4116 
Q 875 4013 500 3803 
L 500 4441 
Q 881 4594 1212 4672 
Q 1544 4750 1819 4750 
Q 2544 4750 2975 4387 
Q 3406 4025 3406 3419 
Q 3406 3131 3298 2873 
Q 3191 2616 2906 2266 
Q 2828 2175 2409 1742 
Q 1991 1309 1228 531 
z
" transform="scale(0.015625)"/>
       </defs>
       <use xlink:href="#DejaVuSans-32"/>
       <use xlink:href="#DejaVuSans-30" transform="translate(63.623047 0)"/>
       <use xlink:href="#DejaVuSans-30" transform="translate(127.246094 0)"/>
       <use xlink:href="#DejaVuSans-30" transform="translate(190.869141 0)"/>
       <use xlink:href="#DejaVuSans-30" transform="translate(254.492188 0)"/>
      </g>
     </g>
    </g>
    <g id="xtick_3">
     <g id="line2d_3">
      <g>
       <use xlink:href="#m645beb29c7" x="149.919622" y="257.155762" style="stroke: #000000; stroke-width: 0.8"/>
      </g>
     </g>
     <g id="text_3">
      <!-- 40000 -->
      <g transform="translate(134.013372 271.7542) scale(0.1 -0.1)">
       <defs>
        <path id="DejaVuSans-34" d="M 2419 4116 
L 825 1625 
L 2419 1625 
L 2419 4116 
z
M 2253 4666 
L 3047 4666 
L 3047 1625 
L 3713 1625 
L 3713 1100 
L 3047 1100 
L 3047 0 
L 2419 0 
L 2419 1100 
L 313 1100 
L 313 1709 
L 2253 4666 
z
" transform="scale(0.015625)"/>
       </defs>
       <use xlink:href="#DejaVuSans-34"/>
       <use xlink:href="#DejaVuSans-30" transform="translate(63.623047 0)"/>
       <use xlink:href="#DejaVuSans-30" transform="translate(127.246094 0)"/>
       <use xlink:href="#DejaVuSans-30" transform="translate(190.869141 0)"/>
       <use xlink:href="#DejaVuSans-30" transform="translate(254.492188 0)"/>
      </g>
     </g>
    </g>
    <g id="xtick_4">
     <g id="line2d_4">
      <g>
       <use xlink:href="#m645beb29c7" x="197.856346" y="257.155762" style="stroke: #000000; stroke-width: 0.8"/>
      </g>
     </g>
     <g id="text_4">
      <!-- 60000 -->
      <g transform="translate(181.950096 271.7542) scale(0.1 -0.1)">
       <defs>
        <path id="DejaVuSans-36" d="M 2113 2584 
Q 1688 2584 1439 2293 
Q 1191 2003 1191 1497 
Q 1191 994 1439 701 
Q 1688 409 2113 409 
Q 2538 409 2786 701 
Q 3034 994 3034 1497 
Q 3034 2003 2786 2293 
Q 2538 2584 2113 2584 
z
M 3366 4563 
L 3366 3988 
Q 3128 4100 2886 4159 
Q 2644 4219 2406 4219 
Q 1781 4219 1451 3797 
Q 1122 3375 1075 2522 
Q 1259 2794 1537 2939 
Q 1816 3084 2150 3084 
Q 2853 3084 3261 2657 
Q 3669 2231 3669 1497 
Q 3669 778 3244 343 
Q 2819 -91 2113 -91 
Q 1303 -91 875 529 
Q 447 1150 447 2328 
Q 447 3434 972 4092 
Q 1497 4750 2381 4750 
Q 2619 4750 2861 4703 
Q 3103 4656 3366 4563 
z
" transform="scale(0.015625)"/>
       </defs>
       <use xlink:href="#DejaVuSans-36"/>
       <use xlink:href="#DejaVuSans-30" transform="translate(63.623047 0)"/>
       <use xlink:href="#DejaVuSans-30" transform="translate(127.246094 0)"/>
       <use xlink:href="#DejaVuSans-30" transform="translate(190.869141 0)"/>
       <use xlink:href="#DejaVuSans-30" transform="translate(254.492188 0)"/>
      </g>
     </g>
    </g>
    <g id="xtick_5">
     <g id="line2d_5">
      <g>
       <use xlink:href="#m645beb29c7" x="245.793069" y="257.155762" style="stroke: #000000; stroke-width: 0.8"/>
      </g>
     </g>
     <g id="text_5">
      <!-- 80000 -->
      <g transform="translate(229.886819 271.7542) scale(0.1 -0.1)">
       <defs>
        <path id="DejaVuSans-38" d="M 2034 2216 
Q 1584 2216 1326 1975 
Q 1069 1734 1069 1313 
Q 1069 891 1326 650 
Q 1584 409 2034 409 
Q 2484 409 2743 651 
Q 3003 894 3003 1313 
Q 3003 1734 2745 1975 
Q 2488 2216 2034 2216 
z
M 1403 2484 
Q 997 2584 770 2862 
Q 544 3141 544 3541 
Q 544 4100 942 4425 
Q 1341 4750 2034 4750 
Q 2731 4750 3128 4425 
Q 3525 4100 3525 3541 
Q 3525 3141 3298 2862 
Q 3072 2584 2669 2484 
Q 3125 2378 3379 2068 
Q 3634 1759 3634 1313 
Q 3634 634 3220 271 
Q 2806 -91 2034 -91 
Q 1263 -91 848 271 
Q 434 634 434 1313 
Q 434 1759 690 2068 
Q 947 2378 1403 2484 
z
M 1172 3481 
Q 1172 3119 1398 2916 
Q 1625 2713 2034 2713 
Q 2441 2713 2670 2916 
Q 2900 3119 2900 3481 
Q 2900 3844 2670 4047 
Q 2441 4250 2034 4250 
Q 1625 4250 1398 4047 
Q 1172 3844 1172 3481 
z
" transform="scale(0.015625)"/>
       </defs>
       <use xlink:href="#DejaVuSans-38"/>
       <use xlink:href="#DejaVuSans-30" transform="translate(63.623047 0)"/>
       <use xlink:href="#DejaVuSans-30" transform="translate(127.246094 0)"/>
       <use xlink:href="#DejaVuSans-30" transform="translate(190.869141 0)"/>
       <use xlink:href="#DejaVuSans-30" transform="translate(254.492188 0)"/>
      </g>
     </g>
    </g>
    <g id="xtick_6">
     <g id="line2d_6">
      <g>
       <use xlink:href="#m645beb29c7" x="293.729793" y="257.155762" style="stroke: #000000; stroke-width: 0.8"/>
      </g>
     </g>
     <g id="text_6">
      <!-- 100000 -->
      <g transform="translate(274.642293 271.7542) scale(0.1 -0.1)">
       <defs>
        <path id="DejaVuSans-31" d="M 794 531 
L 1825 531 
L 1825 4091 
L 703 3866 
L 703 4441 
L 1819 4666 
L 2450 4666 
L 2450 531 
L 3481 531 
L 3481 0 
L 794 0 
L 794 531 
z
" transform="scale(0.015625)"/>
       </defs>
       <use xlink:href="#DejaVuSans-31"/>
       <use xlink:href="#DejaVuSans-30" transform="translate(63.623047 0)"/>
       <use xlink:href="#DejaVuSans-30" transform="translate(127.246094 0)"/>
       <use xlink:href="#DejaVuSans-30" transform="translate(190.869141 0)"/>
       <use xlink:href="#DejaVuSans-30" transform="translate(254.492188 0)"/>
       <use xlink:href="#DejaVuSans-30" transform="translate(318.115234 0)"/>
      </g>
     </g>
    </g>
    <g id="xtick_7">
     <g id="line2d_7">
      <g>
       <use xlink:href="#m645beb29c7" x="341.666516" y="257.155762" style="stroke: #000000; stroke-width: 0.8"/>
      </g>
     </g>
     <g id="text_7">
      <!-- 120000 -->
      <g transform="translate(322.579016 271.7542) scale(0.1 -0.1)">
       <use xlink:href="#DejaVuSans-31"/>
       <use xlink:href="#DejaVuSans-32" transform="translate(63.623047 0)"/>
       <use xlink:href="#DejaVuSans-30" transform="translate(127.246094 0)"/>
       <use xlink:href="#DejaVuSans-30" transform="translate(190.869141 0)"/>
       <use xlink:href="#DejaVuSans-30" transform="translate(254.492188 0)"/>
       <use xlink:href="#DejaVuSans-30" transform="translate(318.115234 0)"/>
      </g>
     </g>
    </g>
    <g id="xtick_8">
     <g id="line2d_8">
      <g>
       <use xlink:href="#m645beb29c7" x="389.60324" y="257.155762" style="stroke: #000000; stroke-width: 0.8"/>
      </g>
     </g>
     <g id="text_8">
      <!-- 140000 -->
      <g transform="translate(370.51574 271.7542) scale(0.1 -0.1)">
       <use xlink:href="#DejaVuSans-31"/>
       <use xlink:href="#DejaVuSans-34" transform="translate(63.623047 0)"/>
       <use xlink:href="#DejaVuSans-30" transform="translate(127.246094 0)"/>
       <use xlink:href="#DejaVuSans-30" transform="translate(190.869141 0)"/>
       <use xlink:href="#DejaVuSans-30" transform="translate(254.492188 0)"/>
       <use xlink:href="#DejaVuSans-30" transform="translate(318.115234 0)"/>
      </g>
     </g>
    </g>
    <g id="text_9">
     <!-- birth_time [µs] -->
     <g transform="translate(195.553005 285.432325) scale(0.1 -0.1)">
      <defs>
       <path id="DejaVuSans-62" d="M 3116 1747 
Q 3116 2381 2855 2742 
Q 2594 3103 2138 3103 
Q 1681 3103 1420 2742 
Q 1159 2381 1159 1747 
Q 1159 1113 1420 752 
Q 1681 391 2138 391 
Q 2594 391 2855 752 
Q 3116 1113 3116 1747 
z
M 1159 2969 
Q 1341 3281 1617 3432 
Q 1894 3584 2278 3584 
Q 2916 3584 3314 3078 
Q 3713 2572 3713 1747 
Q 3713 922 3314 415 
Q 2916 -91 2278 -91 
Q 1894 -91 1617 61 
Q 1341 213 1159 525 
L 1159 0 
L 581 0 
L 581 4863 
L 1159 4863 
L 1159 2969 
z
" transform="scale(0.015625)"/>
       <path id="DejaVuSans-69" d="M 603 3500 
L 1178 3500 
L 1178 0 
L 603 0 
L 603 3500 
z
M 603 4863 
L 1178 4863 
L 1178 4134 
L 603 4134 
L 603 4863 
z
" transform="scale(0.015625)"/>
       <path id="DejaVuSans-72" d="M 2631 2963 
Q 2534 3019 2420 3045 
Q 2306 3072 2169 3072 
Q 1681 3072 1420 2755 
Q 1159 2438 1159 1844 
L 1159 0 
L 581 0 
L 581 3500 
L 1159 3500 
L 1159 2956 
Q 1341 3275 1631 3429 
Q 1922 3584 2338 3584 
Q 2397 3584 2469 3576 
Q 2541 3569 2628 3553 
L 2631 2963 
z
" transform="scale(0.015625)"/>
       <path id="DejaVuSans-74" d="M 1172 4494 
L 1172 3500 
L 2356 3500 
L 2356 3053 
L 1172 3053 
L 1172 1153 
Q 1172 725 1289 603 
Q 1406 481 1766 481 
L 2356 481 
L 2356 0 
L 1766 0 
Q 1100 0 847 248 
Q 594 497 594 1153 
L 594 3053 
L 172 3053 
L 172 3500 
L 594 3500 
L 594 4494 
L 1172 4494 
z
" transform="scale(0.015625)"/>
       <path id="DejaVuSans-68" d="M 3513 2113 
L 3513 0 
L 2938 0 
L 2938 2094 
Q 2938 2591 2744 2837 
Q 2550 3084 2163 3084 
Q 1697 3084 1428 2787 
Q 1159 2491 1159 1978 
L 1159 0 
L 581 0 
L 581 4863 
L 1159 4863 
L 1159 2956 
Q 1366 3272 1645 3428 
Q 1925 3584 2291 3584 
Q 2894 3584 3203 3211 
Q 3513 2838 3513 2113 
z
" transform="scale(0.015625)"/>
       <path id="DejaVuSans-5f" d="M 3263 -1063 
L 3263 -1509 
L -63 -1509 
L -63 -1063 
L 3263 -1063 
z
" transform="scale(0.015625)"/>
       <path id="DejaVuSans-6d" d="M 3328 2828 
Q 3544 3216 3844 3400 
Q 4144 3584 4550 3584 
Q 5097 3584 5394 3201 
Q 5691 2819 5691 2113 
L 5691 0 
L 5113 0 
L 5113 2094 
Q 5113 2597 4934 2840 
Q 4756 3084 4391 3084 
Q 3944 3084 3684 2787 
Q 3425 2491 3425 1978 
L 3425 0 
L 2847 0 
L 2847 2094 
Q 2847 2600 2669 2842 
Q 2491 3084 2119 3084 
Q 1678 3084 1418 2786 
Q 1159 2488 1159 1978 
L 1159 0 
L 581 0 
L 581 3500 
L 1159 3500 
L 1159 2956 
Q 1356 3278 1631 3431 
Q 1906 3584 2284 3584 
Q 2666 3584 2933 3390 
Q 3200 3197 3328 2828 
z
" transform="scale(0.015625)"/>
       <path id="DejaVuSans-65" d="M 3597 1894 
L 3597 1613 
L 953 1613 
Q 991 1019 1311 708 
Q 1631 397 2203 397 
Q 2534 397 2845 478 
Q 3156 559 3463 722 
L 3463 178 
Q 3153 47 2828 -22 
Q 2503 -91 2169 -91 
Q 1331 -91 842 396 
Q 353 884 353 1716 
Q 353 2575 817 3079 
Q 1281 3584 2069 3584 
Q 2775 3584 3186 3129 
Q 3597 2675 3597 1894 
z
M 3022 2063 
Q 3016 2534 2758 2815 
Q 2500 3097 2075 3097 
Q 1594 3097 1305 2825 
Q 1016 2553 972 2059 
L 3022 2063 
z
" transform="scale(0.015625)"/>
       <path id="DejaVuSans-20" transform="scale(0.015625)"/>
       <path id="DejaVuSans-5b" d="M 550 4863 
L 1875 4863 
L 1875 4416 
L 1125 4416 
L 1125 -397 
L 1875 -397 
L 1875 -844 
L 550 -844 
L 550 4863 
z
" transform="scale(0.015625)"/>
       <path id="DejaVuSans-b5" d="M 544 -1331 
L 544 3500 
L 1119 3500 
L 1119 1325 
Q 1119 872 1334 640 
Q 1550 409 1972 409 
Q 2434 409 2667 671 
Q 2900 934 2900 1459 
L 2900 3500 
L 3475 3500 
L 3475 806 
Q 3475 619 3529 530 
Q 3584 441 3700 441 
Q 3728 441 3778 458 
Q 3828 475 3916 513 
L 3916 50 
Q 3788 -22 3673 -56 
Q 3559 -91 3450 -91 
Q 3234 -91 3106 31 
Q 2978 153 2931 403 
Q 2775 156 2548 32 
Q 2322 -91 2016 -91 
Q 1697 -91 1473 31 
Q 1250 153 1119 397 
L 1119 -1331 
L 544 -1331 
z
" transform="scale(0.015625)"/>
       <path id="DejaVuSans-73" d="M 2834 3397 
L 2834 2853 
Q 2591 2978 2328 3040 
Q 2066 3103 1784 3103 
Q 1356 3103 1142 2972 
Q 928 2841 928 2578 
Q 928 2378 1081 2264 
Q 1234 2150 1697 2047 
L 1894 2003 
Q 2506 1872 2764 1633 
Q 3022 1394 3022 966 
Q 3022 478 2636 193 
Q 2250 -91 1575 -91 
Q 1294 -91 989 -36 
Q 684 19 347 128 
L 347 722 
Q 666 556 975 473 
Q 1284 391 1588 391 
Q 1994 391 2212 530 
Q 2431 669 2431 922 
Q 2431 1156 2273 1281 
Q 2116 1406 1581 1522 
L 1381 1569 
Q 847 1681 609 1914 
Q 372 2147 372 2553 
Q 372 3047 722 3315 
Q 1072 3584 1716 3584 
Q 2034 3584 2315 3537 
Q 2597 3491 2834 3397 
z
" transform="scale(0.015625)"/>
       <path id="DejaVuSans-5d" d="M 1947 4863 
L 1947 -844 
L 622 -844 
L 622 -397 
L 1369 -397 
L 1369 4416 
L 622 4416 
L 622 4863 
L 1947 4863 
z
" transform="scale(0.015625)"/>
      </defs>
      <use xlink:href="#DejaVuSans-62"/>
      <use xlink:href="#DejaVuSans-69" transform="translate(63.476562 0)"/>
      <use xlink:href="#DejaVuSans-72" transform="translate(91.259766 0)"/>
      <use xlink:href="#DejaVuSans-74" transform="translate(132.373047 0)"/>
      <use xlink:href="#DejaVuSans-68" transform="translate(171.582031 0)"/>
      <use xlink:href="#DejaVuSans-5f" transform="translate(234.960938 0)"/>
      <use xlink:href="#DejaVuSans-74" transform="translate(284.960938 0)"/>
      <use xlink:href="#DejaVuSans-69" transform="translate(324.169922 0)"/>
      <use xlink:href="#DejaVuSans-6d" transform="translate(351.953125 0)"/>
      <use xlink:href="#DejaVuSans-65" transform="translate(449.365234 0)"/>
      <use xlink:href="#DejaVuSans-20" transform="translate(510.888672 0)"/>
      <use xlink:href="#DejaVuSans-5b" transform="translate(542.675781 0)"/>
      <use xlink:href="#DejaVuSans-b5" transform="translate(581.689453 0)"/>
      <use xlink:href="#DejaVuSans-73" transform="translate(645.3125 0)"/>
      <use xlink:href="#DejaVuSans-5d" transform="translate(697.412109 0)"/>
     </g>
    </g>
   </g>
   <g id="matplotlib.axis_2">
    <g id="ytick_1">
     <g id="line2d_9">
      <defs>
       <path id="m89c4d2d546" d="M 0 0 
L -3.5 0 
" style="stroke: #000000; stroke-width: 0.8"/>
      </defs>
      <g>
       <use xlink:href="#m89c4d2d546" x="53.328125" y="245.844527" style="stroke: #000000; stroke-width: 0.8"/>
      </g>
     </g>
     <g id="text_10">
      <!-- 0 -->
      <g transform="translate(39.965625 249.643746) scale(0.1 -0.1)">
       <use xlink:href="#DejaVuSans-30"/>
      </g>
     </g>
    </g>
    <g id="ytick_2">
     <g id="line2d_10">
      <g>
       <use xlink:href="#m89c4d2d546" x="53.328125" y="214.398225" style="stroke: #000000; stroke-width: 0.8"/>
      </g>
     </g>
     <g id="text_11">
      <!-- 1000 -->
      <g transform="translate(20.878125 218.197443) scale(0.1 -0.1)">
       <use xlink:href="#DejaVuSans-31"/>
       <use xlink:href="#DejaVuSans-30" transform="translate(63.623047 0)"/>
       <use xlink:href="#DejaVuSans-30" transform="translate(127.246094 0)"/>
       <use xlink:href="#DejaVuSans-30" transform="translate(190.869141 0)"/>
      </g>
     </g>
    </g>
    <g id="ytick_3">
     <g id="line2d_11">
      <g>
       <use xlink:href="#m89c4d2d546" x="53.328125" y="182.951922" style="stroke: #000000; stroke-width: 0.8"/>
      </g>
     </g>
     <g id="text_12">
      <!-- 2000 -->
      <g transform="translate(20.878125 186.751141) scale(0.1 -0.1)">
       <use xlink:href="#DejaVuSans-32"/>
       <use xlink:href="#DejaVuSans-30" transform="translate(63.623047 0)"/>
       <use xlink:href="#DejaVuSans-30" transform="translate(127.246094 0)"/>
       <use xlink:href="#DejaVuSans-30" transform="translate(190.869141 0)"/>
      </g>
     </g>
    </g>
    <g id="ytick_4">
     <g id="line2d_12">
      <g>
       <use xlink:href="#m89c4d2d546" x="53.328125" y="151.50562" style="stroke: #000000; stroke-width: 0.8"/>
      </g>
     </g>
     <g id="text_13">
      <!-- 3000 -->
      <g transform="translate(20.878125 155.304838) scale(0.1 -0.1)">
       <defs>
        <path id="DejaVuSans-33" d="M 2597 2516 
Q 3050 2419 3304 2112 
Q 3559 1806 3559 1356 
Q 3559 666 3084 287 
Q 2609 -91 1734 -91 
Q 1441 -91 1130 -33 
Q 819 25 488 141 
L 488 750 
Q 750 597 1062 519 
Q 1375 441 1716 441 
Q 2309 441 2620 675 
Q 2931 909 2931 1356 
Q 2931 1769 2642 2001 
Q 2353 2234 1838 2234 
L 1294 2234 
L 1294 2753 
L 1863 2753 
Q 2328 2753 2575 2939 
Q 2822 3125 2822 3475 
Q 2822 3834 2567 4026 
Q 2313 4219 1838 4219 
Q 1578 4219 1281 4162 
Q 984 4106 628 3988 
L 628 4550 
Q 988 4650 1302 4700 
Q 1616 4750 1894 4750 
Q 2613 4750 3031 4423 
Q 3450 4097 3450 3541 
Q 3450 3153 3228 2886 
Q 3006 2619 2597 2516 
z
" transform="scale(0.015625)"/>
       </defs>
       <use xlink:href="#DejaVuSans-33"/>
       <use xlink:href="#DejaVuSans-30" transform="translate(63.623047 0)"/>
       <use xlink:href="#DejaVuSans-30" transform="translate(127.246094 0)"/>
       <use xlink:href="#DejaVuSans-30" transform="translate(190.869141 0)"/>
      </g>
     </g>
    </g>
    <g id="ytick_5">
     <g id="line2d_13">
      <g>
       <use xlink:href="#m89c4d2d546" x="53.328125" y="120.059317" style="stroke: #000000; stroke-width: 0.8"/>
      </g>
     </g>
     <g id="text_14">
      <!-- 4000 -->
      <g transform="translate(20.878125 123.858536) scale(0.1 -0.1)">
       <use xlink:href="#DejaVuSans-34"/>
       <use xlink:href="#DejaVuSans-30" transform="translate(63.623047 0)"/>
       <use xlink:href="#DejaVuSans-30" transform="translate(127.246094 0)"/>
       <use xlink:href="#DejaVuSans-30" transform="translate(190.869141 0)"/>
      </g>
     </g>
    </g>
    <g id="ytick_6">
     <g id="line2d_14">
      <g>
       <use xlink:href="#m89c4d2d546" x="53.328125" y="88.613015" style="stroke: #000000; stroke-width: 0.8"/>
      </g>
     </g>
     <g id="text_15">
      <!-- 5000 -->
      <g transform="translate(20.878125 92.412233) scale(0.1 -0.1)">
       <defs>
        <path id="DejaVuSans-35" d="M 691 4666 
L 3169 4666 
L 3169 4134 
L 1269 4134 
L 1269 2991 
Q 1406 3038 1543 3061 
Q 1681 3084 1819 3084 
Q 2600 3084 3056 2656 
Q 3513 2228 3513 1497 
Q 3513 744 3044 326 
Q 2575 -91 1722 -91 
Q 1428 -91 1123 -41 
Q 819 9 494 109 
L 494 744 
Q 775 591 1075 516 
Q 1375 441 1709 441 
Q 2250 441 2565 725 
Q 2881 1009 2881 1497 
Q 2881 1984 2565 2268 
Q 2250 2553 1709 2553 
Q 1456 2553 1204 2497 
Q 953 2441 691 2322 
L 691 4666 
z
" transform="scale(0.015625)"/>
       </defs>
       <use xlink:href="#DejaVuSans-35"/>
       <use xlink:href="#DejaVuSans-30" transform="translate(63.623047 0)"/>
       <use xlink:href="#DejaVuSans-30" transform="translate(127.246094 0)"/>
       <use xlink:href="#DejaVuSans-30" transform="translate(190.869141 0)"/>
      </g>
     </g>
    </g>
    <g id="ytick_7">
     <g id="line2d_15">
      <g>
       <use xlink:href="#m89c4d2d546" x="53.328125" y="57.166712" style="stroke: #000000; stroke-width: 0.8"/>
      </g>
     </g>
     <g id="text_16">
      <!-- 6000 -->
      <g transform="translate(20.878125 60.965931) scale(0.1 -0.1)">
       <use xlink:href="#DejaVuSans-36"/>
       <use xlink:href="#DejaVuSans-30" transform="translate(63.623047 0)"/>
       <use xlink:href="#DejaVuSans-30" transform="translate(127.246094 0)"/>
       <use xlink:href="#DejaVuSans-30" transform="translate(190.869141 0)"/>
      </g>
     </g>
    </g>
    <g id="ytick_8">
     <g id="line2d_16">
      <g>
       <use xlink:href="#m89c4d2d546" x="53.328125" y="25.72041" style="stroke: #000000; stroke-width: 0.8"/>
      </g>
     </g>
     <g id="text_17">
      <!-- 7000 -->
      <g transform="translate(20.878125 29.519628) scale(0.1 -0.1)">
       <defs>
        <path id="DejaVuSans-37" d="M 525 4666 
L 3525 4666 
L 3525 4397 
L 1831 0 
L 1172 0 
L 2766 4134 
L 525 4134 
L 525 4666 
z
" transform="scale(0.015625)"/>
       </defs>
       <use xlink:href="#DejaVuSans-37"/>
       <use xlink:href="#DejaVuSans-30" transform="translate(63.623047 0)"/>
       <use xlink:href="#DejaVuSans-30" transform="translate(127.246094 0)"/>
       <use xlink:href="#DejaVuSans-30" transform="translate(190.869141 0)"/>
      </g>
     </g>
    </g>
    <g id="text_18">
     <!-- [counts] -->
     <g transform="translate(14.798438 153.344677) rotate(-90) scale(0.1 -0.1)">
      <defs>
       <path id="DejaVuSans-63" d="M 3122 3366 
L 3122 2828 
Q 2878 2963 2633 3030 
Q 2388 3097 2138 3097 
Q 1578 3097 1268 2742 
Q 959 2388 959 1747 
Q 959 1106 1268 751 
Q 1578 397 2138 397 
Q 2388 397 2633 464 
Q 2878 531 3122 666 
L 3122 134 
Q 2881 22 2623 -34 
Q 2366 -91 2075 -91 
Q 1284 -91 818 406 
Q 353 903 353 1747 
Q 353 2603 823 3093 
Q 1294 3584 2113 3584 
Q 2378 3584 2631 3529 
Q 2884 3475 3122 3366 
z
" transform="scale(0.015625)"/>
       <path id="DejaVuSans-6f" d="M 1959 3097 
Q 1497 3097 1228 2736 
Q 959 2375 959 1747 
Q 959 1119 1226 758 
Q 1494 397 1959 397 
Q 2419 397 2687 759 
Q 2956 1122 2956 1747 
Q 2956 2369 2687 2733 
Q 2419 3097 1959 3097 
z
M 1959 3584 
Q 2709 3584 3137 3096 
Q 3566 2609 3566 1747 
Q 3566 888 3137 398 
Q 2709 -91 1959 -91 
Q 1206 -91 779 398 
Q 353 888 353 1747 
Q 353 2609 779 3096 
Q 1206 3584 1959 3584 
z
" transform="scale(0.015625)"/>
       <path id="DejaVuSans-75" d="M 544 1381 
L 544 3500 
L 1119 3500 
L 1119 1403 
Q 1119 906 1312 657 
Q 1506 409 1894 409 
Q 2359 409 2629 706 
Q 2900 1003 2900 1516 
L 2900 3500 
L 3475 3500 
L 3475 0 
L 2900 0 
L 2900 538 
Q 2691 219 2414 64 
Q 2138 -91 1772 -91 
Q 1169 -91 856 284 
Q 544 659 544 1381 
z
M 1991 3584 
L 1991 3584 
z
" transform="scale(0.015625)"/>
       <path id="DejaVuSans-6e" d="M 3513 2113 
L 3513 0 
L 2938 0 
L 2938 2094 
Q 2938 2591 2744 2837 
Q 2550 3084 2163 3084 
Q 1697 3084 1428 2787 
Q 1159 2491 1159 1978 
L 1159 0 
L 581 0 
L 581 3500 
L 1159 3500 
L 1159 2956 
Q 1366 3272 1645 3428 
Q 1925 3584 2291 3584 
Q 2894 3584 3203 3211 
Q 3513 2838 3513 2113 
z
" transform="scale(0.015625)"/>
      </defs>
      <use xlink:href="#DejaVuSans-5b"/>
      <use xlink:href="#DejaVuSans-63" transform="translate(39.013672 0)"/>
      <use xlink:href="#DejaVuSans-6f" transform="translate(93.994141 0)"/>
      <use xlink:href="#DejaVuSans-75" transform="translate(155.175781 0)"/>
      <use xlink:href="#DejaVuSans-6e" transform="translate(218.554688 0)"/>
      <use xlink:href="#DejaVuSans-74" transform="translate(281.933594 0)"/>
      <use xlink:href="#DejaVuSans-73" transform="translate(321.142578 0)"/>
      <use xlink:href="#DejaVuSans-5d" transform="translate(373.242188 0)"/>
     </g>
    </g>
   </g>
   <g id="line2d_17">
    <path d="M 54.046219 228.29749 
L 54.094092 228.29749 
L 54.189838 197.543006 
L 54.23771 197.543006 
L 54.333456 163.518107 
L 54.381329 163.518107 
L 54.477075 141.97739 
L 54.524948 141.97739 
L 54.620694 117.920969 
L 54.668567 117.920969 
L 54.764313 101.474552 
L 54.812186 101.474552 
L 54.907931 85.59417 
L 54.955804 85.59417 
L 55.05155 77.889825 
L 55.099423 77.889825 
L 55.195169 66.191801 
L 55.243042 66.191801 
L 55.338788 58.990598 
L 55.386661 58.990598 
L 55.434533 54.588115 
L 55.482406 57.60696 
L 55.530279 57.60696 
L 55.626025 48.110177 
L 55.673898 48.110177 
L 55.673898 50.46865 
L 55.769644 41.663685 
L 55.817517 41.663685 
L 55.817517 45.688812 
L 55.913263 43.015876 
L 55.961136 43.015876 
L 55.961136 44.147943 
L 56.056881 39.682568 
L 56.104754 39.682568 
L 56.2005 37.072525 
L 56.248373 37.072525 
L 56.344119 34.399589 
L 56.391992 34.399589 
L 56.439865 30.720372 
L 56.487738 32.104009 
L 56.535611 32.104009 
L 56.583484 35.437317 
L 56.631356 31.443637 
L 56.679229 31.443637 
L 56.679229 29.053718 
L 56.727102 35.405871 
L 56.774975 29.085164 
L 56.822848 29.085164 
L 56.822848 28.330453 
L 56.918594 30.437355 
L 56.966467 30.437355 
L 56.966467 33.739217 
L 57.062213 29.808429 
L 57.110086 29.808429 
L 57.157959 31.506529 
L 57.205832 28.361899 
L 57.253704 28.361899 
L 57.253704 22.544333 
L 57.301577 29.556858 
L 57.34945 25.563178 
L 57.397323 25.563178 
L 57.493069 28.707808 
L 57.540942 28.707808 
L 57.636688 25.688963 
L 57.684561 25.688963 
L 57.780307 30.217231 
L 57.828179 30.217231 
L 57.828179 32.387026 
L 57.923925 26.56946 
L 57.971798 26.56946 
L 57.971798 29.776983 
L 58.019671 25.688963 
L 58.067544 29.022271 
L 58.115417 29.022271 
L 58.115417 23.424829 
L 58.211163 25.248715 
L 58.259036 25.248715 
L 58.354782 28.770701 
L 58.402655 28.770701 
L 58.402655 34.525374 
L 58.450527 26.475121 
L 58.4984 28.01599 
L 58.546273 28.01599 
L 58.594146 29.399627 
L 58.642019 25.814748 
L 58.689892 25.814748 
L 58.689892 19.619827 
L 58.737765 28.330453 
L 58.785638 23.519168 
L 58.833511 23.519168 
L 58.833511 28.707808 
L 58.881384 21.192142 
L 58.929257 28.51913 
L 58.97713 28.51913 
L 58.97713 22.733011 
L 59.072875 31.034835 
L 59.120748 31.034835 
L 59.120748 24.399665 
L 59.216494 27.292725 
L 59.264367 27.292725 
L 59.264367 22.198424 
L 59.360113 28.078882 
L 59.407986 28.078882 
L 59.455859 22.166977 
L 59.503732 27.701527 
L 59.551605 27.701527 
L 59.599478 29.305288 
L 59.599478 22.009746 
L 59.64735 27.355617 
L 59.695223 27.355617 
L 59.743096 30.374462 
L 59.790969 22.607226 
L 59.838842 22.607226 
L 59.934588 30.248677 
L 59.982461 30.248677 
L 60.030334 22.261316 
L 60.078207 23.92797 
L 60.12608 23.92797 
L 60.12608 25.940534 
L 60.221825 21.946853 
L 60.317571 21.9783 
L 60.365444 21.223588 
L 60.413317 25.657517 
L 60.46119 25.657517 
L 60.509063 27.921651 
L 60.556936 27.701527 
L 60.604809 27.701527 
L 60.604809 24.116648 
L 60.652682 27.827312 
L 60.700555 27.104047 
L 60.748428 27.104047 
L 60.748428 25.154376 
L 60.844173 27.638634 
L 60.892046 27.638634 
L 60.987792 59.022044 
L 61.035665 59.022044 
L 61.131411 90.814256 
L 61.179284 90.814256 
L 61.27503 128.203909 
L 61.322903 128.203909 
L 61.418648 149.335825 
L 61.466521 149.335825 
L 61.562267 165.2791 
L 61.61014 165.2791 
L 61.705886 178.769564 
L 61.753759 178.769564 
L 61.849505 191.536763 
L 61.897378 191.536763 
L 61.993124 202.542969 
L 62.040996 202.542969 
L 62.136742 209.838511 
L 62.184615 209.838511 
L 62.280361 214.901365 
L 62.328234 214.901365 
L 62.42398 221.096287 
L 62.471853 221.096287 
L 62.567599 225.593108 
L 62.615471 225.593108 
L 62.711217 228.674846 
L 62.75909 228.674846 
L 62.854836 231.473567 
L 62.902709 231.473567 
L 62.998455 235.310016 
L 63.094201 235.341462 
L 63.189947 237.637042 
L 63.237819 237.637042 
L 63.333565 239.083572 
L 63.381438 239.083572 
L 63.477184 239.743944 
L 63.525057 239.743944 
L 63.620803 241.31626 
L 63.716549 241.253367 
L 63.716549 241.662169 
L 63.812294 241.473491 
L 63.860167 241.473491 
L 63.955913 242.920021 
L 64.003786 242.920021 
L 64.003786 242.605558 
L 64.051659 243.171591 
L 64.099532 243.171591 
L 64.195278 243.203038 
L 64.243151 244.052088 
L 64.291024 243.831964 
L 64.338897 243.831964 
L 64.338897 244.209319 
L 64.434642 244.146427 
L 64.482515 244.146427 
L 64.578261 244.743907 
L 64.626134 244.743907 
L 64.72188 244.366551 
L 64.769753 244.366551 
L 64.769753 244.901138 
L 64.865499 244.649568 
L 64.913372 244.649568 
L 64.913372 244.995477 
L 65.009117 244.743907 
L 65.05699 244.743907 
L 65.104863 245.341386 
L 65.152736 245.152709 
L 65.200609 245.152709 
L 65.200609 245.372833 
L 65.296355 245.247047 
L 65.392101 245.247047 
L 65.439974 245.467172 
L 65.487847 245.30994 
L 65.631465 245.341386 
L 65.631465 245.624403 
L 65.727211 245.435725 
L 65.775084 245.435725 
L 65.775084 245.655849 
L 65.87083 245.624403 
L 65.918703 245.624403 
L 65.918703 245.498618 
L 66.014449 245.655849 
L 66.493178 245.750188 
L 66.493178 245.781635 
L 66.588924 245.687296 
L 66.924034 245.655849 
L 66.924034 245.844527 
L 67.01978 245.781635 
L 68.408095 245.781635 
L 68.408095 245.781635 
" clip-path="url(#pad534c606c)" style="fill: none; stroke: #1f77b4; stroke-width: 1.5; stroke-linecap: square"/>
   </g>
   <g id="line2d_18">
    <path d="M 225.248789 227.574225 
L 225.296513 227.574225 
L 225.39196 196.66251 
L 225.439683 196.66251 
L 225.53513 167.386002 
L 225.582853 167.386002 
L 225.6783 140.499414 
L 225.726024 140.499414 
L 225.82147 120.153656 
L 225.869194 120.153656 
L 225.964641 98.5186 
L 226.012364 98.5186 
L 226.012364 99.745006 
L 226.060087 92.103554 
L 226.107811 93.738762 
L 226.155534 93.738762 
L 226.250981 79.745157 
L 226.298705 79.745157 
L 226.298705 73.959038 
L 226.394151 74.242054 
L 226.441875 74.242054 
L 226.489598 64.965395 
L 226.537322 65.311304 
L 226.585045 65.311304 
L 226.632768 53.298817 
L 226.680492 53.739065 
L 226.728215 53.739065 
L 226.728215 55.248488 
L 226.823662 52.512659 
L 226.871386 52.512659 
L 226.919109 45.814597 
L 226.966832 46.946664 
L 227.014556 46.946664 
L 227.062279 41.569346 
L 227.110003 46.883771 
L 227.157726 46.883771 
L 227.253173 39.965585 
L 227.300896 39.965585 
L 227.300896 41.820916 
L 227.396343 32.921613 
L 227.444067 32.921613 
L 227.539513 35.688887 
L 227.587237 35.688887 
L 227.682684 31.317851 
L 227.730407 31.317851 
L 227.825854 36.097689 
L 227.873577 36.097689 
L 227.873577 27.355617 
L 227.969024 30.846157 
L 228.064471 30.846157 
L 228.112194 31.097727 
L 228.159918 29.399627 
L 228.207641 29.399627 
L 228.207641 32.041116 
L 228.303088 30.280123 
L 228.350811 30.280123 
L 228.350811 24.714128 
L 228.446258 27.575741 
L 228.493982 27.575741 
L 228.493982 30.657479 
L 228.541705 23.990863 
L 228.589428 29.210949 
L 228.732599 29.242395 
L 228.732599 29.839875 
L 228.828046 27.701527 
L 228.875769 27.701527 
L 228.875769 25.877641 
L 228.923492 28.582023 
L 228.971216 26.097765 
L 229.018939 26.097765 
L 229.066663 30.059999 
L 229.114386 28.833593 
L 229.162109 28.833593 
L 229.162109 24.053755 
L 229.209833 30.217231 
L 229.257556 25.688963 
L 229.30528 25.688963 
L 229.353003 32.575703 
L 229.400727 26.789584 
L 229.44845 26.789584 
L 229.496173 30.405909 
L 229.543897 27.67008 
L 229.59162 27.67008 
L 229.59162 30.468801 
L 229.687067 24.179541 
L 229.73479 24.179541 
L 229.830237 29.273842 
L 229.877961 29.273842 
L 229.973408 25.248715 
L 230.021131 25.248715 
L 230.068854 31.726653 
L 230.116578 26.097765 
L 230.164301 26.097765 
L 230.259748 28.424792 
L 230.307471 28.424792 
L 230.307471 28.644916 
L 230.402918 24.588343 
L 230.450642 24.588343 
L 230.450642 21.475159 
L 230.546089 21.852514 
L 230.593812 21.852514 
L 230.641535 25.657517 
L 230.689259 25.154376 
L 230.736982 25.154376 
L 230.832429 29.242395 
L 230.880152 29.242395 
L 230.927876 27.261278 
L 230.975599 27.953097 
L 231.023323 27.953097 
L 231.023323 30.091446 
L 231.071046 22.009746 
L 231.118769 25.657517 
L 231.166493 25.657517 
L 231.166493 23.613507 
L 231.26194 24.368219 
L 231.309663 24.368219 
L 231.309663 31.41219 
L 231.40511 26.380782 
L 231.452833 26.380782 
L 231.500557 29.085164 
L 231.54828 24.368219 
L 231.596004 24.368219 
L 231.596004 24.210987 
L 231.643727 30.657479 
L 231.69145 29.179503 
L 231.739174 29.179503 
L 231.739174 25.437393 
L 231.834621 27.009708 
L 231.882344 27.009708 
L 231.882344 30.437355 
L 231.977791 24.77702 
L 232.025514 24.77702 
L 232.120961 49.965509 
L 232.168685 49.965509 
L 232.264131 84.304871 
L 232.311855 84.304871 
L 232.407302 107.763813 
L 232.455025 107.763813 
L 232.550472 136.631519 
L 232.598195 136.631519 
L 232.693642 155.908102 
L 232.741366 155.908102 
L 232.836812 172.731874 
L 232.884536 172.731874 
L 232.979983 186.159445 
L 233.027706 186.159445 
L 233.123153 197.543006 
L 233.170876 197.543006 
L 233.266323 204.115284 
L 233.314047 204.115284 
L 233.36177 211.410826 
L 233.409493 211.190702 
L 233.457217 211.190702 
L 233.552664 219.209509 
L 233.600387 219.209509 
L 233.695834 222.196908 
L 233.743557 222.196908 
L 233.839004 228.328937 
L 233.886728 228.328937 
L 233.982174 230.152822 
L 234.029898 230.152822 
L 234.125345 232.605634 
L 234.173068 232.605634 
L 234.220791 235.876049 
L 234.268515 235.404355 
L 234.316238 235.404355 
L 234.411685 237.668489 
L 234.459409 237.668489 
L 234.554855 239.02068 
L 234.602579 239.02068 
L 234.602579 238.580431 
L 234.698026 240.058408 
L 234.745749 240.058408 
L 234.745749 239.743944 
L 234.841196 241.190474 
L 234.888919 241.190474 
L 234.936643 241.347706 
L 234.984366 240.781672 
L 235.03209 240.781672 
L 235.079813 242.605558 
L 235.127536 242.574112 
L 235.17526 242.574112 
L 235.222983 243.234484 
L 235.270707 242.637004 
L 235.31843 242.637004 
L 235.413877 244.083534 
L 235.4616 244.083534 
L 235.509324 243.140145 
L 235.557047 244.052088 
L 235.604771 244.052088 
L 235.604771 243.391716 
L 235.700217 244.303658 
L 235.747941 244.303658 
L 235.795664 244.901138 
L 235.843388 244.681014 
L 235.938834 244.586675 
L 235.938834 244.303658 
L 236.034281 244.901138 
L 236.129728 244.806799 
L 236.129728 245.152709 
L 236.225175 244.869692 
L 236.320622 244.964031 
L 236.368345 245.372833 
L 236.416069 245.184155 
L 236.463792 245.184155 
L 236.463792 244.775353 
L 236.511515 245.372833 
L 236.559239 245.089816 
L 236.606962 245.089816 
L 236.702409 245.498618 
L 236.797856 245.467172 
L 236.797856 245.341386 
L 236.845579 245.530064 
L 236.893303 245.530064 
L 236.98875 245.530064 
L 236.98875 245.341386 
L 237.084196 245.530064 
L 237.13192 245.530064 
L 237.13192 245.278494 
L 237.179643 245.687296 
L 237.227367 245.687296 
L 237.27509 245.687296 
L 237.27509 245.467172 
L 237.322813 245.781635 
L 237.370537 245.687296 
L 238.038665 245.750188 
L 238.038665 245.813081 
L 238.086388 245.687296 
L 238.134112 245.813081 
L 239.518091 245.813081 
L 239.518091 245.687296 
L 239.565814 245.687296 
" clip-path="url(#pad534c606c)" style="fill: none; stroke: #ff7f0e; stroke-width: 1.5; stroke-linecap: square"/>
   </g>
   <g id="line2d_19">
    <path d="M 396.451377 227.857242 
L 396.498892 227.857242 
L 396.593921 197.826023 
L 396.641436 197.826023 
L 396.736465 167.448895 
L 396.78398 167.448895 
L 396.87901 141.662927 
L 396.926524 141.662927 
L 397.021554 119.839193 
L 397.069068 119.839193 
L 397.164098 100.56261 
L 397.211613 100.56261 
L 397.306642 88.958924 
L 397.354157 88.958924 
L 397.449186 76.034494 
L 397.496701 76.034494 
L 397.496701 77.103668 
L 397.59173 68.738951 
L 397.639245 68.738951 
L 397.68676 62.889939 
L 397.734274 64.210684 
L 397.781789 64.210684 
L 397.829304 55.625843 
L 397.876818 61.632087 
L 397.924333 61.632087 
L 398.019363 50.311418 
L 398.066877 50.311418 
L 398.066877 49.210798 
L 398.114392 52.606998 
L 398.161907 49.27369 
L 398.209421 49.27369 
L 398.304451 39.116534 
L 398.351966 39.116534 
L 398.351966 44.305174 
L 398.446995 38.927857 
L 398.49451 38.927857 
L 398.49451 39.965585 
L 398.589539 38.550501 
L 398.637054 38.550501 
L 398.684568 29.273842 
L 398.732083 35.468763 
L 398.779598 35.468763 
L 398.779598 37.984468 
L 398.874627 33.330415 
L 398.922142 33.330415 
L 398.969657 30.122892 
L 399.017171 40.34294 
L 399.064686 40.34294 
L 399.159716 29.368181 
L 399.20723 29.368181 
L 399.30226 33.865002 
L 399.349774 33.865002 
L 399.349774 31.003388 
L 399.397289 35.311532 
L 399.444804 32.198348 
L 399.492318 32.198348 
L 399.492318 28.173221 
L 399.539833 34.085126 
L 399.587348 30.783264 
L 399.634863 30.783264 
L 399.634863 29.273842 
L 399.729892 31.41219 
L 399.777407 31.41219 
L 399.777407 28.393345 
L 399.872436 33.770663 
L 399.919951 33.770663 
L 399.967466 33.927894 
L 400.01498 25.217269 
L 400.062495 25.217269 
L 400.062495 30.56314 
L 400.157524 29.210949 
L 400.205039 29.210949 
L 400.252554 30.877603 
L 400.300069 28.330453 
L 400.347583 28.330453 
L 400.442613 24.494004 
L 400.490127 24.494004 
L 400.537642 31.7581 
L 400.585157 27.041154 
L 400.632671 27.041154 
L 400.680186 30.374462 
L 400.727701 29.305288 
L 400.775216 29.305288 
L 400.82273 26.978262 
L 400.870245 32.732935 
L 400.91776 32.732935 
L 400.91776 25.028591 
L 401.012789 30.626033 
L 401.060304 30.626033 
L 401.107819 26.726691 
L 401.155333 29.11661 
L 401.202848 29.11661 
L 401.250363 25.783302 
L 401.297877 27.166939 
L 401.345392 27.166939 
L 401.345392 24.934252 
L 401.440421 25.594624 
L 401.487936 25.594624 
L 401.582966 29.053718 
L 401.63048 29.053718 
L 401.63048 31.129174 
L 401.677995 24.77702 
L 401.72551 28.896486 
L 401.773024 28.896486 
L 401.868054 25.626071 
L 401.915569 25.626071 
L 402.010598 28.236114 
L 402.058113 28.236114 
L 402.058113 33.141737 
L 402.153142 27.984543 
L 402.200657 27.984543 
L 402.200657 28.393345 
L 402.295686 26.412228 
L 402.343201 26.412228 
L 402.43823 30.028553 
L 402.485745 30.028553 
L 402.580774 26.254997 
L 402.628289 26.254997 
L 402.628289 21.192142 
L 402.723319 26.600906 
L 402.770833 26.600906 
L 402.770833 28.707808 
L 402.865863 26.003426 
L 402.913377 26.003426 
L 403.008407 27.732973 
L 403.055922 27.732973 
L 403.055922 33.361861 
L 403.150951 23.110366 
L 403.198466 23.110366 
L 403.293495 44.399513 
L 403.34101 44.399513 
L 403.436039 73.990484 
L 403.483554 73.990484 
L 403.578583 101.851908 
L 403.626098 101.851908 
L 403.721127 131.631556 
L 403.768642 131.631556 
L 403.863672 150.593677 
L 403.911186 150.593677 
L 404.006216 170.562079 
L 404.05373 170.562079 
L 404.14876 185.153163 
L 404.196275 185.153163 
L 404.291304 195.624782 
L 404.338819 195.624782 
L 404.433848 203.140448 
L 404.481363 203.140448 
L 404.576392 211.253594 
L 404.623907 211.253594 
L 404.671422 216.851036 
L 404.718936 216.505127 
L 404.766451 216.505127 
L 404.86148 222.762941 
L 404.908995 222.762941 
L 405.004025 227.039638 
L 405.099054 226.976746 
L 405.194083 231.001872 
L 405.241598 231.001872 
L 405.289113 234.33518 
L 405.336627 233.171667 
L 405.384142 233.171667 
L 405.431657 235.247123 
L 405.479172 235.089892 
L 405.526686 235.089892 
L 405.574201 237.071009 
L 405.621716 236.37919 
L 405.66923 236.37919 
L 405.76426 240.058408 
L 405.811775 240.058408 
L 405.811775 239.838283 
L 405.906804 240.404317 
L 405.954319 240.404317 
L 406.049348 240.781672 
L 406.096863 240.781672 
L 406.144378 241.976632 
L 406.191892 241.882293 
L 406.239407 241.882293 
L 406.239407 242.448326 
L 406.334436 242.322541 
L 406.381951 242.322541 
L 406.47698 243.297377 
L 406.57201 243.391716 
L 406.57201 243.706179 
L 406.667039 243.706179 
L 406.714554 243.706179 
L 406.762069 244.335105 
L 406.809583 244.303658 
L 406.857098 244.303658 
L 406.857098 244.083534 
L 406.952128 244.586675 
L 407.094672 244.523782 
L 407.094672 244.397997 
L 407.189701 244.964031 
L 407.237216 244.964031 
L 407.237216 245.089816 
L 407.28473 244.901138 
L 407.332245 245.026923 
L 407.37976 245.026923 
L 407.37976 244.869692 
L 407.474789 245.215601 
L 407.522304 245.215601 
L 407.569819 245.026923 
L 407.617333 245.215601 
L 407.664848 245.215601 
L 407.664848 245.05837 
L 407.759878 245.278494 
L 407.949936 245.247047 
L 408.044966 245.592957 
L 408.09248 245.592957 
L 408.09248 245.467172 
L 408.18751 245.687296 
L 408.235025 245.687296 
L 408.235025 245.435725 
L 408.330054 245.435725 
L 408.377569 245.435725 
L 408.377569 245.687296 
L 408.472598 245.655849 
L 408.99526 245.687296 
L 408.99526 245.813081 
L 409.090289 245.813081 
L 409.232833 245.750188 
L 409.232833 245.624403 
L 409.327863 245.781635 
L 409.422892 245.813081 
L 409.422892 245.655849 
L 409.517922 245.844527 
L 410.705789 245.781635 
L 410.705789 245.781635 
" clip-path="url(#pad534c606c)" style="fill: none; stroke: #2ca02c; stroke-width: 1.5; stroke-linecap: square"/>
   </g>
   <g id="patch_3">
    <path d="M 53.328125 257.155762 
L 53.328125 8.308592 
" style="fill: none; stroke: #000000; stroke-width: 0.8; stroke-linejoin: miter; stroke-linecap: square"/>
   </g>
   <g id="patch_4">
    <path d="M 411.41851 257.155762 
L 411.41851 8.308592 
" style="fill: none; stroke: #000000; stroke-width: 0.8; stroke-linejoin: miter; stroke-linecap: square"/>
   </g>
   <g id="patch_5">
    <path d="M 53.328125 257.155762 
L 411.41851 257.155762 
" style="fill: none; stroke: #000000; stroke-width: 0.8; stroke-linejoin: miter; stroke-linecap: square"/>
   </g>
   <g id="patch_6">
    <path d="M 53.328125 8.308592 
L 411.41851 8.308592 
" style="fill: none; stroke: #000000; stroke-width: 0.8; stroke-linejoin: miter; stroke-linecap: square"/>
   </g>
   <g id="legend_1">
    <g id="patch_7">
     <path d="M 60.328125 156.249365 
L 128.885938 156.249365 
Q 130.885938 156.249365 130.885938 154.249365 
L 130.885938 111.21499 
Q 130.885938 109.21499 128.885938 109.21499 
L 60.328125 109.21499 
Q 58.328125 109.21499 58.328125 111.21499 
L 58.328125 154.249365 
Q 58.328125 156.249365 60.328125 156.249365 
z
" style="fill: #ffffff; opacity: 0.8; stroke: #cccccc; stroke-linejoin: miter"/>
    </g>
    <g id="line2d_20">
     <path d="M 62.328125 117.313427 
L 62.328125 117.313427 
L 72.328125 117.313427 
L 72.328125 117.313427 
L 82.328125 117.313427 
" style="fill: none; stroke: #1f77b4; stroke-width: 1.5; stroke-linecap: square"/>
    </g>
    <g id="text_19">
     <!-- pulse:0 -->
     <g transform="translate(90.328125 120.813427) scale(0.1 -0.1)">
      <defs>
       <path id="DejaVuSans-70" d="M 1159 525 
L 1159 -1331 
L 581 -1331 
L 581 3500 
L 1159 3500 
L 1159 2969 
Q 1341 3281 1617 3432 
Q 1894 3584 2278 3584 
Q 2916 3584 3314 3078 
Q 3713 2572 3713 1747 
Q 3713 922 3314 415 
Q 2916 -91 2278 -91 
Q 1894 -91 1617 61 
Q 1341 213 1159 525 
z
M 3116 1747 
Q 3116 2381 2855 2742 
Q 2594 3103 2138 3103 
Q 1681 3103 1420 2742 
Q 1159 2381 1159 1747 
Q 1159 1113 1420 752 
Q 1681 391 2138 391 
Q 2594 391 2855 752 
Q 3116 1113 3116 1747 
z
" transform="scale(0.015625)"/>
       <path id="DejaVuSans-6c" d="M 603 4863 
L 1178 4863 
L 1178 0 
L 603 0 
L 603 4863 
z
" transform="scale(0.015625)"/>
       <path id="DejaVuSans-3a" d="M 750 794 
L 1409 794 
L 1409 0 
L 750 0 
L 750 794 
z
M 750 3309 
L 1409 3309 
L 1409 2516 
L 750 2516 
L 750 3309 
z
" transform="scale(0.015625)"/>
      </defs>
      <use xlink:href="#DejaVuSans-70"/>
      <use xlink:href="#DejaVuSans-75" transform="translate(63.476562 0)"/>
      <use xlink:href="#DejaVuSans-6c" transform="translate(126.855469 0)"/>
      <use xlink:href="#DejaVuSans-73" transform="translate(154.638672 0)"/>
      <use xlink:href="#DejaVuSans-65" transform="translate(206.738281 0)"/>
      <use xlink:href="#DejaVuSans-3a" transform="translate(268.261719 0)"/>
      <use xlink:href="#DejaVuSans-30" transform="translate(301.953125 0)"/>
     </g>
    </g>
    <g id="line2d_21">
     <path d="M 62.328125 131.991552 
L 62.328125 131.991552 
L 72.328125 131.991552 
L 72.328125 131.991552 
L 82.328125 131.991552 
" style="fill: none; stroke: #ff7f0e; stroke-width: 1.5; stroke-linecap: square"/>
    </g>
    <g id="text_20">
     <!-- pulse:1 -->
     <g transform="translate(90.328125 135.491552) scale(0.1 -0.1)">
      <use xlink:href="#DejaVuSans-70"/>
      <use xlink:href="#DejaVuSans-75" transform="translate(63.476562 0)"/>
      <use xlink:href="#DejaVuSans-6c" transform="translate(126.855469 0)"/>
      <use xlink:href="#DejaVuSans-73" transform="translate(154.638672 0)"/>
      <use xlink:href="#DejaVuSans-65" transform="translate(206.738281 0)"/>
      <use xlink:href="#DejaVuSans-3a" transform="translate(268.261719 0)"/>
      <use xlink:href="#DejaVuSans-31" transform="translate(301.953125 0)"/>
     </g>
    </g>
    <g id="line2d_22">
     <path d="M 62.328125 146.669677 
L 62.328125 146.669677 
L 72.328125 146.669677 
L 72.328125 146.669677 
L 82.328125 146.669677 
" style="fill: none; stroke: #2ca02c; stroke-width: 1.5; stroke-linecap: square"/>
    </g>
    <g id="text_21">
     <!-- pulse:2 -->
     <g transform="translate(90.328125 150.169677) scale(0.1 -0.1)">
      <use xlink:href="#DejaVuSans-70"/>
      <use xlink:href="#DejaVuSans-75" transform="translate(63.476562 0)"/>
      <use xlink:href="#DejaVuSans-6c" transform="translate(126.855469 0)"/>
      <use xlink:href="#DejaVuSans-73" transform="translate(154.638672 0)"/>
      <use xlink:href="#DejaVuSans-65" transform="translate(206.738281 0)"/>
      <use xlink:href="#DejaVuSans-3a" transform="translate(268.261719 0)"/>
      <use xlink:href="#DejaVuSans-32" transform="translate(301.953125 0)"/>
     </g>
    </g>
   </g>
  </g>
  <g id="axes_2">
   <g id="patch_8">
    <path d="M 507.109135 257.155762 
L 865.19952 257.155762 
L 865.19952 8.308592 
L 507.109135 8.308592 
z
" style="fill: #ffffff"/>
   </g>
   <g id="matplotlib.axis_3">
    <g id="xtick_9">
     <g id="line2d_23">
      <g>
       <use xlink:href="#m645beb29c7" x="521.749348" y="257.155762" style="stroke: #000000; stroke-width: 0.8"/>
      </g>
     </g>
     <g id="text_22">
      <!-- 0.0 -->
      <g transform="translate(513.797785 271.7542) scale(0.1 -0.1)">
       <defs>
        <path id="DejaVuSans-2e" d="M 684 794 
L 1344 794 
L 1344 0 
L 684 0 
L 684 794 
z
" transform="scale(0.015625)"/>
       </defs>
       <use xlink:href="#DejaVuSans-30"/>
       <use xlink:href="#DejaVuSans-2e" transform="translate(63.623047 0)"/>
       <use xlink:href="#DejaVuSans-30" transform="translate(95.410156 0)"/>
      </g>
     </g>
    </g>
    <g id="xtick_10">
     <g id="line2d_24">
      <g>
       <use xlink:href="#m645beb29c7" x="562.664662" y="257.155762" style="stroke: #000000; stroke-width: 0.8"/>
      </g>
     </g>
     <g id="text_23">
      <!-- 2.5 -->
      <g transform="translate(554.7131 271.7542) scale(0.1 -0.1)">
       <use xlink:href="#DejaVuSans-32"/>
       <use xlink:href="#DejaVuSans-2e" transform="translate(63.623047 0)"/>
       <use xlink:href="#DejaVuSans-35" transform="translate(95.410156 0)"/>
      </g>
     </g>
    </g>
    <g id="xtick_11">
     <g id="line2d_25">
      <g>
       <use xlink:href="#m645beb29c7" x="603.579977" y="257.155762" style="stroke: #000000; stroke-width: 0.8"/>
      </g>
     </g>
     <g id="text_24">
      <!-- 5.0 -->
      <g transform="translate(595.628414 271.7542) scale(0.1 -0.1)">
       <use xlink:href="#DejaVuSans-35"/>
       <use xlink:href="#DejaVuSans-2e" transform="translate(63.623047 0)"/>
       <use xlink:href="#DejaVuSans-30" transform="translate(95.410156 0)"/>
      </g>
     </g>
    </g>
    <g id="xtick_12">
     <g id="line2d_26">
      <g>
       <use xlink:href="#m645beb29c7" x="644.495291" y="257.155762" style="stroke: #000000; stroke-width: 0.8"/>
      </g>
     </g>
     <g id="text_25">
      <!-- 7.5 -->
      <g transform="translate(636.543729 271.7542) scale(0.1 -0.1)">
       <use xlink:href="#DejaVuSans-37"/>
       <use xlink:href="#DejaVuSans-2e" transform="translate(63.623047 0)"/>
       <use xlink:href="#DejaVuSans-35" transform="translate(95.410156 0)"/>
      </g>
     </g>
    </g>
    <g id="xtick_13">
     <g id="line2d_27">
      <g>
       <use xlink:href="#m645beb29c7" x="685.410606" y="257.155762" style="stroke: #000000; stroke-width: 0.8"/>
      </g>
     </g>
     <g id="text_26">
      <!-- 10.0 -->
      <g transform="translate(674.277793 271.7542) scale(0.1 -0.1)">
       <use xlink:href="#DejaVuSans-31"/>
       <use xlink:href="#DejaVuSans-30" transform="translate(63.623047 0)"/>
       <use xlink:href="#DejaVuSans-2e" transform="translate(127.246094 0)"/>
       <use xlink:href="#DejaVuSans-30" transform="translate(159.033203 0)"/>
      </g>
     </g>
    </g>
    <g id="xtick_14">
     <g id="line2d_28">
      <g>
       <use xlink:href="#m645beb29c7" x="726.32592" y="257.155762" style="stroke: #000000; stroke-width: 0.8"/>
      </g>
     </g>
     <g id="text_27">
      <!-- 12.5 -->
      <g transform="translate(715.193108 271.7542) scale(0.1 -0.1)">
       <use xlink:href="#DejaVuSans-31"/>
       <use xlink:href="#DejaVuSans-32" transform="translate(63.623047 0)"/>
       <use xlink:href="#DejaVuSans-2e" transform="translate(127.246094 0)"/>
       <use xlink:href="#DejaVuSans-35" transform="translate(159.033203 0)"/>
      </g>
     </g>
    </g>
    <g id="xtick_15">
     <g id="line2d_29">
      <g>
       <use xlink:href="#m645beb29c7" x="767.241234" y="257.155762" style="stroke: #000000; stroke-width: 0.8"/>
      </g>
     </g>
     <g id="text_28">
      <!-- 15.0 -->
      <g transform="translate(756.108422 271.7542) scale(0.1 -0.1)">
       <use xlink:href="#DejaVuSans-31"/>
       <use xlink:href="#DejaVuSans-35" transform="translate(63.623047 0)"/>
       <use xlink:href="#DejaVuSans-2e" transform="translate(127.246094 0)"/>
       <use xlink:href="#DejaVuSans-30" transform="translate(159.033203 0)"/>
      </g>
     </g>
    </g>
    <g id="xtick_16">
     <g id="line2d_30">
      <g>
       <use xlink:href="#m645beb29c7" x="808.156549" y="257.155762" style="stroke: #000000; stroke-width: 0.8"/>
      </g>
     </g>
     <g id="text_29">
      <!-- 17.5 -->
      <g transform="translate(797.023736 271.7542) scale(0.1 -0.1)">
       <use xlink:href="#DejaVuSans-31"/>
       <use xlink:href="#DejaVuSans-37" transform="translate(63.623047 0)"/>
       <use xlink:href="#DejaVuSans-2e" transform="translate(127.246094 0)"/>
       <use xlink:href="#DejaVuSans-35" transform="translate(159.033203 0)"/>
      </g>
     </g>
    </g>
    <g id="xtick_17">
     <g id="line2d_31">
      <g>
       <use xlink:href="#m645beb29c7" x="849.071863" y="257.155762" style="stroke: #000000; stroke-width: 0.8"/>
      </g>
     </g>
     <g id="text_30">
      <!-- 20.0 -->
      <g transform="translate(837.939051 271.7542) scale(0.1 -0.1)">
       <use xlink:href="#DejaVuSans-32"/>
       <use xlink:href="#DejaVuSans-30" transform="translate(63.623047 0)"/>
       <use xlink:href="#DejaVuSans-2e" transform="translate(127.246094 0)"/>
       <use xlink:href="#DejaVuSans-30" transform="translate(159.033203 0)"/>
      </g>
     </g>
    </g>
    <g id="text_31">
     <!-- wavelength [Å] -->
     <g transform="translate(648.116827 287.1167) scale(0.1 -0.1)">
      <defs>
       <path id="DejaVuSans-77" d="M 269 3500 
L 844 3500 
L 1563 769 
L 2278 3500 
L 2956 3500 
L 3675 769 
L 4391 3500 
L 4966 3500 
L 4050 0 
L 3372 0 
L 2619 2869 
L 1863 0 
L 1184 0 
L 269 3500 
z
" transform="scale(0.015625)"/>
       <path id="DejaVuSans-61" d="M 2194 1759 
Q 1497 1759 1228 1600 
Q 959 1441 959 1056 
Q 959 750 1161 570 
Q 1363 391 1709 391 
Q 2188 391 2477 730 
Q 2766 1069 2766 1631 
L 2766 1759 
L 2194 1759 
z
M 3341 1997 
L 3341 0 
L 2766 0 
L 2766 531 
Q 2569 213 2275 61 
Q 1981 -91 1556 -91 
Q 1019 -91 701 211 
Q 384 513 384 1019 
Q 384 1609 779 1909 
Q 1175 2209 1959 2209 
L 2766 2209 
L 2766 2266 
Q 2766 2663 2505 2880 
Q 2244 3097 1772 3097 
Q 1472 3097 1187 3025 
Q 903 2953 641 2809 
L 641 3341 
Q 956 3463 1253 3523 
Q 1550 3584 1831 3584 
Q 2591 3584 2966 3190 
Q 3341 2797 3341 1997 
z
" transform="scale(0.015625)"/>
       <path id="DejaVuSans-76" d="M 191 3500 
L 800 3500 
L 1894 563 
L 2988 3500 
L 3597 3500 
L 2284 0 
L 1503 0 
L 191 3500 
z
" transform="scale(0.015625)"/>
       <path id="DejaVuSans-67" d="M 2906 1791 
Q 2906 2416 2648 2759 
Q 2391 3103 1925 3103 
Q 1463 3103 1205 2759 
Q 947 2416 947 1791 
Q 947 1169 1205 825 
Q 1463 481 1925 481 
Q 2391 481 2648 825 
Q 2906 1169 2906 1791 
z
M 3481 434 
Q 3481 -459 3084 -895 
Q 2688 -1331 1869 -1331 
Q 1566 -1331 1297 -1286 
Q 1028 -1241 775 -1147 
L 775 -588 
Q 1028 -725 1275 -790 
Q 1522 -856 1778 -856 
Q 2344 -856 2625 -561 
Q 2906 -266 2906 331 
L 2906 616 
Q 2728 306 2450 153 
Q 2172 0 1784 0 
Q 1141 0 747 490 
Q 353 981 353 1791 
Q 353 2603 747 3093 
Q 1141 3584 1784 3584 
Q 2172 3584 2450 3431 
Q 2728 3278 2906 2969 
L 2906 3500 
L 3481 3500 
L 3481 434 
z
" transform="scale(0.015625)"/>
       <path id="DejaVuSans-c5" d="M 2663 5081 
Q 2663 5278 2523 5417 
Q 2384 5556 2188 5556 
Q 1988 5556 1852 5420 
Q 1716 5284 1716 5081 
Q 1716 4884 1853 4746 
Q 1991 4609 2188 4609 
Q 2384 4609 2523 4746 
Q 2663 4884 2663 5081 
z
M 2188 4044 
L 1338 1722 
L 3041 1722 
L 2188 4044 
z
M 1716 4366 
Q 1525 4494 1428 4673 
Q 1331 4853 1331 5081 
Q 1331 5441 1579 5691 
Q 1828 5941 2188 5941 
Q 2544 5941 2795 5689 
Q 3047 5438 3047 5081 
Q 3047 4863 2948 4678 
Q 2850 4494 2663 4366 
L 4325 0 
L 3669 0 
L 3244 1197 
L 1141 1197 
L 716 0 
L 50 0 
L 1716 4366 
z
" transform="scale(0.015625)"/>
      </defs>
      <use xlink:href="#DejaVuSans-77"/>
      <use xlink:href="#DejaVuSans-61" transform="translate(81.787109 0)"/>
      <use xlink:href="#DejaVuSans-76" transform="translate(143.066406 0)"/>
      <use xlink:href="#DejaVuSans-65" transform="translate(202.246094 0)"/>
      <use xlink:href="#DejaVuSans-6c" transform="translate(263.769531 0)"/>
      <use xlink:href="#DejaVuSans-65" transform="translate(291.552734 0)"/>
      <use xlink:href="#DejaVuSans-6e" transform="translate(353.076172 0)"/>
      <use xlink:href="#DejaVuSans-67" transform="translate(416.455078 0)"/>
      <use xlink:href="#DejaVuSans-74" transform="translate(479.931641 0)"/>
      <use xlink:href="#DejaVuSans-68" transform="translate(519.140625 0)"/>
      <use xlink:href="#DejaVuSans-20" transform="translate(582.519531 0)"/>
      <use xlink:href="#DejaVuSans-5b" transform="translate(614.306641 0)"/>
      <use xlink:href="#DejaVuSans-c5" transform="translate(653.320312 0)"/>
      <use xlink:href="#DejaVuSans-5d" transform="translate(721.728516 0)"/>
     </g>
    </g>
   </g>
   <g id="matplotlib.axis_4">
    <g id="ytick_9">
     <g id="line2d_32">
      <g>
       <use xlink:href="#m89c4d2d546" x="507.109135" y="245.885899" style="stroke: #000000; stroke-width: 0.8"/>
      </g>
     </g>
     <g id="text_32">
      <!-- 0 -->
      <g transform="translate(493.746635 249.685118) scale(0.1 -0.1)">
       <use xlink:href="#DejaVuSans-30"/>
      </g>
     </g>
    </g>
    <g id="ytick_10">
     <g id="line2d_33">
      <g>
       <use xlink:href="#m89c4d2d546" x="507.109135" y="206.738119" style="stroke: #000000; stroke-width: 0.8"/>
      </g>
     </g>
     <g id="text_33">
      <!-- 5000 -->
      <g transform="translate(474.659135 210.537338) scale(0.1 -0.1)">
       <use xlink:href="#DejaVuSans-35"/>
       <use xlink:href="#DejaVuSans-30" transform="translate(63.623047 0)"/>
       <use xlink:href="#DejaVuSans-30" transform="translate(127.246094 0)"/>
       <use xlink:href="#DejaVuSans-30" transform="translate(190.869141 0)"/>
      </g>
     </g>
    </g>
    <g id="ytick_11">
     <g id="line2d_34">
      <g>
       <use xlink:href="#m89c4d2d546" x="507.109135" y="167.590339" style="stroke: #000000; stroke-width: 0.8"/>
      </g>
     </g>
     <g id="text_34">
      <!-- 10000 -->
      <g transform="translate(468.296635 171.389558) scale(0.1 -0.1)">
       <use xlink:href="#DejaVuSans-31"/>
       <use xlink:href="#DejaVuSans-30" transform="translate(63.623047 0)"/>
       <use xlink:href="#DejaVuSans-30" transform="translate(127.246094 0)"/>
       <use xlink:href="#DejaVuSans-30" transform="translate(190.869141 0)"/>
       <use xlink:href="#DejaVuSans-30" transform="translate(254.492188 0)"/>
      </g>
     </g>
    </g>
    <g id="ytick_12">
     <g id="line2d_35">
      <g>
       <use xlink:href="#m89c4d2d546" x="507.109135" y="128.442559" style="stroke: #000000; stroke-width: 0.8"/>
      </g>
     </g>
     <g id="text_35">
      <!-- 15000 -->
      <g transform="translate(468.296635 132.241778) scale(0.1 -0.1)">
       <use xlink:href="#DejaVuSans-31"/>
       <use xlink:href="#DejaVuSans-35" transform="translate(63.623047 0)"/>
       <use xlink:href="#DejaVuSans-30" transform="translate(127.246094 0)"/>
       <use xlink:href="#DejaVuSans-30" transform="translate(190.869141 0)"/>
       <use xlink:href="#DejaVuSans-30" transform="translate(254.492188 0)"/>
      </g>
     </g>
    </g>
    <g id="ytick_13">
     <g id="line2d_36">
      <g>
       <use xlink:href="#m89c4d2d546" x="507.109135" y="89.294779" style="stroke: #000000; stroke-width: 0.8"/>
      </g>
     </g>
     <g id="text_36">
      <!-- 20000 -->
      <g transform="translate(468.296635 93.093998) scale(0.1 -0.1)">
       <use xlink:href="#DejaVuSans-32"/>
       <use xlink:href="#DejaVuSans-30" transform="translate(63.623047 0)"/>
       <use xlink:href="#DejaVuSans-30" transform="translate(127.246094 0)"/>
       <use xlink:href="#DejaVuSans-30" transform="translate(190.869141 0)"/>
       <use xlink:href="#DejaVuSans-30" transform="translate(254.492188 0)"/>
      </g>
     </g>
    </g>
    <g id="ytick_14">
     <g id="line2d_37">
      <g>
       <use xlink:href="#m89c4d2d546" x="507.109135" y="50.146999" style="stroke: #000000; stroke-width: 0.8"/>
      </g>
     </g>
     <g id="text_37">
      <!-- 25000 -->
      <g transform="translate(468.296635 53.946218) scale(0.1 -0.1)">
       <use xlink:href="#DejaVuSans-32"/>
       <use xlink:href="#DejaVuSans-35" transform="translate(63.623047 0)"/>
       <use xlink:href="#DejaVuSans-30" transform="translate(127.246094 0)"/>
       <use xlink:href="#DejaVuSans-30" transform="translate(190.869141 0)"/>
       <use xlink:href="#DejaVuSans-30" transform="translate(254.492188 0)"/>
      </g>
     </g>
    </g>
    <g id="ytick_15">
     <g id="line2d_38">
      <g>
       <use xlink:href="#m89c4d2d546" x="507.109135" y="10.999219" style="stroke: #000000; stroke-width: 0.8"/>
      </g>
     </g>
     <g id="text_38">
      <!-- 30000 -->
      <g transform="translate(468.296635 14.798437) scale(0.1 -0.1)">
       <use xlink:href="#DejaVuSans-33"/>
       <use xlink:href="#DejaVuSans-30" transform="translate(63.623047 0)"/>
       <use xlink:href="#DejaVuSans-30" transform="translate(127.246094 0)"/>
       <use xlink:href="#DejaVuSans-30" transform="translate(190.869141 0)"/>
       <use xlink:href="#DejaVuSans-30" transform="translate(254.492188 0)"/>
      </g>
     </g>
    </g>
    <g id="text_39">
     <!-- [counts] -->
     <g transform="translate(462.216947 153.344677) rotate(-90) scale(0.1 -0.1)">
      <use xlink:href="#DejaVuSans-5b"/>
      <use xlink:href="#DejaVuSans-63" transform="translate(39.013672 0)"/>
      <use xlink:href="#DejaVuSans-6f" transform="translate(93.994141 0)"/>
      <use xlink:href="#DejaVuSans-75" transform="translate(155.175781 0)"/>
      <use xlink:href="#DejaVuSans-6e" transform="translate(218.554688 0)"/>
      <use xlink:href="#DejaVuSans-74" transform="translate(281.933594 0)"/>
      <use xlink:href="#DejaVuSans-73" transform="translate(321.142578 0)"/>
      <use xlink:href="#DejaVuSans-5d" transform="translate(373.242188 0)"/>
     </g>
    </g>
   </g>
   <g id="line2d_39">
    <path d="M 523.385965 19.830958 
L 524.470348 19.830958 
L 524.470348 80.81537 
L 525.554731 80.81537 
L 525.554731 125.647408 
L 526.639114 125.647408 
L 526.639114 153.152638 
L 527.723497 153.152638 
L 527.723497 168.514227 
L 528.807881 168.514227 
L 528.807881 180.665698 
L 529.892264 180.665698 
L 529.892264 187.273843 
L 530.976647 187.273843 
L 530.976647 185.684443 
L 532.06103 185.684443 
L 532.06103 175.670441 
L 533.145413 175.670441 
L 533.145413 158.555031 
L 534.229796 158.555031 
L 534.229796 134.667056 
L 535.314179 134.667056 
L 535.314179 111.836071 
L 536.398562 111.836071 
L 536.398562 94.556241 
L 537.482945 94.556241 
L 537.482945 81.183359 
L 538.567328 81.183359 
L 538.567328 76.000193 
L 539.651711 76.000193 
L 539.651711 74.966691 
L 540.736094 74.966691 
L 540.736094 77.785332 
L 541.820477 77.785332 
L 541.820477 84.691 
L 542.90486 84.691 
L 542.90486 90.531849 
L 543.989244 90.531849 
L 543.989244 100.56151 
L 545.073627 100.56151 
L 545.073627 108.046566 
L 546.15801 108.046566 
L 546.15801 115.210609 
L 547.242393 115.210609 
L 547.242393 123.196756 
L 548.326776 123.196756 
L 548.326776 130.19638 
L 549.411159 130.19638 
L 549.411159 134.048521 
L 550.495542 134.048521 
L 550.495542 137.931981 
L 551.579925 137.931981 
L 551.579925 141.611872 
L 552.664308 141.611872 
L 552.664308 141.455281 
L 553.748691 141.455281 
L 553.748691 139.850222 
L 554.833074 139.850222 
L 554.833074 141.909395 
L 555.917457 141.909395 
L 555.917457 136.757547 
L 557.00184 136.757547 
L 557.00184 132.600053 
L 558.086223 132.600053 
L 558.086223 125.60826 
L 559.170606 125.60826 
L 559.170606 119.665627 
L 560.25499 119.665627 
L 560.25499 109.925659 
L 561.339373 109.925659 
L 561.339373 103.239218 
L 562.423756 103.239218 
L 562.423756 96.255254 
L 563.508139 96.255254 
L 563.508139 95.44098 
L 564.592522 95.44098 
L 564.592522 102.049126 
L 565.676905 102.049126 
L 565.676905 108.978283 
L 566.761288 108.978283 
L 566.761288 116.846987 
L 567.845671 116.846987 
L 567.845671 123.776144 
L 568.930054 123.776144 
L 568.930054 132.83494 
L 570.014437 132.83494 
L 570.014437 135.027216 
L 571.09882 135.027216 
L 571.09882 142.895919 
L 572.183203 142.895919 
L 572.183203 146.959459 
L 573.267586 146.959459 
L 573.267586 151.226567 
L 574.351969 151.226567 
L 574.351969 155.337084 
L 575.436353 155.337084 
L 575.436353 161.75732 
L 576.520736 161.75732 
L 576.520736 166.392417 
L 577.605119 166.392417 
L 577.605119 171.199764 
L 578.689502 171.199764 
L 578.689502 173.908791 
L 579.773885 173.908791 
L 579.773885 176.688283 
L 580.858268 176.688283 
L 580.858268 180.430811 
L 581.942651 180.430811 
L 581.942651 183.233792 
L 583.027034 183.233792 
L 583.027034 186.248171 
L 584.111417 186.248171 
L 584.111417 189.192084 
L 585.1958 189.192084 
L 585.1958 191.721031 
L 586.280183 191.721031 
L 586.280183 194.265636 
L 587.364566 194.265636 
L 587.364566 197.55405 
L 588.448949 197.55405 
L 588.448949 198.642358 
L 589.533332 198.642358 
L 589.533332 201.312237 
L 590.617715 201.312237 
L 590.617715 203.621956 
L 591.702099 203.621956 
L 591.702099 206.949517 
L 592.786482 206.949517 
L 592.786482 208.092632 
L 593.870865 208.092632 
L 593.870865 209.689862 
L 594.955248 209.689862 
L 594.955248 210.966079 
L 596.039631 210.966079 
L 596.039631 212.148342 
L 597.124014 212.148342 
L 597.124014 213.573322 
L 598.208397 213.573322 
L 598.208397 214.786903 
L 599.29278 214.786903 
L 599.29278 217.245383 
L 600.377163 217.245383 
L 600.377163 217.997021 
L 601.461546 217.997021 
L 601.461546 219.257579 
L 602.545929 219.257579 
L 602.545929 220.995741 
L 604.714695 221.027059 
L 604.714695 222.882664 
L 605.799078 222.882664 
L 605.799078 223.845699 
L 606.883462 223.845699 
L 606.883462 224.980985 
L 609.052228 225.020132 
L 609.052228 227.063647 
L 611.220994 227.040158 
L 611.220994 227.415977 
L 612.305377 227.415977 
L 612.305377 228.527774 
L 613.38976 228.527774 
L 613.38976 229.537786 
L 614.474143 229.537786 
L 614.474143 229.678718 
L 615.558526 229.678718 
L 615.558526 231.659596 
L 616.642909 231.659596 
L 616.642909 231.534323 
L 617.727292 231.534323 
L 617.727292 231.917971 
L 619.896058 231.996267 
L 619.896058 233.303803 
L 620.980441 233.303803 
L 620.980441 233.554349 
L 623.149208 233.554349 
L 623.149208 234.423429 
L 625.317974 234.525213 
L 625.317974 234.908862 
L 626.402357 234.908862 
L 626.402357 235.535226 
L 627.48674 235.535226 
L 627.48674 236.185079 
L 629.655506 236.271204 
L 629.655506 236.592216 
L 630.739889 236.592216 
L 630.739889 236.87408 
L 631.824272 236.87408 
L 631.824272 237.484786 
L 632.908655 237.484786 
L 632.908655 237.93107 
L 633.993038 237.93107 
L 633.993038 238.573094 
L 636.161804 238.596583 
L 636.161804 238.768833 
L 637.246187 238.768833 
L 637.246187 238.369525 
L 638.33057 238.369525 
L 638.33057 239.050697 
L 639.414954 239.050697 
L 639.414954 239.269924 
L 640.499337 239.269924 
L 640.499337 239.88063 
L 641.58372 239.88063 
L 641.58372 239.567448 
L 642.668103 239.567448 
L 642.668103 239.998073 
L 644.836869 240.099857 
L 644.836869 240.358233 
L 645.921252 240.358233 
L 645.921252 240.514824 
L 647.005635 240.514824 
L 647.005635 240.804517 
L 649.174401 240.773199 
L 649.174401 241.070722 
L 650.258784 241.070722 
L 650.258784 241.556155 
L 651.343167 241.556155 
L 651.343167 240.773199 
L 652.42755 240.773199 
L 652.42755 241.728405 
L 653.511933 241.728405 
L 653.511933 241.524837 
L 654.596317 241.524837 
L 654.596317 241.751894 
L 655.6807 241.751894 
L 655.6807 242.299963 
L 656.765083 242.299963 
L 656.765083 242.135542 
L 661.102615 242.182519 
L 661.102615 242.628804 
L 663.271381 242.52702 
L 663.271381 242.855861 
L 667.608913 242.918498 
L 667.608913 243.0516 
L 669.777679 243.05943 
L 669.777679 243.325634 
L 670.862063 243.325634 
L 670.862063 243.450907 
L 673.030829 243.364782 
L 673.030829 243.325634 
L 674.115212 243.325634 
L 674.115212 243.693624 
L 677.368361 243.670135 
L 677.368361 243.490055 
L 680.62151 243.591839 
L 680.62151 243.881533 
L 682.790276 243.818896 
L 682.790276 243.724942 
L 683.874659 243.724942 
L 683.874659 244.171226 
L 686.043426 244.249522 
L 686.043426 243.975488 
L 687.127809 243.975488 
L 687.127809 244.194715 
L 693.634107 244.226033 
L 693.634107 244.554875 
L 694.71849 244.554875 
L 694.71849 244.421772 
L 695.802873 244.421772 
L 695.802873 244.617511 
L 699.056022 244.601852 
L 699.056022 244.500068 
L 701.224788 244.578363 
L 701.224788 244.625341 
L 704.477938 244.719295 
L 704.477938 244.899375 
L 705.562321 244.899375 
L 705.562321 244.719295 
L 706.646704 244.719295 
L 706.646704 244.836739 
L 715.321768 244.915034 
L 715.321768 245.087285 
L 716.406151 245.087285 
L 716.406151 244.930693 
L 719.659301 244.99333 
L 719.659301 245.220387 
L 722.91245 245.204728 
L 722.91245 245.024648 
L 723.996833 245.024648 
L 723.996833 245.275194 
L 725.081216 245.275194 
L 725.081216 245.102944 
L 729.418748 245.181239 
L 729.418748 245.275194 
L 731.587514 245.204728 
L 731.587514 245.423955 
L 732.671897 245.423955 
L 732.671897 245.298683 
L 734.840664 245.196898 
L 734.840664 245.423955 
L 735.925047 245.423955 
L 735.925047 245.228217 
L 737.00943 245.228217 
L 737.00943 245.400467 
L 739.178196 245.376978 
L 739.178196 245.267364 
L 743.515728 245.275194 
L 743.515728 245.572717 
L 745.684494 245.510081 
L 745.684494 245.431785 
L 756.528325 245.494421 
L 756.528325 245.572717 
L 757.612708 245.572717 
L 757.612708 245.408296 
L 758.697091 245.408296 
L 758.697091 245.541399 
L 766.287773 245.549228 
L 766.287773 245.423955 
L 767.372156 245.423955 
L 767.372156 245.564887 
L 771.709688 245.658842 
L 771.709688 245.682331 
L 772.794071 245.682331 
L 772.794071 245.564887 
L 780.384752 245.596206 
L 780.384752 245.682331 
L 808.578712 245.768456 
L 808.578712 245.799774 
L 848.700886 245.831092 
L 848.700886 245.831092 
" clip-path="url(#p8a2e0d3f41)" style="fill: none; stroke: #1f77b4; stroke-width: 1.5; stroke-linecap: square"/>
   </g>
   <g id="line2d_40">
    <path d="M 523.385971 19.61956 
L 524.471093 19.61956 
L 524.471093 82.060269 
L 525.556215 82.060269 
L 525.556215 125.295077 
L 526.641338 125.295077 
L 526.641338 152.173943 
L 527.72646 152.173943 
L 527.72646 168.819579 
L 528.811583 168.819579 
L 528.811583 179.968867 
L 529.896705 179.968867 
L 529.896705 187.1564 
L 530.981827 187.1564 
L 530.981827 186.302978 
L 532.06695 186.302978 
L 532.06695 175.286793 
L 533.152072 175.286793 
L 533.152072 156.542836 
L 534.237194 156.542836 
L 534.237194 135.30908 
L 535.322317 135.30908 
L 535.322317 112.000491 
L 536.407439 112.000491 
L 536.407439 94.102126 
L 537.492562 94.102126 
L 537.492562 80.329937 
L 538.577684 80.329937 
L 538.577684 75.655692 
L 539.662806 75.655692 
L 539.662806 72.8762 
L 540.747929 72.8762 
L 540.747929 77.339047 
L 541.833051 77.339047 
L 541.833051 83.555714 
L 542.918173 83.555714 
L 542.918173 91.189531 
L 544.003296 91.189531 
L 544.003296 99.551497 
L 545.088418 99.551497 
L 545.088418 109.510693 
L 546.173541 109.510693 
L 546.173541 114.169278 
L 547.258663 114.169278 
L 547.258663 123.674359 
L 548.343785 123.674359 
L 548.343785 129.562186 
L 549.428908 129.562186 
L 549.428908 132.349507 
L 550.51403 132.349507 
L 550.51403 137.861515 
L 551.599153 137.861515 
L 551.599153 138.378266 
L 552.684275 138.378266 
L 552.684275 139.36479 
L 553.769397 139.36479 
L 553.769397 141.925054 
L 554.85452 141.925054 
L 554.85452 139.106414 
L 555.939642 139.106414 
L 555.939642 136.514831 
L 557.024764 136.514831 
L 557.024764 133.077656 
L 558.109887 133.077656 
L 558.109887 127.001921 
L 559.195009 127.001921 
L 559.195009 117.802192 
L 560.280132 117.802192 
L 560.280132 110.904354 
L 561.365254 110.904354 
L 561.365254 101.822069 
L 562.450376 101.822069 
L 562.450376 98.165666 
L 563.535499 98.165666 
L 563.535499 97.437517 
L 564.620621 97.437517 
L 564.620621 103.184411 
L 565.705743 103.184411 
L 565.705743 109.307124 
L 566.790866 109.307124 
L 566.790866 116.408531 
L 567.875988 116.408531 
L 567.875988 123.603893 
L 568.961111 123.603893 
L 568.961111 131.480427 
L 570.046233 131.480427 
L 570.046233 137.282128 
L 571.131355 137.282128 
L 571.131355 142.692351 
L 572.216478 142.692351 
L 572.216478 146.967289 
L 573.3016 146.967289 
L 573.3016 152.06433 
L 574.386722 152.06433 
L 574.386722 157.451064 
L 575.471845 157.451064 
L 575.471845 161.74949 
L 576.556967 161.74949 
L 576.556967 166.502031 
L 577.64209 166.502031 
L 577.64209 168.655159 
L 578.727212 168.655159 
L 578.727212 173.603438 
L 579.812334 173.603438 
L 579.812334 176.758749 
L 580.897457 176.758749 
L 580.897457 180.697016 
L 581.982579 180.697016 
L 581.982579 184.165509 
L 583.067702 184.165509 
L 583.067702 187.266013 
L 584.152824 187.266013 
L 584.152824 189.810619 
L 585.237946 189.810619 
L 585.237946 192.316077 
L 586.323069 192.316077 
L 586.323069 194.884171 
L 587.408191 194.884171 
L 587.408191 198.485767 
L 588.493313 198.485767 
L 588.493313 200.568429 
L 589.578436 200.568429 
L 589.578436 201.648908 
L 590.663558 201.648908 
L 590.663558 203.849013 
L 591.748681 203.849013 
L 591.748681 206.745949 
L 592.833803 206.745949 
L 592.833803 207.842087 
L 593.918925 207.842087 
L 593.918925 209.01652 
L 595.004048 209.01652 
L 595.004048 210.120487 
L 596.08917 210.120487 
L 596.08917 211.874308 
L 597.174292 211.874308 
L 597.174292 214.003947 
L 598.259415 214.003947 
L 598.259415 215.287994 
L 599.344537 215.287994 
L 599.344537 216.78344 
L 600.42966 216.78344 
L 600.42966 218.208419 
L 601.514782 218.208419 
L 601.514782 219.187113 
L 602.599904 219.187113 
L 602.599904 220.596433 
L 603.685027 220.596433 
L 603.685027 221.70823 
L 604.770149 221.70823 
L 604.770149 223.368096 
L 606.940394 223.422903 
L 606.940394 224.644314 
L 608.025516 224.644314 
L 608.025516 225.95185 
L 609.110639 225.95185 
L 609.110639 226.578214 
L 610.195761 226.578214 
L 610.195761 226.985351 
L 611.280883 226.985351 
L 611.280883 228.097148 
L 612.366006 228.097148 
L 612.366006 229.12282 
L 614.53625 229.060183 
L 614.53625 229.944923 
L 615.621373 229.944923 
L 615.621373 231.033231 
L 616.706495 231.033231 
L 616.706495 231.604789 
L 617.791618 231.604789 
L 617.791618 231.784869 
L 618.87674 231.784869 
L 618.87674 232.622631 
L 621.046985 232.614802 
L 621.046985 234.031951 
L 622.132107 234.031951 
L 622.132107 233.483883 
L 623.21723 233.483883 
L 623.21723 234.039781 
L 624.302352 234.039781 
L 624.302352 235.049794 
L 625.387474 235.049794 
L 625.387474 234.861884 
L 626.472597 234.861884 
L 626.472597 235.730965 
L 627.557719 235.730965 
L 627.557719 236.263375 
L 628.642841 236.263375 
L 628.642841 236.592216 
L 630.813086 236.647023 
L 630.813086 237.171603 
L 632.983331 237.273388 
L 632.983331 238.11115 
L 635.153576 238.173787 
L 635.153576 238.620071 
L 636.238698 238.620071 
L 636.238698 238.486969 
L 637.32382 238.486969 
L 637.32382 239.17597 
L 638.408943 239.17597 
L 638.408943 239.058526 
L 639.494065 239.058526 
L 639.494065 239.504811 
L 640.579188 239.504811 
L 640.579188 239.277754 
L 641.66431 239.277754 
L 641.66431 239.724039 
L 643.834555 239.645743 
L 643.834555 240.624438 
L 644.919677 240.624438 
L 644.919677 240.491335 
L 647.089922 240.506994 
L 647.089922 240.76537 
L 648.175044 240.76537 
L 648.175044 241.219484 
L 650.345289 241.195995 
L 650.345289 241.376075 
L 652.515534 241.391734 
L 652.515534 241.517007 
L 654.685779 241.626621 
L 654.685779 241.665769 
L 655.770901 241.665769 
L 655.770901 241.783212 
L 656.856023 241.783212 
L 656.856023 242.041587 
L 657.941146 242.041587 
L 657.941146 242.245156 
L 659.026268 242.245156 
L 659.026268 242.495701 
L 663.366758 242.589656 
L 663.366758 242.738418 
L 665.537002 242.722759 
L 665.537002 242.910668 
L 666.622125 242.910668 
L 666.622125 242.793225 
L 667.707247 242.793225 
L 667.707247 242.918498 
L 668.792369 242.918498 
L 668.792369 243.145555 
L 669.877492 243.145555 
L 669.877492 243.262998 
L 670.962614 243.262998 
L 670.962614 243.129896 
L 673.132859 243.200362 
L 673.132859 243.450907 
L 674.217981 243.450907 
L 674.217981 243.685794 
L 675.303104 243.685794 
L 675.303104 243.552692 
L 676.388226 243.552692 
L 676.388226 243.740601 
L 678.558471 243.76409 
L 678.558471 243.92851 
L 685.069205 243.991147 
L 685.069205 244.139908 
L 686.154327 244.139908 
L 686.154327 243.858044 
L 687.23945 243.858044 
L 687.23945 244.061613 
L 688.324572 244.061613 
L 688.324572 244.366965 
L 689.409695 244.366965 
L 689.409695 244.069442 
L 690.494817 244.069442 
L 690.494817 244.304329 
L 693.750184 244.304329 
L 693.750184 244.492238 
L 697.005551 244.531386 
L 697.005551 244.617511 
L 701.346041 244.719295 
L 701.346041 244.774102 
L 702.431163 244.774102 
L 702.431163 244.625341 
L 703.516286 244.625341 
L 703.516286 244.81325 
L 712.197265 244.875887 
L 712.197265 244.969841 
L 713.282387 244.969841 
L 713.282387 244.774102 
L 714.367509 244.774102 
L 714.367509 244.946353 
L 720.878244 245.008989 
L 720.878244 245.079455 
L 723.048488 245.102944 
L 723.048488 245.259535 
L 725.218733 245.275194 
L 725.218733 245.134262 
L 730.644345 245.220387 
L 730.644345 245.290853 
L 738.240202 245.376978 
L 738.240202 245.431785 
L 754.517037 245.52574 
L 754.517037 245.557058 
L 776.219485 245.651013 
L 776.219485 245.69799 
L 823.96487 245.760626 
L 823.96487 245.815433 
L 848.922684 245.831092 
L 848.922684 245.831092 
" clip-path="url(#p8a2e0d3f41)" style="fill: none; stroke: #ff7f0e; stroke-width: 1.5; stroke-linecap: square"/>
   </g>
   <g id="line2d_41">
    <path d="M 523.385985 20.457322 
L 524.471002 20.457322 
L 524.471002 82.945009 
L 525.556018 82.945009 
L 525.556018 126.641761 
L 526.641035 126.641761 
L 526.641035 152.079989 
L 527.726051 152.079989 
L 527.726051 167.880033 
L 528.811068 167.880033 
L 528.811068 180.27422 
L 529.896084 180.27422 
L 529.896084 186.26383 
L 530.981101 186.26383 
L 530.981101 185.222499 
L 532.066117 185.222499 
L 532.066117 175.427725 
L 533.151134 175.427725 
L 533.151134 157.662462 
L 534.23615 157.662462 
L 534.23615 134.408681 
L 535.321167 134.408681 
L 535.321167 113.026163 
L 536.406183 113.026163 
L 536.406183 90.805883 
L 537.4912 90.805883 
L 537.4912 83.657499 
L 538.576216 83.657499 
L 538.576216 76.039341 
L 539.661233 76.039341 
L 539.661233 74.64568 
L 540.746249 74.64568 
L 540.746249 78.998913 
L 541.831266 78.998913 
L 541.831266 83.955022 
L 542.916282 83.955022 
L 542.916282 93.256534 
L 544.001299 93.256534 
L 544.001299 99.191338 
L 545.086316 99.191338 
L 545.086316 106.848644 
L 546.171332 106.848644 
L 546.171332 117.66126 
L 547.256349 117.66126 
L 547.256349 123.251563 
L 548.341365 123.251563 
L 548.341365 127.409058 
L 549.426382 127.409058 
L 549.426382 134.463488 
L 550.511398 134.463488 
L 550.511398 137.971129 
L 551.596415 137.971129 
L 551.596415 139.349131 
L 552.681431 139.349131 
L 552.681431 140.23387 
L 553.766448 140.23387 
L 553.766448 139.309983 
L 554.851464 139.309983 
L 554.851464 139.850222 
L 555.936481 139.850222 
L 555.936481 137.783219 
L 557.021497 137.783219 
L 557.021497 132.65486 
L 558.106514 132.65486 
L 558.106514 127.072387 
L 559.19153 127.072387 
L 559.19153 118.851353 
L 560.276547 118.851353 
L 560.276547 109.479374 
L 561.361563 109.479374 
L 561.361563 101.26617 
L 562.44658 101.26617 
L 562.44658 95.331367 
L 563.531596 95.331367 
L 563.531596 96.036027 
L 564.616613 96.036027 
L 564.616613 101.900364 
L 565.701629 101.900364 
L 565.701629 108.618123 
L 566.786646 108.618123 
L 566.786646 117.434203 
L 567.871662 117.434203 
L 567.871662 124.136303 
L 568.956679 124.136303 
L 568.956679 130.219868 
L 570.041695 130.219868 
L 570.041695 136.663593 
L 571.126712 136.663593 
L 571.126712 143.052511 
L 572.211728 143.052511 
L 572.211728 148.337461 
L 573.296745 148.337461 
L 573.296745 153.371865 
L 574.381761 153.371865 
L 574.381761 157.451064 
L 575.466778 157.451064 
L 575.466778 163.683391 
L 576.551794 163.683391 
L 576.551794 164.943949 
L 577.636811 164.943949 
L 577.636811 168.122749 
L 578.721827 168.122749 
L 578.721827 174.339416 
L 579.806844 174.339416 
L 579.806844 177.071931 
L 580.89186 177.071931 
L 580.89186 181.393846 
L 581.976877 181.393846 
L 581.976877 183.640929 
L 583.061893 183.640929 
L 583.061893 186.052432 
L 584.14691 186.052432 
L 584.14691 189.951551 
L 585.231926 189.951551 
L 585.231926 192.120338 
L 586.316943 192.120338 
L 586.316943 194.38308 
L 587.401959 194.38308 
L 587.401959 197.538391 
L 588.486976 197.538391 
L 588.486976 199.464462 
L 589.571992 199.464462 
L 589.571992 201.539294 
L 590.657009 201.539294 
L 590.657009 203.449706 
L 591.742025 203.449706 
L 591.742025 204.882514 
L 592.827042 204.882514 
L 592.827042 208.264883 
L 593.912058 208.264883 
L 593.912058 209.431486 
L 594.997075 209.431486 
L 594.997075 211.263603 
L 596.082091 211.263603 
L 596.082091 212.680752 
L 597.167108 212.680752 
L 597.167108 214.3093 
L 598.252124 214.3093 
L 598.252124 214.959153 
L 599.337141 214.959153 
L 599.337141 216.517235 
L 600.422157 216.517235 
L 600.422157 218.396328 
L 601.507174 218.396328 
L 601.507174 219.60208 
L 602.59219 219.60208 
L 602.59219 220.948763 
L 603.677207 220.948763 
L 603.677207 221.880481 
L 604.762223 221.880481 
L 604.762223 223.000107 
L 605.84724 223.000107 
L 605.84724 224.025779 
L 606.932256 224.025779 
L 606.932256 224.738268 
L 608.017273 224.738268 
L 608.017273 225.536883 
L 609.102289 225.536883 
L 609.102289 226.593873 
L 610.187306 226.593873 
L 610.187306 228.151955 
L 611.272322 228.151955 
L 611.272322 227.517761 
L 612.357339 227.517761 
L 612.357339 229.021036 
L 613.442355 229.021036 
L 613.442355 229.271581 
L 614.527372 229.271581 
L 614.527372 230.579117 
L 615.612388 230.579117 
L 615.612388 230.446015 
L 616.697405 230.446015 
L 616.697405 231.683085 
L 617.782421 231.683085 
L 617.782421 231.855335 
L 618.867438 231.855335 
L 618.867438 232.262472 
L 619.952454 232.262472 
L 619.952454 232.794882 
L 621.037471 232.794882 
L 621.037471 233.280314 
L 622.122487 233.280314 
L 622.122487 233.937997 
L 623.207504 233.937997 
L 623.207504 234.368622 
L 624.29252 234.368622 
L 624.29252 235.049794 
L 625.377537 235.049794 
L 625.377537 234.93235 
L 626.462553 234.93235 
L 626.462553 235.65267 
L 628.632586 235.683988 
L 628.632586 236.764466 
L 629.717603 236.764466 
L 629.717603 236.983694 
L 631.887636 237.06199 
L 631.887636 237.155944 
L 632.972652 237.155944 
L 632.972652 237.547422 
L 634.057669 237.547422 
L 634.057669 237.711843 
L 635.142686 237.711843 
L 635.142686 238.455651 
L 637.312719 238.549605 
L 637.312719 238.682708 
L 638.397735 238.682708 
L 638.397735 239.105504 
L 639.482752 239.105504 
L 639.482752 239.387368 
L 641.652785 239.410856 
L 641.652785 239.943266 
L 642.737801 239.943266 
L 642.737801 240.342574 
L 644.907834 240.326914 
L 644.907834 240.084198 
L 647.077867 240.154664 
L 647.077867 240.843665 
L 648.162884 240.843665 
L 648.162884 241.078552 
L 649.2479 241.078552 
L 649.2479 240.76537 
L 650.332917 240.76537 
L 650.332917 241.172507 
L 651.417933 241.172507 
L 651.417933 241.509177 
L 654.672983 241.501348 
L 654.672983 242.088565 
L 659.013049 242.010269 
L 659.013049 242.307792 
L 662.268098 242.378258 
L 662.268098 242.644463 
L 664.438131 242.7071 
L 664.438131 242.863691 
L 665.523148 242.863691 
L 665.523148 242.996793 
L 666.608164 242.996793 
L 666.608164 242.87935 
L 668.778197 242.934157 
L 668.778197 243.0516 
L 670.94823 243.161214 
L 670.94823 243.356953 
L 675.288296 243.466566 
L 675.288296 243.599669 
L 677.458329 243.638817 
L 677.458329 243.779749 
L 679.628362 243.670135 
L 679.628362 243.93634 
L 681.798395 243.959828 
L 681.798395 244.069442 
L 682.883412 244.069442 
L 682.883412 243.889362 
L 683.968428 243.889362 
L 683.968428 244.218204 
L 686.138461 244.139908 
L 686.138461 244.053783 
L 687.223478 244.053783 
L 687.223478 244.241692 
L 688.308494 244.241692 
L 688.308494 243.834556 
L 689.393511 243.834556 
L 689.393511 244.061613 
L 690.478527 244.061613 
L 690.478527 244.218204 
L 692.64856 244.273011 
L 692.64856 244.445261 
L 693.733577 244.445261 
L 693.733577 244.265181 
L 694.818593 244.265181 
L 694.818593 244.476579 
L 698.073643 244.578363 
L 698.073643 244.304329 
L 699.158659 244.304329 
L 699.158659 244.609682 
L 703.498725 244.719295 
L 703.498725 244.734955 
L 710.008824 244.81325 
L 710.008824 244.883716 
L 711.093841 244.883716 
L 711.093841 245.024648 
L 713.263874 244.922864 
L 713.263874 244.907205 
L 715.433907 244.868057 
L 715.433907 245.055966 
L 717.60394 245.063796 
L 717.60394 244.907205 
L 718.688956 244.907205 
L 718.688956 245.134262 
L 720.858989 245.204728 
L 720.858989 245.016819 
L 723.029022 245.087285 
L 723.029022 245.134262 
L 724.114039 245.134262 
L 724.114039 245.259535 
L 727.369089 245.243876 
L 727.369089 245.118603 
L 730.624138 245.228217 
L 730.624138 245.267364 
L 739.30427 245.369149 
L 739.30427 245.400467 
L 745.814369 245.400467 
L 745.814369 245.51791 
L 747.984402 245.447444 
L 747.984402 245.369149 
L 750.154435 245.416126 
L 750.154435 245.486592 
L 757.749551 245.533569 
L 757.749551 245.635353 
L 758.834567 245.635353 
L 758.834567 245.502251 
L 766.429683 245.51791 
L 766.429683 245.674501 
L 776.194831 245.596206 
L 776.194831 245.557058 
L 784.874963 245.658842 
L 784.874963 245.737138 
L 834.785723 245.791945 
L 834.785723 245.854581 
L 848.890937 245.838922 
L 848.890937 245.838922 
" clip-path="url(#p8a2e0d3f41)" style="fill: none; stroke: #2ca02c; stroke-width: 1.5; stroke-linecap: square"/>
   </g>
   <g id="patch_9">
    <path d="M 507.109135 257.155762 
L 507.109135 8.308592 
" style="fill: none; stroke: #000000; stroke-width: 0.8; stroke-linejoin: miter; stroke-linecap: square"/>
   </g>
   <g id="patch_10">
    <path d="M 865.19952 257.155762 
L 865.19952 8.308592 
" style="fill: none; stroke: #000000; stroke-width: 0.8; stroke-linejoin: miter; stroke-linecap: square"/>
   </g>
   <g id="patch_11">
    <path d="M 507.109135 257.155762 
L 865.19952 257.155762 
" style="fill: none; stroke: #000000; stroke-width: 0.8; stroke-linejoin: miter; stroke-linecap: square"/>
   </g>
   <g id="patch_12">
    <path d="M 507.109135 8.308592 
L 865.19952 8.308592 
" style="fill: none; stroke: #000000; stroke-width: 0.8; stroke-linejoin: miter; stroke-linecap: square"/>
   </g>
   <g id="legend_2">
    <g id="patch_13">
     <path d="M 789.641707 60.342967 
L 858.19952 60.342967 
Q 860.19952 60.342967 860.19952 58.342967 
L 860.19952 15.308592 
Q 860.19952 13.308592 858.19952 13.308592 
L 789.641707 13.308592 
Q 787.641707 13.308592 787.641707 15.308592 
L 787.641707 58.342967 
Q 787.641707 60.342967 789.641707 60.342967 
z
" style="fill: #ffffff; opacity: 0.8; stroke: #cccccc; stroke-linejoin: miter"/>
    </g>
    <g id="line2d_42">
     <path d="M 791.641707 21.407029 
L 791.641707 21.407029 
L 801.641707 21.407029 
L 801.641707 21.407029 
L 811.641707 21.407029 
" style="fill: none; stroke: #1f77b4; stroke-width: 1.5; stroke-linecap: square"/>
    </g>
    <g id="text_40">
     <!-- pulse:0 -->
     <g transform="translate(819.641707 24.907029) scale(0.1 -0.1)">
      <use xlink:href="#DejaVuSans-70"/>
      <use xlink:href="#DejaVuSans-75" transform="translate(63.476562 0)"/>
      <use xlink:href="#DejaVuSans-6c" transform="translate(126.855469 0)"/>
      <use xlink:href="#DejaVuSans-73" transform="translate(154.638672 0)"/>
      <use xlink:href="#DejaVuSans-65" transform="translate(206.738281 0)"/>
      <use xlink:href="#DejaVuSans-3a" transform="translate(268.261719 0)"/>
      <use xlink:href="#DejaVuSans-30" transform="translate(301.953125 0)"/>
     </g>
    </g>
    <g id="line2d_43">
     <path d="M 791.641707 36.085154 
L 791.641707 36.085154 
L 801.641707 36.085154 
L 801.641707 36.085154 
L 811.641707 36.085154 
" style="fill: none; stroke: #ff7f0e; stroke-width: 1.5; stroke-linecap: square"/>
    </g>
    <g id="text_41">
     <!-- pulse:1 -->
     <g transform="translate(819.641707 39.585154) scale(0.1 -0.1)">
      <use xlink:href="#DejaVuSans-70"/>
      <use xlink:href="#DejaVuSans-75" transform="translate(63.476562 0)"/>
      <use xlink:href="#DejaVuSans-6c" transform="translate(126.855469 0)"/>
      <use xlink:href="#DejaVuSans-73" transform="translate(154.638672 0)"/>
      <use xlink:href="#DejaVuSans-65" transform="translate(206.738281 0)"/>
      <use xlink:href="#DejaVuSans-3a" transform="translate(268.261719 0)"/>
      <use xlink:href="#DejaVuSans-31" transform="translate(301.953125 0)"/>
     </g>
    </g>
    <g id="line2d_44">
     <path d="M 791.641707 50.763279 
L 791.641707 50.763279 
L 801.641707 50.763279 
L 801.641707 50.763279 
L 811.641707 50.763279 
" style="fill: none; stroke: #2ca02c; stroke-width: 1.5; stroke-linecap: square"/>
    </g>
    <g id="text_42">
     <!-- pulse:2 -->
     <g transform="translate(819.641707 54.263279) scale(0.1 -0.1)">
      <use xlink:href="#DejaVuSans-70"/>
      <use xlink:href="#DejaVuSans-75" transform="translate(63.476562 0)"/>
      <use xlink:href="#DejaVuSans-6c" transform="translate(126.855469 0)"/>
      <use xlink:href="#DejaVuSans-73" transform="translate(154.638672 0)"/>
      <use xlink:href="#DejaVuSans-65" transform="translate(206.738281 0)"/>
      <use xlink:href="#DejaVuSans-3a" transform="translate(268.261719 0)"/>
      <use xlink:href="#DejaVuSans-32" transform="translate(301.953125 0)"/>
     </g>
    </g>
   </g>
  </g>
 </g>
 <defs>
  <clipPath id="pad534c606c">
   <rect x="53.328125" y="8.308592" width="358.090385" height="248.84717"/>
  </clipPath>
  <clipPath id="p8a2e0d3f41">
   <rect x="507.109135" y="8.308592" width="358.090385" height="248.84717"/>
  </clipPath>
 </defs>
</svg>
