<?xml version="1.0" encoding="utf-8" standalone="no"?>
<!DOCTYPE svg PUBLIC "-//W3C//DTD SVG 1.1//EN"
  "http://www.w3.org/Graphics/SVG/1.1/DTD/svg11.dtd">
<svg xmlns:xlink="http://www.w3.org/1999/xlink" width="395.328125pt" height="266.51625pt" viewBox="0 0 395.328125 266.51625" xmlns="http://www.w3.org/2000/svg" version="1.1">
 <metadata>
  <rdf:RDF xmlns:dc="http://purl.org/dc/elements/1.1/" xmlns:cc="http://creativecommons.org/ns#" xmlns:rdf="http://www.w3.org/1999/02/22-rdf-syntax-ns#">
   <cc:Work>
    <dc:type rdf:resource="http://purl.org/dc/dcmitype/StillImage"/>
    <dc:date>2026-01-29T14:57:48.824208</dc:date>
    <dc:format>image/svg+xml</dc:format>
    <dc:creator>
     <cc:Agent>
      <dc:title>Matplotlib v3.10.7, https://matplotlib.org/</dc:title>
     </cc:Agent>
    </dc:creator>
   </cc:Work>
  </rdf:RDF>
 </metadata>
 <defs>
  <style type="text/css">*{stroke-linejoin: round; stroke-linecap: butt}</style>
 </defs>
 <g id="figure_1">
  <g id="patch_1">
   <path d="M 0 266.51625 
L 395.328125 266.51625 
L 395.328125 0 
L 0 0 
z
" style="fill: #ffffff"/>
  </g>
  <g id="axes_1">
   <g id="patch_2">
    <path d="M 53.328125 228.96 
L 388.128125 228.96 
L 388.128125 7.2 
L 53.328125 7.2 
z
" style="fill: #ffffff"/>
   </g>
   <g id="matplotlib.axis_1">
    <g id="xtick_1">
     <g id="line2d_1">
      <defs>
       <path id="mc9c042939d" d="M 0 0 
L 0 3.5 
" style="stroke: #000000; stroke-width: 0.8"/>
      </defs>
      <g>
       <use xlink:href="#mc9c042939d" x="67.528647" y="228.96" style="stroke: #000000; stroke-width: 0.8"/>
      </g>
     </g>
     <g id="text_1">
      <!-- 25000 -->
      <g transform="translate(51.622397 243.558437) scale(0.1 -0.1)">
       <defs>
        <path id="DejaVuSans-32" d="M 1228 531 
L 3431 531 
L 3431 0 
L 469 0 
L 469 531 
Q 828 903 1448 1529 
Q 2069 2156 2228 2338 
Q 2531 2678 2651 2914 
Q 2772 3150 2772 3378 
Q 2772 3750 2511 3984 
Q 2250 4219 1831 4219 
Q 1534 4219 1204 4116 
Q 875 4013 500 3803 
L 500 4441 
Q 881 4594 1212 4672 
Q 1544 4750 1819 4750 
Q 2544 4750 2975 4387 
Q 3406 4025 3406 3419 
Q 3406 3131 3298 2873 
Q 3191 2616 2906 2266 
Q 2828 2175 2409 1742 
Q 1991 1309 1228 531 
z
" transform="scale(0.015625)"/>
        <path id="DejaVuSans-35" d="M 691 4666 
L 3169 4666 
L 3169 4134 
L 1269 4134 
L 1269 2991 
Q 1406 3038 1543 3061 
Q 1681 3084 1819 3084 
Q 2600 3084 3056 2656 
Q 3513 2228 3513 1497 
Q 3513 744 3044 326 
Q 2575 -91 1722 -91 
Q 1428 -91 1123 -41 
Q 819 9 494 109 
L 494 744 
Q 775 591 1075 516 
Q 1375 441 1709 441 
Q 2250 441 2565 725 
Q 2881 1009 2881 1497 
Q 2881 1984 2565 2268 
Q 2250 2553 1709 2553 
Q 1456 2553 1204 2497 
Q 953 2441 691 2322 
L 691 4666 
z
" transform="scale(0.015625)"/>
        <path id="DejaVuSans-30" d="M 2034 4250 
Q 1547 4250 1301 3770 
Q 1056 3291 1056 2328 
Q 1056 1369 1301 889 
Q 1547 409 2034 409 
Q 2525 409 2770 889 
Q 3016 1369 3016 2328 
Q 3016 3291 2770 3770 
Q 2525 4250 2034 4250 
z
M 2034 4750 
Q 2819 4750 3233 4129 
Q 3647 3509 3647 2328 
Q 3647 1150 3233 529 
Q 2819 -91 2034 -91 
Q 1250 -91 836 529 
Q 422 1150 422 2328 
Q 422 3509 836 4129 
Q 1250 4750 2034 4750 
z
" transform="scale(0.015625)"/>
       </defs>
       <use xlink:href="#DejaVuSans-32"/>
       <use xlink:href="#DejaVuSans-35" transform="translate(63.623047 0)"/>
       <use xlink:href="#DejaVuSans-30" transform="translate(127.246094 0)"/>
       <use xlink:href="#DejaVuSans-30" transform="translate(190.869141 0)"/>
       <use xlink:href="#DejaVuSans-30" transform="translate(254.492188 0)"/>
      </g>
     </g>
    </g>
    <g id="xtick_2">
     <g id="line2d_2">
      <g>
       <use xlink:href="#mc9c042939d" x="108.097237" y="228.96" style="stroke: #000000; stroke-width: 0.8"/>
      </g>
     </g>
     <g id="text_2">
      <!-- 50000 -->
      <g transform="translate(92.190987 243.558437) scale(0.1 -0.1)">
       <use xlink:href="#DejaVuSans-35"/>
       <use xlink:href="#DejaVuSans-30" transform="translate(63.623047 0)"/>
       <use xlink:href="#DejaVuSans-30" transform="translate(127.246094 0)"/>
       <use xlink:href="#DejaVuSans-30" transform="translate(190.869141 0)"/>
       <use xlink:href="#DejaVuSans-30" transform="translate(254.492188 0)"/>
      </g>
     </g>
    </g>
    <g id="xtick_3">
     <g id="line2d_3">
      <g>
       <use xlink:href="#mc9c042939d" x="148.665827" y="228.96" style="stroke: #000000; stroke-width: 0.8"/>
      </g>
     </g>
     <g id="text_3">
      <!-- 75000 -->
      <g transform="translate(132.759577 243.558437) scale(0.1 -0.1)">
       <defs>
        <path id="DejaVuSans-37" d="M 525 4666 
L 3525 4666 
L 3525 4397 
L 1831 0 
L 1172 0 
L 2766 4134 
L 525 4134 
L 525 4666 
z
" transform="scale(0.015625)"/>
       </defs>
       <use xlink:href="#DejaVuSans-37"/>
       <use xlink:href="#DejaVuSans-35" transform="translate(63.623047 0)"/>
       <use xlink:href="#DejaVuSans-30" transform="translate(127.246094 0)"/>
       <use xlink:href="#DejaVuSans-30" transform="translate(190.869141 0)"/>
       <use xlink:href="#DejaVuSans-30" transform="translate(254.492188 0)"/>
      </g>
     </g>
    </g>
    <g id="xtick_4">
     <g id="line2d_4">
      <g>
       <use xlink:href="#mc9c042939d" x="189.234417" y="228.96" style="stroke: #000000; stroke-width: 0.8"/>
      </g>
     </g>
     <g id="text_4">
      <!-- 100000 -->
      <g transform="translate(170.146917 243.558437) scale(0.1 -0.1)">
       <defs>
        <path id="DejaVuSans-31" d="M 794 531 
L 1825 531 
L 1825 4091 
L 703 3866 
L 703 4441 
L 1819 4666 
L 2450 4666 
L 2450 531 
L 3481 531 
L 3481 0 
L 794 0 
L 794 531 
z
" transform="scale(0.015625)"/>
       </defs>
       <use xlink:href="#DejaVuSans-31"/>
       <use xlink:href="#DejaVuSans-30" transform="translate(63.623047 0)"/>
       <use xlink:href="#DejaVuSans-30" transform="translate(127.246094 0)"/>
       <use xlink:href="#DejaVuSans-30" transform="translate(190.869141 0)"/>
       <use xlink:href="#DejaVuSans-30" transform="translate(254.492188 0)"/>
       <use xlink:href="#DejaVuSans-30" transform="translate(318.115234 0)"/>
      </g>
     </g>
    </g>
    <g id="xtick_5">
     <g id="line2d_5">
      <g>
       <use xlink:href="#mc9c042939d" x="229.803007" y="228.96" style="stroke: #000000; stroke-width: 0.8"/>
      </g>
     </g>
     <g id="text_5">
      <!-- 125000 -->
      <g transform="translate(210.715507 243.558437) scale(0.1 -0.1)">
       <use xlink:href="#DejaVuSans-31"/>
       <use xlink:href="#DejaVuSans-32" transform="translate(63.623047 0)"/>
       <use xlink:href="#DejaVuSans-35" transform="translate(127.246094 0)"/>
       <use xlink:href="#DejaVuSans-30" transform="translate(190.869141 0)"/>
       <use xlink:href="#DejaVuSans-30" transform="translate(254.492188 0)"/>
       <use xlink:href="#DejaVuSans-30" transform="translate(318.115234 0)"/>
      </g>
     </g>
    </g>
    <g id="xtick_6">
     <g id="line2d_6">
      <g>
       <use xlink:href="#mc9c042939d" x="270.371597" y="228.96" style="stroke: #000000; stroke-width: 0.8"/>
      </g>
     </g>
     <g id="text_6">
      <!-- 150000 -->
      <g transform="translate(251.284097 243.558437) scale(0.1 -0.1)">
       <use xlink:href="#DejaVuSans-31"/>
       <use xlink:href="#DejaVuSans-35" transform="translate(63.623047 0)"/>
       <use xlink:href="#DejaVuSans-30" transform="translate(127.246094 0)"/>
       <use xlink:href="#DejaVuSans-30" transform="translate(190.869141 0)"/>
       <use xlink:href="#DejaVuSans-30" transform="translate(254.492188 0)"/>
       <use xlink:href="#DejaVuSans-30" transform="translate(318.115234 0)"/>
      </g>
     </g>
    </g>
    <g id="xtick_7">
     <g id="line2d_7">
      <g>
       <use xlink:href="#mc9c042939d" x="310.940187" y="228.96" style="stroke: #000000; stroke-width: 0.8"/>
      </g>
     </g>
     <g id="text_7">
      <!-- 175000 -->
      <g transform="translate(291.852687 243.558437) scale(0.1 -0.1)">
       <use xlink:href="#DejaVuSans-31"/>
       <use xlink:href="#DejaVuSans-37" transform="translate(63.623047 0)"/>
       <use xlink:href="#DejaVuSans-35" transform="translate(127.246094 0)"/>
       <use xlink:href="#DejaVuSans-30" transform="translate(190.869141 0)"/>
       <use xlink:href="#DejaVuSans-30" transform="translate(254.492188 0)"/>
       <use xlink:href="#DejaVuSans-30" transform="translate(318.115234 0)"/>
      </g>
     </g>
    </g>
    <g id="xtick_8">
     <g id="line2d_8">
      <g>
       <use xlink:href="#mc9c042939d" x="351.508777" y="228.96" style="stroke: #000000; stroke-width: 0.8"/>
      </g>
     </g>
     <g id="text_8">
      <!-- 200000 -->
      <g transform="translate(332.421277 243.558437) scale(0.1 -0.1)">
       <use xlink:href="#DejaVuSans-32"/>
       <use xlink:href="#DejaVuSans-30" transform="translate(63.623047 0)"/>
       <use xlink:href="#DejaVuSans-30" transform="translate(127.246094 0)"/>
       <use xlink:href="#DejaVuSans-30" transform="translate(190.869141 0)"/>
       <use xlink:href="#DejaVuSans-30" transform="translate(254.492188 0)"/>
       <use xlink:href="#DejaVuSans-30" transform="translate(318.115234 0)"/>
      </g>
     </g>
    </g>
    <g id="text_9">
     <!-- toa [µs] -->
     <g transform="translate(201.367969 257.236562) scale(0.1 -0.1)">
      <defs>
       <path id="DejaVuSans-74" d="M 1172 4494 
L 1172 3500 
L 2356 3500 
L 2356 3053 
L 1172 3053 
L 1172 1153 
Q 1172 725 1289 603 
Q 1406 481 1766 481 
L 2356 481 
L 2356 0 
L 1766 0 
Q 1100 0 847 248 
Q 594 497 594 1153 
L 594 3053 
L 172 3053 
L 172 3500 
L 594 3500 
L 594 4494 
L 1172 4494 
z
" transform="scale(0.015625)"/>
       <path id="DejaVuSans-6f" d="M 1959 3097 
Q 1497 3097 1228 2736 
Q 959 2375 959 1747 
Q 959 1119 1226 758 
Q 1494 397 1959 397 
Q 2419 397 2687 759 
Q 2956 1122 2956 1747 
Q 2956 2369 2687 2733 
Q 2419 3097 1959 3097 
z
M 1959 3584 
Q 2709 3584 3137 3096 
Q 3566 2609 3566 1747 
Q 3566 888 3137 398 
Q 2709 -91 1959 -91 
Q 1206 -91 779 398 
Q 353 888 353 1747 
Q 353 2609 779 3096 
Q 1206 3584 1959 3584 
z
" transform="scale(0.015625)"/>
       <path id="DejaVuSans-61" d="M 2194 1759 
Q 1497 1759 1228 1600 
Q 959 1441 959 1056 
Q 959 750 1161 570 
Q 1363 391 1709 391 
Q 2188 391 2477 730 
Q 2766 1069 2766 1631 
L 2766 1759 
L 2194 1759 
z
M 3341 1997 
L 3341 0 
L 2766 0 
L 2766 531 
Q 2569 213 2275 61 
Q 1981 -91 1556 -91 
Q 1019 -91 701 211 
Q 384 513 384 1019 
Q 384 1609 779 1909 
Q 1175 2209 1959 2209 
L 2766 2209 
L 2766 2266 
Q 2766 2663 2505 2880 
Q 2244 3097 1772 3097 
Q 1472 3097 1187 3025 
Q 903 2953 641 2809 
L 641 3341 
Q 956 3463 1253 3523 
Q 1550 3584 1831 3584 
Q 2591 3584 2966 3190 
Q 3341 2797 3341 1997 
z
" transform="scale(0.015625)"/>
       <path id="DejaVuSans-20" transform="scale(0.015625)"/>
       <path id="DejaVuSans-5b" d="M 550 4863 
L 1875 4863 
L 1875 4416 
L 1125 4416 
L 1125 -397 
L 1875 -397 
L 1875 -844 
L 550 -844 
L 550 4863 
z
" transform="scale(0.015625)"/>
       <path id="DejaVuSans-b5" d="M 544 -1331 
L 544 3500 
L 1119 3500 
L 1119 1325 
Q 1119 872 1334 640 
Q 1550 409 1972 409 
Q 2434 409 2667 671 
Q 2900 934 2900 1459 
L 2900 3500 
L 3475 3500 
L 3475 806 
Q 3475 619 3529 530 
Q 3584 441 3700 441 
Q 3728 441 3778 458 
Q 3828 475 3916 513 
L 3916 50 
Q 3788 -22 3673 -56 
Q 3559 -91 3450 -91 
Q 3234 -91 3106 31 
Q 2978 153 2931 403 
Q 2775 156 2548 32 
Q 2322 -91 2016 -91 
Q 1697 -91 1473 31 
Q 1250 153 1119 397 
L 1119 -1331 
L 544 -1331 
z
" transform="scale(0.015625)"/>
       <path id="DejaVuSans-73" d="M 2834 3397 
L 2834 2853 
Q 2591 2978 2328 3040 
Q 2066 3103 1784 3103 
Q 1356 3103 1142 2972 
Q 928 2841 928 2578 
Q 928 2378 1081 2264 
Q 1234 2150 1697 2047 
L 1894 2003 
Q 2506 1872 2764 1633 
Q 3022 1394 3022 966 
Q 3022 478 2636 193 
Q 2250 -91 1575 -91 
Q 1294 -91 989 -36 
Q 684 19 347 128 
L 347 722 
Q 666 556 975 473 
Q 1284 391 1588 391 
Q 1994 391 2212 530 
Q 2431 669 2431 922 
Q 2431 1156 2273 1281 
Q 2116 1406 1581 1522 
L 1381 1569 
Q 847 1681 609 1914 
Q 372 2147 372 2553 
Q 372 3047 722 3315 
Q 1072 3584 1716 3584 
Q 2034 3584 2315 3537 
Q 2597 3491 2834 3397 
z
" transform="scale(0.015625)"/>
       <path id="DejaVuSans-5d" d="M 1947 4863 
L 1947 -844 
L 622 -844 
L 622 -397 
L 1369 -397 
L 1369 4416 
L 622 4416 
L 622 4863 
L 1947 4863 
z
" transform="scale(0.015625)"/>
      </defs>
      <use xlink:href="#DejaVuSans-74"/>
      <use xlink:href="#DejaVuSans-6f" transform="translate(39.208984 0)"/>
      <use xlink:href="#DejaVuSans-61" transform="translate(100.390625 0)"/>
      <use xlink:href="#DejaVuSans-20" transform="translate(161.669922 0)"/>
      <use xlink:href="#DejaVuSans-5b" transform="translate(193.457031 0)"/>
      <use xlink:href="#DejaVuSans-b5" transform="translate(232.470703 0)"/>
      <use xlink:href="#DejaVuSans-73" transform="translate(296.09375 0)"/>
      <use xlink:href="#DejaVuSans-5d" transform="translate(348.193359 0)"/>
     </g>
    </g>
   </g>
   <g id="matplotlib.axis_2">
    <g id="ytick_1">
     <g id="line2d_9">
      <defs>
       <path id="m0c1d3816b3" d="M 0 0 
L -3.5 0 
" style="stroke: #000000; stroke-width: 0.8"/>
      </defs>
      <g>
       <use xlink:href="#m0c1d3816b3" x="53.328125" y="218.88" style="stroke: #000000; stroke-width: 0.8"/>
      </g>
     </g>
     <g id="text_10">
      <!-- 0 -->
      <g transform="translate(39.965625 222.679219) scale(0.1 -0.1)">
       <use xlink:href="#DejaVuSans-30"/>
      </g>
     </g>
    </g>
    <g id="ytick_2">
     <g id="line2d_10">
      <g>
       <use xlink:href="#m0c1d3816b3" x="53.328125" y="181.92308" style="stroke: #000000; stroke-width: 0.8"/>
      </g>
     </g>
     <g id="text_11">
      <!-- 200 -->
      <g transform="translate(27.240625 185.722298) scale(0.1 -0.1)">
       <use xlink:href="#DejaVuSans-32"/>
       <use xlink:href="#DejaVuSans-30" transform="translate(63.623047 0)"/>
       <use xlink:href="#DejaVuSans-30" transform="translate(127.246094 0)"/>
      </g>
     </g>
    </g>
    <g id="ytick_3">
     <g id="line2d_11">
      <g>
       <use xlink:href="#m0c1d3816b3" x="53.328125" y="144.966159" style="stroke: #000000; stroke-width: 0.8"/>
      </g>
     </g>
     <g id="text_12">
      <!-- 400 -->
      <g transform="translate(27.240625 148.765378) scale(0.1 -0.1)">
       <defs>
        <path id="DejaVuSans-34" d="M 2419 4116 
L 825 1625 
L 2419 1625 
L 2419 4116 
z
M 2253 4666 
L 3047 4666 
L 3047 1625 
L 3713 1625 
L 3713 1100 
L 3047 1100 
L 3047 0 
L 2419 0 
L 2419 1100 
L 313 1100 
L 313 1709 
L 2253 4666 
z
" transform="scale(0.015625)"/>
       </defs>
       <use xlink:href="#DejaVuSans-34"/>
       <use xlink:href="#DejaVuSans-30" transform="translate(63.623047 0)"/>
       <use xlink:href="#DejaVuSans-30" transform="translate(127.246094 0)"/>
      </g>
     </g>
    </g>
    <g id="ytick_4">
     <g id="line2d_12">
      <g>
       <use xlink:href="#m0c1d3816b3" x="53.328125" y="108.009239" style="stroke: #000000; stroke-width: 0.8"/>
      </g>
     </g>
     <g id="text_13">
      <!-- 600 -->
      <g transform="translate(27.240625 111.808458) scale(0.1 -0.1)">
       <defs>
        <path id="DejaVuSans-36" d="M 2113 2584 
Q 1688 2584 1439 2293 
Q 1191 2003 1191 1497 
Q 1191 994 1439 701 
Q 1688 409 2113 409 
Q 2538 409 2786 701 
Q 3034 994 3034 1497 
Q 3034 2003 2786 2293 
Q 2538 2584 2113 2584 
z
M 3366 4563 
L 3366 3988 
Q 3128 4100 2886 4159 
Q 2644 4219 2406 4219 
Q 1781 4219 1451 3797 
Q 1122 3375 1075 2522 
Q 1259 2794 1537 2939 
Q 1816 3084 2150 3084 
Q 2853 3084 3261 2657 
Q 3669 2231 3669 1497 
Q 3669 778 3244 343 
Q 2819 -91 2113 -91 
Q 1303 -91 875 529 
Q 447 1150 447 2328 
Q 447 3434 972 4092 
Q 1497 4750 2381 4750 
Q 2619 4750 2861 4703 
Q 3103 4656 3366 4563 
z
" transform="scale(0.015625)"/>
       </defs>
       <use xlink:href="#DejaVuSans-36"/>
       <use xlink:href="#DejaVuSans-30" transform="translate(63.623047 0)"/>
       <use xlink:href="#DejaVuSans-30" transform="translate(127.246094 0)"/>
      </g>
     </g>
    </g>
    <g id="ytick_5">
     <g id="line2d_13">
      <g>
       <use xlink:href="#m0c1d3816b3" x="53.328125" y="71.052319" style="stroke: #000000; stroke-width: 0.8"/>
      </g>
     </g>
     <g id="text_14">
      <!-- 800 -->
      <g transform="translate(27.240625 74.851538) scale(0.1 -0.1)">
       <defs>
        <path id="DejaVuSans-38" d="M 2034 2216 
Q 1584 2216 1326 1975 
Q 1069 1734 1069 1313 
Q 1069 891 1326 650 
Q 1584 409 2034 409 
Q 2484 409 2743 651 
Q 3003 894 3003 1313 
Q 3003 1734 2745 1975 
Q 2488 2216 2034 2216 
z
M 1403 2484 
Q 997 2584 770 2862 
Q 544 3141 544 3541 
Q 544 4100 942 4425 
Q 1341 4750 2034 4750 
Q 2731 4750 3128 4425 
Q 3525 4100 3525 3541 
Q 3525 3141 3298 2862 
Q 3072 2584 2669 2484 
Q 3125 2378 3379 2068 
Q 3634 1759 3634 1313 
Q 3634 634 3220 271 
Q 2806 -91 2034 -91 
Q 1263 -91 848 271 
Q 434 634 434 1313 
Q 434 1759 690 2068 
Q 947 2378 1403 2484 
z
M 1172 3481 
Q 1172 3119 1398 2916 
Q 1625 2713 2034 2713 
Q 2441 2713 2670 2916 
Q 2900 3119 2900 3481 
Q 2900 3844 2670 4047 
Q 2441 4250 2034 4250 
Q 1625 4250 1398 4047 
Q 1172 3844 1172 3481 
z
" transform="scale(0.015625)"/>
       </defs>
       <use xlink:href="#DejaVuSans-38"/>
       <use xlink:href="#DejaVuSans-30" transform="translate(63.623047 0)"/>
       <use xlink:href="#DejaVuSans-30" transform="translate(127.246094 0)"/>
      </g>
     </g>
    </g>
    <g id="ytick_6">
     <g id="line2d_14">
      <g>
       <use xlink:href="#m0c1d3816b3" x="53.328125" y="34.095399" style="stroke: #000000; stroke-width: 0.8"/>
      </g>
     </g>
     <g id="text_15">
      <!-- 1000 -->
      <g transform="translate(20.878125 37.894617) scale(0.1 -0.1)">
       <use xlink:href="#DejaVuSans-31"/>
       <use xlink:href="#DejaVuSans-30" transform="translate(63.623047 0)"/>
       <use xlink:href="#DejaVuSans-30" transform="translate(127.246094 0)"/>
       <use xlink:href="#DejaVuSans-30" transform="translate(190.869141 0)"/>
      </g>
     </g>
    </g>
    <g id="text_16">
     <!-- [counts] -->
     <g transform="translate(14.798438 138.6925) rotate(-90) scale(0.1 -0.1)">
      <defs>
       <path id="DejaVuSans-63" d="M 3122 3366 
L 3122 2828 
Q 2878 2963 2633 3030 
Q 2388 3097 2138 3097 
Q 1578 3097 1268 2742 
Q 959 2388 959 1747 
Q 959 1106 1268 751 
Q 1578 397 2138 397 
Q 2388 397 2633 464 
Q 2878 531 3122 666 
L 3122 134 
Q 2881 22 2623 -34 
Q 2366 -91 2075 -91 
Q 1284 -91 818 406 
Q 353 903 353 1747 
Q 353 2603 823 3093 
Q 1294 3584 2113 3584 
Q 2378 3584 2631 3529 
Q 2884 3475 3122 3366 
z
" transform="scale(0.015625)"/>
       <path id="DejaVuSans-75" d="M 544 1381 
L 544 3500 
L 1119 3500 
L 1119 1403 
Q 1119 906 1312 657 
Q 1506 409 1894 409 
Q 2359 409 2629 706 
Q 2900 1003 2900 1516 
L 2900 3500 
L 3475 3500 
L 3475 0 
L 2900 0 
L 2900 538 
Q 2691 219 2414 64 
Q 2138 -91 1772 -91 
Q 1169 -91 856 284 
Q 544 659 544 1381 
z
M 1991 3584 
L 1991 3584 
z
" transform="scale(0.015625)"/>
       <path id="DejaVuSans-6e" d="M 3513 2113 
L 3513 0 
L 2938 0 
L 2938 2094 
Q 2938 2591 2744 2837 
Q 2550 3084 2163 3084 
Q 1697 3084 1428 2787 
Q 1159 2491 1159 1978 
L 1159 0 
L 581 0 
L 581 3500 
L 1159 3500 
L 1159 2956 
Q 1366 3272 1645 3428 
Q 1925 3584 2291 3584 
Q 2894 3584 3203 3211 
Q 3513 2838 3513 2113 
z
" transform="scale(0.015625)"/>
      </defs>
      <use xlink:href="#DejaVuSans-5b"/>
      <use xlink:href="#DejaVuSans-63" transform="translate(39.013672 0)"/>
      <use xlink:href="#DejaVuSans-6f" transform="translate(93.994141 0)"/>
      <use xlink:href="#DejaVuSans-75" transform="translate(155.175781 0)"/>
      <use xlink:href="#DejaVuSans-6e" transform="translate(218.554688 0)"/>
      <use xlink:href="#DejaVuSans-74" transform="translate(281.933594 0)"/>
      <use xlink:href="#DejaVuSans-73" transform="translate(321.142578 0)"/>
      <use xlink:href="#DejaVuSans-5d" transform="translate(373.242188 0)"/>
     </g>
    </g>
   </g>
   <g id="line2d_15">
    <path d="M 57.999472 191.347094 
L 58.310895 191.347094 
L 58.310895 142.56396 
L 58.622319 142.56396 
L 58.622319 104.498332 
L 58.933742 104.498332 
L 58.933742 96.367809 
L 59.245165 96.367809 
L 59.245165 93.411256 
L 59.556588 93.411256 
L 59.556588 81.585041 
L 59.868011 81.585041 
L 59.868011 91.378625 
L 60.179434 91.378625 
L 60.179434 83.063318 
L 60.490857 83.063318 
L 60.490857 78.443703 
L 60.802281 78.443703 
L 60.802281 67.541412 
L 61.113704 67.541412 
L 61.113704 58.486966 
L 61.425127 58.486966 
L 61.425127 50.356444 
L 61.73655 50.356444 
L 61.73655 56.269551 
L 62.047973 56.269551 
L 62.047973 54.23692 
L 62.359396 54.23692 
L 62.359396 40.932429 
L 62.670819 40.932429 
L 62.670819 33.35626 
L 62.982243 33.35626 
L 62.982243 17.649569 
L 63.293666 17.649569 
L 63.293666 27.258368 
L 63.605089 27.258368 
L 63.605089 30.584491 
L 63.916512 30.584491 
L 63.916512 31.32363 
L 64.227935 31.32363 
L 64.227935 29.475784 
L 64.539358 29.475784 
L 64.539358 33.910614 
L 64.850781 33.910614 
L 64.850781 31.693199 
L 65.162205 31.693199 
L 65.162205 29.660568 
L 65.473628 29.660568 
L 65.473628 36.128029 
L 65.785051 36.128029 
L 65.785051 28.92143 
L 66.096474 28.92143 
L 66.096474 34.834537 
L 66.407897 34.834537 
L 66.407897 42.96506 
L 66.71932 42.96506 
L 66.71932 48.508598 
L 67.030744 48.508598 
L 67.030744 57.378258 
L 67.342167 57.378258 
L 67.342167 68.834904 
L 67.65359 68.834904 
L 67.65359 70.867534 
L 67.965013 70.867534 
L 67.965013 81.030687 
L 68.276436 81.030687 
L 68.276436 110.411439 
L 68.587859 110.411439 
L 68.587859 107.085316 
L 68.899282 107.085316 
L 68.899282 123.71593 
L 69.210706 123.71593 
L 69.210706 122.052869 
L 69.522129 122.052869 
L 69.522129 139.607406 
L 69.833552 139.607406 
L 69.833552 142.933529 
L 70.144975 142.933529 
L 70.144975 152.172759 
L 70.456398 152.172759 
L 70.456398 164.922896 
L 70.767821 164.922896 
L 70.767821 173.792557 
L 71.079244 173.792557 
L 71.079244 185.064418 
L 71.390668 185.064418 
L 71.390668 193.934079 
L 71.702091 193.934079 
L 71.702091 199.108048 
L 72.013514 199.108048 
L 72.013514 205.575509 
L 72.324937 205.575509 
L 72.324937 212.782108 
L 72.63636 212.782108 
L 72.63636 218.325646 
L 72.947783 218.325646 
L 72.947783 218.88 
L 75.750592 218.88 
L 75.750592 208.716847 
L 76.062015 208.716847 
L 76.062015 173.977342 
L 76.373438 173.977342 
L 76.373438 131.661668 
L 76.684861 131.661668 
L 76.684861 107.454885 
L 76.996284 107.454885 
L 76.996284 80.845903 
L 77.307707 80.845903 
L 77.307707 86.943795 
L 77.930554 86.943795 
L 77.930554 92.856902 
L 78.241977 92.856902 
L 78.241977 86.943795 
L 78.5534 86.943795 
L 78.5534 98.954794 
L 78.864823 98.954794 
L 78.864823 98.215655 
L 79.176246 98.215655 
L 79.176246 99.693932 
L 79.487669 99.693932 
L 79.487669 100.987424 
L 79.799093 100.987424 
L 79.799093 94.889533 
L 80.110516 94.889533 
L 80.110516 101.172209 
L 80.421939 101.172209 
L 80.421939 116.324546 
L 80.733362 116.324546 
L 80.733362 110.226654 
L 81.044785 110.226654 
L 81.044785 109.302731 
L 81.356208 109.302731 
L 81.356208 108.009239 
L 81.667631 108.009239 
L 81.667631 110.781008 
L 81.979055 110.781008 
L 81.979055 120.574592 
L 82.290478 120.574592 
L 82.290478 114.291916 
L 82.913324 114.291916 
L 82.913324 121.868084 
L 83.224747 121.868084 
L 83.224747 126.857269 
L 83.53617 126.857269 
L 83.53617 125.194207 
L 83.847594 125.194207 
L 83.847594 128.150761 
L 84.159017 128.150761 
L 84.159017 125.933346 
L 84.47044 125.933346 
L 84.47044 127.781192 
L 84.781863 127.781192 
L 84.781863 131.292099 
L 85.093286 131.292099 
L 85.093286 125.378992 
L 85.404709 125.378992 
L 85.404709 138.129129 
L 85.716132 138.129129 
L 85.716132 135.172576 
L 86.027556 135.172576 
L 86.027556 132.95516 
L 86.338979 132.95516 
L 86.338979 141.824821 
L 86.650402 141.824821 
L 86.650402 136.835637 
L 86.961825 136.835637 
L 86.961825 143.672667 
L 87.273248 143.672667 
L 87.273248 148.107498 
L 87.584671 148.107498 
L 87.584671 152.542328 
L 87.896094 152.542328 
L 87.896094 146.629221 
L 88.207518 146.629221 
L 88.207518 150.694482 
L 88.518941 150.694482 
L 88.518941 157.716297 
L 88.830364 157.716297 
L 88.830364 166.216389 
L 89.141787 166.216389 
L 89.141787 174.162126 
L 89.764633 174.162126 
L 89.764633 180.814372 
L 90.076056 180.814372 
L 90.076056 184.879633 
L 90.38748 184.879633 
L 90.38748 195.227571 
L 90.698903 195.227571 
L 90.698903 202.43417 
L 91.010326 202.43417 
L 91.010326 204.282016 
L 91.321749 204.282016 
L 91.321749 206.684216 
L 91.633172 206.684216 
L 91.633172 211.673401 
L 91.944595 211.673401 
L 91.944595 216.4778 
L 92.256019 216.4778 
L 92.256019 218.325646 
L 92.567442 218.325646 
L 92.567442 217.401723 
L 92.878865 217.401723 
L 92.878865 210.379908 
L 93.190288 210.379908 
L 93.190288 194.673217 
L 93.501711 194.673217 
L 93.501711 183.770926 
L 93.813134 183.770926 
L 93.813134 162.151127 
L 94.124557 162.151127 
L 94.124557 153.651036 
L 94.435981 153.651036 
L 94.435981 145.890082 
L 94.747404 145.890082 
L 94.747404 147.368359 
L 95.058827 147.368359 
L 95.058827 144.411806 
L 95.37025 144.411806 
L 95.37025 151.618405 
L 95.681673 151.618405 
L 95.681673 158.270651 
L 95.993096 158.270651 
L 95.993096 149.40099 
L 96.304519 149.40099 
L 96.304519 159.564143 
L 96.615943 159.564143 
L 96.615943 155.868451 
L 96.927366 155.868451 
L 96.927366 157.161943 
L 97.238789 157.161943 
L 97.238789 156.607589 
L 97.550212 156.607589 
L 97.550212 163.44462 
L 97.861635 163.44462 
L 97.861635 157.346728 
L 98.173058 157.346728 
L 98.173058 159.564143 
L 98.484481 159.564143 
L 98.484481 166.216389 
L 98.795905 166.216389 
L 98.795905 163.814189 
L 99.107328 163.814189 
L 99.107328 162.520697 
L 99.418751 162.520697 
L 99.418751 166.401173 
L 99.730174 166.401173 
L 99.730174 164.368543 
L 100.041597 164.368543 
L 100.041597 170.836004 
L 100.35302 170.836004 
L 100.35302 171.759927 
L 100.664444 171.759927 
L 100.664444 174.531696 
L 100.975867 174.531696 
L 100.975867 171.759927 
L 101.28729 171.759927 
L 101.28729 173.977342 
L 101.598713 173.977342 
L 101.598713 185.618772 
L 101.910136 185.618772 
L 101.910136 181.183941 
L 102.221559 181.183941 
L 102.221559 187.097049 
L 102.532982 187.097049 
L 102.532982 188.575325 
L 102.844406 188.575325 
L 102.844406 190.607956 
L 103.155829 190.607956 
L 103.155829 192.640587 
L 103.467252 192.640587 
L 103.467252 190.977525 
L 103.778675 190.977525 
L 103.778675 195.227571 
L 104.401521 195.227571 
L 104.401521 200.586324 
L 104.712944 200.586324 
L 104.712944 199.847186 
L 105.024368 199.847186 
L 105.024368 201.695032 
L 105.335791 201.695032 
L 105.335791 202.618955 
L 105.647214 202.618955 
L 105.647214 205.760293 
L 105.958637 205.760293 
L 105.958637 208.716847 
L 106.27006 208.716847 
L 106.27006 210.379908 
L 106.581483 210.379908 
L 106.581483 212.597324 
L 106.892906 212.597324 
L 106.892906 212.966893 
L 107.20433 212.966893 
L 107.20433 215.923446 
L 107.515753 215.923446 
L 107.515753 218.695215 
L 107.827176 218.695215 
L 107.827176 217.401723 
L 108.138599 217.401723 
L 108.138599 214.260385 
L 108.450022 214.260385 
L 108.450022 205.945078 
L 108.761445 205.945078 
L 108.761445 201.140678 
L 109.072869 201.140678 
L 109.072869 191.531879 
L 109.384292 191.531879 
L 109.384292 184.694849 
L 110.007138 184.694849 
L 110.007138 188.76011 
L 110.318561 188.76011 
L 110.318561 187.097049 
L 110.629984 187.097049 
L 110.629984 191.531879 
L 110.941407 191.531879 
L 110.941407 192.455802 
L 111.252831 192.455802 
L 111.252831 194.303648 
L 111.564254 194.303648 
L 111.564254 195.781925 
L 111.875677 195.781925 
L 111.875677 193.010156 
L 112.1871 193.010156 
L 112.1871 199.477617 
L 112.498523 199.477617 
L 112.498523 197.629771 
L 113.121369 197.629771 
L 113.121369 199.662401 
L 113.432793 199.662401 
L 113.432793 204.651586 
L 113.744216 204.651586 
L 113.744216 201.695032 
L 114.055639 201.695032 
L 114.055639 198.368909 
L 114.367062 198.368909 
L 114.367062 204.651586 
L 114.678485 204.651586 
L 114.678485 203.542878 
L 114.989908 203.542878 
L 114.989908 205.021155 
L 115.301332 205.021155 
L 115.301332 206.499432 
L 115.612755 206.499432 
L 115.612755 206.129863 
L 115.924178 206.129863 
L 115.924178 205.945078 
L 116.235601 205.945078 
L 116.235601 207.608139 
L 116.547024 207.608139 
L 116.547024 210.195124 
L 116.858447 210.195124 
L 116.858447 209.271201 
L 117.16987 209.271201 
L 117.16987 212.597324 
L 117.481294 212.597324 
L 117.481294 211.673401 
L 117.792717 211.673401 
L 117.792717 209.64077 
L 118.10414 209.64077 
L 118.10414 211.858185 
L 118.415563 211.858185 
L 118.415563 214.44517 
L 118.726986 214.44517 
L 118.726986 212.966893 
L 119.038409 212.966893 
L 119.038409 215.184308 
L 119.349832 215.184308 
L 119.349832 216.847369 
L 119.661256 216.847369 
L 119.661256 214.260385 
L 119.972679 214.260385 
L 119.972679 215.553877 
L 120.284102 215.553877 
L 120.284102 217.401723 
L 120.595525 217.401723 
L 120.595525 217.771292 
L 120.906948 217.771292 
L 120.906948 217.956077 
L 121.841218 217.956077 
L 121.841218 218.88 
L 122.464064 218.88 
L 122.464064 218.510431 
L 122.775487 218.510431 
L 122.775487 217.032154 
L 123.08691 217.032154 
L 123.08691 213.521247 
L 123.398333 213.521247 
L 123.398333 211.488616 
L 123.709757 211.488616 
L 123.709757 209.825555 
L 124.02118 209.825555 
L 124.02118 207.792924 
L 124.332603 207.792924 
L 124.332603 206.129863 
L 124.644026 206.129863 
L 124.644026 209.271201 
L 124.955449 209.271201 
L 124.955449 206.684216 
L 125.266872 206.684216 
L 125.266872 206.869001 
L 125.578295 206.869001 
L 125.578295 208.162493 
L 125.889719 208.162493 
L 125.889719 209.271201 
L 126.201142 209.271201 
L 126.201142 207.23857 
L 126.512565 207.23857 
L 126.512565 211.858185 
L 126.823988 211.858185 
L 126.823988 209.086416 
L 127.135411 209.086416 
L 127.135411 211.119047 
L 127.446834 211.119047 
L 127.446834 209.271201 
L 127.758257 209.271201 
L 127.758257 209.455985 
L 128.069681 209.455985 
L 128.069681 211.673401 
L 128.381104 211.673401 
L 128.381104 212.966893 
L 128.692527 212.966893 
L 128.692527 211.673401 
L 129.00395 211.673401 
L 129.00395 212.597324 
L 129.315373 212.597324 
L 129.315373 213.521247 
L 129.626796 213.521247 
L 129.626796 214.629954 
L 129.938219 214.629954 
L 129.938219 213.521247 
L 130.249643 213.521247 
L 130.249643 215.553877 
L 130.561066 215.553877 
L 130.561066 214.44517 
L 130.872489 214.44517 
L 130.872489 215.738662 
L 131.183912 215.738662 
L 131.183912 216.662585 
L 131.495335 216.662585 
L 131.495335 215.923446 
L 131.806758 215.923446 
L 131.806758 217.216939 
L 132.118182 217.216939 
L 132.118182 216.847369 
L 132.429605 216.847369 
L 132.429605 216.293016 
L 132.741028 216.293016 
L 132.741028 216.662585 
L 133.363874 216.662585 
L 133.363874 217.956077 
L 133.675297 217.956077 
L 133.675297 217.586508 
L 134.298144 217.586508 
L 134.298144 217.771292 
L 134.609567 217.771292 
L 134.609567 218.88 
L 134.92099 218.88 
L 134.92099 218.695215 
L 135.232413 218.695215 
L 135.232413 218.88 
L 135.543836 218.88 
L 135.543836 218.695215 
L 135.855259 218.695215 
L 135.855259 218.88 
L 137.100952 218.88 
L 137.100952 218.325646 
L 137.412375 218.325646 
L 137.412375 217.771292 
L 137.723798 217.771292 
L 137.723798 216.4778 
L 138.035221 216.4778 
L 138.035221 214.44517 
L 138.346644 214.44517 
L 138.346644 211.119047 
L 138.658068 211.119047 
L 138.658068 210.379908 
L 138.969491 210.379908 
L 138.969491 207.792924 
L 139.280914 207.792924 
L 139.280914 206.129863 
L 139.592337 206.129863 
L 139.592337 205.021155 
L 139.90376 205.021155 
L 139.90376 204.282016 
L 140.215183 204.282016 
L 140.215183 204.466801 
L 140.526607 204.466801 
L 140.526607 202.80374 
L 140.83803 202.80374 
L 140.83803 203.358093 
L 141.149453 203.358093 
L 141.149453 203.727663 
L 141.460876 203.727663 
L 141.460876 204.097232 
L 141.772299 204.097232 
L 141.772299 203.173309 
L 142.083722 203.173309 
L 142.083722 205.575509 
L 142.395145 205.575509 
L 142.395145 201.510247 
L 142.706569 201.510247 
L 142.706569 205.575509 
L 143.017992 205.575509 
L 143.017992 202.249386 
L 143.329415 202.249386 
L 143.329415 208.532062 
L 143.640838 208.532062 
L 143.640838 207.053786 
L 143.952261 207.053786 
L 143.952261 202.618955 
L 144.263684 202.618955 
L 144.263684 206.869001 
L 144.575107 206.869001 
L 144.575107 208.162493 
L 144.886531 208.162493 
L 144.886531 207.977709 
L 145.197954 207.977709 
L 145.197954 205.20594 
L 145.509377 205.20594 
L 145.509377 206.129863 
L 145.8208 206.129863 
L 145.8208 208.716847 
L 146.132223 208.716847 
L 146.132223 208.901632 
L 146.443646 208.901632 
L 146.443646 209.086416 
L 146.755069 209.086416 
L 146.755069 207.608139 
L 147.066493 207.608139 
L 147.066493 208.716847 
L 147.377916 208.716847 
L 147.377916 209.64077 
L 147.689339 209.64077 
L 147.689339 210.010339 
L 148.000762 210.010339 
L 148.000762 210.934262 
L 148.312185 210.934262 
L 148.312185 209.64077 
L 148.623608 209.64077 
L 148.623608 209.825555 
L 148.935032 209.825555 
L 148.935032 210.934262 
L 149.246455 210.934262 
L 149.246455 213.521247 
L 149.557878 213.521247 
L 149.557878 215.369093 
L 149.869301 215.369093 
L 149.869301 213.151677 
L 150.180724 213.151677 
L 150.180724 213.706031 
L 150.492147 213.706031 
L 150.492147 216.108231 
L 151.114994 216.108231 
L 151.114994 217.032154 
L 151.426417 217.032154 
L 151.426417 217.032154 
" clip-path="url(#p33d3a3b7a4)" style="fill: none; stroke: #1f77b4; stroke-width: 1.5; stroke-linecap: square"/>
   </g>
   <g id="line2d_16">
    <path d="M 173.890202 193.379725 
L 174.202346 193.379725 
L 174.202346 141.455252 
L 174.514491 141.455252 
L 174.514491 107.270101 
L 174.826635 107.270101 
L 174.826635 95.628671 
L 175.13878 95.628671 
L 175.13878 88.976425 
L 175.450925 88.976425 
L 175.450925 81.030687 
L 175.763069 81.030687 
L 175.763069 80.845903 
L 176.075214 80.845903 
L 176.075214 75.856719 
L 176.387358 75.856719 
L 176.387358 73.639303 
L 176.699503 73.639303 
L 176.699503 74.563226 
L 177.011647 74.563226 
L 177.011647 65.87835 
L 177.323792 65.87835 
L 177.323792 50.910797 
L 177.635937 50.910797 
L 177.635937 46.475967 
L 177.948081 46.475967 
L 177.948081 44.073767 
L 178.260226 44.073767 
L 178.260226 41.301998 
L 178.57237 41.301998 
L 178.57237 36.867168 
L 178.884515 36.867168 
L 178.884515 23.747461 
L 179.196659 23.747461 
L 179.196659 17.28 
L 179.508804 17.28 
L 179.508804 28.92143 
L 179.820949 28.92143 
L 179.820949 31.693199 
L 180.133093 31.693199 
L 180.133093 22.453969 
L 180.445238 22.453969 
L 180.445238 30.95406 
L 180.757382 30.95406 
L 180.757382 39.638937 
L 181.069527 39.638937 
L 181.069527 35.75846 
L 181.381671 35.75846 
L 181.381671 24.486599 
L 181.693816 24.486599 
L 181.693816 26.888799 
L 182.005961 26.888799 
L 182.005961 49.432521 
L 182.318105 49.432521 
L 182.318105 35.573676 
L 182.63025 35.573676 
L 182.63025 40.56286 
L 182.942394 40.56286 
L 182.942394 57.008689 
L 183.254539 57.008689 
L 183.254539 76.595857 
L 183.566683 76.595857 
L 183.566683 75.302365 
L 183.878828 75.302365 
L 183.878828 89.715564 
L 184.190973 89.715564 
L 184.190973 91.009056 
L 184.503117 91.009056 
L 184.503117 109.302731 
L 184.815262 109.302731 
L 184.815262 119.835454 
L 185.127406 119.835454 
L 185.127406 132.95516 
L 185.439551 132.95516 
L 185.439551 138.868268 
L 185.751695 138.868268 
L 185.751695 149.031421 
L 186.06384 149.031421 
L 186.06384 158.455435 
L 186.375985 158.455435 
L 186.375985 173.238203 
L 186.688129 173.238203 
L 186.688129 172.129496 
L 187.000274 172.129496 
L 187.000274 183.401357 
L 187.312418 183.401357 
L 187.312418 190.423171 
L 187.624563 190.423171 
L 187.624563 201.325463 
L 187.936707 201.325463 
L 187.936707 208.347278 
L 188.248852 208.347278 
L 188.248852 213.890816 
L 188.560997 213.890816 
L 188.560997 217.401723 
L 188.873141 217.401723 
L 188.873141 218.88 
L 191.682442 218.88 
L 191.682442 204.466801 
L 191.994587 204.466801 
L 191.994587 174.531696 
L 192.306732 174.531696 
L 192.306732 137.574775 
L 192.618876 137.574775 
L 192.618876 113.922346 
L 192.931021 113.922346 
L 192.931021 88.606856 
L 193.243165 88.606856 
L 193.243165 91.932979 
L 193.55531 91.932979 
L 193.55531 91.748194 
L 193.867454 91.748194 
L 193.867454 90.085133 
L 194.179599 90.085133 
L 194.179599 99.139578 
L 194.491744 99.139578 
L 194.491744 101.172209 
L 194.803888 101.172209 
L 194.803888 101.356994 
L 195.116033 101.356994 
L 195.116033 103.943978 
L 195.428177 103.943978 
L 195.428177 104.128763 
L 195.740322 104.128763 
L 195.740322 96.367809 
L 196.052466 96.367809 
L 196.052466 110.226654 
L 196.364611 110.226654 
L 196.364611 112.44407 
L 196.9889 112.44407 
L 196.9889 115.954977 
L 197.301045 115.954977 
L 197.301045 113.922346 
L 197.613189 113.922346 
L 197.613189 117.248469 
L 197.925334 117.248469 
L 197.925334 115.031054 
L 198.237478 115.031054 
L 198.237478 111.150577 
L 198.549623 111.150577 
L 198.549623 126.302915 
L 198.861768 126.302915 
L 198.861768 121.6833 
L 199.173912 121.6833 
L 199.173912 120.389808 
L 199.486057 120.389808 
L 199.486057 117.248469 
L 199.798201 117.248469 
L 199.798201 124.824638 
L 200.110346 124.824638 
L 200.110346 122.976792 
L 200.42249 122.976792 
L 200.42249 123.900715 
L 200.734635 123.900715 
L 200.734635 133.694299 
L 201.04678 133.694299 
L 201.04678 117.618038 
L 201.358924 117.618038 
L 201.358924 133.509514 
L 201.671069 133.509514 
L 201.671069 135.542145 
L 201.983213 135.542145 
L 201.983213 136.096499 
L 202.295358 136.096499 
L 202.295358 138.683483 
L 202.607502 138.683483 
L 202.607502 139.237837 
L 202.919647 139.237837 
L 202.919647 143.118313 
L 203.231792 143.118313 
L 203.231792 148.661852 
L 203.543936 148.661852 
L 203.543936 153.281467 
L 203.856081 153.281467 
L 203.856081 147.737929 
L 204.168225 147.737929 
L 204.168225 153.466251 
L 204.48037 153.466251 
L 204.48037 162.705481 
L 204.792514 162.705481 
L 204.792514 162.890266 
L 205.104659 162.890266 
L 205.104659 169.357727 
L 205.416804 169.357727 
L 205.416804 176.379542 
L 205.728948 176.379542 
L 205.728948 181.738295 
L 206.041093 181.738295 
L 206.041093 186.727479 
L 206.353237 186.727479 
L 206.353237 195.227571 
L 206.665382 195.227571 
L 206.665382 203.173309 
L 206.977526 203.173309 
L 206.977526 205.760293 
L 207.289671 205.760293 
L 207.289671 207.977709 
L 207.601816 207.977709 
L 207.601816 212.412539 
L 207.91396 212.412539 
L 207.91396 216.4778 
L 208.226105 216.4778 
L 208.226105 218.325646 
L 208.538249 218.325646 
L 208.538249 216.4778 
L 208.850394 216.4778 
L 208.850394 209.271201 
L 209.162538 209.271201 
L 209.162538 191.901448 
L 209.474683 191.901448 
L 209.474683 179.52088 
L 209.786828 179.52088 
L 209.786828 160.672851 
L 210.098972 160.672851 
L 210.098972 156.422805 
L 210.411117 156.422805 
L 210.411117 152.357544 
L 210.723261 152.357544 
L 210.723261 150.140128 
L 211.035406 150.140128 
L 211.035406 148.661852 
L 211.347551 148.661852 
L 211.347551 149.585775 
L 211.659695 149.585775 
L 211.659695 153.466251 
L 211.97184 153.466251 
L 211.97184 152.172759 
L 212.283984 152.172759 
L 212.283984 156.792374 
L 212.596129 156.792374 
L 212.596129 156.23802 
L 212.908273 156.23802 
L 212.908273 163.259835 
L 213.220418 163.259835 
L 213.220418 151.248836 
L 213.532563 151.248836 
L 213.532563 163.259835 
L 213.844707 163.259835 
L 213.844707 164.368543 
L 214.156852 164.368543 
L 214.156852 158.270651 
L 214.468996 158.270651 
L 214.468996 162.335912 
L 214.781141 162.335912 
L 214.781141 163.44462 
L 215.093285 163.44462 
L 215.093285 162.705481 
L 215.40543 162.705481 
L 215.40543 166.770742 
L 215.717575 166.770742 
L 215.717575 163.629404 
L 216.029719 163.629404 
L 216.029719 172.868634 
L 216.341864 172.868634 
L 216.341864 173.422988 
L 216.654008 173.422988 
L 216.654008 177.488249 
L 216.966153 177.488249 
L 216.966153 176.009973 
L 217.278297 176.009973 
L 217.278297 178.227388 
L 217.590442 178.227388 
L 217.590442 181.738295 
L 217.902587 181.738295 
L 217.902587 178.042603 
L 218.214731 178.042603 
L 218.214731 183.770926 
L 218.526876 183.770926 
L 218.526876 187.281833 
L 218.83902 187.281833 
L 218.83902 188.205756 
L 219.151165 188.205756 
L 219.151165 190.977525 
L 219.463309 190.977525 
L 219.463309 193.749294 
L 219.775454 193.749294 
L 219.775454 192.086233 
L 220.087599 192.086233 
L 220.087599 197.99934 
L 220.399743 197.99934 
L 220.399743 199.477617 
L 220.711888 199.477617 
L 220.711888 197.444986 
L 221.024032 197.444986 
L 221.024032 199.662401 
L 221.336177 199.662401 
L 221.336177 205.021155 
L 221.648321 205.021155 
L 221.648321 207.608139 
L 221.960466 207.608139 
L 221.960466 210.010339 
L 222.272611 210.010339 
L 222.272611 212.597324 
L 222.8969 212.597324 
L 222.8969 214.814739 
L 223.209044 214.814739 
L 223.209044 217.216939 
L 223.521189 217.216939 
L 223.521189 218.695215 
L 223.833333 218.695215 
L 223.833333 215.738662 
L 224.145478 215.738662 
L 224.145478 213.151677 
L 224.457623 213.151677 
L 224.457623 205.390724 
L 224.769767 205.390724 
L 224.769767 198.368909 
L 225.081912 198.368909 
L 225.081912 193.56451 
L 225.394056 193.56451 
L 225.394056 185.249203 
L 225.706201 185.249203 
L 225.706201 190.423171 
L 226.018345 190.423171 
L 226.018345 189.684033 
L 226.33049 189.684033 
L 226.33049 191.16231 
L 226.642635 191.16231 
L 226.642635 190.238387 
L 226.954779 190.238387 
L 226.954779 190.792741 
L 227.266924 190.792741 
L 227.266924 192.455802 
L 227.579068 192.455802 
L 227.579068 193.934079 
L 227.891213 193.934079 
L 227.891213 195.227571 
L 228.203357 195.227571 
L 228.203357 199.108048 
L 228.515502 199.108048 
L 228.515502 200.216755 
L 228.827647 200.216755 
L 228.827647 197.075417 
L 229.139791 197.075417 
L 229.139791 198.368909 
L 229.451936 198.368909 
L 229.451936 199.847186 
L 229.76408 199.847186 
L 229.76408 204.282016 
L 230.076225 204.282016 
L 230.076225 202.80374 
L 230.38837 202.80374 
L 230.38837 204.83637 
L 230.700514 204.83637 
L 230.700514 205.390724 
L 231.012659 205.390724 
L 231.012659 205.945078 
L 231.324803 205.945078 
L 231.324803 205.20594 
L 231.636948 205.20594 
L 231.636948 207.423355 
L 231.949092 207.423355 
L 231.949092 208.716847 
L 232.261237 208.716847 
L 232.261237 208.532062 
L 232.573382 208.532062 
L 232.573382 207.053786 
L 232.885526 207.053786 
L 232.885526 210.010339 
L 233.197671 210.010339 
L 233.197671 210.379908 
L 233.509815 210.379908 
L 233.509815 211.488616 
L 233.82196 211.488616 
L 233.82196 213.336462 
L 234.446249 213.336462 
L 234.446249 212.782108 
L 234.758394 212.782108 
L 234.758394 215.369093 
L 235.070538 215.369093 
L 235.070538 214.0756 
L 235.382683 214.0756 
L 235.382683 215.923446 
L 236.006972 215.923446 
L 236.006972 215.553877 
L 236.319116 215.553877 
L 236.319116 217.956077 
L 236.631261 217.956077 
L 236.631261 218.140862 
L 236.943406 218.140862 
L 236.943406 217.401723 
L 237.25555 217.401723 
L 237.25555 218.325646 
L 237.567695 218.325646 
L 237.567695 218.510431 
L 237.879839 218.510431 
L 237.879839 218.88 
L 238.504128 218.88 
L 238.504128 218.695215 
L 238.816273 218.695215 
L 238.816273 216.847369 
L 239.128418 216.847369 
L 239.128418 213.706031 
L 239.440562 213.706031 
L 239.440562 210.195124 
L 239.752707 210.195124 
L 239.752707 206.499432 
L 240.064851 206.499432 
L 240.064851 205.575509 
L 240.376996 205.575509 
L 240.376996 202.988524 
L 240.68914 202.988524 
L 240.68914 205.575509 
L 241.001285 205.575509 
L 241.001285 205.760293 
L 241.31343 205.760293 
L 241.31343 207.23857 
L 241.625574 207.23857 
L 241.625574 207.053786 
L 241.937719 207.053786 
L 241.937719 208.347278 
L 242.249863 208.347278 
L 242.249863 207.608139 
L 242.562008 207.608139 
L 242.562008 208.162493 
L 242.874152 208.162493 
L 242.874152 209.086416 
L 243.186297 209.086416 
L 243.186297 210.934262 
L 243.498442 210.934262 
L 243.498442 209.271201 
L 243.810586 209.271201 
L 243.810586 211.303831 
L 244.122731 211.303831 
L 244.122731 210.379908 
L 244.434875 210.379908 
L 244.434875 211.673401 
L 244.74702 211.673401 
L 244.74702 211.858185 
L 245.059164 211.858185 
L 245.059164 212.782108 
L 245.371309 212.782108 
L 245.371309 213.336462 
L 245.683454 213.336462 
L 245.683454 214.0756 
L 245.995598 214.0756 
L 245.995598 212.597324 
L 246.307743 212.597324 
L 246.307743 214.0756 
L 246.619887 214.0756 
L 246.619887 214.44517 
L 246.932032 214.44517 
L 246.932032 214.814739 
L 247.244176 214.814739 
L 247.244176 216.108231 
L 247.556321 216.108231 
L 247.556321 215.738662 
L 247.868466 215.738662 
L 247.868466 215.923446 
L 248.18061 215.923446 
L 248.18061 217.401723 
L 248.492755 217.401723 
L 248.492755 216.293016 
L 248.804899 216.293016 
L 248.804899 217.956077 
L 249.117044 217.956077 
L 249.117044 217.032154 
L 249.429189 217.032154 
L 249.429189 217.956077 
L 250.053478 217.956077 
L 250.053478 218.695215 
L 250.365622 218.695215 
L 250.365622 218.140862 
L 250.989911 218.140862 
L 250.989911 218.695215 
L 251.302056 218.695215 
L 251.302056 218.88 
L 252.862779 218.88 
L 252.862779 218.325646 
L 253.174923 218.325646 
L 253.174923 217.216939 
L 253.799213 217.216939 
L 253.799213 214.999523 
L 254.111357 214.999523 
L 254.111357 211.119047 
L 254.423502 211.119047 
L 254.423502 207.792924 
L 254.735646 207.792924 
L 254.735646 207.053786 
L 255.047791 207.053786 
L 255.047791 206.129863 
L 255.359935 206.129863 
L 255.359935 205.20594 
L 255.67208 205.20594 
L 255.67208 202.80374 
L 255.984225 202.80374 
L 255.984225 201.325463 
L 256.296369 201.325463 
L 256.296369 202.43417 
L 256.608514 202.43417 
L 256.608514 201.879817 
L 256.920658 201.879817 
L 256.920658 202.249386 
L 257.232803 202.249386 
L 257.232803 202.618955 
L 257.544947 202.618955 
L 257.544947 201.879817 
L 257.857092 201.879817 
L 257.857092 202.618955 
L 258.169237 202.618955 
L 258.169237 200.955894 
L 258.481381 200.955894 
L 258.481381 203.173309 
L 259.10567 203.173309 
L 259.10567 205.390724 
L 259.417815 205.390724 
L 259.417815 202.43417 
L 259.729959 202.43417 
L 259.729959 202.249386 
L 260.042104 202.249386 
L 260.042104 206.129863 
L 260.354249 206.129863 
L 260.354249 207.23857 
L 260.666393 207.23857 
L 260.666393 205.021155 
L 260.978538 205.021155 
L 260.978538 205.575509 
L 261.290682 205.575509 
L 261.290682 209.086416 
L 261.602827 209.086416 
L 261.602827 205.760293 
L 261.914971 205.760293 
L 261.914971 204.651586 
L 262.227116 204.651586 
L 262.227116 211.119047 
L 262.539261 211.119047 
L 262.539261 206.869001 
L 262.851405 206.869001 
L 262.851405 209.455985 
L 263.16355 209.455985 
L 263.16355 208.716847 
L 263.475694 208.716847 
L 263.475694 210.010339 
L 263.787839 210.010339 
L 263.787839 211.488616 
L 264.099983 211.488616 
L 264.099983 210.564693 
L 264.412128 210.564693 
L 264.412128 210.934262 
L 264.724273 210.934262 
L 264.724273 210.010339 
L 265.036417 210.010339 
L 265.036417 213.706031 
L 265.348562 213.706031 
L 265.348562 213.336462 
L 265.660706 213.336462 
L 265.660706 214.260385 
L 265.972851 214.260385 
L 265.972851 212.782108 
L 266.284995 212.782108 
L 266.284995 214.260385 
L 266.59714 214.260385 
L 266.59714 217.216939 
L 266.909285 217.216939 
L 266.909285 216.847369 
L 267.221429 216.847369 
L 267.221429 218.325646 
L 267.533574 218.325646 
L 267.533574 218.325646 
" clip-path="url(#p33d3a3b7a4)" style="fill: none; stroke: #ff7f0e; stroke-width: 1.5; stroke-linecap: square"/>
   </g>
   <g id="line2d_17">
    <path d="M 289.817261 187.836187 
L 290.129359 187.836187 
L 290.129359 139.607406 
L 290.441457 139.607406 
L 290.441457 102.465701 
L 290.753555 102.465701 
L 290.753555 94.335179 
L 291.065653 94.335179 
L 291.065653 86.204656 
L 291.377751 86.204656 
L 291.377751 93.041687 
L 291.689849 93.041687 
L 291.689849 83.987241 
L 292.001947 83.987241 
L 292.001947 82.508964 
L 292.314045 82.508964 
L 292.314045 79.367626 
L 292.626143 79.367626 
L 292.626143 60.704381 
L 292.938241 60.704381 
L 292.938241 67.910981 
L 293.250339 67.910981 
L 293.250339 64.769643 
L 293.562437 64.769643 
L 293.562437 56.269551 
L 293.874535 56.269551 
L 293.874535 49.617305 
L 294.186633 49.617305 
L 294.186633 31.693199 
L 294.498731 31.693199 
L 294.498731 25.225738 
L 294.810829 25.225738 
L 294.810829 25.964876 
L 295.122927 25.964876 
L 295.122927 30.399707 
L 295.435025 30.399707 
L 295.435025 27.627938 
L 295.747123 27.627938 
L 295.747123 24.11703 
L 296.059221 24.11703 
L 296.059221 25.225738 
L 296.371319 25.225738 
L 296.371319 26.51923 
L 296.683417 26.51923 
L 296.683417 25.780092 
L 297.307613 25.780092 
L 297.307613 32.617122 
L 297.619711 32.617122 
L 297.619711 42.410706 
L 297.931808 42.410706 
L 297.931808 35.204106 
L 298.243906 35.204106 
L 298.243906 50.910797 
L 298.556004 50.910797 
L 298.556004 44.258552 
L 298.868102 44.258552 
L 298.868102 58.117397 
L 299.1802 58.117397 
L 299.1802 64.584858 
L 299.492298 64.584858 
L 299.492298 70.68275 
L 299.804396 70.68275 
L 299.804396 88.976425 
L 300.116494 88.976425 
L 300.116494 102.465701 
L 300.428592 102.465701 
L 300.428592 111.335362 
L 300.74069 111.335362 
L 300.74069 120.759377 
L 301.052788 120.759377 
L 301.052788 129.259468 
L 301.364886 129.259468 
L 301.364886 141.640037 
L 301.676984 141.640037 
L 301.676984 150.140128 
L 301.989082 150.140128 
L 301.989082 159.564143 
L 302.30118 159.564143 
L 302.30118 167.509881 
L 302.613278 167.509881 
L 302.613278 178.596957 
L 302.925376 178.596957 
L 302.925376 181.183941 
L 303.237474 181.183941 
L 303.237474 195.412356 
L 303.549572 195.412356 
L 303.549572 195.781925 
L 303.86167 195.781925 
L 303.86167 208.162493 
L 304.173768 208.162493 
L 304.173768 213.890816 
L 304.485866 213.890816 
L 304.485866 218.140862 
L 304.797964 218.140862 
L 304.797964 218.88 
L 307.606846 218.88 
L 307.606846 207.608139 
L 307.918944 207.608139 
L 307.918944 170.466434 
L 308.231042 170.466434 
L 308.231042 133.879083 
L 308.54314 133.879083 
L 308.54314 109.487516 
L 308.855238 109.487516 
L 308.855238 88.791641 
L 309.167336 88.791641 
L 309.167336 88.237287 
L 309.479434 88.237287 
L 309.479434 91.378625 
L 309.791532 91.378625 
L 309.791532 91.56341 
L 310.10363 91.56341 
L 310.10363 88.606856 
L 310.415728 88.606856 
L 310.415728 100.063501 
L 310.727826 100.063501 
L 310.727826 105.607039 
L 311.039924 105.607039 
L 311.039924 91.748194 
L 311.352022 91.748194 
L 311.352022 103.020055 
L 311.66412 103.020055 
L 311.66412 101.911347 
L 311.976218 101.911347 
L 311.976218 107.270101 
L 312.288316 107.270101 
L 312.288316 115.585408 
L 312.600414 115.585408 
L 312.600414 113.367993 
L 312.912512 113.367993 
L 312.912512 103.389624 
L 313.22461 103.389624 
L 313.22461 112.998423 
L 313.536708 112.998423 
L 313.536708 108.563593 
L 313.848806 108.563593 
L 313.848806 114.107131 
L 314.160904 114.107131 
L 314.160904 123.346361 
L 314.473001 123.346361 
L 314.473001 116.139762 
L 314.785099 116.139762 
L 314.785099 118.911531 
L 315.097197 118.911531 
L 315.097197 125.748561 
L 315.409295 125.748561 
L 315.409295 125.933346 
L 315.721393 125.933346 
L 315.721393 122.607223 
L 316.033491 122.607223 
L 316.033491 130.737745 
L 316.345589 130.737745 
L 316.345589 128.889899 
L 316.657687 128.889899 
L 316.657687 131.107314 
L 316.969785 131.107314 
L 316.969785 131.846453 
L 317.281883 131.846453 
L 317.281883 128.705115 
L 317.593981 128.705115 
L 317.593981 132.216022 
L 317.906079 132.216022 
L 317.906079 137.75956 
L 318.218177 137.75956 
L 318.218177 144.781375 
L 318.530275 144.781375 
L 318.530275 142.56396 
L 318.842373 142.56396 
L 318.842373 149.031421 
L 319.154471 149.031421 
L 319.154471 146.074867 
L 319.466569 146.074867 
L 319.466569 144.411806 
L 319.778667 144.411806 
L 319.778667 146.99879 
L 320.090765 146.99879 
L 320.090765 152.357544 
L 320.402863 152.357544 
L 320.402863 162.890266 
L 320.714961 162.890266 
L 320.714961 164.922896 
L 321.027059 164.922896 
L 321.027059 168.618588 
L 321.339157 168.618588 
L 321.339157 176.379542 
L 321.651255 176.379542 
L 321.651255 181.738295 
L 321.963353 181.738295 
L 321.963353 184.140495 
L 322.275451 184.140495 
L 322.275451 194.673217 
L 322.587549 194.673217 
L 322.587549 201.879817 
L 322.899647 201.879817 
L 322.899647 206.129863 
L 323.211745 206.129863 
L 323.211745 207.792924 
L 323.523843 207.792924 
L 323.523843 212.782108 
L 323.835941 212.782108 
L 323.835941 216.847369 
L 324.148039 216.847369 
L 324.148039 218.88 
L 324.460137 218.88 
L 324.460137 215.184308 
L 324.772235 215.184308 
L 324.772235 207.423355 
L 325.084333 207.423355 
L 325.084333 194.488433 
L 325.396431 194.488433 
L 325.396431 176.009973 
L 325.708529 176.009973 
L 325.708529 167.509881 
L 326.020627 167.509881 
L 326.020627 151.618405 
L 326.332725 151.618405 
L 326.332725 144.781375 
L 326.644823 144.781375 
L 326.644823 151.80319 
L 326.956921 151.80319 
L 326.956921 153.096682 
L 327.269019 153.096682 
L 327.269019 151.064051 
L 327.581117 151.064051 
L 327.581117 150.879267 
L 327.893215 150.879267 
L 327.893215 151.80319 
L 328.205313 151.80319 
L 328.205313 152.542328 
L 328.517411 152.542328 
L 328.517411 158.455435 
L 328.829509 158.455435 
L 328.829509 156.053236 
L 329.141607 156.053236 
L 329.141607 161.781558 
L 329.453705 161.781558 
L 329.453705 161.411989 
L 329.765803 161.411989 
L 329.765803 154.20539 
L 330.077901 154.20539 
L 330.077901 156.422805 
L 330.389999 156.422805 
L 330.389999 163.814189 
L 330.702097 163.814189 
L 330.702097 168.433804 
L 331.014194 168.433804 
L 331.014194 167.509881 
L 331.326292 167.509881 
L 331.326292 163.07505 
L 331.63839 163.07505 
L 331.63839 171.759927 
L 331.950488 171.759927 
L 331.950488 171.020788 
L 332.262586 171.020788 
L 332.262586 174.901265 
L 332.574684 174.901265 
L 332.574684 176.933896 
L 332.886782 176.933896 
L 332.886782 170.651219 
L 333.19888 170.651219 
L 333.19888 174.162126 
L 333.510978 174.162126 
L 333.510978 182.292649 
L 333.823076 182.292649 
L 333.823076 186.727479 
L 334.135174 186.727479 
L 334.135174 187.651402 
L 334.447272 187.651402 
L 334.447272 183.95571 
L 335.071468 183.95571 
L 335.071468 188.390541 
L 335.383566 188.390541 
L 335.383566 193.379725 
L 335.695664 193.379725 
L 335.695664 196.521063 
L 336.007762 196.521063 
L 336.007762 195.59714 
L 336.31986 195.59714 
L 336.31986 201.140678 
L 336.631958 201.140678 
L 336.631958 201.325463 
L 336.944056 201.325463 
L 336.944056 203.173309 
L 337.256154 203.173309 
L 337.256154 203.542878 
L 337.568252 203.542878 
L 337.568252 206.499432 
L 337.88035 206.499432 
L 337.88035 211.673401 
L 338.192448 211.673401 
L 338.192448 211.119047 
L 338.504546 211.119047 
L 338.504546 213.336462 
L 338.816644 213.336462 
L 338.816644 214.260385 
L 339.128742 214.260385 
L 339.128742 217.216939 
L 339.44084 217.216939 
L 339.44084 218.140862 
L 339.752938 218.140862 
L 339.752938 215.369093 
L 340.065036 215.369093 
L 340.065036 213.706031 
L 340.377134 213.706031 
L 340.377134 204.651586 
L 340.689232 204.651586 
L 340.689232 198.184125 
L 341.00133 198.184125 
L 341.00133 193.749294 
L 341.313428 193.749294 
L 341.313428 188.944895 
L 341.625526 188.944895 
L 341.625526 191.16231 
L 341.937624 191.16231 
L 341.937624 188.944895 
L 342.249722 188.944895 
L 342.249722 193.379725 
L 342.56182 193.379725 
L 342.56182 195.781925 
L 342.873918 195.781925 
L 342.873918 197.075417 
L 343.186016 197.075417 
L 343.186016 199.477617 
L 343.498114 199.477617 
L 343.498114 196.521063 
L 343.810212 196.521063 
L 343.810212 198.368909 
L 344.12231 198.368909 
L 344.12231 194.488433 
L 344.434408 194.488433 
L 344.434408 199.662401 
L 344.746506 199.662401 
L 344.746506 198.923263 
L 345.058604 198.923263 
L 345.058604 195.59714 
L 345.370702 195.59714 
L 345.370702 200.955894 
L 345.6828 200.955894 
L 345.6828 202.064601 
L 345.994898 202.064601 
L 345.994898 203.542878 
L 346.306996 203.542878 
L 346.306996 203.727663 
L 346.619094 203.727663 
L 346.619094 204.466801 
L 346.931192 204.466801 
L 346.931192 206.129863 
L 347.243289 206.129863 
L 347.243289 206.314647 
L 347.867485 206.314647 
L 347.867485 208.716847 
L 348.179583 208.716847 
L 348.179583 209.086416 
L 348.491681 209.086416 
L 348.491681 207.608139 
L 348.803779 207.608139 
L 348.803779 206.869001 
L 349.115877 206.869001 
L 349.115877 210.749478 
L 349.427975 210.749478 
L 349.427975 209.64077 
L 349.740073 209.64077 
L 349.740073 212.04297 
L 350.364269 212.04297 
L 350.364269 214.0756 
L 350.676367 214.0756 
L 350.676367 214.260385 
L 350.988465 214.260385 
L 350.988465 214.999523 
L 351.300563 214.999523 
L 351.300563 216.662585 
L 351.612661 216.662585 
L 351.612661 215.369093 
L 351.924759 215.369093 
L 351.924759 217.401723 
L 352.236857 217.401723 
L 352.236857 216.4778 
L 352.548955 216.4778 
L 352.548955 216.847369 
L 352.861053 216.847369 
L 352.861053 218.510431 
L 353.173151 218.510431 
L 353.173151 218.325646 
L 353.485249 218.325646 
L 353.485249 218.88 
L 354.421543 218.88 
L 354.421543 218.140862 
L 354.733641 218.140862 
L 354.733641 216.662585 
L 355.045739 216.662585 
L 355.045739 212.782108 
L 355.357837 212.782108 
L 355.357837 211.858185 
L 355.669935 211.858185 
L 355.669935 206.314647 
L 355.982033 206.314647 
L 355.982033 206.129863 
L 356.294131 206.129863 
L 356.294131 205.945078 
L 356.606229 205.945078 
L 356.606229 204.651586 
L 356.918327 204.651586 
L 356.918327 206.499432 
L 357.230425 206.499432 
L 357.230425 208.532062 
L 357.542523 208.532062 
L 357.542523 207.423355 
L 357.854621 207.423355 
L 357.854621 209.086416 
L 358.166719 209.086416 
L 358.166719 208.162493 
L 358.478817 208.162493 
L 358.478817 209.455985 
L 358.790915 209.455985 
L 358.790915 209.825555 
L 359.103013 209.825555 
L 359.103013 209.455985 
L 359.415111 209.455985 
L 359.415111 209.086416 
L 359.727209 209.086416 
L 359.727209 211.119047 
L 360.039307 211.119047 
L 360.039307 211.303831 
L 360.351405 211.303831 
L 360.351405 211.119047 
L 360.663503 211.119047 
L 360.663503 213.521247 
L 360.975601 213.521247 
L 360.975601 210.749478 
L 361.287699 210.749478 
L 361.287699 214.44517 
L 361.599797 214.44517 
L 361.599797 212.597324 
L 361.911895 212.597324 
L 361.911895 214.0756 
L 362.223993 214.0756 
L 362.223993 214.44517 
L 362.536091 214.44517 
L 362.536091 213.890816 
L 363.160287 213.890816 
L 363.160287 217.216939 
L 363.472385 217.216939 
L 363.472385 214.44517 
L 363.784482 214.44517 
L 363.784482 215.738662 
L 364.09658 215.738662 
L 364.09658 216.847369 
L 364.408678 216.847369 
L 364.408678 217.032154 
L 365.344972 217.032154 
L 365.344972 217.586508 
L 365.65707 217.586508 
L 365.65707 218.140862 
L 365.969168 218.140862 
L 365.969168 218.510431 
L 366.281266 218.510431 
L 366.281266 218.695215 
L 366.905462 218.695215 
L 366.905462 218.88 
L 368.77805 218.88 
L 368.77805 218.140862 
L 369.090148 218.140862 
L 369.090148 217.586508 
L 369.402246 217.586508 
L 369.402246 214.814739 
L 369.714344 214.814739 
L 369.714344 212.597324 
L 370.026442 212.597324 
L 370.026442 210.379908 
L 370.33854 210.379908 
L 370.33854 210.564693 
L 370.650638 210.564693 
L 370.650638 207.608139 
L 370.962736 207.608139 
L 370.962736 206.499432 
L 371.274834 206.499432 
L 371.274834 206.314647 
L 371.586932 206.314647 
L 371.586932 205.021155 
L 371.89903 205.021155 
L 371.89903 202.618955 
L 372.211128 202.618955 
L 372.211128 203.912447 
L 372.523226 203.912447 
L 372.523226 207.792924 
L 372.835324 207.792924 
L 372.835324 198.184125 
L 373.147422 198.184125 
L 373.147422 204.651586 
L 373.45952 204.651586 
L 373.45952 202.80374 
L 373.771618 202.80374 
L 373.771618 205.021155 
L 374.083716 205.021155 
L 374.083716 206.499432 
L 374.395814 206.499432 
L 374.395814 206.314647 
L 374.707912 206.314647 
L 374.707912 203.912447 
L 375.02001 203.912447 
L 375.02001 206.869001 
L 375.332108 206.869001 
L 375.332108 205.390724 
L 375.644206 205.390724 
L 375.644206 207.23857 
L 375.956304 207.23857 
L 375.956304 205.021155 
L 376.268402 205.021155 
L 376.268402 207.977709 
L 376.5805 207.977709 
L 376.5805 206.684216 
L 376.892598 206.684216 
L 376.892598 209.455985 
L 377.204696 209.455985 
L 377.204696 206.869001 
L 377.516794 206.869001 
L 377.516794 207.053786 
L 377.828892 207.053786 
L 377.828892 206.314647 
L 378.14099 206.314647 
L 378.14099 208.347278 
L 378.453088 208.347278 
L 378.453088 207.977709 
L 378.765186 207.977709 
L 378.765186 210.749478 
L 379.077284 210.749478 
L 379.077284 210.010339 
L 379.70148 210.010339 
L 379.70148 211.119047 
L 380.013577 211.119047 
L 380.013577 211.673401 
L 380.325675 211.673401 
L 380.325675 211.488616 
L 380.637773 211.488616 
L 380.637773 211.673401 
L 380.949871 211.673401 
L 380.949871 214.0756 
L 381.261969 214.0756 
L 381.261969 213.336462 
L 381.574067 213.336462 
L 381.574067 213.706031 
L 381.886165 213.706031 
L 381.886165 214.814739 
L 382.198263 214.814739 
L 382.198263 215.369093 
L 382.510361 215.369093 
L 382.510361 216.108231 
L 382.822459 216.108231 
L 382.822459 217.586508 
L 383.134557 217.586508 
L 383.134557 218.140862 
L 383.446655 218.140862 
L 383.446655 218.140862 
" clip-path="url(#p33d3a3b7a4)" style="fill: none; stroke: #2ca02c; stroke-width: 1.5; stroke-linecap: square"/>
   </g>
   <g id="patch_3">
    <path d="M 53.328125 228.96 
L 53.328125 7.2 
" style="fill: none; stroke: #000000; stroke-width: 0.8; stroke-linejoin: miter; stroke-linecap: square"/>
   </g>
   <g id="patch_4">
    <path d="M 388.128125 228.96 
L 388.128125 7.2 
" style="fill: none; stroke: #000000; stroke-width: 0.8; stroke-linejoin: miter; stroke-linecap: square"/>
   </g>
   <g id="patch_5">
    <path d="M 53.328125 228.96 
L 388.128125 228.96 
" style="fill: none; stroke: #000000; stroke-width: 0.8; stroke-linejoin: miter; stroke-linecap: square"/>
   </g>
   <g id="patch_6">
    <path d="M 53.328125 7.2 
L 388.128125 7.2 
" style="fill: none; stroke: #000000; stroke-width: 0.8; stroke-linejoin: miter; stroke-linecap: square"/>
   </g>
   <g id="legend_1">
    <g id="patch_7">
     <path d="M 312.570312 59.234375 
L 381.128125 59.234375 
Q 383.128125 59.234375 383.128125 57.234375 
L 383.128125 14.2 
Q 383.128125 12.2 381.128125 12.2 
L 312.570312 12.2 
Q 310.570312 12.2 310.570312 14.2 
L 310.570312 57.234375 
Q 310.570312 59.234375 312.570312 59.234375 
z
" style="fill: #ffffff; opacity: 0.8; stroke: #cccccc; stroke-linejoin: miter"/>
    </g>
    <g id="line2d_18">
     <path d="M 314.570312 20.298437 
L 314.570312 20.298437 
L 324.570312 20.298437 
L 324.570312 20.298437 
L 334.570312 20.298437 
" style="fill: none; stroke: #1f77b4; stroke-width: 1.5; stroke-linecap: square"/>
    </g>
    <g id="text_17">
     <!-- pulse:0 -->
     <g transform="translate(342.570312 23.798437) scale(0.1 -0.1)">
      <defs>
       <path id="DejaVuSans-70" d="M 1159 525 
L 1159 -1331 
L 581 -1331 
L 581 3500 
L 1159 3500 
L 1159 2969 
Q 1341 3281 1617 3432 
Q 1894 3584 2278 3584 
Q 2916 3584 3314 3078 
Q 3713 2572 3713 1747 
Q 3713 922 3314 415 
Q 2916 -91 2278 -91 
Q 1894 -91 1617 61 
Q 1341 213 1159 525 
z
M 3116 1747 
Q 3116 2381 2855 2742 
Q 2594 3103 2138 3103 
Q 1681 3103 1420 2742 
Q 1159 2381 1159 1747 
Q 1159 1113 1420 752 
Q 1681 391 2138 391 
Q 2594 391 2855 752 
Q 3116 1113 3116 1747 
z
" transform="scale(0.015625)"/>
       <path id="DejaVuSans-6c" d="M 603 4863 
L 1178 4863 
L 1178 0 
L 603 0 
L 603 4863 
z
" transform="scale(0.015625)"/>
       <path id="DejaVuSans-65" d="M 3597 1894 
L 3597 1613 
L 953 1613 
Q 991 1019 1311 708 
Q 1631 397 2203 397 
Q 2534 397 2845 478 
Q 3156 559 3463 722 
L 3463 178 
Q 3153 47 2828 -22 
Q 2503 -91 2169 -91 
Q 1331 -91 842 396 
Q 353 884 353 1716 
Q 353 2575 817 3079 
Q 1281 3584 2069 3584 
Q 2775 3584 3186 3129 
Q 3597 2675 3597 1894 
z
M 3022 2063 
Q 3016 2534 2758 2815 
Q 2500 3097 2075 3097 
Q 1594 3097 1305 2825 
Q 1016 2553 972 2059 
L 3022 2063 
z
" transform="scale(0.015625)"/>
       <path id="DejaVuSans-3a" d="M 750 794 
L 1409 794 
L 1409 0 
L 750 0 
L 750 794 
z
M 750 3309 
L 1409 3309 
L 1409 2516 
L 750 2516 
L 750 3309 
z
" transform="scale(0.015625)"/>
      </defs>
      <use xlink:href="#DejaVuSans-70"/>
      <use xlink:href="#DejaVuSans-75" transform="translate(63.476562 0)"/>
      <use xlink:href="#DejaVuSans-6c" transform="translate(126.855469 0)"/>
      <use xlink:href="#DejaVuSans-73" transform="translate(154.638672 0)"/>
      <use xlink:href="#DejaVuSans-65" transform="translate(206.738281 0)"/>
      <use xlink:href="#DejaVuSans-3a" transform="translate(268.261719 0)"/>
      <use xlink:href="#DejaVuSans-30" transform="translate(301.953125 0)"/>
     </g>
    </g>
    <g id="line2d_19">
     <path d="M 314.570312 34.976562 
L 314.570312 34.976562 
L 324.570312 34.976562 
L 324.570312 34.976562 
L 334.570312 34.976562 
" style="fill: none; stroke: #ff7f0e; stroke-width: 1.5; stroke-linecap: square"/>
    </g>
    <g id="text_18">
     <!-- pulse:1 -->
     <g transform="translate(342.570312 38.476562) scale(0.1 -0.1)">
      <use xlink:href="#DejaVuSans-70"/>
      <use xlink:href="#DejaVuSans-75" transform="translate(63.476562 0)"/>
      <use xlink:href="#DejaVuSans-6c" transform="translate(126.855469 0)"/>
      <use xlink:href="#DejaVuSans-73" transform="translate(154.638672 0)"/>
      <use xlink:href="#DejaVuSans-65" transform="translate(206.738281 0)"/>
      <use xlink:href="#DejaVuSans-3a" transform="translate(268.261719 0)"/>
      <use xlink:href="#DejaVuSans-31" transform="translate(301.953125 0)"/>
     </g>
    </g>
    <g id="line2d_20">
     <path d="M 314.570312 49.654687 
L 314.570312 49.654687 
L 324.570312 49.654687 
L 324.570312 49.654687 
L 334.570312 49.654687 
" style="fill: none; stroke: #2ca02c; stroke-width: 1.5; stroke-linecap: square"/>
    </g>
    <g id="text_19">
     <!-- pulse:2 -->
     <g transform="translate(342.570312 53.154687) scale(0.1 -0.1)">
      <use xlink:href="#DejaVuSans-70"/>
      <use xlink:href="#DejaVuSans-75" transform="translate(63.476562 0)"/>
      <use xlink:href="#DejaVuSans-6c" transform="translate(126.855469 0)"/>
      <use xlink:href="#DejaVuSans-73" transform="translate(154.638672 0)"/>
      <use xlink:href="#DejaVuSans-65" transform="translate(206.738281 0)"/>
      <use xlink:href="#DejaVuSans-3a" transform="translate(268.261719 0)"/>
      <use xlink:href="#DejaVuSans-32" transform="translate(301.953125 0)"/>
     </g>
    </g>
   </g>
  </g>
 </g>
 <defs>
  <clipPath id="p33d3a3b7a4">
   <rect x="53.328125" y="7.2" width="334.8" height="221.76"/>
  </clipPath>
 </defs>
</svg>
