<?xml version="1.0" encoding="utf-8" standalone="no"?>
<!DOCTYPE svg PUBLIC "-//W3C//DTD SVG 1.1//EN"
  "http://www.w3.org/Graphics/SVG/1.1/DTD/svg11.dtd">
<svg xmlns:xlink="http://www.w3.org/1999/xlink" width="395.328125pt" height="266.51625pt" viewBox="0 0 395.328125 266.51625" xmlns="http://www.w3.org/2000/svg" version="1.1">
 <metadata>
  <rdf:RDF xmlns:dc="http://purl.org/dc/elements/1.1/" xmlns:cc="http://creativecommons.org/ns#" xmlns:rdf="http://www.w3.org/1999/02/22-rdf-syntax-ns#">
   <cc:Work>
    <dc:type rdf:resource="http://purl.org/dc/dcmitype/StillImage"/>
    <dc:date>2025-10-10T17:28:21.792103</dc:date>
    <dc:format>image/svg+xml</dc:format>
    <dc:creator>
     <cc:Agent>
      <dc:title>Matplotlib v3.10.6, https://matplotlib.org/</dc:title>
     </cc:Agent>
    </dc:creator>
   </cc:Work>
  </rdf:RDF>
 </metadata>
 <defs>
  <style type="text/css">*{stroke-linejoin: round; stroke-linecap: butt}</style>
 </defs>
 <g id="figure_1">
  <g id="patch_1">
   <path d="M 0 266.51625 
L 395.328125 266.51625 
L 395.328125 0 
L 0 0 
z
" style="fill: #ffffff"/>
  </g>
  <g id="axes_1">
   <g id="patch_2">
    <path d="M 53.328125 228.96 
L 388.128125 228.96 
L 388.128125 7.2 
L 53.328125 7.2 
z
" style="fill: #ffffff"/>
   </g>
   <g id="matplotlib.axis_1">
    <g id="xtick_1">
     <g id="line2d_1">
      <defs>
       <path id="mf2dd2c250a" d="M 0 0 
L 0 3.5 
" style="stroke: #000000; stroke-width: 0.8"/>
      </defs>
      <g>
       <use xlink:href="#mf2dd2c250a" x="98.324886" y="228.96" style="stroke: #000000; stroke-width: 0.8"/>
      </g>
     </g>
     <g id="text_1">
      <!-- 50000 -->
      <g transform="translate(82.418636 243.558438) scale(0.1 -0.1)">
       <defs>
        <path id="DejaVuSans-35" d="M 691 4666 
L 3169 4666 
L 3169 4134 
L 1269 4134 
L 1269 2991 
Q 1406 3038 1543 3061 
Q 1681 3084 1819 3084 
Q 2600 3084 3056 2656 
Q 3513 2228 3513 1497 
Q 3513 744 3044 326 
Q 2575 -91 1722 -91 
Q 1428 -91 1123 -41 
Q 819 9 494 109 
L 494 744 
Q 775 591 1075 516 
Q 1375 441 1709 441 
Q 2250 441 2565 725 
Q 2881 1009 2881 1497 
Q 2881 1984 2565 2268 
Q 2250 2553 1709 2553 
Q 1456 2553 1204 2497 
Q 953 2441 691 2322 
L 691 4666 
z
" transform="scale(0.015625)"/>
        <path id="DejaVuSans-30" d="M 2034 4250 
Q 1547 4250 1301 3770 
Q 1056 3291 1056 2328 
Q 1056 1369 1301 889 
Q 1547 409 2034 409 
Q 2525 409 2770 889 
Q 3016 1369 3016 2328 
Q 3016 3291 2770 3770 
Q 2525 4250 2034 4250 
z
M 2034 4750 
Q 2819 4750 3233 4129 
Q 3647 3509 3647 2328 
Q 3647 1150 3233 529 
Q 2819 -91 2034 -91 
Q 1250 -91 836 529 
Q 422 1150 422 2328 
Q 422 3509 836 4129 
Q 1250 4750 2034 4750 
z
" transform="scale(0.015625)"/>
       </defs>
       <use xlink:href="#DejaVuSans-35"/>
       <use xlink:href="#DejaVuSans-30" transform="translate(63.623047 0)"/>
       <use xlink:href="#DejaVuSans-30" transform="translate(127.246094 0)"/>
       <use xlink:href="#DejaVuSans-30" transform="translate(190.869141 0)"/>
       <use xlink:href="#DejaVuSans-30" transform="translate(254.492188 0)"/>
      </g>
     </g>
    </g>
    <g id="xtick_2">
     <g id="line2d_2">
      <g>
       <use xlink:href="#mf2dd2c250a" x="159.448671" y="228.96" style="stroke: #000000; stroke-width: 0.8"/>
      </g>
     </g>
     <g id="text_2">
      <!-- 100000 -->
      <g transform="translate(140.361171 243.558438) scale(0.1 -0.1)">
       <defs>
        <path id="DejaVuSans-31" d="M 794 531 
L 1825 531 
L 1825 4091 
L 703 3866 
L 703 4441 
L 1819 4666 
L 2450 4666 
L 2450 531 
L 3481 531 
L 3481 0 
L 794 0 
L 794 531 
z
" transform="scale(0.015625)"/>
       </defs>
       <use xlink:href="#DejaVuSans-31"/>
       <use xlink:href="#DejaVuSans-30" transform="translate(63.623047 0)"/>
       <use xlink:href="#DejaVuSans-30" transform="translate(127.246094 0)"/>
       <use xlink:href="#DejaVuSans-30" transform="translate(190.869141 0)"/>
       <use xlink:href="#DejaVuSans-30" transform="translate(254.492188 0)"/>
       <use xlink:href="#DejaVuSans-30" transform="translate(318.115234 0)"/>
      </g>
     </g>
    </g>
    <g id="xtick_3">
     <g id="line2d_3">
      <g>
       <use xlink:href="#mf2dd2c250a" x="220.572457" y="228.96" style="stroke: #000000; stroke-width: 0.8"/>
      </g>
     </g>
     <g id="text_3">
      <!-- 150000 -->
      <g transform="translate(201.484957 243.558438) scale(0.1 -0.1)">
       <use xlink:href="#DejaVuSans-31"/>
       <use xlink:href="#DejaVuSans-35" transform="translate(63.623047 0)"/>
       <use xlink:href="#DejaVuSans-30" transform="translate(127.246094 0)"/>
       <use xlink:href="#DejaVuSans-30" transform="translate(190.869141 0)"/>
       <use xlink:href="#DejaVuSans-30" transform="translate(254.492188 0)"/>
       <use xlink:href="#DejaVuSans-30" transform="translate(318.115234 0)"/>
      </g>
     </g>
    </g>
    <g id="xtick_4">
     <g id="line2d_4">
      <g>
       <use xlink:href="#mf2dd2c250a" x="281.696242" y="228.96" style="stroke: #000000; stroke-width: 0.8"/>
      </g>
     </g>
     <g id="text_4">
      <!-- 200000 -->
      <g transform="translate(262.608742 243.558438) scale(0.1 -0.1)">
       <defs>
        <path id="DejaVuSans-32" d="M 1228 531 
L 3431 531 
L 3431 0 
L 469 0 
L 469 531 
Q 828 903 1448 1529 
Q 2069 2156 2228 2338 
Q 2531 2678 2651 2914 
Q 2772 3150 2772 3378 
Q 2772 3750 2511 3984 
Q 2250 4219 1831 4219 
Q 1534 4219 1204 4116 
Q 875 4013 500 3803 
L 500 4441 
Q 881 4594 1212 4672 
Q 1544 4750 1819 4750 
Q 2544 4750 2975 4387 
Q 3406 4025 3406 3419 
Q 3406 3131 3298 2873 
Q 3191 2616 2906 2266 
Q 2828 2175 2409 1742 
Q 1991 1309 1228 531 
z
" transform="scale(0.015625)"/>
       </defs>
       <use xlink:href="#DejaVuSans-32"/>
       <use xlink:href="#DejaVuSans-30" transform="translate(63.623047 0)"/>
       <use xlink:href="#DejaVuSans-30" transform="translate(127.246094 0)"/>
       <use xlink:href="#DejaVuSans-30" transform="translate(190.869141 0)"/>
       <use xlink:href="#DejaVuSans-30" transform="translate(254.492188 0)"/>
       <use xlink:href="#DejaVuSans-30" transform="translate(318.115234 0)"/>
      </g>
     </g>
    </g>
    <g id="xtick_5">
     <g id="line2d_5">
      <g>
       <use xlink:href="#mf2dd2c250a" x="342.820027" y="228.96" style="stroke: #000000; stroke-width: 0.8"/>
      </g>
     </g>
     <g id="text_5">
      <!-- 250000 -->
      <g transform="translate(323.732527 243.558438) scale(0.1 -0.1)">
       <use xlink:href="#DejaVuSans-32"/>
       <use xlink:href="#DejaVuSans-35" transform="translate(63.623047 0)"/>
       <use xlink:href="#DejaVuSans-30" transform="translate(127.246094 0)"/>
       <use xlink:href="#DejaVuSans-30" transform="translate(190.869141 0)"/>
       <use xlink:href="#DejaVuSans-30" transform="translate(254.492188 0)"/>
       <use xlink:href="#DejaVuSans-30" transform="translate(318.115234 0)"/>
      </g>
     </g>
    </g>
    <g id="text_6">
     <!-- toa [µs] -->
     <g transform="translate(201.367969 257.236562) scale(0.1 -0.1)">
      <defs>
       <path id="DejaVuSans-74" d="M 1172 4494 
L 1172 3500 
L 2356 3500 
L 2356 3053 
L 1172 3053 
L 1172 1153 
Q 1172 725 1289 603 
Q 1406 481 1766 481 
L 2356 481 
L 2356 0 
L 1766 0 
Q 1100 0 847 248 
Q 594 497 594 1153 
L 594 3053 
L 172 3053 
L 172 3500 
L 594 3500 
L 594 4494 
L 1172 4494 
z
" transform="scale(0.015625)"/>
       <path id="DejaVuSans-6f" d="M 1959 3097 
Q 1497 3097 1228 2736 
Q 959 2375 959 1747 
Q 959 1119 1226 758 
Q 1494 397 1959 397 
Q 2419 397 2687 759 
Q 2956 1122 2956 1747 
Q 2956 2369 2687 2733 
Q 2419 3097 1959 3097 
z
M 1959 3584 
Q 2709 3584 3137 3096 
Q 3566 2609 3566 1747 
Q 3566 888 3137 398 
Q 2709 -91 1959 -91 
Q 1206 -91 779 398 
Q 353 888 353 1747 
Q 353 2609 779 3096 
Q 1206 3584 1959 3584 
z
" transform="scale(0.015625)"/>
       <path id="DejaVuSans-61" d="M 2194 1759 
Q 1497 1759 1228 1600 
Q 959 1441 959 1056 
Q 959 750 1161 570 
Q 1363 391 1709 391 
Q 2188 391 2477 730 
Q 2766 1069 2766 1631 
L 2766 1759 
L 2194 1759 
z
M 3341 1997 
L 3341 0 
L 2766 0 
L 2766 531 
Q 2569 213 2275 61 
Q 1981 -91 1556 -91 
Q 1019 -91 701 211 
Q 384 513 384 1019 
Q 384 1609 779 1909 
Q 1175 2209 1959 2209 
L 2766 2209 
L 2766 2266 
Q 2766 2663 2505 2880 
Q 2244 3097 1772 3097 
Q 1472 3097 1187 3025 
Q 903 2953 641 2809 
L 641 3341 
Q 956 3463 1253 3523 
Q 1550 3584 1831 3584 
Q 2591 3584 2966 3190 
Q 3341 2797 3341 1997 
z
" transform="scale(0.015625)"/>
       <path id="DejaVuSans-20" transform="scale(0.015625)"/>
       <path id="DejaVuSans-5b" d="M 550 4863 
L 1875 4863 
L 1875 4416 
L 1125 4416 
L 1125 -397 
L 1875 -397 
L 1875 -844 
L 550 -844 
L 550 4863 
z
" transform="scale(0.015625)"/>
       <path id="DejaVuSans-b5" d="M 544 -1331 
L 544 3500 
L 1119 3500 
L 1119 1325 
Q 1119 872 1334 640 
Q 1550 409 1972 409 
Q 2434 409 2667 671 
Q 2900 934 2900 1459 
L 2900 3500 
L 3475 3500 
L 3475 806 
Q 3475 619 3529 530 
Q 3584 441 3700 441 
Q 3728 441 3778 458 
Q 3828 475 3916 513 
L 3916 50 
Q 3788 -22 3673 -56 
Q 3559 -91 3450 -91 
Q 3234 -91 3106 31 
Q 2978 153 2931 403 
Q 2775 156 2548 32 
Q 2322 -91 2016 -91 
Q 1697 -91 1473 31 
Q 1250 153 1119 397 
L 1119 -1331 
L 544 -1331 
z
" transform="scale(0.015625)"/>
       <path id="DejaVuSans-73" d="M 2834 3397 
L 2834 2853 
Q 2591 2978 2328 3040 
Q 2066 3103 1784 3103 
Q 1356 3103 1142 2972 
Q 928 2841 928 2578 
Q 928 2378 1081 2264 
Q 1234 2150 1697 2047 
L 1894 2003 
Q 2506 1872 2764 1633 
Q 3022 1394 3022 966 
Q 3022 478 2636 193 
Q 2250 -91 1575 -91 
Q 1294 -91 989 -36 
Q 684 19 347 128 
L 347 722 
Q 666 556 975 473 
Q 1284 391 1588 391 
Q 1994 391 2212 530 
Q 2431 669 2431 922 
Q 2431 1156 2273 1281 
Q 2116 1406 1581 1522 
L 1381 1569 
Q 847 1681 609 1914 
Q 372 2147 372 2553 
Q 372 3047 722 3315 
Q 1072 3584 1716 3584 
Q 2034 3584 2315 3537 
Q 2597 3491 2834 3397 
z
" transform="scale(0.015625)"/>
       <path id="DejaVuSans-5d" d="M 1947 4863 
L 1947 -844 
L 622 -844 
L 622 -397 
L 1369 -397 
L 1369 4416 
L 622 4416 
L 622 4863 
L 1947 4863 
z
" transform="scale(0.015625)"/>
      </defs>
      <use xlink:href="#DejaVuSans-74"/>
      <use xlink:href="#DejaVuSans-6f" transform="translate(39.208984 0)"/>
      <use xlink:href="#DejaVuSans-61" transform="translate(100.390625 0)"/>
      <use xlink:href="#DejaVuSans-20" transform="translate(161.669922 0)"/>
      <use xlink:href="#DejaVuSans-5b" transform="translate(193.457031 0)"/>
      <use xlink:href="#DejaVuSans-b5" transform="translate(232.470703 0)"/>
      <use xlink:href="#DejaVuSans-73" transform="translate(296.09375 0)"/>
      <use xlink:href="#DejaVuSans-5d" transform="translate(348.193359 0)"/>
     </g>
    </g>
   </g>
   <g id="matplotlib.axis_2">
    <g id="ytick_1">
     <g id="line2d_6">
      <defs>
       <path id="mf8c46728ec" d="M 0 0 
L -3.5 0 
" style="stroke: #000000; stroke-width: 0.8"/>
      </defs>
      <g>
       <use xlink:href="#mf8c46728ec" x="53.328125" y="218.88" style="stroke: #000000; stroke-width: 0.8"/>
      </g>
     </g>
     <g id="text_7">
      <!-- 0 -->
      <g transform="translate(39.965625 222.679219) scale(0.1 -0.1)">
       <use xlink:href="#DejaVuSans-30"/>
      </g>
     </g>
    </g>
    <g id="ytick_2">
     <g id="line2d_7">
      <g>
       <use xlink:href="#mf8c46728ec" x="53.328125" y="173.960214" style="stroke: #000000; stroke-width: 0.8"/>
      </g>
     </g>
     <g id="text_8">
      <!-- 500 -->
      <g transform="translate(27.240625 177.759433) scale(0.1 -0.1)">
       <use xlink:href="#DejaVuSans-35"/>
       <use xlink:href="#DejaVuSans-30" transform="translate(63.623047 0)"/>
       <use xlink:href="#DejaVuSans-30" transform="translate(127.246094 0)"/>
      </g>
     </g>
    </g>
    <g id="ytick_3">
     <g id="line2d_8">
      <g>
       <use xlink:href="#mf8c46728ec" x="53.328125" y="129.040428" style="stroke: #000000; stroke-width: 0.8"/>
      </g>
     </g>
     <g id="text_9">
      <!-- 1000 -->
      <g transform="translate(20.878125 132.839647) scale(0.1 -0.1)">
       <use xlink:href="#DejaVuSans-31"/>
       <use xlink:href="#DejaVuSans-30" transform="translate(63.623047 0)"/>
       <use xlink:href="#DejaVuSans-30" transform="translate(127.246094 0)"/>
       <use xlink:href="#DejaVuSans-30" transform="translate(190.869141 0)"/>
      </g>
     </g>
    </g>
    <g id="ytick_4">
     <g id="line2d_9">
      <g>
       <use xlink:href="#mf8c46728ec" x="53.328125" y="84.120642" style="stroke: #000000; stroke-width: 0.8"/>
      </g>
     </g>
     <g id="text_10">
      <!-- 1500 -->
      <g transform="translate(20.878125 87.91986) scale(0.1 -0.1)">
       <use xlink:href="#DejaVuSans-31"/>
       <use xlink:href="#DejaVuSans-35" transform="translate(63.623047 0)"/>
       <use xlink:href="#DejaVuSans-30" transform="translate(127.246094 0)"/>
       <use xlink:href="#DejaVuSans-30" transform="translate(190.869141 0)"/>
      </g>
     </g>
    </g>
    <g id="ytick_5">
     <g id="line2d_10">
      <g>
       <use xlink:href="#mf8c46728ec" x="53.328125" y="39.200856" style="stroke: #000000; stroke-width: 0.8"/>
      </g>
     </g>
     <g id="text_11">
      <!-- 2000 -->
      <g transform="translate(20.878125 43.000074) scale(0.1 -0.1)">
       <use xlink:href="#DejaVuSans-32"/>
       <use xlink:href="#DejaVuSans-30" transform="translate(63.623047 0)"/>
       <use xlink:href="#DejaVuSans-30" transform="translate(127.246094 0)"/>
       <use xlink:href="#DejaVuSans-30" transform="translate(190.869141 0)"/>
      </g>
     </g>
    </g>
    <g id="text_12">
     <!-- [counts] -->
     <g transform="translate(14.798438 138.6925) rotate(-90) scale(0.1 -0.1)">
      <defs>
       <path id="DejaVuSans-63" d="M 3122 3366 
L 3122 2828 
Q 2878 2963 2633 3030 
Q 2388 3097 2138 3097 
Q 1578 3097 1268 2742 
Q 959 2388 959 1747 
Q 959 1106 1268 751 
Q 1578 397 2138 397 
Q 2388 397 2633 464 
Q 2878 531 3122 666 
L 3122 134 
Q 2881 22 2623 -34 
Q 2366 -91 2075 -91 
Q 1284 -91 818 406 
Q 353 903 353 1747 
Q 353 2603 823 3093 
Q 1294 3584 2113 3584 
Q 2378 3584 2631 3529 
Q 2884 3475 3122 3366 
z
" transform="scale(0.015625)"/>
       <path id="DejaVuSans-75" d="M 544 1381 
L 544 3500 
L 1119 3500 
L 1119 1403 
Q 1119 906 1312 657 
Q 1506 409 1894 409 
Q 2359 409 2629 706 
Q 2900 1003 2900 1516 
L 2900 3500 
L 3475 3500 
L 3475 0 
L 2900 0 
L 2900 538 
Q 2691 219 2414 64 
Q 2138 -91 1772 -91 
Q 1169 -91 856 284 
Q 544 659 544 1381 
z
M 1991 3584 
L 1991 3584 
z
" transform="scale(0.015625)"/>
       <path id="DejaVuSans-6e" d="M 3513 2113 
L 3513 0 
L 2938 0 
L 2938 2094 
Q 2938 2591 2744 2837 
Q 2550 3084 2163 3084 
Q 1697 3084 1428 2787 
Q 1159 2491 1159 1978 
L 1159 0 
L 581 0 
L 581 3500 
L 1159 3500 
L 1159 2956 
Q 1366 3272 1645 3428 
Q 1925 3584 2291 3584 
Q 2894 3584 3203 3211 
Q 3513 2838 3513 2113 
z
" transform="scale(0.015625)"/>
      </defs>
      <use xlink:href="#DejaVuSans-5b"/>
      <use xlink:href="#DejaVuSans-63" transform="translate(39.013672 0)"/>
      <use xlink:href="#DejaVuSans-6f" transform="translate(93.994141 0)"/>
      <use xlink:href="#DejaVuSans-75" transform="translate(155.175781 0)"/>
      <use xlink:href="#DejaVuSans-6e" transform="translate(218.554688 0)"/>
      <use xlink:href="#DejaVuSans-74" transform="translate(281.933594 0)"/>
      <use xlink:href="#DejaVuSans-73" transform="translate(321.142578 0)"/>
      <use xlink:href="#DejaVuSans-5d" transform="translate(373.242188 0)"/>
     </g>
    </g>
   </g>
   <g id="line2d_11">
    <path d="M 60.596731 159.046845 
L 61.081305 159.046845 
L 61.081305 102.627594 
L 61.565879 102.627594 
L 61.565879 90.85861 
L 62.050452 90.85861 
L 62.050452 75.046845 
L 62.535026 75.046845 
L 62.535026 66.422246 
L 63.0196 66.422246 
L 63.0196 57.25861 
L 63.504174 57.25861 
L 63.504174 44.231872 
L 63.988747 44.231872 
L 63.988747 37.763422 
L 64.473321 37.763422 
L 64.473321 17.28 
L 64.957895 17.28 
L 64.957895 21.143102 
L 65.442469 21.143102 
L 65.442469 25.63508 
L 65.927042 25.63508 
L 65.927042 32.193369 
L 66.411616 32.193369 
L 66.411616 43.782674 
L 66.89619 43.782674 
L 66.89619 40.45861 
L 67.380764 40.45861 
L 67.380764 57.07893 
L 67.865337 57.07893 
L 67.865337 86.725989 
L 68.349911 86.725989 
L 68.349911 101.28 
L 68.834485 101.28 
L 68.834485 126.704599 
L 69.319059 126.704599 
L 69.319059 146.469305 
L 69.803632 146.469305 
L 69.803632 162.999786 
L 70.288206 162.999786 
L 70.288206 181.14738 
L 70.77278 181.14738 
L 70.77278 199.474652 
L 71.257354 199.474652 
L 71.257354 213.040428 
L 71.741927 213.040428 
L 71.741927 218.79016 
L 73.680222 218.88 
L 73.680222 214.477861 
L 74.164796 214.477861 
L 74.164796 162.460749 
L 74.64937 162.460749 
L 74.64937 101.36984 
L 75.133944 101.36984 
L 75.133944 91.936684 
L 75.618517 91.936684 
L 75.618517 102.627594 
L 76.103091 102.627594 
L 76.103091 100.022246 
L 76.587665 100.022246 
L 76.587665 102.268235 
L 77.072239 102.268235 
L 77.072239 103.525989 
L 77.556812 103.525989 
L 77.556812 107.119572 
L 78.041386 107.119572 
L 78.041386 113.048984 
L 78.52596 113.048984 
L 78.52596 116.912086 
L 79.010534 116.912086 
L 79.010534 115.744171 
L 79.495107 115.744171 
L 79.495107 121.853262 
L 79.979681 121.853262 
L 79.979681 124.728128 
L 80.464255 124.728128 
L 80.464255 128.321711 
L 80.948829 128.321711 
L 80.948829 131.915294 
L 81.433402 131.915294 
L 81.433402 135.149519 
L 81.917976 135.149519 
L 81.917976 140.539893 
L 82.40255 140.539893 
L 82.40255 145.750588 
L 82.887124 145.750588 
L 82.887124 149.883209 
L 83.371697 149.883209 
L 83.371697 153.027594 
L 83.856271 153.027594 
L 83.856271 167.491765 
L 84.340845 167.491765 
L 84.340845 180.698182 
L 84.825419 180.698182 
L 84.825419 193.545241 
L 85.309992 193.545241 
L 85.309992 203.427594 
L 85.794566 203.427594 
L 85.794566 213.489626 
L 86.27914 213.489626 
L 86.27914 218.251123 
L 86.763714 218.251123 
L 86.763714 208.728128 
L 87.248287 208.728128 
L 87.248287 180.698182 
L 87.732861 180.698182 
L 87.732861 156.621176 
L 88.217435 156.621176 
L 88.217435 156.441497 
L 88.702009 156.441497 
L 88.702009 155.004064 
L 89.186582 155.004064 
L 89.186582 156.531337 
L 89.671156 156.531337 
L 89.671156 160.214759 
L 90.15573 160.214759 
L 90.15573 164.25754 
L 90.640304 164.25754 
L 90.640304 160.394439 
L 91.124877 160.394439 
L 91.124877 161.831872 
L 91.609451 161.831872 
L 91.609451 163.988021 
L 92.094025 163.988021 
L 92.094025 170.007273 
L 92.578599 170.007273 
L 92.578599 174.67893 
L 93.063172 174.67893 
L 93.063172 179.170909 
L 93.547746 179.170909 
L 93.547746 181.05754 
L 94.03232 181.05754 
L 94.03232 185.459679 
L 94.516894 185.459679 
L 94.516894 189.232941 
L 95.001467 189.232941 
L 95.001467 195.072513 
L 95.486041 195.072513 
L 95.486041 198.127059 
L 95.970615 198.127059 
L 95.970615 202.529198 
L 96.455189 202.529198 
L 96.455189 204.505668 
L 96.939762 204.505668 
L 96.939762 210.43508 
L 97.424336 210.43508 
L 97.424336 216.005134 
L 97.90891 216.005134 
L 97.90891 217.532406 
L 98.393484 217.532406 
L 98.393484 209.536684 
L 98.878057 209.536684 
L 98.878057 193.63508 
L 99.362631 193.63508 
L 99.362631 191.47893 
L 99.847205 191.47893 
L 99.847205 192.467166 
L 100.331779 192.467166 
L 100.331779 195.072513 
L 100.816352 195.072513 
L 100.816352 197.498182 
L 101.300926 197.498182 
L 101.300926 197.677861 
L 101.7855 197.677861 
L 101.7855 198.666096 
L 102.270074 198.666096 
L 102.270074 201.181604 
L 102.754647 201.181604 
L 102.754647 202.619037 
L 103.239221 202.619037 
L 103.239221 205.763422 
L 103.723795 205.763422 
L 103.723795 206.482139 
L 104.208369 206.482139 
L 104.208369 207.200856 
L 104.692942 207.200856 
L 104.692942 210.255401 
L 105.177516 210.255401 
L 105.177516 210.974118 
L 105.66209 210.974118 
L 105.66209 211.782674 
L 106.146664 211.782674 
L 106.146664 214.927059 
L 106.631237 214.927059 
L 106.631237 214.65754 
L 107.115811 214.65754 
L 107.115811 216.094973 
L 107.600385 216.094973 
L 107.600385 217.173048 
L 108.084959 217.173048 
L 108.084959 217.891765 
L 108.569532 217.891765 
L 108.569532 218.79016 
L 109.054106 218.79016 
L 109.054106 218.340963 
L 109.53868 218.340963 
L 109.53868 214.567701 
L 110.023254 214.567701 
L 110.023254 207.200856 
L 110.507827 207.200856 
L 110.507827 203.876791 
L 110.992401 203.876791 
L 110.992401 208.099251 
L 111.476975 208.099251 
L 111.476975 207.021176 
L 111.961549 207.021176 
L 111.961549 208.189091 
L 112.446122 208.189091 
L 112.446122 209.536684 
L 112.930696 209.536684 
L 112.930696 211.513155 
L 113.41527 211.513155 
L 113.41527 210.255401 
L 113.899844 210.255401 
L 113.899844 212.860749 
L 114.384417 212.860749 
L 114.384417 212.68107 
L 114.868991 212.68107 
L 114.868991 213.399786 
L 115.353565 213.399786 
L 115.353565 214.927059 
L 115.838139 214.927059 
L 115.838139 215.376257 
L 116.322712 215.376257 
L 116.322712 216.993369 
L 117.29186 216.903529 
L 117.29186 217.981604 
L 117.776434 217.981604 
L 117.776434 218.161283 
L 118.261007 218.161283 
L 118.261007 218.430802 
L 118.745581 218.430802 
L 118.745581 218.79016 
L 120.199302 218.79016 
L 120.199302 218.071444 
L 120.683876 218.071444 
L 120.683876 213.938824 
L 121.16845 213.938824 
L 121.16845 210.52492 
L 121.653024 210.52492 
L 121.653024 206.931337 
L 122.137597 206.931337 
L 122.137597 204.056471 
L 122.622171 204.056471 
L 122.622171 203.158075 
L 123.106745 203.158075 
L 123.106745 204.325989 
L 123.591319 204.325989 
L 123.591319 203.966631 
L 124.075892 203.966631 
L 124.075892 206.032941 
L 124.560466 206.032941 
L 124.560466 204.775187 
L 125.04504 204.775187 
L 125.04504 205.134545 
L 125.529614 205.134545 
L 125.529614 205.493904 
L 126.014187 205.493904 
L 126.014187 206.392299 
L 126.498761 206.392299 
L 126.498761 207.560214 
L 126.983335 207.560214 
L 126.983335 209.446845 
L 127.467909 209.446845 
L 127.467909 208.817968 
L 127.952482 208.817968 
L 127.952482 210.52492 
L 128.437056 210.52492 
L 128.437056 211.513155 
L 128.92163 211.513155 
L 128.92163 212.411551 
L 129.406204 212.411551 
L 129.406204 212.860749 
L 129.890777 212.860749 
L 129.890777 214.477861 
L 130.375351 214.477861 
L 130.375351 216.72385 
L 130.859925 216.72385 
L 130.859925 218.340963 
L 131.344499 218.340963 
L 131.344499 218.88 
L 193.854512 218.88 
L 193.854512 218.700321 
L 194.339086 218.700321 
L 194.339086 218.88 
L 195.308233 218.88 
L 195.308233 218.610481 
L 195.792807 218.610481 
L 195.792807 218.88 
L 200.153971 218.88 
L 200.153971 218.700321 
L 201.607692 218.700321 
L 201.607692 218.520642 
L 202.092266 218.520642 
L 202.092266 218.071444 
L 202.57684 218.071444 
L 202.57684 218.520642 
L 203.061413 218.520642 
L 203.061413 218.340963 
L 203.545987 218.340963 
L 203.545987 218.79016 
L 204.030561 218.79016 
L 204.030561 218.520642 
L 204.999708 218.430802 
L 204.999708 218.700321 
L 205.484282 218.700321 
L 205.484282 218.520642 
L 205.968856 218.520642 
L 205.968856 218.520642 
" clip-path="url(#p2265c5037f)" style="fill: none; stroke: #1f77b4; stroke-width: 1.5; stroke-linecap: square"/>
   </g>
   <g id="line2d_12">
    <path d="M 147.900811 165.335615 
L 148.385578 165.335615 
L 148.385578 98.315294 
L 148.870345 98.315294 
L 148.870345 97.416898 
L 149.355112 97.416898 
L 149.355112 80.167701 
L 149.839879 80.167701 
L 149.839879 66.422246 
L 150.324645 66.422246 
L 150.324645 56.629733 
L 150.809412 56.629733 
L 150.809412 48.184813 
L 151.294179 48.184813 
L 151.294179 37.943102 
L 151.778946 37.943102 
L 151.778946 27.521711 
L 152.263712 27.521711 
L 152.263712 22.490695 
L 152.748479 22.490695 
L 152.748479 28.060749 
L 153.233246 28.060749 
L 153.233246 27.162353 
L 153.718013 27.162353 
L 153.718013 46.208342 
L 154.20278 46.208342 
L 154.20278 40.099251 
L 154.687546 40.099251 
L 154.687546 64.266096 
L 155.172313 64.266096 
L 155.172313 79.448984 
L 155.65708 79.448984 
L 155.65708 111.79123 
L 156.141847 111.79123 
L 156.141847 129.669305 
L 156.626614 129.669305 
L 156.626614 142.785882 
L 157.11138 142.785882 
L 157.11138 162.999786 
L 157.596147 162.999786 
L 157.596147 182.405134 
L 158.080914 182.405134 
L 158.080914 197.767701 
L 158.565681 197.767701 
L 158.565681 211.782674 
L 159.050447 211.782674 
L 159.050447 218.79016 
L 160.989515 218.88 
L 160.989515 215.915294 
L 161.474281 215.915294 
L 161.474281 161.652193 
L 161.959048 161.652193 
L 161.959048 99.752727 
L 162.443815 99.752727 
L 162.443815 86.725989 
L 162.928582 86.725989 
L 162.928582 96.877861 
L 163.413349 96.877861 
L 163.413349 100.920642 
L 163.898115 100.920642 
L 163.898115 100.381604 
L 164.382882 100.381604 
L 164.382882 106.311016 
L 164.867649 106.311016 
L 164.867649 112.869305 
L 165.352416 112.869305 
L 165.352416 113.318503 
L 165.837182 113.318503 
L 165.837182 114.755936 
L 166.321949 114.755936 
L 166.321949 120.415829 
L 166.806716 120.415829 
L 166.806716 115.834011 
L 167.291483 115.834011 
L 167.291483 127.153797 
L 167.77625 127.153797 
L 167.77625 130.837219 
L 168.261016 130.837219 
L 168.261016 127.782674 
L 168.745783 127.782674 
L 168.745783 131.735615 
L 169.23055 131.735615 
L 169.23055 135.149519 
L 169.715317 135.149519 
L 169.715317 143.055401 
L 170.200084 143.055401 
L 170.200084 146.918503 
L 170.68485 146.918503 
L 170.68485 156.082139 
L 171.169617 156.082139 
L 171.169617 164.706738 
L 171.654384 164.706738 
L 171.654384 179.260749 
L 172.139151 179.260749 
L 172.139151 191.838289 
L 172.623917 191.838289 
L 172.623917 203.427594 
L 173.108684 203.427594 
L 173.108684 211.872513 
L 173.593451 211.872513 
L 173.593451 217.981604 
L 174.078218 217.981604 
L 174.078218 206.30246 
L 174.562985 206.30246 
L 174.562985 180.159144 
L 175.047751 180.159144 
L 175.047751 153.117433 
L 175.532518 153.117433 
L 175.532518 149.344171 
L 176.017285 149.344171 
L 176.017285 155.004064 
L 176.502052 155.004064 
L 176.502052 154.734545 
L 176.986819 154.734545 
L 176.986819 152.847914 
L 177.471585 152.847914 
L 177.471585 159.855401 
L 177.956352 159.855401 
L 177.956352 158.777326 
L 178.441119 158.777326 
L 178.441119 168.210481 
L 178.925886 168.210481 
L 178.925886 163.898182 
L 179.410652 163.898182 
L 179.410652 164.527059 
L 179.895419 164.527059 
L 179.895419 173.151658 
L 180.380186 173.151658 
L 180.380186 179.350588 
L 180.864953 179.350588 
L 180.864953 184.651123 
L 181.34972 184.651123 
L 181.34972 188.154866 
L 181.834486 188.154866 
L 181.834486 188.424385 
L 182.319253 188.424385 
L 182.319253 192.916364 
L 182.80402 192.916364 
L 182.80402 196.959144 
L 183.288787 196.959144 
L 183.288787 203.427594 
L 183.773553 203.427594 
L 183.773553 205.404064 
L 184.25832 205.404064 
L 184.25832 212.50139 
L 184.743087 212.50139 
L 184.743087 215.196578 
L 185.227854 215.196578 
L 185.227854 216.903529 
L 185.712621 216.903529 
L 185.712621 210.43508 
L 186.197387 210.43508 
L 186.197387 195.88107 
L 186.682154 195.88107 
L 186.682154 187.975187 
L 187.166921 187.975187 
L 187.166921 190.221176 
L 187.651688 190.221176 
L 187.651688 192.197647 
L 188.136455 192.197647 
L 188.136455 190.850053 
L 188.621221 190.850053 
L 188.621221 195.521711 
L 189.105988 195.521711 
L 189.105988 200.373048 
L 189.590755 200.373048 
L 189.590755 201.451123 
L 190.075522 201.451123 
L 190.075522 203.876791 
L 190.560288 203.876791 
L 190.560288 203.158075 
L 191.045055 203.158075 
L 191.045055 206.661818 
L 191.529822 206.661818 
L 191.529822 206.841497 
L 192.014589 206.841497 
L 192.014589 209.626524 
L 192.984122 209.716364 
L 192.984122 213.040428 
L 193.468889 213.040428 
L 193.468889 213.848984 
L 193.953656 213.848984 
L 193.953656 215.466096 
L 194.438423 215.466096 
L 194.438423 216.094973 
L 194.92319 216.094973 
L 194.92319 217.712086 
L 195.892723 217.801925 
L 195.892723 218.79016 
L 196.37749 218.79016 
L 196.37749 218.520642 
L 196.862257 218.520642 
L 196.862257 213.130267 
L 197.347023 213.130267 
L 197.347023 209.357005 
L 197.83179 209.357005 
L 197.83179 206.122781 
L 198.316557 206.122781 
L 198.316557 205.943102 
L 198.801324 205.943102 
L 198.801324 208.099251 
L 199.286091 208.099251 
L 199.286091 208.817968 
L 199.770857 208.817968 
L 199.770857 209.716364 
L 200.255624 209.716364 
L 200.255624 210.884278 
L 200.740391 210.884278 
L 200.740391 212.50139 
L 201.225158 212.50139 
L 201.225158 211.692834 
L 201.709925 211.692834 
L 201.709925 213.759144 
L 202.194691 213.759144 
L 202.194691 214.028663 
L 202.679458 214.028663 
L 202.679458 214.567701 
L 203.164225 214.567701 
L 203.164225 214.927059 
L 203.648992 214.927059 
L 203.648992 216.634011 
L 204.133758 216.634011 
L 204.133758 217.622246 
L 204.618525 217.622246 
L 204.618525 216.634011 
L 205.103292 216.634011 
L 205.103292 218.161283 
L 205.588059 218.161283 
L 205.588059 218.430802 
L 206.072826 218.430802 
L 206.072826 218.79016 
L 207.527126 218.88 
L 207.527126 217.352727 
L 208.011893 217.352727 
L 208.011893 213.938824 
L 208.49666 213.938824 
L 208.49666 210.974118 
L 208.981426 210.974118 
L 208.981426 204.685348 
L 209.466193 204.685348 
L 209.466193 203.427594 
L 209.95096 203.427594 
L 209.95096 201.091765 
L 210.435727 201.091765 
L 210.435727 204.865027 
L 210.920493 204.865027 
L 210.920493 203.786952 
L 211.40526 203.786952 
L 211.40526 205.493904 
L 211.890027 205.493904 
L 211.890027 203.068235 
L 212.374794 203.068235 
L 212.374794 205.314225 
L 212.859561 205.314225 
L 212.859561 207.111016 
L 213.344327 207.111016 
L 213.344327 206.661818 
L 213.829094 206.661818 
L 213.829094 207.290695 
L 214.313861 207.290695 
L 214.313861 207.560214 
L 214.798628 207.560214 
L 214.798628 209.087487 
L 215.283395 209.087487 
L 215.283395 209.896043 
L 215.768161 209.896043 
L 215.768161 212.052193 
L 216.252928 212.052193 
L 216.252928 211.423316 
L 216.737695 211.423316 
L 216.737695 213.579465 
L 217.222462 213.579465 
L 217.222462 216.005134 
L 217.707228 216.005134 
L 217.707228 216.903529 
L 218.191995 216.903529 
L 218.191995 218.700321 
L 218.676762 218.700321 
L 218.676762 218.88 
L 287.028879 218.88 
L 287.028879 218.700321 
L 287.998412 218.79016 
L 287.998412 218.340963 
L 288.483179 218.340963 
L 288.483179 218.610481 
L 289.93748 218.520642 
L 289.93748 218.430802 
L 291.39178 218.430802 
L 291.39178 218.700321 
L 292.84608 218.610481 
L 292.84608 218.340963 
L 293.330847 218.340963 
L 293.330847 218.340963 
" clip-path="url(#p2265c5037f)" style="fill: none; stroke: #ff7f0e; stroke-width: 1.5; stroke-linecap: square"/>
   </g>
   <g id="line2d_13">
    <path d="M 235.216636 164.437219 
L 235.70207 164.437219 
L 235.70207 97.866096 
L 236.187503 97.866096 
L 236.187503 86.995508 
L 236.672936 86.995508 
L 236.672936 86.63615 
L 237.15837 86.63615 
L 237.15837 71.183743 
L 237.643803 71.183743 
L 237.643803 51.688556 
L 238.129236 51.688556 
L 238.129236 47.286417 
L 238.614669 47.286417 
L 238.614669 40.45861 
L 239.100103 40.45861 
L 239.100103 18.537754 
L 239.585536 18.537754 
L 239.585536 30.037219 
L 240.070969 30.037219 
L 240.070969 28.150588 
L 240.556403 28.150588 
L 240.556403 25.72492 
L 241.041836 25.72492 
L 241.041836 34.529198 
L 241.527269 34.529198 
L 241.527269 45.669305 
L 242.012703 45.669305 
L 242.012703 60.762353 
L 242.498136 60.762353 
L 242.498136 78.909947 
L 242.983569 78.909947 
L 242.983569 107.029733 
L 243.469002 107.029733 
L 243.469002 127.513155 
L 243.954436 127.513155 
L 243.954436 143.594439 
L 244.439869 143.594439 
L 244.439869 163.628663 
L 244.925302 163.628663 
L 244.925302 182.494973 
L 245.410736 182.494973 
L 245.410736 198.576257 
L 245.896169 198.576257 
L 245.896169 212.411551 
L 246.381602 212.411551 
L 246.381602 218.79016 
L 248.323335 218.88 
L 248.323335 215.555936 
L 248.808769 215.555936 
L 248.808769 158.957005 
L 249.294202 158.957005 
L 249.294202 98.405134 
L 249.779635 98.405134 
L 249.779635 88.882139 
L 250.265069 88.882139 
L 250.265069 95.530267 
L 250.750502 95.530267 
L 250.750502 102.268235 
L 251.235935 102.268235 
L 251.235935 107.389091 
L 251.721368 107.389091 
L 251.721368 105.322781 
L 252.206802 105.322781 
L 252.206802 97.416898 
L 252.692235 97.416898 
L 252.692235 115.025455 
L 253.177668 115.025455 
L 253.177668 118.529198 
L 253.663102 118.529198 
L 253.663102 114.396578 
L 254.148535 114.396578 
L 254.148535 122.482139 
L 254.633968 122.482139 
L 254.633968 121.224385 
L 255.119402 121.224385 
L 255.119402 127.243636 
L 255.604835 127.243636 
L 255.604835 133.173048 
L 256.090268 133.173048 
L 256.090268 135.598717 
L 256.575701 135.598717 
L 256.575701 142.516364 
L 257.061135 142.516364 
L 257.061135 143.774118 
L 257.546568 143.774118 
L 257.546568 146.109947 
L 258.032001 146.109947 
L 258.032001 156.711016 
L 258.517435 156.711016 
L 258.517435 169.288556 
L 259.002868 169.288556 
L 259.002868 180.069305 
L 259.488301 180.069305 
L 259.488301 197.318503 
L 259.973735 197.318503 
L 259.973735 204.415829 
L 260.459168 204.415829 
L 260.459168 212.411551 
L 260.944601 212.411551 
L 260.944601 217.532406 
L 261.430034 217.532406 
L 261.430034 205.853262 
L 261.915468 205.853262 
L 261.915468 176.565561 
L 262.400901 176.565561 
L 262.400901 152.398717 
L 262.886334 152.398717 
L 262.886334 151.949519 
L 263.371768 151.949519 
L 263.371768 155.183743 
L 263.857201 155.183743 
L 263.857201 157.250053 
L 264.342634 157.250053 
L 264.342634 156.082139 
L 264.828068 156.082139 
L 264.828068 161.921711 
L 265.313501 161.921711 
L 265.313501 163.718503 
L 265.798934 163.718503 
L 265.798934 164.167701 
L 266.284367 164.167701 
L 266.284367 169.198717 
L 266.769801 169.198717 
L 266.769801 170.63615 
L 267.255234 170.63615 
L 267.255234 173.690695 
L 267.740667 173.690695 
L 267.740667 177.374118 
L 268.226101 177.374118 
L 268.226101 183.393369 
L 268.711534 183.393369 
L 268.711534 185.819037 
L 269.196967 185.819037 
L 269.196967 190.670374 
L 269.6824 190.670374 
L 269.6824 193.994439 
L 270.167834 193.994439 
L 270.167834 198.845775 
L 270.653267 198.845775 
L 270.653267 203.068235 
L 271.1387 203.068235 
L 271.1387 207.200856 
L 271.624134 207.200856 
L 271.624134 210.794439 
L 272.109567 210.794439 
L 272.109567 215.825455 
L 272.595 215.825455 
L 272.595 217.532406 
L 273.080434 217.532406 
L 273.080434 208.817968 
L 273.565867 208.817968 
L 273.565867 194.084278 
L 274.0513 194.084278 
L 274.0513 190.311016 
L 274.536733 190.311016 
L 274.536733 191.299251 
L 275.022167 191.299251 
L 275.022167 193.365561 
L 275.5076 193.365561 
L 275.5076 196.330267 
L 275.993033 196.330267 
L 275.993033 197.498182 
L 276.478467 197.498182 
L 276.478467 198.576257 
L 276.9639 198.576257 
L 276.9639 201.720642 
L 277.449333 201.720642 
L 277.449333 204.595508 
L 278.4202 204.505668 
L 278.4202 206.931337 
L 278.905633 206.931337 
L 278.905633 207.380535 
L 279.391066 207.380535 
L 279.391066 209.267166 
L 279.8765 209.267166 
L 279.8765 212.770909 
L 280.361933 212.770909 
L 280.361933 213.309947 
L 280.847366 213.309947 
L 280.847366 212.860749 
L 281.3328 212.860749 
L 281.3328 215.376257 
L 281.818233 215.376257 
L 281.818233 216.005134 
L 282.303666 216.005134 
L 282.303666 216.903529 
L 282.7891 216.903529 
L 282.7891 218.161283 
L 283.274533 218.161283 
L 283.274533 218.88 
L 283.759966 218.88 
L 283.759966 218.161283 
L 284.245399 218.161283 
L 284.245399 213.040428 
L 284.730833 213.040428 
L 284.730833 205.673583 
L 285.216266 205.673583 
L 285.216266 204.505668 
L 285.701699 204.505668 
L 285.701699 206.751658 
L 286.187133 206.751658 
L 286.187133 208.189091 
L 286.672566 208.189091 
L 286.672566 211.423316 
L 287.157999 211.423316 
L 287.157999 210.974118 
L 287.643432 210.974118 
L 287.643432 210.345241 
L 288.128866 210.345241 
L 288.128866 211.333476 
L 288.614299 211.333476 
L 288.614299 212.950588 
L 289.099732 212.950588 
L 289.099732 212.231872 
L 289.585166 212.231872 
L 289.585166 215.286417 
L 290.070599 215.286417 
L 290.070599 214.208342 
L 290.556032 214.208342 
L 290.556032 215.286417 
L 291.041466 215.286417 
L 291.041466 215.915294 
L 291.526899 215.915294 
L 291.526899 216.903529 
L 292.012332 216.903529 
L 292.012332 218.071444 
L 292.983199 218.161283 
L 292.983199 218.700321 
L 293.468632 218.700321 
L 293.468632 218.88 
L 294.924932 218.79016 
L 294.924932 217.173048 
L 295.410365 217.173048 
L 295.410365 212.950588 
L 295.895799 212.950588 
L 295.895799 209.536684 
L 296.381232 209.536684 
L 296.381232 204.865027 
L 297.352098 204.954866 
L 297.352098 206.30246 
L 297.837532 206.30246 
L 297.837532 204.14631 
L 298.322965 204.14631 
L 298.322965 202.259679 
L 298.808398 202.259679 
L 298.808398 202.529198 
L 299.293832 202.529198 
L 299.293832 204.23615 
L 300.264698 204.325989 
L 300.264698 206.21262 
L 300.750132 206.21262 
L 300.750132 207.021176 
L 301.235565 207.021176 
L 301.235565 208.997647 
L 301.720998 208.997647 
L 301.720998 208.36877 
L 302.206431 208.36877 
L 302.206431 209.446845 
L 302.691865 209.446845 
L 302.691865 211.063957 
L 303.177298 211.063957 
L 303.177298 211.692834 
L 303.662731 211.692834 
L 303.662731 212.68107 
L 304.148165 212.68107 
L 304.148165 214.208342 
L 304.633598 214.208342 
L 304.633598 214.837219 
L 305.119031 214.837219 
L 305.119031 216.634011 
L 305.604464 216.634011 
L 305.604464 218.700321 
L 306.089898 218.700321 
L 306.089898 218.88 
L 375.506859 218.79016 
L 375.506859 218.520642 
L 375.992293 218.520642 
L 375.992293 218.161283 
L 376.477726 218.161283 
L 376.477726 218.610481 
L 376.963159 218.610481 
L 376.963159 218.340963 
L 377.448592 218.340963 
L 377.448592 218.071444 
L 377.934026 218.071444 
L 377.934026 218.520642 
L 379.390326 218.520642 
L 379.390326 218.700321 
L 380.361192 218.79016 
L 380.361192 218.520642 
L 380.846626 218.520642 
L 380.846626 218.520642 
" clip-path="url(#p2265c5037f)" style="fill: none; stroke: #2ca02c; stroke-width: 1.5; stroke-linecap: square"/>
   </g>
   <g id="patch_3">
    <path d="M 53.328125 228.96 
L 53.328125 7.2 
" style="fill: none; stroke: #000000; stroke-width: 0.8; stroke-linejoin: miter; stroke-linecap: square"/>
   </g>
   <g id="patch_4">
    <path d="M 388.128125 228.96 
L 388.128125 7.2 
" style="fill: none; stroke: #000000; stroke-width: 0.8; stroke-linejoin: miter; stroke-linecap: square"/>
   </g>
   <g id="patch_5">
    <path d="M 53.328125 228.96 
L 388.128125 228.96 
" style="fill: none; stroke: #000000; stroke-width: 0.8; stroke-linejoin: miter; stroke-linecap: square"/>
   </g>
   <g id="patch_6">
    <path d="M 53.328125 7.2 
L 388.128125 7.2 
" style="fill: none; stroke: #000000; stroke-width: 0.8; stroke-linejoin: miter; stroke-linecap: square"/>
   </g>
   <g id="legend_1">
    <g id="patch_7">
     <path d="M 312.570312 59.234375 
L 381.128125 59.234375 
Q 383.128125 59.234375 383.128125 57.234375 
L 383.128125 14.2 
Q 383.128125 12.2 381.128125 12.2 
L 312.570312 12.2 
Q 310.570312 12.2 310.570312 14.2 
L 310.570312 57.234375 
Q 310.570312 59.234375 312.570312 59.234375 
z
" style="fill: #ffffff; opacity: 0.8; stroke: #cccccc; stroke-linejoin: miter"/>
    </g>
    <g id="line2d_14">
     <path d="M 314.570312 20.298438 
L 314.570312 20.298438 
L 324.570312 20.298438 
L 324.570312 20.298438 
L 334.570312 20.298438 
" style="fill: none; stroke: #1f77b4; stroke-width: 1.5; stroke-linecap: square"/>
    </g>
    <g id="text_13">
     <!-- pulse:0 -->
     <g transform="translate(342.570312 23.798438) scale(0.1 -0.1)">
      <defs>
       <path id="DejaVuSans-70" d="M 1159 525 
L 1159 -1331 
L 581 -1331 
L 581 3500 
L 1159 3500 
L 1159 2969 
Q 1341 3281 1617 3432 
Q 1894 3584 2278 3584 
Q 2916 3584 3314 3078 
Q 3713 2572 3713 1747 
Q 3713 922 3314 415 
Q 2916 -91 2278 -91 
Q 1894 -91 1617 61 
Q 1341 213 1159 525 
z
M 3116 1747 
Q 3116 2381 2855 2742 
Q 2594 3103 2138 3103 
Q 1681 3103 1420 2742 
Q 1159 2381 1159 1747 
Q 1159 1113 1420 752 
Q 1681 391 2138 391 
Q 2594 391 2855 752 
Q 3116 1113 3116 1747 
z
" transform="scale(0.015625)"/>
       <path id="DejaVuSans-6c" d="M 603 4863 
L 1178 4863 
L 1178 0 
L 603 0 
L 603 4863 
z
" transform="scale(0.015625)"/>
       <path id="DejaVuSans-65" d="M 3597 1894 
L 3597 1613 
L 953 1613 
Q 991 1019 1311 708 
Q 1631 397 2203 397 
Q 2534 397 2845 478 
Q 3156 559 3463 722 
L 3463 178 
Q 3153 47 2828 -22 
Q 2503 -91 2169 -91 
Q 1331 -91 842 396 
Q 353 884 353 1716 
Q 353 2575 817 3079 
Q 1281 3584 2069 3584 
Q 2775 3584 3186 3129 
Q 3597 2675 3597 1894 
z
M 3022 2063 
Q 3016 2534 2758 2815 
Q 2500 3097 2075 3097 
Q 1594 3097 1305 2825 
Q 1016 2553 972 2059 
L 3022 2063 
z
" transform="scale(0.015625)"/>
       <path id="DejaVuSans-3a" d="M 750 794 
L 1409 794 
L 1409 0 
L 750 0 
L 750 794 
z
M 750 3309 
L 1409 3309 
L 1409 2516 
L 750 2516 
L 750 3309 
z
" transform="scale(0.015625)"/>
      </defs>
      <use xlink:href="#DejaVuSans-70"/>
      <use xlink:href="#DejaVuSans-75" transform="translate(63.476562 0)"/>
      <use xlink:href="#DejaVuSans-6c" transform="translate(126.855469 0)"/>
      <use xlink:href="#DejaVuSans-73" transform="translate(154.638672 0)"/>
      <use xlink:href="#DejaVuSans-65" transform="translate(206.738281 0)"/>
      <use xlink:href="#DejaVuSans-3a" transform="translate(268.261719 0)"/>
      <use xlink:href="#DejaVuSans-30" transform="translate(301.953125 0)"/>
     </g>
    </g>
    <g id="line2d_15">
     <path d="M 314.570312 34.976562 
L 314.570312 34.976562 
L 324.570312 34.976562 
L 324.570312 34.976562 
L 334.570312 34.976562 
" style="fill: none; stroke: #ff7f0e; stroke-width: 1.5; stroke-linecap: square"/>
    </g>
    <g id="text_14">
     <!-- pulse:1 -->
     <g transform="translate(342.570312 38.476562) scale(0.1 -0.1)">
      <use xlink:href="#DejaVuSans-70"/>
      <use xlink:href="#DejaVuSans-75" transform="translate(63.476562 0)"/>
      <use xlink:href="#DejaVuSans-6c" transform="translate(126.855469 0)"/>
      <use xlink:href="#DejaVuSans-73" transform="translate(154.638672 0)"/>
      <use xlink:href="#DejaVuSans-65" transform="translate(206.738281 0)"/>
      <use xlink:href="#DejaVuSans-3a" transform="translate(268.261719 0)"/>
      <use xlink:href="#DejaVuSans-31" transform="translate(301.953125 0)"/>
     </g>
    </g>
    <g id="line2d_16">
     <path d="M 314.570312 49.654688 
L 314.570312 49.654688 
L 324.570312 49.654688 
L 324.570312 49.654688 
L 334.570312 49.654688 
" style="fill: none; stroke: #2ca02c; stroke-width: 1.5; stroke-linecap: square"/>
    </g>
    <g id="text_15">
     <!-- pulse:2 -->
     <g transform="translate(342.570312 53.154688) scale(0.1 -0.1)">
      <use xlink:href="#DejaVuSans-70"/>
      <use xlink:href="#DejaVuSans-75" transform="translate(63.476562 0)"/>
      <use xlink:href="#DejaVuSans-6c" transform="translate(126.855469 0)"/>
      <use xlink:href="#DejaVuSans-73" transform="translate(154.638672 0)"/>
      <use xlink:href="#DejaVuSans-65" transform="translate(206.738281 0)"/>
      <use xlink:href="#DejaVuSans-3a" transform="translate(268.261719 0)"/>
      <use xlink:href="#DejaVuSans-32" transform="translate(301.953125 0)"/>
     </g>
    </g>
   </g>
  </g>
 </g>
 <defs>
  <clipPath id="p2265c5037f">
   <rect x="53.328125" y="7.2" width="334.8" height="221.76"/>
  </clipPath>
 </defs>
</svg>
