<?xml version="1.0" encoding="utf-8" standalone="no"?>
<!DOCTYPE svg PUBLIC "-//W3C//DTD SVG 1.1//EN"
  "http://www.w3.org/Graphics/SVG/1.1/DTD/svg11.dtd">
<svg xmlns:xlink="http://www.w3.org/1999/xlink" width="395.328125pt" height="266.51625pt" viewBox="0 0 395.328125 266.51625" xmlns="http://www.w3.org/2000/svg" version="1.1">
 <metadata>
  <rdf:RDF xmlns:dc="http://purl.org/dc/elements/1.1/" xmlns:cc="http://creativecommons.org/ns#" xmlns:rdf="http://www.w3.org/1999/02/22-rdf-syntax-ns#">
   <cc:Work>
    <dc:type rdf:resource="http://purl.org/dc/dcmitype/StillImage"/>
    <dc:date>2026-03-12T12:42:13.795876</dc:date>
    <dc:format>image/svg+xml</dc:format>
    <dc:creator>
     <cc:Agent>
      <dc:title>Matplotlib v3.10.7, https://matplotlib.org/</dc:title>
     </cc:Agent>
    </dc:creator>
   </cc:Work>
  </rdf:RDF>
 </metadata>
 <defs>
  <style type="text/css">*{stroke-linejoin: round; stroke-linecap: butt}</style>
 </defs>
 <g id="figure_1">
  <g id="patch_1">
   <path d="M 0 266.51625 
L 395.328125 266.51625 
L 395.328125 0 
L 0 0 
z
" style="fill: #ffffff"/>
  </g>
  <g id="axes_1">
   <g id="patch_2">
    <path d="M 53.328125 228.96 
L 388.128125 228.96 
L 388.128125 7.2 
L 53.328125 7.2 
z
" style="fill: #ffffff"/>
   </g>
   <g id="matplotlib.axis_1">
    <g id="xtick_1">
     <g id="line2d_1">
      <defs>
       <path id="m276e51be0b" d="M 0 0 
L 0 3.5 
" style="stroke: #000000; stroke-width: 0.8"/>
      </defs>
      <g>
       <use xlink:href="#m276e51be0b" x="98.435426" y="228.96" style="stroke: #000000; stroke-width: 0.8"/>
      </g>
     </g>
     <g id="text_1">
      <!-- 50000 -->
      <g transform="translate(82.529176 243.558437) scale(0.1 -0.1)">
       <defs>
        <path id="DejaVuSans-35" d="M 691 4666 
L 3169 4666 
L 3169 4134 
L 1269 4134 
L 1269 2991 
Q 1406 3038 1543 3061 
Q 1681 3084 1819 3084 
Q 2600 3084 3056 2656 
Q 3513 2228 3513 1497 
Q 3513 744 3044 326 
Q 2575 -91 1722 -91 
Q 1428 -91 1123 -41 
Q 819 9 494 109 
L 494 744 
Q 775 591 1075 516 
Q 1375 441 1709 441 
Q 2250 441 2565 725 
Q 2881 1009 2881 1497 
Q 2881 1984 2565 2268 
Q 2250 2553 1709 2553 
Q 1456 2553 1204 2497 
Q 953 2441 691 2322 
L 691 4666 
z
" transform="scale(0.015625)"/>
        <path id="DejaVuSans-30" d="M 2034 4250 
Q 1547 4250 1301 3770 
Q 1056 3291 1056 2328 
Q 1056 1369 1301 889 
Q 1547 409 2034 409 
Q 2525 409 2770 889 
Q 3016 1369 3016 2328 
Q 3016 3291 2770 3770 
Q 2525 4250 2034 4250 
z
M 2034 4750 
Q 2819 4750 3233 4129 
Q 3647 3509 3647 2328 
Q 3647 1150 3233 529 
Q 2819 -91 2034 -91 
Q 1250 -91 836 529 
Q 422 1150 422 2328 
Q 422 3509 836 4129 
Q 1250 4750 2034 4750 
z
" transform="scale(0.015625)"/>
       </defs>
       <use xlink:href="#DejaVuSans-35"/>
       <use xlink:href="#DejaVuSans-30" transform="translate(63.623047 0)"/>
       <use xlink:href="#DejaVuSans-30" transform="translate(127.246094 0)"/>
       <use xlink:href="#DejaVuSans-30" transform="translate(190.869141 0)"/>
       <use xlink:href="#DejaVuSans-30" transform="translate(254.492188 0)"/>
      </g>
     </g>
    </g>
    <g id="xtick_2">
     <g id="line2d_2">
      <g>
       <use xlink:href="#m276e51be0b" x="159.668945" y="228.96" style="stroke: #000000; stroke-width: 0.8"/>
      </g>
     </g>
     <g id="text_2">
      <!-- 100000 -->
      <g transform="translate(140.581445 243.558437) scale(0.1 -0.1)">
       <defs>
        <path id="DejaVuSans-31" d="M 794 531 
L 1825 531 
L 1825 4091 
L 703 3866 
L 703 4441 
L 1819 4666 
L 2450 4666 
L 2450 531 
L 3481 531 
L 3481 0 
L 794 0 
L 794 531 
z
" transform="scale(0.015625)"/>
       </defs>
       <use xlink:href="#DejaVuSans-31"/>
       <use xlink:href="#DejaVuSans-30" transform="translate(63.623047 0)"/>
       <use xlink:href="#DejaVuSans-30" transform="translate(127.246094 0)"/>
       <use xlink:href="#DejaVuSans-30" transform="translate(190.869141 0)"/>
       <use xlink:href="#DejaVuSans-30" transform="translate(254.492188 0)"/>
       <use xlink:href="#DejaVuSans-30" transform="translate(318.115234 0)"/>
      </g>
     </g>
    </g>
    <g id="xtick_3">
     <g id="line2d_3">
      <g>
       <use xlink:href="#m276e51be0b" x="220.902464" y="228.96" style="stroke: #000000; stroke-width: 0.8"/>
      </g>
     </g>
     <g id="text_3">
      <!-- 150000 -->
      <g transform="translate(201.814964 243.558437) scale(0.1 -0.1)">
       <use xlink:href="#DejaVuSans-31"/>
       <use xlink:href="#DejaVuSans-35" transform="translate(63.623047 0)"/>
       <use xlink:href="#DejaVuSans-30" transform="translate(127.246094 0)"/>
       <use xlink:href="#DejaVuSans-30" transform="translate(190.869141 0)"/>
       <use xlink:href="#DejaVuSans-30" transform="translate(254.492188 0)"/>
       <use xlink:href="#DejaVuSans-30" transform="translate(318.115234 0)"/>
      </g>
     </g>
    </g>
    <g id="xtick_4">
     <g id="line2d_4">
      <g>
       <use xlink:href="#m276e51be0b" x="282.135984" y="228.96" style="stroke: #000000; stroke-width: 0.8"/>
      </g>
     </g>
     <g id="text_4">
      <!-- 200000 -->
      <g transform="translate(263.048484 243.558437) scale(0.1 -0.1)">
       <defs>
        <path id="DejaVuSans-32" d="M 1228 531 
L 3431 531 
L 3431 0 
L 469 0 
L 469 531 
Q 828 903 1448 1529 
Q 2069 2156 2228 2338 
Q 2531 2678 2651 2914 
Q 2772 3150 2772 3378 
Q 2772 3750 2511 3984 
Q 2250 4219 1831 4219 
Q 1534 4219 1204 4116 
Q 875 4013 500 3803 
L 500 4441 
Q 881 4594 1212 4672 
Q 1544 4750 1819 4750 
Q 2544 4750 2975 4387 
Q 3406 4025 3406 3419 
Q 3406 3131 3298 2873 
Q 3191 2616 2906 2266 
Q 2828 2175 2409 1742 
Q 1991 1309 1228 531 
z
" transform="scale(0.015625)"/>
       </defs>
       <use xlink:href="#DejaVuSans-32"/>
       <use xlink:href="#DejaVuSans-30" transform="translate(63.623047 0)"/>
       <use xlink:href="#DejaVuSans-30" transform="translate(127.246094 0)"/>
       <use xlink:href="#DejaVuSans-30" transform="translate(190.869141 0)"/>
       <use xlink:href="#DejaVuSans-30" transform="translate(254.492188 0)"/>
       <use xlink:href="#DejaVuSans-30" transform="translate(318.115234 0)"/>
      </g>
     </g>
    </g>
    <g id="xtick_5">
     <g id="line2d_5">
      <g>
       <use xlink:href="#m276e51be0b" x="343.369503" y="228.96" style="stroke: #000000; stroke-width: 0.8"/>
      </g>
     </g>
     <g id="text_5">
      <!-- 250000 -->
      <g transform="translate(324.282003 243.558437) scale(0.1 -0.1)">
       <use xlink:href="#DejaVuSans-32"/>
       <use xlink:href="#DejaVuSans-35" transform="translate(63.623047 0)"/>
       <use xlink:href="#DejaVuSans-30" transform="translate(127.246094 0)"/>
       <use xlink:href="#DejaVuSans-30" transform="translate(190.869141 0)"/>
       <use xlink:href="#DejaVuSans-30" transform="translate(254.492188 0)"/>
       <use xlink:href="#DejaVuSans-30" transform="translate(318.115234 0)"/>
      </g>
     </g>
    </g>
    <g id="text_6">
     <!-- toa [µs] -->
     <g transform="translate(201.367969 257.236562) scale(0.1 -0.1)">
      <defs>
       <path id="DejaVuSans-74" d="M 1172 4494 
L 1172 3500 
L 2356 3500 
L 2356 3053 
L 1172 3053 
L 1172 1153 
Q 1172 725 1289 603 
Q 1406 481 1766 481 
L 2356 481 
L 2356 0 
L 1766 0 
Q 1100 0 847 248 
Q 594 497 594 1153 
L 594 3053 
L 172 3053 
L 172 3500 
L 594 3500 
L 594 4494 
L 1172 4494 
z
" transform="scale(0.015625)"/>
       <path id="DejaVuSans-6f" d="M 1959 3097 
Q 1497 3097 1228 2736 
Q 959 2375 959 1747 
Q 959 1119 1226 758 
Q 1494 397 1959 397 
Q 2419 397 2687 759 
Q 2956 1122 2956 1747 
Q 2956 2369 2687 2733 
Q 2419 3097 1959 3097 
z
M 1959 3584 
Q 2709 3584 3137 3096 
Q 3566 2609 3566 1747 
Q 3566 888 3137 398 
Q 2709 -91 1959 -91 
Q 1206 -91 779 398 
Q 353 888 353 1747 
Q 353 2609 779 3096 
Q 1206 3584 1959 3584 
z
" transform="scale(0.015625)"/>
       <path id="DejaVuSans-61" d="M 2194 1759 
Q 1497 1759 1228 1600 
Q 959 1441 959 1056 
Q 959 750 1161 570 
Q 1363 391 1709 391 
Q 2188 391 2477 730 
Q 2766 1069 2766 1631 
L 2766 1759 
L 2194 1759 
z
M 3341 1997 
L 3341 0 
L 2766 0 
L 2766 531 
Q 2569 213 2275 61 
Q 1981 -91 1556 -91 
Q 1019 -91 701 211 
Q 384 513 384 1019 
Q 384 1609 779 1909 
Q 1175 2209 1959 2209 
L 2766 2209 
L 2766 2266 
Q 2766 2663 2505 2880 
Q 2244 3097 1772 3097 
Q 1472 3097 1187 3025 
Q 903 2953 641 2809 
L 641 3341 
Q 956 3463 1253 3523 
Q 1550 3584 1831 3584 
Q 2591 3584 2966 3190 
Q 3341 2797 3341 1997 
z
" transform="scale(0.015625)"/>
       <path id="DejaVuSans-20" transform="scale(0.015625)"/>
       <path id="DejaVuSans-5b" d="M 550 4863 
L 1875 4863 
L 1875 4416 
L 1125 4416 
L 1125 -397 
L 1875 -397 
L 1875 -844 
L 550 -844 
L 550 4863 
z
" transform="scale(0.015625)"/>
       <path id="DejaVuSans-b5" d="M 544 -1331 
L 544 3500 
L 1119 3500 
L 1119 1325 
Q 1119 872 1334 640 
Q 1550 409 1972 409 
Q 2434 409 2667 671 
Q 2900 934 2900 1459 
L 2900 3500 
L 3475 3500 
L 3475 806 
Q 3475 619 3529 530 
Q 3584 441 3700 441 
Q 3728 441 3778 458 
Q 3828 475 3916 513 
L 3916 50 
Q 3788 -22 3673 -56 
Q 3559 -91 3450 -91 
Q 3234 -91 3106 31 
Q 2978 153 2931 403 
Q 2775 156 2548 32 
Q 2322 -91 2016 -91 
Q 1697 -91 1473 31 
Q 1250 153 1119 397 
L 1119 -1331 
L 544 -1331 
z
" transform="scale(0.015625)"/>
       <path id="DejaVuSans-73" d="M 2834 3397 
L 2834 2853 
Q 2591 2978 2328 3040 
Q 2066 3103 1784 3103 
Q 1356 3103 1142 2972 
Q 928 2841 928 2578 
Q 928 2378 1081 2264 
Q 1234 2150 1697 2047 
L 1894 2003 
Q 2506 1872 2764 1633 
Q 3022 1394 3022 966 
Q 3022 478 2636 193 
Q 2250 -91 1575 -91 
Q 1294 -91 989 -36 
Q 684 19 347 128 
L 347 722 
Q 666 556 975 473 
Q 1284 391 1588 391 
Q 1994 391 2212 530 
Q 2431 669 2431 922 
Q 2431 1156 2273 1281 
Q 2116 1406 1581 1522 
L 1381 1569 
Q 847 1681 609 1914 
Q 372 2147 372 2553 
Q 372 3047 722 3315 
Q 1072 3584 1716 3584 
Q 2034 3584 2315 3537 
Q 2597 3491 2834 3397 
z
" transform="scale(0.015625)"/>
       <path id="DejaVuSans-5d" d="M 1947 4863 
L 1947 -844 
L 622 -844 
L 622 -397 
L 1369 -397 
L 1369 4416 
L 622 4416 
L 622 4863 
L 1947 4863 
z
" transform="scale(0.015625)"/>
      </defs>
      <use xlink:href="#DejaVuSans-74"/>
      <use xlink:href="#DejaVuSans-6f" transform="translate(39.208984 0)"/>
      <use xlink:href="#DejaVuSans-61" transform="translate(100.390625 0)"/>
      <use xlink:href="#DejaVuSans-20" transform="translate(161.669922 0)"/>
      <use xlink:href="#DejaVuSans-5b" transform="translate(193.457031 0)"/>
      <use xlink:href="#DejaVuSans-b5" transform="translate(232.470703 0)"/>
      <use xlink:href="#DejaVuSans-73" transform="translate(296.09375 0)"/>
      <use xlink:href="#DejaVuSans-5d" transform="translate(348.193359 0)"/>
     </g>
    </g>
   </g>
   <g id="matplotlib.axis_2">
    <g id="ytick_1">
     <g id="line2d_6">
      <defs>
       <path id="m4cc6df7b35" d="M 0 0 
L -3.5 0 
" style="stroke: #000000; stroke-width: 0.8"/>
      </defs>
      <g>
       <use xlink:href="#m4cc6df7b35" x="53.328125" y="218.88" style="stroke: #000000; stroke-width: 0.8"/>
      </g>
     </g>
     <g id="text_7">
      <!-- 0 -->
      <g transform="translate(39.965625 222.679219) scale(0.1 -0.1)">
       <use xlink:href="#DejaVuSans-30"/>
      </g>
     </g>
    </g>
    <g id="ytick_2">
     <g id="line2d_7">
      <g>
       <use xlink:href="#m4cc6df7b35" x="53.328125" y="172.599008" style="stroke: #000000; stroke-width: 0.8"/>
      </g>
     </g>
     <g id="text_8">
      <!-- 500 -->
      <g transform="translate(27.240625 176.398227) scale(0.1 -0.1)">
       <use xlink:href="#DejaVuSans-35"/>
       <use xlink:href="#DejaVuSans-30" transform="translate(63.623047 0)"/>
       <use xlink:href="#DejaVuSans-30" transform="translate(127.246094 0)"/>
      </g>
     </g>
    </g>
    <g id="ytick_3">
     <g id="line2d_8">
      <g>
       <use xlink:href="#m4cc6df7b35" x="53.328125" y="126.318017" style="stroke: #000000; stroke-width: 0.8"/>
      </g>
     </g>
     <g id="text_9">
      <!-- 1000 -->
      <g transform="translate(20.878125 130.117235) scale(0.1 -0.1)">
       <use xlink:href="#DejaVuSans-31"/>
       <use xlink:href="#DejaVuSans-30" transform="translate(63.623047 0)"/>
       <use xlink:href="#DejaVuSans-30" transform="translate(127.246094 0)"/>
       <use xlink:href="#DejaVuSans-30" transform="translate(190.869141 0)"/>
      </g>
     </g>
    </g>
    <g id="ytick_4">
     <g id="line2d_9">
      <g>
       <use xlink:href="#m4cc6df7b35" x="53.328125" y="80.037025" style="stroke: #000000; stroke-width: 0.8"/>
      </g>
     </g>
     <g id="text_10">
      <!-- 1500 -->
      <g transform="translate(20.878125 83.836244) scale(0.1 -0.1)">
       <use xlink:href="#DejaVuSans-31"/>
       <use xlink:href="#DejaVuSans-35" transform="translate(63.623047 0)"/>
       <use xlink:href="#DejaVuSans-30" transform="translate(127.246094 0)"/>
       <use xlink:href="#DejaVuSans-30" transform="translate(190.869141 0)"/>
      </g>
     </g>
    </g>
    <g id="ytick_5">
     <g id="line2d_10">
      <g>
       <use xlink:href="#m4cc6df7b35" x="53.328125" y="33.756033" style="stroke: #000000; stroke-width: 0.8"/>
      </g>
     </g>
     <g id="text_11">
      <!-- 2000 -->
      <g transform="translate(20.878125 37.555252) scale(0.1 -0.1)">
       <use xlink:href="#DejaVuSans-32"/>
       <use xlink:href="#DejaVuSans-30" transform="translate(63.623047 0)"/>
       <use xlink:href="#DejaVuSans-30" transform="translate(127.246094 0)"/>
       <use xlink:href="#DejaVuSans-30" transform="translate(190.869141 0)"/>
      </g>
     </g>
    </g>
    <g id="text_12">
     <!-- [counts] -->
     <g transform="translate(14.798438 138.6925) rotate(-90) scale(0.1 -0.1)">
      <defs>
       <path id="DejaVuSans-63" d="M 3122 3366 
L 3122 2828 
Q 2878 2963 2633 3030 
Q 2388 3097 2138 3097 
Q 1578 3097 1268 2742 
Q 959 2388 959 1747 
Q 959 1106 1268 751 
Q 1578 397 2138 397 
Q 2388 397 2633 464 
Q 2878 531 3122 666 
L 3122 134 
Q 2881 22 2623 -34 
Q 2366 -91 2075 -91 
Q 1284 -91 818 406 
Q 353 903 353 1747 
Q 353 2603 823 3093 
Q 1294 3584 2113 3584 
Q 2378 3584 2631 3529 
Q 2884 3475 3122 3366 
z
" transform="scale(0.015625)"/>
       <path id="DejaVuSans-75" d="M 544 1381 
L 544 3500 
L 1119 3500 
L 1119 1403 
Q 1119 906 1312 657 
Q 1506 409 1894 409 
Q 2359 409 2629 706 
Q 2900 1003 2900 1516 
L 2900 3500 
L 3475 3500 
L 3475 0 
L 2900 0 
L 2900 538 
Q 2691 219 2414 64 
Q 2138 -91 1772 -91 
Q 1169 -91 856 284 
Q 544 659 544 1381 
z
M 1991 3584 
L 1991 3584 
z
" transform="scale(0.015625)"/>
       <path id="DejaVuSans-6e" d="M 3513 2113 
L 3513 0 
L 2938 0 
L 2938 2094 
Q 2938 2591 2744 2837 
Q 2550 3084 2163 3084 
Q 1697 3084 1428 2787 
Q 1159 2491 1159 1978 
L 1159 0 
L 581 0 
L 581 3500 
L 1159 3500 
L 1159 2956 
Q 1366 3272 1645 3428 
Q 1925 3584 2291 3584 
Q 2894 3584 3203 3211 
Q 3513 2838 3513 2113 
z
" transform="scale(0.015625)"/>
      </defs>
      <use xlink:href="#DejaVuSans-5b"/>
      <use xlink:href="#DejaVuSans-63" transform="translate(39.013672 0)"/>
      <use xlink:href="#DejaVuSans-6f" transform="translate(93.994141 0)"/>
      <use xlink:href="#DejaVuSans-75" transform="translate(155.175781 0)"/>
      <use xlink:href="#DejaVuSans-6e" transform="translate(218.554688 0)"/>
      <use xlink:href="#DejaVuSans-74" transform="translate(281.933594 0)"/>
      <use xlink:href="#DejaVuSans-73" transform="translate(321.142578 0)"/>
      <use xlink:href="#DejaVuSans-5d" transform="translate(373.242188 0)"/>
     </g>
    </g>
   </g>
   <g id="line2d_11">
    <path d="M 60.618259 163.713058 
L 61.104268 163.713058 
L 61.104268 91.607273 
L 61.590277 91.607273 
L 61.590277 89.478347 
L 62.076286 89.478347 
L 62.076286 78.741157 
L 62.562294 78.741157 
L 62.562294 63.46843 
L 63.048303 63.46843 
L 63.048303 44.400661 
L 63.534312 44.400661 
L 63.534312 48.380826 
L 64.020321 48.380826 
L 64.020321 23.111405 
L 64.50633 23.111405 
L 64.50633 21.445289 
L 64.992339 21.445289 
L 64.992339 18.20562 
L 65.478348 18.20562 
L 65.478348 17.74281 
L 65.964357 17.74281 
L 65.964357 17.28 
L 66.450366 17.28 
L 66.450366 32.830413 
L 66.936375 32.830413 
L 66.936375 36.162645 
L 67.422384 36.162645 
L 67.422384 54.119669 
L 67.908393 54.119669 
L 67.908393 78.463471 
L 68.394401 78.463471 
L 68.394401 100.308099 
L 68.88041 100.308099 
L 68.88041 123.356033 
L 69.366419 123.356033 
L 69.366419 140.387438 
L 69.852428 140.387438 
L 69.852428 160.751074 
L 70.338437 160.751074 
L 70.338437 178.893223 
L 70.824446 178.893223 
L 70.824446 194.906446 
L 71.310455 194.906446 
L 71.310455 211.475041 
L 71.796464 211.475041 
L 71.796464 218.88 
L 73.7405 218.88 
L 73.7405 214.622149 
L 74.226508 214.622149 
L 74.226508 158.529587 
L 74.712517 158.529587 
L 74.712517 98.45686 
L 75.198526 98.45686 
L 75.198526 85.590744 
L 75.684535 85.590744 
L 75.684535 89.478347 
L 76.170544 89.478347 
L 76.170544 96.60562 
L 76.656553 96.60562 
L 76.656553 101.141157 
L 77.142562 101.141157 
L 77.142562 101.881653 
L 77.628571 101.881653 
L 77.628571 110.860165 
L 78.11458 110.860165 
L 78.11458 104.473388 
L 78.600589 104.473388 
L 78.600589 111.508099 
L 79.086598 111.508099 
L 79.086598 116.69157 
L 79.572607 116.69157 
L 79.572607 118.727934 
L 80.058615 118.727934 
L 80.058615 120.764298 
L 80.544624 120.764298 
L 80.544624 129.28 
L 81.030633 129.28 
L 81.030633 125.299835 
L 81.516642 125.299835 
L 81.516642 134.278347 
L 82.002651 134.278347 
L 82.002651 133.167603 
L 82.48866 133.167603 
L 82.48866 139.739504 
L 82.974669 139.739504 
L 82.974669 144.182479 
L 83.460678 144.182479 
L 83.460678 155.197355 
L 83.946687 155.197355 
L 83.946687 167.508099 
L 84.432696 167.508099 
L 84.432696 179.448595 
L 84.918705 179.448595 
L 84.918705 191.018843 
L 85.404714 191.018843 
L 85.404714 204.255207 
L 85.890722 204.255207 
L 85.890722 213.511405 
L 86.376731 213.511405 
L 86.376731 217.95438 
L 86.86274 217.95438 
L 86.86274 207.865124 
L 87.348749 207.865124 
L 87.348749 172.321322 
L 87.834758 172.321322 
L 87.834758 152.698182 
L 88.320767 152.698182 
L 88.320767 148.625455 
L 88.806776 148.625455 
L 88.806776 150.846942 
L 89.292785 150.846942 
L 89.292785 157.511405 
L 89.778794 157.511405 
L 89.778794 156.030413 
L 90.264803 156.030413 
L 90.264803 156.400661 
L 90.750812 156.400661 
L 90.750812 157.141157 
L 91.722829 157.048595 
L 91.722829 162.232066 
L 92.208838 162.232066 
L 92.208838 171.858512 
L 92.694847 171.858512 
L 92.694847 175.46843 
L 93.180856 175.46843 
L 93.180856 178.245289 
L 93.666865 178.245289 
L 93.666865 184.81719 
L 94.152874 184.81719 
L 94.152874 184.35438 
L 94.638883 184.35438 
L 94.638883 190.278347 
L 95.124892 190.278347 
L 95.124892 193.980826 
L 95.610901 193.980826 
L 95.610901 198.701488 
L 96.09691 198.701488 
L 96.09691 202.218843 
L 96.582919 202.218843 
L 96.582919 208.235372 
L 97.068928 208.235372 
L 97.068928 210.364298 
L 97.554936 210.364298 
L 97.554936 215.177521 
L 98.040945 215.177521 
L 98.040945 216.843636 
L 98.526954 216.843636 
L 98.526954 210.45686 
L 99.012963 210.45686 
L 99.012963 191.018843 
L 99.498972 191.018843 
L 99.498972 184.076694 
L 99.984981 184.076694 
L 99.984981 188.612231 
L 100.47099 188.612231 
L 100.47099 192.407273 
L 100.956999 192.407273 
L 100.956999 193.888264 
L 101.443008 193.888264 
L 101.443008 197.035372 
L 101.929017 197.035372 
L 101.929017 200.460165 
L 102.415026 200.460165 
L 102.415026 199.627107 
L 102.901035 199.627107 
L 102.901035 201.385785 
L 103.387043 201.385785 
L 103.387043 203.237025 
L 103.873052 203.237025 
L 103.873052 207.494876 
L 104.359061 207.494876 
L 104.359061 210.086612 
L 104.84507 210.086612 
L 104.84507 209.623802 
L 105.331079 209.623802 
L 105.331079 210.549421 
L 105.817088 210.549421 
L 105.817088 212.215537 
L 106.303097 212.215537 
L 106.303097 211.937851 
L 106.789106 211.937851 
L 106.789106 215.455207 
L 107.275115 215.455207 
L 107.275115 216.56595 
L 107.761124 216.56595 
L 107.761124 216.751074 
L 108.247133 216.751074 
L 108.247133 218.046942 
L 108.733142 218.046942 
L 108.733142 218.88 
L 109.21915 218.88 
L 109.21915 218.046942 
L 109.705159 218.046942 
L 109.705159 212.956033 
L 110.191168 212.956033 
L 110.191168 209.438678 
L 110.677177 209.438678 
L 110.677177 204.625455 
L 111.163186 204.625455 
L 111.163186 206.384132 
L 111.649195 206.384132 
L 111.649195 208.883306 
L 112.135204 208.883306 
L 112.135204 208.327934 
L 112.621213 208.327934 
L 112.621213 210.641983 
L 113.593231 210.734545 
L 113.593231 211.752727 
L 114.07924 211.752727 
L 114.07924 212.863471 
L 115.051258 212.956033 
L 115.051258 214.529587 
L 115.537266 214.529587 
L 115.537266 215.732893 
L 116.509284 215.732893 
L 116.509284 216.380826 
L 117.481302 216.473388 
L 117.481302 217.584132 
L 117.967311 217.584132 
L 117.967311 217.95438 
L 118.45332 217.95438 
L 118.45332 218.88 
L 120.397356 218.88 
L 120.397356 217.95438 
L 120.883365 217.95438 
L 120.883365 213.511405 
L 121.369373 213.511405 
L 121.369373 210.179174 
L 121.855382 210.179174 
L 121.855382 204.162645 
L 122.8274 204.255207 
L 122.8274 202.959339 
L 123.313409 202.959339 
L 123.313409 204.810579 
L 123.799418 204.810579 
L 123.799418 203.237025 
L 124.285427 203.237025 
L 124.285427 203.607273 
L 125.257445 203.699835 
L 125.257445 206.199008 
L 125.743454 206.199008 
L 125.743454 204.625455 
L 126.229463 204.625455 
L 126.229463 205.458512 
L 126.715472 205.458512 
L 126.715472 206.476694 
L 127.20148 206.476694 
L 127.20148 207.772562 
L 127.687489 207.772562 
L 127.687489 206.939504 
L 128.173498 206.939504 
L 128.173498 209.716364 
L 128.659507 209.716364 
L 128.659507 209.901488 
L 129.145516 209.901488 
L 129.145516 212.030413 
L 129.631525 212.030413 
L 129.631525 213.418843 
L 130.117534 213.418843 
L 130.117534 214.714711 
L 130.603543 214.714711 
L 130.603543 216.473388 
L 131.089552 216.473388 
L 131.089552 218.509752 
L 131.575561 218.509752 
L 131.575561 218.88 
L 200.102818 218.88 
L 200.102818 218.694876 
L 201.560845 218.602314 
L 201.560845 218.509752 
L 203.018872 218.41719 
L 203.018872 218.232066 
L 203.990889 218.139504 
L 203.990889 218.509752 
L 204.476898 218.509752 
L 204.476898 218.694876 
L 206.420934 218.694876 
L 206.420934 218.694876 
" clip-path="url(#p1705aaa4de)" style="fill: none; stroke: #1f77b4; stroke-width: 1.5; stroke-linecap: square"/>
   </g>
   <g id="line2d_12">
    <path d="M 148.090534 164.916364 
L 148.575949 164.916364 
L 148.575949 92.718017 
L 149.061365 92.718017 
L 149.061365 84.850248 
L 149.54678 84.850248 
L 149.54678 70.688264 
L 150.032195 70.688264 
L 150.032195 61.894876 
L 150.517611 61.894876 
L 150.517611 50.41719 
L 151.003026 50.41719 
L 151.003026 36.90314 
L 151.488442 36.90314 
L 151.488442 30.608926 
L 151.973857 30.608926 
L 151.973857 30.146116 
L 152.459272 30.146116 
L 152.459272 18.66843 
L 152.944688 18.66843 
L 152.944688 19.871736 
L 153.430103 19.871736 
L 153.430103 29.498182 
L 153.915519 29.498182 
L 153.915519 29.86843 
L 154.400934 29.86843 
L 154.400934 33.108099 
L 154.886349 33.108099 
L 154.886349 58.284959 
L 155.371765 58.284959 
L 155.371765 78.926281 
L 155.85718 78.926281 
L 155.85718 106.509752 
L 156.342596 106.509752 
L 156.342596 122.893223 
L 156.828011 122.893223 
L 156.828011 141.775868 
L 157.313426 141.775868 
L 157.313426 159.270083 
L 157.798842 159.270083 
L 157.798842 181.484959 
L 158.284257 181.484959 
L 158.284257 197.220496 
L 158.769673 197.220496 
L 158.769673 210.919669 
L 159.255088 210.919669 
L 159.255088 218.787438 
L 161.19675 218.88 
L 161.19675 216.936198 
L 161.682165 216.936198 
L 161.682165 160.010579 
L 162.167581 160.010579 
L 162.167581 94.384132 
L 162.652996 94.384132 
L 162.652996 86.701488 
L 163.138411 86.701488 
L 163.138411 91.792397 
L 163.623827 91.792397 
L 163.623827 95.957686 
L 164.594658 95.957686 
L 164.594658 104.751074 
L 165.080073 104.751074 
L 165.080073 109.008926 
L 165.565488 109.008926 
L 165.565488 104.936198 
L 166.050904 104.936198 
L 166.050904 113.174215 
L 166.536319 113.174215 
L 166.536319 118.08 
L 167.021735 118.08 
L 167.021735 117.709752 
L 167.50715 117.709752 
L 167.50715 116.876694 
L 167.992565 116.876694 
L 167.992565 130.946116 
L 168.477981 130.946116 
L 168.477981 122.800661 
L 168.963396 122.800661 
L 168.963396 133.537851 
L 169.448812 133.537851 
L 169.448812 134.370909 
L 169.934227 134.370909 
L 169.934227 139.461818 
L 170.419642 139.461818 
L 170.419642 142.979174 
L 170.905058 142.979174 
L 170.905058 156.215537 
L 171.390473 156.215537 
L 171.390473 166.027107 
L 171.875889 166.027107 
L 171.875889 177.227107 
L 172.361304 177.227107 
L 172.361304 190.370909 
L 172.846719 190.370909 
L 172.846719 202.866777 
L 173.332135 202.866777 
L 173.332135 212.678347 
L 173.81755 212.678347 
L 173.81755 218.324628 
L 174.302966 218.324628 
L 174.302966 208.883306 
L 174.788381 208.883306 
L 174.788381 178.708099 
L 175.273796 178.708099 
L 175.273796 152.790744 
L 175.759212 152.790744 
L 175.759212 150.013884 
L 176.244627 150.013884 
L 176.244627 152.420496 
L 176.730043 152.420496 
L 176.730043 155.937851 
L 177.215458 155.937851 
L 177.215458 155.567603 
L 177.700874 155.567603 
L 177.700874 153.53124 
L 178.186289 153.53124 
L 178.186289 160.936198 
L 178.671704 160.936198 
L 178.671704 160.658512 
L 179.15712 160.658512 
L 179.15712 162.972562 
L 179.642535 162.972562 
L 179.642535 170.377521 
L 180.613366 170.377521 
L 180.613366 176.39405 
L 181.098781 176.39405 
L 181.098781 177.412231 
L 181.584197 177.412231 
L 181.584197 189.908099 
L 182.069612 189.908099 
L 182.069612 189.352727 
L 182.555028 189.352727 
L 182.555028 193.147769 
L 183.040443 193.147769 
L 183.040443 196.94281 
L 183.525858 196.94281 
L 183.525858 201.385785 
L 184.011274 201.385785 
L 184.011274 207.032066 
L 184.496689 207.032066 
L 184.496689 209.53124 
L 184.982105 209.53124 
L 184.982105 214.807273 
L 185.46752 214.807273 
L 185.46752 217.95438 
L 185.952935 217.95438 
L 185.952935 212.122975 
L 186.438351 212.122975 
L 186.438351 196.572562 
L 186.923766 196.572562 
L 186.923766 186.298182 
L 187.409182 186.298182 
L 187.409182 186.946116 
L 187.894597 186.946116 
L 187.894597 192.037025 
L 188.380012 192.037025 
L 188.380012 194.999008 
L 188.865428 194.999008 
L 188.865428 196.850248 
L 189.350843 196.850248 
L 189.350843 198.33124 
L 189.836259 198.33124 
L 189.836259 198.886612 
L 190.321674 198.886612 
L 190.321674 203.699835 
L 190.80709 203.699835 
L 190.80709 203.329587 
L 191.292505 203.329587 
L 191.292505 207.032066 
L 191.77792 207.032066 
L 191.77792 207.865124 
L 192.263336 207.865124 
L 192.263336 210.641983 
L 193.234167 210.641983 
L 193.234167 213.326281 
L 193.719582 213.326281 
L 193.719582 213.696529 
L 194.204997 213.696529 
L 194.204997 214.344463 
L 194.690413 214.344463 
L 194.690413 216.195702 
L 195.175828 216.195702 
L 195.175828 217.676694 
L 195.661244 217.676694 
L 195.661244 218.41719 
L 196.146659 218.41719 
L 196.146659 218.88 
L 196.632074 218.88 
L 196.632074 218.41719 
L 197.11749 218.41719 
L 197.11749 213.326281 
L 197.602905 213.326281 
L 197.602905 206.661818 
L 198.088321 206.661818 
L 198.088321 205.736198 
L 198.573736 205.736198 
L 198.573736 205.088264 
L 199.544567 204.995702 
L 199.544567 209.346116 
L 200.029982 209.346116 
L 200.029982 208.14281 
L 200.515398 208.14281 
L 200.515398 210.179174 
L 201.000813 210.179174 
L 201.000813 212.585785 
L 201.486228 212.585785 
L 201.486228 210.45686 
L 201.971644 210.45686 
L 201.971644 211.937851 
L 202.457059 211.937851 
L 202.457059 213.233719 
L 202.942475 213.233719 
L 202.942475 215.177521 
L 203.42789 215.177521 
L 203.42789 216.658512 
L 203.913305 216.658512 
L 203.913305 215.732893 
L 204.398721 215.732893 
L 204.398721 216.380826 
L 204.884136 216.380826 
L 204.884136 216.936198 
L 205.369552 216.936198 
L 205.369552 218.139504 
L 205.854967 218.139504 
L 205.854967 218.509752 
L 206.340383 218.509752 
L 206.340383 218.787438 
L 207.796629 218.787438 
L 207.796629 218.232066 
L 208.282044 218.232066 
L 208.282044 214.344463 
L 208.76746 214.344463 
L 208.76746 210.086612 
L 209.252875 210.086612 
L 209.252875 204.347769 
L 209.73829 204.347769 
L 209.73829 201.293223 
L 210.223706 201.293223 
L 210.223706 206.199008 
L 210.709121 206.199008 
L 210.709121 200.552727 
L 211.194537 200.552727 
L 211.194537 203.792397 
L 211.679952 203.792397 
L 211.679952 205.551074 
L 212.165367 205.551074 
L 212.165367 205.180826 
L 212.650783 205.180826 
L 212.650783 203.051901 
L 213.136198 203.051901 
L 213.136198 204.90314 
L 213.621614 204.90314 
L 213.621614 206.013884 
L 214.107029 206.013884 
L 214.107029 207.124628 
L 214.592444 207.124628 
L 214.592444 209.253554 
L 215.07786 209.253554 
L 215.07786 208.975868 
L 215.563275 208.975868 
L 215.563275 210.641983 
L 216.048691 210.641983 
L 216.048691 210.827107 
L 216.534106 210.827107 
L 216.534106 212.678347 
L 217.019521 212.678347 
L 217.019521 212.956033 
L 217.504937 212.956033 
L 217.504937 213.418843 
L 217.990352 213.418843 
L 217.990352 215.177521 
L 218.475768 215.177521 
L 218.475768 218.232066 
L 218.961183 218.232066 
L 218.961183 218.88 
L 281.579771 218.88 
L 281.579771 218.694876 
L 283.521432 218.787438 
L 283.521432 218.88 
L 286.433925 218.88 
L 286.433925 218.602314 
L 287.404755 218.694876 
L 287.404755 218.787438 
L 289.346417 218.694876 
L 289.346417 218.139504 
L 289.831832 218.139504 
L 289.831832 218.41719 
L 290.802663 218.509752 
L 290.802663 218.602314 
L 291.773494 218.509752 
L 291.773494 218.324628 
L 292.25891 218.324628 
L 292.25891 218.787438 
L 292.744325 218.787438 
L 292.744325 218.41719 
L 293.715156 218.324628 
L 293.715156 218.324628 
" clip-path="url(#p1705aaa4de)" style="fill: none; stroke: #ff7f0e; stroke-width: 1.5; stroke-linecap: square"/>
   </g>
   <g id="line2d_13">
    <path d="M 235.583136 161.121322 
L 236.067406 161.121322 
L 236.067406 100.493223 
L 236.551676 100.493223 
L 236.551676 84.387438 
L 237.035946 84.387438 
L 237.035946 78.185785 
L 237.520216 78.185785 
L 237.520216 56.433719 
L 238.004485 56.433719 
L 238.004485 48.658512 
L 238.488755 48.658512 
L 238.488755 39.124628 
L 238.973025 39.124628 
L 238.973025 33.385785 
L 239.457295 33.385785 
L 239.457295 17.650248 
L 239.941565 17.650248 
L 239.941565 19.501488 
L 240.425834 19.501488 
L 240.425834 28.01719 
L 240.910104 28.01719 
L 240.910104 25.240331 
L 241.394374 25.240331 
L 241.394374 23.759339 
L 241.878644 23.759339 
L 241.878644 41.06843 
L 242.362914 41.06843 
L 242.362914 51.065124 
L 242.847183 51.065124 
L 242.847183 74.483306 
L 243.331453 74.483306 
L 243.331453 104.10314 
L 243.815723 104.10314 
L 243.815723 121.875041 
L 244.299993 121.875041 
L 244.299993 139.369256 
L 244.784263 139.369256 
L 244.784263 161.213884 
L 245.268533 161.213884 
L 245.268533 182.318017 
L 245.752802 182.318017 
L 245.752802 196.48 
L 246.237072 196.48 
L 246.237072 211.845289 
L 246.721342 211.845289 
L 246.721342 218.694876 
L 247.205612 218.694876 
L 247.205612 218.88 
L 248.658421 218.88 
L 248.658421 216.473388 
L 249.142691 216.473388 
L 249.142691 164.916364 
L 249.626961 164.916364 
L 249.626961 92.995702 
L 250.111231 92.995702 
L 250.111231 76.704793 
L 250.5955 76.704793 
L 250.5955 88.089917 
L 251.07977 88.089917 
L 251.07977 94.384132 
L 251.56404 94.384132 
L 251.56404 97.253554 
L 252.04831 97.253554 
L 252.04831 99.197355 
L 252.53258 99.197355 
L 252.53258 111.415537 
L 253.016849 111.415537 
L 253.016849 107.990744 
L 253.501119 107.990744 
L 253.501119 111.137851 
L 253.985389 111.137851 
L 253.985389 114.192397 
L 254.469659 114.192397 
L 254.469659 120.85686 
L 254.953929 120.85686 
L 254.953929 124.651901 
L 255.438198 124.651901 
L 255.438198 121.134545 
L 255.922468 121.134545 
L 255.922468 129.28 
L 256.406738 129.28 
L 256.406738 126.873388 
L 256.891008 126.873388 
L 256.891008 136.684959 
L 257.375278 136.684959 
L 257.375278 136.314711 
L 257.859547 136.314711 
L 257.859547 146.311405 
L 258.343817 146.311405 
L 258.343817 155.197355 
L 258.828087 155.197355 
L 258.828087 166.304793 
L 259.312357 166.304793 
L 259.312357 176.116364 
L 259.796627 176.116364 
L 259.796627 189.167603 
L 260.280896 189.167603 
L 260.280896 200.552727 
L 260.765166 200.552727 
L 260.765166 211.845289 
L 261.249436 211.845289 
L 261.249436 217.49157 
L 261.733706 217.49157 
L 261.733706 209.346116 
L 262.217976 209.346116 
L 262.217976 178.893223 
L 262.702245 178.893223 
L 262.702245 157.233719 
L 263.186515 157.233719 
L 263.186515 149.736198 
L 263.670785 149.736198 
L 263.670785 146.681653 
L 264.155055 146.681653 
L 264.155055 150.106446 
L 264.639325 150.106446 
L 264.639325 158.159339 
L 265.123595 158.159339 
L 265.123595 155.660165 
L 265.607864 155.660165 
L 265.607864 157.789091 
L 266.092134 157.789091 
L 266.092134 159.177521 
L 266.576404 159.177521 
L 266.576404 162.88 
L 267.060674 162.88 
L 267.060674 163.065124 
L 267.544944 163.065124 
L 267.544944 172.043636 
L 268.029213 172.043636 
L 268.029213 177.782479 
L 268.513483 177.782479 
L 268.513483 180.651901 
L 268.997753 180.651901 
L 268.997753 185.557686 
L 269.482023 185.557686 
L 269.482023 186.853554 
L 269.966293 186.853554 
L 269.966293 193.147769 
L 270.450562 193.147769 
L 270.450562 198.238678 
L 270.934832 198.238678 
L 270.934832 198.886612 
L 271.419102 198.886612 
L 271.419102 205.643636 
L 271.903372 205.643636 
L 271.903372 210.734545 
L 272.387642 210.734545 
L 272.387642 214.066777 
L 272.871911 214.066777 
L 272.871911 218.046942 
L 273.356181 218.046942 
L 273.356181 210.827107 
L 273.840451 210.827107 
L 273.840451 195.09157 
L 274.324721 195.09157 
L 274.324721 188.889917 
L 274.808991 188.889917 
L 274.808991 187.964298 
L 275.29326 187.964298 
L 275.29326 192.592397 
L 275.77753 192.592397 
L 275.77753 195.276694 
L 276.2618 195.276694 
L 276.2618 194.443636 
L 276.74607 194.443636 
L 276.74607 197.313058 
L 277.23034 197.313058 
L 277.23034 198.886612 
L 277.714609 198.886612 
L 277.714609 200.089917 
L 278.198879 200.089917 
L 278.198879 204.162645 
L 278.683149 204.162645 
L 278.683149 204.810579 
L 279.167419 204.810579 
L 279.167419 207.587438 
L 279.651689 207.587438 
L 279.651689 208.883306 
L 280.135958 208.883306 
L 280.135958 207.402314 
L 280.620228 207.402314 
L 280.620228 212.030413 
L 281.104498 212.030413 
L 281.104498 212.678347 
L 281.588768 212.678347 
L 281.588768 214.714711 
L 282.073038 214.714711 
L 282.073038 216.010579 
L 282.557307 216.010579 
L 282.557307 216.936198 
L 283.041577 216.936198 
L 283.041577 218.232066 
L 283.525847 218.232066 
L 283.525847 218.602314 
L 284.010117 218.602314 
L 284.010117 218.787438 
L 284.494387 218.787438 
L 284.494387 216.288264 
L 284.978657 216.288264 
L 284.978657 208.975868 
L 285.462926 208.975868 
L 285.462926 204.810579 
L 285.947196 204.810579 
L 285.947196 205.551074 
L 286.431466 205.551074 
L 286.431466 206.569256 
L 286.915736 206.569256 
L 286.915736 208.235372 
L 287.400006 208.235372 
L 287.400006 209.160992 
L 287.884275 209.160992 
L 287.884275 210.45686 
L 288.368545 210.45686 
L 288.368545 211.660165 
L 288.852815 211.660165 
L 288.852815 212.770909 
L 289.337085 212.770909 
L 289.337085 212.122975 
L 289.821355 212.122975 
L 289.821355 214.066777 
L 290.305624 214.066777 
L 290.305624 214.899835 
L 290.789894 214.899835 
L 290.789894 215.084959 
L 291.758434 215.177521 
L 291.758434 216.843636 
L 292.242704 216.843636 
L 292.242704 217.861818 
L 292.726973 217.861818 
L 292.726973 218.232066 
L 293.211243 218.232066 
L 293.211243 218.41719 
L 293.695513 218.41719 
L 293.695513 218.602314 
L 294.179783 218.602314 
L 294.179783 218.88 
L 295.148322 218.88 
L 295.148322 218.602314 
L 295.632592 218.602314 
L 295.632592 215.084959 
L 296.116862 215.084959 
L 296.116862 211.289917 
L 296.601132 211.289917 
L 296.601132 207.124628 
L 297.085402 207.124628 
L 297.085402 202.866777 
L 297.569671 202.866777 
L 297.569671 203.422149 
L 298.538211 203.422149 
L 298.538211 203.607273 
L 299.022481 203.607273 
L 299.022481 203.422149 
L 299.506751 203.422149 
L 299.506751 205.551074 
L 299.99102 205.551074 
L 299.99102 205.736198 
L 300.47529 205.736198 
L 300.47529 204.625455 
L 300.95956 204.625455 
L 300.95956 207.494876 
L 301.44383 207.494876 
L 301.44383 206.199008 
L 301.9281 206.199008 
L 301.9281 206.476694 
L 302.41237 206.476694 
L 302.41237 207.032066 
L 302.896639 207.032066 
L 302.896639 209.623802 
L 303.380909 209.623802 
L 303.380909 210.179174 
L 303.865179 210.179174 
L 303.865179 211.845289 
L 304.349449 211.845289 
L 304.349449 212.585785 
L 304.833719 212.585785 
L 304.833719 214.251901 
L 305.317988 214.251901 
L 305.317988 215.455207 
L 305.802258 215.455207 
L 305.802258 217.49157 
L 306.286528 217.49157 
L 306.286528 218.694876 
L 306.770798 218.694876 
L 306.770798 218.88 
L 370.210142 218.88 
L 370.210142 218.694876 
L 370.694412 218.694876 
L 370.694412 218.88 
L 374.56857 218.88 
L 374.56857 218.694876 
L 375.05284 218.694876 
L 375.05284 218.88 
L 375.53711 218.88 
L 375.53711 218.602314 
L 377.958459 218.602314 
L 377.958459 218.787438 
L 378.442729 218.787438 
L 378.442729 218.602314 
L 379.411269 218.602314 
L 379.411269 218.41719 
L 379.895538 218.41719 
L 379.895538 218.602314 
L 380.864078 218.694876 
L 380.864078 218.694876 
" clip-path="url(#p1705aaa4de)" style="fill: none; stroke: #2ca02c; stroke-width: 1.5; stroke-linecap: square"/>
   </g>
   <g id="patch_3">
    <path d="M 53.328125 228.96 
L 53.328125 7.2 
" style="fill: none; stroke: #000000; stroke-width: 0.8; stroke-linejoin: miter; stroke-linecap: square"/>
   </g>
   <g id="patch_4">
    <path d="M 388.128125 228.96 
L 388.128125 7.2 
" style="fill: none; stroke: #000000; stroke-width: 0.8; stroke-linejoin: miter; stroke-linecap: square"/>
   </g>
   <g id="patch_5">
    <path d="M 53.328125 228.96 
L 388.128125 228.96 
" style="fill: none; stroke: #000000; stroke-width: 0.8; stroke-linejoin: miter; stroke-linecap: square"/>
   </g>
   <g id="patch_6">
    <path d="M 53.328125 7.2 
L 388.128125 7.2 
" style="fill: none; stroke: #000000; stroke-width: 0.8; stroke-linejoin: miter; stroke-linecap: square"/>
   </g>
   <g id="legend_1">
    <g id="patch_7">
     <path d="M 312.570312 59.234375 
L 381.128125 59.234375 
Q 383.128125 59.234375 383.128125 57.234375 
L 383.128125 14.2 
Q 383.128125 12.2 381.128125 12.2 
L 312.570312 12.2 
Q 310.570312 12.2 310.570312 14.2 
L 310.570312 57.234375 
Q 310.570312 59.234375 312.570312 59.234375 
z
" style="fill: #ffffff; opacity: 0.8; stroke: #cccccc; stroke-linejoin: miter"/>
    </g>
    <g id="line2d_14">
     <path d="M 314.570312 20.298437 
L 314.570312 20.298437 
L 324.570312 20.298437 
L 324.570312 20.298437 
L 334.570312 20.298437 
" style="fill: none; stroke: #1f77b4; stroke-width: 1.5; stroke-linecap: square"/>
    </g>
    <g id="text_13">
     <!-- pulse:0 -->
     <g transform="translate(342.570312 23.798437) scale(0.1 -0.1)">
      <defs>
       <path id="DejaVuSans-70" d="M 1159 525 
L 1159 -1331 
L 581 -1331 
L 581 3500 
L 1159 3500 
L 1159 2969 
Q 1341 3281 1617 3432 
Q 1894 3584 2278 3584 
Q 2916 3584 3314 3078 
Q 3713 2572 3713 1747 
Q 3713 922 3314 415 
Q 2916 -91 2278 -91 
Q 1894 -91 1617 61 
Q 1341 213 1159 525 
z
M 3116 1747 
Q 3116 2381 2855 2742 
Q 2594 3103 2138 3103 
Q 1681 3103 1420 2742 
Q 1159 2381 1159 1747 
Q 1159 1113 1420 752 
Q 1681 391 2138 391 
Q 2594 391 2855 752 
Q 3116 1113 3116 1747 
z
" transform="scale(0.015625)"/>
       <path id="DejaVuSans-6c" d="M 603 4863 
L 1178 4863 
L 1178 0 
L 603 0 
L 603 4863 
z
" transform="scale(0.015625)"/>
       <path id="DejaVuSans-65" d="M 3597 1894 
L 3597 1613 
L 953 1613 
Q 991 1019 1311 708 
Q 1631 397 2203 397 
Q 2534 397 2845 478 
Q 3156 559 3463 722 
L 3463 178 
Q 3153 47 2828 -22 
Q 2503 -91 2169 -91 
Q 1331 -91 842 396 
Q 353 884 353 1716 
Q 353 2575 817 3079 
Q 1281 3584 2069 3584 
Q 2775 3584 3186 3129 
Q 3597 2675 3597 1894 
z
M 3022 2063 
Q 3016 2534 2758 2815 
Q 2500 3097 2075 3097 
Q 1594 3097 1305 2825 
Q 1016 2553 972 2059 
L 3022 2063 
z
" transform="scale(0.015625)"/>
       <path id="DejaVuSans-3a" d="M 750 794 
L 1409 794 
L 1409 0 
L 750 0 
L 750 794 
z
M 750 3309 
L 1409 3309 
L 1409 2516 
L 750 2516 
L 750 3309 
z
" transform="scale(0.015625)"/>
      </defs>
      <use xlink:href="#DejaVuSans-70"/>
      <use xlink:href="#DejaVuSans-75" transform="translate(63.476562 0)"/>
      <use xlink:href="#DejaVuSans-6c" transform="translate(126.855469 0)"/>
      <use xlink:href="#DejaVuSans-73" transform="translate(154.638672 0)"/>
      <use xlink:href="#DejaVuSans-65" transform="translate(206.738281 0)"/>
      <use xlink:href="#DejaVuSans-3a" transform="translate(268.261719 0)"/>
      <use xlink:href="#DejaVuSans-30" transform="translate(301.953125 0)"/>
     </g>
    </g>
    <g id="line2d_15">
     <path d="M 314.570312 34.976562 
L 314.570312 34.976562 
L 324.570312 34.976562 
L 324.570312 34.976562 
L 334.570312 34.976562 
" style="fill: none; stroke: #ff7f0e; stroke-width: 1.5; stroke-linecap: square"/>
    </g>
    <g id="text_14">
     <!-- pulse:1 -->
     <g transform="translate(342.570312 38.476562) scale(0.1 -0.1)">
      <use xlink:href="#DejaVuSans-70"/>
      <use xlink:href="#DejaVuSans-75" transform="translate(63.476562 0)"/>
      <use xlink:href="#DejaVuSans-6c" transform="translate(126.855469 0)"/>
      <use xlink:href="#DejaVuSans-73" transform="translate(154.638672 0)"/>
      <use xlink:href="#DejaVuSans-65" transform="translate(206.738281 0)"/>
      <use xlink:href="#DejaVuSans-3a" transform="translate(268.261719 0)"/>
      <use xlink:href="#DejaVuSans-31" transform="translate(301.953125 0)"/>
     </g>
    </g>
    <g id="line2d_16">
     <path d="M 314.570312 49.654687 
L 314.570312 49.654687 
L 324.570312 49.654687 
L 324.570312 49.654687 
L 334.570312 49.654687 
" style="fill: none; stroke: #2ca02c; stroke-width: 1.5; stroke-linecap: square"/>
    </g>
    <g id="text_15">
     <!-- pulse:2 -->
     <g transform="translate(342.570312 53.154687) scale(0.1 -0.1)">
      <use xlink:href="#DejaVuSans-70"/>
      <use xlink:href="#DejaVuSans-75" transform="translate(63.476562 0)"/>
      <use xlink:href="#DejaVuSans-6c" transform="translate(126.855469 0)"/>
      <use xlink:href="#DejaVuSans-73" transform="translate(154.638672 0)"/>
      <use xlink:href="#DejaVuSans-65" transform="translate(206.738281 0)"/>
      <use xlink:href="#DejaVuSans-3a" transform="translate(268.261719 0)"/>
      <use xlink:href="#DejaVuSans-32" transform="translate(301.953125 0)"/>
     </g>
    </g>
   </g>
  </g>
 </g>
 <defs>
  <clipPath id="p1705aaa4de">
   <rect x="53.328125" y="7.2" width="334.8" height="221.76"/>
  </clipPath>
 </defs>
</svg>
