<?xml version="1.0" encoding="utf-8" standalone="no"?>
<!DOCTYPE svg PUBLIC "-//W3C//DTD SVG 1.1//EN"
  "http://www.w3.org/Graphics/SVG/1.1/DTD/svg11.dtd">
<svg xmlns:xlink="http://www.w3.org/1999/xlink" width="872.39952pt" height="296.39952pt" viewBox="0 0 872.39952 296.39952" xmlns="http://www.w3.org/2000/svg" version="1.1">
 <metadata>
  <rdf:RDF xmlns:dc="http://purl.org/dc/elements/1.1/" xmlns:cc="http://creativecommons.org/ns#" xmlns:rdf="http://www.w3.org/1999/02/22-rdf-syntax-ns#">
   <cc:Work>
    <dc:type rdf:resource="http://purl.org/dc/dcmitype/StillImage"/>
    <dc:date>2025-11-19T10:11:18.453642</dc:date>
    <dc:format>image/svg+xml</dc:format>
    <dc:creator>
     <cc:Agent>
      <dc:title>Matplotlib v3.10.7, https://matplotlib.org/</dc:title>
     </cc:Agent>
    </dc:creator>
   </cc:Work>
  </rdf:RDF>
 </metadata>
 <defs>
  <style type="text/css">*{stroke-linejoin: round; stroke-linecap: butt}</style>
 </defs>
 <g id="figure_1">
  <g id="patch_1">
   <path d="M 0 296.39952 
L 872.39952 296.39952 
L 872.39952 0 
L 0 0 
z
" style="fill: #ffffff"/>
  </g>
  <g id="axes_1">
   <g id="patch_2">
    <path d="M 53.328125 257.158895 
L 411.41851 257.158895 
L 411.41851 7.2 
L 53.328125 7.2 
z
" style="fill: #ffffff"/>
   </g>
   <g id="matplotlib.axis_1">
    <g id="xtick_1">
     <g id="line2d_1">
      <defs>
       <path id="mc45c49ad22" d="M 0 0 
L 0 3.5 
" style="stroke: #000000; stroke-width: 0.8"/>
      </defs>
      <g>
       <use xlink:href="#mc45c49ad22" x="53.898355" y="257.158895" style="stroke: #000000; stroke-width: 0.8"/>
      </g>
     </g>
     <g id="text_1">
      <!-- 0 -->
      <g transform="translate(50.717105 271.757332) scale(0.1 -0.1)">
       <defs>
        <path id="DejaVuSans-30" d="M 2034 4250 
Q 1547 4250 1301 3770 
Q 1056 3291 1056 2328 
Q 1056 1369 1301 889 
Q 1547 409 2034 409 
Q 2525 409 2770 889 
Q 3016 1369 3016 2328 
Q 3016 3291 2770 3770 
Q 2525 4250 2034 4250 
z
M 2034 4750 
Q 2819 4750 3233 4129 
Q 3647 3509 3647 2328 
Q 3647 1150 3233 529 
Q 2819 -91 2034 -91 
Q 1250 -91 836 529 
Q 422 1150 422 2328 
Q 422 3509 836 4129 
Q 1250 4750 2034 4750 
z
" transform="scale(0.015625)"/>
       </defs>
       <use xlink:href="#DejaVuSans-30"/>
      </g>
     </g>
    </g>
    <g id="xtick_2">
     <g id="line2d_2">
      <g>
       <use xlink:href="#mc45c49ad22" x="102.182018" y="257.158895" style="stroke: #000000; stroke-width: 0.8"/>
      </g>
     </g>
     <g id="text_2">
      <!-- 20000 -->
      <g transform="translate(86.275768 271.757332) scale(0.1 -0.1)">
       <defs>
        <path id="DejaVuSans-32" d="M 1228 531 
L 3431 531 
L 3431 0 
L 469 0 
L 469 531 
Q 828 903 1448 1529 
Q 2069 2156 2228 2338 
Q 2531 2678 2651 2914 
Q 2772 3150 2772 3378 
Q 2772 3750 2511 3984 
Q 2250 4219 1831 4219 
Q 1534 4219 1204 4116 
Q 875 4013 500 3803 
L 500 4441 
Q 881 4594 1212 4672 
Q 1544 4750 1819 4750 
Q 2544 4750 2975 4387 
Q 3406 4025 3406 3419 
Q 3406 3131 3298 2873 
Q 3191 2616 2906 2266 
Q 2828 2175 2409 1742 
Q 1991 1309 1228 531 
z
" transform="scale(0.015625)"/>
       </defs>
       <use xlink:href="#DejaVuSans-32"/>
       <use xlink:href="#DejaVuSans-30" transform="translate(63.623047 0)"/>
       <use xlink:href="#DejaVuSans-30" transform="translate(127.246094 0)"/>
       <use xlink:href="#DejaVuSans-30" transform="translate(190.869141 0)"/>
       <use xlink:href="#DejaVuSans-30" transform="translate(254.492188 0)"/>
      </g>
     </g>
    </g>
    <g id="xtick_3">
     <g id="line2d_3">
      <g>
       <use xlink:href="#mc45c49ad22" x="150.465681" y="257.158895" style="stroke: #000000; stroke-width: 0.8"/>
      </g>
     </g>
     <g id="text_3">
      <!-- 40000 -->
      <g transform="translate(134.559431 271.757332) scale(0.1 -0.1)">
       <defs>
        <path id="DejaVuSans-34" d="M 2419 4116 
L 825 1625 
L 2419 1625 
L 2419 4116 
z
M 2253 4666 
L 3047 4666 
L 3047 1625 
L 3713 1625 
L 3713 1100 
L 3047 1100 
L 3047 0 
L 2419 0 
L 2419 1100 
L 313 1100 
L 313 1709 
L 2253 4666 
z
" transform="scale(0.015625)"/>
       </defs>
       <use xlink:href="#DejaVuSans-34"/>
       <use xlink:href="#DejaVuSans-30" transform="translate(63.623047 0)"/>
       <use xlink:href="#DejaVuSans-30" transform="translate(127.246094 0)"/>
       <use xlink:href="#DejaVuSans-30" transform="translate(190.869141 0)"/>
       <use xlink:href="#DejaVuSans-30" transform="translate(254.492188 0)"/>
      </g>
     </g>
    </g>
    <g id="xtick_4">
     <g id="line2d_4">
      <g>
       <use xlink:href="#mc45c49ad22" x="198.749343" y="257.158895" style="stroke: #000000; stroke-width: 0.8"/>
      </g>
     </g>
     <g id="text_4">
      <!-- 60000 -->
      <g transform="translate(182.843093 271.757332) scale(0.1 -0.1)">
       <defs>
        <path id="DejaVuSans-36" d="M 2113 2584 
Q 1688 2584 1439 2293 
Q 1191 2003 1191 1497 
Q 1191 994 1439 701 
Q 1688 409 2113 409 
Q 2538 409 2786 701 
Q 3034 994 3034 1497 
Q 3034 2003 2786 2293 
Q 2538 2584 2113 2584 
z
M 3366 4563 
L 3366 3988 
Q 3128 4100 2886 4159 
Q 2644 4219 2406 4219 
Q 1781 4219 1451 3797 
Q 1122 3375 1075 2522 
Q 1259 2794 1537 2939 
Q 1816 3084 2150 3084 
Q 2853 3084 3261 2657 
Q 3669 2231 3669 1497 
Q 3669 778 3244 343 
Q 2819 -91 2113 -91 
Q 1303 -91 875 529 
Q 447 1150 447 2328 
Q 447 3434 972 4092 
Q 1497 4750 2381 4750 
Q 2619 4750 2861 4703 
Q 3103 4656 3366 4563 
z
" transform="scale(0.015625)"/>
       </defs>
       <use xlink:href="#DejaVuSans-36"/>
       <use xlink:href="#DejaVuSans-30" transform="translate(63.623047 0)"/>
       <use xlink:href="#DejaVuSans-30" transform="translate(127.246094 0)"/>
       <use xlink:href="#DejaVuSans-30" transform="translate(190.869141 0)"/>
       <use xlink:href="#DejaVuSans-30" transform="translate(254.492188 0)"/>
      </g>
     </g>
    </g>
    <g id="xtick_5">
     <g id="line2d_5">
      <g>
       <use xlink:href="#mc45c49ad22" x="247.033006" y="257.158895" style="stroke: #000000; stroke-width: 0.8"/>
      </g>
     </g>
     <g id="text_5">
      <!-- 80000 -->
      <g transform="translate(231.126756 271.757332) scale(0.1 -0.1)">
       <defs>
        <path id="DejaVuSans-38" d="M 2034 2216 
Q 1584 2216 1326 1975 
Q 1069 1734 1069 1313 
Q 1069 891 1326 650 
Q 1584 409 2034 409 
Q 2484 409 2743 651 
Q 3003 894 3003 1313 
Q 3003 1734 2745 1975 
Q 2488 2216 2034 2216 
z
M 1403 2484 
Q 997 2584 770 2862 
Q 544 3141 544 3541 
Q 544 4100 942 4425 
Q 1341 4750 2034 4750 
Q 2731 4750 3128 4425 
Q 3525 4100 3525 3541 
Q 3525 3141 3298 2862 
Q 3072 2584 2669 2484 
Q 3125 2378 3379 2068 
Q 3634 1759 3634 1313 
Q 3634 634 3220 271 
Q 2806 -91 2034 -91 
Q 1263 -91 848 271 
Q 434 634 434 1313 
Q 434 1759 690 2068 
Q 947 2378 1403 2484 
z
M 1172 3481 
Q 1172 3119 1398 2916 
Q 1625 2713 2034 2713 
Q 2441 2713 2670 2916 
Q 2900 3119 2900 3481 
Q 2900 3844 2670 4047 
Q 2441 4250 2034 4250 
Q 1625 4250 1398 4047 
Q 1172 3844 1172 3481 
z
" transform="scale(0.015625)"/>
       </defs>
       <use xlink:href="#DejaVuSans-38"/>
       <use xlink:href="#DejaVuSans-30" transform="translate(63.623047 0)"/>
       <use xlink:href="#DejaVuSans-30" transform="translate(127.246094 0)"/>
       <use xlink:href="#DejaVuSans-30" transform="translate(190.869141 0)"/>
       <use xlink:href="#DejaVuSans-30" transform="translate(254.492188 0)"/>
      </g>
     </g>
    </g>
    <g id="xtick_6">
     <g id="line2d_6">
      <g>
       <use xlink:href="#mc45c49ad22" x="295.316669" y="257.158895" style="stroke: #000000; stroke-width: 0.8"/>
      </g>
     </g>
     <g id="text_6">
      <!-- 100000 -->
      <g transform="translate(276.229169 271.757332) scale(0.1 -0.1)">
       <defs>
        <path id="DejaVuSans-31" d="M 794 531 
L 1825 531 
L 1825 4091 
L 703 3866 
L 703 4441 
L 1819 4666 
L 2450 4666 
L 2450 531 
L 3481 531 
L 3481 0 
L 794 0 
L 794 531 
z
" transform="scale(0.015625)"/>
       </defs>
       <use xlink:href="#DejaVuSans-31"/>
       <use xlink:href="#DejaVuSans-30" transform="translate(63.623047 0)"/>
       <use xlink:href="#DejaVuSans-30" transform="translate(127.246094 0)"/>
       <use xlink:href="#DejaVuSans-30" transform="translate(190.869141 0)"/>
       <use xlink:href="#DejaVuSans-30" transform="translate(254.492188 0)"/>
       <use xlink:href="#DejaVuSans-30" transform="translate(318.115234 0)"/>
      </g>
     </g>
    </g>
    <g id="xtick_7">
     <g id="line2d_7">
      <g>
       <use xlink:href="#mc45c49ad22" x="343.600331" y="257.158895" style="stroke: #000000; stroke-width: 0.8"/>
      </g>
     </g>
     <g id="text_7">
      <!-- 120000 -->
      <g transform="translate(324.512831 271.757332) scale(0.1 -0.1)">
       <use xlink:href="#DejaVuSans-31"/>
       <use xlink:href="#DejaVuSans-32" transform="translate(63.623047 0)"/>
       <use xlink:href="#DejaVuSans-30" transform="translate(127.246094 0)"/>
       <use xlink:href="#DejaVuSans-30" transform="translate(190.869141 0)"/>
       <use xlink:href="#DejaVuSans-30" transform="translate(254.492188 0)"/>
       <use xlink:href="#DejaVuSans-30" transform="translate(318.115234 0)"/>
      </g>
     </g>
    </g>
    <g id="xtick_8">
     <g id="line2d_8">
      <g>
       <use xlink:href="#mc45c49ad22" x="391.883994" y="257.158895" style="stroke: #000000; stroke-width: 0.8"/>
      </g>
     </g>
     <g id="text_8">
      <!-- 140000 -->
      <g transform="translate(372.796494 271.757332) scale(0.1 -0.1)">
       <use xlink:href="#DejaVuSans-31"/>
       <use xlink:href="#DejaVuSans-34" transform="translate(63.623047 0)"/>
       <use xlink:href="#DejaVuSans-30" transform="translate(127.246094 0)"/>
       <use xlink:href="#DejaVuSans-30" transform="translate(190.869141 0)"/>
       <use xlink:href="#DejaVuSans-30" transform="translate(254.492188 0)"/>
       <use xlink:href="#DejaVuSans-30" transform="translate(318.115234 0)"/>
      </g>
     </g>
    </g>
    <g id="text_9">
     <!-- birth_time [µs] -->
     <g transform="translate(195.553005 285.435457) scale(0.1 -0.1)">
      <defs>
       <path id="DejaVuSans-62" d="M 3116 1747 
Q 3116 2381 2855 2742 
Q 2594 3103 2138 3103 
Q 1681 3103 1420 2742 
Q 1159 2381 1159 1747 
Q 1159 1113 1420 752 
Q 1681 391 2138 391 
Q 2594 391 2855 752 
Q 3116 1113 3116 1747 
z
M 1159 2969 
Q 1341 3281 1617 3432 
Q 1894 3584 2278 3584 
Q 2916 3584 3314 3078 
Q 3713 2572 3713 1747 
Q 3713 922 3314 415 
Q 2916 -91 2278 -91 
Q 1894 -91 1617 61 
Q 1341 213 1159 525 
L 1159 0 
L 581 0 
L 581 4863 
L 1159 4863 
L 1159 2969 
z
" transform="scale(0.015625)"/>
       <path id="DejaVuSans-69" d="M 603 3500 
L 1178 3500 
L 1178 0 
L 603 0 
L 603 3500 
z
M 603 4863 
L 1178 4863 
L 1178 4134 
L 603 4134 
L 603 4863 
z
" transform="scale(0.015625)"/>
       <path id="DejaVuSans-72" d="M 2631 2963 
Q 2534 3019 2420 3045 
Q 2306 3072 2169 3072 
Q 1681 3072 1420 2755 
Q 1159 2438 1159 1844 
L 1159 0 
L 581 0 
L 581 3500 
L 1159 3500 
L 1159 2956 
Q 1341 3275 1631 3429 
Q 1922 3584 2338 3584 
Q 2397 3584 2469 3576 
Q 2541 3569 2628 3553 
L 2631 2963 
z
" transform="scale(0.015625)"/>
       <path id="DejaVuSans-74" d="M 1172 4494 
L 1172 3500 
L 2356 3500 
L 2356 3053 
L 1172 3053 
L 1172 1153 
Q 1172 725 1289 603 
Q 1406 481 1766 481 
L 2356 481 
L 2356 0 
L 1766 0 
Q 1100 0 847 248 
Q 594 497 594 1153 
L 594 3053 
L 172 3053 
L 172 3500 
L 594 3500 
L 594 4494 
L 1172 4494 
z
" transform="scale(0.015625)"/>
       <path id="DejaVuSans-68" d="M 3513 2113 
L 3513 0 
L 2938 0 
L 2938 2094 
Q 2938 2591 2744 2837 
Q 2550 3084 2163 3084 
Q 1697 3084 1428 2787 
Q 1159 2491 1159 1978 
L 1159 0 
L 581 0 
L 581 4863 
L 1159 4863 
L 1159 2956 
Q 1366 3272 1645 3428 
Q 1925 3584 2291 3584 
Q 2894 3584 3203 3211 
Q 3513 2838 3513 2113 
z
" transform="scale(0.015625)"/>
       <path id="DejaVuSans-5f" d="M 3263 -1063 
L 3263 -1509 
L -63 -1509 
L -63 -1063 
L 3263 -1063 
z
" transform="scale(0.015625)"/>
       <path id="DejaVuSans-6d" d="M 3328 2828 
Q 3544 3216 3844 3400 
Q 4144 3584 4550 3584 
Q 5097 3584 5394 3201 
Q 5691 2819 5691 2113 
L 5691 0 
L 5113 0 
L 5113 2094 
Q 5113 2597 4934 2840 
Q 4756 3084 4391 3084 
Q 3944 3084 3684 2787 
Q 3425 2491 3425 1978 
L 3425 0 
L 2847 0 
L 2847 2094 
Q 2847 2600 2669 2842 
Q 2491 3084 2119 3084 
Q 1678 3084 1418 2786 
Q 1159 2488 1159 1978 
L 1159 0 
L 581 0 
L 581 3500 
L 1159 3500 
L 1159 2956 
Q 1356 3278 1631 3431 
Q 1906 3584 2284 3584 
Q 2666 3584 2933 3390 
Q 3200 3197 3328 2828 
z
" transform="scale(0.015625)"/>
       <path id="DejaVuSans-65" d="M 3597 1894 
L 3597 1613 
L 953 1613 
Q 991 1019 1311 708 
Q 1631 397 2203 397 
Q 2534 397 2845 478 
Q 3156 559 3463 722 
L 3463 178 
Q 3153 47 2828 -22 
Q 2503 -91 2169 -91 
Q 1331 -91 842 396 
Q 353 884 353 1716 
Q 353 2575 817 3079 
Q 1281 3584 2069 3584 
Q 2775 3584 3186 3129 
Q 3597 2675 3597 1894 
z
M 3022 2063 
Q 3016 2534 2758 2815 
Q 2500 3097 2075 3097 
Q 1594 3097 1305 2825 
Q 1016 2553 972 2059 
L 3022 2063 
z
" transform="scale(0.015625)"/>
       <path id="DejaVuSans-20" transform="scale(0.015625)"/>
       <path id="DejaVuSans-5b" d="M 550 4863 
L 1875 4863 
L 1875 4416 
L 1125 4416 
L 1125 -397 
L 1875 -397 
L 1875 -844 
L 550 -844 
L 550 4863 
z
" transform="scale(0.015625)"/>
       <path id="DejaVuSans-b5" d="M 544 -1331 
L 544 3500 
L 1119 3500 
L 1119 1325 
Q 1119 872 1334 640 
Q 1550 409 1972 409 
Q 2434 409 2667 671 
Q 2900 934 2900 1459 
L 2900 3500 
L 3475 3500 
L 3475 806 
Q 3475 619 3529 530 
Q 3584 441 3700 441 
Q 3728 441 3778 458 
Q 3828 475 3916 513 
L 3916 50 
Q 3788 -22 3673 -56 
Q 3559 -91 3450 -91 
Q 3234 -91 3106 31 
Q 2978 153 2931 403 
Q 2775 156 2548 32 
Q 2322 -91 2016 -91 
Q 1697 -91 1473 31 
Q 1250 153 1119 397 
L 1119 -1331 
L 544 -1331 
z
" transform="scale(0.015625)"/>
       <path id="DejaVuSans-73" d="M 2834 3397 
L 2834 2853 
Q 2591 2978 2328 3040 
Q 2066 3103 1784 3103 
Q 1356 3103 1142 2972 
Q 928 2841 928 2578 
Q 928 2378 1081 2264 
Q 1234 2150 1697 2047 
L 1894 2003 
Q 2506 1872 2764 1633 
Q 3022 1394 3022 966 
Q 3022 478 2636 193 
Q 2250 -91 1575 -91 
Q 1294 -91 989 -36 
Q 684 19 347 128 
L 347 722 
Q 666 556 975 473 
Q 1284 391 1588 391 
Q 1994 391 2212 530 
Q 2431 669 2431 922 
Q 2431 1156 2273 1281 
Q 2116 1406 1581 1522 
L 1381 1569 
Q 847 1681 609 1914 
Q 372 2147 372 2553 
Q 372 3047 722 3315 
Q 1072 3584 1716 3584 
Q 2034 3584 2315 3537 
Q 2597 3491 2834 3397 
z
" transform="scale(0.015625)"/>
       <path id="DejaVuSans-5d" d="M 1947 4863 
L 1947 -844 
L 622 -844 
L 622 -397 
L 1369 -397 
L 1369 4416 
L 622 4416 
L 622 4863 
L 1947 4863 
z
" transform="scale(0.015625)"/>
      </defs>
      <use xlink:href="#DejaVuSans-62"/>
      <use xlink:href="#DejaVuSans-69" transform="translate(63.476562 0)"/>
      <use xlink:href="#DejaVuSans-72" transform="translate(91.259766 0)"/>
      <use xlink:href="#DejaVuSans-74" transform="translate(132.373047 0)"/>
      <use xlink:href="#DejaVuSans-68" transform="translate(171.582031 0)"/>
      <use xlink:href="#DejaVuSans-5f" transform="translate(234.960938 0)"/>
      <use xlink:href="#DejaVuSans-74" transform="translate(284.960938 0)"/>
      <use xlink:href="#DejaVuSans-69" transform="translate(324.169922 0)"/>
      <use xlink:href="#DejaVuSans-6d" transform="translate(351.953125 0)"/>
      <use xlink:href="#DejaVuSans-65" transform="translate(449.365234 0)"/>
      <use xlink:href="#DejaVuSans-20" transform="translate(510.888672 0)"/>
      <use xlink:href="#DejaVuSans-5b" transform="translate(542.675781 0)"/>
      <use xlink:href="#DejaVuSans-b5" transform="translate(581.689453 0)"/>
      <use xlink:href="#DejaVuSans-73" transform="translate(645.3125 0)"/>
      <use xlink:href="#DejaVuSans-5d" transform="translate(697.412109 0)"/>
     </g>
    </g>
   </g>
   <g id="matplotlib.axis_2">
    <g id="ytick_1">
     <g id="line2d_9">
      <defs>
       <path id="mfd71addbfe" d="M 0 0 
L -3.5 0 
" style="stroke: #000000; stroke-width: 0.8"/>
      </defs>
      <g>
       <use xlink:href="#mfd71addbfe" x="53.328125" y="245.911087" style="stroke: #000000; stroke-width: 0.8"/>
      </g>
     </g>
     <g id="text_10">
      <!-- 0 -->
      <g transform="translate(39.965625 249.710305) scale(0.1 -0.1)">
       <use xlink:href="#DejaVuSans-30"/>
      </g>
     </g>
    </g>
    <g id="ytick_2">
     <g id="line2d_10">
      <g>
       <use xlink:href="#mfd71addbfe" x="53.328125" y="207.924567" style="stroke: #000000; stroke-width: 0.8"/>
      </g>
     </g>
     <g id="text_11">
      <!-- 1000 -->
      <g transform="translate(20.878125 211.723786) scale(0.1 -0.1)">
       <use xlink:href="#DejaVuSans-31"/>
       <use xlink:href="#DejaVuSans-30" transform="translate(63.623047 0)"/>
       <use xlink:href="#DejaVuSans-30" transform="translate(127.246094 0)"/>
       <use xlink:href="#DejaVuSans-30" transform="translate(190.869141 0)"/>
      </g>
     </g>
    </g>
    <g id="ytick_3">
     <g id="line2d_11">
      <g>
       <use xlink:href="#mfd71addbfe" x="53.328125" y="169.938048" style="stroke: #000000; stroke-width: 0.8"/>
      </g>
     </g>
     <g id="text_12">
      <!-- 2000 -->
      <g transform="translate(20.878125 173.737267) scale(0.1 -0.1)">
       <use xlink:href="#DejaVuSans-32"/>
       <use xlink:href="#DejaVuSans-30" transform="translate(63.623047 0)"/>
       <use xlink:href="#DejaVuSans-30" transform="translate(127.246094 0)"/>
       <use xlink:href="#DejaVuSans-30" transform="translate(190.869141 0)"/>
      </g>
     </g>
    </g>
    <g id="ytick_4">
     <g id="line2d_12">
      <g>
       <use xlink:href="#mfd71addbfe" x="53.328125" y="131.951528" style="stroke: #000000; stroke-width: 0.8"/>
      </g>
     </g>
     <g id="text_13">
      <!-- 3000 -->
      <g transform="translate(20.878125 135.750747) scale(0.1 -0.1)">
       <defs>
        <path id="DejaVuSans-33" d="M 2597 2516 
Q 3050 2419 3304 2112 
Q 3559 1806 3559 1356 
Q 3559 666 3084 287 
Q 2609 -91 1734 -91 
Q 1441 -91 1130 -33 
Q 819 25 488 141 
L 488 750 
Q 750 597 1062 519 
Q 1375 441 1716 441 
Q 2309 441 2620 675 
Q 2931 909 2931 1356 
Q 2931 1769 2642 2001 
Q 2353 2234 1838 2234 
L 1294 2234 
L 1294 2753 
L 1863 2753 
Q 2328 2753 2575 2939 
Q 2822 3125 2822 3475 
Q 2822 3834 2567 4026 
Q 2313 4219 1838 4219 
Q 1578 4219 1281 4162 
Q 984 4106 628 3988 
L 628 4550 
Q 988 4650 1302 4700 
Q 1616 4750 1894 4750 
Q 2613 4750 3031 4423 
Q 3450 4097 3450 3541 
Q 3450 3153 3228 2886 
Q 3006 2619 2597 2516 
z
" transform="scale(0.015625)"/>
       </defs>
       <use xlink:href="#DejaVuSans-33"/>
       <use xlink:href="#DejaVuSans-30" transform="translate(63.623047 0)"/>
       <use xlink:href="#DejaVuSans-30" transform="translate(127.246094 0)"/>
       <use xlink:href="#DejaVuSans-30" transform="translate(190.869141 0)"/>
      </g>
     </g>
    </g>
    <g id="ytick_5">
     <g id="line2d_13">
      <g>
       <use xlink:href="#mfd71addbfe" x="53.328125" y="93.965009" style="stroke: #000000; stroke-width: 0.8"/>
      </g>
     </g>
     <g id="text_14">
      <!-- 4000 -->
      <g transform="translate(20.878125 97.764228) scale(0.1 -0.1)">
       <use xlink:href="#DejaVuSans-34"/>
       <use xlink:href="#DejaVuSans-30" transform="translate(63.623047 0)"/>
       <use xlink:href="#DejaVuSans-30" transform="translate(127.246094 0)"/>
       <use xlink:href="#DejaVuSans-30" transform="translate(190.869141 0)"/>
      </g>
     </g>
    </g>
    <g id="ytick_6">
     <g id="line2d_14">
      <g>
       <use xlink:href="#mfd71addbfe" x="53.328125" y="55.97849" style="stroke: #000000; stroke-width: 0.8"/>
      </g>
     </g>
     <g id="text_15">
      <!-- 5000 -->
      <g transform="translate(20.878125 59.777708) scale(0.1 -0.1)">
       <defs>
        <path id="DejaVuSans-35" d="M 691 4666 
L 3169 4666 
L 3169 4134 
L 1269 4134 
L 1269 2991 
Q 1406 3038 1543 3061 
Q 1681 3084 1819 3084 
Q 2600 3084 3056 2656 
Q 3513 2228 3513 1497 
Q 3513 744 3044 326 
Q 2575 -91 1722 -91 
Q 1428 -91 1123 -41 
Q 819 9 494 109 
L 494 744 
Q 775 591 1075 516 
Q 1375 441 1709 441 
Q 2250 441 2565 725 
Q 2881 1009 2881 1497 
Q 2881 1984 2565 2268 
Q 2250 2553 1709 2553 
Q 1456 2553 1204 2497 
Q 953 2441 691 2322 
L 691 4666 
z
" transform="scale(0.015625)"/>
       </defs>
       <use xlink:href="#DejaVuSans-35"/>
       <use xlink:href="#DejaVuSans-30" transform="translate(63.623047 0)"/>
       <use xlink:href="#DejaVuSans-30" transform="translate(127.246094 0)"/>
       <use xlink:href="#DejaVuSans-30" transform="translate(190.869141 0)"/>
      </g>
     </g>
    </g>
    <g id="ytick_7">
     <g id="line2d_15">
      <g>
       <use xlink:href="#mfd71addbfe" x="53.328125" y="17.99197" style="stroke: #000000; stroke-width: 0.8"/>
      </g>
     </g>
     <g id="text_16">
      <!-- 6000 -->
      <g transform="translate(20.878125 21.791189) scale(0.1 -0.1)">
       <use xlink:href="#DejaVuSans-36"/>
       <use xlink:href="#DejaVuSans-30" transform="translate(63.623047 0)"/>
       <use xlink:href="#DejaVuSans-30" transform="translate(127.246094 0)"/>
       <use xlink:href="#DejaVuSans-30" transform="translate(190.869141 0)"/>
      </g>
     </g>
    </g>
    <g id="text_17">
     <!-- [counts] -->
     <g transform="translate(14.798438 152.791947) rotate(-90) scale(0.1 -0.1)">
      <defs>
       <path id="DejaVuSans-63" d="M 3122 3366 
L 3122 2828 
Q 2878 2963 2633 3030 
Q 2388 3097 2138 3097 
Q 1578 3097 1268 2742 
Q 959 2388 959 1747 
Q 959 1106 1268 751 
Q 1578 397 2138 397 
Q 2388 397 2633 464 
Q 2878 531 3122 666 
L 3122 134 
Q 2881 22 2623 -34 
Q 2366 -91 2075 -91 
Q 1284 -91 818 406 
Q 353 903 353 1747 
Q 353 2603 823 3093 
Q 1294 3584 2113 3584 
Q 2378 3584 2631 3529 
Q 2884 3475 3122 3366 
z
" transform="scale(0.015625)"/>
       <path id="DejaVuSans-6f" d="M 1959 3097 
Q 1497 3097 1228 2736 
Q 959 2375 959 1747 
Q 959 1119 1226 758 
Q 1494 397 1959 397 
Q 2419 397 2687 759 
Q 2956 1122 2956 1747 
Q 2956 2369 2687 2733 
Q 2419 3097 1959 3097 
z
M 1959 3584 
Q 2709 3584 3137 3096 
Q 3566 2609 3566 1747 
Q 3566 888 3137 398 
Q 2709 -91 1959 -91 
Q 1206 -91 779 398 
Q 353 888 353 1747 
Q 353 2609 779 3096 
Q 1206 3584 1959 3584 
z
" transform="scale(0.015625)"/>
       <path id="DejaVuSans-75" d="M 544 1381 
L 544 3500 
L 1119 3500 
L 1119 1403 
Q 1119 906 1312 657 
Q 1506 409 1894 409 
Q 2359 409 2629 706 
Q 2900 1003 2900 1516 
L 2900 3500 
L 3475 3500 
L 3475 0 
L 2900 0 
L 2900 538 
Q 2691 219 2414 64 
Q 2138 -91 1772 -91 
Q 1169 -91 856 284 
Q 544 659 544 1381 
z
M 1991 3584 
L 1991 3584 
z
" transform="scale(0.015625)"/>
       <path id="DejaVuSans-6e" d="M 3513 2113 
L 3513 0 
L 2938 0 
L 2938 2094 
Q 2938 2591 2744 2837 
Q 2550 3084 2163 3084 
Q 1697 3084 1428 2787 
Q 1159 2491 1159 1978 
L 1159 0 
L 581 0 
L 581 3500 
L 1159 3500 
L 1159 2956 
Q 1366 3272 1645 3428 
Q 1925 3584 2291 3584 
Q 2894 3584 3203 3211 
Q 3513 2838 3513 2113 
z
" transform="scale(0.015625)"/>
      </defs>
      <use xlink:href="#DejaVuSans-5b"/>
      <use xlink:href="#DejaVuSans-63" transform="translate(39.013672 0)"/>
      <use xlink:href="#DejaVuSans-6f" transform="translate(93.994141 0)"/>
      <use xlink:href="#DejaVuSans-75" transform="translate(155.175781 0)"/>
      <use xlink:href="#DejaVuSans-6e" transform="translate(218.554688 0)"/>
      <use xlink:href="#DejaVuSans-74" transform="translate(281.933594 0)"/>
      <use xlink:href="#DejaVuSans-73" transform="translate(321.142578 0)"/>
      <use xlink:href="#DejaVuSans-5d" transform="translate(373.242188 0)"/>
     </g>
    </g>
   </g>
   <g id="line2d_16">
    <path d="M 53.928535 233.527481 
L 53.968562 233.527481 
L 54.048617 210.507651 
L 54.088644 210.507651 
L 54.168699 181.220044 
L 54.208726 181.220044 
L 54.28878 157.858335 
L 54.328808 157.858335 
L 54.408862 135.484275 
L 54.44889 135.484275 
L 54.528944 117.174772 
L 54.568972 117.174772 
L 54.649026 106.994385 
L 54.689054 106.994385 
L 54.769108 91.154007 
L 54.809136 91.154007 
L 54.849163 85.11415 
L 54.88919 86.063813 
L 54.929217 86.063813 
L 54.969245 71.970814 
L 55.009272 75.997385 
L 55.049299 75.997385 
L 55.129354 67.906257 
L 55.169381 67.906257 
L 55.249436 59.967074 
L 55.289463 59.967074 
L 55.329491 53.205474 
L 55.369518 59.435263 
L 55.409545 59.435263 
L 55.4896 50.280512 
L 55.529627 50.280512 
L 55.529627 44.164682 
L 55.569654 52.179838 
L 55.609682 47.127631 
L 55.649709 47.127631 
L 55.689736 42.075423 
L 55.729764 46.177968 
L 55.769791 46.177968 
L 55.769791 43.404952 
L 55.849846 45.60817 
L 55.889873 45.60817 
L 55.9299 40.062138 
L 55.969928 43.025086 
L 56.009955 43.025086 
L 56.09001 31.895036 
L 56.130037 31.895036 
L 56.170064 36.567378 
L 56.210091 33.414497 
L 56.250119 33.414497 
L 56.250119 26.083099 
L 56.330173 35.313823 
L 56.410228 35.35181 
L 56.410228 31.135306 
L 56.490283 32.312888 
L 56.53031 32.312888 
L 56.53031 36.415432 
L 56.610365 32.122955 
L 56.650392 32.122955 
L 56.650392 33.034632 
L 56.730447 28.704169 
L 56.770474 28.704169 
L 56.770474 29.160007 
L 56.850528 24.86753 
L 56.890556 24.86753 
L 56.97061 31.74309 
L 57.010638 31.74309 
L 57.090692 18.561768 
L 57.13072 18.561768 
L 57.210774 32.73074 
L 57.250802 32.73074 
L 57.250802 33.414497 
L 57.330856 22.664312 
L 57.370884 22.664312 
L 57.370884 26.690883 
L 57.450938 26.235045 
L 57.490965 26.235045 
L 57.490965 30.793427 
L 57.530993 23.803908 
L 57.57102 29.349939 
L 57.611047 29.349939 
L 57.691102 24.905517 
L 57.731129 24.905517 
L 57.771157 28.552223 
L 57.811184 25.817193 
L 57.851211 25.817193 
L 57.931266 22.854245 
L 57.971293 22.854245 
L 57.971293 24.829544 
L 58.011321 19.435458 
L 58.051348 24.1078 
L 58.091375 24.1078 
L 58.131402 31.135306 
L 58.17143 23.917867 
L 58.211457 23.917867 
L 58.211457 26.918802 
L 58.291512 25.019476 
L 58.331539 25.019476 
L 58.331539 22.892231 
L 58.371566 28.666182 
L 58.411594 24.601625 
L 58.451621 24.601625 
L 58.451621 30.299602 
L 58.531676 24.145786 
L 58.571703 24.145786 
L 58.571703 30.451549 
L 58.651758 28.666182 
L 58.691785 28.666182 
L 58.731812 24.829544 
L 58.771839 26.007126 
L 58.811867 26.007126 
L 58.811867 27.640546 
L 58.891921 26.61491 
L 58.931949 26.61491 
L 58.931949 23.044177 
L 58.971976 27.678533 
L 59.012003 24.373705 
L 59.052031 24.373705 
L 59.052031 26.121085 
L 59.092058 22.474379 
L 59.132085 24.373705 
L 59.172113 24.373705 
L 59.172113 29.046047 
L 59.252167 23.12015 
L 59.292195 23.12015 
L 59.292195 20.157202 
L 59.332222 24.943503 
L 59.372249 23.955854 
L 59.412276 23.955854 
L 59.492331 28.552223 
L 59.532358 28.552223 
L 59.532358 22.512366 
L 59.612413 27.868465 
L 59.65244 27.868465 
L 59.692468 24.601625 
L 59.692468 32.73074 
L 59.732495 26.462964 
L 59.772522 26.462964 
L 59.772522 31.249265 
L 59.852577 23.955854 
L 59.892604 23.955854 
L 59.972659 20.575053 
L 60.012686 20.575053 
L 60.052713 34.857985 
L 60.092741 27.526587 
L 60.132768 27.526587 
L 60.172795 22.208474 
L 60.212823 22.24646 
L 60.25285 22.24646 
L 60.332905 28.552223 
L 60.372932 28.552223 
L 60.452987 24.98149 
L 60.493014 24.98149 
L 60.493014 23.424042 
L 60.533041 26.766856 
L 60.573069 25.133436 
L 60.613096 25.133436 
L 60.653123 25.779207 
L 60.69315 23.158137 
L 60.733178 23.158137 
L 60.813232 34.212214 
L 60.85326 34.212214 
L 60.933314 58.523586 
L 60.973342 58.523586 
L 61.053396 84.772271 
L 61.093424 84.772271 
L 61.173478 107.450223 
L 61.213506 107.450223 
L 61.29356 130.73596 
L 61.333587 130.73596 
L 61.413642 148.285732 
L 61.453669 148.285732 
L 61.533724 165.98745 
L 61.573751 165.98745 
L 61.653806 175.674012 
L 61.693833 175.674012 
L 61.773888 188.171577 
L 61.813915 188.171577 
L 61.89397 196.034787 
L 61.933997 196.034787 
L 62.014052 202.11263 
L 62.054079 202.11263 
L 62.134134 210.317718 
L 62.174161 210.317718 
L 62.254216 215.977709 
L 62.294243 215.977709 
L 62.374298 221.105889 
L 62.454352 221.143876 
L 62.534407 225.778231 
L 62.574434 225.778231 
L 62.574434 224.562663 
L 62.654489 229.159032 
L 62.694516 229.159032 
L 62.774571 230.716479 
L 62.814598 230.716479 
L 62.894653 233.299562 
L 62.93468 233.299562 
L 63.014735 234.515131 
L 63.054762 234.515131 
L 63.134817 237.326133 
L 63.174844 237.326133 
L 63.174844 236.49043 
L 63.254898 238.23781 
L 63.294926 238.23781 
L 63.334953 238.807607 
L 63.37498 238.579688 
L 63.415008 238.579688 
L 63.495062 241.352704 
L 63.53509 241.352704 
L 63.575117 240.517001 
L 63.615144 241.61861 
L 63.655172 241.61861 
L 63.655172 241.124785 
L 63.735226 242.188408 
L 63.775254 242.188408 
L 63.775254 241.428677 
L 63.815281 242.644246 
L 63.855308 242.568273 
L 63.895335 242.568273 
L 63.895335 242.074448 
L 63.935363 242.682232 
L 63.97539 242.416327 
L 64.015417 242.416327 
L 64.055445 243.593909 
L 64.095472 243.25203 
L 64.135499 243.25203 
L 64.135499 242.986125 
L 64.215554 244.277666 
L 64.255581 244.277666 
L 64.255581 243.290017 
L 64.335636 243.669882 
L 64.375663 243.669882 
L 64.415691 244.657531 
L 64.455718 244.543572 
L 64.495745 244.543572 
L 64.5758 244.315653 
L 64.615827 244.315653 
L 64.695882 244.961424 
L 64.775936 244.923437 
L 64.775936 244.771491 
L 64.855991 245.189343 
L 64.896018 245.189343 
L 64.936046 244.923437 
L 64.976073 244.961424 
L 65.0161 244.961424 
L 65.056128 245.417262 
L 65.096155 245.379275 
L 65.176209 245.303302 
L 65.176209 245.151356 
L 65.256264 245.455248 
L 65.296291 245.455248 
L 65.336319 245.227329 
L 65.376346 245.303302 
L 65.496428 245.379275 
L 65.496428 245.493235 
L 65.576483 245.455248 
L 65.696565 245.455248 
L 65.696565 245.607194 
L 65.776619 245.607194 
L 65.816646 245.607194 
L 65.816646 245.797127 
L 65.896701 245.645181 
L 65.936728 245.645181 
L 65.936728 245.645181 
" clip-path="url(#p09847d0729)" style="fill: none; stroke: #1f77b4; stroke-width: 1.5; stroke-linecap: square"/>
   </g>
   <g id="line2d_17">
    <path d="M 226.370038 234.287212 
L 226.410054 234.287212 
L 226.490088 210.431677 
L 226.530105 210.431677 
L 226.610139 182.131721 
L 226.650156 182.131721 
L 226.730189 156.452833 
L 226.770206 156.452833 
L 226.85024 139.890711 
L 226.890257 139.890711 
L 226.97029 124.582144 
L 227.010307 124.582144 
L 227.090341 107.032372 
L 227.130358 107.032372 
L 227.210392 97.269836 
L 227.250408 97.269836 
L 227.330442 82.037242 
L 227.370459 82.037242 
L 227.410476 74.85779 
L 227.450493 75.465574 
L 227.49051 75.465574 
L 227.570543 67.260486 
L 227.61056 67.260486 
L 227.690594 62.398211 
L 227.730611 62.398211 
L 227.810644 49.026957 
L 227.890678 49.026957 
L 227.930695 55.598624 
L 227.970712 51.951919 
L 228.010729 51.951919 
L 228.010729 53.775271 
L 228.090762 39.340394 
L 228.130779 39.340394 
L 228.210813 42.949113 
L 228.25083 42.949113 
L 228.25083 43.366965 
L 228.290847 41.277707 
L 228.330864 42.417302 
L 228.37088 42.417302 
L 228.450914 34.706039 
L 228.490931 34.706039 
L 228.530948 41.315693 
L 228.570965 32.920672 
L 228.610982 32.920672 
L 228.691015 35.99758 
L 228.731032 35.99758 
L 228.731032 32.540807 
L 228.811066 33.338524 
L 228.851083 33.338524 
L 228.851083 34.47812 
L 228.8911 27.032762 
L 228.931116 32.426848 
L 228.971133 32.426848 
L 228.971133 29.12202 
L 229.051167 33.148591 
L 229.091184 33.148591 
L 229.091184 35.617715 
L 229.171218 30.831414 
L 229.211234 30.831414 
L 229.251251 32.920672 
L 229.291268 27.564573 
L 229.331285 27.564573 
L 229.331285 23.23411 
L 229.411319 32.236915 
L 229.451336 32.236915 
L 229.491352 26.197058 
L 229.531369 33.262551 
L 229.571386 33.262551 
L 229.65142 27.412627 
L 229.691437 27.412627 
L 229.691437 29.767791 
L 229.731454 25.85518 
L 229.771471 26.462964 
L 229.811487 26.462964 
L 229.811487 28.742155 
L 229.851504 24.715584 
L 229.891521 24.98149 
L 229.931538 24.98149 
L 229.931538 27.60256 
L 230.011572 22.056528 
L 230.051589 22.056528 
L 230.091605 28.438263 
L 230.131622 23.044177 
L 230.171639 23.044177 
L 230.211656 21.942568 
L 230.251673 31.629131 
L 230.29169 31.629131 
L 230.371723 20.233175 
L 230.41174 20.233175 
L 230.41174 32.844699 
L 230.491774 23.538002 
L 230.531791 23.538002 
L 230.611825 30.147656 
L 230.651841 30.147656 
L 230.731875 26.918802 
L 230.771892 26.918802 
L 230.811909 27.146721 
L 230.851926 20.840959 
L 230.891943 20.840959 
L 230.891943 23.689948 
L 230.931959 19.663377 
L 230.971976 23.386056 
L 231.011993 23.386056 
L 231.05201 25.285382 
L 231.092027 24.411692 
L 231.132044 24.411692 
L 231.132044 25.513301 
L 231.172061 24.259746 
L 231.212077 24.715584 
L 231.252094 24.715584 
L 231.252094 29.729805 
L 231.332128 25.323368 
L 231.372145 25.323368 
L 231.412162 28.894101 
L 231.452179 21.60069 
L 231.492195 21.60069 
L 231.492195 24.525652 
L 231.532212 21.37277 
L 231.572229 23.879881 
L 231.612246 23.879881 
L 231.652263 31.781077 
L 231.69228 24.563638 
L 231.732297 24.563638 
L 231.772313 29.008061 
L 231.81233 24.563638 
L 231.852347 24.563638 
L 231.852347 30.907387 
L 231.932381 20.271161 
L 231.972398 20.271161 
L 231.972398 19.663377 
L 232.012415 29.160007 
L 232.052431 22.626326 
L 232.092448 22.626326 
L 232.132465 29.615845 
L 232.172482 18.903647 
L 232.212499 18.903647 
L 232.292533 30.261616 
L 232.332549 30.261616 
L 232.372566 26.007126 
L 232.412583 28.020411 
L 232.4526 28.020411 
L 232.532634 24.221759 
L 232.572651 24.221759 
L 232.572651 22.24646 
L 232.652684 24.677598 
L 232.692701 24.677598 
L 232.692701 26.311018 
L 232.772735 23.196123 
L 232.812752 23.196123 
L 232.812752 26.918802 
L 232.852769 22.664312 
L 232.892785 26.235045 
L 232.932802 26.235045 
L 232.972819 28.932088 
L 233.012836 26.273031 
L 233.052853 26.273031 
L 233.052853 33.718389 
L 233.132887 24.031827 
L 233.172904 24.031827 
L 233.252937 36.681338 
L 233.292954 36.681338 
L 233.372988 56.776206 
L 233.413005 56.776206 
L 233.493038 86.215759 
L 233.533055 86.215759 
L 233.613089 105.816803 
L 233.653106 105.816803 
L 233.73314 131.343744 
L 233.773156 131.343744 
L 233.85319 145.512716 
L 233.893207 145.512716 
L 233.973241 162.530677 
L 234.013258 162.530677 
L 234.093291 176.547702 
L 234.133308 176.547702 
L 234.213342 184.904736 
L 234.253359 184.904736 
L 234.333392 195.578948 
L 234.373409 195.578948 
L 234.453443 204.011956 
L 234.49346 204.011956 
L 234.49346 203.176252 
L 234.573494 209.709934 
L 234.61351 209.709934 
L 234.693544 216.357575 
L 234.733561 216.357575 
L 234.733561 216.091669 
L 234.813595 220.00428 
L 234.853612 220.00428 
L 234.933645 225.24642 
L 234.973662 225.24642 
L 234.973662 225.13246 
L 235.053696 227.411652 
L 235.093713 227.411652 
L 235.173746 229.842789 
L 235.213763 229.842789 
L 235.293797 234.211239 
L 235.333814 234.211239 
L 235.373831 232.463859 
L 235.413848 234.287212 
L 235.453864 234.287212 
L 235.453864 233.527481 
L 235.493881 236.300497 
L 235.533898 236.072578 
L 235.573915 236.072578 
L 235.573915 237.36412 
L 235.653949 237.288147 
L 235.693966 237.288147 
L 235.693966 237.060228 
L 235.733982 238.99754 
L 235.773999 238.503715 
L 235.814016 238.503715 
L 235.89405 240.365055 
L 235.934067 240.365055 
L 235.974084 240.63096 
L 236.0141 240.251095 
L 236.054117 240.251095 
L 236.134151 241.352704 
L 236.174168 241.352704 
L 236.214185 242.416327 
L 236.254202 242.150421 
L 236.334235 242.188408 
L 236.374252 242.074448 
L 236.414269 242.530286 
L 236.454286 242.530286 
L 236.454286 243.441963 
L 236.53432 243.441963 
L 236.65437 243.517936 
L 236.65437 244.087734 
L 236.734404 243.897801 
L 236.774421 243.897801 
L 236.774421 244.315653 
L 236.814438 243.707868 
L 236.854455 244.011761 
L 236.894471 244.011761 
L 236.894471 244.391626 
L 236.974505 244.315653 
L 237.014522 244.315653 
L 237.014522 244.961424 
L 237.094556 244.847464 
L 237.174589 244.771491 
L 237.174589 244.695518 
L 237.214606 245.11337 
L 237.254623 244.99941 
L 237.29464 244.99941 
L 237.29464 244.809478 
L 237.374674 245.265316 
L 237.454707 245.265316 
L 237.454707 244.923437 
L 237.534741 245.11337 
L 237.614775 245.151356 
L 237.694809 245.379275 
L 237.774842 245.455248 
L 237.774842 245.265316 
L 237.814859 245.607194 
L 237.854876 245.417262 
L 237.974927 245.417262 
L 237.974927 245.607194 
L 238.05496 245.607194 
L 238.215028 245.531221 
L 238.215028 245.759141 
L 238.295061 245.721154 
L 238.375095 245.797127 
L 238.375095 245.797127 
" clip-path="url(#p09847d0729)" style="fill: none; stroke: #ff7f0e; stroke-width: 1.5; stroke-linecap: square"/>
   </g>
   <g id="line2d_18">
    <path d="M 398.811716 234.135266 
L 398.851737 234.135266 
L 398.93178 209.633961 
L 398.971802 209.633961 
L 399.051845 183.081384 
L 399.091867 183.081384 
L 399.17191 158.580078 
L 399.211931 158.580078 
L 399.291974 138.979034 
L 399.331996 138.979034 
L 399.412039 121.429263 
L 399.452061 121.429263 
L 399.532104 108.020021 
L 399.572125 108.020021 
L 399.652168 95.180578 
L 399.69219 95.180578 
L 399.772233 84.430393 
L 399.812255 84.430393 
L 399.892298 68.931893 
L 399.932319 68.931893 
L 400.012363 71.742895 
L 400.052384 71.742895 
L 400.132427 63.689753 
L 400.172449 63.689753 
L 400.252492 54.345069 
L 400.292514 54.345069 
L 400.292514 48.571118 
L 400.372557 54.23111 
L 400.412578 54.23111 
L 400.492621 46.291927 
L 400.532643 46.291927 
L 400.572665 45.684143 
L 400.612686 46.291927 
L 400.652708 46.291927 
L 400.732751 42.721194 
L 400.772772 42.721194 
L 400.772772 38.770596 
L 400.812794 43.253006 
L 400.852816 41.467639 
L 400.892837 41.467639 
L 400.892837 31.933023 
L 400.97288 37.137176 
L 401.012902 37.137176 
L 401.012902 30.527522 
L 401.092945 40.859855 
L 401.132967 40.859855 
L 401.172988 29.653832 
L 401.21301 38.770596 
L 401.253031 38.770596 
L 401.293053 35.541742 
L 401.333074 39.074488 
L 401.373096 39.074488 
L 401.413118 24.86753 
L 401.453139 29.046047 
L 401.493161 29.046047 
L 401.493161 30.755441 
L 401.573204 30.185643 
L 401.613225 30.185643 
L 401.653247 32.692753 
L 401.693269 31.553158 
L 401.73329 31.553158 
L 401.73329 28.894101 
L 401.813333 29.463899 
L 401.853355 29.463899 
L 401.853355 31.515171 
L 401.933398 25.475314 
L 401.97342 25.475314 
L 401.97342 23.99384 
L 402.013441 30.375575 
L 402.053463 26.766856 
L 402.093484 26.766856 
L 402.133506 25.779207 
L 402.173527 25.931153 
L 402.213549 25.931153 
L 402.293592 31.135306 
L 402.333614 31.135306 
L 402.413657 27.032762 
L 402.453678 27.032762 
L 402.453678 22.322433 
L 402.533722 26.045112 
L 402.573743 26.045112 
L 402.613765 20.689013 
L 402.653786 22.512366 
L 402.693808 22.512366 
L 402.693808 27.526587 
L 402.773851 26.311018 
L 402.813872 26.311018 
L 402.853894 29.767791 
L 402.893916 26.500951 
L 402.933937 26.500951 
L 402.933937 27.640546 
L 403.01398 21.144851 
L 403.054002 21.144851 
L 403.094023 27.146721 
L 403.134045 24.183773 
L 403.174067 24.183773 
L 403.214088 29.387926 
L 403.25411 24.525652 
L 403.294131 24.525652 
L 403.334153 23.23411 
L 403.374174 23.803908 
L 403.414196 23.803908 
L 403.454218 26.576924 
L 403.494239 26.386991 
L 403.534261 26.386991 
L 403.614304 23.386056 
L 403.694347 23.310083 
L 403.77439 27.146721 
L 403.814412 27.146721 
L 403.814412 21.638676 
L 403.894455 25.74122 
L 403.934476 25.74122 
L 403.934476 32.350874 
L 403.974498 24.98149 
L 404.01452 27.450613 
L 404.054541 27.450613 
L 404.134584 22.550352 
L 404.174606 22.550352 
L 404.214627 27.184708 
L 404.254649 26.500951 
L 404.294671 26.500951 
L 404.294671 20.309148 
L 404.334692 27.60256 
L 404.374714 22.968204 
L 404.414735 22.968204 
L 404.414735 28.704169 
L 404.454757 22.24646 
L 404.494778 23.23411 
L 404.5348 23.23411 
L 404.5348 29.349939 
L 404.614843 24.335719 
L 404.654865 24.335719 
L 404.694886 32.350874 
L 404.734908 28.324303 
L 404.774929 28.324303 
L 404.854973 22.24646 
L 404.894994 22.24646 
L 404.975037 25.931153 
L 405.015059 25.931153 
L 405.015059 30.679468 
L 405.095102 25.969139 
L 405.135124 25.969139 
L 405.135124 28.210344 
L 405.175145 21.904582 
L 405.215167 21.980555 
L 405.255188 21.980555 
L 405.29521 26.652897 
L 405.335231 25.399341 
L 405.375253 25.399341 
L 405.455296 26.880816 
L 405.495318 26.880816 
L 405.495318 28.24833 
L 405.535339 22.24646 
L 405.575361 26.083099 
L 405.615382 26.083099 
L 405.655404 22.474379 
L 405.695426 36.453419 
L 405.735447 36.453419 
L 405.775469 56.548287 
L 405.81549 53.623325 
L 405.855512 53.623325 
L 405.935555 82.683013 
L 405.975577 82.683013 
L 406.05562 112.236525 
L 406.095641 112.236525 
L 406.175684 129.026566 
L 406.215706 129.026566 
L 406.295749 149.653246 
L 406.335771 149.653246 
L 406.415814 161.884906 
L 406.455835 161.884906 
L 406.535878 175.48408 
L 406.5759 175.48408 
L 406.655943 185.094669 
L 406.695965 185.094669 
L 406.776008 194.439353 
L 406.816029 194.439353 
L 406.896073 203.822023 
L 406.936094 203.822023 
L 407.016137 209.709934 
L 407.056159 209.709934 
L 407.09618 215.521871 
L 407.136202 214.420262 
L 407.176224 214.420262 
L 407.216245 218.674752 
L 407.256267 218.218914 
L 407.296288 218.218914 
L 407.376331 222.321458 
L 407.416353 222.321458 
L 407.496396 227.449638 
L 407.536418 227.449638 
L 407.616461 229.538897 
L 407.656482 229.538897 
L 407.736526 232.615805 
L 407.776547 232.615805 
L 407.85659 234.515131 
L 407.896612 234.515131 
L 407.976655 236.680362 
L 408.016677 236.680362 
L 408.056698 235.882645 
L 408.09672 238.12385 
L 408.136741 238.12385 
L 408.136741 237.857944 
L 408.216784 238.389756 
L 408.256806 238.389756 
L 408.336849 240.061163 
L 408.376871 240.061163 
L 408.376871 239.75727 
L 408.416892 240.365055 
L 408.456914 240.061163 
L 408.496935 240.061163 
L 408.536957 241.770556 
L 408.576979 241.238745 
L 408.617 241.238745 
L 408.697043 242.264381 
L 408.737065 242.264381 
L 408.777086 242.150421 
L 408.817108 242.720219 
L 408.897151 242.644246 
L 408.977194 243.290017 
L 409.017216 243.290017 
L 409.057237 243.859815 
L 409.097259 242.758205 
L 409.137281 242.758205 
L 409.137281 244.315653 
L 409.217324 244.201693 
L 409.257345 244.201693 
L 409.297367 243.36599 
L 409.337388 244.201693 
L 409.37741 244.201693 
L 409.37741 244.657531 
L 409.417432 244.163707 
L 409.457453 244.429612 
L 409.497475 244.429612 
L 409.577518 244.961424 
L 409.617539 244.961424 
L 409.617539 244.391626 
L 409.697582 245.341289 
L 409.737604 245.341289 
L 409.777626 244.391626 
L 409.817647 244.99941 
L 410.017755 245.037397 
L 410.097798 245.189343 
L 410.13782 245.189343 
L 410.13782 245.531221 
L 410.217863 245.151356 
L 410.257884 245.151356 
L 410.257884 245.531221 
L 410.337928 245.379275 
L 410.377949 245.379275 
L 410.457992 245.683167 
L 410.498014 245.683167 
L 410.498014 245.493235 
L 410.578057 245.607194 
L 410.818186 245.607194 
L 410.818186 245.607194 
" clip-path="url(#p09847d0729)" style="fill: none; stroke: #2ca02c; stroke-width: 1.5; stroke-linecap: square"/>
   </g>
   <g id="patch_3">
    <path d="M 53.328125 257.158895 
L 53.328125 7.2 
" style="fill: none; stroke: #000000; stroke-width: 0.8; stroke-linejoin: miter; stroke-linecap: square"/>
   </g>
   <g id="patch_4">
    <path d="M 411.41851 257.158895 
L 411.41851 7.2 
" style="fill: none; stroke: #000000; stroke-width: 0.8; stroke-linejoin: miter; stroke-linecap: square"/>
   </g>
   <g id="patch_5">
    <path d="M 53.328125 257.158895 
L 411.41851 257.158895 
" style="fill: none; stroke: #000000; stroke-width: 0.8; stroke-linejoin: miter; stroke-linecap: square"/>
   </g>
   <g id="patch_6">
    <path d="M 53.328125 7.2 
L 411.41851 7.2 
" style="fill: none; stroke: #000000; stroke-width: 0.8; stroke-linejoin: miter; stroke-linecap: square"/>
   </g>
   <g id="legend_1">
    <g id="patch_7">
     <path d="M 335.860697 252.158895 
L 404.41851 252.158895 
Q 406.41851 252.158895 406.41851 250.158895 
L 406.41851 207.12452 
Q 406.41851 205.12452 404.41851 205.12452 
L 335.860697 205.12452 
Q 333.860697 205.12452 333.860697 207.12452 
L 333.860697 250.158895 
Q 333.860697 252.158895 335.860697 252.158895 
z
" style="fill: #ffffff; opacity: 0.8; stroke: #cccccc; stroke-linejoin: miter"/>
    </g>
    <g id="line2d_19">
     <path d="M 337.860697 213.222957 
L 337.860697 213.222957 
L 347.860697 213.222957 
L 347.860697 213.222957 
L 357.860697 213.222957 
" style="fill: none; stroke: #1f77b4; stroke-width: 1.5; stroke-linecap: square"/>
    </g>
    <g id="text_18">
     <!-- pulse:0 -->
     <g transform="translate(365.860697 216.722957) scale(0.1 -0.1)">
      <defs>
       <path id="DejaVuSans-70" d="M 1159 525 
L 1159 -1331 
L 581 -1331 
L 581 3500 
L 1159 3500 
L 1159 2969 
Q 1341 3281 1617 3432 
Q 1894 3584 2278 3584 
Q 2916 3584 3314 3078 
Q 3713 2572 3713 1747 
Q 3713 922 3314 415 
Q 2916 -91 2278 -91 
Q 1894 -91 1617 61 
Q 1341 213 1159 525 
z
M 3116 1747 
Q 3116 2381 2855 2742 
Q 2594 3103 2138 3103 
Q 1681 3103 1420 2742 
Q 1159 2381 1159 1747 
Q 1159 1113 1420 752 
Q 1681 391 2138 391 
Q 2594 391 2855 752 
Q 3116 1113 3116 1747 
z
" transform="scale(0.015625)"/>
       <path id="DejaVuSans-6c" d="M 603 4863 
L 1178 4863 
L 1178 0 
L 603 0 
L 603 4863 
z
" transform="scale(0.015625)"/>
       <path id="DejaVuSans-3a" d="M 750 794 
L 1409 794 
L 1409 0 
L 750 0 
L 750 794 
z
M 750 3309 
L 1409 3309 
L 1409 2516 
L 750 2516 
L 750 3309 
z
" transform="scale(0.015625)"/>
      </defs>
      <use xlink:href="#DejaVuSans-70"/>
      <use xlink:href="#DejaVuSans-75" transform="translate(63.476562 0)"/>
      <use xlink:href="#DejaVuSans-6c" transform="translate(126.855469 0)"/>
      <use xlink:href="#DejaVuSans-73" transform="translate(154.638672 0)"/>
      <use xlink:href="#DejaVuSans-65" transform="translate(206.738281 0)"/>
      <use xlink:href="#DejaVuSans-3a" transform="translate(268.261719 0)"/>
      <use xlink:href="#DejaVuSans-30" transform="translate(301.953125 0)"/>
     </g>
    </g>
    <g id="line2d_20">
     <path d="M 337.860697 227.901082 
L 337.860697 227.901082 
L 347.860697 227.901082 
L 347.860697 227.901082 
L 357.860697 227.901082 
" style="fill: none; stroke: #ff7f0e; stroke-width: 1.5; stroke-linecap: square"/>
    </g>
    <g id="text_19">
     <!-- pulse:1 -->
     <g transform="translate(365.860697 231.401082) scale(0.1 -0.1)">
      <use xlink:href="#DejaVuSans-70"/>
      <use xlink:href="#DejaVuSans-75" transform="translate(63.476562 0)"/>
      <use xlink:href="#DejaVuSans-6c" transform="translate(126.855469 0)"/>
      <use xlink:href="#DejaVuSans-73" transform="translate(154.638672 0)"/>
      <use xlink:href="#DejaVuSans-65" transform="translate(206.738281 0)"/>
      <use xlink:href="#DejaVuSans-3a" transform="translate(268.261719 0)"/>
      <use xlink:href="#DejaVuSans-31" transform="translate(301.953125 0)"/>
     </g>
    </g>
    <g id="line2d_21">
     <path d="M 337.860697 242.579207 
L 337.860697 242.579207 
L 347.860697 242.579207 
L 347.860697 242.579207 
L 357.860697 242.579207 
" style="fill: none; stroke: #2ca02c; stroke-width: 1.5; stroke-linecap: square"/>
    </g>
    <g id="text_20">
     <!-- pulse:2 -->
     <g transform="translate(365.860697 246.079207) scale(0.1 -0.1)">
      <use xlink:href="#DejaVuSans-70"/>
      <use xlink:href="#DejaVuSans-75" transform="translate(63.476562 0)"/>
      <use xlink:href="#DejaVuSans-6c" transform="translate(126.855469 0)"/>
      <use xlink:href="#DejaVuSans-73" transform="translate(154.638672 0)"/>
      <use xlink:href="#DejaVuSans-65" transform="translate(206.738281 0)"/>
      <use xlink:href="#DejaVuSans-3a" transform="translate(268.261719 0)"/>
      <use xlink:href="#DejaVuSans-32" transform="translate(301.953125 0)"/>
     </g>
    </g>
   </g>
  </g>
  <g id="axes_2">
   <g id="patch_8">
    <path d="M 507.109135 257.158895 
L 865.19952 257.158895 
L 865.19952 7.2 
L 507.109135 7.2 
z
" style="fill: #ffffff"/>
   </g>
   <g id="matplotlib.axis_3">
    <g id="xtick_9">
     <g id="line2d_22">
      <g>
       <use xlink:href="#mc45c49ad22" x="520.10469" y="257.158895" style="stroke: #000000; stroke-width: 0.8"/>
      </g>
     </g>
     <g id="text_21">
      <!-- 0.0 -->
      <g transform="translate(512.153127 271.757332) scale(0.1 -0.1)">
       <defs>
        <path id="DejaVuSans-2e" d="M 684 794 
L 1344 794 
L 1344 0 
L 684 0 
L 684 794 
z
" transform="scale(0.015625)"/>
       </defs>
       <use xlink:href="#DejaVuSans-30"/>
       <use xlink:href="#DejaVuSans-2e" transform="translate(63.623047 0)"/>
       <use xlink:href="#DejaVuSans-30" transform="translate(95.410156 0)"/>
      </g>
     </g>
    </g>
    <g id="xtick_10">
     <g id="line2d_23">
      <g>
       <use xlink:href="#mc45c49ad22" x="561.41799" y="257.158895" style="stroke: #000000; stroke-width: 0.8"/>
      </g>
     </g>
     <g id="text_22">
      <!-- 2.5 -->
      <g transform="translate(553.466427 271.757332) scale(0.1 -0.1)">
       <use xlink:href="#DejaVuSans-32"/>
       <use xlink:href="#DejaVuSans-2e" transform="translate(63.623047 0)"/>
       <use xlink:href="#DejaVuSans-35" transform="translate(95.410156 0)"/>
      </g>
     </g>
    </g>
    <g id="xtick_11">
     <g id="line2d_24">
      <g>
       <use xlink:href="#mc45c49ad22" x="602.73129" y="257.158895" style="stroke: #000000; stroke-width: 0.8"/>
      </g>
     </g>
     <g id="text_23">
      <!-- 5.0 -->
      <g transform="translate(594.779727 271.757332) scale(0.1 -0.1)">
       <use xlink:href="#DejaVuSans-35"/>
       <use xlink:href="#DejaVuSans-2e" transform="translate(63.623047 0)"/>
       <use xlink:href="#DejaVuSans-30" transform="translate(95.410156 0)"/>
      </g>
     </g>
    </g>
    <g id="xtick_12">
     <g id="line2d_25">
      <g>
       <use xlink:href="#mc45c49ad22" x="644.044589" y="257.158895" style="stroke: #000000; stroke-width: 0.8"/>
      </g>
     </g>
     <g id="text_24">
      <!-- 7.5 -->
      <g transform="translate(636.093027 271.757332) scale(0.1 -0.1)">
       <defs>
        <path id="DejaVuSans-37" d="M 525 4666 
L 3525 4666 
L 3525 4397 
L 1831 0 
L 1172 0 
L 2766 4134 
L 525 4134 
L 525 4666 
z
" transform="scale(0.015625)"/>
       </defs>
       <use xlink:href="#DejaVuSans-37"/>
       <use xlink:href="#DejaVuSans-2e" transform="translate(63.623047 0)"/>
       <use xlink:href="#DejaVuSans-35" transform="translate(95.410156 0)"/>
      </g>
     </g>
    </g>
    <g id="xtick_13">
     <g id="line2d_26">
      <g>
       <use xlink:href="#mc45c49ad22" x="685.357889" y="257.158895" style="stroke: #000000; stroke-width: 0.8"/>
      </g>
     </g>
     <g id="text_25">
      <!-- 10.0 -->
      <g transform="translate(674.225077 271.757332) scale(0.1 -0.1)">
       <use xlink:href="#DejaVuSans-31"/>
       <use xlink:href="#DejaVuSans-30" transform="translate(63.623047 0)"/>
       <use xlink:href="#DejaVuSans-2e" transform="translate(127.246094 0)"/>
       <use xlink:href="#DejaVuSans-30" transform="translate(159.033203 0)"/>
      </g>
     </g>
    </g>
    <g id="xtick_14">
     <g id="line2d_27">
      <g>
       <use xlink:href="#mc45c49ad22" x="726.671189" y="257.158895" style="stroke: #000000; stroke-width: 0.8"/>
      </g>
     </g>
     <g id="text_26">
      <!-- 12.5 -->
      <g transform="translate(715.538376 271.757332) scale(0.1 -0.1)">
       <use xlink:href="#DejaVuSans-31"/>
       <use xlink:href="#DejaVuSans-32" transform="translate(63.623047 0)"/>
       <use xlink:href="#DejaVuSans-2e" transform="translate(127.246094 0)"/>
       <use xlink:href="#DejaVuSans-35" transform="translate(159.033203 0)"/>
      </g>
     </g>
    </g>
    <g id="xtick_15">
     <g id="line2d_28">
      <g>
       <use xlink:href="#mc45c49ad22" x="767.984489" y="257.158895" style="stroke: #000000; stroke-width: 0.8"/>
      </g>
     </g>
     <g id="text_27">
      <!-- 15.0 -->
      <g transform="translate(756.851676 271.757332) scale(0.1 -0.1)">
       <use xlink:href="#DejaVuSans-31"/>
       <use xlink:href="#DejaVuSans-35" transform="translate(63.623047 0)"/>
       <use xlink:href="#DejaVuSans-2e" transform="translate(127.246094 0)"/>
       <use xlink:href="#DejaVuSans-30" transform="translate(159.033203 0)"/>
      </g>
     </g>
    </g>
    <g id="xtick_16">
     <g id="line2d_29">
      <g>
       <use xlink:href="#mc45c49ad22" x="809.297789" y="257.158895" style="stroke: #000000; stroke-width: 0.8"/>
      </g>
     </g>
     <g id="text_28">
      <!-- 17.5 -->
      <g transform="translate(798.164976 271.757332) scale(0.1 -0.1)">
       <use xlink:href="#DejaVuSans-31"/>
       <use xlink:href="#DejaVuSans-37" transform="translate(63.623047 0)"/>
       <use xlink:href="#DejaVuSans-2e" transform="translate(127.246094 0)"/>
       <use xlink:href="#DejaVuSans-35" transform="translate(159.033203 0)"/>
      </g>
     </g>
    </g>
    <g id="xtick_17">
     <g id="line2d_30">
      <g>
       <use xlink:href="#mc45c49ad22" x="850.611088" y="257.158895" style="stroke: #000000; stroke-width: 0.8"/>
      </g>
     </g>
     <g id="text_29">
      <!-- 20.0 -->
      <g transform="translate(839.478276 271.757332) scale(0.1 -0.1)">
       <use xlink:href="#DejaVuSans-32"/>
       <use xlink:href="#DejaVuSans-30" transform="translate(63.623047 0)"/>
       <use xlink:href="#DejaVuSans-2e" transform="translate(127.246094 0)"/>
       <use xlink:href="#DejaVuSans-30" transform="translate(159.033203 0)"/>
      </g>
     </g>
    </g>
    <g id="text_30">
     <!-- wavelength [Å] -->
     <g transform="translate(648.116827 287.119832) scale(0.1 -0.1)">
      <defs>
       <path id="DejaVuSans-77" d="M 269 3500 
L 844 3500 
L 1563 769 
L 2278 3500 
L 2956 3500 
L 3675 769 
L 4391 3500 
L 4966 3500 
L 4050 0 
L 3372 0 
L 2619 2869 
L 1863 0 
L 1184 0 
L 269 3500 
z
" transform="scale(0.015625)"/>
       <path id="DejaVuSans-61" d="M 2194 1759 
Q 1497 1759 1228 1600 
Q 959 1441 959 1056 
Q 959 750 1161 570 
Q 1363 391 1709 391 
Q 2188 391 2477 730 
Q 2766 1069 2766 1631 
L 2766 1759 
L 2194 1759 
z
M 3341 1997 
L 3341 0 
L 2766 0 
L 2766 531 
Q 2569 213 2275 61 
Q 1981 -91 1556 -91 
Q 1019 -91 701 211 
Q 384 513 384 1019 
Q 384 1609 779 1909 
Q 1175 2209 1959 2209 
L 2766 2209 
L 2766 2266 
Q 2766 2663 2505 2880 
Q 2244 3097 1772 3097 
Q 1472 3097 1187 3025 
Q 903 2953 641 2809 
L 641 3341 
Q 956 3463 1253 3523 
Q 1550 3584 1831 3584 
Q 2591 3584 2966 3190 
Q 3341 2797 3341 1997 
z
" transform="scale(0.015625)"/>
       <path id="DejaVuSans-76" d="M 191 3500 
L 800 3500 
L 1894 563 
L 2988 3500 
L 3597 3500 
L 2284 0 
L 1503 0 
L 191 3500 
z
" transform="scale(0.015625)"/>
       <path id="DejaVuSans-67" d="M 2906 1791 
Q 2906 2416 2648 2759 
Q 2391 3103 1925 3103 
Q 1463 3103 1205 2759 
Q 947 2416 947 1791 
Q 947 1169 1205 825 
Q 1463 481 1925 481 
Q 2391 481 2648 825 
Q 2906 1169 2906 1791 
z
M 3481 434 
Q 3481 -459 3084 -895 
Q 2688 -1331 1869 -1331 
Q 1566 -1331 1297 -1286 
Q 1028 -1241 775 -1147 
L 775 -588 
Q 1028 -725 1275 -790 
Q 1522 -856 1778 -856 
Q 2344 -856 2625 -561 
Q 2906 -266 2906 331 
L 2906 616 
Q 2728 306 2450 153 
Q 2172 0 1784 0 
Q 1141 0 747 490 
Q 353 981 353 1791 
Q 353 2603 747 3093 
Q 1141 3584 1784 3584 
Q 2172 3584 2450 3431 
Q 2728 3278 2906 2969 
L 2906 3500 
L 3481 3500 
L 3481 434 
z
" transform="scale(0.015625)"/>
       <path id="DejaVuSans-c5" d="M 2663 5081 
Q 2663 5278 2523 5417 
Q 2384 5556 2188 5556 
Q 1988 5556 1852 5420 
Q 1716 5284 1716 5081 
Q 1716 4884 1853 4746 
Q 1991 4609 2188 4609 
Q 2384 4609 2523 4746 
Q 2663 4884 2663 5081 
z
M 2188 4044 
L 1338 1722 
L 3041 1722 
L 2188 4044 
z
M 1716 4366 
Q 1525 4494 1428 4673 
Q 1331 4853 1331 5081 
Q 1331 5441 1579 5691 
Q 1828 5941 2188 5941 
Q 2544 5941 2795 5689 
Q 3047 5438 3047 5081 
Q 3047 4863 2948 4678 
Q 2850 4494 2663 4366 
L 4325 0 
L 3669 0 
L 3244 1197 
L 1141 1197 
L 716 0 
L 50 0 
L 1716 4366 
z
" transform="scale(0.015625)"/>
      </defs>
      <use xlink:href="#DejaVuSans-77"/>
      <use xlink:href="#DejaVuSans-61" transform="translate(81.787109 0)"/>
      <use xlink:href="#DejaVuSans-76" transform="translate(143.066406 0)"/>
      <use xlink:href="#DejaVuSans-65" transform="translate(202.246094 0)"/>
      <use xlink:href="#DejaVuSans-6c" transform="translate(263.769531 0)"/>
      <use xlink:href="#DejaVuSans-65" transform="translate(291.552734 0)"/>
      <use xlink:href="#DejaVuSans-6e" transform="translate(353.076172 0)"/>
      <use xlink:href="#DejaVuSans-67" transform="translate(416.455078 0)"/>
      <use xlink:href="#DejaVuSans-74" transform="translate(479.931641 0)"/>
      <use xlink:href="#DejaVuSans-68" transform="translate(519.140625 0)"/>
      <use xlink:href="#DejaVuSans-20" transform="translate(582.519531 0)"/>
      <use xlink:href="#DejaVuSans-5b" transform="translate(614.306641 0)"/>
      <use xlink:href="#DejaVuSans-c5" transform="translate(653.320312 0)"/>
      <use xlink:href="#DejaVuSans-5d" transform="translate(721.728516 0)"/>
     </g>
    </g>
   </g>
   <g id="matplotlib.axis_4">
    <g id="ytick_8">
     <g id="line2d_31">
      <g>
       <use xlink:href="#mfd71addbfe" x="507.109135" y="245.81828" style="stroke: #000000; stroke-width: 0.8"/>
      </g>
     </g>
     <g id="text_31">
      <!-- 0 -->
      <g transform="translate(493.746635 249.617499) scale(0.1 -0.1)">
       <use xlink:href="#DejaVuSans-30"/>
      </g>
     </g>
    </g>
    <g id="ytick_9">
     <g id="line2d_32">
      <g>
       <use xlink:href="#mfd71addbfe" x="507.109135" y="192.935953" style="stroke: #000000; stroke-width: 0.8"/>
      </g>
     </g>
     <g id="text_32">
      <!-- 5000 -->
      <g transform="translate(474.659135 196.735172) scale(0.1 -0.1)">
       <use xlink:href="#DejaVuSans-35"/>
       <use xlink:href="#DejaVuSans-30" transform="translate(63.623047 0)"/>
       <use xlink:href="#DejaVuSans-30" transform="translate(127.246094 0)"/>
       <use xlink:href="#DejaVuSans-30" transform="translate(190.869141 0)"/>
      </g>
     </g>
    </g>
    <g id="ytick_10">
     <g id="line2d_33">
      <g>
       <use xlink:href="#mfd71addbfe" x="507.109135" y="140.053626" style="stroke: #000000; stroke-width: 0.8"/>
      </g>
     </g>
     <g id="text_33">
      <!-- 10000 -->
      <g transform="translate(468.296635 143.852845) scale(0.1 -0.1)">
       <use xlink:href="#DejaVuSans-31"/>
       <use xlink:href="#DejaVuSans-30" transform="translate(63.623047 0)"/>
       <use xlink:href="#DejaVuSans-30" transform="translate(127.246094 0)"/>
       <use xlink:href="#DejaVuSans-30" transform="translate(190.869141 0)"/>
       <use xlink:href="#DejaVuSans-30" transform="translate(254.492188 0)"/>
      </g>
     </g>
    </g>
    <g id="ytick_11">
     <g id="line2d_34">
      <g>
       <use xlink:href="#mfd71addbfe" x="507.109135" y="87.171299" style="stroke: #000000; stroke-width: 0.8"/>
      </g>
     </g>
     <g id="text_34">
      <!-- 15000 -->
      <g transform="translate(468.296635 90.970518) scale(0.1 -0.1)">
       <use xlink:href="#DejaVuSans-31"/>
       <use xlink:href="#DejaVuSans-35" transform="translate(63.623047 0)"/>
       <use xlink:href="#DejaVuSans-30" transform="translate(127.246094 0)"/>
       <use xlink:href="#DejaVuSans-30" transform="translate(190.869141 0)"/>
       <use xlink:href="#DejaVuSans-30" transform="translate(254.492188 0)"/>
      </g>
     </g>
    </g>
    <g id="ytick_12">
     <g id="line2d_35">
      <g>
       <use xlink:href="#mfd71addbfe" x="507.109135" y="34.288972" style="stroke: #000000; stroke-width: 0.8"/>
      </g>
     </g>
     <g id="text_35">
      <!-- 20000 -->
      <g transform="translate(468.296635 38.088191) scale(0.1 -0.1)">
       <use xlink:href="#DejaVuSans-32"/>
       <use xlink:href="#DejaVuSans-30" transform="translate(63.623047 0)"/>
       <use xlink:href="#DejaVuSans-30" transform="translate(127.246094 0)"/>
       <use xlink:href="#DejaVuSans-30" transform="translate(190.869141 0)"/>
       <use xlink:href="#DejaVuSans-30" transform="translate(254.492188 0)"/>
      </g>
     </g>
    </g>
    <g id="text_36">
     <!-- [counts] -->
     <g transform="translate(462.216947 152.791947) rotate(-90) scale(0.1 -0.1)">
      <use xlink:href="#DejaVuSans-5b"/>
      <use xlink:href="#DejaVuSans-63" transform="translate(39.013672 0)"/>
      <use xlink:href="#DejaVuSans-6f" transform="translate(93.994141 0)"/>
      <use xlink:href="#DejaVuSans-75" transform="translate(155.175781 0)"/>
      <use xlink:href="#DejaVuSans-6e" transform="translate(218.554688 0)"/>
      <use xlink:href="#DejaVuSans-74" transform="translate(281.933594 0)"/>
      <use xlink:href="#DejaVuSans-73" transform="translate(321.142578 0)"/>
      <use xlink:href="#DejaVuSans-5d" transform="translate(373.242188 0)"/>
     </g>
    </g>
   </g>
   <g id="line2d_36">
    <path d="M 523.385286 155.770254 
L 524.470352 155.770254 
L 524.470352 148.578257 
L 525.555418 148.578257 
L 525.555418 137.769109 
L 526.640484 137.769109 
L 526.640484 136.552816 
L 527.72555 136.552816 
L 527.72555 146.230282 
L 528.810616 146.230282 
L 528.810616 146.642764 
L 529.895682 146.642764 
L 529.895682 142.549672 
L 530.980748 142.549672 
L 530.980748 127.573397 
L 532.065813 127.573397 
L 532.065813 102.062962 
L 533.150879 102.062962 
L 533.150879 81.766725 
L 534.235945 81.766725 
L 534.235945 63.617511 
L 535.321011 63.617511 
L 535.321011 37.768629 
L 536.406077 37.768629 
L 536.406077 26.039329 
L 537.491143 26.039329 
L 537.491143 24.315365 
L 538.576209 24.315365 
L 538.576209 18.561768 
L 539.661275 18.561768 
L 539.661275 19.989591 
L 540.746341 19.989591 
L 540.746341 33.347667 
L 541.831407 33.347667 
L 541.831407 40.15891 
L 542.916472 40.15891 
L 542.916472 47.488401 
L 544.001538 47.488401 
L 544.001538 62.316605 
L 545.086604 62.316605 
L 545.086604 66.864485 
L 546.17167 66.864485 
L 546.17167 74.817987 
L 547.256736 74.817987 
L 547.256736 85.320418 
L 548.341802 85.320418 
L 548.341802 90.164439 
L 549.426868 90.164439 
L 549.426868 92.406649 
L 550.511934 92.406649 
L 550.511934 98.255435 
L 551.597 98.255435 
L 551.597 96.520894 
L 552.682066 96.520894 
L 552.682066 92.808555 
L 553.767131 92.808555 
L 553.767131 92.491261 
L 554.852197 92.491261 
L 554.852197 84.855053 
L 555.937263 84.855053 
L 555.937263 77.980351 
L 557.022329 77.980351 
L 557.022329 70.407601 
L 558.107395 70.407601 
L 558.107395 60.106124 
L 559.192461 60.106124 
L 559.192461 51.824752 
L 560.277527 51.824752 
L 560.277527 47.424942 
L 561.362593 47.424942 
L 561.362593 33.897643 
L 562.447659 33.897643 
L 562.447659 35.061054 
L 563.532725 35.061054 
L 563.532725 44.484685 
L 564.61779 44.484685 
L 564.61779 51.221893 
L 565.702856 51.221893 
L 565.702856 57.387972 
L 566.787922 57.387972 
L 566.787922 73.548812 
L 567.872988 73.548812 
L 567.872988 77.927468 
L 568.958054 77.927468 
L 568.958054 86.526135 
L 570.04312 86.526135 
L 570.04312 95.315177 
L 571.128186 95.315177 
L 571.128186 102.612938 
L 572.213252 102.612938 
L 572.213252 109.328994 
L 573.298318 109.328994 
L 573.298318 118.329566 
L 574.383383 118.329566 
L 574.383383 123.797599 
L 575.468449 123.797599 
L 575.468449 129.921372 
L 576.553515 129.921372 
L 576.553515 136.901839 
L 577.638581 136.901839 
L 577.638581 140.423802 
L 578.723647 140.423802 
L 578.723647 144.992835 
L 579.808713 144.992835 
L 579.808713 152.681926 
L 580.893779 152.681926 
L 580.893779 156.425994 
L 581.978845 156.425994 
L 581.978845 160.371016 
L 583.063911 160.371016 
L 583.063911 164.294885 
L 584.148977 164.294885 
L 584.148977 169.42447 
L 585.234042 169.42447 
L 585.234042 171.074399 
L 586.319108 171.074399 
L 586.319108 176.627043 
L 587.404174 176.627043 
L 587.404174 178.700031 
L 588.48924 178.700031 
L 588.48924 181.894123 
L 589.574306 181.894123 
L 589.574306 184.887263 
L 590.659372 184.887263 
L 590.659372 187.055438 
L 591.744438 187.055438 
L 591.744438 190.027425 
L 592.829504 190.027425 
L 592.829504 194.268588 
L 593.91457 194.268588 
L 593.91457 196.256963 
L 594.999636 196.256963 
L 594.999636 198.456868 
L 596.084701 198.456868 
L 596.084701 199.874114 
L 597.169767 199.874114 
L 597.169767 200.825996 
L 598.254833 200.825996 
L 598.254833 202.507654 
L 599.339899 202.507654 
L 599.339899 206.251723 
L 600.424965 206.251723 
L 600.424965 207.383405 
L 601.510031 207.383405 
L 601.510031 209.784262 
L 602.595097 209.784262 
L 602.595097 212.523567 
L 603.680163 212.523567 
L 603.680163 213.179308 
L 605.850294 213.105272 
L 605.850294 216.394553 
L 606.93536 216.394553 
L 606.93536 216.595506 
L 608.020426 216.595506 
L 608.020426 217.124329 
L 609.105492 217.124329 
L 609.105492 219.620375 
L 610.190558 219.620375 
L 610.190558 219.810752 
L 611.275624 219.810752 
L 611.275624 220.815516 
L 612.36069 220.815516 
L 612.36069 221.703939 
L 613.445756 221.703939 
L 613.445756 223.607703 
L 614.530822 223.607703 
L 614.530822 224.411514 
L 615.615888 224.411514 
L 615.615888 225.807607 
L 617.786019 225.712419 
L 617.786019 226.230666 
L 618.871085 226.230666 
L 618.871085 228.007512 
L 619.956151 228.007512 
L 619.956151 227.394077 
L 621.041217 227.394077 
L 621.041217 228.483453 
L 622.126283 228.483453 
L 622.126283 229.086312 
L 623.211349 229.086312 
L 623.211349 230.366064 
L 624.296415 230.366064 
L 624.296415 230.482405 
L 625.381481 230.482405 
L 625.381481 231.011228 
L 626.466547 231.011228 
L 626.466547 231.487169 
L 627.551612 231.487169 
L 627.551612 232.333287 
L 628.636678 232.333287 
L 628.636678 233.591886 
L 629.721744 233.591886 
L 629.721744 233.115945 
L 631.891876 233.147674 
L 631.891876 234.289933 
L 632.976942 234.289933 
L 632.976942 235.188932 
L 634.062008 235.188932 
L 634.062008 234.332239 
L 635.147074 234.332239 
L 635.147074 235.453344 
L 636.23214 235.453344 
L 636.23214 235.67545 
L 637.317205 235.67545 
L 637.317205 236.51099 
L 638.402271 236.51099 
L 638.402271 236.024473 
L 639.487337 236.024473 
L 639.487337 236.701367 
L 640.572403 236.701367 
L 640.572403 237.08212 
L 641.657469 237.08212 
L 641.657469 237.388837 
L 642.742535 237.388837 
L 642.742535 237.23019 
L 643.827601 237.23019 
L 643.827601 237.780166 
L 644.912667 237.780166 
L 644.912667 238.509942 
L 645.997733 238.509942 
L 645.997733 238.732048 
L 647.082799 238.732048 
L 647.082799 238.45706 
L 648.167864 238.45706 
L 648.167864 239.049342 
L 650.337996 238.96473 
L 650.337996 239.260871 
L 651.423062 239.260871 
L 651.423062 239.609895 
L 652.508128 239.609895 
L 652.508128 239.186836 
L 653.593194 239.186836 
L 653.593194 239.832001 
L 654.67826 239.832001 
L 654.67826 240.5512 
L 655.763326 240.5512 
L 655.763326 240.297365 
L 656.848392 240.297365 
L 656.848392 240.699271 
L 657.933458 240.699271 
L 657.933458 240.857918 
L 659.018523 240.857918 
L 659.018523 240.572353 
L 660.103589 240.572353 
L 660.103589 241.196365 
L 661.188655 241.196365 
L 661.188655 241.323282 
L 662.273721 241.323282 
L 662.273721 241.513659 
L 663.358787 241.513659 
L 663.358787 241.63 
L 664.443853 241.63 
L 664.443853 241.206941 
L 665.528919 241.206941 
L 665.528919 241.41847 
L 666.613985 241.41847 
L 666.613985 241.672306 
L 668.784116 241.672306 
L 668.784116 242.127094 
L 669.869182 242.127094 
L 669.869182 241.926141 
L 670.954248 241.926141 
L 670.954248 242.507846 
L 672.039314 242.507846 
L 672.039314 241.852105 
L 673.12438 241.852105 
L 673.12438 242.328046 
L 674.209446 242.328046 
L 674.209446 242.687646 
L 675.294512 242.687646 
L 675.294512 242.454964 
L 676.379578 242.454964 
L 676.379578 243.015517 
L 677.464644 243.015517 
L 677.464644 242.592458 
L 678.54971 242.592458 
L 678.54971 243.110705 
L 679.634775 243.110705 
L 679.634775 242.782834 
L 681.804907 242.761681 
L 681.804907 243.269352 
L 682.889973 243.269352 
L 682.889973 243.047246 
L 683.975039 243.047246 
L 683.975039 243.375116 
L 685.060105 243.375116 
L 685.060105 243.015517 
L 686.145171 243.015517 
L 686.145171 243.36454 
L 687.230237 243.36454 
L 687.230237 243.227046 
L 688.315303 243.227046 
L 688.315303 243.755869 
L 689.400369 243.755869 
L 689.400369 243.628952 
L 690.485434 243.628952 
L 690.485434 243.745293 
L 691.5705 243.745293 
L 691.5705 243.628952 
L 692.655566 243.628952 
L 692.655566 243.808752 
L 694.825698 243.702987 
L 694.825698 244.041434 
L 695.910764 244.041434 
L 695.910764 243.650105 
L 696.99583 243.650105 
L 696.99583 243.819328 
L 700.251028 243.840481 
L 700.251028 244.020281 
L 701.336093 244.020281 
L 701.336093 244.379881 
L 702.421159 244.379881 
L 702.421159 243.90394 
L 703.506225 243.90394 
L 703.506225 244.242387 
L 705.676357 244.210657 
L 705.676357 244.062587 
L 706.761423 244.062587 
L 706.761423 244.189504 
L 707.846489 244.189504 
L 707.846489 244.41161 
L 708.931555 244.41161 
L 708.931555 244.210657 
L 710.016621 244.210657 
L 710.016621 244.401034 
L 711.101686 244.401034 
L 711.101686 244.59141 
L 712.186752 244.59141 
L 712.186752 244.41161 
L 717.612082 244.485645 
L 717.612082 244.644292 
L 718.697148 244.644292 
L 718.697148 244.506798 
L 723.037411 244.601986 
L 723.037411 244.898127 
L 725.207543 244.834669 
L 725.207543 244.739481 
L 731.717939 244.802939 
L 731.717939 245.046198 
L 737.143268 245.014469 
L 737.143268 244.898127 
L 739.3134 245.003892 
L 739.3134 245.056774 
L 740.398466 245.056774 
L 740.398466 244.802939 
L 741.483532 244.802939 
L 741.483532 245.046198 
L 743.653663 245.109657 
L 743.653663 245.204845 
L 746.908861 245.151963 
L 746.908861 244.887551 
L 747.993927 244.887551 
L 747.993927 245.300033 
L 750.164059 245.204845 
L 750.164059 245.162539 
L 753.419256 245.204845 
L 753.419256 245.331763 
L 756.674454 245.342339 
L 756.674454 245.162539 
L 758.844586 245.194269 
L 758.844586 245.395221 
L 762.099784 245.384645 
L 762.099784 245.225998 
L 764.269915 245.257727 
L 764.269915 245.437527 
L 765.354981 245.437527 
L 765.354981 245.247151 
L 766.440047 245.247151 
L 766.440047 245.426951 
L 772.950443 245.426951 
L 772.950443 245.617327 
L 774.035508 245.617327 
L 774.035508 245.479833 
L 784.886167 245.511562 
L 784.886167 245.596174 
L 787.056299 245.596174 
L 787.056299 245.469257 
L 791.396563 245.395221 
L 791.396563 245.596174 
L 829.373869 245.680786 
L 829.373869 245.733668 
L 843.479726 245.691362 
L 843.479726 245.617327 
L 844.564792 245.617327 
L 844.564792 245.754821 
L 848.905055 245.744245 
L 848.905055 245.744245 
" clip-path="url(#p2bb5616ef1)" style="fill: none; stroke: #1f77b4; stroke-width: 1.5; stroke-linecap: square"/>
   </g>
   <g id="line2d_37">
    <path d="M 523.385971 156.076971 
L 524.471093 156.076971 
L 524.471093 147.721563 
L 525.556215 147.721563 
L 525.556215 138.689262 
L 526.641338 138.689262 
L 526.641338 138.319086 
L 527.72646 138.319086 
L 527.72646 146.600458 
L 528.811583 146.600458 
L 528.811583 148.874398 
L 529.896705 148.874398 
L 529.896705 142.782354 
L 530.981827 142.782354 
L 530.981827 124.24181 
L 532.06695 124.24181 
L 532.06695 103.977303 
L 533.152072 103.977303 
L 533.152072 81.978254 
L 534.237194 81.978254 
L 534.237194 62.707935 
L 535.322317 62.707935 
L 535.322317 38.403217 
L 536.407439 38.403217 
L 536.407439 22.824084 
L 537.492562 22.824084 
L 537.492562 24.823035 
L 538.577684 24.823035 
L 538.577684 20.317461 
L 539.662806 20.317461 
L 539.662806 23.627895 
L 540.747929 23.627895 
L 540.747929 33.178443 
L 541.833051 33.178443 
L 541.833051 37.504217 
L 542.918173 37.504217 
L 542.918173 48.313365 
L 544.003296 48.313365 
L 544.003296 61.533947 
L 545.088418 61.533947 
L 545.088418 68.408649 
L 546.173541 68.408649 
L 546.173541 76.002552 
L 547.258663 76.002552 
L 547.258663 86.155958 
L 548.343785 86.155958 
L 548.343785 86.293452 
L 549.428908 86.293452 
L 549.428908 91.846097 
L 550.51403 91.846097 
L 550.51403 94.088307 
L 551.599153 94.088307 
L 551.599153 96.520894 
L 552.684275 96.520894 
L 552.684275 94.416178 
L 553.769397 94.416178 
L 553.769397 91.729756 
L 554.85452 91.729756 
L 554.85452 83.913748 
L 555.939642 83.913748 
L 555.939642 78.424562 
L 557.024764 78.424562 
L 557.024764 73.548812 
L 558.109887 73.548812 
L 558.109887 57.112984 
L 559.195009 57.112984 
L 559.195009 49.698882 
L 560.280132 49.698882 
L 560.280132 43.268391 
L 561.365254 43.268391 
L 561.365254 36.446571 
L 562.450376 36.446571 
L 562.450376 33.040949 
L 563.535499 33.040949 
L 563.535499 44.812555 
L 564.620621 44.812555 
L 564.620621 51.094976 
L 565.705743 51.094976 
L 565.705743 57.631231 
L 566.790866 57.631231 
L 566.790866 69.540331 
L 567.875988 69.540331 
L 567.875988 77.525563 
L 568.961111 77.525563 
L 568.961111 86.621323 
L 570.046233 86.621323 
L 570.046233 98.435235 
L 571.131355 98.435235 
L 571.131355 103.035997 
L 572.216478 103.035997 
L 572.216478 110.227994 
L 573.3016 110.227994 
L 573.3016 117.938237 
L 574.386722 117.938237 
L 574.386722 124.495645 
L 575.471845 124.495645 
L 575.471845 129.561772 
L 576.556967 129.561772 
L 576.556967 138.287356 
L 577.64209 138.287356 
L 577.64209 141.851625 
L 578.727212 141.851625 
L 578.727212 148.324422 
L 579.812334 148.324422 
L 579.812334 153.009796 
L 580.897457 153.009796 
L 580.897457 156.67983 
L 581.982579 156.67983 
L 581.982579 160.434475 
L 583.067702 160.434475 
L 583.067702 165.426566 
L 584.152824 165.426566 
L 584.152824 168.567777 
L 585.237946 168.567777 
L 585.237946 173.31661 
L 586.323069 173.31661 
L 586.323069 177.621231 
L 587.408191 177.621231 
L 587.408191 177.938525 
L 588.493313 177.938525 
L 588.493313 180.381689 
L 589.578436 180.381689 
L 589.578436 185.595886 
L 590.663558 185.595886 
L 590.663558 187.118897 
L 591.748681 187.118897 
L 591.748681 190.291837 
L 592.833803 190.291837 
L 592.833803 194.183976 
L 593.918925 194.183976 
L 593.918925 195.463728 
L 595.004048 195.463728 
L 595.004048 197.473257 
L 596.08917 197.473257 
L 596.08917 200.572161 
L 597.174292 200.572161 
L 597.174292 202.994172 
L 598.259415 202.994172 
L 598.259415 204.707559 
L 599.344537 204.707559 
L 599.344537 205.786358 
L 600.42966 205.786358 
L 600.42966 207.12957 
L 601.514782 207.12957 
L 601.514782 208.208369 
L 602.599904 208.208369 
L 602.599904 211.772638 
L 603.685027 211.772638 
L 603.685027 211.349579 
L 604.770149 211.349579 
L 604.770149 213.263919 
L 605.855271 213.263919 
L 605.855271 215.50613 
L 606.940394 215.50613 
L 606.940394 217.082023 
L 608.025516 217.082023 
L 608.025516 216.828188 
L 609.110639 216.828188 
L 609.110639 219.90594 
L 610.195761 219.90594 
L 610.195761 219.324234 
L 611.280883 219.324234 
L 611.280883 220.752057 
L 612.366006 220.752057 
L 612.366006 222.803891 
L 614.53625 222.803891 
L 614.53625 223.660585 
L 615.621373 223.660585 
L 615.621373 225.733572 
L 616.706495 225.733572 
L 616.706495 225.553772 
L 617.791618 225.553772 
L 617.791618 226.325854 
L 618.87674 226.325854 
L 618.87674 227.95463 
L 619.961862 227.95463 
L 619.961862 228.070971 
L 622.132107 228.028665 
L 622.132107 230.038194 
L 623.21723 230.038194 
L 623.21723 229.699747 
L 624.302352 229.699747 
L 624.302352 230.313182 
L 625.387474 230.313182 
L 625.387474 231.772734 
L 627.557719 231.867922 
L 627.557719 232.026569 
L 628.642841 232.026569 
L 628.642841 232.597698 
L 629.727964 232.597698 
L 629.727964 233.412086 
L 631.898209 233.390933 
L 631.898209 233.792839 
L 632.983331 233.792839 
L 632.983331 234.046674 
L 634.068453 234.046674 
L 634.068453 235.019709 
L 635.153576 235.019709 
L 635.153576 235.548532 
L 636.238698 235.548532 
L 636.238698 235.210085 
L 637.32382 235.210085 
L 637.32382 236.056202 
L 638.408943 236.056202 
L 638.408943 236.743673 
L 639.494065 236.743673 
L 639.494065 236.54272 
L 640.579188 236.54272 
L 640.579188 237.452296 
L 643.834555 237.399414 
L 643.834555 237.621519 
L 644.919677 237.621519 
L 644.919677 238.467637 
L 648.175044 238.45706 
L 648.175044 238.880119 
L 650.345289 238.975307 
L 650.345289 239.387789 
L 651.430411 239.387789 
L 651.430411 239.810848 
L 652.515534 239.810848 
L 652.515534 240.022377 
L 653.600656 240.022377 
L 653.600656 239.842577 
L 655.770901 239.916612 
L 655.770901 240.487741 
L 656.856023 240.487741 
L 656.856023 240.318518 
L 657.941146 240.318518 
L 657.941146 240.857918 
L 659.026268 240.857918 
L 659.026268 240.466588 
L 660.11139 240.466588 
L 660.11139 240.984835 
L 661.196513 240.984835 
L 661.196513 240.58293 
L 662.281635 240.58293 
L 662.281635 241.185788 
L 663.366758 241.185788 
L 663.366758 241.555964 
L 664.45188 241.555964 
L 664.45188 241.23867 
L 665.537002 241.23867 
L 665.537002 241.534811 
L 666.622125 241.534811 
L 666.622125 241.883835 
L 668.792369 241.862682 
L 668.792369 242.338623 
L 670.962614 242.254011 
L 670.962614 242.454964 
L 672.047737 242.454964 
L 672.047737 242.084788 
L 673.132859 242.084788 
L 673.132859 242.402082 
L 674.217981 242.402082 
L 674.217981 242.793411 
L 675.303104 242.793411 
L 675.303104 242.46554 
L 676.388226 242.46554 
L 676.388226 242.581882 
L 677.473348 242.581882 
L 677.473348 242.729952 
L 679.643593 242.687646 
L 679.643593 243.015517 
L 680.728716 243.015517 
L 680.728716 243.216469 
L 681.813838 243.216469 
L 681.813838 243.078975 
L 686.154327 243.174164 
L 686.154327 243.480881 
L 688.324572 243.480881 
L 688.324572 243.671258 
L 689.409695 243.671258 
L 689.409695 243.829904 
L 694.835307 243.72414 
L 694.835307 243.576069 
L 695.920429 243.576069 
L 695.920429 243.766446 
L 697.005551 243.766446 
L 697.005551 244.136622 
L 699.175796 244.210657 
L 699.175796 243.87221 
L 701.346041 243.840481 
L 701.346041 244.189504 
L 702.431163 244.189504 
L 702.431163 244.062587 
L 705.68653 244.126046 
L 705.68653 244.348151 
L 706.771653 244.348151 
L 706.771653 244.178928 
L 707.856775 244.178928 
L 707.856775 244.009704 
L 708.941897 244.009704 
L 708.941897 244.41161 
L 713.282387 244.348151 
L 713.282387 244.242387 
L 714.367509 244.242387 
L 714.367509 244.665445 
L 715.452632 244.665445 
L 715.452632 244.485645 
L 717.622876 244.570257 
L 717.622876 244.644292 
L 718.707999 244.644292 
L 718.707999 244.432763 
L 719.793121 244.432763 
L 719.793121 244.612563 
L 725.218733 244.549104 
L 725.218733 244.750057 
L 726.303856 244.750057 
L 726.303856 244.866398 
L 728.4741 244.908704 
L 728.4741 244.676022 
L 729.559223 244.676022 
L 729.559223 244.95101 
L 730.644345 244.95101 
L 730.644345 244.792363 
L 733.899712 244.813516 
L 733.899712 244.993316 
L 736.069957 244.961586 
L 736.069957 245.204845 
L 737.155079 245.204845 
L 737.155079 245.035622 
L 738.240202 245.035622 
L 738.240202 245.194269 
L 739.325324 245.194269 
L 739.325324 244.993316 
L 740.410446 244.993316 
L 740.410446 245.257727 
L 741.495569 245.257727 
L 741.495569 245.120233 
L 743.665814 245.120233 
L 743.665814 244.961586 
L 744.750936 244.961586 
L 744.750936 245.141386 
L 750.176548 245.162539 
L 750.176548 245.257727 
L 754.517037 245.300033 
L 754.517037 245.067351 
L 755.60216 245.067351 
L 755.60216 245.300033 
L 764.283139 245.352915 
L 764.283139 245.416374 
L 765.368261 245.416374 
L 765.368261 245.300033 
L 766.453384 245.300033 
L 766.453384 245.479833 
L 767.538506 245.479833 
L 767.538506 245.342339 
L 771.878995 245.363492 
L 771.878995 245.45868 
L 777.304607 245.405798 
L 777.304607 245.331763 
L 778.38973 245.331763 
L 778.38973 245.659633 
L 779.474852 245.659633 
L 779.474852 245.352915 
L 780.559974 245.352915 
L 780.559974 245.553868 
L 785.985586 245.448104 
L 785.985586 245.374068 
L 788.155831 245.479833 
L 788.155831 245.543292 
L 797.921933 245.596174 
L 797.921933 245.680786 
L 800.092177 245.63848 
L 800.092177 245.543292 
L 801.1773 245.543292 
L 801.1773 245.680786 
L 809.858279 245.575021 
L 809.858279 245.553868 
L 814.198768 245.627904 
L 814.198768 245.670209 
L 848.922684 245.691362 
L 848.922684 245.691362 
" clip-path="url(#p2bb5616ef1)" style="fill: none; stroke: #ff7f0e; stroke-width: 1.5; stroke-linecap: square"/>
   </g>
   <g id="line2d_38">
    <path d="M 523.385248 157.430759 
L 524.469449 157.430759 
L 524.469449 146.113941 
L 525.55365 146.113941 
L 525.55365 138.678685 
L 526.637851 138.678685 
L 526.637851 138.858485 
L 527.722051 138.858485 
L 527.722051 146.515846 
L 528.806252 146.515846 
L 528.806252 150.51375 
L 529.890453 150.51375 
L 529.890453 141.005508 
L 530.974654 141.005508 
L 530.974654 124.051434 
L 532.058855 124.051434 
L 532.058855 102.01008 
L 533.143056 102.01008 
L 533.143056 82.443619 
L 534.227257 82.443619 
L 534.227257 60.233042 
L 535.311458 60.233042 
L 535.311458 36.975394 
L 536.395659 36.975394 
L 536.395659 25.002835 
L 537.47986 25.002835 
L 537.47986 27.213317 
L 538.56406 27.213317 
L 538.56406 20.433802 
L 539.648261 20.433802 
L 539.648261 23.395213 
L 540.732462 23.395213 
L 540.732462 34.119749 
L 541.816663 34.119749 
L 541.816663 38.0965 
L 542.900864 38.0965 
L 542.900864 49.222941 
L 543.985065 49.222941 
L 543.985065 62.0945 
L 545.069266 62.0945 
L 545.069266 66.885638 
L 546.153467 66.885638 
L 546.153467 77.620751 
L 547.237668 77.620751 
L 547.237668 84.675253 
L 548.321869 84.675253 
L 548.321869 86.95977 
L 549.406069 86.95977 
L 549.406069 91.359579 
L 550.49027 91.359579 
L 550.49027 95.198836 
L 551.574471 95.198836 
L 551.574471 94.892119 
L 553.742873 94.818083 
L 553.742873 91.888403 
L 554.827074 91.888403 
L 554.827074 85.542523 
L 555.911275 85.542523 
L 555.911275 76.467916 
L 556.995476 76.467916 
L 556.995476 71.803695 
L 558.079677 71.803695 
L 558.079677 58.075443 
L 559.163878 58.075443 
L 559.163878 50.957481 
L 560.248078 50.957481 
L 560.248078 43.65972 
L 561.332279 43.65972 
L 561.332279 34.690878 
L 562.41648 34.690878 
L 562.41648 35.727371 
L 563.500681 35.727371 
L 563.500681 42.654956 
L 564.584882 42.654956 
L 564.584882 48.895071 
L 565.669083 48.895071 
L 565.669083 56.044761 
L 566.753284 56.044761 
L 566.753284 72.977682 
L 567.837485 72.977682 
L 567.837485 79.852385 
L 568.921686 79.852385 
L 568.921686 85.859817 
L 570.005887 85.859817 
L 570.005887 98.551576 
L 571.090088 98.551576 
L 571.090088 105.415702 
L 572.174288 105.415702 
L 572.174288 109.762629 
L 573.258489 109.762629 
L 573.258489 119.471824 
L 574.34269 119.471824 
L 574.34269 123.818752 
L 575.426891 123.818752 
L 575.426891 129.202172 
L 576.511092 129.202172 
L 576.511092 135.706699 
L 577.595293 135.706699 
L 577.595293 140.318038 
L 578.679494 140.318038 
L 578.679494 147.161011 
L 579.763695 147.161011 
L 579.763695 153.284784 
L 580.847896 153.284784 
L 580.847896 155.738524 
L 581.932097 155.738524 
L 581.932097 158.879734 
L 583.016297 158.879734 
L 583.016297 167.36206 
L 584.100498 167.36206 
L 584.100498 168.335094 
L 585.184699 168.335094 
L 585.184699 173.31661 
L 586.2689 173.31661 
L 586.2689 178.562537 
L 587.353101 178.562537 
L 587.353101 178.742336 
L 588.437302 178.742336 
L 588.437302 181.5451 
L 589.521503 181.5451 
L 589.521503 186.082403 
L 590.605704 186.082403 
L 590.605704 188.240002 
L 591.689905 188.240002 
L 591.689905 190.492789 
L 592.774106 190.492789 
L 592.774106 193.0946 
L 593.858306 193.0946 
L 593.858306 195.939669 
L 594.942507 195.939669 
L 594.942507 198.15015 
L 596.026708 198.15015 
L 596.026708 199.482785 
L 597.110909 199.482785 
L 597.110909 201.259631 
L 598.19511 201.259631 
L 598.19511 202.412466 
L 599.279311 202.412466 
L 599.279311 205.892123 
L 600.363512 205.892123 
L 600.363512 207.827616 
L 601.447713 207.827616 
L 601.447713 209.37178 
L 602.531914 209.37178 
L 602.531914 210.789027 
L 603.616115 210.789027 
L 603.616115 212.491838 
L 604.700315 212.491838 
L 604.700315 213.253343 
L 605.784516 213.253343 
L 605.784516 215.157107 
L 606.868717 215.157107 
L 606.868717 217.0926 
L 609.037119 217.018565 
L 609.037119 219.578069 
L 610.12132 219.578069 
L 610.12132 219.948246 
L 611.205521 219.948246 
L 611.205521 220.783786 
L 612.289722 220.783786 
L 612.289722 222.645244 
L 613.373923 222.645244 
L 613.373923 223.967302 
L 614.458124 223.967302 
L 614.458124 223.713467 
L 615.542325 223.713467 
L 615.542325 225.722996 
L 616.626525 225.722996 
L 616.626525 226.262395 
L 617.710726 226.262395 
L 617.710726 226.569113 
L 618.794927 226.569113 
L 618.794927 227.129666 
L 620.963329 227.182548 
L 620.963329 228.557488 
L 622.04753 228.557488 
L 622.04753 229.255535 
L 623.131731 229.255535 
L 623.131731 230.535287 
L 625.300133 230.514135 
L 625.300133 231.60351 
L 626.384334 231.60351 
L 626.384334 232.164063 
L 627.468534 232.164063 
L 627.468534 232.872686 
L 628.552735 232.872686 
L 628.552735 233.137098 
L 629.636936 233.137098 
L 629.636936 233.380357 
L 630.721137 233.380357 
L 630.721137 233.665921 
L 631.805338 233.665921 
L 631.805338 234.110133 
L 632.889539 234.110133 
L 632.889539 234.311086 
L 633.97374 234.311086 
L 633.97374 234.966826 
L 635.057941 234.966826 
L 635.057941 235.516803 
L 636.142142 235.516803 
L 636.142142 235.982167 
L 637.226343 235.982167 
L 637.226343 235.64372 
L 638.310543 235.64372 
L 638.310543 236.563873 
L 639.394744 236.563873 
L 639.394744 236.754249 
L 641.563146 236.72252 
L 641.563146 237.759013 
L 642.647347 237.759013 
L 642.647347 237.579213 
L 644.815749 237.55806 
L 644.815749 238.203225 
L 648.068352 238.224378 
L 648.068352 239.017613 
L 649.152552 239.017613 
L 649.152552 239.588742 
L 650.236753 239.588742 
L 650.236753 239.155107 
L 651.320954 239.155107 
L 651.320954 239.821424 
L 652.405155 239.821424 
L 652.405155 239.567589 
L 653.489356 239.567589 
L 653.489356 239.705083 
L 655.657758 239.673354 
L 655.657758 240.445436 
L 657.82616 240.413706 
L 657.82616 240.794459 
L 661.078762 240.889647 
L 661.078762 241.344435 
L 662.162963 241.344435 
L 662.162963 240.889647 
L 663.247164 240.889647 
L 663.247164 241.249247 
L 664.331365 241.249247 
L 664.331365 241.429047 
L 667.583968 241.513659 
L 667.583968 242.031905 
L 669.75237 241.947294 
L 669.75237 241.820376 
L 671.920771 241.852105 
L 671.920771 242.275164 
L 673.004972 242.275164 
L 673.004972 242.127094 
L 674.089173 242.127094 
L 674.089173 242.687646 
L 676.257575 242.772258 
L 676.257575 242.254011 
L 677.341776 242.254011 
L 677.341776 242.507846 
L 678.425977 242.507846 
L 678.425977 242.835717 
L 679.510178 242.835717 
L 679.510178 243.121281 
L 680.594379 243.121281 
L 680.594379 242.909752 
L 682.76278 242.930905 
L 682.76278 243.417422 
L 683.846981 243.417422 
L 683.846981 243.290505 
L 684.931182 243.290505 
L 684.931182 243.427999 
L 686.015383 243.427999 
L 686.015383 243.290505 
L 688.183785 243.311658 
L 688.183785 243.068399 
L 689.267986 243.068399 
L 689.267986 243.216469 
L 690.352187 243.216469 
L 690.352187 243.565493 
L 691.436388 243.565493 
L 691.436388 243.72414 
L 693.604789 243.713563 
L 693.604789 243.851057 
L 699.025794 243.90394 
L 699.025794 244.126046 
L 700.109995 244.126046 
L 700.109995 243.893363 
L 701.194196 243.893363 
L 701.194196 244.020281 
L 702.278397 244.020281 
L 702.278397 244.252963 
L 703.362598 244.252963 
L 703.362598 243.882787 
L 704.446799 243.882787 
L 704.446799 244.189504 
L 705.530999 244.189504 
L 705.530999 244.348151 
L 708.783602 244.453916 
L 708.783602 244.126046 
L 709.867803 244.126046 
L 709.867803 244.464492 
L 710.952004 244.464492 
L 710.952004 244.126046 
L 712.036205 244.126046 
L 712.036205 244.432763 
L 714.204607 244.432763 
L 714.204607 244.623139 
L 715.288808 244.623139 
L 715.288808 244.379881 
L 717.457209 244.485645 
L 717.457209 244.697175 
L 725.046616 244.739481 
L 725.046616 244.845245 
L 726.130817 244.845245 
L 726.130817 244.961586 
L 728.299218 245.014469 
L 728.299218 244.760633 
L 730.46762 244.77121 
L 730.46762 244.993316 
L 731.551821 244.993316 
L 731.551821 244.813516 
L 734.804424 244.813516 
L 734.804424 245.035622 
L 738.057026 244.961586 
L 738.057026 244.855822 
L 739.141227 244.855822 
L 739.141227 245.046198 
L 741.309629 245.151963 
L 741.309629 244.929857 
L 742.39383 244.929857 
L 742.39383 245.09908 
L 746.730634 245.067351 
L 746.730634 245.236574 
L 747.814835 245.236574 
L 747.814835 245.067351 
L 748.899036 245.067351 
L 748.899036 245.183692 
L 754.32004 245.225998 
L 754.32004 245.395221 
L 759.741045 245.321186 
L 759.741045 245.183692 
L 760.825245 245.183692 
L 760.825245 245.342339 
L 768.414652 245.384645 
L 768.414652 245.469257 
L 773.835656 245.395221 
L 773.835656 245.352915 
L 774.919857 245.352915 
L 774.919857 245.479833 
L 786.846067 245.543292 
L 786.846067 245.617327 
L 787.930268 245.617327 
L 787.930268 245.45868 
L 790.09867 245.49041 
L 790.09867 245.659633 
L 803.109081 245.617327 
L 803.109081 245.532715 
L 804.193282 245.532715 
L 804.193282 245.701939 
L 811.782688 245.63848 
L 811.782688 245.575021 
L 819.372094 245.680786 
L 819.372094 245.701939 
L 824.793099 245.723092 
L 824.793099 245.585598 
L 826.9615 245.670209 
L 826.9615 245.701939 
L 848.645519 245.733668 
L 848.645519 245.733668 
" clip-path="url(#p2bb5616ef1)" style="fill: none; stroke: #2ca02c; stroke-width: 1.5; stroke-linecap: square"/>
   </g>
   <g id="patch_9">
    <path d="M 507.109135 257.158895 
L 507.109135 7.2 
" style="fill: none; stroke: #000000; stroke-width: 0.8; stroke-linejoin: miter; stroke-linecap: square"/>
   </g>
   <g id="patch_10">
    <path d="M 865.19952 257.158895 
L 865.19952 7.2 
" style="fill: none; stroke: #000000; stroke-width: 0.8; stroke-linejoin: miter; stroke-linecap: square"/>
   </g>
   <g id="patch_11">
    <path d="M 507.109135 257.158895 
L 865.19952 257.158895 
" style="fill: none; stroke: #000000; stroke-width: 0.8; stroke-linejoin: miter; stroke-linecap: square"/>
   </g>
   <g id="patch_12">
    <path d="M 507.109135 7.2 
L 865.19952 7.2 
" style="fill: none; stroke: #000000; stroke-width: 0.8; stroke-linejoin: miter; stroke-linecap: square"/>
   </g>
   <g id="legend_2">
    <g id="patch_13">
     <path d="M 789.641707 59.234375 
L 858.19952 59.234375 
Q 860.19952 59.234375 860.19952 57.234375 
L 860.19952 14.2 
Q 860.19952 12.2 858.19952 12.2 
L 789.641707 12.2 
Q 787.641707 12.2 787.641707 14.2 
L 787.641707 57.234375 
Q 787.641707 59.234375 789.641707 59.234375 
z
" style="fill: #ffffff; opacity: 0.8; stroke: #cccccc; stroke-linejoin: miter"/>
    </g>
    <g id="line2d_39">
     <path d="M 791.641707 20.298437 
L 791.641707 20.298437 
L 801.641707 20.298437 
L 801.641707 20.298437 
L 811.641707 20.298437 
" style="fill: none; stroke: #1f77b4; stroke-width: 1.5; stroke-linecap: square"/>
    </g>
    <g id="text_37">
     <!-- pulse:0 -->
     <g transform="translate(819.641707 23.798437) scale(0.1 -0.1)">
      <use xlink:href="#DejaVuSans-70"/>
      <use xlink:href="#DejaVuSans-75" transform="translate(63.476562 0)"/>
      <use xlink:href="#DejaVuSans-6c" transform="translate(126.855469 0)"/>
      <use xlink:href="#DejaVuSans-73" transform="translate(154.638672 0)"/>
      <use xlink:href="#DejaVuSans-65" transform="translate(206.738281 0)"/>
      <use xlink:href="#DejaVuSans-3a" transform="translate(268.261719 0)"/>
      <use xlink:href="#DejaVuSans-30" transform="translate(301.953125 0)"/>
     </g>
    </g>
    <g id="line2d_40">
     <path d="M 791.641707 34.976562 
L 791.641707 34.976562 
L 801.641707 34.976562 
L 801.641707 34.976562 
L 811.641707 34.976562 
" style="fill: none; stroke: #ff7f0e; stroke-width: 1.5; stroke-linecap: square"/>
    </g>
    <g id="text_38">
     <!-- pulse:1 -->
     <g transform="translate(819.641707 38.476562) scale(0.1 -0.1)">
      <use xlink:href="#DejaVuSans-70"/>
      <use xlink:href="#DejaVuSans-75" transform="translate(63.476562 0)"/>
      <use xlink:href="#DejaVuSans-6c" transform="translate(126.855469 0)"/>
      <use xlink:href="#DejaVuSans-73" transform="translate(154.638672 0)"/>
      <use xlink:href="#DejaVuSans-65" transform="translate(206.738281 0)"/>
      <use xlink:href="#DejaVuSans-3a" transform="translate(268.261719 0)"/>
      <use xlink:href="#DejaVuSans-31" transform="translate(301.953125 0)"/>
     </g>
    </g>
    <g id="line2d_41">
     <path d="M 791.641707 49.654687 
L 791.641707 49.654687 
L 801.641707 49.654687 
L 801.641707 49.654687 
L 811.641707 49.654687 
" style="fill: none; stroke: #2ca02c; stroke-width: 1.5; stroke-linecap: square"/>
    </g>
    <g id="text_39">
     <!-- pulse:2 -->
     <g transform="translate(819.641707 53.154687) scale(0.1 -0.1)">
      <use xlink:href="#DejaVuSans-70"/>
      <use xlink:href="#DejaVuSans-75" transform="translate(63.476562 0)"/>
      <use xlink:href="#DejaVuSans-6c" transform="translate(126.855469 0)"/>
      <use xlink:href="#DejaVuSans-73" transform="translate(154.638672 0)"/>
      <use xlink:href="#DejaVuSans-65" transform="translate(206.738281 0)"/>
      <use xlink:href="#DejaVuSans-3a" transform="translate(268.261719 0)"/>
      <use xlink:href="#DejaVuSans-32" transform="translate(301.953125 0)"/>
     </g>
    </g>
   </g>
  </g>
 </g>
 <defs>
  <clipPath id="p09847d0729">
   <rect x="53.328125" y="7.2" width="358.090385" height="249.958895"/>
  </clipPath>
  <clipPath id="p2bb5616ef1">
   <rect x="507.109135" y="7.2" width="358.090385" height="249.958895"/>
  </clipPath>
 </defs>
</svg>
