<?xml version="1.0" encoding="utf-8" standalone="no"?>
<!DOCTYPE svg PUBLIC "-//W3C//DTD SVG 1.1//EN"
  "http://www.w3.org/Graphics/SVG/1.1/DTD/svg11.dtd">
<svg xmlns:xlink="http://www.w3.org/1999/xlink" width="872.39952pt" height="296.39952pt" viewBox="0 0 872.39952 296.39952" xmlns="http://www.w3.org/2000/svg" version="1.1">
 <metadata>
  <rdf:RDF xmlns:dc="http://purl.org/dc/elements/1.1/" xmlns:cc="http://creativecommons.org/ns#" xmlns:rdf="http://www.w3.org/1999/02/22-rdf-syntax-ns#">
   <cc:Work>
    <dc:type rdf:resource="http://purl.org/dc/dcmitype/StillImage"/>
    <dc:date>2025-11-19T10:11:30.208258</dc:date>
    <dc:format>image/svg+xml</dc:format>
    <dc:creator>
     <cc:Agent>
      <dc:title>Matplotlib v3.10.7, https://matplotlib.org/</dc:title>
     </cc:Agent>
    </dc:creator>
   </cc:Work>
  </rdf:RDF>
 </metadata>
 <defs>
  <style type="text/css">*{stroke-linejoin: round; stroke-linecap: butt}</style>
 </defs>
 <g id="figure_1">
  <g id="patch_1">
   <path d="M 0 296.39952 
L 872.39952 296.39952 
L 872.39952 0 
L 0 0 
z
" style="fill: #ffffff"/>
  </g>
  <g id="axes_1">
   <g id="patch_2">
    <path d="M 53.328125 257.158895 
L 414.59976 257.158895 
L 414.59976 7.2 
L 53.328125 7.2 
z
" style="fill: #ffffff"/>
   </g>
   <g id="matplotlib.axis_1">
    <g id="xtick_1">
     <g id="line2d_1">
      <defs>
       <path id="m6324a35277" d="M 0 0 
L 0 3.5 
" style="stroke: #000000; stroke-width: 0.8"/>
      </defs>
      <g>
       <use xlink:href="#m6324a35277" x="69.655348" y="257.158895" style="stroke: #000000; stroke-width: 0.8"/>
      </g>
     </g>
     <g id="text_1">
      <!-- 0 -->
      <g transform="translate(66.474098 271.757332) scale(0.1 -0.1)">
       <defs>
        <path id="DejaVuSans-30" d="M 2034 4250 
Q 1547 4250 1301 3770 
Q 1056 3291 1056 2328 
Q 1056 1369 1301 889 
Q 1547 409 2034 409 
Q 2525 409 2770 889 
Q 3016 1369 3016 2328 
Q 3016 3291 2770 3770 
Q 2525 4250 2034 4250 
z
M 2034 4750 
Q 2819 4750 3233 4129 
Q 3647 3509 3647 2328 
Q 3647 1150 3233 529 
Q 2819 -91 2034 -91 
Q 1250 -91 836 529 
Q 422 1150 422 2328 
Q 422 3509 836 4129 
Q 1250 4750 2034 4750 
z
" transform="scale(0.015625)"/>
       </defs>
       <use xlink:href="#DejaVuSans-30"/>
      </g>
     </g>
    </g>
    <g id="xtick_2">
     <g id="line2d_2">
      <g>
       <use xlink:href="#m6324a35277" x="124.418237" y="257.158895" style="stroke: #000000; stroke-width: 0.8"/>
      </g>
     </g>
     <g id="text_2">
      <!-- 1000 -->
      <g transform="translate(111.693237 271.757332) scale(0.1 -0.1)">
       <defs>
        <path id="DejaVuSans-31" d="M 794 531 
L 1825 531 
L 1825 4091 
L 703 3866 
L 703 4441 
L 1819 4666 
L 2450 4666 
L 2450 531 
L 3481 531 
L 3481 0 
L 794 0 
L 794 531 
z
" transform="scale(0.015625)"/>
       </defs>
       <use xlink:href="#DejaVuSans-31"/>
       <use xlink:href="#DejaVuSans-30" transform="translate(63.623047 0)"/>
       <use xlink:href="#DejaVuSans-30" transform="translate(127.246094 0)"/>
       <use xlink:href="#DejaVuSans-30" transform="translate(190.869141 0)"/>
      </g>
     </g>
    </g>
    <g id="xtick_3">
     <g id="line2d_3">
      <g>
       <use xlink:href="#m6324a35277" x="179.181126" y="257.158895" style="stroke: #000000; stroke-width: 0.8"/>
      </g>
     </g>
     <g id="text_3">
      <!-- 2000 -->
      <g transform="translate(166.456126 271.757332) scale(0.1 -0.1)">
       <defs>
        <path id="DejaVuSans-32" d="M 1228 531 
L 3431 531 
L 3431 0 
L 469 0 
L 469 531 
Q 828 903 1448 1529 
Q 2069 2156 2228 2338 
Q 2531 2678 2651 2914 
Q 2772 3150 2772 3378 
Q 2772 3750 2511 3984 
Q 2250 4219 1831 4219 
Q 1534 4219 1204 4116 
Q 875 4013 500 3803 
L 500 4441 
Q 881 4594 1212 4672 
Q 1544 4750 1819 4750 
Q 2544 4750 2975 4387 
Q 3406 4025 3406 3419 
Q 3406 3131 3298 2873 
Q 3191 2616 2906 2266 
Q 2828 2175 2409 1742 
Q 1991 1309 1228 531 
z
" transform="scale(0.015625)"/>
       </defs>
       <use xlink:href="#DejaVuSans-32"/>
       <use xlink:href="#DejaVuSans-30" transform="translate(63.623047 0)"/>
       <use xlink:href="#DejaVuSans-30" transform="translate(127.246094 0)"/>
       <use xlink:href="#DejaVuSans-30" transform="translate(190.869141 0)"/>
      </g>
     </g>
    </g>
    <g id="xtick_4">
     <g id="line2d_4">
      <g>
       <use xlink:href="#m6324a35277" x="233.944016" y="257.158895" style="stroke: #000000; stroke-width: 0.8"/>
      </g>
     </g>
     <g id="text_4">
      <!-- 3000 -->
      <g transform="translate(221.219016 271.757332) scale(0.1 -0.1)">
       <defs>
        <path id="DejaVuSans-33" d="M 2597 2516 
Q 3050 2419 3304 2112 
Q 3559 1806 3559 1356 
Q 3559 666 3084 287 
Q 2609 -91 1734 -91 
Q 1441 -91 1130 -33 
Q 819 25 488 141 
L 488 750 
Q 750 597 1062 519 
Q 1375 441 1716 441 
Q 2309 441 2620 675 
Q 2931 909 2931 1356 
Q 2931 1769 2642 2001 
Q 2353 2234 1838 2234 
L 1294 2234 
L 1294 2753 
L 1863 2753 
Q 2328 2753 2575 2939 
Q 2822 3125 2822 3475 
Q 2822 3834 2567 4026 
Q 2313 4219 1838 4219 
Q 1578 4219 1281 4162 
Q 984 4106 628 3988 
L 628 4550 
Q 988 4650 1302 4700 
Q 1616 4750 1894 4750 
Q 2613 4750 3031 4423 
Q 3450 4097 3450 3541 
Q 3450 3153 3228 2886 
Q 3006 2619 2597 2516 
z
" transform="scale(0.015625)"/>
       </defs>
       <use xlink:href="#DejaVuSans-33"/>
       <use xlink:href="#DejaVuSans-30" transform="translate(63.623047 0)"/>
       <use xlink:href="#DejaVuSans-30" transform="translate(127.246094 0)"/>
       <use xlink:href="#DejaVuSans-30" transform="translate(190.869141 0)"/>
      </g>
     </g>
    </g>
    <g id="xtick_5">
     <g id="line2d_5">
      <g>
       <use xlink:href="#m6324a35277" x="288.706905" y="257.158895" style="stroke: #000000; stroke-width: 0.8"/>
      </g>
     </g>
     <g id="text_5">
      <!-- 4000 -->
      <g transform="translate(275.981905 271.757332) scale(0.1 -0.1)">
       <defs>
        <path id="DejaVuSans-34" d="M 2419 4116 
L 825 1625 
L 2419 1625 
L 2419 4116 
z
M 2253 4666 
L 3047 4666 
L 3047 1625 
L 3713 1625 
L 3713 1100 
L 3047 1100 
L 3047 0 
L 2419 0 
L 2419 1100 
L 313 1100 
L 313 1709 
L 2253 4666 
z
" transform="scale(0.015625)"/>
       </defs>
       <use xlink:href="#DejaVuSans-34"/>
       <use xlink:href="#DejaVuSans-30" transform="translate(63.623047 0)"/>
       <use xlink:href="#DejaVuSans-30" transform="translate(127.246094 0)"/>
       <use xlink:href="#DejaVuSans-30" transform="translate(190.869141 0)"/>
      </g>
     </g>
    </g>
    <g id="xtick_6">
     <g id="line2d_6">
      <g>
       <use xlink:href="#m6324a35277" x="343.469794" y="257.158895" style="stroke: #000000; stroke-width: 0.8"/>
      </g>
     </g>
     <g id="text_6">
      <!-- 5000 -->
      <g transform="translate(330.744794 271.757332) scale(0.1 -0.1)">
       <defs>
        <path id="DejaVuSans-35" d="M 691 4666 
L 3169 4666 
L 3169 4134 
L 1269 4134 
L 1269 2991 
Q 1406 3038 1543 3061 
Q 1681 3084 1819 3084 
Q 2600 3084 3056 2656 
Q 3513 2228 3513 1497 
Q 3513 744 3044 326 
Q 2575 -91 1722 -91 
Q 1428 -91 1123 -41 
Q 819 9 494 109 
L 494 744 
Q 775 591 1075 516 
Q 1375 441 1709 441 
Q 2250 441 2565 725 
Q 2881 1009 2881 1497 
Q 2881 1984 2565 2268 
Q 2250 2553 1709 2553 
Q 1456 2553 1204 2497 
Q 953 2441 691 2322 
L 691 4666 
z
" transform="scale(0.015625)"/>
       </defs>
       <use xlink:href="#DejaVuSans-35"/>
       <use xlink:href="#DejaVuSans-30" transform="translate(63.623047 0)"/>
       <use xlink:href="#DejaVuSans-30" transform="translate(127.246094 0)"/>
       <use xlink:href="#DejaVuSans-30" transform="translate(190.869141 0)"/>
      </g>
     </g>
    </g>
    <g id="xtick_7">
     <g id="line2d_7">
      <g>
       <use xlink:href="#m6324a35277" x="398.232684" y="257.158895" style="stroke: #000000; stroke-width: 0.8"/>
      </g>
     </g>
     <g id="text_7">
      <!-- 6000 -->
      <g transform="translate(385.507684 271.757332) scale(0.1 -0.1)">
       <defs>
        <path id="DejaVuSans-36" d="M 2113 2584 
Q 1688 2584 1439 2293 
Q 1191 2003 1191 1497 
Q 1191 994 1439 701 
Q 1688 409 2113 409 
Q 2538 409 2786 701 
Q 3034 994 3034 1497 
Q 3034 2003 2786 2293 
Q 2538 2584 2113 2584 
z
M 3366 4563 
L 3366 3988 
Q 3128 4100 2886 4159 
Q 2644 4219 2406 4219 
Q 1781 4219 1451 3797 
Q 1122 3375 1075 2522 
Q 1259 2794 1537 2939 
Q 1816 3084 2150 3084 
Q 2853 3084 3261 2657 
Q 3669 2231 3669 1497 
Q 3669 778 3244 343 
Q 2819 -91 2113 -91 
Q 1303 -91 875 529 
Q 447 1150 447 2328 
Q 447 3434 972 4092 
Q 1497 4750 2381 4750 
Q 2619 4750 2861 4703 
Q 3103 4656 3366 4563 
z
" transform="scale(0.015625)"/>
       </defs>
       <use xlink:href="#DejaVuSans-36"/>
       <use xlink:href="#DejaVuSans-30" transform="translate(63.623047 0)"/>
       <use xlink:href="#DejaVuSans-30" transform="translate(127.246094 0)"/>
       <use xlink:href="#DejaVuSans-30" transform="translate(190.869141 0)"/>
      </g>
     </g>
    </g>
    <g id="text_8">
     <!-- birth_time [µs] -->
     <g transform="translate(197.14363 285.435457) scale(0.1 -0.1)">
      <defs>
       <path id="DejaVuSans-62" d="M 3116 1747 
Q 3116 2381 2855 2742 
Q 2594 3103 2138 3103 
Q 1681 3103 1420 2742 
Q 1159 2381 1159 1747 
Q 1159 1113 1420 752 
Q 1681 391 2138 391 
Q 2594 391 2855 752 
Q 3116 1113 3116 1747 
z
M 1159 2969 
Q 1341 3281 1617 3432 
Q 1894 3584 2278 3584 
Q 2916 3584 3314 3078 
Q 3713 2572 3713 1747 
Q 3713 922 3314 415 
Q 2916 -91 2278 -91 
Q 1894 -91 1617 61 
Q 1341 213 1159 525 
L 1159 0 
L 581 0 
L 581 4863 
L 1159 4863 
L 1159 2969 
z
" transform="scale(0.015625)"/>
       <path id="DejaVuSans-69" d="M 603 3500 
L 1178 3500 
L 1178 0 
L 603 0 
L 603 3500 
z
M 603 4863 
L 1178 4863 
L 1178 4134 
L 603 4134 
L 603 4863 
z
" transform="scale(0.015625)"/>
       <path id="DejaVuSans-72" d="M 2631 2963 
Q 2534 3019 2420 3045 
Q 2306 3072 2169 3072 
Q 1681 3072 1420 2755 
Q 1159 2438 1159 1844 
L 1159 0 
L 581 0 
L 581 3500 
L 1159 3500 
L 1159 2956 
Q 1341 3275 1631 3429 
Q 1922 3584 2338 3584 
Q 2397 3584 2469 3576 
Q 2541 3569 2628 3553 
L 2631 2963 
z
" transform="scale(0.015625)"/>
       <path id="DejaVuSans-74" d="M 1172 4494 
L 1172 3500 
L 2356 3500 
L 2356 3053 
L 1172 3053 
L 1172 1153 
Q 1172 725 1289 603 
Q 1406 481 1766 481 
L 2356 481 
L 2356 0 
L 1766 0 
Q 1100 0 847 248 
Q 594 497 594 1153 
L 594 3053 
L 172 3053 
L 172 3500 
L 594 3500 
L 594 4494 
L 1172 4494 
z
" transform="scale(0.015625)"/>
       <path id="DejaVuSans-68" d="M 3513 2113 
L 3513 0 
L 2938 0 
L 2938 2094 
Q 2938 2591 2744 2837 
Q 2550 3084 2163 3084 
Q 1697 3084 1428 2787 
Q 1159 2491 1159 1978 
L 1159 0 
L 581 0 
L 581 4863 
L 1159 4863 
L 1159 2956 
Q 1366 3272 1645 3428 
Q 1925 3584 2291 3584 
Q 2894 3584 3203 3211 
Q 3513 2838 3513 2113 
z
" transform="scale(0.015625)"/>
       <path id="DejaVuSans-5f" d="M 3263 -1063 
L 3263 -1509 
L -63 -1509 
L -63 -1063 
L 3263 -1063 
z
" transform="scale(0.015625)"/>
       <path id="DejaVuSans-6d" d="M 3328 2828 
Q 3544 3216 3844 3400 
Q 4144 3584 4550 3584 
Q 5097 3584 5394 3201 
Q 5691 2819 5691 2113 
L 5691 0 
L 5113 0 
L 5113 2094 
Q 5113 2597 4934 2840 
Q 4756 3084 4391 3084 
Q 3944 3084 3684 2787 
Q 3425 2491 3425 1978 
L 3425 0 
L 2847 0 
L 2847 2094 
Q 2847 2600 2669 2842 
Q 2491 3084 2119 3084 
Q 1678 3084 1418 2786 
Q 1159 2488 1159 1978 
L 1159 0 
L 581 0 
L 581 3500 
L 1159 3500 
L 1159 2956 
Q 1356 3278 1631 3431 
Q 1906 3584 2284 3584 
Q 2666 3584 2933 3390 
Q 3200 3197 3328 2828 
z
" transform="scale(0.015625)"/>
       <path id="DejaVuSans-65" d="M 3597 1894 
L 3597 1613 
L 953 1613 
Q 991 1019 1311 708 
Q 1631 397 2203 397 
Q 2534 397 2845 478 
Q 3156 559 3463 722 
L 3463 178 
Q 3153 47 2828 -22 
Q 2503 -91 2169 -91 
Q 1331 -91 842 396 
Q 353 884 353 1716 
Q 353 2575 817 3079 
Q 1281 3584 2069 3584 
Q 2775 3584 3186 3129 
Q 3597 2675 3597 1894 
z
M 3022 2063 
Q 3016 2534 2758 2815 
Q 2500 3097 2075 3097 
Q 1594 3097 1305 2825 
Q 1016 2553 972 2059 
L 3022 2063 
z
" transform="scale(0.015625)"/>
       <path id="DejaVuSans-20" transform="scale(0.015625)"/>
       <path id="DejaVuSans-5b" d="M 550 4863 
L 1875 4863 
L 1875 4416 
L 1125 4416 
L 1125 -397 
L 1875 -397 
L 1875 -844 
L 550 -844 
L 550 4863 
z
" transform="scale(0.015625)"/>
       <path id="DejaVuSans-b5" d="M 544 -1331 
L 544 3500 
L 1119 3500 
L 1119 1325 
Q 1119 872 1334 640 
Q 1550 409 1972 409 
Q 2434 409 2667 671 
Q 2900 934 2900 1459 
L 2900 3500 
L 3475 3500 
L 3475 806 
Q 3475 619 3529 530 
Q 3584 441 3700 441 
Q 3728 441 3778 458 
Q 3828 475 3916 513 
L 3916 50 
Q 3788 -22 3673 -56 
Q 3559 -91 3450 -91 
Q 3234 -91 3106 31 
Q 2978 153 2931 403 
Q 2775 156 2548 32 
Q 2322 -91 2016 -91 
Q 1697 -91 1473 31 
Q 1250 153 1119 397 
L 1119 -1331 
L 544 -1331 
z
" transform="scale(0.015625)"/>
       <path id="DejaVuSans-73" d="M 2834 3397 
L 2834 2853 
Q 2591 2978 2328 3040 
Q 2066 3103 1784 3103 
Q 1356 3103 1142 2972 
Q 928 2841 928 2578 
Q 928 2378 1081 2264 
Q 1234 2150 1697 2047 
L 1894 2003 
Q 2506 1872 2764 1633 
Q 3022 1394 3022 966 
Q 3022 478 2636 193 
Q 2250 -91 1575 -91 
Q 1294 -91 989 -36 
Q 684 19 347 128 
L 347 722 
Q 666 556 975 473 
Q 1284 391 1588 391 
Q 1994 391 2212 530 
Q 2431 669 2431 922 
Q 2431 1156 2273 1281 
Q 2116 1406 1581 1522 
L 1381 1569 
Q 847 1681 609 1914 
Q 372 2147 372 2553 
Q 372 3047 722 3315 
Q 1072 3584 1716 3584 
Q 2034 3584 2315 3537 
Q 2597 3491 2834 3397 
z
" transform="scale(0.015625)"/>
       <path id="DejaVuSans-5d" d="M 1947 4863 
L 1947 -844 
L 622 -844 
L 622 -397 
L 1369 -397 
L 1369 4416 
L 622 4416 
L 622 4863 
L 1947 4863 
z
" transform="scale(0.015625)"/>
      </defs>
      <use xlink:href="#DejaVuSans-62"/>
      <use xlink:href="#DejaVuSans-69" transform="translate(63.476562 0)"/>
      <use xlink:href="#DejaVuSans-72" transform="translate(91.259766 0)"/>
      <use xlink:href="#DejaVuSans-74" transform="translate(132.373047 0)"/>
      <use xlink:href="#DejaVuSans-68" transform="translate(171.582031 0)"/>
      <use xlink:href="#DejaVuSans-5f" transform="translate(234.960938 0)"/>
      <use xlink:href="#DejaVuSans-74" transform="translate(284.960938 0)"/>
      <use xlink:href="#DejaVuSans-69" transform="translate(324.169922 0)"/>
      <use xlink:href="#DejaVuSans-6d" transform="translate(351.953125 0)"/>
      <use xlink:href="#DejaVuSans-65" transform="translate(449.365234 0)"/>
      <use xlink:href="#DejaVuSans-20" transform="translate(510.888672 0)"/>
      <use xlink:href="#DejaVuSans-5b" transform="translate(542.675781 0)"/>
      <use xlink:href="#DejaVuSans-b5" transform="translate(581.689453 0)"/>
      <use xlink:href="#DejaVuSans-73" transform="translate(645.3125 0)"/>
      <use xlink:href="#DejaVuSans-5d" transform="translate(697.412109 0)"/>
     </g>
    </g>
   </g>
   <g id="matplotlib.axis_2">
    <g id="ytick_1">
     <g id="line2d_8">
      <defs>
       <path id="m1295aeafed" d="M 0 0 
L -3.5 0 
" style="stroke: #000000; stroke-width: 0.8"/>
      </defs>
      <g>
       <use xlink:href="#m1295aeafed" x="53.328125" y="246.164228" style="stroke: #000000; stroke-width: 0.8"/>
      </g>
     </g>
     <g id="text_9">
      <!-- 0 -->
      <g transform="translate(39.965625 249.963447) scale(0.1 -0.1)">
       <use xlink:href="#DejaVuSans-30"/>
      </g>
     </g>
    </g>
    <g id="ytick_2">
     <g id="line2d_9">
      <g>
       <use xlink:href="#m1295aeafed" x="53.328125" y="215.572499" style="stroke: #000000; stroke-width: 0.8"/>
      </g>
     </g>
     <g id="text_10">
      <!-- 250 -->
      <g transform="translate(27.240625 219.371718) scale(0.1 -0.1)">
       <use xlink:href="#DejaVuSans-32"/>
       <use xlink:href="#DejaVuSans-35" transform="translate(63.623047 0)"/>
       <use xlink:href="#DejaVuSans-30" transform="translate(127.246094 0)"/>
      </g>
     </g>
    </g>
    <g id="ytick_3">
     <g id="line2d_10">
      <g>
       <use xlink:href="#m1295aeafed" x="53.328125" y="184.980771" style="stroke: #000000; stroke-width: 0.8"/>
      </g>
     </g>
     <g id="text_11">
      <!-- 500 -->
      <g transform="translate(27.240625 188.77999) scale(0.1 -0.1)">
       <use xlink:href="#DejaVuSans-35"/>
       <use xlink:href="#DejaVuSans-30" transform="translate(63.623047 0)"/>
       <use xlink:href="#DejaVuSans-30" transform="translate(127.246094 0)"/>
      </g>
     </g>
    </g>
    <g id="ytick_4">
     <g id="line2d_11">
      <g>
       <use xlink:href="#m1295aeafed" x="53.328125" y="154.389042" style="stroke: #000000; stroke-width: 0.8"/>
      </g>
     </g>
     <g id="text_12">
      <!-- 750 -->
      <g transform="translate(27.240625 158.188261) scale(0.1 -0.1)">
       <defs>
        <path id="DejaVuSans-37" d="M 525 4666 
L 3525 4666 
L 3525 4397 
L 1831 0 
L 1172 0 
L 2766 4134 
L 525 4134 
L 525 4666 
z
" transform="scale(0.015625)"/>
       </defs>
       <use xlink:href="#DejaVuSans-37"/>
       <use xlink:href="#DejaVuSans-35" transform="translate(63.623047 0)"/>
       <use xlink:href="#DejaVuSans-30" transform="translate(127.246094 0)"/>
      </g>
     </g>
    </g>
    <g id="ytick_5">
     <g id="line2d_12">
      <g>
       <use xlink:href="#m1295aeafed" x="53.328125" y="123.797314" style="stroke: #000000; stroke-width: 0.8"/>
      </g>
     </g>
     <g id="text_13">
      <!-- 1000 -->
      <g transform="translate(20.878125 127.596533) scale(0.1 -0.1)">
       <use xlink:href="#DejaVuSans-31"/>
       <use xlink:href="#DejaVuSans-30" transform="translate(63.623047 0)"/>
       <use xlink:href="#DejaVuSans-30" transform="translate(127.246094 0)"/>
       <use xlink:href="#DejaVuSans-30" transform="translate(190.869141 0)"/>
      </g>
     </g>
    </g>
    <g id="ytick_6">
     <g id="line2d_13">
      <g>
       <use xlink:href="#m1295aeafed" x="53.328125" y="93.205585" style="stroke: #000000; stroke-width: 0.8"/>
      </g>
     </g>
     <g id="text_14">
      <!-- 1250 -->
      <g transform="translate(20.878125 97.004804) scale(0.1 -0.1)">
       <use xlink:href="#DejaVuSans-31"/>
       <use xlink:href="#DejaVuSans-32" transform="translate(63.623047 0)"/>
       <use xlink:href="#DejaVuSans-35" transform="translate(127.246094 0)"/>
       <use xlink:href="#DejaVuSans-30" transform="translate(190.869141 0)"/>
      </g>
     </g>
    </g>
    <g id="ytick_7">
     <g id="line2d_14">
      <g>
       <use xlink:href="#m1295aeafed" x="53.328125" y="62.613857" style="stroke: #000000; stroke-width: 0.8"/>
      </g>
     </g>
     <g id="text_15">
      <!-- 1500 -->
      <g transform="translate(20.878125 66.413076) scale(0.1 -0.1)">
       <use xlink:href="#DejaVuSans-31"/>
       <use xlink:href="#DejaVuSans-35" transform="translate(63.623047 0)"/>
       <use xlink:href="#DejaVuSans-30" transform="translate(127.246094 0)"/>
       <use xlink:href="#DejaVuSans-30" transform="translate(190.869141 0)"/>
      </g>
     </g>
    </g>
    <g id="ytick_8">
     <g id="line2d_15">
      <g>
       <use xlink:href="#m1295aeafed" x="53.328125" y="32.022128" style="stroke: #000000; stroke-width: 0.8"/>
      </g>
     </g>
     <g id="text_16">
      <!-- 1750 -->
      <g transform="translate(20.878125 35.821347) scale(0.1 -0.1)">
       <use xlink:href="#DejaVuSans-31"/>
       <use xlink:href="#DejaVuSans-37" transform="translate(63.623047 0)"/>
       <use xlink:href="#DejaVuSans-35" transform="translate(127.246094 0)"/>
       <use xlink:href="#DejaVuSans-30" transform="translate(190.869141 0)"/>
      </g>
     </g>
    </g>
    <g id="text_17">
     <!-- pulse:0 [counts] -->
     <g transform="translate(14.798438 172.659916) rotate(-90) scale(0.1 -0.1)">
      <defs>
       <path id="DejaVuSans-70" d="M 1159 525 
L 1159 -1331 
L 581 -1331 
L 581 3500 
L 1159 3500 
L 1159 2969 
Q 1341 3281 1617 3432 
Q 1894 3584 2278 3584 
Q 2916 3584 3314 3078 
Q 3713 2572 3713 1747 
Q 3713 922 3314 415 
Q 2916 -91 2278 -91 
Q 1894 -91 1617 61 
Q 1341 213 1159 525 
z
M 3116 1747 
Q 3116 2381 2855 2742 
Q 2594 3103 2138 3103 
Q 1681 3103 1420 2742 
Q 1159 2381 1159 1747 
Q 1159 1113 1420 752 
Q 1681 391 2138 391 
Q 2594 391 2855 752 
Q 3116 1113 3116 1747 
z
" transform="scale(0.015625)"/>
       <path id="DejaVuSans-75" d="M 544 1381 
L 544 3500 
L 1119 3500 
L 1119 1403 
Q 1119 906 1312 657 
Q 1506 409 1894 409 
Q 2359 409 2629 706 
Q 2900 1003 2900 1516 
L 2900 3500 
L 3475 3500 
L 3475 0 
L 2900 0 
L 2900 538 
Q 2691 219 2414 64 
Q 2138 -91 1772 -91 
Q 1169 -91 856 284 
Q 544 659 544 1381 
z
M 1991 3584 
L 1991 3584 
z
" transform="scale(0.015625)"/>
       <path id="DejaVuSans-6c" d="M 603 4863 
L 1178 4863 
L 1178 0 
L 603 0 
L 603 4863 
z
" transform="scale(0.015625)"/>
       <path id="DejaVuSans-3a" d="M 750 794 
L 1409 794 
L 1409 0 
L 750 0 
L 750 794 
z
M 750 3309 
L 1409 3309 
L 1409 2516 
L 750 2516 
L 750 3309 
z
" transform="scale(0.015625)"/>
       <path id="DejaVuSans-63" d="M 3122 3366 
L 3122 2828 
Q 2878 2963 2633 3030 
Q 2388 3097 2138 3097 
Q 1578 3097 1268 2742 
Q 959 2388 959 1747 
Q 959 1106 1268 751 
Q 1578 397 2138 397 
Q 2388 397 2633 464 
Q 2878 531 3122 666 
L 3122 134 
Q 2881 22 2623 -34 
Q 2366 -91 2075 -91 
Q 1284 -91 818 406 
Q 353 903 353 1747 
Q 353 2603 823 3093 
Q 1294 3584 2113 3584 
Q 2378 3584 2631 3529 
Q 2884 3475 3122 3366 
z
" transform="scale(0.015625)"/>
       <path id="DejaVuSans-6f" d="M 1959 3097 
Q 1497 3097 1228 2736 
Q 959 2375 959 1747 
Q 959 1119 1226 758 
Q 1494 397 1959 397 
Q 2419 397 2687 759 
Q 2956 1122 2956 1747 
Q 2956 2369 2687 2733 
Q 2419 3097 1959 3097 
z
M 1959 3584 
Q 2709 3584 3137 3096 
Q 3566 2609 3566 1747 
Q 3566 888 3137 398 
Q 2709 -91 1959 -91 
Q 1206 -91 779 398 
Q 353 888 353 1747 
Q 353 2609 779 3096 
Q 1206 3584 1959 3584 
z
" transform="scale(0.015625)"/>
       <path id="DejaVuSans-6e" d="M 3513 2113 
L 3513 0 
L 2938 0 
L 2938 2094 
Q 2938 2591 2744 2837 
Q 2550 3084 2163 3084 
Q 1697 3084 1428 2787 
Q 1159 2491 1159 1978 
L 1159 0 
L 581 0 
L 581 3500 
L 1159 3500 
L 1159 2956 
Q 1366 3272 1645 3428 
Q 1925 3584 2291 3584 
Q 2894 3584 3203 3211 
Q 3513 2838 3513 2113 
z
" transform="scale(0.015625)"/>
      </defs>
      <use xlink:href="#DejaVuSans-70"/>
      <use xlink:href="#DejaVuSans-75" transform="translate(63.476562 0)"/>
      <use xlink:href="#DejaVuSans-6c" transform="translate(126.855469 0)"/>
      <use xlink:href="#DejaVuSans-73" transform="translate(154.638672 0)"/>
      <use xlink:href="#DejaVuSans-65" transform="translate(206.738281 0)"/>
      <use xlink:href="#DejaVuSans-3a" transform="translate(268.261719 0)"/>
      <use xlink:href="#DejaVuSans-30" transform="translate(301.953125 0)"/>
      <use xlink:href="#DejaVuSans-20" transform="translate(365.576172 0)"/>
      <use xlink:href="#DejaVuSans-5b" transform="translate(397.363281 0)"/>
      <use xlink:href="#DejaVuSans-63" transform="translate(436.376953 0)"/>
      <use xlink:href="#DejaVuSans-6f" transform="translate(491.357422 0)"/>
      <use xlink:href="#DejaVuSans-75" transform="translate(552.539062 0)"/>
      <use xlink:href="#DejaVuSans-6e" transform="translate(615.917969 0)"/>
      <use xlink:href="#DejaVuSans-74" transform="translate(679.296875 0)"/>
      <use xlink:href="#DejaVuSans-73" transform="translate(718.505859 0)"/>
      <use xlink:href="#DejaVuSans-5d" transform="translate(770.605469 0)"/>
     </g>
    </g>
   </g>
   <g id="line2d_16">
    <path d="M 69.749563 245.797127 
L 70.844325 245.797127 
L 70.844325 245.67476 
L 71.939088 245.67476 
L 71.939088 244.940559 
L 73.033851 244.940559 
L 73.033851 244.818192 
L 75.223376 244.818192 
L 75.223376 245.67476 
L 76.318138 245.67476 
L 76.318138 244.695825 
L 77.412901 244.695825 
L 77.412901 245.062926 
L 78.507663 245.062926 
L 78.507663 244.695825 
L 79.602426 244.695825 
L 79.602426 245.062926 
L 80.697188 245.062926 
L 80.697188 244.818192 
L 82.886713 244.818192 
L 82.886713 244.695825 
L 83.981476 244.695825 
L 83.981476 243.71689 
L 85.076238 243.71689 
L 85.076238 243.961623 
L 87.265763 243.961623 
L 87.265763 243.839256 
L 89.455288 243.839256 
L 89.455288 243.472156 
L 90.550051 243.472156 
L 90.550051 243.594523 
L 91.644814 243.594523 
L 91.644814 242.370853 
L 92.739576 242.370853 
L 92.739576 243.71689 
L 93.834339 243.71689 
L 93.834339 243.227422 
L 94.929101 243.227422 
L 94.929101 241.759019 
L 96.023864 241.759019 
L 96.023864 242.12612 
L 99.308151 242.12612 
L 99.308151 240.90245 
L 100.402914 240.90245 
L 100.402914 241.759019 
L 101.497676 241.759019 
L 101.497676 240.657717 
L 102.592439 240.657717 
L 102.592439 240.168249 
L 103.687201 240.168249 
L 103.687201 238.577479 
L 104.781964 238.577479 
L 104.781964 239.434048 
L 105.876726 239.434048 
L 105.876726 238.332745 
L 106.971489 238.332745 
L 106.971489 238.577479 
L 108.066252 238.577479 
L 108.066252 238.94458 
L 109.161014 238.94458 
L 109.161014 237.965645 
L 110.255777 237.965645 
L 110.255777 238.210378 
L 111.350539 238.210378 
L 111.350539 235.395939 
L 113.540064 235.395939 
L 113.540064 233.438069 
L 114.634827 233.438069 
L 114.634827 235.518306 
L 115.729589 235.518306 
L 115.729589 234.17227 
L 116.824352 234.17227 
L 116.824352 233.927536 
L 117.919114 233.927536 
L 117.919114 231.724932 
L 119.013877 231.724932 
L 119.013877 231.480198 
L 120.108639 231.480198 
L 120.108639 232.2144 
L 121.203402 232.2144 
L 121.203402 231.113097 
L 122.298164 231.113097 
L 122.298164 231.235464 
L 123.392927 231.235464 
L 123.392927 229.522327 
L 124.487689 229.522327 
L 124.487689 227.809191 
L 125.582452 227.809191 
L 125.582452 226.096054 
L 126.677215 226.096054 
L 126.677215 222.180313 
L 127.771977 222.180313 
L 127.771977 228.788126 
L 128.86674 228.788126 
L 128.86674 223.893449 
L 129.961502 223.893449 
L 129.961502 223.159248 
L 131.056265 223.159248 
L 131.056265 224.382917 
L 132.151027 224.382917 
L 132.151027 219.365874 
L 133.24579 219.365874 
L 133.24579 220.222442 
L 134.340552 220.222442 
L 134.340552 217.285636 
L 135.435315 217.285636 
L 135.435315 216.061967 
L 136.530077 216.061967 
L 136.530077 217.163269 
L 137.62484 217.163269 
L 137.62484 213.125161 
L 138.719602 213.125161 
L 138.719602 209.943621 
L 139.814365 209.943621 
L 139.814365 215.083032 
L 140.909127 215.083032 
L 140.909127 210.555456 
L 142.00389 210.555456 
L 142.00389 209.698887 
L 143.098652 209.698887 
L 143.098652 206.02788 
L 144.193415 206.02788 
L 144.193415 203.580542 
L 145.288178 203.580542 
L 145.288178 206.394981 
L 146.38294 206.394981 
L 146.38294 201.989772 
L 147.477703 201.989772 
L 147.477703 197.095095 
L 148.572465 197.095095 
L 148.572465 202.112139 
L 149.667228 202.112139 
L 149.667228 196.483261 
L 150.76199 196.483261 
L 150.76199 200.031901 
L 151.856753 200.031901 
L 151.856753 188.162311 
L 152.951515 188.162311 
L 152.951515 193.913556 
L 154.046278 193.913556 
L 154.046278 187.672843 
L 155.14104 187.672843 
L 155.14104 179.107159 
L 156.235803 179.107159 
L 156.235803 184.368936 
L 157.330565 184.368936 
L 157.330565 183.512368 
L 158.425328 183.512368 
L 158.425328 177.88349 
L 159.52009 177.88349 
L 159.52009 175.803252 
L 160.614853 175.803252 
L 160.614853 176.537454 
L 161.709615 176.537454 
L 161.709615 166.992835 
L 162.804378 166.992835 
L 162.804378 167.97177 
L 164.993903 167.97177 
L 164.993903 165.279698 
L 166.088666 165.279698 
L 166.088666 162.220525 
L 167.183428 162.220525 
L 167.183428 158.427151 
L 168.278191 158.427151 
L 168.278191 156.836381 
L 169.372953 156.836381 
L 169.372953 154.633776 
L 170.467716 154.633776 
L 170.467716 151.941704 
L 171.562478 151.941704 
L 171.562478 153.165373 
L 172.657241 153.165373 
L 172.657241 141.540516 
L 173.752003 141.540516 
L 173.752003 143.37602 
L 174.846766 143.37602 
L 174.846766 141.907617 
L 175.941528 141.907617 
L 175.941528 138.23661 
L 177.036291 138.23661 
L 177.036291 130.772228 
L 178.131053 130.772228 
L 178.131053 131.261696 
L 179.225816 131.261696 
L 179.225816 131.506429 
L 180.320579 131.506429 
L 180.320579 131.139329 
L 181.415341 131.139329 
L 181.415341 122.696012 
L 182.510104 122.696012 
L 182.510104 123.674947 
L 183.604866 123.674947 
L 183.604866 127.590688 
L 184.699629 127.590688 
L 184.699629 117.801335 
L 185.794391 117.801335 
L 185.794391 110.45932 
L 186.889154 110.45932 
L 186.889154 108.746183 
L 187.983916 108.746183 
L 187.983916 110.214586 
L 189.078679 110.214586 
L 189.078679 101.037068 
L 190.173441 101.037068 
L 190.173441 89.167477 
L 191.268204 89.167477 
L 191.268204 103.239672 
L 192.362966 103.239672 
L 192.362966 87.08724 
L 193.457729 87.08724 
L 193.457729 92.22665 
L 194.552491 92.22665 
L 194.552491 86.475405 
L 195.647254 86.475405 
L 195.647254 88.310909 
L 196.742016 88.310909 
L 196.742016 81.703096 
L 197.836779 81.703096 
L 197.836779 80.72416 
L 198.931542 80.72416 
L 198.931542 77.54262 
L 200.026304 77.54262 
L 200.026304 72.036109 
L 201.121067 72.036109 
L 201.121067 71.791375 
L 202.215829 71.791375 
L 202.215829 69.099303 
L 203.310592 69.099303 
L 203.310592 64.816461 
L 204.405354 64.816461 
L 204.405354 57.963914 
L 205.500117 57.963914 
L 205.500117 67.508534 
L 206.594879 67.508534 
L 206.594879 49.39823 
L 207.689642 49.39823 
L 207.689642 64.204627 
L 208.784404 64.204627 
L 208.784404 62.49149 
L 209.879167 62.49149 
L 209.879167 52.824504 
L 210.973929 52.824504 
L 210.973929 47.685093 
L 212.068692 47.685093 
L 212.068692 38.874676 
L 213.163454 38.874676 
L 213.163454 43.769352 
L 214.258217 43.769352 
L 214.258217 44.25882 
L 215.352979 44.25882 
L 215.352979 49.03113 
L 216.447742 49.03113 
L 216.447742 50.132432 
L 217.542505 50.132432 
L 217.542505 27.861653 
L 218.637267 27.861653 
L 218.637267 44.625921 
L 219.73203 44.625921 
L 219.73203 35.570769 
L 220.826792 35.570769 
L 220.826792 29.330056 
L 221.921555 29.330056 
L 221.921555 26.148517 
L 223.016317 26.148517 
L 223.016317 36.672071 
L 224.11108 36.672071 
L 224.11108 33.979999 
L 225.205842 33.979999 
L 225.205842 29.207689 
L 226.300605 29.207689 
L 226.300605 31.410294 
L 227.395367 31.410294 
L 227.395367 32.511596 
L 228.49013 32.511596 
L 228.49013 18.561768 
L 229.584892 18.561768 
L 229.584892 25.903783 
L 230.679655 25.903783 
L 230.679655 30.920826 
L 231.774417 30.920826 
L 231.774417 36.30497 
L 232.86918 36.30497 
L 232.86918 21.743308 
L 233.963942 21.743308 
L 233.963942 33.368165 
L 235.058705 33.368165 
L 235.058705 29.330056 
L 236.153468 29.330056 
L 236.153468 32.878697 
L 237.24823 32.878697 
L 237.24823 34.714201 
L 238.342993 34.714201 
L 238.342993 28.595855 
L 239.437755 28.595855 
L 239.437755 33.857632 
L 240.532518 33.857632 
L 240.532518 27.494553 
L 241.62728 27.494553 
L 241.62728 35.693136 
L 242.722043 35.693136 
L 242.722043 35.203668 
L 243.816805 35.203668 
L 243.816805 23.211711 
L 244.911568 23.211711 
L 244.911568 25.414315 
L 246.00633 25.414315 
L 246.00633 34.591834 
L 247.101093 34.591834 
L 247.101093 29.819524 
L 248.195855 29.819524 
L 248.195855 39.364143 
L 249.290618 39.364143 
L 249.290618 40.465446 
L 250.38538 40.465446 
L 250.38538 40.587812 
L 251.480143 40.587812 
L 251.480143 40.465446 
L 252.574906 40.465446 
L 252.574906 44.503554 
L 253.669668 44.503554 
L 253.669668 42.66805 
L 254.764431 42.66805 
L 254.764431 50.989 
L 255.859193 50.989 
L 255.859193 48.419295 
L 256.953956 48.419295 
L 256.953956 43.402251 
L 258.048718 43.402251 
L 258.048718 53.313971 
L 259.143481 53.313971 
L 259.143481 57.107346 
L 260.238243 57.107346 
L 260.238243 57.963914 
L 261.333006 57.963914 
L 261.333006 61.023087 
L 262.427768 61.023087 
L 262.427768 60.533619 
L 263.522531 60.533619 
L 263.522531 64.204627 
L 264.617293 64.204627 
L 264.617293 74.728181 
L 265.712056 74.728181 
L 265.712056 67.753267 
L 266.806818 67.753267 
L 266.806818 70.322973 
L 267.901581 70.322973 
L 267.901581 64.449361 
L 268.996343 64.449361 
L 268.996343 77.909721 
L 270.091106 77.909721 
L 270.091106 80.234693 
L 271.185869 80.234693 
L 271.185869 82.804398 
L 272.280631 82.804398 
L 272.280631 87.331974 
L 273.375394 87.331974 
L 273.375394 91.859549 
L 274.470156 91.859549 
L 274.470156 90.268779 
L 275.564919 90.268779 
L 275.564919 95.40819 
L 276.659681 95.40819 
L 276.659681 102.383104 
L 277.754444 102.383104 
L 277.754444 96.99896 
L 278.849206 96.99896 
L 278.849206 109.602752 
L 279.943969 109.602752 
L 279.943969 112.294824 
L 281.038731 112.294824 
L 281.038731 109.725119 
L 282.133494 109.725119 
L 282.133494 108.50145 
L 283.228256 108.50145 
L 283.228256 117.556601 
L 284.323019 117.556601 
L 284.323019 107.155414 
L 285.417781 107.155414 
L 285.417781 115.721098 
L 286.512544 115.721098 
L 286.512544 126.489386 
L 287.607306 126.489386 
L 287.607306 129.426192 
L 288.702069 129.426192 
L 288.702069 127.223587 
L 289.796832 127.223587 
L 289.796832 125.999918 
L 290.891594 125.999918 
L 290.891594 139.705013 
L 291.986357 139.705013 
L 291.986357 137.747142 
L 293.081119 137.747142 
L 293.081119 137.502408 
L 294.175882 137.502408 
L 294.175882 145.211524 
L 295.270644 145.211524 
L 295.270644 147.047028 
L 296.365407 147.047028 
L 296.365407 147.414128 
L 297.460169 147.414128 
L 297.460169 152.675906 
L 298.554932 152.675906 
L 298.554932 152.431172 
L 299.649694 152.431172 
L 299.649694 156.591647 
L 300.744457 156.591647 
L 300.744457 159.528453 
L 301.839219 159.528453 
L 301.839219 160.140287 
L 302.933982 160.140287 
L 302.933982 163.811295 
L 304.028744 163.811295 
L 304.028744 167.727036 
L 305.123507 167.727036 
L 305.123507 168.705971 
L 306.218269 168.705971 
L 306.218269 168.094137 
L 307.313032 168.094137 
L 307.313032 173.355914 
L 308.407795 173.355914 
L 308.407795 174.824317 
L 309.502557 174.824317 
L 309.502557 184.858404 
L 310.59732 184.858404 
L 310.59732 186.20444 
L 311.692082 186.20444 
L 311.692082 184.491303 
L 312.786845 184.491303 
L 312.786845 180.575562 
L 313.881607 180.575562 
L 313.881607 192.689886 
L 314.97637 192.689886 
L 314.97637 189.997814 
L 316.071132 189.997814 
L 316.071132 196.850361 
L 317.165895 196.850361 
L 317.165895 192.93462 
L 318.260657 192.93462 
L 318.260657 193.301721 
L 319.35542 193.301721 
L 319.35542 196.11616 
L 320.450182 196.11616 
L 320.450182 204.314743 
L 321.544945 204.314743 
L 321.544945 200.399002 
L 322.639707 200.399002 
L 322.639707 202.968707 
L 323.73447 202.968707 
L 323.73447 207.373916 
L 324.829233 207.373916 
L 324.829233 211.534391 
L 325.923995 211.534391 
L 325.923995 210.555456 
L 327.018758 210.555456 
L 327.018758 211.16729 
L 328.11352 211.16729 
L 328.11352 208.108118 
L 329.208283 208.108118 
L 329.208283 213.002794 
L 330.303045 213.002794 
L 330.303045 220.71191 
L 331.397808 220.71191 
L 331.397808 216.673802 
L 332.49257 216.673802 
L 332.49257 216.551435 
L 333.587333 216.551435 
L 333.587333 218.264571 
L 334.682095 218.264571 
L 334.682095 220.834277 
L 335.776858 220.834277 
L 335.776858 221.446111 
L 336.87162 221.446111 
L 336.87162 224.26055 
L 337.966383 224.26055 
L 337.966383 219.855341 
L 339.061145 219.855341 
L 339.061145 224.872385 
L 340.155908 224.872385 
L 340.155908 223.403982 
L 341.25067 223.403982 
L 341.25067 226.340788 
L 342.345433 226.340788 
L 342.345433 228.176291 
L 343.440196 228.176291 
L 343.440196 229.155227 
L 344.534958 229.155227 
L 344.534958 229.889428 
L 345.629721 229.889428 
L 345.629721 233.193335 
L 346.724483 233.193335 
L 346.724483 231.480198 
L 347.819246 231.480198 
L 347.819246 232.2144 
L 348.914008 232.2144 
L 348.914008 231.113097 
L 351.103533 231.113097 
L 351.103533 234.539371 
L 352.198296 234.539371 
L 352.198296 234.417004 
L 353.293058 234.417004 
L 353.293058 234.906472 
L 354.387821 234.906472 
L 354.387821 236.007774 
L 355.482583 236.007774 
L 355.482583 236.497242 
L 356.577346 236.497242 
L 356.577346 236.007774 
L 357.672108 236.007774 
L 357.672108 236.864342 
L 358.766871 236.864342 
L 358.766871 236.497242 
L 359.861633 236.497242 
L 359.861633 237.109076 
L 360.956396 237.109076 
L 360.956396 237.965645 
L 362.051159 237.965645 
L 362.051159 238.822213 
L 363.145921 238.822213 
L 363.145921 239.678781 
L 364.240684 239.678781 
L 364.240684 238.822213 
L 365.335446 238.822213 
L 365.335446 239.801148 
L 366.430209 239.801148 
L 366.430209 239.311681 
L 367.524971 239.311681 
L 367.524971 242.003753 
L 368.619734 242.003753 
L 368.619734 241.636652 
L 369.714496 241.636652 
L 369.714496 240.90245 
L 370.809259 240.90245 
L 370.809259 242.370853 
L 371.904021 242.370853 
L 371.904021 241.269551 
L 372.998784 241.269551 
L 372.998784 242.003753 
L 374.093546 242.003753 
L 374.093546 241.759019 
L 375.188309 241.759019 
L 375.188309 242.248487 
L 376.283071 242.248487 
L 376.283071 242.615587 
L 377.377834 242.615587 
L 377.377834 241.881386 
L 378.472596 241.881386 
L 378.472596 243.71689 
L 379.567359 243.71689 
L 379.567359 244.573458 
L 380.662122 244.573458 
L 380.662122 243.961623 
L 381.756884 243.961623 
L 381.756884 245.062926 
L 382.851647 245.062926 
L 382.851647 244.08399 
L 383.946409 244.08399 
L 383.946409 244.328724 
L 385.041172 244.328724 
L 385.041172 244.573458 
L 386.135934 244.573458 
L 386.135934 244.695825 
L 387.230697 244.695825 
L 387.230697 244.573458 
L 388.325459 244.573458 
L 388.325459 245.185292 
L 389.420222 245.185292 
L 389.420222 245.062926 
L 390.514984 245.062926 
L 390.514984 244.695825 
L 391.609747 244.695825 
L 391.609747 244.573458 
L 392.704509 244.573458 
L 392.704509 245.307659 
L 393.799272 245.307659 
L 393.799272 244.940559 
L 394.894034 244.940559 
L 394.894034 245.185292 
L 395.988797 245.185292 
L 395.988797 245.552393 
L 397.08356 245.552393 
L 397.08356 244.940559 
L 398.178322 244.940559 
L 398.178322 244.940559 
" clip-path="url(#pf1d08a52a8)" style="fill: none; stroke: #1f77b4; stroke-width: 1.5; stroke-linecap: square"/>
   </g>
   <g id="patch_3">
    <path d="M 53.328125 257.158895 
L 53.328125 7.2 
" style="fill: none; stroke: #000000; stroke-width: 0.8; stroke-linejoin: miter; stroke-linecap: square"/>
   </g>
   <g id="patch_4">
    <path d="M 414.59976 257.158895 
L 414.59976 7.2 
" style="fill: none; stroke: #000000; stroke-width: 0.8; stroke-linejoin: miter; stroke-linecap: square"/>
   </g>
   <g id="patch_5">
    <path d="M 53.328125 257.158895 
L 414.59976 257.158895 
" style="fill: none; stroke: #000000; stroke-width: 0.8; stroke-linejoin: miter; stroke-linecap: square"/>
   </g>
   <g id="patch_6">
    <path d="M 53.328125 7.2 
L 414.59976 7.2 
" style="fill: none; stroke: #000000; stroke-width: 0.8; stroke-linejoin: miter; stroke-linecap: square"/>
   </g>
  </g>
  <g id="axes_2">
   <g id="patch_7">
    <path d="M 503.927885 257.158895 
L 865.19952 257.158895 
L 865.19952 7.2 
L 503.927885 7.2 
z
" style="fill: #ffffff"/>
   </g>
   <g id="matplotlib.axis_3">
    <g id="xtick_8">
     <g id="line2d_17">
      <g>
       <use xlink:href="#m6324a35277" x="512.260747" y="257.158895" style="stroke: #000000; stroke-width: 0.8"/>
      </g>
     </g>
     <g id="text_18">
      <!-- 0 -->
      <g transform="translate(509.079497 271.757332) scale(0.1 -0.1)">
       <use xlink:href="#DejaVuSans-30"/>
      </g>
     </g>
    </g>
    <g id="xtick_9">
     <g id="line2d_18">
      <g>
       <use xlink:href="#m6324a35277" x="587.053871" y="257.158895" style="stroke: #000000; stroke-width: 0.8"/>
      </g>
     </g>
     <g id="text_19">
      <!-- 2 -->
      <g transform="translate(583.872621 271.757332) scale(0.1 -0.1)">
       <use xlink:href="#DejaVuSans-32"/>
      </g>
     </g>
    </g>
    <g id="xtick_10">
     <g id="line2d_19">
      <g>
       <use xlink:href="#m6324a35277" x="661.846994" y="257.158895" style="stroke: #000000; stroke-width: 0.8"/>
      </g>
     </g>
     <g id="text_20">
      <!-- 4 -->
      <g transform="translate(658.665744 271.757332) scale(0.1 -0.1)">
       <use xlink:href="#DejaVuSans-34"/>
      </g>
     </g>
    </g>
    <g id="xtick_11">
     <g id="line2d_20">
      <g>
       <use xlink:href="#m6324a35277" x="736.640118" y="257.158895" style="stroke: #000000; stroke-width: 0.8"/>
      </g>
     </g>
     <g id="text_21">
      <!-- 6 -->
      <g transform="translate(733.458868 271.757332) scale(0.1 -0.1)">
       <use xlink:href="#DejaVuSans-36"/>
      </g>
     </g>
    </g>
    <g id="xtick_12">
     <g id="line2d_21">
      <g>
       <use xlink:href="#m6324a35277" x="811.433242" y="257.158895" style="stroke: #000000; stroke-width: 0.8"/>
      </g>
     </g>
     <g id="text_22">
      <!-- 8 -->
      <g transform="translate(808.251992 271.757332) scale(0.1 -0.1)">
       <defs>
        <path id="DejaVuSans-38" d="M 2034 2216 
Q 1584 2216 1326 1975 
Q 1069 1734 1069 1313 
Q 1069 891 1326 650 
Q 1584 409 2034 409 
Q 2484 409 2743 651 
Q 3003 894 3003 1313 
Q 3003 1734 2745 1975 
Q 2488 2216 2034 2216 
z
M 1403 2484 
Q 997 2584 770 2862 
Q 544 3141 544 3541 
Q 544 4100 942 4425 
Q 1341 4750 2034 4750 
Q 2731 4750 3128 4425 
Q 3525 4100 3525 3541 
Q 3525 3141 3298 2862 
Q 3072 2584 2669 2484 
Q 3125 2378 3379 2068 
Q 3634 1759 3634 1313 
Q 3634 634 3220 271 
Q 2806 -91 2034 -91 
Q 1263 -91 848 271 
Q 434 634 434 1313 
Q 434 1759 690 2068 
Q 947 2378 1403 2484 
z
M 1172 3481 
Q 1172 3119 1398 2916 
Q 1625 2713 2034 2713 
Q 2441 2713 2670 2916 
Q 2900 3119 2900 3481 
Q 2900 3844 2670 4047 
Q 2441 4250 2034 4250 
Q 1625 4250 1398 4047 
Q 1172 3844 1172 3481 
z
" transform="scale(0.015625)"/>
       </defs>
       <use xlink:href="#DejaVuSans-38"/>
      </g>
     </g>
    </g>
    <g id="text_23">
     <!-- wavelength [Å] -->
     <g transform="translate(646.526202 287.119832) scale(0.1 -0.1)">
      <defs>
       <path id="DejaVuSans-77" d="M 269 3500 
L 844 3500 
L 1563 769 
L 2278 3500 
L 2956 3500 
L 3675 769 
L 4391 3500 
L 4966 3500 
L 4050 0 
L 3372 0 
L 2619 2869 
L 1863 0 
L 1184 0 
L 269 3500 
z
" transform="scale(0.015625)"/>
       <path id="DejaVuSans-61" d="M 2194 1759 
Q 1497 1759 1228 1600 
Q 959 1441 959 1056 
Q 959 750 1161 570 
Q 1363 391 1709 391 
Q 2188 391 2477 730 
Q 2766 1069 2766 1631 
L 2766 1759 
L 2194 1759 
z
M 3341 1997 
L 3341 0 
L 2766 0 
L 2766 531 
Q 2569 213 2275 61 
Q 1981 -91 1556 -91 
Q 1019 -91 701 211 
Q 384 513 384 1019 
Q 384 1609 779 1909 
Q 1175 2209 1959 2209 
L 2766 2209 
L 2766 2266 
Q 2766 2663 2505 2880 
Q 2244 3097 1772 3097 
Q 1472 3097 1187 3025 
Q 903 2953 641 2809 
L 641 3341 
Q 956 3463 1253 3523 
Q 1550 3584 1831 3584 
Q 2591 3584 2966 3190 
Q 3341 2797 3341 1997 
z
" transform="scale(0.015625)"/>
       <path id="DejaVuSans-76" d="M 191 3500 
L 800 3500 
L 1894 563 
L 2988 3500 
L 3597 3500 
L 2284 0 
L 1503 0 
L 191 3500 
z
" transform="scale(0.015625)"/>
       <path id="DejaVuSans-67" d="M 2906 1791 
Q 2906 2416 2648 2759 
Q 2391 3103 1925 3103 
Q 1463 3103 1205 2759 
Q 947 2416 947 1791 
Q 947 1169 1205 825 
Q 1463 481 1925 481 
Q 2391 481 2648 825 
Q 2906 1169 2906 1791 
z
M 3481 434 
Q 3481 -459 3084 -895 
Q 2688 -1331 1869 -1331 
Q 1566 -1331 1297 -1286 
Q 1028 -1241 775 -1147 
L 775 -588 
Q 1028 -725 1275 -790 
Q 1522 -856 1778 -856 
Q 2344 -856 2625 -561 
Q 2906 -266 2906 331 
L 2906 616 
Q 2728 306 2450 153 
Q 2172 0 1784 0 
Q 1141 0 747 490 
Q 353 981 353 1791 
Q 353 2603 747 3093 
Q 1141 3584 1784 3584 
Q 2172 3584 2450 3431 
Q 2728 3278 2906 2969 
L 2906 3500 
L 3481 3500 
L 3481 434 
z
" transform="scale(0.015625)"/>
       <path id="DejaVuSans-c5" d="M 2663 5081 
Q 2663 5278 2523 5417 
Q 2384 5556 2188 5556 
Q 1988 5556 1852 5420 
Q 1716 5284 1716 5081 
Q 1716 4884 1853 4746 
Q 1991 4609 2188 4609 
Q 2384 4609 2523 4746 
Q 2663 4884 2663 5081 
z
M 2188 4044 
L 1338 1722 
L 3041 1722 
L 2188 4044 
z
M 1716 4366 
Q 1525 4494 1428 4673 
Q 1331 4853 1331 5081 
Q 1331 5441 1579 5691 
Q 1828 5941 2188 5941 
Q 2544 5941 2795 5689 
Q 3047 5438 3047 5081 
Q 3047 4863 2948 4678 
Q 2850 4494 2663 4366 
L 4325 0 
L 3669 0 
L 3244 1197 
L 1141 1197 
L 716 0 
L 50 0 
L 1716 4366 
z
" transform="scale(0.015625)"/>
      </defs>
      <use xlink:href="#DejaVuSans-77"/>
      <use xlink:href="#DejaVuSans-61" transform="translate(81.787109 0)"/>
      <use xlink:href="#DejaVuSans-76" transform="translate(143.066406 0)"/>
      <use xlink:href="#DejaVuSans-65" transform="translate(202.246094 0)"/>
      <use xlink:href="#DejaVuSans-6c" transform="translate(263.769531 0)"/>
      <use xlink:href="#DejaVuSans-65" transform="translate(291.552734 0)"/>
      <use xlink:href="#DejaVuSans-6e" transform="translate(353.076172 0)"/>
      <use xlink:href="#DejaVuSans-67" transform="translate(416.455078 0)"/>
      <use xlink:href="#DejaVuSans-74" transform="translate(479.931641 0)"/>
      <use xlink:href="#DejaVuSans-68" transform="translate(519.140625 0)"/>
      <use xlink:href="#DejaVuSans-20" transform="translate(582.519531 0)"/>
      <use xlink:href="#DejaVuSans-5b" transform="translate(614.306641 0)"/>
      <use xlink:href="#DejaVuSans-c5" transform="translate(653.320312 0)"/>
      <use xlink:href="#DejaVuSans-5d" transform="translate(721.728516 0)"/>
     </g>
    </g>
   </g>
   <g id="matplotlib.axis_4">
    <g id="ytick_9">
     <g id="line2d_22">
      <g>
       <use xlink:href="#m1295aeafed" x="503.927885" y="246.172723" style="stroke: #000000; stroke-width: 0.8"/>
      </g>
     </g>
     <g id="text_24">
      <!-- 0 -->
      <g transform="translate(490.565385 249.971941) scale(0.1 -0.1)">
       <use xlink:href="#DejaVuSans-30"/>
      </g>
     </g>
    </g>
    <g id="ytick_10">
     <g id="line2d_23">
      <g>
       <use xlink:href="#m1295aeafed" x="503.927885" y="214.873086" style="stroke: #000000; stroke-width: 0.8"/>
      </g>
     </g>
     <g id="text_25">
      <!-- 250 -->
      <g transform="translate(477.840385 218.672305) scale(0.1 -0.1)">
       <use xlink:href="#DejaVuSans-32"/>
       <use xlink:href="#DejaVuSans-35" transform="translate(63.623047 0)"/>
       <use xlink:href="#DejaVuSans-30" transform="translate(127.246094 0)"/>
      </g>
     </g>
    </g>
    <g id="ytick_11">
     <g id="line2d_24">
      <g>
       <use xlink:href="#m1295aeafed" x="503.927885" y="183.57345" style="stroke: #000000; stroke-width: 0.8"/>
      </g>
     </g>
     <g id="text_26">
      <!-- 500 -->
      <g transform="translate(477.840385 187.372669) scale(0.1 -0.1)">
       <use xlink:href="#DejaVuSans-35"/>
       <use xlink:href="#DejaVuSans-30" transform="translate(63.623047 0)"/>
       <use xlink:href="#DejaVuSans-30" transform="translate(127.246094 0)"/>
      </g>
     </g>
    </g>
    <g id="ytick_12">
     <g id="line2d_25">
      <g>
       <use xlink:href="#m1295aeafed" x="503.927885" y="152.273814" style="stroke: #000000; stroke-width: 0.8"/>
      </g>
     </g>
     <g id="text_27">
      <!-- 750 -->
      <g transform="translate(477.840385 156.073033) scale(0.1 -0.1)">
       <use xlink:href="#DejaVuSans-37"/>
       <use xlink:href="#DejaVuSans-35" transform="translate(63.623047 0)"/>
       <use xlink:href="#DejaVuSans-30" transform="translate(127.246094 0)"/>
      </g>
     </g>
    </g>
    <g id="ytick_13">
     <g id="line2d_26">
      <g>
       <use xlink:href="#m1295aeafed" x="503.927885" y="120.974178" style="stroke: #000000; stroke-width: 0.8"/>
      </g>
     </g>
     <g id="text_28">
      <!-- 1000 -->
      <g transform="translate(471.477885 124.773396) scale(0.1 -0.1)">
       <use xlink:href="#DejaVuSans-31"/>
       <use xlink:href="#DejaVuSans-30" transform="translate(63.623047 0)"/>
       <use xlink:href="#DejaVuSans-30" transform="translate(127.246094 0)"/>
       <use xlink:href="#DejaVuSans-30" transform="translate(190.869141 0)"/>
      </g>
     </g>
    </g>
    <g id="ytick_14">
     <g id="line2d_27">
      <g>
       <use xlink:href="#m1295aeafed" x="503.927885" y="89.674541" style="stroke: #000000; stroke-width: 0.8"/>
      </g>
     </g>
     <g id="text_29">
      <!-- 1250 -->
      <g transform="translate(471.477885 93.47376) scale(0.1 -0.1)">
       <use xlink:href="#DejaVuSans-31"/>
       <use xlink:href="#DejaVuSans-32" transform="translate(63.623047 0)"/>
       <use xlink:href="#DejaVuSans-35" transform="translate(127.246094 0)"/>
       <use xlink:href="#DejaVuSans-30" transform="translate(190.869141 0)"/>
      </g>
     </g>
    </g>
    <g id="ytick_15">
     <g id="line2d_28">
      <g>
       <use xlink:href="#m1295aeafed" x="503.927885" y="58.374905" style="stroke: #000000; stroke-width: 0.8"/>
      </g>
     </g>
     <g id="text_30">
      <!-- 1500 -->
      <g transform="translate(471.477885 62.174124) scale(0.1 -0.1)">
       <use xlink:href="#DejaVuSans-31"/>
       <use xlink:href="#DejaVuSans-35" transform="translate(63.623047 0)"/>
       <use xlink:href="#DejaVuSans-30" transform="translate(127.246094 0)"/>
       <use xlink:href="#DejaVuSans-30" transform="translate(190.869141 0)"/>
      </g>
     </g>
    </g>
    <g id="ytick_16">
     <g id="line2d_29">
      <g>
       <use xlink:href="#m1295aeafed" x="503.927885" y="27.075269" style="stroke: #000000; stroke-width: 0.8"/>
      </g>
     </g>
     <g id="text_31">
      <!-- 1750 -->
      <g transform="translate(471.477885 30.874488) scale(0.1 -0.1)">
       <use xlink:href="#DejaVuSans-31"/>
       <use xlink:href="#DejaVuSans-37" transform="translate(63.623047 0)"/>
       <use xlink:href="#DejaVuSans-35" transform="translate(127.246094 0)"/>
       <use xlink:href="#DejaVuSans-30" transform="translate(190.869141 0)"/>
      </g>
     </g>
    </g>
    <g id="text_32">
     <!-- pulse:0 [counts] -->
     <g transform="translate(465.398197 172.659916) rotate(-90) scale(0.1 -0.1)">
      <use xlink:href="#DejaVuSans-70"/>
      <use xlink:href="#DejaVuSans-75" transform="translate(63.476562 0)"/>
      <use xlink:href="#DejaVuSans-6c" transform="translate(126.855469 0)"/>
      <use xlink:href="#DejaVuSans-73" transform="translate(154.638672 0)"/>
      <use xlink:href="#DejaVuSans-65" transform="translate(206.738281 0)"/>
      <use xlink:href="#DejaVuSans-3a" transform="translate(268.261719 0)"/>
      <use xlink:href="#DejaVuSans-30" transform="translate(301.953125 0)"/>
      <use xlink:href="#DejaVuSans-20" transform="translate(365.576172 0)"/>
      <use xlink:href="#DejaVuSans-5b" transform="translate(397.363281 0)"/>
      <use xlink:href="#DejaVuSans-63" transform="translate(436.376953 0)"/>
      <use xlink:href="#DejaVuSans-6f" transform="translate(491.357422 0)"/>
      <use xlink:href="#DejaVuSans-75" transform="translate(552.539062 0)"/>
      <use xlink:href="#DejaVuSans-6e" transform="translate(615.917969 0)"/>
      <use xlink:href="#DejaVuSans-74" transform="translate(679.296875 0)"/>
      <use xlink:href="#DejaVuSans-73" transform="translate(718.505859 0)"/>
      <use xlink:href="#DejaVuSans-5d" transform="translate(770.605469 0)"/>
     </g>
    </g>
   </g>
   <g id="line2d_30">
    <path d="M 520.349323 245.045936 
L 521.444085 245.045936 
L 521.444085 244.795539 
L 522.538848 244.795539 
L 522.538848 245.421531 
L 525.823136 245.421531 
L 525.823136 245.296333 
L 526.917898 245.296333 
L 526.917898 244.294745 
L 528.012661 244.294745 
L 528.012661 245.045936 
L 529.107423 245.045936 
L 529.107423 244.795539 
L 530.202186 244.795539 
L 530.202186 244.920737 
L 531.296948 244.920737 
L 531.296948 244.795539 
L 532.391711 244.795539 
L 532.391711 245.171134 
L 533.486473 245.171134 
L 533.486473 243.919149 
L 534.581236 243.919149 
L 534.581236 244.294745 
L 535.675998 244.294745 
L 535.675998 243.668752 
L 536.770761 243.668752 
L 536.770761 242.541965 
L 537.865523 242.541965 
L 537.865523 243.418355 
L 538.960286 243.418355 
L 538.960286 243.167958 
L 540.055048 243.167958 
L 540.055048 244.545142 
L 541.149811 244.545142 
L 541.149811 241.540377 
L 542.244574 241.540377 
L 542.244574 242.291568 
L 543.339336 242.291568 
L 543.339336 242.041171 
L 544.434099 242.041171 
L 544.434099 242.792362 
L 545.528861 242.792362 
L 545.528861 240.914384 
L 546.623624 240.914384 
L 546.623624 241.790774 
L 547.718386 241.790774 
L 547.718386 241.665575 
L 548.813149 241.665575 
L 548.813149 240.538788 
L 549.907911 240.538788 
L 549.907911 241.415178 
L 551.002674 241.415178 
L 551.002674 241.289979 
L 552.097436 241.289979 
L 552.097436 240.288391 
L 553.192199 240.288391 
L 553.192199 240.538788 
L 554.286961 240.538788 
L 554.286961 240.789185 
L 555.381724 240.789185 
L 555.381724 239.286803 
L 556.476486 239.286803 
L 556.476486 239.662398 
L 557.571249 239.662398 
L 557.571249 239.5372 
L 558.666012 239.5372 
L 558.666012 237.033229 
L 559.760774 237.033229 
L 559.760774 238.160016 
L 560.855537 238.160016 
L 560.855537 237.158427 
L 561.950299 237.158427 
L 561.950299 237.659222 
L 563.045062 237.659222 
L 563.045062 236.532435 
L 564.139824 236.532435 
L 564.139824 236.156839 
L 565.234587 236.156839 
L 565.234587 234.278861 
L 566.329349 234.278861 
L 566.329349 234.904854 
L 567.424112 234.904854 
L 567.424112 230.773302 
L 568.518874 230.773302 
L 568.518874 235.030052 
L 569.613637 235.030052 
L 569.613637 231.649691 
L 570.708399 231.649691 
L 570.708399 232.901677 
L 571.803162 232.901677 
L 571.803162 229.020522 
L 572.897924 229.020522 
L 572.897924 232.776478 
L 573.992687 232.776478 
L 573.992687 228.644926 
L 575.087449 228.644926 
L 575.087449 226.140955 
L 576.182212 226.140955 
L 576.182212 227.643338 
L 577.276975 227.643338 
L 577.276975 224.638573 
L 578.371737 224.638573 
L 578.371737 223.511786 
L 579.4665 223.511786 
L 579.4665 225.640161 
L 580.561262 225.640161 
L 580.561262 217.752653 
L 581.656025 217.752653 
L 581.656025 222.635396 
L 582.750787 222.635396 
L 582.750787 217.877852 
L 583.84555 217.877852 
L 583.84555 219.630631 
L 584.940312 219.630631 
L 584.940312 217.377057 
L 586.035075 217.377057 
L 586.035075 213.996697 
L 587.129837 213.996697 
L 587.129837 211.99352 
L 588.2246 211.99352 
L 588.2246 214.497491 
L 589.319362 214.497491 
L 589.319362 213.495902 
L 590.414125 213.495902 
L 590.414125 211.242329 
L 591.508887 211.242329 
L 591.508887 204.23121 
L 592.60365 204.23121 
L 592.60365 204.732004 
L 593.698412 204.732004 
L 593.698412 207.235975 
L 594.793175 207.235975 
L 594.793175 205.483196 
L 595.887938 205.483196 
L 595.887938 204.982401 
L 596.9827 204.982401 
L 596.9827 199.97446 
L 598.077463 199.97446 
L 598.077463 197.220092 
L 599.172225 197.220092 
L 599.172225 194.590922 
L 600.266988 194.590922 
L 600.266988 197.971283 
L 601.36175 197.971283 
L 601.36175 193.714532 
L 602.456513 193.714532 
L 602.456513 187.454605 
L 603.551275 187.454605 
L 603.551275 189.833377 
L 604.646038 189.833377 
L 604.646038 185.201031 
L 605.7408 185.201031 
L 605.7408 185.701825 
L 606.835563 185.701825 
L 606.835563 183.072656 
L 607.930325 183.072656 
L 607.930325 180.568685 
L 609.025088 180.568685 
L 609.025088 175.185148 
L 610.11985 175.185148 
L 610.11985 176.812729 
L 611.214613 176.812729 
L 611.214613 166.296051 
L 612.309375 166.296051 
L 612.309375 165.54486 
L 613.404138 165.54486 
L 613.404138 167.047242 
L 614.498901 167.047242 
L 614.498901 165.419661 
L 615.593663 165.419661 
L 615.593663 158.533741 
L 616.688426 158.533741 
L 616.688426 163.166087 
L 617.783188 163.166087 
L 617.783188 157.156557 
L 618.877951 157.156557 
L 618.877951 150.145439 
L 619.972713 150.145439 
L 619.972713 155.028182 
L 621.067476 155.028182 
L 621.067476 151.647821 
L 622.162238 151.647821 
L 622.162238 143.885511 
L 623.257001 143.885511 
L 623.257001 145.387894 
L 624.351763 145.387894 
L 624.351763 134.871216 
L 625.446526 134.871216 
L 625.446526 143.509916 
L 626.541288 143.509916 
L 626.541288 131.365657 
L 627.636051 131.365657 
L 627.636051 132.742841 
L 628.730813 132.742841 
L 628.730813 126.858509 
L 629.825576 126.858509 
L 629.825576 118.971001 
L 630.920339 118.971001 
L 630.920339 123.728546 
L 632.015101 123.728546 
L 632.015101 112.836272 
L 633.109864 112.836272 
L 633.109864 116.717427 
L 634.204626 116.717427 
L 634.204626 119.596994 
L 635.299389 119.596994 
L 635.299389 110.582698 
L 636.394151 110.582698 
L 636.394151 98.188043 
L 637.488914 98.188043 
L 637.488914 103.446381 
L 638.583676 103.446381 
L 638.583676 115.465442 
L 639.678439 115.465442 
L 639.678439 95.433675 
L 640.773201 95.433675 
L 640.773201 92.929704 
L 641.867964 92.929704 
L 641.867964 84.916997 
L 642.962726 84.916997 
L 642.962726 80.660246 
L 644.057489 80.660246 
L 644.057489 85.793387 
L 645.152251 85.793387 
L 645.152251 76.153099 
L 646.247014 76.153099 
L 646.247014 81.16104 
L 647.341776 81.16104 
L 647.341776 71.645951 
L 648.436539 71.645951 
L 648.436539 75.15151 
L 649.531302 75.15151 
L 649.531302 77.279886 
L 650.626064 77.279886 
L 650.626064 67.764796 
L 651.720827 67.764796 
L 651.720827 67.138803 
L 652.815589 67.138803 
L 652.815589 64.384435 
L 653.910352 64.384435 
L 653.910352 56.371729 
L 655.005114 56.371729 
L 655.005114 61.37967 
L 656.099877 61.37967 
L 656.099877 58.374905 
L 657.194639 58.374905 
L 657.194639 53.116566 
L 659.384164 53.116566 
L 659.384164 52.991368 
L 660.478927 52.991368 
L 660.478927 34.837579 
L 661.573689 34.837579 
L 661.573689 47.858227 
L 662.668452 47.858227 
L 662.668452 35.338373 
L 663.763214 35.338373 
L 663.763214 42.599889 
L 664.857977 42.599889 
L 664.857977 35.964366 
L 665.952739 35.964366 
L 665.952739 34.587182 
L 667.047502 34.587182 
L 667.047502 41.848697 
L 668.142265 41.848697 
L 668.142265 33.209998 
L 669.237027 33.209998 
L 669.237027 30.706027 
L 670.33179 30.706027 
L 670.33179 35.964366 
L 671.426552 35.964366 
L 671.426552 30.080034 
L 672.521315 30.080034 
L 672.521315 31.206821 
L 673.616077 31.206821 
L 673.616077 24.571298 
L 674.71084 24.571298 
L 674.71084 35.213174 
L 675.805602 35.213174 
L 675.805602 23.444511 
L 676.900365 23.444511 
L 676.900365 31.081622 
L 677.995127 31.081622 
L 677.995127 27.200468 
L 679.08989 27.200468 
L 679.08989 23.444511 
L 680.184652 23.444511 
L 680.184652 19.563356 
L 681.279415 19.563356 
L 681.279415 26.824872 
L 682.374177 26.824872 
L 682.374177 33.084799 
L 683.46894 33.084799 
L 683.46894 18.561768 
L 684.563702 18.561768 
L 684.563702 23.444511 
L 685.658465 23.444511 
L 685.658465 27.951659 
L 686.753228 27.951659 
L 686.753228 18.812165 
L 687.84799 18.812165 
L 687.84799 21.566533 
L 688.942753 21.566533 
L 688.942753 22.568121 
L 690.037515 22.568121 
L 690.037515 21.190937 
L 691.132278 21.190937 
L 691.132278 29.328843 
L 692.22704 29.328843 
L 692.22704 24.4461 
L 693.321803 24.4461 
L 693.321803 26.449276 
L 694.416565 26.449276 
L 694.416565 33.335196 
L 695.511328 33.335196 
L 695.511328 30.956424 
L 696.60609 30.956424 
L 696.60609 40.346315 
L 697.700853 40.346315 
L 697.700853 33.961189 
L 698.795615 33.961189 
L 698.795615 42.599889 
L 699.890378 42.599889 
L 699.890378 31.33202 
L 700.98514 31.33202 
L 700.98514 39.845521 
L 702.079903 39.845521 
L 702.079903 36.339961 
L 703.174666 36.339961 
L 703.174666 35.964366 
L 704.269428 35.964366 
L 704.269428 35.713969 
L 705.364191 35.713969 
L 705.364191 38.343138 
L 706.458953 38.343138 
L 706.458953 47.232235 
L 707.553716 47.232235 
L 707.553716 48.609419 
L 708.648478 48.609419 
L 708.648478 61.004075 
L 709.743241 61.004075 
L 709.743241 55.119743 
L 710.838003 55.119743 
L 710.838003 51.989779 
L 711.932766 51.989779 
L 711.932766 49.611007 
L 713.027528 49.611007 
L 713.027528 62.005663 
L 714.122291 62.005663 
L 714.122291 60.127685 
L 715.217053 60.127685 
L 715.217053 55.244942 
L 716.311816 55.244942 
L 716.311816 76.528694 
L 717.406578 76.528694 
L 717.406578 75.401907 
L 718.501341 75.401907 
L 718.501341 71.645951 
L 719.596103 71.645951 
L 719.596103 69.392377 
L 720.690866 69.392377 
L 720.690866 78.907467 
L 721.785629 78.907467 
L 721.785629 83.539813 
L 722.880391 83.539813 
L 722.880391 77.905878 
L 723.975154 77.905878 
L 723.975154 86.920173 
L 726.164679 86.920173 
L 726.164679 86.669776 
L 727.259441 86.669776 
L 727.259441 92.303711 
L 728.354204 92.303711 
L 728.354204 96.184866 
L 729.448966 96.184866 
L 729.448966 96.310064 
L 730.543729 96.310064 
L 730.543729 103.321183 
L 731.638491 103.321183 
L 731.638491 106.826742 
L 732.733254 106.826742 
L 732.733254 109.330713 
L 733.828016 109.330713 
L 733.828016 112.836272 
L 734.922779 112.836272 
L 734.922779 114.589052 
L 736.017541 114.589052 
L 736.017541 127.108906 
L 737.112304 127.108906 
L 737.112304 126.357715 
L 738.207066 126.357715 
L 738.207066 123.478149 
L 739.301829 123.478149 
L 739.301829 133.744429 
L 740.396592 133.744429 
L 740.396592 124.104141 
L 741.491354 124.104141 
L 741.491354 134.245223 
L 742.586117 134.245223 
L 742.586117 137.875981 
L 743.680879 137.875981 
L 743.680879 141.005945 
L 744.775642 141.005945 
L 744.775642 136.749194 
L 745.870404 136.749194 
L 745.870404 149.644645 
L 746.965167 149.644645 
L 746.965167 143.009122 
L 748.059929 143.009122 
L 748.059929 149.644645 
L 749.154692 149.644645 
L 749.154692 152.273814 
L 750.249454 152.273814 
L 750.249454 151.522623 
L 751.344217 151.522623 
L 751.344217 157.156557 
L 752.438979 157.156557 
L 752.438979 156.280167 
L 753.533742 156.280167 
L 753.533742 163.040889 
L 754.628504 163.040889 
L 754.628504 171.053596 
L 755.723267 171.053596 
L 755.723267 163.291286 
L 756.818029 163.291286 
L 756.818029 171.053596 
L 757.912792 171.053596 
L 757.912792 181.194678 
L 759.007555 181.194678 
L 759.007555 175.185148 
L 760.102317 175.185148 
L 760.102317 172.931574 
L 761.19708 172.931574 
L 761.19708 187.705002 
L 762.291842 187.705002 
L 762.291842 184.199443 
L 763.386605 184.199443 
L 763.386605 186.20262 
L 764.481367 186.20262 
L 764.481367 187.204208 
L 765.57613 187.204208 
L 765.57613 184.825436 
L 766.670892 184.825436 
L 766.670892 192.21215 
L 767.765655 192.21215 
L 767.765655 192.963341 
L 768.860417 192.963341 
L 768.860417 195.216915 
L 769.95518 195.216915 
L 769.95518 197.595687 
L 771.049942 197.595687 
L 771.049942 203.35482 
L 772.144705 203.35482 
L 772.144705 202.854026 
L 773.239467 202.854026 
L 773.239467 207.987166 
L 774.33423 207.987166 
L 774.33423 205.1076 
L 775.428993 205.1076 
L 775.428993 206.735181 
L 776.523755 206.735181 
L 776.523755 205.98399 
L 777.618518 205.98399 
L 777.618518 208.988755 
L 778.71328 208.988755 
L 778.71328 212.744711 
L 779.808043 212.744711 
L 779.808043 212.243917 
L 780.902805 212.243917 
L 780.902805 215.248682 
L 781.997568 215.248682 
L 781.997568 214.247094 
L 783.09233 214.247094 
L 783.09233 217.877852 
L 784.187093 217.877852 
L 784.187093 217.12666 
L 785.281855 217.12666 
L 785.281855 216.751065 
L 787.47138 216.751065 
L 787.47138 219.75583 
L 788.566143 219.75583 
L 788.566143 227.518139 
L 789.660905 227.518139 
L 789.660905 224.01258 
L 790.755668 224.01258 
L 790.755668 226.766948 
L 791.85043 226.766948 
L 791.85043 224.513374 
L 792.945193 224.513374 
L 792.945193 228.770125 
L 794.039956 228.770125 
L 794.039956 228.269331 
L 795.134718 228.269331 
L 795.134718 231.524493 
L 796.229481 231.524493 
L 796.229481 228.394529 
L 797.324243 228.394529 
L 797.324243 231.148897 
L 798.419006 231.148897 
L 798.419006 230.522905 
L 799.513768 230.522905 
L 799.513768 232.901677 
L 800.608531 232.901677 
L 800.608531 235.405648 
L 801.703293 235.405648 
L 801.703293 233.903265 
L 802.798056 233.903265 
L 802.798056 232.901677 
L 803.892818 232.901677 
L 803.892818 236.407236 
L 804.987581 236.407236 
L 804.987581 235.530846 
L 806.082343 235.530846 
L 806.082343 236.156839 
L 807.177106 236.156839 
L 807.177106 238.160016 
L 808.271868 238.160016 
L 808.271868 236.031641 
L 809.366631 236.031641 
L 809.366631 238.410413 
L 810.461393 238.410413 
L 810.461393 239.662398 
L 811.556156 239.662398 
L 811.556156 238.160016 
L 812.650919 238.160016 
L 812.650919 237.659222 
L 813.745681 237.659222 
L 813.745681 240.41359 
L 814.840444 240.41359 
L 814.840444 240.789185 
L 815.935206 240.789185 
L 815.935206 241.039582 
L 817.029969 241.039582 
L 817.029969 241.665575 
L 818.124731 241.665575 
L 818.124731 240.914384 
L 819.219494 240.914384 
L 819.219494 241.665575 
L 820.314256 241.665575 
L 820.314256 241.164781 
L 821.409019 241.164781 
L 821.409019 240.288391 
L 822.503781 240.288391 
L 822.503781 242.667163 
L 823.598544 242.667163 
L 823.598544 241.790774 
L 824.693306 241.790774 
L 824.693306 242.291568 
L 825.788069 242.291568 
L 825.788069 243.543553 
L 826.882831 243.543553 
L 826.882831 242.792362 
L 827.977594 242.792362 
L 827.977594 243.167958 
L 829.072356 243.167958 
L 829.072356 242.667163 
L 830.167119 242.667163 
L 830.167119 243.293156 
L 831.261882 243.293156 
L 831.261882 243.79395 
L 832.356644 243.79395 
L 832.356644 243.418355 
L 833.451407 243.418355 
L 833.451407 244.044347 
L 835.640932 244.044347 
L 835.640932 244.67034 
L 836.735694 244.67034 
L 836.735694 244.545142 
L 837.830457 244.545142 
L 837.830457 244.920737 
L 838.925219 244.920737 
L 838.925219 244.795539 
L 840.019982 244.795539 
L 840.019982 245.54673 
L 841.114744 245.54673 
L 841.114744 244.795539 
L 843.304269 244.795539 
L 843.304269 245.296333 
L 844.399032 245.296333 
L 844.399032 244.67034 
L 845.493794 244.67034 
L 845.493794 245.54673 
L 846.588557 245.54673 
L 846.588557 245.797127 
L 847.68332 245.797127 
L 847.68332 245.54673 
L 848.778082 245.54673 
L 848.778082 245.54673 
" clip-path="url(#p34bdb9b35f)" style="fill: none; stroke: #1f77b4; stroke-width: 1.5; stroke-linecap: square"/>
   </g>
   <g id="patch_8">
    <path d="M 503.927885 257.158895 
L 503.927885 7.2 
" style="fill: none; stroke: #000000; stroke-width: 0.8; stroke-linejoin: miter; stroke-linecap: square"/>
   </g>
   <g id="patch_9">
    <path d="M 865.19952 257.158895 
L 865.19952 7.2 
" style="fill: none; stroke: #000000; stroke-width: 0.8; stroke-linejoin: miter; stroke-linecap: square"/>
   </g>
   <g id="patch_10">
    <path d="M 503.927885 257.158895 
L 865.19952 257.158895 
" style="fill: none; stroke: #000000; stroke-width: 0.8; stroke-linejoin: miter; stroke-linecap: square"/>
   </g>
   <g id="patch_11">
    <path d="M 503.927885 7.2 
L 865.19952 7.2 
" style="fill: none; stroke: #000000; stroke-width: 0.8; stroke-linejoin: miter; stroke-linecap: square"/>
   </g>
  </g>
 </g>
 <defs>
  <clipPath id="pf1d08a52a8">
   <rect x="53.328125" y="7.2" width="361.271635" height="249.958895"/>
  </clipPath>
  <clipPath id="p34bdb9b35f">
   <rect x="503.927885" y="7.2" width="361.271635" height="249.958895"/>
  </clipPath>
 </defs>
</svg>
