<?xml version="1.0" encoding="utf-8" standalone="no"?>
<!DOCTYPE svg PUBLIC "-//W3C//DTD SVG 1.1//EN"
  "http://www.w3.org/Graphics/SVG/1.1/DTD/svg11.dtd">
<svg xmlns:xlink="http://www.w3.org/1999/xlink" width="872.39952pt" height="296.39952pt" viewBox="0 0 872.39952 296.39952" xmlns="http://www.w3.org/2000/svg" version="1.1">
 <metadata>
  <rdf:RDF xmlns:dc="http://purl.org/dc/elements/1.1/" xmlns:cc="http://creativecommons.org/ns#" xmlns:rdf="http://www.w3.org/1999/02/22-rdf-syntax-ns#">
   <cc:Work>
    <dc:type rdf:resource="http://purl.org/dc/dcmitype/StillImage"/>
    <dc:date>2026-06-24T08:34:12.429880</dc:date>
    <dc:format>image/svg+xml</dc:format>
    <dc:creator>
     <cc:Agent>
      <dc:title>Matplotlib v3.10.9, https://matplotlib.org/</dc:title>
     </cc:Agent>
    </dc:creator>
   </cc:Work>
  </rdf:RDF>
 </metadata>
 <defs>
  <style type="text/css">*{stroke-linejoin: round; stroke-linecap: butt}</style>
 </defs>
 <g id="figure_1">
  <g id="patch_1">
   <path d="M 0 296.39952 
L 872.39952 296.39952 
L 872.39952 0 
L 0 0 
z
" style="fill: #ffffff"/>
  </g>
  <g id="axes_1">
   <g id="patch_2">
    <path d="M 53.328125 257.158895 
L 414.59976 257.158895 
L 414.59976 7.2 
L 53.328125 7.2 
z
" style="fill: #ffffff"/>
   </g>
   <g id="matplotlib.axis_1">
    <g id="xtick_1">
     <g id="line2d_1">
      <defs>
       <path id="m3516c1bad3" d="M 0 0 
L 0 3.5 
" style="stroke: #000000; stroke-width: 0.8"/>
      </defs>
      <g>
       <use xlink:href="#m3516c1bad3" x="70.263127" y="257.158895" style="stroke: #000000; stroke-width: 0.8"/>
      </g>
     </g>
     <g id="text_1">
      <!-- 0 -->
      <g transform="translate(67.081877 271.757332) scale(0.1 -0.1)">
       <defs>
        <path id="DejaVuSans-30" d="M 2034 4250 
Q 1547 4250 1301 3770 
Q 1056 3291 1056 2328 
Q 1056 1369 1301 889 
Q 1547 409 2034 409 
Q 2525 409 2770 889 
Q 3016 1369 3016 2328 
Q 3016 3291 2770 3770 
Q 2525 4250 2034 4250 
z
M 2034 4750 
Q 2819 4750 3233 4129 
Q 3647 3509 3647 2328 
Q 3647 1150 3233 529 
Q 2819 -91 2034 -91 
Q 1250 -91 836 529 
Q 422 1150 422 2328 
Q 422 3509 836 4129 
Q 1250 4750 2034 4750 
z
" transform="scale(0.015625)"/>
       </defs>
       <use xlink:href="#DejaVuSans-30"/>
      </g>
     </g>
    </g>
    <g id="xtick_2">
     <g id="line2d_2">
      <g>
       <use xlink:href="#m3516c1bad3" x="124.844667" y="257.158895" style="stroke: #000000; stroke-width: 0.8"/>
      </g>
     </g>
     <g id="text_2">
      <!-- 1000 -->
      <g transform="translate(112.119667 271.757332) scale(0.1 -0.1)">
       <defs>
        <path id="DejaVuSans-31" d="M 794 531 
L 1825 531 
L 1825 4091 
L 703 3866 
L 703 4441 
L 1819 4666 
L 2450 4666 
L 2450 531 
L 3481 531 
L 3481 0 
L 794 0 
L 794 531 
z
" transform="scale(0.015625)"/>
       </defs>
       <use xlink:href="#DejaVuSans-31"/>
       <use xlink:href="#DejaVuSans-30" transform="translate(63.623047 0)"/>
       <use xlink:href="#DejaVuSans-30" transform="translate(127.246094 0)"/>
       <use xlink:href="#DejaVuSans-30" transform="translate(190.869141 0)"/>
      </g>
     </g>
    </g>
    <g id="xtick_3">
     <g id="line2d_3">
      <g>
       <use xlink:href="#m3516c1bad3" x="179.426207" y="257.158895" style="stroke: #000000; stroke-width: 0.8"/>
      </g>
     </g>
     <g id="text_3">
      <!-- 2000 -->
      <g transform="translate(166.701207 271.757332) scale(0.1 -0.1)">
       <defs>
        <path id="DejaVuSans-32" d="M 1228 531 
L 3431 531 
L 3431 0 
L 469 0 
L 469 531 
Q 828 903 1448 1529 
Q 2069 2156 2228 2338 
Q 2531 2678 2651 2914 
Q 2772 3150 2772 3378 
Q 2772 3750 2511 3984 
Q 2250 4219 1831 4219 
Q 1534 4219 1204 4116 
Q 875 4013 500 3803 
L 500 4441 
Q 881 4594 1212 4672 
Q 1544 4750 1819 4750 
Q 2544 4750 2975 4387 
Q 3406 4025 3406 3419 
Q 3406 3131 3298 2873 
Q 3191 2616 2906 2266 
Q 2828 2175 2409 1742 
Q 1991 1309 1228 531 
z
" transform="scale(0.015625)"/>
       </defs>
       <use xlink:href="#DejaVuSans-32"/>
       <use xlink:href="#DejaVuSans-30" transform="translate(63.623047 0)"/>
       <use xlink:href="#DejaVuSans-30" transform="translate(127.246094 0)"/>
       <use xlink:href="#DejaVuSans-30" transform="translate(190.869141 0)"/>
      </g>
     </g>
    </g>
    <g id="xtick_4">
     <g id="line2d_4">
      <g>
       <use xlink:href="#m3516c1bad3" x="234.007747" y="257.158895" style="stroke: #000000; stroke-width: 0.8"/>
      </g>
     </g>
     <g id="text_4">
      <!-- 3000 -->
      <g transform="translate(221.282747 271.757332) scale(0.1 -0.1)">
       <defs>
        <path id="DejaVuSans-33" d="M 2597 2516 
Q 3050 2419 3304 2112 
Q 3559 1806 3559 1356 
Q 3559 666 3084 287 
Q 2609 -91 1734 -91 
Q 1441 -91 1130 -33 
Q 819 25 488 141 
L 488 750 
Q 750 597 1062 519 
Q 1375 441 1716 441 
Q 2309 441 2620 675 
Q 2931 909 2931 1356 
Q 2931 1769 2642 2001 
Q 2353 2234 1838 2234 
L 1294 2234 
L 1294 2753 
L 1863 2753 
Q 2328 2753 2575 2939 
Q 2822 3125 2822 3475 
Q 2822 3834 2567 4026 
Q 2313 4219 1838 4219 
Q 1578 4219 1281 4162 
Q 984 4106 628 3988 
L 628 4550 
Q 988 4650 1302 4700 
Q 1616 4750 1894 4750 
Q 2613 4750 3031 4423 
Q 3450 4097 3450 3541 
Q 3450 3153 3228 2886 
Q 3006 2619 2597 2516 
z
" transform="scale(0.015625)"/>
       </defs>
       <use xlink:href="#DejaVuSans-33"/>
       <use xlink:href="#DejaVuSans-30" transform="translate(63.623047 0)"/>
       <use xlink:href="#DejaVuSans-30" transform="translate(127.246094 0)"/>
       <use xlink:href="#DejaVuSans-30" transform="translate(190.869141 0)"/>
      </g>
     </g>
    </g>
    <g id="xtick_5">
     <g id="line2d_5">
      <g>
       <use xlink:href="#m3516c1bad3" x="288.589287" y="257.158895" style="stroke: #000000; stroke-width: 0.8"/>
      </g>
     </g>
     <g id="text_5">
      <!-- 4000 -->
      <g transform="translate(275.864287 271.757332) scale(0.1 -0.1)">
       <defs>
        <path id="DejaVuSans-34" d="M 2419 4116 
L 825 1625 
L 2419 1625 
L 2419 4116 
z
M 2253 4666 
L 3047 4666 
L 3047 1625 
L 3713 1625 
L 3713 1100 
L 3047 1100 
L 3047 0 
L 2419 0 
L 2419 1100 
L 313 1100 
L 313 1709 
L 2253 4666 
z
" transform="scale(0.015625)"/>
       </defs>
       <use xlink:href="#DejaVuSans-34"/>
       <use xlink:href="#DejaVuSans-30" transform="translate(63.623047 0)"/>
       <use xlink:href="#DejaVuSans-30" transform="translate(127.246094 0)"/>
       <use xlink:href="#DejaVuSans-30" transform="translate(190.869141 0)"/>
      </g>
     </g>
    </g>
    <g id="xtick_6">
     <g id="line2d_6">
      <g>
       <use xlink:href="#m3516c1bad3" x="343.170826" y="257.158895" style="stroke: #000000; stroke-width: 0.8"/>
      </g>
     </g>
     <g id="text_6">
      <!-- 5000 -->
      <g transform="translate(330.445826 271.757332) scale(0.1 -0.1)">
       <defs>
        <path id="DejaVuSans-35" d="M 691 4666 
L 3169 4666 
L 3169 4134 
L 1269 4134 
L 1269 2991 
Q 1406 3038 1543 3061 
Q 1681 3084 1819 3084 
Q 2600 3084 3056 2656 
Q 3513 2228 3513 1497 
Q 3513 744 3044 326 
Q 2575 -91 1722 -91 
Q 1428 -91 1123 -41 
Q 819 9 494 109 
L 494 744 
Q 775 591 1075 516 
Q 1375 441 1709 441 
Q 2250 441 2565 725 
Q 2881 1009 2881 1497 
Q 2881 1984 2565 2268 
Q 2250 2553 1709 2553 
Q 1456 2553 1204 2497 
Q 953 2441 691 2322 
L 691 4666 
z
" transform="scale(0.015625)"/>
       </defs>
       <use xlink:href="#DejaVuSans-35"/>
       <use xlink:href="#DejaVuSans-30" transform="translate(63.623047 0)"/>
       <use xlink:href="#DejaVuSans-30" transform="translate(127.246094 0)"/>
       <use xlink:href="#DejaVuSans-30" transform="translate(190.869141 0)"/>
      </g>
     </g>
    </g>
    <g id="xtick_7">
     <g id="line2d_7">
      <g>
       <use xlink:href="#m3516c1bad3" x="397.752366" y="257.158895" style="stroke: #000000; stroke-width: 0.8"/>
      </g>
     </g>
     <g id="text_7">
      <!-- 6000 -->
      <g transform="translate(385.027366 271.757332) scale(0.1 -0.1)">
       <defs>
        <path id="DejaVuSans-36" d="M 2113 2584 
Q 1688 2584 1439 2293 
Q 1191 2003 1191 1497 
Q 1191 994 1439 701 
Q 1688 409 2113 409 
Q 2538 409 2786 701 
Q 3034 994 3034 1497 
Q 3034 2003 2786 2293 
Q 2538 2584 2113 2584 
z
M 3366 4563 
L 3366 3988 
Q 3128 4100 2886 4159 
Q 2644 4219 2406 4219 
Q 1781 4219 1451 3797 
Q 1122 3375 1075 2522 
Q 1259 2794 1537 2939 
Q 1816 3084 2150 3084 
Q 2853 3084 3261 2657 
Q 3669 2231 3669 1497 
Q 3669 778 3244 343 
Q 2819 -91 2113 -91 
Q 1303 -91 875 529 
Q 447 1150 447 2328 
Q 447 3434 972 4092 
Q 1497 4750 2381 4750 
Q 2619 4750 2861 4703 
Q 3103 4656 3366 4563 
z
" transform="scale(0.015625)"/>
       </defs>
       <use xlink:href="#DejaVuSans-36"/>
       <use xlink:href="#DejaVuSans-30" transform="translate(63.623047 0)"/>
       <use xlink:href="#DejaVuSans-30" transform="translate(127.246094 0)"/>
       <use xlink:href="#DejaVuSans-30" transform="translate(190.869141 0)"/>
      </g>
     </g>
    </g>
    <g id="text_8">
     <!-- birth_time [µs] -->
     <g transform="translate(197.14363 285.435457) scale(0.1 -0.1)">
      <defs>
       <path id="DejaVuSans-62" d="M 3116 1747 
Q 3116 2381 2855 2742 
Q 2594 3103 2138 3103 
Q 1681 3103 1420 2742 
Q 1159 2381 1159 1747 
Q 1159 1113 1420 752 
Q 1681 391 2138 391 
Q 2594 391 2855 752 
Q 3116 1113 3116 1747 
z
M 1159 2969 
Q 1341 3281 1617 3432 
Q 1894 3584 2278 3584 
Q 2916 3584 3314 3078 
Q 3713 2572 3713 1747 
Q 3713 922 3314 415 
Q 2916 -91 2278 -91 
Q 1894 -91 1617 61 
Q 1341 213 1159 525 
L 1159 0 
L 581 0 
L 581 4863 
L 1159 4863 
L 1159 2969 
z
" transform="scale(0.015625)"/>
       <path id="DejaVuSans-69" d="M 603 3500 
L 1178 3500 
L 1178 0 
L 603 0 
L 603 3500 
z
M 603 4863 
L 1178 4863 
L 1178 4134 
L 603 4134 
L 603 4863 
z
" transform="scale(0.015625)"/>
       <path id="DejaVuSans-72" d="M 2631 2963 
Q 2534 3019 2420 3045 
Q 2306 3072 2169 3072 
Q 1681 3072 1420 2755 
Q 1159 2438 1159 1844 
L 1159 0 
L 581 0 
L 581 3500 
L 1159 3500 
L 1159 2956 
Q 1341 3275 1631 3429 
Q 1922 3584 2338 3584 
Q 2397 3584 2469 3576 
Q 2541 3569 2628 3553 
L 2631 2963 
z
" transform="scale(0.015625)"/>
       <path id="DejaVuSans-74" d="M 1172 4494 
L 1172 3500 
L 2356 3500 
L 2356 3053 
L 1172 3053 
L 1172 1153 
Q 1172 725 1289 603 
Q 1406 481 1766 481 
L 2356 481 
L 2356 0 
L 1766 0 
Q 1100 0 847 248 
Q 594 497 594 1153 
L 594 3053 
L 172 3053 
L 172 3500 
L 594 3500 
L 594 4494 
L 1172 4494 
z
" transform="scale(0.015625)"/>
       <path id="DejaVuSans-68" d="M 3513 2113 
L 3513 0 
L 2938 0 
L 2938 2094 
Q 2938 2591 2744 2837 
Q 2550 3084 2163 3084 
Q 1697 3084 1428 2787 
Q 1159 2491 1159 1978 
L 1159 0 
L 581 0 
L 581 4863 
L 1159 4863 
L 1159 2956 
Q 1366 3272 1645 3428 
Q 1925 3584 2291 3584 
Q 2894 3584 3203 3211 
Q 3513 2838 3513 2113 
z
" transform="scale(0.015625)"/>
       <path id="DejaVuSans-5f" d="M 3263 -1063 
L 3263 -1509 
L -63 -1509 
L -63 -1063 
L 3263 -1063 
z
" transform="scale(0.015625)"/>
       <path id="DejaVuSans-6d" d="M 3328 2828 
Q 3544 3216 3844 3400 
Q 4144 3584 4550 3584 
Q 5097 3584 5394 3201 
Q 5691 2819 5691 2113 
L 5691 0 
L 5113 0 
L 5113 2094 
Q 5113 2597 4934 2840 
Q 4756 3084 4391 3084 
Q 3944 3084 3684 2787 
Q 3425 2491 3425 1978 
L 3425 0 
L 2847 0 
L 2847 2094 
Q 2847 2600 2669 2842 
Q 2491 3084 2119 3084 
Q 1678 3084 1418 2786 
Q 1159 2488 1159 1978 
L 1159 0 
L 581 0 
L 581 3500 
L 1159 3500 
L 1159 2956 
Q 1356 3278 1631 3431 
Q 1906 3584 2284 3584 
Q 2666 3584 2933 3390 
Q 3200 3197 3328 2828 
z
" transform="scale(0.015625)"/>
       <path id="DejaVuSans-65" d="M 3597 1894 
L 3597 1613 
L 953 1613 
Q 991 1019 1311 708 
Q 1631 397 2203 397 
Q 2534 397 2845 478 
Q 3156 559 3463 722 
L 3463 178 
Q 3153 47 2828 -22 
Q 2503 -91 2169 -91 
Q 1331 -91 842 396 
Q 353 884 353 1716 
Q 353 2575 817 3079 
Q 1281 3584 2069 3584 
Q 2775 3584 3186 3129 
Q 3597 2675 3597 1894 
z
M 3022 2063 
Q 3016 2534 2758 2815 
Q 2500 3097 2075 3097 
Q 1594 3097 1305 2825 
Q 1016 2553 972 2059 
L 3022 2063 
z
" transform="scale(0.015625)"/>
       <path id="DejaVuSans-20" transform="scale(0.015625)"/>
       <path id="DejaVuSans-5b" d="M 550 4863 
L 1875 4863 
L 1875 4416 
L 1125 4416 
L 1125 -397 
L 1875 -397 
L 1875 -844 
L 550 -844 
L 550 4863 
z
" transform="scale(0.015625)"/>
       <path id="DejaVuSans-b5" d="M 544 -1331 
L 544 3500 
L 1119 3500 
L 1119 1325 
Q 1119 872 1334 640 
Q 1550 409 1972 409 
Q 2434 409 2667 671 
Q 2900 934 2900 1459 
L 2900 3500 
L 3475 3500 
L 3475 806 
Q 3475 619 3529 530 
Q 3584 441 3700 441 
Q 3728 441 3778 458 
Q 3828 475 3916 513 
L 3916 50 
Q 3788 -22 3673 -56 
Q 3559 -91 3450 -91 
Q 3234 -91 3106 31 
Q 2978 153 2931 403 
Q 2775 156 2548 32 
Q 2322 -91 2016 -91 
Q 1697 -91 1473 31 
Q 1250 153 1119 397 
L 1119 -1331 
L 544 -1331 
z
" transform="scale(0.015625)"/>
       <path id="DejaVuSans-73" d="M 2834 3397 
L 2834 2853 
Q 2591 2978 2328 3040 
Q 2066 3103 1784 3103 
Q 1356 3103 1142 2972 
Q 928 2841 928 2578 
Q 928 2378 1081 2264 
Q 1234 2150 1697 2047 
L 1894 2003 
Q 2506 1872 2764 1633 
Q 3022 1394 3022 966 
Q 3022 478 2636 193 
Q 2250 -91 1575 -91 
Q 1294 -91 989 -36 
Q 684 19 347 128 
L 347 722 
Q 666 556 975 473 
Q 1284 391 1588 391 
Q 1994 391 2212 530 
Q 2431 669 2431 922 
Q 2431 1156 2273 1281 
Q 2116 1406 1581 1522 
L 1381 1569 
Q 847 1681 609 1914 
Q 372 2147 372 2553 
Q 372 3047 722 3315 
Q 1072 3584 1716 3584 
Q 2034 3584 2315 3537 
Q 2597 3491 2834 3397 
z
" transform="scale(0.015625)"/>
       <path id="DejaVuSans-5d" d="M 1947 4863 
L 1947 -844 
L 622 -844 
L 622 -397 
L 1369 -397 
L 1369 4416 
L 622 4416 
L 622 4863 
L 1947 4863 
z
" transform="scale(0.015625)"/>
      </defs>
      <use xlink:href="#DejaVuSans-62"/>
      <use xlink:href="#DejaVuSans-69" transform="translate(63.476562 0)"/>
      <use xlink:href="#DejaVuSans-72" transform="translate(91.259766 0)"/>
      <use xlink:href="#DejaVuSans-74" transform="translate(132.373047 0)"/>
      <use xlink:href="#DejaVuSans-68" transform="translate(171.582031 0)"/>
      <use xlink:href="#DejaVuSans-5f" transform="translate(234.960938 0)"/>
      <use xlink:href="#DejaVuSans-74" transform="translate(284.960938 0)"/>
      <use xlink:href="#DejaVuSans-69" transform="translate(324.169922 0)"/>
      <use xlink:href="#DejaVuSans-6d" transform="translate(351.953125 0)"/>
      <use xlink:href="#DejaVuSans-65" transform="translate(449.365234 0)"/>
      <use xlink:href="#DejaVuSans-20" transform="translate(510.888672 0)"/>
      <use xlink:href="#DejaVuSans-5b" transform="translate(542.675781 0)"/>
      <use xlink:href="#DejaVuSans-b5" transform="translate(581.689453 0)"/>
      <use xlink:href="#DejaVuSans-73" transform="translate(645.3125 0)"/>
      <use xlink:href="#DejaVuSans-5d" transform="translate(697.412109 0)"/>
     </g>
    </g>
   </g>
   <g id="matplotlib.axis_2">
    <g id="ytick_1">
     <g id="line2d_8">
      <defs>
       <path id="m9df556da92" d="M 0 0 
L -3.5 0 
" style="stroke: #000000; stroke-width: 0.8"/>
      </defs>
      <g>
       <use xlink:href="#m9df556da92" x="53.328125" y="246.289778" style="stroke: #000000; stroke-width: 0.8"/>
      </g>
     </g>
     <g id="text_9">
      <!-- 0 -->
      <g transform="translate(39.965625 250.088997) scale(0.1 -0.1)">
       <use xlink:href="#DejaVuSans-30"/>
      </g>
     </g>
    </g>
    <g id="ytick_2">
     <g id="line2d_9">
      <g>
       <use xlink:href="#m9df556da92" x="53.328125" y="215.499079" style="stroke: #000000; stroke-width: 0.8"/>
      </g>
     </g>
     <g id="text_10">
      <!-- 250 -->
      <g transform="translate(27.240625 219.298298) scale(0.1 -0.1)">
       <use xlink:href="#DejaVuSans-32"/>
       <use xlink:href="#DejaVuSans-35" transform="translate(63.623047 0)"/>
       <use xlink:href="#DejaVuSans-30" transform="translate(127.246094 0)"/>
      </g>
     </g>
    </g>
    <g id="ytick_3">
     <g id="line2d_10">
      <g>
       <use xlink:href="#m9df556da92" x="53.328125" y="184.70838" style="stroke: #000000; stroke-width: 0.8"/>
      </g>
     </g>
     <g id="text_11">
      <!-- 500 -->
      <g transform="translate(27.240625 188.507599) scale(0.1 -0.1)">
       <use xlink:href="#DejaVuSans-35"/>
       <use xlink:href="#DejaVuSans-30" transform="translate(63.623047 0)"/>
       <use xlink:href="#DejaVuSans-30" transform="translate(127.246094 0)"/>
      </g>
     </g>
    </g>
    <g id="ytick_4">
     <g id="line2d_11">
      <g>
       <use xlink:href="#m9df556da92" x="53.328125" y="153.917681" style="stroke: #000000; stroke-width: 0.8"/>
      </g>
     </g>
     <g id="text_12">
      <!-- 750 -->
      <g transform="translate(27.240625 157.7169) scale(0.1 -0.1)">
       <defs>
        <path id="DejaVuSans-37" d="M 525 4666 
L 3525 4666 
L 3525 4397 
L 1831 0 
L 1172 0 
L 2766 4134 
L 525 4134 
L 525 4666 
z
" transform="scale(0.015625)"/>
       </defs>
       <use xlink:href="#DejaVuSans-37"/>
       <use xlink:href="#DejaVuSans-35" transform="translate(63.623047 0)"/>
       <use xlink:href="#DejaVuSans-30" transform="translate(127.246094 0)"/>
      </g>
     </g>
    </g>
    <g id="ytick_5">
     <g id="line2d_12">
      <g>
       <use xlink:href="#m9df556da92" x="53.328125" y="123.126982" style="stroke: #000000; stroke-width: 0.8"/>
      </g>
     </g>
     <g id="text_13">
      <!-- 1000 -->
      <g transform="translate(20.878125 126.926201) scale(0.1 -0.1)">
       <use xlink:href="#DejaVuSans-31"/>
       <use xlink:href="#DejaVuSans-30" transform="translate(63.623047 0)"/>
       <use xlink:href="#DejaVuSans-30" transform="translate(127.246094 0)"/>
       <use xlink:href="#DejaVuSans-30" transform="translate(190.869141 0)"/>
      </g>
     </g>
    </g>
    <g id="ytick_6">
     <g id="line2d_13">
      <g>
       <use xlink:href="#m9df556da92" x="53.328125" y="92.336283" style="stroke: #000000; stroke-width: 0.8"/>
      </g>
     </g>
     <g id="text_14">
      <!-- 1250 -->
      <g transform="translate(20.878125 96.135502) scale(0.1 -0.1)">
       <use xlink:href="#DejaVuSans-31"/>
       <use xlink:href="#DejaVuSans-32" transform="translate(63.623047 0)"/>
       <use xlink:href="#DejaVuSans-35" transform="translate(127.246094 0)"/>
       <use xlink:href="#DejaVuSans-30" transform="translate(190.869141 0)"/>
      </g>
     </g>
    </g>
    <g id="ytick_7">
     <g id="line2d_14">
      <g>
       <use xlink:href="#m9df556da92" x="53.328125" y="61.545584" style="stroke: #000000; stroke-width: 0.8"/>
      </g>
     </g>
     <g id="text_15">
      <!-- 1500 -->
      <g transform="translate(20.878125 65.344803) scale(0.1 -0.1)">
       <use xlink:href="#DejaVuSans-31"/>
       <use xlink:href="#DejaVuSans-35" transform="translate(63.623047 0)"/>
       <use xlink:href="#DejaVuSans-30" transform="translate(127.246094 0)"/>
       <use xlink:href="#DejaVuSans-30" transform="translate(190.869141 0)"/>
      </g>
     </g>
    </g>
    <g id="ytick_8">
     <g id="line2d_15">
      <g>
       <use xlink:href="#m9df556da92" x="53.328125" y="30.754885" style="stroke: #000000; stroke-width: 0.8"/>
      </g>
     </g>
     <g id="text_16">
      <!-- 1750 -->
      <g transform="translate(20.878125 34.554104) scale(0.1 -0.1)">
       <use xlink:href="#DejaVuSans-31"/>
       <use xlink:href="#DejaVuSans-37" transform="translate(63.623047 0)"/>
       <use xlink:href="#DejaVuSans-35" transform="translate(127.246094 0)"/>
       <use xlink:href="#DejaVuSans-30" transform="translate(190.869141 0)"/>
      </g>
     </g>
    </g>
    <g id="text_17">
     <!-- pulse:0 [counts] -->
     <g transform="translate(14.798438 172.659916) rotate(-90) scale(0.1 -0.1)">
      <defs>
       <path id="DejaVuSans-70" d="M 1159 525 
L 1159 -1331 
L 581 -1331 
L 581 3500 
L 1159 3500 
L 1159 2969 
Q 1341 3281 1617 3432 
Q 1894 3584 2278 3584 
Q 2916 3584 3314 3078 
Q 3713 2572 3713 1747 
Q 3713 922 3314 415 
Q 2916 -91 2278 -91 
Q 1894 -91 1617 61 
Q 1341 213 1159 525 
z
M 3116 1747 
Q 3116 2381 2855 2742 
Q 2594 3103 2138 3103 
Q 1681 3103 1420 2742 
Q 1159 2381 1159 1747 
Q 1159 1113 1420 752 
Q 1681 391 2138 391 
Q 2594 391 2855 752 
Q 3116 1113 3116 1747 
z
" transform="scale(0.015625)"/>
       <path id="DejaVuSans-75" d="M 544 1381 
L 544 3500 
L 1119 3500 
L 1119 1403 
Q 1119 906 1312 657 
Q 1506 409 1894 409 
Q 2359 409 2629 706 
Q 2900 1003 2900 1516 
L 2900 3500 
L 3475 3500 
L 3475 0 
L 2900 0 
L 2900 538 
Q 2691 219 2414 64 
Q 2138 -91 1772 -91 
Q 1169 -91 856 284 
Q 544 659 544 1381 
z
M 1991 3584 
L 1991 3584 
z
" transform="scale(0.015625)"/>
       <path id="DejaVuSans-6c" d="M 603 4863 
L 1178 4863 
L 1178 0 
L 603 0 
L 603 4863 
z
" transform="scale(0.015625)"/>
       <path id="DejaVuSans-3a" d="M 750 794 
L 1409 794 
L 1409 0 
L 750 0 
L 750 794 
z
M 750 3309 
L 1409 3309 
L 1409 2516 
L 750 2516 
L 750 3309 
z
" transform="scale(0.015625)"/>
       <path id="DejaVuSans-63" d="M 3122 3366 
L 3122 2828 
Q 2878 2963 2633 3030 
Q 2388 3097 2138 3097 
Q 1578 3097 1268 2742 
Q 959 2388 959 1747 
Q 959 1106 1268 751 
Q 1578 397 2138 397 
Q 2388 397 2633 464 
Q 2878 531 3122 666 
L 3122 134 
Q 2881 22 2623 -34 
Q 2366 -91 2075 -91 
Q 1284 -91 818 406 
Q 353 903 353 1747 
Q 353 2603 823 3093 
Q 1294 3584 2113 3584 
Q 2378 3584 2631 3529 
Q 2884 3475 3122 3366 
z
" transform="scale(0.015625)"/>
       <path id="DejaVuSans-6f" d="M 1959 3097 
Q 1497 3097 1228 2736 
Q 959 2375 959 1747 
Q 959 1119 1226 758 
Q 1494 397 1959 397 
Q 2419 397 2687 759 
Q 2956 1122 2956 1747 
Q 2956 2369 2687 2733 
Q 2419 3097 1959 3097 
z
M 1959 3584 
Q 2709 3584 3137 3096 
Q 3566 2609 3566 1747 
Q 3566 888 3137 398 
Q 2709 -91 1959 -91 
Q 1206 -91 779 398 
Q 353 888 353 1747 
Q 353 2609 779 3096 
Q 1206 3584 1959 3584 
z
" transform="scale(0.015625)"/>
       <path id="DejaVuSans-6e" d="M 3513 2113 
L 3513 0 
L 2938 0 
L 2938 2094 
Q 2938 2591 2744 2837 
Q 2550 3084 2163 3084 
Q 1697 3084 1428 2787 
Q 1159 2491 1159 1978 
L 1159 0 
L 581 0 
L 581 3500 
L 1159 3500 
L 1159 2956 
Q 1366 3272 1645 3428 
Q 1925 3584 2291 3584 
Q 2894 3584 3203 3211 
Q 3513 2838 3513 2113 
z
" transform="scale(0.015625)"/>
      </defs>
      <use xlink:href="#DejaVuSans-70"/>
      <use xlink:href="#DejaVuSans-75" transform="translate(63.476562 0)"/>
      <use xlink:href="#DejaVuSans-6c" transform="translate(126.855469 0)"/>
      <use xlink:href="#DejaVuSans-73" transform="translate(154.638672 0)"/>
      <use xlink:href="#DejaVuSans-65" transform="translate(206.738281 0)"/>
      <use xlink:href="#DejaVuSans-3a" transform="translate(268.261719 0)"/>
      <use xlink:href="#DejaVuSans-30" transform="translate(301.953125 0)"/>
      <use xlink:href="#DejaVuSans-20" transform="translate(365.576172 0)"/>
      <use xlink:href="#DejaVuSans-5b" transform="translate(397.363281 0)"/>
      <use xlink:href="#DejaVuSans-63" transform="translate(436.376953 0)"/>
      <use xlink:href="#DejaVuSans-6f" transform="translate(491.357422 0)"/>
      <use xlink:href="#DejaVuSans-75" transform="translate(552.539062 0)"/>
      <use xlink:href="#DejaVuSans-6e" transform="translate(615.917969 0)"/>
      <use xlink:href="#DejaVuSans-74" transform="translate(679.296875 0)"/>
      <use xlink:href="#DejaVuSans-73" transform="translate(718.505859 0)"/>
      <use xlink:href="#DejaVuSans-5d" transform="translate(770.605469 0)"/>
     </g>
    </g>
   </g>
   <g id="line2d_16">
    <path d="M 69.749563 245.427639 
L 70.844325 245.427639 
L 70.844325 245.550801 
L 71.939088 245.550801 
L 71.939088 245.797127 
L 73.033851 245.797127 
L 73.033851 244.934987 
L 74.128613 244.934987 
L 74.128613 245.05815 
L 75.223376 245.05815 
L 75.223376 245.304476 
L 76.318138 245.304476 
L 76.318138 245.05815 
L 77.412901 245.05815 
L 77.412901 244.319173 
L 78.507663 244.319173 
L 78.507663 245.05815 
L 79.602426 245.05815 
L 79.602426 244.442336 
L 80.697188 244.442336 
L 80.697188 244.319173 
L 81.791951 244.319173 
L 81.791951 244.688662 
L 82.886713 244.688662 
L 82.886713 244.565499 
L 83.981476 244.565499 
L 83.981476 244.072848 
L 85.076238 244.072848 
L 85.076238 243.70336 
L 87.265763 243.70336 
L 87.265763 243.210708 
L 88.360526 243.210708 
L 88.360526 243.580197 
L 89.455288 243.580197 
L 89.455288 242.718057 
L 91.644814 242.718057 
L 91.644814 243.826522 
L 92.739576 243.826522 
L 92.739576 243.210708 
L 93.834339 243.210708 
L 93.834339 242.225406 
L 94.929101 242.225406 
L 94.929101 243.087546 
L 96.023864 243.087546 
L 96.023864 241.97908 
L 97.118626 241.97908 
L 97.118626 241.609592 
L 98.213389 241.609592 
L 98.213389 240.870615 
L 99.308151 240.870615 
L 99.308151 241.97908 
L 100.402914 241.97908 
L 100.402914 240.870615 
L 101.497676 240.870615 
L 101.497676 240.008476 
L 102.592439 240.008476 
L 102.592439 240.131638 
L 103.687201 240.131638 
L 103.687201 237.422057 
L 104.781964 237.422057 
L 104.781964 240.377964 
L 105.876726 240.377964 
L 105.876726 240.747452 
L 106.971489 240.747452 
L 106.971489 240.131638 
L 108.066252 240.131638 
L 108.066252 239.023173 
L 109.161014 239.023173 
L 109.161014 238.776848 
L 110.255777 238.776848 
L 110.255777 237.914708 
L 111.350539 237.914708 
L 111.350539 237.54522 
L 112.445302 237.54522 
L 112.445302 236.313592 
L 113.540064 236.313592 
L 113.540064 235.205127 
L 115.729589 235.205127 
L 115.729589 234.835638 
L 116.824352 234.835638 
L 116.824352 233.60401 
L 117.919114 233.60401 
L 117.919114 234.46615 
L 119.013877 234.46615 
L 119.013877 234.096661 
L 120.108639 234.096661 
L 120.108639 231.756568 
L 121.203402 231.756568 
L 121.203402 229.662801 
L 122.298164 229.662801 
L 122.298164 229.416475 
L 123.392927 229.416475 
L 123.392927 229.662801 
L 124.487689 229.662801 
L 124.487689 224.613126 
L 125.582452 224.613126 
L 125.582452 228.061684 
L 126.677215 228.061684 
L 126.677215 225.22894 
L 127.771977 225.22894 
L 127.771977 226.706894 
L 128.86674 226.706894 
L 128.86674 225.721591 
L 129.961502 225.721591 
L 129.961502 224.3668 
L 131.056265 224.3668 
L 131.056265 222.888847 
L 132.151027 222.888847 
L 132.151027 220.548754 
L 133.24579 220.548754 
L 133.24579 221.164568 
L 134.340552 221.164568 
L 134.340552 216.730707 
L 135.435315 216.730707 
L 135.435315 217.346521 
L 136.530077 217.346521 
L 136.530077 214.267451 
L 137.62484 214.267451 
L 137.62484 213.158986 
L 138.719602 213.158986 
L 138.719602 212.173684 
L 139.814365 212.173684 
L 139.814365 212.420009 
L 140.909127 212.420009 
L 140.909127 210.449405 
L 142.00389 210.449405 
L 142.00389 208.971451 
L 143.098652 208.971451 
L 143.098652 202.566986 
L 144.193415 202.566986 
L 144.193415 205.769218 
L 145.288178 205.769218 
L 145.288178 202.32066 
L 146.38294 202.32066 
L 146.38294 203.1828 
L 147.477703 203.1828 
L 147.477703 201.951172 
L 148.572465 201.951172 
L 148.572465 197.02466 
L 149.667228 197.02466 
L 149.667228 196.778334 
L 150.76199 196.778334 
L 150.76199 193.452939 
L 151.856753 193.452939 
L 151.856753 192.221311 
L 152.951515 192.221311 
L 152.951515 195.793032 
L 154.046278 195.793032 
L 154.046278 186.186334 
L 155.14104 186.186334 
L 155.14104 184.092566 
L 156.235803 184.092566 
L 156.235803 184.954706 
L 157.330565 184.954706 
L 157.330565 180.151357 
L 158.425328 180.151357 
L 158.425328 177.072287 
L 159.52009 177.072287 
L 159.52009 178.057589 
L 160.614853 178.057589 
L 160.614853 178.427077 
L 161.709615 178.427077 
L 161.709615 174.239542 
L 162.804378 174.239542 
L 162.804378 170.544659 
L 163.899141 170.544659 
L 163.899141 160.814798 
L 164.993903 160.814798 
L 164.993903 163.893868 
L 166.088666 163.893868 
L 166.088666 159.336844 
L 167.183428 159.336844 
L 167.183428 155.395635 
L 168.278191 155.395635 
L 168.278191 153.917681 
L 169.372953 153.917681 
L 169.372953 155.765123 
L 170.467716 155.765123 
L 170.467716 149.237495 
L 171.562478 149.237495 
L 171.562478 150.34596 
L 172.657241 150.34596 
L 172.657241 144.926797 
L 173.752003 144.926797 
L 173.752003 144.803634 
L 174.846766 144.803634 
L 174.846766 145.173123 
L 175.941528 145.173123 
L 175.941528 143.572006 
L 177.036291 143.572006 
L 177.036291 131.748378 
L 178.131053 131.748378 
L 178.131053 133.842145 
L 179.225816 133.842145 
L 179.225816 131.255727 
L 180.320579 131.255727 
L 180.320579 126.329215 
L 181.415341 126.329215 
L 181.415341 122.018517 
L 182.510104 122.018517 
L 182.510104 122.14168 
L 183.604866 122.14168 
L 183.604866 116.722517 
L 184.699629 116.722517 
L 184.699629 110.441214 
L 185.794391 110.441214 
L 185.794391 116.476191 
L 186.889154 116.476191 
L 186.889154 115.367726 
L 187.983916 115.367726 
L 187.983916 105.391539 
L 189.078679 105.391539 
L 189.078679 92.952097 
L 190.173441 92.952097 
L 190.173441 95.045864 
L 191.268204 95.045864 
L 191.268204 92.705771 
L 192.362966 92.705771 
L 192.362966 86.547631 
L 193.457729 86.547631 
L 193.457729 83.961213 
L 194.552491 83.961213 
L 194.552491 80.266329 
L 195.647254 80.266329 
L 195.647254 91.966795 
L 196.742016 91.966795 
L 196.742016 76.448282 
L 197.836779 76.448282 
L 197.836779 85.931818 
L 198.931542 85.931818 
L 198.931542 77.064096 
L 200.026304 77.064096 
L 200.026304 73.369212 
L 202.215829 73.369212 
L 202.215829 73.246049 
L 203.310592 73.246049 
L 203.310592 56.495909 
L 204.405354 56.495909 
L 204.405354 64.501491 
L 206.594879 64.501491 
L 206.594879 52.677863 
L 207.689642 52.677863 
L 207.689642 62.407723 
L 208.784404 62.407723 
L 208.784404 63.516189 
L 209.879167 63.516189 
L 209.879167 57.234886 
L 210.973929 57.234886 
L 210.973929 43.810141 
L 212.068692 43.810141 
L 212.068692 42.701676 
L 213.163454 42.701676 
L 213.163454 42.824839 
L 214.258217 42.824839 
L 214.258217 35.681397 
L 215.352979 35.681397 
L 215.352979 31.493862 
L 216.447742 31.493862 
L 216.447742 33.094978 
L 217.542505 33.094978 
L 217.542505 31.86335 
L 218.637267 31.86335 
L 218.637267 38.883629 
L 219.73203 38.883629 
L 219.73203 29.64642 
L 220.826792 29.64642 
L 220.826792 30.631722 
L 221.921555 30.631722 
L 221.921555 27.92214 
L 223.016317 27.92214 
L 223.016317 32.232838 
L 224.11108 32.232838 
L 224.11108 24.104094 
L 225.205842 24.104094 
L 225.205842 35.681397 
L 226.300605 35.681397 
L 226.300605 31.493862 
L 227.395367 31.493862 
L 227.395367 23.611443 
L 228.49013 23.611443 
L 228.49013 28.661117 
L 229.584892 28.661117 
L 229.584892 18.561768 
L 230.679655 18.561768 
L 230.679655 27.306326 
L 231.774417 27.306326 
L 231.774417 32.479164 
L 232.86918 32.479164 
L 232.86918 28.537954 
L 233.963942 28.537954 
L 233.963942 19.54707 
L 235.058705 19.54707 
L 235.058705 32.72549 
L 236.153468 32.72549 
L 236.153468 28.414792 
L 237.24823 28.414792 
L 237.24823 21.764001 
L 238.342993 21.764001 
L 238.342993 40.484746 
L 239.437755 40.484746 
L 239.437755 26.56735 
L 240.532518 26.56735 
L 240.532518 24.227257 
L 241.62728 24.227257 
L 241.62728 39.622606 
L 242.722043 39.622606 
L 242.722043 30.754885 
L 243.816805 30.754885 
L 243.816805 26.074699 
L 244.911568 26.074699 
L 244.911568 40.23842 
L 246.00633 40.23842 
L 246.00633 33.464466 
L 247.101093 33.464466 
L 247.101093 45.657583 
L 248.195855 45.657583 
L 248.195855 42.948002 
L 249.290618 42.948002 
L 249.290618 42.824839 
L 250.38538 42.824839 
L 250.38538 42.085862 
L 251.480143 42.085862 
L 251.480143 36.543536 
L 252.574906 36.543536 
L 252.574906 34.696094 
L 253.669668 34.696094 
L 253.669668 39.253118 
L 254.764431 39.253118 
L 254.764431 53.786328 
L 255.859193 53.786328 
L 255.859193 46.273397 
L 256.953956 46.273397 
L 256.953956 48.61349 
L 258.048718 48.61349 
L 258.048718 61.668747 
L 259.143481 61.668747 
L 259.143481 58.220188 
L 260.238243 58.220188 
L 260.238243 56.495909 
L 261.333006 56.495909 
L 261.333006 57.481212 
L 262.427768 57.481212 
L 262.427768 64.00884 
L 263.522531 64.00884 
L 263.522531 60.06763 
L 264.617293 60.06763 
L 264.617293 62.900375 
L 265.712056 62.900375 
L 265.712056 62.777212 
L 266.806818 62.777212 
L 266.806818 73.122887 
L 267.901581 73.122887 
L 267.901581 68.935352 
L 268.996343 68.935352 
L 268.996343 79.034701 
L 270.091106 79.034701 
L 270.091106 77.803073 
L 271.185869 77.803073 
L 271.185869 79.773678 
L 272.280631 79.773678 
L 272.280631 88.764562 
L 273.375394 88.764562 
L 273.375394 93.567911 
L 274.470156 93.567911 
L 274.470156 93.321585 
L 275.564919 93.321585 
L 275.564919 94.43005 
L 276.659681 94.43005 
L 276.659681 98.494423 
L 277.754444 98.494423 
L 277.754444 97.50912 
L 278.849206 97.50912 
L 278.849206 108.224284 
L 279.943969 108.224284 
L 279.943969 97.385958 
L 281.038731 97.385958 
L 281.038731 108.224284 
L 282.133494 108.224284 
L 282.133494 110.194888 
L 283.228256 110.194888 
L 283.228256 108.470609 
L 284.323019 108.470609 
L 284.323019 116.106703 
L 285.417781 116.106703 
L 285.417781 124.35861 
L 286.512544 124.35861 
L 286.512544 120.786889 
L 287.607306 120.786889 
L 287.607306 121.772191 
L 288.702069 121.772191 
L 288.702069 127.191354 
L 289.796832 127.191354 
L 289.796832 131.871541 
L 290.891594 131.871541 
L 290.891594 134.95061 
L 291.986357 134.95061 
L 291.986357 135.196936 
L 293.081119 135.196936 
L 293.081119 137.906518 
L 294.175882 137.906518 
L 294.175882 148.005867 
L 295.270644 148.005867 
L 295.270644 151.577588 
L 296.365407 151.577588 
L 296.365407 149.48382 
L 297.460169 149.48382 
L 297.460169 150.222797 
L 299.649694 150.222797 
L 299.649694 158.967356 
L 300.744457 158.967356 
L 300.744457 155.765123 
L 301.839219 155.765123 
L 301.839219 160.568472 
L 302.933982 160.568472 
L 302.933982 166.233961 
L 304.028744 166.233961 
L 304.028744 168.327728 
L 305.123507 168.327728 
L 305.123507 169.805682 
L 306.218269 169.805682 
L 306.218269 175.224845 
L 307.313032 175.224845 
L 307.313032 178.427077 
L 308.407795 178.427077 
L 308.407795 178.673403 
L 309.502557 178.673403 
L 309.502557 179.042891 
L 310.59732 179.042891 
L 310.59732 179.289217 
L 311.692082 179.289217 
L 311.692082 184.954706 
L 312.786845 184.954706 
L 312.786845 185.57052 
L 313.881607 185.57052 
L 313.881607 186.802148 
L 314.97637 186.802148 
L 314.97637 192.221311 
L 316.071132 192.221311 
L 316.071132 188.403264 
L 317.165895 188.403264 
L 317.165895 195.177218 
L 318.260657 195.177218 
L 318.260657 194.684567 
L 319.35542 194.684567 
L 319.35542 195.300381 
L 320.450182 195.300381 
L 320.450182 197.394148 
L 321.544945 197.394148 
L 321.544945 204.783916 
L 322.639707 204.783916 
L 322.639707 206.754521 
L 323.73447 206.754521 
L 323.73447 205.892381 
L 324.829233 205.892381 
L 324.829233 202.690148 
L 325.923995 202.690148 
L 325.923995 206.261869 
L 327.018758 206.261869 
L 327.018758 209.217777 
L 328.11352 209.217777 
L 328.11352 210.942056 
L 329.208283 210.942056 
L 329.208283 215.99173 
L 330.303045 215.99173 
L 330.303045 214.760102 
L 331.397808 214.760102 
L 331.397808 217.592847 
L 332.49257 217.592847 
L 332.49257 217.223358 
L 333.587333 217.223358 
L 333.587333 219.0708 
L 334.682095 219.0708 
L 334.682095 219.93294 
L 335.776858 219.93294 
L 335.776858 221.534056 
L 336.87162 221.534056 
L 336.87162 219.686614 
L 337.966383 219.686614 
L 337.966383 223.750987 
L 339.061145 223.750987 
L 339.061145 221.164568 
L 340.155908 221.164568 
L 340.155908 226.337405 
L 341.25067 226.337405 
L 341.25067 226.214242 
L 342.345433 226.214242 
L 342.345433 227.815359 
L 343.440196 227.815359 
L 343.440196 226.706894 
L 344.534958 226.706894 
L 344.534958 226.460568 
L 345.629721 226.460568 
L 345.629721 231.510243 
L 346.724483 231.510243 
L 346.724483 229.17015 
L 347.819246 229.17015 
L 347.819246 231.633405 
L 348.914008 231.633405 
L 348.914008 233.111359 
L 350.008771 233.111359 
L 350.008771 236.067266 
L 351.103533 236.067266 
L 351.103533 233.60401 
L 352.198296 233.60401 
L 352.198296 234.219824 
L 353.293058 234.219824 
L 353.293058 235.451452 
L 354.387821 235.451452 
L 354.387821 237.175731 
L 355.482583 237.175731 
L 355.482583 237.791545 
L 356.577346 237.791545 
L 356.577346 235.697778 
L 357.672108 235.697778 
L 357.672108 237.54522 
L 358.766871 237.54522 
L 358.766871 237.052569 
L 359.861633 237.052569 
L 359.861633 238.407359 
L 360.956396 238.407359 
L 360.956396 239.023173 
L 362.051159 239.023173 
L 362.051159 238.653685 
L 363.145921 238.653685 
L 363.145921 239.023173 
L 364.240684 239.023173 
L 364.240684 239.146336 
L 365.335446 239.146336 
L 365.335446 240.501127 
L 366.430209 240.501127 
L 366.430209 240.747452 
L 368.619734 240.747452 
L 368.619734 240.377964 
L 369.714496 240.377964 
L 369.714496 242.594894 
L 370.809259 242.594894 
L 370.809259 241.116941 
L 371.904021 241.116941 
L 371.904021 242.718057 
L 372.998784 242.718057 
L 372.998784 242.225406 
L 374.093546 242.225406 
L 374.093546 242.102243 
L 375.188309 242.102243 
L 375.188309 241.97908 
L 376.283071 241.97908 
L 376.283071 243.580197 
L 377.377834 243.580197 
L 377.377834 244.072848 
L 378.472596 244.072848 
L 378.472596 243.333871 
L 379.567359 243.333871 
L 379.567359 243.949685 
L 380.662122 243.949685 
L 380.662122 243.333871 
L 381.756884 243.333871 
L 381.756884 243.580197 
L 383.946409 243.580197 
L 383.946409 245.181313 
L 385.041172 245.181313 
L 385.041172 244.319173 
L 386.135934 244.319173 
L 386.135934 244.565499 
L 388.325459 244.565499 
L 388.325459 244.072848 
L 389.420222 244.072848 
L 389.420222 245.05815 
L 390.514984 245.05815 
L 390.514984 244.442336 
L 391.609747 244.442336 
L 391.609747 244.811825 
L 392.704509 244.811825 
L 392.704509 244.565499 
L 393.799272 244.565499 
L 393.799272 245.797127 
L 394.894034 245.797127 
L 394.894034 245.181313 
L 395.988797 245.181313 
L 395.988797 244.565499 
L 397.08356 244.565499 
L 397.08356 245.550801 
L 398.178322 245.550801 
L 398.178322 245.550801 
" clip-path="url(#pb9c5a03d4c)" style="fill: none; stroke: #1f77b4; stroke-width: 1.5; stroke-linecap: square"/>
   </g>
   <g id="patch_3">
    <path d="M 53.328125 257.158895 
L 53.328125 7.2 
" style="fill: none; stroke: #000000; stroke-width: 0.8; stroke-linejoin: miter; stroke-linecap: square"/>
   </g>
   <g id="patch_4">
    <path d="M 414.59976 257.158895 
L 414.59976 7.2 
" style="fill: none; stroke: #000000; stroke-width: 0.8; stroke-linejoin: miter; stroke-linecap: square"/>
   </g>
   <g id="patch_5">
    <path d="M 53.328125 257.158895 
L 414.59976 257.158895 
" style="fill: none; stroke: #000000; stroke-width: 0.8; stroke-linejoin: miter; stroke-linecap: square"/>
   </g>
   <g id="patch_6">
    <path d="M 53.328125 7.2 
L 414.59976 7.2 
" style="fill: none; stroke: #000000; stroke-width: 0.8; stroke-linejoin: miter; stroke-linecap: square"/>
   </g>
  </g>
  <g id="axes_2">
   <g id="patch_7">
    <path d="M 503.927885 257.158895 
L 865.19952 257.158895 
L 865.19952 7.2 
L 503.927885 7.2 
z
" style="fill: #ffffff"/>
   </g>
   <g id="matplotlib.axis_3">
    <g id="xtick_8">
     <g id="line2d_17">
      <g>
       <use xlink:href="#m3516c1bad3" x="512.973909" y="257.158895" style="stroke: #000000; stroke-width: 0.8"/>
      </g>
     </g>
     <g id="text_18">
      <!-- 0 -->
      <g transform="translate(509.792659 271.757332) scale(0.1 -0.1)">
       <use xlink:href="#DejaVuSans-30"/>
      </g>
     </g>
    </g>
    <g id="xtick_9">
     <g id="line2d_18">
      <g>
       <use xlink:href="#m3516c1bad3" x="587.490793" y="257.158895" style="stroke: #000000; stroke-width: 0.8"/>
      </g>
     </g>
     <g id="text_19">
      <!-- 2 -->
      <g transform="translate(584.309543 271.757332) scale(0.1 -0.1)">
       <use xlink:href="#DejaVuSans-32"/>
      </g>
     </g>
    </g>
    <g id="xtick_10">
     <g id="line2d_19">
      <g>
       <use xlink:href="#m3516c1bad3" x="662.007676" y="257.158895" style="stroke: #000000; stroke-width: 0.8"/>
      </g>
     </g>
     <g id="text_20">
      <!-- 4 -->
      <g transform="translate(658.826426 271.757332) scale(0.1 -0.1)">
       <use xlink:href="#DejaVuSans-34"/>
      </g>
     </g>
    </g>
    <g id="xtick_11">
     <g id="line2d_20">
      <g>
       <use xlink:href="#m3516c1bad3" x="736.52456" y="257.158895" style="stroke: #000000; stroke-width: 0.8"/>
      </g>
     </g>
     <g id="text_21">
      <!-- 6 -->
      <g transform="translate(733.34331 271.757332) scale(0.1 -0.1)">
       <use xlink:href="#DejaVuSans-36"/>
      </g>
     </g>
    </g>
    <g id="xtick_12">
     <g id="line2d_21">
      <g>
       <use xlink:href="#m3516c1bad3" x="811.041443" y="257.158895" style="stroke: #000000; stroke-width: 0.8"/>
      </g>
     </g>
     <g id="text_22">
      <!-- 8 -->
      <g transform="translate(807.860193 271.757332) scale(0.1 -0.1)">
       <defs>
        <path id="DejaVuSans-38" d="M 2034 2216 
Q 1584 2216 1326 1975 
Q 1069 1734 1069 1313 
Q 1069 891 1326 650 
Q 1584 409 2034 409 
Q 2484 409 2743 651 
Q 3003 894 3003 1313 
Q 3003 1734 2745 1975 
Q 2488 2216 2034 2216 
z
M 1403 2484 
Q 997 2584 770 2862 
Q 544 3141 544 3541 
Q 544 4100 942 4425 
Q 1341 4750 2034 4750 
Q 2731 4750 3128 4425 
Q 3525 4100 3525 3541 
Q 3525 3141 3298 2862 
Q 3072 2584 2669 2484 
Q 3125 2378 3379 2068 
Q 3634 1759 3634 1313 
Q 3634 634 3220 271 
Q 2806 -91 2034 -91 
Q 1263 -91 848 271 
Q 434 634 434 1313 
Q 434 1759 690 2068 
Q 947 2378 1403 2484 
z
M 1172 3481 
Q 1172 3119 1398 2916 
Q 1625 2713 2034 2713 
Q 2441 2713 2670 2916 
Q 2900 3119 2900 3481 
Q 2900 3844 2670 4047 
Q 2441 4250 2034 4250 
Q 1625 4250 1398 4047 
Q 1172 3844 1172 3481 
z
" transform="scale(0.015625)"/>
       </defs>
       <use xlink:href="#DejaVuSans-38"/>
      </g>
     </g>
    </g>
    <g id="text_23">
     <!-- wavelength [Å] -->
     <g transform="translate(646.526202 287.119832) scale(0.1 -0.1)">
      <defs>
       <path id="DejaVuSans-77" d="M 269 3500 
L 844 3500 
L 1563 769 
L 2278 3500 
L 2956 3500 
L 3675 769 
L 4391 3500 
L 4966 3500 
L 4050 0 
L 3372 0 
L 2619 2869 
L 1863 0 
L 1184 0 
L 269 3500 
z
" transform="scale(0.015625)"/>
       <path id="DejaVuSans-61" d="M 2194 1759 
Q 1497 1759 1228 1600 
Q 959 1441 959 1056 
Q 959 750 1161 570 
Q 1363 391 1709 391 
Q 2188 391 2477 730 
Q 2766 1069 2766 1631 
L 2766 1759 
L 2194 1759 
z
M 3341 1997 
L 3341 0 
L 2766 0 
L 2766 531 
Q 2569 213 2275 61 
Q 1981 -91 1556 -91 
Q 1019 -91 701 211 
Q 384 513 384 1019 
Q 384 1609 779 1909 
Q 1175 2209 1959 2209 
L 2766 2209 
L 2766 2266 
Q 2766 2663 2505 2880 
Q 2244 3097 1772 3097 
Q 1472 3097 1187 3025 
Q 903 2953 641 2809 
L 641 3341 
Q 956 3463 1253 3523 
Q 1550 3584 1831 3584 
Q 2591 3584 2966 3190 
Q 3341 2797 3341 1997 
z
" transform="scale(0.015625)"/>
       <path id="DejaVuSans-76" d="M 191 3500 
L 800 3500 
L 1894 563 
L 2988 3500 
L 3597 3500 
L 2284 0 
L 1503 0 
L 191 3500 
z
" transform="scale(0.015625)"/>
       <path id="DejaVuSans-67" d="M 2906 1791 
Q 2906 2416 2648 2759 
Q 2391 3103 1925 3103 
Q 1463 3103 1205 2759 
Q 947 2416 947 1791 
Q 947 1169 1205 825 
Q 1463 481 1925 481 
Q 2391 481 2648 825 
Q 2906 1169 2906 1791 
z
M 3481 434 
Q 3481 -459 3084 -895 
Q 2688 -1331 1869 -1331 
Q 1566 -1331 1297 -1286 
Q 1028 -1241 775 -1147 
L 775 -588 
Q 1028 -725 1275 -790 
Q 1522 -856 1778 -856 
Q 2344 -856 2625 -561 
Q 2906 -266 2906 331 
L 2906 616 
Q 2728 306 2450 153 
Q 2172 0 1784 0 
Q 1141 0 747 490 
Q 353 981 353 1791 
Q 353 2603 747 3093 
Q 1141 3584 1784 3584 
Q 2172 3584 2450 3431 
Q 2728 3278 2906 2969 
L 2906 3500 
L 3481 3500 
L 3481 434 
z
" transform="scale(0.015625)"/>
       <path id="DejaVuSans-c5" d="M 2663 5081 
Q 2663 5278 2523 5417 
Q 2384 5556 2188 5556 
Q 1988 5556 1852 5420 
Q 1716 5284 1716 5081 
Q 1716 4884 1853 4746 
Q 1991 4609 2188 4609 
Q 2384 4609 2523 4746 
Q 2663 4884 2663 5081 
z
M 2188 4044 
L 1338 1722 
L 3041 1722 
L 2188 4044 
z
M 1716 4366 
Q 1525 4494 1428 4673 
Q 1331 4853 1331 5081 
Q 1331 5441 1579 5691 
Q 1828 5941 2188 5941 
Q 2544 5941 2795 5689 
Q 3047 5438 3047 5081 
Q 3047 4863 2948 4678 
Q 2850 4494 2663 4366 
L 4325 0 
L 3669 0 
L 3244 1197 
L 1141 1197 
L 716 0 
L 50 0 
L 1716 4366 
z
" transform="scale(0.015625)"/>
      </defs>
      <use xlink:href="#DejaVuSans-77"/>
      <use xlink:href="#DejaVuSans-61" transform="translate(81.787109 0)"/>
      <use xlink:href="#DejaVuSans-76" transform="translate(143.066406 0)"/>
      <use xlink:href="#DejaVuSans-65" transform="translate(202.246094 0)"/>
      <use xlink:href="#DejaVuSans-6c" transform="translate(263.769531 0)"/>
      <use xlink:href="#DejaVuSans-65" transform="translate(291.552734 0)"/>
      <use xlink:href="#DejaVuSans-6e" transform="translate(353.076172 0)"/>
      <use xlink:href="#DejaVuSans-67" transform="translate(416.455078 0)"/>
      <use xlink:href="#DejaVuSans-74" transform="translate(479.931641 0)"/>
      <use xlink:href="#DejaVuSans-68" transform="translate(519.140625 0)"/>
      <use xlink:href="#DejaVuSans-20" transform="translate(582.519531 0)"/>
      <use xlink:href="#DejaVuSans-5b" transform="translate(614.306641 0)"/>
      <use xlink:href="#DejaVuSans-c5" transform="translate(653.320312 0)"/>
      <use xlink:href="#DejaVuSans-5d" transform="translate(721.728516 0)"/>
     </g>
    </g>
   </g>
   <g id="matplotlib.axis_4">
    <g id="ytick_9">
     <g id="line2d_22">
      <g>
       <use xlink:href="#m9df556da92" x="503.927885" y="246.297095" style="stroke: #000000; stroke-width: 0.8"/>
      </g>
     </g>
     <g id="text_24">
      <!-- 0 -->
      <g transform="translate(490.565385 250.096314) scale(0.1 -0.1)">
       <use xlink:href="#DejaVuSans-30"/>
      </g>
     </g>
    </g>
    <g id="ytick_10">
     <g id="line2d_23">
      <g>
       <use xlink:href="#m9df556da92" x="503.927885" y="215.049108" style="stroke: #000000; stroke-width: 0.8"/>
      </g>
     </g>
     <g id="text_25">
      <!-- 250 -->
      <g transform="translate(477.840385 218.848327) scale(0.1 -0.1)">
       <use xlink:href="#DejaVuSans-32"/>
       <use xlink:href="#DejaVuSans-35" transform="translate(63.623047 0)"/>
       <use xlink:href="#DejaVuSans-30" transform="translate(127.246094 0)"/>
      </g>
     </g>
    </g>
    <g id="ytick_11">
     <g id="line2d_24">
      <g>
       <use xlink:href="#m9df556da92" x="503.927885" y="183.801121" style="stroke: #000000; stroke-width: 0.8"/>
      </g>
     </g>
     <g id="text_26">
      <!-- 500 -->
      <g transform="translate(477.840385 187.60034) scale(0.1 -0.1)">
       <use xlink:href="#DejaVuSans-35"/>
       <use xlink:href="#DejaVuSans-30" transform="translate(63.623047 0)"/>
       <use xlink:href="#DejaVuSans-30" transform="translate(127.246094 0)"/>
      </g>
     </g>
    </g>
    <g id="ytick_12">
     <g id="line2d_25">
      <g>
       <use xlink:href="#m9df556da92" x="503.927885" y="152.553135" style="stroke: #000000; stroke-width: 0.8"/>
      </g>
     </g>
     <g id="text_27">
      <!-- 750 -->
      <g transform="translate(477.840385 156.352354) scale(0.1 -0.1)">
       <use xlink:href="#DejaVuSans-37"/>
       <use xlink:href="#DejaVuSans-35" transform="translate(63.623047 0)"/>
       <use xlink:href="#DejaVuSans-30" transform="translate(127.246094 0)"/>
      </g>
     </g>
    </g>
    <g id="ytick_13">
     <g id="line2d_26">
      <g>
       <use xlink:href="#m9df556da92" x="503.927885" y="121.305148" style="stroke: #000000; stroke-width: 0.8"/>
      </g>
     </g>
     <g id="text_28">
      <!-- 1000 -->
      <g transform="translate(471.477885 125.104367) scale(0.1 -0.1)">
       <use xlink:href="#DejaVuSans-31"/>
       <use xlink:href="#DejaVuSans-30" transform="translate(63.623047 0)"/>
       <use xlink:href="#DejaVuSans-30" transform="translate(127.246094 0)"/>
       <use xlink:href="#DejaVuSans-30" transform="translate(190.869141 0)"/>
      </g>
     </g>
    </g>
    <g id="ytick_14">
     <g id="line2d_27">
      <g>
       <use xlink:href="#m9df556da92" x="503.927885" y="90.057161" style="stroke: #000000; stroke-width: 0.8"/>
      </g>
     </g>
     <g id="text_29">
      <!-- 1250 -->
      <g transform="translate(471.477885 93.85638) scale(0.1 -0.1)">
       <use xlink:href="#DejaVuSans-31"/>
       <use xlink:href="#DejaVuSans-32" transform="translate(63.623047 0)"/>
       <use xlink:href="#DejaVuSans-35" transform="translate(127.246094 0)"/>
       <use xlink:href="#DejaVuSans-30" transform="translate(190.869141 0)"/>
      </g>
     </g>
    </g>
    <g id="ytick_15">
     <g id="line2d_28">
      <g>
       <use xlink:href="#m9df556da92" x="503.927885" y="58.809175" style="stroke: #000000; stroke-width: 0.8"/>
      </g>
     </g>
     <g id="text_30">
      <!-- 1500 -->
      <g transform="translate(471.477885 62.608394) scale(0.1 -0.1)">
       <use xlink:href="#DejaVuSans-31"/>
       <use xlink:href="#DejaVuSans-35" transform="translate(63.623047 0)"/>
       <use xlink:href="#DejaVuSans-30" transform="translate(127.246094 0)"/>
       <use xlink:href="#DejaVuSans-30" transform="translate(190.869141 0)"/>
      </g>
     </g>
    </g>
    <g id="ytick_16">
     <g id="line2d_29">
      <g>
       <use xlink:href="#m9df556da92" x="503.927885" y="27.561188" style="stroke: #000000; stroke-width: 0.8"/>
      </g>
     </g>
     <g id="text_31">
      <!-- 1750 -->
      <g transform="translate(471.477885 31.360407) scale(0.1 -0.1)">
       <use xlink:href="#DejaVuSans-31"/>
       <use xlink:href="#DejaVuSans-37" transform="translate(63.623047 0)"/>
       <use xlink:href="#DejaVuSans-35" transform="translate(127.246094 0)"/>
       <use xlink:href="#DejaVuSans-30" transform="translate(190.869141 0)"/>
      </g>
     </g>
    </g>
    <g id="text_32">
     <!-- pulse:0 [counts] -->
     <g transform="translate(465.398197 172.659916) rotate(-90) scale(0.1 -0.1)">
      <use xlink:href="#DejaVuSans-70"/>
      <use xlink:href="#DejaVuSans-75" transform="translate(63.476562 0)"/>
      <use xlink:href="#DejaVuSans-6c" transform="translate(126.855469 0)"/>
      <use xlink:href="#DejaVuSans-73" transform="translate(154.638672 0)"/>
      <use xlink:href="#DejaVuSans-65" transform="translate(206.738281 0)"/>
      <use xlink:href="#DejaVuSans-3a" transform="translate(268.261719 0)"/>
      <use xlink:href="#DejaVuSans-30" transform="translate(301.953125 0)"/>
      <use xlink:href="#DejaVuSans-20" transform="translate(365.576172 0)"/>
      <use xlink:href="#DejaVuSans-5b" transform="translate(397.363281 0)"/>
      <use xlink:href="#DejaVuSans-63" transform="translate(436.376953 0)"/>
      <use xlink:href="#DejaVuSans-6f" transform="translate(491.357422 0)"/>
      <use xlink:href="#DejaVuSans-75" transform="translate(552.539062 0)"/>
      <use xlink:href="#DejaVuSans-6e" transform="translate(615.917969 0)"/>
      <use xlink:href="#DejaVuSans-74" transform="translate(679.296875 0)"/>
      <use xlink:href="#DejaVuSans-73" transform="translate(718.505859 0)"/>
      <use xlink:href="#DejaVuSans-5d" transform="translate(770.605469 0)"/>
     </g>
    </g>
   </g>
   <g id="line2d_30">
    <path d="M 520.349323 245.047175 
L 521.444085 245.047175 
L 521.444085 245.172167 
L 522.538848 245.172167 
L 522.538848 245.422151 
L 523.633611 245.422151 
L 523.633611 244.922183 
L 524.728373 244.922183 
L 524.728373 245.047175 
L 525.823136 245.047175 
L 525.823136 245.797127 
L 526.917898 245.797127 
L 526.917898 245.297159 
L 528.012661 245.297159 
L 528.012661 244.6722 
L 529.107423 244.6722 
L 529.107423 244.797191 
L 530.202186 244.797191 
L 530.202186 244.422216 
L 531.296948 244.422216 
L 531.296948 245.422151 
L 532.391711 245.422151 
L 532.391711 245.047175 
L 533.486473 245.047175 
L 533.486473 244.172232 
L 534.581236 244.172232 
L 534.581236 243.797256 
L 535.675998 243.797256 
L 535.675998 242.672328 
L 536.770761 242.672328 
L 536.770761 244.04724 
L 538.960286 244.04724 
L 538.960286 243.797256 
L 540.055048 243.797256 
L 540.055048 244.04724 
L 541.149811 244.04724 
L 541.149811 242.672328 
L 542.244574 242.672328 
L 542.244574 242.922312 
L 543.339336 242.922312 
L 543.339336 243.172296 
L 544.434099 243.172296 
L 544.434099 242.672328 
L 545.528861 242.672328 
L 545.528861 242.79732 
L 546.623624 242.79732 
L 546.623624 242.547336 
L 547.718386 242.547336 
L 547.718386 242.422344 
L 548.813149 242.422344 
L 548.813149 241.547401 
L 549.907911 241.547401 
L 549.907911 239.797514 
L 551.002674 239.797514 
L 551.002674 240.047497 
L 552.097436 240.047497 
L 552.097436 238.672586 
L 553.192199 238.672586 
L 553.192199 239.297546 
L 554.286961 239.297546 
L 554.286961 239.172554 
L 555.381724 239.172554 
L 555.381724 237.922634 
L 556.476486 237.922634 
L 556.476486 239.797514 
L 557.571249 239.797514 
L 557.571249 237.672651 
L 558.666012 237.672651 
L 558.666012 237.547659 
L 559.760774 237.547659 
L 559.760774 238.172618 
L 560.855537 238.172618 
L 560.855537 238.547594 
L 561.950299 238.547594 
L 561.950299 238.172618 
L 563.045062 238.172618 
L 563.045062 236.297739 
L 564.139824 236.297739 
L 564.139824 235.547787 
L 565.234587 235.547787 
L 565.234587 235.672779 
L 566.329349 235.672779 
L 566.329349 231.048077 
L 567.424112 231.048077 
L 567.424112 235.172812 
L 568.518874 235.172812 
L 568.518874 232.547981 
L 569.613637 232.547981 
L 569.613637 230.298126 
L 570.708399 230.298126 
L 570.708399 231.048077 
L 571.803162 231.048077 
L 571.803162 231.298061 
L 572.897924 231.298061 
L 572.897924 229.548174 
L 573.992687 229.548174 
L 573.992687 228.798222 
L 575.087449 228.798222 
L 575.087449 226.423375 
L 577.276975 226.423375 
L 577.276975 225.923408 
L 578.371737 225.923408 
L 578.371737 221.798673 
L 579.4665 221.798673 
L 579.4665 224.673488 
L 580.561262 224.673488 
L 580.561262 223.548561 
L 581.656025 223.548561 
L 581.656025 223.423569 
L 582.750787 223.423569 
L 582.750787 217.173971 
L 583.84555 217.173971 
L 583.84555 218.298899 
L 584.940312 218.298899 
L 584.940312 218.173907 
L 586.035075 218.173907 
L 586.035075 216.299028 
L 587.129837 216.299028 
L 587.129837 216.42402 
L 588.2246 216.42402 
L 588.2246 214.924116 
L 589.319362 214.924116 
L 589.319362 211.674326 
L 590.414125 211.674326 
L 590.414125 205.674712 
L 591.508887 205.674712 
L 591.508887 204.549785 
L 592.60365 204.549785 
L 592.60365 207.799575 
L 593.698412 207.799575 
L 593.698412 208.924503 
L 594.793175 208.924503 
L 594.793175 201.05001 
L 595.887938 201.05001 
L 595.887938 203.299865 
L 596.9827 203.299865 
L 596.9827 200.675034 
L 598.077463 200.675034 
L 598.077463 198.550171 
L 599.172225 198.550171 
L 599.172225 193.425501 
L 600.266988 193.425501 
L 600.266988 188.300832 
L 601.36175 188.300832 
L 601.36175 192.425566 
L 602.456513 192.425566 
L 602.456513 194.050461 
L 603.551275 194.050461 
L 603.551275 189.675743 
L 604.646038 189.675743 
L 604.646038 188.800799 
L 605.7408 188.800799 
L 605.7408 180.801315 
L 606.835563 180.801315 
L 606.835563 185.051041 
L 607.930325 185.051041 
L 607.930325 176.801572 
L 609.025088 176.801572 
L 609.025088 173.551782 
L 610.11985 173.551782 
L 610.11985 174.801701 
L 611.214613 174.801701 
L 611.214613 174.926693 
L 612.309375 174.926693 
L 612.309375 165.302313 
L 613.404138 165.302313 
L 613.404138 168.92708 
L 614.498901 168.92708 
L 614.498901 159.427692 
L 615.593663 159.427692 
L 615.593663 161.802539 
L 616.688426 161.802539 
L 616.688426 158.05278 
L 617.783188 158.05278 
L 617.783188 159.052716 
L 618.877951 159.052716 
L 618.877951 147.053489 
L 619.972713 147.053489 
L 619.972713 151.678191 
L 621.067476 151.678191 
L 621.067476 151.303215 
L 622.162238 151.303215 
L 622.162238 148.053425 
L 623.257001 148.053425 
L 623.257001 141.428852 
L 624.351763 141.428852 
L 624.351763 138.429045 
L 625.446526 138.429045 
L 625.446526 145.17861 
L 626.541288 145.17861 
L 626.541288 140.178932 
L 627.636051 140.178932 
L 627.636051 134.054327 
L 628.730813 134.054327 
L 628.730813 129.054649 
L 629.825576 129.054649 
L 629.825576 124.179963 
L 630.920339 124.179963 
L 630.920339 121.680124 
L 632.015101 121.680124 
L 632.015101 116.680446 
L 633.109864 116.680446 
L 633.109864 113.930623 
L 634.204626 113.930623 
L 634.204626 120.930172 
L 635.299389 120.930172 
L 635.299389 108.180994 
L 636.394151 108.180994 
L 636.394151 107.681026 
L 637.488914 107.681026 
L 637.488914 106.68109 
L 638.583676 106.68109 
L 638.583676 105.806147 
L 640.773201 105.806147 
L 640.773201 98.181638 
L 641.867964 98.181638 
L 641.867964 94.181896 
L 642.962726 94.181896 
L 642.962726 93.556936 
L 644.057489 93.556936 
L 644.057489 79.557838 
L 645.152251 79.557838 
L 645.152251 84.307532 
L 646.247014 84.307532 
L 646.247014 83.432588 
L 647.341776 83.432588 
L 647.341776 65.808724 
L 648.436539 65.808724 
L 648.436539 66.308692 
L 649.531302 66.308692 
L 649.531302 70.933394 
L 650.626064 70.933394 
L 650.626064 71.558353 
L 651.720827 71.558353 
L 651.720827 69.683474 
L 652.815589 69.683474 
L 652.815589 64.183828 
L 653.910352 64.183828 
L 653.910352 65.058772 
L 655.005114 65.058772 
L 655.005114 68.433555 
L 656.099877 68.433555 
L 656.099877 59.934102 
L 657.194639 59.934102 
L 657.194639 60.059094 
L 658.289402 60.059094 
L 658.289402 54.809432 
L 659.384164 54.809432 
L 659.384164 50.559706 
L 660.478927 50.559706 
L 660.478927 47.684892 
L 661.573689 47.684892 
L 661.573689 47.184924 
L 662.668452 47.184924 
L 662.668452 49.934747 
L 663.763214 49.934747 
L 663.763214 41.81027 
L 664.857977 41.81027 
L 664.857977 35.935649 
L 665.952739 35.935649 
L 665.952739 39.060447 
L 667.047502 39.060447 
L 667.047502 40.185375 
L 668.142265 40.185375 
L 668.142265 41.935262 
L 669.237027 41.935262 
L 669.237027 35.935649 
L 670.33179 35.935649 
L 670.33179 32.560866 
L 671.426552 32.560866 
L 671.426552 33.810785 
L 672.521315 33.810785 
L 672.521315 33.310818 
L 673.616077 33.310818 
L 673.616077 29.436067 
L 674.71084 29.436067 
L 674.71084 27.186212 
L 675.805602 27.186212 
L 675.805602 25.561317 
L 676.900365 25.561317 
L 676.900365 26.311269 
L 677.995127 26.311269 
L 677.995127 25.436325 
L 679.08989 25.436325 
L 679.08989 26.061285 
L 680.184652 26.061285 
L 680.184652 19.061736 
L 681.279415 19.061736 
L 681.279415 21.811559 
L 683.46894 21.811559 
L 683.46894 21.686567 
L 684.563703 21.686567 
L 684.563703 23.436454 
L 685.658465 23.436454 
L 685.658465 24.061414 
L 686.753228 24.061414 
L 686.753228 22.436518 
L 687.84799 22.436518 
L 687.84799 18.561768 
L 688.942753 18.561768 
L 688.942753 19.686695 
L 690.037515 19.686695 
L 690.037515 24.311398 
L 691.132278 24.311398 
L 691.132278 20.436647 
L 692.22704 20.436647 
L 692.22704 35.435681 
L 693.321803 35.435681 
L 693.321803 23.81143 
L 694.416565 23.81143 
L 694.416565 37.93552 
L 695.511328 37.93552 
L 695.511328 21.561575 
L 696.60609 21.561575 
L 696.60609 24.186406 
L 697.700853 24.186406 
L 697.700853 34.810721 
L 698.795615 34.810721 
L 698.795615 29.061091 
L 699.890378 29.061091 
L 699.890378 41.435294 
L 700.98514 41.435294 
L 700.98514 42.810206 
L 702.079903 42.810206 
L 702.079903 37.31056 
L 703.174666 37.31056 
L 703.174666 41.560286 
L 704.269428 41.560286 
L 704.269428 43.185181 
L 705.364191 43.185181 
L 705.364191 36.935584 
L 706.458953 36.935584 
L 706.458953 41.060318 
L 707.553716 41.060318 
L 707.553716 44.560093 
L 708.648478 44.560093 
L 708.648478 59.80911 
L 709.743241 59.80911 
L 709.743241 58.059223 
L 710.838003 58.059223 
L 710.838003 42.185246 
L 711.932766 42.185246 
L 711.932766 53.809497 
L 713.027528 53.809497 
L 713.027528 56.434328 
L 714.122291 56.434328 
L 714.122291 53.184537 
L 715.217053 53.184537 
L 715.217053 57.559255 
L 716.311816 57.559255 
L 716.311816 72.933265 
L 717.406578 72.933265 
L 717.406578 68.308563 
L 718.501341 68.308563 
L 718.501341 79.807822 
L 719.596103 79.807822 
L 719.596103 79.182862 
L 720.690866 79.182862 
L 720.690866 84.682508 
L 721.785629 84.682508 
L 721.785629 78.807886 
L 722.880391 78.807886 
L 722.880391 83.182604 
L 723.975154 83.182604 
L 723.975154 94.556872 
L 725.069916 94.556872 
L 725.069916 85.932427 
L 726.164679 85.932427 
L 726.164679 89.30721 
L 727.259441 89.30721 
L 727.259441 89.557194 
L 728.354204 89.557194 
L 728.354204 98.30663 
L 729.448966 98.30663 
L 729.448966 105.556163 
L 730.543729 105.556163 
L 730.543729 105.306179 
L 731.638491 105.306179 
L 731.638491 113.305664 
L 732.733254 113.305664 
L 732.733254 109.055937 
L 733.828016 109.055937 
L 733.828016 113.930623 
L 734.922779 113.930623 
L 734.922779 117.680382 
L 736.017541 117.680382 
L 736.017541 116.805438 
L 737.112304 116.805438 
L 737.112304 127.929721 
L 738.207066 127.929721 
L 738.207066 120.80518 
L 739.301829 120.80518 
L 739.301829 124.929915 
L 740.396592 124.929915 
L 740.396592 131.304504 
L 741.491354 131.304504 
L 741.491354 126.679802 
L 742.586117 126.679802 
L 742.586117 128.429689 
L 743.680879 128.429689 
L 743.680879 142.428787 
L 744.775642 142.428787 
L 744.775642 142.303795 
L 745.870404 142.303795 
L 745.870404 145.678578 
L 746.965167 145.678578 
L 746.965167 142.553779 
L 748.059929 142.553779 
L 748.059929 153.928046 
L 749.154692 153.928046 
L 749.154692 154.17803 
L 750.249454 154.17803 
L 750.249454 153.928046 
L 751.344217 153.928046 
L 751.344217 159.052716 
L 752.438979 159.052716 
L 752.438979 164.677354 
L 753.533742 164.677354 
L 753.533742 166.177257 
L 754.628504 166.177257 
L 754.628504 163.552426 
L 755.723267 163.552426 
L 755.723267 169.427048 
L 756.81803 169.427048 
L 756.81803 167.302185 
L 757.912792 167.302185 
L 757.912792 172.80183 
L 759.007555 172.80183 
L 759.007555 177.051556 
L 760.102317 177.051556 
L 760.102317 179.551395 
L 761.19708 179.551395 
L 761.19708 184.051105 
L 762.291842 184.051105 
L 762.291842 181.676258 
L 763.386605 181.676258 
L 763.386605 185.051041 
L 764.481367 185.051041 
L 764.481367 185.925985 
L 765.57613 185.925985 
L 765.57613 187.55088 
L 766.670892 187.55088 
L 766.670892 193.800477 
L 767.765655 193.800477 
L 767.765655 192.800542 
L 768.860417 192.800542 
L 768.860417 195.92534 
L 769.95518 195.92534 
L 769.95518 193.675485 
L 771.049942 193.675485 
L 771.049942 198.925147 
L 772.144705 198.925147 
L 772.144705 206.424664 
L 773.239467 206.424664 
L 773.239467 203.799833 
L 774.33423 203.799833 
L 774.33423 204.674777 
L 775.428993 204.674777 
L 775.428993 209.049495 
L 776.523755 209.049495 
L 776.523755 206.79964 
L 777.618518 206.79964 
L 777.618518 206.674648 
L 778.71328 206.674648 
L 778.71328 211.424342 
L 779.808043 211.424342 
L 779.808043 211.674326 
L 780.902805 211.674326 
L 780.902805 215.674068 
L 781.997568 215.674068 
L 781.997568 211.29935 
L 783.09233 211.29935 
L 783.09233 218.048915 
L 784.187093 218.048915 
L 784.187093 220.173778 
L 785.281855 220.173778 
L 785.281855 220.29877 
L 786.376618 220.29877 
L 786.376618 221.048722 
L 787.47138 221.048722 
L 787.47138 225.798416 
L 788.566143 225.798416 
L 788.566143 223.298577 
L 789.660905 223.298577 
L 789.660905 226.673359 
L 790.755668 226.673359 
L 790.755668 228.67323 
L 791.85043 228.67323 
L 791.85043 225.673424 
L 792.945193 225.673424 
L 792.945193 226.673359 
L 794.039956 226.673359 
L 794.039956 231.298061 
L 795.134718 231.298061 
L 795.134718 226.173391 
L 796.229481 226.173391 
L 796.229481 228.173263 
L 797.324243 228.173263 
L 797.324243 232.672973 
L 798.419006 232.672973 
L 798.419006 232.297997 
L 799.513768 232.297997 
L 799.513768 231.923021 
L 800.608531 231.923021 
L 800.608531 232.922957 
L 801.703293 232.922957 
L 801.703293 234.172876 
L 802.798056 234.172876 
L 802.798056 234.547852 
L 803.892818 234.547852 
L 803.892818 235.422795 
L 804.987581 235.422795 
L 804.987581 234.172876 
L 806.082343 234.172876 
L 806.082343 236.172747 
L 807.177106 236.172747 
L 807.177106 237.672651 
L 808.271868 237.672651 
L 808.271868 237.422667 
L 809.366631 237.422667 
L 809.366631 237.922634 
L 810.461393 237.922634 
L 810.461393 238.422602 
L 811.556156 238.422602 
L 811.556156 237.922634 
L 812.650919 237.922634 
L 812.650919 237.047691 
L 813.745681 237.047691 
L 813.745681 239.172554 
L 814.840444 239.172554 
L 814.840444 240.172489 
L 815.935206 240.172489 
L 815.935206 240.047497 
L 817.029969 240.047497 
L 817.029969 240.172489 
L 818.124731 240.172489 
L 818.124731 241.922377 
L 819.219494 241.922377 
L 819.219494 241.422409 
L 820.314256 241.422409 
L 820.314256 242.547336 
L 821.409019 242.547336 
L 821.409019 241.922377 
L 822.503781 241.922377 
L 822.503781 242.297353 
L 823.598544 242.297353 
L 823.598544 242.922312 
L 824.693306 242.922312 
L 824.693306 243.297288 
L 825.788069 243.297288 
L 825.788069 241.547401 
L 826.882831 241.547401 
L 826.882831 243.297288 
L 827.977594 243.297288 
L 827.977594 243.42228 
L 829.072357 243.42228 
L 829.072357 244.422216 
L 830.167119 244.422216 
L 830.167119 242.672328 
L 831.261882 242.672328 
L 831.261882 244.547208 
L 832.356644 244.547208 
L 832.356644 243.797256 
L 833.451407 243.797256 
L 833.451407 244.922183 
L 834.546169 244.922183 
L 834.546169 244.04724 
L 835.640932 244.04724 
L 835.640932 243.547272 
L 836.735694 243.547272 
L 836.735694 244.547208 
L 837.830457 244.547208 
L 837.830457 244.172232 
L 838.925219 244.172232 
L 838.925219 244.04724 
L 840.019982 244.04724 
L 840.019982 244.547208 
L 841.114744 244.547208 
L 841.114744 244.797191 
L 842.209507 244.797191 
L 842.209507 245.172167 
L 843.304269 245.172167 
L 843.304269 245.547143 
L 844.399032 245.547143 
L 844.399032 245.797127 
L 845.493794 245.797127 
L 845.493794 245.672135 
L 846.588557 245.672135 
L 846.588557 245.422151 
L 847.68332 245.422151 
L 847.68332 245.172167 
L 848.778082 245.172167 
L 848.778082 245.172167 
" clip-path="url(#p7a255ceb01)" style="fill: none; stroke: #1f77b4; stroke-width: 1.5; stroke-linecap: square"/>
   </g>
   <g id="patch_8">
    <path d="M 503.927885 257.158895 
L 503.927885 7.2 
" style="fill: none; stroke: #000000; stroke-width: 0.8; stroke-linejoin: miter; stroke-linecap: square"/>
   </g>
   <g id="patch_9">
    <path d="M 865.19952 257.158895 
L 865.19952 7.2 
" style="fill: none; stroke: #000000; stroke-width: 0.8; stroke-linejoin: miter; stroke-linecap: square"/>
   </g>
   <g id="patch_10">
    <path d="M 503.927885 257.158895 
L 865.19952 257.158895 
" style="fill: none; stroke: #000000; stroke-width: 0.8; stroke-linejoin: miter; stroke-linecap: square"/>
   </g>
   <g id="patch_11">
    <path d="M 503.927885 7.2 
L 865.19952 7.2 
" style="fill: none; stroke: #000000; stroke-width: 0.8; stroke-linejoin: miter; stroke-linecap: square"/>
   </g>
  </g>
 </g>
 <defs>
  <clipPath id="pb9c5a03d4c">
   <rect x="53.328125" y="7.2" width="361.271635" height="249.958895"/>
  </clipPath>
  <clipPath id="p7a255ceb01">
   <rect x="503.927885" y="7.2" width="361.271635" height="249.958895"/>
  </clipPath>
 </defs>
</svg>
