<?xml version="1.0" encoding="utf-8" standalone="no"?>
<!DOCTYPE svg PUBLIC "-//W3C//DTD SVG 1.1//EN"
  "http://www.w3.org/Graphics/SVG/1.1/DTD/svg11.dtd">
<svg xmlns:xlink="http://www.w3.org/1999/xlink" width="872.39952pt" height="296.39952pt" viewBox="0 0 872.39952 296.39952" xmlns="http://www.w3.org/2000/svg" version="1.1">
 <metadata>
  <rdf:RDF xmlns:dc="http://purl.org/dc/elements/1.1/" xmlns:cc="http://creativecommons.org/ns#" xmlns:rdf="http://www.w3.org/1999/02/22-rdf-syntax-ns#">
   <cc:Work>
    <dc:type rdf:resource="http://purl.org/dc/dcmitype/StillImage"/>
    <dc:date>2025-12-09T08:59:27.021808</dc:date>
    <dc:format>image/svg+xml</dc:format>
    <dc:creator>
     <cc:Agent>
      <dc:title>Matplotlib v3.10.7, https://matplotlib.org/</dc:title>
     </cc:Agent>
    </dc:creator>
   </cc:Work>
  </rdf:RDF>
 </metadata>
 <defs>
  <style type="text/css">*{stroke-linejoin: round; stroke-linecap: butt}</style>
 </defs>
 <g id="figure_1">
  <g id="patch_1">
   <path d="M 0 296.39952 
L 872.39952 296.39952 
L 872.39952 0 
L 0 0 
z
" style="fill: #ffffff"/>
  </g>
  <g id="axes_1">
   <g id="patch_2">
    <path d="M 53.328125 257.158895 
L 411.41851 257.158895 
L 411.41851 7.2 
L 53.328125 7.2 
z
" style="fill: #ffffff"/>
   </g>
   <g id="matplotlib.axis_1">
    <g id="xtick_1">
     <g id="line2d_1">
      <defs>
       <path id="mb197119712" d="M 0 0 
L 0 3.5 
" style="stroke: #000000; stroke-width: 0.8"/>
      </defs>
      <g>
       <use xlink:href="#mb197119712" x="68.773881" y="257.158895" style="stroke: #000000; stroke-width: 0.8"/>
      </g>
     </g>
     <g id="text_1">
      <!-- 0 -->
      <g transform="translate(65.592631 271.757332) scale(0.1 -0.1)">
       <defs>
        <path id="DejaVuSans-30" d="M 2034 4250 
Q 1547 4250 1301 3770 
Q 1056 3291 1056 2328 
Q 1056 1369 1301 889 
Q 1547 409 2034 409 
Q 2525 409 2770 889 
Q 3016 1369 3016 2328 
Q 3016 3291 2770 3770 
Q 2525 4250 2034 4250 
z
M 2034 4750 
Q 2819 4750 3233 4129 
Q 3647 3509 3647 2328 
Q 3647 1150 3233 529 
Q 2819 -91 2034 -91 
Q 1250 -91 836 529 
Q 422 1150 422 2328 
Q 422 3509 836 4129 
Q 1250 4750 2034 4750 
z
" transform="scale(0.015625)"/>
       </defs>
       <use xlink:href="#DejaVuSans-30"/>
      </g>
     </g>
    </g>
    <g id="xtick_2">
     <g id="line2d_2">
      <g>
       <use xlink:href="#mb197119712" x="134.254615" y="257.158895" style="stroke: #000000; stroke-width: 0.8"/>
      </g>
     </g>
     <g id="text_2">
      <!-- 1000 -->
      <g transform="translate(121.529615 271.757332) scale(0.1 -0.1)">
       <defs>
        <path id="DejaVuSans-31" d="M 794 531 
L 1825 531 
L 1825 4091 
L 703 3866 
L 703 4441 
L 1819 4666 
L 2450 4666 
L 2450 531 
L 3481 531 
L 3481 0 
L 794 0 
L 794 531 
z
" transform="scale(0.015625)"/>
       </defs>
       <use xlink:href="#DejaVuSans-31"/>
       <use xlink:href="#DejaVuSans-30" transform="translate(63.623047 0)"/>
       <use xlink:href="#DejaVuSans-30" transform="translate(127.246094 0)"/>
       <use xlink:href="#DejaVuSans-30" transform="translate(190.869141 0)"/>
      </g>
     </g>
    </g>
    <g id="xtick_3">
     <g id="line2d_3">
      <g>
       <use xlink:href="#mb197119712" x="199.73535" y="257.158895" style="stroke: #000000; stroke-width: 0.8"/>
      </g>
     </g>
     <g id="text_3">
      <!-- 2000 -->
      <g transform="translate(187.01035 271.757332) scale(0.1 -0.1)">
       <defs>
        <path id="DejaVuSans-32" d="M 1228 531 
L 3431 531 
L 3431 0 
L 469 0 
L 469 531 
Q 828 903 1448 1529 
Q 2069 2156 2228 2338 
Q 2531 2678 2651 2914 
Q 2772 3150 2772 3378 
Q 2772 3750 2511 3984 
Q 2250 4219 1831 4219 
Q 1534 4219 1204 4116 
Q 875 4013 500 3803 
L 500 4441 
Q 881 4594 1212 4672 
Q 1544 4750 1819 4750 
Q 2544 4750 2975 4387 
Q 3406 4025 3406 3419 
Q 3406 3131 3298 2873 
Q 3191 2616 2906 2266 
Q 2828 2175 2409 1742 
Q 1991 1309 1228 531 
z
" transform="scale(0.015625)"/>
       </defs>
       <use xlink:href="#DejaVuSans-32"/>
       <use xlink:href="#DejaVuSans-30" transform="translate(63.623047 0)"/>
       <use xlink:href="#DejaVuSans-30" transform="translate(127.246094 0)"/>
       <use xlink:href="#DejaVuSans-30" transform="translate(190.869141 0)"/>
      </g>
     </g>
    </g>
    <g id="xtick_4">
     <g id="line2d_4">
      <g>
       <use xlink:href="#mb197119712" x="265.216084" y="257.158895" style="stroke: #000000; stroke-width: 0.8"/>
      </g>
     </g>
     <g id="text_4">
      <!-- 3000 -->
      <g transform="translate(252.491084 271.757332) scale(0.1 -0.1)">
       <defs>
        <path id="DejaVuSans-33" d="M 2597 2516 
Q 3050 2419 3304 2112 
Q 3559 1806 3559 1356 
Q 3559 666 3084 287 
Q 2609 -91 1734 -91 
Q 1441 -91 1130 -33 
Q 819 25 488 141 
L 488 750 
Q 750 597 1062 519 
Q 1375 441 1716 441 
Q 2309 441 2620 675 
Q 2931 909 2931 1356 
Q 2931 1769 2642 2001 
Q 2353 2234 1838 2234 
L 1294 2234 
L 1294 2753 
L 1863 2753 
Q 2328 2753 2575 2939 
Q 2822 3125 2822 3475 
Q 2822 3834 2567 4026 
Q 2313 4219 1838 4219 
Q 1578 4219 1281 4162 
Q 984 4106 628 3988 
L 628 4550 
Q 988 4650 1302 4700 
Q 1616 4750 1894 4750 
Q 2613 4750 3031 4423 
Q 3450 4097 3450 3541 
Q 3450 3153 3228 2886 
Q 3006 2619 2597 2516 
z
" transform="scale(0.015625)"/>
       </defs>
       <use xlink:href="#DejaVuSans-33"/>
       <use xlink:href="#DejaVuSans-30" transform="translate(63.623047 0)"/>
       <use xlink:href="#DejaVuSans-30" transform="translate(127.246094 0)"/>
       <use xlink:href="#DejaVuSans-30" transform="translate(190.869141 0)"/>
      </g>
     </g>
    </g>
    <g id="xtick_5">
     <g id="line2d_5">
      <g>
       <use xlink:href="#mb197119712" x="330.696819" y="257.158895" style="stroke: #000000; stroke-width: 0.8"/>
      </g>
     </g>
     <g id="text_5">
      <!-- 4000 -->
      <g transform="translate(317.971819 271.757332) scale(0.1 -0.1)">
       <defs>
        <path id="DejaVuSans-34" d="M 2419 4116 
L 825 1625 
L 2419 1625 
L 2419 4116 
z
M 2253 4666 
L 3047 4666 
L 3047 1625 
L 3713 1625 
L 3713 1100 
L 3047 1100 
L 3047 0 
L 2419 0 
L 2419 1100 
L 313 1100 
L 313 1709 
L 2253 4666 
z
" transform="scale(0.015625)"/>
       </defs>
       <use xlink:href="#DejaVuSans-34"/>
       <use xlink:href="#DejaVuSans-30" transform="translate(63.623047 0)"/>
       <use xlink:href="#DejaVuSans-30" transform="translate(127.246094 0)"/>
       <use xlink:href="#DejaVuSans-30" transform="translate(190.869141 0)"/>
      </g>
     </g>
    </g>
    <g id="xtick_6">
     <g id="line2d_6">
      <g>
       <use xlink:href="#mb197119712" x="396.177553" y="257.158895" style="stroke: #000000; stroke-width: 0.8"/>
      </g>
     </g>
     <g id="text_6">
      <!-- 5000 -->
      <g transform="translate(383.452553 271.757332) scale(0.1 -0.1)">
       <defs>
        <path id="DejaVuSans-35" d="M 691 4666 
L 3169 4666 
L 3169 4134 
L 1269 4134 
L 1269 2991 
Q 1406 3038 1543 3061 
Q 1681 3084 1819 3084 
Q 2600 3084 3056 2656 
Q 3513 2228 3513 1497 
Q 3513 744 3044 326 
Q 2575 -91 1722 -91 
Q 1428 -91 1123 -41 
Q 819 9 494 109 
L 494 744 
Q 775 591 1075 516 
Q 1375 441 1709 441 
Q 2250 441 2565 725 
Q 2881 1009 2881 1497 
Q 2881 1984 2565 2268 
Q 2250 2553 1709 2553 
Q 1456 2553 1204 2497 
Q 953 2441 691 2322 
L 691 4666 
z
" transform="scale(0.015625)"/>
       </defs>
       <use xlink:href="#DejaVuSans-35"/>
       <use xlink:href="#DejaVuSans-30" transform="translate(63.623047 0)"/>
       <use xlink:href="#DejaVuSans-30" transform="translate(127.246094 0)"/>
       <use xlink:href="#DejaVuSans-30" transform="translate(190.869141 0)"/>
      </g>
     </g>
    </g>
    <g id="text_7">
     <!-- birth_time [µs] -->
     <g transform="translate(195.553005 285.435457) scale(0.1 -0.1)">
      <defs>
       <path id="DejaVuSans-62" d="M 3116 1747 
Q 3116 2381 2855 2742 
Q 2594 3103 2138 3103 
Q 1681 3103 1420 2742 
Q 1159 2381 1159 1747 
Q 1159 1113 1420 752 
Q 1681 391 2138 391 
Q 2594 391 2855 752 
Q 3116 1113 3116 1747 
z
M 1159 2969 
Q 1341 3281 1617 3432 
Q 1894 3584 2278 3584 
Q 2916 3584 3314 3078 
Q 3713 2572 3713 1747 
Q 3713 922 3314 415 
Q 2916 -91 2278 -91 
Q 1894 -91 1617 61 
Q 1341 213 1159 525 
L 1159 0 
L 581 0 
L 581 4863 
L 1159 4863 
L 1159 2969 
z
" transform="scale(0.015625)"/>
       <path id="DejaVuSans-69" d="M 603 3500 
L 1178 3500 
L 1178 0 
L 603 0 
L 603 3500 
z
M 603 4863 
L 1178 4863 
L 1178 4134 
L 603 4134 
L 603 4863 
z
" transform="scale(0.015625)"/>
       <path id="DejaVuSans-72" d="M 2631 2963 
Q 2534 3019 2420 3045 
Q 2306 3072 2169 3072 
Q 1681 3072 1420 2755 
Q 1159 2438 1159 1844 
L 1159 0 
L 581 0 
L 581 3500 
L 1159 3500 
L 1159 2956 
Q 1341 3275 1631 3429 
Q 1922 3584 2338 3584 
Q 2397 3584 2469 3576 
Q 2541 3569 2628 3553 
L 2631 2963 
z
" transform="scale(0.015625)"/>
       <path id="DejaVuSans-74" d="M 1172 4494 
L 1172 3500 
L 2356 3500 
L 2356 3053 
L 1172 3053 
L 1172 1153 
Q 1172 725 1289 603 
Q 1406 481 1766 481 
L 2356 481 
L 2356 0 
L 1766 0 
Q 1100 0 847 248 
Q 594 497 594 1153 
L 594 3053 
L 172 3053 
L 172 3500 
L 594 3500 
L 594 4494 
L 1172 4494 
z
" transform="scale(0.015625)"/>
       <path id="DejaVuSans-68" d="M 3513 2113 
L 3513 0 
L 2938 0 
L 2938 2094 
Q 2938 2591 2744 2837 
Q 2550 3084 2163 3084 
Q 1697 3084 1428 2787 
Q 1159 2491 1159 1978 
L 1159 0 
L 581 0 
L 581 4863 
L 1159 4863 
L 1159 2956 
Q 1366 3272 1645 3428 
Q 1925 3584 2291 3584 
Q 2894 3584 3203 3211 
Q 3513 2838 3513 2113 
z
" transform="scale(0.015625)"/>
       <path id="DejaVuSans-5f" d="M 3263 -1063 
L 3263 -1509 
L -63 -1509 
L -63 -1063 
L 3263 -1063 
z
" transform="scale(0.015625)"/>
       <path id="DejaVuSans-6d" d="M 3328 2828 
Q 3544 3216 3844 3400 
Q 4144 3584 4550 3584 
Q 5097 3584 5394 3201 
Q 5691 2819 5691 2113 
L 5691 0 
L 5113 0 
L 5113 2094 
Q 5113 2597 4934 2840 
Q 4756 3084 4391 3084 
Q 3944 3084 3684 2787 
Q 3425 2491 3425 1978 
L 3425 0 
L 2847 0 
L 2847 2094 
Q 2847 2600 2669 2842 
Q 2491 3084 2119 3084 
Q 1678 3084 1418 2786 
Q 1159 2488 1159 1978 
L 1159 0 
L 581 0 
L 581 3500 
L 1159 3500 
L 1159 2956 
Q 1356 3278 1631 3431 
Q 1906 3584 2284 3584 
Q 2666 3584 2933 3390 
Q 3200 3197 3328 2828 
z
" transform="scale(0.015625)"/>
       <path id="DejaVuSans-65" d="M 3597 1894 
L 3597 1613 
L 953 1613 
Q 991 1019 1311 708 
Q 1631 397 2203 397 
Q 2534 397 2845 478 
Q 3156 559 3463 722 
L 3463 178 
Q 3153 47 2828 -22 
Q 2503 -91 2169 -91 
Q 1331 -91 842 396 
Q 353 884 353 1716 
Q 353 2575 817 3079 
Q 1281 3584 2069 3584 
Q 2775 3584 3186 3129 
Q 3597 2675 3597 1894 
z
M 3022 2063 
Q 3016 2534 2758 2815 
Q 2500 3097 2075 3097 
Q 1594 3097 1305 2825 
Q 1016 2553 972 2059 
L 3022 2063 
z
" transform="scale(0.015625)"/>
       <path id="DejaVuSans-20" transform="scale(0.015625)"/>
       <path id="DejaVuSans-5b" d="M 550 4863 
L 1875 4863 
L 1875 4416 
L 1125 4416 
L 1125 -397 
L 1875 -397 
L 1875 -844 
L 550 -844 
L 550 4863 
z
" transform="scale(0.015625)"/>
       <path id="DejaVuSans-b5" d="M 544 -1331 
L 544 3500 
L 1119 3500 
L 1119 1325 
Q 1119 872 1334 640 
Q 1550 409 1972 409 
Q 2434 409 2667 671 
Q 2900 934 2900 1459 
L 2900 3500 
L 3475 3500 
L 3475 806 
Q 3475 619 3529 530 
Q 3584 441 3700 441 
Q 3728 441 3778 458 
Q 3828 475 3916 513 
L 3916 50 
Q 3788 -22 3673 -56 
Q 3559 -91 3450 -91 
Q 3234 -91 3106 31 
Q 2978 153 2931 403 
Q 2775 156 2548 32 
Q 2322 -91 2016 -91 
Q 1697 -91 1473 31 
Q 1250 153 1119 397 
L 1119 -1331 
L 544 -1331 
z
" transform="scale(0.015625)"/>
       <path id="DejaVuSans-73" d="M 2834 3397 
L 2834 2853 
Q 2591 2978 2328 3040 
Q 2066 3103 1784 3103 
Q 1356 3103 1142 2972 
Q 928 2841 928 2578 
Q 928 2378 1081 2264 
Q 1234 2150 1697 2047 
L 1894 2003 
Q 2506 1872 2764 1633 
Q 3022 1394 3022 966 
Q 3022 478 2636 193 
Q 2250 -91 1575 -91 
Q 1294 -91 989 -36 
Q 684 19 347 128 
L 347 722 
Q 666 556 975 473 
Q 1284 391 1588 391 
Q 1994 391 2212 530 
Q 2431 669 2431 922 
Q 2431 1156 2273 1281 
Q 2116 1406 1581 1522 
L 1381 1569 
Q 847 1681 609 1914 
Q 372 2147 372 2553 
Q 372 3047 722 3315 
Q 1072 3584 1716 3584 
Q 2034 3584 2315 3537 
Q 2597 3491 2834 3397 
z
" transform="scale(0.015625)"/>
       <path id="DejaVuSans-5d" d="M 1947 4863 
L 1947 -844 
L 622 -844 
L 622 -397 
L 1369 -397 
L 1369 4416 
L 622 4416 
L 622 4863 
L 1947 4863 
z
" transform="scale(0.015625)"/>
      </defs>
      <use xlink:href="#DejaVuSans-62"/>
      <use xlink:href="#DejaVuSans-69" transform="translate(63.476562 0)"/>
      <use xlink:href="#DejaVuSans-72" transform="translate(91.259766 0)"/>
      <use xlink:href="#DejaVuSans-74" transform="translate(132.373047 0)"/>
      <use xlink:href="#DejaVuSans-68" transform="translate(171.582031 0)"/>
      <use xlink:href="#DejaVuSans-5f" transform="translate(234.960938 0)"/>
      <use xlink:href="#DejaVuSans-74" transform="translate(284.960938 0)"/>
      <use xlink:href="#DejaVuSans-69" transform="translate(324.169922 0)"/>
      <use xlink:href="#DejaVuSans-6d" transform="translate(351.953125 0)"/>
      <use xlink:href="#DejaVuSans-65" transform="translate(449.365234 0)"/>
      <use xlink:href="#DejaVuSans-20" transform="translate(510.888672 0)"/>
      <use xlink:href="#DejaVuSans-5b" transform="translate(542.675781 0)"/>
      <use xlink:href="#DejaVuSans-b5" transform="translate(581.689453 0)"/>
      <use xlink:href="#DejaVuSans-73" transform="translate(645.3125 0)"/>
      <use xlink:href="#DejaVuSans-5d" transform="translate(697.412109 0)"/>
     </g>
    </g>
   </g>
   <g id="matplotlib.axis_2">
    <g id="ytick_1">
     <g id="line2d_7">
      <defs>
       <path id="m9f345607d2" d="M 0 0 
L -3.5 0 
" style="stroke: #000000; stroke-width: 0.8"/>
      </defs>
      <g>
       <use xlink:href="#m9f345607d2" x="53.328125" y="246.025581" style="stroke: #000000; stroke-width: 0.8"/>
      </g>
     </g>
     <g id="text_8">
      <!-- 0 -->
      <g transform="translate(39.965625 249.8248) scale(0.1 -0.1)">
       <use xlink:href="#DejaVuSans-30"/>
      </g>
     </g>
    </g>
    <g id="ytick_2">
     <g id="line2d_8">
      <g>
       <use xlink:href="#m9f345607d2" x="53.328125" y="207.949951" style="stroke: #000000; stroke-width: 0.8"/>
      </g>
     </g>
     <g id="text_9">
      <!-- 1000 -->
      <g transform="translate(20.878125 211.74917) scale(0.1 -0.1)">
       <use xlink:href="#DejaVuSans-31"/>
       <use xlink:href="#DejaVuSans-30" transform="translate(63.623047 0)"/>
       <use xlink:href="#DejaVuSans-30" transform="translate(127.246094 0)"/>
       <use xlink:href="#DejaVuSans-30" transform="translate(190.869141 0)"/>
      </g>
     </g>
    </g>
    <g id="ytick_3">
     <g id="line2d_9">
      <g>
       <use xlink:href="#m9f345607d2" x="53.328125" y="169.874321" style="stroke: #000000; stroke-width: 0.8"/>
      </g>
     </g>
     <g id="text_10">
      <!-- 2000 -->
      <g transform="translate(20.878125 173.67354) scale(0.1 -0.1)">
       <use xlink:href="#DejaVuSans-32"/>
       <use xlink:href="#DejaVuSans-30" transform="translate(63.623047 0)"/>
       <use xlink:href="#DejaVuSans-30" transform="translate(127.246094 0)"/>
       <use xlink:href="#DejaVuSans-30" transform="translate(190.869141 0)"/>
      </g>
     </g>
    </g>
    <g id="ytick_4">
     <g id="line2d_10">
      <g>
       <use xlink:href="#m9f345607d2" x="53.328125" y="131.798691" style="stroke: #000000; stroke-width: 0.8"/>
      </g>
     </g>
     <g id="text_11">
      <!-- 3000 -->
      <g transform="translate(20.878125 135.59791) scale(0.1 -0.1)">
       <use xlink:href="#DejaVuSans-33"/>
       <use xlink:href="#DejaVuSans-30" transform="translate(63.623047 0)"/>
       <use xlink:href="#DejaVuSans-30" transform="translate(127.246094 0)"/>
       <use xlink:href="#DejaVuSans-30" transform="translate(190.869141 0)"/>
      </g>
     </g>
    </g>
    <g id="ytick_5">
     <g id="line2d_11">
      <g>
       <use xlink:href="#m9f345607d2" x="53.328125" y="93.723061" style="stroke: #000000; stroke-width: 0.8"/>
      </g>
     </g>
     <g id="text_12">
      <!-- 4000 -->
      <g transform="translate(20.878125 97.52228) scale(0.1 -0.1)">
       <use xlink:href="#DejaVuSans-34"/>
       <use xlink:href="#DejaVuSans-30" transform="translate(63.623047 0)"/>
       <use xlink:href="#DejaVuSans-30" transform="translate(127.246094 0)"/>
       <use xlink:href="#DejaVuSans-30" transform="translate(190.869141 0)"/>
      </g>
     </g>
    </g>
    <g id="ytick_6">
     <g id="line2d_12">
      <g>
       <use xlink:href="#m9f345607d2" x="53.328125" y="55.647431" style="stroke: #000000; stroke-width: 0.8"/>
      </g>
     </g>
     <g id="text_13">
      <!-- 5000 -->
      <g transform="translate(20.878125 59.44665) scale(0.1 -0.1)">
       <use xlink:href="#DejaVuSans-35"/>
       <use xlink:href="#DejaVuSans-30" transform="translate(63.623047 0)"/>
       <use xlink:href="#DejaVuSans-30" transform="translate(127.246094 0)"/>
       <use xlink:href="#DejaVuSans-30" transform="translate(190.869141 0)"/>
      </g>
     </g>
    </g>
    <g id="ytick_7">
     <g id="line2d_13">
      <g>
       <use xlink:href="#m9f345607d2" x="53.328125" y="17.571802" style="stroke: #000000; stroke-width: 0.8"/>
      </g>
     </g>
     <g id="text_14">
      <!-- 6000 -->
      <g transform="translate(20.878125 21.37102) scale(0.1 -0.1)">
       <defs>
        <path id="DejaVuSans-36" d="M 2113 2584 
Q 1688 2584 1439 2293 
Q 1191 2003 1191 1497 
Q 1191 994 1439 701 
Q 1688 409 2113 409 
Q 2538 409 2786 701 
Q 3034 994 3034 1497 
Q 3034 2003 2786 2293 
Q 2538 2584 2113 2584 
z
M 3366 4563 
L 3366 3988 
Q 3128 4100 2886 4159 
Q 2644 4219 2406 4219 
Q 1781 4219 1451 3797 
Q 1122 3375 1075 2522 
Q 1259 2794 1537 2939 
Q 1816 3084 2150 3084 
Q 2853 3084 3261 2657 
Q 3669 2231 3669 1497 
Q 3669 778 3244 343 
Q 2819 -91 2113 -91 
Q 1303 -91 875 529 
Q 447 1150 447 2328 
Q 447 3434 972 4092 
Q 1497 4750 2381 4750 
Q 2619 4750 2861 4703 
Q 3103 4656 3366 4563 
z
" transform="scale(0.015625)"/>
       </defs>
       <use xlink:href="#DejaVuSans-36"/>
       <use xlink:href="#DejaVuSans-30" transform="translate(63.623047 0)"/>
       <use xlink:href="#DejaVuSans-30" transform="translate(127.246094 0)"/>
       <use xlink:href="#DejaVuSans-30" transform="translate(190.869141 0)"/>
      </g>
     </g>
    </g>
    <g id="text_15">
     <!-- pulse:0 [counts] -->
     <g transform="translate(14.798438 172.659916) rotate(-90) scale(0.1 -0.1)">
      <defs>
       <path id="DejaVuSans-70" d="M 1159 525 
L 1159 -1331 
L 581 -1331 
L 581 3500 
L 1159 3500 
L 1159 2969 
Q 1341 3281 1617 3432 
Q 1894 3584 2278 3584 
Q 2916 3584 3314 3078 
Q 3713 2572 3713 1747 
Q 3713 922 3314 415 
Q 2916 -91 2278 -91 
Q 1894 -91 1617 61 
Q 1341 213 1159 525 
z
M 3116 1747 
Q 3116 2381 2855 2742 
Q 2594 3103 2138 3103 
Q 1681 3103 1420 2742 
Q 1159 2381 1159 1747 
Q 1159 1113 1420 752 
Q 1681 391 2138 391 
Q 2594 391 2855 752 
Q 3116 1113 3116 1747 
z
" transform="scale(0.015625)"/>
       <path id="DejaVuSans-75" d="M 544 1381 
L 544 3500 
L 1119 3500 
L 1119 1403 
Q 1119 906 1312 657 
Q 1506 409 1894 409 
Q 2359 409 2629 706 
Q 2900 1003 2900 1516 
L 2900 3500 
L 3475 3500 
L 3475 0 
L 2900 0 
L 2900 538 
Q 2691 219 2414 64 
Q 2138 -91 1772 -91 
Q 1169 -91 856 284 
Q 544 659 544 1381 
z
M 1991 3584 
L 1991 3584 
z
" transform="scale(0.015625)"/>
       <path id="DejaVuSans-6c" d="M 603 4863 
L 1178 4863 
L 1178 0 
L 603 0 
L 603 4863 
z
" transform="scale(0.015625)"/>
       <path id="DejaVuSans-3a" d="M 750 794 
L 1409 794 
L 1409 0 
L 750 0 
L 750 794 
z
M 750 3309 
L 1409 3309 
L 1409 2516 
L 750 2516 
L 750 3309 
z
" transform="scale(0.015625)"/>
       <path id="DejaVuSans-63" d="M 3122 3366 
L 3122 2828 
Q 2878 2963 2633 3030 
Q 2388 3097 2138 3097 
Q 1578 3097 1268 2742 
Q 959 2388 959 1747 
Q 959 1106 1268 751 
Q 1578 397 2138 397 
Q 2388 397 2633 464 
Q 2878 531 3122 666 
L 3122 134 
Q 2881 22 2623 -34 
Q 2366 -91 2075 -91 
Q 1284 -91 818 406 
Q 353 903 353 1747 
Q 353 2603 823 3093 
Q 1294 3584 2113 3584 
Q 2378 3584 2631 3529 
Q 2884 3475 3122 3366 
z
" transform="scale(0.015625)"/>
       <path id="DejaVuSans-6f" d="M 1959 3097 
Q 1497 3097 1228 2736 
Q 959 2375 959 1747 
Q 959 1119 1226 758 
Q 1494 397 1959 397 
Q 2419 397 2687 759 
Q 2956 1122 2956 1747 
Q 2956 2369 2687 2733 
Q 2419 3097 1959 3097 
z
M 1959 3584 
Q 2709 3584 3137 3096 
Q 3566 2609 3566 1747 
Q 3566 888 3137 398 
Q 2709 -91 1959 -91 
Q 1206 -91 779 398 
Q 353 888 353 1747 
Q 353 2609 779 3096 
Q 1206 3584 1959 3584 
z
" transform="scale(0.015625)"/>
       <path id="DejaVuSans-6e" d="M 3513 2113 
L 3513 0 
L 2938 0 
L 2938 2094 
Q 2938 2591 2744 2837 
Q 2550 3084 2163 3084 
Q 1697 3084 1428 2787 
Q 1159 2491 1159 1978 
L 1159 0 
L 581 0 
L 581 3500 
L 1159 3500 
L 1159 2956 
Q 1366 3272 1645 3428 
Q 1925 3584 2291 3584 
Q 2894 3584 3203 3211 
Q 3513 2838 3513 2113 
z
" transform="scale(0.015625)"/>
      </defs>
      <use xlink:href="#DejaVuSans-70"/>
      <use xlink:href="#DejaVuSans-75" transform="translate(63.476562 0)"/>
      <use xlink:href="#DejaVuSans-6c" transform="translate(126.855469 0)"/>
      <use xlink:href="#DejaVuSans-73" transform="translate(154.638672 0)"/>
      <use xlink:href="#DejaVuSans-65" transform="translate(206.738281 0)"/>
      <use xlink:href="#DejaVuSans-3a" transform="translate(268.261719 0)"/>
      <use xlink:href="#DejaVuSans-30" transform="translate(301.953125 0)"/>
      <use xlink:href="#DejaVuSans-20" transform="translate(365.576172 0)"/>
      <use xlink:href="#DejaVuSans-5b" transform="translate(397.363281 0)"/>
      <use xlink:href="#DejaVuSans-63" transform="translate(436.376953 0)"/>
      <use xlink:href="#DejaVuSans-6f" transform="translate(491.357422 0)"/>
      <use xlink:href="#DejaVuSans-75" transform="translate(552.539062 0)"/>
      <use xlink:href="#DejaVuSans-6e" transform="translate(615.917969 0)"/>
      <use xlink:href="#DejaVuSans-74" transform="translate(679.296875 0)"/>
      <use xlink:href="#DejaVuSans-73" transform="translate(718.505859 0)"/>
      <use xlink:href="#DejaVuSans-5d" transform="translate(770.605469 0)"/>
     </g>
    </g>
   </g>
   <g id="line2d_14">
    <path d="M 69.604961 235.021724 
L 70.690083 235.021724 
L 70.690083 227.140068 
L 71.775205 227.140068 
L 71.775205 219.98185 
L 72.860328 219.98185 
L 72.860328 210.615245 
L 73.94545 210.615245 
L 73.94545 200.867884 
L 75.030573 200.867884 
L 75.030573 191.996262 
L 76.115695 191.996262 
L 76.115695 183.276943 
L 77.200817 183.276943 
L 77.200817 173.034598 
L 78.28594 173.034598 
L 78.28594 166.866346 
L 79.371062 166.866346 
L 79.371062 159.365447 
L 80.456184 159.365447 
L 80.456184 150.227296 
L 81.541307 150.227296 
L 81.541307 145.65822 
L 82.626429 145.65822 
L 82.626429 137.129279 
L 83.711552 137.129279 
L 83.711552 132.979036 
L 84.796674 132.979036 
L 84.796674 121.822876 
L 85.881796 121.822876 
L 85.881796 125.97312 
L 86.966919 125.97312 
L 86.966919 114.778885 
L 88.052041 114.778885 
L 88.052041 113.103557 
L 89.137163 113.103557 
L 89.137163 110.057507 
L 90.222286 110.057507 
L 90.222286 100.157843 
L 91.307408 100.157843 
L 91.307408 98.977498 
L 92.392531 98.977498 
L 92.392531 93.380381 
L 93.477653 93.380381 
L 93.477653 92.999624 
L 94.562775 92.999624 
L 94.562775 83.061885 
L 95.647898 83.061885 
L 95.647898 82.262297 
L 96.73302 82.262297 
L 96.73302 81.729238 
L 97.818143 81.729238 
L 97.818143 78.607036 
L 98.903265 78.607036 
L 98.903265 73.428751 
L 99.988387 73.428751 
L 99.988387 69.316583 
L 101.07351 69.316583 
L 101.07351 69.963868 
L 102.158632 69.963868 
L 102.158632 67.374725 
L 103.243754 67.374725 
L 103.243754 66.042078 
L 105.413999 66.080154 
L 105.413999 61.777608 
L 106.499122 61.777608 
L 106.499122 52.753684 
L 107.584244 52.753684 
L 107.584244 60.71149 
L 108.669366 60.71149 
L 108.669366 54.581314 
L 109.754489 54.581314 
L 109.754489 56.599322 
L 110.839611 56.599322 
L 110.839611 50.012238 
L 111.924733 50.012238 
L 111.924733 49.022272 
L 113.009856 49.022272 
L 113.009856 43.310927 
L 114.094978 43.310927 
L 114.094978 48.489213 
L 115.180101 48.489213 
L 115.180101 46.356978 
L 116.265223 46.356978 
L 116.265223 46.77581 
L 117.350345 46.77581 
L 117.350345 45.481238 
L 118.435468 45.481238 
L 118.435468 46.433129 
L 119.52059 46.433129 
L 119.52059 41.673675 
L 120.605712 41.673675 
L 120.605712 36.914222 
L 121.690835 36.914222 
L 121.690835 44.338969 
L 122.775957 44.338969 
L 122.775957 39.998348 
L 123.86108 39.998348 
L 123.86108 36.49539 
L 124.946202 36.49539 
L 124.946202 37.485356 
L 126.031324 37.485356 
L 126.031324 38.551474 
L 127.116447 38.551474 
L 127.116447 38.437247 
L 128.201569 38.437247 
L 128.201569 36.305011 
L 129.286692 36.305011 
L 129.286692 36.914222 
L 131.456936 36.952297 
L 131.456936 39.160684 
L 132.542059 39.160684 
L 132.542059 33.982398 
L 133.627181 33.982398 
L 133.627181 35.924255 
L 134.712303 35.924255 
L 134.712303 31.279028 
L 135.797426 31.279028 
L 135.797426 32.116692 
L 136.882548 32.116692 
L 136.882548 33.220885 
L 137.967671 33.220885 
L 137.967671 28.080675 
L 139.052793 28.080675 
L 139.052793 28.689886 
L 140.137915 28.689886 
L 140.137915 26.862255 
L 141.223038 26.862255 
L 141.223038 30.822121 
L 142.30816 30.822121 
L 142.30816 25.453457 
L 143.393282 25.453457 
L 143.393282 34.743911 
L 144.478405 34.743911 
L 144.478405 29.070642 
L 145.563527 29.070642 
L 145.563527 31.583633 
L 146.64865 31.583633 
L 146.64865 29.032566 
L 147.733772 29.032566 
L 147.733772 27.509541 
L 148.818894 27.509541 
L 148.818894 28.271054 
L 149.904017 28.271054 
L 149.904017 21.798196 
L 150.989139 21.798196 
L 150.989139 31.317104 
L 152.074261 31.317104 
L 152.074261 25.986516 
L 153.159384 25.986516 
L 153.159384 29.756003 
L 154.244506 29.756003 
L 154.244506 32.421297 
L 155.329629 32.421297 
L 155.329629 26.21497 
L 156.414751 26.21497 
L 156.414751 27.281087 
L 157.499873 27.281087 
L 157.499873 30.136759 
L 158.584996 30.136759 
L 158.584996 27.090709 
L 159.670118 27.090709 
L 159.670118 32.687827 
L 160.75524 32.687827 
L 160.75524 26.862255 
L 161.840363 26.862255 
L 161.840363 31.35518 
L 162.925485 31.35518 
L 162.925485 29.946381 
L 164.010608 29.946381 
L 164.010608 27.585692 
L 165.09573 27.585692 
L 165.09573 25.834213 
L 166.180852 25.834213 
L 166.180852 29.832154 
L 167.265975 29.832154 
L 167.265975 26.633801 
L 168.351097 26.633801 
L 168.351097 23.892356 
L 169.43622 23.892356 
L 169.43622 26.062667 
L 170.521342 26.062667 
L 170.521342 25.263079 
L 171.606464 25.263079 
L 171.606464 25.719986 
L 172.691587 25.719986 
L 172.691587 28.309129 
L 173.776709 28.309129 
L 173.776709 26.671877 
L 174.861831 26.671877 
L 174.861831 20.237096 
L 175.946954 20.237096 
L 175.946954 24.082734 
L 177.032076 24.082734 
L 177.032076 25.377306 
L 178.117199 25.377306 
L 178.117199 26.938407 
L 179.202321 26.938407 
L 179.202321 29.184869 
L 180.287443 29.184869 
L 180.287443 27.090709 
L 181.372566 27.090709 
L 181.372566 27.319163 
L 182.457688 27.319163 
L 182.457688 24.501566 
L 183.54281 24.501566 
L 183.54281 28.423356 
L 184.627933 28.423356 
L 184.627933 27.052633 
L 185.713055 27.052633 
L 185.713055 18.561768 
L 186.798178 18.561768 
L 186.798178 27.243012 
L 187.8833 27.243012 
L 187.8833 26.367272 
L 188.968422 26.367272 
L 188.968422 26.976482 
L 190.053545 26.976482 
L 190.053545 19.513659 
L 191.138667 19.513659 
L 191.138667 26.900331 
L 192.223789 26.900331 
L 192.223789 25.834213 
L 193.308912 25.834213 
L 193.308912 24.958474 
L 194.394034 24.958474 
L 194.394034 22.102802 
L 195.479157 22.102802 
L 195.479157 26.329196 
L 197.649401 26.367272 
L 197.649401 26.024591 
L 198.734524 26.024591 
L 198.734524 24.235037 
L 199.819646 24.235037 
L 199.819646 27.852222 
L 200.904769 27.852222 
L 200.904769 24.615793 
L 201.989891 24.615793 
L 201.989891 28.156827 
L 203.075013 28.156827 
L 203.075013 23.359297 
L 204.160136 23.359297 
L 204.160136 20.732079 
L 205.245258 20.732079 
L 205.245258 26.82418 
L 206.33038 26.82418 
L 206.33038 31.431331 
L 207.415503 31.431331 
L 207.415503 24.311188 
L 208.500625 24.311188 
L 208.500625 27.128785 
L 209.585748 27.128785 
L 209.585748 28.118751 
L 210.67087 28.118751 
L 210.67087 20.80823 
L 211.755992 20.80823 
L 211.755992 24.235037 
L 212.841115 24.235037 
L 212.841115 27.43339 
L 213.926237 27.43339 
L 213.926237 24.501566 
L 215.011359 24.501566 
L 215.011359 22.369331 
L 216.096482 22.369331 
L 216.096482 23.816205 
L 217.181604 23.816205 
L 217.181604 22.712012 
L 218.266727 22.712012 
L 218.266727 30.060608 
L 219.351849 30.060608 
L 219.351849 24.615793 
L 220.436971 24.615793 
L 220.436971 24.996549 
L 221.522094 24.996549 
L 221.522094 26.367272 
L 222.607216 26.367272 
L 222.607216 25.605759 
L 223.692338 25.605759 
L 223.692338 25.225003 
L 224.777461 25.225003 
L 224.777461 27.43339 
L 225.862583 27.43339 
L 225.862583 27.623768 
L 226.947706 27.623768 
L 226.947706 26.405348 
L 228.032828 26.405348 
L 228.032828 28.347205 
L 229.11795 28.347205 
L 229.11795 23.206995 
L 230.203073 23.206995 
L 230.203073 27.243012 
L 231.288195 27.243012 
L 231.288195 22.864314 
L 232.373317 22.864314 
L 232.373317 21.569743 
L 233.45844 21.569743 
L 233.45844 24.73002 
L 234.543562 24.73002 
L 234.543562 28.880264 
L 235.628685 28.880264 
L 235.628685 22.178953 
L 236.713807 22.178953 
L 236.713807 20.960533 
L 237.798929 20.960533 
L 237.798929 26.100743 
L 238.884052 26.100743 
L 238.884052 26.82418 
L 239.969174 26.82418 
L 239.969174 22.064726 
L 241.054297 22.064726 
L 241.054297 23.435449 
L 242.139419 23.435449 
L 242.139419 22.178953 
L 243.224541 22.178953 
L 243.224541 21.988575 
L 244.309664 21.988575 
L 244.309664 23.321222 
L 245.394786 23.321222 
L 245.394786 24.920398 
L 247.565031 24.844247 
L 247.565031 32.268995 
L 248.650153 32.268995 
L 248.650153 27.319163 
L 249.735276 27.319163 
L 249.735276 25.377306 
L 250.820398 25.377306 
L 250.820398 22.90239 
L 251.90552 22.90239 
L 251.90552 28.918339 
L 252.990643 28.918339 
L 252.990643 24.691944 
L 254.075765 24.691944 
L 254.075765 28.194902 
L 255.160887 28.194902 
L 255.160887 27.43339 
L 256.24601 27.43339 
L 256.24601 34.058549 
L 257.331132 34.058549 
L 257.331132 43.996289 
L 258.416255 43.996289 
L 258.416255 50.735675 
L 259.501377 50.735675 
L 259.501377 55.83781 
L 260.586499 55.83781 
L 260.586499 63.795616 
L 261.671622 63.795616 
L 261.671622 73.390675 
L 262.756744 73.390675 
L 262.756744 82.414599 
L 263.841866 82.414599 
L 263.841866 92.504641 
L 264.926989 92.504641 
L 264.926989 104.650767 
L 266.012111 104.650767 
L 266.012111 110.400187 
L 267.097234 110.400187 
L 267.097234 114.512355 
L 268.182356 114.512355 
L 268.182356 121.746725 
L 269.267478 121.746725 
L 269.267478 128.638414 
L 270.352601 128.638414 
L 270.352601 138.157321 
L 271.437723 138.157321 
L 271.437723 145.582069 
L 272.522846 145.582069 
L 272.522846 151.217262 
L 273.607968 151.217262 
L 273.607968 154.415615 
L 274.69309 154.415615 
L 274.69309 154.034859 
L 275.778213 154.034859 
L 275.778213 161.840363 
L 276.863335 161.840363 
L 276.863335 166.828271 
L 277.948457 166.828271 
L 277.948457 171.511573 
L 279.03358 171.511573 
L 279.03358 178.060581 
L 280.118702 178.060581 
L 280.118702 180.345119 
L 281.203825 180.345119 
L 281.203825 182.286976 
L 282.288947 182.286976 
L 282.288947 187.960245 
L 283.374069 187.960245 
L 283.374069 188.835985 
L 284.459192 188.835985 
L 284.459192 191.348976 
L 285.544314 191.348976 
L 285.544314 195.042312 
L 286.629436 195.042312 
L 286.629436 199.915993 
L 287.714559 199.915993 
L 287.714559 201.667472 
L 288.799681 201.667472 
L 288.799681 202.847817 
L 289.884804 202.847817 
L 289.884804 207.645346 
L 290.969926 207.645346 
L 290.969926 210.044111 
L 292.055048 210.044111 
L 292.055048 208.711464 
L 293.140171 208.711464 
L 293.140171 211.79559 
L 294.225293 211.79559 
L 294.225293 213.737447 
L 296.395538 213.661295 
L 296.395538 216.440816 
L 297.48066 216.440816 
L 297.48066 220.819514 
L 298.565783 220.819514 
L 298.565783 221.695253 
L 299.650905 221.695253 
L 299.650905 221.999858 
L 300.736027 221.999858 
L 300.736027 222.228312 
L 301.82115 222.228312 
L 301.82115 225.73127 
L 302.906272 225.73127 
L 302.906272 226.34048 
L 303.991394 226.34048 
L 303.991394 227.939657 
L 305.076517 227.939657 
L 305.076517 226.416631 
L 306.161639 226.416631 
L 306.161639 227.82543 
L 307.246762 227.82543 
L 307.246762 228.43464 
L 308.331884 228.43464 
L 308.331884 230.681102 
L 309.417006 230.681102 
L 309.417006 231.214161 
L 310.502129 231.214161 
L 310.502129 231.785295 
L 311.587251 231.785295 
L 311.587251 232.927564 
L 312.672374 232.927564 
L 312.672374 232.508732 
L 313.757496 232.508732 
L 313.757496 232.889489 
L 314.842618 232.889489 
L 314.842618 234.602892 
L 315.927741 234.602892 
L 315.927741 235.326329 
L 317.012863 235.326329 
L 317.012863 236.049766 
L 319.183108 236.125917 
L 319.183108 236.27822 
L 320.26823 236.27822 
L 320.26823 237.648942 
L 321.353353 237.648942 
L 321.353353 236.963581 
L 322.438475 236.963581 
L 322.438475 238.067774 
L 324.60872 238.143925 
L 324.60872 239.057741 
L 325.693842 239.057741 
L 325.693842 239.590799 
L 326.778964 239.590799 
L 326.778964 239.32427 
L 327.864087 239.32427 
L 327.864087 239.743102 
L 328.949209 239.743102 
L 328.949209 240.54269 
L 330.034332 240.54269 
L 330.034332 240.885371 
L 331.119454 240.885371 
L 331.119454 240.733068 
L 332.204576 240.733068 
L 332.204576 241.723035 
L 334.374821 241.684959 
L 334.374821 241.532656 
L 335.459943 241.532656 
L 335.459943 241.646883 
L 336.545066 241.646883 
L 336.545066 241.951488 
L 338.715311 241.989564 
L 338.715311 242.827228 
L 339.800433 242.827228 
L 339.800433 242.674925 
L 340.885555 242.674925 
L 340.885555 242.484547 
L 341.970678 242.484547 
L 341.970678 243.131833 
L 344.140923 243.055682 
L 344.140923 243.360287 
L 345.226045 243.360287 
L 345.226045 242.97953 
L 346.311167 242.97953 
L 346.311167 243.169909 
L 347.39629 243.169909 
L 347.39629 243.664892 
L 348.481412 243.664892 
L 348.481412 242.903379 
L 349.566534 242.903379 
L 349.566534 243.512589 
L 350.651657 243.512589 
L 350.651657 244.540631 
L 351.736779 244.540631 
L 351.736779 243.931421 
L 354.992146 243.931421 
L 354.992146 244.121799 
L 356.077269 244.121799 
L 356.077269 244.426404 
L 357.162391 244.426404 
L 357.162391 244.654858 
L 358.247513 244.654858 
L 358.247513 244.959463 
L 359.332636 244.959463 
L 359.332636 244.578707 
L 360.417758 244.578707 
L 360.417758 244.883312 
L 361.502881 244.883312 
L 361.502881 244.654858 
L 363.673125 244.616783 
L 363.673125 245.225993 
L 364.758248 245.225993 
L 364.758248 244.731009 
L 366.928492 244.731009 
L 366.928492 244.959463 
L 368.013615 244.959463 
L 368.013615 245.187917 
L 370.18386 245.264068 
L 370.18386 245.416371 
L 371.268982 245.416371 
L 371.268982 245.302144 
L 372.354104 245.302144 
L 372.354104 245.149841 
L 373.439227 245.149841 
L 373.439227 245.340219 
L 374.524349 245.340219 
L 374.524349 245.530598 
L 375.609471 245.530598 
L 375.609471 245.378295 
L 376.694594 245.378295 
L 376.694594 245.530598 
L 377.779716 245.530598 
L 377.779716 245.378295 
L 378.864839 245.378295 
L 378.864839 245.568673 
L 379.949961 245.568673 
L 379.949961 245.454446 
L 381.035083 245.454446 
L 381.035083 245.606749 
L 382.120206 245.606749 
L 382.120206 245.454446 
L 383.205328 245.454446 
L 383.205328 245.759051 
L 384.290451 245.759051 
L 384.290451 245.568673 
L 386.460695 245.530598 
L 386.460695 245.797127 
L 387.545818 245.797127 
L 387.545818 245.644825 
L 388.63094 245.644825 
L 388.63094 245.797127 
L 389.716062 245.797127 
L 389.716062 245.6829 
L 390.801185 245.6829 
L 390.801185 245.797127 
L 395.141674 245.797127 
L 395.141674 245.797127 
" clip-path="url(#pe8c3ac0595)" style="fill: none; stroke: #1f77b4; stroke-width: 1.5; stroke-linecap: square"/>
   </g>
   <g id="patch_3">
    <path d="M 53.328125 257.158895 
L 53.328125 7.2 
" style="fill: none; stroke: #000000; stroke-width: 0.8; stroke-linejoin: miter; stroke-linecap: square"/>
   </g>
   <g id="patch_4">
    <path d="M 411.41851 257.158895 
L 411.41851 7.2 
" style="fill: none; stroke: #000000; stroke-width: 0.8; stroke-linejoin: miter; stroke-linecap: square"/>
   </g>
   <g id="patch_5">
    <path d="M 53.328125 257.158895 
L 411.41851 257.158895 
" style="fill: none; stroke: #000000; stroke-width: 0.8; stroke-linejoin: miter; stroke-linecap: square"/>
   </g>
   <g id="patch_6">
    <path d="M 53.328125 7.2 
L 411.41851 7.2 
" style="fill: none; stroke: #000000; stroke-width: 0.8; stroke-linejoin: miter; stroke-linecap: square"/>
   </g>
  </g>
  <g id="axes_2">
   <g id="patch_7">
    <path d="M 507.109135 257.158895 
L 865.19952 257.158895 
L 865.19952 7.2 
L 507.109135 7.2 
z
" style="fill: #ffffff"/>
   </g>
   <g id="matplotlib.axis_3">
    <g id="xtick_7">
     <g id="line2d_15">
      <g>
       <use xlink:href="#mb197119712" x="520.104303" y="257.158895" style="stroke: #000000; stroke-width: 0.8"/>
      </g>
     </g>
     <g id="text_16">
      <!-- 0.0 -->
      <g transform="translate(512.15274 271.757332) scale(0.1 -0.1)">
       <defs>
        <path id="DejaVuSans-2e" d="M 684 794 
L 1344 794 
L 1344 0 
L 684 0 
L 684 794 
z
" transform="scale(0.015625)"/>
       </defs>
       <use xlink:href="#DejaVuSans-30"/>
       <use xlink:href="#DejaVuSans-2e" transform="translate(63.623047 0)"/>
       <use xlink:href="#DejaVuSans-30" transform="translate(95.410156 0)"/>
      </g>
     </g>
    </g>
    <g id="xtick_8">
     <g id="line2d_16">
      <g>
       <use xlink:href="#mb197119712" x="561.431032" y="257.158895" style="stroke: #000000; stroke-width: 0.8"/>
      </g>
     </g>
     <g id="text_17">
      <!-- 2.5 -->
      <g transform="translate(553.479469 271.757332) scale(0.1 -0.1)">
       <use xlink:href="#DejaVuSans-32"/>
       <use xlink:href="#DejaVuSans-2e" transform="translate(63.623047 0)"/>
       <use xlink:href="#DejaVuSans-35" transform="translate(95.410156 0)"/>
      </g>
     </g>
    </g>
    <g id="xtick_9">
     <g id="line2d_17">
      <g>
       <use xlink:href="#mb197119712" x="602.75776" y="257.158895" style="stroke: #000000; stroke-width: 0.8"/>
      </g>
     </g>
     <g id="text_18">
      <!-- 5.0 -->
      <g transform="translate(594.806198 271.757332) scale(0.1 -0.1)">
       <use xlink:href="#DejaVuSans-35"/>
       <use xlink:href="#DejaVuSans-2e" transform="translate(63.623047 0)"/>
       <use xlink:href="#DejaVuSans-30" transform="translate(95.410156 0)"/>
      </g>
     </g>
    </g>
    <g id="xtick_10">
     <g id="line2d_18">
      <g>
       <use xlink:href="#mb197119712" x="644.084489" y="257.158895" style="stroke: #000000; stroke-width: 0.8"/>
      </g>
     </g>
     <g id="text_19">
      <!-- 7.5 -->
      <g transform="translate(636.132927 271.757332) scale(0.1 -0.1)">
       <defs>
        <path id="DejaVuSans-37" d="M 525 4666 
L 3525 4666 
L 3525 4397 
L 1831 0 
L 1172 0 
L 2766 4134 
L 525 4134 
L 525 4666 
z
" transform="scale(0.015625)"/>
       </defs>
       <use xlink:href="#DejaVuSans-37"/>
       <use xlink:href="#DejaVuSans-2e" transform="translate(63.623047 0)"/>
       <use xlink:href="#DejaVuSans-35" transform="translate(95.410156 0)"/>
      </g>
     </g>
    </g>
    <g id="xtick_11">
     <g id="line2d_19">
      <g>
       <use xlink:href="#mb197119712" x="685.411218" y="257.158895" style="stroke: #000000; stroke-width: 0.8"/>
      </g>
     </g>
     <g id="text_20">
      <!-- 10.0 -->
      <g transform="translate(674.278406 271.757332) scale(0.1 -0.1)">
       <use xlink:href="#DejaVuSans-31"/>
       <use xlink:href="#DejaVuSans-30" transform="translate(63.623047 0)"/>
       <use xlink:href="#DejaVuSans-2e" transform="translate(127.246094 0)"/>
       <use xlink:href="#DejaVuSans-30" transform="translate(159.033203 0)"/>
      </g>
     </g>
    </g>
    <g id="xtick_12">
     <g id="line2d_20">
      <g>
       <use xlink:href="#mb197119712" x="726.737947" y="257.158895" style="stroke: #000000; stroke-width: 0.8"/>
      </g>
     </g>
     <g id="text_21">
      <!-- 12.5 -->
      <g transform="translate(715.605135 271.757332) scale(0.1 -0.1)">
       <use xlink:href="#DejaVuSans-31"/>
       <use xlink:href="#DejaVuSans-32" transform="translate(63.623047 0)"/>
       <use xlink:href="#DejaVuSans-2e" transform="translate(127.246094 0)"/>
       <use xlink:href="#DejaVuSans-35" transform="translate(159.033203 0)"/>
      </g>
     </g>
    </g>
    <g id="xtick_13">
     <g id="line2d_21">
      <g>
       <use xlink:href="#mb197119712" x="768.064676" y="257.158895" style="stroke: #000000; stroke-width: 0.8"/>
      </g>
     </g>
     <g id="text_22">
      <!-- 15.0 -->
      <g transform="translate(756.931864 271.757332) scale(0.1 -0.1)">
       <use xlink:href="#DejaVuSans-31"/>
       <use xlink:href="#DejaVuSans-35" transform="translate(63.623047 0)"/>
       <use xlink:href="#DejaVuSans-2e" transform="translate(127.246094 0)"/>
       <use xlink:href="#DejaVuSans-30" transform="translate(159.033203 0)"/>
      </g>
     </g>
    </g>
    <g id="xtick_14">
     <g id="line2d_22">
      <g>
       <use xlink:href="#mb197119712" x="809.391405" y="257.158895" style="stroke: #000000; stroke-width: 0.8"/>
      </g>
     </g>
     <g id="text_23">
      <!-- 17.5 -->
      <g transform="translate(798.258593 271.757332) scale(0.1 -0.1)">
       <use xlink:href="#DejaVuSans-31"/>
       <use xlink:href="#DejaVuSans-37" transform="translate(63.623047 0)"/>
       <use xlink:href="#DejaVuSans-2e" transform="translate(127.246094 0)"/>
       <use xlink:href="#DejaVuSans-35" transform="translate(159.033203 0)"/>
      </g>
     </g>
    </g>
    <g id="xtick_15">
     <g id="line2d_23">
      <g>
       <use xlink:href="#mb197119712" x="850.718134" y="257.158895" style="stroke: #000000; stroke-width: 0.8"/>
      </g>
     </g>
     <g id="text_24">
      <!-- 20.0 -->
      <g transform="translate(839.585322 271.757332) scale(0.1 -0.1)">
       <use xlink:href="#DejaVuSans-32"/>
       <use xlink:href="#DejaVuSans-30" transform="translate(63.623047 0)"/>
       <use xlink:href="#DejaVuSans-2e" transform="translate(127.246094 0)"/>
       <use xlink:href="#DejaVuSans-30" transform="translate(159.033203 0)"/>
      </g>
     </g>
    </g>
    <g id="text_25">
     <!-- wavelength [Å] -->
     <g transform="translate(648.116827 287.119832) scale(0.1 -0.1)">
      <defs>
       <path id="DejaVuSans-77" d="M 269 3500 
L 844 3500 
L 1563 769 
L 2278 3500 
L 2956 3500 
L 3675 769 
L 4391 3500 
L 4966 3500 
L 4050 0 
L 3372 0 
L 2619 2869 
L 1863 0 
L 1184 0 
L 269 3500 
z
" transform="scale(0.015625)"/>
       <path id="DejaVuSans-61" d="M 2194 1759 
Q 1497 1759 1228 1600 
Q 959 1441 959 1056 
Q 959 750 1161 570 
Q 1363 391 1709 391 
Q 2188 391 2477 730 
Q 2766 1069 2766 1631 
L 2766 1759 
L 2194 1759 
z
M 3341 1997 
L 3341 0 
L 2766 0 
L 2766 531 
Q 2569 213 2275 61 
Q 1981 -91 1556 -91 
Q 1019 -91 701 211 
Q 384 513 384 1019 
Q 384 1609 779 1909 
Q 1175 2209 1959 2209 
L 2766 2209 
L 2766 2266 
Q 2766 2663 2505 2880 
Q 2244 3097 1772 3097 
Q 1472 3097 1187 3025 
Q 903 2953 641 2809 
L 641 3341 
Q 956 3463 1253 3523 
Q 1550 3584 1831 3584 
Q 2591 3584 2966 3190 
Q 3341 2797 3341 1997 
z
" transform="scale(0.015625)"/>
       <path id="DejaVuSans-76" d="M 191 3500 
L 800 3500 
L 1894 563 
L 2988 3500 
L 3597 3500 
L 2284 0 
L 1503 0 
L 191 3500 
z
" transform="scale(0.015625)"/>
       <path id="DejaVuSans-67" d="M 2906 1791 
Q 2906 2416 2648 2759 
Q 2391 3103 1925 3103 
Q 1463 3103 1205 2759 
Q 947 2416 947 1791 
Q 947 1169 1205 825 
Q 1463 481 1925 481 
Q 2391 481 2648 825 
Q 2906 1169 2906 1791 
z
M 3481 434 
Q 3481 -459 3084 -895 
Q 2688 -1331 1869 -1331 
Q 1566 -1331 1297 -1286 
Q 1028 -1241 775 -1147 
L 775 -588 
Q 1028 -725 1275 -790 
Q 1522 -856 1778 -856 
Q 2344 -856 2625 -561 
Q 2906 -266 2906 331 
L 2906 616 
Q 2728 306 2450 153 
Q 2172 0 1784 0 
Q 1141 0 747 490 
Q 353 981 353 1791 
Q 353 2603 747 3093 
Q 1141 3584 1784 3584 
Q 2172 3584 2450 3431 
Q 2728 3278 2906 2969 
L 2906 3500 
L 3481 3500 
L 3481 434 
z
" transform="scale(0.015625)"/>
       <path id="DejaVuSans-c5" d="M 2663 5081 
Q 2663 5278 2523 5417 
Q 2384 5556 2188 5556 
Q 1988 5556 1852 5420 
Q 1716 5284 1716 5081 
Q 1716 4884 1853 4746 
Q 1991 4609 2188 4609 
Q 2384 4609 2523 4746 
Q 2663 4884 2663 5081 
z
M 2188 4044 
L 1338 1722 
L 3041 1722 
L 2188 4044 
z
M 1716 4366 
Q 1525 4494 1428 4673 
Q 1331 4853 1331 5081 
Q 1331 5441 1579 5691 
Q 1828 5941 2188 5941 
Q 2544 5941 2795 5689 
Q 3047 5438 3047 5081 
Q 3047 4863 2948 4678 
Q 2850 4494 2663 4366 
L 4325 0 
L 3669 0 
L 3244 1197 
L 1141 1197 
L 716 0 
L 50 0 
L 1716 4366 
z
" transform="scale(0.015625)"/>
      </defs>
      <use xlink:href="#DejaVuSans-77"/>
      <use xlink:href="#DejaVuSans-61" transform="translate(81.787109 0)"/>
      <use xlink:href="#DejaVuSans-76" transform="translate(143.066406 0)"/>
      <use xlink:href="#DejaVuSans-65" transform="translate(202.246094 0)"/>
      <use xlink:href="#DejaVuSans-6c" transform="translate(263.769531 0)"/>
      <use xlink:href="#DejaVuSans-65" transform="translate(291.552734 0)"/>
      <use xlink:href="#DejaVuSans-6e" transform="translate(353.076172 0)"/>
      <use xlink:href="#DejaVuSans-67" transform="translate(416.455078 0)"/>
      <use xlink:href="#DejaVuSans-74" transform="translate(479.931641 0)"/>
      <use xlink:href="#DejaVuSans-68" transform="translate(519.140625 0)"/>
      <use xlink:href="#DejaVuSans-20" transform="translate(582.519531 0)"/>
      <use xlink:href="#DejaVuSans-5b" transform="translate(614.306641 0)"/>
      <use xlink:href="#DejaVuSans-c5" transform="translate(653.320312 0)"/>
      <use xlink:href="#DejaVuSans-5d" transform="translate(721.728516 0)"/>
     </g>
    </g>
   </g>
   <g id="matplotlib.axis_4">
    <g id="ytick_8">
     <g id="line2d_24">
      <g>
       <use xlink:href="#m9f345607d2" x="507.109135" y="245.839177" style="stroke: #000000; stroke-width: 0.8"/>
      </g>
     </g>
     <g id="text_26">
      <!-- 0 -->
      <g transform="translate(493.746635 249.638395) scale(0.1 -0.1)">
       <use xlink:href="#DejaVuSans-30"/>
      </g>
     </g>
    </g>
    <g id="ytick_9">
     <g id="line2d_25">
      <g>
       <use xlink:href="#m9f345607d2" x="507.109135" y="193.277334" style="stroke: #000000; stroke-width: 0.8"/>
      </g>
     </g>
     <g id="text_27">
      <!-- 5000 -->
      <g transform="translate(474.659135 197.076552) scale(0.1 -0.1)">
       <use xlink:href="#DejaVuSans-35"/>
       <use xlink:href="#DejaVuSans-30" transform="translate(63.623047 0)"/>
       <use xlink:href="#DejaVuSans-30" transform="translate(127.246094 0)"/>
       <use xlink:href="#DejaVuSans-30" transform="translate(190.869141 0)"/>
      </g>
     </g>
    </g>
    <g id="ytick_10">
     <g id="line2d_26">
      <g>
       <use xlink:href="#m9f345607d2" x="507.109135" y="140.715491" style="stroke: #000000; stroke-width: 0.8"/>
      </g>
     </g>
     <g id="text_28">
      <!-- 10000 -->
      <g transform="translate(468.296635 144.51471) scale(0.1 -0.1)">
       <use xlink:href="#DejaVuSans-31"/>
       <use xlink:href="#DejaVuSans-30" transform="translate(63.623047 0)"/>
       <use xlink:href="#DejaVuSans-30" transform="translate(127.246094 0)"/>
       <use xlink:href="#DejaVuSans-30" transform="translate(190.869141 0)"/>
       <use xlink:href="#DejaVuSans-30" transform="translate(254.492188 0)"/>
      </g>
     </g>
    </g>
    <g id="ytick_11">
     <g id="line2d_27">
      <g>
       <use xlink:href="#m9f345607d2" x="507.109135" y="88.153648" style="stroke: #000000; stroke-width: 0.8"/>
      </g>
     </g>
     <g id="text_29">
      <!-- 15000 -->
      <g transform="translate(468.296635 91.952867) scale(0.1 -0.1)">
       <use xlink:href="#DejaVuSans-31"/>
       <use xlink:href="#DejaVuSans-35" transform="translate(63.623047 0)"/>
       <use xlink:href="#DejaVuSans-30" transform="translate(127.246094 0)"/>
       <use xlink:href="#DejaVuSans-30" transform="translate(190.869141 0)"/>
       <use xlink:href="#DejaVuSans-30" transform="translate(254.492188 0)"/>
      </g>
     </g>
    </g>
    <g id="ytick_12">
     <g id="line2d_28">
      <g>
       <use xlink:href="#m9f345607d2" x="507.109135" y="35.591805" style="stroke: #000000; stroke-width: 0.8"/>
      </g>
     </g>
     <g id="text_30">
      <!-- 20000 -->
      <g transform="translate(468.296635 39.391024) scale(0.1 -0.1)">
       <use xlink:href="#DejaVuSans-32"/>
       <use xlink:href="#DejaVuSans-30" transform="translate(63.623047 0)"/>
       <use xlink:href="#DejaVuSans-30" transform="translate(127.246094 0)"/>
       <use xlink:href="#DejaVuSans-30" transform="translate(190.869141 0)"/>
       <use xlink:href="#DejaVuSans-30" transform="translate(254.492188 0)"/>
      </g>
     </g>
    </g>
    <g id="text_31">
     <!-- pulse:0 [counts] -->
     <g transform="translate(462.216947 172.659916) rotate(-90) scale(0.1 -0.1)">
      <use xlink:href="#DejaVuSans-70"/>
      <use xlink:href="#DejaVuSans-75" transform="translate(63.476562 0)"/>
      <use xlink:href="#DejaVuSans-6c" transform="translate(126.855469 0)"/>
      <use xlink:href="#DejaVuSans-73" transform="translate(154.638672 0)"/>
      <use xlink:href="#DejaVuSans-65" transform="translate(206.738281 0)"/>
      <use xlink:href="#DejaVuSans-3a" transform="translate(268.261719 0)"/>
      <use xlink:href="#DejaVuSans-30" transform="translate(301.953125 0)"/>
      <use xlink:href="#DejaVuSans-20" transform="translate(365.576172 0)"/>
      <use xlink:href="#DejaVuSans-5b" transform="translate(397.363281 0)"/>
      <use xlink:href="#DejaVuSans-63" transform="translate(436.376953 0)"/>
      <use xlink:href="#DejaVuSans-6f" transform="translate(491.357422 0)"/>
      <use xlink:href="#DejaVuSans-75" transform="translate(552.539062 0)"/>
      <use xlink:href="#DejaVuSans-6e" transform="translate(615.917969 0)"/>
      <use xlink:href="#DejaVuSans-74" transform="translate(679.296875 0)"/>
      <use xlink:href="#DejaVuSans-73" transform="translate(718.505859 0)"/>
      <use xlink:href="#DejaVuSans-5d" transform="translate(770.605469 0)"/>
     </g>
    </g>
   </g>
   <g id="line2d_29">
    <path d="M 523.385971 158.37627 
L 524.471093 158.37627 
L 524.471093 148.21081 
L 525.556215 148.21081 
L 525.556215 140.662929 
L 526.641338 140.662929 
L 526.641338 140.158335 
L 527.72646 140.158335 
L 527.72646 147.432894 
L 528.811583 147.432894 
L 528.811583 148.862576 
L 529.896705 148.862576 
L 529.896705 141.619554 
L 530.981827 141.619554 
L 530.981827 126.860189 
L 532.06695 126.860189 
L 532.06695 102.229709 
L 533.152072 102.229709 
L 533.152072 84.642517 
L 534.237194 84.642517 
L 534.237194 61.97785 
L 535.322317 61.97785 
L 535.322317 38.346046 
L 536.407439 38.346046 
L 536.407439 25.594543 
L 537.492562 25.594543 
L 537.492562 24.9638 
L 538.577684 24.9638 
L 538.577684 18.561768 
L 539.662806 18.561768 
L 539.662806 24.122811 
L 540.747929 24.122811 
L 540.747929 35.244897 
L 541.833051 35.244897 
L 541.833051 41.731028 
L 542.918173 41.731028 
L 542.918173 49.468132 
L 544.003296 49.468132 
L 544.003296 62.81884 
L 545.088418 62.81884 
L 545.088418 69.105236 
L 546.173541 69.105236 
L 546.173541 74.498081 
L 547.258663 74.498081 
L 547.258663 86.555768 
L 548.343785 86.555768 
L 548.343785 88.794902 
L 549.428908 88.794902 
L 549.428908 93.367783 
L 550.51403 93.367783 
L 550.51403 96.363808 
L 551.599153 96.363808 
L 551.599153 96.0169 
L 552.684275 96.0169 
L 552.684275 93.903914 
L 553.769397 93.903914 
L 553.769397 94.81849 
L 554.85452 94.81849 
L 554.85452 86.419107 
L 555.939642 86.419107 
L 555.939642 78.377145 
L 557.024764 78.377145 
L 557.024764 72.490219 
L 558.109887 72.490219 
L 558.109887 57.993662 
L 559.195009 57.993662 
L 559.195009 50.79269 
L 560.280132 50.79269 
L 560.280132 45.568043 
L 561.365254 45.568043 
L 561.365254 36.758678 
L 562.450376 36.758678 
L 562.450376 34.01495 
L 563.535499 34.01495 
L 563.535499 46.829527 
L 564.620621 46.829527 
L 564.620621 50.508856 
L 565.705743 50.508856 
L 565.705743 56.763715 
L 566.790866 56.763715 
L 566.790866 72.679441 
L 567.875988 72.679441 
L 567.875988 77.609742 
L 568.961111 77.609742 
L 568.961111 87.417782 
L 570.046233 87.417782 
L 570.046233 100.095699 
L 571.131355 100.095699 
L 571.131355 103.817077 
L 572.216478 103.817077 
L 572.216478 112.426707 
L 573.3016 112.426707 
L 573.3016 119.974588 
L 574.386722 119.974588 
L 574.386722 125.483069 
L 575.471845 125.483069 
L 575.471845 131.065136 
L 576.556967 131.065136 
L 576.556967 139.15966 
L 577.64209 139.15966 
L 577.64209 142.702328 
L 578.727212 142.702328 
L 578.727212 147.611605 
L 579.812334 147.611605 
L 579.812334 151.953213 
L 580.897457 151.953213 
L 580.897457 156.20021 
L 581.982579 156.20021 
L 581.982579 159.942613 
L 583.067702 159.942613 
L 583.067702 165.556218 
L 584.152824 165.556218 
L 584.152824 168.878126 
L 585.237946 168.878126 
L 585.237946 173.356395 
L 586.323069 173.356395 
L 586.323069 177.824152 
L 587.408191 177.824152 
L 587.408191 178.97 
L 588.493313 178.97 
L 588.493313 181.76629 
L 589.578436 181.76629 
L 589.578436 185.950213 
L 590.663558 185.950213 
L 590.663558 188.220884 
L 591.748681 188.220884 
L 591.748681 190.575655 
L 592.833803 190.575655 
L 592.833803 194.202422 
L 593.918925 194.202422 
L 593.918925 196.273359 
L 595.004048 196.273359 
L 595.004048 197.261521 
L 596.08917 197.261521 
L 596.08917 200.9829 
L 597.174292 200.9829 
L 597.174292 202.875126 
L 598.259415 202.875126 
L 598.259415 202.706928 
L 599.344537 202.706928 
L 599.344537 206.554455 
L 600.42966 206.554455 
L 600.42966 208.162848 
L 601.514782 208.162848 
L 601.514782 209.497918 
L 602.599904 209.497918 
L 602.599904 211.453219 
L 603.685027 211.453219 
L 603.685027 212.031399 
L 604.770149 212.031399 
L 604.770149 213.797477 
L 605.855271 213.797477 
L 605.855271 216.541205 
L 606.940394 216.541205 
L 606.940394 217.014262 
L 608.025516 217.014262 
L 608.025516 217.518856 
L 609.110639 217.518856 
L 609.110639 218.95905 
L 610.195761 218.95905 
L 610.195761 221.324333 
L 611.280883 221.324333 
L 611.280883 220.977425 
L 612.366006 220.977425 
L 612.366006 222.438644 
L 613.451128 222.438644 
L 613.451128 223.258609 
L 614.53625 223.258609 
L 614.53625 224.257284 
L 615.621373 224.257284 
L 615.621373 224.656754 
L 616.706495 224.656754 
L 616.706495 226.012849 
L 617.791618 226.012849 
L 617.791618 226.580517 
L 618.87674 226.580517 
L 618.87674 227.852514 
L 619.961862 227.852514 
L 619.961862 228.483256 
L 621.046985 228.483256 
L 621.046985 228.251984 
L 622.132107 228.251984 
L 622.132107 230.049599 
L 623.21723 230.049599 
L 623.21723 229.849864 
L 624.302352 229.849864 
L 624.302352 231.006224 
L 625.387474 231.006224 
L 625.387474 231.679016 
L 626.472597 231.679016 
L 626.472597 232.320271 
L 627.557719 232.320271 
L 627.557719 232.036437 
L 628.642841 232.036437 
L 628.642841 232.625129 
L 629.727964 232.625129 
L 629.727964 233.56073 
L 630.813086 233.56073 
L 630.813086 233.413557 
L 631.898209 233.413557 
L 631.898209 234.738115 
L 634.068453 234.843239 
L 634.068453 235.316296 
L 635.153576 235.316296 
L 635.153576 235.757815 
L 636.238698 235.757815 
L 636.238698 236.220359 
L 637.32382 236.220359 
L 637.32382 235.610642 
L 638.408943 235.610642 
L 638.408943 236.157285 
L 639.494065 236.157285 
L 639.494065 236.640854 
L 640.579188 236.640854 
L 640.579188 236.914176 
L 641.66431 236.914176 
L 641.66431 237.387232 
L 642.749432 237.387232 
L 642.749432 237.586967 
L 643.834555 237.586967 
L 643.834555 238.259759 
L 644.919677 238.259759 
L 644.919677 238.385907 
L 646.004799 238.385907 
L 646.004799 238.890501 
L 647.089922 238.890501 
L 647.089922 238.638204 
L 648.175044 238.638204 
L 648.175044 238.837939 
L 649.260167 238.837939 
L 649.260167 239.226897 
L 651.430411 239.321508 
L 651.430411 239.752515 
L 652.515534 239.752515 
L 652.515534 240.025837 
L 654.685779 239.9943 
L 654.685779 240.288646 
L 655.770901 240.288646 
L 655.770901 240.509406 
L 656.856023 240.509406 
L 656.856023 240.992975 
L 657.941146 240.992975 
L 657.941146 240.467356 
L 659.026268 240.467356 
L 659.026268 240.877339 
L 660.11139 240.877339 
L 660.11139 241.161173 
L 661.196513 241.161173 
L 661.196513 241.350395 
L 662.281635 241.350395 
L 662.281635 241.119123 
L 664.45188 241.15066 
L 664.45188 241.77089 
L 667.707247 241.791915 
L 667.707247 242.023187 
L 668.792369 242.023187 
L 668.792369 241.707816 
L 669.877492 241.707816 
L 669.877492 242.12831 
L 670.962614 242.12831 
L 670.962614 242.674954 
L 673.132859 242.738028 
L 673.132859 242.275484 
L 675.303104 242.307021 
L 675.303104 242.685466 
L 676.388226 242.685466 
L 676.388226 242.52778 
L 677.473348 242.52778 
L 677.473348 242.759053 
L 678.558471 242.759053 
L 678.558471 243.032374 
L 679.643593 243.032374 
L 679.643593 242.780077 
L 680.728716 242.780077 
L 680.728716 242.895713 
L 681.813838 242.895713 
L 681.813838 243.347745 
L 683.984083 243.32672 
L 683.984083 243.116473 
L 685.069205 243.116473 
L 685.069205 243.32672 
L 686.154327 243.32672 
L 686.154327 243.158523 
L 687.23945 243.158523 
L 687.23945 243.316208 
L 688.324572 243.316208 
L 688.324572 243.54748 
L 690.494817 243.505431 
L 690.494817 243.663116 
L 693.750184 243.694653 
L 693.750184 243.936438 
L 694.835307 243.936438 
L 694.835307 243.54748 
L 695.920429 243.54748 
L 695.920429 243.967975 
L 697.005551 243.967975 
L 697.005551 243.799777 
L 698.090674 243.799777 
L 698.090674 244.272834 
L 699.175796 244.272834 
L 699.175796 243.94695 
L 701.346041 243.967975 
L 701.346041 244.136173 
L 703.516286 244.157198 
L 703.516286 244.314883 
L 705.68653 244.409494 
L 705.68653 244.178222 
L 706.771653 244.178222 
L 706.771653 244.409494 
L 707.856775 244.409494 
L 707.856775 244.672304 
L 708.941897 244.672304 
L 708.941897 244.451544 
L 710.02702 244.451544 
L 710.02702 244.304371 
L 711.112142 244.304371 
L 711.112142 244.556668 
L 712.197265 244.556668 
L 712.197265 244.409494 
L 713.282387 244.409494 
L 713.282387 244.682816 
L 715.452632 244.598717 
L 715.452632 244.377957 
L 716.537754 244.377957 
L 716.537754 244.756403 
L 718.707999 244.682816 
L 718.707999 244.598717 
L 719.793121 244.598717 
L 719.793121 244.735378 
L 720.878244 244.735378 
L 720.878244 244.882551 
L 723.048488 244.872039 
L 723.048488 244.661791 
L 724.133611 244.661791 
L 724.133611 244.829989 
L 725.218733 244.829989 
L 725.218733 245.103311 
L 726.303856 245.103311 
L 726.303856 244.9246 
L 736.069957 244.893063 
L 736.069957 245.103311 
L 737.155079 245.103311 
L 737.155079 244.987675 
L 740.410446 245.061261 
L 740.410446 245.18741 
L 745.836058 245.166385 
L 745.836058 245.029724 
L 746.921181 245.029724 
L 746.921181 245.239972 
L 758.857527 245.303046 
L 758.857527 245.471244 
L 761.027772 245.429194 
L 761.027772 245.334583 
L 768.623628 245.397657 
L 768.623628 245.481756 
L 777.304607 245.481756 
L 777.304607 245.334583 
L 778.38973 245.334583 
L 778.38973 245.502781 
L 800.092177 245.555343 
L 800.092177 245.628929 
L 828.305359 245.702516 
L 828.305359 245.755078 
L 848.922684 245.744565 
L 848.922684 245.744565 
" clip-path="url(#pf27b001c23)" style="fill: none; stroke: #1f77b4; stroke-width: 1.5; stroke-linecap: square"/>
   </g>
   <g id="patch_8">
    <path d="M 507.109135 257.158895 
L 507.109135 7.2 
" style="fill: none; stroke: #000000; stroke-width: 0.8; stroke-linejoin: miter; stroke-linecap: square"/>
   </g>
   <g id="patch_9">
    <path d="M 865.19952 257.158895 
L 865.19952 7.2 
" style="fill: none; stroke: #000000; stroke-width: 0.8; stroke-linejoin: miter; stroke-linecap: square"/>
   </g>
   <g id="patch_10">
    <path d="M 507.109135 257.158895 
L 865.19952 257.158895 
" style="fill: none; stroke: #000000; stroke-width: 0.8; stroke-linejoin: miter; stroke-linecap: square"/>
   </g>
   <g id="patch_11">
    <path d="M 507.109135 7.2 
L 865.19952 7.2 
" style="fill: none; stroke: #000000; stroke-width: 0.8; stroke-linejoin: miter; stroke-linecap: square"/>
   </g>
  </g>
 </g>
 <defs>
  <clipPath id="pe8c3ac0595">
   <rect x="53.328125" y="7.2" width="358.090385" height="249.958895"/>
  </clipPath>
  <clipPath id="pf27b001c23">
   <rect x="507.109135" y="7.2" width="358.090385" height="249.958895"/>
  </clipPath>
 </defs>
</svg>
