<?xml version="1.0" encoding="utf-8" standalone="no"?>
<!DOCTYPE svg PUBLIC "-//W3C//DTD SVG 1.1//EN"
  "http://www.w3.org/Graphics/SVG/1.1/DTD/svg11.dtd">
<svg xmlns:xlink="http://www.w3.org/1999/xlink" width="872.39952pt" height="296.39952pt" viewBox="0 0 872.39952 296.39952" xmlns="http://www.w3.org/2000/svg" version="1.1">
 <metadata>
  <rdf:RDF xmlns:dc="http://purl.org/dc/elements/1.1/" xmlns:cc="http://creativecommons.org/ns#" xmlns:rdf="http://www.w3.org/1999/02/22-rdf-syntax-ns#">
   <cc:Work>
    <dc:type rdf:resource="http://purl.org/dc/dcmitype/StillImage"/>
    <dc:date>2026-03-12T12:42:22.050269</dc:date>
    <dc:format>image/svg+xml</dc:format>
    <dc:creator>
     <cc:Agent>
      <dc:title>Matplotlib v3.10.7, https://matplotlib.org/</dc:title>
     </cc:Agent>
    </dc:creator>
   </cc:Work>
  </rdf:RDF>
 </metadata>
 <defs>
  <style type="text/css">*{stroke-linejoin: round; stroke-linecap: butt}</style>
 </defs>
 <g id="figure_1">
  <g id="patch_1">
   <path d="M 0 296.39952 
L 872.39952 296.39952 
L 872.39952 0 
L 0 0 
z
" style="fill: #ffffff"/>
  </g>
  <g id="axes_1">
   <g id="patch_2">
    <path d="M 53.328125 257.158895 
L 414.59976 257.158895 
L 414.59976 7.2 
L 53.328125 7.2 
z
" style="fill: #ffffff"/>
   </g>
   <g id="matplotlib.axis_1">
    <g id="xtick_1">
     <g id="line2d_1">
      <defs>
       <path id="m9b7a245eac" d="M 0 0 
L 0 3.5 
" style="stroke: #000000; stroke-width: 0.8"/>
      </defs>
      <g>
       <use xlink:href="#m9b7a245eac" x="69.701659" y="257.158895" style="stroke: #000000; stroke-width: 0.8"/>
      </g>
     </g>
     <g id="text_1">
      <!-- 0 -->
      <g transform="translate(66.520409 271.757332) scale(0.1 -0.1)">
       <defs>
        <path id="DejaVuSans-30" d="M 2034 4250 
Q 1547 4250 1301 3770 
Q 1056 3291 1056 2328 
Q 1056 1369 1301 889 
Q 1547 409 2034 409 
Q 2525 409 2770 889 
Q 3016 1369 3016 2328 
Q 3016 3291 2770 3770 
Q 2525 4250 2034 4250 
z
M 2034 4750 
Q 2819 4750 3233 4129 
Q 3647 3509 3647 2328 
Q 3647 1150 3233 529 
Q 2819 -91 2034 -91 
Q 1250 -91 836 529 
Q 422 1150 422 2328 
Q 422 3509 836 4129 
Q 1250 4750 2034 4750 
z
" transform="scale(0.015625)"/>
       </defs>
       <use xlink:href="#DejaVuSans-30"/>
      </g>
     </g>
    </g>
    <g id="xtick_2">
     <g id="line2d_2">
      <g>
       <use xlink:href="#m9b7a245eac" x="124.462002" y="257.158895" style="stroke: #000000; stroke-width: 0.8"/>
      </g>
     </g>
     <g id="text_2">
      <!-- 1000 -->
      <g transform="translate(111.737002 271.757332) scale(0.1 -0.1)">
       <defs>
        <path id="DejaVuSans-31" d="M 794 531 
L 1825 531 
L 1825 4091 
L 703 3866 
L 703 4441 
L 1819 4666 
L 2450 4666 
L 2450 531 
L 3481 531 
L 3481 0 
L 794 0 
L 794 531 
z
" transform="scale(0.015625)"/>
       </defs>
       <use xlink:href="#DejaVuSans-31"/>
       <use xlink:href="#DejaVuSans-30" transform="translate(63.623047 0)"/>
       <use xlink:href="#DejaVuSans-30" transform="translate(127.246094 0)"/>
       <use xlink:href="#DejaVuSans-30" transform="translate(190.869141 0)"/>
      </g>
     </g>
    </g>
    <g id="xtick_3">
     <g id="line2d_3">
      <g>
       <use xlink:href="#m9b7a245eac" x="179.222344" y="257.158895" style="stroke: #000000; stroke-width: 0.8"/>
      </g>
     </g>
     <g id="text_3">
      <!-- 2000 -->
      <g transform="translate(166.497344 271.757332) scale(0.1 -0.1)">
       <defs>
        <path id="DejaVuSans-32" d="M 1228 531 
L 3431 531 
L 3431 0 
L 469 0 
L 469 531 
Q 828 903 1448 1529 
Q 2069 2156 2228 2338 
Q 2531 2678 2651 2914 
Q 2772 3150 2772 3378 
Q 2772 3750 2511 3984 
Q 2250 4219 1831 4219 
Q 1534 4219 1204 4116 
Q 875 4013 500 3803 
L 500 4441 
Q 881 4594 1212 4672 
Q 1544 4750 1819 4750 
Q 2544 4750 2975 4387 
Q 3406 4025 3406 3419 
Q 3406 3131 3298 2873 
Q 3191 2616 2906 2266 
Q 2828 2175 2409 1742 
Q 1991 1309 1228 531 
z
" transform="scale(0.015625)"/>
       </defs>
       <use xlink:href="#DejaVuSans-32"/>
       <use xlink:href="#DejaVuSans-30" transform="translate(63.623047 0)"/>
       <use xlink:href="#DejaVuSans-30" transform="translate(127.246094 0)"/>
       <use xlink:href="#DejaVuSans-30" transform="translate(190.869141 0)"/>
      </g>
     </g>
    </g>
    <g id="xtick_4">
     <g id="line2d_4">
      <g>
       <use xlink:href="#m9b7a245eac" x="233.982687" y="257.158895" style="stroke: #000000; stroke-width: 0.8"/>
      </g>
     </g>
     <g id="text_4">
      <!-- 3000 -->
      <g transform="translate(221.257687 271.757332) scale(0.1 -0.1)">
       <defs>
        <path id="DejaVuSans-33" d="M 2597 2516 
Q 3050 2419 3304 2112 
Q 3559 1806 3559 1356 
Q 3559 666 3084 287 
Q 2609 -91 1734 -91 
Q 1441 -91 1130 -33 
Q 819 25 488 141 
L 488 750 
Q 750 597 1062 519 
Q 1375 441 1716 441 
Q 2309 441 2620 675 
Q 2931 909 2931 1356 
Q 2931 1769 2642 2001 
Q 2353 2234 1838 2234 
L 1294 2234 
L 1294 2753 
L 1863 2753 
Q 2328 2753 2575 2939 
Q 2822 3125 2822 3475 
Q 2822 3834 2567 4026 
Q 2313 4219 1838 4219 
Q 1578 4219 1281 4162 
Q 984 4106 628 3988 
L 628 4550 
Q 988 4650 1302 4700 
Q 1616 4750 1894 4750 
Q 2613 4750 3031 4423 
Q 3450 4097 3450 3541 
Q 3450 3153 3228 2886 
Q 3006 2619 2597 2516 
z
" transform="scale(0.015625)"/>
       </defs>
       <use xlink:href="#DejaVuSans-33"/>
       <use xlink:href="#DejaVuSans-30" transform="translate(63.623047 0)"/>
       <use xlink:href="#DejaVuSans-30" transform="translate(127.246094 0)"/>
       <use xlink:href="#DejaVuSans-30" transform="translate(190.869141 0)"/>
      </g>
     </g>
    </g>
    <g id="xtick_5">
     <g id="line2d_5">
      <g>
       <use xlink:href="#m9b7a245eac" x="288.743029" y="257.158895" style="stroke: #000000; stroke-width: 0.8"/>
      </g>
     </g>
     <g id="text_5">
      <!-- 4000 -->
      <g transform="translate(276.018029 271.757332) scale(0.1 -0.1)">
       <defs>
        <path id="DejaVuSans-34" d="M 2419 4116 
L 825 1625 
L 2419 1625 
L 2419 4116 
z
M 2253 4666 
L 3047 4666 
L 3047 1625 
L 3713 1625 
L 3713 1100 
L 3047 1100 
L 3047 0 
L 2419 0 
L 2419 1100 
L 313 1100 
L 313 1709 
L 2253 4666 
z
" transform="scale(0.015625)"/>
       </defs>
       <use xlink:href="#DejaVuSans-34"/>
       <use xlink:href="#DejaVuSans-30" transform="translate(63.623047 0)"/>
       <use xlink:href="#DejaVuSans-30" transform="translate(127.246094 0)"/>
       <use xlink:href="#DejaVuSans-30" transform="translate(190.869141 0)"/>
      </g>
     </g>
    </g>
    <g id="xtick_6">
     <g id="line2d_6">
      <g>
       <use xlink:href="#m9b7a245eac" x="343.503371" y="257.158895" style="stroke: #000000; stroke-width: 0.8"/>
      </g>
     </g>
     <g id="text_6">
      <!-- 5000 -->
      <g transform="translate(330.778371 271.757332) scale(0.1 -0.1)">
       <defs>
        <path id="DejaVuSans-35" d="M 691 4666 
L 3169 4666 
L 3169 4134 
L 1269 4134 
L 1269 2991 
Q 1406 3038 1543 3061 
Q 1681 3084 1819 3084 
Q 2600 3084 3056 2656 
Q 3513 2228 3513 1497 
Q 3513 744 3044 326 
Q 2575 -91 1722 -91 
Q 1428 -91 1123 -41 
Q 819 9 494 109 
L 494 744 
Q 775 591 1075 516 
Q 1375 441 1709 441 
Q 2250 441 2565 725 
Q 2881 1009 2881 1497 
Q 2881 1984 2565 2268 
Q 2250 2553 1709 2553 
Q 1456 2553 1204 2497 
Q 953 2441 691 2322 
L 691 4666 
z
" transform="scale(0.015625)"/>
       </defs>
       <use xlink:href="#DejaVuSans-35"/>
       <use xlink:href="#DejaVuSans-30" transform="translate(63.623047 0)"/>
       <use xlink:href="#DejaVuSans-30" transform="translate(127.246094 0)"/>
       <use xlink:href="#DejaVuSans-30" transform="translate(190.869141 0)"/>
      </g>
     </g>
    </g>
    <g id="xtick_7">
     <g id="line2d_7">
      <g>
       <use xlink:href="#m9b7a245eac" x="398.263714" y="257.158895" style="stroke: #000000; stroke-width: 0.8"/>
      </g>
     </g>
     <g id="text_7">
      <!-- 6000 -->
      <g transform="translate(385.538714 271.757332) scale(0.1 -0.1)">
       <defs>
        <path id="DejaVuSans-36" d="M 2113 2584 
Q 1688 2584 1439 2293 
Q 1191 2003 1191 1497 
Q 1191 994 1439 701 
Q 1688 409 2113 409 
Q 2538 409 2786 701 
Q 3034 994 3034 1497 
Q 3034 2003 2786 2293 
Q 2538 2584 2113 2584 
z
M 3366 4563 
L 3366 3988 
Q 3128 4100 2886 4159 
Q 2644 4219 2406 4219 
Q 1781 4219 1451 3797 
Q 1122 3375 1075 2522 
Q 1259 2794 1537 2939 
Q 1816 3084 2150 3084 
Q 2853 3084 3261 2657 
Q 3669 2231 3669 1497 
Q 3669 778 3244 343 
Q 2819 -91 2113 -91 
Q 1303 -91 875 529 
Q 447 1150 447 2328 
Q 447 3434 972 4092 
Q 1497 4750 2381 4750 
Q 2619 4750 2861 4703 
Q 3103 4656 3366 4563 
z
" transform="scale(0.015625)"/>
       </defs>
       <use xlink:href="#DejaVuSans-36"/>
       <use xlink:href="#DejaVuSans-30" transform="translate(63.623047 0)"/>
       <use xlink:href="#DejaVuSans-30" transform="translate(127.246094 0)"/>
       <use xlink:href="#DejaVuSans-30" transform="translate(190.869141 0)"/>
      </g>
     </g>
    </g>
    <g id="text_8">
     <!-- birth_time [µs] -->
     <g transform="translate(197.14363 285.435457) scale(0.1 -0.1)">
      <defs>
       <path id="DejaVuSans-62" d="M 3116 1747 
Q 3116 2381 2855 2742 
Q 2594 3103 2138 3103 
Q 1681 3103 1420 2742 
Q 1159 2381 1159 1747 
Q 1159 1113 1420 752 
Q 1681 391 2138 391 
Q 2594 391 2855 752 
Q 3116 1113 3116 1747 
z
M 1159 2969 
Q 1341 3281 1617 3432 
Q 1894 3584 2278 3584 
Q 2916 3584 3314 3078 
Q 3713 2572 3713 1747 
Q 3713 922 3314 415 
Q 2916 -91 2278 -91 
Q 1894 -91 1617 61 
Q 1341 213 1159 525 
L 1159 0 
L 581 0 
L 581 4863 
L 1159 4863 
L 1159 2969 
z
" transform="scale(0.015625)"/>
       <path id="DejaVuSans-69" d="M 603 3500 
L 1178 3500 
L 1178 0 
L 603 0 
L 603 3500 
z
M 603 4863 
L 1178 4863 
L 1178 4134 
L 603 4134 
L 603 4863 
z
" transform="scale(0.015625)"/>
       <path id="DejaVuSans-72" d="M 2631 2963 
Q 2534 3019 2420 3045 
Q 2306 3072 2169 3072 
Q 1681 3072 1420 2755 
Q 1159 2438 1159 1844 
L 1159 0 
L 581 0 
L 581 3500 
L 1159 3500 
L 1159 2956 
Q 1341 3275 1631 3429 
Q 1922 3584 2338 3584 
Q 2397 3584 2469 3576 
Q 2541 3569 2628 3553 
L 2631 2963 
z
" transform="scale(0.015625)"/>
       <path id="DejaVuSans-74" d="M 1172 4494 
L 1172 3500 
L 2356 3500 
L 2356 3053 
L 1172 3053 
L 1172 1153 
Q 1172 725 1289 603 
Q 1406 481 1766 481 
L 2356 481 
L 2356 0 
L 1766 0 
Q 1100 0 847 248 
Q 594 497 594 1153 
L 594 3053 
L 172 3053 
L 172 3500 
L 594 3500 
L 594 4494 
L 1172 4494 
z
" transform="scale(0.015625)"/>
       <path id="DejaVuSans-68" d="M 3513 2113 
L 3513 0 
L 2938 0 
L 2938 2094 
Q 2938 2591 2744 2837 
Q 2550 3084 2163 3084 
Q 1697 3084 1428 2787 
Q 1159 2491 1159 1978 
L 1159 0 
L 581 0 
L 581 4863 
L 1159 4863 
L 1159 2956 
Q 1366 3272 1645 3428 
Q 1925 3584 2291 3584 
Q 2894 3584 3203 3211 
Q 3513 2838 3513 2113 
z
" transform="scale(0.015625)"/>
       <path id="DejaVuSans-5f" d="M 3263 -1063 
L 3263 -1509 
L -63 -1509 
L -63 -1063 
L 3263 -1063 
z
" transform="scale(0.015625)"/>
       <path id="DejaVuSans-6d" d="M 3328 2828 
Q 3544 3216 3844 3400 
Q 4144 3584 4550 3584 
Q 5097 3584 5394 3201 
Q 5691 2819 5691 2113 
L 5691 0 
L 5113 0 
L 5113 2094 
Q 5113 2597 4934 2840 
Q 4756 3084 4391 3084 
Q 3944 3084 3684 2787 
Q 3425 2491 3425 1978 
L 3425 0 
L 2847 0 
L 2847 2094 
Q 2847 2600 2669 2842 
Q 2491 3084 2119 3084 
Q 1678 3084 1418 2786 
Q 1159 2488 1159 1978 
L 1159 0 
L 581 0 
L 581 3500 
L 1159 3500 
L 1159 2956 
Q 1356 3278 1631 3431 
Q 1906 3584 2284 3584 
Q 2666 3584 2933 3390 
Q 3200 3197 3328 2828 
z
" transform="scale(0.015625)"/>
       <path id="DejaVuSans-65" d="M 3597 1894 
L 3597 1613 
L 953 1613 
Q 991 1019 1311 708 
Q 1631 397 2203 397 
Q 2534 397 2845 478 
Q 3156 559 3463 722 
L 3463 178 
Q 3153 47 2828 -22 
Q 2503 -91 2169 -91 
Q 1331 -91 842 396 
Q 353 884 353 1716 
Q 353 2575 817 3079 
Q 1281 3584 2069 3584 
Q 2775 3584 3186 3129 
Q 3597 2675 3597 1894 
z
M 3022 2063 
Q 3016 2534 2758 2815 
Q 2500 3097 2075 3097 
Q 1594 3097 1305 2825 
Q 1016 2553 972 2059 
L 3022 2063 
z
" transform="scale(0.015625)"/>
       <path id="DejaVuSans-20" transform="scale(0.015625)"/>
       <path id="DejaVuSans-5b" d="M 550 4863 
L 1875 4863 
L 1875 4416 
L 1125 4416 
L 1125 -397 
L 1875 -397 
L 1875 -844 
L 550 -844 
L 550 4863 
z
" transform="scale(0.015625)"/>
       <path id="DejaVuSans-b5" d="M 544 -1331 
L 544 3500 
L 1119 3500 
L 1119 1325 
Q 1119 872 1334 640 
Q 1550 409 1972 409 
Q 2434 409 2667 671 
Q 2900 934 2900 1459 
L 2900 3500 
L 3475 3500 
L 3475 806 
Q 3475 619 3529 530 
Q 3584 441 3700 441 
Q 3728 441 3778 458 
Q 3828 475 3916 513 
L 3916 50 
Q 3788 -22 3673 -56 
Q 3559 -91 3450 -91 
Q 3234 -91 3106 31 
Q 2978 153 2931 403 
Q 2775 156 2548 32 
Q 2322 -91 2016 -91 
Q 1697 -91 1473 31 
Q 1250 153 1119 397 
L 1119 -1331 
L 544 -1331 
z
" transform="scale(0.015625)"/>
       <path id="DejaVuSans-73" d="M 2834 3397 
L 2834 2853 
Q 2591 2978 2328 3040 
Q 2066 3103 1784 3103 
Q 1356 3103 1142 2972 
Q 928 2841 928 2578 
Q 928 2378 1081 2264 
Q 1234 2150 1697 2047 
L 1894 2003 
Q 2506 1872 2764 1633 
Q 3022 1394 3022 966 
Q 3022 478 2636 193 
Q 2250 -91 1575 -91 
Q 1294 -91 989 -36 
Q 684 19 347 128 
L 347 722 
Q 666 556 975 473 
Q 1284 391 1588 391 
Q 1994 391 2212 530 
Q 2431 669 2431 922 
Q 2431 1156 2273 1281 
Q 2116 1406 1581 1522 
L 1381 1569 
Q 847 1681 609 1914 
Q 372 2147 372 2553 
Q 372 3047 722 3315 
Q 1072 3584 1716 3584 
Q 2034 3584 2315 3537 
Q 2597 3491 2834 3397 
z
" transform="scale(0.015625)"/>
       <path id="DejaVuSans-5d" d="M 1947 4863 
L 1947 -844 
L 622 -844 
L 622 -397 
L 1369 -397 
L 1369 4416 
L 622 4416 
L 622 4863 
L 1947 4863 
z
" transform="scale(0.015625)"/>
      </defs>
      <use xlink:href="#DejaVuSans-62"/>
      <use xlink:href="#DejaVuSans-69" transform="translate(63.476562 0)"/>
      <use xlink:href="#DejaVuSans-72" transform="translate(91.259766 0)"/>
      <use xlink:href="#DejaVuSans-74" transform="translate(132.373047 0)"/>
      <use xlink:href="#DejaVuSans-68" transform="translate(171.582031 0)"/>
      <use xlink:href="#DejaVuSans-5f" transform="translate(234.960938 0)"/>
      <use xlink:href="#DejaVuSans-74" transform="translate(284.960938 0)"/>
      <use xlink:href="#DejaVuSans-69" transform="translate(324.169922 0)"/>
      <use xlink:href="#DejaVuSans-6d" transform="translate(351.953125 0)"/>
      <use xlink:href="#DejaVuSans-65" transform="translate(449.365234 0)"/>
      <use xlink:href="#DejaVuSans-20" transform="translate(510.888672 0)"/>
      <use xlink:href="#DejaVuSans-5b" transform="translate(542.675781 0)"/>
      <use xlink:href="#DejaVuSans-b5" transform="translate(581.689453 0)"/>
      <use xlink:href="#DejaVuSans-73" transform="translate(645.3125 0)"/>
      <use xlink:href="#DejaVuSans-5d" transform="translate(697.412109 0)"/>
     </g>
    </g>
   </g>
   <g id="matplotlib.axis_2">
    <g id="ytick_1">
     <g id="line2d_8">
      <defs>
       <path id="m5bccfcedcf" d="M 0 0 
L -3.5 0 
" style="stroke: #000000; stroke-width: 0.8"/>
      </defs>
      <g>
       <use xlink:href="#m5bccfcedcf" x="53.328125" y="246.163636" style="stroke: #000000; stroke-width: 0.8"/>
      </g>
     </g>
     <g id="text_9">
      <!-- 0 -->
      <g transform="translate(39.965625 249.962854) scale(0.1 -0.1)">
       <use xlink:href="#DejaVuSans-30"/>
      </g>
     </g>
    </g>
    <g id="ytick_2">
     <g id="line2d_9">
      <g>
       <use xlink:href="#m5bccfcedcf" x="53.328125" y="215.621249" style="stroke: #000000; stroke-width: 0.8"/>
      </g>
     </g>
     <g id="text_10">
      <!-- 250 -->
      <g transform="translate(27.240625 219.420467) scale(0.1 -0.1)">
       <use xlink:href="#DejaVuSans-32"/>
       <use xlink:href="#DejaVuSans-35" transform="translate(63.623047 0)"/>
       <use xlink:href="#DejaVuSans-30" transform="translate(127.246094 0)"/>
      </g>
     </g>
    </g>
    <g id="ytick_3">
     <g id="line2d_10">
      <g>
       <use xlink:href="#m5bccfcedcf" x="53.328125" y="185.078862" style="stroke: #000000; stroke-width: 0.8"/>
      </g>
     </g>
     <g id="text_11">
      <!-- 500 -->
      <g transform="translate(27.240625 188.87808) scale(0.1 -0.1)">
       <use xlink:href="#DejaVuSans-35"/>
       <use xlink:href="#DejaVuSans-30" transform="translate(63.623047 0)"/>
       <use xlink:href="#DejaVuSans-30" transform="translate(127.246094 0)"/>
      </g>
     </g>
    </g>
    <g id="ytick_4">
     <g id="line2d_11">
      <g>
       <use xlink:href="#m5bccfcedcf" x="53.328125" y="154.536475" style="stroke: #000000; stroke-width: 0.8"/>
      </g>
     </g>
     <g id="text_12">
      <!-- 750 -->
      <g transform="translate(27.240625 158.335694) scale(0.1 -0.1)">
       <defs>
        <path id="DejaVuSans-37" d="M 525 4666 
L 3525 4666 
L 3525 4397 
L 1831 0 
L 1172 0 
L 2766 4134 
L 525 4134 
L 525 4666 
z
" transform="scale(0.015625)"/>
       </defs>
       <use xlink:href="#DejaVuSans-37"/>
       <use xlink:href="#DejaVuSans-35" transform="translate(63.623047 0)"/>
       <use xlink:href="#DejaVuSans-30" transform="translate(127.246094 0)"/>
      </g>
     </g>
    </g>
    <g id="ytick_5">
     <g id="line2d_12">
      <g>
       <use xlink:href="#m5bccfcedcf" x="53.328125" y="123.994088" style="stroke: #000000; stroke-width: 0.8"/>
      </g>
     </g>
     <g id="text_13">
      <!-- 1000 -->
      <g transform="translate(20.878125 127.793307) scale(0.1 -0.1)">
       <use xlink:href="#DejaVuSans-31"/>
       <use xlink:href="#DejaVuSans-30" transform="translate(63.623047 0)"/>
       <use xlink:href="#DejaVuSans-30" transform="translate(127.246094 0)"/>
       <use xlink:href="#DejaVuSans-30" transform="translate(190.869141 0)"/>
      </g>
     </g>
    </g>
    <g id="ytick_6">
     <g id="line2d_13">
      <g>
       <use xlink:href="#m5bccfcedcf" x="53.328125" y="93.451701" style="stroke: #000000; stroke-width: 0.8"/>
      </g>
     </g>
     <g id="text_14">
      <!-- 1250 -->
      <g transform="translate(20.878125 97.25092) scale(0.1 -0.1)">
       <use xlink:href="#DejaVuSans-31"/>
       <use xlink:href="#DejaVuSans-32" transform="translate(63.623047 0)"/>
       <use xlink:href="#DejaVuSans-35" transform="translate(127.246094 0)"/>
       <use xlink:href="#DejaVuSans-30" transform="translate(190.869141 0)"/>
      </g>
     </g>
    </g>
    <g id="ytick_7">
     <g id="line2d_14">
      <g>
       <use xlink:href="#m5bccfcedcf" x="53.328125" y="62.909314" style="stroke: #000000; stroke-width: 0.8"/>
      </g>
     </g>
     <g id="text_15">
      <!-- 1500 -->
      <g transform="translate(20.878125 66.708533) scale(0.1 -0.1)">
       <use xlink:href="#DejaVuSans-31"/>
       <use xlink:href="#DejaVuSans-35" transform="translate(63.623047 0)"/>
       <use xlink:href="#DejaVuSans-30" transform="translate(127.246094 0)"/>
       <use xlink:href="#DejaVuSans-30" transform="translate(190.869141 0)"/>
      </g>
     </g>
    </g>
    <g id="ytick_8">
     <g id="line2d_15">
      <g>
       <use xlink:href="#m5bccfcedcf" x="53.328125" y="32.366927" style="stroke: #000000; stroke-width: 0.8"/>
      </g>
     </g>
     <g id="text_16">
      <!-- 1750 -->
      <g transform="translate(20.878125 36.166146) scale(0.1 -0.1)">
       <use xlink:href="#DejaVuSans-31"/>
       <use xlink:href="#DejaVuSans-37" transform="translate(63.623047 0)"/>
       <use xlink:href="#DejaVuSans-35" transform="translate(127.246094 0)"/>
       <use xlink:href="#DejaVuSans-30" transform="translate(190.869141 0)"/>
      </g>
     </g>
    </g>
    <g id="text_17">
     <!-- pulse:0 [counts] -->
     <g transform="translate(14.798438 172.659916) rotate(-90) scale(0.1 -0.1)">
      <defs>
       <path id="DejaVuSans-70" d="M 1159 525 
L 1159 -1331 
L 581 -1331 
L 581 3500 
L 1159 3500 
L 1159 2969 
Q 1341 3281 1617 3432 
Q 1894 3584 2278 3584 
Q 2916 3584 3314 3078 
Q 3713 2572 3713 1747 
Q 3713 922 3314 415 
Q 2916 -91 2278 -91 
Q 1894 -91 1617 61 
Q 1341 213 1159 525 
z
M 3116 1747 
Q 3116 2381 2855 2742 
Q 2594 3103 2138 3103 
Q 1681 3103 1420 2742 
Q 1159 2381 1159 1747 
Q 1159 1113 1420 752 
Q 1681 391 2138 391 
Q 2594 391 2855 752 
Q 3116 1113 3116 1747 
z
" transform="scale(0.015625)"/>
       <path id="DejaVuSans-75" d="M 544 1381 
L 544 3500 
L 1119 3500 
L 1119 1403 
Q 1119 906 1312 657 
Q 1506 409 1894 409 
Q 2359 409 2629 706 
Q 2900 1003 2900 1516 
L 2900 3500 
L 3475 3500 
L 3475 0 
L 2900 0 
L 2900 538 
Q 2691 219 2414 64 
Q 2138 -91 1772 -91 
Q 1169 -91 856 284 
Q 544 659 544 1381 
z
M 1991 3584 
L 1991 3584 
z
" transform="scale(0.015625)"/>
       <path id="DejaVuSans-6c" d="M 603 4863 
L 1178 4863 
L 1178 0 
L 603 0 
L 603 4863 
z
" transform="scale(0.015625)"/>
       <path id="DejaVuSans-3a" d="M 750 794 
L 1409 794 
L 1409 0 
L 750 0 
L 750 794 
z
M 750 3309 
L 1409 3309 
L 1409 2516 
L 750 2516 
L 750 3309 
z
" transform="scale(0.015625)"/>
       <path id="DejaVuSans-63" d="M 3122 3366 
L 3122 2828 
Q 2878 2963 2633 3030 
Q 2388 3097 2138 3097 
Q 1578 3097 1268 2742 
Q 959 2388 959 1747 
Q 959 1106 1268 751 
Q 1578 397 2138 397 
Q 2388 397 2633 464 
Q 2878 531 3122 666 
L 3122 134 
Q 2881 22 2623 -34 
Q 2366 -91 2075 -91 
Q 1284 -91 818 406 
Q 353 903 353 1747 
Q 353 2603 823 3093 
Q 1294 3584 2113 3584 
Q 2378 3584 2631 3529 
Q 2884 3475 3122 3366 
z
" transform="scale(0.015625)"/>
       <path id="DejaVuSans-6f" d="M 1959 3097 
Q 1497 3097 1228 2736 
Q 959 2375 959 1747 
Q 959 1119 1226 758 
Q 1494 397 1959 397 
Q 2419 397 2687 759 
Q 2956 1122 2956 1747 
Q 2956 2369 2687 2733 
Q 2419 3097 1959 3097 
z
M 1959 3584 
Q 2709 3584 3137 3096 
Q 3566 2609 3566 1747 
Q 3566 888 3137 398 
Q 2709 -91 1959 -91 
Q 1206 -91 779 398 
Q 353 888 353 1747 
Q 353 2609 779 3096 
Q 1206 3584 1959 3584 
z
" transform="scale(0.015625)"/>
       <path id="DejaVuSans-6e" d="M 3513 2113 
L 3513 0 
L 2938 0 
L 2938 2094 
Q 2938 2591 2744 2837 
Q 2550 3084 2163 3084 
Q 1697 3084 1428 2787 
Q 1159 2491 1159 1978 
L 1159 0 
L 581 0 
L 581 3500 
L 1159 3500 
L 1159 2956 
Q 1366 3272 1645 3428 
Q 1925 3584 2291 3584 
Q 2894 3584 3203 3211 
Q 3513 2838 3513 2113 
z
" transform="scale(0.015625)"/>
      </defs>
      <use xlink:href="#DejaVuSans-70"/>
      <use xlink:href="#DejaVuSans-75" transform="translate(63.476562 0)"/>
      <use xlink:href="#DejaVuSans-6c" transform="translate(126.855469 0)"/>
      <use xlink:href="#DejaVuSans-73" transform="translate(154.638672 0)"/>
      <use xlink:href="#DejaVuSans-65" transform="translate(206.738281 0)"/>
      <use xlink:href="#DejaVuSans-3a" transform="translate(268.261719 0)"/>
      <use xlink:href="#DejaVuSans-30" transform="translate(301.953125 0)"/>
      <use xlink:href="#DejaVuSans-20" transform="translate(365.576172 0)"/>
      <use xlink:href="#DejaVuSans-5b" transform="translate(397.363281 0)"/>
      <use xlink:href="#DejaVuSans-63" transform="translate(436.376953 0)"/>
      <use xlink:href="#DejaVuSans-6f" transform="translate(491.357422 0)"/>
      <use xlink:href="#DejaVuSans-75" transform="translate(552.539062 0)"/>
      <use xlink:href="#DejaVuSans-6e" transform="translate(615.917969 0)"/>
      <use xlink:href="#DejaVuSans-74" transform="translate(679.296875 0)"/>
      <use xlink:href="#DejaVuSans-73" transform="translate(718.505859 0)"/>
      <use xlink:href="#DejaVuSans-5d" transform="translate(770.605469 0)"/>
     </g>
    </g>
   </g>
   <g id="line2d_16">
    <path d="M 69.749563 245.552788 
L 70.844325 245.552788 
L 70.844325 245.430618 
L 71.939088 245.430618 
L 71.939088 245.797127 
L 73.033851 245.797127 
L 73.033851 245.186279 
L 74.128613 245.186279 
L 74.128613 245.552788 
L 75.223376 245.552788 
L 75.223376 244.819771 
L 77.412901 244.819771 
L 77.412901 243.598075 
L 78.507663 243.598075 
L 78.507663 244.086753 
L 79.602426 244.086753 
L 79.602426 244.208923 
L 80.697188 244.208923 
L 80.697188 244.697601 
L 81.791951 244.697601 
L 81.791951 244.94194 
L 82.886713 244.94194 
L 82.886713 244.331092 
L 83.981476 244.331092 
L 83.981476 243.353736 
L 85.076238 243.353736 
L 85.076238 244.331092 
L 86.171001 244.331092 
L 86.171001 244.208923 
L 87.265763 244.208923 
L 87.265763 242.987227 
L 88.360526 242.987227 
L 88.360526 244.086753 
L 89.455288 244.086753 
L 89.455288 243.231567 
L 90.550051 243.231567 
L 90.550051 243.475906 
L 92.739576 243.475906 
L 92.739576 242.865058 
L 93.834339 242.865058 
L 93.834339 243.231567 
L 94.929101 243.231567 
L 94.929101 242.498549 
L 96.023864 242.498549 
L 96.023864 243.109397 
L 97.118626 243.109397 
L 97.118626 240.666006 
L 98.213389 240.666006 
L 98.213389 241.521193 
L 99.308151 241.521193 
L 99.308151 241.643362 
L 100.402914 241.643362 
L 100.402914 241.276854 
L 101.497676 241.276854 
L 101.497676 242.498549 
L 102.592439 242.498549 
L 102.592439 239.810819 
L 103.687201 239.810819 
L 103.687201 238.466954 
L 104.781964 238.466954 
L 104.781964 239.68865 
L 105.876726 239.68865 
L 105.876726 239.444311 
L 106.971489 239.444311 
L 106.971489 239.077802 
L 108.066252 239.077802 
L 108.066252 238.100446 
L 109.161014 238.100446 
L 109.161014 235.779224 
L 110.255777 235.779224 
L 110.255777 238.589124 
L 111.350539 238.589124 
L 111.350539 235.290546 
L 112.445302 235.290546 
L 112.445302 235.657055 
L 113.540064 235.657055 
L 113.540064 234.679698 
L 114.634827 234.679698 
L 114.634827 235.290546 
L 115.729589 235.290546 
L 115.729589 233.458003 
L 116.824352 233.458003 
L 116.824352 235.534885 
L 117.919114 235.534885 
L 117.919114 232.847155 
L 119.013877 232.847155 
L 119.013877 232.236307 
L 120.108639 232.236307 
L 120.108639 230.159425 
L 121.203402 230.159425 
L 121.203402 231.258951 
L 122.298164 231.258951 
L 122.298164 229.670747 
L 123.392927 229.670747 
L 123.392927 229.059899 
L 124.487689 229.059899 
L 124.487689 231.625459 
L 125.582452 231.625459 
L 125.582452 228.571221 
L 126.677215 228.571221 
L 126.677215 228.81556 
L 127.771977 228.81556 
L 127.771977 225.761321 
L 128.86674 225.761321 
L 128.86674 222.340574 
L 129.961502 222.340574 
L 129.961502 221.485387 
L 131.056265 221.485387 
L 131.056265 222.218404 
L 132.151027 222.218404 
L 132.151027 221.607557 
L 133.24579 221.607557 
L 133.24579 218.06464 
L 134.340552 218.06464 
L 134.340552 220.75237 
L 135.435315 220.75237 
L 135.435315 215.37691 
L 136.530077 215.37691 
L 136.530077 213.300027 
L 137.62484 213.300027 
L 137.62484 215.499079 
L 138.719602 215.499079 
L 138.719602 215.743418 
L 139.814365 215.743418 
L 139.814365 209.512771 
L 140.909127 209.512771 
L 140.909127 211.223145 
L 142.00389 211.223145 
L 142.00389 212.68918 
L 143.098652 212.68918 
L 143.098652 207.924567 
L 144.193415 207.924567 
L 144.193415 209.512771 
L 145.288178 209.512771 
L 145.288178 199.739207 
L 146.38294 199.739207 
L 146.38294 199.617038 
L 147.477703 199.617038 
L 147.477703 203.648633 
L 148.572465 203.648633 
L 148.572465 205.603346 
L 149.667228 205.603346 
L 149.667228 197.173647 
L 150.76199 197.173647 
L 150.76199 194.852426 
L 151.856753 194.852426 
L 151.856753 187.033575 
L 152.951515 187.033575 
L 152.951515 188.866118 
L 154.046278 188.866118 
L 154.046278 188.010931 
L 155.14104 188.010931 
L 155.14104 186.056218 
L 156.235803 186.056218 
L 156.235803 182.513301 
L 157.330565 182.513301 
L 157.330565 183.490658 
L 158.425328 183.490658 
L 158.425328 183.001979 
L 159.52009 183.001979 
L 159.52009 176.649163 
L 160.614853 176.649163 
L 160.614853 173.228416 
L 161.709615 173.228416 
L 161.709615 173.839263 
L 162.804378 173.839263 
L 162.804378 168.097295 
L 163.899141 168.097295 
L 163.899141 167.852955 
L 164.993903 167.852955 
L 164.993903 162.844004 
L 166.088666 162.844004 
L 166.088666 162.721834 
L 167.183428 162.721834 
L 167.183428 158.934578 
L 168.278191 158.934578 
L 168.278191 159.301087 
L 169.372953 159.301087 
L 169.372953 155.513831 
L 170.467716 155.513831 
L 170.467716 150.260541 
L 171.562478 150.260541 
L 171.562478 149.894032 
L 172.657241 149.894032 
L 172.657241 148.916676 
L 173.752003 148.916676 
L 173.752003 146.595454 
L 174.846766 146.595454 
L 174.846766 146.351115 
L 175.941528 146.351115 
L 175.941528 138.287925 
L 177.036291 138.287925 
L 177.036291 135.233686 
L 178.131053 135.233686 
L 178.131053 128.147852 
L 179.225816 128.147852 
L 179.225816 128.270022 
L 180.320579 128.270022 
L 180.320579 122.405884 
L 181.415341 122.405884 
L 181.415341 127.170496 
L 182.510104 127.170496 
L 182.510104 118.496458 
L 183.604866 118.496458 
L 183.604866 112.754489 
L 184.699629 112.754489 
L 184.699629 109.578081 
L 185.794391 109.578081 
L 185.794391 113.487507 
L 186.889154 113.487507 
L 186.889154 111.044116 
L 187.983916 111.044116 
L 187.983916 105.424317 
L 189.078679 105.424317 
L 189.078679 95.895092 
L 190.173441 95.895092 
L 190.173441 104.080451 
L 191.268204 104.080451 
L 191.268204 96.38377 
L 192.362966 96.38377 
L 192.362966 99.560178 
L 193.457729 99.560178 
L 193.457729 91.741327 
L 194.552491 91.741327 
L 194.552491 84.166815 
L 195.647254 84.166815 
L 195.647254 94.062549 
L 196.742016 94.062549 
L 196.742016 82.700781 
L 197.836779 82.700781 
L 197.836779 79.402203 
L 198.931542 79.402203 
L 198.931542 74.026743 
L 200.026304 74.026743 
L 200.026304 71.705521 
L 201.121067 71.705521 
L 201.121067 70.239487 
L 202.215829 70.239487 
L 202.215829 68.284774 
L 203.310592 68.284774 
L 203.310592 62.176297 
L 204.405354 62.176297 
L 204.405354 64.497518 
L 205.500117 64.497518 
L 205.500117 56.434328 
L 206.594879 56.434328 
L 206.594879 61.809788 
L 207.689642 61.809788 
L 207.689642 53.25792 
L 208.784404 53.25792 
L 208.784404 45.927747 
L 209.879167 45.927747 
L 209.879167 62.542805 
L 210.973929 62.542805 
L 210.973929 53.868767 
L 212.068692 53.868767 
L 212.068692 48.981985 
L 213.163454 48.981985 
L 213.163454 42.995678 
L 214.258217 42.995678 
L 214.258217 45.561238 
L 215.352979 45.561238 
L 215.352979 38.231065 
L 216.447742 38.231065 
L 216.447742 46.782934 
L 217.542505 46.782934 
L 217.542505 38.353235 
L 218.637267 38.353235 
L 218.637267 42.751338 
L 219.73203 42.751338 
L 219.73203 38.719743 
L 220.826792 38.719743 
L 220.826792 37.620217 
L 221.921555 37.620217 
L 221.921555 31.145231 
L 223.016317 31.145231 
L 223.016317 34.565979 
L 224.11108 34.565979 
L 224.11108 33.222114 
L 225.205842 33.222114 
L 225.205842 25.891941 
L 226.300605 25.891941 
L 226.300605 25.525432 
L 227.395367 25.525432 
L 227.395367 27.113636 
L 228.49013 27.113636 
L 228.49013 25.036754 
L 229.584892 25.036754 
L 229.584892 42.018321 
L 230.679655 42.018321 
L 230.679655 29.190519 
L 231.774417 29.190519 
L 231.774417 35.543335 
L 232.86918 35.543335 
L 232.86918 27.113636 
L 233.963942 27.113636 
L 233.963942 29.557027 
L 235.058705 29.557027 
L 235.058705 28.213162 
L 236.153468 28.213162 
L 236.153468 36.8872 
L 237.24823 36.8872 
L 237.24823 26.258449 
L 238.342993 26.258449 
L 238.342993 30.412214 
L 239.437755 30.412214 
L 239.437755 23.937228 
L 240.532518 23.937228 
L 240.532518 31.023062 
L 241.62728 31.023062 
L 241.62728 43.484356 
L 242.722043 43.484356 
L 242.722043 18.561768 
L 243.816805 18.561768 
L 243.816805 29.801366 
L 244.911568 29.801366 
L 244.911568 35.298996 
L 246.00633 35.298996 
L 246.00633 39.941439 
L 247.101093 39.941439 
L 247.101093 42.506999 
L 248.195855 42.506999 
L 248.195855 38.964082 
L 249.290618 38.964082 
L 249.290618 42.873508 
L 250.38538 42.873508 
L 250.38538 44.217373 
L 251.480143 44.217373 
L 251.480143 44.706051 
L 252.574906 44.706051 
L 252.574906 42.995678 
L 253.669668 42.995678 
L 253.669668 48.859816 
L 254.764431 48.859816 
L 254.764431 50.203681 
L 255.859193 50.203681 
L 255.859193 49.104155 
L 256.953956 49.104155 
L 256.953956 45.927747 
L 258.048718 45.927747 
L 258.048718 49.348494 
L 259.143481 49.348494 
L 259.143481 53.990937 
L 260.238243 53.990937 
L 260.238243 56.312158 
L 261.333006 56.312158 
L 261.333006 55.212632 
L 262.427768 55.212632 
L 262.427768 69.628639 
L 263.522531 69.628639 
L 263.522531 69.872978 
L 264.617293 69.872978 
L 264.617293 61.687618 
L 265.712056 61.687618 
L 265.712056 66.207892 
L 266.806818 66.207892 
L 266.806818 78.058338 
L 267.901581 78.058338 
L 267.901581 69.995148 
L 268.996343 69.995148 
L 268.996343 72.316369 
L 270.091106 72.316369 
L 270.091106 82.700781 
L 271.185869 82.700781 
L 271.185869 78.913525 
L 272.280631 78.913525 
L 272.280631 84.655493 
L 273.375394 84.655493 
L 273.375394 90.88614 
L 274.470156 90.88614 
L 274.470156 92.718684 
L 275.564919 92.718684 
L 275.564919 92.352175 
L 276.659681 92.352175 
L 276.659681 94.429057 
L 277.754444 94.429057 
L 277.754444 104.56913 
L 278.849206 104.56913 
L 278.849206 105.424317 
L 279.943969 105.424317 
L 279.943969 104.813469 
L 281.038731 104.813469 
L 281.038731 112.265811 
L 282.133494 112.265811 
L 282.133494 106.279503 
L 283.228256 106.279503 
L 283.228256 110.921946 
L 284.323019 110.921946 
L 284.323019 119.107306 
L 285.417781 119.107306 
L 285.417781 124.604936 
L 286.512544 124.604936 
L 286.512544 129.125209 
L 287.607306 129.125209 
L 287.607306 118.985136 
L 288.702069 118.985136 
L 288.702069 136.577551 
L 289.796832 136.577551 
L 289.796832 133.401143 
L 290.891594 133.401143 
L 290.891594 133.767652 
L 291.986357 133.767652 
L 291.986357 131.202091 
L 293.081119 131.202091 
L 293.081119 143.419046 
L 294.175882 143.419046 
L 294.175882 142.563859 
L 295.270644 142.563859 
L 295.270644 148.061489 
L 296.365407 148.061489 
L 296.365407 151.848745 
L 297.460169 151.848745 
L 297.460169 152.215253 
L 298.554932 152.215253 
L 298.554932 156.369018 
L 299.649694 156.369018 
L 299.649694 153.559118 
L 300.744457 153.559118 
L 300.744457 162.599665 
L 301.839219 162.599665 
L 301.839219 162.355326 
L 302.933982 162.355326 
L 302.933982 162.721834 
L 304.028744 162.721834 
L 304.028744 167.852955 
L 305.123507 167.852955 
L 305.123507 168.097295 
L 306.218269 168.097295 
L 306.218269 170.907194 
L 307.313032 170.907194 
L 307.313032 175.183128 
L 308.407795 175.183128 
L 308.407795 173.472755 
L 309.502557 173.472755 
L 309.502557 177.626519 
L 310.59732 177.626519 
L 310.59732 182.146793 
L 311.692082 182.146793 
L 311.692082 183.368488 
L 312.786845 183.368488 
L 312.786845 184.712353 
L 313.881607 184.712353 
L 313.881607 187.766592 
L 314.97637 187.766592 
L 314.97637 188.866118 
L 316.071132 188.866118 
L 316.071132 196.44063 
L 317.165895 196.44063 
L 317.165895 194.363747 
L 318.260657 194.363747 
L 318.260657 191.920356 
L 319.35542 191.920356 
L 319.35542 197.417986 
L 320.450182 197.417986 
L 320.450182 199.617038 
L 321.544945 199.617038 
L 321.544945 202.060429 
L 322.639707 202.060429 
L 322.639707 206.336363 
L 323.73447 206.336363 
L 323.73447 204.870328 
L 324.829233 204.870328 
L 324.829233 207.313719 
L 327.018758 207.313719 
L 327.018758 208.413245 
L 328.11352 208.413245 
L 328.11352 209.390602 
L 329.208283 209.390602 
L 329.208283 210.734467 
L 330.303045 210.734467 
L 330.303045 215.010401 
L 332.49257 215.010401 
L 332.49257 219.286335 
L 333.587333 219.286335 
L 333.587333 218.919827 
L 334.682095 218.919827 
L 334.682095 220.874539 
L 335.776858 220.874539 
L 335.776858 221.485387 
L 336.87162 221.485387 
L 336.87162 219.530674 
L 337.966383 219.530674 
L 337.966383 225.761321 
L 339.061145 225.761321 
L 339.061145 226.494338 
L 340.155908 226.494338 
L 340.155908 224.417456 
L 341.25067 224.417456 
L 341.25067 223.806608 
L 342.345433 223.806608 
L 342.345433 227.960373 
L 343.440196 227.960373 
L 343.440196 226.372169 
L 344.534958 226.372169 
L 344.534958 228.571221 
L 345.629721 228.571221 
L 345.629721 230.281594 
L 346.724483 230.281594 
L 346.724483 231.258951 
L 347.819246 231.258951 
L 347.819246 232.602816 
L 348.914008 232.602816 
L 348.914008 231.991968 
L 350.008771 231.991968 
L 350.008771 235.290546 
L 351.103533 235.290546 
L 351.103533 234.924037 
L 352.198296 234.924037 
L 352.198296 233.091494 
L 353.293058 233.091494 
L 353.293058 235.534885 
L 354.387821 235.534885 
L 354.387821 237.367428 
L 355.482583 237.367428 
L 355.482583 235.779224 
L 356.577346 235.779224 
L 356.577346 238.344785 
L 357.672108 238.344785 
L 357.672108 236.145733 
L 358.766871 236.145733 
L 358.766871 237.856106 
L 359.861633 237.856106 
L 359.861633 240.177328 
L 360.956396 240.177328 
L 360.956396 239.68865 
L 362.051159 239.68865 
L 362.051159 238.344785 
L 363.145921 238.344785 
L 363.145921 237.978276 
L 364.240684 237.978276 
L 364.240684 240.055158 
L 365.335446 240.055158 
L 365.335446 241.521193 
L 366.430209 241.521193 
L 366.430209 240.788176 
L 368.619734 240.788176 
L 368.619734 240.666006 
L 369.714496 240.666006 
L 369.714496 241.154684 
L 370.809259 241.154684 
L 370.809259 242.25421 
L 371.904021 242.25421 
L 371.904021 241.399023 
L 372.998784 241.399023 
L 372.998784 242.37638 
L 374.093546 242.37638 
L 374.093546 242.620719 
L 375.188309 242.620719 
L 375.188309 243.109397 
L 376.283071 243.109397 
L 376.283071 242.742888 
L 377.377834 242.742888 
L 377.377834 243.598075 
L 378.472596 243.598075 
L 378.472596 241.399023 
L 379.567359 241.399023 
L 379.567359 243.598075 
L 381.756884 243.598075 
L 381.756884 243.109397 
L 382.851647 243.109397 
L 382.851647 244.453262 
L 383.946409 244.453262 
L 383.946409 243.964584 
L 385.041172 243.964584 
L 385.041172 244.575432 
L 386.135934 244.575432 
L 386.135934 244.208923 
L 387.230697 244.208923 
L 387.230697 244.331092 
L 388.325459 244.331092 
L 388.325459 244.453262 
L 389.420222 244.453262 
L 389.420222 244.819771 
L 390.514984 244.819771 
L 390.514984 244.697601 
L 391.609747 244.697601 
L 391.609747 245.308449 
L 392.704509 245.308449 
L 392.704509 245.06411 
L 393.799272 245.06411 
L 393.799272 244.94194 
L 394.894034 244.94194 
L 394.894034 245.308449 
L 395.988797 245.308449 
L 395.988797 245.430618 
L 397.08356 245.430618 
L 397.08356 245.06411 
L 398.178322 245.06411 
L 398.178322 245.06411 
" clip-path="url(#pb825d7e7c6)" style="fill: none; stroke: #1f77b4; stroke-width: 1.5; stroke-linecap: square"/>
   </g>
   <g id="patch_3">
    <path d="M 53.328125 257.158895 
L 53.328125 7.2 
" style="fill: none; stroke: #000000; stroke-width: 0.8; stroke-linejoin: miter; stroke-linecap: square"/>
   </g>
   <g id="patch_4">
    <path d="M 414.59976 257.158895 
L 414.59976 7.2 
" style="fill: none; stroke: #000000; stroke-width: 0.8; stroke-linejoin: miter; stroke-linecap: square"/>
   </g>
   <g id="patch_5">
    <path d="M 53.328125 257.158895 
L 414.59976 257.158895 
" style="fill: none; stroke: #000000; stroke-width: 0.8; stroke-linejoin: miter; stroke-linecap: square"/>
   </g>
   <g id="patch_6">
    <path d="M 53.328125 7.2 
L 414.59976 7.2 
" style="fill: none; stroke: #000000; stroke-width: 0.8; stroke-linejoin: miter; stroke-linecap: square"/>
   </g>
  </g>
  <g id="axes_2">
   <g id="patch_7">
    <path d="M 503.927885 257.158895 
L 865.19952 257.158895 
L 865.19952 7.2 
L 503.927885 7.2 
z
" style="fill: #ffffff"/>
   </g>
   <g id="matplotlib.axis_3">
    <g id="xtick_8">
     <g id="line2d_17">
      <g>
       <use xlink:href="#m9b7a245eac" x="512.858702" y="257.158895" style="stroke: #000000; stroke-width: 0.8"/>
      </g>
     </g>
     <g id="text_18">
      <!-- 0 -->
      <g transform="translate(509.677452 271.757332) scale(0.1 -0.1)">
       <use xlink:href="#DejaVuSans-30"/>
      </g>
     </g>
    </g>
    <g id="xtick_9">
     <g id="line2d_18">
      <g>
       <use xlink:href="#m9b7a245eac" x="587.527516" y="257.158895" style="stroke: #000000; stroke-width: 0.8"/>
      </g>
     </g>
     <g id="text_19">
      <!-- 2 -->
      <g transform="translate(584.346266 271.757332) scale(0.1 -0.1)">
       <use xlink:href="#DejaVuSans-32"/>
      </g>
     </g>
    </g>
    <g id="xtick_10">
     <g id="line2d_19">
      <g>
       <use xlink:href="#m9b7a245eac" x="662.19633" y="257.158895" style="stroke: #000000; stroke-width: 0.8"/>
      </g>
     </g>
     <g id="text_20">
      <!-- 4 -->
      <g transform="translate(659.01508 271.757332) scale(0.1 -0.1)">
       <use xlink:href="#DejaVuSans-34"/>
      </g>
     </g>
    </g>
    <g id="xtick_11">
     <g id="line2d_20">
      <g>
       <use xlink:href="#m9b7a245eac" x="736.865144" y="257.158895" style="stroke: #000000; stroke-width: 0.8"/>
      </g>
     </g>
     <g id="text_21">
      <!-- 6 -->
      <g transform="translate(733.683894 271.757332) scale(0.1 -0.1)">
       <use xlink:href="#DejaVuSans-36"/>
      </g>
     </g>
    </g>
    <g id="xtick_12">
     <g id="line2d_21">
      <g>
       <use xlink:href="#m9b7a245eac" x="811.533957" y="257.158895" style="stroke: #000000; stroke-width: 0.8"/>
      </g>
     </g>
     <g id="text_22">
      <!-- 8 -->
      <g transform="translate(808.352707 271.757332) scale(0.1 -0.1)">
       <defs>
        <path id="DejaVuSans-38" d="M 2034 2216 
Q 1584 2216 1326 1975 
Q 1069 1734 1069 1313 
Q 1069 891 1326 650 
Q 1584 409 2034 409 
Q 2484 409 2743 651 
Q 3003 894 3003 1313 
Q 3003 1734 2745 1975 
Q 2488 2216 2034 2216 
z
M 1403 2484 
Q 997 2584 770 2862 
Q 544 3141 544 3541 
Q 544 4100 942 4425 
Q 1341 4750 2034 4750 
Q 2731 4750 3128 4425 
Q 3525 4100 3525 3541 
Q 3525 3141 3298 2862 
Q 3072 2584 2669 2484 
Q 3125 2378 3379 2068 
Q 3634 1759 3634 1313 
Q 3634 634 3220 271 
Q 2806 -91 2034 -91 
Q 1263 -91 848 271 
Q 434 634 434 1313 
Q 434 1759 690 2068 
Q 947 2378 1403 2484 
z
M 1172 3481 
Q 1172 3119 1398 2916 
Q 1625 2713 2034 2713 
Q 2441 2713 2670 2916 
Q 2900 3119 2900 3481 
Q 2900 3844 2670 4047 
Q 2441 4250 2034 4250 
Q 1625 4250 1398 4047 
Q 1172 3844 1172 3481 
z
" transform="scale(0.015625)"/>
       </defs>
       <use xlink:href="#DejaVuSans-38"/>
      </g>
     </g>
    </g>
    <g id="text_23">
     <!-- wavelength [Å] -->
     <g transform="translate(646.526202 287.119832) scale(0.1 -0.1)">
      <defs>
       <path id="DejaVuSans-77" d="M 269 3500 
L 844 3500 
L 1563 769 
L 2278 3500 
L 2956 3500 
L 3675 769 
L 4391 3500 
L 4966 3500 
L 4050 0 
L 3372 0 
L 2619 2869 
L 1863 0 
L 1184 0 
L 269 3500 
z
" transform="scale(0.015625)"/>
       <path id="DejaVuSans-61" d="M 2194 1759 
Q 1497 1759 1228 1600 
Q 959 1441 959 1056 
Q 959 750 1161 570 
Q 1363 391 1709 391 
Q 2188 391 2477 730 
Q 2766 1069 2766 1631 
L 2766 1759 
L 2194 1759 
z
M 3341 1997 
L 3341 0 
L 2766 0 
L 2766 531 
Q 2569 213 2275 61 
Q 1981 -91 1556 -91 
Q 1019 -91 701 211 
Q 384 513 384 1019 
Q 384 1609 779 1909 
Q 1175 2209 1959 2209 
L 2766 2209 
L 2766 2266 
Q 2766 2663 2505 2880 
Q 2244 3097 1772 3097 
Q 1472 3097 1187 3025 
Q 903 2953 641 2809 
L 641 3341 
Q 956 3463 1253 3523 
Q 1550 3584 1831 3584 
Q 2591 3584 2966 3190 
Q 3341 2797 3341 1997 
z
" transform="scale(0.015625)"/>
       <path id="DejaVuSans-76" d="M 191 3500 
L 800 3500 
L 1894 563 
L 2988 3500 
L 3597 3500 
L 2284 0 
L 1503 0 
L 191 3500 
z
" transform="scale(0.015625)"/>
       <path id="DejaVuSans-67" d="M 2906 1791 
Q 2906 2416 2648 2759 
Q 2391 3103 1925 3103 
Q 1463 3103 1205 2759 
Q 947 2416 947 1791 
Q 947 1169 1205 825 
Q 1463 481 1925 481 
Q 2391 481 2648 825 
Q 2906 1169 2906 1791 
z
M 3481 434 
Q 3481 -459 3084 -895 
Q 2688 -1331 1869 -1331 
Q 1566 -1331 1297 -1286 
Q 1028 -1241 775 -1147 
L 775 -588 
Q 1028 -725 1275 -790 
Q 1522 -856 1778 -856 
Q 2344 -856 2625 -561 
Q 2906 -266 2906 331 
L 2906 616 
Q 2728 306 2450 153 
Q 2172 0 1784 0 
Q 1141 0 747 490 
Q 353 981 353 1791 
Q 353 2603 747 3093 
Q 1141 3584 1784 3584 
Q 2172 3584 2450 3431 
Q 2728 3278 2906 2969 
L 2906 3500 
L 3481 3500 
L 3481 434 
z
" transform="scale(0.015625)"/>
       <path id="DejaVuSans-c5" d="M 2663 5081 
Q 2663 5278 2523 5417 
Q 2384 5556 2188 5556 
Q 1988 5556 1852 5420 
Q 1716 5284 1716 5081 
Q 1716 4884 1853 4746 
Q 1991 4609 2188 4609 
Q 2384 4609 2523 4746 
Q 2663 4884 2663 5081 
z
M 2188 4044 
L 1338 1722 
L 3041 1722 
L 2188 4044 
z
M 1716 4366 
Q 1525 4494 1428 4673 
Q 1331 4853 1331 5081 
Q 1331 5441 1579 5691 
Q 1828 5941 2188 5941 
Q 2544 5941 2795 5689 
Q 3047 5438 3047 5081 
Q 3047 4863 2948 4678 
Q 2850 4494 2663 4366 
L 4325 0 
L 3669 0 
L 3244 1197 
L 1141 1197 
L 716 0 
L 50 0 
L 1716 4366 
z
" transform="scale(0.015625)"/>
      </defs>
      <use xlink:href="#DejaVuSans-77"/>
      <use xlink:href="#DejaVuSans-61" transform="translate(81.787109 0)"/>
      <use xlink:href="#DejaVuSans-76" transform="translate(143.066406 0)"/>
      <use xlink:href="#DejaVuSans-65" transform="translate(202.246094 0)"/>
      <use xlink:href="#DejaVuSans-6c" transform="translate(263.769531 0)"/>
      <use xlink:href="#DejaVuSans-65" transform="translate(291.552734 0)"/>
      <use xlink:href="#DejaVuSans-6e" transform="translate(353.076172 0)"/>
      <use xlink:href="#DejaVuSans-67" transform="translate(416.455078 0)"/>
      <use xlink:href="#DejaVuSans-74" transform="translate(479.931641 0)"/>
      <use xlink:href="#DejaVuSans-68" transform="translate(519.140625 0)"/>
      <use xlink:href="#DejaVuSans-20" transform="translate(582.519531 0)"/>
      <use xlink:href="#DejaVuSans-5b" transform="translate(614.306641 0)"/>
      <use xlink:href="#DejaVuSans-c5" transform="translate(653.320312 0)"/>
      <use xlink:href="#DejaVuSans-5d" transform="translate(721.728516 0)"/>
     </g>
    </g>
   </g>
   <g id="matplotlib.axis_4">
    <g id="ytick_9">
     <g id="line2d_22">
      <g>
       <use xlink:href="#m5bccfcedcf" x="503.927885" y="246.286595" style="stroke: #000000; stroke-width: 0.8"/>
      </g>
     </g>
     <g id="text_24">
      <!-- 0 -->
      <g transform="translate(490.565385 250.085813) scale(0.1 -0.1)">
       <use xlink:href="#DejaVuSans-30"/>
      </g>
     </g>
    </g>
    <g id="ytick_10">
     <g id="line2d_23">
      <g>
       <use xlink:href="#m5bccfcedcf" x="503.927885" y="215.694866" style="stroke: #000000; stroke-width: 0.8"/>
      </g>
     </g>
     <g id="text_25">
      <!-- 250 -->
      <g transform="translate(477.840385 219.494085) scale(0.1 -0.1)">
       <use xlink:href="#DejaVuSans-32"/>
       <use xlink:href="#DejaVuSans-35" transform="translate(63.623047 0)"/>
       <use xlink:href="#DejaVuSans-30" transform="translate(127.246094 0)"/>
      </g>
     </g>
    </g>
    <g id="ytick_11">
     <g id="line2d_24">
      <g>
       <use xlink:href="#m5bccfcedcf" x="503.927885" y="185.103138" style="stroke: #000000; stroke-width: 0.8"/>
      </g>
     </g>
     <g id="text_26">
      <!-- 500 -->
      <g transform="translate(477.840385 188.902357) scale(0.1 -0.1)">
       <use xlink:href="#DejaVuSans-35"/>
       <use xlink:href="#DejaVuSans-30" transform="translate(63.623047 0)"/>
       <use xlink:href="#DejaVuSans-30" transform="translate(127.246094 0)"/>
      </g>
     </g>
    </g>
    <g id="ytick_12">
     <g id="line2d_25">
      <g>
       <use xlink:href="#m5bccfcedcf" x="503.927885" y="154.511409" style="stroke: #000000; stroke-width: 0.8"/>
      </g>
     </g>
     <g id="text_27">
      <!-- 750 -->
      <g transform="translate(477.840385 158.310628) scale(0.1 -0.1)">
       <use xlink:href="#DejaVuSans-37"/>
       <use xlink:href="#DejaVuSans-35" transform="translate(63.623047 0)"/>
       <use xlink:href="#DejaVuSans-30" transform="translate(127.246094 0)"/>
      </g>
     </g>
    </g>
    <g id="ytick_13">
     <g id="line2d_26">
      <g>
       <use xlink:href="#m5bccfcedcf" x="503.927885" y="123.919681" style="stroke: #000000; stroke-width: 0.8"/>
      </g>
     </g>
     <g id="text_28">
      <!-- 1000 -->
      <g transform="translate(471.477885 127.7189) scale(0.1 -0.1)">
       <use xlink:href="#DejaVuSans-31"/>
       <use xlink:href="#DejaVuSans-30" transform="translate(63.623047 0)"/>
       <use xlink:href="#DejaVuSans-30" transform="translate(127.246094 0)"/>
       <use xlink:href="#DejaVuSans-30" transform="translate(190.869141 0)"/>
      </g>
     </g>
    </g>
    <g id="ytick_14">
     <g id="line2d_27">
      <g>
       <use xlink:href="#m5bccfcedcf" x="503.927885" y="93.327952" style="stroke: #000000; stroke-width: 0.8"/>
      </g>
     </g>
     <g id="text_29">
      <!-- 1250 -->
      <g transform="translate(471.477885 97.127171) scale(0.1 -0.1)">
       <use xlink:href="#DejaVuSans-31"/>
       <use xlink:href="#DejaVuSans-32" transform="translate(63.623047 0)"/>
       <use xlink:href="#DejaVuSans-35" transform="translate(127.246094 0)"/>
       <use xlink:href="#DejaVuSans-30" transform="translate(190.869141 0)"/>
      </g>
     </g>
    </g>
    <g id="ytick_15">
     <g id="line2d_28">
      <g>
       <use xlink:href="#m5bccfcedcf" x="503.927885" y="62.736224" style="stroke: #000000; stroke-width: 0.8"/>
      </g>
     </g>
     <g id="text_30">
      <!-- 1500 -->
      <g transform="translate(471.477885 66.535443) scale(0.1 -0.1)">
       <use xlink:href="#DejaVuSans-31"/>
       <use xlink:href="#DejaVuSans-35" transform="translate(63.623047 0)"/>
       <use xlink:href="#DejaVuSans-30" transform="translate(127.246094 0)"/>
       <use xlink:href="#DejaVuSans-30" transform="translate(190.869141 0)"/>
      </g>
     </g>
    </g>
    <g id="ytick_16">
     <g id="line2d_29">
      <g>
       <use xlink:href="#m5bccfcedcf" x="503.927885" y="32.144495" style="stroke: #000000; stroke-width: 0.8"/>
      </g>
     </g>
     <g id="text_31">
      <!-- 1750 -->
      <g transform="translate(471.477885 35.943714) scale(0.1 -0.1)">
       <use xlink:href="#DejaVuSans-31"/>
       <use xlink:href="#DejaVuSans-37" transform="translate(63.623047 0)"/>
       <use xlink:href="#DejaVuSans-35" transform="translate(127.246094 0)"/>
       <use xlink:href="#DejaVuSans-30" transform="translate(190.869141 0)"/>
      </g>
     </g>
    </g>
    <g id="text_32">
     <!-- pulse:0 [counts] -->
     <g transform="translate(465.398197 172.659916) rotate(-90) scale(0.1 -0.1)">
      <use xlink:href="#DejaVuSans-70"/>
      <use xlink:href="#DejaVuSans-75" transform="translate(63.476562 0)"/>
      <use xlink:href="#DejaVuSans-6c" transform="translate(126.855469 0)"/>
      <use xlink:href="#DejaVuSans-73" transform="translate(154.638672 0)"/>
      <use xlink:href="#DejaVuSans-65" transform="translate(206.738281 0)"/>
      <use xlink:href="#DejaVuSans-3a" transform="translate(268.261719 0)"/>
      <use xlink:href="#DejaVuSans-30" transform="translate(301.953125 0)"/>
      <use xlink:href="#DejaVuSans-20" transform="translate(365.576172 0)"/>
      <use xlink:href="#DejaVuSans-5b" transform="translate(397.363281 0)"/>
      <use xlink:href="#DejaVuSans-63" transform="translate(436.376953 0)"/>
      <use xlink:href="#DejaVuSans-6f" transform="translate(491.357422 0)"/>
      <use xlink:href="#DejaVuSans-75" transform="translate(552.539062 0)"/>
      <use xlink:href="#DejaVuSans-6e" transform="translate(615.917969 0)"/>
      <use xlink:href="#DejaVuSans-74" transform="translate(679.296875 0)"/>
      <use xlink:href="#DejaVuSans-73" transform="translate(718.505859 0)"/>
      <use xlink:href="#DejaVuSans-5d" transform="translate(770.605469 0)"/>
     </g>
    </g>
   </g>
   <g id="line2d_30">
    <path d="M 520.349323 245.430026 
L 521.444085 245.430026 
L 521.444085 245.797127 
L 522.538848 245.797127 
L 522.538848 245.062926 
L 523.633611 245.062926 
L 523.633611 245.430026 
L 524.728373 245.430026 
L 524.728373 245.67476 
L 525.823136 245.67476 
L 525.823136 245.552393 
L 526.917898 245.552393 
L 526.917898 244.940559 
L 528.012661 244.940559 
L 528.012661 245.185292 
L 529.107423 245.185292 
L 529.107423 245.062926 
L 530.202186 245.062926 
L 530.202186 244.695825 
L 531.296948 244.695825 
L 531.296948 245.307659 
L 532.391711 245.307659 
L 532.391711 244.695825 
L 533.486473 244.695825 
L 533.486473 244.206357 
L 534.581236 244.206357 
L 534.581236 244.328724 
L 535.675998 244.328724 
L 535.675998 244.451091 
L 536.770761 244.451091 
L 536.770761 243.71689 
L 537.865523 243.71689 
L 537.865523 243.472156 
L 538.960286 243.472156 
L 538.960286 244.573458 
L 540.055048 244.573458 
L 540.055048 244.451091 
L 541.149811 244.451091 
L 541.149811 244.206357 
L 542.244574 244.206357 
L 542.244574 243.105055 
L 543.339336 243.105055 
L 543.339336 242.003753 
L 544.434099 242.003753 
L 544.434099 242.982688 
L 545.528861 242.982688 
L 545.528861 242.737954 
L 546.623624 242.737954 
L 546.623624 242.370853 
L 547.718386 242.370853 
L 547.718386 241.514285 
L 548.813149 241.514285 
L 548.813149 240.290616 
L 551.002674 240.290616 
L 551.002674 241.391918 
L 552.097436 241.391918 
L 552.097436 240.168249 
L 553.192199 240.168249 
L 553.192199 240.045882 
L 554.286961 240.045882 
L 554.286961 240.168249 
L 555.381724 240.168249 
L 555.381724 239.434048 
L 556.476486 239.434048 
L 556.476486 237.598544 
L 557.571249 237.598544 
L 557.571249 237.109076 
L 558.666012 237.109076 
L 558.666012 237.598544 
L 559.760774 237.598544 
L 559.760774 238.088011 
L 560.855537 238.088011 
L 560.855537 236.497242 
L 561.950299 236.497242 
L 561.950299 234.661738 
L 563.045062 234.661738 
L 563.045062 235.640673 
L 564.139824 235.640673 
L 564.139824 233.927536 
L 565.234587 233.927536 
L 565.234587 236.741975 
L 566.329349 236.741975 
L 566.329349 233.805169 
L 567.424112 233.805169 
L 567.424112 232.703867 
L 568.518874 232.703867 
L 568.518874 231.847299 
L 569.613637 231.847299 
L 569.613637 230.256529 
L 570.708399 230.256529 
L 570.708399 231.602565 
L 571.803162 231.602565 
L 571.803162 228.910493 
L 572.897924 228.910493 
L 572.897924 230.011795 
L 573.992687 230.011795 
L 573.992687 226.707888 
L 575.087449 226.707888 
L 575.087449 224.750018 
L 576.182212 224.750018 
L 576.182212 228.421025 
L 577.276975 228.421025 
L 577.276975 228.788126 
L 578.371737 228.788126 
L 578.371737 226.096054 
L 579.4665 226.096054 
L 579.4665 224.015816 
L 580.561262 224.015816 
L 580.561262 222.66978 
L 581.656025 222.66978 
L 581.656025 221.568478 
L 582.750787 221.568478 
L 582.750787 219.610607 
L 583.84555 219.610607 
L 583.84555 216.796168 
L 584.940312 216.796168 
L 584.940312 221.07901 
L 586.035075 221.07901 
L 586.035075 214.838298 
L 587.129837 214.838298 
L 587.129837 213.125161 
L 588.2246 213.125161 
L 588.2246 216.306701 
L 589.319362 216.306701 
L 589.319362 216.918535 
L 590.414125 216.918535 
L 590.414125 211.656758 
L 591.508887 211.656758 
L 591.508887 208.964686 
L 592.60365 208.964686 
L 592.60365 211.656758 
L 593.698412 211.656758 
L 593.698412 203.825276 
L 594.793175 203.825276 
L 594.793175 204.559477 
L 595.887938 204.559477 
L 595.887938 203.825276 
L 596.9827 203.825276 
L 596.9827 201.989772 
L 598.077463 201.989772 
L 598.077463 205.171312 
L 599.172225 205.171312 
L 599.172225 197.951664 
L 600.266988 197.951664 
L 600.266988 193.301721 
L 601.36175 193.301721 
L 601.36175 191.710951 
L 602.456513 191.710951 
L 602.456513 191.588584 
L 603.551275 191.588584 
L 603.551275 186.938641 
L 604.646038 186.938641 
L 604.646038 191.588584 
L 605.7408 191.588584 
L 605.7408 181.921598 
L 606.835563 181.921598 
L 606.835563 185.225505 
L 607.930325 185.225505 
L 607.930325 183.634735 
L 609.025088 183.634735 
L 609.025088 178.740058 
L 610.11985 178.740058 
L 610.11985 176.170353 
L 611.214613 176.170353 
L 611.214613 179.718994 
L 612.309375 179.718994 
L 612.309375 172.254612 
L 613.404138 172.254612 
L 613.404138 168.705971 
L 614.498901 168.705971 
L 614.498901 163.811295 
L 615.593663 163.811295 
L 615.593663 167.849403 
L 616.688426 167.849403 
L 616.688426 162.832359 
L 617.783188 162.832359 
L 617.783188 157.325848 
L 618.877951 157.325848 
L 618.877951 160.140287 
L 619.972713 160.140287 
L 619.972713 147.414128 
L 621.067476 147.414128 
L 621.067476 152.798272 
L 622.162238 152.798272 
L 622.162238 150.718035 
L 623.257001 150.718035 
L 623.257001 147.781229 
L 624.351763 147.781229 
L 624.351763 137.991876 
L 625.446526 137.991876 
L 625.446526 142.764186 
L 626.541288 142.764186 
L 626.541288 135.911638 
L 627.636051 135.911638 
L 627.636051 135.666905 
L 628.730813 135.666905 
L 628.730813 130.038027 
L 629.825576 130.038027 
L 629.825576 124.776249 
L 630.920339 124.776249 
L 630.920339 125.510451 
L 632.015101 125.510451 
L 632.015101 129.670926 
L 633.109864 129.670926 
L 633.109864 118.657904 
L 634.204626 118.657904 
L 634.204626 120.738141 
L 635.299389 120.738141 
L 635.299389 112.539558 
L 636.394151 112.539558 
L 636.394151 111.438256 
L 637.488914 111.438256 
L 637.488914 104.708075 
L 638.583676 104.708075 
L 638.583676 105.809378 
L 639.678439 105.809378 
L 639.678439 101.404169 
L 640.773201 101.404169 
L 640.773201 101.526536 
L 641.867964 101.526536 
L 641.867964 94.306888 
L 642.962726 94.306888 
L 642.962726 99.935766 
L 644.057489 99.935766 
L 644.057489 89.901679 
L 645.152251 89.901679 
L 645.152251 96.631859 
L 646.247014 96.631859 
L 646.247014 83.9057 
L 647.341776 83.9057 
L 647.341776 82.682031 
L 648.436539 82.682031 
L 648.436539 78.032088 
L 649.531302 78.032088 
L 649.531302 73.749246 
L 650.626064 73.749246 
L 650.626064 62.002022 
L 651.720827 62.002022 
L 651.720827 74.116347 
L 652.815589 74.116347 
L 652.815589 64.449361 
L 653.910352 64.449361 
L 653.910352 67.019066 
L 655.005114 67.019066 
L 655.005114 72.770311 
L 656.099877 72.770311 
L 656.099877 58.453382 
L 657.194639 58.453382 
L 657.194639 55.638943 
L 658.289402 55.638943 
L 658.289402 54.048173 
L 659.384164 54.048173 
L 659.384164 51.478468 
L 660.478927 51.478468 
L 660.478927 57.474447 
L 661.573689 57.474447 
L 661.573689 56.373144 
L 662.668452 56.373144 
L 662.668452 51.356101 
L 663.763214 51.356101 
L 663.763214 45.360122 
L 664.857977 45.360122 
L 664.857977 45.727223 
L 665.952739 45.727223 
L 665.952739 41.811482 
L 667.047502 41.811482 
L 667.047502 40.710179 
L 668.142265 40.710179 
L 668.142265 47.44036 
L 669.237027 47.44036 
L 669.237027 37.039172 
L 670.33179 37.039172 
L 670.33179 44.993021 
L 671.426552 44.993021 
L 671.426552 40.343079 
L 672.521315 40.343079 
L 672.521315 36.794438 
L 673.616077 36.794438 
L 673.616077 37.89574 
L 674.71084 37.89574 
L 674.71084 33.245798 
L 675.805602 33.245798 
L 675.805602 29.697157 
L 676.900365 29.697157 
L 676.900365 30.064258 
L 677.995127 30.064258 
L 677.995127 28.962956 
L 679.08989 28.962956 
L 679.08989 26.02615 
L 680.184652 26.02615 
L 680.184652 31.410294 
L 681.279415 31.410294 
L 681.279415 31.16556 
L 682.374177 31.16556 
L 682.374177 25.659049 
L 683.46894 25.659049 
L 683.46894 18.561768 
L 684.563702 18.561768 
L 684.563702 21.498574 
L 685.658465 21.498574 
L 685.658465 32.144495 
L 686.753228 32.144495 
L 686.753228 38.507575 
L 687.84799 38.507575 
L 687.84799 29.330056 
L 688.942753 29.330056 
L 688.942753 38.752309 
L 690.037515 38.752309 
L 690.037515 36.672071 
L 691.132278 36.672071 
L 691.132278 41.199647 
L 692.22704 41.199647 
L 692.22704 32.633963 
L 693.321803 32.633963 
L 693.321803 33.979999 
L 694.416565 33.979999 
L 694.416565 35.815503 
L 695.511328 35.815503 
L 695.511328 36.182604 
L 696.60609 36.182604 
L 696.60609 37.89574 
L 697.700853 37.89574 
L 697.700853 34.958934 
L 698.795615 34.958934 
L 698.795615 32.144495 
L 699.890378 32.144495 
L 699.890378 42.300949 
L 700.98514 42.300949 
L 700.98514 37.52864 
L 702.079903 37.52864 
L 702.079903 51.356101 
L 703.174666 51.356101 
L 703.174666 49.153496 
L 704.269428 49.153496 
L 704.269428 49.520597 
L 705.364191 49.520597 
L 705.364191 43.035151 
L 706.458953 43.035151 
L 706.458953 41.199647 
L 707.553716 41.199647 
L 707.553716 51.356101 
L 708.648478 51.356101 
L 708.648478 55.516576 
L 709.743241 55.516576 
L 709.743241 53.925806 
L 710.838003 53.925806 
L 710.838003 63.225692 
L 711.932766 63.225692 
L 711.932766 57.35208 
L 713.027528 57.35208 
L 713.027528 66.896699 
L 714.122291 66.896699 
L 714.122291 63.225692 
L 715.217053 63.225692 
L 715.217053 64.08226 
L 716.311816 64.08226 
L 716.311816 67.875634 
L 717.406578 67.875634 
L 717.406578 72.036109 
L 718.501341 72.036109 
L 718.501341 79.622858 
L 719.596103 79.622858 
L 719.596103 71.669009 
L 720.690866 71.669009 
L 720.690866 75.58475 
L 721.785629 75.58475 
L 721.785629 76.318951 
L 722.880391 76.318951 
L 722.880391 83.538599 
L 723.975154 83.538599 
L 723.975154 92.716118 
L 725.069916 92.716118 
L 725.069916 85.741204 
L 726.164679 85.741204 
L 726.164679 90.391146 
L 727.259441 90.391146 
L 727.259441 101.037068 
L 728.354204 101.037068 
L 728.354204 96.264758 
L 729.448966 96.264758 
L 729.448966 102.627838 
L 730.543729 102.627838 
L 730.543729 108.379083 
L 731.638491 108.379083 
L 731.638491 111.315889 
L 732.733254 111.315889 
L 732.733254 108.86855 
L 733.828016 108.86855 
L 733.828016 109.358018 
L 734.922779 109.358018 
L 734.922779 118.902637 
L 736.017541 118.902637 
L 736.017541 120.615774 
L 737.112304 120.615774 
L 737.112304 117.556601 
L 738.207066 117.556601 
L 738.207066 125.510451 
L 739.301829 125.510451 
L 739.301829 124.164415 
L 740.396592 124.164415 
L 740.396592 129.548559 
L 741.491354 129.548559 
L 741.491354 132.607732 
L 742.586117 132.607732 
L 742.586117 136.64584 
L 743.680879 136.64584 
L 743.680879 142.519452 
L 744.775642 142.519452 
L 744.775642 147.291761 
L 745.870404 147.291761 
L 745.870404 149.249632 
L 746.965167 149.249632 
L 746.965167 146.924661 
L 748.059929 146.924661 
L 748.059929 149.249632 
L 749.154692 149.249632 
L 749.154692 153.899575 
L 750.249454 153.899575 
L 750.249454 155.367978 
L 751.344217 155.367978 
L 751.344217 160.01792 
L 752.438979 160.01792 
L 752.438979 167.115201 
L 753.533742 167.115201 
L 753.533742 164.545496 
L 755.723267 164.545496 
L 755.723267 171.887511 
L 756.818029 171.887511 
L 756.818029 171.15331 
L 757.912792 171.15331 
L 757.912792 176.047986 
L 759.007555 176.047986 
L 759.007555 178.862425 
L 760.102317 178.862425 
L 760.102317 177.516389 
L 761.19708 177.516389 
L 761.19708 185.837339 
L 762.291842 185.837339 
L 762.291842 182.288699 
L 763.386605 182.288699 
L 763.386605 185.837339 
L 764.481367 185.837339 
L 764.481367 189.263613 
L 765.57613 189.263613 
L 765.57613 189.875447 
L 766.670892 189.875447 
L 766.670892 188.529411 
L 767.765655 188.529411 
L 767.765655 195.014858 
L 768.860417 195.014858 
L 768.860417 196.605628 
L 769.95518 196.605628 
L 769.95518 197.339829 
L 772.144705 197.339829 
L 772.144705 204.070009 
L 773.239467 204.070009 
L 773.239467 204.314743 
L 774.33423 204.314743 
L 774.33423 207.129182 
L 775.428993 207.129182 
L 775.428993 207.251549 
L 776.523755 207.251549 
L 776.523755 208.352851 
L 777.618518 208.352851 
L 777.618518 210.433089 
L 778.71328 210.433089 
L 778.71328 212.75806 
L 779.808043 212.75806 
L 779.808043 211.779125 
L 780.902805 211.779125 
L 780.902805 216.796168 
L 781.997568 216.796168 
L 781.997568 217.285636 
L 783.09233 217.285636 
L 783.09233 214.104096 
L 784.187093 214.104096 
L 784.187093 223.403982 
L 785.281855 223.403982 
L 785.281855 220.956644 
L 786.376618 220.956644 
L 786.376618 220.71191 
L 787.47138 220.71191 
L 787.47138 222.547413 
L 788.566143 222.547413 
L 788.566143 222.914514 
L 789.660905 222.914514 
L 789.660905 226.096054 
L 790.755668 226.096054 
L 790.755668 225.361852 
L 791.85043 225.361852 
L 791.85043 225.973687 
L 792.945193 225.973687 
L 792.945193 230.99073 
L 794.039956 230.99073 
L 794.039956 228.910493 
L 795.134718 228.910493 
L 795.134718 230.62363 
L 796.229481 230.62363 
L 796.229481 227.197356 
L 797.324243 227.197356 
L 797.324243 230.868364 
L 798.419006 230.868364 
L 798.419006 234.049903 
L 799.513768 234.049903 
L 799.513768 232.5815 
L 800.608531 232.5815 
L 800.608531 235.273572 
L 801.703293 235.273572 
L 801.703293 230.378896 
L 802.798056 230.378896 
L 802.798056 235.273572 
L 803.892818 235.273572 
L 803.892818 235.885407 
L 804.987581 235.885407 
L 804.987581 235.028839 
L 806.082343 235.028839 
L 806.082343 236.374875 
L 807.177106 236.374875 
L 807.177106 236.007774 
L 808.271868 236.007774 
L 808.271868 237.843278 
L 809.366631 237.843278 
L 809.366631 238.94458 
L 810.461393 238.94458 
L 810.461393 236.130141 
L 811.556156 236.130141 
L 811.556156 235.885407 
L 812.650919 235.885407 
L 812.650919 239.311681 
L 813.745681 239.311681 
L 813.745681 238.699846 
L 814.840444 238.699846 
L 814.840444 239.678781 
L 815.935206 239.678781 
L 815.935206 240.412983 
L 817.029969 240.412983 
L 817.029969 240.53535 
L 818.124731 240.53535 
L 818.124731 242.248487 
L 819.219494 242.248487 
L 819.219494 241.024817 
L 820.314256 241.024817 
L 820.314256 242.12612 
L 821.409019 242.12612 
L 821.409019 242.49322 
L 822.503781 242.49322 
L 822.503781 242.860321 
L 823.598544 242.860321 
L 823.598544 242.370853 
L 824.693306 242.370853 
L 824.693306 241.759019 
L 825.788069 241.759019 
L 825.788069 242.982688 
L 826.882831 242.982688 
L 826.882831 243.839256 
L 827.977594 243.839256 
L 827.977594 244.08399 
L 829.072357 244.08399 
L 829.072357 242.982688 
L 831.261882 242.982688 
L 831.261882 244.573458 
L 832.356644 244.573458 
L 832.356644 244.451091 
L 833.451407 244.451091 
L 833.451407 244.328724 
L 834.546169 244.328724 
L 834.546169 244.573458 
L 835.640932 244.573458 
L 835.640932 244.206357 
L 837.830457 244.206357 
L 837.830457 244.940559 
L 838.925219 244.940559 
L 838.925219 244.206357 
L 840.019982 244.206357 
L 840.019982 245.062926 
L 841.114744 245.062926 
L 841.114744 245.67476 
L 842.209507 245.67476 
L 842.209507 244.695825 
L 843.304269 244.695825 
L 843.304269 245.307659 
L 844.399032 245.307659 
L 844.399032 245.552393 
L 845.493794 245.552393 
L 845.493794 245.307659 
L 846.588557 245.307659 
L 846.588557 245.797127 
L 847.68332 245.797127 
L 847.68332 244.818192 
L 848.778082 244.818192 
L 848.778082 244.818192 
" clip-path="url(#p2511f26ed7)" style="fill: none; stroke: #1f77b4; stroke-width: 1.5; stroke-linecap: square"/>
   </g>
   <g id="patch_8">
    <path d="M 503.927885 257.158895 
L 503.927885 7.2 
" style="fill: none; stroke: #000000; stroke-width: 0.8; stroke-linejoin: miter; stroke-linecap: square"/>
   </g>
   <g id="patch_9">
    <path d="M 865.19952 257.158895 
L 865.19952 7.2 
" style="fill: none; stroke: #000000; stroke-width: 0.8; stroke-linejoin: miter; stroke-linecap: square"/>
   </g>
   <g id="patch_10">
    <path d="M 503.927885 257.158895 
L 865.19952 257.158895 
" style="fill: none; stroke: #000000; stroke-width: 0.8; stroke-linejoin: miter; stroke-linecap: square"/>
   </g>
   <g id="patch_11">
    <path d="M 503.927885 7.2 
L 865.19952 7.2 
" style="fill: none; stroke: #000000; stroke-width: 0.8; stroke-linejoin: miter; stroke-linecap: square"/>
   </g>
  </g>
 </g>
 <defs>
  <clipPath id="pb825d7e7c6">
   <rect x="53.328125" y="7.2" width="361.271635" height="249.958895"/>
  </clipPath>
  <clipPath id="p2511f26ed7">
   <rect x="503.927885" y="7.2" width="361.271635" height="249.958895"/>
  </clipPath>
 </defs>
</svg>
