<?xml version="1.0" encoding="utf-8" standalone="no"?>
<!DOCTYPE svg PUBLIC "-//W3C//DTD SVG 1.1//EN"
  "http://www.w3.org/Graphics/SVG/1.1/DTD/svg11.dtd">
<svg xmlns:xlink="http://www.w3.org/1999/xlink" width="872.39952pt" height="296.39952pt" viewBox="0 0 872.39952 296.39952" xmlns="http://www.w3.org/2000/svg" version="1.1">
 <metadata>
  <rdf:RDF xmlns:dc="http://purl.org/dc/elements/1.1/" xmlns:cc="http://creativecommons.org/ns#" xmlns:rdf="http://www.w3.org/1999/02/22-rdf-syntax-ns#">
   <cc:Work>
    <dc:type rdf:resource="http://purl.org/dc/dcmitype/StillImage"/>
    <dc:date>2026-06-24T08:34:11.977512</dc:date>
    <dc:format>image/svg+xml</dc:format>
    <dc:creator>
     <cc:Agent>
      <dc:title>Matplotlib v3.10.9, https://matplotlib.org/</dc:title>
     </cc:Agent>
    </dc:creator>
   </cc:Work>
  </rdf:RDF>
 </metadata>
 <defs>
  <style type="text/css">*{stroke-linejoin: round; stroke-linecap: butt}</style>
 </defs>
 <g id="figure_1">
  <g id="patch_1">
   <path d="M 0 296.39952 
L 872.39952 296.39952 
L 872.39952 0 
L 0 0 
z
" style="fill: #ffffff"/>
  </g>
  <g id="axes_1">
   <g id="patch_2">
    <path d="M 53.328125 257.158895 
L 414.59976 257.158895 
L 414.59976 7.2 
L 53.328125 7.2 
z
" style="fill: #ffffff"/>
   </g>
   <g id="matplotlib.axis_1">
    <g id="xtick_1">
     <g id="line2d_1">
      <defs>
       <path id="m36edb6544c" d="M 0 0 
L 0 3.5 
" style="stroke: #000000; stroke-width: 0.8"/>
      </defs>
      <g>
       <use xlink:href="#m36edb6544c" x="61.232192" y="257.158895" style="stroke: #000000; stroke-width: 0.8"/>
      </g>
     </g>
     <g id="text_1">
      <!-- 0 -->
      <g transform="translate(58.050942 271.757332) scale(0.1 -0.1)">
       <defs>
        <path id="DejaVuSans-30" d="M 2034 4250 
Q 1547 4250 1301 3770 
Q 1056 3291 1056 2328 
Q 1056 1369 1301 889 
Q 1547 409 2034 409 
Q 2525 409 2770 889 
Q 3016 1369 3016 2328 
Q 3016 3291 2770 3770 
Q 2525 4250 2034 4250 
z
M 2034 4750 
Q 2819 4750 3233 4129 
Q 3647 3509 3647 2328 
Q 3647 1150 3233 529 
Q 2819 -91 2034 -91 
Q 1250 -91 836 529 
Q 422 1150 422 2328 
Q 422 3509 836 4129 
Q 1250 4750 2034 4750 
z
" transform="scale(0.015625)"/>
       </defs>
       <use xlink:href="#DejaVuSans-30"/>
      </g>
     </g>
    </g>
    <g id="xtick_2">
     <g id="line2d_2">
      <g>
       <use xlink:href="#m36edb6544c" x="117.862319" y="257.158895" style="stroke: #000000; stroke-width: 0.8"/>
      </g>
     </g>
     <g id="text_2">
      <!-- 1000 -->
      <g transform="translate(105.137319 271.757332) scale(0.1 -0.1)">
       <defs>
        <path id="DejaVuSans-31" d="M 794 531 
L 1825 531 
L 1825 4091 
L 703 3866 
L 703 4441 
L 1819 4666 
L 2450 4666 
L 2450 531 
L 3481 531 
L 3481 0 
L 794 0 
L 794 531 
z
" transform="scale(0.015625)"/>
       </defs>
       <use xlink:href="#DejaVuSans-31"/>
       <use xlink:href="#DejaVuSans-30" transform="translate(63.623047 0)"/>
       <use xlink:href="#DejaVuSans-30" transform="translate(127.246094 0)"/>
       <use xlink:href="#DejaVuSans-30" transform="translate(190.869141 0)"/>
      </g>
     </g>
    </g>
    <g id="xtick_3">
     <g id="line2d_3">
      <g>
       <use xlink:href="#m36edb6544c" x="174.492446" y="257.158895" style="stroke: #000000; stroke-width: 0.8"/>
      </g>
     </g>
     <g id="text_3">
      <!-- 2000 -->
      <g transform="translate(161.767446 271.757332) scale(0.1 -0.1)">
       <defs>
        <path id="DejaVuSans-32" d="M 1228 531 
L 3431 531 
L 3431 0 
L 469 0 
L 469 531 
Q 828 903 1448 1529 
Q 2069 2156 2228 2338 
Q 2531 2678 2651 2914 
Q 2772 3150 2772 3378 
Q 2772 3750 2511 3984 
Q 2250 4219 1831 4219 
Q 1534 4219 1204 4116 
Q 875 4013 500 3803 
L 500 4441 
Q 881 4594 1212 4672 
Q 1544 4750 1819 4750 
Q 2544 4750 2975 4387 
Q 3406 4025 3406 3419 
Q 3406 3131 3298 2873 
Q 3191 2616 2906 2266 
Q 2828 2175 2409 1742 
Q 1991 1309 1228 531 
z
" transform="scale(0.015625)"/>
       </defs>
       <use xlink:href="#DejaVuSans-32"/>
       <use xlink:href="#DejaVuSans-30" transform="translate(63.623047 0)"/>
       <use xlink:href="#DejaVuSans-30" transform="translate(127.246094 0)"/>
       <use xlink:href="#DejaVuSans-30" transform="translate(190.869141 0)"/>
      </g>
     </g>
    </g>
    <g id="xtick_4">
     <g id="line2d_4">
      <g>
       <use xlink:href="#m36edb6544c" x="231.122573" y="257.158895" style="stroke: #000000; stroke-width: 0.8"/>
      </g>
     </g>
     <g id="text_4">
      <!-- 3000 -->
      <g transform="translate(218.397573 271.757332) scale(0.1 -0.1)">
       <defs>
        <path id="DejaVuSans-33" d="M 2597 2516 
Q 3050 2419 3304 2112 
Q 3559 1806 3559 1356 
Q 3559 666 3084 287 
Q 2609 -91 1734 -91 
Q 1441 -91 1130 -33 
Q 819 25 488 141 
L 488 750 
Q 750 597 1062 519 
Q 1375 441 1716 441 
Q 2309 441 2620 675 
Q 2931 909 2931 1356 
Q 2931 1769 2642 2001 
Q 2353 2234 1838 2234 
L 1294 2234 
L 1294 2753 
L 1863 2753 
Q 2328 2753 2575 2939 
Q 2822 3125 2822 3475 
Q 2822 3834 2567 4026 
Q 2313 4219 1838 4219 
Q 1578 4219 1281 4162 
Q 984 4106 628 3988 
L 628 4550 
Q 988 4650 1302 4700 
Q 1616 4750 1894 4750 
Q 2613 4750 3031 4423 
Q 3450 4097 3450 3541 
Q 3450 3153 3228 2886 
Q 3006 2619 2597 2516 
z
" transform="scale(0.015625)"/>
       </defs>
       <use xlink:href="#DejaVuSans-33"/>
       <use xlink:href="#DejaVuSans-30" transform="translate(63.623047 0)"/>
       <use xlink:href="#DejaVuSans-30" transform="translate(127.246094 0)"/>
       <use xlink:href="#DejaVuSans-30" transform="translate(190.869141 0)"/>
      </g>
     </g>
    </g>
    <g id="xtick_5">
     <g id="line2d_5">
      <g>
       <use xlink:href="#m36edb6544c" x="287.7527" y="257.158895" style="stroke: #000000; stroke-width: 0.8"/>
      </g>
     </g>
     <g id="text_5">
      <!-- 4000 -->
      <g transform="translate(275.0277 271.757332) scale(0.1 -0.1)">
       <defs>
        <path id="DejaVuSans-34" d="M 2419 4116 
L 825 1625 
L 2419 1625 
L 2419 4116 
z
M 2253 4666 
L 3047 4666 
L 3047 1625 
L 3713 1625 
L 3713 1100 
L 3047 1100 
L 3047 0 
L 2419 0 
L 2419 1100 
L 313 1100 
L 313 1709 
L 2253 4666 
z
" transform="scale(0.015625)"/>
       </defs>
       <use xlink:href="#DejaVuSans-34"/>
       <use xlink:href="#DejaVuSans-30" transform="translate(63.623047 0)"/>
       <use xlink:href="#DejaVuSans-30" transform="translate(127.246094 0)"/>
       <use xlink:href="#DejaVuSans-30" transform="translate(190.869141 0)"/>
      </g>
     </g>
    </g>
    <g id="xtick_6">
     <g id="line2d_6">
      <g>
       <use xlink:href="#m36edb6544c" x="344.382827" y="257.158895" style="stroke: #000000; stroke-width: 0.8"/>
      </g>
     </g>
     <g id="text_6">
      <!-- 5000 -->
      <g transform="translate(331.657827 271.757332) scale(0.1 -0.1)">
       <defs>
        <path id="DejaVuSans-35" d="M 691 4666 
L 3169 4666 
L 3169 4134 
L 1269 4134 
L 1269 2991 
Q 1406 3038 1543 3061 
Q 1681 3084 1819 3084 
Q 2600 3084 3056 2656 
Q 3513 2228 3513 1497 
Q 3513 744 3044 326 
Q 2575 -91 1722 -91 
Q 1428 -91 1123 -41 
Q 819 9 494 109 
L 494 744 
Q 775 591 1075 516 
Q 1375 441 1709 441 
Q 2250 441 2565 725 
Q 2881 1009 2881 1497 
Q 2881 1984 2565 2268 
Q 2250 2553 1709 2553 
Q 1456 2553 1204 2497 
Q 953 2441 691 2322 
L 691 4666 
z
" transform="scale(0.015625)"/>
       </defs>
       <use xlink:href="#DejaVuSans-35"/>
       <use xlink:href="#DejaVuSans-30" transform="translate(63.623047 0)"/>
       <use xlink:href="#DejaVuSans-30" transform="translate(127.246094 0)"/>
       <use xlink:href="#DejaVuSans-30" transform="translate(190.869141 0)"/>
      </g>
     </g>
    </g>
    <g id="xtick_7">
     <g id="line2d_7">
      <g>
       <use xlink:href="#m36edb6544c" x="401.012954" y="257.158895" style="stroke: #000000; stroke-width: 0.8"/>
      </g>
     </g>
     <g id="text_7">
      <!-- 6000 -->
      <g transform="translate(388.287954 271.757332) scale(0.1 -0.1)">
       <defs>
        <path id="DejaVuSans-36" d="M 2113 2584 
Q 1688 2584 1439 2293 
Q 1191 2003 1191 1497 
Q 1191 994 1439 701 
Q 1688 409 2113 409 
Q 2538 409 2786 701 
Q 3034 994 3034 1497 
Q 3034 2003 2786 2293 
Q 2538 2584 2113 2584 
z
M 3366 4563 
L 3366 3988 
Q 3128 4100 2886 4159 
Q 2644 4219 2406 4219 
Q 1781 4219 1451 3797 
Q 1122 3375 1075 2522 
Q 1259 2794 1537 2939 
Q 1816 3084 2150 3084 
Q 2853 3084 3261 2657 
Q 3669 2231 3669 1497 
Q 3669 778 3244 343 
Q 2819 -91 2113 -91 
Q 1303 -91 875 529 
Q 447 1150 447 2328 
Q 447 3434 972 4092 
Q 1497 4750 2381 4750 
Q 2619 4750 2861 4703 
Q 3103 4656 3366 4563 
z
" transform="scale(0.015625)"/>
       </defs>
       <use xlink:href="#DejaVuSans-36"/>
       <use xlink:href="#DejaVuSans-30" transform="translate(63.623047 0)"/>
       <use xlink:href="#DejaVuSans-30" transform="translate(127.246094 0)"/>
       <use xlink:href="#DejaVuSans-30" transform="translate(190.869141 0)"/>
      </g>
     </g>
    </g>
    <g id="text_8">
     <!-- birth_time [µs] -->
     <g transform="translate(197.14363 285.435457) scale(0.1 -0.1)">
      <defs>
       <path id="DejaVuSans-62" d="M 3116 1747 
Q 3116 2381 2855 2742 
Q 2594 3103 2138 3103 
Q 1681 3103 1420 2742 
Q 1159 2381 1159 1747 
Q 1159 1113 1420 752 
Q 1681 391 2138 391 
Q 2594 391 2855 752 
Q 3116 1113 3116 1747 
z
M 1159 2969 
Q 1341 3281 1617 3432 
Q 1894 3584 2278 3584 
Q 2916 3584 3314 3078 
Q 3713 2572 3713 1747 
Q 3713 922 3314 415 
Q 2916 -91 2278 -91 
Q 1894 -91 1617 61 
Q 1341 213 1159 525 
L 1159 0 
L 581 0 
L 581 4863 
L 1159 4863 
L 1159 2969 
z
" transform="scale(0.015625)"/>
       <path id="DejaVuSans-69" d="M 603 3500 
L 1178 3500 
L 1178 0 
L 603 0 
L 603 3500 
z
M 603 4863 
L 1178 4863 
L 1178 4134 
L 603 4134 
L 603 4863 
z
" transform="scale(0.015625)"/>
       <path id="DejaVuSans-72" d="M 2631 2963 
Q 2534 3019 2420 3045 
Q 2306 3072 2169 3072 
Q 1681 3072 1420 2755 
Q 1159 2438 1159 1844 
L 1159 0 
L 581 0 
L 581 3500 
L 1159 3500 
L 1159 2956 
Q 1341 3275 1631 3429 
Q 1922 3584 2338 3584 
Q 2397 3584 2469 3576 
Q 2541 3569 2628 3553 
L 2631 2963 
z
" transform="scale(0.015625)"/>
       <path id="DejaVuSans-74" d="M 1172 4494 
L 1172 3500 
L 2356 3500 
L 2356 3053 
L 1172 3053 
L 1172 1153 
Q 1172 725 1289 603 
Q 1406 481 1766 481 
L 2356 481 
L 2356 0 
L 1766 0 
Q 1100 0 847 248 
Q 594 497 594 1153 
L 594 3053 
L 172 3053 
L 172 3500 
L 594 3500 
L 594 4494 
L 1172 4494 
z
" transform="scale(0.015625)"/>
       <path id="DejaVuSans-68" d="M 3513 2113 
L 3513 0 
L 2938 0 
L 2938 2094 
Q 2938 2591 2744 2837 
Q 2550 3084 2163 3084 
Q 1697 3084 1428 2787 
Q 1159 2491 1159 1978 
L 1159 0 
L 581 0 
L 581 4863 
L 1159 4863 
L 1159 2956 
Q 1366 3272 1645 3428 
Q 1925 3584 2291 3584 
Q 2894 3584 3203 3211 
Q 3513 2838 3513 2113 
z
" transform="scale(0.015625)"/>
       <path id="DejaVuSans-5f" d="M 3263 -1063 
L 3263 -1509 
L -63 -1509 
L -63 -1063 
L 3263 -1063 
z
" transform="scale(0.015625)"/>
       <path id="DejaVuSans-6d" d="M 3328 2828 
Q 3544 3216 3844 3400 
Q 4144 3584 4550 3584 
Q 5097 3584 5394 3201 
Q 5691 2819 5691 2113 
L 5691 0 
L 5113 0 
L 5113 2094 
Q 5113 2597 4934 2840 
Q 4756 3084 4391 3084 
Q 3944 3084 3684 2787 
Q 3425 2491 3425 1978 
L 3425 0 
L 2847 0 
L 2847 2094 
Q 2847 2600 2669 2842 
Q 2491 3084 2119 3084 
Q 1678 3084 1418 2786 
Q 1159 2488 1159 1978 
L 1159 0 
L 581 0 
L 581 3500 
L 1159 3500 
L 1159 2956 
Q 1356 3278 1631 3431 
Q 1906 3584 2284 3584 
Q 2666 3584 2933 3390 
Q 3200 3197 3328 2828 
z
" transform="scale(0.015625)"/>
       <path id="DejaVuSans-65" d="M 3597 1894 
L 3597 1613 
L 953 1613 
Q 991 1019 1311 708 
Q 1631 397 2203 397 
Q 2534 397 2845 478 
Q 3156 559 3463 722 
L 3463 178 
Q 3153 47 2828 -22 
Q 2503 -91 2169 -91 
Q 1331 -91 842 396 
Q 353 884 353 1716 
Q 353 2575 817 3079 
Q 1281 3584 2069 3584 
Q 2775 3584 3186 3129 
Q 3597 2675 3597 1894 
z
M 3022 2063 
Q 3016 2534 2758 2815 
Q 2500 3097 2075 3097 
Q 1594 3097 1305 2825 
Q 1016 2553 972 2059 
L 3022 2063 
z
" transform="scale(0.015625)"/>
       <path id="DejaVuSans-20" transform="scale(0.015625)"/>
       <path id="DejaVuSans-5b" d="M 550 4863 
L 1875 4863 
L 1875 4416 
L 1125 4416 
L 1125 -397 
L 1875 -397 
L 1875 -844 
L 550 -844 
L 550 4863 
z
" transform="scale(0.015625)"/>
       <path id="DejaVuSans-b5" d="M 544 -1331 
L 544 3500 
L 1119 3500 
L 1119 1325 
Q 1119 872 1334 640 
Q 1550 409 1972 409 
Q 2434 409 2667 671 
Q 2900 934 2900 1459 
L 2900 3500 
L 3475 3500 
L 3475 806 
Q 3475 619 3529 530 
Q 3584 441 3700 441 
Q 3728 441 3778 458 
Q 3828 475 3916 513 
L 3916 50 
Q 3788 -22 3673 -56 
Q 3559 -91 3450 -91 
Q 3234 -91 3106 31 
Q 2978 153 2931 403 
Q 2775 156 2548 32 
Q 2322 -91 2016 -91 
Q 1697 -91 1473 31 
Q 1250 153 1119 397 
L 1119 -1331 
L 544 -1331 
z
" transform="scale(0.015625)"/>
       <path id="DejaVuSans-73" d="M 2834 3397 
L 2834 2853 
Q 2591 2978 2328 3040 
Q 2066 3103 1784 3103 
Q 1356 3103 1142 2972 
Q 928 2841 928 2578 
Q 928 2378 1081 2264 
Q 1234 2150 1697 2047 
L 1894 2003 
Q 2506 1872 2764 1633 
Q 3022 1394 3022 966 
Q 3022 478 2636 193 
Q 2250 -91 1575 -91 
Q 1294 -91 989 -36 
Q 684 19 347 128 
L 347 722 
Q 666 556 975 473 
Q 1284 391 1588 391 
Q 1994 391 2212 530 
Q 2431 669 2431 922 
Q 2431 1156 2273 1281 
Q 2116 1406 1581 1522 
L 1381 1569 
Q 847 1681 609 1914 
Q 372 2147 372 2553 
Q 372 3047 722 3315 
Q 1072 3584 1716 3584 
Q 2034 3584 2315 3537 
Q 2597 3491 2834 3397 
z
" transform="scale(0.015625)"/>
       <path id="DejaVuSans-5d" d="M 1947 4863 
L 1947 -844 
L 622 -844 
L 622 -397 
L 1369 -397 
L 1369 4416 
L 622 4416 
L 622 4863 
L 1947 4863 
z
" transform="scale(0.015625)"/>
      </defs>
      <use xlink:href="#DejaVuSans-62"/>
      <use xlink:href="#DejaVuSans-69" transform="translate(63.476562 0)"/>
      <use xlink:href="#DejaVuSans-72" transform="translate(91.259766 0)"/>
      <use xlink:href="#DejaVuSans-74" transform="translate(132.373047 0)"/>
      <use xlink:href="#DejaVuSans-68" transform="translate(171.582031 0)"/>
      <use xlink:href="#DejaVuSans-5f" transform="translate(234.960938 0)"/>
      <use xlink:href="#DejaVuSans-74" transform="translate(284.960938 0)"/>
      <use xlink:href="#DejaVuSans-69" transform="translate(324.169922 0)"/>
      <use xlink:href="#DejaVuSans-6d" transform="translate(351.953125 0)"/>
      <use xlink:href="#DejaVuSans-65" transform="translate(449.365234 0)"/>
      <use xlink:href="#DejaVuSans-20" transform="translate(510.888672 0)"/>
      <use xlink:href="#DejaVuSans-5b" transform="translate(542.675781 0)"/>
      <use xlink:href="#DejaVuSans-b5" transform="translate(581.689453 0)"/>
      <use xlink:href="#DejaVuSans-73" transform="translate(645.3125 0)"/>
      <use xlink:href="#DejaVuSans-5d" transform="translate(697.412109 0)"/>
     </g>
    </g>
   </g>
   <g id="matplotlib.axis_2">
    <g id="ytick_1">
     <g id="line2d_8">
      <defs>
       <path id="m15f7c5462b" d="M 0 0 
L -3.5 0 
" style="stroke: #000000; stroke-width: 0.8"/>
      </defs>
      <g>
       <use xlink:href="#m15f7c5462b" x="53.328125" y="253.016405" style="stroke: #000000; stroke-width: 0.8"/>
      </g>
     </g>
     <g id="text_9">
      <!-- 0 -->
      <g transform="translate(39.965625 256.815623) scale(0.1 -0.1)">
       <use xlink:href="#DejaVuSans-30"/>
      </g>
     </g>
    </g>
    <g id="ytick_2">
     <g id="line2d_9">
      <g>
       <use xlink:href="#m15f7c5462b" x="53.328125" y="218.638892" style="stroke: #000000; stroke-width: 0.8"/>
      </g>
     </g>
     <g id="text_10">
      <!-- 200 -->
      <g transform="translate(27.240625 222.438111) scale(0.1 -0.1)">
       <use xlink:href="#DejaVuSans-32"/>
       <use xlink:href="#DejaVuSans-30" transform="translate(63.623047 0)"/>
       <use xlink:href="#DejaVuSans-30" transform="translate(127.246094 0)"/>
      </g>
     </g>
    </g>
    <g id="ytick_3">
     <g id="line2d_10">
      <g>
       <use xlink:href="#m15f7c5462b" x="53.328125" y="184.261379" style="stroke: #000000; stroke-width: 0.8"/>
      </g>
     </g>
     <g id="text_11">
      <!-- 400 -->
      <g transform="translate(27.240625 188.060598) scale(0.1 -0.1)">
       <use xlink:href="#DejaVuSans-34"/>
       <use xlink:href="#DejaVuSans-30" transform="translate(63.623047 0)"/>
       <use xlink:href="#DejaVuSans-30" transform="translate(127.246094 0)"/>
      </g>
     </g>
    </g>
    <g id="ytick_4">
     <g id="line2d_11">
      <g>
       <use xlink:href="#m15f7c5462b" x="53.328125" y="149.883867" style="stroke: #000000; stroke-width: 0.8"/>
      </g>
     </g>
     <g id="text_12">
      <!-- 600 -->
      <g transform="translate(27.240625 153.683085) scale(0.1 -0.1)">
       <use xlink:href="#DejaVuSans-36"/>
       <use xlink:href="#DejaVuSans-30" transform="translate(63.623047 0)"/>
       <use xlink:href="#DejaVuSans-30" transform="translate(127.246094 0)"/>
      </g>
     </g>
    </g>
    <g id="ytick_5">
     <g id="line2d_12">
      <g>
       <use xlink:href="#m15f7c5462b" x="53.328125" y="115.506354" style="stroke: #000000; stroke-width: 0.8"/>
      </g>
     </g>
     <g id="text_13">
      <!-- 800 -->
      <g transform="translate(27.240625 119.305573) scale(0.1 -0.1)">
       <defs>
        <path id="DejaVuSans-38" d="M 2034 2216 
Q 1584 2216 1326 1975 
Q 1069 1734 1069 1313 
Q 1069 891 1326 650 
Q 1584 409 2034 409 
Q 2484 409 2743 651 
Q 3003 894 3003 1313 
Q 3003 1734 2745 1975 
Q 2488 2216 2034 2216 
z
M 1403 2484 
Q 997 2584 770 2862 
Q 544 3141 544 3541 
Q 544 4100 942 4425 
Q 1341 4750 2034 4750 
Q 2731 4750 3128 4425 
Q 3525 4100 3525 3541 
Q 3525 3141 3298 2862 
Q 3072 2584 2669 2484 
Q 3125 2378 3379 2068 
Q 3634 1759 3634 1313 
Q 3634 634 3220 271 
Q 2806 -91 2034 -91 
Q 1263 -91 848 271 
Q 434 634 434 1313 
Q 434 1759 690 2068 
Q 947 2378 1403 2484 
z
M 1172 3481 
Q 1172 3119 1398 2916 
Q 1625 2713 2034 2713 
Q 2441 2713 2670 2916 
Q 2900 3119 2900 3481 
Q 2900 3844 2670 4047 
Q 2441 4250 2034 4250 
Q 1625 4250 1398 4047 
Q 1172 3844 1172 3481 
z
" transform="scale(0.015625)"/>
       </defs>
       <use xlink:href="#DejaVuSans-38"/>
       <use xlink:href="#DejaVuSans-30" transform="translate(63.623047 0)"/>
       <use xlink:href="#DejaVuSans-30" transform="translate(127.246094 0)"/>
      </g>
     </g>
    </g>
    <g id="ytick_6">
     <g id="line2d_13">
      <g>
       <use xlink:href="#m15f7c5462b" x="53.328125" y="81.128841" style="stroke: #000000; stroke-width: 0.8"/>
      </g>
     </g>
     <g id="text_14">
      <!-- 1000 -->
      <g transform="translate(20.878125 84.92806) scale(0.1 -0.1)">
       <use xlink:href="#DejaVuSans-31"/>
       <use xlink:href="#DejaVuSans-30" transform="translate(63.623047 0)"/>
       <use xlink:href="#DejaVuSans-30" transform="translate(127.246094 0)"/>
       <use xlink:href="#DejaVuSans-30" transform="translate(190.869141 0)"/>
      </g>
     </g>
    </g>
    <g id="ytick_7">
     <g id="line2d_14">
      <g>
       <use xlink:href="#m15f7c5462b" x="53.328125" y="46.751328" style="stroke: #000000; stroke-width: 0.8"/>
      </g>
     </g>
     <g id="text_15">
      <!-- 1200 -->
      <g transform="translate(20.878125 50.550547) scale(0.1 -0.1)">
       <use xlink:href="#DejaVuSans-31"/>
       <use xlink:href="#DejaVuSans-32" transform="translate(63.623047 0)"/>
       <use xlink:href="#DejaVuSans-30" transform="translate(127.246094 0)"/>
       <use xlink:href="#DejaVuSans-30" transform="translate(190.869141 0)"/>
      </g>
     </g>
    </g>
    <g id="ytick_8">
     <g id="line2d_15">
      <g>
       <use xlink:href="#m15f7c5462b" x="53.328125" y="12.373816" style="stroke: #000000; stroke-width: 0.8"/>
      </g>
     </g>
     <g id="text_16">
      <!-- 1400 -->
      <g transform="translate(20.878125 16.173034) scale(0.1 -0.1)">
       <use xlink:href="#DejaVuSans-31"/>
       <use xlink:href="#DejaVuSans-34" transform="translate(63.623047 0)"/>
       <use xlink:href="#DejaVuSans-30" transform="translate(127.246094 0)"/>
       <use xlink:href="#DejaVuSans-30" transform="translate(190.869141 0)"/>
      </g>
     </g>
    </g>
    <g id="text_17">
     <!-- pulse:0 [counts] -->
     <g transform="translate(14.798438 172.659916) rotate(-90) scale(0.1 -0.1)">
      <defs>
       <path id="DejaVuSans-70" d="M 1159 525 
L 1159 -1331 
L 581 -1331 
L 581 3500 
L 1159 3500 
L 1159 2969 
Q 1341 3281 1617 3432 
Q 1894 3584 2278 3584 
Q 2916 3584 3314 3078 
Q 3713 2572 3713 1747 
Q 3713 922 3314 415 
Q 2916 -91 2278 -91 
Q 1894 -91 1617 61 
Q 1341 213 1159 525 
z
M 3116 1747 
Q 3116 2381 2855 2742 
Q 2594 3103 2138 3103 
Q 1681 3103 1420 2742 
Q 1159 2381 1159 1747 
Q 1159 1113 1420 752 
Q 1681 391 2138 391 
Q 2594 391 2855 752 
Q 3116 1113 3116 1747 
z
" transform="scale(0.015625)"/>
       <path id="DejaVuSans-75" d="M 544 1381 
L 544 3500 
L 1119 3500 
L 1119 1403 
Q 1119 906 1312 657 
Q 1506 409 1894 409 
Q 2359 409 2629 706 
Q 2900 1003 2900 1516 
L 2900 3500 
L 3475 3500 
L 3475 0 
L 2900 0 
L 2900 538 
Q 2691 219 2414 64 
Q 2138 -91 1772 -91 
Q 1169 -91 856 284 
Q 544 659 544 1381 
z
M 1991 3584 
L 1991 3584 
z
" transform="scale(0.015625)"/>
       <path id="DejaVuSans-6c" d="M 603 4863 
L 1178 4863 
L 1178 0 
L 603 0 
L 603 4863 
z
" transform="scale(0.015625)"/>
       <path id="DejaVuSans-3a" d="M 750 794 
L 1409 794 
L 1409 0 
L 750 0 
L 750 794 
z
M 750 3309 
L 1409 3309 
L 1409 2516 
L 750 2516 
L 750 3309 
z
" transform="scale(0.015625)"/>
       <path id="DejaVuSans-63" d="M 3122 3366 
L 3122 2828 
Q 2878 2963 2633 3030 
Q 2388 3097 2138 3097 
Q 1578 3097 1268 2742 
Q 959 2388 959 1747 
Q 959 1106 1268 751 
Q 1578 397 2138 397 
Q 2388 397 2633 464 
Q 2878 531 3122 666 
L 3122 134 
Q 2881 22 2623 -34 
Q 2366 -91 2075 -91 
Q 1284 -91 818 406 
Q 353 903 353 1747 
Q 353 2603 823 3093 
Q 1294 3584 2113 3584 
Q 2378 3584 2631 3529 
Q 2884 3475 3122 3366 
z
" transform="scale(0.015625)"/>
       <path id="DejaVuSans-6f" d="M 1959 3097 
Q 1497 3097 1228 2736 
Q 959 2375 959 1747 
Q 959 1119 1226 758 
Q 1494 397 1959 397 
Q 2419 397 2687 759 
Q 2956 1122 2956 1747 
Q 2956 2369 2687 2733 
Q 2419 3097 1959 3097 
z
M 1959 3584 
Q 2709 3584 3137 3096 
Q 3566 2609 3566 1747 
Q 3566 888 3137 398 
Q 2709 -91 1959 -91 
Q 1206 -91 779 398 
Q 353 888 353 1747 
Q 353 2609 779 3096 
Q 1206 3584 1959 3584 
z
" transform="scale(0.015625)"/>
       <path id="DejaVuSans-6e" d="M 3513 2113 
L 3513 0 
L 2938 0 
L 2938 2094 
Q 2938 2591 2744 2837 
Q 2550 3084 2163 3084 
Q 1697 3084 1428 2787 
Q 1159 2491 1159 1978 
L 1159 0 
L 581 0 
L 581 3500 
L 1159 3500 
L 1159 2956 
Q 1366 3272 1645 3428 
Q 1925 3584 2291 3584 
Q 2894 3584 3203 3211 
Q 3513 2838 3513 2113 
z
" transform="scale(0.015625)"/>
      </defs>
      <use xlink:href="#DejaVuSans-70"/>
      <use xlink:href="#DejaVuSans-75" transform="translate(63.476562 0)"/>
      <use xlink:href="#DejaVuSans-6c" transform="translate(126.855469 0)"/>
      <use xlink:href="#DejaVuSans-73" transform="translate(154.638672 0)"/>
      <use xlink:href="#DejaVuSans-65" transform="translate(206.738281 0)"/>
      <use xlink:href="#DejaVuSans-3a" transform="translate(268.261719 0)"/>
      <use xlink:href="#DejaVuSans-30" transform="translate(301.953125 0)"/>
      <use xlink:href="#DejaVuSans-20" transform="translate(365.576172 0)"/>
      <use xlink:href="#DejaVuSans-5b" transform="translate(397.363281 0)"/>
      <use xlink:href="#DejaVuSans-63" transform="translate(436.376953 0)"/>
      <use xlink:href="#DejaVuSans-6f" transform="translate(491.357422 0)"/>
      <use xlink:href="#DejaVuSans-75" transform="translate(552.539062 0)"/>
      <use xlink:href="#DejaVuSans-6e" transform="translate(615.917969 0)"/>
      <use xlink:href="#DejaVuSans-74" transform="translate(679.296875 0)"/>
      <use xlink:href="#DejaVuSans-73" transform="translate(718.505859 0)"/>
      <use xlink:href="#DejaVuSans-5d" transform="translate(770.605469 0)"/>
     </g>
    </g>
   </g>
   <g id="line2d_16">
    <path d="M 69.749563 245.109577 
L 70.844325 245.109577 
L 70.844325 243.562589 
L 71.939088 243.562589 
L 71.939088 245.281464 
L 73.033851 245.281464 
L 73.033851 243.906364 
L 74.128613 243.906364 
L 74.128613 245.797127 
L 75.223376 245.797127 
L 75.223376 239.95295 
L 76.318138 239.95295 
L 76.318138 237.374636 
L 78.507663 237.374636 
L 78.507663 238.921625 
L 79.602426 238.921625 
L 79.602426 237.546524 
L 80.697188 237.546524 
L 80.697188 235.140098 
L 81.791951 235.140098 
L 81.791951 231.014797 
L 82.886713 231.014797 
L 82.886713 230.327246 
L 83.981476 230.327246 
L 83.981476 229.811584 
L 85.076238 229.811584 
L 85.076238 230.327246 
L 86.171001 230.327246 
L 86.171001 227.23327 
L 87.265763 227.23327 
L 87.265763 223.967406 
L 88.360526 223.967406 
L 88.360526 221.904756 
L 89.455288 221.904756 
L 89.455288 224.654957 
L 90.550051 224.654957 
L 90.550051 221.217205 
L 91.644814 221.217205 
L 91.644814 214.169815 
L 92.739576 214.169815 
L 92.739576 214.51359 
L 93.834339 214.51359 
L 93.834339 214.169815 
L 94.929101 214.169815 
L 94.929101 212.622827 
L 96.023864 212.622827 
L 96.023864 211.763389 
L 97.118626 211.763389 
L 97.118626 206.950538 
L 98.213389 206.950538 
L 98.213389 211.075839 
L 99.308151 211.075839 
L 99.308151 207.809975 
L 100.402914 207.809975 
L 100.402914 209.872626 
L 101.497676 209.872626 
L 101.497676 211.763389 
L 102.592439 211.763389 
L 102.592439 214.169815 
L 103.687201 214.169815 
L 103.687201 200.590698 
L 104.781964 200.590698 
L 104.781964 200.762585 
L 105.876726 200.762585 
L 105.876726 203.856562 
L 106.971489 203.856562 
L 106.971489 205.231662 
L 108.066252 205.231662 
L 108.066252 203.169011 
L 109.161014 203.169011 
L 109.161014 191.480657 
L 110.255777 191.480657 
L 110.255777 195.949734 
L 111.350539 195.949734 
L 111.350539 190.621219 
L 112.445302 190.621219 
L 112.445302 194.746521 
L 113.540064 194.746521 
L 113.540064 195.434071 
L 114.634827 195.434071 
L 114.634827 188.902343 
L 115.729589 188.902343 
L 115.729589 186.32403 
L 116.824352 186.32403 
L 116.824352 186.839693 
L 117.919114 186.839693 
L 117.919114 182.714391 
L 120.108639 182.714391 
L 120.108639 185.292705 
L 121.203402 185.292705 
L 121.203402 169.650936 
L 122.298164 169.650936 
L 122.298164 175.151338 
L 123.392927 175.151338 
L 123.392927 178.417202 
L 124.487689 178.417202 
L 124.487689 180.65174 
L 125.582452 180.65174 
L 125.582452 171.369812 
L 126.677215 171.369812 
L 126.677215 164.494309 
L 127.771977 164.494309 
L 127.771977 167.588286 
L 128.86674 167.588286 
L 128.86674 174.120013 
L 129.961502 174.120013 
L 129.961502 167.588286 
L 131.056265 167.588286 
L 131.056265 168.619611 
L 132.151027 168.619611 
L 132.151027 162.087884 
L 133.24579 162.087884 
L 133.24579 165.18186 
L 134.340552 165.18186 
L 134.340552 159.50957 
L 135.435315 159.50957 
L 135.435315 157.962582 
L 136.530077 157.962582 
L 136.530077 155.384269 
L 137.62484 155.384269 
L 137.62484 150.571417 
L 138.719602 150.571417 
L 138.719602 154.696718 
L 139.814365 154.696718 
L 139.814365 155.040493 
L 140.909127 155.040493 
L 140.909127 153.321618 
L 142.00389 153.321618 
L 142.00389 153.14973 
L 143.098652 153.14973 
L 143.098652 143.695914 
L 144.193415 143.695914 
L 144.193415 148.336878 
L 145.288178 148.336878 
L 145.288178 141.289488 
L 146.38294 141.289488 
L 146.38294 146.10234 
L 147.477703 146.10234 
L 147.477703 155.040493 
L 148.572465 155.040493 
L 148.572465 139.398725 
L 149.667228 139.398725 
L 149.667228 141.633263 
L 150.76199 141.633263 
L 150.76199 136.992299 
L 151.856753 136.992299 
L 151.856753 138.883062 
L 152.951515 138.883062 
L 152.951515 144.383465 
L 154.046278 144.383465 
L 154.046278 138.3674 
L 155.14104 138.3674 
L 155.14104 130.976235 
L 156.235803 130.976235 
L 156.235803 129.944909 
L 157.330565 129.944909 
L 157.330565 130.804347 
L 158.425328 130.804347 
L 158.425328 134.070211 
L 159.52009 134.070211 
L 159.52009 127.366596 
L 160.614853 127.366596 
L 160.614853 125.64772 
L 161.709615 125.64772 
L 161.709615 125.132057 
L 162.804378 125.132057 
L 162.804378 129.085471 
L 163.899141 129.085471 
L 163.899141 124.100732 
L 164.993903 124.100732 
L 164.993903 125.475833 
L 166.088666 125.475833 
L 166.088666 121.866194 
L 167.183428 121.866194 
L 167.183428 113.099928 
L 168.278191 113.099928 
L 168.278191 117.053342 
L 169.372953 117.053342 
L 169.372953 122.381856 
L 170.467716 122.381856 
L 170.467716 122.897519 
L 171.562478 122.897519 
L 171.562478 118.256555 
L 172.657241 118.256555 
L 172.657241 105.364988 
L 173.752003 105.364988 
L 173.752003 106.568201 
L 174.846766 106.568201 
L 174.846766 107.599526 
L 175.941528 107.599526 
L 175.941528 105.1931 
L 177.036291 105.1931 
L 177.036291 96.598722 
L 178.131053 96.598722 
L 178.131053 99.005148 
L 179.225816 99.005148 
L 179.225816 100.552136 
L 180.320579 100.552136 
L 180.320579 97.630047 
L 181.415341 97.630047 
L 181.415341 103.302337 
L 182.510104 103.302337 
L 182.510104 87.832456 
L 183.604866 87.832456 
L 183.604866 95.223621 
L 184.699629 95.223621 
L 184.699629 99.692698 
L 185.794391 99.692698 
L 185.794391 92.301533 
L 186.889154 92.301533 
L 186.889154 97.114385 
L 187.983916 97.114385 
L 187.983916 86.629243 
L 189.078679 86.629243 
L 189.078679 83.535267 
L 190.173441 83.535267 
L 190.173441 85.597918 
L 191.268204 85.597918 
L 191.268204 90.582657 
L 192.362966 90.582657 
L 192.362966 73.565788 
L 193.457729 73.565788 
L 193.457729 88.691894 
L 194.552491 88.691894 
L 194.552491 74.081451 
L 195.647254 74.081451 
L 195.647254 69.612374 
L 196.742016 69.612374 
L 196.742016 73.222013 
L 197.836779 73.222013 
L 197.836779 74.425226 
L 198.931542 74.425226 
L 198.931542 75.972214 
L 200.026304 75.972214 
L 200.026304 80.785066 
L 201.121067 80.785066 
L 201.121067 63.768197 
L 202.215829 63.768197 
L 202.215829 70.471812 
L 203.310592 70.471812 
L 203.310592 67.377836 
L 204.405354 67.377836 
L 204.405354 70.6437 
L 205.500117 70.6437 
L 205.500117 59.471008 
L 206.594879 59.471008 
L 206.594879 53.798718 
L 207.689642 53.798718 
L 207.689642 69.096712 
L 208.784404 69.096712 
L 208.784404 60.846109 
L 209.879167 60.846109 
L 209.879167 62.736872 
L 210.973929 62.736872 
L 210.973929 63.59631 
L 212.068692 63.59631 
L 212.068692 55.173819 
L 213.163454 55.173819 
L 213.163454 56.720807 
L 214.258217 56.720807 
L 214.258217 54.142494 
L 215.352979 54.142494 
L 215.352979 51.048517 
L 216.447742 51.048517 
L 216.447742 54.142494 
L 217.542505 54.142494 
L 217.542505 55.345707 
L 218.637267 55.345707 
L 218.637267 54.142494 
L 219.73203 54.142494 
L 219.73203 39.360163 
L 220.826792 39.360163 
L 220.826792 48.642092 
L 221.921555 48.642092 
L 221.921555 39.703938 
L 223.016317 39.703938 
L 223.016317 22.343294 
L 224.11108 22.343294 
L 224.11108 36.094299 
L 225.205842 36.094299 
L 225.205842 36.609962 
L 226.300605 36.609962 
L 226.300605 30.42201 
L 227.395367 30.42201 
L 227.395367 36.609962 
L 228.49013 36.609962 
L 228.49013 33.687874 
L 229.584892 33.687874 
L 229.584892 18.561768 
L 230.679655 18.561768 
L 230.679655 29.906347 
L 231.774417 29.906347 
L 231.774417 35.234862 
L 232.86918 35.234862 
L 232.86918 30.42201 
L 233.963942 30.42201 
L 233.963942 38.500725 
L 235.058705 38.500725 
L 235.058705 26.296708 
L 236.153468 26.296708 
L 236.153468 26.812371 
L 237.24823 26.812371 
L 237.24823 39.532051 
L 238.342993 39.532051 
L 238.342993 37.4694 
L 239.437755 37.4694 
L 239.437755 45.20434 
L 240.532518 45.20434 
L 240.532518 40.219601 
L 241.62728 40.219601 
L 241.62728 30.765785 
L 242.722043 30.765785 
L 242.722043 34.031649 
L 243.816805 34.031649 
L 243.816805 34.891086 
L 244.911568 34.891086 
L 244.911568 39.360163 
L 246.00633 39.360163 
L 246.00633 55.517594 
L 247.101093 55.517594 
L 247.101093 51.56418 
L 248.195855 51.56418 
L 248.195855 44.344902 
L 249.290618 44.344902 
L 249.290618 52.25173 
L 250.38538 52.25173 
L 250.38538 46.407553 
L 251.480143 46.407553 
L 251.480143 52.767393 
L 252.574906 52.767393 
L 252.574906 47.782654 
L 253.669668 47.782654 
L 253.669668 65.315185 
L 254.764431 65.315185 
L 254.764431 58.61157 
L 255.859193 58.61157 
L 255.859193 52.423618 
L 256.953956 52.423618 
L 256.953956 68.924824 
L 258.048718 68.924824 
L 258.048718 54.658156 
L 259.143481 54.658156 
L 259.143481 56.54892 
L 260.238243 56.54892 
L 260.238243 65.143298 
L 261.333006 65.143298 
L 261.333006 64.97141 
L 262.427768 64.97141 
L 262.427768 66.002736 
L 263.522531 66.002736 
L 263.522531 65.143298 
L 264.617293 65.143298 
L 264.617293 66.518398 
L 265.712056 66.518398 
L 265.712056 66.690286 
L 266.806818 66.690286 
L 266.806818 66.862173 
L 267.901581 66.862173 
L 267.901581 67.377836 
L 268.996343 67.377836 
L 268.996343 79.753741 
L 270.091106 79.753741 
L 270.091106 76.144102 
L 271.185869 76.144102 
L 271.185869 77.69109 
L 272.280631 77.69109 
L 272.280631 84.566592 
L 273.375394 84.566592 
L 273.375394 86.973018 
L 274.470156 86.973018 
L 274.470156 92.129645 
L 275.564919 92.129645 
L 275.564919 73.909563 
L 276.659681 73.909563 
L 276.659681 89.379444 
L 277.754444 89.379444 
L 277.754444 84.05093 
L 278.849206 84.05093 
L 278.849206 96.426834 
L 279.943969 96.426834 
L 279.943969 85.082255 
L 281.038731 85.082255 
L 281.038731 95.051734 
L 282.133494 95.051734 
L 282.133494 91.442095 
L 283.228256 91.442095 
L 283.228256 84.222817 
L 284.323019 84.222817 
L 284.323019 96.942497 
L 285.417781 96.942497 
L 285.417781 91.09832 
L 286.512544 91.09832 
L 286.512544 99.692698 
L 287.607306 99.692698 
L 287.607306 100.552136 
L 288.702069 100.552136 
L 288.702069 102.271011 
L 289.796832 102.271011 
L 289.796832 104.333662 
L 290.891594 104.333662 
L 290.891594 105.1931 
L 291.986357 105.1931 
L 291.986357 106.568201 
L 293.081119 106.568201 
L 293.081119 104.849325 
L 294.175882 104.849325 
L 294.175882 109.834064 
L 295.270644 109.834064 
L 295.270644 110.693502 
L 296.365407 110.693502 
L 296.365407 118.256555 
L 297.460169 118.256555 
L 297.460169 109.490289 
L 298.554932 109.490289 
L 298.554932 119.631655 
L 299.649694 119.631655 
L 299.649694 108.458964 
L 300.744457 108.458964 
L 300.744457 126.163383 
L 301.839219 126.163383 
L 301.839219 124.96017 
L 302.933982 124.96017 
L 302.933982 121.522419 
L 304.028744 121.522419 
L 304.028744 117.569005 
L 305.123507 117.569005 
L 305.123507 121.522419 
L 307.313032 121.522419 
L 307.313032 133.898323 
L 308.407795 133.898323 
L 308.407795 138.711175 
L 309.502557 138.711175 
L 309.502557 134.929649 
L 310.59732 134.929649 
L 310.59732 128.913584 
L 311.692082 128.913584 
L 311.692082 130.804347 
L 312.786845 130.804347 
L 312.786845 143.180252 
L 313.881607 143.180252 
L 313.881607 145.930453 
L 314.97637 145.930453 
L 314.97637 137.507962 
L 316.071132 137.507962 
L 316.071132 137.851737 
L 317.165895 137.851737 
L 317.165895 141.289488 
L 318.260657 141.289488 
L 318.260657 145.586677 
L 319.35542 145.586677 
L 319.35542 149.711979 
L 320.450182 149.711979 
L 320.450182 148.680654 
L 321.544945 148.680654 
L 321.544945 150.571417 
L 322.639707 150.571417 
L 322.639707 144.72724 
L 323.73447 144.72724 
L 323.73447 153.321618 
L 324.829233 153.321618 
L 324.829233 153.837281 
L 325.923995 153.837281 
L 325.923995 147.305553 
L 327.018758 147.305553 
L 327.018758 156.071819 
L 328.11352 156.071819 
L 328.11352 152.634068 
L 329.208283 152.634068 
L 329.208283 154.009168 
L 330.303045 154.009168 
L 330.303045 161.572221 
L 331.397808 161.572221 
L 331.397808 163.119209 
L 332.49257 163.119209 
L 332.49257 162.259771 
L 333.587333 162.259771 
L 333.587333 158.650132 
L 335.776858 158.650132 
L 335.776858 166.041298 
L 336.87162 166.041298 
L 336.87162 165.697522 
L 337.966383 165.697522 
L 337.966383 165.525635 
L 339.061145 165.525635 
L 339.061145 167.760173 
L 340.155908 167.760173 
L 340.155908 174.979451 
L 341.25067 174.979451 
L 341.25067 167.072623 
L 342.345433 167.072623 
L 342.345433 176.354551 
L 343.440196 176.354551 
L 343.440196 179.96419 
L 344.534958 179.96419 
L 344.534958 172.401137 
L 345.629721 172.401137 
L 345.629721 178.760977 
L 346.724483 178.760977 
L 346.724483 175.151338 
L 347.819246 175.151338 
L 347.819246 187.183468 
L 348.914008 187.183468 
L 348.914008 185.980255 
L 350.008771 185.980255 
L 350.008771 186.495918 
L 351.103533 186.495918 
L 351.103533 181.683066 
L 352.198296 181.683066 
L 352.198296 185.464592 
L 353.293058 185.464592 
L 353.293058 187.699131 
L 354.387821 187.699131 
L 354.387821 188.730456 
L 355.482583 188.730456 
L 355.482583 191.99632 
L 356.577346 191.99632 
L 356.577346 190.621219 
L 357.672108 190.621219 
L 357.672108 194.230858 
L 358.766871 194.230858 
L 358.766871 198.871822 
L 359.861633 198.871822 
L 359.861633 195.949734 
L 360.956396 195.949734 
L 360.956396 197.324834 
L 362.051159 197.324834 
L 362.051159 199.387485 
L 363.145921 199.387485 
L 363.145921 199.04371 
L 364.240684 199.04371 
L 364.240684 207.294313 
L 365.335446 207.294313 
L 365.335446 210.560177 
L 366.430209 210.560177 
L 366.430209 202.481461 
L 367.524971 202.481461 
L 367.524971 204.372224 
L 368.619734 204.372224 
L 368.619734 207.294313 
L 369.714496 207.294313 
L 369.714496 212.622827 
L 370.809259 212.622827 
L 370.809259 215.201141 
L 371.904021 215.201141 
L 371.904021 215.716803 
L 372.998784 215.716803 
L 372.998784 217.091904 
L 374.093546 217.091904 
L 374.093546 215.201141 
L 375.188309 215.201141 
L 375.188309 217.263791 
L 376.283071 217.263791 
L 376.283071 223.107969 
L 377.377834 223.107969 
L 377.377834 225.686282 
L 378.472596 225.686282 
L 378.472596 221.389093 
L 379.567359 221.389093 
L 379.567359 220.529655 
L 380.662122 220.529655 
L 380.662122 222.936081 
L 381.756884 222.936081 
L 381.756884 229.983471 
L 382.851647 229.983471 
L 382.851647 230.671021 
L 383.946409 230.671021 
L 383.946409 226.889495 
L 385.041172 226.889495 
L 385.041172 233.249335 
L 386.135934 233.249335 
L 386.135934 234.968211 
L 387.230697 234.968211 
L 387.230697 236.858974 
L 388.325459 236.858974 
L 388.325459 238.234074 
L 389.420222 238.234074 
L 389.420222 237.374636 
L 390.514984 237.374636 
L 390.514984 235.999536 
L 391.609747 235.999536 
L 391.609747 240.468613 
L 392.704509 240.468613 
L 392.704509 242.531263 
L 393.799272 242.531263 
L 393.799272 245.109577 
L 394.894034 245.109577 
L 394.894034 245.281464 
L 395.988797 245.281464 
L 395.988797 243.906364 
L 397.08356 243.906364 
L 397.08356 244.593914 
L 398.178322 244.593914 
L 398.178322 244.593914 
" clip-path="url(#p2e6e59b070)" style="fill: none; stroke: #1f77b4; stroke-width: 1.5; stroke-linecap: square"/>
   </g>
   <g id="patch_3">
    <path d="M 53.328125 257.158895 
L 53.328125 7.2 
" style="fill: none; stroke: #000000; stroke-width: 0.8; stroke-linejoin: miter; stroke-linecap: square"/>
   </g>
   <g id="patch_4">
    <path d="M 414.59976 257.158895 
L 414.59976 7.2 
" style="fill: none; stroke: #000000; stroke-width: 0.8; stroke-linejoin: miter; stroke-linecap: square"/>
   </g>
   <g id="patch_5">
    <path d="M 53.328125 257.158895 
L 414.59976 257.158895 
" style="fill: none; stroke: #000000; stroke-width: 0.8; stroke-linejoin: miter; stroke-linecap: square"/>
   </g>
   <g id="patch_6">
    <path d="M 53.328125 7.2 
L 414.59976 7.2 
" style="fill: none; stroke: #000000; stroke-width: 0.8; stroke-linejoin: miter; stroke-linecap: square"/>
   </g>
  </g>
  <g id="axes_2">
   <g id="patch_7">
    <path d="M 503.927885 257.158895 
L 865.19952 257.158895 
L 865.19952 7.2 
L 503.927885 7.2 
z
" style="fill: #ffffff"/>
   </g>
   <g id="matplotlib.axis_3">
    <g id="xtick_8">
     <g id="line2d_17">
      <g>
       <use xlink:href="#m36edb6544c" x="523.08603" y="257.158895" style="stroke: #000000; stroke-width: 0.8"/>
      </g>
     </g>
     <g id="text_18">
      <!-- 1.0 -->
      <g transform="translate(515.134467 271.757332) scale(0.1 -0.1)">
       <defs>
        <path id="DejaVuSans-2e" d="M 684 794 
L 1344 794 
L 1344 0 
L 684 0 
L 684 794 
z
" transform="scale(0.015625)"/>
       </defs>
       <use xlink:href="#DejaVuSans-31"/>
       <use xlink:href="#DejaVuSans-2e" transform="translate(63.623047 0)"/>
       <use xlink:href="#DejaVuSans-30" transform="translate(95.410156 0)"/>
      </g>
     </g>
    </g>
    <g id="xtick_9">
     <g id="line2d_18">
      <g>
       <use xlink:href="#m36edb6544c" x="576.911913" y="257.158895" style="stroke: #000000; stroke-width: 0.8"/>
      </g>
     </g>
     <g id="text_19">
      <!-- 1.5 -->
      <g transform="translate(568.96035 271.757332) scale(0.1 -0.1)">
       <use xlink:href="#DejaVuSans-31"/>
       <use xlink:href="#DejaVuSans-2e" transform="translate(63.623047 0)"/>
       <use xlink:href="#DejaVuSans-35" transform="translate(95.410156 0)"/>
      </g>
     </g>
    </g>
    <g id="xtick_10">
     <g id="line2d_19">
      <g>
       <use xlink:href="#m36edb6544c" x="630.737795" y="257.158895" style="stroke: #000000; stroke-width: 0.8"/>
      </g>
     </g>
     <g id="text_20">
      <!-- 2.0 -->
      <g transform="translate(622.786233 271.757332) scale(0.1 -0.1)">
       <use xlink:href="#DejaVuSans-32"/>
       <use xlink:href="#DejaVuSans-2e" transform="translate(63.623047 0)"/>
       <use xlink:href="#DejaVuSans-30" transform="translate(95.410156 0)"/>
      </g>
     </g>
    </g>
    <g id="xtick_11">
     <g id="line2d_20">
      <g>
       <use xlink:href="#m36edb6544c" x="684.563678" y="257.158895" style="stroke: #000000; stroke-width: 0.8"/>
      </g>
     </g>
     <g id="text_21">
      <!-- 2.5 -->
      <g transform="translate(676.612115 271.757332) scale(0.1 -0.1)">
       <use xlink:href="#DejaVuSans-32"/>
       <use xlink:href="#DejaVuSans-2e" transform="translate(63.623047 0)"/>
       <use xlink:href="#DejaVuSans-35" transform="translate(95.410156 0)"/>
      </g>
     </g>
    </g>
    <g id="xtick_12">
     <g id="line2d_21">
      <g>
       <use xlink:href="#m36edb6544c" x="738.389561" y="257.158895" style="stroke: #000000; stroke-width: 0.8"/>
      </g>
     </g>
     <g id="text_22">
      <!-- 3.0 -->
      <g transform="translate(730.437998 271.757332) scale(0.1 -0.1)">
       <use xlink:href="#DejaVuSans-33"/>
       <use xlink:href="#DejaVuSans-2e" transform="translate(63.623047 0)"/>
       <use xlink:href="#DejaVuSans-30" transform="translate(95.410156 0)"/>
      </g>
     </g>
    </g>
    <g id="xtick_13">
     <g id="line2d_22">
      <g>
       <use xlink:href="#m36edb6544c" x="792.215443" y="257.158895" style="stroke: #000000; stroke-width: 0.8"/>
      </g>
     </g>
     <g id="text_23">
      <!-- 3.5 -->
      <g transform="translate(784.263881 271.757332) scale(0.1 -0.1)">
       <use xlink:href="#DejaVuSans-33"/>
       <use xlink:href="#DejaVuSans-2e" transform="translate(63.623047 0)"/>
       <use xlink:href="#DejaVuSans-35" transform="translate(95.410156 0)"/>
      </g>
     </g>
    </g>
    <g id="xtick_14">
     <g id="line2d_23">
      <g>
       <use xlink:href="#m36edb6544c" x="846.041326" y="257.158895" style="stroke: #000000; stroke-width: 0.8"/>
      </g>
     </g>
     <g id="text_24">
      <!-- 4.0 -->
      <g transform="translate(838.089764 271.757332) scale(0.1 -0.1)">
       <use xlink:href="#DejaVuSans-34"/>
       <use xlink:href="#DejaVuSans-2e" transform="translate(63.623047 0)"/>
       <use xlink:href="#DejaVuSans-30" transform="translate(95.410156 0)"/>
      </g>
     </g>
    </g>
    <g id="text_25">
     <!-- wavelength [Å] -->
     <g transform="translate(646.526202 287.119832) scale(0.1 -0.1)">
      <defs>
       <path id="DejaVuSans-77" d="M 269 3500 
L 844 3500 
L 1563 769 
L 2278 3500 
L 2956 3500 
L 3675 769 
L 4391 3500 
L 4966 3500 
L 4050 0 
L 3372 0 
L 2619 2869 
L 1863 0 
L 1184 0 
L 269 3500 
z
" transform="scale(0.015625)"/>
       <path id="DejaVuSans-61" d="M 2194 1759 
Q 1497 1759 1228 1600 
Q 959 1441 959 1056 
Q 959 750 1161 570 
Q 1363 391 1709 391 
Q 2188 391 2477 730 
Q 2766 1069 2766 1631 
L 2766 1759 
L 2194 1759 
z
M 3341 1997 
L 3341 0 
L 2766 0 
L 2766 531 
Q 2569 213 2275 61 
Q 1981 -91 1556 -91 
Q 1019 -91 701 211 
Q 384 513 384 1019 
Q 384 1609 779 1909 
Q 1175 2209 1959 2209 
L 2766 2209 
L 2766 2266 
Q 2766 2663 2505 2880 
Q 2244 3097 1772 3097 
Q 1472 3097 1187 3025 
Q 903 2953 641 2809 
L 641 3341 
Q 956 3463 1253 3523 
Q 1550 3584 1831 3584 
Q 2591 3584 2966 3190 
Q 3341 2797 3341 1997 
z
" transform="scale(0.015625)"/>
       <path id="DejaVuSans-76" d="M 191 3500 
L 800 3500 
L 1894 563 
L 2988 3500 
L 3597 3500 
L 2284 0 
L 1503 0 
L 191 3500 
z
" transform="scale(0.015625)"/>
       <path id="DejaVuSans-67" d="M 2906 1791 
Q 2906 2416 2648 2759 
Q 2391 3103 1925 3103 
Q 1463 3103 1205 2759 
Q 947 2416 947 1791 
Q 947 1169 1205 825 
Q 1463 481 1925 481 
Q 2391 481 2648 825 
Q 2906 1169 2906 1791 
z
M 3481 434 
Q 3481 -459 3084 -895 
Q 2688 -1331 1869 -1331 
Q 1566 -1331 1297 -1286 
Q 1028 -1241 775 -1147 
L 775 -588 
Q 1028 -725 1275 -790 
Q 1522 -856 1778 -856 
Q 2344 -856 2625 -561 
Q 2906 -266 2906 331 
L 2906 616 
Q 2728 306 2450 153 
Q 2172 0 1784 0 
Q 1141 0 747 490 
Q 353 981 353 1791 
Q 353 2603 747 3093 
Q 1141 3584 1784 3584 
Q 2172 3584 2450 3431 
Q 2728 3278 2906 2969 
L 2906 3500 
L 3481 3500 
L 3481 434 
z
" transform="scale(0.015625)"/>
       <path id="DejaVuSans-c5" d="M 2663 5081 
Q 2663 5278 2523 5417 
Q 2384 5556 2188 5556 
Q 1988 5556 1852 5420 
Q 1716 5284 1716 5081 
Q 1716 4884 1853 4746 
Q 1991 4609 2188 4609 
Q 2384 4609 2523 4746 
Q 2663 4884 2663 5081 
z
M 2188 4044 
L 1338 1722 
L 3041 1722 
L 2188 4044 
z
M 1716 4366 
Q 1525 4494 1428 4673 
Q 1331 4853 1331 5081 
Q 1331 5441 1579 5691 
Q 1828 5941 2188 5941 
Q 2544 5941 2795 5689 
Q 3047 5438 3047 5081 
Q 3047 4863 2948 4678 
Q 2850 4494 2663 4366 
L 4325 0 
L 3669 0 
L 3244 1197 
L 1141 1197 
L 716 0 
L 50 0 
L 1716 4366 
z
" transform="scale(0.015625)"/>
      </defs>
      <use xlink:href="#DejaVuSans-77"/>
      <use xlink:href="#DejaVuSans-61" transform="translate(81.787109 0)"/>
      <use xlink:href="#DejaVuSans-76" transform="translate(143.066406 0)"/>
      <use xlink:href="#DejaVuSans-65" transform="translate(202.246094 0)"/>
      <use xlink:href="#DejaVuSans-6c" transform="translate(263.769531 0)"/>
      <use xlink:href="#DejaVuSans-65" transform="translate(291.552734 0)"/>
      <use xlink:href="#DejaVuSans-6e" transform="translate(353.076172 0)"/>
      <use xlink:href="#DejaVuSans-67" transform="translate(416.455078 0)"/>
      <use xlink:href="#DejaVuSans-74" transform="translate(479.931641 0)"/>
      <use xlink:href="#DejaVuSans-68" transform="translate(519.140625 0)"/>
      <use xlink:href="#DejaVuSans-20" transform="translate(582.519531 0)"/>
      <use xlink:href="#DejaVuSans-5b" transform="translate(614.306641 0)"/>
      <use xlink:href="#DejaVuSans-c5" transform="translate(653.320312 0)"/>
      <use xlink:href="#DejaVuSans-5d" transform="translate(721.728516 0)"/>
     </g>
    </g>
   </g>
   <g id="matplotlib.axis_4">
    <g id="ytick_9">
     <g id="line2d_24">
      <g>
       <use xlink:href="#m15f7c5462b" x="503.927885" y="255.499311" style="stroke: #000000; stroke-width: 0.8"/>
      </g>
     </g>
     <g id="text_26">
      <!-- 200 -->
      <g transform="translate(477.840385 259.29853) scale(0.1 -0.1)">
       <use xlink:href="#DejaVuSans-32"/>
       <use xlink:href="#DejaVuSans-30" transform="translate(63.623047 0)"/>
       <use xlink:href="#DejaVuSans-30" transform="translate(127.246094 0)"/>
      </g>
     </g>
    </g>
    <g id="ytick_10">
     <g id="line2d_25">
      <g>
       <use xlink:href="#m15f7c5462b" x="503.927885" y="204.435185" style="stroke: #000000; stroke-width: 0.8"/>
      </g>
     </g>
     <g id="text_27">
      <!-- 400 -->
      <g transform="translate(477.840385 208.234404) scale(0.1 -0.1)">
       <use xlink:href="#DejaVuSans-34"/>
       <use xlink:href="#DejaVuSans-30" transform="translate(63.623047 0)"/>
       <use xlink:href="#DejaVuSans-30" transform="translate(127.246094 0)"/>
      </g>
     </g>
    </g>
    <g id="ytick_11">
     <g id="line2d_26">
      <g>
       <use xlink:href="#m15f7c5462b" x="503.927885" y="153.37106" style="stroke: #000000; stroke-width: 0.8"/>
      </g>
     </g>
     <g id="text_28">
      <!-- 600 -->
      <g transform="translate(477.840385 157.170278) scale(0.1 -0.1)">
       <use xlink:href="#DejaVuSans-36"/>
       <use xlink:href="#DejaVuSans-30" transform="translate(63.623047 0)"/>
       <use xlink:href="#DejaVuSans-30" transform="translate(127.246094 0)"/>
      </g>
     </g>
    </g>
    <g id="ytick_12">
     <g id="line2d_27">
      <g>
       <use xlink:href="#m15f7c5462b" x="503.927885" y="102.306934" style="stroke: #000000; stroke-width: 0.8"/>
      </g>
     </g>
     <g id="text_29">
      <!-- 800 -->
      <g transform="translate(477.840385 106.106153) scale(0.1 -0.1)">
       <use xlink:href="#DejaVuSans-38"/>
       <use xlink:href="#DejaVuSans-30" transform="translate(63.623047 0)"/>
       <use xlink:href="#DejaVuSans-30" transform="translate(127.246094 0)"/>
      </g>
     </g>
    </g>
    <g id="ytick_13">
     <g id="line2d_28">
      <g>
       <use xlink:href="#m15f7c5462b" x="503.927885" y="51.242808" style="stroke: #000000; stroke-width: 0.8"/>
      </g>
     </g>
     <g id="text_30">
      <!-- 1000 -->
      <g transform="translate(471.477885 55.042027) scale(0.1 -0.1)">
       <use xlink:href="#DejaVuSans-31"/>
       <use xlink:href="#DejaVuSans-30" transform="translate(63.623047 0)"/>
       <use xlink:href="#DejaVuSans-30" transform="translate(127.246094 0)"/>
       <use xlink:href="#DejaVuSans-30" transform="translate(190.869141 0)"/>
      </g>
     </g>
    </g>
    <g id="text_31">
     <!-- pulse:0 [counts] -->
     <g transform="translate(465.398197 172.659916) rotate(-90) scale(0.1 -0.1)">
      <use xlink:href="#DejaVuSans-70"/>
      <use xlink:href="#DejaVuSans-75" transform="translate(63.476562 0)"/>
      <use xlink:href="#DejaVuSans-6c" transform="translate(126.855469 0)"/>
      <use xlink:href="#DejaVuSans-73" transform="translate(154.638672 0)"/>
      <use xlink:href="#DejaVuSans-65" transform="translate(206.738281 0)"/>
      <use xlink:href="#DejaVuSans-3a" transform="translate(268.261719 0)"/>
      <use xlink:href="#DejaVuSans-30" transform="translate(301.953125 0)"/>
      <use xlink:href="#DejaVuSans-20" transform="translate(365.576172 0)"/>
      <use xlink:href="#DejaVuSans-5b" transform="translate(397.363281 0)"/>
      <use xlink:href="#DejaVuSans-63" transform="translate(436.376953 0)"/>
      <use xlink:href="#DejaVuSans-6f" transform="translate(491.357422 0)"/>
      <use xlink:href="#DejaVuSans-75" transform="translate(552.539062 0)"/>
      <use xlink:href="#DejaVuSans-6e" transform="translate(615.917969 0)"/>
      <use xlink:href="#DejaVuSans-74" transform="translate(679.296875 0)"/>
      <use xlink:href="#DejaVuSans-73" transform="translate(718.505859 0)"/>
      <use xlink:href="#DejaVuSans-5d" transform="translate(770.605469 0)"/>
     </g>
    </g>
   </g>
   <g id="line2d_29">
    <path d="M 520.349323 242.477959 
L 521.444085 242.477959 
L 521.444085 240.435394 
L 522.538848 240.435394 
L 522.538848 239.924753 
L 523.633611 239.924753 
L 523.633611 245.797127 
L 524.728373 245.797127 
L 524.728373 238.648149 
L 525.823136 238.648149 
L 525.823136 239.924753 
L 526.917898 239.924753 
L 526.917898 236.860905 
L 528.012661 236.860905 
L 528.012661 230.73321 
L 529.107423 230.73321 
L 529.107423 231.499172 
L 530.202186 231.499172 
L 530.202186 242.222638 
L 531.296948 242.222638 
L 531.296948 235.584302 
L 532.391711 235.584302 
L 532.391711 231.243851 
L 533.486473 231.243851 
L 533.486473 234.563019 
L 534.581236 234.563019 
L 534.581236 229.967248 
L 535.675998 229.967248 
L 535.675998 227.414042 
L 536.770761 227.414042 
L 536.770761 229.456607 
L 537.865523 229.456607 
L 537.865523 226.903401 
L 538.960286 226.903401 
L 538.960286 225.371477 
L 540.055048 225.371477 
L 540.055048 228.945966 
L 541.149811 228.945966 
L 541.149811 233.031096 
L 542.244574 233.031096 
L 542.244574 215.413972 
L 543.339336 215.413972 
L 543.339336 224.094874 
L 544.434099 224.094874 
L 544.434099 225.882118 
L 545.528861 225.882118 
L 545.528861 225.371477 
L 546.623624 225.371477 
L 546.623624 223.839553 
L 547.718386 223.839553 
L 547.718386 228.690645 
L 548.813149 228.690645 
L 548.813149 213.626728 
L 549.907911 213.626728 
L 549.907911 223.073591 
L 551.002674 223.073591 
L 551.002674 212.350125 
L 552.097436 212.350125 
L 552.097436 202.1373 
L 553.192199 202.1373 
L 553.192199 218.222499 
L 554.286961 218.222499 
L 554.286961 210.30756 
L 555.381724 210.30756 
L 555.381724 218.73314 
L 556.476486 218.73314 
L 556.476486 213.371407 
L 557.571249 213.371407 
L 557.571249 220.775705 
L 558.666012 220.775705 
L 558.666012 216.690575 
L 559.760774 216.690575 
L 559.760774 209.796918 
L 560.855537 209.796918 
L 560.855537 210.56288 
L 561.950299 210.56288 
L 561.950299 221.541667 
L 563.045062 221.541667 
L 563.045062 213.371407 
L 564.139824 213.371407 
L 564.139824 212.860766 
L 565.234587 212.860766 
L 565.234587 211.073522 
L 566.329349 211.073522 
L 566.329349 214.39269 
L 568.518874 214.39269 
L 568.518874 207.243712 
L 569.613637 207.243712 
L 569.613637 211.328842 
L 570.708399 211.328842 
L 570.708399 208.775636 
L 571.803162 208.775636 
L 571.803162 201.881979 
L 572.897924 201.881979 
L 572.897924 209.030957 
L 573.992687 209.030957 
L 573.992687 205.967109 
L 575.087449 205.967109 
L 575.087449 201.116017 
L 576.182212 201.116017 
L 576.182212 211.328842 
L 577.276975 211.328842 
L 577.276975 205.456468 
L 578.371737 205.456468 
L 578.371737 207.754353 
L 579.4665 207.754353 
L 579.4665 200.350055 
L 580.561262 200.350055 
L 580.561262 195.498963 
L 581.656025 195.498963 
L 581.656025 189.626589 
L 582.750787 189.626589 
L 582.750787 205.711788 
L 583.84555 205.711788 
L 583.84555 205.201147 
L 584.940312 205.201147 
L 584.940312 204.435185 
L 586.035075 204.435185 
L 586.035075 182.988253 
L 587.129837 182.988253 
L 587.129837 197.796849 
L 588.2246 197.796849 
L 588.2246 194.733001 
L 589.319362 194.733001 
L 589.319362 204.435185 
L 590.414125 204.435185 
L 590.414125 199.839414 
L 591.508887 199.839414 
L 591.508887 199.073452 
L 592.60365 199.073452 
L 592.60365 199.839414 
L 593.698412 199.839414 
L 593.698412 196.775566 
L 594.793175 196.775566 
L 594.793175 200.350055 
L 595.887938 200.350055 
L 595.887938 198.05217 
L 596.9827 198.05217 
L 596.9827 175.839275 
L 598.077463 175.839275 
L 598.077463 189.371268 
L 599.172225 189.371268 
L 599.172225 179.413764 
L 600.266988 179.413764 
L 600.266988 186.818062 
L 601.36175 186.818062 
L 601.36175 197.030887 
L 602.456513 197.030887 
L 602.456513 179.158443 
L 603.551275 179.158443 
L 603.551275 180.435046 
L 604.646038 180.435046 
L 604.646038 188.860627 
L 605.7408 188.860627 
L 605.7408 183.754214 
L 606.835563 183.754214 
L 606.835563 185.030818 
L 607.930325 185.030818 
L 607.930325 191.158513 
L 609.025088 191.158513 
L 609.025088 189.626589 
L 610.11985 189.626589 
L 610.11985 189.881909 
L 611.214613 189.881909 
L 611.214613 179.924405 
L 612.309375 179.924405 
L 612.309375 181.711649 
L 613.404138 181.711649 
L 613.404138 175.839275 
L 614.498901 175.839275 
L 614.498901 179.924405 
L 615.593663 179.924405 
L 615.593663 182.988253 
L 616.688426 182.988253 
L 616.688426 174.052031 
L 617.783188 174.052031 
L 617.783188 193.456398 
L 618.877951 193.456398 
L 618.877951 175.328634 
L 621.067476 175.328634 
L 621.067476 175.839275 
L 622.162238 175.839275 
L 622.162238 178.137161 
L 623.257001 178.137161 
L 623.257001 174.817992 
L 624.351763 174.817992 
L 624.351763 180.179726 
L 625.446526 180.179726 
L 625.446526 165.88177 
L 626.541288 165.88177 
L 626.541288 167.413694 
L 627.636051 167.413694 
L 627.636051 175.583954 
L 628.730813 175.583954 
L 628.730813 186.562741 
L 629.825576 186.562741 
L 629.825576 172.775427 
L 630.920339 172.775427 
L 630.920339 169.71158 
L 632.015101 169.71158 
L 632.015101 171.498824 
L 633.109864 171.498824 
L 633.109864 168.179656 
L 634.204626 168.179656 
L 634.204626 178.392481 
L 635.299389 178.392481 
L 635.299389 170.477542 
L 636.394151 170.477542 
L 636.394151 163.839205 
L 637.488914 163.839205 
L 637.488914 157.45619 
L 638.583676 157.45619 
L 638.583676 169.9669 
L 639.678439 169.9669 
L 639.678439 167.158374 
L 640.773201 167.158374 
L 640.773201 170.222221 
L 641.867964 170.222221 
L 641.867964 167.413694 
L 642.962726 167.413694 
L 642.962726 165.62645 
L 644.057489 165.62645 
L 644.057489 165.88177 
L 645.152251 165.88177 
L 645.152251 159.243434 
L 646.247014 159.243434 
L 646.247014 156.945548 
L 647.341776 156.945548 
L 647.341776 150.562533 
L 648.436539 150.562533 
L 648.436539 154.392342 
L 649.531302 154.392342 
L 649.531302 155.668945 
L 650.626064 155.668945 
L 650.626064 153.881701 
L 651.720827 153.881701 
L 651.720827 159.754075 
L 652.815589 159.754075 
L 652.815589 160.009396 
L 653.910352 160.009396 
L 653.910352 157.71151 
L 655.005114 157.71151 
L 655.005114 165.371129 
L 656.099877 165.371129 
L 656.099877 169.71158 
L 657.194639 169.71158 
L 657.194639 146.222082 
L 658.289402 146.222082 
L 658.289402 154.902983 
L 659.384164 154.902983 
L 659.384164 146.477403 
L 660.478927 146.477403 
L 660.478927 163.073244 
L 661.573689 163.073244 
L 661.573689 151.839136 
L 662.668452 151.839136 
L 662.668452 138.051822 
L 663.763214 138.051822 
L 663.763214 148.009326 
L 664.857977 148.009326 
L 664.857977 141.37099 
L 665.952739 141.37099 
L 665.952739 147.243365 
L 667.047502 147.243365 
L 667.047502 151.328495 
L 668.142265 151.328495 
L 668.142265 143.413555 
L 669.237027 143.413555 
L 669.237027 138.817784 
L 670.33179 138.817784 
L 670.33179 132.434768 
L 671.426552 132.434768 
L 671.426552 151.073174 
L 672.521315 151.073174 
L 672.521315 138.817784 
L 673.616077 138.817784 
L 673.616077 150.307212 
L 674.71084 150.307212 
L 674.71084 136.009257 
L 675.805602 136.009257 
L 675.805602 138.817784 
L 676.900365 138.817784 
L 676.900365 131.668806 
L 677.995127 131.668806 
L 677.995127 143.668876 
L 679.08989 143.668876 
L 679.08989 140.860349 
L 680.184652 140.860349 
L 680.184652 146.222082 
L 681.279415 146.222082 
L 681.279415 134.987974 
L 682.374177 134.987974 
L 682.374177 137.541181 
L 683.46894 137.541181 
L 683.46894 149.54125 
L 684.563703 149.54125 
L 684.563703 145.45612 
L 685.658465 145.45612 
L 685.658465 139.328425 
L 686.753228 139.328425 
L 686.753228 141.881631 
L 687.84799 141.881631 
L 687.84799 134.222013 
L 688.942753 134.222013 
L 688.942753 133.20073 
L 690.037515 133.20073 
L 690.037515 133.711371 
L 691.132278 133.711371 
L 691.132278 131.668806 
L 692.22704 131.668806 
L 692.22704 129.1156 
L 693.321803 129.1156 
L 693.321803 122.477264 
L 694.416565 122.477264 
L 694.416565 131.413486 
L 695.511328 131.413486 
L 695.511328 138.817784 
L 696.60609 138.817784 
L 696.60609 127.838997 
L 697.700853 127.838997 
L 697.700853 124.519829 
L 698.795615 124.519829 
L 698.795615 122.221943 
L 699.890378 122.221943 
L 699.890378 128.604959 
L 700.98514 128.604959 
L 700.98514 118.392134 
L 702.079903 118.392134 
L 702.079903 132.179447 
L 703.174666 132.179447 
L 703.174666 121.966622 
L 704.269428 121.966622 
L 704.269428 116.604889 
L 705.364191 116.604889 
L 705.364191 135.498616 
L 706.458953 135.498616 
L 706.458953 115.072965 
L 707.553716 115.072965 
L 707.553716 125.796432 
L 708.648478 125.796432 
L 708.648478 125.285791 
L 709.743241 125.285791 
L 709.743241 119.668737 
L 710.838003 119.668737 
L 710.838003 119.158095 
L 711.932766 119.158095 
L 711.932766 110.732515 
L 713.027528 110.732515 
L 713.027528 111.753797 
L 714.122291 111.753797 
L 714.122291 105.115461 
L 715.217053 105.115461 
L 715.217053 115.328286 
L 716.311816 115.328286 
L 716.311816 108.434629 
L 717.406578 108.434629 
L 717.406578 102.817575 
L 718.501341 102.817575 
L 718.501341 114.817645 
L 719.596103 114.817645 
L 719.596103 108.68995 
L 720.690866 108.68995 
L 720.690866 109.711232 
L 721.785629 109.711232 
L 721.785629 110.987835 
L 722.880391 110.987835 
L 722.880391 122.221943 
L 723.975154 122.221943 
L 723.975154 128.094317 
L 725.069916 128.094317 
L 725.069916 114.817645 
L 726.164679 114.817645 
L 726.164679 113.0304 
L 727.259441 113.0304 
L 727.259441 107.158026 
L 728.354204 107.158026 
L 728.354204 111.243156 
L 729.448966 111.243156 
L 729.448966 107.923988 
L 730.543729 107.923988 
L 730.543729 110.732515 
L 731.638491 110.732515 
L 731.638491 107.668667 
L 732.733254 107.668667 
L 732.733254 113.0304 
L 733.828016 113.0304 
L 733.828016 112.009118 
L 734.922779 112.009118 
L 734.922779 92.34943 
L 736.017541 92.34943 
L 736.017541 107.413347 
L 737.112304 107.413347 
L 737.112304 97.966483 
L 738.207066 97.966483 
L 738.207066 117.370851 
L 739.301829 117.370851 
L 739.301829 89.796223 
L 740.396592 89.796223 
L 740.396592 88.264299 
L 741.491354 88.264299 
L 741.491354 101.540972 
L 742.586117 101.540972 
L 742.586117 90.051544 
L 743.680879 90.051544 
L 743.680879 110.987835 
L 744.775642 110.987835 
L 744.775642 94.391995 
L 745.870404 94.391995 
L 745.870404 88.264299 
L 746.965167 88.264299 
L 746.965167 91.072826 
L 748.059929 91.072826 
L 748.059929 97.455842 
L 749.154692 97.455842 
L 749.154692 91.072826 
L 750.249454 91.072826 
L 750.249454 85.455773 
L 751.344217 85.455773 
L 751.344217 91.328147 
L 752.438979 91.328147 
L 752.438979 102.051613 
L 753.533742 102.051613 
L 753.533742 82.136604 
L 754.628504 82.136604 
L 754.628504 76.008909 
L 755.723267 76.008909 
L 755.723267 94.136674 
L 756.818029 94.136674 
L 756.818029 87.753658 
L 757.912792 87.753658 
L 757.912792 89.030261 
L 759.007555 89.030261 
L 759.007555 85.200452 
L 760.102317 85.200452 
L 760.102317 83.157887 
L 761.19708 83.157887 
L 761.19708 79.328077 
L 762.291842 79.328077 
L 762.291842 87.753658 
L 763.386605 87.753658 
L 763.386605 85.455773 
L 764.481367 85.455773 
L 764.481367 97.966483 
L 765.57613 97.966483 
L 765.57613 88.264299 
L 766.670892 88.264299 
L 766.670892 95.413277 
L 767.765655 95.413277 
L 767.765655 88.51962 
L 768.860417 88.51962 
L 768.860417 80.34936 
L 769.95518 80.34936 
L 769.95518 86.477055 
L 771.049942 86.477055 
L 771.049942 85.711093 
L 772.144705 85.711093 
L 772.144705 85.455773 
L 773.239467 85.455773 
L 773.239467 61.455633 
L 774.33423 61.455633 
L 774.33423 75.498268 
L 775.428993 75.498268 
L 775.428993 81.370642 
L 776.523755 81.370642 
L 776.523755 63.498199 
L 777.618518 63.498199 
L 777.618518 80.34936 
L 778.71328 80.34936 
L 778.71328 80.094039 
L 779.808043 80.094039 
L 779.808043 86.477055 
L 780.902805 86.477055 
L 780.902805 79.328077 
L 781.997568 79.328077 
L 781.997568 72.945062 
L 783.09233 72.945062 
L 783.09233 73.200382 
L 784.187093 73.200382 
L 784.187093 69.881214 
L 785.281855 69.881214 
L 785.281855 80.604681 
L 786.376618 80.604681 
L 786.376618 84.43449 
L 787.47138 84.43449 
L 787.47138 63.242878 
L 788.566143 63.242878 
L 788.566143 76.26423 
L 789.660905 76.26423 
L 789.660905 75.242947 
L 790.755668 75.242947 
L 790.755668 70.902497 
L 791.85043 70.902497 
L 791.85043 61.966275 
L 792.945193 61.966275 
L 792.945193 71.157817 
L 794.039956 71.157817 
L 794.039956 64.00884 
L 795.134718 64.00884 
L 795.134718 60.689672 
L 796.229481 60.689672 
L 796.229481 54.817297 
L 797.324243 54.817297 
L 797.324243 67.838649 
L 798.419006 67.838649 
L 798.419006 57.115183 
L 799.513768 57.115183 
L 799.513768 61.966275 
L 800.608531 61.966275 
L 800.608531 55.327938 
L 801.703293 55.327938 
L 801.703293 56.349221 
L 802.798056 56.349221 
L 802.798056 56.604542 
L 803.892818 56.604542 
L 803.892818 66.817367 
L 804.987581 66.817367 
L 804.987581 64.519481 
L 806.082343 64.519481 
L 806.082343 57.625824 
L 807.177106 57.625824 
L 807.177106 57.370503 
L 808.271868 57.370503 
L 808.271868 65.030122 
L 809.366631 65.030122 
L 809.366631 61.200313 
L 810.461393 61.200313 
L 810.461393 70.391855 
L 811.556156 70.391855 
L 811.556156 68.34929 
L 812.650919 68.34929 
L 812.650919 59.157748 
L 813.745681 59.157748 
L 813.745681 57.625824 
L 814.840444 57.625824 
L 814.840444 47.157678 
L 815.935206 47.157678 
L 815.935206 57.115183 
L 817.029969 57.115183 
L 817.029969 51.75345 
L 818.124731 51.75345 
L 818.124731 44.859793 
L 819.219494 44.859793 
L 819.219494 56.0939 
L 820.314256 56.0939 
L 820.314256 41.029983 
L 821.409019 41.029983 
L 821.409019 48.178961 
L 822.503781 48.178961 
L 822.503781 30.817158 
L 823.598544 30.817158 
L 823.598544 68.09397 
L 824.693306 68.09397 
L 824.693306 49.455564 
L 825.788069 49.455564 
L 825.788069 32.349082 
L 826.882831 32.349082 
L 826.882831 37.966136 
L 827.977594 37.966136 
L 827.977594 39.242739 
L 829.072357 39.242739 
L 829.072357 55.072618 
L 830.167119 55.072618 
L 830.167119 37.966136 
L 831.261882 37.966136 
L 831.261882 41.795945 
L 832.356644 41.795945 
L 832.356644 18.561768 
L 833.451407 18.561768 
L 833.451407 45.881075 
L 834.546169 45.881075 
L 834.546169 40.774663 
L 835.640932 40.774663 
L 835.640932 47.157678 
L 836.735694 47.157678 
L 836.735694 31.072479 
L 837.830457 31.072479 
L 837.830457 24.944784 
L 838.925219 24.944784 
L 838.925219 35.66825 
L 840.019982 35.66825 
L 840.019982 55.327938 
L 841.114744 55.327938 
L 841.114744 40.264021 
L 842.209507 40.264021 
L 842.209507 38.221456 
L 843.304269 38.221456 
L 843.304269 34.391647 
L 844.399032 34.391647 
L 844.399032 48.434281 
L 845.493794 48.434281 
L 845.493794 35.157609 
L 846.588557 35.157609 
L 846.588557 30.561837 
L 847.68332 30.561837 
L 847.68332 33.370364 
L 848.778082 33.370364 
L 848.778082 33.370364 
" clip-path="url(#pa0f96cd4fd)" style="fill: none; stroke: #1f77b4; stroke-width: 1.5; stroke-linecap: square"/>
   </g>
   <g id="patch_8">
    <path d="M 503.927885 257.158895 
L 503.927885 7.2 
" style="fill: none; stroke: #000000; stroke-width: 0.8; stroke-linejoin: miter; stroke-linecap: square"/>
   </g>
   <g id="patch_9">
    <path d="M 865.19952 257.158895 
L 865.19952 7.2 
" style="fill: none; stroke: #000000; stroke-width: 0.8; stroke-linejoin: miter; stroke-linecap: square"/>
   </g>
   <g id="patch_10">
    <path d="M 503.927885 257.158895 
L 865.19952 257.158895 
" style="fill: none; stroke: #000000; stroke-width: 0.8; stroke-linejoin: miter; stroke-linecap: square"/>
   </g>
   <g id="patch_11">
    <path d="M 503.927885 7.2 
L 865.19952 7.2 
" style="fill: none; stroke: #000000; stroke-width: 0.8; stroke-linejoin: miter; stroke-linecap: square"/>
   </g>
  </g>
 </g>
 <defs>
  <clipPath id="p2e6e59b070">
   <rect x="53.328125" y="7.2" width="361.271635" height="249.958895"/>
  </clipPath>
  <clipPath id="pa0f96cd4fd">
   <rect x="503.927885" y="7.2" width="361.271635" height="249.958895"/>
  </clipPath>
 </defs>
</svg>
