<?xml version="1.0" encoding="utf-8" standalone="no"?>
<!DOCTYPE svg PUBLIC "-//W3C//DTD SVG 1.1//EN"
  "http://www.w3.org/Graphics/SVG/1.1/DTD/svg11.dtd">
<svg xmlns:xlink="http://www.w3.org/1999/xlink" width="872.39952pt" height="296.39952pt" viewBox="0 0 872.39952 296.39952" xmlns="http://www.w3.org/2000/svg" version="1.1">
 <metadata>
  <rdf:RDF xmlns:dc="http://purl.org/dc/elements/1.1/" xmlns:cc="http://creativecommons.org/ns#" xmlns:rdf="http://www.w3.org/1999/02/22-rdf-syntax-ns#">
   <cc:Work>
    <dc:type rdf:resource="http://purl.org/dc/dcmitype/StillImage"/>
    <dc:date>2026-01-29T14:57:52.070651</dc:date>
    <dc:format>image/svg+xml</dc:format>
    <dc:creator>
     <cc:Agent>
      <dc:title>Matplotlib v3.10.7, https://matplotlib.org/</dc:title>
     </cc:Agent>
    </dc:creator>
   </cc:Work>
  </rdf:RDF>
 </metadata>
 <defs>
  <style type="text/css">*{stroke-linejoin: round; stroke-linecap: butt}</style>
 </defs>
 <g id="figure_1">
  <g id="patch_1">
   <path d="M 0 296.39952 
L 872.39952 296.39952 
L 872.39952 0 
L 0 0 
z
" style="fill: #ffffff"/>
  </g>
  <g id="axes_1">
   <g id="patch_2">
    <path d="M 53.328125 257.158895 
L 411.41851 257.158895 
L 411.41851 7.2 
L 53.328125 7.2 
z
" style="fill: #ffffff"/>
   </g>
   <g id="matplotlib.axis_1">
    <g id="xtick_1">
     <g id="line2d_1">
      <defs>
       <path id="m5e84f5cdf8" d="M 0 0 
L 0 3.5 
" style="stroke: #000000; stroke-width: 0.8"/>
      </defs>
      <g>
       <use xlink:href="#m5e84f5cdf8" x="68.777716" y="257.158895" style="stroke: #000000; stroke-width: 0.8"/>
      </g>
     </g>
     <g id="text_1">
      <!-- 0 -->
      <g transform="translate(65.596466 271.757332) scale(0.1 -0.1)">
       <defs>
        <path id="DejaVuSans-30" d="M 2034 4250 
Q 1547 4250 1301 3770 
Q 1056 3291 1056 2328 
Q 1056 1369 1301 889 
Q 1547 409 2034 409 
Q 2525 409 2770 889 
Q 3016 1369 3016 2328 
Q 3016 3291 2770 3770 
Q 2525 4250 2034 4250 
z
M 2034 4750 
Q 2819 4750 3233 4129 
Q 3647 3509 3647 2328 
Q 3647 1150 3233 529 
Q 2819 -91 2034 -91 
Q 1250 -91 836 529 
Q 422 1150 422 2328 
Q 422 3509 836 4129 
Q 1250 4750 2034 4750 
z
" transform="scale(0.015625)"/>
       </defs>
       <use xlink:href="#DejaVuSans-30"/>
      </g>
     </g>
    </g>
    <g id="xtick_2">
     <g id="line2d_2">
      <g>
       <use xlink:href="#m5e84f5cdf8" x="134.217546" y="257.158895" style="stroke: #000000; stroke-width: 0.8"/>
      </g>
     </g>
     <g id="text_2">
      <!-- 1000 -->
      <g transform="translate(121.492546 271.757332) scale(0.1 -0.1)">
       <defs>
        <path id="DejaVuSans-31" d="M 794 531 
L 1825 531 
L 1825 4091 
L 703 3866 
L 703 4441 
L 1819 4666 
L 2450 4666 
L 2450 531 
L 3481 531 
L 3481 0 
L 794 0 
L 794 531 
z
" transform="scale(0.015625)"/>
       </defs>
       <use xlink:href="#DejaVuSans-31"/>
       <use xlink:href="#DejaVuSans-30" transform="translate(63.623047 0)"/>
       <use xlink:href="#DejaVuSans-30" transform="translate(127.246094 0)"/>
       <use xlink:href="#DejaVuSans-30" transform="translate(190.869141 0)"/>
      </g>
     </g>
    </g>
    <g id="xtick_3">
     <g id="line2d_3">
      <g>
       <use xlink:href="#m5e84f5cdf8" x="199.657375" y="257.158895" style="stroke: #000000; stroke-width: 0.8"/>
      </g>
     </g>
     <g id="text_3">
      <!-- 2000 -->
      <g transform="translate(186.932375 271.757332) scale(0.1 -0.1)">
       <defs>
        <path id="DejaVuSans-32" d="M 1228 531 
L 3431 531 
L 3431 0 
L 469 0 
L 469 531 
Q 828 903 1448 1529 
Q 2069 2156 2228 2338 
Q 2531 2678 2651 2914 
Q 2772 3150 2772 3378 
Q 2772 3750 2511 3984 
Q 2250 4219 1831 4219 
Q 1534 4219 1204 4116 
Q 875 4013 500 3803 
L 500 4441 
Q 881 4594 1212 4672 
Q 1544 4750 1819 4750 
Q 2544 4750 2975 4387 
Q 3406 4025 3406 3419 
Q 3406 3131 3298 2873 
Q 3191 2616 2906 2266 
Q 2828 2175 2409 1742 
Q 1991 1309 1228 531 
z
" transform="scale(0.015625)"/>
       </defs>
       <use xlink:href="#DejaVuSans-32"/>
       <use xlink:href="#DejaVuSans-30" transform="translate(63.623047 0)"/>
       <use xlink:href="#DejaVuSans-30" transform="translate(127.246094 0)"/>
       <use xlink:href="#DejaVuSans-30" transform="translate(190.869141 0)"/>
      </g>
     </g>
    </g>
    <g id="xtick_4">
     <g id="line2d_4">
      <g>
       <use xlink:href="#m5e84f5cdf8" x="265.097204" y="257.158895" style="stroke: #000000; stroke-width: 0.8"/>
      </g>
     </g>
     <g id="text_4">
      <!-- 3000 -->
      <g transform="translate(252.372204 271.757332) scale(0.1 -0.1)">
       <defs>
        <path id="DejaVuSans-33" d="M 2597 2516 
Q 3050 2419 3304 2112 
Q 3559 1806 3559 1356 
Q 3559 666 3084 287 
Q 2609 -91 1734 -91 
Q 1441 -91 1130 -33 
Q 819 25 488 141 
L 488 750 
Q 750 597 1062 519 
Q 1375 441 1716 441 
Q 2309 441 2620 675 
Q 2931 909 2931 1356 
Q 2931 1769 2642 2001 
Q 2353 2234 1838 2234 
L 1294 2234 
L 1294 2753 
L 1863 2753 
Q 2328 2753 2575 2939 
Q 2822 3125 2822 3475 
Q 2822 3834 2567 4026 
Q 2313 4219 1838 4219 
Q 1578 4219 1281 4162 
Q 984 4106 628 3988 
L 628 4550 
Q 988 4650 1302 4700 
Q 1616 4750 1894 4750 
Q 2613 4750 3031 4423 
Q 3450 4097 3450 3541 
Q 3450 3153 3228 2886 
Q 3006 2619 2597 2516 
z
" transform="scale(0.015625)"/>
       </defs>
       <use xlink:href="#DejaVuSans-33"/>
       <use xlink:href="#DejaVuSans-30" transform="translate(63.623047 0)"/>
       <use xlink:href="#DejaVuSans-30" transform="translate(127.246094 0)"/>
       <use xlink:href="#DejaVuSans-30" transform="translate(190.869141 0)"/>
      </g>
     </g>
    </g>
    <g id="xtick_5">
     <g id="line2d_5">
      <g>
       <use xlink:href="#m5e84f5cdf8" x="330.537033" y="257.158895" style="stroke: #000000; stroke-width: 0.8"/>
      </g>
     </g>
     <g id="text_5">
      <!-- 4000 -->
      <g transform="translate(317.812033 271.757332) scale(0.1 -0.1)">
       <defs>
        <path id="DejaVuSans-34" d="M 2419 4116 
L 825 1625 
L 2419 1625 
L 2419 4116 
z
M 2253 4666 
L 3047 4666 
L 3047 1625 
L 3713 1625 
L 3713 1100 
L 3047 1100 
L 3047 0 
L 2419 0 
L 2419 1100 
L 313 1100 
L 313 1709 
L 2253 4666 
z
" transform="scale(0.015625)"/>
       </defs>
       <use xlink:href="#DejaVuSans-34"/>
       <use xlink:href="#DejaVuSans-30" transform="translate(63.623047 0)"/>
       <use xlink:href="#DejaVuSans-30" transform="translate(127.246094 0)"/>
       <use xlink:href="#DejaVuSans-30" transform="translate(190.869141 0)"/>
      </g>
     </g>
    </g>
    <g id="xtick_6">
     <g id="line2d_6">
      <g>
       <use xlink:href="#m5e84f5cdf8" x="395.976862" y="257.158895" style="stroke: #000000; stroke-width: 0.8"/>
      </g>
     </g>
     <g id="text_6">
      <!-- 5000 -->
      <g transform="translate(383.251862 271.757332) scale(0.1 -0.1)">
       <defs>
        <path id="DejaVuSans-35" d="M 691 4666 
L 3169 4666 
L 3169 4134 
L 1269 4134 
L 1269 2991 
Q 1406 3038 1543 3061 
Q 1681 3084 1819 3084 
Q 2600 3084 3056 2656 
Q 3513 2228 3513 1497 
Q 3513 744 3044 326 
Q 2575 -91 1722 -91 
Q 1428 -91 1123 -41 
Q 819 9 494 109 
L 494 744 
Q 775 591 1075 516 
Q 1375 441 1709 441 
Q 2250 441 2565 725 
Q 2881 1009 2881 1497 
Q 2881 1984 2565 2268 
Q 2250 2553 1709 2553 
Q 1456 2553 1204 2497 
Q 953 2441 691 2322 
L 691 4666 
z
" transform="scale(0.015625)"/>
       </defs>
       <use xlink:href="#DejaVuSans-35"/>
       <use xlink:href="#DejaVuSans-30" transform="translate(63.623047 0)"/>
       <use xlink:href="#DejaVuSans-30" transform="translate(127.246094 0)"/>
       <use xlink:href="#DejaVuSans-30" transform="translate(190.869141 0)"/>
      </g>
     </g>
    </g>
    <g id="text_7">
     <!-- birth_time [µs] -->
     <g transform="translate(195.553005 285.435457) scale(0.1 -0.1)">
      <defs>
       <path id="DejaVuSans-62" d="M 3116 1747 
Q 3116 2381 2855 2742 
Q 2594 3103 2138 3103 
Q 1681 3103 1420 2742 
Q 1159 2381 1159 1747 
Q 1159 1113 1420 752 
Q 1681 391 2138 391 
Q 2594 391 2855 752 
Q 3116 1113 3116 1747 
z
M 1159 2969 
Q 1341 3281 1617 3432 
Q 1894 3584 2278 3584 
Q 2916 3584 3314 3078 
Q 3713 2572 3713 1747 
Q 3713 922 3314 415 
Q 2916 -91 2278 -91 
Q 1894 -91 1617 61 
Q 1341 213 1159 525 
L 1159 0 
L 581 0 
L 581 4863 
L 1159 4863 
L 1159 2969 
z
" transform="scale(0.015625)"/>
       <path id="DejaVuSans-69" d="M 603 3500 
L 1178 3500 
L 1178 0 
L 603 0 
L 603 3500 
z
M 603 4863 
L 1178 4863 
L 1178 4134 
L 603 4134 
L 603 4863 
z
" transform="scale(0.015625)"/>
       <path id="DejaVuSans-72" d="M 2631 2963 
Q 2534 3019 2420 3045 
Q 2306 3072 2169 3072 
Q 1681 3072 1420 2755 
Q 1159 2438 1159 1844 
L 1159 0 
L 581 0 
L 581 3500 
L 1159 3500 
L 1159 2956 
Q 1341 3275 1631 3429 
Q 1922 3584 2338 3584 
Q 2397 3584 2469 3576 
Q 2541 3569 2628 3553 
L 2631 2963 
z
" transform="scale(0.015625)"/>
       <path id="DejaVuSans-74" d="M 1172 4494 
L 1172 3500 
L 2356 3500 
L 2356 3053 
L 1172 3053 
L 1172 1153 
Q 1172 725 1289 603 
Q 1406 481 1766 481 
L 2356 481 
L 2356 0 
L 1766 0 
Q 1100 0 847 248 
Q 594 497 594 1153 
L 594 3053 
L 172 3053 
L 172 3500 
L 594 3500 
L 594 4494 
L 1172 4494 
z
" transform="scale(0.015625)"/>
       <path id="DejaVuSans-68" d="M 3513 2113 
L 3513 0 
L 2938 0 
L 2938 2094 
Q 2938 2591 2744 2837 
Q 2550 3084 2163 3084 
Q 1697 3084 1428 2787 
Q 1159 2491 1159 1978 
L 1159 0 
L 581 0 
L 581 4863 
L 1159 4863 
L 1159 2956 
Q 1366 3272 1645 3428 
Q 1925 3584 2291 3584 
Q 2894 3584 3203 3211 
Q 3513 2838 3513 2113 
z
" transform="scale(0.015625)"/>
       <path id="DejaVuSans-5f" d="M 3263 -1063 
L 3263 -1509 
L -63 -1509 
L -63 -1063 
L 3263 -1063 
z
" transform="scale(0.015625)"/>
       <path id="DejaVuSans-6d" d="M 3328 2828 
Q 3544 3216 3844 3400 
Q 4144 3584 4550 3584 
Q 5097 3584 5394 3201 
Q 5691 2819 5691 2113 
L 5691 0 
L 5113 0 
L 5113 2094 
Q 5113 2597 4934 2840 
Q 4756 3084 4391 3084 
Q 3944 3084 3684 2787 
Q 3425 2491 3425 1978 
L 3425 0 
L 2847 0 
L 2847 2094 
Q 2847 2600 2669 2842 
Q 2491 3084 2119 3084 
Q 1678 3084 1418 2786 
Q 1159 2488 1159 1978 
L 1159 0 
L 581 0 
L 581 3500 
L 1159 3500 
L 1159 2956 
Q 1356 3278 1631 3431 
Q 1906 3584 2284 3584 
Q 2666 3584 2933 3390 
Q 3200 3197 3328 2828 
z
" transform="scale(0.015625)"/>
       <path id="DejaVuSans-65" d="M 3597 1894 
L 3597 1613 
L 953 1613 
Q 991 1019 1311 708 
Q 1631 397 2203 397 
Q 2534 397 2845 478 
Q 3156 559 3463 722 
L 3463 178 
Q 3153 47 2828 -22 
Q 2503 -91 2169 -91 
Q 1331 -91 842 396 
Q 353 884 353 1716 
Q 353 2575 817 3079 
Q 1281 3584 2069 3584 
Q 2775 3584 3186 3129 
Q 3597 2675 3597 1894 
z
M 3022 2063 
Q 3016 2534 2758 2815 
Q 2500 3097 2075 3097 
Q 1594 3097 1305 2825 
Q 1016 2553 972 2059 
L 3022 2063 
z
" transform="scale(0.015625)"/>
       <path id="DejaVuSans-20" transform="scale(0.015625)"/>
       <path id="DejaVuSans-5b" d="M 550 4863 
L 1875 4863 
L 1875 4416 
L 1125 4416 
L 1125 -397 
L 1875 -397 
L 1875 -844 
L 550 -844 
L 550 4863 
z
" transform="scale(0.015625)"/>
       <path id="DejaVuSans-b5" d="M 544 -1331 
L 544 3500 
L 1119 3500 
L 1119 1325 
Q 1119 872 1334 640 
Q 1550 409 1972 409 
Q 2434 409 2667 671 
Q 2900 934 2900 1459 
L 2900 3500 
L 3475 3500 
L 3475 806 
Q 3475 619 3529 530 
Q 3584 441 3700 441 
Q 3728 441 3778 458 
Q 3828 475 3916 513 
L 3916 50 
Q 3788 -22 3673 -56 
Q 3559 -91 3450 -91 
Q 3234 -91 3106 31 
Q 2978 153 2931 403 
Q 2775 156 2548 32 
Q 2322 -91 2016 -91 
Q 1697 -91 1473 31 
Q 1250 153 1119 397 
L 1119 -1331 
L 544 -1331 
z
" transform="scale(0.015625)"/>
       <path id="DejaVuSans-73" d="M 2834 3397 
L 2834 2853 
Q 2591 2978 2328 3040 
Q 2066 3103 1784 3103 
Q 1356 3103 1142 2972 
Q 928 2841 928 2578 
Q 928 2378 1081 2264 
Q 1234 2150 1697 2047 
L 1894 2003 
Q 2506 1872 2764 1633 
Q 3022 1394 3022 966 
Q 3022 478 2636 193 
Q 2250 -91 1575 -91 
Q 1294 -91 989 -36 
Q 684 19 347 128 
L 347 722 
Q 666 556 975 473 
Q 1284 391 1588 391 
Q 1994 391 2212 530 
Q 2431 669 2431 922 
Q 2431 1156 2273 1281 
Q 2116 1406 1581 1522 
L 1381 1569 
Q 847 1681 609 1914 
Q 372 2147 372 2553 
Q 372 3047 722 3315 
Q 1072 3584 1716 3584 
Q 2034 3584 2315 3537 
Q 2597 3491 2834 3397 
z
" transform="scale(0.015625)"/>
       <path id="DejaVuSans-5d" d="M 1947 4863 
L 1947 -844 
L 622 -844 
L 622 -397 
L 1369 -397 
L 1369 4416 
L 622 4416 
L 622 4863 
L 1947 4863 
z
" transform="scale(0.015625)"/>
      </defs>
      <use xlink:href="#DejaVuSans-62"/>
      <use xlink:href="#DejaVuSans-69" transform="translate(63.476562 0)"/>
      <use xlink:href="#DejaVuSans-72" transform="translate(91.259766 0)"/>
      <use xlink:href="#DejaVuSans-74" transform="translate(132.373047 0)"/>
      <use xlink:href="#DejaVuSans-68" transform="translate(171.582031 0)"/>
      <use xlink:href="#DejaVuSans-5f" transform="translate(234.960938 0)"/>
      <use xlink:href="#DejaVuSans-74" transform="translate(284.960938 0)"/>
      <use xlink:href="#DejaVuSans-69" transform="translate(324.169922 0)"/>
      <use xlink:href="#DejaVuSans-6d" transform="translate(351.953125 0)"/>
      <use xlink:href="#DejaVuSans-65" transform="translate(449.365234 0)"/>
      <use xlink:href="#DejaVuSans-20" transform="translate(510.888672 0)"/>
      <use xlink:href="#DejaVuSans-5b" transform="translate(542.675781 0)"/>
      <use xlink:href="#DejaVuSans-b5" transform="translate(581.689453 0)"/>
      <use xlink:href="#DejaVuSans-73" transform="translate(645.3125 0)"/>
      <use xlink:href="#DejaVuSans-5d" transform="translate(697.412109 0)"/>
     </g>
    </g>
   </g>
   <g id="matplotlib.axis_2">
    <g id="ytick_1">
     <g id="line2d_7">
      <defs>
       <path id="me0e77e1eaa" d="M 0 0 
L -3.5 0 
" style="stroke: #000000; stroke-width: 0.8"/>
      </defs>
      <g>
       <use xlink:href="#me0e77e1eaa" x="53.328125" y="245.948466" style="stroke: #000000; stroke-width: 0.8"/>
      </g>
     </g>
     <g id="text_8">
      <!-- 0 -->
      <g transform="translate(39.965625 249.747685) scale(0.1 -0.1)">
       <use xlink:href="#DejaVuSans-30"/>
      </g>
     </g>
    </g>
    <g id="ytick_2">
     <g id="line2d_8">
      <g>
       <use xlink:href="#me0e77e1eaa" x="53.328125" y="208.113741" style="stroke: #000000; stroke-width: 0.8"/>
      </g>
     </g>
     <g id="text_9">
      <!-- 1000 -->
      <g transform="translate(20.878125 211.91296) scale(0.1 -0.1)">
       <use xlink:href="#DejaVuSans-31"/>
       <use xlink:href="#DejaVuSans-30" transform="translate(63.623047 0)"/>
       <use xlink:href="#DejaVuSans-30" transform="translate(127.246094 0)"/>
       <use xlink:href="#DejaVuSans-30" transform="translate(190.869141 0)"/>
      </g>
     </g>
    </g>
    <g id="ytick_3">
     <g id="line2d_9">
      <g>
       <use xlink:href="#me0e77e1eaa" x="53.328125" y="170.279016" style="stroke: #000000; stroke-width: 0.8"/>
      </g>
     </g>
     <g id="text_10">
      <!-- 2000 -->
      <g transform="translate(20.878125 174.078234) scale(0.1 -0.1)">
       <use xlink:href="#DejaVuSans-32"/>
       <use xlink:href="#DejaVuSans-30" transform="translate(63.623047 0)"/>
       <use xlink:href="#DejaVuSans-30" transform="translate(127.246094 0)"/>
       <use xlink:href="#DejaVuSans-30" transform="translate(190.869141 0)"/>
      </g>
     </g>
    </g>
    <g id="ytick_4">
     <g id="line2d_10">
      <g>
       <use xlink:href="#me0e77e1eaa" x="53.328125" y="132.444291" style="stroke: #000000; stroke-width: 0.8"/>
      </g>
     </g>
     <g id="text_11">
      <!-- 3000 -->
      <g transform="translate(20.878125 136.243509) scale(0.1 -0.1)">
       <use xlink:href="#DejaVuSans-33"/>
       <use xlink:href="#DejaVuSans-30" transform="translate(63.623047 0)"/>
       <use xlink:href="#DejaVuSans-30" transform="translate(127.246094 0)"/>
       <use xlink:href="#DejaVuSans-30" transform="translate(190.869141 0)"/>
      </g>
     </g>
    </g>
    <g id="ytick_5">
     <g id="line2d_11">
      <g>
       <use xlink:href="#me0e77e1eaa" x="53.328125" y="94.609565" style="stroke: #000000; stroke-width: 0.8"/>
      </g>
     </g>
     <g id="text_12">
      <!-- 4000 -->
      <g transform="translate(20.878125 98.408784) scale(0.1 -0.1)">
       <use xlink:href="#DejaVuSans-34"/>
       <use xlink:href="#DejaVuSans-30" transform="translate(63.623047 0)"/>
       <use xlink:href="#DejaVuSans-30" transform="translate(127.246094 0)"/>
       <use xlink:href="#DejaVuSans-30" transform="translate(190.869141 0)"/>
      </g>
     </g>
    </g>
    <g id="ytick_6">
     <g id="line2d_12">
      <g>
       <use xlink:href="#me0e77e1eaa" x="53.328125" y="56.77484" style="stroke: #000000; stroke-width: 0.8"/>
      </g>
     </g>
     <g id="text_13">
      <!-- 5000 -->
      <g transform="translate(20.878125 60.574059) scale(0.1 -0.1)">
       <use xlink:href="#DejaVuSans-35"/>
       <use xlink:href="#DejaVuSans-30" transform="translate(63.623047 0)"/>
       <use xlink:href="#DejaVuSans-30" transform="translate(127.246094 0)"/>
       <use xlink:href="#DejaVuSans-30" transform="translate(190.869141 0)"/>
      </g>
     </g>
    </g>
    <g id="ytick_7">
     <g id="line2d_13">
      <g>
       <use xlink:href="#me0e77e1eaa" x="53.328125" y="18.940115" style="stroke: #000000; stroke-width: 0.8"/>
      </g>
     </g>
     <g id="text_14">
      <!-- 6000 -->
      <g transform="translate(20.878125 22.739334) scale(0.1 -0.1)">
       <defs>
        <path id="DejaVuSans-36" d="M 2113 2584 
Q 1688 2584 1439 2293 
Q 1191 2003 1191 1497 
Q 1191 994 1439 701 
Q 1688 409 2113 409 
Q 2538 409 2786 701 
Q 3034 994 3034 1497 
Q 3034 2003 2786 2293 
Q 2538 2584 2113 2584 
z
M 3366 4563 
L 3366 3988 
Q 3128 4100 2886 4159 
Q 2644 4219 2406 4219 
Q 1781 4219 1451 3797 
Q 1122 3375 1075 2522 
Q 1259 2794 1537 2939 
Q 1816 3084 2150 3084 
Q 2853 3084 3261 2657 
Q 3669 2231 3669 1497 
Q 3669 778 3244 343 
Q 2819 -91 2113 -91 
Q 1303 -91 875 529 
Q 447 1150 447 2328 
Q 447 3434 972 4092 
Q 1497 4750 2381 4750 
Q 2619 4750 2861 4703 
Q 3103 4656 3366 4563 
z
" transform="scale(0.015625)"/>
       </defs>
       <use xlink:href="#DejaVuSans-36"/>
       <use xlink:href="#DejaVuSans-30" transform="translate(63.623047 0)"/>
       <use xlink:href="#DejaVuSans-30" transform="translate(127.246094 0)"/>
       <use xlink:href="#DejaVuSans-30" transform="translate(190.869141 0)"/>
      </g>
     </g>
    </g>
    <g id="text_15">
     <!-- pulse:0 [counts] -->
     <g transform="translate(14.798438 172.659916) rotate(-90) scale(0.1 -0.1)">
      <defs>
       <path id="DejaVuSans-70" d="M 1159 525 
L 1159 -1331 
L 581 -1331 
L 581 3500 
L 1159 3500 
L 1159 2969 
Q 1341 3281 1617 3432 
Q 1894 3584 2278 3584 
Q 2916 3584 3314 3078 
Q 3713 2572 3713 1747 
Q 3713 922 3314 415 
Q 2916 -91 2278 -91 
Q 1894 -91 1617 61 
Q 1341 213 1159 525 
z
M 3116 1747 
Q 3116 2381 2855 2742 
Q 2594 3103 2138 3103 
Q 1681 3103 1420 2742 
Q 1159 2381 1159 1747 
Q 1159 1113 1420 752 
Q 1681 391 2138 391 
Q 2594 391 2855 752 
Q 3116 1113 3116 1747 
z
" transform="scale(0.015625)"/>
       <path id="DejaVuSans-75" d="M 544 1381 
L 544 3500 
L 1119 3500 
L 1119 1403 
Q 1119 906 1312 657 
Q 1506 409 1894 409 
Q 2359 409 2629 706 
Q 2900 1003 2900 1516 
L 2900 3500 
L 3475 3500 
L 3475 0 
L 2900 0 
L 2900 538 
Q 2691 219 2414 64 
Q 2138 -91 1772 -91 
Q 1169 -91 856 284 
Q 544 659 544 1381 
z
M 1991 3584 
L 1991 3584 
z
" transform="scale(0.015625)"/>
       <path id="DejaVuSans-6c" d="M 603 4863 
L 1178 4863 
L 1178 0 
L 603 0 
L 603 4863 
z
" transform="scale(0.015625)"/>
       <path id="DejaVuSans-3a" d="M 750 794 
L 1409 794 
L 1409 0 
L 750 0 
L 750 794 
z
M 750 3309 
L 1409 3309 
L 1409 2516 
L 750 2516 
L 750 3309 
z
" transform="scale(0.015625)"/>
       <path id="DejaVuSans-63" d="M 3122 3366 
L 3122 2828 
Q 2878 2963 2633 3030 
Q 2388 3097 2138 3097 
Q 1578 3097 1268 2742 
Q 959 2388 959 1747 
Q 959 1106 1268 751 
Q 1578 397 2138 397 
Q 2388 397 2633 464 
Q 2878 531 3122 666 
L 3122 134 
Q 2881 22 2623 -34 
Q 2366 -91 2075 -91 
Q 1284 -91 818 406 
Q 353 903 353 1747 
Q 353 2603 823 3093 
Q 1294 3584 2113 3584 
Q 2378 3584 2631 3529 
Q 2884 3475 3122 3366 
z
" transform="scale(0.015625)"/>
       <path id="DejaVuSans-6f" d="M 1959 3097 
Q 1497 3097 1228 2736 
Q 959 2375 959 1747 
Q 959 1119 1226 758 
Q 1494 397 1959 397 
Q 2419 397 2687 759 
Q 2956 1122 2956 1747 
Q 2956 2369 2687 2733 
Q 2419 3097 1959 3097 
z
M 1959 3584 
Q 2709 3584 3137 3096 
Q 3566 2609 3566 1747 
Q 3566 888 3137 398 
Q 2709 -91 1959 -91 
Q 1206 -91 779 398 
Q 353 888 353 1747 
Q 353 2609 779 3096 
Q 1206 3584 1959 3584 
z
" transform="scale(0.015625)"/>
       <path id="DejaVuSans-6e" d="M 3513 2113 
L 3513 0 
L 2938 0 
L 2938 2094 
Q 2938 2591 2744 2837 
Q 2550 3084 2163 3084 
Q 1697 3084 1428 2787 
Q 1159 2491 1159 1978 
L 1159 0 
L 581 0 
L 581 3500 
L 1159 3500 
L 1159 2956 
Q 1366 3272 1645 3428 
Q 1925 3584 2291 3584 
Q 2894 3584 3203 3211 
Q 3513 2838 3513 2113 
z
" transform="scale(0.015625)"/>
      </defs>
      <use xlink:href="#DejaVuSans-70"/>
      <use xlink:href="#DejaVuSans-75" transform="translate(63.476562 0)"/>
      <use xlink:href="#DejaVuSans-6c" transform="translate(126.855469 0)"/>
      <use xlink:href="#DejaVuSans-73" transform="translate(154.638672 0)"/>
      <use xlink:href="#DejaVuSans-65" transform="translate(206.738281 0)"/>
      <use xlink:href="#DejaVuSans-3a" transform="translate(268.261719 0)"/>
      <use xlink:href="#DejaVuSans-30" transform="translate(301.953125 0)"/>
      <use xlink:href="#DejaVuSans-20" transform="translate(365.576172 0)"/>
      <use xlink:href="#DejaVuSans-5b" transform="translate(397.363281 0)"/>
      <use xlink:href="#DejaVuSans-63" transform="translate(436.376953 0)"/>
      <use xlink:href="#DejaVuSans-6f" transform="translate(491.357422 0)"/>
      <use xlink:href="#DejaVuSans-75" transform="translate(552.539062 0)"/>
      <use xlink:href="#DejaVuSans-6e" transform="translate(615.917969 0)"/>
      <use xlink:href="#DejaVuSans-74" transform="translate(679.296875 0)"/>
      <use xlink:href="#DejaVuSans-73" transform="translate(718.505859 0)"/>
      <use xlink:href="#DejaVuSans-5d" transform="translate(770.605469 0)"/>
     </g>
    </g>
   </g>
   <g id="line2d_14">
    <path d="M 69.604961 234.484544 
L 70.690083 234.484544 
L 70.690083 226.350078 
L 71.775205 226.350078 
L 71.775205 221.734242 
L 72.860328 221.734242 
L 72.860328 209.248783 
L 73.94545 209.248783 
L 73.94545 203.195227 
L 75.030573 203.195227 
L 75.030573 190.142246 
L 76.115695 190.142246 
L 76.115695 187.039799 
L 77.200817 187.039799 
L 77.200817 174.289497 
L 78.28594 174.289497 
L 78.28594 169.900668 
L 79.371062 169.900668 
L 79.371062 159.079937 
L 80.456184 159.079937 
L 80.456184 152.53453 
L 81.541307 152.53453 
L 81.541307 144.589237 
L 82.626429 144.589237 
L 82.626429 139.746393 
L 83.711552 139.746393 
L 83.711552 130.930902 
L 84.796674 130.930902 
L 84.796674 127.298768 
L 85.881796 127.298768 
L 85.881796 125.936718 
L 86.966919 125.936718 
L 86.966919 115.002482 
L 88.052041 115.002482 
L 88.052041 109.175935 
L 89.137163 109.175935 
L 89.137163 108.948926 
L 90.222286 108.948926 
L 90.222286 104.597933 
L 91.307408 104.597933 
L 91.307408 97.901187 
L 92.392531 97.901187 
L 92.392531 95.820277 
L 93.477653 95.820277 
L 93.477653 90.56125 
L 94.562775 90.56125 
L 94.562775 86.739943 
L 95.647898 86.739943 
L 95.647898 78.983824 
L 96.73302 78.983824 
L 96.73302 78.416303 
L 97.818143 78.416303 
L 97.818143 78.227129 
L 98.903265 78.227129 
L 98.903265 77.016418 
L 99.988387 77.016418 
L 99.988387 74.443657 
L 101.07351 74.443657 
L 101.07351 68.692779 
L 102.158632 68.692779 
L 102.158632 70.811523 
L 103.243754 70.811523 
L 103.243754 59.725949 
L 104.328877 59.725949 
L 104.328877 62.487884 
L 105.413999 62.487884 
L 105.413999 65.287653 
L 106.499122 65.287653 
L 106.499122 60.142131 
L 107.584244 60.142131 
L 107.584244 57.039683 
L 108.669366 57.039683 
L 108.669366 54.920939 
L 109.754489 54.920939 
L 109.754489 50.645615 
L 110.839611 50.645615 
L 110.839611 49.359234 
L 111.924733 49.359234 
L 111.924733 52.159004 
L 113.009856 52.159004 
L 113.009856 48.148523 
L 114.094978 48.148523 
L 114.094978 57.228857 
L 115.180101 57.228857 
L 115.180101 52.348177 
L 116.265223 52.348177 
L 116.265223 47.429663 
L 117.350345 47.429663 
L 117.350345 49.775416 
L 118.435468 49.775416 
L 118.435468 48.829548 
L 119.52059 48.829548 
L 119.52059 45.046076 
L 120.605712 45.046076 
L 120.605712 40.770752 
L 121.690835 40.770752 
L 121.690835 46.408126 
L 122.775957 46.408126 
L 122.775957 37.668304 
L 123.86108 37.668304 
L 123.86108 48.489036 
L 124.946202 48.489036 
L 124.946202 40.543743 
L 126.031324 40.543743 
L 126.031324 31.425574 
L 127.116447 31.425574 
L 127.116447 36.873775 
L 128.201569 36.873775 
L 128.201569 35.587394 
L 129.286692 35.587394 
L 129.286692 38.424999 
L 130.371814 38.424999 
L 130.371814 35.246882 
L 131.456936 35.246882 
L 131.456936 41.905793 
L 132.542059 41.905793 
L 132.542059 34.452353 
L 133.627181 34.452353 
L 133.627181 37.970982 
L 134.712303 37.970982 
L 134.712303 39.749214 
L 135.797426 39.749214 
L 135.797426 32.220104 
L 136.882548 32.220104 
L 136.882548 38.652007 
L 137.967671 38.652007 
L 137.967671 35.095543 
L 139.052793 35.095543 
L 139.052793 31.198566 
L 140.137915 31.198566 
L 140.137915 30.555376 
L 141.223038 30.555376 
L 141.223038 36.306254 
L 142.30816 36.306254 
L 142.30816 26.166548 
L 143.393282 26.166548 
L 143.393282 29.571673 
L 144.478405 29.571673 
L 144.478405 34.792865 
L 145.563527 34.792865 
L 145.563527 26.998912 
L 146.64865 26.998912 
L 146.64865 32.74979 
L 147.733772 32.74979 
L 147.733772 33.771327 
L 148.818894 33.771327 
L 148.818894 24.842332 
L 149.904017 24.842332 
L 149.904017 32.144434 
L 150.989139 32.144434 
L 150.989139 27.377259 
L 152.074261 27.377259 
L 152.074261 32.295773 
L 153.159384 32.295773 
L 153.159384 32.447112 
L 154.244506 32.447112 
L 154.244506 35.019873 
L 155.329629 35.019873 
L 155.329629 25.031506 
L 156.414751 25.031506 
L 156.414751 27.906945 
L 157.499873 27.906945 
L 157.499873 29.609508 
L 158.584996 29.609508 
L 158.584996 29.458169 
L 159.670118 29.458169 
L 159.670118 37.441296 
L 160.75524 37.441296 
L 160.75524 33.090302 
L 161.840363 33.090302 
L 161.840363 23.026266 
L 162.925485 23.026266 
L 162.925485 30.517541 
L 164.010608 30.517541 
L 164.010608 32.484947 
L 165.09573 32.484947 
L 165.09573 19.091454 
L 166.180852 19.091454 
L 166.180852 30.593211 
L 167.265975 30.593211 
L 167.265975 31.463409 
L 168.351097 31.463409 
L 168.351097 24.766663 
L 169.43622 24.766663 
L 169.43622 32.1066 
L 170.521342 32.1066 
L 170.521342 26.998912 
L 171.606464 26.998912 
L 171.606464 27.982615 
L 172.691587 27.982615 
L 172.691587 29.609508 
L 173.776709 29.609508 
L 173.776709 26.090878 
L 174.861831 26.090878 
L 174.861831 22.004728 
L 175.946954 22.004728 
L 175.946954 30.02569 
L 177.032076 30.02569 
L 177.032076 26.166548 
L 178.117199 26.166548 
L 178.117199 24.842332 
L 179.202321 24.842332 
L 179.202321 27.642102 
L 180.287443 27.642102 
L 180.287443 26.998912 
L 181.372566 26.998912 
L 181.372566 27.566433 
L 182.457688 27.566433 
L 182.457688 27.755606 
L 183.54281 27.755606 
L 183.54281 28.58797 
L 184.627933 28.58797 
L 184.627933 27.566433 
L 185.713055 27.566433 
L 185.713055 25.977374 
L 186.798178 25.977374 
L 186.798178 23.366778 
L 187.8833 23.366778 
L 187.8833 27.86911 
L 188.968422 27.86911 
L 188.968422 22.837092 
L 190.053545 22.837092 
L 190.053545 25.107175 
L 191.138667 25.107175 
L 191.138667 29.23116 
L 192.223789 29.23116 
L 192.223789 18.561768 
L 193.308912 18.561768 
L 193.308912 27.150251 
L 194.394034 27.150251 
L 194.394034 24.463985 
L 195.479157 24.463985 
L 195.479157 29.117656 
L 196.564279 29.117656 
L 196.564279 25.107175 
L 197.649401 25.107175 
L 197.649401 24.388316 
L 198.734524 24.388316 
L 198.734524 22.799257 
L 199.819646 22.799257 
L 199.819646 24.161307 
L 200.904769 24.161307 
L 200.904769 25.447688 
L 201.989891 25.447688 
L 201.989891 30.631045 
L 203.075013 30.631045 
L 203.075013 28.58797 
L 204.160136 28.58797 
L 204.160136 21.966893 
L 205.245258 21.966893 
L 205.245258 22.231736 
L 206.33038 22.231736 
L 206.33038 22.34524 
L 207.415503 22.34524 
L 207.415503 22.496579 
L 208.500625 22.496579 
L 208.500625 26.280052 
L 209.585748 26.280052 
L 209.585748 28.398796 
L 210.67087 28.398796 
L 210.67087 29.30683 
L 211.755992 29.30683 
L 211.755992 25.447688 
L 212.841115 25.447688 
L 212.841115 27.604267 
L 213.926237 27.604267 
L 213.926237 24.047803 
L 215.011359 24.047803 
L 215.011359 31.160731 
L 216.096482 31.160731 
L 216.096482 20.831851 
L 217.181604 20.831851 
L 217.181604 23.328943 
L 218.266727 23.328943 
L 218.266727 22.874927 
L 219.351849 22.874927 
L 219.351849 26.242217 
L 220.436971 26.242217 
L 220.436971 23.026266 
L 221.522094 23.026266 
L 221.522094 28.323127 
L 222.607216 28.323127 
L 222.607216 25.182845 
L 223.692338 25.182845 
L 223.692338 21.323703 
L 224.777461 21.323703 
L 224.777461 25.447688 
L 225.862583 25.447688 
L 225.862583 28.512301 
L 226.947706 28.512301 
L 226.947706 26.355721 
L 228.032828 26.355721 
L 228.032828 22.383075 
L 229.11795 22.383075 
L 229.11795 26.317887 
L 230.203073 26.317887 
L 230.203073 25.750366 
L 231.288195 25.750366 
L 231.288195 29.268995 
L 232.373317 29.268995 
L 232.373317 25.712531 
L 233.45844 25.712531 
L 233.45844 25.258514 
L 234.543562 25.258514 
L 234.543562 25.7882 
L 235.628685 25.7882 
L 235.628685 26.847573 
L 236.713807 26.847573 
L 236.713807 21.05886 
L 237.798929 21.05886 
L 237.798929 26.090878 
L 238.884052 26.090878 
L 238.884052 31.879591 
L 239.969174 31.879591 
L 239.969174 26.658399 
L 241.054297 26.658399 
L 241.054297 23.518117 
L 242.139419 23.518117 
L 242.139419 25.069341 
L 243.224541 25.069341 
L 243.224541 23.404613 
L 244.309664 23.404613 
L 244.309664 33.960501 
L 245.394786 33.960501 
L 245.394786 23.896464 
L 246.479908 23.896464 
L 246.479908 24.955837 
L 247.565031 24.955837 
L 247.565031 28.890648 
L 248.650153 28.890648 
L 248.650153 31.236401 
L 249.735276 31.236401 
L 249.735276 29.723012 
L 250.820398 29.723012 
L 250.820398 27.263755 
L 251.90552 27.263755 
L 251.90552 25.523357 
L 252.990643 25.523357 
L 252.990643 31.236401 
L 254.075765 31.236401 
L 254.075765 23.669456 
L 255.160887 23.669456 
L 255.160887 34.036171 
L 256.24601 34.036171 
L 256.24601 33.014633 
L 257.331132 33.014633 
L 257.331132 44.327216 
L 258.416255 44.327216 
L 258.416255 51.96983 
L 259.501377 51.96983 
L 259.501377 59.952957 
L 260.586499 59.952957 
L 260.586499 71.416879 
L 261.671622 71.416879 
L 261.671622 75.881377 
L 262.756744 75.881377 
L 262.756744 89.161365 
L 263.841866 89.161365 
L 263.841866 95.706772 
L 264.926989 95.706772 
L 264.926989 108.41924 
L 266.012111 108.41924 
L 266.012111 108.230066 
L 267.097234 108.230066 
L 267.097234 119.883162 
L 268.182356 119.883162 
L 268.182356 122.531593 
L 269.267478 122.531593 
L 269.267478 130.249877 
L 270.352601 130.249877 
L 270.352601 140.12474 
L 271.437723 140.12474 
L 271.437723 145.232428 
L 272.522846 145.232428 
L 272.522846 147.237668 
L 273.607968 147.237668 
L 273.607968 154.199258 
L 274.69309 154.199258 
L 274.69309 160.404152 
L 275.778213 160.404152 
L 275.778213 166.041526 
L 276.863335 166.041526 
L 276.863335 167.252238 
L 277.948457 167.252238 
L 277.948457 172.170752 
L 279.03358 172.170752 
L 279.03358 176.710919 
L 280.118702 176.710919 
L 280.118702 178.413482 
L 281.203825 178.413482 
L 281.203825 182.613136 
L 282.288947 182.613136 
L 282.288947 186.585782 
L 283.374069 186.585782 
L 283.374069 190.671933 
L 284.459192 190.671933 
L 284.459192 193.282529 
L 285.544314 193.282529 
L 285.544314 197.9362 
L 286.629436 197.9362 
L 286.629436 199.752267 
L 287.714559 199.752267 
L 287.714559 203.195227 
L 288.799681 203.195227 
L 288.799681 202.211524 
L 289.884804 202.211524 
L 289.884804 206.676021 
L 290.969926 206.676021 
L 290.969926 205.692318 
L 292.055048 205.692318 
L 292.055048 208.946105 
L 293.140171 208.946105 
L 293.140171 211.594536 
L 294.225293 211.594536 
L 294.225293 213.599776 
L 295.310415 213.599776 
L 295.310415 214.923991 
L 296.395538 214.923991 
L 296.395538 217.685926 
L 297.48066 217.685926 
L 297.48066 218.177778 
L 298.565783 218.177778 
L 298.565783 219.199315 
L 299.650905 219.199315 
L 299.650905 222.907118 
L 300.736027 222.907118 
L 300.736027 223.890821 
L 301.82115 223.890821 
L 301.82115 222.339597 
L 302.906272 222.339597 
L 302.906272 223.777317 
L 303.991394 223.777317 
L 303.991394 225.820392 
L 305.076517 225.820392 
L 305.076517 227.636459 
L 306.161639 227.636459 
L 306.161639 228.12831 
L 307.246762 228.12831 
L 307.246762 230.020047 
L 308.331884 230.020047 
L 308.331884 229.868708 
L 310.502129 229.793038 
L 310.502129 231.117254 
L 311.587251 231.117254 
L 311.587251 232.971155 
L 312.672374 232.971155 
L 312.672374 233.387337 
L 313.757496 233.387337 
L 313.757496 233.917023 
L 315.927741 233.992693 
L 315.927741 234.862891 
L 317.012863 234.862891 
L 317.012863 235.165569 
L 318.097985 235.165569 
L 318.097985 235.01423 
L 319.183108 235.01423 
L 319.183108 236.603289 
L 320.26823 236.603289 
L 320.26823 237.246479 
L 321.353353 237.246479 
L 321.353353 236.45195 
L 322.438475 236.45195 
L 322.438475 237.662661 
L 323.523597 237.662661 
L 323.523597 238.608529 
L 325.693842 238.684199 
L 325.693842 239.17605 
L 326.778964 239.17605 
L 326.778964 239.89491 
L 327.864087 239.89491 
L 327.864087 240.500266 
L 328.949209 240.500266 
L 328.949209 240.273257 
L 330.034332 240.273257 
L 330.034332 241.029952 
L 331.119454 241.029952 
L 331.119454 240.689439 
L 332.204576 240.689439 
L 332.204576 241.559638 
L 333.289699 241.559638 
L 333.289699 241.370464 
L 334.374821 241.370464 
L 334.374821 240.651604 
L 335.459943 240.651604 
L 335.459943 242.505506 
L 336.545066 242.505506 
L 336.545066 241.937985 
L 337.630188 241.937985 
L 337.630188 242.429837 
L 338.715311 242.429837 
L 338.715311 241.824481 
L 339.800433 241.824481 
L 339.800433 241.937985 
L 340.885555 241.937985 
L 340.885555 242.921688 
L 341.970678 242.921688 
L 341.970678 242.69468 
L 343.0558 242.69468 
L 343.0558 243.035192 
L 344.140923 243.035192 
L 344.140923 243.375705 
L 345.226045 243.375705 
L 345.226045 243.527044 
L 347.39629 243.489209 
L 347.39629 244.094564 
L 348.481412 244.094564 
L 348.481412 243.905391 
L 350.651657 243.867556 
L 350.651657 244.05673 
L 351.736779 244.05673 
L 351.736779 243.791887 
L 352.821902 243.791887 
L 352.821902 244.662085 
L 353.907024 244.662085 
L 353.907024 244.018895 
L 354.992146 244.018895 
L 354.992146 244.510746 
L 357.162391 244.548581 
L 357.162391 244.245903 
L 358.247513 244.245903 
L 358.247513 244.851259 
L 359.332636 244.851259 
L 359.332636 244.662085 
L 362.588003 244.662085 
L 362.588003 245.191771 
L 363.673125 245.191771 
L 363.673125 244.851259 
L 366.928492 244.813424 
L 366.928492 244.624251 
L 368.013615 244.624251 
L 368.013615 245.078267 
L 369.098737 245.078267 
L 369.098737 244.964763 
L 370.18386 244.964763 
L 370.18386 245.34311 
L 371.268982 245.34311 
L 371.268982 245.116102 
L 372.354104 245.116102 
L 372.354104 245.34311 
L 374.524349 245.380945 
L 374.524349 245.191771 
L 375.609471 245.191771 
L 375.609471 244.964763 
L 376.694594 244.964763 
L 376.694594 245.267441 
L 377.779716 245.267441 
L 377.779716 245.380945 
L 378.864839 245.380945 
L 378.864839 245.040433 
L 379.949961 245.040433 
L 379.949961 245.532284 
L 382.120206 245.456615 
L 382.120206 245.645788 
L 384.290451 245.683623 
L 384.290451 245.34311 
L 385.375573 245.34311 
L 385.375573 245.532284 
L 388.63094 245.532284 
L 388.63094 245.721458 
L 391.886307 245.683623 
L 391.886307 245.570119 
L 392.97143 245.570119 
L 392.97143 245.683623 
L 395.141674 245.759292 
L 395.141674 245.759292 
" clip-path="url(#p6b2962bcb0)" style="fill: none; stroke: #1f77b4; stroke-width: 1.5; stroke-linecap: square"/>
   </g>
   <g id="patch_3">
    <path d="M 53.328125 257.158895 
L 53.328125 7.2 
" style="fill: none; stroke: #000000; stroke-width: 0.8; stroke-linejoin: miter; stroke-linecap: square"/>
   </g>
   <g id="patch_4">
    <path d="M 411.41851 257.158895 
L 411.41851 7.2 
" style="fill: none; stroke: #000000; stroke-width: 0.8; stroke-linejoin: miter; stroke-linecap: square"/>
   </g>
   <g id="patch_5">
    <path d="M 53.328125 257.158895 
L 411.41851 257.158895 
" style="fill: none; stroke: #000000; stroke-width: 0.8; stroke-linejoin: miter; stroke-linecap: square"/>
   </g>
   <g id="patch_6">
    <path d="M 53.328125 7.2 
L 411.41851 7.2 
" style="fill: none; stroke: #000000; stroke-width: 0.8; stroke-linejoin: miter; stroke-linecap: square"/>
   </g>
  </g>
  <g id="axes_2">
   <g id="patch_7">
    <path d="M 507.109135 257.158895 
L 865.19952 257.158895 
L 865.19952 7.2 
L 507.109135 7.2 
z
" style="fill: #ffffff"/>
   </g>
   <g id="matplotlib.axis_3">
    <g id="xtick_7">
     <g id="line2d_15">
      <g>
       <use xlink:href="#m5e84f5cdf8" x="520.105576" y="257.158895" style="stroke: #000000; stroke-width: 0.8"/>
      </g>
     </g>
     <g id="text_16">
      <!-- 0.0 -->
      <g transform="translate(512.154013 271.757332) scale(0.1 -0.1)">
       <defs>
        <path id="DejaVuSans-2e" d="M 684 794 
L 1344 794 
L 1344 0 
L 684 0 
L 684 794 
z
" transform="scale(0.015625)"/>
       </defs>
       <use xlink:href="#DejaVuSans-30"/>
       <use xlink:href="#DejaVuSans-2e" transform="translate(63.623047 0)"/>
       <use xlink:href="#DejaVuSans-30" transform="translate(95.410156 0)"/>
      </g>
     </g>
    </g>
    <g id="xtick_8">
     <g id="line2d_16">
      <g>
       <use xlink:href="#m5e84f5cdf8" x="561.417051" y="257.158895" style="stroke: #000000; stroke-width: 0.8"/>
      </g>
     </g>
     <g id="text_17">
      <!-- 2.5 -->
      <g transform="translate(553.465488 271.757332) scale(0.1 -0.1)">
       <use xlink:href="#DejaVuSans-32"/>
       <use xlink:href="#DejaVuSans-2e" transform="translate(63.623047 0)"/>
       <use xlink:href="#DejaVuSans-35" transform="translate(95.410156 0)"/>
      </g>
     </g>
    </g>
    <g id="xtick_9">
     <g id="line2d_17">
      <g>
       <use xlink:href="#m5e84f5cdf8" x="602.728526" y="257.158895" style="stroke: #000000; stroke-width: 0.8"/>
      </g>
     </g>
     <g id="text_18">
      <!-- 5.0 -->
      <g transform="translate(594.776963 271.757332) scale(0.1 -0.1)">
       <use xlink:href="#DejaVuSans-35"/>
       <use xlink:href="#DejaVuSans-2e" transform="translate(63.623047 0)"/>
       <use xlink:href="#DejaVuSans-30" transform="translate(95.410156 0)"/>
      </g>
     </g>
    </g>
    <g id="xtick_10">
     <g id="line2d_18">
      <g>
       <use xlink:href="#m5e84f5cdf8" x="644.040001" y="257.158895" style="stroke: #000000; stroke-width: 0.8"/>
      </g>
     </g>
     <g id="text_19">
      <!-- 7.5 -->
      <g transform="translate(636.088438 271.757332) scale(0.1 -0.1)">
       <defs>
        <path id="DejaVuSans-37" d="M 525 4666 
L 3525 4666 
L 3525 4397 
L 1831 0 
L 1172 0 
L 2766 4134 
L 525 4134 
L 525 4666 
z
" transform="scale(0.015625)"/>
       </defs>
       <use xlink:href="#DejaVuSans-37"/>
       <use xlink:href="#DejaVuSans-2e" transform="translate(63.623047 0)"/>
       <use xlink:href="#DejaVuSans-35" transform="translate(95.410156 0)"/>
      </g>
     </g>
    </g>
    <g id="xtick_11">
     <g id="line2d_19">
      <g>
       <use xlink:href="#m5e84f5cdf8" x="685.351476" y="257.158895" style="stroke: #000000; stroke-width: 0.8"/>
      </g>
     </g>
     <g id="text_20">
      <!-- 10.0 -->
      <g transform="translate(674.218663 271.757332) scale(0.1 -0.1)">
       <use xlink:href="#DejaVuSans-31"/>
       <use xlink:href="#DejaVuSans-30" transform="translate(63.623047 0)"/>
       <use xlink:href="#DejaVuSans-2e" transform="translate(127.246094 0)"/>
       <use xlink:href="#DejaVuSans-30" transform="translate(159.033203 0)"/>
      </g>
     </g>
    </g>
    <g id="xtick_12">
     <g id="line2d_20">
      <g>
       <use xlink:href="#m5e84f5cdf8" x="726.662951" y="257.158895" style="stroke: #000000; stroke-width: 0.8"/>
      </g>
     </g>
     <g id="text_21">
      <!-- 12.5 -->
      <g transform="translate(715.530138 271.757332) scale(0.1 -0.1)">
       <use xlink:href="#DejaVuSans-31"/>
       <use xlink:href="#DejaVuSans-32" transform="translate(63.623047 0)"/>
       <use xlink:href="#DejaVuSans-2e" transform="translate(127.246094 0)"/>
       <use xlink:href="#DejaVuSans-35" transform="translate(159.033203 0)"/>
      </g>
     </g>
    </g>
    <g id="xtick_13">
     <g id="line2d_21">
      <g>
       <use xlink:href="#m5e84f5cdf8" x="767.974426" y="257.158895" style="stroke: #000000; stroke-width: 0.8"/>
      </g>
     </g>
     <g id="text_22">
      <!-- 15.0 -->
      <g transform="translate(756.841613 271.757332) scale(0.1 -0.1)">
       <use xlink:href="#DejaVuSans-31"/>
       <use xlink:href="#DejaVuSans-35" transform="translate(63.623047 0)"/>
       <use xlink:href="#DejaVuSans-2e" transform="translate(127.246094 0)"/>
       <use xlink:href="#DejaVuSans-30" transform="translate(159.033203 0)"/>
      </g>
     </g>
    </g>
    <g id="xtick_14">
     <g id="line2d_22">
      <g>
       <use xlink:href="#m5e84f5cdf8" x="809.285901" y="257.158895" style="stroke: #000000; stroke-width: 0.8"/>
      </g>
     </g>
     <g id="text_23">
      <!-- 17.5 -->
      <g transform="translate(798.153088 271.757332) scale(0.1 -0.1)">
       <use xlink:href="#DejaVuSans-31"/>
       <use xlink:href="#DejaVuSans-37" transform="translate(63.623047 0)"/>
       <use xlink:href="#DejaVuSans-2e" transform="translate(127.246094 0)"/>
       <use xlink:href="#DejaVuSans-35" transform="translate(159.033203 0)"/>
      </g>
     </g>
    </g>
    <g id="xtick_15">
     <g id="line2d_23">
      <g>
       <use xlink:href="#m5e84f5cdf8" x="850.597376" y="257.158895" style="stroke: #000000; stroke-width: 0.8"/>
      </g>
     </g>
     <g id="text_24">
      <!-- 20.0 -->
      <g transform="translate(839.464563 271.757332) scale(0.1 -0.1)">
       <use xlink:href="#DejaVuSans-32"/>
       <use xlink:href="#DejaVuSans-30" transform="translate(63.623047 0)"/>
       <use xlink:href="#DejaVuSans-2e" transform="translate(127.246094 0)"/>
       <use xlink:href="#DejaVuSans-30" transform="translate(159.033203 0)"/>
      </g>
     </g>
    </g>
    <g id="text_25">
     <!-- wavelength [Å] -->
     <g transform="translate(648.116827 287.119832) scale(0.1 -0.1)">
      <defs>
       <path id="DejaVuSans-77" d="M 269 3500 
L 844 3500 
L 1563 769 
L 2278 3500 
L 2956 3500 
L 3675 769 
L 4391 3500 
L 4966 3500 
L 4050 0 
L 3372 0 
L 2619 2869 
L 1863 0 
L 1184 0 
L 269 3500 
z
" transform="scale(0.015625)"/>
       <path id="DejaVuSans-61" d="M 2194 1759 
Q 1497 1759 1228 1600 
Q 959 1441 959 1056 
Q 959 750 1161 570 
Q 1363 391 1709 391 
Q 2188 391 2477 730 
Q 2766 1069 2766 1631 
L 2766 1759 
L 2194 1759 
z
M 3341 1997 
L 3341 0 
L 2766 0 
L 2766 531 
Q 2569 213 2275 61 
Q 1981 -91 1556 -91 
Q 1019 -91 701 211 
Q 384 513 384 1019 
Q 384 1609 779 1909 
Q 1175 2209 1959 2209 
L 2766 2209 
L 2766 2266 
Q 2766 2663 2505 2880 
Q 2244 3097 1772 3097 
Q 1472 3097 1187 3025 
Q 903 2953 641 2809 
L 641 3341 
Q 956 3463 1253 3523 
Q 1550 3584 1831 3584 
Q 2591 3584 2966 3190 
Q 3341 2797 3341 1997 
z
" transform="scale(0.015625)"/>
       <path id="DejaVuSans-76" d="M 191 3500 
L 800 3500 
L 1894 563 
L 2988 3500 
L 3597 3500 
L 2284 0 
L 1503 0 
L 191 3500 
z
" transform="scale(0.015625)"/>
       <path id="DejaVuSans-67" d="M 2906 1791 
Q 2906 2416 2648 2759 
Q 2391 3103 1925 3103 
Q 1463 3103 1205 2759 
Q 947 2416 947 1791 
Q 947 1169 1205 825 
Q 1463 481 1925 481 
Q 2391 481 2648 825 
Q 2906 1169 2906 1791 
z
M 3481 434 
Q 3481 -459 3084 -895 
Q 2688 -1331 1869 -1331 
Q 1566 -1331 1297 -1286 
Q 1028 -1241 775 -1147 
L 775 -588 
Q 1028 -725 1275 -790 
Q 1522 -856 1778 -856 
Q 2344 -856 2625 -561 
Q 2906 -266 2906 331 
L 2906 616 
Q 2728 306 2450 153 
Q 2172 0 1784 0 
Q 1141 0 747 490 
Q 353 981 353 1791 
Q 353 2603 747 3093 
Q 1141 3584 1784 3584 
Q 2172 3584 2450 3431 
Q 2728 3278 2906 2969 
L 2906 3500 
L 3481 3500 
L 3481 434 
z
" transform="scale(0.015625)"/>
       <path id="DejaVuSans-c5" d="M 2663 5081 
Q 2663 5278 2523 5417 
Q 2384 5556 2188 5556 
Q 1988 5556 1852 5420 
Q 1716 5284 1716 5081 
Q 1716 4884 1853 4746 
Q 1991 4609 2188 4609 
Q 2384 4609 2523 4746 
Q 2663 4884 2663 5081 
z
M 2188 4044 
L 1338 1722 
L 3041 1722 
L 2188 4044 
z
M 1716 4366 
Q 1525 4494 1428 4673 
Q 1331 4853 1331 5081 
Q 1331 5441 1579 5691 
Q 1828 5941 2188 5941 
Q 2544 5941 2795 5689 
Q 3047 5438 3047 5081 
Q 3047 4863 2948 4678 
Q 2850 4494 2663 4366 
L 4325 0 
L 3669 0 
L 3244 1197 
L 1141 1197 
L 716 0 
L 50 0 
L 1716 4366 
z
" transform="scale(0.015625)"/>
      </defs>
      <use xlink:href="#DejaVuSans-77"/>
      <use xlink:href="#DejaVuSans-61" transform="translate(81.787109 0)"/>
      <use xlink:href="#DejaVuSans-76" transform="translate(143.066406 0)"/>
      <use xlink:href="#DejaVuSans-65" transform="translate(202.246094 0)"/>
      <use xlink:href="#DejaVuSans-6c" transform="translate(263.769531 0)"/>
      <use xlink:href="#DejaVuSans-65" transform="translate(291.552734 0)"/>
      <use xlink:href="#DejaVuSans-6e" transform="translate(353.076172 0)"/>
      <use xlink:href="#DejaVuSans-67" transform="translate(416.455078 0)"/>
      <use xlink:href="#DejaVuSans-74" transform="translate(479.931641 0)"/>
      <use xlink:href="#DejaVuSans-68" transform="translate(519.140625 0)"/>
      <use xlink:href="#DejaVuSans-20" transform="translate(582.519531 0)"/>
      <use xlink:href="#DejaVuSans-5b" transform="translate(614.306641 0)"/>
      <use xlink:href="#DejaVuSans-c5" transform="translate(653.320312 0)"/>
      <use xlink:href="#DejaVuSans-5d" transform="translate(721.728516 0)"/>
     </g>
    </g>
   </g>
   <g id="matplotlib.axis_4">
    <g id="ytick_8">
     <g id="line2d_24">
      <g>
       <use xlink:href="#me0e77e1eaa" x="507.109135" y="245.861176" style="stroke: #000000; stroke-width: 0.8"/>
      </g>
     </g>
     <g id="text_26">
      <!-- 0 -->
      <g transform="translate(493.746635 249.660395) scale(0.1 -0.1)">
       <use xlink:href="#DejaVuSans-30"/>
      </g>
     </g>
    </g>
    <g id="ytick_9">
     <g id="line2d_25">
      <g>
       <use xlink:href="#me0e77e1eaa" x="507.109135" y="192.486967" style="stroke: #000000; stroke-width: 0.8"/>
      </g>
     </g>
     <g id="text_27">
      <!-- 5000 -->
      <g transform="translate(474.659135 196.286185) scale(0.1 -0.1)">
       <use xlink:href="#DejaVuSans-35"/>
       <use xlink:href="#DejaVuSans-30" transform="translate(63.623047 0)"/>
       <use xlink:href="#DejaVuSans-30" transform="translate(127.246094 0)"/>
       <use xlink:href="#DejaVuSans-30" transform="translate(190.869141 0)"/>
      </g>
     </g>
    </g>
    <g id="ytick_10">
     <g id="line2d_26">
      <g>
       <use xlink:href="#me0e77e1eaa" x="507.109135" y="139.112757" style="stroke: #000000; stroke-width: 0.8"/>
      </g>
     </g>
     <g id="text_28">
      <!-- 10000 -->
      <g transform="translate(468.296635 142.911976) scale(0.1 -0.1)">
       <use xlink:href="#DejaVuSans-31"/>
       <use xlink:href="#DejaVuSans-30" transform="translate(63.623047 0)"/>
       <use xlink:href="#DejaVuSans-30" transform="translate(127.246094 0)"/>
       <use xlink:href="#DejaVuSans-30" transform="translate(190.869141 0)"/>
       <use xlink:href="#DejaVuSans-30" transform="translate(254.492188 0)"/>
      </g>
     </g>
    </g>
    <g id="ytick_11">
     <g id="line2d_27">
      <g>
       <use xlink:href="#me0e77e1eaa" x="507.109135" y="85.738548" style="stroke: #000000; stroke-width: 0.8"/>
      </g>
     </g>
     <g id="text_29">
      <!-- 15000 -->
      <g transform="translate(468.296635 89.537767) scale(0.1 -0.1)">
       <use xlink:href="#DejaVuSans-31"/>
       <use xlink:href="#DejaVuSans-35" transform="translate(63.623047 0)"/>
       <use xlink:href="#DejaVuSans-30" transform="translate(127.246094 0)"/>
       <use xlink:href="#DejaVuSans-30" transform="translate(190.869141 0)"/>
       <use xlink:href="#DejaVuSans-30" transform="translate(254.492188 0)"/>
      </g>
     </g>
    </g>
    <g id="ytick_12">
     <g id="line2d_28">
      <g>
       <use xlink:href="#me0e77e1eaa" x="507.109135" y="32.364339" style="stroke: #000000; stroke-width: 0.8"/>
      </g>
     </g>
     <g id="text_30">
      <!-- 20000 -->
      <g transform="translate(468.296635 36.163557) scale(0.1 -0.1)">
       <use xlink:href="#DejaVuSans-32"/>
       <use xlink:href="#DejaVuSans-30" transform="translate(63.623047 0)"/>
       <use xlink:href="#DejaVuSans-30" transform="translate(127.246094 0)"/>
       <use xlink:href="#DejaVuSans-30" transform="translate(190.869141 0)"/>
       <use xlink:href="#DejaVuSans-30" transform="translate(254.492188 0)"/>
      </g>
     </g>
    </g>
    <g id="text_31">
     <!-- pulse:0 [counts] -->
     <g transform="translate(462.216947 172.659916) rotate(-90) scale(0.1 -0.1)">
      <use xlink:href="#DejaVuSans-70"/>
      <use xlink:href="#DejaVuSans-75" transform="translate(63.476562 0)"/>
      <use xlink:href="#DejaVuSans-6c" transform="translate(126.855469 0)"/>
      <use xlink:href="#DejaVuSans-73" transform="translate(154.638672 0)"/>
      <use xlink:href="#DejaVuSans-65" transform="translate(206.738281 0)"/>
      <use xlink:href="#DejaVuSans-3a" transform="translate(268.261719 0)"/>
      <use xlink:href="#DejaVuSans-30" transform="translate(301.953125 0)"/>
      <use xlink:href="#DejaVuSans-20" transform="translate(365.576172 0)"/>
      <use xlink:href="#DejaVuSans-5b" transform="translate(397.363281 0)"/>
      <use xlink:href="#DejaVuSans-63" transform="translate(436.376953 0)"/>
      <use xlink:href="#DejaVuSans-6f" transform="translate(491.357422 0)"/>
      <use xlink:href="#DejaVuSans-75" transform="translate(552.539062 0)"/>
      <use xlink:href="#DejaVuSans-6e" transform="translate(615.917969 0)"/>
      <use xlink:href="#DejaVuSans-74" transform="translate(679.296875 0)"/>
      <use xlink:href="#DejaVuSans-73" transform="translate(718.505859 0)"/>
      <use xlink:href="#DejaVuSans-5d" transform="translate(770.605469 0)"/>
     </g>
    </g>
   </g>
   <g id="line2d_29">
    <path d="M 523.385971 154.932873 
L 524.471093 154.932873 
L 524.471093 147.802079 
L 525.556215 147.802079 
L 525.556215 137.778402 
L 526.641338 137.778402 
L 526.641338 139.379628 
L 527.72646 139.379628 
L 527.72646 144.887847 
L 528.811583 144.887847 
L 528.811583 147.567232 
L 529.896705 147.567232 
L 529.896705 141.098278 
L 530.981827 141.098278 
L 530.981827 123.281967 
L 532.06695 123.281967 
L 532.06695 100.843449 
L 533.152072 100.843449 
L 533.152072 81.735482 
L 534.237194 81.735482 
L 534.237194 60.225676 
L 535.322317 60.225676 
L 535.322317 36.655625 
L 536.407439 36.655625 
L 536.407439 22.500785 
L 537.492562 22.500785 
L 537.492562 19.052811 
L 538.577684 19.052811 
L 538.577684 18.561768 
L 539.662806 18.561768 
L 539.662806 21.379926 
L 540.747929 21.379926 
L 540.747929 31.819922 
L 541.833051 31.819922 
L 541.833051 36.943846 
L 542.918173 36.943846 
L 542.918173 46.679301 
L 544.003296 46.679301 
L 544.003296 60.247025 
L 545.088418 60.247025 
L 545.088418 68.157083 
L 546.173541 68.157083 
L 546.173541 71.530333 
L 547.258663 71.530333 
L 547.258663 87.446523 
L 549.428908 87.542596 
L 549.428908 90.841122 
L 550.51403 90.841122 
L 550.51403 96.199893 
L 551.599153 96.199893 
L 551.599153 90.403454 
L 553.769397 90.32873 
L 553.769397 90.670325 
L 554.85452 90.670325 
L 554.85452 85.898671 
L 555.939642 85.898671 
L 555.939642 77.16665 
L 557.024764 77.16665 
L 557.024764 69.694261 
L 558.109887 69.694261 
L 558.109887 56.115862 
L 559.195009 56.115862 
L 559.195009 48.099055 
L 560.280132 48.099055 
L 560.280132 41.790224 
L 561.365254 41.790224 
L 561.365254 33.730718 
L 562.450376 33.730718 
L 562.450376 32.225566 
L 563.535499 32.225566 
L 563.535499 39.729979 
L 564.620621 39.729979 
L 564.620621 47.394516 
L 565.705743 47.394516 
L 565.705743 56.873775 
L 566.790866 56.873775 
L 566.790866 71.114015 
L 567.875988 71.114015 
L 567.875988 77.198674 
L 568.961111 77.198674 
L 568.961111 85.535726 
L 570.046233 85.535726 
L 570.046233 94.876213 
L 571.131355 94.876213 
L 571.131355 103.11719 
L 572.216478 103.11719 
L 572.216478 111.347494 
L 573.3016 111.347494 
L 573.3016 117.026509 
L 574.386722 117.026509 
L 574.386722 123.506138 
L 575.471845 123.506138 
L 575.471845 127.541229 
L 576.556967 127.541229 
L 576.556967 136.486746 
L 577.64209 136.486746 
L 577.64209 139.315579 
L 578.727212 139.315579 
L 578.727212 143.959136 
L 579.812334 143.959136 
L 579.812334 152.861954 
L 580.897457 152.861954 
L 580.897457 155.370541 
L 581.982579 155.370541 
L 581.982579 158.893239 
L 583.067702 158.893239 
L 583.067702 165.57569 
L 584.152824 165.57569 
L 584.152824 167.027469 
L 585.237946 167.027469 
L 585.237946 170.827713 
L 586.323069 170.827713 
L 586.323069 176.453354 
L 587.408191 176.453354 
L 587.408191 177.979857 
L 588.493313 177.979857 
L 588.493313 179.912003 
L 589.578436 179.912003 
L 589.578436 186.082062 
L 590.663558 186.082062 
L 590.663558 185.847215 
L 591.748681 185.847215 
L 591.748681 189.359238 
L 592.833803 189.359238 
L 592.833803 194.589911 
L 593.918925 194.589911 
L 593.918925 194.846107 
L 595.004048 194.846107 
L 595.004048 196.799603 
L 596.08917 196.799603 
L 596.08917 200.418374 
L 597.174292 200.418374 
L 597.174292 201.496533 
L 598.259415 201.496533 
L 598.259415 202.798864 
L 599.344537 202.798864 
L 599.344537 204.891133 
L 600.42966 204.891133 
L 600.42966 207.250273 
L 601.514782 207.250273 
L 601.514782 207.954813 
L 602.599904 207.954813 
L 602.599904 210.15383 
L 603.685027 210.15383 
L 603.685027 211.552234 
L 604.770149 211.552234 
L 604.770149 212.897264 
L 605.855271 212.897264 
L 605.855271 216.227815 
L 606.940394 216.227815 
L 606.940394 215.747447 
L 608.025516 215.747447 
L 608.025516 216.558735 
L 609.110639 216.558735 
L 609.110639 220.113457 
L 610.195761 220.113457 
L 610.195761 219.131372 
L 611.280883 219.131372 
L 611.280883 222.152352 
L 613.451128 222.259101 
L 613.451128 222.98499 
L 614.53625 222.98499 
L 614.53625 223.967075 
L 615.621373 223.967075 
L 615.621373 225.32278 
L 616.706495 225.32278 
L 616.706495 225.995295 
L 617.791618 225.995295 
L 617.791618 226.859958 
L 618.87674 226.859958 
L 618.87674 227.70327 
L 619.961862 227.70327 
L 619.961862 228.38646 
L 621.046985 228.38646 
L 621.046985 227.980816 
L 622.132107 227.980816 
L 622.132107 229.646091 
L 623.21723 229.646091 
L 623.21723 230.275907 
L 624.302352 230.275907 
L 624.302352 230.756275 
L 625.387474 230.756275 
L 625.387474 231.749035 
L 627.557719 231.823759 
L 627.557719 231.546213 
L 628.642841 231.546213 
L 628.642841 233.371611 
L 629.727964 233.371611 
L 629.727964 232.912593 
L 630.813086 232.912593 
L 630.813086 233.574433 
L 631.898209 233.574433 
L 631.898209 234.663267 
L 632.983331 234.663267 
L 632.983331 234.300322 
L 634.068453 234.300322 
L 634.068453 234.834064 
L 635.153576 234.834064 
L 635.153576 235.890874 
L 637.32382 235.826825 
L 637.32382 235.666702 
L 638.408943 235.666702 
L 638.408943 236.264493 
L 639.494065 236.264493 
L 639.494065 236.712837 
L 641.66431 236.627438 
L 641.66431 237.214554 
L 642.749432 237.214554 
L 642.749432 236.723511 
L 643.834555 236.723511 
L 643.834555 238.004492 
L 644.919677 238.004492 
L 644.919677 238.591609 
L 646.004799 238.591609 
L 646.004799 238.986578 
L 647.089922 238.986578 
L 647.089922 238.666333 
L 648.175044 238.666333 
L 648.175044 239.21075 
L 649.260167 239.21075 
L 649.260167 239.007928 
L 651.430411 238.901179 
L 651.430411 240.256884 
L 652.515534 240.256884 
L 652.515534 239.744492 
L 654.685779 239.712467 
L 654.685779 240.267559 
L 655.770901 240.267559 
L 655.770901 240.427682 
L 657.941146 240.438356 
L 657.941146 240.876025 
L 660.11139 240.844 
L 660.11139 240.737252 
L 661.196513 240.737252 
L 661.196513 240.982773 
L 663.366758 240.897375 
L 663.366758 241.537865 
L 664.45188 241.537865 
L 664.45188 241.121546 
L 665.537002 241.121546 
L 665.537002 241.954184 
L 667.707247 241.975534 
L 667.707247 242.071607 
L 668.792369 242.071607 
L 668.792369 241.932834 
L 669.877492 241.932834 
L 669.877492 242.18903 
L 670.962614 242.18903 
L 670.962614 242.349153 
L 674.217981 242.423877 
L 674.217981 242.680073 
L 679.643593 242.776147 
L 679.643593 242.850871 
L 680.728716 242.850871 
L 680.728716 243.363263 
L 681.813838 243.363263 
L 681.813838 243.160441 
L 683.984083 243.22449 
L 683.984083 243.427312 
L 685.069205 243.427312 
L 685.069205 243.171116 
L 686.154327 243.171116 
L 686.154327 243.288539 
L 688.324572 243.213815 
L 688.324572 243.523386 
L 689.409695 243.523386 
L 689.409695 243.704858 
L 690.494817 243.704858 
L 690.494817 243.502036 
L 693.750184 243.480686 
L 693.750184 243.971729 
L 697.005551 243.88633 
L 697.005551 243.779582 
L 699.175796 243.758232 
L 699.175796 243.92903 
L 701.346041 244.014428 
L 701.346041 244.110502 
L 702.431163 244.110502 
L 702.431163 244.366698 
L 704.601408 244.345349 
L 704.601408 244.046453 
L 705.68653 244.046453 
L 705.68653 244.537496 
L 706.771653 244.537496 
L 706.771653 244.398723 
L 707.856775 244.398723 
L 707.856775 244.21725 
L 710.02702 244.21725 
L 710.02702 244.345349 
L 713.282387 244.334674 
L 713.282387 244.654919 
L 714.367509 244.654919 
L 714.367509 244.452097 
L 715.452632 244.452097 
L 715.452632 244.772342 
L 716.537754 244.772342 
L 716.537754 244.622894 
L 718.707999 244.61222 
L 718.707999 244.836391 
L 719.793121 244.836391 
L 719.793121 244.494796 
L 721.963366 244.548171 
L 721.963366 244.622894 
L 723.048488 244.622894 
L 723.048488 244.94314 
L 724.133611 244.94314 
L 724.133611 244.697618 
L 728.4741 244.772342 
L 728.4741 244.92179 
L 733.899712 244.985839 
L 733.899712 245.124612 
L 737.155079 245.156637 
L 737.155079 244.953815 
L 738.240202 244.953815 
L 738.240202 245.124612 
L 740.410446 245.113937 
L 740.410446 245.25271 
L 741.495569 245.25271 
L 741.495569 244.953815 
L 742.580691 244.953815 
L 742.580691 245.113937 
L 749.091425 245.156637 
L 749.091425 245.370133 
L 750.176548 245.370133 
L 750.176548 245.220686 
L 751.26167 245.220686 
L 751.26167 245.434182 
L 756.687282 245.444857 
L 756.687282 245.220686 
L 757.772404 245.220686 
L 757.772404 245.423508 
L 761.027772 245.327434 
L 761.027772 245.295409 
L 763.198016 245.338109 
L 763.198016 245.476882 
L 770.793873 245.519581 
L 770.793873 245.284735 
L 771.878995 245.284735 
L 771.878995 245.466207 
L 781.645097 245.444857 
L 781.645097 245.615655 
L 783.815342 245.572955 
L 783.815342 245.498231 
L 788.155831 245.58363 
L 788.155831 245.637004 
L 789.240953 245.637004 
L 789.240953 245.466207 
L 790.326076 245.466207 
L 790.326076 245.58363 
L 792.496321 245.60498 
L 792.496321 245.701053 
L 793.581443 245.701053 
L 793.581443 245.519581 
L 794.666565 245.519581 
L 794.666565 245.647679 
L 799.007055 245.615655 
L 799.007055 245.508906 
L 800.092177 245.508906 
L 800.092177 245.62633 
L 814.198768 245.658354 
L 814.198768 245.754428 
L 816.369013 245.722403 
L 816.369013 245.637004 
L 822.879747 245.701053 
L 822.879747 245.754428 
L 848.922684 245.775777 
L 848.922684 245.775777 
" clip-path="url(#p4364cb7d47)" style="fill: none; stroke: #1f77b4; stroke-width: 1.5; stroke-linecap: square"/>
   </g>
   <g id="patch_8">
    <path d="M 507.109135 257.158895 
L 507.109135 7.2 
" style="fill: none; stroke: #000000; stroke-width: 0.8; stroke-linejoin: miter; stroke-linecap: square"/>
   </g>
   <g id="patch_9">
    <path d="M 865.19952 257.158895 
L 865.19952 7.2 
" style="fill: none; stroke: #000000; stroke-width: 0.8; stroke-linejoin: miter; stroke-linecap: square"/>
   </g>
   <g id="patch_10">
    <path d="M 507.109135 257.158895 
L 865.19952 257.158895 
" style="fill: none; stroke: #000000; stroke-width: 0.8; stroke-linejoin: miter; stroke-linecap: square"/>
   </g>
   <g id="patch_11">
    <path d="M 507.109135 7.2 
L 865.19952 7.2 
" style="fill: none; stroke: #000000; stroke-width: 0.8; stroke-linejoin: miter; stroke-linecap: square"/>
   </g>
  </g>
 </g>
 <defs>
  <clipPath id="p6b2962bcb0">
   <rect x="53.328125" y="7.2" width="358.090385" height="249.958895"/>
  </clipPath>
  <clipPath id="p4364cb7d47">
   <rect x="507.109135" y="7.2" width="358.090385" height="249.958895"/>
  </clipPath>
 </defs>
</svg>
