<?xml version="1.0" encoding="utf-8" standalone="no"?>
<!DOCTYPE svg PUBLIC "-//W3C//DTD SVG 1.1//EN"
  "http://www.w3.org/Graphics/SVG/1.1/DTD/svg11.dtd">
<svg xmlns:xlink="http://www.w3.org/1999/xlink" width="872.39952pt" height="296.39952pt" viewBox="0 0 872.39952 296.39952" xmlns="http://www.w3.org/2000/svg" version="1.1">
 <metadata>
  <rdf:RDF xmlns:dc="http://purl.org/dc/elements/1.1/" xmlns:cc="http://creativecommons.org/ns#" xmlns:rdf="http://www.w3.org/1999/02/22-rdf-syntax-ns#">
   <cc:Work>
    <dc:type rdf:resource="http://purl.org/dc/dcmitype/StillImage"/>
    <dc:date>2025-04-29T09:31:48.720038</dc:date>
    <dc:format>image/svg+xml</dc:format>
    <dc:creator>
     <cc:Agent>
      <dc:title>Matplotlib v3.10.1, https://matplotlib.org/</dc:title>
     </cc:Agent>
    </dc:creator>
   </cc:Work>
  </rdf:RDF>
 </metadata>
 <defs>
  <style type="text/css">*{stroke-linejoin: round; stroke-linecap: butt}</style>
 </defs>
 <g id="figure_1">
  <g id="patch_1">
   <path d="M 0 296.39952 
L 872.39952 296.39952 
L 872.39952 0 
L 0 0 
z
" style="fill: #ffffff"/>
  </g>
  <g id="axes_1">
   <g id="patch_2">
    <path d="M 53.328125 257.158895 
L 428.69851 257.158895 
L 428.69851 7.2 
L 53.328125 7.2 
z
" style="fill: #ffffff"/>
   </g>
   <g id="matplotlib.axis_1">
    <g id="xtick_1">
     <g id="line2d_1">
      <defs>
       <path id="m1648066223" d="M 0 0 
L 0 3.5 
" style="stroke: #000000; stroke-width: 0.8"/>
      </defs>
      <g>
       <use xlink:href="#m1648066223" x="69.53207" y="257.158895" style="stroke: #000000; stroke-width: 0.8"/>
      </g>
     </g>
     <g id="text_1">
      <!-- 0 -->
      <g transform="translate(66.35082 271.757332) scale(0.1 -0.1)">
       <defs>
        <path id="DejaVuSans-30" d="M 2034 4250 
Q 1547 4250 1301 3770 
Q 1056 3291 1056 2328 
Q 1056 1369 1301 889 
Q 1547 409 2034 409 
Q 2525 409 2770 889 
Q 3016 1369 3016 2328 
Q 3016 3291 2770 3770 
Q 2525 4250 2034 4250 
z
M 2034 4750 
Q 2819 4750 3233 4129 
Q 3647 3509 3647 2328 
Q 3647 1150 3233 529 
Q 2819 -91 2034 -91 
Q 1250 -91 836 529 
Q 422 1150 422 2328 
Q 422 3509 836 4129 
Q 1250 4750 2034 4750 
z
" transform="scale(0.015625)"/>
       </defs>
       <use xlink:href="#DejaVuSans-30"/>
      </g>
     </g>
    </g>
    <g id="xtick_2">
     <g id="line2d_2">
      <g>
       <use xlink:href="#m1648066223" x="138.159125" y="257.158895" style="stroke: #000000; stroke-width: 0.8"/>
      </g>
     </g>
     <g id="text_2">
      <!-- 1000 -->
      <g transform="translate(125.434125 271.757332) scale(0.1 -0.1)">
       <defs>
        <path id="DejaVuSans-31" d="M 794 531 
L 1825 531 
L 1825 4091 
L 703 3866 
L 703 4441 
L 1819 4666 
L 2450 4666 
L 2450 531 
L 3481 531 
L 3481 0 
L 794 0 
L 794 531 
z
" transform="scale(0.015625)"/>
       </defs>
       <use xlink:href="#DejaVuSans-31"/>
       <use xlink:href="#DejaVuSans-30" transform="translate(63.623047 0)"/>
       <use xlink:href="#DejaVuSans-30" transform="translate(127.246094 0)"/>
       <use xlink:href="#DejaVuSans-30" transform="translate(190.869141 0)"/>
      </g>
     </g>
    </g>
    <g id="xtick_3">
     <g id="line2d_3">
      <g>
       <use xlink:href="#m1648066223" x="206.78618" y="257.158895" style="stroke: #000000; stroke-width: 0.8"/>
      </g>
     </g>
     <g id="text_3">
      <!-- 2000 -->
      <g transform="translate(194.06118 271.757332) scale(0.1 -0.1)">
       <defs>
        <path id="DejaVuSans-32" d="M 1228 531 
L 3431 531 
L 3431 0 
L 469 0 
L 469 531 
Q 828 903 1448 1529 
Q 2069 2156 2228 2338 
Q 2531 2678 2651 2914 
Q 2772 3150 2772 3378 
Q 2772 3750 2511 3984 
Q 2250 4219 1831 4219 
Q 1534 4219 1204 4116 
Q 875 4013 500 3803 
L 500 4441 
Q 881 4594 1212 4672 
Q 1544 4750 1819 4750 
Q 2544 4750 2975 4387 
Q 3406 4025 3406 3419 
Q 3406 3131 3298 2873 
Q 3191 2616 2906 2266 
Q 2828 2175 2409 1742 
Q 1991 1309 1228 531 
z
" transform="scale(0.015625)"/>
       </defs>
       <use xlink:href="#DejaVuSans-32"/>
       <use xlink:href="#DejaVuSans-30" transform="translate(63.623047 0)"/>
       <use xlink:href="#DejaVuSans-30" transform="translate(127.246094 0)"/>
       <use xlink:href="#DejaVuSans-30" transform="translate(190.869141 0)"/>
      </g>
     </g>
    </g>
    <g id="xtick_4">
     <g id="line2d_4">
      <g>
       <use xlink:href="#m1648066223" x="275.413236" y="257.158895" style="stroke: #000000; stroke-width: 0.8"/>
      </g>
     </g>
     <g id="text_4">
      <!-- 3000 -->
      <g transform="translate(262.688236 271.757332) scale(0.1 -0.1)">
       <defs>
        <path id="DejaVuSans-33" d="M 2597 2516 
Q 3050 2419 3304 2112 
Q 3559 1806 3559 1356 
Q 3559 666 3084 287 
Q 2609 -91 1734 -91 
Q 1441 -91 1130 -33 
Q 819 25 488 141 
L 488 750 
Q 750 597 1062 519 
Q 1375 441 1716 441 
Q 2309 441 2620 675 
Q 2931 909 2931 1356 
Q 2931 1769 2642 2001 
Q 2353 2234 1838 2234 
L 1294 2234 
L 1294 2753 
L 1863 2753 
Q 2328 2753 2575 2939 
Q 2822 3125 2822 3475 
Q 2822 3834 2567 4026 
Q 2313 4219 1838 4219 
Q 1578 4219 1281 4162 
Q 984 4106 628 3988 
L 628 4550 
Q 988 4650 1302 4700 
Q 1616 4750 1894 4750 
Q 2613 4750 3031 4423 
Q 3450 4097 3450 3541 
Q 3450 3153 3228 2886 
Q 3006 2619 2597 2516 
z
" transform="scale(0.015625)"/>
       </defs>
       <use xlink:href="#DejaVuSans-33"/>
       <use xlink:href="#DejaVuSans-30" transform="translate(63.623047 0)"/>
       <use xlink:href="#DejaVuSans-30" transform="translate(127.246094 0)"/>
       <use xlink:href="#DejaVuSans-30" transform="translate(190.869141 0)"/>
      </g>
     </g>
    </g>
    <g id="xtick_5">
     <g id="line2d_5">
      <g>
       <use xlink:href="#m1648066223" x="344.040291" y="257.158895" style="stroke: #000000; stroke-width: 0.8"/>
      </g>
     </g>
     <g id="text_5">
      <!-- 4000 -->
      <g transform="translate(331.315291 271.757332) scale(0.1 -0.1)">
       <defs>
        <path id="DejaVuSans-34" d="M 2419 4116 
L 825 1625 
L 2419 1625 
L 2419 4116 
z
M 2253 4666 
L 3047 4666 
L 3047 1625 
L 3713 1625 
L 3713 1100 
L 3047 1100 
L 3047 0 
L 2419 0 
L 2419 1100 
L 313 1100 
L 313 1709 
L 2253 4666 
z
" transform="scale(0.015625)"/>
       </defs>
       <use xlink:href="#DejaVuSans-34"/>
       <use xlink:href="#DejaVuSans-30" transform="translate(63.623047 0)"/>
       <use xlink:href="#DejaVuSans-30" transform="translate(127.246094 0)"/>
       <use xlink:href="#DejaVuSans-30" transform="translate(190.869141 0)"/>
      </g>
     </g>
    </g>
    <g id="xtick_6">
     <g id="line2d_6">
      <g>
       <use xlink:href="#m1648066223" x="412.667347" y="257.158895" style="stroke: #000000; stroke-width: 0.8"/>
      </g>
     </g>
     <g id="text_6">
      <!-- 5000 -->
      <g transform="translate(399.942347 271.757332) scale(0.1 -0.1)">
       <defs>
        <path id="DejaVuSans-35" d="M 691 4666 
L 3169 4666 
L 3169 4134 
L 1269 4134 
L 1269 2991 
Q 1406 3038 1543 3061 
Q 1681 3084 1819 3084 
Q 2600 3084 3056 2656 
Q 3513 2228 3513 1497 
Q 3513 744 3044 326 
Q 2575 -91 1722 -91 
Q 1428 -91 1123 -41 
Q 819 9 494 109 
L 494 744 
Q 775 591 1075 516 
Q 1375 441 1709 441 
Q 2250 441 2565 725 
Q 2881 1009 2881 1497 
Q 2881 1984 2565 2268 
Q 2250 2553 1709 2553 
Q 1456 2553 1204 2497 
Q 953 2441 691 2322 
L 691 4666 
z
" transform="scale(0.015625)"/>
       </defs>
       <use xlink:href="#DejaVuSans-35"/>
       <use xlink:href="#DejaVuSans-30" transform="translate(63.623047 0)"/>
       <use xlink:href="#DejaVuSans-30" transform="translate(127.246094 0)"/>
       <use xlink:href="#DejaVuSans-30" transform="translate(190.869141 0)"/>
      </g>
     </g>
    </g>
    <g id="text_7">
     <!-- birth_time [µs] -->
     <g transform="translate(204.193005 285.435457) scale(0.1 -0.1)">
      <defs>
       <path id="DejaVuSans-62" d="M 3116 1747 
Q 3116 2381 2855 2742 
Q 2594 3103 2138 3103 
Q 1681 3103 1420 2742 
Q 1159 2381 1159 1747 
Q 1159 1113 1420 752 
Q 1681 391 2138 391 
Q 2594 391 2855 752 
Q 3116 1113 3116 1747 
z
M 1159 2969 
Q 1341 3281 1617 3432 
Q 1894 3584 2278 3584 
Q 2916 3584 3314 3078 
Q 3713 2572 3713 1747 
Q 3713 922 3314 415 
Q 2916 -91 2278 -91 
Q 1894 -91 1617 61 
Q 1341 213 1159 525 
L 1159 0 
L 581 0 
L 581 4863 
L 1159 4863 
L 1159 2969 
z
" transform="scale(0.015625)"/>
       <path id="DejaVuSans-69" d="M 603 3500 
L 1178 3500 
L 1178 0 
L 603 0 
L 603 3500 
z
M 603 4863 
L 1178 4863 
L 1178 4134 
L 603 4134 
L 603 4863 
z
" transform="scale(0.015625)"/>
       <path id="DejaVuSans-72" d="M 2631 2963 
Q 2534 3019 2420 3045 
Q 2306 3072 2169 3072 
Q 1681 3072 1420 2755 
Q 1159 2438 1159 1844 
L 1159 0 
L 581 0 
L 581 3500 
L 1159 3500 
L 1159 2956 
Q 1341 3275 1631 3429 
Q 1922 3584 2338 3584 
Q 2397 3584 2469 3576 
Q 2541 3569 2628 3553 
L 2631 2963 
z
" transform="scale(0.015625)"/>
       <path id="DejaVuSans-74" d="M 1172 4494 
L 1172 3500 
L 2356 3500 
L 2356 3053 
L 1172 3053 
L 1172 1153 
Q 1172 725 1289 603 
Q 1406 481 1766 481 
L 2356 481 
L 2356 0 
L 1766 0 
Q 1100 0 847 248 
Q 594 497 594 1153 
L 594 3053 
L 172 3053 
L 172 3500 
L 594 3500 
L 594 4494 
L 1172 4494 
z
" transform="scale(0.015625)"/>
       <path id="DejaVuSans-68" d="M 3513 2113 
L 3513 0 
L 2938 0 
L 2938 2094 
Q 2938 2591 2744 2837 
Q 2550 3084 2163 3084 
Q 1697 3084 1428 2787 
Q 1159 2491 1159 1978 
L 1159 0 
L 581 0 
L 581 4863 
L 1159 4863 
L 1159 2956 
Q 1366 3272 1645 3428 
Q 1925 3584 2291 3584 
Q 2894 3584 3203 3211 
Q 3513 2838 3513 2113 
z
" transform="scale(0.015625)"/>
       <path id="DejaVuSans-5f" d="M 3263 -1063 
L 3263 -1509 
L -63 -1509 
L -63 -1063 
L 3263 -1063 
z
" transform="scale(0.015625)"/>
       <path id="DejaVuSans-6d" d="M 3328 2828 
Q 3544 3216 3844 3400 
Q 4144 3584 4550 3584 
Q 5097 3584 5394 3201 
Q 5691 2819 5691 2113 
L 5691 0 
L 5113 0 
L 5113 2094 
Q 5113 2597 4934 2840 
Q 4756 3084 4391 3084 
Q 3944 3084 3684 2787 
Q 3425 2491 3425 1978 
L 3425 0 
L 2847 0 
L 2847 2094 
Q 2847 2600 2669 2842 
Q 2491 3084 2119 3084 
Q 1678 3084 1418 2786 
Q 1159 2488 1159 1978 
L 1159 0 
L 581 0 
L 581 3500 
L 1159 3500 
L 1159 2956 
Q 1356 3278 1631 3431 
Q 1906 3584 2284 3584 
Q 2666 3584 2933 3390 
Q 3200 3197 3328 2828 
z
" transform="scale(0.015625)"/>
       <path id="DejaVuSans-65" d="M 3597 1894 
L 3597 1613 
L 953 1613 
Q 991 1019 1311 708 
Q 1631 397 2203 397 
Q 2534 397 2845 478 
Q 3156 559 3463 722 
L 3463 178 
Q 3153 47 2828 -22 
Q 2503 -91 2169 -91 
Q 1331 -91 842 396 
Q 353 884 353 1716 
Q 353 2575 817 3079 
Q 1281 3584 2069 3584 
Q 2775 3584 3186 3129 
Q 3597 2675 3597 1894 
z
M 3022 2063 
Q 3016 2534 2758 2815 
Q 2500 3097 2075 3097 
Q 1594 3097 1305 2825 
Q 1016 2553 972 2059 
L 3022 2063 
z
" transform="scale(0.015625)"/>
       <path id="DejaVuSans-20" transform="scale(0.015625)"/>
       <path id="DejaVuSans-5b" d="M 550 4863 
L 1875 4863 
L 1875 4416 
L 1125 4416 
L 1125 -397 
L 1875 -397 
L 1875 -844 
L 550 -844 
L 550 4863 
z
" transform="scale(0.015625)"/>
       <path id="DejaVuSans-b5" d="M 544 -1331 
L 544 3500 
L 1119 3500 
L 1119 1325 
Q 1119 872 1334 640 
Q 1550 409 1972 409 
Q 2434 409 2667 671 
Q 2900 934 2900 1459 
L 2900 3500 
L 3475 3500 
L 3475 806 
Q 3475 619 3529 530 
Q 3584 441 3700 441 
Q 3728 441 3778 458 
Q 3828 475 3916 513 
L 3916 50 
Q 3788 -22 3673 -56 
Q 3559 -91 3450 -91 
Q 3234 -91 3106 31 
Q 2978 153 2931 403 
Q 2775 156 2548 32 
Q 2322 -91 2016 -91 
Q 1697 -91 1473 31 
Q 1250 153 1119 397 
L 1119 -1331 
L 544 -1331 
z
" transform="scale(0.015625)"/>
       <path id="DejaVuSans-73" d="M 2834 3397 
L 2834 2853 
Q 2591 2978 2328 3040 
Q 2066 3103 1784 3103 
Q 1356 3103 1142 2972 
Q 928 2841 928 2578 
Q 928 2378 1081 2264 
Q 1234 2150 1697 2047 
L 1894 2003 
Q 2506 1872 2764 1633 
Q 3022 1394 3022 966 
Q 3022 478 2636 193 
Q 2250 -91 1575 -91 
Q 1294 -91 989 -36 
Q 684 19 347 128 
L 347 722 
Q 666 556 975 473 
Q 1284 391 1588 391 
Q 1994 391 2212 530 
Q 2431 669 2431 922 
Q 2431 1156 2273 1281 
Q 2116 1406 1581 1522 
L 1381 1569 
Q 847 1681 609 1914 
Q 372 2147 372 2553 
Q 372 3047 722 3315 
Q 1072 3584 1716 3584 
Q 2034 3584 2315 3537 
Q 2597 3491 2834 3397 
z
" transform="scale(0.015625)"/>
       <path id="DejaVuSans-5d" d="M 1947 4863 
L 1947 -844 
L 622 -844 
L 622 -397 
L 1369 -397 
L 1369 4416 
L 622 4416 
L 622 4863 
L 1947 4863 
z
" transform="scale(0.015625)"/>
      </defs>
      <use xlink:href="#DejaVuSans-62"/>
      <use xlink:href="#DejaVuSans-69" transform="translate(63.476562 0)"/>
      <use xlink:href="#DejaVuSans-72" transform="translate(91.259766 0)"/>
      <use xlink:href="#DejaVuSans-74" transform="translate(132.373047 0)"/>
      <use xlink:href="#DejaVuSans-68" transform="translate(171.582031 0)"/>
      <use xlink:href="#DejaVuSans-5f" transform="translate(234.960938 0)"/>
      <use xlink:href="#DejaVuSans-74" transform="translate(284.960938 0)"/>
      <use xlink:href="#DejaVuSans-69" transform="translate(324.169922 0)"/>
      <use xlink:href="#DejaVuSans-6d" transform="translate(351.953125 0)"/>
      <use xlink:href="#DejaVuSans-65" transform="translate(449.365234 0)"/>
      <use xlink:href="#DejaVuSans-20" transform="translate(510.888672 0)"/>
      <use xlink:href="#DejaVuSans-5b" transform="translate(542.675781 0)"/>
      <use xlink:href="#DejaVuSans-b5" transform="translate(581.689453 0)"/>
      <use xlink:href="#DejaVuSans-73" transform="translate(645.3125 0)"/>
      <use xlink:href="#DejaVuSans-5d" transform="translate(697.412109 0)"/>
     </g>
    </g>
   </g>
   <g id="matplotlib.axis_2">
    <g id="ytick_1">
     <g id="line2d_7">
      <defs>
       <path id="m7347389f15" d="M 0 0 
L -3.5 0 
" style="stroke: #000000; stroke-width: 0.8"/>
      </defs>
      <g>
       <use xlink:href="#m7347389f15" x="53.328125" y="245.911854" style="stroke: #000000; stroke-width: 0.8"/>
      </g>
     </g>
     <g id="text_8">
      <!-- 0 -->
      <g transform="translate(39.965625 249.711072) scale(0.1 -0.1)">
       <use xlink:href="#DejaVuSans-30"/>
      </g>
     </g>
    </g>
    <g id="ytick_2">
     <g id="line2d_8">
      <g>
       <use xlink:href="#m7347389f15" x="53.328125" y="207.669619" style="stroke: #000000; stroke-width: 0.8"/>
      </g>
     </g>
     <g id="text_9">
      <!-- 1000 -->
      <g transform="translate(20.878125 211.468838) scale(0.1 -0.1)">
       <use xlink:href="#DejaVuSans-31"/>
       <use xlink:href="#DejaVuSans-30" transform="translate(63.623047 0)"/>
       <use xlink:href="#DejaVuSans-30" transform="translate(127.246094 0)"/>
       <use xlink:href="#DejaVuSans-30" transform="translate(190.869141 0)"/>
      </g>
     </g>
    </g>
    <g id="ytick_3">
     <g id="line2d_9">
      <g>
       <use xlink:href="#m7347389f15" x="53.328125" y="169.427384" style="stroke: #000000; stroke-width: 0.8"/>
      </g>
     </g>
     <g id="text_10">
      <!-- 2000 -->
      <g transform="translate(20.878125 173.226603) scale(0.1 -0.1)">
       <use xlink:href="#DejaVuSans-32"/>
       <use xlink:href="#DejaVuSans-30" transform="translate(63.623047 0)"/>
       <use xlink:href="#DejaVuSans-30" transform="translate(127.246094 0)"/>
       <use xlink:href="#DejaVuSans-30" transform="translate(190.869141 0)"/>
      </g>
     </g>
    </g>
    <g id="ytick_4">
     <g id="line2d_10">
      <g>
       <use xlink:href="#m7347389f15" x="53.328125" y="131.185149" style="stroke: #000000; stroke-width: 0.8"/>
      </g>
     </g>
     <g id="text_11">
      <!-- 3000 -->
      <g transform="translate(20.878125 134.984368) scale(0.1 -0.1)">
       <use xlink:href="#DejaVuSans-33"/>
       <use xlink:href="#DejaVuSans-30" transform="translate(63.623047 0)"/>
       <use xlink:href="#DejaVuSans-30" transform="translate(127.246094 0)"/>
       <use xlink:href="#DejaVuSans-30" transform="translate(190.869141 0)"/>
      </g>
     </g>
    </g>
    <g id="ytick_5">
     <g id="line2d_11">
      <g>
       <use xlink:href="#m7347389f15" x="53.328125" y="92.942915" style="stroke: #000000; stroke-width: 0.8"/>
      </g>
     </g>
     <g id="text_12">
      <!-- 4000 -->
      <g transform="translate(20.878125 96.742133) scale(0.1 -0.1)">
       <use xlink:href="#DejaVuSans-34"/>
       <use xlink:href="#DejaVuSans-30" transform="translate(63.623047 0)"/>
       <use xlink:href="#DejaVuSans-30" transform="translate(127.246094 0)"/>
       <use xlink:href="#DejaVuSans-30" transform="translate(190.869141 0)"/>
      </g>
     </g>
    </g>
    <g id="ytick_6">
     <g id="line2d_12">
      <g>
       <use xlink:href="#m7347389f15" x="53.328125" y="54.70068" style="stroke: #000000; stroke-width: 0.8"/>
      </g>
     </g>
     <g id="text_13">
      <!-- 5000 -->
      <g transform="translate(20.878125 58.499899) scale(0.1 -0.1)">
       <use xlink:href="#DejaVuSans-35"/>
       <use xlink:href="#DejaVuSans-30" transform="translate(63.623047 0)"/>
       <use xlink:href="#DejaVuSans-30" transform="translate(127.246094 0)"/>
       <use xlink:href="#DejaVuSans-30" transform="translate(190.869141 0)"/>
      </g>
     </g>
    </g>
    <g id="ytick_7">
     <g id="line2d_13">
      <g>
       <use xlink:href="#m7347389f15" x="53.328125" y="16.458445" style="stroke: #000000; stroke-width: 0.8"/>
      </g>
     </g>
     <g id="text_14">
      <!-- 6000 -->
      <g transform="translate(20.878125 20.257664) scale(0.1 -0.1)">
       <defs>
        <path id="DejaVuSans-36" d="M 2113 2584 
Q 1688 2584 1439 2293 
Q 1191 2003 1191 1497 
Q 1191 994 1439 701 
Q 1688 409 2113 409 
Q 2538 409 2786 701 
Q 3034 994 3034 1497 
Q 3034 2003 2786 2293 
Q 2538 2584 2113 2584 
z
M 3366 4563 
L 3366 3988 
Q 3128 4100 2886 4159 
Q 2644 4219 2406 4219 
Q 1781 4219 1451 3797 
Q 1122 3375 1075 2522 
Q 1259 2794 1537 2939 
Q 1816 3084 2150 3084 
Q 2853 3084 3261 2657 
Q 3669 2231 3669 1497 
Q 3669 778 3244 343 
Q 2819 -91 2113 -91 
Q 1303 -91 875 529 
Q 447 1150 447 2328 
Q 447 3434 972 4092 
Q 1497 4750 2381 4750 
Q 2619 4750 2861 4703 
Q 3103 4656 3366 4563 
z
" transform="scale(0.015625)"/>
       </defs>
       <use xlink:href="#DejaVuSans-36"/>
       <use xlink:href="#DejaVuSans-30" transform="translate(63.623047 0)"/>
       <use xlink:href="#DejaVuSans-30" transform="translate(127.246094 0)"/>
       <use xlink:href="#DejaVuSans-30" transform="translate(190.869141 0)"/>
      </g>
     </g>
    </g>
    <g id="text_15">
     <!-- pulse:0 [counts] -->
     <g transform="translate(14.798438 172.659916) rotate(-90) scale(0.1 -0.1)">
      <defs>
       <path id="DejaVuSans-70" d="M 1159 525 
L 1159 -1331 
L 581 -1331 
L 581 3500 
L 1159 3500 
L 1159 2969 
Q 1341 3281 1617 3432 
Q 1894 3584 2278 3584 
Q 2916 3584 3314 3078 
Q 3713 2572 3713 1747 
Q 3713 922 3314 415 
Q 2916 -91 2278 -91 
Q 1894 -91 1617 61 
Q 1341 213 1159 525 
z
M 3116 1747 
Q 3116 2381 2855 2742 
Q 2594 3103 2138 3103 
Q 1681 3103 1420 2742 
Q 1159 2381 1159 1747 
Q 1159 1113 1420 752 
Q 1681 391 2138 391 
Q 2594 391 2855 752 
Q 3116 1113 3116 1747 
z
" transform="scale(0.015625)"/>
       <path id="DejaVuSans-75" d="M 544 1381 
L 544 3500 
L 1119 3500 
L 1119 1403 
Q 1119 906 1312 657 
Q 1506 409 1894 409 
Q 2359 409 2629 706 
Q 2900 1003 2900 1516 
L 2900 3500 
L 3475 3500 
L 3475 0 
L 2900 0 
L 2900 538 
Q 2691 219 2414 64 
Q 2138 -91 1772 -91 
Q 1169 -91 856 284 
Q 544 659 544 1381 
z
M 1991 3584 
L 1991 3584 
z
" transform="scale(0.015625)"/>
       <path id="DejaVuSans-6c" d="M 603 4863 
L 1178 4863 
L 1178 0 
L 603 0 
L 603 4863 
z
" transform="scale(0.015625)"/>
       <path id="DejaVuSans-3a" d="M 750 794 
L 1409 794 
L 1409 0 
L 750 0 
L 750 794 
z
M 750 3309 
L 1409 3309 
L 1409 2516 
L 750 2516 
L 750 3309 
z
" transform="scale(0.015625)"/>
       <path id="DejaVuSans-63" d="M 3122 3366 
L 3122 2828 
Q 2878 2963 2633 3030 
Q 2388 3097 2138 3097 
Q 1578 3097 1268 2742 
Q 959 2388 959 1747 
Q 959 1106 1268 751 
Q 1578 397 2138 397 
Q 2388 397 2633 464 
Q 2878 531 3122 666 
L 3122 134 
Q 2881 22 2623 -34 
Q 2366 -91 2075 -91 
Q 1284 -91 818 406 
Q 353 903 353 1747 
Q 353 2603 823 3093 
Q 1294 3584 2113 3584 
Q 2378 3584 2631 3529 
Q 2884 3475 3122 3366 
z
" transform="scale(0.015625)"/>
       <path id="DejaVuSans-6f" d="M 1959 3097 
Q 1497 3097 1228 2736 
Q 959 2375 959 1747 
Q 959 1119 1226 758 
Q 1494 397 1959 397 
Q 2419 397 2687 759 
Q 2956 1122 2956 1747 
Q 2956 2369 2687 2733 
Q 2419 3097 1959 3097 
z
M 1959 3584 
Q 2709 3584 3137 3096 
Q 3566 2609 3566 1747 
Q 3566 888 3137 398 
Q 2709 -91 1959 -91 
Q 1206 -91 779 398 
Q 353 888 353 1747 
Q 353 2609 779 3096 
Q 1206 3584 1959 3584 
z
" transform="scale(0.015625)"/>
       <path id="DejaVuSans-6e" d="M 3513 2113 
L 3513 0 
L 2938 0 
L 2938 2094 
Q 2938 2591 2744 2837 
Q 2550 3084 2163 3084 
Q 1697 3084 1428 2787 
Q 1159 2491 1159 1978 
L 1159 0 
L 581 0 
L 581 3500 
L 1159 3500 
L 1159 2956 
Q 1366 3272 1645 3428 
Q 1925 3584 2291 3584 
Q 2894 3584 3203 3211 
Q 3513 2838 3513 2113 
z
" transform="scale(0.015625)"/>
      </defs>
      <use xlink:href="#DejaVuSans-70"/>
      <use xlink:href="#DejaVuSans-75" transform="translate(63.476562 0)"/>
      <use xlink:href="#DejaVuSans-6c" transform="translate(126.855469 0)"/>
      <use xlink:href="#DejaVuSans-73" transform="translate(154.638672 0)"/>
      <use xlink:href="#DejaVuSans-65" transform="translate(206.738281 0)"/>
      <use xlink:href="#DejaVuSans-3a" transform="translate(268.261719 0)"/>
      <use xlink:href="#DejaVuSans-30" transform="translate(301.953125 0)"/>
      <use xlink:href="#DejaVuSans-20" transform="translate(365.576172 0)"/>
      <use xlink:href="#DejaVuSans-5b" transform="translate(397.363281 0)"/>
      <use xlink:href="#DejaVuSans-63" transform="translate(436.376953 0)"/>
      <use xlink:href="#DejaVuSans-6f" transform="translate(491.357422 0)"/>
      <use xlink:href="#DejaVuSans-75" transform="translate(552.539062 0)"/>
      <use xlink:href="#DejaVuSans-6e" transform="translate(615.917969 0)"/>
      <use xlink:href="#DejaVuSans-74" transform="translate(679.296875 0)"/>
      <use xlink:href="#DejaVuSans-73" transform="translate(718.505859 0)"/>
      <use xlink:href="#DejaVuSans-5d" transform="translate(770.605469 0)"/>
     </g>
    </g>
   </g>
   <g id="line2d_14">
    <path d="M 70.390415 233.86555 
L 71.527901 233.86555 
L 71.527901 228.511637 
L 72.665387 228.511637 
L 72.665387 219.524712 
L 73.802873 219.524712 
L 73.802873 210.843724 
L 74.940359 210.843724 
L 74.940359 199.29457 
L 76.077845 199.29457 
L 76.077845 189.581042 
L 77.215331 189.581042 
L 77.215331 182.659197 
L 78.352817 182.659197 
L 78.352817 177.57298 
L 79.490303 177.57298 
L 79.490303 167.897695 
L 80.627789 167.897695 
L 80.627789 154.857093 
L 81.765275 154.857093 
L 81.765275 150.038571 
L 82.902761 150.038571 
L 82.902761 143.040242 
L 84.040247 143.040242 
L 84.040247 136.577305 
L 85.177733 136.577305 
L 85.177733 130.382062 
L 86.315219 130.382062 
L 86.315219 125.792994 
L 87.452705 125.792994 
L 87.452705 117.112007 
L 88.590191 117.112007 
L 88.590191 115.62056 
L 89.727677 115.62056 
L 89.727677 111.107976 
L 90.865163 111.107976 
L 90.865163 107.207268 
L 92.00265 107.207268 
L 92.00265 98.449796 
L 93.140136 98.449796 
L 93.140136 97.111318 
L 94.277622 97.111318 
L 94.277622 91.757405 
L 95.415108 91.757405 
L 95.415108 86.938884 
L 96.552594 86.938884 
L 96.552594 83.229387 
L 97.69008 83.229387 
L 97.69008 80.705399 
L 98.827566 80.705399 
L 98.827566 80.055281 
L 99.965052 80.055281 
L 99.965052 75.504456 
L 101.102538 75.504456 
L 101.102538 71.64199 
L 102.240024 71.64199 
L 102.240024 67.129406 
L 103.37751 67.129406 
L 103.37751 69.615151 
L 104.514996 69.615151 
L 104.514996 67.741282 
L 105.652482 67.741282 
L 105.652482 58.180723 
L 106.789968 58.180723 
L 106.789968 61.20186 
L 107.927454 61.20186 
L 107.927454 56.995214 
L 109.06494 56.995214 
L 109.06494 58.065996 
L 110.202426 58.065996 
L 110.202426 60.01635 
L 111.339912 60.01635 
L 111.339912 55.121344 
L 112.477398 55.121344 
L 112.477398 56.765761 
L 113.614884 56.765761 
L 113.614884 50.914699 
L 114.75237 50.914699 
L 114.75237 51.220636 
L 115.889856 51.220636 
L 115.889856 44.910668 
L 117.027342 44.910668 
L 117.027342 47.128717 
L 118.164828 47.128717 
L 118.164828 44.031096 
L 119.302314 44.031096 
L 119.302314 44.987152 
L 120.4398 44.987152 
L 120.4398 42.348438 
L 121.577286 42.348438 
L 121.577286 42.845587 
L 122.714772 42.845587 
L 122.714772 39.518513 
L 123.852258 39.518513 
L 123.852258 41.124686 
L 124.989744 41.124686 
L 124.989744 35.770774 
L 126.12723 35.770774 
L 126.12723 41.621836 
L 127.264716 41.621836 
L 127.264716 41.35414 
L 128.402202 41.35414 
L 128.402202 40.512811 
L 129.539688 40.512811 
L 129.539688 34.623507 
L 130.677174 34.623507 
L 130.677174 32.596668 
L 131.81466 32.596668 
L 131.81466 35.235382 
L 132.952146 35.235382 
L 132.952146 31.028736 
L 134.089632 31.028736 
L 134.089632 36.22968 
L 136.364604 36.22968 
L 136.364604 31.60237 
L 137.50209 31.60237 
L 137.50209 31.870066 
L 138.639576 31.870066 
L 138.639576 35.694289 
L 139.777062 35.694289 
L 139.777062 28.963656 
L 140.914548 28.963656 
L 140.914548 34.661749 
L 142.052034 34.661749 
L 142.052034 34.1646 
L 143.18952 34.1646 
L 143.18952 28.925414 
L 144.327006 28.925414 
L 144.327006 27.166271 
L 145.464492 27.166271 
L 145.464492 33.361513 
L 146.601978 33.361513 
L 146.601978 28.198811 
L 147.739464 28.198811 
L 147.739464 29.154867 
L 148.87695 29.154867 
L 148.87695 28.466507 
L 150.014436 28.466507 
L 150.014436 25.521855 
L 151.151922 25.521855 
L 151.151922 26.592637 
L 152.289408 26.592637 
L 152.289408 29.346078 
L 153.426894 29.346078 
L 153.426894 28.657718 
L 154.56438 28.657718 
L 154.56438 22.615445 
L 155.701866 22.615445 
L 155.701866 29.843227 
L 156.839352 29.843227 
L 156.839352 26.936817 
L 157.976838 26.936817 
L 157.976838 30.187407 
L 159.114324 30.187407 
L 159.114324 26.592637 
L 160.25181 26.592637 
L 160.25181 29.728501 
L 161.389296 29.728501 
L 161.389296 26.248457 
L 162.526782 26.248457 
L 162.526782 20.81806 
L 163.664268 20.81806 
L 163.664268 25.254159 
L 164.801754 25.254159 
L 164.801754 29.231351 
L 165.93924 29.231351 
L 165.93924 32.673153 
L 167.076727 32.673153 
L 167.076727 31.372917 
L 168.214213 31.372917 
L 168.214213 29.269594 
L 169.351699 29.269594 
L 169.351699 23.495016 
L 171.626671 23.533258 
L 171.626671 30.149165 
L 172.764157 30.149165 
L 172.764157 26.516153 
L 173.901643 26.516153 
L 173.901643 25.177675 
L 175.039129 25.177675 
L 175.039129 29.38432 
L 176.176615 29.38432 
L 176.176615 28.581233 
L 177.314101 28.581233 
L 177.314101 22.921383 
L 178.451587 22.921383 
L 178.451587 27.31924 
L 179.589073 27.31924 
L 179.589073 25.44537 
L 180.726559 25.44537 
L 180.726559 20.626849 
L 181.864045 20.626849 
L 181.864045 25.521855 
L 183.001531 25.521855 
L 183.001531 28.619476 
L 184.139017 28.619476 
L 184.139017 23.38029 
L 185.276503 23.38029 
L 185.276503 25.942519 
L 186.413989 25.942519 
L 186.413989 21.047513 
L 187.551475 21.047513 
L 187.551475 20.053215 
L 188.688961 20.053215 
L 188.688961 26.171973 
L 189.826447 26.171973 
L 189.826447 28.390022 
L 190.963933 28.390022 
L 190.963933 25.751308 
L 192.101419 25.751308 
L 192.101419 21.812358 
L 193.238905 21.812358 
L 193.238905 26.630879 
L 194.376391 26.630879 
L 194.376391 26.822091 
L 195.513877 26.822091 
L 195.513877 26.401426 
L 196.651363 26.401426 
L 196.651363 18.982433 
L 197.788849 18.982433 
L 197.788849 18.752979 
L 198.926335 18.752979 
L 198.926335 24.986463 
L 200.063821 24.986463 
L 200.063821 26.592637 
L 201.201307 26.592637 
L 201.201307 29.154867 
L 202.338793 29.154867 
L 202.338793 24.336345 
L 203.476279 24.336345 
L 203.476279 28.084084 
L 204.613765 28.084084 
L 204.613765 28.275296 
L 205.751251 28.275296 
L 205.751251 23.915681 
L 206.888737 23.915681 
L 206.888737 24.41283 
L 208.026223 24.41283 
L 208.026223 22.88314 
L 209.163709 22.88314 
L 209.163709 22.997867 
L 210.301195 22.997867 
L 210.301195 25.560097 
L 211.438681 25.560097 
L 211.438681 28.466507 
L 212.576167 28.466507 
L 212.576167 27.051544 
L 213.713653 27.051544 
L 213.713653 22.500718 
L 214.851139 22.500718 
L 214.851139 25.368886 
L 215.988625 25.368886 
L 215.988625 23.189078 
L 217.126111 23.189078 
L 217.126111 28.925414 
L 218.263597 28.925414 
L 218.263597 22.691929 
L 219.401083 22.691929 
L 219.401083 30.22565 
L 220.538569 30.22565 
L 220.538569 20.626849 
L 221.676055 20.626849 
L 221.676055 23.992165 
L 222.813541 23.992165 
L 222.813541 28.045842 
L 223.951027 28.045842 
L 223.951027 29.307836 
L 225.088513 29.307836 
L 225.088513 21.200482 
L 226.225999 21.200482 
L 226.225999 21.009271 
L 227.363485 21.009271 
L 227.363485 18.829464 
L 228.500971 18.829464 
L 228.500971 22.615445 
L 229.638457 22.615445 
L 229.638457 24.680526 
L 230.775943 24.680526 
L 230.775943 29.996196 
L 231.913429 29.996196 
L 231.913429 28.848929 
L 233.050915 28.848929 
L 233.050915 19.556066 
L 234.188401 19.556066 
L 234.188401 25.44537 
L 235.325887 25.44537 
L 235.325887 19.632551 
L 236.463373 19.632551 
L 236.463373 25.407128 
L 237.600859 25.407128 
L 237.600859 29.346078 
L 238.738345 29.346078 
L 238.738345 19.785519 
L 239.875831 19.785519 
L 239.875831 22.806656 
L 241.013317 22.806656 
L 241.013317 21.888842 
L 242.150804 21.888842 
L 242.150804 24.183376 
L 243.28829 24.183376 
L 243.28829 21.16224 
L 245.563262 21.123998 
L 245.563262 25.866035 
L 246.700748 25.866035 
L 246.700748 28.542991 
L 247.838234 28.542991 
L 247.838234 29.38432 
L 248.97572 29.38432 
L 248.97572 26.630879 
L 250.113206 26.630879 
L 250.113206 21.200482 
L 251.250692 21.200482 
L 251.250692 25.713066 
L 252.388178 25.713066 
L 252.388178 24.41283 
L 253.525664 24.41283 
L 253.525664 23.495016 
L 254.66315 23.495016 
L 254.66315 24.41283 
L 256.938122 24.374588 
L 256.938122 28.466507 
L 258.075608 28.466507 
L 258.075608 20.741575 
L 259.213094 20.741575 
L 259.213094 24.259861 
L 260.35058 24.259861 
L 260.35058 18.561768 
L 261.488066 18.561768 
L 261.488066 26.822091 
L 262.625552 26.822091 
L 262.625552 25.254159 
L 263.763038 25.254159 
L 263.763038 23.036109 
L 264.900524 23.036109 
L 264.900524 28.313538 
L 266.03801 28.313538 
L 266.03801 30.875768 
L 267.175496 30.875768 
L 267.175496 39.709724 
L 268.312982 39.709724 
L 268.312982 48.161258 
L 269.450468 48.161258 
L 269.450468 58.601388 
L 270.587954 58.601388 
L 270.587954 62.310885 
L 271.72544 62.310885 
L 271.72544 70.456481 
L 272.862926 70.456481 
L 272.862926 82.808722 
L 274.000412 82.808722 
L 274.000412 92.636977 
L 275.137898 92.636977 
L 275.137898 99.176399 
L 276.275384 99.176399 
L 276.275384 107.169026 
L 277.41287 107.169026 
L 277.41287 116.194193 
L 278.550356 116.194193 
L 278.550356 124.301547 
L 279.687842 124.301547 
L 279.687842 128.62292 
L 280.825328 128.62292 
L 280.825328 136.347851 
L 281.962814 136.347851 
L 281.962814 144.111025 
L 283.1003 144.111025 
L 283.1003 147.858764 
L 284.237786 147.858764 
L 284.237786 152.792012 
L 285.375272 152.792012 
L 285.375272 158.757801 
L 286.512758 158.757801 
L 286.512758 162.964447 
L 287.650244 162.964447 
L 287.650244 167.247577 
L 288.78773 167.247577 
L 288.78773 173.825241 
L 289.925216 173.825241 
L 289.925216 174.32239 
L 291.062702 174.32239 
L 291.062702 177.764191 
L 292.200188 177.764191 
L 292.200188 181.932595 
L 293.337674 181.932595 
L 293.337674 184.839005 
L 294.47516 184.839005 
L 294.47516 187.592446 
L 295.612646 187.592446 
L 295.612646 193.749446 
L 296.750132 193.749446 
L 296.750132 196.158706 
L 297.887618 196.158706 
L 297.887618 197.650153 
L 299.025104 197.650153 
L 299.025104 199.29457 
L 300.16259 199.29457 
L 300.16259 201.283166 
L 301.300076 201.283166 
L 301.300076 203.271762 
L 302.437562 203.271762 
L 302.437562 207.746103 
L 303.575048 207.746103 
L 303.575048 209.543488 
L 304.712534 209.543488 
L 304.712534 211.914507 
L 305.85002 211.914507 
L 305.85002 214.170799 
L 306.987506 214.170799 
L 306.987506 216.694786 
L 308.124992 216.694786 
L 308.124992 215.700488 
L 309.262478 215.700488 
L 309.262478 219.180532 
L 310.399964 219.180532 
L 310.399964 219.907134 
L 311.53745 219.907134 
L 311.53745 220.901432 
L 312.674936 220.901432 
L 312.674936 222.392879 
L 313.812422 222.392879 
L 313.812422 226.102376 
L 314.949908 226.102376 
L 314.949908 225.949407 
L 316.087394 225.949407 
L 316.087394 226.599525 
L 317.224881 226.599525 
L 317.224881 227.440854 
L 318.362367 227.440854 
L 318.362367 228.320426 
L 319.499853 228.320426 
L 319.499853 230.309022 
L 320.637339 230.309022 
L 320.637339 229.811873 
L 321.774825 229.811873 
L 321.774825 230.117811 
L 322.912311 230.117811 
L 322.912311 230.729687 
L 324.049797 230.729687 
L 324.049797 231.838711 
L 325.187283 231.838711 
L 325.187283 231.494531 
L 326.324769 231.494531 
L 326.324769 234.706879 
L 328.599741 234.745121 
L 328.599741 234.592152 
L 329.737227 234.592152 
L 329.737227 234.056761 
L 330.874713 234.056761 
L 330.874713 236.389537 
L 332.012199 236.389537 
L 332.012199 237.498562 
L 333.149685 237.498562 
L 333.149685 236.77196 
L 334.287171 236.77196 
L 334.287171 237.575047 
L 335.424657 237.575047 
L 335.424657 237.345593 
L 336.562143 237.345593 
L 336.562143 238.301649 
L 337.699629 238.301649 
L 337.699629 239.066494 
L 338.837115 239.066494 
L 338.837115 238.684071 
L 339.974601 238.684071 
L 339.974601 240.02255 
L 341.112087 240.02255 
L 341.112087 239.563643 
L 342.249573 239.563643 
L 342.249573 240.290245 
L 343.387059 240.290245 
L 343.387059 240.71091 
L 344.524545 240.71091 
L 344.524545 241.016848 
L 346.799517 240.940363 
L 346.799517 241.361028 
L 347.937003 241.361028 
L 347.937003 241.169817 
L 351.349461 241.246301 
L 351.349461 242.164115 
L 353.624433 242.125873 
L 353.624433 242.317084 
L 354.761919 242.317084 
L 354.761919 242.737748 
L 357.036891 242.77599 
L 357.036891 243.005444 
L 358.174377 243.005444 
L 358.174377 243.579077 
L 360.449349 243.655562 
L 360.449349 242.584779 
L 361.586835 242.584779 
L 361.586835 243.61732 
L 362.724321 243.61732 
L 362.724321 243.808531 
L 364.999293 243.846773 
L 364.999293 243.693804 
L 366.136779 243.693804 
L 366.136779 243.846773 
L 367.274265 243.846773 
L 367.274265 244.496891 
L 368.411751 244.496891 
L 368.411751 244.267438 
L 369.549237 244.267438 
L 369.549237 244.802829 
L 370.686723 244.802829 
L 370.686723 244.382164 
L 371.824209 244.382164 
L 371.824209 244.955798 
L 372.961695 244.955798 
L 372.961695 243.999742 
L 374.099181 243.999742 
L 374.099181 244.30568 
L 376.374153 244.30568 
L 376.374153 244.688102 
L 377.511639 244.688102 
L 377.511639 245.070525 
L 378.649125 245.070525 
L 378.649125 244.688102 
L 379.786611 244.688102 
L 379.786611 244.917556 
L 380.924097 244.917556 
L 380.924097 244.764587 
L 383.199069 244.726344 
L 383.199069 244.879313 
L 384.336555 244.879313 
L 384.336555 245.032282 
L 386.611527 245.108767 
L 386.611527 245.261736 
L 391.161471 245.299978 
L 391.161471 245.108767 
L 392.298958 245.108767 
L 392.298958 245.529431 
L 393.436444 245.529431 
L 393.436444 245.376462 
L 395.711416 245.376462 
L 395.711416 245.491189 
L 400.26136 245.529431 
L 400.26136 245.644158 
L 403.673818 245.567674 
L 403.673818 245.452947 
L 404.811304 245.452947 
L 404.811304 245.6824 
L 405.94879 245.6824 
L 405.94879 245.33822 
L 407.086276 245.33822 
L 407.086276 245.529431 
L 408.223762 245.529431 
L 408.223762 245.797127 
L 409.361248 245.797127 
L 409.361248 245.644158 
L 411.63622 245.644158 
L 411.63622 245.644158 
" clip-path="url(#pd98d9e1385)" style="fill: none; stroke: #1f77b4; stroke-width: 1.5; stroke-linecap: square"/>
   </g>
   <g id="patch_3">
    <path d="M 53.328125 257.158895 
L 53.328125 7.2 
" style="fill: none; stroke: #000000; stroke-width: 0.8; stroke-linejoin: miter; stroke-linecap: square"/>
   </g>
   <g id="patch_4">
    <path d="M 428.69851 257.158895 
L 428.69851 7.2 
" style="fill: none; stroke: #000000; stroke-width: 0.8; stroke-linejoin: miter; stroke-linecap: square"/>
   </g>
   <g id="patch_5">
    <path d="M 53.328125 257.158895 
L 428.69851 257.158895 
" style="fill: none; stroke: #000000; stroke-width: 0.8; stroke-linejoin: miter; stroke-linecap: square"/>
   </g>
   <g id="patch_6">
    <path d="M 53.328125 7.2 
L 428.69851 7.2 
" style="fill: none; stroke: #000000; stroke-width: 0.8; stroke-linejoin: miter; stroke-linecap: square"/>
   </g>
  </g>
  <g id="axes_2">
   <g id="patch_7">
    <path d="M 489.829135 257.158895 
L 865.19952 257.158895 
L 865.19952 7.2 
L 489.829135 7.2 
z
" style="fill: #ffffff"/>
   </g>
   <g id="matplotlib.axis_3">
    <g id="xtick_7">
     <g id="line2d_15">
      <g>
       <use xlink:href="#m1648066223" x="503.452106" y="257.158895" style="stroke: #000000; stroke-width: 0.8"/>
      </g>
     </g>
     <g id="text_16">
      <!-- 0.0 -->
      <g transform="translate(495.500544 271.757332) scale(0.1 -0.1)">
       <defs>
        <path id="DejaVuSans-2e" d="M 684 794 
L 1344 794 
L 1344 0 
L 684 0 
L 684 794 
z
" transform="scale(0.015625)"/>
       </defs>
       <use xlink:href="#DejaVuSans-30"/>
       <use xlink:href="#DejaVuSans-2e" transform="translate(63.623047 0)"/>
       <use xlink:href="#DejaVuSans-30" transform="translate(95.410156 0)"/>
      </g>
     </g>
    </g>
    <g id="xtick_8">
     <g id="line2d_16">
      <g>
       <use xlink:href="#m1648066223" x="546.765223" y="257.158895" style="stroke: #000000; stroke-width: 0.8"/>
      </g>
     </g>
     <g id="text_17">
      <!-- 2.5 -->
      <g transform="translate(538.81366 271.757332) scale(0.1 -0.1)">
       <use xlink:href="#DejaVuSans-32"/>
       <use xlink:href="#DejaVuSans-2e" transform="translate(63.623047 0)"/>
       <use xlink:href="#DejaVuSans-35" transform="translate(95.410156 0)"/>
      </g>
     </g>
    </g>
    <g id="xtick_9">
     <g id="line2d_17">
      <g>
       <use xlink:href="#m1648066223" x="590.07834" y="257.158895" style="stroke: #000000; stroke-width: 0.8"/>
      </g>
     </g>
     <g id="text_18">
      <!-- 5.0 -->
      <g transform="translate(582.126777 271.757332) scale(0.1 -0.1)">
       <use xlink:href="#DejaVuSans-35"/>
       <use xlink:href="#DejaVuSans-2e" transform="translate(63.623047 0)"/>
       <use xlink:href="#DejaVuSans-30" transform="translate(95.410156 0)"/>
      </g>
     </g>
    </g>
    <g id="xtick_10">
     <g id="line2d_18">
      <g>
       <use xlink:href="#m1648066223" x="633.391456" y="257.158895" style="stroke: #000000; stroke-width: 0.8"/>
      </g>
     </g>
     <g id="text_19">
      <!-- 7.5 -->
      <g transform="translate(625.439894 271.757332) scale(0.1 -0.1)">
       <defs>
        <path id="DejaVuSans-37" d="M 525 4666 
L 3525 4666 
L 3525 4397 
L 1831 0 
L 1172 0 
L 2766 4134 
L 525 4134 
L 525 4666 
z
" transform="scale(0.015625)"/>
       </defs>
       <use xlink:href="#DejaVuSans-37"/>
       <use xlink:href="#DejaVuSans-2e" transform="translate(63.623047 0)"/>
       <use xlink:href="#DejaVuSans-35" transform="translate(95.410156 0)"/>
      </g>
     </g>
    </g>
    <g id="xtick_11">
     <g id="line2d_19">
      <g>
       <use xlink:href="#m1648066223" x="676.704573" y="257.158895" style="stroke: #000000; stroke-width: 0.8"/>
      </g>
     </g>
     <g id="text_20">
      <!-- 10.0 -->
      <g transform="translate(665.57176 271.757332) scale(0.1 -0.1)">
       <use xlink:href="#DejaVuSans-31"/>
       <use xlink:href="#DejaVuSans-30" transform="translate(63.623047 0)"/>
       <use xlink:href="#DejaVuSans-2e" transform="translate(127.246094 0)"/>
       <use xlink:href="#DejaVuSans-30" transform="translate(159.033203 0)"/>
      </g>
     </g>
    </g>
    <g id="xtick_12">
     <g id="line2d_20">
      <g>
       <use xlink:href="#m1648066223" x="720.017689" y="257.158895" style="stroke: #000000; stroke-width: 0.8"/>
      </g>
     </g>
     <g id="text_21">
      <!-- 12.5 -->
      <g transform="translate(708.884877 271.757332) scale(0.1 -0.1)">
       <use xlink:href="#DejaVuSans-31"/>
       <use xlink:href="#DejaVuSans-32" transform="translate(63.623047 0)"/>
       <use xlink:href="#DejaVuSans-2e" transform="translate(127.246094 0)"/>
       <use xlink:href="#DejaVuSans-35" transform="translate(159.033203 0)"/>
      </g>
     </g>
    </g>
    <g id="xtick_13">
     <g id="line2d_21">
      <g>
       <use xlink:href="#m1648066223" x="763.330806" y="257.158895" style="stroke: #000000; stroke-width: 0.8"/>
      </g>
     </g>
     <g id="text_22">
      <!-- 15.0 -->
      <g transform="translate(752.197994 271.757332) scale(0.1 -0.1)">
       <use xlink:href="#DejaVuSans-31"/>
       <use xlink:href="#DejaVuSans-35" transform="translate(63.623047 0)"/>
       <use xlink:href="#DejaVuSans-2e" transform="translate(127.246094 0)"/>
       <use xlink:href="#DejaVuSans-30" transform="translate(159.033203 0)"/>
      </g>
     </g>
    </g>
    <g id="xtick_14">
     <g id="line2d_22">
      <g>
       <use xlink:href="#m1648066223" x="806.643923" y="257.158895" style="stroke: #000000; stroke-width: 0.8"/>
      </g>
     </g>
     <g id="text_23">
      <!-- 17.5 -->
      <g transform="translate(795.51111 271.757332) scale(0.1 -0.1)">
       <use xlink:href="#DejaVuSans-31"/>
       <use xlink:href="#DejaVuSans-37" transform="translate(63.623047 0)"/>
       <use xlink:href="#DejaVuSans-2e" transform="translate(127.246094 0)"/>
       <use xlink:href="#DejaVuSans-35" transform="translate(159.033203 0)"/>
      </g>
     </g>
    </g>
    <g id="xtick_15">
     <g id="line2d_23">
      <g>
       <use xlink:href="#m1648066223" x="849.957039" y="257.158895" style="stroke: #000000; stroke-width: 0.8"/>
      </g>
     </g>
     <g id="text_24">
      <!-- 20.0 -->
      <g transform="translate(838.824227 271.757332) scale(0.1 -0.1)">
       <use xlink:href="#DejaVuSans-32"/>
       <use xlink:href="#DejaVuSans-30" transform="translate(63.623047 0)"/>
       <use xlink:href="#DejaVuSans-2e" transform="translate(127.246094 0)"/>
       <use xlink:href="#DejaVuSans-30" transform="translate(159.033203 0)"/>
      </g>
     </g>
    </g>
    <g id="text_25">
     <!-- wavelength [Å] -->
     <g transform="translate(639.476827 287.119832) scale(0.1 -0.1)">
      <defs>
       <path id="DejaVuSans-77" d="M 269 3500 
L 844 3500 
L 1563 769 
L 2278 3500 
L 2956 3500 
L 3675 769 
L 4391 3500 
L 4966 3500 
L 4050 0 
L 3372 0 
L 2619 2869 
L 1863 0 
L 1184 0 
L 269 3500 
z
" transform="scale(0.015625)"/>
       <path id="DejaVuSans-61" d="M 2194 1759 
Q 1497 1759 1228 1600 
Q 959 1441 959 1056 
Q 959 750 1161 570 
Q 1363 391 1709 391 
Q 2188 391 2477 730 
Q 2766 1069 2766 1631 
L 2766 1759 
L 2194 1759 
z
M 3341 1997 
L 3341 0 
L 2766 0 
L 2766 531 
Q 2569 213 2275 61 
Q 1981 -91 1556 -91 
Q 1019 -91 701 211 
Q 384 513 384 1019 
Q 384 1609 779 1909 
Q 1175 2209 1959 2209 
L 2766 2209 
L 2766 2266 
Q 2766 2663 2505 2880 
Q 2244 3097 1772 3097 
Q 1472 3097 1187 3025 
Q 903 2953 641 2809 
L 641 3341 
Q 956 3463 1253 3523 
Q 1550 3584 1831 3584 
Q 2591 3584 2966 3190 
Q 3341 2797 3341 1997 
z
" transform="scale(0.015625)"/>
       <path id="DejaVuSans-76" d="M 191 3500 
L 800 3500 
L 1894 563 
L 2988 3500 
L 3597 3500 
L 2284 0 
L 1503 0 
L 191 3500 
z
" transform="scale(0.015625)"/>
       <path id="DejaVuSans-67" d="M 2906 1791 
Q 2906 2416 2648 2759 
Q 2391 3103 1925 3103 
Q 1463 3103 1205 2759 
Q 947 2416 947 1791 
Q 947 1169 1205 825 
Q 1463 481 1925 481 
Q 2391 481 2648 825 
Q 2906 1169 2906 1791 
z
M 3481 434 
Q 3481 -459 3084 -895 
Q 2688 -1331 1869 -1331 
Q 1566 -1331 1297 -1286 
Q 1028 -1241 775 -1147 
L 775 -588 
Q 1028 -725 1275 -790 
Q 1522 -856 1778 -856 
Q 2344 -856 2625 -561 
Q 2906 -266 2906 331 
L 2906 616 
Q 2728 306 2450 153 
Q 2172 0 1784 0 
Q 1141 0 747 490 
Q 353 981 353 1791 
Q 353 2603 747 3093 
Q 1141 3584 1784 3584 
Q 2172 3584 2450 3431 
Q 2728 3278 2906 2969 
L 2906 3500 
L 3481 3500 
L 3481 434 
z
" transform="scale(0.015625)"/>
       <path id="DejaVuSans-c5" d="M 2663 5081 
Q 2663 5278 2523 5417 
Q 2384 5556 2188 5556 
Q 1988 5556 1852 5420 
Q 1716 5284 1716 5081 
Q 1716 4884 1853 4746 
Q 1991 4609 2188 4609 
Q 2384 4609 2523 4746 
Q 2663 4884 2663 5081 
z
M 2188 4044 
L 1338 1722 
L 3041 1722 
L 2188 4044 
z
M 1716 4366 
Q 1525 4494 1428 4673 
Q 1331 4853 1331 5081 
Q 1331 5441 1579 5691 
Q 1828 5941 2188 5941 
Q 2544 5941 2795 5689 
Q 3047 5438 3047 5081 
Q 3047 4863 2948 4678 
Q 2850 4494 2663 4366 
L 4325 0 
L 3669 0 
L 3244 1197 
L 1141 1197 
L 716 0 
L 50 0 
L 1716 4366 
z
" transform="scale(0.015625)"/>
      </defs>
      <use xlink:href="#DejaVuSans-77"/>
      <use xlink:href="#DejaVuSans-61" transform="translate(81.787109 0)"/>
      <use xlink:href="#DejaVuSans-76" transform="translate(143.066406 0)"/>
      <use xlink:href="#DejaVuSans-65" transform="translate(202.246094 0)"/>
      <use xlink:href="#DejaVuSans-6c" transform="translate(263.769531 0)"/>
      <use xlink:href="#DejaVuSans-65" transform="translate(291.552734 0)"/>
      <use xlink:href="#DejaVuSans-6e" transform="translate(353.076172 0)"/>
      <use xlink:href="#DejaVuSans-67" transform="translate(416.455078 0)"/>
      <use xlink:href="#DejaVuSans-74" transform="translate(479.931641 0)"/>
      <use xlink:href="#DejaVuSans-68" transform="translate(519.140625 0)"/>
      <use xlink:href="#DejaVuSans-20" transform="translate(582.519531 0)"/>
      <use xlink:href="#DejaVuSans-5b" transform="translate(614.306641 0)"/>
      <use xlink:href="#DejaVuSans-c5" transform="translate(653.320312 0)"/>
      <use xlink:href="#DejaVuSans-5d" transform="translate(721.728516 0)"/>
     </g>
    </g>
   </g>
   <g id="matplotlib.axis_4">
    <g id="ytick_8">
     <g id="line2d_24">
      <g>
       <use xlink:href="#m7347389f15" x="489.829135" y="245.86099" style="stroke: #000000; stroke-width: 0.8"/>
      </g>
     </g>
     <g id="text_26">
      <!-- 0 -->
      <g transform="translate(476.466635 249.660209) scale(0.1 -0.1)">
       <use xlink:href="#DejaVuSans-30"/>
      </g>
     </g>
    </g>
    <g id="ytick_9">
     <g id="line2d_25">
      <g>
       <use xlink:href="#m7347389f15" x="489.829135" y="192.641786" style="stroke: #000000; stroke-width: 0.8"/>
      </g>
     </g>
     <g id="text_27">
      <!-- 5000 -->
      <g transform="translate(457.379135 196.441004) scale(0.1 -0.1)">
       <use xlink:href="#DejaVuSans-35"/>
       <use xlink:href="#DejaVuSans-30" transform="translate(63.623047 0)"/>
       <use xlink:href="#DejaVuSans-30" transform="translate(127.246094 0)"/>
       <use xlink:href="#DejaVuSans-30" transform="translate(190.869141 0)"/>
      </g>
     </g>
    </g>
    <g id="ytick_10">
     <g id="line2d_26">
      <g>
       <use xlink:href="#m7347389f15" x="489.829135" y="139.422581" style="stroke: #000000; stroke-width: 0.8"/>
      </g>
     </g>
     <g id="text_28">
      <!-- 10000 -->
      <g transform="translate(451.016635 143.2218) scale(0.1 -0.1)">
       <use xlink:href="#DejaVuSans-31"/>
       <use xlink:href="#DejaVuSans-30" transform="translate(63.623047 0)"/>
       <use xlink:href="#DejaVuSans-30" transform="translate(127.246094 0)"/>
       <use xlink:href="#DejaVuSans-30" transform="translate(190.869141 0)"/>
       <use xlink:href="#DejaVuSans-30" transform="translate(254.492188 0)"/>
      </g>
     </g>
    </g>
    <g id="ytick_11">
     <g id="line2d_27">
      <g>
       <use xlink:href="#m7347389f15" x="489.829135" y="86.203377" style="stroke: #000000; stroke-width: 0.8"/>
      </g>
     </g>
     <g id="text_29">
      <!-- 15000 -->
      <g transform="translate(451.016635 90.002596) scale(0.1 -0.1)">
       <use xlink:href="#DejaVuSans-31"/>
       <use xlink:href="#DejaVuSans-35" transform="translate(63.623047 0)"/>
       <use xlink:href="#DejaVuSans-30" transform="translate(127.246094 0)"/>
       <use xlink:href="#DejaVuSans-30" transform="translate(190.869141 0)"/>
       <use xlink:href="#DejaVuSans-30" transform="translate(254.492188 0)"/>
      </g>
     </g>
    </g>
    <g id="ytick_12">
     <g id="line2d_28">
      <g>
       <use xlink:href="#m7347389f15" x="489.829135" y="32.984172" style="stroke: #000000; stroke-width: 0.8"/>
      </g>
     </g>
     <g id="text_30">
      <!-- 20000 -->
      <g transform="translate(451.016635 36.783391) scale(0.1 -0.1)">
       <use xlink:href="#DejaVuSans-32"/>
       <use xlink:href="#DejaVuSans-30" transform="translate(63.623047 0)"/>
       <use xlink:href="#DejaVuSans-30" transform="translate(127.246094 0)"/>
       <use xlink:href="#DejaVuSans-30" transform="translate(190.869141 0)"/>
       <use xlink:href="#DejaVuSans-30" transform="translate(254.492188 0)"/>
      </g>
     </g>
    </g>
    <g id="text_31">
     <!-- pulse:0 [counts] -->
     <g transform="translate(444.936947 172.659916) rotate(-90) scale(0.1 -0.1)">
      <use xlink:href="#DejaVuSans-70"/>
      <use xlink:href="#DejaVuSans-75" transform="translate(63.476562 0)"/>
      <use xlink:href="#DejaVuSans-6c" transform="translate(126.855469 0)"/>
      <use xlink:href="#DejaVuSans-73" transform="translate(154.638672 0)"/>
      <use xlink:href="#DejaVuSans-65" transform="translate(206.738281 0)"/>
      <use xlink:href="#DejaVuSans-3a" transform="translate(268.261719 0)"/>
      <use xlink:href="#DejaVuSans-30" transform="translate(301.953125 0)"/>
      <use xlink:href="#DejaVuSans-20" transform="translate(365.576172 0)"/>
      <use xlink:href="#DejaVuSans-5b" transform="translate(397.363281 0)"/>
      <use xlink:href="#DejaVuSans-63" transform="translate(436.376953 0)"/>
      <use xlink:href="#DejaVuSans-6f" transform="translate(491.357422 0)"/>
      <use xlink:href="#DejaVuSans-75" transform="translate(552.539062 0)"/>
      <use xlink:href="#DejaVuSans-6e" transform="translate(615.917969 0)"/>
      <use xlink:href="#DejaVuSans-74" transform="translate(679.296875 0)"/>
      <use xlink:href="#DejaVuSans-73" transform="translate(718.505859 0)"/>
      <use xlink:href="#DejaVuSans-5d" transform="translate(770.605469 0)"/>
     </g>
    </g>
   </g>
   <g id="line2d_29">
    <path d="M 506.891425 151.354327 
L 508.028911 151.354327 
L 508.028911 144.07394 
L 509.166397 144.07394 
L 509.166397 137.9218 
L 510.303883 137.9218 
L 510.303883 136.963854 
L 511.441369 136.963854 
L 511.441369 144.414543 
L 512.578855 144.414543 
L 512.578855 153.52567 
L 513.716341 153.52567 
L 513.716341 148.054736 
L 514.853827 148.054736 
L 514.853827 126.596753 
L 515.991313 126.596753 
L 515.991313 102.371371 
L 517.128799 102.371371 
L 517.128799 80.817593 
L 518.266285 80.817593 
L 518.266285 57.358568 
L 519.403771 57.358568 
L 519.403771 34.995858 
L 520.541257 34.995858 
L 520.541257 20.616029 
L 521.678743 20.616029 
L 521.678743 18.561768 
L 522.816229 18.561768 
L 522.816229 18.732069 
L 523.953715 18.732069 
L 523.953715 22.393551 
L 525.091201 22.393551 
L 525.091201 25.533484 
L 526.228687 25.533484 
L 526.228687 37.209777 
L 527.366173 37.209777 
L 527.366173 47.300138 
L 528.50366 47.300138 
L 528.50366 57.326636 
L 529.641146 57.326636 
L 529.641146 69.492547 
L 530.778632 69.492547 
L 530.778632 76.368468 
L 531.916118 76.368468 
L 531.916118 82.094854 
L 533.053604 82.094854 
L 533.053604 88.1512 
L 534.19109 88.1512 
L 534.19109 93.026079 
L 535.328576 93.026079 
L 535.328576 95.346436 
L 536.466062 95.346436 
L 536.466062 96.538546 
L 537.603548 96.538546 
L 537.603548 91.961695 
L 538.741034 91.961695 
L 538.741034 90.077735 
L 539.87852 90.077735 
L 539.87852 86.448185 
L 541.016006 86.448185 
L 541.016006 77.603153 
L 542.153492 77.603153 
L 542.153492 67.108326 
L 543.290978 67.108326 
L 543.290978 60.211117 
L 544.428464 60.211117 
L 544.428464 47.065974 
L 545.56595 47.065974 
L 545.56595 40.339066 
L 546.703436 40.339066 
L 546.703436 32.388117 
L 547.840922 32.388117 
L 547.840922 33.260912 
L 548.978408 33.260912 
L 548.978408 40.12619 
L 550.115894 40.12619 
L 550.115894 50.142044 
L 551.25338 50.142044 
L 551.25338 59.178665 
L 552.390866 59.178665 
L 552.390866 69.971519 
L 553.528352 69.971519 
L 553.528352 79.614839 
L 554.665838 79.614839 
L 554.665838 86.224664 
L 555.803324 86.224664 
L 555.803324 97.347478 
L 556.94081 97.347478 
L 556.94081 101.754028 
L 558.078296 101.754028 
L 558.078296 110.854512 
L 559.215782 110.854512 
L 559.215782 114.78209 
L 560.353268 114.78209 
L 560.353268 122.647888 
L 561.490754 122.647888 
L 561.490754 130.236947 
L 562.62824 130.236947 
L 562.62824 135.665305 
L 563.765726 135.665305 
L 563.765726 140.44439 
L 564.903212 140.44439 
L 564.903212 147.469325 
L 566.040698 147.469325 
L 566.040698 152.173903 
L 567.178184 152.173903 
L 567.178184 157.240371 
L 568.31567 157.240371 
L 568.31567 160.295153 
L 569.453156 160.295153 
L 569.453156 163.882128 
L 570.590642 163.882128 
L 570.590642 168.757007 
L 571.728128 168.757007 
L 571.728128 171.609556 
L 572.865614 171.609556 
L 572.865614 175.036873 
L 574.0031 175.036873 
L 574.0031 180.380081 
L 575.140586 180.380081 
L 575.140586 183.402932 
L 576.278072 183.402932 
L 576.278072 184.882426 
L 577.415558 184.882426 
L 577.415558 189.012236 
L 578.553044 189.012236 
L 578.553044 190.928127 
L 579.69053 190.928127 
L 579.69053 194.227718 
L 580.828016 194.227718 
L 580.828016 196.324555 
L 581.965502 196.324555 
L 581.965502 198.304309 
L 583.102988 198.304309 
L 583.102988 199.070666 
L 584.240474 199.070666 
L 584.240474 202.529914 
L 585.37796 202.529914 
L 585.37796 204.520312 
L 586.515446 204.520312 
L 586.515446 207.06419 
L 587.652932 207.06419 
L 587.652932 208.522396 
L 588.790418 208.522396 
L 588.790418 209.852876 
L 589.927904 209.852876 
L 589.927904 210.289274 
L 591.06539 210.289274 
L 591.06539 212.641563 
L 592.202876 212.641563 
L 592.202876 213.386632 
L 593.340362 213.386632 
L 593.340362 215.824071 
L 594.477848 215.824071 
L 594.477848 216.728798 
L 595.615334 216.728798 
L 595.615334 218.431812 
L 596.75282 218.431812 
L 596.75282 219.347182 
L 597.890306 219.347182 
L 597.890306 219.762292 
L 599.027792 219.762292 
L 599.027792 221.497238 
L 601.302764 221.550458 
L 601.302764 223.115102 
L 602.44025 223.115102 
L 602.44025 225.201295 
L 603.577737 225.201295 
L 603.577737 224.307212 
L 604.715223 224.307212 
L 604.715223 225.360953 
L 605.852709 225.360953 
L 605.852709 226.978816 
L 606.990195 226.978816 
L 606.990195 227.489721 
L 609.265167 227.511008 
L 609.265167 229.022434 
L 610.402653 229.022434 
L 610.402653 229.352393 
L 611.540139 229.352393 
L 611.540139 229.490763 
L 612.677625 229.490763 
L 612.677625 230.863818 
L 613.815111 230.863818 
L 613.815111 230.587078 
L 614.952597 230.587078 
L 614.952597 231.406654 
L 616.090083 231.406654 
L 616.090083 232.534901 
L 617.227569 232.534901 
L 617.227569 232.290093 
L 618.365055 232.290093 
L 618.365055 233.386409 
L 619.502541 233.386409 
L 619.502541 233.514135 
L 620.640027 233.514135 
L 620.640027 233.631217 
L 621.777513 233.631217 
L 621.777513 234.876546 
L 622.914999 234.876546 
L 622.914999 235.323588 
L 624.052485 235.323588 
L 624.052485 234.833971 
L 625.189971 234.833971 
L 625.189971 235.504533 
L 627.464943 235.610971 
L 627.464943 236.505054 
L 629.739915 236.536985 
L 629.739915 237.111753 
L 630.877401 237.111753 
L 630.877401 237.54815 
L 634.289859 237.526863 
L 634.289859 238.612534 
L 636.564831 238.612534 
L 636.564831 238.314507 
L 637.702317 238.314507 
L 637.702317 238.623178 
L 638.839803 238.623178 
L 638.839803 239.187302 
L 639.977289 239.187302 
L 639.977289 239.602412 
L 642.252261 239.591768 
L 642.252261 239.794001 
L 643.389747 239.794001 
L 643.389747 239.974946 
L 644.527233 239.974946 
L 644.527233 240.826453 
L 645.664719 240.826453 
L 645.664719 240.166535 
L 646.802205 240.166535 
L 646.802205 240.76259 
L 650.214663 240.720015 
L 650.214663 240.53907 
L 651.352149 240.53907 
L 651.352149 241.252207 
L 652.489635 241.252207 
L 652.489635 241.497015 
L 653.627121 241.497015 
L 653.627121 241.209632 
L 655.902093 241.198988 
L 655.902093 241.465084 
L 658.177065 241.497015 
L 658.177065 241.603454 
L 659.314551 241.603454 
L 659.314551 241.773755 
L 660.452037 241.773755 
L 660.452037 241.646029 
L 661.589523 241.646029 
L 661.589523 242.465605 
L 662.727009 242.465605 
L 662.727009 242.220797 
L 665.001981 242.274016 
L 665.001981 242.433673 
L 666.139467 242.433673 
L 666.139467 242.210153 
L 667.276953 242.210153 
L 667.276953 242.689126 
L 668.414439 242.689126 
L 668.414439 242.433673 
L 669.551925 242.433673 
L 669.551925 242.891358 
L 670.689411 242.891358 
L 670.689411 242.731701 
L 671.826897 242.731701 
L 671.826897 243.221318 
L 672.964383 243.221318 
L 672.964383 242.731701 
L 674.101869 242.731701 
L 674.101869 243.125523 
L 675.239355 243.125523 
L 675.239355 243.306468 
L 677.514327 243.3384 
L 677.514327 243.551277 
L 678.651814 243.551277 
L 678.651814 243.285181 
L 679.7893 243.285181 
L 679.7893 243.710934 
L 680.926786 243.710934 
L 680.926786 243.423551 
L 682.064272 243.423551 
L 682.064272 243.593852 
L 684.339244 243.647071 
L 684.339244 243.75351 
L 686.614216 243.849304 
L 686.614216 243.604496 
L 687.751702 243.604496 
L 687.751702 243.83866 
L 690.026674 243.796085 
L 690.026674 244.168619 
L 691.16416 244.168619 
L 691.16416 244.008962 
L 692.301646 244.008962 
L 692.301646 244.179263 
L 693.439132 244.179263 
L 693.439132 243.913167 
L 694.576618 243.913167 
L 694.576618 244.456003 
L 695.714104 244.456003 
L 695.714104 244.338921 
L 696.85159 244.338921 
L 696.85159 244.211195 
L 697.989076 244.211195 
L 697.989076 244.39214 
L 699.126562 244.39214 
L 699.126562 244.179263 
L 702.53902 244.232482 
L 702.53902 244.370852 
L 707.088964 244.434715 
L 707.088964 244.509222 
L 708.22645 244.509222 
L 708.22645 244.66888 
L 709.363936 244.66888 
L 709.363936 244.413428 
L 711.638908 244.519866 
L 711.638908 244.796606 
L 712.776394 244.796606 
L 712.776394 244.605017 
L 713.91388 244.605017 
L 713.91388 244.881757 
L 715.051366 244.881757 
L 715.051366 244.551798 
L 716.188852 244.551798 
L 716.188852 244.934976 
L 717.326338 244.934976 
L 717.326338 244.754031 
L 723.013768 244.775318 
L 723.013768 244.903044 
L 724.151254 244.903044 
L 724.151254 244.732743 
L 725.28874 244.732743 
L 725.28874 245.073346 
L 729.838684 245.020127 
L 729.838684 244.94562 
L 730.97617 244.94562 
L 730.97617 245.115921 
L 741.213544 245.137209 
L 741.213544 245.254291 
L 746.900974 245.243647 
L 746.900974 245.382017 
L 756.000863 245.392661 
L 756.000863 245.073346 
L 757.138349 245.073346 
L 757.138349 245.30751 
L 758.275835 245.30751 
L 758.275835 245.477812 
L 761.688293 245.456524 
L 761.688293 245.286223 
L 762.825779 245.286223 
L 762.825779 245.456524 
L 769.650695 245.36073 
L 769.650695 245.616182 
L 770.788181 245.616182 
L 770.788181 245.392661 
L 773.063153 245.456524 
L 773.063153 245.541675 
L 788.987957 245.562963 
L 788.987957 245.669401 
L 790.125443 245.669401 
L 790.125443 245.520387 
L 794.675387 245.58425 
L 794.675387 245.637469 
L 795.812873 245.637469 
L 795.812873 245.520387 
L 800.362817 245.573606 
L 800.362817 245.637469 
L 815.150135 245.669401 
L 815.150135 245.765196 
L 823.112537 245.733264 
L 823.112537 245.626826 
L 828.799968 245.711976 
L 828.799968 245.743908 
L 848.13723 245.786483 
L 848.13723 245.786483 
" clip-path="url(#p5f44601946)" style="fill: none; stroke: #1f77b4; stroke-width: 1.5; stroke-linecap: square"/>
   </g>
   <g id="patch_8">
    <path d="M 489.829135 257.158895 
L 489.829135 7.2 
" style="fill: none; stroke: #000000; stroke-width: 0.8; stroke-linejoin: miter; stroke-linecap: square"/>
   </g>
   <g id="patch_9">
    <path d="M 865.19952 257.158895 
L 865.19952 7.2 
" style="fill: none; stroke: #000000; stroke-width: 0.8; stroke-linejoin: miter; stroke-linecap: square"/>
   </g>
   <g id="patch_10">
    <path d="M 489.829135 257.158895 
L 865.19952 257.158895 
" style="fill: none; stroke: #000000; stroke-width: 0.8; stroke-linejoin: miter; stroke-linecap: square"/>
   </g>
   <g id="patch_11">
    <path d="M 489.829135 7.2 
L 865.19952 7.2 
" style="fill: none; stroke: #000000; stroke-width: 0.8; stroke-linejoin: miter; stroke-linecap: square"/>
   </g>
  </g>
 </g>
 <defs>
  <clipPath id="pd98d9e1385">
   <rect x="53.328125" y="7.2" width="375.370385" height="249.958895"/>
  </clipPath>
  <clipPath id="p5f44601946">
   <rect x="489.829135" y="7.2" width="375.370385" height="249.958895"/>
  </clipPath>
 </defs>
</svg>
