<?xml version="1.0" encoding="utf-8" standalone="no"?>
<!DOCTYPE svg PUBLIC "-//W3C//DTD SVG 1.1//EN"
  "http://www.w3.org/Graphics/SVG/1.1/DTD/svg11.dtd">
<svg xmlns:xlink="http://www.w3.org/1999/xlink" width="872.39952pt" height="296.399012pt" viewBox="0 0 872.39952 296.399012" xmlns="http://www.w3.org/2000/svg" version="1.1">
 <metadata>
  <rdf:RDF xmlns:dc="http://purl.org/dc/elements/1.1/" xmlns:cc="http://creativecommons.org/ns#" xmlns:rdf="http://www.w3.org/1999/02/22-rdf-syntax-ns#">
   <cc:Work>
    <dc:type rdf:resource="http://purl.org/dc/dcmitype/StillImage"/>
    <dc:date>2025-11-13T11:11:57.742741</dc:date>
    <dc:format>image/svg+xml</dc:format>
    <dc:creator>
     <cc:Agent>
      <dc:title>Matplotlib v3.10.7, https://matplotlib.org/</dc:title>
     </cc:Agent>
    </dc:creator>
   </cc:Work>
  </rdf:RDF>
 </metadata>
 <defs>
  <style type="text/css">*{stroke-linejoin: round; stroke-linecap: butt}</style>
 </defs>
 <g id="figure_1">
  <g id="patch_1">
   <path d="M 0 296.399012 
L 872.39952 296.399012 
L 872.39952 0 
L 0 0 
z
" style="fill: #ffffff"/>
  </g>
  <g id="axes_1">
   <g id="patch_2">
    <path d="M 53.328125 257.158387 
L 414.59976 257.158387 
L 414.59976 9.893018 
L 53.328125 9.893018 
z
" style="fill: #ffffff"/>
   </g>
   <g id="matplotlib.axis_1">
    <g id="xtick_1">
     <g id="line2d_1">
      <defs>
       <path id="m39d22bca16" d="M 0 0 
L 0 3.5 
" style="stroke: #000000; stroke-width: 0.8"/>
      </defs>
      <g>
       <use xlink:href="#m39d22bca16" x="63.799361" y="257.158387" style="stroke: #000000; stroke-width: 0.8"/>
      </g>
     </g>
     <g id="text_1">
      <!-- 0 -->
      <g transform="translate(60.618111 271.756824) scale(0.1 -0.1)">
       <defs>
        <path id="DejaVuSans-30" d="M 2034 4250 
Q 1547 4250 1301 3770 
Q 1056 3291 1056 2328 
Q 1056 1369 1301 889 
Q 1547 409 2034 409 
Q 2525 409 2770 889 
Q 3016 1369 3016 2328 
Q 3016 3291 2770 3770 
Q 2525 4250 2034 4250 
z
M 2034 4750 
Q 2819 4750 3233 4129 
Q 3647 3509 3647 2328 
Q 3647 1150 3233 529 
Q 2819 -91 2034 -91 
Q 1250 -91 836 529 
Q 422 1150 422 2328 
Q 422 3509 836 4129 
Q 1250 4750 2034 4750 
z
" transform="scale(0.015625)"/>
       </defs>
       <use xlink:href="#DejaVuSans-30"/>
      </g>
     </g>
    </g>
    <g id="xtick_2">
     <g id="line2d_2">
      <g>
       <use xlink:href="#m39d22bca16" x="119.568554" y="257.158387" style="stroke: #000000; stroke-width: 0.8"/>
      </g>
     </g>
     <g id="text_2">
      <!-- 1000 -->
      <g transform="translate(106.843554 271.756824) scale(0.1 -0.1)">
       <defs>
        <path id="DejaVuSans-31" d="M 794 531 
L 1825 531 
L 1825 4091 
L 703 3866 
L 703 4441 
L 1819 4666 
L 2450 4666 
L 2450 531 
L 3481 531 
L 3481 0 
L 794 0 
L 794 531 
z
" transform="scale(0.015625)"/>
       </defs>
       <use xlink:href="#DejaVuSans-31"/>
       <use xlink:href="#DejaVuSans-30" transform="translate(63.623047 0)"/>
       <use xlink:href="#DejaVuSans-30" transform="translate(127.246094 0)"/>
       <use xlink:href="#DejaVuSans-30" transform="translate(190.869141 0)"/>
      </g>
     </g>
    </g>
    <g id="xtick_3">
     <g id="line2d_3">
      <g>
       <use xlink:href="#m39d22bca16" x="175.337748" y="257.158387" style="stroke: #000000; stroke-width: 0.8"/>
      </g>
     </g>
     <g id="text_3">
      <!-- 2000 -->
      <g transform="translate(162.612748 271.756824) scale(0.1 -0.1)">
       <defs>
        <path id="DejaVuSans-32" d="M 1228 531 
L 3431 531 
L 3431 0 
L 469 0 
L 469 531 
Q 828 903 1448 1529 
Q 2069 2156 2228 2338 
Q 2531 2678 2651 2914 
Q 2772 3150 2772 3378 
Q 2772 3750 2511 3984 
Q 2250 4219 1831 4219 
Q 1534 4219 1204 4116 
Q 875 4013 500 3803 
L 500 4441 
Q 881 4594 1212 4672 
Q 1544 4750 1819 4750 
Q 2544 4750 2975 4387 
Q 3406 4025 3406 3419 
Q 3406 3131 3298 2873 
Q 3191 2616 2906 2266 
Q 2828 2175 2409 1742 
Q 1991 1309 1228 531 
z
" transform="scale(0.015625)"/>
       </defs>
       <use xlink:href="#DejaVuSans-32"/>
       <use xlink:href="#DejaVuSans-30" transform="translate(63.623047 0)"/>
       <use xlink:href="#DejaVuSans-30" transform="translate(127.246094 0)"/>
       <use xlink:href="#DejaVuSans-30" transform="translate(190.869141 0)"/>
      </g>
     </g>
    </g>
    <g id="xtick_4">
     <g id="line2d_4">
      <g>
       <use xlink:href="#m39d22bca16" x="231.106941" y="257.158387" style="stroke: #000000; stroke-width: 0.8"/>
      </g>
     </g>
     <g id="text_4">
      <!-- 3000 -->
      <g transform="translate(218.381941 271.756824) scale(0.1 -0.1)">
       <defs>
        <path id="DejaVuSans-33" d="M 2597 2516 
Q 3050 2419 3304 2112 
Q 3559 1806 3559 1356 
Q 3559 666 3084 287 
Q 2609 -91 1734 -91 
Q 1441 -91 1130 -33 
Q 819 25 488 141 
L 488 750 
Q 750 597 1062 519 
Q 1375 441 1716 441 
Q 2309 441 2620 675 
Q 2931 909 2931 1356 
Q 2931 1769 2642 2001 
Q 2353 2234 1838 2234 
L 1294 2234 
L 1294 2753 
L 1863 2753 
Q 2328 2753 2575 2939 
Q 2822 3125 2822 3475 
Q 2822 3834 2567 4026 
Q 2313 4219 1838 4219 
Q 1578 4219 1281 4162 
Q 984 4106 628 3988 
L 628 4550 
Q 988 4650 1302 4700 
Q 1616 4750 1894 4750 
Q 2613 4750 3031 4423 
Q 3450 4097 3450 3541 
Q 3450 3153 3228 2886 
Q 3006 2619 2597 2516 
z
" transform="scale(0.015625)"/>
       </defs>
       <use xlink:href="#DejaVuSans-33"/>
       <use xlink:href="#DejaVuSans-30" transform="translate(63.623047 0)"/>
       <use xlink:href="#DejaVuSans-30" transform="translate(127.246094 0)"/>
       <use xlink:href="#DejaVuSans-30" transform="translate(190.869141 0)"/>
      </g>
     </g>
    </g>
    <g id="xtick_5">
     <g id="line2d_5">
      <g>
       <use xlink:href="#m39d22bca16" x="286.876135" y="257.158387" style="stroke: #000000; stroke-width: 0.8"/>
      </g>
     </g>
     <g id="text_5">
      <!-- 4000 -->
      <g transform="translate(274.151135 271.756824) scale(0.1 -0.1)">
       <defs>
        <path id="DejaVuSans-34" d="M 2419 4116 
L 825 1625 
L 2419 1625 
L 2419 4116 
z
M 2253 4666 
L 3047 4666 
L 3047 1625 
L 3713 1625 
L 3713 1100 
L 3047 1100 
L 3047 0 
L 2419 0 
L 2419 1100 
L 313 1100 
L 313 1709 
L 2253 4666 
z
" transform="scale(0.015625)"/>
       </defs>
       <use xlink:href="#DejaVuSans-34"/>
       <use xlink:href="#DejaVuSans-30" transform="translate(63.623047 0)"/>
       <use xlink:href="#DejaVuSans-30" transform="translate(127.246094 0)"/>
       <use xlink:href="#DejaVuSans-30" transform="translate(190.869141 0)"/>
      </g>
     </g>
    </g>
    <g id="xtick_6">
     <g id="line2d_6">
      <g>
       <use xlink:href="#m39d22bca16" x="342.645328" y="257.158387" style="stroke: #000000; stroke-width: 0.8"/>
      </g>
     </g>
     <g id="text_6">
      <!-- 5000 -->
      <g transform="translate(329.920328 271.756824) scale(0.1 -0.1)">
       <defs>
        <path id="DejaVuSans-35" d="M 691 4666 
L 3169 4666 
L 3169 4134 
L 1269 4134 
L 1269 2991 
Q 1406 3038 1543 3061 
Q 1681 3084 1819 3084 
Q 2600 3084 3056 2656 
Q 3513 2228 3513 1497 
Q 3513 744 3044 326 
Q 2575 -91 1722 -91 
Q 1428 -91 1123 -41 
Q 819 9 494 109 
L 494 744 
Q 775 591 1075 516 
Q 1375 441 1709 441 
Q 2250 441 2565 725 
Q 2881 1009 2881 1497 
Q 2881 1984 2565 2268 
Q 2250 2553 1709 2553 
Q 1456 2553 1204 2497 
Q 953 2441 691 2322 
L 691 4666 
z
" transform="scale(0.015625)"/>
       </defs>
       <use xlink:href="#DejaVuSans-35"/>
       <use xlink:href="#DejaVuSans-30" transform="translate(63.623047 0)"/>
       <use xlink:href="#DejaVuSans-30" transform="translate(127.246094 0)"/>
       <use xlink:href="#DejaVuSans-30" transform="translate(190.869141 0)"/>
      </g>
     </g>
    </g>
    <g id="xtick_7">
     <g id="line2d_7">
      <g>
       <use xlink:href="#m39d22bca16" x="398.414522" y="257.158387" style="stroke: #000000; stroke-width: 0.8"/>
      </g>
     </g>
     <g id="text_7">
      <!-- 6000 -->
      <g transform="translate(385.689522 271.756824) scale(0.1 -0.1)">
       <defs>
        <path id="DejaVuSans-36" d="M 2113 2584 
Q 1688 2584 1439 2293 
Q 1191 2003 1191 1497 
Q 1191 994 1439 701 
Q 1688 409 2113 409 
Q 2538 409 2786 701 
Q 3034 994 3034 1497 
Q 3034 2003 2786 2293 
Q 2538 2584 2113 2584 
z
M 3366 4563 
L 3366 3988 
Q 3128 4100 2886 4159 
Q 2644 4219 2406 4219 
Q 1781 4219 1451 3797 
Q 1122 3375 1075 2522 
Q 1259 2794 1537 2939 
Q 1816 3084 2150 3084 
Q 2853 3084 3261 2657 
Q 3669 2231 3669 1497 
Q 3669 778 3244 343 
Q 2819 -91 2113 -91 
Q 1303 -91 875 529 
Q 447 1150 447 2328 
Q 447 3434 972 4092 
Q 1497 4750 2381 4750 
Q 2619 4750 2861 4703 
Q 3103 4656 3366 4563 
z
" transform="scale(0.015625)"/>
       </defs>
       <use xlink:href="#DejaVuSans-36"/>
       <use xlink:href="#DejaVuSans-30" transform="translate(63.623047 0)"/>
       <use xlink:href="#DejaVuSans-30" transform="translate(127.246094 0)"/>
       <use xlink:href="#DejaVuSans-30" transform="translate(190.869141 0)"/>
      </g>
     </g>
    </g>
    <g id="text_8">
     <!-- birth_time [µs] -->
     <g transform="translate(197.14363 285.434949) scale(0.1 -0.1)">
      <defs>
       <path id="DejaVuSans-62" d="M 3116 1747 
Q 3116 2381 2855 2742 
Q 2594 3103 2138 3103 
Q 1681 3103 1420 2742 
Q 1159 2381 1159 1747 
Q 1159 1113 1420 752 
Q 1681 391 2138 391 
Q 2594 391 2855 752 
Q 3116 1113 3116 1747 
z
M 1159 2969 
Q 1341 3281 1617 3432 
Q 1894 3584 2278 3584 
Q 2916 3584 3314 3078 
Q 3713 2572 3713 1747 
Q 3713 922 3314 415 
Q 2916 -91 2278 -91 
Q 1894 -91 1617 61 
Q 1341 213 1159 525 
L 1159 0 
L 581 0 
L 581 4863 
L 1159 4863 
L 1159 2969 
z
" transform="scale(0.015625)"/>
       <path id="DejaVuSans-69" d="M 603 3500 
L 1178 3500 
L 1178 0 
L 603 0 
L 603 3500 
z
M 603 4863 
L 1178 4863 
L 1178 4134 
L 603 4134 
L 603 4863 
z
" transform="scale(0.015625)"/>
       <path id="DejaVuSans-72" d="M 2631 2963 
Q 2534 3019 2420 3045 
Q 2306 3072 2169 3072 
Q 1681 3072 1420 2755 
Q 1159 2438 1159 1844 
L 1159 0 
L 581 0 
L 581 3500 
L 1159 3500 
L 1159 2956 
Q 1341 3275 1631 3429 
Q 1922 3584 2338 3584 
Q 2397 3584 2469 3576 
Q 2541 3569 2628 3553 
L 2631 2963 
z
" transform="scale(0.015625)"/>
       <path id="DejaVuSans-74" d="M 1172 4494 
L 1172 3500 
L 2356 3500 
L 2356 3053 
L 1172 3053 
L 1172 1153 
Q 1172 725 1289 603 
Q 1406 481 1766 481 
L 2356 481 
L 2356 0 
L 1766 0 
Q 1100 0 847 248 
Q 594 497 594 1153 
L 594 3053 
L 172 3053 
L 172 3500 
L 594 3500 
L 594 4494 
L 1172 4494 
z
" transform="scale(0.015625)"/>
       <path id="DejaVuSans-68" d="M 3513 2113 
L 3513 0 
L 2938 0 
L 2938 2094 
Q 2938 2591 2744 2837 
Q 2550 3084 2163 3084 
Q 1697 3084 1428 2787 
Q 1159 2491 1159 1978 
L 1159 0 
L 581 0 
L 581 4863 
L 1159 4863 
L 1159 2956 
Q 1366 3272 1645 3428 
Q 1925 3584 2291 3584 
Q 2894 3584 3203 3211 
Q 3513 2838 3513 2113 
z
" transform="scale(0.015625)"/>
       <path id="DejaVuSans-5f" d="M 3263 -1063 
L 3263 -1509 
L -63 -1509 
L -63 -1063 
L 3263 -1063 
z
" transform="scale(0.015625)"/>
       <path id="DejaVuSans-6d" d="M 3328 2828 
Q 3544 3216 3844 3400 
Q 4144 3584 4550 3584 
Q 5097 3584 5394 3201 
Q 5691 2819 5691 2113 
L 5691 0 
L 5113 0 
L 5113 2094 
Q 5113 2597 4934 2840 
Q 4756 3084 4391 3084 
Q 3944 3084 3684 2787 
Q 3425 2491 3425 1978 
L 3425 0 
L 2847 0 
L 2847 2094 
Q 2847 2600 2669 2842 
Q 2491 3084 2119 3084 
Q 1678 3084 1418 2786 
Q 1159 2488 1159 1978 
L 1159 0 
L 581 0 
L 581 3500 
L 1159 3500 
L 1159 2956 
Q 1356 3278 1631 3431 
Q 1906 3584 2284 3584 
Q 2666 3584 2933 3390 
Q 3200 3197 3328 2828 
z
" transform="scale(0.015625)"/>
       <path id="DejaVuSans-65" d="M 3597 1894 
L 3597 1613 
L 953 1613 
Q 991 1019 1311 708 
Q 1631 397 2203 397 
Q 2534 397 2845 478 
Q 3156 559 3463 722 
L 3463 178 
Q 3153 47 2828 -22 
Q 2503 -91 2169 -91 
Q 1331 -91 842 396 
Q 353 884 353 1716 
Q 353 2575 817 3079 
Q 1281 3584 2069 3584 
Q 2775 3584 3186 3129 
Q 3597 2675 3597 1894 
z
M 3022 2063 
Q 3016 2534 2758 2815 
Q 2500 3097 2075 3097 
Q 1594 3097 1305 2825 
Q 1016 2553 972 2059 
L 3022 2063 
z
" transform="scale(0.015625)"/>
       <path id="DejaVuSans-20" transform="scale(0.015625)"/>
       <path id="DejaVuSans-5b" d="M 550 4863 
L 1875 4863 
L 1875 4416 
L 1125 4416 
L 1125 -397 
L 1875 -397 
L 1875 -844 
L 550 -844 
L 550 4863 
z
" transform="scale(0.015625)"/>
       <path id="DejaVuSans-b5" d="M 544 -1331 
L 544 3500 
L 1119 3500 
L 1119 1325 
Q 1119 872 1334 640 
Q 1550 409 1972 409 
Q 2434 409 2667 671 
Q 2900 934 2900 1459 
L 2900 3500 
L 3475 3500 
L 3475 806 
Q 3475 619 3529 530 
Q 3584 441 3700 441 
Q 3728 441 3778 458 
Q 3828 475 3916 513 
L 3916 50 
Q 3788 -22 3673 -56 
Q 3559 -91 3450 -91 
Q 3234 -91 3106 31 
Q 2978 153 2931 403 
Q 2775 156 2548 32 
Q 2322 -91 2016 -91 
Q 1697 -91 1473 31 
Q 1250 153 1119 397 
L 1119 -1331 
L 544 -1331 
z
" transform="scale(0.015625)"/>
       <path id="DejaVuSans-73" d="M 2834 3397 
L 2834 2853 
Q 2591 2978 2328 3040 
Q 2066 3103 1784 3103 
Q 1356 3103 1142 2972 
Q 928 2841 928 2578 
Q 928 2378 1081 2264 
Q 1234 2150 1697 2047 
L 1894 2003 
Q 2506 1872 2764 1633 
Q 3022 1394 3022 966 
Q 3022 478 2636 193 
Q 2250 -91 1575 -91 
Q 1294 -91 989 -36 
Q 684 19 347 128 
L 347 722 
Q 666 556 975 473 
Q 1284 391 1588 391 
Q 1994 391 2212 530 
Q 2431 669 2431 922 
Q 2431 1156 2273 1281 
Q 2116 1406 1581 1522 
L 1381 1569 
Q 847 1681 609 1914 
Q 372 2147 372 2553 
Q 372 3047 722 3315 
Q 1072 3584 1716 3584 
Q 2034 3584 2315 3537 
Q 2597 3491 2834 3397 
z
" transform="scale(0.015625)"/>
       <path id="DejaVuSans-5d" d="M 1947 4863 
L 1947 -844 
L 622 -844 
L 622 -397 
L 1369 -397 
L 1369 4416 
L 622 4416 
L 622 4863 
L 1947 4863 
z
" transform="scale(0.015625)"/>
      </defs>
      <use xlink:href="#DejaVuSans-62"/>
      <use xlink:href="#DejaVuSans-69" transform="translate(63.476562 0)"/>
      <use xlink:href="#DejaVuSans-72" transform="translate(91.259766 0)"/>
      <use xlink:href="#DejaVuSans-74" transform="translate(132.373047 0)"/>
      <use xlink:href="#DejaVuSans-68" transform="translate(171.582031 0)"/>
      <use xlink:href="#DejaVuSans-5f" transform="translate(234.960938 0)"/>
      <use xlink:href="#DejaVuSans-74" transform="translate(284.960938 0)"/>
      <use xlink:href="#DejaVuSans-69" transform="translate(324.169922 0)"/>
      <use xlink:href="#DejaVuSans-6d" transform="translate(351.953125 0)"/>
      <use xlink:href="#DejaVuSans-65" transform="translate(449.365234 0)"/>
      <use xlink:href="#DejaVuSans-20" transform="translate(510.888672 0)"/>
      <use xlink:href="#DejaVuSans-5b" transform="translate(542.675781 0)"/>
      <use xlink:href="#DejaVuSans-b5" transform="translate(581.689453 0)"/>
      <use xlink:href="#DejaVuSans-73" transform="translate(645.3125 0)"/>
      <use xlink:href="#DejaVuSans-5d" transform="translate(697.412109 0)"/>
     </g>
    </g>
   </g>
   <g id="matplotlib.axis_2">
    <g id="ytick_1">
     <g id="line2d_8">
      <defs>
       <path id="m23ba311456" d="M 0 0 
L -3.5 0 
" style="stroke: #000000; stroke-width: 0.8"/>
      </defs>
      <g>
       <use xlink:href="#m23ba311456" x="53.328125" y="247.439022" style="stroke: #000000; stroke-width: 0.8"/>
      </g>
     </g>
     <g id="text_9">
      <!-- 0 -->
      <g transform="translate(39.965625 251.238241) scale(0.1 -0.1)">
       <use xlink:href="#DejaVuSans-30"/>
      </g>
     </g>
    </g>
    <g id="ytick_2">
     <g id="line2d_9">
      <g>
       <use xlink:href="#m23ba311456" x="53.328125" y="213.661907" style="stroke: #000000; stroke-width: 0.8"/>
      </g>
     </g>
     <g id="text_10">
      <!-- 200 -->
      <g transform="translate(27.240625 217.461126) scale(0.1 -0.1)">
       <use xlink:href="#DejaVuSans-32"/>
       <use xlink:href="#DejaVuSans-30" transform="translate(63.623047 0)"/>
       <use xlink:href="#DejaVuSans-30" transform="translate(127.246094 0)"/>
      </g>
     </g>
    </g>
    <g id="ytick_3">
     <g id="line2d_10">
      <g>
       <use xlink:href="#m23ba311456" x="53.328125" y="179.884793" style="stroke: #000000; stroke-width: 0.8"/>
      </g>
     </g>
     <g id="text_11">
      <!-- 400 -->
      <g transform="translate(27.240625 183.684011) scale(0.1 -0.1)">
       <use xlink:href="#DejaVuSans-34"/>
       <use xlink:href="#DejaVuSans-30" transform="translate(63.623047 0)"/>
       <use xlink:href="#DejaVuSans-30" transform="translate(127.246094 0)"/>
      </g>
     </g>
    </g>
    <g id="ytick_4">
     <g id="line2d_11">
      <g>
       <use xlink:href="#m23ba311456" x="53.328125" y="146.107678" style="stroke: #000000; stroke-width: 0.8"/>
      </g>
     </g>
     <g id="text_12">
      <!-- 600 -->
      <g transform="translate(27.240625 149.906897) scale(0.1 -0.1)">
       <use xlink:href="#DejaVuSans-36"/>
       <use xlink:href="#DejaVuSans-30" transform="translate(63.623047 0)"/>
       <use xlink:href="#DejaVuSans-30" transform="translate(127.246094 0)"/>
      </g>
     </g>
    </g>
    <g id="ytick_5">
     <g id="line2d_12">
      <g>
       <use xlink:href="#m23ba311456" x="53.328125" y="112.330563" style="stroke: #000000; stroke-width: 0.8"/>
      </g>
     </g>
     <g id="text_13">
      <!-- 800 -->
      <g transform="translate(27.240625 116.129782) scale(0.1 -0.1)">
       <defs>
        <path id="DejaVuSans-38" d="M 2034 2216 
Q 1584 2216 1326 1975 
Q 1069 1734 1069 1313 
Q 1069 891 1326 650 
Q 1584 409 2034 409 
Q 2484 409 2743 651 
Q 3003 894 3003 1313 
Q 3003 1734 2745 1975 
Q 2488 2216 2034 2216 
z
M 1403 2484 
Q 997 2584 770 2862 
Q 544 3141 544 3541 
Q 544 4100 942 4425 
Q 1341 4750 2034 4750 
Q 2731 4750 3128 4425 
Q 3525 4100 3525 3541 
Q 3525 3141 3298 2862 
Q 3072 2584 2669 2484 
Q 3125 2378 3379 2068 
Q 3634 1759 3634 1313 
Q 3634 634 3220 271 
Q 2806 -91 2034 -91 
Q 1263 -91 848 271 
Q 434 634 434 1313 
Q 434 1759 690 2068 
Q 947 2378 1403 2484 
z
M 1172 3481 
Q 1172 3119 1398 2916 
Q 1625 2713 2034 2713 
Q 2441 2713 2670 2916 
Q 2900 3119 2900 3481 
Q 2900 3844 2670 4047 
Q 2441 4250 2034 4250 
Q 1625 4250 1398 4047 
Q 1172 3844 1172 3481 
z
" transform="scale(0.015625)"/>
       </defs>
       <use xlink:href="#DejaVuSans-38"/>
       <use xlink:href="#DejaVuSans-30" transform="translate(63.623047 0)"/>
       <use xlink:href="#DejaVuSans-30" transform="translate(127.246094 0)"/>
      </g>
     </g>
    </g>
    <g id="ytick_6">
     <g id="line2d_13">
      <g>
       <use xlink:href="#m23ba311456" x="53.328125" y="78.553448" style="stroke: #000000; stroke-width: 0.8"/>
      </g>
     </g>
     <g id="text_14">
      <!-- 1000 -->
      <g transform="translate(20.878125 82.352667) scale(0.1 -0.1)">
       <use xlink:href="#DejaVuSans-31"/>
       <use xlink:href="#DejaVuSans-30" transform="translate(63.623047 0)"/>
       <use xlink:href="#DejaVuSans-30" transform="translate(127.246094 0)"/>
       <use xlink:href="#DejaVuSans-30" transform="translate(190.869141 0)"/>
      </g>
     </g>
    </g>
    <g id="ytick_7">
     <g id="line2d_14">
      <g>
       <use xlink:href="#m23ba311456" x="53.328125" y="44.776334" style="stroke: #000000; stroke-width: 0.8"/>
      </g>
     </g>
     <g id="text_15">
      <!-- 1200 -->
      <g transform="translate(20.878125 48.575552) scale(0.1 -0.1)">
       <use xlink:href="#DejaVuSans-31"/>
       <use xlink:href="#DejaVuSans-32" transform="translate(63.623047 0)"/>
       <use xlink:href="#DejaVuSans-30" transform="translate(127.246094 0)"/>
       <use xlink:href="#DejaVuSans-30" transform="translate(190.869141 0)"/>
      </g>
     </g>
    </g>
    <g id="ytick_8">
     <g id="line2d_15">
      <g>
       <use xlink:href="#m23ba311456" x="53.328125" y="10.999219" style="stroke: #000000; stroke-width: 0.8"/>
      </g>
     </g>
     <g id="text_16">
      <!-- 1400 -->
      <g transform="translate(20.878125 14.798437) scale(0.1 -0.1)">
       <use xlink:href="#DejaVuSans-31"/>
       <use xlink:href="#DejaVuSans-34" transform="translate(63.623047 0)"/>
       <use xlink:href="#DejaVuSans-30" transform="translate(127.246094 0)"/>
       <use xlink:href="#DejaVuSans-30" transform="translate(190.869141 0)"/>
      </g>
     </g>
    </g>
    <g id="text_17">
     <!-- pulse:0 [counts] -->
     <g transform="translate(14.798438 174.006171) rotate(-90) scale(0.1 -0.1)">
      <defs>
       <path id="DejaVuSans-70" d="M 1159 525 
L 1159 -1331 
L 581 -1331 
L 581 3500 
L 1159 3500 
L 1159 2969 
Q 1341 3281 1617 3432 
Q 1894 3584 2278 3584 
Q 2916 3584 3314 3078 
Q 3713 2572 3713 1747 
Q 3713 922 3314 415 
Q 2916 -91 2278 -91 
Q 1894 -91 1617 61 
Q 1341 213 1159 525 
z
M 3116 1747 
Q 3116 2381 2855 2742 
Q 2594 3103 2138 3103 
Q 1681 3103 1420 2742 
Q 1159 2381 1159 1747 
Q 1159 1113 1420 752 
Q 1681 391 2138 391 
Q 2594 391 2855 752 
Q 3116 1113 3116 1747 
z
" transform="scale(0.015625)"/>
       <path id="DejaVuSans-75" d="M 544 1381 
L 544 3500 
L 1119 3500 
L 1119 1403 
Q 1119 906 1312 657 
Q 1506 409 1894 409 
Q 2359 409 2629 706 
Q 2900 1003 2900 1516 
L 2900 3500 
L 3475 3500 
L 3475 0 
L 2900 0 
L 2900 538 
Q 2691 219 2414 64 
Q 2138 -91 1772 -91 
Q 1169 -91 856 284 
Q 544 659 544 1381 
z
M 1991 3584 
L 1991 3584 
z
" transform="scale(0.015625)"/>
       <path id="DejaVuSans-6c" d="M 603 4863 
L 1178 4863 
L 1178 0 
L 603 0 
L 603 4863 
z
" transform="scale(0.015625)"/>
       <path id="DejaVuSans-3a" d="M 750 794 
L 1409 794 
L 1409 0 
L 750 0 
L 750 794 
z
M 750 3309 
L 1409 3309 
L 1409 2516 
L 750 2516 
L 750 3309 
z
" transform="scale(0.015625)"/>
       <path id="DejaVuSans-63" d="M 3122 3366 
L 3122 2828 
Q 2878 2963 2633 3030 
Q 2388 3097 2138 3097 
Q 1578 3097 1268 2742 
Q 959 2388 959 1747 
Q 959 1106 1268 751 
Q 1578 397 2138 397 
Q 2388 397 2633 464 
Q 2878 531 3122 666 
L 3122 134 
Q 2881 22 2623 -34 
Q 2366 -91 2075 -91 
Q 1284 -91 818 406 
Q 353 903 353 1747 
Q 353 2603 823 3093 
Q 1294 3584 2113 3584 
Q 2378 3584 2631 3529 
Q 2884 3475 3122 3366 
z
" transform="scale(0.015625)"/>
       <path id="DejaVuSans-6f" d="M 1959 3097 
Q 1497 3097 1228 2736 
Q 959 2375 959 1747 
Q 959 1119 1226 758 
Q 1494 397 1959 397 
Q 2419 397 2687 759 
Q 2956 1122 2956 1747 
Q 2956 2369 2687 2733 
Q 2419 3097 1959 3097 
z
M 1959 3584 
Q 2709 3584 3137 3096 
Q 3566 2609 3566 1747 
Q 3566 888 3137 398 
Q 2709 -91 1959 -91 
Q 1206 -91 779 398 
Q 353 888 353 1747 
Q 353 2609 779 3096 
Q 1206 3584 1959 3584 
z
" transform="scale(0.015625)"/>
       <path id="DejaVuSans-6e" d="M 3513 2113 
L 3513 0 
L 2938 0 
L 2938 2094 
Q 2938 2591 2744 2837 
Q 2550 3084 2163 3084 
Q 1697 3084 1428 2787 
Q 1159 2491 1159 1978 
L 1159 0 
L 581 0 
L 581 3500 
L 1159 3500 
L 1159 2956 
Q 1366 3272 1645 3428 
Q 1925 3584 2291 3584 
Q 2894 3584 3203 3211 
Q 3513 2838 3513 2113 
z
" transform="scale(0.015625)"/>
      </defs>
      <use xlink:href="#DejaVuSans-70"/>
      <use xlink:href="#DejaVuSans-75" transform="translate(63.476562 0)"/>
      <use xlink:href="#DejaVuSans-6c" transform="translate(126.855469 0)"/>
      <use xlink:href="#DejaVuSans-73" transform="translate(154.638672 0)"/>
      <use xlink:href="#DejaVuSans-65" transform="translate(206.738281 0)"/>
      <use xlink:href="#DejaVuSans-3a" transform="translate(268.261719 0)"/>
      <use xlink:href="#DejaVuSans-30" transform="translate(301.953125 0)"/>
      <use xlink:href="#DejaVuSans-20" transform="translate(365.576172 0)"/>
      <use xlink:href="#DejaVuSans-5b" transform="translate(397.363281 0)"/>
      <use xlink:href="#DejaVuSans-63" transform="translate(436.376953 0)"/>
      <use xlink:href="#DejaVuSans-6f" transform="translate(491.357422 0)"/>
      <use xlink:href="#DejaVuSans-75" transform="translate(552.539062 0)"/>
      <use xlink:href="#DejaVuSans-6e" transform="translate(615.917969 0)"/>
      <use xlink:href="#DejaVuSans-74" transform="translate(679.296875 0)"/>
      <use xlink:href="#DejaVuSans-73" transform="translate(718.505859 0)"/>
      <use xlink:href="#DejaVuSans-5d" transform="translate(770.605469 0)"/>
     </g>
    </g>
   </g>
   <g id="line2d_16">
    <path d="M 69.749563 245.750166 
L 71.939088 245.750166 
L 71.939088 242.54134 
L 73.033851 242.54134 
L 73.033851 243.047997 
L 74.128613 243.047997 
L 74.128613 240.683599 
L 75.223376 240.683599 
L 75.223376 239.839171 
L 76.318138 239.839171 
L 76.318138 236.292574 
L 77.412901 236.292574 
L 77.412901 233.928176 
L 78.507663 233.928176 
L 78.507663 235.448146 
L 79.602426 235.448146 
L 79.602426 234.097062 
L 80.697188 234.097062 
L 80.697188 230.550465 
L 81.791951 230.550465 
L 81.791951 229.368266 
L 82.886713 229.368266 
L 82.886713 226.834982 
L 83.981476 226.834982 
L 83.981476 227.003868 
L 85.076238 227.003868 
L 85.076238 220.923987 
L 86.171001 220.923987 
L 86.171001 227.848295 
L 87.265763 227.848295 
L 87.265763 223.963927 
L 88.360526 223.963927 
L 88.360526 221.430644 
L 89.455288 221.430644 
L 89.455288 220.755101 
L 90.550051 220.755101 
L 90.550051 219.572902 
L 91.644814 219.572902 
L 91.644814 212.817479 
L 92.739576 212.817479 
L 92.739576 214.506335 
L 93.834339 214.506335 
L 93.834339 215.519649 
L 94.929101 215.519649 
L 94.929101 207.07537 
L 96.023864 207.07537 
L 96.023864 209.101997 
L 97.118626 209.101997 
L 97.118626 206.230942 
L 98.213389 206.230942 
L 98.213389 207.413141 
L 99.308151 207.413141 
L 99.308151 204.542086 
L 100.402914 204.542086 
L 100.402914 203.528773 
L 101.497676 203.528773 
L 101.497676 202.515459 
L 102.592439 202.515459 
L 102.592439 193.564524 
L 103.687201 193.564524 
L 103.687201 196.77335 
L 104.781964 196.77335 
L 104.781964 194.915609 
L 105.876726 194.915609 
L 105.876726 197.617778 
L 106.971489 197.617778 
L 106.971489 195.928922 
L 108.066252 195.928922 
L 108.066252 191.200126 
L 109.161014 191.200126 
L 109.161014 194.408952 
L 110.255777 194.408952 
L 110.255777 189.004614 
L 111.350539 189.004614 
L 111.350539 188.835728 
L 112.445302 188.835728 
L 112.445302 189.51127 
L 113.540064 189.51127 
L 113.540064 186.640215 
L 114.634827 186.640215 
L 114.634827 186.133559 
L 115.729589 186.133559 
L 115.729589 180.391449 
L 116.824352 180.391449 
L 116.824352 180.72922 
L 117.919114 180.72922 
L 117.919114 179.884793 
L 119.013877 179.884793 
L 119.013877 172.453827 
L 120.108639 172.453827 
L 120.108639 177.351509 
L 121.203402 177.351509 
L 121.203402 167.049489 
L 122.298164 167.049489 
L 122.298164 172.284942 
L 123.392927 172.284942 
L 123.392927 169.920544 
L 124.487689 169.920544 
L 124.487689 169.076116 
L 125.582452 169.076116 
L 125.582452 173.298255 
L 126.677215 173.298255 
L 126.677215 164.178434 
L 127.771977 164.178434 
L 127.771977 168.400574 
L 128.86674 168.400574 
L 128.86674 164.178434 
L 129.961502 164.178434 
L 129.961502 164.34732 
L 131.056265 164.34732 
L 131.056265 164.516205 
L 132.151027 164.516205 
L 132.151027 156.916354 
L 133.24579 156.916354 
L 133.24579 160.800723 
L 134.340552 160.800723 
L 134.340552 149.654275 
L 135.435315 149.654275 
L 135.435315 155.227499 
L 136.530077 155.227499 
L 136.530077 158.436325 
L 137.62484 158.436325 
L 137.62484 160.12518 
L 138.719602 160.12518 
L 138.719602 154.214185 
L 139.814365 154.214185 
L 139.814365 147.289877 
L 140.909127 147.289877 
L 140.909127 153.538643 
L 142.00389 153.538643 
L 142.00389 153.707529 
L 143.098652 153.707529 
L 143.098652 146.445449 
L 144.193415 146.445449 
L 144.193415 150.329817 
L 145.288178 150.329817 
L 145.288178 149.992046 
L 146.38294 149.992046 
L 146.38294 141.716653 
L 147.477703 141.716653 
L 147.477703 131.245747 
L 148.572465 131.245747 
L 148.572465 130.232434 
L 149.667228 130.232434 
L 149.667228 132.427946 
L 150.76199 132.427946 
L 150.76199 128.712464 
L 151.856753 128.712464 
L 151.856753 137.494514 
L 152.951515 137.494514 
L 152.951515 132.090175 
L 154.046278 132.090175 
L 154.046278 130.401319 
L 155.14104 130.401319 
L 155.14104 126.516951 
L 156.235803 126.516951 
L 156.235803 128.205807 
L 157.330565 128.205807 
L 157.330565 125.165867 
L 158.425328 125.165867 
L 158.425328 119.085986 
L 159.52009 119.085986 
L 159.52009 120.268185 
L 160.614853 120.268185 
L 160.614853 126.516951 
L 161.709615 126.516951 
L 161.709615 130.401319 
L 162.804378 130.401319 
L 162.804378 131.245747 
L 163.899141 131.245747 
L 163.899141 126.685837 
L 164.993903 126.685837 
L 164.993903 127.868036 
L 166.088666 127.868036 
L 166.088666 116.552702 
L 167.183428 116.552702 
L 167.183428 107.09511 
L 168.278191 107.09511 
L 168.278191 114.35719 
L 169.372953 114.35719 
L 169.372953 104.05517 
L 170.467716 104.05517 
L 170.467716 108.783966 
L 171.562478 108.783966 
L 171.562478 99.664145 
L 172.657241 99.664145 
L 172.657241 106.757339 
L 173.752003 106.757339 
L 173.752003 100.339687 
L 174.846766 100.339687 
L 174.846766 101.353001 
L 175.941528 101.353001 
L 175.941528 97.299747 
L 177.036291 97.299747 
L 177.036291 100.508573 
L 178.131053 100.508573 
L 178.131053 103.041856 
L 179.225816 103.041856 
L 179.225816 98.819717 
L 180.320579 98.819717 
L 180.320579 91.388752 
L 181.415341 91.388752 
L 181.415341 83.113359 
L 182.510104 83.113359 
L 182.510104 91.050981 
L 183.604866 91.050981 
L 183.604866 96.455319 
L 184.699629 96.455319 
L 184.699629 88.01104 
L 185.794391 88.01104 
L 185.794391 84.9711 
L 186.889154 84.9711 
L 186.889154 87.842155 
L 187.983916 87.842155 
L 187.983916 78.722334 
L 189.078679 78.722334 
L 189.078679 84.295558 
L 190.173441 84.295558 
L 190.173441 74.331309 
L 191.268204 74.331309 
L 191.268204 79.397876 
L 192.362966 79.397876 
L 192.362966 83.45113 
L 193.457729 83.45113 
L 193.457729 73.824652 
L 194.552491 73.824652 
L 194.552491 76.864593 
L 195.647254 76.864593 
L 195.647254 78.553448 
L 196.742016 78.553448 
L 196.742016 72.642453 
L 197.836779 72.642453 
L 197.836779 72.811339 
L 198.931542 72.811339 
L 198.931542 65.88703 
L 200.026304 65.88703 
L 200.026304 75.513508 
L 201.121067 75.513508 
L 201.121067 65.380374 
L 202.215829 65.380374 
L 202.215829 63.184861 
L 203.310592 63.184861 
L 203.310592 59.469378 
L 204.405354 59.469378 
L 204.405354 59.131607 
L 205.500117 59.131607 
L 205.500117 50.687329 
L 206.594879 50.687329 
L 206.594879 54.740582 
L 207.689642 54.740582 
L 207.689642 65.549259 
L 208.784404 65.549259 
L 208.784404 56.260553 
L 209.879167 56.260553 
L 209.879167 55.247239 
L 210.973929 55.247239 
L 210.973929 52.713955 
L 212.068692 52.713955 
L 212.068692 49.336244 
L 213.163454 49.336244 
L 213.163454 48.322931 
L 214.258217 48.322931 
L 214.258217 43.425249 
L 215.352979 43.425249 
L 215.352979 44.607448 
L 216.447742 44.607448 
L 216.447742 42.580821 
L 217.542505 42.580821 
L 217.542505 53.896154 
L 218.637267 53.896154 
L 218.637267 44.269677 
L 219.73203 44.269677 
L 219.73203 48.829587 
L 220.826792 48.829587 
L 220.826792 33.798771 
L 221.921555 33.798771 
L 221.921555 33.629886 
L 223.016317 33.629886 
L 223.016317 36.50094 
L 224.11108 36.50094 
L 224.11108 25.861149 
L 225.205842 25.861149 
L 225.205842 31.434373 
L 226.300605 31.434373 
L 226.300605 35.994284 
L 227.395367 35.994284 
L 227.395367 37.007597 
L 228.49013 37.007597 
L 228.49013 32.447687 
L 229.584892 32.447687 
L 229.584892 21.132353 
L 230.679655 21.132353 
L 230.679655 31.096602 
L 231.774417 31.096602 
L 231.774417 22.821209 
L 232.86918 22.821209 
L 232.86918 25.861149 
L 233.963942 25.861149 
L 233.963942 41.398622 
L 235.058705 41.398622 
L 235.058705 29.407746 
L 236.153468 29.407746 
L 236.153468 21.63901 
L 237.24823 21.63901 
L 237.24823 27.550005 
L 238.342993 27.550005 
L 238.342993 34.305428 
L 239.437755 34.305428 
L 239.437755 29.576632 
L 240.532518 29.576632 
L 240.532518 28.90109 
L 241.62728 28.90109 
L 241.62728 24.003408 
L 242.722043 24.003408 
L 242.722043 30.927716 
L 243.816805 30.927716 
L 243.816805 45.114105 
L 244.911568 45.114105 
L 244.911568 39.034224 
L 246.00633 39.034224 
L 246.00633 41.567508 
L 247.101093 41.567508 
L 247.101093 40.891965 
L 248.195855 40.891965 
L 248.195855 41.567508 
L 249.290618 41.567508 
L 249.290618 56.767209 
L 250.38538 56.767209 
L 250.38538 49.336244 
L 251.480143 49.336244 
L 251.480143 44.100791 
L 252.574906 44.100791 
L 252.574906 40.047537 
L 253.669668 40.047537 
L 253.669668 53.727269 
L 254.764431 53.727269 
L 254.764431 52.376184 
L 255.859193 52.376184 
L 255.859193 55.078354 
L 256.953956 55.078354 
L 256.953956 41.398622 
L 258.048718 41.398622 
L 258.048718 50.180672 
L 259.143481 50.180672 
L 259.143481 57.949408 
L 260.238243 57.949408 
L 260.238243 40.216423 
L 261.333006 40.216423 
L 261.333006 45.620761 
L 262.427768 45.620761 
L 262.427768 64.704831 
L 263.522531 64.704831 
L 263.522531 57.273866 
L 264.617293 57.273866 
L 264.617293 60.482692 
L 265.712056 60.482692 
L 265.712056 67.238115 
L 266.806818 67.238115 
L 266.806818 67.744772 
L 267.901581 67.744772 
L 267.901581 78.384563 
L 268.996343 78.384563 
L 268.996343 75.851279 
L 270.091106 75.851279 
L 270.091106 72.811339 
L 271.185869 72.811339 
L 271.185869 82.437816 
L 273.375394 82.437816 
L 273.375394 72.980224 
L 274.470156 72.980224 
L 274.470156 86.828841 
L 275.564919 86.828841 
L 275.564919 76.864593 
L 276.659681 76.864593 
L 276.659681 83.788901 
L 277.754444 83.788901 
L 277.754444 88.686583 
L 278.849206 88.686583 
L 278.849206 92.739836 
L 279.943969 92.739836 
L 279.943969 85.646642 
L 281.038731 85.646642 
L 281.038731 97.975289 
L 282.133494 97.975289 
L 282.133494 85.308871 
L 283.228256 85.308871 
L 283.228256 90.71321 
L 284.323019 90.71321 
L 284.323019 94.090921 
L 285.417781 94.090921 
L 285.417781 88.686583 
L 286.512544 88.686583 
L 286.512544 94.090921 
L 287.607306 94.090921 
L 287.607306 92.908722 
L 288.702069 92.908722 
L 288.702069 99.326374 
L 289.796832 99.326374 
L 289.796832 102.028543 
L 290.891594 102.028543 
L 290.891594 110.135051 
L 291.986357 110.135051 
L 291.986357 109.966165 
L 293.081119 109.966165 
L 293.081119 103.886284 
L 294.175882 103.886284 
L 294.175882 102.028543 
L 295.270644 102.028543 
L 295.270644 107.601767 
L 296.365407 107.601767 
L 296.365407 112.499449 
L 297.460169 112.499449 
L 297.460169 115.708274 
L 298.554932 115.708274 
L 298.554932 114.526075 
L 299.649694 114.526075 
L 299.649694 111.148364 
L 300.744457 111.148364 
L 300.744457 111.655021 
L 301.839219 111.655021 
L 301.839219 107.601767 
L 302.933982 107.601767 
L 302.933982 118.410444 
L 304.028744 118.410444 
L 304.028744 112.499449 
L 305.123507 112.499449 
L 305.123507 122.294812 
L 306.218269 122.294812 
L 306.218269 124.321439 
L 307.313032 124.321439 
L 307.313032 123.983668 
L 308.407795 123.983668 
L 308.407795 127.361379 
L 309.502557 127.361379 
L 309.502557 133.272374 
L 310.59732 133.272374 
L 310.59732 128.712464 
L 311.692082 128.712464 
L 311.692082 131.414633 
L 312.786845 131.414633 
L 312.786845 130.570205 
L 313.881607 130.570205 
L 313.881607 135.974543 
L 314.97637 135.974543 
L 314.97637 128.036921 
L 316.071132 128.036921 
L 316.071132 133.610145 
L 317.165895 133.610145 
L 317.165895 139.352255 
L 318.260657 139.352255 
L 318.260657 134.96123 
L 319.35542 134.96123 
L 319.35542 142.054424 
L 320.450182 142.054424 
L 320.450182 141.547767 
L 321.544945 141.547767 
L 321.544945 139.858912 
L 322.639707 139.858912 
L 322.639707 142.729966 
L 323.73447 142.729966 
L 323.73447 150.160932 
L 324.829233 150.160932 
L 324.829233 147.289877 
L 327.018758 147.289877 
L 327.018758 156.240812 
L 328.11352 156.240812 
L 328.11352 159.618524 
L 329.208283 159.618524 
L 329.208283 156.916354 
L 330.303045 156.916354 
L 330.303045 158.774096 
L 331.397808 158.774096 
L 331.397808 157.254126 
L 332.49257 157.254126 
L 332.49257 153.707529 
L 333.587333 153.707529 
L 333.587333 160.12518 
L 334.682095 160.12518 
L 334.682095 166.542832 
L 335.776858 166.542832 
L 335.776858 161.476265 
L 336.87162 161.476265 
L 336.87162 163.502892 
L 337.966383 163.502892 
L 337.966383 166.880603 
L 339.061145 166.880603 
L 339.061145 167.049489 
L 340.155908 167.049489 
L 340.155908 178.702594 
L 341.25067 178.702594 
L 341.25067 168.569459 
L 342.345433 168.569459 
L 342.345433 170.596086 
L 343.440196 170.596086 
L 343.440196 177.858166 
L 344.534958 177.858166 
L 344.534958 168.738345 
L 345.629721 168.738345 
L 345.629721 182.924733 
L 346.724483 182.924733 
L 346.724483 178.364822 
L 347.819246 178.364822 
L 347.819246 180.898106 
L 348.914008 180.898106 
L 348.914008 183.938046 
L 350.008771 183.938046 
L 350.008771 184.275817 
L 351.103533 184.275817 
L 351.103533 182.586962 
L 352.198296 182.586962 
L 352.198296 177.858166 
L 353.293058 177.858166 
L 353.293058 188.329071 
L 354.387821 188.329071 
L 354.387821 195.760036 
L 355.482583 195.760036 
L 355.482583 195.591151 
L 356.577346 195.591151 
L 356.577346 189.004614 
L 357.672108 189.004614 
L 357.672108 191.537897 
L 358.766871 191.537897 
L 358.766871 195.25338 
L 359.861633 195.25338 
L 359.861633 193.395638 
L 360.956396 193.395638 
L 360.956396 195.25338 
L 362.051159 195.25338 
L 362.051159 198.462206 
L 363.145921 198.462206 
L 363.145921 206.568713 
L 364.240684 206.568713 
L 364.240684 200.151061 
L 365.335446 200.151061 
L 365.335446 205.5554 
L 366.430209 205.5554 
L 366.430209 206.230942 
L 367.524971 206.230942 
L 367.524971 206.062056 
L 368.619734 206.062056 
L 368.619734 209.101997 
L 369.714496 209.101997 
L 369.714496 208.426454 
L 370.809259 208.426454 
L 370.809259 213.155251 
L 371.904021 213.155251 
L 371.904021 210.959738 
L 372.998784 210.959738 
L 372.998784 213.493022 
L 374.093546 213.493022 
L 374.093546 219.572902 
L 375.188309 219.572902 
L 375.188309 214.33745 
L 376.283071 214.33745 
L 376.283071 216.870733 
L 378.472596 216.870733 
L 378.472596 222.781728 
L 379.567359 222.781728 
L 379.567359 221.261758 
L 380.662122 221.261758 
L 380.662122 226.834982 
L 381.756884 226.834982 
L 381.756884 226.15944 
L 382.851647 226.15944 
L 382.851647 226.497211 
L 383.946409 226.497211 
L 383.946409 225.990554 
L 385.041172 225.990554 
L 385.041172 229.874922 
L 386.135934 229.874922 
L 386.135934 232.577092 
L 387.230697 232.577092 
L 387.230697 231.901549 
L 388.325459 231.901549 
L 388.325459 234.603718 
L 389.420222 234.603718 
L 389.420222 235.785917 
L 390.514984 235.785917 
L 390.514984 237.812544 
L 391.609747 237.812544 
L 391.609747 238.488087 
L 392.704509 238.488087 
L 392.704509 240.683599 
L 393.799272 240.683599 
L 393.799272 241.865798 
L 394.894034 241.865798 
L 394.894034 242.879112 
L 395.988797 242.879112 
L 395.988797 244.736853 
L 397.08356 244.736853 
L 397.08356 245.919052 
L 398.178322 245.919052 
L 398.178322 245.919052 
" clip-path="url(#pfb25a0129a)" style="fill: none; stroke: #1f77b4; stroke-width: 1.5; stroke-linecap: square"/>
   </g>
   <g id="patch_3">
    <path d="M 53.328125 257.158387 
L 53.328125 9.893018 
" style="fill: none; stroke: #000000; stroke-width: 0.8; stroke-linejoin: miter; stroke-linecap: square"/>
   </g>
   <g id="patch_4">
    <path d="M 414.59976 257.158387 
L 414.59976 9.893018 
" style="fill: none; stroke: #000000; stroke-width: 0.8; stroke-linejoin: miter; stroke-linecap: square"/>
   </g>
   <g id="patch_5">
    <path d="M 53.328125 257.158387 
L 414.59976 257.158387 
" style="fill: none; stroke: #000000; stroke-width: 0.8; stroke-linejoin: miter; stroke-linecap: square"/>
   </g>
   <g id="patch_6">
    <path d="M 53.328125 9.893018 
L 414.59976 9.893018 
" style="fill: none; stroke: #000000; stroke-width: 0.8; stroke-linejoin: miter; stroke-linecap: square"/>
   </g>
  </g>
  <g id="axes_2">
   <g id="patch_7">
    <path d="M 503.927885 257.158387 
L 865.19952 257.158387 
L 865.19952 9.893018 
L 503.927885 9.893018 
z
" style="fill: #ffffff"/>
   </g>
   <g id="matplotlib.axis_3">
    <g id="xtick_8">
     <g id="line2d_17">
      <g>
       <use xlink:href="#m39d22bca16" x="520.348487" y="257.158387" style="stroke: #000000; stroke-width: 0.8"/>
      </g>
     </g>
     <g id="text_18">
      <!-- 1.0 -->
      <g transform="translate(512.396924 271.756824) scale(0.1 -0.1)">
       <defs>
        <path id="DejaVuSans-2e" d="M 684 794 
L 1344 794 
L 1344 0 
L 684 0 
L 684 794 
z
" transform="scale(0.015625)"/>
       </defs>
       <use xlink:href="#DejaVuSans-31"/>
       <use xlink:href="#DejaVuSans-2e" transform="translate(63.623047 0)"/>
       <use xlink:href="#DejaVuSans-30" transform="translate(95.410156 0)"/>
      </g>
     </g>
    </g>
    <g id="xtick_9">
     <g id="line2d_18">
      <g>
       <use xlink:href="#m39d22bca16" x="575.086848" y="257.158387" style="stroke: #000000; stroke-width: 0.8"/>
      </g>
     </g>
     <g id="text_19">
      <!-- 1.5 -->
      <g transform="translate(567.135286 271.756824) scale(0.1 -0.1)">
       <use xlink:href="#DejaVuSans-31"/>
       <use xlink:href="#DejaVuSans-2e" transform="translate(63.623047 0)"/>
       <use xlink:href="#DejaVuSans-35" transform="translate(95.410156 0)"/>
      </g>
     </g>
    </g>
    <g id="xtick_10">
     <g id="line2d_19">
      <g>
       <use xlink:href="#m39d22bca16" x="629.825209" y="257.158387" style="stroke: #000000; stroke-width: 0.8"/>
      </g>
     </g>
     <g id="text_20">
      <!-- 2.0 -->
      <g transform="translate(621.873647 271.756824) scale(0.1 -0.1)">
       <use xlink:href="#DejaVuSans-32"/>
       <use xlink:href="#DejaVuSans-2e" transform="translate(63.623047 0)"/>
       <use xlink:href="#DejaVuSans-30" transform="translate(95.410156 0)"/>
      </g>
     </g>
    </g>
    <g id="xtick_11">
     <g id="line2d_20">
      <g>
       <use xlink:href="#m39d22bca16" x="684.563571" y="257.158387" style="stroke: #000000; stroke-width: 0.8"/>
      </g>
     </g>
     <g id="text_21">
      <!-- 2.5 -->
      <g transform="translate(676.612008 271.756824) scale(0.1 -0.1)">
       <use xlink:href="#DejaVuSans-32"/>
       <use xlink:href="#DejaVuSans-2e" transform="translate(63.623047 0)"/>
       <use xlink:href="#DejaVuSans-35" transform="translate(95.410156 0)"/>
      </g>
     </g>
    </g>
    <g id="xtick_12">
     <g id="line2d_21">
      <g>
       <use xlink:href="#m39d22bca16" x="739.301932" y="257.158387" style="stroke: #000000; stroke-width: 0.8"/>
      </g>
     </g>
     <g id="text_22">
      <!-- 3.0 -->
      <g transform="translate(731.35037 271.756824) scale(0.1 -0.1)">
       <use xlink:href="#DejaVuSans-33"/>
       <use xlink:href="#DejaVuSans-2e" transform="translate(63.623047 0)"/>
       <use xlink:href="#DejaVuSans-30" transform="translate(95.410156 0)"/>
      </g>
     </g>
    </g>
    <g id="xtick_13">
     <g id="line2d_22">
      <g>
       <use xlink:href="#m39d22bca16" x="794.040293" y="257.158387" style="stroke: #000000; stroke-width: 0.8"/>
      </g>
     </g>
     <g id="text_23">
      <!-- 3.5 -->
      <g transform="translate(786.088731 271.756824) scale(0.1 -0.1)">
       <use xlink:href="#DejaVuSans-33"/>
       <use xlink:href="#DejaVuSans-2e" transform="translate(63.623047 0)"/>
       <use xlink:href="#DejaVuSans-35" transform="translate(95.410156 0)"/>
      </g>
     </g>
    </g>
    <g id="xtick_14">
     <g id="line2d_23">
      <g>
       <use xlink:href="#m39d22bca16" x="848.778655" y="257.158387" style="stroke: #000000; stroke-width: 0.8"/>
      </g>
     </g>
     <g id="text_24">
      <!-- 4.0 -->
      <g transform="translate(840.827092 271.756824) scale(0.1 -0.1)">
       <use xlink:href="#DejaVuSans-34"/>
       <use xlink:href="#DejaVuSans-2e" transform="translate(63.623047 0)"/>
       <use xlink:href="#DejaVuSans-30" transform="translate(95.410156 0)"/>
      </g>
     </g>
    </g>
    <g id="text_25">
     <!-- wavelength [Å] -->
     <g transform="translate(646.526202 287.119324) scale(0.1 -0.1)">
      <defs>
       <path id="DejaVuSans-77" d="M 269 3500 
L 844 3500 
L 1563 769 
L 2278 3500 
L 2956 3500 
L 3675 769 
L 4391 3500 
L 4966 3500 
L 4050 0 
L 3372 0 
L 2619 2869 
L 1863 0 
L 1184 0 
L 269 3500 
z
" transform="scale(0.015625)"/>
       <path id="DejaVuSans-61" d="M 2194 1759 
Q 1497 1759 1228 1600 
Q 959 1441 959 1056 
Q 959 750 1161 570 
Q 1363 391 1709 391 
Q 2188 391 2477 730 
Q 2766 1069 2766 1631 
L 2766 1759 
L 2194 1759 
z
M 3341 1997 
L 3341 0 
L 2766 0 
L 2766 531 
Q 2569 213 2275 61 
Q 1981 -91 1556 -91 
Q 1019 -91 701 211 
Q 384 513 384 1019 
Q 384 1609 779 1909 
Q 1175 2209 1959 2209 
L 2766 2209 
L 2766 2266 
Q 2766 2663 2505 2880 
Q 2244 3097 1772 3097 
Q 1472 3097 1187 3025 
Q 903 2953 641 2809 
L 641 3341 
Q 956 3463 1253 3523 
Q 1550 3584 1831 3584 
Q 2591 3584 2966 3190 
Q 3341 2797 3341 1997 
z
" transform="scale(0.015625)"/>
       <path id="DejaVuSans-76" d="M 191 3500 
L 800 3500 
L 1894 563 
L 2988 3500 
L 3597 3500 
L 2284 0 
L 1503 0 
L 191 3500 
z
" transform="scale(0.015625)"/>
       <path id="DejaVuSans-67" d="M 2906 1791 
Q 2906 2416 2648 2759 
Q 2391 3103 1925 3103 
Q 1463 3103 1205 2759 
Q 947 2416 947 1791 
Q 947 1169 1205 825 
Q 1463 481 1925 481 
Q 2391 481 2648 825 
Q 2906 1169 2906 1791 
z
M 3481 434 
Q 3481 -459 3084 -895 
Q 2688 -1331 1869 -1331 
Q 1566 -1331 1297 -1286 
Q 1028 -1241 775 -1147 
L 775 -588 
Q 1028 -725 1275 -790 
Q 1522 -856 1778 -856 
Q 2344 -856 2625 -561 
Q 2906 -266 2906 331 
L 2906 616 
Q 2728 306 2450 153 
Q 2172 0 1784 0 
Q 1141 0 747 490 
Q 353 981 353 1791 
Q 353 2603 747 3093 
Q 1141 3584 1784 3584 
Q 2172 3584 2450 3431 
Q 2728 3278 2906 2969 
L 2906 3500 
L 3481 3500 
L 3481 434 
z
" transform="scale(0.015625)"/>
       <path id="DejaVuSans-c5" d="M 2663 5081 
Q 2663 5278 2523 5417 
Q 2384 5556 2188 5556 
Q 1988 5556 1852 5420 
Q 1716 5284 1716 5081 
Q 1716 4884 1853 4746 
Q 1991 4609 2188 4609 
Q 2384 4609 2523 4746 
Q 2663 4884 2663 5081 
z
M 2188 4044 
L 1338 1722 
L 3041 1722 
L 2188 4044 
z
M 1716 4366 
Q 1525 4494 1428 4673 
Q 1331 4853 1331 5081 
Q 1331 5441 1579 5691 
Q 1828 5941 2188 5941 
Q 2544 5941 2795 5689 
Q 3047 5438 3047 5081 
Q 3047 4863 2948 4678 
Q 2850 4494 2663 4366 
L 4325 0 
L 3669 0 
L 3244 1197 
L 1141 1197 
L 716 0 
L 50 0 
L 1716 4366 
z
" transform="scale(0.015625)"/>
      </defs>
      <use xlink:href="#DejaVuSans-77"/>
      <use xlink:href="#DejaVuSans-61" transform="translate(81.787109 0)"/>
      <use xlink:href="#DejaVuSans-76" transform="translate(143.066406 0)"/>
      <use xlink:href="#DejaVuSans-65" transform="translate(202.246094 0)"/>
      <use xlink:href="#DejaVuSans-6c" transform="translate(263.769531 0)"/>
      <use xlink:href="#DejaVuSans-65" transform="translate(291.552734 0)"/>
      <use xlink:href="#DejaVuSans-6e" transform="translate(353.076172 0)"/>
      <use xlink:href="#DejaVuSans-67" transform="translate(416.455078 0)"/>
      <use xlink:href="#DejaVuSans-74" transform="translate(479.931641 0)"/>
      <use xlink:href="#DejaVuSans-68" transform="translate(519.140625 0)"/>
      <use xlink:href="#DejaVuSans-20" transform="translate(582.519531 0)"/>
      <use xlink:href="#DejaVuSans-5b" transform="translate(614.306641 0)"/>
      <use xlink:href="#DejaVuSans-c5" transform="translate(653.320312 0)"/>
      <use xlink:href="#DejaVuSans-5d" transform="translate(721.728516 0)"/>
     </g>
    </g>
   </g>
   <g id="matplotlib.axis_4">
    <g id="ytick_9">
     <g id="line2d_24">
      <g>
       <use xlink:href="#m23ba311456" x="503.927885" y="211.377361" style="stroke: #000000; stroke-width: 0.8"/>
      </g>
     </g>
     <g id="text_26">
      <!-- 400 -->
      <g transform="translate(477.840385 215.176579) scale(0.1 -0.1)">
       <use xlink:href="#DejaVuSans-34"/>
       <use xlink:href="#DejaVuSans-30" transform="translate(63.623047 0)"/>
       <use xlink:href="#DejaVuSans-30" transform="translate(127.246094 0)"/>
      </g>
     </g>
    </g>
    <g id="ytick_10">
     <g id="line2d_25">
      <g>
       <use xlink:href="#m23ba311456" x="503.927885" y="158.236297" style="stroke: #000000; stroke-width: 0.8"/>
      </g>
     </g>
     <g id="text_27">
      <!-- 600 -->
      <g transform="translate(477.840385 162.035516) scale(0.1 -0.1)">
       <use xlink:href="#DejaVuSans-36"/>
       <use xlink:href="#DejaVuSans-30" transform="translate(63.623047 0)"/>
       <use xlink:href="#DejaVuSans-30" transform="translate(127.246094 0)"/>
      </g>
     </g>
    </g>
    <g id="ytick_11">
     <g id="line2d_26">
      <g>
       <use xlink:href="#m23ba311456" x="503.927885" y="105.095234" style="stroke: #000000; stroke-width: 0.8"/>
      </g>
     </g>
     <g id="text_28">
      <!-- 800 -->
      <g transform="translate(477.840385 108.894452) scale(0.1 -0.1)">
       <use xlink:href="#DejaVuSans-38"/>
       <use xlink:href="#DejaVuSans-30" transform="translate(63.623047 0)"/>
       <use xlink:href="#DejaVuSans-30" transform="translate(127.246094 0)"/>
      </g>
     </g>
    </g>
    <g id="ytick_12">
     <g id="line2d_27">
      <g>
       <use xlink:href="#m23ba311456" x="503.927885" y="51.95417" style="stroke: #000000; stroke-width: 0.8"/>
      </g>
     </g>
     <g id="text_29">
      <!-- 1000 -->
      <g transform="translate(471.477885 55.753389) scale(0.1 -0.1)">
       <use xlink:href="#DejaVuSans-31"/>
       <use xlink:href="#DejaVuSans-30" transform="translate(63.623047 0)"/>
       <use xlink:href="#DejaVuSans-30" transform="translate(127.246094 0)"/>
       <use xlink:href="#DejaVuSans-30" transform="translate(190.869141 0)"/>
      </g>
     </g>
    </g>
    <g id="text_30">
     <!-- pulse:0 [counts] -->
     <g transform="translate(465.398197 174.006171) rotate(-90) scale(0.1 -0.1)">
      <use xlink:href="#DejaVuSans-70"/>
      <use xlink:href="#DejaVuSans-75" transform="translate(63.476562 0)"/>
      <use xlink:href="#DejaVuSans-6c" transform="translate(126.855469 0)"/>
      <use xlink:href="#DejaVuSans-73" transform="translate(154.638672 0)"/>
      <use xlink:href="#DejaVuSans-65" transform="translate(206.738281 0)"/>
      <use xlink:href="#DejaVuSans-3a" transform="translate(268.261719 0)"/>
      <use xlink:href="#DejaVuSans-30" transform="translate(301.953125 0)"/>
      <use xlink:href="#DejaVuSans-20" transform="translate(365.576172 0)"/>
      <use xlink:href="#DejaVuSans-5b" transform="translate(397.363281 0)"/>
      <use xlink:href="#DejaVuSans-63" transform="translate(436.376953 0)"/>
      <use xlink:href="#DejaVuSans-6f" transform="translate(491.357422 0)"/>
      <use xlink:href="#DejaVuSans-75" transform="translate(552.539062 0)"/>
      <use xlink:href="#DejaVuSans-6e" transform="translate(615.917969 0)"/>
      <use xlink:href="#DejaVuSans-74" transform="translate(679.296875 0)"/>
      <use xlink:href="#DejaVuSans-73" transform="translate(718.505859 0)"/>
      <use xlink:href="#DejaVuSans-5d" transform="translate(770.605469 0)"/>
     </g>
    </g>
   </g>
   <g id="line2d_28">
    <path d="M 520.349323 241.402061 
L 521.444085 241.402061 
L 521.444085 245.919052 
L 522.538848 245.919052 
L 522.538848 243.527704 
L 523.633611 243.527704 
L 523.633611 244.059115 
L 524.728373 244.059115 
L 524.728373 240.073535 
L 525.823136 240.073535 
L 525.823136 242.996293 
L 526.917898 242.996293 
L 526.917898 237.947892 
L 528.012661 237.947892 
L 528.012661 240.33924 
L 529.107423 240.33924 
L 529.107423 237.150776 
L 530.202186 237.150776 
L 530.202186 235.82225 
L 531.296948 235.82225 
L 531.296948 242.199177 
L 532.391711 242.199177 
L 532.391711 242.730588 
L 533.486473 242.730588 
L 533.486473 241.667767 
L 534.581236 241.667767 
L 534.581236 230.242438 
L 535.675998 230.242438 
L 535.675998 234.759429 
L 536.770761 234.759429 
L 536.770761 229.179617 
L 537.865523 229.179617 
L 537.865523 239.80783 
L 538.960286 239.80783 
L 538.960286 235.82225 
L 540.055048 235.82225 
L 540.055048 236.087955 
L 541.149811 236.087955 
L 541.149811 227.31968 
L 542.244574 227.31968 
L 542.244574 225.194037 
L 543.339336 225.194037 
L 543.339336 238.213598 
L 544.434099 238.213598 
L 544.434099 228.913912 
L 545.528861 228.913912 
L 545.528861 233.430902 
L 546.623624 233.430902 
L 546.623624 217.222878 
L 547.718386 217.222878 
L 547.718386 227.85109 
L 548.813149 227.85109 
L 548.813149 226.256858 
L 549.907911 226.256858 
L 549.907911 229.445322 
L 551.002674 229.445322 
L 551.002674 227.585385 
L 552.097436 227.585385 
L 552.097436 227.053974 
L 553.192199 227.053974 
L 553.192199 223.865511 
L 554.286961 223.865511 
L 554.286961 216.425762 
L 555.381724 216.425762 
L 555.381724 234.759429 
L 556.476486 234.759429 
L 556.476486 209.251718 
L 557.571249 209.251718 
L 557.571249 222.536984 
L 560.855537 222.536984 
L 560.855537 215.628646 
L 561.950299 215.628646 
L 561.950299 216.691467 
L 563.045062 216.691467 
L 563.045062 224.928332 
L 564.139824 224.928332 
L 564.139824 230.773849 
L 565.234587 230.773849 
L 565.234587 210.84595 
L 566.329349 210.84595 
L 566.329349 218.817109 
L 567.424112 218.817109 
L 567.424112 222.802689 
L 568.518874 222.802689 
L 568.518874 215.097235 
L 570.708399 215.097235 
L 570.708399 213.503003 
L 571.803162 213.503003 
L 571.803162 210.84595 
L 572.897924 210.84595 
L 572.897924 208.188897 
L 573.992687 208.188897 
L 573.992687 206.32896 
L 575.087449 206.32896 
L 575.087449 208.454602 
L 576.182212 208.454602 
L 576.182212 217.488583 
L 577.276975 217.488583 
L 577.276975 214.300119 
L 578.371737 214.300119 
L 578.371737 207.391781 
L 579.4665 207.391781 
L 579.4665 204.734728 
L 580.561262 204.734728 
L 580.561262 206.063254 
L 581.656025 206.063254 
L 581.656025 214.300119 
L 582.750787 214.300119 
L 582.750787 208.986013 
L 583.84555 208.986013 
L 583.84555 199.420621 
L 584.940312 199.420621 
L 584.940312 199.952032 
L 586.035075 199.952032 
L 586.035075 206.594665 
L 587.129837 206.594665 
L 587.129837 193.84081 
L 588.2246 193.84081 
L 588.2246 203.671906 
L 589.319362 203.671906 
L 589.319362 199.154916 
L 590.414125 199.154916 
L 590.414125 198.889211 
L 592.60365 198.889211 
L 592.60365 198.3578 
L 593.698412 198.3578 
L 593.698412 191.980872 
L 594.793175 191.980872 
L 594.793175 198.092095 
L 595.887938 198.092095 
L 595.887938 202.34338 
L 596.9827 202.34338 
L 596.9827 193.309399 
L 598.077463 193.309399 
L 598.077463 199.154916 
L 599.172225 199.154916 
L 599.172225 195.966452 
L 600.266988 195.966452 
L 600.266988 199.420621 
L 601.36175 199.420621 
L 601.36175 186.401061 
L 602.456513 186.401061 
L 602.456513 205.797549 
L 603.551275 205.797549 
L 603.551275 186.932471 
L 604.646038 186.932471 
L 604.646038 206.063254 
L 605.7408 206.063254 
L 605.7408 191.183756 
L 606.835563 191.183756 
L 606.835563 185.603945 
L 607.930325 185.603945 
L 607.930325 186.932471 
L 609.025088 186.932471 
L 609.025088 193.043694 
L 610.11985 193.043694 
L 610.11985 173.115795 
L 611.214613 173.115795 
L 611.214613 172.584384 
L 612.309375 172.584384 
L 612.309375 183.478302 
L 613.404138 183.478302 
L 613.404138 187.463882 
L 614.498901 187.463882 
L 614.498901 188.526703 
L 615.593663 188.526703 
L 615.593663 179.758428 
L 616.688426 179.758428 
L 616.688426 177.101375 
L 617.783188 177.101375 
L 617.783188 180.024133 
L 618.877951 180.024133 
L 618.877951 184.275418 
L 619.972713 184.275418 
L 619.972713 187.729587 
L 621.067476 187.729587 
L 621.067476 178.961312 
L 622.162238 178.961312 
L 622.162238 187.463882 
L 623.257001 187.463882 
L 623.257001 181.88407 
L 624.351763 181.88407 
L 624.351763 181.35266 
L 625.446526 181.35266 
L 625.446526 180.555544 
L 626.541288 180.555544 
L 626.541288 178.429901 
L 627.636051 178.429901 
L 627.636051 173.115795 
L 628.730813 173.115795 
L 628.730813 177.36708 
L 629.825576 177.36708 
L 629.825576 183.744008 
L 630.920339 183.744008 
L 630.920339 183.212597 
L 632.015101 183.212597 
L 632.015101 177.101375 
L 633.109864 177.101375 
L 633.109864 171.787268 
L 634.204626 171.787268 
L 634.204626 168.598804 
L 635.299389 168.598804 
L 635.299389 179.227017 
L 636.394151 179.227017 
L 636.394151 170.458742 
L 637.488914 170.458742 
L 637.488914 169.130215 
L 638.583676 169.130215 
L 638.583676 167.535983 
L 639.678439 167.535983 
L 639.678439 173.3815 
L 640.773201 173.3815 
L 640.773201 161.956172 
L 641.867964 161.956172 
L 641.867964 177.632785 
L 644.057489 177.632785 
L 644.057489 164.081814 
L 645.152251 164.081814 
L 645.152251 162.487582 
L 646.247014 162.487582 
L 646.247014 164.613225 
L 647.341776 164.613225 
L 647.341776 173.912911 
L 648.436539 173.912911 
L 648.436539 158.767708 
L 649.531302 158.767708 
L 649.531302 164.347519 
L 650.626064 164.347519 
L 650.626064 155.579244 
L 651.720827 155.579244 
L 651.720827 157.439181 
L 652.815589 157.439181 
L 652.815589 168.86451 
L 653.910352 168.86451 
L 653.910352 161.956172 
L 655.005114 161.956172 
L 655.005114 161.690466 
L 656.099877 161.690466 
L 656.099877 158.236297 
L 657.194639 158.236297 
L 657.194639 164.081814 
L 658.289402 164.081814 
L 658.289402 165.410341 
L 659.384164 165.410341 
L 659.384164 151.062253 
L 660.478927 151.062253 
L 660.478927 159.564824 
L 661.573689 159.564824 
L 661.573689 153.453601 
L 662.668452 153.453601 
L 662.668452 152.656485 
L 663.763214 152.656485 
L 663.763214 160.89335 
L 664.857977 160.89335 
L 664.857977 156.642065 
L 665.952739 156.642065 
L 665.952739 163.018993 
L 667.047502 163.018993 
L 667.047502 138.574104 
L 668.142265 138.574104 
L 668.142265 154.250717 
L 669.237027 154.250717 
L 669.237027 143.356799 
L 670.33179 143.356799 
L 670.33179 155.047833 
L 671.426552 155.047833 
L 671.426552 147.076674 
L 672.521315 147.076674 
L 672.521315 149.999432 
L 673.616077 149.999432 
L 673.616077 143.622505 
L 674.71084 143.622505 
L 674.71084 154.250717 
L 675.805602 154.250717 
L 675.805602 150.265138 
L 676.900365 150.265138 
L 676.900365 151.327959 
L 677.995127 151.327959 
L 677.995127 138.574104 
L 679.08989 138.574104 
L 679.08989 131.931471 
L 680.184652 131.931471 
L 680.184652 135.119934 
L 681.279415 135.119934 
L 681.279415 128.211596 
L 682.374177 128.211596 
L 682.374177 133.525703 
L 683.46894 133.525703 
L 683.46894 139.37122 
L 684.563702 139.37122 
L 684.563702 151.593664 
L 685.658465 151.593664 
L 685.658465 140.434041 
L 686.753228 140.434041 
L 686.753228 146.545263 
L 687.84799 146.545263 
L 687.84799 138.839809 
L 688.942753 138.839809 
L 688.942753 142.559683 
L 690.037515 142.559683 
L 690.037515 144.685326 
L 691.132278 144.685326 
L 691.132278 130.602944 
L 692.22704 130.602944 
L 692.22704 129.274417 
L 693.321803 129.274417 
L 693.321803 143.356799 
L 694.416565 143.356799 
L 694.416565 131.134355 
L 695.511328 131.134355 
L 695.511328 128.743007 
L 696.60609 128.743007 
L 696.60609 131.665765 
L 697.700853 131.665765 
L 697.700853 136.448461 
L 698.795615 136.448461 
L 698.795615 131.40006 
L 699.890378 131.40006 
L 699.890378 143.622505 
L 700.98514 143.622505 
L 700.98514 131.40006 
L 702.079903 131.40006 
L 702.079903 134.057113 
L 703.174666 134.057113 
L 703.174666 123.4289 
L 704.269428 123.4289 
L 704.269428 112.269277 
L 705.364191 112.269277 
L 705.364191 121.834669 
L 706.458953 121.834669 
L 706.458953 142.559683 
L 707.553716 142.559683 
L 707.553716 115.457741 
L 708.648478 115.457741 
L 708.648478 129.008712 
L 709.743241 129.008712 
L 709.743241 121.037553 
L 710.838003 121.037553 
L 710.838003 106.689465 
L 711.932766 106.689465 
L 711.932766 119.709026 
L 713.027528 119.709026 
L 713.027528 130.071533 
L 714.122291 130.071533 
L 714.122291 121.037553 
L 715.217053 121.037553 
L 715.217053 125.023132 
L 716.311816 125.023132 
L 716.311816 114.92633 
L 717.406578 114.92633 
L 717.406578 129.008712 
L 718.501341 129.008712 
L 718.501341 115.989152 
L 719.596103 115.989152 
L 719.596103 122.100374 
L 720.690866 122.100374 
L 720.690866 126.617364 
L 721.785629 126.617364 
L 721.785629 101.641064 
L 722.880391 101.641064 
L 722.880391 106.42376 
L 723.975154 106.42376 
L 723.975154 117.051973 
L 725.069916 117.051973 
L 725.069916 120.771847 
L 726.164679 120.771847 
L 726.164679 113.066393 
L 727.259441 113.066393 
L 727.259441 108.283697 
L 728.354204 108.283697 
L 728.354204 105.095234 
L 729.448966 105.095234 
L 729.448966 113.863509 
L 730.543729 113.863509 
L 730.543729 115.723446 
L 731.638491 115.723446 
L 731.638491 108.283697 
L 732.733254 108.283697 
L 732.733254 106.42376 
L 733.828016 106.42376 
L 733.828016 108.815108 
L 734.922779 108.815108 
L 734.922779 114.92633 
L 736.017541 114.92633 
L 736.017541 102.43818 
L 737.112304 102.43818 
L 737.112304 100.843948 
L 738.207066 100.843948 
L 738.207066 98.452601 
L 739.301829 98.452601 
L 739.301829 116.254857 
L 740.396592 116.254857 
L 740.396592 112.534982 
L 741.491354 112.534982 
L 741.491354 96.858369 
L 742.586117 96.858369 
L 742.586117 94.467021 
L 743.680879 94.467021 
L 743.680879 105.626644 
L 744.775642 105.626644 
L 744.775642 109.346519 
L 745.870404 109.346519 
L 745.870404 98.186895 
L 746.965167 98.186895 
L 746.965167 107.752287 
L 748.059929 107.752287 
L 748.059929 97.389779 
L 749.154692 97.389779 
L 749.154692 93.138494 
L 750.249454 93.138494 
L 750.249454 92.341378 
L 751.344217 92.341378 
L 751.344217 90.481441 
L 752.438979 90.481441 
L 752.438979 83.838808 
L 753.533742 83.838808 
L 753.533742 93.669905 
L 754.628504 93.669905 
L 754.628504 105.095234 
L 755.723267 105.095234 
L 755.723267 91.278557 
L 756.818029 91.278557 
L 756.818029 96.858369 
L 757.912792 96.858369 
L 757.912792 93.669905 
L 759.007555 93.669905 
L 759.007555 93.4042 
L 760.102317 93.4042 
L 760.102317 96.858369 
L 761.19708 96.858369 
L 761.19708 79.056112 
L 762.291842 79.056112 
L 762.291842 91.809968 
L 764.481367 91.809968 
L 764.481367 86.230156 
L 765.57613 86.230156 
L 765.57613 77.461881 
L 766.670892 77.461881 
L 766.670892 97.92119 
L 767.765655 97.92119 
L 767.765655 90.747146 
L 768.860417 90.747146 
L 768.860417 88.090093 
L 769.95518 88.090093 
L 769.95518 71.882069 
L 771.049942 71.882069 
L 771.049942 81.44746 
L 772.144705 81.44746 
L 772.144705 98.718306 
L 773.239467 98.718306 
L 773.239467 90.215736 
L 774.33423 90.215736 
L 774.33423 99.515422 
L 775.428993 99.515422 
L 775.428993 79.056112 
L 776.523755 79.056112 
L 776.523755 86.495861 
L 777.618518 86.495861 
L 777.618518 85.167335 
L 778.71328 85.167335 
L 778.71328 84.104513 
L 779.808043 84.104513 
L 779.808043 68.4279 
L 780.902805 68.4279 
L 780.902805 72.147774 
L 781.997568 72.147774 
L 781.997568 79.853228 
L 783.09233 79.853228 
L 783.09233 69.756426 
L 784.187093 69.756426 
L 784.187093 75.336238 
L 785.281855 75.336238 
L 785.281855 62.050972 
L 786.376618 62.050972 
L 786.376618 79.321818 
L 787.47138 79.321818 
L 787.47138 83.307397 
L 788.566143 83.307397 
L 788.566143 63.910909 
L 789.660905 63.910909 
L 789.660905 73.476301 
L 790.755668 73.476301 
L 790.755668 89.152914 
L 791.85043 89.152914 
L 791.85043 71.084953 
L 792.945193 71.084953 
L 792.945193 75.070533 
L 795.134718 75.070533 
L 795.134718 47.43718 
L 796.229481 47.43718 
L 796.229481 74.804827 
L 797.324243 74.804827 
L 797.324243 76.399059 
L 798.419006 76.399059 
L 798.419006 58.862508 
L 799.513768 58.862508 
L 799.513768 57.533982 
L 800.608531 57.533982 
L 800.608531 63.379499 
L 801.703293 63.379499 
L 801.703293 59.128214 
L 802.798056 59.128214 
L 802.798056 62.582383 
L 803.892818 62.582383 
L 803.892818 74.539122 
L 804.987581 74.539122 
L 804.987581 58.596803 
L 806.082343 58.596803 
L 806.082343 72.413479 
L 807.177106 72.413479 
L 807.177106 60.722445 
L 808.271868 60.722445 
L 808.271868 65.239436 
L 809.366631 65.239436 
L 809.366631 45.842948 
L 810.461393 45.842948 
L 810.461393 67.365078 
L 811.556156 67.365078 
L 811.556156 72.94489 
L 812.650919 72.94489 
L 812.650919 52.485581 
L 813.745681 52.485581 
L 813.745681 58.331098 
L 814.840444 58.331098 
L 814.840444 45.842948 
L 815.935206 45.842948 
L 815.935206 39.997431 
L 817.029969 39.997431 
L 817.029969 64.44232 
L 818.124731 64.44232 
L 818.124731 46.640064 
L 819.219494 46.640064 
L 819.219494 52.219875 
L 820.314256 52.219875 
L 820.314256 60.191035 
L 821.409019 60.191035 
L 821.409019 59.393919 
L 822.503781 59.393919 
L 822.503781 41.857368 
L 823.598544 41.857368 
L 823.598544 49.031412 
L 824.693306 49.031412 
L 824.693306 32.557682 
L 825.788069 32.557682 
L 825.788069 54.079813 
L 826.882831 54.079813 
L 826.882831 43.98301 
L 827.977594 43.98301 
L 827.977594 50.359938 
L 829.072356 50.359938 
L 829.072356 53.814107 
L 830.167119 53.814107 
L 830.167119 44.780126 
L 831.261882 44.780126 
L 831.261882 35.214735 
L 832.356644 35.214735 
L 832.356644 43.98301 
L 833.451407 43.98301 
L 833.451407 33.620503 
L 834.546169 33.620503 
L 834.546169 50.891349 
L 835.640932 50.891349 
L 835.640932 37.074672 
L 836.735694 37.074672 
L 836.735694 42.920189 
L 837.830457 42.920189 
L 837.830457 48.765706 
L 838.925219 48.765706 
L 838.925219 40.528841 
L 840.019982 40.528841 
L 840.019982 61.253856 
L 841.114744 61.253856 
L 841.114744 51.422759 
L 842.209507 51.422759 
L 842.209507 39.46602 
L 843.304269 39.46602 
L 843.304269 21.132353 
L 844.399032 21.132353 
L 844.399032 41.325957 
L 845.493794 41.325957 
L 845.493794 28.040691 
L 846.588557 28.040691 
L 846.588557 36.277556 
L 847.68332 36.277556 
L 847.68332 32.823387 
L 848.778082 32.823387 
L 848.778082 32.823387 
" clip-path="url(#p924357bb02)" style="fill: none; stroke: #1f77b4; stroke-width: 1.5; stroke-linecap: square"/>
   </g>
   <g id="patch_8">
    <path d="M 503.927885 257.158387 
L 503.927885 9.893018 
" style="fill: none; stroke: #000000; stroke-width: 0.8; stroke-linejoin: miter; stroke-linecap: square"/>
   </g>
   <g id="patch_9">
    <path d="M 865.19952 257.158387 
L 865.19952 9.893018 
" style="fill: none; stroke: #000000; stroke-width: 0.8; stroke-linejoin: miter; stroke-linecap: square"/>
   </g>
   <g id="patch_10">
    <path d="M 503.927885 257.158387 
L 865.19952 257.158387 
" style="fill: none; stroke: #000000; stroke-width: 0.8; stroke-linejoin: miter; stroke-linecap: square"/>
   </g>
   <g id="patch_11">
    <path d="M 503.927885 9.893018 
L 865.19952 9.893018 
" style="fill: none; stroke: #000000; stroke-width: 0.8; stroke-linejoin: miter; stroke-linecap: square"/>
   </g>
  </g>
 </g>
 <defs>
  <clipPath id="pfb25a0129a">
   <rect x="53.328125" y="9.893018" width="361.271635" height="247.265369"/>
  </clipPath>
  <clipPath id="p924357bb02">
   <rect x="503.927885" y="9.893018" width="361.271635" height="247.265369"/>
  </clipPath>
 </defs>
</svg>
