<?xml version="1.0" encoding="utf-8" standalone="no"?>
<!DOCTYPE svg PUBLIC "-//W3C//DTD SVG 1.1//EN"
  "http://www.w3.org/Graphics/SVG/1.1/DTD/svg11.dtd">
<svg xmlns:xlink="http://www.w3.org/1999/xlink" width="872.39952pt" height="296.39952pt" viewBox="0 0 872.39952 296.39952" xmlns="http://www.w3.org/2000/svg" version="1.1">
 <metadata>
  <rdf:RDF xmlns:dc="http://purl.org/dc/elements/1.1/" xmlns:cc="http://creativecommons.org/ns#" xmlns:rdf="http://www.w3.org/1999/02/22-rdf-syntax-ns#">
   <cc:Work>
    <dc:type rdf:resource="http://purl.org/dc/dcmitype/StillImage"/>
    <dc:date>2025-10-02T14:01:00.799101</dc:date>
    <dc:format>image/svg+xml</dc:format>
    <dc:creator>
     <cc:Agent>
      <dc:title>Matplotlib v3.10.1, https://matplotlib.org/</dc:title>
     </cc:Agent>
    </dc:creator>
   </cc:Work>
  </rdf:RDF>
 </metadata>
 <defs>
  <style type="text/css">*{stroke-linejoin: round; stroke-linecap: butt}</style>
 </defs>
 <g id="figure_1">
  <g id="patch_1">
   <path d="M 0 296.39952 
L 872.39952 296.39952 
L 872.39952 0 
L 0 0 
z
" style="fill: #ffffff"/>
  </g>
  <g id="axes_1">
   <g id="patch_2">
    <path d="M 53.328125 257.158895 
L 428.69851 257.158895 
L 428.69851 7.2 
L 53.328125 7.2 
z
" style="fill: #ffffff"/>
   </g>
   <g id="matplotlib.axis_1">
    <g id="xtick_1">
     <g id="line2d_1">
      <defs>
       <path id="m6ebfd05780" d="M 0 0 
L 0 3.5 
" style="stroke: #000000; stroke-width: 0.8"/>
      </defs>
      <g>
       <use xlink:href="#m6ebfd05780" x="69.533805" y="257.158895" style="stroke: #000000; stroke-width: 0.8"/>
      </g>
     </g>
     <g id="text_1">
      <!-- 0 -->
      <g transform="translate(66.352555 271.757332) scale(0.1 -0.1)">
       <defs>
        <path id="DejaVuSans-30" d="M 2034 4250 
Q 1547 4250 1301 3770 
Q 1056 3291 1056 2328 
Q 1056 1369 1301 889 
Q 1547 409 2034 409 
Q 2525 409 2770 889 
Q 3016 1369 3016 2328 
Q 3016 3291 2770 3770 
Q 2525 4250 2034 4250 
z
M 2034 4750 
Q 2819 4750 3233 4129 
Q 3647 3509 3647 2328 
Q 3647 1150 3233 529 
Q 2819 -91 2034 -91 
Q 1250 -91 836 529 
Q 422 1150 422 2328 
Q 422 3509 836 4129 
Q 1250 4750 2034 4750 
z
" transform="scale(0.015625)"/>
       </defs>
       <use xlink:href="#DejaVuSans-30"/>
      </g>
     </g>
    </g>
    <g id="xtick_2">
     <g id="line2d_2">
      <g>
       <use xlink:href="#m6ebfd05780" x="138.139849" y="257.158895" style="stroke: #000000; stroke-width: 0.8"/>
      </g>
     </g>
     <g id="text_2">
      <!-- 1000 -->
      <g transform="translate(125.414849 271.757332) scale(0.1 -0.1)">
       <defs>
        <path id="DejaVuSans-31" d="M 794 531 
L 1825 531 
L 1825 4091 
L 703 3866 
L 703 4441 
L 1819 4666 
L 2450 4666 
L 2450 531 
L 3481 531 
L 3481 0 
L 794 0 
L 794 531 
z
" transform="scale(0.015625)"/>
       </defs>
       <use xlink:href="#DejaVuSans-31"/>
       <use xlink:href="#DejaVuSans-30" transform="translate(63.623047 0)"/>
       <use xlink:href="#DejaVuSans-30" transform="translate(127.246094 0)"/>
       <use xlink:href="#DejaVuSans-30" transform="translate(190.869141 0)"/>
      </g>
     </g>
    </g>
    <g id="xtick_3">
     <g id="line2d_3">
      <g>
       <use xlink:href="#m6ebfd05780" x="206.745893" y="257.158895" style="stroke: #000000; stroke-width: 0.8"/>
      </g>
     </g>
     <g id="text_3">
      <!-- 2000 -->
      <g transform="translate(194.020893 271.757332) scale(0.1 -0.1)">
       <defs>
        <path id="DejaVuSans-32" d="M 1228 531 
L 3431 531 
L 3431 0 
L 469 0 
L 469 531 
Q 828 903 1448 1529 
Q 2069 2156 2228 2338 
Q 2531 2678 2651 2914 
Q 2772 3150 2772 3378 
Q 2772 3750 2511 3984 
Q 2250 4219 1831 4219 
Q 1534 4219 1204 4116 
Q 875 4013 500 3803 
L 500 4441 
Q 881 4594 1212 4672 
Q 1544 4750 1819 4750 
Q 2544 4750 2975 4387 
Q 3406 4025 3406 3419 
Q 3406 3131 3298 2873 
Q 3191 2616 2906 2266 
Q 2828 2175 2409 1742 
Q 1991 1309 1228 531 
z
" transform="scale(0.015625)"/>
       </defs>
       <use xlink:href="#DejaVuSans-32"/>
       <use xlink:href="#DejaVuSans-30" transform="translate(63.623047 0)"/>
       <use xlink:href="#DejaVuSans-30" transform="translate(127.246094 0)"/>
       <use xlink:href="#DejaVuSans-30" transform="translate(190.869141 0)"/>
      </g>
     </g>
    </g>
    <g id="xtick_4">
     <g id="line2d_4">
      <g>
       <use xlink:href="#m6ebfd05780" x="275.351936" y="257.158895" style="stroke: #000000; stroke-width: 0.8"/>
      </g>
     </g>
     <g id="text_4">
      <!-- 3000 -->
      <g transform="translate(262.626936 271.757332) scale(0.1 -0.1)">
       <defs>
        <path id="DejaVuSans-33" d="M 2597 2516 
Q 3050 2419 3304 2112 
Q 3559 1806 3559 1356 
Q 3559 666 3084 287 
Q 2609 -91 1734 -91 
Q 1441 -91 1130 -33 
Q 819 25 488 141 
L 488 750 
Q 750 597 1062 519 
Q 1375 441 1716 441 
Q 2309 441 2620 675 
Q 2931 909 2931 1356 
Q 2931 1769 2642 2001 
Q 2353 2234 1838 2234 
L 1294 2234 
L 1294 2753 
L 1863 2753 
Q 2328 2753 2575 2939 
Q 2822 3125 2822 3475 
Q 2822 3834 2567 4026 
Q 2313 4219 1838 4219 
Q 1578 4219 1281 4162 
Q 984 4106 628 3988 
L 628 4550 
Q 988 4650 1302 4700 
Q 1616 4750 1894 4750 
Q 2613 4750 3031 4423 
Q 3450 4097 3450 3541 
Q 3450 3153 3228 2886 
Q 3006 2619 2597 2516 
z
" transform="scale(0.015625)"/>
       </defs>
       <use xlink:href="#DejaVuSans-33"/>
       <use xlink:href="#DejaVuSans-30" transform="translate(63.623047 0)"/>
       <use xlink:href="#DejaVuSans-30" transform="translate(127.246094 0)"/>
       <use xlink:href="#DejaVuSans-30" transform="translate(190.869141 0)"/>
      </g>
     </g>
    </g>
    <g id="xtick_5">
     <g id="line2d_5">
      <g>
       <use xlink:href="#m6ebfd05780" x="343.95798" y="257.158895" style="stroke: #000000; stroke-width: 0.8"/>
      </g>
     </g>
     <g id="text_5">
      <!-- 4000 -->
      <g transform="translate(331.23298 271.757332) scale(0.1 -0.1)">
       <defs>
        <path id="DejaVuSans-34" d="M 2419 4116 
L 825 1625 
L 2419 1625 
L 2419 4116 
z
M 2253 4666 
L 3047 4666 
L 3047 1625 
L 3713 1625 
L 3713 1100 
L 3047 1100 
L 3047 0 
L 2419 0 
L 2419 1100 
L 313 1100 
L 313 1709 
L 2253 4666 
z
" transform="scale(0.015625)"/>
       </defs>
       <use xlink:href="#DejaVuSans-34"/>
       <use xlink:href="#DejaVuSans-30" transform="translate(63.623047 0)"/>
       <use xlink:href="#DejaVuSans-30" transform="translate(127.246094 0)"/>
       <use xlink:href="#DejaVuSans-30" transform="translate(190.869141 0)"/>
      </g>
     </g>
    </g>
    <g id="xtick_6">
     <g id="line2d_6">
      <g>
       <use xlink:href="#m6ebfd05780" x="412.564024" y="257.158895" style="stroke: #000000; stroke-width: 0.8"/>
      </g>
     </g>
     <g id="text_6">
      <!-- 5000 -->
      <g transform="translate(399.839024 271.757332) scale(0.1 -0.1)">
       <defs>
        <path id="DejaVuSans-35" d="M 691 4666 
L 3169 4666 
L 3169 4134 
L 1269 4134 
L 1269 2991 
Q 1406 3038 1543 3061 
Q 1681 3084 1819 3084 
Q 2600 3084 3056 2656 
Q 3513 2228 3513 1497 
Q 3513 744 3044 326 
Q 2575 -91 1722 -91 
Q 1428 -91 1123 -41 
Q 819 9 494 109 
L 494 744 
Q 775 591 1075 516 
Q 1375 441 1709 441 
Q 2250 441 2565 725 
Q 2881 1009 2881 1497 
Q 2881 1984 2565 2268 
Q 2250 2553 1709 2553 
Q 1456 2553 1204 2497 
Q 953 2441 691 2322 
L 691 4666 
z
" transform="scale(0.015625)"/>
       </defs>
       <use xlink:href="#DejaVuSans-35"/>
       <use xlink:href="#DejaVuSans-30" transform="translate(63.623047 0)"/>
       <use xlink:href="#DejaVuSans-30" transform="translate(127.246094 0)"/>
       <use xlink:href="#DejaVuSans-30" transform="translate(190.869141 0)"/>
      </g>
     </g>
    </g>
    <g id="text_7">
     <!-- birth_time [µs] -->
     <g transform="translate(204.193005 285.435457) scale(0.1 -0.1)">
      <defs>
       <path id="DejaVuSans-62" d="M 3116 1747 
Q 3116 2381 2855 2742 
Q 2594 3103 2138 3103 
Q 1681 3103 1420 2742 
Q 1159 2381 1159 1747 
Q 1159 1113 1420 752 
Q 1681 391 2138 391 
Q 2594 391 2855 752 
Q 3116 1113 3116 1747 
z
M 1159 2969 
Q 1341 3281 1617 3432 
Q 1894 3584 2278 3584 
Q 2916 3584 3314 3078 
Q 3713 2572 3713 1747 
Q 3713 922 3314 415 
Q 2916 -91 2278 -91 
Q 1894 -91 1617 61 
Q 1341 213 1159 525 
L 1159 0 
L 581 0 
L 581 4863 
L 1159 4863 
L 1159 2969 
z
" transform="scale(0.015625)"/>
       <path id="DejaVuSans-69" d="M 603 3500 
L 1178 3500 
L 1178 0 
L 603 0 
L 603 3500 
z
M 603 4863 
L 1178 4863 
L 1178 4134 
L 603 4134 
L 603 4863 
z
" transform="scale(0.015625)"/>
       <path id="DejaVuSans-72" d="M 2631 2963 
Q 2534 3019 2420 3045 
Q 2306 3072 2169 3072 
Q 1681 3072 1420 2755 
Q 1159 2438 1159 1844 
L 1159 0 
L 581 0 
L 581 3500 
L 1159 3500 
L 1159 2956 
Q 1341 3275 1631 3429 
Q 1922 3584 2338 3584 
Q 2397 3584 2469 3576 
Q 2541 3569 2628 3553 
L 2631 2963 
z
" transform="scale(0.015625)"/>
       <path id="DejaVuSans-74" d="M 1172 4494 
L 1172 3500 
L 2356 3500 
L 2356 3053 
L 1172 3053 
L 1172 1153 
Q 1172 725 1289 603 
Q 1406 481 1766 481 
L 2356 481 
L 2356 0 
L 1766 0 
Q 1100 0 847 248 
Q 594 497 594 1153 
L 594 3053 
L 172 3053 
L 172 3500 
L 594 3500 
L 594 4494 
L 1172 4494 
z
" transform="scale(0.015625)"/>
       <path id="DejaVuSans-68" d="M 3513 2113 
L 3513 0 
L 2938 0 
L 2938 2094 
Q 2938 2591 2744 2837 
Q 2550 3084 2163 3084 
Q 1697 3084 1428 2787 
Q 1159 2491 1159 1978 
L 1159 0 
L 581 0 
L 581 4863 
L 1159 4863 
L 1159 2956 
Q 1366 3272 1645 3428 
Q 1925 3584 2291 3584 
Q 2894 3584 3203 3211 
Q 3513 2838 3513 2113 
z
" transform="scale(0.015625)"/>
       <path id="DejaVuSans-5f" d="M 3263 -1063 
L 3263 -1509 
L -63 -1509 
L -63 -1063 
L 3263 -1063 
z
" transform="scale(0.015625)"/>
       <path id="DejaVuSans-6d" d="M 3328 2828 
Q 3544 3216 3844 3400 
Q 4144 3584 4550 3584 
Q 5097 3584 5394 3201 
Q 5691 2819 5691 2113 
L 5691 0 
L 5113 0 
L 5113 2094 
Q 5113 2597 4934 2840 
Q 4756 3084 4391 3084 
Q 3944 3084 3684 2787 
Q 3425 2491 3425 1978 
L 3425 0 
L 2847 0 
L 2847 2094 
Q 2847 2600 2669 2842 
Q 2491 3084 2119 3084 
Q 1678 3084 1418 2786 
Q 1159 2488 1159 1978 
L 1159 0 
L 581 0 
L 581 3500 
L 1159 3500 
L 1159 2956 
Q 1356 3278 1631 3431 
Q 1906 3584 2284 3584 
Q 2666 3584 2933 3390 
Q 3200 3197 3328 2828 
z
" transform="scale(0.015625)"/>
       <path id="DejaVuSans-65" d="M 3597 1894 
L 3597 1613 
L 953 1613 
Q 991 1019 1311 708 
Q 1631 397 2203 397 
Q 2534 397 2845 478 
Q 3156 559 3463 722 
L 3463 178 
Q 3153 47 2828 -22 
Q 2503 -91 2169 -91 
Q 1331 -91 842 396 
Q 353 884 353 1716 
Q 353 2575 817 3079 
Q 1281 3584 2069 3584 
Q 2775 3584 3186 3129 
Q 3597 2675 3597 1894 
z
M 3022 2063 
Q 3016 2534 2758 2815 
Q 2500 3097 2075 3097 
Q 1594 3097 1305 2825 
Q 1016 2553 972 2059 
L 3022 2063 
z
" transform="scale(0.015625)"/>
       <path id="DejaVuSans-20" transform="scale(0.015625)"/>
       <path id="DejaVuSans-5b" d="M 550 4863 
L 1875 4863 
L 1875 4416 
L 1125 4416 
L 1125 -397 
L 1875 -397 
L 1875 -844 
L 550 -844 
L 550 4863 
z
" transform="scale(0.015625)"/>
       <path id="DejaVuSans-b5" d="M 544 -1331 
L 544 3500 
L 1119 3500 
L 1119 1325 
Q 1119 872 1334 640 
Q 1550 409 1972 409 
Q 2434 409 2667 671 
Q 2900 934 2900 1459 
L 2900 3500 
L 3475 3500 
L 3475 806 
Q 3475 619 3529 530 
Q 3584 441 3700 441 
Q 3728 441 3778 458 
Q 3828 475 3916 513 
L 3916 50 
Q 3788 -22 3673 -56 
Q 3559 -91 3450 -91 
Q 3234 -91 3106 31 
Q 2978 153 2931 403 
Q 2775 156 2548 32 
Q 2322 -91 2016 -91 
Q 1697 -91 1473 31 
Q 1250 153 1119 397 
L 1119 -1331 
L 544 -1331 
z
" transform="scale(0.015625)"/>
       <path id="DejaVuSans-73" d="M 2834 3397 
L 2834 2853 
Q 2591 2978 2328 3040 
Q 2066 3103 1784 3103 
Q 1356 3103 1142 2972 
Q 928 2841 928 2578 
Q 928 2378 1081 2264 
Q 1234 2150 1697 2047 
L 1894 2003 
Q 2506 1872 2764 1633 
Q 3022 1394 3022 966 
Q 3022 478 2636 193 
Q 2250 -91 1575 -91 
Q 1294 -91 989 -36 
Q 684 19 347 128 
L 347 722 
Q 666 556 975 473 
Q 1284 391 1588 391 
Q 1994 391 2212 530 
Q 2431 669 2431 922 
Q 2431 1156 2273 1281 
Q 2116 1406 1581 1522 
L 1381 1569 
Q 847 1681 609 1914 
Q 372 2147 372 2553 
Q 372 3047 722 3315 
Q 1072 3584 1716 3584 
Q 2034 3584 2315 3537 
Q 2597 3491 2834 3397 
z
" transform="scale(0.015625)"/>
       <path id="DejaVuSans-5d" d="M 1947 4863 
L 1947 -844 
L 622 -844 
L 622 -397 
L 1369 -397 
L 1369 4416 
L 622 4416 
L 622 4863 
L 1947 4863 
z
" transform="scale(0.015625)"/>
      </defs>
      <use xlink:href="#DejaVuSans-62"/>
      <use xlink:href="#DejaVuSans-69" transform="translate(63.476562 0)"/>
      <use xlink:href="#DejaVuSans-72" transform="translate(91.259766 0)"/>
      <use xlink:href="#DejaVuSans-74" transform="translate(132.373047 0)"/>
      <use xlink:href="#DejaVuSans-68" transform="translate(171.582031 0)"/>
      <use xlink:href="#DejaVuSans-5f" transform="translate(234.960938 0)"/>
      <use xlink:href="#DejaVuSans-74" transform="translate(284.960938 0)"/>
      <use xlink:href="#DejaVuSans-69" transform="translate(324.169922 0)"/>
      <use xlink:href="#DejaVuSans-6d" transform="translate(351.953125 0)"/>
      <use xlink:href="#DejaVuSans-65" transform="translate(449.365234 0)"/>
      <use xlink:href="#DejaVuSans-20" transform="translate(510.888672 0)"/>
      <use xlink:href="#DejaVuSans-5b" transform="translate(542.675781 0)"/>
      <use xlink:href="#DejaVuSans-b5" transform="translate(581.689453 0)"/>
      <use xlink:href="#DejaVuSans-73" transform="translate(645.3125 0)"/>
      <use xlink:href="#DejaVuSans-5d" transform="translate(697.412109 0)"/>
     </g>
    </g>
   </g>
   <g id="matplotlib.axis_2">
    <g id="ytick_1">
     <g id="line2d_7">
      <defs>
       <path id="ma989b66bd8" d="M 0 0 
L -3.5 0 
" style="stroke: #000000; stroke-width: 0.8"/>
      </defs>
      <g>
       <use xlink:href="#ma989b66bd8" x="53.328125" y="246.025237" style="stroke: #000000; stroke-width: 0.8"/>
      </g>
     </g>
     <g id="text_8">
      <!-- 0 -->
      <g transform="translate(39.965625 249.824456) scale(0.1 -0.1)">
       <use xlink:href="#DejaVuSans-30"/>
      </g>
     </g>
    </g>
    <g id="ytick_2">
     <g id="line2d_8">
      <g>
       <use xlink:href="#ma989b66bd8" x="53.328125" y="208.00694" style="stroke: #000000; stroke-width: 0.8"/>
      </g>
     </g>
     <g id="text_9">
      <!-- 1000 -->
      <g transform="translate(20.878125 211.806159) scale(0.1 -0.1)">
       <use xlink:href="#DejaVuSans-31"/>
       <use xlink:href="#DejaVuSans-30" transform="translate(63.623047 0)"/>
       <use xlink:href="#DejaVuSans-30" transform="translate(127.246094 0)"/>
       <use xlink:href="#DejaVuSans-30" transform="translate(190.869141 0)"/>
      </g>
     </g>
    </g>
    <g id="ytick_3">
     <g id="line2d_9">
      <g>
       <use xlink:href="#ma989b66bd8" x="53.328125" y="169.988644" style="stroke: #000000; stroke-width: 0.8"/>
      </g>
     </g>
     <g id="text_10">
      <!-- 2000 -->
      <g transform="translate(20.878125 173.787862) scale(0.1 -0.1)">
       <use xlink:href="#DejaVuSans-32"/>
       <use xlink:href="#DejaVuSans-30" transform="translate(63.623047 0)"/>
       <use xlink:href="#DejaVuSans-30" transform="translate(127.246094 0)"/>
       <use xlink:href="#DejaVuSans-30" transform="translate(190.869141 0)"/>
      </g>
     </g>
    </g>
    <g id="ytick_4">
     <g id="line2d_10">
      <g>
       <use xlink:href="#ma989b66bd8" x="53.328125" y="131.970347" style="stroke: #000000; stroke-width: 0.8"/>
      </g>
     </g>
     <g id="text_11">
      <!-- 3000 -->
      <g transform="translate(20.878125 135.769566) scale(0.1 -0.1)">
       <use xlink:href="#DejaVuSans-33"/>
       <use xlink:href="#DejaVuSans-30" transform="translate(63.623047 0)"/>
       <use xlink:href="#DejaVuSans-30" transform="translate(127.246094 0)"/>
       <use xlink:href="#DejaVuSans-30" transform="translate(190.869141 0)"/>
      </g>
     </g>
    </g>
    <g id="ytick_5">
     <g id="line2d_11">
      <g>
       <use xlink:href="#ma989b66bd8" x="53.328125" y="93.95205" style="stroke: #000000; stroke-width: 0.8"/>
      </g>
     </g>
     <g id="text_12">
      <!-- 4000 -->
      <g transform="translate(20.878125 97.751269) scale(0.1 -0.1)">
       <use xlink:href="#DejaVuSans-34"/>
       <use xlink:href="#DejaVuSans-30" transform="translate(63.623047 0)"/>
       <use xlink:href="#DejaVuSans-30" transform="translate(127.246094 0)"/>
       <use xlink:href="#DejaVuSans-30" transform="translate(190.869141 0)"/>
      </g>
     </g>
    </g>
    <g id="ytick_6">
     <g id="line2d_12">
      <g>
       <use xlink:href="#ma989b66bd8" x="53.328125" y="55.933754" style="stroke: #000000; stroke-width: 0.8"/>
      </g>
     </g>
     <g id="text_13">
      <!-- 5000 -->
      <g transform="translate(20.878125 59.732972) scale(0.1 -0.1)">
       <use xlink:href="#DejaVuSans-35"/>
       <use xlink:href="#DejaVuSans-30" transform="translate(63.623047 0)"/>
       <use xlink:href="#DejaVuSans-30" transform="translate(127.246094 0)"/>
       <use xlink:href="#DejaVuSans-30" transform="translate(190.869141 0)"/>
      </g>
     </g>
    </g>
    <g id="ytick_7">
     <g id="line2d_13">
      <g>
       <use xlink:href="#ma989b66bd8" x="53.328125" y="17.915457" style="stroke: #000000; stroke-width: 0.8"/>
      </g>
     </g>
     <g id="text_14">
      <!-- 6000 -->
      <g transform="translate(20.878125 21.714676) scale(0.1 -0.1)">
       <defs>
        <path id="DejaVuSans-36" d="M 2113 2584 
Q 1688 2584 1439 2293 
Q 1191 2003 1191 1497 
Q 1191 994 1439 701 
Q 1688 409 2113 409 
Q 2538 409 2786 701 
Q 3034 994 3034 1497 
Q 3034 2003 2786 2293 
Q 2538 2584 2113 2584 
z
M 3366 4563 
L 3366 3988 
Q 3128 4100 2886 4159 
Q 2644 4219 2406 4219 
Q 1781 4219 1451 3797 
Q 1122 3375 1075 2522 
Q 1259 2794 1537 2939 
Q 1816 3084 2150 3084 
Q 2853 3084 3261 2657 
Q 3669 2231 3669 1497 
Q 3669 778 3244 343 
Q 2819 -91 2113 -91 
Q 1303 -91 875 529 
Q 447 1150 447 2328 
Q 447 3434 972 4092 
Q 1497 4750 2381 4750 
Q 2619 4750 2861 4703 
Q 3103 4656 3366 4563 
z
" transform="scale(0.015625)"/>
       </defs>
       <use xlink:href="#DejaVuSans-36"/>
       <use xlink:href="#DejaVuSans-30" transform="translate(63.623047 0)"/>
       <use xlink:href="#DejaVuSans-30" transform="translate(127.246094 0)"/>
       <use xlink:href="#DejaVuSans-30" transform="translate(190.869141 0)"/>
      </g>
     </g>
    </g>
    <g id="text_15">
     <!-- pulse:0 [counts] -->
     <g transform="translate(14.798438 172.659916) rotate(-90) scale(0.1 -0.1)">
      <defs>
       <path id="DejaVuSans-70" d="M 1159 525 
L 1159 -1331 
L 581 -1331 
L 581 3500 
L 1159 3500 
L 1159 2969 
Q 1341 3281 1617 3432 
Q 1894 3584 2278 3584 
Q 2916 3584 3314 3078 
Q 3713 2572 3713 1747 
Q 3713 922 3314 415 
Q 2916 -91 2278 -91 
Q 1894 -91 1617 61 
Q 1341 213 1159 525 
z
M 3116 1747 
Q 3116 2381 2855 2742 
Q 2594 3103 2138 3103 
Q 1681 3103 1420 2742 
Q 1159 2381 1159 1747 
Q 1159 1113 1420 752 
Q 1681 391 2138 391 
Q 2594 391 2855 752 
Q 3116 1113 3116 1747 
z
" transform="scale(0.015625)"/>
       <path id="DejaVuSans-75" d="M 544 1381 
L 544 3500 
L 1119 3500 
L 1119 1403 
Q 1119 906 1312 657 
Q 1506 409 1894 409 
Q 2359 409 2629 706 
Q 2900 1003 2900 1516 
L 2900 3500 
L 3475 3500 
L 3475 0 
L 2900 0 
L 2900 538 
Q 2691 219 2414 64 
Q 2138 -91 1772 -91 
Q 1169 -91 856 284 
Q 544 659 544 1381 
z
M 1991 3584 
L 1991 3584 
z
" transform="scale(0.015625)"/>
       <path id="DejaVuSans-6c" d="M 603 4863 
L 1178 4863 
L 1178 0 
L 603 0 
L 603 4863 
z
" transform="scale(0.015625)"/>
       <path id="DejaVuSans-3a" d="M 750 794 
L 1409 794 
L 1409 0 
L 750 0 
L 750 794 
z
M 750 3309 
L 1409 3309 
L 1409 2516 
L 750 2516 
L 750 3309 
z
" transform="scale(0.015625)"/>
       <path id="DejaVuSans-63" d="M 3122 3366 
L 3122 2828 
Q 2878 2963 2633 3030 
Q 2388 3097 2138 3097 
Q 1578 3097 1268 2742 
Q 959 2388 959 1747 
Q 959 1106 1268 751 
Q 1578 397 2138 397 
Q 2388 397 2633 464 
Q 2878 531 3122 666 
L 3122 134 
Q 2881 22 2623 -34 
Q 2366 -91 2075 -91 
Q 1284 -91 818 406 
Q 353 903 353 1747 
Q 353 2603 823 3093 
Q 1294 3584 2113 3584 
Q 2378 3584 2631 3529 
Q 2884 3475 3122 3366 
z
" transform="scale(0.015625)"/>
       <path id="DejaVuSans-6f" d="M 1959 3097 
Q 1497 3097 1228 2736 
Q 959 2375 959 1747 
Q 959 1119 1226 758 
Q 1494 397 1959 397 
Q 2419 397 2687 759 
Q 2956 1122 2956 1747 
Q 2956 2369 2687 2733 
Q 2419 3097 1959 3097 
z
M 1959 3584 
Q 2709 3584 3137 3096 
Q 3566 2609 3566 1747 
Q 3566 888 3137 398 
Q 2709 -91 1959 -91 
Q 1206 -91 779 398 
Q 353 888 353 1747 
Q 353 2609 779 3096 
Q 1206 3584 1959 3584 
z
" transform="scale(0.015625)"/>
       <path id="DejaVuSans-6e" d="M 3513 2113 
L 3513 0 
L 2938 0 
L 2938 2094 
Q 2938 2591 2744 2837 
Q 2550 3084 2163 3084 
Q 1697 3084 1428 2787 
Q 1159 2491 1159 1978 
L 1159 0 
L 581 0 
L 581 3500 
L 1159 3500 
L 1159 2956 
Q 1366 3272 1645 3428 
Q 1925 3584 2291 3584 
Q 2894 3584 3203 3211 
Q 3513 2838 3513 2113 
z
" transform="scale(0.015625)"/>
      </defs>
      <use xlink:href="#DejaVuSans-70"/>
      <use xlink:href="#DejaVuSans-75" transform="translate(63.476562 0)"/>
      <use xlink:href="#DejaVuSans-6c" transform="translate(126.855469 0)"/>
      <use xlink:href="#DejaVuSans-73" transform="translate(154.638672 0)"/>
      <use xlink:href="#DejaVuSans-65" transform="translate(206.738281 0)"/>
      <use xlink:href="#DejaVuSans-3a" transform="translate(268.261719 0)"/>
      <use xlink:href="#DejaVuSans-30" transform="translate(301.953125 0)"/>
      <use xlink:href="#DejaVuSans-20" transform="translate(365.576172 0)"/>
      <use xlink:href="#DejaVuSans-5b" transform="translate(397.363281 0)"/>
      <use xlink:href="#DejaVuSans-63" transform="translate(436.376953 0)"/>
      <use xlink:href="#DejaVuSans-6f" transform="translate(491.357422 0)"/>
      <use xlink:href="#DejaVuSans-75" transform="translate(552.539062 0)"/>
      <use xlink:href="#DejaVuSans-6e" transform="translate(615.917969 0)"/>
      <use xlink:href="#DejaVuSans-74" transform="translate(679.296875 0)"/>
      <use xlink:href="#DejaVuSans-73" transform="translate(718.505859 0)"/>
      <use xlink:href="#DejaVuSans-5d" transform="translate(770.605469 0)"/>
     </g>
    </g>
   </g>
   <g id="line2d_14">
    <path d="M 70.390415 234.239565 
L 71.527901 234.239565 
L 71.527901 227.814473 
L 72.665387 227.814473 
L 72.665387 220.781088 
L 73.802873 220.781088 
L 73.802873 211.80877 
L 74.940359 211.80877 
L 74.940359 200.897519 
L 76.077845 200.897519 
L 76.077845 192.419439 
L 77.215331 192.419439 
L 77.215331 185.538127 
L 78.352817 185.538127 
L 78.352817 175.501297 
L 79.490303 175.501297 
L 79.490303 166.643033 
L 80.627789 166.643033 
L 80.627789 160.446051 
L 81.765275 160.446051 
L 81.765275 154.781325 
L 82.902761 154.781325 
L 82.902761 147.29172 
L 84.040247 147.29172 
L 84.040247 137.330927 
L 85.177733 137.330927 
L 85.177733 134.593609 
L 86.315219 134.593609 
L 86.315219 126.799859 
L 87.452705 126.799859 
L 87.452705 123.112084 
L 88.590191 123.112084 
L 88.590191 116.26879 
L 89.727677 116.26879 
L 89.727677 105.965832 
L 90.865163 105.965832 
L 90.865163 108.589094 
L 92.00265 108.589094 
L 92.00265 101.365618 
L 93.140136 101.365618 
L 93.140136 100.225069 
L 94.277622 100.225069 
L 94.277622 92.355282 
L 95.415108 92.355282 
L 95.415108 86.614519 
L 96.552594 86.614519 
L 96.552594 85.47397 
L 97.69008 85.47397 
L 97.69008 82.394488 
L 98.827566 82.394488 
L 98.827566 84.865677 
L 99.965052 84.865677 
L 99.965052 77.566164 
L 101.102538 77.566164 
L 101.102538 72.737841 
L 102.240024 72.737841 
L 102.240024 67.301224 
L 103.37751 67.301224 
L 103.37751 68.137627 
L 104.514996 68.137627 
L 104.514996 68.707901 
L 105.652482 68.707901 
L 105.652482 61.978663 
L 106.789968 61.978663 
L 106.789968 60.686041 
L 107.927454 60.686041 
L 107.927454 65.286255 
L 109.06494 65.286255 
L 109.06494 56.960248 
L 110.202426 56.960248 
L 110.202426 55.515552 
L 111.339912 55.515552 
L 111.339912 56.542046 
L 112.477398 56.542046 
L 112.477398 59.3554 
L 113.614884 59.3554 
L 113.614884 49.166497 
L 115.889856 49.204515 
L 115.889856 50.078936 
L 117.027342 50.078936 
L 117.027342 45.896923 
L 118.164828 45.896923 
L 118.164828 48.710277 
L 119.302314 48.710277 
L 119.302314 46.353143 
L 120.4398 46.353143 
L 120.4398 49.432625 
L 121.577286 49.432625 
L 121.577286 41.144636 
L 122.714772 41.144636 
L 122.714772 46.20107 
L 123.852258 46.20107 
L 123.852258 42.133112 
L 124.989744 42.133112 
L 124.989744 44.718356 
L 126.12723 44.718356 
L 126.12723 39.015612 
L 127.264716 39.015612 
L 127.264716 38.027136 
L 128.402202 38.027136 
L 128.402202 38.255246 
L 129.539688 38.255246 
L 129.539688 40.84049 
L 130.677174 40.84049 
L 130.677174 36.696495 
L 131.81466 36.696495 
L 131.81466 37.49488 
L 132.952146 37.49488 
L 132.952146 35.403873 
L 134.089632 35.403873 
L 134.089632 35.175764 
L 135.227118 35.175764 
L 135.227118 33.23683 
L 136.364604 33.23683 
L 136.364604 32.020245 
L 137.50209 32.020245 
L 137.50209 30.955733 
L 138.639576 30.955733 
L 138.639576 32.970702 
L 139.777062 32.970702 
L 139.777062 35.746038 
L 140.914548 35.746038 
L 140.914548 32.476465 
L 142.052034 32.476465 
L 142.052034 25.557135 
L 143.18952 25.557135 
L 143.18952 27.496068 
L 144.327006 27.496068 
L 144.327006 34.187288 
L 145.464492 34.187288 
L 145.464492 32.020245 
L 146.601978 32.020245 
L 146.601978 33.084757 
L 147.739464 33.084757 
L 147.739464 29.701129 
L 148.87695 29.701129 
L 148.87695 29.396983 
L 150.014436 29.396983 
L 150.014436 29.777165 
L 151.151922 29.777165 
L 151.151922 30.461495 
L 152.289408 30.461495 
L 152.289408 29.587074 
L 153.426894 29.587074 
L 153.426894 33.46494 
L 154.56438 33.46494 
L 154.56438 30.879696 
L 155.701866 30.879696 
L 155.701866 32.058263 
L 156.839352 32.058263 
L 156.839352 29.206891 
L 157.976838 29.206891 
L 157.976838 32.36241 
L 159.114324 32.36241 
L 159.114324 26.393537 
L 160.25181 26.393537 
L 160.25181 25.633171 
L 161.389296 25.633171 
L 161.389296 29.054818 
L 162.526782 29.054818 
L 162.526782 27.00183 
L 163.664268 27.00183 
L 163.664268 29.587074 
L 164.801754 29.587074 
L 164.801754 24.150458 
L 165.93924 24.150458 
L 165.93924 30.423477 
L 167.076727 30.423477 
L 167.076727 25.747226 
L 168.214213 25.747226 
L 168.214213 29.815184 
L 169.351699 29.815184 
L 169.351699 30.651586 
L 170.489185 30.651586 
L 170.489185 25.519116 
L 171.626671 25.519116 
L 171.626671 29.473019 
L 172.764157 29.473019 
L 172.764157 24.074421 
L 173.901643 24.074421 
L 173.901643 23.352073 
L 175.039129 23.352073 
L 175.039129 30.34744 
L 176.176615 30.34744 
L 176.176615 24.454604 
L 177.314101 24.454604 
L 177.314101 24.074421 
L 178.451587 24.074421 
L 178.451587 30.043294 
L 179.589073 30.043294 
L 179.589073 21.527195 
L 180.726559 21.527195 
L 180.726559 24.872805 
L 181.864045 24.872805 
L 181.864045 28.294452 
L 183.001531 28.294452 
L 183.001531 25.367043 
L 184.139017 25.367043 
L 184.139017 29.396983 
L 185.276503 29.396983 
L 185.276503 22.743781 
L 186.413989 22.743781 
L 186.413989 27.267958 
L 187.551475 27.267958 
L 187.551475 25.100915 
L 188.688961 25.100915 
L 188.688961 24.872805 
L 190.963933 24.948842 
L 190.963933 24.074421 
L 192.101419 24.074421 
L 192.101419 29.320946 
L 193.238905 29.320946 
L 193.238905 25.024878 
L 194.376391 25.024878 
L 194.376391 21.86936 
L 195.513877 21.86936 
L 195.513877 27.420031 
L 196.651363 27.420031 
L 196.651363 18.789878 
L 197.788849 18.789878 
L 197.788849 25.405061 
L 198.926335 25.405061 
L 198.926335 22.211524 
L 200.063821 22.211524 
L 200.063821 26.089391 
L 201.201307 26.089391 
L 201.201307 24.492622 
L 202.338793 24.492622 
L 202.338793 31.640062 
L 203.476279 31.640062 
L 203.476279 24.568659 
L 204.613765 24.568659 
L 204.613765 22.363598 
L 205.751251 22.363598 
L 205.751251 22.667744 
L 206.888737 22.667744 
L 206.888737 25.595153 
L 208.026223 25.595153 
L 208.026223 26.203446 
L 209.163709 26.203446 
L 209.163709 27.648141 
L 210.301195 27.648141 
L 210.301195 29.206891 
L 211.438681 29.206891 
L 211.438681 26.127409 
L 212.576167 26.127409 
L 212.576167 23.466128 
L 214.851139 23.466128 
L 214.851139 24.910823 
L 215.988625 24.910823 
L 215.988625 24.682714 
L 217.126111 24.682714 
L 217.126111 27.990306 
L 218.263597 27.990306 
L 218.263597 27.762196 
L 219.401083 27.762196 
L 219.401083 21.375122 
L 220.538569 21.375122 
L 220.538569 23.998384 
L 221.676055 23.998384 
L 221.676055 24.264512 
L 222.813541 24.264512 
L 222.813541 25.633171 
L 223.951027 25.633171 
L 223.951027 29.473019 
L 225.088513 29.473019 
L 225.088513 25.44308 
L 227.363485 25.44308 
L 227.363485 29.435001 
L 228.500971 29.435001 
L 228.500971 26.393537 
L 229.638457 26.393537 
L 229.638457 25.709208 
L 230.775943 25.709208 
L 230.775943 26.013354 
L 231.913429 26.013354 
L 231.913429 31.449971 
L 233.050915 31.449971 
L 233.050915 27.22994 
L 234.188401 27.22994 
L 234.188401 22.933872 
L 235.325887 22.933872 
L 235.325887 23.504147 
L 236.463373 23.504147 
L 236.463373 21.527195 
L 237.600859 21.527195 
L 237.600859 27.914269 
L 238.738345 27.914269 
L 238.738345 24.036403 
L 239.875831 24.036403 
L 239.875831 23.466128 
L 241.013317 23.466128 
L 241.013317 26.54561 
L 242.150804 26.54561 
L 242.150804 18.561768 
L 243.28829 18.561768 
L 243.28829 25.861281 
L 244.425776 25.861281 
L 244.425776 23.998384 
L 245.563262 23.998384 
L 245.563262 29.168873 
L 246.700748 29.168873 
L 246.700748 32.172318 
L 247.838234 32.172318 
L 247.838234 28.028324 
L 248.97572 28.028324 
L 248.97572 22.819817 
L 250.113206 22.819817 
L 250.113206 22.439634 
L 251.250692 22.439634 
L 251.250692 26.355519 
L 252.388178 26.355519 
L 252.388178 26.127409 
L 253.525664 26.127409 
L 253.525664 20.614756 
L 254.66315 20.614756 
L 254.66315 31.640062 
L 255.800636 31.640062 
L 255.800636 23.732256 
L 256.938122 23.732256 
L 256.938122 26.887775 
L 258.075608 26.887775 
L 258.075608 23.314055 
L 259.213094 23.314055 
L 259.213094 23.466128 
L 260.35058 23.466128 
L 260.35058 28.56058 
L 261.488066 28.56058 
L 261.488066 27.343994 
L 262.625552 27.343994 
L 262.625552 27.572104 
L 263.763038 27.572104 
L 263.763038 20.006463 
L 264.900524 20.006463 
L 264.900524 30.917714 
L 266.03801 30.917714 
L 266.03801 37.722989 
L 267.175496 37.722989 
L 267.175496 45.212594 
L 268.312982 45.212594 
L 268.312982 50.040918 
L 269.450468 50.040918 
L 269.450468 59.507473 
L 270.587954 59.507473 
L 270.587954 64.753998 
L 271.72544 64.753998 
L 271.72544 75.703268 
L 272.862926 75.703268 
L 272.862926 84.219366 
L 274.000412 84.219366 
L 274.000412 91.899062 
L 275.137898 91.899062 
L 275.137898 99.046502 
L 276.275384 99.046502 
L 276.275384 118.245742 
L 277.41287 118.245742 
L 277.41287 117.523394 
L 278.550356 117.523394 
L 278.550356 123.036047 
L 279.687842 123.036047 
L 279.687842 128.77681 
L 280.825328 128.77681 
L 280.825328 135.582085 
L 281.962814 135.582085 
L 281.962814 140.562482 
L 283.1003 140.562482 
L 283.1003 149.991019 
L 284.237786 149.991019 
L 284.237786 153.906904 
L 285.375272 153.906904 
L 285.375272 159.153429 
L 286.512758 159.153429 
L 286.512758 164.209862 
L 287.650244 164.209862 
L 287.650244 167.555473 
L 288.78773 167.555473 
L 288.78773 174.550839 
L 289.925216 174.550839 
L 289.925216 177.174102 
L 291.062702 177.174102 
L 291.062702 180.291602 
L 292.200188 180.291602 
L 292.200188 182.078462 
L 293.337674 182.078462 
L 293.337674 187.401023 
L 294.47516 187.401023 
L 294.47516 188.389499 
L 295.612646 188.389499 
L 295.612646 194.548463 
L 296.750132 194.548463 
L 296.750132 196.639469 
L 297.887618 196.639469 
L 297.887618 195.95514 
L 299.025104 195.95514 
L 299.025104 201.277702 
L 300.16259 201.277702 
L 300.16259 206.486208 
L 301.300076 206.486208 
L 301.300076 206.106025 
L 302.437562 206.106025 
L 302.437562 206.980446 
L 303.575048 206.980446 
L 303.575048 210.668221 
L 304.712534 210.668221 
L 304.712534 212.683191 
L 305.85002 212.683191 
L 305.85002 215.192398 
L 306.987506 215.192398 
L 306.987506 214.812215 
L 308.124992 214.812215 
L 308.124992 216.104837 
L 309.262478 216.104837 
L 309.262478 219.412429 
L 310.399964 219.412429 
L 310.399964 219.602521 
L 311.53745 219.602521 
L 311.53745 221.579472 
L 312.674936 221.579472 
L 312.674936 222.07371 
L 313.812422 222.07371 
L 313.812422 223.40435 
L 314.949908 223.40435 
L 314.949908 225.229229 
L 316.087394 225.229229 
L 316.087394 226.787979 
L 317.224881 226.787979 
L 317.224881 227.282217 
L 318.362367 227.282217 
L 318.362367 230.019534 
L 319.499853 230.019534 
L 319.499853 229.22115 
L 320.637339 229.22115 
L 320.637339 230.209625 
L 321.774825 230.209625 
L 321.774825 230.399717 
L 322.912311 230.399717 
L 322.912311 231.768376 
L 325.187283 231.730357 
L 325.187283 233.365144 
L 326.324769 233.365144 
L 326.324769 234.087492 
L 327.462255 234.087492 
L 327.462255 234.657766 
L 328.599741 234.657766 
L 328.599741 235.532187 
L 329.737227 235.532187 
L 329.737227 235.798315 
L 330.874713 235.798315 
L 330.874713 235.532187 
L 332.012199 235.532187 
L 332.012199 237.052919 
L 333.149685 237.052919 
L 333.149685 237.281029 
L 334.287171 237.281029 
L 334.287171 237.851303 
L 335.424657 237.851303 
L 335.424657 237.357065 
L 336.562143 237.357065 
L 336.562143 237.585175 
L 337.699629 237.585175 
L 337.699629 239.828254 
L 338.837115 239.828254 
L 338.837115 239.219962 
L 339.974601 239.219962 
L 339.974601 239.980328 
L 341.112087 239.980328 
L 341.112087 240.094383 
L 342.249573 240.094383 
L 342.249573 239.48609 
L 343.387059 239.48609 
L 343.387059 239.790236 
L 344.524545 239.790236 
L 344.524545 240.626639 
L 345.662031 240.626639 
L 345.662031 241.158895 
L 346.799517 241.158895 
L 346.799517 241.310968 
L 347.937003 241.310968 
L 347.937003 241.729169 
L 350.211975 241.805206 
L 350.211975 242.071334 
L 351.349461 242.071334 
L 351.349461 242.679627 
L 352.486947 242.679627 
L 352.486947 242.527554 
L 354.761919 242.489535 
L 354.761919 241.919261 
L 355.899405 241.919261 
L 355.899405 243.173865 
L 357.036891 243.173865 
L 357.036891 243.401974 
L 360.449349 243.363956 
L 360.449349 243.668102 
L 361.586835 243.668102 
L 361.586835 243.401974 
L 362.724321 243.401974 
L 362.724321 243.744139 
L 363.861807 243.744139 
L 363.861807 243.934231 
L 364.999293 243.934231 
L 364.999293 244.314413 
L 366.136779 244.314413 
L 366.136779 244.428468 
L 367.274265 244.428468 
L 367.274265 244.61856 
L 368.411751 244.61856 
L 368.411751 244.504505 
L 370.686723 244.542523 
L 370.686723 244.238377 
L 371.824209 244.238377 
L 371.824209 244.352432 
L 372.961695 244.352432 
L 372.961695 244.542523 
L 374.099181 244.542523 
L 374.099181 244.884688 
L 375.236667 244.884688 
L 375.236667 244.694596 
L 376.374153 244.694596 
L 376.374153 244.542523 
L 377.511639 244.542523 
L 377.511639 244.732615 
L 379.786611 244.694596 
L 379.786611 245.112798 
L 380.924097 245.112798 
L 380.924097 244.922706 
L 382.061583 244.922706 
L 382.061583 244.770633 
L 383.199069 244.770633 
L 383.199069 245.188834 
L 385.474041 245.150816 
L 385.474041 245.530999 
L 386.611527 245.530999 
L 386.611527 245.302889 
L 388.886499 245.302889 
L 388.886499 245.607036 
L 390.023985 245.607036 
L 390.023985 245.112798 
L 391.161471 245.112798 
L 391.161471 245.416944 
L 393.436444 245.454962 
L 393.436444 245.683072 
L 395.711416 245.607036 
L 395.711416 245.454962 
L 397.986388 245.492981 
L 397.986388 245.569017 
L 399.123874 245.569017 
L 399.123874 245.378926 
L 400.26136 245.378926 
L 400.26136 245.530999 
L 402.536332 245.492981 
L 402.536332 245.645054 
L 407.086276 245.569017 
L 407.086276 245.797127 
L 408.223762 245.797127 
L 408.223762 245.683072 
L 410.498734 245.683072 
L 410.498734 245.797127 
L 411.63622 245.797127 
L 411.63622 245.797127 
" clip-path="url(#p8c9be8399b)" style="fill: none; stroke: #1f77b4; stroke-width: 1.5; stroke-linecap: square"/>
   </g>
   <g id="patch_3">
    <path d="M 53.328125 257.158895 
L 53.328125 7.2 
" style="fill: none; stroke: #000000; stroke-width: 0.8; stroke-linejoin: miter; stroke-linecap: square"/>
   </g>
   <g id="patch_4">
    <path d="M 428.69851 257.158895 
L 428.69851 7.2 
" style="fill: none; stroke: #000000; stroke-width: 0.8; stroke-linejoin: miter; stroke-linecap: square"/>
   </g>
   <g id="patch_5">
    <path d="M 53.328125 257.158895 
L 428.69851 257.158895 
" style="fill: none; stroke: #000000; stroke-width: 0.8; stroke-linejoin: miter; stroke-linecap: square"/>
   </g>
   <g id="patch_6">
    <path d="M 53.328125 7.2 
L 428.69851 7.2 
" style="fill: none; stroke: #000000; stroke-width: 0.8; stroke-linejoin: miter; stroke-linecap: square"/>
   </g>
  </g>
  <g id="axes_2">
   <g id="patch_7">
    <path d="M 489.829135 257.158895 
L 865.19952 257.158895 
L 865.19952 7.2 
L 489.829135 7.2 
z
" style="fill: #ffffff"/>
   </g>
   <g id="matplotlib.axis_3">
    <g id="xtick_7">
     <g id="line2d_15">
      <g>
       <use xlink:href="#m6ebfd05780" x="503.45112" y="257.158895" style="stroke: #000000; stroke-width: 0.8"/>
      </g>
     </g>
     <g id="text_16">
      <!-- 0.0 -->
      <g transform="translate(495.499558 271.757332) scale(0.1 -0.1)">
       <defs>
        <path id="DejaVuSans-2e" d="M 684 794 
L 1344 794 
L 1344 0 
L 684 0 
L 684 794 
z
" transform="scale(0.015625)"/>
       </defs>
       <use xlink:href="#DejaVuSans-30"/>
       <use xlink:href="#DejaVuSans-2e" transform="translate(63.623047 0)"/>
       <use xlink:href="#DejaVuSans-30" transform="translate(95.410156 0)"/>
      </g>
     </g>
    </g>
    <g id="xtick_8">
     <g id="line2d_16">
      <g>
       <use xlink:href="#m6ebfd05780" x="546.775868" y="257.158895" style="stroke: #000000; stroke-width: 0.8"/>
      </g>
     </g>
     <g id="text_17">
      <!-- 2.5 -->
      <g transform="translate(538.824305 271.757332) scale(0.1 -0.1)">
       <use xlink:href="#DejaVuSans-32"/>
       <use xlink:href="#DejaVuSans-2e" transform="translate(63.623047 0)"/>
       <use xlink:href="#DejaVuSans-35" transform="translate(95.410156 0)"/>
      </g>
     </g>
    </g>
    <g id="xtick_9">
     <g id="line2d_17">
      <g>
       <use xlink:href="#m6ebfd05780" x="590.100615" y="257.158895" style="stroke: #000000; stroke-width: 0.8"/>
      </g>
     </g>
     <g id="text_18">
      <!-- 5.0 -->
      <g transform="translate(582.149052 271.757332) scale(0.1 -0.1)">
       <use xlink:href="#DejaVuSans-35"/>
       <use xlink:href="#DejaVuSans-2e" transform="translate(63.623047 0)"/>
       <use xlink:href="#DejaVuSans-30" transform="translate(95.410156 0)"/>
      </g>
     </g>
    </g>
    <g id="xtick_10">
     <g id="line2d_18">
      <g>
       <use xlink:href="#m6ebfd05780" x="633.425362" y="257.158895" style="stroke: #000000; stroke-width: 0.8"/>
      </g>
     </g>
     <g id="text_19">
      <!-- 7.5 -->
      <g transform="translate(625.473799 271.757332) scale(0.1 -0.1)">
       <defs>
        <path id="DejaVuSans-37" d="M 525 4666 
L 3525 4666 
L 3525 4397 
L 1831 0 
L 1172 0 
L 2766 4134 
L 525 4134 
L 525 4666 
z
" transform="scale(0.015625)"/>
       </defs>
       <use xlink:href="#DejaVuSans-37"/>
       <use xlink:href="#DejaVuSans-2e" transform="translate(63.623047 0)"/>
       <use xlink:href="#DejaVuSans-35" transform="translate(95.410156 0)"/>
      </g>
     </g>
    </g>
    <g id="xtick_11">
     <g id="line2d_19">
      <g>
       <use xlink:href="#m6ebfd05780" x="676.750109" y="257.158895" style="stroke: #000000; stroke-width: 0.8"/>
      </g>
     </g>
     <g id="text_20">
      <!-- 10.0 -->
      <g transform="translate(665.617296 271.757332) scale(0.1 -0.1)">
       <use xlink:href="#DejaVuSans-31"/>
       <use xlink:href="#DejaVuSans-30" transform="translate(63.623047 0)"/>
       <use xlink:href="#DejaVuSans-2e" transform="translate(127.246094 0)"/>
       <use xlink:href="#DejaVuSans-30" transform="translate(159.033203 0)"/>
      </g>
     </g>
    </g>
    <g id="xtick_12">
     <g id="line2d_20">
      <g>
       <use xlink:href="#m6ebfd05780" x="720.074856" y="257.158895" style="stroke: #000000; stroke-width: 0.8"/>
      </g>
     </g>
     <g id="text_21">
      <!-- 12.5 -->
      <g transform="translate(708.942043 271.757332) scale(0.1 -0.1)">
       <use xlink:href="#DejaVuSans-31"/>
       <use xlink:href="#DejaVuSans-32" transform="translate(63.623047 0)"/>
       <use xlink:href="#DejaVuSans-2e" transform="translate(127.246094 0)"/>
       <use xlink:href="#DejaVuSans-35" transform="translate(159.033203 0)"/>
      </g>
     </g>
    </g>
    <g id="xtick_13">
     <g id="line2d_21">
      <g>
       <use xlink:href="#m6ebfd05780" x="763.399603" y="257.158895" style="stroke: #000000; stroke-width: 0.8"/>
      </g>
     </g>
     <g id="text_22">
      <!-- 15.0 -->
      <g transform="translate(752.266791 271.757332) scale(0.1 -0.1)">
       <use xlink:href="#DejaVuSans-31"/>
       <use xlink:href="#DejaVuSans-35" transform="translate(63.623047 0)"/>
       <use xlink:href="#DejaVuSans-2e" transform="translate(127.246094 0)"/>
       <use xlink:href="#DejaVuSans-30" transform="translate(159.033203 0)"/>
      </g>
     </g>
    </g>
    <g id="xtick_14">
     <g id="line2d_22">
      <g>
       <use xlink:href="#m6ebfd05780" x="806.72435" y="257.158895" style="stroke: #000000; stroke-width: 0.8"/>
      </g>
     </g>
     <g id="text_23">
      <!-- 17.5 -->
      <g transform="translate(795.591538 271.757332) scale(0.1 -0.1)">
       <use xlink:href="#DejaVuSans-31"/>
       <use xlink:href="#DejaVuSans-37" transform="translate(63.623047 0)"/>
       <use xlink:href="#DejaVuSans-2e" transform="translate(127.246094 0)"/>
       <use xlink:href="#DejaVuSans-35" transform="translate(159.033203 0)"/>
      </g>
     </g>
    </g>
    <g id="xtick_15">
     <g id="line2d_23">
      <g>
       <use xlink:href="#m6ebfd05780" x="850.049097" y="257.158895" style="stroke: #000000; stroke-width: 0.8"/>
      </g>
     </g>
     <g id="text_24">
      <!-- 20.0 -->
      <g transform="translate(838.916285 271.757332) scale(0.1 -0.1)">
       <use xlink:href="#DejaVuSans-32"/>
       <use xlink:href="#DejaVuSans-30" transform="translate(63.623047 0)"/>
       <use xlink:href="#DejaVuSans-2e" transform="translate(127.246094 0)"/>
       <use xlink:href="#DejaVuSans-30" transform="translate(159.033203 0)"/>
      </g>
     </g>
    </g>
    <g id="text_25">
     <!-- wavelength [Å] -->
     <g transform="translate(639.476827 287.119832) scale(0.1 -0.1)">
      <defs>
       <path id="DejaVuSans-77" d="M 269 3500 
L 844 3500 
L 1563 769 
L 2278 3500 
L 2956 3500 
L 3675 769 
L 4391 3500 
L 4966 3500 
L 4050 0 
L 3372 0 
L 2619 2869 
L 1863 0 
L 1184 0 
L 269 3500 
z
" transform="scale(0.015625)"/>
       <path id="DejaVuSans-61" d="M 2194 1759 
Q 1497 1759 1228 1600 
Q 959 1441 959 1056 
Q 959 750 1161 570 
Q 1363 391 1709 391 
Q 2188 391 2477 730 
Q 2766 1069 2766 1631 
L 2766 1759 
L 2194 1759 
z
M 3341 1997 
L 3341 0 
L 2766 0 
L 2766 531 
Q 2569 213 2275 61 
Q 1981 -91 1556 -91 
Q 1019 -91 701 211 
Q 384 513 384 1019 
Q 384 1609 779 1909 
Q 1175 2209 1959 2209 
L 2766 2209 
L 2766 2266 
Q 2766 2663 2505 2880 
Q 2244 3097 1772 3097 
Q 1472 3097 1187 3025 
Q 903 2953 641 2809 
L 641 3341 
Q 956 3463 1253 3523 
Q 1550 3584 1831 3584 
Q 2591 3584 2966 3190 
Q 3341 2797 3341 1997 
z
" transform="scale(0.015625)"/>
       <path id="DejaVuSans-76" d="M 191 3500 
L 800 3500 
L 1894 563 
L 2988 3500 
L 3597 3500 
L 2284 0 
L 1503 0 
L 191 3500 
z
" transform="scale(0.015625)"/>
       <path id="DejaVuSans-67" d="M 2906 1791 
Q 2906 2416 2648 2759 
Q 2391 3103 1925 3103 
Q 1463 3103 1205 2759 
Q 947 2416 947 1791 
Q 947 1169 1205 825 
Q 1463 481 1925 481 
Q 2391 481 2648 825 
Q 2906 1169 2906 1791 
z
M 3481 434 
Q 3481 -459 3084 -895 
Q 2688 -1331 1869 -1331 
Q 1566 -1331 1297 -1286 
Q 1028 -1241 775 -1147 
L 775 -588 
Q 1028 -725 1275 -790 
Q 1522 -856 1778 -856 
Q 2344 -856 2625 -561 
Q 2906 -266 2906 331 
L 2906 616 
Q 2728 306 2450 153 
Q 2172 0 1784 0 
Q 1141 0 747 490 
Q 353 981 353 1791 
Q 353 2603 747 3093 
Q 1141 3584 1784 3584 
Q 2172 3584 2450 3431 
Q 2728 3278 2906 2969 
L 2906 3500 
L 3481 3500 
L 3481 434 
z
" transform="scale(0.015625)"/>
       <path id="DejaVuSans-c5" d="M 2663 5081 
Q 2663 5278 2523 5417 
Q 2384 5556 2188 5556 
Q 1988 5556 1852 5420 
Q 1716 5284 1716 5081 
Q 1716 4884 1853 4746 
Q 1991 4609 2188 4609 
Q 2384 4609 2523 4746 
Q 2663 4884 2663 5081 
z
M 2188 4044 
L 1338 1722 
L 3041 1722 
L 2188 4044 
z
M 1716 4366 
Q 1525 4494 1428 4673 
Q 1331 4853 1331 5081 
Q 1331 5441 1579 5691 
Q 1828 5941 2188 5941 
Q 2544 5941 2795 5689 
Q 3047 5438 3047 5081 
Q 3047 4863 2948 4678 
Q 2850 4494 2663 4366 
L 4325 0 
L 3669 0 
L 3244 1197 
L 1141 1197 
L 716 0 
L 50 0 
L 1716 4366 
z
" transform="scale(0.015625)"/>
      </defs>
      <use xlink:href="#DejaVuSans-77"/>
      <use xlink:href="#DejaVuSans-61" transform="translate(81.787109 0)"/>
      <use xlink:href="#DejaVuSans-76" transform="translate(143.066406 0)"/>
      <use xlink:href="#DejaVuSans-65" transform="translate(202.246094 0)"/>
      <use xlink:href="#DejaVuSans-6c" transform="translate(263.769531 0)"/>
      <use xlink:href="#DejaVuSans-65" transform="translate(291.552734 0)"/>
      <use xlink:href="#DejaVuSans-6e" transform="translate(353.076172 0)"/>
      <use xlink:href="#DejaVuSans-67" transform="translate(416.455078 0)"/>
      <use xlink:href="#DejaVuSans-74" transform="translate(479.931641 0)"/>
      <use xlink:href="#DejaVuSans-68" transform="translate(519.140625 0)"/>
      <use xlink:href="#DejaVuSans-20" transform="translate(582.519531 0)"/>
      <use xlink:href="#DejaVuSans-5b" transform="translate(614.306641 0)"/>
      <use xlink:href="#DejaVuSans-c5" transform="translate(653.320312 0)"/>
      <use xlink:href="#DejaVuSans-5d" transform="translate(721.728516 0)"/>
     </g>
    </g>
   </g>
   <g id="matplotlib.axis_4">
    <g id="ytick_8">
     <g id="line2d_24">
      <g>
       <use xlink:href="#ma989b66bd8" x="489.829135" y="245.850073" style="stroke: #000000; stroke-width: 0.8"/>
      </g>
     </g>
     <g id="text_26">
      <!-- 0 -->
      <g transform="translate(476.466635 249.649292) scale(0.1 -0.1)">
       <use xlink:href="#DejaVuSans-30"/>
      </g>
     </g>
    </g>
    <g id="ytick_9">
     <g id="line2d_25">
      <g>
       <use xlink:href="#ma989b66bd8" x="489.829135" y="192.903674" style="stroke: #000000; stroke-width: 0.8"/>
      </g>
     </g>
     <g id="text_27">
      <!-- 5000 -->
      <g transform="translate(457.379135 196.702892) scale(0.1 -0.1)">
       <use xlink:href="#DejaVuSans-35"/>
       <use xlink:href="#DejaVuSans-30" transform="translate(63.623047 0)"/>
       <use xlink:href="#DejaVuSans-30" transform="translate(127.246094 0)"/>
       <use xlink:href="#DejaVuSans-30" transform="translate(190.869141 0)"/>
      </g>
     </g>
    </g>
    <g id="ytick_10">
     <g id="line2d_26">
      <g>
       <use xlink:href="#ma989b66bd8" x="489.829135" y="139.957274" style="stroke: #000000; stroke-width: 0.8"/>
      </g>
     </g>
     <g id="text_28">
      <!-- 10000 -->
      <g transform="translate(451.016635 143.756492) scale(0.1 -0.1)">
       <use xlink:href="#DejaVuSans-31"/>
       <use xlink:href="#DejaVuSans-30" transform="translate(63.623047 0)"/>
       <use xlink:href="#DejaVuSans-30" transform="translate(127.246094 0)"/>
       <use xlink:href="#DejaVuSans-30" transform="translate(190.869141 0)"/>
       <use xlink:href="#DejaVuSans-30" transform="translate(254.492188 0)"/>
      </g>
     </g>
    </g>
    <g id="ytick_11">
     <g id="line2d_27">
      <g>
       <use xlink:href="#ma989b66bd8" x="489.829135" y="87.010874" style="stroke: #000000; stroke-width: 0.8"/>
      </g>
     </g>
     <g id="text_29">
      <!-- 15000 -->
      <g transform="translate(451.016635 90.810092) scale(0.1 -0.1)">
       <use xlink:href="#DejaVuSans-31"/>
       <use xlink:href="#DejaVuSans-35" transform="translate(63.623047 0)"/>
       <use xlink:href="#DejaVuSans-30" transform="translate(127.246094 0)"/>
       <use xlink:href="#DejaVuSans-30" transform="translate(190.869141 0)"/>
       <use xlink:href="#DejaVuSans-30" transform="translate(254.492188 0)"/>
      </g>
     </g>
    </g>
    <g id="ytick_12">
     <g id="line2d_28">
      <g>
       <use xlink:href="#ma989b66bd8" x="489.829135" y="34.064474" style="stroke: #000000; stroke-width: 0.8"/>
      </g>
     </g>
     <g id="text_30">
      <!-- 20000 -->
      <g transform="translate(451.016635 37.863693) scale(0.1 -0.1)">
       <use xlink:href="#DejaVuSans-32"/>
       <use xlink:href="#DejaVuSans-30" transform="translate(63.623047 0)"/>
       <use xlink:href="#DejaVuSans-30" transform="translate(127.246094 0)"/>
       <use xlink:href="#DejaVuSans-30" transform="translate(190.869141 0)"/>
       <use xlink:href="#DejaVuSans-30" transform="translate(254.492188 0)"/>
      </g>
     </g>
    </g>
    <g id="text_31">
     <!-- pulse:0 [counts] -->
     <g transform="translate(444.936947 172.659916) rotate(-90) scale(0.1 -0.1)">
      <use xlink:href="#DejaVuSans-70"/>
      <use xlink:href="#DejaVuSans-75" transform="translate(63.476562 0)"/>
      <use xlink:href="#DejaVuSans-6c" transform="translate(126.855469 0)"/>
      <use xlink:href="#DejaVuSans-73" transform="translate(154.638672 0)"/>
      <use xlink:href="#DejaVuSans-65" transform="translate(206.738281 0)"/>
      <use xlink:href="#DejaVuSans-3a" transform="translate(268.261719 0)"/>
      <use xlink:href="#DejaVuSans-30" transform="translate(301.953125 0)"/>
      <use xlink:href="#DejaVuSans-20" transform="translate(365.576172 0)"/>
      <use xlink:href="#DejaVuSans-5b" transform="translate(397.363281 0)"/>
      <use xlink:href="#DejaVuSans-63" transform="translate(436.376953 0)"/>
      <use xlink:href="#DejaVuSans-6f" transform="translate(491.357422 0)"/>
      <use xlink:href="#DejaVuSans-75" transform="translate(552.539062 0)"/>
      <use xlink:href="#DejaVuSans-6e" transform="translate(615.917969 0)"/>
      <use xlink:href="#DejaVuSans-74" transform="translate(679.296875 0)"/>
      <use xlink:href="#DejaVuSans-73" transform="translate(718.505859 0)"/>
      <use xlink:href="#DejaVuSans-5d" transform="translate(770.605469 0)"/>
     </g>
    </g>
   </g>
   <g id="line2d_29">
    <path d="M 506.891425 153.649213 
L 508.028911 153.649213 
L 508.028911 146.247306 
L 509.166397 146.247306 
L 509.166397 137.712346 
L 511.441369 137.627632 
L 511.441369 146.18377 
L 512.578855 146.18377 
L 512.578855 153.903355 
L 513.716341 153.903355 
L 513.716341 147.602734 
L 514.853827 147.602734 
L 514.853827 126.392406 
L 515.991313 126.392406 
L 515.991313 105.626828 
L 517.128799 105.626828 
L 517.128799 81.91743 
L 518.266285 81.91743 
L 518.266285 59.542281 
L 519.403771 59.542281 
L 519.403771 37.50599 
L 520.541257 37.50599 
L 520.541257 22.289195 
L 521.678743 22.289195 
L 521.678743 19.483035 
L 522.816229 19.483035 
L 522.816229 18.561768 
L 523.953715 18.561768 
L 523.953715 19.821892 
L 525.091201 19.821892 
L 525.091201 29.034566 
L 526.228687 29.034566 
L 526.228687 40.672185 
L 527.366173 40.672185 
L 527.366173 49.249501 
L 528.50366 49.249501 
L 528.50366 57.932711 
L 529.641146 57.932711 
L 529.641146 70.724561 
L 530.778632 70.724561 
L 530.778632 78.412378 
L 531.916118 78.412378 
L 531.916118 82.669269 
L 533.053604 82.669269 
L 533.053604 88.419248 
L 534.19109 88.419248 
L 534.19109 93.713888 
L 535.328576 93.713888 
L 535.328576 96.001172 
L 537.603548 96.022351 
L 537.603548 92.379639 
L 538.741034 92.379639 
L 538.741034 94.635155 
L 539.87852 94.635155 
L 539.87852 85.464839 
L 541.016006 85.464839 
L 541.016006 80.360806 
L 542.153492 80.360806 
L 542.153492 71.349329 
L 543.290978 71.349329 
L 543.290978 61.014191 
L 544.428464 61.014191 
L 544.428464 51.854464 
L 545.56595 51.854464 
L 545.56595 40.269792 
L 546.703436 40.269792 
L 546.703436 33.460885 
L 547.840922 33.460885 
L 547.840922 33.789153 
L 548.978408 33.789153 
L 548.978408 40.216846 
L 550.115894 40.216846 
L 550.115894 51.303822 
L 551.25338 51.303822 
L 551.25338 59.955263 
L 552.390866 59.955263 
L 552.390866 68.606705 
L 553.528352 68.606705 
L 553.528352 79.990181 
L 554.665838 79.990181 
L 554.665838 87.95332 
L 555.803324 87.95332 
L 555.803324 95.958815 
L 556.94081 95.958815 
L 556.94081 104.610257 
L 558.078296 104.610257 
L 558.078296 110.985004 
L 559.215782 110.985004 
L 559.215782 117.603304 
L 560.353268 117.603304 
L 560.353268 123.09914 
L 561.490754 123.09914 
L 561.490754 130.638707 
L 562.62824 130.638707 
L 562.62824 136.695775 
L 563.765726 136.695775 
L 563.765726 142.795201 
L 564.903212 142.795201 
L 564.903212 146.152002 
L 566.040698 146.152002 
L 566.040698 150.048857 
L 567.178184 150.048857 
L 567.178184 156.243586 
L 568.31567 156.243586 
L 568.31567 160.585191 
L 569.453156 160.585191 
L 569.453156 164.524403 
L 570.590642 164.524403 
L 570.590642 168.082401 
L 571.728128 168.082401 
L 571.728128 171.746292 
L 572.865614 171.746292 
L 572.865614 175.177219 
L 574.0031 175.177219 
L 574.0031 179.370574 
L 575.140586 179.370574 
L 575.140586 183.585107 
L 576.278072 183.585107 
L 576.278072 185.787677 
L 577.415558 185.787677 
L 577.415558 187.524319 
L 578.553044 187.524319 
L 578.553044 189.260961 
L 579.69053 189.260961 
L 579.69053 194.026137 
L 580.828016 194.026137 
L 580.828016 195.085065 
L 581.965502 195.085065 
L 581.965502 197.2241 
L 583.102988 197.2241 
L 583.102988 200.114973 
L 584.240474 200.114973 
L 584.240474 202.105758 
L 585.37796 202.105758 
L 585.37796 204.170667 
L 586.515446 204.170667 
L 586.515446 205.123703 
L 587.652932 205.123703 
L 587.652932 207.707487 
L 588.790418 207.707487 
L 588.790418 209.687682 
L 589.927904 209.687682 
L 589.927904 210.1642 
L 591.06539 210.1642 
L 591.06539 212.483252 
L 592.202876 212.483252 
L 592.202876 213.351573 
L 593.340362 213.351573 
L 593.340362 213.912805 
L 594.477848 213.912805 
L 594.477848 215.797697 
L 595.615334 215.797697 
L 595.615334 217.184893 
L 596.75282 217.184893 
L 596.75282 218.572088 
L 597.890306 218.572088 
L 597.890306 220.298141 
L 599.027792 220.298141 
L 599.027792 221.34648 
L 600.165278 221.34648 
L 600.165278 222.828979 
L 602.44025 222.924282 
L 602.44025 224.650335 
L 603.577737 224.650335 
L 603.577737 225.370406 
L 604.715223 225.370406 
L 604.715223 224.915067 
L 605.852709 224.915067 
L 605.852709 226.535227 
L 606.990195 226.535227 
L 606.990195 227.615333 
L 608.127681 227.615333 
L 608.127681 228.176565 
L 609.265167 228.176565 
L 609.265167 229.404922 
L 610.402653 229.404922 
L 610.402653 229.680243 
L 612.677625 229.648475 
L 612.677625 230.961546 
L 613.815111 230.961546 
L 613.815111 230.485028 
L 614.952597 230.485028 
L 614.952597 231.808688 
L 616.090083 231.808688 
L 616.090083 232.507581 
L 617.227569 232.507581 
L 617.227569 232.81467 
L 618.365055 232.81467 
L 618.365055 233.037045 
L 619.502541 233.037045 
L 619.502541 234.000669 
L 620.640027 234.000669 
L 620.640027 234.57249 
L 621.777513 234.57249 
L 621.777513 234.074794 
L 622.914999 234.074794 
L 622.914999 235.366686 
L 624.052485 235.366686 
L 624.052485 235.154901 
L 625.189971 235.154901 
L 625.189971 235.917329 
L 627.464943 235.959686 
L 627.464943 236.351489 
L 628.602429 236.351489 
L 628.602429 236.806828 
L 629.739915 236.806828 
L 629.739915 237.431596 
L 630.877401 237.431596 
L 630.877401 237.2304 
L 632.014887 237.2304 
L 632.014887 237.939881 
L 633.152373 237.939881 
L 633.152373 238.236381 
L 634.289859 238.236381 
L 634.289859 237.982238 
L 635.427345 237.982238 
L 635.427345 238.755256 
L 636.564831 238.755256 
L 636.564831 238.437577 
L 638.839803 238.501113 
L 638.839803 239.369434 
L 639.977289 239.369434 
L 639.977289 239.528273 
L 641.114775 239.528273 
L 641.114775 239.380023 
L 642.252261 239.380023 
L 642.252261 239.782416 
L 643.389747 239.782416 
L 643.389747 240.396594 
L 644.527233 240.396594 
L 644.527233 240.01538 
L 645.664719 240.01538 
L 645.664719 240.566023 
L 646.802205 240.566023 
L 646.802205 240.375416 
L 647.939691 240.375416 
L 647.939691 240.915469 
L 650.214663 240.957826 
L 650.214663 241.116665 
L 654.764607 241.127255 
L 654.764607 241.466112 
L 655.902093 241.466112 
L 655.902093 241.921451 
L 658.177065 241.815558 
L 658.177065 242.133236 
L 659.314551 242.133236 
L 659.314551 242.302665 
L 660.452037 242.302665 
L 660.452037 242.112058 
L 661.589523 242.112058 
L 661.589523 242.270897 
L 662.727009 242.270897 
L 662.727009 242.429736 
L 665.001981 242.3662 
L 665.001981 242.768593 
L 666.139467 242.768593 
L 666.139467 243.001557 
L 667.276953 243.001557 
L 667.276953 242.885075 
L 668.414439 242.885075 
L 668.414439 242.673289 
L 670.689411 242.694468 
L 670.689411 243.022736 
L 672.964383 243.128628 
L 672.964383 242.832129 
L 674.101869 242.832129 
L 674.101869 243.319236 
L 676.376841 243.213343 
L 676.376841 243.192164 
L 677.514327 243.192164 
L 677.514327 243.361593 
L 678.651814 243.361593 
L 678.651814 243.679271 
L 679.7893 243.679271 
L 679.7893 243.478075 
L 680.926786 243.478075 
L 680.926786 243.859289 
L 682.064272 243.859289 
L 682.064272 243.192164 
L 683.201758 243.192164 
L 683.201758 243.8487 
L 684.339244 243.8487 
L 684.339244 243.98636 
L 685.47673 243.98636 
L 685.47673 243.795753 
L 687.751702 243.8487 
L 687.751702 244.007539 
L 688.889188 244.007539 
L 688.889188 244.176967 
L 690.026674 244.176967 
L 690.026674 244.060485 
L 695.714104 243.996949 
L 695.714104 244.198146 
L 697.989076 244.155789 
L 697.989076 244.007539 
L 699.126562 244.007539 
L 699.126562 244.367574 
L 704.813992 244.441699 
L 704.813992 244.568771 
L 705.951478 244.568771 
L 705.951478 244.420521 
L 708.22645 244.335806 
L 708.22645 244.674663 
L 709.363936 244.674663 
L 709.363936 244.462878 
L 710.501422 244.462878 
L 710.501422 244.748788 
L 711.638908 244.748788 
L 711.638908 244.537003 
L 715.051366 244.57936 
L 715.051366 244.833503 
L 717.326338 244.822913 
L 717.326338 244.674663 
L 718.463824 244.674663 
L 718.463824 244.822913 
L 723.013768 244.738199 
L 723.013768 245.055877 
L 724.151254 245.055877 
L 724.151254 244.822913 
L 729.838684 244.801735 
L 729.838684 245.119413 
L 737.801086 245.087645 
L 737.801086 244.949985 
L 738.938572 244.949985 
L 738.938572 245.151181 
L 742.35103 245.077056 
L 742.35103 245.278252 
L 743.488516 245.278252 
L 743.488516 245.130002 
L 744.626002 245.130002 
L 744.626002 245.352377 
L 750.313432 245.257074 
L 750.313432 245.204127 
L 751.450918 245.204127 
L 751.450918 245.352377 
L 752.588405 245.352377 
L 752.588405 245.225306 
L 753.725891 245.225306 
L 753.725891 245.447681 
L 754.863377 245.447681 
L 754.863377 245.331199 
L 760.550807 245.384145 
L 760.550807 245.500627 
L 761.688293 245.500627 
L 761.688293 245.373556 
L 763.963265 245.331199 
L 763.963265 245.500627 
L 781.025555 245.60652 
L 781.025555 245.627699 
L 796.950359 245.564163 
L 796.950359 245.479449 
L 799.225331 245.574752 
L 799.225331 245.670056 
L 836.76237 245.775948 
L 836.76237 245.786538 
L 848.13723 245.797127 
L 848.13723 245.797127 
" clip-path="url(#p45799a69b5)" style="fill: none; stroke: #1f77b4; stroke-width: 1.5; stroke-linecap: square"/>
   </g>
   <g id="patch_8">
    <path d="M 489.829135 257.158895 
L 489.829135 7.2 
" style="fill: none; stroke: #000000; stroke-width: 0.8; stroke-linejoin: miter; stroke-linecap: square"/>
   </g>
   <g id="patch_9">
    <path d="M 865.19952 257.158895 
L 865.19952 7.2 
" style="fill: none; stroke: #000000; stroke-width: 0.8; stroke-linejoin: miter; stroke-linecap: square"/>
   </g>
   <g id="patch_10">
    <path d="M 489.829135 257.158895 
L 865.19952 257.158895 
" style="fill: none; stroke: #000000; stroke-width: 0.8; stroke-linejoin: miter; stroke-linecap: square"/>
   </g>
   <g id="patch_11">
    <path d="M 489.829135 7.2 
L 865.19952 7.2 
" style="fill: none; stroke: #000000; stroke-width: 0.8; stroke-linejoin: miter; stroke-linecap: square"/>
   </g>
  </g>
 </g>
 <defs>
  <clipPath id="p8c9be8399b">
   <rect x="53.328125" y="7.2" width="375.370385" height="249.958895"/>
  </clipPath>
  <clipPath id="p45799a69b5">
   <rect x="489.829135" y="7.2" width="375.370385" height="249.958895"/>
  </clipPath>
 </defs>
</svg>
