<?xml version="1.0" encoding="utf-8" standalone="no"?>
<!DOCTYPE svg PUBLIC "-//W3C//DTD SVG 1.1//EN"
  "http://www.w3.org/Graphics/SVG/1.1/DTD/svg11.dtd">
<svg xmlns:xlink="http://www.w3.org/1999/xlink" width="872.39952pt" height="296.396986pt" viewBox="0 0 872.39952 296.396986" xmlns="http://www.w3.org/2000/svg" version="1.1">
 <metadata>
  <rdf:RDF xmlns:dc="http://purl.org/dc/elements/1.1/" xmlns:cc="http://creativecommons.org/ns#" xmlns:rdf="http://www.w3.org/1999/02/22-rdf-syntax-ns#">
   <cc:Work>
    <dc:type rdf:resource="http://purl.org/dc/dcmitype/StillImage"/>
    <dc:date>2026-06-24T08:34:11.394094</dc:date>
    <dc:format>image/svg+xml</dc:format>
    <dc:creator>
     <cc:Agent>
      <dc:title>Matplotlib v3.10.9, https://matplotlib.org/</dc:title>
     </cc:Agent>
    </dc:creator>
   </cc:Work>
  </rdf:RDF>
 </metadata>
 <defs>
  <style type="text/css">*{stroke-linejoin: round; stroke-linecap: butt}</style>
 </defs>
 <g id="figure_1">
  <g id="patch_1">
   <path d="M 0 296.396986 
L 872.39952 296.396986 
L 872.39952 0 
L 0 0 
z
" style="fill: #ffffff"/>
  </g>
  <g id="axes_1">
   <g id="patch_2">
    <path d="M 53.328125 257.156361 
L 411.41851 257.156361 
L 411.41851 8.571478 
L 53.328125 8.571478 
z
" style="fill: #ffffff"/>
   </g>
   <g id="matplotlib.axis_1">
    <g id="xtick_1">
     <g id="line2d_1">
      <defs>
       <path id="ma1dfe3a030" d="M 0 0 
L 0 3.5 
" style="stroke: #000000; stroke-width: 0.8"/>
      </defs>
      <g>
       <use xlink:href="#ma1dfe3a030" x="69.604473" y="257.156361" style="stroke: #000000; stroke-width: 0.8"/>
      </g>
     </g>
     <g id="text_1">
      <!-- 0 -->
      <g transform="translate(66.423223 271.754799) scale(0.1 -0.1)">
       <defs>
        <path id="DejaVuSans-30" d="M 2034 4250 
Q 1547 4250 1301 3770 
Q 1056 3291 1056 2328 
Q 1056 1369 1301 889 
Q 1547 409 2034 409 
Q 2525 409 2770 889 
Q 3016 1369 3016 2328 
Q 3016 3291 2770 3770 
Q 2525 4250 2034 4250 
z
M 2034 4750 
Q 2819 4750 3233 4129 
Q 3647 3509 3647 2328 
Q 3647 1150 3233 529 
Q 2819 -91 2034 -91 
Q 1250 -91 836 529 
Q 422 1150 422 2328 
Q 422 3509 836 4129 
Q 1250 4750 2034 4750 
z
" transform="scale(0.015625)"/>
       </defs>
       <use xlink:href="#DejaVuSans-30"/>
      </g>
     </g>
    </g>
    <g id="xtick_2">
     <g id="line2d_2">
      <g>
       <use xlink:href="#ma1dfe3a030" x="124.000356" y="257.156361" style="stroke: #000000; stroke-width: 0.8"/>
      </g>
     </g>
     <g id="text_2">
      <!-- 1000 -->
      <g transform="translate(111.275356 271.754799) scale(0.1 -0.1)">
       <defs>
        <path id="DejaVuSans-31" d="M 794 531 
L 1825 531 
L 1825 4091 
L 703 3866 
L 703 4441 
L 1819 4666 
L 2450 4666 
L 2450 531 
L 3481 531 
L 3481 0 
L 794 0 
L 794 531 
z
" transform="scale(0.015625)"/>
       </defs>
       <use xlink:href="#DejaVuSans-31"/>
       <use xlink:href="#DejaVuSans-30" transform="translate(63.623047 0)"/>
       <use xlink:href="#DejaVuSans-30" transform="translate(127.246094 0)"/>
       <use xlink:href="#DejaVuSans-30" transform="translate(190.869141 0)"/>
      </g>
     </g>
    </g>
    <g id="xtick_3">
     <g id="line2d_3">
      <g>
       <use xlink:href="#ma1dfe3a030" x="178.396239" y="257.156361" style="stroke: #000000; stroke-width: 0.8"/>
      </g>
     </g>
     <g id="text_3">
      <!-- 2000 -->
      <g transform="translate(165.671239 271.754799) scale(0.1 -0.1)">
       <defs>
        <path id="DejaVuSans-32" d="M 1228 531 
L 3431 531 
L 3431 0 
L 469 0 
L 469 531 
Q 828 903 1448 1529 
Q 2069 2156 2228 2338 
Q 2531 2678 2651 2914 
Q 2772 3150 2772 3378 
Q 2772 3750 2511 3984 
Q 2250 4219 1831 4219 
Q 1534 4219 1204 4116 
Q 875 4013 500 3803 
L 500 4441 
Q 881 4594 1212 4672 
Q 1544 4750 1819 4750 
Q 2544 4750 2975 4387 
Q 3406 4025 3406 3419 
Q 3406 3131 3298 2873 
Q 3191 2616 2906 2266 
Q 2828 2175 2409 1742 
Q 1991 1309 1228 531 
z
" transform="scale(0.015625)"/>
       </defs>
       <use xlink:href="#DejaVuSans-32"/>
       <use xlink:href="#DejaVuSans-30" transform="translate(63.623047 0)"/>
       <use xlink:href="#DejaVuSans-30" transform="translate(127.246094 0)"/>
       <use xlink:href="#DejaVuSans-30" transform="translate(190.869141 0)"/>
      </g>
     </g>
    </g>
    <g id="xtick_4">
     <g id="line2d_4">
      <g>
       <use xlink:href="#ma1dfe3a030" x="232.792122" y="257.156361" style="stroke: #000000; stroke-width: 0.8"/>
      </g>
     </g>
     <g id="text_4">
      <!-- 3000 -->
      <g transform="translate(220.067122 271.754799) scale(0.1 -0.1)">
       <defs>
        <path id="DejaVuSans-33" d="M 2597 2516 
Q 3050 2419 3304 2112 
Q 3559 1806 3559 1356 
Q 3559 666 3084 287 
Q 2609 -91 1734 -91 
Q 1441 -91 1130 -33 
Q 819 25 488 141 
L 488 750 
Q 750 597 1062 519 
Q 1375 441 1716 441 
Q 2309 441 2620 675 
Q 2931 909 2931 1356 
Q 2931 1769 2642 2001 
Q 2353 2234 1838 2234 
L 1294 2234 
L 1294 2753 
L 1863 2753 
Q 2328 2753 2575 2939 
Q 2822 3125 2822 3475 
Q 2822 3834 2567 4026 
Q 2313 4219 1838 4219 
Q 1578 4219 1281 4162 
Q 984 4106 628 3988 
L 628 4550 
Q 988 4650 1302 4700 
Q 1616 4750 1894 4750 
Q 2613 4750 3031 4423 
Q 3450 4097 3450 3541 
Q 3450 3153 3228 2886 
Q 3006 2619 2597 2516 
z
" transform="scale(0.015625)"/>
       </defs>
       <use xlink:href="#DejaVuSans-33"/>
       <use xlink:href="#DejaVuSans-30" transform="translate(63.623047 0)"/>
       <use xlink:href="#DejaVuSans-30" transform="translate(127.246094 0)"/>
       <use xlink:href="#DejaVuSans-30" transform="translate(190.869141 0)"/>
      </g>
     </g>
    </g>
    <g id="xtick_5">
     <g id="line2d_5">
      <g>
       <use xlink:href="#ma1dfe3a030" x="287.188005" y="257.156361" style="stroke: #000000; stroke-width: 0.8"/>
      </g>
     </g>
     <g id="text_5">
      <!-- 4000 -->
      <g transform="translate(274.463005 271.754799) scale(0.1 -0.1)">
       <defs>
        <path id="DejaVuSans-34" d="M 2419 4116 
L 825 1625 
L 2419 1625 
L 2419 4116 
z
M 2253 4666 
L 3047 4666 
L 3047 1625 
L 3713 1625 
L 3713 1100 
L 3047 1100 
L 3047 0 
L 2419 0 
L 2419 1100 
L 313 1100 
L 313 1709 
L 2253 4666 
z
" transform="scale(0.015625)"/>
       </defs>
       <use xlink:href="#DejaVuSans-34"/>
       <use xlink:href="#DejaVuSans-30" transform="translate(63.623047 0)"/>
       <use xlink:href="#DejaVuSans-30" transform="translate(127.246094 0)"/>
       <use xlink:href="#DejaVuSans-30" transform="translate(190.869141 0)"/>
      </g>
     </g>
    </g>
    <g id="xtick_6">
     <g id="line2d_6">
      <g>
       <use xlink:href="#ma1dfe3a030" x="341.583888" y="257.156361" style="stroke: #000000; stroke-width: 0.8"/>
      </g>
     </g>
     <g id="text_6">
      <!-- 5000 -->
      <g transform="translate(328.858888 271.754799) scale(0.1 -0.1)">
       <defs>
        <path id="DejaVuSans-35" d="M 691 4666 
L 3169 4666 
L 3169 4134 
L 1269 4134 
L 1269 2991 
Q 1406 3038 1543 3061 
Q 1681 3084 1819 3084 
Q 2600 3084 3056 2656 
Q 3513 2228 3513 1497 
Q 3513 744 3044 326 
Q 2575 -91 1722 -91 
Q 1428 -91 1123 -41 
Q 819 9 494 109 
L 494 744 
Q 775 591 1075 516 
Q 1375 441 1709 441 
Q 2250 441 2565 725 
Q 2881 1009 2881 1497 
Q 2881 1984 2565 2268 
Q 2250 2553 1709 2553 
Q 1456 2553 1204 2497 
Q 953 2441 691 2322 
L 691 4666 
z
" transform="scale(0.015625)"/>
       </defs>
       <use xlink:href="#DejaVuSans-35"/>
       <use xlink:href="#DejaVuSans-30" transform="translate(63.623047 0)"/>
       <use xlink:href="#DejaVuSans-30" transform="translate(127.246094 0)"/>
       <use xlink:href="#DejaVuSans-30" transform="translate(190.869141 0)"/>
      </g>
     </g>
    </g>
    <g id="xtick_7">
     <g id="line2d_7">
      <g>
       <use xlink:href="#ma1dfe3a030" x="395.979771" y="257.156361" style="stroke: #000000; stroke-width: 0.8"/>
      </g>
     </g>
     <g id="text_7">
      <!-- 6000 -->
      <g transform="translate(383.254771 271.754799) scale(0.1 -0.1)">
       <defs>
        <path id="DejaVuSans-36" d="M 2113 2584 
Q 1688 2584 1439 2293 
Q 1191 2003 1191 1497 
Q 1191 994 1439 701 
Q 1688 409 2113 409 
Q 2538 409 2786 701 
Q 3034 994 3034 1497 
Q 3034 2003 2786 2293 
Q 2538 2584 2113 2584 
z
M 3366 4563 
L 3366 3988 
Q 3128 4100 2886 4159 
Q 2644 4219 2406 4219 
Q 1781 4219 1451 3797 
Q 1122 3375 1075 2522 
Q 1259 2794 1537 2939 
Q 1816 3084 2150 3084 
Q 2853 3084 3261 2657 
Q 3669 2231 3669 1497 
Q 3669 778 3244 343 
Q 2819 -91 2113 -91 
Q 1303 -91 875 529 
Q 447 1150 447 2328 
Q 447 3434 972 4092 
Q 1497 4750 2381 4750 
Q 2619 4750 2861 4703 
Q 3103 4656 3366 4563 
z
" transform="scale(0.015625)"/>
       </defs>
       <use xlink:href="#DejaVuSans-36"/>
       <use xlink:href="#DejaVuSans-30" transform="translate(63.623047 0)"/>
       <use xlink:href="#DejaVuSans-30" transform="translate(127.246094 0)"/>
       <use xlink:href="#DejaVuSans-30" transform="translate(190.869141 0)"/>
      </g>
     </g>
    </g>
    <g id="text_8">
     <!-- birth_time [µs] -->
     <g transform="translate(195.553005 285.432924) scale(0.1 -0.1)">
      <defs>
       <path id="DejaVuSans-62" d="M 3116 1747 
Q 3116 2381 2855 2742 
Q 2594 3103 2138 3103 
Q 1681 3103 1420 2742 
Q 1159 2381 1159 1747 
Q 1159 1113 1420 752 
Q 1681 391 2138 391 
Q 2594 391 2855 752 
Q 3116 1113 3116 1747 
z
M 1159 2969 
Q 1341 3281 1617 3432 
Q 1894 3584 2278 3584 
Q 2916 3584 3314 3078 
Q 3713 2572 3713 1747 
Q 3713 922 3314 415 
Q 2916 -91 2278 -91 
Q 1894 -91 1617 61 
Q 1341 213 1159 525 
L 1159 0 
L 581 0 
L 581 4863 
L 1159 4863 
L 1159 2969 
z
" transform="scale(0.015625)"/>
       <path id="DejaVuSans-69" d="M 603 3500 
L 1178 3500 
L 1178 0 
L 603 0 
L 603 3500 
z
M 603 4863 
L 1178 4863 
L 1178 4134 
L 603 4134 
L 603 4863 
z
" transform="scale(0.015625)"/>
       <path id="DejaVuSans-72" d="M 2631 2963 
Q 2534 3019 2420 3045 
Q 2306 3072 2169 3072 
Q 1681 3072 1420 2755 
Q 1159 2438 1159 1844 
L 1159 0 
L 581 0 
L 581 3500 
L 1159 3500 
L 1159 2956 
Q 1341 3275 1631 3429 
Q 1922 3584 2338 3584 
Q 2397 3584 2469 3576 
Q 2541 3569 2628 3553 
L 2631 2963 
z
" transform="scale(0.015625)"/>
       <path id="DejaVuSans-74" d="M 1172 4494 
L 1172 3500 
L 2356 3500 
L 2356 3053 
L 1172 3053 
L 1172 1153 
Q 1172 725 1289 603 
Q 1406 481 1766 481 
L 2356 481 
L 2356 0 
L 1766 0 
Q 1100 0 847 248 
Q 594 497 594 1153 
L 594 3053 
L 172 3053 
L 172 3500 
L 594 3500 
L 594 4494 
L 1172 4494 
z
" transform="scale(0.015625)"/>
       <path id="DejaVuSans-68" d="M 3513 2113 
L 3513 0 
L 2938 0 
L 2938 2094 
Q 2938 2591 2744 2837 
Q 2550 3084 2163 3084 
Q 1697 3084 1428 2787 
Q 1159 2491 1159 1978 
L 1159 0 
L 581 0 
L 581 4863 
L 1159 4863 
L 1159 2956 
Q 1366 3272 1645 3428 
Q 1925 3584 2291 3584 
Q 2894 3584 3203 3211 
Q 3513 2838 3513 2113 
z
" transform="scale(0.015625)"/>
       <path id="DejaVuSans-5f" d="M 3263 -1063 
L 3263 -1509 
L -63 -1509 
L -63 -1063 
L 3263 -1063 
z
" transform="scale(0.015625)"/>
       <path id="DejaVuSans-6d" d="M 3328 2828 
Q 3544 3216 3844 3400 
Q 4144 3584 4550 3584 
Q 5097 3584 5394 3201 
Q 5691 2819 5691 2113 
L 5691 0 
L 5113 0 
L 5113 2094 
Q 5113 2597 4934 2840 
Q 4756 3084 4391 3084 
Q 3944 3084 3684 2787 
Q 3425 2491 3425 1978 
L 3425 0 
L 2847 0 
L 2847 2094 
Q 2847 2600 2669 2842 
Q 2491 3084 2119 3084 
Q 1678 3084 1418 2786 
Q 1159 2488 1159 1978 
L 1159 0 
L 581 0 
L 581 3500 
L 1159 3500 
L 1159 2956 
Q 1356 3278 1631 3431 
Q 1906 3584 2284 3584 
Q 2666 3584 2933 3390 
Q 3200 3197 3328 2828 
z
" transform="scale(0.015625)"/>
       <path id="DejaVuSans-65" d="M 3597 1894 
L 3597 1613 
L 953 1613 
Q 991 1019 1311 708 
Q 1631 397 2203 397 
Q 2534 397 2845 478 
Q 3156 559 3463 722 
L 3463 178 
Q 3153 47 2828 -22 
Q 2503 -91 2169 -91 
Q 1331 -91 842 396 
Q 353 884 353 1716 
Q 353 2575 817 3079 
Q 1281 3584 2069 3584 
Q 2775 3584 3186 3129 
Q 3597 2675 3597 1894 
z
M 3022 2063 
Q 3016 2534 2758 2815 
Q 2500 3097 2075 3097 
Q 1594 3097 1305 2825 
Q 1016 2553 972 2059 
L 3022 2063 
z
" transform="scale(0.015625)"/>
       <path id="DejaVuSans-20" transform="scale(0.015625)"/>
       <path id="DejaVuSans-5b" d="M 550 4863 
L 1875 4863 
L 1875 4416 
L 1125 4416 
L 1125 -397 
L 1875 -397 
L 1875 -844 
L 550 -844 
L 550 4863 
z
" transform="scale(0.015625)"/>
       <path id="DejaVuSans-b5" d="M 544 -1331 
L 544 3500 
L 1119 3500 
L 1119 1325 
Q 1119 872 1334 640 
Q 1550 409 1972 409 
Q 2434 409 2667 671 
Q 2900 934 2900 1459 
L 2900 3500 
L 3475 3500 
L 3475 806 
Q 3475 619 3529 530 
Q 3584 441 3700 441 
Q 3728 441 3778 458 
Q 3828 475 3916 513 
L 3916 50 
Q 3788 -22 3673 -56 
Q 3559 -91 3450 -91 
Q 3234 -91 3106 31 
Q 2978 153 2931 403 
Q 2775 156 2548 32 
Q 2322 -91 2016 -91 
Q 1697 -91 1473 31 
Q 1250 153 1119 397 
L 1119 -1331 
L 544 -1331 
z
" transform="scale(0.015625)"/>
       <path id="DejaVuSans-73" d="M 2834 3397 
L 2834 2853 
Q 2591 2978 2328 3040 
Q 2066 3103 1784 3103 
Q 1356 3103 1142 2972 
Q 928 2841 928 2578 
Q 928 2378 1081 2264 
Q 1234 2150 1697 2047 
L 1894 2003 
Q 2506 1872 2764 1633 
Q 3022 1394 3022 966 
Q 3022 478 2636 193 
Q 2250 -91 1575 -91 
Q 1294 -91 989 -36 
Q 684 19 347 128 
L 347 722 
Q 666 556 975 473 
Q 1284 391 1588 391 
Q 1994 391 2212 530 
Q 2431 669 2431 922 
Q 2431 1156 2273 1281 
Q 2116 1406 1581 1522 
L 1381 1569 
Q 847 1681 609 1914 
Q 372 2147 372 2553 
Q 372 3047 722 3315 
Q 1072 3584 1716 3584 
Q 2034 3584 2315 3537 
Q 2597 3491 2834 3397 
z
" transform="scale(0.015625)"/>
       <path id="DejaVuSans-5d" d="M 1947 4863 
L 1947 -844 
L 622 -844 
L 622 -397 
L 1369 -397 
L 1369 4416 
L 622 4416 
L 622 4863 
L 1947 4863 
z
" transform="scale(0.015625)"/>
      </defs>
      <use xlink:href="#DejaVuSans-62"/>
      <use xlink:href="#DejaVuSans-69" transform="translate(63.476562 0)"/>
      <use xlink:href="#DejaVuSans-72" transform="translate(91.259766 0)"/>
      <use xlink:href="#DejaVuSans-74" transform="translate(132.373047 0)"/>
      <use xlink:href="#DejaVuSans-68" transform="translate(171.582031 0)"/>
      <use xlink:href="#DejaVuSans-5f" transform="translate(234.960938 0)"/>
      <use xlink:href="#DejaVuSans-74" transform="translate(284.960938 0)"/>
      <use xlink:href="#DejaVuSans-69" transform="translate(324.169922 0)"/>
      <use xlink:href="#DejaVuSans-6d" transform="translate(351.953125 0)"/>
      <use xlink:href="#DejaVuSans-65" transform="translate(449.365234 0)"/>
      <use xlink:href="#DejaVuSans-20" transform="translate(510.888672 0)"/>
      <use xlink:href="#DejaVuSans-5b" transform="translate(542.675781 0)"/>
      <use xlink:href="#DejaVuSans-b5" transform="translate(581.689453 0)"/>
      <use xlink:href="#DejaVuSans-73" transform="translate(645.3125 0)"/>
      <use xlink:href="#DejaVuSans-5d" transform="translate(697.412109 0)"/>
     </g>
    </g>
   </g>
   <g id="matplotlib.axis_2">
    <g id="ytick_1">
     <g id="line2d_8">
      <defs>
       <path id="m8bcce2ad08" d="M 0 0 
L -3.5 0 
" style="stroke: #000000; stroke-width: 0.8"/>
      </defs>
      <g>
       <use xlink:href="#m8bcce2ad08" x="53.328125" y="245.857048" style="stroke: #000000; stroke-width: 0.8"/>
      </g>
     </g>
     <g id="text_9">
      <!-- 0 -->
      <g transform="translate(39.965625 249.656267) scale(0.1 -0.1)">
       <use xlink:href="#DejaVuSans-30"/>
      </g>
     </g>
    </g>
    <g id="ytick_2">
     <g id="line2d_9">
      <g>
       <use xlink:href="#m8bcce2ad08" x="53.328125" y="214.404542" style="stroke: #000000; stroke-width: 0.8"/>
      </g>
     </g>
     <g id="text_10">
      <!-- 1000 -->
      <g transform="translate(20.878125 218.203761) scale(0.1 -0.1)">
       <use xlink:href="#DejaVuSans-31"/>
       <use xlink:href="#DejaVuSans-30" transform="translate(63.623047 0)"/>
       <use xlink:href="#DejaVuSans-30" transform="translate(127.246094 0)"/>
       <use xlink:href="#DejaVuSans-30" transform="translate(190.869141 0)"/>
      </g>
     </g>
    </g>
    <g id="ytick_3">
     <g id="line2d_10">
      <g>
       <use xlink:href="#m8bcce2ad08" x="53.328125" y="182.952036" style="stroke: #000000; stroke-width: 0.8"/>
      </g>
     </g>
     <g id="text_11">
      <!-- 2000 -->
      <g transform="translate(20.878125 186.751254) scale(0.1 -0.1)">
       <use xlink:href="#DejaVuSans-32"/>
       <use xlink:href="#DejaVuSans-30" transform="translate(63.623047 0)"/>
       <use xlink:href="#DejaVuSans-30" transform="translate(127.246094 0)"/>
       <use xlink:href="#DejaVuSans-30" transform="translate(190.869141 0)"/>
      </g>
     </g>
    </g>
    <g id="ytick_4">
     <g id="line2d_11">
      <g>
       <use xlink:href="#m8bcce2ad08" x="53.328125" y="151.499529" style="stroke: #000000; stroke-width: 0.8"/>
      </g>
     </g>
     <g id="text_12">
      <!-- 3000 -->
      <g transform="translate(20.878125 155.298748) scale(0.1 -0.1)">
       <use xlink:href="#DejaVuSans-33"/>
       <use xlink:href="#DejaVuSans-30" transform="translate(63.623047 0)"/>
       <use xlink:href="#DejaVuSans-30" transform="translate(127.246094 0)"/>
       <use xlink:href="#DejaVuSans-30" transform="translate(190.869141 0)"/>
      </g>
     </g>
    </g>
    <g id="ytick_5">
     <g id="line2d_12">
      <g>
       <use xlink:href="#m8bcce2ad08" x="53.328125" y="120.047023" style="stroke: #000000; stroke-width: 0.8"/>
      </g>
     </g>
     <g id="text_13">
      <!-- 4000 -->
      <g transform="translate(20.878125 123.846242) scale(0.1 -0.1)">
       <use xlink:href="#DejaVuSans-34"/>
       <use xlink:href="#DejaVuSans-30" transform="translate(63.623047 0)"/>
       <use xlink:href="#DejaVuSans-30" transform="translate(127.246094 0)"/>
       <use xlink:href="#DejaVuSans-30" transform="translate(190.869141 0)"/>
      </g>
     </g>
    </g>
    <g id="ytick_6">
     <g id="line2d_13">
      <g>
       <use xlink:href="#m8bcce2ad08" x="53.328125" y="88.594517" style="stroke: #000000; stroke-width: 0.8"/>
      </g>
     </g>
     <g id="text_14">
      <!-- 5000 -->
      <g transform="translate(20.878125 92.393735) scale(0.1 -0.1)">
       <use xlink:href="#DejaVuSans-35"/>
       <use xlink:href="#DejaVuSans-30" transform="translate(63.623047 0)"/>
       <use xlink:href="#DejaVuSans-30" transform="translate(127.246094 0)"/>
       <use xlink:href="#DejaVuSans-30" transform="translate(190.869141 0)"/>
      </g>
     </g>
    </g>
    <g id="ytick_7">
     <g id="line2d_14">
      <g>
       <use xlink:href="#m8bcce2ad08" x="53.328125" y="57.14201" style="stroke: #000000; stroke-width: 0.8"/>
      </g>
     </g>
     <g id="text_15">
      <!-- 6000 -->
      <g transform="translate(20.878125 60.941229) scale(0.1 -0.1)">
       <use xlink:href="#DejaVuSans-36"/>
       <use xlink:href="#DejaVuSans-30" transform="translate(63.623047 0)"/>
       <use xlink:href="#DejaVuSans-30" transform="translate(127.246094 0)"/>
       <use xlink:href="#DejaVuSans-30" transform="translate(190.869141 0)"/>
      </g>
     </g>
    </g>
    <g id="ytick_8">
     <g id="line2d_15">
      <g>
       <use xlink:href="#m8bcce2ad08" x="53.328125" y="25.689504" style="stroke: #000000; stroke-width: 0.8"/>
      </g>
     </g>
     <g id="text_16">
      <!-- 7000 -->
      <g transform="translate(20.878125 29.488723) scale(0.1 -0.1)">
       <defs>
        <path id="DejaVuSans-37" d="M 525 4666 
L 3525 4666 
L 3525 4397 
L 1831 0 
L 1172 0 
L 2766 4134 
L 525 4134 
L 525 4666 
z
" transform="scale(0.015625)"/>
       </defs>
       <use xlink:href="#DejaVuSans-37"/>
       <use xlink:href="#DejaVuSans-30" transform="translate(63.623047 0)"/>
       <use xlink:href="#DejaVuSans-30" transform="translate(127.246094 0)"/>
       <use xlink:href="#DejaVuSans-30" transform="translate(190.869141 0)"/>
      </g>
     </g>
    </g>
    <g id="text_17">
     <!-- pulse:0 [counts] -->
     <g transform="translate(14.798438 173.344388) rotate(-90) scale(0.1 -0.1)">
      <defs>
       <path id="DejaVuSans-70" d="M 1159 525 
L 1159 -1331 
L 581 -1331 
L 581 3500 
L 1159 3500 
L 1159 2969 
Q 1341 3281 1617 3432 
Q 1894 3584 2278 3584 
Q 2916 3584 3314 3078 
Q 3713 2572 3713 1747 
Q 3713 922 3314 415 
Q 2916 -91 2278 -91 
Q 1894 -91 1617 61 
Q 1341 213 1159 525 
z
M 3116 1747 
Q 3116 2381 2855 2742 
Q 2594 3103 2138 3103 
Q 1681 3103 1420 2742 
Q 1159 2381 1159 1747 
Q 1159 1113 1420 752 
Q 1681 391 2138 391 
Q 2594 391 2855 752 
Q 3116 1113 3116 1747 
z
" transform="scale(0.015625)"/>
       <path id="DejaVuSans-75" d="M 544 1381 
L 544 3500 
L 1119 3500 
L 1119 1403 
Q 1119 906 1312 657 
Q 1506 409 1894 409 
Q 2359 409 2629 706 
Q 2900 1003 2900 1516 
L 2900 3500 
L 3475 3500 
L 3475 0 
L 2900 0 
L 2900 538 
Q 2691 219 2414 64 
Q 2138 -91 1772 -91 
Q 1169 -91 856 284 
Q 544 659 544 1381 
z
M 1991 3584 
L 1991 3584 
z
" transform="scale(0.015625)"/>
       <path id="DejaVuSans-6c" d="M 603 4863 
L 1178 4863 
L 1178 0 
L 603 0 
L 603 4863 
z
" transform="scale(0.015625)"/>
       <path id="DejaVuSans-3a" d="M 750 794 
L 1409 794 
L 1409 0 
L 750 0 
L 750 794 
z
M 750 3309 
L 1409 3309 
L 1409 2516 
L 750 2516 
L 750 3309 
z
" transform="scale(0.015625)"/>
       <path id="DejaVuSans-63" d="M 3122 3366 
L 3122 2828 
Q 2878 2963 2633 3030 
Q 2388 3097 2138 3097 
Q 1578 3097 1268 2742 
Q 959 2388 959 1747 
Q 959 1106 1268 751 
Q 1578 397 2138 397 
Q 2388 397 2633 464 
Q 2878 531 3122 666 
L 3122 134 
Q 2881 22 2623 -34 
Q 2366 -91 2075 -91 
Q 1284 -91 818 406 
Q 353 903 353 1747 
Q 353 2603 823 3093 
Q 1294 3584 2113 3584 
Q 2378 3584 2631 3529 
Q 2884 3475 3122 3366 
z
" transform="scale(0.015625)"/>
       <path id="DejaVuSans-6f" d="M 1959 3097 
Q 1497 3097 1228 2736 
Q 959 2375 959 1747 
Q 959 1119 1226 758 
Q 1494 397 1959 397 
Q 2419 397 2687 759 
Q 2956 1122 2956 1747 
Q 2956 2369 2687 2733 
Q 2419 3097 1959 3097 
z
M 1959 3584 
Q 2709 3584 3137 3096 
Q 3566 2609 3566 1747 
Q 3566 888 3137 398 
Q 2709 -91 1959 -91 
Q 1206 -91 779 398 
Q 353 888 353 1747 
Q 353 2609 779 3096 
Q 1206 3584 1959 3584 
z
" transform="scale(0.015625)"/>
       <path id="DejaVuSans-6e" d="M 3513 2113 
L 3513 0 
L 2938 0 
L 2938 2094 
Q 2938 2591 2744 2837 
Q 2550 3084 2163 3084 
Q 1697 3084 1428 2787 
Q 1159 2491 1159 1978 
L 1159 0 
L 581 0 
L 581 3500 
L 1159 3500 
L 1159 2956 
Q 1366 3272 1645 3428 
Q 1925 3584 2291 3584 
Q 2894 3584 3203 3211 
Q 3513 2838 3513 2113 
z
" transform="scale(0.015625)"/>
      </defs>
      <use xlink:href="#DejaVuSans-70"/>
      <use xlink:href="#DejaVuSans-75" transform="translate(63.476562 0)"/>
      <use xlink:href="#DejaVuSans-6c" transform="translate(126.855469 0)"/>
      <use xlink:href="#DejaVuSans-73" transform="translate(154.638672 0)"/>
      <use xlink:href="#DejaVuSans-65" transform="translate(206.738281 0)"/>
      <use xlink:href="#DejaVuSans-3a" transform="translate(268.261719 0)"/>
      <use xlink:href="#DejaVuSans-30" transform="translate(301.953125 0)"/>
      <use xlink:href="#DejaVuSans-20" transform="translate(365.576172 0)"/>
      <use xlink:href="#DejaVuSans-5b" transform="translate(397.363281 0)"/>
      <use xlink:href="#DejaVuSans-63" transform="translate(436.376953 0)"/>
      <use xlink:href="#DejaVuSans-6f" transform="translate(491.357422 0)"/>
      <use xlink:href="#DejaVuSans-75" transform="translate(552.539062 0)"/>
      <use xlink:href="#DejaVuSans-6e" transform="translate(615.917969 0)"/>
      <use xlink:href="#DejaVuSans-74" transform="translate(679.296875 0)"/>
      <use xlink:href="#DejaVuSans-73" transform="translate(718.505859 0)"/>
      <use xlink:href="#DejaVuSans-5d" transform="translate(770.605469 0)"/>
     </g>
    </g>
   </g>
   <g id="line2d_16">
    <path d="M 69.604961 226.671019 
L 70.690083 226.671019 
L 70.690083 217.89577 
L 71.775205 217.89577 
L 71.775205 209.277783 
L 72.860328 209.277783 
L 72.860328 195.690301 
L 73.94545 195.690301 
L 73.94545 186.694884 
L 75.030573 186.694884 
L 75.030573 175.780864 
L 76.115695 175.780864 
L 76.115695 164.520867 
L 77.200817 164.520867 
L 77.200817 152.160032 
L 78.28594 152.160032 
L 78.28594 146.750201 
L 79.371062 146.750201 
L 79.371062 143.321878 
L 80.456184 143.321878 
L 80.456184 129.828753 
L 81.541307 129.828753 
L 81.541307 124.576184 
L 82.626429 124.576184 
L 82.626429 117.719538 
L 83.711552 117.719538 
L 83.711552 114.951717 
L 84.796674 114.951717 
L 84.796674 101.081162 
L 85.881796 101.081162 
L 85.881796 102.370714 
L 86.966919 102.370714 
L 86.966919 95.734236 
L 88.052041 95.734236 
L 88.052041 91.425242 
L 89.137163 91.425242 
L 89.137163 90.89055 
L 90.222286 90.89055 
L 90.222286 86.015411 
L 91.307408 86.015411 
L 91.307408 79.72491 
L 92.392531 79.72491 
L 92.392531 78.309547 
L 93.477653 78.309547 
L 93.477653 72.396476 
L 94.562775 72.396476 
L 94.562775 67.30117 
L 95.647898 67.30117 
L 95.647898 67.04955 
L 96.73302 67.04955 
L 96.73302 66.357595 
L 97.818143 66.357595 
L 97.818143 63.117987 
L 98.903265 63.117987 
L 98.903265 58.148491 
L 99.988387 58.148491 
L 99.988387 63.967204 
L 101.07351 63.967204 
L 101.07351 59.249328 
L 102.158632 59.249328 
L 102.158632 53.776592 
L 103.243754 53.776592 
L 103.243754 52.392682 
L 104.328877 52.392682 
L 104.328877 49.876481 
L 105.413999 49.876481 
L 105.413999 47.737711 
L 106.499122 47.737711 
L 106.499122 51.857989 
L 107.584244 51.857989 
L 107.584244 44.812628 
L 108.669366 44.812628 
L 108.669366 45.661846 
L 109.754489 45.661846 
L 109.754489 46.919946 
L 110.839611 46.919946 
L 110.839611 43.114193 
L 111.924733 43.114193 
L 111.924733 41.384305 
L 113.009856 41.384305 
L 113.009856 42.642405 
L 114.094978 42.642405 
L 114.094978 40.881065 
L 115.180101 40.881065 
L 115.180101 37.295479 
L 116.265223 37.295479 
L 116.265223 37.987434 
L 117.350345 37.987434 
L 117.350345 38.333412 
L 118.435468 38.333412 
L 118.435468 36.288999 
L 119.52059 36.288999 
L 119.52059 37.893077 
L 120.605712 37.893077 
L 120.605712 37.421289 
L 121.690835 37.421289 
L 121.690835 39.119724 
L 122.775957 39.119724 
L 122.775957 31.130788 
L 123.86108 31.130788 
L 123.86108 34.464753 
L 124.946202 34.464753 
L 124.946202 34.087323 
L 126.031324 34.087323 
L 126.031324 33.804251 
L 127.116447 33.804251 
L 127.116447 30.721905 
L 128.201569 30.721905 
L 128.201569 35.471234 
L 129.286692 35.471234 
L 129.286692 32.16872 
L 130.371814 32.16872 
L 130.371814 33.489726 
L 131.456936 33.489726 
L 131.456936 30.250118 
L 132.542059 30.250118 
L 132.542059 28.551682 
L 133.627181 28.551682 
L 133.627181 30.53319 
L 134.712303 30.53319 
L 134.712303 34.181681 
L 135.797426 34.181681 
L 135.797426 24.903191 
L 136.882548 24.903191 
L 136.882548 31.634028 
L 137.967671 31.634028 
L 137.967671 28.237157 
L 139.052793 28.237157 
L 139.052793 26.318554 
L 140.137915 26.318554 
L 140.137915 29.02347 
L 141.223038 29.02347 
L 141.223038 32.67196 
L 142.30816 32.67196 
L 142.30816 31.53967 
L 143.393282 31.53967 
L 143.393282 28.52023 
L 144.478405 28.52023 
L 144.478405 29.841235 
L 145.563527 29.841235 
L 145.563527 29.180732 
L 146.64865 29.180732 
L 146.64865 28.64604 
L 147.733772 28.64604 
L 147.733772 26.538722 
L 148.818894 26.538722 
L 148.818894 30.061402 
L 149.904017 30.061402 
L 149.904017 28.740397 
L 150.989139 28.740397 
L 150.989139 24.997549 
L 152.074261 24.997549 
L 152.074261 23.519281 
L 153.159384 23.519281 
L 153.159384 27.262129 
L 154.244506 27.262129 
L 154.244506 27.576654 
L 155.329629 27.576654 
L 155.329629 24.368499 
L 156.414751 24.368499 
L 156.414751 20.908723 
L 157.499873 20.908723 
L 157.499873 25.626599 
L 158.584996 25.626599 
L 158.584996 26.633079 
L 159.670118 26.633079 
L 159.670118 31.79129 
L 161.840363 31.854195 
L 161.840363 31.9171 
L 162.925485 31.9171 
L 162.925485 30.470285 
L 164.010608 30.470285 
L 164.010608 26.161292 
L 165.09573 26.161292 
L 165.09573 23.770901 
L 166.180852 23.770901 
L 166.180852 24.431404 
L 167.265975 24.431404 
L 167.265975 25.060454 
L 168.351097 25.060454 
L 168.351097 26.098387 
L 169.43622 26.098387 
L 169.43622 29.180732 
L 170.521342 29.180732 
L 170.521342 25.846767 
L 171.606464 25.846767 
L 171.606464 21.852298 
L 172.691587 21.852298 
L 172.691587 24.148331 
L 173.776709 24.148331 
L 173.776709 25.532242 
L 174.861831 25.532242 
L 174.861831 23.424924 
L 175.946954 23.424924 
L 175.946954 25.846767 
L 177.032076 25.846767 
L 177.032076 24.997549 
L 178.117199 24.997549 
L 178.117199 26.507269 
L 179.202321 26.507269 
L 179.202321 27.985537 
L 180.287443 27.985537 
L 180.287443 26.381459 
L 181.372566 26.381459 
L 181.372566 25.060454 
L 184.627933 25.154811 
L 184.627933 24.148331 
L 185.713055 24.148331 
L 185.713055 24.808834 
L 187.8833 24.840286 
L 187.8833 25.406432 
L 188.968422 25.406432 
L 188.968422 26.633079 
L 190.053545 26.633079 
L 190.053545 24.494309 
L 191.138667 24.494309 
L 191.138667 29.4009 
L 192.223789 29.4009 
L 192.223789 30.061402 
L 193.308912 30.061402 
L 193.308912 24.588666 
L 194.394034 24.588666 
L 194.394034 27.954085 
L 195.479157 27.954085 
L 195.479157 28.834755 
L 196.564279 28.834755 
L 196.564279 24.966096 
L 197.649401 24.966096 
L 197.649401 29.117827 
L 198.734524 29.117827 
L 198.734524 24.997549 
L 199.819646 24.997549 
L 199.819646 28.929112 
L 200.904769 28.929112 
L 200.904769 28.237157 
L 201.989891 28.237157 
L 201.989891 30.438833 
L 203.075013 30.438833 
L 203.075013 25.406432 
L 204.160136 25.406432 
L 204.160136 25.626599 
L 205.245258 25.626599 
L 205.245258 27.136319 
L 206.33038 27.136319 
L 206.33038 27.76537 
L 207.415503 27.76537 
L 207.415503 31.256598 
L 208.500625 31.256598 
L 208.500625 19.87079 
L 209.585748 19.87079 
L 209.585748 30.02995 
L 210.67087 30.02995 
L 210.67087 26.758889 
L 211.755992 26.758889 
L 211.755992 29.998497 
L 212.841115 29.998497 
L 212.841115 24.179784 
L 213.926237 24.179784 
L 213.926237 27.702464 
L 215.011359 27.702464 
L 215.011359 24.714476 
L 216.096482 24.714476 
L 216.096482 28.1428 
L 217.181604 28.1428 
L 217.181604 26.224197 
L 218.266727 26.224197 
L 218.266727 24.651571 
L 219.351849 24.651571 
L 219.351849 26.475817 
L 220.436971 26.475817 
L 220.436971 28.39442 
L 221.522094 28.39442 
L 221.522094 25.500789 
L 222.607216 25.500789 
L 222.607216 22.261181 
L 223.692338 22.261181 
L 223.692338 32.955033 
L 224.777461 32.955033 
L 224.777461 43.397265 
L 225.862583 43.397265 
L 225.862583 51.700727 
L 226.947706 51.700727 
L 226.947706 58.368658 
L 228.032828 58.368658 
L 228.032828 70.226253 
L 229.11795 70.226253 
L 229.11795 87.273511 
L 230.203073 87.273511 
L 230.203073 94.633398 
L 231.288195 94.633398 
L 231.288195 99.697251 
L 232.373317 99.697251 
L 232.373317 113.976689 
L 233.45844 113.976689 
L 233.45844 122.343056 
L 234.543562 122.343056 
L 234.543562 127.878697 
L 235.628685 127.878697 
L 235.628685 138.887074 
L 236.713807 138.887074 
L 236.713807 146.592938 
L 237.798929 146.592938 
L 237.798929 147.096178 
L 238.884052 147.096178 
L 238.884052 155.368188 
L 239.969174 155.368188 
L 239.969174 166.94271 
L 241.054297 166.94271 
L 241.054297 169.867793 
L 242.139419 169.867793 
L 242.139419 171.220251 
L 243.224541 171.220251 
L 243.224541 180.026953 
L 244.309664 180.026953 
L 244.309664 184.367398 
L 245.394786 184.367398 
L 245.394786 187.638459 
L 246.479908 187.638459 
L 246.479908 189.305442 
L 247.565031 189.305442 
L 247.565031 194.746726 
L 248.650153 194.746726 
L 248.650153 198.709741 
L 249.735276 198.709741 
L 249.735276 201.257394 
L 250.820398 201.257394 
L 250.820398 203.490522 
L 251.90552 203.490522 
L 251.90552 205.34622 
L 252.990643 205.34622 
L 252.990643 208.743091 
L 254.075765 208.743091 
L 254.075765 212.863369 
L 255.160887 212.863369 
L 255.160887 212.360129 
L 256.24601 212.360129 
L 256.24601 214.75052 
L 257.331132 214.75052 
L 257.331132 219.090965 
L 258.416255 219.090965 
L 258.416255 219.594206 
L 259.501377 219.594206 
L 259.501377 221.198283 
L 261.671622 221.292641 
L 261.671622 224.595154 
L 262.756744 224.595154 
L 262.756744 226.199232 
L 263.841866 226.199232 
L 263.841866 227.142807 
L 264.926989 227.142807 
L 264.926989 228.149287 
L 266.012111 228.149287 
L 266.012111 227.740405 
L 267.097234 227.740405 
L 267.097234 230.225153 
L 268.182356 230.225153 
L 268.182356 231.168728 
L 269.267478 231.168728 
L 269.267478 232.772806 
L 270.352601 232.772806 
L 270.352601 232.646996 
L 271.437723 232.646996 
L 271.437723 232.898616 
L 272.522846 232.898616 
L 272.522846 234.848671 
L 273.607968 234.848671 
L 273.607968 235.351911 
L 274.69309 235.351911 
L 274.69309 236.830179 
L 275.778213 236.830179 
L 275.778213 235.792246 
L 276.863335 235.792246 
L 276.863335 237.144704 
L 277.948457 237.144704 
L 277.948457 237.805207 
L 280.118702 237.899564 
L 280.118702 239.47219 
L 281.203825 239.47219 
L 281.203825 239.283474 
L 282.288947 239.283474 
L 282.288947 240.541575 
L 283.374069 240.541575 
L 283.374069 239.535095 
L 284.459192 239.535095 
L 284.459192 240.289955 
L 285.544314 240.289955 
L 285.544314 240.667385 
L 286.629436 240.667385 
L 286.629436 241.044815 
L 288.799681 241.139172 
L 288.799681 241.894033 
L 290.969926 241.86258 
L 290.969926 242.334368 
L 292.055048 242.334368 
L 292.055048 242.523083 
L 294.225293 242.428725 
L 294.225293 242.177105 
L 295.310415 242.177105 
L 295.310415 243.12068 
L 296.395538 243.12068 
L 296.395538 243.403753 
L 298.565783 243.435205 
L 298.565783 242.963418 
L 299.650905 242.963418 
L 299.650905 243.152133 
L 300.736027 243.152133 
L 300.736027 244.158613 
L 301.82115 244.158613 
L 301.82115 244.032803 
L 303.991394 244.00135 
L 303.991394 244.190065 
L 305.076517 244.190065 
L 305.076517 244.315875 
L 306.161639 244.315875 
L 306.161639 243.906993 
L 307.246762 243.906993 
L 307.246762 244.221518 
L 308.331884 244.221518 
L 308.331884 244.567496 
L 309.417006 244.567496 
L 309.417006 244.221518 
L 310.502129 244.221518 
L 310.502129 244.410233 
L 311.587251 244.410233 
L 311.587251 244.536043 
L 312.672374 244.536043 
L 312.672374 245.102188 
L 313.757496 245.102188 
L 313.757496 244.567496 
L 314.842618 244.567496 
L 314.842618 244.850568 
L 317.012863 244.756211 
L 317.012863 245.007831 
L 320.26823 245.102188 
L 320.26823 245.227998 
L 325.693842 245.322356 
L 325.693842 245.353808 
L 327.864087 245.322356 
L 327.864087 245.479618 
L 337.630188 245.542523 
L 337.630188 245.699786 
L 338.715311 245.699786 
L 338.715311 245.479618 
L 339.800433 245.479618 
L 339.800433 245.794143 
L 340.885555 245.794143 
L 340.885555 245.636881 
L 345.226045 245.699786 
L 345.226045 245.511071 
L 346.311167 245.511071 
L 346.311167 245.731238 
L 347.39629 245.731238 
L 347.39629 245.605428 
L 348.481412 245.605428 
L 348.481412 245.731238 
L 363.673125 245.699786 
L 363.673125 245.857048 
L 365.84337 245.857048 
L 365.84337 245.699786 
L 368.013615 245.762691 
L 368.013615 245.857048 
L 372.354104 245.794143 
L 372.354104 245.668333 
L 373.439227 245.668333 
L 373.439227 245.825596 
L 395.141674 245.825596 
L 395.141674 245.825596 
" clip-path="url(#pf8d0cd7ae0)" style="fill: none; stroke: #1f77b4; stroke-width: 1.5; stroke-linecap: square"/>
   </g>
   <g id="patch_3">
    <path d="M 53.328125 257.156361 
L 53.328125 8.571478 
" style="fill: none; stroke: #000000; stroke-width: 0.8; stroke-linejoin: miter; stroke-linecap: square"/>
   </g>
   <g id="patch_4">
    <path d="M 411.41851 257.156361 
L 411.41851 8.571478 
" style="fill: none; stroke: #000000; stroke-width: 0.8; stroke-linejoin: miter; stroke-linecap: square"/>
   </g>
   <g id="patch_5">
    <path d="M 53.328125 257.156361 
L 411.41851 257.156361 
" style="fill: none; stroke: #000000; stroke-width: 0.8; stroke-linejoin: miter; stroke-linecap: square"/>
   </g>
   <g id="patch_6">
    <path d="M 53.328125 8.571478 
L 411.41851 8.571478 
" style="fill: none; stroke: #000000; stroke-width: 0.8; stroke-linejoin: miter; stroke-linecap: square"/>
   </g>
  </g>
  <g id="axes_2">
   <g id="patch_7">
    <path d="M 507.109135 257.156361 
L 865.19952 257.156361 
L 865.19952 8.571478 
L 507.109135 8.571478 
z
" style="fill: #ffffff"/>
   </g>
   <g id="matplotlib.axis_3">
    <g id="xtick_8">
     <g id="line2d_17">
      <g>
       <use xlink:href="#ma1dfe3a030" x="521.749975" y="257.156361" style="stroke: #000000; stroke-width: 0.8"/>
      </g>
     </g>
     <g id="text_18">
      <!-- 0.0 -->
      <g transform="translate(513.798412 271.754799) scale(0.1 -0.1)">
       <defs>
        <path id="DejaVuSans-2e" d="M 684 794 
L 1344 794 
L 1344 0 
L 684 0 
L 684 794 
z
" transform="scale(0.015625)"/>
       </defs>
       <use xlink:href="#DejaVuSans-30"/>
       <use xlink:href="#DejaVuSans-2e" transform="translate(63.623047 0)"/>
       <use xlink:href="#DejaVuSans-30" transform="translate(95.410156 0)"/>
      </g>
     </g>
    </g>
    <g id="xtick_9">
     <g id="line2d_18">
      <g>
       <use xlink:href="#ma1dfe3a030" x="562.649866" y="257.156361" style="stroke: #000000; stroke-width: 0.8"/>
      </g>
     </g>
     <g id="text_19">
      <!-- 2.5 -->
      <g transform="translate(554.698303 271.754799) scale(0.1 -0.1)">
       <use xlink:href="#DejaVuSans-32"/>
       <use xlink:href="#DejaVuSans-2e" transform="translate(63.623047 0)"/>
       <use xlink:href="#DejaVuSans-35" transform="translate(95.410156 0)"/>
      </g>
     </g>
    </g>
    <g id="xtick_10">
     <g id="line2d_19">
      <g>
       <use xlink:href="#ma1dfe3a030" x="603.549757" y="257.156361" style="stroke: #000000; stroke-width: 0.8"/>
      </g>
     </g>
     <g id="text_20">
      <!-- 5.0 -->
      <g transform="translate(595.598194 271.754799) scale(0.1 -0.1)">
       <use xlink:href="#DejaVuSans-35"/>
       <use xlink:href="#DejaVuSans-2e" transform="translate(63.623047 0)"/>
       <use xlink:href="#DejaVuSans-30" transform="translate(95.410156 0)"/>
      </g>
     </g>
    </g>
    <g id="xtick_11">
     <g id="line2d_20">
      <g>
       <use xlink:href="#ma1dfe3a030" x="644.449648" y="257.156361" style="stroke: #000000; stroke-width: 0.8"/>
      </g>
     </g>
     <g id="text_21">
      <!-- 7.5 -->
      <g transform="translate(636.498085 271.754799) scale(0.1 -0.1)">
       <use xlink:href="#DejaVuSans-37"/>
       <use xlink:href="#DejaVuSans-2e" transform="translate(63.623047 0)"/>
       <use xlink:href="#DejaVuSans-35" transform="translate(95.410156 0)"/>
      </g>
     </g>
    </g>
    <g id="xtick_12">
     <g id="line2d_21">
      <g>
       <use xlink:href="#ma1dfe3a030" x="685.349538" y="257.156361" style="stroke: #000000; stroke-width: 0.8"/>
      </g>
     </g>
     <g id="text_22">
      <!-- 10.0 -->
      <g transform="translate(674.216726 271.754799) scale(0.1 -0.1)">
       <use xlink:href="#DejaVuSans-31"/>
       <use xlink:href="#DejaVuSans-30" transform="translate(63.623047 0)"/>
       <use xlink:href="#DejaVuSans-2e" transform="translate(127.246094 0)"/>
       <use xlink:href="#DejaVuSans-30" transform="translate(159.033203 0)"/>
      </g>
     </g>
    </g>
    <g id="xtick_13">
     <g id="line2d_22">
      <g>
       <use xlink:href="#ma1dfe3a030" x="726.249429" y="257.156361" style="stroke: #000000; stroke-width: 0.8"/>
      </g>
     </g>
     <g id="text_23">
      <!-- 12.5 -->
      <g transform="translate(715.116617 271.754799) scale(0.1 -0.1)">
       <use xlink:href="#DejaVuSans-31"/>
       <use xlink:href="#DejaVuSans-32" transform="translate(63.623047 0)"/>
       <use xlink:href="#DejaVuSans-2e" transform="translate(127.246094 0)"/>
       <use xlink:href="#DejaVuSans-35" transform="translate(159.033203 0)"/>
      </g>
     </g>
    </g>
    <g id="xtick_14">
     <g id="line2d_23">
      <g>
       <use xlink:href="#ma1dfe3a030" x="767.14932" y="257.156361" style="stroke: #000000; stroke-width: 0.8"/>
      </g>
     </g>
     <g id="text_24">
      <!-- 15.0 -->
      <g transform="translate(756.016508 271.754799) scale(0.1 -0.1)">
       <use xlink:href="#DejaVuSans-31"/>
       <use xlink:href="#DejaVuSans-35" transform="translate(63.623047 0)"/>
       <use xlink:href="#DejaVuSans-2e" transform="translate(127.246094 0)"/>
       <use xlink:href="#DejaVuSans-30" transform="translate(159.033203 0)"/>
      </g>
     </g>
    </g>
    <g id="xtick_15">
     <g id="line2d_24">
      <g>
       <use xlink:href="#ma1dfe3a030" x="808.049211" y="257.156361" style="stroke: #000000; stroke-width: 0.8"/>
      </g>
     </g>
     <g id="text_25">
      <!-- 17.5 -->
      <g transform="translate(796.916399 271.754799) scale(0.1 -0.1)">
       <use xlink:href="#DejaVuSans-31"/>
       <use xlink:href="#DejaVuSans-37" transform="translate(63.623047 0)"/>
       <use xlink:href="#DejaVuSans-2e" transform="translate(127.246094 0)"/>
       <use xlink:href="#DejaVuSans-35" transform="translate(159.033203 0)"/>
      </g>
     </g>
    </g>
    <g id="xtick_16">
     <g id="line2d_25">
      <g>
       <use xlink:href="#ma1dfe3a030" x="848.949102" y="257.156361" style="stroke: #000000; stroke-width: 0.8"/>
      </g>
     </g>
     <g id="text_26">
      <!-- 20.0 -->
      <g transform="translate(837.81629 271.754799) scale(0.1 -0.1)">
       <use xlink:href="#DejaVuSans-32"/>
       <use xlink:href="#DejaVuSans-30" transform="translate(63.623047 0)"/>
       <use xlink:href="#DejaVuSans-2e" transform="translate(127.246094 0)"/>
       <use xlink:href="#DejaVuSans-30" transform="translate(159.033203 0)"/>
      </g>
     </g>
    </g>
    <g id="text_27">
     <!-- wavelength [Å] -->
     <g transform="translate(648.116827 287.117299) scale(0.1 -0.1)">
      <defs>
       <path id="DejaVuSans-77" d="M 269 3500 
L 844 3500 
L 1563 769 
L 2278 3500 
L 2956 3500 
L 3675 769 
L 4391 3500 
L 4966 3500 
L 4050 0 
L 3372 0 
L 2619 2869 
L 1863 0 
L 1184 0 
L 269 3500 
z
" transform="scale(0.015625)"/>
       <path id="DejaVuSans-61" d="M 2194 1759 
Q 1497 1759 1228 1600 
Q 959 1441 959 1056 
Q 959 750 1161 570 
Q 1363 391 1709 391 
Q 2188 391 2477 730 
Q 2766 1069 2766 1631 
L 2766 1759 
L 2194 1759 
z
M 3341 1997 
L 3341 0 
L 2766 0 
L 2766 531 
Q 2569 213 2275 61 
Q 1981 -91 1556 -91 
Q 1019 -91 701 211 
Q 384 513 384 1019 
Q 384 1609 779 1909 
Q 1175 2209 1959 2209 
L 2766 2209 
L 2766 2266 
Q 2766 2663 2505 2880 
Q 2244 3097 1772 3097 
Q 1472 3097 1187 3025 
Q 903 2953 641 2809 
L 641 3341 
Q 956 3463 1253 3523 
Q 1550 3584 1831 3584 
Q 2591 3584 2966 3190 
Q 3341 2797 3341 1997 
z
" transform="scale(0.015625)"/>
       <path id="DejaVuSans-76" d="M 191 3500 
L 800 3500 
L 1894 563 
L 2988 3500 
L 3597 3500 
L 2284 0 
L 1503 0 
L 191 3500 
z
" transform="scale(0.015625)"/>
       <path id="DejaVuSans-67" d="M 2906 1791 
Q 2906 2416 2648 2759 
Q 2391 3103 1925 3103 
Q 1463 3103 1205 2759 
Q 947 2416 947 1791 
Q 947 1169 1205 825 
Q 1463 481 1925 481 
Q 2391 481 2648 825 
Q 2906 1169 2906 1791 
z
M 3481 434 
Q 3481 -459 3084 -895 
Q 2688 -1331 1869 -1331 
Q 1566 -1331 1297 -1286 
Q 1028 -1241 775 -1147 
L 775 -588 
Q 1028 -725 1275 -790 
Q 1522 -856 1778 -856 
Q 2344 -856 2625 -561 
Q 2906 -266 2906 331 
L 2906 616 
Q 2728 306 2450 153 
Q 2172 0 1784 0 
Q 1141 0 747 490 
Q 353 981 353 1791 
Q 353 2603 747 3093 
Q 1141 3584 1784 3584 
Q 2172 3584 2450 3431 
Q 2728 3278 2906 2969 
L 2906 3500 
L 3481 3500 
L 3481 434 
z
" transform="scale(0.015625)"/>
       <path id="DejaVuSans-c5" d="M 2663 5081 
Q 2663 5278 2523 5417 
Q 2384 5556 2188 5556 
Q 1988 5556 1852 5420 
Q 1716 5284 1716 5081 
Q 1716 4884 1853 4746 
Q 1991 4609 2188 4609 
Q 2384 4609 2523 4746 
Q 2663 4884 2663 5081 
z
M 2188 4044 
L 1338 1722 
L 3041 1722 
L 2188 4044 
z
M 1716 4366 
Q 1525 4494 1428 4673 
Q 1331 4853 1331 5081 
Q 1331 5441 1579 5691 
Q 1828 5941 2188 5941 
Q 2544 5941 2795 5689 
Q 3047 5438 3047 5081 
Q 3047 4863 2948 4678 
Q 2850 4494 2663 4366 
L 4325 0 
L 3669 0 
L 3244 1197 
L 1141 1197 
L 716 0 
L 50 0 
L 1716 4366 
z
" transform="scale(0.015625)"/>
      </defs>
      <use xlink:href="#DejaVuSans-77"/>
      <use xlink:href="#DejaVuSans-61" transform="translate(81.787109 0)"/>
      <use xlink:href="#DejaVuSans-76" transform="translate(143.066406 0)"/>
      <use xlink:href="#DejaVuSans-65" transform="translate(202.246094 0)"/>
      <use xlink:href="#DejaVuSans-6c" transform="translate(263.769531 0)"/>
      <use xlink:href="#DejaVuSans-65" transform="translate(291.552734 0)"/>
      <use xlink:href="#DejaVuSans-6e" transform="translate(353.076172 0)"/>
      <use xlink:href="#DejaVuSans-67" transform="translate(416.455078 0)"/>
      <use xlink:href="#DejaVuSans-74" transform="translate(479.931641 0)"/>
      <use xlink:href="#DejaVuSans-68" transform="translate(519.140625 0)"/>
      <use xlink:href="#DejaVuSans-20" transform="translate(582.519531 0)"/>
      <use xlink:href="#DejaVuSans-5b" transform="translate(614.306641 0)"/>
      <use xlink:href="#DejaVuSans-c5" transform="translate(653.320312 0)"/>
      <use xlink:href="#DejaVuSans-5d" transform="translate(721.728516 0)"/>
     </g>
    </g>
   </g>
   <g id="matplotlib.axis_4">
    <g id="ytick_9">
     <g id="line2d_26">
      <g>
       <use xlink:href="#m8bcce2ad08" x="507.109135" y="245.904029" style="stroke: #000000; stroke-width: 0.8"/>
      </g>
     </g>
     <g id="text_28">
      <!-- 0 -->
      <g transform="translate(493.746635 249.703248) scale(0.1 -0.1)">
       <use xlink:href="#DejaVuSans-30"/>
      </g>
     </g>
    </g>
    <g id="ytick_10">
     <g id="line2d_27">
      <g>
       <use xlink:href="#m8bcce2ad08" x="507.109135" y="206.753228" style="stroke: #000000; stroke-width: 0.8"/>
      </g>
     </g>
     <g id="text_29">
      <!-- 5000 -->
      <g transform="translate(474.659135 210.552446) scale(0.1 -0.1)">
       <use xlink:href="#DejaVuSans-35"/>
       <use xlink:href="#DejaVuSans-30" transform="translate(63.623047 0)"/>
       <use xlink:href="#DejaVuSans-30" transform="translate(127.246094 0)"/>
       <use xlink:href="#DejaVuSans-30" transform="translate(190.869141 0)"/>
      </g>
     </g>
    </g>
    <g id="ytick_11">
     <g id="line2d_28">
      <g>
       <use xlink:href="#m8bcce2ad08" x="507.109135" y="167.602426" style="stroke: #000000; stroke-width: 0.8"/>
      </g>
     </g>
     <g id="text_30">
      <!-- 10000 -->
      <g transform="translate(468.296635 171.401645) scale(0.1 -0.1)">
       <use xlink:href="#DejaVuSans-31"/>
       <use xlink:href="#DejaVuSans-30" transform="translate(63.623047 0)"/>
       <use xlink:href="#DejaVuSans-30" transform="translate(127.246094 0)"/>
       <use xlink:href="#DejaVuSans-30" transform="translate(190.869141 0)"/>
       <use xlink:href="#DejaVuSans-30" transform="translate(254.492188 0)"/>
      </g>
     </g>
    </g>
    <g id="ytick_12">
     <g id="line2d_29">
      <g>
       <use xlink:href="#m8bcce2ad08" x="507.109135" y="128.451624" style="stroke: #000000; stroke-width: 0.8"/>
      </g>
     </g>
     <g id="text_31">
      <!-- 15000 -->
      <g transform="translate(468.296635 132.250843) scale(0.1 -0.1)">
       <use xlink:href="#DejaVuSans-31"/>
       <use xlink:href="#DejaVuSans-35" transform="translate(63.623047 0)"/>
       <use xlink:href="#DejaVuSans-30" transform="translate(127.246094 0)"/>
       <use xlink:href="#DejaVuSans-30" transform="translate(190.869141 0)"/>
       <use xlink:href="#DejaVuSans-30" transform="translate(254.492188 0)"/>
      </g>
     </g>
    </g>
    <g id="ytick_13">
     <g id="line2d_30">
      <g>
       <use xlink:href="#m8bcce2ad08" x="507.109135" y="89.300822" style="stroke: #000000; stroke-width: 0.8"/>
      </g>
     </g>
     <g id="text_32">
      <!-- 20000 -->
      <g transform="translate(468.296635 93.100041) scale(0.1 -0.1)">
       <use xlink:href="#DejaVuSans-32"/>
       <use xlink:href="#DejaVuSans-30" transform="translate(63.623047 0)"/>
       <use xlink:href="#DejaVuSans-30" transform="translate(127.246094 0)"/>
       <use xlink:href="#DejaVuSans-30" transform="translate(190.869141 0)"/>
       <use xlink:href="#DejaVuSans-30" transform="translate(254.492188 0)"/>
      </g>
     </g>
    </g>
    <g id="ytick_14">
     <g id="line2d_31">
      <g>
       <use xlink:href="#m8bcce2ad08" x="507.109135" y="50.150021" style="stroke: #000000; stroke-width: 0.8"/>
      </g>
     </g>
     <g id="text_33">
      <!-- 25000 -->
      <g transform="translate(468.296635 53.949239) scale(0.1 -0.1)">
       <use xlink:href="#DejaVuSans-32"/>
       <use xlink:href="#DejaVuSans-35" transform="translate(63.623047 0)"/>
       <use xlink:href="#DejaVuSans-30" transform="translate(127.246094 0)"/>
       <use xlink:href="#DejaVuSans-30" transform="translate(190.869141 0)"/>
       <use xlink:href="#DejaVuSans-30" transform="translate(254.492188 0)"/>
      </g>
     </g>
    </g>
    <g id="ytick_15">
     <g id="line2d_32">
      <g>
       <use xlink:href="#m8bcce2ad08" x="507.109135" y="10.999219" style="stroke: #000000; stroke-width: 0.8"/>
      </g>
     </g>
     <g id="text_34">
      <!-- 30000 -->
      <g transform="translate(468.296635 14.798437) scale(0.1 -0.1)">
       <use xlink:href="#DejaVuSans-33"/>
       <use xlink:href="#DejaVuSans-30" transform="translate(63.623047 0)"/>
       <use xlink:href="#DejaVuSans-30" transform="translate(127.246094 0)"/>
       <use xlink:href="#DejaVuSans-30" transform="translate(190.869141 0)"/>
       <use xlink:href="#DejaVuSans-30" transform="translate(254.492188 0)"/>
      </g>
     </g>
    </g>
    <g id="text_35">
     <!-- pulse:0 [counts] -->
     <g transform="translate(462.216947 173.344388) rotate(-90) scale(0.1 -0.1)">
      <use xlink:href="#DejaVuSans-70"/>
      <use xlink:href="#DejaVuSans-75" transform="translate(63.476562 0)"/>
      <use xlink:href="#DejaVuSans-6c" transform="translate(126.855469 0)"/>
      <use xlink:href="#DejaVuSans-73" transform="translate(154.638672 0)"/>
      <use xlink:href="#DejaVuSans-65" transform="translate(206.738281 0)"/>
      <use xlink:href="#DejaVuSans-3a" transform="translate(268.261719 0)"/>
      <use xlink:href="#DejaVuSans-30" transform="translate(301.953125 0)"/>
      <use xlink:href="#DejaVuSans-20" transform="translate(365.576172 0)"/>
      <use xlink:href="#DejaVuSans-5b" transform="translate(397.363281 0)"/>
      <use xlink:href="#DejaVuSans-63" transform="translate(436.376953 0)"/>
      <use xlink:href="#DejaVuSans-6f" transform="translate(491.357422 0)"/>
      <use xlink:href="#DejaVuSans-75" transform="translate(552.539062 0)"/>
      <use xlink:href="#DejaVuSans-6e" transform="translate(615.917969 0)"/>
      <use xlink:href="#DejaVuSans-74" transform="translate(679.296875 0)"/>
      <use xlink:href="#DejaVuSans-73" transform="translate(718.505859 0)"/>
      <use xlink:href="#DejaVuSans-5d" transform="translate(770.605469 0)"/>
     </g>
    </g>
   </g>
   <g id="line2d_33">
    <path d="M 523.385971 19.87079 
L 524.471093 19.87079 
L 524.471093 80.303968 
L 525.556215 80.303968 
L 525.556215 127.613797 
L 526.641338 127.613797 
L 526.641338 151.746351 
L 527.72646 151.746351 
L 527.72646 168.510724 
L 528.811583 168.510724 
L 528.811583 180.50653 
L 529.896705 180.50653 
L 529.896705 185.88585 
L 530.981827 185.88585 
L 530.981827 184.445101 
L 532.06695 184.445101 
L 532.06695 174.64174 
L 533.152072 174.64174 
L 533.152072 158.362837 
L 534.237194 158.362837 
L 534.237194 132.280572 
L 535.322317 132.280572 
L 535.322317 111.319233 
L 536.407439 111.319233 
L 536.407439 91.211381 
L 537.492562 91.211381 
L 537.492562 82.261508 
L 538.577684 82.261508 
L 538.577684 75.347477 
L 540.747929 75.433608 
L 540.747929 78.119353 
L 541.833051 78.119353 
L 541.833051 84.508764 
L 542.918173 84.508764 
L 542.918173 93.286374 
L 544.003296 93.286374 
L 544.003296 99.824558 
L 545.088418 99.824558 
L 545.088418 110.316973 
L 546.173541 110.316973 
L 546.173541 117.066571 
L 547.258663 117.066571 
L 547.258663 124.270318 
L 548.343785 124.270318 
L 548.343785 128.921434 
L 549.428908 128.921434 
L 549.428908 133.517738 
L 550.51403 133.517738 
L 550.51403 137.808666 
L 551.599153 137.808666 
L 551.599153 137.926118 
L 552.684275 137.926118 
L 552.684275 141.684595 
L 553.769397 141.684595 
L 553.769397 140.423939 
L 554.85452 140.423939 
L 554.85452 139.265075 
L 555.939642 139.265075 
L 555.939642 137.103951 
L 557.024764 137.103951 
L 557.024764 132.938306 
L 558.109887 132.938306 
L 558.109887 125.546635 
L 559.195009 125.546635 
L 559.195009 119.509581 
L 560.280132 119.509581 
L 560.280132 109.486976 
L 561.365254 109.486976 
L 561.365254 101.327949 
L 562.450376 101.327949 
L 562.450376 94.163352 
L 563.535499 94.163352 
L 563.535499 95.53363 
L 564.620621 95.53363 
L 564.620621 101.280968 
L 565.705743 101.280968 
L 565.705743 108.688299 
L 566.790866 108.688299 
L 566.790866 118.029681 
L 567.875988 118.029681 
L 567.875988 123.346359 
L 568.961111 123.346359 
L 568.961111 131.270482 
L 570.046233 131.270482 
L 570.046233 138.341117 
L 571.131355 138.341117 
L 571.131355 143.156665 
L 572.216478 143.156665 
L 572.216478 146.868161 
L 573.3016 146.868161 
L 573.3016 153.883985 
L 574.386722 153.883985 
L 574.386722 158.03397 
L 575.471845 158.03397 
L 575.471845 161.761126 
L 576.556967 161.761126 
L 576.556967 166.059884 
L 577.64209 166.059884 
L 577.64209 170.014115 
L 578.727212 170.014115 
L 578.727212 173.138349 
L 579.812334 173.138349 
L 579.812334 176.912486 
L 580.897457 176.912486 
L 580.897457 182.213505 
L 581.982579 182.213505 
L 581.982579 184.233686 
L 583.067702 184.233686 
L 583.067702 186.935092 
L 584.152824 186.935092 
L 584.152824 190.701399 
L 585.237946 190.701399 
L 585.237946 192.196959 
L 586.323069 192.196959 
L 586.323069 194.6478 
L 587.408191 194.6478 
L 587.408191 197.161281 
L 588.493313 197.161281 
L 588.493313 199.236274 
L 589.578436 199.236274 
L 589.578436 200.896268 
L 590.663558 200.896268 
L 590.663558 203.519371 
L 591.748681 203.519371 
L 591.748681 205.163705 
L 592.833803 205.163705 
L 592.833803 207.677186 
L 593.918925 207.677186 
L 593.918925 208.710768 
L 595.004048 208.710768 
L 595.004048 210.590006 
L 596.08917 210.590006 
L 596.08917 212.218679 
L 597.174292 212.218679 
L 597.174292 213.502826 
L 598.259415 213.502826 
L 598.259415 216.995077 
L 599.344537 216.995077 
L 599.344537 217.229982 
L 600.42966 217.229982 
L 600.42966 218.310544 
L 601.514782 218.310544 
L 601.514782 220.174122 
L 602.599904 220.174122 
L 602.599904 220.05667 
L 603.685027 220.05667 
L 603.685027 222.02987 
L 604.770149 222.02987 
L 604.770149 223.298356 
L 605.855271 223.298356 
L 605.855271 222.828547 
L 606.940394 222.828547 
L 606.940394 224.44156 
L 608.025516 224.44156 
L 608.025516 225.890139 
L 609.110639 225.890139 
L 609.110639 226.328628 
L 610.195761 226.328628 
L 610.195761 227.354379 
L 611.280883 227.354379 
L 611.280883 228.231357 
L 612.366006 228.231357 
L 612.366006 229.037864 
L 613.451128 229.037864 
L 613.451128 229.758239 
L 614.53625 229.758239 
L 614.53625 229.938332 
L 615.621373 229.938332 
L 615.621373 230.580405 
L 616.706495 230.580405 
L 616.706495 231.966344 
L 618.87674 231.982004 
L 618.87674 232.890303 
L 619.961862 232.890303 
L 619.961862 233.320962 
L 622.132107 233.25832 
L 622.132107 233.994355 
L 624.302352 233.970865 
L 624.302352 235.17671 
L 625.387474 235.17671 
L 625.387474 235.012276 
L 626.472597 235.012276 
L 626.472597 235.787462 
L 627.557719 235.787462 
L 627.557719 236.17897 
L 628.642841 236.17897 
L 628.642841 236.562648 
L 629.727964 236.562648 
L 629.727964 237.228212 
L 632.983331 237.330004 
L 632.983331 238.011228 
L 634.068453 238.011228 
L 634.068453 237.878115 
L 635.153576 237.878115 
L 635.153576 238.12085 
L 636.238698 238.12085 
L 636.238698 238.645471 
L 638.408943 238.653301 
L 638.408943 238.989998 
L 639.494065 238.989998 
L 639.494065 239.365845 
L 640.579188 239.365845 
L 640.579188 239.851315 
L 641.66431 239.851315 
L 641.66431 240.195842 
L 642.749432 240.195842 
L 642.749432 239.859145 
L 643.834555 239.859145 
L 643.834555 240.054899 
L 644.919677 240.054899 
L 644.919677 240.704803 
L 646.004799 240.704803 
L 646.004799 240.516879 
L 648.175044 240.57952 
L 648.175044 241.111971 
L 649.260167 241.111971 
L 649.260167 241.307725 
L 650.345289 241.307725 
L 650.345289 241.174612 
L 651.430411 241.174612 
L 651.430411 241.370366 
L 653.600656 241.456498 
L 653.600656 241.730554 
L 654.685779 241.730554 
L 654.685779 242.082911 
L 656.856023 241.996779 
L 656.856023 241.957628 
L 657.941146 241.957628 
L 657.941146 242.247344 
L 660.11139 242.294325 
L 660.11139 242.380457 
L 661.196513 242.380457 
L 661.196513 242.607532 
L 662.281635 242.607532 
L 662.281635 242.897248 
L 663.366758 242.897248 
L 663.366758 242.724984 
L 664.45188 242.724984 
L 664.45188 242.873757 
L 665.537002 242.873757 
L 665.537002 243.093002 
L 667.707247 242.983379 
L 667.707247 243.210454 
L 668.792369 243.210454 
L 668.792369 242.99121 
L 669.877492 242.99121 
L 669.877492 243.320076 
L 670.962614 243.320076 
L 670.962614 243.155643 
L 672.047737 243.155643 
L 672.047737 243.453189 
L 675.303104 243.47668 
L 675.303104 243.641113 
L 677.473348 243.672434 
L 677.473348 243.836867 
L 682.89896 243.946489 
L 682.89896 243.96998 
L 687.23945 243.96998 
L 687.23945 244.157904 
L 689.409695 244.204884 
L 689.409695 244.306677 
L 690.494817 244.306677 
L 690.494817 244.424129 
L 695.920429 244.416299 
L 695.920429 244.690354 
L 697.005551 244.690354 
L 697.005551 244.533751 
L 699.175796 244.48677 
L 699.175796 244.361488 
L 700.260918 244.361488 
L 700.260918 244.682524 
L 701.346041 244.682524 
L 701.346041 244.565072 
L 702.431163 244.565072 
L 702.431163 244.878278 
L 703.516286 244.878278 
L 703.516286 244.604223 
L 704.601408 244.604223 
L 704.601408 244.752996 
L 706.771653 244.784316 
L 706.771653 244.870448 
L 711.112142 244.846958 
L 711.112142 245.066202 
L 725.218733 245.152334 
L 725.218733 245.199315 
L 727.388978 245.207145 
L 727.388978 245.027051 
L 728.4741 245.027051 
L 728.4741 245.269786 
L 738.240202 245.363748 
L 738.240202 245.418559 
L 745.836058 245.44205 
L 745.836058 245.559502 
L 756.687282 245.582993 
L 756.687282 245.44205 
L 757.772404 245.44205 
L 757.772404 245.567332 
L 759.942649 245.520351 
L 759.942649 245.426389 
L 761.027772 245.426389 
L 761.027772 245.582993 
L 778.38973 245.669124 
L 778.38973 245.763086 
L 780.559974 245.708275 
L 780.559974 245.645634 
L 784.900464 245.645634 
L 784.900464 245.763086 
L 788.155831 245.731766 
L 788.155831 245.629974 
L 793.581443 245.723936 
L 793.581443 245.747426 
L 848.922684 245.825728 
L 848.922684 245.825728 
" clip-path="url(#p26b520c340)" style="fill: none; stroke: #1f77b4; stroke-width: 1.5; stroke-linecap: square"/>
   </g>
   <g id="patch_8">
    <path d="M 507.109135 257.156361 
L 507.109135 8.571478 
" style="fill: none; stroke: #000000; stroke-width: 0.8; stroke-linejoin: miter; stroke-linecap: square"/>
   </g>
   <g id="patch_9">
    <path d="M 865.19952 257.156361 
L 865.19952 8.571478 
" style="fill: none; stroke: #000000; stroke-width: 0.8; stroke-linejoin: miter; stroke-linecap: square"/>
   </g>
   <g id="patch_10">
    <path d="M 507.109135 257.156361 
L 865.19952 257.156361 
" style="fill: none; stroke: #000000; stroke-width: 0.8; stroke-linejoin: miter; stroke-linecap: square"/>
   </g>
   <g id="patch_11">
    <path d="M 507.109135 8.571478 
L 865.19952 8.571478 
" style="fill: none; stroke: #000000; stroke-width: 0.8; stroke-linejoin: miter; stroke-linecap: square"/>
   </g>
  </g>
 </g>
 <defs>
  <clipPath id="pf8d0cd7ae0">
   <rect x="53.328125" y="8.571478" width="358.090385" height="248.584884"/>
  </clipPath>
  <clipPath id="p26b520c340">
   <rect x="507.109135" y="8.571478" width="358.090385" height="248.584884"/>
  </clipPath>
 </defs>
</svg>
