<?xml version="1.0" encoding="utf-8" standalone="no"?>
<!DOCTYPE svg PUBLIC "-//W3C//DTD SVG 1.1//EN"
  "http://www.w3.org/Graphics/SVG/1.1/DTD/svg11.dtd">
<svg xmlns:xlink="http://www.w3.org/1999/xlink" width="872.39952pt" height="296.39952pt" viewBox="0 0 872.39952 296.39952" xmlns="http://www.w3.org/2000/svg" version="1.1">
 <metadata>
  <rdf:RDF xmlns:dc="http://purl.org/dc/elements/1.1/" xmlns:cc="http://creativecommons.org/ns#" xmlns:rdf="http://www.w3.org/1999/02/22-rdf-syntax-ns#">
   <cc:Work>
    <dc:type rdf:resource="http://purl.org/dc/dcmitype/StillImage"/>
    <dc:date>2025-04-29T09:31:50.183655</dc:date>
    <dc:format>image/svg+xml</dc:format>
    <dc:creator>
     <cc:Agent>
      <dc:title>Matplotlib v3.10.1, https://matplotlib.org/</dc:title>
     </cc:Agent>
    </dc:creator>
   </cc:Work>
  </rdf:RDF>
 </metadata>
 <defs>
  <style type="text/css">*{stroke-linejoin: round; stroke-linecap: butt}</style>
 </defs>
 <g id="figure_1">
  <g id="patch_1">
   <path d="M 0 296.39952 
L 872.39952 296.39952 
L 872.39952 0 
L 0 0 
z
" style="fill: #ffffff"/>
  </g>
  <g id="axes_1">
   <g id="patch_2">
    <path d="M 46.965625 257.158895 
L 428.69851 257.158895 
L 428.69851 7.2 
L 46.965625 7.2 
z
" style="fill: #ffffff"/>
   </g>
   <g id="matplotlib.axis_1">
    <g id="xtick_1">
     <g id="line2d_1">
      <defs>
       <path id="m9f13355320" d="M 0 0 
L 0 3.5 
" style="stroke: #000000; stroke-width: 0.8"/>
      </defs>
      <g>
       <use xlink:href="#m9f13355320" x="47.571283" y="257.158895" style="stroke: #000000; stroke-width: 0.8"/>
      </g>
     </g>
     <g id="text_1">
      <!-- 0 -->
      <g transform="translate(44.390033 271.757332) scale(0.1 -0.1)">
       <defs>
        <path id="DejaVuSans-30" d="M 2034 4250 
Q 1547 4250 1301 3770 
Q 1056 3291 1056 2328 
Q 1056 1369 1301 889 
Q 1547 409 2034 409 
Q 2525 409 2770 889 
Q 3016 1369 3016 2328 
Q 3016 3291 2770 3770 
Q 2525 4250 2034 4250 
z
M 2034 4750 
Q 2819 4750 3233 4129 
Q 3647 3509 3647 2328 
Q 3647 1150 3233 529 
Q 2819 -91 2034 -91 
Q 1250 -91 836 529 
Q 422 1150 422 2328 
Q 422 3509 836 4129 
Q 1250 4750 2034 4750 
z
" transform="scale(0.015625)"/>
       </defs>
       <use xlink:href="#DejaVuSans-30"/>
      </g>
     </g>
    </g>
    <g id="xtick_2">
     <g id="line2d_2">
      <g>
       <use xlink:href="#m9f13355320" x="99.044933" y="257.158895" style="stroke: #000000; stroke-width: 0.8"/>
      </g>
     </g>
     <g id="text_2">
      <!-- 20000 -->
      <g transform="translate(83.138683 271.757332) scale(0.1 -0.1)">
       <defs>
        <path id="DejaVuSans-32" d="M 1228 531 
L 3431 531 
L 3431 0 
L 469 0 
L 469 531 
Q 828 903 1448 1529 
Q 2069 2156 2228 2338 
Q 2531 2678 2651 2914 
Q 2772 3150 2772 3378 
Q 2772 3750 2511 3984 
Q 2250 4219 1831 4219 
Q 1534 4219 1204 4116 
Q 875 4013 500 3803 
L 500 4441 
Q 881 4594 1212 4672 
Q 1544 4750 1819 4750 
Q 2544 4750 2975 4387 
Q 3406 4025 3406 3419 
Q 3406 3131 3298 2873 
Q 3191 2616 2906 2266 
Q 2828 2175 2409 1742 
Q 1991 1309 1228 531 
z
" transform="scale(0.015625)"/>
       </defs>
       <use xlink:href="#DejaVuSans-32"/>
       <use xlink:href="#DejaVuSans-30" transform="translate(63.623047 0)"/>
       <use xlink:href="#DejaVuSans-30" transform="translate(127.246094 0)"/>
       <use xlink:href="#DejaVuSans-30" transform="translate(190.869141 0)"/>
       <use xlink:href="#DejaVuSans-30" transform="translate(254.492188 0)"/>
      </g>
     </g>
    </g>
    <g id="xtick_3">
     <g id="line2d_3">
      <g>
       <use xlink:href="#m9f13355320" x="150.518584" y="257.158895" style="stroke: #000000; stroke-width: 0.8"/>
      </g>
     </g>
     <g id="text_3">
      <!-- 40000 -->
      <g transform="translate(134.612334 271.757332) scale(0.1 -0.1)">
       <defs>
        <path id="DejaVuSans-34" d="M 2419 4116 
L 825 1625 
L 2419 1625 
L 2419 4116 
z
M 2253 4666 
L 3047 4666 
L 3047 1625 
L 3713 1625 
L 3713 1100 
L 3047 1100 
L 3047 0 
L 2419 0 
L 2419 1100 
L 313 1100 
L 313 1709 
L 2253 4666 
z
" transform="scale(0.015625)"/>
       </defs>
       <use xlink:href="#DejaVuSans-34"/>
       <use xlink:href="#DejaVuSans-30" transform="translate(63.623047 0)"/>
       <use xlink:href="#DejaVuSans-30" transform="translate(127.246094 0)"/>
       <use xlink:href="#DejaVuSans-30" transform="translate(190.869141 0)"/>
       <use xlink:href="#DejaVuSans-30" transform="translate(254.492188 0)"/>
      </g>
     </g>
    </g>
    <g id="xtick_4">
     <g id="line2d_4">
      <g>
       <use xlink:href="#m9f13355320" x="201.992234" y="257.158895" style="stroke: #000000; stroke-width: 0.8"/>
      </g>
     </g>
     <g id="text_4">
      <!-- 60000 -->
      <g transform="translate(186.085984 271.757332) scale(0.1 -0.1)">
       <defs>
        <path id="DejaVuSans-36" d="M 2113 2584 
Q 1688 2584 1439 2293 
Q 1191 2003 1191 1497 
Q 1191 994 1439 701 
Q 1688 409 2113 409 
Q 2538 409 2786 701 
Q 3034 994 3034 1497 
Q 3034 2003 2786 2293 
Q 2538 2584 2113 2584 
z
M 3366 4563 
L 3366 3988 
Q 3128 4100 2886 4159 
Q 2644 4219 2406 4219 
Q 1781 4219 1451 3797 
Q 1122 3375 1075 2522 
Q 1259 2794 1537 2939 
Q 1816 3084 2150 3084 
Q 2853 3084 3261 2657 
Q 3669 2231 3669 1497 
Q 3669 778 3244 343 
Q 2819 -91 2113 -91 
Q 1303 -91 875 529 
Q 447 1150 447 2328 
Q 447 3434 972 4092 
Q 1497 4750 2381 4750 
Q 2619 4750 2861 4703 
Q 3103 4656 3366 4563 
z
" transform="scale(0.015625)"/>
       </defs>
       <use xlink:href="#DejaVuSans-36"/>
       <use xlink:href="#DejaVuSans-30" transform="translate(63.623047 0)"/>
       <use xlink:href="#DejaVuSans-30" transform="translate(127.246094 0)"/>
       <use xlink:href="#DejaVuSans-30" transform="translate(190.869141 0)"/>
       <use xlink:href="#DejaVuSans-30" transform="translate(254.492188 0)"/>
      </g>
     </g>
    </g>
    <g id="xtick_5">
     <g id="line2d_5">
      <g>
       <use xlink:href="#m9f13355320" x="253.465885" y="257.158895" style="stroke: #000000; stroke-width: 0.8"/>
      </g>
     </g>
     <g id="text_5">
      <!-- 80000 -->
      <g transform="translate(237.559635 271.757332) scale(0.1 -0.1)">
       <defs>
        <path id="DejaVuSans-38" d="M 2034 2216 
Q 1584 2216 1326 1975 
Q 1069 1734 1069 1313 
Q 1069 891 1326 650 
Q 1584 409 2034 409 
Q 2484 409 2743 651 
Q 3003 894 3003 1313 
Q 3003 1734 2745 1975 
Q 2488 2216 2034 2216 
z
M 1403 2484 
Q 997 2584 770 2862 
Q 544 3141 544 3541 
Q 544 4100 942 4425 
Q 1341 4750 2034 4750 
Q 2731 4750 3128 4425 
Q 3525 4100 3525 3541 
Q 3525 3141 3298 2862 
Q 3072 2584 2669 2484 
Q 3125 2378 3379 2068 
Q 3634 1759 3634 1313 
Q 3634 634 3220 271 
Q 2806 -91 2034 -91 
Q 1263 -91 848 271 
Q 434 634 434 1313 
Q 434 1759 690 2068 
Q 947 2378 1403 2484 
z
M 1172 3481 
Q 1172 3119 1398 2916 
Q 1625 2713 2034 2713 
Q 2441 2713 2670 2916 
Q 2900 3119 2900 3481 
Q 2900 3844 2670 4047 
Q 2441 4250 2034 4250 
Q 1625 4250 1398 4047 
Q 1172 3844 1172 3481 
z
" transform="scale(0.015625)"/>
       </defs>
       <use xlink:href="#DejaVuSans-38"/>
       <use xlink:href="#DejaVuSans-30" transform="translate(63.623047 0)"/>
       <use xlink:href="#DejaVuSans-30" transform="translate(127.246094 0)"/>
       <use xlink:href="#DejaVuSans-30" transform="translate(190.869141 0)"/>
       <use xlink:href="#DejaVuSans-30" transform="translate(254.492188 0)"/>
      </g>
     </g>
    </g>
    <g id="xtick_6">
     <g id="line2d_6">
      <g>
       <use xlink:href="#m9f13355320" x="304.939536" y="257.158895" style="stroke: #000000; stroke-width: 0.8"/>
      </g>
     </g>
     <g id="text_6">
      <!-- 100000 -->
      <g transform="translate(285.852036 271.757332) scale(0.1 -0.1)">
       <defs>
        <path id="DejaVuSans-31" d="M 794 531 
L 1825 531 
L 1825 4091 
L 703 3866 
L 703 4441 
L 1819 4666 
L 2450 4666 
L 2450 531 
L 3481 531 
L 3481 0 
L 794 0 
L 794 531 
z
" transform="scale(0.015625)"/>
       </defs>
       <use xlink:href="#DejaVuSans-31"/>
       <use xlink:href="#DejaVuSans-30" transform="translate(63.623047 0)"/>
       <use xlink:href="#DejaVuSans-30" transform="translate(127.246094 0)"/>
       <use xlink:href="#DejaVuSans-30" transform="translate(190.869141 0)"/>
       <use xlink:href="#DejaVuSans-30" transform="translate(254.492188 0)"/>
       <use xlink:href="#DejaVuSans-30" transform="translate(318.115234 0)"/>
      </g>
     </g>
    </g>
    <g id="xtick_7">
     <g id="line2d_7">
      <g>
       <use xlink:href="#m9f13355320" x="356.413186" y="257.158895" style="stroke: #000000; stroke-width: 0.8"/>
      </g>
     </g>
     <g id="text_7">
      <!-- 120000 -->
      <g transform="translate(337.325686 271.757332) scale(0.1 -0.1)">
       <use xlink:href="#DejaVuSans-31"/>
       <use xlink:href="#DejaVuSans-32" transform="translate(63.623047 0)"/>
       <use xlink:href="#DejaVuSans-30" transform="translate(127.246094 0)"/>
       <use xlink:href="#DejaVuSans-30" transform="translate(190.869141 0)"/>
       <use xlink:href="#DejaVuSans-30" transform="translate(254.492188 0)"/>
       <use xlink:href="#DejaVuSans-30" transform="translate(318.115234 0)"/>
      </g>
     </g>
    </g>
    <g id="xtick_8">
     <g id="line2d_8">
      <g>
       <use xlink:href="#m9f13355320" x="407.886837" y="257.158895" style="stroke: #000000; stroke-width: 0.8"/>
      </g>
     </g>
     <g id="text_8">
      <!-- 140000 -->
      <g transform="translate(388.799337 271.757332) scale(0.1 -0.1)">
       <use xlink:href="#DejaVuSans-31"/>
       <use xlink:href="#DejaVuSans-34" transform="translate(63.623047 0)"/>
       <use xlink:href="#DejaVuSans-30" transform="translate(127.246094 0)"/>
       <use xlink:href="#DejaVuSans-30" transform="translate(190.869141 0)"/>
       <use xlink:href="#DejaVuSans-30" transform="translate(254.492188 0)"/>
       <use xlink:href="#DejaVuSans-30" transform="translate(318.115234 0)"/>
      </g>
     </g>
    </g>
    <g id="text_9">
     <!-- birth_time [µs] -->
     <g transform="translate(201.011755 285.435457) scale(0.1 -0.1)">
      <defs>
       <path id="DejaVuSans-62" d="M 3116 1747 
Q 3116 2381 2855 2742 
Q 2594 3103 2138 3103 
Q 1681 3103 1420 2742 
Q 1159 2381 1159 1747 
Q 1159 1113 1420 752 
Q 1681 391 2138 391 
Q 2594 391 2855 752 
Q 3116 1113 3116 1747 
z
M 1159 2969 
Q 1341 3281 1617 3432 
Q 1894 3584 2278 3584 
Q 2916 3584 3314 3078 
Q 3713 2572 3713 1747 
Q 3713 922 3314 415 
Q 2916 -91 2278 -91 
Q 1894 -91 1617 61 
Q 1341 213 1159 525 
L 1159 0 
L 581 0 
L 581 4863 
L 1159 4863 
L 1159 2969 
z
" transform="scale(0.015625)"/>
       <path id="DejaVuSans-69" d="M 603 3500 
L 1178 3500 
L 1178 0 
L 603 0 
L 603 3500 
z
M 603 4863 
L 1178 4863 
L 1178 4134 
L 603 4134 
L 603 4863 
z
" transform="scale(0.015625)"/>
       <path id="DejaVuSans-72" d="M 2631 2963 
Q 2534 3019 2420 3045 
Q 2306 3072 2169 3072 
Q 1681 3072 1420 2755 
Q 1159 2438 1159 1844 
L 1159 0 
L 581 0 
L 581 3500 
L 1159 3500 
L 1159 2956 
Q 1341 3275 1631 3429 
Q 1922 3584 2338 3584 
Q 2397 3584 2469 3576 
Q 2541 3569 2628 3553 
L 2631 2963 
z
" transform="scale(0.015625)"/>
       <path id="DejaVuSans-74" d="M 1172 4494 
L 1172 3500 
L 2356 3500 
L 2356 3053 
L 1172 3053 
L 1172 1153 
Q 1172 725 1289 603 
Q 1406 481 1766 481 
L 2356 481 
L 2356 0 
L 1766 0 
Q 1100 0 847 248 
Q 594 497 594 1153 
L 594 3053 
L 172 3053 
L 172 3500 
L 594 3500 
L 594 4494 
L 1172 4494 
z
" transform="scale(0.015625)"/>
       <path id="DejaVuSans-68" d="M 3513 2113 
L 3513 0 
L 2938 0 
L 2938 2094 
Q 2938 2591 2744 2837 
Q 2550 3084 2163 3084 
Q 1697 3084 1428 2787 
Q 1159 2491 1159 1978 
L 1159 0 
L 581 0 
L 581 4863 
L 1159 4863 
L 1159 2956 
Q 1366 3272 1645 3428 
Q 1925 3584 2291 3584 
Q 2894 3584 3203 3211 
Q 3513 2838 3513 2113 
z
" transform="scale(0.015625)"/>
       <path id="DejaVuSans-5f" d="M 3263 -1063 
L 3263 -1509 
L -63 -1509 
L -63 -1063 
L 3263 -1063 
z
" transform="scale(0.015625)"/>
       <path id="DejaVuSans-6d" d="M 3328 2828 
Q 3544 3216 3844 3400 
Q 4144 3584 4550 3584 
Q 5097 3584 5394 3201 
Q 5691 2819 5691 2113 
L 5691 0 
L 5113 0 
L 5113 2094 
Q 5113 2597 4934 2840 
Q 4756 3084 4391 3084 
Q 3944 3084 3684 2787 
Q 3425 2491 3425 1978 
L 3425 0 
L 2847 0 
L 2847 2094 
Q 2847 2600 2669 2842 
Q 2491 3084 2119 3084 
Q 1678 3084 1418 2786 
Q 1159 2488 1159 1978 
L 1159 0 
L 581 0 
L 581 3500 
L 1159 3500 
L 1159 2956 
Q 1356 3278 1631 3431 
Q 1906 3584 2284 3584 
Q 2666 3584 2933 3390 
Q 3200 3197 3328 2828 
z
" transform="scale(0.015625)"/>
       <path id="DejaVuSans-65" d="M 3597 1894 
L 3597 1613 
L 953 1613 
Q 991 1019 1311 708 
Q 1631 397 2203 397 
Q 2534 397 2845 478 
Q 3156 559 3463 722 
L 3463 178 
Q 3153 47 2828 -22 
Q 2503 -91 2169 -91 
Q 1331 -91 842 396 
Q 353 884 353 1716 
Q 353 2575 817 3079 
Q 1281 3584 2069 3584 
Q 2775 3584 3186 3129 
Q 3597 2675 3597 1894 
z
M 3022 2063 
Q 3016 2534 2758 2815 
Q 2500 3097 2075 3097 
Q 1594 3097 1305 2825 
Q 1016 2553 972 2059 
L 3022 2063 
z
" transform="scale(0.015625)"/>
       <path id="DejaVuSans-20" transform="scale(0.015625)"/>
       <path id="DejaVuSans-5b" d="M 550 4863 
L 1875 4863 
L 1875 4416 
L 1125 4416 
L 1125 -397 
L 1875 -397 
L 1875 -844 
L 550 -844 
L 550 4863 
z
" transform="scale(0.015625)"/>
       <path id="DejaVuSans-b5" d="M 544 -1331 
L 544 3500 
L 1119 3500 
L 1119 1325 
Q 1119 872 1334 640 
Q 1550 409 1972 409 
Q 2434 409 2667 671 
Q 2900 934 2900 1459 
L 2900 3500 
L 3475 3500 
L 3475 806 
Q 3475 619 3529 530 
Q 3584 441 3700 441 
Q 3728 441 3778 458 
Q 3828 475 3916 513 
L 3916 50 
Q 3788 -22 3673 -56 
Q 3559 -91 3450 -91 
Q 3234 -91 3106 31 
Q 2978 153 2931 403 
Q 2775 156 2548 32 
Q 2322 -91 2016 -91 
Q 1697 -91 1473 31 
Q 1250 153 1119 397 
L 1119 -1331 
L 544 -1331 
z
" transform="scale(0.015625)"/>
       <path id="DejaVuSans-73" d="M 2834 3397 
L 2834 2853 
Q 2591 2978 2328 3040 
Q 2066 3103 1784 3103 
Q 1356 3103 1142 2972 
Q 928 2841 928 2578 
Q 928 2378 1081 2264 
Q 1234 2150 1697 2047 
L 1894 2003 
Q 2506 1872 2764 1633 
Q 3022 1394 3022 966 
Q 3022 478 2636 193 
Q 2250 -91 1575 -91 
Q 1294 -91 989 -36 
Q 684 19 347 128 
L 347 722 
Q 666 556 975 473 
Q 1284 391 1588 391 
Q 1994 391 2212 530 
Q 2431 669 2431 922 
Q 2431 1156 2273 1281 
Q 2116 1406 1581 1522 
L 1381 1569 
Q 847 1681 609 1914 
Q 372 2147 372 2553 
Q 372 3047 722 3315 
Q 1072 3584 1716 3584 
Q 2034 3584 2315 3537 
Q 2597 3491 2834 3397 
z
" transform="scale(0.015625)"/>
       <path id="DejaVuSans-5d" d="M 1947 4863 
L 1947 -844 
L 622 -844 
L 622 -397 
L 1369 -397 
L 1369 4416 
L 622 4416 
L 622 4863 
L 1947 4863 
z
" transform="scale(0.015625)"/>
      </defs>
      <use xlink:href="#DejaVuSans-62"/>
      <use xlink:href="#DejaVuSans-69" transform="translate(63.476562 0)"/>
      <use xlink:href="#DejaVuSans-72" transform="translate(91.259766 0)"/>
      <use xlink:href="#DejaVuSans-74" transform="translate(132.373047 0)"/>
      <use xlink:href="#DejaVuSans-68" transform="translate(171.582031 0)"/>
      <use xlink:href="#DejaVuSans-5f" transform="translate(234.960938 0)"/>
      <use xlink:href="#DejaVuSans-74" transform="translate(284.960938 0)"/>
      <use xlink:href="#DejaVuSans-69" transform="translate(324.169922 0)"/>
      <use xlink:href="#DejaVuSans-6d" transform="translate(351.953125 0)"/>
      <use xlink:href="#DejaVuSans-65" transform="translate(449.365234 0)"/>
      <use xlink:href="#DejaVuSans-20" transform="translate(510.888672 0)"/>
      <use xlink:href="#DejaVuSans-5b" transform="translate(542.675781 0)"/>
      <use xlink:href="#DejaVuSans-b5" transform="translate(581.689453 0)"/>
      <use xlink:href="#DejaVuSans-73" transform="translate(645.3125 0)"/>
      <use xlink:href="#DejaVuSans-5d" transform="translate(697.412109 0)"/>
     </g>
    </g>
   </g>
   <g id="matplotlib.axis_2">
    <g id="ytick_1">
     <g id="line2d_9">
      <defs>
       <path id="m61dc7d6b42" d="M 0 0 
L -3.5 0 
" style="stroke: #000000; stroke-width: 0.8"/>
      </defs>
      <g>
       <use xlink:href="#m61dc7d6b42" x="46.965625" y="245.797127" style="stroke: #000000; stroke-width: 0.8"/>
      </g>
     </g>
     <g id="text_10">
      <!-- 0 -->
      <g transform="translate(33.603125 249.596346) scale(0.1 -0.1)">
       <use xlink:href="#DejaVuSans-30"/>
      </g>
     </g>
    </g>
    <g id="ytick_2">
     <g id="line2d_10">
      <g>
       <use xlink:href="#m61dc7d6b42" x="46.965625" y="210.291602" style="stroke: #000000; stroke-width: 0.8"/>
      </g>
     </g>
     <g id="text_11">
      <!-- 100 -->
      <g transform="translate(20.878125 214.090821) scale(0.1 -0.1)">
       <use xlink:href="#DejaVuSans-31"/>
       <use xlink:href="#DejaVuSans-30" transform="translate(63.623047 0)"/>
       <use xlink:href="#DejaVuSans-30" transform="translate(127.246094 0)"/>
      </g>
     </g>
    </g>
    <g id="ytick_3">
     <g id="line2d_11">
      <g>
       <use xlink:href="#m61dc7d6b42" x="46.965625" y="174.786077" style="stroke: #000000; stroke-width: 0.8"/>
      </g>
     </g>
     <g id="text_12">
      <!-- 200 -->
      <g transform="translate(20.878125 178.585296) scale(0.1 -0.1)">
       <use xlink:href="#DejaVuSans-32"/>
       <use xlink:href="#DejaVuSans-30" transform="translate(63.623047 0)"/>
       <use xlink:href="#DejaVuSans-30" transform="translate(127.246094 0)"/>
      </g>
     </g>
    </g>
    <g id="ytick_4">
     <g id="line2d_12">
      <g>
       <use xlink:href="#m61dc7d6b42" x="46.965625" y="139.280552" style="stroke: #000000; stroke-width: 0.8"/>
      </g>
     </g>
     <g id="text_13">
      <!-- 300 -->
      <g transform="translate(20.878125 143.079771) scale(0.1 -0.1)">
       <defs>
        <path id="DejaVuSans-33" d="M 2597 2516 
Q 3050 2419 3304 2112 
Q 3559 1806 3559 1356 
Q 3559 666 3084 287 
Q 2609 -91 1734 -91 
Q 1441 -91 1130 -33 
Q 819 25 488 141 
L 488 750 
Q 750 597 1062 519 
Q 1375 441 1716 441 
Q 2309 441 2620 675 
Q 2931 909 2931 1356 
Q 2931 1769 2642 2001 
Q 2353 2234 1838 2234 
L 1294 2234 
L 1294 2753 
L 1863 2753 
Q 2328 2753 2575 2939 
Q 2822 3125 2822 3475 
Q 2822 3834 2567 4026 
Q 2313 4219 1838 4219 
Q 1578 4219 1281 4162 
Q 984 4106 628 3988 
L 628 4550 
Q 988 4650 1302 4700 
Q 1616 4750 1894 4750 
Q 2613 4750 3031 4423 
Q 3450 4097 3450 3541 
Q 3450 3153 3228 2886 
Q 3006 2619 2597 2516 
z
" transform="scale(0.015625)"/>
       </defs>
       <use xlink:href="#DejaVuSans-33"/>
       <use xlink:href="#DejaVuSans-30" transform="translate(63.623047 0)"/>
       <use xlink:href="#DejaVuSans-30" transform="translate(127.246094 0)"/>
      </g>
     </g>
    </g>
    <g id="ytick_5">
     <g id="line2d_13">
      <g>
       <use xlink:href="#m61dc7d6b42" x="46.965625" y="103.775028" style="stroke: #000000; stroke-width: 0.8"/>
      </g>
     </g>
     <g id="text_14">
      <!-- 400 -->
      <g transform="translate(20.878125 107.574246) scale(0.1 -0.1)">
       <use xlink:href="#DejaVuSans-34"/>
       <use xlink:href="#DejaVuSans-30" transform="translate(63.623047 0)"/>
       <use xlink:href="#DejaVuSans-30" transform="translate(127.246094 0)"/>
      </g>
     </g>
    </g>
    <g id="ytick_6">
     <g id="line2d_14">
      <g>
       <use xlink:href="#m61dc7d6b42" x="46.965625" y="68.269503" style="stroke: #000000; stroke-width: 0.8"/>
      </g>
     </g>
     <g id="text_15">
      <!-- 500 -->
      <g transform="translate(20.878125 72.068722) scale(0.1 -0.1)">
       <defs>
        <path id="DejaVuSans-35" d="M 691 4666 
L 3169 4666 
L 3169 4134 
L 1269 4134 
L 1269 2991 
Q 1406 3038 1543 3061 
Q 1681 3084 1819 3084 
Q 2600 3084 3056 2656 
Q 3513 2228 3513 1497 
Q 3513 744 3044 326 
Q 2575 -91 1722 -91 
Q 1428 -91 1123 -41 
Q 819 9 494 109 
L 494 744 
Q 775 591 1075 516 
Q 1375 441 1709 441 
Q 2250 441 2565 725 
Q 2881 1009 2881 1497 
Q 2881 1984 2565 2268 
Q 2250 2553 1709 2553 
Q 1456 2553 1204 2497 
Q 953 2441 691 2322 
L 691 4666 
z
" transform="scale(0.015625)"/>
       </defs>
       <use xlink:href="#DejaVuSans-35"/>
       <use xlink:href="#DejaVuSans-30" transform="translate(63.623047 0)"/>
       <use xlink:href="#DejaVuSans-30" transform="translate(127.246094 0)"/>
      </g>
     </g>
    </g>
    <g id="ytick_7">
     <g id="line2d_15">
      <g>
       <use xlink:href="#m61dc7d6b42" x="46.965625" y="32.763978" style="stroke: #000000; stroke-width: 0.8"/>
      </g>
     </g>
     <g id="text_16">
      <!-- 600 -->
      <g transform="translate(20.878125 36.563197) scale(0.1 -0.1)">
       <use xlink:href="#DejaVuSans-36"/>
       <use xlink:href="#DejaVuSans-30" transform="translate(63.623047 0)"/>
       <use xlink:href="#DejaVuSans-30" transform="translate(127.246094 0)"/>
      </g>
     </g>
    </g>
    <g id="text_17">
     <!-- [counts] -->
     <g transform="translate(14.798437 152.791947) rotate(-90) scale(0.1 -0.1)">
      <defs>
       <path id="DejaVuSans-63" d="M 3122 3366 
L 3122 2828 
Q 2878 2963 2633 3030 
Q 2388 3097 2138 3097 
Q 1578 3097 1268 2742 
Q 959 2388 959 1747 
Q 959 1106 1268 751 
Q 1578 397 2138 397 
Q 2388 397 2633 464 
Q 2878 531 3122 666 
L 3122 134 
Q 2881 22 2623 -34 
Q 2366 -91 2075 -91 
Q 1284 -91 818 406 
Q 353 903 353 1747 
Q 353 2603 823 3093 
Q 1294 3584 2113 3584 
Q 2378 3584 2631 3529 
Q 2884 3475 3122 3366 
z
" transform="scale(0.015625)"/>
       <path id="DejaVuSans-6f" d="M 1959 3097 
Q 1497 3097 1228 2736 
Q 959 2375 959 1747 
Q 959 1119 1226 758 
Q 1494 397 1959 397 
Q 2419 397 2687 759 
Q 2956 1122 2956 1747 
Q 2956 2369 2687 2733 
Q 2419 3097 1959 3097 
z
M 1959 3584 
Q 2709 3584 3137 3096 
Q 3566 2609 3566 1747 
Q 3566 888 3137 398 
Q 2709 -91 1959 -91 
Q 1206 -91 779 398 
Q 353 888 353 1747 
Q 353 2609 779 3096 
Q 1206 3584 1959 3584 
z
" transform="scale(0.015625)"/>
       <path id="DejaVuSans-75" d="M 544 1381 
L 544 3500 
L 1119 3500 
L 1119 1403 
Q 1119 906 1312 657 
Q 1506 409 1894 409 
Q 2359 409 2629 706 
Q 2900 1003 2900 1516 
L 2900 3500 
L 3475 3500 
L 3475 0 
L 2900 0 
L 2900 538 
Q 2691 219 2414 64 
Q 2138 -91 1772 -91 
Q 1169 -91 856 284 
Q 544 659 544 1381 
z
M 1991 3584 
L 1991 3584 
z
" transform="scale(0.015625)"/>
       <path id="DejaVuSans-6e" d="M 3513 2113 
L 3513 0 
L 2938 0 
L 2938 2094 
Q 2938 2591 2744 2837 
Q 2550 3084 2163 3084 
Q 1697 3084 1428 2787 
Q 1159 2491 1159 1978 
L 1159 0 
L 581 0 
L 581 3500 
L 1159 3500 
L 1159 2956 
Q 1366 3272 1645 3428 
Q 1925 3584 2291 3584 
Q 2894 3584 3203 3211 
Q 3513 2838 3513 2113 
z
" transform="scale(0.015625)"/>
      </defs>
      <use xlink:href="#DejaVuSans-5b"/>
      <use xlink:href="#DejaVuSans-63" transform="translate(39.013672 0)"/>
      <use xlink:href="#DejaVuSans-6f" transform="translate(93.994141 0)"/>
      <use xlink:href="#DejaVuSans-75" transform="translate(155.175781 0)"/>
      <use xlink:href="#DejaVuSans-6e" transform="translate(218.554688 0)"/>
      <use xlink:href="#DejaVuSans-74" transform="translate(281.933594 0)"/>
      <use xlink:href="#DejaVuSans-73" transform="translate(321.142578 0)"/>
      <use xlink:href="#DejaVuSans-5d" transform="translate(373.242188 0)"/>
     </g>
    </g>
   </g>
   <g id="line2d_16">
    <path d="M 47.603639 234.790414 
L 47.646173 234.790414 
L 47.731242 216.682597 
L 47.773776 216.682597 
L 47.858844 186.502901 
L 47.901379 186.502901 
L 47.986447 156.67826 
L 48.028981 156.67826 
L 48.071516 141.765939 
L 48.11405 149.222099 
L 48.156584 149.222099 
L 48.241653 127.918785 
L 48.284187 127.918785 
L 48.369255 109.455912 
L 48.41179 109.455912 
L 48.496858 104.130083 
L 48.539392 104.130083 
L 48.539392 105.550304 
L 48.581927 97.384033 
L 48.624461 97.739088 
L 48.666995 97.739088 
L 48.709529 89.927873 
L 48.752064 98.094144 
L 48.794598 98.094144 
L 48.879666 80.696436 
L 48.922201 80.696436 
L 49.007269 67.559392 
L 49.049804 67.559392 
L 49.049804 66.849282 
L 49.092338 74.305442 
L 49.134872 66.849282 
L 49.219941 66.849282 
L 49.219941 61.523453 
L 49.262475 71.109945 
L 49.305009 67.559392 
L 49.347543 67.559392 
L 49.347543 51.226851 
L 49.390078 84.246989 
L 49.432612 60.813343 
L 49.475146 60.813343 
L 49.51768 53.002127 
L 49.560215 53.002127 
L 49.602749 53.002127 
L 49.602749 74.305442 
L 49.687817 52.292017 
L 49.730352 52.292017 
L 49.772886 35.60442 
L 49.81542 67.914448 
L 49.857954 67.914448 
L 49.943023 48.741464 
L 49.985557 48.741464 
L 49.985557 64.71895 
L 50.070626 56.197624 
L 50.11316 56.197624 
L 50.11316 42.35047 
L 50.198228 52.292017 
L 50.240763 52.292017 
L 50.283297 48.031354 
L 50.325831 61.168398 
L 50.368365 61.168398 
L 50.368365 25.662873 
L 50.453434 37.734751 
L 50.495968 37.734751 
L 50.581037 56.197624 
L 50.623571 56.197624 
L 50.708639 35.959475 
L 50.751174 35.959475 
L 50.751174 48.741464 
L 50.836242 40.930249 
L 50.878776 40.930249 
L 50.878776 39.510028 
L 50.921311 54.067293 
L 50.963845 41.640359 
L 51.006379 41.640359 
L 51.048914 51.226851 
L 51.091448 33.119033 
L 51.133982 33.119033 
L 51.176516 45.901022 
L 51.219051 32.053867 
L 51.261585 32.053867 
L 51.346653 50.161685 
L 51.389188 50.161685 
L 51.474256 40.220138 
L 51.51679 40.220138 
L 51.559325 44.125746 
L 51.601859 37.024641 
L 51.644393 37.024641 
L 51.686927 30.988702 
L 51.729462 51.226851 
L 51.771996 51.226851 
L 51.771996 42.35047 
L 51.857064 48.741464 
L 51.899599 48.741464 
L 51.899599 59.393122 
L 51.942133 43.415635 
L 51.984667 54.422348 
L 52.027201 54.422348 
L 52.069736 26.728039 
L 52.11227 42.705525 
L 52.154804 42.705525 
L 52.154804 36.669586 
L 52.239873 39.510028 
L 52.282407 39.510028 
L 52.282407 40.220138 
L 52.367475 26.017928 
L 52.41001 26.017928 
L 52.452544 50.161685 
L 52.495078 49.096519 
L 52.537612 49.096519 
L 52.537612 40.220138 
L 52.622681 40.930249 
L 52.665215 40.930249 
L 52.665215 18.561768 
L 52.750284 40.575193 
L 52.792818 40.575193 
L 52.792818 36.31453 
L 52.835352 49.451575 
L 52.877886 36.31453 
L 52.920421 36.31453 
L 52.962955 48.386409 
L 53.005489 43.415635 
L 53.048024 43.415635 
L 53.048024 23.887597 
L 53.090558 56.907735 
L 53.133092 50.161685 
L 53.175626 50.161685 
L 53.218161 41.995414 
L 53.260695 48.031354 
L 53.303229 48.031354 
L 53.345763 39.865083 
L 53.388298 42.35047 
L 53.430832 42.35047 
L 53.5159 28.503315 
L 53.558435 28.503315 
L 53.558435 46.256077 
L 53.643503 34.894309 
L 53.686037 34.894309 
L 53.728572 40.930249 
L 53.771106 34.539254 
L 53.81364 34.539254 
L 53.81364 50.161685 
L 53.898709 29.213425 
L 53.941243 29.213425 
L 53.941243 18.561768 
L 53.983777 49.096519 
L 54.026311 37.024641 
L 54.068846 37.024641 
L 54.068846 51.581906 
L 54.11138 26.017928 
L 54.153914 41.285304 
L 54.196448 41.285304 
L 54.196448 50.161685 
L 54.238983 36.31453 
L 54.281517 41.995414 
L 54.324051 41.995414 
L 54.324051 50.51674 
L 54.366585 28.14826 
L 54.40912 46.256077 
L 54.451654 46.256077 
L 54.494188 27.793204 
L 54.536722 44.835856 
L 54.579257 44.835856 
L 54.621791 26.372983 
L 54.664325 38.444862 
L 54.706859 38.444862 
L 54.749394 39.154972 
L 54.791928 32.763978 
L 54.834462 32.763978 
L 54.919531 37.379696 
L 54.962065 37.379696 
L 54.962065 69.689724 
L 55.047134 59.748177 
L 55.089668 59.748177 
L 55.132202 91.348094 
L 55.174736 87.087431 
L 55.217271 87.087431 
L 55.302339 119.397459 
L 55.344873 119.397459 
L 55.387408 132.179447 
L 55.429942 125.788453 
L 55.472476 125.788453 
L 55.51501 156.67826 
L 55.557545 150.287265 
L 55.600079 150.287265 
L 55.685147 165.554641 
L 55.727682 165.554641 
L 55.727682 184.017514 
L 55.81275 183.662459 
L 55.855284 183.662459 
L 55.855284 181.177072 
L 55.940353 186.147845 
L 55.982887 186.147845 
L 56.067956 197.509613 
L 56.11049 197.509613 
L 56.195558 203.900608 
L 56.238093 203.900608 
L 56.323161 212.421934 
L 56.365695 212.421934 
L 56.40823 215.617431 
L 56.40823 211.356768 
L 56.450764 215.617431 
L 56.493298 215.617431 
L 56.535832 220.588204 
L 56.578367 218.102818 
L 56.620901 218.102818 
L 56.663435 225.203923 
L 56.705969 224.848867 
L 56.748504 224.848867 
L 56.833572 229.819641 
L 56.876106 229.819641 
L 56.876106 233.370193 
L 56.961175 224.848867 
L 57.003709 224.848867 
L 57.046244 233.370193 
L 57.088778 233.370193 
L 57.131312 233.370193 
L 57.131312 232.660083 
L 57.216381 236.920746 
L 57.258915 236.920746 
L 57.301449 230.884807 
L 57.343983 236.565691 
L 57.386518 236.565691 
L 57.429052 234.790414 
L 57.471586 239.406133 
L 57.51412 239.406133 
L 57.51412 241.181409 
L 57.599189 237.985912 
L 57.641723 237.985912 
L 57.684257 236.920746 
L 57.726792 241.891519 
L 57.769326 241.891519 
L 57.769326 237.630856 
L 57.854394 241.181409 
L 57.981997 241.181409 
L 57.981997 241.536464 
L 58.024531 239.406133 
L 58.067066 240.116243 
L 58.1096 240.116243 
L 58.194668 242.246575 
L 58.322271 242.246575 
L 58.322271 244.376906 
L 58.40734 244.021851 
L 58.534942 244.021851 
L 58.534942 243.666796 
L 58.620011 244.731961 
L 58.662545 244.731961 
L 58.662545 243.666796 
L 58.747614 244.731961 
L 58.790148 244.731961 
L 58.832682 244.021851 
L 58.875216 244.731961 
L 58.917751 244.731961 
L 58.917751 244.021851 
L 58.960285 245.087017 
L 59.002819 244.376906 
L 59.045354 244.376906 
L 59.045354 245.442072 
L 59.130422 244.376906 
L 59.215491 244.376906 
L 59.215491 244.021851 
L 59.300559 245.797127 
L 59.343093 245.797127 
L 59.343093 243.666796 
L 59.428162 245.087017 
L 59.51323 245.087017 
L 59.51323 245.442072 
L 59.598299 245.087017 
L 59.640833 245.087017 
L 59.683367 244.021851 
L 59.725902 245.797127 
L 59.81097 245.797127 
L 59.81097 244.731961 
L 59.896039 245.442072 
L 59.938573 245.442072 
L 59.938573 245.087017 
L 59.981107 245.797127 
L 60.023641 245.797127 
L 60.066176 245.797127 
L 60.066176 245.087017 
L 60.151244 245.797127 
L 60.278847 245.797127 
L 60.278847 245.087017 
L 60.363915 245.087017 
" clip-path="url(#pa1dcf7d778)" style="fill: none; stroke: #1f77b4; stroke-width: 1.5; stroke-linecap: square"/>
   </g>
   <g id="line2d_17">
    <path d="M 231.437936 234.435359 
L 231.480405 234.435359 
L 231.565343 213.842155 
L 231.607812 213.842155 
L 231.692749 192.893895 
L 231.735218 192.893895 
L 231.820156 166.974862 
L 231.862625 166.974862 
L 231.905094 138.215387 
L 231.947562 149.222099 
L 231.990031 149.222099 
L 232.0325 129.694061 
L 232.074969 130.404171 
L 232.117438 130.404171 
L 232.117438 116.557017 
L 232.202376 121.52779 
L 232.244844 121.52779 
L 232.244844 121.882845 
L 232.287313 92.768315 
L 232.329782 105.905359 
L 232.372251 105.905359 
L 232.457189 88.507652 
L 232.499658 88.507652 
L 232.499658 98.449199 
L 232.542126 84.957099 
L 232.584595 85.312155 
L 232.627064 85.312155 
L 232.669533 71.820055 
L 232.712002 88.862707 
L 232.754471 88.862707 
L 232.79694 67.559392 
L 232.839408 75.015552 
L 232.881877 75.015552 
L 232.881877 46.966188 
L 232.966815 58.683011 
L 233.009284 58.683011 
L 233.051753 73.950387 
L 233.094222 61.878508 
L 233.13669 61.878508 
L 233.13669 75.725663 
L 233.179159 60.103232 
L 233.221628 60.458287 
L 233.264097 60.458287 
L 233.264097 81.051492 
L 233.349035 56.907735 
L 233.391504 56.907735 
L 233.433973 72.17511 
L 233.476441 42.35047 
L 233.51891 42.35047 
L 233.51891 60.813343 
L 233.603848 36.31453 
L 233.646317 36.31453 
L 233.731255 59.393122 
L 233.773723 59.393122 
L 233.773723 35.959475 
L 233.858661 39.154972 
L 233.90113 39.154972 
L 233.943599 58.683011 
L 233.986068 55.842569 
L 234.028537 55.842569 
L 234.071005 33.119033 
L 234.113474 72.530166 
L 234.155943 72.530166 
L 234.155943 40.220138 
L 234.240881 51.226851 
L 234.28335 51.226851 
L 234.368287 29.568481 
L 234.410756 29.568481 
L 234.495694 57.972901 
L 234.538163 57.972901 
L 234.538163 40.575193 
L 234.623101 47.321243 
L 234.665569 47.321243 
L 234.665569 66.494227 
L 234.750507 35.249365 
L 234.792976 35.249365 
L 234.835445 44.125746 
L 234.877914 38.799917 
L 234.920383 38.799917 
L 234.920383 54.422348 
L 234.962851 37.379696 
L 235.00532 44.125746 
L 235.047789 44.125746 
L 235.090258 59.393122 
L 235.090258 32.763978 
L 235.132727 45.190912 
L 235.175196 45.190912 
L 235.217665 55.842569 
L 235.260134 29.923536 
L 235.302602 29.923536 
L 235.38754 59.393122 
L 235.430009 59.393122 
L 235.472478 35.959475 
L 235.514947 49.80663 
L 235.557416 49.80663 
L 235.599884 30.278591 
L 235.642353 49.096519 
L 235.684822 49.096519 
L 235.684822 33.474088 
L 235.76976 40.930249 
L 235.812229 40.930249 
L 235.812229 27.083094 
L 235.897166 53.712238 
L 235.939635 53.712238 
L 235.939635 27.083094 
L 236.024573 44.835856 
L 236.067042 44.835856 
L 236.109511 39.154972 
L 236.15198 47.676298 
L 236.194448 47.676298 
L 236.279386 52.647072 
L 236.321855 52.647072 
L 236.364324 32.763978 
L 236.406793 50.51674 
L 236.449262 50.51674 
L 236.449262 30.278591 
L 236.49173 63.298729 
L 236.534199 43.415635 
L 236.576668 43.415635 
L 236.576668 53.712238 
L 236.661606 36.669586 
L 236.704075 36.669586 
L 236.789012 50.51674 
L 236.831481 50.51674 
L 236.831481 36.31453 
L 236.916419 42.705525 
L 236.958888 42.705525 
L 236.958888 19.271878 
L 237.043826 34.539254 
L 237.086295 34.539254 
L 237.171232 41.995414 
L 237.213701 41.995414 
L 237.25617 47.676298 
L 237.298639 20.337044 
L 237.341108 20.337044 
L 237.426045 46.611133 
L 237.468514 46.611133 
L 237.553452 18.561768 
L 237.595921 18.561768 
L 237.595921 47.676298 
L 237.680859 27.083094 
L 237.723327 27.083094 
L 237.765796 41.640359 
L 237.808265 40.930249 
L 237.850734 40.930249 
L 237.850734 51.226851 
L 237.893203 34.539254 
L 237.935672 40.220138 
L 237.978141 40.220138 
L 238.020609 31.698812 
L 238.063078 33.119033 
L 238.105547 33.119033 
L 238.105547 57.972901 
L 238.190485 34.539254 
L 238.232954 34.539254 
L 238.275423 66.494227 
L 238.317891 48.741464 
L 238.36036 48.741464 
L 238.36036 50.871796 
L 238.402829 33.829144 
L 238.445298 35.60442 
L 238.487767 35.60442 
L 238.487767 33.829144 
L 238.572705 51.936961 
L 238.615174 51.936961 
L 238.615174 39.865083 
L 238.700111 42.705525 
L 238.74258 42.705525 
L 238.74258 35.60442 
L 238.827518 54.777403 
L 238.869987 54.777403 
L 238.912456 71.109945 
L 238.954924 63.298729 
L 238.997393 63.298729 
L 239.082331 104.485138 
L 239.1248 104.485138 
L 239.209738 141.765939 
L 239.252206 141.765939 
L 239.252206 136.795166 
L 239.337144 140.700773 
L 239.379613 140.700773 
L 239.464551 163.779365 
L 239.50702 163.779365 
L 239.591957 174.786077 
L 239.634426 174.786077 
L 239.719364 184.727624 
L 239.761833 184.727624 
L 239.804302 196.089392 
L 239.84677 195.379282 
L 239.889239 195.379282 
L 239.974177 202.125331 
L 240.016646 202.125331 
L 240.059115 211.001713 
L 240.101584 209.936547 
L 240.144052 209.936547 
L 240.22899 217.747762 
L 240.271459 217.747762 
L 240.271459 212.066878 
L 240.356397 223.073591 
L 240.398866 223.073591 
L 240.398866 215.262376 
L 240.441335 224.493812 
L 240.483803 218.102818 
L 240.526272 218.102818 
L 240.61121 227.689309 
L 240.653679 227.689309 
L 240.653679 225.558978 
L 240.738617 233.370193 
L 240.781085 233.370193 
L 240.781085 234.080304 
L 240.823554 231.594917 
L 240.866023 231.594917 
L 240.908492 231.594917 
L 240.908492 234.080304 
L 240.99343 233.015138 
L 241.035899 233.015138 
L 241.035899 234.080304 
L 241.078367 232.305028 
L 241.120836 233.725249 
L 241.163305 233.725249 
L 241.205774 236.920746 
L 241.248243 235.14547 
L 241.290712 235.14547 
L 241.333181 237.630856 
L 241.375649 237.630856 
L 241.418118 237.630856 
L 241.460587 240.826354 
L 241.503056 236.210635 
L 241.545525 236.210635 
L 241.630463 241.181409 
L 241.672931 241.181409 
L 241.7154 242.246575 
L 241.757869 240.471298 
L 241.800338 240.471298 
L 241.842807 243.666796 
L 241.885276 242.956685 
L 241.927745 242.956685 
L 241.927745 243.31174 
L 242.012682 242.246575 
L 242.055151 242.246575 
L 242.09762 240.826354 
L 242.140089 243.666796 
L 242.182558 243.666796 
L 242.182558 242.246575 
L 242.267496 244.021851 
L 242.309964 244.021851 
L 242.309964 243.31174 
L 242.394902 243.31174 
L 242.437371 243.31174 
L 242.437371 242.956685 
L 242.47984 245.442072 
L 242.522309 242.956685 
L 242.564778 242.956685 
L 242.607246 244.731961 
L 242.649715 244.376906 
L 242.692184 244.376906 
L 242.692184 242.956685 
L 242.734653 244.731961 
L 242.777122 244.021851 
L 242.819591 244.021851 
L 242.819591 245.797127 
L 242.904528 244.731961 
L 242.989466 244.731961 
L 242.989466 245.797127 
L 243.074404 244.731961 
L 243.244279 244.731961 
L 243.244279 245.797127 
L 243.329217 245.797127 
L 243.414155 245.797127 
L 243.414155 245.087017 
L 243.499092 245.087017 
L 243.541561 245.087017 
L 243.626499 245.797127 
L 243.711437 245.797127 
L 243.796374 243.666796 
L 243.838843 243.666796 
L 243.838843 245.442072 
L 243.923781 245.087017 
L 243.96625 245.087017 
L 243.96625 245.797127 
L 244.051188 245.442072 
L 244.093657 245.442072 
L 244.093657 245.797127 
L 244.136125 245.087017 
L 244.178594 245.087017 
" clip-path="url(#pa1dcf7d778)" style="fill: none; stroke: #ff7f0e; stroke-width: 1.5; stroke-linecap: square"/>
   </g>
   <g id="line2d_18">
    <path d="M 415.275565 235.500525 
L 415.318177 235.500525 
L 415.403403 207.45116 
L 415.446015 207.45116 
L 415.53124 191.118619 
L 415.573853 191.118619 
L 415.616465 162.004088 
L 415.659078 166.974862 
L 415.70169 166.974862 
L 415.786915 142.47605 
L 415.829528 142.47605 
L 415.914753 128.27384 
L 415.957365 128.27384 
L 415.999978 131.469337 
L 416.04259 109.810967 
L 416.085203 109.810967 
L 416.127815 103.064917 
L 416.170428 120.81768 
L 416.21304 120.81768 
L 416.255653 97.739088 
L 416.298266 99.159309 
L 416.340878 99.159309 
L 416.426103 88.152597 
L 416.468716 88.152597 
L 416.468716 77.500939 
L 416.553941 79.631271 
L 416.596553 79.631271 
L 416.596553 86.37732 
L 416.639166 60.458287 
L 416.681778 65.074006 
L 416.724391 65.074006 
L 416.724391 71.109945 
L 416.767003 59.393122 
L 416.809616 69.689724 
L 416.852228 69.689724 
L 416.852228 72.530166 
L 416.937453 62.588619 
L 416.980066 62.588619 
L 416.980066 33.829144 
L 417.065291 52.647072 
L 417.107903 52.647072 
L 417.150516 61.878508 
L 417.193129 54.422348 
L 417.235741 54.422348 
L 417.235741 57.26279 
L 417.320966 50.51674 
L 417.363579 50.51674 
L 417.448804 69.334669 
L 417.491416 69.334669 
L 417.534029 29.568481 
L 417.576641 55.842569 
L 417.619254 55.842569 
L 417.619254 51.226851 
L 417.704479 53.357182 
L 417.747091 53.357182 
L 417.747091 65.074006 
L 417.789704 32.763978 
L 417.832316 56.197624 
L 417.874929 56.197624 
L 417.874929 43.415635 
L 417.960154 48.741464 
L 418.002766 48.741464 
L 418.002766 55.487514 
L 418.087992 39.865083 
L 418.130604 39.865083 
L 418.130604 50.871796 
L 418.173217 38.799917 
L 418.215829 41.995414 
L 418.258442 41.995414 
L 418.301054 25.307818 
L 418.343667 43.06058 
L 418.386279 43.06058 
L 418.428892 31.698812 
L 418.471504 51.581906 
L 418.514117 51.581906 
L 418.514117 53.357182 
L 418.599342 45.190912 
L 418.641954 45.190912 
L 418.684567 34.184199 
L 418.727179 48.741464 
L 418.769792 48.741464 
L 418.812404 52.292017 
L 418.855017 37.379696 
L 418.897629 37.379696 
L 418.897629 31.343757 
L 418.982855 48.386409 
L 419.025467 48.386409 
L 419.025467 25.307818 
L 419.110692 46.256077 
L 419.153305 46.256077 
L 419.153305 55.132459 
L 419.23853 39.865083 
L 419.281142 39.865083 
L 419.366367 54.777403 
L 419.40898 54.777403 
L 419.40898 39.154972 
L 419.494205 45.190912 
L 419.536817 45.190912 
L 419.622042 57.26279 
L 419.664655 57.26279 
L 419.74988 21.757265 
L 419.792492 21.757265 
L 419.792492 46.966188 
L 419.877718 40.220138 
L 419.92033 40.220138 
L 419.92033 21.047155 
L 420.005555 43.770691 
L 420.048168 43.770691 
L 420.09078 37.379696 
L 420.133393 57.26279 
L 420.176005 57.26279 
L 420.26123 27.083094 
L 420.303843 27.083094 
L 420.303843 49.451575 
L 420.389068 37.024641 
L 420.43168 37.024641 
L 420.43168 54.067293 
L 420.516905 26.728039 
L 420.559518 26.728039 
L 420.644743 45.901022 
L 420.687355 45.901022 
L 420.687355 39.865083 
L 420.772581 52.292017 
L 420.815193 52.292017 
L 420.857806 30.633646 
L 420.900418 48.031354 
L 420.943031 48.031354 
L 421.028256 34.184199 
L 421.070868 34.184199 
L 421.113481 42.705525 
L 421.156093 31.343757 
L 421.198706 31.343757 
L 421.241318 30.988702 
L 421.283931 38.444862 
L 421.326543 38.444862 
L 421.369156 34.894309 
L 421.411768 51.581906 
L 421.454381 51.581906 
L 421.496993 44.480801 
L 421.539606 50.161685 
L 421.582218 50.161685 
L 421.582218 52.292017 
L 421.624831 37.734751 
L 421.667444 41.285304 
L 421.710056 41.285304 
L 421.710056 29.923536 
L 421.752669 51.581906 
L 421.795281 35.60442 
L 421.837894 35.60442 
L 421.837894 29.568481 
L 421.923119 53.712238 
L 421.965731 53.712238 
L 421.965731 34.894309 
L 422.050956 35.60442 
L 422.093569 35.60442 
L 422.136181 48.741464 
L 422.178794 41.995414 
L 422.221406 41.995414 
L 422.221406 43.770691 
L 422.306631 30.278591 
L 422.349244 30.278591 
L 422.349244 22.467376 
L 422.434469 28.14826 
L 422.477082 28.14826 
L 422.519694 43.415635 
L 422.562307 32.408923 
L 422.604919 32.408923 
L 422.690144 58.327956 
L 422.732757 58.327956 
L 422.817982 89.927873 
L 422.860594 89.927873 
L 422.860594 82.116657 
L 422.945819 115.846906 
L 422.988432 115.846906 
L 422.988432 106.61547 
L 423.073657 141.055829 
L 423.116269 141.055829 
L 423.116269 135.73 
L 423.158882 145.316492 
L 423.201494 140.700773 
L 423.244107 140.700773 
L 423.329332 169.815304 
L 423.371945 169.815304 
L 423.371945 163.779365 
L 423.45717 176.206298 
L 423.499782 176.206298 
L 423.585007 198.929834 
L 423.62762 198.929834 
L 423.62762 182.242238 
L 423.712845 194.669171 
L 423.755457 194.669171 
L 423.79807 206.74105 
L 423.840682 204.965773 
L 423.883295 204.965773 
L 423.883295 213.132044 
L 423.96852 213.132044 
L 424.011132 213.132044 
L 424.011132 218.457873 
L 424.096357 213.842155 
L 424.13897 213.842155 
L 424.181582 212.421934 
L 424.224195 218.457873 
L 424.266808 218.457873 
L 424.352033 226.269088 
L 424.437258 226.269088 
L 424.437258 228.39942 
L 424.522483 226.624144 
L 424.565095 226.624144 
L 424.565095 223.428646 
L 424.65032 232.660083 
L 424.692933 232.660083 
L 424.692933 227.334254 
L 424.778158 231.594917 
L 424.82077 231.594917 
L 424.82077 235.85558 
L 424.905995 234.790414 
L 424.948608 234.790414 
L 424.948608 234.080304 
L 424.99122 237.985912 
L 425.033833 235.14547 
L 425.076445 235.14547 
L 425.076445 234.435359 
L 425.161671 239.051077 
L 425.204283 239.051077 
L 425.246896 236.920746 
L 425.289508 242.246575 
L 425.332121 242.246575 
L 425.332121 237.630856 
L 425.417346 242.246575 
L 425.459958 242.246575 
L 425.502571 237.275801 
L 425.545183 242.246575 
L 425.587796 242.246575 
L 425.630408 243.31174 
L 425.673021 240.826354 
L 425.715633 240.826354 
L 425.715633 242.60163 
L 425.800858 241.536464 
L 425.843471 241.536464 
L 425.886083 243.31174 
L 425.928696 242.60163 
L 425.971308 242.60163 
L 425.971308 243.31174 
L 426.013921 240.826354 
L 426.056534 243.31174 
L 426.099146 243.31174 
L 426.099146 242.60163 
L 426.184371 243.31174 
L 426.226984 243.31174 
L 426.226984 244.376906 
L 426.312209 243.31174 
L 426.354821 243.31174 
L 426.354821 244.376906 
L 426.440046 244.376906 
L 426.482659 244.376906 
L 426.482659 243.666796 
L 426.525271 244.731961 
L 426.567884 244.376906 
L 426.610496 244.376906 
L 426.610496 245.087017 
L 426.695721 245.087017 
L 426.738334 245.087017 
L 426.738334 245.442072 
L 426.823559 244.731961 
L 426.866171 244.731961 
L 426.866171 244.376906 
L 426.951397 245.797127 
L 426.994009 245.797127 
L 426.994009 244.376906 
L 427.079234 244.376906 
L 427.121847 244.376906 
L 427.207072 245.797127 
L 427.249684 245.797127 
L 427.249684 245.087017 
L 427.334909 245.087017 
L 427.377522 245.087017 
L 427.377522 245.797127 
L 427.462747 245.087017 
L 427.505359 245.087017 
L 427.590584 245.797127 
L 427.633197 245.797127 
L 427.633197 245.087017 
L 427.718422 245.442072 
L 427.803647 245.442072 
L 427.803647 244.376906 
L 427.888872 245.797127 
L 427.974097 245.797127 
L 427.974097 245.442072 
L 428.059322 245.442072 
" clip-path="url(#pa1dcf7d778)" style="fill: none; stroke: #2ca02c; stroke-width: 1.5; stroke-linecap: square"/>
   </g>
   <g id="patch_3">
    <path d="M 46.965625 257.158895 
L 46.965625 7.2 
" style="fill: none; stroke: #000000; stroke-width: 0.8; stroke-linejoin: miter; stroke-linecap: square"/>
   </g>
   <g id="patch_4">
    <path d="M 428.69851 257.158895 
L 428.69851 7.2 
" style="fill: none; stroke: #000000; stroke-width: 0.8; stroke-linejoin: miter; stroke-linecap: square"/>
   </g>
   <g id="patch_5">
    <path d="M 46.965625 257.158895 
L 428.69851 257.158895 
" style="fill: none; stroke: #000000; stroke-width: 0.8; stroke-linejoin: miter; stroke-linecap: square"/>
   </g>
   <g id="patch_6">
    <path d="M 46.965625 7.2 
L 428.69851 7.2 
" style="fill: none; stroke: #000000; stroke-width: 0.8; stroke-linejoin: miter; stroke-linecap: square"/>
   </g>
   <g id="legend_1">
    <g id="patch_7">
     <path d="M 353.140697 252.158895 
L 421.69851 252.158895 
Q 423.69851 252.158895 423.69851 250.158895 
L 423.69851 207.12452 
Q 423.69851 205.12452 421.69851 205.12452 
L 353.140697 205.12452 
Q 351.140697 205.12452 351.140697 207.12452 
L 351.140697 250.158895 
Q 351.140697 252.158895 353.140697 252.158895 
z
" style="fill: #ffffff; opacity: 0.8; stroke: #cccccc; stroke-linejoin: miter"/>
    </g>
    <g id="line2d_19">
     <path d="M 355.140697 213.222957 
L 355.140697 213.222957 
L 365.140697 213.222957 
L 365.140697 213.222957 
L 375.140697 213.222957 
" style="fill: none; stroke: #1f77b4; stroke-width: 1.5; stroke-linecap: square"/>
    </g>
    <g id="text_18">
     <!-- pulse:0 -->
     <g transform="translate(383.140697 216.722957) scale(0.1 -0.1)">
      <defs>
       <path id="DejaVuSans-70" d="M 1159 525 
L 1159 -1331 
L 581 -1331 
L 581 3500 
L 1159 3500 
L 1159 2969 
Q 1341 3281 1617 3432 
Q 1894 3584 2278 3584 
Q 2916 3584 3314 3078 
Q 3713 2572 3713 1747 
Q 3713 922 3314 415 
Q 2916 -91 2278 -91 
Q 1894 -91 1617 61 
Q 1341 213 1159 525 
z
M 3116 1747 
Q 3116 2381 2855 2742 
Q 2594 3103 2138 3103 
Q 1681 3103 1420 2742 
Q 1159 2381 1159 1747 
Q 1159 1113 1420 752 
Q 1681 391 2138 391 
Q 2594 391 2855 752 
Q 3116 1113 3116 1747 
z
" transform="scale(0.015625)"/>
       <path id="DejaVuSans-6c" d="M 603 4863 
L 1178 4863 
L 1178 0 
L 603 0 
L 603 4863 
z
" transform="scale(0.015625)"/>
       <path id="DejaVuSans-3a" d="M 750 794 
L 1409 794 
L 1409 0 
L 750 0 
L 750 794 
z
M 750 3309 
L 1409 3309 
L 1409 2516 
L 750 2516 
L 750 3309 
z
" transform="scale(0.015625)"/>
      </defs>
      <use xlink:href="#DejaVuSans-70"/>
      <use xlink:href="#DejaVuSans-75" transform="translate(63.476562 0)"/>
      <use xlink:href="#DejaVuSans-6c" transform="translate(126.855469 0)"/>
      <use xlink:href="#DejaVuSans-73" transform="translate(154.638672 0)"/>
      <use xlink:href="#DejaVuSans-65" transform="translate(206.738281 0)"/>
      <use xlink:href="#DejaVuSans-3a" transform="translate(268.261719 0)"/>
      <use xlink:href="#DejaVuSans-30" transform="translate(301.953125 0)"/>
     </g>
    </g>
    <g id="line2d_20">
     <path d="M 355.140697 227.901082 
L 355.140697 227.901082 
L 365.140697 227.901082 
L 365.140697 227.901082 
L 375.140697 227.901082 
" style="fill: none; stroke: #ff7f0e; stroke-width: 1.5; stroke-linecap: square"/>
    </g>
    <g id="text_19">
     <!-- pulse:1 -->
     <g transform="translate(383.140697 231.401082) scale(0.1 -0.1)">
      <use xlink:href="#DejaVuSans-70"/>
      <use xlink:href="#DejaVuSans-75" transform="translate(63.476562 0)"/>
      <use xlink:href="#DejaVuSans-6c" transform="translate(126.855469 0)"/>
      <use xlink:href="#DejaVuSans-73" transform="translate(154.638672 0)"/>
      <use xlink:href="#DejaVuSans-65" transform="translate(206.738281 0)"/>
      <use xlink:href="#DejaVuSans-3a" transform="translate(268.261719 0)"/>
      <use xlink:href="#DejaVuSans-31" transform="translate(301.953125 0)"/>
     </g>
    </g>
    <g id="line2d_21">
     <path d="M 355.140697 242.579207 
L 355.140697 242.579207 
L 365.140697 242.579207 
L 365.140697 242.579207 
L 375.140697 242.579207 
" style="fill: none; stroke: #2ca02c; stroke-width: 1.5; stroke-linecap: square"/>
    </g>
    <g id="text_20">
     <!-- pulse:2 -->
     <g transform="translate(383.140697 246.079207) scale(0.1 -0.1)">
      <use xlink:href="#DejaVuSans-70"/>
      <use xlink:href="#DejaVuSans-75" transform="translate(63.476562 0)"/>
      <use xlink:href="#DejaVuSans-6c" transform="translate(126.855469 0)"/>
      <use xlink:href="#DejaVuSans-73" transform="translate(154.638672 0)"/>
      <use xlink:href="#DejaVuSans-65" transform="translate(206.738281 0)"/>
      <use xlink:href="#DejaVuSans-3a" transform="translate(268.261719 0)"/>
      <use xlink:href="#DejaVuSans-32" transform="translate(301.953125 0)"/>
     </g>
    </g>
   </g>
  </g>
  <g id="axes_2">
   <g id="patch_8">
    <path d="M 483.466635 257.158895 
L 865.19952 257.158895 
L 865.19952 7.2 
L 483.466635 7.2 
z
" style="fill: #ffffff"/>
   </g>
   <g id="matplotlib.axis_3">
    <g id="xtick_9">
     <g id="line2d_22">
      <g>
       <use xlink:href="#m9f13355320" x="497.317327" y="257.158895" style="stroke: #000000; stroke-width: 0.8"/>
      </g>
     </g>
     <g id="text_21">
      <!-- 0.0 -->
      <g transform="translate(489.365765 271.757332) scale(0.1 -0.1)">
       <defs>
        <path id="DejaVuSans-2e" d="M 684 794 
L 1344 794 
L 1344 0 
L 684 0 
L 684 794 
z
" transform="scale(0.015625)"/>
       </defs>
       <use xlink:href="#DejaVuSans-30"/>
       <use xlink:href="#DejaVuSans-2e" transform="translate(63.623047 0)"/>
       <use xlink:href="#DejaVuSans-30" transform="translate(95.410156 0)"/>
      </g>
     </g>
    </g>
    <g id="xtick_10">
     <g id="line2d_23">
      <g>
       <use xlink:href="#m9f13355320" x="541.395151" y="257.158895" style="stroke: #000000; stroke-width: 0.8"/>
      </g>
     </g>
     <g id="text_22">
      <!-- 2.5 -->
      <g transform="translate(533.443589 271.757332) scale(0.1 -0.1)">
       <use xlink:href="#DejaVuSans-32"/>
       <use xlink:href="#DejaVuSans-2e" transform="translate(63.623047 0)"/>
       <use xlink:href="#DejaVuSans-35" transform="translate(95.410156 0)"/>
      </g>
     </g>
    </g>
    <g id="xtick_11">
     <g id="line2d_24">
      <g>
       <use xlink:href="#m9f13355320" x="585.472975" y="257.158895" style="stroke: #000000; stroke-width: 0.8"/>
      </g>
     </g>
     <g id="text_23">
      <!-- 5.0 -->
      <g transform="translate(577.521413 271.757332) scale(0.1 -0.1)">
       <use xlink:href="#DejaVuSans-35"/>
       <use xlink:href="#DejaVuSans-2e" transform="translate(63.623047 0)"/>
       <use xlink:href="#DejaVuSans-30" transform="translate(95.410156 0)"/>
      </g>
     </g>
    </g>
    <g id="xtick_12">
     <g id="line2d_25">
      <g>
       <use xlink:href="#m9f13355320" x="629.550799" y="257.158895" style="stroke: #000000; stroke-width: 0.8"/>
      </g>
     </g>
     <g id="text_24">
      <!-- 7.5 -->
      <g transform="translate(621.599237 271.757332) scale(0.1 -0.1)">
       <defs>
        <path id="DejaVuSans-37" d="M 525 4666 
L 3525 4666 
L 3525 4397 
L 1831 0 
L 1172 0 
L 2766 4134 
L 525 4134 
L 525 4666 
z
" transform="scale(0.015625)"/>
       </defs>
       <use xlink:href="#DejaVuSans-37"/>
       <use xlink:href="#DejaVuSans-2e" transform="translate(63.623047 0)"/>
       <use xlink:href="#DejaVuSans-35" transform="translate(95.410156 0)"/>
      </g>
     </g>
    </g>
    <g id="xtick_13">
     <g id="line2d_26">
      <g>
       <use xlink:href="#m9f13355320" x="673.628623" y="257.158895" style="stroke: #000000; stroke-width: 0.8"/>
      </g>
     </g>
     <g id="text_25">
      <!-- 10.0 -->
      <g transform="translate(662.495811 271.757332) scale(0.1 -0.1)">
       <use xlink:href="#DejaVuSans-31"/>
       <use xlink:href="#DejaVuSans-30" transform="translate(63.623047 0)"/>
       <use xlink:href="#DejaVuSans-2e" transform="translate(127.246094 0)"/>
       <use xlink:href="#DejaVuSans-30" transform="translate(159.033203 0)"/>
      </g>
     </g>
    </g>
    <g id="xtick_14">
     <g id="line2d_27">
      <g>
       <use xlink:href="#m9f13355320" x="717.706447" y="257.158895" style="stroke: #000000; stroke-width: 0.8"/>
      </g>
     </g>
     <g id="text_26">
      <!-- 12.5 -->
      <g transform="translate(706.573635 271.757332) scale(0.1 -0.1)">
       <use xlink:href="#DejaVuSans-31"/>
       <use xlink:href="#DejaVuSans-32" transform="translate(63.623047 0)"/>
       <use xlink:href="#DejaVuSans-2e" transform="translate(127.246094 0)"/>
       <use xlink:href="#DejaVuSans-35" transform="translate(159.033203 0)"/>
      </g>
     </g>
    </g>
    <g id="xtick_15">
     <g id="line2d_28">
      <g>
       <use xlink:href="#m9f13355320" x="761.784272" y="257.158895" style="stroke: #000000; stroke-width: 0.8"/>
      </g>
     </g>
     <g id="text_27">
      <!-- 15.0 -->
      <g transform="translate(750.651459 271.757332) scale(0.1 -0.1)">
       <use xlink:href="#DejaVuSans-31"/>
       <use xlink:href="#DejaVuSans-35" transform="translate(63.623047 0)"/>
       <use xlink:href="#DejaVuSans-2e" transform="translate(127.246094 0)"/>
       <use xlink:href="#DejaVuSans-30" transform="translate(159.033203 0)"/>
      </g>
     </g>
    </g>
    <g id="xtick_16">
     <g id="line2d_29">
      <g>
       <use xlink:href="#m9f13355320" x="805.862096" y="257.158895" style="stroke: #000000; stroke-width: 0.8"/>
      </g>
     </g>
     <g id="text_28">
      <!-- 17.5 -->
      <g transform="translate(794.729283 271.757332) scale(0.1 -0.1)">
       <use xlink:href="#DejaVuSans-31"/>
       <use xlink:href="#DejaVuSans-37" transform="translate(63.623047 0)"/>
       <use xlink:href="#DejaVuSans-2e" transform="translate(127.246094 0)"/>
       <use xlink:href="#DejaVuSans-35" transform="translate(159.033203 0)"/>
      </g>
     </g>
    </g>
    <g id="xtick_17">
     <g id="line2d_30">
      <g>
       <use xlink:href="#m9f13355320" x="849.93992" y="257.158895" style="stroke: #000000; stroke-width: 0.8"/>
      </g>
     </g>
     <g id="text_29">
      <!-- 20.0 -->
      <g transform="translate(838.807107 271.757332) scale(0.1 -0.1)">
       <use xlink:href="#DejaVuSans-32"/>
       <use xlink:href="#DejaVuSans-30" transform="translate(63.623047 0)"/>
       <use xlink:href="#DejaVuSans-2e" transform="translate(127.246094 0)"/>
       <use xlink:href="#DejaVuSans-30" transform="translate(159.033203 0)"/>
      </g>
     </g>
    </g>
    <g id="text_30">
     <!-- wavelength [Å] -->
     <g transform="translate(636.295577 287.119832) scale(0.1 -0.1)">
      <defs>
       <path id="DejaVuSans-77" d="M 269 3500 
L 844 3500 
L 1563 769 
L 2278 3500 
L 2956 3500 
L 3675 769 
L 4391 3500 
L 4966 3500 
L 4050 0 
L 3372 0 
L 2619 2869 
L 1863 0 
L 1184 0 
L 269 3500 
z
" transform="scale(0.015625)"/>
       <path id="DejaVuSans-61" d="M 2194 1759 
Q 1497 1759 1228 1600 
Q 959 1441 959 1056 
Q 959 750 1161 570 
Q 1363 391 1709 391 
Q 2188 391 2477 730 
Q 2766 1069 2766 1631 
L 2766 1759 
L 2194 1759 
z
M 3341 1997 
L 3341 0 
L 2766 0 
L 2766 531 
Q 2569 213 2275 61 
Q 1981 -91 1556 -91 
Q 1019 -91 701 211 
Q 384 513 384 1019 
Q 384 1609 779 1909 
Q 1175 2209 1959 2209 
L 2766 2209 
L 2766 2266 
Q 2766 2663 2505 2880 
Q 2244 3097 1772 3097 
Q 1472 3097 1187 3025 
Q 903 2953 641 2809 
L 641 3341 
Q 956 3463 1253 3523 
Q 1550 3584 1831 3584 
Q 2591 3584 2966 3190 
Q 3341 2797 3341 1997 
z
" transform="scale(0.015625)"/>
       <path id="DejaVuSans-76" d="M 191 3500 
L 800 3500 
L 1894 563 
L 2988 3500 
L 3597 3500 
L 2284 0 
L 1503 0 
L 191 3500 
z
" transform="scale(0.015625)"/>
       <path id="DejaVuSans-67" d="M 2906 1791 
Q 2906 2416 2648 2759 
Q 2391 3103 1925 3103 
Q 1463 3103 1205 2759 
Q 947 2416 947 1791 
Q 947 1169 1205 825 
Q 1463 481 1925 481 
Q 2391 481 2648 825 
Q 2906 1169 2906 1791 
z
M 3481 434 
Q 3481 -459 3084 -895 
Q 2688 -1331 1869 -1331 
Q 1566 -1331 1297 -1286 
Q 1028 -1241 775 -1147 
L 775 -588 
Q 1028 -725 1275 -790 
Q 1522 -856 1778 -856 
Q 2344 -856 2625 -561 
Q 2906 -266 2906 331 
L 2906 616 
Q 2728 306 2450 153 
Q 2172 0 1784 0 
Q 1141 0 747 490 
Q 353 981 353 1791 
Q 353 2603 747 3093 
Q 1141 3584 1784 3584 
Q 2172 3584 2450 3431 
Q 2728 3278 2906 2969 
L 2906 3500 
L 3481 3500 
L 3481 434 
z
" transform="scale(0.015625)"/>
       <path id="DejaVuSans-c5" d="M 2663 5081 
Q 2663 5278 2523 5417 
Q 2384 5556 2188 5556 
Q 1988 5556 1852 5420 
Q 1716 5284 1716 5081 
Q 1716 4884 1853 4746 
Q 1991 4609 2188 4609 
Q 2384 4609 2523 4746 
Q 2663 4884 2663 5081 
z
M 2188 4044 
L 1338 1722 
L 3041 1722 
L 2188 4044 
z
M 1716 4366 
Q 1525 4494 1428 4673 
Q 1331 4853 1331 5081 
Q 1331 5441 1579 5691 
Q 1828 5941 2188 5941 
Q 2544 5941 2795 5689 
Q 3047 5438 3047 5081 
Q 3047 4863 2948 4678 
Q 2850 4494 2663 4366 
L 4325 0 
L 3669 0 
L 3244 1197 
L 1141 1197 
L 716 0 
L 50 0 
L 1716 4366 
z
" transform="scale(0.015625)"/>
      </defs>
      <use xlink:href="#DejaVuSans-77"/>
      <use xlink:href="#DejaVuSans-61" transform="translate(81.787109 0)"/>
      <use xlink:href="#DejaVuSans-76" transform="translate(143.066406 0)"/>
      <use xlink:href="#DejaVuSans-65" transform="translate(202.246094 0)"/>
      <use xlink:href="#DejaVuSans-6c" transform="translate(263.769531 0)"/>
      <use xlink:href="#DejaVuSans-65" transform="translate(291.552734 0)"/>
      <use xlink:href="#DejaVuSans-6e" transform="translate(353.076172 0)"/>
      <use xlink:href="#DejaVuSans-67" transform="translate(416.455078 0)"/>
      <use xlink:href="#DejaVuSans-74" transform="translate(479.931641 0)"/>
      <use xlink:href="#DejaVuSans-68" transform="translate(519.140625 0)"/>
      <use xlink:href="#DejaVuSans-20" transform="translate(582.519531 0)"/>
      <use xlink:href="#DejaVuSans-5b" transform="translate(614.306641 0)"/>
      <use xlink:href="#DejaVuSans-c5" transform="translate(653.320312 0)"/>
      <use xlink:href="#DejaVuSans-5d" transform="translate(721.728516 0)"/>
     </g>
    </g>
   </g>
   <g id="matplotlib.axis_4">
    <g id="ytick_8">
     <g id="line2d_31">
      <g>
       <use xlink:href="#m61dc7d6b42" x="483.466635" y="245.797127" style="stroke: #000000; stroke-width: 0.8"/>
      </g>
     </g>
     <g id="text_31">
      <!-- 0 -->
      <g transform="translate(470.104135 249.596346) scale(0.1 -0.1)">
       <use xlink:href="#DejaVuSans-30"/>
      </g>
     </g>
    </g>
    <g id="ytick_9">
     <g id="line2d_32">
      <g>
       <use xlink:href="#m61dc7d6b42" x="483.466635" y="194.316529" style="stroke: #000000; stroke-width: 0.8"/>
      </g>
     </g>
     <g id="text_32">
      <!-- 500 -->
      <g transform="translate(457.379135 198.115748) scale(0.1 -0.1)">
       <use xlink:href="#DejaVuSans-35"/>
       <use xlink:href="#DejaVuSans-30" transform="translate(63.623047 0)"/>
       <use xlink:href="#DejaVuSans-30" transform="translate(127.246094 0)"/>
      </g>
     </g>
    </g>
    <g id="ytick_10">
     <g id="line2d_33">
      <g>
       <use xlink:href="#m61dc7d6b42" x="483.466635" y="142.835931" style="stroke: #000000; stroke-width: 0.8"/>
      </g>
     </g>
     <g id="text_33">
      <!-- 1000 -->
      <g transform="translate(451.016635 146.63515) scale(0.1 -0.1)">
       <use xlink:href="#DejaVuSans-31"/>
       <use xlink:href="#DejaVuSans-30" transform="translate(63.623047 0)"/>
       <use xlink:href="#DejaVuSans-30" transform="translate(127.246094 0)"/>
       <use xlink:href="#DejaVuSans-30" transform="translate(190.869141 0)"/>
      </g>
     </g>
    </g>
    <g id="ytick_11">
     <g id="line2d_34">
      <g>
       <use xlink:href="#m61dc7d6b42" x="483.466635" y="91.355333" style="stroke: #000000; stroke-width: 0.8"/>
      </g>
     </g>
     <g id="text_34">
      <!-- 1500 -->
      <g transform="translate(451.016635 95.154552) scale(0.1 -0.1)">
       <use xlink:href="#DejaVuSans-31"/>
       <use xlink:href="#DejaVuSans-35" transform="translate(63.623047 0)"/>
       <use xlink:href="#DejaVuSans-30" transform="translate(127.246094 0)"/>
       <use xlink:href="#DejaVuSans-30" transform="translate(190.869141 0)"/>
      </g>
     </g>
    </g>
    <g id="ytick_12">
     <g id="line2d_35">
      <g>
       <use xlink:href="#m61dc7d6b42" x="483.466635" y="39.874735" style="stroke: #000000; stroke-width: 0.8"/>
      </g>
     </g>
     <g id="text_35">
      <!-- 2000 -->
      <g transform="translate(451.016635 43.673954) scale(0.1 -0.1)">
       <use xlink:href="#DejaVuSans-32"/>
       <use xlink:href="#DejaVuSans-30" transform="translate(63.623047 0)"/>
       <use xlink:href="#DejaVuSans-30" transform="translate(127.246094 0)"/>
       <use xlink:href="#DejaVuSans-30" transform="translate(190.869141 0)"/>
      </g>
     </g>
    </g>
    <g id="text_36">
     <!-- [counts] -->
     <g transform="translate(444.936947 152.791947) rotate(-90) scale(0.1 -0.1)">
      <use xlink:href="#DejaVuSans-5b"/>
      <use xlink:href="#DejaVuSans-63" transform="translate(39.013672 0)"/>
      <use xlink:href="#DejaVuSans-6f" transform="translate(93.994141 0)"/>
      <use xlink:href="#DejaVuSans-75" transform="translate(155.175781 0)"/>
      <use xlink:href="#DejaVuSans-6e" transform="translate(218.554688 0)"/>
      <use xlink:href="#DejaVuSans-74" transform="translate(281.933594 0)"/>
      <use xlink:href="#DejaVuSans-73" transform="translate(321.142578 0)"/>
      <use xlink:href="#DejaVuSans-5d" transform="translate(373.242188 0)"/>
     </g>
    </g>
   </g>
   <g id="line2d_36">
    <path d="M 500.819786 153.852779 
L 501.975069 153.852779 
L 501.975069 151.690594 
L 503.130352 151.690594 
L 503.130352 138.614522 
L 504.285635 138.614522 
L 504.285635 141.909281 
L 505.440918 141.909281 
L 505.440918 139.953018 
L 506.596201 139.953018 
L 506.596201 157.35346 
L 507.751484 157.35346 
L 507.751484 146.542534 
L 508.906767 146.542534 
L 508.906767 126.979907 
L 510.06205 126.979907 
L 510.06205 98.356695 
L 511.217333 98.356695 
L 511.217333 83.839166 
L 512.372616 83.839166 
L 512.372616 60.981781 
L 513.527899 60.981781 
L 513.527899 40.904347 
L 514.683182 40.904347 
L 514.683182 32.152646 
L 515.838465 32.152646 
L 515.838465 23.709828 
L 516.993748 23.709828 
L 516.993748 18.561768 
L 518.149031 18.561768 
L 518.149031 31.946723 
L 519.304314 31.946723 
L 519.304314 43.478377 
L 520.459597 43.478377 
L 520.459597 50.273816 
L 521.61488 50.273816 
L 521.61488 51.715273 
L 522.770164 51.715273 
L 522.770164 63.349888 
L 523.925447 63.349888 
L 523.925447 81.162175 
L 525.08073 81.162175 
L 525.08073 86.104312 
L 526.236013 86.104312 
L 526.236013 91.355333 
L 527.391296 91.355333 
L 527.391296 94.444169 
L 528.546579 94.444169 
L 528.546579 107.41728 
L 529.701862 107.41728 
L 529.701862 91.355333 
L 530.857145 91.355333 
L 530.857145 111.638689 
L 532.012428 111.638689 
L 532.012428 100.209996 
L 533.167711 100.209996 
L 533.167711 85.486545 
L 534.322994 85.486545 
L 534.322994 87.957614 
L 535.478277 87.957614 
L 535.478277 87.236886 
L 536.63356 87.236886 
L 536.63356 73.543047 
L 537.788843 73.543047 
L 537.788843 67.159452 
L 538.944126 67.159452 
L 538.944126 51.509351 
L 540.099409 51.509351 
L 540.099409 44.713912 
L 541.254692 44.713912 
L 541.254692 34.21187 
L 542.409975 34.21187 
L 542.409975 46.361291 
L 543.565258 46.361291 
L 543.565258 51.921195 
L 544.720542 51.921195 
L 544.720542 59.746246 
L 545.875825 59.746246 
L 545.875825 69.218676 
L 547.031108 69.218676 
L 547.031108 75.60227 
L 548.186391 75.60227 
L 548.186391 83.015477 
L 549.341674 83.015477 
L 549.341674 93.723441 
L 550.496957 93.723441 
L 550.496957 99.077423 
L 551.65224 99.077423 
L 551.65224 112.668301 
L 552.807523 112.668301 
L 552.807523 113.389029 
L 553.962806 113.389029 
L 553.962806 119.360779 
L 555.118089 119.360779 
L 555.118089 132.848695 
L 556.273372 132.848695 
L 556.273372 139.541173 
L 557.428655 139.541173 
L 557.428655 142.630009 
L 558.583938 142.630009 
L 558.583938 144.380349 
L 559.739221 144.380349 
L 559.739221 154.985352 
L 560.894504 154.985352 
L 560.894504 154.470546 
L 562.049787 154.470546 
L 562.049787 162.604481 
L 563.20507 162.604481 
L 563.20507 160.236373 
L 564.360353 160.236373 
L 564.360353 167.031812 
L 565.515636 167.031812 
L 565.515636 171.97395 
L 566.67092 171.97395 
L 566.67092 174.033174 
L 567.826203 174.033174 
L 567.826203 177.327932 
L 568.981486 177.327932 
L 568.981486 178.151621 
L 570.136769 178.151621 
L 570.136769 185.255944 
L 571.292052 185.255944 
L 571.292052 191.124732 
L 572.447335 191.124732 
L 572.447335 188.859586 
L 573.602618 188.859586 
L 573.602618 192.463228 
L 574.757901 192.463228 
L 574.757901 192.257305 
L 575.913184 192.257305 
L 575.913184 195.346141 
L 577.068467 195.346141 
L 577.068467 196.066869 
L 578.22375 196.066869 
L 578.22375 199.670511 
L 579.379033 199.670511 
L 579.379033 202.553425 
L 580.534316 202.553425 
L 580.534316 203.583037 
L 581.689599 203.583037 
L 581.689599 208.731097 
L 582.844882 208.731097 
L 582.844882 207.186679 
L 584.000165 207.186679 
L 584.000165 212.849544 
L 585.155448 212.849544 
L 585.155448 210.893282 
L 586.310731 210.893282 
L 586.310731 211.202165 
L 587.466014 211.202165 
L 587.466014 211.61401 
L 588.621298 211.61401 
L 588.621298 214.702846 
L 589.776581 214.702846 
L 589.776581 218.100565 
L 590.931864 218.100565 
L 590.931864 215.217652 
L 592.087147 215.217652 
L 592.087147 219.953867 
L 593.24243 219.953867 
L 593.24243 220.571634 
L 594.397713 220.571634 
L 594.397713 222.527897 
L 595.552996 222.527897 
L 595.552996 222.83678 
L 596.708279 222.83678 
L 596.708279 226.749306 
L 597.863562 226.749306 
L 597.863562 225.719694 
L 599.018845 225.719694 
L 599.018845 226.440422 
L 600.174128 226.440422 
L 600.174128 222.527897 
L 601.329411 222.527897 
L 601.329411 226.337461 
L 602.484694 226.337461 
L 602.484694 227.161151 
L 603.639977 227.161151 
L 603.639977 226.2345 
L 604.79526 226.2345 
L 604.79526 227.98484 
L 605.950543 227.98484 
L 605.950543 230.455909 
L 607.105826 230.455909 
L 607.105826 230.970715 
L 608.261109 230.970715 
L 608.261109 230.352948 
L 609.416392 230.352948 
L 609.416392 232.000327 
L 610.571675 232.000327 
L 610.571675 232.926978 
L 611.726959 232.926978 
L 611.726959 230.55887 
L 612.882242 230.55887 
L 612.882242 234.059551 
L 614.037525 234.059551 
L 614.037525 233.544745 
L 616.348091 233.647706 
L 616.348091 233.1329 
L 617.503374 233.1329 
L 617.503374 233.338822 
L 618.658657 233.338822 
L 618.658657 234.471396 
L 619.81394 234.471396 
L 619.81394 236.633581 
L 620.969223 236.633581 
L 620.969223 236.221736 
L 622.124506 236.221736 
L 622.124506 237.354309 
L 623.279789 237.354309 
L 623.279789 237.148387 
L 624.435072 237.148387 
L 624.435072 235.398046 
L 625.590355 235.398046 
L 625.590355 235.809891 
L 626.745638 235.809891 
L 626.745638 239.413533 
L 627.900921 239.413533 
L 627.900921 237.869115 
L 630.211487 237.766154 
L 630.211487 238.177999 
L 631.36677 238.177999 
L 631.36677 239.413533 
L 632.522053 239.413533 
L 632.522053 237.251348 
L 633.677337 237.251348 
L 633.677337 239.207611 
L 634.83262 239.207611 
L 634.83262 238.589843 
L 635.987903 238.589843 
L 635.987903 240.0313 
L 637.143186 240.0313 
L 637.143186 240.443145 
L 638.298469 240.443145 
L 638.298469 238.177999 
L 639.453752 238.177999 
L 639.453752 240.752028 
L 640.609035 240.752028 
L 640.609035 239.207611 
L 641.764318 239.207611 
L 641.764318 240.134261 
L 642.919601 240.134261 
L 642.919601 240.752028 
L 644.074884 240.752028 
L 644.074884 241.575718 
L 645.230167 241.575718 
L 645.230167 241.369796 
L 646.38545 241.369796 
L 646.38545 241.987563 
L 648.696016 241.987563 
L 648.696016 242.708291 
L 649.851299 242.708291 
L 649.851299 240.752028 
L 651.006582 240.752028 
L 651.006582 239.825378 
L 652.161865 239.825378 
L 652.161865 242.193485 
L 653.317148 242.193485 
L 653.317148 240.957951 
L 654.472431 240.957951 
L 654.472431 241.678679 
L 655.627715 241.678679 
L 655.627715 243.326058 
L 656.782998 243.326058 
L 656.782998 241.163873 
L 657.938281 241.163873 
L 657.938281 241.987563 
L 659.093564 241.987563 
L 659.093564 241.78164 
L 660.248847 241.78164 
L 660.248847 243.120136 
L 661.40413 243.120136 
L 661.40413 242.193485 
L 662.559413 242.193485 
L 662.559413 242.502369 
L 664.869979 242.60533 
L 664.869979 242.708291 
L 666.025262 242.708291 
L 666.025262 243.223097 
L 667.180545 243.223097 
L 667.180545 242.708291 
L 668.335828 242.708291 
L 668.335828 243.531981 
L 669.491111 243.531981 
L 669.491111 242.60533 
L 670.646394 242.60533 
L 670.646394 242.914214 
L 671.801677 242.914214 
L 671.801677 243.531981 
L 672.95696 243.531981 
L 672.95696 243.120136 
L 674.112243 243.120136 
L 674.112243 243.531981 
L 675.267526 243.531981 
L 675.267526 243.120136 
L 676.422809 243.120136 
L 676.422809 243.42902 
L 677.578093 243.42902 
L 677.578093 243.737903 
L 678.733376 243.737903 
L 678.733376 243.017175 
L 679.888659 243.017175 
L 679.888659 243.223097 
L 682.199225 243.326058 
L 682.199225 243.634942 
L 683.354508 243.634942 
L 683.354508 243.840864 
L 685.665074 243.840864 
L 685.665074 243.531981 
L 686.820357 243.531981 
L 686.820357 244.458632 
L 687.97564 244.458632 
L 687.97564 244.252709 
L 689.130923 244.252709 
L 689.130923 243.840864 
L 690.286206 243.840864 
L 690.286206 243.531981 
L 691.441489 243.531981 
L 691.441489 244.252709 
L 692.596772 244.252709 
L 692.596772 243.737903 
L 693.752055 243.737903 
L 693.752055 244.046787 
L 697.217904 244.149748 
L 697.217904 244.35567 
L 700.683754 244.35567 
L 700.683754 244.767515 
L 701.839037 244.767515 
L 701.839037 244.252709 
L 704.149603 244.252709 
L 704.149603 244.767515 
L 706.460169 244.870476 
L 706.460169 245.17936 
L 707.615452 245.17936 
L 707.615452 244.767515 
L 709.926018 244.664554 
L 709.926018 244.35567 
L 711.081301 244.35567 
L 711.081301 243.326058 
L 712.236584 243.326058 
L 712.236584 244.664554 
L 713.391867 244.664554 
L 713.391867 244.35567 
L 714.54715 244.35567 
L 714.54715 244.046787 
L 715.702433 244.046787 
L 715.702433 244.767515 
L 718.012999 244.664554 
L 718.012999 244.973437 
L 719.168282 244.973437 
L 719.168282 244.561593 
L 720.323565 244.561593 
L 720.323565 244.35567 
L 721.478848 244.35567 
L 721.478848 244.561593 
L 722.634132 244.561593 
L 722.634132 244.35567 
L 724.944698 244.458632 
L 724.944698 245.076399 
L 727.255264 245.17936 
L 727.255264 244.664554 
L 728.410547 244.664554 
L 728.410547 245.076399 
L 729.56583 245.076399 
L 729.56583 245.488243 
L 730.721113 245.488243 
L 730.721113 245.17936 
L 733.031679 245.282321 
L 733.031679 244.561593 
L 734.186962 244.561593 
L 734.186962 245.282321 
L 735.342245 245.282321 
L 735.342245 245.488243 
L 736.497528 245.488243 
L 736.497528 244.870476 
L 737.652811 244.870476 
L 737.652811 245.385282 
L 738.808094 245.385282 
L 738.808094 245.17936 
L 741.11866 245.076399 
L 741.11866 245.385282 
L 742.273943 245.385282 
L 742.273943 244.561593 
L 743.429226 244.561593 
L 743.429226 245.488243 
L 744.58451 245.488243 
L 744.58451 245.076399 
L 745.739793 245.076399 
L 745.739793 244.664554 
L 746.895076 244.664554 
L 746.895076 245.488243 
L 751.516208 245.385282 
L 751.516208 244.870476 
L 752.671491 244.870476 
L 752.671491 245.385282 
L 753.826774 245.385282 
L 753.826774 245.17936 
L 758.447906 245.076399 
L 758.447906 245.488243 
L 759.603189 245.488243 
L 759.603189 245.282321 
L 760.758472 245.282321 
L 760.758472 245.591205 
L 761.913755 245.591205 
L 761.913755 245.385282 
L 766.534888 245.385282 
L 766.534888 245.591205 
L 773.466586 245.694166 
L 773.466586 245.385282 
L 775.777152 245.385282 
L 775.777152 245.591205 
L 778.087718 245.694166 
L 778.087718 245.076399 
L 779.243001 245.076399 
L 779.243001 245.591205 
L 781.553567 245.591205 
L 781.553567 245.17936 
L 782.70885 245.17936 
L 782.70885 245.694166 
L 783.864133 245.694166 
L 783.864133 245.488243 
L 786.174699 245.488243 
L 786.174699 245.694166 
L 790.795832 245.694166 
L 790.795832 245.385282 
L 793.106398 245.385282 
L 793.106398 245.694166 
L 794.261681 245.694166 
L 794.261681 245.488243 
L 795.416964 245.488243 
L 795.416964 245.694166 
L 797.72753 245.591205 
L 797.72753 245.385282 
L 798.882813 245.385282 
L 798.882813 245.591205 
L 802.348662 245.694166 
L 802.348662 245.385282 
L 803.503945 245.385282 
L 803.503945 245.591205 
L 804.659228 245.591205 
L 804.659228 245.385282 
L 810.435643 245.488243 
L 810.435643 245.797127 
L 811.590927 245.797127 
L 811.590927 245.282321 
L 812.74621 245.282321 
L 812.74621 245.591205 
L 813.901493 245.591205 
L 813.901493 245.797127 
L 815.056776 245.797127 
L 815.056776 245.591205 
L 816.212059 245.591205 
L 816.212059 245.385282 
L 817.367342 245.385282 
L 817.367342 245.797127 
L 818.522625 245.797127 
L 818.522625 245.591205 
L 825.454323 245.591205 
L 825.454323 245.797127 
L 826.609606 245.797127 
L 826.609606 245.591205 
L 830.075455 245.694166 
L 830.075455 245.797127 
L 831.230738 245.797127 
L 831.230738 245.591205 
L 838.162437 245.591205 
L 838.162437 245.797127 
L 840.473003 245.797127 
L 840.473003 245.488243 
L 841.628286 245.488243 
L 841.628286 245.694166 
L 847.404701 245.694166 
L 847.404701 245.694166 
" clip-path="url(#p858fc89038)" style="fill: none; stroke: #1f77b4; stroke-width: 1.5; stroke-linecap: square"/>
   </g>
   <g id="line2d_37">
    <path d="M 500.81813 151.381711 
L 501.974896 151.381711 
L 501.974896 147.572146 
L 503.131662 147.572146 
L 503.131662 142.630009 
L 504.288429 142.630009 
L 504.288429 135.319764 
L 505.445195 135.319764 
L 505.445195 145.718845 
L 506.601961 145.718845 
L 506.601961 153.440934 
L 507.758728 153.440934 
L 507.758728 151.999478 
L 508.915494 151.999478 
L 508.915494 125.641412 
L 510.07226 125.641412 
L 510.07226 111.329805 
L 511.229027 111.329805 
L 511.229027 87.442808 
L 512.385793 87.442808 
L 512.385793 55.318915 
L 513.542559 55.318915 
L 513.542559 42.757649 
L 514.699326 42.757649 
L 514.699326 25.66609 
L 515.856092 25.66609 
L 515.856092 21.238759 
L 517.012858 21.238759 
L 517.012858 18.973613 
L 518.169625 18.973613 
L 518.169625 25.769052 
L 519.326391 25.769052 
L 519.326391 34.21187 
L 520.483157 34.21187 
L 520.483157 44.816873 
L 521.639924 44.816873 
L 521.639924 56.451488 
L 522.79669 56.451488 
L 522.79669 69.012754 
L 523.953456 69.012754 
L 523.953456 71.2779 
L 525.110222 71.2779 
L 525.110222 83.633244 
L 527.423755 83.530282 
L 527.423755 90.531644 
L 528.580521 90.531644 
L 528.580521 104.740289 
L 529.737288 104.740289 
L 529.737288 100.004074 
L 530.894054 100.004074 
L 530.894054 106.59359 
L 532.05082 106.59359 
L 532.05082 99.489268 
L 533.207587 99.489268 
L 533.207587 94.856014 
L 534.364353 94.856014 
L 534.364353 88.884265 
L 535.521119 88.884265 
L 535.521119 81.368097 
L 536.677886 81.368097 
L 536.677886 72.925279 
L 537.834652 72.925279 
L 537.834652 63.761733 
L 538.991418 63.761733 
L 538.991418 60.261052 
L 540.148185 60.261052 
L 540.148185 45.949446 
L 541.304951 45.949446 
L 541.304951 45.331679 
L 542.461717 45.331679 
L 542.461717 40.698425 
L 543.618484 40.698425 
L 543.618484 59.334401 
L 544.77525 59.334401 
L 544.77525 57.275178 
L 545.932016 57.275178 
L 545.932016 65.100228 
L 547.088782 65.100228 
L 547.088782 81.162175 
L 548.245549 81.162175 
L 548.245549 78.073339 
L 549.402315 78.073339 
L 549.402315 87.339847 
L 550.559081 87.339847 
L 550.559081 98.562617 
L 551.715848 98.562617 
L 551.715848 112.050534 
L 552.872614 112.050534 
L 552.872614 111.020922 
L 554.02938 111.020922 
L 554.02938 125.641412 
L 555.186147 125.641412 
L 555.186147 128.524325 
L 556.342913 128.524325 
L 556.342913 135.628648 
L 557.499679 135.628648 
L 557.499679 136.864182 
L 558.656446 136.864182 
L 558.656446 140.467824 
L 559.813212 140.467824 
L 559.813212 148.807681 
L 560.969978 148.807681 
L 560.969978 152.926128 
L 562.126745 152.926128 
L 562.126745 158.588994 
L 563.283511 158.588994 
L 563.283511 160.545257 
L 564.440277 160.545257 
L 564.440277 170.738415 
L 565.597044 170.738415 
L 565.597044 173.415406 
L 567.910576 173.518368 
L 567.910576 179.901962 
L 569.067343 179.901962 
L 569.067343 177.533854 
L 570.224109 177.533854 
L 570.224109 183.917448 
L 571.380875 183.917448 
L 571.380875 188.962547 
L 572.537641 188.962547 
L 572.537641 190.712887 
L 573.694408 190.712887 
L 573.694408 192.360266 
L 574.851174 192.360266 
L 574.851174 195.552064 
L 576.00794 195.552064 
L 576.00794 196.787598 
L 577.164707 196.787598 
L 577.164707 199.052744 
L 578.321473 199.052744 
L 578.321473 203.994882 
L 579.478239 203.994882 
L 579.478239 205.127455 
L 580.635006 205.127455 
L 580.635006 207.701485 
L 581.791772 207.701485 
L 581.791772 206.980756 
L 582.948538 206.980756 
L 582.948538 209.348864 
L 584.105305 209.348864 
L 584.105305 207.392601 
L 585.262071 207.392601 
L 585.262071 212.025855 
L 586.418837 212.025855 
L 586.418837 213.673234 
L 587.575604 213.673234 
L 587.575604 214.702846 
L 588.73237 214.702846 
L 588.73237 217.688721 
L 589.889136 217.688721 
L 589.889136 215.526535 
L 591.045903 215.526535 
L 591.045903 218.306488 
L 592.202669 218.306488 
L 592.202669 219.850906 
L 593.359435 219.850906 
L 593.359435 220.880518 
L 594.516202 220.880518 
L 594.516202 221.395324 
L 595.672968 221.395324 
L 595.672968 222.733819 
L 596.829734 222.733819 
L 596.829734 222.219013 
L 597.9865 222.219013 
L 597.9865 226.2345 
L 599.143267 226.2345 
L 599.143267 223.66047 
L 600.300033 223.66047 
L 600.300033 225.925616 
L 601.456799 225.925616 
L 601.456799 227.881879 
L 604.927098 227.778918 
L 604.927098 229.014452 
L 606.083865 229.014452 
L 606.083865 229.735181 
L 607.240631 229.735181 
L 607.240631 232.824016 
L 608.397397 232.824016 
L 608.397397 231.279598 
L 609.554164 231.279598 
L 609.554164 230.661831 
L 610.71093 230.661831 
L 610.71093 232.412172 
L 611.867696 232.412172 
L 611.867696 233.95659 
L 613.024463 233.95659 
L 613.024463 231.897366 
L 614.181229 231.897366 
L 614.181229 233.95659 
L 615.337995 233.95659 
L 615.337995 235.501007 
L 616.494762 235.501007 
L 616.494762 233.235861 
L 617.651528 233.235861 
L 617.651528 233.95659 
L 618.808294 233.95659 
L 618.808294 236.118775 
L 619.965061 236.118775 
L 619.965061 235.192124 
L 621.121827 235.192124 
L 621.121827 235.398046 
L 622.278593 235.398046 
L 622.278593 236.839503 
L 624.592126 236.839503 
L 624.592126 237.869115 
L 626.905658 237.869115 
L 626.905658 238.486882 
L 628.062425 238.486882 
L 628.062425 236.839503 
L 629.219191 236.839503 
L 629.219191 238.589843 
L 630.375957 238.589843 
L 630.375957 239.619455 
L 631.532724 239.619455 
L 631.532724 239.928339 
L 632.68949 239.928339 
L 632.68949 238.898727 
L 633.846256 238.898727 
L 633.846256 237.972076 
L 635.003023 237.972076 
L 635.003023 238.898727 
L 636.159789 238.898727 
L 636.159789 240.237222 
L 637.316555 240.237222 
L 637.316555 239.928339 
L 638.473322 239.928339 
L 638.473322 241.266834 
L 639.630088 241.266834 
L 639.630088 241.472757 
L 640.786854 241.472757 
L 640.786854 240.134261 
L 641.943621 240.134261 
L 641.943621 240.957951 
L 643.100387 240.957951 
L 643.100387 239.310572 
L 644.257153 239.310572 
L 644.257153 241.575718 
L 645.41392 241.575718 
L 645.41392 241.884602 
L 646.570686 241.884602 
L 646.570686 240.546106 
L 647.727452 240.546106 
L 647.727452 241.369796 
L 648.884218 241.369796 
L 648.884218 240.546106 
L 650.040985 240.546106 
L 650.040985 240.237222 
L 651.197751 240.237222 
L 651.197751 242.296446 
L 652.354517 242.296446 
L 652.354517 243.017175 
L 653.511284 243.017175 
L 653.511284 242.296446 
L 654.66805 242.296446 
L 654.66805 240.957951 
L 655.824816 240.957951 
L 655.824816 242.502369 
L 656.981583 242.502369 
L 656.981583 241.060912 
L 658.138349 241.060912 
L 658.138349 241.884602 
L 659.295115 241.884602 
L 659.295115 242.502369 
L 660.451882 242.502369 
L 660.451882 242.708291 
L 661.608648 242.708291 
L 661.608648 242.193485 
L 662.765414 242.193485 
L 662.765414 242.811252 
L 665.078947 242.811252 
L 665.078947 243.634942 
L 666.235713 243.634942 
L 666.235713 242.296446 
L 667.39248 242.296446 
L 667.39248 243.634942 
L 668.549246 243.634942 
L 668.549246 242.914214 
L 670.862779 243.017175 
L 670.862779 243.326058 
L 672.019545 243.326058 
L 672.019545 243.943826 
L 673.176311 243.943826 
L 673.176311 242.502369 
L 674.333077 242.502369 
L 674.333077 243.017175 
L 676.64661 243.017175 
L 676.64661 242.811252 
L 677.803376 242.811252 
L 677.803376 242.502369 
L 678.960143 242.502369 
L 678.960143 243.943826 
L 680.116909 243.943826 
L 680.116909 242.502369 
L 681.273675 242.502369 
L 681.273675 244.458632 
L 682.430442 244.458632 
L 682.430442 244.252709 
L 683.587208 244.252709 
L 683.587208 243.840864 
L 685.900741 243.737903 
L 685.900741 243.326058 
L 687.057507 243.326058 
L 687.057507 243.531981 
L 689.37104 243.531981 
L 689.37104 243.840864 
L 690.527806 243.840864 
L 690.527806 243.634942 
L 691.684572 243.634942 
L 691.684572 243.943826 
L 692.841339 243.943826 
L 692.841339 245.17936 
L 693.998105 245.17936 
L 693.998105 244.149748 
L 695.154871 244.149748 
L 695.154871 243.634942 
L 697.468404 243.634942 
L 697.468404 244.561593 
L 698.62517 244.561593 
L 698.62517 245.17936 
L 699.781937 245.17936 
L 699.781937 244.664554 
L 700.938703 244.664554 
L 700.938703 245.17936 
L 702.095469 245.17936 
L 702.095469 244.664554 
L 706.722534 244.664554 
L 706.722534 244.046787 
L 707.879301 244.046787 
L 707.879301 244.767515 
L 709.036067 244.767515 
L 709.036067 245.076399 
L 710.192833 245.076399 
L 710.192833 244.664554 
L 711.3496 244.664554 
L 711.3496 244.870476 
L 712.506366 244.870476 
L 712.506366 244.561593 
L 713.663132 244.561593 
L 713.663132 244.252709 
L 714.819899 244.252709 
L 714.819899 245.076399 
L 715.976665 245.076399 
L 715.976665 244.870476 
L 717.133431 244.870476 
L 717.133431 245.17936 
L 718.290198 245.17936 
L 718.290198 244.973437 
L 719.446964 244.973437 
L 719.446964 245.282321 
L 720.60373 245.282321 
L 720.60373 244.973437 
L 724.074029 244.870476 
L 724.074029 245.17936 
L 726.387562 245.282321 
L 726.387562 244.767515 
L 727.544328 244.767515 
L 727.544328 245.076399 
L 728.701094 245.076399 
L 728.701094 244.870476 
L 732.171393 244.973437 
L 732.171393 245.076399 
L 735.641692 245.076399 
L 735.641692 245.282321 
L 736.798459 245.282321 
L 736.798459 245.488243 
L 740.268758 245.385282 
L 740.268758 245.076399 
L 741.425524 245.076399 
L 741.425524 245.488243 
L 743.739057 245.591205 
L 743.739057 244.458632 
L 744.895823 244.458632 
L 744.895823 245.17936 
L 747.209356 245.076399 
L 747.209356 245.591205 
L 748.366122 245.591205 
L 748.366122 245.282321 
L 749.522888 245.282321 
L 749.522888 245.591205 
L 750.679654 245.591205 
L 750.679654 245.076399 
L 751.836421 245.076399 
L 751.836421 244.664554 
L 752.993187 244.664554 
L 752.993187 245.694166 
L 755.30672 245.591205 
L 755.30672 245.17936 
L 756.463486 245.17936 
L 756.463486 245.385282 
L 757.620252 245.385282 
L 757.620252 245.076399 
L 758.777019 245.076399 
L 758.777019 245.591205 
L 759.933785 245.591205 
L 759.933785 245.385282 
L 762.247318 245.282321 
L 762.247318 245.591205 
L 763.404084 245.591205 
L 763.404084 244.973437 
L 764.56085 244.973437 
L 764.56085 245.797127 
L 765.717617 245.797127 
L 765.717617 245.385282 
L 768.031149 245.282321 
L 768.031149 245.591205 
L 771.501448 245.694166 
L 771.501448 245.076399 
L 772.658215 245.076399 
L 772.658215 245.591205 
L 774.971747 245.488243 
L 774.971747 245.385282 
L 778.442046 245.488243 
L 778.442046 245.591205 
L 786.53941 245.591205 
L 786.53941 245.385282 
L 787.696177 245.385282 
L 787.696177 245.694166 
L 790.009709 245.694166 
L 790.009709 245.385282 
L 791.166476 245.385282 
L 791.166476 245.797127 
L 792.323242 245.797127 
L 792.323242 245.591205 
L 794.636775 245.591205 
L 794.636775 245.385282 
L 796.950307 245.385282 
L 796.950307 245.17936 
L 798.107074 245.17936 
L 798.107074 245.694166 
L 799.26384 245.694166 
L 799.26384 245.282321 
L 801.577373 245.385282 
L 801.577373 245.694166 
L 807.361204 245.797127 
L 807.361204 245.17936 
L 808.51797 245.17936 
L 808.51797 245.694166 
L 824.712699 245.694166 
L 824.712699 245.488243 
L 825.869465 245.488243 
L 825.869465 245.797127 
L 827.026231 245.797127 
L 827.026231 245.591205 
L 830.49653 245.694166 
L 830.49653 245.385282 
L 831.653297 245.385282 
L 831.653297 245.797127 
L 835.123596 245.694166 
L 835.123596 245.488243 
L 837.437128 245.591205 
L 837.437128 245.694166 
L 838.593895 245.694166 
L 838.593895 245.488243 
L 839.750661 245.488243 
L 839.750661 245.797127 
L 842.064194 245.797127 
L 842.064194 245.282321 
L 843.22096 245.282321 
L 843.22096 245.694166 
L 845.534493 245.591205 
L 845.534493 245.488243 
L 846.691259 245.488243 
L 846.691259 245.694166 
L 847.848025 245.694166 
L 847.848025 245.694166 
" clip-path="url(#p858fc89038)" style="fill: none; stroke: #ff7f0e; stroke-width: 1.5; stroke-linecap: square"/>
   </g>
   <g id="line2d_38">
    <path d="M 500.819517 153.852779 
L 501.970444 153.852779 
L 501.970444 151.896516 
L 503.121371 151.896516 
L 503.121371 141.291513 
L 504.272298 141.291513 
L 504.272298 140.15894 
L 505.423225 140.15894 
L 505.423225 149.940254 
L 506.574152 149.940254 
L 506.574152 157.044576 
L 507.725079 157.044576 
L 507.725079 147.88103 
L 508.876006 147.88103 
L 508.876006 127.597674 
L 510.026933 127.597674 
L 510.026933 110.917961 
L 511.17786 110.917961 
L 511.17786 90.840527 
L 512.328787 90.840527 
L 512.328787 57.789984 
L 513.479714 57.789984 
L 513.479714 51.406389 
L 514.630641 51.406389 
L 514.630641 33.594103 
L 515.781568 33.594103 
L 515.781568 24.945362 
L 516.932495 24.945362 
L 516.932495 20.312108 
L 518.083422 20.312108 
L 518.083422 24.121673 
L 519.234349 24.121673 
L 519.234349 28.960849 
L 520.385276 28.960849 
L 520.385276 42.654688 
L 521.536203 42.654688 
L 521.536203 53.774497 
L 522.68713 53.774497 
L 522.68713 62.835082 
L 523.838057 62.835082 
L 523.838057 73.131202 
L 524.988984 73.131202 
L 524.988984 77.970378 
L 526.139911 77.970378 
L 526.139911 90.325721 
L 527.290838 90.325721 
L 527.290838 97.635966 
L 528.441765 97.635966 
L 528.441765 98.665578 
L 529.592692 98.665578 
L 529.592692 100.621841 
L 530.743619 100.621841 
L 530.743619 98.665578 
L 531.894546 98.665578 
L 531.894546 102.578104 
L 533.045473 102.578104 
L 533.045473 92.899751 
L 534.1964 92.899751 
L 534.1964 89.502032 
L 535.347327 89.502032 
L 535.347327 91.355333 
L 536.498254 91.355333 
L 536.498254 75.293387 
L 537.649182 75.293387 
L 537.649182 67.262414 
L 538.800109 67.262414 
L 538.800109 53.362652 
L 539.951036 53.362652 
L 539.951036 47.802748 
L 541.101963 47.802748 
L 541.101963 36.579977 
L 542.25289 36.579977 
L 542.25289 43.993183 
L 543.403817 43.993183 
L 543.403817 45.43464 
L 544.554744 45.43464 
L 544.554744 55.73076 
L 545.705671 55.73076 
L 545.705671 66.232802 
L 546.856598 66.232802 
L 546.856598 72.513435 
L 548.007525 72.513435 
L 548.007525 87.236886 
L 549.158452 87.236886 
L 549.158452 94.856014 
L 550.309379 94.856014 
L 550.309379 96.915238 
L 551.460306 96.915238 
L 551.460306 110.814999 
L 552.611233 110.814999 
L 552.611233 110.506116 
L 553.76216 110.506116 
L 553.76216 117.713399 
L 554.913087 117.713399 
L 554.913087 136.555298 
L 556.064014 136.555298 
L 556.064014 132.43685 
L 557.214941 132.43685 
L 557.214941 133.363501 
L 558.365868 133.363501 
L 558.365868 148.189913 
L 559.516795 148.189913 
L 559.516795 148.704719 
L 560.667722 148.704719 
L 560.667722 157.147537 
L 561.818649 157.147537 
L 561.818649 162.50152 
L 562.969576 162.50152 
L 562.969576 161.163024 
L 564.120503 161.163024 
L 564.120503 168.679191 
L 566.422357 168.57623 
L 566.422357 175.989436 
L 567.573284 175.989436 
L 567.573284 175.680553 
L 568.724211 175.680553 
L 568.724211 180.416768 
L 569.875138 180.416768 
L 569.875138 184.123371 
L 571.026065 184.123371 
L 571.026065 183.608565 
L 572.176992 183.608565 
L 572.176992 189.580314 
L 573.327919 189.580314 
L 573.327919 194.316529 
L 574.478846 194.316529 
L 574.478846 191.742499 
L 575.629773 191.742499 
L 575.629773 198.949783 
L 576.7807 198.949783 
L 576.7807 197.714249 
L 579.082554 197.81721 
L 579.082554 207.28964 
L 580.233481 207.28964 
L 580.233481 206.671873 
L 581.384409 206.671873 
L 581.384409 209.03998 
L 582.535336 209.03998 
L 582.535336 207.28964 
L 583.686263 207.28964 
L 583.686263 212.128816 
L 584.83719 212.128816 
L 584.83719 212.952506 
L 585.988117 212.952506 
L 585.988117 213.879156 
L 587.139044 213.879156 
L 587.139044 214.085079 
L 588.289971 214.085079 
L 588.289971 218.924255 
L 589.440898 218.924255 
L 589.440898 218.615371 
L 590.591825 218.615371 
L 590.591825 218.306488 
L 591.742752 218.306488 
L 591.742752 217.997604 
L 592.893679 217.997604 
L 592.893679 221.601246 
L 594.044606 221.601246 
L 594.044606 222.013091 
L 596.34646 221.91013 
L 596.34646 224.175276 
L 598.648314 224.278237 
L 598.648314 224.793043 
L 599.799241 224.793043 
L 599.799241 226.955228 
L 600.950168 226.955228 
L 600.950168 227.572995 
L 603.252022 227.470034 
L 603.252022 228.293724 
L 604.402949 228.293724 
L 604.402949 230.352948 
L 605.553876 230.352948 
L 605.553876 231.073676 
L 606.704803 231.073676 
L 606.704803 230.352948 
L 607.85573 230.352948 
L 607.85573 232.926978 
L 609.006657 232.926978 
L 609.006657 231.588482 
L 610.157584 231.588482 
L 610.157584 230.970715 
L 611.308511 230.970715 
L 611.308511 230.455909 
L 612.459438 230.455909 
L 612.459438 232.412172 
L 613.610365 232.412172 
L 613.610365 232.103288 
L 614.761292 232.103288 
L 614.761292 232.412172 
L 615.912219 232.412172 
L 615.912219 235.70693 
L 617.063146 235.70693 
L 617.063146 235.501007 
L 618.214073 235.501007 
L 618.214073 234.574357 
L 619.365 234.574357 
L 619.365 236.118775 
L 620.515927 236.118775 
L 620.515927 236.839503 
L 622.817781 236.839503 
L 622.817781 237.251348 
L 623.968709 237.251348 
L 623.968709 239.413533 
L 625.119636 239.413533 
L 625.119636 237.766154 
L 626.270563 237.766154 
L 626.270563 237.560231 
L 627.42149 237.560231 
L 627.42149 237.251348 
L 628.572417 237.251348 
L 628.572417 237.869115 
L 630.874271 237.766154 
L 630.874271 238.28096 
L 632.025198 238.28096 
L 632.025198 236.839503 
L 633.176125 236.839503 
L 633.176125 240.237222 
L 634.327052 240.237222 
L 634.327052 239.825378 
L 635.477979 239.825378 
L 635.477979 238.795766 
L 636.628906 238.795766 
L 636.628906 240.957951 
L 637.779833 240.957951 
L 637.779833 238.795766 
L 638.93076 238.795766 
L 638.93076 240.134261 
L 640.081687 240.134261 
L 640.081687 239.413533 
L 642.383541 239.310572 
L 642.383541 241.78164 
L 643.534468 241.78164 
L 643.534468 239.928339 
L 644.685395 239.928339 
L 644.685395 240.237222 
L 645.836322 240.237222 
L 645.836322 240.546106 
L 648.138176 240.649067 
L 648.138176 239.104649 
L 649.289103 239.104649 
L 649.289103 241.678679 
L 650.44003 241.678679 
L 650.44003 240.957951 
L 651.590957 240.957951 
L 651.590957 242.296446 
L 652.741884 242.296446 
L 652.741884 241.987563 
L 655.043738 242.090524 
L 655.043738 241.575718 
L 657.345592 241.575718 
L 657.345592 243.017175 
L 658.496519 243.017175 
L 658.496519 242.090524 
L 659.647446 242.090524 
L 659.647446 241.884602 
L 660.798373 241.884602 
L 660.798373 242.502369 
L 661.9493 242.502369 
L 661.9493 242.090524 
L 663.100227 242.090524 
L 663.100227 242.811252 
L 664.251154 242.811252 
L 664.251154 242.60533 
L 665.402081 242.60533 
L 665.402081 243.326058 
L 667.703936 243.326058 
L 667.703936 243.840864 
L 668.854863 243.840864 
L 668.854863 242.502369 
L 670.00579 242.502369 
L 670.00579 242.914214 
L 672.307644 243.017175 
L 672.307644 242.60533 
L 673.458571 242.60533 
L 673.458571 244.046787 
L 674.609498 244.046787 
L 674.609498 243.737903 
L 675.760425 243.737903 
L 675.760425 242.502369 
L 676.911352 242.502369 
L 676.911352 243.120136 
L 678.062279 243.120136 
L 678.062279 243.42902 
L 679.213206 243.42902 
L 679.213206 242.914214 
L 680.364133 242.914214 
L 680.364133 243.223097 
L 681.51506 243.223097 
L 681.51506 244.252709 
L 682.665987 244.252709 
L 682.665987 243.42902 
L 683.816914 243.42902 
L 683.816914 244.046787 
L 684.967841 244.046787 
L 684.967841 243.326058 
L 687.269695 243.42902 
L 687.269695 244.046787 
L 688.420622 244.046787 
L 688.420622 243.840864 
L 690.722476 243.840864 
L 690.722476 244.35567 
L 691.873403 244.35567 
L 691.873403 243.42902 
L 693.02433 243.42902 
L 693.02433 243.943826 
L 694.175257 243.943826 
L 694.175257 244.149748 
L 695.326184 244.149748 
L 695.326184 244.664554 
L 696.477111 244.664554 
L 696.477111 244.046787 
L 698.778965 244.046787 
L 698.778965 243.326058 
L 699.929892 243.326058 
L 699.929892 244.767515 
L 701.080819 244.767515 
L 701.080819 244.252709 
L 702.231746 244.252709 
L 702.231746 244.664554 
L 703.382673 244.664554 
L 703.382673 244.458632 
L 705.684527 244.561593 
L 705.684527 245.17936 
L 706.835454 245.17936 
L 706.835454 244.561593 
L 710.288236 244.664554 
L 710.288236 244.870476 
L 711.439163 244.870476 
L 711.439163 244.458632 
L 712.59009 244.458632 
L 712.59009 244.046787 
L 713.741017 244.046787 
L 713.741017 244.458632 
L 718.344725 244.561593 
L 718.344725 244.870476 
L 725.250287 244.870476 
L 725.250287 244.664554 
L 726.401214 244.664554 
L 726.401214 245.076399 
L 731.004922 244.973437 
L 731.004922 245.385282 
L 732.155849 245.385282 
L 732.155849 244.973437 
L 734.457703 245.076399 
L 734.457703 244.561593 
L 735.60863 244.561593 
L 735.60863 245.282321 
L 736.759557 245.282321 
L 736.759557 244.767515 
L 737.910484 244.767515 
L 737.910484 245.076399 
L 739.061411 245.076399 
L 739.061411 245.385282 
L 741.363265 245.385282 
L 741.363265 245.17936 
L 742.514192 245.17936 
L 742.514192 244.870476 
L 743.665119 244.870476 
L 743.665119 245.385282 
L 744.816046 245.385282 
L 744.816046 245.17936 
L 749.419754 245.282321 
L 749.419754 245.385282 
L 756.325317 245.282321 
L 756.325317 245.591205 
L 758.627171 245.591205 
L 758.627171 245.282321 
L 759.778098 245.282321 
L 759.778098 245.488243 
L 760.929025 245.488243 
L 760.929025 245.17936 
L 762.079952 245.17936 
L 762.079952 245.488243 
L 764.381806 245.488243 
L 764.381806 244.973437 
L 765.532733 244.973437 
L 765.532733 245.488243 
L 767.834587 245.488243 
L 767.834587 245.282321 
L 768.985514 245.282321 
L 768.985514 245.694166 
L 770.136441 245.694166 
L 770.136441 245.17936 
L 771.287368 245.17936 
L 771.287368 245.694166 
L 773.589222 245.591205 
L 773.589222 245.385282 
L 774.740149 245.385282 
L 774.740149 245.591205 
L 782.796638 245.591205 
L 782.796638 245.385282 
L 785.098492 245.488243 
L 785.098492 245.076399 
L 786.249419 245.076399 
L 786.249419 245.591205 
L 794.305908 245.591205 
L 794.305908 245.385282 
L 795.456836 245.385282 
L 795.456836 245.797127 
L 796.607763 245.797127 
L 796.607763 245.591205 
L 800.060544 245.488243 
L 800.060544 245.385282 
L 801.211471 245.385282 
L 801.211471 245.591205 
L 803.513325 245.488243 
L 803.513325 245.385282 
L 805.815179 245.488243 
L 805.815179 245.797127 
L 806.966106 245.797127 
L 806.966106 245.591205 
L 811.569814 245.591205 
L 811.569814 245.797127 
L 818.475376 245.694166 
L 818.475376 245.591205 
L 819.626303 245.591205 
L 819.626303 245.797127 
L 820.77723 245.797127 
L 820.77723 245.488243 
L 821.928157 245.488243 
L 821.928157 245.694166 
L 828.833719 245.797127 
L 828.833719 245.488243 
L 833.437427 245.591205 
L 833.437427 245.797127 
L 836.890208 245.797127 
L 836.890208 245.591205 
L 840.34299 245.694166 
L 840.34299 245.797127 
L 846.097625 245.694166 
L 846.097625 245.694166 
" clip-path="url(#p858fc89038)" style="fill: none; stroke: #2ca02c; stroke-width: 1.5; stroke-linecap: square"/>
   </g>
   <g id="patch_9">
    <path d="M 483.466635 257.158895 
L 483.466635 7.2 
" style="fill: none; stroke: #000000; stroke-width: 0.8; stroke-linejoin: miter; stroke-linecap: square"/>
   </g>
   <g id="patch_10">
    <path d="M 865.19952 257.158895 
L 865.19952 7.2 
" style="fill: none; stroke: #000000; stroke-width: 0.8; stroke-linejoin: miter; stroke-linecap: square"/>
   </g>
   <g id="patch_11">
    <path d="M 483.466635 257.158895 
L 865.19952 257.158895 
" style="fill: none; stroke: #000000; stroke-width: 0.8; stroke-linejoin: miter; stroke-linecap: square"/>
   </g>
   <g id="patch_12">
    <path d="M 483.466635 7.2 
L 865.19952 7.2 
" style="fill: none; stroke: #000000; stroke-width: 0.8; stroke-linejoin: miter; stroke-linecap: square"/>
   </g>
   <g id="legend_2">
    <g id="patch_13">
     <path d="M 789.641707 59.234375 
L 858.19952 59.234375 
Q 860.19952 59.234375 860.19952 57.234375 
L 860.19952 14.2 
Q 860.19952 12.2 858.19952 12.2 
L 789.641707 12.2 
Q 787.641707 12.2 787.641707 14.2 
L 787.641707 57.234375 
Q 787.641707 59.234375 789.641707 59.234375 
z
" style="fill: #ffffff; opacity: 0.8; stroke: #cccccc; stroke-linejoin: miter"/>
    </g>
    <g id="line2d_39">
     <path d="M 791.641707 20.298437 
L 791.641707 20.298437 
L 801.641707 20.298437 
L 801.641707 20.298437 
L 811.641707 20.298437 
" style="fill: none; stroke: #1f77b4; stroke-width: 1.5; stroke-linecap: square"/>
    </g>
    <g id="text_37">
     <!-- pulse:0 -->
     <g transform="translate(819.641707 23.798437) scale(0.1 -0.1)">
      <use xlink:href="#DejaVuSans-70"/>
      <use xlink:href="#DejaVuSans-75" transform="translate(63.476562 0)"/>
      <use xlink:href="#DejaVuSans-6c" transform="translate(126.855469 0)"/>
      <use xlink:href="#DejaVuSans-73" transform="translate(154.638672 0)"/>
      <use xlink:href="#DejaVuSans-65" transform="translate(206.738281 0)"/>
      <use xlink:href="#DejaVuSans-3a" transform="translate(268.261719 0)"/>
      <use xlink:href="#DejaVuSans-30" transform="translate(301.953125 0)"/>
     </g>
    </g>
    <g id="line2d_40">
     <path d="M 791.641707 34.976562 
L 791.641707 34.976562 
L 801.641707 34.976562 
L 801.641707 34.976562 
L 811.641707 34.976562 
" style="fill: none; stroke: #ff7f0e; stroke-width: 1.5; stroke-linecap: square"/>
    </g>
    <g id="text_38">
     <!-- pulse:1 -->
     <g transform="translate(819.641707 38.476562) scale(0.1 -0.1)">
      <use xlink:href="#DejaVuSans-70"/>
      <use xlink:href="#DejaVuSans-75" transform="translate(63.476562 0)"/>
      <use xlink:href="#DejaVuSans-6c" transform="translate(126.855469 0)"/>
      <use xlink:href="#DejaVuSans-73" transform="translate(154.638672 0)"/>
      <use xlink:href="#DejaVuSans-65" transform="translate(206.738281 0)"/>
      <use xlink:href="#DejaVuSans-3a" transform="translate(268.261719 0)"/>
      <use xlink:href="#DejaVuSans-31" transform="translate(301.953125 0)"/>
     </g>
    </g>
    <g id="line2d_41">
     <path d="M 791.641707 49.654687 
L 791.641707 49.654687 
L 801.641707 49.654687 
L 801.641707 49.654687 
L 811.641707 49.654687 
" style="fill: none; stroke: #2ca02c; stroke-width: 1.5; stroke-linecap: square"/>
    </g>
    <g id="text_39">
     <!-- pulse:2 -->
     <g transform="translate(819.641707 53.154687) scale(0.1 -0.1)">
      <use xlink:href="#DejaVuSans-70"/>
      <use xlink:href="#DejaVuSans-75" transform="translate(63.476562 0)"/>
      <use xlink:href="#DejaVuSans-6c" transform="translate(126.855469 0)"/>
      <use xlink:href="#DejaVuSans-73" transform="translate(154.638672 0)"/>
      <use xlink:href="#DejaVuSans-65" transform="translate(206.738281 0)"/>
      <use xlink:href="#DejaVuSans-3a" transform="translate(268.261719 0)"/>
      <use xlink:href="#DejaVuSans-32" transform="translate(301.953125 0)"/>
     </g>
    </g>
   </g>
  </g>
 </g>
 <defs>
  <clipPath id="pa1dcf7d778">
   <rect x="46.965625" y="7.2" width="381.732885" height="249.958895"/>
  </clipPath>
  <clipPath id="p858fc89038">
   <rect x="483.466635" y="7.2" width="381.732885" height="249.958895"/>
  </clipPath>
 </defs>
</svg>
