<?xml version="1.0" encoding="utf-8" standalone="no"?>
<!DOCTYPE svg PUBLIC "-//W3C//DTD SVG 1.1//EN"
  "http://www.w3.org/Graphics/SVG/1.1/DTD/svg11.dtd">
<svg xmlns:xlink="http://www.w3.org/1999/xlink" width="872.39952pt" height="296.39952pt" viewBox="0 0 872.39952 296.39952" xmlns="http://www.w3.org/2000/svg" version="1.1">
 <metadata>
  <rdf:RDF xmlns:dc="http://purl.org/dc/elements/1.1/" xmlns:cc="http://creativecommons.org/ns#" xmlns:rdf="http://www.w3.org/1999/02/22-rdf-syntax-ns#">
   <cc:Work>
    <dc:type rdf:resource="http://purl.org/dc/dcmitype/StillImage"/>
    <dc:date>2025-10-02T14:01:02.785001</dc:date>
    <dc:format>image/svg+xml</dc:format>
    <dc:creator>
     <cc:Agent>
      <dc:title>Matplotlib v3.10.1, https://matplotlib.org/</dc:title>
     </cc:Agent>
    </dc:creator>
   </cc:Work>
  </rdf:RDF>
 </metadata>
 <defs>
  <style type="text/css">*{stroke-linejoin: round; stroke-linecap: butt}</style>
 </defs>
 <g id="figure_1">
  <g id="patch_1">
   <path d="M 0 296.39952 
L 872.39952 296.39952 
L 872.39952 0 
L 0 0 
z
" style="fill: #ffffff"/>
  </g>
  <g id="axes_1">
   <g id="patch_2">
    <path d="M 53.328125 257.158895 
L 427.085656 257.158895 
L 427.085656 7.2 
L 53.328125 7.2 
z
" style="fill: #ffffff"/>
   </g>
   <g id="matplotlib.axis_1">
    <g id="xtick_1">
     <g id="line2d_1">
      <defs>
       <path id="m18245661ac" d="M 0 0 
L 0 3.5 
" style="stroke: #000000; stroke-width: 0.8"/>
      </defs>
      <g>
       <use xlink:href="#m18245661ac" x="57.490674" y="257.158895" style="stroke: #000000; stroke-width: 0.8"/>
      </g>
     </g>
     <g id="text_1">
      <!-- 0 -->
      <g transform="translate(54.309424 271.757332) scale(0.1 -0.1)">
       <defs>
        <path id="DejaVuSans-30" d="M 2034 4250 
Q 1547 4250 1301 3770 
Q 1056 3291 1056 2328 
Q 1056 1369 1301 889 
Q 1547 409 2034 409 
Q 2525 409 2770 889 
Q 3016 1369 3016 2328 
Q 3016 3291 2770 3770 
Q 2525 4250 2034 4250 
z
M 2034 4750 
Q 2819 4750 3233 4129 
Q 3647 3509 3647 2328 
Q 3647 1150 3233 529 
Q 2819 -91 2034 -91 
Q 1250 -91 836 529 
Q 422 1150 422 2328 
Q 422 3509 836 4129 
Q 1250 4750 2034 4750 
z
" transform="scale(0.015625)"/>
       </defs>
       <use xlink:href="#DejaVuSans-30"/>
      </g>
     </g>
    </g>
    <g id="xtick_2">
     <g id="line2d_2">
      <g>
       <use xlink:href="#m18245661ac" x="102.899058" y="257.158895" style="stroke: #000000; stroke-width: 0.8"/>
      </g>
     </g>
     <g id="text_2">
      <!-- 2000 -->
      <g transform="translate(90.174058 271.757332) scale(0.1 -0.1)">
       <defs>
        <path id="DejaVuSans-32" d="M 1228 531 
L 3431 531 
L 3431 0 
L 469 0 
L 469 531 
Q 828 903 1448 1529 
Q 2069 2156 2228 2338 
Q 2531 2678 2651 2914 
Q 2772 3150 2772 3378 
Q 2772 3750 2511 3984 
Q 2250 4219 1831 4219 
Q 1534 4219 1204 4116 
Q 875 4013 500 3803 
L 500 4441 
Q 881 4594 1212 4672 
Q 1544 4750 1819 4750 
Q 2544 4750 2975 4387 
Q 3406 4025 3406 3419 
Q 3406 3131 3298 2873 
Q 3191 2616 2906 2266 
Q 2828 2175 2409 1742 
Q 1991 1309 1228 531 
z
" transform="scale(0.015625)"/>
       </defs>
       <use xlink:href="#DejaVuSans-32"/>
       <use xlink:href="#DejaVuSans-30" transform="translate(63.623047 0)"/>
       <use xlink:href="#DejaVuSans-30" transform="translate(127.246094 0)"/>
       <use xlink:href="#DejaVuSans-30" transform="translate(190.869141 0)"/>
      </g>
     </g>
    </g>
    <g id="xtick_3">
     <g id="line2d_3">
      <g>
       <use xlink:href="#m18245661ac" x="148.307443" y="257.158895" style="stroke: #000000; stroke-width: 0.8"/>
      </g>
     </g>
     <g id="text_3">
      <!-- 4000 -->
      <g transform="translate(135.582443 271.757332) scale(0.1 -0.1)">
       <defs>
        <path id="DejaVuSans-34" d="M 2419 4116 
L 825 1625 
L 2419 1625 
L 2419 4116 
z
M 2253 4666 
L 3047 4666 
L 3047 1625 
L 3713 1625 
L 3713 1100 
L 3047 1100 
L 3047 0 
L 2419 0 
L 2419 1100 
L 313 1100 
L 313 1709 
L 2253 4666 
z
" transform="scale(0.015625)"/>
       </defs>
       <use xlink:href="#DejaVuSans-34"/>
       <use xlink:href="#DejaVuSans-30" transform="translate(63.623047 0)"/>
       <use xlink:href="#DejaVuSans-30" transform="translate(127.246094 0)"/>
       <use xlink:href="#DejaVuSans-30" transform="translate(190.869141 0)"/>
      </g>
     </g>
    </g>
    <g id="xtick_4">
     <g id="line2d_4">
      <g>
       <use xlink:href="#m18245661ac" x="193.715828" y="257.158895" style="stroke: #000000; stroke-width: 0.8"/>
      </g>
     </g>
     <g id="text_4">
      <!-- 6000 -->
      <g transform="translate(180.990828 271.757332) scale(0.1 -0.1)">
       <defs>
        <path id="DejaVuSans-36" d="M 2113 2584 
Q 1688 2584 1439 2293 
Q 1191 2003 1191 1497 
Q 1191 994 1439 701 
Q 1688 409 2113 409 
Q 2538 409 2786 701 
Q 3034 994 3034 1497 
Q 3034 2003 2786 2293 
Q 2538 2584 2113 2584 
z
M 3366 4563 
L 3366 3988 
Q 3128 4100 2886 4159 
Q 2644 4219 2406 4219 
Q 1781 4219 1451 3797 
Q 1122 3375 1075 2522 
Q 1259 2794 1537 2939 
Q 1816 3084 2150 3084 
Q 2853 3084 3261 2657 
Q 3669 2231 3669 1497 
Q 3669 778 3244 343 
Q 2819 -91 2113 -91 
Q 1303 -91 875 529 
Q 447 1150 447 2328 
Q 447 3434 972 4092 
Q 1497 4750 2381 4750 
Q 2619 4750 2861 4703 
Q 3103 4656 3366 4563 
z
" transform="scale(0.015625)"/>
       </defs>
       <use xlink:href="#DejaVuSans-36"/>
       <use xlink:href="#DejaVuSans-30" transform="translate(63.623047 0)"/>
       <use xlink:href="#DejaVuSans-30" transform="translate(127.246094 0)"/>
       <use xlink:href="#DejaVuSans-30" transform="translate(190.869141 0)"/>
      </g>
     </g>
    </g>
    <g id="xtick_5">
     <g id="line2d_5">
      <g>
       <use xlink:href="#m18245661ac" x="239.124213" y="257.158895" style="stroke: #000000; stroke-width: 0.8"/>
      </g>
     </g>
     <g id="text_5">
      <!-- 8000 -->
      <g transform="translate(226.399213 271.757332) scale(0.1 -0.1)">
       <defs>
        <path id="DejaVuSans-38" d="M 2034 2216 
Q 1584 2216 1326 1975 
Q 1069 1734 1069 1313 
Q 1069 891 1326 650 
Q 1584 409 2034 409 
Q 2484 409 2743 651 
Q 3003 894 3003 1313 
Q 3003 1734 2745 1975 
Q 2488 2216 2034 2216 
z
M 1403 2484 
Q 997 2584 770 2862 
Q 544 3141 544 3541 
Q 544 4100 942 4425 
Q 1341 4750 2034 4750 
Q 2731 4750 3128 4425 
Q 3525 4100 3525 3541 
Q 3525 3141 3298 2862 
Q 3072 2584 2669 2484 
Q 3125 2378 3379 2068 
Q 3634 1759 3634 1313 
Q 3634 634 3220 271 
Q 2806 -91 2034 -91 
Q 1263 -91 848 271 
Q 434 634 434 1313 
Q 434 1759 690 2068 
Q 947 2378 1403 2484 
z
M 1172 3481 
Q 1172 3119 1398 2916 
Q 1625 2713 2034 2713 
Q 2441 2713 2670 2916 
Q 2900 3119 2900 3481 
Q 2900 3844 2670 4047 
Q 2441 4250 2034 4250 
Q 1625 4250 1398 4047 
Q 1172 3844 1172 3481 
z
" transform="scale(0.015625)"/>
       </defs>
       <use xlink:href="#DejaVuSans-38"/>
       <use xlink:href="#DejaVuSans-30" transform="translate(63.623047 0)"/>
       <use xlink:href="#DejaVuSans-30" transform="translate(127.246094 0)"/>
       <use xlink:href="#DejaVuSans-30" transform="translate(190.869141 0)"/>
      </g>
     </g>
    </g>
    <g id="xtick_6">
     <g id="line2d_6">
      <g>
       <use xlink:href="#m18245661ac" x="284.532598" y="257.158895" style="stroke: #000000; stroke-width: 0.8"/>
      </g>
     </g>
     <g id="text_6">
      <!-- 10000 -->
      <g transform="translate(268.626348 271.757332) scale(0.1 -0.1)">
       <defs>
        <path id="DejaVuSans-31" d="M 794 531 
L 1825 531 
L 1825 4091 
L 703 3866 
L 703 4441 
L 1819 4666 
L 2450 4666 
L 2450 531 
L 3481 531 
L 3481 0 
L 794 0 
L 794 531 
z
" transform="scale(0.015625)"/>
       </defs>
       <use xlink:href="#DejaVuSans-31"/>
       <use xlink:href="#DejaVuSans-30" transform="translate(63.623047 0)"/>
       <use xlink:href="#DejaVuSans-30" transform="translate(127.246094 0)"/>
       <use xlink:href="#DejaVuSans-30" transform="translate(190.869141 0)"/>
       <use xlink:href="#DejaVuSans-30" transform="translate(254.492188 0)"/>
      </g>
     </g>
    </g>
    <g id="xtick_7">
     <g id="line2d_7">
      <g>
       <use xlink:href="#m18245661ac" x="329.940983" y="257.158895" style="stroke: #000000; stroke-width: 0.8"/>
      </g>
     </g>
     <g id="text_7">
      <!-- 12000 -->
      <g transform="translate(314.034733 271.757332) scale(0.1 -0.1)">
       <use xlink:href="#DejaVuSans-31"/>
       <use xlink:href="#DejaVuSans-32" transform="translate(63.623047 0)"/>
       <use xlink:href="#DejaVuSans-30" transform="translate(127.246094 0)"/>
       <use xlink:href="#DejaVuSans-30" transform="translate(190.869141 0)"/>
       <use xlink:href="#DejaVuSans-30" transform="translate(254.492188 0)"/>
      </g>
     </g>
    </g>
    <g id="xtick_8">
     <g id="line2d_8">
      <g>
       <use xlink:href="#m18245661ac" x="375.349367" y="257.158895" style="stroke: #000000; stroke-width: 0.8"/>
      </g>
     </g>
     <g id="text_8">
      <!-- 14000 -->
      <g transform="translate(359.443117 271.757332) scale(0.1 -0.1)">
       <use xlink:href="#DejaVuSans-31"/>
       <use xlink:href="#DejaVuSans-34" transform="translate(63.623047 0)"/>
       <use xlink:href="#DejaVuSans-30" transform="translate(127.246094 0)"/>
       <use xlink:href="#DejaVuSans-30" transform="translate(190.869141 0)"/>
       <use xlink:href="#DejaVuSans-30" transform="translate(254.492188 0)"/>
      </g>
     </g>
    </g>
    <g id="xtick_9">
     <g id="line2d_9">
      <g>
       <use xlink:href="#m18245661ac" x="420.757752" y="257.158895" style="stroke: #000000; stroke-width: 0.8"/>
      </g>
     </g>
     <g id="text_9">
      <!-- 16000 -->
      <g transform="translate(404.851502 271.757332) scale(0.1 -0.1)">
       <use xlink:href="#DejaVuSans-31"/>
       <use xlink:href="#DejaVuSans-36" transform="translate(63.623047 0)"/>
       <use xlink:href="#DejaVuSans-30" transform="translate(127.246094 0)"/>
       <use xlink:href="#DejaVuSans-30" transform="translate(190.869141 0)"/>
       <use xlink:href="#DejaVuSans-30" transform="translate(254.492188 0)"/>
      </g>
     </g>
    </g>
    <g id="text_10">
     <!-- birth_time [µs] -->
     <g transform="translate(203.386578 285.435457) scale(0.1 -0.1)">
      <defs>
       <path id="DejaVuSans-62" d="M 3116 1747 
Q 3116 2381 2855 2742 
Q 2594 3103 2138 3103 
Q 1681 3103 1420 2742 
Q 1159 2381 1159 1747 
Q 1159 1113 1420 752 
Q 1681 391 2138 391 
Q 2594 391 2855 752 
Q 3116 1113 3116 1747 
z
M 1159 2969 
Q 1341 3281 1617 3432 
Q 1894 3584 2278 3584 
Q 2916 3584 3314 3078 
Q 3713 2572 3713 1747 
Q 3713 922 3314 415 
Q 2916 -91 2278 -91 
Q 1894 -91 1617 61 
Q 1341 213 1159 525 
L 1159 0 
L 581 0 
L 581 4863 
L 1159 4863 
L 1159 2969 
z
" transform="scale(0.015625)"/>
       <path id="DejaVuSans-69" d="M 603 3500 
L 1178 3500 
L 1178 0 
L 603 0 
L 603 3500 
z
M 603 4863 
L 1178 4863 
L 1178 4134 
L 603 4134 
L 603 4863 
z
" transform="scale(0.015625)"/>
       <path id="DejaVuSans-72" d="M 2631 2963 
Q 2534 3019 2420 3045 
Q 2306 3072 2169 3072 
Q 1681 3072 1420 2755 
Q 1159 2438 1159 1844 
L 1159 0 
L 581 0 
L 581 3500 
L 1159 3500 
L 1159 2956 
Q 1341 3275 1631 3429 
Q 1922 3584 2338 3584 
Q 2397 3584 2469 3576 
Q 2541 3569 2628 3553 
L 2631 2963 
z
" transform="scale(0.015625)"/>
       <path id="DejaVuSans-74" d="M 1172 4494 
L 1172 3500 
L 2356 3500 
L 2356 3053 
L 1172 3053 
L 1172 1153 
Q 1172 725 1289 603 
Q 1406 481 1766 481 
L 2356 481 
L 2356 0 
L 1766 0 
Q 1100 0 847 248 
Q 594 497 594 1153 
L 594 3053 
L 172 3053 
L 172 3500 
L 594 3500 
L 594 4494 
L 1172 4494 
z
" transform="scale(0.015625)"/>
       <path id="DejaVuSans-68" d="M 3513 2113 
L 3513 0 
L 2938 0 
L 2938 2094 
Q 2938 2591 2744 2837 
Q 2550 3084 2163 3084 
Q 1697 3084 1428 2787 
Q 1159 2491 1159 1978 
L 1159 0 
L 581 0 
L 581 4863 
L 1159 4863 
L 1159 2956 
Q 1366 3272 1645 3428 
Q 1925 3584 2291 3584 
Q 2894 3584 3203 3211 
Q 3513 2838 3513 2113 
z
" transform="scale(0.015625)"/>
       <path id="DejaVuSans-5f" d="M 3263 -1063 
L 3263 -1509 
L -63 -1509 
L -63 -1063 
L 3263 -1063 
z
" transform="scale(0.015625)"/>
       <path id="DejaVuSans-6d" d="M 3328 2828 
Q 3544 3216 3844 3400 
Q 4144 3584 4550 3584 
Q 5097 3584 5394 3201 
Q 5691 2819 5691 2113 
L 5691 0 
L 5113 0 
L 5113 2094 
Q 5113 2597 4934 2840 
Q 4756 3084 4391 3084 
Q 3944 3084 3684 2787 
Q 3425 2491 3425 1978 
L 3425 0 
L 2847 0 
L 2847 2094 
Q 2847 2600 2669 2842 
Q 2491 3084 2119 3084 
Q 1678 3084 1418 2786 
Q 1159 2488 1159 1978 
L 1159 0 
L 581 0 
L 581 3500 
L 1159 3500 
L 1159 2956 
Q 1356 3278 1631 3431 
Q 1906 3584 2284 3584 
Q 2666 3584 2933 3390 
Q 3200 3197 3328 2828 
z
" transform="scale(0.015625)"/>
       <path id="DejaVuSans-65" d="M 3597 1894 
L 3597 1613 
L 953 1613 
Q 991 1019 1311 708 
Q 1631 397 2203 397 
Q 2534 397 2845 478 
Q 3156 559 3463 722 
L 3463 178 
Q 3153 47 2828 -22 
Q 2503 -91 2169 -91 
Q 1331 -91 842 396 
Q 353 884 353 1716 
Q 353 2575 817 3079 
Q 1281 3584 2069 3584 
Q 2775 3584 3186 3129 
Q 3597 2675 3597 1894 
z
M 3022 2063 
Q 3016 2534 2758 2815 
Q 2500 3097 2075 3097 
Q 1594 3097 1305 2825 
Q 1016 2553 972 2059 
L 3022 2063 
z
" transform="scale(0.015625)"/>
       <path id="DejaVuSans-20" transform="scale(0.015625)"/>
       <path id="DejaVuSans-5b" d="M 550 4863 
L 1875 4863 
L 1875 4416 
L 1125 4416 
L 1125 -397 
L 1875 -397 
L 1875 -844 
L 550 -844 
L 550 4863 
z
" transform="scale(0.015625)"/>
       <path id="DejaVuSans-b5" d="M 544 -1331 
L 544 3500 
L 1119 3500 
L 1119 1325 
Q 1119 872 1334 640 
Q 1550 409 1972 409 
Q 2434 409 2667 671 
Q 2900 934 2900 1459 
L 2900 3500 
L 3475 3500 
L 3475 806 
Q 3475 619 3529 530 
Q 3584 441 3700 441 
Q 3728 441 3778 458 
Q 3828 475 3916 513 
L 3916 50 
Q 3788 -22 3673 -56 
Q 3559 -91 3450 -91 
Q 3234 -91 3106 31 
Q 2978 153 2931 403 
Q 2775 156 2548 32 
Q 2322 -91 2016 -91 
Q 1697 -91 1473 31 
Q 1250 153 1119 397 
L 1119 -1331 
L 544 -1331 
z
" transform="scale(0.015625)"/>
       <path id="DejaVuSans-73" d="M 2834 3397 
L 2834 2853 
Q 2591 2978 2328 3040 
Q 2066 3103 1784 3103 
Q 1356 3103 1142 2972 
Q 928 2841 928 2578 
Q 928 2378 1081 2264 
Q 1234 2150 1697 2047 
L 1894 2003 
Q 2506 1872 2764 1633 
Q 3022 1394 3022 966 
Q 3022 478 2636 193 
Q 2250 -91 1575 -91 
Q 1294 -91 989 -36 
Q 684 19 347 128 
L 347 722 
Q 666 556 975 473 
Q 1284 391 1588 391 
Q 1994 391 2212 530 
Q 2431 669 2431 922 
Q 2431 1156 2273 1281 
Q 2116 1406 1581 1522 
L 1381 1569 
Q 847 1681 609 1914 
Q 372 2147 372 2553 
Q 372 3047 722 3315 
Q 1072 3584 1716 3584 
Q 2034 3584 2315 3537 
Q 2597 3491 2834 3397 
z
" transform="scale(0.015625)"/>
       <path id="DejaVuSans-5d" d="M 1947 4863 
L 1947 -844 
L 622 -844 
L 622 -397 
L 1369 -397 
L 1369 4416 
L 622 4416 
L 622 4863 
L 1947 4863 
z
" transform="scale(0.015625)"/>
      </defs>
      <use xlink:href="#DejaVuSans-62"/>
      <use xlink:href="#DejaVuSans-69" transform="translate(63.476562 0)"/>
      <use xlink:href="#DejaVuSans-72" transform="translate(91.259766 0)"/>
      <use xlink:href="#DejaVuSans-74" transform="translate(132.373047 0)"/>
      <use xlink:href="#DejaVuSans-68" transform="translate(171.582031 0)"/>
      <use xlink:href="#DejaVuSans-5f" transform="translate(234.960938 0)"/>
      <use xlink:href="#DejaVuSans-74" transform="translate(284.960938 0)"/>
      <use xlink:href="#DejaVuSans-69" transform="translate(324.169922 0)"/>
      <use xlink:href="#DejaVuSans-6d" transform="translate(351.953125 0)"/>
      <use xlink:href="#DejaVuSans-65" transform="translate(449.365234 0)"/>
      <use xlink:href="#DejaVuSans-20" transform="translate(510.888672 0)"/>
      <use xlink:href="#DejaVuSans-5b" transform="translate(542.675781 0)"/>
      <use xlink:href="#DejaVuSans-b5" transform="translate(581.689453 0)"/>
      <use xlink:href="#DejaVuSans-73" transform="translate(645.3125 0)"/>
      <use xlink:href="#DejaVuSans-5d" transform="translate(697.412109 0)"/>
     </g>
    </g>
   </g>
   <g id="matplotlib.axis_2">
    <g id="ytick_1">
     <g id="line2d_10">
      <defs>
       <path id="mb2c0b48d02" d="M 0 0 
L -3.5 0 
" style="stroke: #000000; stroke-width: 0.8"/>
      </defs>
      <g>
       <use xlink:href="#mb2c0b48d02" x="53.328125" y="246.608682" style="stroke: #000000; stroke-width: 0.8"/>
      </g>
     </g>
     <g id="text_11">
      <!-- 0 -->
      <g transform="translate(39.965625 250.407901) scale(0.1 -0.1)">
       <use xlink:href="#DejaVuSans-30"/>
      </g>
     </g>
    </g>
    <g id="ytick_2">
     <g id="line2d_11">
      <g>
       <use xlink:href="#mb2c0b48d02" x="53.328125" y="214.146488" style="stroke: #000000; stroke-width: 0.8"/>
      </g>
     </g>
     <g id="text_12">
      <!-- 200 -->
      <g transform="translate(27.240625 217.945706) scale(0.1 -0.1)">
       <use xlink:href="#DejaVuSans-32"/>
       <use xlink:href="#DejaVuSans-30" transform="translate(63.623047 0)"/>
       <use xlink:href="#DejaVuSans-30" transform="translate(127.246094 0)"/>
      </g>
     </g>
    </g>
    <g id="ytick_3">
     <g id="line2d_12">
      <g>
       <use xlink:href="#mb2c0b48d02" x="53.328125" y="181.684294" style="stroke: #000000; stroke-width: 0.8"/>
      </g>
     </g>
     <g id="text_13">
      <!-- 400 -->
      <g transform="translate(27.240625 185.483512) scale(0.1 -0.1)">
       <use xlink:href="#DejaVuSans-34"/>
       <use xlink:href="#DejaVuSans-30" transform="translate(63.623047 0)"/>
       <use xlink:href="#DejaVuSans-30" transform="translate(127.246094 0)"/>
      </g>
     </g>
    </g>
    <g id="ytick_4">
     <g id="line2d_13">
      <g>
       <use xlink:href="#mb2c0b48d02" x="53.328125" y="149.222099" style="stroke: #000000; stroke-width: 0.8"/>
      </g>
     </g>
     <g id="text_14">
      <!-- 600 -->
      <g transform="translate(27.240625 153.021318) scale(0.1 -0.1)">
       <use xlink:href="#DejaVuSans-36"/>
       <use xlink:href="#DejaVuSans-30" transform="translate(63.623047 0)"/>
       <use xlink:href="#DejaVuSans-30" transform="translate(127.246094 0)"/>
      </g>
     </g>
    </g>
    <g id="ytick_5">
     <g id="line2d_14">
      <g>
       <use xlink:href="#mb2c0b48d02" x="53.328125" y="116.759905" style="stroke: #000000; stroke-width: 0.8"/>
      </g>
     </g>
     <g id="text_15">
      <!-- 800 -->
      <g transform="translate(27.240625 120.559124) scale(0.1 -0.1)">
       <use xlink:href="#DejaVuSans-38"/>
       <use xlink:href="#DejaVuSans-30" transform="translate(63.623047 0)"/>
       <use xlink:href="#DejaVuSans-30" transform="translate(127.246094 0)"/>
      </g>
     </g>
    </g>
    <g id="ytick_6">
     <g id="line2d_15">
      <g>
       <use xlink:href="#mb2c0b48d02" x="53.328125" y="84.297711" style="stroke: #000000; stroke-width: 0.8"/>
      </g>
     </g>
     <g id="text_16">
      <!-- 1000 -->
      <g transform="translate(20.878125 88.09693) scale(0.1 -0.1)">
       <use xlink:href="#DejaVuSans-31"/>
       <use xlink:href="#DejaVuSans-30" transform="translate(63.623047 0)"/>
       <use xlink:href="#DejaVuSans-30" transform="translate(127.246094 0)"/>
       <use xlink:href="#DejaVuSans-30" transform="translate(190.869141 0)"/>
      </g>
     </g>
    </g>
    <g id="ytick_7">
     <g id="line2d_16">
      <g>
       <use xlink:href="#mb2c0b48d02" x="53.328125" y="51.835517" style="stroke: #000000; stroke-width: 0.8"/>
      </g>
     </g>
     <g id="text_17">
      <!-- 1200 -->
      <g transform="translate(20.878125 55.634736) scale(0.1 -0.1)">
       <use xlink:href="#DejaVuSans-31"/>
       <use xlink:href="#DejaVuSans-32" transform="translate(63.623047 0)"/>
       <use xlink:href="#DejaVuSans-30" transform="translate(127.246094 0)"/>
       <use xlink:href="#DejaVuSans-30" transform="translate(190.869141 0)"/>
      </g>
     </g>
    </g>
    <g id="ytick_8">
     <g id="line2d_17">
      <g>
       <use xlink:href="#mb2c0b48d02" x="53.328125" y="19.373323" style="stroke: #000000; stroke-width: 0.8"/>
      </g>
     </g>
     <g id="text_18">
      <!-- 1400 -->
      <g transform="translate(20.878125 23.172542) scale(0.1 -0.1)">
       <use xlink:href="#DejaVuSans-31"/>
       <use xlink:href="#DejaVuSans-34" transform="translate(63.623047 0)"/>
       <use xlink:href="#DejaVuSans-30" transform="translate(127.246094 0)"/>
       <use xlink:href="#DejaVuSans-30" transform="translate(190.869141 0)"/>
      </g>
     </g>
    </g>
    <g id="text_19">
     <!-- [counts] -->
     <g transform="translate(14.798438 152.791947) rotate(-90) scale(0.1 -0.1)">
      <defs>
       <path id="DejaVuSans-63" d="M 3122 3366 
L 3122 2828 
Q 2878 2963 2633 3030 
Q 2388 3097 2138 3097 
Q 1578 3097 1268 2742 
Q 959 2388 959 1747 
Q 959 1106 1268 751 
Q 1578 397 2138 397 
Q 2388 397 2633 464 
Q 2878 531 3122 666 
L 3122 134 
Q 2881 22 2623 -34 
Q 2366 -91 2075 -91 
Q 1284 -91 818 406 
Q 353 903 353 1747 
Q 353 2603 823 3093 
Q 1294 3584 2113 3584 
Q 2378 3584 2631 3529 
Q 2884 3475 3122 3366 
z
" transform="scale(0.015625)"/>
       <path id="DejaVuSans-6f" d="M 1959 3097 
Q 1497 3097 1228 2736 
Q 959 2375 959 1747 
Q 959 1119 1226 758 
Q 1494 397 1959 397 
Q 2419 397 2687 759 
Q 2956 1122 2956 1747 
Q 2956 2369 2687 2733 
Q 2419 3097 1959 3097 
z
M 1959 3584 
Q 2709 3584 3137 3096 
Q 3566 2609 3566 1747 
Q 3566 888 3137 398 
Q 2709 -91 1959 -91 
Q 1206 -91 779 398 
Q 353 888 353 1747 
Q 353 2609 779 3096 
Q 1206 3584 1959 3584 
z
" transform="scale(0.015625)"/>
       <path id="DejaVuSans-75" d="M 544 1381 
L 544 3500 
L 1119 3500 
L 1119 1403 
Q 1119 906 1312 657 
Q 1506 409 1894 409 
Q 2359 409 2629 706 
Q 2900 1003 2900 1516 
L 2900 3500 
L 3475 3500 
L 3475 0 
L 2900 0 
L 2900 538 
Q 2691 219 2414 64 
Q 2138 -91 1772 -91 
Q 1169 -91 856 284 
Q 544 659 544 1381 
z
M 1991 3584 
L 1991 3584 
z
" transform="scale(0.015625)"/>
       <path id="DejaVuSans-6e" d="M 3513 2113 
L 3513 0 
L 2938 0 
L 2938 2094 
Q 2938 2591 2744 2837 
Q 2550 3084 2163 3084 
Q 1697 3084 1428 2787 
Q 1159 2491 1159 1978 
L 1159 0 
L 581 0 
L 581 3500 
L 1159 3500 
L 1159 2956 
Q 1366 3272 1645 3428 
Q 1925 3584 2291 3584 
Q 2894 3584 3203 3211 
Q 3513 2838 3513 2113 
z
" transform="scale(0.015625)"/>
      </defs>
      <use xlink:href="#DejaVuSans-5b"/>
      <use xlink:href="#DejaVuSans-63" transform="translate(39.013672 0)"/>
      <use xlink:href="#DejaVuSans-6f" transform="translate(93.994141 0)"/>
      <use xlink:href="#DejaVuSans-75" transform="translate(155.175781 0)"/>
      <use xlink:href="#DejaVuSans-6e" transform="translate(218.554688 0)"/>
      <use xlink:href="#DejaVuSans-74" transform="translate(281.933594 0)"/>
      <use xlink:href="#DejaVuSans-73" transform="translate(321.142578 0)"/>
      <use xlink:href="#DejaVuSans-5d" transform="translate(373.242188 0)"/>
     </g>
    </g>
   </g>
   <g id="line2d_18">
    <path d="M 60.006821 243.849395 
L 60.897314 243.849395 
L 60.897314 242.550908 
L 61.34256 242.550908 
L 61.34256 241.090109 
L 61.787807 241.090109 
L 61.787807 238.655444 
L 62.233053 238.655444 
L 62.233053 237.519268 
L 62.6783 237.519268 
L 62.6783 236.383091 
L 63.123546 236.383091 
L 63.123546 233.299182 
L 63.568792 233.299182 
L 63.568792 233.461493 
L 64.014039 233.461493 
L 64.014039 231.676073 
L 64.459285 231.676073 
L 64.459285 233.948426 
L 64.904532 233.948426 
L 64.904532 230.702207 
L 65.349778 230.702207 
L 65.349778 227.94292 
L 65.795024 227.94292 
L 65.795024 229.241408 
L 66.240271 229.241408 
L 66.240271 220.963549 
L 66.685517 220.963549 
L 66.685517 223.398213 
L 67.130764 223.398213 
L 67.130764 223.073591 
L 67.57601 223.073591 
L 67.57601 222.262036 
L 68.021256 222.262036 
L 68.021256 220.314305 
L 68.466503 220.314305 
L 68.466503 218.528884 
L 68.911749 218.528884 
L 68.911749 215.769597 
L 69.356996 215.769597 
L 69.356996 209.114848 
L 69.802242 209.114848 
L 69.802242 212.036445 
L 70.247488 212.036445 
L 70.247488 215.931908 
L 70.692735 215.931908 
L 70.692735 212.361067 
L 71.137981 212.361067 
L 71.137981 210.737957 
L 71.583228 210.737957 
L 71.583228 210.251024 
L 72.028474 210.251024 
L 72.028474 204.407829 
L 72.47372 204.407829 
L 72.47372 208.952537 
L 72.918967 208.952537 
L 72.918967 200.999299 
L 73.364213 200.999299 
L 73.364213 201.486232 
L 73.80946 201.486232 
L 73.80946 201.16161 
L 74.254706 201.16161 
L 74.254706 203.271653 
L 74.699952 203.271653 
L 74.699952 195.318415 
L 75.145199 195.318415 
L 75.145199 199.376189 
L 75.590445 199.376189 
L 75.590445 193.695305 
L 76.035692 193.695305 
L 76.035692 198.077702 
L 76.480938 198.077702 
L 76.480938 186.391312 
L 76.926185 186.391312 
L 76.926185 191.260641 
L 77.371431 191.260641 
L 77.371431 190.611397 
L 77.816677 190.611397 
L 77.816677 185.742068 
L 78.261924 185.742068 
L 78.261924 188.825976 
L 78.70717 188.825976 
L 78.70717 188.501354 
L 79.152417 188.501354 
L 79.152417 178.113452 
L 79.597663 178.113452 
L 79.597663 185.092824 
L 80.042909 185.092824 
L 80.042909 183.956647 
L 80.488156 183.956647 
L 80.488156 183.632025 
L 80.933402 183.632025 
L 80.933402 175.841099 
L 81.378649 175.841099 
L 81.378649 176.00341 
L 81.823895 176.00341 
L 81.823895 178.438074 
L 82.269141 178.438074 
L 82.269141 177.301897 
L 82.714388 177.301897 
L 82.714388 174.867233 
L 83.159634 174.867233 
L 83.159634 171.13408 
L 83.604881 171.13408 
L 83.604881 171.783324 
L 84.050127 171.783324 
L 84.050127 164.803953 
L 84.495373 164.803953 
L 84.495373 169.997904 
L 84.94062 169.997904 
L 84.94062 159.123069 
L 85.385866 159.123069 
L 85.385866 162.856221 
L 85.831113 162.856221 
L 85.831113 161.395422 
L 86.276359 161.395422 
L 86.276359 162.856221 
L 86.721605 162.856221 
L 86.721605 164.31702 
L 87.166852 164.31702 
L 87.166852 150.033654 
L 87.612098 150.033654 
L 87.612098 153.442185 
L 88.057345 153.442185 
L 88.057345 155.876849 
L 88.502591 155.876849 
L 88.502591 152.955252 
L 88.947837 152.955252 
L 88.947837 155.876849 
L 89.393084 155.876849 
L 89.393084 151.819075 
L 89.83833 151.819075 
L 89.83833 144.515081 
L 90.283577 144.515081 
L 90.283577 151.332142 
L 90.728823 151.332142 
L 90.728823 148.735167 
L 91.17407 148.735167 
L 91.17407 146.949746 
L 91.619316 146.949746 
L 91.619316 149.709032 
L 92.064562 149.709032 
L 92.064562 145.651258 
L 92.509809 145.651258 
L 92.509809 137.048777 
L 92.955055 137.048777 
L 92.955055 132.504069 
L 93.400302 132.504069 
L 93.400302 138.509575 
L 93.845548 138.509575 
L 93.845548 140.781929 
L 94.290794 140.781929 
L 94.290794 134.451801 
L 94.736041 134.451801 
L 94.736041 133.640246 
L 95.181287 133.640246 
L 95.181287 132.179447 
L 95.626534 132.179447 
L 95.626534 127.797051 
L 96.07178 127.797051 
L 96.07178 129.582472 
L 96.517026 129.582472 
L 96.517026 128.933228 
L 96.962273 128.933228 
L 96.962273 127.147807 
L 97.407519 127.147807 
L 97.407519 122.440789 
L 97.852766 122.440789 
L 97.852766 122.278478 
L 98.298012 122.278478 
L 98.298012 119.681503 
L 98.743258 119.681503 
L 98.743258 127.310118 
L 99.188505 127.310118 
L 99.188505 120.330747 
L 99.633751 120.330747 
L 99.633751 118.220704 
L 100.078998 118.220704 
L 100.078998 111.079021 
L 100.524244 111.079021 
L 100.524244 110.754399 
L 100.96949 110.754399 
L 100.96949 107.995113 
L 101.414737 107.995113 
L 101.414737 103.775028 
L 101.859983 103.775028 
L 101.859983 107.832802 
L 102.30523 107.832802 
L 102.30523 110.267466 
L 102.750476 110.267466 
L 102.750476 110.592088 
L 103.195722 110.592088 
L 103.195722 98.581077 
L 103.640969 98.581077 
L 103.640969 104.424271 
L 104.086215 104.424271 
L 104.086215 111.241332 
L 104.531462 111.241332 
L 104.531462 100.366497 
L 105.421955 100.366497 
L 105.421955 100.691119 
L 105.867201 100.691119 
L 105.867201 101.178052 
L 106.312447 101.178052 
L 106.312447 98.256455 
L 106.757694 98.256455 
L 106.757694 93.874058 
L 107.20294 93.874058 
L 107.20294 88.680107 
L 107.648187 88.680107 
L 107.648187 96.633345 
L 108.093433 96.633345 
L 108.093433 87.868552 
L 108.538679 87.868552 
L 108.538679 91.114772 
L 108.983926 91.114772 
L 108.983926 85.271577 
L 109.429172 85.271577 
L 109.429172 71.312833 
L 109.874419 71.312833 
L 109.874419 76.182163 
L 110.319665 76.182163 
L 110.319665 78.454516 
L 110.764911 78.454516 
L 110.764911 89.653973 
L 111.210158 89.653973 
L 111.210158 79.753004 
L 111.655404 79.753004 
L 111.655404 82.187668 
L 112.100651 82.187668 
L 112.100651 84.297711 
L 112.545897 84.297711 
L 112.545897 69.527413 
L 112.991143 69.527413 
L 112.991143 78.454516 
L 113.43639 78.454516 
L 113.43639 74.559053 
L 113.881636 74.559053 
L 113.881636 74.07212 
L 114.326883 74.07212 
L 114.326883 71.962077 
L 114.772129 71.962077 
L 114.772129 65.145017 
L 115.217375 65.145017 
L 115.217375 63.359596 
L 115.662622 63.359596 
L 115.662622 65.145017 
L 116.107868 65.145017 
L 116.107868 54.594803 
L 116.553115 54.594803 
L 116.553115 53.620938 
L 116.998361 53.620938 
L 116.998361 59.139511 
L 117.443607 59.139511 
L 117.443607 61.411864 
L 117.888854 61.411864 
L 117.888854 61.898797 
L 118.3341 61.898797 
L 118.3341 52.971694 
L 118.779347 52.971694 
L 118.779347 51.510895 
L 119.224593 51.510895 
L 119.224593 57.841023 
L 119.66984 57.841023 
L 119.66984 54.270182 
L 120.115086 54.270182 
L 120.115086 50.050096 
L 120.560332 50.050096 
L 120.560332 51.673206 
L 121.005579 51.673206 
L 121.005579 43.719968 
L 121.450825 43.719968 
L 121.450825 48.751609 
L 121.896072 48.751609 
L 121.896072 44.369212 
L 122.341318 44.369212 
L 122.341318 51.186273 
L 122.786564 51.186273 
L 122.786564 32.195889 
L 123.231811 32.195889 
L 123.231811 43.557657 
L 123.677057 43.557657 
L 123.677057 34.792865 
L 124.122304 34.792865 
L 124.122304 34.630554 
L 124.56755 34.630554 
L 124.56755 40.960682 
L 125.012796 40.960682 
L 125.012796 44.369212 
L 125.458043 44.369212 
L 125.458043 31.546646 
L 125.903289 31.546646 
L 125.903289 32.682822 
L 126.348536 32.682822 
L 126.348536 33.818999 
L 126.793782 33.818999 
L 126.793782 23.268786 
L 127.239028 23.268786 
L 127.239028 18.561768 
L 127.684275 18.561768 
L 127.684275 32.195889 
L 128.129521 32.195889 
L 128.129521 27.975804 
L 128.574768 27.975804 
L 128.574768 31.871268 
L 129.020014 31.871268 
L 129.020014 44.369212 
L 129.46526 44.369212 
L 129.46526 32.845133 
L 129.910507 32.845133 
L 129.910507 46.316944 
L 130.355753 46.316944 
L 130.355753 38.526017 
L 130.801 38.526017 
L 130.801 43.233036 
L 131.246246 43.233036 
L 131.246246 44.369212 
L 131.691492 44.369212 
L 131.691492 45.343078 
L 132.136739 45.343078 
L 132.136739 52.160139 
L 132.581985 52.160139 
L 132.581985 49.400852 
L 133.027232 49.400852 
L 133.027232 54.432492 
L 133.472478 54.432492 
L 133.472478 53.458627 
L 133.917725 53.458627 
L 133.917725 60.76262 
L 134.362971 60.76262 
L 134.362971 56.542535 
L 134.808217 56.542535 
L 134.808217 53.458627 
L 135.253464 53.458627 
L 135.253464 71.962077 
L 135.69871 71.962077 
L 135.69871 59.951066 
L 136.143957 59.951066 
L 136.143957 54.757114 
L 136.589203 54.757114 
L 136.589203 62.38573 
L 137.034449 62.38573 
L 137.034449 61.574175 
L 137.479696 61.574175 
L 137.479696 62.872663 
L 137.924942 62.872663 
L 137.924942 69.527413 
L 138.370189 69.527413 
L 138.370189 69.365102 
L 138.815435 69.365102 
L 138.815435 70.501279 
L 139.260681 70.501279 
L 139.260681 78.616827 
L 139.705928 78.616827 
L 139.705928 75.045986 
L 140.151174 75.045986 
L 140.151174 66.768126 
L 140.596421 66.768126 
L 140.596421 80.077626 
L 141.041667 80.077626 
L 141.041667 73.260565 
L 141.486913 73.260565 
L 141.486913 77.156028 
L 141.93216 77.156028 
L 141.93216 85.271577 
L 142.377406 85.271577 
L 142.377406 86.732376 
L 142.822653 86.732376 
L 142.822653 76.019852 
L 143.267899 76.019852 
L 143.267899 74.559053 
L 143.713145 74.559053 
L 143.713145 83.323845 
L 144.158392 83.323845 
L 144.158392 91.114772 
L 144.603638 91.114772 
L 144.603638 93.062504 
L 145.048885 93.062504 
L 145.048885 91.764016 
L 145.494131 91.764016 
L 145.494131 98.905698 
L 145.939377 98.905698 
L 145.939377 95.497168 
L 146.384624 95.497168 
L 146.384624 96.471034 
L 146.82987 96.471034 
L 146.82987 102.47654 
L 147.275117 102.47654 
L 147.275117 107.345869 
L 147.720363 107.345869 
L 147.720363 93.711747 
L 148.16561 93.711747 
L 148.16561 103.125784 
L 148.610856 103.125784 
L 148.610856 102.963473 
L 149.056102 102.963473 
L 149.056102 113.189064 
L 149.501349 113.189064 
L 149.501349 110.754399 
L 149.946595 110.754399 
L 149.946595 107.995113 
L 150.391842 107.995113 
L 150.391842 103.612717 
L 150.837088 103.612717 
L 150.837088 106.047381 
L 151.282334 106.047381 
L 151.282334 100.528808 
L 151.727581 100.528808 
L 151.727581 109.618223 
L 152.172827 109.618223 
L 152.172827 116.435283 
L 152.618074 116.435283 
L 152.618074 119.519192 
L 153.06332 119.519192 
L 153.06332 116.597594 
L 153.508566 116.597594 
L 153.508566 117.896082 
L 153.953813 117.896082 
L 153.953813 111.565954 
L 154.399059 111.565954 
L 154.399059 127.797051 
L 154.844306 127.797051 
L 154.844306 124.550832 
L 155.289552 124.550832 
L 155.289552 119.19457 
L 155.734798 119.19457 
L 155.734798 122.440789 
L 156.180045 122.440789 
L 156.180045 123.090033 
L 156.625291 123.090033 
L 156.625291 126.823185 
L 157.070538 126.823185 
L 157.070538 136.074911 
L 157.515784 136.074911 
L 157.515784 126.336253 
L 157.96103 126.336253 
L 157.96103 126.985496 
L 158.406277 126.985496 
L 158.406277 133.153313 
L 158.851523 133.153313 
L 158.851523 137.53571 
L 159.29677 137.53571 
L 159.29677 144.839703 
L 159.742016 144.839703 
L 159.742016 141.268862 
L 160.187262 141.268862 
L 160.187262 137.373399 
L 160.632509 137.373399 
L 160.632509 128.770917 
L 161.077755 128.770917 
L 161.077755 146.462813 
L 161.523002 146.462813 
L 161.523002 143.378904 
L 161.968248 143.378904 
L 161.968248 147.761301 
L 162.413495 147.761301 
L 162.413495 144.190459 
L 162.858741 144.190459 
L 162.858741 150.195965 
L 163.303987 150.195965 
L 163.303987 151.00752 
L 163.749234 151.00752 
L 163.749234 158.960758 
L 164.19448 158.960758 
L 164.19448 157.337648 
L 164.639727 157.337648 
L 164.639727 151.981386 
L 165.084973 151.981386 
L 165.084973 160.421556 
L 165.530219 160.421556 
L 165.530219 156.363782 
L 165.975466 156.363782 
L 165.975466 157.986892 
L 166.420712 157.986892 
L 166.420712 166.10244 
L 166.865959 166.10244 
L 166.865959 159.934624 
L 167.311205 159.934624 
L 167.311205 162.69391 
L 167.756451 162.69391 
L 167.756451 162.206977 
L 168.201698 162.206977 
L 168.201698 164.641642 
L 168.646944 164.641642 
L 168.646944 168.537105 
L 169.092191 168.537105 
L 169.092191 173.244123 
L 169.537437 173.244123 
L 169.537437 170.809459 
L 169.982683 170.809459 
L 169.982683 170.97177 
L 170.42793 170.97177 
L 170.42793 171.945635 
L 170.873176 171.945635 
L 170.873176 168.861727 
L 171.318423 168.861727 
L 171.318423 178.762696 
L 171.763669 178.762696 
L 171.763669 175.191855 
L 172.208915 175.191855 
L 172.208915 183.469714 
L 172.654162 183.469714 
L 172.654162 182.82047 
L 173.099408 182.82047 
L 173.099408 175.029544 
L 173.544655 175.029544 
L 173.544655 180.548117 
L 173.989901 180.548117 
L 173.989901 185.904379 
L 174.435147 185.904379 
L 174.435147 180.223495 
L 174.880394 180.223495 
L 174.880394 188.988287 
L 175.32564 188.988287 
L 175.32564 189.312909 
L 175.770887 189.312909 
L 175.770887 188.825976 
L 176.216133 188.825976 
L 176.216133 190.773708 
L 176.66138 190.773708 
L 176.66138 194.669171 
L 177.106626 194.669171 
L 177.106626 189.637531 
L 177.551872 189.637531 
L 177.551872 192.559129 
L 177.997119 192.559129 
L 177.997119 192.72144 
L 178.442365 192.72144 
L 178.442365 194.50686 
L 178.887612 194.50686 
L 178.887612 194.669171 
L 179.332858 194.669171 
L 179.332858 195.318415 
L 179.778104 195.318415 
L 179.778104 202.135476 
L 180.223351 202.135476 
L 180.223351 201.973165 
L 180.668597 201.973165 
L 180.668597 207.329427 
L 181.113844 207.329427 
L 181.113844 208.465604 
L 181.55909 208.465604 
L 181.55909 206.19325 
L 182.004336 206.19325 
L 182.004336 209.601781 
L 182.449583 209.601781 
L 182.449583 210.900268 
L 182.894829 210.900268 
L 182.894829 214.308799 
L 183.340076 214.308799 
L 183.340076 215.931908 
L 183.785322 215.931908 
L 183.785322 212.685689 
L 184.230568 212.685689 
L 184.230568 214.308799 
L 184.675815 214.308799 
L 184.675815 217.068085 
L 185.121061 217.068085 
L 185.121061 221.775103 
L 185.566308 221.775103 
L 185.566308 222.586658 
L 186.011554 222.586658 
L 186.011554 225.345945 
L 186.4568 225.345945 
L 186.4568 226.1575 
L 186.902047 226.1575 
L 186.902047 227.293676 
L 187.347293 227.293676 
L 187.347293 225.508256 
L 187.79254 225.508256 
L 187.79254 225.832878 
L 188.237786 225.832878 
L 188.237786 229.890652 
L 188.683032 229.890652 
L 188.683032 232.000695 
L 189.128279 232.000695 
L 189.128279 234.435359 
L 189.573525 234.435359 
L 189.573525 235.896158 
L 190.018772 235.896158 
L 190.018772 237.843889 
L 190.464018 237.843889 
L 190.464018 238.168511 
L 190.909265 238.168511 
L 190.909265 239.304688 
L 191.354511 239.304688 
L 191.354511 237.681579 
L 191.799757 237.681579 
L 191.799757 243.362462 
L 192.245004 243.362462 
L 192.245004 243.037841 
L 192.69025 243.037841 
L 192.69025 243.687084 
L 193.135497 243.687084 
L 193.135497 245.797127 
L 193.580743 245.797127 
L 193.580743 245.797127 
" clip-path="url(#pe85f4ee3d6)" style="fill: none; stroke: #1f77b4; stroke-width: 1.5; stroke-linecap: square"/>
   </g>
   <g id="line2d_19">
    <path d="M 287.127428 245.310194 
L 287.57174 245.310194 
L 287.57174 244.66095 
L 288.016052 244.66095 
L 288.016052 242.063975 
L 288.460364 242.063975 
L 288.460364 240.765487 
L 288.904676 240.765487 
L 288.904676 239.62931 
L 289.348988 239.62931 
L 289.348988 236.383091 
L 289.793299 236.383091 
L 289.793299 236.545402 
L 290.237611 236.545402 
L 290.237611 235.896158 
L 290.681923 235.896158 
L 290.681923 234.273048 
L 291.126235 234.273048 
L 291.126235 228.267542 
L 292.014859 228.267542 
L 292.014859 229.728341 
L 292.45917 229.728341 
L 292.45917 227.618298 
L 292.903482 227.618298 
L 292.903482 225.995189 
L 293.347794 225.995189 
L 293.347794 224.696701 
L 293.792106 224.696701 
L 293.792106 224.859012 
L 294.236418 224.859012 
L 294.236418 219.989683 
L 294.68073 219.989683 
L 294.68073 222.424347 
L 295.125041 222.424347 
L 295.125041 221.28817 
L 295.569353 221.28817 
L 295.569353 216.094219 
L 296.013665 216.094219 
L 296.013665 214.47111 
L 296.457977 214.47111 
L 296.457977 217.230396 
L 296.902289 217.230396 
L 296.902289 209.601781 
L 297.346601 209.601781 
L 297.346601 212.848 
L 297.790912 212.848 
L 297.790912 209.43947 
L 298.235224 209.43947 
L 298.235224 213.821866 
L 298.679536 213.821866 
L 298.679536 204.407829 
L 299.123848 204.407829 
L 299.123848 203.596275 
L 299.56816 203.596275 
L 299.56816 204.407829 
L 300.012472 204.407829 
L 300.012472 203.271653 
L 300.456783 203.271653 
L 300.456783 201.973165 
L 300.901095 201.973165 
L 300.901095 201.486232 
L 301.345407 201.486232 
L 301.345407 205.868628 
L 301.789719 205.868628 
L 301.789719 200.512366 
L 302.234031 200.512366 
L 302.234031 197.75308 
L 302.678343 197.75308 
L 302.678343 191.422952 
L 303.122654 191.422952 
L 303.122654 192.559129 
L 303.566966 192.559129 
L 303.566966 190.449086 
L 304.011278 190.449086 
L 304.011278 196.779214 
L 304.45559 196.779214 
L 304.45559 185.742068 
L 304.899902 185.742068 
L 304.899902 184.281269 
L 305.344214 184.281269 
L 305.344214 187.527489 
L 305.788525 187.527489 
L 305.788525 182.82047 
L 306.232837 182.82047 
L 306.232837 182.008916 
L 306.677149 182.008916 
L 306.677149 185.742068 
L 307.121461 185.742068 
L 307.121461 182.008916 
L 307.565773 182.008916 
L 307.565773 175.029544 
L 308.010085 175.029544 
L 308.010085 176.977275 
L 308.454396 176.977275 
L 308.454396 172.270257 
L 308.898708 172.270257 
L 308.898708 177.78883 
L 309.34302 177.78883 
L 309.34302 174.704922 
L 309.787332 174.704922 
L 309.787332 173.568745 
L 310.231644 173.568745 
L 310.231644 169.34866 
L 311.120267 169.34866 
L 311.120267 165.128575 
L 311.564579 165.128575 
L 311.564579 160.259245 
L 312.008891 160.259245 
L 312.008891 163.343154 
L 312.453203 163.343154 
L 312.453203 162.856221 
L 312.897515 162.856221 
L 312.897515 158.311514 
L 313.341827 158.311514 
L 313.341827 161.395422 
L 313.786138 161.395422 
L 313.786138 163.180843 
L 314.23045 163.180843 
L 314.23045 160.259245 
L 314.674762 160.259245 
L 314.674762 156.363782 
L 315.119074 156.363782 
L 315.119074 152.955252 
L 315.563386 152.955252 
L 315.563386 156.03916 
L 316.007698 156.03916 
L 316.007698 153.929118 
L 316.452009 153.929118 
L 316.452009 147.274368 
L 316.896321 147.274368 
L 316.896321 152.792941 
L 317.340633 152.792941 
L 317.340633 148.085923 
L 317.784945 148.085923 
L 317.784945 147.112057 
L 318.229257 147.112057 
L 318.229257 133.477935 
L 318.673569 133.477935 
L 318.673569 146.138191 
L 319.11788 146.138191 
L 319.11788 137.53571 
L 319.562192 137.53571 
L 319.562192 135.750289 
L 320.006504 135.750289 
L 320.006504 145.488947 
L 320.450816 145.488947 
L 320.450816 130.394027 
L 320.895128 130.394027 
L 320.895128 134.28949 
L 321.33944 134.28949 
L 321.33944 140.781929 
L 321.783751 140.781929 
L 321.783751 133.153313 
L 322.228063 133.153313 
L 322.228063 130.231716 
L 322.672375 130.231716 
L 322.672375 126.498564 
L 323.116687 126.498564 
L 323.116687 132.991002 
L 323.560999 132.991002 
L 323.560999 123.901588 
L 324.005311 123.901588 
L 324.005311 130.231716 
L 324.449622 130.231716 
L 324.449622 126.011631 
L 324.893934 126.011631 
L 324.893934 121.953856 
L 325.338246 121.953856 
L 325.338246 124.22621 
L 325.782558 124.22621 
L 325.782558 119.519192 
L 326.671182 119.519192 
L 326.671182 121.142301 
L 327.115493 121.142301 
L 327.115493 117.409149 
L 327.559805 117.409149 
L 327.559805 110.429777 
L 328.004117 110.429777 
L 328.004117 120.493058 
L 328.448429 120.493058 
L 328.448429 114.812174 
L 328.892741 114.812174 
L 328.892741 109.942845 
L 329.337053 109.942845 
L 329.337053 118.545326 
L 329.781364 118.545326 
L 329.781364 99.879564 
L 330.225676 99.879564 
L 330.225676 111.890576 
L 330.669988 111.890576 
L 330.669988 114.000619 
L 331.1143 114.000619 
L 331.1143 103.125784 
L 331.558612 103.125784 
L 331.558612 99.068009 
L 332.002924 99.068009 
L 332.002924 103.450406 
L 332.447235 103.450406 
L 332.447235 99.879564 
L 332.891547 99.879564 
L 332.891547 91.764016 
L 333.335859 91.764016 
L 333.335859 99.879564 
L 333.780171 99.879564 
L 333.780171 100.691119 
L 334.224483 100.691119 
L 334.224483 77.967583 
L 334.668795 77.967583 
L 334.668795 82.51229 
L 335.113106 82.51229 
L 335.113106 95.334857 
L 335.557418 95.334857 
L 335.557418 90.465528 
L 336.00173 90.465528 
L 336.00173 88.355485 
L 336.446042 88.355485 
L 336.446042 85.75851 
L 336.890354 85.75851 
L 336.890354 77.967583 
L 337.334666 77.967583 
L 337.334666 91.277083 
L 337.778977 91.277083 
L 337.778977 82.999223 
L 338.223289 82.999223 
L 338.223289 83.973089 
L 338.667601 83.973089 
L 338.667601 80.72687 
L 339.111913 80.72687 
L 339.111913 86.732376 
L 339.556225 86.732376 
L 339.556225 81.213803 
L 340.000537 81.213803 
L 340.000537 79.590693 
L 340.444848 79.590693 
L 340.444848 74.883675 
L 340.88916 74.883675 
L 340.88916 71.150522 
L 341.333472 71.150522 
L 341.333472 76.344474 
L 341.777784 76.344474 
L 341.777784 64.982706 
L 342.222096 64.982706 
L 342.222096 75.370608 
L 342.666408 75.370608 
L 342.666408 69.689724 
L 343.110719 69.689724 
L 343.110719 66.605815 
L 343.555031 66.605815 
L 343.555031 52.32245 
L 343.999343 52.32245 
L 343.999343 66.930437 
L 344.443655 66.930437 
L 344.443655 59.626444 
L 344.887967 59.626444 
L 344.887967 53.134005 
L 345.332279 53.134005 
L 345.332279 53.94556 
L 345.77659 53.94556 
L 345.77659 60.275687 
L 346.220902 60.275687 
L 346.220902 60.924931 
L 346.665214 60.924931 
L 346.665214 60.275687 
L 347.109526 60.275687 
L 347.109526 51.673206 
L 347.553838 51.673206 
L 347.553838 58.9772 
L 347.998149 58.9772 
L 347.998149 46.803877 
L 348.442461 46.803877 
L 348.442461 54.270182 
L 348.886773 54.270182 
L 348.886773 44.369212 
L 349.331085 44.369212 
L 349.331085 40.798371 
L 350.219709 40.798371 
L 350.219709 34.143621 
L 350.66402 34.143621 
L 350.66402 45.6677 
L 351.108332 45.6677 
L 351.108332 34.792865 
L 351.552644 34.792865 
L 351.552644 36.578286 
L 351.996956 36.578286 
L 351.996956 32.682822 
L 352.441268 32.682822 
L 352.441268 40.798371 
L 352.88558 40.798371 
L 352.88558 37.065219 
L 353.329891 37.065219 
L 353.329891 31.384335 
L 353.774203 31.384335 
L 353.774203 31.059713 
L 354.218515 31.059713 
L 354.218515 28.138115 
L 354.662827 28.138115 
L 354.662827 31.546646 
L 355.107139 31.546646 
L 355.107139 39.499883 
L 355.551451 39.499883 
L 355.551451 32.845133 
L 355.995762 32.845133 
L 355.995762 46.479255 
L 356.440074 46.479255 
L 356.440074 38.201395 
L 356.884386 38.201395 
L 356.884386 44.531523 
L 357.328698 44.531523 
L 357.328698 50.212407 
L 357.77301 50.212407 
L 357.77301 41.609926 
L 358.217322 41.609926 
L 358.217322 49.725474 
L 358.661633 49.725474 
L 358.661633 46.641566 
L 359.105945 46.641566 
L 359.105945 52.160139 
L 359.550257 52.160139 
L 359.550257 48.264676 
L 359.994569 48.264676 
L 359.994569 51.348584 
L 360.438881 51.348584 
L 360.438881 53.296316 
L 360.883193 53.296316 
L 360.883193 68.228925 
L 361.327504 68.228925 
L 361.327504 47.29081 
L 361.771816 47.29081 
L 361.771816 44.04459 
L 362.216128 44.04459 
L 362.216128 51.186273 
L 362.66044 51.186273 
L 362.66044 67.41737 
L 363.104752 67.41737 
L 363.104752 64.00884 
L 363.549064 64.00884 
L 363.549064 69.202791 
L 363.993375 69.202791 
L 363.993375 63.846529 
L 364.437687 63.846529 
L 364.437687 64.982706 
L 364.881999 64.982706 
L 364.881999 69.689724 
L 365.326311 69.689724 
L 365.326311 55.893291 
L 365.770623 55.893291 
L 365.770623 68.715858 
L 366.214935 68.715858 
L 366.214935 72.611321 
L 366.659246 72.611321 
L 366.659246 57.029468 
L 367.103558 57.029468 
L 367.103558 65.631949 
L 367.54787 65.631949 
L 367.54787 85.75851 
L 367.992182 85.75851 
L 367.992182 80.402248 
L 368.436494 80.402248 
L 368.436494 91.439394 
L 368.880806 91.439394 
L 368.880806 76.831406 
L 369.325117 76.831406 
L 369.325117 85.271577 
L 369.769429 85.271577 
L 369.769429 78.292205 
L 370.213741 78.292205 
L 370.213741 91.439394 
L 370.658053 91.439394 
L 370.658053 85.433888 
L 371.102365 85.433888 
L 371.102365 95.984101 
L 371.546677 95.984101 
L 371.546677 85.271577 
L 371.990988 85.271577 
L 371.990988 89.816284 
L 372.4353 89.816284 
L 372.4353 94.847924 
L 372.879612 94.847924 
L 372.879612 92.250949 
L 373.323924 92.250949 
L 373.323924 93.387125 
L 373.768236 93.387125 
L 373.768236 94.036369 
L 374.212548 94.036369 
L 374.212548 96.471034 
L 374.656859 96.471034 
L 374.656859 99.554942 
L 375.101171 99.554942 
L 375.101171 100.041875 
L 375.545483 100.041875 
L 375.545483 101.015741 
L 375.989795 101.015741 
L 375.989795 99.554942 
L 376.434107 99.554942 
L 376.434107 105.88507 
L 376.878419 105.88507 
L 376.878419 109.455912 
L 377.32273 109.455912 
L 377.32273 102.638851 
L 377.767042 102.638851 
L 377.767042 107.832802 
L 378.211354 107.832802 
L 378.211354 104.748893 
L 378.655666 104.748893 
L 378.655666 98.256455 
L 379.099978 98.256455 
L 379.099978 116.759905 
L 379.54429 116.759905 
L 379.54429 119.519192 
L 379.988601 119.519192 
L 379.988601 108.319735 
L 380.432913 108.319735 
L 380.432913 123.090033 
L 380.877225 123.090033 
L 380.877225 118.220704 
L 381.321537 118.220704 
L 381.321537 122.440789 
L 381.765849 122.440789 
L 381.765849 125.687009 
L 382.210161 125.687009 
L 382.210161 120.979991 
L 382.654472 120.979991 
L 382.654472 124.713143 
L 383.098784 124.713143 
L 383.098784 129.420161 
L 383.543096 129.420161 
L 383.543096 130.231716 
L 383.987408 130.231716 
L 383.987408 131.530204 
L 384.43172 131.530204 
L 384.43172 135.425667 
L 384.876032 135.425667 
L 384.876032 129.907094 
L 385.320343 129.907094 
L 385.320343 129.095539 
L 385.764655 129.095539 
L 385.764655 126.498564 
L 386.208967 126.498564 
L 386.208967 138.834197 
L 386.653279 138.834197 
L 386.653279 130.718649 
L 387.097591 130.718649 
L 387.097591 138.347264 
L 387.541903 138.347264 
L 387.541903 145.164325 
L 387.986214 145.164325 
L 387.986214 142.405039 
L 388.430526 142.405039 
L 388.430526 142.080417 
L 388.874838 142.080417 
L 388.874838 148.897477 
L 389.31915 148.897477 
L 389.31915 139.808063 
L 389.763462 139.808063 
L 389.763462 150.358276 
L 390.207774 150.358276 
L 390.207774 155.714538 
L 390.652085 155.714538 
L 390.652085 152.955252 
L 391.096397 152.955252 
L 391.096397 156.03916 
L 391.540709 156.03916 
L 391.540709 154.091429 
L 391.985021 154.091429 
L 391.985021 152.468319 
L 392.429333 152.468319 
L 392.429333 156.688404 
L 392.873645 156.688404 
L 392.873645 159.934624 
L 393.317956 159.934624 
L 393.317956 156.363782 
L 393.762268 156.363782 
L 393.762268 163.505465 
L 394.20658 163.505465 
L 394.20658 155.065294 
L 394.650892 155.065294 
L 394.650892 157.337648 
L 395.095204 157.337648 
L 395.095204 164.31702 
L 395.539516 164.31702 
L 395.539516 167.076306 
L 395.983827 167.076306 
L 395.983827 168.374794 
L 396.428139 168.374794 
L 396.428139 163.505465 
L 396.872451 163.505465 
L 396.872451 162.369288 
L 397.316763 162.369288 
L 397.316763 170.647148 
L 397.761075 170.647148 
L 397.761075 171.621013 
L 398.205387 171.621013 
L 398.205387 173.731056 
L 398.649698 173.731056 
L 398.649698 176.165721 
L 399.09401 176.165721 
L 399.09401 175.841099 
L 399.538322 175.841099 
L 399.538322 180.872739 
L 399.982634 180.872739 
L 399.982634 182.82047 
L 400.426946 182.82047 
L 400.426946 183.145092 
L 400.871258 183.145092 
L 400.871258 182.333537 
L 401.315569 182.333537 
L 401.315569 184.605891 
L 401.759881 184.605891 
L 401.759881 184.118958 
L 402.204193 184.118958 
L 402.204193 183.632025 
L 402.648505 183.632025 
L 402.648505 194.993793 
L 403.092817 194.993793 
L 403.092817 194.182238 
L 403.537129 194.182238 
L 403.537129 192.234507 
L 403.98144 192.234507 
L 403.98144 188.501354 
L 404.425752 188.501354 
L 404.425752 195.805348 
L 404.870064 195.805348 
L 404.870064 194.344549 
L 405.314376 194.344549 
L 405.314376 202.135476 
L 405.758688 202.135476 
L 405.758688 206.517872 
L 406.203 206.517872 
L 406.203 202.297787 
L 406.647311 202.297787 
L 406.647311 200.350055 
L 407.091623 200.350055 
L 407.091623 201.973165 
L 407.535935 201.973165 
L 407.535935 202.78472 
L 407.980247 202.78472 
L 407.980247 208.952537 
L 408.424559 208.952537 
L 408.424559 207.329427 
L 408.868871 207.329427 
L 408.868871 204.57014 
L 409.313182 204.57014 
L 409.313182 214.308799 
L 409.757494 214.308799 
L 409.757494 216.094219 
L 410.201806 216.094219 
L 410.201806 210.900268 
L 410.646118 210.900268 
L 410.646118 212.685689 
L 411.09043 212.685689 
L 411.09043 218.528884 
L 411.534742 218.528884 
L 411.534742 219.015817 
L 411.979053 219.015817 
L 411.979053 222.262036 
L 412.423365 222.262036 
L 412.423365 219.340439 
L 412.867677 219.340439 
L 412.867677 222.748969 
L 413.311989 222.748969 
L 413.311989 224.047457 
L 413.756301 224.047457 
L 413.756301 226.644432 
L 414.200613 226.644432 
L 414.200613 226.969054 
L 414.644924 226.969054 
L 414.644924 227.94292 
L 415.089236 227.94292 
L 415.089236 228.592164 
L 415.533548 228.592164 
L 415.533548 231.351451 
L 415.97786 231.351451 
L 415.97786 233.136871 
L 416.422172 233.136871 
L 416.422172 233.786115 
L 416.866484 233.786115 
L 416.866484 232.812249 
L 417.310795 232.812249 
L 417.310795 236.058469 
L 417.755107 236.058469 
L 417.755107 236.545402 
L 418.199419 236.545402 
L 418.199419 239.791621 
L 418.643731 239.791621 
L 418.643731 240.603176 
L 419.088043 240.603176 
L 419.088043 240.927798 
L 419.532355 240.927798 
L 419.532355 243.849395 
L 419.976666 243.849395 
L 419.976666 243.687084 
L 420.420978 243.687084 
L 420.420978 243.687084 
" clip-path="url(#pe85f4ee3d6)" style="fill: none; stroke: #ff7f0e; stroke-width: 1.5; stroke-linecap: square"/>
   </g>
   <g id="patch_3">
    <path d="M 53.328125 257.158895 
L 53.328125 7.2 
" style="fill: none; stroke: #000000; stroke-width: 0.8; stroke-linejoin: miter; stroke-linecap: square"/>
   </g>
   <g id="patch_4">
    <path d="M 427.085656 257.158895 
L 427.085656 7.2 
" style="fill: none; stroke: #000000; stroke-width: 0.8; stroke-linejoin: miter; stroke-linecap: square"/>
   </g>
   <g id="patch_5">
    <path d="M 53.328125 257.158895 
L 427.085656 257.158895 
" style="fill: none; stroke: #000000; stroke-width: 0.8; stroke-linejoin: miter; stroke-linecap: square"/>
   </g>
   <g id="patch_6">
    <path d="M 53.328125 7.2 
L 427.085656 7.2 
" style="fill: none; stroke: #000000; stroke-width: 0.8; stroke-linejoin: miter; stroke-linecap: square"/>
   </g>
   <g id="legend_1">
    <g id="patch_7">
     <path d="M 205.927984 252.158895 
L 274.485797 252.158895 
Q 276.485797 252.158895 276.485797 250.158895 
L 276.485797 221.802645 
Q 276.485797 219.802645 274.485797 219.802645 
L 205.927984 219.802645 
Q 203.927984 219.802645 203.927984 221.802645 
L 203.927984 250.158895 
Q 203.927984 252.158895 205.927984 252.158895 
z
" style="fill: #ffffff; opacity: 0.8; stroke: #cccccc; stroke-linejoin: miter"/>
    </g>
    <g id="line2d_20">
     <path d="M 207.927984 227.901082 
L 207.927984 227.901082 
L 217.927984 227.901082 
L 217.927984 227.901082 
L 227.927984 227.901082 
" style="fill: none; stroke: #1f77b4; stroke-width: 1.5; stroke-linecap: square"/>
    </g>
    <g id="text_20">
     <!-- pulse:0 -->
     <g transform="translate(235.927984 231.401082) scale(0.1 -0.1)">
      <defs>
       <path id="DejaVuSans-70" d="M 1159 525 
L 1159 -1331 
L 581 -1331 
L 581 3500 
L 1159 3500 
L 1159 2969 
Q 1341 3281 1617 3432 
Q 1894 3584 2278 3584 
Q 2916 3584 3314 3078 
Q 3713 2572 3713 1747 
Q 3713 922 3314 415 
Q 2916 -91 2278 -91 
Q 1894 -91 1617 61 
Q 1341 213 1159 525 
z
M 3116 1747 
Q 3116 2381 2855 2742 
Q 2594 3103 2138 3103 
Q 1681 3103 1420 2742 
Q 1159 2381 1159 1747 
Q 1159 1113 1420 752 
Q 1681 391 2138 391 
Q 2594 391 2855 752 
Q 3116 1113 3116 1747 
z
" transform="scale(0.015625)"/>
       <path id="DejaVuSans-6c" d="M 603 4863 
L 1178 4863 
L 1178 0 
L 603 0 
L 603 4863 
z
" transform="scale(0.015625)"/>
       <path id="DejaVuSans-3a" d="M 750 794 
L 1409 794 
L 1409 0 
L 750 0 
L 750 794 
z
M 750 3309 
L 1409 3309 
L 1409 2516 
L 750 2516 
L 750 3309 
z
" transform="scale(0.015625)"/>
      </defs>
      <use xlink:href="#DejaVuSans-70"/>
      <use xlink:href="#DejaVuSans-75" transform="translate(63.476562 0)"/>
      <use xlink:href="#DejaVuSans-6c" transform="translate(126.855469 0)"/>
      <use xlink:href="#DejaVuSans-73" transform="translate(154.638672 0)"/>
      <use xlink:href="#DejaVuSans-65" transform="translate(206.738281 0)"/>
      <use xlink:href="#DejaVuSans-3a" transform="translate(268.261719 0)"/>
      <use xlink:href="#DejaVuSans-30" transform="translate(301.953125 0)"/>
     </g>
    </g>
    <g id="line2d_21">
     <path d="M 207.927984 242.579207 
L 207.927984 242.579207 
L 217.927984 242.579207 
L 217.927984 242.579207 
L 227.927984 242.579207 
" style="fill: none; stroke: #ff7f0e; stroke-width: 1.5; stroke-linecap: square"/>
    </g>
    <g id="text_21">
     <!-- pulse:1 -->
     <g transform="translate(235.927984 246.079207) scale(0.1 -0.1)">
      <use xlink:href="#DejaVuSans-70"/>
      <use xlink:href="#DejaVuSans-75" transform="translate(63.476562 0)"/>
      <use xlink:href="#DejaVuSans-6c" transform="translate(126.855469 0)"/>
      <use xlink:href="#DejaVuSans-73" transform="translate(154.638672 0)"/>
      <use xlink:href="#DejaVuSans-65" transform="translate(206.738281 0)"/>
      <use xlink:href="#DejaVuSans-3a" transform="translate(268.261719 0)"/>
      <use xlink:href="#DejaVuSans-31" transform="translate(301.953125 0)"/>
     </g>
    </g>
   </g>
  </g>
  <g id="axes_2">
   <g id="patch_8">
    <path d="M 491.441989 257.158895 
L 865.19952 257.158895 
L 865.19952 7.2 
L 491.441989 7.2 
z
" style="fill: #ffffff"/>
   </g>
   <g id="matplotlib.axis_3">
    <g id="xtick_10">
     <g id="line2d_22">
      <g>
       <use xlink:href="#m18245661ac" x="508.430267" y="257.158895" style="stroke: #000000; stroke-width: 0.8"/>
      </g>
     </g>
     <g id="text_22">
      <!-- 1.0 -->
      <g transform="translate(500.478705 271.757332) scale(0.1 -0.1)">
       <defs>
        <path id="DejaVuSans-2e" d="M 684 794 
L 1344 794 
L 1344 0 
L 684 0 
L 684 794 
z
" transform="scale(0.015625)"/>
       </defs>
       <use xlink:href="#DejaVuSans-31"/>
       <use xlink:href="#DejaVuSans-2e" transform="translate(63.623047 0)"/>
       <use xlink:href="#DejaVuSans-30" transform="translate(95.410156 0)"/>
      </g>
     </g>
    </g>
    <g id="xtick_11">
     <g id="line2d_23">
      <g>
       <use xlink:href="#m18245661ac" x="565.060316" y="257.158895" style="stroke: #000000; stroke-width: 0.8"/>
      </g>
     </g>
     <g id="text_23">
      <!-- 1.5 -->
      <g transform="translate(557.108753 271.757332) scale(0.1 -0.1)">
       <defs>
        <path id="DejaVuSans-35" d="M 691 4666 
L 3169 4666 
L 3169 4134 
L 1269 4134 
L 1269 2991 
Q 1406 3038 1543 3061 
Q 1681 3084 1819 3084 
Q 2600 3084 3056 2656 
Q 3513 2228 3513 1497 
Q 3513 744 3044 326 
Q 2575 -91 1722 -91 
Q 1428 -91 1123 -41 
Q 819 9 494 109 
L 494 744 
Q 775 591 1075 516 
Q 1375 441 1709 441 
Q 2250 441 2565 725 
Q 2881 1009 2881 1497 
Q 2881 1984 2565 2268 
Q 2250 2553 1709 2553 
Q 1456 2553 1204 2497 
Q 953 2441 691 2322 
L 691 4666 
z
" transform="scale(0.015625)"/>
       </defs>
       <use xlink:href="#DejaVuSans-31"/>
       <use xlink:href="#DejaVuSans-2e" transform="translate(63.623047 0)"/>
       <use xlink:href="#DejaVuSans-35" transform="translate(95.410156 0)"/>
      </g>
     </g>
    </g>
    <g id="xtick_12">
     <g id="line2d_24">
      <g>
       <use xlink:href="#m18245661ac" x="621.690364" y="257.158895" style="stroke: #000000; stroke-width: 0.8"/>
      </g>
     </g>
     <g id="text_24">
      <!-- 2.0 -->
      <g transform="translate(613.738802 271.757332) scale(0.1 -0.1)">
       <use xlink:href="#DejaVuSans-32"/>
       <use xlink:href="#DejaVuSans-2e" transform="translate(63.623047 0)"/>
       <use xlink:href="#DejaVuSans-30" transform="translate(95.410156 0)"/>
      </g>
     </g>
    </g>
    <g id="xtick_13">
     <g id="line2d_25">
      <g>
       <use xlink:href="#m18245661ac" x="678.320413" y="257.158895" style="stroke: #000000; stroke-width: 0.8"/>
      </g>
     </g>
     <g id="text_25">
      <!-- 2.5 -->
      <g transform="translate(670.36885 271.757332) scale(0.1 -0.1)">
       <use xlink:href="#DejaVuSans-32"/>
       <use xlink:href="#DejaVuSans-2e" transform="translate(63.623047 0)"/>
       <use xlink:href="#DejaVuSans-35" transform="translate(95.410156 0)"/>
      </g>
     </g>
    </g>
    <g id="xtick_14">
     <g id="line2d_26">
      <g>
       <use xlink:href="#m18245661ac" x="734.950461" y="257.158895" style="stroke: #000000; stroke-width: 0.8"/>
      </g>
     </g>
     <g id="text_26">
      <!-- 3.0 -->
      <g transform="translate(726.998899 271.757332) scale(0.1 -0.1)">
       <defs>
        <path id="DejaVuSans-33" d="M 2597 2516 
Q 3050 2419 3304 2112 
Q 3559 1806 3559 1356 
Q 3559 666 3084 287 
Q 2609 -91 1734 -91 
Q 1441 -91 1130 -33 
Q 819 25 488 141 
L 488 750 
Q 750 597 1062 519 
Q 1375 441 1716 441 
Q 2309 441 2620 675 
Q 2931 909 2931 1356 
Q 2931 1769 2642 2001 
Q 2353 2234 1838 2234 
L 1294 2234 
L 1294 2753 
L 1863 2753 
Q 2328 2753 2575 2939 
Q 2822 3125 2822 3475 
Q 2822 3834 2567 4026 
Q 2313 4219 1838 4219 
Q 1578 4219 1281 4162 
Q 984 4106 628 3988 
L 628 4550 
Q 988 4650 1302 4700 
Q 1616 4750 1894 4750 
Q 2613 4750 3031 4423 
Q 3450 4097 3450 3541 
Q 3450 3153 3228 2886 
Q 3006 2619 2597 2516 
z
" transform="scale(0.015625)"/>
       </defs>
       <use xlink:href="#DejaVuSans-33"/>
       <use xlink:href="#DejaVuSans-2e" transform="translate(63.623047 0)"/>
       <use xlink:href="#DejaVuSans-30" transform="translate(95.410156 0)"/>
      </g>
     </g>
    </g>
    <g id="xtick_15">
     <g id="line2d_27">
      <g>
       <use xlink:href="#m18245661ac" x="791.58051" y="257.158895" style="stroke: #000000; stroke-width: 0.8"/>
      </g>
     </g>
     <g id="text_27">
      <!-- 3.5 -->
      <g transform="translate(783.628947 271.757332) scale(0.1 -0.1)">
       <use xlink:href="#DejaVuSans-33"/>
       <use xlink:href="#DejaVuSans-2e" transform="translate(63.623047 0)"/>
       <use xlink:href="#DejaVuSans-35" transform="translate(95.410156 0)"/>
      </g>
     </g>
    </g>
    <g id="xtick_16">
     <g id="line2d_28">
      <g>
       <use xlink:href="#m18245661ac" x="848.210558" y="257.158895" style="stroke: #000000; stroke-width: 0.8"/>
      </g>
     </g>
     <g id="text_28">
      <!-- 4.0 -->
      <g transform="translate(840.258996 271.757332) scale(0.1 -0.1)">
       <use xlink:href="#DejaVuSans-34"/>
       <use xlink:href="#DejaVuSans-2e" transform="translate(63.623047 0)"/>
       <use xlink:href="#DejaVuSans-30" transform="translate(95.410156 0)"/>
      </g>
     </g>
    </g>
    <g id="text_29">
     <!-- wavelength [Å] -->
     <g transform="translate(640.283255 287.119832) scale(0.1 -0.1)">
      <defs>
       <path id="DejaVuSans-77" d="M 269 3500 
L 844 3500 
L 1563 769 
L 2278 3500 
L 2956 3500 
L 3675 769 
L 4391 3500 
L 4966 3500 
L 4050 0 
L 3372 0 
L 2619 2869 
L 1863 0 
L 1184 0 
L 269 3500 
z
" transform="scale(0.015625)"/>
       <path id="DejaVuSans-61" d="M 2194 1759 
Q 1497 1759 1228 1600 
Q 959 1441 959 1056 
Q 959 750 1161 570 
Q 1363 391 1709 391 
Q 2188 391 2477 730 
Q 2766 1069 2766 1631 
L 2766 1759 
L 2194 1759 
z
M 3341 1997 
L 3341 0 
L 2766 0 
L 2766 531 
Q 2569 213 2275 61 
Q 1981 -91 1556 -91 
Q 1019 -91 701 211 
Q 384 513 384 1019 
Q 384 1609 779 1909 
Q 1175 2209 1959 2209 
L 2766 2209 
L 2766 2266 
Q 2766 2663 2505 2880 
Q 2244 3097 1772 3097 
Q 1472 3097 1187 3025 
Q 903 2953 641 2809 
L 641 3341 
Q 956 3463 1253 3523 
Q 1550 3584 1831 3584 
Q 2591 3584 2966 3190 
Q 3341 2797 3341 1997 
z
" transform="scale(0.015625)"/>
       <path id="DejaVuSans-76" d="M 191 3500 
L 800 3500 
L 1894 563 
L 2988 3500 
L 3597 3500 
L 2284 0 
L 1503 0 
L 191 3500 
z
" transform="scale(0.015625)"/>
       <path id="DejaVuSans-67" d="M 2906 1791 
Q 2906 2416 2648 2759 
Q 2391 3103 1925 3103 
Q 1463 3103 1205 2759 
Q 947 2416 947 1791 
Q 947 1169 1205 825 
Q 1463 481 1925 481 
Q 2391 481 2648 825 
Q 2906 1169 2906 1791 
z
M 3481 434 
Q 3481 -459 3084 -895 
Q 2688 -1331 1869 -1331 
Q 1566 -1331 1297 -1286 
Q 1028 -1241 775 -1147 
L 775 -588 
Q 1028 -725 1275 -790 
Q 1522 -856 1778 -856 
Q 2344 -856 2625 -561 
Q 2906 -266 2906 331 
L 2906 616 
Q 2728 306 2450 153 
Q 2172 0 1784 0 
Q 1141 0 747 490 
Q 353 981 353 1791 
Q 353 2603 747 3093 
Q 1141 3584 1784 3584 
Q 2172 3584 2450 3431 
Q 2728 3278 2906 2969 
L 2906 3500 
L 3481 3500 
L 3481 434 
z
" transform="scale(0.015625)"/>
       <path id="DejaVuSans-c5" d="M 2663 5081 
Q 2663 5278 2523 5417 
Q 2384 5556 2188 5556 
Q 1988 5556 1852 5420 
Q 1716 5284 1716 5081 
Q 1716 4884 1853 4746 
Q 1991 4609 2188 4609 
Q 2384 4609 2523 4746 
Q 2663 4884 2663 5081 
z
M 2188 4044 
L 1338 1722 
L 3041 1722 
L 2188 4044 
z
M 1716 4366 
Q 1525 4494 1428 4673 
Q 1331 4853 1331 5081 
Q 1331 5441 1579 5691 
Q 1828 5941 2188 5941 
Q 2544 5941 2795 5689 
Q 3047 5438 3047 5081 
Q 3047 4863 2948 4678 
Q 2850 4494 2663 4366 
L 4325 0 
L 3669 0 
L 3244 1197 
L 1141 1197 
L 716 0 
L 50 0 
L 1716 4366 
z
" transform="scale(0.015625)"/>
      </defs>
      <use xlink:href="#DejaVuSans-77"/>
      <use xlink:href="#DejaVuSans-61" transform="translate(81.787109 0)"/>
      <use xlink:href="#DejaVuSans-76" transform="translate(143.066406 0)"/>
      <use xlink:href="#DejaVuSans-65" transform="translate(202.246094 0)"/>
      <use xlink:href="#DejaVuSans-6c" transform="translate(263.769531 0)"/>
      <use xlink:href="#DejaVuSans-65" transform="translate(291.552734 0)"/>
      <use xlink:href="#DejaVuSans-6e" transform="translate(353.076172 0)"/>
      <use xlink:href="#DejaVuSans-67" transform="translate(416.455078 0)"/>
      <use xlink:href="#DejaVuSans-74" transform="translate(479.931641 0)"/>
      <use xlink:href="#DejaVuSans-68" transform="translate(519.140625 0)"/>
      <use xlink:href="#DejaVuSans-20" transform="translate(582.519531 0)"/>
      <use xlink:href="#DejaVuSans-5b" transform="translate(614.306641 0)"/>
      <use xlink:href="#DejaVuSans-c5" transform="translate(653.320312 0)"/>
      <use xlink:href="#DejaVuSans-5d" transform="translate(721.728516 0)"/>
     </g>
    </g>
   </g>
   <g id="matplotlib.axis_4">
    <g id="ytick_9">
     <g id="line2d_29">
      <g>
       <use xlink:href="#mb2c0b48d02" x="491.441989" y="207.888906" style="stroke: #000000; stroke-width: 0.8"/>
      </g>
     </g>
     <g id="text_30">
      <!-- 400 -->
      <g transform="translate(465.354489 211.688124) scale(0.1 -0.1)">
       <use xlink:href="#DejaVuSans-34"/>
       <use xlink:href="#DejaVuSans-30" transform="translate(63.623047 0)"/>
       <use xlink:href="#DejaVuSans-30" transform="translate(127.246094 0)"/>
      </g>
     </g>
    </g>
    <g id="ytick_10">
     <g id="line2d_30">
      <g>
       <use xlink:href="#mb2c0b48d02" x="491.441989" y="155.585308" style="stroke: #000000; stroke-width: 0.8"/>
      </g>
     </g>
     <g id="text_31">
      <!-- 600 -->
      <g transform="translate(465.354489 159.384526) scale(0.1 -0.1)">
       <use xlink:href="#DejaVuSans-36"/>
       <use xlink:href="#DejaVuSans-30" transform="translate(63.623047 0)"/>
       <use xlink:href="#DejaVuSans-30" transform="translate(127.246094 0)"/>
      </g>
     </g>
    </g>
    <g id="ytick_11">
     <g id="line2d_31">
      <g>
       <use xlink:href="#mb2c0b48d02" x="491.441989" y="103.28171" style="stroke: #000000; stroke-width: 0.8"/>
      </g>
     </g>
     <g id="text_32">
      <!-- 800 -->
      <g transform="translate(465.354489 107.080928) scale(0.1 -0.1)">
       <use xlink:href="#DejaVuSans-38"/>
       <use xlink:href="#DejaVuSans-30" transform="translate(63.623047 0)"/>
       <use xlink:href="#DejaVuSans-30" transform="translate(127.246094 0)"/>
      </g>
     </g>
    </g>
    <g id="ytick_12">
     <g id="line2d_32">
      <g>
       <use xlink:href="#mb2c0b48d02" x="491.441989" y="50.978112" style="stroke: #000000; stroke-width: 0.8"/>
      </g>
     </g>
     <g id="text_33">
      <!-- 1000 -->
      <g transform="translate(458.991989 54.77733) scale(0.1 -0.1)">
       <use xlink:href="#DejaVuSans-31"/>
       <use xlink:href="#DejaVuSans-30" transform="translate(63.623047 0)"/>
       <use xlink:href="#DejaVuSans-30" transform="translate(127.246094 0)"/>
       <use xlink:href="#DejaVuSans-30" transform="translate(190.869141 0)"/>
      </g>
     </g>
    </g>
    <g id="text_34">
     <!-- [counts] -->
     <g transform="translate(452.912302 152.791947) rotate(-90) scale(0.1 -0.1)">
      <use xlink:href="#DejaVuSans-5b"/>
      <use xlink:href="#DejaVuSans-63" transform="translate(39.013672 0)"/>
      <use xlink:href="#DejaVuSans-6f" transform="translate(93.994141 0)"/>
      <use xlink:href="#DejaVuSans-75" transform="translate(155.175781 0)"/>
      <use xlink:href="#DejaVuSans-6e" transform="translate(218.554688 0)"/>
      <use xlink:href="#DejaVuSans-74" transform="translate(281.933594 0)"/>
      <use xlink:href="#DejaVuSans-73" transform="translate(321.142578 0)"/>
      <use xlink:href="#DejaVuSans-5d" transform="translate(373.242188 0)"/>
     </g>
    </g>
   </g>
   <g id="line2d_33">
    <path d="M 508.430968 236.132849 
L 510.696165 236.132849 
L 510.696165 241.886244 
L 511.828764 241.886244 
L 511.828764 240.840172 
L 512.961362 240.840172 
L 512.961362 235.086777 
L 514.093961 235.086777 
L 514.093961 231.687043 
L 515.226559 231.687043 
L 515.226559 246.070532 
L 516.359158 246.070532 
L 516.359158 239.532582 
L 517.491757 239.532582 
L 517.491757 242.147762 
L 518.624355 242.147762 
L 518.624355 232.733115 
L 519.756954 232.733115 
L 519.756954 236.394367 
L 520.889552 236.394367 
L 520.889552 230.117935 
L 522.022151 230.117935 
L 522.022151 231.687043 
L 523.154749 231.687043 
L 523.154749 234.040705 
L 524.287348 234.040705 
L 524.287348 240.317136 
L 525.419947 240.317136 
L 525.419947 235.609813 
L 526.552545 235.609813 
L 526.552545 224.626057 
L 527.685144 224.626057 
L 527.685144 225.933647 
L 528.817742 225.933647 
L 528.817742 224.626057 
L 529.950341 224.626057 
L 529.950341 217.565071 
L 531.08294 217.565071 
L 531.08294 229.856417 
L 532.215538 229.856417 
L 532.215538 222.272395 
L 533.348137 222.272395 
L 533.348137 223.056949 
L 534.480735 223.056949 
L 534.480735 232.471597 
L 535.613334 232.471597 
L 535.613334 219.657215 
L 536.745932 219.657215 
L 536.745932 215.734445 
L 537.878531 215.734445 
L 537.878531 222.795431 
L 539.01113 222.795431 
L 539.01113 226.718201 
L 540.143728 226.718201 
L 540.143728 224.364539 
L 541.276327 224.364539 
L 541.276327 218.611143 
L 542.408925 218.611143 
L 542.408925 215.211409 
L 543.541524 215.211409 
L 543.541524 228.548827 
L 544.674122 228.548827 
L 544.674122 219.134179 
L 545.806721 219.134179 
L 545.806721 208.67346 
L 546.93932 208.67346 
L 546.93932 213.642301 
L 548.071918 213.642301 
L 548.071918 220.703287 
L 549.204517 220.703287 
L 549.204517 211.28864 
L 550.337115 211.28864 
L 550.337115 211.811676 
L 552.602312 211.811676 
L 552.602312 208.411942 
L 553.734911 208.411942 
L 553.734911 213.119265 
L 554.86751 213.119265 
L 554.86751 221.226323 
L 556.000108 221.226323 
L 556.000108 214.426855 
L 557.132707 214.426855 
L 557.132707 214.165337 
L 558.265305 214.165337 
L 558.265305 199.258812 
L 559.397904 199.258812 
L 559.397904 215.995963 
L 560.530503 215.995963 
L 560.530503 209.196496 
L 561.663101 209.196496 
L 561.663101 217.042035 
L 562.7957 217.042035 
L 562.7957 223.056949 
L 563.928298 223.056949 
L 563.928298 210.504086 
L 565.060897 210.504086 
L 565.060897 214.426855 
L 566.193495 214.426855 
L 566.193495 204.227654 
L 567.326094 204.227654 
L 567.326094 209.719532 
L 568.458693 209.719532 
L 568.458693 205.012208 
L 569.591291 205.012208 
L 569.591291 189.05961 
L 570.72389 189.05961 
L 570.72389 197.951222 
L 571.856488 197.951222 
L 571.856488 207.104352 
L 572.989087 207.104352 
L 572.989087 202.920064 
L 574.121685 202.920064 
L 574.121685 190.105682 
L 575.254284 190.105682 
L 575.254284 196.643632 
L 576.386883 196.643632 
L 576.386883 205.535244 
L 577.519481 205.535244 
L 577.519481 206.842834 
L 578.65208 206.842834 
L 578.65208 210.765604 
L 579.784678 210.765604 
L 579.784678 196.382114 
L 580.917277 196.382114 
L 580.917277 199.52033 
L 582.049876 199.52033 
L 582.049876 200.82792 
L 583.182474 200.82792 
L 583.182474 200.043366 
L 584.315073 200.043366 
L 584.315073 201.089438 
L 585.447671 201.089438 
L 585.447671 194.028452 
L 586.58027 194.028452 
L 586.58027 196.382114 
L 587.712868 196.382114 
L 587.712868 191.936308 
L 589.978066 191.936308 
L 589.978066 191.413272 
L 591.110664 191.413272 
L 591.110664 193.243898 
L 592.243263 193.243898 
L 592.243263 189.05961 
L 593.375861 189.05961 
L 593.375861 192.197826 
L 594.50846 192.197826 
L 594.50846 185.398358 
L 595.641058 185.398358 
L 595.641058 189.582646 
L 596.773657 189.582646 
L 596.773657 186.44443 
L 597.906256 186.44443 
L 597.906256 198.474258 
L 599.038854 198.474258 
L 599.038854 179.644963 
L 600.171453 179.644963 
L 600.171453 185.921394 
L 601.304051 185.921394 
L 601.304051 184.090769 
L 602.43665 184.090769 
L 602.43665 182.521661 
L 603.569248 182.521661 
L 603.569248 179.121927 
L 604.701847 179.121927 
L 604.701847 177.291301 
L 605.834446 177.291301 
L 605.834446 178.075855 
L 606.967044 178.075855 
L 606.967044 182.783179 
L 608.099643 182.783179 
L 608.099643 182.521661 
L 609.232241 182.521661 
L 609.232241 179.121927 
L 610.36484 179.121927 
L 610.36484 180.167999 
L 611.497439 180.167999 
L 611.497439 181.737107 
L 612.630037 181.737107 
L 612.630037 179.906481 
L 613.762636 179.906481 
L 613.762636 184.875323 
L 614.895234 184.875323 
L 614.895234 183.567733 
L 616.027833 183.567733 
L 616.027833 170.230315 
L 617.160431 170.230315 
L 617.160431 177.552819 
L 618.29303 177.552819 
L 618.29303 170.753351 
L 619.425629 170.753351 
L 619.425629 164.476919 
L 620.558227 164.476919 
L 620.558227 162.646293 
L 621.690826 162.646293 
L 621.690826 180.167999 
L 622.823424 180.167999 
L 622.823424 179.383445 
L 623.956023 179.383445 
L 623.956023 166.830581 
L 625.088621 166.830581 
L 625.088621 176.768265 
L 626.22122 176.768265 
L 626.22122 163.692365 
L 627.353819 163.692365 
L 627.353819 177.291301 
L 628.486417 177.291301 
L 628.486417 160.554149 
L 629.619016 160.554149 
L 629.619016 166.830581 
L 630.751614 166.830581 
L 630.751614 183.306215 
L 631.884213 183.306215 
L 631.884213 169.968797 
L 633.016812 169.968797 
L 633.016812 162.384775 
L 634.14941 162.384775 
L 634.14941 162.907811 
L 635.282009 162.907811 
L 635.282009 167.615135 
L 636.414607 167.615135 
L 636.414607 166.830581 
L 637.547206 166.830581 
L 637.547206 166.569063 
L 638.679804 166.569063 
L 638.679804 170.230315 
L 639.812403 170.230315 
L 639.812403 161.077185 
L 640.945002 161.077185 
L 640.945002 167.353617 
L 642.0776 167.353617 
L 642.0776 150.616466 
L 643.210199 150.616466 
L 643.210199 160.031113 
L 644.342797 160.031113 
L 644.342797 165.784509 
L 645.475396 165.784509 
L 645.475396 161.600221 
L 646.607994 161.600221 
L 646.607994 158.200488 
L 647.740593 158.200488 
L 647.740593 160.815667 
L 648.873192 160.815667 
L 648.873192 160.031113 
L 650.00579 160.031113 
L 650.00579 157.677452 
L 651.138389 157.677452 
L 651.138389 154.539236 
L 652.270987 154.539236 
L 652.270987 152.970128 
L 653.403586 152.970128 
L 653.403586 151.40102 
L 654.536185 151.40102 
L 654.536185 157.93897 
L 655.668783 157.93897 
L 655.668783 149.831912 
L 656.801382 149.831912 
L 656.801382 139.894228 
L 657.93398 139.894228 
L 657.93398 148.78584 
L 659.066579 148.78584 
L 659.066579 158.723524 
L 660.199177 158.723524 
L 660.199177 148.262804 
L 661.331776 148.262804 
L 661.331776 154.539236 
L 662.464375 154.539236 
L 662.464375 155.062272 
L 663.596973 155.062272 
L 663.596973 141.724854 
L 664.729572 141.724854 
L 664.729572 152.185574 
L 665.86217 152.185574 
L 665.86217 147.216732 
L 666.994769 147.216732 
L 666.994769 148.001286 
L 668.127367 148.001286 
L 668.127367 161.077185 
L 669.259966 161.077185 
L 669.259966 139.109674 
L 670.392565 139.109674 
L 670.392565 142.509408 
L 671.525163 142.509408 
L 671.525163 144.601552 
L 672.657762 144.601552 
L 672.657762 146.432178 
L 673.79036 146.432178 
L 673.79036 141.724854 
L 674.922959 141.724854 
L 674.922959 138.32512 
L 676.055557 138.32512 
L 676.055557 131.787171 
L 677.188156 131.787171 
L 677.188156 139.371192 
L 678.320755 139.371192 
L 678.320755 135.186904 
L 679.453353 135.186904 
L 679.453353 146.17066 
L 680.585952 146.17066 
L 680.585952 151.924056 
L 681.71855 151.924056 
L 681.71855 135.186904 
L 682.851149 135.186904 
L 682.851149 143.032444 
L 683.983748 143.032444 
L 683.983748 130.479581 
L 685.116346 130.479581 
L 685.116346 156.63138 
L 686.248945 156.63138 
L 686.248945 135.448422 
L 687.381543 135.448422 
L 687.381543 134.40235 
L 688.514142 134.40235 
L 688.514142 132.048689 
L 689.64674 132.048689 
L 689.64674 118.972789 
L 690.779339 118.972789 
L 690.779339 131.264135 
L 691.911938 131.264135 
L 691.911938 128.387437 
L 693.044536 128.387437 
L 693.044536 124.203149 
L 694.177135 124.203149 
L 694.177135 126.295293 
L 695.309733 126.295293 
L 695.309733 131.264135 
L 697.57493 131.264135 
L 697.57493 123.418595 
L 698.707529 123.418595 
L 698.707529 122.111005 
L 699.840128 122.111005 
L 699.840128 127.341365 
L 700.972726 127.341365 
L 700.972726 118.972789 
L 702.105325 118.972789 
L 702.105325 129.171991 
L 704.370522 129.171991 
L 704.370522 121.587969 
L 705.503121 121.587969 
L 705.503121 123.680113 
L 706.635719 123.680113 
L 706.635719 109.035105 
L 707.768318 109.035105 
L 707.768318 125.249221 
L 708.900916 125.249221 
L 708.900916 131.002617 
L 710.033515 131.002617 
L 710.033515 109.819659 
L 711.166113 109.819659 
L 711.166113 114.526983 
L 712.298712 114.526983 
L 712.298712 115.573055 
L 713.431311 115.573055 
L 713.431311 123.418595 
L 714.563909 123.418595 
L 714.563909 107.989033 
L 715.696508 107.989033 
L 715.696508 115.573055 
L 716.829106 115.573055 
L 716.829106 105.112336 
L 717.961705 105.112336 
L 717.961705 117.926717 
L 719.094303 117.926717 
L 719.094303 107.204479 
L 720.226902 107.204479 
L 720.226902 119.234307 
L 721.359501 119.234307 
L 721.359501 101.712602 
L 722.492099 101.712602 
L 722.492099 119.495825 
L 723.624698 119.495825 
L 723.624698 100.928048 
L 724.757296 100.928048 
L 724.757296 116.357609 
L 725.889895 116.357609 
L 725.889895 106.158407 
L 728.155092 106.158407 
L 728.155092 100.405012 
L 729.287691 100.405012 
L 729.287691 110.604213 
L 730.420289 110.604213 
L 730.420289 107.989033 
L 731.552888 107.989033 
L 731.552888 106.158407 
L 732.685486 106.158407 
L 732.685486 100.405012 
L 733.818085 100.405012 
L 733.818085 88.375184 
L 734.950684 88.375184 
L 734.950684 100.143494 
L 736.083282 100.143494 
L 736.083282 97.005278 
L 737.215881 97.005278 
L 737.215881 103.020192 
L 738.348479 103.020192 
L 738.348479 100.928048 
L 739.481078 100.928048 
L 739.481078 107.204479 
L 740.613676 107.204479 
L 740.613676 96.74376 
L 741.746275 96.74376 
L 741.746275 88.113666 
L 742.878874 88.113666 
L 742.878874 92.559472 
L 744.011472 92.559472 
L 744.011472 94.390098 
L 745.144071 94.390098 
L 745.144071 101.712602 
L 746.276669 101.712602 
L 746.276669 99.097422 
L 747.409268 99.097422 
L 747.409268 95.959206 
L 748.541866 95.959206 
L 748.541866 98.574386 
L 749.674465 98.574386 
L 749.674465 93.344026 
L 750.807064 93.344026 
L 750.807064 82.883306 
L 751.939662 82.883306 
L 751.939662 90.728846 
L 753.072261 90.728846 
L 753.072261 84.97545 
L 754.204859 84.97545 
L 754.204859 92.82099 
L 755.337458 92.82099 
L 755.337458 81.837234 
L 756.470057 81.837234 
L 756.470057 82.621788 
L 757.602655 82.621788 
L 757.602655 105.112336 
L 758.735254 105.112336 
L 758.735254 89.944292 
L 759.867852 89.944292 
L 759.867852 87.067594 
L 761.000451 87.067594 
L 761.000451 97.528314 
L 762.133049 97.528314 
L 762.133049 75.299285 
L 763.265648 75.299285 
L 763.265648 86.28304 
L 764.398247 86.28304 
L 764.398247 89.159738 
L 765.530845 89.159738 
L 765.530845 94.390098 
L 766.663444 94.390098 
L 766.663444 78.699019 
L 767.796042 78.699019 
L 767.796042 93.082508 
L 768.928641 93.082508 
L 768.928641 74.253213 
L 770.061239 74.253213 
L 770.061239 84.452414 
L 771.193838 84.452414 
L 771.193838 73.730177 
L 772.326437 73.730177 
L 772.326437 71.376515 
L 773.459035 71.376515 
L 773.459035 68.761335 
L 774.591634 68.761335 
L 774.591634 98.574386 
L 775.724232 98.574386 
L 775.724232 86.544558 
L 776.856831 86.544558 
L 776.856831 69.545889 
L 777.989429 69.545889 
L 777.989429 81.837234 
L 779.122028 81.837234 
L 779.122028 78.960537 
L 780.254627 78.960537 
L 780.254627 76.868393 
L 781.387225 76.868393 
L 781.387225 78.960537 
L 782.519824 78.960537 
L 782.519824 61.961867 
L 783.652422 61.961867 
L 783.652422 71.114997 
L 784.785021 71.114997 
L 784.785021 80.268126 
L 785.91762 80.268126 
L 785.91762 81.05268 
L 787.050218 81.05268 
L 787.050218 78.699019 
L 788.182817 78.699019 
L 788.182817 70.853479 
L 789.315415 70.853479 
L 789.315415 69.545889 
L 790.448014 69.545889 
L 790.448014 79.74509 
L 791.580612 79.74509 
L 791.580612 64.838565 
L 792.713211 64.838565 
L 792.713211 70.853479 
L 793.84581 70.853479 
L 793.84581 69.807407 
L 794.978408 69.807407 
L 794.978408 72.161069 
L 796.111007 72.161069 
L 796.111007 66.146155 
L 797.243605 66.146155 
L 797.243605 68.761335 
L 798.376204 68.761335 
L 798.376204 65.884637 
L 799.508802 65.884637 
L 799.508802 50.455076 
L 800.641401 50.455076 
L 800.641401 55.946953 
L 801.774 55.946953 
L 801.774 70.068925 
L 802.906598 70.068925 
L 802.906598 55.946953 
L 804.039197 55.946953 
L 804.039197 76.606875 
L 805.171795 76.606875 
L 805.171795 60.131241 
L 806.304394 60.131241 
L 806.304394 66.930709 
L 807.436993 66.930709 
L 807.436993 53.331773 
L 808.569591 53.331773 
L 808.569591 58.823651 
L 809.70219 58.823651 
L 809.70219 54.639363 
L 810.834788 54.639363 
L 810.834788 42.871054 
L 811.967387 42.871054 
L 811.967387 48.101414 
L 813.099985 48.101414 
L 813.099985 49.147486 
L 814.232584 49.147486 
L 814.232584 55.162399 
L 815.365183 55.162399 
L 815.365183 39.47132 
L 816.497781 39.47132 
L 816.497781 41.563464 
L 817.63038 41.563464 
L 817.63038 44.70168 
L 818.762978 44.70168 
L 818.762978 44.963198 
L 819.895577 44.963198 
L 819.895577 45.224716 
L 821.028175 45.224716 
L 821.028175 50.455076 
L 822.160774 50.455076 
L 822.160774 49.409004 
L 823.293373 49.409004 
L 823.293373 63.792493 
L 824.425971 63.792493 
L 824.425971 48.101414 
L 825.55857 48.101414 
L 825.55857 44.178644 
L 826.691168 44.178644 
L 826.691168 50.193558 
L 827.823767 50.193558 
L 827.823767 28.487564 
L 828.956366 28.487564 
L 828.956366 49.670522 
L 830.088964 49.670522 
L 830.088964 50.716594 
L 831.221563 50.716594 
L 831.221563 28.226046 
L 832.354161 28.226046 
L 832.354161 39.732838 
L 833.48676 39.732838 
L 833.48676 32.93337 
L 834.619358 32.93337 
L 834.619358 44.440162 
L 835.751957 44.440162 
L 835.751957 36.333104 
L 836.884556 36.333104 
L 836.884556 41.824982 
L 838.017154 41.824982 
L 838.017154 32.671852 
L 839.149753 32.671852 
L 839.149753 32.410334 
L 840.282351 32.410334 
L 840.282351 28.487564 
L 841.41495 28.487564 
L 841.41495 24.303277 
L 842.547548 24.303277 
L 842.547548 46.532306 
L 843.680147 46.532306 
L 843.680147 47.31686 
L 844.812746 47.31686 
L 844.812746 40.77891 
L 845.945344 40.77891 
L 845.945344 38.686766 
L 847.077943 38.686766 
L 847.077943 48.885968 
L 848.210541 48.885968 
L 848.210541 48.885968 
" clip-path="url(#p92ba17eba9)" style="fill: none; stroke: #1f77b4; stroke-width: 1.5; stroke-linecap: square"/>
   </g>
   <g id="line2d_34">
    <path d="M 508.431237 238.486511 
L 509.563827 238.486511 
L 509.563827 237.440439 
L 510.696416 237.440439 
L 510.696416 245.547496 
L 511.829006 245.547496 
L 511.829006 241.624726 
L 512.961596 241.624726 
L 512.961596 241.886244 
L 514.094186 241.886244 
L 514.094186 237.963475 
L 515.226776 237.963475 
L 515.226776 235.348295 
L 516.359366 235.348295 
L 516.359366 236.394367 
L 517.491956 236.394367 
L 517.491956 240.578654 
L 518.624545 240.578654 
L 518.624545 235.871331 
L 519.757135 235.871331 
L 519.757135 231.687043 
L 520.889725 231.687043 
L 520.889725 227.241237 
L 522.022315 227.241237 
L 522.022315 232.994633 
L 523.154905 232.994633 
L 523.154905 231.948561 
L 524.287495 231.948561 
L 524.287495 235.609813 
L 525.420084 235.609813 
L 525.420084 228.025791 
L 526.552674 228.025791 
L 526.552674 229.594899 
L 527.685264 229.594899 
L 527.685264 225.410611 
L 528.817854 225.410611 
L 528.817854 234.825259 
L 529.950444 234.825259 
L 529.950444 224.364539 
L 531.083034 224.364539 
L 531.083034 218.088107 
L 532.215624 218.088107 
L 532.215624 234.040705 
L 533.348213 234.040705 
L 533.348213 229.071863 
L 534.480803 229.071863 
L 534.480803 220.180251 
L 535.613393 220.180251 
L 535.613393 228.287309 
L 536.745983 228.287309 
L 536.745983 225.672129 
L 537.878573 225.672129 
L 537.878573 217.826589 
L 539.011163 217.826589 
L 539.011163 223.056949 
L 540.143753 223.056949 
L 540.143753 226.456683 
L 541.276342 226.456683 
L 541.276342 227.502755 
L 542.408932 227.502755 
L 542.408932 223.841503 
L 543.541522 223.841503 
L 543.541522 222.795431 
L 544.674112 222.795431 
L 544.674112 223.056949 
L 545.806702 223.056949 
L 545.806702 215.995963 
L 546.939292 215.995963 
L 546.939292 220.964805 
L 548.071881 220.964805 
L 548.071881 215.995963 
L 549.204471 215.995963 
L 549.204471 214.949891 
L 550.337061 214.949891 
L 550.337061 221.226323 
L 551.469651 221.226323 
L 551.469651 216.257481 
L 552.602241 216.257481 
L 552.602241 211.811676 
L 553.734831 211.811676 
L 553.734831 212.596229 
L 554.867421 212.596229 
L 554.867421 219.657215 
L 556.00001 219.657215 
L 556.00001 213.642301 
L 557.1326 213.642301 
L 557.1326 212.334711 
L 558.26519 212.334711 
L 558.26519 209.719532 
L 559.39778 209.719532 
L 559.39778 209.458014 
L 560.53037 209.458014 
L 560.53037 207.888906 
L 561.66296 207.888906 
L 561.66296 201.612474 
L 562.79555 201.612474 
L 562.79555 210.504086 
L 563.928139 210.504086 
L 563.928139 205.796762 
L 565.060729 205.796762 
L 565.060729 201.873992 
L 566.193319 201.873992 
L 566.193319 206.05828 
L 567.325909 206.05828 
L 567.325909 213.380783 
L 568.458499 213.380783 
L 568.458499 207.888906 
L 569.591089 207.888906 
L 569.591089 192.720862 
L 570.723678 192.720862 
L 570.723678 208.934978 
L 571.856268 208.934978 
L 571.856268 197.689704 
L 572.988858 197.689704 
L 572.988858 202.920064 
L 574.121448 202.920064 
L 574.121448 202.397028 
L 575.254038 202.397028 
L 575.254038 194.028452 
L 576.386628 194.028452 
L 576.386628 199.52033 
L 577.519218 199.52033 
L 577.519218 204.489172 
L 578.651807 204.489172 
L 578.651807 207.627388 
L 579.784397 207.627388 
L 579.784397 193.243898 
L 580.916987 193.243898 
L 580.916987 197.166668 
L 582.049577 197.166668 
L 582.049577 192.720862 
L 583.182167 192.720862 
L 583.182167 195.59756 
L 584.314757 195.59756 
L 584.314757 185.136841 
L 585.447346 185.136841 
L 585.447346 190.890236 
L 586.579936 190.890236 
L 586.579936 193.505416 
L 587.712526 193.505416 
L 587.712526 191.67479 
L 588.845116 191.67479 
L 588.845116 189.582646 
L 589.977706 189.582646 
L 589.977706 188.013538 
L 591.110296 188.013538 
L 591.110296 192.98238 
L 592.242886 192.98238 
L 592.242886 194.551488 
L 593.375475 194.551488 
L 593.375475 192.459344 
L 594.508065 192.459344 
L 594.508065 195.859078 
L 595.640655 195.859078 
L 595.640655 190.3672 
L 596.773245 190.3672 
L 596.773245 191.67479 
L 597.905835 191.67479 
L 597.905835 189.05961 
L 599.038425 189.05961 
L 599.038425 192.720862 
L 600.171015 192.720862 
L 600.171015 180.952553 
L 601.303604 180.952553 
L 601.303604 190.105682 
L 602.436194 190.105682 
L 602.436194 181.214071 
L 603.568784 181.214071 
L 603.568784 187.228984 
L 604.701374 187.228984 
L 604.701374 179.906481 
L 605.833964 179.906481 
L 605.833964 190.890236 
L 606.966554 190.890236 
L 606.966554 181.475589 
L 608.099143 181.475589 
L 608.099143 184.090769 
L 609.231733 184.090769 
L 609.231733 190.3672 
L 610.364323 190.3672 
L 610.364323 185.398358 
L 611.496913 185.398358 
L 611.496913 175.722193 
L 612.629503 175.722193 
L 612.629503 176.768265 
L 613.762093 176.768265 
L 613.762093 181.737107 
L 614.894683 181.737107 
L 614.894683 167.615135 
L 616.027272 167.615135 
L 616.027272 172.322459 
L 617.159862 172.322459 
L 617.159862 192.98238 
L 618.292452 192.98238 
L 618.292452 172.583977 
L 619.425042 172.583977 
L 619.425042 179.906481 
L 620.557632 179.906481 
L 620.557632 174.414603 
L 621.690222 174.414603 
L 621.690222 172.322459 
L 622.822811 172.322459 
L 622.822811 179.121927 
L 623.955401 179.121927 
L 623.955401 176.245229 
L 625.087991 176.245229 
L 625.087991 169.184243 
L 626.220581 169.184243 
L 626.220581 159.246559 
L 627.353171 159.246559 
L 627.353171 174.937639 
L 628.485761 174.937639 
L 628.485761 162.646293 
L 629.618351 162.646293 
L 629.618351 155.062272 
L 630.75094 155.062272 
L 630.75094 148.262804 
L 631.88353 148.262804 
L 631.88353 164.999955 
L 633.01612 164.999955 
L 633.01612 154.539236 
L 634.14871 154.539236 
L 634.14871 160.031113 
L 635.2813 160.031113 
L 635.2813 169.968797 
L 636.41389 169.968797 
L 636.41389 172.322459 
L 637.54648 172.322459 
L 637.54648 163.953883 
L 638.679069 163.953883 
L 638.679069 165.784509 
L 639.811659 165.784509 
L 639.811659 163.169329 
L 640.944249 163.169329 
L 640.944249 150.877984 
L 642.076839 150.877984 
L 642.076839 164.999955 
L 643.209429 164.999955 
L 643.209429 162.123257 
L 644.342019 162.123257 
L 644.342019 158.985041 
L 645.474608 158.985041 
L 645.474608 157.415934 
L 646.607198 157.415934 
L 646.607198 164.738437 
L 648.872378 164.738437 
L 648.872378 155.062272 
L 650.004968 155.062272 
L 650.004968 146.17066 
L 651.137558 146.17066 
L 651.137558 153.231646 
L 652.270148 153.231646 
L 652.270148 157.154416 
L 653.402737 157.154416 
L 653.402737 146.693696 
L 654.535327 146.693696 
L 654.535327 162.384775 
L 655.667917 162.384775 
L 655.667917 154.800754 
L 656.800507 154.800754 
L 656.800507 143.816998 
L 657.933097 143.816998 
L 657.933097 149.831912 
L 659.065687 149.831912 
L 659.065687 151.139502 
L 660.198276 151.139502 
L 660.198276 132.310206 
L 661.330866 132.310206 
L 661.330866 149.308876 
L 662.463456 149.308876 
L 662.463456 150.616466 
L 663.596046 150.616466 
L 663.596046 144.86307 
L 664.728636 144.86307 
L 664.728636 138.32512 
L 665.861226 138.32512 
L 665.861226 135.186904 
L 666.993816 135.186904 
L 666.993816 144.078516 
L 668.126405 144.078516 
L 668.126405 145.909142 
L 669.258995 145.909142 
L 669.258995 142.509408 
L 670.391585 142.509408 
L 670.391585 142.770926 
L 671.524175 142.770926 
L 671.524175 145.386106 
L 672.656765 145.386106 
L 672.656765 143.55548 
L 673.789355 143.55548 
L 673.789355 140.678782 
L 674.921945 140.678782 
L 674.921945 141.463336 
L 676.054534 141.463336 
L 676.054534 143.816998 
L 677.187124 143.816998 
L 677.187124 130.741099 
L 678.319714 130.741099 
L 678.319714 141.463336 
L 679.452304 141.463336 
L 679.452304 131.264135 
L 680.584894 131.264135 
L 680.584894 119.495825 
L 681.717484 119.495825 
L 681.717484 136.494494 
L 682.850073 136.494494 
L 682.850073 119.495825 
L 683.982663 119.495825 
L 683.982663 137.01753 
L 685.115253 137.01753 
L 685.115253 134.925386 
L 686.247843 134.925386 
L 686.247843 128.648955 
L 688.513023 128.648955 
L 688.513023 129.171991 
L 689.645613 129.171991 
L 689.645613 124.987703 
L 690.778202 124.987703 
L 690.778202 134.140832 
L 691.910792 134.140832 
L 691.910792 124.726185 
L 694.175972 124.726185 
L 694.175972 127.079847 
L 695.308562 127.079847 
L 695.308562 129.433509 
L 696.441152 129.433509 
L 696.441152 124.726185 
L 697.573742 124.726185 
L 697.573742 127.602883 
L 698.706331 127.602883 
L 698.706331 113.480911 
L 699.838921 113.480911 
L 699.838921 132.833242 
L 700.971511 132.833242 
L 700.971511 124.203149 
L 702.104101 124.203149 
L 702.104101 116.619127 
L 703.236691 116.619127 
L 703.236691 122.372523 
L 704.369281 122.372523 
L 704.369281 123.680113 
L 705.50187 123.680113 
L 705.50187 118.711271 
L 706.63446 118.711271 
L 706.63446 126.818329 
L 707.76705 126.818329 
L 707.76705 126.033775 
L 708.89964 126.033775 
L 708.89964 122.895559 
L 710.03223 122.895559 
L 710.03223 126.033775 
L 711.16482 126.033775 
L 711.16482 124.987703 
L 712.29741 124.987703 
L 712.29741 117.665199 
L 713.429999 117.665199 
L 713.429999 108.512069 
L 714.562589 108.512069 
L 714.562589 121.849487 
L 715.695179 121.849487 
L 715.695179 115.573055 
L 716.827769 115.573055 
L 716.827769 111.911803 
L 717.960359 111.911803 
L 717.960359 114.003947 
L 719.092949 114.003947 
L 719.092949 122.634041 
L 720.225538 122.634041 
L 720.225538 111.388767 
L 721.358128 111.388767 
L 721.358128 124.464667 
L 722.490718 124.464667 
L 722.490718 118.188235 
L 723.623308 118.188235 
L 723.623308 118.711271 
L 724.755898 118.711271 
L 724.755898 108.773587 
L 725.888488 108.773587 
L 725.888488 104.5893 
L 727.021078 104.5893 
L 727.021078 98.835904 
L 728.153667 98.835904 
L 728.153667 117.142163 
L 729.286257 117.142163 
L 729.286257 106.158407 
L 730.418847 106.158407 
L 730.418847 113.219393 
L 731.551437 113.219393 
L 731.551437 99.35894 
L 732.684027 99.35894 
L 732.684027 110.081177 
L 733.816617 110.081177 
L 733.816617 105.373854 
L 734.949207 105.373854 
L 734.949207 100.928048 
L 736.081796 100.928048 
L 736.081796 93.082508 
L 737.214386 93.082508 
L 737.214386 99.881976 
L 738.346976 99.881976 
L 738.346976 97.528314 
L 739.479566 97.528314 
L 739.479566 110.342695 
L 740.612156 110.342695 
L 740.612156 103.543228 
L 741.744746 103.543228 
L 741.744746 95.959206 
L 744.009925 95.959206 
L 744.009925 90.20581 
L 745.142515 90.20581 
L 745.142515 103.804746 
L 746.275105 103.804746 
L 746.275105 101.189566 
L 747.407695 101.189566 
L 747.407695 85.236968 
L 748.540285 85.236968 
L 748.540285 114.003947 
L 749.672875 114.003947 
L 749.672875 86.28304 
L 750.805464 86.28304 
L 750.805464 93.082508 
L 751.938054 93.082508 
L 751.938054 94.390098 
L 753.070644 94.390098 
L 753.070644 88.89822 
L 755.335824 88.89822 
L 755.335824 92.82099 
L 756.468414 92.82099 
L 756.468414 93.344026 
L 757.601003 93.344026 
L 757.601003 87.067594 
L 758.733593 87.067594 
L 758.733593 99.35894 
L 759.866183 99.35894 
L 759.866183 89.944292 
L 760.998773 89.944292 
L 760.998773 80.006608 
L 762.131363 80.006608 
L 762.131363 93.867062 
L 763.263953 93.867062 
L 763.263953 70.853479 
L 764.396543 70.853479 
L 764.396543 88.636702 
L 765.529132 88.636702 
L 765.529132 92.559472 
L 766.661722 92.559472 
L 766.661722 89.682774 
L 767.794312 89.682774 
L 767.794312 80.529644 
L 768.926902 80.529644 
L 768.926902 78.175983 
L 770.059492 78.175983 
L 770.059492 85.236968 
L 771.192082 85.236968 
L 771.192082 92.036436 
L 772.324672 92.036436 
L 772.324672 77.391429 
L 773.457261 77.391429 
L 773.457261 86.544558 
L 774.589851 86.544558 
L 774.589851 75.037767 
L 775.722441 75.037767 
L 775.722441 78.437501 
L 776.855031 78.437501 
L 776.855031 66.669191 
L 777.987621 66.669191 
L 777.987621 67.976781 
L 779.120211 67.976781 
L 779.120211 84.713932 
L 780.2528 84.713932 
L 780.2528 72.161069 
L 781.38539 72.161069 
L 781.38539 74.776249 
L 782.51798 74.776249 
L 782.51798 82.883306 
L 783.65057 82.883306 
L 783.65057 61.961867 
L 784.78316 61.961867 
L 784.78316 83.929378 
L 785.91575 83.929378 
L 785.91575 78.699019 
L 787.04834 78.699019 
L 787.04834 70.591961 
L 788.180929 70.591961 
L 788.180929 78.437501 
L 789.313519 78.437501 
L 789.313519 66.930709 
L 790.446109 66.930709 
L 790.446109 70.853479 
L 791.578699 70.853479 
L 791.578699 68.761335 
L 792.711289 68.761335 
L 792.711289 69.022853 
L 793.843879 69.022853 
L 793.843879 53.593291 
L 794.976469 53.593291 
L 794.976469 75.560803 
L 796.109058 75.560803 
L 796.109058 76.083839 
L 797.241648 76.083839 
L 797.241648 66.407673 
L 798.374238 66.407673 
L 798.374238 66.669191 
L 799.506828 66.669191 
L 799.506828 53.331773 
L 800.639418 53.331773 
L 800.639418 75.037767 
L 801.772008 75.037767 
L 801.772008 61.961867 
L 802.904597 61.961867 
L 802.904597 62.223385 
L 804.037187 62.223385 
L 804.037187 60.654277 
L 805.169777 60.654277 
L 805.169777 58.562133 
L 806.302367 58.562133 
L 806.302367 73.991695 
L 807.434957 73.991695 
L 807.434957 62.746421 
L 808.567547 62.746421 
L 808.567547 61.700349 
L 809.700137 61.700349 
L 809.700137 63.007939 
L 810.832726 63.007939 
L 810.832726 39.994356 
L 811.965316 39.994356 
L 811.965316 52.285702 
L 813.097906 52.285702 
L 813.097906 60.131241 
L 814.230496 60.131241 
L 814.230496 69.545889 
L 815.363086 69.545889 
L 815.363086 53.854809 
L 816.495676 53.854809 
L 816.495676 54.900881 
L 817.628265 54.900881 
L 817.628265 62.484903 
L 818.760855 62.484903 
L 818.760855 61.438831 
L 819.893445 61.438831 
L 819.893445 42.871054 
L 821.026035 42.871054 
L 821.026035 52.285702 
L 822.158625 52.285702 
L 822.158625 34.763996 
L 823.291215 34.763996 
L 823.291215 42.348018 
L 824.423805 42.348018 
L 824.423805 56.993025 
L 825.556394 56.993025 
L 825.556394 36.594622 
L 826.688984 36.594622 
L 826.688984 44.440162 
L 827.821574 44.440162 
L 827.821574 40.255874 
L 828.954164 40.255874 
L 828.954164 63.792493 
L 830.086754 63.792493 
L 830.086754 38.16373 
L 831.219344 38.16373 
L 831.219344 41.301946 
L 832.351934 41.301946 
L 832.351934 31.62578 
L 833.484523 31.62578 
L 833.484523 44.440162 
L 834.617113 44.440162 
L 834.617113 50.978112 
L 835.749703 50.978112 
L 835.749703 46.793824 
L 836.882293 46.793824 
L 836.882293 26.918456 
L 838.014883 26.918456 
L 838.014883 18.549881 
L 839.147473 18.549881 
L 839.147473 43.917126 
L 840.280062 43.917126 
L 840.280062 25.087831 
L 841.412652 25.087831 
L 841.412652 45.224716 
L 842.545242 45.224716 
L 842.545242 27.179974 
L 843.677832 27.179974 
L 843.677832 32.93337 
L 844.810422 32.93337 
L 844.810422 27.441492 
L 845.943012 27.441492 
L 845.943012 41.040428 
L 847.075602 41.040428 
L 847.075602 35.810068 
L 848.208191 35.810068 
L 848.208191 35.810068 
" clip-path="url(#p92ba17eba9)" style="fill: none; stroke: #ff7f0e; stroke-width: 1.5; stroke-linecap: square"/>
   </g>
   <g id="patch_9">
    <path d="M 491.441989 257.158895 
L 491.441989 7.2 
" style="fill: none; stroke: #000000; stroke-width: 0.8; stroke-linejoin: miter; stroke-linecap: square"/>
   </g>
   <g id="patch_10">
    <path d="M 865.19952 257.158895 
L 865.19952 7.2 
" style="fill: none; stroke: #000000; stroke-width: 0.8; stroke-linejoin: miter; stroke-linecap: square"/>
   </g>
   <g id="patch_11">
    <path d="M 491.441989 257.158895 
L 865.19952 257.158895 
" style="fill: none; stroke: #000000; stroke-width: 0.8; stroke-linejoin: miter; stroke-linecap: square"/>
   </g>
   <g id="patch_12">
    <path d="M 491.441989 7.2 
L 865.19952 7.2 
" style="fill: none; stroke: #000000; stroke-width: 0.8; stroke-linejoin: miter; stroke-linecap: square"/>
   </g>
   <g id="legend_2">
    <g id="patch_13">
     <path d="M 498.441989 44.55625 
L 566.999802 44.55625 
Q 568.999802 44.55625 568.999802 42.55625 
L 568.999802 14.2 
Q 568.999802 12.2 566.999802 12.2 
L 498.441989 12.2 
Q 496.441989 12.2 496.441989 14.2 
L 496.441989 42.55625 
Q 496.441989 44.55625 498.441989 44.55625 
z
" style="fill: #ffffff; opacity: 0.8; stroke: #cccccc; stroke-linejoin: miter"/>
    </g>
    <g id="line2d_35">
     <path d="M 500.441989 20.298437 
L 500.441989 20.298437 
L 510.441989 20.298437 
L 510.441989 20.298437 
L 520.441989 20.298437 
" style="fill: none; stroke: #1f77b4; stroke-width: 1.5; stroke-linecap: square"/>
    </g>
    <g id="text_35">
     <!-- pulse:0 -->
     <g transform="translate(528.441989 23.798437) scale(0.1 -0.1)">
      <use xlink:href="#DejaVuSans-70"/>
      <use xlink:href="#DejaVuSans-75" transform="translate(63.476562 0)"/>
      <use xlink:href="#DejaVuSans-6c" transform="translate(126.855469 0)"/>
      <use xlink:href="#DejaVuSans-73" transform="translate(154.638672 0)"/>
      <use xlink:href="#DejaVuSans-65" transform="translate(206.738281 0)"/>
      <use xlink:href="#DejaVuSans-3a" transform="translate(268.261719 0)"/>
      <use xlink:href="#DejaVuSans-30" transform="translate(301.953125 0)"/>
     </g>
    </g>
    <g id="line2d_36">
     <path d="M 500.441989 34.976562 
L 500.441989 34.976562 
L 510.441989 34.976562 
L 510.441989 34.976562 
L 520.441989 34.976562 
" style="fill: none; stroke: #ff7f0e; stroke-width: 1.5; stroke-linecap: square"/>
    </g>
    <g id="text_36">
     <!-- pulse:1 -->
     <g transform="translate(528.441989 38.476562) scale(0.1 -0.1)">
      <use xlink:href="#DejaVuSans-70"/>
      <use xlink:href="#DejaVuSans-75" transform="translate(63.476562 0)"/>
      <use xlink:href="#DejaVuSans-6c" transform="translate(126.855469 0)"/>
      <use xlink:href="#DejaVuSans-73" transform="translate(154.638672 0)"/>
      <use xlink:href="#DejaVuSans-65" transform="translate(206.738281 0)"/>
      <use xlink:href="#DejaVuSans-3a" transform="translate(268.261719 0)"/>
      <use xlink:href="#DejaVuSans-31" transform="translate(301.953125 0)"/>
     </g>
    </g>
   </g>
  </g>
 </g>
 <defs>
  <clipPath id="pe85f4ee3d6">
   <rect x="53.328125" y="7.2" width="373.757531" height="249.958895"/>
  </clipPath>
  <clipPath id="p92ba17eba9">
   <rect x="491.441989" y="7.2" width="373.757531" height="249.958895"/>
  </clipPath>
 </defs>
</svg>
