<?xml version="1.0" encoding="utf-8" standalone="no"?>
<!DOCTYPE svg PUBLIC "-//W3C//DTD SVG 1.1//EN"
  "http://www.w3.org/Graphics/SVG/1.1/DTD/svg11.dtd">
<svg xmlns:xlink="http://www.w3.org/1999/xlink" width="872.39952pt" height="296.39952pt" viewBox="0 0 872.39952 296.39952" xmlns="http://www.w3.org/2000/svg" version="1.1">
 <metadata>
  <rdf:RDF xmlns:dc="http://purl.org/dc/elements/1.1/" xmlns:cc="http://creativecommons.org/ns#" xmlns:rdf="http://www.w3.org/1999/02/22-rdf-syntax-ns#">
   <cc:Work>
    <dc:type rdf:resource="http://purl.org/dc/dcmitype/StillImage"/>
    <dc:date>2025-04-29T09:31:49.494828</dc:date>
    <dc:format>image/svg+xml</dc:format>
    <dc:creator>
     <cc:Agent>
      <dc:title>Matplotlib v3.10.1, https://matplotlib.org/</dc:title>
     </cc:Agent>
    </dc:creator>
   </cc:Work>
  </rdf:RDF>
 </metadata>
 <defs>
  <style type="text/css">*{stroke-linejoin: round; stroke-linecap: butt}</style>
 </defs>
 <g id="figure_1">
  <g id="patch_1">
   <path d="M 0 296.39952 
L 872.39952 296.39952 
L 872.39952 0 
L 0 0 
z
" style="fill: #ffffff"/>
  </g>
  <g id="axes_1">
   <g id="patch_2">
    <path d="M 53.328125 257.158895 
L 431.87976 257.158895 
L 431.87976 7.2 
L 53.328125 7.2 
z
" style="fill: #ffffff"/>
   </g>
   <g id="matplotlib.axis_1">
    <g id="xtick_1">
     <g id="line2d_1">
      <defs>
       <path id="ma89069d6c0" d="M 0 0 
L 0 3.5 
" style="stroke: #000000; stroke-width: 0.8"/>
      </defs>
      <g>
       <use xlink:href="#ma89069d6c0" x="64.482817" y="257.158895" style="stroke: #000000; stroke-width: 0.8"/>
      </g>
     </g>
     <g id="text_1">
      <!-- 0 -->
      <g transform="translate(61.301567 271.757332) scale(0.1 -0.1)">
       <defs>
        <path id="DejaVuSans-30" d="M 2034 4250 
Q 1547 4250 1301 3770 
Q 1056 3291 1056 2328 
Q 1056 1369 1301 889 
Q 1547 409 2034 409 
Q 2525 409 2770 889 
Q 3016 1369 3016 2328 
Q 3016 3291 2770 3770 
Q 2525 4250 2034 4250 
z
M 2034 4750 
Q 2819 4750 3233 4129 
Q 3647 3509 3647 2328 
Q 3647 1150 3233 529 
Q 2819 -91 2034 -91 
Q 1250 -91 836 529 
Q 422 1150 422 2328 
Q 422 3509 836 4129 
Q 1250 4750 2034 4750 
z
" transform="scale(0.015625)"/>
       </defs>
       <use xlink:href="#DejaVuSans-30"/>
      </g>
     </g>
    </g>
    <g id="xtick_2">
     <g id="line2d_2">
      <g>
       <use xlink:href="#ma89069d6c0" x="122.868586" y="257.158895" style="stroke: #000000; stroke-width: 0.8"/>
      </g>
     </g>
     <g id="text_2">
      <!-- 1000 -->
      <g transform="translate(110.143586 271.757332) scale(0.1 -0.1)">
       <defs>
        <path id="DejaVuSans-31" d="M 794 531 
L 1825 531 
L 1825 4091 
L 703 3866 
L 703 4441 
L 1819 4666 
L 2450 4666 
L 2450 531 
L 3481 531 
L 3481 0 
L 794 0 
L 794 531 
z
" transform="scale(0.015625)"/>
       </defs>
       <use xlink:href="#DejaVuSans-31"/>
       <use xlink:href="#DejaVuSans-30" transform="translate(63.623047 0)"/>
       <use xlink:href="#DejaVuSans-30" transform="translate(127.246094 0)"/>
       <use xlink:href="#DejaVuSans-30" transform="translate(190.869141 0)"/>
      </g>
     </g>
    </g>
    <g id="xtick_3">
     <g id="line2d_3">
      <g>
       <use xlink:href="#ma89069d6c0" x="181.254355" y="257.158895" style="stroke: #000000; stroke-width: 0.8"/>
      </g>
     </g>
     <g id="text_3">
      <!-- 2000 -->
      <g transform="translate(168.529355 271.757332) scale(0.1 -0.1)">
       <defs>
        <path id="DejaVuSans-32" d="M 1228 531 
L 3431 531 
L 3431 0 
L 469 0 
L 469 531 
Q 828 903 1448 1529 
Q 2069 2156 2228 2338 
Q 2531 2678 2651 2914 
Q 2772 3150 2772 3378 
Q 2772 3750 2511 3984 
Q 2250 4219 1831 4219 
Q 1534 4219 1204 4116 
Q 875 4013 500 3803 
L 500 4441 
Q 881 4594 1212 4672 
Q 1544 4750 1819 4750 
Q 2544 4750 2975 4387 
Q 3406 4025 3406 3419 
Q 3406 3131 3298 2873 
Q 3191 2616 2906 2266 
Q 2828 2175 2409 1742 
Q 1991 1309 1228 531 
z
" transform="scale(0.015625)"/>
       </defs>
       <use xlink:href="#DejaVuSans-32"/>
       <use xlink:href="#DejaVuSans-30" transform="translate(63.623047 0)"/>
       <use xlink:href="#DejaVuSans-30" transform="translate(127.246094 0)"/>
       <use xlink:href="#DejaVuSans-30" transform="translate(190.869141 0)"/>
      </g>
     </g>
    </g>
    <g id="xtick_4">
     <g id="line2d_4">
      <g>
       <use xlink:href="#ma89069d6c0" x="239.640125" y="257.158895" style="stroke: #000000; stroke-width: 0.8"/>
      </g>
     </g>
     <g id="text_4">
      <!-- 3000 -->
      <g transform="translate(226.915125 271.757332) scale(0.1 -0.1)">
       <defs>
        <path id="DejaVuSans-33" d="M 2597 2516 
Q 3050 2419 3304 2112 
Q 3559 1806 3559 1356 
Q 3559 666 3084 287 
Q 2609 -91 1734 -91 
Q 1441 -91 1130 -33 
Q 819 25 488 141 
L 488 750 
Q 750 597 1062 519 
Q 1375 441 1716 441 
Q 2309 441 2620 675 
Q 2931 909 2931 1356 
Q 2931 1769 2642 2001 
Q 2353 2234 1838 2234 
L 1294 2234 
L 1294 2753 
L 1863 2753 
Q 2328 2753 2575 2939 
Q 2822 3125 2822 3475 
Q 2822 3834 2567 4026 
Q 2313 4219 1838 4219 
Q 1578 4219 1281 4162 
Q 984 4106 628 3988 
L 628 4550 
Q 988 4650 1302 4700 
Q 1616 4750 1894 4750 
Q 2613 4750 3031 4423 
Q 3450 4097 3450 3541 
Q 3450 3153 3228 2886 
Q 3006 2619 2597 2516 
z
" transform="scale(0.015625)"/>
       </defs>
       <use xlink:href="#DejaVuSans-33"/>
       <use xlink:href="#DejaVuSans-30" transform="translate(63.623047 0)"/>
       <use xlink:href="#DejaVuSans-30" transform="translate(127.246094 0)"/>
       <use xlink:href="#DejaVuSans-30" transform="translate(190.869141 0)"/>
      </g>
     </g>
    </g>
    <g id="xtick_5">
     <g id="line2d_5">
      <g>
       <use xlink:href="#ma89069d6c0" x="298.025894" y="257.158895" style="stroke: #000000; stroke-width: 0.8"/>
      </g>
     </g>
     <g id="text_5">
      <!-- 4000 -->
      <g transform="translate(285.300894 271.757332) scale(0.1 -0.1)">
       <defs>
        <path id="DejaVuSans-34" d="M 2419 4116 
L 825 1625 
L 2419 1625 
L 2419 4116 
z
M 2253 4666 
L 3047 4666 
L 3047 1625 
L 3713 1625 
L 3713 1100 
L 3047 1100 
L 3047 0 
L 2419 0 
L 2419 1100 
L 313 1100 
L 313 1709 
L 2253 4666 
z
" transform="scale(0.015625)"/>
       </defs>
       <use xlink:href="#DejaVuSans-34"/>
       <use xlink:href="#DejaVuSans-30" transform="translate(63.623047 0)"/>
       <use xlink:href="#DejaVuSans-30" transform="translate(127.246094 0)"/>
       <use xlink:href="#DejaVuSans-30" transform="translate(190.869141 0)"/>
      </g>
     </g>
    </g>
    <g id="xtick_6">
     <g id="line2d_6">
      <g>
       <use xlink:href="#ma89069d6c0" x="356.411663" y="257.158895" style="stroke: #000000; stroke-width: 0.8"/>
      </g>
     </g>
     <g id="text_6">
      <!-- 5000 -->
      <g transform="translate(343.686663 271.757332) scale(0.1 -0.1)">
       <defs>
        <path id="DejaVuSans-35" d="M 691 4666 
L 3169 4666 
L 3169 4134 
L 1269 4134 
L 1269 2991 
Q 1406 3038 1543 3061 
Q 1681 3084 1819 3084 
Q 2600 3084 3056 2656 
Q 3513 2228 3513 1497 
Q 3513 744 3044 326 
Q 2575 -91 1722 -91 
Q 1428 -91 1123 -41 
Q 819 9 494 109 
L 494 744 
Q 775 591 1075 516 
Q 1375 441 1709 441 
Q 2250 441 2565 725 
Q 2881 1009 2881 1497 
Q 2881 1984 2565 2268 
Q 2250 2553 1709 2553 
Q 1456 2553 1204 2497 
Q 953 2441 691 2322 
L 691 4666 
z
" transform="scale(0.015625)"/>
       </defs>
       <use xlink:href="#DejaVuSans-35"/>
       <use xlink:href="#DejaVuSans-30" transform="translate(63.623047 0)"/>
       <use xlink:href="#DejaVuSans-30" transform="translate(127.246094 0)"/>
       <use xlink:href="#DejaVuSans-30" transform="translate(190.869141 0)"/>
      </g>
     </g>
    </g>
    <g id="xtick_7">
     <g id="line2d_7">
      <g>
       <use xlink:href="#ma89069d6c0" x="414.797433" y="257.158895" style="stroke: #000000; stroke-width: 0.8"/>
      </g>
     </g>
     <g id="text_7">
      <!-- 6000 -->
      <g transform="translate(402.072433 271.757332) scale(0.1 -0.1)">
       <defs>
        <path id="DejaVuSans-36" d="M 2113 2584 
Q 1688 2584 1439 2293 
Q 1191 2003 1191 1497 
Q 1191 994 1439 701 
Q 1688 409 2113 409 
Q 2538 409 2786 701 
Q 3034 994 3034 1497 
Q 3034 2003 2786 2293 
Q 2538 2584 2113 2584 
z
M 3366 4563 
L 3366 3988 
Q 3128 4100 2886 4159 
Q 2644 4219 2406 4219 
Q 1781 4219 1451 3797 
Q 1122 3375 1075 2522 
Q 1259 2794 1537 2939 
Q 1816 3084 2150 3084 
Q 2853 3084 3261 2657 
Q 3669 2231 3669 1497 
Q 3669 778 3244 343 
Q 2819 -91 2113 -91 
Q 1303 -91 875 529 
Q 447 1150 447 2328 
Q 447 3434 972 4092 
Q 1497 4750 2381 4750 
Q 2619 4750 2861 4703 
Q 3103 4656 3366 4563 
z
" transform="scale(0.015625)"/>
       </defs>
       <use xlink:href="#DejaVuSans-36"/>
       <use xlink:href="#DejaVuSans-30" transform="translate(63.623047 0)"/>
       <use xlink:href="#DejaVuSans-30" transform="translate(127.246094 0)"/>
       <use xlink:href="#DejaVuSans-30" transform="translate(190.869141 0)"/>
      </g>
     </g>
    </g>
    <g id="text_8">
     <!-- birth_time [µs] -->
     <g transform="translate(205.78363 285.435457) scale(0.1 -0.1)">
      <defs>
       <path id="DejaVuSans-62" d="M 3116 1747 
Q 3116 2381 2855 2742 
Q 2594 3103 2138 3103 
Q 1681 3103 1420 2742 
Q 1159 2381 1159 1747 
Q 1159 1113 1420 752 
Q 1681 391 2138 391 
Q 2594 391 2855 752 
Q 3116 1113 3116 1747 
z
M 1159 2969 
Q 1341 3281 1617 3432 
Q 1894 3584 2278 3584 
Q 2916 3584 3314 3078 
Q 3713 2572 3713 1747 
Q 3713 922 3314 415 
Q 2916 -91 2278 -91 
Q 1894 -91 1617 61 
Q 1341 213 1159 525 
L 1159 0 
L 581 0 
L 581 4863 
L 1159 4863 
L 1159 2969 
z
" transform="scale(0.015625)"/>
       <path id="DejaVuSans-69" d="M 603 3500 
L 1178 3500 
L 1178 0 
L 603 0 
L 603 3500 
z
M 603 4863 
L 1178 4863 
L 1178 4134 
L 603 4134 
L 603 4863 
z
" transform="scale(0.015625)"/>
       <path id="DejaVuSans-72" d="M 2631 2963 
Q 2534 3019 2420 3045 
Q 2306 3072 2169 3072 
Q 1681 3072 1420 2755 
Q 1159 2438 1159 1844 
L 1159 0 
L 581 0 
L 581 3500 
L 1159 3500 
L 1159 2956 
Q 1341 3275 1631 3429 
Q 1922 3584 2338 3584 
Q 2397 3584 2469 3576 
Q 2541 3569 2628 3553 
L 2631 2963 
z
" transform="scale(0.015625)"/>
       <path id="DejaVuSans-74" d="M 1172 4494 
L 1172 3500 
L 2356 3500 
L 2356 3053 
L 1172 3053 
L 1172 1153 
Q 1172 725 1289 603 
Q 1406 481 1766 481 
L 2356 481 
L 2356 0 
L 1766 0 
Q 1100 0 847 248 
Q 594 497 594 1153 
L 594 3053 
L 172 3053 
L 172 3500 
L 594 3500 
L 594 4494 
L 1172 4494 
z
" transform="scale(0.015625)"/>
       <path id="DejaVuSans-68" d="M 3513 2113 
L 3513 0 
L 2938 0 
L 2938 2094 
Q 2938 2591 2744 2837 
Q 2550 3084 2163 3084 
Q 1697 3084 1428 2787 
Q 1159 2491 1159 1978 
L 1159 0 
L 581 0 
L 581 4863 
L 1159 4863 
L 1159 2956 
Q 1366 3272 1645 3428 
Q 1925 3584 2291 3584 
Q 2894 3584 3203 3211 
Q 3513 2838 3513 2113 
z
" transform="scale(0.015625)"/>
       <path id="DejaVuSans-5f" d="M 3263 -1063 
L 3263 -1509 
L -63 -1509 
L -63 -1063 
L 3263 -1063 
z
" transform="scale(0.015625)"/>
       <path id="DejaVuSans-6d" d="M 3328 2828 
Q 3544 3216 3844 3400 
Q 4144 3584 4550 3584 
Q 5097 3584 5394 3201 
Q 5691 2819 5691 2113 
L 5691 0 
L 5113 0 
L 5113 2094 
Q 5113 2597 4934 2840 
Q 4756 3084 4391 3084 
Q 3944 3084 3684 2787 
Q 3425 2491 3425 1978 
L 3425 0 
L 2847 0 
L 2847 2094 
Q 2847 2600 2669 2842 
Q 2491 3084 2119 3084 
Q 1678 3084 1418 2786 
Q 1159 2488 1159 1978 
L 1159 0 
L 581 0 
L 581 3500 
L 1159 3500 
L 1159 2956 
Q 1356 3278 1631 3431 
Q 1906 3584 2284 3584 
Q 2666 3584 2933 3390 
Q 3200 3197 3328 2828 
z
" transform="scale(0.015625)"/>
       <path id="DejaVuSans-65" d="M 3597 1894 
L 3597 1613 
L 953 1613 
Q 991 1019 1311 708 
Q 1631 397 2203 397 
Q 2534 397 2845 478 
Q 3156 559 3463 722 
L 3463 178 
Q 3153 47 2828 -22 
Q 2503 -91 2169 -91 
Q 1331 -91 842 396 
Q 353 884 353 1716 
Q 353 2575 817 3079 
Q 1281 3584 2069 3584 
Q 2775 3584 3186 3129 
Q 3597 2675 3597 1894 
z
M 3022 2063 
Q 3016 2534 2758 2815 
Q 2500 3097 2075 3097 
Q 1594 3097 1305 2825 
Q 1016 2553 972 2059 
L 3022 2063 
z
" transform="scale(0.015625)"/>
       <path id="DejaVuSans-20" transform="scale(0.015625)"/>
       <path id="DejaVuSans-5b" d="M 550 4863 
L 1875 4863 
L 1875 4416 
L 1125 4416 
L 1125 -397 
L 1875 -397 
L 1875 -844 
L 550 -844 
L 550 4863 
z
" transform="scale(0.015625)"/>
       <path id="DejaVuSans-b5" d="M 544 -1331 
L 544 3500 
L 1119 3500 
L 1119 1325 
Q 1119 872 1334 640 
Q 1550 409 1972 409 
Q 2434 409 2667 671 
Q 2900 934 2900 1459 
L 2900 3500 
L 3475 3500 
L 3475 806 
Q 3475 619 3529 530 
Q 3584 441 3700 441 
Q 3728 441 3778 458 
Q 3828 475 3916 513 
L 3916 50 
Q 3788 -22 3673 -56 
Q 3559 -91 3450 -91 
Q 3234 -91 3106 31 
Q 2978 153 2931 403 
Q 2775 156 2548 32 
Q 2322 -91 2016 -91 
Q 1697 -91 1473 31 
Q 1250 153 1119 397 
L 1119 -1331 
L 544 -1331 
z
" transform="scale(0.015625)"/>
       <path id="DejaVuSans-73" d="M 2834 3397 
L 2834 2853 
Q 2591 2978 2328 3040 
Q 2066 3103 1784 3103 
Q 1356 3103 1142 2972 
Q 928 2841 928 2578 
Q 928 2378 1081 2264 
Q 1234 2150 1697 2047 
L 1894 2003 
Q 2506 1872 2764 1633 
Q 3022 1394 3022 966 
Q 3022 478 2636 193 
Q 2250 -91 1575 -91 
Q 1294 -91 989 -36 
Q 684 19 347 128 
L 347 722 
Q 666 556 975 473 
Q 1284 391 1588 391 
Q 1994 391 2212 530 
Q 2431 669 2431 922 
Q 2431 1156 2273 1281 
Q 2116 1406 1581 1522 
L 1381 1569 
Q 847 1681 609 1914 
Q 372 2147 372 2553 
Q 372 3047 722 3315 
Q 1072 3584 1716 3584 
Q 2034 3584 2315 3537 
Q 2597 3491 2834 3397 
z
" transform="scale(0.015625)"/>
       <path id="DejaVuSans-5d" d="M 1947 4863 
L 1947 -844 
L 622 -844 
L 622 -397 
L 1369 -397 
L 1369 4416 
L 622 4416 
L 622 4863 
L 1947 4863 
z
" transform="scale(0.015625)"/>
      </defs>
      <use xlink:href="#DejaVuSans-62"/>
      <use xlink:href="#DejaVuSans-69" transform="translate(63.476562 0)"/>
      <use xlink:href="#DejaVuSans-72" transform="translate(91.259766 0)"/>
      <use xlink:href="#DejaVuSans-74" transform="translate(132.373047 0)"/>
      <use xlink:href="#DejaVuSans-68" transform="translate(171.582031 0)"/>
      <use xlink:href="#DejaVuSans-5f" transform="translate(234.960938 0)"/>
      <use xlink:href="#DejaVuSans-74" transform="translate(284.960938 0)"/>
      <use xlink:href="#DejaVuSans-69" transform="translate(324.169922 0)"/>
      <use xlink:href="#DejaVuSans-6d" transform="translate(351.953125 0)"/>
      <use xlink:href="#DejaVuSans-65" transform="translate(449.365234 0)"/>
      <use xlink:href="#DejaVuSans-20" transform="translate(510.888672 0)"/>
      <use xlink:href="#DejaVuSans-5b" transform="translate(542.675781 0)"/>
      <use xlink:href="#DejaVuSans-b5" transform="translate(581.689453 0)"/>
      <use xlink:href="#DejaVuSans-73" transform="translate(645.3125 0)"/>
      <use xlink:href="#DejaVuSans-5d" transform="translate(697.412109 0)"/>
     </g>
    </g>
   </g>
   <g id="matplotlib.axis_2">
    <g id="ytick_1">
     <g id="line2d_8">
      <defs>
       <path id="mad7ce34fe3" d="M 0 0 
L -3.5 0 
" style="stroke: #000000; stroke-width: 0.8"/>
      </defs>
      <g>
       <use xlink:href="#mad7ce34fe3" x="53.328125" y="246.457215" style="stroke: #000000; stroke-width: 0.8"/>
      </g>
     </g>
     <g id="text_9">
      <!-- 0 -->
      <g transform="translate(39.965625 250.256434) scale(0.1 -0.1)">
       <use xlink:href="#DejaVuSans-30"/>
      </g>
     </g>
    </g>
    <g id="ytick_2">
     <g id="line2d_9">
      <g>
       <use xlink:href="#mad7ce34fe3" x="53.328125" y="213.452806" style="stroke: #000000; stroke-width: 0.8"/>
      </g>
     </g>
     <g id="text_10">
      <!-- 200 -->
      <g transform="translate(27.240625 217.252025) scale(0.1 -0.1)">
       <use xlink:href="#DejaVuSans-32"/>
       <use xlink:href="#DejaVuSans-30" transform="translate(63.623047 0)"/>
       <use xlink:href="#DejaVuSans-30" transform="translate(127.246094 0)"/>
      </g>
     </g>
    </g>
    <g id="ytick_3">
     <g id="line2d_10">
      <g>
       <use xlink:href="#mad7ce34fe3" x="53.328125" y="180.448396" style="stroke: #000000; stroke-width: 0.8"/>
      </g>
     </g>
     <g id="text_11">
      <!-- 400 -->
      <g transform="translate(27.240625 184.247615) scale(0.1 -0.1)">
       <use xlink:href="#DejaVuSans-34"/>
       <use xlink:href="#DejaVuSans-30" transform="translate(63.623047 0)"/>
       <use xlink:href="#DejaVuSans-30" transform="translate(127.246094 0)"/>
      </g>
     </g>
    </g>
    <g id="ytick_4">
     <g id="line2d_11">
      <g>
       <use xlink:href="#mad7ce34fe3" x="53.328125" y="147.443987" style="stroke: #000000; stroke-width: 0.8"/>
      </g>
     </g>
     <g id="text_12">
      <!-- 600 -->
      <g transform="translate(27.240625 151.243206) scale(0.1 -0.1)">
       <use xlink:href="#DejaVuSans-36"/>
       <use xlink:href="#DejaVuSans-30" transform="translate(63.623047 0)"/>
       <use xlink:href="#DejaVuSans-30" transform="translate(127.246094 0)"/>
      </g>
     </g>
    </g>
    <g id="ytick_5">
     <g id="line2d_12">
      <g>
       <use xlink:href="#mad7ce34fe3" x="53.328125" y="114.439577" style="stroke: #000000; stroke-width: 0.8"/>
      </g>
     </g>
     <g id="text_13">
      <!-- 800 -->
      <g transform="translate(27.240625 118.238796) scale(0.1 -0.1)">
       <defs>
        <path id="DejaVuSans-38" d="M 2034 2216 
Q 1584 2216 1326 1975 
Q 1069 1734 1069 1313 
Q 1069 891 1326 650 
Q 1584 409 2034 409 
Q 2484 409 2743 651 
Q 3003 894 3003 1313 
Q 3003 1734 2745 1975 
Q 2488 2216 2034 2216 
z
M 1403 2484 
Q 997 2584 770 2862 
Q 544 3141 544 3541 
Q 544 4100 942 4425 
Q 1341 4750 2034 4750 
Q 2731 4750 3128 4425 
Q 3525 4100 3525 3541 
Q 3525 3141 3298 2862 
Q 3072 2584 2669 2484 
Q 3125 2378 3379 2068 
Q 3634 1759 3634 1313 
Q 3634 634 3220 271 
Q 2806 -91 2034 -91 
Q 1263 -91 848 271 
Q 434 634 434 1313 
Q 434 1759 690 2068 
Q 947 2378 1403 2484 
z
M 1172 3481 
Q 1172 3119 1398 2916 
Q 1625 2713 2034 2713 
Q 2441 2713 2670 2916 
Q 2900 3119 2900 3481 
Q 2900 3844 2670 4047 
Q 2441 4250 2034 4250 
Q 1625 4250 1398 4047 
Q 1172 3844 1172 3481 
z
" transform="scale(0.015625)"/>
       </defs>
       <use xlink:href="#DejaVuSans-38"/>
       <use xlink:href="#DejaVuSans-30" transform="translate(63.623047 0)"/>
       <use xlink:href="#DejaVuSans-30" transform="translate(127.246094 0)"/>
      </g>
     </g>
    </g>
    <g id="ytick_6">
     <g id="line2d_13">
      <g>
       <use xlink:href="#mad7ce34fe3" x="53.328125" y="81.435168" style="stroke: #000000; stroke-width: 0.8"/>
      </g>
     </g>
     <g id="text_14">
      <!-- 1000 -->
      <g transform="translate(20.878125 85.234387) scale(0.1 -0.1)">
       <use xlink:href="#DejaVuSans-31"/>
       <use xlink:href="#DejaVuSans-30" transform="translate(63.623047 0)"/>
       <use xlink:href="#DejaVuSans-30" transform="translate(127.246094 0)"/>
       <use xlink:href="#DejaVuSans-30" transform="translate(190.869141 0)"/>
      </g>
     </g>
    </g>
    <g id="ytick_7">
     <g id="line2d_14">
      <g>
       <use xlink:href="#mad7ce34fe3" x="53.328125" y="48.430759" style="stroke: #000000; stroke-width: 0.8"/>
      </g>
     </g>
     <g id="text_15">
      <!-- 1200 -->
      <g transform="translate(20.878125 52.229977) scale(0.1 -0.1)">
       <use xlink:href="#DejaVuSans-31"/>
       <use xlink:href="#DejaVuSans-32" transform="translate(63.623047 0)"/>
       <use xlink:href="#DejaVuSans-30" transform="translate(127.246094 0)"/>
       <use xlink:href="#DejaVuSans-30" transform="translate(190.869141 0)"/>
      </g>
     </g>
    </g>
    <g id="ytick_8">
     <g id="line2d_15">
      <g>
       <use xlink:href="#mad7ce34fe3" x="53.328125" y="15.426349" style="stroke: #000000; stroke-width: 0.8"/>
      </g>
     </g>
     <g id="text_16">
      <!-- 1400 -->
      <g transform="translate(20.878125 19.225568) scale(0.1 -0.1)">
       <use xlink:href="#DejaVuSans-31"/>
       <use xlink:href="#DejaVuSans-34" transform="translate(63.623047 0)"/>
       <use xlink:href="#DejaVuSans-30" transform="translate(127.246094 0)"/>
       <use xlink:href="#DejaVuSans-30" transform="translate(190.869141 0)"/>
      </g>
     </g>
    </g>
    <g id="text_17">
     <!-- pulse:0 [counts] -->
     <g transform="translate(14.798438 172.659916) rotate(-90) scale(0.1 -0.1)">
      <defs>
       <path id="DejaVuSans-70" d="M 1159 525 
L 1159 -1331 
L 581 -1331 
L 581 3500 
L 1159 3500 
L 1159 2969 
Q 1341 3281 1617 3432 
Q 1894 3584 2278 3584 
Q 2916 3584 3314 3078 
Q 3713 2572 3713 1747 
Q 3713 922 3314 415 
Q 2916 -91 2278 -91 
Q 1894 -91 1617 61 
Q 1341 213 1159 525 
z
M 3116 1747 
Q 3116 2381 2855 2742 
Q 2594 3103 2138 3103 
Q 1681 3103 1420 2742 
Q 1159 2381 1159 1747 
Q 1159 1113 1420 752 
Q 1681 391 2138 391 
Q 2594 391 2855 752 
Q 3116 1113 3116 1747 
z
" transform="scale(0.015625)"/>
       <path id="DejaVuSans-75" d="M 544 1381 
L 544 3500 
L 1119 3500 
L 1119 1403 
Q 1119 906 1312 657 
Q 1506 409 1894 409 
Q 2359 409 2629 706 
Q 2900 1003 2900 1516 
L 2900 3500 
L 3475 3500 
L 3475 0 
L 2900 0 
L 2900 538 
Q 2691 219 2414 64 
Q 2138 -91 1772 -91 
Q 1169 -91 856 284 
Q 544 659 544 1381 
z
M 1991 3584 
L 1991 3584 
z
" transform="scale(0.015625)"/>
       <path id="DejaVuSans-6c" d="M 603 4863 
L 1178 4863 
L 1178 0 
L 603 0 
L 603 4863 
z
" transform="scale(0.015625)"/>
       <path id="DejaVuSans-3a" d="M 750 794 
L 1409 794 
L 1409 0 
L 750 0 
L 750 794 
z
M 750 3309 
L 1409 3309 
L 1409 2516 
L 750 2516 
L 750 3309 
z
" transform="scale(0.015625)"/>
       <path id="DejaVuSans-63" d="M 3122 3366 
L 3122 2828 
Q 2878 2963 2633 3030 
Q 2388 3097 2138 3097 
Q 1578 3097 1268 2742 
Q 959 2388 959 1747 
Q 959 1106 1268 751 
Q 1578 397 2138 397 
Q 2388 397 2633 464 
Q 2878 531 3122 666 
L 3122 134 
Q 2881 22 2623 -34 
Q 2366 -91 2075 -91 
Q 1284 -91 818 406 
Q 353 903 353 1747 
Q 353 2603 823 3093 
Q 1294 3584 2113 3584 
Q 2378 3584 2631 3529 
Q 2884 3475 3122 3366 
z
" transform="scale(0.015625)"/>
       <path id="DejaVuSans-6f" d="M 1959 3097 
Q 1497 3097 1228 2736 
Q 959 2375 959 1747 
Q 959 1119 1226 758 
Q 1494 397 1959 397 
Q 2419 397 2687 759 
Q 2956 1122 2956 1747 
Q 2956 2369 2687 2733 
Q 2419 3097 1959 3097 
z
M 1959 3584 
Q 2709 3584 3137 3096 
Q 3566 2609 3566 1747 
Q 3566 888 3137 398 
Q 2709 -91 1959 -91 
Q 1206 -91 779 398 
Q 353 888 353 1747 
Q 353 2609 779 3096 
Q 1206 3584 1959 3584 
z
" transform="scale(0.015625)"/>
       <path id="DejaVuSans-6e" d="M 3513 2113 
L 3513 0 
L 2938 0 
L 2938 2094 
Q 2938 2591 2744 2837 
Q 2550 3084 2163 3084 
Q 1697 3084 1428 2787 
Q 1159 2491 1159 1978 
L 1159 0 
L 581 0 
L 581 3500 
L 1159 3500 
L 1159 2956 
Q 1366 3272 1645 3428 
Q 1925 3584 2291 3584 
Q 2894 3584 3203 3211 
Q 3513 2838 3513 2113 
z
" transform="scale(0.015625)"/>
      </defs>
      <use xlink:href="#DejaVuSans-70"/>
      <use xlink:href="#DejaVuSans-75" transform="translate(63.476562 0)"/>
      <use xlink:href="#DejaVuSans-6c" transform="translate(126.855469 0)"/>
      <use xlink:href="#DejaVuSans-73" transform="translate(154.638672 0)"/>
      <use xlink:href="#DejaVuSans-65" transform="translate(206.738281 0)"/>
      <use xlink:href="#DejaVuSans-3a" transform="translate(268.261719 0)"/>
      <use xlink:href="#DejaVuSans-30" transform="translate(301.953125 0)"/>
      <use xlink:href="#DejaVuSans-20" transform="translate(365.576172 0)"/>
      <use xlink:href="#DejaVuSans-5b" transform="translate(397.363281 0)"/>
      <use xlink:href="#DejaVuSans-63" transform="translate(436.376953 0)"/>
      <use xlink:href="#DejaVuSans-6f" transform="translate(491.357422 0)"/>
      <use xlink:href="#DejaVuSans-75" transform="translate(552.539062 0)"/>
      <use xlink:href="#DejaVuSans-6e" transform="translate(615.917969 0)"/>
      <use xlink:href="#DejaVuSans-74" transform="translate(679.296875 0)"/>
      <use xlink:href="#DejaVuSans-73" transform="translate(718.505859 0)"/>
      <use xlink:href="#DejaVuSans-5d" transform="translate(770.605469 0)"/>
     </g>
    </g>
   </g>
   <g id="line2d_16">
    <path d="M 70.535017 245.137039 
L 71.682144 245.137039 
L 71.682144 244.806995 
L 72.82927 244.806995 
L 72.82927 243.156774 
L 73.976396 243.156774 
L 73.976396 239.361267 
L 75.123522 239.361267 
L 75.123522 240.516422 
L 76.270648 240.516422 
L 76.270648 238.536157 
L 77.417774 238.536157 
L 77.417774 236.885936 
L 78.564901 236.885936 
L 78.564901 234.74065 
L 79.712027 234.74065 
L 79.712027 235.235716 
L 80.859153 235.235716 
L 80.859153 231.935275 
L 82.006279 231.935275 
L 82.006279 232.760385 
L 83.153405 232.760385 
L 83.153405 229.459944 
L 84.300531 229.459944 
L 84.300531 227.644702 
L 85.447658 227.644702 
L 85.447658 227.47968 
L 86.594784 227.47968 
L 86.594784 224.179239 
L 87.74191 224.179239 
L 87.74191 223.519151 
L 88.889036 223.519151 
L 88.889036 224.179239 
L 90.036162 224.179239 
L 90.036162 222.033952 
L 91.183288 222.033952 
L 91.183288 220.713776 
L 92.330415 220.713776 
L 92.330415 214.442938 
L 93.477541 214.442938 
L 93.477541 214.60796 
L 94.624667 214.60796 
L 94.624667 214.112894 
L 95.771793 214.112894 
L 95.771793 214.772982 
L 96.918919 214.772982 
L 96.918919 210.977475 
L 98.066045 210.977475 
L 98.066045 214.60796 
L 99.213172 214.60796 
L 99.213172 210.152365 
L 101.507424 210.152365 
L 101.507424 205.69677 
L 102.65455 205.69677 
L 102.65455 208.1721 
L 103.801676 208.1721 
L 103.801676 201.076152 
L 104.948802 201.076152 
L 104.948802 196.620557 
L 106.095929 196.620557 
L 106.095929 196.785579 
L 107.243055 196.785579 
L 107.243055 198.765844 
L 108.390181 198.765844 
L 108.390181 191.669896 
L 109.537307 191.669896 
L 109.537307 198.765844 
L 110.684433 198.765844 
L 110.684433 197.940733 
L 111.831559 197.940733 
L 111.831559 194.47527 
L 112.978686 194.47527 
L 112.978686 191.009807 
L 114.125812 191.009807 
L 114.125812 187.379322 
L 116.420064 187.379322 
L 116.420064 183.253771 
L 117.56719 183.253771 
L 117.56719 186.059146 
L 118.714316 186.059146 
L 118.714316 188.699499 
L 119.861443 188.699499 
L 119.861443 179.12822 
L 121.008569 179.12822 
L 121.008569 180.448396 
L 122.155695 180.448396 
L 122.155695 180.943462 
L 123.302821 180.943462 
L 123.302821 179.293242 
L 124.449947 179.293242 
L 124.449947 175.332713 
L 125.597073 175.332713 
L 125.597073 179.12822 
L 126.7442 179.12822 
L 126.7442 168.896853 
L 127.891326 168.896853 
L 127.891326 179.458264 
L 129.038452 179.458264 
L 129.038452 167.411655 
L 130.185578 167.411655 
L 130.185578 170.382051 
L 131.332704 170.382051 
L 131.332704 166.586544 
L 132.47983 166.586544 
L 132.47983 163.946192 
L 133.626957 163.946192 
L 133.626957 162.130949 
L 134.774083 162.130949 
L 134.774083 159.655618 
L 135.921209 159.655618 
L 135.921209 157.180288 
L 137.068335 157.180288 
L 137.068335 159.985662 
L 138.215461 159.985662 
L 138.215461 167.08161 
L 139.362587 167.08161 
L 139.362587 162.460993 
L 140.509714 162.460993 
L 140.509714 153.384781 
L 141.65684 153.384781 
L 141.65684 149.424251 
L 142.803966 149.424251 
L 142.803966 152.55967 
L 143.951092 152.55967 
L 143.951092 145.793766 
L 145.098218 145.793766 
L 145.098218 155.530067 
L 146.245344 155.530067 
L 146.245344 152.55967 
L 147.392471 152.55967 
L 147.392471 145.2987 
L 148.539597 145.2987 
L 148.539597 141.503193 
L 149.686723 141.503193 
L 149.686723 138.532796 
L 150.833849 138.532796 
L 150.833849 150.579406 
L 151.980975 150.579406 
L 151.980975 145.958788 
L 153.128101 145.958788 
L 153.128101 133.912179 
L 154.275228 133.912179 
L 154.275228 132.757025 
L 155.422354 132.757025 
L 155.422354 125.826099 
L 156.56948 125.826099 
L 156.56948 135.892444 
L 157.716606 135.892444 
L 157.716606 135.232355 
L 158.863732 135.232355 
L 158.863732 131.766892 
L 160.010858 131.766892 
L 160.010858 129.786628 
L 161.157985 129.786628 
L 161.157985 133.582135 
L 162.305111 133.582135 
L 162.305111 126.156143 
L 163.452237 126.156143 
L 163.452237 127.806363 
L 164.599363 127.806363 
L 164.599363 126.156143 
L 165.746489 126.156143 
L 165.746489 128.961518 
L 166.893615 128.961518 
L 166.893615 127.971385 
L 168.040742 127.971385 
L 168.040742 130.611738 
L 169.187868 130.611738 
L 169.187868 116.25482 
L 170.334994 116.25482 
L 170.334994 120.380371 
L 171.48212 120.380371 
L 171.48212 115.759754 
L 172.629246 115.759754 
L 172.629246 119.720283 
L 173.776372 119.720283 
L 173.776372 112.624335 
L 174.923499 112.624335 
L 174.923499 112.789357 
L 176.070625 112.789357 
L 176.070625 115.42971 
L 177.217751 115.42971 
L 177.217751 104.538255 
L 178.364877 104.538255 
L 178.364877 110.809092 
L 179.512003 110.809092 
L 179.512003 108.498784 
L 180.659129 108.498784 
L 180.659129 106.188475 
L 181.806256 106.188475 
L 181.806256 102.227946 
L 182.953382 102.227946 
L 182.953382 103.878166 
L 184.100508 103.878166 
L 184.100508 99.422571 
L 185.247634 99.422571 
L 185.247634 107.838696 
L 186.39476 107.838696 
L 186.39476 97.277285 
L 187.541886 97.277285 
L 187.541886 92.161601 
L 188.689013 92.161601 
L 188.689013 98.432439 
L 189.836139 98.432439 
L 189.836139 104.20821 
L 190.983265 104.20821 
L 190.983265 83.25041 
L 192.130391 83.25041 
L 192.130391 91.666535 
L 193.277517 91.666535 
L 193.277517 92.491645 
L 194.424643 92.491645 
L 194.424643 81.435168 
L 195.57177 81.435168 
L 195.57177 74.999308 
L 196.718896 74.999308 
L 196.718896 82.260278 
L 197.866022 82.260278 
L 197.866022 82.4253 
L 199.013148 82.4253 
L 199.013148 72.523977 
L 200.160274 72.523977 
L 200.160274 83.25041 
L 201.3074 83.25041 
L 201.3074 84.075521 
L 202.454527 84.075521 
L 202.454527 86.055785 
L 203.601653 86.055785 
L 203.601653 83.085388 
L 204.748779 83.085388 
L 204.748779 71.368823 
L 205.895905 71.368823 
L 205.895905 81.435168 
L 207.043031 81.435168 
L 207.043031 76.814551 
L 208.190157 76.814551 
L 208.190157 66.583184 
L 209.337284 66.583184 
L 209.337284 64.932963 
L 210.48441 64.932963 
L 210.48441 58.99217 
L 211.631536 58.99217 
L 211.631536 72.523977 
L 212.778662 72.523977 
L 212.778662 71.533845 
L 213.925788 71.533845 
L 213.925788 57.341949 
L 215.072914 57.341949 
L 215.072914 59.322214 
L 216.220041 59.322214 
L 216.220041 48.925825 
L 217.367167 48.925825 
L 217.367167 58.002037 
L 218.514293 58.002037 
L 218.514293 61.137456 
L 219.661419 61.137456 
L 219.661419 58.827147 
L 220.808545 58.827147 
L 220.808545 51.731199 
L 221.955671 51.731199 
L 221.955671 57.176927 
L 223.102798 57.176927 
L 223.102798 54.701596 
L 224.249924 54.701596 
L 224.249924 45.790406 
L 225.39705 45.790406 
L 225.39705 56.021773 
L 226.544176 56.021773 
L 226.544176 43.975163 
L 227.691302 43.975163 
L 227.691302 34.07384 
L 228.838428 34.07384 
L 228.838428 42.820009 
L 229.985555 42.820009 
L 229.985555 29.783267 
L 231.132681 29.783267 
L 231.132681 49.915957 
L 232.279807 49.915957 
L 232.279807 46.94556 
L 233.426933 46.94556 
L 233.426933 34.07384 
L 234.574059 34.07384 
L 234.574059 33.578774 
L 235.721185 33.578774 
L 235.721185 35.228995 
L 236.868312 35.228995 
L 236.868312 41.994899 
L 238.015438 41.994899 
L 238.015438 18.561768 
L 239.162564 18.561768 
L 239.162564 21.202121 
L 240.30969 21.202121 
L 240.30969 30.113311 
L 241.456816 30.113311 
L 241.456816 29.123179 
L 242.603942 29.123179 
L 242.603942 25.98776 
L 243.751069 25.98776 
L 243.751069 30.113311 
L 244.898195 30.113311 
L 244.898195 25.98776 
L 246.045321 25.98776 
L 246.045321 41.33481 
L 247.192447 41.33481 
L 247.192447 32.42362 
L 248.339573 32.42362 
L 248.339573 35.724061 
L 249.486699 35.724061 
L 249.486699 43.810141 
L 250.633826 43.810141 
L 250.633826 34.403884 
L 251.780952 34.403884 
L 251.780952 41.169788 
L 252.928078 41.169788 
L 252.928078 38.694458 
L 254.075204 38.694458 
L 254.075204 50.080979 
L 255.22233 50.080979 
L 255.22233 33.743796 
L 256.369456 33.743796 
L 256.369456 43.480097 
L 257.516583 43.480097 
L 257.516583 50.576045 
L 258.663709 50.576045 
L 258.663709 51.401155 
L 259.810835 51.401155 
L 259.810835 57.837015 
L 260.957961 57.837015 
L 260.957961 51.566177 
L 262.105087 51.566177 
L 262.105087 54.371552 
L 263.252213 54.371552 
L 263.252213 48.100714 
L 264.39934 48.100714 
L 264.39934 50.906089 
L 265.546466 50.906089 
L 265.546466 63.282743 
L 266.693592 63.282743 
L 266.693592 64.107853 
L 267.840718 64.107853 
L 267.840718 52.226266 
L 268.987844 52.226266 
L 268.987844 46.12045 
L 270.13497 46.12045 
L 270.13497 67.90336 
L 271.282097 67.90336 
L 271.282097 66.418162 
L 272.429223 66.418162 
L 272.429223 74.33922 
L 273.576349 74.33922 
L 273.576349 70.378691 
L 274.723475 70.378691 
L 274.723475 63.777809 
L 275.870601 63.777809 
L 275.870601 74.33922 
L 277.017727 74.33922 
L 277.017727 75.329352 
L 278.164854 75.329352 
L 278.164854 71.368823 
L 279.31198 71.368823 
L 279.31198 72.028911 
L 280.459106 72.028911 
L 280.459106 79.454903 
L 281.606232 79.454903 
L 281.606232 92.491645 
L 282.753358 92.491645 
L 282.753358 75.494374 
L 283.900484 75.494374 
L 283.900484 88.201072 
L 285.047611 88.201072 
L 285.047611 79.784947 
L 286.194737 79.784947 
L 286.194737 84.240543 
L 288.488989 84.240543 
L 288.488989 78.299749 
L 289.636115 78.299749 
L 289.636115 82.755344 
L 290.783241 82.755344 
L 290.783241 81.435168 
L 291.930368 81.435168 
L 291.930368 91.996579 
L 293.077494 91.996579 
L 293.077494 87.706006 
L 294.22462 87.706006 
L 294.22462 96.287152 
L 295.371746 96.287152 
L 295.371746 97.937373 
L 296.518872 97.937373 
L 296.518872 95.792086 
L 297.665998 95.792086 
L 297.665998 102.723012 
L 298.813125 102.723012 
L 298.813125 97.937373 
L 299.960251 97.937373 
L 299.960251 95.627064 
L 301.107377 95.627064 
L 301.107377 103.548122 
L 302.254503 103.548122 
L 302.254503 105.033321 
L 303.401629 105.033321 
L 303.401629 100.577725 
L 304.548755 100.577725 
L 304.548755 102.392968 
L 305.695882 102.392968 
L 305.695882 107.343629 
L 306.843008 107.343629 
L 306.843008 108.16874 
L 307.990134 108.16874 
L 307.990134 114.769622 
L 309.13726 114.769622 
L 309.13726 117.244952 
L 310.284386 117.244952 
L 310.284386 113.449445 
L 311.431512 113.449445 
L 311.431512 109.81896 
L 312.578639 109.81896 
L 312.578639 124.3409 
L 313.725765 124.3409 
L 313.725765 124.175878 
L 314.872891 124.175878 
L 314.872891 115.759754 
L 316.020017 115.759754 
L 316.020017 118.730151 
L 317.167143 118.730151 
L 317.167143 124.670944 
L 318.314269 124.670944 
L 318.314269 120.545393 
L 319.461396 120.545393 
L 319.461396 125.331033 
L 320.608522 125.331033 
L 320.608522 125.000988 
L 321.755648 125.000988 
L 321.755648 124.010856 
L 322.902774 124.010856 
L 322.902774 131.931914 
L 324.0499 131.931914 
L 324.0499 124.505922 
L 325.197026 124.505922 
L 325.197026 133.252091 
L 326.344153 133.252091 
L 326.344153 139.027862 
L 327.491279 139.027862 
L 327.491279 131.60187 
L 328.638405 131.60187 
L 328.638405 148.434119 
L 329.785531 148.434119 
L 329.785531 144.803634 
L 330.932657 144.803634 
L 330.932657 138.86284 
L 332.079783 138.86284 
L 332.079783 135.892444 
L 333.22691 135.892444 
L 333.22691 146.783899 
L 334.374036 146.783899 
L 334.374036 144.803634 
L 335.521162 144.803634 
L 335.521162 148.104075 
L 336.668288 148.104075 
L 336.668288 142.163281 
L 337.815414 142.163281 
L 337.815414 145.793766 
L 338.96254 145.793766 
L 338.96254 154.044869 
L 340.109667 154.044869 
L 340.109667 152.889714 
L 341.256793 152.889714 
L 341.256793 152.394648 
L 342.403919 152.394648 
L 342.403919 157.675354 
L 343.551045 157.675354 
L 343.551045 152.064604 
L 344.698171 152.064604 
L 344.698171 155.695089 
L 345.845297 155.695089 
L 345.845297 154.044869 
L 346.992424 154.044869 
L 346.992424 160.645751 
L 348.13955 160.645751 
L 348.13955 167.08161 
L 349.286676 167.08161 
L 349.286676 157.510332 
L 350.433802 157.510332 
L 350.433802 160.975795 
L 351.580928 160.975795 
L 351.580928 162.791037 
L 352.728054 162.791037 
L 352.728054 170.877118 
L 353.875181 170.877118 
L 353.875181 167.741699 
L 355.022307 167.741699 
L 355.022307 166.751566 
L 356.169433 166.751566 
L 356.169433 169.556941 
L 357.316559 169.556941 
L 357.316559 179.788308 
L 358.463685 179.788308 
L 358.463685 179.458264 
L 359.610811 179.458264 
L 359.610811 174.507603 
L 360.757938 174.507603 
L 360.757938 176.652889 
L 361.905064 176.652889 
L 361.905064 178.963198 
L 363.05219 178.963198 
L 363.05219 180.283374 
L 364.199316 180.283374 
L 364.199316 178.138088 
L 365.346442 178.138088 
L 365.346442 184.078881 
L 366.493568 184.078881 
L 366.493568 181.273507 
L 367.640695 181.273507 
L 367.640695 188.699499 
L 368.787821 188.699499 
L 368.787821 189.029543 
L 369.934947 189.029543 
L 369.934947 194.970336 
L 371.082073 194.970336 
L 371.082073 191.669896 
L 372.229199 191.669896 
L 372.229199 191.009807 
L 373.376325 191.009807 
L 373.376325 190.184697 
L 374.523452 190.184697 
L 374.523452 192.329984 
L 375.670578 192.329984 
L 375.670578 194.145226 
L 376.817704 194.145226 
L 376.817704 201.901262 
L 377.96483 201.901262 
L 377.96483 198.105755 
L 379.111956 198.105755 
L 379.111956 199.26091 
L 380.259082 199.26091 
L 380.259082 203.551483 
L 381.406209 203.551483 
L 381.406209 205.69677 
L 382.553335 205.69677 
L 382.553335 207.677034 
L 383.700461 207.677034 
L 383.700461 206.356858 
L 384.847587 206.356858 
L 384.847587 211.307519 
L 385.994713 211.307519 
L 385.994713 204.706637 
L 387.141839 204.706637 
L 387.141839 215.763114 
L 388.288966 215.763114 
L 388.288966 211.967607 
L 389.436092 211.967607 
L 389.436092 217.413335 
L 390.583218 217.413335 
L 390.583218 213.947872 
L 391.730344 213.947872 
L 391.730344 214.277916 
L 392.87747 214.277916 
L 392.87747 218.238445 
L 394.024596 218.238445 
L 394.024596 221.04382 
L 395.171723 221.04382 
L 395.171723 218.238445 
L 396.318849 218.238445 
L 396.318849 224.344261 
L 397.465975 224.344261 
L 397.465975 224.509283 
L 398.613101 224.509283 
L 398.613101 224.344261 
L 399.760227 224.344261 
L 399.760227 227.149636 
L 400.907353 227.149636 
L 400.907353 232.925407 
L 402.05448 232.925407 
L 402.05448 227.974746 
L 403.201606 227.974746 
L 403.201606 231.935275 
L 404.348732 231.935275 
L 404.348732 233.750518 
L 405.495858 233.750518 
L 405.495858 236.720914 
L 406.642984 236.720914 
L 406.642984 235.400738 
L 407.79011 235.400738 
L 407.79011 239.361267 
L 408.937237 239.361267 
L 408.937237 239.031223 
L 410.084363 239.031223 
L 410.084363 241.836598 
L 411.231489 241.836598 
L 411.231489 242.661708 
L 412.378615 242.661708 
L 412.378615 243.65184 
L 413.525741 243.65184 
L 413.525741 245.797127 
L 414.672867 245.797127 
L 414.672867 245.797127 
" clip-path="url(#p47752ac0cd)" style="fill: none; stroke: #1f77b4; stroke-width: 1.5; stroke-linecap: square"/>
   </g>
   <g id="patch_3">
    <path d="M 53.328125 257.158895 
L 53.328125 7.2 
" style="fill: none; stroke: #000000; stroke-width: 0.8; stroke-linejoin: miter; stroke-linecap: square"/>
   </g>
   <g id="patch_4">
    <path d="M 431.87976 257.158895 
L 431.87976 7.2 
" style="fill: none; stroke: #000000; stroke-width: 0.8; stroke-linejoin: miter; stroke-linecap: square"/>
   </g>
   <g id="patch_5">
    <path d="M 53.328125 257.158895 
L 431.87976 257.158895 
" style="fill: none; stroke: #000000; stroke-width: 0.8; stroke-linejoin: miter; stroke-linecap: square"/>
   </g>
   <g id="patch_6">
    <path d="M 53.328125 7.2 
L 431.87976 7.2 
" style="fill: none; stroke: #000000; stroke-width: 0.8; stroke-linejoin: miter; stroke-linecap: square"/>
   </g>
  </g>
  <g id="axes_2">
   <g id="patch_7">
    <path d="M 486.647885 257.158895 
L 865.19952 257.158895 
L 865.19952 7.2 
L 486.647885 7.2 
z
" style="fill: #ffffff"/>
   </g>
   <g id="matplotlib.axis_3">
    <g id="xtick_8">
     <g id="line2d_17">
      <g>
       <use xlink:href="#ma89069d6c0" x="503.849366" y="257.158895" style="stroke: #000000; stroke-width: 0.8"/>
      </g>
     </g>
     <g id="text_18">
      <!-- 1.0 -->
      <g transform="translate(495.897803 271.757332) scale(0.1 -0.1)">
       <defs>
        <path id="DejaVuSans-2e" d="M 684 794 
L 1344 794 
L 1344 0 
L 684 0 
L 684 794 
z
" transform="scale(0.015625)"/>
       </defs>
       <use xlink:href="#DejaVuSans-31"/>
       <use xlink:href="#DejaVuSans-2e" transform="translate(63.623047 0)"/>
       <use xlink:href="#DejaVuSans-30" transform="translate(95.410156 0)"/>
      </g>
     </g>
    </g>
    <g id="xtick_9">
     <g id="line2d_18">
      <g>
       <use xlink:href="#ma89069d6c0" x="561.206675" y="257.158895" style="stroke: #000000; stroke-width: 0.8"/>
      </g>
     </g>
     <g id="text_19">
      <!-- 1.5 -->
      <g transform="translate(553.255112 271.757332) scale(0.1 -0.1)">
       <use xlink:href="#DejaVuSans-31"/>
       <use xlink:href="#DejaVuSans-2e" transform="translate(63.623047 0)"/>
       <use xlink:href="#DejaVuSans-35" transform="translate(95.410156 0)"/>
      </g>
     </g>
    </g>
    <g id="xtick_10">
     <g id="line2d_19">
      <g>
       <use xlink:href="#ma89069d6c0" x="618.563983" y="257.158895" style="stroke: #000000; stroke-width: 0.8"/>
      </g>
     </g>
     <g id="text_20">
      <!-- 2.0 -->
      <g transform="translate(610.612421 271.757332) scale(0.1 -0.1)">
       <use xlink:href="#DejaVuSans-32"/>
       <use xlink:href="#DejaVuSans-2e" transform="translate(63.623047 0)"/>
       <use xlink:href="#DejaVuSans-30" transform="translate(95.410156 0)"/>
      </g>
     </g>
    </g>
    <g id="xtick_11">
     <g id="line2d_20">
      <g>
       <use xlink:href="#ma89069d6c0" x="675.921292" y="257.158895" style="stroke: #000000; stroke-width: 0.8"/>
      </g>
     </g>
     <g id="text_21">
      <!-- 2.5 -->
      <g transform="translate(667.96973 271.757332) scale(0.1 -0.1)">
       <use xlink:href="#DejaVuSans-32"/>
       <use xlink:href="#DejaVuSans-2e" transform="translate(63.623047 0)"/>
       <use xlink:href="#DejaVuSans-35" transform="translate(95.410156 0)"/>
      </g>
     </g>
    </g>
    <g id="xtick_12">
     <g id="line2d_21">
      <g>
       <use xlink:href="#ma89069d6c0" x="733.278601" y="257.158895" style="stroke: #000000; stroke-width: 0.8"/>
      </g>
     </g>
     <g id="text_22">
      <!-- 3.0 -->
      <g transform="translate(725.327038 271.757332) scale(0.1 -0.1)">
       <use xlink:href="#DejaVuSans-33"/>
       <use xlink:href="#DejaVuSans-2e" transform="translate(63.623047 0)"/>
       <use xlink:href="#DejaVuSans-30" transform="translate(95.410156 0)"/>
      </g>
     </g>
    </g>
    <g id="xtick_13">
     <g id="line2d_22">
      <g>
       <use xlink:href="#ma89069d6c0" x="790.63591" y="257.158895" style="stroke: #000000; stroke-width: 0.8"/>
      </g>
     </g>
     <g id="text_23">
      <!-- 3.5 -->
      <g transform="translate(782.684347 271.757332) scale(0.1 -0.1)">
       <use xlink:href="#DejaVuSans-33"/>
       <use xlink:href="#DejaVuSans-2e" transform="translate(63.623047 0)"/>
       <use xlink:href="#DejaVuSans-35" transform="translate(95.410156 0)"/>
      </g>
     </g>
    </g>
    <g id="xtick_14">
     <g id="line2d_23">
      <g>
       <use xlink:href="#ma89069d6c0" x="847.993218" y="257.158895" style="stroke: #000000; stroke-width: 0.8"/>
      </g>
     </g>
     <g id="text_24">
      <!-- 4.0 -->
      <g transform="translate(840.041656 271.757332) scale(0.1 -0.1)">
       <use xlink:href="#DejaVuSans-34"/>
       <use xlink:href="#DejaVuSans-2e" transform="translate(63.623047 0)"/>
       <use xlink:href="#DejaVuSans-30" transform="translate(95.410156 0)"/>
      </g>
     </g>
    </g>
    <g id="text_25">
     <!-- wavelength [Å] -->
     <g transform="translate(637.886202 287.119832) scale(0.1 -0.1)">
      <defs>
       <path id="DejaVuSans-77" d="M 269 3500 
L 844 3500 
L 1563 769 
L 2278 3500 
L 2956 3500 
L 3675 769 
L 4391 3500 
L 4966 3500 
L 4050 0 
L 3372 0 
L 2619 2869 
L 1863 0 
L 1184 0 
L 269 3500 
z
" transform="scale(0.015625)"/>
       <path id="DejaVuSans-61" d="M 2194 1759 
Q 1497 1759 1228 1600 
Q 959 1441 959 1056 
Q 959 750 1161 570 
Q 1363 391 1709 391 
Q 2188 391 2477 730 
Q 2766 1069 2766 1631 
L 2766 1759 
L 2194 1759 
z
M 3341 1997 
L 3341 0 
L 2766 0 
L 2766 531 
Q 2569 213 2275 61 
Q 1981 -91 1556 -91 
Q 1019 -91 701 211 
Q 384 513 384 1019 
Q 384 1609 779 1909 
Q 1175 2209 1959 2209 
L 2766 2209 
L 2766 2266 
Q 2766 2663 2505 2880 
Q 2244 3097 1772 3097 
Q 1472 3097 1187 3025 
Q 903 2953 641 2809 
L 641 3341 
Q 956 3463 1253 3523 
Q 1550 3584 1831 3584 
Q 2591 3584 2966 3190 
Q 3341 2797 3341 1997 
z
" transform="scale(0.015625)"/>
       <path id="DejaVuSans-76" d="M 191 3500 
L 800 3500 
L 1894 563 
L 2988 3500 
L 3597 3500 
L 2284 0 
L 1503 0 
L 191 3500 
z
" transform="scale(0.015625)"/>
       <path id="DejaVuSans-67" d="M 2906 1791 
Q 2906 2416 2648 2759 
Q 2391 3103 1925 3103 
Q 1463 3103 1205 2759 
Q 947 2416 947 1791 
Q 947 1169 1205 825 
Q 1463 481 1925 481 
Q 2391 481 2648 825 
Q 2906 1169 2906 1791 
z
M 3481 434 
Q 3481 -459 3084 -895 
Q 2688 -1331 1869 -1331 
Q 1566 -1331 1297 -1286 
Q 1028 -1241 775 -1147 
L 775 -588 
Q 1028 -725 1275 -790 
Q 1522 -856 1778 -856 
Q 2344 -856 2625 -561 
Q 2906 -266 2906 331 
L 2906 616 
Q 2728 306 2450 153 
Q 2172 0 1784 0 
Q 1141 0 747 490 
Q 353 981 353 1791 
Q 353 2603 747 3093 
Q 1141 3584 1784 3584 
Q 2172 3584 2450 3431 
Q 2728 3278 2906 2969 
L 2906 3500 
L 3481 3500 
L 3481 434 
z
" transform="scale(0.015625)"/>
       <path id="DejaVuSans-c5" d="M 2663 5081 
Q 2663 5278 2523 5417 
Q 2384 5556 2188 5556 
Q 1988 5556 1852 5420 
Q 1716 5284 1716 5081 
Q 1716 4884 1853 4746 
Q 1991 4609 2188 4609 
Q 2384 4609 2523 4746 
Q 2663 4884 2663 5081 
z
M 2188 4044 
L 1338 1722 
L 3041 1722 
L 2188 4044 
z
M 1716 4366 
Q 1525 4494 1428 4673 
Q 1331 4853 1331 5081 
Q 1331 5441 1579 5691 
Q 1828 5941 2188 5941 
Q 2544 5941 2795 5689 
Q 3047 5438 3047 5081 
Q 3047 4863 2948 4678 
Q 2850 4494 2663 4366 
L 4325 0 
L 3669 0 
L 3244 1197 
L 1141 1197 
L 716 0 
L 50 0 
L 1716 4366 
z
" transform="scale(0.015625)"/>
      </defs>
      <use xlink:href="#DejaVuSans-77"/>
      <use xlink:href="#DejaVuSans-61" transform="translate(81.787109 0)"/>
      <use xlink:href="#DejaVuSans-76" transform="translate(143.066406 0)"/>
      <use xlink:href="#DejaVuSans-65" transform="translate(202.246094 0)"/>
      <use xlink:href="#DejaVuSans-6c" transform="translate(263.769531 0)"/>
      <use xlink:href="#DejaVuSans-65" transform="translate(291.552734 0)"/>
      <use xlink:href="#DejaVuSans-6e" transform="translate(353.076172 0)"/>
      <use xlink:href="#DejaVuSans-67" transform="translate(416.455078 0)"/>
      <use xlink:href="#DejaVuSans-74" transform="translate(479.931641 0)"/>
      <use xlink:href="#DejaVuSans-68" transform="translate(519.140625 0)"/>
      <use xlink:href="#DejaVuSans-20" transform="translate(582.519531 0)"/>
      <use xlink:href="#DejaVuSans-5b" transform="translate(614.306641 0)"/>
      <use xlink:href="#DejaVuSans-c5" transform="translate(653.320312 0)"/>
      <use xlink:href="#DejaVuSans-5d" transform="translate(721.728516 0)"/>
     </g>
    </g>
   </g>
   <g id="matplotlib.axis_4">
    <g id="ytick_9">
     <g id="line2d_24">
      <g>
       <use xlink:href="#mad7ce34fe3" x="486.647885" y="206.395271" style="stroke: #000000; stroke-width: 0.8"/>
      </g>
     </g>
     <g id="text_26">
      <!-- 400 -->
      <g transform="translate(460.560385 210.19449) scale(0.1 -0.1)">
       <use xlink:href="#DejaVuSans-34"/>
       <use xlink:href="#DejaVuSans-30" transform="translate(63.623047 0)"/>
       <use xlink:href="#DejaVuSans-30" transform="translate(127.246094 0)"/>
      </g>
     </g>
    </g>
    <g id="ytick_10">
     <g id="line2d_25">
      <g>
       <use xlink:href="#mad7ce34fe3" x="486.647885" y="152.420127" style="stroke: #000000; stroke-width: 0.8"/>
      </g>
     </g>
     <g id="text_27">
      <!-- 600 -->
      <g transform="translate(460.560385 156.219346) scale(0.1 -0.1)">
       <use xlink:href="#DejaVuSans-36"/>
       <use xlink:href="#DejaVuSans-30" transform="translate(63.623047 0)"/>
       <use xlink:href="#DejaVuSans-30" transform="translate(127.246094 0)"/>
      </g>
     </g>
    </g>
    <g id="ytick_11">
     <g id="line2d_26">
      <g>
       <use xlink:href="#mad7ce34fe3" x="486.647885" y="98.444982" style="stroke: #000000; stroke-width: 0.8"/>
      </g>
     </g>
     <g id="text_28">
      <!-- 800 -->
      <g transform="translate(460.560385 102.244201) scale(0.1 -0.1)">
       <use xlink:href="#DejaVuSans-38"/>
       <use xlink:href="#DejaVuSans-30" transform="translate(63.623047 0)"/>
       <use xlink:href="#DejaVuSans-30" transform="translate(127.246094 0)"/>
      </g>
     </g>
    </g>
    <g id="ytick_12">
     <g id="line2d_27">
      <g>
       <use xlink:href="#mad7ce34fe3" x="486.647885" y="44.469837" style="stroke: #000000; stroke-width: 0.8"/>
      </g>
     </g>
     <g id="text_29">
      <!-- 1000 -->
      <g transform="translate(454.197885 48.269056) scale(0.1 -0.1)">
       <use xlink:href="#DejaVuSans-31"/>
       <use xlink:href="#DejaVuSans-30" transform="translate(63.623047 0)"/>
       <use xlink:href="#DejaVuSans-30" transform="translate(127.246094 0)"/>
       <use xlink:href="#DejaVuSans-30" transform="translate(190.869141 0)"/>
      </g>
     </g>
    </g>
    <g id="text_30">
     <!-- pulse:0 [counts] -->
     <g transform="translate(448.118197 172.659916) rotate(-90) scale(0.1 -0.1)">
      <use xlink:href="#DejaVuSans-70"/>
      <use xlink:href="#DejaVuSans-75" transform="translate(63.476562 0)"/>
      <use xlink:href="#DejaVuSans-6c" transform="translate(126.855469 0)"/>
      <use xlink:href="#DejaVuSans-73" transform="translate(154.638672 0)"/>
      <use xlink:href="#DejaVuSans-65" transform="translate(206.738281 0)"/>
      <use xlink:href="#DejaVuSans-3a" transform="translate(268.261719 0)"/>
      <use xlink:href="#DejaVuSans-30" transform="translate(301.953125 0)"/>
      <use xlink:href="#DejaVuSans-20" transform="translate(365.576172 0)"/>
      <use xlink:href="#DejaVuSans-5b" transform="translate(397.363281 0)"/>
      <use xlink:href="#DejaVuSans-63" transform="translate(436.376953 0)"/>
      <use xlink:href="#DejaVuSans-6f" transform="translate(491.357422 0)"/>
      <use xlink:href="#DejaVuSans-75" transform="translate(552.539062 0)"/>
      <use xlink:href="#DejaVuSans-6e" transform="translate(615.917969 0)"/>
      <use xlink:href="#DejaVuSans-74" transform="translate(679.296875 0)"/>
      <use xlink:href="#DejaVuSans-73" transform="translate(718.505859 0)"/>
      <use xlink:href="#DejaVuSans-5d" transform="translate(770.605469 0)"/>
     </g>
    </g>
   </g>
   <g id="line2d_28">
    <path d="M 503.854777 239.32011 
L 505.001904 239.32011 
L 505.001904 245.797127 
L 506.14903 245.797127 
L 506.14903 242.828494 
L 507.296156 242.828494 
L 507.296156 240.669488 
L 508.443282 240.669488 
L 508.443282 237.700855 
L 509.590408 237.700855 
L 509.590408 242.288743 
L 510.737534 242.288743 
L 510.737534 231.763589 
L 511.884661 231.763589 
L 511.884661 232.843092 
L 513.031787 232.843092 
L 513.031787 235.271974 
L 514.178913 235.271974 
L 514.178913 240.129737 
L 515.326039 240.129737 
L 515.326039 240.669488 
L 516.473165 240.669488 
L 516.473165 232.843092 
L 517.620291 232.843092 
L 517.620291 233.652719 
L 518.767418 233.652719 
L 518.767418 232.573217 
L 519.914544 232.573217 
L 519.914544 237.970731 
L 521.06167 237.970731 
L 521.06167 226.905826 
L 522.208796 226.905826 
L 522.208796 234.192471 
L 523.355922 234.192471 
L 523.355922 226.366075 
L 524.503048 226.366075 
L 524.503048 229.334708 
L 525.650175 229.334708 
L 525.650175 219.619182 
L 526.797301 219.619182 
L 526.797301 224.476945 
L 527.944427 224.476945 
L 527.944427 229.874459 
L 529.091553 229.874459 
L 529.091553 229.064832 
L 530.238679 229.064832 
L 530.238679 230.414211 
L 531.385805 230.414211 
L 531.385805 232.033465 
L 532.532932 232.033465 
L 532.532932 223.397442 
L 533.680058 223.397442 
L 533.680058 223.937193 
L 534.827184 223.937193 
L 534.827184 223.127566 
L 535.97431 223.127566 
L 535.97431 219.07943 
L 537.121436 219.07943 
L 537.121436 215.30117 
L 538.268562 215.30117 
L 538.268562 217.1903 
L 539.415689 217.1903 
L 539.415689 221.778188 
L 540.562815 221.778188 
L 540.562815 227.175702 
L 541.709941 227.175702 
L 541.709941 210.713283 
L 542.857067 210.713283 
L 542.857067 213.41204 
L 544.004193 213.41204 
L 544.004193 220.428809 
L 545.151319 220.428809 
L 545.151319 212.872289 
L 546.298446 212.872289 
L 546.298446 209.094029 
L 547.445572 209.094029 
L 547.445572 217.730052 
L 548.592698 217.730052 
L 548.592698 216.380673 
L 549.739824 216.380673 
L 549.739824 207.74465 
L 550.88695 207.74465 
L 550.88695 215.031295 
L 552.034076 215.031295 
L 552.034076 209.63378 
L 553.181203 209.63378 
L 553.181203 210.443407 
L 554.328329 210.443407 
L 554.328329 206.125396 
L 555.475455 206.125396 
L 555.475455 212.062662 
L 556.622581 212.062662 
L 556.622581 215.571046 
L 557.769707 215.571046 
L 557.769707 200.997757 
L 558.916833 200.997757 
L 558.916833 204.236266 
L 560.06396 204.236266 
L 560.06396 202.886887 
L 561.211086 202.886887 
L 561.211086 211.52291 
L 562.358212 211.52291 
L 562.358212 213.142165 
L 563.505338 213.142165 
L 563.505338 206.935023 
L 564.652464 206.935023 
L 564.652464 209.63378 
L 565.79959 209.63378 
L 565.79959 205.315769 
L 566.946717 205.315769 
L 566.946717 192.361734 
L 568.093843 192.361734 
L 568.093843 202.347136 
L 569.240969 202.347136 
L 569.240969 198.838751 
L 570.388095 198.838751 
L 570.388095 195.060491 
L 571.535221 195.060491 
L 571.535221 209.903656 
L 572.682347 209.903656 
L 572.682347 199.108627 
L 573.829474 199.108627 
L 573.829474 194.790615 
L 574.9766 194.790615 
L 574.9766 194.52074 
L 577.270852 194.52074 
L 577.270852 199.378503 
L 578.417978 199.378503 
L 578.417978 198.299 
L 579.565104 198.299 
L 579.565104 197.759248 
L 580.712231 197.759248 
L 580.712231 189.662977 
L 581.859357 189.662977 
L 581.859357 194.790615 
L 583.006483 194.790615 
L 583.006483 202.347136 
L 584.153609 202.347136 
L 584.153609 200.997757 
L 585.300735 200.997757 
L 585.300735 186.694344 
L 586.447861 186.694344 
L 586.447861 182.376332 
L 587.594988 182.376332 
L 587.594988 193.441237 
L 588.742114 193.441237 
L 588.742114 188.313598 
L 589.88924 188.313598 
L 589.88924 180.217326 
L 591.036366 180.217326 
L 591.036366 193.980988 
L 592.183492 193.980988 
L 592.183492 194.250864 
L 593.330618 194.250864 
L 593.330618 188.043722 
L 594.477745 188.043722 
L 594.477745 184.805214 
L 595.624871 184.805214 
L 595.624871 187.773847 
L 596.771997 187.773847 
L 596.771997 192.091858 
L 597.919123 192.091858 
L 597.919123 186.964219 
L 599.066249 186.964219 
L 599.066249 189.123225 
L 600.213375 189.123225 
L 600.213375 188.313598 
L 601.360502 188.313598 
L 601.360502 187.773847 
L 602.507628 187.773847 
L 602.507628 180.757078 
L 603.654754 180.757078 
L 603.654754 181.026953 
L 604.80188 181.026953 
L 604.80188 171.311427 
L 605.949006 171.311427 
L 605.949006 174.28006 
L 607.096132 174.28006 
L 607.096132 182.646208 
L 608.243259 182.646208 
L 608.243259 177.248693 
L 609.390385 177.248693 
L 609.390385 188.583474 
L 610.537511 188.583474 
L 610.537511 167.533167 
L 611.684637 167.533167 
L 611.684637 181.296829 
L 612.831763 181.296829 
L 612.831763 182.646208 
L 613.978889 182.646208 
L 613.978889 186.964219 
L 615.126016 186.964219 
L 615.126016 171.581303 
L 616.273142 171.581303 
L 616.273142 169.152422 
L 617.420268 169.152422 
L 617.420268 177.248693 
L 618.567394 177.248693 
L 618.567394 172.39093 
L 619.71452 172.39093 
L 619.71452 175.359563 
L 620.861647 175.359563 
L 620.861647 165.374161 
L 622.008773 165.374161 
L 622.008773 177.518569 
L 623.155899 177.518569 
L 623.155899 154.849008 
L 624.303025 154.849008 
L 624.303025 170.5018 
L 625.450151 170.5018 
L 625.450151 172.121055 
L 627.744403 172.121055 
L 627.744403 165.644037 
L 628.89153 165.644037 
L 628.89153 162.675404 
L 630.038656 162.675404 
L 630.038656 164.024783 
L 631.185782 164.024783 
L 631.185782 155.38876 
L 632.332908 155.38876 
L 632.332908 158.897144 
L 633.480034 158.897144 
L 633.480034 150.530997 
L 634.62716 150.530997 
L 634.62716 169.962049 
L 635.774287 169.962049 
L 635.774287 152.150251 
L 636.921413 152.150251 
L 636.921413 157.817641 
L 638.068539 157.817641 
L 638.068539 159.16702 
L 639.215665 159.16702 
L 639.215665 158.087517 
L 640.362791 158.087517 
L 640.362791 148.371991 
L 642.657044 148.371991 
L 642.657044 159.976647 
L 643.80417 159.976647 
L 643.80417 143.244352 
L 644.951296 143.244352 
L 644.951296 146.482861 
L 646.098422 146.482861 
L 646.098422 148.102115 
L 647.245548 148.102115 
L 647.245548 141.355222 
L 648.392674 141.355222 
L 648.392674 152.420127 
L 649.539801 152.420127 
L 649.539801 151.070748 
L 650.686927 151.070748 
L 650.686927 150.261121 
L 651.834053 150.261121 
L 651.834053 133.528826 
L 652.981179 133.528826 
L 652.981179 148.371991 
L 654.128305 148.371991 
L 654.128305 143.244352 
L 655.275431 143.244352 
L 655.275431 138.656465 
L 656.422558 138.656465 
L 656.422558 144.593731 
L 657.569684 144.593731 
L 657.569684 142.434725 
L 658.71681 142.434725 
L 658.71681 148.641867 
L 659.863936 148.641867 
L 659.863936 145.403358 
L 661.011062 145.403358 
L 661.011062 143.244352 
L 662.158189 143.244352 
L 662.158189 144.593731 
L 663.305315 144.593731 
L 663.305315 159.16702 
L 664.452441 159.16702 
L 664.452441 138.926341 
L 665.599567 138.926341 
L 665.599567 147.292488 
L 666.746693 147.292488 
L 666.746693 138.926341 
L 669.040945 138.926341 
L 669.040945 119.765164 
L 670.188072 119.765164 
L 670.188072 150.530997 
L 671.335198 150.530997 
L 671.335198 135.14808 
L 672.482324 135.14808 
L 672.482324 145.403358 
L 673.62945 145.403358 
L 673.62945 135.687832 
L 674.776576 135.687832 
L 674.776576 123.273549 
L 675.923702 123.273549 
L 675.923702 137.576962 
L 677.070829 137.576962 
L 677.070829 129.210815 
L 678.217955 129.210815 
L 678.217955 127.59156 
L 679.365081 127.59156 
L 679.365081 137.037211 
L 680.512207 137.037211 
L 680.512207 135.957708 
L 681.659333 135.957708 
L 681.659333 142.434725 
L 682.806459 142.434725 
L 682.806459 125.162679 
L 683.953586 125.162679 
L 683.953586 117.066407 
L 685.100712 117.066407 
L 685.100712 119.225413 
L 686.247838 119.225413 
L 686.247838 144.593731 
L 687.394964 144.593731 
L 687.394964 134.338453 
L 688.54209 134.338453 
L 688.54209 116.526656 
L 689.689216 116.526656 
L 689.689216 125.70243 
L 690.836343 125.70243 
L 690.836343 119.225413 
L 691.983469 119.225413 
L 691.983469 130.020442 
L 693.130595 130.020442 
L 693.130595 113.558023 
L 694.277721 113.558023 
L 694.277721 123.273549 
L 695.424847 123.273549 
L 695.424847 122.733797 
L 696.571974 122.733797 
L 696.571974 128.131312 
L 697.7191 128.131312 
L 697.7191 123.543424 
L 698.866226 123.543424 
L 698.866226 117.336283 
L 700.013352 117.336283 
L 700.013352 119.225413 
L 701.160478 119.225413 
L 701.160478 117.606158 
L 702.307604 117.606158 
L 702.307604 125.432554 
L 703.45473 125.432554 
L 703.45473 122.463921 
L 704.601857 122.463921 
L 704.601857 116.526656 
L 705.748983 116.526656 
L 705.748983 104.921999 
L 706.896109 104.921999 
L 706.896109 115.177277 
L 708.043235 115.177277 
L 708.043235 126.512057 
L 709.190361 126.512057 
L 709.190361 122.733797 
L 710.337487 122.733797 
L 710.337487 111.938768 
L 711.484614 111.938768 
L 711.484614 109.240011 
L 712.63174 109.240011 
L 712.63174 109.779762 
L 713.778866 109.779762 
L 713.778866 111.938768 
L 714.925992 111.938768 
L 714.925992 121.114543 
L 716.073118 121.114543 
L 716.073118 106.81113 
L 717.220244 106.81113 
L 717.220244 110.319514 
L 718.367371 110.319514 
L 718.367371 104.112372 
L 719.514497 104.112372 
L 719.514497 101.413615 
L 720.661623 101.413615 
L 720.661623 98.984734 
L 721.808749 98.984734 
L 721.808749 98.444982 
L 722.955875 98.444982 
L 722.955875 100.334112 
L 724.103001 100.334112 
L 724.103001 100.064236 
L 725.250128 100.064236 
L 725.250128 96.016101 
L 726.397254 96.016101 
L 726.397254 106.001502 
L 727.54438 106.001502 
L 727.54438 110.049638 
L 728.691506 110.049638 
L 728.691506 111.668893 
L 729.838632 111.668893 
L 729.838632 91.158338 
L 730.985758 91.158338 
L 730.985758 107.350881 
L 732.132885 107.350881 
L 732.132885 99.524485 
L 733.280011 99.524485 
L 733.280011 111.938768 
L 734.427137 111.938768 
L 734.427137 83.601817 
L 735.574263 83.601817 
L 735.574263 97.095603 
L 736.721389 97.095603 
L 736.721389 90.34871 
L 737.868515 90.34871 
L 737.868515 97.365479 
L 739.015642 97.365479 
L 739.015642 88.189705 
L 740.162768 88.189705 
L 740.162768 94.396846 
L 741.309894 94.396846 
L 741.309894 74.965794 
L 742.45702 74.965794 
L 742.45702 66.329771 
L 743.604146 66.329771 
L 743.604146 79.01393 
L 744.751272 79.01393 
L 744.751272 86.300575 
L 745.898399 86.300575 
L 745.898399 97.365479 
L 747.045525 97.365479 
L 747.045525 92.23784 
L 748.192651 92.23784 
L 748.192651 85.760823 
L 749.339777 85.760823 
L 749.339777 76.045297 
L 750.486903 76.045297 
L 750.486903 87.110202 
L 751.634029 87.110202 
L 751.634029 75.23567 
L 752.781156 75.23567 
L 752.781156 73.34654 
L 753.928282 73.34654 
L 753.928282 79.01393 
L 755.075408 79.01393 
L 755.075408 103.032869 
L 756.222534 103.032869 
L 756.222534 84.141569 
L 757.36966 84.141569 
L 757.36966 78.474179 
L 758.516786 78.474179 
L 758.516786 79.283806 
L 759.663913 79.283806 
L 759.663913 81.172936 
L 760.811039 81.172936 
L 760.811039 82.252439 
L 761.958165 82.252439 
L 761.958165 69.56828 
L 763.105291 69.56828 
L 763.105291 80.093433 
L 764.252417 80.093433 
L 764.252417 82.252439 
L 765.399543 82.252439 
L 765.399543 85.490947 
L 766.54667 85.490947 
L 766.54667 72.267037 
L 767.693796 72.267037 
L 767.693796 73.886291 
L 768.840922 73.886291 
L 768.840922 78.204303 
L 769.988048 78.204303 
L 769.988048 60.392505 
L 771.135174 60.392505 
L 771.135174 82.79219 
L 772.282301 82.79219 
L 772.282301 67.949025 
L 773.429427 67.949025 
L 773.429427 73.886291 
L 774.576553 73.886291 
L 774.576553 80.633184 
L 775.723679 80.633184 
L 775.723679 73.34654 
L 776.870805 73.34654 
L 776.870805 72.536913 
L 778.017931 72.536913 
L 778.017931 56.614245 
L 779.165057 56.614245 
L 779.165057 78.474179 
L 780.312184 78.474179 
L 780.312184 81.172936 
L 781.45931 81.172936 
L 781.45931 70.108031 
L 782.606436 70.108031 
L 782.606436 76.045297 
L 783.753562 76.045297 
L 783.753562 73.076664 
L 784.900688 73.076664 
L 784.900688 62.011759 
L 786.047814 62.011759 
L 786.047814 65.520144 
L 787.194941 65.520144 
L 787.194941 59.043126 
L 788.342067 59.043126 
L 788.342067 54.994991 
L 789.489193 54.994991 
L 789.489193 55.804618 
L 790.636319 55.804618 
L 790.636319 70.108031 
L 791.783445 70.108031 
L 791.783445 55.804618 
L 792.930572 55.804618 
L 792.930572 53.375736 
L 794.077698 53.375736 
L 794.077698 66.329771 
L 795.224824 66.329771 
L 795.224824 69.56828 
L 796.37195 69.56828 
L 796.37195 62.281635 
L 797.519076 62.281635 
L 797.519076 51.21673 
L 798.666202 51.21673 
L 798.666202 50.137228 
L 799.813329 50.137228 
L 799.813329 54.994991 
L 800.960455 54.994991 
L 800.960455 43.930086 
L 802.107581 43.930086 
L 802.107581 49.057725 
L 803.254707 49.057725 
L 803.254707 62.551511 
L 804.401833 62.551511 
L 804.401833 52.835985 
L 805.548959 52.835985 
L 805.548959 43.66021 
L 806.696085 43.66021 
L 806.696085 56.614245 
L 807.843212 56.614245 
L 807.843212 52.835985 
L 808.990338 52.835985 
L 808.990338 60.122629 
L 810.137464 60.122629 
L 810.137464 40.961453 
L 811.28459 40.961453 
L 811.28459 52.296233 
L 812.431716 52.296233 
L 812.431716 56.614245 
L 813.578842 56.614245 
L 813.578842 48.248098 
L 814.725969 48.248098 
L 814.725969 49.3276 
L 815.873095 49.3276 
L 815.873095 46.358967 
L 817.020221 46.358967 
L 817.020221 55.804618 
L 818.167347 55.804618 
L 818.167347 41.501204 
L 819.314473 41.501204 
L 819.314473 46.089092 
L 820.461599 46.089092 
L 820.461599 46.628843 
L 821.608726 46.628843 
L 821.608726 49.597476 
L 822.755852 49.597476 
L 822.755852 35.833814 
L 823.902978 35.833814 
L 823.902978 39.88195 
L 825.050104 39.88195 
L 825.050104 43.120459 
L 826.19723 43.120459 
L 826.19723 42.040956 
L 827.344357 42.040956 
L 827.344357 23.689407 
L 828.491483 23.689407 
L 828.491483 35.833814 
L 829.638609 35.833814 
L 829.638609 42.310832 
L 830.785735 42.310832 
L 830.785735 33.674808 
L 831.932861 33.674808 
L 831.932861 35.024187 
L 833.079987 35.024187 
L 833.079987 34.21456 
L 834.227113 34.21456 
L 834.227113 59.852754 
L 835.37424 59.852754 
L 835.37424 29.356797 
L 836.521366 29.356797 
L 836.521366 26.118288 
L 837.668492 26.118288 
L 837.668492 31.785678 
L 838.815618 31.785678 
L 838.815618 18.561768 
L 839.962744 18.561768 
L 839.962744 28.007418 
L 841.10987 28.007418 
L 841.10987 32.865181 
L 842.256997 32.865181 
L 842.256997 39.072323 
L 843.404123 39.072323 
L 843.404123 29.626673 
L 844.551249 29.626673 
L 844.551249 37.453069 
L 845.698375 37.453069 
L 845.698375 26.65804 
L 846.845501 26.65804 
L 846.845501 34.754311 
L 847.992628 34.754311 
L 847.992628 34.754311 
" clip-path="url(#p8e4e7e4ead)" style="fill: none; stroke: #1f77b4; stroke-width: 1.5; stroke-linecap: square"/>
   </g>
   <g id="patch_8">
    <path d="M 486.647885 257.158895 
L 486.647885 7.2 
" style="fill: none; stroke: #000000; stroke-width: 0.8; stroke-linejoin: miter; stroke-linecap: square"/>
   </g>
   <g id="patch_9">
    <path d="M 865.19952 257.158895 
L 865.19952 7.2 
" style="fill: none; stroke: #000000; stroke-width: 0.8; stroke-linejoin: miter; stroke-linecap: square"/>
   </g>
   <g id="patch_10">
    <path d="M 486.647885 257.158895 
L 865.19952 257.158895 
" style="fill: none; stroke: #000000; stroke-width: 0.8; stroke-linejoin: miter; stroke-linecap: square"/>
   </g>
   <g id="patch_11">
    <path d="M 486.647885 7.2 
L 865.19952 7.2 
" style="fill: none; stroke: #000000; stroke-width: 0.8; stroke-linejoin: miter; stroke-linecap: square"/>
   </g>
  </g>
 </g>
 <defs>
  <clipPath id="p47752ac0cd">
   <rect x="53.328125" y="7.2" width="378.551635" height="249.958895"/>
  </clipPath>
  <clipPath id="p8e4e7e4ead">
   <rect x="486.647885" y="7.2" width="378.551635" height="249.958895"/>
  </clipPath>
 </defs>
</svg>
