<?xml version="1.0" encoding="utf-8" standalone="no"?>
<!DOCTYPE svg PUBLIC "-//W3C//DTD SVG 1.1//EN"
  "http://www.w3.org/Graphics/SVG/1.1/DTD/svg11.dtd">
<svg xmlns:xlink="http://www.w3.org/1999/xlink" width="872.39952pt" height="296.39952pt" viewBox="0 0 872.39952 296.39952" xmlns="http://www.w3.org/2000/svg" version="1.1">
 <metadata>
  <rdf:RDF xmlns:dc="http://purl.org/dc/elements/1.1/" xmlns:cc="http://creativecommons.org/ns#" xmlns:rdf="http://www.w3.org/1999/02/22-rdf-syntax-ns#">
   <cc:Work>
    <dc:type rdf:resource="http://purl.org/dc/dcmitype/StillImage"/>
    <dc:date>2025-10-10T17:28:29.035207</dc:date>
    <dc:format>image/svg+xml</dc:format>
    <dc:creator>
     <cc:Agent>
      <dc:title>Matplotlib v3.10.6, https://matplotlib.org/</dc:title>
     </cc:Agent>
    </dc:creator>
   </cc:Work>
  </rdf:RDF>
 </metadata>
 <defs>
  <style type="text/css">*{stroke-linejoin: round; stroke-linecap: butt}</style>
 </defs>
 <g id="figure_1">
  <g id="patch_1">
   <path d="M 0 296.39952 
L 872.39952 296.39952 
L 872.39952 0 
L 0 0 
z
" style="fill: #ffffff"/>
  </g>
  <g id="axes_1">
   <g id="patch_2">
    <path d="M 53.328125 257.158895 
L 411.41851 257.158895 
L 411.41851 7.2 
L 53.328125 7.2 
z
" style="fill: #ffffff"/>
   </g>
   <g id="matplotlib.axis_1">
    <g id="xtick_1">
     <g id="line2d_1">
      <defs>
       <path id="mb733bc75e4" d="M 0 0 
L 0 3.5 
" style="stroke: #000000; stroke-width: 0.8"/>
      </defs>
      <g>
       <use xlink:href="#mb733bc75e4" x="68.784067" y="257.158895" style="stroke: #000000; stroke-width: 0.8"/>
      </g>
     </g>
     <g id="text_1">
      <!-- 0 -->
      <g transform="translate(65.602817 271.757332) scale(0.1 -0.1)">
       <defs>
        <path id="DejaVuSans-30" d="M 2034 4250 
Q 1547 4250 1301 3770 
Q 1056 3291 1056 2328 
Q 1056 1369 1301 889 
Q 1547 409 2034 409 
Q 2525 409 2770 889 
Q 3016 1369 3016 2328 
Q 3016 3291 2770 3770 
Q 2525 4250 2034 4250 
z
M 2034 4750 
Q 2819 4750 3233 4129 
Q 3647 3509 3647 2328 
Q 3647 1150 3233 529 
Q 2819 -91 2034 -91 
Q 1250 -91 836 529 
Q 422 1150 422 2328 
Q 422 3509 836 4129 
Q 1250 4750 2034 4750 
z
" transform="scale(0.015625)"/>
       </defs>
       <use xlink:href="#DejaVuSans-30"/>
      </g>
     </g>
    </g>
    <g id="xtick_2">
     <g id="line2d_2">
      <g>
       <use xlink:href="#mb733bc75e4" x="134.255978" y="257.158895" style="stroke: #000000; stroke-width: 0.8"/>
      </g>
     </g>
     <g id="text_2">
      <!-- 1000 -->
      <g transform="translate(121.530978 271.757332) scale(0.1 -0.1)">
       <defs>
        <path id="DejaVuSans-31" d="M 794 531 
L 1825 531 
L 1825 4091 
L 703 3866 
L 703 4441 
L 1819 4666 
L 2450 4666 
L 2450 531 
L 3481 531 
L 3481 0 
L 794 0 
L 794 531 
z
" transform="scale(0.015625)"/>
       </defs>
       <use xlink:href="#DejaVuSans-31"/>
       <use xlink:href="#DejaVuSans-30" transform="translate(63.623047 0)"/>
       <use xlink:href="#DejaVuSans-30" transform="translate(127.246094 0)"/>
       <use xlink:href="#DejaVuSans-30" transform="translate(190.869141 0)"/>
      </g>
     </g>
    </g>
    <g id="xtick_3">
     <g id="line2d_3">
      <g>
       <use xlink:href="#mb733bc75e4" x="199.727889" y="257.158895" style="stroke: #000000; stroke-width: 0.8"/>
      </g>
     </g>
     <g id="text_3">
      <!-- 2000 -->
      <g transform="translate(187.002889 271.757332) scale(0.1 -0.1)">
       <defs>
        <path id="DejaVuSans-32" d="M 1228 531 
L 3431 531 
L 3431 0 
L 469 0 
L 469 531 
Q 828 903 1448 1529 
Q 2069 2156 2228 2338 
Q 2531 2678 2651 2914 
Q 2772 3150 2772 3378 
Q 2772 3750 2511 3984 
Q 2250 4219 1831 4219 
Q 1534 4219 1204 4116 
Q 875 4013 500 3803 
L 500 4441 
Q 881 4594 1212 4672 
Q 1544 4750 1819 4750 
Q 2544 4750 2975 4387 
Q 3406 4025 3406 3419 
Q 3406 3131 3298 2873 
Q 3191 2616 2906 2266 
Q 2828 2175 2409 1742 
Q 1991 1309 1228 531 
z
" transform="scale(0.015625)"/>
       </defs>
       <use xlink:href="#DejaVuSans-32"/>
       <use xlink:href="#DejaVuSans-30" transform="translate(63.623047 0)"/>
       <use xlink:href="#DejaVuSans-30" transform="translate(127.246094 0)"/>
       <use xlink:href="#DejaVuSans-30" transform="translate(190.869141 0)"/>
      </g>
     </g>
    </g>
    <g id="xtick_4">
     <g id="line2d_4">
      <g>
       <use xlink:href="#mb733bc75e4" x="265.199799" y="257.158895" style="stroke: #000000; stroke-width: 0.8"/>
      </g>
     </g>
     <g id="text_4">
      <!-- 3000 -->
      <g transform="translate(252.474799 271.757332) scale(0.1 -0.1)">
       <defs>
        <path id="DejaVuSans-33" d="M 2597 2516 
Q 3050 2419 3304 2112 
Q 3559 1806 3559 1356 
Q 3559 666 3084 287 
Q 2609 -91 1734 -91 
Q 1441 -91 1130 -33 
Q 819 25 488 141 
L 488 750 
Q 750 597 1062 519 
Q 1375 441 1716 441 
Q 2309 441 2620 675 
Q 2931 909 2931 1356 
Q 2931 1769 2642 2001 
Q 2353 2234 1838 2234 
L 1294 2234 
L 1294 2753 
L 1863 2753 
Q 2328 2753 2575 2939 
Q 2822 3125 2822 3475 
Q 2822 3834 2567 4026 
Q 2313 4219 1838 4219 
Q 1578 4219 1281 4162 
Q 984 4106 628 3988 
L 628 4550 
Q 988 4650 1302 4700 
Q 1616 4750 1894 4750 
Q 2613 4750 3031 4423 
Q 3450 4097 3450 3541 
Q 3450 3153 3228 2886 
Q 3006 2619 2597 2516 
z
" transform="scale(0.015625)"/>
       </defs>
       <use xlink:href="#DejaVuSans-33"/>
       <use xlink:href="#DejaVuSans-30" transform="translate(63.623047 0)"/>
       <use xlink:href="#DejaVuSans-30" transform="translate(127.246094 0)"/>
       <use xlink:href="#DejaVuSans-30" transform="translate(190.869141 0)"/>
      </g>
     </g>
    </g>
    <g id="xtick_5">
     <g id="line2d_5">
      <g>
       <use xlink:href="#mb733bc75e4" x="330.67171" y="257.158895" style="stroke: #000000; stroke-width: 0.8"/>
      </g>
     </g>
     <g id="text_5">
      <!-- 4000 -->
      <g transform="translate(317.94671 271.757332) scale(0.1 -0.1)">
       <defs>
        <path id="DejaVuSans-34" d="M 2419 4116 
L 825 1625 
L 2419 1625 
L 2419 4116 
z
M 2253 4666 
L 3047 4666 
L 3047 1625 
L 3713 1625 
L 3713 1100 
L 3047 1100 
L 3047 0 
L 2419 0 
L 2419 1100 
L 313 1100 
L 313 1709 
L 2253 4666 
z
" transform="scale(0.015625)"/>
       </defs>
       <use xlink:href="#DejaVuSans-34"/>
       <use xlink:href="#DejaVuSans-30" transform="translate(63.623047 0)"/>
       <use xlink:href="#DejaVuSans-30" transform="translate(127.246094 0)"/>
       <use xlink:href="#DejaVuSans-30" transform="translate(190.869141 0)"/>
      </g>
     </g>
    </g>
    <g id="xtick_6">
     <g id="line2d_6">
      <g>
       <use xlink:href="#mb733bc75e4" x="396.143621" y="257.158895" style="stroke: #000000; stroke-width: 0.8"/>
      </g>
     </g>
     <g id="text_6">
      <!-- 5000 -->
      <g transform="translate(383.418621 271.757332) scale(0.1 -0.1)">
       <defs>
        <path id="DejaVuSans-35" d="M 691 4666 
L 3169 4666 
L 3169 4134 
L 1269 4134 
L 1269 2991 
Q 1406 3038 1543 3061 
Q 1681 3084 1819 3084 
Q 2600 3084 3056 2656 
Q 3513 2228 3513 1497 
Q 3513 744 3044 326 
Q 2575 -91 1722 -91 
Q 1428 -91 1123 -41 
Q 819 9 494 109 
L 494 744 
Q 775 591 1075 516 
Q 1375 441 1709 441 
Q 2250 441 2565 725 
Q 2881 1009 2881 1497 
Q 2881 1984 2565 2268 
Q 2250 2553 1709 2553 
Q 1456 2553 1204 2497 
Q 953 2441 691 2322 
L 691 4666 
z
" transform="scale(0.015625)"/>
       </defs>
       <use xlink:href="#DejaVuSans-35"/>
       <use xlink:href="#DejaVuSans-30" transform="translate(63.623047 0)"/>
       <use xlink:href="#DejaVuSans-30" transform="translate(127.246094 0)"/>
       <use xlink:href="#DejaVuSans-30" transform="translate(190.869141 0)"/>
      </g>
     </g>
    </g>
    <g id="text_7">
     <!-- birth_time [µs] -->
     <g transform="translate(195.553005 285.435457) scale(0.1 -0.1)">
      <defs>
       <path id="DejaVuSans-62" d="M 3116 1747 
Q 3116 2381 2855 2742 
Q 2594 3103 2138 3103 
Q 1681 3103 1420 2742 
Q 1159 2381 1159 1747 
Q 1159 1113 1420 752 
Q 1681 391 2138 391 
Q 2594 391 2855 752 
Q 3116 1113 3116 1747 
z
M 1159 2969 
Q 1341 3281 1617 3432 
Q 1894 3584 2278 3584 
Q 2916 3584 3314 3078 
Q 3713 2572 3713 1747 
Q 3713 922 3314 415 
Q 2916 -91 2278 -91 
Q 1894 -91 1617 61 
Q 1341 213 1159 525 
L 1159 0 
L 581 0 
L 581 4863 
L 1159 4863 
L 1159 2969 
z
" transform="scale(0.015625)"/>
       <path id="DejaVuSans-69" d="M 603 3500 
L 1178 3500 
L 1178 0 
L 603 0 
L 603 3500 
z
M 603 4863 
L 1178 4863 
L 1178 4134 
L 603 4134 
L 603 4863 
z
" transform="scale(0.015625)"/>
       <path id="DejaVuSans-72" d="M 2631 2963 
Q 2534 3019 2420 3045 
Q 2306 3072 2169 3072 
Q 1681 3072 1420 2755 
Q 1159 2438 1159 1844 
L 1159 0 
L 581 0 
L 581 3500 
L 1159 3500 
L 1159 2956 
Q 1341 3275 1631 3429 
Q 1922 3584 2338 3584 
Q 2397 3584 2469 3576 
Q 2541 3569 2628 3553 
L 2631 2963 
z
" transform="scale(0.015625)"/>
       <path id="DejaVuSans-74" d="M 1172 4494 
L 1172 3500 
L 2356 3500 
L 2356 3053 
L 1172 3053 
L 1172 1153 
Q 1172 725 1289 603 
Q 1406 481 1766 481 
L 2356 481 
L 2356 0 
L 1766 0 
Q 1100 0 847 248 
Q 594 497 594 1153 
L 594 3053 
L 172 3053 
L 172 3500 
L 594 3500 
L 594 4494 
L 1172 4494 
z
" transform="scale(0.015625)"/>
       <path id="DejaVuSans-68" d="M 3513 2113 
L 3513 0 
L 2938 0 
L 2938 2094 
Q 2938 2591 2744 2837 
Q 2550 3084 2163 3084 
Q 1697 3084 1428 2787 
Q 1159 2491 1159 1978 
L 1159 0 
L 581 0 
L 581 4863 
L 1159 4863 
L 1159 2956 
Q 1366 3272 1645 3428 
Q 1925 3584 2291 3584 
Q 2894 3584 3203 3211 
Q 3513 2838 3513 2113 
z
" transform="scale(0.015625)"/>
       <path id="DejaVuSans-5f" d="M 3263 -1063 
L 3263 -1509 
L -63 -1509 
L -63 -1063 
L 3263 -1063 
z
" transform="scale(0.015625)"/>
       <path id="DejaVuSans-6d" d="M 3328 2828 
Q 3544 3216 3844 3400 
Q 4144 3584 4550 3584 
Q 5097 3584 5394 3201 
Q 5691 2819 5691 2113 
L 5691 0 
L 5113 0 
L 5113 2094 
Q 5113 2597 4934 2840 
Q 4756 3084 4391 3084 
Q 3944 3084 3684 2787 
Q 3425 2491 3425 1978 
L 3425 0 
L 2847 0 
L 2847 2094 
Q 2847 2600 2669 2842 
Q 2491 3084 2119 3084 
Q 1678 3084 1418 2786 
Q 1159 2488 1159 1978 
L 1159 0 
L 581 0 
L 581 3500 
L 1159 3500 
L 1159 2956 
Q 1356 3278 1631 3431 
Q 1906 3584 2284 3584 
Q 2666 3584 2933 3390 
Q 3200 3197 3328 2828 
z
" transform="scale(0.015625)"/>
       <path id="DejaVuSans-65" d="M 3597 1894 
L 3597 1613 
L 953 1613 
Q 991 1019 1311 708 
Q 1631 397 2203 397 
Q 2534 397 2845 478 
Q 3156 559 3463 722 
L 3463 178 
Q 3153 47 2828 -22 
Q 2503 -91 2169 -91 
Q 1331 -91 842 396 
Q 353 884 353 1716 
Q 353 2575 817 3079 
Q 1281 3584 2069 3584 
Q 2775 3584 3186 3129 
Q 3597 2675 3597 1894 
z
M 3022 2063 
Q 3016 2534 2758 2815 
Q 2500 3097 2075 3097 
Q 1594 3097 1305 2825 
Q 1016 2553 972 2059 
L 3022 2063 
z
" transform="scale(0.015625)"/>
       <path id="DejaVuSans-20" transform="scale(0.015625)"/>
       <path id="DejaVuSans-5b" d="M 550 4863 
L 1875 4863 
L 1875 4416 
L 1125 4416 
L 1125 -397 
L 1875 -397 
L 1875 -844 
L 550 -844 
L 550 4863 
z
" transform="scale(0.015625)"/>
       <path id="DejaVuSans-b5" d="M 544 -1331 
L 544 3500 
L 1119 3500 
L 1119 1325 
Q 1119 872 1334 640 
Q 1550 409 1972 409 
Q 2434 409 2667 671 
Q 2900 934 2900 1459 
L 2900 3500 
L 3475 3500 
L 3475 806 
Q 3475 619 3529 530 
Q 3584 441 3700 441 
Q 3728 441 3778 458 
Q 3828 475 3916 513 
L 3916 50 
Q 3788 -22 3673 -56 
Q 3559 -91 3450 -91 
Q 3234 -91 3106 31 
Q 2978 153 2931 403 
Q 2775 156 2548 32 
Q 2322 -91 2016 -91 
Q 1697 -91 1473 31 
Q 1250 153 1119 397 
L 1119 -1331 
L 544 -1331 
z
" transform="scale(0.015625)"/>
       <path id="DejaVuSans-73" d="M 2834 3397 
L 2834 2853 
Q 2591 2978 2328 3040 
Q 2066 3103 1784 3103 
Q 1356 3103 1142 2972 
Q 928 2841 928 2578 
Q 928 2378 1081 2264 
Q 1234 2150 1697 2047 
L 1894 2003 
Q 2506 1872 2764 1633 
Q 3022 1394 3022 966 
Q 3022 478 2636 193 
Q 2250 -91 1575 -91 
Q 1294 -91 989 -36 
Q 684 19 347 128 
L 347 722 
Q 666 556 975 473 
Q 1284 391 1588 391 
Q 1994 391 2212 530 
Q 2431 669 2431 922 
Q 2431 1156 2273 1281 
Q 2116 1406 1581 1522 
L 1381 1569 
Q 847 1681 609 1914 
Q 372 2147 372 2553 
Q 372 3047 722 3315 
Q 1072 3584 1716 3584 
Q 2034 3584 2315 3537 
Q 2597 3491 2834 3397 
z
" transform="scale(0.015625)"/>
       <path id="DejaVuSans-5d" d="M 1947 4863 
L 1947 -844 
L 622 -844 
L 622 -397 
L 1369 -397 
L 1369 4416 
L 622 4416 
L 622 4863 
L 1947 4863 
z
" transform="scale(0.015625)"/>
      </defs>
      <use xlink:href="#DejaVuSans-62"/>
      <use xlink:href="#DejaVuSans-69" transform="translate(63.476562 0)"/>
      <use xlink:href="#DejaVuSans-72" transform="translate(91.259766 0)"/>
      <use xlink:href="#DejaVuSans-74" transform="translate(132.373047 0)"/>
      <use xlink:href="#DejaVuSans-68" transform="translate(171.582031 0)"/>
      <use xlink:href="#DejaVuSans-5f" transform="translate(234.960938 0)"/>
      <use xlink:href="#DejaVuSans-74" transform="translate(284.960938 0)"/>
      <use xlink:href="#DejaVuSans-69" transform="translate(324.169922 0)"/>
      <use xlink:href="#DejaVuSans-6d" transform="translate(351.953125 0)"/>
      <use xlink:href="#DejaVuSans-65" transform="translate(449.365234 0)"/>
      <use xlink:href="#DejaVuSans-20" transform="translate(510.888672 0)"/>
      <use xlink:href="#DejaVuSans-5b" transform="translate(542.675781 0)"/>
      <use xlink:href="#DejaVuSans-b5" transform="translate(581.689453 0)"/>
      <use xlink:href="#DejaVuSans-73" transform="translate(645.3125 0)"/>
      <use xlink:href="#DejaVuSans-5d" transform="translate(697.412109 0)"/>
     </g>
    </g>
   </g>
   <g id="matplotlib.axis_2">
    <g id="ytick_1">
     <g id="line2d_7">
      <defs>
       <path id="mb339e8980a" d="M 0 0 
L -3.5 0 
" style="stroke: #000000; stroke-width: 0.8"/>
      </defs>
      <g>
       <use xlink:href="#mb339e8980a" x="53.328125" y="245.987985" style="stroke: #000000; stroke-width: 0.8"/>
      </g>
     </g>
     <g id="text_8">
      <!-- 0 -->
      <g transform="translate(39.965625 249.787204) scale(0.1 -0.1)">
       <use xlink:href="#DejaVuSans-30"/>
      </g>
     </g>
    </g>
    <g id="ytick_2">
     <g id="line2d_8">
      <g>
       <use xlink:href="#mb339e8980a" x="53.328125" y="207.816414" style="stroke: #000000; stroke-width: 0.8"/>
      </g>
     </g>
     <g id="text_9">
      <!-- 1000 -->
      <g transform="translate(20.878125 211.615633) scale(0.1 -0.1)">
       <use xlink:href="#DejaVuSans-31"/>
       <use xlink:href="#DejaVuSans-30" transform="translate(63.623047 0)"/>
       <use xlink:href="#DejaVuSans-30" transform="translate(127.246094 0)"/>
       <use xlink:href="#DejaVuSans-30" transform="translate(190.869141 0)"/>
      </g>
     </g>
    </g>
    <g id="ytick_3">
     <g id="line2d_9">
      <g>
       <use xlink:href="#mb339e8980a" x="53.328125" y="169.644844" style="stroke: #000000; stroke-width: 0.8"/>
      </g>
     </g>
     <g id="text_10">
      <!-- 2000 -->
      <g transform="translate(20.878125 173.444063) scale(0.1 -0.1)">
       <use xlink:href="#DejaVuSans-32"/>
       <use xlink:href="#DejaVuSans-30" transform="translate(63.623047 0)"/>
       <use xlink:href="#DejaVuSans-30" transform="translate(127.246094 0)"/>
       <use xlink:href="#DejaVuSans-30" transform="translate(190.869141 0)"/>
      </g>
     </g>
    </g>
    <g id="ytick_4">
     <g id="line2d_10">
      <g>
       <use xlink:href="#mb339e8980a" x="53.328125" y="131.473273" style="stroke: #000000; stroke-width: 0.8"/>
      </g>
     </g>
     <g id="text_11">
      <!-- 3000 -->
      <g transform="translate(20.878125 135.272492) scale(0.1 -0.1)">
       <use xlink:href="#DejaVuSans-33"/>
       <use xlink:href="#DejaVuSans-30" transform="translate(63.623047 0)"/>
       <use xlink:href="#DejaVuSans-30" transform="translate(127.246094 0)"/>
       <use xlink:href="#DejaVuSans-30" transform="translate(190.869141 0)"/>
      </g>
     </g>
    </g>
    <g id="ytick_5">
     <g id="line2d_11">
      <g>
       <use xlink:href="#mb339e8980a" x="53.328125" y="93.301703" style="stroke: #000000; stroke-width: 0.8"/>
      </g>
     </g>
     <g id="text_12">
      <!-- 4000 -->
      <g transform="translate(20.878125 97.100922) scale(0.1 -0.1)">
       <use xlink:href="#DejaVuSans-34"/>
       <use xlink:href="#DejaVuSans-30" transform="translate(63.623047 0)"/>
       <use xlink:href="#DejaVuSans-30" transform="translate(127.246094 0)"/>
       <use xlink:href="#DejaVuSans-30" transform="translate(190.869141 0)"/>
      </g>
     </g>
    </g>
    <g id="ytick_6">
     <g id="line2d_12">
      <g>
       <use xlink:href="#mb339e8980a" x="53.328125" y="55.130132" style="stroke: #000000; stroke-width: 0.8"/>
      </g>
     </g>
     <g id="text_13">
      <!-- 5000 -->
      <g transform="translate(20.878125 58.929351) scale(0.1 -0.1)">
       <use xlink:href="#DejaVuSans-35"/>
       <use xlink:href="#DejaVuSans-30" transform="translate(63.623047 0)"/>
       <use xlink:href="#DejaVuSans-30" transform="translate(127.246094 0)"/>
       <use xlink:href="#DejaVuSans-30" transform="translate(190.869141 0)"/>
      </g>
     </g>
    </g>
    <g id="ytick_7">
     <g id="line2d_13">
      <g>
       <use xlink:href="#mb339e8980a" x="53.328125" y="16.958562" style="stroke: #000000; stroke-width: 0.8"/>
      </g>
     </g>
     <g id="text_14">
      <!-- 6000 -->
      <g transform="translate(20.878125 20.757781) scale(0.1 -0.1)">
       <defs>
        <path id="DejaVuSans-36" d="M 2113 2584 
Q 1688 2584 1439 2293 
Q 1191 2003 1191 1497 
Q 1191 994 1439 701 
Q 1688 409 2113 409 
Q 2538 409 2786 701 
Q 3034 994 3034 1497 
Q 3034 2003 2786 2293 
Q 2538 2584 2113 2584 
z
M 3366 4563 
L 3366 3988 
Q 3128 4100 2886 4159 
Q 2644 4219 2406 4219 
Q 1781 4219 1451 3797 
Q 1122 3375 1075 2522 
Q 1259 2794 1537 2939 
Q 1816 3084 2150 3084 
Q 2853 3084 3261 2657 
Q 3669 2231 3669 1497 
Q 3669 778 3244 343 
Q 2819 -91 2113 -91 
Q 1303 -91 875 529 
Q 447 1150 447 2328 
Q 447 3434 972 4092 
Q 1497 4750 2381 4750 
Q 2619 4750 2861 4703 
Q 3103 4656 3366 4563 
z
" transform="scale(0.015625)"/>
       </defs>
       <use xlink:href="#DejaVuSans-36"/>
       <use xlink:href="#DejaVuSans-30" transform="translate(63.623047 0)"/>
       <use xlink:href="#DejaVuSans-30" transform="translate(127.246094 0)"/>
       <use xlink:href="#DejaVuSans-30" transform="translate(190.869141 0)"/>
      </g>
     </g>
    </g>
    <g id="text_15">
     <!-- pulse:0 [counts] -->
     <g transform="translate(14.798438 172.659916) rotate(-90) scale(0.1 -0.1)">
      <defs>
       <path id="DejaVuSans-70" d="M 1159 525 
L 1159 -1331 
L 581 -1331 
L 581 3500 
L 1159 3500 
L 1159 2969 
Q 1341 3281 1617 3432 
Q 1894 3584 2278 3584 
Q 2916 3584 3314 3078 
Q 3713 2572 3713 1747 
Q 3713 922 3314 415 
Q 2916 -91 2278 -91 
Q 1894 -91 1617 61 
Q 1341 213 1159 525 
z
M 3116 1747 
Q 3116 2381 2855 2742 
Q 2594 3103 2138 3103 
Q 1681 3103 1420 2742 
Q 1159 2381 1159 1747 
Q 1159 1113 1420 752 
Q 1681 391 2138 391 
Q 2594 391 2855 752 
Q 3116 1113 3116 1747 
z
" transform="scale(0.015625)"/>
       <path id="DejaVuSans-75" d="M 544 1381 
L 544 3500 
L 1119 3500 
L 1119 1403 
Q 1119 906 1312 657 
Q 1506 409 1894 409 
Q 2359 409 2629 706 
Q 2900 1003 2900 1516 
L 2900 3500 
L 3475 3500 
L 3475 0 
L 2900 0 
L 2900 538 
Q 2691 219 2414 64 
Q 2138 -91 1772 -91 
Q 1169 -91 856 284 
Q 544 659 544 1381 
z
M 1991 3584 
L 1991 3584 
z
" transform="scale(0.015625)"/>
       <path id="DejaVuSans-6c" d="M 603 4863 
L 1178 4863 
L 1178 0 
L 603 0 
L 603 4863 
z
" transform="scale(0.015625)"/>
       <path id="DejaVuSans-3a" d="M 750 794 
L 1409 794 
L 1409 0 
L 750 0 
L 750 794 
z
M 750 3309 
L 1409 3309 
L 1409 2516 
L 750 2516 
L 750 3309 
z
" transform="scale(0.015625)"/>
       <path id="DejaVuSans-63" d="M 3122 3366 
L 3122 2828 
Q 2878 2963 2633 3030 
Q 2388 3097 2138 3097 
Q 1578 3097 1268 2742 
Q 959 2388 959 1747 
Q 959 1106 1268 751 
Q 1578 397 2138 397 
Q 2388 397 2633 464 
Q 2878 531 3122 666 
L 3122 134 
Q 2881 22 2623 -34 
Q 2366 -91 2075 -91 
Q 1284 -91 818 406 
Q 353 903 353 1747 
Q 353 2603 823 3093 
Q 1294 3584 2113 3584 
Q 2378 3584 2631 3529 
Q 2884 3475 3122 3366 
z
" transform="scale(0.015625)"/>
       <path id="DejaVuSans-6f" d="M 1959 3097 
Q 1497 3097 1228 2736 
Q 959 2375 959 1747 
Q 959 1119 1226 758 
Q 1494 397 1959 397 
Q 2419 397 2687 759 
Q 2956 1122 2956 1747 
Q 2956 2369 2687 2733 
Q 2419 3097 1959 3097 
z
M 1959 3584 
Q 2709 3584 3137 3096 
Q 3566 2609 3566 1747 
Q 3566 888 3137 398 
Q 2709 -91 1959 -91 
Q 1206 -91 779 398 
Q 353 888 353 1747 
Q 353 2609 779 3096 
Q 1206 3584 1959 3584 
z
" transform="scale(0.015625)"/>
       <path id="DejaVuSans-6e" d="M 3513 2113 
L 3513 0 
L 2938 0 
L 2938 2094 
Q 2938 2591 2744 2837 
Q 2550 3084 2163 3084 
Q 1697 3084 1428 2787 
Q 1159 2491 1159 1978 
L 1159 0 
L 581 0 
L 581 3500 
L 1159 3500 
L 1159 2956 
Q 1366 3272 1645 3428 
Q 1925 3584 2291 3584 
Q 2894 3584 3203 3211 
Q 3513 2838 3513 2113 
z
" transform="scale(0.015625)"/>
      </defs>
      <use xlink:href="#DejaVuSans-70"/>
      <use xlink:href="#DejaVuSans-75" transform="translate(63.476562 0)"/>
      <use xlink:href="#DejaVuSans-6c" transform="translate(126.855469 0)"/>
      <use xlink:href="#DejaVuSans-73" transform="translate(154.638672 0)"/>
      <use xlink:href="#DejaVuSans-65" transform="translate(206.738281 0)"/>
      <use xlink:href="#DejaVuSans-3a" transform="translate(268.261719 0)"/>
      <use xlink:href="#DejaVuSans-30" transform="translate(301.953125 0)"/>
      <use xlink:href="#DejaVuSans-20" transform="translate(365.576172 0)"/>
      <use xlink:href="#DejaVuSans-5b" transform="translate(397.363281 0)"/>
      <use xlink:href="#DejaVuSans-63" transform="translate(436.376953 0)"/>
      <use xlink:href="#DejaVuSans-6f" transform="translate(491.357422 0)"/>
      <use xlink:href="#DejaVuSans-75" transform="translate(552.539062 0)"/>
      <use xlink:href="#DejaVuSans-6e" transform="translate(615.917969 0)"/>
      <use xlink:href="#DejaVuSans-74" transform="translate(679.296875 0)"/>
      <use xlink:href="#DejaVuSans-73" transform="translate(718.505859 0)"/>
      <use xlink:href="#DejaVuSans-5d" transform="translate(770.605469 0)"/>
     </g>
    </g>
   </g>
   <g id="line2d_14">
    <path d="M 69.604961 234.307484 
L 70.690083 234.307484 
L 70.690083 227.131229 
L 71.775205 227.131229 
L 71.775205 220.069489 
L 72.860328 220.069489 
L 72.860328 209.763165 
L 73.94545 209.763165 
L 73.94545 201.021875 
L 75.030573 201.021875 
L 75.030573 195.372482 
L 76.115695 195.372482 
L 76.115695 182.508663 
L 77.200817 182.508663 
L 77.200817 171.553422 
L 78.28594 171.553422 
L 78.28594 166.972834 
L 79.371062 166.972834 
L 79.371062 159.567549 
L 80.456184 159.567549 
L 80.456184 152.162265 
L 81.541307 152.162265 
L 81.541307 139.298445 
L 82.626429 139.298445 
L 82.626429 138.764043 
L 83.711552 138.764043 
L 83.711552 130.518984 
L 84.796674 130.518984 
L 84.796674 128.95395 
L 85.881796 128.95395 
L 85.881796 120.785234 
L 86.966919 120.785234 
L 86.966919 114.257895 
L 88.052041 114.257895 
L 88.052041 108.341302 
L 89.137163 108.341302 
L 89.137163 105.211233 
L 90.222286 105.211233 
L 90.222286 97.576919 
L 91.307408 97.576919 
L 91.307408 94.44685 
L 92.392531 94.44685 
L 92.392531 94.675879 
L 93.477653 94.675879 
L 93.477653 89.370031 
L 94.562775 89.370031 
L 94.562775 85.858247 
L 95.647898 85.858247 
L 95.647898 82.53732 
L 96.73302 82.53732 
L 96.73302 79.254565 
L 97.818143 79.254565 
L 97.818143 78.338447 
L 98.903265 78.338447 
L 98.903265 71.429393 
L 99.988387 71.429393 
L 99.988387 72.230996 
L 101.07351 72.230996 
L 101.07351 70.513275 
L 102.158632 70.513275 
L 102.158632 71.429393 
L 103.243754 71.429393 
L 103.243754 64.176795 
L 104.328877 64.176795 
L 104.328877 62.382731 
L 105.413999 62.382731 
L 105.413999 58.71826 
L 106.499122 58.71826 
L 106.499122 57.649456 
L 107.584244 57.649456 
L 107.584244 55.931735 
L 109.754489 55.931735 
L 109.754489 50.358686 
L 110.839611 50.358686 
L 110.839611 49.709769 
L 111.924733 49.709769 
L 111.924733 45.663583 
L 113.009856 45.663583 
L 113.009856 46.770559 
L 114.094978 46.770559 
L 114.094978 46.923245 
L 115.180101 46.923245 
L 115.180101 50.435029 
L 116.265223 50.435029 
L 116.265223 43.182431 
L 117.350345 43.182431 
L 117.350345 50.473201 
L 118.435468 50.473201 
L 118.435468 39.74699 
L 119.52059 39.74699 
L 119.52059 43.449632 
L 120.605712 43.449632 
L 120.605712 39.594303 
L 121.690835 39.594303 
L 121.690835 40.510421 
L 122.775957 40.510421 
L 122.775957 40.24322 
L 123.86108 40.24322 
L 123.86108 38.410985 
L 124.946202 38.410985 
L 124.946202 42.800715 
L 126.031324 42.800715 
L 126.031324 37.418524 
L 127.116447 37.418524 
L 127.116447 36.387891 
L 128.201569 36.387891 
L 128.201569 38.563671 
L 129.286692 38.563671 
L 129.286692 32.837935 
L 130.371814 32.837935 
L 130.371814 37.647553 
L 131.456936 37.647553 
L 131.456936 32.647077 
L 132.542059 32.647077 
L 132.542059 36.387891 
L 133.627181 36.387891 
L 133.627181 31.196558 
L 134.712303 31.196558 
L 134.712303 32.799764 
L 135.797426 32.799764 
L 135.797426 36.884122 
L 136.882548 36.884122 
L 136.882548 33.219651 
L 137.967671 33.219651 
L 137.967671 29.669695 
L 139.052793 29.669695 
L 139.052793 31.807303 
L 140.137915 31.807303 
L 140.137915 35.319087 
L 141.223038 35.319087 
L 141.223038 24.478361 
L 142.30816 24.478361 
L 142.30816 23.905788 
L 143.393282 23.905788 
L 143.393282 30.585813 
L 144.478405 30.585813 
L 144.478405 31.425587 
L 145.563527 31.425587 
L 145.563527 23.791273 
L 146.64865 23.791273 
L 146.64865 24.363847 
L 147.733772 24.363847 
L 147.733772 23.027842 
L 148.818894 23.027842 
L 148.818894 32.418048 
L 149.904017 32.418048 
L 149.904017 30.967528 
L 150.989139 30.967528 
L 150.989139 27.646602 
L 152.074261 27.646602 
L 152.074261 24.821906 
L 153.159384 24.821906 
L 153.159384 28.410033 
L 154.244506 28.410033 
L 154.244506 33.563195 
L 155.329629 33.563195 
L 155.329629 32.799764 
L 156.414751 32.799764 
L 156.414751 24.554705 
L 157.499873 24.554705 
L 157.499873 21.462807 
L 158.584996 21.462807 
L 158.584996 20.890234 
L 159.670118 20.890234 
L 159.670118 26.806827 
L 160.75524 26.806827 
L 160.75524 23.829445 
L 161.840363 23.829445 
L 161.840363 25.050935 
L 162.925485 25.050935 
L 162.925485 24.363847 
L 164.010608 24.363847 
L 164.010608 26.615969 
L 165.09573 26.615969 
L 165.09573 24.898249 
L 166.180852 24.898249 
L 166.180852 28.982607 
L 167.265975 28.982607 
L 167.265975 27.646602 
L 168.351097 27.646602 
L 168.351097 27.761116 
L 169.43622 27.761116 
L 169.43622 28.448205 
L 170.521342 28.448205 
L 170.521342 26.844999 
L 171.606464 26.844999 
L 171.606464 26.38694 
L 172.691587 26.38694 
L 172.691587 25.852538 
L 173.776709 25.852538 
L 173.776709 18.561768 
L 174.861831 18.561768 
L 174.861831 25.050935 
L 175.946954 25.050935 
L 175.946954 28.33369 
L 177.032076 28.33369 
L 177.032076 25.203621 
L 178.117199 25.203621 
L 178.117199 24.783734 
L 179.202321 24.783734 
L 179.202321 29.249808 
L 180.287443 29.249808 
L 180.287443 25.66168 
L 181.372566 25.66168 
L 181.372566 26.310597 
L 182.457688 26.310597 
L 182.457688 28.982607 
L 183.54281 28.982607 
L 183.54281 24.516533 
L 184.627933 24.516533 
L 184.627933 27.1122 
L 185.713055 27.1122 
L 185.713055 22.722469 
L 186.798178 22.722469 
L 186.798178 23.027842 
L 187.8833 23.027842 
L 187.8833 19.5924 
L 188.968422 19.5924 
L 188.968422 26.234254 
L 190.053545 26.234254 
L 190.053545 28.066489 
L 191.138667 28.066489 
L 191.138667 22.417097 
L 192.223789 22.417097 
L 192.223789 26.15791 
L 193.308912 26.15791 
L 193.308912 22.646126 
L 194.394034 22.646126 
L 194.394034 23.829445 
L 195.479157 23.829445 
L 195.479157 25.890709 
L 196.564279 25.890709 
L 196.564279 30.013239 
L 197.649401 30.013239 
L 197.649401 23.371386 
L 198.734524 23.371386 
L 198.734524 27.035857 
L 199.819646 27.035857 
L 199.819646 25.012763 
L 200.904769 25.012763 
L 200.904769 26.88317 
L 201.989891 26.88317 
L 201.989891 26.615969 
L 203.075013 26.615969 
L 203.075013 26.196082 
L 204.160136 26.196082 
L 204.160136 26.768656 
L 205.245258 26.768656 
L 205.245258 28.104661 
L 206.33038 28.104661 
L 206.33038 24.478361 
L 207.415503 24.478361 
L 207.415503 25.16545 
L 208.500625 25.16545 
L 208.500625 26.425111 
L 209.585748 26.425111 
L 209.585748 22.188067 
L 210.67087 22.188067 
L 210.67087 23.409557 
L 211.755992 23.409557 
L 211.755992 24.172989 
L 212.841115 24.172989 
L 212.841115 19.172513 
L 213.926237 19.172513 
L 213.926237 21.04292 
L 215.011359 21.04292 
L 215.011359 29.097121 
L 216.096482 29.097121 
L 216.096482 19.554229 
L 217.181604 19.554229 
L 217.181604 23.295043 
L 218.266727 23.295043 
L 218.266727 22.875155 
L 219.351849 22.875155 
L 219.351849 30.089582 
L 220.436971 30.089582 
L 220.436971 27.1122 
L 221.522094 27.1122 
L 221.522094 27.570259 
L 222.607216 27.570259 
L 222.607216 25.432651 
L 223.692338 25.432651 
L 223.692338 21.920866 
L 224.777461 21.920866 
L 224.777461 22.646126 
L 225.862583 22.646126 
L 225.862583 30.433126 
L 226.947706 30.433126 
L 226.947706 28.257347 
L 228.032828 28.257347 
L 228.032828 25.623508 
L 229.11795 25.623508 
L 229.11795 22.722469 
L 230.203073 22.722469 
L 230.203073 28.868092 
L 231.288195 28.868092 
L 231.288195 23.753102 
L 232.373317 23.753102 
L 232.373317 29.55518 
L 233.45844 29.55518 
L 233.45844 24.363847 
L 234.543562 24.363847 
L 234.543562 25.16545 
L 235.628685 25.16545 
L 235.628685 27.990146 
L 236.713807 27.990146 
L 236.713807 26.921342 
L 237.798929 26.921342 
L 237.798929 22.188067 
L 238.884052 22.188067 
L 238.884052 24.974592 
L 239.969174 24.974592 
L 239.969174 24.745562 
L 241.054297 24.745562 
L 241.054297 20.775719 
L 242.139419 20.775719 
L 242.139419 26.654141 
L 243.224541 26.654141 
L 243.224541 24.860077 
L 244.309664 24.860077 
L 244.309664 19.554229 
L 245.394786 19.554229 
L 245.394786 25.967053 
L 246.479908 25.967053 
L 246.479908 22.340753 
L 247.565031 22.340753 
L 247.565031 23.943959 
L 248.650153 23.943959 
L 248.650153 22.913327 
L 249.735276 22.913327 
L 249.735276 27.646602 
L 250.820398 27.646602 
L 250.820398 22.646126 
L 251.90552 22.646126 
L 251.90552 28.486376 
L 252.990643 28.486376 
L 252.990643 21.806351 
L 254.075765 21.806351 
L 254.075765 26.005224 
L 255.160887 26.005224 
L 255.160887 24.93642 
L 256.24601 24.93642 
L 256.24601 38.410985 
L 258.416255 38.334641 
L 258.416255 47.381304 
L 259.501377 47.381304 
L 259.501377 53.488755 
L 260.586499 53.488755 
L 260.586499 69.17727 
L 261.671622 69.17727 
L 261.671622 78.300276 
L 262.756744 78.300276 
L 262.756744 84.178698 
L 263.841866 84.178698 
L 263.841866 90.400664 
L 264.926989 90.400664 
L 264.926989 96.240914 
L 266.012111 96.240914 
L 266.012111 108.035929 
L 267.097234 108.035929 
L 267.097234 114.105209 
L 268.182356 114.105209 
L 268.182356 125.098621 
L 269.267478 125.098621 
L 269.267478 133.649053 
L 270.352601 133.649053 
L 270.352601 136.702779 
L 271.437723 136.702779 
L 271.437723 143.001088 
L 272.522846 143.001088 
L 272.522846 146.054813 
L 273.607968 146.054813 
L 273.607968 156.055765 
L 274.69309 156.055765 
L 274.69309 156.513824 
L 275.778213 156.513824 
L 275.778213 165.293285 
L 276.863335 165.293285 
L 276.863335 169.339471 
L 277.948457 169.339471 
L 277.948457 169.453986 
L 279.03358 169.453986 
L 279.03358 177.431844 
L 280.118702 177.431844 
L 280.118702 177.546359 
L 281.203825 177.546359 
L 281.203825 183.043065 
L 282.288947 183.043065 
L 282.288947 184.226384 
L 283.374069 184.226384 
L 283.374069 188.616114 
L 284.459192 188.616114 
L 284.459192 193.998306 
L 286.629436 194.074649 
L 286.629436 198.998782 
L 287.714559 198.998782 
L 287.714559 200.105757 
L 288.799681 200.105757 
L 288.799681 204.953547 
L 289.884804 204.953547 
L 289.884804 206.442238 
L 290.969926 206.442238 
L 290.969926 208.541674 
L 292.055048 208.541674 
L 292.055048 210.717454 
L 293.140171 210.717454 
L 293.140171 212.397003 
L 294.225293 212.397003 
L 294.225293 213.160434 
L 295.310415 213.160434 
L 295.310415 215.412557 
L 296.395538 215.412557 
L 296.395538 216.481361 
L 297.48066 216.481361 
L 297.48066 218.084567 
L 298.565783 218.084567 
L 298.565783 219.687773 
L 299.650905 219.687773 
L 299.650905 222.05441 
L 300.736027 222.05441 
L 300.736027 221.55818 
L 301.82115 221.55818 
L 301.82115 223.390415 
L 302.906272 223.390415 
L 302.906272 224.497391 
L 303.991394 224.497391 
L 303.991394 225.757053 
L 305.076517 225.757053 
L 305.076517 229.268837 
L 306.161639 229.268837 
L 306.161639 228.238205 
L 307.246762 228.238205 
L 307.246762 229.726896 
L 308.331884 229.726896 
L 308.331884 229.841411 
L 309.417006 229.841411 
L 309.417006 230.375813 
L 310.502129 230.375813 
L 310.502129 231.215587 
L 311.587251 231.215587 
L 311.587251 231.673646 
L 312.672374 231.673646 
L 312.672374 233.124166 
L 313.757496 233.124166 
L 313.757496 233.849425 
L 314.842618 233.849425 
L 314.842618 234.574685 
L 315.927741 234.574685 
L 315.927741 233.544053 
L 317.012863 233.544053 
L 317.012863 235.338117 
L 318.097985 235.338117 
L 318.097985 235.070916 
L 319.183108 235.070916 
L 319.183108 236.13972 
L 320.26823 236.13972 
L 320.26823 236.521435 
L 321.353353 236.521435 
L 321.353353 237.36121 
L 323.523597 237.36121 
L 323.523597 238.200985 
L 324.60872 238.200985 
L 324.60872 238.391842 
L 325.693842 238.391842 
L 325.693842 239.651504 
L 326.778964 239.651504 
L 326.778964 239.460646 
L 327.864087 239.460646 
L 327.864087 240.262249 
L 330.034332 240.300421 
L 330.034332 240.03322 
L 331.119454 240.03322 
L 331.119454 240.720308 
L 332.204576 240.720308 
L 332.204576 241.636426 
L 334.374821 241.598254 
L 334.374821 241.445568 
L 336.545066 241.521911 
L 336.545066 242.819745 
L 337.630188 242.819745 
L 337.630188 241.903627 
L 339.800433 241.827284 
L 339.800433 242.285343 
L 340.885555 242.285343 
L 340.885555 242.819745 
L 341.970678 242.819745 
L 341.970678 243.125117 
L 343.0558 243.125117 
L 343.0558 243.392318 
L 345.226045 243.354147 
L 345.226045 244.003063 
L 346.311167 244.003063 
L 346.311167 243.659519 
L 347.39629 243.659519 
L 347.39629 244.003063 
L 348.481412 244.003063 
L 348.481412 244.232093 
L 349.566534 244.232093 
L 349.566534 243.774034 
L 351.736779 243.774034 
L 351.736779 244.15575 
L 352.821902 244.15575 
L 352.821902 244.003063 
L 353.907024 244.003063 
L 353.907024 243.850377 
L 354.992146 243.850377 
L 354.992146 244.384779 
L 356.077269 244.384779 
L 356.077269 244.15575 
L 357.162391 244.15575 
L 357.162391 244.613808 
L 358.247513 244.613808 
L 358.247513 244.728323 
L 359.332636 244.728323 
L 359.332636 244.575637 
L 360.417758 244.575637 
L 360.417758 245.071867 
L 361.502881 245.071867 
L 361.502881 244.957352 
L 362.588003 244.957352 
L 362.588003 244.804666 
L 363.673125 244.804666 
L 363.673125 244.65198 
L 364.758248 244.65198 
L 364.758248 245.300897 
L 365.84337 245.300897 
L 365.84337 244.957352 
L 369.098737 244.957352 
L 369.098737 245.262725 
L 370.18386 245.262725 
L 370.18386 245.415411 
L 372.354104 245.339068 
L 372.354104 245.186382 
L 374.524349 245.262725 
L 374.524349 245.415411 
L 378.864839 245.453583 
L 378.864839 245.644441 
L 381.035083 245.606269 
L 381.035083 245.453583 
L 384.290451 245.491754 
L 384.290451 245.797127 
L 385.375573 245.797127 
L 385.375573 245.37724 
L 386.460695 245.37724 
L 386.460695 245.682612 
L 388.63094 245.606269 
L 388.63094 245.568098 
L 389.716062 245.568098 
L 389.716062 245.720784 
L 390.801185 245.720784 
L 390.801185 245.491754 
L 391.886307 245.491754 
L 391.886307 245.644441 
L 395.141674 245.644441 
L 395.141674 245.644441 
" clip-path="url(#p6007a7029c)" style="fill: none; stroke: #1f77b4; stroke-width: 1.5; stroke-linecap: square"/>
   </g>
   <g id="patch_3">
    <path d="M 53.328125 257.158895 
L 53.328125 7.2 
" style="fill: none; stroke: #000000; stroke-width: 0.8; stroke-linejoin: miter; stroke-linecap: square"/>
   </g>
   <g id="patch_4">
    <path d="M 411.41851 257.158895 
L 411.41851 7.2 
" style="fill: none; stroke: #000000; stroke-width: 0.8; stroke-linejoin: miter; stroke-linecap: square"/>
   </g>
   <g id="patch_5">
    <path d="M 53.328125 257.158895 
L 411.41851 257.158895 
" style="fill: none; stroke: #000000; stroke-width: 0.8; stroke-linejoin: miter; stroke-linecap: square"/>
   </g>
   <g id="patch_6">
    <path d="M 53.328125 7.2 
L 411.41851 7.2 
" style="fill: none; stroke: #000000; stroke-width: 0.8; stroke-linejoin: miter; stroke-linecap: square"/>
   </g>
  </g>
  <g id="axes_2">
   <g id="patch_7">
    <path d="M 507.109135 257.158895 
L 865.19952 257.158895 
L 865.19952 7.2 
L 507.109135 7.2 
z
" style="fill: #ffffff"/>
   </g>
   <g id="matplotlib.axis_3">
    <g id="xtick_7">
     <g id="line2d_15">
      <g>
       <use xlink:href="#mb733bc75e4" x="520.10263" y="257.158895" style="stroke: #000000; stroke-width: 0.8"/>
      </g>
     </g>
     <g id="text_16">
      <!-- 0.0 -->
      <g transform="translate(512.151067 271.757332) scale(0.1 -0.1)">
       <defs>
        <path id="DejaVuSans-2e" d="M 684 794 
L 1344 794 
L 1344 0 
L 684 0 
L 684 794 
z
" transform="scale(0.015625)"/>
       </defs>
       <use xlink:href="#DejaVuSans-30"/>
       <use xlink:href="#DejaVuSans-2e" transform="translate(63.623047 0)"/>
       <use xlink:href="#DejaVuSans-30" transform="translate(95.410156 0)"/>
      </g>
     </g>
    </g>
    <g id="xtick_8">
     <g id="line2d_16">
      <g>
       <use xlink:href="#mb733bc75e4" x="561.449156" y="257.158895" style="stroke: #000000; stroke-width: 0.8"/>
      </g>
     </g>
     <g id="text_17">
      <!-- 2.5 -->
      <g transform="translate(553.497594 271.757332) scale(0.1 -0.1)">
       <use xlink:href="#DejaVuSans-32"/>
       <use xlink:href="#DejaVuSans-2e" transform="translate(63.623047 0)"/>
       <use xlink:href="#DejaVuSans-35" transform="translate(95.410156 0)"/>
      </g>
     </g>
    </g>
    <g id="xtick_9">
     <g id="line2d_17">
      <g>
       <use xlink:href="#mb733bc75e4" x="602.795683" y="257.158895" style="stroke: #000000; stroke-width: 0.8"/>
      </g>
     </g>
     <g id="text_18">
      <!-- 5.0 -->
      <g transform="translate(594.84412 271.757332) scale(0.1 -0.1)">
       <use xlink:href="#DejaVuSans-35"/>
       <use xlink:href="#DejaVuSans-2e" transform="translate(63.623047 0)"/>
       <use xlink:href="#DejaVuSans-30" transform="translate(95.410156 0)"/>
      </g>
     </g>
    </g>
    <g id="xtick_10">
     <g id="line2d_18">
      <g>
       <use xlink:href="#mb733bc75e4" x="644.142209" y="257.158895" style="stroke: #000000; stroke-width: 0.8"/>
      </g>
     </g>
     <g id="text_19">
      <!-- 7.5 -->
      <g transform="translate(636.190647 271.757332) scale(0.1 -0.1)">
       <defs>
        <path id="DejaVuSans-37" d="M 525 4666 
L 3525 4666 
L 3525 4397 
L 1831 0 
L 1172 0 
L 2766 4134 
L 525 4134 
L 525 4666 
z
" transform="scale(0.015625)"/>
       </defs>
       <use xlink:href="#DejaVuSans-37"/>
       <use xlink:href="#DejaVuSans-2e" transform="translate(63.623047 0)"/>
       <use xlink:href="#DejaVuSans-35" transform="translate(95.410156 0)"/>
      </g>
     </g>
    </g>
    <g id="xtick_11">
     <g id="line2d_19">
      <g>
       <use xlink:href="#mb733bc75e4" x="685.488736" y="257.158895" style="stroke: #000000; stroke-width: 0.8"/>
      </g>
     </g>
     <g id="text_20">
      <!-- 10.0 -->
      <g transform="translate(674.355923 271.757332) scale(0.1 -0.1)">
       <use xlink:href="#DejaVuSans-31"/>
       <use xlink:href="#DejaVuSans-30" transform="translate(63.623047 0)"/>
       <use xlink:href="#DejaVuSans-2e" transform="translate(127.246094 0)"/>
       <use xlink:href="#DejaVuSans-30" transform="translate(159.033203 0)"/>
      </g>
     </g>
    </g>
    <g id="xtick_12">
     <g id="line2d_20">
      <g>
       <use xlink:href="#mb733bc75e4" x="726.835262" y="257.158895" style="stroke: #000000; stroke-width: 0.8"/>
      </g>
     </g>
     <g id="text_21">
      <!-- 12.5 -->
      <g transform="translate(715.70245 271.757332) scale(0.1 -0.1)">
       <use xlink:href="#DejaVuSans-31"/>
       <use xlink:href="#DejaVuSans-32" transform="translate(63.623047 0)"/>
       <use xlink:href="#DejaVuSans-2e" transform="translate(127.246094 0)"/>
       <use xlink:href="#DejaVuSans-35" transform="translate(159.033203 0)"/>
      </g>
     </g>
    </g>
    <g id="xtick_13">
     <g id="line2d_21">
      <g>
       <use xlink:href="#mb733bc75e4" x="768.181789" y="257.158895" style="stroke: #000000; stroke-width: 0.8"/>
      </g>
     </g>
     <g id="text_22">
      <!-- 15.0 -->
      <g transform="translate(757.048976 271.757332) scale(0.1 -0.1)">
       <use xlink:href="#DejaVuSans-31"/>
       <use xlink:href="#DejaVuSans-35" transform="translate(63.623047 0)"/>
       <use xlink:href="#DejaVuSans-2e" transform="translate(127.246094 0)"/>
       <use xlink:href="#DejaVuSans-30" transform="translate(159.033203 0)"/>
      </g>
     </g>
    </g>
    <g id="xtick_14">
     <g id="line2d_22">
      <g>
       <use xlink:href="#mb733bc75e4" x="809.528315" y="257.158895" style="stroke: #000000; stroke-width: 0.8"/>
      </g>
     </g>
     <g id="text_23">
      <!-- 17.5 -->
      <g transform="translate(798.395503 271.757332) scale(0.1 -0.1)">
       <use xlink:href="#DejaVuSans-31"/>
       <use xlink:href="#DejaVuSans-37" transform="translate(63.623047 0)"/>
       <use xlink:href="#DejaVuSans-2e" transform="translate(127.246094 0)"/>
       <use xlink:href="#DejaVuSans-35" transform="translate(159.033203 0)"/>
      </g>
     </g>
    </g>
    <g id="xtick_15">
     <g id="line2d_23">
      <g>
       <use xlink:href="#mb733bc75e4" x="850.874842" y="257.158895" style="stroke: #000000; stroke-width: 0.8"/>
      </g>
     </g>
     <g id="text_24">
      <!-- 20.0 -->
      <g transform="translate(839.742029 271.757332) scale(0.1 -0.1)">
       <use xlink:href="#DejaVuSans-32"/>
       <use xlink:href="#DejaVuSans-30" transform="translate(63.623047 0)"/>
       <use xlink:href="#DejaVuSans-2e" transform="translate(127.246094 0)"/>
       <use xlink:href="#DejaVuSans-30" transform="translate(159.033203 0)"/>
      </g>
     </g>
    </g>
    <g id="text_25">
     <!-- wavelength [Å] -->
     <g transform="translate(648.116827 287.119832) scale(0.1 -0.1)">
      <defs>
       <path id="DejaVuSans-77" d="M 269 3500 
L 844 3500 
L 1563 769 
L 2278 3500 
L 2956 3500 
L 3675 769 
L 4391 3500 
L 4966 3500 
L 4050 0 
L 3372 0 
L 2619 2869 
L 1863 0 
L 1184 0 
L 269 3500 
z
" transform="scale(0.015625)"/>
       <path id="DejaVuSans-61" d="M 2194 1759 
Q 1497 1759 1228 1600 
Q 959 1441 959 1056 
Q 959 750 1161 570 
Q 1363 391 1709 391 
Q 2188 391 2477 730 
Q 2766 1069 2766 1631 
L 2766 1759 
L 2194 1759 
z
M 3341 1997 
L 3341 0 
L 2766 0 
L 2766 531 
Q 2569 213 2275 61 
Q 1981 -91 1556 -91 
Q 1019 -91 701 211 
Q 384 513 384 1019 
Q 384 1609 779 1909 
Q 1175 2209 1959 2209 
L 2766 2209 
L 2766 2266 
Q 2766 2663 2505 2880 
Q 2244 3097 1772 3097 
Q 1472 3097 1187 3025 
Q 903 2953 641 2809 
L 641 3341 
Q 956 3463 1253 3523 
Q 1550 3584 1831 3584 
Q 2591 3584 2966 3190 
Q 3341 2797 3341 1997 
z
" transform="scale(0.015625)"/>
       <path id="DejaVuSans-76" d="M 191 3500 
L 800 3500 
L 1894 563 
L 2988 3500 
L 3597 3500 
L 2284 0 
L 1503 0 
L 191 3500 
z
" transform="scale(0.015625)"/>
       <path id="DejaVuSans-67" d="M 2906 1791 
Q 2906 2416 2648 2759 
Q 2391 3103 1925 3103 
Q 1463 3103 1205 2759 
Q 947 2416 947 1791 
Q 947 1169 1205 825 
Q 1463 481 1925 481 
Q 2391 481 2648 825 
Q 2906 1169 2906 1791 
z
M 3481 434 
Q 3481 -459 3084 -895 
Q 2688 -1331 1869 -1331 
Q 1566 -1331 1297 -1286 
Q 1028 -1241 775 -1147 
L 775 -588 
Q 1028 -725 1275 -790 
Q 1522 -856 1778 -856 
Q 2344 -856 2625 -561 
Q 2906 -266 2906 331 
L 2906 616 
Q 2728 306 2450 153 
Q 2172 0 1784 0 
Q 1141 0 747 490 
Q 353 981 353 1791 
Q 353 2603 747 3093 
Q 1141 3584 1784 3584 
Q 2172 3584 2450 3431 
Q 2728 3278 2906 2969 
L 2906 3500 
L 3481 3500 
L 3481 434 
z
" transform="scale(0.015625)"/>
       <path id="DejaVuSans-c5" d="M 2663 5081 
Q 2663 5278 2523 5417 
Q 2384 5556 2188 5556 
Q 1988 5556 1852 5420 
Q 1716 5284 1716 5081 
Q 1716 4884 1853 4746 
Q 1991 4609 2188 4609 
Q 2384 4609 2523 4746 
Q 2663 4884 2663 5081 
z
M 2188 4044 
L 1338 1722 
L 3041 1722 
L 2188 4044 
z
M 1716 4366 
Q 1525 4494 1428 4673 
Q 1331 4853 1331 5081 
Q 1331 5441 1579 5691 
Q 1828 5941 2188 5941 
Q 2544 5941 2795 5689 
Q 3047 5438 3047 5081 
Q 3047 4863 2948 4678 
Q 2850 4494 2663 4366 
L 4325 0 
L 3669 0 
L 3244 1197 
L 1141 1197 
L 716 0 
L 50 0 
L 1716 4366 
z
" transform="scale(0.015625)"/>
      </defs>
      <use xlink:href="#DejaVuSans-77"/>
      <use xlink:href="#DejaVuSans-61" transform="translate(81.787109 0)"/>
      <use xlink:href="#DejaVuSans-76" transform="translate(143.066406 0)"/>
      <use xlink:href="#DejaVuSans-65" transform="translate(202.246094 0)"/>
      <use xlink:href="#DejaVuSans-6c" transform="translate(263.769531 0)"/>
      <use xlink:href="#DejaVuSans-65" transform="translate(291.552734 0)"/>
      <use xlink:href="#DejaVuSans-6e" transform="translate(353.076172 0)"/>
      <use xlink:href="#DejaVuSans-67" transform="translate(416.455078 0)"/>
      <use xlink:href="#DejaVuSans-74" transform="translate(479.931641 0)"/>
      <use xlink:href="#DejaVuSans-68" transform="translate(519.140625 0)"/>
      <use xlink:href="#DejaVuSans-20" transform="translate(582.519531 0)"/>
      <use xlink:href="#DejaVuSans-5b" transform="translate(614.306641 0)"/>
      <use xlink:href="#DejaVuSans-c5" transform="translate(653.320312 0)"/>
      <use xlink:href="#DejaVuSans-5d" transform="translate(721.728516 0)"/>
     </g>
    </g>
   </g>
   <g id="matplotlib.axis_4">
    <g id="ytick_8">
     <g id="line2d_24">
      <g>
       <use xlink:href="#mb339e8980a" x="507.109135" y="245.850012" style="stroke: #000000; stroke-width: 0.8"/>
      </g>
     </g>
     <g id="text_26">
      <!-- 0 -->
      <g transform="translate(493.746635 249.649231) scale(0.1 -0.1)">
       <use xlink:href="#DejaVuSans-30"/>
      </g>
     </g>
    </g>
    <g id="ytick_9">
     <g id="line2d_25">
      <g>
       <use xlink:href="#mb339e8980a" x="507.109135" y="192.965223" style="stroke: #000000; stroke-width: 0.8"/>
      </g>
     </g>
     <g id="text_27">
      <!-- 5000 -->
      <g transform="translate(474.659135 196.764442) scale(0.1 -0.1)">
       <use xlink:href="#DejaVuSans-35"/>
       <use xlink:href="#DejaVuSans-30" transform="translate(63.623047 0)"/>
       <use xlink:href="#DejaVuSans-30" transform="translate(127.246094 0)"/>
       <use xlink:href="#DejaVuSans-30" transform="translate(190.869141 0)"/>
      </g>
     </g>
    </g>
    <g id="ytick_10">
     <g id="line2d_26">
      <g>
       <use xlink:href="#mb339e8980a" x="507.109135" y="140.080435" style="stroke: #000000; stroke-width: 0.8"/>
      </g>
     </g>
     <g id="text_28">
      <!-- 10000 -->
      <g transform="translate(468.296635 143.879654) scale(0.1 -0.1)">
       <use xlink:href="#DejaVuSans-31"/>
       <use xlink:href="#DejaVuSans-30" transform="translate(63.623047 0)"/>
       <use xlink:href="#DejaVuSans-30" transform="translate(127.246094 0)"/>
       <use xlink:href="#DejaVuSans-30" transform="translate(190.869141 0)"/>
       <use xlink:href="#DejaVuSans-30" transform="translate(254.492188 0)"/>
      </g>
     </g>
    </g>
    <g id="ytick_11">
     <g id="line2d_27">
      <g>
       <use xlink:href="#mb339e8980a" x="507.109135" y="87.195646" style="stroke: #000000; stroke-width: 0.8"/>
      </g>
     </g>
     <g id="text_29">
      <!-- 15000 -->
      <g transform="translate(468.296635 90.994865) scale(0.1 -0.1)">
       <use xlink:href="#DejaVuSans-31"/>
       <use xlink:href="#DejaVuSans-35" transform="translate(63.623047 0)"/>
       <use xlink:href="#DejaVuSans-30" transform="translate(127.246094 0)"/>
       <use xlink:href="#DejaVuSans-30" transform="translate(190.869141 0)"/>
       <use xlink:href="#DejaVuSans-30" transform="translate(254.492188 0)"/>
      </g>
     </g>
    </g>
    <g id="ytick_12">
     <g id="line2d_28">
      <g>
       <use xlink:href="#mb339e8980a" x="507.109135" y="34.310858" style="stroke: #000000; stroke-width: 0.8"/>
      </g>
     </g>
     <g id="text_30">
      <!-- 20000 -->
      <g transform="translate(468.296635 38.110077) scale(0.1 -0.1)">
       <use xlink:href="#DejaVuSans-32"/>
       <use xlink:href="#DejaVuSans-30" transform="translate(63.623047 0)"/>
       <use xlink:href="#DejaVuSans-30" transform="translate(127.246094 0)"/>
       <use xlink:href="#DejaVuSans-30" transform="translate(190.869141 0)"/>
       <use xlink:href="#DejaVuSans-30" transform="translate(254.492188 0)"/>
      </g>
     </g>
    </g>
    <g id="text_31">
     <!-- pulse:0 [counts] -->
     <g transform="translate(462.216947 172.659916) rotate(-90) scale(0.1 -0.1)">
      <use xlink:href="#DejaVuSans-70"/>
      <use xlink:href="#DejaVuSans-75" transform="translate(63.476562 0)"/>
      <use xlink:href="#DejaVuSans-6c" transform="translate(126.855469 0)"/>
      <use xlink:href="#DejaVuSans-73" transform="translate(154.638672 0)"/>
      <use xlink:href="#DejaVuSans-65" transform="translate(206.738281 0)"/>
      <use xlink:href="#DejaVuSans-3a" transform="translate(268.261719 0)"/>
      <use xlink:href="#DejaVuSans-30" transform="translate(301.953125 0)"/>
      <use xlink:href="#DejaVuSans-20" transform="translate(365.576172 0)"/>
      <use xlink:href="#DejaVuSans-5b" transform="translate(397.363281 0)"/>
      <use xlink:href="#DejaVuSans-63" transform="translate(436.376953 0)"/>
      <use xlink:href="#DejaVuSans-6f" transform="translate(491.357422 0)"/>
      <use xlink:href="#DejaVuSans-75" transform="translate(552.539062 0)"/>
      <use xlink:href="#DejaVuSans-6e" transform="translate(615.917969 0)"/>
      <use xlink:href="#DejaVuSans-74" transform="translate(679.296875 0)"/>
      <use xlink:href="#DejaVuSans-73" transform="translate(718.505859 0)"/>
      <use xlink:href="#DejaVuSans-5d" transform="translate(770.605469 0)"/>
     </g>
    </g>
   </g>
   <g id="line2d_29">
    <path d="M 523.385971 154.031442 
L 524.471093 154.031442 
L 524.471093 145.051605 
L 525.556215 145.051605 
L 525.556215 137.859274 
L 526.641338 137.859274 
L 526.641338 138.123698 
L 527.72646 138.123698 
L 527.72646 145.569876 
L 528.811583 145.569876 
L 528.811583 152.815092 
L 529.896705 152.815092 
L 529.896705 147.209304 
L 530.981827 147.209304 
L 530.981827 127.377509 
L 532.06695 127.377509 
L 532.06695 102.563966 
L 533.152072 102.563966 
L 533.152072 81.960052 
L 534.237194 81.960052 
L 534.237194 58.384014 
L 535.322317 58.384014 
L 535.322317 35.199322 
L 536.407439 35.199322 
L 536.407439 21.65024 
L 537.492562 21.65024 
L 537.492562 18.826192 
L 538.577684 18.826192 
L 538.577684 18.561768 
L 539.662806 18.561768 
L 539.662806 22.157934 
L 540.747929 22.157934 
L 540.747929 30.714692 
L 541.833051 30.714692 
L 541.833051 40.001261 
L 542.918173 40.001261 
L 542.918173 49.203214 
L 544.003296 49.203214 
L 544.003296 60.700367 
L 545.088418 60.700367 
L 545.088418 67.935006 
L 546.173541 67.935006 
L 546.173541 77.697538 
L 547.258663 77.697538 
L 547.258663 84.868716 
L 548.343785 84.868716 
L 548.343785 90.093733 
L 549.428908 90.093733 
L 549.428908 93.806245 
L 550.51403 93.806245 
L 550.51403 96.503369 
L 551.599153 96.503369 
L 551.599153 96.989909 
L 552.684275 96.989909 
L 552.684275 94.387978 
L 553.769397 94.387978 
L 553.769397 92.388933 
L 554.85452 92.388933 
L 554.85452 86.127374 
L 555.939642 86.127374 
L 555.939642 79.982161 
L 557.024764 79.982161 
L 557.024764 70.716746 
L 558.109887 70.716746 
L 558.109887 58.151321 
L 559.195009 58.151321 
L 559.195009 52.651303 
L 560.280132 52.651303 
L 560.280132 44.623392 
L 561.365254 44.623392 
L 561.365254 34.427204 
L 562.450376 34.427204 
L 562.450376 30.788731 
L 563.535499 30.788731 
L 563.535499 42.296461 
L 564.620621 42.296461 
L 564.620621 49.901294 
L 565.705743 49.901294 
L 565.705743 58.701322 
L 566.790866 58.701322 
L 566.790866 68.104238 
L 567.875988 68.104238 
L 567.875988 78.427349 
L 568.961111 78.427349 
L 568.961111 86.804299 
L 570.046233 86.804299 
L 570.046233 96.958178 
L 571.131355 96.958178 
L 571.131355 104.668781 
L 572.216478 104.668781 
L 572.216478 112.167844 
L 573.3016 112.167844 
L 573.3016 118.154402 
L 574.386722 118.154402 
L 574.386722 125.124617 
L 575.471845 125.124617 
L 575.471845 132.115986 
L 576.556967 132.115986 
L 576.556967 137.35158 
L 577.64209 137.35158 
L 577.64209 142.343904 
L 578.727212 142.343904 
L 578.727212 147.410267 
L 579.812334 147.410267 
L 579.812334 149.885275 
L 580.897457 149.885275 
L 580.897457 156.707412 
L 581.982579 156.707412 
L 581.982579 159.859346 
L 583.067702 159.859346 
L 583.067702 164.6084 
L 584.152824 164.6084 
L 584.152824 168.077642 
L 585.237946 168.077642 
L 585.237946 172.075732 
L 586.323069 172.075732 
L 586.323069 174.381509 
L 587.408191 174.381509 
L 587.408191 178.950754 
L 588.493313 178.950754 
L 588.493313 181.838264 
L 589.578436 181.838264 
L 589.578436 186.714241 
L 590.663558 186.714241 
L 590.663558 189.432519 
L 591.748681 189.432519 
L 591.748681 191.844066 
L 592.833803 191.844066 
L 592.833803 194.075804 
L 593.918925 194.075804 
L 593.918925 195.852733 
L 595.004048 195.852733 
L 595.004048 197.545046 
L 596.08917 197.545046 
L 596.08917 201.796983 
L 598.259415 201.881599 
L 598.259415 203.901798 
L 599.344537 203.901798 
L 599.344537 205.784496 
L 600.42966 205.784496 
L 600.42966 207.148924 
L 601.514782 207.148924 
L 601.514782 209.380662 
L 602.599904 209.380662 
L 602.599904 210.850859 
L 603.685027 210.850859 
L 603.685027 212.09894 
L 604.770149 212.09894 
L 604.770149 213.822984 
L 605.855271 213.822984 
L 605.855271 215.568182 
L 606.940394 215.568182 
L 606.940394 217.355688 
L 608.025516 217.355688 
L 608.025516 217.006648 
L 609.110639 217.006648 
L 609.110639 219.925889 
L 610.195761 219.925889 
L 610.195761 220.380698 
L 611.280883 220.380698 
L 611.280883 221.279739 
L 612.366006 221.279739 
L 612.366006 221.44897 
L 613.451128 221.44897 
L 613.451128 223.553785 
L 614.53625 223.553785 
L 614.53625 224.971097 
L 615.621373 224.971097 
L 615.621373 225.373022 
L 616.706495 225.373022 
L 616.706495 225.732638 
L 617.791618 225.732638 
L 617.791618 226.272063 
L 618.87674 226.272063 
L 618.87674 227.128797 
L 619.961862 227.128797 
L 619.961862 228.546109 
L 621.046985 228.546109 
L 621.046985 229.455727 
L 622.132107 229.455727 
L 622.132107 228.937456 
L 623.21723 228.937456 
L 623.21723 229.995152 
L 624.302352 229.995152 
L 624.302352 231.031694 
L 625.387474 231.031694 
L 625.387474 232.004774 
L 626.472597 232.004774 
L 626.472597 232.184582 
L 627.557719 232.184582 
L 627.557719 232.586507 
L 628.642841 232.586507 
L 628.642841 233.400933 
L 630.813086 233.400933 
L 630.813086 233.855742 
L 631.898209 233.855742 
L 631.898209 234.395167 
L 632.983331 234.395167 
L 632.983331 234.723052 
L 635.153576 234.797091 
L 635.153576 235.146131 
L 636.238698 235.146131 
L 636.238698 235.463439 
L 637.32382 235.463439 
L 637.32382 235.833633 
L 638.408943 235.833633 
L 638.408943 236.806713 
L 639.494065 236.806713 
L 639.494065 237.102868 
L 640.579188 237.102868 
L 640.579188 237.250945 
L 643.834555 237.335561 
L 643.834555 238.012486 
L 646.004799 238.03364 
L 646.004799 238.403834 
L 647.089922 238.403834 
L 647.089922 239.123067 
L 648.175044 239.123067 
L 648.175044 238.499026 
L 649.260167 238.499026 
L 649.260167 239.059605 
L 650.345289 239.059605 
L 650.345289 239.49326 
L 651.430411 239.49326 
L 651.430411 239.683645 
L 652.515534 239.683645 
L 652.515534 239.059605 
L 653.600656 239.059605 
L 653.600656 240.127878 
L 654.685779 240.127878 
L 654.685779 240.550956 
L 655.770901 240.550956 
L 655.770901 240.286532 
L 656.856023 240.286532 
L 656.856023 240.402879 
L 657.941146 240.402879 
L 657.941146 241.111535 
L 660.11139 241.143266 
L 660.11139 240.550956 
L 661.196513 240.550956 
L 661.196513 241.16442 
L 662.281635 241.16442 
L 662.281635 241.386536 
L 663.366758 241.386536 
L 663.366758 241.111535 
L 664.45188 241.111535 
L 664.45188 241.280766 
L 665.537002 241.280766 
L 665.537002 241.862499 
L 666.622125 241.862499 
L 666.622125 241.555767 
L 667.707247 241.555767 
L 667.707247 241.862499 
L 669.877492 241.936537 
L 669.877492 242.602886 
L 670.962614 242.602886 
L 670.962614 241.947114 
L 672.047737 241.947114 
L 672.047737 242.560578 
L 673.132859 242.560578 
L 673.132859 242.169231 
L 674.217981 242.169231 
L 674.217981 242.560578 
L 675.303104 242.560578 
L 675.303104 242.920195 
L 676.388226 242.920195 
L 676.388226 242.719232 
L 677.473348 242.719232 
L 677.473348 243.078849 
L 678.558471 243.078849 
L 678.558471 242.750963 
L 681.813838 242.655771 
L 681.813838 242.877887 
L 682.89896 242.877887 
L 682.89896 243.00481 
L 683.984083 243.00481 
L 683.984083 243.121157 
L 686.154327 243.184618 
L 686.154327 243.575966 
L 691.579939 243.554812 
L 691.579939 244.020198 
L 692.665062 244.020198 
L 692.665062 243.787505 
L 694.835307 243.798082 
L 694.835307 243.988467 
L 697.005551 243.914429 
L 697.005551 243.607697 
L 698.090674 243.607697 
L 698.090674 243.999044 
L 699.175796 243.999044 
L 699.175796 243.861544 
L 700.260918 243.861544 
L 700.260918 244.104814 
L 702.431163 244.115391 
L 702.431163 243.97789 
L 704.601408 244.062506 
L 704.601408 244.210583 
L 705.68653 244.210583 
L 705.68653 244.32693 
L 708.941897 244.348084 
L 708.941897 244.549046 
L 710.02702 244.549046 
L 710.02702 244.422123 
L 712.197265 244.369238 
L 712.197265 244.633662 
L 725.218733 244.623085 
L 725.218733 244.792316 
L 727.388978 244.866355 
L 727.388978 244.961547 
L 732.81459 244.887509 
L 732.81459 244.81347 
L 734.984835 244.771162 
L 734.984835 245.003855 
L 738.240202 244.929817 
L 738.240202 245.141356 
L 752.346793 245.130779 
L 752.346793 245.268279 
L 755.60216 245.331741 
L 755.60216 245.43751 
L 756.687282 245.43751 
L 756.687282 245.289433 
L 757.772404 245.289433 
L 757.772404 245.173087 
L 758.857527 245.173087 
L 758.857527 245.458664 
L 761.027772 245.352895 
L 761.027772 245.310587 
L 764.283139 245.416357 
L 764.283139 245.448087 
L 766.453384 245.426934 
L 766.453384 245.278856 
L 767.538506 245.278856 
L 767.538506 245.458664 
L 775.134363 245.511549 
L 775.134363 245.575011 
L 780.559974 245.553857 
L 780.559974 245.43751 
L 784.900464 245.490395 
L 784.900464 245.627896 
L 821.794625 245.701934 
L 821.794625 245.744242 
L 848.922684 245.754819 
L 848.922684 245.754819 
" clip-path="url(#p30383348f0)" style="fill: none; stroke: #1f77b4; stroke-width: 1.5; stroke-linecap: square"/>
   </g>
   <g id="patch_8">
    <path d="M 507.109135 257.158895 
L 507.109135 7.2 
" style="fill: none; stroke: #000000; stroke-width: 0.8; stroke-linejoin: miter; stroke-linecap: square"/>
   </g>
   <g id="patch_9">
    <path d="M 865.19952 257.158895 
L 865.19952 7.2 
" style="fill: none; stroke: #000000; stroke-width: 0.8; stroke-linejoin: miter; stroke-linecap: square"/>
   </g>
   <g id="patch_10">
    <path d="M 507.109135 257.158895 
L 865.19952 257.158895 
" style="fill: none; stroke: #000000; stroke-width: 0.8; stroke-linejoin: miter; stroke-linecap: square"/>
   </g>
   <g id="patch_11">
    <path d="M 507.109135 7.2 
L 865.19952 7.2 
" style="fill: none; stroke: #000000; stroke-width: 0.8; stroke-linejoin: miter; stroke-linecap: square"/>
   </g>
  </g>
 </g>
 <defs>
  <clipPath id="p6007a7029c">
   <rect x="53.328125" y="7.2" width="358.090385" height="249.958895"/>
  </clipPath>
  <clipPath id="p30383348f0">
   <rect x="507.109135" y="7.2" width="358.090385" height="249.958895"/>
  </clipPath>
 </defs>
</svg>
