<?xml version="1.0" encoding="utf-8" standalone="no"?>
<!DOCTYPE svg PUBLIC "-//W3C//DTD SVG 1.1//EN"
  "http://www.w3.org/Graphics/SVG/1.1/DTD/svg11.dtd">
<svg xmlns:xlink="http://www.w3.org/1999/xlink" width="872.39952pt" height="296.39952pt" viewBox="0 0 872.39952 296.39952" xmlns="http://www.w3.org/2000/svg" version="1.1">
 <metadata>
  <rdf:RDF xmlns:dc="http://purl.org/dc/elements/1.1/" xmlns:cc="http://creativecommons.org/ns#" xmlns:rdf="http://www.w3.org/1999/02/22-rdf-syntax-ns#">
   <cc:Work>
    <dc:type rdf:resource="http://purl.org/dc/dcmitype/StillImage"/>
    <dc:date>2025-12-09T08:59:28.061708</dc:date>
    <dc:format>image/svg+xml</dc:format>
    <dc:creator>
     <cc:Agent>
      <dc:title>Matplotlib v3.10.7, https://matplotlib.org/</dc:title>
     </cc:Agent>
    </dc:creator>
   </cc:Work>
  </rdf:RDF>
 </metadata>
 <defs>
  <style type="text/css">*{stroke-linejoin: round; stroke-linecap: butt}</style>
 </defs>
 <g id="figure_1">
  <g id="patch_1">
   <path d="M 0 296.39952 
L 872.39952 296.39952 
L 872.39952 0 
L 0 0 
z
" style="fill: #ffffff"/>
  </g>
  <g id="axes_1">
   <g id="patch_2">
    <path d="M 53.328125 257.158895 
L 414.59976 257.158895 
L 414.59976 7.2 
L 53.328125 7.2 
z
" style="fill: #ffffff"/>
   </g>
   <g id="matplotlib.axis_1">
    <g id="xtick_1">
     <g id="line2d_1">
      <defs>
       <path id="m0598d24f07" d="M 0 0 
L 0 3.5 
" style="stroke: #000000; stroke-width: 0.8"/>
      </defs>
      <g>
       <use xlink:href="#m0598d24f07" x="69.541848" y="257.158895" style="stroke: #000000; stroke-width: 0.8"/>
      </g>
     </g>
     <g id="text_1">
      <!-- 0 -->
      <g transform="translate(66.360598 271.757332) scale(0.1 -0.1)">
       <defs>
        <path id="DejaVuSans-30" d="M 2034 4250 
Q 1547 4250 1301 3770 
Q 1056 3291 1056 2328 
Q 1056 1369 1301 889 
Q 1547 409 2034 409 
Q 2525 409 2770 889 
Q 3016 1369 3016 2328 
Q 3016 3291 2770 3770 
Q 2525 4250 2034 4250 
z
M 2034 4750 
Q 2819 4750 3233 4129 
Q 3647 3509 3647 2328 
Q 3647 1150 3233 529 
Q 2819 -91 2034 -91 
Q 1250 -91 836 529 
Q 422 1150 422 2328 
Q 422 3509 836 4129 
Q 1250 4750 2034 4750 
z
" transform="scale(0.015625)"/>
       </defs>
       <use xlink:href="#DejaVuSans-30"/>
      </g>
     </g>
    </g>
    <g id="xtick_2">
     <g id="line2d_2">
      <g>
       <use xlink:href="#m0598d24f07" x="124.351572" y="257.158895" style="stroke: #000000; stroke-width: 0.8"/>
      </g>
     </g>
     <g id="text_2">
      <!-- 1000 -->
      <g transform="translate(111.626572 271.757332) scale(0.1 -0.1)">
       <defs>
        <path id="DejaVuSans-31" d="M 794 531 
L 1825 531 
L 1825 4091 
L 703 3866 
L 703 4441 
L 1819 4666 
L 2450 4666 
L 2450 531 
L 3481 531 
L 3481 0 
L 794 0 
L 794 531 
z
" transform="scale(0.015625)"/>
       </defs>
       <use xlink:href="#DejaVuSans-31"/>
       <use xlink:href="#DejaVuSans-30" transform="translate(63.623047 0)"/>
       <use xlink:href="#DejaVuSans-30" transform="translate(127.246094 0)"/>
       <use xlink:href="#DejaVuSans-30" transform="translate(190.869141 0)"/>
      </g>
     </g>
    </g>
    <g id="xtick_3">
     <g id="line2d_3">
      <g>
       <use xlink:href="#m0598d24f07" x="179.161296" y="257.158895" style="stroke: #000000; stroke-width: 0.8"/>
      </g>
     </g>
     <g id="text_3">
      <!-- 2000 -->
      <g transform="translate(166.436296 271.757332) scale(0.1 -0.1)">
       <defs>
        <path id="DejaVuSans-32" d="M 1228 531 
L 3431 531 
L 3431 0 
L 469 0 
L 469 531 
Q 828 903 1448 1529 
Q 2069 2156 2228 2338 
Q 2531 2678 2651 2914 
Q 2772 3150 2772 3378 
Q 2772 3750 2511 3984 
Q 2250 4219 1831 4219 
Q 1534 4219 1204 4116 
Q 875 4013 500 3803 
L 500 4441 
Q 881 4594 1212 4672 
Q 1544 4750 1819 4750 
Q 2544 4750 2975 4387 
Q 3406 4025 3406 3419 
Q 3406 3131 3298 2873 
Q 3191 2616 2906 2266 
Q 2828 2175 2409 1742 
Q 1991 1309 1228 531 
z
" transform="scale(0.015625)"/>
       </defs>
       <use xlink:href="#DejaVuSans-32"/>
       <use xlink:href="#DejaVuSans-30" transform="translate(63.623047 0)"/>
       <use xlink:href="#DejaVuSans-30" transform="translate(127.246094 0)"/>
       <use xlink:href="#DejaVuSans-30" transform="translate(190.869141 0)"/>
      </g>
     </g>
    </g>
    <g id="xtick_4">
     <g id="line2d_4">
      <g>
       <use xlink:href="#m0598d24f07" x="233.97102" y="257.158895" style="stroke: #000000; stroke-width: 0.8"/>
      </g>
     </g>
     <g id="text_4">
      <!-- 3000 -->
      <g transform="translate(221.24602 271.757332) scale(0.1 -0.1)">
       <defs>
        <path id="DejaVuSans-33" d="M 2597 2516 
Q 3050 2419 3304 2112 
Q 3559 1806 3559 1356 
Q 3559 666 3084 287 
Q 2609 -91 1734 -91 
Q 1441 -91 1130 -33 
Q 819 25 488 141 
L 488 750 
Q 750 597 1062 519 
Q 1375 441 1716 441 
Q 2309 441 2620 675 
Q 2931 909 2931 1356 
Q 2931 1769 2642 2001 
Q 2353 2234 1838 2234 
L 1294 2234 
L 1294 2753 
L 1863 2753 
Q 2328 2753 2575 2939 
Q 2822 3125 2822 3475 
Q 2822 3834 2567 4026 
Q 2313 4219 1838 4219 
Q 1578 4219 1281 4162 
Q 984 4106 628 3988 
L 628 4550 
Q 988 4650 1302 4700 
Q 1616 4750 1894 4750 
Q 2613 4750 3031 4423 
Q 3450 4097 3450 3541 
Q 3450 3153 3228 2886 
Q 3006 2619 2597 2516 
z
" transform="scale(0.015625)"/>
       </defs>
       <use xlink:href="#DejaVuSans-33"/>
       <use xlink:href="#DejaVuSans-30" transform="translate(63.623047 0)"/>
       <use xlink:href="#DejaVuSans-30" transform="translate(127.246094 0)"/>
       <use xlink:href="#DejaVuSans-30" transform="translate(190.869141 0)"/>
      </g>
     </g>
    </g>
    <g id="xtick_5">
     <g id="line2d_5">
      <g>
       <use xlink:href="#m0598d24f07" x="288.780744" y="257.158895" style="stroke: #000000; stroke-width: 0.8"/>
      </g>
     </g>
     <g id="text_5">
      <!-- 4000 -->
      <g transform="translate(276.055744 271.757332) scale(0.1 -0.1)">
       <defs>
        <path id="DejaVuSans-34" d="M 2419 4116 
L 825 1625 
L 2419 1625 
L 2419 4116 
z
M 2253 4666 
L 3047 4666 
L 3047 1625 
L 3713 1625 
L 3713 1100 
L 3047 1100 
L 3047 0 
L 2419 0 
L 2419 1100 
L 313 1100 
L 313 1709 
L 2253 4666 
z
" transform="scale(0.015625)"/>
       </defs>
       <use xlink:href="#DejaVuSans-34"/>
       <use xlink:href="#DejaVuSans-30" transform="translate(63.623047 0)"/>
       <use xlink:href="#DejaVuSans-30" transform="translate(127.246094 0)"/>
       <use xlink:href="#DejaVuSans-30" transform="translate(190.869141 0)"/>
      </g>
     </g>
    </g>
    <g id="xtick_6">
     <g id="line2d_6">
      <g>
       <use xlink:href="#m0598d24f07" x="343.590468" y="257.158895" style="stroke: #000000; stroke-width: 0.8"/>
      </g>
     </g>
     <g id="text_6">
      <!-- 5000 -->
      <g transform="translate(330.865468 271.757332) scale(0.1 -0.1)">
       <defs>
        <path id="DejaVuSans-35" d="M 691 4666 
L 3169 4666 
L 3169 4134 
L 1269 4134 
L 1269 2991 
Q 1406 3038 1543 3061 
Q 1681 3084 1819 3084 
Q 2600 3084 3056 2656 
Q 3513 2228 3513 1497 
Q 3513 744 3044 326 
Q 2575 -91 1722 -91 
Q 1428 -91 1123 -41 
Q 819 9 494 109 
L 494 744 
Q 775 591 1075 516 
Q 1375 441 1709 441 
Q 2250 441 2565 725 
Q 2881 1009 2881 1497 
Q 2881 1984 2565 2268 
Q 2250 2553 1709 2553 
Q 1456 2553 1204 2497 
Q 953 2441 691 2322 
L 691 4666 
z
" transform="scale(0.015625)"/>
       </defs>
       <use xlink:href="#DejaVuSans-35"/>
       <use xlink:href="#DejaVuSans-30" transform="translate(63.623047 0)"/>
       <use xlink:href="#DejaVuSans-30" transform="translate(127.246094 0)"/>
       <use xlink:href="#DejaVuSans-30" transform="translate(190.869141 0)"/>
      </g>
     </g>
    </g>
    <g id="xtick_7">
     <g id="line2d_7">
      <g>
       <use xlink:href="#m0598d24f07" x="398.400193" y="257.158895" style="stroke: #000000; stroke-width: 0.8"/>
      </g>
     </g>
     <g id="text_7">
      <!-- 6000 -->
      <g transform="translate(385.675193 271.757332) scale(0.1 -0.1)">
       <defs>
        <path id="DejaVuSans-36" d="M 2113 2584 
Q 1688 2584 1439 2293 
Q 1191 2003 1191 1497 
Q 1191 994 1439 701 
Q 1688 409 2113 409 
Q 2538 409 2786 701 
Q 3034 994 3034 1497 
Q 3034 2003 2786 2293 
Q 2538 2584 2113 2584 
z
M 3366 4563 
L 3366 3988 
Q 3128 4100 2886 4159 
Q 2644 4219 2406 4219 
Q 1781 4219 1451 3797 
Q 1122 3375 1075 2522 
Q 1259 2794 1537 2939 
Q 1816 3084 2150 3084 
Q 2853 3084 3261 2657 
Q 3669 2231 3669 1497 
Q 3669 778 3244 343 
Q 2819 -91 2113 -91 
Q 1303 -91 875 529 
Q 447 1150 447 2328 
Q 447 3434 972 4092 
Q 1497 4750 2381 4750 
Q 2619 4750 2861 4703 
Q 3103 4656 3366 4563 
z
" transform="scale(0.015625)"/>
       </defs>
       <use xlink:href="#DejaVuSans-36"/>
       <use xlink:href="#DejaVuSans-30" transform="translate(63.623047 0)"/>
       <use xlink:href="#DejaVuSans-30" transform="translate(127.246094 0)"/>
       <use xlink:href="#DejaVuSans-30" transform="translate(190.869141 0)"/>
      </g>
     </g>
    </g>
    <g id="text_8">
     <!-- birth_time [µs] -->
     <g transform="translate(197.14363 285.435457) scale(0.1 -0.1)">
      <defs>
       <path id="DejaVuSans-62" d="M 3116 1747 
Q 3116 2381 2855 2742 
Q 2594 3103 2138 3103 
Q 1681 3103 1420 2742 
Q 1159 2381 1159 1747 
Q 1159 1113 1420 752 
Q 1681 391 2138 391 
Q 2594 391 2855 752 
Q 3116 1113 3116 1747 
z
M 1159 2969 
Q 1341 3281 1617 3432 
Q 1894 3584 2278 3584 
Q 2916 3584 3314 3078 
Q 3713 2572 3713 1747 
Q 3713 922 3314 415 
Q 2916 -91 2278 -91 
Q 1894 -91 1617 61 
Q 1341 213 1159 525 
L 1159 0 
L 581 0 
L 581 4863 
L 1159 4863 
L 1159 2969 
z
" transform="scale(0.015625)"/>
       <path id="DejaVuSans-69" d="M 603 3500 
L 1178 3500 
L 1178 0 
L 603 0 
L 603 3500 
z
M 603 4863 
L 1178 4863 
L 1178 4134 
L 603 4134 
L 603 4863 
z
" transform="scale(0.015625)"/>
       <path id="DejaVuSans-72" d="M 2631 2963 
Q 2534 3019 2420 3045 
Q 2306 3072 2169 3072 
Q 1681 3072 1420 2755 
Q 1159 2438 1159 1844 
L 1159 0 
L 581 0 
L 581 3500 
L 1159 3500 
L 1159 2956 
Q 1341 3275 1631 3429 
Q 1922 3584 2338 3584 
Q 2397 3584 2469 3576 
Q 2541 3569 2628 3553 
L 2631 2963 
z
" transform="scale(0.015625)"/>
       <path id="DejaVuSans-74" d="M 1172 4494 
L 1172 3500 
L 2356 3500 
L 2356 3053 
L 1172 3053 
L 1172 1153 
Q 1172 725 1289 603 
Q 1406 481 1766 481 
L 2356 481 
L 2356 0 
L 1766 0 
Q 1100 0 847 248 
Q 594 497 594 1153 
L 594 3053 
L 172 3053 
L 172 3500 
L 594 3500 
L 594 4494 
L 1172 4494 
z
" transform="scale(0.015625)"/>
       <path id="DejaVuSans-68" d="M 3513 2113 
L 3513 0 
L 2938 0 
L 2938 2094 
Q 2938 2591 2744 2837 
Q 2550 3084 2163 3084 
Q 1697 3084 1428 2787 
Q 1159 2491 1159 1978 
L 1159 0 
L 581 0 
L 581 4863 
L 1159 4863 
L 1159 2956 
Q 1366 3272 1645 3428 
Q 1925 3584 2291 3584 
Q 2894 3584 3203 3211 
Q 3513 2838 3513 2113 
z
" transform="scale(0.015625)"/>
       <path id="DejaVuSans-5f" d="M 3263 -1063 
L 3263 -1509 
L -63 -1509 
L -63 -1063 
L 3263 -1063 
z
" transform="scale(0.015625)"/>
       <path id="DejaVuSans-6d" d="M 3328 2828 
Q 3544 3216 3844 3400 
Q 4144 3584 4550 3584 
Q 5097 3584 5394 3201 
Q 5691 2819 5691 2113 
L 5691 0 
L 5113 0 
L 5113 2094 
Q 5113 2597 4934 2840 
Q 4756 3084 4391 3084 
Q 3944 3084 3684 2787 
Q 3425 2491 3425 1978 
L 3425 0 
L 2847 0 
L 2847 2094 
Q 2847 2600 2669 2842 
Q 2491 3084 2119 3084 
Q 1678 3084 1418 2786 
Q 1159 2488 1159 1978 
L 1159 0 
L 581 0 
L 581 3500 
L 1159 3500 
L 1159 2956 
Q 1356 3278 1631 3431 
Q 1906 3584 2284 3584 
Q 2666 3584 2933 3390 
Q 3200 3197 3328 2828 
z
" transform="scale(0.015625)"/>
       <path id="DejaVuSans-65" d="M 3597 1894 
L 3597 1613 
L 953 1613 
Q 991 1019 1311 708 
Q 1631 397 2203 397 
Q 2534 397 2845 478 
Q 3156 559 3463 722 
L 3463 178 
Q 3153 47 2828 -22 
Q 2503 -91 2169 -91 
Q 1331 -91 842 396 
Q 353 884 353 1716 
Q 353 2575 817 3079 
Q 1281 3584 2069 3584 
Q 2775 3584 3186 3129 
Q 3597 2675 3597 1894 
z
M 3022 2063 
Q 3016 2534 2758 2815 
Q 2500 3097 2075 3097 
Q 1594 3097 1305 2825 
Q 1016 2553 972 2059 
L 3022 2063 
z
" transform="scale(0.015625)"/>
       <path id="DejaVuSans-20" transform="scale(0.015625)"/>
       <path id="DejaVuSans-5b" d="M 550 4863 
L 1875 4863 
L 1875 4416 
L 1125 4416 
L 1125 -397 
L 1875 -397 
L 1875 -844 
L 550 -844 
L 550 4863 
z
" transform="scale(0.015625)"/>
       <path id="DejaVuSans-b5" d="M 544 -1331 
L 544 3500 
L 1119 3500 
L 1119 1325 
Q 1119 872 1334 640 
Q 1550 409 1972 409 
Q 2434 409 2667 671 
Q 2900 934 2900 1459 
L 2900 3500 
L 3475 3500 
L 3475 806 
Q 3475 619 3529 530 
Q 3584 441 3700 441 
Q 3728 441 3778 458 
Q 3828 475 3916 513 
L 3916 50 
Q 3788 -22 3673 -56 
Q 3559 -91 3450 -91 
Q 3234 -91 3106 31 
Q 2978 153 2931 403 
Q 2775 156 2548 32 
Q 2322 -91 2016 -91 
Q 1697 -91 1473 31 
Q 1250 153 1119 397 
L 1119 -1331 
L 544 -1331 
z
" transform="scale(0.015625)"/>
       <path id="DejaVuSans-73" d="M 2834 3397 
L 2834 2853 
Q 2591 2978 2328 3040 
Q 2066 3103 1784 3103 
Q 1356 3103 1142 2972 
Q 928 2841 928 2578 
Q 928 2378 1081 2264 
Q 1234 2150 1697 2047 
L 1894 2003 
Q 2506 1872 2764 1633 
Q 3022 1394 3022 966 
Q 3022 478 2636 193 
Q 2250 -91 1575 -91 
Q 1294 -91 989 -36 
Q 684 19 347 128 
L 347 722 
Q 666 556 975 473 
Q 1284 391 1588 391 
Q 1994 391 2212 530 
Q 2431 669 2431 922 
Q 2431 1156 2273 1281 
Q 2116 1406 1581 1522 
L 1381 1569 
Q 847 1681 609 1914 
Q 372 2147 372 2553 
Q 372 3047 722 3315 
Q 1072 3584 1716 3584 
Q 2034 3584 2315 3537 
Q 2597 3491 2834 3397 
z
" transform="scale(0.015625)"/>
       <path id="DejaVuSans-5d" d="M 1947 4863 
L 1947 -844 
L 622 -844 
L 622 -397 
L 1369 -397 
L 1369 4416 
L 622 4416 
L 622 4863 
L 1947 4863 
z
" transform="scale(0.015625)"/>
      </defs>
      <use xlink:href="#DejaVuSans-62"/>
      <use xlink:href="#DejaVuSans-69" transform="translate(63.476562 0)"/>
      <use xlink:href="#DejaVuSans-72" transform="translate(91.259766 0)"/>
      <use xlink:href="#DejaVuSans-74" transform="translate(132.373047 0)"/>
      <use xlink:href="#DejaVuSans-68" transform="translate(171.582031 0)"/>
      <use xlink:href="#DejaVuSans-5f" transform="translate(234.960938 0)"/>
      <use xlink:href="#DejaVuSans-74" transform="translate(284.960938 0)"/>
      <use xlink:href="#DejaVuSans-69" transform="translate(324.169922 0)"/>
      <use xlink:href="#DejaVuSans-6d" transform="translate(351.953125 0)"/>
      <use xlink:href="#DejaVuSans-65" transform="translate(449.365234 0)"/>
      <use xlink:href="#DejaVuSans-20" transform="translate(510.888672 0)"/>
      <use xlink:href="#DejaVuSans-5b" transform="translate(542.675781 0)"/>
      <use xlink:href="#DejaVuSans-b5" transform="translate(581.689453 0)"/>
      <use xlink:href="#DejaVuSans-73" transform="translate(645.3125 0)"/>
      <use xlink:href="#DejaVuSans-5d" transform="translate(697.412109 0)"/>
     </g>
    </g>
   </g>
   <g id="matplotlib.axis_2">
    <g id="ytick_1">
     <g id="line2d_8">
      <defs>
       <path id="m1238529b14" d="M 0 0 
L -3.5 0 
" style="stroke: #000000; stroke-width: 0.8"/>
      </defs>
      <g>
       <use xlink:href="#m1238529b14" x="53.328125" y="246.044391" style="stroke: #000000; stroke-width: 0.8"/>
      </g>
     </g>
     <g id="text_9">
      <!-- 0 -->
      <g transform="translate(39.965625 249.84361) scale(0.1 -0.1)">
       <use xlink:href="#DejaVuSans-30"/>
      </g>
     </g>
    </g>
    <g id="ytick_2">
     <g id="line2d_9">
      <g>
       <use xlink:href="#m1238529b14" x="53.328125" y="215.136426" style="stroke: #000000; stroke-width: 0.8"/>
      </g>
     </g>
     <g id="text_10">
      <!-- 250 -->
      <g transform="translate(27.240625 218.935644) scale(0.1 -0.1)">
       <use xlink:href="#DejaVuSans-32"/>
       <use xlink:href="#DejaVuSans-35" transform="translate(63.623047 0)"/>
       <use xlink:href="#DejaVuSans-30" transform="translate(127.246094 0)"/>
      </g>
     </g>
    </g>
    <g id="ytick_3">
     <g id="line2d_10">
      <g>
       <use xlink:href="#m1238529b14" x="53.328125" y="184.228461" style="stroke: #000000; stroke-width: 0.8"/>
      </g>
     </g>
     <g id="text_11">
      <!-- 500 -->
      <g transform="translate(27.240625 188.027679) scale(0.1 -0.1)">
       <use xlink:href="#DejaVuSans-35"/>
       <use xlink:href="#DejaVuSans-30" transform="translate(63.623047 0)"/>
       <use xlink:href="#DejaVuSans-30" transform="translate(127.246094 0)"/>
      </g>
     </g>
    </g>
    <g id="ytick_4">
     <g id="line2d_11">
      <g>
       <use xlink:href="#m1238529b14" x="53.328125" y="153.320496" style="stroke: #000000; stroke-width: 0.8"/>
      </g>
     </g>
     <g id="text_12">
      <!-- 750 -->
      <g transform="translate(27.240625 157.119714) scale(0.1 -0.1)">
       <defs>
        <path id="DejaVuSans-37" d="M 525 4666 
L 3525 4666 
L 3525 4397 
L 1831 0 
L 1172 0 
L 2766 4134 
L 525 4134 
L 525 4666 
z
" transform="scale(0.015625)"/>
       </defs>
       <use xlink:href="#DejaVuSans-37"/>
       <use xlink:href="#DejaVuSans-35" transform="translate(63.623047 0)"/>
       <use xlink:href="#DejaVuSans-30" transform="translate(127.246094 0)"/>
      </g>
     </g>
    </g>
    <g id="ytick_5">
     <g id="line2d_12">
      <g>
       <use xlink:href="#m1238529b14" x="53.328125" y="122.412531" style="stroke: #000000; stroke-width: 0.8"/>
      </g>
     </g>
     <g id="text_13">
      <!-- 1000 -->
      <g transform="translate(20.878125 126.211749) scale(0.1 -0.1)">
       <use xlink:href="#DejaVuSans-31"/>
       <use xlink:href="#DejaVuSans-30" transform="translate(63.623047 0)"/>
       <use xlink:href="#DejaVuSans-30" transform="translate(127.246094 0)"/>
       <use xlink:href="#DejaVuSans-30" transform="translate(190.869141 0)"/>
      </g>
     </g>
    </g>
    <g id="ytick_6">
     <g id="line2d_13">
      <g>
       <use xlink:href="#m1238529b14" x="53.328125" y="91.504565" style="stroke: #000000; stroke-width: 0.8"/>
      </g>
     </g>
     <g id="text_14">
      <!-- 1250 -->
      <g transform="translate(20.878125 95.303784) scale(0.1 -0.1)">
       <use xlink:href="#DejaVuSans-31"/>
       <use xlink:href="#DejaVuSans-32" transform="translate(63.623047 0)"/>
       <use xlink:href="#DejaVuSans-35" transform="translate(127.246094 0)"/>
       <use xlink:href="#DejaVuSans-30" transform="translate(190.869141 0)"/>
      </g>
     </g>
    </g>
    <g id="ytick_7">
     <g id="line2d_14">
      <g>
       <use xlink:href="#m1238529b14" x="53.328125" y="60.5966" style="stroke: #000000; stroke-width: 0.8"/>
      </g>
     </g>
     <g id="text_15">
      <!-- 1500 -->
      <g transform="translate(20.878125 64.395819) scale(0.1 -0.1)">
       <use xlink:href="#DejaVuSans-31"/>
       <use xlink:href="#DejaVuSans-35" transform="translate(63.623047 0)"/>
       <use xlink:href="#DejaVuSans-30" transform="translate(127.246094 0)"/>
       <use xlink:href="#DejaVuSans-30" transform="translate(190.869141 0)"/>
      </g>
     </g>
    </g>
    <g id="ytick_8">
     <g id="line2d_15">
      <g>
       <use xlink:href="#m1238529b14" x="53.328125" y="29.688635" style="stroke: #000000; stroke-width: 0.8"/>
      </g>
     </g>
     <g id="text_16">
      <!-- 1750 -->
      <g transform="translate(20.878125 33.487854) scale(0.1 -0.1)">
       <use xlink:href="#DejaVuSans-31"/>
       <use xlink:href="#DejaVuSans-37" transform="translate(63.623047 0)"/>
       <use xlink:href="#DejaVuSans-35" transform="translate(127.246094 0)"/>
       <use xlink:href="#DejaVuSans-30" transform="translate(190.869141 0)"/>
      </g>
     </g>
    </g>
    <g id="text_17">
     <!-- pulse:0 [counts] -->
     <g transform="translate(14.798438 172.659916) rotate(-90) scale(0.1 -0.1)">
      <defs>
       <path id="DejaVuSans-70" d="M 1159 525 
L 1159 -1331 
L 581 -1331 
L 581 3500 
L 1159 3500 
L 1159 2969 
Q 1341 3281 1617 3432 
Q 1894 3584 2278 3584 
Q 2916 3584 3314 3078 
Q 3713 2572 3713 1747 
Q 3713 922 3314 415 
Q 2916 -91 2278 -91 
Q 1894 -91 1617 61 
Q 1341 213 1159 525 
z
M 3116 1747 
Q 3116 2381 2855 2742 
Q 2594 3103 2138 3103 
Q 1681 3103 1420 2742 
Q 1159 2381 1159 1747 
Q 1159 1113 1420 752 
Q 1681 391 2138 391 
Q 2594 391 2855 752 
Q 3116 1113 3116 1747 
z
" transform="scale(0.015625)"/>
       <path id="DejaVuSans-75" d="M 544 1381 
L 544 3500 
L 1119 3500 
L 1119 1403 
Q 1119 906 1312 657 
Q 1506 409 1894 409 
Q 2359 409 2629 706 
Q 2900 1003 2900 1516 
L 2900 3500 
L 3475 3500 
L 3475 0 
L 2900 0 
L 2900 538 
Q 2691 219 2414 64 
Q 2138 -91 1772 -91 
Q 1169 -91 856 284 
Q 544 659 544 1381 
z
M 1991 3584 
L 1991 3584 
z
" transform="scale(0.015625)"/>
       <path id="DejaVuSans-6c" d="M 603 4863 
L 1178 4863 
L 1178 0 
L 603 0 
L 603 4863 
z
" transform="scale(0.015625)"/>
       <path id="DejaVuSans-3a" d="M 750 794 
L 1409 794 
L 1409 0 
L 750 0 
L 750 794 
z
M 750 3309 
L 1409 3309 
L 1409 2516 
L 750 2516 
L 750 3309 
z
" transform="scale(0.015625)"/>
       <path id="DejaVuSans-63" d="M 3122 3366 
L 3122 2828 
Q 2878 2963 2633 3030 
Q 2388 3097 2138 3097 
Q 1578 3097 1268 2742 
Q 959 2388 959 1747 
Q 959 1106 1268 751 
Q 1578 397 2138 397 
Q 2388 397 2633 464 
Q 2878 531 3122 666 
L 3122 134 
Q 2881 22 2623 -34 
Q 2366 -91 2075 -91 
Q 1284 -91 818 406 
Q 353 903 353 1747 
Q 353 2603 823 3093 
Q 1294 3584 2113 3584 
Q 2378 3584 2631 3529 
Q 2884 3475 3122 3366 
z
" transform="scale(0.015625)"/>
       <path id="DejaVuSans-6f" d="M 1959 3097 
Q 1497 3097 1228 2736 
Q 959 2375 959 1747 
Q 959 1119 1226 758 
Q 1494 397 1959 397 
Q 2419 397 2687 759 
Q 2956 1122 2956 1747 
Q 2956 2369 2687 2733 
Q 2419 3097 1959 3097 
z
M 1959 3584 
Q 2709 3584 3137 3096 
Q 3566 2609 3566 1747 
Q 3566 888 3137 398 
Q 2709 -91 1959 -91 
Q 1206 -91 779 398 
Q 353 888 353 1747 
Q 353 2609 779 3096 
Q 1206 3584 1959 3584 
z
" transform="scale(0.015625)"/>
       <path id="DejaVuSans-6e" d="M 3513 2113 
L 3513 0 
L 2938 0 
L 2938 2094 
Q 2938 2591 2744 2837 
Q 2550 3084 2163 3084 
Q 1697 3084 1428 2787 
Q 1159 2491 1159 1978 
L 1159 0 
L 581 0 
L 581 3500 
L 1159 3500 
L 1159 2956 
Q 1366 3272 1645 3428 
Q 1925 3584 2291 3584 
Q 2894 3584 3203 3211 
Q 3513 2838 3513 2113 
z
" transform="scale(0.015625)"/>
      </defs>
      <use xlink:href="#DejaVuSans-70"/>
      <use xlink:href="#DejaVuSans-75" transform="translate(63.476562 0)"/>
      <use xlink:href="#DejaVuSans-6c" transform="translate(126.855469 0)"/>
      <use xlink:href="#DejaVuSans-73" transform="translate(154.638672 0)"/>
      <use xlink:href="#DejaVuSans-65" transform="translate(206.738281 0)"/>
      <use xlink:href="#DejaVuSans-3a" transform="translate(268.261719 0)"/>
      <use xlink:href="#DejaVuSans-30" transform="translate(301.953125 0)"/>
      <use xlink:href="#DejaVuSans-20" transform="translate(365.576172 0)"/>
      <use xlink:href="#DejaVuSans-5b" transform="translate(397.363281 0)"/>
      <use xlink:href="#DejaVuSans-63" transform="translate(436.376953 0)"/>
      <use xlink:href="#DejaVuSans-6f" transform="translate(491.357422 0)"/>
      <use xlink:href="#DejaVuSans-75" transform="translate(552.539062 0)"/>
      <use xlink:href="#DejaVuSans-6e" transform="translate(615.917969 0)"/>
      <use xlink:href="#DejaVuSans-74" transform="translate(679.296875 0)"/>
      <use xlink:href="#DejaVuSans-73" transform="translate(718.505859 0)"/>
      <use xlink:href="#DejaVuSans-5d" transform="translate(770.605469 0)"/>
     </g>
    </g>
   </g>
   <g id="line2d_16">
    <path d="M 69.749563 245.178968 
L 70.844325 245.178968 
L 70.844325 245.3026 
L 71.939088 245.3026 
L 71.939088 245.055336 
L 73.033851 245.055336 
L 73.033851 244.560808 
L 74.128613 244.560808 
L 74.128613 244.189913 
L 75.223376 244.189913 
L 75.223376 245.797127 
L 76.318138 245.797127 
L 76.318138 244.437177 
L 79.602426 244.437177 
L 79.602426 244.189913 
L 81.791951 244.189913 
L 81.791951 243.077226 
L 82.886713 243.077226 
L 82.886713 243.819017 
L 83.981476 243.819017 
L 83.981476 244.437177 
L 85.076238 244.437177 
L 85.076238 244.189913 
L 86.171001 244.189913 
L 86.171001 243.077226 
L 87.265763 243.077226 
L 87.265763 242.953594 
L 88.360526 242.953594 
L 88.360526 242.706331 
L 89.455288 242.706331 
L 89.455288 243.32449 
L 90.550051 243.32449 
L 90.550051 243.695385 
L 91.644814 243.695385 
L 91.644814 241.840908 
L 92.739576 241.840908 
L 92.739576 243.077226 
L 93.834339 243.077226 
L 93.834339 241.964539 
L 94.929101 241.964539 
L 94.929101 243.077226 
L 96.023864 243.077226 
L 96.023864 242.953594 
L 97.118626 242.953594 
L 97.118626 241.222748 
L 98.213389 241.222748 
L 98.213389 241.099116 
L 99.308151 241.099116 
L 99.308151 240.851853 
L 100.402914 240.851853 
L 100.402914 240.233693 
L 101.497676 240.233693 
L 101.497676 240.604589 
L 102.592439 240.604589 
L 102.592439 240.110061 
L 103.687201 240.110061 
L 103.687201 238.997375 
L 104.781964 238.997375 
L 104.781964 239.36827 
L 105.876726 239.36827 
L 105.876726 236.895633 
L 106.971489 236.895633 
L 106.971489 239.244638 
L 108.066252 239.244638 
L 108.066252 239.36827 
L 109.161014 239.36827 
L 109.161014 239.121007 
L 110.255777 239.121007 
L 110.255777 237.637424 
L 111.350539 237.637424 
L 111.350539 236.153842 
L 112.445302 236.153842 
L 112.445302 238.00832 
L 113.540064 238.00832 
L 113.540064 234.299364 
L 114.634827 234.299364 
L 114.634827 235.906578 
L 115.729589 235.906578 
L 115.729589 232.815782 
L 116.824352 232.815782 
L 116.824352 234.299364 
L 117.919114 234.299364 
L 117.919114 233.063045 
L 119.013877 233.063045 
L 119.013877 232.073991 
L 120.108639 232.073991 
L 120.108639 230.466776 
L 121.203402 230.466776 
L 121.203402 231.950359 
L 122.298164 231.950359 
L 122.298164 228.73593 
L 123.392927 228.73593 
L 123.392927 227.37598 
L 124.487689 227.37598 
L 124.487689 228.488667 
L 125.582452 228.488667 
L 125.582452 225.645134 
L 126.677215 225.645134 
L 126.677215 226.634189 
L 127.771977 226.634189 
L 127.771977 224.285183 
L 128.86674 224.285183 
L 128.86674 222.801601 
L 129.961502 222.801601 
L 129.961502 222.307074 
L 131.056265 222.307074 
L 131.056265 219.958068 
L 132.151027 219.958068 
L 132.151027 220.205332 
L 133.24579 220.205332 
L 133.24579 221.688914 
L 134.340552 221.688914 
L 134.340552 217.979958 
L 135.435315 217.979958 
L 135.435315 217.856327 
L 136.530077 217.856327 
L 136.530077 214.518266 
L 137.62484 214.518266 
L 137.62484 211.180206 
L 138.719602 211.180206 
L 138.719602 215.630953 
L 139.814365 215.630953 
L 139.814365 210.067519 
L 140.909127 210.067519 
L 140.909127 207.347619 
L 142.00389 207.347619 
L 142.00389 211.674734 
L 143.098652 211.674734 
L 143.098652 205.987668 
L 144.193415 205.987668 
L 144.193415 203.267767 
L 145.288178 203.267767 
L 145.288178 206.1113 
L 146.38294 206.1113 
L 146.38294 198.446125 
L 147.477703 198.446125 
L 147.477703 200.300602 
L 148.572465 200.300602 
L 148.572465 197.086174 
L 149.667228 197.086174 
L 149.667228 195.355328 
L 150.76199 195.355328 
L 150.76199 191.770004 
L 151.856753 191.770004 
L 151.856753 194.613537 
L 152.951515 194.613537 
L 152.951515 192.264532 
L 154.046278 192.264532 
L 154.046278 189.297367 
L 155.14104 189.297367 
L 155.14104 187.319257 
L 156.235803 187.319257 
L 156.235803 183.115774 
L 157.330565 183.115774 
L 157.330565 182.250351 
L 158.425328 182.250351 
L 158.425328 180.024977 
L 159.52009 180.024977 
L 159.52009 168.403583 
L 160.614853 168.403583 
L 160.614853 170.134429 
L 161.709615 170.134429 
L 161.709615 166.301841 
L 162.804378 166.301841 
L 162.804378 169.516269 
L 163.899141 169.516269 
L 163.899141 162.716517 
L 164.993903 162.716517 
L 164.993903 159.62572 
L 166.088666 159.62572 
L 166.088666 160.24388 
L 167.183428 160.24388 
L 167.183428 156.040397 
L 168.278191 156.040397 
L 168.278191 153.567759 
L 169.372953 153.567759 
L 169.372953 148.004326 
L 170.467716 148.004326 
L 170.467716 151.713281 
L 171.562478 151.713281 
L 171.562478 147.138903 
L 172.657241 147.138903 
L 172.657241 147.509798 
L 173.752003 147.509798 
L 173.752003 148.622485 
L 174.846766 148.622485 
L 174.846766 141.204573 
L 175.941528 141.204573 
L 175.941528 137.742881 
L 177.036291 137.742881 
L 177.036291 139.226464 
L 178.131053 139.226464 
L 178.131053 134.404821 
L 179.225816 134.404821 
L 179.225816 135.146612 
L 180.320579 135.146612 
L 180.320579 126.863278 
L 181.415341 126.863278 
L 181.415341 124.39064 
L 182.510104 124.39064 
L 182.510104 119.198102 
L 183.604866 119.198102 
L 183.604866 118.456311 
L 184.699629 118.456311 
L 184.699629 120.681684 
L 185.794391 120.681684 
L 185.794391 110.172976 
L 186.889154 110.172976 
L 186.889154 107.576707 
L 187.983916 107.576707 
L 187.983916 110.914768 
L 189.078679 110.914768 
L 189.078679 101.889642 
L 190.173441 101.889642 
L 190.173441 101.642378 
L 191.268204 101.642378 
L 191.268204 95.584417 
L 192.362966 95.584417 
L 192.362966 92.246357 
L 193.457729 92.246357 
L 193.457729 93.11178 
L 194.552491 93.11178 
L 194.552491 81.366753 
L 195.647254 81.366753 
L 195.647254 86.312027 
L 196.742016 86.312027 
L 196.742016 78.399588 
L 197.836779 78.399588 
L 197.836779 78.028693 
L 198.931542 78.028693 
L 198.931542 76.54511 
L 200.026304 76.54511 
L 200.026304 69.992622 
L 201.121067 69.992622 
L 201.121067 66.407298 
L 202.215829 66.407298 
L 202.215829 70.239886 
L 203.310592 70.239886 
L 203.310592 74.814264 
L 204.405354 74.814264 
L 204.405354 52.189634 
L 205.500117 52.189634 
L 205.500117 63.192869 
L 206.594879 63.192869 
L 206.594879 62.698342 
L 207.689642 62.698342 
L 207.689642 53.549584 
L 208.784404 53.549584 
L 208.784404 46.749832 
L 209.879167 46.749832 
L 209.879167 43.782667 
L 210.973929 43.782667 
L 210.973929 50.458788 
L 212.068692 50.458788 
L 212.068692 42.546349 
L 213.163454 42.546349 
L 213.163454 44.277195 
L 214.258217 44.277195 
L 214.258217 45.637145 
L 215.352979 45.637145 
L 215.352979 40.073712 
L 216.447742 40.073712 
L 216.447742 41.31003 
L 217.542505 41.31003 
L 217.542505 38.590129 
L 218.637267 38.590129 
L 218.637267 36.982915 
L 219.73203 36.982915 
L 219.73203 47.491623 
L 220.826792 47.491623 
L 220.826792 39.084657 
L 221.921555 39.084657 
L 221.921555 32.903064 
L 223.016317 32.903064 
L 223.016317 24.619729 
L 224.11108 24.619729 
L 224.11108 19.179927 
L 225.205842 19.179927 
L 225.205842 22.02346 
L 226.300605 22.02346 
L 226.300605 30.801322 
L 227.395367 30.801322 
L 227.395367 37.230179 
L 228.49013 37.230179 
L 228.49013 29.935899 
L 229.584892 29.935899 
L 229.584892 30.183163 
L 230.679655 30.183163 
L 230.679655 22.517987 
L 231.774417 22.517987 
L 231.774417 19.303559 
L 232.86918 19.303559 
L 232.86918 27.092366 
L 233.963942 27.092366 
L 233.963942 24.743361 
L 235.058705 24.743361 
L 235.058705 31.790377 
L 236.153468 31.790377 
L 236.153468 34.139382 
L 237.24823 34.139382 
L 237.24823 29.935899 
L 238.342993 29.935899 
L 238.342993 18.561768 
L 239.437755 18.561768 
L 239.437755 20.787141 
L 240.532518 20.787141 
L 240.532518 31.172218 
L 241.62728 31.172218 
L 241.62728 25.114257 
L 243.816805 25.114257 
L 243.816805 18.932664 
L 244.911568 18.932664 
L 244.911568 32.532168 
L 246.00633 32.532168 
L 246.00633 32.284904 
L 247.101093 32.284904 
L 247.101093 31.419481 
L 248.195855 31.419481 
L 248.195855 31.29585 
L 249.290618 31.29585 
L 249.290618 32.037641 
L 250.38538 32.037641 
L 250.38538 39.579184 
L 251.480143 39.579184 
L 251.480143 43.164508 
L 252.574906 43.164508 
L 252.574906 53.92048 
L 253.669668 53.92048 
L 253.669668 37.97197 
L 254.764431 37.97197 
L 254.764431 44.771722 
L 255.859193 44.771722 
L 255.859193 45.26625 
L 256.953956 45.26625 
L 256.953956 48.109783 
L 258.048718 48.109783 
L 258.048718 50.58242 
L 259.143481 50.58242 
L 259.143481 56.022222 
L 260.238243 56.022222 
L 260.238243 58.865754 
L 261.333006 58.865754 
L 261.333006 62.451078 
L 262.427768 62.451078 
L 262.427768 54.538639 
L 263.522531 54.538639 
L 263.522531 55.527694 
L 264.617293 55.527694 
L 264.617293 64.55282 
L 265.712056 64.55282 
L 265.712056 58.494859 
L 266.806818 58.494859 
L 266.806818 71.476204 
L 267.901581 71.476204 
L 267.901581 73.577946 
L 268.996343 73.577946 
L 268.996343 76.421479 
L 270.091106 76.421479 
L 270.091106 74.443369 
L 271.185869 74.443369 
L 271.185869 77.16327 
L 272.280631 77.16327 
L 272.280631 79.883171 
L 273.375394 79.883171 
L 273.375394 86.930187 
L 274.470156 86.930187 
L 274.470156 89.650088 
L 275.564919 89.650088 
L 275.564919 87.79561 
L 276.659681 87.79561 
L 276.659681 92.246357 
L 277.754444 92.246357 
L 277.754444 94.224466 
L 278.849206 94.224466 
L 278.849206 100.900587 
L 279.943969 100.900587 
L 279.943969 102.384169 
L 281.038731 102.384169 
L 281.038731 111.038399 
L 282.133494 111.038399 
L 282.133494 114.623723 
L 283.228256 114.623723 
L 283.228256 108.565762 
L 284.323019 108.565762 
L 284.323019 111.532927 
L 285.417781 111.532927 
L 285.417781 122.288899 
L 286.512544 122.288899 
L 286.512544 124.019745 
L 287.607306 124.019745 
L 287.607306 122.041635 
L 288.702069 122.041635 
L 288.702069 129.088651 
L 289.796832 129.088651 
L 289.796832 129.830442 
L 290.891594 129.830442 
L 290.891594 133.910294 
L 291.986357 133.910294 
L 291.986357 136.753826 
L 293.081119 136.753826 
L 293.081119 137.124722 
L 294.175882 137.124722 
L 294.175882 144.542634 
L 295.270644 144.542634 
L 295.270644 141.699101 
L 296.365407 141.699101 
L 296.365407 147.138903 
L 297.460169 147.138903 
L 297.460169 155.422237 
L 298.554932 155.422237 
L 298.554932 156.164028 
L 299.649694 156.164028 
L 299.649694 154.062287 
L 300.744457 154.062287 
L 300.744457 165.312786 
L 301.839219 165.312786 
L 301.839219 163.211044 
L 302.933982 163.211044 
L 302.933982 168.527214 
L 304.028744 168.527214 
L 304.028744 162.592885 
L 305.123507 162.592885 
L 305.123507 167.167264 
L 306.218269 167.167264 
L 306.218269 174.337912 
L 307.313032 174.337912 
L 307.313032 175.079703 
L 308.407795 175.079703 
L 308.407795 183.733933 
L 309.502557 183.733933 
L 309.502557 182.744878 
L 310.59732 182.744878 
L 310.59732 176.810549 
L 311.692082 176.810549 
L 311.692082 183.115774 
L 312.786845 183.115774 
L 312.786845 189.420999 
L 313.881607 189.420999 
L 313.881607 189.050103 
L 314.97637 189.050103 
L 314.97637 193.006323 
L 316.071132 193.006323 
L 316.071132 187.690153 
L 317.165895 187.690153 
L 317.165895 189.544631 
L 318.260657 189.544631 
L 318.260657 195.47896 
L 319.35542 195.47896 
L 319.35542 193.129955 
L 320.450182 193.129955 
L 320.450182 198.81702 
L 321.544945 198.81702 
L 321.544945 198.198861 
L 322.639707 198.198861 
L 322.639707 201.907817 
L 323.73447 201.907817 
L 323.73447 203.391399 
L 324.829233 203.391399 
L 324.829233 206.976723 
L 325.923995 206.976723 
L 325.923995 208.583937 
L 327.018758 208.583937 
L 327.018758 204.256822 
L 328.11352 204.256822 
L 328.11352 212.911052 
L 329.208283 212.911052 
L 329.208283 211.42747 
L 330.303045 211.42747 
L 330.303045 214.147371 
L 331.397808 214.147371 
L 331.397808 214.76553 
L 332.49257 214.76553 
L 332.49257 217.114535 
L 333.587333 217.114535 
L 333.587333 218.598118 
L 334.682095 218.598118 
L 334.682095 220.0817 
L 335.776858 220.0817 
L 335.776858 220.699859 
L 336.87162 220.699859 
L 336.87162 222.925233 
L 337.966383 222.925233 
L 337.966383 223.41976 
L 339.061145 223.41976 
L 339.061145 223.048865 
L 340.155908 223.048865 
L 340.155908 224.779711 
L 341.25067 224.779711 
L 341.25067 225.892398 
L 342.345433 225.892398 
L 342.345433 224.779711 
L 343.440196 224.779711 
L 343.440196 230.590408 
L 344.534958 230.590408 
L 344.534958 226.139661 
L 345.629721 226.139661 
L 345.629721 229.724985 
L 346.724483 229.724985 
L 346.724483 229.601353 
L 347.819246 229.601353 
L 347.819246 232.815782 
L 348.914008 232.815782 
L 348.914008 233.310309 
L 350.008771 233.310309 
L 350.008771 234.546628 
L 351.103533 234.546628 
L 351.103533 233.681205 
L 352.198296 233.681205 
L 352.198296 234.299364 
L 353.293058 234.299364 
L 353.293058 236.277474 
L 354.387821 236.277474 
L 354.387821 235.288419 
L 355.482583 235.288419 
L 355.482583 235.782946 
L 356.577346 235.782946 
L 356.577346 235.041155 
L 357.672108 235.041155 
L 357.672108 237.513792 
L 358.766871 237.513792 
L 358.766871 236.648369 
L 359.861633 236.648369 
L 359.861633 237.761056 
L 360.956396 237.761056 
L 360.956396 239.244638 
L 362.051159 239.244638 
L 362.051159 240.233693 
L 363.145921 240.233693 
L 363.145921 240.110061 
L 364.240684 240.110061 
L 364.240684 239.36827 
L 365.335446 239.36827 
L 365.335446 239.615534 
L 366.430209 239.615534 
L 366.430209 241.099116 
L 367.524971 241.099116 
L 367.524971 240.604589 
L 368.619734 240.604589 
L 368.619734 241.222748 
L 369.714496 241.222748 
L 369.714496 240.604589 
L 370.809259 240.604589 
L 370.809259 241.840908 
L 371.904021 241.840908 
L 371.904021 240.604589 
L 372.998784 240.604589 
L 372.998784 241.840908 
L 374.093546 241.840908 
L 374.093546 243.077226 
L 375.188309 243.077226 
L 375.188309 243.571754 
L 376.283071 243.571754 
L 376.283071 242.953594 
L 377.377834 242.953594 
L 377.377834 242.335435 
L 378.472596 242.335435 
L 378.472596 243.32449 
L 379.567359 243.32449 
L 379.567359 243.448122 
L 380.662122 243.448122 
L 380.662122 242.706331 
L 381.756884 242.706331 
L 381.756884 242.829962 
L 382.851647 242.829962 
L 382.851647 244.189913 
L 383.946409 244.189913 
L 383.946409 243.200858 
L 385.041172 243.200858 
L 385.041172 243.32449 
L 386.135934 243.32449 
L 386.135934 244.437177 
L 387.230697 244.437177 
L 387.230697 244.066281 
L 388.325459 244.066281 
L 388.325459 244.560808 
L 389.420222 244.560808 
L 389.420222 244.68444 
L 390.514984 244.68444 
L 390.514984 244.313545 
L 391.609747 244.313545 
L 391.609747 244.808072 
L 392.704509 244.808072 
L 392.704509 245.426231 
L 393.799272 245.426231 
L 393.799272 244.68444 
L 394.894034 244.68444 
L 394.894034 244.808072 
L 395.988797 244.808072 
L 395.988797 244.68444 
L 397.08356 244.68444 
L 397.08356 244.931704 
L 398.178322 244.931704 
L 398.178322 244.931704 
" clip-path="url(#p3e0d603dbd)" style="fill: none; stroke: #1f77b4; stroke-width: 1.5; stroke-linecap: square"/>
   </g>
   <g id="patch_3">
    <path d="M 53.328125 257.158895 
L 53.328125 7.2 
" style="fill: none; stroke: #000000; stroke-width: 0.8; stroke-linejoin: miter; stroke-linecap: square"/>
   </g>
   <g id="patch_4">
    <path d="M 414.59976 257.158895 
L 414.59976 7.2 
" style="fill: none; stroke: #000000; stroke-width: 0.8; stroke-linejoin: miter; stroke-linecap: square"/>
   </g>
   <g id="patch_5">
    <path d="M 53.328125 257.158895 
L 414.59976 257.158895 
" style="fill: none; stroke: #000000; stroke-width: 0.8; stroke-linejoin: miter; stroke-linecap: square"/>
   </g>
   <g id="patch_6">
    <path d="M 53.328125 7.2 
L 414.59976 7.2 
" style="fill: none; stroke: #000000; stroke-width: 0.8; stroke-linejoin: miter; stroke-linecap: square"/>
   </g>
  </g>
  <g id="axes_2">
   <g id="patch_7">
    <path d="M 503.927885 257.158895 
L 865.19952 257.158895 
L 865.19952 7.2 
L 503.927885 7.2 
z
" style="fill: #ffffff"/>
   </g>
   <g id="matplotlib.axis_3">
    <g id="xtick_8">
     <g id="line2d_17">
      <g>
       <use xlink:href="#m0598d24f07" x="512.881621" y="257.158895" style="stroke: #000000; stroke-width: 0.8"/>
      </g>
     </g>
     <g id="text_18">
      <!-- 0 -->
      <g transform="translate(509.700371 271.757332) scale(0.1 -0.1)">
       <use xlink:href="#DejaVuSans-30"/>
      </g>
     </g>
    </g>
    <g id="xtick_9">
     <g id="line2d_18">
      <g>
       <use xlink:href="#m0598d24f07" x="587.531065" y="257.158895" style="stroke: #000000; stroke-width: 0.8"/>
      </g>
     </g>
     <g id="text_19">
      <!-- 2 -->
      <g transform="translate(584.349815 271.757332) scale(0.1 -0.1)">
       <use xlink:href="#DejaVuSans-32"/>
      </g>
     </g>
    </g>
    <g id="xtick_10">
     <g id="line2d_19">
      <g>
       <use xlink:href="#m0598d24f07" x="662.18051" y="257.158895" style="stroke: #000000; stroke-width: 0.8"/>
      </g>
     </g>
     <g id="text_20">
      <!-- 4 -->
      <g transform="translate(658.99926 271.757332) scale(0.1 -0.1)">
       <use xlink:href="#DejaVuSans-34"/>
      </g>
     </g>
    </g>
    <g id="xtick_11">
     <g id="line2d_20">
      <g>
       <use xlink:href="#m0598d24f07" x="736.829954" y="257.158895" style="stroke: #000000; stroke-width: 0.8"/>
      </g>
     </g>
     <g id="text_21">
      <!-- 6 -->
      <g transform="translate(733.648704 271.757332) scale(0.1 -0.1)">
       <use xlink:href="#DejaVuSans-36"/>
      </g>
     </g>
    </g>
    <g id="xtick_12">
     <g id="line2d_21">
      <g>
       <use xlink:href="#m0598d24f07" x="811.479398" y="257.158895" style="stroke: #000000; stroke-width: 0.8"/>
      </g>
     </g>
     <g id="text_22">
      <!-- 8 -->
      <g transform="translate(808.298148 271.757332) scale(0.1 -0.1)">
       <defs>
        <path id="DejaVuSans-38" d="M 2034 2216 
Q 1584 2216 1326 1975 
Q 1069 1734 1069 1313 
Q 1069 891 1326 650 
Q 1584 409 2034 409 
Q 2484 409 2743 651 
Q 3003 894 3003 1313 
Q 3003 1734 2745 1975 
Q 2488 2216 2034 2216 
z
M 1403 2484 
Q 997 2584 770 2862 
Q 544 3141 544 3541 
Q 544 4100 942 4425 
Q 1341 4750 2034 4750 
Q 2731 4750 3128 4425 
Q 3525 4100 3525 3541 
Q 3525 3141 3298 2862 
Q 3072 2584 2669 2484 
Q 3125 2378 3379 2068 
Q 3634 1759 3634 1313 
Q 3634 634 3220 271 
Q 2806 -91 2034 -91 
Q 1263 -91 848 271 
Q 434 634 434 1313 
Q 434 1759 690 2068 
Q 947 2378 1403 2484 
z
M 1172 3481 
Q 1172 3119 1398 2916 
Q 1625 2713 2034 2713 
Q 2441 2713 2670 2916 
Q 2900 3119 2900 3481 
Q 2900 3844 2670 4047 
Q 2441 4250 2034 4250 
Q 1625 4250 1398 4047 
Q 1172 3844 1172 3481 
z
" transform="scale(0.015625)"/>
       </defs>
       <use xlink:href="#DejaVuSans-38"/>
      </g>
     </g>
    </g>
    <g id="text_23">
     <!-- wavelength [Å] -->
     <g transform="translate(646.526202 287.119832) scale(0.1 -0.1)">
      <defs>
       <path id="DejaVuSans-77" d="M 269 3500 
L 844 3500 
L 1563 769 
L 2278 3500 
L 2956 3500 
L 3675 769 
L 4391 3500 
L 4966 3500 
L 4050 0 
L 3372 0 
L 2619 2869 
L 1863 0 
L 1184 0 
L 269 3500 
z
" transform="scale(0.015625)"/>
       <path id="DejaVuSans-61" d="M 2194 1759 
Q 1497 1759 1228 1600 
Q 959 1441 959 1056 
Q 959 750 1161 570 
Q 1363 391 1709 391 
Q 2188 391 2477 730 
Q 2766 1069 2766 1631 
L 2766 1759 
L 2194 1759 
z
M 3341 1997 
L 3341 0 
L 2766 0 
L 2766 531 
Q 2569 213 2275 61 
Q 1981 -91 1556 -91 
Q 1019 -91 701 211 
Q 384 513 384 1019 
Q 384 1609 779 1909 
Q 1175 2209 1959 2209 
L 2766 2209 
L 2766 2266 
Q 2766 2663 2505 2880 
Q 2244 3097 1772 3097 
Q 1472 3097 1187 3025 
Q 903 2953 641 2809 
L 641 3341 
Q 956 3463 1253 3523 
Q 1550 3584 1831 3584 
Q 2591 3584 2966 3190 
Q 3341 2797 3341 1997 
z
" transform="scale(0.015625)"/>
       <path id="DejaVuSans-76" d="M 191 3500 
L 800 3500 
L 1894 563 
L 2988 3500 
L 3597 3500 
L 2284 0 
L 1503 0 
L 191 3500 
z
" transform="scale(0.015625)"/>
       <path id="DejaVuSans-67" d="M 2906 1791 
Q 2906 2416 2648 2759 
Q 2391 3103 1925 3103 
Q 1463 3103 1205 2759 
Q 947 2416 947 1791 
Q 947 1169 1205 825 
Q 1463 481 1925 481 
Q 2391 481 2648 825 
Q 2906 1169 2906 1791 
z
M 3481 434 
Q 3481 -459 3084 -895 
Q 2688 -1331 1869 -1331 
Q 1566 -1331 1297 -1286 
Q 1028 -1241 775 -1147 
L 775 -588 
Q 1028 -725 1275 -790 
Q 1522 -856 1778 -856 
Q 2344 -856 2625 -561 
Q 2906 -266 2906 331 
L 2906 616 
Q 2728 306 2450 153 
Q 2172 0 1784 0 
Q 1141 0 747 490 
Q 353 981 353 1791 
Q 353 2603 747 3093 
Q 1141 3584 1784 3584 
Q 2172 3584 2450 3431 
Q 2728 3278 2906 2969 
L 2906 3500 
L 3481 3500 
L 3481 434 
z
" transform="scale(0.015625)"/>
       <path id="DejaVuSans-c5" d="M 2663 5081 
Q 2663 5278 2523 5417 
Q 2384 5556 2188 5556 
Q 1988 5556 1852 5420 
Q 1716 5284 1716 5081 
Q 1716 4884 1853 4746 
Q 1991 4609 2188 4609 
Q 2384 4609 2523 4746 
Q 2663 4884 2663 5081 
z
M 2188 4044 
L 1338 1722 
L 3041 1722 
L 2188 4044 
z
M 1716 4366 
Q 1525 4494 1428 4673 
Q 1331 4853 1331 5081 
Q 1331 5441 1579 5691 
Q 1828 5941 2188 5941 
Q 2544 5941 2795 5689 
Q 3047 5438 3047 5081 
Q 3047 4863 2948 4678 
Q 2850 4494 2663 4366 
L 4325 0 
L 3669 0 
L 3244 1197 
L 1141 1197 
L 716 0 
L 50 0 
L 1716 4366 
z
" transform="scale(0.015625)"/>
      </defs>
      <use xlink:href="#DejaVuSans-77"/>
      <use xlink:href="#DejaVuSans-61" transform="translate(81.787109 0)"/>
      <use xlink:href="#DejaVuSans-76" transform="translate(143.066406 0)"/>
      <use xlink:href="#DejaVuSans-65" transform="translate(202.246094 0)"/>
      <use xlink:href="#DejaVuSans-6c" transform="translate(263.769531 0)"/>
      <use xlink:href="#DejaVuSans-65" transform="translate(291.552734 0)"/>
      <use xlink:href="#DejaVuSans-6e" transform="translate(353.076172 0)"/>
      <use xlink:href="#DejaVuSans-67" transform="translate(416.455078 0)"/>
      <use xlink:href="#DejaVuSans-74" transform="translate(479.931641 0)"/>
      <use xlink:href="#DejaVuSans-68" transform="translate(519.140625 0)"/>
      <use xlink:href="#DejaVuSans-20" transform="translate(582.519531 0)"/>
      <use xlink:href="#DejaVuSans-5b" transform="translate(614.306641 0)"/>
      <use xlink:href="#DejaVuSans-c5" transform="translate(653.320312 0)"/>
      <use xlink:href="#DejaVuSans-5d" transform="translate(721.728516 0)"/>
     </g>
    </g>
   </g>
   <g id="matplotlib.axis_4">
    <g id="ytick_9">
     <g id="line2d_22">
      <g>
       <use xlink:href="#m1238529b14" x="503.927885" y="246.045201" style="stroke: #000000; stroke-width: 0.8"/>
      </g>
     </g>
     <g id="text_24">
      <!-- 0 -->
      <g transform="translate(490.565385 249.844419) scale(0.1 -0.1)">
       <use xlink:href="#DejaVuSans-30"/>
      </g>
     </g>
    </g>
    <g id="ytick_10">
     <g id="line2d_23">
      <g>
       <use xlink:href="#m1238529b14" x="503.927885" y="215.036009" style="stroke: #000000; stroke-width: 0.8"/>
      </g>
     </g>
     <g id="text_25">
      <!-- 250 -->
      <g transform="translate(477.840385 218.835227) scale(0.1 -0.1)">
       <use xlink:href="#DejaVuSans-32"/>
       <use xlink:href="#DejaVuSans-35" transform="translate(63.623047 0)"/>
       <use xlink:href="#DejaVuSans-30" transform="translate(127.246094 0)"/>
      </g>
     </g>
    </g>
    <g id="ytick_11">
     <g id="line2d_24">
      <g>
       <use xlink:href="#m1238529b14" x="503.927885" y="184.026817" style="stroke: #000000; stroke-width: 0.8"/>
      </g>
     </g>
     <g id="text_26">
      <!-- 500 -->
      <g transform="translate(477.840385 187.826035) scale(0.1 -0.1)">
       <use xlink:href="#DejaVuSans-35"/>
       <use xlink:href="#DejaVuSans-30" transform="translate(63.623047 0)"/>
       <use xlink:href="#DejaVuSans-30" transform="translate(127.246094 0)"/>
      </g>
     </g>
    </g>
    <g id="ytick_12">
     <g id="line2d_25">
      <g>
       <use xlink:href="#m1238529b14" x="503.927885" y="153.017625" style="stroke: #000000; stroke-width: 0.8"/>
      </g>
     </g>
     <g id="text_27">
      <!-- 750 -->
      <g transform="translate(477.840385 156.816843) scale(0.1 -0.1)">
       <use xlink:href="#DejaVuSans-37"/>
       <use xlink:href="#DejaVuSans-35" transform="translate(63.623047 0)"/>
       <use xlink:href="#DejaVuSans-30" transform="translate(127.246094 0)"/>
      </g>
     </g>
    </g>
    <g id="ytick_13">
     <g id="line2d_26">
      <g>
       <use xlink:href="#m1238529b14" x="503.927885" y="122.008433" style="stroke: #000000; stroke-width: 0.8"/>
      </g>
     </g>
     <g id="text_28">
      <!-- 1000 -->
      <g transform="translate(471.477885 125.807651) scale(0.1 -0.1)">
       <use xlink:href="#DejaVuSans-31"/>
       <use xlink:href="#DejaVuSans-30" transform="translate(63.623047 0)"/>
       <use xlink:href="#DejaVuSans-30" transform="translate(127.246094 0)"/>
       <use xlink:href="#DejaVuSans-30" transform="translate(190.869141 0)"/>
      </g>
     </g>
    </g>
    <g id="ytick_14">
     <g id="line2d_27">
      <g>
       <use xlink:href="#m1238529b14" x="503.927885" y="90.999241" style="stroke: #000000; stroke-width: 0.8"/>
      </g>
     </g>
     <g id="text_29">
      <!-- 1250 -->
      <g transform="translate(471.477885 94.798459) scale(0.1 -0.1)">
       <use xlink:href="#DejaVuSans-31"/>
       <use xlink:href="#DejaVuSans-32" transform="translate(63.623047 0)"/>
       <use xlink:href="#DejaVuSans-35" transform="translate(127.246094 0)"/>
       <use xlink:href="#DejaVuSans-30" transform="translate(190.869141 0)"/>
      </g>
     </g>
    </g>
    <g id="ytick_15">
     <g id="line2d_28">
      <g>
       <use xlink:href="#m1238529b14" x="503.927885" y="59.990048" style="stroke: #000000; stroke-width: 0.8"/>
      </g>
     </g>
     <g id="text_30">
      <!-- 1500 -->
      <g transform="translate(471.477885 63.789267) scale(0.1 -0.1)">
       <use xlink:href="#DejaVuSans-31"/>
       <use xlink:href="#DejaVuSans-35" transform="translate(63.623047 0)"/>
       <use xlink:href="#DejaVuSans-30" transform="translate(127.246094 0)"/>
       <use xlink:href="#DejaVuSans-30" transform="translate(190.869141 0)"/>
      </g>
     </g>
    </g>
    <g id="ytick_16">
     <g id="line2d_29">
      <g>
       <use xlink:href="#m1238529b14" x="503.927885" y="28.980856" style="stroke: #000000; stroke-width: 0.8"/>
      </g>
     </g>
     <g id="text_31">
      <!-- 1750 -->
      <g transform="translate(471.477885 32.780075) scale(0.1 -0.1)">
       <use xlink:href="#DejaVuSans-31"/>
       <use xlink:href="#DejaVuSans-37" transform="translate(63.623047 0)"/>
       <use xlink:href="#DejaVuSans-35" transform="translate(127.246094 0)"/>
       <use xlink:href="#DejaVuSans-30" transform="translate(190.869141 0)"/>
      </g>
     </g>
    </g>
    <g id="text_32">
     <!-- pulse:0 [counts] -->
     <g transform="translate(465.398197 172.659916) rotate(-90) scale(0.1 -0.1)">
      <use xlink:href="#DejaVuSans-70"/>
      <use xlink:href="#DejaVuSans-75" transform="translate(63.476562 0)"/>
      <use xlink:href="#DejaVuSans-6c" transform="translate(126.855469 0)"/>
      <use xlink:href="#DejaVuSans-73" transform="translate(154.638672 0)"/>
      <use xlink:href="#DejaVuSans-65" transform="translate(206.738281 0)"/>
      <use xlink:href="#DejaVuSans-3a" transform="translate(268.261719 0)"/>
      <use xlink:href="#DejaVuSans-30" transform="translate(301.953125 0)"/>
      <use xlink:href="#DejaVuSans-20" transform="translate(365.576172 0)"/>
      <use xlink:href="#DejaVuSans-5b" transform="translate(397.363281 0)"/>
      <use xlink:href="#DejaVuSans-63" transform="translate(436.376953 0)"/>
      <use xlink:href="#DejaVuSans-6f" transform="translate(491.357422 0)"/>
      <use xlink:href="#DejaVuSans-75" transform="translate(552.539062 0)"/>
      <use xlink:href="#DejaVuSans-6e" transform="translate(615.917969 0)"/>
      <use xlink:href="#DejaVuSans-74" transform="translate(679.296875 0)"/>
      <use xlink:href="#DejaVuSans-73" transform="translate(718.505859 0)"/>
      <use xlink:href="#DejaVuSans-5d" transform="translate(770.605469 0)"/>
     </g>
    </g>
   </g>
   <g id="line2d_30">
    <path d="M 520.349323 245.176943 
L 521.444085 245.176943 
L 521.444085 244.92887 
L 522.538848 244.92887 
L 522.538848 245.176943 
L 523.633611 245.176943 
L 523.633611 245.30098 
L 524.728373 245.30098 
L 524.728373 245.797127 
L 525.823136 245.797127 
L 525.823136 244.184649 
L 526.917898 244.184649 
L 526.917898 245.052906 
L 528.012661 245.052906 
L 528.012661 245.67309 
L 529.107423 245.67309 
L 529.107423 244.308686 
L 530.202186 244.308686 
L 530.202186 244.432723 
L 531.296948 244.432723 
L 531.296948 244.804833 
L 532.391711 244.804833 
L 532.391711 244.680796 
L 533.486473 244.680796 
L 533.486473 244.432723 
L 534.581236 244.432723 
L 534.581236 244.308686 
L 535.675998 244.308686 
L 535.675998 244.060612 
L 536.770761 244.060612 
L 536.770761 244.184649 
L 537.865523 244.184649 
L 537.865523 243.564465 
L 538.960286 243.564465 
L 538.960286 242.572171 
L 541.149811 242.572171 
L 541.149811 243.564465 
L 542.244574 243.564465 
L 542.244574 243.812539 
L 543.339336 243.812539 
L 543.339336 242.820245 
L 544.434099 242.820245 
L 544.434099 241.207767 
L 545.528861 241.207767 
L 545.528861 241.579877 
L 546.623624 241.579877 
L 546.623624 241.08373 
L 547.718386 241.08373 
L 547.718386 242.696208 
L 548.813149 242.696208 
L 548.813149 240.587583 
L 549.907911 240.587583 
L 549.907911 240.959693 
L 551.002674 240.959693 
L 551.002674 240.463546 
L 552.097436 240.463546 
L 552.097436 241.331803 
L 553.192199 241.331803 
L 553.192199 239.967399 
L 554.286961 239.967399 
L 554.286961 238.851068 
L 555.381724 238.851068 
L 555.381724 238.478958 
L 556.476486 238.478958 
L 556.476486 239.347215 
L 557.571249 239.347215 
L 557.571249 238.230884 
L 558.666012 238.230884 
L 558.666012 239.595289 
L 559.760774 239.595289 
L 559.760774 238.106847 
L 561.950299 238.106847 
L 561.950299 237.734737 
L 563.045062 237.734737 
L 563.045062 238.106847 
L 564.139824 238.106847 
L 564.139824 236.742443 
L 565.234587 236.742443 
L 565.234587 233.02134 
L 566.329349 233.02134 
L 566.329349 233.39345 
L 567.424112 233.39345 
L 567.424112 235.005928 
L 568.518874 235.005928 
L 568.518874 232.773266 
L 569.613637 232.773266 
L 569.613637 231.408862 
L 570.708399 231.408862 
L 570.708399 234.013634 
L 571.803162 234.013634 
L 571.803162 231.408862 
L 572.897924 231.408862 
L 572.897924 228.556016 
L 573.992687 228.556016 
L 573.992687 230.168494 
L 575.087449 230.168494 
L 575.087449 228.059869 
L 576.182212 228.059869 
L 576.182212 226.075281 
L 577.276975 226.075281 
L 577.276975 226.323354 
L 578.371737 226.323354 
L 578.371737 227.315649 
L 579.4665 227.315649 
L 579.4665 222.974362 
L 580.561262 222.974362 
L 580.561262 224.462803 
L 581.656025 224.462803 
L 581.656025 221.11381 
L 582.750787 221.11381 
L 582.750787 220.865737 
L 583.84555 220.865737 
L 583.84555 218.757112 
L 584.940312 218.757112 
L 584.940312 216.152339 
L 586.035075 216.152339 
L 586.035075 215.656192 
L 587.129837 215.656192 
L 587.129837 214.663898 
L 588.2246 214.663898 
L 588.2246 216.772523 
L 589.319362 216.772523 
L 589.319362 216.028303 
L 590.414125 216.028303 
L 590.414125 209.702428 
L 591.508887 209.702428 
L 591.508887 205.733251 
L 592.60365 205.733251 
L 592.60365 205.857288 
L 593.698412 205.857288 
L 593.698412 205.485177 
L 595.887938 205.485177 
L 595.887938 205.857288 
L 596.9827 205.857288 
L 596.9827 200.39967 
L 598.077463 200.39967 
L 598.077463 199.655449 
L 599.172225 199.655449 
L 599.172225 201.516001 
L 600.266988 201.516001 
L 600.266988 197.050677 
L 601.36175 197.050677 
L 601.36175 193.825721 
L 602.456513 193.825721 
L 602.456513 190.104618 
L 603.551275 190.104618 
L 603.551275 186.011405 
L 604.646038 186.011405 
L 604.646038 187.003699 
L 605.7408 187.003699 
L 605.7408 179.437456 
L 606.835563 179.437456 
L 606.835563 185.639295 
L 607.930325 185.639295 
L 607.930325 179.437456 
L 609.025088 179.437456 
L 609.025088 181.794155 
L 610.11985 181.794155 
L 610.11985 177.949015 
L 611.214613 177.949015 
L 611.214613 173.235618 
L 612.309375 173.235618 
L 612.309375 170.630846 
L 613.404138 170.630846 
L 613.404138 169.886625 
L 614.498901 169.886625 
L 614.498901 165.793412 
L 615.593663 165.793412 
L 615.593663 162.196345 
L 616.688426 162.196345 
L 616.688426 161.452125 
L 617.783188 161.452125 
L 617.783188 153.017625 
L 618.877951 153.017625 
L 618.877951 159.219463 
L 619.972713 159.219463 
L 619.972713 151.405147 
L 621.067476 151.405147 
L 621.067476 146.567713 
L 622.162238 146.567713 
L 622.162238 146.195602 
L 623.257001 146.195602 
L 623.257001 148.180191 
L 624.351763 148.180191 
L 624.351763 140.117801 
L 625.446526 140.117801 
L 625.446526 138.257249 
L 626.541288 138.257249 
L 626.541288 130.815043 
L 627.636051 130.815043 
L 627.636051 137.140918 
L 628.730813 137.140918 
L 628.730813 129.450639 
L 629.825576 129.450639 
L 629.825576 125.109352 
L 630.920339 125.109352 
L 630.920339 130.691006 
L 632.015101 130.691006 
L 632.015101 120.395955 
L 633.109864 120.395955 
L 633.109864 112.457601 
L 634.204626 112.457601 
L 634.204626 112.829712 
L 635.299389 112.829712 
L 635.299389 110.100903 
L 636.394151 110.100903 
L 636.394151 105.759616 
L 637.488914 105.759616 
L 637.488914 106.007689 
L 638.583676 106.007689 
L 638.583676 108.488425 
L 639.678439 108.488425 
L 639.678439 94.224196 
L 640.773201 94.224196 
L 640.773201 100.922182 
L 641.867964 100.922182 
L 641.867964 99.433741 
L 642.962726 99.433741 
L 642.962726 88.518505 
L 644.057489 88.518505 
L 644.057489 91.743461 
L 645.152251 91.743461 
L 645.152251 90.006946 
L 646.247014 90.006946 
L 646.247014 77.355196 
L 647.341776 77.355196 
L 647.341776 86.78199 
L 648.436539 86.78199 
L 648.436539 73.386019 
L 649.531302 73.386019 
L 649.531302 69.168769 
L 650.626064 69.168769 
L 650.626064 77.479233 
L 651.720827 77.479233 
L 651.720827 70.657211 
L 652.815589 70.657211 
L 652.815589 72.889872 
L 653.910352 72.889872 
L 653.910352 62.098674 
L 655.005114 62.098674 
L 655.005114 60.362159 
L 656.099877 60.362159 
L 656.099877 44.857563 
L 657.194639 44.857563 
L 657.194639 56.268945 
L 658.289402 56.268945 
L 658.289402 59.741975 
L 659.384164 59.741975 
L 659.384164 52.175732 
L 660.478927 52.175732 
L 660.478927 51.555548 
L 661.573689 51.555548 
L 661.573689 56.268945 
L 662.668452 56.268945 
L 662.668452 35.554805 
L 663.763214 35.554805 
L 663.763214 51.183438 
L 664.857977 51.183438 
L 664.857977 39.399945 
L 665.952739 39.399945 
L 665.952739 46.718114 
L 667.047502 46.718114 
L 667.047502 41.88068 
L 668.142265 41.88068 
L 668.142265 35.802879 
L 669.237027 35.802879 
L 669.237027 40.020129 
L 670.33179 40.020129 
L 670.33179 29.477004 
L 671.426552 29.477004 
L 671.426552 31.337555 
L 672.521315 31.337555 
L 672.521315 37.911504 
L 673.616077 37.911504 
L 673.616077 34.562511 
L 674.71084 34.562511 
L 674.71084 27.120305 
L 675.805602 27.120305 
L 675.805602 27.244342 
L 676.900365 27.244342 
L 676.900365 23.399202 
L 677.995127 23.399202 
L 677.995127 26.748195 
L 679.08989 26.748195 
L 679.08989 25.38379 
L 680.184652 25.38379 
L 680.184652 24.391496 
L 681.279415 24.391496 
L 681.279415 21.910761 
L 682.374177 21.910761 
L 682.374177 29.22893 
L 683.46894 29.22893 
L 683.46894 31.957739 
L 684.563702 31.957739 
L 684.563702 20.79443 
L 685.658465 20.79443 
L 685.658465 25.631864 
L 686.753228 25.631864 
L 686.753228 27.740489 
L 687.84799 27.740489 
L 687.84799 25.631864 
L 688.942753 25.631864 
L 688.942753 27.120305 
L 690.037515 27.120305 
L 690.037515 18.561768 
L 691.132278 18.561768 
L 691.132278 31.585629 
L 692.22704 31.585629 
L 692.22704 32.205812 
L 693.321803 32.205812 
L 693.321803 25.879937 
L 694.416565 25.879937 
L 694.416565 26.500121 
L 695.511328 26.500121 
L 695.511328 28.236636 
L 696.60609 28.236636 
L 696.60609 36.547099 
L 697.700853 36.547099 
L 697.700853 35.802879 
L 698.795615 35.802879 
L 698.795615 36.423063 
L 699.890378 36.423063 
L 699.890378 39.151871 
L 700.98514 39.151871 
L 700.98514 45.229673 
L 702.079903 45.229673 
L 702.079903 32.70196 
L 703.174666 32.70196 
L 703.174666 40.020129 
L 704.269428 40.020129 
L 704.269428 42.376827 
L 705.364191 42.376827 
L 705.364191 44.733526 
L 707.553716 44.733526 
L 707.553716 45.973894 
L 708.648478 45.973894 
L 708.648478 54.532431 
L 709.743241 54.532431 
L 709.743241 53.168026 
L 710.838003 53.168026 
L 710.838003 57.013166 
L 711.932766 57.013166 
L 711.932766 62.718857 
L 713.027528 62.718857 
L 713.027528 57.757387 
L 714.122291 57.757387 
L 714.122291 59.617938 
L 715.217053 59.617938 
L 715.217053 56.392982 
L 716.311816 56.392982 
L 716.311816 68.796659 
L 717.406578 68.796659 
L 717.406578 72.393725 
L 719.596103 72.393725 
L 719.596103 70.409137 
L 720.690866 70.409137 
L 720.690866 82.440704 
L 721.785629 82.440704 
L 721.785629 72.641799 
L 722.880391 72.641799 
L 722.880391 80.084005 
L 723.975154 80.084005 
L 723.975154 80.580152 
L 725.069916 80.580152 
L 725.069916 86.285843 
L 726.164679 86.285843 
L 726.164679 91.991535 
L 727.259441 91.991535 
L 727.259441 94.10016 
L 728.354204 94.10016 
L 728.354204 101.542366 
L 729.448966 101.542366 
L 729.448966 104.147138 
L 730.543729 104.147138 
L 730.543729 101.790439 
L 731.638491 101.790439 
L 731.638491 104.643285 
L 732.733254 104.643285 
L 732.733254 108.612462 
L 733.828016 108.612462 
L 733.828016 113.822006 
L 734.922779 113.822006 
L 734.922779 123.993021 
L 736.017541 123.993021 
L 736.017541 122.752653 
L 737.112304 122.752653 
L 737.112304 117.295035 
L 738.207066 117.295035 
L 738.207066 121.512285 
L 739.301829 121.512285 
L 739.301829 127.838161 
L 740.396592 127.838161 
L 740.396592 128.086234 
L 741.491354 128.086234 
L 741.491354 132.427521 
L 742.586117 132.427521 
L 742.586117 138.505323 
L 743.680879 138.505323 
L 743.680879 139.74569 
L 744.775642 139.74569 
L 744.775642 135.15633 
L 745.870404 135.15633 
L 745.870404 144.831198 
L 746.965167 144.831198 
L 746.965167 148.552301 
L 748.059929 148.552301 
L 748.059929 141.854315 
L 749.154692 141.854315 
L 749.154692 158.227169 
L 750.249454 158.227169 
L 750.249454 150.660926 
L 751.344217 150.660926 
L 751.344217 159.839647 
L 752.438979 159.839647 
L 752.438979 154.506066 
L 753.533742 154.506066 
L 753.533742 165.049191 
L 754.628504 165.049191 
L 754.628504 164.180934 
L 755.723267 164.180934 
L 755.723267 171.99525 
L 756.818029 171.99525 
L 756.818029 172.243324 
L 757.912792 172.243324 
L 757.912792 179.561493 
L 759.007555 179.561493 
L 759.007555 177.080758 
L 760.102317 177.080758 
L 760.102317 175.592316 
L 761.19708 175.592316 
L 761.19708 176.2125 
L 762.291842 176.2125 
L 762.291842 183.158559 
L 763.386605 183.158559 
L 763.386605 184.398927 
L 764.481367 184.398927 
L 764.481367 188.244067 
L 765.57613 188.244067 
L 765.57613 188.864251 
L 766.670892 188.864251 
L 766.670892 193.577648 
L 767.765655 193.577648 
L 767.765655 191.96517 
L 768.860417 191.96517 
L 768.860417 198.291045 
L 769.95518 198.291045 
L 769.95518 192.957464 
L 771.049942 192.957464 
L 771.049942 199.407376 
L 772.144705 199.407376 
L 772.144705 205.609214 
L 773.239467 205.609214 
L 773.239467 196.306457 
L 774.33423 196.306457 
L 774.33423 208.710133 
L 775.428993 208.710133 
L 775.428993 202.384258 
L 776.523755 202.384258 
L 776.523755 212.67931 
L 777.618518 212.67931 
L 777.618518 210.818758 
L 778.71328 210.818758 
L 778.71328 214.539861 
L 779.808043 214.539861 
L 779.808043 213.299494 
L 780.902805 213.299494 
L 780.902805 213.547567 
L 781.997568 213.547567 
L 781.997568 209.578391 
L 783.09233 209.578391 
L 783.09233 213.299494 
L 784.187093 213.299494 
L 784.187093 217.516744 
L 785.281855 217.516744 
L 785.281855 217.764817 
L 786.376618 217.764817 
L 786.376618 219.749406 
L 787.47138 219.749406 
L 787.47138 223.098398 
L 788.566143 223.098398 
L 788.566143 223.222435 
L 789.660905 223.222435 
L 789.660905 221.361884 
L 790.755668 221.361884 
L 790.755668 223.594546 
L 791.85043 223.594546 
L 791.85043 226.819502 
L 792.945193 226.819502 
L 792.945193 228.680053 
L 794.039956 228.680053 
L 794.039956 228.80409 
L 795.134718 228.80409 
L 795.134718 229.052163 
L 796.229481 229.052163 
L 796.229481 232.029046 
L 797.324243 232.029046 
L 797.324243 227.687759 
L 798.419006 227.687759 
L 798.419006 231.284825 
L 799.513768 231.284825 
L 799.513768 232.897303 
L 800.608531 232.897303 
L 800.608531 234.385744 
L 801.703293 234.385744 
L 801.703293 232.277119 
L 802.798056 232.277119 
L 802.798056 233.889597 
L 803.892818 233.889597 
L 803.892818 235.750149 
L 804.987581 235.750149 
L 804.987581 234.757855 
L 806.082343 234.757855 
L 806.082343 236.122259 
L 807.177106 236.122259 
L 807.177106 236.494369 
L 808.271868 236.494369 
L 808.271868 235.750149 
L 809.366631 235.750149 
L 809.366631 239.843362 
L 810.461393 239.843362 
L 810.461393 238.478958 
L 811.556156 238.478958 
L 811.556156 236.990517 
L 812.650919 236.990517 
L 812.650919 238.354921 
L 813.745681 238.354921 
L 813.745681 237.982811 
L 814.840444 237.982811 
L 814.840444 239.967399 
L 815.935206 239.967399 
L 815.935206 238.975105 
L 817.029969 238.975105 
L 817.029969 239.719325 
L 818.124731 239.719325 
L 818.124731 241.82795 
L 819.219494 241.82795 
L 819.219494 240.71162 
L 820.314256 240.71162 
L 820.314256 241.331803 
L 821.409019 241.331803 
L 821.409019 240.463546 
L 822.503781 240.463546 
L 822.503781 242.572171 
L 823.598544 242.572171 
L 823.598544 242.200061 
L 824.693306 242.200061 
L 824.693306 243.068318 
L 825.788069 243.068318 
L 825.788069 242.944281 
L 826.882831 242.944281 
L 826.882831 242.076024 
L 827.977594 242.076024 
L 827.977594 242.448134 
L 829.072356 242.448134 
L 829.072356 243.068318 
L 830.167119 243.068318 
L 830.167119 243.688502 
L 831.261882 243.688502 
L 831.261882 244.308686 
L 832.356644 244.308686 
L 832.356644 243.068318 
L 833.451407 243.068318 
L 833.451407 243.440428 
L 834.546169 243.440428 
L 834.546169 243.936576 
L 835.640932 243.936576 
L 835.640932 243.564465 
L 836.735694 243.564465 
L 836.735694 243.440428 
L 837.830457 243.440428 
L 837.830457 244.556759 
L 840.019982 244.556759 
L 840.019982 244.804833 
L 841.114744 244.804833 
L 841.114744 244.556759 
L 842.209507 244.556759 
L 842.209507 244.680796 
L 843.304269 244.680796 
L 843.304269 245.176943 
L 845.493794 245.176943 
L 845.493794 245.797127 
L 846.588557 245.797127 
L 846.588557 245.425017 
L 847.68332 245.425017 
L 847.68332 245.176943 
L 848.778082 245.176943 
L 848.778082 245.176943 
" clip-path="url(#p15973d67ad)" style="fill: none; stroke: #1f77b4; stroke-width: 1.5; stroke-linecap: square"/>
   </g>
   <g id="patch_8">
    <path d="M 503.927885 257.158895 
L 503.927885 7.2 
" style="fill: none; stroke: #000000; stroke-width: 0.8; stroke-linejoin: miter; stroke-linecap: square"/>
   </g>
   <g id="patch_9">
    <path d="M 865.19952 257.158895 
L 865.19952 7.2 
" style="fill: none; stroke: #000000; stroke-width: 0.8; stroke-linejoin: miter; stroke-linecap: square"/>
   </g>
   <g id="patch_10">
    <path d="M 503.927885 257.158895 
L 865.19952 257.158895 
" style="fill: none; stroke: #000000; stroke-width: 0.8; stroke-linejoin: miter; stroke-linecap: square"/>
   </g>
   <g id="patch_11">
    <path d="M 503.927885 7.2 
L 865.19952 7.2 
" style="fill: none; stroke: #000000; stroke-width: 0.8; stroke-linejoin: miter; stroke-linecap: square"/>
   </g>
  </g>
 </g>
 <defs>
  <clipPath id="p3e0d603dbd">
   <rect x="53.328125" y="7.2" width="361.271635" height="249.958895"/>
  </clipPath>
  <clipPath id="p15973d67ad">
   <rect x="503.927885" y="7.2" width="361.271635" height="249.958895"/>
  </clipPath>
 </defs>
</svg>
