<?xml version="1.0" encoding="utf-8" standalone="no"?>
<!DOCTYPE svg PUBLIC "-//W3C//DTD SVG 1.1//EN"
  "http://www.w3.org/Graphics/SVG/1.1/DTD/svg11.dtd">
<svg xmlns:xlink="http://www.w3.org/1999/xlink" width="872.39952pt" height="296.39952pt" viewBox="0 0 872.39952 296.39952" xmlns="http://www.w3.org/2000/svg" version="1.1">
 <metadata>
  <rdf:RDF xmlns:dc="http://purl.org/dc/elements/1.1/" xmlns:cc="http://creativecommons.org/ns#" xmlns:rdf="http://www.w3.org/1999/02/22-rdf-syntax-ns#">
   <cc:Work>
    <dc:type rdf:resource="http://purl.org/dc/dcmitype/StillImage"/>
    <dc:date>2025-11-19T10:11:29.347698</dc:date>
    <dc:format>image/svg+xml</dc:format>
    <dc:creator>
     <cc:Agent>
      <dc:title>Matplotlib v3.10.7, https://matplotlib.org/</dc:title>
     </cc:Agent>
    </dc:creator>
   </cc:Work>
  </rdf:RDF>
 </metadata>
 <defs>
  <style type="text/css">*{stroke-linejoin: round; stroke-linecap: butt}</style>
 </defs>
 <g id="figure_1">
  <g id="patch_1">
   <path d="M 0 296.39952 
L 872.39952 296.39952 
L 872.39952 0 
L 0 0 
z
" style="fill: #ffffff"/>
  </g>
  <g id="axes_1">
   <g id="patch_2">
    <path d="M 53.328125 257.158895 
L 414.59976 257.158895 
L 414.59976 7.2 
L 53.328125 7.2 
z
" style="fill: #ffffff"/>
   </g>
   <g id="matplotlib.axis_1">
    <g id="xtick_1">
     <g id="line2d_1">
      <defs>
       <path id="m088029e24b" d="M 0 0 
L 0 3.5 
" style="stroke: #000000; stroke-width: 0.8"/>
      </defs>
      <g>
       <use xlink:href="#m088029e24b" x="69.749321" y="257.158895" style="stroke: #000000; stroke-width: 0.8"/>
      </g>
     </g>
     <g id="text_1">
      <!-- 1000 -->
      <g transform="translate(57.024321 271.757332) scale(0.1 -0.1)">
       <defs>
        <path id="DejaVuSans-31" d="M 794 531 
L 1825 531 
L 1825 4091 
L 703 3866 
L 703 4441 
L 1819 4666 
L 2450 4666 
L 2450 531 
L 3481 531 
L 3481 0 
L 794 0 
L 794 531 
z
" transform="scale(0.015625)"/>
        <path id="DejaVuSans-30" d="M 2034 4250 
Q 1547 4250 1301 3770 
Q 1056 3291 1056 2328 
Q 1056 1369 1301 889 
Q 1547 409 2034 409 
Q 2525 409 2770 889 
Q 3016 1369 3016 2328 
Q 3016 3291 2770 3770 
Q 2525 4250 2034 4250 
z
M 2034 4750 
Q 2819 4750 3233 4129 
Q 3647 3509 3647 2328 
Q 3647 1150 3233 529 
Q 2819 -91 2034 -91 
Q 1250 -91 836 529 
Q 422 1150 422 2328 
Q 422 3509 836 4129 
Q 1250 4750 2034 4750 
z
" transform="scale(0.015625)"/>
       </defs>
       <use xlink:href="#DejaVuSans-31"/>
       <use xlink:href="#DejaVuSans-30" transform="translate(63.623047 0)"/>
       <use xlink:href="#DejaVuSans-30" transform="translate(127.246094 0)"/>
       <use xlink:href="#DejaVuSans-30" transform="translate(190.869141 0)"/>
      </g>
     </g>
    </g>
    <g id="xtick_2">
     <g id="line2d_2">
      <g>
       <use xlink:href="#m088029e24b" x="110.802952" y="257.158895" style="stroke: #000000; stroke-width: 0.8"/>
      </g>
     </g>
     <g id="text_2">
      <!-- 1250 -->
      <g transform="translate(98.077952 271.757332) scale(0.1 -0.1)">
       <defs>
        <path id="DejaVuSans-32" d="M 1228 531 
L 3431 531 
L 3431 0 
L 469 0 
L 469 531 
Q 828 903 1448 1529 
Q 2069 2156 2228 2338 
Q 2531 2678 2651 2914 
Q 2772 3150 2772 3378 
Q 2772 3750 2511 3984 
Q 2250 4219 1831 4219 
Q 1534 4219 1204 4116 
Q 875 4013 500 3803 
L 500 4441 
Q 881 4594 1212 4672 
Q 1544 4750 1819 4750 
Q 2544 4750 2975 4387 
Q 3406 4025 3406 3419 
Q 3406 3131 3298 2873 
Q 3191 2616 2906 2266 
Q 2828 2175 2409 1742 
Q 1991 1309 1228 531 
z
" transform="scale(0.015625)"/>
        <path id="DejaVuSans-35" d="M 691 4666 
L 3169 4666 
L 3169 4134 
L 1269 4134 
L 1269 2991 
Q 1406 3038 1543 3061 
Q 1681 3084 1819 3084 
Q 2600 3084 3056 2656 
Q 3513 2228 3513 1497 
Q 3513 744 3044 326 
Q 2575 -91 1722 -91 
Q 1428 -91 1123 -41 
Q 819 9 494 109 
L 494 744 
Q 775 591 1075 516 
Q 1375 441 1709 441 
Q 2250 441 2565 725 
Q 2881 1009 2881 1497 
Q 2881 1984 2565 2268 
Q 2250 2553 1709 2553 
Q 1456 2553 1204 2497 
Q 953 2441 691 2322 
L 691 4666 
z
" transform="scale(0.015625)"/>
       </defs>
       <use xlink:href="#DejaVuSans-31"/>
       <use xlink:href="#DejaVuSans-32" transform="translate(63.623047 0)"/>
       <use xlink:href="#DejaVuSans-35" transform="translate(127.246094 0)"/>
       <use xlink:href="#DejaVuSans-30" transform="translate(190.869141 0)"/>
      </g>
     </g>
    </g>
    <g id="xtick_3">
     <g id="line2d_3">
      <g>
       <use xlink:href="#m088029e24b" x="151.856583" y="257.158895" style="stroke: #000000; stroke-width: 0.8"/>
      </g>
     </g>
     <g id="text_3">
      <!-- 1500 -->
      <g transform="translate(139.131583 271.757332) scale(0.1 -0.1)">
       <use xlink:href="#DejaVuSans-31"/>
       <use xlink:href="#DejaVuSans-35" transform="translate(63.623047 0)"/>
       <use xlink:href="#DejaVuSans-30" transform="translate(127.246094 0)"/>
       <use xlink:href="#DejaVuSans-30" transform="translate(190.869141 0)"/>
      </g>
     </g>
    </g>
    <g id="xtick_4">
     <g id="line2d_4">
      <g>
       <use xlink:href="#m088029e24b" x="192.910214" y="257.158895" style="stroke: #000000; stroke-width: 0.8"/>
      </g>
     </g>
     <g id="text_4">
      <!-- 1750 -->
      <g transform="translate(180.185214 271.757332) scale(0.1 -0.1)">
       <defs>
        <path id="DejaVuSans-37" d="M 525 4666 
L 3525 4666 
L 3525 4397 
L 1831 0 
L 1172 0 
L 2766 4134 
L 525 4134 
L 525 4666 
z
" transform="scale(0.015625)"/>
       </defs>
       <use xlink:href="#DejaVuSans-31"/>
       <use xlink:href="#DejaVuSans-37" transform="translate(63.623047 0)"/>
       <use xlink:href="#DejaVuSans-35" transform="translate(127.246094 0)"/>
       <use xlink:href="#DejaVuSans-30" transform="translate(190.869141 0)"/>
      </g>
     </g>
    </g>
    <g id="xtick_5">
     <g id="line2d_5">
      <g>
       <use xlink:href="#m088029e24b" x="233.963846" y="257.158895" style="stroke: #000000; stroke-width: 0.8"/>
      </g>
     </g>
     <g id="text_5">
      <!-- 2000 -->
      <g transform="translate(221.238846 271.757332) scale(0.1 -0.1)">
       <use xlink:href="#DejaVuSans-32"/>
       <use xlink:href="#DejaVuSans-30" transform="translate(63.623047 0)"/>
       <use xlink:href="#DejaVuSans-30" transform="translate(127.246094 0)"/>
       <use xlink:href="#DejaVuSans-30" transform="translate(190.869141 0)"/>
      </g>
     </g>
    </g>
    <g id="xtick_6">
     <g id="line2d_6">
      <g>
       <use xlink:href="#m088029e24b" x="275.017477" y="257.158895" style="stroke: #000000; stroke-width: 0.8"/>
      </g>
     </g>
     <g id="text_6">
      <!-- 2250 -->
      <g transform="translate(262.292477 271.757332) scale(0.1 -0.1)">
       <use xlink:href="#DejaVuSans-32"/>
       <use xlink:href="#DejaVuSans-32" transform="translate(63.623047 0)"/>
       <use xlink:href="#DejaVuSans-35" transform="translate(127.246094 0)"/>
       <use xlink:href="#DejaVuSans-30" transform="translate(190.869141 0)"/>
      </g>
     </g>
    </g>
    <g id="xtick_7">
     <g id="line2d_7">
      <g>
       <use xlink:href="#m088029e24b" x="316.071108" y="257.158895" style="stroke: #000000; stroke-width: 0.8"/>
      </g>
     </g>
     <g id="text_7">
      <!-- 2500 -->
      <g transform="translate(303.346108 271.757332) scale(0.1 -0.1)">
       <use xlink:href="#DejaVuSans-32"/>
       <use xlink:href="#DejaVuSans-35" transform="translate(63.623047 0)"/>
       <use xlink:href="#DejaVuSans-30" transform="translate(127.246094 0)"/>
       <use xlink:href="#DejaVuSans-30" transform="translate(190.869141 0)"/>
      </g>
     </g>
    </g>
    <g id="xtick_8">
     <g id="line2d_8">
      <g>
       <use xlink:href="#m088029e24b" x="357.124739" y="257.158895" style="stroke: #000000; stroke-width: 0.8"/>
      </g>
     </g>
     <g id="text_8">
      <!-- 2750 -->
      <g transform="translate(344.399739 271.757332) scale(0.1 -0.1)">
       <use xlink:href="#DejaVuSans-32"/>
       <use xlink:href="#DejaVuSans-37" transform="translate(63.623047 0)"/>
       <use xlink:href="#DejaVuSans-35" transform="translate(127.246094 0)"/>
       <use xlink:href="#DejaVuSans-30" transform="translate(190.869141 0)"/>
      </g>
     </g>
    </g>
    <g id="xtick_9">
     <g id="line2d_9">
      <g>
       <use xlink:href="#m088029e24b" x="398.178371" y="257.158895" style="stroke: #000000; stroke-width: 0.8"/>
      </g>
     </g>
     <g id="text_9">
      <!-- 3000 -->
      <g transform="translate(385.453371 271.757332) scale(0.1 -0.1)">
       <defs>
        <path id="DejaVuSans-33" d="M 2597 2516 
Q 3050 2419 3304 2112 
Q 3559 1806 3559 1356 
Q 3559 666 3084 287 
Q 2609 -91 1734 -91 
Q 1441 -91 1130 -33 
Q 819 25 488 141 
L 488 750 
Q 750 597 1062 519 
Q 1375 441 1716 441 
Q 2309 441 2620 675 
Q 2931 909 2931 1356 
Q 2931 1769 2642 2001 
Q 2353 2234 1838 2234 
L 1294 2234 
L 1294 2753 
L 1863 2753 
Q 2328 2753 2575 2939 
Q 2822 3125 2822 3475 
Q 2822 3834 2567 4026 
Q 2313 4219 1838 4219 
Q 1578 4219 1281 4162 
Q 984 4106 628 3988 
L 628 4550 
Q 988 4650 1302 4700 
Q 1616 4750 1894 4750 
Q 2613 4750 3031 4423 
Q 3450 4097 3450 3541 
Q 3450 3153 3228 2886 
Q 3006 2619 2597 2516 
z
" transform="scale(0.015625)"/>
       </defs>
       <use xlink:href="#DejaVuSans-33"/>
       <use xlink:href="#DejaVuSans-30" transform="translate(63.623047 0)"/>
       <use xlink:href="#DejaVuSans-30" transform="translate(127.246094 0)"/>
       <use xlink:href="#DejaVuSans-30" transform="translate(190.869141 0)"/>
      </g>
     </g>
    </g>
    <g id="text_10">
     <!-- birth_time [µs] -->
     <g transform="translate(197.14363 285.435457) scale(0.1 -0.1)">
      <defs>
       <path id="DejaVuSans-62" d="M 3116 1747 
Q 3116 2381 2855 2742 
Q 2594 3103 2138 3103 
Q 1681 3103 1420 2742 
Q 1159 2381 1159 1747 
Q 1159 1113 1420 752 
Q 1681 391 2138 391 
Q 2594 391 2855 752 
Q 3116 1113 3116 1747 
z
M 1159 2969 
Q 1341 3281 1617 3432 
Q 1894 3584 2278 3584 
Q 2916 3584 3314 3078 
Q 3713 2572 3713 1747 
Q 3713 922 3314 415 
Q 2916 -91 2278 -91 
Q 1894 -91 1617 61 
Q 1341 213 1159 525 
L 1159 0 
L 581 0 
L 581 4863 
L 1159 4863 
L 1159 2969 
z
" transform="scale(0.015625)"/>
       <path id="DejaVuSans-69" d="M 603 3500 
L 1178 3500 
L 1178 0 
L 603 0 
L 603 3500 
z
M 603 4863 
L 1178 4863 
L 1178 4134 
L 603 4134 
L 603 4863 
z
" transform="scale(0.015625)"/>
       <path id="DejaVuSans-72" d="M 2631 2963 
Q 2534 3019 2420 3045 
Q 2306 3072 2169 3072 
Q 1681 3072 1420 2755 
Q 1159 2438 1159 1844 
L 1159 0 
L 581 0 
L 581 3500 
L 1159 3500 
L 1159 2956 
Q 1341 3275 1631 3429 
Q 1922 3584 2338 3584 
Q 2397 3584 2469 3576 
Q 2541 3569 2628 3553 
L 2631 2963 
z
" transform="scale(0.015625)"/>
       <path id="DejaVuSans-74" d="M 1172 4494 
L 1172 3500 
L 2356 3500 
L 2356 3053 
L 1172 3053 
L 1172 1153 
Q 1172 725 1289 603 
Q 1406 481 1766 481 
L 2356 481 
L 2356 0 
L 1766 0 
Q 1100 0 847 248 
Q 594 497 594 1153 
L 594 3053 
L 172 3053 
L 172 3500 
L 594 3500 
L 594 4494 
L 1172 4494 
z
" transform="scale(0.015625)"/>
       <path id="DejaVuSans-68" d="M 3513 2113 
L 3513 0 
L 2938 0 
L 2938 2094 
Q 2938 2591 2744 2837 
Q 2550 3084 2163 3084 
Q 1697 3084 1428 2787 
Q 1159 2491 1159 1978 
L 1159 0 
L 581 0 
L 581 4863 
L 1159 4863 
L 1159 2956 
Q 1366 3272 1645 3428 
Q 1925 3584 2291 3584 
Q 2894 3584 3203 3211 
Q 3513 2838 3513 2113 
z
" transform="scale(0.015625)"/>
       <path id="DejaVuSans-5f" d="M 3263 -1063 
L 3263 -1509 
L -63 -1509 
L -63 -1063 
L 3263 -1063 
z
" transform="scale(0.015625)"/>
       <path id="DejaVuSans-6d" d="M 3328 2828 
Q 3544 3216 3844 3400 
Q 4144 3584 4550 3584 
Q 5097 3584 5394 3201 
Q 5691 2819 5691 2113 
L 5691 0 
L 5113 0 
L 5113 2094 
Q 5113 2597 4934 2840 
Q 4756 3084 4391 3084 
Q 3944 3084 3684 2787 
Q 3425 2491 3425 1978 
L 3425 0 
L 2847 0 
L 2847 2094 
Q 2847 2600 2669 2842 
Q 2491 3084 2119 3084 
Q 1678 3084 1418 2786 
Q 1159 2488 1159 1978 
L 1159 0 
L 581 0 
L 581 3500 
L 1159 3500 
L 1159 2956 
Q 1356 3278 1631 3431 
Q 1906 3584 2284 3584 
Q 2666 3584 2933 3390 
Q 3200 3197 3328 2828 
z
" transform="scale(0.015625)"/>
       <path id="DejaVuSans-65" d="M 3597 1894 
L 3597 1613 
L 953 1613 
Q 991 1019 1311 708 
Q 1631 397 2203 397 
Q 2534 397 2845 478 
Q 3156 559 3463 722 
L 3463 178 
Q 3153 47 2828 -22 
Q 2503 -91 2169 -91 
Q 1331 -91 842 396 
Q 353 884 353 1716 
Q 353 2575 817 3079 
Q 1281 3584 2069 3584 
Q 2775 3584 3186 3129 
Q 3597 2675 3597 1894 
z
M 3022 2063 
Q 3016 2534 2758 2815 
Q 2500 3097 2075 3097 
Q 1594 3097 1305 2825 
Q 1016 2553 972 2059 
L 3022 2063 
z
" transform="scale(0.015625)"/>
       <path id="DejaVuSans-20" transform="scale(0.015625)"/>
       <path id="DejaVuSans-5b" d="M 550 4863 
L 1875 4863 
L 1875 4416 
L 1125 4416 
L 1125 -397 
L 1875 -397 
L 1875 -844 
L 550 -844 
L 550 4863 
z
" transform="scale(0.015625)"/>
       <path id="DejaVuSans-b5" d="M 544 -1331 
L 544 3500 
L 1119 3500 
L 1119 1325 
Q 1119 872 1334 640 
Q 1550 409 1972 409 
Q 2434 409 2667 671 
Q 2900 934 2900 1459 
L 2900 3500 
L 3475 3500 
L 3475 806 
Q 3475 619 3529 530 
Q 3584 441 3700 441 
Q 3728 441 3778 458 
Q 3828 475 3916 513 
L 3916 50 
Q 3788 -22 3673 -56 
Q 3559 -91 3450 -91 
Q 3234 -91 3106 31 
Q 2978 153 2931 403 
Q 2775 156 2548 32 
Q 2322 -91 2016 -91 
Q 1697 -91 1473 31 
Q 1250 153 1119 397 
L 1119 -1331 
L 544 -1331 
z
" transform="scale(0.015625)"/>
       <path id="DejaVuSans-73" d="M 2834 3397 
L 2834 2853 
Q 2591 2978 2328 3040 
Q 2066 3103 1784 3103 
Q 1356 3103 1142 2972 
Q 928 2841 928 2578 
Q 928 2378 1081 2264 
Q 1234 2150 1697 2047 
L 1894 2003 
Q 2506 1872 2764 1633 
Q 3022 1394 3022 966 
Q 3022 478 2636 193 
Q 2250 -91 1575 -91 
Q 1294 -91 989 -36 
Q 684 19 347 128 
L 347 722 
Q 666 556 975 473 
Q 1284 391 1588 391 
Q 1994 391 2212 530 
Q 2431 669 2431 922 
Q 2431 1156 2273 1281 
Q 2116 1406 1581 1522 
L 1381 1569 
Q 847 1681 609 1914 
Q 372 2147 372 2553 
Q 372 3047 722 3315 
Q 1072 3584 1716 3584 
Q 2034 3584 2315 3537 
Q 2597 3491 2834 3397 
z
" transform="scale(0.015625)"/>
       <path id="DejaVuSans-5d" d="M 1947 4863 
L 1947 -844 
L 622 -844 
L 622 -397 
L 1369 -397 
L 1369 4416 
L 622 4416 
L 622 4863 
L 1947 4863 
z
" transform="scale(0.015625)"/>
      </defs>
      <use xlink:href="#DejaVuSans-62"/>
      <use xlink:href="#DejaVuSans-69" transform="translate(63.476562 0)"/>
      <use xlink:href="#DejaVuSans-72" transform="translate(91.259766 0)"/>
      <use xlink:href="#DejaVuSans-74" transform="translate(132.373047 0)"/>
      <use xlink:href="#DejaVuSans-68" transform="translate(171.582031 0)"/>
      <use xlink:href="#DejaVuSans-5f" transform="translate(234.960938 0)"/>
      <use xlink:href="#DejaVuSans-74" transform="translate(284.960938 0)"/>
      <use xlink:href="#DejaVuSans-69" transform="translate(324.169922 0)"/>
      <use xlink:href="#DejaVuSans-6d" transform="translate(351.953125 0)"/>
      <use xlink:href="#DejaVuSans-65" transform="translate(449.365234 0)"/>
      <use xlink:href="#DejaVuSans-20" transform="translate(510.888672 0)"/>
      <use xlink:href="#DejaVuSans-5b" transform="translate(542.675781 0)"/>
      <use xlink:href="#DejaVuSans-b5" transform="translate(581.689453 0)"/>
      <use xlink:href="#DejaVuSans-73" transform="translate(645.3125 0)"/>
      <use xlink:href="#DejaVuSans-5d" transform="translate(697.412109 0)"/>
     </g>
    </g>
   </g>
   <g id="matplotlib.axis_2">
    <g id="ytick_1">
     <g id="line2d_10">
      <defs>
       <path id="mfe4f985b96" d="M 0 0 
L -3.5 0 
" style="stroke: #000000; stroke-width: 0.8"/>
      </defs>
      <g>
       <use xlink:href="#mfe4f985b96" x="53.328125" y="234.946" style="stroke: #000000; stroke-width: 0.8"/>
      </g>
     </g>
     <g id="text_11">
      <!-- 3150 -->
      <g transform="translate(20.878125 238.745219) scale(0.1 -0.1)">
       <use xlink:href="#DejaVuSans-33"/>
       <use xlink:href="#DejaVuSans-31" transform="translate(63.623047 0)"/>
       <use xlink:href="#DejaVuSans-35" transform="translate(127.246094 0)"/>
       <use xlink:href="#DejaVuSans-30" transform="translate(190.869141 0)"/>
      </g>
     </g>
    </g>
    <g id="ytick_2">
     <g id="line2d_11">
      <g>
       <use xlink:href="#mfe4f985b96" x="53.328125" y="203.030922" style="stroke: #000000; stroke-width: 0.8"/>
      </g>
     </g>
     <g id="text_12">
      <!-- 3200 -->
      <g transform="translate(20.878125 206.830141) scale(0.1 -0.1)">
       <use xlink:href="#DejaVuSans-33"/>
       <use xlink:href="#DejaVuSans-32" transform="translate(63.623047 0)"/>
       <use xlink:href="#DejaVuSans-30" transform="translate(127.246094 0)"/>
       <use xlink:href="#DejaVuSans-30" transform="translate(190.869141 0)"/>
      </g>
     </g>
    </g>
    <g id="ytick_3">
     <g id="line2d_12">
      <g>
       <use xlink:href="#mfe4f985b96" x="53.328125" y="171.115843" style="stroke: #000000; stroke-width: 0.8"/>
      </g>
     </g>
     <g id="text_13">
      <!-- 3250 -->
      <g transform="translate(20.878125 174.915062) scale(0.1 -0.1)">
       <use xlink:href="#DejaVuSans-33"/>
       <use xlink:href="#DejaVuSans-32" transform="translate(63.623047 0)"/>
       <use xlink:href="#DejaVuSans-35" transform="translate(127.246094 0)"/>
       <use xlink:href="#DejaVuSans-30" transform="translate(190.869141 0)"/>
      </g>
     </g>
    </g>
    <g id="ytick_4">
     <g id="line2d_13">
      <g>
       <use xlink:href="#mfe4f985b96" x="53.328125" y="139.200765" style="stroke: #000000; stroke-width: 0.8"/>
      </g>
     </g>
     <g id="text_14">
      <!-- 3300 -->
      <g transform="translate(20.878125 142.999984) scale(0.1 -0.1)">
       <use xlink:href="#DejaVuSans-33"/>
       <use xlink:href="#DejaVuSans-33" transform="translate(63.623047 0)"/>
       <use xlink:href="#DejaVuSans-30" transform="translate(127.246094 0)"/>
       <use xlink:href="#DejaVuSans-30" transform="translate(190.869141 0)"/>
      </g>
     </g>
    </g>
    <g id="ytick_5">
     <g id="line2d_14">
      <g>
       <use xlink:href="#mfe4f985b96" x="53.328125" y="107.285686" style="stroke: #000000; stroke-width: 0.8"/>
      </g>
     </g>
     <g id="text_15">
      <!-- 3350 -->
      <g transform="translate(20.878125 111.084905) scale(0.1 -0.1)">
       <use xlink:href="#DejaVuSans-33"/>
       <use xlink:href="#DejaVuSans-33" transform="translate(63.623047 0)"/>
       <use xlink:href="#DejaVuSans-35" transform="translate(127.246094 0)"/>
       <use xlink:href="#DejaVuSans-30" transform="translate(190.869141 0)"/>
      </g>
     </g>
    </g>
    <g id="ytick_6">
     <g id="line2d_15">
      <g>
       <use xlink:href="#mfe4f985b96" x="53.328125" y="75.370608" style="stroke: #000000; stroke-width: 0.8"/>
      </g>
     </g>
     <g id="text_16">
      <!-- 3400 -->
      <g transform="translate(20.878125 79.169826) scale(0.1 -0.1)">
       <defs>
        <path id="DejaVuSans-34" d="M 2419 4116 
L 825 1625 
L 2419 1625 
L 2419 4116 
z
M 2253 4666 
L 3047 4666 
L 3047 1625 
L 3713 1625 
L 3713 1100 
L 3047 1100 
L 3047 0 
L 2419 0 
L 2419 1100 
L 313 1100 
L 313 1709 
L 2253 4666 
z
" transform="scale(0.015625)"/>
       </defs>
       <use xlink:href="#DejaVuSans-33"/>
       <use xlink:href="#DejaVuSans-34" transform="translate(63.623047 0)"/>
       <use xlink:href="#DejaVuSans-30" transform="translate(127.246094 0)"/>
       <use xlink:href="#DejaVuSans-30" transform="translate(190.869141 0)"/>
      </g>
     </g>
    </g>
    <g id="ytick_7">
     <g id="line2d_16">
      <g>
       <use xlink:href="#mfe4f985b96" x="53.328125" y="43.455529" style="stroke: #000000; stroke-width: 0.8"/>
      </g>
     </g>
     <g id="text_17">
      <!-- 3450 -->
      <g transform="translate(20.878125 47.254748) scale(0.1 -0.1)">
       <use xlink:href="#DejaVuSans-33"/>
       <use xlink:href="#DejaVuSans-34" transform="translate(63.623047 0)"/>
       <use xlink:href="#DejaVuSans-35" transform="translate(127.246094 0)"/>
       <use xlink:href="#DejaVuSans-30" transform="translate(190.869141 0)"/>
      </g>
     </g>
    </g>
    <g id="ytick_8">
     <g id="line2d_17">
      <g>
       <use xlink:href="#mfe4f985b96" x="53.328125" y="11.540451" style="stroke: #000000; stroke-width: 0.8"/>
      </g>
     </g>
     <g id="text_18">
      <!-- 3500 -->
      <g transform="translate(20.878125 15.339669) scale(0.1 -0.1)">
       <use xlink:href="#DejaVuSans-33"/>
       <use xlink:href="#DejaVuSans-35" transform="translate(63.623047 0)"/>
       <use xlink:href="#DejaVuSans-30" transform="translate(127.246094 0)"/>
       <use xlink:href="#DejaVuSans-30" transform="translate(190.869141 0)"/>
      </g>
     </g>
    </g>
    <g id="text_19">
     <!-- pulse:0 [counts] -->
     <g transform="translate(14.798438 172.659916) rotate(-90) scale(0.1 -0.1)">
      <defs>
       <path id="DejaVuSans-70" d="M 1159 525 
L 1159 -1331 
L 581 -1331 
L 581 3500 
L 1159 3500 
L 1159 2969 
Q 1341 3281 1617 3432 
Q 1894 3584 2278 3584 
Q 2916 3584 3314 3078 
Q 3713 2572 3713 1747 
Q 3713 922 3314 415 
Q 2916 -91 2278 -91 
Q 1894 -91 1617 61 
Q 1341 213 1159 525 
z
M 3116 1747 
Q 3116 2381 2855 2742 
Q 2594 3103 2138 3103 
Q 1681 3103 1420 2742 
Q 1159 2381 1159 1747 
Q 1159 1113 1420 752 
Q 1681 391 2138 391 
Q 2594 391 2855 752 
Q 3116 1113 3116 1747 
z
" transform="scale(0.015625)"/>
       <path id="DejaVuSans-75" d="M 544 1381 
L 544 3500 
L 1119 3500 
L 1119 1403 
Q 1119 906 1312 657 
Q 1506 409 1894 409 
Q 2359 409 2629 706 
Q 2900 1003 2900 1516 
L 2900 3500 
L 3475 3500 
L 3475 0 
L 2900 0 
L 2900 538 
Q 2691 219 2414 64 
Q 2138 -91 1772 -91 
Q 1169 -91 856 284 
Q 544 659 544 1381 
z
M 1991 3584 
L 1991 3584 
z
" transform="scale(0.015625)"/>
       <path id="DejaVuSans-6c" d="M 603 4863 
L 1178 4863 
L 1178 0 
L 603 0 
L 603 4863 
z
" transform="scale(0.015625)"/>
       <path id="DejaVuSans-3a" d="M 750 794 
L 1409 794 
L 1409 0 
L 750 0 
L 750 794 
z
M 750 3309 
L 1409 3309 
L 1409 2516 
L 750 2516 
L 750 3309 
z
" transform="scale(0.015625)"/>
       <path id="DejaVuSans-63" d="M 3122 3366 
L 3122 2828 
Q 2878 2963 2633 3030 
Q 2388 3097 2138 3097 
Q 1578 3097 1268 2742 
Q 959 2388 959 1747 
Q 959 1106 1268 751 
Q 1578 397 2138 397 
Q 2388 397 2633 464 
Q 2878 531 3122 666 
L 3122 134 
Q 2881 22 2623 -34 
Q 2366 -91 2075 -91 
Q 1284 -91 818 406 
Q 353 903 353 1747 
Q 353 2603 823 3093 
Q 1294 3584 2113 3584 
Q 2378 3584 2631 3529 
Q 2884 3475 3122 3366 
z
" transform="scale(0.015625)"/>
       <path id="DejaVuSans-6f" d="M 1959 3097 
Q 1497 3097 1228 2736 
Q 959 2375 959 1747 
Q 959 1119 1226 758 
Q 1494 397 1959 397 
Q 2419 397 2687 759 
Q 2956 1122 2956 1747 
Q 2956 2369 2687 2733 
Q 2419 3097 1959 3097 
z
M 1959 3584 
Q 2709 3584 3137 3096 
Q 3566 2609 3566 1747 
Q 3566 888 3137 398 
Q 2709 -91 1959 -91 
Q 1206 -91 779 398 
Q 353 888 353 1747 
Q 353 2609 779 3096 
Q 1206 3584 1959 3584 
z
" transform="scale(0.015625)"/>
       <path id="DejaVuSans-6e" d="M 3513 2113 
L 3513 0 
L 2938 0 
L 2938 2094 
Q 2938 2591 2744 2837 
Q 2550 3084 2163 3084 
Q 1697 3084 1428 2787 
Q 1159 2491 1159 1978 
L 1159 0 
L 581 0 
L 581 3500 
L 1159 3500 
L 1159 2956 
Q 1366 3272 1645 3428 
Q 1925 3584 2291 3584 
Q 2894 3584 3203 3211 
Q 3513 2838 3513 2113 
z
" transform="scale(0.015625)"/>
      </defs>
      <use xlink:href="#DejaVuSans-70"/>
      <use xlink:href="#DejaVuSans-75" transform="translate(63.476562 0)"/>
      <use xlink:href="#DejaVuSans-6c" transform="translate(126.855469 0)"/>
      <use xlink:href="#DejaVuSans-73" transform="translate(154.638672 0)"/>
      <use xlink:href="#DejaVuSans-65" transform="translate(206.738281 0)"/>
      <use xlink:href="#DejaVuSans-3a" transform="translate(268.261719 0)"/>
      <use xlink:href="#DejaVuSans-30" transform="translate(301.953125 0)"/>
      <use xlink:href="#DejaVuSans-20" transform="translate(365.576172 0)"/>
      <use xlink:href="#DejaVuSans-5b" transform="translate(397.363281 0)"/>
      <use xlink:href="#DejaVuSans-63" transform="translate(436.376953 0)"/>
      <use xlink:href="#DejaVuSans-6f" transform="translate(491.357422 0)"/>
      <use xlink:href="#DejaVuSans-75" transform="translate(552.539062 0)"/>
      <use xlink:href="#DejaVuSans-6e" transform="translate(615.917969 0)"/>
      <use xlink:href="#DejaVuSans-74" transform="translate(679.296875 0)"/>
      <use xlink:href="#DejaVuSans-73" transform="translate(718.505859 0)"/>
      <use xlink:href="#DejaVuSans-5d" transform="translate(770.605469 0)"/>
     </g>
    </g>
   </g>
   <g id="line2d_18">
    <path d="M 69.749563 235.584302 
L 70.844325 235.584302 
L 70.844325 143.030574 
L 71.939088 143.030574 
L 71.939088 107.285686 
L 73.033851 107.285686 
L 73.033851 162.179621 
L 74.128613 162.179621 
L 74.128613 133.456051 
L 75.223376 133.456051 
L 75.223376 89.413242 
L 76.318138 89.413242 
L 76.318138 169.83924 
L 77.412901 169.83924 
L 77.412901 163.456224 
L 78.507663 163.456224 
L 78.507663 144.307177 
L 79.602426 144.307177 
L 79.602426 84.30683 
L 80.697188 84.30683 
L 80.697188 158.988113 
L 81.791951 158.988113 
L 81.791951 97.072861 
L 82.886713 97.072861 
L 82.886713 73.455703 
L 83.981476 73.455703 
L 83.981476 148.775288 
L 85.076238 148.775288 
L 85.076238 140.477368 
L 86.171001 140.477368 
L 86.171001 36.434212 
L 87.265763 36.434212 
L 87.265763 173.030748 
L 88.360526 173.030748 
L 88.360526 139.200765 
L 89.455288 139.200765 
L 89.455288 107.923988 
L 90.550051 107.923988 
L 90.550051 172.392446 
L 91.644814 172.392446 
L 91.644814 91.328147 
L 92.739576 91.328147 
L 92.739576 135.370955 
L 93.834339 135.370955 
L 93.834339 92.60475 
L 94.929101 92.60475 
L 94.929101 180.690367 
L 96.023864 180.690367 
L 96.023864 90.689845 
L 97.118626 90.689845 
L 97.118626 106.647385 
L 98.213389 106.647385 
L 98.213389 79.838719 
L 99.308151 79.838719 
L 99.308151 98.349464 
L 100.402914 98.349464 
L 100.402914 176.860557 
L 101.497676 176.860557 
L 101.497676 114.307004 
L 102.592439 114.307004 
L 102.592439 78.562116 
L 103.687201 78.562116 
L 103.687201 128.98794 
L 104.781964 128.98794 
L 104.781964 127.711337 
L 105.876726 127.711337 
L 105.876726 63.881179 
L 106.971489 63.881179 
L 106.971489 117.498511 
L 108.066252 117.498511 
L 108.066252 159.626415 
L 109.161014 159.626415 
L 109.161014 95.796258 
L 110.255777 95.796258 
L 110.255777 107.285686 
L 111.350539 107.285686 
L 111.350539 138.562463 
L 112.445302 138.562463 
L 112.445302 146.222082 
L 113.540064 146.222082 
L 113.540064 85.583433 
L 114.634827 85.583433 
L 114.634827 87.498338 
L 115.729589 87.498338 
L 115.729589 102.817575 
L 116.824352 102.817575 
L 116.824352 110.477194 
L 117.919114 110.477194 
L 117.919114 132.817749 
L 119.013877 132.817749 
L 119.013877 147.498685 
L 120.108639 147.498685 
L 120.108639 122.604924 
L 121.203402 122.604924 
L 121.203402 143.668876 
L 122.298164 143.668876 
L 122.298164 123.243226 
L 123.392927 123.243226 
L 123.392927 148.775288 
L 124.487689 148.775288 
L 124.487689 124.519829 
L 125.582452 124.519829 
L 125.582452 121.328321 
L 126.677215 121.328321 
L 126.677215 100.264369 
L 127.771977 100.264369 
L 127.771977 125.15813 
L 128.86674 125.15813 
L 128.86674 109.200591 
L 129.961502 109.200591 
L 129.961502 125.796432 
L 131.056265 125.796432 
L 131.056265 78.562116 
L 132.151027 78.562116 
L 132.151027 51.115148 
L 133.24579 51.115148 
L 133.24579 123.881527 
L 134.340552 123.881527 
L 134.340552 158.988113 
L 135.435315 158.988113 
L 135.435315 110.477194 
L 136.530077 110.477194 
L 136.530077 186.435081 
L 137.62484 186.435081 
L 137.62484 137.924162 
L 138.719602 137.924162 
L 138.719602 39.62572 
L 139.814365 39.62572 
L 139.814365 131.541146 
L 140.909127 131.541146 
L 140.909127 110.477194 
L 142.00389 110.477194 
L 142.00389 122.604924 
L 143.098652 122.604924 
L 143.098652 110.477194 
L 144.193415 110.477194 
L 144.193415 129.626241 
L 145.288178 129.626241 
L 145.288178 140.477368 
L 146.38294 140.477368 
L 146.38294 101.540972 
L 147.477703 101.540972 
L 147.477703 128.349638 
L 148.572465 128.349638 
L 148.572465 83.030227 
L 149.667228 83.030227 
L 149.667228 84.945131 
L 150.76199 84.945131 
L 150.76199 197.924509 
L 151.856753 197.924509 
L 151.856753 61.327973 
L 152.951515 61.327973 
L 152.951515 107.923988 
L 154.046278 107.923988 
L 154.046278 146.222082 
L 155.14104 146.222082 
L 155.14104 134.732654 
L 156.235803 134.732654 
L 156.235803 107.923988 
L 157.330565 107.923988 
L 157.330565 119.413416 
L 158.425328 119.413416 
L 158.425328 113.668702 
L 159.52009 113.668702 
L 159.52009 88.136639 
L 160.614853 88.136639 
L 160.614853 100.264369 
L 161.709615 100.264369 
L 161.709615 122.604924 
L 162.804378 122.604924 
L 162.804378 113.0304 
L 163.899141 113.0304 
L 163.899141 176.222256 
L 164.993903 176.222256 
L 164.993903 84.945131 
L 166.088666 84.945131 
L 166.088666 135.370955 
L 167.183428 135.370955 
L 167.183428 158.988113 
L 168.278191 158.988113 
L 168.278191 121.966622 
L 169.372953 121.966622 
L 169.372953 96.43456 
L 170.467716 96.43456 
L 170.467716 144.307177 
L 171.562478 144.307177 
L 171.562478 120.690019 
L 172.657241 120.690019 
L 172.657241 110.477194 
L 173.752003 110.477194 
L 173.752003 206.22243 
L 174.846766 206.22243 
L 174.846766 100.264369 
L 175.941528 100.264369 
L 175.941528 150.051891 
L 177.036291 150.051891 
L 177.036291 196.647906 
L 178.131053 196.647906 
L 178.131053 96.43456 
L 179.225816 96.43456 
L 179.225816 50.476846 
L 180.320579 50.476846 
L 180.320579 137.28586 
L 181.415341 137.28586 
L 181.415341 101.540972 
L 182.510104 101.540972 
L 182.510104 50.476846 
L 183.604866 50.476846 
L 183.604866 106.647385 
L 184.699629 106.647385 
L 184.699629 69.625894 
L 185.794391 69.625894 
L 185.794391 153.243399 
L 186.889154 153.243399 
L 186.889154 128.349638 
L 187.983916 128.349638 
L 187.983916 148.136987 
L 189.078679 148.136987 
L 189.078679 126.434733 
L 190.173441 126.434733 
L 190.173441 113.668702 
L 191.268204 113.668702 
L 191.268204 79.200417 
L 192.362966 79.200417 
L 192.362966 100.902671 
L 193.457729 100.902671 
L 193.457729 120.051718 
L 194.552491 120.051718 
L 194.552491 147.498685 
L 195.647254 147.498685 
L 195.647254 76.008909 
L 196.742016 76.008909 
L 196.742016 152.605098 
L 197.836779 152.605098 
L 197.836779 18.561768 
L 198.931542 18.561768 
L 198.931542 47.92364 
L 200.026304 47.92364 
L 200.026304 128.349638 
L 201.121067 128.349638 
L 201.121067 31.327799 
L 202.215829 31.327799 
L 202.215829 91.328147 
L 203.310592 91.328147 
L 203.310592 147.498685 
L 204.405354 147.498685 
L 204.405354 77.285512 
L 205.500117 77.285512 
L 205.500117 81.115322 
L 206.594879 81.115322 
L 206.594879 161.54132 
L 207.689642 161.54132 
L 207.689642 123.881527 
L 208.784404 123.881527 
L 208.784404 102.817575 
L 209.879167 102.817575 
L 209.879167 103.455877 
L 210.973929 103.455877 
L 210.973929 99.626067 
L 212.068692 99.626067 
L 212.068692 100.264369 
L 213.163454 100.264369 
L 213.163454 127.711337 
L 214.258217 127.711337 
L 214.258217 133.456051 
L 215.352979 133.456051 
L 215.352979 114.945305 
L 216.447742 114.945305 
L 216.447742 181.96697 
L 217.542505 181.96697 
L 217.542505 134.094352 
L 218.637267 134.094352 
L 218.637267 88.136639 
L 219.73203 88.136639 
L 219.73203 121.328321 
L 220.826792 121.328321 
L 220.826792 128.98794 
L 221.921555 128.98794 
L 221.921555 81.753623 
L 223.016317 81.753623 
L 223.016317 105.370782 
L 224.11108 105.370782 
L 224.11108 169.83924 
L 225.205842 169.83924 
L 225.205842 158.349812 
L 226.300605 158.349812 
L 226.300605 80.47702 
L 227.395367 80.47702 
L 227.395367 118.136813 
L 228.49013 118.136813 
L 228.49013 126.434733 
L 229.584892 126.434733 
L 229.584892 166.009431 
L 230.679655 166.009431 
L 230.679655 128.349638 
L 231.774417 128.349638 
L 231.774417 99.626067 
L 232.86918 99.626067 
L 232.86918 172.392446 
L 233.963942 172.392446 
L 233.963942 71.540798 
L 235.058705 71.540798 
L 235.058705 88.136639 
L 236.153468 88.136639 
L 236.153468 169.83924 
L 237.24823 169.83924 
L 237.24823 54.944957 
L 238.342993 54.944957 
L 238.342993 104.73248 
L 239.437755 104.73248 
L 239.437755 73.455703 
L 240.532518 73.455703 
L 240.532518 189.626589 
L 241.62728 189.626589 
L 241.62728 88.774941 
L 242.722043 88.774941 
L 242.722043 113.0304 
L 243.816805 113.0304 
L 243.816805 155.796606 
L 244.911568 155.796606 
L 244.911568 124.519829 
L 246.00633 124.519829 
L 246.00633 83.668528 
L 247.101093 83.668528 
L 247.101093 145.58378 
L 248.195855 145.58378 
L 248.195855 121.328321 
L 249.290618 121.328321 
L 249.290618 34.519307 
L 250.38538 34.519307 
L 250.38538 106.009083 
L 251.480143 106.009083 
L 251.480143 56.221561 
L 252.574906 56.221561 
L 252.574906 156.434907 
L 253.669668 156.434907 
L 253.669668 151.966796 
L 254.764431 151.966796 
L 254.764431 102.817575 
L 255.859193 102.817575 
L 255.859193 137.924162 
L 256.953956 137.924162 
L 256.953956 201.754319 
L 258.048718 201.754319 
L 258.048718 34.519307 
L 259.143481 34.519307 
L 259.143481 52.391751 
L 260.238243 52.391751 
L 260.238243 144.945479 
L 261.333006 144.945479 
L 261.333006 53.668354 
L 262.427768 53.668354 
L 262.427768 95.157956 
L 263.522531 95.157956 
L 263.522531 120.690019 
L 264.617293 120.690019 
L 264.617293 90.051544 
L 265.712056 90.051544 
L 265.712056 185.158478 
L 266.806818 185.158478 
L 266.806818 141.115669 
L 267.901581 141.115669 
L 267.901581 108.562289 
L 268.996343 108.562289 
L 268.996343 91.966449 
L 270.091106 91.966449 
L 270.091106 125.796432 
L 271.185869 125.796432 
L 271.185869 121.328321 
L 272.280631 121.328321 
L 272.280631 107.923988 
L 273.375394 107.923988 
L 273.375394 122.604924 
L 274.470156 122.604924 
L 274.470156 101.540972 
L 275.564919 101.540972 
L 275.564919 153.243399 
L 276.659681 153.243399 
L 276.659681 173.66905 
L 277.754444 173.66905 
L 277.754444 85.583433 
L 278.849206 85.583433 
L 278.849206 109.200591 
L 279.943969 109.200591 
L 279.943969 161.54132 
L 281.038731 161.54132 
L 281.038731 97.711163 
L 282.133494 97.711163 
L 282.133494 81.753623 
L 283.228256 81.753623 
L 283.228256 157.073209 
L 284.323019 157.073209 
L 284.323019 72.1791 
L 286.512544 72.1791 
L 286.512544 100.264369 
L 287.607306 100.264369 
L 287.607306 79.838719 
L 288.702069 79.838719 
L 288.702069 99.626067 
L 289.796832 99.626067 
L 289.796832 121.328321 
L 290.891594 121.328321 
L 290.891594 122.604924 
L 291.986357 122.604924 
L 291.986357 176.860557 
L 293.081119 176.860557 
L 293.081119 188.349986 
L 294.175882 188.349986 
L 294.175882 120.051718 
L 295.270644 120.051718 
L 295.270644 88.774941 
L 296.365407 88.774941 
L 296.365407 127.711337 
L 297.460169 127.711337 
L 297.460169 111.753797 
L 298.554932 111.753797 
L 298.554932 99.626067 
L 299.649694 99.626067 
L 299.649694 222.818271 
L 300.744457 222.818271 
L 300.744457 99.626067 
L 301.839219 99.626067 
L 301.839219 127.711337 
L 302.933982 127.711337 
L 302.933982 113.0304 
L 304.028744 113.0304 
L 304.028744 87.498338 
L 305.123507 87.498338 
L 305.123507 88.136639 
L 306.218269 88.136639 
L 306.218269 56.221561 
L 307.313032 56.221561 
L 307.313032 83.668528 
L 308.407795 83.668528 
L 308.407795 118.136813 
L 309.502557 118.136813 
L 309.502557 169.200939 
L 310.59732 169.200939 
L 310.59732 40.902323 
L 311.692082 40.902323 
L 311.692082 81.753623 
L 312.786845 81.753623 
L 312.786845 179.413764 
L 313.881607 179.413764 
L 313.881607 70.264195 
L 314.97637 70.264195 
L 314.97637 121.966622 
L 316.071132 121.966622 
L 316.071132 113.668702 
L 317.165895 113.668702 
L 317.165895 82.391925 
L 318.260657 82.391925 
L 318.260657 121.966622 
L 319.35542 121.966622 
L 319.35542 100.902671 
L 320.450182 100.902671 
L 320.450182 137.924162 
L 321.544945 137.924162 
L 321.544945 53.668354 
L 322.639707 53.668354 
L 322.639707 150.690193 
L 323.73447 150.690193 
L 323.73447 137.924162 
L 324.829233 137.924162 
L 324.829233 82.391925 
L 325.923995 82.391925 
L 325.923995 148.775288 
L 327.018758 148.775288 
L 327.018758 127.073035 
L 328.11352 127.073035 
L 328.11352 65.796084 
L 329.208283 65.796084 
L 329.208283 157.073209 
L 330.303045 157.073209 
L 330.303045 184.520176 
L 331.397808 184.520176 
L 331.397808 106.009083 
L 332.49257 106.009083 
L 332.49257 206.22243 
L 333.587333 206.22243 
L 333.587333 164.094526 
L 334.682095 164.094526 
L 334.682095 37.072513 
L 335.776858 37.072513 
L 335.776858 143.668876 
L 336.87162 143.668876 
L 336.87162 97.711163 
L 337.966383 97.711163 
L 337.966383 60.05137 
L 339.061145 60.05137 
L 339.061145 167.286034 
L 340.155908 167.286034 
L 340.155908 184.520176 
L 341.25067 184.520176 
L 341.25067 76.008909 
L 342.345433 76.008909 
L 342.345433 142.392273 
L 343.440196 142.392273 
L 343.440196 136.647558 
L 344.534958 136.647558 
L 344.534958 73.455703 
L 345.629721 73.455703 
L 345.629721 106.009083 
L 346.724483 106.009083 
L 346.724483 164.094526 
L 347.819246 164.094526 
L 347.819246 132.817749 
L 348.914008 132.817749 
L 348.914008 91.328147 
L 350.008771 91.328147 
L 350.008771 159.626415 
L 351.103533 159.626415 
L 351.103533 98.349464 
L 352.198296 98.349464 
L 352.198296 85.583433 
L 353.293058 85.583433 
L 353.293058 143.668876 
L 354.387821 143.668876 
L 354.387821 70.264195 
L 355.482583 70.264195 
L 355.482583 99.626067 
L 356.577346 99.626067 
L 356.577346 156.434907 
L 357.672108 156.434907 
L 357.672108 56.221561 
L 358.766871 56.221561 
L 358.766871 76.008909 
L 359.861633 76.008909 
L 359.861633 98.987766 
L 360.956396 98.987766 
L 360.956396 136.647558 
L 362.051159 136.647558 
L 362.051159 154.520002 
L 363.145921 154.520002 
L 363.145921 79.838719 
L 364.240684 79.838719 
L 364.240684 91.328147 
L 365.335446 91.328147 
L 365.335446 83.030227 
L 366.430209 83.030227 
L 366.430209 138.562463 
L 367.524971 138.562463 
L 367.524971 45.370434 
L 368.619734 45.370434 
L 368.619734 86.860036 
L 369.714496 86.860036 
L 369.714496 118.775115 
L 370.809259 118.775115 
L 370.809259 118.136813 
L 371.904021 118.136813 
L 371.904021 162.179621 
L 372.998784 162.179621 
L 372.998784 155.796606 
L 374.093546 155.796606 
L 374.093546 81.753623 
L 375.188309 81.753623 
L 375.188309 155.158304 
L 376.283071 155.158304 
L 376.283071 146.860384 
L 377.377834 146.860384 
L 377.377834 123.243226 
L 378.472596 123.243226 
L 378.472596 143.030574 
L 379.567359 143.030574 
L 379.567359 159.626415 
L 380.662122 159.626415 
L 380.662122 127.711337 
L 381.756884 127.711337 
L 381.756884 182.605272 
L 382.851647 182.605272 
L 382.851647 59.413068 
L 383.946409 59.413068 
L 383.946409 128.349638 
L 385.041172 128.349638 
L 385.041172 136.009257 
L 386.135934 136.009257 
L 386.135934 201.116017 
L 387.230697 201.116017 
L 387.230697 38.987418 
L 388.325459 38.987418 
L 388.325459 41.540624 
L 389.420222 41.540624 
L 389.420222 144.945479 
L 390.514984 144.945479 
L 390.514984 90.051544 
L 391.609747 90.051544 
L 391.609747 150.690193 
L 392.704509 150.690193 
L 392.704509 148.136987 
L 393.799272 148.136987 
L 393.799272 134.094352 
L 394.894034 134.094352 
L 394.894034 79.838719 
L 395.988797 79.838719 
L 395.988797 117.498511 
L 397.08356 117.498511 
L 397.08356 245.797127 
L 398.178322 245.797127 
L 398.178322 245.797127 
" clip-path="url(#p074e779366)" style="fill: none; stroke: #1f77b4; stroke-width: 1.5; stroke-linecap: square"/>
   </g>
   <g id="patch_3">
    <path d="M 53.328125 257.158895 
L 53.328125 7.2 
" style="fill: none; stroke: #000000; stroke-width: 0.8; stroke-linejoin: miter; stroke-linecap: square"/>
   </g>
   <g id="patch_4">
    <path d="M 414.59976 257.158895 
L 414.59976 7.2 
" style="fill: none; stroke: #000000; stroke-width: 0.8; stroke-linejoin: miter; stroke-linecap: square"/>
   </g>
   <g id="patch_5">
    <path d="M 53.328125 257.158895 
L 414.59976 257.158895 
" style="fill: none; stroke: #000000; stroke-width: 0.8; stroke-linejoin: miter; stroke-linecap: square"/>
   </g>
   <g id="patch_6">
    <path d="M 53.328125 7.2 
L 414.59976 7.2 
" style="fill: none; stroke: #000000; stroke-width: 0.8; stroke-linejoin: miter; stroke-linecap: square"/>
   </g>
  </g>
  <g id="axes_2">
   <g id="patch_7">
    <path d="M 503.927885 257.158895 
L 865.19952 257.158895 
L 865.19952 7.2 
L 503.927885 7.2 
z
" style="fill: #ffffff"/>
   </g>
   <g id="matplotlib.axis_3">
    <g id="xtick_10">
     <g id="line2d_19">
      <g>
       <use xlink:href="#m088029e24b" x="556.841332" y="257.158895" style="stroke: #000000; stroke-width: 0.8"/>
      </g>
     </g>
     <g id="text_20">
      <!-- 2 -->
      <g transform="translate(553.660082 271.757332) scale(0.1 -0.1)">
       <use xlink:href="#DejaVuSans-32"/>
      </g>
     </g>
    </g>
    <g id="xtick_11">
     <g id="line2d_20">
      <g>
       <use xlink:href="#m088029e24b" x="629.825658" y="257.158895" style="stroke: #000000; stroke-width: 0.8"/>
      </g>
     </g>
     <g id="text_21">
      <!-- 4 -->
      <g transform="translate(626.644408 271.757332) scale(0.1 -0.1)">
       <use xlink:href="#DejaVuSans-34"/>
      </g>
     </g>
    </g>
    <g id="xtick_12">
     <g id="line2d_21">
      <g>
       <use xlink:href="#m088029e24b" x="702.809985" y="257.158895" style="stroke: #000000; stroke-width: 0.8"/>
      </g>
     </g>
     <g id="text_22">
      <!-- 6 -->
      <g transform="translate(699.628735 271.757332) scale(0.1 -0.1)">
       <defs>
        <path id="DejaVuSans-36" d="M 2113 2584 
Q 1688 2584 1439 2293 
Q 1191 2003 1191 1497 
Q 1191 994 1439 701 
Q 1688 409 2113 409 
Q 2538 409 2786 701 
Q 3034 994 3034 1497 
Q 3034 2003 2786 2293 
Q 2538 2584 2113 2584 
z
M 3366 4563 
L 3366 3988 
Q 3128 4100 2886 4159 
Q 2644 4219 2406 4219 
Q 1781 4219 1451 3797 
Q 1122 3375 1075 2522 
Q 1259 2794 1537 2939 
Q 1816 3084 2150 3084 
Q 2853 3084 3261 2657 
Q 3669 2231 3669 1497 
Q 3669 778 3244 343 
Q 2819 -91 2113 -91 
Q 1303 -91 875 529 
Q 447 1150 447 2328 
Q 447 3434 972 4092 
Q 1497 4750 2381 4750 
Q 2619 4750 2861 4703 
Q 3103 4656 3366 4563 
z
" transform="scale(0.015625)"/>
       </defs>
       <use xlink:href="#DejaVuSans-36"/>
      </g>
     </g>
    </g>
    <g id="xtick_13">
     <g id="line2d_22">
      <g>
       <use xlink:href="#m088029e24b" x="775.794312" y="257.158895" style="stroke: #000000; stroke-width: 0.8"/>
      </g>
     </g>
     <g id="text_23">
      <!-- 8 -->
      <g transform="translate(772.613062 271.757332) scale(0.1 -0.1)">
       <defs>
        <path id="DejaVuSans-38" d="M 2034 2216 
Q 1584 2216 1326 1975 
Q 1069 1734 1069 1313 
Q 1069 891 1326 650 
Q 1584 409 2034 409 
Q 2484 409 2743 651 
Q 3003 894 3003 1313 
Q 3003 1734 2745 1975 
Q 2488 2216 2034 2216 
z
M 1403 2484 
Q 997 2584 770 2862 
Q 544 3141 544 3541 
Q 544 4100 942 4425 
Q 1341 4750 2034 4750 
Q 2731 4750 3128 4425 
Q 3525 4100 3525 3541 
Q 3525 3141 3298 2862 
Q 3072 2584 2669 2484 
Q 3125 2378 3379 2068 
Q 3634 1759 3634 1313 
Q 3634 634 3220 271 
Q 2806 -91 2034 -91 
Q 1263 -91 848 271 
Q 434 634 434 1313 
Q 434 1759 690 2068 
Q 947 2378 1403 2484 
z
M 1172 3481 
Q 1172 3119 1398 2916 
Q 1625 2713 2034 2713 
Q 2441 2713 2670 2916 
Q 2900 3119 2900 3481 
Q 2900 3844 2670 4047 
Q 2441 4250 2034 4250 
Q 1625 4250 1398 4047 
Q 1172 3844 1172 3481 
z
" transform="scale(0.015625)"/>
       </defs>
       <use xlink:href="#DejaVuSans-38"/>
      </g>
     </g>
    </g>
    <g id="xtick_14">
     <g id="line2d_23">
      <g>
       <use xlink:href="#m088029e24b" x="848.778638" y="257.158895" style="stroke: #000000; stroke-width: 0.8"/>
      </g>
     </g>
     <g id="text_24">
      <!-- 10 -->
      <g transform="translate(842.416138 271.757332) scale(0.1 -0.1)">
       <use xlink:href="#DejaVuSans-31"/>
       <use xlink:href="#DejaVuSans-30" transform="translate(63.623047 0)"/>
      </g>
     </g>
    </g>
    <g id="text_25">
     <!-- wavelength [Å] -->
     <g transform="translate(646.526202 287.119832) scale(0.1 -0.1)">
      <defs>
       <path id="DejaVuSans-77" d="M 269 3500 
L 844 3500 
L 1563 769 
L 2278 3500 
L 2956 3500 
L 3675 769 
L 4391 3500 
L 4966 3500 
L 4050 0 
L 3372 0 
L 2619 2869 
L 1863 0 
L 1184 0 
L 269 3500 
z
" transform="scale(0.015625)"/>
       <path id="DejaVuSans-61" d="M 2194 1759 
Q 1497 1759 1228 1600 
Q 959 1441 959 1056 
Q 959 750 1161 570 
Q 1363 391 1709 391 
Q 2188 391 2477 730 
Q 2766 1069 2766 1631 
L 2766 1759 
L 2194 1759 
z
M 3341 1997 
L 3341 0 
L 2766 0 
L 2766 531 
Q 2569 213 2275 61 
Q 1981 -91 1556 -91 
Q 1019 -91 701 211 
Q 384 513 384 1019 
Q 384 1609 779 1909 
Q 1175 2209 1959 2209 
L 2766 2209 
L 2766 2266 
Q 2766 2663 2505 2880 
Q 2244 3097 1772 3097 
Q 1472 3097 1187 3025 
Q 903 2953 641 2809 
L 641 3341 
Q 956 3463 1253 3523 
Q 1550 3584 1831 3584 
Q 2591 3584 2966 3190 
Q 3341 2797 3341 1997 
z
" transform="scale(0.015625)"/>
       <path id="DejaVuSans-76" d="M 191 3500 
L 800 3500 
L 1894 563 
L 2988 3500 
L 3597 3500 
L 2284 0 
L 1503 0 
L 191 3500 
z
" transform="scale(0.015625)"/>
       <path id="DejaVuSans-67" d="M 2906 1791 
Q 2906 2416 2648 2759 
Q 2391 3103 1925 3103 
Q 1463 3103 1205 2759 
Q 947 2416 947 1791 
Q 947 1169 1205 825 
Q 1463 481 1925 481 
Q 2391 481 2648 825 
Q 2906 1169 2906 1791 
z
M 3481 434 
Q 3481 -459 3084 -895 
Q 2688 -1331 1869 -1331 
Q 1566 -1331 1297 -1286 
Q 1028 -1241 775 -1147 
L 775 -588 
Q 1028 -725 1275 -790 
Q 1522 -856 1778 -856 
Q 2344 -856 2625 -561 
Q 2906 -266 2906 331 
L 2906 616 
Q 2728 306 2450 153 
Q 2172 0 1784 0 
Q 1141 0 747 490 
Q 353 981 353 1791 
Q 353 2603 747 3093 
Q 1141 3584 1784 3584 
Q 2172 3584 2450 3431 
Q 2728 3278 2906 2969 
L 2906 3500 
L 3481 3500 
L 3481 434 
z
" transform="scale(0.015625)"/>
       <path id="DejaVuSans-c5" d="M 2663 5081 
Q 2663 5278 2523 5417 
Q 2384 5556 2188 5556 
Q 1988 5556 1852 5420 
Q 1716 5284 1716 5081 
Q 1716 4884 1853 4746 
Q 1991 4609 2188 4609 
Q 2384 4609 2523 4746 
Q 2663 4884 2663 5081 
z
M 2188 4044 
L 1338 1722 
L 3041 1722 
L 2188 4044 
z
M 1716 4366 
Q 1525 4494 1428 4673 
Q 1331 4853 1331 5081 
Q 1331 5441 1579 5691 
Q 1828 5941 2188 5941 
Q 2544 5941 2795 5689 
Q 3047 5438 3047 5081 
Q 3047 4863 2948 4678 
Q 2850 4494 2663 4366 
L 4325 0 
L 3669 0 
L 3244 1197 
L 1141 1197 
L 716 0 
L 50 0 
L 1716 4366 
z
" transform="scale(0.015625)"/>
      </defs>
      <use xlink:href="#DejaVuSans-77"/>
      <use xlink:href="#DejaVuSans-61" transform="translate(81.787109 0)"/>
      <use xlink:href="#DejaVuSans-76" transform="translate(143.066406 0)"/>
      <use xlink:href="#DejaVuSans-65" transform="translate(202.246094 0)"/>
      <use xlink:href="#DejaVuSans-6c" transform="translate(263.769531 0)"/>
      <use xlink:href="#DejaVuSans-65" transform="translate(291.552734 0)"/>
      <use xlink:href="#DejaVuSans-6e" transform="translate(353.076172 0)"/>
      <use xlink:href="#DejaVuSans-67" transform="translate(416.455078 0)"/>
      <use xlink:href="#DejaVuSans-74" transform="translate(479.931641 0)"/>
      <use xlink:href="#DejaVuSans-68" transform="translate(519.140625 0)"/>
      <use xlink:href="#DejaVuSans-20" transform="translate(582.519531 0)"/>
      <use xlink:href="#DejaVuSans-5b" transform="translate(614.306641 0)"/>
      <use xlink:href="#DejaVuSans-c5" transform="translate(653.320312 0)"/>
      <use xlink:href="#DejaVuSans-5d" transform="translate(721.728516 0)"/>
     </g>
    </g>
   </g>
   <g id="matplotlib.axis_4">
    <g id="ytick_9">
     <g id="line2d_24">
      <g>
       <use xlink:href="#mfe4f985b96" x="503.927885" y="240.386761" style="stroke: #000000; stroke-width: 0.8"/>
      </g>
     </g>
     <g id="text_26">
      <!-- 3150 -->
      <g transform="translate(471.477885 244.18598) scale(0.1 -0.1)">
       <use xlink:href="#DejaVuSans-33"/>
       <use xlink:href="#DejaVuSans-31" transform="translate(63.623047 0)"/>
       <use xlink:href="#DejaVuSans-35" transform="translate(127.246094 0)"/>
       <use xlink:href="#DejaVuSans-30" transform="translate(190.869141 0)"/>
      </g>
     </g>
    </g>
    <g id="ytick_10">
     <g id="line2d_25">
      <g>
       <use xlink:href="#mfe4f985b96" x="503.927885" y="210.329174" style="stroke: #000000; stroke-width: 0.8"/>
      </g>
     </g>
     <g id="text_27">
      <!-- 3200 -->
      <g transform="translate(471.477885 214.128393) scale(0.1 -0.1)">
       <use xlink:href="#DejaVuSans-33"/>
       <use xlink:href="#DejaVuSans-32" transform="translate(63.623047 0)"/>
       <use xlink:href="#DejaVuSans-30" transform="translate(127.246094 0)"/>
       <use xlink:href="#DejaVuSans-30" transform="translate(190.869141 0)"/>
      </g>
     </g>
    </g>
    <g id="ytick_11">
     <g id="line2d_26">
      <g>
       <use xlink:href="#mfe4f985b96" x="503.927885" y="180.271587" style="stroke: #000000; stroke-width: 0.8"/>
      </g>
     </g>
     <g id="text_28">
      <!-- 3250 -->
      <g transform="translate(471.477885 184.070806) scale(0.1 -0.1)">
       <use xlink:href="#DejaVuSans-33"/>
       <use xlink:href="#DejaVuSans-32" transform="translate(63.623047 0)"/>
       <use xlink:href="#DejaVuSans-35" transform="translate(127.246094 0)"/>
       <use xlink:href="#DejaVuSans-30" transform="translate(190.869141 0)"/>
      </g>
     </g>
    </g>
    <g id="ytick_12">
     <g id="line2d_27">
      <g>
       <use xlink:href="#mfe4f985b96" x="503.927885" y="150.214" style="stroke: #000000; stroke-width: 0.8"/>
      </g>
     </g>
     <g id="text_29">
      <!-- 3300 -->
      <g transform="translate(471.477885 154.013219) scale(0.1 -0.1)">
       <use xlink:href="#DejaVuSans-33"/>
       <use xlink:href="#DejaVuSans-33" transform="translate(63.623047 0)"/>
       <use xlink:href="#DejaVuSans-30" transform="translate(127.246094 0)"/>
       <use xlink:href="#DejaVuSans-30" transform="translate(190.869141 0)"/>
      </g>
     </g>
    </g>
    <g id="ytick_13">
     <g id="line2d_28">
      <g>
       <use xlink:href="#mfe4f985b96" x="503.927885" y="120.156413" style="stroke: #000000; stroke-width: 0.8"/>
      </g>
     </g>
     <g id="text_30">
      <!-- 3350 -->
      <g transform="translate(471.477885 123.955631) scale(0.1 -0.1)">
       <use xlink:href="#DejaVuSans-33"/>
       <use xlink:href="#DejaVuSans-33" transform="translate(63.623047 0)"/>
       <use xlink:href="#DejaVuSans-35" transform="translate(127.246094 0)"/>
       <use xlink:href="#DejaVuSans-30" transform="translate(190.869141 0)"/>
      </g>
     </g>
    </g>
    <g id="ytick_14">
     <g id="line2d_29">
      <g>
       <use xlink:href="#mfe4f985b96" x="503.927885" y="90.098825" style="stroke: #000000; stroke-width: 0.8"/>
      </g>
     </g>
     <g id="text_31">
      <!-- 3400 -->
      <g transform="translate(471.477885 93.898044) scale(0.1 -0.1)">
       <use xlink:href="#DejaVuSans-33"/>
       <use xlink:href="#DejaVuSans-34" transform="translate(63.623047 0)"/>
       <use xlink:href="#DejaVuSans-30" transform="translate(127.246094 0)"/>
       <use xlink:href="#DejaVuSans-30" transform="translate(190.869141 0)"/>
      </g>
     </g>
    </g>
    <g id="ytick_15">
     <g id="line2d_30">
      <g>
       <use xlink:href="#mfe4f985b96" x="503.927885" y="60.041238" style="stroke: #000000; stroke-width: 0.8"/>
      </g>
     </g>
     <g id="text_32">
      <!-- 3450 -->
      <g transform="translate(471.477885 63.840457) scale(0.1 -0.1)">
       <use xlink:href="#DejaVuSans-33"/>
       <use xlink:href="#DejaVuSans-34" transform="translate(63.623047 0)"/>
       <use xlink:href="#DejaVuSans-35" transform="translate(127.246094 0)"/>
       <use xlink:href="#DejaVuSans-30" transform="translate(190.869141 0)"/>
      </g>
     </g>
    </g>
    <g id="ytick_16">
     <g id="line2d_31">
      <g>
       <use xlink:href="#mfe4f985b96" x="503.927885" y="29.983651" style="stroke: #000000; stroke-width: 0.8"/>
      </g>
     </g>
     <g id="text_33">
      <!-- 3500 -->
      <g transform="translate(471.477885 33.78287) scale(0.1 -0.1)">
       <use xlink:href="#DejaVuSans-33"/>
       <use xlink:href="#DejaVuSans-35" transform="translate(63.623047 0)"/>
       <use xlink:href="#DejaVuSans-30" transform="translate(127.246094 0)"/>
       <use xlink:href="#DejaVuSans-30" transform="translate(190.869141 0)"/>
      </g>
     </g>
    </g>
    <g id="text_34">
     <!-- pulse:0 [counts] -->
     <g transform="translate(465.398197 172.659916) rotate(-90) scale(0.1 -0.1)">
      <use xlink:href="#DejaVuSans-70"/>
      <use xlink:href="#DejaVuSans-75" transform="translate(63.476562 0)"/>
      <use xlink:href="#DejaVuSans-6c" transform="translate(126.855469 0)"/>
      <use xlink:href="#DejaVuSans-73" transform="translate(154.638672 0)"/>
      <use xlink:href="#DejaVuSans-65" transform="translate(206.738281 0)"/>
      <use xlink:href="#DejaVuSans-3a" transform="translate(268.261719 0)"/>
      <use xlink:href="#DejaVuSans-30" transform="translate(301.953125 0)"/>
      <use xlink:href="#DejaVuSans-20" transform="translate(365.576172 0)"/>
      <use xlink:href="#DejaVuSans-5b" transform="translate(397.363281 0)"/>
      <use xlink:href="#DejaVuSans-63" transform="translate(436.376953 0)"/>
      <use xlink:href="#DejaVuSans-6f" transform="translate(491.357422 0)"/>
      <use xlink:href="#DejaVuSans-75" transform="translate(552.539062 0)"/>
      <use xlink:href="#DejaVuSans-6e" transform="translate(615.917969 0)"/>
      <use xlink:href="#DejaVuSans-74" transform="translate(679.296875 0)"/>
      <use xlink:href="#DejaVuSans-73" transform="translate(718.505859 0)"/>
      <use xlink:href="#DejaVuSans-5d" transform="translate(770.605469 0)"/>
     </g>
    </g>
   </g>
   <g id="line2d_32">
    <path d="M 520.349323 227.161423 
L 521.444085 227.161423 
L 521.444085 161.635883 
L 522.538848 161.635883 
L 522.538848 80.480398 
L 523.633611 80.480398 
L 523.633611 191.69347 
L 524.728373 191.69347 
L 524.728373 118.352957 
L 525.823136 118.352957 
L 525.823136 101.520709 
L 526.917898 101.520709 
L 526.917898 94.306888 
L 528.012661 94.306888 
L 528.012661 143.000179 
L 529.107423 143.000179 
L 529.107423 146.005938 
L 530.202186 146.005938 
L 530.202186 65.451604 
L 531.296948 65.451604 
L 531.296948 178.468132 
L 532.391711 178.468132 
L 532.391711 99.116102 
L 533.486473 99.116102 
L 533.486473 156.225517 
L 534.581236 156.225517 
L 534.581236 150.815152 
L 535.675998 150.815152 
L 535.675998 65.451604 
L 536.770761 65.451604 
L 536.770761 111.139136 
L 537.865523 111.139136 
L 537.865523 164.04049 
L 538.960286 164.04049 
L 538.960286 136.38751 
L 540.055048 136.38751 
L 540.055048 109.335681 
L 541.149811 109.335681 
L 541.149811 162.237035 
L 542.244574 162.237035 
L 542.244574 215.73954 
L 543.339336 215.73954 
L 543.339336 45.012445 
L 544.434099 45.012445 
L 544.434099 146.607089 
L 545.528861 146.607089 
L 545.528861 97.913798 
L 546.623624 97.913798 
L 546.623624 94.306888 
L 547.718386 94.306888 
L 547.718386 176.664677 
L 548.813149 176.664677 
L 548.813149 99.116102 
L 549.907911 99.116102 
L 549.907911 88.896522 
L 551.002674 88.896522 
L 551.002674 125.566778 
L 552.097436 125.566778 
L 552.097436 157.427821 
L 553.192199 157.427821 
L 553.192199 167.6474 
L 554.286961 167.6474 
L 554.286961 151.416303 
L 555.381724 151.416303 
L 555.381724 131.578296 
L 556.476486 131.578296 
L 556.476486 69.659666 
L 557.571249 69.659666 
L 557.571249 155.624366 
L 558.666012 155.624366 
L 558.666012 114.144895 
L 559.760774 114.144895 
L 559.760774 139.99442 
L 560.855537 139.99442 
L 560.855537 132.780599 
L 561.950299 132.780599 
L 561.950299 135.185206 
L 563.045062 135.185206 
L 563.045062 131.578296 
L 564.139824 131.578296 
L 564.139824 55.833176 
L 565.234587 55.833176 
L 565.234587 106.931074 
L 566.329349 106.931074 
L 566.329349 151.416303 
L 567.424112 151.416303 
L 567.424112 146.607089 
L 568.518874 146.607089 
L 568.518874 129.173689 
L 569.613637 129.173689 
L 569.613637 170.052007 
L 570.708399 170.052007 
L 570.708399 105.127619 
L 571.803162 105.127619 
L 571.803162 186.283104 
L 572.897924 186.283104 
L 572.897924 64.2493 
L 573.992687 64.2493 
L 573.992687 137.589813 
L 575.087449 137.589813 
L 575.087449 99.116102 
L 576.182212 99.116102 
L 576.182212 92.503432 
L 577.276975 92.503432 
L 577.276975 143.601331 
L 578.371737 143.601331 
L 578.371737 64.2493 
L 579.4665 64.2493 
L 579.4665 18.561768 
L 580.561262 18.561768 
L 580.561262 158.028972 
L 581.656025 158.028972 
L 581.656025 107.532226 
L 582.750787 107.532226 
L 582.750787 100.919557 
L 583.84555 100.919557 
L 583.84555 143.601331 
L 584.940312 143.601331 
L 584.940312 147.809393 
L 586.035075 147.809393 
L 586.035075 73.266577 
L 587.129837 73.266577 
L 587.129837 135.786358 
L 588.2246 135.786358 
L 588.2246 191.69347 
L 589.319362 191.69347 
L 589.319362 87.093067 
L 590.414125 87.093067 
L 590.414125 73.266577 
L 591.508887 73.266577 
L 591.508887 105.728771 
L 592.60365 105.728771 
L 592.60365 111.139136 
L 593.698412 111.139136 
L 593.698412 129.173689 
L 594.793175 129.173689 
L 594.793175 118.954109 
L 595.887938 118.954109 
L 595.887938 221.149906 
L 596.9827 221.149906 
L 596.9827 77.474639 
L 598.077463 77.474639 
L 598.077463 160.433579 
L 599.172225 160.433579 
L 599.172225 124.364475 
L 600.266988 124.364475 
L 600.266988 154.422062 
L 601.36175 154.422062 
L 601.36175 176.063525 
L 602.456513 176.063525 
L 602.456513 58.237783 
L 603.551275 58.237783 
L 603.551275 130.375992 
L 604.646038 130.375992 
L 604.646038 188.687711 
L 605.7408 188.687711 
L 605.7408 64.2493 
L 606.835563 64.2493 
L 606.835563 137.589813 
L 607.930325 137.589813 
L 607.930325 164.641642 
L 609.025088 164.641642 
L 609.025088 119.555261 
L 610.11985 119.555261 
L 610.11985 169.450856 
L 611.214613 169.450856 
L 611.214613 118.954109 
L 612.309375 118.954109 
L 612.309375 127.971385 
L 613.404138 127.971385 
L 613.404138 182.676194 
L 614.498901 182.676194 
L 614.498901 90.098825 
L 615.593663 90.098825 
L 615.593663 116.549502 
L 616.688426 116.549502 
L 616.688426 155.023214 
L 617.783188 155.023214 
L 617.783188 116.549502 
L 618.877951 116.549502 
L 618.877951 45.613596 
L 619.972713 45.613596 
L 619.972713 135.185206 
L 621.067476 135.185206 
L 621.067476 203.716505 
L 622.162238 203.716505 
L 622.162238 152.618607 
L 623.257001 152.618607 
L 623.257001 161.635883 
L 624.351763 161.635883 
L 624.351763 156.826669 
L 625.446526 156.826669 
L 625.446526 105.127619 
L 626.541288 105.127619 
L 626.541288 161.034731 
L 627.636051 161.034731 
L 627.636051 115.347199 
L 628.730813 115.347199 
L 628.730813 139.393268 
L 629.825576 139.393268 
L 629.825576 104.526467 
L 630.920339 104.526467 
L 630.920339 141.196724 
L 632.015101 141.196724 
L 632.015101 188.08656 
L 633.109864 188.08656 
L 633.109864 120.757564 
L 634.204626 120.757564 
L 634.204626 185.681953 
L 635.299389 185.681953 
L 635.299389 111.139136 
L 636.394151 111.139136 
L 636.394151 125.566778 
L 637.488914 125.566778 
L 637.488914 146.607089 
L 638.583676 146.607089 
L 638.583676 133.982903 
L 639.678439 133.982903 
L 639.678439 135.185206 
L 640.773201 135.185206 
L 640.773201 91.301129 
L 641.867964 91.301129 
L 641.867964 80.480398 
L 642.962726 80.480398 
L 642.962726 131.578296 
L 644.057489 131.578296 
L 644.057489 141.797875 
L 645.152251 141.797875 
L 645.152251 146.005938 
L 646.247014 146.005938 
L 646.247014 50.42281 
L 647.341776 50.42281 
L 647.341776 129.173689 
L 648.436539 129.173689 
L 648.436539 177.265828 
L 649.531302 177.265828 
L 649.531302 177.86698 
L 650.626064 177.86698 
L 650.626064 134.584054 
L 651.720827 134.584054 
L 651.720827 81.682701 
L 652.815589 81.682701 
L 652.815589 45.012445 
L 653.910352 45.012445 
L 653.910352 171.254311 
L 655.005114 171.254311 
L 655.005114 71.463121 
L 656.099877 71.463121 
L 656.099877 141.196724 
L 657.194639 141.196724 
L 657.194639 169.450856 
L 658.289402 169.450856 
L 658.289402 111.740288 
L 659.384164 111.740288 
L 659.384164 106.931074 
L 660.478927 106.931074 
L 660.478927 66.653907 
L 661.573689 66.653907 
L 661.573689 138.190965 
L 662.668452 138.190965 
L 662.668452 126.769082 
L 663.763214 126.769082 
L 663.763214 97.312646 
L 664.857977 97.312646 
L 664.857977 129.173689 
L 665.952739 129.173689 
L 665.952739 110.537985 
L 667.047502 110.537985 
L 667.047502 127.971385 
L 668.142265 127.971385 
L 668.142265 108.133378 
L 669.237027 108.133378 
L 669.237027 172.456614 
L 670.33179 172.456614 
L 670.33179 185.080801 
L 671.426552 185.080801 
L 671.426552 140.595572 
L 672.521315 140.595572 
L 672.521315 139.99442 
L 673.616077 139.99442 
L 673.616077 185.080801 
L 674.71084 185.080801 
L 674.71084 174.861221 
L 675.805602 174.861221 
L 675.805602 136.38751 
L 676.900365 136.38751 
L 676.900365 118.352957 
L 677.995127 118.352957 
L 677.995127 129.173689 
L 679.08989 129.173689 
L 679.08989 144.803634 
L 680.184652 144.803634 
L 680.184652 158.028972 
L 681.279415 158.028972 
L 681.279415 129.173689 
L 682.374177 129.173689 
L 682.374177 69.058514 
L 683.46894 69.058514 
L 683.46894 245.797127 
L 684.563702 245.797127 
L 684.563702 152.017455 
L 685.658465 152.017455 
L 685.658465 149.612848 
L 686.753228 149.612848 
L 686.753228 198.907291 
L 687.84799 198.907291 
L 687.84799 131.578296 
L 688.942753 131.578296 
L 688.942753 98.51495 
L 690.037515 98.51495 
L 690.037515 167.6474 
L 691.132278 167.6474 
L 691.132278 136.988661 
L 692.22704 136.988661 
L 692.22704 138.792117 
L 693.321803 138.792117 
L 693.321803 114.144895 
L 694.416565 114.144895 
L 694.416565 102.12186 
L 695.511328 102.12186 
L 695.511328 119.555261 
L 696.60609 119.555261 
L 696.60609 120.156413 
L 697.700853 120.156413 
L 697.700853 219.947602 
L 698.795615 219.947602 
L 698.795615 79.879246 
L 699.890378 79.879246 
L 699.890378 149.011696 
L 700.98514 149.011696 
L 700.98514 166.445097 
L 702.079903 166.445097 
L 702.079903 80.480398 
L 703.174666 80.480398 
L 703.174666 151.416303 
L 704.269428 151.416303 
L 704.269428 109.936833 
L 705.364191 109.936833 
L 705.364191 63.648149 
L 706.458953 63.648149 
L 706.458953 135.185206 
L 707.553716 135.185206 
L 707.553716 137.589813 
L 708.648478 137.589813 
L 708.648478 127.370234 
L 709.743241 127.370234 
L 709.743241 126.16793 
L 710.838003 126.16793 
L 710.838003 187.485408 
L 711.932766 187.485408 
L 711.932766 105.127619 
L 713.027528 105.127619 
L 713.027528 155.624366 
L 714.122291 155.624366 
L 714.122291 150.214 
L 715.217053 150.214 
L 715.217053 97.913798 
L 716.311816 97.913798 
L 716.311816 132.179447 
L 717.406578 132.179447 
L 717.406578 112.34144 
L 718.501341 112.34144 
L 718.501341 136.38751 
L 719.596103 136.38751 
L 719.596103 143.601331 
L 720.690866 143.601331 
L 720.690866 61.243542 
L 721.785629 61.243542 
L 721.785629 123.763323 
L 722.880391 123.763323 
L 722.880391 122.56102 
L 723.975154 122.56102 
L 723.975154 117.150654 
L 726.164679 117.150654 
L 726.164679 34.792865 
L 727.259441 34.792865 
L 727.259441 153.219759 
L 728.354204 153.219759 
L 728.354204 201.311898 
L 729.448966 201.311898 
L 729.448966 103.925316 
L 730.543729 103.925316 
L 730.543729 189.288863 
L 731.638491 189.288863 
L 731.638491 124.364475 
L 732.733254 124.364475 
L 732.733254 143.000179 
L 733.828016 143.000179 
L 733.828016 133.982903 
L 734.922779 133.982903 
L 734.922779 75.070032 
L 736.017541 75.070032 
L 736.017541 102.12186 
L 737.112304 102.12186 
L 737.112304 136.988661 
L 738.207066 136.988661 
L 738.207066 162.237035 
L 739.301829 162.237035 
L 739.301829 91.301129 
L 740.396592 91.301129 
L 740.396592 120.757564 
L 741.491354 120.757564 
L 741.491354 132.780599 
L 742.586117 132.780599 
L 742.586117 132.179447 
L 743.680879 132.179447 
L 743.680879 174.26007 
L 745.870404 174.26007 
L 745.870404 79.278094 
L 746.965167 79.278094 
L 746.965167 124.965627 
L 748.059929 124.965627 
L 748.059929 134.584054 
L 749.154692 134.584054 
L 749.154692 139.99442 
L 750.249454 139.99442 
L 750.249454 138.792117 
L 751.344217 138.792117 
L 751.344217 102.12186 
L 752.438979 102.12186 
L 752.438979 135.786358 
L 753.533742 135.786358 
L 753.533742 173.057766 
L 754.628504 173.057766 
L 754.628504 186.283104 
L 755.723267 186.283104 
L 755.723267 38.399775 
L 756.818029 38.399775 
L 756.818029 129.173689 
L 757.912792 129.173689 
L 757.912792 93.104584 
L 759.007555 93.104584 
L 759.007555 100.318405 
L 760.102317 100.318405 
L 760.102317 96.110343 
L 761.19708 96.110343 
L 761.19708 146.005938 
L 762.291842 146.005938 
L 762.291842 102.12186 
L 763.386605 102.12186 
L 763.386605 151.416303 
L 764.481367 151.416303 
L 764.481367 75.070032 
L 765.57613 75.070032 
L 765.57613 107.532226 
L 766.670892 107.532226 
L 766.670892 156.826669 
L 767.765655 156.826669 
L 767.765655 152.017455 
L 768.860417 152.017455 
L 768.860417 135.185206 
L 769.95518 135.185206 
L 769.95518 172.456614 
L 771.049942 172.456614 
L 771.049942 138.792117 
L 772.144705 138.792117 
L 772.144705 112.942592 
L 773.239467 112.942592 
L 773.239467 189.890015 
L 774.33423 189.890015 
L 774.33423 142.399027 
L 775.428993 142.399027 
L 775.428993 111.740288 
L 776.523755 111.740288 
L 776.523755 143.000179 
L 777.618518 143.000179 
L 777.618518 168.849704 
L 778.71328 168.849704 
L 778.71328 112.34144 
L 779.808043 112.34144 
L 779.808043 170.653159 
L 780.902805 170.653159 
L 780.902805 105.127619 
L 781.997568 105.127619 
L 781.997568 51.023962 
L 783.09233 51.023962 
L 783.09233 145.404786 
L 784.187093 145.404786 
L 784.187093 133.381751 
L 785.281855 133.381751 
L 785.281855 136.38751 
L 786.376618 136.38751 
L 786.376618 132.780599 
L 787.47138 132.780599 
L 787.47138 137.589813 
L 788.566143 137.589813 
L 788.566143 102.723012 
L 789.660905 102.723012 
L 789.660905 118.954109 
L 790.755668 118.954109 
L 790.755668 88.896522 
L 791.85043 88.896522 
L 791.85043 180.872739 
L 792.945193 180.872739 
L 792.945193 144.202482 
L 794.039956 144.202482 
L 794.039956 121.358716 
L 795.134718 121.358716 
L 795.134718 105.127619 
L 796.229481 105.127619 
L 796.229481 140.595572 
L 797.324243 140.595572 
L 797.324243 164.04049 
L 798.419006 164.04049 
L 798.419006 125.566778 
L 799.513768 125.566778 
L 799.513768 168.248552 
L 800.608531 168.248552 
L 800.608531 96.110343 
L 801.703293 96.110343 
L 801.703293 52.226266 
L 802.798056 52.226266 
L 802.798056 198.907291 
L 803.892818 198.907291 
L 803.892818 136.988661 
L 804.987581 136.988661 
L 804.987581 112.34144 
L 806.082343 112.34144 
L 806.082343 130.375992 
L 807.177106 130.375992 
L 807.177106 158.028972 
L 808.271868 158.028972 
L 808.271868 134.584054 
L 809.366631 134.584054 
L 809.366631 156.826669 
L 810.461393 156.826669 
L 810.461393 164.04049 
L 811.556156 164.04049 
L 811.556156 61.844693 
L 812.650919 61.844693 
L 812.650919 183.878497 
L 813.745681 183.878497 
L 813.745681 207.323415 
L 814.840444 207.323415 
L 814.840444 133.982903 
L 815.935206 133.982903 
L 815.935206 184.479649 
L 817.029969 184.479649 
L 817.029969 191.69347 
L 818.124731 191.69347 
L 818.124731 88.896522 
L 819.219494 88.896522 
L 819.219494 112.942592 
L 820.314256 112.942592 
L 820.314256 132.780599 
L 821.409019 132.780599 
L 821.409019 130.977144 
L 822.503781 130.977144 
L 822.503781 154.422062 
L 823.598544 154.422062 
L 823.598544 114.144895 
L 824.693306 114.144895 
L 824.693306 35.995169 
L 825.788069 35.995169 
L 825.788069 149.011696 
L 826.882831 149.011696 
L 826.882831 188.687711 
L 827.977594 188.687711 
L 827.977594 117.150654 
L 829.072356 117.150654 
L 829.072356 117.751806 
L 830.167119 117.751806 
L 830.167119 159.231276 
L 831.261882 159.231276 
L 831.261882 86.491915 
L 832.356644 86.491915 
L 832.356644 79.879246 
L 833.451407 79.879246 
L 833.451407 177.86698 
L 834.546169 177.86698 
L 834.546169 104.526467 
L 835.640932 104.526467 
L 835.640932 117.150654 
L 836.735694 117.150654 
L 836.735694 161.635883 
L 837.830457 161.635883 
L 837.830457 36.59632 
L 838.925219 36.59632 
L 838.925219 101.520709 
L 840.019982 101.520709 
L 840.019982 210.930326 
L 841.114744 210.930326 
L 841.114744 152.618607 
L 842.209507 152.618607 
L 842.209507 88.29537 
L 843.304269 88.29537 
L 843.304269 141.797875 
L 844.399032 141.797875 
L 844.399032 111.139136 
L 845.493794 111.139136 
L 845.493794 102.723012 
L 846.588557 102.723012 
L 846.588557 170.653159 
L 847.68332 170.653159 
L 847.68332 202.514202 
L 848.778082 202.514202 
L 848.778082 202.514202 
" clip-path="url(#pe8b362a4e1)" style="fill: none; stroke: #1f77b4; stroke-width: 1.5; stroke-linecap: square"/>
   </g>
   <g id="patch_8">
    <path d="M 503.927885 257.158895 
L 503.927885 7.2 
" style="fill: none; stroke: #000000; stroke-width: 0.8; stroke-linejoin: miter; stroke-linecap: square"/>
   </g>
   <g id="patch_9">
    <path d="M 865.19952 257.158895 
L 865.19952 7.2 
" style="fill: none; stroke: #000000; stroke-width: 0.8; stroke-linejoin: miter; stroke-linecap: square"/>
   </g>
   <g id="patch_10">
    <path d="M 503.927885 257.158895 
L 865.19952 257.158895 
" style="fill: none; stroke: #000000; stroke-width: 0.8; stroke-linejoin: miter; stroke-linecap: square"/>
   </g>
   <g id="patch_11">
    <path d="M 503.927885 7.2 
L 865.19952 7.2 
" style="fill: none; stroke: #000000; stroke-width: 0.8; stroke-linejoin: miter; stroke-linecap: square"/>
   </g>
  </g>
 </g>
 <defs>
  <clipPath id="p074e779366">
   <rect x="53.328125" y="7.2" width="361.271635" height="249.958895"/>
  </clipPath>
  <clipPath id="pe8b362a4e1">
   <rect x="503.927885" y="7.2" width="361.271635" height="249.958895"/>
  </clipPath>
 </defs>
</svg>
