<?xml version="1.0" encoding="utf-8" standalone="no"?>
<!DOCTYPE svg PUBLIC "-//W3C//DTD SVG 1.1//EN"
  "http://www.w3.org/Graphics/SVG/1.1/DTD/svg11.dtd">
<svg xmlns:xlink="http://www.w3.org/1999/xlink" width="872.39952pt" height="296.39952pt" viewBox="0 0 872.39952 296.39952" xmlns="http://www.w3.org/2000/svg" version="1.1">
 <metadata>
  <rdf:RDF xmlns:dc="http://purl.org/dc/elements/1.1/" xmlns:cc="http://creativecommons.org/ns#" xmlns:rdf="http://www.w3.org/1999/02/22-rdf-syntax-ns#">
   <cc:Work>
    <dc:type rdf:resource="http://purl.org/dc/dcmitype/StillImage"/>
    <dc:date>2025-11-19T10:11:28.946827</dc:date>
    <dc:format>image/svg+xml</dc:format>
    <dc:creator>
     <cc:Agent>
      <dc:title>Matplotlib v3.10.7, https://matplotlib.org/</dc:title>
     </cc:Agent>
    </dc:creator>
   </cc:Work>
  </rdf:RDF>
 </metadata>
 <defs>
  <style type="text/css">*{stroke-linejoin: round; stroke-linecap: butt}</style>
 </defs>
 <g id="figure_1">
  <g id="patch_1">
   <path d="M 0 296.39952 
L 872.39952 296.39952 
L 872.39952 0 
L 0 0 
z
" style="fill: #ffffff"/>
  </g>
  <g id="axes_1">
   <g id="patch_2">
    <path d="M 53.328125 257.158895 
L 411.41851 257.158895 
L 411.41851 7.2 
L 53.328125 7.2 
z
" style="fill: #ffffff"/>
   </g>
   <g id="matplotlib.axis_1">
    <g id="xtick_1">
     <g id="line2d_1">
      <defs>
       <path id="m793135e7c4" d="M 0 0 
L 0 3.5 
" style="stroke: #000000; stroke-width: 0.8"/>
      </defs>
      <g>
       <use xlink:href="#m793135e7c4" x="68.781897" y="257.158895" style="stroke: #000000; stroke-width: 0.8"/>
      </g>
     </g>
     <g id="text_1">
      <!-- 0 -->
      <g transform="translate(65.600647 271.757332) scale(0.1 -0.1)">
       <defs>
        <path id="DejaVuSans-30" d="M 2034 4250 
Q 1547 4250 1301 3770 
Q 1056 3291 1056 2328 
Q 1056 1369 1301 889 
Q 1547 409 2034 409 
Q 2525 409 2770 889 
Q 3016 1369 3016 2328 
Q 3016 3291 2770 3770 
Q 2525 4250 2034 4250 
z
M 2034 4750 
Q 2819 4750 3233 4129 
Q 3647 3509 3647 2328 
Q 3647 1150 3233 529 
Q 2819 -91 2034 -91 
Q 1250 -91 836 529 
Q 422 1150 422 2328 
Q 422 3509 836 4129 
Q 1250 4750 2034 4750 
z
" transform="scale(0.015625)"/>
       </defs>
       <use xlink:href="#DejaVuSans-30"/>
      </g>
     </g>
    </g>
    <g id="xtick_2">
     <g id="line2d_2">
      <g>
       <use xlink:href="#m793135e7c4" x="134.228076" y="257.158895" style="stroke: #000000; stroke-width: 0.8"/>
      </g>
     </g>
     <g id="text_2">
      <!-- 1000 -->
      <g transform="translate(121.503076 271.757332) scale(0.1 -0.1)">
       <defs>
        <path id="DejaVuSans-31" d="M 794 531 
L 1825 531 
L 1825 4091 
L 703 3866 
L 703 4441 
L 1819 4666 
L 2450 4666 
L 2450 531 
L 3481 531 
L 3481 0 
L 794 0 
L 794 531 
z
" transform="scale(0.015625)"/>
       </defs>
       <use xlink:href="#DejaVuSans-31"/>
       <use xlink:href="#DejaVuSans-30" transform="translate(63.623047 0)"/>
       <use xlink:href="#DejaVuSans-30" transform="translate(127.246094 0)"/>
       <use xlink:href="#DejaVuSans-30" transform="translate(190.869141 0)"/>
      </g>
     </g>
    </g>
    <g id="xtick_3">
     <g id="line2d_3">
      <g>
       <use xlink:href="#m793135e7c4" x="199.674254" y="257.158895" style="stroke: #000000; stroke-width: 0.8"/>
      </g>
     </g>
     <g id="text_3">
      <!-- 2000 -->
      <g transform="translate(186.949254 271.757332) scale(0.1 -0.1)">
       <defs>
        <path id="DejaVuSans-32" d="M 1228 531 
L 3431 531 
L 3431 0 
L 469 0 
L 469 531 
Q 828 903 1448 1529 
Q 2069 2156 2228 2338 
Q 2531 2678 2651 2914 
Q 2772 3150 2772 3378 
Q 2772 3750 2511 3984 
Q 2250 4219 1831 4219 
Q 1534 4219 1204 4116 
Q 875 4013 500 3803 
L 500 4441 
Q 881 4594 1212 4672 
Q 1544 4750 1819 4750 
Q 2544 4750 2975 4387 
Q 3406 4025 3406 3419 
Q 3406 3131 3298 2873 
Q 3191 2616 2906 2266 
Q 2828 2175 2409 1742 
Q 1991 1309 1228 531 
z
" transform="scale(0.015625)"/>
       </defs>
       <use xlink:href="#DejaVuSans-32"/>
       <use xlink:href="#DejaVuSans-30" transform="translate(63.623047 0)"/>
       <use xlink:href="#DejaVuSans-30" transform="translate(127.246094 0)"/>
       <use xlink:href="#DejaVuSans-30" transform="translate(190.869141 0)"/>
      </g>
     </g>
    </g>
    <g id="xtick_4">
     <g id="line2d_4">
      <g>
       <use xlink:href="#m793135e7c4" x="265.120433" y="257.158895" style="stroke: #000000; stroke-width: 0.8"/>
      </g>
     </g>
     <g id="text_4">
      <!-- 3000 -->
      <g transform="translate(252.395433 271.757332) scale(0.1 -0.1)">
       <defs>
        <path id="DejaVuSans-33" d="M 2597 2516 
Q 3050 2419 3304 2112 
Q 3559 1806 3559 1356 
Q 3559 666 3084 287 
Q 2609 -91 1734 -91 
Q 1441 -91 1130 -33 
Q 819 25 488 141 
L 488 750 
Q 750 597 1062 519 
Q 1375 441 1716 441 
Q 2309 441 2620 675 
Q 2931 909 2931 1356 
Q 2931 1769 2642 2001 
Q 2353 2234 1838 2234 
L 1294 2234 
L 1294 2753 
L 1863 2753 
Q 2328 2753 2575 2939 
Q 2822 3125 2822 3475 
Q 2822 3834 2567 4026 
Q 2313 4219 1838 4219 
Q 1578 4219 1281 4162 
Q 984 4106 628 3988 
L 628 4550 
Q 988 4650 1302 4700 
Q 1616 4750 1894 4750 
Q 2613 4750 3031 4423 
Q 3450 4097 3450 3541 
Q 3450 3153 3228 2886 
Q 3006 2619 2597 2516 
z
" transform="scale(0.015625)"/>
       </defs>
       <use xlink:href="#DejaVuSans-33"/>
       <use xlink:href="#DejaVuSans-30" transform="translate(63.623047 0)"/>
       <use xlink:href="#DejaVuSans-30" transform="translate(127.246094 0)"/>
       <use xlink:href="#DejaVuSans-30" transform="translate(190.869141 0)"/>
      </g>
     </g>
    </g>
    <g id="xtick_5">
     <g id="line2d_5">
      <g>
       <use xlink:href="#m793135e7c4" x="330.566611" y="257.158895" style="stroke: #000000; stroke-width: 0.8"/>
      </g>
     </g>
     <g id="text_5">
      <!-- 4000 -->
      <g transform="translate(317.841611 271.757332) scale(0.1 -0.1)">
       <defs>
        <path id="DejaVuSans-34" d="M 2419 4116 
L 825 1625 
L 2419 1625 
L 2419 4116 
z
M 2253 4666 
L 3047 4666 
L 3047 1625 
L 3713 1625 
L 3713 1100 
L 3047 1100 
L 3047 0 
L 2419 0 
L 2419 1100 
L 313 1100 
L 313 1709 
L 2253 4666 
z
" transform="scale(0.015625)"/>
       </defs>
       <use xlink:href="#DejaVuSans-34"/>
       <use xlink:href="#DejaVuSans-30" transform="translate(63.623047 0)"/>
       <use xlink:href="#DejaVuSans-30" transform="translate(127.246094 0)"/>
       <use xlink:href="#DejaVuSans-30" transform="translate(190.869141 0)"/>
      </g>
     </g>
    </g>
    <g id="xtick_6">
     <g id="line2d_6">
      <g>
       <use xlink:href="#m793135e7c4" x="396.01279" y="257.158895" style="stroke: #000000; stroke-width: 0.8"/>
      </g>
     </g>
     <g id="text_6">
      <!-- 5000 -->
      <g transform="translate(383.28779 271.757332) scale(0.1 -0.1)">
       <defs>
        <path id="DejaVuSans-35" d="M 691 4666 
L 3169 4666 
L 3169 4134 
L 1269 4134 
L 1269 2991 
Q 1406 3038 1543 3061 
Q 1681 3084 1819 3084 
Q 2600 3084 3056 2656 
Q 3513 2228 3513 1497 
Q 3513 744 3044 326 
Q 2575 -91 1722 -91 
Q 1428 -91 1123 -41 
Q 819 9 494 109 
L 494 744 
Q 775 591 1075 516 
Q 1375 441 1709 441 
Q 2250 441 2565 725 
Q 2881 1009 2881 1497 
Q 2881 1984 2565 2268 
Q 2250 2553 1709 2553 
Q 1456 2553 1204 2497 
Q 953 2441 691 2322 
L 691 4666 
z
" transform="scale(0.015625)"/>
       </defs>
       <use xlink:href="#DejaVuSans-35"/>
       <use xlink:href="#DejaVuSans-30" transform="translate(63.623047 0)"/>
       <use xlink:href="#DejaVuSans-30" transform="translate(127.246094 0)"/>
       <use xlink:href="#DejaVuSans-30" transform="translate(190.869141 0)"/>
      </g>
     </g>
    </g>
    <g id="text_7">
     <!-- birth_time [µs] -->
     <g transform="translate(195.553005 285.435457) scale(0.1 -0.1)">
      <defs>
       <path id="DejaVuSans-62" d="M 3116 1747 
Q 3116 2381 2855 2742 
Q 2594 3103 2138 3103 
Q 1681 3103 1420 2742 
Q 1159 2381 1159 1747 
Q 1159 1113 1420 752 
Q 1681 391 2138 391 
Q 2594 391 2855 752 
Q 3116 1113 3116 1747 
z
M 1159 2969 
Q 1341 3281 1617 3432 
Q 1894 3584 2278 3584 
Q 2916 3584 3314 3078 
Q 3713 2572 3713 1747 
Q 3713 922 3314 415 
Q 2916 -91 2278 -91 
Q 1894 -91 1617 61 
Q 1341 213 1159 525 
L 1159 0 
L 581 0 
L 581 4863 
L 1159 4863 
L 1159 2969 
z
" transform="scale(0.015625)"/>
       <path id="DejaVuSans-69" d="M 603 3500 
L 1178 3500 
L 1178 0 
L 603 0 
L 603 3500 
z
M 603 4863 
L 1178 4863 
L 1178 4134 
L 603 4134 
L 603 4863 
z
" transform="scale(0.015625)"/>
       <path id="DejaVuSans-72" d="M 2631 2963 
Q 2534 3019 2420 3045 
Q 2306 3072 2169 3072 
Q 1681 3072 1420 2755 
Q 1159 2438 1159 1844 
L 1159 0 
L 581 0 
L 581 3500 
L 1159 3500 
L 1159 2956 
Q 1341 3275 1631 3429 
Q 1922 3584 2338 3584 
Q 2397 3584 2469 3576 
Q 2541 3569 2628 3553 
L 2631 2963 
z
" transform="scale(0.015625)"/>
       <path id="DejaVuSans-74" d="M 1172 4494 
L 1172 3500 
L 2356 3500 
L 2356 3053 
L 1172 3053 
L 1172 1153 
Q 1172 725 1289 603 
Q 1406 481 1766 481 
L 2356 481 
L 2356 0 
L 1766 0 
Q 1100 0 847 248 
Q 594 497 594 1153 
L 594 3053 
L 172 3053 
L 172 3500 
L 594 3500 
L 594 4494 
L 1172 4494 
z
" transform="scale(0.015625)"/>
       <path id="DejaVuSans-68" d="M 3513 2113 
L 3513 0 
L 2938 0 
L 2938 2094 
Q 2938 2591 2744 2837 
Q 2550 3084 2163 3084 
Q 1697 3084 1428 2787 
Q 1159 2491 1159 1978 
L 1159 0 
L 581 0 
L 581 4863 
L 1159 4863 
L 1159 2956 
Q 1366 3272 1645 3428 
Q 1925 3584 2291 3584 
Q 2894 3584 3203 3211 
Q 3513 2838 3513 2113 
z
" transform="scale(0.015625)"/>
       <path id="DejaVuSans-5f" d="M 3263 -1063 
L 3263 -1509 
L -63 -1509 
L -63 -1063 
L 3263 -1063 
z
" transform="scale(0.015625)"/>
       <path id="DejaVuSans-6d" d="M 3328 2828 
Q 3544 3216 3844 3400 
Q 4144 3584 4550 3584 
Q 5097 3584 5394 3201 
Q 5691 2819 5691 2113 
L 5691 0 
L 5113 0 
L 5113 2094 
Q 5113 2597 4934 2840 
Q 4756 3084 4391 3084 
Q 3944 3084 3684 2787 
Q 3425 2491 3425 1978 
L 3425 0 
L 2847 0 
L 2847 2094 
Q 2847 2600 2669 2842 
Q 2491 3084 2119 3084 
Q 1678 3084 1418 2786 
Q 1159 2488 1159 1978 
L 1159 0 
L 581 0 
L 581 3500 
L 1159 3500 
L 1159 2956 
Q 1356 3278 1631 3431 
Q 1906 3584 2284 3584 
Q 2666 3584 2933 3390 
Q 3200 3197 3328 2828 
z
" transform="scale(0.015625)"/>
       <path id="DejaVuSans-65" d="M 3597 1894 
L 3597 1613 
L 953 1613 
Q 991 1019 1311 708 
Q 1631 397 2203 397 
Q 2534 397 2845 478 
Q 3156 559 3463 722 
L 3463 178 
Q 3153 47 2828 -22 
Q 2503 -91 2169 -91 
Q 1331 -91 842 396 
Q 353 884 353 1716 
Q 353 2575 817 3079 
Q 1281 3584 2069 3584 
Q 2775 3584 3186 3129 
Q 3597 2675 3597 1894 
z
M 3022 2063 
Q 3016 2534 2758 2815 
Q 2500 3097 2075 3097 
Q 1594 3097 1305 2825 
Q 1016 2553 972 2059 
L 3022 2063 
z
" transform="scale(0.015625)"/>
       <path id="DejaVuSans-20" transform="scale(0.015625)"/>
       <path id="DejaVuSans-5b" d="M 550 4863 
L 1875 4863 
L 1875 4416 
L 1125 4416 
L 1125 -397 
L 1875 -397 
L 1875 -844 
L 550 -844 
L 550 4863 
z
" transform="scale(0.015625)"/>
       <path id="DejaVuSans-b5" d="M 544 -1331 
L 544 3500 
L 1119 3500 
L 1119 1325 
Q 1119 872 1334 640 
Q 1550 409 1972 409 
Q 2434 409 2667 671 
Q 2900 934 2900 1459 
L 2900 3500 
L 3475 3500 
L 3475 806 
Q 3475 619 3529 530 
Q 3584 441 3700 441 
Q 3728 441 3778 458 
Q 3828 475 3916 513 
L 3916 50 
Q 3788 -22 3673 -56 
Q 3559 -91 3450 -91 
Q 3234 -91 3106 31 
Q 2978 153 2931 403 
Q 2775 156 2548 32 
Q 2322 -91 2016 -91 
Q 1697 -91 1473 31 
Q 1250 153 1119 397 
L 1119 -1331 
L 544 -1331 
z
" transform="scale(0.015625)"/>
       <path id="DejaVuSans-73" d="M 2834 3397 
L 2834 2853 
Q 2591 2978 2328 3040 
Q 2066 3103 1784 3103 
Q 1356 3103 1142 2972 
Q 928 2841 928 2578 
Q 928 2378 1081 2264 
Q 1234 2150 1697 2047 
L 1894 2003 
Q 2506 1872 2764 1633 
Q 3022 1394 3022 966 
Q 3022 478 2636 193 
Q 2250 -91 1575 -91 
Q 1294 -91 989 -36 
Q 684 19 347 128 
L 347 722 
Q 666 556 975 473 
Q 1284 391 1588 391 
Q 1994 391 2212 530 
Q 2431 669 2431 922 
Q 2431 1156 2273 1281 
Q 2116 1406 1581 1522 
L 1381 1569 
Q 847 1681 609 1914 
Q 372 2147 372 2553 
Q 372 3047 722 3315 
Q 1072 3584 1716 3584 
Q 2034 3584 2315 3537 
Q 2597 3491 2834 3397 
z
" transform="scale(0.015625)"/>
       <path id="DejaVuSans-5d" d="M 1947 4863 
L 1947 -844 
L 622 -844 
L 622 -397 
L 1369 -397 
L 1369 4416 
L 622 4416 
L 622 4863 
L 1947 4863 
z
" transform="scale(0.015625)"/>
      </defs>
      <use xlink:href="#DejaVuSans-62"/>
      <use xlink:href="#DejaVuSans-69" transform="translate(63.476562 0)"/>
      <use xlink:href="#DejaVuSans-72" transform="translate(91.259766 0)"/>
      <use xlink:href="#DejaVuSans-74" transform="translate(132.373047 0)"/>
      <use xlink:href="#DejaVuSans-68" transform="translate(171.582031 0)"/>
      <use xlink:href="#DejaVuSans-5f" transform="translate(234.960938 0)"/>
      <use xlink:href="#DejaVuSans-74" transform="translate(284.960938 0)"/>
      <use xlink:href="#DejaVuSans-69" transform="translate(324.169922 0)"/>
      <use xlink:href="#DejaVuSans-6d" transform="translate(351.953125 0)"/>
      <use xlink:href="#DejaVuSans-65" transform="translate(449.365234 0)"/>
      <use xlink:href="#DejaVuSans-20" transform="translate(510.888672 0)"/>
      <use xlink:href="#DejaVuSans-5b" transform="translate(542.675781 0)"/>
      <use xlink:href="#DejaVuSans-b5" transform="translate(581.689453 0)"/>
      <use xlink:href="#DejaVuSans-73" transform="translate(645.3125 0)"/>
      <use xlink:href="#DejaVuSans-5d" transform="translate(697.412109 0)"/>
     </g>
    </g>
   </g>
   <g id="matplotlib.axis_2">
    <g id="ytick_1">
     <g id="line2d_7">
      <defs>
       <path id="m78cb540ab9" d="M 0 0 
L -3.5 0 
" style="stroke: #000000; stroke-width: 0.8"/>
      </defs>
      <g>
       <use xlink:href="#m78cb540ab9" x="53.328125" y="245.986648" style="stroke: #000000; stroke-width: 0.8"/>
      </g>
     </g>
     <g id="text_8">
      <!-- 0 -->
      <g transform="translate(39.965625 249.785867) scale(0.1 -0.1)">
       <use xlink:href="#DejaVuSans-30"/>
      </g>
     </g>
    </g>
    <g id="ytick_2">
     <g id="line2d_8">
      <g>
       <use xlink:href="#m78cb540ab9" x="53.328125" y="208.082501" style="stroke: #000000; stroke-width: 0.8"/>
      </g>
     </g>
     <g id="text_9">
      <!-- 1000 -->
      <g transform="translate(20.878125 211.88172) scale(0.1 -0.1)">
       <use xlink:href="#DejaVuSans-31"/>
       <use xlink:href="#DejaVuSans-30" transform="translate(63.623047 0)"/>
       <use xlink:href="#DejaVuSans-30" transform="translate(127.246094 0)"/>
       <use xlink:href="#DejaVuSans-30" transform="translate(190.869141 0)"/>
      </g>
     </g>
    </g>
    <g id="ytick_3">
     <g id="line2d_9">
      <g>
       <use xlink:href="#m78cb540ab9" x="53.328125" y="170.178355" style="stroke: #000000; stroke-width: 0.8"/>
      </g>
     </g>
     <g id="text_10">
      <!-- 2000 -->
      <g transform="translate(20.878125 173.977573) scale(0.1 -0.1)">
       <use xlink:href="#DejaVuSans-32"/>
       <use xlink:href="#DejaVuSans-30" transform="translate(63.623047 0)"/>
       <use xlink:href="#DejaVuSans-30" transform="translate(127.246094 0)"/>
       <use xlink:href="#DejaVuSans-30" transform="translate(190.869141 0)"/>
      </g>
     </g>
    </g>
    <g id="ytick_4">
     <g id="line2d_10">
      <g>
       <use xlink:href="#m78cb540ab9" x="53.328125" y="132.274208" style="stroke: #000000; stroke-width: 0.8"/>
      </g>
     </g>
     <g id="text_11">
      <!-- 3000 -->
      <g transform="translate(20.878125 136.073427) scale(0.1 -0.1)">
       <use xlink:href="#DejaVuSans-33"/>
       <use xlink:href="#DejaVuSans-30" transform="translate(63.623047 0)"/>
       <use xlink:href="#DejaVuSans-30" transform="translate(127.246094 0)"/>
       <use xlink:href="#DejaVuSans-30" transform="translate(190.869141 0)"/>
      </g>
     </g>
    </g>
    <g id="ytick_5">
     <g id="line2d_11">
      <g>
       <use xlink:href="#m78cb540ab9" x="53.328125" y="94.370061" style="stroke: #000000; stroke-width: 0.8"/>
      </g>
     </g>
     <g id="text_12">
      <!-- 4000 -->
      <g transform="translate(20.878125 98.16928) scale(0.1 -0.1)">
       <use xlink:href="#DejaVuSans-34"/>
       <use xlink:href="#DejaVuSans-30" transform="translate(63.623047 0)"/>
       <use xlink:href="#DejaVuSans-30" transform="translate(127.246094 0)"/>
       <use xlink:href="#DejaVuSans-30" transform="translate(190.869141 0)"/>
      </g>
     </g>
    </g>
    <g id="ytick_6">
     <g id="line2d_12">
      <g>
       <use xlink:href="#m78cb540ab9" x="53.328125" y="56.465915" style="stroke: #000000; stroke-width: 0.8"/>
      </g>
     </g>
     <g id="text_13">
      <!-- 5000 -->
      <g transform="translate(20.878125 60.265133) scale(0.1 -0.1)">
       <use xlink:href="#DejaVuSans-35"/>
       <use xlink:href="#DejaVuSans-30" transform="translate(63.623047 0)"/>
       <use xlink:href="#DejaVuSans-30" transform="translate(127.246094 0)"/>
       <use xlink:href="#DejaVuSans-30" transform="translate(190.869141 0)"/>
      </g>
     </g>
    </g>
    <g id="ytick_7">
     <g id="line2d_13">
      <g>
       <use xlink:href="#m78cb540ab9" x="53.328125" y="18.561768" style="stroke: #000000; stroke-width: 0.8"/>
      </g>
     </g>
     <g id="text_14">
      <!-- 6000 -->
      <g transform="translate(20.878125 22.360987) scale(0.1 -0.1)">
       <defs>
        <path id="DejaVuSans-36" d="M 2113 2584 
Q 1688 2584 1439 2293 
Q 1191 2003 1191 1497 
Q 1191 994 1439 701 
Q 1688 409 2113 409 
Q 2538 409 2786 701 
Q 3034 994 3034 1497 
Q 3034 2003 2786 2293 
Q 2538 2584 2113 2584 
z
M 3366 4563 
L 3366 3988 
Q 3128 4100 2886 4159 
Q 2644 4219 2406 4219 
Q 1781 4219 1451 3797 
Q 1122 3375 1075 2522 
Q 1259 2794 1537 2939 
Q 1816 3084 2150 3084 
Q 2853 3084 3261 2657 
Q 3669 2231 3669 1497 
Q 3669 778 3244 343 
Q 2819 -91 2113 -91 
Q 1303 -91 875 529 
Q 447 1150 447 2328 
Q 447 3434 972 4092 
Q 1497 4750 2381 4750 
Q 2619 4750 2861 4703 
Q 3103 4656 3366 4563 
z
" transform="scale(0.015625)"/>
       </defs>
       <use xlink:href="#DejaVuSans-36"/>
       <use xlink:href="#DejaVuSans-30" transform="translate(63.623047 0)"/>
       <use xlink:href="#DejaVuSans-30" transform="translate(127.246094 0)"/>
       <use xlink:href="#DejaVuSans-30" transform="translate(190.869141 0)"/>
      </g>
     </g>
    </g>
    <g id="text_15">
     <!-- pulse:0 [counts] -->
     <g transform="translate(14.798438 172.659916) rotate(-90) scale(0.1 -0.1)">
      <defs>
       <path id="DejaVuSans-70" d="M 1159 525 
L 1159 -1331 
L 581 -1331 
L 581 3500 
L 1159 3500 
L 1159 2969 
Q 1341 3281 1617 3432 
Q 1894 3584 2278 3584 
Q 2916 3584 3314 3078 
Q 3713 2572 3713 1747 
Q 3713 922 3314 415 
Q 2916 -91 2278 -91 
Q 1894 -91 1617 61 
Q 1341 213 1159 525 
z
M 3116 1747 
Q 3116 2381 2855 2742 
Q 2594 3103 2138 3103 
Q 1681 3103 1420 2742 
Q 1159 2381 1159 1747 
Q 1159 1113 1420 752 
Q 1681 391 2138 391 
Q 2594 391 2855 752 
Q 3116 1113 3116 1747 
z
" transform="scale(0.015625)"/>
       <path id="DejaVuSans-75" d="M 544 1381 
L 544 3500 
L 1119 3500 
L 1119 1403 
Q 1119 906 1312 657 
Q 1506 409 1894 409 
Q 2359 409 2629 706 
Q 2900 1003 2900 1516 
L 2900 3500 
L 3475 3500 
L 3475 0 
L 2900 0 
L 2900 538 
Q 2691 219 2414 64 
Q 2138 -91 1772 -91 
Q 1169 -91 856 284 
Q 544 659 544 1381 
z
M 1991 3584 
L 1991 3584 
z
" transform="scale(0.015625)"/>
       <path id="DejaVuSans-6c" d="M 603 4863 
L 1178 4863 
L 1178 0 
L 603 0 
L 603 4863 
z
" transform="scale(0.015625)"/>
       <path id="DejaVuSans-3a" d="M 750 794 
L 1409 794 
L 1409 0 
L 750 0 
L 750 794 
z
M 750 3309 
L 1409 3309 
L 1409 2516 
L 750 2516 
L 750 3309 
z
" transform="scale(0.015625)"/>
       <path id="DejaVuSans-63" d="M 3122 3366 
L 3122 2828 
Q 2878 2963 2633 3030 
Q 2388 3097 2138 3097 
Q 1578 3097 1268 2742 
Q 959 2388 959 1747 
Q 959 1106 1268 751 
Q 1578 397 2138 397 
Q 2388 397 2633 464 
Q 2878 531 3122 666 
L 3122 134 
Q 2881 22 2623 -34 
Q 2366 -91 2075 -91 
Q 1284 -91 818 406 
Q 353 903 353 1747 
Q 353 2603 823 3093 
Q 1294 3584 2113 3584 
Q 2378 3584 2631 3529 
Q 2884 3475 3122 3366 
z
" transform="scale(0.015625)"/>
       <path id="DejaVuSans-6f" d="M 1959 3097 
Q 1497 3097 1228 2736 
Q 959 2375 959 1747 
Q 959 1119 1226 758 
Q 1494 397 1959 397 
Q 2419 397 2687 759 
Q 2956 1122 2956 1747 
Q 2956 2369 2687 2733 
Q 2419 3097 1959 3097 
z
M 1959 3584 
Q 2709 3584 3137 3096 
Q 3566 2609 3566 1747 
Q 3566 888 3137 398 
Q 2709 -91 1959 -91 
Q 1206 -91 779 398 
Q 353 888 353 1747 
Q 353 2609 779 3096 
Q 1206 3584 1959 3584 
z
" transform="scale(0.015625)"/>
       <path id="DejaVuSans-6e" d="M 3513 2113 
L 3513 0 
L 2938 0 
L 2938 2094 
Q 2938 2591 2744 2837 
Q 2550 3084 2163 3084 
Q 1697 3084 1428 2787 
Q 1159 2491 1159 1978 
L 1159 0 
L 581 0 
L 581 3500 
L 1159 3500 
L 1159 2956 
Q 1366 3272 1645 3428 
Q 1925 3584 2291 3584 
Q 2894 3584 3203 3211 
Q 3513 2838 3513 2113 
z
" transform="scale(0.015625)"/>
      </defs>
      <use xlink:href="#DejaVuSans-70"/>
      <use xlink:href="#DejaVuSans-75" transform="translate(63.476562 0)"/>
      <use xlink:href="#DejaVuSans-6c" transform="translate(126.855469 0)"/>
      <use xlink:href="#DejaVuSans-73" transform="translate(154.638672 0)"/>
      <use xlink:href="#DejaVuSans-65" transform="translate(206.738281 0)"/>
      <use xlink:href="#DejaVuSans-3a" transform="translate(268.261719 0)"/>
      <use xlink:href="#DejaVuSans-30" transform="translate(301.953125 0)"/>
      <use xlink:href="#DejaVuSans-20" transform="translate(365.576172 0)"/>
      <use xlink:href="#DejaVuSans-5b" transform="translate(397.363281 0)"/>
      <use xlink:href="#DejaVuSans-63" transform="translate(436.376953 0)"/>
      <use xlink:href="#DejaVuSans-6f" transform="translate(491.357422 0)"/>
      <use xlink:href="#DejaVuSans-75" transform="translate(552.539062 0)"/>
      <use xlink:href="#DejaVuSans-6e" transform="translate(615.917969 0)"/>
      <use xlink:href="#DejaVuSans-74" transform="translate(679.296875 0)"/>
      <use xlink:href="#DejaVuSans-73" transform="translate(718.505859 0)"/>
      <use xlink:href="#DejaVuSans-5d" transform="translate(770.605469 0)"/>
     </g>
    </g>
   </g>
   <g id="line2d_14">
    <path d="M 69.604961 234.274266 
L 70.690083 234.274266 
L 70.690083 226.503916 
L 71.775205 226.503916 
L 71.775205 220.098116 
L 72.860328 220.098116 
L 72.860328 212.138245 
L 73.94545 212.138245 
L 73.94545 201.752509 
L 75.030573 201.752509 
L 75.030573 192.16276 
L 76.115695 192.16276 
L 76.115695 184.809355 
L 77.200817 184.809355 
L 77.200817 173.24859 
L 78.28594 173.24859 
L 78.28594 167.373448 
L 79.371062 167.373448 
L 79.371062 158.541781 
L 80.456184 158.541781 
L 80.456184 150.39239 
L 81.541307 150.39239 
L 81.541307 143.114794 
L 82.626429 143.114794 
L 82.626429 137.429172 
L 83.711552 137.429172 
L 83.711552 130.265288 
L 84.796674 130.265288 
L 84.796674 126.399065 
L 85.881796 126.399065 
L 85.881796 121.282005 
L 86.966919 121.282005 
L 86.966919 111.123694 
L 88.052041 111.123694 
L 88.052041 108.811541 
L 89.137163 108.811541 
L 89.137163 106.840525 
L 90.222286 106.840525 
L 90.222286 104.793702 
L 91.307408 104.793702 
L 91.307408 97.09916 
L 92.392531 97.09916 
L 92.392531 96.606406 
L 93.477653 96.606406 
L 93.477653 95.99994 
L 94.562775 95.99994 
L 94.562775 85.879532 
L 95.647898 85.879532 
L 95.647898 82.619776 
L 96.73302 82.619776 
L 96.73302 78.677745 
L 97.818143 78.677745 
L 97.818143 75.872838 
L 98.903265 75.872838 
L 98.903265 76.024454 
L 99.988387 76.024454 
L 99.988387 70.793682 
L 101.07351 70.793682 
L 101.07351 72.764698 
L 102.158632 72.764698 
L 102.158632 66.131472 
L 103.243754 66.131472 
L 103.243754 64.198361 
L 104.328877 64.198361 
L 104.328877 58.285314 
L 105.413999 58.285314 
L 105.413999 61.014412 
L 106.499122 61.014412 
L 106.499122 57.489327 
L 107.584244 57.489327 
L 107.584244 53.964241 
L 108.669366 53.964241 
L 108.669366 54.646516 
L 109.754489 54.646516 
L 109.754489 51.7658 
L 110.839611 51.7658 
L 110.839611 54.646516 
L 111.924733 54.646516 
L 111.924733 53.585199 
L 113.009856 53.585199 
L 113.009856 50.552868 
L 115.180101 50.590772 
L 115.180101 51.462567 
L 116.265223 51.462567 
L 116.265223 43.99545 
L 117.350345 43.99545 
L 117.350345 47.10359 
L 118.435468 47.10359 
L 118.435468 49.226223 
L 119.52059 49.226223 
L 119.52059 39.257432 
L 120.605712 39.257432 
L 120.605712 42.858326 
L 121.690835 42.858326 
L 121.690835 41.304256 
L 122.775957 41.304256 
L 122.775957 43.540601 
L 123.86108 43.540601 
L 123.86108 42.289764 
L 124.946202 42.289764 
L 124.946202 38.309828 
L 126.031324 38.309828 
L 126.031324 37.665458 
L 127.116447 37.665458 
L 127.116447 38.044499 
L 128.201569 38.044499 
L 128.201569 41.001023 
L 129.286692 41.001023 
L 129.286692 34.178276 
L 130.371814 34.178276 
L 130.371814 33.799235 
L 131.456936 33.799235 
L 131.456936 39.067911 
L 132.542059 39.067911 
L 132.542059 33.420193 
L 133.627181 33.420193 
L 133.627181 36.67995 
L 134.712303 36.67995 
L 134.712303 35.618634 
L 135.797426 35.618634 
L 135.797426 34.254085 
L 136.882548 34.254085 
L 136.882548 33.192769 
L 137.967671 33.192769 
L 137.967671 37.210608 
L 139.052793 37.210608 
L 139.052793 27.886188 
L 140.137915 27.886188 
L 140.137915 33.647618 
L 141.223038 33.647618 
L 141.223038 37.665458 
L 142.30816 37.665458 
L 142.30816 29.440258 
L 143.393282 29.440258 
L 143.393282 29.023312 
L 144.478405 29.023312 
L 144.478405 37.968691 
L 145.563527 37.968691 
L 145.563527 25.725652 
L 146.64865 25.725652 
L 146.64865 27.507147 
L 147.733772 27.507147 
L 147.733772 32.851631 
L 148.818894 32.851631 
L 148.818894 28.530559 
L 149.904017 28.530559 
L 149.904017 31.941932 
L 150.989139 31.941932 
L 150.989139 29.8193 
L 152.074261 29.8193 
L 152.074261 25.80146 
L 153.159384 25.80146 
L 153.159384 30.312053 
L 154.244506 30.312053 
L 154.244506 31.259657 
L 155.329629 31.259657 
L 155.329629 31.37337 
L 156.414751 31.37337 
L 156.414751 28.113613 
L 157.499873 28.113613 
L 157.499873 24.967569 
L 158.584996 24.967569 
L 158.584996 26.90068 
L 159.670118 26.90068 
L 159.670118 31.524986 
L 160.75524 31.524986 
L 160.75524 25.34661 
L 161.840363 25.34661 
L 161.840363 30.312053 
L 162.925485 30.312053 
L 162.925485 28.151517 
L 164.010608 28.151517 
L 164.010608 29.781395 
L 165.09573 29.781395 
L 165.09573 24.323198 
L 166.180852 24.323198 
L 166.180852 28.530559 
L 167.265975 28.530559 
L 167.265975 29.781395 
L 168.351097 29.781395 
L 168.351097 28.151517 
L 169.43622 28.151517 
L 169.43622 30.425766 
L 170.521342 30.425766 
L 170.521342 28.833792 
L 171.606464 28.833792 
L 171.606464 23.982061 
L 172.691587 23.982061 
L 172.691587 20.987633 
L 173.776709 20.987633 
L 173.776709 29.8193 
L 174.861831 29.8193 
L 174.861831 25.915172 
L 175.946954 25.915172 
L 175.946954 24.89176 
L 177.032076 24.89176 
L 177.032076 23.603019 
L 178.117199 23.603019 
L 178.117199 31.070136 
L 179.202321 31.070136 
L 179.202321 30.349958 
L 180.287443 30.349958 
L 180.287443 25.232898 
L 182.457688 25.232898 
L 182.457688 26.370022 
L 183.54281 26.370022 
L 183.54281 21.366675 
L 184.627933 21.366675 
L 184.627933 22.276374 
L 185.713055 22.276374 
L 185.713055 29.705587 
L 186.798178 29.705587 
L 186.798178 20.873921 
L 187.8833 20.873921 
L 187.8833 23.640924 
L 188.968422 23.640924 
L 188.968422 28.265229 
L 190.053545 28.265229 
L 190.053545 25.498227 
L 191.138667 25.498227 
L 191.138667 28.189421 
L 192.223789 28.189421 
L 192.223789 27.052297 
L 193.308912 27.052297 
L 193.308912 29.212833 
L 194.394034 29.212833 
L 194.394034 27.961996 
L 195.479157 27.961996 
L 195.479157 28.682175 
L 196.564279 28.682175 
L 196.564279 25.157089 
L 197.649401 25.157089 
L 197.649401 24.399007 
L 198.734524 24.399007 
L 198.734524 25.308706 
L 199.819646 25.308706 
L 199.819646 32.01774 
L 200.904769 32.01774 
L 200.904769 26.294214 
L 201.989891 26.294214 
L 201.989891 29.667683 
L 203.075013 29.667683 
L 203.075013 25.687748 
L 204.160136 25.687748 
L 204.160136 28.113613 
L 205.245258 28.113613 
L 205.245258 25.990981 
L 206.33038 25.990981 
L 206.33038 31.941932 
L 207.415503 31.941932 
L 207.415503 27.128105 
L 208.500625 27.128105 
L 208.500625 24.323198 
L 209.585748 24.323198 
L 209.585748 18.561768 
L 210.67087 18.561768 
L 210.67087 26.066789 
L 211.755992 26.066789 
L 211.755992 27.582955 
L 212.841115 27.582955 
L 212.841115 23.186074 
L 213.926237 23.186074 
L 213.926237 23.072361 
L 215.011359 23.072361 
L 215.011359 29.591875 
L 216.096482 29.591875 
L 216.096482 22.011045 
L 217.181604 22.011045 
L 217.181604 23.14817 
L 218.266727 23.14817 
L 218.266727 26.90068 
L 220.436971 26.862776 
L 220.436971 25.232898 
L 221.522094 25.232898 
L 221.522094 27.090201 
L 222.607216 27.090201 
L 222.607216 26.483735 
L 223.692338 26.483735 
L 223.692338 27.203913 
L 224.777461 27.203913 
L 224.777461 24.323198 
L 225.862583 24.323198 
L 225.862583 23.982061 
L 226.947706 23.982061 
L 226.947706 21.859429 
L 228.032828 21.859429 
L 228.032828 32.358877 
L 229.11795 32.358877 
L 229.11795 29.8193 
L 230.203073 29.8193 
L 230.203073 27.128105 
L 231.288195 27.128105 
L 231.288195 25.990981 
L 232.373317 25.990981 
L 232.373317 29.440258 
L 233.45844 29.440258 
L 233.45844 21.480387 
L 234.543562 21.480387 
L 234.543562 25.308706 
L 235.628685 25.308706 
L 235.628685 26.407926 
L 236.713807 26.407926 
L 236.713807 24.436911 
L 237.798929 24.436911 
L 237.798929 28.227325 
L 238.884052 28.227325 
L 238.884052 27.431338 
L 239.969174 27.431338 
L 239.969174 24.285294 
L 241.054297 24.285294 
L 241.054297 25.611939 
L 242.139419 25.611939 
L 242.139419 29.061217 
L 243.224541 29.061217 
L 243.224541 31.941932 
L 244.309664 31.941932 
L 244.309664 24.740144 
L 245.394786 24.740144 
L 245.394786 22.769128 
L 248.650153 22.769128 
L 248.650153 24.019965 
L 249.735276 24.019965 
L 249.735276 24.740144 
L 250.820398 24.740144 
L 250.820398 27.961996 
L 251.90552 27.961996 
L 251.90552 25.005473 
L 252.990643 25.005473 
L 252.990643 30.046724 
L 254.075765 30.046724 
L 254.075765 26.332118 
L 255.160887 26.332118 
L 255.160887 28.871696 
L 256.24601 28.871696 
L 256.24601 35.315401 
L 257.331132 35.315401 
L 257.331132 43.426888 
L 258.416255 43.426888 
L 258.416255 52.258554 
L 259.501377 52.258554 
L 259.501377 62.113632 
L 260.586499 62.113632 
L 260.586499 66.965363 
L 261.671622 66.965363 
L 261.671622 76.555112 
L 262.756744 76.555112 
L 262.756744 83.567379 
L 263.841866 83.567379 
L 263.841866 100.017779 
L 264.926989 100.017779 
L 264.926989 105.930826 
L 266.012111 105.930826 
L 266.012111 109.304295 
L 267.097234 109.304295 
L 267.097234 119.95536 
L 268.182356 119.95536 
L 268.182356 126.62649 
L 269.267478 126.62649 
L 269.267478 128.824931 
L 270.352601 128.824931 
L 270.352601 139.400187 
L 271.437723 139.400187 
L 271.437723 145.389043 
L 272.522846 145.389043 
L 272.522846 148.421374 
L 273.607968 148.421374 
L 273.607968 151.302089 
L 274.69309 151.302089 
L 274.69309 156.949807 
L 275.778213 156.949807 
L 275.778213 165.819378 
L 276.863335 165.819378 
L 276.863335 169.344463 
L 277.948457 169.344463 
L 277.948457 172.414699 
L 279.03358 172.414699 
L 279.03358 176.773676 
L 280.118702 176.773676 
L 280.118702 182.800435 
L 281.203825 182.800435 
L 281.203825 183.596422 
L 282.288947 183.596422 
L 282.288947 184.695643 
L 283.374069 184.695643 
L 283.374069 190.836114 
L 284.459192 190.836114 
L 284.459192 196.408024 
L 285.544314 196.408024 
L 285.544314 195.346708 
L 286.629436 195.346708 
L 286.629436 197.431436 
L 287.714559 197.431436 
L 287.714559 202.472687 
L 288.799681 202.472687 
L 288.799681 204.14047 
L 289.884804 204.14047 
L 289.884804 203.154962 
L 290.969926 203.154962 
L 290.969926 208.688967 
L 292.055048 208.688967 
L 292.055048 210.205133 
L 293.140171 210.205133 
L 293.140171 212.062437 
L 294.225293 212.062437 
L 294.225293 214.071356 
L 295.310415 214.071356 
L 295.310415 215.814947 
L 296.395538 215.814947 
L 296.395538 217.785963 
L 297.48066 217.785963 
L 297.48066 219.567458 
L 298.565783 219.567458 
L 298.565783 220.78039 
L 299.650905 220.78039 
L 299.650905 221.765898 
L 300.736027 221.765898 
L 300.736027 223.206256 
L 301.82115 223.206256 
L 301.82115 222.296556 
L 302.906272 222.296556 
L 302.906272 224.760326 
L 303.991394 224.760326 
L 303.991394 225.556313 
L 305.076517 225.556313 
L 305.076517 226.920862 
L 306.161639 226.920862 
L 306.161639 227.830562 
L 307.246762 227.830562 
L 307.246762 229.498344 
L 308.331884 229.498344 
L 308.331884 229.649961 
L 309.417006 229.649961 
L 309.417006 233.099238 
L 310.502129 233.099238 
L 310.502129 232.985525 
L 311.587251 232.985525 
L 311.587251 232.871813 
L 312.672374 232.871813 
L 312.672374 232.341155 
L 313.757496 232.341155 
L 313.757496 233.250855 
L 314.842618 233.250855 
L 314.842618 235.67672 
L 315.927741 235.67672 
L 315.927741 236.13157 
L 317.012863 236.13157 
L 317.012863 234.918637 
L 318.097985 234.918637 
L 318.097985 236.13157 
L 319.183108 236.13157 
L 319.183108 237.041269 
L 320.26823 237.041269 
L 320.26823 236.813844 
L 321.353353 236.813844 
L 321.353353 237.647736 
L 322.438475 237.647736 
L 322.438475 237.003365 
L 323.523597 237.003365 
L 323.523597 239.050189 
L 324.60872 239.050189 
L 324.60872 238.026777 
L 325.693842 238.026777 
L 325.693842 240.149409 
L 326.778964 240.149409 
L 326.778964 239.467135 
L 327.864087 239.467135 
L 327.864087 239.88408 
L 328.949209 239.88408 
L 328.949209 239.391326 
L 330.034332 239.391326 
L 330.034332 240.149409 
L 331.119454 240.149409 
L 331.119454 240.9833 
L 332.204576 240.9833 
L 332.204576 240.680067 
L 333.289699 240.680067 
L 333.289699 240.566355 
L 334.374821 240.566355 
L 334.374821 241.43815 
L 335.459943 241.43815 
L 335.459943 242.234137 
L 336.545066 242.234137 
L 336.545066 241.43815 
L 337.630188 241.43815 
L 337.630188 242.423658 
L 339.800433 242.34785 
L 339.800433 242.272041 
L 340.885555 242.272041 
L 340.885555 242.840604 
L 341.970678 242.840604 
L 341.970678 242.613179 
L 344.140923 242.613179 
L 344.140923 243.295453 
L 346.311167 243.219645 
L 346.311167 243.788207 
L 347.39629 243.788207 
L 347.39629 243.257549 
L 348.481412 243.257549 
L 348.481412 243.371262 
L 349.566534 243.371262 
L 349.566534 244.053536 
L 350.651657 244.053536 
L 350.651657 243.636591 
L 351.736779 243.636591 
L 351.736779 243.750303 
L 352.821902 243.750303 
L 352.821902 244.015632 
L 354.992146 244.09144 
L 354.992146 244.356769 
L 356.077269 244.356769 
L 356.077269 244.735811 
L 357.162391 244.735811 
L 357.162391 244.280961 
L 358.247513 244.280961 
L 358.247513 244.849523 
L 360.417758 244.925332 
L 360.417758 244.963236 
L 361.502881 244.963236 
L 361.502881 244.660003 
L 362.588003 244.660003 
L 362.588003 245.00114 
L 364.758248 244.925332 
L 364.758248 244.849523 
L 366.928492 244.925332 
L 366.928492 245.228565 
L 370.18386 245.152757 
L 370.18386 244.887428 
L 371.268982 244.887428 
L 371.268982 245.304373 
L 372.354104 245.304373 
L 372.354104 245.418086 
L 373.439227 245.418086 
L 373.439227 245.304373 
L 374.524349 245.304373 
L 374.524349 245.418086 
L 375.609471 245.418086 
L 375.609471 245.569702 
L 376.694594 245.569702 
L 376.694594 245.266469 
L 377.779716 245.266469 
L 377.779716 245.418086 
L 378.864839 245.418086 
L 378.864839 245.266469 
L 379.949961 245.266469 
L 379.949961 245.493894 
L 384.290451 245.45599 
L 384.290451 245.797127 
L 386.460695 245.721319 
L 386.460695 245.607606 
L 390.801185 245.607606 
L 390.801185 245.721319 
L 395.141674 245.683415 
L 395.141674 245.683415 
" clip-path="url(#p30425503f3)" style="fill: none; stroke: #1f77b4; stroke-width: 1.5; stroke-linecap: square"/>
   </g>
   <g id="patch_3">
    <path d="M 53.328125 257.158895 
L 53.328125 7.2 
" style="fill: none; stroke: #000000; stroke-width: 0.8; stroke-linejoin: miter; stroke-linecap: square"/>
   </g>
   <g id="patch_4">
    <path d="M 411.41851 257.158895 
L 411.41851 7.2 
" style="fill: none; stroke: #000000; stroke-width: 0.8; stroke-linejoin: miter; stroke-linecap: square"/>
   </g>
   <g id="patch_5">
    <path d="M 53.328125 257.158895 
L 411.41851 257.158895 
" style="fill: none; stroke: #000000; stroke-width: 0.8; stroke-linejoin: miter; stroke-linecap: square"/>
   </g>
   <g id="patch_6">
    <path d="M 53.328125 7.2 
L 411.41851 7.2 
" style="fill: none; stroke: #000000; stroke-width: 0.8; stroke-linejoin: miter; stroke-linecap: square"/>
   </g>
  </g>
  <g id="axes_2">
   <g id="patch_7">
    <path d="M 507.109135 257.158895 
L 865.19952 257.158895 
L 865.19952 7.2 
L 507.109135 7.2 
z
" style="fill: #ffffff"/>
   </g>
   <g id="matplotlib.axis_3">
    <g id="xtick_7">
     <g id="line2d_15">
      <g>
       <use xlink:href="#m793135e7c4" x="520.105017" y="257.158895" style="stroke: #000000; stroke-width: 0.8"/>
      </g>
     </g>
     <g id="text_16">
      <!-- 0.0 -->
      <g transform="translate(512.153454 271.757332) scale(0.1 -0.1)">
       <defs>
        <path id="DejaVuSans-2e" d="M 684 794 
L 1344 794 
L 1344 0 
L 684 0 
L 684 794 
z
" transform="scale(0.015625)"/>
       </defs>
       <use xlink:href="#DejaVuSans-30"/>
       <use xlink:href="#DejaVuSans-2e" transform="translate(63.623047 0)"/>
       <use xlink:href="#DejaVuSans-30" transform="translate(95.410156 0)"/>
      </g>
     </g>
    </g>
    <g id="xtick_8">
     <g id="line2d_16">
      <g>
       <use xlink:href="#m793135e7c4" x="561.423224" y="257.158895" style="stroke: #000000; stroke-width: 0.8"/>
      </g>
     </g>
     <g id="text_17">
      <!-- 2.5 -->
      <g transform="translate(553.471662 271.757332) scale(0.1 -0.1)">
       <use xlink:href="#DejaVuSans-32"/>
       <use xlink:href="#DejaVuSans-2e" transform="translate(63.623047 0)"/>
       <use xlink:href="#DejaVuSans-35" transform="translate(95.410156 0)"/>
      </g>
     </g>
    </g>
    <g id="xtick_9">
     <g id="line2d_17">
      <g>
       <use xlink:href="#m793135e7c4" x="602.741432" y="257.158895" style="stroke: #000000; stroke-width: 0.8"/>
      </g>
     </g>
     <g id="text_18">
      <!-- 5.0 -->
      <g transform="translate(594.78987 271.757332) scale(0.1 -0.1)">
       <use xlink:href="#DejaVuSans-35"/>
       <use xlink:href="#DejaVuSans-2e" transform="translate(63.623047 0)"/>
       <use xlink:href="#DejaVuSans-30" transform="translate(95.410156 0)"/>
      </g>
     </g>
    </g>
    <g id="xtick_10">
     <g id="line2d_18">
      <g>
       <use xlink:href="#m793135e7c4" x="644.05964" y="257.158895" style="stroke: #000000; stroke-width: 0.8"/>
      </g>
     </g>
     <g id="text_19">
      <!-- 7.5 -->
      <g transform="translate(636.108077 271.757332) scale(0.1 -0.1)">
       <defs>
        <path id="DejaVuSans-37" d="M 525 4666 
L 3525 4666 
L 3525 4397 
L 1831 0 
L 1172 0 
L 2766 4134 
L 525 4134 
L 525 4666 
z
" transform="scale(0.015625)"/>
       </defs>
       <use xlink:href="#DejaVuSans-37"/>
       <use xlink:href="#DejaVuSans-2e" transform="translate(63.623047 0)"/>
       <use xlink:href="#DejaVuSans-35" transform="translate(95.410156 0)"/>
      </g>
     </g>
    </g>
    <g id="xtick_11">
     <g id="line2d_19">
      <g>
       <use xlink:href="#m793135e7c4" x="685.377847" y="257.158895" style="stroke: #000000; stroke-width: 0.8"/>
      </g>
     </g>
     <g id="text_20">
      <!-- 10.0 -->
      <g transform="translate(674.245035 271.757332) scale(0.1 -0.1)">
       <use xlink:href="#DejaVuSans-31"/>
       <use xlink:href="#DejaVuSans-30" transform="translate(63.623047 0)"/>
       <use xlink:href="#DejaVuSans-2e" transform="translate(127.246094 0)"/>
       <use xlink:href="#DejaVuSans-30" transform="translate(159.033203 0)"/>
      </g>
     </g>
    </g>
    <g id="xtick_12">
     <g id="line2d_20">
      <g>
       <use xlink:href="#m793135e7c4" x="726.696055" y="257.158895" style="stroke: #000000; stroke-width: 0.8"/>
      </g>
     </g>
     <g id="text_21">
      <!-- 12.5 -->
      <g transform="translate(715.563243 271.757332) scale(0.1 -0.1)">
       <use xlink:href="#DejaVuSans-31"/>
       <use xlink:href="#DejaVuSans-32" transform="translate(63.623047 0)"/>
       <use xlink:href="#DejaVuSans-2e" transform="translate(127.246094 0)"/>
       <use xlink:href="#DejaVuSans-35" transform="translate(159.033203 0)"/>
      </g>
     </g>
    </g>
    <g id="xtick_13">
     <g id="line2d_21">
      <g>
       <use xlink:href="#m793135e7c4" x="768.014263" y="257.158895" style="stroke: #000000; stroke-width: 0.8"/>
      </g>
     </g>
     <g id="text_22">
      <!-- 15.0 -->
      <g transform="translate(756.88145 271.757332) scale(0.1 -0.1)">
       <use xlink:href="#DejaVuSans-31"/>
       <use xlink:href="#DejaVuSans-35" transform="translate(63.623047 0)"/>
       <use xlink:href="#DejaVuSans-2e" transform="translate(127.246094 0)"/>
       <use xlink:href="#DejaVuSans-30" transform="translate(159.033203 0)"/>
      </g>
     </g>
    </g>
    <g id="xtick_14">
     <g id="line2d_22">
      <g>
       <use xlink:href="#m793135e7c4" x="809.332471" y="257.158895" style="stroke: #000000; stroke-width: 0.8"/>
      </g>
     </g>
     <g id="text_23">
      <!-- 17.5 -->
      <g transform="translate(798.199658 271.757332) scale(0.1 -0.1)">
       <use xlink:href="#DejaVuSans-31"/>
       <use xlink:href="#DejaVuSans-37" transform="translate(63.623047 0)"/>
       <use xlink:href="#DejaVuSans-2e" transform="translate(127.246094 0)"/>
       <use xlink:href="#DejaVuSans-35" transform="translate(159.033203 0)"/>
      </g>
     </g>
    </g>
    <g id="xtick_15">
     <g id="line2d_23">
      <g>
       <use xlink:href="#m793135e7c4" x="850.650678" y="257.158895" style="stroke: #000000; stroke-width: 0.8"/>
      </g>
     </g>
     <g id="text_24">
      <!-- 20.0 -->
      <g transform="translate(839.517866 271.757332) scale(0.1 -0.1)">
       <use xlink:href="#DejaVuSans-32"/>
       <use xlink:href="#DejaVuSans-30" transform="translate(63.623047 0)"/>
       <use xlink:href="#DejaVuSans-2e" transform="translate(127.246094 0)"/>
       <use xlink:href="#DejaVuSans-30" transform="translate(159.033203 0)"/>
      </g>
     </g>
    </g>
    <g id="text_25">
     <!-- wavelength [Å] -->
     <g transform="translate(648.116827 287.119832) scale(0.1 -0.1)">
      <defs>
       <path id="DejaVuSans-77" d="M 269 3500 
L 844 3500 
L 1563 769 
L 2278 3500 
L 2956 3500 
L 3675 769 
L 4391 3500 
L 4966 3500 
L 4050 0 
L 3372 0 
L 2619 2869 
L 1863 0 
L 1184 0 
L 269 3500 
z
" transform="scale(0.015625)"/>
       <path id="DejaVuSans-61" d="M 2194 1759 
Q 1497 1759 1228 1600 
Q 959 1441 959 1056 
Q 959 750 1161 570 
Q 1363 391 1709 391 
Q 2188 391 2477 730 
Q 2766 1069 2766 1631 
L 2766 1759 
L 2194 1759 
z
M 3341 1997 
L 3341 0 
L 2766 0 
L 2766 531 
Q 2569 213 2275 61 
Q 1981 -91 1556 -91 
Q 1019 -91 701 211 
Q 384 513 384 1019 
Q 384 1609 779 1909 
Q 1175 2209 1959 2209 
L 2766 2209 
L 2766 2266 
Q 2766 2663 2505 2880 
Q 2244 3097 1772 3097 
Q 1472 3097 1187 3025 
Q 903 2953 641 2809 
L 641 3341 
Q 956 3463 1253 3523 
Q 1550 3584 1831 3584 
Q 2591 3584 2966 3190 
Q 3341 2797 3341 1997 
z
" transform="scale(0.015625)"/>
       <path id="DejaVuSans-76" d="M 191 3500 
L 800 3500 
L 1894 563 
L 2988 3500 
L 3597 3500 
L 2284 0 
L 1503 0 
L 191 3500 
z
" transform="scale(0.015625)"/>
       <path id="DejaVuSans-67" d="M 2906 1791 
Q 2906 2416 2648 2759 
Q 2391 3103 1925 3103 
Q 1463 3103 1205 2759 
Q 947 2416 947 1791 
Q 947 1169 1205 825 
Q 1463 481 1925 481 
Q 2391 481 2648 825 
Q 2906 1169 2906 1791 
z
M 3481 434 
Q 3481 -459 3084 -895 
Q 2688 -1331 1869 -1331 
Q 1566 -1331 1297 -1286 
Q 1028 -1241 775 -1147 
L 775 -588 
Q 1028 -725 1275 -790 
Q 1522 -856 1778 -856 
Q 2344 -856 2625 -561 
Q 2906 -266 2906 331 
L 2906 616 
Q 2728 306 2450 153 
Q 2172 0 1784 0 
Q 1141 0 747 490 
Q 353 981 353 1791 
Q 353 2603 747 3093 
Q 1141 3584 1784 3584 
Q 2172 3584 2450 3431 
Q 2728 3278 2906 2969 
L 2906 3500 
L 3481 3500 
L 3481 434 
z
" transform="scale(0.015625)"/>
       <path id="DejaVuSans-c5" d="M 2663 5081 
Q 2663 5278 2523 5417 
Q 2384 5556 2188 5556 
Q 1988 5556 1852 5420 
Q 1716 5284 1716 5081 
Q 1716 4884 1853 4746 
Q 1991 4609 2188 4609 
Q 2384 4609 2523 4746 
Q 2663 4884 2663 5081 
z
M 2188 4044 
L 1338 1722 
L 3041 1722 
L 2188 4044 
z
M 1716 4366 
Q 1525 4494 1428 4673 
Q 1331 4853 1331 5081 
Q 1331 5441 1579 5691 
Q 1828 5941 2188 5941 
Q 2544 5941 2795 5689 
Q 3047 5438 3047 5081 
Q 3047 4863 2948 4678 
Q 2850 4494 2663 4366 
L 4325 0 
L 3669 0 
L 3244 1197 
L 1141 1197 
L 716 0 
L 50 0 
L 1716 4366 
z
" transform="scale(0.015625)"/>
      </defs>
      <use xlink:href="#DejaVuSans-77"/>
      <use xlink:href="#DejaVuSans-61" transform="translate(81.787109 0)"/>
      <use xlink:href="#DejaVuSans-76" transform="translate(143.066406 0)"/>
      <use xlink:href="#DejaVuSans-65" transform="translate(202.246094 0)"/>
      <use xlink:href="#DejaVuSans-6c" transform="translate(263.769531 0)"/>
      <use xlink:href="#DejaVuSans-65" transform="translate(291.552734 0)"/>
      <use xlink:href="#DejaVuSans-6e" transform="translate(353.076172 0)"/>
      <use xlink:href="#DejaVuSans-67" transform="translate(416.455078 0)"/>
      <use xlink:href="#DejaVuSans-74" transform="translate(479.931641 0)"/>
      <use xlink:href="#DejaVuSans-68" transform="translate(519.140625 0)"/>
      <use xlink:href="#DejaVuSans-20" transform="translate(582.519531 0)"/>
      <use xlink:href="#DejaVuSans-5b" transform="translate(614.306641 0)"/>
      <use xlink:href="#DejaVuSans-c5" transform="translate(653.320312 0)"/>
      <use xlink:href="#DejaVuSans-5d" transform="translate(721.728516 0)"/>
     </g>
    </g>
   </g>
   <g id="matplotlib.axis_4">
    <g id="ytick_8">
     <g id="line2d_24">
      <g>
       <use xlink:href="#m78cb540ab9" x="507.109135" y="245.84949" style="stroke: #000000; stroke-width: 0.8"/>
      </g>
     </g>
     <g id="text_26">
      <!-- 0 -->
      <g transform="translate(493.746635 249.648709) scale(0.1 -0.1)">
       <use xlink:href="#DejaVuSans-30"/>
      </g>
     </g>
    </g>
    <g id="ytick_9">
     <g id="line2d_25">
      <g>
       <use xlink:href="#m78cb540ab9" x="507.109135" y="193.486286" style="stroke: #000000; stroke-width: 0.8"/>
      </g>
     </g>
     <g id="text_27">
      <!-- 5000 -->
      <g transform="translate(474.659135 197.285505) scale(0.1 -0.1)">
       <use xlink:href="#DejaVuSans-35"/>
       <use xlink:href="#DejaVuSans-30" transform="translate(63.623047 0)"/>
       <use xlink:href="#DejaVuSans-30" transform="translate(127.246094 0)"/>
       <use xlink:href="#DejaVuSans-30" transform="translate(190.869141 0)"/>
      </g>
     </g>
    </g>
    <g id="ytick_10">
     <g id="line2d_26">
      <g>
       <use xlink:href="#m78cb540ab9" x="507.109135" y="141.123083" style="stroke: #000000; stroke-width: 0.8"/>
      </g>
     </g>
     <g id="text_28">
      <!-- 10000 -->
      <g transform="translate(468.296635 144.922301) scale(0.1 -0.1)">
       <use xlink:href="#DejaVuSans-31"/>
       <use xlink:href="#DejaVuSans-30" transform="translate(63.623047 0)"/>
       <use xlink:href="#DejaVuSans-30" transform="translate(127.246094 0)"/>
       <use xlink:href="#DejaVuSans-30" transform="translate(190.869141 0)"/>
       <use xlink:href="#DejaVuSans-30" transform="translate(254.492188 0)"/>
      </g>
     </g>
    </g>
    <g id="ytick_11">
     <g id="line2d_27">
      <g>
       <use xlink:href="#m78cb540ab9" x="507.109135" y="88.759879" style="stroke: #000000; stroke-width: 0.8"/>
      </g>
     </g>
     <g id="text_29">
      <!-- 15000 -->
      <g transform="translate(468.296635 92.559098) scale(0.1 -0.1)">
       <use xlink:href="#DejaVuSans-31"/>
       <use xlink:href="#DejaVuSans-35" transform="translate(63.623047 0)"/>
       <use xlink:href="#DejaVuSans-30" transform="translate(127.246094 0)"/>
       <use xlink:href="#DejaVuSans-30" transform="translate(190.869141 0)"/>
       <use xlink:href="#DejaVuSans-30" transform="translate(254.492188 0)"/>
      </g>
     </g>
    </g>
    <g id="ytick_12">
     <g id="line2d_28">
      <g>
       <use xlink:href="#m78cb540ab9" x="507.109135" y="36.396675" style="stroke: #000000; stroke-width: 0.8"/>
      </g>
     </g>
     <g id="text_30">
      <!-- 20000 -->
      <g transform="translate(468.296635 40.195894) scale(0.1 -0.1)">
       <use xlink:href="#DejaVuSans-32"/>
       <use xlink:href="#DejaVuSans-30" transform="translate(63.623047 0)"/>
       <use xlink:href="#DejaVuSans-30" transform="translate(127.246094 0)"/>
       <use xlink:href="#DejaVuSans-30" transform="translate(190.869141 0)"/>
       <use xlink:href="#DejaVuSans-30" transform="translate(254.492188 0)"/>
      </g>
     </g>
    </g>
    <g id="text_31">
     <!-- pulse:0 [counts] -->
     <g transform="translate(462.216947 172.659916) rotate(-90) scale(0.1 -0.1)">
      <use xlink:href="#DejaVuSans-70"/>
      <use xlink:href="#DejaVuSans-75" transform="translate(63.476562 0)"/>
      <use xlink:href="#DejaVuSans-6c" transform="translate(126.855469 0)"/>
      <use xlink:href="#DejaVuSans-73" transform="translate(154.638672 0)"/>
      <use xlink:href="#DejaVuSans-65" transform="translate(206.738281 0)"/>
      <use xlink:href="#DejaVuSans-3a" transform="translate(268.261719 0)"/>
      <use xlink:href="#DejaVuSans-30" transform="translate(301.953125 0)"/>
      <use xlink:href="#DejaVuSans-20" transform="translate(365.576172 0)"/>
      <use xlink:href="#DejaVuSans-5b" transform="translate(397.363281 0)"/>
      <use xlink:href="#DejaVuSans-63" transform="translate(436.376953 0)"/>
      <use xlink:href="#DejaVuSans-6f" transform="translate(491.357422 0)"/>
      <use xlink:href="#DejaVuSans-75" transform="translate(552.539062 0)"/>
      <use xlink:href="#DejaVuSans-6e" transform="translate(615.917969 0)"/>
      <use xlink:href="#DejaVuSans-74" transform="translate(679.296875 0)"/>
      <use xlink:href="#DejaVuSans-73" transform="translate(718.505859 0)"/>
      <use xlink:href="#DejaVuSans-5d" transform="translate(770.605469 0)"/>
     </g>
    </g>
   </g>
   <g id="line2d_29">
    <path d="M 523.385971 157.816472 
L 524.471093 157.816472 
L 524.471093 148.286369 
L 525.556215 148.286369 
L 525.556215 140.369053 
L 526.641338 140.369053 
L 526.641338 139.080918 
L 527.72646 139.080918 
L 527.72646 147.521866 
L 528.811583 147.521866 
L 528.811583 148.705275 
L 529.896705 148.705275 
L 529.896705 143.217611 
L 530.981827 143.217611 
L 530.981827 126.79651 
L 532.06695 126.79651 
L 532.06695 104.385059 
L 533.152072 104.385059 
L 533.152072 84.738385 
L 534.237194 84.738385 
L 534.237194 62.703949 
L 535.322317 62.703949 
L 535.322317 40.365806 
L 536.407439 40.365806 
L 536.407439 29.139135 
L 537.492562 29.139135 
L 537.492562 26.69901 
L 538.577684 26.69901 
L 538.577684 18.561768 
L 539.662806 18.561768 
L 539.662806 23.620053 
L 540.747929 23.620053 
L 540.747929 35.873043 
L 541.833051 35.873043 
L 541.833051 40.973219 
L 542.918173 40.973219 
L 542.918173 50.17867 
L 544.003296 50.17867 
L 544.003296 63.437034 
L 545.088418 63.437034 
L 545.088418 69.354076 
L 546.173541 69.354076 
L 546.173541 75.899476 
L 547.258663 75.899476 
L 547.258663 83.617812 
L 548.343785 83.617812 
L 548.343785 90.697317 
L 549.428908 90.697317 
L 549.428908 92.132069 
L 550.51403 92.132069 
L 550.51403 95.54615 
L 551.599153 95.54615 
L 551.599153 97.001847 
L 552.684275 97.001847 
L 552.684275 96.488688 
L 553.769397 96.488688 
L 553.769397 94.111398 
L 554.85452 94.111398 
L 554.85452 88.026794 
L 555.939642 88.026794 
L 555.939642 80.455075 
L 557.024764 80.455075 
L 557.024764 73.564077 
L 558.109887 73.564077 
L 558.109887 59.740191 
L 559.195009 59.740191 
L 559.195009 50.901283 
L 560.280132 50.901283 
L 560.280132 47.508147 
L 561.365254 47.508147 
L 561.365254 35.46461 
L 562.450376 35.46461 
L 562.450376 34.55349 
L 563.535499 34.55349 
L 563.535499 48.000361 
L 564.620621 48.000361 
L 564.620621 54.608597 
L 565.705743 54.608597 
L 565.705743 60.703674 
L 566.790866 60.703674 
L 566.790866 73.082336 
L 567.875988 73.082336 
L 567.875988 79.344975 
L 568.961111 79.344975 
L 568.961111 88.48759 
L 570.046233 88.48759 
L 570.046233 99.127793 
L 571.131355 99.127793 
L 571.131355 106.542423 
L 572.216478 106.542423 
L 572.216478 110.522026 
L 573.3016 110.522026 
L 573.3016 121.549717 
L 574.386722 121.549717 
L 574.386722 123.298648 
L 575.471845 123.298648 
L 575.471845 129.980193 
L 576.556967 129.980193 
L 576.556967 140.55756 
L 577.64209 140.55756 
L 577.64209 142.505471 
L 578.727212 142.505471 
L 578.727212 146.589801 
L 579.812334 146.589801 
L 579.812334 154.538536 
L 580.897457 154.538536 
L 580.897457 158.287741 
L 581.982579 158.287741 
L 581.982579 159.251224 
L 583.067702 159.251224 
L 583.067702 167.514137 
L 584.152824 167.514137 
L 584.152824 169.74481 
L 585.237946 169.74481 
L 585.237946 174.394662 
L 586.323069 174.394662 
L 586.323069 175.473344 
L 587.408191 175.473344 
L 587.408191 180.301232 
L 588.493313 180.301232 
L 588.493313 182.856556 
L 589.578436 182.856556 
L 589.578436 185.736532 
L 590.663558 185.736532 
L 590.663558 189.29723 
L 591.748681 189.29723 
L 591.748681 191.391758 
L 592.833803 191.391758 
L 592.833803 194.837257 
L 593.918925 194.837257 
L 593.918925 196.125392 
L 595.004048 196.125392 
L 595.004048 197.570616 
L 596.08917 197.570616 
L 596.08917 199.926961 
L 597.174292 199.926961 
L 597.174292 202.754574 
L 598.259415 202.754574 
L 598.259415 203.937982 
L 599.344537 203.937982 
L 599.344537 207.100719 
L 600.42966 207.100719 
L 600.42966 209.383755 
L 601.514782 209.383755 
L 601.514782 209.687462 
L 602.599904 209.687462 
L 602.599904 212.253259 
L 603.685027 212.253259 
L 603.685027 214.232588 
L 605.855271 214.305896 
L 605.855271 215.719703 
L 606.940394 215.719703 
L 606.940394 216.536569 
L 608.025516 216.536569 
L 608.025516 217.740922 
L 609.110639 217.740922 
L 609.110639 219.186147 
L 610.195761 219.186147 
L 610.195761 220.34861 
L 611.280883 220.34861 
L 611.280883 220.673262 
L 612.366006 220.673262 
L 612.366006 222.003287 
L 613.451128 222.003287 
L 613.451128 223.061024 
L 614.53625 223.061024 
L 614.53625 225.18697 
L 615.621373 225.18697 
L 615.621373 225.312642 
L 617.791618 225.207915 
L 617.791618 226.422742 
L 618.87674 226.422742 
L 618.87674 228.213563 
L 619.961862 228.213563 
L 619.961862 226.956846 
L 621.046985 226.956846 
L 621.046985 228.925703 
L 622.132107 228.925703 
L 622.132107 229.836823 
L 623.21723 229.836823 
L 623.21723 229.449335 
L 624.302352 229.449335 
L 624.302352 230.884087 
L 625.387474 230.884087 
L 625.387474 231.805679 
L 626.472597 231.805679 
L 626.472597 232.193167 
L 628.642841 232.24553 
L 628.642841 232.790107 
L 629.727964 232.790107 
L 629.727964 233.428938 
L 630.813086 233.428938 
L 630.813086 234.182968 
L 631.898209 234.182968 
L 631.898209 234.769436 
L 632.983331 234.769436 
L 632.983331 235.251178 
L 634.068453 235.251178 
L 634.068453 235.795755 
L 635.153576 235.795755 
L 635.153576 235.931899 
L 637.32382 235.952845 
L 637.32382 236.141352 
L 638.408943 236.141352 
L 638.408943 236.52884 
L 641.66431 236.434586 
L 641.66431 238.204462 
L 642.749432 238.204462 
L 642.749432 237.827447 
L 643.834555 237.827447 
L 643.834555 237.43996 
L 644.919677 237.43996 
L 644.919677 238.466279 
L 648.175044 238.361552 
L 648.175044 239.199363 
L 650.345289 239.094637 
L 650.345289 239.597324 
L 651.430411 239.597324 
L 651.430411 239.314562 
L 652.515534 239.314562 
L 652.515534 239.85914 
L 653.600656 239.85914 
L 653.600656 240.120956 
L 654.685779 240.120956 
L 654.685779 240.717896 
L 655.770901 240.717896 
L 655.770901 240.267573 
L 656.856023 240.267573 
L 656.856023 240.529389 
L 659.026268 240.550334 
L 659.026268 240.885459 
L 660.11139 240.885459 
L 660.11139 240.508443 
L 661.196513 240.508443 
L 661.196513 241.084439 
L 663.366758 241.16822 
L 663.366758 241.461454 
L 665.537002 241.555708 
L 665.537002 241.943195 
L 666.622125 241.943195 
L 666.622125 241.639489 
L 667.707247 241.639489 
L 667.707247 241.775633 
L 668.792369 241.775633 
L 668.792369 242.110757 
L 670.962614 242.184066 
L 670.962614 242.341156 
L 673.132859 242.246902 
L 673.132859 242.990459 
L 674.217981 242.990459 
L 674.217981 242.529663 
L 677.473348 242.456355 
L 677.473348 242.739116 
L 678.558471 242.739116 
L 678.558471 243.095186 
L 679.643593 243.095186 
L 679.643593 242.969514 
L 682.89896 243.03235 
L 682.89896 243.199912 
L 683.984083 243.199912 
L 683.984083 243.38842 
L 685.069205 243.38842 
L 685.069205 243.063768 
L 686.154327 243.063768 
L 686.154327 243.419838 
L 687.23945 243.419838 
L 687.23945 243.283693 
L 688.324572 243.283693 
L 688.324572 243.702599 
L 689.409695 243.702599 
L 689.409695 243.482673 
L 690.494817 243.482673 
L 690.494817 243.639763 
L 694.835307 243.5874 
L 694.835307 243.78638 
L 698.090674 243.849216 
L 698.090674 244.016778 
L 701.346041 243.912052 
L 701.346041 244.131977 
L 703.516286 244.090087 
L 703.516286 244.372848 
L 704.601408 244.372848 
L 704.601408 244.247176 
L 708.941897 244.215758 
L 708.941897 244.362375 
L 712.197265 244.446156 
L 712.197265 244.634664 
L 715.452632 244.655609 
L 715.452632 244.435684 
L 717.622876 244.519465 
L 717.622876 244.73939 
L 718.707999 244.73939 
L 718.707999 244.959316 
L 719.793121 244.959316 
L 719.793121 244.770808 
L 723.048488 244.718445 
L 723.048488 244.561355 
L 724.133611 244.561355 
L 724.133611 244.687027 
L 725.218733 244.687027 
L 725.218733 244.938371 
L 727.388978 244.906953 
L 727.388978 245.084987 
L 728.4741 245.084987 
L 728.4741 244.89648 
L 729.559223 244.89648 
L 729.559223 245.032624 
L 730.644345 245.032624 
L 730.644345 244.886007 
L 733.899712 244.938371 
L 733.899712 245.09546 
L 734.984835 245.09546 
L 734.984835 244.980261 
L 739.325324 244.89648 
L 739.325324 245.116405 
L 740.410446 245.116405 
L 740.410446 244.990734 
L 741.495569 244.990734 
L 741.495569 244.854589 
L 742.580691 244.854589 
L 742.580691 245.179241 
L 743.665814 245.179241 
L 743.665814 245.29444 
L 744.750936 245.29444 
L 744.750936 245.032624 
L 745.836058 245.032624 
L 745.836058 245.147823 
L 752.346793 245.137351 
L 752.346793 245.283968 
L 756.687282 245.29444 
L 756.687282 245.430585 
L 757.772404 245.430585 
L 757.772404 245.179241 
L 758.857527 245.179241 
L 758.857527 245.357276 
L 763.198016 245.409639 
L 763.198016 245.210659 
L 764.283139 245.210659 
L 764.283139 245.357276 
L 770.793873 245.441057 
L 770.793873 245.503893 
L 771.878995 245.503893 
L 771.878995 245.325858 
L 772.964118 245.325858 
L 772.964118 245.462003 
L 782.730219 245.49342 
L 782.730219 245.619092 
L 787.070709 245.524838 
L 787.070709 245.462003 
L 788.155831 245.462003 
L 788.155831 245.598147 
L 809.858279 245.692401 
L 809.858279 245.713346 
L 848.922684 245.723819 
L 848.922684 245.723819 
" clip-path="url(#p0cca557a6c)" style="fill: none; stroke: #1f77b4; stroke-width: 1.5; stroke-linecap: square"/>
   </g>
   <g id="patch_8">
    <path d="M 507.109135 257.158895 
L 507.109135 7.2 
" style="fill: none; stroke: #000000; stroke-width: 0.8; stroke-linejoin: miter; stroke-linecap: square"/>
   </g>
   <g id="patch_9">
    <path d="M 865.19952 257.158895 
L 865.19952 7.2 
" style="fill: none; stroke: #000000; stroke-width: 0.8; stroke-linejoin: miter; stroke-linecap: square"/>
   </g>
   <g id="patch_10">
    <path d="M 507.109135 257.158895 
L 865.19952 257.158895 
" style="fill: none; stroke: #000000; stroke-width: 0.8; stroke-linejoin: miter; stroke-linecap: square"/>
   </g>
   <g id="patch_11">
    <path d="M 507.109135 7.2 
L 865.19952 7.2 
" style="fill: none; stroke: #000000; stroke-width: 0.8; stroke-linejoin: miter; stroke-linecap: square"/>
   </g>
  </g>
 </g>
 <defs>
  <clipPath id="p30425503f3">
   <rect x="53.328125" y="7.2" width="358.090385" height="249.958895"/>
  </clipPath>
  <clipPath id="p0cca557a6c">
   <rect x="507.109135" y="7.2" width="358.090385" height="249.958895"/>
  </clipPath>
 </defs>
</svg>
