<?xml version="1.0" encoding="utf-8" standalone="no"?>
<!DOCTYPE svg PUBLIC "-//W3C//DTD SVG 1.1//EN"
  "http://www.w3.org/Graphics/SVG/1.1/DTD/svg11.dtd">
<svg xmlns:xlink="http://www.w3.org/1999/xlink" width="872.39952pt" height="296.39952pt" viewBox="0 0 872.39952 296.39952" xmlns="http://www.w3.org/2000/svg" version="1.1">
 <metadata>
  <rdf:RDF xmlns:dc="http://purl.org/dc/elements/1.1/" xmlns:cc="http://creativecommons.org/ns#" xmlns:rdf="http://www.w3.org/1999/02/22-rdf-syntax-ns#">
   <cc:Work>
    <dc:type rdf:resource="http://purl.org/dc/dcmitype/StillImage"/>
    <dc:date>2025-10-10T17:28:29.514857</dc:date>
    <dc:format>image/svg+xml</dc:format>
    <dc:creator>
     <cc:Agent>
      <dc:title>Matplotlib v3.10.6, https://matplotlib.org/</dc:title>
     </cc:Agent>
    </dc:creator>
   </cc:Work>
  </rdf:RDF>
 </metadata>
 <defs>
  <style type="text/css">*{stroke-linejoin: round; stroke-linecap: butt}</style>
 </defs>
 <g id="figure_1">
  <g id="patch_1">
   <path d="M 0 296.39952 
L 872.39952 296.39952 
L 872.39952 0 
L 0 0 
z
" style="fill: #ffffff"/>
  </g>
  <g id="axes_1">
   <g id="patch_2">
    <path d="M 53.328125 257.158895 
L 414.59976 257.158895 
L 414.59976 7.2 
L 53.328125 7.2 
z
" style="fill: #ffffff"/>
   </g>
   <g id="matplotlib.axis_1">
    <g id="xtick_1">
     <g id="line2d_1">
      <defs>
       <path id="mc8cdeddd30" d="M 0 0 
L 0 3.5 
" style="stroke: #000000; stroke-width: 0.8"/>
      </defs>
      <g>
       <use xlink:href="#mc8cdeddd30" x="69.748904" y="257.158895" style="stroke: #000000; stroke-width: 0.8"/>
      </g>
     </g>
     <g id="text_1">
      <!-- 1000 -->
      <g transform="translate(57.023904 271.757332) scale(0.1 -0.1)">
       <defs>
        <path id="DejaVuSans-31" d="M 794 531 
L 1825 531 
L 1825 4091 
L 703 3866 
L 703 4441 
L 1819 4666 
L 2450 4666 
L 2450 531 
L 3481 531 
L 3481 0 
L 794 0 
L 794 531 
z
" transform="scale(0.015625)"/>
        <path id="DejaVuSans-30" d="M 2034 4250 
Q 1547 4250 1301 3770 
Q 1056 3291 1056 2328 
Q 1056 1369 1301 889 
Q 1547 409 2034 409 
Q 2525 409 2770 889 
Q 3016 1369 3016 2328 
Q 3016 3291 2770 3770 
Q 2525 4250 2034 4250 
z
M 2034 4750 
Q 2819 4750 3233 4129 
Q 3647 3509 3647 2328 
Q 3647 1150 3233 529 
Q 2819 -91 2034 -91 
Q 1250 -91 836 529 
Q 422 1150 422 2328 
Q 422 3509 836 4129 
Q 1250 4750 2034 4750 
z
" transform="scale(0.015625)"/>
       </defs>
       <use xlink:href="#DejaVuSans-31"/>
       <use xlink:href="#DejaVuSans-30" transform="translate(63.623047 0)"/>
       <use xlink:href="#DejaVuSans-30" transform="translate(127.246094 0)"/>
       <use xlink:href="#DejaVuSans-30" transform="translate(190.869141 0)"/>
      </g>
     </g>
    </g>
    <g id="xtick_2">
     <g id="line2d_2">
      <g>
       <use xlink:href="#mc8cdeddd30" x="110.802585" y="257.158895" style="stroke: #000000; stroke-width: 0.8"/>
      </g>
     </g>
     <g id="text_2">
      <!-- 1250 -->
      <g transform="translate(98.077585 271.757332) scale(0.1 -0.1)">
       <defs>
        <path id="DejaVuSans-32" d="M 1228 531 
L 3431 531 
L 3431 0 
L 469 0 
L 469 531 
Q 828 903 1448 1529 
Q 2069 2156 2228 2338 
Q 2531 2678 2651 2914 
Q 2772 3150 2772 3378 
Q 2772 3750 2511 3984 
Q 2250 4219 1831 4219 
Q 1534 4219 1204 4116 
Q 875 4013 500 3803 
L 500 4441 
Q 881 4594 1212 4672 
Q 1544 4750 1819 4750 
Q 2544 4750 2975 4387 
Q 3406 4025 3406 3419 
Q 3406 3131 3298 2873 
Q 3191 2616 2906 2266 
Q 2828 2175 2409 1742 
Q 1991 1309 1228 531 
z
" transform="scale(0.015625)"/>
        <path id="DejaVuSans-35" d="M 691 4666 
L 3169 4666 
L 3169 4134 
L 1269 4134 
L 1269 2991 
Q 1406 3038 1543 3061 
Q 1681 3084 1819 3084 
Q 2600 3084 3056 2656 
Q 3513 2228 3513 1497 
Q 3513 744 3044 326 
Q 2575 -91 1722 -91 
Q 1428 -91 1123 -41 
Q 819 9 494 109 
L 494 744 
Q 775 591 1075 516 
Q 1375 441 1709 441 
Q 2250 441 2565 725 
Q 2881 1009 2881 1497 
Q 2881 1984 2565 2268 
Q 2250 2553 1709 2553 
Q 1456 2553 1204 2497 
Q 953 2441 691 2322 
L 691 4666 
z
" transform="scale(0.015625)"/>
       </defs>
       <use xlink:href="#DejaVuSans-31"/>
       <use xlink:href="#DejaVuSans-32" transform="translate(63.623047 0)"/>
       <use xlink:href="#DejaVuSans-35" transform="translate(127.246094 0)"/>
       <use xlink:href="#DejaVuSans-30" transform="translate(190.869141 0)"/>
      </g>
     </g>
    </g>
    <g id="xtick_3">
     <g id="line2d_3">
      <g>
       <use xlink:href="#mc8cdeddd30" x="151.856266" y="257.158895" style="stroke: #000000; stroke-width: 0.8"/>
      </g>
     </g>
     <g id="text_3">
      <!-- 1500 -->
      <g transform="translate(139.131266 271.757332) scale(0.1 -0.1)">
       <use xlink:href="#DejaVuSans-31"/>
       <use xlink:href="#DejaVuSans-35" transform="translate(63.623047 0)"/>
       <use xlink:href="#DejaVuSans-30" transform="translate(127.246094 0)"/>
       <use xlink:href="#DejaVuSans-30" transform="translate(190.869141 0)"/>
      </g>
     </g>
    </g>
    <g id="xtick_4">
     <g id="line2d_4">
      <g>
       <use xlink:href="#mc8cdeddd30" x="192.909947" y="257.158895" style="stroke: #000000; stroke-width: 0.8"/>
      </g>
     </g>
     <g id="text_4">
      <!-- 1750 -->
      <g transform="translate(180.184947 271.757332) scale(0.1 -0.1)">
       <defs>
        <path id="DejaVuSans-37" d="M 525 4666 
L 3525 4666 
L 3525 4397 
L 1831 0 
L 1172 0 
L 2766 4134 
L 525 4134 
L 525 4666 
z
" transform="scale(0.015625)"/>
       </defs>
       <use xlink:href="#DejaVuSans-31"/>
       <use xlink:href="#DejaVuSans-37" transform="translate(63.623047 0)"/>
       <use xlink:href="#DejaVuSans-35" transform="translate(127.246094 0)"/>
       <use xlink:href="#DejaVuSans-30" transform="translate(190.869141 0)"/>
      </g>
     </g>
    </g>
    <g id="xtick_5">
     <g id="line2d_5">
      <g>
       <use xlink:href="#mc8cdeddd30" x="233.963628" y="257.158895" style="stroke: #000000; stroke-width: 0.8"/>
      </g>
     </g>
     <g id="text_5">
      <!-- 2000 -->
      <g transform="translate(221.238628 271.757332) scale(0.1 -0.1)">
       <use xlink:href="#DejaVuSans-32"/>
       <use xlink:href="#DejaVuSans-30" transform="translate(63.623047 0)"/>
       <use xlink:href="#DejaVuSans-30" transform="translate(127.246094 0)"/>
       <use xlink:href="#DejaVuSans-30" transform="translate(190.869141 0)"/>
      </g>
     </g>
    </g>
    <g id="xtick_6">
     <g id="line2d_6">
      <g>
       <use xlink:href="#mc8cdeddd30" x="275.017308" y="257.158895" style="stroke: #000000; stroke-width: 0.8"/>
      </g>
     </g>
     <g id="text_6">
      <!-- 2250 -->
      <g transform="translate(262.292308 271.757332) scale(0.1 -0.1)">
       <use xlink:href="#DejaVuSans-32"/>
       <use xlink:href="#DejaVuSans-32" transform="translate(63.623047 0)"/>
       <use xlink:href="#DejaVuSans-35" transform="translate(127.246094 0)"/>
       <use xlink:href="#DejaVuSans-30" transform="translate(190.869141 0)"/>
      </g>
     </g>
    </g>
    <g id="xtick_7">
     <g id="line2d_7">
      <g>
       <use xlink:href="#mc8cdeddd30" x="316.070989" y="257.158895" style="stroke: #000000; stroke-width: 0.8"/>
      </g>
     </g>
     <g id="text_7">
      <!-- 2500 -->
      <g transform="translate(303.345989 271.757332) scale(0.1 -0.1)">
       <use xlink:href="#DejaVuSans-32"/>
       <use xlink:href="#DejaVuSans-35" transform="translate(63.623047 0)"/>
       <use xlink:href="#DejaVuSans-30" transform="translate(127.246094 0)"/>
       <use xlink:href="#DejaVuSans-30" transform="translate(190.869141 0)"/>
      </g>
     </g>
    </g>
    <g id="xtick_8">
     <g id="line2d_8">
      <g>
       <use xlink:href="#mc8cdeddd30" x="357.12467" y="257.158895" style="stroke: #000000; stroke-width: 0.8"/>
      </g>
     </g>
     <g id="text_8">
      <!-- 2750 -->
      <g transform="translate(344.39967 271.757332) scale(0.1 -0.1)">
       <use xlink:href="#DejaVuSans-32"/>
       <use xlink:href="#DejaVuSans-37" transform="translate(63.623047 0)"/>
       <use xlink:href="#DejaVuSans-35" transform="translate(127.246094 0)"/>
       <use xlink:href="#DejaVuSans-30" transform="translate(190.869141 0)"/>
      </g>
     </g>
    </g>
    <g id="xtick_9">
     <g id="line2d_9">
      <g>
       <use xlink:href="#mc8cdeddd30" x="398.178351" y="257.158895" style="stroke: #000000; stroke-width: 0.8"/>
      </g>
     </g>
     <g id="text_9">
      <!-- 3000 -->
      <g transform="translate(385.453351 271.757332) scale(0.1 -0.1)">
       <defs>
        <path id="DejaVuSans-33" d="M 2597 2516 
Q 3050 2419 3304 2112 
Q 3559 1806 3559 1356 
Q 3559 666 3084 287 
Q 2609 -91 1734 -91 
Q 1441 -91 1130 -33 
Q 819 25 488 141 
L 488 750 
Q 750 597 1062 519 
Q 1375 441 1716 441 
Q 2309 441 2620 675 
Q 2931 909 2931 1356 
Q 2931 1769 2642 2001 
Q 2353 2234 1838 2234 
L 1294 2234 
L 1294 2753 
L 1863 2753 
Q 2328 2753 2575 2939 
Q 2822 3125 2822 3475 
Q 2822 3834 2567 4026 
Q 2313 4219 1838 4219 
Q 1578 4219 1281 4162 
Q 984 4106 628 3988 
L 628 4550 
Q 988 4650 1302 4700 
Q 1616 4750 1894 4750 
Q 2613 4750 3031 4423 
Q 3450 4097 3450 3541 
Q 3450 3153 3228 2886 
Q 3006 2619 2597 2516 
z
" transform="scale(0.015625)"/>
       </defs>
       <use xlink:href="#DejaVuSans-33"/>
       <use xlink:href="#DejaVuSans-30" transform="translate(63.623047 0)"/>
       <use xlink:href="#DejaVuSans-30" transform="translate(127.246094 0)"/>
       <use xlink:href="#DejaVuSans-30" transform="translate(190.869141 0)"/>
      </g>
     </g>
    </g>
    <g id="text_10">
     <!-- birth_time [µs] -->
     <g transform="translate(197.14363 285.435457) scale(0.1 -0.1)">
      <defs>
       <path id="DejaVuSans-62" d="M 3116 1747 
Q 3116 2381 2855 2742 
Q 2594 3103 2138 3103 
Q 1681 3103 1420 2742 
Q 1159 2381 1159 1747 
Q 1159 1113 1420 752 
Q 1681 391 2138 391 
Q 2594 391 2855 752 
Q 3116 1113 3116 1747 
z
M 1159 2969 
Q 1341 3281 1617 3432 
Q 1894 3584 2278 3584 
Q 2916 3584 3314 3078 
Q 3713 2572 3713 1747 
Q 3713 922 3314 415 
Q 2916 -91 2278 -91 
Q 1894 -91 1617 61 
Q 1341 213 1159 525 
L 1159 0 
L 581 0 
L 581 4863 
L 1159 4863 
L 1159 2969 
z
" transform="scale(0.015625)"/>
       <path id="DejaVuSans-69" d="M 603 3500 
L 1178 3500 
L 1178 0 
L 603 0 
L 603 3500 
z
M 603 4863 
L 1178 4863 
L 1178 4134 
L 603 4134 
L 603 4863 
z
" transform="scale(0.015625)"/>
       <path id="DejaVuSans-72" d="M 2631 2963 
Q 2534 3019 2420 3045 
Q 2306 3072 2169 3072 
Q 1681 3072 1420 2755 
Q 1159 2438 1159 1844 
L 1159 0 
L 581 0 
L 581 3500 
L 1159 3500 
L 1159 2956 
Q 1341 3275 1631 3429 
Q 1922 3584 2338 3584 
Q 2397 3584 2469 3576 
Q 2541 3569 2628 3553 
L 2631 2963 
z
" transform="scale(0.015625)"/>
       <path id="DejaVuSans-74" d="M 1172 4494 
L 1172 3500 
L 2356 3500 
L 2356 3053 
L 1172 3053 
L 1172 1153 
Q 1172 725 1289 603 
Q 1406 481 1766 481 
L 2356 481 
L 2356 0 
L 1766 0 
Q 1100 0 847 248 
Q 594 497 594 1153 
L 594 3053 
L 172 3053 
L 172 3500 
L 594 3500 
L 594 4494 
L 1172 4494 
z
" transform="scale(0.015625)"/>
       <path id="DejaVuSans-68" d="M 3513 2113 
L 3513 0 
L 2938 0 
L 2938 2094 
Q 2938 2591 2744 2837 
Q 2550 3084 2163 3084 
Q 1697 3084 1428 2787 
Q 1159 2491 1159 1978 
L 1159 0 
L 581 0 
L 581 4863 
L 1159 4863 
L 1159 2956 
Q 1366 3272 1645 3428 
Q 1925 3584 2291 3584 
Q 2894 3584 3203 3211 
Q 3513 2838 3513 2113 
z
" transform="scale(0.015625)"/>
       <path id="DejaVuSans-5f" d="M 3263 -1063 
L 3263 -1509 
L -63 -1509 
L -63 -1063 
L 3263 -1063 
z
" transform="scale(0.015625)"/>
       <path id="DejaVuSans-6d" d="M 3328 2828 
Q 3544 3216 3844 3400 
Q 4144 3584 4550 3584 
Q 5097 3584 5394 3201 
Q 5691 2819 5691 2113 
L 5691 0 
L 5113 0 
L 5113 2094 
Q 5113 2597 4934 2840 
Q 4756 3084 4391 3084 
Q 3944 3084 3684 2787 
Q 3425 2491 3425 1978 
L 3425 0 
L 2847 0 
L 2847 2094 
Q 2847 2600 2669 2842 
Q 2491 3084 2119 3084 
Q 1678 3084 1418 2786 
Q 1159 2488 1159 1978 
L 1159 0 
L 581 0 
L 581 3500 
L 1159 3500 
L 1159 2956 
Q 1356 3278 1631 3431 
Q 1906 3584 2284 3584 
Q 2666 3584 2933 3390 
Q 3200 3197 3328 2828 
z
" transform="scale(0.015625)"/>
       <path id="DejaVuSans-65" d="M 3597 1894 
L 3597 1613 
L 953 1613 
Q 991 1019 1311 708 
Q 1631 397 2203 397 
Q 2534 397 2845 478 
Q 3156 559 3463 722 
L 3463 178 
Q 3153 47 2828 -22 
Q 2503 -91 2169 -91 
Q 1331 -91 842 396 
Q 353 884 353 1716 
Q 353 2575 817 3079 
Q 1281 3584 2069 3584 
Q 2775 3584 3186 3129 
Q 3597 2675 3597 1894 
z
M 3022 2063 
Q 3016 2534 2758 2815 
Q 2500 3097 2075 3097 
Q 1594 3097 1305 2825 
Q 1016 2553 972 2059 
L 3022 2063 
z
" transform="scale(0.015625)"/>
       <path id="DejaVuSans-20" transform="scale(0.015625)"/>
       <path id="DejaVuSans-5b" d="M 550 4863 
L 1875 4863 
L 1875 4416 
L 1125 4416 
L 1125 -397 
L 1875 -397 
L 1875 -844 
L 550 -844 
L 550 4863 
z
" transform="scale(0.015625)"/>
       <path id="DejaVuSans-b5" d="M 544 -1331 
L 544 3500 
L 1119 3500 
L 1119 1325 
Q 1119 872 1334 640 
Q 1550 409 1972 409 
Q 2434 409 2667 671 
Q 2900 934 2900 1459 
L 2900 3500 
L 3475 3500 
L 3475 806 
Q 3475 619 3529 530 
Q 3584 441 3700 441 
Q 3728 441 3778 458 
Q 3828 475 3916 513 
L 3916 50 
Q 3788 -22 3673 -56 
Q 3559 -91 3450 -91 
Q 3234 -91 3106 31 
Q 2978 153 2931 403 
Q 2775 156 2548 32 
Q 2322 -91 2016 -91 
Q 1697 -91 1473 31 
Q 1250 153 1119 397 
L 1119 -1331 
L 544 -1331 
z
" transform="scale(0.015625)"/>
       <path id="DejaVuSans-73" d="M 2834 3397 
L 2834 2853 
Q 2591 2978 2328 3040 
Q 2066 3103 1784 3103 
Q 1356 3103 1142 2972 
Q 928 2841 928 2578 
Q 928 2378 1081 2264 
Q 1234 2150 1697 2047 
L 1894 2003 
Q 2506 1872 2764 1633 
Q 3022 1394 3022 966 
Q 3022 478 2636 193 
Q 2250 -91 1575 -91 
Q 1294 -91 989 -36 
Q 684 19 347 128 
L 347 722 
Q 666 556 975 473 
Q 1284 391 1588 391 
Q 1994 391 2212 530 
Q 2431 669 2431 922 
Q 2431 1156 2273 1281 
Q 2116 1406 1581 1522 
L 1381 1569 
Q 847 1681 609 1914 
Q 372 2147 372 2553 
Q 372 3047 722 3315 
Q 1072 3584 1716 3584 
Q 2034 3584 2315 3537 
Q 2597 3491 2834 3397 
z
" transform="scale(0.015625)"/>
       <path id="DejaVuSans-5d" d="M 1947 4863 
L 1947 -844 
L 622 -844 
L 622 -397 
L 1369 -397 
L 1369 4416 
L 622 4416 
L 622 4863 
L 1947 4863 
z
" transform="scale(0.015625)"/>
      </defs>
      <use xlink:href="#DejaVuSans-62"/>
      <use xlink:href="#DejaVuSans-69" transform="translate(63.476562 0)"/>
      <use xlink:href="#DejaVuSans-72" transform="translate(91.259766 0)"/>
      <use xlink:href="#DejaVuSans-74" transform="translate(132.373047 0)"/>
      <use xlink:href="#DejaVuSans-68" transform="translate(171.582031 0)"/>
      <use xlink:href="#DejaVuSans-5f" transform="translate(234.960938 0)"/>
      <use xlink:href="#DejaVuSans-74" transform="translate(284.960938 0)"/>
      <use xlink:href="#DejaVuSans-69" transform="translate(324.169922 0)"/>
      <use xlink:href="#DejaVuSans-6d" transform="translate(351.953125 0)"/>
      <use xlink:href="#DejaVuSans-65" transform="translate(449.365234 0)"/>
      <use xlink:href="#DejaVuSans-20" transform="translate(510.888672 0)"/>
      <use xlink:href="#DejaVuSans-5b" transform="translate(542.675781 0)"/>
      <use xlink:href="#DejaVuSans-b5" transform="translate(581.689453 0)"/>
      <use xlink:href="#DejaVuSans-73" transform="translate(645.3125 0)"/>
      <use xlink:href="#DejaVuSans-5d" transform="translate(697.412109 0)"/>
     </g>
    </g>
   </g>
   <g id="matplotlib.axis_2">
    <g id="ytick_1">
     <g id="line2d_10">
      <defs>
       <path id="mb60d446c65" d="M 0 0 
L -3.5 0 
" style="stroke: #000000; stroke-width: 0.8"/>
      </defs>
      <g>
       <use xlink:href="#mb60d446c65" x="53.328125" y="237.961425" style="stroke: #000000; stroke-width: 0.8"/>
      </g>
     </g>
     <g id="text_11">
      <!-- 3200 -->
      <g transform="translate(20.878125 241.760644) scale(0.1 -0.1)">
       <use xlink:href="#DejaVuSans-33"/>
       <use xlink:href="#DejaVuSans-32" transform="translate(63.623047 0)"/>
       <use xlink:href="#DejaVuSans-30" transform="translate(127.246094 0)"/>
       <use xlink:href="#DejaVuSans-30" transform="translate(190.869141 0)"/>
      </g>
     </g>
    </g>
    <g id="ytick_2">
     <g id="line2d_11">
      <g>
       <use xlink:href="#mb60d446c65" x="53.328125" y="202.344598" style="stroke: #000000; stroke-width: 0.8"/>
      </g>
     </g>
     <g id="text_12">
      <!-- 3250 -->
      <g transform="translate(20.878125 206.143816) scale(0.1 -0.1)">
       <use xlink:href="#DejaVuSans-33"/>
       <use xlink:href="#DejaVuSans-32" transform="translate(63.623047 0)"/>
       <use xlink:href="#DejaVuSans-35" transform="translate(127.246094 0)"/>
       <use xlink:href="#DejaVuSans-30" transform="translate(190.869141 0)"/>
      </g>
     </g>
    </g>
    <g id="ytick_3">
     <g id="line2d_12">
      <g>
       <use xlink:href="#mb60d446c65" x="53.328125" y="166.72777" style="stroke: #000000; stroke-width: 0.8"/>
      </g>
     </g>
     <g id="text_13">
      <!-- 3300 -->
      <g transform="translate(20.878125 170.526989) scale(0.1 -0.1)">
       <use xlink:href="#DejaVuSans-33"/>
       <use xlink:href="#DejaVuSans-33" transform="translate(63.623047 0)"/>
       <use xlink:href="#DejaVuSans-30" transform="translate(127.246094 0)"/>
       <use xlink:href="#DejaVuSans-30" transform="translate(190.869141 0)"/>
      </g>
     </g>
    </g>
    <g id="ytick_4">
     <g id="line2d_13">
      <g>
       <use xlink:href="#mb60d446c65" x="53.328125" y="131.110943" style="stroke: #000000; stroke-width: 0.8"/>
      </g>
     </g>
     <g id="text_14">
      <!-- 3350 -->
      <g transform="translate(20.878125 134.910161) scale(0.1 -0.1)">
       <use xlink:href="#DejaVuSans-33"/>
       <use xlink:href="#DejaVuSans-33" transform="translate(63.623047 0)"/>
       <use xlink:href="#DejaVuSans-35" transform="translate(127.246094 0)"/>
       <use xlink:href="#DejaVuSans-30" transform="translate(190.869141 0)"/>
      </g>
     </g>
    </g>
    <g id="ytick_5">
     <g id="line2d_14">
      <g>
       <use xlink:href="#mb60d446c65" x="53.328125" y="95.494115" style="stroke: #000000; stroke-width: 0.8"/>
      </g>
     </g>
     <g id="text_15">
      <!-- 3400 -->
      <g transform="translate(20.878125 99.293334) scale(0.1 -0.1)">
       <defs>
        <path id="DejaVuSans-34" d="M 2419 4116 
L 825 1625 
L 2419 1625 
L 2419 4116 
z
M 2253 4666 
L 3047 4666 
L 3047 1625 
L 3713 1625 
L 3713 1100 
L 3047 1100 
L 3047 0 
L 2419 0 
L 2419 1100 
L 313 1100 
L 313 1709 
L 2253 4666 
z
" transform="scale(0.015625)"/>
       </defs>
       <use xlink:href="#DejaVuSans-33"/>
       <use xlink:href="#DejaVuSans-34" transform="translate(63.623047 0)"/>
       <use xlink:href="#DejaVuSans-30" transform="translate(127.246094 0)"/>
       <use xlink:href="#DejaVuSans-30" transform="translate(190.869141 0)"/>
      </g>
     </g>
    </g>
    <g id="ytick_6">
     <g id="line2d_15">
      <g>
       <use xlink:href="#mb60d446c65" x="53.328125" y="59.877288" style="stroke: #000000; stroke-width: 0.8"/>
      </g>
     </g>
     <g id="text_16">
      <!-- 3450 -->
      <g transform="translate(20.878125 63.676507) scale(0.1 -0.1)">
       <use xlink:href="#DejaVuSans-33"/>
       <use xlink:href="#DejaVuSans-34" transform="translate(63.623047 0)"/>
       <use xlink:href="#DejaVuSans-35" transform="translate(127.246094 0)"/>
       <use xlink:href="#DejaVuSans-30" transform="translate(190.869141 0)"/>
      </g>
     </g>
    </g>
    <g id="ytick_7">
     <g id="line2d_16">
      <g>
       <use xlink:href="#mb60d446c65" x="53.328125" y="24.26046" style="stroke: #000000; stroke-width: 0.8"/>
      </g>
     </g>
     <g id="text_17">
      <!-- 3500 -->
      <g transform="translate(20.878125 28.059679) scale(0.1 -0.1)">
       <use xlink:href="#DejaVuSans-33"/>
       <use xlink:href="#DejaVuSans-35" transform="translate(63.623047 0)"/>
       <use xlink:href="#DejaVuSans-30" transform="translate(127.246094 0)"/>
       <use xlink:href="#DejaVuSans-30" transform="translate(190.869141 0)"/>
      </g>
     </g>
    </g>
    <g id="text_18">
     <!-- pulse:0 [counts] -->
     <g transform="translate(14.798438 172.659916) rotate(-90) scale(0.1 -0.1)">
      <defs>
       <path id="DejaVuSans-70" d="M 1159 525 
L 1159 -1331 
L 581 -1331 
L 581 3500 
L 1159 3500 
L 1159 2969 
Q 1341 3281 1617 3432 
Q 1894 3584 2278 3584 
Q 2916 3584 3314 3078 
Q 3713 2572 3713 1747 
Q 3713 922 3314 415 
Q 2916 -91 2278 -91 
Q 1894 -91 1617 61 
Q 1341 213 1159 525 
z
M 3116 1747 
Q 3116 2381 2855 2742 
Q 2594 3103 2138 3103 
Q 1681 3103 1420 2742 
Q 1159 2381 1159 1747 
Q 1159 1113 1420 752 
Q 1681 391 2138 391 
Q 2594 391 2855 752 
Q 3116 1113 3116 1747 
z
" transform="scale(0.015625)"/>
       <path id="DejaVuSans-75" d="M 544 1381 
L 544 3500 
L 1119 3500 
L 1119 1403 
Q 1119 906 1312 657 
Q 1506 409 1894 409 
Q 2359 409 2629 706 
Q 2900 1003 2900 1516 
L 2900 3500 
L 3475 3500 
L 3475 0 
L 2900 0 
L 2900 538 
Q 2691 219 2414 64 
Q 2138 -91 1772 -91 
Q 1169 -91 856 284 
Q 544 659 544 1381 
z
M 1991 3584 
L 1991 3584 
z
" transform="scale(0.015625)"/>
       <path id="DejaVuSans-6c" d="M 603 4863 
L 1178 4863 
L 1178 0 
L 603 0 
L 603 4863 
z
" transform="scale(0.015625)"/>
       <path id="DejaVuSans-3a" d="M 750 794 
L 1409 794 
L 1409 0 
L 750 0 
L 750 794 
z
M 750 3309 
L 1409 3309 
L 1409 2516 
L 750 2516 
L 750 3309 
z
" transform="scale(0.015625)"/>
       <path id="DejaVuSans-63" d="M 3122 3366 
L 3122 2828 
Q 2878 2963 2633 3030 
Q 2388 3097 2138 3097 
Q 1578 3097 1268 2742 
Q 959 2388 959 1747 
Q 959 1106 1268 751 
Q 1578 397 2138 397 
Q 2388 397 2633 464 
Q 2878 531 3122 666 
L 3122 134 
Q 2881 22 2623 -34 
Q 2366 -91 2075 -91 
Q 1284 -91 818 406 
Q 353 903 353 1747 
Q 353 2603 823 3093 
Q 1294 3584 2113 3584 
Q 2378 3584 2631 3529 
Q 2884 3475 3122 3366 
z
" transform="scale(0.015625)"/>
       <path id="DejaVuSans-6f" d="M 1959 3097 
Q 1497 3097 1228 2736 
Q 959 2375 959 1747 
Q 959 1119 1226 758 
Q 1494 397 1959 397 
Q 2419 397 2687 759 
Q 2956 1122 2956 1747 
Q 2956 2369 2687 2733 
Q 2419 3097 1959 3097 
z
M 1959 3584 
Q 2709 3584 3137 3096 
Q 3566 2609 3566 1747 
Q 3566 888 3137 398 
Q 2709 -91 1959 -91 
Q 1206 -91 779 398 
Q 353 888 353 1747 
Q 353 2609 779 3096 
Q 1206 3584 1959 3584 
z
" transform="scale(0.015625)"/>
       <path id="DejaVuSans-6e" d="M 3513 2113 
L 3513 0 
L 2938 0 
L 2938 2094 
Q 2938 2591 2744 2837 
Q 2550 3084 2163 3084 
Q 1697 3084 1428 2787 
Q 1159 2491 1159 1978 
L 1159 0 
L 581 0 
L 581 3500 
L 1159 3500 
L 1159 2956 
Q 1366 3272 1645 3428 
Q 1925 3584 2291 3584 
Q 2894 3584 3203 3211 
Q 3513 2838 3513 2113 
z
" transform="scale(0.015625)"/>
      </defs>
      <use xlink:href="#DejaVuSans-70"/>
      <use xlink:href="#DejaVuSans-75" transform="translate(63.476562 0)"/>
      <use xlink:href="#DejaVuSans-6c" transform="translate(126.855469 0)"/>
      <use xlink:href="#DejaVuSans-73" transform="translate(154.638672 0)"/>
      <use xlink:href="#DejaVuSans-65" transform="translate(206.738281 0)"/>
      <use xlink:href="#DejaVuSans-3a" transform="translate(268.261719 0)"/>
      <use xlink:href="#DejaVuSans-30" transform="translate(301.953125 0)"/>
      <use xlink:href="#DejaVuSans-20" transform="translate(365.576172 0)"/>
      <use xlink:href="#DejaVuSans-5b" transform="translate(397.363281 0)"/>
      <use xlink:href="#DejaVuSans-63" transform="translate(436.376953 0)"/>
      <use xlink:href="#DejaVuSans-6f" transform="translate(491.357422 0)"/>
      <use xlink:href="#DejaVuSans-75" transform="translate(552.539062 0)"/>
      <use xlink:href="#DejaVuSans-6e" transform="translate(615.917969 0)"/>
      <use xlink:href="#DejaVuSans-74" transform="translate(679.296875 0)"/>
      <use xlink:href="#DejaVuSans-73" transform="translate(718.505859 0)"/>
      <use xlink:href="#DejaVuSans-5d" transform="translate(770.605469 0)"/>
     </g>
    </g>
   </g>
   <g id="line2d_17">
    <path d="M 69.749563 120.425894 
L 70.844325 120.425894 
L 70.844325 138.234308 
L 71.939088 138.234308 
L 71.939088 100.480471 
L 73.033851 100.480471 
L 73.033851 97.631125 
L 74.128613 97.631125 
L 74.128613 121.138231 
L 75.223376 121.138231 
L 75.223376 156.042722 
L 76.318138 156.042722 
L 76.318138 143.220664 
L 77.412901 143.220664 
L 77.412901 213.029646 
L 78.507663 213.029646 
L 78.507663 184.536184 
L 79.602426 184.536184 
L 79.602426 137.521972 
L 80.697188 137.521972 
L 80.697188 156.042722 
L 81.791951 156.042722 
L 81.791951 49.904576 
L 82.886713 49.904576 
L 82.886713 140.371318 
L 83.981476 140.371318 
L 83.981476 129.68627 
L 85.076238 129.68627 
L 85.076238 149.631693 
L 86.171001 149.631693 
L 86.171001 101.192808 
L 87.265763 101.192808 
L 87.265763 148.919356 
L 88.360526 148.919356 
L 88.360526 147.494683 
L 89.455289 147.494683 
L 89.455289 163.878424 
L 90.550051 163.878424 
L 90.550051 175.275809 
L 91.644814 175.275809 
L 91.644814 163.166087 
L 92.739576 163.166087 
L 92.739576 152.481039 
L 93.834339 152.481039 
L 93.834339 211.604973 
L 94.929101 211.604973 
L 94.929101 113.302529 
L 96.023864 113.302529 
L 96.023864 159.604405 
L 97.118626 159.604405 
L 97.118626 96.206452 
L 98.213389 96.206452 
L 98.213389 80.535048 
L 99.308151 80.535048 
L 99.308151 116.864212 
L 100.402914 116.864212 
L 100.402914 163.166087 
L 101.497676 163.166087 
L 101.497676 89.795423 
L 102.592439 89.795423 
L 102.592439 120.425894 
L 103.687201 120.425894 
L 103.687201 93.357106 
L 104.781964 93.357106 
L 104.781964 125.41225 
L 105.876726 125.41225 
L 105.876726 173.851136 
L 106.971489 173.851136 
L 106.971489 121.138231 
L 108.066252 121.138231 
L 108.066252 123.275241 
L 109.161014 123.275241 
L 109.161014 162.453751 
L 110.255777 162.453751 
L 110.255777 200.207588 
L 111.350539 200.207588 
L 111.350539 146.782347 
L 112.445302 146.782347 
L 112.445302 111.165519 
L 113.540064 111.165519 
L 113.540064 158.179732 
L 114.634827 158.179732 
L 114.634827 136.809635 
L 115.729589 136.809635 
L 115.729589 96.918788 
L 116.824352 96.918788 
L 116.824352 148.919356 
L 117.919114 148.919356 
L 117.919114 81.247384 
L 119.013877 81.247384 
L 119.013877 173.138799 
L 120.108639 173.138799 
L 120.108639 199.495251 
L 121.203402 199.495251 
L 121.203402 158.179732 
L 122.298164 158.179732 
L 122.298164 131.823279 
L 123.392927 131.823279 
L 123.392927 116.151875 
L 124.487689 116.151875 
L 124.487689 168.86478 
L 125.582452 168.86478 
L 125.582452 152.481039 
L 126.677215 152.481039 
L 126.677215 77.685702 
L 127.771977 77.685702 
L 127.771977 229.413386 
L 128.86674 229.413386 
L 128.86674 175.275809 
L 129.961502 175.275809 
L 129.961502 168.86478 
L 131.056265 168.86478 
L 131.056265 134.672625 
L 132.151027 134.672625 
L 132.151027 114.727202 
L 133.24579 114.727202 
L 133.24579 87.658413 
L 134.340552 87.658413 
L 134.340552 64.863644 
L 135.435315 64.863644 
L 135.435315 147.494683 
L 136.530077 147.494683 
L 136.530077 170.289453 
L 137.62484 170.289453 
L 137.62484 99.768135 
L 138.719602 99.768135 
L 138.719602 94.069442 
L 139.814365 94.069442 
L 139.814365 132.535616 
L 140.909127 132.535616 
L 140.909127 134.672625 
L 142.00389 134.672625 
L 142.00389 90.507759 
L 143.098652 90.507759 
L 143.098652 132.535616 
L 144.193415 132.535616 
L 144.193415 128.973933 
L 145.288178 128.973933 
L 145.288178 138.234308 
L 146.38294 138.234308 
L 146.38294 116.151875 
L 147.477703 116.151875 
L 147.477703 154.618049 
L 148.572465 154.618049 
L 148.572465 203.769271 
L 149.667228 203.769271 
L 149.667228 185.24852 
L 150.76199 185.24852 
L 150.76199 140.371318 
L 151.856753 140.371318 
L 151.856753 215.166655 
L 152.951515 215.166655 
L 152.951515 121.850568 
L 154.046278 121.850568 
L 154.046278 118.288885 
L 155.14104 118.288885 
L 155.14104 131.110943 
L 156.235803 131.110943 
L 156.235803 135.384962 
L 157.330565 135.384962 
L 157.330565 171.001789 
L 158.425328 171.001789 
L 158.425328 239.386098 
L 159.52009 239.386098 
L 159.52009 123.987577 
L 161.709616 123.987577 
L 161.709616 183.823847 
L 162.804378 183.823847 
L 162.804378 178.837491 
L 163.899141 178.837491 
L 163.899141 161.029078 
L 164.993903 161.029078 
L 164.993903 143.933001 
L 166.088666 143.933001 
L 166.088666 120.425894 
L 167.183428 120.425894 
L 167.183428 116.151875 
L 168.278191 116.151875 
L 168.278191 193.084222 
L 169.372953 193.084222 
L 169.372953 103.329817 
L 170.467716 103.329817 
L 170.467716 156.042722 
L 171.562478 156.042722 
L 171.562478 48.479903 
L 172.657241 48.479903 
L 172.657241 199.495251 
L 173.752003 199.495251 
L 173.752003 97.631125 
L 174.846766 97.631125 
L 174.846766 96.206452 
L 175.941528 96.206452 
L 175.941528 140.371318 
L 177.036291 140.371318 
L 177.036291 116.151875 
L 178.131053 116.151875 
L 178.131053 135.384962 
L 179.225816 135.384962 
L 179.225816 174.563472 
L 180.320579 174.563472 
L 180.320579 151.768703 
L 181.415341 151.768703 
L 181.415341 103.329817 
L 182.510104 103.329817 
L 182.510104 158.892068 
L 183.604866 158.892068 
L 183.604866 129.68627 
L 184.699629 129.68627 
L 184.699629 86.23374 
L 185.794391 86.23374 
L 185.794391 207.330953 
L 186.889154 207.330953 
L 186.889154 184.536184 
L 187.983916 184.536184 
L 187.983916 161.029078 
L 189.078679 161.029078 
L 189.078679 62.014297 
L 190.173441 62.014297 
L 190.173441 143.220664 
L 191.268204 143.220664 
L 191.268204 150.344029 
L 192.362966 150.344029 
L 192.362966 126.836923 
L 193.457729 126.836923 
L 193.457729 54.890932 
L 194.552491 54.890932 
L 194.552491 186.673193 
L 195.647254 186.673193 
L 195.647254 148.20702 
L 196.742016 148.20702 
L 196.742016 126.836923 
L 197.836779 126.836923 
L 197.836779 131.823279 
L 198.931542 131.823279 
L 198.931542 178.837491 
L 200.026304 178.837491 
L 200.026304 104.042154 
L 201.121067 104.042154 
L 201.121067 160.316741 
L 202.215829 160.316741 
L 202.215829 112.590192 
L 203.310592 112.590192 
L 203.310592 134.672625 
L 204.405354 134.672625 
L 204.405354 169.577116 
L 205.500117 169.577116 
L 205.500117 94.069442 
L 206.594879 94.069442 
L 206.594879 214.454319 
L 207.689642 214.454319 
L 207.689642 173.851136 
L 208.784404 173.851136 
L 208.784404 81.247384 
L 209.879167 81.247384 
L 209.879167 109.02851 
L 210.973929 109.02851 
L 210.973929 131.110943 
L 212.068692 131.110943 
L 212.068692 137.521972 
L 213.163454 137.521972 
L 213.163454 189.52254 
L 214.258217 189.52254 
L 214.258217 116.864212 
L 215.352979 116.864212 
L 215.352979 101.192808 
L 216.447742 101.192808 
L 216.447742 183.111511 
L 217.542505 183.111511 
L 217.542505 61.301961 
L 218.637267 61.301961 
L 218.637267 74.836355 
L 219.73203 74.836355 
L 219.73203 140.371318 
L 220.826792 140.371318 
L 220.826792 141.795991 
L 221.921555 141.795991 
L 221.921555 114.014866 
L 223.016317 114.014866 
L 223.016317 111.877856 
L 224.11108 111.877856 
L 224.11108 202.344598 
L 225.205842 202.344598 
L 225.205842 188.810203 
L 226.300605 188.810203 
L 226.300605 195.933569 
L 227.395367 195.933569 
L 227.395367 108.316173 
L 228.49013 108.316173 
L 228.49013 203.056934 
L 229.584892 203.056934 
L 229.584892 171.001789 
L 230.679655 171.001789 
L 230.679655 149.631693 
L 231.774417 149.631693 
L 231.774417 141.795991 
L 232.86918 141.795991 
L 232.86918 191.659549 
L 233.963942 191.659549 
L 233.963942 215.166655 
L 235.058705 215.166655 
L 235.058705 138.946645 
L 236.153468 138.946645 
L 236.153468 173.851136 
L 237.24823 173.851136 
L 237.24823 137.521972 
L 238.342993 137.521972 
L 238.342993 138.234308 
L 239.437755 138.234308 
L 239.437755 94.781779 
L 240.532518 94.781779 
L 240.532518 149.631693 
L 241.62728 149.631693 
L 241.62728 136.809635 
L 242.722043 136.809635 
L 242.722043 220.865348 
L 243.816805 220.865348 
L 243.816805 80.535048 
L 244.911568 80.535048 
L 244.911568 93.357106 
L 246.00633 93.357106 
L 246.00633 148.919356 
L 247.101093 148.919356 
L 247.101093 140.371318 
L 248.195855 140.371318 
L 248.195855 164.59076 
L 249.290618 164.59076 
L 249.290618 132.535616 
L 250.38538 132.535616 
L 250.38538 127.54926 
L 251.480143 127.54926 
L 251.480143 126.124587 
L 252.574906 126.124587 
L 252.574906 75.548692 
L 253.669668 75.548692 
L 253.669668 138.234308 
L 254.764431 138.234308 
L 254.764431 115.439539 
L 255.859193 115.439539 
L 255.859193 167.440107 
L 256.953956 167.440107 
L 256.953956 55.603268 
L 258.048718 55.603268 
L 258.048718 122.562904 
L 259.143481 122.562904 
L 259.143481 86.23374 
L 260.238243 86.23374 
L 260.238243 161.029078 
L 261.333006 161.029078 
L 261.333006 183.111511 
L 262.427768 183.111511 
L 262.427768 154.618049 
L 263.522531 154.618049 
L 263.522531 175.988145 
L 264.617293 175.988145 
L 264.617293 107.603837 
L 265.712056 107.603837 
L 265.712056 97.631125 
L 266.806818 97.631125 
L 266.806818 167.440107 
L 267.901581 167.440107 
L 267.901581 155.330385 
L 268.996343 155.330385 
L 268.996343 87.658413 
L 270.091106 87.658413 
L 270.091106 104.75449 
L 271.185869 104.75449 
L 271.185869 151.056366 
L 272.280631 151.056366 
L 272.280631 118.288885 
L 273.375394 118.288885 
L 273.375394 171.714126 
L 274.470156 171.714126 
L 274.470156 126.836923 
L 275.564919 126.836923 
L 275.564919 87.658413 
L 276.659681 87.658413 
L 276.659681 106.8915 
L 277.754444 106.8915 
L 277.754444 129.68627 
L 278.849206 129.68627 
L 278.849206 195.221232 
L 279.943969 195.221232 
L 279.943969 176.700482 
L 281.038731 176.700482 
L 281.038731 143.933001 
L 282.133494 143.933001 
L 282.133494 109.02851 
L 283.228256 109.02851 
L 283.228256 193.796559 
L 284.323019 193.796559 
L 284.323019 141.795991 
L 285.417781 141.795991 
L 285.417781 142.508327 
L 286.512544 142.508327 
L 286.512544 126.836923 
L 287.607306 126.836923 
L 287.607306 52.753922 
L 288.702069 52.753922 
L 288.702069 134.672625 
L 289.796832 134.672625 
L 289.796832 94.069442 
L 290.891594 94.069442 
L 290.891594 139.658981 
L 291.986357 139.658981 
L 291.986357 155.330385 
L 294.175882 155.330385 
L 294.175882 166.015434 
L 295.270644 166.015434 
L 295.270644 143.933001 
L 296.365407 143.933001 
L 296.365407 126.836923 
L 297.460169 126.836923 
L 297.460169 108.316173 
L 298.554932 108.316173 
L 298.554932 126.836923 
L 299.649694 126.836923 
L 299.649694 163.878424 
L 300.744457 163.878424 
L 300.744457 156.755058 
L 301.839219 156.755058 
L 301.839219 128.261596 
L 302.933982 128.261596 
L 302.933982 58.452615 
L 304.028744 58.452615 
L 304.028744 166.015434 
L 305.123507 166.015434 
L 305.123507 143.220664 
L 306.218269 143.220664 
L 306.218269 100.480471 
L 307.313032 100.480471 
L 307.313032 171.714126 
L 308.407795 171.714126 
L 308.407795 175.988145 
L 309.502557 175.988145 
L 309.502557 151.768703 
L 310.59732 151.768703 
L 310.59732 161.741414 
L 311.692082 161.741414 
L 311.692082 175.988145 
L 312.786845 175.988145 
L 312.786845 213.029646 
L 313.881607 213.029646 
L 313.881607 186.673193 
L 314.97637 186.673193 
L 314.97637 197.358242 
L 316.071132 197.358242 
L 316.071132 146.782347 
L 317.165895 146.782347 
L 317.165895 138.234308 
L 318.260657 138.234308 
L 318.260657 171.001789 
L 319.35542 171.001789 
L 319.35542 119.713558 
L 320.450182 119.713558 
L 320.450182 133.960289 
L 321.544945 133.960289 
L 321.544945 173.138799 
L 322.639707 173.138799 
L 322.639707 102.617481 
L 323.73447 102.617481 
L 323.73447 159.604405 
L 324.829233 159.604405 
L 324.829233 107.603837 
L 325.923995 107.603837 
L 325.923995 136.097299 
L 327.018758 136.097299 
L 327.018758 210.1803 
L 328.11352 210.1803 
L 328.11352 245.797127 
L 329.208283 245.797127 
L 329.208283 148.20702 
L 330.303045 148.20702 
L 330.303045 163.878424 
L 331.397808 163.878424 
L 331.397808 146.07001 
L 332.49257 146.07001 
L 332.49257 175.275809 
L 333.587333 175.275809 
L 333.587333 124.699914 
L 334.682095 124.699914 
L 334.682095 155.330385 
L 335.776858 155.330385 
L 335.776858 219.440675 
L 336.87162 219.440675 
L 336.87162 121.850568 
L 337.966383 121.850568 
L 337.966383 134.672625 
L 339.061145 134.672625 
L 339.061145 171.714126 
L 340.155908 171.714126 
L 340.155908 116.151875 
L 341.25067 116.151875 
L 341.25067 151.056366 
L 342.345433 151.056366 
L 342.345433 186.673193 
L 343.440196 186.673193 
L 343.440196 133.247952 
L 344.534958 133.247952 
L 344.534958 95.494115 
L 345.629721 95.494115 
L 345.629721 127.54926 
L 346.724483 127.54926 
L 346.724483 178.837491 
L 347.819246 178.837491 
L 347.819246 245.08479 
L 348.914008 245.08479 
L 348.914008 188.097867 
L 350.008771 188.097867 
L 350.008771 147.494683 
L 351.103533 147.494683 
L 351.103533 122.562904 
L 352.198296 122.562904 
L 352.198296 160.316741 
L 353.293058 160.316741 
L 353.293058 120.425894 
L 354.387821 120.425894 
L 354.387821 141.795991 
L 355.482583 141.795991 
L 355.482583 79.822711 
L 356.577346 79.822711 
L 356.577346 213.741982 
L 357.672108 213.741982 
L 357.672108 148.20702 
L 358.766871 148.20702 
L 358.766871 134.672625 
L 359.861633 134.672625 
L 359.861633 164.59076 
L 360.956396 164.59076 
L 360.956396 128.261596 
L 362.051159 128.261596 
L 362.051159 97.631125 
L 363.145921 97.631125 
L 363.145921 161.029078 
L 364.240684 161.029078 
L 364.240684 136.097299 
L 365.335446 136.097299 
L 365.335446 130.398606 
L 366.430209 130.398606 
L 366.430209 205.193944 
L 367.524971 205.193944 
L 367.524971 188.810203 
L 368.619734 188.810203 
L 368.619734 189.52254 
L 369.714496 189.52254 
L 369.714496 106.8915 
L 370.809259 106.8915 
L 370.809259 168.86478 
L 371.904021 168.86478 
L 371.904021 156.042722 
L 372.998784 156.042722 
L 372.998784 139.658981 
L 374.093546 139.658981 
L 374.093546 180.262165 
L 375.188309 180.262165 
L 375.188309 116.864212 
L 376.283071 116.864212 
L 376.283071 116.151875 
L 377.377834 116.151875 
L 377.377834 203.769271 
L 378.472596 203.769271 
L 378.472596 163.878424 
L 379.567359 163.878424 
L 379.567359 126.836923 
L 380.662122 126.836923 
L 380.662122 186.673193 
L 381.756884 186.673193 
L 381.756884 156.755058 
L 382.851647 156.755058 
L 382.851647 125.41225 
L 383.946409 125.41225 
L 383.946409 234.399742 
L 385.041172 234.399742 
L 385.041172 176.700482 
L 386.135934 176.700482 
L 386.135934 222.290021 
L 387.230697 222.290021 
L 387.230697 167.440107 
L 388.325459 167.440107 
L 388.325459 151.056366 
L 389.420222 151.056366 
L 389.420222 156.042722 
L 390.514984 156.042722 
L 390.514984 134.672625 
L 391.609747 134.672625 
L 391.609747 175.988145 
L 392.704509 175.988145 
L 392.704509 18.561768 
L 393.799272 18.561768 
L 393.799272 138.946645 
L 394.894034 138.946645 
L 394.894034 174.563472 
L 395.988797 174.563472 
L 395.988797 101.192808 
L 397.08356 101.192808 
L 397.08356 151.768703 
L 398.178322 151.768703 
L 398.178322 151.768703 
" clip-path="url(#p153ea0faf2)" style="fill: none; stroke: #1f77b4; stroke-width: 1.5; stroke-linecap: square"/>
   </g>
   <g id="patch_3">
    <path d="M 53.328125 257.158895 
L 53.328125 7.2 
" style="fill: none; stroke: #000000; stroke-width: 0.8; stroke-linejoin: miter; stroke-linecap: square"/>
   </g>
   <g id="patch_4">
    <path d="M 414.59976 257.158895 
L 414.59976 7.2 
" style="fill: none; stroke: #000000; stroke-width: 0.8; stroke-linejoin: miter; stroke-linecap: square"/>
   </g>
   <g id="patch_5">
    <path d="M 53.328125 257.158895 
L 414.59976 257.158895 
" style="fill: none; stroke: #000000; stroke-width: 0.8; stroke-linejoin: miter; stroke-linecap: square"/>
   </g>
   <g id="patch_6">
    <path d="M 53.328125 7.2 
L 414.59976 7.2 
" style="fill: none; stroke: #000000; stroke-width: 0.8; stroke-linejoin: miter; stroke-linecap: square"/>
   </g>
  </g>
  <g id="axes_2">
   <g id="patch_7">
    <path d="M 503.927885 257.158895 
L 865.19952 257.158895 
L 865.19952 7.2 
L 503.927885 7.2 
z
" style="fill: #ffffff"/>
   </g>
   <g id="matplotlib.axis_3">
    <g id="xtick_10">
     <g id="line2d_18">
      <g>
       <use xlink:href="#mc8cdeddd30" x="556.841145" y="257.158895" style="stroke: #000000; stroke-width: 0.8"/>
      </g>
     </g>
     <g id="text_19">
      <!-- 2 -->
      <g transform="translate(553.659895 271.757332) scale(0.1 -0.1)">
       <use xlink:href="#DejaVuSans-32"/>
      </g>
     </g>
    </g>
    <g id="xtick_11">
     <g id="line2d_19">
      <g>
       <use xlink:href="#mc8cdeddd30" x="629.825405" y="257.158895" style="stroke: #000000; stroke-width: 0.8"/>
      </g>
     </g>
     <g id="text_20">
      <!-- 4 -->
      <g transform="translate(626.644155 271.757332) scale(0.1 -0.1)">
       <use xlink:href="#DejaVuSans-34"/>
      </g>
     </g>
    </g>
    <g id="xtick_12">
     <g id="line2d_20">
      <g>
       <use xlink:href="#mc8cdeddd30" x="702.809665" y="257.158895" style="stroke: #000000; stroke-width: 0.8"/>
      </g>
     </g>
     <g id="text_21">
      <!-- 6 -->
      <g transform="translate(699.628415 271.757332) scale(0.1 -0.1)">
       <defs>
        <path id="DejaVuSans-36" d="M 2113 2584 
Q 1688 2584 1439 2293 
Q 1191 2003 1191 1497 
Q 1191 994 1439 701 
Q 1688 409 2113 409 
Q 2538 409 2786 701 
Q 3034 994 3034 1497 
Q 3034 2003 2786 2293 
Q 2538 2584 2113 2584 
z
M 3366 4563 
L 3366 3988 
Q 3128 4100 2886 4159 
Q 2644 4219 2406 4219 
Q 1781 4219 1451 3797 
Q 1122 3375 1075 2522 
Q 1259 2794 1537 2939 
Q 1816 3084 2150 3084 
Q 2853 3084 3261 2657 
Q 3669 2231 3669 1497 
Q 3669 778 3244 343 
Q 2819 -91 2113 -91 
Q 1303 -91 875 529 
Q 447 1150 447 2328 
Q 447 3434 972 4092 
Q 1497 4750 2381 4750 
Q 2619 4750 2861 4703 
Q 3103 4656 3366 4563 
z
" transform="scale(0.015625)"/>
       </defs>
       <use xlink:href="#DejaVuSans-36"/>
      </g>
     </g>
    </g>
    <g id="xtick_13">
     <g id="line2d_21">
      <g>
       <use xlink:href="#mc8cdeddd30" x="775.793924" y="257.158895" style="stroke: #000000; stroke-width: 0.8"/>
      </g>
     </g>
     <g id="text_22">
      <!-- 8 -->
      <g transform="translate(772.612674 271.757332) scale(0.1 -0.1)">
       <defs>
        <path id="DejaVuSans-38" d="M 2034 2216 
Q 1584 2216 1326 1975 
Q 1069 1734 1069 1313 
Q 1069 891 1326 650 
Q 1584 409 2034 409 
Q 2484 409 2743 651 
Q 3003 894 3003 1313 
Q 3003 1734 2745 1975 
Q 2488 2216 2034 2216 
z
M 1403 2484 
Q 997 2584 770 2862 
Q 544 3141 544 3541 
Q 544 4100 942 4425 
Q 1341 4750 2034 4750 
Q 2731 4750 3128 4425 
Q 3525 4100 3525 3541 
Q 3525 3141 3298 2862 
Q 3072 2584 2669 2484 
Q 3125 2378 3379 2068 
Q 3634 1759 3634 1313 
Q 3634 634 3220 271 
Q 2806 -91 2034 -91 
Q 1263 -91 848 271 
Q 434 634 434 1313 
Q 434 1759 690 2068 
Q 947 2378 1403 2484 
z
M 1172 3481 
Q 1172 3119 1398 2916 
Q 1625 2713 2034 2713 
Q 2441 2713 2670 2916 
Q 2900 3119 2900 3481 
Q 2900 3844 2670 4047 
Q 2441 4250 2034 4250 
Q 1625 4250 1398 4047 
Q 1172 3844 1172 3481 
z
" transform="scale(0.015625)"/>
       </defs>
       <use xlink:href="#DejaVuSans-38"/>
      </g>
     </g>
    </g>
    <g id="xtick_14">
     <g id="line2d_22">
      <g>
       <use xlink:href="#mc8cdeddd30" x="848.778184" y="257.158895" style="stroke: #000000; stroke-width: 0.8"/>
      </g>
     </g>
     <g id="text_23">
      <!-- 10 -->
      <g transform="translate(842.415684 271.757332) scale(0.1 -0.1)">
       <use xlink:href="#DejaVuSans-31"/>
       <use xlink:href="#DejaVuSans-30" transform="translate(63.623047 0)"/>
      </g>
     </g>
    </g>
    <g id="text_24">
     <!-- wavelength [Å] -->
     <g transform="translate(646.526202 287.119832) scale(0.1 -0.1)">
      <defs>
       <path id="DejaVuSans-77" d="M 269 3500 
L 844 3500 
L 1563 769 
L 2278 3500 
L 2956 3500 
L 3675 769 
L 4391 3500 
L 4966 3500 
L 4050 0 
L 3372 0 
L 2619 2869 
L 1863 0 
L 1184 0 
L 269 3500 
z
" transform="scale(0.015625)"/>
       <path id="DejaVuSans-61" d="M 2194 1759 
Q 1497 1759 1228 1600 
Q 959 1441 959 1056 
Q 959 750 1161 570 
Q 1363 391 1709 391 
Q 2188 391 2477 730 
Q 2766 1069 2766 1631 
L 2766 1759 
L 2194 1759 
z
M 3341 1997 
L 3341 0 
L 2766 0 
L 2766 531 
Q 2569 213 2275 61 
Q 1981 -91 1556 -91 
Q 1019 -91 701 211 
Q 384 513 384 1019 
Q 384 1609 779 1909 
Q 1175 2209 1959 2209 
L 2766 2209 
L 2766 2266 
Q 2766 2663 2505 2880 
Q 2244 3097 1772 3097 
Q 1472 3097 1187 3025 
Q 903 2953 641 2809 
L 641 3341 
Q 956 3463 1253 3523 
Q 1550 3584 1831 3584 
Q 2591 3584 2966 3190 
Q 3341 2797 3341 1997 
z
" transform="scale(0.015625)"/>
       <path id="DejaVuSans-76" d="M 191 3500 
L 800 3500 
L 1894 563 
L 2988 3500 
L 3597 3500 
L 2284 0 
L 1503 0 
L 191 3500 
z
" transform="scale(0.015625)"/>
       <path id="DejaVuSans-67" d="M 2906 1791 
Q 2906 2416 2648 2759 
Q 2391 3103 1925 3103 
Q 1463 3103 1205 2759 
Q 947 2416 947 1791 
Q 947 1169 1205 825 
Q 1463 481 1925 481 
Q 2391 481 2648 825 
Q 2906 1169 2906 1791 
z
M 3481 434 
Q 3481 -459 3084 -895 
Q 2688 -1331 1869 -1331 
Q 1566 -1331 1297 -1286 
Q 1028 -1241 775 -1147 
L 775 -588 
Q 1028 -725 1275 -790 
Q 1522 -856 1778 -856 
Q 2344 -856 2625 -561 
Q 2906 -266 2906 331 
L 2906 616 
Q 2728 306 2450 153 
Q 2172 0 1784 0 
Q 1141 0 747 490 
Q 353 981 353 1791 
Q 353 2603 747 3093 
Q 1141 3584 1784 3584 
Q 2172 3584 2450 3431 
Q 2728 3278 2906 2969 
L 2906 3500 
L 3481 3500 
L 3481 434 
z
" transform="scale(0.015625)"/>
       <path id="DejaVuSans-c5" d="M 2663 5081 
Q 2663 5278 2523 5417 
Q 2384 5556 2188 5556 
Q 1988 5556 1852 5420 
Q 1716 5284 1716 5081 
Q 1716 4884 1853 4746 
Q 1991 4609 2188 4609 
Q 2384 4609 2523 4746 
Q 2663 4884 2663 5081 
z
M 2188 4044 
L 1338 1722 
L 3041 1722 
L 2188 4044 
z
M 1716 4366 
Q 1525 4494 1428 4673 
Q 1331 4853 1331 5081 
Q 1331 5441 1579 5691 
Q 1828 5941 2188 5941 
Q 2544 5941 2795 5689 
Q 3047 5438 3047 5081 
Q 3047 4863 2948 4678 
Q 2850 4494 2663 4366 
L 4325 0 
L 3669 0 
L 3244 1197 
L 1141 1197 
L 716 0 
L 50 0 
L 1716 4366 
z
" transform="scale(0.015625)"/>
      </defs>
      <use xlink:href="#DejaVuSans-77"/>
      <use xlink:href="#DejaVuSans-61" transform="translate(81.787109 0)"/>
      <use xlink:href="#DejaVuSans-76" transform="translate(143.066406 0)"/>
      <use xlink:href="#DejaVuSans-65" transform="translate(202.246094 0)"/>
      <use xlink:href="#DejaVuSans-6c" transform="translate(263.769531 0)"/>
      <use xlink:href="#DejaVuSans-65" transform="translate(291.552734 0)"/>
      <use xlink:href="#DejaVuSans-6e" transform="translate(353.076172 0)"/>
      <use xlink:href="#DejaVuSans-67" transform="translate(416.455078 0)"/>
      <use xlink:href="#DejaVuSans-74" transform="translate(479.931641 0)"/>
      <use xlink:href="#DejaVuSans-68" transform="translate(519.140625 0)"/>
      <use xlink:href="#DejaVuSans-20" transform="translate(582.519531 0)"/>
      <use xlink:href="#DejaVuSans-5b" transform="translate(614.306641 0)"/>
      <use xlink:href="#DejaVuSans-c5" transform="translate(653.320312 0)"/>
      <use xlink:href="#DejaVuSans-5d" transform="translate(721.728516 0)"/>
     </g>
    </g>
   </g>
   <g id="matplotlib.axis_4">
    <g id="ytick_8">
     <g id="line2d_23">
      <g>
       <use xlink:href="#mb60d446c65" x="503.927885" y="249.168572" style="stroke: #000000; stroke-width: 0.8"/>
      </g>
     </g>
     <g id="text_25">
      <!-- 3150 -->
      <g transform="translate(471.477885 252.96779) scale(0.1 -0.1)">
       <use xlink:href="#DejaVuSans-33"/>
       <use xlink:href="#DejaVuSans-31" transform="translate(63.623047 0)"/>
       <use xlink:href="#DejaVuSans-35" transform="translate(127.246094 0)"/>
       <use xlink:href="#DejaVuSans-30" transform="translate(190.869141 0)"/>
      </g>
     </g>
    </g>
    <g id="ytick_9">
     <g id="line2d_24">
      <g>
       <use xlink:href="#mb60d446c65" x="503.927885" y="215.454127" style="stroke: #000000; stroke-width: 0.8"/>
      </g>
     </g>
     <g id="text_26">
      <!-- 3200 -->
      <g transform="translate(471.477885 219.253345) scale(0.1 -0.1)">
       <use xlink:href="#DejaVuSans-33"/>
       <use xlink:href="#DejaVuSans-32" transform="translate(63.623047 0)"/>
       <use xlink:href="#DejaVuSans-30" transform="translate(127.246094 0)"/>
       <use xlink:href="#DejaVuSans-30" transform="translate(190.869141 0)"/>
      </g>
     </g>
    </g>
    <g id="ytick_10">
     <g id="line2d_25">
      <g>
       <use xlink:href="#mb60d446c65" x="503.927885" y="181.739682" style="stroke: #000000; stroke-width: 0.8"/>
      </g>
     </g>
     <g id="text_27">
      <!-- 3250 -->
      <g transform="translate(471.477885 185.5389) scale(0.1 -0.1)">
       <use xlink:href="#DejaVuSans-33"/>
       <use xlink:href="#DejaVuSans-32" transform="translate(63.623047 0)"/>
       <use xlink:href="#DejaVuSans-35" transform="translate(127.246094 0)"/>
       <use xlink:href="#DejaVuSans-30" transform="translate(190.869141 0)"/>
      </g>
     </g>
    </g>
    <g id="ytick_11">
     <g id="line2d_26">
      <g>
       <use xlink:href="#mb60d446c65" x="503.927885" y="148.025237" style="stroke: #000000; stroke-width: 0.8"/>
      </g>
     </g>
     <g id="text_28">
      <!-- 3300 -->
      <g transform="translate(471.477885 151.824455) scale(0.1 -0.1)">
       <use xlink:href="#DejaVuSans-33"/>
       <use xlink:href="#DejaVuSans-33" transform="translate(63.623047 0)"/>
       <use xlink:href="#DejaVuSans-30" transform="translate(127.246094 0)"/>
       <use xlink:href="#DejaVuSans-30" transform="translate(190.869141 0)"/>
      </g>
     </g>
    </g>
    <g id="ytick_12">
     <g id="line2d_27">
      <g>
       <use xlink:href="#mb60d446c65" x="503.927885" y="114.310792" style="stroke: #000000; stroke-width: 0.8"/>
      </g>
     </g>
     <g id="text_29">
      <!-- 3350 -->
      <g transform="translate(471.477885 118.11001) scale(0.1 -0.1)">
       <use xlink:href="#DejaVuSans-33"/>
       <use xlink:href="#DejaVuSans-33" transform="translate(63.623047 0)"/>
       <use xlink:href="#DejaVuSans-35" transform="translate(127.246094 0)"/>
       <use xlink:href="#DejaVuSans-30" transform="translate(190.869141 0)"/>
      </g>
     </g>
    </g>
    <g id="ytick_13">
     <g id="line2d_28">
      <g>
       <use xlink:href="#mb60d446c65" x="503.927885" y="80.596347" style="stroke: #000000; stroke-width: 0.8"/>
      </g>
     </g>
     <g id="text_30">
      <!-- 3400 -->
      <g transform="translate(471.477885 84.395565) scale(0.1 -0.1)">
       <use xlink:href="#DejaVuSans-33"/>
       <use xlink:href="#DejaVuSans-34" transform="translate(63.623047 0)"/>
       <use xlink:href="#DejaVuSans-30" transform="translate(127.246094 0)"/>
       <use xlink:href="#DejaVuSans-30" transform="translate(190.869141 0)"/>
      </g>
     </g>
    </g>
    <g id="ytick_14">
     <g id="line2d_29">
      <g>
       <use xlink:href="#mb60d446c65" x="503.927885" y="46.881902" style="stroke: #000000; stroke-width: 0.8"/>
      </g>
     </g>
     <g id="text_31">
      <!-- 3450 -->
      <g transform="translate(471.477885 50.68112) scale(0.1 -0.1)">
       <use xlink:href="#DejaVuSans-33"/>
       <use xlink:href="#DejaVuSans-34" transform="translate(63.623047 0)"/>
       <use xlink:href="#DejaVuSans-35" transform="translate(127.246094 0)"/>
       <use xlink:href="#DejaVuSans-30" transform="translate(190.869141 0)"/>
      </g>
     </g>
    </g>
    <g id="ytick_15">
     <g id="line2d_30">
      <g>
       <use xlink:href="#mb60d446c65" x="503.927885" y="13.167457" style="stroke: #000000; stroke-width: 0.8"/>
      </g>
     </g>
     <g id="text_32">
      <!-- 3500 -->
      <g transform="translate(471.477885 16.966676) scale(0.1 -0.1)">
       <use xlink:href="#DejaVuSans-33"/>
       <use xlink:href="#DejaVuSans-35" transform="translate(63.623047 0)"/>
       <use xlink:href="#DejaVuSans-30" transform="translate(127.246094 0)"/>
       <use xlink:href="#DejaVuSans-30" transform="translate(190.869141 0)"/>
      </g>
     </g>
    </g>
    <g id="text_33">
     <!-- pulse:0 [counts] -->
     <g transform="translate(465.398197 172.659916) rotate(-90) scale(0.1 -0.1)">
      <use xlink:href="#DejaVuSans-70"/>
      <use xlink:href="#DejaVuSans-75" transform="translate(63.476562 0)"/>
      <use xlink:href="#DejaVuSans-6c" transform="translate(126.855469 0)"/>
      <use xlink:href="#DejaVuSans-73" transform="translate(154.638672 0)"/>
      <use xlink:href="#DejaVuSans-65" transform="translate(206.738281 0)"/>
      <use xlink:href="#DejaVuSans-3a" transform="translate(268.261719 0)"/>
      <use xlink:href="#DejaVuSans-30" transform="translate(301.953125 0)"/>
      <use xlink:href="#DejaVuSans-20" transform="translate(365.576172 0)"/>
      <use xlink:href="#DejaVuSans-5b" transform="translate(397.363281 0)"/>
      <use xlink:href="#DejaVuSans-63" transform="translate(436.376953 0)"/>
      <use xlink:href="#DejaVuSans-6f" transform="translate(491.357422 0)"/>
      <use xlink:href="#DejaVuSans-75" transform="translate(552.539062 0)"/>
      <use xlink:href="#DejaVuSans-6e" transform="translate(615.917969 0)"/>
      <use xlink:href="#DejaVuSans-74" transform="translate(679.296875 0)"/>
      <use xlink:href="#DejaVuSans-73" transform="translate(718.505859 0)"/>
      <use xlink:href="#DejaVuSans-5d" transform="translate(770.605469 0)"/>
     </g>
    </g>
   </g>
   <g id="line2d_31">
    <path d="M 520.349323 129.145147 
L 521.444085 129.145147 
L 521.444085 135.213748 
L 522.538848 135.213748 
L 522.538848 71.830591 
L 523.633611 71.830591 
L 523.633611 148.699526 
L 524.728373 148.699526 
L 524.728373 135.213748 
L 525.823136 135.213748 
L 525.823136 48.23048 
L 526.917898 48.23048 
L 526.917898 245.797127 
L 528.012661 245.797127 
L 528.012661 69.133435 
L 529.107423 69.133435 
L 529.107423 132.516592 
L 530.202186 132.516592 
L 530.202186 138.585192 
L 531.296948 138.585192 
L 531.296948 92.059258 
L 532.391711 92.059258 
L 532.391711 141.282348 
L 533.486473 141.282348 
L 533.486473 195.22546 
L 534.581236 195.22546 
L 534.581236 75.876324 
L 535.675998 75.876324 
L 535.675998 129.819436 
L 536.770761 129.819436 
L 536.770761 131.842303 
L 537.865523 131.842303 
L 537.865523 98.802147 
L 538.960286 98.802147 
L 538.960286 100.825014 
L 540.055048 100.825014 
L 540.055048 70.482013 
L 541.149811 70.482013 
L 541.149811 174.322504 
L 542.244574 174.322504 
L 542.244574 123.750836 
L 543.339336 123.750836 
L 543.339336 117.682236 
L 544.434099 117.682236 
L 544.434099 162.185304 
L 545.528861 162.185304 
L 545.528861 73.179169 
L 546.623624 73.179169 
L 546.623624 222.871304 
L 547.718386 222.871304 
L 547.718386 138.585192 
L 548.813149 138.585192 
L 548.813149 141.956637 
L 549.907911 141.956637 
L 549.907911 199.271193 
L 551.002674 199.271193 
L 551.002674 95.430702 
L 552.097436 95.430702 
L 552.097436 140.608059 
L 553.192199 140.608059 
L 553.192199 126.447992 
L 554.286961 126.447992 
L 554.286961 121.053681 
L 555.381724 121.053681 
L 555.381724 173.648215 
L 556.476486 173.648215 
L 556.476486 167.579615 
L 557.571249 167.579615 
L 557.571249 123.076547 
L 558.666012 123.076547 
L 558.666012 110.265058 
L 559.760774 110.265058 
L 559.760774 79.247769 
L 560.855537 79.247769 
L 560.855537 136.562325 
L 561.950299 136.562325 
L 561.950299 119.030814 
L 563.045062 119.030814 
L 563.045062 134.539459 
L 564.139824 134.539459 
L 564.139824 135.213748 
L 565.234587 135.213748 
L 565.234587 155.442415 
L 566.329349 155.442415 
L 566.329349 192.528304 
L 567.424112 192.528304 
L 567.424112 149.373814 
L 568.518874 149.373814 
L 568.518874 88.687813 
L 569.613637 88.687813 
L 569.613637 135.888036 
L 570.708399 135.888036 
L 570.708399 108.242192 
L 571.803162 108.242192 
L 571.803162 119.705103 
L 572.897924 119.705103 
L 572.897924 71.156302 
L 573.992687 71.156302 
L 573.992687 73.853458 
L 575.087449 73.853458 
L 575.087449 139.93377 
L 576.182212 139.93377 
L 576.182212 59.693391 
L 577.276975 59.693391 
L 577.276975 156.116703 
L 578.371737 156.116703 
L 578.371737 150.722392 
L 579.4665 150.722392 
L 579.4665 162.859592 
L 580.561262 162.859592 
L 580.561262 147.350948 
L 581.656025 147.350948 
L 581.656025 152.07097 
L 582.750787 152.07097 
L 582.750787 99.476436 
L 583.84555 99.476436 
L 583.84555 127.79657 
L 584.940312 127.79657 
L 584.940312 53.624791 
L 586.035075 53.624791 
L 586.035075 102.84788 
L 587.129837 102.84788 
L 587.129837 181.065393 
L 588.2246 181.065393 
L 588.2246 91.384969 
L 589.319362 91.384969 
L 589.319362 102.173591 
L 590.414125 102.173591 
L 590.414125 164.882459 
L 591.508887 164.882459 
L 591.508887 133.86517 
L 592.60365 133.86517 
L 592.60365 83.293502 
L 593.698412 83.293502 
L 593.698412 105.545036 
L 594.793175 105.545036 
L 594.793175 134.539459 
L 595.887938 134.539459 
L 595.887938 123.750836 
L 596.9827 123.750836 
L 596.9827 139.259481 
L 598.077463 139.259481 
L 598.077463 74.527747 
L 599.172225 74.527747 
L 599.172225 116.333658 
L 600.266988 116.333658 
L 600.266988 134.539459 
L 601.36175 134.539459 
L 601.36175 137.910903 
L 602.456513 137.910903 
L 602.456513 104.196458 
L 603.551275 104.196458 
L 603.551275 132.516592 
L 604.646038 132.516592 
L 604.646038 119.030814 
L 605.7408 119.030814 
L 605.7408 209.385526 
L 606.835563 209.385526 
L 606.835563 192.528304 
L 607.930325 192.528304 
L 607.930325 154.768126 
L 609.025088 154.768126 
L 609.025088 160.162437 
L 610.11985 160.162437 
L 610.11985 140.608059 
L 611.214613 140.608059 
L 611.214613 183.088259 
L 612.309375 183.088259 
L 612.309375 144.653792 
L 613.404138 144.653792 
L 613.404138 142.630925 
L 614.498901 142.630925 
L 614.498901 128.470859 
L 615.593663 128.470859 
L 615.593663 116.333658 
L 616.688426 116.333658 
L 616.688426 182.413971 
L 617.783188 182.413971 
L 617.783188 135.888036 
L 618.877951 135.888036 
L 618.877951 123.750836 
L 619.972713 123.750836 
L 619.972713 145.328081 
L 621.067476 145.328081 
L 621.067476 117.682236 
L 622.162238 117.682236 
L 622.162238 112.962214 
L 623.257001 112.962214 
L 623.257001 143.979503 
L 624.351763 143.979503 
L 624.351763 203.991215 
L 625.446526 203.991215 
L 625.446526 125.099414 
L 626.541288 125.099414 
L 626.541288 136.562325 
L 627.636051 136.562325 
L 627.636051 91.384969 
L 628.730813 91.384969 
L 628.730813 181.065393 
L 629.825576 181.065393 
L 629.825576 124.425125 
L 630.920339 124.425125 
L 630.920339 123.750836 
L 632.015101 123.750836 
L 632.015101 119.705103 
L 633.109864 119.705103 
L 633.109864 94.082125 
L 634.204626 94.082125 
L 634.204626 92.059258 
L 635.299389 92.059258 
L 635.299389 135.888036 
L 636.394151 135.888036 
L 636.394151 134.539459 
L 637.488914 134.539459 
L 637.488914 94.756414 
L 638.583676 94.756414 
L 638.583676 133.190881 
L 639.678439 133.190881 
L 639.678439 106.219325 
L 640.773201 106.219325 
L 640.773201 88.687813 
L 641.867964 88.687813 
L 641.867964 98.802147 
L 642.962726 98.802147 
L 642.962726 176.34537 
L 644.057489 176.34537 
L 644.057489 85.316369 
L 645.152251 85.316369 
L 645.152251 119.705103 
L 646.247014 119.705103 
L 646.247014 98.802147 
L 647.341776 98.802147 
L 647.341776 94.756414 
L 648.436539 94.756414 
L 648.436539 57.670524 
L 649.531302 57.670524 
L 649.531302 130.493725 
L 650.626064 130.493725 
L 650.626064 107.567903 
L 651.720827 107.567903 
L 651.720827 93.407836 
L 652.815589 93.407836 
L 652.815589 97.453569 
L 653.910352 97.453569 
L 653.910352 178.368237 
L 655.005114 178.368237 
L 655.005114 163.533881 
L 656.099877 163.533881 
L 656.099877 112.962214 
L 657.194639 112.962214 
L 657.194639 18.561768 
L 658.289402 18.561768 
L 658.289402 71.830591 
L 659.384164 71.830591 
L 659.384164 152.07097 
L 660.478927 152.07097 
L 660.478927 164.20817 
L 661.573689 164.20817 
L 661.573689 166.231037 
L 662.668452 166.231037 
L 662.668452 94.082125 
L 663.763214 94.082125 
L 663.763214 113.636503 
L 664.857977 113.636503 
L 664.857977 184.436837 
L 665.952739 184.436837 
L 665.952739 126.447992 
L 667.047502 126.447992 
L 667.047502 122.402258 
L 668.142265 122.402258 
L 668.142265 119.030814 
L 669.237027 119.030814 
L 669.237027 199.945482 
L 670.33179 199.945482 
L 670.33179 196.574037 
L 671.426552 196.574037 
L 671.426552 175.671082 
L 672.521315 175.671082 
L 672.521315 178.368237 
L 673.616077 178.368237 
L 673.616077 135.213748 
L 674.71084 135.213748 
L 674.71084 98.802147 
L 675.805602 98.802147 
L 675.805602 151.396681 
L 676.900365 151.396681 
L 676.900365 126.447992 
L 677.995127 126.447992 
L 677.995127 193.202593 
L 679.08989 193.202593 
L 679.08989 114.985081 
L 680.184652 114.985081 
L 680.184652 30.024679 
L 681.279415 30.024679 
L 681.279415 152.745259 
L 682.374177 152.745259 
L 682.374177 114.310792 
L 683.46894 114.310792 
L 683.46894 110.939347 
L 684.563702 110.939347 
L 684.563702 102.84788 
L 685.658465 102.84788 
L 685.658465 85.990658 
L 686.753228 85.990658 
L 686.753228 121.053681 
L 687.84799 121.053681 
L 687.84799 92.733547 
L 688.942753 92.733547 
L 688.942753 125.099414 
L 690.037515 125.099414 
L 690.037515 90.71068 
L 691.132278 90.71068 
L 691.132278 98.127858 
L 692.22704 98.127858 
L 692.22704 132.516592 
L 693.321803 132.516592 
L 693.321803 179.042526 
L 694.416565 179.042526 
L 694.416565 147.350948 
L 695.511328 147.350948 
L 695.511328 154.768126 
L 696.60609 154.768126 
L 696.60609 148.025237 
L 697.700853 148.025237 
L 697.700853 172.973926 
L 698.795615 172.973926 
L 698.795615 48.904768 
L 699.890378 48.904768 
L 699.890378 67.784858 
L 700.98514 67.784858 
L 700.98514 168.253904 
L 702.079903 168.253904 
L 702.079903 135.888036 
L 703.174666 135.888036 
L 703.174666 146.676659 
L 704.269428 146.676659 
L 704.269428 119.705103 
L 705.364191 119.705103 
L 705.364191 104.870747 
L 706.458953 104.870747 
L 706.458953 100.825014 
L 707.553716 100.825014 
L 707.553716 129.145147 
L 708.648478 129.145147 
L 708.648478 138.585192 
L 709.743241 138.585192 
L 709.743241 113.636503 
L 710.838003 113.636503 
L 710.838003 125.773703 
L 711.932766 125.773703 
L 711.932766 118.356525 
L 713.027528 118.356525 
L 713.027528 92.733547 
L 714.122291 92.733547 
L 714.122291 77.899191 
L 715.217053 77.899191 
L 715.217053 184.436837 
L 716.311816 184.436837 
L 716.311816 134.539459 
L 717.406578 134.539459 
L 717.406578 160.162437 
L 718.501341 160.162437 
L 718.501341 119.705103 
L 719.596103 119.705103 
L 719.596103 94.082125 
L 720.690866 94.082125 
L 720.690866 53.624791 
L 721.785629 53.624791 
L 721.785629 189.156859 
L 722.880391 189.156859 
L 722.880391 101.499303 
L 723.975154 101.499303 
L 723.975154 160.836726 
L 725.069916 160.836726 
L 725.069916 152.745259 
L 726.164679 152.745259 
L 726.164679 158.13957 
L 727.259441 158.13957 
L 727.259441 78.57348 
L 728.354204 78.57348 
L 728.354204 85.990658 
L 729.448966 85.990658 
L 729.448966 133.86517 
L 730.543729 133.86517 
L 730.543729 123.076547 
L 731.638491 123.076547 
L 731.638491 89.362102 
L 732.733254 89.362102 
L 732.733254 91.384969 
L 733.828016 91.384969 
L 733.828016 123.750836 
L 734.922779 123.750836 
L 734.922779 156.790992 
L 736.017541 156.790992 
L 736.017541 48.904768 
L 737.112304 48.904768 
L 737.112304 112.962214 
L 738.207066 112.962214 
L 738.207066 74.527747 
L 739.301829 74.527747 
L 739.301829 125.773703 
L 740.396592 125.773703 
L 740.396592 120.379392 
L 741.491354 120.379392 
L 741.491354 104.870747 
L 742.586117 104.870747 
L 742.586117 21.258924 
L 743.680879 21.258924 
L 743.680879 49.579057 
L 744.775642 49.579057 
L 744.775642 143.979503 
L 745.870404 143.979503 
L 745.870404 149.373814 
L 746.965167 149.373814 
L 746.965167 124.425125 
L 748.059929 124.425125 
L 748.059929 106.893614 
L 749.154692 106.893614 
L 749.154692 94.082125 
L 750.249454 94.082125 
L 750.249454 113.636503 
L 751.344217 113.636503 
L 751.344217 108.242192 
L 752.438979 108.242192 
L 752.438979 28.001813 
L 753.533742 28.001813 
L 753.533742 157.465281 
L 754.628504 157.465281 
L 754.628504 96.104991 
L 755.723267 96.104991 
L 755.723267 235.682794 
L 756.818029 235.682794 
L 756.818029 214.105549 
L 757.912792 214.105549 
L 757.912792 217.476993 
L 759.007555 217.476993 
L 759.007555 152.745259 
L 760.102317 152.745259 
L 760.102317 112.287925 
L 761.19708 112.287925 
L 761.19708 168.253904 
L 762.291842 168.253904 
L 762.291842 143.979503 
L 763.386605 143.979503 
L 763.386605 97.453569 
L 764.481367 97.453569 
L 764.481367 109.590769 
L 765.57613 109.590769 
L 765.57613 105.545036 
L 766.670892 105.545036 
L 766.670892 141.956637 
L 767.765655 141.956637 
L 767.765655 170.27677 
L 768.860417 170.27677 
L 768.860417 160.836726 
L 769.95518 160.836726 
L 769.95518 194.551171 
L 771.049942 194.551171 
L 771.049942 139.93377 
L 772.144705 139.93377 
L 772.144705 111.613636 
L 773.239467 111.613636 
L 773.239467 127.122281 
L 774.33423 127.122281 
L 774.33423 110.939347 
L 775.428993 110.939347 
L 775.428993 153.419548 
L 776.523755 153.419548 
L 776.523755 147.350948 
L 777.618518 147.350948 
L 777.618518 141.956637 
L 778.71328 141.956637 
L 778.71328 95.430702 
L 779.808043 95.430702 
L 779.808043 115.659369 
L 780.902805 115.659369 
L 780.902805 88.687813 
L 781.997568 88.687813 
L 781.997568 38.116146 
L 783.09233 38.116146 
L 783.09233 138.585192 
L 784.187093 138.585192 
L 784.187093 118.356525 
L 785.281855 118.356525 
L 785.281855 156.116703 
L 786.376618 156.116703 
L 786.376618 235.008505 
L 787.47138 235.008505 
L 787.47138 122.402258 
L 788.566143 122.402258 
L 788.566143 71.156302 
L 789.660905 71.156302 
L 789.660905 105.545036 
L 790.755668 105.545036 
L 790.755668 177.693948 
L 791.85043 177.693948 
L 791.85043 166.231037 
L 792.945193 166.231037 
L 792.945193 100.825014 
L 794.039956 100.825014 
L 794.039956 135.888036 
L 795.134718 135.888036 
L 795.134718 154.093837 
L 796.229481 154.093837 
L 796.229481 184.436837 
L 797.324243 184.436837 
L 797.324243 103.522169 
L 798.419006 103.522169 
L 798.419006 158.13957 
L 799.513768 158.13957 
L 799.513768 78.57348 
L 800.608531 78.57348 
L 800.608531 116.333658 
L 801.703293 116.333658 
L 801.703293 112.962214 
L 802.798056 112.962214 
L 802.798056 110.265058 
L 803.892818 110.265058 
L 803.892818 174.996793 
L 804.987581 174.996793 
L 804.987581 136.562325 
L 806.082343 136.562325 
L 806.082343 94.756414 
L 807.177106 94.756414 
L 807.177106 114.985081 
L 808.271868 114.985081 
L 808.271868 81.944924 
L 809.366631 81.944924 
L 809.366631 127.79657 
L 810.461393 127.79657 
L 810.461393 162.185304 
L 811.556156 162.185304 
L 811.556156 87.339236 
L 812.650919 87.339236 
L 812.650919 110.939347 
L 813.745681 110.939347 
L 813.745681 84.64208 
L 814.840444 84.64208 
L 814.840444 168.928193 
L 815.935206 168.928193 
L 815.935206 119.030814 
L 817.029969 119.030814 
L 817.029969 183.762548 
L 818.124731 183.762548 
L 818.124731 173.648215 
L 819.219494 173.648215 
L 819.219494 103.522169 
L 820.314256 103.522169 
L 820.314256 65.087702 
L 821.409019 65.087702 
L 821.409019 87.339236 
L 822.503781 87.339236 
L 822.503781 50.253346 
L 823.598544 50.253346 
L 823.598544 129.819436 
L 824.693306 129.819436 
L 824.693306 162.859592 
L 825.788069 162.859592 
L 825.788069 144.653792 
L 826.882831 144.653792 
L 826.882831 145.328081 
L 827.977594 145.328081 
L 827.977594 98.127858 
L 829.072356 98.127858 
L 829.072356 130.493725 
L 830.167119 130.493725 
L 830.167119 146.676659 
L 831.261882 146.676659 
L 831.261882 165.556748 
L 832.356644 165.556748 
L 832.356644 114.985081 
L 833.451407 114.985081 
L 833.451407 60.36768 
L 834.546169 60.36768 
L 834.546169 130.493725 
L 835.640932 130.493725 
L 835.640932 138.585192 
L 836.735694 138.585192 
L 836.735694 84.64208 
L 837.830457 84.64208 
L 837.830457 130.493725 
L 838.925219 130.493725 
L 838.925219 139.93377 
L 840.019982 139.93377 
L 840.019982 37.441857 
L 841.114744 37.441857 
L 841.114744 125.773703 
L 842.209507 125.773703 
L 842.209507 88.687813 
L 843.304269 88.687813 
L 843.304269 114.310792 
L 844.399032 114.310792 
L 844.399032 40.139013 
L 845.493794 40.139013 
L 845.493794 90.71068 
L 846.588557 90.71068 
L 846.588557 146.676659 
L 847.68332 146.676659 
L 847.68332 136.562325 
L 848.778082 136.562325 
L 848.778082 136.562325 
" clip-path="url(#p4e12757f3a)" style="fill: none; stroke: #1f77b4; stroke-width: 1.5; stroke-linecap: square"/>
   </g>
   <g id="patch_8">
    <path d="M 503.927885 257.158895 
L 503.927885 7.2 
" style="fill: none; stroke: #000000; stroke-width: 0.8; stroke-linejoin: miter; stroke-linecap: square"/>
   </g>
   <g id="patch_9">
    <path d="M 865.19952 257.158895 
L 865.19952 7.2 
" style="fill: none; stroke: #000000; stroke-width: 0.8; stroke-linejoin: miter; stroke-linecap: square"/>
   </g>
   <g id="patch_10">
    <path d="M 503.927885 257.158895 
L 865.19952 257.158895 
" style="fill: none; stroke: #000000; stroke-width: 0.8; stroke-linejoin: miter; stroke-linecap: square"/>
   </g>
   <g id="patch_11">
    <path d="M 503.927885 7.2 
L 865.19952 7.2 
" style="fill: none; stroke: #000000; stroke-width: 0.8; stroke-linejoin: miter; stroke-linecap: square"/>
   </g>
  </g>
 </g>
 <defs>
  <clipPath id="p153ea0faf2">
   <rect x="53.328125" y="7.2" width="361.271635" height="249.958895"/>
  </clipPath>
  <clipPath id="p4e12757f3a">
   <rect x="503.927885" y="7.2" width="361.271635" height="249.958895"/>
  </clipPath>
 </defs>
</svg>
