<?xml version="1.0" encoding="utf-8" standalone="no"?>
<!DOCTYPE svg PUBLIC "-//W3C//DTD SVG 1.1//EN"
  "http://www.w3.org/Graphics/SVG/1.1/DTD/svg11.dtd">
<svg xmlns:xlink="http://www.w3.org/1999/xlink" width="872.39952pt" height="296.39952pt" viewBox="0 0 872.39952 296.39952" xmlns="http://www.w3.org/2000/svg" version="1.1">
 <metadata>
  <rdf:RDF xmlns:dc="http://purl.org/dc/elements/1.1/" xmlns:cc="http://creativecommons.org/ns#" xmlns:rdf="http://www.w3.org/1999/02/22-rdf-syntax-ns#">
   <cc:Work>
    <dc:type rdf:resource="http://purl.org/dc/dcmitype/StillImage"/>
    <dc:date>2025-04-29T09:31:49.178728</dc:date>
    <dc:format>image/svg+xml</dc:format>
    <dc:creator>
     <cc:Agent>
      <dc:title>Matplotlib v3.10.1, https://matplotlib.org/</dc:title>
     </cc:Agent>
    </dc:creator>
   </cc:Work>
  </rdf:RDF>
 </metadata>
 <defs>
  <style type="text/css">*{stroke-linejoin: round; stroke-linecap: butt}</style>
 </defs>
 <g id="figure_1">
  <g id="patch_1">
   <path d="M 0 296.39952 
L 872.39952 296.39952 
L 872.39952 0 
L 0 0 
z
" style="fill: #ffffff"/>
  </g>
  <g id="axes_1">
   <g id="patch_2">
    <path d="M 53.328125 257.158895 
L 431.87976 257.158895 
L 431.87976 7.2 
L 53.328125 7.2 
z
" style="fill: #ffffff"/>
   </g>
   <g id="matplotlib.axis_1">
    <g id="xtick_1">
     <g id="line2d_1">
      <defs>
       <path id="mc52bd31c8e" d="M 0 0 
L 0 3.5 
" style="stroke: #000000; stroke-width: 0.8"/>
      </defs>
      <g>
       <use xlink:href="#mc52bd31c8e" x="70.534815" y="257.158895" style="stroke: #000000; stroke-width: 0.8"/>
      </g>
     </g>
     <g id="text_1">
      <!-- 1000 -->
      <g transform="translate(57.809815 271.757333) scale(0.1 -0.1)">
       <defs>
        <path id="DejaVuSans-31" d="M 794 531 
L 1825 531 
L 1825 4091 
L 703 3866 
L 703 4441 
L 1819 4666 
L 2450 4666 
L 2450 531 
L 3481 531 
L 3481 0 
L 794 0 
L 794 531 
z
" transform="scale(0.015625)"/>
        <path id="DejaVuSans-30" d="M 2034 4250 
Q 1547 4250 1301 3770 
Q 1056 3291 1056 2328 
Q 1056 1369 1301 889 
Q 1547 409 2034 409 
Q 2525 409 2770 889 
Q 3016 1369 3016 2328 
Q 3016 3291 2770 3770 
Q 2525 4250 2034 4250 
z
M 2034 4750 
Q 2819 4750 3233 4129 
Q 3647 3509 3647 2328 
Q 3647 1150 3233 529 
Q 2819 -91 2034 -91 
Q 1250 -91 836 529 
Q 422 1150 422 2328 
Q 422 3509 836 4129 
Q 1250 4750 2034 4750 
z
" transform="scale(0.015625)"/>
       </defs>
       <use xlink:href="#DejaVuSans-31"/>
       <use xlink:href="#DejaVuSans-30" transform="translate(63.623047 0)"/>
       <use xlink:href="#DejaVuSans-30" transform="translate(127.246094 0)"/>
       <use xlink:href="#DejaVuSans-30" transform="translate(190.869141 0)"/>
      </g>
     </g>
    </g>
    <g id="xtick_2">
     <g id="line2d_2">
      <g>
       <use xlink:href="#mc52bd31c8e" x="113.552108" y="257.158895" style="stroke: #000000; stroke-width: 0.8"/>
      </g>
     </g>
     <g id="text_2">
      <!-- 1250 -->
      <g transform="translate(100.827108 271.757333) scale(0.1 -0.1)">
       <defs>
        <path id="DejaVuSans-32" d="M 1228 531 
L 3431 531 
L 3431 0 
L 469 0 
L 469 531 
Q 828 903 1448 1529 
Q 2069 2156 2228 2338 
Q 2531 2678 2651 2914 
Q 2772 3150 2772 3378 
Q 2772 3750 2511 3984 
Q 2250 4219 1831 4219 
Q 1534 4219 1204 4116 
Q 875 4013 500 3803 
L 500 4441 
Q 881 4594 1212 4672 
Q 1544 4750 1819 4750 
Q 2544 4750 2975 4387 
Q 3406 4025 3406 3419 
Q 3406 3131 3298 2873 
Q 3191 2616 2906 2266 
Q 2828 2175 2409 1742 
Q 1991 1309 1228 531 
z
" transform="scale(0.015625)"/>
        <path id="DejaVuSans-35" d="M 691 4666 
L 3169 4666 
L 3169 4134 
L 1269 4134 
L 1269 2991 
Q 1406 3038 1543 3061 
Q 1681 3084 1819 3084 
Q 2600 3084 3056 2656 
Q 3513 2228 3513 1497 
Q 3513 744 3044 326 
Q 2575 -91 1722 -91 
Q 1428 -91 1123 -41 
Q 819 9 494 109 
L 494 744 
Q 775 591 1075 516 
Q 1375 441 1709 441 
Q 2250 441 2565 725 
Q 2881 1009 2881 1497 
Q 2881 1984 2565 2268 
Q 2250 2553 1709 2553 
Q 1456 2553 1204 2497 
Q 953 2441 691 2322 
L 691 4666 
z
" transform="scale(0.015625)"/>
       </defs>
       <use xlink:href="#DejaVuSans-31"/>
       <use xlink:href="#DejaVuSans-32" transform="translate(63.623047 0)"/>
       <use xlink:href="#DejaVuSans-35" transform="translate(127.246094 0)"/>
       <use xlink:href="#DejaVuSans-30" transform="translate(190.869141 0)"/>
      </g>
     </g>
    </g>
    <g id="xtick_3">
     <g id="line2d_3">
      <g>
       <use xlink:href="#mc52bd31c8e" x="156.569401" y="257.158895" style="stroke: #000000; stroke-width: 0.8"/>
      </g>
     </g>
     <g id="text_3">
      <!-- 1500 -->
      <g transform="translate(143.844401 271.757333) scale(0.1 -0.1)">
       <use xlink:href="#DejaVuSans-31"/>
       <use xlink:href="#DejaVuSans-35" transform="translate(63.623047 0)"/>
       <use xlink:href="#DejaVuSans-30" transform="translate(127.246094 0)"/>
       <use xlink:href="#DejaVuSans-30" transform="translate(190.869141 0)"/>
      </g>
     </g>
    </g>
    <g id="xtick_4">
     <g id="line2d_4">
      <g>
       <use xlink:href="#mc52bd31c8e" x="199.586694" y="257.158895" style="stroke: #000000; stroke-width: 0.8"/>
      </g>
     </g>
     <g id="text_4">
      <!-- 1750 -->
      <g transform="translate(186.861694 271.757333) scale(0.1 -0.1)">
       <defs>
        <path id="DejaVuSans-37" d="M 525 4666 
L 3525 4666 
L 3525 4397 
L 1831 0 
L 1172 0 
L 2766 4134 
L 525 4134 
L 525 4666 
z
" transform="scale(0.015625)"/>
       </defs>
       <use xlink:href="#DejaVuSans-31"/>
       <use xlink:href="#DejaVuSans-37" transform="translate(63.623047 0)"/>
       <use xlink:href="#DejaVuSans-35" transform="translate(127.246094 0)"/>
       <use xlink:href="#DejaVuSans-30" transform="translate(190.869141 0)"/>
      </g>
     </g>
    </g>
    <g id="xtick_5">
     <g id="line2d_5">
      <g>
       <use xlink:href="#mc52bd31c8e" x="242.603986" y="257.158895" style="stroke: #000000; stroke-width: 0.8"/>
      </g>
     </g>
     <g id="text_5">
      <!-- 2000 -->
      <g transform="translate(229.878986 271.757333) scale(0.1 -0.1)">
       <use xlink:href="#DejaVuSans-32"/>
       <use xlink:href="#DejaVuSans-30" transform="translate(63.623047 0)"/>
       <use xlink:href="#DejaVuSans-30" transform="translate(127.246094 0)"/>
       <use xlink:href="#DejaVuSans-30" transform="translate(190.869141 0)"/>
      </g>
     </g>
    </g>
    <g id="xtick_6">
     <g id="line2d_6">
      <g>
       <use xlink:href="#mc52bd31c8e" x="285.621279" y="257.158895" style="stroke: #000000; stroke-width: 0.8"/>
      </g>
     </g>
     <g id="text_6">
      <!-- 2250 -->
      <g transform="translate(272.896279 271.757333) scale(0.1 -0.1)">
       <use xlink:href="#DejaVuSans-32"/>
       <use xlink:href="#DejaVuSans-32" transform="translate(63.623047 0)"/>
       <use xlink:href="#DejaVuSans-35" transform="translate(127.246094 0)"/>
       <use xlink:href="#DejaVuSans-30" transform="translate(190.869141 0)"/>
      </g>
     </g>
    </g>
    <g id="xtick_7">
     <g id="line2d_7">
      <g>
       <use xlink:href="#mc52bd31c8e" x="328.638572" y="257.158895" style="stroke: #000000; stroke-width: 0.8"/>
      </g>
     </g>
     <g id="text_7">
      <!-- 2500 -->
      <g transform="translate(315.913572 271.757333) scale(0.1 -0.1)">
       <use xlink:href="#DejaVuSans-32"/>
       <use xlink:href="#DejaVuSans-35" transform="translate(63.623047 0)"/>
       <use xlink:href="#DejaVuSans-30" transform="translate(127.246094 0)"/>
       <use xlink:href="#DejaVuSans-30" transform="translate(190.869141 0)"/>
      </g>
     </g>
    </g>
    <g id="xtick_8">
     <g id="line2d_8">
      <g>
       <use xlink:href="#mc52bd31c8e" x="371.655865" y="257.158895" style="stroke: #000000; stroke-width: 0.8"/>
      </g>
     </g>
     <g id="text_8">
      <!-- 2750 -->
      <g transform="translate(358.930865 271.757333) scale(0.1 -0.1)">
       <use xlink:href="#DejaVuSans-32"/>
       <use xlink:href="#DejaVuSans-37" transform="translate(63.623047 0)"/>
       <use xlink:href="#DejaVuSans-35" transform="translate(127.246094 0)"/>
       <use xlink:href="#DejaVuSans-30" transform="translate(190.869141 0)"/>
      </g>
     </g>
    </g>
    <g id="xtick_9">
     <g id="line2d_9">
      <g>
       <use xlink:href="#mc52bd31c8e" x="414.673158" y="257.158895" style="stroke: #000000; stroke-width: 0.8"/>
      </g>
     </g>
     <g id="text_9">
      <!-- 3000 -->
      <g transform="translate(401.948158 271.757333) scale(0.1 -0.1)">
       <defs>
        <path id="DejaVuSans-33" d="M 2597 2516 
Q 3050 2419 3304 2112 
Q 3559 1806 3559 1356 
Q 3559 666 3084 287 
Q 2609 -91 1734 -91 
Q 1441 -91 1130 -33 
Q 819 25 488 141 
L 488 750 
Q 750 597 1062 519 
Q 1375 441 1716 441 
Q 2309 441 2620 675 
Q 2931 909 2931 1356 
Q 2931 1769 2642 2001 
Q 2353 2234 1838 2234 
L 1294 2234 
L 1294 2753 
L 1863 2753 
Q 2328 2753 2575 2939 
Q 2822 3125 2822 3475 
Q 2822 3834 2567 4026 
Q 2313 4219 1838 4219 
Q 1578 4219 1281 4162 
Q 984 4106 628 3988 
L 628 4550 
Q 988 4650 1302 4700 
Q 1616 4750 1894 4750 
Q 2613 4750 3031 4423 
Q 3450 4097 3450 3541 
Q 3450 3153 3228 2886 
Q 3006 2619 2597 2516 
z
" transform="scale(0.015625)"/>
       </defs>
       <use xlink:href="#DejaVuSans-33"/>
       <use xlink:href="#DejaVuSans-30" transform="translate(63.623047 0)"/>
       <use xlink:href="#DejaVuSans-30" transform="translate(127.246094 0)"/>
       <use xlink:href="#DejaVuSans-30" transform="translate(190.869141 0)"/>
      </g>
     </g>
    </g>
    <g id="text_10">
     <!-- birth_time [µs] -->
     <g transform="translate(205.78363 285.435458) scale(0.1 -0.1)">
      <defs>
       <path id="DejaVuSans-62" d="M 3116 1747 
Q 3116 2381 2855 2742 
Q 2594 3103 2138 3103 
Q 1681 3103 1420 2742 
Q 1159 2381 1159 1747 
Q 1159 1113 1420 752 
Q 1681 391 2138 391 
Q 2594 391 2855 752 
Q 3116 1113 3116 1747 
z
M 1159 2969 
Q 1341 3281 1617 3432 
Q 1894 3584 2278 3584 
Q 2916 3584 3314 3078 
Q 3713 2572 3713 1747 
Q 3713 922 3314 415 
Q 2916 -91 2278 -91 
Q 1894 -91 1617 61 
Q 1341 213 1159 525 
L 1159 0 
L 581 0 
L 581 4863 
L 1159 4863 
L 1159 2969 
z
" transform="scale(0.015625)"/>
       <path id="DejaVuSans-69" d="M 603 3500 
L 1178 3500 
L 1178 0 
L 603 0 
L 603 3500 
z
M 603 4863 
L 1178 4863 
L 1178 4134 
L 603 4134 
L 603 4863 
z
" transform="scale(0.015625)"/>
       <path id="DejaVuSans-72" d="M 2631 2963 
Q 2534 3019 2420 3045 
Q 2306 3072 2169 3072 
Q 1681 3072 1420 2755 
Q 1159 2438 1159 1844 
L 1159 0 
L 581 0 
L 581 3500 
L 1159 3500 
L 1159 2956 
Q 1341 3275 1631 3429 
Q 1922 3584 2338 3584 
Q 2397 3584 2469 3576 
Q 2541 3569 2628 3553 
L 2631 2963 
z
" transform="scale(0.015625)"/>
       <path id="DejaVuSans-74" d="M 1172 4494 
L 1172 3500 
L 2356 3500 
L 2356 3053 
L 1172 3053 
L 1172 1153 
Q 1172 725 1289 603 
Q 1406 481 1766 481 
L 2356 481 
L 2356 0 
L 1766 0 
Q 1100 0 847 248 
Q 594 497 594 1153 
L 594 3053 
L 172 3053 
L 172 3500 
L 594 3500 
L 594 4494 
L 1172 4494 
z
" transform="scale(0.015625)"/>
       <path id="DejaVuSans-68" d="M 3513 2113 
L 3513 0 
L 2938 0 
L 2938 2094 
Q 2938 2591 2744 2837 
Q 2550 3084 2163 3084 
Q 1697 3084 1428 2787 
Q 1159 2491 1159 1978 
L 1159 0 
L 581 0 
L 581 4863 
L 1159 4863 
L 1159 2956 
Q 1366 3272 1645 3428 
Q 1925 3584 2291 3584 
Q 2894 3584 3203 3211 
Q 3513 2838 3513 2113 
z
" transform="scale(0.015625)"/>
       <path id="DejaVuSans-5f" d="M 3263 -1063 
L 3263 -1509 
L -63 -1509 
L -63 -1063 
L 3263 -1063 
z
" transform="scale(0.015625)"/>
       <path id="DejaVuSans-6d" d="M 3328 2828 
Q 3544 3216 3844 3400 
Q 4144 3584 4550 3584 
Q 5097 3584 5394 3201 
Q 5691 2819 5691 2113 
L 5691 0 
L 5113 0 
L 5113 2094 
Q 5113 2597 4934 2840 
Q 4756 3084 4391 3084 
Q 3944 3084 3684 2787 
Q 3425 2491 3425 1978 
L 3425 0 
L 2847 0 
L 2847 2094 
Q 2847 2600 2669 2842 
Q 2491 3084 2119 3084 
Q 1678 3084 1418 2786 
Q 1159 2488 1159 1978 
L 1159 0 
L 581 0 
L 581 3500 
L 1159 3500 
L 1159 2956 
Q 1356 3278 1631 3431 
Q 1906 3584 2284 3584 
Q 2666 3584 2933 3390 
Q 3200 3197 3328 2828 
z
" transform="scale(0.015625)"/>
       <path id="DejaVuSans-65" d="M 3597 1894 
L 3597 1613 
L 953 1613 
Q 991 1019 1311 708 
Q 1631 397 2203 397 
Q 2534 397 2845 478 
Q 3156 559 3463 722 
L 3463 178 
Q 3153 47 2828 -22 
Q 2503 -91 2169 -91 
Q 1331 -91 842 396 
Q 353 884 353 1716 
Q 353 2575 817 3079 
Q 1281 3584 2069 3584 
Q 2775 3584 3186 3129 
Q 3597 2675 3597 1894 
z
M 3022 2063 
Q 3016 2534 2758 2815 
Q 2500 3097 2075 3097 
Q 1594 3097 1305 2825 
Q 1016 2553 972 2059 
L 3022 2063 
z
" transform="scale(0.015625)"/>
       <path id="DejaVuSans-20" transform="scale(0.015625)"/>
       <path id="DejaVuSans-5b" d="M 550 4863 
L 1875 4863 
L 1875 4416 
L 1125 4416 
L 1125 -397 
L 1875 -397 
L 1875 -844 
L 550 -844 
L 550 4863 
z
" transform="scale(0.015625)"/>
       <path id="DejaVuSans-b5" d="M 544 -1331 
L 544 3500 
L 1119 3500 
L 1119 1325 
Q 1119 872 1334 640 
Q 1550 409 1972 409 
Q 2434 409 2667 671 
Q 2900 934 2900 1459 
L 2900 3500 
L 3475 3500 
L 3475 806 
Q 3475 619 3529 530 
Q 3584 441 3700 441 
Q 3728 441 3778 458 
Q 3828 475 3916 513 
L 3916 50 
Q 3788 -22 3673 -56 
Q 3559 -91 3450 -91 
Q 3234 -91 3106 31 
Q 2978 153 2931 403 
Q 2775 156 2548 32 
Q 2322 -91 2016 -91 
Q 1697 -91 1473 31 
Q 1250 153 1119 397 
L 1119 -1331 
L 544 -1331 
z
" transform="scale(0.015625)"/>
       <path id="DejaVuSans-73" d="M 2834 3397 
L 2834 2853 
Q 2591 2978 2328 3040 
Q 2066 3103 1784 3103 
Q 1356 3103 1142 2972 
Q 928 2841 928 2578 
Q 928 2378 1081 2264 
Q 1234 2150 1697 2047 
L 1894 2003 
Q 2506 1872 2764 1633 
Q 3022 1394 3022 966 
Q 3022 478 2636 193 
Q 2250 -91 1575 -91 
Q 1294 -91 989 -36 
Q 684 19 347 128 
L 347 722 
Q 666 556 975 473 
Q 1284 391 1588 391 
Q 1994 391 2212 530 
Q 2431 669 2431 922 
Q 2431 1156 2273 1281 
Q 2116 1406 1581 1522 
L 1381 1569 
Q 847 1681 609 1914 
Q 372 2147 372 2553 
Q 372 3047 722 3315 
Q 1072 3584 1716 3584 
Q 2034 3584 2315 3537 
Q 2597 3491 2834 3397 
z
" transform="scale(0.015625)"/>
       <path id="DejaVuSans-5d" d="M 1947 4863 
L 1947 -844 
L 622 -844 
L 622 -397 
L 1369 -397 
L 1369 4416 
L 622 4416 
L 622 4863 
L 1947 4863 
z
" transform="scale(0.015625)"/>
      </defs>
      <use xlink:href="#DejaVuSans-62"/>
      <use xlink:href="#DejaVuSans-69" transform="translate(63.476562 0)"/>
      <use xlink:href="#DejaVuSans-72" transform="translate(91.259766 0)"/>
      <use xlink:href="#DejaVuSans-74" transform="translate(132.373047 0)"/>
      <use xlink:href="#DejaVuSans-68" transform="translate(171.582031 0)"/>
      <use xlink:href="#DejaVuSans-5f" transform="translate(234.960938 0)"/>
      <use xlink:href="#DejaVuSans-74" transform="translate(284.960938 0)"/>
      <use xlink:href="#DejaVuSans-69" transform="translate(324.169922 0)"/>
      <use xlink:href="#DejaVuSans-6d" transform="translate(351.953125 0)"/>
      <use xlink:href="#DejaVuSans-65" transform="translate(449.365234 0)"/>
      <use xlink:href="#DejaVuSans-20" transform="translate(510.888672 0)"/>
      <use xlink:href="#DejaVuSans-5b" transform="translate(542.675781 0)"/>
      <use xlink:href="#DejaVuSans-b5" transform="translate(581.689453 0)"/>
      <use xlink:href="#DejaVuSans-73" transform="translate(645.3125 0)"/>
      <use xlink:href="#DejaVuSans-5d" transform="translate(697.412109 0)"/>
     </g>
    </g>
   </g>
   <g id="matplotlib.axis_2">
    <g id="ytick_1">
     <g id="line2d_10">
      <defs>
       <path id="m012362ba15" d="M 0 0 
L -3.5 0 
" style="stroke: #000000; stroke-width: 0.8"/>
      </defs>
      <g>
       <use xlink:href="#m012362ba15" x="53.328125" y="244.973811" style="stroke: #000000; stroke-width: 0.8"/>
      </g>
     </g>
     <g id="text_11">
      <!-- 3200 -->
      <g transform="translate(20.878125 248.773029) scale(0.1 -0.1)">
       <use xlink:href="#DejaVuSans-33"/>
       <use xlink:href="#DejaVuSans-32" transform="translate(63.623047 0)"/>
       <use xlink:href="#DejaVuSans-30" transform="translate(127.246094 0)"/>
       <use xlink:href="#DejaVuSans-30" transform="translate(190.869141 0)"/>
      </g>
     </g>
    </g>
    <g id="ytick_2">
     <g id="line2d_11">
      <g>
       <use xlink:href="#m012362ba15" x="53.328125" y="203.807985" style="stroke: #000000; stroke-width: 0.8"/>
      </g>
     </g>
     <g id="text_12">
      <!-- 3250 -->
      <g transform="translate(20.878125 207.607203) scale(0.1 -0.1)">
       <use xlink:href="#DejaVuSans-33"/>
       <use xlink:href="#DejaVuSans-32" transform="translate(63.623047 0)"/>
       <use xlink:href="#DejaVuSans-35" transform="translate(127.246094 0)"/>
       <use xlink:href="#DejaVuSans-30" transform="translate(190.869141 0)"/>
      </g>
     </g>
    </g>
    <g id="ytick_3">
     <g id="line2d_12">
      <g>
       <use xlink:href="#m012362ba15" x="53.328125" y="162.642159" style="stroke: #000000; stroke-width: 0.8"/>
      </g>
     </g>
     <g id="text_13">
      <!-- 3300 -->
      <g transform="translate(20.878125 166.441377) scale(0.1 -0.1)">
       <use xlink:href="#DejaVuSans-33"/>
       <use xlink:href="#DejaVuSans-33" transform="translate(63.623047 0)"/>
       <use xlink:href="#DejaVuSans-30" transform="translate(127.246094 0)"/>
       <use xlink:href="#DejaVuSans-30" transform="translate(190.869141 0)"/>
      </g>
     </g>
    </g>
    <g id="ytick_4">
     <g id="line2d_13">
      <g>
       <use xlink:href="#m012362ba15" x="53.328125" y="121.476333" style="stroke: #000000; stroke-width: 0.8"/>
      </g>
     </g>
     <g id="text_14">
      <!-- 3350 -->
      <g transform="translate(20.878125 125.275552) scale(0.1 -0.1)">
       <use xlink:href="#DejaVuSans-33"/>
       <use xlink:href="#DejaVuSans-33" transform="translate(63.623047 0)"/>
       <use xlink:href="#DejaVuSans-35" transform="translate(127.246094 0)"/>
       <use xlink:href="#DejaVuSans-30" transform="translate(190.869141 0)"/>
      </g>
     </g>
    </g>
    <g id="ytick_5">
     <g id="line2d_14">
      <g>
       <use xlink:href="#m012362ba15" x="53.328125" y="80.310507" style="stroke: #000000; stroke-width: 0.8"/>
      </g>
     </g>
     <g id="text_15">
      <!-- 3400 -->
      <g transform="translate(20.878125 84.109726) scale(0.1 -0.1)">
       <defs>
        <path id="DejaVuSans-34" d="M 2419 4116 
L 825 1625 
L 2419 1625 
L 2419 4116 
z
M 2253 4666 
L 3047 4666 
L 3047 1625 
L 3713 1625 
L 3713 1100 
L 3047 1100 
L 3047 0 
L 2419 0 
L 2419 1100 
L 313 1100 
L 313 1709 
L 2253 4666 
z
" transform="scale(0.015625)"/>
       </defs>
       <use xlink:href="#DejaVuSans-33"/>
       <use xlink:href="#DejaVuSans-34" transform="translate(63.623047 0)"/>
       <use xlink:href="#DejaVuSans-30" transform="translate(127.246094 0)"/>
       <use xlink:href="#DejaVuSans-30" transform="translate(190.869141 0)"/>
      </g>
     </g>
    </g>
    <g id="ytick_6">
     <g id="line2d_15">
      <g>
       <use xlink:href="#m012362ba15" x="53.328125" y="39.144681" style="stroke: #000000; stroke-width: 0.8"/>
      </g>
     </g>
     <g id="text_16">
      <!-- 3450 -->
      <g transform="translate(20.878125 42.9439) scale(0.1 -0.1)">
       <use xlink:href="#DejaVuSans-33"/>
       <use xlink:href="#DejaVuSans-34" transform="translate(63.623047 0)"/>
       <use xlink:href="#DejaVuSans-35" transform="translate(127.246094 0)"/>
       <use xlink:href="#DejaVuSans-30" transform="translate(190.869141 0)"/>
      </g>
     </g>
    </g>
    <g id="text_17">
     <!-- pulse:0 [counts] -->
     <g transform="translate(14.798438 172.659916) rotate(-90) scale(0.1 -0.1)">
      <defs>
       <path id="DejaVuSans-70" d="M 1159 525 
L 1159 -1331 
L 581 -1331 
L 581 3500 
L 1159 3500 
L 1159 2969 
Q 1341 3281 1617 3432 
Q 1894 3584 2278 3584 
Q 2916 3584 3314 3078 
Q 3713 2572 3713 1747 
Q 3713 922 3314 415 
Q 2916 -91 2278 -91 
Q 1894 -91 1617 61 
Q 1341 213 1159 525 
z
M 3116 1747 
Q 3116 2381 2855 2742 
Q 2594 3103 2138 3103 
Q 1681 3103 1420 2742 
Q 1159 2381 1159 1747 
Q 1159 1113 1420 752 
Q 1681 391 2138 391 
Q 2594 391 2855 752 
Q 3116 1113 3116 1747 
z
" transform="scale(0.015625)"/>
       <path id="DejaVuSans-75" d="M 544 1381 
L 544 3500 
L 1119 3500 
L 1119 1403 
Q 1119 906 1312 657 
Q 1506 409 1894 409 
Q 2359 409 2629 706 
Q 2900 1003 2900 1516 
L 2900 3500 
L 3475 3500 
L 3475 0 
L 2900 0 
L 2900 538 
Q 2691 219 2414 64 
Q 2138 -91 1772 -91 
Q 1169 -91 856 284 
Q 544 659 544 1381 
z
M 1991 3584 
L 1991 3584 
z
" transform="scale(0.015625)"/>
       <path id="DejaVuSans-6c" d="M 603 4863 
L 1178 4863 
L 1178 0 
L 603 0 
L 603 4863 
z
" transform="scale(0.015625)"/>
       <path id="DejaVuSans-3a" d="M 750 794 
L 1409 794 
L 1409 0 
L 750 0 
L 750 794 
z
M 750 3309 
L 1409 3309 
L 1409 2516 
L 750 2516 
L 750 3309 
z
" transform="scale(0.015625)"/>
       <path id="DejaVuSans-63" d="M 3122 3366 
L 3122 2828 
Q 2878 2963 2633 3030 
Q 2388 3097 2138 3097 
Q 1578 3097 1268 2742 
Q 959 2388 959 1747 
Q 959 1106 1268 751 
Q 1578 397 2138 397 
Q 2388 397 2633 464 
Q 2878 531 3122 666 
L 3122 134 
Q 2881 22 2623 -34 
Q 2366 -91 2075 -91 
Q 1284 -91 818 406 
Q 353 903 353 1747 
Q 353 2603 823 3093 
Q 1294 3584 2113 3584 
Q 2378 3584 2631 3529 
Q 2884 3475 3122 3366 
z
" transform="scale(0.015625)"/>
       <path id="DejaVuSans-6f" d="M 1959 3097 
Q 1497 3097 1228 2736 
Q 959 2375 959 1747 
Q 959 1119 1226 758 
Q 1494 397 1959 397 
Q 2419 397 2687 759 
Q 2956 1122 2956 1747 
Q 2956 2369 2687 2733 
Q 2419 3097 1959 3097 
z
M 1959 3584 
Q 2709 3584 3137 3096 
Q 3566 2609 3566 1747 
Q 3566 888 3137 398 
Q 2709 -91 1959 -91 
Q 1206 -91 779 398 
Q 353 888 353 1747 
Q 353 2609 779 3096 
Q 1206 3584 1959 3584 
z
" transform="scale(0.015625)"/>
       <path id="DejaVuSans-6e" d="M 3513 2113 
L 3513 0 
L 2938 0 
L 2938 2094 
Q 2938 2591 2744 2837 
Q 2550 3084 2163 3084 
Q 1697 3084 1428 2787 
Q 1159 2491 1159 1978 
L 1159 0 
L 581 0 
L 581 3500 
L 1159 3500 
L 1159 2956 
Q 1366 3272 1645 3428 
Q 1925 3584 2291 3584 
Q 2894 3584 3203 3211 
Q 3513 2838 3513 2113 
z
" transform="scale(0.015625)"/>
      </defs>
      <use xlink:href="#DejaVuSans-70"/>
      <use xlink:href="#DejaVuSans-75" transform="translate(63.476562 0)"/>
      <use xlink:href="#DejaVuSans-6c" transform="translate(126.855469 0)"/>
      <use xlink:href="#DejaVuSans-73" transform="translate(154.638672 0)"/>
      <use xlink:href="#DejaVuSans-65" transform="translate(206.738281 0)"/>
      <use xlink:href="#DejaVuSans-3a" transform="translate(268.261719 0)"/>
      <use xlink:href="#DejaVuSans-30" transform="translate(301.953125 0)"/>
      <use xlink:href="#DejaVuSans-20" transform="translate(365.576172 0)"/>
      <use xlink:href="#DejaVuSans-5b" transform="translate(397.363281 0)"/>
      <use xlink:href="#DejaVuSans-63" transform="translate(436.376953 0)"/>
      <use xlink:href="#DejaVuSans-6f" transform="translate(491.357422 0)"/>
      <use xlink:href="#DejaVuSans-75" transform="translate(552.539062 0)"/>
      <use xlink:href="#DejaVuSans-6e" transform="translate(615.917969 0)"/>
      <use xlink:href="#DejaVuSans-74" transform="translate(679.296875 0)"/>
      <use xlink:href="#DejaVuSans-73" transform="translate(718.505859 0)"/>
      <use xlink:href="#DejaVuSans-5d" transform="translate(770.605469 0)"/>
     </g>
    </g>
   </g>
   <g id="line2d_16">
    <path d="M 70.535018 139.589296 
L 71.682144 139.589296 
L 71.682144 92.660255 
L 72.82927 92.660255 
L 72.82927 130.532814 
L 73.976396 130.532814 
L 73.976396 84.427089 
L 75.123522 84.427089 
L 75.123522 160.995526 
L 76.270648 160.995526 
L 76.270648 140.412613 
L 77.417775 140.412613 
L 77.417775 146.999145 
L 78.564901 146.999145 
L 78.564901 119.006383 
L 79.712027 119.006383 
L 79.712027 142.059246 
L 80.859153 142.059246 
L 80.859153 166.758741 
L 82.006279 166.758741 
L 82.006279 133.826081 
L 83.153405 133.826081 
L 83.153405 144.529195 
L 84.300532 144.529195 
L 84.300532 51.494429 
L 85.447658 51.494429 
L 85.447658 169.228691 
L 86.594784 169.228691 
L 86.594784 102.540053 
L 87.74191 102.540053 
L 87.74191 202.161352 
L 88.889036 202.161352 
L 88.889036 146.175828 
L 90.036162 146.175828 
L 90.036162 95.953521 
L 91.183289 95.953521 
L 91.183289 109.949902 
L 92.330415 109.949902 
L 92.330415 105.833319 
L 93.477541 105.833319 
L 93.477541 215.334416 
L 94.624667 215.334416 
L 94.624667 73.723975 
L 95.771793 73.723975 
L 95.771793 102.540053 
L 96.918919 102.540053 
L 96.918919 175.815223 
L 98.066045 175.815223 
L 98.066045 107.479952 
L 99.213172 107.479952 
L 99.213172 188.988287 
L 100.360298 188.988287 
L 100.360298 139.589296 
L 101.507424 139.589296 
L 101.507424 160.172209 
L 102.65455 160.172209 
L 102.65455 171.69864 
L 103.801676 171.69864 
L 103.801676 230.97743 
L 104.948802 230.97743 
L 104.948802 144.529195 
L 106.095929 144.529195 
L 106.095929 142.059246 
L 107.243055 142.059246 
L 107.243055 167.582058 
L 108.390181 167.582058 
L 108.390181 179.108489 
L 109.537307 179.108489 
L 109.537307 156.055627 
L 110.684433 156.055627 
L 110.684433 126.416232 
L 111.831559 126.416232 
L 111.831559 104.186686 
L 112.978686 104.186686 
L 112.978686 101.716736 
L 114.125812 101.716736 
L 114.125812 151.115727 
L 115.272938 151.115727 
L 115.272938 108.303268 
L 116.420064 108.303268 
L 116.420064 197.221452 
L 117.56719 197.221452 
L 117.56719 40.791314 
L 118.714316 40.791314 
L 118.714316 171.69864 
L 119.861443 171.69864 
L 119.861443 165.112108 
L 121.008569 165.112108 
L 121.008569 106.656635 
L 122.155695 106.656635 
L 122.155695 113.243168 
L 123.302821 113.243168 
L 123.302821 167.582058 
L 124.449947 167.582058 
L 124.449947 151.115727 
L 125.597073 151.115727 
L 125.597073 124.769599 
L 126.7442 124.769599 
L 126.7442 106.656635 
L 127.891326 106.656635 
L 127.891326 103.363369 
L 129.038452 103.363369 
L 129.038452 143.705879 
L 130.185578 143.705879 
L 130.185578 193.10487 
L 131.332704 193.10487 
L 131.332704 128.062865 
L 132.47983 128.062865 
L 132.47983 97.600154 
L 133.626957 97.600154 
L 133.626957 119.006383 
L 134.774083 119.006383 
L 134.774083 142.059246 
L 135.921209 142.059246 
L 135.921209 108.303268 
L 137.068335 108.303268 
L 137.068335 117.35975 
L 138.215461 117.35975 
L 138.215461 128.062865 
L 139.362587 128.062865 
L 139.362587 81.133823 
L 140.509714 81.133823 
L 140.509714 89.366989 
L 141.65684 89.366989 
L 141.65684 156.055627 
L 142.803966 156.055627 
L 142.803966 174.991906 
L 143.951092 174.991906 
L 143.951092 119.8297 
L 145.098218 119.8297 
L 145.098218 54.787695 
L 146.245344 54.787695 
L 146.245344 122.299649 
L 147.392471 122.299649 
L 147.392471 164.288792 
L 148.539597 164.288792 
L 148.539597 160.172209 
L 149.686723 160.172209 
L 149.686723 84.427089 
L 150.833849 84.427089 
L 150.833849 72.077342 
L 151.980975 72.077342 
L 151.980975 33.381465 
L 153.128101 33.381465 
L 153.128101 84.427089 
L 154.275228 84.427089 
L 154.275228 221.920948 
L 155.422354 221.920948 
L 155.422354 105.833319 
L 156.56948 105.833319 
L 156.56948 176.638539 
L 157.716606 176.638539 
L 157.716606 158.525576 
L 158.863732 158.525576 
L 158.863732 90.190305 
L 160.010858 90.190305 
L 160.010858 103.363369 
L 161.157985 103.363369 
L 161.157985 82.780456 
L 162.305111 82.780456 
L 162.305111 71.254025 
L 163.452237 71.254025 
L 163.452237 91.013622 
L 164.599363 91.013622 
L 164.599363 101.716736 
L 165.746489 101.716736 
L 165.746489 137.119347 
L 166.893615 137.119347 
L 166.893615 167.582058 
L 168.040742 167.582058 
L 168.040742 230.154113 
L 169.187868 230.154113 
L 169.187868 145.352512 
L 170.334994 145.352512 
L 170.334994 235.094012 
L 171.48212 235.094012 
L 171.48212 40.791314 
L 172.629246 40.791314 
L 172.629246 199.691402 
L 173.776372 199.691402 
L 173.776372 138.76598 
L 174.923499 138.76598 
L 174.923499 162.642159 
L 176.070625 162.642159 
L 176.070625 180.755122 
L 177.217751 180.755122 
L 177.217751 159.348893 
L 178.364877 159.348893 
L 178.364877 53.141062 
L 179.512003 53.141062 
L 179.512003 160.995526 
L 180.659129 160.995526 
L 180.659129 87.720356 
L 181.806256 87.720356 
L 181.806256 158.525576 
L 182.953382 158.525576 
L 182.953382 36.674731 
L 184.100508 36.674731 
L 184.100508 126.416232 
L 185.247634 126.416232 
L 185.247634 47.377846 
L 186.39476 47.377846 
L 186.39476 143.705879 
L 187.541886 143.705879 
L 187.541886 104.186686 
L 188.689013 104.186686 
L 188.689013 106.656635 
L 189.836139 106.656635 
L 189.836139 143.705879 
L 190.983265 143.705879 
L 190.983265 190.63492 
L 192.130391 190.63492 
L 192.130391 134.649397 
L 193.277517 134.649397 
L 193.277517 155.23231 
L 194.424643 155.23231 
L 194.424643 195.574819 
L 195.57177 195.574819 
L 195.57177 104.186686 
L 196.718896 104.186686 
L 196.718896 191.458237 
L 197.866022 191.458237 
L 197.866022 184.871705 
L 199.013148 184.871705 
L 199.013148 162.642159 
L 200.160274 162.642159 
L 200.160274 110.773218 
L 201.3074 110.773218 
L 201.3074 204.631301 
L 202.454527 204.631301 
L 202.454527 63.02086 
L 203.601653 63.02086 
L 203.601653 102.540053 
L 204.748779 102.540053 
L 204.748779 155.23231 
L 205.895905 155.23231 
L 205.895905 216.981049 
L 207.043031 216.981049 
L 207.043031 110.773218 
L 208.190157 110.773218 
L 208.190157 67.137443 
L 209.337284 67.137443 
L 209.337284 173.345273 
L 210.48441 173.345273 
L 210.48441 86.897039 
L 211.631536 86.897039 
L 211.631536 204.631301 
L 212.778662 204.631301 
L 212.778662 100.070103 
L 213.925788 100.070103 
L 213.925788 174.16859 
L 215.072914 174.16859 
L 215.072914 220.274315 
L 216.220041 220.274315 
L 216.220041 18.561768 
L 217.367167 18.561768 
L 217.367167 115.713117 
L 218.514293 115.713117 
L 218.514293 235.917329 
L 219.661419 235.917329 
L 219.661419 77.017241 
L 220.808545 77.017241 
L 220.808545 138.76598 
L 221.955671 138.76598 
L 221.955671 70.430709 
L 223.102798 70.430709 
L 223.102798 59.727594 
L 224.249924 59.727594 
L 224.249924 200.514719 
L 225.39705 200.514719 
L 225.39705 170.052007 
L 226.544176 170.052007 
L 226.544176 104.186686 
L 227.691302 104.186686 
L 227.691302 212.864466 
L 228.838428 212.864466 
L 228.838428 196.398136 
L 229.985555 196.398136 
L 229.985555 154.408993 
L 231.132681 154.408993 
L 231.132681 184.048388 
L 232.279807 184.048388 
L 232.279807 112.419851 
L 233.426933 112.419851 
L 233.426933 121.476333 
L 234.574059 121.476333 
L 234.574059 149.469094 
L 235.721185 149.469094 
L 235.721185 118.183067 
L 238.015438 118.183067 
L 238.015438 77.017241 
L 239.162564 77.017241 
L 239.162564 171.69864 
L 240.30969 171.69864 
L 240.30969 81.95714 
L 241.456816 81.95714 
L 241.456816 61.374227 
L 242.603942 61.374227 
L 242.603942 139.589296 
L 243.751069 139.589296 
L 243.751069 86.897039 
L 244.898195 86.897039 
L 244.898195 137.942663 
L 246.045321 137.942663 
L 246.045321 174.991906 
L 247.192447 174.991906 
L 247.192447 163.465475 
L 248.339573 163.465475 
L 248.339573 123.946282 
L 249.486699 123.946282 
L 249.486699 137.942663 
L 250.633826 137.942663 
L 250.633826 221.920948 
L 251.780952 221.920948 
L 251.780952 168.405374 
L 252.928078 168.405374 
L 252.928078 157.70226 
L 254.075204 157.70226 
L 254.075204 76.193924 
L 255.22233 76.193924 
L 255.22233 193.10487 
L 256.369456 193.10487 
L 256.369456 163.465475 
L 257.516583 163.465475 
L 257.516583 172.521957 
L 258.663709 172.521957 
L 258.663709 160.172209 
L 259.810835 160.172209 
L 259.810835 136.29603 
L 260.957961 136.29603 
L 260.957961 193.10487 
L 262.105087 193.10487 
L 262.105087 86.073722 
L 263.252213 86.073722 
L 263.252213 195.574819 
L 264.39934 195.574819 
L 264.39934 134.649397 
L 265.546466 134.649397 
L 265.546466 137.942663 
L 266.693592 137.942663 
L 266.693592 89.366989 
L 267.840718 89.366989 
L 267.840718 173.345273 
L 268.987844 173.345273 
L 268.987844 142.059246 
L 270.13497 142.059246 
L 270.13497 128.886181 
L 271.282097 128.886181 
L 271.282097 131.356131 
L 272.429223 131.356131 
L 272.429223 100.89342 
L 273.576349 100.89342 
L 273.576349 188.988287 
L 274.723475 188.988287 
L 274.723475 138.76598 
L 275.870601 138.76598 
L 275.870601 85.250406 
L 277.017727 85.250406 
L 277.017727 189.811604 
L 278.164854 189.811604 
L 278.164854 107.479952 
L 279.31198 107.479952 
L 279.31198 131.356131 
L 280.459106 131.356131 
L 280.459106 159.348893 
L 281.606232 159.348893 
L 281.606232 176.638539 
L 282.753358 176.638539 
L 282.753358 170.052007 
L 283.900484 170.052007 
L 283.900484 109.949902 
L 285.047611 109.949902 
L 285.047611 163.465475 
L 286.194737 163.465475 
L 286.194737 91.013622 
L 287.341863 91.013622 
L 287.341863 200.514719 
L 288.488989 200.514719 
L 288.488989 152.76236 
L 289.636115 152.76236 
L 289.636115 225.214214 
L 290.783241 225.214214 
L 290.783241 114.889801 
L 291.930368 114.889801 
L 291.930368 123.122966 
L 293.077494 123.122966 
L 293.077494 105.833319 
L 294.22462 105.833319 
L 294.22462 142.059246 
L 295.371746 142.059246 
L 295.371746 110.773218 
L 296.518872 110.773218 
L 296.518872 149.469094 
L 297.665998 149.469094 
L 297.665998 142.882562 
L 298.813125 142.882562 
L 298.813125 151.939044 
L 299.960251 151.939044 
L 299.960251 179.108489 
L 301.107377 179.108489 
L 301.107377 103.363369 
L 302.254503 103.363369 
L 302.254503 133.002764 
L 303.401629 133.002764 
L 303.401629 56.434328 
L 304.548755 56.434328 
L 304.548755 104.186686 
L 305.695882 104.186686 
L 305.695882 220.274315 
L 306.843008 220.274315 
L 306.843008 68.784076 
L 307.990134 68.784076 
L 307.990134 182.401755 
L 309.13726 182.401755 
L 309.13726 167.582058 
L 310.284386 167.582058 
L 310.284386 165.935425 
L 311.431512 165.935425 
L 311.431512 117.35975 
L 312.578639 117.35975 
L 312.578639 121.476333 
L 313.725765 121.476333 
L 313.725765 214.511099 
L 314.872891 214.511099 
L 314.872891 93.483571 
L 316.020017 93.483571 
L 316.020017 147.822461 
L 317.167143 147.822461 
L 317.167143 125.592915 
L 318.314269 125.592915 
L 318.314269 130.532814 
L 319.461396 130.532814 
L 319.461396 146.175828 
L 320.608522 146.175828 
L 320.608522 142.059246 
L 321.755648 142.059246 
L 321.755648 91.836938 
L 322.902774 91.836938 
L 322.902774 190.63492 
L 324.0499 190.63492 
L 324.0499 217.804365 
L 325.197026 217.804365 
L 325.197026 105.010002 
L 326.344153 105.010002 
L 326.344153 121.476333 
L 327.491279 121.476333 
L 327.491279 73.723975 
L 328.638405 73.723975 
L 328.638405 91.836938 
L 329.785531 91.836938 
L 329.785531 99.246787 
L 330.932657 99.246787 
L 330.932657 130.532814 
L 332.079783 130.532814 
L 332.079783 171.69864 
L 333.22691 171.69864 
L 333.22691 105.833319 
L 334.374036 105.833319 
L 334.374036 109.126585 
L 335.521162 109.126585 
L 335.521162 196.398136 
L 336.668288 196.398136 
L 336.668288 110.773218 
L 337.815414 110.773218 
L 337.815414 166.758741 
L 338.96254 166.758741 
L 338.96254 119.006383 
L 340.109667 119.006383 
L 340.109667 141.235929 
L 341.256793 141.235929 
L 341.256793 45.731213 
L 342.403919 45.731213 
L 342.403919 114.889801 
L 343.551045 114.889801 
L 343.551045 115.713117 
L 344.698171 115.713117 
L 344.698171 156.055627 
L 345.845297 156.055627 
L 345.845297 107.479952 
L 346.992424 107.479952 
L 346.992424 245.797127 
L 348.13955 245.797127 
L 348.13955 174.16859 
L 349.286676 174.16859 
L 349.286676 179.931806 
L 350.433802 179.931806 
L 350.433802 225.214214 
L 351.580928 225.214214 
L 351.580928 137.119347 
L 352.728054 137.119347 
L 352.728054 156.055627 
L 353.875181 156.055627 
L 353.875181 184.048388 
L 355.022307 184.048388 
L 355.022307 41.61463 
L 356.169433 41.61463 
L 356.169433 102.540053 
L 357.316559 102.540053 
L 357.316559 100.89342 
L 358.463685 100.89342 
L 358.463685 130.532814 
L 359.610811 130.532814 
L 359.610811 174.16859 
L 360.757938 174.16859 
L 360.757938 188.164971 
L 361.905064 188.164971 
L 361.905064 156.055627 
L 363.05219 156.055627 
L 363.05219 117.35975 
L 364.199316 117.35975 
L 364.199316 81.133823 
L 365.346442 81.133823 
L 365.346442 145.352512 
L 366.493568 145.352512 
L 366.493568 146.175828 
L 367.640695 146.175828 
L 367.640695 73.723975 
L 368.787821 73.723975 
L 368.787821 176.638539 
L 369.934947 176.638539 
L 369.934947 110.773218 
L 371.082073 110.773218 
L 371.082073 144.529195 
L 372.229199 144.529195 
L 372.229199 119.006383 
L 373.376325 119.006383 
L 373.376325 122.299649 
L 374.523452 122.299649 
L 374.523452 178.285173 
L 375.670578 178.285173 
L 375.670578 179.931806 
L 376.817704 179.931806 
L 376.817704 184.871705 
L 377.96483 184.871705 
L 377.96483 105.833319 
L 379.111956 105.833319 
L 379.111956 168.405374 
L 380.259082 168.405374 
L 380.259082 200.514719 
L 381.406209 200.514719 
L 381.406209 117.35975 
L 382.553335 117.35975 
L 382.553335 96.776837 
L 383.700461 96.776837 
L 383.700461 203.807985 
L 384.847587 203.807985 
L 384.847587 186.518338 
L 385.994713 186.518338 
L 385.994713 48.201163 
L 387.141839 48.201163 
L 387.141839 159.348893 
L 388.288966 159.348893 
L 388.288966 72.900658 
L 389.436092 72.900658 
L 389.436092 142.882562 
L 390.583218 142.882562 
L 390.583218 97.600154 
L 391.730344 97.600154 
L 391.730344 58.080961 
L 392.87747 58.080961 
L 392.87747 103.363369 
L 394.024596 103.363369 
L 394.024596 150.292411 
L 395.171723 150.292411 
L 395.171723 90.190305 
L 396.318849 90.190305 
L 396.318849 138.76598 
L 397.465975 138.76598 
L 397.465975 51.494429 
L 398.613101 51.494429 
L 398.613101 146.175828 
L 399.760227 146.175828 
L 399.760227 112.419851 
L 400.907353 112.419851 
L 400.907353 84.427089 
L 402.05448 84.427089 
L 402.05448 179.108489 
L 403.201606 179.108489 
L 403.201606 165.112108 
L 404.348732 165.112108 
L 404.348732 124.769599 
L 405.495858 124.769599 
L 405.495858 49.847796 
L 406.642984 49.847796 
L 406.642984 147.822461 
L 407.79011 147.822461 
L 407.79011 60.55091 
L 408.937237 60.55091 
L 408.937237 171.69864 
L 410.084363 171.69864 
L 410.084363 91.836938 
L 411.231489 91.836938 
L 411.231489 133.826081 
L 412.378615 133.826081 
L 412.378615 170.052007 
L 413.525741 170.052007 
L 413.525741 105.833319 
L 414.672867 105.833319 
L 414.672867 105.833319 
" clip-path="url(#p32ba904567)" style="fill: none; stroke: #1f77b4; stroke-width: 1.5; stroke-linecap: square"/>
   </g>
   <g id="patch_3">
    <path d="M 53.328125 257.158895 
L 53.328125 7.2 
" style="fill: none; stroke: #000000; stroke-width: 0.8; stroke-linejoin: miter; stroke-linecap: square"/>
   </g>
   <g id="patch_4">
    <path d="M 431.87976 257.158895 
L 431.87976 7.2 
" style="fill: none; stroke: #000000; stroke-width: 0.8; stroke-linejoin: miter; stroke-linecap: square"/>
   </g>
   <g id="patch_5">
    <path d="M 53.328125 257.158895 
L 431.87976 257.158895 
" style="fill: none; stroke: #000000; stroke-width: 0.8; stroke-linejoin: miter; stroke-linecap: square"/>
   </g>
   <g id="patch_6">
    <path d="M 53.328125 7.2 
L 431.87976 7.2 
" style="fill: none; stroke: #000000; stroke-width: 0.8; stroke-linejoin: miter; stroke-linecap: square"/>
   </g>
  </g>
  <g id="axes_2">
   <g id="patch_7">
    <path d="M 486.647885 257.158895 
L 865.19952 257.158895 
L 865.19952 7.2 
L 486.647885 7.2 
z
" style="fill: #ffffff"/>
   </g>
   <g id="matplotlib.axis_3">
    <g id="xtick_10">
     <g id="line2d_17">
      <g>
       <use xlink:href="#mc52bd31c8e" x="542.092226" y="257.158895" style="stroke: #000000; stroke-width: 0.8"/>
      </g>
     </g>
     <g id="text_18">
      <!-- 2 -->
      <g transform="translate(538.910976 271.757333) scale(0.1 -0.1)">
       <use xlink:href="#DejaVuSans-32"/>
      </g>
     </g>
    </g>
    <g id="xtick_11">
     <g id="line2d_18">
      <g>
       <use xlink:href="#mc52bd31c8e" x="618.567343" y="257.158895" style="stroke: #000000; stroke-width: 0.8"/>
      </g>
     </g>
     <g id="text_19">
      <!-- 4 -->
      <g transform="translate(615.386093 271.757333) scale(0.1 -0.1)">
       <use xlink:href="#DejaVuSans-34"/>
      </g>
     </g>
    </g>
    <g id="xtick_12">
     <g id="line2d_19">
      <g>
       <use xlink:href="#mc52bd31c8e" x="695.04246" y="257.158895" style="stroke: #000000; stroke-width: 0.8"/>
      </g>
     </g>
     <g id="text_20">
      <!-- 6 -->
      <g transform="translate(691.86121 271.757333) scale(0.1 -0.1)">
       <defs>
        <path id="DejaVuSans-36" d="M 2113 2584 
Q 1688 2584 1439 2293 
Q 1191 2003 1191 1497 
Q 1191 994 1439 701 
Q 1688 409 2113 409 
Q 2538 409 2786 701 
Q 3034 994 3034 1497 
Q 3034 2003 2786 2293 
Q 2538 2584 2113 2584 
z
M 3366 4563 
L 3366 3988 
Q 3128 4100 2886 4159 
Q 2644 4219 2406 4219 
Q 1781 4219 1451 3797 
Q 1122 3375 1075 2522 
Q 1259 2794 1537 2939 
Q 1816 3084 2150 3084 
Q 2853 3084 3261 2657 
Q 3669 2231 3669 1497 
Q 3669 778 3244 343 
Q 2819 -91 2113 -91 
Q 1303 -91 875 529 
Q 447 1150 447 2328 
Q 447 3434 972 4092 
Q 1497 4750 2381 4750 
Q 2619 4750 2861 4703 
Q 3103 4656 3366 4563 
z
" transform="scale(0.015625)"/>
       </defs>
       <use xlink:href="#DejaVuSans-36"/>
      </g>
     </g>
    </g>
    <g id="xtick_13">
     <g id="line2d_20">
      <g>
       <use xlink:href="#mc52bd31c8e" x="771.517577" y="257.158895" style="stroke: #000000; stroke-width: 0.8"/>
      </g>
     </g>
     <g id="text_21">
      <!-- 8 -->
      <g transform="translate(768.336327 271.757333) scale(0.1 -0.1)">
       <defs>
        <path id="DejaVuSans-38" d="M 2034 2216 
Q 1584 2216 1326 1975 
Q 1069 1734 1069 1313 
Q 1069 891 1326 650 
Q 1584 409 2034 409 
Q 2484 409 2743 651 
Q 3003 894 3003 1313 
Q 3003 1734 2745 1975 
Q 2488 2216 2034 2216 
z
M 1403 2484 
Q 997 2584 770 2862 
Q 544 3141 544 3541 
Q 544 4100 942 4425 
Q 1341 4750 2034 4750 
Q 2731 4750 3128 4425 
Q 3525 4100 3525 3541 
Q 3525 3141 3298 2862 
Q 3072 2584 2669 2484 
Q 3125 2378 3379 2068 
Q 3634 1759 3634 1313 
Q 3634 634 3220 271 
Q 2806 -91 2034 -91 
Q 1263 -91 848 271 
Q 434 634 434 1313 
Q 434 1759 690 2068 
Q 947 2378 1403 2484 
z
M 1172 3481 
Q 1172 3119 1398 2916 
Q 1625 2713 2034 2713 
Q 2441 2713 2670 2916 
Q 2900 3119 2900 3481 
Q 2900 3844 2670 4047 
Q 2441 4250 2034 4250 
Q 1625 4250 1398 4047 
Q 1172 3844 1172 3481 
z
" transform="scale(0.015625)"/>
       </defs>
       <use xlink:href="#DejaVuSans-38"/>
      </g>
     </g>
    </g>
    <g id="xtick_14">
     <g id="line2d_21">
      <g>
       <use xlink:href="#mc52bd31c8e" x="847.992694" y="257.158895" style="stroke: #000000; stroke-width: 0.8"/>
      </g>
     </g>
     <g id="text_22">
      <!-- 10 -->
      <g transform="translate(841.630194 271.757333) scale(0.1 -0.1)">
       <use xlink:href="#DejaVuSans-31"/>
       <use xlink:href="#DejaVuSans-30" transform="translate(63.623047 0)"/>
      </g>
     </g>
    </g>
    <g id="text_23">
     <!-- wavelength [Å] -->
     <g transform="translate(637.886202 287.119833) scale(0.1 -0.1)">
      <defs>
       <path id="DejaVuSans-77" d="M 269 3500 
L 844 3500 
L 1563 769 
L 2278 3500 
L 2956 3500 
L 3675 769 
L 4391 3500 
L 4966 3500 
L 4050 0 
L 3372 0 
L 2619 2869 
L 1863 0 
L 1184 0 
L 269 3500 
z
" transform="scale(0.015625)"/>
       <path id="DejaVuSans-61" d="M 2194 1759 
Q 1497 1759 1228 1600 
Q 959 1441 959 1056 
Q 959 750 1161 570 
Q 1363 391 1709 391 
Q 2188 391 2477 730 
Q 2766 1069 2766 1631 
L 2766 1759 
L 2194 1759 
z
M 3341 1997 
L 3341 0 
L 2766 0 
L 2766 531 
Q 2569 213 2275 61 
Q 1981 -91 1556 -91 
Q 1019 -91 701 211 
Q 384 513 384 1019 
Q 384 1609 779 1909 
Q 1175 2209 1959 2209 
L 2766 2209 
L 2766 2266 
Q 2766 2663 2505 2880 
Q 2244 3097 1772 3097 
Q 1472 3097 1187 3025 
Q 903 2953 641 2809 
L 641 3341 
Q 956 3463 1253 3523 
Q 1550 3584 1831 3584 
Q 2591 3584 2966 3190 
Q 3341 2797 3341 1997 
z
" transform="scale(0.015625)"/>
       <path id="DejaVuSans-76" d="M 191 3500 
L 800 3500 
L 1894 563 
L 2988 3500 
L 3597 3500 
L 2284 0 
L 1503 0 
L 191 3500 
z
" transform="scale(0.015625)"/>
       <path id="DejaVuSans-67" d="M 2906 1791 
Q 2906 2416 2648 2759 
Q 2391 3103 1925 3103 
Q 1463 3103 1205 2759 
Q 947 2416 947 1791 
Q 947 1169 1205 825 
Q 1463 481 1925 481 
Q 2391 481 2648 825 
Q 2906 1169 2906 1791 
z
M 3481 434 
Q 3481 -459 3084 -895 
Q 2688 -1331 1869 -1331 
Q 1566 -1331 1297 -1286 
Q 1028 -1241 775 -1147 
L 775 -588 
Q 1028 -725 1275 -790 
Q 1522 -856 1778 -856 
Q 2344 -856 2625 -561 
Q 2906 -266 2906 331 
L 2906 616 
Q 2728 306 2450 153 
Q 2172 0 1784 0 
Q 1141 0 747 490 
Q 353 981 353 1791 
Q 353 2603 747 3093 
Q 1141 3584 1784 3584 
Q 2172 3584 2450 3431 
Q 2728 3278 2906 2969 
L 2906 3500 
L 3481 3500 
L 3481 434 
z
" transform="scale(0.015625)"/>
       <path id="DejaVuSans-c5" d="M 2663 5081 
Q 2663 5278 2523 5417 
Q 2384 5556 2188 5556 
Q 1988 5556 1852 5420 
Q 1716 5284 1716 5081 
Q 1716 4884 1853 4746 
Q 1991 4609 2188 4609 
Q 2384 4609 2523 4746 
Q 2663 4884 2663 5081 
z
M 2188 4044 
L 1338 1722 
L 3041 1722 
L 2188 4044 
z
M 1716 4366 
Q 1525 4494 1428 4673 
Q 1331 4853 1331 5081 
Q 1331 5441 1579 5691 
Q 1828 5941 2188 5941 
Q 2544 5941 2795 5689 
Q 3047 5438 3047 5081 
Q 3047 4863 2948 4678 
Q 2850 4494 2663 4366 
L 4325 0 
L 3669 0 
L 3244 1197 
L 1141 1197 
L 716 0 
L 50 0 
L 1716 4366 
z
" transform="scale(0.015625)"/>
      </defs>
      <use xlink:href="#DejaVuSans-77"/>
      <use xlink:href="#DejaVuSans-61" transform="translate(81.787109 0)"/>
      <use xlink:href="#DejaVuSans-76" transform="translate(143.066406 0)"/>
      <use xlink:href="#DejaVuSans-65" transform="translate(202.246094 0)"/>
      <use xlink:href="#DejaVuSans-6c" transform="translate(263.769531 0)"/>
      <use xlink:href="#DejaVuSans-65" transform="translate(291.552734 0)"/>
      <use xlink:href="#DejaVuSans-6e" transform="translate(353.076172 0)"/>
      <use xlink:href="#DejaVuSans-67" transform="translate(416.455078 0)"/>
      <use xlink:href="#DejaVuSans-74" transform="translate(479.931641 0)"/>
      <use xlink:href="#DejaVuSans-68" transform="translate(519.140625 0)"/>
      <use xlink:href="#DejaVuSans-20" transform="translate(582.519531 0)"/>
      <use xlink:href="#DejaVuSans-5b" transform="translate(614.306641 0)"/>
      <use xlink:href="#DejaVuSans-c5" transform="translate(653.320312 0)"/>
      <use xlink:href="#DejaVuSans-5d" transform="translate(721.728516 0)"/>
     </g>
    </g>
   </g>
   <g id="matplotlib.axis_4">
    <g id="ytick_7">
     <g id="line2d_22">
      <g>
       <use xlink:href="#m012362ba15" x="486.647885" y="233.872239" style="stroke: #000000; stroke-width: 0.8"/>
      </g>
     </g>
     <g id="text_24">
      <!-- 3150 -->
      <g transform="translate(454.197885 237.671458) scale(0.1 -0.1)">
       <use xlink:href="#DejaVuSans-33"/>
       <use xlink:href="#DejaVuSans-31" transform="translate(63.623047 0)"/>
       <use xlink:href="#DejaVuSans-35" transform="translate(127.246094 0)"/>
       <use xlink:href="#DejaVuSans-30" transform="translate(190.869141 0)"/>
      </g>
     </g>
    </g>
    <g id="ytick_8">
     <g id="line2d_23">
      <g>
       <use xlink:href="#m012362ba15" x="486.647885" y="200.747551" style="stroke: #000000; stroke-width: 0.8"/>
      </g>
     </g>
     <g id="text_25">
      <!-- 3200 -->
      <g transform="translate(454.197885 204.54677) scale(0.1 -0.1)">
       <use xlink:href="#DejaVuSans-33"/>
       <use xlink:href="#DejaVuSans-32" transform="translate(63.623047 0)"/>
       <use xlink:href="#DejaVuSans-30" transform="translate(127.246094 0)"/>
       <use xlink:href="#DejaVuSans-30" transform="translate(190.869141 0)"/>
      </g>
     </g>
    </g>
    <g id="ytick_9">
     <g id="line2d_24">
      <g>
       <use xlink:href="#m012362ba15" x="486.647885" y="167.622864" style="stroke: #000000; stroke-width: 0.8"/>
      </g>
     </g>
     <g id="text_26">
      <!-- 3250 -->
      <g transform="translate(454.197885 171.422082) scale(0.1 -0.1)">
       <use xlink:href="#DejaVuSans-33"/>
       <use xlink:href="#DejaVuSans-32" transform="translate(63.623047 0)"/>
       <use xlink:href="#DejaVuSans-35" transform="translate(127.246094 0)"/>
       <use xlink:href="#DejaVuSans-30" transform="translate(190.869141 0)"/>
      </g>
     </g>
    </g>
    <g id="ytick_10">
     <g id="line2d_25">
      <g>
       <use xlink:href="#m012362ba15" x="486.647885" y="134.498176" style="stroke: #000000; stroke-width: 0.8"/>
      </g>
     </g>
     <g id="text_27">
      <!-- 3300 -->
      <g transform="translate(454.197885 138.297394) scale(0.1 -0.1)">
       <use xlink:href="#DejaVuSans-33"/>
       <use xlink:href="#DejaVuSans-33" transform="translate(63.623047 0)"/>
       <use xlink:href="#DejaVuSans-30" transform="translate(127.246094 0)"/>
       <use xlink:href="#DejaVuSans-30" transform="translate(190.869141 0)"/>
      </g>
     </g>
    </g>
    <g id="ytick_11">
     <g id="line2d_26">
      <g>
       <use xlink:href="#m012362ba15" x="486.647885" y="101.373488" style="stroke: #000000; stroke-width: 0.8"/>
      </g>
     </g>
     <g id="text_28">
      <!-- 3350 -->
      <g transform="translate(454.197885 105.172706) scale(0.1 -0.1)">
       <use xlink:href="#DejaVuSans-33"/>
       <use xlink:href="#DejaVuSans-33" transform="translate(63.623047 0)"/>
       <use xlink:href="#DejaVuSans-35" transform="translate(127.246094 0)"/>
       <use xlink:href="#DejaVuSans-30" transform="translate(190.869141 0)"/>
      </g>
     </g>
    </g>
    <g id="ytick_12">
     <g id="line2d_27">
      <g>
       <use xlink:href="#m012362ba15" x="486.647885" y="68.2488" style="stroke: #000000; stroke-width: 0.8"/>
      </g>
     </g>
     <g id="text_29">
      <!-- 3400 -->
      <g transform="translate(454.197885 72.048019) scale(0.1 -0.1)">
       <use xlink:href="#DejaVuSans-33"/>
       <use xlink:href="#DejaVuSans-34" transform="translate(63.623047 0)"/>
       <use xlink:href="#DejaVuSans-30" transform="translate(127.246094 0)"/>
       <use xlink:href="#DejaVuSans-30" transform="translate(190.869141 0)"/>
      </g>
     </g>
    </g>
    <g id="ytick_13">
     <g id="line2d_28">
      <g>
       <use xlink:href="#m012362ba15" x="486.647885" y="35.124112" style="stroke: #000000; stroke-width: 0.8"/>
      </g>
     </g>
     <g id="text_30">
      <!-- 3450 -->
      <g transform="translate(454.197885 38.923331) scale(0.1 -0.1)">
       <use xlink:href="#DejaVuSans-33"/>
       <use xlink:href="#DejaVuSans-34" transform="translate(63.623047 0)"/>
       <use xlink:href="#DejaVuSans-35" transform="translate(127.246094 0)"/>
       <use xlink:href="#DejaVuSans-30" transform="translate(190.869141 0)"/>
      </g>
     </g>
    </g>
    <g id="text_31">
     <!-- pulse:0 [counts] -->
     <g transform="translate(448.118197 172.659916) rotate(-90) scale(0.1 -0.1)">
      <use xlink:href="#DejaVuSans-70"/>
      <use xlink:href="#DejaVuSans-75" transform="translate(63.476562 0)"/>
      <use xlink:href="#DejaVuSans-6c" transform="translate(126.855469 0)"/>
      <use xlink:href="#DejaVuSans-73" transform="translate(154.638672 0)"/>
      <use xlink:href="#DejaVuSans-65" transform="translate(206.738281 0)"/>
      <use xlink:href="#DejaVuSans-3a" transform="translate(268.261719 0)"/>
      <use xlink:href="#DejaVuSans-30" transform="translate(301.953125 0)"/>
      <use xlink:href="#DejaVuSans-20" transform="translate(365.576172 0)"/>
      <use xlink:href="#DejaVuSans-5b" transform="translate(397.363281 0)"/>
      <use xlink:href="#DejaVuSans-63" transform="translate(436.376953 0)"/>
      <use xlink:href="#DejaVuSans-6f" transform="translate(491.357422 0)"/>
      <use xlink:href="#DejaVuSans-75" transform="translate(552.539062 0)"/>
      <use xlink:href="#DejaVuSans-6e" transform="translate(615.917969 0)"/>
      <use xlink:href="#DejaVuSans-74" transform="translate(679.296875 0)"/>
      <use xlink:href="#DejaVuSans-73" transform="translate(718.505859 0)"/>
      <use xlink:href="#DejaVuSans-5d" transform="translate(770.605469 0)"/>
     </g>
    </g>
   </g>
   <g id="line2d_29">
    <path d="M 503.854777 131.848201 
L 505.001904 131.848201 
L 505.001904 64.936331 
L 506.14903 64.936331 
L 506.14903 139.798126 
L 507.296156 139.798126 
L 507.296156 84.811144 
L 508.443282 84.811144 
L 508.443282 35.786606 
L 509.590408 35.786606 
L 509.590408 119.260819 
L 510.737534 119.260819 
L 510.737534 154.372988 
L 511.884661 154.372988 
L 511.884661 115.285857 
L 513.031787 115.285857 
L 513.031787 143.110595 
L 514.178913 143.110595 
L 514.178913 129.198226 
L 515.326039 129.198226 
L 515.326039 48.373987 
L 516.473165 48.373987 
L 516.473165 142.448101 
L 517.620291 142.448101 
L 517.620291 159.010445 
L 518.767418 159.010445 
L 518.767418 112.635882 
L 519.914544 112.635882 
L 519.914544 85.473638 
L 521.06167 85.473638 
L 521.06167 94.74855 
L 522.208796 94.74855 
L 522.208796 101.373488 
L 523.355922 101.373488 
L 523.355922 51.023962 
L 524.503048 51.023962 
L 524.503048 176.897776 
L 525.650175 176.897776 
L 525.650175 135.160669 
L 526.797301 135.160669 
L 526.797301 88.123613 
L 527.944427 88.123613 
L 527.944427 109.985907 
L 529.091553 109.985907 
L 529.091553 87.461119 
L 530.238679 87.461119 
L 530.238679 145.098076 
L 531.385805 145.098076 
L 531.385805 111.310894 
L 532.532932 111.310894 
L 532.532932 127.873238 
L 533.680058 127.873238 
L 533.680058 152.385507 
L 534.827184 152.385507 
L 534.827184 166.96037 
L 535.97431 166.96037 
L 535.97431 72.223762 
L 537.121436 72.223762 
L 537.121436 118.598325 
L 538.268562 118.598325 
L 538.268562 78.8487 
L 539.415689 78.8487 
L 539.415689 113.960869 
L 540.562815 113.960869 
L 540.562815 89.4486 
L 541.709941 89.4486 
L 541.709941 126.548251 
L 542.857067 126.548251 
L 542.857067 139.135632 
L 544.004193 139.135632 
L 544.004193 140.460619 
L 545.151319 140.460619 
L 545.151319 117.273338 
L 546.298446 117.273338 
L 546.298446 115.285857 
L 547.445572 115.285857 
L 547.445572 133.173188 
L 548.592698 133.173188 
L 548.592698 96.073538 
L 549.739824 96.073538 
L 549.739824 153.710495 
L 550.88695 153.710495 
L 550.88695 143.110595 
L 552.034076 143.110595 
L 552.034076 133.173188 
L 553.181203 133.173188 
L 553.181203 84.14865 
L 554.328329 84.14865 
L 554.328329 33.799124 
L 555.475455 33.799124 
L 555.475455 39.099074 
L 556.622581 39.099074 
L 556.622581 136.485657 
L 557.769707 136.485657 
L 557.769707 130.523213 
L 558.916833 130.523213 
L 558.916833 157.685457 
L 560.06396 157.685457 
L 560.06396 84.811144 
L 561.211086 84.811144 
L 561.211086 125.885757 
L 562.358212 125.885757 
L 562.358212 76.861219 
L 563.505338 76.861219 
L 563.505338 104.023463 
L 564.652464 104.023463 
L 564.652464 84.811144 
L 565.79959 84.811144 
L 565.79959 129.198226 
L 566.946717 129.198226 
L 566.946717 148.410545 
L 568.093843 148.410545 
L 568.093843 143.110595 
L 569.240969 143.110595 
L 569.240969 117.935832 
L 570.388095 117.935832 
L 570.388095 177.56027 
L 571.535221 177.56027 
L 571.535221 121.910794 
L 572.682347 121.910794 
L 572.682347 35.124112 
L 573.829474 35.124112 
L 573.829474 137.148151 
L 574.9766 137.148151 
L 574.9766 119.260819 
L 576.123726 119.260819 
L 576.123726 62.286356 
L 577.270852 62.286356 
L 577.270852 54.336431 
L 578.417978 54.336431 
L 578.417978 105.34845 
L 579.565104 105.34845 
L 579.565104 53.011443 
L 580.712231 53.011443 
L 580.712231 104.685957 
L 581.859357 104.685957 
L 581.859357 94.086056 
L 583.006483 94.086056 
L 583.006483 150.398026 
L 584.153609 150.398026 
L 584.153609 119.260819 
L 585.300735 119.260819 
L 585.300735 139.135632 
L 586.447861 139.135632 
L 586.447861 77.523712 
L 587.594988 77.523712 
L 587.594988 66.261319 
L 588.742114 66.261319 
L 588.742114 86.136131 
L 589.88924 86.136131 
L 589.88924 103.360969 
L 591.036366 103.360969 
L 591.036366 128.535732 
L 592.183492 128.535732 
L 592.183492 141.785607 
L 593.330618 141.785607 
L 593.330618 64.273837 
L 594.477745 64.273837 
L 594.477745 129.198226 
L 595.624871 129.198226 
L 595.624871 154.372988 
L 596.771997 154.372988 
L 596.771997 103.360969 
L 597.919123 103.360969 
L 597.919123 150.398026 
L 599.066249 150.398026 
L 599.066249 51.023962 
L 600.213375 51.023962 
L 600.213375 117.273338 
L 601.360502 117.273338 
L 601.360502 210.684958 
L 602.507628 210.684958 
L 602.507628 125.885757 
L 603.654754 125.885757 
L 603.654754 173.585307 
L 604.80188 173.585307 
L 604.80188 105.34845 
L 605.949006 105.34845 
L 605.949006 84.811144 
L 607.096132 84.811144 
L 607.096132 129.860719 
L 608.243259 129.860719 
L 608.243259 193.46012 
L 609.390385 193.46012 
L 609.390385 245.797127 
L 610.537511 245.797127 
L 610.537511 67.586306 
L 611.684637 67.586306 
L 611.684637 101.373488 
L 612.831763 101.373488 
L 612.831763 148.410545 
L 613.978889 148.410545 
L 613.978889 113.960869 
L 615.126016 113.960869 
L 615.126016 184.847701 
L 616.273142 184.847701 
L 616.273142 100.710994 
L 617.420268 100.710994 
L 617.420268 126.548251 
L 618.567394 126.548251 
L 618.567394 120.585807 
L 619.71452 120.585807 
L 619.71452 87.461119 
L 620.861647 87.461119 
L 620.861647 43.736531 
L 622.008773 43.736531 
L 622.008773 162.985407 
L 623.155899 162.985407 
L 623.155899 102.698475 
L 624.303025 102.698475 
L 624.303025 178.222764 
L 625.450151 178.222764 
L 625.450151 89.4486 
L 626.597277 89.4486 
L 626.597277 121.2483 
L 627.744403 121.2483 
L 627.744403 172.26032 
L 628.89153 172.26032 
L 628.89153 145.76057 
L 630.038656 145.76057 
L 630.038656 100.710994 
L 631.185782 100.710994 
L 631.185782 118.598325 
L 632.332908 118.598325 
L 632.332908 121.910794 
L 633.480034 121.910794 
L 633.480034 128.535732 
L 634.62716 128.535732 
L 634.62716 79.511194 
L 635.774287 79.511194 
L 635.774287 140.460619 
L 636.921413 140.460619 
L 636.921413 99.386006 
L 638.068539 99.386006 
L 638.068539 94.086056 
L 639.215665 94.086056 
L 639.215665 62.286356 
L 640.362791 62.286356 
L 640.362791 145.098076 
L 641.509917 145.098076 
L 641.509917 67.586306 
L 642.657044 67.586306 
L 642.657044 94.74855 
L 643.80417 94.74855 
L 643.80417 83.486156 
L 644.951296 83.486156 
L 644.951296 73.54875 
L 646.098422 73.54875 
L 646.098422 115.285857 
L 647.245548 115.285857 
L 647.245548 112.635882 
L 648.392674 112.635882 
L 648.392674 133.835682 
L 649.539801 133.835682 
L 649.539801 109.323413 
L 650.686927 109.323413 
L 650.686927 41.749049 
L 651.834053 41.749049 
L 651.834053 131.185707 
L 652.981179 131.185707 
L 652.981179 75.536231 
L 654.128305 75.536231 
L 654.128305 59.636381 
L 655.275431 59.636381 
L 655.275431 79.511194 
L 656.422558 79.511194 
L 656.422558 137.148151 
L 657.569684 137.148151 
L 657.569684 110.6484 
L 658.71681 110.6484 
L 658.71681 35.786606 
L 659.863936 35.786606 
L 659.863936 76.198725 
L 661.011062 76.198725 
L 661.011062 80.836181 
L 662.158188 80.836181 
L 662.158188 82.161169 
L 663.305315 82.161169 
L 663.305315 153.710495 
L 664.452441 153.710495 
L 664.452441 150.398026 
L 665.599567 150.398026 
L 665.599567 88.123613 
L 666.746693 88.123613 
L 666.746693 73.54875 
L 667.893819 73.54875 
L 667.893819 160.335432 
L 669.040945 160.335432 
L 669.040945 92.761069 
L 670.188072 92.761069 
L 670.188072 55.661418 
L 671.335198 55.661418 
L 671.335198 64.273837 
L 672.482324 64.273837 
L 672.482324 130.523213 
L 673.62945 130.523213 
L 673.62945 119.923313 
L 674.776576 119.923313 
L 674.776576 107.998425 
L 675.923702 107.998425 
L 675.923702 100.710994 
L 677.070829 100.710994 
L 677.070829 172.922814 
L 678.217955 172.922814 
L 678.217955 145.76057 
L 679.365081 145.76057 
L 679.365081 88.123613 
L 680.512207 88.123613 
L 680.512207 115.285857 
L 681.659333 115.285857 
L 681.659333 80.173687 
L 682.806459 80.173687 
L 682.806459 78.8487 
L 683.953586 78.8487 
L 683.953586 43.736531 
L 685.100712 43.736531 
L 685.100712 145.098076 
L 686.247838 145.098076 
L 686.247838 89.4486 
L 687.394964 89.4486 
L 687.394964 133.835682 
L 688.54209 133.835682 
L 688.54209 125.223263 
L 689.689216 125.223263 
L 689.689216 148.410545 
L 690.836343 148.410545 
L 690.836343 106.010944 
L 691.983469 106.010944 
L 691.983469 104.685957 
L 693.130595 104.685957 
L 693.130595 104.023463 
L 694.277721 104.023463 
L 694.277721 116.610844 
L 695.424847 116.610844 
L 695.424847 111.973388 
L 696.571973 111.973388 
L 696.571973 180.872739 
L 697.7191 180.872739 
L 697.7191 105.34845 
L 698.866226 105.34845 
L 698.866226 192.135133 
L 700.013352 192.135133 
L 700.013352 151.06052 
L 701.160478 151.06052 
L 701.160478 109.323413 
L 702.307604 109.323413 
L 702.307604 139.135632 
L 703.45473 139.135632 
L 703.45473 105.34845 
L 704.601857 105.34845 
L 704.601857 137.810644 
L 705.748983 137.810644 
L 705.748983 116.610844 
L 706.896109 116.610844 
L 706.896109 119.260819 
L 708.043235 119.260819 
L 708.043235 29.824162 
L 709.190361 29.824162 
L 709.190361 95.411044 
L 710.337487 95.411044 
L 710.337487 131.185707 
L 711.484614 131.185707 
L 711.484614 109.985907 
L 712.63174 109.985907 
L 712.63174 130.523213 
L 713.778866 130.523213 
L 713.778866 61.623862 
L 714.925992 61.623862 
L 714.925992 112.635882 
L 716.073118 112.635882 
L 716.073118 105.34845 
L 717.220244 105.34845 
L 717.220244 106.673438 
L 718.367371 106.673438 
L 718.367371 94.086056 
L 719.514497 94.086056 
L 719.514497 112.635882 
L 720.661623 112.635882 
L 720.661623 104.685957 
L 721.808749 104.685957 
L 721.808749 105.34845 
L 722.955875 105.34845 
L 722.955875 104.685957 
L 724.103001 104.685957 
L 724.103001 94.086056 
L 725.250128 94.086056 
L 725.250128 160.335432 
L 726.397254 160.335432 
L 726.397254 108.660919 
L 727.54438 108.660919 
L 727.54438 123.898276 
L 728.691506 123.898276 
L 728.691506 82.823663 
L 729.838632 82.823663 
L 729.838632 18.561768 
L 730.985758 18.561768 
L 730.985758 67.586306 
L 732.132885 67.586306 
L 732.132885 94.74855 
L 733.280011 94.74855 
L 733.280011 132.510694 
L 734.427137 132.510694 
L 734.427137 145.76057 
L 735.574263 145.76057 
L 735.574263 83.486156 
L 736.721389 83.486156 
L 736.721389 106.673438 
L 737.868515 106.673438 
L 737.868515 143.773088 
L 739.015642 143.773088 
L 739.015642 167.622864 
L 740.162768 167.622864 
L 740.162768 113.298375 
L 741.309894 113.298375 
L 741.309894 61.623862 
L 742.45702 61.623862 
L 742.45702 88.123613 
L 743.604146 88.123613 
L 743.604146 92.098575 
L 744.751272 92.098575 
L 744.751272 164.310395 
L 745.898399 164.310395 
L 745.898399 83.486156 
L 747.045525 83.486156 
L 747.045525 106.673438 
L 748.192651 106.673438 
L 748.192651 58.311393 
L 749.339777 58.311393 
L 749.339777 135.160669 
L 750.486903 135.160669 
L 750.486903 160.335432 
L 751.634029 160.335432 
L 751.634029 158.347951 
L 752.781156 158.347951 
L 752.781156 107.335932 
L 753.928282 107.335932 
L 753.928282 127.210744 
L 755.075408 127.210744 
L 755.075408 107.335932 
L 756.222534 107.335932 
L 756.222534 134.498176 
L 757.36966 134.498176 
L 757.36966 48.373987 
L 758.516786 48.373987 
L 758.516786 144.435582 
L 759.663913 144.435582 
L 759.663913 193.46012 
L 760.811039 193.46012 
L 760.811039 86.798625 
L 761.958165 86.798625 
L 761.958165 159.010445 
L 763.105291 159.010445 
L 763.105291 108.660919 
L 764.252417 108.660919 
L 764.252417 164.972889 
L 765.399543 164.972889 
L 765.399543 155.697976 
L 766.54667 155.697976 
L 766.54667 86.136131 
L 767.693796 86.136131 
L 767.693796 123.235782 
L 768.840922 123.235782 
L 768.840922 72.223762 
L 769.988048 72.223762 
L 769.988048 144.435582 
L 771.135174 144.435582 
L 771.135174 134.498176 
L 772.282301 134.498176 
L 772.282301 123.235782 
L 773.429427 123.235782 
L 773.429427 98.723513 
L 774.576553 98.723513 
L 774.576553 94.74855 
L 775.723679 94.74855 
L 775.723679 103.360969 
L 776.870805 103.360969 
L 776.870805 162.985407 
L 778.017931 162.985407 
L 778.017931 125.223263 
L 779.165057 125.223263 
L 779.165057 75.536231 
L 780.312184 75.536231 
L 780.312184 113.298375 
L 781.45931 113.298375 
L 781.45931 136.485657 
L 782.606436 136.485657 
L 782.606436 151.06052 
L 783.753562 151.06052 
L 783.753562 168.285357 
L 784.900688 168.285357 
L 784.900688 106.673438 
L 786.047814 106.673438 
L 786.047814 136.485657 
L 787.194941 136.485657 
L 787.194941 167.622864 
L 788.342067 167.622864 
L 788.342067 202.072539 
L 789.489193 202.072539 
L 789.489193 51.023962 
L 790.636319 51.023962 
L 790.636319 123.235782 
L 791.783445 123.235782 
L 791.783445 113.960869 
L 792.930571 113.960869 
L 792.930571 111.310894 
L 794.077698 111.310894 
L 794.077698 96.736031 
L 795.224824 96.736031 
L 795.224824 87.461119 
L 796.37195 87.461119 
L 796.37195 103.360969 
L 797.519076 103.360969 
L 797.519076 135.160669 
L 798.666202 135.160669 
L 798.666202 55.661418 
L 799.813328 55.661418 
L 799.813328 114.623363 
L 800.960455 114.623363 
L 800.960455 167.622864 
L 802.107581 167.622864 
L 802.107581 128.535732 
L 803.254707 128.535732 
L 803.254707 97.398525 
L 804.401833 97.398525 
L 804.401833 68.2488 
L 805.548959 68.2488 
L 805.548959 106.673438 
L 806.696085 106.673438 
L 806.696085 156.36047 
L 807.843212 156.36047 
L 807.843212 137.810644 
L 808.990338 137.810644 
L 808.990338 60.298875 
L 810.137464 60.298875 
L 810.137464 157.685457 
L 811.28459 157.685457 
L 811.28459 58.311393 
L 812.431716 58.311393 
L 812.431716 57.6489 
L 813.578842 57.6489 
L 813.578842 141.123113 
L 814.725969 141.123113 
L 814.725969 80.173687 
L 815.873095 80.173687 
L 815.873095 74.873737 
L 817.020221 74.873737 
L 817.020221 89.4486 
L 818.167347 89.4486 
L 818.167347 147.085557 
L 819.314473 147.085557 
L 819.314473 97.398525 
L 820.461599 97.398525 
L 820.461599 178.885257 
L 821.608726 178.885257 
L 821.608726 64.936331 
L 822.755852 64.936331 
L 822.755852 81.498675 
L 823.902978 81.498675 
L 823.902978 91.436081 
L 825.050104 91.436081 
L 825.050104 108.660919 
L 826.19723 108.660919 
L 826.19723 105.34845 
L 827.344357 105.34845 
L 827.344357 63.611344 
L 828.491483 63.611344 
L 828.491483 174.247801 
L 829.638609 174.247801 
L 829.638609 107.335932 
L 830.785735 107.335932 
L 830.785735 156.36047 
L 831.932861 156.36047 
L 831.932861 83.486156 
L 833.079987 83.486156 
L 833.079987 148.410545 
L 834.227113 148.410545 
L 834.227113 101.373488 
L 835.37424 101.373488 
L 835.37424 82.823663 
L 836.521366 82.823663 
L 836.521366 58.973887 
L 837.668492 58.973887 
L 837.668492 78.8487 
L 838.815618 78.8487 
L 838.815618 121.910794 
L 839.962744 121.910794 
L 839.962744 126.548251 
L 841.10987 126.548251 
L 841.10987 144.435582 
L 842.256997 144.435582 
L 842.256997 125.885757 
L 843.404123 125.885757 
L 843.404123 127.210744 
L 844.551249 127.210744 
L 844.551249 102.698475 
L 845.698375 102.698475 
L 845.698375 89.4486 
L 846.845501 89.4486 
L 846.845501 36.449099 
L 847.992628 36.449099 
L 847.992628 36.449099 
" clip-path="url(#p7068b83b8e)" style="fill: none; stroke: #1f77b4; stroke-width: 1.5; stroke-linecap: square"/>
   </g>
   <g id="patch_8">
    <path d="M 486.647885 257.158895 
L 486.647885 7.2 
" style="fill: none; stroke: #000000; stroke-width: 0.8; stroke-linejoin: miter; stroke-linecap: square"/>
   </g>
   <g id="patch_9">
    <path d="M 865.19952 257.158895 
L 865.19952 7.2 
" style="fill: none; stroke: #000000; stroke-width: 0.8; stroke-linejoin: miter; stroke-linecap: square"/>
   </g>
   <g id="patch_10">
    <path d="M 486.647885 257.158895 
L 865.19952 257.158895 
" style="fill: none; stroke: #000000; stroke-width: 0.8; stroke-linejoin: miter; stroke-linecap: square"/>
   </g>
   <g id="patch_11">
    <path d="M 486.647885 7.2 
L 865.19952 7.2 
" style="fill: none; stroke: #000000; stroke-width: 0.8; stroke-linejoin: miter; stroke-linecap: square"/>
   </g>
  </g>
 </g>
 <defs>
  <clipPath id="p32ba904567">
   <rect x="53.328125" y="7.2" width="378.551635" height="249.958895"/>
  </clipPath>
  <clipPath id="p7068b83b8e">
   <rect x="486.647885" y="7.2" width="378.551635" height="249.958895"/>
  </clipPath>
 </defs>
</svg>
