<?xml version="1.0" encoding="utf-8" standalone="no"?>
<!DOCTYPE svg PUBLIC "-//W3C//DTD SVG 1.1//EN"
  "http://www.w3.org/Graphics/SVG/1.1/DTD/svg11.dtd">
<svg xmlns:xlink="http://www.w3.org/1999/xlink" width="872.39952pt" height="296.39952pt" viewBox="0 0 872.39952 296.39952" xmlns="http://www.w3.org/2000/svg" version="1.1">
 <metadata>
  <rdf:RDF xmlns:dc="http://purl.org/dc/elements/1.1/" xmlns:cc="http://creativecommons.org/ns#" xmlns:rdf="http://www.w3.org/1999/02/22-rdf-syntax-ns#">
   <cc:Work>
    <dc:type rdf:resource="http://purl.org/dc/dcmitype/StillImage"/>
    <dc:date>2026-03-12T12:42:20.987308</dc:date>
    <dc:format>image/svg+xml</dc:format>
    <dc:creator>
     <cc:Agent>
      <dc:title>Matplotlib v3.10.7, https://matplotlib.org/</dc:title>
     </cc:Agent>
    </dc:creator>
   </cc:Work>
  </rdf:RDF>
 </metadata>
 <defs>
  <style type="text/css">*{stroke-linejoin: round; stroke-linecap: butt}</style>
 </defs>
 <g id="figure_1">
  <g id="patch_1">
   <path d="M 0 296.39952 
L 872.39952 296.39952 
L 872.39952 0 
L 0 0 
z
" style="fill: #ffffff"/>
  </g>
  <g id="axes_1">
   <g id="patch_2">
    <path d="M 53.328125 257.158895 
L 411.41851 257.158895 
L 411.41851 7.2 
L 53.328125 7.2 
z
" style="fill: #ffffff"/>
   </g>
   <g id="matplotlib.axis_1">
    <g id="xtick_1">
     <g id="line2d_1">
      <defs>
       <path id="m684d7ef732" d="M 0 0 
L 0 3.5 
" style="stroke: #000000; stroke-width: 0.8"/>
      </defs>
      <g>
       <use xlink:href="#m684d7ef732" x="68.789632" y="257.158895" style="stroke: #000000; stroke-width: 0.8"/>
      </g>
     </g>
     <g id="text_1">
      <!-- 0 -->
      <g transform="translate(65.608382 271.757332) scale(0.1 -0.1)">
       <defs>
        <path id="DejaVuSans-30" d="M 2034 4250 
Q 1547 4250 1301 3770 
Q 1056 3291 1056 2328 
Q 1056 1369 1301 889 
Q 1547 409 2034 409 
Q 2525 409 2770 889 
Q 3016 1369 3016 2328 
Q 3016 3291 2770 3770 
Q 2525 4250 2034 4250 
z
M 2034 4750 
Q 2819 4750 3233 4129 
Q 3647 3509 3647 2328 
Q 3647 1150 3233 529 
Q 2819 -91 2034 -91 
Q 1250 -91 836 529 
Q 422 1150 422 2328 
Q 422 3509 836 4129 
Q 1250 4750 2034 4750 
z
" transform="scale(0.015625)"/>
       </defs>
       <use xlink:href="#DejaVuSans-30"/>
      </g>
     </g>
    </g>
    <g id="xtick_2">
     <g id="line2d_2">
      <g>
       <use xlink:href="#m684d7ef732" x="134.225748" y="257.158895" style="stroke: #000000; stroke-width: 0.8"/>
      </g>
     </g>
     <g id="text_2">
      <!-- 1000 -->
      <g transform="translate(121.500748 271.757332) scale(0.1 -0.1)">
       <defs>
        <path id="DejaVuSans-31" d="M 794 531 
L 1825 531 
L 1825 4091 
L 703 3866 
L 703 4441 
L 1819 4666 
L 2450 4666 
L 2450 531 
L 3481 531 
L 3481 0 
L 794 0 
L 794 531 
z
" transform="scale(0.015625)"/>
       </defs>
       <use xlink:href="#DejaVuSans-31"/>
       <use xlink:href="#DejaVuSans-30" transform="translate(63.623047 0)"/>
       <use xlink:href="#DejaVuSans-30" transform="translate(127.246094 0)"/>
       <use xlink:href="#DejaVuSans-30" transform="translate(190.869141 0)"/>
      </g>
     </g>
    </g>
    <g id="xtick_3">
     <g id="line2d_3">
      <g>
       <use xlink:href="#m684d7ef732" x="199.661864" y="257.158895" style="stroke: #000000; stroke-width: 0.8"/>
      </g>
     </g>
     <g id="text_3">
      <!-- 2000 -->
      <g transform="translate(186.936864 271.757332) scale(0.1 -0.1)">
       <defs>
        <path id="DejaVuSans-32" d="M 1228 531 
L 3431 531 
L 3431 0 
L 469 0 
L 469 531 
Q 828 903 1448 1529 
Q 2069 2156 2228 2338 
Q 2531 2678 2651 2914 
Q 2772 3150 2772 3378 
Q 2772 3750 2511 3984 
Q 2250 4219 1831 4219 
Q 1534 4219 1204 4116 
Q 875 4013 500 3803 
L 500 4441 
Q 881 4594 1212 4672 
Q 1544 4750 1819 4750 
Q 2544 4750 2975 4387 
Q 3406 4025 3406 3419 
Q 3406 3131 3298 2873 
Q 3191 2616 2906 2266 
Q 2828 2175 2409 1742 
Q 1991 1309 1228 531 
z
" transform="scale(0.015625)"/>
       </defs>
       <use xlink:href="#DejaVuSans-32"/>
       <use xlink:href="#DejaVuSans-30" transform="translate(63.623047 0)"/>
       <use xlink:href="#DejaVuSans-30" transform="translate(127.246094 0)"/>
       <use xlink:href="#DejaVuSans-30" transform="translate(190.869141 0)"/>
      </g>
     </g>
    </g>
    <g id="xtick_4">
     <g id="line2d_4">
      <g>
       <use xlink:href="#m684d7ef732" x="265.09798" y="257.158895" style="stroke: #000000; stroke-width: 0.8"/>
      </g>
     </g>
     <g id="text_4">
      <!-- 3000 -->
      <g transform="translate(252.37298 271.757332) scale(0.1 -0.1)">
       <defs>
        <path id="DejaVuSans-33" d="M 2597 2516 
Q 3050 2419 3304 2112 
Q 3559 1806 3559 1356 
Q 3559 666 3084 287 
Q 2609 -91 1734 -91 
Q 1441 -91 1130 -33 
Q 819 25 488 141 
L 488 750 
Q 750 597 1062 519 
Q 1375 441 1716 441 
Q 2309 441 2620 675 
Q 2931 909 2931 1356 
Q 2931 1769 2642 2001 
Q 2353 2234 1838 2234 
L 1294 2234 
L 1294 2753 
L 1863 2753 
Q 2328 2753 2575 2939 
Q 2822 3125 2822 3475 
Q 2822 3834 2567 4026 
Q 2313 4219 1838 4219 
Q 1578 4219 1281 4162 
Q 984 4106 628 3988 
L 628 4550 
Q 988 4650 1302 4700 
Q 1616 4750 1894 4750 
Q 2613 4750 3031 4423 
Q 3450 4097 3450 3541 
Q 3450 3153 3228 2886 
Q 3006 2619 2597 2516 
z
" transform="scale(0.015625)"/>
       </defs>
       <use xlink:href="#DejaVuSans-33"/>
       <use xlink:href="#DejaVuSans-30" transform="translate(63.623047 0)"/>
       <use xlink:href="#DejaVuSans-30" transform="translate(127.246094 0)"/>
       <use xlink:href="#DejaVuSans-30" transform="translate(190.869141 0)"/>
      </g>
     </g>
    </g>
    <g id="xtick_5">
     <g id="line2d_5">
      <g>
       <use xlink:href="#m684d7ef732" x="330.534096" y="257.158895" style="stroke: #000000; stroke-width: 0.8"/>
      </g>
     </g>
     <g id="text_5">
      <!-- 4000 -->
      <g transform="translate(317.809096 271.757332) scale(0.1 -0.1)">
       <defs>
        <path id="DejaVuSans-34" d="M 2419 4116 
L 825 1625 
L 2419 1625 
L 2419 4116 
z
M 2253 4666 
L 3047 4666 
L 3047 1625 
L 3713 1625 
L 3713 1100 
L 3047 1100 
L 3047 0 
L 2419 0 
L 2419 1100 
L 313 1100 
L 313 1709 
L 2253 4666 
z
" transform="scale(0.015625)"/>
       </defs>
       <use xlink:href="#DejaVuSans-34"/>
       <use xlink:href="#DejaVuSans-30" transform="translate(63.623047 0)"/>
       <use xlink:href="#DejaVuSans-30" transform="translate(127.246094 0)"/>
       <use xlink:href="#DejaVuSans-30" transform="translate(190.869141 0)"/>
      </g>
     </g>
    </g>
    <g id="xtick_6">
     <g id="line2d_6">
      <g>
       <use xlink:href="#m684d7ef732" x="395.970212" y="257.158895" style="stroke: #000000; stroke-width: 0.8"/>
      </g>
     </g>
     <g id="text_6">
      <!-- 5000 -->
      <g transform="translate(383.245212 271.757332) scale(0.1 -0.1)">
       <defs>
        <path id="DejaVuSans-35" d="M 691 4666 
L 3169 4666 
L 3169 4134 
L 1269 4134 
L 1269 2991 
Q 1406 3038 1543 3061 
Q 1681 3084 1819 3084 
Q 2600 3084 3056 2656 
Q 3513 2228 3513 1497 
Q 3513 744 3044 326 
Q 2575 -91 1722 -91 
Q 1428 -91 1123 -41 
Q 819 9 494 109 
L 494 744 
Q 775 591 1075 516 
Q 1375 441 1709 441 
Q 2250 441 2565 725 
Q 2881 1009 2881 1497 
Q 2881 1984 2565 2268 
Q 2250 2553 1709 2553 
Q 1456 2553 1204 2497 
Q 953 2441 691 2322 
L 691 4666 
z
" transform="scale(0.015625)"/>
       </defs>
       <use xlink:href="#DejaVuSans-35"/>
       <use xlink:href="#DejaVuSans-30" transform="translate(63.623047 0)"/>
       <use xlink:href="#DejaVuSans-30" transform="translate(127.246094 0)"/>
       <use xlink:href="#DejaVuSans-30" transform="translate(190.869141 0)"/>
      </g>
     </g>
    </g>
    <g id="text_7">
     <!-- birth_time [µs] -->
     <g transform="translate(195.553005 285.435457) scale(0.1 -0.1)">
      <defs>
       <path id="DejaVuSans-62" d="M 3116 1747 
Q 3116 2381 2855 2742 
Q 2594 3103 2138 3103 
Q 1681 3103 1420 2742 
Q 1159 2381 1159 1747 
Q 1159 1113 1420 752 
Q 1681 391 2138 391 
Q 2594 391 2855 752 
Q 3116 1113 3116 1747 
z
M 1159 2969 
Q 1341 3281 1617 3432 
Q 1894 3584 2278 3584 
Q 2916 3584 3314 3078 
Q 3713 2572 3713 1747 
Q 3713 922 3314 415 
Q 2916 -91 2278 -91 
Q 1894 -91 1617 61 
Q 1341 213 1159 525 
L 1159 0 
L 581 0 
L 581 4863 
L 1159 4863 
L 1159 2969 
z
" transform="scale(0.015625)"/>
       <path id="DejaVuSans-69" d="M 603 3500 
L 1178 3500 
L 1178 0 
L 603 0 
L 603 3500 
z
M 603 4863 
L 1178 4863 
L 1178 4134 
L 603 4134 
L 603 4863 
z
" transform="scale(0.015625)"/>
       <path id="DejaVuSans-72" d="M 2631 2963 
Q 2534 3019 2420 3045 
Q 2306 3072 2169 3072 
Q 1681 3072 1420 2755 
Q 1159 2438 1159 1844 
L 1159 0 
L 581 0 
L 581 3500 
L 1159 3500 
L 1159 2956 
Q 1341 3275 1631 3429 
Q 1922 3584 2338 3584 
Q 2397 3584 2469 3576 
Q 2541 3569 2628 3553 
L 2631 2963 
z
" transform="scale(0.015625)"/>
       <path id="DejaVuSans-74" d="M 1172 4494 
L 1172 3500 
L 2356 3500 
L 2356 3053 
L 1172 3053 
L 1172 1153 
Q 1172 725 1289 603 
Q 1406 481 1766 481 
L 2356 481 
L 2356 0 
L 1766 0 
Q 1100 0 847 248 
Q 594 497 594 1153 
L 594 3053 
L 172 3053 
L 172 3500 
L 594 3500 
L 594 4494 
L 1172 4494 
z
" transform="scale(0.015625)"/>
       <path id="DejaVuSans-68" d="M 3513 2113 
L 3513 0 
L 2938 0 
L 2938 2094 
Q 2938 2591 2744 2837 
Q 2550 3084 2163 3084 
Q 1697 3084 1428 2787 
Q 1159 2491 1159 1978 
L 1159 0 
L 581 0 
L 581 4863 
L 1159 4863 
L 1159 2956 
Q 1366 3272 1645 3428 
Q 1925 3584 2291 3584 
Q 2894 3584 3203 3211 
Q 3513 2838 3513 2113 
z
" transform="scale(0.015625)"/>
       <path id="DejaVuSans-5f" d="M 3263 -1063 
L 3263 -1509 
L -63 -1509 
L -63 -1063 
L 3263 -1063 
z
" transform="scale(0.015625)"/>
       <path id="DejaVuSans-6d" d="M 3328 2828 
Q 3544 3216 3844 3400 
Q 4144 3584 4550 3584 
Q 5097 3584 5394 3201 
Q 5691 2819 5691 2113 
L 5691 0 
L 5113 0 
L 5113 2094 
Q 5113 2597 4934 2840 
Q 4756 3084 4391 3084 
Q 3944 3084 3684 2787 
Q 3425 2491 3425 1978 
L 3425 0 
L 2847 0 
L 2847 2094 
Q 2847 2600 2669 2842 
Q 2491 3084 2119 3084 
Q 1678 3084 1418 2786 
Q 1159 2488 1159 1978 
L 1159 0 
L 581 0 
L 581 3500 
L 1159 3500 
L 1159 2956 
Q 1356 3278 1631 3431 
Q 1906 3584 2284 3584 
Q 2666 3584 2933 3390 
Q 3200 3197 3328 2828 
z
" transform="scale(0.015625)"/>
       <path id="DejaVuSans-65" d="M 3597 1894 
L 3597 1613 
L 953 1613 
Q 991 1019 1311 708 
Q 1631 397 2203 397 
Q 2534 397 2845 478 
Q 3156 559 3463 722 
L 3463 178 
Q 3153 47 2828 -22 
Q 2503 -91 2169 -91 
Q 1331 -91 842 396 
Q 353 884 353 1716 
Q 353 2575 817 3079 
Q 1281 3584 2069 3584 
Q 2775 3584 3186 3129 
Q 3597 2675 3597 1894 
z
M 3022 2063 
Q 3016 2534 2758 2815 
Q 2500 3097 2075 3097 
Q 1594 3097 1305 2825 
Q 1016 2553 972 2059 
L 3022 2063 
z
" transform="scale(0.015625)"/>
       <path id="DejaVuSans-20" transform="scale(0.015625)"/>
       <path id="DejaVuSans-5b" d="M 550 4863 
L 1875 4863 
L 1875 4416 
L 1125 4416 
L 1125 -397 
L 1875 -397 
L 1875 -844 
L 550 -844 
L 550 4863 
z
" transform="scale(0.015625)"/>
       <path id="DejaVuSans-b5" d="M 544 -1331 
L 544 3500 
L 1119 3500 
L 1119 1325 
Q 1119 872 1334 640 
Q 1550 409 1972 409 
Q 2434 409 2667 671 
Q 2900 934 2900 1459 
L 2900 3500 
L 3475 3500 
L 3475 806 
Q 3475 619 3529 530 
Q 3584 441 3700 441 
Q 3728 441 3778 458 
Q 3828 475 3916 513 
L 3916 50 
Q 3788 -22 3673 -56 
Q 3559 -91 3450 -91 
Q 3234 -91 3106 31 
Q 2978 153 2931 403 
Q 2775 156 2548 32 
Q 2322 -91 2016 -91 
Q 1697 -91 1473 31 
Q 1250 153 1119 397 
L 1119 -1331 
L 544 -1331 
z
" transform="scale(0.015625)"/>
       <path id="DejaVuSans-73" d="M 2834 3397 
L 2834 2853 
Q 2591 2978 2328 3040 
Q 2066 3103 1784 3103 
Q 1356 3103 1142 2972 
Q 928 2841 928 2578 
Q 928 2378 1081 2264 
Q 1234 2150 1697 2047 
L 1894 2003 
Q 2506 1872 2764 1633 
Q 3022 1394 3022 966 
Q 3022 478 2636 193 
Q 2250 -91 1575 -91 
Q 1294 -91 989 -36 
Q 684 19 347 128 
L 347 722 
Q 666 556 975 473 
Q 1284 391 1588 391 
Q 1994 391 2212 530 
Q 2431 669 2431 922 
Q 2431 1156 2273 1281 
Q 2116 1406 1581 1522 
L 1381 1569 
Q 847 1681 609 1914 
Q 372 2147 372 2553 
Q 372 3047 722 3315 
Q 1072 3584 1716 3584 
Q 2034 3584 2315 3537 
Q 2597 3491 2834 3397 
z
" transform="scale(0.015625)"/>
       <path id="DejaVuSans-5d" d="M 1947 4863 
L 1947 -844 
L 622 -844 
L 622 -397 
L 1369 -397 
L 1369 4416 
L 622 4416 
L 622 4863 
L 1947 4863 
z
" transform="scale(0.015625)"/>
      </defs>
      <use xlink:href="#DejaVuSans-62"/>
      <use xlink:href="#DejaVuSans-69" transform="translate(63.476562 0)"/>
      <use xlink:href="#DejaVuSans-72" transform="translate(91.259766 0)"/>
      <use xlink:href="#DejaVuSans-74" transform="translate(132.373047 0)"/>
      <use xlink:href="#DejaVuSans-68" transform="translate(171.582031 0)"/>
      <use xlink:href="#DejaVuSans-5f" transform="translate(234.960938 0)"/>
      <use xlink:href="#DejaVuSans-74" transform="translate(284.960938 0)"/>
      <use xlink:href="#DejaVuSans-69" transform="translate(324.169922 0)"/>
      <use xlink:href="#DejaVuSans-6d" transform="translate(351.953125 0)"/>
      <use xlink:href="#DejaVuSans-65" transform="translate(449.365234 0)"/>
      <use xlink:href="#DejaVuSans-20" transform="translate(510.888672 0)"/>
      <use xlink:href="#DejaVuSans-5b" transform="translate(542.675781 0)"/>
      <use xlink:href="#DejaVuSans-b5" transform="translate(581.689453 0)"/>
      <use xlink:href="#DejaVuSans-73" transform="translate(645.3125 0)"/>
      <use xlink:href="#DejaVuSans-5d" transform="translate(697.412109 0)"/>
     </g>
    </g>
   </g>
   <g id="matplotlib.axis_2">
    <g id="ytick_1">
     <g id="line2d_7">
      <defs>
       <path id="mc1d7eba9ac" d="M 0 0 
L -3.5 0 
" style="stroke: #000000; stroke-width: 0.8"/>
      </defs>
      <g>
       <use xlink:href="#mc1d7eba9ac" x="53.328125" y="245.985892" style="stroke: #000000; stroke-width: 0.8"/>
      </g>
     </g>
     <g id="text_8">
      <!-- 0 -->
      <g transform="translate(39.965625 249.785111) scale(0.1 -0.1)">
       <use xlink:href="#DejaVuSans-30"/>
      </g>
     </g>
    </g>
    <g id="ytick_2">
     <g id="line2d_8">
      <g>
       <use xlink:href="#mc1d7eba9ac" x="53.328125" y="208.232883" style="stroke: #000000; stroke-width: 0.8"/>
      </g>
     </g>
     <g id="text_9">
      <!-- 1000 -->
      <g transform="translate(20.878125 212.032102) scale(0.1 -0.1)">
       <use xlink:href="#DejaVuSans-31"/>
       <use xlink:href="#DejaVuSans-30" transform="translate(63.623047 0)"/>
       <use xlink:href="#DejaVuSans-30" transform="translate(127.246094 0)"/>
       <use xlink:href="#DejaVuSans-30" transform="translate(190.869141 0)"/>
      </g>
     </g>
    </g>
    <g id="ytick_3">
     <g id="line2d_9">
      <g>
       <use xlink:href="#mc1d7eba9ac" x="53.328125" y="170.479875" style="stroke: #000000; stroke-width: 0.8"/>
      </g>
     </g>
     <g id="text_10">
      <!-- 2000 -->
      <g transform="translate(20.878125 174.279094) scale(0.1 -0.1)">
       <use xlink:href="#DejaVuSans-32"/>
       <use xlink:href="#DejaVuSans-30" transform="translate(63.623047 0)"/>
       <use xlink:href="#DejaVuSans-30" transform="translate(127.246094 0)"/>
       <use xlink:href="#DejaVuSans-30" transform="translate(190.869141 0)"/>
      </g>
     </g>
    </g>
    <g id="ytick_4">
     <g id="line2d_10">
      <g>
       <use xlink:href="#mc1d7eba9ac" x="53.328125" y="132.726866" style="stroke: #000000; stroke-width: 0.8"/>
      </g>
     </g>
     <g id="text_11">
      <!-- 3000 -->
      <g transform="translate(20.878125 136.526085) scale(0.1 -0.1)">
       <use xlink:href="#DejaVuSans-33"/>
       <use xlink:href="#DejaVuSans-30" transform="translate(63.623047 0)"/>
       <use xlink:href="#DejaVuSans-30" transform="translate(127.246094 0)"/>
       <use xlink:href="#DejaVuSans-30" transform="translate(190.869141 0)"/>
      </g>
     </g>
    </g>
    <g id="ytick_5">
     <g id="line2d_11">
      <g>
       <use xlink:href="#mc1d7eba9ac" x="53.328125" y="94.973857" style="stroke: #000000; stroke-width: 0.8"/>
      </g>
     </g>
     <g id="text_12">
      <!-- 4000 -->
      <g transform="translate(20.878125 98.773076) scale(0.1 -0.1)">
       <use xlink:href="#DejaVuSans-34"/>
       <use xlink:href="#DejaVuSans-30" transform="translate(63.623047 0)"/>
       <use xlink:href="#DejaVuSans-30" transform="translate(127.246094 0)"/>
       <use xlink:href="#DejaVuSans-30" transform="translate(190.869141 0)"/>
      </g>
     </g>
    </g>
    <g id="ytick_6">
     <g id="line2d_12">
      <g>
       <use xlink:href="#mc1d7eba9ac" x="53.328125" y="57.220849" style="stroke: #000000; stroke-width: 0.8"/>
      </g>
     </g>
     <g id="text_13">
      <!-- 5000 -->
      <g transform="translate(20.878125 61.020068) scale(0.1 -0.1)">
       <use xlink:href="#DejaVuSans-35"/>
       <use xlink:href="#DejaVuSans-30" transform="translate(63.623047 0)"/>
       <use xlink:href="#DejaVuSans-30" transform="translate(127.246094 0)"/>
       <use xlink:href="#DejaVuSans-30" transform="translate(190.869141 0)"/>
      </g>
     </g>
    </g>
    <g id="ytick_7">
     <g id="line2d_13">
      <g>
       <use xlink:href="#mc1d7eba9ac" x="53.328125" y="19.46784" style="stroke: #000000; stroke-width: 0.8"/>
      </g>
     </g>
     <g id="text_14">
      <!-- 6000 -->
      <g transform="translate(20.878125 23.267059) scale(0.1 -0.1)">
       <defs>
        <path id="DejaVuSans-36" d="M 2113 2584 
Q 1688 2584 1439 2293 
Q 1191 2003 1191 1497 
Q 1191 994 1439 701 
Q 1688 409 2113 409 
Q 2538 409 2786 701 
Q 3034 994 3034 1497 
Q 3034 2003 2786 2293 
Q 2538 2584 2113 2584 
z
M 3366 4563 
L 3366 3988 
Q 3128 4100 2886 4159 
Q 2644 4219 2406 4219 
Q 1781 4219 1451 3797 
Q 1122 3375 1075 2522 
Q 1259 2794 1537 2939 
Q 1816 3084 2150 3084 
Q 2853 3084 3261 2657 
Q 3669 2231 3669 1497 
Q 3669 778 3244 343 
Q 2819 -91 2113 -91 
Q 1303 -91 875 529 
Q 447 1150 447 2328 
Q 447 3434 972 4092 
Q 1497 4750 2381 4750 
Q 2619 4750 2861 4703 
Q 3103 4656 3366 4563 
z
" transform="scale(0.015625)"/>
       </defs>
       <use xlink:href="#DejaVuSans-36"/>
       <use xlink:href="#DejaVuSans-30" transform="translate(63.623047 0)"/>
       <use xlink:href="#DejaVuSans-30" transform="translate(127.246094 0)"/>
       <use xlink:href="#DejaVuSans-30" transform="translate(190.869141 0)"/>
      </g>
     </g>
    </g>
    <g id="text_15">
     <!-- pulse:0 [counts] -->
     <g transform="translate(14.798438 172.659916) rotate(-90) scale(0.1 -0.1)">
      <defs>
       <path id="DejaVuSans-70" d="M 1159 525 
L 1159 -1331 
L 581 -1331 
L 581 3500 
L 1159 3500 
L 1159 2969 
Q 1341 3281 1617 3432 
Q 1894 3584 2278 3584 
Q 2916 3584 3314 3078 
Q 3713 2572 3713 1747 
Q 3713 922 3314 415 
Q 2916 -91 2278 -91 
Q 1894 -91 1617 61 
Q 1341 213 1159 525 
z
M 3116 1747 
Q 3116 2381 2855 2742 
Q 2594 3103 2138 3103 
Q 1681 3103 1420 2742 
Q 1159 2381 1159 1747 
Q 1159 1113 1420 752 
Q 1681 391 2138 391 
Q 2594 391 2855 752 
Q 3116 1113 3116 1747 
z
" transform="scale(0.015625)"/>
       <path id="DejaVuSans-75" d="M 544 1381 
L 544 3500 
L 1119 3500 
L 1119 1403 
Q 1119 906 1312 657 
Q 1506 409 1894 409 
Q 2359 409 2629 706 
Q 2900 1003 2900 1516 
L 2900 3500 
L 3475 3500 
L 3475 0 
L 2900 0 
L 2900 538 
Q 2691 219 2414 64 
Q 2138 -91 1772 -91 
Q 1169 -91 856 284 
Q 544 659 544 1381 
z
M 1991 3584 
L 1991 3584 
z
" transform="scale(0.015625)"/>
       <path id="DejaVuSans-6c" d="M 603 4863 
L 1178 4863 
L 1178 0 
L 603 0 
L 603 4863 
z
" transform="scale(0.015625)"/>
       <path id="DejaVuSans-3a" d="M 750 794 
L 1409 794 
L 1409 0 
L 750 0 
L 750 794 
z
M 750 3309 
L 1409 3309 
L 1409 2516 
L 750 2516 
L 750 3309 
z
" transform="scale(0.015625)"/>
       <path id="DejaVuSans-63" d="M 3122 3366 
L 3122 2828 
Q 2878 2963 2633 3030 
Q 2388 3097 2138 3097 
Q 1578 3097 1268 2742 
Q 959 2388 959 1747 
Q 959 1106 1268 751 
Q 1578 397 2138 397 
Q 2388 397 2633 464 
Q 2878 531 3122 666 
L 3122 134 
Q 2881 22 2623 -34 
Q 2366 -91 2075 -91 
Q 1284 -91 818 406 
Q 353 903 353 1747 
Q 353 2603 823 3093 
Q 1294 3584 2113 3584 
Q 2378 3584 2631 3529 
Q 2884 3475 3122 3366 
z
" transform="scale(0.015625)"/>
       <path id="DejaVuSans-6f" d="M 1959 3097 
Q 1497 3097 1228 2736 
Q 959 2375 959 1747 
Q 959 1119 1226 758 
Q 1494 397 1959 397 
Q 2419 397 2687 759 
Q 2956 1122 2956 1747 
Q 2956 2369 2687 2733 
Q 2419 3097 1959 3097 
z
M 1959 3584 
Q 2709 3584 3137 3096 
Q 3566 2609 3566 1747 
Q 3566 888 3137 398 
Q 2709 -91 1959 -91 
Q 1206 -91 779 398 
Q 353 888 353 1747 
Q 353 2609 779 3096 
Q 1206 3584 1959 3584 
z
" transform="scale(0.015625)"/>
       <path id="DejaVuSans-6e" d="M 3513 2113 
L 3513 0 
L 2938 0 
L 2938 2094 
Q 2938 2591 2744 2837 
Q 2550 3084 2163 3084 
Q 1697 3084 1428 2787 
Q 1159 2491 1159 1978 
L 1159 0 
L 581 0 
L 581 3500 
L 1159 3500 
L 1159 2956 
Q 1366 3272 1645 3428 
Q 1925 3584 2291 3584 
Q 2894 3584 3203 3211 
Q 3513 2838 3513 2113 
z
" transform="scale(0.015625)"/>
      </defs>
      <use xlink:href="#DejaVuSans-70"/>
      <use xlink:href="#DejaVuSans-75" transform="translate(63.476562 0)"/>
      <use xlink:href="#DejaVuSans-6c" transform="translate(126.855469 0)"/>
      <use xlink:href="#DejaVuSans-73" transform="translate(154.638672 0)"/>
      <use xlink:href="#DejaVuSans-65" transform="translate(206.738281 0)"/>
      <use xlink:href="#DejaVuSans-3a" transform="translate(268.261719 0)"/>
      <use xlink:href="#DejaVuSans-30" transform="translate(301.953125 0)"/>
      <use xlink:href="#DejaVuSans-20" transform="translate(365.576172 0)"/>
      <use xlink:href="#DejaVuSans-5b" transform="translate(397.363281 0)"/>
      <use xlink:href="#DejaVuSans-63" transform="translate(436.376953 0)"/>
      <use xlink:href="#DejaVuSans-6f" transform="translate(491.357422 0)"/>
      <use xlink:href="#DejaVuSans-75" transform="translate(552.539062 0)"/>
      <use xlink:href="#DejaVuSans-6e" transform="translate(615.917969 0)"/>
      <use xlink:href="#DejaVuSans-74" transform="translate(679.296875 0)"/>
      <use xlink:href="#DejaVuSans-73" transform="translate(718.505859 0)"/>
      <use xlink:href="#DejaVuSans-5d" transform="translate(770.605469 0)"/>
     </g>
    </g>
   </g>
   <g id="line2d_14">
    <path d="M 69.604961 234.622236 
L 70.690083 234.622236 
L 70.690083 227.373659 
L 71.775205 227.373659 
L 71.775205 221.106659 
L 72.860328 221.106659 
L 72.860328 209.743004 
L 73.94545 209.743004 
L 73.94545 200.871047 
L 75.030573 200.871047 
L 75.030573 193.584716 
L 76.115695 193.584716 
L 76.115695 182.71185 
L 77.200817 182.71185 
L 77.200817 176.218332 
L 78.28594 176.218332 
L 78.28594 165.911761 
L 79.371062 165.911761 
L 79.371062 158.059135 
L 80.456184 158.059135 
L 80.456184 152.245172 
L 81.541307 152.245172 
L 81.541307 146.468961 
L 82.626429 146.468961 
L 82.626429 138.956113 
L 83.711552 138.956113 
L 83.711552 133.368667 
L 84.796674 133.368667 
L 84.796674 129.89539 
L 85.881796 129.89539 
L 85.881796 118.229711 
L 86.966919 118.229711 
L 86.966919 115.435988 
L 88.052041 115.435988 
L 88.052041 111.849452 
L 89.137163 111.849452 
L 89.137163 103.732555 
L 90.222286 103.732555 
L 90.222286 101.014339 
L 91.307408 101.014339 
L 91.307408 97.163532 
L 92.392531 97.163532 
L 92.392531 92.74643 
L 93.477653 92.74643 
L 93.477653 89.575177 
L 94.562775 89.575177 
L 94.562775 86.894714 
L 95.647898 86.894714 
L 95.647898 83.798967 
L 96.73302 83.798967 
L 96.73302 78.43804 
L 97.818143 78.43804 
L 97.818143 83.987732 
L 98.903265 83.987732 
L 98.903265 74.020938 
L 99.988387 74.020938 
L 99.988387 69.868107 
L 101.07351 69.868107 
L 101.07351 71.151709 
L 102.158632 71.151709 
L 102.158632 64.846957 
L 103.243754 64.846957 
L 103.243754 66.77236 
L 104.328877 66.77236 
L 104.328877 65.413252 
L 105.413999 65.413252 
L 105.413999 62.8838 
L 106.499122 62.8838 
L 106.499122 60.694126 
L 107.584244 60.694126 
L 107.584244 61.939975 
L 108.669366 61.939975 
L 108.669366 57.296355 
L 109.754489 57.296355 
L 109.754489 54.389373 
L 110.839611 54.389373 
L 110.839611 53.898584 
L 111.924733 53.898584 
L 111.924733 52.312958 
L 113.009856 52.312958 
L 113.009856 50.651825 
L 114.094978 50.651825 
L 114.094978 50.274295 
L 116.265223 50.312048 
L 116.265223 45.102133 
L 117.350345 45.102133 
L 117.350345 42.497175 
L 118.435468 42.497175 
L 118.435468 47.593832 
L 119.52059 47.593832 
L 119.52059 44.460332 
L 120.605712 44.460332 
L 120.605712 46.310229 
L 121.690835 46.310229 
L 121.690835 45.630675 
L 122.775957 45.630675 
L 122.775957 39.137158 
L 123.86108 39.137158 
L 123.86108 34.380279 
L 124.946202 34.380279 
L 124.946202 41.93088 
L 126.031324 41.93088 
L 126.031324 36.569953 
L 128.201569 36.494447 
L 128.201569 40.987055 
L 129.286692 40.987055 
L 129.286692 41.855374 
L 130.371814 41.855374 
L 130.371814 32.605887 
L 131.456936 32.605887 
L 131.456936 34.304773 
L 132.542059 34.304773 
L 132.542059 33.436453 
L 133.627181 33.436453 
L 133.627181 37.476025 
L 134.712303 37.476025 
L 134.712303 36.683212 
L 135.797426 36.683212 
L 135.797426 34.871068 
L 136.882548 34.871068 
L 136.882548 38.382097 
L 137.967671 38.382097 
L 137.967671 33.77623 
L 139.052793 33.77623 
L 139.052793 32.832405 
L 140.137915 32.832405 
L 140.137915 34.040502 
L 141.223038 34.040502 
L 141.223038 31.850827 
L 142.30816 31.850827 
L 142.30816 30.642731 
L 143.393282 30.642731 
L 143.393282 35.437363 
L 144.478405 35.437363 
L 144.478405 30.340707 
L 145.563527 30.340707 
L 145.563527 26.829677 
L 146.64865 26.829677 
L 146.64865 32.379369 
L 147.733772 32.379369 
L 147.733772 34.342526 
L 148.818894 34.342526 
L 148.818894 25.583828 
L 149.904017 25.583828 
L 149.904017 27.24496 
L 150.989139 27.24496 
L 150.989139 29.736659 
L 152.074261 29.736659 
L 152.074261 27.924514 
L 153.159384 27.924514 
L 153.159384 29.170363 
L 154.244506 29.170363 
L 154.244506 33.549712 
L 155.329629 33.549712 
L 155.329629 29.170363 
L 156.414751 29.170363 
L 156.414751 24.640002 
L 157.499873 24.640002 
L 157.499873 32.832405 
L 158.584996 32.832405 
L 158.584996 30.076436 
L 159.670118 30.076436 
L 159.670118 26.376641 
L 160.75524 26.376641 
L 160.75524 33.587465 
L 161.840363 33.587465 
L 161.840363 26.527653 
L 162.925485 26.527653 
L 162.925485 27.849008 
L 164.010608 27.849008 
L 164.010608 28.415303 
L 165.09573 28.415303 
L 165.09573 29.245869 
L 166.180852 29.245869 
L 166.180852 25.281803 
L 167.265975 25.281803 
L 167.265975 31.548803 
L 168.351097 31.548803 
L 168.351097 29.245869 
L 169.43622 29.245869 
L 169.43622 29.661152 
L 170.521342 29.661152 
L 170.521342 33.285441 
L 171.606464 33.285441 
L 171.606464 25.546075 
L 172.691587 25.546075 
L 172.691587 26.754171 
L 173.776709 26.754171 
L 173.776709 29.812165 
L 174.861831 29.812165 
L 174.861831 27.433725 
L 175.946954 27.433725 
L 175.946954 31.246779 
L 177.032076 31.246779 
L 177.032076 26.338888 
L 178.117199 26.338888 
L 178.117199 30.189695 
L 179.202321 30.189695 
L 179.202321 29.321375 
L 180.287443 29.321375 
L 180.287443 32.756899 
L 181.372566 32.756899 
L 181.372566 28.151032 
L 182.457688 28.151032 
L 182.457688 29.547893 
L 183.54281 29.547893 
L 183.54281 31.13352 
L 184.627933 31.13352 
L 184.627933 25.999111 
L 185.713055 25.999111 
L 185.713055 23.960448 
L 186.798178 23.960448 
L 186.798178 31.662062 
L 187.8833 31.662062 
L 187.8833 29.623399 
L 188.968422 29.623399 
L 188.968422 31.246779 
L 190.053545 31.246779 
L 190.053545 28.453056 
L 191.138667 28.453056 
L 191.138667 26.678665 
L 192.223789 26.678665 
L 192.223789 31.775321 
L 193.308912 31.775321 
L 193.308912 29.321375 
L 194.394034 29.321375 
L 194.394034 27.62249 
L 195.479157 27.62249 
L 195.479157 18.561768 
L 196.564279 18.561768 
L 196.564279 28.490809 
L 197.649401 28.490809 
L 197.649401 23.054376 
L 198.734524 23.054376 
L 198.734524 26.603159 
L 199.819646 26.603159 
L 199.819646 28.641821 
L 200.904769 28.641821 
L 200.904769 26.86743 
L 201.989891 26.86743 
L 201.989891 29.170363 
L 203.075013 29.170363 
L 203.075013 23.658424 
L 205.245258 23.582918 
L 205.245258 25.73484 
L 206.33038 25.73484 
L 206.33038 26.11237 
L 207.415503 26.11237 
L 207.415503 24.149213 
L 208.500625 24.149213 
L 208.500625 28.188785 
L 209.585748 28.188785 
L 209.585748 27.395972 
L 210.67087 27.395972 
L 210.67087 27.131701 
L 211.755992 27.131701 
L 211.755992 24.48899 
L 212.841115 24.48899 
L 212.841115 29.849918 
L 213.926237 29.849918 
L 213.926237 23.507412 
L 215.011359 23.507412 
L 215.011359 26.036864 
L 217.181604 26.11237 
L 217.181604 21.582009 
L 218.266727 21.582009 
L 218.266727 29.321375 
L 219.351849 29.321375 
L 219.351849 26.716418 
L 220.436971 26.716418 
L 220.436971 22.450328 
L 221.522094 22.450328 
L 221.522094 24.942026 
L 223.692338 24.904273 
L 223.692338 24.715508 
L 224.777461 24.715508 
L 224.777461 25.961358 
L 225.862583 25.961358 
L 225.862583 27.131701 
L 226.947706 27.131701 
L 226.947706 26.187876 
L 228.032828 26.187876 
L 228.032828 30.604978 
L 229.11795 30.604978 
L 229.11795 24.224719 
L 230.203073 24.224719 
L 230.203073 26.452147 
L 231.288195 26.452147 
L 231.288195 27.018442 
L 232.373317 27.018442 
L 232.373317 26.4899 
L 233.45844 26.4899 
L 233.45844 21.959539 
L 234.543562 21.959539 
L 234.543562 28.830586 
L 235.628685 28.830586 
L 235.628685 29.925424 
L 236.713807 29.925424 
L 236.713807 26.716418 
L 237.798929 26.716418 
L 237.798929 28.717327 
L 238.884052 28.717327 
L 238.884052 25.961358 
L 239.969174 25.961358 
L 239.969174 27.093948 
L 241.054297 27.093948 
L 241.054297 29.13261 
L 242.139419 29.13261 
L 242.139419 26.376641 
L 243.224541 26.376641 
L 243.224541 24.11146 
L 244.309664 24.11146 
L 244.309664 28.113279 
L 245.394786 28.113279 
L 245.394786 25.168544 
L 246.479908 25.168544 
L 246.479908 29.094857 
L 247.565031 29.094857 
L 247.565031 31.209026 
L 248.650153 31.209026 
L 248.650153 27.849008 
L 249.735276 27.849008 
L 249.735276 29.472387 
L 250.820398 29.472387 
L 250.820398 26.414394 
L 251.90552 26.414394 
L 251.90552 26.225629 
L 252.990643 26.225629 
L 252.990643 26.716418 
L 254.075765 26.716418 
L 254.075765 29.094857 
L 255.160887 29.094857 
L 255.160887 28.604068 
L 256.24601 28.604068 
L 256.24601 40.836043 
L 257.331132 40.836043 
L 257.331132 44.498085 
L 258.416255 44.498085 
L 258.416255 50.651825 
L 259.501377 50.651825 
L 259.501377 59.599288 
L 260.586499 59.599288 
L 260.586499 68.584504 
L 261.671622 68.584504 
L 261.671622 77.607473 
L 262.756744 77.607473 
L 262.756744 85.195828 
L 263.841866 85.195828 
L 263.841866 95.275882 
L 264.926989 95.275882 
L 264.926989 102.675471 
L 266.012111 102.675471 
L 266.012111 108.602694 
L 267.097234 108.602694 
L 267.097234 121.136692 
L 268.182356 121.136692 
L 268.182356 128.460776 
L 269.267478 128.460776 
L 269.267478 129.782131 
L 270.352601 129.782131 
L 270.352601 138.087793 
L 271.437723 138.087793 
L 271.437723 147.073009 
L 272.522846 147.073009 
L 272.522846 150.508533 
L 273.607968 150.508533 
L 273.607968 155.189906 
L 274.69309 155.189906 
L 274.69309 160.437574 
L 275.778213 160.437574 
L 275.778213 164.02411 
L 276.863335 164.02411 
L 276.863335 168.932001 
L 277.948457 168.932001 
L 277.948457 176.558109 
L 279.03358 176.558109 
L 279.03358 176.369344 
L 280.118702 176.369344 
L 280.118702 179.993633 
L 281.203825 179.993633 
L 281.203825 186.751422 
L 282.288947 186.751422 
L 282.288947 185.505572 
L 283.374069 185.505572 
L 283.374069 189.922674 
L 284.459192 189.922674 
L 284.459192 194.453035 
L 285.544314 194.453035 
L 285.544314 196.26518 
L 286.629436 196.26518 
L 286.629436 200.078234 
L 287.714559 200.078234 
L 287.714559 203.476004 
L 288.799681 203.476004 
L 288.799681 204.759607 
L 289.884804 204.759607 
L 289.884804 206.760516 
L 290.969926 206.760516 
L 290.969926 208.421648 
L 292.055048 208.421648 
L 292.055048 210.875594 
L 293.140171 210.875594 
L 293.140171 213.782576 
L 294.225293 213.782576 
L 294.225293 212.574479 
L 295.310415 212.574479 
L 295.310415 213.971341 
L 296.395538 213.971341 
L 296.395538 216.010003 
L 297.48066 216.010003 
L 297.48066 220.049575 
L 298.565783 220.049575 
L 298.565783 219.521033 
L 299.650905 219.521033 
L 299.650905 223.673864 
L 300.736027 223.673864 
L 300.736027 222.088238 
L 301.82115 222.088238 
L 301.82115 225.032972 
L 302.906272 225.032972 
L 302.906272 224.655442 
L 303.991394 224.655442 
L 303.991394 226.203316 
L 305.076517 226.203316 
L 305.076517 227.222647 
L 306.161639 227.222647 
L 306.161639 229.185803 
L 307.246762 229.185803 
L 307.246762 229.676592 
L 308.331884 229.676592 
L 308.331884 229.374568 
L 309.417006 229.374568 
L 309.417006 231.262219 
L 310.502129 231.262219 
L 310.502129 232.772339 
L 313.757496 232.847845 
L 313.757496 234.018188 
L 314.842618 234.018188 
L 314.842618 234.1692 
L 315.927741 234.1692 
L 315.927741 235.264038 
L 317.012863 235.264038 
L 317.012863 235.943592 
L 318.097985 235.943592 
L 318.097985 236.849664 
L 319.183108 236.849664 
L 319.183108 237.151688 
L 320.26823 237.151688 
L 320.26823 236.698652 
L 321.353353 236.698652 
L 321.353353 237.189441 
L 322.438475 237.189441 
L 322.438475 238.699561 
L 323.523597 238.699561 
L 323.523597 238.05776 
L 324.60872 238.05776 
L 324.60872 239.492375 
L 325.693842 239.492375 
L 325.693842 239.869905 
L 326.778964 239.869905 
L 326.778964 240.171929 
L 327.864087 240.171929 
L 327.864087 239.983164 
L 328.949209 239.983164 
L 328.949209 240.4362 
L 330.034332 240.4362 
L 330.034332 241.078001 
L 331.119454 241.078001 
L 331.119454 240.247435 
L 332.204576 240.247435 
L 332.204576 241.606543 
L 333.289699 241.606543 
L 333.289699 241.304519 
L 334.374821 241.304519 
L 334.374821 241.493284 
L 335.459943 241.493284 
L 335.459943 241.984073 
L 337.630188 241.94632 
L 337.630188 242.474862 
L 339.800433 242.550368 
L 339.800433 242.890145 
L 344.140923 242.965651 
L 344.140923 243.343181 
L 345.226045 243.343181 
L 345.226045 243.116663 
L 346.311167 243.116663 
L 346.311167 243.5697 
L 347.39629 243.5697 
L 347.39629 244.135995 
L 348.481412 244.135995 
L 348.481412 243.796218 
L 350.651657 243.871724 
L 350.651657 243.607453 
L 351.736779 243.607453 
L 351.736779 243.758465 
L 352.821902 243.758465 
L 352.821902 244.135995 
L 353.907024 244.135995 
L 353.907024 244.438019 
L 354.992146 244.438019 
L 354.992146 244.32476 
L 356.077269 244.32476 
L 356.077269 244.022736 
L 357.162391 244.022736 
L 357.162391 244.287007 
L 358.247513 244.287007 
L 358.247513 244.098242 
L 359.332636 244.098242 
L 359.332636 244.589031 
L 360.417758 244.589031 
L 360.417758 244.475772 
L 361.502881 244.475772 
L 361.502881 244.740043 
L 362.588003 244.740043 
L 362.588003 245.45735 
L 363.673125 245.45735 
L 363.673125 244.853302 
L 366.928492 244.891055 
L 366.928492 245.155326 
L 368.013615 245.155326 
L 368.013615 244.966561 
L 369.098737 244.966561 
L 369.098737 245.193079 
L 370.18386 245.193079 
L 370.18386 245.07982 
L 372.354104 245.07982 
L 372.354104 245.419597 
L 373.439227 245.419597 
L 373.439227 245.155326 
L 374.524349 245.155326 
L 374.524349 245.532856 
L 377.779716 245.45735 
L 377.779716 245.155326 
L 378.864839 245.155326 
L 378.864839 245.45735 
L 379.949961 245.45735 
L 379.949961 245.306338 
L 381.035083 245.306338 
L 381.035083 245.608362 
L 384.290451 245.608362 
L 384.290451 245.495103 
L 385.375573 245.495103 
L 385.375573 245.683868 
L 386.460695 245.683868 
L 386.460695 245.570609 
L 388.63094 245.608362 
L 388.63094 245.797127 
L 389.716062 245.797127 
L 389.716062 245.683868 
L 390.801185 245.683868 
L 390.801185 245.570609 
L 392.97143 245.646115 
L 392.97143 245.683868 
L 394.056552 245.683868 
L 394.056552 245.797127 
L 395.141674 245.797127 
L 395.141674 245.797127 
" clip-path="url(#p306a30d503)" style="fill: none; stroke: #1f77b4; stroke-width: 1.5; stroke-linecap: square"/>
   </g>
   <g id="patch_3">
    <path d="M 53.328125 257.158895 
L 53.328125 7.2 
" style="fill: none; stroke: #000000; stroke-width: 0.8; stroke-linejoin: miter; stroke-linecap: square"/>
   </g>
   <g id="patch_4">
    <path d="M 411.41851 257.158895 
L 411.41851 7.2 
" style="fill: none; stroke: #000000; stroke-width: 0.8; stroke-linejoin: miter; stroke-linecap: square"/>
   </g>
   <g id="patch_5">
    <path d="M 53.328125 257.158895 
L 411.41851 257.158895 
" style="fill: none; stroke: #000000; stroke-width: 0.8; stroke-linejoin: miter; stroke-linecap: square"/>
   </g>
   <g id="patch_6">
    <path d="M 53.328125 7.2 
L 411.41851 7.2 
" style="fill: none; stroke: #000000; stroke-width: 0.8; stroke-linejoin: miter; stroke-linecap: square"/>
   </g>
  </g>
  <g id="axes_2">
   <g id="patch_7">
    <path d="M 507.109135 257.158895 
L 865.19952 257.158895 
L 865.19952 7.2 
L 507.109135 7.2 
z
" style="fill: #ffffff"/>
   </g>
   <g id="matplotlib.axis_3">
    <g id="xtick_7">
     <g id="line2d_15">
      <g>
       <use xlink:href="#m684d7ef732" x="520.103776" y="257.158895" style="stroke: #000000; stroke-width: 0.8"/>
      </g>
     </g>
     <g id="text_16">
      <!-- 0.0 -->
      <g transform="translate(512.152213 271.757332) scale(0.1 -0.1)">
       <defs>
        <path id="DejaVuSans-2e" d="M 684 794 
L 1344 794 
L 1344 0 
L 684 0 
L 684 794 
z
" transform="scale(0.015625)"/>
       </defs>
       <use xlink:href="#DejaVuSans-30"/>
       <use xlink:href="#DejaVuSans-2e" transform="translate(63.623047 0)"/>
       <use xlink:href="#DejaVuSans-30" transform="translate(95.410156 0)"/>
      </g>
     </g>
    </g>
    <g id="xtick_8">
     <g id="line2d_16">
      <g>
       <use xlink:href="#m684d7ef732" x="561.434079" y="257.158895" style="stroke: #000000; stroke-width: 0.8"/>
      </g>
     </g>
     <g id="text_17">
      <!-- 2.5 -->
      <g transform="translate(553.482516 271.757332) scale(0.1 -0.1)">
       <use xlink:href="#DejaVuSans-32"/>
       <use xlink:href="#DejaVuSans-2e" transform="translate(63.623047 0)"/>
       <use xlink:href="#DejaVuSans-35" transform="translate(95.410156 0)"/>
      </g>
     </g>
    </g>
    <g id="xtick_9">
     <g id="line2d_17">
      <g>
       <use xlink:href="#m684d7ef732" x="602.764382" y="257.158895" style="stroke: #000000; stroke-width: 0.8"/>
      </g>
     </g>
     <g id="text_18">
      <!-- 5.0 -->
      <g transform="translate(594.81282 271.757332) scale(0.1 -0.1)">
       <use xlink:href="#DejaVuSans-35"/>
       <use xlink:href="#DejaVuSans-2e" transform="translate(63.623047 0)"/>
       <use xlink:href="#DejaVuSans-30" transform="translate(95.410156 0)"/>
      </g>
     </g>
    </g>
    <g id="xtick_10">
     <g id="line2d_18">
      <g>
       <use xlink:href="#m684d7ef732" x="644.094686" y="257.158895" style="stroke: #000000; stroke-width: 0.8"/>
      </g>
     </g>
     <g id="text_19">
      <!-- 7.5 -->
      <g transform="translate(636.143123 271.757332) scale(0.1 -0.1)">
       <defs>
        <path id="DejaVuSans-37" d="M 525 4666 
L 3525 4666 
L 3525 4397 
L 1831 0 
L 1172 0 
L 2766 4134 
L 525 4134 
L 525 4666 
z
" transform="scale(0.015625)"/>
       </defs>
       <use xlink:href="#DejaVuSans-37"/>
       <use xlink:href="#DejaVuSans-2e" transform="translate(63.623047 0)"/>
       <use xlink:href="#DejaVuSans-35" transform="translate(95.410156 0)"/>
      </g>
     </g>
    </g>
    <g id="xtick_11">
     <g id="line2d_19">
      <g>
       <use xlink:href="#m684d7ef732" x="685.424989" y="257.158895" style="stroke: #000000; stroke-width: 0.8"/>
      </g>
     </g>
     <g id="text_20">
      <!-- 10.0 -->
      <g transform="translate(674.292176 271.757332) scale(0.1 -0.1)">
       <use xlink:href="#DejaVuSans-31"/>
       <use xlink:href="#DejaVuSans-30" transform="translate(63.623047 0)"/>
       <use xlink:href="#DejaVuSans-2e" transform="translate(127.246094 0)"/>
       <use xlink:href="#DejaVuSans-30" transform="translate(159.033203 0)"/>
      </g>
     </g>
    </g>
    <g id="xtick_12">
     <g id="line2d_20">
      <g>
       <use xlink:href="#m684d7ef732" x="726.755292" y="257.158895" style="stroke: #000000; stroke-width: 0.8"/>
      </g>
     </g>
     <g id="text_21">
      <!-- 12.5 -->
      <g transform="translate(715.62248 271.757332) scale(0.1 -0.1)">
       <use xlink:href="#DejaVuSans-31"/>
       <use xlink:href="#DejaVuSans-32" transform="translate(63.623047 0)"/>
       <use xlink:href="#DejaVuSans-2e" transform="translate(127.246094 0)"/>
       <use xlink:href="#DejaVuSans-35" transform="translate(159.033203 0)"/>
      </g>
     </g>
    </g>
    <g id="xtick_13">
     <g id="line2d_21">
      <g>
       <use xlink:href="#m684d7ef732" x="768.085596" y="257.158895" style="stroke: #000000; stroke-width: 0.8"/>
      </g>
     </g>
     <g id="text_22">
      <!-- 15.0 -->
      <g transform="translate(756.952783 271.757332) scale(0.1 -0.1)">
       <use xlink:href="#DejaVuSans-31"/>
       <use xlink:href="#DejaVuSans-35" transform="translate(63.623047 0)"/>
       <use xlink:href="#DejaVuSans-2e" transform="translate(127.246094 0)"/>
       <use xlink:href="#DejaVuSans-30" transform="translate(159.033203 0)"/>
      </g>
     </g>
    </g>
    <g id="xtick_14">
     <g id="line2d_22">
      <g>
       <use xlink:href="#m684d7ef732" x="809.415899" y="257.158895" style="stroke: #000000; stroke-width: 0.8"/>
      </g>
     </g>
     <g id="text_23">
      <!-- 17.5 -->
      <g transform="translate(798.283087 271.757332) scale(0.1 -0.1)">
       <use xlink:href="#DejaVuSans-31"/>
       <use xlink:href="#DejaVuSans-37" transform="translate(63.623047 0)"/>
       <use xlink:href="#DejaVuSans-2e" transform="translate(127.246094 0)"/>
       <use xlink:href="#DejaVuSans-35" transform="translate(159.033203 0)"/>
      </g>
     </g>
    </g>
    <g id="xtick_15">
     <g id="line2d_23">
      <g>
       <use xlink:href="#m684d7ef732" x="850.746202" y="257.158895" style="stroke: #000000; stroke-width: 0.8"/>
      </g>
     </g>
     <g id="text_24">
      <!-- 20.0 -->
      <g transform="translate(839.61339 271.757332) scale(0.1 -0.1)">
       <use xlink:href="#DejaVuSans-32"/>
       <use xlink:href="#DejaVuSans-30" transform="translate(63.623047 0)"/>
       <use xlink:href="#DejaVuSans-2e" transform="translate(127.246094 0)"/>
       <use xlink:href="#DejaVuSans-30" transform="translate(159.033203 0)"/>
      </g>
     </g>
    </g>
    <g id="text_25">
     <!-- wavelength [Å] -->
     <g transform="translate(648.116827 287.119832) scale(0.1 -0.1)">
      <defs>
       <path id="DejaVuSans-77" d="M 269 3500 
L 844 3500 
L 1563 769 
L 2278 3500 
L 2956 3500 
L 3675 769 
L 4391 3500 
L 4966 3500 
L 4050 0 
L 3372 0 
L 2619 2869 
L 1863 0 
L 1184 0 
L 269 3500 
z
" transform="scale(0.015625)"/>
       <path id="DejaVuSans-61" d="M 2194 1759 
Q 1497 1759 1228 1600 
Q 959 1441 959 1056 
Q 959 750 1161 570 
Q 1363 391 1709 391 
Q 2188 391 2477 730 
Q 2766 1069 2766 1631 
L 2766 1759 
L 2194 1759 
z
M 3341 1997 
L 3341 0 
L 2766 0 
L 2766 531 
Q 2569 213 2275 61 
Q 1981 -91 1556 -91 
Q 1019 -91 701 211 
Q 384 513 384 1019 
Q 384 1609 779 1909 
Q 1175 2209 1959 2209 
L 2766 2209 
L 2766 2266 
Q 2766 2663 2505 2880 
Q 2244 3097 1772 3097 
Q 1472 3097 1187 3025 
Q 903 2953 641 2809 
L 641 3341 
Q 956 3463 1253 3523 
Q 1550 3584 1831 3584 
Q 2591 3584 2966 3190 
Q 3341 2797 3341 1997 
z
" transform="scale(0.015625)"/>
       <path id="DejaVuSans-76" d="M 191 3500 
L 800 3500 
L 1894 563 
L 2988 3500 
L 3597 3500 
L 2284 0 
L 1503 0 
L 191 3500 
z
" transform="scale(0.015625)"/>
       <path id="DejaVuSans-67" d="M 2906 1791 
Q 2906 2416 2648 2759 
Q 2391 3103 1925 3103 
Q 1463 3103 1205 2759 
Q 947 2416 947 1791 
Q 947 1169 1205 825 
Q 1463 481 1925 481 
Q 2391 481 2648 825 
Q 2906 1169 2906 1791 
z
M 3481 434 
Q 3481 -459 3084 -895 
Q 2688 -1331 1869 -1331 
Q 1566 -1331 1297 -1286 
Q 1028 -1241 775 -1147 
L 775 -588 
Q 1028 -725 1275 -790 
Q 1522 -856 1778 -856 
Q 2344 -856 2625 -561 
Q 2906 -266 2906 331 
L 2906 616 
Q 2728 306 2450 153 
Q 2172 0 1784 0 
Q 1141 0 747 490 
Q 353 981 353 1791 
Q 353 2603 747 3093 
Q 1141 3584 1784 3584 
Q 2172 3584 2450 3431 
Q 2728 3278 2906 2969 
L 2906 3500 
L 3481 3500 
L 3481 434 
z
" transform="scale(0.015625)"/>
       <path id="DejaVuSans-c5" d="M 2663 5081 
Q 2663 5278 2523 5417 
Q 2384 5556 2188 5556 
Q 1988 5556 1852 5420 
Q 1716 5284 1716 5081 
Q 1716 4884 1853 4746 
Q 1991 4609 2188 4609 
Q 2384 4609 2523 4746 
Q 2663 4884 2663 5081 
z
M 2188 4044 
L 1338 1722 
L 3041 1722 
L 2188 4044 
z
M 1716 4366 
Q 1525 4494 1428 4673 
Q 1331 4853 1331 5081 
Q 1331 5441 1579 5691 
Q 1828 5941 2188 5941 
Q 2544 5941 2795 5689 
Q 3047 5438 3047 5081 
Q 3047 4863 2948 4678 
Q 2850 4494 2663 4366 
L 4325 0 
L 3669 0 
L 3244 1197 
L 1141 1197 
L 716 0 
L 50 0 
L 1716 4366 
z
" transform="scale(0.015625)"/>
      </defs>
      <use xlink:href="#DejaVuSans-77"/>
      <use xlink:href="#DejaVuSans-61" transform="translate(81.787109 0)"/>
      <use xlink:href="#DejaVuSans-76" transform="translate(143.066406 0)"/>
      <use xlink:href="#DejaVuSans-65" transform="translate(202.246094 0)"/>
      <use xlink:href="#DejaVuSans-6c" transform="translate(263.769531 0)"/>
      <use xlink:href="#DejaVuSans-65" transform="translate(291.552734 0)"/>
      <use xlink:href="#DejaVuSans-6e" transform="translate(353.076172 0)"/>
      <use xlink:href="#DejaVuSans-67" transform="translate(416.455078 0)"/>
      <use xlink:href="#DejaVuSans-74" transform="translate(479.931641 0)"/>
      <use xlink:href="#DejaVuSans-68" transform="translate(519.140625 0)"/>
      <use xlink:href="#DejaVuSans-20" transform="translate(582.519531 0)"/>
      <use xlink:href="#DejaVuSans-5b" transform="translate(614.306641 0)"/>
      <use xlink:href="#DejaVuSans-c5" transform="translate(653.320312 0)"/>
      <use xlink:href="#DejaVuSans-5d" transform="translate(721.728516 0)"/>
     </g>
    </g>
   </g>
   <g id="matplotlib.axis_4">
    <g id="ytick_8">
     <g id="line2d_24">
      <g>
       <use xlink:href="#mc1d7eba9ac" x="507.109135" y="245.828837" style="stroke: #000000; stroke-width: 0.8"/>
      </g>
     </g>
     <g id="text_26">
      <!-- 0 -->
      <g transform="translate(493.746635 249.628056) scale(0.1 -0.1)">
       <use xlink:href="#DejaVuSans-30"/>
      </g>
     </g>
    </g>
    <g id="ytick_9">
     <g id="line2d_25">
      <g>
       <use xlink:href="#mc1d7eba9ac" x="507.109135" y="192.978489" style="stroke: #000000; stroke-width: 0.8"/>
      </g>
     </g>
     <g id="text_27">
      <!-- 5000 -->
      <g transform="translate(474.659135 196.777707) scale(0.1 -0.1)">
       <use xlink:href="#DejaVuSans-35"/>
       <use xlink:href="#DejaVuSans-30" transform="translate(63.623047 0)"/>
       <use xlink:href="#DejaVuSans-30" transform="translate(127.246094 0)"/>
       <use xlink:href="#DejaVuSans-30" transform="translate(190.869141 0)"/>
      </g>
     </g>
    </g>
    <g id="ytick_10">
     <g id="line2d_26">
      <g>
       <use xlink:href="#mc1d7eba9ac" x="507.109135" y="140.12814" style="stroke: #000000; stroke-width: 0.8"/>
      </g>
     </g>
     <g id="text_28">
      <!-- 10000 -->
      <g transform="translate(468.296635 143.927359) scale(0.1 -0.1)">
       <use xlink:href="#DejaVuSans-31"/>
       <use xlink:href="#DejaVuSans-30" transform="translate(63.623047 0)"/>
       <use xlink:href="#DejaVuSans-30" transform="translate(127.246094 0)"/>
       <use xlink:href="#DejaVuSans-30" transform="translate(190.869141 0)"/>
       <use xlink:href="#DejaVuSans-30" transform="translate(254.492188 0)"/>
      </g>
     </g>
    </g>
    <g id="ytick_11">
     <g id="line2d_27">
      <g>
       <use xlink:href="#mc1d7eba9ac" x="507.109135" y="87.277791" style="stroke: #000000; stroke-width: 0.8"/>
      </g>
     </g>
     <g id="text_29">
      <!-- 15000 -->
      <g transform="translate(468.296635 91.07701) scale(0.1 -0.1)">
       <use xlink:href="#DejaVuSans-31"/>
       <use xlink:href="#DejaVuSans-35" transform="translate(63.623047 0)"/>
       <use xlink:href="#DejaVuSans-30" transform="translate(127.246094 0)"/>
       <use xlink:href="#DejaVuSans-30" transform="translate(190.869141 0)"/>
       <use xlink:href="#DejaVuSans-30" transform="translate(254.492188 0)"/>
      </g>
     </g>
    </g>
    <g id="ytick_12">
     <g id="line2d_28">
      <g>
       <use xlink:href="#mc1d7eba9ac" x="507.109135" y="34.427443" style="stroke: #000000; stroke-width: 0.8"/>
      </g>
     </g>
     <g id="text_30">
      <!-- 20000 -->
      <g transform="translate(468.296635 38.226661) scale(0.1 -0.1)">
       <use xlink:href="#DejaVuSans-32"/>
       <use xlink:href="#DejaVuSans-30" transform="translate(63.623047 0)"/>
       <use xlink:href="#DejaVuSans-30" transform="translate(127.246094 0)"/>
       <use xlink:href="#DejaVuSans-30" transform="translate(190.869141 0)"/>
       <use xlink:href="#DejaVuSans-30" transform="translate(254.492188 0)"/>
      </g>
     </g>
    </g>
    <g id="text_31">
     <!-- pulse:0 [counts] -->
     <g transform="translate(462.216947 172.659916) rotate(-90) scale(0.1 -0.1)">
      <use xlink:href="#DejaVuSans-70"/>
      <use xlink:href="#DejaVuSans-75" transform="translate(63.476562 0)"/>
      <use xlink:href="#DejaVuSans-6c" transform="translate(126.855469 0)"/>
      <use xlink:href="#DejaVuSans-73" transform="translate(154.638672 0)"/>
      <use xlink:href="#DejaVuSans-65" transform="translate(206.738281 0)"/>
      <use xlink:href="#DejaVuSans-3a" transform="translate(268.261719 0)"/>
      <use xlink:href="#DejaVuSans-30" transform="translate(301.953125 0)"/>
      <use xlink:href="#DejaVuSans-20" transform="translate(365.576172 0)"/>
      <use xlink:href="#DejaVuSans-5b" transform="translate(397.363281 0)"/>
      <use xlink:href="#DejaVuSans-63" transform="translate(436.376953 0)"/>
      <use xlink:href="#DejaVuSans-6f" transform="translate(491.357422 0)"/>
      <use xlink:href="#DejaVuSans-75" transform="translate(552.539062 0)"/>
      <use xlink:href="#DejaVuSans-6e" transform="translate(615.917969 0)"/>
      <use xlink:href="#DejaVuSans-74" transform="translate(679.296875 0)"/>
      <use xlink:href="#DejaVuSans-73" transform="translate(718.505859 0)"/>
      <use xlink:href="#DejaVuSans-5d" transform="translate(770.605469 0)"/>
     </g>
    </g>
   </g>
   <g id="line2d_29">
    <path d="M 523.385971 156.247496 
L 524.471093 156.247496 
L 524.471093 148.372794 
L 525.556215 148.372794 
L 525.556215 137.453912 
L 526.641338 137.453912 
L 526.641338 140.08586 
L 527.72646 140.08586 
L 527.72646 146.311631 
L 528.811583 146.311631 
L 528.811583 148.785027 
L 529.896705 148.785027 
L 529.896705 143.426002 
L 530.981827 143.426002 
L 530.981827 127.539187 
L 532.06695 127.539187 
L 532.06695 102.435271 
L 533.152072 102.435271 
L 533.152072 83.662827 
L 534.237194 83.662827 
L 534.237194 65.165205 
L 535.322317 65.165205 
L 535.322317 40.790625 
L 536.407439 40.790625 
L 536.407439 27.556897 
L 537.492562 27.556897 
L 537.492562 24.692408 
L 538.577684 24.692408 
L 538.577684 18.561768 
L 539.662806 18.561768 
L 539.662806 21.489677 
L 540.747929 21.489677 
L 540.747929 34.512003 
L 541.833051 34.512003 
L 541.833051 40.452382 
L 542.918173 40.452382 
L 542.918173 50.69478 
L 544.003296 50.69478 
L 544.003296 61.074588 
L 545.088418 61.074588 
L 545.088418 68.89644 
L 546.173541 68.89644 
L 546.173541 74.95309 
L 547.258663 74.95309 
L 547.258663 87.341212 
L 548.343785 87.341212 
L 548.343785 89.719477 
L 549.428908 89.719477 
L 549.428908 92.277434 
L 550.51403 92.277434 
L 550.51403 97.340498 
L 551.599153 97.340498 
L 551.599153 94.021496 
L 552.684275 94.021496 
L 552.684275 91.368408 
L 553.769397 91.368408 
L 553.769397 94.782541 
L 554.85452 94.782541 
L 554.85452 82.341569 
L 555.939642 82.341569 
L 555.939642 75.206772 
L 557.024764 75.206772 
L 557.024764 70.006297 
L 558.109887 70.006297 
L 558.109887 58.569482 
L 559.195009 58.569482 
L 559.195009 48.411645 
L 560.280132 48.411645 
L 560.280132 43.824235 
L 561.365254 43.824235 
L 561.365254 35.188488 
L 562.450376 35.188488 
L 562.450376 33.634687 
L 563.535499 33.634687 
L 563.535499 44.764971 
L 564.620621 44.764971 
L 564.620621 47.301788 
L 565.705743 47.301788 
L 565.705743 58.717463 
L 566.790866 58.717463 
L 566.790866 71.063304 
L 567.875988 71.063304 
L 567.875988 74.90024 
L 568.961111 74.90024 
L 568.961111 87.193231 
L 570.046233 87.193231 
L 570.046233 94.60285 
L 571.131355 94.60285 
L 571.131355 105.2152 
L 572.216478 105.2152 
L 572.216478 110.849047 
L 573.3016 110.849047 
L 573.3016 119.474224 
L 574.386722 119.474224 
L 574.386722 121.799639 
L 575.471845 121.799639 
L 575.471845 129.135267 
L 576.556967 129.135267 
L 576.556967 136.354625 
L 577.64209 136.354625 
L 577.64209 140.984316 
L 578.727212 140.984316 
L 578.727212 145.994529 
L 579.812334 145.994529 
L 579.812334 153.298447 
L 580.897457 153.298447 
L 580.897457 156.469468 
L 581.982579 156.469468 
L 581.982579 159.619349 
L 583.067702 159.619349 
L 583.067702 166.109371 
L 584.152824 166.109371 
L 584.152824 168.181105 
L 585.237946 168.181105 
L 585.237946 171.584667 
L 586.323069 171.584667 
L 586.323069 176.616021 
L 587.408191 176.616021 
L 587.408191 178.920296 
L 588.493313 178.920296 
L 588.493313 179.723621 
L 589.578436 179.723621 
L 589.578436 185.135497 
L 590.663558 185.135497 
L 590.663558 189.458655 
L 591.748681 189.458655 
L 591.748681 189.733477 
L 592.833803 189.733477 
L 592.833803 193.094759 
L 593.918925 193.094759 
L 593.918925 194.563999 
L 595.004048 194.563999 
L 595.004048 199.013998 
L 596.08917 199.013998 
L 596.08917 201.402834 
L 597.174292 201.402834 
L 597.174292 202.026468 
L 598.259415 202.026468 
L 598.259415 203.115185 
L 599.344537 203.115185 
L 599.344537 207.290363 
L 600.42966 207.290363 
L 600.42966 208.051408 
L 601.514782 208.051408 
L 601.514782 209.81661 
L 602.599904 209.81661 
L 602.599904 211.232999 
L 603.685027 211.232999 
L 603.685027 212.83965 
L 604.770149 212.83965 
L 604.770149 212.998201 
L 605.855271 212.998201 
L 605.855271 216.391193 
L 606.940394 216.391193 
L 606.940394 216.190362 
L 608.025516 216.190362 
L 608.025516 217.987274 
L 609.110639 217.987274 
L 609.110639 219.361383 
L 610.195761 219.361383 
L 610.195761 220.598081 
L 611.280883 220.598081 
L 611.280883 221.422546 
L 612.366006 221.422546 
L 612.366006 222.542974 
L 613.451128 222.542974 
L 613.451128 222.363282 
L 614.53625 222.363282 
L 614.53625 223.917083 
L 615.621373 223.917083 
L 615.621373 226.242498 
L 616.706495 226.242498 
L 616.706495 225.164351 
L 617.791618 225.164351 
L 617.791618 226.971833 
L 618.87674 226.971833 
L 618.87674 227.817438 
L 619.961862 227.817438 
L 619.961862 228.10283 
L 621.046985 228.10283 
L 621.046985 229.191547 
L 622.132107 229.191547 
L 622.132107 230.227414 
L 624.302352 230.237984 
L 624.302352 230.872189 
L 625.387474 230.872189 
L 625.387474 231.675514 
L 626.472597 231.675514 
L 626.472597 232.056036 
L 627.557719 232.056036 
L 627.557719 231.939766 
L 628.642841 231.939766 
L 628.642841 233.482996 
L 629.727964 233.482996 
L 629.727964 233.271594 
L 630.813086 233.271594 
L 630.813086 234.032639 
L 631.898209 234.032639 
L 631.898209 234.275751 
L 632.983331 234.275751 
L 632.983331 234.15948 
L 634.068453 234.15948 
L 634.068453 234.550573 
L 635.153576 234.550573 
L 635.153576 235.945822 
L 636.238698 235.945822 
L 636.238698 235.311618 
L 637.32382 235.311618 
L 637.32382 236.051523 
L 638.408943 236.051523 
L 638.408943 236.537746 
L 639.494065 236.537746 
L 639.494065 237.002829 
L 640.579188 237.002829 
L 640.579188 236.706867 
L 641.66431 236.706867 
L 641.66431 237.013399 
L 642.749432 237.013399 
L 642.749432 237.393922 
L 643.834555 237.393922 
L 643.834555 238.070406 
L 644.919677 238.070406 
L 644.919677 238.59891 
L 646.004799 238.59891 
L 646.004799 238.72575 
L 647.089922 238.72575 
L 647.089922 238.250097 
L 648.175044 238.250097 
L 648.175044 239.095703 
L 649.260167 239.095703 
L 649.260167 238.852591 
L 650.345289 238.852591 
L 650.345289 238.62005 
L 651.430411 238.62005 
L 651.430411 240.20556 
L 652.515534 240.20556 
L 652.515534 239.550216 
L 653.600656 239.550216 
L 653.600656 239.825038 
L 654.685779 239.825038 
L 654.685779 240.17385 
L 655.770901 240.17385 
L 655.770901 240.300691 
L 657.941146 240.23727 
L 657.941146 240.966605 
L 659.026268 240.966605 
L 659.026268 240.469812 
L 660.11139 240.469812 
L 660.11139 240.797484 
L 661.196513 240.797484 
L 661.196513 241.051166 
L 663.366758 241.114586 
L 663.366758 241.325988 
L 664.45188 241.325988 
L 664.45188 241.569099 
L 665.537002 241.569099 
L 665.537002 242.076462 
L 667.707247 241.981332 
L 667.707247 241.822781 
L 668.792369 241.822781 
L 668.792369 241.611379 
L 669.877492 241.611379 
L 669.877492 242.192733 
L 670.962614 242.192733 
L 670.962614 242.425275 
L 672.047737 242.425275 
L 672.047737 241.939052 
L 673.132859 241.939052 
L 673.132859 242.393565 
L 674.217981 242.393565 
L 674.217981 242.573256 
L 675.303104 242.573256 
L 675.303104 242.752947 
L 676.388226 242.752947 
L 676.388226 242.351284 
L 677.473348 242.351284 
L 677.473348 242.858648 
L 679.643593 242.774087 
L 679.643593 242.604966 
L 680.728716 242.604966 
L 680.728716 242.996059 
L 683.984083 242.911498 
L 683.984083 242.731807 
L 685.069205 242.731807 
L 685.069205 243.21803 
L 686.154327 243.21803 
L 686.154327 243.048909 
L 687.23945 243.048909 
L 687.23945 243.598553 
L 688.324572 243.598553 
L 688.324572 243.408291 
L 689.409695 243.408291 
L 689.409695 243.556272 
L 691.579939 243.556272 
L 691.579939 243.852234 
L 693.750184 243.767674 
L 693.750184 243.503422 
L 694.835307 243.503422 
L 694.835307 243.757104 
L 697.005551 243.788814 
L 697.005551 243.905085 
L 698.090674 243.905085 
L 698.090674 243.704253 
L 699.175796 243.704253 
L 699.175796 243.957935 
L 700.260918 243.957935 
L 700.260918 243.831094 
L 702.431163 243.746534 
L 702.431163 244.148196 
L 703.516286 244.148196 
L 703.516286 244.296177 
L 708.941897 244.370168 
L 708.941897 244.423018 
L 710.02702 244.423018 
L 710.02702 244.169336 
L 711.112142 244.169336 
L 711.112142 244.391308 
L 713.282387 244.327887 
L 713.282387 244.66613 
L 715.452632 244.560429 
L 715.452632 244.539289 
L 719.793121 244.581569 
L 719.793121 244.866961 
L 721.963366 244.824681 
L 721.963366 244.69784 
L 723.048488 244.69784 
L 723.048488 244.877531 
L 725.218733 244.835251 
L 725.218733 244.560429 
L 726.303856 244.560429 
L 726.303856 244.824681 
L 729.559223 244.898671 
L 729.559223 245.014942 
L 731.729467 244.919811 
L 731.729467 244.814111 
L 736.069957 244.845821 
L 736.069957 245.141783 
L 737.155079 245.141783 
L 737.155079 244.993802 
L 739.325324 244.962092 
L 739.325324 245.162923 
L 740.410446 245.162923 
L 740.410446 244.940951 
L 741.495569 244.940951 
L 741.495569 245.247483 
L 742.580691 245.247483 
L 742.580691 245.014942 
L 743.665814 245.014942 
L 743.665814 245.141783 
L 745.836058 245.236913 
L 745.836058 245.353184 
L 746.921181 245.353184 
L 746.921181 245.099502 
L 749.091425 245.110073 
L 749.091425 245.215773 
L 756.687282 245.289764 
L 756.687282 245.332044 
L 761.027772 245.258053 
L 761.027772 245.469455 
L 762.112894 245.469455 
L 762.112894 245.310904 
L 764.283139 245.363754 
L 764.283139 245.427175 
L 765.368261 245.427175 
L 765.368261 245.184063 
L 766.453384 245.184063 
L 766.453384 245.374324 
L 769.708751 245.374324 
L 769.708751 245.522305 
L 770.793873 245.522305 
L 770.793873 245.279194 
L 771.878995 245.279194 
L 771.878995 245.416605 
L 772.964118 245.416605 
L 772.964118 245.575156 
L 777.304607 245.585726 
L 777.304607 245.427175 
L 779.474852 245.522305 
L 779.474852 245.554015 
L 787.070709 245.480025 
L 787.070709 245.416605 
L 791.411198 245.458885 
L 791.411198 245.564586 
L 797.921933 245.617436 
L 797.921933 245.691426 
L 800.092177 245.628006 
L 800.092177 245.532875 
L 808.773156 245.638576 
L 808.773156 245.659716 
L 838.071461 245.701996 
L 838.071461 245.775987 
L 848.922684 245.723137 
L 848.922684 245.723137 
" clip-path="url(#pb22a3f1162)" style="fill: none; stroke: #1f77b4; stroke-width: 1.5; stroke-linecap: square"/>
   </g>
   <g id="patch_8">
    <path d="M 507.109135 257.158895 
L 507.109135 7.2 
" style="fill: none; stroke: #000000; stroke-width: 0.8; stroke-linejoin: miter; stroke-linecap: square"/>
   </g>
   <g id="patch_9">
    <path d="M 865.19952 257.158895 
L 865.19952 7.2 
" style="fill: none; stroke: #000000; stroke-width: 0.8; stroke-linejoin: miter; stroke-linecap: square"/>
   </g>
   <g id="patch_10">
    <path d="M 507.109135 257.158895 
L 865.19952 257.158895 
" style="fill: none; stroke: #000000; stroke-width: 0.8; stroke-linejoin: miter; stroke-linecap: square"/>
   </g>
   <g id="patch_11">
    <path d="M 507.109135 7.2 
L 865.19952 7.2 
" style="fill: none; stroke: #000000; stroke-width: 0.8; stroke-linejoin: miter; stroke-linecap: square"/>
   </g>
  </g>
 </g>
 <defs>
  <clipPath id="p306a30d503">
   <rect x="53.328125" y="7.2" width="358.090385" height="249.958895"/>
  </clipPath>
  <clipPath id="pb22a3f1162">
   <rect x="507.109135" y="7.2" width="358.090385" height="249.958895"/>
  </clipPath>
 </defs>
</svg>
