<?xml version="1.0" encoding="utf-8" standalone="no"?>
<!DOCTYPE svg PUBLIC "-//W3C//DTD SVG 1.1//EN"
  "http://www.w3.org/Graphics/SVG/1.1/DTD/svg11.dtd">
<svg xmlns:xlink="http://www.w3.org/1999/xlink" width="872.39952pt" height="296.39952pt" viewBox="0 0 872.39952 296.39952" xmlns="http://www.w3.org/2000/svg" version="1.1">
 <metadata>
  <rdf:RDF xmlns:dc="http://purl.org/dc/elements/1.1/" xmlns:cc="http://creativecommons.org/ns#" xmlns:rdf="http://www.w3.org/1999/02/22-rdf-syntax-ns#">
   <cc:Work>
    <dc:type rdf:resource="http://purl.org/dc/dcmitype/StillImage"/>
    <dc:date>2026-01-29T14:57:53.330204</dc:date>
    <dc:format>image/svg+xml</dc:format>
    <dc:creator>
     <cc:Agent>
      <dc:title>Matplotlib v3.10.7, https://matplotlib.org/</dc:title>
     </cc:Agent>
    </dc:creator>
   </cc:Work>
  </rdf:RDF>
 </metadata>
 <defs>
  <style type="text/css">*{stroke-linejoin: round; stroke-linecap: butt}</style>
 </defs>
 <g id="figure_1">
  <g id="patch_1">
   <path d="M 0 296.39952 
L 872.39952 296.39952 
L 872.39952 0 
L 0 0 
z
" style="fill: #ffffff"/>
  </g>
  <g id="axes_1">
   <g id="patch_2">
    <path d="M 53.328125 257.158895 
L 414.59976 257.158895 
L 414.59976 7.2 
L 53.328125 7.2 
z
" style="fill: #ffffff"/>
   </g>
   <g id="matplotlib.axis_1">
    <g id="xtick_1">
     <g id="line2d_1">
      <defs>
       <path id="mafd8193545" d="M 0 0 
L 0 3.5 
" style="stroke: #000000; stroke-width: 0.8"/>
      </defs>
      <g>
       <use xlink:href="#mafd8193545" x="69.703914" y="257.158895" style="stroke: #000000; stroke-width: 0.8"/>
      </g>
     </g>
     <g id="text_1">
      <!-- 0 -->
      <g transform="translate(66.522664 271.757332) scale(0.1 -0.1)">
       <defs>
        <path id="DejaVuSans-30" d="M 2034 4250 
Q 1547 4250 1301 3770 
Q 1056 3291 1056 2328 
Q 1056 1369 1301 889 
Q 1547 409 2034 409 
Q 2525 409 2770 889 
Q 3016 1369 3016 2328 
Q 3016 3291 2770 3770 
Q 2525 4250 2034 4250 
z
M 2034 4750 
Q 2819 4750 3233 4129 
Q 3647 3509 3647 2328 
Q 3647 1150 3233 529 
Q 2819 -91 2034 -91 
Q 1250 -91 836 529 
Q 422 1150 422 2328 
Q 422 3509 836 4129 
Q 1250 4750 2034 4750 
z
" transform="scale(0.015625)"/>
       </defs>
       <use xlink:href="#DejaVuSans-30"/>
      </g>
     </g>
    </g>
    <g id="xtick_2">
     <g id="line2d_2">
      <g>
       <use xlink:href="#mafd8193545" x="124.480347" y="257.158895" style="stroke: #000000; stroke-width: 0.8"/>
      </g>
     </g>
     <g id="text_2">
      <!-- 1000 -->
      <g transform="translate(111.755347 271.757332) scale(0.1 -0.1)">
       <defs>
        <path id="DejaVuSans-31" d="M 794 531 
L 1825 531 
L 1825 4091 
L 703 3866 
L 703 4441 
L 1819 4666 
L 2450 4666 
L 2450 531 
L 3481 531 
L 3481 0 
L 794 0 
L 794 531 
z
" transform="scale(0.015625)"/>
       </defs>
       <use xlink:href="#DejaVuSans-31"/>
       <use xlink:href="#DejaVuSans-30" transform="translate(63.623047 0)"/>
       <use xlink:href="#DejaVuSans-30" transform="translate(127.246094 0)"/>
       <use xlink:href="#DejaVuSans-30" transform="translate(190.869141 0)"/>
      </g>
     </g>
    </g>
    <g id="xtick_3">
     <g id="line2d_3">
      <g>
       <use xlink:href="#mafd8193545" x="179.256779" y="257.158895" style="stroke: #000000; stroke-width: 0.8"/>
      </g>
     </g>
     <g id="text_3">
      <!-- 2000 -->
      <g transform="translate(166.531779 271.757332) scale(0.1 -0.1)">
       <defs>
        <path id="DejaVuSans-32" d="M 1228 531 
L 3431 531 
L 3431 0 
L 469 0 
L 469 531 
Q 828 903 1448 1529 
Q 2069 2156 2228 2338 
Q 2531 2678 2651 2914 
Q 2772 3150 2772 3378 
Q 2772 3750 2511 3984 
Q 2250 4219 1831 4219 
Q 1534 4219 1204 4116 
Q 875 4013 500 3803 
L 500 4441 
Q 881 4594 1212 4672 
Q 1544 4750 1819 4750 
Q 2544 4750 2975 4387 
Q 3406 4025 3406 3419 
Q 3406 3131 3298 2873 
Q 3191 2616 2906 2266 
Q 2828 2175 2409 1742 
Q 1991 1309 1228 531 
z
" transform="scale(0.015625)"/>
       </defs>
       <use xlink:href="#DejaVuSans-32"/>
       <use xlink:href="#DejaVuSans-30" transform="translate(63.623047 0)"/>
       <use xlink:href="#DejaVuSans-30" transform="translate(127.246094 0)"/>
       <use xlink:href="#DejaVuSans-30" transform="translate(190.869141 0)"/>
      </g>
     </g>
    </g>
    <g id="xtick_4">
     <g id="line2d_4">
      <g>
       <use xlink:href="#mafd8193545" x="234.033212" y="257.158895" style="stroke: #000000; stroke-width: 0.8"/>
      </g>
     </g>
     <g id="text_4">
      <!-- 3000 -->
      <g transform="translate(221.308212 271.757332) scale(0.1 -0.1)">
       <defs>
        <path id="DejaVuSans-33" d="M 2597 2516 
Q 3050 2419 3304 2112 
Q 3559 1806 3559 1356 
Q 3559 666 3084 287 
Q 2609 -91 1734 -91 
Q 1441 -91 1130 -33 
Q 819 25 488 141 
L 488 750 
Q 750 597 1062 519 
Q 1375 441 1716 441 
Q 2309 441 2620 675 
Q 2931 909 2931 1356 
Q 2931 1769 2642 2001 
Q 2353 2234 1838 2234 
L 1294 2234 
L 1294 2753 
L 1863 2753 
Q 2328 2753 2575 2939 
Q 2822 3125 2822 3475 
Q 2822 3834 2567 4026 
Q 2313 4219 1838 4219 
Q 1578 4219 1281 4162 
Q 984 4106 628 3988 
L 628 4550 
Q 988 4650 1302 4700 
Q 1616 4750 1894 4750 
Q 2613 4750 3031 4423 
Q 3450 4097 3450 3541 
Q 3450 3153 3228 2886 
Q 3006 2619 2597 2516 
z
" transform="scale(0.015625)"/>
       </defs>
       <use xlink:href="#DejaVuSans-33"/>
       <use xlink:href="#DejaVuSans-30" transform="translate(63.623047 0)"/>
       <use xlink:href="#DejaVuSans-30" transform="translate(127.246094 0)"/>
       <use xlink:href="#DejaVuSans-30" transform="translate(190.869141 0)"/>
      </g>
     </g>
    </g>
    <g id="xtick_5">
     <g id="line2d_5">
      <g>
       <use xlink:href="#mafd8193545" x="288.809645" y="257.158895" style="stroke: #000000; stroke-width: 0.8"/>
      </g>
     </g>
     <g id="text_5">
      <!-- 4000 -->
      <g transform="translate(276.084645 271.757332) scale(0.1 -0.1)">
       <defs>
        <path id="DejaVuSans-34" d="M 2419 4116 
L 825 1625 
L 2419 1625 
L 2419 4116 
z
M 2253 4666 
L 3047 4666 
L 3047 1625 
L 3713 1625 
L 3713 1100 
L 3047 1100 
L 3047 0 
L 2419 0 
L 2419 1100 
L 313 1100 
L 313 1709 
L 2253 4666 
z
" transform="scale(0.015625)"/>
       </defs>
       <use xlink:href="#DejaVuSans-34"/>
       <use xlink:href="#DejaVuSans-30" transform="translate(63.623047 0)"/>
       <use xlink:href="#DejaVuSans-30" transform="translate(127.246094 0)"/>
       <use xlink:href="#DejaVuSans-30" transform="translate(190.869141 0)"/>
      </g>
     </g>
    </g>
    <g id="xtick_6">
     <g id="line2d_6">
      <g>
       <use xlink:href="#mafd8193545" x="343.586077" y="257.158895" style="stroke: #000000; stroke-width: 0.8"/>
      </g>
     </g>
     <g id="text_6">
      <!-- 5000 -->
      <g transform="translate(330.861077 271.757332) scale(0.1 -0.1)">
       <defs>
        <path id="DejaVuSans-35" d="M 691 4666 
L 3169 4666 
L 3169 4134 
L 1269 4134 
L 1269 2991 
Q 1406 3038 1543 3061 
Q 1681 3084 1819 3084 
Q 2600 3084 3056 2656 
Q 3513 2228 3513 1497 
Q 3513 744 3044 326 
Q 2575 -91 1722 -91 
Q 1428 -91 1123 -41 
Q 819 9 494 109 
L 494 744 
Q 775 591 1075 516 
Q 1375 441 1709 441 
Q 2250 441 2565 725 
Q 2881 1009 2881 1497 
Q 2881 1984 2565 2268 
Q 2250 2553 1709 2553 
Q 1456 2553 1204 2497 
Q 953 2441 691 2322 
L 691 4666 
z
" transform="scale(0.015625)"/>
       </defs>
       <use xlink:href="#DejaVuSans-35"/>
       <use xlink:href="#DejaVuSans-30" transform="translate(63.623047 0)"/>
       <use xlink:href="#DejaVuSans-30" transform="translate(127.246094 0)"/>
       <use xlink:href="#DejaVuSans-30" transform="translate(190.869141 0)"/>
      </g>
     </g>
    </g>
    <g id="xtick_7">
     <g id="line2d_7">
      <g>
       <use xlink:href="#mafd8193545" x="398.36251" y="257.158895" style="stroke: #000000; stroke-width: 0.8"/>
      </g>
     </g>
     <g id="text_7">
      <!-- 6000 -->
      <g transform="translate(385.63751 271.757332) scale(0.1 -0.1)">
       <defs>
        <path id="DejaVuSans-36" d="M 2113 2584 
Q 1688 2584 1439 2293 
Q 1191 2003 1191 1497 
Q 1191 994 1439 701 
Q 1688 409 2113 409 
Q 2538 409 2786 701 
Q 3034 994 3034 1497 
Q 3034 2003 2786 2293 
Q 2538 2584 2113 2584 
z
M 3366 4563 
L 3366 3988 
Q 3128 4100 2886 4159 
Q 2644 4219 2406 4219 
Q 1781 4219 1451 3797 
Q 1122 3375 1075 2522 
Q 1259 2794 1537 2939 
Q 1816 3084 2150 3084 
Q 2853 3084 3261 2657 
Q 3669 2231 3669 1497 
Q 3669 778 3244 343 
Q 2819 -91 2113 -91 
Q 1303 -91 875 529 
Q 447 1150 447 2328 
Q 447 3434 972 4092 
Q 1497 4750 2381 4750 
Q 2619 4750 2861 4703 
Q 3103 4656 3366 4563 
z
" transform="scale(0.015625)"/>
       </defs>
       <use xlink:href="#DejaVuSans-36"/>
       <use xlink:href="#DejaVuSans-30" transform="translate(63.623047 0)"/>
       <use xlink:href="#DejaVuSans-30" transform="translate(127.246094 0)"/>
       <use xlink:href="#DejaVuSans-30" transform="translate(190.869141 0)"/>
      </g>
     </g>
    </g>
    <g id="text_8">
     <!-- birth_time [µs] -->
     <g transform="translate(197.14363 285.435457) scale(0.1 -0.1)">
      <defs>
       <path id="DejaVuSans-62" d="M 3116 1747 
Q 3116 2381 2855 2742 
Q 2594 3103 2138 3103 
Q 1681 3103 1420 2742 
Q 1159 2381 1159 1747 
Q 1159 1113 1420 752 
Q 1681 391 2138 391 
Q 2594 391 2855 752 
Q 3116 1113 3116 1747 
z
M 1159 2969 
Q 1341 3281 1617 3432 
Q 1894 3584 2278 3584 
Q 2916 3584 3314 3078 
Q 3713 2572 3713 1747 
Q 3713 922 3314 415 
Q 2916 -91 2278 -91 
Q 1894 -91 1617 61 
Q 1341 213 1159 525 
L 1159 0 
L 581 0 
L 581 4863 
L 1159 4863 
L 1159 2969 
z
" transform="scale(0.015625)"/>
       <path id="DejaVuSans-69" d="M 603 3500 
L 1178 3500 
L 1178 0 
L 603 0 
L 603 3500 
z
M 603 4863 
L 1178 4863 
L 1178 4134 
L 603 4134 
L 603 4863 
z
" transform="scale(0.015625)"/>
       <path id="DejaVuSans-72" d="M 2631 2963 
Q 2534 3019 2420 3045 
Q 2306 3072 2169 3072 
Q 1681 3072 1420 2755 
Q 1159 2438 1159 1844 
L 1159 0 
L 581 0 
L 581 3500 
L 1159 3500 
L 1159 2956 
Q 1341 3275 1631 3429 
Q 1922 3584 2338 3584 
Q 2397 3584 2469 3576 
Q 2541 3569 2628 3553 
L 2631 2963 
z
" transform="scale(0.015625)"/>
       <path id="DejaVuSans-74" d="M 1172 4494 
L 1172 3500 
L 2356 3500 
L 2356 3053 
L 1172 3053 
L 1172 1153 
Q 1172 725 1289 603 
Q 1406 481 1766 481 
L 2356 481 
L 2356 0 
L 1766 0 
Q 1100 0 847 248 
Q 594 497 594 1153 
L 594 3053 
L 172 3053 
L 172 3500 
L 594 3500 
L 594 4494 
L 1172 4494 
z
" transform="scale(0.015625)"/>
       <path id="DejaVuSans-68" d="M 3513 2113 
L 3513 0 
L 2938 0 
L 2938 2094 
Q 2938 2591 2744 2837 
Q 2550 3084 2163 3084 
Q 1697 3084 1428 2787 
Q 1159 2491 1159 1978 
L 1159 0 
L 581 0 
L 581 4863 
L 1159 4863 
L 1159 2956 
Q 1366 3272 1645 3428 
Q 1925 3584 2291 3584 
Q 2894 3584 3203 3211 
Q 3513 2838 3513 2113 
z
" transform="scale(0.015625)"/>
       <path id="DejaVuSans-5f" d="M 3263 -1063 
L 3263 -1509 
L -63 -1509 
L -63 -1063 
L 3263 -1063 
z
" transform="scale(0.015625)"/>
       <path id="DejaVuSans-6d" d="M 3328 2828 
Q 3544 3216 3844 3400 
Q 4144 3584 4550 3584 
Q 5097 3584 5394 3201 
Q 5691 2819 5691 2113 
L 5691 0 
L 5113 0 
L 5113 2094 
Q 5113 2597 4934 2840 
Q 4756 3084 4391 3084 
Q 3944 3084 3684 2787 
Q 3425 2491 3425 1978 
L 3425 0 
L 2847 0 
L 2847 2094 
Q 2847 2600 2669 2842 
Q 2491 3084 2119 3084 
Q 1678 3084 1418 2786 
Q 1159 2488 1159 1978 
L 1159 0 
L 581 0 
L 581 3500 
L 1159 3500 
L 1159 2956 
Q 1356 3278 1631 3431 
Q 1906 3584 2284 3584 
Q 2666 3584 2933 3390 
Q 3200 3197 3328 2828 
z
" transform="scale(0.015625)"/>
       <path id="DejaVuSans-65" d="M 3597 1894 
L 3597 1613 
L 953 1613 
Q 991 1019 1311 708 
Q 1631 397 2203 397 
Q 2534 397 2845 478 
Q 3156 559 3463 722 
L 3463 178 
Q 3153 47 2828 -22 
Q 2503 -91 2169 -91 
Q 1331 -91 842 396 
Q 353 884 353 1716 
Q 353 2575 817 3079 
Q 1281 3584 2069 3584 
Q 2775 3584 3186 3129 
Q 3597 2675 3597 1894 
z
M 3022 2063 
Q 3016 2534 2758 2815 
Q 2500 3097 2075 3097 
Q 1594 3097 1305 2825 
Q 1016 2553 972 2059 
L 3022 2063 
z
" transform="scale(0.015625)"/>
       <path id="DejaVuSans-20" transform="scale(0.015625)"/>
       <path id="DejaVuSans-5b" d="M 550 4863 
L 1875 4863 
L 1875 4416 
L 1125 4416 
L 1125 -397 
L 1875 -397 
L 1875 -844 
L 550 -844 
L 550 4863 
z
" transform="scale(0.015625)"/>
       <path id="DejaVuSans-b5" d="M 544 -1331 
L 544 3500 
L 1119 3500 
L 1119 1325 
Q 1119 872 1334 640 
Q 1550 409 1972 409 
Q 2434 409 2667 671 
Q 2900 934 2900 1459 
L 2900 3500 
L 3475 3500 
L 3475 806 
Q 3475 619 3529 530 
Q 3584 441 3700 441 
Q 3728 441 3778 458 
Q 3828 475 3916 513 
L 3916 50 
Q 3788 -22 3673 -56 
Q 3559 -91 3450 -91 
Q 3234 -91 3106 31 
Q 2978 153 2931 403 
Q 2775 156 2548 32 
Q 2322 -91 2016 -91 
Q 1697 -91 1473 31 
Q 1250 153 1119 397 
L 1119 -1331 
L 544 -1331 
z
" transform="scale(0.015625)"/>
       <path id="DejaVuSans-73" d="M 2834 3397 
L 2834 2853 
Q 2591 2978 2328 3040 
Q 2066 3103 1784 3103 
Q 1356 3103 1142 2972 
Q 928 2841 928 2578 
Q 928 2378 1081 2264 
Q 1234 2150 1697 2047 
L 1894 2003 
Q 2506 1872 2764 1633 
Q 3022 1394 3022 966 
Q 3022 478 2636 193 
Q 2250 -91 1575 -91 
Q 1294 -91 989 -36 
Q 684 19 347 128 
L 347 722 
Q 666 556 975 473 
Q 1284 391 1588 391 
Q 1994 391 2212 530 
Q 2431 669 2431 922 
Q 2431 1156 2273 1281 
Q 2116 1406 1581 1522 
L 1381 1569 
Q 847 1681 609 1914 
Q 372 2147 372 2553 
Q 372 3047 722 3315 
Q 1072 3584 1716 3584 
Q 2034 3584 2315 3537 
Q 2597 3491 2834 3397 
z
" transform="scale(0.015625)"/>
       <path id="DejaVuSans-5d" d="M 1947 4863 
L 1947 -844 
L 622 -844 
L 622 -397 
L 1369 -397 
L 1369 4416 
L 622 4416 
L 622 4863 
L 1947 4863 
z
" transform="scale(0.015625)"/>
      </defs>
      <use xlink:href="#DejaVuSans-62"/>
      <use xlink:href="#DejaVuSans-69" transform="translate(63.476562 0)"/>
      <use xlink:href="#DejaVuSans-72" transform="translate(91.259766 0)"/>
      <use xlink:href="#DejaVuSans-74" transform="translate(132.373047 0)"/>
      <use xlink:href="#DejaVuSans-68" transform="translate(171.582031 0)"/>
      <use xlink:href="#DejaVuSans-5f" transform="translate(234.960938 0)"/>
      <use xlink:href="#DejaVuSans-74" transform="translate(284.960938 0)"/>
      <use xlink:href="#DejaVuSans-69" transform="translate(324.169922 0)"/>
      <use xlink:href="#DejaVuSans-6d" transform="translate(351.953125 0)"/>
      <use xlink:href="#DejaVuSans-65" transform="translate(449.365234 0)"/>
      <use xlink:href="#DejaVuSans-20" transform="translate(510.888672 0)"/>
      <use xlink:href="#DejaVuSans-5b" transform="translate(542.675781 0)"/>
      <use xlink:href="#DejaVuSans-b5" transform="translate(581.689453 0)"/>
      <use xlink:href="#DejaVuSans-73" transform="translate(645.3125 0)"/>
      <use xlink:href="#DejaVuSans-5d" transform="translate(697.412109 0)"/>
     </g>
    </g>
   </g>
   <g id="matplotlib.axis_2">
    <g id="ytick_1">
     <g id="line2d_8">
      <defs>
       <path id="m5f654ee6fd" d="M 0 0 
L -3.5 0 
" style="stroke: #000000; stroke-width: 0.8"/>
      </defs>
      <g>
       <use xlink:href="#m5f654ee6fd" x="53.328125" y="246.291924" style="stroke: #000000; stroke-width: 0.8"/>
      </g>
     </g>
     <g id="text_9">
      <!-- 0 -->
      <g transform="translate(39.965625 250.091142) scale(0.1 -0.1)">
       <use xlink:href="#DejaVuSans-30"/>
      </g>
     </g>
    </g>
    <g id="ytick_2">
     <g id="line2d_9">
      <g>
       <use xlink:href="#m5f654ee6fd" x="53.328125" y="215.367133" style="stroke: #000000; stroke-width: 0.8"/>
      </g>
     </g>
     <g id="text_10">
      <!-- 250 -->
      <g transform="translate(27.240625 219.166352) scale(0.1 -0.1)">
       <use xlink:href="#DejaVuSans-32"/>
       <use xlink:href="#DejaVuSans-35" transform="translate(63.623047 0)"/>
       <use xlink:href="#DejaVuSans-30" transform="translate(127.246094 0)"/>
      </g>
     </g>
    </g>
    <g id="ytick_3">
     <g id="line2d_10">
      <g>
       <use xlink:href="#m5f654ee6fd" x="53.328125" y="184.442343" style="stroke: #000000; stroke-width: 0.8"/>
      </g>
     </g>
     <g id="text_11">
      <!-- 500 -->
      <g transform="translate(27.240625 188.241562) scale(0.1 -0.1)">
       <use xlink:href="#DejaVuSans-35"/>
       <use xlink:href="#DejaVuSans-30" transform="translate(63.623047 0)"/>
       <use xlink:href="#DejaVuSans-30" transform="translate(127.246094 0)"/>
      </g>
     </g>
    </g>
    <g id="ytick_4">
     <g id="line2d_11">
      <g>
       <use xlink:href="#m5f654ee6fd" x="53.328125" y="153.517553" style="stroke: #000000; stroke-width: 0.8"/>
      </g>
     </g>
     <g id="text_12">
      <!-- 750 -->
      <g transform="translate(27.240625 157.316772) scale(0.1 -0.1)">
       <defs>
        <path id="DejaVuSans-37" d="M 525 4666 
L 3525 4666 
L 3525 4397 
L 1831 0 
L 1172 0 
L 2766 4134 
L 525 4134 
L 525 4666 
z
" transform="scale(0.015625)"/>
       </defs>
       <use xlink:href="#DejaVuSans-37"/>
       <use xlink:href="#DejaVuSans-35" transform="translate(63.623047 0)"/>
       <use xlink:href="#DejaVuSans-30" transform="translate(127.246094 0)"/>
      </g>
     </g>
    </g>
    <g id="ytick_5">
     <g id="line2d_12">
      <g>
       <use xlink:href="#m5f654ee6fd" x="53.328125" y="122.592763" style="stroke: #000000; stroke-width: 0.8"/>
      </g>
     </g>
     <g id="text_13">
      <!-- 1000 -->
      <g transform="translate(20.878125 126.391981) scale(0.1 -0.1)">
       <use xlink:href="#DejaVuSans-31"/>
       <use xlink:href="#DejaVuSans-30" transform="translate(63.623047 0)"/>
       <use xlink:href="#DejaVuSans-30" transform="translate(127.246094 0)"/>
       <use xlink:href="#DejaVuSans-30" transform="translate(190.869141 0)"/>
      </g>
     </g>
    </g>
    <g id="ytick_6">
     <g id="line2d_13">
      <g>
       <use xlink:href="#m5f654ee6fd" x="53.328125" y="91.667972" style="stroke: #000000; stroke-width: 0.8"/>
      </g>
     </g>
     <g id="text_14">
      <!-- 1250 -->
      <g transform="translate(20.878125 95.467191) scale(0.1 -0.1)">
       <use xlink:href="#DejaVuSans-31"/>
       <use xlink:href="#DejaVuSans-32" transform="translate(63.623047 0)"/>
       <use xlink:href="#DejaVuSans-35" transform="translate(127.246094 0)"/>
       <use xlink:href="#DejaVuSans-30" transform="translate(190.869141 0)"/>
      </g>
     </g>
    </g>
    <g id="ytick_7">
     <g id="line2d_14">
      <g>
       <use xlink:href="#m5f654ee6fd" x="53.328125" y="60.743182" style="stroke: #000000; stroke-width: 0.8"/>
      </g>
     </g>
     <g id="text_15">
      <!-- 1500 -->
      <g transform="translate(20.878125 64.542401) scale(0.1 -0.1)">
       <use xlink:href="#DejaVuSans-31"/>
       <use xlink:href="#DejaVuSans-35" transform="translate(63.623047 0)"/>
       <use xlink:href="#DejaVuSans-30" transform="translate(127.246094 0)"/>
       <use xlink:href="#DejaVuSans-30" transform="translate(190.869141 0)"/>
      </g>
     </g>
    </g>
    <g id="ytick_8">
     <g id="line2d_15">
      <g>
       <use xlink:href="#m5f654ee6fd" x="53.328125" y="29.818392" style="stroke: #000000; stroke-width: 0.8"/>
      </g>
     </g>
     <g id="text_16">
      <!-- 1750 -->
      <g transform="translate(20.878125 33.61761) scale(0.1 -0.1)">
       <use xlink:href="#DejaVuSans-31"/>
       <use xlink:href="#DejaVuSans-37" transform="translate(63.623047 0)"/>
       <use xlink:href="#DejaVuSans-35" transform="translate(127.246094 0)"/>
       <use xlink:href="#DejaVuSans-30" transform="translate(190.869141 0)"/>
      </g>
     </g>
    </g>
    <g id="text_17">
     <!-- pulse:0 [counts] -->
     <g transform="translate(14.798438 172.659916) rotate(-90) scale(0.1 -0.1)">
      <defs>
       <path id="DejaVuSans-70" d="M 1159 525 
L 1159 -1331 
L 581 -1331 
L 581 3500 
L 1159 3500 
L 1159 2969 
Q 1341 3281 1617 3432 
Q 1894 3584 2278 3584 
Q 2916 3584 3314 3078 
Q 3713 2572 3713 1747 
Q 3713 922 3314 415 
Q 2916 -91 2278 -91 
Q 1894 -91 1617 61 
Q 1341 213 1159 525 
z
M 3116 1747 
Q 3116 2381 2855 2742 
Q 2594 3103 2138 3103 
Q 1681 3103 1420 2742 
Q 1159 2381 1159 1747 
Q 1159 1113 1420 752 
Q 1681 391 2138 391 
Q 2594 391 2855 752 
Q 3116 1113 3116 1747 
z
" transform="scale(0.015625)"/>
       <path id="DejaVuSans-75" d="M 544 1381 
L 544 3500 
L 1119 3500 
L 1119 1403 
Q 1119 906 1312 657 
Q 1506 409 1894 409 
Q 2359 409 2629 706 
Q 2900 1003 2900 1516 
L 2900 3500 
L 3475 3500 
L 3475 0 
L 2900 0 
L 2900 538 
Q 2691 219 2414 64 
Q 2138 -91 1772 -91 
Q 1169 -91 856 284 
Q 544 659 544 1381 
z
M 1991 3584 
L 1991 3584 
z
" transform="scale(0.015625)"/>
       <path id="DejaVuSans-6c" d="M 603 4863 
L 1178 4863 
L 1178 0 
L 603 0 
L 603 4863 
z
" transform="scale(0.015625)"/>
       <path id="DejaVuSans-3a" d="M 750 794 
L 1409 794 
L 1409 0 
L 750 0 
L 750 794 
z
M 750 3309 
L 1409 3309 
L 1409 2516 
L 750 2516 
L 750 3309 
z
" transform="scale(0.015625)"/>
       <path id="DejaVuSans-63" d="M 3122 3366 
L 3122 2828 
Q 2878 2963 2633 3030 
Q 2388 3097 2138 3097 
Q 1578 3097 1268 2742 
Q 959 2388 959 1747 
Q 959 1106 1268 751 
Q 1578 397 2138 397 
Q 2388 397 2633 464 
Q 2878 531 3122 666 
L 3122 134 
Q 2881 22 2623 -34 
Q 2366 -91 2075 -91 
Q 1284 -91 818 406 
Q 353 903 353 1747 
Q 353 2603 823 3093 
Q 1294 3584 2113 3584 
Q 2378 3584 2631 3529 
Q 2884 3475 3122 3366 
z
" transform="scale(0.015625)"/>
       <path id="DejaVuSans-6f" d="M 1959 3097 
Q 1497 3097 1228 2736 
Q 959 2375 959 1747 
Q 959 1119 1226 758 
Q 1494 397 1959 397 
Q 2419 397 2687 759 
Q 2956 1122 2956 1747 
Q 2956 2369 2687 2733 
Q 2419 3097 1959 3097 
z
M 1959 3584 
Q 2709 3584 3137 3096 
Q 3566 2609 3566 1747 
Q 3566 888 3137 398 
Q 2709 -91 1959 -91 
Q 1206 -91 779 398 
Q 353 888 353 1747 
Q 353 2609 779 3096 
Q 1206 3584 1959 3584 
z
" transform="scale(0.015625)"/>
       <path id="DejaVuSans-6e" d="M 3513 2113 
L 3513 0 
L 2938 0 
L 2938 2094 
Q 2938 2591 2744 2837 
Q 2550 3084 2163 3084 
Q 1697 3084 1428 2787 
Q 1159 2491 1159 1978 
L 1159 0 
L 581 0 
L 581 3500 
L 1159 3500 
L 1159 2956 
Q 1366 3272 1645 3428 
Q 1925 3584 2291 3584 
Q 2894 3584 3203 3211 
Q 3513 2838 3513 2113 
z
" transform="scale(0.015625)"/>
      </defs>
      <use xlink:href="#DejaVuSans-70"/>
      <use xlink:href="#DejaVuSans-75" transform="translate(63.476562 0)"/>
      <use xlink:href="#DejaVuSans-6c" transform="translate(126.855469 0)"/>
      <use xlink:href="#DejaVuSans-73" transform="translate(154.638672 0)"/>
      <use xlink:href="#DejaVuSans-65" transform="translate(206.738281 0)"/>
      <use xlink:href="#DejaVuSans-3a" transform="translate(268.261719 0)"/>
      <use xlink:href="#DejaVuSans-30" transform="translate(301.953125 0)"/>
      <use xlink:href="#DejaVuSans-20" transform="translate(365.576172 0)"/>
      <use xlink:href="#DejaVuSans-5b" transform="translate(397.363281 0)"/>
      <use xlink:href="#DejaVuSans-63" transform="translate(436.376953 0)"/>
      <use xlink:href="#DejaVuSans-6f" transform="translate(491.357422 0)"/>
      <use xlink:href="#DejaVuSans-75" transform="translate(552.539062 0)"/>
      <use xlink:href="#DejaVuSans-6e" transform="translate(615.917969 0)"/>
      <use xlink:href="#DejaVuSans-74" transform="translate(679.296875 0)"/>
      <use xlink:href="#DejaVuSans-73" transform="translate(718.505859 0)"/>
      <use xlink:href="#DejaVuSans-5d" transform="translate(770.605469 0)"/>
     </g>
    </g>
   </g>
   <g id="line2d_16">
    <path d="M 69.749563 245.797127 
L 71.939088 245.797127 
L 71.939088 245.054932 
L 74.128613 245.054932 
L 74.128613 245.30233 
L 75.223376 245.30233 
L 75.223376 245.42603 
L 76.318138 245.42603 
L 76.318138 244.807534 
L 77.412901 244.807534 
L 77.412901 244.436436 
L 78.507663 244.436436 
L 78.507663 244.065339 
L 79.602426 244.065339 
L 79.602426 245.054932 
L 80.697188 245.054932 
L 80.697188 244.807534 
L 81.791951 244.807534 
L 81.791951 244.065339 
L 82.886713 244.065339 
L 82.886713 244.807534 
L 83.981476 244.807534 
L 83.981476 244.436436 
L 85.076238 244.436436 
L 85.076238 244.560135 
L 86.171001 244.560135 
L 86.171001 243.323144 
L 87.265763 243.323144 
L 87.265763 244.189038 
L 88.360526 244.189038 
L 88.360526 243.81794 
L 89.455288 243.81794 
L 89.455288 242.45725 
L 90.550051 242.45725 
L 90.550051 242.086152 
L 91.644814 242.086152 
L 91.644814 242.828347 
L 92.739576 242.828347 
L 92.739576 242.580949 
L 93.834339 242.580949 
L 93.834339 242.828347 
L 94.929101 242.828347 
L 94.929101 240.97286 
L 96.023864 240.97286 
L 96.023864 242.086152 
L 97.118626 242.086152 
L 97.118626 241.467656 
L 98.213389 241.467656 
L 98.213389 242.086152 
L 99.308151 242.086152 
L 99.308151 240.354364 
L 100.402914 240.354364 
L 100.402914 242.704648 
L 101.497676 242.704648 
L 101.497676 241.096559 
L 102.592439 241.096559 
L 102.592439 240.725461 
L 103.687201 240.725461 
L 103.687201 240.354364 
L 104.781964 240.354364 
L 104.781964 238.375177 
L 105.876726 238.375177 
L 105.876726 240.849161 
L 106.971489 240.849161 
L 106.971489 239.735868 
L 108.066252 239.735868 
L 108.066252 239.364771 
L 109.161014 239.364771 
L 109.161014 236.767088 
L 110.255777 236.767088 
L 110.255777 238.993673 
L 111.350539 238.993673 
L 111.350539 235.901194 
L 112.445302 235.901194 
L 112.445302 236.643389 
L 113.540064 236.643389 
L 113.540064 235.530097 
L 114.634827 235.530097 
L 114.634827 232.437618 
L 115.729589 232.437618 
L 115.729589 235.406398 
L 116.824352 235.406398 
L 116.824352 234.045707 
L 117.919114 234.045707 
L 117.919114 233.674609 
L 119.013877 233.674609 
L 119.013877 231.076927 
L 120.108639 231.076927 
L 120.108639 231.448024 
L 121.203402 231.448024 
L 121.203402 230.334732 
L 122.298164 230.334732 
L 122.298164 229.839935 
L 123.392927 229.839935 
L 123.392927 226.005261 
L 124.487689 226.005261 
L 124.487689 230.211033 
L 125.582452 230.211033 
L 125.582452 225.015668 
L 126.677215 225.015668 
L 126.677215 223.654977 
L 127.771977 223.654977 
L 127.771977 226.994855 
L 128.86674 226.994855 
L 128.86674 225.386765 
L 129.961502 225.386765 
L 129.961502 223.28388 
L 131.056265 223.28388 
L 131.056265 220.3151 
L 132.151027 220.3151 
L 132.151027 221.304693 
L 133.24579 221.304693 
L 133.24579 220.809896 
L 134.340552 220.809896 
L 134.340552 214.748638 
L 135.435315 214.748638 
L 135.435315 218.212214 
L 136.530077 218.212214 
L 136.530077 215.738231 
L 137.62484 215.738231 
L 137.62484 215.614532 
L 138.719602 215.614532 
L 138.719602 214.748638 
L 139.814365 214.748638 
L 139.814365 212.274654 
L 140.909127 212.274654 
L 140.909127 209.92437 
L 142.00389 209.92437 
L 142.00389 209.182175 
L 143.098652 209.182175 
L 143.098652 208.811078 
L 144.193415 208.811078 
L 144.193415 204.976404 
L 145.288178 204.976404 
L 145.288178 202.873518 
L 146.38294 202.873518 
L 146.38294 197.801853 
L 147.477703 197.801853 
L 147.477703 198.667747 
L 148.572465 198.667747 
L 148.572465 198.296649 
L 149.667228 198.296649 
L 149.667228 196.812259 
L 150.76199 196.812259 
L 150.76199 194.214577 
L 151.856753 194.214577 
L 151.856753 197.430755 
L 152.951515 197.430755 
L 152.951515 192.359089 
L 154.046278 192.359089 
L 154.046278 187.90592 
L 155.14104 187.90592 
L 155.14104 186.545229 
L 156.235803 186.545229 
L 156.235803 183.081652 
L 157.330565 183.081652 
L 157.330565 184.071246 
L 158.425328 184.071246 
L 158.425328 177.762588 
L 159.52009 177.762588 
L 159.52009 180.731368 
L 160.614853 180.731368 
L 160.614853 174.793809 
L 161.709615 174.793809 
L 161.709615 167.866656 
L 162.804378 167.866656 
L 162.804378 173.804215 
L 163.899141 173.804215 
L 163.899141 163.166087 
L 164.993903 163.166087 
L 164.993903 163.660884 
L 166.088666 163.660884 
L 166.088666 162.79499 
L 167.183428 162.79499 
L 167.183428 157.599625 
L 168.278191 157.599625 
L 168.278191 157.104828 
L 169.372953 157.104828 
L 169.372953 153.764951 
L 170.467716 153.764951 
L 170.467716 149.682879 
L 171.562478 149.682879 
L 171.562478 147.951091 
L 172.657241 147.951091 
L 172.657241 141.147637 
L 173.752003 141.147637 
L 173.752003 133.35459 
L 174.846766 133.35459 
L 174.846766 141.023938 
L 175.941528 141.023938 
L 175.941528 133.725687 
L 177.036291 133.725687 
L 177.036291 129.891013 
L 178.131053 129.891013 
L 178.131053 125.561542 
L 179.225816 125.561542 
L 179.225816 136.694467 
L 180.320579 136.694467 
L 180.320579 124.077152 
L 181.415341 124.077152 
L 181.415341 121.603169 
L 182.510104 121.603169 
L 182.510104 121.47947 
L 183.604866 121.47947 
L 183.604866 120.118779 
L 184.699629 120.118779 
L 184.699629 112.944228 
L 185.794391 112.944228 
L 185.794391 111.336139 
L 186.889154 111.336139 
L 186.889154 105.27488 
L 187.983916 105.27488 
L 187.983916 103.419393 
L 189.078679 103.419393 
L 189.078679 105.398579 
L 190.173441 105.398579 
L 190.173441 89.565086 
L 191.268204 89.565086 
L 191.268204 93.276061 
L 192.362966 93.276061 
L 192.362966 89.317688 
L 193.457729 89.317688 
L 193.457729 83.009031 
L 194.552491 83.009031 
L 194.552491 88.328095 
L 195.647254 88.328095 
L 195.647254 73.855293 
L 196.742016 73.855293 
L 196.742016 79.916552 
L 197.836779 79.916552 
L 197.836779 80.658747 
L 198.931542 80.658747 
L 198.931542 61.980174 
L 200.026304 61.980174 
L 200.026304 79.298056 
L 201.121067 79.298056 
L 201.121067 69.402123 
L 202.215829 69.402123 
L 202.215829 75.092285 
L 203.310592 75.092285 
L 203.310592 70.762814 
L 204.405354 70.762814 
L 204.405354 63.217165 
L 205.500117 63.217165 
L 205.500117 60.743182 
L 206.594879 60.743182 
L 206.594879 63.093466 
L 207.689642 63.093466 
L 207.689642 56.53741 
L 208.784404 56.53741 
L 208.784404 52.702736 
L 209.879167 52.702736 
L 209.879167 55.053021 
L 210.973929 55.053021 
L 210.973929 45.280787 
L 212.068692 45.280787 
L 212.068692 40.951316 
L 213.163454 40.951316 
L 213.163454 50.352452 
L 214.258217 50.352452 
L 214.258217 48.620664 
L 215.352979 48.620664 
L 215.352979 48.002168 
L 216.447742 48.002168 
L 216.447742 43.920096 
L 217.542505 43.920096 
L 217.542505 45.775583 
L 218.637267 45.775583 
L 218.637267 31.302782 
L 219.73203 31.302782 
L 219.73203 37.735138 
L 220.826792 37.735138 
L 220.826792 35.137456 
L 221.921555 35.137456 
L 221.921555 32.663472 
L 223.016317 32.663472 
L 223.016317 28.086603 
L 224.11108 28.086603 
L 224.11108 26.973311 
L 225.205842 26.973311 
L 225.205842 30.189489 
L 226.300605 30.189489 
L 226.300605 26.478514 
L 227.395367 26.478514 
L 227.395367 29.199896 
L 228.49013 29.199896 
L 228.49013 36.374447 
L 229.584892 36.374447 
L 229.584892 31.797578 
L 230.679655 31.797578 
L 230.679655 25.488921 
L 231.774417 25.488921 
L 231.774417 38.106235 
L 232.86918 38.106235 
L 232.86918 19.79876 
L 233.963942 19.79876 
L 233.963942 18.561768 
L 235.058705 18.561768 
L 235.058705 22.149044 
L 236.153468 22.149044 
L 236.153468 29.323595 
L 237.24823 29.323595 
L 237.24823 19.056565 
L 238.342993 19.056565 
L 238.342993 27.09701 
L 239.437755 27.09701 
L 239.437755 28.952497 
L 240.532518 28.952497 
L 240.532518 45.157088 
L 241.62728 45.157088 
L 241.62728 31.055383 
L 242.722043 31.055383 
L 242.722043 20.912052 
L 243.816805 20.912052 
L 243.816805 32.787171 
L 244.911568 32.787171 
L 244.911568 31.055383 
L 246.00633 31.055383 
L 246.00633 45.775583 
L 247.101093 45.775583 
L 247.101093 29.942091 
L 248.195855 29.942091 
L 248.195855 35.755951 
L 249.290618 35.755951 
L 249.290618 38.353634 
L 250.38538 38.353634 
L 250.38538 35.879651 
L 251.480143 35.879651 
L 251.480143 33.653066 
L 252.574906 33.653066 
L 252.574906 33.03457 
L 253.669668 33.03457 
L 253.669668 39.961723 
L 254.764431 39.961723 
L 254.764431 51.836842 
L 255.859193 51.836842 
L 255.859193 43.796397 
L 256.953956 43.796397 
L 256.953956 45.651884 
L 258.048718 45.651884 
L 258.048718 40.951316 
L 259.143481 40.951316 
L 259.143481 48.002168 
L 260.238243 48.002168 
L 260.238243 50.72355 
L 261.333006 50.72355 
L 261.333006 53.321232 
L 262.427768 53.321232 
L 262.427768 59.50619 
L 263.522531 59.50619 
L 263.522531 57.898101 
L 264.617293 57.898101 
L 264.617293 68.165132 
L 265.712056 68.165132 
L 265.712056 69.402123 
L 266.806818 69.402123 
L 266.806818 75.587081 
L 267.901581 75.587081 
L 267.901581 62.351271 
L 268.996343 62.351271 
L 268.996343 72.618301 
L 270.091106 72.618301 
L 270.091106 74.597488 
L 271.185869 74.597488 
L 271.185869 81.277243 
L 272.280631 81.277243 
L 272.280631 86.10151 
L 273.375394 86.10151 
L 273.375394 83.13273 
L 274.470156 83.13273 
L 274.470156 86.720006 
L 275.564919 86.720006 
L 275.564919 99.832117 
L 276.659681 99.832117 
L 276.659681 94.265655 
L 277.754444 94.265655 
L 277.754444 94.88415 
L 278.849206 94.88415 
L 278.849206 101.069108 
L 279.943969 101.069108 
L 279.943969 98.100329 
L 281.038731 98.100329 
L 281.038731 107.748863 
L 282.133494 107.748863 
L 282.133494 108.738456 
L 283.228256 108.738456 
L 283.228256 112.325732 
L 284.323019 112.325732 
L 284.323019 118.881788 
L 285.417781 118.881788 
L 285.417781 123.582356 
L 286.512544 123.582356 
L 286.512544 121.974267 
L 287.607306 121.974267 
L 287.607306 131.128005 
L 288.702069 131.128005 
L 288.702069 132.241297 
L 289.796832 132.241297 
L 289.796832 127.911826 
L 290.891594 127.911826 
L 290.891594 130.880606 
L 291.986357 130.880606 
L 291.986357 136.941865 
L 293.081119 136.941865 
L 293.081119 147.208896 
L 294.175882 147.208896 
L 294.175882 137.436662 
L 295.270644 137.436662 
L 295.270644 151.04357 
L 296.365407 151.04357 
L 296.365407 150.425074 
L 297.460169 150.425074 
L 297.460169 149.55918 
L 298.554932 149.55918 
L 298.554932 152.156862 
L 299.649694 152.156862 
L 299.649694 153.146455 
L 300.744457 153.146455 
L 300.744457 158.34182 
L 301.839219 158.34182 
L 301.839219 155.744138 
L 302.933982 155.744138 
L 302.933982 166.753363 
L 304.028744 166.753363 
L 304.028744 162.671291 
L 305.123507 162.671291 
L 305.123507 173.185719 
L 306.218269 173.185719 
L 306.218269 170.340639 
L 307.313032 170.340639 
L 307.313032 174.793809 
L 308.407795 174.793809 
L 308.407795 178.504783 
L 309.502557 178.504783 
L 309.502557 178.752182 
L 310.59732 178.752182 
L 310.59732 179.494377 
L 311.692082 179.494377 
L 311.692082 188.277017 
L 312.786845 188.277017 
L 312.786845 186.916326 
L 313.881607 186.916326 
L 313.881607 185.308237 
L 314.97637 185.308237 
L 314.97637 190.751 
L 316.071132 190.751 
L 316.071132 193.348683 
L 317.165895 193.348683 
L 317.165895 195.698967 
L 318.260657 195.698967 
L 318.260657 193.101284 
L 319.35542 193.101284 
L 319.35542 195.451568 
L 320.450182 195.451568 
L 320.450182 203.863111 
L 321.544945 203.863111 
L 321.544945 201.512827 
L 322.639707 201.512827 
L 322.639707 200.523234 
L 323.73447 200.523234 
L 323.73447 202.131323 
L 324.829233 202.131323 
L 324.829233 205.471201 
L 325.923995 205.471201 
L 325.923995 206.708192 
L 327.018758 206.708192 
L 327.018758 210.295468 
L 328.11352 210.295468 
L 328.11352 211.037663 
L 329.208283 211.037663 
L 329.208283 215.243434 
L 330.303045 215.243434 
L 330.303045 215.86193 
L 331.397808 215.86193 
L 331.397808 219.449206 
L 332.49257 219.449206 
L 332.49257 217.098922 
L 333.587333 217.098922 
L 333.587333 220.3151 
L 334.682095 220.3151 
L 334.682095 221.428392 
L 335.776858 221.428392 
L 335.776858 221.304693 
L 336.87162 221.304693 
L 336.87162 221.180994 
L 337.966383 221.180994 
L 337.966383 222.665384 
L 339.061145 222.665384 
L 339.061145 227.242253 
L 340.155908 227.242253 
L 340.155908 225.757863 
L 341.25067 225.757863 
L 341.25067 226.871155 
L 342.345433 226.871155 
L 342.345433 226.500058 
L 343.440196 226.500058 
L 343.440196 226.623757 
L 345.629721 226.623757 
L 345.629721 229.221439 
L 346.724483 229.221439 
L 346.724483 228.974041 
L 347.819246 228.974041 
L 347.819246 228.850342 
L 348.914008 228.850342 
L 348.914008 231.571724 
L 350.008771 231.571724 
L 350.008771 232.190219 
L 351.103533 232.190219 
L 351.103533 234.540503 
L 352.198296 234.540503 
L 352.198296 235.282698 
L 353.293058 235.282698 
L 353.293058 235.406398 
L 354.387821 235.406398 
L 354.387821 235.0353 
L 355.482583 235.0353 
L 355.482583 236.272292 
L 356.577346 236.272292 
L 356.577346 238.251478 
L 357.672108 238.251478 
L 357.672108 237.632982 
L 358.766871 237.632982 
L 358.766871 238.251478 
L 359.861633 238.251478 
L 359.861633 238.498877 
L 360.956396 238.498877 
L 360.956396 238.746275 
L 362.051159 238.746275 
L 362.051159 238.498877 
L 363.145921 238.498877 
L 363.145921 238.00408 
L 364.240684 238.00408 
L 364.240684 240.725461 
L 365.335446 240.725461 
L 365.335446 239.612169 
L 366.430209 239.612169 
L 366.430209 240.106966 
L 367.524971 240.106966 
L 367.524971 240.725461 
L 368.619734 240.725461 
L 368.619734 241.096559 
L 369.714496 241.096559 
L 369.714496 241.715055 
L 370.809259 241.715055 
L 370.809259 242.45725 
L 372.998784 242.45725 
L 372.998784 242.086152 
L 374.093546 242.086152 
L 374.093546 241.838754 
L 375.188309 241.838754 
L 375.188309 243.323144 
L 379.567359 243.323144 
L 379.567359 243.694241 
L 380.662122 243.694241 
L 380.662122 243.075745 
L 381.756884 243.075745 
L 381.756884 244.683835 
L 382.851647 244.683835 
L 382.851647 243.94164 
L 383.946409 243.94164 
L 383.946409 243.81794 
L 385.041172 243.81794 
L 385.041172 244.931233 
L 386.135934 244.931233 
L 386.135934 244.560135 
L 387.230697 244.560135 
L 387.230697 245.178631 
L 388.325459 245.178631 
L 388.325459 243.694241 
L 389.420222 243.694241 
L 389.420222 244.807534 
L 390.514984 244.807534 
L 390.514984 245.30233 
L 391.609747 245.30233 
L 391.609747 244.683835 
L 392.704509 244.683835 
L 392.704509 245.054932 
L 393.799272 245.054932 
L 393.799272 245.178631 
L 394.894034 245.178631 
L 394.894034 245.42603 
L 395.988797 245.42603 
L 395.988797 245.549729 
L 397.08356 245.549729 
L 397.08356 245.178631 
L 398.178322 245.178631 
L 398.178322 245.178631 
" clip-path="url(#p1da28a9ac7)" style="fill: none; stroke: #1f77b4; stroke-width: 1.5; stroke-linecap: square"/>
   </g>
   <g id="patch_3">
    <path d="M 53.328125 257.158895 
L 53.328125 7.2 
" style="fill: none; stroke: #000000; stroke-width: 0.8; stroke-linejoin: miter; stroke-linecap: square"/>
   </g>
   <g id="patch_4">
    <path d="M 414.59976 257.158895 
L 414.59976 7.2 
" style="fill: none; stroke: #000000; stroke-width: 0.8; stroke-linejoin: miter; stroke-linecap: square"/>
   </g>
   <g id="patch_5">
    <path d="M 53.328125 257.158895 
L 414.59976 257.158895 
" style="fill: none; stroke: #000000; stroke-width: 0.8; stroke-linejoin: miter; stroke-linecap: square"/>
   </g>
   <g id="patch_6">
    <path d="M 53.328125 7.2 
L 414.59976 7.2 
" style="fill: none; stroke: #000000; stroke-width: 0.8; stroke-linejoin: miter; stroke-linecap: square"/>
   </g>
  </g>
  <g id="axes_2">
   <g id="patch_7">
    <path d="M 503.927885 257.158895 
L 865.19952 257.158895 
L 865.19952 7.2 
L 503.927885 7.2 
z
" style="fill: #ffffff"/>
   </g>
   <g id="matplotlib.axis_3">
    <g id="xtick_8">
     <g id="line2d_17">
      <g>
       <use xlink:href="#mafd8193545" x="512.878759" y="257.158895" style="stroke: #000000; stroke-width: 0.8"/>
      </g>
     </g>
     <g id="text_18">
      <!-- 0 -->
      <g transform="translate(509.697509 271.757332) scale(0.1 -0.1)">
       <use xlink:href="#DejaVuSans-30"/>
      </g>
     </g>
    </g>
    <g id="xtick_9">
     <g id="line2d_18">
      <g>
       <use xlink:href="#mafd8193545" x="587.525964" y="257.158895" style="stroke: #000000; stroke-width: 0.8"/>
      </g>
     </g>
     <g id="text_19">
      <!-- 2 -->
      <g transform="translate(584.344714 271.757332) scale(0.1 -0.1)">
       <use xlink:href="#DejaVuSans-32"/>
      </g>
     </g>
    </g>
    <g id="xtick_10">
     <g id="line2d_19">
      <g>
       <use xlink:href="#mafd8193545" x="662.173169" y="257.158895" style="stroke: #000000; stroke-width: 0.8"/>
      </g>
     </g>
     <g id="text_20">
      <!-- 4 -->
      <g transform="translate(658.991919 271.757332) scale(0.1 -0.1)">
       <use xlink:href="#DejaVuSans-34"/>
      </g>
     </g>
    </g>
    <g id="xtick_11">
     <g id="line2d_20">
      <g>
       <use xlink:href="#mafd8193545" x="736.820373" y="257.158895" style="stroke: #000000; stroke-width: 0.8"/>
      </g>
     </g>
     <g id="text_21">
      <!-- 6 -->
      <g transform="translate(733.639123 271.757332) scale(0.1 -0.1)">
       <use xlink:href="#DejaVuSans-36"/>
      </g>
     </g>
    </g>
    <g id="xtick_12">
     <g id="line2d_21">
      <g>
       <use xlink:href="#mafd8193545" x="811.467578" y="257.158895" style="stroke: #000000; stroke-width: 0.8"/>
      </g>
     </g>
     <g id="text_22">
      <!-- 8 -->
      <g transform="translate(808.286328 271.757332) scale(0.1 -0.1)">
       <defs>
        <path id="DejaVuSans-38" d="M 2034 2216 
Q 1584 2216 1326 1975 
Q 1069 1734 1069 1313 
Q 1069 891 1326 650 
Q 1584 409 2034 409 
Q 2484 409 2743 651 
Q 3003 894 3003 1313 
Q 3003 1734 2745 1975 
Q 2488 2216 2034 2216 
z
M 1403 2484 
Q 997 2584 770 2862 
Q 544 3141 544 3541 
Q 544 4100 942 4425 
Q 1341 4750 2034 4750 
Q 2731 4750 3128 4425 
Q 3525 4100 3525 3541 
Q 3525 3141 3298 2862 
Q 3072 2584 2669 2484 
Q 3125 2378 3379 2068 
Q 3634 1759 3634 1313 
Q 3634 634 3220 271 
Q 2806 -91 2034 -91 
Q 1263 -91 848 271 
Q 434 634 434 1313 
Q 434 1759 690 2068 
Q 947 2378 1403 2484 
z
M 1172 3481 
Q 1172 3119 1398 2916 
Q 1625 2713 2034 2713 
Q 2441 2713 2670 2916 
Q 2900 3119 2900 3481 
Q 2900 3844 2670 4047 
Q 2441 4250 2034 4250 
Q 1625 4250 1398 4047 
Q 1172 3844 1172 3481 
z
" transform="scale(0.015625)"/>
       </defs>
       <use xlink:href="#DejaVuSans-38"/>
      </g>
     </g>
    </g>
    <g id="text_23">
     <!-- wavelength [Å] -->
     <g transform="translate(646.526202 287.119832) scale(0.1 -0.1)">
      <defs>
       <path id="DejaVuSans-77" d="M 269 3500 
L 844 3500 
L 1563 769 
L 2278 3500 
L 2956 3500 
L 3675 769 
L 4391 3500 
L 4966 3500 
L 4050 0 
L 3372 0 
L 2619 2869 
L 1863 0 
L 1184 0 
L 269 3500 
z
" transform="scale(0.015625)"/>
       <path id="DejaVuSans-61" d="M 2194 1759 
Q 1497 1759 1228 1600 
Q 959 1441 959 1056 
Q 959 750 1161 570 
Q 1363 391 1709 391 
Q 2188 391 2477 730 
Q 2766 1069 2766 1631 
L 2766 1759 
L 2194 1759 
z
M 3341 1997 
L 3341 0 
L 2766 0 
L 2766 531 
Q 2569 213 2275 61 
Q 1981 -91 1556 -91 
Q 1019 -91 701 211 
Q 384 513 384 1019 
Q 384 1609 779 1909 
Q 1175 2209 1959 2209 
L 2766 2209 
L 2766 2266 
Q 2766 2663 2505 2880 
Q 2244 3097 1772 3097 
Q 1472 3097 1187 3025 
Q 903 2953 641 2809 
L 641 3341 
Q 956 3463 1253 3523 
Q 1550 3584 1831 3584 
Q 2591 3584 2966 3190 
Q 3341 2797 3341 1997 
z
" transform="scale(0.015625)"/>
       <path id="DejaVuSans-76" d="M 191 3500 
L 800 3500 
L 1894 563 
L 2988 3500 
L 3597 3500 
L 2284 0 
L 1503 0 
L 191 3500 
z
" transform="scale(0.015625)"/>
       <path id="DejaVuSans-67" d="M 2906 1791 
Q 2906 2416 2648 2759 
Q 2391 3103 1925 3103 
Q 1463 3103 1205 2759 
Q 947 2416 947 1791 
Q 947 1169 1205 825 
Q 1463 481 1925 481 
Q 2391 481 2648 825 
Q 2906 1169 2906 1791 
z
M 3481 434 
Q 3481 -459 3084 -895 
Q 2688 -1331 1869 -1331 
Q 1566 -1331 1297 -1286 
Q 1028 -1241 775 -1147 
L 775 -588 
Q 1028 -725 1275 -790 
Q 1522 -856 1778 -856 
Q 2344 -856 2625 -561 
Q 2906 -266 2906 331 
L 2906 616 
Q 2728 306 2450 153 
Q 2172 0 1784 0 
Q 1141 0 747 490 
Q 353 981 353 1791 
Q 353 2603 747 3093 
Q 1141 3584 1784 3584 
Q 2172 3584 2450 3431 
Q 2728 3278 2906 2969 
L 2906 3500 
L 3481 3500 
L 3481 434 
z
" transform="scale(0.015625)"/>
       <path id="DejaVuSans-c5" d="M 2663 5081 
Q 2663 5278 2523 5417 
Q 2384 5556 2188 5556 
Q 1988 5556 1852 5420 
Q 1716 5284 1716 5081 
Q 1716 4884 1853 4746 
Q 1991 4609 2188 4609 
Q 2384 4609 2523 4746 
Q 2663 4884 2663 5081 
z
M 2188 4044 
L 1338 1722 
L 3041 1722 
L 2188 4044 
z
M 1716 4366 
Q 1525 4494 1428 4673 
Q 1331 4853 1331 5081 
Q 1331 5441 1579 5691 
Q 1828 5941 2188 5941 
Q 2544 5941 2795 5689 
Q 3047 5438 3047 5081 
Q 3047 4863 2948 4678 
Q 2850 4494 2663 4366 
L 4325 0 
L 3669 0 
L 3244 1197 
L 1141 1197 
L 716 0 
L 50 0 
L 1716 4366 
z
" transform="scale(0.015625)"/>
      </defs>
      <use xlink:href="#DejaVuSans-77"/>
      <use xlink:href="#DejaVuSans-61" transform="translate(81.787109 0)"/>
      <use xlink:href="#DejaVuSans-76" transform="translate(143.066406 0)"/>
      <use xlink:href="#DejaVuSans-65" transform="translate(202.246094 0)"/>
      <use xlink:href="#DejaVuSans-6c" transform="translate(263.769531 0)"/>
      <use xlink:href="#DejaVuSans-65" transform="translate(291.552734 0)"/>
      <use xlink:href="#DejaVuSans-6e" transform="translate(353.076172 0)"/>
      <use xlink:href="#DejaVuSans-67" transform="translate(416.455078 0)"/>
      <use xlink:href="#DejaVuSans-74" transform="translate(479.931641 0)"/>
      <use xlink:href="#DejaVuSans-68" transform="translate(519.140625 0)"/>
      <use xlink:href="#DejaVuSans-20" transform="translate(582.519531 0)"/>
      <use xlink:href="#DejaVuSans-5b" transform="translate(614.306641 0)"/>
      <use xlink:href="#DejaVuSans-c5" transform="translate(653.320312 0)"/>
      <use xlink:href="#DejaVuSans-5d" transform="translate(721.728516 0)"/>
     </g>
    </g>
   </g>
   <g id="matplotlib.axis_4">
    <g id="ytick_9">
     <g id="line2d_22">
      <g>
       <use xlink:href="#m5f654ee6fd" x="503.927885" y="246.278558" style="stroke: #000000; stroke-width: 0.8"/>
      </g>
     </g>
     <g id="text_24">
      <!-- 0 -->
      <g transform="translate(490.565385 250.077777) scale(0.1 -0.1)">
       <use xlink:href="#DejaVuSans-30"/>
      </g>
     </g>
    </g>
    <g id="ytick_10">
     <g id="line2d_23">
      <g>
       <use xlink:href="#m5f654ee6fd" x="503.927885" y="216.18913" style="stroke: #000000; stroke-width: 0.8"/>
      </g>
     </g>
     <g id="text_25">
      <!-- 250 -->
      <g transform="translate(477.840385 219.988349) scale(0.1 -0.1)">
       <use xlink:href="#DejaVuSans-32"/>
       <use xlink:href="#DejaVuSans-35" transform="translate(63.623047 0)"/>
       <use xlink:href="#DejaVuSans-30" transform="translate(127.246094 0)"/>
      </g>
     </g>
    </g>
    <g id="ytick_11">
     <g id="line2d_24">
      <g>
       <use xlink:href="#m5f654ee6fd" x="503.927885" y="186.099702" style="stroke: #000000; stroke-width: 0.8"/>
      </g>
     </g>
     <g id="text_26">
      <!-- 500 -->
      <g transform="translate(477.840385 189.898921) scale(0.1 -0.1)">
       <use xlink:href="#DejaVuSans-35"/>
       <use xlink:href="#DejaVuSans-30" transform="translate(63.623047 0)"/>
       <use xlink:href="#DejaVuSans-30" transform="translate(127.246094 0)"/>
      </g>
     </g>
    </g>
    <g id="ytick_12">
     <g id="line2d_25">
      <g>
       <use xlink:href="#m5f654ee6fd" x="503.927885" y="156.010274" style="stroke: #000000; stroke-width: 0.8"/>
      </g>
     </g>
     <g id="text_27">
      <!-- 750 -->
      <g transform="translate(477.840385 159.809493) scale(0.1 -0.1)">
       <use xlink:href="#DejaVuSans-37"/>
       <use xlink:href="#DejaVuSans-35" transform="translate(63.623047 0)"/>
       <use xlink:href="#DejaVuSans-30" transform="translate(127.246094 0)"/>
      </g>
     </g>
    </g>
    <g id="ytick_13">
     <g id="line2d_26">
      <g>
       <use xlink:href="#m5f654ee6fd" x="503.927885" y="125.920847" style="stroke: #000000; stroke-width: 0.8"/>
      </g>
     </g>
     <g id="text_28">
      <!-- 1000 -->
      <g transform="translate(471.477885 129.720065) scale(0.1 -0.1)">
       <use xlink:href="#DejaVuSans-31"/>
       <use xlink:href="#DejaVuSans-30" transform="translate(63.623047 0)"/>
       <use xlink:href="#DejaVuSans-30" transform="translate(127.246094 0)"/>
       <use xlink:href="#DejaVuSans-30" transform="translate(190.869141 0)"/>
      </g>
     </g>
    </g>
    <g id="ytick_14">
     <g id="line2d_27">
      <g>
       <use xlink:href="#m5f654ee6fd" x="503.927885" y="95.831419" style="stroke: #000000; stroke-width: 0.8"/>
      </g>
     </g>
     <g id="text_29">
      <!-- 1250 -->
      <g transform="translate(471.477885 99.630637) scale(0.1 -0.1)">
       <use xlink:href="#DejaVuSans-31"/>
       <use xlink:href="#DejaVuSans-32" transform="translate(63.623047 0)"/>
       <use xlink:href="#DejaVuSans-35" transform="translate(127.246094 0)"/>
       <use xlink:href="#DejaVuSans-30" transform="translate(190.869141 0)"/>
      </g>
     </g>
    </g>
    <g id="ytick_15">
     <g id="line2d_28">
      <g>
       <use xlink:href="#m5f654ee6fd" x="503.927885" y="65.741991" style="stroke: #000000; stroke-width: 0.8"/>
      </g>
     </g>
     <g id="text_30">
      <!-- 1500 -->
      <g transform="translate(471.477885 69.54121) scale(0.1 -0.1)">
       <use xlink:href="#DejaVuSans-31"/>
       <use xlink:href="#DejaVuSans-35" transform="translate(63.623047 0)"/>
       <use xlink:href="#DejaVuSans-30" transform="translate(127.246094 0)"/>
       <use xlink:href="#DejaVuSans-30" transform="translate(190.869141 0)"/>
      </g>
     </g>
    </g>
    <g id="ytick_16">
     <g id="line2d_29">
      <g>
       <use xlink:href="#m5f654ee6fd" x="503.927885" y="35.652563" style="stroke: #000000; stroke-width: 0.8"/>
      </g>
     </g>
     <g id="text_31">
      <!-- 1750 -->
      <g transform="translate(471.477885 39.451782) scale(0.1 -0.1)">
       <use xlink:href="#DejaVuSans-31"/>
       <use xlink:href="#DejaVuSans-37" transform="translate(63.623047 0)"/>
       <use xlink:href="#DejaVuSans-35" transform="translate(127.246094 0)"/>
       <use xlink:href="#DejaVuSans-30" transform="translate(190.869141 0)"/>
      </g>
     </g>
    </g>
    <g id="text_32">
     <!-- pulse:0 [counts] -->
     <g transform="translate(465.398197 172.659916) rotate(-90) scale(0.1 -0.1)">
      <use xlink:href="#DejaVuSans-70"/>
      <use xlink:href="#DejaVuSans-75" transform="translate(63.476562 0)"/>
      <use xlink:href="#DejaVuSans-6c" transform="translate(126.855469 0)"/>
      <use xlink:href="#DejaVuSans-73" transform="translate(154.638672 0)"/>
      <use xlink:href="#DejaVuSans-65" transform="translate(206.738281 0)"/>
      <use xlink:href="#DejaVuSans-3a" transform="translate(268.261719 0)"/>
      <use xlink:href="#DejaVuSans-30" transform="translate(301.953125 0)"/>
      <use xlink:href="#DejaVuSans-20" transform="translate(365.576172 0)"/>
      <use xlink:href="#DejaVuSans-5b" transform="translate(397.363281 0)"/>
      <use xlink:href="#DejaVuSans-63" transform="translate(436.376953 0)"/>
      <use xlink:href="#DejaVuSans-6f" transform="translate(491.357422 0)"/>
      <use xlink:href="#DejaVuSans-75" transform="translate(552.539062 0)"/>
      <use xlink:href="#DejaVuSans-6e" transform="translate(615.917969 0)"/>
      <use xlink:href="#DejaVuSans-74" transform="translate(679.296875 0)"/>
      <use xlink:href="#DejaVuSans-73" transform="translate(718.505859 0)"/>
      <use xlink:href="#DejaVuSans-5d" transform="translate(770.605469 0)"/>
     </g>
    </g>
   </g>
   <g id="line2d_30">
    <path d="M 520.349323 245.315696 
L 521.444085 245.315696 
L 521.444085 245.797127 
L 522.538848 245.797127 
L 522.538848 245.436054 
L 523.633611 245.436054 
L 523.633611 245.074981 
L 524.728373 245.074981 
L 524.728373 245.436054 
L 525.823136 245.436054 
L 525.823136 244.713908 
L 526.917898 244.713908 
L 526.917898 244.834265 
L 528.012661 244.834265 
L 528.012661 244.473192 
L 529.107423 244.473192 
L 529.107423 244.59355 
L 530.202186 244.59355 
L 530.202186 245.195338 
L 531.296948 245.195338 
L 531.296948 244.713908 
L 532.391711 244.713908 
L 532.391711 245.315696 
L 533.486473 245.315696 
L 533.486473 243.871404 
L 534.581236 243.871404 
L 534.581236 244.713908 
L 535.675998 244.713908 
L 535.675998 244.232477 
L 538.960286 244.232477 
L 538.960286 243.149257 
L 540.055048 243.149257 
L 540.055048 243.751046 
L 541.149811 243.751046 
L 541.149811 242.788184 
L 542.244574 242.788184 
L 542.244574 243.630688 
L 543.339336 243.630688 
L 543.339336 243.0289 
L 544.434099 243.0289 
L 544.434099 243.389973 
L 545.528861 243.389973 
L 545.528861 242.788184 
L 546.623624 242.788184 
L 546.623624 241.704965 
L 548.813149 241.704965 
L 548.813149 242.667827 
L 549.907911 242.667827 
L 549.907911 241.223534 
L 551.002674 241.223534 
L 551.002674 240.019957 
L 552.097436 240.019957 
L 552.097436 241.704965 
L 553.192199 241.704965 
L 553.192199 240.260672 
L 554.286961 240.260672 
L 554.286961 240.140315 
L 555.381724 240.140315 
L 555.381724 238.696022 
L 556.476486 238.696022 
L 556.476486 239.418168 
L 557.571249 239.418168 
L 557.571249 239.057095 
L 558.666012 239.057095 
L 558.666012 238.334949 
L 559.760774 238.334949 
L 559.760774 238.936737 
L 560.855537 238.936737 
L 560.855537 237.73316 
L 561.950299 237.73316 
L 561.950299 237.492445 
L 563.045062 237.492445 
L 563.045062 236.649941 
L 564.139824 236.649941 
L 564.139824 235.205648 
L 565.234587 235.205648 
L 565.234587 234.60386 
L 566.329349 234.60386 
L 566.329349 235.927795 
L 567.424112 235.927795 
L 567.424112 231.715275 
L 568.518874 231.715275 
L 568.518874 232.918852 
L 570.708399 232.918852 
L 570.708399 232.678137 
L 571.803162 232.678137 
L 571.803162 230.511698 
L 572.897924 230.511698 
L 572.897924 228.706332 
L 573.992687 228.706332 
L 573.992687 228.82669 
L 575.087449 228.82669 
L 575.087449 229.428478 
L 576.182212 229.428478 
L 576.182212 226.299178 
L 577.276975 226.299178 
L 577.276975 227.141682 
L 578.371737 227.141682 
L 578.371737 226.780609 
L 579.4665 226.780609 
L 579.4665 227.502755 
L 580.561262 227.502755 
L 580.561262 226.660251 
L 581.656025 226.660251 
L 581.656025 221.605227 
L 582.750787 221.605227 
L 582.750787 220.160935 
L 583.84555 220.160935 
L 583.84555 223.410593 
L 584.940312 223.410593 
L 584.940312 221.605227 
L 586.035075 221.605227 
L 586.035075 219.198073 
L 587.129837 219.198073 
L 587.129837 216.429845 
L 589.319362 216.429845 
L 589.319362 214.504122 
L 590.414125 214.504122 
L 590.414125 213.05983 
L 591.508887 213.05983 
L 591.508887 209.449098 
L 592.60365 209.449098 
L 592.60365 205.236578 
L 593.698412 205.236578 
L 593.698412 204.755147 
L 594.793175 204.755147 
L 594.793175 205.116221 
L 595.887938 205.116221 
L 595.887938 203.55157 
L 598.077463 203.55157 
L 598.077463 197.533685 
L 599.172225 197.533685 
L 599.172225 203.671928 
L 600.266988 203.671928 
L 600.266988 196.691181 
L 601.36175 196.691181 
L 601.36175 196.330108 
L 602.456513 196.330108 
L 602.456513 189.34936 
L 603.551275 189.34936 
L 603.551275 190.071507 
L 604.646038 190.071507 
L 604.646038 189.710434 
L 605.7408 189.710434 
L 605.7408 185.257198 
L 606.835563 185.257198 
L 606.835563 183.090759 
L 607.930325 183.090759 
L 607.930325 182.488971 
L 609.025088 182.488971 
L 609.025088 177.193232 
L 610.11985 177.193232 
L 610.11985 181.646467 
L 611.214613 181.646467 
L 611.214613 176.471085 
L 612.309375 176.471085 
L 612.309375 174.66572 
L 613.404138 174.66572 
L 613.404138 175.748939 
L 614.498901 175.748939 
L 614.498901 165.879607 
L 615.593663 165.879607 
L 615.593663 165.398176 
L 616.688426 165.398176 
L 616.688426 160.824583 
L 617.783188 160.824583 
L 617.783188 160.583867 
L 619.972713 160.583867 
L 619.972713 154.68634 
L 621.067476 154.68634 
L 621.067476 152.399543 
L 622.162238 152.399543 
L 622.162238 146.381657 
L 623.257001 146.381657 
L 623.257001 146.2613 
L 624.351763 146.2613 
L 624.351763 144.937365 
L 625.446526 144.937365 
L 625.446526 142.770926 
L 626.541288 142.770926 
L 626.541288 141.085918 
L 627.636051 141.085918 
L 627.636051 137.715902 
L 628.730813 137.715902 
L 628.730813 133.864455 
L 629.825576 133.864455 
L 629.825576 121.587969 
L 630.920339 121.587969 
L 630.920339 134.345886 
L 632.015101 134.345886 
L 632.015101 122.791546 
L 633.109864 122.791546 
L 633.109864 119.541888 
L 634.204626 119.541888 
L 634.204626 123.032261 
L 635.299389 123.032261 
L 635.299389 114.607222 
L 636.394151 114.607222 
L 636.394151 111.116848 
L 637.488914 111.116848 
L 637.488914 108.589336 
L 638.583676 108.589336 
L 638.583676 110.99649 
L 639.678439 110.99649 
L 639.678439 98.840361 
L 640.773201 98.840361 
L 640.773201 107.024686 
L 641.867964 107.024686 
L 641.867964 88.609956 
L 642.962726 88.609956 
L 642.962726 100.284654 
L 644.057489 100.284654 
L 644.057489 93.183549 
L 645.152251 93.183549 
L 645.152251 87.767452 
L 646.247014 87.767452 
L 646.247014 88.971029 
L 647.341776 88.971029 
L 647.341776 82.230997 
L 648.436539 82.230997 
L 648.436539 79.342412 
L 649.531302 79.342412 
L 649.531302 77.89812 
L 650.626064 77.89812 
L 650.626064 70.195226 
L 651.720827 70.195226 
L 651.720827 76.213112 
L 652.815589 76.213112 
L 652.815589 75.129892 
L 653.910352 75.129892 
L 653.910352 66.704853 
L 655.005114 66.704853 
L 655.005114 73.204169 
L 656.099877 73.204169 
L 656.099877 65.621633 
L 657.194639 65.621633 
L 657.194639 61.529471 
L 658.289402 61.529471 
L 658.289402 60.205536 
L 659.384164 60.205536 
L 659.384164 52.382285 
L 660.478927 52.382285 
L 660.478927 56.474447 
L 661.573689 56.474447 
L 661.573689 53.70622 
L 662.668452 53.70622 
L 662.668452 53.465504 
L 663.763214 53.465504 
L 663.763214 54.669081 
L 664.857977 54.669081 
L 664.857977 43.596172 
L 665.952739 43.596172 
L 665.952739 49.854773 
L 667.047502 49.854773 
L 667.047502 38.541148 
L 668.142265 38.541148 
L 668.142265 48.771554 
L 669.237027 48.771554 
L 669.237027 47.567976 
L 670.33179 47.567976 
L 670.33179 40.587229 
L 671.426552 40.587229 
L 671.426552 42.63331 
L 672.521315 42.63331 
L 672.521315 31.680758 
L 673.616077 31.680758 
L 673.616077 43.596172 
L 674.71084 43.596172 
L 674.71084 38.902221 
L 675.805602 38.902221 
L 675.805602 26.86645 
L 676.900365 26.86645 
L 676.900365 38.781863 
L 677.995127 38.781863 
L 677.995127 31.801116 
L 679.08989 31.801116 
L 679.08989 25.662873 
L 680.184652 25.662873 
L 680.184652 35.050774 
L 681.279415 35.050774 
L 681.279415 36.254352 
L 682.374177 36.254352 
L 682.374177 32.884336 
L 683.46894 32.884336 
L 683.46894 38.541148 
L 684.563702 38.541148 
L 684.563702 33.486124 
L 685.658465 33.486124 
L 685.658465 35.050774 
L 686.753228 35.050774 
L 686.753228 41.670449 
L 687.84799 41.670449 
L 687.84799 18.561768 
L 688.942753 18.561768 
L 688.942753 34.569344 
L 690.037515 34.569344 
L 690.037515 34.930417 
L 691.132278 34.930417 
L 691.132278 35.532205 
L 692.22704 35.532205 
L 692.22704 34.569344 
L 693.321803 34.569344 
L 693.321803 34.448986 
L 694.416565 34.448986 
L 694.416565 39.383652 
L 695.511328 39.383652 
L 695.511328 39.263294 
L 696.60609 39.263294 
L 696.60609 35.29149 
L 697.700853 35.29149 
L 697.700853 44.318318 
L 698.795615 44.318318 
L 698.795615 36.495067 
L 699.890378 36.495067 
L 699.890378 42.392595 
L 700.98514 42.392595 
L 700.98514 44.077603 
L 702.079903 44.077603 
L 702.079903 43.114741 
L 703.174666 43.114741 
L 703.174666 43.596172 
L 704.269428 43.596172 
L 704.269428 52.141569 
L 705.364191 52.141569 
L 705.364191 54.067293 
L 706.458953 54.067293 
L 706.458953 46.003326 
L 707.553716 46.003326 
L 707.553716 52.743358 
L 708.648478 52.743358 
L 708.648478 44.920107 
L 709.743241 44.920107 
L 709.743241 51.299065 
L 710.838003 51.299065 
L 710.838003 59.363032 
L 711.932766 59.363032 
L 711.932766 63.455194 
L 713.027528 63.455194 
L 713.027528 67.788072 
L 714.122291 67.788072 
L 714.122291 74.167031 
L 715.217053 74.167031 
L 715.217053 73.444884 
L 716.311816 73.444884 
L 716.311816 77.537047 
L 717.406578 77.537047 
L 717.406578 71.398803 
L 718.501341 71.398803 
L 718.501341 83.193859 
L 719.596103 83.193859 
L 719.596103 88.128525 
L 720.690866 88.128525 
L 720.690866 84.638152 
L 721.785629 84.638152 
L 721.785629 81.268136 
L 722.880391 81.268136 
L 722.880391 90.535679 
L 723.975154 90.535679 
L 723.975154 92.10033 
L 725.069916 92.10033 
L 725.069916 97.516427 
L 726.164679 97.516427 
L 726.164679 96.673923 
L 727.259441 96.673923 
L 727.259441 99.201435 
L 728.354204 99.201435 
L 728.354204 105.339678 
L 729.448966 105.339678 
L 729.448966 100.645727 
L 730.543729 100.645727 
L 730.543729 105.941466 
L 731.638491 105.941466 
L 731.638491 111.116848 
L 732.733254 111.116848 
L 732.733254 116.171872 
L 733.828016 116.171872 
L 733.828016 114.246149 
L 734.922779 114.246149 
L 734.922779 113.885075 
L 736.017541 113.885075 
L 736.017541 121.106538 
L 737.112304 121.106538 
L 737.112304 127.726212 
L 738.207066 127.726212 
L 738.207066 129.531578 
L 739.301829 129.531578 
L 739.301829 130.374082 
L 740.396592 130.374082 
L 740.396592 137.354829 
L 741.491354 137.354829 
L 741.491354 137.715902 
L 742.586117 137.715902 
L 742.586117 141.085918 
L 743.680879 141.085918 
L 743.680879 135.429106 
L 744.775642 135.429106 
L 744.775642 139.641626 
L 745.870404 139.641626 
L 745.870404 147.705592 
L 746.965167 147.705592 
L 746.965167 153.242047 
L 748.059929 153.242047 
L 748.059929 153.723478 
L 749.154692 153.723478 
L 749.154692 162.629948 
L 750.249454 162.629948 
L 750.249454 153.482762 
L 751.344217 153.482762 
L 751.344217 158.417429 
L 752.438979 158.417429 
L 752.438979 163.111379 
L 753.533742 163.111379 
L 753.533742 164.194599 
L 754.628504 164.194599 
L 754.628504 168.046045 
L 755.723267 168.046045 
L 755.723267 174.66572 
L 756.818029 174.66572 
L 756.818029 172.619639 
L 757.912792 172.619639 
L 757.912792 178.757882 
L 759.007555 178.757882 
L 759.007555 181.165036 
L 760.102317 181.165036 
L 760.102317 181.044678 
L 761.19708 181.044678 
L 761.19708 182.248255 
L 762.291842 182.248255 
L 762.291842 184.414694 
L 764.481367 184.414694 
L 764.481367 192.839734 
L 765.57613 192.839734 
L 765.57613 194.163669 
L 766.670892 194.163669 
L 766.670892 188.506856 
L 767.765655 188.506856 
L 767.765655 196.330108 
L 768.860417 196.330108 
L 768.860417 200.061197 
L 769.95518 200.061197 
L 769.95518 196.811539 
L 771.049942 196.811539 
L 771.049942 204.755147 
L 772.144705 204.755147 
L 772.144705 202.468351 
L 773.239467 202.468351 
L 773.239467 205.718009 
L 774.33423 205.718009 
L 774.33423 208.365879 
L 775.428993 208.365879 
L 775.428993 211.374822 
L 776.523755 211.374822 
L 776.523755 212.217326 
L 777.618518 212.217326 
L 777.618518 208.245521 
L 778.71328 208.245521 
L 778.71328 213.902334 
L 779.808043 213.902334 
L 779.808043 214.143049 
L 780.902805 214.143049 
L 780.902805 215.466984 
L 781.997568 215.466984 
L 781.997568 217.513065 
L 783.09233 217.513065 
L 783.09233 217.75378 
L 784.187093 217.75378 
L 784.187093 217.874138 
L 785.281855 217.874138 
L 785.281855 221.003439 
L 786.376618 221.003439 
L 786.376618 221.244154 
L 787.47138 221.244154 
L 787.47138 224.734528 
L 788.566143 224.734528 
L 788.566143 223.53095 
L 789.660905 223.53095 
L 789.660905 224.253097 
L 790.755668 224.253097 
L 790.755668 226.900966 
L 791.85043 226.900966 
L 791.85043 223.290235 
L 792.945193 223.290235 
L 792.945193 228.345259 
L 794.039956 228.345259 
L 794.039956 227.502755 
L 795.134718 227.502755 
L 795.134718 229.909909 
L 796.229481 229.909909 
L 796.229481 232.557779 
L 797.324243 232.557779 
L 797.324243 231.835633 
L 798.419006 231.835633 
L 798.419006 234.363144 
L 799.513768 234.363144 
L 799.513768 231.835633 
L 800.608531 231.835633 
L 800.608531 233.761356 
L 801.703293 233.761356 
L 801.703293 234.724218 
L 802.798056 234.724218 
L 802.798056 233.761356 
L 803.892818 233.761356 
L 803.892818 233.640998 
L 804.987581 233.640998 
L 804.987581 236.529583 
L 806.082343 236.529583 
L 806.082343 238.094234 
L 807.177106 238.094234 
L 807.177106 236.16851 
L 808.271868 236.16851 
L 808.271868 237.372087 
L 809.366631 237.372087 
L 809.366631 238.214591 
L 810.461393 238.214591 
L 810.461393 237.011014 
L 811.556156 237.011014 
L 811.556156 239.297811 
L 812.650919 239.297811 
L 812.650919 241.584607 
L 813.745681 241.584607 
L 813.745681 239.177453 
L 814.840444 239.177453 
L 814.840444 241.464249 
L 815.935206 241.464249 
L 815.935206 240.621745 
L 817.029969 240.621745 
L 817.029969 240.501388 
L 818.124731 240.501388 
L 818.124731 239.899599 
L 819.219494 239.899599 
L 819.219494 240.621745 
L 820.314256 240.621745 
L 820.314256 241.103176 
L 821.409019 241.103176 
L 821.409019 243.630688 
L 822.503781 243.630688 
L 822.503781 241.704965 
L 823.598544 241.704965 
L 823.598544 242.547469 
L 824.693306 242.547469 
L 824.693306 242.788184 
L 825.788069 242.788184 
L 825.788069 243.0289 
L 826.882831 243.0289 
L 826.882831 243.269615 
L 827.977594 243.269615 
L 827.977594 243.510331 
L 829.072357 243.510331 
L 829.072357 243.630688 
L 830.167119 243.630688 
L 830.167119 243.510331 
L 831.261882 243.510331 
L 831.261882 243.0289 
L 832.356644 243.0289 
L 832.356644 244.954623 
L 833.451407 244.954623 
L 833.451407 244.59355 
L 834.546169 244.59355 
L 834.546169 244.112119 
L 835.640932 244.112119 
L 835.640932 244.232477 
L 836.735694 244.232477 
L 836.735694 243.991761 
L 837.830457 243.991761 
L 837.830457 245.436054 
L 838.925219 245.436054 
L 838.925219 244.59355 
L 840.019982 244.59355 
L 840.019982 244.352835 
L 842.209507 244.352835 
L 842.209507 245.074981 
L 843.304269 245.074981 
L 843.304269 245.797127 
L 844.399032 245.797127 
L 844.399032 245.436054 
L 845.493794 245.436054 
L 845.493794 245.195338 
L 846.588557 245.195338 
L 846.588557 245.556412 
L 847.68332 245.556412 
L 847.68332 245.315696 
L 848.778082 245.315696 
L 848.778082 245.315696 
" clip-path="url(#pe005bdfe37)" style="fill: none; stroke: #1f77b4; stroke-width: 1.5; stroke-linecap: square"/>
   </g>
   <g id="patch_8">
    <path d="M 503.927885 257.158895 
L 503.927885 7.2 
" style="fill: none; stroke: #000000; stroke-width: 0.8; stroke-linejoin: miter; stroke-linecap: square"/>
   </g>
   <g id="patch_9">
    <path d="M 865.19952 257.158895 
L 865.19952 7.2 
" style="fill: none; stroke: #000000; stroke-width: 0.8; stroke-linejoin: miter; stroke-linecap: square"/>
   </g>
   <g id="patch_10">
    <path d="M 503.927885 257.158895 
L 865.19952 257.158895 
" style="fill: none; stroke: #000000; stroke-width: 0.8; stroke-linejoin: miter; stroke-linecap: square"/>
   </g>
   <g id="patch_11">
    <path d="M 503.927885 7.2 
L 865.19952 7.2 
" style="fill: none; stroke: #000000; stroke-width: 0.8; stroke-linejoin: miter; stroke-linecap: square"/>
   </g>
  </g>
 </g>
 <defs>
  <clipPath id="p1da28a9ac7">
   <rect x="53.328125" y="7.2" width="361.271635" height="249.958895"/>
  </clipPath>
  <clipPath id="pe005bdfe37">
   <rect x="503.927885" y="7.2" width="361.271635" height="249.958895"/>
  </clipPath>
 </defs>
</svg>
