<?xml version="1.0" encoding="utf-8" standalone="no"?>
<!DOCTYPE svg PUBLIC "-//W3C//DTD SVG 1.1//EN"
  "http://www.w3.org/Graphics/SVG/1.1/DTD/svg11.dtd">
<svg xmlns:xlink="http://www.w3.org/1999/xlink" width="872.39952pt" height="296.39949pt" viewBox="0 0 872.39952 296.39949" xmlns="http://www.w3.org/2000/svg" version="1.1">
 <metadata>
  <rdf:RDF xmlns:dc="http://purl.org/dc/elements/1.1/" xmlns:cc="http://creativecommons.org/ns#" xmlns:rdf="http://www.w3.org/1999/02/22-rdf-syntax-ns#">
   <cc:Work>
    <dc:type rdf:resource="http://purl.org/dc/dcmitype/StillImage"/>
    <dc:date>2025-11-13T11:11:57.452027</dc:date>
    <dc:format>image/svg+xml</dc:format>
    <dc:creator>
     <cc:Agent>
      <dc:title>Matplotlib v3.10.7, https://matplotlib.org/</dc:title>
     </cc:Agent>
    </dc:creator>
   </cc:Work>
  </rdf:RDF>
 </metadata>
 <defs>
  <style type="text/css">*{stroke-linejoin: round; stroke-linecap: butt}</style>
 </defs>
 <g id="figure_1">
  <g id="patch_1">
   <path d="M 0 296.39949 
L 872.39952 296.39949 
L 872.39952 0 
L 0 0 
z
" style="fill: #ffffff"/>
  </g>
  <g id="axes_1">
   <g id="patch_2">
    <path d="M 53.328125 257.158865 
L 414.59976 257.158865 
L 414.59976 10.726012 
L 53.328125 10.726012 
z
" style="fill: #ffffff"/>
   </g>
   <g id="matplotlib.axis_1">
    <g id="xtick_1">
     <g id="line2d_1">
      <defs>
       <path id="m71a8a702c1" d="M 0 0 
L 0 3.5 
" style="stroke: #000000; stroke-width: 0.8"/>
      </defs>
      <g>
       <use xlink:href="#m71a8a702c1" x="69.749386" y="257.158865" style="stroke: #000000; stroke-width: 0.8"/>
      </g>
     </g>
     <g id="text_1">
      <!-- 1000 -->
      <g transform="translate(57.024386 271.757302) scale(0.1 -0.1)">
       <defs>
        <path id="DejaVuSans-31" d="M 794 531 
L 1825 531 
L 1825 4091 
L 703 3866 
L 703 4441 
L 1819 4666 
L 2450 4666 
L 2450 531 
L 3481 531 
L 3481 0 
L 794 0 
L 794 531 
z
" transform="scale(0.015625)"/>
        <path id="DejaVuSans-30" d="M 2034 4250 
Q 1547 4250 1301 3770 
Q 1056 3291 1056 2328 
Q 1056 1369 1301 889 
Q 1547 409 2034 409 
Q 2525 409 2770 889 
Q 3016 1369 3016 2328 
Q 3016 3291 2770 3770 
Q 2525 4250 2034 4250 
z
M 2034 4750 
Q 2819 4750 3233 4129 
Q 3647 3509 3647 2328 
Q 3647 1150 3233 529 
Q 2819 -91 2034 -91 
Q 1250 -91 836 529 
Q 422 1150 422 2328 
Q 422 3509 836 4129 
Q 1250 4750 2034 4750 
z
" transform="scale(0.015625)"/>
       </defs>
       <use xlink:href="#DejaVuSans-31"/>
       <use xlink:href="#DejaVuSans-30" transform="translate(63.623047 0)"/>
       <use xlink:href="#DejaVuSans-30" transform="translate(127.246094 0)"/>
       <use xlink:href="#DejaVuSans-30" transform="translate(190.869141 0)"/>
      </g>
     </g>
    </g>
    <g id="xtick_2">
     <g id="line2d_2">
      <g>
       <use xlink:href="#m71a8a702c1" x="110.80312" y="257.158865" style="stroke: #000000; stroke-width: 0.8"/>
      </g>
     </g>
     <g id="text_2">
      <!-- 1250 -->
      <g transform="translate(98.07812 271.757302) scale(0.1 -0.1)">
       <defs>
        <path id="DejaVuSans-32" d="M 1228 531 
L 3431 531 
L 3431 0 
L 469 0 
L 469 531 
Q 828 903 1448 1529 
Q 2069 2156 2228 2338 
Q 2531 2678 2651 2914 
Q 2772 3150 2772 3378 
Q 2772 3750 2511 3984 
Q 2250 4219 1831 4219 
Q 1534 4219 1204 4116 
Q 875 4013 500 3803 
L 500 4441 
Q 881 4594 1212 4672 
Q 1544 4750 1819 4750 
Q 2544 4750 2975 4387 
Q 3406 4025 3406 3419 
Q 3406 3131 3298 2873 
Q 3191 2616 2906 2266 
Q 2828 2175 2409 1742 
Q 1991 1309 1228 531 
z
" transform="scale(0.015625)"/>
        <path id="DejaVuSans-35" d="M 691 4666 
L 3169 4666 
L 3169 4134 
L 1269 4134 
L 1269 2991 
Q 1406 3038 1543 3061 
Q 1681 3084 1819 3084 
Q 2600 3084 3056 2656 
Q 3513 2228 3513 1497 
Q 3513 744 3044 326 
Q 2575 -91 1722 -91 
Q 1428 -91 1123 -41 
Q 819 9 494 109 
L 494 744 
Q 775 591 1075 516 
Q 1375 441 1709 441 
Q 2250 441 2565 725 
Q 2881 1009 2881 1497 
Q 2881 1984 2565 2268 
Q 2250 2553 1709 2553 
Q 1456 2553 1204 2497 
Q 953 2441 691 2322 
L 691 4666 
z
" transform="scale(0.015625)"/>
       </defs>
       <use xlink:href="#DejaVuSans-31"/>
       <use xlink:href="#DejaVuSans-32" transform="translate(63.623047 0)"/>
       <use xlink:href="#DejaVuSans-35" transform="translate(127.246094 0)"/>
       <use xlink:href="#DejaVuSans-30" transform="translate(190.869141 0)"/>
      </g>
     </g>
    </g>
    <g id="xtick_3">
     <g id="line2d_3">
      <g>
       <use xlink:href="#m71a8a702c1" x="151.856855" y="257.158865" style="stroke: #000000; stroke-width: 0.8"/>
      </g>
     </g>
     <g id="text_3">
      <!-- 1500 -->
      <g transform="translate(139.131855 271.757302) scale(0.1 -0.1)">
       <use xlink:href="#DejaVuSans-31"/>
       <use xlink:href="#DejaVuSans-35" transform="translate(63.623047 0)"/>
       <use xlink:href="#DejaVuSans-30" transform="translate(127.246094 0)"/>
       <use xlink:href="#DejaVuSans-30" transform="translate(190.869141 0)"/>
      </g>
     </g>
    </g>
    <g id="xtick_4">
     <g id="line2d_4">
      <g>
       <use xlink:href="#m71a8a702c1" x="192.91059" y="257.158865" style="stroke: #000000; stroke-width: 0.8"/>
      </g>
     </g>
     <g id="text_4">
      <!-- 1750 -->
      <g transform="translate(180.18559 271.757302) scale(0.1 -0.1)">
       <defs>
        <path id="DejaVuSans-37" d="M 525 4666 
L 3525 4666 
L 3525 4397 
L 1831 0 
L 1172 0 
L 2766 4134 
L 525 4134 
L 525 4666 
z
" transform="scale(0.015625)"/>
       </defs>
       <use xlink:href="#DejaVuSans-31"/>
       <use xlink:href="#DejaVuSans-37" transform="translate(63.623047 0)"/>
       <use xlink:href="#DejaVuSans-35" transform="translate(127.246094 0)"/>
       <use xlink:href="#DejaVuSans-30" transform="translate(190.869141 0)"/>
      </g>
     </g>
    </g>
    <g id="xtick_5">
     <g id="line2d_5">
      <g>
       <use xlink:href="#m71a8a702c1" x="233.964324" y="257.158865" style="stroke: #000000; stroke-width: 0.8"/>
      </g>
     </g>
     <g id="text_5">
      <!-- 2000 -->
      <g transform="translate(221.239324 271.757302) scale(0.1 -0.1)">
       <use xlink:href="#DejaVuSans-32"/>
       <use xlink:href="#DejaVuSans-30" transform="translate(63.623047 0)"/>
       <use xlink:href="#DejaVuSans-30" transform="translate(127.246094 0)"/>
       <use xlink:href="#DejaVuSans-30" transform="translate(190.869141 0)"/>
      </g>
     </g>
    </g>
    <g id="xtick_6">
     <g id="line2d_6">
      <g>
       <use xlink:href="#m71a8a702c1" x="275.018059" y="257.158865" style="stroke: #000000; stroke-width: 0.8"/>
      </g>
     </g>
     <g id="text_6">
      <!-- 2250 -->
      <g transform="translate(262.293059 271.757302) scale(0.1 -0.1)">
       <use xlink:href="#DejaVuSans-32"/>
       <use xlink:href="#DejaVuSans-32" transform="translate(63.623047 0)"/>
       <use xlink:href="#DejaVuSans-35" transform="translate(127.246094 0)"/>
       <use xlink:href="#DejaVuSans-30" transform="translate(190.869141 0)"/>
      </g>
     </g>
    </g>
    <g id="xtick_7">
     <g id="line2d_7">
      <g>
       <use xlink:href="#m71a8a702c1" x="316.071794" y="257.158865" style="stroke: #000000; stroke-width: 0.8"/>
      </g>
     </g>
     <g id="text_7">
      <!-- 2500 -->
      <g transform="translate(303.346794 271.757302) scale(0.1 -0.1)">
       <use xlink:href="#DejaVuSans-32"/>
       <use xlink:href="#DejaVuSans-35" transform="translate(63.623047 0)"/>
       <use xlink:href="#DejaVuSans-30" transform="translate(127.246094 0)"/>
       <use xlink:href="#DejaVuSans-30" transform="translate(190.869141 0)"/>
      </g>
     </g>
    </g>
    <g id="xtick_8">
     <g id="line2d_8">
      <g>
       <use xlink:href="#m71a8a702c1" x="357.125528" y="257.158865" style="stroke: #000000; stroke-width: 0.8"/>
      </g>
     </g>
     <g id="text_8">
      <!-- 2750 -->
      <g transform="translate(344.400528 271.757302) scale(0.1 -0.1)">
       <use xlink:href="#DejaVuSans-32"/>
       <use xlink:href="#DejaVuSans-37" transform="translate(63.623047 0)"/>
       <use xlink:href="#DejaVuSans-35" transform="translate(127.246094 0)"/>
       <use xlink:href="#DejaVuSans-30" transform="translate(190.869141 0)"/>
      </g>
     </g>
    </g>
    <g id="xtick_9">
     <g id="line2d_9">
      <g>
       <use xlink:href="#m71a8a702c1" x="398.179263" y="257.158865" style="stroke: #000000; stroke-width: 0.8"/>
      </g>
     </g>
     <g id="text_9">
      <!-- 3000 -->
      <g transform="translate(385.454263 271.757302) scale(0.1 -0.1)">
       <defs>
        <path id="DejaVuSans-33" d="M 2597 2516 
Q 3050 2419 3304 2112 
Q 3559 1806 3559 1356 
Q 3559 666 3084 287 
Q 2609 -91 1734 -91 
Q 1441 -91 1130 -33 
Q 819 25 488 141 
L 488 750 
Q 750 597 1062 519 
Q 1375 441 1716 441 
Q 2309 441 2620 675 
Q 2931 909 2931 1356 
Q 2931 1769 2642 2001 
Q 2353 2234 1838 2234 
L 1294 2234 
L 1294 2753 
L 1863 2753 
Q 2328 2753 2575 2939 
Q 2822 3125 2822 3475 
Q 2822 3834 2567 4026 
Q 2313 4219 1838 4219 
Q 1578 4219 1281 4162 
Q 984 4106 628 3988 
L 628 4550 
Q 988 4650 1302 4700 
Q 1616 4750 1894 4750 
Q 2613 4750 3031 4423 
Q 3450 4097 3450 3541 
Q 3450 3153 3228 2886 
Q 3006 2619 2597 2516 
z
" transform="scale(0.015625)"/>
       </defs>
       <use xlink:href="#DejaVuSans-33"/>
       <use xlink:href="#DejaVuSans-30" transform="translate(63.623047 0)"/>
       <use xlink:href="#DejaVuSans-30" transform="translate(127.246094 0)"/>
       <use xlink:href="#DejaVuSans-30" transform="translate(190.869141 0)"/>
      </g>
     </g>
    </g>
    <g id="text_10">
     <!-- birth_time [µs] -->
     <g transform="translate(197.14363 285.435427) scale(0.1 -0.1)">
      <defs>
       <path id="DejaVuSans-62" d="M 3116 1747 
Q 3116 2381 2855 2742 
Q 2594 3103 2138 3103 
Q 1681 3103 1420 2742 
Q 1159 2381 1159 1747 
Q 1159 1113 1420 752 
Q 1681 391 2138 391 
Q 2594 391 2855 752 
Q 3116 1113 3116 1747 
z
M 1159 2969 
Q 1341 3281 1617 3432 
Q 1894 3584 2278 3584 
Q 2916 3584 3314 3078 
Q 3713 2572 3713 1747 
Q 3713 922 3314 415 
Q 2916 -91 2278 -91 
Q 1894 -91 1617 61 
Q 1341 213 1159 525 
L 1159 0 
L 581 0 
L 581 4863 
L 1159 4863 
L 1159 2969 
z
" transform="scale(0.015625)"/>
       <path id="DejaVuSans-69" d="M 603 3500 
L 1178 3500 
L 1178 0 
L 603 0 
L 603 3500 
z
M 603 4863 
L 1178 4863 
L 1178 4134 
L 603 4134 
L 603 4863 
z
" transform="scale(0.015625)"/>
       <path id="DejaVuSans-72" d="M 2631 2963 
Q 2534 3019 2420 3045 
Q 2306 3072 2169 3072 
Q 1681 3072 1420 2755 
Q 1159 2438 1159 1844 
L 1159 0 
L 581 0 
L 581 3500 
L 1159 3500 
L 1159 2956 
Q 1341 3275 1631 3429 
Q 1922 3584 2338 3584 
Q 2397 3584 2469 3576 
Q 2541 3569 2628 3553 
L 2631 2963 
z
" transform="scale(0.015625)"/>
       <path id="DejaVuSans-74" d="M 1172 4494 
L 1172 3500 
L 2356 3500 
L 2356 3053 
L 1172 3053 
L 1172 1153 
Q 1172 725 1289 603 
Q 1406 481 1766 481 
L 2356 481 
L 2356 0 
L 1766 0 
Q 1100 0 847 248 
Q 594 497 594 1153 
L 594 3053 
L 172 3053 
L 172 3500 
L 594 3500 
L 594 4494 
L 1172 4494 
z
" transform="scale(0.015625)"/>
       <path id="DejaVuSans-68" d="M 3513 2113 
L 3513 0 
L 2938 0 
L 2938 2094 
Q 2938 2591 2744 2837 
Q 2550 3084 2163 3084 
Q 1697 3084 1428 2787 
Q 1159 2491 1159 1978 
L 1159 0 
L 581 0 
L 581 4863 
L 1159 4863 
L 1159 2956 
Q 1366 3272 1645 3428 
Q 1925 3584 2291 3584 
Q 2894 3584 3203 3211 
Q 3513 2838 3513 2113 
z
" transform="scale(0.015625)"/>
       <path id="DejaVuSans-5f" d="M 3263 -1063 
L 3263 -1509 
L -63 -1509 
L -63 -1063 
L 3263 -1063 
z
" transform="scale(0.015625)"/>
       <path id="DejaVuSans-6d" d="M 3328 2828 
Q 3544 3216 3844 3400 
Q 4144 3584 4550 3584 
Q 5097 3584 5394 3201 
Q 5691 2819 5691 2113 
L 5691 0 
L 5113 0 
L 5113 2094 
Q 5113 2597 4934 2840 
Q 4756 3084 4391 3084 
Q 3944 3084 3684 2787 
Q 3425 2491 3425 1978 
L 3425 0 
L 2847 0 
L 2847 2094 
Q 2847 2600 2669 2842 
Q 2491 3084 2119 3084 
Q 1678 3084 1418 2786 
Q 1159 2488 1159 1978 
L 1159 0 
L 581 0 
L 581 3500 
L 1159 3500 
L 1159 2956 
Q 1356 3278 1631 3431 
Q 1906 3584 2284 3584 
Q 2666 3584 2933 3390 
Q 3200 3197 3328 2828 
z
" transform="scale(0.015625)"/>
       <path id="DejaVuSans-65" d="M 3597 1894 
L 3597 1613 
L 953 1613 
Q 991 1019 1311 708 
Q 1631 397 2203 397 
Q 2534 397 2845 478 
Q 3156 559 3463 722 
L 3463 178 
Q 3153 47 2828 -22 
Q 2503 -91 2169 -91 
Q 1331 -91 842 396 
Q 353 884 353 1716 
Q 353 2575 817 3079 
Q 1281 3584 2069 3584 
Q 2775 3584 3186 3129 
Q 3597 2675 3597 1894 
z
M 3022 2063 
Q 3016 2534 2758 2815 
Q 2500 3097 2075 3097 
Q 1594 3097 1305 2825 
Q 1016 2553 972 2059 
L 3022 2063 
z
" transform="scale(0.015625)"/>
       <path id="DejaVuSans-20" transform="scale(0.015625)"/>
       <path id="DejaVuSans-5b" d="M 550 4863 
L 1875 4863 
L 1875 4416 
L 1125 4416 
L 1125 -397 
L 1875 -397 
L 1875 -844 
L 550 -844 
L 550 4863 
z
" transform="scale(0.015625)"/>
       <path id="DejaVuSans-b5" d="M 544 -1331 
L 544 3500 
L 1119 3500 
L 1119 1325 
Q 1119 872 1334 640 
Q 1550 409 1972 409 
Q 2434 409 2667 671 
Q 2900 934 2900 1459 
L 2900 3500 
L 3475 3500 
L 3475 806 
Q 3475 619 3529 530 
Q 3584 441 3700 441 
Q 3728 441 3778 458 
Q 3828 475 3916 513 
L 3916 50 
Q 3788 -22 3673 -56 
Q 3559 -91 3450 -91 
Q 3234 -91 3106 31 
Q 2978 153 2931 403 
Q 2775 156 2548 32 
Q 2322 -91 2016 -91 
Q 1697 -91 1473 31 
Q 1250 153 1119 397 
L 1119 -1331 
L 544 -1331 
z
" transform="scale(0.015625)"/>
       <path id="DejaVuSans-73" d="M 2834 3397 
L 2834 2853 
Q 2591 2978 2328 3040 
Q 2066 3103 1784 3103 
Q 1356 3103 1142 2972 
Q 928 2841 928 2578 
Q 928 2378 1081 2264 
Q 1234 2150 1697 2047 
L 1894 2003 
Q 2506 1872 2764 1633 
Q 3022 1394 3022 966 
Q 3022 478 2636 193 
Q 2250 -91 1575 -91 
Q 1294 -91 989 -36 
Q 684 19 347 128 
L 347 722 
Q 666 556 975 473 
Q 1284 391 1588 391 
Q 1994 391 2212 530 
Q 2431 669 2431 922 
Q 2431 1156 2273 1281 
Q 2116 1406 1581 1522 
L 1381 1569 
Q 847 1681 609 1914 
Q 372 2147 372 2553 
Q 372 3047 722 3315 
Q 1072 3584 1716 3584 
Q 2034 3584 2315 3537 
Q 2597 3491 2834 3397 
z
" transform="scale(0.015625)"/>
       <path id="DejaVuSans-5d" d="M 1947 4863 
L 1947 -844 
L 622 -844 
L 622 -397 
L 1369 -397 
L 1369 4416 
L 622 4416 
L 622 4863 
L 1947 4863 
z
" transform="scale(0.015625)"/>
      </defs>
      <use xlink:href="#DejaVuSans-62"/>
      <use xlink:href="#DejaVuSans-69" transform="translate(63.476562 0)"/>
      <use xlink:href="#DejaVuSans-72" transform="translate(91.259766 0)"/>
      <use xlink:href="#DejaVuSans-74" transform="translate(132.373047 0)"/>
      <use xlink:href="#DejaVuSans-68" transform="translate(171.582031 0)"/>
      <use xlink:href="#DejaVuSans-5f" transform="translate(234.960938 0)"/>
      <use xlink:href="#DejaVuSans-74" transform="translate(284.960938 0)"/>
      <use xlink:href="#DejaVuSans-69" transform="translate(324.169922 0)"/>
      <use xlink:href="#DejaVuSans-6d" transform="translate(351.953125 0)"/>
      <use xlink:href="#DejaVuSans-65" transform="translate(449.365234 0)"/>
      <use xlink:href="#DejaVuSans-20" transform="translate(510.888672 0)"/>
      <use xlink:href="#DejaVuSans-5b" transform="translate(542.675781 0)"/>
      <use xlink:href="#DejaVuSans-b5" transform="translate(581.689453 0)"/>
      <use xlink:href="#DejaVuSans-73" transform="translate(645.3125 0)"/>
      <use xlink:href="#DejaVuSans-5d" transform="translate(697.412109 0)"/>
     </g>
    </g>
   </g>
   <g id="matplotlib.axis_2">
    <g id="ytick_1">
     <g id="line2d_10">
      <defs>
       <path id="ma90295fca4" d="M 0 0 
L -3.5 0 
" style="stroke: #000000; stroke-width: 0.8"/>
      </defs>
      <g>
       <use xlink:href="#ma90295fca4" x="53.328125" y="253.850023" style="stroke: #000000; stroke-width: 0.8"/>
      </g>
     </g>
     <g id="text_11">
      <!-- 3150 -->
      <g transform="translate(20.878125 257.649241) scale(0.1 -0.1)">
       <use xlink:href="#DejaVuSans-33"/>
       <use xlink:href="#DejaVuSans-31" transform="translate(63.623047 0)"/>
       <use xlink:href="#DejaVuSans-35" transform="translate(127.246094 0)"/>
       <use xlink:href="#DejaVuSans-30" transform="translate(190.869141 0)"/>
      </g>
     </g>
    </g>
    <g id="ytick_2">
     <g id="line2d_11">
      <g>
       <use xlink:href="#ma90295fca4" x="53.328125" y="223.493672" style="stroke: #000000; stroke-width: 0.8"/>
      </g>
     </g>
     <g id="text_12">
      <!-- 3200 -->
      <g transform="translate(20.878125 227.292891) scale(0.1 -0.1)">
       <use xlink:href="#DejaVuSans-33"/>
       <use xlink:href="#DejaVuSans-32" transform="translate(63.623047 0)"/>
       <use xlink:href="#DejaVuSans-30" transform="translate(127.246094 0)"/>
       <use xlink:href="#DejaVuSans-30" transform="translate(190.869141 0)"/>
      </g>
     </g>
    </g>
    <g id="ytick_3">
     <g id="line2d_12">
      <g>
       <use xlink:href="#ma90295fca4" x="53.328125" y="193.137322" style="stroke: #000000; stroke-width: 0.8"/>
      </g>
     </g>
     <g id="text_13">
      <!-- 3250 -->
      <g transform="translate(20.878125 196.93654) scale(0.1 -0.1)">
       <use xlink:href="#DejaVuSans-33"/>
       <use xlink:href="#DejaVuSans-32" transform="translate(63.623047 0)"/>
       <use xlink:href="#DejaVuSans-35" transform="translate(127.246094 0)"/>
       <use xlink:href="#DejaVuSans-30" transform="translate(190.869141 0)"/>
      </g>
     </g>
    </g>
    <g id="ytick_4">
     <g id="line2d_13">
      <g>
       <use xlink:href="#ma90295fca4" x="53.328125" y="162.780971" style="stroke: #000000; stroke-width: 0.8"/>
      </g>
     </g>
     <g id="text_14">
      <!-- 3300 -->
      <g transform="translate(20.878125 166.58019) scale(0.1 -0.1)">
       <use xlink:href="#DejaVuSans-33"/>
       <use xlink:href="#DejaVuSans-33" transform="translate(63.623047 0)"/>
       <use xlink:href="#DejaVuSans-30" transform="translate(127.246094 0)"/>
       <use xlink:href="#DejaVuSans-30" transform="translate(190.869141 0)"/>
      </g>
     </g>
    </g>
    <g id="ytick_5">
     <g id="line2d_14">
      <g>
       <use xlink:href="#ma90295fca4" x="53.328125" y="132.424621" style="stroke: #000000; stroke-width: 0.8"/>
      </g>
     </g>
     <g id="text_15">
      <!-- 3350 -->
      <g transform="translate(20.878125 136.223839) scale(0.1 -0.1)">
       <use xlink:href="#DejaVuSans-33"/>
       <use xlink:href="#DejaVuSans-33" transform="translate(63.623047 0)"/>
       <use xlink:href="#DejaVuSans-35" transform="translate(127.246094 0)"/>
       <use xlink:href="#DejaVuSans-30" transform="translate(190.869141 0)"/>
      </g>
     </g>
    </g>
    <g id="ytick_6">
     <g id="line2d_15">
      <g>
       <use xlink:href="#ma90295fca4" x="53.328125" y="102.06827" style="stroke: #000000; stroke-width: 0.8"/>
      </g>
     </g>
     <g id="text_16">
      <!-- 3400 -->
      <g transform="translate(20.878125 105.867489) scale(0.1 -0.1)">
       <defs>
        <path id="DejaVuSans-34" d="M 2419 4116 
L 825 1625 
L 2419 1625 
L 2419 4116 
z
M 2253 4666 
L 3047 4666 
L 3047 1625 
L 3713 1625 
L 3713 1100 
L 3047 1100 
L 3047 0 
L 2419 0 
L 2419 1100 
L 313 1100 
L 313 1709 
L 2253 4666 
z
" transform="scale(0.015625)"/>
       </defs>
       <use xlink:href="#DejaVuSans-33"/>
       <use xlink:href="#DejaVuSans-34" transform="translate(63.623047 0)"/>
       <use xlink:href="#DejaVuSans-30" transform="translate(127.246094 0)"/>
       <use xlink:href="#DejaVuSans-30" transform="translate(190.869141 0)"/>
      </g>
     </g>
    </g>
    <g id="ytick_7">
     <g id="line2d_16">
      <g>
       <use xlink:href="#ma90295fca4" x="53.328125" y="71.71192" style="stroke: #000000; stroke-width: 0.8"/>
      </g>
     </g>
     <g id="text_17">
      <!-- 3450 -->
      <g transform="translate(20.878125 75.511138) scale(0.1 -0.1)">
       <use xlink:href="#DejaVuSans-33"/>
       <use xlink:href="#DejaVuSans-34" transform="translate(63.623047 0)"/>
       <use xlink:href="#DejaVuSans-35" transform="translate(127.246094 0)"/>
       <use xlink:href="#DejaVuSans-30" transform="translate(190.869141 0)"/>
      </g>
     </g>
    </g>
    <g id="ytick_8">
     <g id="line2d_17">
      <g>
       <use xlink:href="#ma90295fca4" x="53.328125" y="41.355569" style="stroke: #000000; stroke-width: 0.8"/>
      </g>
     </g>
     <g id="text_18">
      <!-- 3500 -->
      <g transform="translate(20.878125 45.154788) scale(0.1 -0.1)">
       <use xlink:href="#DejaVuSans-33"/>
       <use xlink:href="#DejaVuSans-35" transform="translate(63.623047 0)"/>
       <use xlink:href="#DejaVuSans-30" transform="translate(127.246094 0)"/>
       <use xlink:href="#DejaVuSans-30" transform="translate(190.869141 0)"/>
      </g>
     </g>
    </g>
    <g id="ytick_9">
     <g id="line2d_18">
      <g>
       <use xlink:href="#ma90295fca4" x="53.328125" y="10.999219" style="stroke: #000000; stroke-width: 0.8"/>
      </g>
     </g>
     <g id="text_19">
      <!-- 3550 -->
      <g transform="translate(20.878125 14.798438) scale(0.1 -0.1)">
       <use xlink:href="#DejaVuSans-33"/>
       <use xlink:href="#DejaVuSans-35" transform="translate(63.623047 0)"/>
       <use xlink:href="#DejaVuSans-35" transform="translate(127.246094 0)"/>
       <use xlink:href="#DejaVuSans-30" transform="translate(190.869141 0)"/>
      </g>
     </g>
    </g>
    <g id="text_20">
     <!-- pulse:0 [counts] -->
     <g transform="translate(14.798438 174.422907) rotate(-90) scale(0.1 -0.1)">
      <defs>
       <path id="DejaVuSans-70" d="M 1159 525 
L 1159 -1331 
L 581 -1331 
L 581 3500 
L 1159 3500 
L 1159 2969 
Q 1341 3281 1617 3432 
Q 1894 3584 2278 3584 
Q 2916 3584 3314 3078 
Q 3713 2572 3713 1747 
Q 3713 922 3314 415 
Q 2916 -91 2278 -91 
Q 1894 -91 1617 61 
Q 1341 213 1159 525 
z
M 3116 1747 
Q 3116 2381 2855 2742 
Q 2594 3103 2138 3103 
Q 1681 3103 1420 2742 
Q 1159 2381 1159 1747 
Q 1159 1113 1420 752 
Q 1681 391 2138 391 
Q 2594 391 2855 752 
Q 3116 1113 3116 1747 
z
" transform="scale(0.015625)"/>
       <path id="DejaVuSans-75" d="M 544 1381 
L 544 3500 
L 1119 3500 
L 1119 1403 
Q 1119 906 1312 657 
Q 1506 409 1894 409 
Q 2359 409 2629 706 
Q 2900 1003 2900 1516 
L 2900 3500 
L 3475 3500 
L 3475 0 
L 2900 0 
L 2900 538 
Q 2691 219 2414 64 
Q 2138 -91 1772 -91 
Q 1169 -91 856 284 
Q 544 659 544 1381 
z
M 1991 3584 
L 1991 3584 
z
" transform="scale(0.015625)"/>
       <path id="DejaVuSans-6c" d="M 603 4863 
L 1178 4863 
L 1178 0 
L 603 0 
L 603 4863 
z
" transform="scale(0.015625)"/>
       <path id="DejaVuSans-3a" d="M 750 794 
L 1409 794 
L 1409 0 
L 750 0 
L 750 794 
z
M 750 3309 
L 1409 3309 
L 1409 2516 
L 750 2516 
L 750 3309 
z
" transform="scale(0.015625)"/>
       <path id="DejaVuSans-63" d="M 3122 3366 
L 3122 2828 
Q 2878 2963 2633 3030 
Q 2388 3097 2138 3097 
Q 1578 3097 1268 2742 
Q 959 2388 959 1747 
Q 959 1106 1268 751 
Q 1578 397 2138 397 
Q 2388 397 2633 464 
Q 2878 531 3122 666 
L 3122 134 
Q 2881 22 2623 -34 
Q 2366 -91 2075 -91 
Q 1284 -91 818 406 
Q 353 903 353 1747 
Q 353 2603 823 3093 
Q 1294 3584 2113 3584 
Q 2378 3584 2631 3529 
Q 2884 3475 3122 3366 
z
" transform="scale(0.015625)"/>
       <path id="DejaVuSans-6f" d="M 1959 3097 
Q 1497 3097 1228 2736 
Q 959 2375 959 1747 
Q 959 1119 1226 758 
Q 1494 397 1959 397 
Q 2419 397 2687 759 
Q 2956 1122 2956 1747 
Q 2956 2369 2687 2733 
Q 2419 3097 1959 3097 
z
M 1959 3584 
Q 2709 3584 3137 3096 
Q 3566 2609 3566 1747 
Q 3566 888 3137 398 
Q 2709 -91 1959 -91 
Q 1206 -91 779 398 
Q 353 888 353 1747 
Q 353 2609 779 3096 
Q 1206 3584 1959 3584 
z
" transform="scale(0.015625)"/>
       <path id="DejaVuSans-6e" d="M 3513 2113 
L 3513 0 
L 2938 0 
L 2938 2094 
Q 2938 2591 2744 2837 
Q 2550 3084 2163 3084 
Q 1697 3084 1428 2787 
Q 1159 2491 1159 1978 
L 1159 0 
L 581 0 
L 581 3500 
L 1159 3500 
L 1159 2956 
Q 1366 3272 1645 3428 
Q 1925 3584 2291 3584 
Q 2894 3584 3203 3211 
Q 3513 2838 3513 2113 
z
" transform="scale(0.015625)"/>
      </defs>
      <use xlink:href="#DejaVuSans-70"/>
      <use xlink:href="#DejaVuSans-75" transform="translate(63.476562 0)"/>
      <use xlink:href="#DejaVuSans-6c" transform="translate(126.855469 0)"/>
      <use xlink:href="#DejaVuSans-73" transform="translate(154.638672 0)"/>
      <use xlink:href="#DejaVuSans-65" transform="translate(206.738281 0)"/>
      <use xlink:href="#DejaVuSans-3a" transform="translate(268.261719 0)"/>
      <use xlink:href="#DejaVuSans-30" transform="translate(301.953125 0)"/>
      <use xlink:href="#DejaVuSans-20" transform="translate(365.576172 0)"/>
      <use xlink:href="#DejaVuSans-5b" transform="translate(397.363281 0)"/>
      <use xlink:href="#DejaVuSans-63" transform="translate(436.376953 0)"/>
      <use xlink:href="#DejaVuSans-6f" transform="translate(491.357422 0)"/>
      <use xlink:href="#DejaVuSans-75" transform="translate(552.539062 0)"/>
      <use xlink:href="#DejaVuSans-6e" transform="translate(615.917969 0)"/>
      <use xlink:href="#DejaVuSans-74" transform="translate(679.296875 0)"/>
      <use xlink:href="#DejaVuSans-73" transform="translate(718.505859 0)"/>
      <use xlink:href="#DejaVuSans-5d" transform="translate(770.605469 0)"/>
     </g>
    </g>
   </g>
   <g id="line2d_19">
    <path d="M 69.749563 115.425064 
L 70.844325 115.425064 
L 70.844325 151.245558 
L 71.939088 151.245558 
L 71.939088 137.888764 
L 73.033851 137.888764 
L 73.033851 88.711476 
L 74.128613 88.711476 
L 74.128613 163.995225 
L 75.223376 163.995225 
L 75.223376 122.710588 
L 76.318138 122.710588 
L 76.318138 107.532413 
L 77.412901 107.532413 
L 77.412901 133.031748 
L 78.507663 133.031748 
L 78.507663 152.459812 
L 79.602426 152.459812 
L 79.602426 122.103461 
L 80.697188 122.103461 
L 80.697188 140.317272 
L 81.791951 140.317272 
L 81.791951 148.209923 
L 82.886713 148.209923 
L 82.886713 145.174288 
L 83.981476 145.174288 
L 83.981476 200.422846 
L 85.076238 200.422846 
L 85.076238 182.816162 
L 86.171001 182.816162 
L 86.171001 139.710145 
L 87.265763 139.710145 
L 87.265763 165.816606 
L 88.360526 165.816606 
L 88.360526 118.460699 
L 89.455289 118.460699 
L 89.455289 185.24467 
L 90.550051 185.24467 
L 90.550051 137.888764 
L 91.644814 137.888764 
L 91.644814 167.637987 
L 92.739576 167.637987 
L 92.739576 164.602352 
L 93.834339 164.602352 
L 93.834339 90.532857 
L 94.929101 90.532857 
L 94.929101 180.387654 
L 96.023864 180.387654 
L 96.023864 137.281637 
L 97.118626 137.281637 
L 97.118626 112.389429 
L 98.213389 112.389429 
L 98.213389 174.316384 
L 99.308151 174.316384 
L 99.308151 116.032191 
L 100.402914 116.032191 
L 100.402914 108.13954 
L 101.497676 108.13954 
L 101.497676 122.103461 
L 102.592439 122.103461 
L 102.592439 151.245558 
L 103.687201 151.245558 
L 103.687201 89.92573 
L 104.781964 89.92573 
L 104.781964 126.353351 
L 105.876726 126.353351 
L 105.876726 99.639762 
L 106.971489 99.639762 
L 106.971489 155.495447 
L 108.066252 155.495447 
L 108.066252 172.495003 
L 109.161014 172.495003 
L 109.161014 162.780971 
L 110.255777 162.780971 
L 110.255777 105.103905 
L 111.350539 105.103905 
L 111.350539 162.173844 
L 112.445302 162.173844 
L 112.445302 173.10213 
L 113.540064 173.10213 
L 113.540064 120.28208 
L 114.634827 120.28208 
L 114.634827 173.10213 
L 115.729589 173.10213 
L 115.729589 99.639762 
L 116.824352 99.639762 
L 116.824352 82.640206 
L 117.919114 82.640206 
L 117.919114 128.781859 
L 119.013877 128.781859 
L 119.013877 149.424177 
L 120.108639 149.424177 
L 120.108639 238.06472 
L 121.203402 238.06472 
L 121.203402 103.282524 
L 122.298164 103.282524 
L 122.298164 58.355125 
L 123.392927 58.355125 
L 123.392927 172.495003 
L 124.487689 172.495003 
L 124.487689 143.352907 
L 125.582452 143.352907 
L 125.582452 111.175175 
L 126.677215 111.175175 
L 126.677215 174.923511 
L 127.771977 174.923511 
L 127.771977 88.104349 
L 128.86674 88.104349 
L 128.86674 98.425508 
L 129.961502 98.425508 
L 129.961502 169.459368 
L 131.056265 169.459368 
L 131.056265 183.423289 
L 132.151027 183.423289 
L 132.151027 108.13954 
L 133.24579 108.13954 
L 133.24579 150.638431 
L 134.340552 150.638431 
L 134.340552 98.425508 
L 135.435315 98.425508 
L 135.435315 84.461587 
L 136.530077 84.461587 
L 136.530077 133.031748 
L 137.62484 133.031748 
L 137.62484 112.996556 
L 138.719602 112.996556 
L 138.719602 167.03086 
L 139.814365 167.03086 
L 139.814365 166.423733 
L 140.909127 166.423733 
L 140.909127 113.603683 
L 142.00389 113.603683 
L 142.00389 170.673622 
L 143.098652 170.673622 
L 143.098652 136.67451 
L 144.193415 136.67451 
L 144.193415 169.459368 
L 145.288178 169.459368 
L 145.288178 177.959146 
L 146.38294 177.959146 
L 146.38294 150.638431 
L 147.477703 150.638431 
L 147.477703 170.066495 
L 148.572465 170.066495 
L 148.572465 174.316384 
L 149.667228 174.316384 
L 149.667228 138.495891 
L 150.76199 138.495891 
L 150.76199 160.352463 
L 151.856753 160.352463 
L 151.856753 163.995225 
L 152.951515 163.995225 
L 152.951515 126.353351 
L 154.046278 126.353351 
L 154.046278 145.174288 
L 155.14104 145.174288 
L 155.14104 182.209035 
L 156.235803 182.209035 
L 156.235803 89.92573 
L 157.330565 89.92573 
L 157.330565 147.602796 
L 158.425328 147.602796 
L 158.425328 109.960921 
L 159.52009 109.960921 
L 159.52009 55.31949 
L 160.614853 55.31949 
L 160.614853 128.174732 
L 161.709615 128.174732 
L 161.709615 85.068714 
L 162.804378 85.068714 
L 162.804378 245.957371 
L 163.899141 245.957371 
L 163.899141 160.95959 
L 164.993903 160.95959 
L 164.993903 155.495447 
L 166.088666 155.495447 
L 166.088666 150.031304 
L 167.183428 150.031304 
L 167.183428 241.707482 
L 168.278191 241.707482 
L 168.278191 168.245114 
L 169.372953 168.245114 
L 169.372953 130.60324 
L 170.467716 130.60324 
L 170.467716 180.387654 
L 171.562478 180.387654 
L 171.562478 120.28208 
L 172.657241 120.28208 
L 172.657241 154.88832 
L 173.752003 154.88832 
L 173.752003 150.031304 
L 174.846766 150.031304 
L 174.846766 167.637987 
L 175.941528 167.637987 
L 175.941528 165.209479 
L 177.036291 165.209479 
L 177.036291 141.531526 
L 178.131053 141.531526 
L 178.131053 137.281637 
L 179.225816 137.281637 
L 179.225816 166.423733 
L 180.320579 166.423733 
L 180.320579 181.601908 
L 181.415341 181.601908 
L 181.415341 114.817937 
L 182.510104 114.817937 
L 182.510104 125.139097 
L 183.604866 125.139097 
L 183.604866 132.424621 
L 184.699629 132.424621 
L 184.699629 165.209479 
L 185.794391 165.209479 
L 185.794391 116.639318 
L 186.889154 116.639318 
L 186.889154 160.352463 
L 187.983916 160.352463 
L 187.983916 152.459812 
L 189.078679 152.459812 
L 189.078679 177.352019 
L 190.173441 177.352019 
L 190.173441 145.781415 
L 191.268204 145.781415 
L 191.268204 159.138209 
L 192.362966 159.138209 
L 192.362966 208.922624 
L 193.457729 208.922624 
L 193.457729 165.209479 
L 194.552491 165.209479 
L 194.552491 131.817494 
L 195.647254 131.817494 
L 195.647254 116.639318 
L 196.742016 116.639318 
L 196.742016 133.638875 
L 197.836779 133.638875 
L 197.836779 153.066939 
L 198.931542 153.066939 
L 198.931542 95.389873 
L 200.026304 95.389873 
L 200.026304 136.067383 
L 201.121067 136.067383 
L 201.121067 218.636656 
L 202.215829 218.636656 
L 202.215829 144.567161 
L 203.310592 144.567161 
L 203.310592 164.602352 
L 204.405354 164.602352 
L 204.405354 184.030416 
L 205.500117 184.030416 
L 205.500117 189.49456 
L 206.594879 189.49456 
L 206.594879 136.67451 
L 207.689642 136.67451 
L 207.689642 112.389429 
L 208.784404 112.389429 
L 208.784404 184.637543 
L 209.879167 184.637543 
L 209.879167 185.24467 
L 210.973929 185.24467 
L 210.973929 124.53197 
L 212.068692 124.53197 
L 212.068692 89.318603 
L 213.163454 89.318603 
L 213.163454 148.81705 
L 214.258217 148.81705 
L 214.258217 124.53197 
L 215.352979 124.53197 
L 215.352979 179.780527 
L 216.447742 179.780527 
L 216.447742 213.77964 
L 217.542505 213.77964 
L 217.542505 167.03086 
L 218.637267 167.03086 
L 218.637267 143.352907 
L 219.73203 143.352907 
L 219.73203 144.567161 
L 220.826792 144.567161 
L 220.826792 164.602352 
L 221.921555 164.602352 
L 221.921555 95.389873 
L 223.016317 95.389873 
L 223.016317 138.495891 
L 224.11108 138.495891 
L 224.11108 129.996113 
L 225.205842 129.996113 
L 225.205842 129.388986 
L 226.300605 129.388986 
L 226.300605 157.923955 
L 227.395367 157.923955 
L 227.395367 230.172069 
L 228.49013 230.172069 
L 228.49013 160.95959 
L 229.584892 160.95959 
L 229.584892 142.74578 
L 230.679655 142.74578 
L 230.679655 173.10213 
L 231.774417 173.10213 
L 231.774417 104.496778 
L 232.86918 104.496778 
L 232.86918 123.317715 
L 233.963942 123.317715 
L 233.963942 151.852685 
L 235.058705 151.852685 
L 235.058705 136.067383 
L 236.153468 136.067383 
L 236.153468 127.567605 
L 237.24823 127.567605 
L 237.24823 114.817937 
L 238.342993 114.817937 
L 238.342993 130.60324 
L 239.437755 130.60324 
L 239.437755 126.353351 
L 240.532518 126.353351 
L 240.532518 144.567161 
L 241.62728 144.567161 
L 241.62728 122.103461 
L 242.722043 122.103461 
L 242.722043 123.924842 
L 243.816805 123.924842 
L 243.816805 148.81705 
L 244.911568 148.81705 
L 244.911568 126.960478 
L 246.00633 126.960478 
L 246.00633 122.710588 
L 247.101093 122.710588 
L 247.101093 154.281193 
L 248.195855 154.281193 
L 248.195855 105.711032 
L 249.290618 105.711032 
L 249.290618 223.493672 
L 250.38538 223.493672 
L 250.38538 156.709701 
L 251.480143 156.709701 
L 251.480143 98.425508 
L 252.574906 98.425508 
L 252.574906 159.745336 
L 253.669668 159.745336 
L 253.669668 137.888764 
L 254.764431 137.888764 
L 254.764431 139.103018 
L 255.859193 139.103018 
L 255.859193 104.496778 
L 256.953956 104.496778 
L 256.953956 106.318159 
L 258.048718 106.318159 
L 258.048718 194.958703 
L 259.143481 194.958703 
L 259.143481 119.674953 
L 260.238243 119.674953 
L 260.238243 156.709701 
L 261.333006 156.709701 
L 261.333006 90.532857 
L 262.427768 90.532857 
L 262.427768 117.853572 
L 263.522531 117.853572 
L 263.522531 197.387211 
L 264.617293 197.387211 
L 264.617293 112.996556 
L 265.712056 112.996556 
L 265.712056 130.60324 
L 266.806818 130.60324 
L 266.806818 177.959146 
L 267.901581 177.959146 
L 267.901581 138.495891 
L 268.996343 138.495891 
L 268.996343 169.459368 
L 270.091106 169.459368 
L 270.091106 139.103018 
L 271.185869 139.103018 
L 271.185869 137.888764 
L 272.280631 137.888764 
L 272.280631 127.567605 
L 273.375394 127.567605 
L 273.375394 179.780527 
L 274.470156 179.780527 
L 274.470156 159.745336 
L 275.564919 159.745336 
L 275.564919 138.495891 
L 276.659681 138.495891 
L 276.659681 134.246002 
L 277.754444 134.246002 
L 277.754444 171.887876 
L 278.849206 171.887876 
L 278.849206 131.817494 
L 279.943969 131.817494 
L 279.943969 121.496334 
L 281.038731 121.496334 
L 281.038731 108.746667 
L 282.133494 108.746667 
L 282.133494 159.138209 
L 283.228256 159.138209 
L 283.228256 152.459812 
L 284.323019 152.459812 
L 284.323019 151.245558 
L 285.417781 151.245558 
L 285.417781 96.604127 
L 286.512544 96.604127 
L 286.512544 160.95959 
L 287.607306 160.95959 
L 287.607306 112.996556 
L 288.702069 112.996556 
L 288.702069 194.958703 
L 289.796832 194.958703 
L 289.796832 112.389429 
L 290.891594 112.389429 
L 290.891594 214.993894 
L 291.986357 214.993894 
L 291.986357 150.031304 
L 293.081119 150.031304 
L 293.081119 109.353794 
L 294.175882 109.353794 
L 294.175882 124.53197 
L 295.270644 124.53197 
L 295.270644 21.927505 
L 296.365407 21.927505 
L 296.365407 155.495447 
L 297.460169 155.495447 
L 297.460169 167.637987 
L 298.554932 167.637987 
L 298.554932 77.176063 
L 299.649694 77.176063 
L 299.649694 190.101687 
L 300.744457 190.101687 
L 300.744457 164.602352 
L 301.839219 164.602352 
L 301.839219 153.066939 
L 302.933982 153.066939 
L 302.933982 128.174732 
L 304.028744 128.174732 
L 304.028744 131.210367 
L 305.123507 131.210367 
L 305.123507 195.56583 
L 306.218269 195.56583 
L 306.218269 207.70837 
L 307.313032 207.70837 
L 307.313032 97.818381 
L 308.407795 97.818381 
L 308.407795 182.816162 
L 309.502557 182.816162 
L 309.502557 157.923955 
L 310.59732 157.923955 
L 310.59732 99.032635 
L 311.692082 99.032635 
L 311.692082 50.462474 
L 312.786845 50.462474 
L 312.786845 176.744892 
L 313.881607 176.744892 
L 313.881607 185.851797 
L 314.97637 185.851797 
L 314.97637 213.77964 
L 316.071132 213.77964 
L 316.071132 190.708814 
L 317.165895 190.708814 
L 317.165895 157.316828 
L 318.260657 157.316828 
L 318.260657 134.246002 
L 319.35542 134.246002 
L 319.35542 122.710588 
L 320.450182 122.710588 
L 320.450182 72.926174 
L 321.544945 72.926174 
L 321.544945 140.924399 
L 322.639707 140.924399 
L 322.639707 136.067383 
L 323.73447 136.067383 
L 323.73447 145.781415 
L 324.829233 145.781415 
L 324.829233 134.853129 
L 325.923995 134.853129 
L 325.923995 180.994781 
L 327.018758 180.994781 
L 327.018758 182.209035 
L 328.11352 182.209035 
L 328.11352 109.353794 
L 329.208283 109.353794 
L 329.208283 185.24467 
L 330.303045 185.24467 
L 330.303045 199.208592 
L 331.397808 199.208592 
L 331.397808 168.852241 
L 332.49257 168.852241 
L 332.49257 187.673178 
L 333.587333 187.673178 
L 333.587333 174.316384 
L 334.682095 174.316384 
L 334.682095 159.745336 
L 335.776858 159.745336 
L 335.776858 148.209923 
L 336.87162 148.209923 
L 336.87162 171.887876 
L 337.966383 171.887876 
L 337.966383 178.566273 
L 339.061145 178.566273 
L 339.061145 140.924399 
L 340.155908 140.924399 
L 340.155908 123.317715 
L 341.25067 123.317715 
L 341.25067 119.067826 
L 342.345433 119.067826 
L 342.345433 159.138209 
L 343.440196 159.138209 
L 343.440196 185.851797 
L 344.534958 185.851797 
L 344.534958 79.604571 
L 345.629721 79.604571 
L 345.629721 126.960478 
L 346.724483 126.960478 
L 346.724483 162.173844 
L 347.819246 162.173844 
L 347.819246 90.532857 
L 348.914008 90.532857 
L 348.914008 98.425508 
L 350.008771 98.425508 
L 350.008771 128.781859 
L 351.103533 128.781859 
L 351.103533 97.818381 
L 352.198296 97.818381 
L 352.198296 117.853572 
L 353.293058 117.853572 
L 353.293058 87.497222 
L 354.387821 87.497222 
L 354.387821 133.638875 
L 355.482583 133.638875 
L 355.482583 150.031304 
L 356.577346 150.031304 
L 356.577346 185.24467 
L 357.672108 185.24467 
L 357.672108 91.747111 
L 358.766871 91.747111 
L 358.766871 114.817937 
L 359.861633 114.817937 
L 359.861633 172.495003 
L 360.956396 172.495003 
L 360.956396 75.354682 
L 362.051159 75.354682 
L 362.051159 133.031748 
L 363.145921 133.031748 
L 363.145921 142.74578 
L 364.240684 142.74578 
L 364.240684 95.389873 
L 365.335446 95.389873 
L 365.335446 102.06827 
L 366.430209 102.06827 
L 366.430209 91.747111 
L 367.524971 91.747111 
L 367.524971 118.460699 
L 368.619734 118.460699 
L 368.619734 103.282524 
L 369.714496 103.282524 
L 369.714496 136.067383 
L 370.809259 136.067383 
L 370.809259 171.280749 
L 371.904021 171.280749 
L 371.904021 137.281637 
L 372.998784 137.281637 
L 372.998784 153.066939 
L 374.093546 153.066939 
L 374.093546 143.352907 
L 375.188309 143.352907 
L 375.188309 72.319047 
L 376.283071 72.319047 
L 376.283071 145.174288 
L 377.377834 145.174288 
L 377.377834 199.208592 
L 378.472596 199.208592 
L 378.472596 149.424177 
L 379.567359 149.424177 
L 379.567359 114.817937 
L 380.662122 114.817937 
L 380.662122 162.780971 
L 381.756884 162.780971 
L 381.756884 103.889651 
L 382.851647 103.889651 
L 382.851647 90.532857 
L 383.946409 90.532857 
L 383.946409 49.24822 
L 385.041172 49.24822 
L 385.041172 199.208592 
L 386.135934 199.208592 
L 386.135934 125.746224 
L 387.230697 125.746224 
L 387.230697 213.172513 
L 388.325459 213.172513 
L 388.325459 168.852241 
L 389.420222 168.852241 
L 389.420222 173.709257 
L 390.514984 173.709257 
L 390.514984 120.28208 
L 391.609747 120.28208 
L 391.609747 171.280749 
L 392.704509 171.280749 
L 392.704509 168.245114 
L 393.799272 168.245114 
L 393.799272 212.565386 
L 394.894034 212.565386 
L 394.894034 74.140428 
L 395.988797 74.140428 
L 395.988797 80.211698 
L 397.08356 80.211698 
L 397.08356 142.74578 
L 398.178322 142.74578 
L 398.178322 142.74578 
" clip-path="url(#p114d1ac958)" style="fill: none; stroke: #1f77b4; stroke-width: 1.5; stroke-linecap: square"/>
   </g>
   <g id="patch_3">
    <path d="M 53.328125 257.158865 
L 53.328125 10.726012 
" style="fill: none; stroke: #000000; stroke-width: 0.8; stroke-linejoin: miter; stroke-linecap: square"/>
   </g>
   <g id="patch_4">
    <path d="M 414.59976 257.158865 
L 414.59976 10.726012 
" style="fill: none; stroke: #000000; stroke-width: 0.8; stroke-linejoin: miter; stroke-linecap: square"/>
   </g>
   <g id="patch_5">
    <path d="M 53.328125 257.158865 
L 414.59976 257.158865 
" style="fill: none; stroke: #000000; stroke-width: 0.8; stroke-linejoin: miter; stroke-linecap: square"/>
   </g>
   <g id="patch_6">
    <path d="M 53.328125 10.726012 
L 414.59976 10.726012 
" style="fill: none; stroke: #000000; stroke-width: 0.8; stroke-linejoin: miter; stroke-linecap: square"/>
   </g>
  </g>
  <g id="axes_2">
   <g id="patch_7">
    <path d="M 503.927885 257.158865 
L 865.19952 257.158865 
L 865.19952 10.726012 
L 503.927885 10.726012 
z
" style="fill: #ffffff"/>
   </g>
   <g id="matplotlib.axis_3">
    <g id="xtick_10">
     <g id="line2d_20">
      <g>
       <use xlink:href="#m71a8a702c1" x="556.840669" y="257.158865" style="stroke: #000000; stroke-width: 0.8"/>
      </g>
     </g>
     <g id="text_21">
      <!-- 2 -->
      <g transform="translate(553.659419 271.757302) scale(0.1 -0.1)">
       <use xlink:href="#DejaVuSans-32"/>
      </g>
     </g>
    </g>
    <g id="xtick_11">
     <g id="line2d_21">
      <g>
       <use xlink:href="#m71a8a702c1" x="629.825109" y="257.158865" style="stroke: #000000; stroke-width: 0.8"/>
      </g>
     </g>
     <g id="text_22">
      <!-- 4 -->
      <g transform="translate(626.643859 271.757302) scale(0.1 -0.1)">
       <use xlink:href="#DejaVuSans-34"/>
      </g>
     </g>
    </g>
    <g id="xtick_12">
     <g id="line2d_22">
      <g>
       <use xlink:href="#m71a8a702c1" x="702.809549" y="257.158865" style="stroke: #000000; stroke-width: 0.8"/>
      </g>
     </g>
     <g id="text_23">
      <!-- 6 -->
      <g transform="translate(699.628299 271.757302) scale(0.1 -0.1)">
       <defs>
        <path id="DejaVuSans-36" d="M 2113 2584 
Q 1688 2584 1439 2293 
Q 1191 2003 1191 1497 
Q 1191 994 1439 701 
Q 1688 409 2113 409 
Q 2538 409 2786 701 
Q 3034 994 3034 1497 
Q 3034 2003 2786 2293 
Q 2538 2584 2113 2584 
z
M 3366 4563 
L 3366 3988 
Q 3128 4100 2886 4159 
Q 2644 4219 2406 4219 
Q 1781 4219 1451 3797 
Q 1122 3375 1075 2522 
Q 1259 2794 1537 2939 
Q 1816 3084 2150 3084 
Q 2853 3084 3261 2657 
Q 3669 2231 3669 1497 
Q 3669 778 3244 343 
Q 2819 -91 2113 -91 
Q 1303 -91 875 529 
Q 447 1150 447 2328 
Q 447 3434 972 4092 
Q 1497 4750 2381 4750 
Q 2619 4750 2861 4703 
Q 3103 4656 3366 4563 
z
" transform="scale(0.015625)"/>
       </defs>
       <use xlink:href="#DejaVuSans-36"/>
      </g>
     </g>
    </g>
    <g id="xtick_13">
     <g id="line2d_23">
      <g>
       <use xlink:href="#m71a8a702c1" x="775.793988" y="257.158865" style="stroke: #000000; stroke-width: 0.8"/>
      </g>
     </g>
     <g id="text_24">
      <!-- 8 -->
      <g transform="translate(772.612738 271.757302) scale(0.1 -0.1)">
       <defs>
        <path id="DejaVuSans-38" d="M 2034 2216 
Q 1584 2216 1326 1975 
Q 1069 1734 1069 1313 
Q 1069 891 1326 650 
Q 1584 409 2034 409 
Q 2484 409 2743 651 
Q 3003 894 3003 1313 
Q 3003 1734 2745 1975 
Q 2488 2216 2034 2216 
z
M 1403 2484 
Q 997 2584 770 2862 
Q 544 3141 544 3541 
Q 544 4100 942 4425 
Q 1341 4750 2034 4750 
Q 2731 4750 3128 4425 
Q 3525 4100 3525 3541 
Q 3525 3141 3298 2862 
Q 3072 2584 2669 2484 
Q 3125 2378 3379 2068 
Q 3634 1759 3634 1313 
Q 3634 634 3220 271 
Q 2806 -91 2034 -91 
Q 1263 -91 848 271 
Q 434 634 434 1313 
Q 434 1759 690 2068 
Q 947 2378 1403 2484 
z
M 1172 3481 
Q 1172 3119 1398 2916 
Q 1625 2713 2034 2713 
Q 2441 2713 2670 2916 
Q 2900 3119 2900 3481 
Q 2900 3844 2670 4047 
Q 2441 4250 2034 4250 
Q 1625 4250 1398 4047 
Q 1172 3844 1172 3481 
z
" transform="scale(0.015625)"/>
       </defs>
       <use xlink:href="#DejaVuSans-38"/>
      </g>
     </g>
    </g>
    <g id="xtick_14">
     <g id="line2d_24">
      <g>
       <use xlink:href="#m71a8a702c1" x="848.778428" y="257.158865" style="stroke: #000000; stroke-width: 0.8"/>
      </g>
     </g>
     <g id="text_25">
      <!-- 10 -->
      <g transform="translate(842.415928 271.757302) scale(0.1 -0.1)">
       <use xlink:href="#DejaVuSans-31"/>
       <use xlink:href="#DejaVuSans-30" transform="translate(63.623047 0)"/>
      </g>
     </g>
    </g>
    <g id="text_26">
     <!-- wavelength [Å] -->
     <g transform="translate(646.526202 287.119802) scale(0.1 -0.1)">
      <defs>
       <path id="DejaVuSans-77" d="M 269 3500 
L 844 3500 
L 1563 769 
L 2278 3500 
L 2956 3500 
L 3675 769 
L 4391 3500 
L 4966 3500 
L 4050 0 
L 3372 0 
L 2619 2869 
L 1863 0 
L 1184 0 
L 269 3500 
z
" transform="scale(0.015625)"/>
       <path id="DejaVuSans-61" d="M 2194 1759 
Q 1497 1759 1228 1600 
Q 959 1441 959 1056 
Q 959 750 1161 570 
Q 1363 391 1709 391 
Q 2188 391 2477 730 
Q 2766 1069 2766 1631 
L 2766 1759 
L 2194 1759 
z
M 3341 1997 
L 3341 0 
L 2766 0 
L 2766 531 
Q 2569 213 2275 61 
Q 1981 -91 1556 -91 
Q 1019 -91 701 211 
Q 384 513 384 1019 
Q 384 1609 779 1909 
Q 1175 2209 1959 2209 
L 2766 2209 
L 2766 2266 
Q 2766 2663 2505 2880 
Q 2244 3097 1772 3097 
Q 1472 3097 1187 3025 
Q 903 2953 641 2809 
L 641 3341 
Q 956 3463 1253 3523 
Q 1550 3584 1831 3584 
Q 2591 3584 2966 3190 
Q 3341 2797 3341 1997 
z
" transform="scale(0.015625)"/>
       <path id="DejaVuSans-76" d="M 191 3500 
L 800 3500 
L 1894 563 
L 2988 3500 
L 3597 3500 
L 2284 0 
L 1503 0 
L 191 3500 
z
" transform="scale(0.015625)"/>
       <path id="DejaVuSans-67" d="M 2906 1791 
Q 2906 2416 2648 2759 
Q 2391 3103 1925 3103 
Q 1463 3103 1205 2759 
Q 947 2416 947 1791 
Q 947 1169 1205 825 
Q 1463 481 1925 481 
Q 2391 481 2648 825 
Q 2906 1169 2906 1791 
z
M 3481 434 
Q 3481 -459 3084 -895 
Q 2688 -1331 1869 -1331 
Q 1566 -1331 1297 -1286 
Q 1028 -1241 775 -1147 
L 775 -588 
Q 1028 -725 1275 -790 
Q 1522 -856 1778 -856 
Q 2344 -856 2625 -561 
Q 2906 -266 2906 331 
L 2906 616 
Q 2728 306 2450 153 
Q 2172 0 1784 0 
Q 1141 0 747 490 
Q 353 981 353 1791 
Q 353 2603 747 3093 
Q 1141 3584 1784 3584 
Q 2172 3584 2450 3431 
Q 2728 3278 2906 2969 
L 2906 3500 
L 3481 3500 
L 3481 434 
z
" transform="scale(0.015625)"/>
       <path id="DejaVuSans-c5" d="M 2663 5081 
Q 2663 5278 2523 5417 
Q 2384 5556 2188 5556 
Q 1988 5556 1852 5420 
Q 1716 5284 1716 5081 
Q 1716 4884 1853 4746 
Q 1991 4609 2188 4609 
Q 2384 4609 2523 4746 
Q 2663 4884 2663 5081 
z
M 2188 4044 
L 1338 1722 
L 3041 1722 
L 2188 4044 
z
M 1716 4366 
Q 1525 4494 1428 4673 
Q 1331 4853 1331 5081 
Q 1331 5441 1579 5691 
Q 1828 5941 2188 5941 
Q 2544 5941 2795 5689 
Q 3047 5438 3047 5081 
Q 3047 4863 2948 4678 
Q 2850 4494 2663 4366 
L 4325 0 
L 3669 0 
L 3244 1197 
L 1141 1197 
L 716 0 
L 50 0 
L 1716 4366 
z
" transform="scale(0.015625)"/>
      </defs>
      <use xlink:href="#DejaVuSans-77"/>
      <use xlink:href="#DejaVuSans-61" transform="translate(81.787109 0)"/>
      <use xlink:href="#DejaVuSans-76" transform="translate(143.066406 0)"/>
      <use xlink:href="#DejaVuSans-65" transform="translate(202.246094 0)"/>
      <use xlink:href="#DejaVuSans-6c" transform="translate(263.769531 0)"/>
      <use xlink:href="#DejaVuSans-65" transform="translate(291.552734 0)"/>
      <use xlink:href="#DejaVuSans-6e" transform="translate(353.076172 0)"/>
      <use xlink:href="#DejaVuSans-67" transform="translate(416.455078 0)"/>
      <use xlink:href="#DejaVuSans-74" transform="translate(479.931641 0)"/>
      <use xlink:href="#DejaVuSans-68" transform="translate(519.140625 0)"/>
      <use xlink:href="#DejaVuSans-20" transform="translate(582.519531 0)"/>
      <use xlink:href="#DejaVuSans-5b" transform="translate(614.306641 0)"/>
      <use xlink:href="#DejaVuSans-c5" transform="translate(653.320312 0)"/>
      <use xlink:href="#DejaVuSans-5d" transform="translate(721.728516 0)"/>
     </g>
    </g>
   </g>
   <g id="matplotlib.axis_4">
    <g id="ytick_10">
     <g id="line2d_25">
      <g>
       <use xlink:href="#ma90295fca4" x="503.927885" y="239.411044" style="stroke: #000000; stroke-width: 0.8"/>
      </g>
     </g>
     <g id="text_27">
      <!-- 3200 -->
      <g transform="translate(471.477885 243.210263) scale(0.1 -0.1)">
       <use xlink:href="#DejaVuSans-33"/>
       <use xlink:href="#DejaVuSans-32" transform="translate(63.623047 0)"/>
       <use xlink:href="#DejaVuSans-30" transform="translate(127.246094 0)"/>
       <use xlink:href="#DejaVuSans-30" transform="translate(190.869141 0)"/>
      </g>
     </g>
    </g>
    <g id="ytick_11">
     <g id="line2d_26">
      <g>
       <use xlink:href="#ma90295fca4" x="503.927885" y="203.042559" style="stroke: #000000; stroke-width: 0.8"/>
      </g>
     </g>
     <g id="text_28">
      <!-- 3250 -->
      <g transform="translate(471.477885 206.841778) scale(0.1 -0.1)">
       <use xlink:href="#DejaVuSans-33"/>
       <use xlink:href="#DejaVuSans-32" transform="translate(63.623047 0)"/>
       <use xlink:href="#DejaVuSans-35" transform="translate(127.246094 0)"/>
       <use xlink:href="#DejaVuSans-30" transform="translate(190.869141 0)"/>
      </g>
     </g>
    </g>
    <g id="ytick_12">
     <g id="line2d_27">
      <g>
       <use xlink:href="#ma90295fca4" x="503.927885" y="166.674074" style="stroke: #000000; stroke-width: 0.8"/>
      </g>
     </g>
     <g id="text_29">
      <!-- 3300 -->
      <g transform="translate(471.477885 170.473293) scale(0.1 -0.1)">
       <use xlink:href="#DejaVuSans-33"/>
       <use xlink:href="#DejaVuSans-33" transform="translate(63.623047 0)"/>
       <use xlink:href="#DejaVuSans-30" transform="translate(127.246094 0)"/>
       <use xlink:href="#DejaVuSans-30" transform="translate(190.869141 0)"/>
      </g>
     </g>
    </g>
    <g id="ytick_13">
     <g id="line2d_28">
      <g>
       <use xlink:href="#ma90295fca4" x="503.927885" y="130.30559" style="stroke: #000000; stroke-width: 0.8"/>
      </g>
     </g>
     <g id="text_30">
      <!-- 3350 -->
      <g transform="translate(471.477885 134.104808) scale(0.1 -0.1)">
       <use xlink:href="#DejaVuSans-33"/>
       <use xlink:href="#DejaVuSans-33" transform="translate(63.623047 0)"/>
       <use xlink:href="#DejaVuSans-35" transform="translate(127.246094 0)"/>
       <use xlink:href="#DejaVuSans-30" transform="translate(190.869141 0)"/>
      </g>
     </g>
    </g>
    <g id="ytick_14">
     <g id="line2d_29">
      <g>
       <use xlink:href="#ma90295fca4" x="503.927885" y="93.937105" style="stroke: #000000; stroke-width: 0.8"/>
      </g>
     </g>
     <g id="text_31">
      <!-- 3400 -->
      <g transform="translate(471.477885 97.736324) scale(0.1 -0.1)">
       <use xlink:href="#DejaVuSans-33"/>
       <use xlink:href="#DejaVuSans-34" transform="translate(63.623047 0)"/>
       <use xlink:href="#DejaVuSans-30" transform="translate(127.246094 0)"/>
       <use xlink:href="#DejaVuSans-30" transform="translate(190.869141 0)"/>
      </g>
     </g>
    </g>
    <g id="ytick_15">
     <g id="line2d_30">
      <g>
       <use xlink:href="#ma90295fca4" x="503.927885" y="57.56862" style="stroke: #000000; stroke-width: 0.8"/>
      </g>
     </g>
     <g id="text_32">
      <!-- 3450 -->
      <g transform="translate(471.477885 61.367839) scale(0.1 -0.1)">
       <use xlink:href="#DejaVuSans-33"/>
       <use xlink:href="#DejaVuSans-34" transform="translate(63.623047 0)"/>
       <use xlink:href="#DejaVuSans-35" transform="translate(127.246094 0)"/>
       <use xlink:href="#DejaVuSans-30" transform="translate(190.869141 0)"/>
      </g>
     </g>
    </g>
    <g id="ytick_16">
     <g id="line2d_31">
      <g>
       <use xlink:href="#ma90295fca4" x="503.927885" y="21.200135" style="stroke: #000000; stroke-width: 0.8"/>
      </g>
     </g>
     <g id="text_33">
      <!-- 3500 -->
      <g transform="translate(471.477885 24.999354) scale(0.1 -0.1)">
       <use xlink:href="#DejaVuSans-33"/>
       <use xlink:href="#DejaVuSans-35" transform="translate(63.623047 0)"/>
       <use xlink:href="#DejaVuSans-30" transform="translate(127.246094 0)"/>
       <use xlink:href="#DejaVuSans-30" transform="translate(190.869141 0)"/>
      </g>
     </g>
    </g>
    <g id="text_34">
     <!-- pulse:0 [counts] -->
     <g transform="translate(465.398197 174.422907) rotate(-90) scale(0.1 -0.1)">
      <use xlink:href="#DejaVuSans-70"/>
      <use xlink:href="#DejaVuSans-75" transform="translate(63.476562 0)"/>
      <use xlink:href="#DejaVuSans-6c" transform="translate(126.855469 0)"/>
      <use xlink:href="#DejaVuSans-73" transform="translate(154.638672 0)"/>
      <use xlink:href="#DejaVuSans-65" transform="translate(206.738281 0)"/>
      <use xlink:href="#DejaVuSans-3a" transform="translate(268.261719 0)"/>
      <use xlink:href="#DejaVuSans-30" transform="translate(301.953125 0)"/>
      <use xlink:href="#DejaVuSans-20" transform="translate(365.576172 0)"/>
      <use xlink:href="#DejaVuSans-5b" transform="translate(397.363281 0)"/>
      <use xlink:href="#DejaVuSans-63" transform="translate(436.376953 0)"/>
      <use xlink:href="#DejaVuSans-6f" transform="translate(491.357422 0)"/>
      <use xlink:href="#DejaVuSans-75" transform="translate(552.539062 0)"/>
      <use xlink:href="#DejaVuSans-6e" transform="translate(615.917969 0)"/>
      <use xlink:href="#DejaVuSans-74" transform="translate(679.296875 0)"/>
      <use xlink:href="#DejaVuSans-73" transform="translate(718.505859 0)"/>
      <use xlink:href="#DejaVuSans-5d" transform="translate(770.605469 0)"/>
     </g>
    </g>
   </g>
   <g id="line2d_32">
    <path d="M 520.349323 133.942438 
L 521.444085 133.942438 
L 521.444085 154.30879 
L 522.538848 154.30879 
L 522.538848 93.937105 
L 523.633611 93.937105 
L 523.633611 78.662341 
L 524.728373 78.662341 
L 524.728373 169.583553 
L 525.823136 169.583553 
L 525.823136 228.500499 
L 526.917898 228.500499 
L 526.917898 191.404644 
L 528.012661 191.404644 
L 528.012661 145.580353 
L 529.107423 145.580353 
L 529.107423 184.130947 
L 530.202186 184.130947 
L 530.202186 143.398244 
L 531.296948 143.398244 
L 531.296948 165.946705 
L 532.391711 165.946705 
L 532.391711 181.948838 
L 533.486473 181.948838 
L 533.486473 61.932838 
L 534.581236 61.932838 
L 534.581236 138.306656 
L 535.675998 138.306656 
L 535.675998 157.945638 
L 536.770761 157.945638 
L 536.770761 107.029759 
L 537.865523 107.029759 
L 537.865523 128.123481 
L 538.960286 128.123481 
L 538.960286 180.494099 
L 540.055048 180.494099 
L 540.055048 53.204402 
L 541.149811 53.204402 
L 541.149811 157.945638 
L 542.244574 157.945638 
L 542.244574 128.123481 
L 543.339336 128.123481 
L 543.339336 147.762462 
L 544.434099 147.762462 
L 544.434099 96.119214 
L 545.528861 96.119214 
L 545.528861 189.222535 
L 546.623624 189.222535 
L 546.623624 224.13628 
L 547.718386 224.13628 
L 547.718386 69.933905 
L 548.813149 69.933905 
L 548.813149 99.028693 
L 549.907911 99.028693 
L 549.907911 135.397178 
L 551.002674 135.397178 
L 551.002674 83.026559 
L 552.097436 83.026559 
L 552.097436 136.851917 
L 553.192199 136.851917 
L 553.192199 207.406777 
L 554.286961 207.406777 
L 554.286961 69.933905 
L 555.381724 69.933905 
L 555.381724 90.300256 
L 556.476486 90.300256 
L 556.476486 185.585687 
L 557.571249 185.585687 
L 557.571249 125.214002 
L 558.666012 125.214002 
L 558.666012 137.579287 
L 559.760774 137.579287 
L 559.760774 102.665541 
L 560.855537 102.665541 
L 560.855537 160.855117 
L 561.950299 160.855117 
L 561.950299 86.663408 
L 563.045062 86.663408 
L 563.045062 116.485565 
L 564.139824 116.485565 
L 564.139824 143.398244 
L 565.234587 143.398244 
L 565.234587 117.212935 
L 566.329349 117.212935 
L 566.329349 205.224668 
L 567.424112 205.224668 
L 567.424112 227.045759 
L 568.518874 227.045759 
L 568.518874 167.401444 
L 569.613637 167.401444 
L 569.613637 147.762462 
L 570.708399 147.762462 
L 570.708399 142.670875 
L 571.803162 142.670875 
L 571.803162 172.493032 
L 572.897924 172.493032 
L 572.897924 184.130947 
L 573.992687 184.130947 
L 573.992687 130.30559 
L 575.087449 130.30559 
L 575.087449 86.663408 
L 576.182212 86.663408 
L 576.182212 133.942438 
L 577.276975 133.942438 
L 577.276975 83.753929 
L 578.371737 83.753929 
L 578.371737 183.403578 
L 579.4665 183.403578 
L 579.4665 149.217202 
L 580.561262 149.217202 
L 580.561262 189.949905 
L 581.656025 189.949905 
L 581.656025 84.481299 
L 582.750787 84.481299 
L 582.750787 157.945638 
L 583.84555 157.945638 
L 583.84555 143.398244 
L 584.940312 143.398244 
L 584.940312 187.767796 
L 586.035075 187.767796 
L 586.035075 140.488765 
L 587.129837 140.488765 
L 587.129837 141.216135 
L 588.2246 141.216135 
L 588.2246 205.952038 
L 589.319362 205.952038 
L 589.319362 163.037226 
L 590.414125 163.037226 
L 590.414125 137.579287 
L 591.508887 137.579287 
L 591.508887 183.403578 
L 592.60365 183.403578 
L 592.60365 176.129881 
L 593.698412 176.129881 
L 593.698412 183.403578 
L 594.793175 183.403578 
L 594.793175 125.214002 
L 595.887938 125.214002 
L 595.887938 141.216135 
L 596.9827 141.216135 
L 596.9827 128.123481 
L 598.077463 128.123481 
L 598.077463 135.397178 
L 599.172225 135.397178 
L 599.172225 215.407844 
L 600.266988 215.407844 
L 600.266988 83.026559 
L 601.36175 83.026559 
L 601.36175 128.85085 
L 602.456513 128.85085 
L 602.456513 115.758196 
L 603.551275 115.758196 
L 603.551275 189.949905 
L 604.646038 189.949905 
L 604.646038 134.669808 
L 605.7408 134.669808 
L 605.7408 153.58142 
L 606.835563 153.58142 
L 606.835563 126.668741 
L 607.930325 126.668741 
L 607.930325 138.306656 
L 609.025088 138.306656 
L 609.025088 219.772062 
L 610.11985 219.772062 
L 610.11985 151.399311 
L 611.214613 151.399311 
L 611.214613 179.039359 
L 612.309375 179.039359 
L 612.309375 135.397178 
L 613.404138 135.397178 
L 613.404138 203.769929 
L 614.498901 203.769929 
L 614.498901 230.682608 
L 615.593663 230.682608 
L 615.593663 183.403578 
L 616.688426 183.403578 
L 616.688426 188.495165 
L 617.783188 188.495165 
L 617.783188 124.486632 
L 618.877951 124.486632 
L 618.877951 107.029759 
L 619.972713 107.029759 
L 619.972713 67.751796 
L 621.067476 67.751796 
L 621.067476 21.927505 
L 622.162238 21.927505 
L 622.162238 164.491965 
L 623.257001 164.491965 
L 623.257001 156.490899 
L 624.351763 156.490899 
L 624.351763 144.125614 
L 625.446526 144.125614 
L 625.446526 101.210802 
L 626.541288 101.210802 
L 626.541288 146.307723 
L 627.636051 146.307723 
L 627.636051 152.85405 
L 628.730813 152.85405 
L 628.730813 119.395044 
L 629.825576 119.395044 
L 629.825576 160.127747 
L 630.920339 160.127747 
L 630.920339 168.856184 
L 632.015101 168.856184 
L 632.015101 123.031893 
L 633.109864 123.031893 
L 633.109864 109.939238 
L 634.204626 109.939238 
L 634.204626 199.405711 
L 635.299389 199.405711 
L 635.299389 136.851917 
L 636.394151 136.851917 
L 636.394151 160.855117 
L 637.488914 160.855117 
L 637.488914 136.124547 
L 638.583676 136.124547 
L 638.583676 184.130947 
L 639.678439 184.130947 
L 639.678439 169.583553 
L 640.773201 169.583553 
L 640.773201 119.395044 
L 641.867964 119.395044 
L 641.867964 164.491965 
L 642.962726 164.491965 
L 642.962726 141.216135 
L 644.057489 141.216135 
L 644.057489 94.664475 
L 645.152251 94.664475 
L 645.152251 128.85085 
L 646.247014 128.85085 
L 646.247014 184.858317 
L 647.341776 184.858317 
L 647.341776 121.577153 
L 648.436539 121.577153 
L 648.436539 136.124547 
L 649.531302 136.124547 
L 649.531302 93.937105 
L 650.626064 93.937105 
L 650.626064 176.85725 
L 651.720827 176.85725 
L 651.720827 137.579287 
L 652.815589 137.579287 
L 652.815589 139.761396 
L 653.910352 139.761396 
L 653.910352 88.845517 
L 655.005114 88.845517 
L 655.005114 93.937105 
L 656.099877 93.937105 
L 656.099877 123.759262 
L 657.194639 123.759262 
L 657.194639 213.225735 
L 658.289402 213.225735 
L 658.289402 69.933905 
L 659.384164 69.933905 
L 659.384164 124.486632 
L 660.478927 124.486632 
L 660.478927 197.223602 
L 661.573689 197.223602 
L 661.573689 173.947771 
L 662.668452 173.947771 
L 662.668452 228.500499 
L 663.763214 228.500499 
L 663.763214 135.397178 
L 664.857977 135.397178 
L 664.857977 179.039359 
L 665.952739 179.039359 
L 665.952739 211.770996 
L 667.047502 211.770996 
L 667.047502 137.579287 
L 668.142265 137.579287 
L 668.142265 245.957371 
L 669.237027 245.957371 
L 669.237027 167.401444 
L 670.33179 167.401444 
L 670.33179 181.948838 
L 671.426552 181.948838 
L 671.426552 221.226802 
L 672.521315 221.226802 
L 672.521315 104.84765 
L 673.616077 104.84765 
L 673.616077 107.757129 
L 674.71084 107.757129 
L 674.71084 94.664475 
L 675.805602 94.664475 
L 675.805602 133.215068 
L 676.900365 133.215068 
L 676.900365 182.676208 
L 677.995127 182.676208 
L 677.995127 116.485565 
L 679.08989 116.485565 
L 679.08989 193.586753 
L 680.184652 193.586753 
L 680.184652 192.132014 
L 681.279415 192.132014 
L 681.279415 149.944571 
L 682.374177 149.944571 
L 682.374177 164.491965 
L 683.46894 164.491965 
L 683.46894 136.851917 
L 684.563702 136.851917 
L 684.563702 160.127747 
L 685.658465 160.127747 
L 685.658465 64.114947 
L 686.753228 64.114947 
L 686.753228 83.753929 
L 687.84799 83.753929 
L 687.84799 155.763529 
L 688.942753 155.763529 
L 688.942753 189.949905 
L 690.037515 189.949905 
L 690.037515 78.662341 
L 691.132278 78.662341 
L 691.132278 136.851917 
L 692.22704 136.851917 
L 692.22704 120.122414 
L 693.321803 120.122414 
L 693.321803 96.846584 
L 694.416565 96.846584 
L 694.416565 157.945638 
L 695.511328 157.945638 
L 695.511328 202.31519 
L 696.60609 202.31519 
L 696.60609 144.125614 
L 697.700853 144.125614 
L 697.700853 154.30879 
L 698.795615 154.30879 
L 698.795615 144.125614 
L 699.890378 144.125614 
L 699.890378 192.859384 
L 700.98514 192.859384 
L 700.98514 72.116014 
L 702.079903 72.116014 
L 702.079903 153.58142 
L 703.174666 153.58142 
L 703.174666 136.851917 
L 704.269428 136.851917 
L 704.269428 135.397178 
L 705.364191 135.397178 
L 705.364191 187.767796 
L 706.458953 187.767796 
L 706.458953 193.586753 
L 707.553716 193.586753 
L 707.553716 233.592087 
L 708.648478 233.592087 
L 708.648478 109.211868 
L 709.743241 109.211868 
L 709.743241 131.760329 
L 710.838003 131.760329 
L 710.838003 139.761396 
L 711.932766 139.761396 
L 711.932766 145.580353 
L 713.027528 145.580353 
L 713.027528 86.663408 
L 714.122291 86.663408 
L 714.122291 125.214002 
L 715.217053 125.214002 
L 715.217053 171.038293 
L 716.311816 171.038293 
L 716.311816 107.757129 
L 717.406578 107.757129 
L 717.406578 77.207602 
L 718.501341 77.207602 
L 718.501341 152.85405 
L 719.596103 152.85405 
L 719.596103 96.846584 
L 720.690866 96.846584 
L 720.690866 123.759262 
L 721.785629 123.759262 
L 721.785629 112.121347 
L 722.880391 112.121347 
L 722.880391 110.666608 
L 723.975154 110.666608 
L 723.975154 115.030826 
L 725.069916 115.030826 
L 725.069916 170.310923 
L 726.164679 170.310923 
L 726.164679 107.029759 
L 727.259441 107.029759 
L 727.259441 123.759262 
L 728.354204 123.759262 
L 728.354204 155.763529 
L 729.448966 155.763529 
L 729.448966 47.385444 
L 730.543729 47.385444 
L 730.543729 170.310923 
L 731.638491 170.310923 
L 731.638491 121.577153 
L 732.733254 121.577153 
L 732.733254 168.128814 
L 733.828016 168.128814 
L 733.828016 144.125614 
L 734.922779 144.125614 
L 734.922779 133.215068 
L 736.017541 133.215068 
L 736.017541 120.849784 
L 737.112304 120.849784 
L 737.112304 101.210802 
L 738.207066 101.210802 
L 738.207066 112.848717 
L 739.301829 112.848717 
L 739.301829 169.583553 
L 740.396592 169.583553 
L 740.396592 114.303456 
L 741.491354 114.303456 
L 741.491354 143.398244 
L 742.586117 143.398244 
L 742.586117 161.582487 
L 743.680879 161.582487 
L 743.680879 119.395044 
L 744.775642 119.395044 
L 744.775642 64.114947 
L 745.870404 64.114947 
L 745.870404 88.845517 
L 746.965167 88.845517 
L 746.965167 117.940305 
L 748.059929 117.940305 
L 748.059929 117.212935 
L 749.154692 117.212935 
L 749.154692 67.751796 
L 750.249454 67.751796 
L 750.249454 150.671941 
L 751.344217 150.671941 
L 751.344217 116.485565 
L 752.438979 116.485565 
L 752.438979 214.680474 
L 753.533742 214.680474 
L 753.533742 185.585687 
L 754.628504 185.585687 
L 754.628504 190.677274 
L 755.723267 190.677274 
L 755.723267 140.488765 
L 756.818029 140.488765 
L 756.818029 120.849784 
L 757.912792 120.849784 
L 757.912792 114.303456 
L 759.007555 114.303456 
L 759.007555 182.676208 
L 760.102317 182.676208 
L 760.102317 83.753929 
L 761.19708 83.753929 
L 761.19708 88.845517 
L 762.291842 88.845517 
L 762.291842 159.400378 
L 763.386605 159.400378 
L 763.386605 197.223602 
L 764.481367 197.223602 
L 764.481367 168.128814 
L 765.57613 168.128814 
L 765.57613 74.298123 
L 766.670892 74.298123 
L 766.670892 122.304523 
L 767.765655 122.304523 
L 767.765655 155.763529 
L 768.860417 155.763529 
L 768.860417 160.127747 
L 769.95518 160.127747 
L 769.95518 67.751796 
L 771.049942 67.751796 
L 771.049942 235.046826 
L 772.144705 235.046826 
L 772.144705 73.570753 
L 773.239467 73.570753 
L 773.239467 149.944571 
L 774.33423 149.944571 
L 774.33423 161.582487 
L 775.428993 161.582487 
L 775.428993 200.86045 
L 776.523755 200.86045 
L 776.523755 196.496232 
L 777.618518 196.496232 
L 777.618518 161.582487 
L 778.71328 161.582487 
L 778.71328 74.298123 
L 779.808043 74.298123 
L 779.808043 123.759262 
L 780.902805 123.759262 
L 780.902805 157.218268 
L 781.997568 157.218268 
L 781.997568 130.30559 
L 783.09233 130.30559 
L 783.09233 197.950971 
L 784.187093 197.950971 
L 784.187093 117.212935 
L 785.281855 117.212935 
L 785.281855 180.494099 
L 786.376618 180.494099 
L 786.376618 123.759262 
L 787.47138 123.759262 
L 787.47138 182.676208 
L 788.566143 182.676208 
L 788.566143 125.941371 
L 789.660905 125.941371 
L 789.660905 63.387578 
L 790.755668 63.387578 
L 790.755668 145.580353 
L 791.85043 145.580353 
L 791.85043 149.217202 
L 792.945193 149.217202 
L 792.945193 203.042559 
L 794.039956 203.042559 
L 794.039956 110.666608 
L 795.134718 110.666608 
L 795.134718 131.032959 
L 796.229481 131.032959 
L 796.229481 175.402511 
L 797.324243 175.402511 
L 797.324243 108.484499 
L 798.419006 108.484499 
L 798.419006 106.30239 
L 799.513768 106.30239 
L 799.513768 211.770996 
L 800.608531 211.770996 
L 800.608531 37.202269 
L 801.703293 37.202269 
L 801.703293 161.582487 
L 802.798056 161.582487 
L 802.798056 128.85085 
L 803.892818 128.85085 
L 803.892818 232.137347 
L 804.987581 232.137347 
L 804.987581 77.207602 
L 806.082343 77.207602 
L 806.082343 112.848717 
L 807.177106 112.848717 
L 807.177106 180.494099 
L 808.271868 180.494099 
L 808.271868 140.488765 
L 809.366631 140.488765 
L 809.366631 167.401444 
L 810.461393 167.401444 
L 810.461393 115.030826 
L 811.556156 115.030826 
L 811.556156 106.30239 
L 812.650919 106.30239 
L 812.650919 135.397178 
L 813.745681 135.397178 
L 813.745681 205.952038 
L 814.840444 205.952038 
L 814.840444 91.754996 
L 815.935206 91.754996 
L 815.935206 108.484499 
L 817.029969 108.484499 
L 817.029969 183.403578 
L 818.124731 183.403578 
L 818.124731 158.673008 
L 819.219494 158.673008 
L 819.219494 147.035093 
L 820.314256 147.035093 
L 820.314256 211.770996 
L 821.409019 211.770996 
L 821.409019 151.399311 
L 822.503781 151.399311 
L 822.503781 83.026559 
L 823.598544 83.026559 
L 823.598544 73.570753 
L 824.693306 73.570753 
L 824.693306 139.034026 
L 825.788069 139.034026 
L 825.788069 152.126681 
L 826.882831 152.126681 
L 826.882831 189.222535 
L 827.977594 189.222535 
L 827.977594 133.942438 
L 829.072356 133.942438 
L 829.072356 158.673008 
L 830.167119 158.673008 
L 830.167119 214.680474 
L 831.261882 214.680474 
L 831.261882 188.495165 
L 832.356644 188.495165 
L 832.356644 131.032959 
L 833.451407 131.032959 
L 833.451407 70.661275 
L 834.546169 70.661275 
L 834.546169 157.945638 
L 835.640932 157.945638 
L 835.640932 87.390778 
L 836.735694 87.390778 
L 836.735694 171.765662 
L 837.830457 171.765662 
L 837.830457 130.30559 
L 838.925219 130.30559 
L 838.925219 200.133081 
L 840.019982 200.133081 
L 840.019982 108.484499 
L 841.114744 108.484499 
L 841.114744 128.85085 
L 842.209507 128.85085 
L 842.209507 112.121347 
L 843.304269 112.121347 
L 843.304269 227.773129 
L 844.399032 227.773129 
L 844.399032 150.671941 
L 845.493794 150.671941 
L 845.493794 146.307723 
L 846.588557 146.307723 
L 846.588557 93.209735 
L 847.68332 93.209735 
L 847.68332 101.938172 
L 848.778082 101.938172 
L 848.778082 101.938172 
" clip-path="url(#p6bafcce60e)" style="fill: none; stroke: #1f77b4; stroke-width: 1.5; stroke-linecap: square"/>
   </g>
   <g id="patch_8">
    <path d="M 503.927885 257.158865 
L 503.927885 10.726012 
" style="fill: none; stroke: #000000; stroke-width: 0.8; stroke-linejoin: miter; stroke-linecap: square"/>
   </g>
   <g id="patch_9">
    <path d="M 865.19952 257.158865 
L 865.19952 10.726012 
" style="fill: none; stroke: #000000; stroke-width: 0.8; stroke-linejoin: miter; stroke-linecap: square"/>
   </g>
   <g id="patch_10">
    <path d="M 503.927885 257.158865 
L 865.19952 257.158865 
" style="fill: none; stroke: #000000; stroke-width: 0.8; stroke-linejoin: miter; stroke-linecap: square"/>
   </g>
   <g id="patch_11">
    <path d="M 503.927885 10.726012 
L 865.19952 10.726012 
" style="fill: none; stroke: #000000; stroke-width: 0.8; stroke-linejoin: miter; stroke-linecap: square"/>
   </g>
  </g>
 </g>
 <defs>
  <clipPath id="p114d1ac958">
   <rect x="53.328125" y="10.726012" width="361.271635" height="246.432853"/>
  </clipPath>
  <clipPath id="p6bafcce60e">
   <rect x="503.927885" y="10.726012" width="361.271635" height="246.432853"/>
  </clipPath>
 </defs>
</svg>
