<?xml version="1.0" encoding="utf-8" standalone="no"?>
<!DOCTYPE svg PUBLIC "-//W3C//DTD SVG 1.1//EN"
  "http://www.w3.org/Graphics/SVG/1.1/DTD/svg11.dtd">
<svg xmlns:xlink="http://www.w3.org/1999/xlink" width="872.39952pt" height="296.393752pt" viewBox="0 0 872.39952 296.393752" xmlns="http://www.w3.org/2000/svg" version="1.1">
 <metadata>
  <rdf:RDF xmlns:dc="http://purl.org/dc/elements/1.1/" xmlns:cc="http://creativecommons.org/ns#" xmlns:rdf="http://www.w3.org/1999/02/22-rdf-syntax-ns#">
   <cc:Work>
    <dc:type rdf:resource="http://purl.org/dc/dcmitype/StillImage"/>
    <dc:date>2026-03-12T12:42:21.616779</dc:date>
    <dc:format>image/svg+xml</dc:format>
    <dc:creator>
     <cc:Agent>
      <dc:title>Matplotlib v3.10.7, https://matplotlib.org/</dc:title>
     </cc:Agent>
    </dc:creator>
   </cc:Work>
  </rdf:RDF>
 </metadata>
 <defs>
  <style type="text/css">*{stroke-linejoin: round; stroke-linecap: butt}</style>
 </defs>
 <g id="figure_1">
  <g id="patch_1">
   <path d="M 0 296.393752 
L 872.39952 296.393752 
L 872.39952 0 
L 0 0 
z
" style="fill: #ffffff"/>
  </g>
  <g id="axes_1">
   <g id="patch_2">
    <path d="M 53.328125 257.153127 
L 414.59976 257.153127 
L 414.59976 7.388838 
L 53.328125 7.388838 
z
" style="fill: #ffffff"/>
   </g>
   <g id="matplotlib.axis_1">
    <g id="xtick_1">
     <g id="line2d_1">
      <defs>
       <path id="mf2d6014707" d="M 0 0 
L 0 3.5 
" style="stroke: #000000; stroke-width: 0.8"/>
      </defs>
      <g>
       <use xlink:href="#mf2d6014707" x="64.004874" y="257.153127" style="stroke: #000000; stroke-width: 0.8"/>
      </g>
     </g>
     <g id="text_1">
      <!-- 0 -->
      <g transform="translate(60.823624 271.751564) scale(0.1 -0.1)">
       <defs>
        <path id="DejaVuSans-30" d="M 2034 4250 
Q 1547 4250 1301 3770 
Q 1056 3291 1056 2328 
Q 1056 1369 1301 889 
Q 1547 409 2034 409 
Q 2525 409 2770 889 
Q 3016 1369 3016 2328 
Q 3016 3291 2770 3770 
Q 2525 4250 2034 4250 
z
M 2034 4750 
Q 2819 4750 3233 4129 
Q 3647 3509 3647 2328 
Q 3647 1150 3233 529 
Q 2819 -91 2034 -91 
Q 1250 -91 836 529 
Q 422 1150 422 2328 
Q 422 3509 836 4129 
Q 1250 4750 2034 4750 
z
" transform="scale(0.015625)"/>
       </defs>
       <use xlink:href="#DejaVuSans-30"/>
      </g>
     </g>
    </g>
    <g id="xtick_2">
     <g id="line2d_2">
      <g>
       <use xlink:href="#mf2d6014707" x="119.702889" y="257.153127" style="stroke: #000000; stroke-width: 0.8"/>
      </g>
     </g>
     <g id="text_2">
      <!-- 1000 -->
      <g transform="translate(106.977889 271.751564) scale(0.1 -0.1)">
       <defs>
        <path id="DejaVuSans-31" d="M 794 531 
L 1825 531 
L 1825 4091 
L 703 3866 
L 703 4441 
L 1819 4666 
L 2450 4666 
L 2450 531 
L 3481 531 
L 3481 0 
L 794 0 
L 794 531 
z
" transform="scale(0.015625)"/>
       </defs>
       <use xlink:href="#DejaVuSans-31"/>
       <use xlink:href="#DejaVuSans-30" transform="translate(63.623047 0)"/>
       <use xlink:href="#DejaVuSans-30" transform="translate(127.246094 0)"/>
       <use xlink:href="#DejaVuSans-30" transform="translate(190.869141 0)"/>
      </g>
     </g>
    </g>
    <g id="xtick_3">
     <g id="line2d_3">
      <g>
       <use xlink:href="#mf2d6014707" x="175.400904" y="257.153127" style="stroke: #000000; stroke-width: 0.8"/>
      </g>
     </g>
     <g id="text_3">
      <!-- 2000 -->
      <g transform="translate(162.675904 271.751564) scale(0.1 -0.1)">
       <defs>
        <path id="DejaVuSans-32" d="M 1228 531 
L 3431 531 
L 3431 0 
L 469 0 
L 469 531 
Q 828 903 1448 1529 
Q 2069 2156 2228 2338 
Q 2531 2678 2651 2914 
Q 2772 3150 2772 3378 
Q 2772 3750 2511 3984 
Q 2250 4219 1831 4219 
Q 1534 4219 1204 4116 
Q 875 4013 500 3803 
L 500 4441 
Q 881 4594 1212 4672 
Q 1544 4750 1819 4750 
Q 2544 4750 2975 4387 
Q 3406 4025 3406 3419 
Q 3406 3131 3298 2873 
Q 3191 2616 2906 2266 
Q 2828 2175 2409 1742 
Q 1991 1309 1228 531 
z
" transform="scale(0.015625)"/>
       </defs>
       <use xlink:href="#DejaVuSans-32"/>
       <use xlink:href="#DejaVuSans-30" transform="translate(63.623047 0)"/>
       <use xlink:href="#DejaVuSans-30" transform="translate(127.246094 0)"/>
       <use xlink:href="#DejaVuSans-30" transform="translate(190.869141 0)"/>
      </g>
     </g>
    </g>
    <g id="xtick_4">
     <g id="line2d_4">
      <g>
       <use xlink:href="#mf2d6014707" x="231.098919" y="257.153127" style="stroke: #000000; stroke-width: 0.8"/>
      </g>
     </g>
     <g id="text_4">
      <!-- 3000 -->
      <g transform="translate(218.373919 271.751564) scale(0.1 -0.1)">
       <defs>
        <path id="DejaVuSans-33" d="M 2597 2516 
Q 3050 2419 3304 2112 
Q 3559 1806 3559 1356 
Q 3559 666 3084 287 
Q 2609 -91 1734 -91 
Q 1441 -91 1130 -33 
Q 819 25 488 141 
L 488 750 
Q 750 597 1062 519 
Q 1375 441 1716 441 
Q 2309 441 2620 675 
Q 2931 909 2931 1356 
Q 2931 1769 2642 2001 
Q 2353 2234 1838 2234 
L 1294 2234 
L 1294 2753 
L 1863 2753 
Q 2328 2753 2575 2939 
Q 2822 3125 2822 3475 
Q 2822 3834 2567 4026 
Q 2313 4219 1838 4219 
Q 1578 4219 1281 4162 
Q 984 4106 628 3988 
L 628 4550 
Q 988 4650 1302 4700 
Q 1616 4750 1894 4750 
Q 2613 4750 3031 4423 
Q 3450 4097 3450 3541 
Q 3450 3153 3228 2886 
Q 3006 2619 2597 2516 
z
" transform="scale(0.015625)"/>
       </defs>
       <use xlink:href="#DejaVuSans-33"/>
       <use xlink:href="#DejaVuSans-30" transform="translate(63.623047 0)"/>
       <use xlink:href="#DejaVuSans-30" transform="translate(127.246094 0)"/>
       <use xlink:href="#DejaVuSans-30" transform="translate(190.869141 0)"/>
      </g>
     </g>
    </g>
    <g id="xtick_5">
     <g id="line2d_5">
      <g>
       <use xlink:href="#mf2d6014707" x="286.796933" y="257.153127" style="stroke: #000000; stroke-width: 0.8"/>
      </g>
     </g>
     <g id="text_5">
      <!-- 4000 -->
      <g transform="translate(274.071933 271.751564) scale(0.1 -0.1)">
       <defs>
        <path id="DejaVuSans-34" d="M 2419 4116 
L 825 1625 
L 2419 1625 
L 2419 4116 
z
M 2253 4666 
L 3047 4666 
L 3047 1625 
L 3713 1625 
L 3713 1100 
L 3047 1100 
L 3047 0 
L 2419 0 
L 2419 1100 
L 313 1100 
L 313 1709 
L 2253 4666 
z
" transform="scale(0.015625)"/>
       </defs>
       <use xlink:href="#DejaVuSans-34"/>
       <use xlink:href="#DejaVuSans-30" transform="translate(63.623047 0)"/>
       <use xlink:href="#DejaVuSans-30" transform="translate(127.246094 0)"/>
       <use xlink:href="#DejaVuSans-30" transform="translate(190.869141 0)"/>
      </g>
     </g>
    </g>
    <g id="xtick_6">
     <g id="line2d_6">
      <g>
       <use xlink:href="#mf2d6014707" x="342.494948" y="257.153127" style="stroke: #000000; stroke-width: 0.8"/>
      </g>
     </g>
     <g id="text_6">
      <!-- 5000 -->
      <g transform="translate(329.769948 271.751564) scale(0.1 -0.1)">
       <defs>
        <path id="DejaVuSans-35" d="M 691 4666 
L 3169 4666 
L 3169 4134 
L 1269 4134 
L 1269 2991 
Q 1406 3038 1543 3061 
Q 1681 3084 1819 3084 
Q 2600 3084 3056 2656 
Q 3513 2228 3513 1497 
Q 3513 744 3044 326 
Q 2575 -91 1722 -91 
Q 1428 -91 1123 -41 
Q 819 9 494 109 
L 494 744 
Q 775 591 1075 516 
Q 1375 441 1709 441 
Q 2250 441 2565 725 
Q 2881 1009 2881 1497 
Q 2881 1984 2565 2268 
Q 2250 2553 1709 2553 
Q 1456 2553 1204 2497 
Q 953 2441 691 2322 
L 691 4666 
z
" transform="scale(0.015625)"/>
       </defs>
       <use xlink:href="#DejaVuSans-35"/>
       <use xlink:href="#DejaVuSans-30" transform="translate(63.623047 0)"/>
       <use xlink:href="#DejaVuSans-30" transform="translate(127.246094 0)"/>
       <use xlink:href="#DejaVuSans-30" transform="translate(190.869141 0)"/>
      </g>
     </g>
    </g>
    <g id="xtick_7">
     <g id="line2d_7">
      <g>
       <use xlink:href="#mf2d6014707" x="398.192963" y="257.153127" style="stroke: #000000; stroke-width: 0.8"/>
      </g>
     </g>
     <g id="text_7">
      <!-- 6000 -->
      <g transform="translate(385.467963 271.751564) scale(0.1 -0.1)">
       <defs>
        <path id="DejaVuSans-36" d="M 2113 2584 
Q 1688 2584 1439 2293 
Q 1191 2003 1191 1497 
Q 1191 994 1439 701 
Q 1688 409 2113 409 
Q 2538 409 2786 701 
Q 3034 994 3034 1497 
Q 3034 2003 2786 2293 
Q 2538 2584 2113 2584 
z
M 3366 4563 
L 3366 3988 
Q 3128 4100 2886 4159 
Q 2644 4219 2406 4219 
Q 1781 4219 1451 3797 
Q 1122 3375 1075 2522 
Q 1259 2794 1537 2939 
Q 1816 3084 2150 3084 
Q 2853 3084 3261 2657 
Q 3669 2231 3669 1497 
Q 3669 778 3244 343 
Q 2819 -91 2113 -91 
Q 1303 -91 875 529 
Q 447 1150 447 2328 
Q 447 3434 972 4092 
Q 1497 4750 2381 4750 
Q 2619 4750 2861 4703 
Q 3103 4656 3366 4563 
z
" transform="scale(0.015625)"/>
       </defs>
       <use xlink:href="#DejaVuSans-36"/>
       <use xlink:href="#DejaVuSans-30" transform="translate(63.623047 0)"/>
       <use xlink:href="#DejaVuSans-30" transform="translate(127.246094 0)"/>
       <use xlink:href="#DejaVuSans-30" transform="translate(190.869141 0)"/>
      </g>
     </g>
    </g>
    <g id="text_8">
     <!-- birth_time [µs] -->
     <g transform="translate(197.14363 285.429689) scale(0.1 -0.1)">
      <defs>
       <path id="DejaVuSans-62" d="M 3116 1747 
Q 3116 2381 2855 2742 
Q 2594 3103 2138 3103 
Q 1681 3103 1420 2742 
Q 1159 2381 1159 1747 
Q 1159 1113 1420 752 
Q 1681 391 2138 391 
Q 2594 391 2855 752 
Q 3116 1113 3116 1747 
z
M 1159 2969 
Q 1341 3281 1617 3432 
Q 1894 3584 2278 3584 
Q 2916 3584 3314 3078 
Q 3713 2572 3713 1747 
Q 3713 922 3314 415 
Q 2916 -91 2278 -91 
Q 1894 -91 1617 61 
Q 1341 213 1159 525 
L 1159 0 
L 581 0 
L 581 4863 
L 1159 4863 
L 1159 2969 
z
" transform="scale(0.015625)"/>
       <path id="DejaVuSans-69" d="M 603 3500 
L 1178 3500 
L 1178 0 
L 603 0 
L 603 3500 
z
M 603 4863 
L 1178 4863 
L 1178 4134 
L 603 4134 
L 603 4863 
z
" transform="scale(0.015625)"/>
       <path id="DejaVuSans-72" d="M 2631 2963 
Q 2534 3019 2420 3045 
Q 2306 3072 2169 3072 
Q 1681 3072 1420 2755 
Q 1159 2438 1159 1844 
L 1159 0 
L 581 0 
L 581 3500 
L 1159 3500 
L 1159 2956 
Q 1341 3275 1631 3429 
Q 1922 3584 2338 3584 
Q 2397 3584 2469 3576 
Q 2541 3569 2628 3553 
L 2631 2963 
z
" transform="scale(0.015625)"/>
       <path id="DejaVuSans-74" d="M 1172 4494 
L 1172 3500 
L 2356 3500 
L 2356 3053 
L 1172 3053 
L 1172 1153 
Q 1172 725 1289 603 
Q 1406 481 1766 481 
L 2356 481 
L 2356 0 
L 1766 0 
Q 1100 0 847 248 
Q 594 497 594 1153 
L 594 3053 
L 172 3053 
L 172 3500 
L 594 3500 
L 594 4494 
L 1172 4494 
z
" transform="scale(0.015625)"/>
       <path id="DejaVuSans-68" d="M 3513 2113 
L 3513 0 
L 2938 0 
L 2938 2094 
Q 2938 2591 2744 2837 
Q 2550 3084 2163 3084 
Q 1697 3084 1428 2787 
Q 1159 2491 1159 1978 
L 1159 0 
L 581 0 
L 581 4863 
L 1159 4863 
L 1159 2956 
Q 1366 3272 1645 3428 
Q 1925 3584 2291 3584 
Q 2894 3584 3203 3211 
Q 3513 2838 3513 2113 
z
" transform="scale(0.015625)"/>
       <path id="DejaVuSans-5f" d="M 3263 -1063 
L 3263 -1509 
L -63 -1509 
L -63 -1063 
L 3263 -1063 
z
" transform="scale(0.015625)"/>
       <path id="DejaVuSans-6d" d="M 3328 2828 
Q 3544 3216 3844 3400 
Q 4144 3584 4550 3584 
Q 5097 3584 5394 3201 
Q 5691 2819 5691 2113 
L 5691 0 
L 5113 0 
L 5113 2094 
Q 5113 2597 4934 2840 
Q 4756 3084 4391 3084 
Q 3944 3084 3684 2787 
Q 3425 2491 3425 1978 
L 3425 0 
L 2847 0 
L 2847 2094 
Q 2847 2600 2669 2842 
Q 2491 3084 2119 3084 
Q 1678 3084 1418 2786 
Q 1159 2488 1159 1978 
L 1159 0 
L 581 0 
L 581 3500 
L 1159 3500 
L 1159 2956 
Q 1356 3278 1631 3431 
Q 1906 3584 2284 3584 
Q 2666 3584 2933 3390 
Q 3200 3197 3328 2828 
z
" transform="scale(0.015625)"/>
       <path id="DejaVuSans-65" d="M 3597 1894 
L 3597 1613 
L 953 1613 
Q 991 1019 1311 708 
Q 1631 397 2203 397 
Q 2534 397 2845 478 
Q 3156 559 3463 722 
L 3463 178 
Q 3153 47 2828 -22 
Q 2503 -91 2169 -91 
Q 1331 -91 842 396 
Q 353 884 353 1716 
Q 353 2575 817 3079 
Q 1281 3584 2069 3584 
Q 2775 3584 3186 3129 
Q 3597 2675 3597 1894 
z
M 3022 2063 
Q 3016 2534 2758 2815 
Q 2500 3097 2075 3097 
Q 1594 3097 1305 2825 
Q 1016 2553 972 2059 
L 3022 2063 
z
" transform="scale(0.015625)"/>
       <path id="DejaVuSans-20" transform="scale(0.015625)"/>
       <path id="DejaVuSans-5b" d="M 550 4863 
L 1875 4863 
L 1875 4416 
L 1125 4416 
L 1125 -397 
L 1875 -397 
L 1875 -844 
L 550 -844 
L 550 4863 
z
" transform="scale(0.015625)"/>
       <path id="DejaVuSans-b5" d="M 544 -1331 
L 544 3500 
L 1119 3500 
L 1119 1325 
Q 1119 872 1334 640 
Q 1550 409 1972 409 
Q 2434 409 2667 671 
Q 2900 934 2900 1459 
L 2900 3500 
L 3475 3500 
L 3475 806 
Q 3475 619 3529 530 
Q 3584 441 3700 441 
Q 3728 441 3778 458 
Q 3828 475 3916 513 
L 3916 50 
Q 3788 -22 3673 -56 
Q 3559 -91 3450 -91 
Q 3234 -91 3106 31 
Q 2978 153 2931 403 
Q 2775 156 2548 32 
Q 2322 -91 2016 -91 
Q 1697 -91 1473 31 
Q 1250 153 1119 397 
L 1119 -1331 
L 544 -1331 
z
" transform="scale(0.015625)"/>
       <path id="DejaVuSans-73" d="M 2834 3397 
L 2834 2853 
Q 2591 2978 2328 3040 
Q 2066 3103 1784 3103 
Q 1356 3103 1142 2972 
Q 928 2841 928 2578 
Q 928 2378 1081 2264 
Q 1234 2150 1697 2047 
L 1894 2003 
Q 2506 1872 2764 1633 
Q 3022 1394 3022 966 
Q 3022 478 2636 193 
Q 2250 -91 1575 -91 
Q 1294 -91 989 -36 
Q 684 19 347 128 
L 347 722 
Q 666 556 975 473 
Q 1284 391 1588 391 
Q 1994 391 2212 530 
Q 2431 669 2431 922 
Q 2431 1156 2273 1281 
Q 2116 1406 1581 1522 
L 1381 1569 
Q 847 1681 609 1914 
Q 372 2147 372 2553 
Q 372 3047 722 3315 
Q 1072 3584 1716 3584 
Q 2034 3584 2315 3537 
Q 2597 3491 2834 3397 
z
" transform="scale(0.015625)"/>
       <path id="DejaVuSans-5d" d="M 1947 4863 
L 1947 -844 
L 622 -844 
L 622 -397 
L 1369 -397 
L 1369 4416 
L 622 4416 
L 622 4863 
L 1947 4863 
z
" transform="scale(0.015625)"/>
      </defs>
      <use xlink:href="#DejaVuSans-62"/>
      <use xlink:href="#DejaVuSans-69" transform="translate(63.476562 0)"/>
      <use xlink:href="#DejaVuSans-72" transform="translate(91.259766 0)"/>
      <use xlink:href="#DejaVuSans-74" transform="translate(132.373047 0)"/>
      <use xlink:href="#DejaVuSans-68" transform="translate(171.582031 0)"/>
      <use xlink:href="#DejaVuSans-5f" transform="translate(234.960938 0)"/>
      <use xlink:href="#DejaVuSans-74" transform="translate(284.960938 0)"/>
      <use xlink:href="#DejaVuSans-69" transform="translate(324.169922 0)"/>
      <use xlink:href="#DejaVuSans-6d" transform="translate(351.953125 0)"/>
      <use xlink:href="#DejaVuSans-65" transform="translate(449.365234 0)"/>
      <use xlink:href="#DejaVuSans-20" transform="translate(510.888672 0)"/>
      <use xlink:href="#DejaVuSans-5b" transform="translate(542.675781 0)"/>
      <use xlink:href="#DejaVuSans-b5" transform="translate(581.689453 0)"/>
      <use xlink:href="#DejaVuSans-73" transform="translate(645.3125 0)"/>
      <use xlink:href="#DejaVuSans-5d" transform="translate(697.412109 0)"/>
     </g>
    </g>
   </g>
   <g id="matplotlib.axis_2">
    <g id="ytick_1">
     <g id="line2d_8">
      <defs>
       <path id="m8ba6e2ad10" d="M 0 0 
L -3.5 0 
" style="stroke: #000000; stroke-width: 0.8"/>
      </defs>
      <g>
       <use xlink:href="#m8ba6e2ad10" x="53.328125" y="246.641785" style="stroke: #000000; stroke-width: 0.8"/>
      </g>
     </g>
     <g id="text_9">
      <!-- 0 -->
      <g transform="translate(39.965625 250.441004) scale(0.1 -0.1)">
       <use xlink:href="#DejaVuSans-30"/>
      </g>
     </g>
    </g>
    <g id="ytick_2">
     <g id="line2d_9">
      <g>
       <use xlink:href="#m8ba6e2ad10" x="53.328125" y="212.978561" style="stroke: #000000; stroke-width: 0.8"/>
      </g>
     </g>
     <g id="text_10">
      <!-- 200 -->
      <g transform="translate(27.240625 216.77778) scale(0.1 -0.1)">
       <use xlink:href="#DejaVuSans-32"/>
       <use xlink:href="#DejaVuSans-30" transform="translate(63.623047 0)"/>
       <use xlink:href="#DejaVuSans-30" transform="translate(127.246094 0)"/>
      </g>
     </g>
    </g>
    <g id="ytick_3">
     <g id="line2d_10">
      <g>
       <use xlink:href="#m8ba6e2ad10" x="53.328125" y="179.315338" style="stroke: #000000; stroke-width: 0.8"/>
      </g>
     </g>
     <g id="text_11">
      <!-- 400 -->
      <g transform="translate(27.240625 183.114556) scale(0.1 -0.1)">
       <use xlink:href="#DejaVuSans-34"/>
       <use xlink:href="#DejaVuSans-30" transform="translate(63.623047 0)"/>
       <use xlink:href="#DejaVuSans-30" transform="translate(127.246094 0)"/>
      </g>
     </g>
    </g>
    <g id="ytick_4">
     <g id="line2d_11">
      <g>
       <use xlink:href="#m8ba6e2ad10" x="53.328125" y="145.652114" style="stroke: #000000; stroke-width: 0.8"/>
      </g>
     </g>
     <g id="text_12">
      <!-- 600 -->
      <g transform="translate(27.240625 149.451333) scale(0.1 -0.1)">
       <use xlink:href="#DejaVuSans-36"/>
       <use xlink:href="#DejaVuSans-30" transform="translate(63.623047 0)"/>
       <use xlink:href="#DejaVuSans-30" transform="translate(127.246094 0)"/>
      </g>
     </g>
    </g>
    <g id="ytick_5">
     <g id="line2d_12">
      <g>
       <use xlink:href="#m8ba6e2ad10" x="53.328125" y="111.98889" style="stroke: #000000; stroke-width: 0.8"/>
      </g>
     </g>
     <g id="text_13">
      <!-- 800 -->
      <g transform="translate(27.240625 115.788109) scale(0.1 -0.1)">
       <defs>
        <path id="DejaVuSans-38" d="M 2034 2216 
Q 1584 2216 1326 1975 
Q 1069 1734 1069 1313 
Q 1069 891 1326 650 
Q 1584 409 2034 409 
Q 2484 409 2743 651 
Q 3003 894 3003 1313 
Q 3003 1734 2745 1975 
Q 2488 2216 2034 2216 
z
M 1403 2484 
Q 997 2584 770 2862 
Q 544 3141 544 3541 
Q 544 4100 942 4425 
Q 1341 4750 2034 4750 
Q 2731 4750 3128 4425 
Q 3525 4100 3525 3541 
Q 3525 3141 3298 2862 
Q 3072 2584 2669 2484 
Q 3125 2378 3379 2068 
Q 3634 1759 3634 1313 
Q 3634 634 3220 271 
Q 2806 -91 2034 -91 
Q 1263 -91 848 271 
Q 434 634 434 1313 
Q 434 1759 690 2068 
Q 947 2378 1403 2484 
z
M 1172 3481 
Q 1172 3119 1398 2916 
Q 1625 2713 2034 2713 
Q 2441 2713 2670 2916 
Q 2900 3119 2900 3481 
Q 2900 3844 2670 4047 
Q 2441 4250 2034 4250 
Q 1625 4250 1398 4047 
Q 1172 3844 1172 3481 
z
" transform="scale(0.015625)"/>
       </defs>
       <use xlink:href="#DejaVuSans-38"/>
       <use xlink:href="#DejaVuSans-30" transform="translate(63.623047 0)"/>
       <use xlink:href="#DejaVuSans-30" transform="translate(127.246094 0)"/>
      </g>
     </g>
    </g>
    <g id="ytick_6">
     <g id="line2d_13">
      <g>
       <use xlink:href="#m8ba6e2ad10" x="53.328125" y="78.325666" style="stroke: #000000; stroke-width: 0.8"/>
      </g>
     </g>
     <g id="text_14">
      <!-- 1000 -->
      <g transform="translate(20.878125 82.124885) scale(0.1 -0.1)">
       <use xlink:href="#DejaVuSans-31"/>
       <use xlink:href="#DejaVuSans-30" transform="translate(63.623047 0)"/>
       <use xlink:href="#DejaVuSans-30" transform="translate(127.246094 0)"/>
       <use xlink:href="#DejaVuSans-30" transform="translate(190.869141 0)"/>
      </g>
     </g>
    </g>
    <g id="ytick_7">
     <g id="line2d_14">
      <g>
       <use xlink:href="#m8ba6e2ad10" x="53.328125" y="44.662443" style="stroke: #000000; stroke-width: 0.8"/>
      </g>
     </g>
     <g id="text_15">
      <!-- 1200 -->
      <g transform="translate(20.878125 48.461661) scale(0.1 -0.1)">
       <use xlink:href="#DejaVuSans-31"/>
       <use xlink:href="#DejaVuSans-32" transform="translate(63.623047 0)"/>
       <use xlink:href="#DejaVuSans-30" transform="translate(127.246094 0)"/>
       <use xlink:href="#DejaVuSans-30" transform="translate(190.869141 0)"/>
      </g>
     </g>
    </g>
    <g id="ytick_8">
     <g id="line2d_15">
      <g>
       <use xlink:href="#m8ba6e2ad10" x="53.328125" y="10.999219" style="stroke: #000000; stroke-width: 0.8"/>
      </g>
     </g>
     <g id="text_16">
      <!-- 1400 -->
      <g transform="translate(20.878125 14.798437) scale(0.1 -0.1)">
       <use xlink:href="#DejaVuSans-31"/>
       <use xlink:href="#DejaVuSans-34" transform="translate(63.623047 0)"/>
       <use xlink:href="#DejaVuSans-30" transform="translate(127.246094 0)"/>
       <use xlink:href="#DejaVuSans-30" transform="translate(190.869141 0)"/>
      </g>
     </g>
    </g>
    <g id="text_17">
     <!-- pulse:0 [counts] -->
     <g transform="translate(14.798438 172.751451) rotate(-90) scale(0.1 -0.1)">
      <defs>
       <path id="DejaVuSans-70" d="M 1159 525 
L 1159 -1331 
L 581 -1331 
L 581 3500 
L 1159 3500 
L 1159 2969 
Q 1341 3281 1617 3432 
Q 1894 3584 2278 3584 
Q 2916 3584 3314 3078 
Q 3713 2572 3713 1747 
Q 3713 922 3314 415 
Q 2916 -91 2278 -91 
Q 1894 -91 1617 61 
Q 1341 213 1159 525 
z
M 3116 1747 
Q 3116 2381 2855 2742 
Q 2594 3103 2138 3103 
Q 1681 3103 1420 2742 
Q 1159 2381 1159 1747 
Q 1159 1113 1420 752 
Q 1681 391 2138 391 
Q 2594 391 2855 752 
Q 3116 1113 3116 1747 
z
" transform="scale(0.015625)"/>
       <path id="DejaVuSans-75" d="M 544 1381 
L 544 3500 
L 1119 3500 
L 1119 1403 
Q 1119 906 1312 657 
Q 1506 409 1894 409 
Q 2359 409 2629 706 
Q 2900 1003 2900 1516 
L 2900 3500 
L 3475 3500 
L 3475 0 
L 2900 0 
L 2900 538 
Q 2691 219 2414 64 
Q 2138 -91 1772 -91 
Q 1169 -91 856 284 
Q 544 659 544 1381 
z
M 1991 3584 
L 1991 3584 
z
" transform="scale(0.015625)"/>
       <path id="DejaVuSans-6c" d="M 603 4863 
L 1178 4863 
L 1178 0 
L 603 0 
L 603 4863 
z
" transform="scale(0.015625)"/>
       <path id="DejaVuSans-3a" d="M 750 794 
L 1409 794 
L 1409 0 
L 750 0 
L 750 794 
z
M 750 3309 
L 1409 3309 
L 1409 2516 
L 750 2516 
L 750 3309 
z
" transform="scale(0.015625)"/>
       <path id="DejaVuSans-63" d="M 3122 3366 
L 3122 2828 
Q 2878 2963 2633 3030 
Q 2388 3097 2138 3097 
Q 1578 3097 1268 2742 
Q 959 2388 959 1747 
Q 959 1106 1268 751 
Q 1578 397 2138 397 
Q 2388 397 2633 464 
Q 2878 531 3122 666 
L 3122 134 
Q 2881 22 2623 -34 
Q 2366 -91 2075 -91 
Q 1284 -91 818 406 
Q 353 903 353 1747 
Q 353 2603 823 3093 
Q 1294 3584 2113 3584 
Q 2378 3584 2631 3529 
Q 2884 3475 3122 3366 
z
" transform="scale(0.015625)"/>
       <path id="DejaVuSans-6f" d="M 1959 3097 
Q 1497 3097 1228 2736 
Q 959 2375 959 1747 
Q 959 1119 1226 758 
Q 1494 397 1959 397 
Q 2419 397 2687 759 
Q 2956 1122 2956 1747 
Q 2956 2369 2687 2733 
Q 2419 3097 1959 3097 
z
M 1959 3584 
Q 2709 3584 3137 3096 
Q 3566 2609 3566 1747 
Q 3566 888 3137 398 
Q 2709 -91 1959 -91 
Q 1206 -91 779 398 
Q 353 888 353 1747 
Q 353 2609 779 3096 
Q 1206 3584 1959 3584 
z
" transform="scale(0.015625)"/>
       <path id="DejaVuSans-6e" d="M 3513 2113 
L 3513 0 
L 2938 0 
L 2938 2094 
Q 2938 2591 2744 2837 
Q 2550 3084 2163 3084 
Q 1697 3084 1428 2787 
Q 1159 2491 1159 1978 
L 1159 0 
L 581 0 
L 581 3500 
L 1159 3500 
L 1159 2956 
Q 1366 3272 1645 3428 
Q 1925 3584 2291 3584 
Q 2894 3584 3203 3211 
Q 3513 2838 3513 2113 
z
" transform="scale(0.015625)"/>
      </defs>
      <use xlink:href="#DejaVuSans-70"/>
      <use xlink:href="#DejaVuSans-75" transform="translate(63.476562 0)"/>
      <use xlink:href="#DejaVuSans-6c" transform="translate(126.855469 0)"/>
      <use xlink:href="#DejaVuSans-73" transform="translate(154.638672 0)"/>
      <use xlink:href="#DejaVuSans-65" transform="translate(206.738281 0)"/>
      <use xlink:href="#DejaVuSans-3a" transform="translate(268.261719 0)"/>
      <use xlink:href="#DejaVuSans-30" transform="translate(301.953125 0)"/>
      <use xlink:href="#DejaVuSans-20" transform="translate(365.576172 0)"/>
      <use xlink:href="#DejaVuSans-5b" transform="translate(397.363281 0)"/>
      <use xlink:href="#DejaVuSans-63" transform="translate(436.376953 0)"/>
      <use xlink:href="#DejaVuSans-6f" transform="translate(491.357422 0)"/>
      <use xlink:href="#DejaVuSans-75" transform="translate(552.539062 0)"/>
      <use xlink:href="#DejaVuSans-6e" transform="translate(615.917969 0)"/>
      <use xlink:href="#DejaVuSans-74" transform="translate(679.296875 0)"/>
      <use xlink:href="#DejaVuSans-73" transform="translate(718.505859 0)"/>
      <use xlink:href="#DejaVuSans-5d" transform="translate(770.605469 0)"/>
     </g>
    </g>
   </g>
   <g id="line2d_16">
    <path d="M 69.749563 245.800205 
L 70.844325 245.800205 
L 70.844325 243.780411 
L 71.939088 243.780411 
L 71.939088 242.433882 
L 73.033851 242.433882 
L 73.033851 241.087353 
L 74.128613 241.087353 
L 74.128613 240.245773 
L 75.223376 240.245773 
L 75.223376 237.889347 
L 76.318138 237.889347 
L 76.318138 236.542818 
L 77.412901 236.542818 
L 77.412901 234.523025 
L 79.602426 234.523025 
L 79.602426 230.651754 
L 80.697188 230.651754 
L 80.697188 231.829967 
L 81.791951 231.829967 
L 81.791951 226.780483 
L 82.886713 226.780483 
L 82.886713 227.622064 
L 83.981476 227.622064 
L 83.981476 224.255741 
L 85.076238 224.255741 
L 85.076238 223.750793 
L 86.171001 223.750793 
L 86.171001 223.582477 
L 87.265763 223.582477 
L 87.265763 218.196361 
L 88.360526 218.196361 
L 88.360526 218.028045 
L 89.455288 218.028045 
L 89.455288 221.394367 
L 90.550051 221.394367 
L 90.550051 214.998355 
L 92.739576 214.998355 
L 92.739576 212.136981 
L 93.834339 212.136981 
L 93.834339 211.463716 
L 94.929101 211.463716 
L 94.929101 208.434026 
L 96.023864 208.434026 
L 96.023864 209.107291 
L 97.118626 209.107291 
L 97.118626 202.20633 
L 98.213389 202.20633 
L 98.213389 206.582549 
L 99.308151 206.582549 
L 99.308151 208.26571 
L 100.402914 208.26571 
L 100.402914 202.20633 
L 101.497676 202.20633 
L 101.497676 204.899388 
L 102.592439 204.899388 
L 102.592439 201.196433 
L 103.687201 201.196433 
L 103.687201 197.661795 
L 104.781964 197.661795 
L 104.781964 197.493478 
L 105.876726 197.493478 
L 105.876726 198.671691 
L 106.971489 198.671691 
L 106.971489 195.642001 
L 108.066252 195.642001 
L 108.066252 196.315266 
L 109.161014 196.315266 
L 109.161014 194.127156 
L 110.255777 194.127156 
L 110.255777 192.948943 
L 111.350539 192.948943 
L 111.350539 187.226195 
L 112.445302 187.226195 
L 112.445302 184.196505 
L 113.540064 184.196505 
L 113.540064 183.859873 
L 114.634827 183.859873 
L 114.634827 185.206402 
L 115.729589 185.206402 
L 115.729589 184.533137 
L 116.824352 184.533137 
L 116.824352 185.543034 
L 117.919114 185.543034 
L 117.919114 178.642073 
L 119.013877 178.642073 
L 119.013877 181.671763 
L 120.108639 181.671763 
L 120.108639 170.899532 
L 121.203402 170.899532 
L 121.203402 176.117331 
L 122.298164 176.117331 
L 122.298164 180.325234 
L 123.392927 180.325234 
L 123.392927 173.59259 
L 124.487689 173.59259 
L 124.487689 164.840151 
L 125.582452 164.840151 
L 125.582452 162.820358 
L 126.677215 162.820358 
L 126.677215 169.384687 
L 127.771977 169.384687 
L 127.771977 170.057951 
L 128.86674 170.057951 
L 128.86674 166.691629 
L 129.961502 166.691629 
L 129.961502 167.869842 
L 131.056265 167.869842 
L 131.056265 163.325306 
L 132.151027 163.325306 
L 132.151027 164.503519 
L 133.24579 164.503519 
L 133.24579 159.790668 
L 134.340552 159.790668 
L 134.340552 154.572868 
L 135.435315 154.572868 
L 135.435315 159.622352 
L 136.530077 159.622352 
L 136.530077 146.325378 
L 137.62484 146.325378 
L 137.62484 150.196649 
L 138.719602 150.196649 
L 138.719602 149.018436 
L 139.814365 149.018436 
L 139.814365 148.513488 
L 140.909127 148.513488 
L 140.909127 147.671907 
L 142.00389 147.671907 
L 142.00389 144.978849 
L 143.098652 144.978849 
L 143.098652 148.345172 
L 144.193415 148.345172 
L 144.193415 149.523385 
L 145.288178 149.523385 
L 145.288178 135.048198 
L 146.38294 135.048198 
L 146.38294 140.434314 
L 147.477703 140.434314 
L 147.477703 131.850192 
L 148.572465 131.850192 
L 148.572465 135.553147 
L 149.667228 135.553147 
L 149.667228 134.54325 
L 150.76199 134.54325 
L 150.76199 138.077889 
L 151.856753 138.077889 
L 151.856753 135.384831 
L 152.951515 135.384831 
L 152.951515 136.394727 
L 154.046278 136.394727 
L 154.046278 130.503663 
L 155.14104 130.503663 
L 155.14104 136.058095 
L 156.235803 136.058095 
L 156.235803 131.345244 
L 157.330565 131.345244 
L 157.330565 121.246277 
L 158.425328 121.246277 
L 158.425328 128.820502 
L 159.52009 128.820502 
L 159.52009 124.107651 
L 160.614853 124.107651 
L 160.614853 129.157134 
L 161.709615 129.157134 
L 161.709615 123.771018 
L 162.804378 123.771018 
L 162.804378 115.860161 
L 163.899141 115.860161 
L 163.899141 117.20669 
L 164.993903 117.20669 
L 164.993903 107.780987 
L 166.088666 107.780987 
L 166.088666 112.325522 
L 167.183428 112.325522 
L 167.183428 119.394799 
L 168.278191 119.394799 
L 168.278191 112.325522 
L 169.372953 112.325522 
L 169.372953 109.127516 
L 170.467716 109.127516 
L 170.467716 114.008684 
L 171.562478 114.008684 
L 171.562478 110.137413 
L 172.657241 110.137413 
L 172.657241 108.622568 
L 173.752003 108.622568 
L 173.752003 111.483942 
L 174.846766 111.483942 
L 174.846766 98.860233 
L 175.941528 98.860233 
L 175.941528 99.365181 
L 177.036291 99.365181 
L 177.036291 99.533497 
L 178.131053 99.533497 
L 178.131053 100.375078 
L 179.225816 100.375078 
L 179.225816 93.474117 
L 180.320579 93.474117 
L 180.320579 100.375078 
L 181.415341 100.375078 
L 181.415341 85.899892 
L 182.510104 85.899892 
L 182.510104 89.43453 
L 183.604866 89.43453 
L 183.604866 97.513704 
L 184.699629 97.513704 
L 184.699629 91.959272 
L 185.794391 91.959272 
L 185.794391 92.969169 
L 186.889154 92.969169 
L 186.889154 85.731576 
L 187.983916 85.731576 
L 187.983916 91.286007 
L 189.078679 91.286007 
L 189.078679 77.484086 
L 190.173441 77.484086 
L 190.173441 80.513776 
L 191.268204 80.513776 
L 191.268204 71.593022 
L 192.362966 71.593022 
L 192.362966 77.820718 
L 193.457729 77.820718 
L 193.457729 78.998931 
L 194.552491 78.998931 
L 194.552491 77.652402 
L 195.647254 77.652402 
L 195.647254 67.890067 
L 196.742016 67.890067 
L 196.742016 79.167247 
L 197.836779 79.167247 
L 197.836779 70.583125 
L 198.931542 70.583125 
L 198.931542 66.03859 
L 200.026304 66.03859 
L 200.026304 70.583125 
L 201.121067 70.583125 
L 201.121067 82.365253 
L 202.215829 82.365253 
L 202.215829 68.226699 
L 203.310592 68.226699 
L 203.310592 69.06828 
L 204.405354 69.06828 
L 204.405354 51.900036 
L 205.500117 51.900036 
L 205.500117 67.385119 
L 206.594879 67.385119 
L 206.594879 68.058383 
L 207.689642 68.058383 
L 207.689642 53.919829 
L 208.784404 53.919829 
L 208.784404 51.226771 
L 209.879167 51.226771 
L 209.879167 68.058383 
L 210.973929 68.058383 
L 210.973929 48.197081 
L 212.068692 48.197081 
L 212.068692 53.751513 
L 213.163454 53.751513 
L 213.163454 49.375294 
L 214.258217 49.375294 
L 214.258217 39.444643 
L 215.352979 39.444643 
L 215.352979 50.721823 
L 216.447742 50.721823 
L 216.447742 38.26643 
L 217.542505 38.26643 
L 217.542505 52.236668 
L 218.637267 52.236668 
L 218.637267 31.870417 
L 219.73203 31.870417 
L 219.73203 44.32581 
L 220.826792 44.32581 
L 220.826792 36.919901 
L 221.921555 36.919901 
L 221.921555 34.058527 
L 223.016317 34.058527 
L 223.016317 36.583269 
L 224.11108 36.583269 
L 224.11108 34.395159 
L 225.205842 34.395159 
L 225.205842 31.197153 
L 226.300605 31.197153 
L 226.300605 34.900108 
L 227.395367 34.900108 
L 227.395367 39.444643 
L 228.49013 39.444643 
L 228.49013 31.870417 
L 229.584892 31.870417 
L 229.584892 21.603134 
L 230.679655 21.603134 
L 230.679655 30.187256 
L 231.774417 30.187256 
L 231.774417 23.286295 
L 232.86918 23.286295 
L 232.86918 31.533785 
L 233.963942 31.533785 
L 233.963942 22.949663 
L 235.058705 22.949663 
L 235.058705 18.74176 
L 236.153468 18.74176 
L 236.153468 27.830831 
L 237.24823 27.830831 
L 237.24823 25.474405 
L 238.342993 25.474405 
L 238.342993 27.157566 
L 239.437755 27.157566 
L 239.437755 34.226843 
L 240.532518 34.226843 
L 240.532518 32.20705 
L 241.62728 32.20705 
L 241.62728 36.246637 
L 242.722043 36.246637 
L 242.722043 37.929798 
L 243.816805 37.929798 
L 243.816805 42.642649 
L 244.911568 42.642649 
L 244.911568 47.018868 
L 246.00633 47.018868 
L 246.00633 45.167391 
L 247.101093 45.167391 
L 247.101093 34.731792 
L 248.195855 34.731792 
L 248.195855 43.820862 
L 249.290618 43.820862 
L 249.290618 44.830759 
L 250.38538 44.830759 
L 250.38538 48.533713 
L 251.480143 48.533713 
L 251.480143 60.82079 
L 252.574906 60.82079 
L 252.574906 50.553507 
L 253.669668 50.553507 
L 253.669668 48.702029 
L 254.764431 48.702029 
L 254.764431 45.504023 
L 255.859193 45.504023 
L 255.859193 50.721823 
L 256.953956 50.721823 
L 256.953956 57.117835 
L 258.048718 57.117835 
L 258.048718 52.5733 
L 259.143481 52.5733 
L 259.143481 55.939622 
L 260.238243 55.939622 
L 260.238243 54.76141 
L 261.333006 54.76141 
L 261.333006 57.454468 
L 262.427768 57.454468 
L 262.427768 64.355428 
L 263.522531 64.355428 
L 263.522531 67.553435 
L 264.617293 67.553435 
L 264.617293 60.315842 
L 265.712056 60.315842 
L 265.712056 69.741544 
L 266.806818 69.741544 
L 266.806818 72.602918 
L 267.901581 72.602918 
L 267.901581 72.09797 
L 268.996343 72.09797 
L 268.996343 74.959344 
L 270.091106 74.959344 
L 270.091106 63.682164 
L 271.185869 63.682164 
L 271.185869 72.602918 
L 272.280631 72.602918 
L 272.280631 80.850408 
L 273.375394 80.850408 
L 273.375394 74.286079 
L 274.470156 74.286079 
L 274.470156 72.09797 
L 275.564919 72.09797 
L 275.564919 86.068208 
L 276.659681 86.068208 
L 276.659681 75.12766 
L 277.754444 75.12766 
L 277.754444 77.820718 
L 278.849206 77.820718 
L 278.849206 85.563259 
L 279.943969 85.563259 
L 279.943969 75.969241 
L 281.038731 75.969241 
L 281.038731 81.860305 
L 282.133494 81.860305 
L 282.133494 84.721679 
L 283.228256 84.721679 
L 283.228256 90.612743 
L 284.323019 90.612743 
L 284.323019 91.959272 
L 285.417781 91.959272 
L 285.417781 89.771162 
L 286.512544 89.771162 
L 286.512544 99.028549 
L 287.607306 99.028549 
L 287.607306 97.177072 
L 288.702069 97.177072 
L 288.702069 88.256317 
L 289.796832 88.256317 
L 289.796832 98.523601 
L 290.891594 98.523601 
L 290.891594 97.345388 
L 291.986357 97.345388 
L 291.986357 106.097826 
L 293.081119 106.097826 
L 293.081119 101.553291 
L 294.175882 101.553291 
L 294.175882 112.998787 
L 295.270644 112.998787 
L 295.270644 97.513704 
L 296.365407 97.513704 
L 296.365407 103.068136 
L 297.460169 103.068136 
L 297.460169 108.117619 
L 298.554932 108.117619 
L 298.554932 112.493838 
L 299.649694 112.493838 
L 299.649694 114.681948 
L 300.744457 114.681948 
L 300.744457 121.246277 
L 301.839219 121.246277 
L 301.839219 110.305729 
L 302.933982 110.305729 
L 302.933982 108.9592 
L 304.028744 108.9592 
L 304.028744 118.553219 
L 305.123507 118.553219 
L 305.123507 120.404696 
L 306.218269 120.404696 
L 306.218269 117.879954 
L 307.313032 117.879954 
L 307.313032 128.652186 
L 308.407795 128.652186 
L 308.407795 123.939335 
L 309.502557 123.939335 
L 309.502557 123.602702 
L 310.59732 123.602702 
L 310.59732 126.29576 
L 311.692082 126.29576 
L 311.692082 126.127444 
L 312.786845 126.127444 
L 312.786845 133.701669 
L 313.881607 133.701669 
L 313.881607 134.711566 
L 314.97637 134.711566 
L 314.97637 130.671979 
L 316.071132 130.671979 
L 316.071132 137.909572 
L 317.165895 137.909572 
L 317.165895 149.355068 
L 318.260657 149.355068 
L 318.260657 140.265998 
L 319.35542 140.265998 
L 319.35542 145.652114 
L 320.450182 145.652114 
L 320.450182 141.107579 
L 321.544945 141.107579 
L 321.544945 143.800637 
L 322.639707 143.800637 
L 322.639707 152.889707 
L 323.73447 152.889707 
L 323.73447 141.275895 
L 324.829233 141.275895 
L 324.829233 139.76105 
L 325.923995 139.76105 
L 325.923995 148.85012 
L 327.018758 148.85012 
L 327.018758 149.860017 
L 328.11352 149.860017 
L 328.11352 155.077817 
L 329.208283 155.077817 
L 329.208283 150.701597 
L 330.303045 150.701597 
L 330.303045 156.929294 
L 331.397808 156.929294 
L 331.397808 163.830255 
L 332.49257 163.830255 
L 332.49257 149.018436 
L 333.587333 149.018436 
L 333.587333 156.424345 
L 334.682095 156.424345 
L 334.682095 156.592662 
L 335.776858 156.592662 
L 335.776858 154.9095 
L 336.87162 154.9095 
L 336.87162 162.988674 
L 337.966383 162.988674 
L 337.966383 162.652042 
L 339.061145 162.652042 
L 339.061145 163.493622 
L 340.155908 163.493622 
L 340.155908 167.869842 
L 341.25067 167.869842 
L 341.25067 170.394583 
L 342.345433 170.394583 
L 342.345433 169.048054 
L 343.440196 169.048054 
L 343.440196 171.909428 
L 344.534958 171.909428 
L 344.534958 174.265854 
L 345.629721 174.265854 
L 345.629721 175.107435 
L 346.724483 175.107435 
L 346.724483 176.117331 
L 347.819246 176.117331 
L 347.819246 180.830183 
L 348.914008 180.830183 
L 348.914008 182.513344 
L 350.008771 182.513344 
L 350.008771 186.047982 
L 351.103533 186.047982 
L 351.103533 180.998499 
L 352.198296 180.998499 
L 352.198296 187.731144 
L 353.293058 187.731144 
L 353.293058 179.988602 
L 354.387821 179.988602 
L 354.387821 186.721247 
L 355.482583 186.721247 
L 355.482583 188.236092 
L 356.577346 188.236092 
L 356.577346 192.107363 
L 357.672108 192.107363 
L 357.672108 192.275679 
L 358.766871 192.275679 
L 358.766871 188.404408 
L 359.861633 188.404408 
L 359.861633 194.800421 
L 360.956396 194.800421 
L 360.956396 195.473685 
L 363.145921 195.473685 
L 363.145921 202.038014 
L 364.240684 202.038014 
L 364.240684 199.513272 
L 365.335446 199.513272 
L 365.335446 200.859801 
L 366.430209 200.859801 
L 366.430209 199.681588 
L 367.524971 199.681588 
L 367.524971 205.067704 
L 368.619734 205.067704 
L 368.619734 205.23602 
L 369.714496 205.23602 
L 369.714496 204.899388 
L 370.809259 204.899388 
L 370.809259 212.810245 
L 371.904021 212.810245 
L 371.904021 208.434026 
L 372.998784 208.434026 
L 372.998784 210.958768 
L 374.093546 210.958768 
L 374.093546 218.028045 
L 375.188309 218.028045 
L 375.188309 214.493407 
L 376.283071 214.493407 
L 376.283071 218.869626 
L 377.377834 218.869626 
L 377.377834 223.414161 
L 378.472596 223.414161 
L 378.472596 217.859729 
L 379.567359 217.859729 
L 379.567359 221.562684 
L 380.662122 221.562684 
L 380.662122 226.948799 
L 381.756884 226.948799 
L 381.756884 222.404264 
L 382.851647 222.404264 
L 382.851647 228.463644 
L 383.946409 228.463644 
L 383.946409 226.443851 
L 385.041172 226.443851 
L 385.041172 228.800277 
L 386.135934 228.800277 
L 386.135934 229.136909 
L 387.230697 229.136909 
L 387.230697 232.166599 
L 388.325459 232.166599 
L 388.325459 235.196289 
L 390.514984 235.196289 
L 390.514984 236.03787 
L 391.609747 236.03787 
L 391.609747 239.740824 
L 392.704509 239.740824 
L 392.704509 238.562612 
L 393.799272 238.562612 
L 393.799272 241.423986 
L 394.894034 241.423986 
L 394.894034 243.275463 
L 395.988797 243.275463 
L 395.988797 244.453676 
L 397.08356 244.453676 
L 397.08356 245.295256 
L 398.178322 245.295256 
L 398.178322 245.295256 
" clip-path="url(#paf596dfdf8)" style="fill: none; stroke: #1f77b4; stroke-width: 1.5; stroke-linecap: square"/>
   </g>
   <g id="patch_3">
    <path d="M 53.328125 257.153127 
L 53.328125 7.388838 
" style="fill: none; stroke: #000000; stroke-width: 0.8; stroke-linejoin: miter; stroke-linecap: square"/>
   </g>
   <g id="patch_4">
    <path d="M 414.59976 257.153127 
L 414.59976 7.388838 
" style="fill: none; stroke: #000000; stroke-width: 0.8; stroke-linejoin: miter; stroke-linecap: square"/>
   </g>
   <g id="patch_5">
    <path d="M 53.328125 257.153127 
L 414.59976 257.153127 
" style="fill: none; stroke: #000000; stroke-width: 0.8; stroke-linejoin: miter; stroke-linecap: square"/>
   </g>
   <g id="patch_6">
    <path d="M 53.328125 7.388838 
L 414.59976 7.388838 
" style="fill: none; stroke: #000000; stroke-width: 0.8; stroke-linejoin: miter; stroke-linecap: square"/>
   </g>
  </g>
  <g id="axes_2">
   <g id="patch_7">
    <path d="M 503.927885 257.153127 
L 865.19952 257.153127 
L 865.19952 7.388838 
L 503.927885 7.388838 
z
" style="fill: #ffffff"/>
   </g>
   <g id="matplotlib.axis_3">
    <g id="xtick_8">
     <g id="line2d_17">
      <g>
       <use xlink:href="#mf2d6014707" x="520.345737" y="257.153127" style="stroke: #000000; stroke-width: 0.8"/>
      </g>
     </g>
     <g id="text_18">
      <!-- 1.0 -->
      <g transform="translate(512.394174 271.751564) scale(0.1 -0.1)">
       <defs>
        <path id="DejaVuSans-2e" d="M 684 794 
L 1344 794 
L 1344 0 
L 684 0 
L 684 794 
z
" transform="scale(0.015625)"/>
       </defs>
       <use xlink:href="#DejaVuSans-31"/>
       <use xlink:href="#DejaVuSans-2e" transform="translate(63.623047 0)"/>
       <use xlink:href="#DejaVuSans-30" transform="translate(95.410156 0)"/>
      </g>
     </g>
    </g>
    <g id="xtick_9">
     <g id="line2d_18">
      <g>
       <use xlink:href="#mf2d6014707" x="575.084562" y="257.153127" style="stroke: #000000; stroke-width: 0.8"/>
      </g>
     </g>
     <g id="text_19">
      <!-- 1.5 -->
      <g transform="translate(567.133 271.751564) scale(0.1 -0.1)">
       <use xlink:href="#DejaVuSans-31"/>
       <use xlink:href="#DejaVuSans-2e" transform="translate(63.623047 0)"/>
       <use xlink:href="#DejaVuSans-35" transform="translate(95.410156 0)"/>
      </g>
     </g>
    </g>
    <g id="xtick_10">
     <g id="line2d_19">
      <g>
       <use xlink:href="#mf2d6014707" x="629.823388" y="257.153127" style="stroke: #000000; stroke-width: 0.8"/>
      </g>
     </g>
     <g id="text_20">
      <!-- 2.0 -->
      <g transform="translate(621.871825 271.751564) scale(0.1 -0.1)">
       <use xlink:href="#DejaVuSans-32"/>
       <use xlink:href="#DejaVuSans-2e" transform="translate(63.623047 0)"/>
       <use xlink:href="#DejaVuSans-30" transform="translate(95.410156 0)"/>
      </g>
     </g>
    </g>
    <g id="xtick_11">
     <g id="line2d_20">
      <g>
       <use xlink:href="#mf2d6014707" x="684.562213" y="257.153127" style="stroke: #000000; stroke-width: 0.8"/>
      </g>
     </g>
     <g id="text_21">
      <!-- 2.5 -->
      <g transform="translate(676.610651 271.751564) scale(0.1 -0.1)">
       <use xlink:href="#DejaVuSans-32"/>
       <use xlink:href="#DejaVuSans-2e" transform="translate(63.623047 0)"/>
       <use xlink:href="#DejaVuSans-35" transform="translate(95.410156 0)"/>
      </g>
     </g>
    </g>
    <g id="xtick_12">
     <g id="line2d_21">
      <g>
       <use xlink:href="#mf2d6014707" x="739.301039" y="257.153127" style="stroke: #000000; stroke-width: 0.8"/>
      </g>
     </g>
     <g id="text_22">
      <!-- 3.0 -->
      <g transform="translate(731.349476 271.751564) scale(0.1 -0.1)">
       <use xlink:href="#DejaVuSans-33"/>
       <use xlink:href="#DejaVuSans-2e" transform="translate(63.623047 0)"/>
       <use xlink:href="#DejaVuSans-30" transform="translate(95.410156 0)"/>
      </g>
     </g>
    </g>
    <g id="xtick_13">
     <g id="line2d_22">
      <g>
       <use xlink:href="#mf2d6014707" x="794.039864" y="257.153127" style="stroke: #000000; stroke-width: 0.8"/>
      </g>
     </g>
     <g id="text_23">
      <!-- 3.5 -->
      <g transform="translate(786.088302 271.751564) scale(0.1 -0.1)">
       <use xlink:href="#DejaVuSans-33"/>
       <use xlink:href="#DejaVuSans-2e" transform="translate(63.623047 0)"/>
       <use xlink:href="#DejaVuSans-35" transform="translate(95.410156 0)"/>
      </g>
     </g>
    </g>
    <g id="xtick_14">
     <g id="line2d_23">
      <g>
       <use xlink:href="#mf2d6014707" x="848.77869" y="257.153127" style="stroke: #000000; stroke-width: 0.8"/>
      </g>
     </g>
     <g id="text_24">
      <!-- 4.0 -->
      <g transform="translate(840.827127 271.751564) scale(0.1 -0.1)">
       <use xlink:href="#DejaVuSans-34"/>
       <use xlink:href="#DejaVuSans-2e" transform="translate(63.623047 0)"/>
       <use xlink:href="#DejaVuSans-30" transform="translate(95.410156 0)"/>
      </g>
     </g>
    </g>
    <g id="text_25">
     <!-- wavelength [Å] -->
     <g transform="translate(646.526202 287.114064) scale(0.1 -0.1)">
      <defs>
       <path id="DejaVuSans-77" d="M 269 3500 
L 844 3500 
L 1563 769 
L 2278 3500 
L 2956 3500 
L 3675 769 
L 4391 3500 
L 4966 3500 
L 4050 0 
L 3372 0 
L 2619 2869 
L 1863 0 
L 1184 0 
L 269 3500 
z
" transform="scale(0.015625)"/>
       <path id="DejaVuSans-61" d="M 2194 1759 
Q 1497 1759 1228 1600 
Q 959 1441 959 1056 
Q 959 750 1161 570 
Q 1363 391 1709 391 
Q 2188 391 2477 730 
Q 2766 1069 2766 1631 
L 2766 1759 
L 2194 1759 
z
M 3341 1997 
L 3341 0 
L 2766 0 
L 2766 531 
Q 2569 213 2275 61 
Q 1981 -91 1556 -91 
Q 1019 -91 701 211 
Q 384 513 384 1019 
Q 384 1609 779 1909 
Q 1175 2209 1959 2209 
L 2766 2209 
L 2766 2266 
Q 2766 2663 2505 2880 
Q 2244 3097 1772 3097 
Q 1472 3097 1187 3025 
Q 903 2953 641 2809 
L 641 3341 
Q 956 3463 1253 3523 
Q 1550 3584 1831 3584 
Q 2591 3584 2966 3190 
Q 3341 2797 3341 1997 
z
" transform="scale(0.015625)"/>
       <path id="DejaVuSans-76" d="M 191 3500 
L 800 3500 
L 1894 563 
L 2988 3500 
L 3597 3500 
L 2284 0 
L 1503 0 
L 191 3500 
z
" transform="scale(0.015625)"/>
       <path id="DejaVuSans-67" d="M 2906 1791 
Q 2906 2416 2648 2759 
Q 2391 3103 1925 3103 
Q 1463 3103 1205 2759 
Q 947 2416 947 1791 
Q 947 1169 1205 825 
Q 1463 481 1925 481 
Q 2391 481 2648 825 
Q 2906 1169 2906 1791 
z
M 3481 434 
Q 3481 -459 3084 -895 
Q 2688 -1331 1869 -1331 
Q 1566 -1331 1297 -1286 
Q 1028 -1241 775 -1147 
L 775 -588 
Q 1028 -725 1275 -790 
Q 1522 -856 1778 -856 
Q 2344 -856 2625 -561 
Q 2906 -266 2906 331 
L 2906 616 
Q 2728 306 2450 153 
Q 2172 0 1784 0 
Q 1141 0 747 490 
Q 353 981 353 1791 
Q 353 2603 747 3093 
Q 1141 3584 1784 3584 
Q 2172 3584 2450 3431 
Q 2728 3278 2906 2969 
L 2906 3500 
L 3481 3500 
L 3481 434 
z
" transform="scale(0.015625)"/>
       <path id="DejaVuSans-c5" d="M 2663 5081 
Q 2663 5278 2523 5417 
Q 2384 5556 2188 5556 
Q 1988 5556 1852 5420 
Q 1716 5284 1716 5081 
Q 1716 4884 1853 4746 
Q 1991 4609 2188 4609 
Q 2384 4609 2523 4746 
Q 2663 4884 2663 5081 
z
M 2188 4044 
L 1338 1722 
L 3041 1722 
L 2188 4044 
z
M 1716 4366 
Q 1525 4494 1428 4673 
Q 1331 4853 1331 5081 
Q 1331 5441 1579 5691 
Q 1828 5941 2188 5941 
Q 2544 5941 2795 5689 
Q 3047 5438 3047 5081 
Q 3047 4863 2948 4678 
Q 2850 4494 2663 4366 
L 4325 0 
L 3669 0 
L 3244 1197 
L 1141 1197 
L 716 0 
L 50 0 
L 1716 4366 
z
" transform="scale(0.015625)"/>
      </defs>
      <use xlink:href="#DejaVuSans-77"/>
      <use xlink:href="#DejaVuSans-61" transform="translate(81.787109 0)"/>
      <use xlink:href="#DejaVuSans-76" transform="translate(143.066406 0)"/>
      <use xlink:href="#DejaVuSans-65" transform="translate(202.246094 0)"/>
      <use xlink:href="#DejaVuSans-6c" transform="translate(263.769531 0)"/>
      <use xlink:href="#DejaVuSans-65" transform="translate(291.552734 0)"/>
      <use xlink:href="#DejaVuSans-6e" transform="translate(353.076172 0)"/>
      <use xlink:href="#DejaVuSans-67" transform="translate(416.455078 0)"/>
      <use xlink:href="#DejaVuSans-74" transform="translate(479.931641 0)"/>
      <use xlink:href="#DejaVuSans-68" transform="translate(519.140625 0)"/>
      <use xlink:href="#DejaVuSans-20" transform="translate(582.519531 0)"/>
      <use xlink:href="#DejaVuSans-5b" transform="translate(614.306641 0)"/>
      <use xlink:href="#DejaVuSans-c5" transform="translate(653.320312 0)"/>
      <use xlink:href="#DejaVuSans-5d" transform="translate(721.728516 0)"/>
     </g>
    </g>
   </g>
   <g id="matplotlib.axis_4">
    <g id="ytick_9">
     <g id="line2d_24">
      <g>
       <use xlink:href="#m8ba6e2ad10" x="503.927885" y="205.511338" style="stroke: #000000; stroke-width: 0.8"/>
      </g>
     </g>
     <g id="text_26">
      <!-- 400 -->
      <g transform="translate(477.840385 209.310557) scale(0.1 -0.1)">
       <use xlink:href="#DejaVuSans-34"/>
       <use xlink:href="#DejaVuSans-30" transform="translate(63.623047 0)"/>
       <use xlink:href="#DejaVuSans-30" transform="translate(127.246094 0)"/>
      </g>
     </g>
    </g>
    <g id="ytick_10">
     <g id="line2d_25">
      <g>
       <use xlink:href="#m8ba6e2ad10" x="503.927885" y="152.148602" style="stroke: #000000; stroke-width: 0.8"/>
      </g>
     </g>
     <g id="text_27">
      <!-- 600 -->
      <g transform="translate(477.840385 155.947821) scale(0.1 -0.1)">
       <use xlink:href="#DejaVuSans-36"/>
       <use xlink:href="#DejaVuSans-30" transform="translate(63.623047 0)"/>
       <use xlink:href="#DejaVuSans-30" transform="translate(127.246094 0)"/>
      </g>
     </g>
    </g>
    <g id="ytick_11">
     <g id="line2d_26">
      <g>
       <use xlink:href="#m8ba6e2ad10" x="503.927885" y="98.785865" style="stroke: #000000; stroke-width: 0.8"/>
      </g>
     </g>
     <g id="text_28">
      <!-- 800 -->
      <g transform="translate(477.840385 102.585084) scale(0.1 -0.1)">
       <use xlink:href="#DejaVuSans-38"/>
       <use xlink:href="#DejaVuSans-30" transform="translate(63.623047 0)"/>
       <use xlink:href="#DejaVuSans-30" transform="translate(127.246094 0)"/>
      </g>
     </g>
    </g>
    <g id="ytick_12">
     <g id="line2d_27">
      <g>
       <use xlink:href="#m8ba6e2ad10" x="503.927885" y="45.423129" style="stroke: #000000; stroke-width: 0.8"/>
      </g>
     </g>
     <g id="text_29">
      <!-- 1000 -->
      <g transform="translate(471.477885 49.222347) scale(0.1 -0.1)">
       <use xlink:href="#DejaVuSans-31"/>
       <use xlink:href="#DejaVuSans-30" transform="translate(63.623047 0)"/>
       <use xlink:href="#DejaVuSans-30" transform="translate(127.246094 0)"/>
       <use xlink:href="#DejaVuSans-30" transform="translate(190.869141 0)"/>
      </g>
     </g>
    </g>
    <g id="text_30">
     <!-- pulse:0 [counts] -->
     <g transform="translate(465.398197 172.751451) rotate(-90) scale(0.1 -0.1)">
      <use xlink:href="#DejaVuSans-70"/>
      <use xlink:href="#DejaVuSans-75" transform="translate(63.476562 0)"/>
      <use xlink:href="#DejaVuSans-6c" transform="translate(126.855469 0)"/>
      <use xlink:href="#DejaVuSans-73" transform="translate(154.638672 0)"/>
      <use xlink:href="#DejaVuSans-65" transform="translate(206.738281 0)"/>
      <use xlink:href="#DejaVuSans-3a" transform="translate(268.261719 0)"/>
      <use xlink:href="#DejaVuSans-30" transform="translate(301.953125 0)"/>
      <use xlink:href="#DejaVuSans-20" transform="translate(365.576172 0)"/>
      <use xlink:href="#DejaVuSans-5b" transform="translate(397.363281 0)"/>
      <use xlink:href="#DejaVuSans-63" transform="translate(436.376953 0)"/>
      <use xlink:href="#DejaVuSans-6f" transform="translate(491.357422 0)"/>
      <use xlink:href="#DejaVuSans-75" transform="translate(552.539062 0)"/>
      <use xlink:href="#DejaVuSans-6e" transform="translate(615.917969 0)"/>
      <use xlink:href="#DejaVuSans-74" transform="translate(679.296875 0)"/>
      <use xlink:href="#DejaVuSans-73" transform="translate(718.505859 0)"/>
      <use xlink:href="#DejaVuSans-5d" transform="translate(770.605469 0)"/>
     </g>
    </g>
   </g>
   <g id="line2d_28">
    <path d="M 520.349323 242.331627 
L 521.444085 242.331627 
L 521.444085 243.398881 
L 522.538848 243.398881 
L 522.538848 244.999764 
L 523.633611 244.999764 
L 523.633611 233.793589 
L 524.728373 233.793589 
L 524.728373 245.800205 
L 525.823136 245.800205 
L 525.823136 235.394471 
L 526.917898 235.394471 
L 526.917898 235.928098 
L 528.012661 235.928098 
L 528.012661 233.526775 
L 529.107423 233.526775 
L 529.107423 233.793589 
L 530.202186 233.793589 
L 530.202186 237.795794 
L 531.296948 237.795794 
L 531.296948 231.925893 
L 532.391711 231.925893 
L 532.391711 229.52457 
L 533.486473 229.52457 
L 533.486473 234.860844 
L 534.581236 234.860844 
L 534.581236 229.791384 
L 535.675998 229.791384 
L 535.675998 226.322806 
L 536.770761 226.322806 
L 536.770761 229.52457 
L 537.865523 229.52457 
L 537.865523 226.856433 
L 538.960286 226.856433 
L 538.960286 234.860844 
L 540.055048 234.860844 
L 540.055048 229.257756 
L 541.149811 229.257756 
L 541.149811 227.39006 
L 542.244574 227.39006 
L 542.244574 220.719718 
L 543.339336 220.719718 
L 543.339336 224.188296 
L 544.434099 224.188296 
L 544.434099 225.522365 
L 545.528861 225.522365 
L 545.528861 228.457315 
L 546.623624 228.457315 
L 546.623624 222.587414 
L 547.718386 222.587414 
L 547.718386 230.058197 
L 548.813149 230.058197 
L 548.813149 225.789178 
L 549.907911 225.789178 
L 549.907911 221.786973 
L 551.002674 221.786973 
L 551.002674 230.325011 
L 552.097436 230.325011 
L 552.097436 225.255551 
L 553.192199 225.255551 
L 553.192199 228.990943 
L 554.286961 228.990943 
L 554.286961 223.654669 
L 555.381724 223.654669 
L 555.381724 222.320601 
L 556.476486 222.320601 
L 556.476486 230.058197 
L 557.571249 230.058197 
L 557.571249 212.715308 
L 559.760774 212.715308 
L 559.760774 203.910456 
L 560.855537 203.910456 
L 560.855537 216.450699 
L 561.950299 216.450699 
L 561.950299 217.251141 
L 563.045062 217.251141 
L 563.045062 225.789178 
L 564.139824 225.789178 
L 564.139824 211.114426 
L 565.234587 211.114426 
L 565.234587 215.917072 
L 566.329349 215.917072 
L 566.329349 209.513544 
L 567.424112 209.513544 
L 567.424112 208.979916 
L 568.518874 208.979916 
L 568.518874 211.648053 
L 569.613637 211.648053 
L 569.613637 201.509133 
L 570.708399 201.509133 
L 570.708399 194.305164 
L 571.803162 194.305164 
L 571.803162 205.511338 
L 572.897924 205.511338 
L 572.897924 204.444084 
L 573.992687 204.444084 
L 573.992687 208.713103 
L 575.087449 208.713103 
L 575.087449 206.044966 
L 576.182212 206.044966 
L 576.182212 203.910456 
L 577.276975 203.910456 
L 577.276975 198.574183 
L 578.371737 198.574183 
L 578.371737 210.047171 
L 579.4665 210.047171 
L 579.4665 203.643643 
L 580.561262 203.643643 
L 580.561262 205.244525 
L 581.656025 205.244525 
L 581.656025 198.307369 
L 582.750787 198.307369 
L 582.750787 190.836586 
L 583.84555 190.836586 
L 583.84555 194.03835 
L 584.940312 194.03835 
L 584.940312 201.509133 
L 586.035075 201.509133 
L 586.035075 201.775947 
L 587.129837 201.775947 
L 587.129837 191.370213 
L 588.2246 191.370213 
L 588.2246 199.374624 
L 589.319362 199.374624 
L 589.319362 198.040555 
L 590.414125 198.040555 
L 590.414125 195.906046 
L 591.508887 195.906046 
L 591.508887 207.645848 
L 592.60365 207.645848 
L 592.60365 187.101194 
L 593.698412 187.101194 
L 593.698412 194.03835 
L 594.793175 194.03835 
L 594.793175 198.840996 
L 595.887938 198.840996 
L 595.887938 201.509133 
L 596.9827 201.509133 
L 596.9827 183.098989 
L 598.077463 183.098989 
L 598.077463 194.03835 
L 599.172225 194.03835 
L 599.172225 184.966685 
L 600.266988 184.966685 
L 600.266988 187.101194 
L 601.36175 187.101194 
L 601.36175 188.96889 
L 602.456513 188.96889 
L 602.456513 192.170654 
L 603.551275 192.170654 
L 603.551275 187.634822 
L 604.646038 187.634822 
L 604.646038 177.495902 
L 605.7408 177.495902 
L 605.7408 182.031734 
L 606.835563 182.031734 
L 606.835563 189.235704 
L 607.930325 189.235704 
L 607.930325 174.560951 
L 609.025088 174.560951 
L 609.025088 187.368008 
L 610.11985 187.368008 
L 610.11985 163.888404 
L 611.214613 163.888404 
L 611.214613 172.960069 
L 612.309375 172.960069 
L 612.309375 177.762715 
L 613.404138 177.762715 
L 613.404138 184.966685 
L 614.498901 184.966685 
L 614.498901 181.498107 
L 615.593663 181.498107 
L 615.593663 179.096784 
L 616.688426 179.096784 
L 616.688426 175.628206 
L 617.783188 175.628206 
L 617.783188 182.565362 
L 618.877951 182.565362 
L 618.877951 168.424236 
L 619.972713 168.424236 
L 619.972713 174.027324 
L 621.067476 174.027324 
L 621.067476 172.960069 
L 622.162238 172.960069 
L 622.162238 175.89502 
L 623.257001 175.89502 
L 623.257001 169.758305 
L 624.351763 169.758305 
L 624.351763 178.82997 
L 625.446526 178.82997 
L 625.446526 168.957864 
L 626.541288 168.957864 
L 626.541288 184.966685 
L 627.636051 184.966685 
L 627.636051 174.827765 
L 628.730813 174.827765 
L 628.730813 170.025119 
L 629.825576 170.025119 
L 629.825576 170.291932 
L 630.920339 170.291932 
L 630.920339 182.031734 
L 632.015101 182.031734 
L 632.015101 161.487081 
L 633.109864 161.487081 
L 633.109864 167.090168 
L 634.204626 167.090168 
L 634.204626 158.018503 
L 635.299389 158.018503 
L 635.299389 160.68664 
L 636.394151 160.68664 
L 636.394151 165.7561 
L 637.488914 165.7561 
L 637.488914 159.352571 
L 638.583676 159.352571 
L 638.583676 163.087963 
L 639.678439 163.087963 
L 639.678439 162.020708 
L 640.773201 162.020708 
L 640.773201 156.684434 
L 641.867964 156.684434 
L 641.867964 152.148602 
L 642.962726 152.148602 
L 642.962726 174.294138 
L 644.057489 174.294138 
L 644.057489 159.619385 
L 645.152251 159.619385 
L 645.152251 158.55213 
L 646.247014 158.55213 
L 646.247014 148.41321 
L 647.341776 148.41321 
L 647.341776 156.684434 
L 648.436539 156.684434 
L 648.436539 150.814533 
L 649.531302 150.814533 
L 649.531302 159.886199 
L 650.626064 159.886199 
L 650.626064 155.350366 
L 651.720827 155.350366 
L 651.720827 168.424236 
L 652.815589 168.424236 
L 652.815589 152.682229 
L 653.910352 152.682229 
L 653.910352 156.951248 
L 655.005114 156.951248 
L 655.005114 153.48267 
L 656.099877 153.48267 
L 656.099877 158.285317 
L 657.194639 158.285317 
L 657.194639 153.749484 
L 658.289402 153.749484 
L 658.289402 154.816739 
L 659.384164 154.816739 
L 659.384164 142.810123 
L 660.478927 142.810123 
L 660.478927 146.011887 
L 661.573689 146.011887 
L 661.573689 158.285317 
L 662.668452 158.285317 
L 662.668452 148.146397 
L 663.763214 148.146397 
L 663.763214 152.949043 
L 664.857977 152.949043 
L 664.857977 136.139781 
L 665.952739 136.139781 
L 665.952739 155.883993 
L 667.047502 155.883993 
L 667.047502 144.677819 
L 668.142265 144.677819 
L 668.142265 134.005271 
L 669.237027 134.005271 
L 669.237027 147.079142 
L 670.33179 147.079142 
L 670.33179 147.879583 
L 671.426552 147.879583 
L 671.426552 134.005271 
L 672.521315 134.005271 
L 672.521315 156.951248 
L 673.616077 156.951248 
L 673.616077 149.213651 
L 674.71084 149.213651 
L 674.71084 134.805712 
L 675.805602 134.805712 
L 675.805602 133.738458 
L 676.900365 133.738458 
L 676.900365 147.345956 
L 677.995127 147.345956 
L 677.995127 143.610564 
L 679.08989 143.610564 
L 679.08989 136.406595 
L 680.184652 136.406595 
L 680.184652 133.20483 
L 681.279415 133.20483 
L 681.279415 144.677819 
L 682.374177 144.677819 
L 682.374177 137.207036 
L 683.46894 137.207036 
L 683.46894 138.007477 
L 684.563702 138.007477 
L 684.563702 139.875172 
L 685.658465 139.875172 
L 685.658465 133.20483 
L 686.753228 133.20483 
L 686.753228 127.068116 
L 687.84799 127.068116 
L 687.84799 134.538899 
L 688.942753 134.538899 
L 688.942753 128.935811 
L 690.037515 128.935811 
L 690.037515 138.807918 
L 691.132278 138.807918 
L 691.132278 114.794686 
L 692.22704 114.794686 
L 692.22704 128.935811 
L 693.321803 128.935811 
L 693.321803 136.139781 
L 694.416565 136.139781 
L 694.416565 136.673408 
L 695.511328 136.673408 
L 695.511328 123.06591 
L 696.60609 123.06591 
L 696.60609 136.673408 
L 697.700853 136.673408 
L 697.700853 121.465028 
L 698.795615 121.465028 
L 698.795615 125.20042 
L 699.890378 125.20042 
L 699.890378 129.469439 
L 700.98514 129.469439 
L 700.98514 120.664587 
L 702.079903 120.664587 
L 702.079903 113.994245 
L 703.174666 113.994245 
L 703.174666 116.395568 
L 704.269428 116.395568 
L 704.269428 111.326108 
L 705.364191 111.326108 
L 705.364191 121.998656 
L 706.458953 121.998656 
L 706.458953 136.406595 
L 707.553716 136.406595 
L 707.553716 121.998656 
L 708.648478 121.998656 
L 708.648478 115.595127 
L 709.743241 115.595127 
L 709.743241 109.725226 
L 710.838003 109.725226 
L 710.838003 114.527872 
L 711.932766 114.527872 
L 711.932766 108.391158 
L 713.027528 108.391158 
L 713.027528 104.655766 
L 714.122291 104.655766 
L 714.122291 127.868557 
L 715.217053 127.868557 
L 715.217053 102.254443 
L 716.311816 102.254443 
L 716.311816 119.597332 
L 717.406578 119.597332 
L 717.406578 108.124344 
L 718.501341 108.124344 
L 718.501341 116.929196 
L 719.596103 116.929196 
L 719.596103 99.85312 
L 720.690866 99.85312 
L 720.690866 110.258854 
L 721.785629 110.258854 
L 721.785629 118.263264 
L 722.880391 118.263264 
L 722.880391 103.588511 
L 723.975154 103.588511 
L 723.975154 98.785865 
L 725.069916 98.785865 
L 725.069916 99.586306 
L 726.164679 99.586306 
L 726.164679 96.117728 
L 727.259441 96.117728 
L 727.259441 103.321698 
L 728.354204 103.321698 
L 728.354204 99.85312 
L 729.448966 99.85312 
L 729.448966 102.521257 
L 730.543729 102.521257 
L 730.543729 104.655766 
L 731.638491 104.655766 
L 731.638491 95.584101 
L 732.733254 95.584101 
L 732.733254 105.989835 
L 733.828016 105.989835 
L 733.828016 107.590717 
L 734.922779 107.590717 
L 734.922779 90.247827 
L 736.017541 90.247827 
L 736.017541 100.119934 
L 737.112304 100.119934 
L 737.112304 98.252238 
L 738.207066 98.252238 
L 738.207066 98.519051 
L 739.301829 98.519051 
L 739.301829 107.323903 
L 740.396592 107.323903 
L 740.396592 96.117728 
L 741.491354 96.117728 
L 741.491354 115.861941 
L 742.586117 115.861941 
L 742.586117 88.113318 
L 743.680879 88.113318 
L 743.680879 79.57528 
L 744.775642 79.57528 
L 744.775642 82.510231 
L 745.870404 82.510231 
L 745.870404 105.189394 
L 746.965167 105.189394 
L 746.965167 86.245622 
L 748.059929 86.245622 
L 748.059929 97.184983 
L 749.154692 97.184983 
L 749.154692 95.317287 
L 750.249454 95.317287 
L 750.249454 106.523462 
L 751.344217 106.523462 
L 751.344217 81.442976 
L 752.438979 81.442976 
L 752.438979 86.245622 
L 753.533742 86.245622 
L 753.533742 82.510231 
L 754.628504 82.510231 
L 754.628504 78.774839 
L 755.723267 78.774839 
L 755.723267 84.111113 
L 756.818029 84.111113 
L 756.818029 95.317287 
L 757.912792 95.317287 
L 757.912792 85.978808 
L 759.007555 85.978808 
L 759.007555 84.377926 
L 760.102317 84.377926 
L 760.102317 72.371311 
L 761.19708 72.371311 
L 761.19708 91.315082 
L 762.291842 91.315082 
L 762.291842 92.115523 
L 763.386605 92.115523 
L 763.386605 85.178367 
L 764.481367 85.178367 
L 764.481367 78.241212 
L 765.57613 78.241212 
L 765.57613 73.438565 
L 766.670892 73.438565 
L 766.670892 76.640329 
L 767.765655 76.640329 
L 767.765655 77.173957 
L 768.860417 77.173957 
L 768.860417 92.115523 
L 769.95518 92.115523 
L 769.95518 62.766018 
L 771.049942 62.766018 
L 771.049942 83.310672 
L 772.144705 83.310672 
L 772.144705 76.640329 
L 773.239467 76.640329 
L 773.239467 66.50141 
L 774.33423 66.50141 
L 774.33423 83.043858 
L 775.428993 83.043858 
L 775.428993 59.29744 
L 776.523755 59.29744 
L 776.523755 72.104497 
L 777.618518 72.104497 
L 777.618518 71.837683 
L 778.71328 71.837683 
L 778.71328 87.312877 
L 779.808043 87.312877 
L 779.808043 76.640329 
L 780.902805 76.640329 
L 780.902805 58.230185 
L 781.997568 58.230185 
L 781.997568 78.508025 
L 783.09233 78.508025 
L 783.09233 67.301851 
L 784.187093 67.301851 
L 784.187093 74.50582 
L 785.281855 74.50582 
L 785.281855 73.438565 
L 786.376618 73.438565 
L 786.376618 67.035037 
L 787.47138 67.035037 
L 787.47138 45.689942 
L 788.566143 45.689942 
L 788.566143 70.236801 
L 789.660905 70.236801 
L 789.660905 66.768223 
L 790.755668 66.768223 
L 790.755668 64.633714 
L 791.85043 64.633714 
L 791.85043 56.629303 
L 792.945193 56.629303 
L 792.945193 59.030626 
L 794.039956 59.030626 
L 794.039956 68.635919 
L 795.134718 68.635919 
L 795.134718 72.638124 
L 796.229481 72.638124 
L 796.229481 57.963372 
L 797.324243 57.963372 
L 797.324243 59.564254 
L 798.419006 59.564254 
L 798.419006 56.36249 
L 799.513768 56.36249 
L 799.513768 69.43636 
L 800.608531 69.43636 
L 800.608531 69.169546 
L 801.703293 69.169546 
L 801.703293 61.43195 
L 802.798056 61.43195 
L 802.798056 45.689942 
L 803.892818 45.689942 
L 803.892818 47.024011 
L 804.987581 47.024011 
L 804.987581 61.698763 
L 806.082343 61.698763 
L 806.082343 48.624893 
L 807.177106 48.624893 
L 807.177106 49.15852 
L 808.271868 49.15852 
L 808.271868 63.299645 
L 809.366631 63.299645 
L 809.366631 49.425334 
L 810.461393 49.425334 
L 810.461393 61.165136 
L 811.556156 61.165136 
L 811.556156 58.496999 
L 812.650919 58.496999 
L 812.650919 57.696558 
L 813.745681 57.696558 
L 813.745681 41.420923 
L 814.840444 41.420923 
L 814.840444 41.687737 
L 815.935206 41.687737 
L 815.935206 56.629303 
L 817.029969 56.629303 
L 817.029969 53.694353 
L 818.124731 53.694353 
L 818.124731 55.562049 
L 819.219494 55.562049 
L 819.219494 33.416513 
L 820.314256 33.416513 
L 820.314256 44.355874 
L 821.409019 44.355874 
L 821.409019 50.759402 
L 822.503781 50.759402 
L 822.503781 40.620482 
L 823.598544 40.620482 
L 823.598544 60.097881 
L 824.693306 60.097881 
L 824.693306 48.624893 
L 825.788069 48.624893 
L 825.788069 36.351463 
L 826.882831 36.351463 
L 826.882831 35.551022 
L 827.977594 35.551022 
L 827.977594 39.286414 
L 829.072357 39.286414 
L 829.072357 49.425334 
L 830.167119 49.425334 
L 830.167119 47.024011 
L 831.261882 47.024011 
L 831.261882 34.483768 
L 832.356644 34.483768 
L 832.356644 52.627098 
L 833.451407 52.627098 
L 833.451407 26.479357 
L 834.546169 26.479357 
L 834.546169 32.349258 
L 835.640932 32.349258 
L 835.640932 37.952345 
L 836.735694 37.952345 
L 836.735694 30.748376 
L 838.925219 30.748376 
L 838.925219 24.878475 
L 840.019982 24.878475 
L 840.019982 42.488178 
L 841.114744 42.488178 
L 841.114744 38.752786 
L 842.209507 38.752786 
L 842.209507 18.74176 
L 843.304269 18.74176 
L 843.304269 36.618277 
L 844.399032 36.618277 
L 844.399032 37.952345 
L 845.493794 37.952345 
L 845.493794 27.813425 
L 846.588557 27.813425 
L 846.588557 38.752786 
L 847.68332 38.752786 
L 847.68332 43.288619 
L 848.778082 43.288619 
L 848.778082 43.288619 
" clip-path="url(#pbbe07a745c)" style="fill: none; stroke: #1f77b4; stroke-width: 1.5; stroke-linecap: square"/>
   </g>
   <g id="patch_8">
    <path d="M 503.927885 257.153127 
L 503.927885 7.388838 
" style="fill: none; stroke: #000000; stroke-width: 0.8; stroke-linejoin: miter; stroke-linecap: square"/>
   </g>
   <g id="patch_9">
    <path d="M 865.19952 257.153127 
L 865.19952 7.388838 
" style="fill: none; stroke: #000000; stroke-width: 0.8; stroke-linejoin: miter; stroke-linecap: square"/>
   </g>
   <g id="patch_10">
    <path d="M 503.927885 257.153127 
L 865.19952 257.153127 
" style="fill: none; stroke: #000000; stroke-width: 0.8; stroke-linejoin: miter; stroke-linecap: square"/>
   </g>
   <g id="patch_11">
    <path d="M 503.927885 7.388838 
L 865.19952 7.388838 
" style="fill: none; stroke: #000000; stroke-width: 0.8; stroke-linejoin: miter; stroke-linecap: square"/>
   </g>
  </g>
 </g>
 <defs>
  <clipPath id="paf596dfdf8">
   <rect x="53.328125" y="7.388838" width="361.271635" height="249.764289"/>
  </clipPath>
  <clipPath id="pbbe07a745c">
   <rect x="503.927885" y="7.388838" width="361.271635" height="249.764289"/>
  </clipPath>
 </defs>
</svg>
