<?xml version="1.0" encoding="utf-8" standalone="no"?>
<!DOCTYPE svg PUBLIC "-//W3C//DTD SVG 1.1//EN"
  "http://www.w3.org/Graphics/SVG/1.1/DTD/svg11.dtd">
<svg xmlns:xlink="http://www.w3.org/1999/xlink" width="872.39952pt" height="296.397101pt" viewBox="0 0 872.39952 296.397101" xmlns="http://www.w3.org/2000/svg" version="1.1">
 <metadata>
  <rdf:RDF xmlns:dc="http://purl.org/dc/elements/1.1/" xmlns:cc="http://creativecommons.org/ns#" xmlns:rdf="http://www.w3.org/1999/02/22-rdf-syntax-ns#">
   <cc:Work>
    <dc:type rdf:resource="http://purl.org/dc/dcmitype/StillImage"/>
    <dc:date>2025-10-02T14:01:01.604945</dc:date>
    <dc:format>image/svg+xml</dc:format>
    <dc:creator>
     <cc:Agent>
      <dc:title>Matplotlib v3.10.1, https://matplotlib.org/</dc:title>
     </cc:Agent>
    </dc:creator>
   </cc:Work>
  </rdf:RDF>
 </metadata>
 <defs>
  <style type="text/css">*{stroke-linejoin: round; stroke-linecap: butt}</style>
 </defs>
 <g id="figure_1">
  <g id="patch_1">
   <path d="M 0 296.397101 
L 872.39952 296.397101 
L 872.39952 0 
L 0 0 
z
" style="fill: #ffffff"/>
  </g>
  <g id="axes_1">
   <g id="patch_2">
    <path d="M 53.328125 257.156476 
L 431.87976 257.156476 
L 431.87976 8.625361 
L 53.328125 8.625361 
z
" style="fill: #ffffff"/>
   </g>
   <g id="matplotlib.axis_1">
    <g id="xtick_1">
     <g id="line2d_1">
      <defs>
       <path id="m4ea254a50f" d="M 0 0 
L 0 3.5 
" style="stroke: #000000; stroke-width: 0.8"/>
      </defs>
      <g>
       <use xlink:href="#m4ea254a50f" x="64.539403" y="257.156476" style="stroke: #000000; stroke-width: 0.8"/>
      </g>
     </g>
     <g id="text_1">
      <!-- 0 -->
      <g transform="translate(61.358153 271.754913) scale(0.1 -0.1)">
       <defs>
        <path id="DejaVuSans-30" d="M 2034 4250 
Q 1547 4250 1301 3770 
Q 1056 3291 1056 2328 
Q 1056 1369 1301 889 
Q 1547 409 2034 409 
Q 2525 409 2770 889 
Q 3016 1369 3016 2328 
Q 3016 3291 2770 3770 
Q 2525 4250 2034 4250 
z
M 2034 4750 
Q 2819 4750 3233 4129 
Q 3647 3509 3647 2328 
Q 3647 1150 3233 529 
Q 2819 -91 2034 -91 
Q 1250 -91 836 529 
Q 422 1150 422 2328 
Q 422 3509 836 4129 
Q 1250 4750 2034 4750 
z
" transform="scale(0.015625)"/>
       </defs>
       <use xlink:href="#DejaVuSans-30"/>
      </g>
     </g>
    </g>
    <g id="xtick_2">
     <g id="line2d_2">
      <g>
       <use xlink:href="#m4ea254a50f" x="122.950282" y="257.156476" style="stroke: #000000; stroke-width: 0.8"/>
      </g>
     </g>
     <g id="text_2">
      <!-- 1000 -->
      <g transform="translate(110.225282 271.754913) scale(0.1 -0.1)">
       <defs>
        <path id="DejaVuSans-31" d="M 794 531 
L 1825 531 
L 1825 4091 
L 703 3866 
L 703 4441 
L 1819 4666 
L 2450 4666 
L 2450 531 
L 3481 531 
L 3481 0 
L 794 0 
L 794 531 
z
" transform="scale(0.015625)"/>
       </defs>
       <use xlink:href="#DejaVuSans-31"/>
       <use xlink:href="#DejaVuSans-30" transform="translate(63.623047 0)"/>
       <use xlink:href="#DejaVuSans-30" transform="translate(127.246094 0)"/>
       <use xlink:href="#DejaVuSans-30" transform="translate(190.869141 0)"/>
      </g>
     </g>
    </g>
    <g id="xtick_3">
     <g id="line2d_3">
      <g>
       <use xlink:href="#m4ea254a50f" x="181.361162" y="257.156476" style="stroke: #000000; stroke-width: 0.8"/>
      </g>
     </g>
     <g id="text_3">
      <!-- 2000 -->
      <g transform="translate(168.636162 271.754913) scale(0.1 -0.1)">
       <defs>
        <path id="DejaVuSans-32" d="M 1228 531 
L 3431 531 
L 3431 0 
L 469 0 
L 469 531 
Q 828 903 1448 1529 
Q 2069 2156 2228 2338 
Q 2531 2678 2651 2914 
Q 2772 3150 2772 3378 
Q 2772 3750 2511 3984 
Q 2250 4219 1831 4219 
Q 1534 4219 1204 4116 
Q 875 4013 500 3803 
L 500 4441 
Q 881 4594 1212 4672 
Q 1544 4750 1819 4750 
Q 2544 4750 2975 4387 
Q 3406 4025 3406 3419 
Q 3406 3131 3298 2873 
Q 3191 2616 2906 2266 
Q 2828 2175 2409 1742 
Q 1991 1309 1228 531 
z
" transform="scale(0.015625)"/>
       </defs>
       <use xlink:href="#DejaVuSans-32"/>
       <use xlink:href="#DejaVuSans-30" transform="translate(63.623047 0)"/>
       <use xlink:href="#DejaVuSans-30" transform="translate(127.246094 0)"/>
       <use xlink:href="#DejaVuSans-30" transform="translate(190.869141 0)"/>
      </g>
     </g>
    </g>
    <g id="xtick_4">
     <g id="line2d_4">
      <g>
       <use xlink:href="#m4ea254a50f" x="239.772041" y="257.156476" style="stroke: #000000; stroke-width: 0.8"/>
      </g>
     </g>
     <g id="text_4">
      <!-- 3000 -->
      <g transform="translate(227.047041 271.754913) scale(0.1 -0.1)">
       <defs>
        <path id="DejaVuSans-33" d="M 2597 2516 
Q 3050 2419 3304 2112 
Q 3559 1806 3559 1356 
Q 3559 666 3084 287 
Q 2609 -91 1734 -91 
Q 1441 -91 1130 -33 
Q 819 25 488 141 
L 488 750 
Q 750 597 1062 519 
Q 1375 441 1716 441 
Q 2309 441 2620 675 
Q 2931 909 2931 1356 
Q 2931 1769 2642 2001 
Q 2353 2234 1838 2234 
L 1294 2234 
L 1294 2753 
L 1863 2753 
Q 2328 2753 2575 2939 
Q 2822 3125 2822 3475 
Q 2822 3834 2567 4026 
Q 2313 4219 1838 4219 
Q 1578 4219 1281 4162 
Q 984 4106 628 3988 
L 628 4550 
Q 988 4650 1302 4700 
Q 1616 4750 1894 4750 
Q 2613 4750 3031 4423 
Q 3450 4097 3450 3541 
Q 3450 3153 3228 2886 
Q 3006 2619 2597 2516 
z
" transform="scale(0.015625)"/>
       </defs>
       <use xlink:href="#DejaVuSans-33"/>
       <use xlink:href="#DejaVuSans-30" transform="translate(63.623047 0)"/>
       <use xlink:href="#DejaVuSans-30" transform="translate(127.246094 0)"/>
       <use xlink:href="#DejaVuSans-30" transform="translate(190.869141 0)"/>
      </g>
     </g>
    </g>
    <g id="xtick_5">
     <g id="line2d_5">
      <g>
       <use xlink:href="#m4ea254a50f" x="298.182921" y="257.156476" style="stroke: #000000; stroke-width: 0.8"/>
      </g>
     </g>
     <g id="text_5">
      <!-- 4000 -->
      <g transform="translate(285.457921 271.754913) scale(0.1 -0.1)">
       <defs>
        <path id="DejaVuSans-34" d="M 2419 4116 
L 825 1625 
L 2419 1625 
L 2419 4116 
z
M 2253 4666 
L 3047 4666 
L 3047 1625 
L 3713 1625 
L 3713 1100 
L 3047 1100 
L 3047 0 
L 2419 0 
L 2419 1100 
L 313 1100 
L 313 1709 
L 2253 4666 
z
" transform="scale(0.015625)"/>
       </defs>
       <use xlink:href="#DejaVuSans-34"/>
       <use xlink:href="#DejaVuSans-30" transform="translate(63.623047 0)"/>
       <use xlink:href="#DejaVuSans-30" transform="translate(127.246094 0)"/>
       <use xlink:href="#DejaVuSans-30" transform="translate(190.869141 0)"/>
      </g>
     </g>
    </g>
    <g id="xtick_6">
     <g id="line2d_6">
      <g>
       <use xlink:href="#m4ea254a50f" x="356.5938" y="257.156476" style="stroke: #000000; stroke-width: 0.8"/>
      </g>
     </g>
     <g id="text_6">
      <!-- 5000 -->
      <g transform="translate(343.8688 271.754913) scale(0.1 -0.1)">
       <defs>
        <path id="DejaVuSans-35" d="M 691 4666 
L 3169 4666 
L 3169 4134 
L 1269 4134 
L 1269 2991 
Q 1406 3038 1543 3061 
Q 1681 3084 1819 3084 
Q 2600 3084 3056 2656 
Q 3513 2228 3513 1497 
Q 3513 744 3044 326 
Q 2575 -91 1722 -91 
Q 1428 -91 1123 -41 
Q 819 9 494 109 
L 494 744 
Q 775 591 1075 516 
Q 1375 441 1709 441 
Q 2250 441 2565 725 
Q 2881 1009 2881 1497 
Q 2881 1984 2565 2268 
Q 2250 2553 1709 2553 
Q 1456 2553 1204 2497 
Q 953 2441 691 2322 
L 691 4666 
z
" transform="scale(0.015625)"/>
       </defs>
       <use xlink:href="#DejaVuSans-35"/>
       <use xlink:href="#DejaVuSans-30" transform="translate(63.623047 0)"/>
       <use xlink:href="#DejaVuSans-30" transform="translate(127.246094 0)"/>
       <use xlink:href="#DejaVuSans-30" transform="translate(190.869141 0)"/>
      </g>
     </g>
    </g>
    <g id="xtick_7">
     <g id="line2d_7">
      <g>
       <use xlink:href="#m4ea254a50f" x="415.00468" y="257.156476" style="stroke: #000000; stroke-width: 0.8"/>
      </g>
     </g>
     <g id="text_7">
      <!-- 6000 -->
      <g transform="translate(402.27968 271.754913) scale(0.1 -0.1)">
       <defs>
        <path id="DejaVuSans-36" d="M 2113 2584 
Q 1688 2584 1439 2293 
Q 1191 2003 1191 1497 
Q 1191 994 1439 701 
Q 1688 409 2113 409 
Q 2538 409 2786 701 
Q 3034 994 3034 1497 
Q 3034 2003 2786 2293 
Q 2538 2584 2113 2584 
z
M 3366 4563 
L 3366 3988 
Q 3128 4100 2886 4159 
Q 2644 4219 2406 4219 
Q 1781 4219 1451 3797 
Q 1122 3375 1075 2522 
Q 1259 2794 1537 2939 
Q 1816 3084 2150 3084 
Q 2853 3084 3261 2657 
Q 3669 2231 3669 1497 
Q 3669 778 3244 343 
Q 2819 -91 2113 -91 
Q 1303 -91 875 529 
Q 447 1150 447 2328 
Q 447 3434 972 4092 
Q 1497 4750 2381 4750 
Q 2619 4750 2861 4703 
Q 3103 4656 3366 4563 
z
" transform="scale(0.015625)"/>
       </defs>
       <use xlink:href="#DejaVuSans-36"/>
       <use xlink:href="#DejaVuSans-30" transform="translate(63.623047 0)"/>
       <use xlink:href="#DejaVuSans-30" transform="translate(127.246094 0)"/>
       <use xlink:href="#DejaVuSans-30" transform="translate(190.869141 0)"/>
      </g>
     </g>
    </g>
    <g id="text_8">
     <!-- birth_time [µs] -->
     <g transform="translate(205.78363 285.433038) scale(0.1 -0.1)">
      <defs>
       <path id="DejaVuSans-62" d="M 3116 1747 
Q 3116 2381 2855 2742 
Q 2594 3103 2138 3103 
Q 1681 3103 1420 2742 
Q 1159 2381 1159 1747 
Q 1159 1113 1420 752 
Q 1681 391 2138 391 
Q 2594 391 2855 752 
Q 3116 1113 3116 1747 
z
M 1159 2969 
Q 1341 3281 1617 3432 
Q 1894 3584 2278 3584 
Q 2916 3584 3314 3078 
Q 3713 2572 3713 1747 
Q 3713 922 3314 415 
Q 2916 -91 2278 -91 
Q 1894 -91 1617 61 
Q 1341 213 1159 525 
L 1159 0 
L 581 0 
L 581 4863 
L 1159 4863 
L 1159 2969 
z
" transform="scale(0.015625)"/>
       <path id="DejaVuSans-69" d="M 603 3500 
L 1178 3500 
L 1178 0 
L 603 0 
L 603 3500 
z
M 603 4863 
L 1178 4863 
L 1178 4134 
L 603 4134 
L 603 4863 
z
" transform="scale(0.015625)"/>
       <path id="DejaVuSans-72" d="M 2631 2963 
Q 2534 3019 2420 3045 
Q 2306 3072 2169 3072 
Q 1681 3072 1420 2755 
Q 1159 2438 1159 1844 
L 1159 0 
L 581 0 
L 581 3500 
L 1159 3500 
L 1159 2956 
Q 1341 3275 1631 3429 
Q 1922 3584 2338 3584 
Q 2397 3584 2469 3576 
Q 2541 3569 2628 3553 
L 2631 2963 
z
" transform="scale(0.015625)"/>
       <path id="DejaVuSans-74" d="M 1172 4494 
L 1172 3500 
L 2356 3500 
L 2356 3053 
L 1172 3053 
L 1172 1153 
Q 1172 725 1289 603 
Q 1406 481 1766 481 
L 2356 481 
L 2356 0 
L 1766 0 
Q 1100 0 847 248 
Q 594 497 594 1153 
L 594 3053 
L 172 3053 
L 172 3500 
L 594 3500 
L 594 4494 
L 1172 4494 
z
" transform="scale(0.015625)"/>
       <path id="DejaVuSans-68" d="M 3513 2113 
L 3513 0 
L 2938 0 
L 2938 2094 
Q 2938 2591 2744 2837 
Q 2550 3084 2163 3084 
Q 1697 3084 1428 2787 
Q 1159 2491 1159 1978 
L 1159 0 
L 581 0 
L 581 4863 
L 1159 4863 
L 1159 2956 
Q 1366 3272 1645 3428 
Q 1925 3584 2291 3584 
Q 2894 3584 3203 3211 
Q 3513 2838 3513 2113 
z
" transform="scale(0.015625)"/>
       <path id="DejaVuSans-5f" d="M 3263 -1063 
L 3263 -1509 
L -63 -1509 
L -63 -1063 
L 3263 -1063 
z
" transform="scale(0.015625)"/>
       <path id="DejaVuSans-6d" d="M 3328 2828 
Q 3544 3216 3844 3400 
Q 4144 3584 4550 3584 
Q 5097 3584 5394 3201 
Q 5691 2819 5691 2113 
L 5691 0 
L 5113 0 
L 5113 2094 
Q 5113 2597 4934 2840 
Q 4756 3084 4391 3084 
Q 3944 3084 3684 2787 
Q 3425 2491 3425 1978 
L 3425 0 
L 2847 0 
L 2847 2094 
Q 2847 2600 2669 2842 
Q 2491 3084 2119 3084 
Q 1678 3084 1418 2786 
Q 1159 2488 1159 1978 
L 1159 0 
L 581 0 
L 581 3500 
L 1159 3500 
L 1159 2956 
Q 1356 3278 1631 3431 
Q 1906 3584 2284 3584 
Q 2666 3584 2933 3390 
Q 3200 3197 3328 2828 
z
" transform="scale(0.015625)"/>
       <path id="DejaVuSans-65" d="M 3597 1894 
L 3597 1613 
L 953 1613 
Q 991 1019 1311 708 
Q 1631 397 2203 397 
Q 2534 397 2845 478 
Q 3156 559 3463 722 
L 3463 178 
Q 3153 47 2828 -22 
Q 2503 -91 2169 -91 
Q 1331 -91 842 396 
Q 353 884 353 1716 
Q 353 2575 817 3079 
Q 1281 3584 2069 3584 
Q 2775 3584 3186 3129 
Q 3597 2675 3597 1894 
z
M 3022 2063 
Q 3016 2534 2758 2815 
Q 2500 3097 2075 3097 
Q 1594 3097 1305 2825 
Q 1016 2553 972 2059 
L 3022 2063 
z
" transform="scale(0.015625)"/>
       <path id="DejaVuSans-20" transform="scale(0.015625)"/>
       <path id="DejaVuSans-5b" d="M 550 4863 
L 1875 4863 
L 1875 4416 
L 1125 4416 
L 1125 -397 
L 1875 -397 
L 1875 -844 
L 550 -844 
L 550 4863 
z
" transform="scale(0.015625)"/>
       <path id="DejaVuSans-b5" d="M 544 -1331 
L 544 3500 
L 1119 3500 
L 1119 1325 
Q 1119 872 1334 640 
Q 1550 409 1972 409 
Q 2434 409 2667 671 
Q 2900 934 2900 1459 
L 2900 3500 
L 3475 3500 
L 3475 806 
Q 3475 619 3529 530 
Q 3584 441 3700 441 
Q 3728 441 3778 458 
Q 3828 475 3916 513 
L 3916 50 
Q 3788 -22 3673 -56 
Q 3559 -91 3450 -91 
Q 3234 -91 3106 31 
Q 2978 153 2931 403 
Q 2775 156 2548 32 
Q 2322 -91 2016 -91 
Q 1697 -91 1473 31 
Q 1250 153 1119 397 
L 1119 -1331 
L 544 -1331 
z
" transform="scale(0.015625)"/>
       <path id="DejaVuSans-73" d="M 2834 3397 
L 2834 2853 
Q 2591 2978 2328 3040 
Q 2066 3103 1784 3103 
Q 1356 3103 1142 2972 
Q 928 2841 928 2578 
Q 928 2378 1081 2264 
Q 1234 2150 1697 2047 
L 1894 2003 
Q 2506 1872 2764 1633 
Q 3022 1394 3022 966 
Q 3022 478 2636 193 
Q 2250 -91 1575 -91 
Q 1294 -91 989 -36 
Q 684 19 347 128 
L 347 722 
Q 666 556 975 473 
Q 1284 391 1588 391 
Q 1994 391 2212 530 
Q 2431 669 2431 922 
Q 2431 1156 2273 1281 
Q 2116 1406 1581 1522 
L 1381 1569 
Q 847 1681 609 1914 
Q 372 2147 372 2553 
Q 372 3047 722 3315 
Q 1072 3584 1716 3584 
Q 2034 3584 2315 3537 
Q 2597 3491 2834 3397 
z
" transform="scale(0.015625)"/>
       <path id="DejaVuSans-5d" d="M 1947 4863 
L 1947 -844 
L 622 -844 
L 622 -397 
L 1369 -397 
L 1369 4416 
L 622 4416 
L 622 4863 
L 1947 4863 
z
" transform="scale(0.015625)"/>
      </defs>
      <use xlink:href="#DejaVuSans-62"/>
      <use xlink:href="#DejaVuSans-69" transform="translate(63.476562 0)"/>
      <use xlink:href="#DejaVuSans-72" transform="translate(91.259766 0)"/>
      <use xlink:href="#DejaVuSans-74" transform="translate(132.373047 0)"/>
      <use xlink:href="#DejaVuSans-68" transform="translate(171.582031 0)"/>
      <use xlink:href="#DejaVuSans-5f" transform="translate(234.960938 0)"/>
      <use xlink:href="#DejaVuSans-74" transform="translate(284.960938 0)"/>
      <use xlink:href="#DejaVuSans-69" transform="translate(324.169922 0)"/>
      <use xlink:href="#DejaVuSans-6d" transform="translate(351.953125 0)"/>
      <use xlink:href="#DejaVuSans-65" transform="translate(449.365234 0)"/>
      <use xlink:href="#DejaVuSans-20" transform="translate(510.888672 0)"/>
      <use xlink:href="#DejaVuSans-5b" transform="translate(542.675781 0)"/>
      <use xlink:href="#DejaVuSans-b5" transform="translate(581.689453 0)"/>
      <use xlink:href="#DejaVuSans-73" transform="translate(645.3125 0)"/>
      <use xlink:href="#DejaVuSans-5d" transform="translate(697.412109 0)"/>
     </g>
    </g>
   </g>
   <g id="matplotlib.axis_2">
    <g id="ytick_1">
     <g id="line2d_8">
      <defs>
       <path id="m8768e4bbd9" d="M 0 0 
L -3.5 0 
" style="stroke: #000000; stroke-width: 0.8"/>
      </defs>
      <g>
       <use xlink:href="#m8768e4bbd9" x="53.328125" y="246.7014" style="stroke: #000000; stroke-width: 0.8"/>
      </g>
     </g>
     <g id="text_9">
      <!-- 0 -->
      <g transform="translate(39.965625 250.500619) scale(0.1 -0.1)">
       <use xlink:href="#DejaVuSans-30"/>
      </g>
     </g>
    </g>
    <g id="ytick_2">
     <g id="line2d_9">
      <g>
       <use xlink:href="#m8768e4bbd9" x="53.328125" y="213.02966" style="stroke: #000000; stroke-width: 0.8"/>
      </g>
     </g>
     <g id="text_10">
      <!-- 200 -->
      <g transform="translate(27.240625 216.828879) scale(0.1 -0.1)">
       <use xlink:href="#DejaVuSans-32"/>
       <use xlink:href="#DejaVuSans-30" transform="translate(63.623047 0)"/>
       <use xlink:href="#DejaVuSans-30" transform="translate(127.246094 0)"/>
      </g>
     </g>
    </g>
    <g id="ytick_3">
     <g id="line2d_10">
      <g>
       <use xlink:href="#m8768e4bbd9" x="53.328125" y="179.35792" style="stroke: #000000; stroke-width: 0.8"/>
      </g>
     </g>
     <g id="text_11">
      <!-- 400 -->
      <g transform="translate(27.240625 183.157139) scale(0.1 -0.1)">
       <use xlink:href="#DejaVuSans-34"/>
       <use xlink:href="#DejaVuSans-30" transform="translate(63.623047 0)"/>
       <use xlink:href="#DejaVuSans-30" transform="translate(127.246094 0)"/>
      </g>
     </g>
    </g>
    <g id="ytick_4">
     <g id="line2d_11">
      <g>
       <use xlink:href="#m8768e4bbd9" x="53.328125" y="145.68618" style="stroke: #000000; stroke-width: 0.8"/>
      </g>
     </g>
     <g id="text_12">
      <!-- 600 -->
      <g transform="translate(27.240625 149.485398) scale(0.1 -0.1)">
       <use xlink:href="#DejaVuSans-36"/>
       <use xlink:href="#DejaVuSans-30" transform="translate(63.623047 0)"/>
       <use xlink:href="#DejaVuSans-30" transform="translate(127.246094 0)"/>
      </g>
     </g>
    </g>
    <g id="ytick_5">
     <g id="line2d_12">
      <g>
       <use xlink:href="#m8768e4bbd9" x="53.328125" y="112.014439" style="stroke: #000000; stroke-width: 0.8"/>
      </g>
     </g>
     <g id="text_13">
      <!-- 800 -->
      <g transform="translate(27.240625 115.813658) scale(0.1 -0.1)">
       <defs>
        <path id="DejaVuSans-38" d="M 2034 2216 
Q 1584 2216 1326 1975 
Q 1069 1734 1069 1313 
Q 1069 891 1326 650 
Q 1584 409 2034 409 
Q 2484 409 2743 651 
Q 3003 894 3003 1313 
Q 3003 1734 2745 1975 
Q 2488 2216 2034 2216 
z
M 1403 2484 
Q 997 2584 770 2862 
Q 544 3141 544 3541 
Q 544 4100 942 4425 
Q 1341 4750 2034 4750 
Q 2731 4750 3128 4425 
Q 3525 4100 3525 3541 
Q 3525 3141 3298 2862 
Q 3072 2584 2669 2484 
Q 3125 2378 3379 2068 
Q 3634 1759 3634 1313 
Q 3634 634 3220 271 
Q 2806 -91 2034 -91 
Q 1263 -91 848 271 
Q 434 634 434 1313 
Q 434 1759 690 2068 
Q 947 2378 1403 2484 
z
M 1172 3481 
Q 1172 3119 1398 2916 
Q 1625 2713 2034 2713 
Q 2441 2713 2670 2916 
Q 2900 3119 2900 3481 
Q 2900 3844 2670 4047 
Q 2441 4250 2034 4250 
Q 1625 4250 1398 4047 
Q 1172 3844 1172 3481 
z
" transform="scale(0.015625)"/>
       </defs>
       <use xlink:href="#DejaVuSans-38"/>
       <use xlink:href="#DejaVuSans-30" transform="translate(63.623047 0)"/>
       <use xlink:href="#DejaVuSans-30" transform="translate(127.246094 0)"/>
      </g>
     </g>
    </g>
    <g id="ytick_6">
     <g id="line2d_13">
      <g>
       <use xlink:href="#m8768e4bbd9" x="53.328125" y="78.342699" style="stroke: #000000; stroke-width: 0.8"/>
      </g>
     </g>
     <g id="text_14">
      <!-- 1000 -->
      <g transform="translate(20.878125 82.141918) scale(0.1 -0.1)">
       <use xlink:href="#DejaVuSans-31"/>
       <use xlink:href="#DejaVuSans-30" transform="translate(63.623047 0)"/>
       <use xlink:href="#DejaVuSans-30" transform="translate(127.246094 0)"/>
       <use xlink:href="#DejaVuSans-30" transform="translate(190.869141 0)"/>
      </g>
     </g>
    </g>
    <g id="ytick_7">
     <g id="line2d_14">
      <g>
       <use xlink:href="#m8768e4bbd9" x="53.328125" y="44.670959" style="stroke: #000000; stroke-width: 0.8"/>
      </g>
     </g>
     <g id="text_15">
      <!-- 1200 -->
      <g transform="translate(20.878125 48.470178) scale(0.1 -0.1)">
       <use xlink:href="#DejaVuSans-31"/>
       <use xlink:href="#DejaVuSans-32" transform="translate(63.623047 0)"/>
       <use xlink:href="#DejaVuSans-30" transform="translate(127.246094 0)"/>
       <use xlink:href="#DejaVuSans-30" transform="translate(190.869141 0)"/>
      </g>
     </g>
    </g>
    <g id="ytick_8">
     <g id="line2d_15">
      <g>
       <use xlink:href="#m8768e4bbd9" x="53.328125" y="10.999219" style="stroke: #000000; stroke-width: 0.8"/>
      </g>
     </g>
     <g id="text_16">
      <!-- 1400 -->
      <g transform="translate(20.878125 14.798437) scale(0.1 -0.1)">
       <use xlink:href="#DejaVuSans-31"/>
       <use xlink:href="#DejaVuSans-34" transform="translate(63.623047 0)"/>
       <use xlink:href="#DejaVuSans-30" transform="translate(127.246094 0)"/>
       <use xlink:href="#DejaVuSans-30" transform="translate(190.869141 0)"/>
      </g>
     </g>
    </g>
    <g id="text_17">
     <!-- pulse:0 [counts] -->
     <g transform="translate(14.798438 173.371387) rotate(-90) scale(0.1 -0.1)">
      <defs>
       <path id="DejaVuSans-70" d="M 1159 525 
L 1159 -1331 
L 581 -1331 
L 581 3500 
L 1159 3500 
L 1159 2969 
Q 1341 3281 1617 3432 
Q 1894 3584 2278 3584 
Q 2916 3584 3314 3078 
Q 3713 2572 3713 1747 
Q 3713 922 3314 415 
Q 2916 -91 2278 -91 
Q 1894 -91 1617 61 
Q 1341 213 1159 525 
z
M 3116 1747 
Q 3116 2381 2855 2742 
Q 2594 3103 2138 3103 
Q 1681 3103 1420 2742 
Q 1159 2381 1159 1747 
Q 1159 1113 1420 752 
Q 1681 391 2138 391 
Q 2594 391 2855 752 
Q 3116 1113 3116 1747 
z
" transform="scale(0.015625)"/>
       <path id="DejaVuSans-75" d="M 544 1381 
L 544 3500 
L 1119 3500 
L 1119 1403 
Q 1119 906 1312 657 
Q 1506 409 1894 409 
Q 2359 409 2629 706 
Q 2900 1003 2900 1516 
L 2900 3500 
L 3475 3500 
L 3475 0 
L 2900 0 
L 2900 538 
Q 2691 219 2414 64 
Q 2138 -91 1772 -91 
Q 1169 -91 856 284 
Q 544 659 544 1381 
z
M 1991 3584 
L 1991 3584 
z
" transform="scale(0.015625)"/>
       <path id="DejaVuSans-6c" d="M 603 4863 
L 1178 4863 
L 1178 0 
L 603 0 
L 603 4863 
z
" transform="scale(0.015625)"/>
       <path id="DejaVuSans-3a" d="M 750 794 
L 1409 794 
L 1409 0 
L 750 0 
L 750 794 
z
M 750 3309 
L 1409 3309 
L 1409 2516 
L 750 2516 
L 750 3309 
z
" transform="scale(0.015625)"/>
       <path id="DejaVuSans-63" d="M 3122 3366 
L 3122 2828 
Q 2878 2963 2633 3030 
Q 2388 3097 2138 3097 
Q 1578 3097 1268 2742 
Q 959 2388 959 1747 
Q 959 1106 1268 751 
Q 1578 397 2138 397 
Q 2388 397 2633 464 
Q 2878 531 3122 666 
L 3122 134 
Q 2881 22 2623 -34 
Q 2366 -91 2075 -91 
Q 1284 -91 818 406 
Q 353 903 353 1747 
Q 353 2603 823 3093 
Q 1294 3584 2113 3584 
Q 2378 3584 2631 3529 
Q 2884 3475 3122 3366 
z
" transform="scale(0.015625)"/>
       <path id="DejaVuSans-6f" d="M 1959 3097 
Q 1497 3097 1228 2736 
Q 959 2375 959 1747 
Q 959 1119 1226 758 
Q 1494 397 1959 397 
Q 2419 397 2687 759 
Q 2956 1122 2956 1747 
Q 2956 2369 2687 2733 
Q 2419 3097 1959 3097 
z
M 1959 3584 
Q 2709 3584 3137 3096 
Q 3566 2609 3566 1747 
Q 3566 888 3137 398 
Q 2709 -91 1959 -91 
Q 1206 -91 779 398 
Q 353 888 353 1747 
Q 353 2609 779 3096 
Q 1206 3584 1959 3584 
z
" transform="scale(0.015625)"/>
       <path id="DejaVuSans-6e" d="M 3513 2113 
L 3513 0 
L 2938 0 
L 2938 2094 
Q 2938 2591 2744 2837 
Q 2550 3084 2163 3084 
Q 1697 3084 1428 2787 
Q 1159 2491 1159 1978 
L 1159 0 
L 581 0 
L 581 3500 
L 1159 3500 
L 1159 2956 
Q 1366 3272 1645 3428 
Q 1925 3584 2291 3584 
Q 2894 3584 3203 3211 
Q 3513 2838 3513 2113 
z
" transform="scale(0.015625)"/>
      </defs>
      <use xlink:href="#DejaVuSans-70"/>
      <use xlink:href="#DejaVuSans-75" transform="translate(63.476562 0)"/>
      <use xlink:href="#DejaVuSans-6c" transform="translate(126.855469 0)"/>
      <use xlink:href="#DejaVuSans-73" transform="translate(154.638672 0)"/>
      <use xlink:href="#DejaVuSans-65" transform="translate(206.738281 0)"/>
      <use xlink:href="#DejaVuSans-3a" transform="translate(268.261719 0)"/>
      <use xlink:href="#DejaVuSans-30" transform="translate(301.953125 0)"/>
      <use xlink:href="#DejaVuSans-20" transform="translate(365.576172 0)"/>
      <use xlink:href="#DejaVuSans-5b" transform="translate(397.363281 0)"/>
      <use xlink:href="#DejaVuSans-63" transform="translate(436.376953 0)"/>
      <use xlink:href="#DejaVuSans-6f" transform="translate(491.357422 0)"/>
      <use xlink:href="#DejaVuSans-75" transform="translate(552.539062 0)"/>
      <use xlink:href="#DejaVuSans-6e" transform="translate(615.917969 0)"/>
      <use xlink:href="#DejaVuSans-74" transform="translate(679.296875 0)"/>
      <use xlink:href="#DejaVuSans-73" transform="translate(718.505859 0)"/>
      <use xlink:href="#DejaVuSans-5d" transform="translate(770.605469 0)"/>
     </g>
    </g>
   </g>
   <g id="line2d_16">
    <path d="M 70.535017 245.859607 
L 71.682144 245.859607 
L 71.682144 244.512737 
L 72.82927 244.512737 
L 72.82927 241.650639 
L 73.976396 241.650639 
L 73.976396 243.334226 
L 75.123522 243.334226 
L 75.123522 238.115107 
L 76.270648 238.115107 
L 76.270648 239.798694 
L 77.417774 239.798694 
L 77.417774 236.094802 
L 78.564901 236.094802 
L 78.564901 233.232704 
L 79.712027 233.232704 
L 79.712027 234.411215 
L 80.859153 234.411215 
L 80.859153 233.73778 
L 82.006279 233.73778 
L 82.006279 231.549117 
L 83.153405 231.549117 
L 83.153405 229.192095 
L 84.300531 229.192095 
L 84.300531 227.845226 
L 85.447658 227.845226 
L 85.447658 223.4679 
L 86.594784 223.4679 
L 86.594784 226.329998 
L 87.74191 226.329998 
L 87.74191 225.488204 
L 88.889036 225.488204 
L 88.889036 219.595649 
L 90.036162 219.595649 
L 90.036162 222.626106 
L 91.183288 222.626106 
L 91.183288 218.585497 
L 92.330415 218.585497 
L 92.330415 212.861301 
L 93.477541 212.861301 
L 93.477541 216.228475 
L 94.624667 216.228475 
L 94.624667 217.070269 
L 95.771793 217.070269 
L 95.771793 214.713247 
L 96.918919 214.713247 
L 96.918919 212.019508 
L 98.066045 212.019508 
L 98.066045 211.009356 
L 99.213172 211.009356 
L 99.213172 207.978899 
L 100.360298 207.978899 
L 100.360298 208.147258 
L 101.507424 208.147258 
L 101.507424 207.642182 
L 102.65455 207.642182 
L 102.65455 200.571116 
L 103.801676 200.571116 
L 103.801676 204.443366 
L 104.948802 204.443366 
L 104.948802 204.275008 
L 106.095929 204.275008 
L 106.095929 200.739475 
L 107.243055 200.739475 
L 107.243055 195.688714 
L 108.390181 195.688714 
L 108.390181 195.520355 
L 109.537307 195.520355 
L 109.537307 196.362149 
L 110.684433 196.362149 
L 110.684433 195.520355 
L 111.831559 195.520355 
L 111.831559 192.489899 
L 112.978686 192.489899 
L 112.978686 193.500051 
L 114.125812 193.500051 
L 114.125812 193.836768 
L 115.272938 193.836768 
L 115.272938 187.439138 
L 116.420064 187.439138 
L 116.420064 184.913757 
L 117.56719 184.913757 
L 117.56719 183.061811 
L 118.714316 183.061811 
L 118.714316 184.913757 
L 119.861443 184.913757 
L 119.861443 180.70479 
L 121.008569 180.70479 
L 121.008569 179.526279 
L 122.155695 179.526279 
L 122.155695 180.368072 
L 123.302821 180.368072 
L 123.302821 172.960289 
L 124.449947 172.960289 
L 124.449947 175.654028 
L 125.597073 175.654028 
L 125.597073 179.694637 
L 126.7442 179.694637 
L 126.7442 175.317311 
L 127.891326 175.317311 
L 127.891326 164.710713 
L 129.038452 164.710713 
L 129.038452 173.297007 
L 130.185578 173.297007 
L 130.185578 169.256398 
L 131.332704 169.256398 
L 131.332704 165.215789 
L 132.47983 165.215789 
L 132.47983 165.720865 
L 133.626957 165.720865 
L 133.626957 164.373996 
L 134.774083 164.373996 
L 134.774083 159.491593 
L 135.921209 159.491593 
L 135.921209 166.562659 
L 137.068335 166.562659 
L 137.068335 160.501745 
L 138.215461 160.501745 
L 138.215461 160.165028 
L 139.362587 160.165028 
L 139.362587 156.124419 
L 140.509714 156.124419 
L 140.509714 163.532202 
L 141.65684 163.532202 
L 141.65684 148.716636 
L 142.803966 148.716636 
L 142.803966 157.808006 
L 143.951092 157.808006 
L 143.951092 148.379919 
L 145.098218 148.379919 
L 145.098218 146.696332 
L 146.245344 146.696332 
L 146.245344 149.053354 
L 147.392471 149.053354 
L 147.392471 146.359614 
L 148.539597 146.359614 
L 148.539597 147.369767 
L 149.686723 147.369767 
L 149.686723 146.359614 
L 150.833849 146.359614 
L 150.833849 144.002593 
L 151.980975 144.002593 
L 151.980975 133.395994 
L 153.128101 133.395994 
L 153.128101 147.201408 
L 154.275228 147.201408 
L 154.275228 135.24794 
L 155.422354 135.24794 
L 155.422354 134.574505 
L 156.56948 134.574505 
L 156.56948 129.355386 
L 157.716606 129.355386 
L 157.716606 125.819853 
L 158.863732 125.819853 
L 158.863732 130.365538 
L 160.010858 130.365538 
L 160.010858 128.85031 
L 161.157985 128.85031 
L 161.157985 131.038973 
L 162.305111 131.038973 
L 162.305111 120.095657 
L 163.452237 120.095657 
L 163.452237 122.115962 
L 164.599363 122.115962 
L 164.599363 121.105809 
L 165.746489 121.105809 
L 165.746489 119.927298 
L 166.893615 119.927298 
L 166.893615 115.381613 
L 168.040742 115.381613 
L 168.040742 125.651494 
L 169.187868 125.651494 
L 169.187868 116.896842 
L 170.334994 116.896842 
L 170.334994 117.233559 
L 171.48212 117.233559 
L 171.48212 117.906994 
L 172.629246 117.906994 
L 172.629246 115.718331 
L 173.776372 115.718331 
L 173.776372 110.330852 
L 174.923499 110.330852 
L 174.923499 100.902765 
L 176.070625 100.902765 
L 176.070625 107.132037 
L 177.217751 107.132037 
L 177.217751 103.764863 
L 178.364877 103.764863 
L 178.364877 107.805472 
L 179.512003 107.805472 
L 179.512003 90.801243 
L 180.659129 90.801243 
L 180.659129 99.050819 
L 181.806256 99.050819 
L 181.806256 107.468755 
L 182.953382 107.468755 
L 182.953382 100.902765 
L 184.100508 100.902765 
L 184.100508 102.081276 
L 185.247634 102.081276 
L 185.247634 95.178569 
L 186.39476 95.178569 
L 186.39476 92.653189 
L 187.541886 92.653189 
L 187.541886 92.821548 
L 188.689013 92.821548 
L 188.689013 88.275863 
L 189.836139 88.275863 
L 189.836139 89.117656 
L 190.983265 89.117656 
L 190.983265 81.373156 
L 192.130391 81.373156 
L 192.130391 86.423917 
L 193.277517 86.423917 
L 193.277517 92.148113 
L 194.424643 92.148113 
L 194.424643 78.174341 
L 195.57177 78.174341 
L 195.57177 84.235254 
L 196.718896 84.235254 
L 196.718896 91.306319 
L 197.866022 91.306319 
L 197.866022 85.413765 
L 199.013148 85.413765 
L 199.013148 79.689569 
L 200.160274 79.689569 
L 200.160274 77.837623 
L 201.3074 77.837623 
L 201.3074 80.363004 
L 202.454527 80.363004 
L 202.454527 81.204797 
L 203.601653 81.204797 
L 203.601653 78.005982 
L 204.748779 78.005982 
L 204.748779 59.318166 
L 205.895905 59.318166 
L 205.895905 65.547438 
L 207.043031 65.547438 
L 207.043031 71.77671 
L 208.190157 71.77671 
L 208.190157 66.55759 
L 209.337284 66.55759 
L 209.337284 68.746253 
L 210.48441 68.746253 
L 210.48441 61.170112 
L 211.631536 61.170112 
L 211.631536 52.920535 
L 212.778662 52.920535 
L 212.778662 61.843547 
L 213.925788 61.843547 
L 213.925788 54.435764 
L 215.072914 54.435764 
L 215.072914 55.109198 
L 216.220041 55.109198 
L 216.220041 56.456068 
L 217.367167 56.456068 
L 217.367167 55.782633 
L 218.514293 55.782633 
L 218.514293 42.987372 
L 219.661419 42.987372 
L 219.661419 57.971296 
L 220.808545 57.971296 
L 220.808545 32.549132 
L 221.955671 32.549132 
L 221.955671 54.099046 
L 223.102798 54.099046 
L 223.102798 62.68534 
L 224.249924 62.68534 
L 224.249924 41.472144 
L 225.39705 41.472144 
L 225.39705 44.839318 
L 226.544176 44.839318 
L 226.544176 50.731872 
L 227.691302 50.731872 
L 227.691302 31.53898 
L 228.838428 31.53898 
L 228.838428 30.360469 
L 229.985555 30.360469 
L 229.985555 29.0136 
L 231.132681 29.0136 
L 231.132681 43.155731 
L 232.279807 43.155731 
L 232.279807 27.161654 
L 233.426933 27.161654 
L 233.426933 34.064361 
L 234.574059 34.064361 
L 234.574059 30.528828 
L 235.721185 30.528828 
L 235.721185 40.63035 
L 236.868312 40.63035 
L 236.868312 32.044056 
L 238.015438 32.044056 
L 238.015438 20.764023 
L 239.162564 20.764023 
L 239.162564 20.595665 
L 240.30969 20.595665 
L 240.30969 23.457763 
L 241.456816 23.457763 
L 241.456816 35.916307 
L 242.603942 35.916307 
L 242.603942 23.289404 
L 243.751069 23.289404 
L 243.751069 29.181958 
L 244.898195 29.181958 
L 244.898195 21.437458 
L 246.045321 21.437458 
L 246.045321 31.875698 
L 247.192447 31.875698 
L 247.192447 19.92223 
L 248.339573 19.92223 
L 248.339573 42.313937 
L 249.486699 42.313937 
L 249.486699 35.579589 
L 250.633826 35.579589 
L 250.633826 33.559285 
L 251.780952 33.559285 
L 251.780952 37.599894 
L 252.928078 37.599894 
L 252.928078 32.549132 
L 254.075204 32.549132 
L 254.075204 42.145578 
L 255.22233 42.145578 
L 255.22233 45.007676 
L 256.369456 45.007676 
L 256.369456 44.670959 
L 257.516583 44.670959 
L 257.516583 38.946763 
L 258.663709 38.946763 
L 258.663709 44.165883 
L 259.810835 44.165883 
L 259.810835 40.63035 
L 260.957961 40.63035 
L 260.957961 48.37485 
L 262.105087 48.37485 
L 262.105087 43.155731 
L 263.252213 43.155731 
L 263.252213 41.640502 
L 264.39934 41.640502 
L 264.39934 56.624427 
L 265.546466 56.624427 
L 265.546466 53.088894 
L 266.693592 53.088894 
L 266.693592 47.364698 
L 267.840718 47.364698 
L 267.840718 55.782633 
L 268.987844 55.782633 
L 268.987844 59.991601 
L 270.13497 59.991601 
L 270.13497 59.318166 
L 271.282097 59.318166 
L 271.282097 59.654883 
L 272.429223 59.654883 
L 272.429223 61.843547 
L 273.576349 61.843547 
L 273.576349 57.971296 
L 274.723475 57.971296 
L 274.723475 65.715797 
L 275.870601 65.715797 
L 275.870601 66.052514 
L 277.017727 66.052514 
L 277.017727 77.500906 
L 278.164854 77.500906 
L 278.164854 62.853699 
L 279.31198 62.853699 
L 279.31198 71.103275 
L 280.459106 71.103275 
L 280.459106 80.531362 
L 281.606232 80.531362 
L 281.606232 79.016134 
L 282.753358 79.016134 
L 282.753358 72.955221 
L 283.900484 72.955221 
L 283.900484 72.113427 
L 285.047611 72.113427 
L 285.047611 83.225102 
L 286.194737 83.225102 
L 286.194737 76.154036 
L 287.341863 76.154036 
L 287.341863 84.403612 
L 288.488989 84.403612 
L 288.488989 81.541515 
L 289.636115 81.541515 
L 289.636115 88.61258 
L 290.783241 88.61258 
L 290.783241 80.026286 
L 291.930368 80.026286 
L 291.930368 90.464526 
L 293.077494 90.464526 
L 293.077494 94.505135 
L 294.22462 94.505135 
L 294.22462 87.770786 
L 295.371746 87.770786 
L 295.371746 85.582123 
L 296.518872 85.582123 
L 296.518872 91.979754 
L 297.665998 91.979754 
L 297.665998 87.602428 
L 298.813125 87.602428 
L 298.813125 94.336776 
L 299.960251 94.336776 
L 299.960251 101.407841 
L 301.107377 101.407841 
L 301.107377 101.239483 
L 302.254503 101.239483 
L 302.254503 101.071124 
L 303.401629 101.071124 
L 303.401629 102.586352 
L 304.548755 102.586352 
L 304.548755 104.10158 
L 305.695882 104.10158 
L 305.695882 108.478907 
L 306.843008 108.478907 
L 306.843008 110.66757 
L 307.990134 110.66757 
L 307.990134 114.708179 
L 309.13726 114.708179 
L 309.13726 101.239483 
L 310.284386 101.239483 
L 310.284386 111.509363 
L 311.431512 111.509363 
L 311.431512 107.468755 
L 312.578639 107.468755 
L 312.578639 108.983983 
L 313.725765 108.983983 
L 313.725765 123.462831 
L 314.872891 123.462831 
L 314.872891 112.014439 
L 316.020017 112.014439 
L 316.020017 120.095657 
L 317.167143 120.095657 
L 317.167143 123.126114 
L 318.314269 123.126114 
L 318.314269 123.799549 
L 319.461396 123.799549 
L 319.461396 130.02882 
L 320.608522 130.02882 
L 320.608522 119.927298 
L 321.755648 119.927298 
L 321.755648 132.049125 
L 322.902774 132.049125 
L 322.902774 122.789396 
L 324.0499 122.789396 
L 324.0499 130.197179 
L 325.197026 130.197179 
L 325.197026 131.880766 
L 326.344153 131.880766 
L 326.344153 129.355386 
L 327.491279 129.355386 
L 327.491279 127.50344 
L 328.638405 127.50344 
L 328.638405 134.069429 
L 329.785531 134.069429 
L 329.785531 136.931527 
L 330.932657 136.931527 
L 330.932657 140.130343 
L 332.079783 140.130343 
L 332.079783 145.517821 
L 333.22691 145.517821 
L 333.22691 144.507669 
L 334.374036 144.507669 
L 334.374036 146.864691 
L 335.521162 146.864691 
L 335.521162 139.625266 
L 336.668288 139.625266 
L 336.668288 143.665875 
L 337.815414 143.665875 
L 337.815414 150.736941 
L 338.96254 150.736941 
L 338.96254 151.410376 
L 340.109667 151.410376 
L 340.109667 143.834234 
L 341.256793 143.834234 
L 341.256793 154.272473 
L 342.403919 154.272473 
L 342.403919 155.619343 
L 343.551045 155.619343 
L 343.551045 156.629495 
L 344.698171 156.629495 
L 344.698171 153.43068 
L 345.845297 153.43068 
L 345.845297 154.77755 
L 346.992424 154.77755 
L 346.992424 153.767397 
L 348.13955 153.767397 
L 348.13955 158.481441 
L 349.286676 158.481441 
L 349.286676 165.720865 
L 350.433802 165.720865 
L 350.433802 159.996669 
L 351.580928 159.996669 
L 351.580928 165.384148 
L 352.728054 165.384148 
L 352.728054 161.006821 
L 353.875181 161.006821 
L 353.875181 169.256398 
L 355.022307 169.256398 
L 355.022307 165.384148 
L 356.169433 165.384148 
L 356.169433 169.929833 
L 357.316559 169.929833 
L 357.316559 174.980594 
L 358.463685 174.980594 
L 358.463685 173.802083 
L 359.610811 173.802083 
L 359.610811 174.1388 
L 360.757938 174.1388 
L 360.757938 168.91968 
L 361.905064 168.91968 
L 361.905064 183.061811 
L 363.05219 183.061811 
L 363.05219 185.587192 
L 364.199316 185.587192 
L 364.199316 182.051659 
L 365.346442 182.051659 
L 365.346442 189.627801 
L 366.493568 189.627801 
L 366.493568 184.913757 
L 367.640695 184.913757 
L 367.640695 182.220018 
L 368.787821 182.220018 
L 368.787821 193.500051 
L 369.934947 193.500051 
L 369.934947 188.786007 
L 371.082073 188.786007 
L 371.082073 193.836768 
L 373.376325 193.836768 
L 373.376325 196.867225 
L 374.523452 196.867225 
L 374.523452 191.143029 
L 375.670578 191.143029 
L 375.670578 194.173486 
L 376.817704 194.173486 
L 376.817704 192.826616 
L 377.96483 192.826616 
L 377.96483 202.086345 
L 379.111956 202.086345 
L 379.111956 202.928138 
L 380.259082 202.928138 
L 380.259082 202.423062 
L 382.553335 202.423062 
L 382.553335 206.295312 
L 383.700461 206.295312 
L 383.700461 204.611725 
L 384.847587 204.611725 
L 384.847587 207.81054 
L 385.994713 207.81054 
L 385.994713 209.830845 
L 387.141839 209.830845 
L 387.141839 208.315617 
L 388.288966 208.315617 
L 388.288966 214.37653 
L 389.436092 214.37653 
L 389.436092 212.187867 
L 390.583218 212.187867 
L 390.583218 214.208171 
L 391.730344 214.208171 
L 391.730344 216.228475 
L 392.87747 216.228475 
L 392.87747 217.912062 
L 394.024596 217.912062 
L 394.024596 217.575345 
L 395.171723 217.575345 
L 395.171723 219.932367 
L 396.318849 219.932367 
L 396.318849 225.319845 
L 397.465975 225.319845 
L 397.465975 224.814769 
L 398.613101 224.814769 
L 398.613101 225.488204 
L 399.760227 225.488204 
L 399.760227 228.181943 
L 400.907353 228.181943 
L 400.907353 230.875682 
L 402.05448 230.875682 
L 402.05448 231.717476 
L 403.201606 231.717476 
L 403.201606 235.253009 
L 404.348732 235.253009 
L 404.348732 233.232704 
L 405.495858 233.232704 
L 405.495858 234.747933 
L 406.642984 234.747933 
L 406.642984 237.273313 
L 407.79011 237.273313 
L 407.79011 239.967052 
L 408.937237 239.967052 
L 408.937237 239.798694 
L 410.084363 239.798694 
L 410.084363 240.808846 
L 411.231489 240.808846 
L 411.231489 243.334226 
L 412.378615 243.334226 
L 412.378615 244.007661 
L 413.525741 244.007661 
L 413.525741 245.186172 
L 414.672867 245.186172 
L 414.672867 245.186172 
" clip-path="url(#pfb70f54287)" style="fill: none; stroke: #1f77b4; stroke-width: 1.5; stroke-linecap: square"/>
   </g>
   <g id="patch_3">
    <path d="M 53.328125 257.156476 
L 53.328125 8.625361 
" style="fill: none; stroke: #000000; stroke-width: 0.8; stroke-linejoin: miter; stroke-linecap: square"/>
   </g>
   <g id="patch_4">
    <path d="M 431.87976 257.156476 
L 431.87976 8.625361 
" style="fill: none; stroke: #000000; stroke-width: 0.8; stroke-linejoin: miter; stroke-linecap: square"/>
   </g>
   <g id="patch_5">
    <path d="M 53.328125 257.156476 
L 431.87976 257.156476 
" style="fill: none; stroke: #000000; stroke-width: 0.8; stroke-linejoin: miter; stroke-linecap: square"/>
   </g>
   <g id="patch_6">
    <path d="M 53.328125 8.625361 
L 431.87976 8.625361 
" style="fill: none; stroke: #000000; stroke-width: 0.8; stroke-linejoin: miter; stroke-linecap: square"/>
   </g>
  </g>
  <g id="axes_2">
   <g id="patch_7">
    <path d="M 486.647885 257.156476 
L 865.19952 257.156476 
L 865.19952 8.625361 
L 486.647885 8.625361 
z
" style="fill: #ffffff"/>
   </g>
   <g id="matplotlib.axis_3">
    <g id="xtick_8">
     <g id="line2d_17">
      <g>
       <use xlink:href="#m4ea254a50f" x="503.8529" y="257.156476" style="stroke: #000000; stroke-width: 0.8"/>
      </g>
     </g>
     <g id="text_18">
      <!-- 1.0 -->
      <g transform="translate(495.901338 271.754913) scale(0.1 -0.1)">
       <defs>
        <path id="DejaVuSans-2e" d="M 684 794 
L 1344 794 
L 1344 0 
L 684 0 
L 684 794 
z
" transform="scale(0.015625)"/>
       </defs>
       <use xlink:href="#DejaVuSans-31"/>
       <use xlink:href="#DejaVuSans-2e" transform="translate(63.623047 0)"/>
       <use xlink:href="#DejaVuSans-30" transform="translate(95.410156 0)"/>
      </g>
     </g>
    </g>
    <g id="xtick_9">
     <g id="line2d_18">
      <g>
       <use xlink:href="#m4ea254a50f" x="561.209679" y="257.156476" style="stroke: #000000; stroke-width: 0.8"/>
      </g>
     </g>
     <g id="text_19">
      <!-- 1.5 -->
      <g transform="translate(553.258116 271.754913) scale(0.1 -0.1)">
       <use xlink:href="#DejaVuSans-31"/>
       <use xlink:href="#DejaVuSans-2e" transform="translate(63.623047 0)"/>
       <use xlink:href="#DejaVuSans-35" transform="translate(95.410156 0)"/>
      </g>
     </g>
    </g>
    <g id="xtick_10">
     <g id="line2d_19">
      <g>
       <use xlink:href="#m4ea254a50f" x="618.566457" y="257.156476" style="stroke: #000000; stroke-width: 0.8"/>
      </g>
     </g>
     <g id="text_20">
      <!-- 2.0 -->
      <g transform="translate(610.614895 271.754913) scale(0.1 -0.1)">
       <use xlink:href="#DejaVuSans-32"/>
       <use xlink:href="#DejaVuSans-2e" transform="translate(63.623047 0)"/>
       <use xlink:href="#DejaVuSans-30" transform="translate(95.410156 0)"/>
      </g>
     </g>
    </g>
    <g id="xtick_11">
     <g id="line2d_20">
      <g>
       <use xlink:href="#m4ea254a50f" x="675.923236" y="257.156476" style="stroke: #000000; stroke-width: 0.8"/>
      </g>
     </g>
     <g id="text_21">
      <!-- 2.5 -->
      <g transform="translate(667.971674 271.754913) scale(0.1 -0.1)">
       <use xlink:href="#DejaVuSans-32"/>
       <use xlink:href="#DejaVuSans-2e" transform="translate(63.623047 0)"/>
       <use xlink:href="#DejaVuSans-35" transform="translate(95.410156 0)"/>
      </g>
     </g>
    </g>
    <g id="xtick_12">
     <g id="line2d_21">
      <g>
       <use xlink:href="#m4ea254a50f" x="733.280015" y="257.156476" style="stroke: #000000; stroke-width: 0.8"/>
      </g>
     </g>
     <g id="text_22">
      <!-- 3.0 -->
      <g transform="translate(725.328452 271.754913) scale(0.1 -0.1)">
       <use xlink:href="#DejaVuSans-33"/>
       <use xlink:href="#DejaVuSans-2e" transform="translate(63.623047 0)"/>
       <use xlink:href="#DejaVuSans-30" transform="translate(95.410156 0)"/>
      </g>
     </g>
    </g>
    <g id="xtick_13">
     <g id="line2d_22">
      <g>
       <use xlink:href="#m4ea254a50f" x="790.636793" y="257.156476" style="stroke: #000000; stroke-width: 0.8"/>
      </g>
     </g>
     <g id="text_23">
      <!-- 3.5 -->
      <g transform="translate(782.685231 271.754913) scale(0.1 -0.1)">
       <use xlink:href="#DejaVuSans-33"/>
       <use xlink:href="#DejaVuSans-2e" transform="translate(63.623047 0)"/>
       <use xlink:href="#DejaVuSans-35" transform="translate(95.410156 0)"/>
      </g>
     </g>
    </g>
    <g id="xtick_14">
     <g id="line2d_23">
      <g>
       <use xlink:href="#m4ea254a50f" x="847.993572" y="257.156476" style="stroke: #000000; stroke-width: 0.8"/>
      </g>
     </g>
     <g id="text_24">
      <!-- 4.0 -->
      <g transform="translate(840.042009 271.754913) scale(0.1 -0.1)">
       <use xlink:href="#DejaVuSans-34"/>
       <use xlink:href="#DejaVuSans-2e" transform="translate(63.623047 0)"/>
       <use xlink:href="#DejaVuSans-30" transform="translate(95.410156 0)"/>
      </g>
     </g>
    </g>
    <g id="text_25">
     <!-- wavelength [Å] -->
     <g transform="translate(637.886202 287.117413) scale(0.1 -0.1)">
      <defs>
       <path id="DejaVuSans-77" d="M 269 3500 
L 844 3500 
L 1563 769 
L 2278 3500 
L 2956 3500 
L 3675 769 
L 4391 3500 
L 4966 3500 
L 4050 0 
L 3372 0 
L 2619 2869 
L 1863 0 
L 1184 0 
L 269 3500 
z
" transform="scale(0.015625)"/>
       <path id="DejaVuSans-61" d="M 2194 1759 
Q 1497 1759 1228 1600 
Q 959 1441 959 1056 
Q 959 750 1161 570 
Q 1363 391 1709 391 
Q 2188 391 2477 730 
Q 2766 1069 2766 1631 
L 2766 1759 
L 2194 1759 
z
M 3341 1997 
L 3341 0 
L 2766 0 
L 2766 531 
Q 2569 213 2275 61 
Q 1981 -91 1556 -91 
Q 1019 -91 701 211 
Q 384 513 384 1019 
Q 384 1609 779 1909 
Q 1175 2209 1959 2209 
L 2766 2209 
L 2766 2266 
Q 2766 2663 2505 2880 
Q 2244 3097 1772 3097 
Q 1472 3097 1187 3025 
Q 903 2953 641 2809 
L 641 3341 
Q 956 3463 1253 3523 
Q 1550 3584 1831 3584 
Q 2591 3584 2966 3190 
Q 3341 2797 3341 1997 
z
" transform="scale(0.015625)"/>
       <path id="DejaVuSans-76" d="M 191 3500 
L 800 3500 
L 1894 563 
L 2988 3500 
L 3597 3500 
L 2284 0 
L 1503 0 
L 191 3500 
z
" transform="scale(0.015625)"/>
       <path id="DejaVuSans-67" d="M 2906 1791 
Q 2906 2416 2648 2759 
Q 2391 3103 1925 3103 
Q 1463 3103 1205 2759 
Q 947 2416 947 1791 
Q 947 1169 1205 825 
Q 1463 481 1925 481 
Q 2391 481 2648 825 
Q 2906 1169 2906 1791 
z
M 3481 434 
Q 3481 -459 3084 -895 
Q 2688 -1331 1869 -1331 
Q 1566 -1331 1297 -1286 
Q 1028 -1241 775 -1147 
L 775 -588 
Q 1028 -725 1275 -790 
Q 1522 -856 1778 -856 
Q 2344 -856 2625 -561 
Q 2906 -266 2906 331 
L 2906 616 
Q 2728 306 2450 153 
Q 2172 0 1784 0 
Q 1141 0 747 490 
Q 353 981 353 1791 
Q 353 2603 747 3093 
Q 1141 3584 1784 3584 
Q 2172 3584 2450 3431 
Q 2728 3278 2906 2969 
L 2906 3500 
L 3481 3500 
L 3481 434 
z
" transform="scale(0.015625)"/>
       <path id="DejaVuSans-c5" d="M 2663 5081 
Q 2663 5278 2523 5417 
Q 2384 5556 2188 5556 
Q 1988 5556 1852 5420 
Q 1716 5284 1716 5081 
Q 1716 4884 1853 4746 
Q 1991 4609 2188 4609 
Q 2384 4609 2523 4746 
Q 2663 4884 2663 5081 
z
M 2188 4044 
L 1338 1722 
L 3041 1722 
L 2188 4044 
z
M 1716 4366 
Q 1525 4494 1428 4673 
Q 1331 4853 1331 5081 
Q 1331 5441 1579 5691 
Q 1828 5941 2188 5941 
Q 2544 5941 2795 5689 
Q 3047 5438 3047 5081 
Q 3047 4863 2948 4678 
Q 2850 4494 2663 4366 
L 4325 0 
L 3669 0 
L 3244 1197 
L 1141 1197 
L 716 0 
L 50 0 
L 1716 4366 
z
" transform="scale(0.015625)"/>
      </defs>
      <use xlink:href="#DejaVuSans-77"/>
      <use xlink:href="#DejaVuSans-61" transform="translate(81.787109 0)"/>
      <use xlink:href="#DejaVuSans-76" transform="translate(143.066406 0)"/>
      <use xlink:href="#DejaVuSans-65" transform="translate(202.246094 0)"/>
      <use xlink:href="#DejaVuSans-6c" transform="translate(263.769531 0)"/>
      <use xlink:href="#DejaVuSans-65" transform="translate(291.552734 0)"/>
      <use xlink:href="#DejaVuSans-6e" transform="translate(353.076172 0)"/>
      <use xlink:href="#DejaVuSans-67" transform="translate(416.455078 0)"/>
      <use xlink:href="#DejaVuSans-74" transform="translate(479.931641 0)"/>
      <use xlink:href="#DejaVuSans-68" transform="translate(519.140625 0)"/>
      <use xlink:href="#DejaVuSans-20" transform="translate(582.519531 0)"/>
      <use xlink:href="#DejaVuSans-5b" transform="translate(614.306641 0)"/>
      <use xlink:href="#DejaVuSans-c5" transform="translate(653.320312 0)"/>
      <use xlink:href="#DejaVuSans-5d" transform="translate(721.728516 0)"/>
     </g>
    </g>
   </g>
   <g id="matplotlib.axis_4">
    <g id="ytick_9">
     <g id="line2d_24">
      <g>
       <use xlink:href="#m8768e4bbd9" x="486.647885" y="208.067434" style="stroke: #000000; stroke-width: 0.8"/>
      </g>
     </g>
     <g id="text_26">
      <!-- 400 -->
      <g transform="translate(460.560385 211.866653) scale(0.1 -0.1)">
       <use xlink:href="#DejaVuSans-34"/>
       <use xlink:href="#DejaVuSans-30" transform="translate(63.623047 0)"/>
       <use xlink:href="#DejaVuSans-30" transform="translate(127.246094 0)"/>
      </g>
     </g>
    </g>
    <g id="ytick_10">
     <g id="line2d_25">
      <g>
       <use xlink:href="#m8768e4bbd9" x="486.647885" y="153.690208" style="stroke: #000000; stroke-width: 0.8"/>
      </g>
     </g>
     <g id="text_27">
      <!-- 600 -->
      <g transform="translate(460.560385 157.489426) scale(0.1 -0.1)">
       <use xlink:href="#DejaVuSans-36"/>
       <use xlink:href="#DejaVuSans-30" transform="translate(63.623047 0)"/>
       <use xlink:href="#DejaVuSans-30" transform="translate(127.246094 0)"/>
      </g>
     </g>
    </g>
    <g id="ytick_11">
     <g id="line2d_26">
      <g>
       <use xlink:href="#m8768e4bbd9" x="486.647885" y="99.312981" style="stroke: #000000; stroke-width: 0.8"/>
      </g>
     </g>
     <g id="text_28">
      <!-- 800 -->
      <g transform="translate(460.560385 103.1122) scale(0.1 -0.1)">
       <use xlink:href="#DejaVuSans-38"/>
       <use xlink:href="#DejaVuSans-30" transform="translate(63.623047 0)"/>
       <use xlink:href="#DejaVuSans-30" transform="translate(127.246094 0)"/>
      </g>
     </g>
    </g>
    <g id="ytick_12">
     <g id="line2d_27">
      <g>
       <use xlink:href="#m8768e4bbd9" x="486.647885" y="44.935754" style="stroke: #000000; stroke-width: 0.8"/>
      </g>
     </g>
     <g id="text_29">
      <!-- 1000 -->
      <g transform="translate(454.197885 48.734973) scale(0.1 -0.1)">
       <use xlink:href="#DejaVuSans-31"/>
       <use xlink:href="#DejaVuSans-30" transform="translate(63.623047 0)"/>
       <use xlink:href="#DejaVuSans-30" transform="translate(127.246094 0)"/>
       <use xlink:href="#DejaVuSans-30" transform="translate(190.869141 0)"/>
      </g>
     </g>
    </g>
    <g id="text_30">
     <!-- pulse:0 [counts] -->
     <g transform="translate(448.118197 173.371387) rotate(-90) scale(0.1 -0.1)">
      <use xlink:href="#DejaVuSans-70"/>
      <use xlink:href="#DejaVuSans-75" transform="translate(63.476562 0)"/>
      <use xlink:href="#DejaVuSans-6c" transform="translate(126.855469 0)"/>
      <use xlink:href="#DejaVuSans-73" transform="translate(154.638672 0)"/>
      <use xlink:href="#DejaVuSans-65" transform="translate(206.738281 0)"/>
      <use xlink:href="#DejaVuSans-3a" transform="translate(268.261719 0)"/>
      <use xlink:href="#DejaVuSans-30" transform="translate(301.953125 0)"/>
      <use xlink:href="#DejaVuSans-20" transform="translate(365.576172 0)"/>
      <use xlink:href="#DejaVuSans-5b" transform="translate(397.363281 0)"/>
      <use xlink:href="#DejaVuSans-63" transform="translate(436.376953 0)"/>
      <use xlink:href="#DejaVuSans-6f" transform="translate(491.357422 0)"/>
      <use xlink:href="#DejaVuSans-75" transform="translate(552.539062 0)"/>
      <use xlink:href="#DejaVuSans-6e" transform="translate(615.917969 0)"/>
      <use xlink:href="#DejaVuSans-74" transform="translate(679.296875 0)"/>
      <use xlink:href="#DejaVuSans-73" transform="translate(718.505859 0)"/>
      <use xlink:href="#DejaVuSans-5d" transform="translate(770.605469 0)"/>
     </g>
    </g>
   </g>
   <g id="line2d_28">
    <path d="M 503.854777 245.859607 
L 505.001904 245.859607 
L 505.001904 242.053201 
L 506.14903 242.053201 
L 506.14903 244.22829 
L 507.296156 244.22829 
L 507.296156 241.509429 
L 509.590408 241.509429 
L 509.590408 239.606226 
L 510.737534 239.606226 
L 510.737534 237.159251 
L 511.884661 237.159251 
L 511.884661 242.596973 
L 513.031787 242.596973 
L 513.031787 240.421884 
L 514.178913 240.421884 
L 514.178913 234.440389 
L 515.326039 234.440389 
L 515.326039 240.69377 
L 516.473165 240.69377 
L 516.473165 233.896617 
L 517.620291 233.896617 
L 517.620291 233.624731 
L 518.767418 233.624731 
L 518.767418 239.062454 
L 519.914544 239.062454 
L 519.914544 234.712275 
L 521.06167 234.712275 
L 521.06167 230.90587 
L 522.208796 230.90587 
L 522.208796 231.721528 
L 523.355922 231.721528 
L 523.355922 225.468147 
L 524.503048 225.468147 
L 524.503048 220.574196 
L 525.650175 220.574196 
L 525.650175 233.352845 
L 526.797301 233.352845 
L 526.797301 224.652488 
L 527.944427 224.652488 
L 527.944427 231.993414 
L 529.091553 231.993414 
L 529.091553 228.458894 
L 530.238679 228.458894 
L 530.238679 230.633983 
L 531.385805 230.633983 
L 531.385805 227.099464 
L 532.532932 227.099464 
L 532.532932 218.399107 
L 533.680058 218.399107 
L 533.680058 218.670994 
L 534.827184 218.670994 
L 534.827184 226.011919 
L 535.97431 226.011919 
L 535.97431 221.933627 
L 537.121436 221.933627 
L 537.121436 221.661741 
L 538.268562 221.661741 
L 538.268562 226.011919 
L 539.415689 226.011919 
L 539.415689 211.058182 
L 540.562815 211.058182 
L 540.562815 220.574196 
L 541.709941 220.574196 
L 541.709941 215.680246 
L 542.857067 215.680246 
L 542.857067 216.767791 
L 544.004193 216.767791 
L 544.004193 216.224018 
L 545.151319 216.224018 
L 545.151319 211.058182 
L 546.298446 211.058182 
L 546.298446 218.94288 
L 547.445572 218.94288 
L 547.445572 213.777043 
L 548.592698 213.777043 
L 548.592698 208.33932 
L 549.739824 208.33932 
L 549.739824 210.786296 
L 550.88695 210.786296 
L 550.88695 220.574196 
L 552.034076 220.574196 
L 552.034076 219.486652 
L 553.181203 219.486652 
L 553.181203 218.670994 
L 554.328329 218.670994 
L 554.328329 211.601954 
L 555.475455 211.601954 
L 555.475455 211.058182 
L 556.622581 211.058182 
L 556.622581 207.251776 
L 557.769707 207.251776 
L 557.769707 209.698751 
L 558.916833 209.698751 
L 558.916833 213.233271 
L 560.06396 213.233271 
L 560.06396 212.417612 
L 561.211086 212.417612 
L 561.211086 217.039677 
L 562.358212 217.039677 
L 562.358212 211.330068 
L 563.505338 211.330068 
L 563.505338 209.698751 
L 564.652464 209.698751 
L 564.652464 213.233271 
L 565.79959 213.233271 
L 565.79959 203.989142 
L 566.946717 203.989142 
L 566.946717 201.270281 
L 568.093843 201.270281 
L 568.093843 205.892345 
L 569.240969 205.892345 
L 569.240969 206.436118 
L 570.388095 206.436118 
L 570.388095 198.279534 
L 571.535221 198.279534 
L 571.535221 193.113697 
L 572.682347 193.113697 
L 572.682347 205.620459 
L 573.829474 205.620459 
L 573.829474 196.648217 
L 574.9766 196.648217 
L 574.9766 209.698751 
L 576.123726 209.698751 
L 576.123726 203.173484 
L 577.270852 203.173484 
L 577.270852 187.94786 
L 578.417978 187.94786 
L 578.417978 199.367078 
L 579.565104 199.367078 
L 579.565104 205.620459 
L 580.712231 205.620459 
L 580.712231 189.851063 
L 581.859357 189.851063 
L 581.859357 193.657469 
L 583.006483 193.657469 
L 583.006483 178.15996 
L 584.153609 178.15996 
L 584.153609 197.191989 
L 585.300735 197.191989 
L 585.300735 189.579177 
L 586.447861 189.579177 
L 586.447861 195.288786 
L 587.594988 195.288786 
L 587.594988 190.666722 
L 588.742114 190.666722 
L 588.742114 194.473128 
L 589.88924 194.473128 
L 589.88924 196.104444 
L 591.036366 196.104444 
L 591.036366 186.044657 
L 592.183492 186.044657 
L 592.183492 195.560672 
L 593.330618 195.560672 
L 593.330618 183.869568 
L 594.477745 183.869568 
L 594.477745 185.500885 
L 595.624871 185.500885 
L 595.624871 191.48238 
L 596.771997 191.48238 
L 596.771997 183.05391 
L 597.919123 183.05391 
L 597.919123 180.335049 
L 599.066249 180.335049 
L 599.066249 187.94786 
L 600.213375 187.94786 
L 600.213375 194.745014 
L 601.360502 194.745014 
L 601.360502 185.228999 
L 602.507628 185.228999 
L 602.507628 171.362806 
L 603.654754 171.362806 
L 603.654754 174.081668 
L 604.80188 174.081668 
L 604.80188 181.422593 
L 605.949006 181.422593 
L 605.949006 173.537895 
L 607.096132 173.537895 
L 607.096132 183.869568 
L 608.243259 183.869568 
L 608.243259 172.450351 
L 609.390385 172.450351 
L 609.390385 175.441098 
L 610.537511 175.441098 
L 610.537511 170.003376 
L 611.684637 170.003376 
L 611.684637 179.791276 
L 612.831763 179.791276 
L 612.831763 163.749995 
L 613.978889 163.749995 
L 613.978889 176.800529 
L 615.126016 176.800529 
L 615.126016 177.344301 
L 616.273142 177.344301 
L 616.273142 164.021881 
L 617.420268 164.021881 
L 617.420268 172.450351 
L 618.567394 172.450351 
L 618.567394 182.782024 
L 619.71452 182.782024 
L 619.71452 179.791276 
L 620.861646 179.791276 
L 620.861646 174.353554 
L 622.008773 174.353554 
L 622.008773 172.178465 
L 623.155899 172.178465 
L 623.155899 167.284514 
L 624.303025 167.284514 
L 624.303025 170.003376 
L 625.450151 170.003376 
L 625.450151 169.459603 
L 626.597277 169.459603 
L 626.597277 170.819034 
L 627.744403 170.819034 
L 627.744403 166.740742 
L 628.89153 166.740742 
L 628.89153 167.5564 
L 630.038656 167.5564 
L 630.038656 171.362806 
L 631.185782 171.362806 
L 631.185782 165.925084 
L 632.332908 165.925084 
L 632.332908 155.865297 
L 633.480034 155.865297 
L 633.480034 156.137183 
L 634.62716 156.137183 
L 634.62716 150.427574 
L 635.774287 150.427574 
L 635.774287 161.031133 
L 636.921413 161.031133 
L 636.921413 153.146435 
L 638.068539 153.146435 
L 638.068539 161.574905 
L 639.215665 161.574905 
L 639.215665 153.146435 
L 640.362791 153.146435 
L 640.362791 154.23398 
L 641.509917 154.23398 
L 641.509917 152.602663 
L 642.657044 152.602663 
L 642.657044 153.418321 
L 643.80417 153.418321 
L 643.80417 150.155688 
L 644.951296 150.155688 
L 644.951296 157.7685 
L 646.098422 157.7685 
L 646.098422 156.137183 
L 647.245548 156.137183 
L 647.245548 157.7685 
L 648.392674 157.7685 
L 648.392674 164.293767 
L 649.539801 164.293767 
L 649.539801 165.925084 
L 650.686927 165.925084 
L 650.686927 147.436827 
L 651.834053 147.436827 
L 651.834053 159.12793 
L 652.981179 159.12793 
L 652.981179 140.911559 
L 654.128305 140.911559 
L 654.128305 149.883802 
L 655.275431 149.883802 
L 655.275431 153.146435 
L 656.422558 153.146435 
L 656.422558 152.058891 
L 657.569684 152.058891 
L 657.569684 133.84252 
L 658.71681 133.84252 
L 658.71681 136.017609 
L 659.863936 136.017609 
L 659.863936 149.340029 
L 661.011062 149.340029 
L 661.011062 153.146435 
L 662.158189 153.146435 
L 662.158189 153.690208 
L 663.305315 153.690208 
L 663.305315 150.155688 
L 664.452441 150.155688 
L 664.452441 137.920812 
L 665.599567 137.920812 
L 665.599567 134.930064 
L 666.746693 134.930064 
L 666.746693 144.717965 
L 667.893819 144.717965 
L 667.893819 139.280243 
L 669.040945 139.280243 
L 669.040945 135.201951 
L 670.188072 135.201951 
L 670.188072 145.533624 
L 671.335198 145.533624 
L 671.335198 143.358535 
L 672.482324 143.358535 
L 672.482324 136.833267 
L 673.62945 136.833267 
L 673.62945 138.464584 
L 674.776576 138.464584 
L 674.776576 127.045367 
L 675.923702 127.045367 
L 675.923702 132.754975 
L 677.070829 132.754975 
L 677.070829 144.174193 
L 678.217955 144.174193 
L 678.217955 134.114406 
L 679.365081 134.114406 
L 679.365081 140.095901 
L 680.512207 140.095901 
L 680.512207 130.036114 
L 681.659333 130.036114 
L 681.659333 138.192698 
L 682.806459 138.192698 
L 682.806459 136.833267 
L 683.953586 136.833267 
L 683.953586 127.045367 
L 685.100712 127.045367 
L 685.100712 125.142164 
L 686.247838 125.142164 
L 686.247838 124.054619 
L 687.394964 124.054619 
L 687.394964 133.298748 
L 688.54209 133.298748 
L 688.54209 121.063872 
L 689.689216 121.063872 
L 689.689216 108.013337 
L 690.836343 108.013337 
L 690.836343 114.266718 
L 691.983469 114.266718 
L 691.983469 127.589139 
L 693.130595 127.589139 
L 693.130595 136.289495 
L 694.277721 136.289495 
L 694.277721 125.142164 
L 695.424847 125.142164 
L 695.424847 113.179174 
L 696.571974 113.179174 
L 696.571974 109.91654 
L 697.7191 109.91654 
L 697.7191 137.105153 
L 698.866226 137.105153 
L 698.866226 126.501594 
L 700.013352 126.501594 
L 700.013352 115.082377 
L 701.160478 115.082377 
L 701.160478 113.994832 
L 702.307604 113.994832 
L 702.307604 114.538604 
L 703.45473 114.538604 
L 703.45473 127.317253 
L 704.601857 127.317253 
L 704.601857 127.589139 
L 705.748983 127.589139 
L 705.748983 117.801238 
L 706.896109 117.801238 
L 706.896109 108.285223 
L 708.043235 108.285223 
L 708.043235 119.976327 
L 709.190361 119.976327 
L 709.190361 109.100882 
L 710.337487 109.100882 
L 710.337487 122.423302 
L 711.484614 122.423302 
L 711.484614 115.082377 
L 712.63174 115.082377 
L 712.63174 118.34501 
L 713.778866 118.34501 
L 713.778866 107.741451 
L 714.925992 107.741451 
L 714.925992 105.838248 
L 716.073118 105.838248 
L 716.073118 102.031842 
L 717.220245 102.031842 
L 717.220245 113.179174 
L 718.367371 113.179174 
L 718.367371 107.469565 
L 719.514497 107.469565 
L 719.514497 106.38202 
L 720.661623 106.38202 
L 720.661623 116.441807 
L 721.808749 116.441807 
L 721.808749 104.750704 
L 722.955875 104.750704 
L 722.955875 105.294476 
L 724.103002 105.294476 
L 724.103002 120.520099 
L 725.250128 120.520099 
L 725.250128 108.013337 
L 726.397254 108.013337 
L 726.397254 106.653907 
L 727.54438 106.653907 
L 727.54438 104.750704 
L 728.691506 104.750704 
L 728.691506 100.944298 
L 729.838632 100.944298 
L 729.838632 99.856753 
L 730.985758 99.856753 
L 730.985758 100.128639 
L 732.132885 100.128639 
L 732.132885 98.769209 
L 733.280011 98.769209 
L 733.280011 94.41903 
L 734.427137 94.41903 
L 734.427137 84.359244 
L 735.574263 84.359244 
L 735.574263 99.312981 
L 736.721389 99.312981 
L 736.721389 86.534333 
L 737.868516 86.534333 
L 737.868516 83.543585 
L 739.015642 83.543585 
L 739.015642 82.727927 
L 740.162768 82.727927 
L 740.162768 93.875258 
L 741.309894 93.875258 
L 741.309894 105.294476 
L 742.45702 105.294476 
L 742.45702 85.718674 
L 743.604146 85.718674 
L 743.604146 88.437536 
L 744.751272 88.437536 
L 744.751272 93.0596 
L 745.898399 93.0596 
L 745.898399 80.280952 
L 747.045525 80.280952 
L 747.045525 79.737179 
L 748.192651 79.737179 
L 748.192651 93.0596 
L 749.339777 93.0596 
L 749.339777 91.156397 
L 750.486903 91.156397 
L 750.486903 82.456041 
L 751.634029 82.456041 
L 751.634029 86.534333 
L 752.781156 86.534333 
L 752.781156 100.128639 
L 753.928282 100.128639 
L 753.928282 82.184154 
L 755.075408 82.184154 
L 755.075408 91.972055 
L 756.222534 91.972055 
L 756.222534 87.893763 
L 757.36966 87.893763 
L 757.36966 90.068852 
L 758.516787 90.068852 
L 758.516787 78.105862 
L 759.663913 78.105862 
L 759.663913 80.824724 
L 760.811039 80.824724 
L 760.811039 90.612625 
L 761.958165 90.612625 
L 761.958165 87.349991 
L 763.105291 87.349991 
L 763.105291 83.815471 
L 764.252417 83.815471 
L 764.252417 71.308709 
L 765.399544 71.308709 
L 765.399544 79.737179 
L 766.54667 79.737179 
L 766.54667 78.649635 
L 767.693796 78.649635 
L 767.693796 64.783442 
L 768.840922 64.783442 
L 768.840922 69.677392 
L 769.988048 69.677392 
L 769.988048 80.009065 
L 772.282301 80.009065 
L 772.282301 69.13362 
L 773.429427 69.13362 
L 773.429427 85.718674 
L 774.576553 85.718674 
L 774.576553 75.658887 
L 775.723679 75.658887 
L 775.723679 69.949278 
L 776.870805 69.949278 
L 776.870805 68.861734 
L 778.017931 68.861734 
L 778.017931 64.23967 
L 779.165057 64.23967 
L 779.165057 62.064581 
L 780.312184 62.064581 
L 780.312184 74.571343 
L 781.45931 74.571343 
L 781.45931 55.8112 
L 782.606436 55.8112 
L 782.606436 62.880239 
L 783.753562 62.880239 
L 783.753562 66.142873 
L 784.900688 66.142873 
L 784.900688 52.004794 
L 786.047814 52.004794 
L 786.047814 62.880239 
L 787.194941 62.880239 
L 787.194941 62.064581 
L 788.342067 62.064581 
L 788.342067 62.608353 
L 789.489193 62.608353 
L 789.489193 60.977036 
L 790.636319 60.977036 
L 790.636319 71.036823 
L 791.783445 71.036823 
L 791.783445 52.820452 
L 792.930572 52.820452 
L 792.930572 64.783442 
L 794.077698 64.783442 
L 794.077698 63.152125 
L 795.224824 63.152125 
L 795.224824 71.580595 
L 796.37195 71.580595 
L 796.37195 63.152125 
L 797.519076 63.152125 
L 797.519076 63.424011 
L 798.666202 63.424011 
L 798.666202 58.801947 
L 799.813329 58.801947 
L 799.813329 40.585576 
L 800.960455 40.585576 
L 800.960455 56.354972 
L 802.107581 56.354972 
L 802.107581 52.004794 
L 803.254707 52.004794 
L 803.254707 36.235398 
L 804.401833 36.235398 
L 804.401833 60.977036 
L 805.548959 60.977036 
L 805.548959 49.014046 
L 806.696085 49.014046 
L 806.696085 51.461021 
L 807.843212 51.461021 
L 807.843212 59.617605 
L 808.990338 59.617605 
L 808.990338 49.829705 
L 810.137464 49.829705 
L 810.137464 50.101591 
L 811.28459 50.101591 
L 811.28459 43.304437 
L 812.431716 43.304437 
L 812.431716 50.645363 
L 813.578843 50.645363 
L 813.578843 46.023299 
L 814.725969 46.023299 
L 814.725969 42.216893 
L 815.873095 42.216893 
L 815.873095 46.838957 
L 817.020221 46.838957 
L 817.020221 39.226145 
L 818.167347 39.226145 
L 818.167347 31.88522 
L 819.314473 31.88522 
L 819.314473 49.829705 
L 820.4616 49.829705 
L 820.4616 47.926502 
L 821.608726 47.926502 
L 821.608726 53.092338 
L 822.755852 53.092338 
L 822.755852 43.84821 
L 823.902978 43.84821 
L 823.902978 44.935754 
L 825.050104 44.935754 
L 825.050104 53.907997 
L 826.19723 53.907997 
L 826.19723 36.507284 
L 827.344357 36.507284 
L 827.344357 31.613334 
L 828.491483 31.613334 
L 828.491483 52.27668 
L 829.638609 52.27668 
L 829.638609 40.857462 
L 830.785735 40.857462 
L 830.785735 32.428992 
L 831.932861 32.428992 
L 831.932861 41.945007 
L 833.079987 41.945007 
L 833.079987 44.663868 
L 834.227114 44.663868 
L 834.227114 50.917249 
L 835.37424 50.917249 
L 835.37424 44.663868 
L 836.521366 44.663868 
L 836.521366 43.576324 
L 837.668492 43.576324 
L 837.668492 35.963512 
L 838.815618 35.963512 
L 838.815618 20.466002 
L 839.962744 20.466002 
L 839.962744 30.797675 
L 841.109871 30.797675 
L 841.109871 25.903725 
L 842.256997 25.903725 
L 842.256997 52.27668 
L 843.404123 52.27668 
L 843.404123 31.069561 
L 844.551249 31.069561 
L 844.551249 33.24465 
L 845.698375 33.24465 
L 845.698375 21.825433 
L 846.845501 21.825433 
L 846.845501 19.92223 
L 847.992628 19.92223 
L 847.992628 19.92223 
" clip-path="url(#p9d9291b016)" style="fill: none; stroke: #1f77b4; stroke-width: 1.5; stroke-linecap: square"/>
   </g>
   <g id="patch_8">
    <path d="M 486.647885 257.156476 
L 486.647885 8.625361 
" style="fill: none; stroke: #000000; stroke-width: 0.8; stroke-linejoin: miter; stroke-linecap: square"/>
   </g>
   <g id="patch_9">
    <path d="M 865.19952 257.156476 
L 865.19952 8.625361 
" style="fill: none; stroke: #000000; stroke-width: 0.8; stroke-linejoin: miter; stroke-linecap: square"/>
   </g>
   <g id="patch_10">
    <path d="M 486.647885 257.156476 
L 865.19952 257.156476 
" style="fill: none; stroke: #000000; stroke-width: 0.8; stroke-linejoin: miter; stroke-linecap: square"/>
   </g>
   <g id="patch_11">
    <path d="M 486.647885 8.625361 
L 865.19952 8.625361 
" style="fill: none; stroke: #000000; stroke-width: 0.8; stroke-linejoin: miter; stroke-linecap: square"/>
   </g>
  </g>
 </g>
 <defs>
  <clipPath id="pfb70f54287">
   <rect x="53.328125" y="8.625361" width="378.551635" height="248.531115"/>
  </clipPath>
  <clipPath id="p9d9291b016">
   <rect x="486.647885" y="8.625361" width="378.551635" height="248.531115"/>
  </clipPath>
 </defs>
</svg>
