<?xml version="1.0" encoding="utf-8" standalone="no"?>
<!DOCTYPE svg PUBLIC "-//W3C//DTD SVG 1.1//EN"
  "http://www.w3.org/Graphics/SVG/1.1/DTD/svg11.dtd">
<svg xmlns:xlink="http://www.w3.org/1999/xlink" width="872.39952pt" height="296.39952pt" viewBox="0 0 872.39952 296.39952" xmlns="http://www.w3.org/2000/svg" version="1.1">
 <metadata>
  <rdf:RDF xmlns:dc="http://purl.org/dc/elements/1.1/" xmlns:cc="http://creativecommons.org/ns#" xmlns:rdf="http://www.w3.org/1999/02/22-rdf-syntax-ns#">
   <cc:Work>
    <dc:type rdf:resource="http://purl.org/dc/dcmitype/StillImage"/>
    <dc:date>2025-11-13T11:11:57.046803</dc:date>
    <dc:format>image/svg+xml</dc:format>
    <dc:creator>
     <cc:Agent>
      <dc:title>Matplotlib v3.10.7, https://matplotlib.org/</dc:title>
     </cc:Agent>
    </dc:creator>
   </cc:Work>
  </rdf:RDF>
 </metadata>
 <defs>
  <style type="text/css">*{stroke-linejoin: round; stroke-linecap: butt}</style>
 </defs>
 <g id="figure_1">
  <g id="patch_1">
   <path d="M 0 296.39952 
L 872.39952 296.39952 
L 872.39952 0 
L 0 0 
z
" style="fill: #ffffff"/>
  </g>
  <g id="axes_1">
   <g id="patch_2">
    <path d="M 53.328125 257.158895 
L 411.41851 257.158895 
L 411.41851 7.2 
L 53.328125 7.2 
z
" style="fill: #ffffff"/>
   </g>
   <g id="matplotlib.axis_1">
    <g id="xtick_1">
     <g id="line2d_1">
      <defs>
       <path id="m952a926259" d="M 0 0 
L 0 3.5 
" style="stroke: #000000; stroke-width: 0.8"/>
      </defs>
      <g>
       <use xlink:href="#m952a926259" x="68.787246" y="257.158895" style="stroke: #000000; stroke-width: 0.8"/>
      </g>
     </g>
     <g id="text_1">
      <!-- 0 -->
      <g transform="translate(65.605996 271.757332) scale(0.1 -0.1)">
       <defs>
        <path id="DejaVuSans-30" d="M 2034 4250 
Q 1547 4250 1301 3770 
Q 1056 3291 1056 2328 
Q 1056 1369 1301 889 
Q 1547 409 2034 409 
Q 2525 409 2770 889 
Q 3016 1369 3016 2328 
Q 3016 3291 2770 3770 
Q 2525 4250 2034 4250 
z
M 2034 4750 
Q 2819 4750 3233 4129 
Q 3647 3509 3647 2328 
Q 3647 1150 3233 529 
Q 2819 -91 2034 -91 
Q 1250 -91 836 529 
Q 422 1150 422 2328 
Q 422 3509 836 4129 
Q 1250 4750 2034 4750 
z
" transform="scale(0.015625)"/>
       </defs>
       <use xlink:href="#DejaVuSans-30"/>
      </g>
     </g>
    </g>
    <g id="xtick_2">
     <g id="line2d_2">
      <g>
       <use xlink:href="#m952a926259" x="134.313447" y="257.158895" style="stroke: #000000; stroke-width: 0.8"/>
      </g>
     </g>
     <g id="text_2">
      <!-- 1000 -->
      <g transform="translate(121.588447 271.757332) scale(0.1 -0.1)">
       <defs>
        <path id="DejaVuSans-31" d="M 794 531 
L 1825 531 
L 1825 4091 
L 703 3866 
L 703 4441 
L 1819 4666 
L 2450 4666 
L 2450 531 
L 3481 531 
L 3481 0 
L 794 0 
L 794 531 
z
" transform="scale(0.015625)"/>
       </defs>
       <use xlink:href="#DejaVuSans-31"/>
       <use xlink:href="#DejaVuSans-30" transform="translate(63.623047 0)"/>
       <use xlink:href="#DejaVuSans-30" transform="translate(127.246094 0)"/>
       <use xlink:href="#DejaVuSans-30" transform="translate(190.869141 0)"/>
      </g>
     </g>
    </g>
    <g id="xtick_3">
     <g id="line2d_3">
      <g>
       <use xlink:href="#m952a926259" x="199.839648" y="257.158895" style="stroke: #000000; stroke-width: 0.8"/>
      </g>
     </g>
     <g id="text_3">
      <!-- 2000 -->
      <g transform="translate(187.114648 271.757332) scale(0.1 -0.1)">
       <defs>
        <path id="DejaVuSans-32" d="M 1228 531 
L 3431 531 
L 3431 0 
L 469 0 
L 469 531 
Q 828 903 1448 1529 
Q 2069 2156 2228 2338 
Q 2531 2678 2651 2914 
Q 2772 3150 2772 3378 
Q 2772 3750 2511 3984 
Q 2250 4219 1831 4219 
Q 1534 4219 1204 4116 
Q 875 4013 500 3803 
L 500 4441 
Q 881 4594 1212 4672 
Q 1544 4750 1819 4750 
Q 2544 4750 2975 4387 
Q 3406 4025 3406 3419 
Q 3406 3131 3298 2873 
Q 3191 2616 2906 2266 
Q 2828 2175 2409 1742 
Q 1991 1309 1228 531 
z
" transform="scale(0.015625)"/>
       </defs>
       <use xlink:href="#DejaVuSans-32"/>
       <use xlink:href="#DejaVuSans-30" transform="translate(63.623047 0)"/>
       <use xlink:href="#DejaVuSans-30" transform="translate(127.246094 0)"/>
       <use xlink:href="#DejaVuSans-30" transform="translate(190.869141 0)"/>
      </g>
     </g>
    </g>
    <g id="xtick_4">
     <g id="line2d_4">
      <g>
       <use xlink:href="#m952a926259" x="265.365849" y="257.158895" style="stroke: #000000; stroke-width: 0.8"/>
      </g>
     </g>
     <g id="text_4">
      <!-- 3000 -->
      <g transform="translate(252.640849 271.757332) scale(0.1 -0.1)">
       <defs>
        <path id="DejaVuSans-33" d="M 2597 2516 
Q 3050 2419 3304 2112 
Q 3559 1806 3559 1356 
Q 3559 666 3084 287 
Q 2609 -91 1734 -91 
Q 1441 -91 1130 -33 
Q 819 25 488 141 
L 488 750 
Q 750 597 1062 519 
Q 1375 441 1716 441 
Q 2309 441 2620 675 
Q 2931 909 2931 1356 
Q 2931 1769 2642 2001 
Q 2353 2234 1838 2234 
L 1294 2234 
L 1294 2753 
L 1863 2753 
Q 2328 2753 2575 2939 
Q 2822 3125 2822 3475 
Q 2822 3834 2567 4026 
Q 2313 4219 1838 4219 
Q 1578 4219 1281 4162 
Q 984 4106 628 3988 
L 628 4550 
Q 988 4650 1302 4700 
Q 1616 4750 1894 4750 
Q 2613 4750 3031 4423 
Q 3450 4097 3450 3541 
Q 3450 3153 3228 2886 
Q 3006 2619 2597 2516 
z
" transform="scale(0.015625)"/>
       </defs>
       <use xlink:href="#DejaVuSans-33"/>
       <use xlink:href="#DejaVuSans-30" transform="translate(63.623047 0)"/>
       <use xlink:href="#DejaVuSans-30" transform="translate(127.246094 0)"/>
       <use xlink:href="#DejaVuSans-30" transform="translate(190.869141 0)"/>
      </g>
     </g>
    </g>
    <g id="xtick_5">
     <g id="line2d_5">
      <g>
       <use xlink:href="#m952a926259" x="330.89205" y="257.158895" style="stroke: #000000; stroke-width: 0.8"/>
      </g>
     </g>
     <g id="text_5">
      <!-- 4000 -->
      <g transform="translate(318.16705 271.757332) scale(0.1 -0.1)">
       <defs>
        <path id="DejaVuSans-34" d="M 2419 4116 
L 825 1625 
L 2419 1625 
L 2419 4116 
z
M 2253 4666 
L 3047 4666 
L 3047 1625 
L 3713 1625 
L 3713 1100 
L 3047 1100 
L 3047 0 
L 2419 0 
L 2419 1100 
L 313 1100 
L 313 1709 
L 2253 4666 
z
" transform="scale(0.015625)"/>
       </defs>
       <use xlink:href="#DejaVuSans-34"/>
       <use xlink:href="#DejaVuSans-30" transform="translate(63.623047 0)"/>
       <use xlink:href="#DejaVuSans-30" transform="translate(127.246094 0)"/>
       <use xlink:href="#DejaVuSans-30" transform="translate(190.869141 0)"/>
      </g>
     </g>
    </g>
    <g id="xtick_6">
     <g id="line2d_6">
      <g>
       <use xlink:href="#m952a926259" x="396.418251" y="257.158895" style="stroke: #000000; stroke-width: 0.8"/>
      </g>
     </g>
     <g id="text_6">
      <!-- 5000 -->
      <g transform="translate(383.693251 271.757332) scale(0.1 -0.1)">
       <defs>
        <path id="DejaVuSans-35" d="M 691 4666 
L 3169 4666 
L 3169 4134 
L 1269 4134 
L 1269 2991 
Q 1406 3038 1543 3061 
Q 1681 3084 1819 3084 
Q 2600 3084 3056 2656 
Q 3513 2228 3513 1497 
Q 3513 744 3044 326 
Q 2575 -91 1722 -91 
Q 1428 -91 1123 -41 
Q 819 9 494 109 
L 494 744 
Q 775 591 1075 516 
Q 1375 441 1709 441 
Q 2250 441 2565 725 
Q 2881 1009 2881 1497 
Q 2881 1984 2565 2268 
Q 2250 2553 1709 2553 
Q 1456 2553 1204 2497 
Q 953 2441 691 2322 
L 691 4666 
z
" transform="scale(0.015625)"/>
       </defs>
       <use xlink:href="#DejaVuSans-35"/>
       <use xlink:href="#DejaVuSans-30" transform="translate(63.623047 0)"/>
       <use xlink:href="#DejaVuSans-30" transform="translate(127.246094 0)"/>
       <use xlink:href="#DejaVuSans-30" transform="translate(190.869141 0)"/>
      </g>
     </g>
    </g>
    <g id="text_7">
     <!-- birth_time [µs] -->
     <g transform="translate(195.553005 285.435457) scale(0.1 -0.1)">
      <defs>
       <path id="DejaVuSans-62" d="M 3116 1747 
Q 3116 2381 2855 2742 
Q 2594 3103 2138 3103 
Q 1681 3103 1420 2742 
Q 1159 2381 1159 1747 
Q 1159 1113 1420 752 
Q 1681 391 2138 391 
Q 2594 391 2855 752 
Q 3116 1113 3116 1747 
z
M 1159 2969 
Q 1341 3281 1617 3432 
Q 1894 3584 2278 3584 
Q 2916 3584 3314 3078 
Q 3713 2572 3713 1747 
Q 3713 922 3314 415 
Q 2916 -91 2278 -91 
Q 1894 -91 1617 61 
Q 1341 213 1159 525 
L 1159 0 
L 581 0 
L 581 4863 
L 1159 4863 
L 1159 2969 
z
" transform="scale(0.015625)"/>
       <path id="DejaVuSans-69" d="M 603 3500 
L 1178 3500 
L 1178 0 
L 603 0 
L 603 3500 
z
M 603 4863 
L 1178 4863 
L 1178 4134 
L 603 4134 
L 603 4863 
z
" transform="scale(0.015625)"/>
       <path id="DejaVuSans-72" d="M 2631 2963 
Q 2534 3019 2420 3045 
Q 2306 3072 2169 3072 
Q 1681 3072 1420 2755 
Q 1159 2438 1159 1844 
L 1159 0 
L 581 0 
L 581 3500 
L 1159 3500 
L 1159 2956 
Q 1341 3275 1631 3429 
Q 1922 3584 2338 3584 
Q 2397 3584 2469 3576 
Q 2541 3569 2628 3553 
L 2631 2963 
z
" transform="scale(0.015625)"/>
       <path id="DejaVuSans-74" d="M 1172 4494 
L 1172 3500 
L 2356 3500 
L 2356 3053 
L 1172 3053 
L 1172 1153 
Q 1172 725 1289 603 
Q 1406 481 1766 481 
L 2356 481 
L 2356 0 
L 1766 0 
Q 1100 0 847 248 
Q 594 497 594 1153 
L 594 3053 
L 172 3053 
L 172 3500 
L 594 3500 
L 594 4494 
L 1172 4494 
z
" transform="scale(0.015625)"/>
       <path id="DejaVuSans-68" d="M 3513 2113 
L 3513 0 
L 2938 0 
L 2938 2094 
Q 2938 2591 2744 2837 
Q 2550 3084 2163 3084 
Q 1697 3084 1428 2787 
Q 1159 2491 1159 1978 
L 1159 0 
L 581 0 
L 581 4863 
L 1159 4863 
L 1159 2956 
Q 1366 3272 1645 3428 
Q 1925 3584 2291 3584 
Q 2894 3584 3203 3211 
Q 3513 2838 3513 2113 
z
" transform="scale(0.015625)"/>
       <path id="DejaVuSans-5f" d="M 3263 -1063 
L 3263 -1509 
L -63 -1509 
L -63 -1063 
L 3263 -1063 
z
" transform="scale(0.015625)"/>
       <path id="DejaVuSans-6d" d="M 3328 2828 
Q 3544 3216 3844 3400 
Q 4144 3584 4550 3584 
Q 5097 3584 5394 3201 
Q 5691 2819 5691 2113 
L 5691 0 
L 5113 0 
L 5113 2094 
Q 5113 2597 4934 2840 
Q 4756 3084 4391 3084 
Q 3944 3084 3684 2787 
Q 3425 2491 3425 1978 
L 3425 0 
L 2847 0 
L 2847 2094 
Q 2847 2600 2669 2842 
Q 2491 3084 2119 3084 
Q 1678 3084 1418 2786 
Q 1159 2488 1159 1978 
L 1159 0 
L 581 0 
L 581 3500 
L 1159 3500 
L 1159 2956 
Q 1356 3278 1631 3431 
Q 1906 3584 2284 3584 
Q 2666 3584 2933 3390 
Q 3200 3197 3328 2828 
z
" transform="scale(0.015625)"/>
       <path id="DejaVuSans-65" d="M 3597 1894 
L 3597 1613 
L 953 1613 
Q 991 1019 1311 708 
Q 1631 397 2203 397 
Q 2534 397 2845 478 
Q 3156 559 3463 722 
L 3463 178 
Q 3153 47 2828 -22 
Q 2503 -91 2169 -91 
Q 1331 -91 842 396 
Q 353 884 353 1716 
Q 353 2575 817 3079 
Q 1281 3584 2069 3584 
Q 2775 3584 3186 3129 
Q 3597 2675 3597 1894 
z
M 3022 2063 
Q 3016 2534 2758 2815 
Q 2500 3097 2075 3097 
Q 1594 3097 1305 2825 
Q 1016 2553 972 2059 
L 3022 2063 
z
" transform="scale(0.015625)"/>
       <path id="DejaVuSans-20" transform="scale(0.015625)"/>
       <path id="DejaVuSans-5b" d="M 550 4863 
L 1875 4863 
L 1875 4416 
L 1125 4416 
L 1125 -397 
L 1875 -397 
L 1875 -844 
L 550 -844 
L 550 4863 
z
" transform="scale(0.015625)"/>
       <path id="DejaVuSans-b5" d="M 544 -1331 
L 544 3500 
L 1119 3500 
L 1119 1325 
Q 1119 872 1334 640 
Q 1550 409 1972 409 
Q 2434 409 2667 671 
Q 2900 934 2900 1459 
L 2900 3500 
L 3475 3500 
L 3475 806 
Q 3475 619 3529 530 
Q 3584 441 3700 441 
Q 3728 441 3778 458 
Q 3828 475 3916 513 
L 3916 50 
Q 3788 -22 3673 -56 
Q 3559 -91 3450 -91 
Q 3234 -91 3106 31 
Q 2978 153 2931 403 
Q 2775 156 2548 32 
Q 2322 -91 2016 -91 
Q 1697 -91 1473 31 
Q 1250 153 1119 397 
L 1119 -1331 
L 544 -1331 
z
" transform="scale(0.015625)"/>
       <path id="DejaVuSans-73" d="M 2834 3397 
L 2834 2853 
Q 2591 2978 2328 3040 
Q 2066 3103 1784 3103 
Q 1356 3103 1142 2972 
Q 928 2841 928 2578 
Q 928 2378 1081 2264 
Q 1234 2150 1697 2047 
L 1894 2003 
Q 2506 1872 2764 1633 
Q 3022 1394 3022 966 
Q 3022 478 2636 193 
Q 2250 -91 1575 -91 
Q 1294 -91 989 -36 
Q 684 19 347 128 
L 347 722 
Q 666 556 975 473 
Q 1284 391 1588 391 
Q 1994 391 2212 530 
Q 2431 669 2431 922 
Q 2431 1156 2273 1281 
Q 2116 1406 1581 1522 
L 1381 1569 
Q 847 1681 609 1914 
Q 372 2147 372 2553 
Q 372 3047 722 3315 
Q 1072 3584 1716 3584 
Q 2034 3584 2315 3537 
Q 2597 3491 2834 3397 
z
" transform="scale(0.015625)"/>
       <path id="DejaVuSans-5d" d="M 1947 4863 
L 1947 -844 
L 622 -844 
L 622 -397 
L 1369 -397 
L 1369 4416 
L 622 4416 
L 622 4863 
L 1947 4863 
z
" transform="scale(0.015625)"/>
      </defs>
      <use xlink:href="#DejaVuSans-62"/>
      <use xlink:href="#DejaVuSans-69" transform="translate(63.476562 0)"/>
      <use xlink:href="#DejaVuSans-72" transform="translate(91.259766 0)"/>
      <use xlink:href="#DejaVuSans-74" transform="translate(132.373047 0)"/>
      <use xlink:href="#DejaVuSans-68" transform="translate(171.582031 0)"/>
      <use xlink:href="#DejaVuSans-5f" transform="translate(234.960938 0)"/>
      <use xlink:href="#DejaVuSans-74" transform="translate(284.960938 0)"/>
      <use xlink:href="#DejaVuSans-69" transform="translate(324.169922 0)"/>
      <use xlink:href="#DejaVuSans-6d" transform="translate(351.953125 0)"/>
      <use xlink:href="#DejaVuSans-65" transform="translate(449.365234 0)"/>
      <use xlink:href="#DejaVuSans-20" transform="translate(510.888672 0)"/>
      <use xlink:href="#DejaVuSans-5b" transform="translate(542.675781 0)"/>
      <use xlink:href="#DejaVuSans-b5" transform="translate(581.689453 0)"/>
      <use xlink:href="#DejaVuSans-73" transform="translate(645.3125 0)"/>
      <use xlink:href="#DejaVuSans-5d" transform="translate(697.412109 0)"/>
     </g>
    </g>
   </g>
   <g id="matplotlib.axis_2">
    <g id="ytick_1">
     <g id="line2d_7">
      <defs>
       <path id="mf4f4c69af9" d="M 0 0 
L -3.5 0 
" style="stroke: #000000; stroke-width: 0.8"/>
      </defs>
      <g>
       <use xlink:href="#mf4f4c69af9" x="53.328125" y="246.025237" style="stroke: #000000; stroke-width: 0.8"/>
      </g>
     </g>
     <g id="text_8">
      <!-- 0 -->
      <g transform="translate(39.965625 249.824456) scale(0.1 -0.1)">
       <use xlink:href="#DejaVuSans-30"/>
      </g>
     </g>
    </g>
    <g id="ytick_2">
     <g id="line2d_8">
      <g>
       <use xlink:href="#mf4f4c69af9" x="53.328125" y="208.00694" style="stroke: #000000; stroke-width: 0.8"/>
      </g>
     </g>
     <g id="text_9">
      <!-- 1000 -->
      <g transform="translate(20.878125 211.806159) scale(0.1 -0.1)">
       <use xlink:href="#DejaVuSans-31"/>
       <use xlink:href="#DejaVuSans-30" transform="translate(63.623047 0)"/>
       <use xlink:href="#DejaVuSans-30" transform="translate(127.246094 0)"/>
       <use xlink:href="#DejaVuSans-30" transform="translate(190.869141 0)"/>
      </g>
     </g>
    </g>
    <g id="ytick_3">
     <g id="line2d_9">
      <g>
       <use xlink:href="#mf4f4c69af9" x="53.328125" y="169.988644" style="stroke: #000000; stroke-width: 0.8"/>
      </g>
     </g>
     <g id="text_10">
      <!-- 2000 -->
      <g transform="translate(20.878125 173.787862) scale(0.1 -0.1)">
       <use xlink:href="#DejaVuSans-32"/>
       <use xlink:href="#DejaVuSans-30" transform="translate(63.623047 0)"/>
       <use xlink:href="#DejaVuSans-30" transform="translate(127.246094 0)"/>
       <use xlink:href="#DejaVuSans-30" transform="translate(190.869141 0)"/>
      </g>
     </g>
    </g>
    <g id="ytick_4">
     <g id="line2d_10">
      <g>
       <use xlink:href="#mf4f4c69af9" x="53.328125" y="131.970347" style="stroke: #000000; stroke-width: 0.8"/>
      </g>
     </g>
     <g id="text_11">
      <!-- 3000 -->
      <g transform="translate(20.878125 135.769566) scale(0.1 -0.1)">
       <use xlink:href="#DejaVuSans-33"/>
       <use xlink:href="#DejaVuSans-30" transform="translate(63.623047 0)"/>
       <use xlink:href="#DejaVuSans-30" transform="translate(127.246094 0)"/>
       <use xlink:href="#DejaVuSans-30" transform="translate(190.869141 0)"/>
      </g>
     </g>
    </g>
    <g id="ytick_5">
     <g id="line2d_11">
      <g>
       <use xlink:href="#mf4f4c69af9" x="53.328125" y="93.95205" style="stroke: #000000; stroke-width: 0.8"/>
      </g>
     </g>
     <g id="text_12">
      <!-- 4000 -->
      <g transform="translate(20.878125 97.751269) scale(0.1 -0.1)">
       <use xlink:href="#DejaVuSans-34"/>
       <use xlink:href="#DejaVuSans-30" transform="translate(63.623047 0)"/>
       <use xlink:href="#DejaVuSans-30" transform="translate(127.246094 0)"/>
       <use xlink:href="#DejaVuSans-30" transform="translate(190.869141 0)"/>
      </g>
     </g>
    </g>
    <g id="ytick_6">
     <g id="line2d_12">
      <g>
       <use xlink:href="#mf4f4c69af9" x="53.328125" y="55.933754" style="stroke: #000000; stroke-width: 0.8"/>
      </g>
     </g>
     <g id="text_13">
      <!-- 5000 -->
      <g transform="translate(20.878125 59.732972) scale(0.1 -0.1)">
       <use xlink:href="#DejaVuSans-35"/>
       <use xlink:href="#DejaVuSans-30" transform="translate(63.623047 0)"/>
       <use xlink:href="#DejaVuSans-30" transform="translate(127.246094 0)"/>
       <use xlink:href="#DejaVuSans-30" transform="translate(190.869141 0)"/>
      </g>
     </g>
    </g>
    <g id="ytick_7">
     <g id="line2d_13">
      <g>
       <use xlink:href="#mf4f4c69af9" x="53.328125" y="17.915457" style="stroke: #000000; stroke-width: 0.8"/>
      </g>
     </g>
     <g id="text_14">
      <!-- 6000 -->
      <g transform="translate(20.878125 21.714676) scale(0.1 -0.1)">
       <defs>
        <path id="DejaVuSans-36" d="M 2113 2584 
Q 1688 2584 1439 2293 
Q 1191 2003 1191 1497 
Q 1191 994 1439 701 
Q 1688 409 2113 409 
Q 2538 409 2786 701 
Q 3034 994 3034 1497 
Q 3034 2003 2786 2293 
Q 2538 2584 2113 2584 
z
M 3366 4563 
L 3366 3988 
Q 3128 4100 2886 4159 
Q 2644 4219 2406 4219 
Q 1781 4219 1451 3797 
Q 1122 3375 1075 2522 
Q 1259 2794 1537 2939 
Q 1816 3084 2150 3084 
Q 2853 3084 3261 2657 
Q 3669 2231 3669 1497 
Q 3669 778 3244 343 
Q 2819 -91 2113 -91 
Q 1303 -91 875 529 
Q 447 1150 447 2328 
Q 447 3434 972 4092 
Q 1497 4750 2381 4750 
Q 2619 4750 2861 4703 
Q 3103 4656 3366 4563 
z
" transform="scale(0.015625)"/>
       </defs>
       <use xlink:href="#DejaVuSans-36"/>
       <use xlink:href="#DejaVuSans-30" transform="translate(63.623047 0)"/>
       <use xlink:href="#DejaVuSans-30" transform="translate(127.246094 0)"/>
       <use xlink:href="#DejaVuSans-30" transform="translate(190.869141 0)"/>
      </g>
     </g>
    </g>
    <g id="text_15">
     <!-- pulse:0 [counts] -->
     <g transform="translate(14.798438 172.659916) rotate(-90) scale(0.1 -0.1)">
      <defs>
       <path id="DejaVuSans-70" d="M 1159 525 
L 1159 -1331 
L 581 -1331 
L 581 3500 
L 1159 3500 
L 1159 2969 
Q 1341 3281 1617 3432 
Q 1894 3584 2278 3584 
Q 2916 3584 3314 3078 
Q 3713 2572 3713 1747 
Q 3713 922 3314 415 
Q 2916 -91 2278 -91 
Q 1894 -91 1617 61 
Q 1341 213 1159 525 
z
M 3116 1747 
Q 3116 2381 2855 2742 
Q 2594 3103 2138 3103 
Q 1681 3103 1420 2742 
Q 1159 2381 1159 1747 
Q 1159 1113 1420 752 
Q 1681 391 2138 391 
Q 2594 391 2855 752 
Q 3116 1113 3116 1747 
z
" transform="scale(0.015625)"/>
       <path id="DejaVuSans-75" d="M 544 1381 
L 544 3500 
L 1119 3500 
L 1119 1403 
Q 1119 906 1312 657 
Q 1506 409 1894 409 
Q 2359 409 2629 706 
Q 2900 1003 2900 1516 
L 2900 3500 
L 3475 3500 
L 3475 0 
L 2900 0 
L 2900 538 
Q 2691 219 2414 64 
Q 2138 -91 1772 -91 
Q 1169 -91 856 284 
Q 544 659 544 1381 
z
M 1991 3584 
L 1991 3584 
z
" transform="scale(0.015625)"/>
       <path id="DejaVuSans-6c" d="M 603 4863 
L 1178 4863 
L 1178 0 
L 603 0 
L 603 4863 
z
" transform="scale(0.015625)"/>
       <path id="DejaVuSans-3a" d="M 750 794 
L 1409 794 
L 1409 0 
L 750 0 
L 750 794 
z
M 750 3309 
L 1409 3309 
L 1409 2516 
L 750 2516 
L 750 3309 
z
" transform="scale(0.015625)"/>
       <path id="DejaVuSans-63" d="M 3122 3366 
L 3122 2828 
Q 2878 2963 2633 3030 
Q 2388 3097 2138 3097 
Q 1578 3097 1268 2742 
Q 959 2388 959 1747 
Q 959 1106 1268 751 
Q 1578 397 2138 397 
Q 2388 397 2633 464 
Q 2878 531 3122 666 
L 3122 134 
Q 2881 22 2623 -34 
Q 2366 -91 2075 -91 
Q 1284 -91 818 406 
Q 353 903 353 1747 
Q 353 2603 823 3093 
Q 1294 3584 2113 3584 
Q 2378 3584 2631 3529 
Q 2884 3475 3122 3366 
z
" transform="scale(0.015625)"/>
       <path id="DejaVuSans-6f" d="M 1959 3097 
Q 1497 3097 1228 2736 
Q 959 2375 959 1747 
Q 959 1119 1226 758 
Q 1494 397 1959 397 
Q 2419 397 2687 759 
Q 2956 1122 2956 1747 
Q 2956 2369 2687 2733 
Q 2419 3097 1959 3097 
z
M 1959 3584 
Q 2709 3584 3137 3096 
Q 3566 2609 3566 1747 
Q 3566 888 3137 398 
Q 2709 -91 1959 -91 
Q 1206 -91 779 398 
Q 353 888 353 1747 
Q 353 2609 779 3096 
Q 1206 3584 1959 3584 
z
" transform="scale(0.015625)"/>
       <path id="DejaVuSans-6e" d="M 3513 2113 
L 3513 0 
L 2938 0 
L 2938 2094 
Q 2938 2591 2744 2837 
Q 2550 3084 2163 3084 
Q 1697 3084 1428 2787 
Q 1159 2491 1159 1978 
L 1159 0 
L 581 0 
L 581 3500 
L 1159 3500 
L 1159 2956 
Q 1366 3272 1645 3428 
Q 1925 3584 2291 3584 
Q 2894 3584 3203 3211 
Q 3513 2838 3513 2113 
z
" transform="scale(0.015625)"/>
      </defs>
      <use xlink:href="#DejaVuSans-70"/>
      <use xlink:href="#DejaVuSans-75" transform="translate(63.476562 0)"/>
      <use xlink:href="#DejaVuSans-6c" transform="translate(126.855469 0)"/>
      <use xlink:href="#DejaVuSans-73" transform="translate(154.638672 0)"/>
      <use xlink:href="#DejaVuSans-65" transform="translate(206.738281 0)"/>
      <use xlink:href="#DejaVuSans-3a" transform="translate(268.261719 0)"/>
      <use xlink:href="#DejaVuSans-30" transform="translate(301.953125 0)"/>
      <use xlink:href="#DejaVuSans-20" transform="translate(365.576172 0)"/>
      <use xlink:href="#DejaVuSans-5b" transform="translate(397.363281 0)"/>
      <use xlink:href="#DejaVuSans-63" transform="translate(436.376953 0)"/>
      <use xlink:href="#DejaVuSans-6f" transform="translate(491.357422 0)"/>
      <use xlink:href="#DejaVuSans-75" transform="translate(552.539062 0)"/>
      <use xlink:href="#DejaVuSans-6e" transform="translate(615.917969 0)"/>
      <use xlink:href="#DejaVuSans-74" transform="translate(679.296875 0)"/>
      <use xlink:href="#DejaVuSans-73" transform="translate(718.505859 0)"/>
      <use xlink:href="#DejaVuSans-5d" transform="translate(770.605469 0)"/>
     </g>
    </g>
   </g>
   <g id="line2d_14">
    <path d="M 69.604961 234.391638 
L 70.690083 234.391638 
L 70.690083 227.358253 
L 71.775205 227.358253 
L 71.775205 218.95621 
L 72.860328 218.95621 
L 72.860328 211.010386 
L 73.94545 211.010386 
L 73.94545 201.125628 
L 75.030573 201.125628 
L 75.030573 193.331878 
L 76.115695 193.331878 
L 76.115695 183.142974 
L 77.200817 183.142974 
L 77.200817 175.805443 
L 78.28594 175.805443 
L 78.28594 166.148796 
L 79.371062 166.148796 
L 79.371062 156.530167 
L 80.456184 156.530167 
L 80.456184 149.876965 
L 81.541307 149.876965 
L 81.541307 147.139647 
L 82.626429 147.139647 
L 82.626429 140.904647 
L 83.711552 140.904647 
L 83.711552 131.095926 
L 84.796674 131.095926 
L 84.796674 127.408151 
L 85.881796 127.408151 
L 85.881796 122.998029 
L 86.966919 122.998029 
L 86.966919 114.329857 
L 88.052041 114.329857 
L 88.052041 111.250375 
L 89.137163 111.250375 
L 89.137163 105.053393 
L 90.222286 105.053393 
L 90.222286 98.362173 
L 91.307408 98.362173 
L 91.307408 96.537294 
L 92.392531 96.537294 
L 92.392531 90.036166 
L 93.477653 90.036166 
L 93.477653 92.659428 
L 94.562775 92.659428 
L 94.562775 83.040799 
L 95.647898 83.040799 
L 95.647898 82.204397 
L 96.73302 82.204397 
L 96.73302 83.040799 
L 97.818143 83.040799 
L 97.818143 77.224 
L 98.903265 77.224 
L 98.903265 73.041987 
L 99.988387 73.041987 
L 99.988387 69.734395 
L 101.07351 69.734395 
L 101.07351 72.775859 
L 102.158632 72.775859 
L 102.158632 66.654913 
L 103.243754 66.654913 
L 103.243754 64.107687 
L 104.328877 64.107687 
L 104.328877 65.894547 
L 105.413999 65.894547 
L 105.413999 63.309303 
L 106.499122 63.309303 
L 106.499122 60.229821 
L 107.584244 60.229821 
L 107.584244 59.241345 
L 108.669366 59.241345 
L 108.669366 58.366925 
L 109.754489 58.366925 
L 109.754489 52.930308 
L 110.839611 52.930308 
L 110.839611 52.43607 
L 111.924733 52.43607 
L 111.924733 51.789759 
L 113.009856 51.789759 
L 113.009856 44.604301 
L 114.094978 44.604301 
L 114.094978 48.140003 
L 115.180101 48.140003 
L 115.180101 46.961436 
L 116.265223 46.961436 
L 116.265223 40.954545 
L 117.350345 40.954545 
L 117.350345 46.885399 
L 118.435468 46.885399 
L 118.435468 45.820887 
L 119.52059 45.820887 
L 119.52059 41.752929 
L 120.605712 41.752929 
L 120.605712 38.521374 
L 121.690835 38.521374 
L 121.690835 40.650398 
L 122.775957 40.650398 
L 122.775957 39.775977 
L 123.86108 39.775977 
L 123.86108 40.916526 
L 124.946202 40.916526 
L 124.946202 36.278294 
L 126.031324 36.278294 
L 126.031324 34.453416 
L 127.116447 34.453416 
L 127.116447 41.714911 
L 128.201569 41.714911 
L 128.201569 38.863538 
L 129.286692 38.863538 
L 129.286692 32.780611 
L 130.371814 32.780611 
L 130.371814 37.49488 
L 131.456936 37.49488 
L 131.456936 32.894666 
L 132.542059 32.894666 
L 132.542059 33.845123 
L 133.627181 33.845123 
L 133.627181 38.82552 
L 134.712303 38.82552 
L 134.712303 33.69305 
L 135.797426 33.69305 
L 135.797426 28.142379 
L 136.882548 28.142379 
L 136.882548 34.567471 
L 137.967671 34.567471 
L 137.967671 35.860093 
L 139.052793 35.860093 
L 139.052793 27.724177 
L 140.137915 27.724177 
L 140.137915 33.540977 
L 141.223038 33.540977 
L 141.223038 36.772532 
L 142.30816 36.772532 
L 142.30816 27.153903 
L 143.393282 27.153903 
L 143.393282 31.90619 
L 144.478405 31.90619 
L 144.478405 38.59741 
L 145.563527 38.59741 
L 145.563527 31.411952 
L 146.64865 31.411952 
L 146.64865 28.180397 
L 148.818894 28.10436 
L 148.818894 31.602044 
L 149.904017 31.602044 
L 149.904017 25.481098 
L 150.989139 25.481098 
L 150.989139 26.735702 
L 152.074261 26.735702 
L 152.074261 30.57555 
L 153.159384 30.57555 
L 153.159384 26.621647 
L 154.244506 26.621647 
L 154.244506 37.913081 
L 155.329629 37.913081 
L 155.329629 24.796769 
L 156.414751 24.796769 
L 156.414751 26.203446 
L 157.499873 26.203446 
L 157.499873 28.636617 
L 158.584996 28.636617 
L 158.584996 28.294452 
L 159.670118 28.294452 
L 159.670118 26.393537 
L 160.75524 26.393537 
L 160.75524 32.666556 
L 161.840363 32.666556 
L 161.840363 31.411952 
L 162.925485 31.411952 
L 162.925485 23.314055 
L 164.010608 23.314055 
L 164.010608 30.537531 
L 165.09573 30.537531 
L 165.09573 24.606677 
L 166.180852 24.606677 
L 166.180852 27.115885 
L 167.265975 27.115885 
L 167.265975 23.085945 
L 168.351097 23.085945 
L 168.351097 29.663111 
L 169.43622 29.663111 
L 169.43622 28.028324 
L 170.521342 28.028324 
L 170.521342 28.902745 
L 171.606464 28.902745 
L 171.606464 28.674635 
L 172.691587 28.674635 
L 172.691587 26.697683 
L 173.776709 26.697683 
L 173.776709 28.10436 
L 174.861831 28.10436 
L 174.861831 31.069788 
L 175.946954 31.069788 
L 175.946954 26.811738 
L 177.032076 26.811738 
L 177.032076 21.223049 
L 178.117199 21.223049 
L 178.117199 32.704574 
L 179.202321 32.704574 
L 179.202321 30.651586 
L 180.287443 30.651586 
L 180.287443 26.849757 
L 181.372566 26.849757 
L 181.372566 20.918902 
L 182.457688 20.918902 
L 182.457688 24.720732 
L 183.54281 24.720732 
L 183.54281 28.484543 
L 184.627933 28.484543 
L 184.627933 26.54561 
L 185.713055 26.54561 
L 185.713055 24.98686 
L 186.798178 24.98686 
L 186.798178 21.907378 
L 187.8833 21.907378 
L 187.8833 25.595153 
L 188.968422 25.595153 
L 188.968422 27.800214 
L 190.053545 27.800214 
L 190.053545 24.416586 
L 191.138667 24.416586 
L 191.138667 24.150458 
L 192.223789 24.150458 
L 192.223789 27.572104 
L 193.308912 27.572104 
L 193.308912 22.629726 
L 194.394034 22.629726 
L 194.394034 18.561768 
L 195.479157 18.561768 
L 195.479157 26.811738 
L 196.564279 26.811738 
L 196.564279 28.370488 
L 197.649401 28.370488 
L 197.649401 23.732256 
L 198.734524 23.732256 
L 198.734524 21.64125 
L 199.819646 21.64125 
L 199.819646 29.320946 
L 200.904769 29.320946 
L 200.904769 24.796769 
L 201.989891 24.796769 
L 201.989891 26.051372 
L 203.075013 26.051372 
L 203.075013 20.424664 
L 204.160136 20.424664 
L 204.160136 29.054818 
L 205.245258 29.054818 
L 205.245258 28.180397 
L 206.33038 28.180397 
L 206.33038 26.469574 
L 207.415503 26.469574 
L 207.415503 24.454604 
L 208.500625 24.454604 
L 208.500625 29.473019 
L 209.585748 29.473019 
L 209.585748 27.458049 
L 210.67087 27.458049 
L 210.67087 25.481098 
L 211.755992 25.481098 
L 211.755992 28.218415 
L 212.841115 28.218415 
L 212.841115 25.291006 
L 213.926237 25.291006 
L 213.926237 23.922348 
L 215.011359 23.922348 
L 215.011359 24.834787 
L 216.096482 24.834787 
L 216.096482 31.183842 
L 217.181604 31.183842 
L 217.181604 26.3175 
L 218.266727 26.3175 
L 218.266727 28.56058 
L 219.351849 28.56058 
L 219.351849 29.358964 
L 220.436971 29.358964 
L 220.436971 23.770275 
L 221.522094 23.770275 
L 221.522094 23.314055 
L 222.607216 23.314055 
L 222.607216 24.568659 
L 223.692338 24.568659 
L 223.692338 27.914269 
L 224.777461 27.914269 
L 224.777461 25.291006 
L 225.862583 25.291006 
L 225.862583 23.808293 
L 226.947706 23.808293 
L 226.947706 27.153903 
L 228.032828 27.153903 
L 228.032828 25.709208 
L 229.11795 25.709208 
L 229.11795 25.405061 
L 230.203073 25.405061 
L 230.203073 24.492622 
L 231.288195 24.492622 
L 231.288195 30.537531 
L 232.373317 30.537531 
L 232.373317 23.618201 
L 233.45844 23.618201 
L 233.45844 21.299085 
L 234.543562 21.299085 
L 234.543562 26.887775 
L 235.628685 26.887775 
L 235.628685 29.967257 
L 236.713807 29.967257 
L 236.713807 26.583629 
L 237.798929 26.583629 
L 237.798929 30.385458 
L 238.884052 30.385458 
L 238.884052 26.431555 
L 239.969174 26.431555 
L 239.969174 27.762196 
L 241.054297 27.762196 
L 241.054297 25.823263 
L 242.139419 25.823263 
L 242.139419 27.305976 
L 243.224541 27.305976 
L 243.224541 25.671189 
L 244.309664 25.671189 
L 244.309664 24.302531 
L 245.394786 24.302531 
L 245.394786 21.831341 
L 246.479908 21.831341 
L 246.479908 26.735702 
L 247.565031 26.735702 
L 247.565031 24.75875 
L 248.650153 24.75875 
L 248.650153 23.732256 
L 249.735276 23.732256 
L 249.735276 22.705762 
L 250.820398 22.705762 
L 250.820398 27.686159 
L 252.990643 27.610123 
L 252.990643 27.458049 
L 254.075765 27.458049 
L 254.075765 28.142379 
L 255.160887 28.142379 
L 255.160887 25.671189 
L 256.24601 25.671189 
L 256.24601 34.643507 
L 257.331132 34.643507 
L 257.331132 45.288631 
L 258.416255 45.288631 
L 258.416255 45.136557 
L 259.501377 45.136557 
L 259.501377 56.770156 
L 260.586499 56.770156 
L 260.586499 64.031651 
L 261.671622 64.031651 
L 261.671622 72.813877 
L 262.756744 72.813877 
L 262.756744 83.459 
L 263.841866 83.459 
L 263.841866 93.914032 
L 264.926989 93.914032 
L 264.926989 103.494643 
L 266.012111 103.494643 
L 266.012111 109.045314 
L 267.097234 109.045314 
L 267.097234 117.181229 
L 268.182356 117.181229 
L 268.182356 123.530285 
L 269.267478 123.530285 
L 269.267478 129.651231 
L 270.352601 129.651231 
L 270.352601 134.023335 
L 271.437723 134.023335 
L 271.437723 139.612024 
L 272.522846 139.612024 
L 272.522846 148.660379 
L 273.607968 148.660379 
L 273.607968 152.842392 
L 274.69309 152.842392 
L 274.69309 157.214496 
L 275.778213 157.214496 
L 275.778213 160.978307 
L 276.863335 160.978307 
L 276.863335 169.83657 
L 277.948457 169.83657 
L 277.948457 171.927577 
L 279.03358 171.927577 
L 279.03358 173.752455 
L 280.118702 173.752455 
L 280.118702 175.919498 
L 281.203825 175.919498 
L 281.203825 181.128004 
L 282.288947 181.128004 
L 282.288947 185.956328 
L 283.374069 185.956328 
L 283.374069 188.959774 
L 284.459192 188.959774 
L 284.459192 196.41136 
L 285.544314 196.41136 
L 285.544314 193.902152 
L 286.629436 193.902152 
L 286.629436 198.502366 
L 287.714559 198.502366 
L 287.714559 202.190141 
L 288.799681 202.190141 
L 288.799681 200.8595 
L 289.884804 200.8595 
L 289.884804 206.866391 
L 290.969926 206.866391 
L 290.969926 208.957398 
L 292.055048 208.957398 
L 292.055048 209.983892 
L 293.140171 209.983892 
L 293.140171 212.455081 
L 294.225293 212.455081 
L 294.225293 212.683191 
L 295.310415 212.683191 
L 295.310415 214.92627 
L 296.395538 214.92627 
L 296.395538 216.903222 
L 297.48066 216.903222 
L 297.48066 220.172795 
L 298.565783 220.172795 
L 298.565783 219.488466 
L 299.650905 219.488466 
L 299.650905 221.237307 
L 300.736027 221.237307 
L 300.736027 222.339838 
L 301.82115 222.339838 
L 301.82115 224.506881 
L 302.906272 224.506881 
L 302.906272 223.86057 
L 303.991394 223.86057 
L 303.991394 227.130143 
L 305.076517 227.130143 
L 305.076517 226.559869 
L 306.161639 226.559869 
L 306.161639 228.498802 
L 307.246762 228.498802 
L 307.246762 229.259168 
L 308.331884 229.259168 
L 308.331884 230.893955 
L 309.417006 230.893955 
L 309.417006 230.209625 
L 310.502129 230.209625 
L 310.502129 230.627827 
L 311.587251 230.627827 
L 311.587251 232.642796 
L 313.757496 232.642796 
L 313.757496 233.555236 
L 314.842618 233.555236 
L 314.842618 234.809839 
L 315.927741 234.809839 
L 315.927741 235.342095 
L 317.012863 235.342095 
L 317.012863 235.075967 
L 318.097985 235.075967 
L 318.097985 236.558681 
L 319.183108 236.558681 
L 319.183108 236.900846 
L 320.26823 236.900846 
L 320.26823 237.166974 
L 321.353353 237.166974 
L 321.353353 236.938864 
L 322.438475 236.938864 
L 322.438475 237.69923 
L 323.523597 237.69923 
L 323.523597 237.92734 
L 324.60872 237.92734 
L 324.60872 238.649687 
L 325.693842 238.649687 
L 325.693842 239.219962 
L 327.864087 239.219962 
L 327.864087 240.58862 
L 328.949209 240.58862 
L 328.949209 239.638163 
L 330.034332 239.638163 
L 330.034332 241.082858 
L 331.119454 241.082858 
L 331.119454 240.512584 
L 332.204576 240.512584 
L 332.204576 240.81673 
L 333.289699 240.81673 
L 333.289699 241.50106 
L 334.374821 241.50106 
L 334.374821 241.615114 
L 335.459943 241.615114 
L 335.459943 242.033316 
L 337.630188 241.995297 
L 337.630188 242.299444 
L 338.715311 242.299444 
L 338.715311 242.8317 
L 340.885555 242.755663 
L 340.885555 242.337462 
L 341.970678 242.337462 
L 341.970678 242.945755 
L 343.0558 242.945755 
L 343.0558 243.668102 
L 345.226045 243.668102 
L 345.226045 243.249901 
L 346.311167 243.249901 
L 346.311167 243.439993 
L 347.39629 243.439993 
L 347.39629 243.630084 
L 348.481412 243.630084 
L 348.481412 243.972249 
L 349.566534 243.972249 
L 349.566534 243.820176 
L 350.651657 243.820176 
L 350.651657 243.592066 
L 351.736779 243.592066 
L 351.736779 244.466487 
L 353.907024 244.428468 
L 353.907024 244.732615 
L 354.992146 244.732615 
L 354.992146 244.124322 
L 357.162391 244.200359 
L 357.162391 244.238377 
L 358.247513 244.238377 
L 358.247513 244.542523 
L 359.332636 244.542523 
L 359.332636 244.428468 
L 360.417758 244.428468 
L 360.417758 244.84667 
L 361.502881 244.84667 
L 361.502881 244.656578 
L 362.588003 244.656578 
L 362.588003 244.998743 
L 363.673125 244.998743 
L 363.673125 245.150816 
L 365.84337 245.188834 
L 365.84337 244.960725 
L 366.928492 244.960725 
L 366.928492 245.112798 
L 368.013615 245.112798 
L 368.013615 244.808651 
L 369.098737 244.808651 
L 369.098737 245.530999 
L 370.18386 245.530999 
L 370.18386 245.188834 
L 374.524349 245.112798 
L 374.524349 245.454962 
L 378.864839 245.416944 
L 378.864839 245.645054 
L 381.035083 245.72109 
L 381.035083 245.530999 
L 385.375573 245.454962 
L 385.375573 245.72109 
L 387.545818 245.797127 
L 387.545818 245.530999 
L 390.801185 245.530999 
L 390.801185 245.683072 
L 391.886307 245.683072 
L 391.886307 245.569017 
L 392.97143 245.569017 
L 392.97143 245.72109 
L 394.056552 245.72109 
L 394.056552 245.569017 
L 395.141674 245.569017 
L 395.141674 245.569017 
" clip-path="url(#p5a8c3cd44a)" style="fill: none; stroke: #1f77b4; stroke-width: 1.5; stroke-linecap: square"/>
   </g>
   <g id="patch_3">
    <path d="M 53.328125 257.158895 
L 53.328125 7.2 
" style="fill: none; stroke: #000000; stroke-width: 0.8; stroke-linejoin: miter; stroke-linecap: square"/>
   </g>
   <g id="patch_4">
    <path d="M 411.41851 257.158895 
L 411.41851 7.2 
" style="fill: none; stroke: #000000; stroke-width: 0.8; stroke-linejoin: miter; stroke-linecap: square"/>
   </g>
   <g id="patch_5">
    <path d="M 53.328125 257.158895 
L 411.41851 257.158895 
" style="fill: none; stroke: #000000; stroke-width: 0.8; stroke-linejoin: miter; stroke-linecap: square"/>
   </g>
   <g id="patch_6">
    <path d="M 53.328125 7.2 
L 411.41851 7.2 
" style="fill: none; stroke: #000000; stroke-width: 0.8; stroke-linejoin: miter; stroke-linecap: square"/>
   </g>
  </g>
  <g id="axes_2">
   <g id="patch_7">
    <path d="M 507.109135 257.158895 
L 865.19952 257.158895 
L 865.19952 7.2 
L 507.109135 7.2 
z
" style="fill: #ffffff"/>
   </g>
   <g id="matplotlib.axis_3">
    <g id="xtick_7">
     <g id="line2d_15">
      <g>
       <use xlink:href="#m952a926259" x="520.104922" y="257.158895" style="stroke: #000000; stroke-width: 0.8"/>
      </g>
     </g>
     <g id="text_16">
      <!-- 0.0 -->
      <g transform="translate(512.15336 271.757332) scale(0.1 -0.1)">
       <defs>
        <path id="DejaVuSans-2e" d="M 684 794 
L 1344 794 
L 1344 0 
L 684 0 
L 684 794 
z
" transform="scale(0.015625)"/>
       </defs>
       <use xlink:href="#DejaVuSans-30"/>
       <use xlink:href="#DejaVuSans-2e" transform="translate(63.623047 0)"/>
       <use xlink:href="#DejaVuSans-30" transform="translate(95.410156 0)"/>
      </g>
     </g>
    </g>
    <g id="xtick_8">
     <g id="line2d_16">
      <g>
       <use xlink:href="#m952a926259" x="561.423639" y="257.158895" style="stroke: #000000; stroke-width: 0.8"/>
      </g>
     </g>
     <g id="text_17">
      <!-- 2.5 -->
      <g transform="translate(553.472077 271.757332) scale(0.1 -0.1)">
       <use xlink:href="#DejaVuSans-32"/>
       <use xlink:href="#DejaVuSans-2e" transform="translate(63.623047 0)"/>
       <use xlink:href="#DejaVuSans-35" transform="translate(95.410156 0)"/>
      </g>
     </g>
    </g>
    <g id="xtick_9">
     <g id="line2d_17">
      <g>
       <use xlink:href="#m952a926259" x="602.742356" y="257.158895" style="stroke: #000000; stroke-width: 0.8"/>
      </g>
     </g>
     <g id="text_18">
      <!-- 5.0 -->
      <g transform="translate(594.790794 271.757332) scale(0.1 -0.1)">
       <use xlink:href="#DejaVuSans-35"/>
       <use xlink:href="#DejaVuSans-2e" transform="translate(63.623047 0)"/>
       <use xlink:href="#DejaVuSans-30" transform="translate(95.410156 0)"/>
      </g>
     </g>
    </g>
    <g id="xtick_10">
     <g id="line2d_18">
      <g>
       <use xlink:href="#m952a926259" x="644.061073" y="257.158895" style="stroke: #000000; stroke-width: 0.8"/>
      </g>
     </g>
     <g id="text_19">
      <!-- 7.5 -->
      <g transform="translate(636.109511 271.757332) scale(0.1 -0.1)">
       <defs>
        <path id="DejaVuSans-37" d="M 525 4666 
L 3525 4666 
L 3525 4397 
L 1831 0 
L 1172 0 
L 2766 4134 
L 525 4134 
L 525 4666 
z
" transform="scale(0.015625)"/>
       </defs>
       <use xlink:href="#DejaVuSans-37"/>
       <use xlink:href="#DejaVuSans-2e" transform="translate(63.623047 0)"/>
       <use xlink:href="#DejaVuSans-35" transform="translate(95.410156 0)"/>
      </g>
     </g>
    </g>
    <g id="xtick_11">
     <g id="line2d_19">
      <g>
       <use xlink:href="#m952a926259" x="685.37979" y="257.158895" style="stroke: #000000; stroke-width: 0.8"/>
      </g>
     </g>
     <g id="text_20">
      <!-- 10.0 -->
      <g transform="translate(674.246978 271.757332) scale(0.1 -0.1)">
       <use xlink:href="#DejaVuSans-31"/>
       <use xlink:href="#DejaVuSans-30" transform="translate(63.623047 0)"/>
       <use xlink:href="#DejaVuSans-2e" transform="translate(127.246094 0)"/>
       <use xlink:href="#DejaVuSans-30" transform="translate(159.033203 0)"/>
      </g>
     </g>
    </g>
    <g id="xtick_12">
     <g id="line2d_20">
      <g>
       <use xlink:href="#m952a926259" x="726.698507" y="257.158895" style="stroke: #000000; stroke-width: 0.8"/>
      </g>
     </g>
     <g id="text_21">
      <!-- 12.5 -->
      <g transform="translate(715.565695 271.757332) scale(0.1 -0.1)">
       <use xlink:href="#DejaVuSans-31"/>
       <use xlink:href="#DejaVuSans-32" transform="translate(63.623047 0)"/>
       <use xlink:href="#DejaVuSans-2e" transform="translate(127.246094 0)"/>
       <use xlink:href="#DejaVuSans-35" transform="translate(159.033203 0)"/>
      </g>
     </g>
    </g>
    <g id="xtick_13">
     <g id="line2d_21">
      <g>
       <use xlink:href="#m952a926259" x="768.017224" y="257.158895" style="stroke: #000000; stroke-width: 0.8"/>
      </g>
     </g>
     <g id="text_22">
      <!-- 15.0 -->
      <g transform="translate(756.884412 271.757332) scale(0.1 -0.1)">
       <use xlink:href="#DejaVuSans-31"/>
       <use xlink:href="#DejaVuSans-35" transform="translate(63.623047 0)"/>
       <use xlink:href="#DejaVuSans-2e" transform="translate(127.246094 0)"/>
       <use xlink:href="#DejaVuSans-30" transform="translate(159.033203 0)"/>
      </g>
     </g>
    </g>
    <g id="xtick_14">
     <g id="line2d_22">
      <g>
       <use xlink:href="#m952a926259" x="809.335941" y="257.158895" style="stroke: #000000; stroke-width: 0.8"/>
      </g>
     </g>
     <g id="text_23">
      <!-- 17.5 -->
      <g transform="translate(798.203129 271.757332) scale(0.1 -0.1)">
       <use xlink:href="#DejaVuSans-31"/>
       <use xlink:href="#DejaVuSans-37" transform="translate(63.623047 0)"/>
       <use xlink:href="#DejaVuSans-2e" transform="translate(127.246094 0)"/>
       <use xlink:href="#DejaVuSans-35" transform="translate(159.033203 0)"/>
      </g>
     </g>
    </g>
    <g id="xtick_15">
     <g id="line2d_23">
      <g>
       <use xlink:href="#m952a926259" x="850.654658" y="257.158895" style="stroke: #000000; stroke-width: 0.8"/>
      </g>
     </g>
     <g id="text_24">
      <!-- 20.0 -->
      <g transform="translate(839.521846 271.757332) scale(0.1 -0.1)">
       <use xlink:href="#DejaVuSans-32"/>
       <use xlink:href="#DejaVuSans-30" transform="translate(63.623047 0)"/>
       <use xlink:href="#DejaVuSans-2e" transform="translate(127.246094 0)"/>
       <use xlink:href="#DejaVuSans-30" transform="translate(159.033203 0)"/>
      </g>
     </g>
    </g>
    <g id="text_25">
     <!-- wavelength [Å] -->
     <g transform="translate(648.116827 287.119832) scale(0.1 -0.1)">
      <defs>
       <path id="DejaVuSans-77" d="M 269 3500 
L 844 3500 
L 1563 769 
L 2278 3500 
L 2956 3500 
L 3675 769 
L 4391 3500 
L 4966 3500 
L 4050 0 
L 3372 0 
L 2619 2869 
L 1863 0 
L 1184 0 
L 269 3500 
z
" transform="scale(0.015625)"/>
       <path id="DejaVuSans-61" d="M 2194 1759 
Q 1497 1759 1228 1600 
Q 959 1441 959 1056 
Q 959 750 1161 570 
Q 1363 391 1709 391 
Q 2188 391 2477 730 
Q 2766 1069 2766 1631 
L 2766 1759 
L 2194 1759 
z
M 3341 1997 
L 3341 0 
L 2766 0 
L 2766 531 
Q 2569 213 2275 61 
Q 1981 -91 1556 -91 
Q 1019 -91 701 211 
Q 384 513 384 1019 
Q 384 1609 779 1909 
Q 1175 2209 1959 2209 
L 2766 2209 
L 2766 2266 
Q 2766 2663 2505 2880 
Q 2244 3097 1772 3097 
Q 1472 3097 1187 3025 
Q 903 2953 641 2809 
L 641 3341 
Q 956 3463 1253 3523 
Q 1550 3584 1831 3584 
Q 2591 3584 2966 3190 
Q 3341 2797 3341 1997 
z
" transform="scale(0.015625)"/>
       <path id="DejaVuSans-76" d="M 191 3500 
L 800 3500 
L 1894 563 
L 2988 3500 
L 3597 3500 
L 2284 0 
L 1503 0 
L 191 3500 
z
" transform="scale(0.015625)"/>
       <path id="DejaVuSans-67" d="M 2906 1791 
Q 2906 2416 2648 2759 
Q 2391 3103 1925 3103 
Q 1463 3103 1205 2759 
Q 947 2416 947 1791 
Q 947 1169 1205 825 
Q 1463 481 1925 481 
Q 2391 481 2648 825 
Q 2906 1169 2906 1791 
z
M 3481 434 
Q 3481 -459 3084 -895 
Q 2688 -1331 1869 -1331 
Q 1566 -1331 1297 -1286 
Q 1028 -1241 775 -1147 
L 775 -588 
Q 1028 -725 1275 -790 
Q 1522 -856 1778 -856 
Q 2344 -856 2625 -561 
Q 2906 -266 2906 331 
L 2906 616 
Q 2728 306 2450 153 
Q 2172 0 1784 0 
Q 1141 0 747 490 
Q 353 981 353 1791 
Q 353 2603 747 3093 
Q 1141 3584 1784 3584 
Q 2172 3584 2450 3431 
Q 2728 3278 2906 2969 
L 2906 3500 
L 3481 3500 
L 3481 434 
z
" transform="scale(0.015625)"/>
       <path id="DejaVuSans-c5" d="M 2663 5081 
Q 2663 5278 2523 5417 
Q 2384 5556 2188 5556 
Q 1988 5556 1852 5420 
Q 1716 5284 1716 5081 
Q 1716 4884 1853 4746 
Q 1991 4609 2188 4609 
Q 2384 4609 2523 4746 
Q 2663 4884 2663 5081 
z
M 2188 4044 
L 1338 1722 
L 3041 1722 
L 2188 4044 
z
M 1716 4366 
Q 1525 4494 1428 4673 
Q 1331 4853 1331 5081 
Q 1331 5441 1579 5691 
Q 1828 5941 2188 5941 
Q 2544 5941 2795 5689 
Q 3047 5438 3047 5081 
Q 3047 4863 2948 4678 
Q 2850 4494 2663 4366 
L 4325 0 
L 3669 0 
L 3244 1197 
L 1141 1197 
L 716 0 
L 50 0 
L 1716 4366 
z
" transform="scale(0.015625)"/>
      </defs>
      <use xlink:href="#DejaVuSans-77"/>
      <use xlink:href="#DejaVuSans-61" transform="translate(81.787109 0)"/>
      <use xlink:href="#DejaVuSans-76" transform="translate(143.066406 0)"/>
      <use xlink:href="#DejaVuSans-65" transform="translate(202.246094 0)"/>
      <use xlink:href="#DejaVuSans-6c" transform="translate(263.769531 0)"/>
      <use xlink:href="#DejaVuSans-65" transform="translate(291.552734 0)"/>
      <use xlink:href="#DejaVuSans-6e" transform="translate(353.076172 0)"/>
      <use xlink:href="#DejaVuSans-67" transform="translate(416.455078 0)"/>
      <use xlink:href="#DejaVuSans-74" transform="translate(479.931641 0)"/>
      <use xlink:href="#DejaVuSans-68" transform="translate(519.140625 0)"/>
      <use xlink:href="#DejaVuSans-20" transform="translate(582.519531 0)"/>
      <use xlink:href="#DejaVuSans-5b" transform="translate(614.306641 0)"/>
      <use xlink:href="#DejaVuSans-c5" transform="translate(653.320312 0)"/>
      <use xlink:href="#DejaVuSans-5d" transform="translate(721.728516 0)"/>
     </g>
    </g>
   </g>
   <g id="matplotlib.axis_4">
    <g id="ytick_8">
     <g id="line2d_24">
      <g>
       <use xlink:href="#mf4f4c69af9" x="507.109135" y="245.82899" style="stroke: #000000; stroke-width: 0.8"/>
      </g>
     </g>
     <g id="text_26">
      <!-- 0 -->
      <g transform="translate(493.746635 249.628209) scale(0.1 -0.1)">
       <use xlink:href="#DejaVuSans-30"/>
      </g>
     </g>
    </g>
    <g id="ytick_9">
     <g id="line2d_25">
      <g>
       <use xlink:href="#mf4f4c69af9" x="507.109135" y="192.724209" style="stroke: #000000; stroke-width: 0.8"/>
      </g>
     </g>
     <g id="text_27">
      <!-- 5000 -->
      <g transform="translate(474.659135 196.523427) scale(0.1 -0.1)">
       <use xlink:href="#DejaVuSans-35"/>
       <use xlink:href="#DejaVuSans-30" transform="translate(63.623047 0)"/>
       <use xlink:href="#DejaVuSans-30" transform="translate(127.246094 0)"/>
       <use xlink:href="#DejaVuSans-30" transform="translate(190.869141 0)"/>
      </g>
     </g>
    </g>
    <g id="ytick_10">
     <g id="line2d_26">
      <g>
       <use xlink:href="#mf4f4c69af9" x="507.109135" y="139.619427" style="stroke: #000000; stroke-width: 0.8"/>
      </g>
     </g>
     <g id="text_28">
      <!-- 10000 -->
      <g transform="translate(468.296635 143.418646) scale(0.1 -0.1)">
       <use xlink:href="#DejaVuSans-31"/>
       <use xlink:href="#DejaVuSans-30" transform="translate(63.623047 0)"/>
       <use xlink:href="#DejaVuSans-30" transform="translate(127.246094 0)"/>
       <use xlink:href="#DejaVuSans-30" transform="translate(190.869141 0)"/>
       <use xlink:href="#DejaVuSans-30" transform="translate(254.492188 0)"/>
      </g>
     </g>
    </g>
    <g id="ytick_11">
     <g id="line2d_27">
      <g>
       <use xlink:href="#mf4f4c69af9" x="507.109135" y="86.514646" style="stroke: #000000; stroke-width: 0.8"/>
      </g>
     </g>
     <g id="text_29">
      <!-- 15000 -->
      <g transform="translate(468.296635 90.313865) scale(0.1 -0.1)">
       <use xlink:href="#DejaVuSans-31"/>
       <use xlink:href="#DejaVuSans-35" transform="translate(63.623047 0)"/>
       <use xlink:href="#DejaVuSans-30" transform="translate(127.246094 0)"/>
       <use xlink:href="#DejaVuSans-30" transform="translate(190.869141 0)"/>
       <use xlink:href="#DejaVuSans-30" transform="translate(254.492188 0)"/>
      </g>
     </g>
    </g>
    <g id="ytick_12">
     <g id="line2d_28">
      <g>
       <use xlink:href="#mf4f4c69af9" x="507.109135" y="33.409865" style="stroke: #000000; stroke-width: 0.8"/>
      </g>
     </g>
     <g id="text_30">
      <!-- 20000 -->
      <g transform="translate(468.296635 37.209084) scale(0.1 -0.1)">
       <use xlink:href="#DejaVuSans-32"/>
       <use xlink:href="#DejaVuSans-30" transform="translate(63.623047 0)"/>
       <use xlink:href="#DejaVuSans-30" transform="translate(127.246094 0)"/>
       <use xlink:href="#DejaVuSans-30" transform="translate(190.869141 0)"/>
       <use xlink:href="#DejaVuSans-30" transform="translate(254.492188 0)"/>
      </g>
     </g>
    </g>
    <g id="text_31">
     <!-- pulse:0 [counts] -->
     <g transform="translate(462.216947 172.659916) rotate(-90) scale(0.1 -0.1)">
      <use xlink:href="#DejaVuSans-70"/>
      <use xlink:href="#DejaVuSans-75" transform="translate(63.476562 0)"/>
      <use xlink:href="#DejaVuSans-6c" transform="translate(126.855469 0)"/>
      <use xlink:href="#DejaVuSans-73" transform="translate(154.638672 0)"/>
      <use xlink:href="#DejaVuSans-65" transform="translate(206.738281 0)"/>
      <use xlink:href="#DejaVuSans-3a" transform="translate(268.261719 0)"/>
      <use xlink:href="#DejaVuSans-30" transform="translate(301.953125 0)"/>
      <use xlink:href="#DejaVuSans-20" transform="translate(365.576172 0)"/>
      <use xlink:href="#DejaVuSans-5b" transform="translate(397.363281 0)"/>
      <use xlink:href="#DejaVuSans-63" transform="translate(436.376953 0)"/>
      <use xlink:href="#DejaVuSans-6f" transform="translate(491.357422 0)"/>
      <use xlink:href="#DejaVuSans-75" transform="translate(552.539062 0)"/>
      <use xlink:href="#DejaVuSans-6e" transform="translate(615.917969 0)"/>
      <use xlink:href="#DejaVuSans-74" transform="translate(679.296875 0)"/>
      <use xlink:href="#DejaVuSans-73" transform="translate(718.505859 0)"/>
      <use xlink:href="#DejaVuSans-5d" transform="translate(770.605469 0)"/>
     </g>
    </g>
   </g>
   <g id="line2d_29">
    <path d="M 523.385971 151.844148 
L 524.471093 151.844148 
L 524.471093 145.20605 
L 525.556215 145.20605 
L 525.556215 135.360424 
L 526.641338 135.360424 
L 526.641338 138.238703 
L 527.72646 138.238703 
L 527.72646 144.239543 
L 528.811583 144.239543 
L 528.811583 154.488766 
L 529.896705 154.488766 
L 529.896705 147.383346 
L 530.981827 147.383346 
L 530.981827 125.567902 
L 532.06695 125.567902 
L 532.06695 105.558021 
L 533.152072 105.558021 
L 533.152072 81.852046 
L 534.237194 81.852046 
L 534.237194 58.209798 
L 535.322317 58.209798 
L 535.322317 35.682749 
L 536.407439 35.682749 
L 536.407439 20.14429 
L 537.492562 20.14429 
L 537.492562 19.528275 
L 538.577684 19.528275 
L 538.577684 18.561768 
L 539.662806 18.561768 
L 539.662806 18.986606 
L 540.747929 18.986606 
L 540.747929 28.24808 
L 541.833051 28.24808 
L 541.833051 38.369851 
L 542.918173 38.369851 
L 542.918173 47.195866 
L 544.003296 47.195866 
L 544.003296 58.528426 
L 545.088418 58.528426 
L 545.088418 69.648568 
L 546.173541 69.648568 
L 546.173541 76.860197 
L 547.258663 76.860197 
L 547.258663 83.466432 
L 548.343785 83.466432 
L 548.343785 89.509756 
L 549.428908 89.509756 
L 549.428908 93.66255 
L 550.51403 93.66255 
L 550.51403 94.522847 
L 551.599153 94.522847 
L 551.599153 95.351282 
L 552.684275 95.351282 
L 552.684275 92.876599 
L 553.769397 92.876599 
L 553.769397 89.371683 
L 554.85452 89.371683 
L 554.85452 85.909252 
L 555.939642 85.909252 
L 555.939642 78.941904 
L 557.024764 78.941904 
L 557.024764 66.504764 
L 558.109887 66.504764 
L 558.109887 59.367482 
L 559.195009 59.367482 
L 559.195009 50.658298 
L 560.280132 50.658298 
L 560.280132 41.821662 
L 561.365254 41.821662 
L 561.365254 30.085505 
L 562.450376 30.085505 
L 562.450376 32.931922 
L 563.535499 32.931922 
L 563.535499 42.522645 
L 564.620621 42.522645 
L 564.620621 49.213848 
L 565.705743 49.213848 
L 565.705743 58.326628 
L 566.790866 58.326628 
L 566.790866 70.381414 
L 567.875988 70.381414 
L 567.875988 79.11184 
L 568.961111 79.11184 
L 568.961111 86.960726 
L 570.046233 86.960726 
L 570.046233 99.674011 
L 571.131355 99.674011 
L 571.131355 102.977128 
L 572.216478 102.977128 
L 572.216478 112.461642 
L 573.3016 112.461642 
L 573.3016 116.083388 
L 574.386722 116.083388 
L 574.386722 124.920024 
L 575.471845 124.920024 
L 575.471845 129.826906 
L 576.556967 129.826906 
L 576.556967 134.585094 
L 577.64209 134.585094 
L 577.64209 141.244434 
L 578.727212 141.244434 
L 578.727212 145.524679 
L 579.812334 145.524679 
L 579.812334 150.782052 
L 580.897457 150.782052 
L 580.897457 155.901353 
L 581.982579 155.901353 
L 581.982579 160.871961 
L 583.067702 160.871961 
L 583.067702 165.237174 
L 584.152824 165.237174 
L 584.152824 168.444703 
L 585.237946 168.444703 
L 585.237946 172.374456 
L 586.323069 172.374456 
L 586.323069 174.753551 
L 587.408191 174.753551 
L 587.408191 177.727418 
L 588.493313 177.727418 
L 588.493313 182.878582 
L 589.578436 182.878582 
L 589.578436 185.342644 
L 590.663558 185.342644 
L 590.663558 188.943148 
L 591.748681 188.943148 
L 591.748681 191.566524 
L 593.918925 191.492178 
L 593.918925 195.666214 
L 595.004048 195.666214 
L 595.004048 197.227494 
L 596.08917 197.227494 
L 596.08917 201.274078 
L 597.174292 201.274078 
L 597.174292 202.028166 
L 598.259415 202.028166 
L 598.259415 204.587817 
L 599.344537 204.587817 
L 599.344537 205.607429 
L 600.42966 205.607429 
L 600.42966 208.007765 
L 601.514782 208.007765 
L 601.514782 208.878683 
L 602.599904 208.878683 
L 602.599904 209.962021 
L 603.685027 209.962021 
L 603.685027 212.564155 
L 604.770149 212.564155 
L 604.770149 214.709588 
L 605.855271 214.709588 
L 605.855271 216.536393 
L 606.940394 216.536393 
L 606.940394 217.417932 
L 608.025516 217.417932 
L 608.025516 217.84277 
L 609.110639 217.84277 
L 609.110639 220.827259 
L 610.195761 220.827259 
L 610.195761 219.903236 
L 611.280883 219.903236 
L 611.280883 220.965331 
L 612.366006 220.965331 
L 612.366006 222.72841 
L 613.451128 222.72841 
L 613.451128 223.588708 
L 614.53625 223.588708 
L 614.53625 223.333805 
L 615.621373 223.333805 
L 615.621373 224.990674 
L 616.706495 224.990674 
L 616.706495 225.957181 
L 617.791618 225.957181 
L 617.791618 226.998034 
L 618.87674 226.998034 
L 618.87674 227.359147 
L 619.961862 227.359147 
L 619.961862 228.28317 
L 621.046985 228.28317 
L 621.046985 229.50458 
L 622.132107 229.50458 
L 622.132107 229.143468 
L 624.302352 229.100984 
L 624.302352 230.821579 
L 625.387474 230.821579 
L 625.387474 231.437594 
L 626.472597 231.437594 
L 626.472597 231.798707 
L 627.557719 231.798707 
L 627.557719 232.000505 
L 628.642841 232.000505 
L 628.642841 233.190052 
L 629.727964 233.190052 
L 629.727964 233.508681 
L 630.813086 233.508681 
L 630.813086 233.976003 
L 632.983331 234.082212 
L 632.983331 234.337115 
L 634.068453 234.337115 
L 634.068453 235.197413 
L 636.238698 235.144308 
L 636.238698 236.015226 
L 637.32382 236.015226 
L 637.32382 236.291371 
L 639.494065 236.195783 
L 639.494065 236.429444 
L 640.579188 236.429444 
L 640.579188 237.544644 
L 641.66431 237.544644 
L 641.66431 236.981733 
L 642.749432 236.981733 
L 642.749432 237.83141 
L 643.834555 237.83141 
L 643.834555 237.544644 
L 644.919677 237.544644 
L 644.919677 238.72357 
L 646.004799 238.72357 
L 646.004799 237.746442 
L 647.089922 237.746442 
L 647.089922 238.755433 
L 648.175044 238.755433 
L 648.175044 238.60674 
L 649.260167 238.60674 
L 649.260167 238.999715 
L 650.345289 238.999715 
L 650.345289 239.328965 
L 651.430411 239.328965 
L 651.430411 239.647593 
L 652.515534 239.647593 
L 652.515534 240.189262 
L 653.600656 240.189262 
L 653.600656 240.008706 
L 654.685779 240.008706 
L 654.685779 240.284851 
L 655.770901 240.284851 
L 655.770901 239.753803 
L 656.856023 239.753803 
L 656.856023 240.27423 
L 657.941146 240.27423 
L 657.941146 240.709689 
L 659.026268 240.709689 
L 659.026268 240.422923 
L 660.11139 240.422923 
L 660.11139 241.283221 
L 661.196513 241.283221 
L 661.196513 240.847761 
L 663.366758 240.858382 
L 663.366758 241.516882 
L 664.45188 241.516882 
L 664.45188 241.676196 
L 665.537002 241.676196 
L 665.537002 241.442535 
L 666.622125 241.442535 
L 666.622125 241.686817 
L 667.707247 241.686817 
L 667.707247 242.005446 
L 670.962614 242.079792 
L 670.962614 242.207244 
L 674.217981 242.217865 
L 674.217981 242.430284 
L 675.303104 242.430284 
L 675.303104 242.748913 
L 681.813838 242.812638 
L 681.813838 242.886985 
L 682.89896 242.886985 
L 682.89896 243.152509 
L 686.154327 243.237477 
L 686.154327 243.38617 
L 687.23945 243.38617 
L 687.23945 243.587968 
L 690.494817 243.577347 
L 690.494817 243.853492 
L 691.579939 243.853492 
L 691.579939 243.736662 
L 697.005551 243.811008 
L 697.005551 244.002185 
L 700.260918 243.991564 
L 700.260918 244.172121 
L 703.516286 244.172121 
L 703.516286 244.299572 
L 704.601408 244.299572 
L 704.601408 243.906597 
L 705.68653 243.906597 
L 705.68653 244.193363 
L 707.856775 244.214605 
L 707.856775 244.034048 
L 710.02702 244.05529 
L 710.02702 244.511991 
L 711.112142 244.511991 
L 711.112142 244.352677 
L 712.197265 244.352677 
L 712.197265 244.097774 
L 713.282387 244.097774 
L 713.282387 244.363298 
L 715.452632 244.405782 
L 715.452632 244.522612 
L 716.537754 244.522612 
L 716.537754 244.756273 
L 717.622876 244.756273 
L 717.622876 244.618201 
L 718.707999 244.618201 
L 718.707999 244.299572 
L 719.793121 244.299572 
L 719.793121 244.511991 
L 721.963366 244.60758 
L 721.963366 244.745652 
L 723.048488 244.745652 
L 723.048488 244.904967 
L 724.133611 244.904967 
L 724.133611 244.692548 
L 726.303856 244.692548 
L 726.303856 244.873104 
L 728.4741 244.851862 
L 728.4741 245.074902 
L 729.559223 245.074902 
L 729.559223 244.915588 
L 731.729467 244.841241 
L 731.729467 244.798757 
L 733.899712 244.873104 
L 733.899712 245.05366 
L 734.984835 245.05366 
L 734.984835 244.798757 
L 736.069957 244.798757 
L 736.069957 245.085523 
L 740.410446 245.074902 
L 740.410446 244.915588 
L 741.495569 244.915588 
L 741.495569 245.223595 
L 748.006303 245.149249 
L 748.006303 244.958072 
L 749.091425 244.958072 
L 749.091425 245.181112 
L 750.176548 245.181112 
L 750.176548 245.319184 
L 752.346793 245.329805 
L 752.346793 245.202353 
L 755.60216 245.287321 
L 755.60216 245.372289 
L 759.942649 245.287321 
L 759.942649 245.15987 
L 761.027772 245.15987 
L 761.027772 245.361668 
L 768.623628 245.297942 
L 768.623628 245.510361 
L 769.708751 245.510361 
L 769.708751 245.372289 
L 771.878995 245.467877 
L 771.878995 245.49974 
L 785.985586 245.467877 
L 785.985586 245.616571 
L 795.751688 245.563466 
L 795.751688 245.467877 
L 797.921933 245.520982 
L 797.921933 245.627192 
L 840.241705 245.701538 
L 840.241705 245.797127 
L 848.922684 245.754643 
L 848.922684 245.754643 
" clip-path="url(#p62c84d850f)" style="fill: none; stroke: #1f77b4; stroke-width: 1.5; stroke-linecap: square"/>
   </g>
   <g id="patch_8">
    <path d="M 507.109135 257.158895 
L 507.109135 7.2 
" style="fill: none; stroke: #000000; stroke-width: 0.8; stroke-linejoin: miter; stroke-linecap: square"/>
   </g>
   <g id="patch_9">
    <path d="M 865.19952 257.158895 
L 865.19952 7.2 
" style="fill: none; stroke: #000000; stroke-width: 0.8; stroke-linejoin: miter; stroke-linecap: square"/>
   </g>
   <g id="patch_10">
    <path d="M 507.109135 257.158895 
L 865.19952 257.158895 
" style="fill: none; stroke: #000000; stroke-width: 0.8; stroke-linejoin: miter; stroke-linecap: square"/>
   </g>
   <g id="patch_11">
    <path d="M 507.109135 7.2 
L 865.19952 7.2 
" style="fill: none; stroke: #000000; stroke-width: 0.8; stroke-linejoin: miter; stroke-linecap: square"/>
   </g>
  </g>
 </g>
 <defs>
  <clipPath id="p5a8c3cd44a">
   <rect x="53.328125" y="7.2" width="358.090385" height="249.958895"/>
  </clipPath>
  <clipPath id="p62c84d850f">
   <rect x="507.109135" y="7.2" width="358.090385" height="249.958895"/>
  </clipPath>
 </defs>
</svg>
