<?xml version="1.0" encoding="utf-8" standalone="no"?>
<!DOCTYPE svg PUBLIC "-//W3C//DTD SVG 1.1//EN"
  "http://www.w3.org/Graphics/SVG/1.1/DTD/svg11.dtd">
<svg xmlns:xlink="http://www.w3.org/1999/xlink" width="872.39952pt" height="296.39952pt" viewBox="0 0 872.39952 296.39952" xmlns="http://www.w3.org/2000/svg" version="1.1">
 <metadata>
  <rdf:RDF xmlns:dc="http://purl.org/dc/elements/1.1/" xmlns:cc="http://creativecommons.org/ns#" xmlns:rdf="http://www.w3.org/1999/02/22-rdf-syntax-ns#">
   <cc:Work>
    <dc:type rdf:resource="http://purl.org/dc/dcmitype/StillImage"/>
    <dc:date>2025-11-19T10:11:34.556936</dc:date>
    <dc:format>image/svg+xml</dc:format>
    <dc:creator>
     <cc:Agent>
      <dc:title>Matplotlib v3.10.7, https://matplotlib.org/</dc:title>
     </cc:Agent>
    </dc:creator>
   </cc:Work>
  </rdf:RDF>
 </metadata>
 <defs>
  <style type="text/css">*{stroke-linejoin: round; stroke-linecap: butt}</style>
 </defs>
 <g id="figure_1">
  <g id="patch_1">
   <path d="M 0 296.39952 
L 872.39952 296.39952 
L 872.39952 0 
L 0 0 
z
" style="fill: #ffffff"/>
  </g>
  <g id="axes_1">
   <g id="patch_2">
    <path d="M 53.328125 257.158895 
L 411.41851 257.158895 
L 411.41851 7.2 
L 53.328125 7.2 
z
" style="fill: #ffffff"/>
   </g>
   <g id="matplotlib.axis_1">
    <g id="xtick_1">
     <g id="line2d_1">
      <defs>
       <path id="m32425ad087" d="M 0 0 
L 0 3.5 
" style="stroke: #000000; stroke-width: 0.8"/>
      </defs>
      <g>
       <use xlink:href="#m32425ad087" x="68.77862" y="257.158895" style="stroke: #000000; stroke-width: 0.8"/>
      </g>
     </g>
     <g id="text_1">
      <!-- 0 -->
      <g transform="translate(65.59737 271.757332) scale(0.1 -0.1)">
       <defs>
        <path id="DejaVuSans-30" d="M 2034 4250 
Q 1547 4250 1301 3770 
Q 1056 3291 1056 2328 
Q 1056 1369 1301 889 
Q 1547 409 2034 409 
Q 2525 409 2770 889 
Q 3016 1369 3016 2328 
Q 3016 3291 2770 3770 
Q 2525 4250 2034 4250 
z
M 2034 4750 
Q 2819 4750 3233 4129 
Q 3647 3509 3647 2328 
Q 3647 1150 3233 529 
Q 2819 -91 2034 -91 
Q 1250 -91 836 529 
Q 422 1150 422 2328 
Q 422 3509 836 4129 
Q 1250 4750 2034 4750 
z
" transform="scale(0.015625)"/>
       </defs>
       <use xlink:href="#DejaVuSans-30"/>
      </g>
     </g>
    </g>
    <g id="xtick_2">
     <g id="line2d_2">
      <g>
       <use xlink:href="#m32425ad087" x="134.257625" y="257.158895" style="stroke: #000000; stroke-width: 0.8"/>
      </g>
     </g>
     <g id="text_2">
      <!-- 1000 -->
      <g transform="translate(121.532625 271.757332) scale(0.1 -0.1)">
       <defs>
        <path id="DejaVuSans-31" d="M 794 531 
L 1825 531 
L 1825 4091 
L 703 3866 
L 703 4441 
L 1819 4666 
L 2450 4666 
L 2450 531 
L 3481 531 
L 3481 0 
L 794 0 
L 794 531 
z
" transform="scale(0.015625)"/>
       </defs>
       <use xlink:href="#DejaVuSans-31"/>
       <use xlink:href="#DejaVuSans-30" transform="translate(63.623047 0)"/>
       <use xlink:href="#DejaVuSans-30" transform="translate(127.246094 0)"/>
       <use xlink:href="#DejaVuSans-30" transform="translate(190.869141 0)"/>
      </g>
     </g>
    </g>
    <g id="xtick_3">
     <g id="line2d_3">
      <g>
       <use xlink:href="#m32425ad087" x="199.736631" y="257.158895" style="stroke: #000000; stroke-width: 0.8"/>
      </g>
     </g>
     <g id="text_3">
      <!-- 2000 -->
      <g transform="translate(187.011631 271.757332) scale(0.1 -0.1)">
       <defs>
        <path id="DejaVuSans-32" d="M 1228 531 
L 3431 531 
L 3431 0 
L 469 0 
L 469 531 
Q 828 903 1448 1529 
Q 2069 2156 2228 2338 
Q 2531 2678 2651 2914 
Q 2772 3150 2772 3378 
Q 2772 3750 2511 3984 
Q 2250 4219 1831 4219 
Q 1534 4219 1204 4116 
Q 875 4013 500 3803 
L 500 4441 
Q 881 4594 1212 4672 
Q 1544 4750 1819 4750 
Q 2544 4750 2975 4387 
Q 3406 4025 3406 3419 
Q 3406 3131 3298 2873 
Q 3191 2616 2906 2266 
Q 2828 2175 2409 1742 
Q 1991 1309 1228 531 
z
" transform="scale(0.015625)"/>
       </defs>
       <use xlink:href="#DejaVuSans-32"/>
       <use xlink:href="#DejaVuSans-30" transform="translate(63.623047 0)"/>
       <use xlink:href="#DejaVuSans-30" transform="translate(127.246094 0)"/>
       <use xlink:href="#DejaVuSans-30" transform="translate(190.869141 0)"/>
      </g>
     </g>
    </g>
    <g id="xtick_4">
     <g id="line2d_4">
      <g>
       <use xlink:href="#m32425ad087" x="265.215636" y="257.158895" style="stroke: #000000; stroke-width: 0.8"/>
      </g>
     </g>
     <g id="text_4">
      <!-- 3000 -->
      <g transform="translate(252.490636 271.757332) scale(0.1 -0.1)">
       <defs>
        <path id="DejaVuSans-33" d="M 2597 2516 
Q 3050 2419 3304 2112 
Q 3559 1806 3559 1356 
Q 3559 666 3084 287 
Q 2609 -91 1734 -91 
Q 1441 -91 1130 -33 
Q 819 25 488 141 
L 488 750 
Q 750 597 1062 519 
Q 1375 441 1716 441 
Q 2309 441 2620 675 
Q 2931 909 2931 1356 
Q 2931 1769 2642 2001 
Q 2353 2234 1838 2234 
L 1294 2234 
L 1294 2753 
L 1863 2753 
Q 2328 2753 2575 2939 
Q 2822 3125 2822 3475 
Q 2822 3834 2567 4026 
Q 2313 4219 1838 4219 
Q 1578 4219 1281 4162 
Q 984 4106 628 3988 
L 628 4550 
Q 988 4650 1302 4700 
Q 1616 4750 1894 4750 
Q 2613 4750 3031 4423 
Q 3450 4097 3450 3541 
Q 3450 3153 3228 2886 
Q 3006 2619 2597 2516 
z
" transform="scale(0.015625)"/>
       </defs>
       <use xlink:href="#DejaVuSans-33"/>
       <use xlink:href="#DejaVuSans-30" transform="translate(63.623047 0)"/>
       <use xlink:href="#DejaVuSans-30" transform="translate(127.246094 0)"/>
       <use xlink:href="#DejaVuSans-30" transform="translate(190.869141 0)"/>
      </g>
     </g>
    </g>
    <g id="xtick_5">
     <g id="line2d_5">
      <g>
       <use xlink:href="#m32425ad087" x="330.694642" y="257.158895" style="stroke: #000000; stroke-width: 0.8"/>
      </g>
     </g>
     <g id="text_5">
      <!-- 4000 -->
      <g transform="translate(317.969642 271.757332) scale(0.1 -0.1)">
       <defs>
        <path id="DejaVuSans-34" d="M 2419 4116 
L 825 1625 
L 2419 1625 
L 2419 4116 
z
M 2253 4666 
L 3047 4666 
L 3047 1625 
L 3713 1625 
L 3713 1100 
L 3047 1100 
L 3047 0 
L 2419 0 
L 2419 1100 
L 313 1100 
L 313 1709 
L 2253 4666 
z
" transform="scale(0.015625)"/>
       </defs>
       <use xlink:href="#DejaVuSans-34"/>
       <use xlink:href="#DejaVuSans-30" transform="translate(63.623047 0)"/>
       <use xlink:href="#DejaVuSans-30" transform="translate(127.246094 0)"/>
       <use xlink:href="#DejaVuSans-30" transform="translate(190.869141 0)"/>
      </g>
     </g>
    </g>
    <g id="xtick_6">
     <g id="line2d_6">
      <g>
       <use xlink:href="#m32425ad087" x="396.173648" y="257.158895" style="stroke: #000000; stroke-width: 0.8"/>
      </g>
     </g>
     <g id="text_6">
      <!-- 5000 -->
      <g transform="translate(383.448648 271.757332) scale(0.1 -0.1)">
       <defs>
        <path id="DejaVuSans-35" d="M 691 4666 
L 3169 4666 
L 3169 4134 
L 1269 4134 
L 1269 2991 
Q 1406 3038 1543 3061 
Q 1681 3084 1819 3084 
Q 2600 3084 3056 2656 
Q 3513 2228 3513 1497 
Q 3513 744 3044 326 
Q 2575 -91 1722 -91 
Q 1428 -91 1123 -41 
Q 819 9 494 109 
L 494 744 
Q 775 591 1075 516 
Q 1375 441 1709 441 
Q 2250 441 2565 725 
Q 2881 1009 2881 1497 
Q 2881 1984 2565 2268 
Q 2250 2553 1709 2553 
Q 1456 2553 1204 2497 
Q 953 2441 691 2322 
L 691 4666 
z
" transform="scale(0.015625)"/>
       </defs>
       <use xlink:href="#DejaVuSans-35"/>
       <use xlink:href="#DejaVuSans-30" transform="translate(63.623047 0)"/>
       <use xlink:href="#DejaVuSans-30" transform="translate(127.246094 0)"/>
       <use xlink:href="#DejaVuSans-30" transform="translate(190.869141 0)"/>
      </g>
     </g>
    </g>
    <g id="text_7">
     <!-- birth_time [µs] -->
     <g transform="translate(195.553005 285.435457) scale(0.1 -0.1)">
      <defs>
       <path id="DejaVuSans-62" d="M 3116 1747 
Q 3116 2381 2855 2742 
Q 2594 3103 2138 3103 
Q 1681 3103 1420 2742 
Q 1159 2381 1159 1747 
Q 1159 1113 1420 752 
Q 1681 391 2138 391 
Q 2594 391 2855 752 
Q 3116 1113 3116 1747 
z
M 1159 2969 
Q 1341 3281 1617 3432 
Q 1894 3584 2278 3584 
Q 2916 3584 3314 3078 
Q 3713 2572 3713 1747 
Q 3713 922 3314 415 
Q 2916 -91 2278 -91 
Q 1894 -91 1617 61 
Q 1341 213 1159 525 
L 1159 0 
L 581 0 
L 581 4863 
L 1159 4863 
L 1159 2969 
z
" transform="scale(0.015625)"/>
       <path id="DejaVuSans-69" d="M 603 3500 
L 1178 3500 
L 1178 0 
L 603 0 
L 603 3500 
z
M 603 4863 
L 1178 4863 
L 1178 4134 
L 603 4134 
L 603 4863 
z
" transform="scale(0.015625)"/>
       <path id="DejaVuSans-72" d="M 2631 2963 
Q 2534 3019 2420 3045 
Q 2306 3072 2169 3072 
Q 1681 3072 1420 2755 
Q 1159 2438 1159 1844 
L 1159 0 
L 581 0 
L 581 3500 
L 1159 3500 
L 1159 2956 
Q 1341 3275 1631 3429 
Q 1922 3584 2338 3584 
Q 2397 3584 2469 3576 
Q 2541 3569 2628 3553 
L 2631 2963 
z
" transform="scale(0.015625)"/>
       <path id="DejaVuSans-74" d="M 1172 4494 
L 1172 3500 
L 2356 3500 
L 2356 3053 
L 1172 3053 
L 1172 1153 
Q 1172 725 1289 603 
Q 1406 481 1766 481 
L 2356 481 
L 2356 0 
L 1766 0 
Q 1100 0 847 248 
Q 594 497 594 1153 
L 594 3053 
L 172 3053 
L 172 3500 
L 594 3500 
L 594 4494 
L 1172 4494 
z
" transform="scale(0.015625)"/>
       <path id="DejaVuSans-68" d="M 3513 2113 
L 3513 0 
L 2938 0 
L 2938 2094 
Q 2938 2591 2744 2837 
Q 2550 3084 2163 3084 
Q 1697 3084 1428 2787 
Q 1159 2491 1159 1978 
L 1159 0 
L 581 0 
L 581 4863 
L 1159 4863 
L 1159 2956 
Q 1366 3272 1645 3428 
Q 1925 3584 2291 3584 
Q 2894 3584 3203 3211 
Q 3513 2838 3513 2113 
z
" transform="scale(0.015625)"/>
       <path id="DejaVuSans-5f" d="M 3263 -1063 
L 3263 -1509 
L -63 -1509 
L -63 -1063 
L 3263 -1063 
z
" transform="scale(0.015625)"/>
       <path id="DejaVuSans-6d" d="M 3328 2828 
Q 3544 3216 3844 3400 
Q 4144 3584 4550 3584 
Q 5097 3584 5394 3201 
Q 5691 2819 5691 2113 
L 5691 0 
L 5113 0 
L 5113 2094 
Q 5113 2597 4934 2840 
Q 4756 3084 4391 3084 
Q 3944 3084 3684 2787 
Q 3425 2491 3425 1978 
L 3425 0 
L 2847 0 
L 2847 2094 
Q 2847 2600 2669 2842 
Q 2491 3084 2119 3084 
Q 1678 3084 1418 2786 
Q 1159 2488 1159 1978 
L 1159 0 
L 581 0 
L 581 3500 
L 1159 3500 
L 1159 2956 
Q 1356 3278 1631 3431 
Q 1906 3584 2284 3584 
Q 2666 3584 2933 3390 
Q 3200 3197 3328 2828 
z
" transform="scale(0.015625)"/>
       <path id="DejaVuSans-65" d="M 3597 1894 
L 3597 1613 
L 953 1613 
Q 991 1019 1311 708 
Q 1631 397 2203 397 
Q 2534 397 2845 478 
Q 3156 559 3463 722 
L 3463 178 
Q 3153 47 2828 -22 
Q 2503 -91 2169 -91 
Q 1331 -91 842 396 
Q 353 884 353 1716 
Q 353 2575 817 3079 
Q 1281 3584 2069 3584 
Q 2775 3584 3186 3129 
Q 3597 2675 3597 1894 
z
M 3022 2063 
Q 3016 2534 2758 2815 
Q 2500 3097 2075 3097 
Q 1594 3097 1305 2825 
Q 1016 2553 972 2059 
L 3022 2063 
z
" transform="scale(0.015625)"/>
       <path id="DejaVuSans-20" transform="scale(0.015625)"/>
       <path id="DejaVuSans-5b" d="M 550 4863 
L 1875 4863 
L 1875 4416 
L 1125 4416 
L 1125 -397 
L 1875 -397 
L 1875 -844 
L 550 -844 
L 550 4863 
z
" transform="scale(0.015625)"/>
       <path id="DejaVuSans-b5" d="M 544 -1331 
L 544 3500 
L 1119 3500 
L 1119 1325 
Q 1119 872 1334 640 
Q 1550 409 1972 409 
Q 2434 409 2667 671 
Q 2900 934 2900 1459 
L 2900 3500 
L 3475 3500 
L 3475 806 
Q 3475 619 3529 530 
Q 3584 441 3700 441 
Q 3728 441 3778 458 
Q 3828 475 3916 513 
L 3916 50 
Q 3788 -22 3673 -56 
Q 3559 -91 3450 -91 
Q 3234 -91 3106 31 
Q 2978 153 2931 403 
Q 2775 156 2548 32 
Q 2322 -91 2016 -91 
Q 1697 -91 1473 31 
Q 1250 153 1119 397 
L 1119 -1331 
L 544 -1331 
z
" transform="scale(0.015625)"/>
       <path id="DejaVuSans-73" d="M 2834 3397 
L 2834 2853 
Q 2591 2978 2328 3040 
Q 2066 3103 1784 3103 
Q 1356 3103 1142 2972 
Q 928 2841 928 2578 
Q 928 2378 1081 2264 
Q 1234 2150 1697 2047 
L 1894 2003 
Q 2506 1872 2764 1633 
Q 3022 1394 3022 966 
Q 3022 478 2636 193 
Q 2250 -91 1575 -91 
Q 1294 -91 989 -36 
Q 684 19 347 128 
L 347 722 
Q 666 556 975 473 
Q 1284 391 1588 391 
Q 1994 391 2212 530 
Q 2431 669 2431 922 
Q 2431 1156 2273 1281 
Q 2116 1406 1581 1522 
L 1381 1569 
Q 847 1681 609 1914 
Q 372 2147 372 2553 
Q 372 3047 722 3315 
Q 1072 3584 1716 3584 
Q 2034 3584 2315 3537 
Q 2597 3491 2834 3397 
z
" transform="scale(0.015625)"/>
       <path id="DejaVuSans-5d" d="M 1947 4863 
L 1947 -844 
L 622 -844 
L 622 -397 
L 1369 -397 
L 1369 4416 
L 622 4416 
L 622 4863 
L 1947 4863 
z
" transform="scale(0.015625)"/>
      </defs>
      <use xlink:href="#DejaVuSans-62"/>
      <use xlink:href="#DejaVuSans-69" transform="translate(63.476562 0)"/>
      <use xlink:href="#DejaVuSans-72" transform="translate(91.259766 0)"/>
      <use xlink:href="#DejaVuSans-74" transform="translate(132.373047 0)"/>
      <use xlink:href="#DejaVuSans-68" transform="translate(171.582031 0)"/>
      <use xlink:href="#DejaVuSans-5f" transform="translate(234.960938 0)"/>
      <use xlink:href="#DejaVuSans-74" transform="translate(284.960938 0)"/>
      <use xlink:href="#DejaVuSans-69" transform="translate(324.169922 0)"/>
      <use xlink:href="#DejaVuSans-6d" transform="translate(351.953125 0)"/>
      <use xlink:href="#DejaVuSans-65" transform="translate(449.365234 0)"/>
      <use xlink:href="#DejaVuSans-20" transform="translate(510.888672 0)"/>
      <use xlink:href="#DejaVuSans-5b" transform="translate(542.675781 0)"/>
      <use xlink:href="#DejaVuSans-b5" transform="translate(581.689453 0)"/>
      <use xlink:href="#DejaVuSans-73" transform="translate(645.3125 0)"/>
      <use xlink:href="#DejaVuSans-5d" transform="translate(697.412109 0)"/>
     </g>
    </g>
   </g>
   <g id="matplotlib.axis_2">
    <g id="ytick_1">
     <g id="line2d_7">
      <defs>
       <path id="mc76d06a6bb" d="M 0 0 
L -3.5 0 
" style="stroke: #000000; stroke-width: 0.8"/>
      </defs>
      <g>
       <use xlink:href="#mc76d06a6bb" x="53.328125" y="245.870953" style="stroke: #000000; stroke-width: 0.8"/>
      </g>
     </g>
     <g id="text_8">
      <!-- 0 -->
      <g transform="translate(39.965625 249.670171) scale(0.1 -0.1)">
       <use xlink:href="#DejaVuSans-30"/>
      </g>
     </g>
    </g>
    <g id="ytick_2">
     <g id="line2d_8">
      <g>
       <use xlink:href="#mc76d06a6bb" x="53.328125" y="208.958126" style="stroke: #000000; stroke-width: 0.8"/>
      </g>
     </g>
     <g id="text_9">
      <!-- 500 -->
      <g transform="translate(27.240625 212.757345) scale(0.1 -0.1)">
       <use xlink:href="#DejaVuSans-35"/>
       <use xlink:href="#DejaVuSans-30" transform="translate(63.623047 0)"/>
       <use xlink:href="#DejaVuSans-30" transform="translate(127.246094 0)"/>
      </g>
     </g>
    </g>
    <g id="ytick_3">
     <g id="line2d_9">
      <g>
       <use xlink:href="#mc76d06a6bb" x="53.328125" y="172.0453" style="stroke: #000000; stroke-width: 0.8"/>
      </g>
     </g>
     <g id="text_10">
      <!-- 1000 -->
      <g transform="translate(20.878125 175.844519) scale(0.1 -0.1)">
       <use xlink:href="#DejaVuSans-31"/>
       <use xlink:href="#DejaVuSans-30" transform="translate(63.623047 0)"/>
       <use xlink:href="#DejaVuSans-30" transform="translate(127.246094 0)"/>
       <use xlink:href="#DejaVuSans-30" transform="translate(190.869141 0)"/>
      </g>
     </g>
    </g>
    <g id="ytick_4">
     <g id="line2d_10">
      <g>
       <use xlink:href="#mc76d06a6bb" x="53.328125" y="135.132474" style="stroke: #000000; stroke-width: 0.8"/>
      </g>
     </g>
     <g id="text_11">
      <!-- 1500 -->
      <g transform="translate(20.878125 138.931692) scale(0.1 -0.1)">
       <use xlink:href="#DejaVuSans-31"/>
       <use xlink:href="#DejaVuSans-35" transform="translate(63.623047 0)"/>
       <use xlink:href="#DejaVuSans-30" transform="translate(127.246094 0)"/>
       <use xlink:href="#DejaVuSans-30" transform="translate(190.869141 0)"/>
      </g>
     </g>
    </g>
    <g id="ytick_5">
     <g id="line2d_11">
      <g>
       <use xlink:href="#mc76d06a6bb" x="53.328125" y="98.219647" style="stroke: #000000; stroke-width: 0.8"/>
      </g>
     </g>
     <g id="text_12">
      <!-- 2000 -->
      <g transform="translate(20.878125 102.018866) scale(0.1 -0.1)">
       <use xlink:href="#DejaVuSans-32"/>
       <use xlink:href="#DejaVuSans-30" transform="translate(63.623047 0)"/>
       <use xlink:href="#DejaVuSans-30" transform="translate(127.246094 0)"/>
       <use xlink:href="#DejaVuSans-30" transform="translate(190.869141 0)"/>
      </g>
     </g>
    </g>
    <g id="ytick_6">
     <g id="line2d_12">
      <g>
       <use xlink:href="#mc76d06a6bb" x="53.328125" y="61.306821" style="stroke: #000000; stroke-width: 0.8"/>
      </g>
     </g>
     <g id="text_13">
      <!-- 2500 -->
      <g transform="translate(20.878125 65.10604) scale(0.1 -0.1)">
       <use xlink:href="#DejaVuSans-32"/>
       <use xlink:href="#DejaVuSans-35" transform="translate(63.623047 0)"/>
       <use xlink:href="#DejaVuSans-30" transform="translate(127.246094 0)"/>
       <use xlink:href="#DejaVuSans-30" transform="translate(190.869141 0)"/>
      </g>
     </g>
    </g>
    <g id="ytick_7">
     <g id="line2d_13">
      <g>
       <use xlink:href="#mc76d06a6bb" x="53.328125" y="24.393995" style="stroke: #000000; stroke-width: 0.8"/>
      </g>
     </g>
     <g id="text_14">
      <!-- 3000 -->
      <g transform="translate(20.878125 28.193213) scale(0.1 -0.1)">
       <use xlink:href="#DejaVuSans-33"/>
       <use xlink:href="#DejaVuSans-30" transform="translate(63.623047 0)"/>
       <use xlink:href="#DejaVuSans-30" transform="translate(127.246094 0)"/>
       <use xlink:href="#DejaVuSans-30" transform="translate(190.869141 0)"/>
      </g>
     </g>
    </g>
    <g id="text_15">
     <!-- pulse:0 [counts] -->
     <g transform="translate(14.798438 172.659916) rotate(-90) scale(0.1 -0.1)">
      <defs>
       <path id="DejaVuSans-70" d="M 1159 525 
L 1159 -1331 
L 581 -1331 
L 581 3500 
L 1159 3500 
L 1159 2969 
Q 1341 3281 1617 3432 
Q 1894 3584 2278 3584 
Q 2916 3584 3314 3078 
Q 3713 2572 3713 1747 
Q 3713 922 3314 415 
Q 2916 -91 2278 -91 
Q 1894 -91 1617 61 
Q 1341 213 1159 525 
z
M 3116 1747 
Q 3116 2381 2855 2742 
Q 2594 3103 2138 3103 
Q 1681 3103 1420 2742 
Q 1159 2381 1159 1747 
Q 1159 1113 1420 752 
Q 1681 391 2138 391 
Q 2594 391 2855 752 
Q 3116 1113 3116 1747 
z
" transform="scale(0.015625)"/>
       <path id="DejaVuSans-75" d="M 544 1381 
L 544 3500 
L 1119 3500 
L 1119 1403 
Q 1119 906 1312 657 
Q 1506 409 1894 409 
Q 2359 409 2629 706 
Q 2900 1003 2900 1516 
L 2900 3500 
L 3475 3500 
L 3475 0 
L 2900 0 
L 2900 538 
Q 2691 219 2414 64 
Q 2138 -91 1772 -91 
Q 1169 -91 856 284 
Q 544 659 544 1381 
z
M 1991 3584 
L 1991 3584 
z
" transform="scale(0.015625)"/>
       <path id="DejaVuSans-6c" d="M 603 4863 
L 1178 4863 
L 1178 0 
L 603 0 
L 603 4863 
z
" transform="scale(0.015625)"/>
       <path id="DejaVuSans-3a" d="M 750 794 
L 1409 794 
L 1409 0 
L 750 0 
L 750 794 
z
M 750 3309 
L 1409 3309 
L 1409 2516 
L 750 2516 
L 750 3309 
z
" transform="scale(0.015625)"/>
       <path id="DejaVuSans-63" d="M 3122 3366 
L 3122 2828 
Q 2878 2963 2633 3030 
Q 2388 3097 2138 3097 
Q 1578 3097 1268 2742 
Q 959 2388 959 1747 
Q 959 1106 1268 751 
Q 1578 397 2138 397 
Q 2388 397 2633 464 
Q 2878 531 3122 666 
L 3122 134 
Q 2881 22 2623 -34 
Q 2366 -91 2075 -91 
Q 1284 -91 818 406 
Q 353 903 353 1747 
Q 353 2603 823 3093 
Q 1294 3584 2113 3584 
Q 2378 3584 2631 3529 
Q 2884 3475 3122 3366 
z
" transform="scale(0.015625)"/>
       <path id="DejaVuSans-6f" d="M 1959 3097 
Q 1497 3097 1228 2736 
Q 959 2375 959 1747 
Q 959 1119 1226 758 
Q 1494 397 1959 397 
Q 2419 397 2687 759 
Q 2956 1122 2956 1747 
Q 2956 2369 2687 2733 
Q 2419 3097 1959 3097 
z
M 1959 3584 
Q 2709 3584 3137 3096 
Q 3566 2609 3566 1747 
Q 3566 888 3137 398 
Q 2709 -91 1959 -91 
Q 1206 -91 779 398 
Q 353 888 353 1747 
Q 353 2609 779 3096 
Q 1206 3584 1959 3584 
z
" transform="scale(0.015625)"/>
       <path id="DejaVuSans-6e" d="M 3513 2113 
L 3513 0 
L 2938 0 
L 2938 2094 
Q 2938 2591 2744 2837 
Q 2550 3084 2163 3084 
Q 1697 3084 1428 2787 
Q 1159 2491 1159 1978 
L 1159 0 
L 581 0 
L 581 3500 
L 1159 3500 
L 1159 2956 
Q 1366 3272 1645 3428 
Q 1925 3584 2291 3584 
Q 2894 3584 3203 3211 
Q 3513 2838 3513 2113 
z
" transform="scale(0.015625)"/>
      </defs>
      <use xlink:href="#DejaVuSans-70"/>
      <use xlink:href="#DejaVuSans-75" transform="translate(63.476562 0)"/>
      <use xlink:href="#DejaVuSans-6c" transform="translate(126.855469 0)"/>
      <use xlink:href="#DejaVuSans-73" transform="translate(154.638672 0)"/>
      <use xlink:href="#DejaVuSans-65" transform="translate(206.738281 0)"/>
      <use xlink:href="#DejaVuSans-3a" transform="translate(268.261719 0)"/>
      <use xlink:href="#DejaVuSans-30" transform="translate(301.953125 0)"/>
      <use xlink:href="#DejaVuSans-20" transform="translate(365.576172 0)"/>
      <use xlink:href="#DejaVuSans-5b" transform="translate(397.363281 0)"/>
      <use xlink:href="#DejaVuSans-63" transform="translate(436.376953 0)"/>
      <use xlink:href="#DejaVuSans-6f" transform="translate(491.357422 0)"/>
      <use xlink:href="#DejaVuSans-75" transform="translate(552.539062 0)"/>
      <use xlink:href="#DejaVuSans-6e" transform="translate(615.917969 0)"/>
      <use xlink:href="#DejaVuSans-74" transform="translate(679.296875 0)"/>
      <use xlink:href="#DejaVuSans-73" transform="translate(718.505859 0)"/>
      <use xlink:href="#DejaVuSans-5d" transform="translate(770.605469 0)"/>
     </g>
    </g>
   </g>
   <g id="line2d_14">
    <path d="M 69.604961 233.320592 
L 70.690083 233.320592 
L 70.690083 229.850786 
L 71.775205 229.850786 
L 71.775205 222.911175 
L 72.860328 222.911175 
L 72.860328 212.354106 
L 73.94545 212.354106 
L 73.94545 200.542002 
L 75.030573 200.542002 
L 75.030573 189.246677 
L 76.115695 189.246677 
L 76.115695 180.092296 
L 77.200817 180.092296 
L 77.200817 179.501691 
L 78.28594 179.501691 
L 78.28594 169.535228 
L 79.371062 169.535228 
L 79.371062 162.521791 
L 80.456184 162.521791 
L 80.456184 154.917749 
L 81.541307 154.917749 
L 81.541307 147.313706 
L 82.626429 147.313706 
L 82.626429 144.655983 
L 83.711552 144.655983 
L 83.711552 131.441191 
L 84.796674 131.441191 
L 84.796674 136.166033 
L 85.881796 136.166033 
L 85.881796 126.716349 
L 86.966919 126.716349 
L 86.966919 118.078748 
L 88.052041 118.078748 
L 88.052041 112.763301 
L 89.137163 112.763301 
L 89.137163 108.407587 
L 90.222286 108.407587 
L 90.222286 105.380736 
L 91.307408 105.380736 
L 91.307408 97.924345 
L 92.392531 97.924345 
L 92.392531 92.461246 
L 93.477653 92.461246 
L 93.477653 93.199503 
L 94.562775 93.199503 
L 94.562775 94.60219 
L 95.647898 94.60219 
L 95.647898 89.50822 
L 96.73302 89.50822 
L 96.73302 83.675994 
L 97.818143 83.675994 
L 97.818143 84.41425 
L 98.903265 84.41425 
L 98.903265 82.199481 
L 99.988387 82.199481 
L 99.988387 74.74309 
L 101.07351 74.74309 
L 101.07351 77.843767 
L 102.158632 77.843767 
L 102.158632 71.420935 
L 103.243754 71.420935 
L 103.243754 62.561857 
L 104.328877 62.561857 
L 104.328877 68.910863 
L 105.413999 68.910863 
L 105.413999 68.615561 
L 106.499122 68.615561 
L 106.499122 65.21958 
L 107.584244 65.21958 
L 107.584244 59.904133 
L 108.669366 59.904133 
L 108.669366 60.12561 
L 109.754489 60.12561 
L 109.754489 57.689364 
L 110.839611 57.689364 
L 110.839611 55.326943 
L 111.924733 55.326943 
L 111.924733 57.837015 
L 113.009856 57.837015 
L 113.009856 50.380624 
L 114.094978 50.380624 
L 114.094978 58.206143 
L 115.180101 58.206143 
L 115.180101 51.192706 
L 116.265223 51.192706 
L 116.265223 48.830286 
L 117.350345 48.830286 
L 117.350345 55.179292 
L 118.435468 55.179292 
L 118.435468 47.279947 
L 119.52059 47.279947 
L 119.52059 48.018203 
L 120.605712 48.018203 
L 120.605712 55.400769 
L 121.690835 55.400769 
L 121.690835 49.125588 
L 122.775957 49.125588 
L 122.775957 46.172562 
L 123.86108 46.172562 
L 123.86108 41.004766 
L 124.946202 41.004766 
L 124.946202 43.514839 
L 126.031324 43.514839 
L 126.031324 42.776582 
L 127.116447 42.776582 
L 127.116447 47.206121 
L 128.201569 47.206121 
L 128.201569 42.038326 
L 129.286692 42.038326 
L 129.286692 37.461135 
L 130.371814 37.461135 
L 130.371814 41.890674 
L 131.456936 41.890674 
L 131.456936 44.991352 
L 132.542059 44.991352 
L 132.542059 38.347043 
L 133.627181 38.347043 
L 133.627181 38.199392 
L 134.712303 38.199392 
L 134.712303 44.696049 
L 135.797426 44.696049 
L 135.797426 39.159125 
L 136.882548 39.159125 
L 136.882548 44.105444 
L 137.967671 44.105444 
L 137.967671 39.675905 
L 139.052793 39.675905 
L 139.052793 45.951085 
L 140.137915 45.951085 
L 140.137915 37.461135 
L 141.223038 37.461135 
L 141.223038 36.279925 
L 142.30816 36.279925 
L 142.30816 38.863822 
L 143.393282 38.863822 
L 143.393282 40.635638 
L 144.478405 40.635638 
L 144.478405 44.105444 
L 145.563527 44.105444 
L 145.563527 31.185955 
L 146.64865 31.185955 
L 146.64865 33.253073 
L 147.733772 33.253073 
L 147.733772 30.964478 
L 148.818894 30.964478 
L 148.818894 40.414161 
L 149.904017 40.414161 
L 149.904017 30.447698 
L 150.989139 30.447698 
L 150.989139 34.508109 
L 152.074261 34.508109 
L 152.074261 37.313484 
L 153.159384 37.313484 
L 153.159384 34.508109 
L 154.244506 34.508109 
L 154.244506 31.702734 
L 155.329629 31.702734 
L 155.329629 34.212806 
L 156.414751 34.212806 
L 156.414751 33.031596 
L 157.499873 33.031596 
L 157.499873 41.078592 
L 158.584996 41.078592 
L 158.584996 38.273217 
L 159.670118 38.273217 
L 159.670118 34.508109 
L 160.75524 34.508109 
L 160.75524 37.387309 
L 161.840363 37.387309 
L 161.840363 34.286632 
L 162.925485 34.286632 
L 162.925485 34.803412 
L 164.010608 34.803412 
L 164.010608 37.461135 
L 165.09573 37.461135 
L 165.09573 28.675882 
L 166.180852 28.675882 
L 166.180852 27.420846 
L 167.265975 27.420846 
L 167.265975 29.118836 
L 168.351097 29.118836 
L 168.351097 30.964478 
L 169.43622 30.964478 
L 169.43622 28.971185 
L 170.521342 28.971185 
L 170.521342 35.763145 
L 171.606464 35.763145 
L 171.606464 32.145688 
L 172.691587 32.145688 
L 172.691587 29.045011 
L 173.776709 29.045011 
L 173.776709 33.843678 
L 174.861831 33.843678 
L 174.861831 38.863822 
L 175.946954 38.863822 
L 175.946954 32.367165 
L 177.032076 32.367165 
L 177.032076 35.615494 
L 178.117199 35.615494 
L 178.117199 31.998037 
L 179.202321 31.998037 
L 179.202321 27.716149 
L 180.287443 27.716149 
L 180.287443 34.508109 
L 181.372566 34.508109 
L 181.372566 31.850385 
L 182.457688 31.850385 
L 182.457688 38.789997 
L 183.54281 38.789997 
L 183.54281 31.850385 
L 184.627933 31.850385 
L 184.627933 23.803389 
L 185.713055 23.803389 
L 185.713055 34.212806 
L 187.8833 34.212806 
L 187.8833 35.024889 
L 188.968422 35.024889 
L 188.968422 31.185955 
L 190.053545 31.185955 
L 190.053545 34.581935 
L 191.138667 34.581935 
L 191.138667 38.642345 
L 192.223789 38.642345 
L 192.223789 31.77656 
L 193.308912 31.77656 
L 193.308912 28.602057 
L 194.394034 28.602057 
L 194.394034 33.548375 
L 195.479157 33.548375 
L 195.479157 32.662468 
L 196.564279 32.662468 
L 196.564279 33.179247 
L 197.649401 33.179247 
L 197.649401 26.756415 
L 198.734524 26.756415 
L 198.734524 31.038303 
L 199.819646 31.038303 
L 199.819646 32.514816 
L 200.904769 32.514816 
L 200.904769 18.561768 
L 201.989891 18.561768 
L 201.989891 43.66249 
L 203.075013 43.66249 
L 203.075013 36.796704 
L 204.160136 36.796704 
L 204.160136 26.461113 
L 205.245258 26.461113 
L 205.245258 34.65576 
L 206.33038 34.65576 
L 206.33038 38.420869 
L 207.415503 38.420869 
L 207.415503 29.045011 
L 208.500625 29.045011 
L 208.500625 35.467842 
L 209.585748 35.467842 
L 209.585748 33.769852 
L 210.67087 33.769852 
L 210.67087 29.930918 
L 211.755992 29.930918 
L 211.755992 29.192662 
L 212.841115 29.192662 
L 212.841115 37.682612 
L 213.926237 37.682612 
L 213.926237 33.769852 
L 215.011359 33.769852 
L 215.011359 36.796704 
L 216.096482 36.796704 
L 216.096482 22.253051 
L 217.181604 22.253051 
L 217.181604 29.487965 
L 218.266727 29.487965 
L 218.266727 32.883945 
L 219.351849 32.883945 
L 219.351849 32.071862 
L 220.436971 32.071862 
L 220.436971 27.642323 
L 221.522094 27.642323 
L 221.522094 28.602057 
L 222.607216 28.602057 
L 222.607216 29.266488 
L 223.692338 29.266488 
L 223.692338 25.870508 
L 224.777461 25.870508 
L 224.777461 34.729586 
L 225.862583 34.729586 
L 225.862583 29.783267 
L 226.947706 29.783267 
L 226.947706 28.749708 
L 228.032828 28.749708 
L 228.032828 31.038303 
L 229.11795 31.038303 
L 229.11795 30.743001 
L 230.203073 30.743001 
L 230.203073 32.662468 
L 231.288195 32.662468 
L 231.288195 36.427576 
L 232.373317 36.427576 
L 232.373317 34.434283 
L 233.45844 34.434283 
L 233.45844 35.394017 
L 234.543562 35.394017 
L 234.543562 34.877237 
L 235.628685 34.877237 
L 235.628685 29.340313 
L 236.713807 29.340313 
L 236.713807 26.461113 
L 237.798929 26.461113 
L 237.798929 32.883945 
L 239.969174 32.810119 
L 239.969174 30.152395 
L 241.054297 30.152395 
L 241.054297 22.548353 
L 242.139419 22.548353 
L 242.139419 28.675882 
L 243.224541 28.675882 
L 243.224541 29.192662 
L 244.309664 29.192662 
L 244.309664 30.521524 
L 245.394786 30.521524 
L 245.394786 30.743001 
L 246.479908 30.743001 
L 246.479908 25.132251 
L 247.565031 25.132251 
L 247.565031 36.132273 
L 248.650153 36.132273 
L 248.650153 31.25978 
L 249.735276 31.25978 
L 249.735276 32.440991 
L 250.820398 32.440991 
L 250.820398 36.206099 
L 251.90552 36.206099 
L 251.90552 30.300047 
L 252.990643 30.300047 
L 252.990643 28.011452 
L 254.075765 28.011452 
L 254.075765 35.541668 
L 255.160887 35.541668 
L 255.160887 37.092007 
L 256.24601 37.092007 
L 256.24601 40.118859 
L 257.331132 40.118859 
L 257.331132 49.125588 
L 258.416255 49.125588 
L 258.416255 57.467887 
L 259.501377 57.467887 
L 259.501377 60.347087 
L 260.586499 60.347087 
L 260.586499 72.602146 
L 261.671622 72.602146 
L 261.671622 77.696116 
L 262.756744 77.696116 
L 262.756744 88.843789 
L 263.841866 88.843789 
L 263.841866 102.501535 
L 264.926989 102.501535 
L 264.926989 106.48812 
L 266.012111 106.48812 
L 266.012111 115.421024 
L 267.097234 115.421024 
L 267.097234 120.810297 
L 268.182356 120.810297 
L 268.182356 128.266688 
L 269.267478 128.266688 
L 269.267478 134.098914 
L 270.352601 134.098914 
L 270.352601 139.045233 
L 271.437723 139.045233 
L 271.437723 146.944578 
L 272.522846 146.944578 
L 272.522846 148.051963 
L 273.607968 148.051963 
L 273.607968 154.770097 
L 274.69309 154.770097 
L 274.69309 162.743268 
L 275.778213 162.743268 
L 275.778213 164.884212 
L 276.863335 164.884212 
L 276.863335 170.421136 
L 277.948457 170.421136 
L 277.948457 173.964767 
L 279.03358 173.964767 
L 279.03358 176.843967 
L 280.118702 176.843967 
L 280.118702 182.159414 
L 281.203825 182.159414 
L 281.203825 187.991641 
L 282.288947 187.991641 
L 282.288947 187.770164 
L 283.374069 187.770164 
L 283.374069 192.642657 
L 284.459192 192.642657 
L 284.459192 195.226555 
L 285.544314 195.226555 
L 285.544314 197.293673 
L 286.629436 197.293673 
L 286.629436 201.42791 
L 287.714559 201.42791 
L 287.714559 199.360791 
L 288.799681 199.360791 
L 288.799681 202.682946 
L 289.884804 202.682946 
L 289.884804 207.776916 
L 290.969926 207.776916 
L 290.969926 209.991685 
L 292.055048 209.991685 
L 292.055048 208.588998 
L 293.140171 208.588998 
L 293.140171 212.354106 
L 294.225293 212.354106 
L 294.225293 214.199748 
L 295.310415 214.199748 
L 295.310415 214.568876 
L 296.395538 214.568876 
L 296.395538 217.964856 
L 297.48066 217.964856 
L 297.48066 217.669553 
L 298.565783 217.669553 
L 298.565783 221.213185 
L 299.650905 221.213185 
L 299.650905 221.951441 
L 300.736027 221.951441 
L 300.736027 224.535339 
L 301.82115 224.535339 
L 301.82115 224.166211 
L 302.906272 224.166211 
L 302.906272 224.387688 
L 303.991394 224.387688 
L 303.991394 228.743401 
L 305.076517 228.743401 
L 305.076517 227.193063 
L 306.161639 227.193063 
L 306.161639 225.642724 
L 307.246762 225.642724 
L 307.246762 230.367566 
L 308.331884 230.367566 
L 308.331884 231.401125 
L 309.417006 231.401125 
L 309.417006 233.320592 
L 310.502129 233.320592 
L 310.502129 233.17294 
L 311.587251 233.17294 
L 311.587251 233.68972 
L 312.672374 233.68972 
L 312.672374 234.501802 
L 313.757496 234.501802 
L 313.757496 233.911197 
L 315.927741 233.985023 
L 315.927741 234.797105 
L 317.012863 234.797105 
L 317.012863 236.052141 
L 318.097985 236.052141 
L 318.097985 237.0857 
L 319.183108 237.0857 
L 319.183108 236.864223 
L 320.26823 236.864223 
L 320.26823 236.716572 
L 321.353353 236.716572 
L 321.353353 237.381003 
L 322.438475 237.381003 
L 322.438475 237.750131 
L 324.60872 237.676305 
L 324.60872 240.038726 
L 326.778964 240.038726 
L 326.778964 240.850808 
L 327.864087 240.850808 
L 327.864087 241.293762 
L 328.949209 241.293762 
L 328.949209 241.146111 
L 330.034332 241.146111 
L 330.034332 240.703157 
L 331.119454 240.703157 
L 331.119454 240.850808 
L 332.204576 240.850808 
L 332.204576 239.891075 
L 333.289699 239.891075 
L 333.289699 241.072285 
L 334.374821 241.072285 
L 334.374821 241.958193 
L 335.459943 241.958193 
L 335.459943 241.66289 
L 336.545066 241.66289 
L 336.545066 242.548798 
L 337.630188 242.548798 
L 337.630188 242.17967 
L 339.800433 242.253496 
L 339.800433 242.844101 
L 343.0558 242.770275 
L 343.0558 243.213229 
L 344.140923 243.213229 
L 344.140923 243.508532 
L 346.311167 243.434706 
L 346.311167 243.139404 
L 347.39629 243.139404 
L 347.39629 243.582357 
L 348.481412 243.582357 
L 348.481412 243.951486 
L 349.566534 243.951486 
L 349.566534 242.991752 
L 350.651657 242.991752 
L 350.651657 243.87766 
L 351.736779 243.87766 
L 351.736779 244.542091 
L 352.821902 244.542091 
L 352.821902 243.803834 
L 353.907024 243.803834 
L 353.907024 244.099137 
L 354.992146 244.099137 
L 354.992146 244.246788 
L 356.077269 244.246788 
L 356.077269 243.730009 
L 357.162391 243.730009 
L 357.162391 244.542091 
L 358.247513 244.542091 
L 358.247513 244.246788 
L 359.332636 244.246788 
L 359.332636 243.951486 
L 360.417758 243.951486 
L 360.417758 244.837394 
L 362.588003 244.763568 
L 362.588003 244.542091 
L 363.673125 244.542091 
L 363.673125 244.39444 
L 364.758248 244.39444 
L 364.758248 244.911219 
L 366.928492 244.985045 
L 366.928492 245.058871 
L 368.013615 245.058871 
L 368.013615 244.837394 
L 369.098737 244.837394 
L 369.098737 245.058871 
L 370.18386 245.058871 
L 370.18386 244.837394 
L 371.268982 244.837394 
L 371.268982 245.132696 
L 372.354104 245.132696 
L 372.354104 244.911219 
L 374.524349 244.911219 
L 374.524349 245.501824 
L 375.609471 245.501824 
L 375.609471 245.280347 
L 376.694594 245.280347 
L 376.694594 245.058871 
L 377.779716 245.058871 
L 377.779716 245.354173 
L 382.120206 245.354173 
L 382.120206 245.501824 
L 384.290451 245.501824 
L 384.290451 245.132696 
L 385.375573 245.132696 
L 385.375573 245.354173 
L 386.460695 245.354173 
L 386.460695 245.797127 
L 387.545818 245.797127 
L 387.545818 245.280347 
L 389.716062 245.280347 
L 389.716062 245.57565 
L 391.886307 245.501824 
L 391.886307 245.427999 
L 392.97143 245.427999 
L 392.97143 245.723301 
L 394.056552 245.723301 
L 394.056552 245.280347 
L 395.141674 245.280347 
L 395.141674 245.280347 
" clip-path="url(#pbf55b8b20a)" style="fill: none; stroke: #1f77b4; stroke-width: 1.5; stroke-linecap: square"/>
   </g>
   <g id="patch_3">
    <path d="M 53.328125 257.158895 
L 53.328125 7.2 
" style="fill: none; stroke: #000000; stroke-width: 0.8; stroke-linejoin: miter; stroke-linecap: square"/>
   </g>
   <g id="patch_4">
    <path d="M 411.41851 257.158895 
L 411.41851 7.2 
" style="fill: none; stroke: #000000; stroke-width: 0.8; stroke-linejoin: miter; stroke-linecap: square"/>
   </g>
   <g id="patch_5">
    <path d="M 53.328125 257.158895 
L 411.41851 257.158895 
" style="fill: none; stroke: #000000; stroke-width: 0.8; stroke-linejoin: miter; stroke-linecap: square"/>
   </g>
   <g id="patch_6">
    <path d="M 53.328125 7.2 
L 411.41851 7.2 
" style="fill: none; stroke: #000000; stroke-width: 0.8; stroke-linejoin: miter; stroke-linecap: square"/>
   </g>
  </g>
  <g id="axes_2">
   <g id="patch_7">
    <path d="M 507.109135 257.158895 
L 865.19952 257.158895 
L 865.19952 7.2 
L 507.109135 7.2 
z
" style="fill: #ffffff"/>
   </g>
   <g id="matplotlib.axis_3">
    <g id="xtick_7">
     <g id="line2d_15">
      <g>
       <use xlink:href="#m32425ad087" x="520.105747" y="257.158895" style="stroke: #000000; stroke-width: 0.8"/>
      </g>
     </g>
     <g id="text_16">
      <!-- 0.0 -->
      <g transform="translate(512.154184 271.757332) scale(0.1 -0.1)">
       <defs>
        <path id="DejaVuSans-2e" d="M 684 794 
L 1344 794 
L 1344 0 
L 684 0 
L 684 794 
z
" transform="scale(0.015625)"/>
       </defs>
       <use xlink:href="#DejaVuSans-30"/>
       <use xlink:href="#DejaVuSans-2e" transform="translate(63.623047 0)"/>
       <use xlink:href="#DejaVuSans-30" transform="translate(95.410156 0)"/>
      </g>
     </g>
    </g>
    <g id="xtick_8">
     <g id="line2d_16">
      <g>
       <use xlink:href="#m32425ad087" x="561.414476" y="257.158895" style="stroke: #000000; stroke-width: 0.8"/>
      </g>
     </g>
     <g id="text_17">
      <!-- 2.5 -->
      <g transform="translate(553.462913 271.757332) scale(0.1 -0.1)">
       <use xlink:href="#DejaVuSans-32"/>
       <use xlink:href="#DejaVuSans-2e" transform="translate(63.623047 0)"/>
       <use xlink:href="#DejaVuSans-35" transform="translate(95.410156 0)"/>
      </g>
     </g>
    </g>
    <g id="xtick_9">
     <g id="line2d_17">
      <g>
       <use xlink:href="#m32425ad087" x="602.723205" y="257.158895" style="stroke: #000000; stroke-width: 0.8"/>
      </g>
     </g>
     <g id="text_18">
      <!-- 5.0 -->
      <g transform="translate(594.771642 271.757332) scale(0.1 -0.1)">
       <use xlink:href="#DejaVuSans-35"/>
       <use xlink:href="#DejaVuSans-2e" transform="translate(63.623047 0)"/>
       <use xlink:href="#DejaVuSans-30" transform="translate(95.410156 0)"/>
      </g>
     </g>
    </g>
    <g id="xtick_10">
     <g id="line2d_18">
      <g>
       <use xlink:href="#m32425ad087" x="644.031933" y="257.158895" style="stroke: #000000; stroke-width: 0.8"/>
      </g>
     </g>
     <g id="text_19">
      <!-- 7.5 -->
      <g transform="translate(636.080371 271.757332) scale(0.1 -0.1)">
       <defs>
        <path id="DejaVuSans-37" d="M 525 4666 
L 3525 4666 
L 3525 4397 
L 1831 0 
L 1172 0 
L 2766 4134 
L 525 4134 
L 525 4666 
z
" transform="scale(0.015625)"/>
       </defs>
       <use xlink:href="#DejaVuSans-37"/>
       <use xlink:href="#DejaVuSans-2e" transform="translate(63.623047 0)"/>
       <use xlink:href="#DejaVuSans-35" transform="translate(95.410156 0)"/>
      </g>
     </g>
    </g>
    <g id="xtick_11">
     <g id="line2d_19">
      <g>
       <use xlink:href="#m32425ad087" x="685.340662" y="257.158895" style="stroke: #000000; stroke-width: 0.8"/>
      </g>
     </g>
     <g id="text_20">
      <!-- 10.0 -->
      <g transform="translate(674.20785 271.757332) scale(0.1 -0.1)">
       <use xlink:href="#DejaVuSans-31"/>
       <use xlink:href="#DejaVuSans-30" transform="translate(63.623047 0)"/>
       <use xlink:href="#DejaVuSans-2e" transform="translate(127.246094 0)"/>
       <use xlink:href="#DejaVuSans-30" transform="translate(159.033203 0)"/>
      </g>
     </g>
    </g>
    <g id="xtick_12">
     <g id="line2d_20">
      <g>
       <use xlink:href="#m32425ad087" x="726.649391" y="257.158895" style="stroke: #000000; stroke-width: 0.8"/>
      </g>
     </g>
     <g id="text_21">
      <!-- 12.5 -->
      <g transform="translate(715.516579 271.757332) scale(0.1 -0.1)">
       <use xlink:href="#DejaVuSans-31"/>
       <use xlink:href="#DejaVuSans-32" transform="translate(63.623047 0)"/>
       <use xlink:href="#DejaVuSans-2e" transform="translate(127.246094 0)"/>
       <use xlink:href="#DejaVuSans-35" transform="translate(159.033203 0)"/>
      </g>
     </g>
    </g>
    <g id="xtick_13">
     <g id="line2d_21">
      <g>
       <use xlink:href="#m32425ad087" x="767.95812" y="257.158895" style="stroke: #000000; stroke-width: 0.8"/>
      </g>
     </g>
     <g id="text_22">
      <!-- 15.0 -->
      <g transform="translate(756.825308 271.757332) scale(0.1 -0.1)">
       <use xlink:href="#DejaVuSans-31"/>
       <use xlink:href="#DejaVuSans-35" transform="translate(63.623047 0)"/>
       <use xlink:href="#DejaVuSans-2e" transform="translate(127.246094 0)"/>
       <use xlink:href="#DejaVuSans-30" transform="translate(159.033203 0)"/>
      </g>
     </g>
    </g>
    <g id="xtick_14">
     <g id="line2d_22">
      <g>
       <use xlink:href="#m32425ad087" x="809.266849" y="257.158895" style="stroke: #000000; stroke-width: 0.8"/>
      </g>
     </g>
     <g id="text_23">
      <!-- 17.5 -->
      <g transform="translate(798.134036 271.757332) scale(0.1 -0.1)">
       <use xlink:href="#DejaVuSans-31"/>
       <use xlink:href="#DejaVuSans-37" transform="translate(63.623047 0)"/>
       <use xlink:href="#DejaVuSans-2e" transform="translate(127.246094 0)"/>
       <use xlink:href="#DejaVuSans-35" transform="translate(159.033203 0)"/>
      </g>
     </g>
    </g>
    <g id="xtick_15">
     <g id="line2d_23">
      <g>
       <use xlink:href="#m32425ad087" x="850.575578" y="257.158895" style="stroke: #000000; stroke-width: 0.8"/>
      </g>
     </g>
     <g id="text_24">
      <!-- 20.0 -->
      <g transform="translate(839.442765 271.757332) scale(0.1 -0.1)">
       <use xlink:href="#DejaVuSans-32"/>
       <use xlink:href="#DejaVuSans-30" transform="translate(63.623047 0)"/>
       <use xlink:href="#DejaVuSans-2e" transform="translate(127.246094 0)"/>
       <use xlink:href="#DejaVuSans-30" transform="translate(159.033203 0)"/>
      </g>
     </g>
    </g>
    <g id="text_25">
     <!-- wavelength [Å] -->
     <g transform="translate(648.116827 287.119832) scale(0.1 -0.1)">
      <defs>
       <path id="DejaVuSans-77" d="M 269 3500 
L 844 3500 
L 1563 769 
L 2278 3500 
L 2956 3500 
L 3675 769 
L 4391 3500 
L 4966 3500 
L 4050 0 
L 3372 0 
L 2619 2869 
L 1863 0 
L 1184 0 
L 269 3500 
z
" transform="scale(0.015625)"/>
       <path id="DejaVuSans-61" d="M 2194 1759 
Q 1497 1759 1228 1600 
Q 959 1441 959 1056 
Q 959 750 1161 570 
Q 1363 391 1709 391 
Q 2188 391 2477 730 
Q 2766 1069 2766 1631 
L 2766 1759 
L 2194 1759 
z
M 3341 1997 
L 3341 0 
L 2766 0 
L 2766 531 
Q 2569 213 2275 61 
Q 1981 -91 1556 -91 
Q 1019 -91 701 211 
Q 384 513 384 1019 
Q 384 1609 779 1909 
Q 1175 2209 1959 2209 
L 2766 2209 
L 2766 2266 
Q 2766 2663 2505 2880 
Q 2244 3097 1772 3097 
Q 1472 3097 1187 3025 
Q 903 2953 641 2809 
L 641 3341 
Q 956 3463 1253 3523 
Q 1550 3584 1831 3584 
Q 2591 3584 2966 3190 
Q 3341 2797 3341 1997 
z
" transform="scale(0.015625)"/>
       <path id="DejaVuSans-76" d="M 191 3500 
L 800 3500 
L 1894 563 
L 2988 3500 
L 3597 3500 
L 2284 0 
L 1503 0 
L 191 3500 
z
" transform="scale(0.015625)"/>
       <path id="DejaVuSans-67" d="M 2906 1791 
Q 2906 2416 2648 2759 
Q 2391 3103 1925 3103 
Q 1463 3103 1205 2759 
Q 947 2416 947 1791 
Q 947 1169 1205 825 
Q 1463 481 1925 481 
Q 2391 481 2648 825 
Q 2906 1169 2906 1791 
z
M 3481 434 
Q 3481 -459 3084 -895 
Q 2688 -1331 1869 -1331 
Q 1566 -1331 1297 -1286 
Q 1028 -1241 775 -1147 
L 775 -588 
Q 1028 -725 1275 -790 
Q 1522 -856 1778 -856 
Q 2344 -856 2625 -561 
Q 2906 -266 2906 331 
L 2906 616 
Q 2728 306 2450 153 
Q 2172 0 1784 0 
Q 1141 0 747 490 
Q 353 981 353 1791 
Q 353 2603 747 3093 
Q 1141 3584 1784 3584 
Q 2172 3584 2450 3431 
Q 2728 3278 2906 2969 
L 2906 3500 
L 3481 3500 
L 3481 434 
z
" transform="scale(0.015625)"/>
       <path id="DejaVuSans-c5" d="M 2663 5081 
Q 2663 5278 2523 5417 
Q 2384 5556 2188 5556 
Q 1988 5556 1852 5420 
Q 1716 5284 1716 5081 
Q 1716 4884 1853 4746 
Q 1991 4609 2188 4609 
Q 2384 4609 2523 4746 
Q 2663 4884 2663 5081 
z
M 2188 4044 
L 1338 1722 
L 3041 1722 
L 2188 4044 
z
M 1716 4366 
Q 1525 4494 1428 4673 
Q 1331 4853 1331 5081 
Q 1331 5441 1579 5691 
Q 1828 5941 2188 5941 
Q 2544 5941 2795 5689 
Q 3047 5438 3047 5081 
Q 3047 4863 2948 4678 
Q 2850 4494 2663 4366 
L 4325 0 
L 3669 0 
L 3244 1197 
L 1141 1197 
L 716 0 
L 50 0 
L 1716 4366 
z
" transform="scale(0.015625)"/>
      </defs>
      <use xlink:href="#DejaVuSans-77"/>
      <use xlink:href="#DejaVuSans-61" transform="translate(81.787109 0)"/>
      <use xlink:href="#DejaVuSans-76" transform="translate(143.066406 0)"/>
      <use xlink:href="#DejaVuSans-65" transform="translate(202.246094 0)"/>
      <use xlink:href="#DejaVuSans-6c" transform="translate(263.769531 0)"/>
      <use xlink:href="#DejaVuSans-65" transform="translate(291.552734 0)"/>
      <use xlink:href="#DejaVuSans-6e" transform="translate(353.076172 0)"/>
      <use xlink:href="#DejaVuSans-67" transform="translate(416.455078 0)"/>
      <use xlink:href="#DejaVuSans-74" transform="translate(479.931641 0)"/>
      <use xlink:href="#DejaVuSans-68" transform="translate(519.140625 0)"/>
      <use xlink:href="#DejaVuSans-20" transform="translate(582.519531 0)"/>
      <use xlink:href="#DejaVuSans-5b" transform="translate(614.306641 0)"/>
      <use xlink:href="#DejaVuSans-c5" transform="translate(653.320312 0)"/>
      <use xlink:href="#DejaVuSans-5d" transform="translate(721.728516 0)"/>
     </g>
    </g>
   </g>
   <g id="matplotlib.axis_4">
    <g id="ytick_8">
     <g id="line2d_24">
      <g>
       <use xlink:href="#mc76d06a6bb" x="507.109135" y="245.861101" style="stroke: #000000; stroke-width: 0.8"/>
      </g>
     </g>
     <g id="text_26">
      <!-- 0 -->
      <g transform="translate(493.746635 249.66032) scale(0.1 -0.1)">
       <use xlink:href="#DejaVuSans-30"/>
      </g>
     </g>
    </g>
    <g id="ytick_9">
     <g id="line2d_25">
      <g>
       <use xlink:href="#mc76d06a6bb" x="507.109135" y="203.211822" style="stroke: #000000; stroke-width: 0.8"/>
      </g>
     </g>
     <g id="text_27">
      <!-- 2000 -->
      <g transform="translate(474.659135 207.011041) scale(0.1 -0.1)">
       <use xlink:href="#DejaVuSans-32"/>
       <use xlink:href="#DejaVuSans-30" transform="translate(63.623047 0)"/>
       <use xlink:href="#DejaVuSans-30" transform="translate(127.246094 0)"/>
       <use xlink:href="#DejaVuSans-30" transform="translate(190.869141 0)"/>
      </g>
     </g>
    </g>
    <g id="ytick_10">
     <g id="line2d_26">
      <g>
       <use xlink:href="#mc76d06a6bb" x="507.109135" y="160.562543" style="stroke: #000000; stroke-width: 0.8"/>
      </g>
     </g>
     <g id="text_28">
      <!-- 4000 -->
      <g transform="translate(474.659135 164.361761) scale(0.1 -0.1)">
       <use xlink:href="#DejaVuSans-34"/>
       <use xlink:href="#DejaVuSans-30" transform="translate(63.623047 0)"/>
       <use xlink:href="#DejaVuSans-30" transform="translate(127.246094 0)"/>
       <use xlink:href="#DejaVuSans-30" transform="translate(190.869141 0)"/>
      </g>
     </g>
    </g>
    <g id="ytick_11">
     <g id="line2d_27">
      <g>
       <use xlink:href="#mc76d06a6bb" x="507.109135" y="117.913264" style="stroke: #000000; stroke-width: 0.8"/>
      </g>
     </g>
     <g id="text_29">
      <!-- 6000 -->
      <g transform="translate(474.659135 121.712482) scale(0.1 -0.1)">
       <defs>
        <path id="DejaVuSans-36" d="M 2113 2584 
Q 1688 2584 1439 2293 
Q 1191 2003 1191 1497 
Q 1191 994 1439 701 
Q 1688 409 2113 409 
Q 2538 409 2786 701 
Q 3034 994 3034 1497 
Q 3034 2003 2786 2293 
Q 2538 2584 2113 2584 
z
M 3366 4563 
L 3366 3988 
Q 3128 4100 2886 4159 
Q 2644 4219 2406 4219 
Q 1781 4219 1451 3797 
Q 1122 3375 1075 2522 
Q 1259 2794 1537 2939 
Q 1816 3084 2150 3084 
Q 2853 3084 3261 2657 
Q 3669 2231 3669 1497 
Q 3669 778 3244 343 
Q 2819 -91 2113 -91 
Q 1303 -91 875 529 
Q 447 1150 447 2328 
Q 447 3434 972 4092 
Q 1497 4750 2381 4750 
Q 2619 4750 2861 4703 
Q 3103 4656 3366 4563 
z
" transform="scale(0.015625)"/>
       </defs>
       <use xlink:href="#DejaVuSans-36"/>
       <use xlink:href="#DejaVuSans-30" transform="translate(63.623047 0)"/>
       <use xlink:href="#DejaVuSans-30" transform="translate(127.246094 0)"/>
       <use xlink:href="#DejaVuSans-30" transform="translate(190.869141 0)"/>
      </g>
     </g>
    </g>
    <g id="ytick_12">
     <g id="line2d_28">
      <g>
       <use xlink:href="#mc76d06a6bb" x="507.109135" y="75.263985" style="stroke: #000000; stroke-width: 0.8"/>
      </g>
     </g>
     <g id="text_30">
      <!-- 8000 -->
      <g transform="translate(474.659135 79.063203) scale(0.1 -0.1)">
       <defs>
        <path id="DejaVuSans-38" d="M 2034 2216 
Q 1584 2216 1326 1975 
Q 1069 1734 1069 1313 
Q 1069 891 1326 650 
Q 1584 409 2034 409 
Q 2484 409 2743 651 
Q 3003 894 3003 1313 
Q 3003 1734 2745 1975 
Q 2488 2216 2034 2216 
z
M 1403 2484 
Q 997 2584 770 2862 
Q 544 3141 544 3541 
Q 544 4100 942 4425 
Q 1341 4750 2034 4750 
Q 2731 4750 3128 4425 
Q 3525 4100 3525 3541 
Q 3525 3141 3298 2862 
Q 3072 2584 2669 2484 
Q 3125 2378 3379 2068 
Q 3634 1759 3634 1313 
Q 3634 634 3220 271 
Q 2806 -91 2034 -91 
Q 1263 -91 848 271 
Q 434 634 434 1313 
Q 434 1759 690 2068 
Q 947 2378 1403 2484 
z
M 1172 3481 
Q 1172 3119 1398 2916 
Q 1625 2713 2034 2713 
Q 2441 2713 2670 2916 
Q 2900 3119 2900 3481 
Q 2900 3844 2670 4047 
Q 2441 4250 2034 4250 
Q 1625 4250 1398 4047 
Q 1172 3844 1172 3481 
z
" transform="scale(0.015625)"/>
       </defs>
       <use xlink:href="#DejaVuSans-38"/>
       <use xlink:href="#DejaVuSans-30" transform="translate(63.623047 0)"/>
       <use xlink:href="#DejaVuSans-30" transform="translate(127.246094 0)"/>
       <use xlink:href="#DejaVuSans-30" transform="translate(190.869141 0)"/>
      </g>
     </g>
    </g>
    <g id="ytick_13">
     <g id="line2d_29">
      <g>
       <use xlink:href="#mc76d06a6bb" x="507.109135" y="32.614705" style="stroke: #000000; stroke-width: 0.8"/>
      </g>
     </g>
     <g id="text_31">
      <!-- 10000 -->
      <g transform="translate(468.296635 36.413924) scale(0.1 -0.1)">
       <use xlink:href="#DejaVuSans-31"/>
       <use xlink:href="#DejaVuSans-30" transform="translate(63.623047 0)"/>
       <use xlink:href="#DejaVuSans-30" transform="translate(127.246094 0)"/>
       <use xlink:href="#DejaVuSans-30" transform="translate(190.869141 0)"/>
       <use xlink:href="#DejaVuSans-30" transform="translate(254.492188 0)"/>
      </g>
     </g>
    </g>
    <g id="text_32">
     <!-- pulse:0 [counts] -->
     <g transform="translate(462.216947 172.659916) rotate(-90) scale(0.1 -0.1)">
      <use xlink:href="#DejaVuSans-70"/>
      <use xlink:href="#DejaVuSans-75" transform="translate(63.476562 0)"/>
      <use xlink:href="#DejaVuSans-6c" transform="translate(126.855469 0)"/>
      <use xlink:href="#DejaVuSans-73" transform="translate(154.638672 0)"/>
      <use xlink:href="#DejaVuSans-65" transform="translate(206.738281 0)"/>
      <use xlink:href="#DejaVuSans-3a" transform="translate(268.261719 0)"/>
      <use xlink:href="#DejaVuSans-30" transform="translate(301.953125 0)"/>
      <use xlink:href="#DejaVuSans-20" transform="translate(365.576172 0)"/>
      <use xlink:href="#DejaVuSans-5b" transform="translate(397.363281 0)"/>
      <use xlink:href="#DejaVuSans-63" transform="translate(436.376953 0)"/>
      <use xlink:href="#DejaVuSans-6f" transform="translate(491.357422 0)"/>
      <use xlink:href="#DejaVuSans-75" transform="translate(552.539062 0)"/>
      <use xlink:href="#DejaVuSans-6e" transform="translate(615.917969 0)"/>
      <use xlink:href="#DejaVuSans-74" transform="translate(679.296875 0)"/>
      <use xlink:href="#DejaVuSans-73" transform="translate(718.505859 0)"/>
      <use xlink:href="#DejaVuSans-5d" transform="translate(770.605469 0)"/>
     </g>
    </g>
   </g>
   <g id="line2d_30">
    <path d="M 523.385971 158.984519 
L 524.471093 158.984519 
L 524.471093 148.023655 
L 525.556215 148.023655 
L 525.556215 139.984266 
L 526.641338 139.984266 
L 526.641338 139.216579 
L 527.72646 139.216579 
L 527.72646 146.509605 
L 528.811583 146.509605 
L 528.811583 148.130278 
L 529.896705 148.130278 
L 529.896705 142.884417 
L 530.981827 142.884417 
L 530.981827 124.65185 
L 532.06695 124.65185 
L 532.06695 102.474225 
L 533.152072 102.474225 
L 533.152072 78.270759 
L 534.237194 78.270759 
L 534.237194 59.121232 
L 535.322317 59.121232 
L 535.322317 36.154596 
L 536.407439 36.154596 
L 536.407439 22.144307 
L 537.492562 22.144307 
L 537.492562 18.561768 
L 538.577684 18.561768 
L 538.577684 20.161116 
L 539.662806 20.161116 
L 539.662806 19.542701 
L 540.747929 19.542701 
L 540.747929 29.629256 
L 541.833051 29.629256 
L 541.833051 36.538439 
L 542.918173 36.538439 
L 542.918173 44.44988 
L 544.003296 44.44988 
L 544.003296 58.886661 
L 545.088418 58.886661 
L 545.088418 66.947375 
L 546.173541 66.947375 
L 546.173541 72.705028 
L 547.258663 72.705028 
L 547.258663 81.320182 
L 548.343785 81.320182 
L 548.343785 87.994794 
L 549.428908 87.994794 
L 549.428908 88.357313 
L 550.51403 88.357313 
L 550.51403 93.219331 
L 551.599153 93.219331 
L 551.599153 93.517876 
L 552.684275 93.517876 
L 552.684275 91.683957 
L 553.769397 91.683957 
L 553.769397 91.406737 
L 554.85452 91.406737 
L 554.85452 82.087869 
L 555.939642 82.087869 
L 555.939642 78.953147 
L 557.024764 78.953147 
L 557.024764 71.916016 
L 558.109887 71.916016 
L 558.109887 57.351287 
L 559.195009 57.351287 
L 559.195009 47.989771 
L 560.280132 47.989771 
L 560.280132 43.426298 
L 561.365254 43.426298 
L 561.365254 29.586607 
L 562.450376 29.586607 
L 562.450376 33.808885 
L 563.535499 33.808885 
L 563.535499 43.29835 
L 564.620621 43.29835 
L 564.620621 49.098652 
L 565.705743 49.098652 
L 565.705743 57.265989 
L 566.790866 57.265989 
L 566.790866 70.18872 
L 567.875988 70.18872 
L 567.875988 76.735385 
L 568.961111 76.735385 
L 568.961111 82.834232 
L 570.046233 82.834232 
L 570.046233 95.991534 
L 571.131355 95.991534 
L 571.131355 101.834485 
L 572.216478 101.834485 
L 572.216478 111.32395 
L 573.3016 111.32395 
L 573.3016 118.297107 
L 574.386722 118.297107 
L 574.386722 123.990786 
L 575.471845 123.990786 
L 575.471845 130.85732 
L 576.556967 130.85732 
L 576.556967 137.233387 
L 577.64209 137.233387 
L 577.64209 138.278294 
L 578.727212 138.278294 
L 578.727212 146.701527 
L 579.812334 146.701527 
L 579.812334 153.248191 
L 580.897457 153.248191 
L 580.897457 154.548994 
L 581.982579 154.548994 
L 581.982579 158.600676 
L 583.067702 158.600676 
L 583.067702 163.206798 
L 584.152824 163.206798 
L 584.152824 167.599674 
L 585.237946 167.599674 
L 585.237946 171.416784 
L 586.323069 171.416784 
L 586.323069 177.387683 
L 587.408191 177.387683 
L 587.408191 177.195762 
L 588.493313 177.195762 
L 588.493313 182.01513 
L 589.578436 182.01513 
L 589.578436 185.192501 
L 590.663558 185.192501 
L 590.663558 188.092652 
L 591.748681 188.092652 
L 591.748681 191.291348 
L 592.833803 191.291348 
L 592.833803 194.980511 
L 593.918925 194.980511 
L 593.918925 194.383421 
L 595.004048 194.383421 
L 595.004048 195.918795 
L 596.08917 195.918795 
L 596.08917 200.844787 
L 597.174292 200.844787 
L 597.174292 201.164656 
L 598.259415 201.164656 
L 598.259415 201.996317 
L 599.344537 201.996317 
L 599.344537 205.514883 
L 600.42966 205.514883 
L 600.42966 207.455425 
L 601.514782 207.455425 
L 601.514782 210.057031 
L 602.599904 210.057031 
L 602.599904 212.018898 
L 603.685027 212.018898 
L 603.685027 212.935857 
L 604.770149 212.935857 
L 604.770149 214.492556 
L 605.855271 214.492556 
L 605.855271 216.02793 
L 606.940394 216.02793 
L 606.940394 216.667669 
L 608.025516 216.667669 
L 608.025516 217.989797 
L 610.195761 217.925823 
L 610.195761 219.503846 
L 611.280883 219.503846 
L 611.280883 219.909015 
L 612.366006 219.909015 
L 612.366006 223.470229 
L 613.451128 223.470229 
L 613.451128 224.365864 
L 614.53625 224.365864 
L 614.53625 222.87314 
L 615.621373 222.87314 
L 615.621373 224.323215 
L 616.706495 224.323215 
L 616.706495 226.796873 
L 617.791618 226.796873 
L 617.791618 227.308665 
L 618.87674 227.308665 
L 618.87674 228.246949 
L 619.961862 228.246949 
L 619.961862 227.863105 
L 621.046985 227.863105 
L 621.046985 228.332247 
L 622.132107 228.332247 
L 622.132107 230.613984 
L 623.21723 230.613984 
L 623.21723 229.057285 
L 624.302352 229.057285 
L 624.302352 230.635308 
L 625.387474 230.635308 
L 625.387474 231.530943 
L 626.472597 231.530943 
L 626.472597 232.426578 
L 627.557719 232.426578 
L 627.557719 231.530943 
L 628.642841 231.530943 
L 628.642841 231.829488 
L 629.727964 231.829488 
L 629.727964 233.535459 
L 630.813086 233.535459 
L 630.813086 233.151616 
L 631.898209 233.151616 
L 631.898209 234.431094 
L 632.983331 234.431094 
L 632.983331 234.281822 
L 634.068453 234.281822 
L 634.068453 234.900236 
L 635.153576 234.900236 
L 635.153576 235.710573 
L 638.408943 235.731897 
L 638.408943 236.648857 
L 640.579188 236.627532 
L 640.579188 237.075349 
L 641.66431 237.075349 
L 641.66431 237.35257 
L 642.749432 237.35257 
L 642.749432 236.584883 
L 643.834555 236.584883 
L 643.834555 238.013634 
L 644.919677 238.013634 
L 644.919677 237.800387 
L 646.004799 237.800387 
L 646.004799 239.122515 
L 647.089922 239.122515 
L 647.089922 239.335761 
L 650.345289 239.229138 
L 650.345289 239.549008 
L 653.600656 239.527683 
L 653.600656 240.060799 
L 654.685779 240.060799 
L 654.685779 240.29537 
L 656.856023 240.401993 
L 656.856023 240.57259 
L 657.941146 240.57259 
L 657.941146 241.21233 
L 659.026268 241.21233 
L 659.026268 240.807161 
L 660.11139 240.807161 
L 660.11139 240.551266 
L 661.196513 240.551266 
L 661.196513 241.148356 
L 662.281635 241.148356 
L 662.281635 240.977759 
L 663.366758 240.977759 
L 663.366758 241.21233 
L 664.45188 241.21233 
L 664.45188 240.849811 
L 665.537002 240.849811 
L 665.537002 241.318953 
L 667.707247 241.382927 
L 667.707247 241.76677 
L 668.792369 241.76677 
L 668.792369 241.958692 
L 669.877492 241.958692 
L 669.877492 241.660147 
L 670.962614 241.660147 
L 670.962614 242.534457 
L 672.047737 242.534457 
L 672.047737 242.08664 
L 673.132859 242.08664 
L 673.132859 242.235912 
L 674.217981 242.235912 
L 674.217981 242.68373 
L 675.303104 242.68373 
L 675.303104 242.470483 
L 676.388226 242.470483 
L 676.388226 242.811678 
L 678.558471 242.854327 
L 678.558471 242.342535 
L 679.643593 242.342535 
L 679.643593 243.664663 
L 680.728716 243.664663 
L 680.728716 242.896976 
L 681.813838 242.896976 
L 681.813838 243.302144 
L 682.89896 243.302144 
L 682.89896 243.55804 
L 683.984083 243.55804 
L 683.984083 243.323469 
L 685.069205 243.323469 
L 685.069205 243.088898 
L 687.23945 242.982275 
L 687.23945 243.579365 
L 690.494817 243.494066 
L 690.494817 243.813936 
L 691.579939 243.813936 
L 691.579939 243.941883 
L 692.665062 243.941883 
L 692.665062 243.536715 
L 694.835307 243.536715 
L 694.835307 243.728637 
L 697.005551 243.622014 
L 697.005551 243.984533 
L 701.346041 244.027182 
L 701.346041 244.133805 
L 702.431163 244.133805 
L 702.431163 244.261753 
L 703.516286 244.261753 
L 703.516286 244.70957 
L 704.601408 244.70957 
L 704.601408 244.240428 
L 706.771653 244.219104 
L 706.771653 244.112481 
L 708.941897 244.15513 
L 708.941897 244.496324 
L 712.197265 244.389701 
L 712.197265 244.325727 
L 713.282387 244.325727 
L 713.282387 244.560298 
L 714.367509 244.560298 
L 714.367509 244.794869 
L 716.537754 244.70957 
L 716.537754 244.602947 
L 719.793121 244.560298 
L 719.793121 244.730895 
L 720.878244 244.730895 
L 720.878244 245.02944 
L 721.963366 245.02944 
L 721.963366 244.773544 
L 723.048488 244.773544 
L 723.048488 244.645597 
L 724.133611 244.645597 
L 724.133611 244.944141 
L 727.388978 244.944141 
L 727.388978 244.773544 
L 728.4741 244.773544 
L 728.4741 244.602947 
L 729.559223 244.602947 
L 729.559223 245.02944 
L 731.729467 244.944141 
L 731.729467 244.794869 
L 733.899712 244.816194 
L 733.899712 244.986791 
L 737.155079 245.072089 
L 737.155079 244.858843 
L 738.240202 244.858843 
L 738.240202 245.114739 
L 739.325324 245.114739 
L 739.325324 245.370634 
L 740.410446 245.370634 
L 740.410446 245.200037 
L 745.836058 245.114739 
L 745.836058 245.370634 
L 749.091425 245.264011 
L 749.091425 245.136063 
L 751.26167 245.242686 
L 751.26167 245.30666 
L 753.431915 245.264011 
L 753.431915 245.434608 
L 754.517037 245.434608 
L 754.517037 245.178712 
L 756.687282 245.200037 
L 756.687282 245.541231 
L 757.772404 245.541231 
L 757.772404 245.391959 
L 761.027772 245.391959 
L 761.027772 245.242686 
L 766.453384 245.34931 
L 766.453384 245.455933 
L 769.708751 245.455933 
L 769.708751 245.264011 
L 771.878995 245.157388 
L 771.878995 245.455933 
L 775.134363 245.519907 
L 775.134363 245.62653 
L 779.474852 245.541231 
L 779.474852 245.413284 
L 780.559974 245.413284 
L 780.559974 245.541231 
L 797.921933 245.562556 
L 797.921933 245.690504 
L 818.539258 245.647855 
L 818.539258 245.541231 
L 819.62438 245.541231 
L 819.62438 245.711828 
L 848.922684 245.797127 
L 848.922684 245.797127 
" clip-path="url(#p22def2ec2b)" style="fill: none; stroke: #1f77b4; stroke-width: 1.5; stroke-linecap: square"/>
   </g>
   <g id="patch_8">
    <path d="M 507.109135 257.158895 
L 507.109135 7.2 
" style="fill: none; stroke: #000000; stroke-width: 0.8; stroke-linejoin: miter; stroke-linecap: square"/>
   </g>
   <g id="patch_9">
    <path d="M 865.19952 257.158895 
L 865.19952 7.2 
" style="fill: none; stroke: #000000; stroke-width: 0.8; stroke-linejoin: miter; stroke-linecap: square"/>
   </g>
   <g id="patch_10">
    <path d="M 507.109135 257.158895 
L 865.19952 257.158895 
" style="fill: none; stroke: #000000; stroke-width: 0.8; stroke-linejoin: miter; stroke-linecap: square"/>
   </g>
   <g id="patch_11">
    <path d="M 507.109135 7.2 
L 865.19952 7.2 
" style="fill: none; stroke: #000000; stroke-width: 0.8; stroke-linejoin: miter; stroke-linecap: square"/>
   </g>
  </g>
 </g>
 <defs>
  <clipPath id="pbf55b8b20a">
   <rect x="53.328125" y="7.2" width="358.090385" height="249.958895"/>
  </clipPath>
  <clipPath id="p22def2ec2b">
   <rect x="507.109135" y="7.2" width="358.090385" height="249.958895"/>
  </clipPath>
 </defs>
</svg>
