<?xml version="1.0" encoding="utf-8" standalone="no"?>
<!DOCTYPE svg PUBLIC "-//W3C//DTD SVG 1.1//EN"
  "http://www.w3.org/Graphics/SVG/1.1/DTD/svg11.dtd">
<svg xmlns:xlink="http://www.w3.org/1999/xlink" width="388.965625pt" height="268.200625pt" viewBox="0 0 388.965625 268.200625" xmlns="http://www.w3.org/2000/svg" version="1.1">
 <metadata>
  <rdf:RDF xmlns:dc="http://purl.org/dc/elements/1.1/" xmlns:cc="http://creativecommons.org/ns#" xmlns:rdf="http://www.w3.org/1999/02/22-rdf-syntax-ns#">
   <cc:Work>
    <dc:type rdf:resource="http://purl.org/dc/dcmitype/StillImage"/>
    <dc:date>2025-11-19T10:11:36.489996</dc:date>
    <dc:format>image/svg+xml</dc:format>
    <dc:creator>
     <cc:Agent>
      <dc:title>Matplotlib v3.10.7, https://matplotlib.org/</dc:title>
     </cc:Agent>
    </dc:creator>
   </cc:Work>
  </rdf:RDF>
 </metadata>
 <defs>
  <style type="text/css">*{stroke-linejoin: round; stroke-linecap: butt}</style>
 </defs>
 <g id="figure_1">
  <g id="patch_1">
   <path d="M 0 268.200625 
L 388.965625 268.200625 
L 388.965625 0 
L 0 0 
z
" style="fill: #ffffff"/>
  </g>
  <g id="axes_1">
   <g id="patch_2">
    <path d="M 46.965625 228.96 
L 381.765625 228.96 
L 381.765625 7.2 
L 46.965625 7.2 
z
" style="fill: #ffffff"/>
   </g>
   <g id="matplotlib.axis_1">
    <g id="xtick_1">
     <g id="line2d_1">
      <defs>
       <path id="m7fa38f9bac" d="M 0 0 
L 0 3.5 
" style="stroke: #000000; stroke-width: 0.8"/>
      </defs>
      <g>
       <use xlink:href="#m7fa38f9bac" x="61.681366" y="228.96" style="stroke: #000000; stroke-width: 0.8"/>
      </g>
     </g>
     <g id="text_1">
      <!-- 2 -->
      <g transform="translate(58.500116 243.558437) scale(0.1 -0.1)">
       <defs>
        <path id="DejaVuSans-32" d="M 1228 531 
L 3431 531 
L 3431 0 
L 469 0 
L 469 531 
Q 828 903 1448 1529 
Q 2069 2156 2228 2338 
Q 2531 2678 2651 2914 
Q 2772 3150 2772 3378 
Q 2772 3750 2511 3984 
Q 2250 4219 1831 4219 
Q 1534 4219 1204 4116 
Q 875 4013 500 3803 
L 500 4441 
Q 881 4594 1212 4672 
Q 1544 4750 1819 4750 
Q 2544 4750 2975 4387 
Q 3406 4025 3406 3419 
Q 3406 3131 3298 2873 
Q 3191 2616 2906 2266 
Q 2828 2175 2409 1742 
Q 1991 1309 1228 531 
z
" transform="scale(0.015625)"/>
       </defs>
       <use xlink:href="#DejaVuSans-32"/>
      </g>
     </g>
    </g>
    <g id="xtick_2">
     <g id="line2d_2">
      <g>
       <use xlink:href="#m7fa38f9bac" x="102.417132" y="228.96" style="stroke: #000000; stroke-width: 0.8"/>
      </g>
     </g>
     <g id="text_2">
      <!-- 3 -->
      <g transform="translate(99.235882 243.558437) scale(0.1 -0.1)">
       <defs>
        <path id="DejaVuSans-33" d="M 2597 2516 
Q 3050 2419 3304 2112 
Q 3559 1806 3559 1356 
Q 3559 666 3084 287 
Q 2609 -91 1734 -91 
Q 1441 -91 1130 -33 
Q 819 25 488 141 
L 488 750 
Q 750 597 1062 519 
Q 1375 441 1716 441 
Q 2309 441 2620 675 
Q 2931 909 2931 1356 
Q 2931 1769 2642 2001 
Q 2353 2234 1838 2234 
L 1294 2234 
L 1294 2753 
L 1863 2753 
Q 2328 2753 2575 2939 
Q 2822 3125 2822 3475 
Q 2822 3834 2567 4026 
Q 2313 4219 1838 4219 
Q 1578 4219 1281 4162 
Q 984 4106 628 3988 
L 628 4550 
Q 988 4650 1302 4700 
Q 1616 4750 1894 4750 
Q 2613 4750 3031 4423 
Q 3450 4097 3450 3541 
Q 3450 3153 3228 2886 
Q 3006 2619 2597 2516 
z
" transform="scale(0.015625)"/>
       </defs>
       <use xlink:href="#DejaVuSans-33"/>
      </g>
     </g>
    </g>
    <g id="xtick_3">
     <g id="line2d_3">
      <g>
       <use xlink:href="#m7fa38f9bac" x="143.152898" y="228.96" style="stroke: #000000; stroke-width: 0.8"/>
      </g>
     </g>
     <g id="text_3">
      <!-- 4 -->
      <g transform="translate(139.971648 243.558437) scale(0.1 -0.1)">
       <defs>
        <path id="DejaVuSans-34" d="M 2419 4116 
L 825 1625 
L 2419 1625 
L 2419 4116 
z
M 2253 4666 
L 3047 4666 
L 3047 1625 
L 3713 1625 
L 3713 1100 
L 3047 1100 
L 3047 0 
L 2419 0 
L 2419 1100 
L 313 1100 
L 313 1709 
L 2253 4666 
z
" transform="scale(0.015625)"/>
       </defs>
       <use xlink:href="#DejaVuSans-34"/>
      </g>
     </g>
    </g>
    <g id="xtick_4">
     <g id="line2d_4">
      <g>
       <use xlink:href="#m7fa38f9bac" x="183.888663" y="228.96" style="stroke: #000000; stroke-width: 0.8"/>
      </g>
     </g>
     <g id="text_4">
      <!-- 5 -->
      <g transform="translate(180.707413 243.558437) scale(0.1 -0.1)">
       <defs>
        <path id="DejaVuSans-35" d="M 691 4666 
L 3169 4666 
L 3169 4134 
L 1269 4134 
L 1269 2991 
Q 1406 3038 1543 3061 
Q 1681 3084 1819 3084 
Q 2600 3084 3056 2656 
Q 3513 2228 3513 1497 
Q 3513 744 3044 326 
Q 2575 -91 1722 -91 
Q 1428 -91 1123 -41 
Q 819 9 494 109 
L 494 744 
Q 775 591 1075 516 
Q 1375 441 1709 441 
Q 2250 441 2565 725 
Q 2881 1009 2881 1497 
Q 2881 1984 2565 2268 
Q 2250 2553 1709 2553 
Q 1456 2553 1204 2497 
Q 953 2441 691 2322 
L 691 4666 
z
" transform="scale(0.015625)"/>
       </defs>
       <use xlink:href="#DejaVuSans-35"/>
      </g>
     </g>
    </g>
    <g id="xtick_5">
     <g id="line2d_5">
      <g>
       <use xlink:href="#m7fa38f9bac" x="224.624429" y="228.96" style="stroke: #000000; stroke-width: 0.8"/>
      </g>
     </g>
     <g id="text_5">
      <!-- 6 -->
      <g transform="translate(221.443179 243.558437) scale(0.1 -0.1)">
       <defs>
        <path id="DejaVuSans-36" d="M 2113 2584 
Q 1688 2584 1439 2293 
Q 1191 2003 1191 1497 
Q 1191 994 1439 701 
Q 1688 409 2113 409 
Q 2538 409 2786 701 
Q 3034 994 3034 1497 
Q 3034 2003 2786 2293 
Q 2538 2584 2113 2584 
z
M 3366 4563 
L 3366 3988 
Q 3128 4100 2886 4159 
Q 2644 4219 2406 4219 
Q 1781 4219 1451 3797 
Q 1122 3375 1075 2522 
Q 1259 2794 1537 2939 
Q 1816 3084 2150 3084 
Q 2853 3084 3261 2657 
Q 3669 2231 3669 1497 
Q 3669 778 3244 343 
Q 2819 -91 2113 -91 
Q 1303 -91 875 529 
Q 447 1150 447 2328 
Q 447 3434 972 4092 
Q 1497 4750 2381 4750 
Q 2619 4750 2861 4703 
Q 3103 4656 3366 4563 
z
" transform="scale(0.015625)"/>
       </defs>
       <use xlink:href="#DejaVuSans-36"/>
      </g>
     </g>
    </g>
    <g id="xtick_6">
     <g id="line2d_6">
      <g>
       <use xlink:href="#m7fa38f9bac" x="265.360194" y="228.96" style="stroke: #000000; stroke-width: 0.8"/>
      </g>
     </g>
     <g id="text_6">
      <!-- 7 -->
      <g transform="translate(262.178944 243.558437) scale(0.1 -0.1)">
       <defs>
        <path id="DejaVuSans-37" d="M 525 4666 
L 3525 4666 
L 3525 4397 
L 1831 0 
L 1172 0 
L 2766 4134 
L 525 4134 
L 525 4666 
z
" transform="scale(0.015625)"/>
       </defs>
       <use xlink:href="#DejaVuSans-37"/>
      </g>
     </g>
    </g>
    <g id="xtick_7">
     <g id="line2d_7">
      <g>
       <use xlink:href="#m7fa38f9bac" x="306.09596" y="228.96" style="stroke: #000000; stroke-width: 0.8"/>
      </g>
     </g>
     <g id="text_7">
      <!-- 8 -->
      <g transform="translate(302.91471 243.558437) scale(0.1 -0.1)">
       <defs>
        <path id="DejaVuSans-38" d="M 2034 2216 
Q 1584 2216 1326 1975 
Q 1069 1734 1069 1313 
Q 1069 891 1326 650 
Q 1584 409 2034 409 
Q 2484 409 2743 651 
Q 3003 894 3003 1313 
Q 3003 1734 2745 1975 
Q 2488 2216 2034 2216 
z
M 1403 2484 
Q 997 2584 770 2862 
Q 544 3141 544 3541 
Q 544 4100 942 4425 
Q 1341 4750 2034 4750 
Q 2731 4750 3128 4425 
Q 3525 4100 3525 3541 
Q 3525 3141 3298 2862 
Q 3072 2584 2669 2484 
Q 3125 2378 3379 2068 
Q 3634 1759 3634 1313 
Q 3634 634 3220 271 
Q 2806 -91 2034 -91 
Q 1263 -91 848 271 
Q 434 634 434 1313 
Q 434 1759 690 2068 
Q 947 2378 1403 2484 
z
M 1172 3481 
Q 1172 3119 1398 2916 
Q 1625 2713 2034 2713 
Q 2441 2713 2670 2916 
Q 2900 3119 2900 3481 
Q 2900 3844 2670 4047 
Q 2441 4250 2034 4250 
Q 1625 4250 1398 4047 
Q 1172 3844 1172 3481 
z
" transform="scale(0.015625)"/>
       </defs>
       <use xlink:href="#DejaVuSans-38"/>
      </g>
     </g>
    </g>
    <g id="xtick_8">
     <g id="line2d_8">
      <g>
       <use xlink:href="#m7fa38f9bac" x="346.831726" y="228.96" style="stroke: #000000; stroke-width: 0.8"/>
      </g>
     </g>
     <g id="text_8">
      <!-- 9 -->
      <g transform="translate(343.650476 243.558437) scale(0.1 -0.1)">
       <defs>
        <path id="DejaVuSans-39" d="M 703 97 
L 703 672 
Q 941 559 1184 500 
Q 1428 441 1663 441 
Q 2288 441 2617 861 
Q 2947 1281 2994 2138 
Q 2813 1869 2534 1725 
Q 2256 1581 1919 1581 
Q 1219 1581 811 2004 
Q 403 2428 403 3163 
Q 403 3881 828 4315 
Q 1253 4750 1959 4750 
Q 2769 4750 3195 4129 
Q 3622 3509 3622 2328 
Q 3622 1225 3098 567 
Q 2575 -91 1691 -91 
Q 1453 -91 1209 -44 
Q 966 3 703 97 
z
M 1959 2075 
Q 2384 2075 2632 2365 
Q 2881 2656 2881 3163 
Q 2881 3666 2632 3958 
Q 2384 4250 1959 4250 
Q 1534 4250 1286 3958 
Q 1038 3666 1038 3163 
Q 1038 2656 1286 2365 
Q 1534 2075 1959 2075 
z
" transform="scale(0.015625)"/>
       </defs>
       <use xlink:href="#DejaVuSans-39"/>
      </g>
     </g>
    </g>
    <g id="text_9">
     <!-- wavelength [Å] -->
     <g transform="translate(176.328125 258.920937) scale(0.1 -0.1)">
      <defs>
       <path id="DejaVuSans-77" d="M 269 3500 
L 844 3500 
L 1563 769 
L 2278 3500 
L 2956 3500 
L 3675 769 
L 4391 3500 
L 4966 3500 
L 4050 0 
L 3372 0 
L 2619 2869 
L 1863 0 
L 1184 0 
L 269 3500 
z
" transform="scale(0.015625)"/>
       <path id="DejaVuSans-61" d="M 2194 1759 
Q 1497 1759 1228 1600 
Q 959 1441 959 1056 
Q 959 750 1161 570 
Q 1363 391 1709 391 
Q 2188 391 2477 730 
Q 2766 1069 2766 1631 
L 2766 1759 
L 2194 1759 
z
M 3341 1997 
L 3341 0 
L 2766 0 
L 2766 531 
Q 2569 213 2275 61 
Q 1981 -91 1556 -91 
Q 1019 -91 701 211 
Q 384 513 384 1019 
Q 384 1609 779 1909 
Q 1175 2209 1959 2209 
L 2766 2209 
L 2766 2266 
Q 2766 2663 2505 2880 
Q 2244 3097 1772 3097 
Q 1472 3097 1187 3025 
Q 903 2953 641 2809 
L 641 3341 
Q 956 3463 1253 3523 
Q 1550 3584 1831 3584 
Q 2591 3584 2966 3190 
Q 3341 2797 3341 1997 
z
" transform="scale(0.015625)"/>
       <path id="DejaVuSans-76" d="M 191 3500 
L 800 3500 
L 1894 563 
L 2988 3500 
L 3597 3500 
L 2284 0 
L 1503 0 
L 191 3500 
z
" transform="scale(0.015625)"/>
       <path id="DejaVuSans-65" d="M 3597 1894 
L 3597 1613 
L 953 1613 
Q 991 1019 1311 708 
Q 1631 397 2203 397 
Q 2534 397 2845 478 
Q 3156 559 3463 722 
L 3463 178 
Q 3153 47 2828 -22 
Q 2503 -91 2169 -91 
Q 1331 -91 842 396 
Q 353 884 353 1716 
Q 353 2575 817 3079 
Q 1281 3584 2069 3584 
Q 2775 3584 3186 3129 
Q 3597 2675 3597 1894 
z
M 3022 2063 
Q 3016 2534 2758 2815 
Q 2500 3097 2075 3097 
Q 1594 3097 1305 2825 
Q 1016 2553 972 2059 
L 3022 2063 
z
" transform="scale(0.015625)"/>
       <path id="DejaVuSans-6c" d="M 603 4863 
L 1178 4863 
L 1178 0 
L 603 0 
L 603 4863 
z
" transform="scale(0.015625)"/>
       <path id="DejaVuSans-6e" d="M 3513 2113 
L 3513 0 
L 2938 0 
L 2938 2094 
Q 2938 2591 2744 2837 
Q 2550 3084 2163 3084 
Q 1697 3084 1428 2787 
Q 1159 2491 1159 1978 
L 1159 0 
L 581 0 
L 581 3500 
L 1159 3500 
L 1159 2956 
Q 1366 3272 1645 3428 
Q 1925 3584 2291 3584 
Q 2894 3584 3203 3211 
Q 3513 2838 3513 2113 
z
" transform="scale(0.015625)"/>
       <path id="DejaVuSans-67" d="M 2906 1791 
Q 2906 2416 2648 2759 
Q 2391 3103 1925 3103 
Q 1463 3103 1205 2759 
Q 947 2416 947 1791 
Q 947 1169 1205 825 
Q 1463 481 1925 481 
Q 2391 481 2648 825 
Q 2906 1169 2906 1791 
z
M 3481 434 
Q 3481 -459 3084 -895 
Q 2688 -1331 1869 -1331 
Q 1566 -1331 1297 -1286 
Q 1028 -1241 775 -1147 
L 775 -588 
Q 1028 -725 1275 -790 
Q 1522 -856 1778 -856 
Q 2344 -856 2625 -561 
Q 2906 -266 2906 331 
L 2906 616 
Q 2728 306 2450 153 
Q 2172 0 1784 0 
Q 1141 0 747 490 
Q 353 981 353 1791 
Q 353 2603 747 3093 
Q 1141 3584 1784 3584 
Q 2172 3584 2450 3431 
Q 2728 3278 2906 2969 
L 2906 3500 
L 3481 3500 
L 3481 434 
z
" transform="scale(0.015625)"/>
       <path id="DejaVuSans-74" d="M 1172 4494 
L 1172 3500 
L 2356 3500 
L 2356 3053 
L 1172 3053 
L 1172 1153 
Q 1172 725 1289 603 
Q 1406 481 1766 481 
L 2356 481 
L 2356 0 
L 1766 0 
Q 1100 0 847 248 
Q 594 497 594 1153 
L 594 3053 
L 172 3053 
L 172 3500 
L 594 3500 
L 594 4494 
L 1172 4494 
z
" transform="scale(0.015625)"/>
       <path id="DejaVuSans-68" d="M 3513 2113 
L 3513 0 
L 2938 0 
L 2938 2094 
Q 2938 2591 2744 2837 
Q 2550 3084 2163 3084 
Q 1697 3084 1428 2787 
Q 1159 2491 1159 1978 
L 1159 0 
L 581 0 
L 581 4863 
L 1159 4863 
L 1159 2956 
Q 1366 3272 1645 3428 
Q 1925 3584 2291 3584 
Q 2894 3584 3203 3211 
Q 3513 2838 3513 2113 
z
" transform="scale(0.015625)"/>
       <path id="DejaVuSans-20" transform="scale(0.015625)"/>
       <path id="DejaVuSans-5b" d="M 550 4863 
L 1875 4863 
L 1875 4416 
L 1125 4416 
L 1125 -397 
L 1875 -397 
L 1875 -844 
L 550 -844 
L 550 4863 
z
" transform="scale(0.015625)"/>
       <path id="DejaVuSans-c5" d="M 2663 5081 
Q 2663 5278 2523 5417 
Q 2384 5556 2188 5556 
Q 1988 5556 1852 5420 
Q 1716 5284 1716 5081 
Q 1716 4884 1853 4746 
Q 1991 4609 2188 4609 
Q 2384 4609 2523 4746 
Q 2663 4884 2663 5081 
z
M 2188 4044 
L 1338 1722 
L 3041 1722 
L 2188 4044 
z
M 1716 4366 
Q 1525 4494 1428 4673 
Q 1331 4853 1331 5081 
Q 1331 5441 1579 5691 
Q 1828 5941 2188 5941 
Q 2544 5941 2795 5689 
Q 3047 5438 3047 5081 
Q 3047 4863 2948 4678 
Q 2850 4494 2663 4366 
L 4325 0 
L 3669 0 
L 3244 1197 
L 1141 1197 
L 716 0 
L 50 0 
L 1716 4366 
z
" transform="scale(0.015625)"/>
       <path id="DejaVuSans-5d" d="M 1947 4863 
L 1947 -844 
L 622 -844 
L 622 -397 
L 1369 -397 
L 1369 4416 
L 622 4416 
L 622 4863 
L 1947 4863 
z
" transform="scale(0.015625)"/>
      </defs>
      <use xlink:href="#DejaVuSans-77"/>
      <use xlink:href="#DejaVuSans-61" transform="translate(81.787109 0)"/>
      <use xlink:href="#DejaVuSans-76" transform="translate(143.066406 0)"/>
      <use xlink:href="#DejaVuSans-65" transform="translate(202.246094 0)"/>
      <use xlink:href="#DejaVuSans-6c" transform="translate(263.769531 0)"/>
      <use xlink:href="#DejaVuSans-65" transform="translate(291.552734 0)"/>
      <use xlink:href="#DejaVuSans-6e" transform="translate(353.076172 0)"/>
      <use xlink:href="#DejaVuSans-67" transform="translate(416.455078 0)"/>
      <use xlink:href="#DejaVuSans-74" transform="translate(479.931641 0)"/>
      <use xlink:href="#DejaVuSans-68" transform="translate(519.140625 0)"/>
      <use xlink:href="#DejaVuSans-20" transform="translate(582.519531 0)"/>
      <use xlink:href="#DejaVuSans-5b" transform="translate(614.306641 0)"/>
      <use xlink:href="#DejaVuSans-c5" transform="translate(653.320312 0)"/>
      <use xlink:href="#DejaVuSans-5d" transform="translate(721.728516 0)"/>
     </g>
    </g>
   </g>
   <g id="matplotlib.axis_2">
    <g id="ytick_1">
     <g id="line2d_9">
      <defs>
       <path id="m1d2d9018de" d="M 0 0 
L -3.5 0 
" style="stroke: #000000; stroke-width: 0.8"/>
      </defs>
      <g>
       <use xlink:href="#m1d2d9018de" x="46.965625" y="218.88" style="stroke: #000000; stroke-width: 0.8"/>
      </g>
     </g>
     <g id="text_10">
      <!-- 0 -->
      <g transform="translate(33.603125 222.679219) scale(0.1 -0.1)">
       <defs>
        <path id="DejaVuSans-30" d="M 2034 4250 
Q 1547 4250 1301 3770 
Q 1056 3291 1056 2328 
Q 1056 1369 1301 889 
Q 1547 409 2034 409 
Q 2525 409 2770 889 
Q 3016 1369 3016 2328 
Q 3016 3291 2770 3770 
Q 2525 4250 2034 4250 
z
M 2034 4750 
Q 2819 4750 3233 4129 
Q 3647 3509 3647 2328 
Q 3647 1150 3233 529 
Q 2819 -91 2034 -91 
Q 1250 -91 836 529 
Q 422 1150 422 2328 
Q 422 3509 836 4129 
Q 1250 4750 2034 4750 
z
" transform="scale(0.015625)"/>
       </defs>
       <use xlink:href="#DejaVuSans-30"/>
      </g>
     </g>
    </g>
    <g id="ytick_2">
     <g id="line2d_10">
      <g>
       <use xlink:href="#m1d2d9018de" x="46.965625" y="181.956923" style="stroke: #000000; stroke-width: 0.8"/>
      </g>
     </g>
     <g id="text_11">
      <!-- 100 -->
      <g transform="translate(20.878125 185.756142) scale(0.1 -0.1)">
       <defs>
        <path id="DejaVuSans-31" d="M 794 531 
L 1825 531 
L 1825 4091 
L 703 3866 
L 703 4441 
L 1819 4666 
L 2450 4666 
L 2450 531 
L 3481 531 
L 3481 0 
L 794 0 
L 794 531 
z
" transform="scale(0.015625)"/>
       </defs>
       <use xlink:href="#DejaVuSans-31"/>
       <use xlink:href="#DejaVuSans-30" transform="translate(63.623047 0)"/>
       <use xlink:href="#DejaVuSans-30" transform="translate(127.246094 0)"/>
      </g>
     </g>
    </g>
    <g id="ytick_3">
     <g id="line2d_11">
      <g>
       <use xlink:href="#m1d2d9018de" x="46.965625" y="145.033846" style="stroke: #000000; stroke-width: 0.8"/>
      </g>
     </g>
     <g id="text_12">
      <!-- 200 -->
      <g transform="translate(20.878125 148.833065) scale(0.1 -0.1)">
       <use xlink:href="#DejaVuSans-32"/>
       <use xlink:href="#DejaVuSans-30" transform="translate(63.623047 0)"/>
       <use xlink:href="#DejaVuSans-30" transform="translate(127.246094 0)"/>
      </g>
     </g>
    </g>
    <g id="ytick_4">
     <g id="line2d_12">
      <g>
       <use xlink:href="#m1d2d9018de" x="46.965625" y="108.110769" style="stroke: #000000; stroke-width: 0.8"/>
      </g>
     </g>
     <g id="text_13">
      <!-- 300 -->
      <g transform="translate(20.878125 111.909988) scale(0.1 -0.1)">
       <use xlink:href="#DejaVuSans-33"/>
       <use xlink:href="#DejaVuSans-30" transform="translate(63.623047 0)"/>
       <use xlink:href="#DejaVuSans-30" transform="translate(127.246094 0)"/>
      </g>
     </g>
    </g>
    <g id="ytick_5">
     <g id="line2d_13">
      <g>
       <use xlink:href="#m1d2d9018de" x="46.965625" y="71.187692" style="stroke: #000000; stroke-width: 0.8"/>
      </g>
     </g>
     <g id="text_14">
      <!-- 400 -->
      <g transform="translate(20.878125 74.986911) scale(0.1 -0.1)">
       <use xlink:href="#DejaVuSans-34"/>
       <use xlink:href="#DejaVuSans-30" transform="translate(63.623047 0)"/>
       <use xlink:href="#DejaVuSans-30" transform="translate(127.246094 0)"/>
      </g>
     </g>
    </g>
    <g id="ytick_6">
     <g id="line2d_14">
      <g>
       <use xlink:href="#m1d2d9018de" x="46.965625" y="34.264615" style="stroke: #000000; stroke-width: 0.8"/>
      </g>
     </g>
     <g id="text_15">
      <!-- 500 -->
      <g transform="translate(20.878125 38.063834) scale(0.1 -0.1)">
       <use xlink:href="#DejaVuSans-35"/>
       <use xlink:href="#DejaVuSans-30" transform="translate(63.623047 0)"/>
       <use xlink:href="#DejaVuSans-30" transform="translate(127.246094 0)"/>
      </g>
     </g>
    </g>
    <g id="text_16">
     <!-- [counts] -->
     <g transform="translate(14.798438 138.6925) rotate(-90) scale(0.1 -0.1)">
      <defs>
       <path id="DejaVuSans-63" d="M 3122 3366 
L 3122 2828 
Q 2878 2963 2633 3030 
Q 2388 3097 2138 3097 
Q 1578 3097 1268 2742 
Q 959 2388 959 1747 
Q 959 1106 1268 751 
Q 1578 397 2138 397 
Q 2388 397 2633 464 
Q 2878 531 3122 666 
L 3122 134 
Q 2881 22 2623 -34 
Q 2366 -91 2075 -91 
Q 1284 -91 818 406 
Q 353 903 353 1747 
Q 353 2603 823 3093 
Q 1294 3584 2113 3584 
Q 2378 3584 2631 3529 
Q 2884 3475 3122 3366 
z
" transform="scale(0.015625)"/>
       <path id="DejaVuSans-6f" d="M 1959 3097 
Q 1497 3097 1228 2736 
Q 959 2375 959 1747 
Q 959 1119 1226 758 
Q 1494 397 1959 397 
Q 2419 397 2687 759 
Q 2956 1122 2956 1747 
Q 2956 2369 2687 2733 
Q 2419 3097 1959 3097 
z
M 1959 3584 
Q 2709 3584 3137 3096 
Q 3566 2609 3566 1747 
Q 3566 888 3137 398 
Q 2709 -91 1959 -91 
Q 1206 -91 779 398 
Q 353 888 353 1747 
Q 353 2609 779 3096 
Q 1206 3584 1959 3584 
z
" transform="scale(0.015625)"/>
       <path id="DejaVuSans-75" d="M 544 1381 
L 544 3500 
L 1119 3500 
L 1119 1403 
Q 1119 906 1312 657 
Q 1506 409 1894 409 
Q 2359 409 2629 706 
Q 2900 1003 2900 1516 
L 2900 3500 
L 3475 3500 
L 3475 0 
L 2900 0 
L 2900 538 
Q 2691 219 2414 64 
Q 2138 -91 1772 -91 
Q 1169 -91 856 284 
Q 544 659 544 1381 
z
M 1991 3584 
L 1991 3584 
z
" transform="scale(0.015625)"/>
       <path id="DejaVuSans-73" d="M 2834 3397 
L 2834 2853 
Q 2591 2978 2328 3040 
Q 2066 3103 1784 3103 
Q 1356 3103 1142 2972 
Q 928 2841 928 2578 
Q 928 2378 1081 2264 
Q 1234 2150 1697 2047 
L 1894 2003 
Q 2506 1872 2764 1633 
Q 3022 1394 3022 966 
Q 3022 478 2636 193 
Q 2250 -91 1575 -91 
Q 1294 -91 989 -36 
Q 684 19 347 128 
L 347 722 
Q 666 556 975 473 
Q 1284 391 1588 391 
Q 1994 391 2212 530 
Q 2431 669 2431 922 
Q 2431 1156 2273 1281 
Q 2116 1406 1581 1522 
L 1381 1569 
Q 847 1681 609 1914 
Q 372 2147 372 2553 
Q 372 3047 722 3315 
Q 1072 3584 1716 3584 
Q 2034 3584 2315 3537 
Q 2597 3491 2834 3397 
z
" transform="scale(0.015625)"/>
      </defs>
      <use xlink:href="#DejaVuSans-5b"/>
      <use xlink:href="#DejaVuSans-63" transform="translate(39.013672 0)"/>
      <use xlink:href="#DejaVuSans-6f" transform="translate(93.994141 0)"/>
      <use xlink:href="#DejaVuSans-75" transform="translate(155.175781 0)"/>
      <use xlink:href="#DejaVuSans-6e" transform="translate(218.554688 0)"/>
      <use xlink:href="#DejaVuSans-74" transform="translate(281.933594 0)"/>
      <use xlink:href="#DejaVuSans-73" transform="translate(321.142578 0)"/>
      <use xlink:href="#DejaVuSans-5d" transform="translate(373.242188 0)"/>
     </g>
    </g>
   </g>
   <g id="line2d_15">
    <path d="M 76.58277 188.603077 
L 77.551605 188.603077 
L 77.551605 138.756923 
L 78.520439 138.756923 
L 78.520439 106.264615 
L 79.489273 106.264615 
L 79.489273 102.203077 
L 80.458108 102.203077 
L 80.458108 91.126154 
L 81.426942 91.126154 
L 81.426942 87.803077 
L 82.395777 87.803077 
L 82.395777 74.88 
L 83.364611 74.88 
L 83.364611 90.018462 
L 84.333446 90.018462 
L 84.333446 67.864615 
L 85.30228 67.864615 
L 85.30228 58.264615 
L 86.271115 58.264615 
L 86.271115 51.249231 
L 87.239949 51.249231 
L 87.239949 49.033846 
L 88.208784 49.033846 
L 88.208784 52.726154 
L 89.177618 52.726154 
L 89.177618 48.295385 
L 90.146453 48.295385 
L 90.146453 30.203077 
L 91.115287 30.203077 
L 91.115287 37.587692 
L 92.084121 37.587692 
L 92.084121 24.664615 
L 93.052956 24.664615 
L 93.052956 27.618462 
L 94.02179 27.618462 
L 94.02179 26.88 
L 94.990625 26.88 
L 94.990625 29.464615 
L 95.959459 29.464615 
L 95.959459 30.941538 
L 96.928294 30.941538 
L 96.928294 23.556923 
L 97.897128 23.556923 
L 97.897128 17.28 
L 98.865963 17.28 
L 98.865963 25.033846 
L 99.834797 25.033846 
L 99.834797 36.110769 
L 100.803632 36.110769 
L 100.803632 42.387692 
L 101.772466 42.387692 
L 101.772466 48.664615 
L 102.741301 48.664615 
L 102.741301 51.987692 
L 103.710135 51.987692 
L 103.710135 54.572308 
L 104.678969 54.572308 
L 104.678969 62.326154 
L 105.647804 62.326154 
L 105.647804 63.064615 
L 106.616638 63.064615 
L 106.616638 77.833846 
L 107.585473 77.833846 
L 107.585473 95.556923 
L 108.554307 95.556923 
L 108.554307 98.510769 
L 109.523142 98.510769 
L 109.523142 107.003077 
L 110.491976 107.003077 
L 110.491976 124.356923 
L 111.460811 124.356923 
L 111.460811 132.48 
L 112.429645 132.48 
L 112.429645 137.649231 
L 113.39848 137.649231 
L 113.39848 139.864615 
L 114.367314 139.864615 
L 114.367314 158.326154 
L 115.336148 158.326154 
L 115.336148 169.403077 
L 116.304983 169.403077 
L 116.304983 179.372308 
L 117.273817 179.372308 
L 117.273817 187.864615 
L 118.242652 187.864615 
L 118.242652 191.187692 
L 119.211486 191.187692 
L 119.211486 199.310769 
L 120.180321 199.310769 
L 120.180321 203.741538 
L 121.149155 203.741538 
L 121.149155 214.449231 
L 122.11799 214.449231 
L 122.11799 218.510769 
L 123.086824 218.510769 
L 123.086824 218.88 
L 131.806334 218.88 
L 131.806334 200.049231 
L 132.775169 200.049231 
L 132.775169 167.187692 
L 133.744003 167.187692 
L 133.744003 129.895385 
L 134.712838 129.895385 
L 134.712838 89.649231 
L 135.681672 89.649231 
L 135.681672 93.710769 
L 136.650507 93.710769 
L 136.650507 86.695385 
L 137.619341 86.695385 
L 137.619341 87.433846 
L 138.588176 87.433846 
L 138.588176 91.495385 
L 139.55701 91.495385 
L 139.55701 92.233846 
L 140.525844 92.233846 
L 140.525844 87.064615 
L 141.494679 87.064615 
L 141.494679 99.987692 
L 142.463513 99.987692 
L 142.463513 106.633846 
L 143.432348 106.633846 
L 143.432348 99.249231 
L 144.401182 99.249231 
L 144.401182 98.510769 
L 145.370017 98.510769 
L 145.370017 97.772308 
L 146.338851 97.772308 
L 146.338851 113.649231 
L 147.307686 113.649231 
L 147.307686 108.849231 
L 148.27652 108.849231 
L 148.27652 105.526154 
L 149.245355 105.526154 
L 149.245355 99.987692 
L 150.214189 99.987692 
L 150.214189 120.664615 
L 151.183024 120.664615 
L 151.183024 116.972308 
L 152.151858 116.972308 
L 152.151858 112.910769 
L 153.120692 112.910769 
L 153.120692 108.48 
L 154.089527 108.48 
L 154.089527 109.956923 
L 155.058361 109.956923 
L 155.058361 123.618462 
L 156.027196 123.618462 
L 156.027196 116.603077 
L 156.99603 116.603077 
L 156.99603 123.618462 
L 157.964865 123.618462 
L 157.964865 128.418462 
L 158.933699 128.418462 
L 158.933699 135.064615 
L 159.902534 135.064615 
L 159.902534 126.572308 
L 160.871368 126.572308 
L 160.871368 123.618462 
L 161.840203 123.618462 
L 161.840203 134.326154 
L 162.809037 134.326154 
L 162.809037 144.295385 
L 163.777871 144.295385 
L 163.777871 139.126154 
L 164.746706 139.126154 
L 164.746706 145.033846 
L 165.71554 145.033846 
L 165.71554 143.926154 
L 166.684375 143.926154 
L 166.684375 140.972308 
L 167.653209 140.972308 
L 167.653209 139.864615 
L 168.622044 139.864615 
L 168.622044 139.126154 
L 169.590878 139.126154 
L 169.590878 142.08 
L 170.559713 142.08 
L 170.559713 149.095385 
L 171.528547 149.095385 
L 171.528547 157.218462 
L 172.497382 157.218462 
L 172.497382 169.033846 
L 173.466216 169.033846 
L 173.466216 166.08 
L 174.435051 166.08 
L 174.435051 186.387692 
L 175.403885 186.387692 
L 175.403885 181.218462 
L 176.372719 181.218462 
L 176.372719 186.018462 
L 177.341554 186.018462 
L 177.341554 195.987692 
L 178.310388 195.987692 
L 178.310388 198.203077 
L 179.279223 198.203077 
L 179.279223 205.218462 
L 180.248057 205.218462 
L 180.248057 207.433846 
L 181.216892 207.433846 
L 181.216892 214.818462 
L 182.185726 214.818462 
L 182.185726 216.295385 
L 183.154561 216.295385 
L 183.154561 218.88 
L 184.123395 218.88 
L 184.123395 213.710769 
L 185.09223 213.710769 
L 185.09223 202.264615 
L 186.061064 202.264615 
L 186.061064 192.664615 
L 187.029899 192.664615 
L 187.029899 172.356923 
L 187.998733 172.356923 
L 187.998733 160.541538 
L 188.967567 160.541538 
L 188.967567 153.156923 
L 189.936402 153.156923 
L 189.936402 151.310769 
L 190.905236 151.310769 
L 190.905236 146.88 
L 191.874071 146.88 
L 191.874071 156.849231 
L 192.842905 156.849231 
L 192.842905 149.833846 
L 193.81174 149.833846 
L 193.81174 156.849231 
L 194.780574 156.849231 
L 194.780574 163.495385 
L 195.749409 163.495385 
L 195.749409 159.433846 
L 196.718243 159.433846 
L 196.718243 163.126154 
L 197.687078 163.126154 
L 197.687078 160.541538 
L 198.655912 160.541538 
L 198.655912 162.756923 
L 199.624747 162.756923 
L 199.624747 159.064615 
L 200.593581 159.064615 
L 200.593581 166.818462 
L 201.562415 166.818462 
L 201.562415 162.756923 
L 202.53125 162.756923 
L 202.53125 163.495385 
L 203.500084 163.495385 
L 203.500084 165.710769 
L 204.468919 165.710769 
L 204.468919 162.387692 
L 205.437753 162.387692 
L 205.437753 172.726154 
L 206.406588 172.726154 
L 206.406588 169.772308 
L 207.375422 169.772308 
L 207.375422 163.864615 
L 208.344257 163.864615 
L 208.344257 169.033846 
L 209.313091 169.033846 
L 209.313091 177.156923 
L 210.281926 177.156923 
L 210.281926 177.526154 
L 211.25076 177.526154 
L 211.25076 182.695385 
L 212.219594 182.695385 
L 212.219594 185.649231 
L 213.188429 185.649231 
L 213.188429 181.218462 
L 214.157263 181.218462 
L 214.157263 180.849231 
L 215.126098 180.849231 
L 215.126098 186.387692 
L 216.094932 186.387692 
L 216.094932 191.556923 
L 217.063767 191.556923 
L 217.063767 186.756923 
L 218.032601 186.756923 
L 218.032601 187.126154 
L 219.001436 187.126154 
L 219.001436 187.495385 
L 219.97027 187.495385 
L 219.97027 196.726154 
L 220.939105 196.726154 
L 220.939105 201.526154 
L 221.907939 201.526154 
L 221.907939 204.48 
L 222.876774 204.48 
L 222.876774 199.310769 
L 223.845608 199.310769 
L 223.845608 204.849231 
L 224.814442 204.849231 
L 224.814442 207.433846 
L 225.783277 207.433846 
L 225.783277 211.126154 
L 227.720946 211.126154 
L 227.720946 215.926154 
L 228.68978 215.926154 
L 228.68978 212.603077 
L 229.658615 212.603077 
L 229.658615 218.141538 
L 230.627449 218.141538 
L 230.627449 218.88 
L 231.596284 218.88 
L 231.596284 214.08 
L 232.565118 214.08 
L 232.565118 211.495385 
L 233.533953 211.495385 
L 233.533953 203.372308 
L 234.502787 203.372308 
L 234.502787 199.310769 
L 235.471622 199.310769 
L 235.471622 186.756923 
L 236.440456 186.756923 
L 236.440456 187.495385 
L 237.40929 187.495385 
L 237.40929 179.003077 
L 238.378125 179.003077 
L 238.378125 191.556923 
L 239.346959 191.556923 
L 239.346959 184.172308 
L 240.315794 184.172308 
L 240.315794 198.572308 
L 241.284628 198.572308 
L 241.284628 193.033846 
L 242.253463 193.033846 
L 242.253463 196.726154 
L 243.222297 196.726154 
L 243.222297 196.356923 
L 244.191132 196.356923 
L 244.191132 195.987692 
L 245.159966 195.987692 
L 245.159966 193.772308 
L 246.128801 193.772308 
L 246.128801 199.310769 
L 248.06647 199.310769 
L 248.06647 200.787692 
L 249.035304 200.787692 
L 249.035304 202.633846 
L 250.004138 202.633846 
L 250.004138 203.003077 
L 250.972973 203.003077 
L 250.972973 205.218462 
L 251.941807 205.218462 
L 251.941807 207.433846 
L 252.910642 207.433846 
L 252.910642 203.003077 
L 253.879476 203.003077 
L 253.879476 203.741538 
L 254.848311 203.741538 
L 254.848311 207.064615 
L 255.817145 207.064615 
L 255.817145 209.28 
L 256.78598 209.28 
L 256.78598 207.064615 
L 257.754814 207.064615 
L 257.754814 211.126154 
L 258.723649 211.126154 
L 258.723649 210.387692 
L 259.692483 210.387692 
L 259.692483 210.018462 
L 260.661317 210.018462 
L 260.661317 210.387692 
L 261.630152 210.387692 
L 261.630152 212.603077 
L 262.598986 212.603077 
L 262.598986 210.756923 
L 263.567821 210.756923 
L 263.567821 211.126154 
L 264.536655 211.126154 
L 264.536655 213.341538 
L 265.50549 213.341538 
L 265.50549 214.449231 
L 266.474324 214.449231 
L 266.474324 214.08 
L 267.443159 214.08 
L 267.443159 214.818462 
L 268.411993 214.818462 
L 268.411993 216.295385 
L 269.380828 216.295385 
L 269.380828 217.033846 
L 271.318497 217.033846 
L 271.318497 217.772308 
L 272.287331 217.772308 
L 272.287331 218.141538 
L 273.256165 218.141538 
L 273.256165 218.510769 
L 274.225 218.510769 
L 274.225 218.88 
L 278.100338 218.88 
L 278.100338 216.295385 
L 279.069172 216.295385 
L 279.069172 212.233846 
L 280.038007 212.233846 
L 280.038007 209.28 
L 281.006841 209.28 
L 281.006841 207.064615 
L 281.975676 207.064615 
L 281.975676 205.587692 
L 282.94451 205.587692 
L 282.94451 201.156923 
L 283.913345 201.156923 
L 283.913345 208.172308 
L 285.851013 208.172308 
L 285.851013 208.910769 
L 287.788682 208.910769 
L 287.788682 208.172308 
L 288.757517 208.172308 
L 288.757517 208.541538 
L 290.695186 208.541538 
L 290.695186 207.433846 
L 292.632855 207.433846 
L 292.632855 211.126154 
L 294.570524 211.126154 
L 294.570524 211.495385 
L 295.539358 211.495385 
L 295.539358 210.018462 
L 297.477027 210.018462 
L 297.477027 213.710769 
L 298.445861 213.710769 
L 298.445861 216.295385 
L 299.414696 216.295385 
L 299.414696 211.495385 
L 300.38353 211.495385 
L 300.38353 215.187692 
L 301.352365 215.187692 
L 301.352365 212.603077 
L 302.321199 212.603077 
L 302.321199 216.295385 
L 303.290034 216.295385 
L 303.290034 217.033846 
L 304.258868 217.033846 
L 304.258868 213.710769 
L 305.227703 213.710769 
L 305.227703 214.818462 
L 306.196537 214.818462 
L 306.196537 216.295385 
L 308.134206 216.295385 
L 308.134206 215.926154 
L 309.10304 215.926154 
L 309.10304 215.187692 
L 310.071875 215.187692 
L 310.071875 217.772308 
L 311.040709 217.772308 
L 311.040709 217.033846 
L 312.009544 217.033846 
L 312.009544 217.403077 
L 312.978378 217.403077 
L 312.978378 218.510769 
L 313.947213 218.510769 
L 313.947213 218.141538 
L 315.884882 218.141538 
L 315.884882 218.510769 
L 316.853716 218.510769 
L 316.853716 218.88 
L 322.666723 218.88 
L 322.666723 218.510769 
L 323.635557 218.510769 
L 323.635557 217.772308 
L 324.604392 217.772308 
L 324.604392 211.495385 
L 325.573226 211.495385 
L 325.573226 210.387692 
L 326.542061 210.387692 
L 326.542061 209.649231 
L 327.510895 209.649231 
L 327.510895 209.28 
L 328.47973 209.28 
L 328.47973 206.326154 
L 329.448564 206.326154 
L 329.448564 204.110769 
L 331.386233 204.110769 
L 331.386233 204.849231 
L 332.355068 204.849231 
L 332.355068 204.48 
L 333.323902 204.48 
L 333.323902 203.003077 
L 335.261571 203.003077 
L 335.261571 202.633846 
L 336.230405 202.633846 
L 336.230405 204.849231 
L 337.19924 204.849231 
L 337.19924 203.372308 
L 338.168074 203.372308 
L 338.168074 206.326154 
L 339.136909 206.326154 
L 339.136909 205.587692 
L 341.074578 205.587692 
L 341.074578 202.264615 
L 342.043412 202.264615 
L 342.043412 201.895385 
L 343.012247 201.895385 
L 343.012247 203.372308 
L 343.981081 203.372308 
L 343.981081 206.695385 
L 344.949916 206.695385 
L 344.949916 205.218462 
L 345.91875 205.218462 
L 345.91875 206.326154 
L 346.887584 206.326154 
L 346.887584 204.849231 
L 347.856419 204.849231 
L 347.856419 208.910769 
L 348.825253 208.910769 
L 348.825253 207.803077 
L 349.794088 207.803077 
L 349.794088 202.633846 
L 350.762922 202.633846 
L 350.762922 207.064615 
L 351.731757 207.064615 
L 351.731757 208.910769 
L 352.700591 208.910769 
L 352.700591 205.956923 
L 353.669426 205.956923 
L 353.669426 207.803077 
L 354.63826 207.803077 
L 354.63826 210.018462 
L 355.607095 210.018462 
L 355.607095 212.603077 
L 356.575929 212.603077 
L 356.575929 208.910769 
L 357.544763 208.910769 
L 357.544763 211.864615 
L 358.513598 211.864615 
L 358.513598 210.018462 
L 359.482432 210.018462 
L 359.482432 213.341538 
L 360.451267 213.341538 
L 360.451267 212.972308 
L 361.420101 212.972308 
L 361.420101 215.187692 
L 363.35777 215.187692 
L 363.35777 212.972308 
L 364.326605 212.972308 
L 364.326605 216.664615 
L 365.295439 216.664615 
L 365.295439 217.403077 
L 366.264274 217.403077 
L 366.264274 217.772308 
L 367.233108 217.772308 
L 367.233108 217.772308 
" clip-path="url(#p8434d2ec05)" style="fill: none; stroke: #1f77b4; stroke-width: 1.5; stroke-linecap: square"/>
   </g>
   <g id="line2d_16">
    <path d="M 62.767391 194.88 
L 63.776052 194.88 
L 63.776052 174.572308 
L 64.784713 174.572308 
L 64.784713 149.833846 
L 65.793374 149.833846 
L 65.793374 121.033846 
L 66.802035 121.033846 
L 66.802035 129.895385 
L 67.810695 129.895385 
L 67.810695 114.387692 
L 68.819356 114.387692 
L 68.819356 116.233846 
L 69.828017 116.233846 
L 69.828017 107.003077 
L 70.836678 107.003077 
L 70.836678 99.618462 
L 71.845339 99.618462 
L 71.845339 112.541538 
L 72.854 112.541538 
L 72.854 86.695385 
L 73.862661 86.695385 
L 73.862661 101.095385 
L 74.871322 101.095385 
L 74.871322 97.403077 
L 75.879983 97.403077 
L 75.879983 59.741538 
L 76.888644 59.741538 
L 76.888644 88.910769 
L 77.897305 88.910769 
L 77.897305 82.633846 
L 79.914627 82.633846 
L 79.914627 75.249231 
L 80.923288 75.249231 
L 80.923288 67.495385 
L 81.931949 67.495385 
L 81.931949 59.741538 
L 82.94061 59.741538 
L 82.94061 57.895385 
L 84.957932 57.895385 
L 84.957932 65.649231 
L 85.966593 65.649231 
L 85.966593 57.526154 
L 86.975254 57.526154 
L 86.975254 67.126154 
L 87.983915 67.126154 
L 87.983915 63.433846 
L 88.992576 63.433846 
L 88.992576 58.633846 
L 90.001237 58.633846 
L 90.001237 57.526154 
L 91.009898 57.526154 
L 91.009898 65.649231 
L 92.018559 65.649231 
L 92.018559 60.110769 
L 93.02722 60.110769 
L 93.02722 74.510769 
L 94.035881 74.510769 
L 94.035881 61.587692 
L 95.044542 61.587692 
L 95.044542 86.695385 
L 96.053203 86.695385 
L 96.053203 88.172308 
L 97.061864 88.172308 
L 97.061864 67.864615 
L 98.070525 67.864615 
L 98.070525 92.233846 
L 99.079186 92.233846 
L 99.079186 94.449231 
L 100.087847 94.449231 
L 100.087847 106.633846 
L 101.096508 106.633846 
L 101.096508 102.203077 
L 102.105169 102.203077 
L 102.105169 116.603077 
L 103.11383 116.603077 
L 103.11383 118.449231 
L 104.122491 118.449231 
L 104.122491 126.203077 
L 105.131152 126.203077 
L 105.131152 131.741538 
L 106.139813 131.741538 
L 106.139813 146.141538 
L 107.148474 146.141538 
L 107.148474 148.356923 
L 108.157135 148.356923 
L 108.157135 147.618462 
L 109.165796 147.618462 
L 109.165796 157.218462 
L 110.174457 157.218462 
L 110.174457 154.633846 
L 111.183118 154.633846 
L 111.183118 163.864615 
L 112.191779 163.864615 
L 112.191779 174.941538 
L 113.20044 174.941538 
L 113.20044 179.003077 
L 114.209101 179.003077 
L 114.209101 189.341538 
L 115.217762 189.341538 
L 115.217762 191.926154 
L 116.226423 191.926154 
L 116.226423 193.033846 
L 117.235084 193.033846 
L 117.235084 180.110769 
L 118.243745 180.110769 
L 118.243745 170.88 
L 119.252406 170.88 
L 119.252406 154.633846 
L 120.261067 154.633846 
L 120.261067 152.787692 
L 121.269728 152.787692 
L 121.269728 128.049231 
L 122.278389 128.049231 
L 122.278389 113.28 
L 123.28705 113.28 
L 123.28705 114.387692 
L 124.295711 114.387692 
L 124.295711 112.910769 
L 125.304372 112.910769 
L 125.304372 107.372308 
L 126.313033 107.372308 
L 126.313033 117.341538 
L 127.321694 117.341538 
L 127.321694 110.326154 
L 128.330355 110.326154 
L 128.330355 127.68 
L 129.339016 127.68 
L 129.339016 110.695385 
L 130.347677 110.695385 
L 130.347677 122.88 
L 131.356338 122.88 
L 131.356338 125.833846 
L 132.364999 125.833846 
L 132.364999 121.403077 
L 133.373659 121.403077 
L 133.373659 123.249231 
L 134.38232 123.249231 
L 134.38232 112.541538 
L 135.390981 112.541538 
L 135.390981 123.987692 
L 136.399642 123.987692 
L 136.399642 132.110769 
L 137.408303 132.110769 
L 137.408303 145.772308 
L 138.416964 145.772308 
L 138.416964 116.233846 
L 139.425625 116.233846 
L 139.425625 121.403077 
L 140.434286 121.403077 
L 140.434286 129.895385 
L 141.442947 129.895385 
L 141.442947 129.526154 
L 142.451608 129.526154 
L 142.451608 131.741538 
L 143.460269 131.741538 
L 143.460269 135.433846 
L 144.46893 135.433846 
L 144.46893 136.172308 
L 145.477591 136.172308 
L 145.477591 131.372308 
L 146.486252 131.372308 
L 146.486252 112.172308 
L 147.494913 112.172308 
L 147.494913 159.803077 
L 148.503574 159.803077 
L 148.503574 132.110769 
L 149.512235 132.110769 
L 149.512235 125.095385 
L 150.520896 125.095385 
L 150.520896 152.049231 
L 151.529557 152.049231 
L 151.529557 125.464615 
L 152.538218 125.464615 
L 152.538218 165.341538 
L 153.546879 165.341538 
L 153.546879 129.526154 
L 154.55554 129.526154 
L 154.55554 164.972308 
L 155.564201 164.972308 
L 155.564201 139.864615 
L 156.572862 139.864615 
L 156.572862 145.403077 
L 157.581523 145.403077 
L 157.581523 167.926154 
L 158.590184 167.926154 
L 158.590184 143.926154 
L 159.598845 143.926154 
L 159.598845 165.341538 
L 160.607506 165.341538 
L 160.607506 163.864615 
L 161.616167 163.864615 
L 161.616167 159.803077 
L 162.624828 159.803077 
L 162.624828 157.587692 
L 163.633489 157.587692 
L 163.633489 139.495385 
L 164.64215 139.495385 
L 164.64215 159.064615 
L 165.650811 159.064615 
L 165.650811 156.48 
L 166.659472 156.48 
L 166.659472 157.956923 
L 167.668133 157.956923 
L 167.668133 167.556923 
L 168.676794 167.556923 
L 168.676794 171.987692 
L 169.685455 171.987692 
L 169.685455 172.726154 
L 170.694116 172.726154 
L 170.694116 155.372308 
L 171.702777 155.372308 
L 171.702777 173.464615 
L 172.711438 173.464615 
L 172.711438 156.110769 
L 173.720099 156.110769 
L 173.720099 156.849231 
L 174.72876 156.849231 
L 174.72876 151.68 
L 175.737421 151.68 
L 175.737421 160.172308 
L 176.746082 160.172308 
L 176.746082 140.233846 
L 177.754743 140.233846 
L 177.754743 156.48 
L 178.763404 156.48 
L 178.763404 145.772308 
L 179.772065 145.772308 
L 179.772065 159.064615 
L 180.780726 159.064615 
L 180.780726 149.095385 
L 181.789387 149.095385 
L 181.789387 180.48 
L 182.798048 180.48 
L 182.798048 167.926154 
L 183.806709 167.926154 
L 183.806709 178.633846 
L 184.81537 178.633846 
L 184.81537 164.233846 
L 185.824031 164.233846 
L 185.824031 176.787692 
L 186.832692 176.787692 
L 186.832692 175.68 
L 187.841353 175.68 
L 187.841353 169.403077 
L 188.850014 169.403077 
L 188.850014 176.418462 
L 189.858675 176.418462 
L 189.858675 157.956923 
L 190.867336 157.956923 
L 190.867336 180.48 
L 191.875997 180.48 
L 191.875997 176.787692 
L 192.884658 176.787692 
L 192.884658 179.003077 
L 193.893319 179.003077 
L 193.893319 167.187692 
L 194.90198 167.187692 
L 194.90198 173.833846 
L 195.910641 173.833846 
L 195.910641 163.864615 
L 196.919302 163.864615 
L 196.919302 187.864615 
L 197.927963 187.864615 
L 197.927963 180.110769 
L 198.936623 180.110769 
L 198.936623 186.756923 
L 199.945284 186.756923 
L 199.945284 172.726154 
L 200.953945 172.726154 
L 200.953945 165.710769 
L 201.962606 165.710769 
L 201.962606 187.495385 
L 203.979928 187.495385 
L 203.979928 189.341538 
L 204.988589 189.341538 
L 204.988589 202.264615 
L 205.99725 202.264615 
L 205.99725 188.603077 
L 207.005911 188.603077 
L 207.005911 192.664615 
L 208.014572 192.664615 
L 208.014572 190.818462 
L 209.023233 190.818462 
L 209.023233 193.033846 
L 210.031894 193.033846 
L 210.031894 192.295385 
L 211.040555 192.295385 
L 211.040555 195.618462 
L 212.049216 195.618462 
L 212.049216 196.356923 
L 213.057877 196.356923 
L 213.057877 197.464615 
L 214.066538 197.464615 
L 214.066538 189.341538 
L 215.075199 189.341538 
L 215.075199 189.710769 
L 216.08386 189.710769 
L 216.08386 198.572308 
L 217.092521 198.572308 
L 217.092521 198.203077 
L 218.101182 198.203077 
L 218.101182 194.510769 
L 219.109843 194.510769 
L 219.109843 202.633846 
L 220.118504 202.633846 
L 220.118504 195.249231 
L 221.127165 195.249231 
L 221.127165 186.018462 
L 222.135826 186.018462 
L 222.135826 186.756923 
L 224.153148 186.756923 
L 224.153148 181.956923 
L 225.161809 181.956923 
L 225.161809 192.295385 
L 226.17047 192.295385 
L 226.17047 187.495385 
L 227.179131 187.495385 
L 227.179131 189.341538 
L 228.187792 189.341538 
L 228.187792 196.726154 
L 229.196453 196.726154 
L 229.196453 195.618462 
L 230.205114 195.618462 
L 230.205114 201.895385 
L 231.213775 201.895385 
L 231.213775 206.695385 
L 232.222436 206.695385 
L 232.222436 198.941538 
L 233.231097 198.941538 
L 233.231097 203.372308 
L 234.239758 203.372308 
L 234.239758 200.049231 
L 235.248419 200.049231 
L 235.248419 195.618462 
L 236.25708 195.618462 
L 236.25708 207.064615 
L 237.265741 207.064615 
L 237.265741 203.741538 
L 238.274402 203.741538 
L 238.274402 204.110769 
L 239.283063 204.110769 
L 239.283063 199.68 
L 240.291724 199.68 
L 240.291724 206.326154 
L 241.300385 206.326154 
L 241.300385 207.803077 
L 242.309046 207.803077 
L 242.309046 201.156923 
L 243.317707 201.156923 
L 243.317707 216.295385 
L 244.326368 216.295385 
L 244.326368 212.233846 
L 245.335029 212.233846 
L 245.335029 200.418462 
L 246.34369 200.418462 
L 246.34369 203.003077 
L 247.352351 203.003077 
L 247.352351 213.341538 
L 248.361012 213.341538 
L 248.361012 213.710769 
L 249.369673 213.710769 
L 249.369673 210.387692 
L 250.378334 210.387692 
L 250.378334 209.649231 
L 251.386995 209.649231 
L 251.386995 212.603077 
L 252.395656 212.603077 
L 252.395656 211.495385 
L 253.404317 211.495385 
L 253.404317 212.233846 
L 254.412978 212.233846 
L 254.412978 211.126154 
L 255.421639 211.126154 
L 255.421639 211.864615 
L 256.4303 211.864615 
L 256.4303 214.449231 
L 257.438961 214.449231 
L 257.438961 213.710769 
L 258.447622 213.710769 
L 258.447622 212.972308 
L 259.456283 212.972308 
L 259.456283 211.864615 
L 260.464944 211.864615 
L 260.464944 212.972308 
L 261.473605 212.972308 
L 261.473605 216.664615 
L 262.482266 216.664615 
L 262.482266 215.187692 
L 263.490927 215.187692 
L 263.490927 213.341538 
L 264.499587 213.341538 
L 264.499587 210.018462 
L 265.508248 210.018462 
L 265.508248 213.341538 
L 266.516909 213.341538 
L 266.516909 211.864615 
L 267.52557 211.864615 
L 267.52557 209.28 
L 268.534231 209.28 
L 268.534231 212.233846 
L 269.542892 212.233846 
L 269.542892 211.864615 
L 270.551553 211.864615 
L 270.551553 200.418462 
L 271.560214 200.418462 
L 271.560214 205.587692 
L 272.568875 205.587692 
L 272.568875 211.864615 
L 273.577536 211.864615 
L 273.577536 210.018462 
L 274.586197 210.018462 
L 274.586197 213.710769 
L 275.594858 213.710769 
L 275.594858 208.910769 
L 276.603519 208.910769 
L 276.603519 211.126154 
L 277.61218 211.126154 
L 277.61218 209.28 
L 278.620841 209.28 
L 278.620841 209.649231 
L 279.629502 209.649231 
L 279.629502 211.864615 
L 280.638163 211.864615 
L 280.638163 210.387692 
L 281.646824 210.387692 
L 281.646824 208.541538 
L 282.655485 208.541538 
L 282.655485 212.603077 
L 283.664146 212.603077 
L 283.664146 213.710769 
L 284.672807 213.710769 
L 284.672807 210.018462 
L 285.681468 210.018462 
L 285.681468 214.449231 
L 286.690129 214.449231 
L 286.690129 211.495385 
L 287.69879 211.495385 
L 287.69879 212.972308 
L 290.724773 212.972308 
L 290.724773 215.187692 
L 291.733434 215.187692 
L 291.733434 215.556923 
L 292.742095 215.556923 
L 292.742095 214.818462 
L 293.750756 214.818462 
L 293.750756 214.449231 
L 294.759417 214.449231 
L 294.759417 215.926154 
L 295.768078 215.926154 
L 295.768078 213.341538 
L 296.776739 213.341538 
L 296.776739 216.664615 
L 297.7854 216.664615 
L 297.7854 218.141538 
L 298.794061 218.141538 
L 298.794061 214.449231 
L 299.802722 214.449231 
L 299.802722 216.295385 
L 300.811383 216.295385 
L 300.811383 215.926154 
L 301.820044 215.926154 
L 301.820044 215.556923 
L 302.828705 215.556923 
L 302.828705 216.664615 
L 304.846027 216.664615 
L 304.846027 217.403077 
L 305.854688 217.403077 
L 305.854688 215.926154 
L 306.863349 215.926154 
L 306.863349 217.033846 
L 307.87201 217.033846 
L 307.87201 217.772308 
L 308.880671 217.772308 
L 308.880671 213.710769 
L 309.889332 213.710769 
L 309.889332 215.187692 
L 310.897993 215.187692 
L 310.897993 211.495385 
L 311.906654 211.495385 
L 311.906654 216.295385 
L 312.915315 216.295385 
L 312.915315 210.387692 
L 314.932637 210.387692 
L 314.932637 205.587692 
L 315.941298 205.587692 
L 315.941298 214.08 
L 316.949959 214.08 
L 316.949959 208.910769 
L 317.95862 208.910769 
L 317.95862 212.603077 
L 318.967281 212.603077 
L 318.967281 207.433846 
L 319.975942 207.433846 
L 319.975942 200.418462 
L 320.984603 200.418462 
L 320.984603 207.064615 
L 321.993264 207.064615 
L 321.993264 208.541538 
L 323.001925 208.541538 
L 323.001925 210.387692 
L 324.010586 210.387692 
L 324.010586 202.633846 
L 325.019247 202.633846 
L 325.019247 205.587692 
L 326.027908 205.587692 
L 326.027908 211.126154 
L 327.036569 211.126154 
L 327.036569 205.218462 
L 328.04523 205.218462 
L 328.04523 201.156923 
L 329.053891 201.156923 
L 329.053891 211.495385 
L 330.062552 211.495385 
L 330.062552 207.803077 
L 331.071212 207.803077 
L 331.071212 211.864615 
L 332.079873 211.864615 
L 332.079873 201.526154 
L 333.088534 201.526154 
L 333.088534 210.018462 
L 334.097195 210.018462 
L 334.097195 205.956923 
L 335.105856 205.956923 
L 335.105856 208.172308 
L 336.114517 208.172308 
L 336.114517 205.587692 
L 337.123178 205.587692 
L 337.123178 206.695385 
L 338.131839 206.695385 
L 338.131839 212.233846 
L 339.1405 212.233846 
L 339.1405 205.956923 
L 340.149161 205.956923 
L 340.149161 215.556923 
L 341.157822 215.556923 
L 341.157822 207.064615 
L 342.166483 207.064615 
L 342.166483 208.172308 
L 343.175144 208.172308 
L 343.175144 203.003077 
L 344.183805 203.003077 
L 344.183805 211.495385 
L 345.192466 211.495385 
L 345.192466 212.972308 
L 346.201127 212.972308 
L 346.201127 208.172308 
L 347.209788 208.172308 
L 347.209788 212.603077 
L 348.218449 212.603077 
L 348.218449 205.956923 
L 349.22711 205.956923 
L 349.22711 212.972308 
L 350.235771 212.972308 
L 350.235771 210.756923 
L 351.244432 210.756923 
L 351.244432 209.28 
L 352.253093 209.28 
L 352.253093 212.972308 
L 353.261754 212.972308 
L 353.261754 214.08 
L 354.270415 214.08 
L 354.270415 213.710769 
L 355.279076 213.710769 
L 355.279076 210.756923 
L 356.287737 210.756923 
L 356.287737 213.341538 
L 357.296398 213.341538 
L 357.296398 216.295385 
L 358.305059 216.295385 
L 358.305059 214.449231 
L 359.31372 214.449231 
L 359.31372 213.710769 
L 360.322381 213.710769 
L 360.322381 214.818462 
L 361.331042 214.818462 
L 361.331042 215.926154 
L 362.339703 215.926154 
L 362.339703 218.510769 
L 363.348364 218.510769 
L 363.348364 217.033846 
L 364.357025 217.033846 
L 364.357025 218.141538 
L 365.365686 218.141538 
L 365.365686 218.141538 
" clip-path="url(#p8434d2ec05)" style="fill: none; stroke: #ff7f0e; stroke-width: 1.5; stroke-linecap: square"/>
   </g>
   <g id="line2d_17">
    <path d="M 62.176542 201.156923 
L 63.190603 201.156923 
L 63.190603 185.649231 
L 64.204664 185.649231 
L 64.204664 162.756923 
L 65.218725 162.756923 
L 65.218725 140.972308 
L 66.232786 140.972308 
L 66.232786 120.295385 
L 67.246847 120.295385 
L 67.246847 121.403077 
L 68.260908 121.403077 
L 68.260908 114.756923 
L 70.289031 114.756923 
L 70.289031 96.664615 
L 71.303092 96.664615 
L 71.303092 112.172308 
L 72.317153 112.172308 
L 72.317153 101.095385 
L 73.331214 101.095385 
L 73.331214 92.603077 
L 74.345275 92.603077 
L 74.345275 91.495385 
L 75.359336 91.495385 
L 75.359336 83.003077 
L 76.373397 83.003077 
L 76.373397 79.68 
L 77.387458 79.68 
L 77.387458 78.203077 
L 78.401519 78.203077 
L 78.401519 83.372308 
L 79.415581 83.372308 
L 79.415581 70.449231 
L 80.429642 70.449231 
L 80.429642 77.833846 
L 81.443703 77.833846 
L 81.443703 63.433846 
L 82.457764 63.433846 
L 82.457764 53.095385 
L 83.471825 53.095385 
L 83.471825 60.110769 
L 84.485886 60.110769 
L 84.485886 66.018462 
L 85.499947 66.018462 
L 85.499947 63.803077 
L 86.514008 63.803077 
L 86.514008 61.587692 
L 87.528069 61.587692 
L 87.528069 54.941538 
L 88.542131 54.941538 
L 88.542131 64.910769 
L 89.556192 64.910769 
L 89.556192 55.68 
L 90.570253 55.68 
L 90.570253 59.741538 
L 91.584314 59.741538 
L 91.584314 63.433846 
L 92.598375 63.433846 
L 92.598375 68.972308 
L 93.612436 68.972308 
L 93.612436 69.341538 
L 94.626497 69.341538 
L 94.626497 71.187692 
L 95.640558 71.187692 
L 95.640558 84.849231 
L 96.654619 84.849231 
L 96.654619 83.372308 
L 97.668681 83.372308 
L 97.668681 81.895385 
L 98.682742 81.895385 
L 98.682742 92.603077 
L 99.696803 92.603077 
L 99.696803 98.141538 
L 100.710864 98.141538 
L 100.710864 102.572308 
L 101.724925 102.572308 
L 101.724925 113.649231 
L 102.738986 113.649231 
L 102.738986 110.695385 
L 103.753047 110.695385 
L 103.753047 126.203077 
L 104.767108 126.203077 
L 104.767108 133.218462 
L 105.781169 133.218462 
L 105.781169 129.156923 
L 106.795231 129.156923 
L 106.795231 149.833846 
L 108.823353 149.833846 
L 108.823353 153.156923 
L 109.837414 153.156923 
L 109.837414 159.803077 
L 110.851475 159.803077 
L 110.851475 160.172308 
L 111.865536 160.172308 
L 111.865536 168.295385 
L 112.879597 168.295385 
L 112.879597 177.156923 
L 113.893658 177.156923 
L 113.893658 186.387692 
L 114.907719 186.387692 
L 114.907719 193.403077 
L 115.921781 193.403077 
L 115.921781 190.08 
L 116.935842 190.08 
L 116.935842 181.218462 
L 117.949903 181.218462 
L 117.949903 171.249231 
L 118.963964 171.249231 
L 118.963964 155.003077 
L 119.978025 155.003077 
L 119.978025 149.095385 
L 120.992086 149.095385 
L 120.992086 135.803077 
L 122.006147 135.803077 
L 122.006147 121.033846 
L 123.020208 121.033846 
L 123.020208 120.295385 
L 124.034269 120.295385 
L 124.034269 109.218462 
L 125.048331 109.218462 
L 125.048331 115.126154 
L 126.062392 115.126154 
L 126.062392 111.064615 
L 127.076453 111.064615 
L 127.076453 105.156923 
L 128.090514 105.156923 
L 128.090514 126.203077 
L 129.104575 126.203077 
L 129.104575 112.541538 
L 130.118636 112.541538 
L 130.118636 123.987692 
L 131.132697 123.987692 
L 131.132697 125.833846 
L 132.146758 125.833846 
L 132.146758 117.710769 
L 133.160819 117.710769 
L 133.160819 115.126154 
L 134.174881 115.126154 
L 134.174881 119.556923 
L 135.188942 119.556923 
L 135.188942 122.141538 
L 136.203003 122.141538 
L 136.203003 135.433846 
L 137.217064 135.433846 
L 137.217064 125.464615 
L 138.231125 125.464615 
L 138.231125 124.356923 
L 139.245186 124.356923 
L 139.245186 123.987692 
L 140.259247 123.987692 
L 140.259247 132.849231 
L 141.273308 132.849231 
L 141.273308 129.156923 
L 142.287369 129.156923 
L 142.287369 120.664615 
L 143.301431 120.664615 
L 143.301431 146.88 
L 144.315492 146.88 
L 144.315492 130.633846 
L 145.329553 130.633846 
L 145.329553 128.049231 
L 146.343614 128.049231 
L 146.343614 126.572308 
L 147.357675 126.572308 
L 147.357675 141.710769 
L 148.371736 141.710769 
L 148.371736 138.756923 
L 149.385797 138.756923 
L 149.385797 135.433846 
L 150.399858 135.433846 
L 150.399858 138.018462 
L 151.413919 138.018462 
L 151.413919 146.88 
L 152.427981 146.88 
L 152.427981 148.356923 
L 153.442042 148.356923 
L 153.442042 150.572308 
L 154.456103 150.572308 
L 154.456103 151.310769 
L 155.470164 151.310769 
L 155.470164 139.864615 
L 156.484225 139.864615 
L 156.484225 156.48 
L 157.498286 156.48 
L 157.498286 147.618462 
L 158.512347 147.618462 
L 158.512347 151.68 
L 159.526408 151.68 
L 159.526408 161.28 
L 160.540469 161.28 
L 160.540469 153.895385 
L 161.554531 153.895385 
L 161.554531 162.018462 
L 162.568592 162.018462 
L 162.568592 148.356923 
L 163.582653 148.356923 
L 163.582653 157.587692 
L 164.596714 157.587692 
L 164.596714 158.695385 
L 165.610775 158.695385 
L 165.610775 146.510769 
L 166.624836 146.510769 
L 166.624836 159.803077 
L 167.638897 159.803077 
L 167.638897 169.403077 
L 168.652958 169.403077 
L 168.652958 168.295385 
L 170.681081 168.295385 
L 170.681081 162.018462 
L 171.695142 162.018462 
L 171.695142 168.664615 
L 172.709203 168.664615 
L 172.709203 154.633846 
L 173.723264 154.633846 
L 173.723264 151.68 
L 174.737325 151.68 
L 174.737325 154.633846 
L 175.751386 154.633846 
L 175.751386 151.68 
L 176.765447 151.68 
L 176.765447 153.526154 
L 177.779508 153.526154 
L 177.779508 150.203077 
L 178.793569 150.203077 
L 178.793569 157.218462 
L 179.807631 157.218462 
L 179.807631 152.049231 
L 180.821692 152.049231 
L 180.821692 159.064615 
L 181.835753 159.064615 
L 181.835753 166.08 
L 182.849814 166.08 
L 182.849814 173.833846 
L 183.863875 173.833846 
L 183.863875 167.556923 
L 184.877936 167.556923 
L 184.877936 171.618462 
L 185.891997 171.618462 
L 185.891997 168.664615 
L 186.906058 168.664615 
L 186.906058 177.526154 
L 187.920119 177.526154 
L 187.920119 172.726154 
L 188.934181 172.726154 
L 188.934181 164.233846 
L 189.948242 164.233846 
L 189.948242 174.203077 
L 190.962303 174.203077 
L 190.962303 172.356923 
L 191.976364 172.356923 
L 191.976364 174.941538 
L 192.990425 174.941538 
L 192.990425 179.741538 
L 194.004486 179.741538 
L 194.004486 166.818462 
L 195.018547 166.818462 
L 195.018547 173.833846 
L 196.032608 173.833846 
L 196.032608 177.895385 
L 197.046669 177.895385 
L 197.046669 177.156923 
L 198.060731 177.156923 
L 198.060731 187.864615 
L 199.074792 187.864615 
L 199.074792 174.572308 
L 200.088853 174.572308 
L 200.088853 186.387692 
L 201.102914 186.387692 
L 201.102914 176.418462 
L 202.116975 176.418462 
L 202.116975 179.741538 
L 203.131036 179.741538 
L 203.131036 187.126154 
L 204.145097 187.126154 
L 204.145097 189.341538 
L 205.159158 189.341538 
L 205.159158 194.88 
L 206.173219 194.88 
L 206.173219 188.972308 
L 207.187281 188.972308 
L 207.187281 187.495385 
L 208.201342 187.495385 
L 208.201342 194.510769 
L 209.215403 194.510769 
L 209.215403 190.449231 
L 210.229464 190.449231 
L 210.229464 196.726154 
L 211.243525 196.726154 
L 211.243525 193.772308 
L 212.257586 193.772308 
L 212.257586 196.356923 
L 213.271647 196.356923 
L 213.271647 193.033846 
L 214.285708 193.033846 
L 214.285708 194.88 
L 215.299769 194.88 
L 215.299769 191.187692 
L 216.313831 191.187692 
L 216.313831 196.356923 
L 217.327892 196.356923 
L 217.327892 197.833846 
L 218.341953 197.833846 
L 218.341953 196.726154 
L 219.356014 196.726154 
L 219.356014 194.510769 
L 220.370075 194.510769 
L 220.370075 192.664615 
L 221.384136 192.664615 
L 221.384136 190.818462 
L 222.398197 190.818462 
L 222.398197 182.695385 
L 223.412258 182.695385 
L 223.412258 184.541538 
L 224.426319 184.541538 
L 224.426319 190.449231 
L 225.440381 190.449231 
L 225.440381 187.126154 
L 226.454442 187.126154 
L 226.454442 192.295385 
L 227.468503 192.295385 
L 227.468503 188.972308 
L 228.482564 188.972308 
L 228.482564 196.356923 
L 229.496625 196.356923 
L 229.496625 198.203077 
L 230.510686 198.203077 
L 230.510686 204.110769 
L 231.524747 204.110769 
L 231.524747 201.156923 
L 232.538808 201.156923 
L 232.538808 202.633846 
L 233.552869 202.633846 
L 233.552869 198.203077 
L 234.566931 198.203077 
L 234.566931 198.941538 
L 235.580992 198.941538 
L 235.580992 200.418462 
L 236.595053 200.418462 
L 236.595053 204.48 
L 237.609114 204.48 
L 237.609114 201.895385 
L 238.623175 201.895385 
L 238.623175 204.48 
L 239.637236 204.48 
L 239.637236 204.849231 
L 240.651297 204.849231 
L 240.651297 207.803077 
L 241.665358 207.803077 
L 241.665358 205.956923 
L 242.679419 205.956923 
L 242.679419 207.803077 
L 243.693481 207.803077 
L 243.693481 212.233846 
L 244.707542 212.233846 
L 244.707542 207.064615 
L 246.735664 207.064615 
L 246.735664 208.910769 
L 247.749725 208.910769 
L 247.749725 209.28 
L 248.763786 209.28 
L 248.763786 207.433846 
L 249.777847 207.433846 
L 249.777847 212.233846 
L 250.791908 212.233846 
L 250.791908 211.126154 
L 251.805969 211.126154 
L 251.805969 210.387692 
L 252.820031 210.387692 
L 252.820031 212.233846 
L 253.834092 212.233846 
L 253.834092 212.603077 
L 254.848153 212.603077 
L 254.848153 211.495385 
L 256.876275 211.495385 
L 256.876275 214.08 
L 257.890336 214.08 
L 257.890336 213.710769 
L 258.904397 213.710769 
L 258.904397 212.972308 
L 259.918458 212.972308 
L 259.918458 211.495385 
L 260.932519 211.495385 
L 260.932519 215.187692 
L 262.960642 215.187692 
L 262.960642 214.449231 
L 263.974703 214.449231 
L 263.974703 211.495385 
L 264.988764 211.495385 
L 264.988764 212.603077 
L 266.002825 212.603077 
L 266.002825 211.495385 
L 267.016886 211.495385 
L 267.016886 209.28 
L 268.030947 209.28 
L 268.030947 213.341538 
L 269.045008 213.341538 
L 269.045008 209.649231 
L 270.059069 209.649231 
L 270.059069 205.587692 
L 272.087192 205.587692 
L 272.087192 208.541538 
L 273.101253 208.541538 
L 273.101253 209.28 
L 274.115314 209.28 
L 274.115314 213.341538 
L 275.129375 213.341538 
L 275.129375 210.387692 
L 276.143436 210.387692 
L 276.143436 210.018462 
L 277.157497 210.018462 
L 277.157497 210.756923 
L 278.171558 210.756923 
L 278.171558 208.172308 
L 279.185619 208.172308 
L 279.185619 211.495385 
L 280.199681 211.495385 
L 280.199681 210.756923 
L 282.227803 210.756923 
L 282.227803 209.28 
L 283.241864 209.28 
L 283.241864 213.341538 
L 284.255925 213.341538 
L 284.255925 210.756923 
L 285.269986 210.756923 
L 285.269986 214.08 
L 286.284047 214.08 
L 286.284047 211.864615 
L 288.312169 211.864615 
L 288.312169 212.972308 
L 289.326231 212.972308 
L 289.326231 213.710769 
L 290.340292 213.710769 
L 290.340292 214.449231 
L 291.354353 214.449231 
L 291.354353 214.818462 
L 292.368414 214.818462 
L 292.368414 215.926154 
L 293.382475 215.926154 
L 293.382475 213.710769 
L 294.396536 213.710769 
L 294.396536 215.926154 
L 295.410597 215.926154 
L 295.410597 214.449231 
L 297.438719 214.449231 
L 297.438719 218.141538 
L 298.45278 218.141538 
L 298.45278 216.295385 
L 299.466842 216.295385 
L 299.466842 215.187692 
L 300.480903 215.187692 
L 300.480903 216.664615 
L 301.494964 216.664615 
L 301.494964 214.449231 
L 302.509025 214.449231 
L 302.509025 218.141538 
L 303.523086 218.141538 
L 303.523086 216.295385 
L 304.537147 216.295385 
L 304.537147 215.926154 
L 305.551208 215.926154 
L 305.551208 216.664615 
L 306.565269 216.664615 
L 306.565269 215.926154 
L 307.57933 215.926154 
L 307.57933 216.664615 
L 308.593392 216.664615 
L 308.593392 216.295385 
L 309.607453 216.295385 
L 309.607453 213.710769 
L 310.621514 213.710769 
L 310.621514 212.972308 
L 311.635575 212.972308 
L 311.635575 212.603077 
L 312.649636 212.603077 
L 312.649636 210.387692 
L 313.663697 210.387692 
L 313.663697 210.756923 
L 314.677758 210.756923 
L 314.677758 210.387692 
L 315.691819 210.387692 
L 315.691819 209.649231 
L 316.70588 209.649231 
L 316.70588 208.910769 
L 317.719942 208.910769 
L 317.719942 209.28 
L 318.734003 209.28 
L 318.734003 207.433846 
L 319.748064 207.433846 
L 319.748064 207.803077 
L 320.762125 207.803077 
L 320.762125 205.587692 
L 321.776186 205.587692 
L 321.776186 208.910769 
L 322.790247 208.910769 
L 322.790247 207.064615 
L 323.804308 207.064615 
L 323.804308 207.803077 
L 324.818369 207.803077 
L 324.818369 206.695385 
L 325.83243 206.695385 
L 325.83243 207.064615 
L 326.846492 207.064615 
L 326.846492 202.633846 
L 327.860553 202.633846 
L 327.860553 209.28 
L 328.874614 209.28 
L 328.874614 209.649231 
L 329.888675 209.649231 
L 329.888675 202.264615 
L 330.902736 202.264615 
L 330.902736 206.326154 
L 331.916797 206.326154 
L 331.916797 209.28 
L 332.930858 209.28 
L 332.930858 208.910769 
L 333.944919 208.910769 
L 333.944919 205.956923 
L 334.95898 205.956923 
L 334.95898 210.756923 
L 335.973042 210.756923 
L 335.973042 208.172308 
L 336.987103 208.172308 
L 336.987103 204.849231 
L 338.001164 204.849231 
L 338.001164 208.910769 
L 340.029286 208.910769 
L 340.029286 209.28 
L 342.057408 209.28 
L 342.057408 207.803077 
L 343.071469 207.803077 
L 343.071469 208.172308 
L 344.08553 208.172308 
L 344.08553 209.28 
L 345.099592 209.28 
L 345.099592 210.018462 
L 346.113653 210.018462 
L 346.113653 210.387692 
L 347.127714 210.387692 
L 347.127714 211.495385 
L 348.141775 211.495385 
L 348.141775 210.018462 
L 349.155836 210.018462 
L 349.155836 209.28 
L 350.169897 209.28 
L 350.169897 209.649231 
L 352.198019 209.649231 
L 352.198019 212.233846 
L 353.21208 212.233846 
L 353.21208 214.449231 
L 354.226142 214.449231 
L 354.226142 212.603077 
L 355.240203 212.603077 
L 355.240203 213.710769 
L 356.254264 213.710769 
L 356.254264 213.341538 
L 358.282386 213.341538 
L 358.282386 215.926154 
L 359.296447 215.926154 
L 359.296447 213.710769 
L 360.310508 213.710769 
L 360.310508 214.449231 
L 361.324569 214.449231 
L 361.324569 215.926154 
L 362.33863 215.926154 
L 362.33863 217.772308 
L 364.366753 217.772308 
L 364.366753 218.141538 
L 365.380814 218.141538 
L 365.380814 217.772308 
L 366.394875 217.772308 
L 366.394875 217.772308 
" clip-path="url(#p8434d2ec05)" style="fill: none; stroke: #2ca02c; stroke-width: 1.5; stroke-linecap: square"/>
   </g>
   <g id="patch_3">
    <path d="M 46.965625 228.96 
L 46.965625 7.2 
" style="fill: none; stroke: #000000; stroke-width: 0.8; stroke-linejoin: miter; stroke-linecap: square"/>
   </g>
   <g id="patch_4">
    <path d="M 381.765625 228.96 
L 381.765625 7.2 
" style="fill: none; stroke: #000000; stroke-width: 0.8; stroke-linejoin: miter; stroke-linecap: square"/>
   </g>
   <g id="patch_5">
    <path d="M 46.965625 228.96 
L 381.765625 228.96 
" style="fill: none; stroke: #000000; stroke-width: 0.8; stroke-linejoin: miter; stroke-linecap: square"/>
   </g>
   <g id="patch_6">
    <path d="M 46.965625 7.2 
L 381.765625 7.2 
" style="fill: none; stroke: #000000; stroke-width: 0.8; stroke-linejoin: miter; stroke-linecap: square"/>
   </g>
   <g id="legend_1">
    <g id="patch_7">
     <path d="M 305.3875 59.234375 
L 374.765625 59.234375 
Q 376.765625 59.234375 376.765625 57.234375 
L 376.765625 14.2 
Q 376.765625 12.2 374.765625 12.2 
L 305.3875 12.2 
Q 303.3875 12.2 303.3875 14.2 
L 303.3875 57.234375 
Q 303.3875 59.234375 305.3875 59.234375 
z
" style="fill: #ffffff; opacity: 0.8; stroke: #cccccc; stroke-linejoin: miter"/>
    </g>
    <g id="line2d_18">
     <path d="M 307.3875 20.298438 
L 307.3875 20.298438 
L 317.3875 20.298438 
L 317.3875 20.298438 
L 327.3875 20.298438 
" style="fill: none; stroke: #1f77b4; stroke-width: 1.5; stroke-linecap: square"/>
    </g>
    <g id="text_17">
     <!-- naive -->
     <g transform="translate(335.3875 23.798438) scale(0.1 -0.1)">
      <defs>
       <path id="DejaVuSans-69" d="M 603 3500 
L 1178 3500 
L 1178 0 
L 603 0 
L 603 3500 
z
M 603 4863 
L 1178 4863 
L 1178 4134 
L 603 4134 
L 603 4863 
z
" transform="scale(0.015625)"/>
      </defs>
      <use xlink:href="#DejaVuSans-6e"/>
      <use xlink:href="#DejaVuSans-61" transform="translate(63.378906 0)"/>
      <use xlink:href="#DejaVuSans-69" transform="translate(124.658203 0)"/>
      <use xlink:href="#DejaVuSans-76" transform="translate(152.441406 0)"/>
      <use xlink:href="#DejaVuSans-65" transform="translate(211.621094 0)"/>
     </g>
    </g>
    <g id="line2d_19">
     <path d="M 307.3875 34.976562 
L 307.3875 34.976562 
L 317.3875 34.976562 
L 317.3875 34.976562 
L 327.3875 34.976562 
" style="fill: none; stroke: #ff7f0e; stroke-width: 1.5; stroke-linecap: square"/>
    </g>
    <g id="text_18">
     <!-- wfm -->
     <g transform="translate(335.3875 38.476562) scale(0.1 -0.1)">
      <defs>
       <path id="DejaVuSans-66" d="M 2375 4863 
L 2375 4384 
L 1825 4384 
Q 1516 4384 1395 4259 
Q 1275 4134 1275 3809 
L 1275 3500 
L 2222 3500 
L 2222 3053 
L 1275 3053 
L 1275 0 
L 697 0 
L 697 3053 
L 147 3053 
L 147 3500 
L 697 3500 
L 697 3744 
Q 697 4328 969 4595 
Q 1241 4863 1831 4863 
L 2375 4863 
z
" transform="scale(0.015625)"/>
       <path id="DejaVuSans-6d" d="M 3328 2828 
Q 3544 3216 3844 3400 
Q 4144 3584 4550 3584 
Q 5097 3584 5394 3201 
Q 5691 2819 5691 2113 
L 5691 0 
L 5113 0 
L 5113 2094 
Q 5113 2597 4934 2840 
Q 4756 3084 4391 3084 
Q 3944 3084 3684 2787 
Q 3425 2491 3425 1978 
L 3425 0 
L 2847 0 
L 2847 2094 
Q 2847 2600 2669 2842 
Q 2491 3084 2119 3084 
Q 1678 3084 1418 2786 
Q 1159 2488 1159 1978 
L 1159 0 
L 581 0 
L 581 3500 
L 1159 3500 
L 1159 2956 
Q 1356 3278 1631 3431 
Q 1906 3584 2284 3584 
Q 2666 3584 2933 3390 
Q 3200 3197 3328 2828 
z
" transform="scale(0.015625)"/>
      </defs>
      <use xlink:href="#DejaVuSans-77"/>
      <use xlink:href="#DejaVuSans-66" transform="translate(81.787109 0)"/>
      <use xlink:href="#DejaVuSans-6d" transform="translate(116.992188 0)"/>
     </g>
    </g>
    <g id="line2d_20">
     <path d="M 307.3875 49.654688 
L 307.3875 49.654688 
L 317.3875 49.654688 
L 317.3875 49.654688 
L 327.3875 49.654688 
" style="fill: none; stroke: #2ca02c; stroke-width: 1.5; stroke-linecap: square"/>
    </g>
    <g id="text_19">
     <!-- original -->
     <g transform="translate(335.3875 53.154688) scale(0.1 -0.1)">
      <defs>
       <path id="DejaVuSans-72" d="M 2631 2963 
Q 2534 3019 2420 3045 
Q 2306 3072 2169 3072 
Q 1681 3072 1420 2755 
Q 1159 2438 1159 1844 
L 1159 0 
L 581 0 
L 581 3500 
L 1159 3500 
L 1159 2956 
Q 1341 3275 1631 3429 
Q 1922 3584 2338 3584 
Q 2397 3584 2469 3576 
Q 2541 3569 2628 3553 
L 2631 2963 
z
" transform="scale(0.015625)"/>
      </defs>
      <use xlink:href="#DejaVuSans-6f"/>
      <use xlink:href="#DejaVuSans-72" transform="translate(61.181641 0)"/>
      <use xlink:href="#DejaVuSans-69" transform="translate(102.294922 0)"/>
      <use xlink:href="#DejaVuSans-67" transform="translate(130.078125 0)"/>
      <use xlink:href="#DejaVuSans-69" transform="translate(193.554688 0)"/>
      <use xlink:href="#DejaVuSans-6e" transform="translate(221.337891 0)"/>
      <use xlink:href="#DejaVuSans-61" transform="translate(284.716797 0)"/>
      <use xlink:href="#DejaVuSans-6c" transform="translate(345.996094 0)"/>
     </g>
    </g>
   </g>
  </g>
 </g>
 <defs>
  <clipPath id="p8434d2ec05">
   <rect x="46.965625" y="7.2" width="334.8" height="221.76"/>
  </clipPath>
 </defs>
</svg>
