<?xml version="1.0" encoding="utf-8" standalone="no"?>
<!DOCTYPE svg PUBLIC "-//W3C//DTD SVG 1.1//EN"
  "http://www.w3.org/Graphics/SVG/1.1/DTD/svg11.dtd">
<svg xmlns:xlink="http://www.w3.org/1999/xlink" width="872.39952pt" height="296.39952pt" viewBox="0 0 872.39952 296.39952" xmlns="http://www.w3.org/2000/svg" version="1.1">
 <metadata>
  <rdf:RDF xmlns:dc="http://purl.org/dc/elements/1.1/" xmlns:cc="http://creativecommons.org/ns#" xmlns:rdf="http://www.w3.org/1999/02/22-rdf-syntax-ns#">
   <cc:Work>
    <dc:type rdf:resource="http://purl.org/dc/dcmitype/StillImage"/>
    <dc:date>2025-12-09T08:59:32.500751</dc:date>
    <dc:format>image/svg+xml</dc:format>
    <dc:creator>
     <cc:Agent>
      <dc:title>Matplotlib v3.10.7, https://matplotlib.org/</dc:title>
     </cc:Agent>
    </dc:creator>
   </cc:Work>
  </rdf:RDF>
 </metadata>
 <defs>
  <style type="text/css">*{stroke-linejoin: round; stroke-linecap: butt}</style>
 </defs>
 <g id="figure_1">
  <g id="patch_1">
   <path d="M 0 296.39952 
L 872.39952 296.39952 
L 872.39952 0 
L 0 0 
z
" style="fill: #ffffff"/>
  </g>
  <g id="axes_1">
   <g id="patch_2">
    <path d="M 53.328125 257.158895 
L 411.41851 257.158895 
L 411.41851 7.2 
L 53.328125 7.2 
z
" style="fill: #ffffff"/>
   </g>
   <g id="matplotlib.axis_1">
    <g id="xtick_1">
     <g id="line2d_1">
      <defs>
       <path id="mfdaaa12a4e" d="M 0 0 
L 0 3.5 
" style="stroke: #000000; stroke-width: 0.8"/>
      </defs>
      <g>
       <use xlink:href="#mfdaaa12a4e" x="68.775922" y="257.158895" style="stroke: #000000; stroke-width: 0.8"/>
      </g>
     </g>
     <g id="text_1">
      <!-- 0 -->
      <g transform="translate(65.594672 271.757332) scale(0.1 -0.1)">
       <defs>
        <path id="DejaVuSans-30" d="M 2034 4250 
Q 1547 4250 1301 3770 
Q 1056 3291 1056 2328 
Q 1056 1369 1301 889 
Q 1547 409 2034 409 
Q 2525 409 2770 889 
Q 3016 1369 3016 2328 
Q 3016 3291 2770 3770 
Q 2525 4250 2034 4250 
z
M 2034 4750 
Q 2819 4750 3233 4129 
Q 3647 3509 3647 2328 
Q 3647 1150 3233 529 
Q 2819 -91 2034 -91 
Q 1250 -91 836 529 
Q 422 1150 422 2328 
Q 422 3509 836 4129 
Q 1250 4750 2034 4750 
z
" transform="scale(0.015625)"/>
       </defs>
       <use xlink:href="#DejaVuSans-30"/>
      </g>
     </g>
    </g>
    <g id="xtick_2">
     <g id="line2d_2">
      <g>
       <use xlink:href="#mfdaaa12a4e" x="134.318245" y="257.158895" style="stroke: #000000; stroke-width: 0.8"/>
      </g>
     </g>
     <g id="text_2">
      <!-- 1000 -->
      <g transform="translate(121.593245 271.757332) scale(0.1 -0.1)">
       <defs>
        <path id="DejaVuSans-31" d="M 794 531 
L 1825 531 
L 1825 4091 
L 703 3866 
L 703 4441 
L 1819 4666 
L 2450 4666 
L 2450 531 
L 3481 531 
L 3481 0 
L 794 0 
L 794 531 
z
" transform="scale(0.015625)"/>
       </defs>
       <use xlink:href="#DejaVuSans-31"/>
       <use xlink:href="#DejaVuSans-30" transform="translate(63.623047 0)"/>
       <use xlink:href="#DejaVuSans-30" transform="translate(127.246094 0)"/>
       <use xlink:href="#DejaVuSans-30" transform="translate(190.869141 0)"/>
      </g>
     </g>
    </g>
    <g id="xtick_3">
     <g id="line2d_3">
      <g>
       <use xlink:href="#mfdaaa12a4e" x="199.860569" y="257.158895" style="stroke: #000000; stroke-width: 0.8"/>
      </g>
     </g>
     <g id="text_3">
      <!-- 2000 -->
      <g transform="translate(187.135569 271.757332) scale(0.1 -0.1)">
       <defs>
        <path id="DejaVuSans-32" d="M 1228 531 
L 3431 531 
L 3431 0 
L 469 0 
L 469 531 
Q 828 903 1448 1529 
Q 2069 2156 2228 2338 
Q 2531 2678 2651 2914 
Q 2772 3150 2772 3378 
Q 2772 3750 2511 3984 
Q 2250 4219 1831 4219 
Q 1534 4219 1204 4116 
Q 875 4013 500 3803 
L 500 4441 
Q 881 4594 1212 4672 
Q 1544 4750 1819 4750 
Q 2544 4750 2975 4387 
Q 3406 4025 3406 3419 
Q 3406 3131 3298 2873 
Q 3191 2616 2906 2266 
Q 2828 2175 2409 1742 
Q 1991 1309 1228 531 
z
" transform="scale(0.015625)"/>
       </defs>
       <use xlink:href="#DejaVuSans-32"/>
       <use xlink:href="#DejaVuSans-30" transform="translate(63.623047 0)"/>
       <use xlink:href="#DejaVuSans-30" transform="translate(127.246094 0)"/>
       <use xlink:href="#DejaVuSans-30" transform="translate(190.869141 0)"/>
      </g>
     </g>
    </g>
    <g id="xtick_4">
     <g id="line2d_4">
      <g>
       <use xlink:href="#mfdaaa12a4e" x="265.402892" y="257.158895" style="stroke: #000000; stroke-width: 0.8"/>
      </g>
     </g>
     <g id="text_4">
      <!-- 3000 -->
      <g transform="translate(252.677892 271.757332) scale(0.1 -0.1)">
       <defs>
        <path id="DejaVuSans-33" d="M 2597 2516 
Q 3050 2419 3304 2112 
Q 3559 1806 3559 1356 
Q 3559 666 3084 287 
Q 2609 -91 1734 -91 
Q 1441 -91 1130 -33 
Q 819 25 488 141 
L 488 750 
Q 750 597 1062 519 
Q 1375 441 1716 441 
Q 2309 441 2620 675 
Q 2931 909 2931 1356 
Q 2931 1769 2642 2001 
Q 2353 2234 1838 2234 
L 1294 2234 
L 1294 2753 
L 1863 2753 
Q 2328 2753 2575 2939 
Q 2822 3125 2822 3475 
Q 2822 3834 2567 4026 
Q 2313 4219 1838 4219 
Q 1578 4219 1281 4162 
Q 984 4106 628 3988 
L 628 4550 
Q 988 4650 1302 4700 
Q 1616 4750 1894 4750 
Q 2613 4750 3031 4423 
Q 3450 4097 3450 3541 
Q 3450 3153 3228 2886 
Q 3006 2619 2597 2516 
z
" transform="scale(0.015625)"/>
       </defs>
       <use xlink:href="#DejaVuSans-33"/>
       <use xlink:href="#DejaVuSans-30" transform="translate(63.623047 0)"/>
       <use xlink:href="#DejaVuSans-30" transform="translate(127.246094 0)"/>
       <use xlink:href="#DejaVuSans-30" transform="translate(190.869141 0)"/>
      </g>
     </g>
    </g>
    <g id="xtick_5">
     <g id="line2d_5">
      <g>
       <use xlink:href="#mfdaaa12a4e" x="330.945216" y="257.158895" style="stroke: #000000; stroke-width: 0.8"/>
      </g>
     </g>
     <g id="text_5">
      <!-- 4000 -->
      <g transform="translate(318.220216 271.757332) scale(0.1 -0.1)">
       <defs>
        <path id="DejaVuSans-34" d="M 2419 4116 
L 825 1625 
L 2419 1625 
L 2419 4116 
z
M 2253 4666 
L 3047 4666 
L 3047 1625 
L 3713 1625 
L 3713 1100 
L 3047 1100 
L 3047 0 
L 2419 0 
L 2419 1100 
L 313 1100 
L 313 1709 
L 2253 4666 
z
" transform="scale(0.015625)"/>
       </defs>
       <use xlink:href="#DejaVuSans-34"/>
       <use xlink:href="#DejaVuSans-30" transform="translate(63.623047 0)"/>
       <use xlink:href="#DejaVuSans-30" transform="translate(127.246094 0)"/>
       <use xlink:href="#DejaVuSans-30" transform="translate(190.869141 0)"/>
      </g>
     </g>
    </g>
    <g id="xtick_6">
     <g id="line2d_6">
      <g>
       <use xlink:href="#mfdaaa12a4e" x="396.487539" y="257.158895" style="stroke: #000000; stroke-width: 0.8"/>
      </g>
     </g>
     <g id="text_6">
      <!-- 5000 -->
      <g transform="translate(383.762539 271.757332) scale(0.1 -0.1)">
       <defs>
        <path id="DejaVuSans-35" d="M 691 4666 
L 3169 4666 
L 3169 4134 
L 1269 4134 
L 1269 2991 
Q 1406 3038 1543 3061 
Q 1681 3084 1819 3084 
Q 2600 3084 3056 2656 
Q 3513 2228 3513 1497 
Q 3513 744 3044 326 
Q 2575 -91 1722 -91 
Q 1428 -91 1123 -41 
Q 819 9 494 109 
L 494 744 
Q 775 591 1075 516 
Q 1375 441 1709 441 
Q 2250 441 2565 725 
Q 2881 1009 2881 1497 
Q 2881 1984 2565 2268 
Q 2250 2553 1709 2553 
Q 1456 2553 1204 2497 
Q 953 2441 691 2322 
L 691 4666 
z
" transform="scale(0.015625)"/>
       </defs>
       <use xlink:href="#DejaVuSans-35"/>
       <use xlink:href="#DejaVuSans-30" transform="translate(63.623047 0)"/>
       <use xlink:href="#DejaVuSans-30" transform="translate(127.246094 0)"/>
       <use xlink:href="#DejaVuSans-30" transform="translate(190.869141 0)"/>
      </g>
     </g>
    </g>
    <g id="text_7">
     <!-- birth_time [µs] -->
     <g transform="translate(195.553005 285.435457) scale(0.1 -0.1)">
      <defs>
       <path id="DejaVuSans-62" d="M 3116 1747 
Q 3116 2381 2855 2742 
Q 2594 3103 2138 3103 
Q 1681 3103 1420 2742 
Q 1159 2381 1159 1747 
Q 1159 1113 1420 752 
Q 1681 391 2138 391 
Q 2594 391 2855 752 
Q 3116 1113 3116 1747 
z
M 1159 2969 
Q 1341 3281 1617 3432 
Q 1894 3584 2278 3584 
Q 2916 3584 3314 3078 
Q 3713 2572 3713 1747 
Q 3713 922 3314 415 
Q 2916 -91 2278 -91 
Q 1894 -91 1617 61 
Q 1341 213 1159 525 
L 1159 0 
L 581 0 
L 581 4863 
L 1159 4863 
L 1159 2969 
z
" transform="scale(0.015625)"/>
       <path id="DejaVuSans-69" d="M 603 3500 
L 1178 3500 
L 1178 0 
L 603 0 
L 603 3500 
z
M 603 4863 
L 1178 4863 
L 1178 4134 
L 603 4134 
L 603 4863 
z
" transform="scale(0.015625)"/>
       <path id="DejaVuSans-72" d="M 2631 2963 
Q 2534 3019 2420 3045 
Q 2306 3072 2169 3072 
Q 1681 3072 1420 2755 
Q 1159 2438 1159 1844 
L 1159 0 
L 581 0 
L 581 3500 
L 1159 3500 
L 1159 2956 
Q 1341 3275 1631 3429 
Q 1922 3584 2338 3584 
Q 2397 3584 2469 3576 
Q 2541 3569 2628 3553 
L 2631 2963 
z
" transform="scale(0.015625)"/>
       <path id="DejaVuSans-74" d="M 1172 4494 
L 1172 3500 
L 2356 3500 
L 2356 3053 
L 1172 3053 
L 1172 1153 
Q 1172 725 1289 603 
Q 1406 481 1766 481 
L 2356 481 
L 2356 0 
L 1766 0 
Q 1100 0 847 248 
Q 594 497 594 1153 
L 594 3053 
L 172 3053 
L 172 3500 
L 594 3500 
L 594 4494 
L 1172 4494 
z
" transform="scale(0.015625)"/>
       <path id="DejaVuSans-68" d="M 3513 2113 
L 3513 0 
L 2938 0 
L 2938 2094 
Q 2938 2591 2744 2837 
Q 2550 3084 2163 3084 
Q 1697 3084 1428 2787 
Q 1159 2491 1159 1978 
L 1159 0 
L 581 0 
L 581 4863 
L 1159 4863 
L 1159 2956 
Q 1366 3272 1645 3428 
Q 1925 3584 2291 3584 
Q 2894 3584 3203 3211 
Q 3513 2838 3513 2113 
z
" transform="scale(0.015625)"/>
       <path id="DejaVuSans-5f" d="M 3263 -1063 
L 3263 -1509 
L -63 -1509 
L -63 -1063 
L 3263 -1063 
z
" transform="scale(0.015625)"/>
       <path id="DejaVuSans-6d" d="M 3328 2828 
Q 3544 3216 3844 3400 
Q 4144 3584 4550 3584 
Q 5097 3584 5394 3201 
Q 5691 2819 5691 2113 
L 5691 0 
L 5113 0 
L 5113 2094 
Q 5113 2597 4934 2840 
Q 4756 3084 4391 3084 
Q 3944 3084 3684 2787 
Q 3425 2491 3425 1978 
L 3425 0 
L 2847 0 
L 2847 2094 
Q 2847 2600 2669 2842 
Q 2491 3084 2119 3084 
Q 1678 3084 1418 2786 
Q 1159 2488 1159 1978 
L 1159 0 
L 581 0 
L 581 3500 
L 1159 3500 
L 1159 2956 
Q 1356 3278 1631 3431 
Q 1906 3584 2284 3584 
Q 2666 3584 2933 3390 
Q 3200 3197 3328 2828 
z
" transform="scale(0.015625)"/>
       <path id="DejaVuSans-65" d="M 3597 1894 
L 3597 1613 
L 953 1613 
Q 991 1019 1311 708 
Q 1631 397 2203 397 
Q 2534 397 2845 478 
Q 3156 559 3463 722 
L 3463 178 
Q 3153 47 2828 -22 
Q 2503 -91 2169 -91 
Q 1331 -91 842 396 
Q 353 884 353 1716 
Q 353 2575 817 3079 
Q 1281 3584 2069 3584 
Q 2775 3584 3186 3129 
Q 3597 2675 3597 1894 
z
M 3022 2063 
Q 3016 2534 2758 2815 
Q 2500 3097 2075 3097 
Q 1594 3097 1305 2825 
Q 1016 2553 972 2059 
L 3022 2063 
z
" transform="scale(0.015625)"/>
       <path id="DejaVuSans-20" transform="scale(0.015625)"/>
       <path id="DejaVuSans-5b" d="M 550 4863 
L 1875 4863 
L 1875 4416 
L 1125 4416 
L 1125 -397 
L 1875 -397 
L 1875 -844 
L 550 -844 
L 550 4863 
z
" transform="scale(0.015625)"/>
       <path id="DejaVuSans-b5" d="M 544 -1331 
L 544 3500 
L 1119 3500 
L 1119 1325 
Q 1119 872 1334 640 
Q 1550 409 1972 409 
Q 2434 409 2667 671 
Q 2900 934 2900 1459 
L 2900 3500 
L 3475 3500 
L 3475 806 
Q 3475 619 3529 530 
Q 3584 441 3700 441 
Q 3728 441 3778 458 
Q 3828 475 3916 513 
L 3916 50 
Q 3788 -22 3673 -56 
Q 3559 -91 3450 -91 
Q 3234 -91 3106 31 
Q 2978 153 2931 403 
Q 2775 156 2548 32 
Q 2322 -91 2016 -91 
Q 1697 -91 1473 31 
Q 1250 153 1119 397 
L 1119 -1331 
L 544 -1331 
z
" transform="scale(0.015625)"/>
       <path id="DejaVuSans-73" d="M 2834 3397 
L 2834 2853 
Q 2591 2978 2328 3040 
Q 2066 3103 1784 3103 
Q 1356 3103 1142 2972 
Q 928 2841 928 2578 
Q 928 2378 1081 2264 
Q 1234 2150 1697 2047 
L 1894 2003 
Q 2506 1872 2764 1633 
Q 3022 1394 3022 966 
Q 3022 478 2636 193 
Q 2250 -91 1575 -91 
Q 1294 -91 989 -36 
Q 684 19 347 128 
L 347 722 
Q 666 556 975 473 
Q 1284 391 1588 391 
Q 1994 391 2212 530 
Q 2431 669 2431 922 
Q 2431 1156 2273 1281 
Q 2116 1406 1581 1522 
L 1381 1569 
Q 847 1681 609 1914 
Q 372 2147 372 2553 
Q 372 3047 722 3315 
Q 1072 3584 1716 3584 
Q 2034 3584 2315 3537 
Q 2597 3491 2834 3397 
z
" transform="scale(0.015625)"/>
       <path id="DejaVuSans-5d" d="M 1947 4863 
L 1947 -844 
L 622 -844 
L 622 -397 
L 1369 -397 
L 1369 4416 
L 622 4416 
L 622 4863 
L 1947 4863 
z
" transform="scale(0.015625)"/>
      </defs>
      <use xlink:href="#DejaVuSans-62"/>
      <use xlink:href="#DejaVuSans-69" transform="translate(63.476562 0)"/>
      <use xlink:href="#DejaVuSans-72" transform="translate(91.259766 0)"/>
      <use xlink:href="#DejaVuSans-74" transform="translate(132.373047 0)"/>
      <use xlink:href="#DejaVuSans-68" transform="translate(171.582031 0)"/>
      <use xlink:href="#DejaVuSans-5f" transform="translate(234.960938 0)"/>
      <use xlink:href="#DejaVuSans-74" transform="translate(284.960938 0)"/>
      <use xlink:href="#DejaVuSans-69" transform="translate(324.169922 0)"/>
      <use xlink:href="#DejaVuSans-6d" transform="translate(351.953125 0)"/>
      <use xlink:href="#DejaVuSans-65" transform="translate(449.365234 0)"/>
      <use xlink:href="#DejaVuSans-20" transform="translate(510.888672 0)"/>
      <use xlink:href="#DejaVuSans-5b" transform="translate(542.675781 0)"/>
      <use xlink:href="#DejaVuSans-b5" transform="translate(581.689453 0)"/>
      <use xlink:href="#DejaVuSans-73" transform="translate(645.3125 0)"/>
      <use xlink:href="#DejaVuSans-5d" transform="translate(697.412109 0)"/>
     </g>
    </g>
   </g>
   <g id="matplotlib.axis_2">
    <g id="ytick_1">
     <g id="line2d_7">
      <defs>
       <path id="m033abeefc9" d="M 0 0 
L -3.5 0 
" style="stroke: #000000; stroke-width: 0.8"/>
      </defs>
      <g>
       <use xlink:href="#m033abeefc9" x="53.328125" y="246.019326" style="stroke: #000000; stroke-width: 0.8"/>
      </g>
     </g>
     <g id="text_8">
      <!-- 0 -->
      <g transform="translate(39.965625 249.818545) scale(0.1 -0.1)">
       <use xlink:href="#DejaVuSans-30"/>
      </g>
     </g>
    </g>
    <g id="ytick_2">
     <g id="line2d_8">
      <g>
       <use xlink:href="#m033abeefc9" x="53.328125" y="208.986184" style="stroke: #000000; stroke-width: 0.8"/>
      </g>
     </g>
     <g id="text_9">
      <!-- 500 -->
      <g transform="translate(27.240625 212.785403) scale(0.1 -0.1)">
       <use xlink:href="#DejaVuSans-35"/>
       <use xlink:href="#DejaVuSans-30" transform="translate(63.623047 0)"/>
       <use xlink:href="#DejaVuSans-30" transform="translate(127.246094 0)"/>
      </g>
     </g>
    </g>
    <g id="ytick_3">
     <g id="line2d_9">
      <g>
       <use xlink:href="#m033abeefc9" x="53.328125" y="171.953042" style="stroke: #000000; stroke-width: 0.8"/>
      </g>
     </g>
     <g id="text_10">
      <!-- 1000 -->
      <g transform="translate(20.878125 175.752261) scale(0.1 -0.1)">
       <use xlink:href="#DejaVuSans-31"/>
       <use xlink:href="#DejaVuSans-30" transform="translate(63.623047 0)"/>
       <use xlink:href="#DejaVuSans-30" transform="translate(127.246094 0)"/>
       <use xlink:href="#DejaVuSans-30" transform="translate(190.869141 0)"/>
      </g>
     </g>
    </g>
    <g id="ytick_4">
     <g id="line2d_10">
      <g>
       <use xlink:href="#m033abeefc9" x="53.328125" y="134.9199" style="stroke: #000000; stroke-width: 0.8"/>
      </g>
     </g>
     <g id="text_11">
      <!-- 1500 -->
      <g transform="translate(20.878125 138.719119) scale(0.1 -0.1)">
       <use xlink:href="#DejaVuSans-31"/>
       <use xlink:href="#DejaVuSans-35" transform="translate(63.623047 0)"/>
       <use xlink:href="#DejaVuSans-30" transform="translate(127.246094 0)"/>
       <use xlink:href="#DejaVuSans-30" transform="translate(190.869141 0)"/>
      </g>
     </g>
    </g>
    <g id="ytick_5">
     <g id="line2d_11">
      <g>
       <use xlink:href="#m033abeefc9" x="53.328125" y="97.886758" style="stroke: #000000; stroke-width: 0.8"/>
      </g>
     </g>
     <g id="text_12">
      <!-- 2000 -->
      <g transform="translate(20.878125 101.685977) scale(0.1 -0.1)">
       <use xlink:href="#DejaVuSans-32"/>
       <use xlink:href="#DejaVuSans-30" transform="translate(63.623047 0)"/>
       <use xlink:href="#DejaVuSans-30" transform="translate(127.246094 0)"/>
       <use xlink:href="#DejaVuSans-30" transform="translate(190.869141 0)"/>
      </g>
     </g>
    </g>
    <g id="ytick_6">
     <g id="line2d_12">
      <g>
       <use xlink:href="#m033abeefc9" x="53.328125" y="60.853616" style="stroke: #000000; stroke-width: 0.8"/>
      </g>
     </g>
     <g id="text_13">
      <!-- 2500 -->
      <g transform="translate(20.878125 64.652835) scale(0.1 -0.1)">
       <use xlink:href="#DejaVuSans-32"/>
       <use xlink:href="#DejaVuSans-35" transform="translate(63.623047 0)"/>
       <use xlink:href="#DejaVuSans-30" transform="translate(127.246094 0)"/>
       <use xlink:href="#DejaVuSans-30" transform="translate(190.869141 0)"/>
      </g>
     </g>
    </g>
    <g id="ytick_7">
     <g id="line2d_13">
      <g>
       <use xlink:href="#m033abeefc9" x="53.328125" y="23.820474" style="stroke: #000000; stroke-width: 0.8"/>
      </g>
     </g>
     <g id="text_14">
      <!-- 3000 -->
      <g transform="translate(20.878125 27.619693) scale(0.1 -0.1)">
       <use xlink:href="#DejaVuSans-33"/>
       <use xlink:href="#DejaVuSans-30" transform="translate(63.623047 0)"/>
       <use xlink:href="#DejaVuSans-30" transform="translate(127.246094 0)"/>
       <use xlink:href="#DejaVuSans-30" transform="translate(190.869141 0)"/>
      </g>
     </g>
    </g>
    <g id="text_15">
     <!-- pulse:0 [counts] -->
     <g transform="translate(14.798438 172.659916) rotate(-90) scale(0.1 -0.1)">
      <defs>
       <path id="DejaVuSans-70" d="M 1159 525 
L 1159 -1331 
L 581 -1331 
L 581 3500 
L 1159 3500 
L 1159 2969 
Q 1341 3281 1617 3432 
Q 1894 3584 2278 3584 
Q 2916 3584 3314 3078 
Q 3713 2572 3713 1747 
Q 3713 922 3314 415 
Q 2916 -91 2278 -91 
Q 1894 -91 1617 61 
Q 1341 213 1159 525 
z
M 3116 1747 
Q 3116 2381 2855 2742 
Q 2594 3103 2138 3103 
Q 1681 3103 1420 2742 
Q 1159 2381 1159 1747 
Q 1159 1113 1420 752 
Q 1681 391 2138 391 
Q 2594 391 2855 752 
Q 3116 1113 3116 1747 
z
" transform="scale(0.015625)"/>
       <path id="DejaVuSans-75" d="M 544 1381 
L 544 3500 
L 1119 3500 
L 1119 1403 
Q 1119 906 1312 657 
Q 1506 409 1894 409 
Q 2359 409 2629 706 
Q 2900 1003 2900 1516 
L 2900 3500 
L 3475 3500 
L 3475 0 
L 2900 0 
L 2900 538 
Q 2691 219 2414 64 
Q 2138 -91 1772 -91 
Q 1169 -91 856 284 
Q 544 659 544 1381 
z
M 1991 3584 
L 1991 3584 
z
" transform="scale(0.015625)"/>
       <path id="DejaVuSans-6c" d="M 603 4863 
L 1178 4863 
L 1178 0 
L 603 0 
L 603 4863 
z
" transform="scale(0.015625)"/>
       <path id="DejaVuSans-3a" d="M 750 794 
L 1409 794 
L 1409 0 
L 750 0 
L 750 794 
z
M 750 3309 
L 1409 3309 
L 1409 2516 
L 750 2516 
L 750 3309 
z
" transform="scale(0.015625)"/>
       <path id="DejaVuSans-63" d="M 3122 3366 
L 3122 2828 
Q 2878 2963 2633 3030 
Q 2388 3097 2138 3097 
Q 1578 3097 1268 2742 
Q 959 2388 959 1747 
Q 959 1106 1268 751 
Q 1578 397 2138 397 
Q 2388 397 2633 464 
Q 2878 531 3122 666 
L 3122 134 
Q 2881 22 2623 -34 
Q 2366 -91 2075 -91 
Q 1284 -91 818 406 
Q 353 903 353 1747 
Q 353 2603 823 3093 
Q 1294 3584 2113 3584 
Q 2378 3584 2631 3529 
Q 2884 3475 3122 3366 
z
" transform="scale(0.015625)"/>
       <path id="DejaVuSans-6f" d="M 1959 3097 
Q 1497 3097 1228 2736 
Q 959 2375 959 1747 
Q 959 1119 1226 758 
Q 1494 397 1959 397 
Q 2419 397 2687 759 
Q 2956 1122 2956 1747 
Q 2956 2369 2687 2733 
Q 2419 3097 1959 3097 
z
M 1959 3584 
Q 2709 3584 3137 3096 
Q 3566 2609 3566 1747 
Q 3566 888 3137 398 
Q 2709 -91 1959 -91 
Q 1206 -91 779 398 
Q 353 888 353 1747 
Q 353 2609 779 3096 
Q 1206 3584 1959 3584 
z
" transform="scale(0.015625)"/>
       <path id="DejaVuSans-6e" d="M 3513 2113 
L 3513 0 
L 2938 0 
L 2938 2094 
Q 2938 2591 2744 2837 
Q 2550 3084 2163 3084 
Q 1697 3084 1428 2787 
Q 1159 2491 1159 1978 
L 1159 0 
L 581 0 
L 581 3500 
L 1159 3500 
L 1159 2956 
Q 1366 3272 1645 3428 
Q 1925 3584 2291 3584 
Q 2894 3584 3203 3211 
Q 3513 2838 3513 2113 
z
" transform="scale(0.015625)"/>
      </defs>
      <use xlink:href="#DejaVuSans-70"/>
      <use xlink:href="#DejaVuSans-75" transform="translate(63.476562 0)"/>
      <use xlink:href="#DejaVuSans-6c" transform="translate(126.855469 0)"/>
      <use xlink:href="#DejaVuSans-73" transform="translate(154.638672 0)"/>
      <use xlink:href="#DejaVuSans-65" transform="translate(206.738281 0)"/>
      <use xlink:href="#DejaVuSans-3a" transform="translate(268.261719 0)"/>
      <use xlink:href="#DejaVuSans-30" transform="translate(301.953125 0)"/>
      <use xlink:href="#DejaVuSans-20" transform="translate(365.576172 0)"/>
      <use xlink:href="#DejaVuSans-5b" transform="translate(397.363281 0)"/>
      <use xlink:href="#DejaVuSans-63" transform="translate(436.376953 0)"/>
      <use xlink:href="#DejaVuSans-6f" transform="translate(491.357422 0)"/>
      <use xlink:href="#DejaVuSans-75" transform="translate(552.539062 0)"/>
      <use xlink:href="#DejaVuSans-6e" transform="translate(615.917969 0)"/>
      <use xlink:href="#DejaVuSans-74" transform="translate(679.296875 0)"/>
      <use xlink:href="#DejaVuSans-73" transform="translate(718.505859 0)"/>
      <use xlink:href="#DejaVuSans-5d" transform="translate(770.605469 0)"/>
     </g>
    </g>
   </g>
   <g id="line2d_14">
    <path d="M 69.604961 233.57619 
L 70.690083 233.57619 
L 70.690083 226.169562 
L 71.775205 226.169562 
L 71.775205 217.874138 
L 72.860328 217.874138 
L 72.860328 209.874979 
L 73.94545 209.874979 
L 73.94545 201.209224 
L 75.030573 201.209224 
L 75.030573 194.543259 
L 76.115695 194.543259 
L 76.115695 185.062774 
L 77.200817 185.062774 
L 77.200817 176.397019 
L 78.28594 176.397019 
L 78.28594 169.360722 
L 79.371062 169.360722 
L 79.371062 161.731895 
L 80.456184 161.731895 
L 80.456184 156.176923 
L 81.541307 156.176923 
L 81.541307 145.807644 
L 82.626429 145.807644 
L 82.626429 139.363877 
L 83.711552 139.363877 
L 83.711552 135.142099 
L 84.796674 135.142099 
L 84.796674 129.14273 
L 85.881796 129.14273 
L 85.881796 123.217427 
L 86.966919 123.217427 
L 86.966919 118.847516 
L 88.052041 118.847516 
L 88.052041 114.255407 
L 89.137163 114.255407 
L 89.137163 108.330104 
L 90.222286 108.330104 
L 90.222286 104.923055 
L 91.307408 104.923055 
L 91.307408 100.330945 
L 92.392531 100.330945 
L 92.392531 96.923896 
L 93.477653 96.923896 
L 93.477653 93.07245 
L 94.562775 93.07245 
L 94.562775 86.110219 
L 95.647898 86.110219 
L 95.647898 88.48034 
L 96.73302 88.48034 
L 96.73302 82.629104 
L 97.818143 82.629104 
L 97.818143 80.036784 
L 98.903265 80.036784 
L 98.903265 78.629524 
L 99.988387 78.629524 
L 99.988387 72.630155 
L 101.07351 72.630155 
L 101.07351 75.963138 
L 102.158632 75.963138 
L 102.158632 67.371449 
L 103.243754 67.371449 
L 103.243754 77.444464 
L 104.328877 77.444464 
L 104.328877 68.260244 
L 105.413999 68.260244 
L 105.413999 69.223106 
L 106.499122 69.223106 
L 106.499122 67.963979 
L 107.584244 67.963979 
L 107.584244 67.297383 
L 108.669366 67.297383 
L 108.669366 57.816898 
L 109.754489 57.816898 
L 109.754489 53.150723 
L 110.839611 53.150723 
L 110.839611 61.149881 
L 111.924733 61.149881 
L 111.924733 58.18723 
L 113.009856 58.18723 
L 113.009856 49.595541 
L 115.180101 49.595541 
L 115.180101 53.076656 
L 116.265223 53.076656 
L 116.265223 52.039728 
L 117.350345 52.039728 
L 117.350345 53.224789 
L 119.52059 53.150723 
L 119.52059 50.854668 
L 120.605712 50.854668 
L 120.605712 45.670028 
L 121.690835 45.670028 
L 121.690835 42.781443 
L 122.775957 42.781443 
L 122.775957 42.262979 
L 123.86108 42.262979 
L 123.86108 45.670028 
L 124.946202 45.670028 
L 124.946202 44.781232 
L 126.031324 44.781232 
L 126.031324 47.003221 
L 127.116447 47.003221 
L 127.116447 49.077077 
L 128.201569 49.077077 
L 128.201569 39.818791 
L 129.286692 39.818791 
L 129.286692 38.337466 
L 130.371814 38.337466 
L 130.371814 42.262979 
L 131.456936 42.262979 
L 131.456936 44.410901 
L 132.542059 44.410901 
L 132.542059 44.114636 
L 133.627181 44.114636 
L 133.627181 41.744515 
L 134.712303 41.744515 
L 134.712303 39.522526 
L 135.797426 39.522526 
L 135.797426 37.078339 
L 136.882548 37.078339 
L 136.882548 33.004693 
L 137.967671 33.004693 
L 137.967671 36.485809 
L 139.052793 36.485809 
L 139.052793 33.300958 
L 140.137915 33.300958 
L 140.137915 31.449301 
L 141.223038 31.449301 
L 141.223038 37.152405 
L 142.30816 37.152405 
L 142.30816 36.708008 
L 143.393282 36.708008 
L 143.393282 37.004273 
L 144.478405 37.004273 
L 144.478405 36.115477 
L 145.563527 36.115477 
L 145.563527 35.152616 
L 146.64865 35.152616 
L 146.64865 39.226261 
L 147.733772 39.226261 
L 147.733772 37.819002 
L 148.818894 37.819002 
L 148.818894 35.893278 
L 149.904017 35.893278 
L 149.904017 33.300958 
L 150.989139 33.300958 
L 150.989139 30.48644 
L 153.159384 30.412373 
L 153.159384 36.930206 
L 154.244506 36.930206 
L 154.244506 34.782284 
L 155.329629 34.782284 
L 155.329629 31.375235 
L 156.414751 31.375235 
L 156.414751 31.153036 
L 157.499873 31.153036 
L 157.499873 41.300117 
L 158.584996 41.300117 
L 158.584996 28.338517 
L 159.670118 28.338517 
L 159.670118 34.782284 
L 160.75524 34.782284 
L 160.75524 35.078549 
L 161.840363 35.078549 
L 161.840363 33.893489 
L 162.925485 33.893489 
L 162.925485 31.819633 
L 164.010608 31.819633 
L 164.010608 31.153036 
L 165.09573 31.153036 
L 165.09573 38.559665 
L 166.180852 38.559665 
L 166.180852 37.967134 
L 167.265975 37.967134 
L 167.265975 36.559875 
L 168.351097 36.559875 
L 168.351097 35.967345 
L 169.43622 35.967345 
L 169.43622 32.930627 
L 170.521342 32.930627 
L 170.521342 35.819212 
L 171.606464 35.819212 
L 171.606464 33.004693 
L 172.691587 33.004693 
L 172.691587 27.301589 
L 173.776709 27.301589 
L 173.776709 37.078339 
L 174.861831 37.078339 
L 174.861831 32.856561 
L 175.946954 32.856561 
L 175.946954 37.967134 
L 177.032076 37.967134 
L 177.032076 36.337676 
L 178.117199 36.337676 
L 178.117199 37.226472 
L 179.202321 37.226472 
L 179.202321 36.85614 
L 180.287443 36.85614 
L 180.287443 26.042463 
L 181.372566 26.042463 
L 181.372566 24.116739 
L 182.457688 24.116739 
L 182.457688 28.634783 
L 183.54281 28.634783 
L 183.54281 35.374814 
L 184.627933 35.374814 
L 184.627933 32.634362 
L 185.713055 32.634362 
L 185.713055 36.782074 
L 186.798178 36.782074 
L 186.798178 21.005955 
L 187.8833 21.005955 
L 187.8833 30.042042 
L 188.968422 30.042042 
L 188.968422 36.041411 
L 190.053545 36.041411 
L 190.053545 25.3018 
L 191.138667 25.3018 
L 191.138667 37.226472 
L 192.223789 37.226472 
L 192.223789 38.85593 
L 193.308912 38.85593 
L 193.308912 32.930627 
L 194.394034 32.930627 
L 194.394034 34.560085 
L 195.479157 34.560085 
L 195.479157 31.301169 
L 196.564279 31.301169 
L 196.564279 30.930837 
L 197.649401 30.930837 
L 197.649401 33.67129 
L 198.734524 33.67129 
L 198.734524 35.967345 
L 199.819646 35.967345 
L 199.819646 33.745356 
L 200.904769 33.745356 
L 200.904769 26.857192 
L 201.989891 26.857192 
L 201.989891 35.67108 
L 203.075013 35.67108 
L 203.075013 21.894751 
L 204.160136 21.894751 
L 204.160136 36.115477 
L 205.245258 36.115477 
L 205.245258 37.744935 
L 206.33038 37.744935 
L 206.33038 24.635203 
L 207.415503 24.635203 
L 207.415503 30.412373 
L 208.500625 30.412373 
L 208.500625 30.708639 
L 209.585748 30.708639 
L 209.585748 38.263399 
L 210.67087 38.263399 
L 210.67087 34.189754 
L 211.755992 34.189754 
L 211.755992 36.708008 
L 212.841115 36.708008 
L 212.841115 39.152195 
L 213.926237 39.152195 
L 213.926237 25.153667 
L 215.011359 25.153667 
L 215.011359 32.338097 
L 216.096482 32.338097 
L 216.096482 28.782915 
L 217.181604 28.782915 
L 217.181604 25.746197 
L 218.266727 25.746197 
L 218.266727 28.042252 
L 219.351849 28.042252 
L 219.351849 29.745777 
L 220.436971 29.745777 
L 220.436971 34.560085 
L 222.607216 34.634152 
L 222.607216 29.375445 
L 223.692338 29.375445 
L 223.692338 32.338097 
L 224.777461 32.338097 
L 224.777461 36.930206 
L 225.862583 36.930206 
L 225.862583 35.004483 
L 226.947706 35.004483 
L 226.947706 31.301169 
L 228.032828 31.301169 
L 228.032828 35.300748 
L 229.11795 35.300748 
L 229.11795 33.449091 
L 230.203073 33.449091 
L 230.203073 32.26403 
L 231.288195 32.26403 
L 231.288195 27.745987 
L 232.373317 27.745987 
L 232.373317 35.078549 
L 233.45844 35.078549 
L 233.45844 38.85593 
L 234.543562 38.85593 
L 234.543562 31.375235 
L 235.628685 31.375235 
L 235.628685 18.561768 
L 236.713807 18.561768 
L 236.713807 35.819212 
L 237.798929 35.819212 
L 237.798929 31.07897 
L 238.884052 31.07897 
L 238.884052 35.893278 
L 239.969174 35.893278 
L 239.969174 28.042252 
L 241.054297 28.042252 
L 241.054297 26.931258 
L 242.139419 26.931258 
L 242.139419 34.26382 
L 243.224541 34.26382 
L 243.224541 30.634572 
L 244.309664 30.634572 
L 244.309664 32.338097 
L 245.394786 32.338097 
L 245.394786 27.079391 
L 246.479908 27.079391 
L 246.479908 26.48686 
L 247.565031 26.48686 
L 247.565031 34.560085 
L 248.650153 34.560085 
L 248.650153 32.634362 
L 249.735276 32.634362 
L 249.735276 31.6715 
L 250.820398 31.6715 
L 250.820398 26.116529 
L 251.90552 26.116529 
L 251.90552 32.412163 
L 252.990643 32.412163 
L 252.990643 28.042252 
L 254.075765 28.042252 
L 254.075765 35.078549 
L 255.160887 35.078549 
L 255.160887 38.707797 
L 256.24601 38.707797 
L 256.24601 32.115898 
L 257.331132 32.115898 
L 257.331132 47.447619 
L 258.416255 47.447619 
L 258.416255 50.188071 
L 259.501377 50.188071 
L 259.501377 56.557772 
L 260.586499 56.557772 
L 260.586499 72.778288 
L 261.671622 72.778288 
L 261.671622 78.777657 
L 262.756744 78.777657 
L 262.756744 85.88802 
L 263.841866 85.88802 
L 263.841866 95.886968 
L 264.926989 95.886968 
L 264.926989 104.997121 
L 266.012111 104.997121 
L 266.012111 110.848358 
L 267.097234 110.848358 
L 267.097234 121.069505 
L 268.182356 121.069505 
L 268.182356 123.513692 
L 269.267478 123.513692 
L 269.267478 131.73505 
L 270.352601 131.73505 
L 270.352601 142.400595 
L 271.437723 142.400595 
L 271.437723 145.215113 
L 272.522846 145.215113 
L 272.522846 146.770505 
L 273.607968 146.770505 
L 273.607968 154.695598 
L 274.69309 154.695598 
L 274.69309 156.695387 
L 275.778213 156.695387 
L 275.778213 163.435419 
L 276.863335 163.435419 
L 276.863335 168.545993 
L 277.948457 168.545993 
L 277.948457 175.878555 
L 279.03358 175.878555 
L 279.03358 180.470665 
L 280.118702 180.470665 
L 280.118702 178.396809 
L 281.203825 178.396809 
L 281.203825 184.248045 
L 282.288947 184.248045 
L 282.288947 187.877293 
L 283.374069 187.877293 
L 283.374069 187.432895 
L 284.459192 187.432895 
L 284.459192 192.395336 
L 285.544314 192.395336 
L 285.544314 194.098861 
L 286.629436 194.098861 
L 286.629436 199.950097 
L 287.714559 199.950097 
L 287.714559 204.616273 
L 288.799681 204.616273 
L 288.799681 206.097599 
L 289.884804 206.097599 
L 289.884804 206.764195 
L 290.969926 206.764195 
L 290.969926 206.245731 
L 292.055048 206.245731 
L 292.055048 212.096968 
L 293.140171 212.096968 
L 293.140171 211.874769 
L 294.225293 211.874769 
L 294.225293 212.393233 
L 295.310415 212.393233 
L 295.310415 215.578083 
L 296.395538 215.578083 
L 296.395538 218.244469 
L 297.48066 218.244469 
L 297.48066 217.874138 
L 298.565783 217.874138 
L 298.565783 221.503386 
L 299.650905 221.503386 
L 299.650905 222.688446 
L 300.736027 222.688446 
L 300.736027 223.20691 
L 301.82115 223.20691 
L 301.82115 225.2067 
L 302.906272 225.2067 
L 302.906272 224.836369 
L 303.991394 224.836369 
L 303.991394 226.836158 
L 305.076517 226.836158 
L 305.076517 230.39134 
L 306.161639 230.39134 
L 306.161639 227.280556 
L 307.246762 227.280556 
L 307.246762 230.021009 
L 308.331884 230.021009 
L 308.331884 231.428268 
L 309.417006 231.428268 
L 309.417006 232.835527 
L 310.502129 232.835527 
L 310.502129 232.317063 
L 311.587251 232.317063 
L 311.587251 233.502124 
L 313.757496 233.57619 
L 313.757496 234.390919 
L 314.842618 234.390919 
L 314.842618 235.650046 
L 315.927741 235.650046 
L 315.927741 234.909383 
L 317.012863 234.909383 
L 317.012863 233.798389 
L 318.097985 233.798389 
L 318.097985 237.131372 
L 319.183108 237.131372 
L 319.183108 233.650256 
L 320.26823 233.650256 
L 320.26823 236.16851 
L 321.353353 236.16851 
L 321.353353 239.35336 
L 322.438475 239.35336 
L 322.438475 237.872035 
L 323.523597 237.872035 
L 323.523597 238.686764 
L 324.60872 238.686764 
L 324.60872 239.723692 
L 325.693842 239.723692 
L 325.693842 240.094023 
L 326.778964 240.094023 
L 326.778964 239.945891 
L 327.864087 239.945891 
L 327.864087 239.575559 
L 328.949209 239.575559 
L 328.949209 240.76062 
L 330.034332 240.76062 
L 330.034332 239.945891 
L 331.119454 239.945891 
L 331.119454 240.464355 
L 332.204576 240.464355 
L 332.204576 241.871614 
L 333.289699 241.871614 
L 333.289699 242.760409 
L 334.374821 242.760409 
L 334.374821 241.723481 
L 337.630188 241.723481 
L 337.630188 243.204807 
L 338.715311 243.204807 
L 338.715311 243.427006 
L 339.800433 243.427006 
L 339.800433 241.797548 
L 340.885555 241.797548 
L 340.885555 242.464144 
L 341.970678 242.464144 
L 341.970678 243.056675 
L 343.0558 243.056675 
L 343.0558 243.649205 
L 344.140923 243.649205 
L 344.140923 243.278873 
L 345.226045 243.278873 
L 345.226045 243.94547 
L 346.311167 243.94547 
L 346.311167 243.575139 
L 348.481412 243.575139 
L 348.481412 244.315801 
L 349.566534 244.315801 
L 349.566534 243.575139 
L 350.651657 243.575139 
L 350.651657 243.94547 
L 351.736779 243.94547 
L 351.736779 243.427006 
L 352.821902 243.427006 
L 352.821902 243.871404 
L 353.907024 243.871404 
L 353.907024 244.538 
L 354.992146 244.538 
L 354.992146 243.723271 
L 356.077269 243.723271 
L 356.077269 244.760199 
L 357.162391 244.760199 
L 357.162391 244.612067 
L 359.332636 244.538 
L 359.332636 244.908332 
L 362.588003 244.982398 
L 362.588003 245.056464 
L 363.673125 245.056464 
L 363.673125 245.204597 
L 364.758248 245.204597 
L 364.758248 244.982398 
L 365.84337 244.982398 
L 365.84337 245.204597 
L 366.928492 245.204597 
L 366.928492 245.352729 
L 368.013615 245.352729 
L 368.013615 245.056464 
L 370.18386 245.13053 
L 370.18386 245.352729 
L 371.268982 245.352729 
L 371.268982 245.204597 
L 372.354104 245.204597 
L 372.354104 245.352729 
L 373.439227 245.352729 
L 373.439227 245.500862 
L 374.524349 245.500862 
L 374.524349 245.352729 
L 375.609471 245.352729 
L 375.609471 245.500862 
L 377.779716 245.426796 
L 377.779716 245.13053 
L 378.864839 245.13053 
L 378.864839 245.574928 
L 381.035083 245.648994 
L 381.035083 245.278663 
L 382.120206 245.278663 
L 382.120206 245.797127 
L 383.205328 245.797127 
L 383.205328 245.352729 
L 384.290451 245.352729 
L 384.290451 245.723061 
L 385.375573 245.723061 
L 385.375573 245.500862 
L 387.545818 245.574928 
L 387.545818 245.723061 
L 389.716062 245.648994 
L 389.716062 245.500862 
L 391.886307 245.574928 
L 391.886307 245.723061 
L 394.056552 245.723061 
L 394.056552 245.574928 
L 395.141674 245.574928 
L 395.141674 245.574928 
" clip-path="url(#p89a5267eb4)" style="fill: none; stroke: #1f77b4; stroke-width: 1.5; stroke-linecap: square"/>
   </g>
   <g id="patch_3">
    <path d="M 53.328125 257.158895 
L 53.328125 7.2 
" style="fill: none; stroke: #000000; stroke-width: 0.8; stroke-linejoin: miter; stroke-linecap: square"/>
   </g>
   <g id="patch_4">
    <path d="M 411.41851 257.158895 
L 411.41851 7.2 
" style="fill: none; stroke: #000000; stroke-width: 0.8; stroke-linejoin: miter; stroke-linecap: square"/>
   </g>
   <g id="patch_5">
    <path d="M 53.328125 257.158895 
L 411.41851 257.158895 
" style="fill: none; stroke: #000000; stroke-width: 0.8; stroke-linejoin: miter; stroke-linecap: square"/>
   </g>
   <g id="patch_6">
    <path d="M 53.328125 7.2 
L 411.41851 7.2 
" style="fill: none; stroke: #000000; stroke-width: 0.8; stroke-linejoin: miter; stroke-linecap: square"/>
   </g>
  </g>
  <g id="axes_2">
   <g id="patch_7">
    <path d="M 507.109135 257.158895 
L 865.19952 257.158895 
L 865.19952 7.2 
L 507.109135 7.2 
z
" style="fill: #ffffff"/>
   </g>
   <g id="matplotlib.axis_3">
    <g id="xtick_7">
     <g id="line2d_15">
      <g>
       <use xlink:href="#mfdaaa12a4e" x="520.098336" y="257.158895" style="stroke: #000000; stroke-width: 0.8"/>
      </g>
     </g>
     <g id="text_16">
      <!-- 0.0 -->
      <g transform="translate(512.146774 271.757332) scale(0.1 -0.1)">
       <defs>
        <path id="DejaVuSans-2e" d="M 684 794 
L 1344 794 
L 1344 0 
L 684 0 
L 684 794 
z
" transform="scale(0.015625)"/>
       </defs>
       <use xlink:href="#DejaVuSans-30"/>
       <use xlink:href="#DejaVuSans-2e" transform="translate(63.623047 0)"/>
       <use xlink:href="#DejaVuSans-30" transform="translate(95.410156 0)"/>
      </g>
     </g>
    </g>
    <g id="xtick_8">
     <g id="line2d_16">
      <g>
       <use xlink:href="#mfdaaa12a4e" x="561.496727" y="257.158895" style="stroke: #000000; stroke-width: 0.8"/>
      </g>
     </g>
     <g id="text_17">
      <!-- 2.5 -->
      <g transform="translate(553.545164 271.757332) scale(0.1 -0.1)">
       <use xlink:href="#DejaVuSans-32"/>
       <use xlink:href="#DejaVuSans-2e" transform="translate(63.623047 0)"/>
       <use xlink:href="#DejaVuSans-35" transform="translate(95.410156 0)"/>
      </g>
     </g>
    </g>
    <g id="xtick_9">
     <g id="line2d_17">
      <g>
       <use xlink:href="#mfdaaa12a4e" x="602.895118" y="257.158895" style="stroke: #000000; stroke-width: 0.8"/>
      </g>
     </g>
     <g id="text_18">
      <!-- 5.0 -->
      <g transform="translate(594.943555 271.757332) scale(0.1 -0.1)">
       <use xlink:href="#DejaVuSans-35"/>
       <use xlink:href="#DejaVuSans-2e" transform="translate(63.623047 0)"/>
       <use xlink:href="#DejaVuSans-30" transform="translate(95.410156 0)"/>
      </g>
     </g>
    </g>
    <g id="xtick_10">
     <g id="line2d_18">
      <g>
       <use xlink:href="#mfdaaa12a4e" x="644.293508" y="257.158895" style="stroke: #000000; stroke-width: 0.8"/>
      </g>
     </g>
     <g id="text_19">
      <!-- 7.5 -->
      <g transform="translate(636.341946 271.757332) scale(0.1 -0.1)">
       <defs>
        <path id="DejaVuSans-37" d="M 525 4666 
L 3525 4666 
L 3525 4397 
L 1831 0 
L 1172 0 
L 2766 4134 
L 525 4134 
L 525 4666 
z
" transform="scale(0.015625)"/>
       </defs>
       <use xlink:href="#DejaVuSans-37"/>
       <use xlink:href="#DejaVuSans-2e" transform="translate(63.623047 0)"/>
       <use xlink:href="#DejaVuSans-35" transform="translate(95.410156 0)"/>
      </g>
     </g>
    </g>
    <g id="xtick_11">
     <g id="line2d_19">
      <g>
       <use xlink:href="#mfdaaa12a4e" x="685.691899" y="257.158895" style="stroke: #000000; stroke-width: 0.8"/>
      </g>
     </g>
     <g id="text_20">
      <!-- 10.0 -->
      <g transform="translate(674.559086 271.757332) scale(0.1 -0.1)">
       <use xlink:href="#DejaVuSans-31"/>
       <use xlink:href="#DejaVuSans-30" transform="translate(63.623047 0)"/>
       <use xlink:href="#DejaVuSans-2e" transform="translate(127.246094 0)"/>
       <use xlink:href="#DejaVuSans-30" transform="translate(159.033203 0)"/>
      </g>
     </g>
    </g>
    <g id="xtick_12">
     <g id="line2d_20">
      <g>
       <use xlink:href="#mfdaaa12a4e" x="727.09029" y="257.158895" style="stroke: #000000; stroke-width: 0.8"/>
      </g>
     </g>
     <g id="text_21">
      <!-- 12.5 -->
      <g transform="translate(715.957477 271.757332) scale(0.1 -0.1)">
       <use xlink:href="#DejaVuSans-31"/>
       <use xlink:href="#DejaVuSans-32" transform="translate(63.623047 0)"/>
       <use xlink:href="#DejaVuSans-2e" transform="translate(127.246094 0)"/>
       <use xlink:href="#DejaVuSans-35" transform="translate(159.033203 0)"/>
      </g>
     </g>
    </g>
    <g id="xtick_13">
     <g id="line2d_21">
      <g>
       <use xlink:href="#mfdaaa12a4e" x="768.48868" y="257.158895" style="stroke: #000000; stroke-width: 0.8"/>
      </g>
     </g>
     <g id="text_22">
      <!-- 15.0 -->
      <g transform="translate(757.355868 271.757332) scale(0.1 -0.1)">
       <use xlink:href="#DejaVuSans-31"/>
       <use xlink:href="#DejaVuSans-35" transform="translate(63.623047 0)"/>
       <use xlink:href="#DejaVuSans-2e" transform="translate(127.246094 0)"/>
       <use xlink:href="#DejaVuSans-30" transform="translate(159.033203 0)"/>
      </g>
     </g>
    </g>
    <g id="xtick_14">
     <g id="line2d_22">
      <g>
       <use xlink:href="#mfdaaa12a4e" x="809.887071" y="257.158895" style="stroke: #000000; stroke-width: 0.8"/>
      </g>
     </g>
     <g id="text_23">
      <!-- 17.5 -->
      <g transform="translate(798.754259 271.757332) scale(0.1 -0.1)">
       <use xlink:href="#DejaVuSans-31"/>
       <use xlink:href="#DejaVuSans-37" transform="translate(63.623047 0)"/>
       <use xlink:href="#DejaVuSans-2e" transform="translate(127.246094 0)"/>
       <use xlink:href="#DejaVuSans-35" transform="translate(159.033203 0)"/>
      </g>
     </g>
    </g>
    <g id="xtick_15">
     <g id="line2d_23">
      <g>
       <use xlink:href="#mfdaaa12a4e" x="851.285462" y="257.158895" style="stroke: #000000; stroke-width: 0.8"/>
      </g>
     </g>
     <g id="text_24">
      <!-- 20.0 -->
      <g transform="translate(840.152649 271.757332) scale(0.1 -0.1)">
       <use xlink:href="#DejaVuSans-32"/>
       <use xlink:href="#DejaVuSans-30" transform="translate(63.623047 0)"/>
       <use xlink:href="#DejaVuSans-2e" transform="translate(127.246094 0)"/>
       <use xlink:href="#DejaVuSans-30" transform="translate(159.033203 0)"/>
      </g>
     </g>
    </g>
    <g id="text_25">
     <!-- wavelength [Å] -->
     <g transform="translate(648.116827 287.119832) scale(0.1 -0.1)">
      <defs>
       <path id="DejaVuSans-77" d="M 269 3500 
L 844 3500 
L 1563 769 
L 2278 3500 
L 2956 3500 
L 3675 769 
L 4391 3500 
L 4966 3500 
L 4050 0 
L 3372 0 
L 2619 2869 
L 1863 0 
L 1184 0 
L 269 3500 
z
" transform="scale(0.015625)"/>
       <path id="DejaVuSans-61" d="M 2194 1759 
Q 1497 1759 1228 1600 
Q 959 1441 959 1056 
Q 959 750 1161 570 
Q 1363 391 1709 391 
Q 2188 391 2477 730 
Q 2766 1069 2766 1631 
L 2766 1759 
L 2194 1759 
z
M 3341 1997 
L 3341 0 
L 2766 0 
L 2766 531 
Q 2569 213 2275 61 
Q 1981 -91 1556 -91 
Q 1019 -91 701 211 
Q 384 513 384 1019 
Q 384 1609 779 1909 
Q 1175 2209 1959 2209 
L 2766 2209 
L 2766 2266 
Q 2766 2663 2505 2880 
Q 2244 3097 1772 3097 
Q 1472 3097 1187 3025 
Q 903 2953 641 2809 
L 641 3341 
Q 956 3463 1253 3523 
Q 1550 3584 1831 3584 
Q 2591 3584 2966 3190 
Q 3341 2797 3341 1997 
z
" transform="scale(0.015625)"/>
       <path id="DejaVuSans-76" d="M 191 3500 
L 800 3500 
L 1894 563 
L 2988 3500 
L 3597 3500 
L 2284 0 
L 1503 0 
L 191 3500 
z
" transform="scale(0.015625)"/>
       <path id="DejaVuSans-67" d="M 2906 1791 
Q 2906 2416 2648 2759 
Q 2391 3103 1925 3103 
Q 1463 3103 1205 2759 
Q 947 2416 947 1791 
Q 947 1169 1205 825 
Q 1463 481 1925 481 
Q 2391 481 2648 825 
Q 2906 1169 2906 1791 
z
M 3481 434 
Q 3481 -459 3084 -895 
Q 2688 -1331 1869 -1331 
Q 1566 -1331 1297 -1286 
Q 1028 -1241 775 -1147 
L 775 -588 
Q 1028 -725 1275 -790 
Q 1522 -856 1778 -856 
Q 2344 -856 2625 -561 
Q 2906 -266 2906 331 
L 2906 616 
Q 2728 306 2450 153 
Q 2172 0 1784 0 
Q 1141 0 747 490 
Q 353 981 353 1791 
Q 353 2603 747 3093 
Q 1141 3584 1784 3584 
Q 2172 3584 2450 3431 
Q 2728 3278 2906 2969 
L 2906 3500 
L 3481 3500 
L 3481 434 
z
" transform="scale(0.015625)"/>
       <path id="DejaVuSans-c5" d="M 2663 5081 
Q 2663 5278 2523 5417 
Q 2384 5556 2188 5556 
Q 1988 5556 1852 5420 
Q 1716 5284 1716 5081 
Q 1716 4884 1853 4746 
Q 1991 4609 2188 4609 
Q 2384 4609 2523 4746 
Q 2663 4884 2663 5081 
z
M 2188 4044 
L 1338 1722 
L 3041 1722 
L 2188 4044 
z
M 1716 4366 
Q 1525 4494 1428 4673 
Q 1331 4853 1331 5081 
Q 1331 5441 1579 5691 
Q 1828 5941 2188 5941 
Q 2544 5941 2795 5689 
Q 3047 5438 3047 5081 
Q 3047 4863 2948 4678 
Q 2850 4494 2663 4366 
L 4325 0 
L 3669 0 
L 3244 1197 
L 1141 1197 
L 716 0 
L 50 0 
L 1716 4366 
z
" transform="scale(0.015625)"/>
      </defs>
      <use xlink:href="#DejaVuSans-77"/>
      <use xlink:href="#DejaVuSans-61" transform="translate(81.787109 0)"/>
      <use xlink:href="#DejaVuSans-76" transform="translate(143.066406 0)"/>
      <use xlink:href="#DejaVuSans-65" transform="translate(202.246094 0)"/>
      <use xlink:href="#DejaVuSans-6c" transform="translate(263.769531 0)"/>
      <use xlink:href="#DejaVuSans-65" transform="translate(291.552734 0)"/>
      <use xlink:href="#DejaVuSans-6e" transform="translate(353.076172 0)"/>
      <use xlink:href="#DejaVuSans-67" transform="translate(416.455078 0)"/>
      <use xlink:href="#DejaVuSans-74" transform="translate(479.931641 0)"/>
      <use xlink:href="#DejaVuSans-68" transform="translate(519.140625 0)"/>
      <use xlink:href="#DejaVuSans-20" transform="translate(582.519531 0)"/>
      <use xlink:href="#DejaVuSans-5b" transform="translate(614.306641 0)"/>
      <use xlink:href="#DejaVuSans-c5" transform="translate(653.320312 0)"/>
      <use xlink:href="#DejaVuSans-5d" transform="translate(721.728516 0)"/>
     </g>
    </g>
   </g>
   <g id="matplotlib.axis_4">
    <g id="ytick_8">
     <g id="line2d_24">
      <g>
       <use xlink:href="#m033abeefc9" x="507.109135" y="245.818322" style="stroke: #000000; stroke-width: 0.8"/>
      </g>
     </g>
     <g id="text_26">
      <!-- 0 -->
      <g transform="translate(493.746635 249.617541) scale(0.1 -0.1)">
       <use xlink:href="#DejaVuSans-30"/>
      </g>
     </g>
    </g>
    <g id="ytick_9">
     <g id="line2d_25">
      <g>
       <use xlink:href="#m033abeefc9" x="507.109135" y="203.42762" style="stroke: #000000; stroke-width: 0.8"/>
      </g>
     </g>
     <g id="text_27">
      <!-- 2000 -->
      <g transform="translate(474.659135 207.226839) scale(0.1 -0.1)">
       <use xlink:href="#DejaVuSans-32"/>
       <use xlink:href="#DejaVuSans-30" transform="translate(63.623047 0)"/>
       <use xlink:href="#DejaVuSans-30" transform="translate(127.246094 0)"/>
       <use xlink:href="#DejaVuSans-30" transform="translate(190.869141 0)"/>
      </g>
     </g>
    </g>
    <g id="ytick_10">
     <g id="line2d_26">
      <g>
       <use xlink:href="#m033abeefc9" x="507.109135" y="161.036918" style="stroke: #000000; stroke-width: 0.8"/>
      </g>
     </g>
     <g id="text_28">
      <!-- 4000 -->
      <g transform="translate(474.659135 164.836137) scale(0.1 -0.1)">
       <use xlink:href="#DejaVuSans-34"/>
       <use xlink:href="#DejaVuSans-30" transform="translate(63.623047 0)"/>
       <use xlink:href="#DejaVuSans-30" transform="translate(127.246094 0)"/>
       <use xlink:href="#DejaVuSans-30" transform="translate(190.869141 0)"/>
      </g>
     </g>
    </g>
    <g id="ytick_11">
     <g id="line2d_27">
      <g>
       <use xlink:href="#m033abeefc9" x="507.109135" y="118.646216" style="stroke: #000000; stroke-width: 0.8"/>
      </g>
     </g>
     <g id="text_29">
      <!-- 6000 -->
      <g transform="translate(474.659135 122.445435) scale(0.1 -0.1)">
       <defs>
        <path id="DejaVuSans-36" d="M 2113 2584 
Q 1688 2584 1439 2293 
Q 1191 2003 1191 1497 
Q 1191 994 1439 701 
Q 1688 409 2113 409 
Q 2538 409 2786 701 
Q 3034 994 3034 1497 
Q 3034 2003 2786 2293 
Q 2538 2584 2113 2584 
z
M 3366 4563 
L 3366 3988 
Q 3128 4100 2886 4159 
Q 2644 4219 2406 4219 
Q 1781 4219 1451 3797 
Q 1122 3375 1075 2522 
Q 1259 2794 1537 2939 
Q 1816 3084 2150 3084 
Q 2853 3084 3261 2657 
Q 3669 2231 3669 1497 
Q 3669 778 3244 343 
Q 2819 -91 2113 -91 
Q 1303 -91 875 529 
Q 447 1150 447 2328 
Q 447 3434 972 4092 
Q 1497 4750 2381 4750 
Q 2619 4750 2861 4703 
Q 3103 4656 3366 4563 
z
" transform="scale(0.015625)"/>
       </defs>
       <use xlink:href="#DejaVuSans-36"/>
       <use xlink:href="#DejaVuSans-30" transform="translate(63.623047 0)"/>
       <use xlink:href="#DejaVuSans-30" transform="translate(127.246094 0)"/>
       <use xlink:href="#DejaVuSans-30" transform="translate(190.869141 0)"/>
      </g>
     </g>
    </g>
    <g id="ytick_12">
     <g id="line2d_28">
      <g>
       <use xlink:href="#m033abeefc9" x="507.109135" y="76.255514" style="stroke: #000000; stroke-width: 0.8"/>
      </g>
     </g>
     <g id="text_30">
      <!-- 8000 -->
      <g transform="translate(474.659135 80.054732) scale(0.1 -0.1)">
       <defs>
        <path id="DejaVuSans-38" d="M 2034 2216 
Q 1584 2216 1326 1975 
Q 1069 1734 1069 1313 
Q 1069 891 1326 650 
Q 1584 409 2034 409 
Q 2484 409 2743 651 
Q 3003 894 3003 1313 
Q 3003 1734 2745 1975 
Q 2488 2216 2034 2216 
z
M 1403 2484 
Q 997 2584 770 2862 
Q 544 3141 544 3541 
Q 544 4100 942 4425 
Q 1341 4750 2034 4750 
Q 2731 4750 3128 4425 
Q 3525 4100 3525 3541 
Q 3525 3141 3298 2862 
Q 3072 2584 2669 2484 
Q 3125 2378 3379 2068 
Q 3634 1759 3634 1313 
Q 3634 634 3220 271 
Q 2806 -91 2034 -91 
Q 1263 -91 848 271 
Q 434 634 434 1313 
Q 434 1759 690 2068 
Q 947 2378 1403 2484 
z
M 1172 3481 
Q 1172 3119 1398 2916 
Q 1625 2713 2034 2713 
Q 2441 2713 2670 2916 
Q 2900 3119 2900 3481 
Q 2900 3844 2670 4047 
Q 2441 4250 2034 4250 
Q 1625 4250 1398 4047 
Q 1172 3844 1172 3481 
z
" transform="scale(0.015625)"/>
       </defs>
       <use xlink:href="#DejaVuSans-38"/>
       <use xlink:href="#DejaVuSans-30" transform="translate(63.623047 0)"/>
       <use xlink:href="#DejaVuSans-30" transform="translate(127.246094 0)"/>
       <use xlink:href="#DejaVuSans-30" transform="translate(190.869141 0)"/>
      </g>
     </g>
    </g>
    <g id="ytick_13">
     <g id="line2d_29">
      <g>
       <use xlink:href="#m033abeefc9" x="507.109135" y="33.864811" style="stroke: #000000; stroke-width: 0.8"/>
      </g>
     </g>
     <g id="text_31">
      <!-- 10000 -->
      <g transform="translate(468.296635 37.66403) scale(0.1 -0.1)">
       <use xlink:href="#DejaVuSans-31"/>
       <use xlink:href="#DejaVuSans-30" transform="translate(63.623047 0)"/>
       <use xlink:href="#DejaVuSans-30" transform="translate(127.246094 0)"/>
       <use xlink:href="#DejaVuSans-30" transform="translate(190.869141 0)"/>
       <use xlink:href="#DejaVuSans-30" transform="translate(254.492188 0)"/>
      </g>
     </g>
    </g>
    <g id="text_32">
     <!-- pulse:0 [counts] -->
     <g transform="translate(462.216947 172.659916) rotate(-90) scale(0.1 -0.1)">
      <use xlink:href="#DejaVuSans-70"/>
      <use xlink:href="#DejaVuSans-75" transform="translate(63.476562 0)"/>
      <use xlink:href="#DejaVuSans-6c" transform="translate(126.855469 0)"/>
      <use xlink:href="#DejaVuSans-73" transform="translate(154.638672 0)"/>
      <use xlink:href="#DejaVuSans-65" transform="translate(206.738281 0)"/>
      <use xlink:href="#DejaVuSans-3a" transform="translate(268.261719 0)"/>
      <use xlink:href="#DejaVuSans-30" transform="translate(301.953125 0)"/>
      <use xlink:href="#DejaVuSans-20" transform="translate(365.576172 0)"/>
      <use xlink:href="#DejaVuSans-5b" transform="translate(397.363281 0)"/>
      <use xlink:href="#DejaVuSans-63" transform="translate(436.376953 0)"/>
      <use xlink:href="#DejaVuSans-6f" transform="translate(491.357422 0)"/>
      <use xlink:href="#DejaVuSans-75" transform="translate(552.539062 0)"/>
      <use xlink:href="#DejaVuSans-6e" transform="translate(615.917969 0)"/>
      <use xlink:href="#DejaVuSans-74" transform="translate(679.296875 0)"/>
      <use xlink:href="#DejaVuSans-73" transform="translate(718.505859 0)"/>
      <use xlink:href="#DejaVuSans-5d" transform="translate(770.605469 0)"/>
     </g>
    </g>
   </g>
   <g id="line2d_30">
    <path d="M 523.385971 155.780471 
L 524.471093 155.780471 
L 524.471093 145.712679 
L 525.556215 145.712679 
L 525.556215 137.722032 
L 526.641338 137.722032 
L 526.641338 139.460051 
L 527.72646 139.460051 
L 527.72646 146.412126 
L 528.811583 146.412126 
L 528.811583 147.471893 
L 529.896705 147.471893 
L 529.896705 144.080637 
L 530.981827 144.080637 
L 530.981827 126.403714 
L 532.06695 126.403714 
L 532.06695 100.502995 
L 533.152072 100.502995 
L 533.152072 80.494584 
L 534.237194 80.494584 
L 534.237194 61.2704 
L 535.322317 61.2704 
L 535.322317 39.52397 
L 536.407439 39.52397 
L 536.407439 21.847047 
L 537.492562 21.847047 
L 537.492562 26.467634 
L 538.577684 26.467634 
L 538.577684 18.561768 
L 539.662806 18.561768 
L 539.662806 20.363373 
L 540.747929 20.363373 
L 540.747929 34.649039 
L 541.833051 34.649039 
L 541.833051 37.828342 
L 542.918173 37.828342 
L 542.918173 51.584125 
L 544.003296 51.584125 
L 544.003296 55.886781 
L 545.088418 55.886781 
L 545.088418 65.975768 
L 546.173541 65.975768 
L 546.173541 74.051197 
L 547.258663 74.051197 
L 547.258663 84.966803 
L 548.343785 84.966803 
L 548.343785 89.968906 
L 549.428908 89.968906 
L 549.428908 93.720483 
L 550.51403 93.720483 
L 550.51403 101.66874 
L 551.599153 101.66874 
L 551.599153 93.762874 
L 552.684275 93.762874 
L 552.684275 91.961269 
L 553.769397 91.961269 
L 553.769397 94.843837 
L 554.85452 94.843837 
L 554.85452 87.361878 
L 555.939642 87.361878 
L 555.939642 80.770123 
L 557.024764 80.770123 
L 557.024764 74.771839 
L 558.109887 74.771839 
L 558.109887 57.921535 
L 559.195009 57.921535 
L 559.195009 50.481967 
L 560.280132 50.481967 
L 560.280132 49.252636 
L 561.365254 49.252636 
L 561.365254 35.539244 
L 562.450376 35.539244 
L 562.450376 35.094142 
L 563.535499 35.094142 
L 563.535499 43.105985 
L 564.620621 43.105985 
L 564.620621 48.023306 
L 565.705743 48.023306 
L 565.705743 56.776986 
L 566.790866 56.776986 
L 566.790866 71.868076 
L 567.875988 71.868076 
L 567.875988 77.357672 
L 568.961111 77.357672 
L 568.961111 86.747212 
L 570.046233 86.747212 
L 570.046233 100.185065 
L 571.131355 100.185065 
L 571.131355 100.884512 
L 572.216478 100.884512 
L 572.216478 108.769182 
L 573.3016 108.769182 
L 573.3016 117.819597 
L 574.386722 117.819597 
L 574.386722 120.278258 
L 575.471845 120.278258 
L 575.471845 129.201501 
L 576.556967 129.201501 
L 576.556967 136.810632 
L 577.64209 136.810632 
L 577.64209 142.024688 
L 578.727212 142.024688 
L 578.727212 145.543116 
L 579.812334 145.543116 
L 579.812334 153.936475 
L 580.897457 153.936475 
L 580.897457 155.441345 
L 581.982579 155.441345 
L 581.982579 158.790211 
L 583.067702 158.790211 
L 583.067702 166.123802 
L 584.152824 166.123802 
L 584.152824 166.992812 
L 585.237946 166.992812 
L 585.237946 171.125905 
L 586.323069 171.125905 
L 586.323069 176.128008 
L 587.408191 176.128008 
L 587.408191 177.972004 
L 588.493313 177.972004 
L 588.493313 181.193697 
L 589.578436 181.193697 
L 589.578436 186.216995 
L 590.663558 186.216995 
L 590.663558 187.128395 
L 591.748681 187.128395 
L 591.748681 189.459884 
L 592.833803 189.459884 
L 592.833803 192.5756 
L 593.918925 192.5756 
L 593.918925 196.411959 
L 595.004048 196.411959 
L 595.004048 197.514117 
L 596.08917 197.514117 
L 596.08917 200.862983 
L 597.174292 200.862983 
L 597.174292 203.024909 
L 598.259415 203.024909 
L 598.259415 203.236862 
L 599.344537 203.236862 
L 599.344537 206.628118 
L 600.42966 206.628118 
L 600.42966 207.518323 
L 602.599904 207.518323 
L 602.599904 209.595467 
L 603.685027 209.595467 
L 603.685027 211.481854 
L 604.770149 211.481854 
L 604.770149 213.876928 
L 605.855271 213.876928 
L 605.855271 215.063868 
L 606.940394 215.063868 
L 606.940394 217.183403 
L 608.025516 217.183403 
L 608.025516 215.297017 
L 609.110639 215.297017 
L 609.110639 218.052412 
L 610.195761 218.052412 
L 610.195761 218.688273 
L 611.280883 218.688273 
L 611.280883 219.366524 
L 612.366006 219.366524 
L 612.366006 221.931162 
L 614.53625 221.888771 
L 614.53625 224.326236 
L 615.621373 224.326236 
L 615.621373 223.436032 
L 616.706495 223.436032 
L 616.706495 225.72513 
L 617.791618 225.72513 
L 617.791618 226.67892 
L 618.87674 226.67892 
L 618.87674 226.488162 
L 619.961862 226.488162 
L 619.961862 228.226181 
L 621.046985 228.226181 
L 621.046985 229.64627 
L 622.132107 229.64627 
L 622.132107 230.324521 
L 625.387474 230.324521 
L 625.387474 231.808195 
L 627.557719 231.829391 
L 627.557719 230.8756 
L 628.642841 230.8756 
L 628.642841 232.571228 
L 629.727964 232.571228 
L 629.727964 233.694582 
L 630.813086 233.694582 
L 630.813086 233.185893 
L 631.898209 233.185893 
L 631.898209 234.605982 
L 632.983331 234.605982 
L 632.983331 234.139684 
L 634.068453 234.139684 
L 634.068453 234.542396 
L 635.153576 234.542396 
L 635.153576 236.047266 
L 636.238698 236.047266 
L 636.238698 235.029889 
L 637.32382 235.029889 
L 637.32382 237.085838 
L 638.408943 237.085838 
L 638.408943 236.492368 
L 639.494065 236.492368 
L 639.494065 237.297791 
L 640.579188 237.297791 
L 640.579188 237.107033 
L 641.66431 237.107033 
L 641.66431 237.764089 
L 646.004799 237.700503 
L 646.004799 238.908638 
L 647.089922 238.908638 
L 647.089922 238.060824 
L 648.175044 238.060824 
L 648.175044 238.972224 
L 649.260167 238.972224 
L 649.260167 239.162982 
L 650.345289 239.162982 
L 650.345289 239.523303 
L 652.515534 239.438522 
L 652.515534 239.798843 
L 653.600656 239.798843 
L 653.600656 239.438522 
L 654.685779 239.438522 
L 654.685779 239.926015 
L 655.770901 239.926015 
L 655.770901 240.837415 
L 656.856023 240.837415 
L 656.856023 240.455899 
L 659.026268 240.54068 
L 659.026268 241.049368 
L 660.11139 241.049368 
L 660.11139 240.85861 
L 661.196513 240.85861 
L 661.196513 241.13415 
L 663.366758 241.218931 
L 663.366758 241.367299 
L 664.45188 241.367299 
L 664.45188 241.664034 
L 666.622125 241.664034 
L 666.622125 242.066745 
L 667.707247 242.066745 
L 667.707247 241.430885 
L 668.792369 241.430885 
L 668.792369 242.236308 
L 669.877492 242.236308 
L 669.877492 241.981964 
L 672.047737 241.897182 
L 672.047737 242.68141 
L 675.303104 242.744996 
L 675.303104 242.872169 
L 676.388226 242.872169 
L 676.388226 242.533043 
L 677.473348 242.533043 
L 677.473348 242.95695 
L 678.558471 242.95695 
L 678.558471 243.211294 
L 679.643593 243.211294 
L 679.643593 242.872169 
L 681.813838 242.914559 
L 681.813838 242.575434 
L 682.89896 242.575434 
L 682.89896 242.872169 
L 683.984083 242.872169 
L 683.984083 243.380857 
L 685.069205 243.380857 
L 685.069205 243.211294 
L 686.154327 243.211294 
L 686.154327 242.95695 
L 687.23945 242.95695 
L 687.23945 243.402052 
L 689.409695 243.359662 
L 689.409695 243.614006 
L 691.579939 243.635201 
L 691.579939 243.317271 
L 692.665062 243.317271 
L 692.665062 243.698787 
L 694.835307 243.592811 
L 694.835307 243.508029 
L 695.920429 243.508029 
L 695.920429 243.847155 
L 697.005551 243.847155 
L 697.005551 243.656397 
L 698.090674 243.656397 
L 698.090674 244.037913 
L 700.260918 244.101499 
L 700.260918 244.165085 
L 702.431163 244.249866 
L 702.431163 243.741178 
L 703.516286 243.741178 
L 703.516286 244.165085 
L 705.68653 244.101499 
L 705.68653 244.292257 
L 707.856775 244.228671 
L 707.856775 244.525406 
L 708.941897 244.525406 
L 708.941897 244.207476 
L 711.112142 244.18628 
L 711.112142 244.588992 
L 712.197265 244.588992 
L 712.197265 244.228671 
L 713.282387 244.228671 
L 713.282387 244.525406 
L 714.367509 244.525406 
L 714.367509 244.928118 
L 715.452632 244.928118 
L 715.452632 244.419429 
L 716.537754 244.419429 
L 716.537754 244.694969 
L 721.963366 244.758555 
L 721.963366 244.419429 
L 723.048488 244.419429 
L 723.048488 244.567797 
L 724.133611 244.567797 
L 724.133611 244.716164 
L 726.303856 244.631383 
L 726.303856 244.906922 
L 727.388978 244.906922 
L 727.388978 244.567797 
L 729.559223 244.652578 
L 729.559223 244.77975 
L 733.899712 244.673773 
L 733.899712 244.949313 
L 736.069957 245.034094 
L 736.069957 245.118876 
L 737.155079 245.118876 
L 737.155079 244.885727 
L 738.240202 244.885727 
L 738.240202 245.182462 
L 740.410446 245.140071 
L 740.410446 244.885727 
L 741.495569 244.885727 
L 741.495569 245.140071 
L 743.665814 245.161267 
L 743.665814 245.288439 
L 745.836058 245.352025 
L 745.836058 244.991704 
L 746.921181 244.991704 
L 746.921181 245.224853 
L 748.006303 245.224853 
L 748.006303 245.012899 
L 750.176548 244.991704 
L 750.176548 245.267243 
L 751.26167 245.267243 
L 751.26167 245.09768 
L 755.60216 245.09768 
L 755.60216 245.309634 
L 756.687282 245.309634 
L 756.687282 245.161267 
L 761.027772 245.05529 
L 761.027772 245.415611 
L 768.623628 245.37322 
L 768.623628 245.288439 
L 769.708751 245.288439 
L 769.708751 245.563978 
L 770.793873 245.563978 
L 770.793873 245.415611 
L 771.878995 245.415611 
L 771.878995 245.246048 
L 772.964118 245.246048 
L 772.964118 245.521587 
L 777.304607 245.479197 
L 777.304607 245.352025 
L 779.474852 245.458001 
L 779.474852 245.521587 
L 782.730219 245.436806 
L 782.730219 245.394415 
L 783.815342 245.394415 
L 783.815342 245.585174 
L 791.411198 245.563978 
L 791.411198 245.352025 
L 792.496321 245.352025 
L 792.496321 245.606369 
L 807.688034 245.585174 
L 807.688034 245.733541 
L 809.858279 245.69115 
L 809.858279 245.585174 
L 814.198768 245.606369 
L 814.198768 245.712346 
L 817.454135 245.627564 
L 817.454135 245.585174 
L 825.049992 245.69115 
L 825.049992 245.712346 
L 828.305359 245.64876 
L 828.305359 245.585174 
L 831.560726 245.69115 
L 831.560726 245.733541 
L 838.071461 245.64876 
L 838.071461 245.606369 
L 839.156583 245.606369 
L 839.156583 245.775932 
L 848.922684 245.69115 
L 848.922684 245.69115 
" clip-path="url(#pbe4f3ba2dc)" style="fill: none; stroke: #1f77b4; stroke-width: 1.5; stroke-linecap: square"/>
   </g>
   <g id="patch_8">
    <path d="M 507.109135 257.158895 
L 507.109135 7.2 
" style="fill: none; stroke: #000000; stroke-width: 0.8; stroke-linejoin: miter; stroke-linecap: square"/>
   </g>
   <g id="patch_9">
    <path d="M 865.19952 257.158895 
L 865.19952 7.2 
" style="fill: none; stroke: #000000; stroke-width: 0.8; stroke-linejoin: miter; stroke-linecap: square"/>
   </g>
   <g id="patch_10">
    <path d="M 507.109135 257.158895 
L 865.19952 257.158895 
" style="fill: none; stroke: #000000; stroke-width: 0.8; stroke-linejoin: miter; stroke-linecap: square"/>
   </g>
   <g id="patch_11">
    <path d="M 507.109135 7.2 
L 865.19952 7.2 
" style="fill: none; stroke: #000000; stroke-width: 0.8; stroke-linejoin: miter; stroke-linecap: square"/>
   </g>
  </g>
 </g>
 <defs>
  <clipPath id="p89a5267eb4">
   <rect x="53.328125" y="7.2" width="358.090385" height="249.958895"/>
  </clipPath>
  <clipPath id="pbe4f3ba2dc">
   <rect x="507.109135" y="7.2" width="358.090385" height="249.958895"/>
  </clipPath>
 </defs>
</svg>
