<?xml version="1.0" encoding="utf-8" standalone="no"?>
<!DOCTYPE svg PUBLIC "-//W3C//DTD SVG 1.1//EN"
  "http://www.w3.org/Graphics/SVG/1.1/DTD/svg11.dtd">
<svg xmlns:xlink="http://www.w3.org/1999/xlink" width="872.39952pt" height="296.39952pt" viewBox="0 0 872.39952 296.39952" xmlns="http://www.w3.org/2000/svg" version="1.1">
 <metadata>
  <rdf:RDF xmlns:dc="http://purl.org/dc/elements/1.1/" xmlns:cc="http://creativecommons.org/ns#" xmlns:rdf="http://www.w3.org/1999/02/22-rdf-syntax-ns#">
   <cc:Work>
    <dc:type rdf:resource="http://purl.org/dc/dcmitype/StillImage"/>
    <dc:date>2026-03-12T12:42:26.321278</dc:date>
    <dc:format>image/svg+xml</dc:format>
    <dc:creator>
     <cc:Agent>
      <dc:title>Matplotlib v3.10.7, https://matplotlib.org/</dc:title>
     </cc:Agent>
    </dc:creator>
   </cc:Work>
  </rdf:RDF>
 </metadata>
 <defs>
  <style type="text/css">*{stroke-linejoin: round; stroke-linecap: butt}</style>
 </defs>
 <g id="figure_1">
  <g id="patch_1">
   <path d="M 0 296.39952 
L 872.39952 296.39952 
L 872.39952 0 
L 0 0 
z
" style="fill: #ffffff"/>
  </g>
  <g id="axes_1">
   <g id="patch_2">
    <path d="M 53.328125 257.158895 
L 411.41851 257.158895 
L 411.41851 7.2 
L 53.328125 7.2 
z
" style="fill: #ffffff"/>
   </g>
   <g id="matplotlib.axis_1">
    <g id="xtick_1">
     <g id="line2d_1">
      <defs>
       <path id="m979265e77d" d="M 0 0 
L 0 3.5 
" style="stroke: #000000; stroke-width: 0.8"/>
      </defs>
      <g>
       <use xlink:href="#m979265e77d" x="68.78747" y="257.158895" style="stroke: #000000; stroke-width: 0.8"/>
      </g>
     </g>
     <g id="text_1">
      <!-- 0 -->
      <g transform="translate(65.60622 271.757332) scale(0.1 -0.1)">
       <defs>
        <path id="DejaVuSans-30" d="M 2034 4250 
Q 1547 4250 1301 3770 
Q 1056 3291 1056 2328 
Q 1056 1369 1301 889 
Q 1547 409 2034 409 
Q 2525 409 2770 889 
Q 3016 1369 3016 2328 
Q 3016 3291 2770 3770 
Q 2525 4250 2034 4250 
z
M 2034 4750 
Q 2819 4750 3233 4129 
Q 3647 3509 3647 2328 
Q 3647 1150 3233 529 
Q 2819 -91 2034 -91 
Q 1250 -91 836 529 
Q 422 1150 422 2328 
Q 422 3509 836 4129 
Q 1250 4750 2034 4750 
z
" transform="scale(0.015625)"/>
       </defs>
       <use xlink:href="#DejaVuSans-30"/>
      </g>
     </g>
    </g>
    <g id="xtick_2">
     <g id="line2d_2">
      <g>
       <use xlink:href="#m979265e77d" x="134.232419" y="257.158895" style="stroke: #000000; stroke-width: 0.8"/>
      </g>
     </g>
     <g id="text_2">
      <!-- 1000 -->
      <g transform="translate(121.507419 271.757332) scale(0.1 -0.1)">
       <defs>
        <path id="DejaVuSans-31" d="M 794 531 
L 1825 531 
L 1825 4091 
L 703 3866 
L 703 4441 
L 1819 4666 
L 2450 4666 
L 2450 531 
L 3481 531 
L 3481 0 
L 794 0 
L 794 531 
z
" transform="scale(0.015625)"/>
       </defs>
       <use xlink:href="#DejaVuSans-31"/>
       <use xlink:href="#DejaVuSans-30" transform="translate(63.623047 0)"/>
       <use xlink:href="#DejaVuSans-30" transform="translate(127.246094 0)"/>
       <use xlink:href="#DejaVuSans-30" transform="translate(190.869141 0)"/>
      </g>
     </g>
    </g>
    <g id="xtick_3">
     <g id="line2d_3">
      <g>
       <use xlink:href="#m979265e77d" x="199.677368" y="257.158895" style="stroke: #000000; stroke-width: 0.8"/>
      </g>
     </g>
     <g id="text_3">
      <!-- 2000 -->
      <g transform="translate(186.952368 271.757332) scale(0.1 -0.1)">
       <defs>
        <path id="DejaVuSans-32" d="M 1228 531 
L 3431 531 
L 3431 0 
L 469 0 
L 469 531 
Q 828 903 1448 1529 
Q 2069 2156 2228 2338 
Q 2531 2678 2651 2914 
Q 2772 3150 2772 3378 
Q 2772 3750 2511 3984 
Q 2250 4219 1831 4219 
Q 1534 4219 1204 4116 
Q 875 4013 500 3803 
L 500 4441 
Q 881 4594 1212 4672 
Q 1544 4750 1819 4750 
Q 2544 4750 2975 4387 
Q 3406 4025 3406 3419 
Q 3406 3131 3298 2873 
Q 3191 2616 2906 2266 
Q 2828 2175 2409 1742 
Q 1991 1309 1228 531 
z
" transform="scale(0.015625)"/>
       </defs>
       <use xlink:href="#DejaVuSans-32"/>
       <use xlink:href="#DejaVuSans-30" transform="translate(63.623047 0)"/>
       <use xlink:href="#DejaVuSans-30" transform="translate(127.246094 0)"/>
       <use xlink:href="#DejaVuSans-30" transform="translate(190.869141 0)"/>
      </g>
     </g>
    </g>
    <g id="xtick_4">
     <g id="line2d_4">
      <g>
       <use xlink:href="#m979265e77d" x="265.122317" y="257.158895" style="stroke: #000000; stroke-width: 0.8"/>
      </g>
     </g>
     <g id="text_4">
      <!-- 3000 -->
      <g transform="translate(252.397317 271.757332) scale(0.1 -0.1)">
       <defs>
        <path id="DejaVuSans-33" d="M 2597 2516 
Q 3050 2419 3304 2112 
Q 3559 1806 3559 1356 
Q 3559 666 3084 287 
Q 2609 -91 1734 -91 
Q 1441 -91 1130 -33 
Q 819 25 488 141 
L 488 750 
Q 750 597 1062 519 
Q 1375 441 1716 441 
Q 2309 441 2620 675 
Q 2931 909 2931 1356 
Q 2931 1769 2642 2001 
Q 2353 2234 1838 2234 
L 1294 2234 
L 1294 2753 
L 1863 2753 
Q 2328 2753 2575 2939 
Q 2822 3125 2822 3475 
Q 2822 3834 2567 4026 
Q 2313 4219 1838 4219 
Q 1578 4219 1281 4162 
Q 984 4106 628 3988 
L 628 4550 
Q 988 4650 1302 4700 
Q 1616 4750 1894 4750 
Q 2613 4750 3031 4423 
Q 3450 4097 3450 3541 
Q 3450 3153 3228 2886 
Q 3006 2619 2597 2516 
z
" transform="scale(0.015625)"/>
       </defs>
       <use xlink:href="#DejaVuSans-33"/>
       <use xlink:href="#DejaVuSans-30" transform="translate(63.623047 0)"/>
       <use xlink:href="#DejaVuSans-30" transform="translate(127.246094 0)"/>
       <use xlink:href="#DejaVuSans-30" transform="translate(190.869141 0)"/>
      </g>
     </g>
    </g>
    <g id="xtick_5">
     <g id="line2d_5">
      <g>
       <use xlink:href="#m979265e77d" x="330.567266" y="257.158895" style="stroke: #000000; stroke-width: 0.8"/>
      </g>
     </g>
     <g id="text_5">
      <!-- 4000 -->
      <g transform="translate(317.842266 271.757332) scale(0.1 -0.1)">
       <defs>
        <path id="DejaVuSans-34" d="M 2419 4116 
L 825 1625 
L 2419 1625 
L 2419 4116 
z
M 2253 4666 
L 3047 4666 
L 3047 1625 
L 3713 1625 
L 3713 1100 
L 3047 1100 
L 3047 0 
L 2419 0 
L 2419 1100 
L 313 1100 
L 313 1709 
L 2253 4666 
z
" transform="scale(0.015625)"/>
       </defs>
       <use xlink:href="#DejaVuSans-34"/>
       <use xlink:href="#DejaVuSans-30" transform="translate(63.623047 0)"/>
       <use xlink:href="#DejaVuSans-30" transform="translate(127.246094 0)"/>
       <use xlink:href="#DejaVuSans-30" transform="translate(190.869141 0)"/>
      </g>
     </g>
    </g>
    <g id="xtick_6">
     <g id="line2d_6">
      <g>
       <use xlink:href="#m979265e77d" x="396.012215" y="257.158895" style="stroke: #000000; stroke-width: 0.8"/>
      </g>
     </g>
     <g id="text_6">
      <!-- 5000 -->
      <g transform="translate(383.287215 271.757332) scale(0.1 -0.1)">
       <defs>
        <path id="DejaVuSans-35" d="M 691 4666 
L 3169 4666 
L 3169 4134 
L 1269 4134 
L 1269 2991 
Q 1406 3038 1543 3061 
Q 1681 3084 1819 3084 
Q 2600 3084 3056 2656 
Q 3513 2228 3513 1497 
Q 3513 744 3044 326 
Q 2575 -91 1722 -91 
Q 1428 -91 1123 -41 
Q 819 9 494 109 
L 494 744 
Q 775 591 1075 516 
Q 1375 441 1709 441 
Q 2250 441 2565 725 
Q 2881 1009 2881 1497 
Q 2881 1984 2565 2268 
Q 2250 2553 1709 2553 
Q 1456 2553 1204 2497 
Q 953 2441 691 2322 
L 691 4666 
z
" transform="scale(0.015625)"/>
       </defs>
       <use xlink:href="#DejaVuSans-35"/>
       <use xlink:href="#DejaVuSans-30" transform="translate(63.623047 0)"/>
       <use xlink:href="#DejaVuSans-30" transform="translate(127.246094 0)"/>
       <use xlink:href="#DejaVuSans-30" transform="translate(190.869141 0)"/>
      </g>
     </g>
    </g>
    <g id="text_7">
     <!-- birth_time [µs] -->
     <g transform="translate(195.553005 285.435457) scale(0.1 -0.1)">
      <defs>
       <path id="DejaVuSans-62" d="M 3116 1747 
Q 3116 2381 2855 2742 
Q 2594 3103 2138 3103 
Q 1681 3103 1420 2742 
Q 1159 2381 1159 1747 
Q 1159 1113 1420 752 
Q 1681 391 2138 391 
Q 2594 391 2855 752 
Q 3116 1113 3116 1747 
z
M 1159 2969 
Q 1341 3281 1617 3432 
Q 1894 3584 2278 3584 
Q 2916 3584 3314 3078 
Q 3713 2572 3713 1747 
Q 3713 922 3314 415 
Q 2916 -91 2278 -91 
Q 1894 -91 1617 61 
Q 1341 213 1159 525 
L 1159 0 
L 581 0 
L 581 4863 
L 1159 4863 
L 1159 2969 
z
" transform="scale(0.015625)"/>
       <path id="DejaVuSans-69" d="M 603 3500 
L 1178 3500 
L 1178 0 
L 603 0 
L 603 3500 
z
M 603 4863 
L 1178 4863 
L 1178 4134 
L 603 4134 
L 603 4863 
z
" transform="scale(0.015625)"/>
       <path id="DejaVuSans-72" d="M 2631 2963 
Q 2534 3019 2420 3045 
Q 2306 3072 2169 3072 
Q 1681 3072 1420 2755 
Q 1159 2438 1159 1844 
L 1159 0 
L 581 0 
L 581 3500 
L 1159 3500 
L 1159 2956 
Q 1341 3275 1631 3429 
Q 1922 3584 2338 3584 
Q 2397 3584 2469 3576 
Q 2541 3569 2628 3553 
L 2631 2963 
z
" transform="scale(0.015625)"/>
       <path id="DejaVuSans-74" d="M 1172 4494 
L 1172 3500 
L 2356 3500 
L 2356 3053 
L 1172 3053 
L 1172 1153 
Q 1172 725 1289 603 
Q 1406 481 1766 481 
L 2356 481 
L 2356 0 
L 1766 0 
Q 1100 0 847 248 
Q 594 497 594 1153 
L 594 3053 
L 172 3053 
L 172 3500 
L 594 3500 
L 594 4494 
L 1172 4494 
z
" transform="scale(0.015625)"/>
       <path id="DejaVuSans-68" d="M 3513 2113 
L 3513 0 
L 2938 0 
L 2938 2094 
Q 2938 2591 2744 2837 
Q 2550 3084 2163 3084 
Q 1697 3084 1428 2787 
Q 1159 2491 1159 1978 
L 1159 0 
L 581 0 
L 581 4863 
L 1159 4863 
L 1159 2956 
Q 1366 3272 1645 3428 
Q 1925 3584 2291 3584 
Q 2894 3584 3203 3211 
Q 3513 2838 3513 2113 
z
" transform="scale(0.015625)"/>
       <path id="DejaVuSans-5f" d="M 3263 -1063 
L 3263 -1509 
L -63 -1509 
L -63 -1063 
L 3263 -1063 
z
" transform="scale(0.015625)"/>
       <path id="DejaVuSans-6d" d="M 3328 2828 
Q 3544 3216 3844 3400 
Q 4144 3584 4550 3584 
Q 5097 3584 5394 3201 
Q 5691 2819 5691 2113 
L 5691 0 
L 5113 0 
L 5113 2094 
Q 5113 2597 4934 2840 
Q 4756 3084 4391 3084 
Q 3944 3084 3684 2787 
Q 3425 2491 3425 1978 
L 3425 0 
L 2847 0 
L 2847 2094 
Q 2847 2600 2669 2842 
Q 2491 3084 2119 3084 
Q 1678 3084 1418 2786 
Q 1159 2488 1159 1978 
L 1159 0 
L 581 0 
L 581 3500 
L 1159 3500 
L 1159 2956 
Q 1356 3278 1631 3431 
Q 1906 3584 2284 3584 
Q 2666 3584 2933 3390 
Q 3200 3197 3328 2828 
z
" transform="scale(0.015625)"/>
       <path id="DejaVuSans-65" d="M 3597 1894 
L 3597 1613 
L 953 1613 
Q 991 1019 1311 708 
Q 1631 397 2203 397 
Q 2534 397 2845 478 
Q 3156 559 3463 722 
L 3463 178 
Q 3153 47 2828 -22 
Q 2503 -91 2169 -91 
Q 1331 -91 842 396 
Q 353 884 353 1716 
Q 353 2575 817 3079 
Q 1281 3584 2069 3584 
Q 2775 3584 3186 3129 
Q 3597 2675 3597 1894 
z
M 3022 2063 
Q 3016 2534 2758 2815 
Q 2500 3097 2075 3097 
Q 1594 3097 1305 2825 
Q 1016 2553 972 2059 
L 3022 2063 
z
" transform="scale(0.015625)"/>
       <path id="DejaVuSans-20" transform="scale(0.015625)"/>
       <path id="DejaVuSans-5b" d="M 550 4863 
L 1875 4863 
L 1875 4416 
L 1125 4416 
L 1125 -397 
L 1875 -397 
L 1875 -844 
L 550 -844 
L 550 4863 
z
" transform="scale(0.015625)"/>
       <path id="DejaVuSans-b5" d="M 544 -1331 
L 544 3500 
L 1119 3500 
L 1119 1325 
Q 1119 872 1334 640 
Q 1550 409 1972 409 
Q 2434 409 2667 671 
Q 2900 934 2900 1459 
L 2900 3500 
L 3475 3500 
L 3475 806 
Q 3475 619 3529 530 
Q 3584 441 3700 441 
Q 3728 441 3778 458 
Q 3828 475 3916 513 
L 3916 50 
Q 3788 -22 3673 -56 
Q 3559 -91 3450 -91 
Q 3234 -91 3106 31 
Q 2978 153 2931 403 
Q 2775 156 2548 32 
Q 2322 -91 2016 -91 
Q 1697 -91 1473 31 
Q 1250 153 1119 397 
L 1119 -1331 
L 544 -1331 
z
" transform="scale(0.015625)"/>
       <path id="DejaVuSans-73" d="M 2834 3397 
L 2834 2853 
Q 2591 2978 2328 3040 
Q 2066 3103 1784 3103 
Q 1356 3103 1142 2972 
Q 928 2841 928 2578 
Q 928 2378 1081 2264 
Q 1234 2150 1697 2047 
L 1894 2003 
Q 2506 1872 2764 1633 
Q 3022 1394 3022 966 
Q 3022 478 2636 193 
Q 2250 -91 1575 -91 
Q 1294 -91 989 -36 
Q 684 19 347 128 
L 347 722 
Q 666 556 975 473 
Q 1284 391 1588 391 
Q 1994 391 2212 530 
Q 2431 669 2431 922 
Q 2431 1156 2273 1281 
Q 2116 1406 1581 1522 
L 1381 1569 
Q 847 1681 609 1914 
Q 372 2147 372 2553 
Q 372 3047 722 3315 
Q 1072 3584 1716 3584 
Q 2034 3584 2315 3537 
Q 2597 3491 2834 3397 
z
" transform="scale(0.015625)"/>
       <path id="DejaVuSans-5d" d="M 1947 4863 
L 1947 -844 
L 622 -844 
L 622 -397 
L 1369 -397 
L 1369 4416 
L 622 4416 
L 622 4863 
L 1947 4863 
z
" transform="scale(0.015625)"/>
      </defs>
      <use xlink:href="#DejaVuSans-62"/>
      <use xlink:href="#DejaVuSans-69" transform="translate(63.476562 0)"/>
      <use xlink:href="#DejaVuSans-72" transform="translate(91.259766 0)"/>
      <use xlink:href="#DejaVuSans-74" transform="translate(132.373047 0)"/>
      <use xlink:href="#DejaVuSans-68" transform="translate(171.582031 0)"/>
      <use xlink:href="#DejaVuSans-5f" transform="translate(234.960938 0)"/>
      <use xlink:href="#DejaVuSans-74" transform="translate(284.960938 0)"/>
      <use xlink:href="#DejaVuSans-69" transform="translate(324.169922 0)"/>
      <use xlink:href="#DejaVuSans-6d" transform="translate(351.953125 0)"/>
      <use xlink:href="#DejaVuSans-65" transform="translate(449.365234 0)"/>
      <use xlink:href="#DejaVuSans-20" transform="translate(510.888672 0)"/>
      <use xlink:href="#DejaVuSans-5b" transform="translate(542.675781 0)"/>
      <use xlink:href="#DejaVuSans-b5" transform="translate(581.689453 0)"/>
      <use xlink:href="#DejaVuSans-73" transform="translate(645.3125 0)"/>
      <use xlink:href="#DejaVuSans-5d" transform="translate(697.412109 0)"/>
     </g>
    </g>
   </g>
   <g id="matplotlib.axis_2">
    <g id="ytick_1">
     <g id="line2d_7">
      <defs>
       <path id="m1a4d079c53" d="M 0 0 
L -3.5 0 
" style="stroke: #000000; stroke-width: 0.8"/>
      </defs>
      <g>
       <use xlink:href="#m1a4d079c53" x="53.328125" y="245.946673" style="stroke: #000000; stroke-width: 0.8"/>
      </g>
     </g>
     <g id="text_8">
      <!-- 0 -->
      <g transform="translate(39.965625 249.745892) scale(0.1 -0.1)">
       <use xlink:href="#DejaVuSans-30"/>
      </g>
     </g>
    </g>
    <g id="ytick_2">
     <g id="line2d_8">
      <g>
       <use xlink:href="#m1a4d079c53" x="53.328125" y="208.560138" style="stroke: #000000; stroke-width: 0.8"/>
      </g>
     </g>
     <g id="text_9">
      <!-- 500 -->
      <g transform="translate(27.240625 212.359357) scale(0.1 -0.1)">
       <use xlink:href="#DejaVuSans-35"/>
       <use xlink:href="#DejaVuSans-30" transform="translate(63.623047 0)"/>
       <use xlink:href="#DejaVuSans-30" transform="translate(127.246094 0)"/>
      </g>
     </g>
    </g>
    <g id="ytick_3">
     <g id="line2d_9">
      <g>
       <use xlink:href="#m1a4d079c53" x="53.328125" y="171.173603" style="stroke: #000000; stroke-width: 0.8"/>
      </g>
     </g>
     <g id="text_10">
      <!-- 1000 -->
      <g transform="translate(20.878125 174.972822) scale(0.1 -0.1)">
       <use xlink:href="#DejaVuSans-31"/>
       <use xlink:href="#DejaVuSans-30" transform="translate(63.623047 0)"/>
       <use xlink:href="#DejaVuSans-30" transform="translate(127.246094 0)"/>
       <use xlink:href="#DejaVuSans-30" transform="translate(190.869141 0)"/>
      </g>
     </g>
    </g>
    <g id="ytick_4">
     <g id="line2d_10">
      <g>
       <use xlink:href="#m1a4d079c53" x="53.328125" y="133.787069" style="stroke: #000000; stroke-width: 0.8"/>
      </g>
     </g>
     <g id="text_11">
      <!-- 1500 -->
      <g transform="translate(20.878125 137.586287) scale(0.1 -0.1)">
       <use xlink:href="#DejaVuSans-31"/>
       <use xlink:href="#DejaVuSans-35" transform="translate(63.623047 0)"/>
       <use xlink:href="#DejaVuSans-30" transform="translate(127.246094 0)"/>
       <use xlink:href="#DejaVuSans-30" transform="translate(190.869141 0)"/>
      </g>
     </g>
    </g>
    <g id="ytick_5">
     <g id="line2d_11">
      <g>
       <use xlink:href="#m1a4d079c53" x="53.328125" y="96.400534" style="stroke: #000000; stroke-width: 0.8"/>
      </g>
     </g>
     <g id="text_12">
      <!-- 2000 -->
      <g transform="translate(20.878125 100.199752) scale(0.1 -0.1)">
       <use xlink:href="#DejaVuSans-32"/>
       <use xlink:href="#DejaVuSans-30" transform="translate(63.623047 0)"/>
       <use xlink:href="#DejaVuSans-30" transform="translate(127.246094 0)"/>
       <use xlink:href="#DejaVuSans-30" transform="translate(190.869141 0)"/>
      </g>
     </g>
    </g>
    <g id="ytick_6">
     <g id="line2d_12">
      <g>
       <use xlink:href="#m1a4d079c53" x="53.328125" y="59.013999" style="stroke: #000000; stroke-width: 0.8"/>
      </g>
     </g>
     <g id="text_13">
      <!-- 2500 -->
      <g transform="translate(20.878125 62.813217) scale(0.1 -0.1)">
       <use xlink:href="#DejaVuSans-32"/>
       <use xlink:href="#DejaVuSans-35" transform="translate(63.623047 0)"/>
       <use xlink:href="#DejaVuSans-30" transform="translate(127.246094 0)"/>
       <use xlink:href="#DejaVuSans-30" transform="translate(190.869141 0)"/>
      </g>
     </g>
    </g>
    <g id="ytick_7">
     <g id="line2d_13">
      <g>
       <use xlink:href="#m1a4d079c53" x="53.328125" y="21.627464" style="stroke: #000000; stroke-width: 0.8"/>
      </g>
     </g>
     <g id="text_14">
      <!-- 3000 -->
      <g transform="translate(20.878125 25.426683) scale(0.1 -0.1)">
       <use xlink:href="#DejaVuSans-33"/>
       <use xlink:href="#DejaVuSans-30" transform="translate(63.623047 0)"/>
       <use xlink:href="#DejaVuSans-30" transform="translate(127.246094 0)"/>
       <use xlink:href="#DejaVuSans-30" transform="translate(190.869141 0)"/>
      </g>
     </g>
    </g>
    <g id="text_15">
     <!-- pulse:0 [counts] -->
     <g transform="translate(14.798438 172.659916) rotate(-90) scale(0.1 -0.1)">
      <defs>
       <path id="DejaVuSans-70" d="M 1159 525 
L 1159 -1331 
L 581 -1331 
L 581 3500 
L 1159 3500 
L 1159 2969 
Q 1341 3281 1617 3432 
Q 1894 3584 2278 3584 
Q 2916 3584 3314 3078 
Q 3713 2572 3713 1747 
Q 3713 922 3314 415 
Q 2916 -91 2278 -91 
Q 1894 -91 1617 61 
Q 1341 213 1159 525 
z
M 3116 1747 
Q 3116 2381 2855 2742 
Q 2594 3103 2138 3103 
Q 1681 3103 1420 2742 
Q 1159 2381 1159 1747 
Q 1159 1113 1420 752 
Q 1681 391 2138 391 
Q 2594 391 2855 752 
Q 3116 1113 3116 1747 
z
" transform="scale(0.015625)"/>
       <path id="DejaVuSans-75" d="M 544 1381 
L 544 3500 
L 1119 3500 
L 1119 1403 
Q 1119 906 1312 657 
Q 1506 409 1894 409 
Q 2359 409 2629 706 
Q 2900 1003 2900 1516 
L 2900 3500 
L 3475 3500 
L 3475 0 
L 2900 0 
L 2900 538 
Q 2691 219 2414 64 
Q 2138 -91 1772 -91 
Q 1169 -91 856 284 
Q 544 659 544 1381 
z
M 1991 3584 
L 1991 3584 
z
" transform="scale(0.015625)"/>
       <path id="DejaVuSans-6c" d="M 603 4863 
L 1178 4863 
L 1178 0 
L 603 0 
L 603 4863 
z
" transform="scale(0.015625)"/>
       <path id="DejaVuSans-3a" d="M 750 794 
L 1409 794 
L 1409 0 
L 750 0 
L 750 794 
z
M 750 3309 
L 1409 3309 
L 1409 2516 
L 750 2516 
L 750 3309 
z
" transform="scale(0.015625)"/>
       <path id="DejaVuSans-63" d="M 3122 3366 
L 3122 2828 
Q 2878 2963 2633 3030 
Q 2388 3097 2138 3097 
Q 1578 3097 1268 2742 
Q 959 2388 959 1747 
Q 959 1106 1268 751 
Q 1578 397 2138 397 
Q 2388 397 2633 464 
Q 2878 531 3122 666 
L 3122 134 
Q 2881 22 2623 -34 
Q 2366 -91 2075 -91 
Q 1284 -91 818 406 
Q 353 903 353 1747 
Q 353 2603 823 3093 
Q 1294 3584 2113 3584 
Q 2378 3584 2631 3529 
Q 2884 3475 3122 3366 
z
" transform="scale(0.015625)"/>
       <path id="DejaVuSans-6f" d="M 1959 3097 
Q 1497 3097 1228 2736 
Q 959 2375 959 1747 
Q 959 1119 1226 758 
Q 1494 397 1959 397 
Q 2419 397 2687 759 
Q 2956 1122 2956 1747 
Q 2956 2369 2687 2733 
Q 2419 3097 1959 3097 
z
M 1959 3584 
Q 2709 3584 3137 3096 
Q 3566 2609 3566 1747 
Q 3566 888 3137 398 
Q 2709 -91 1959 -91 
Q 1206 -91 779 398 
Q 353 888 353 1747 
Q 353 2609 779 3096 
Q 1206 3584 1959 3584 
z
" transform="scale(0.015625)"/>
       <path id="DejaVuSans-6e" d="M 3513 2113 
L 3513 0 
L 2938 0 
L 2938 2094 
Q 2938 2591 2744 2837 
Q 2550 3084 2163 3084 
Q 1697 3084 1428 2787 
Q 1159 2491 1159 1978 
L 1159 0 
L 581 0 
L 581 3500 
L 1159 3500 
L 1159 2956 
Q 1366 3272 1645 3428 
Q 1925 3584 2291 3584 
Q 2894 3584 3203 3211 
Q 3513 2838 3513 2113 
z
" transform="scale(0.015625)"/>
      </defs>
      <use xlink:href="#DejaVuSans-70"/>
      <use xlink:href="#DejaVuSans-75" transform="translate(63.476562 0)"/>
      <use xlink:href="#DejaVuSans-6c" transform="translate(126.855469 0)"/>
      <use xlink:href="#DejaVuSans-73" transform="translate(154.638672 0)"/>
      <use xlink:href="#DejaVuSans-65" transform="translate(206.738281 0)"/>
      <use xlink:href="#DejaVuSans-3a" transform="translate(268.261719 0)"/>
      <use xlink:href="#DejaVuSans-30" transform="translate(301.953125 0)"/>
      <use xlink:href="#DejaVuSans-20" transform="translate(365.576172 0)"/>
      <use xlink:href="#DejaVuSans-5b" transform="translate(397.363281 0)"/>
      <use xlink:href="#DejaVuSans-63" transform="translate(436.376953 0)"/>
      <use xlink:href="#DejaVuSans-6f" transform="translate(491.357422 0)"/>
      <use xlink:href="#DejaVuSans-75" transform="translate(552.539062 0)"/>
      <use xlink:href="#DejaVuSans-6e" transform="translate(615.917969 0)"/>
      <use xlink:href="#DejaVuSans-74" transform="translate(679.296875 0)"/>
      <use xlink:href="#DejaVuSans-73" transform="translate(718.505859 0)"/>
      <use xlink:href="#DejaVuSans-5d" transform="translate(770.605469 0)"/>
     </g>
    </g>
   </g>
   <g id="line2d_14">
    <path d="M 69.604961 234.955032 
L 70.690083 234.955032 
L 70.690083 228.375002 
L 71.775205 228.375002 
L 71.775205 220.374283 
L 72.860328 220.374283 
L 72.860328 208.335819 
L 73.94545 208.335819 
L 73.94545 199.363051 
L 75.030573 199.363051 
L 75.030573 193.381205 
L 76.115695 193.381205 
L 76.115695 182.389564 
L 77.200817 182.389564 
L 77.200817 174.239299 
L 78.28594 174.239299 
L 78.28594 166.388127 
L 79.371062 166.388127 
L 79.371062 158.836047 
L 80.456184 158.836047 
L 80.456184 150.835328 
L 81.541307 150.835328 
L 81.541307 145.825533 
L 82.626429 145.825533 
L 82.626429 141.86256 
L 83.711552 141.86256 
L 83.711552 131.618649 
L 84.796674 131.618649 
L 84.796674 127.506131 
L 85.881796 127.506131 
L 85.881796 122.12247 
L 86.966919 122.12247 
L 86.966919 118.608135 
L 88.052041 118.608135 
L 88.052041 110.68219 
L 89.137163 110.68219 
L 89.137163 114.495616 
L 90.222286 114.495616 
L 90.222286 107.541721 
L 91.307408 107.541721 
L 91.307408 100.587826 
L 92.392531 100.587826 
L 92.392531 93.185292 
L 93.477653 93.185292 
L 93.477653 87.577311 
L 94.562775 87.577311 
L 94.562775 87.352992 
L 95.647898 87.352992 
L 95.647898 84.062977 
L 96.73302 84.062977 
L 96.73302 87.427765 
L 97.818143 87.427765 
L 97.818143 74.940663 
L 98.903265 74.940663 
L 98.903265 75.61362 
L 99.988387 75.61362 
L 99.988387 81.44592 
L 101.07351 81.44592 
L 101.07351 79.651366 
L 102.158632 79.651366 
L 102.158632 73.071336 
L 103.243754 73.071336 
L 103.243754 66.566079 
L 104.328877 66.566079 
L 104.328877 67.164263 
L 105.413999 67.164263 
L 105.413999 64.995844 
L 106.499122 64.995844 
L 106.499122 61.032872 
L 107.584244 61.032872 
L 107.584244 58.041949 
L 108.669366 58.041949 
L 108.669366 65.36971 
L 109.754489 65.36971 
L 109.754489 58.191495 
L 110.839611 58.191495 
L 110.839611 55.350118 
L 111.924733 55.350118 
L 111.924733 49.592592 
L 113.009856 49.592592 
L 113.009856 52.807834 
L 114.094978 52.807834 
L 114.094978 53.256472 
L 115.180101 53.256472 
L 115.180101 48.171904 
L 116.265223 48.171904 
L 116.265223 42.040512 
L 117.350345 42.040512 
L 117.350345 49.368273 
L 118.435468 49.368273 
L 118.435468 48.770088 
L 119.52059 48.770088 
L 119.52059 51.237599 
L 120.605712 51.237599 
L 120.605712 49.143953 
L 121.690835 49.143953 
L 121.690835 45.928711 
L 122.775957 45.928711 
L 122.775957 43.386427 
L 123.86108 43.386427 
L 123.86108 49.443046 
L 124.946202 49.443046 
L 124.946202 41.5171 
L 126.031324 41.5171 
L 126.031324 35.983893 
L 127.116447 35.983893 
L 127.116447 46.153031 
L 128.201569 46.153031 
L 128.201569 41.068462 
L 129.286692 41.068462 
L 129.286692 37.180262 
L 130.371814 37.180262 
L 130.371814 38.600951 
L 131.456936 38.600951 
L 131.456936 36.133439 
L 132.542059 36.133439 
L 132.542059 41.591873 
L 133.627181 41.591873 
L 133.627181 40.76937 
L 134.712303 40.76937 
L 134.712303 33.815474 
L 135.797426 33.815474 
L 135.797426 32.469559 
L 136.882548 32.469559 
L 136.882548 33.815474 
L 137.967671 33.815474 
L 137.967671 37.554128 
L 139.052793 37.554128 
L 139.052793 36.282985 
L 140.137915 36.282985 
L 140.137915 40.470277 
L 141.223038 40.470277 
L 141.223038 31.647055 
L 142.30816 31.647055 
L 142.30816 28.581359 
L 143.393282 28.581359 
L 143.393282 38.82527 
L 144.478405 38.82527 
L 144.478405 35.684801 
L 145.563527 35.684801 
L 145.563527 31.647055 
L 146.64865 31.647055 
L 146.64865 36.282985 
L 147.733772 36.282985 
L 147.733772 42.115285 
L 148.818894 42.115285 
L 148.818894 30.675005 
L 149.904017 30.675005 
L 149.904017 30.525459 
L 150.989139 30.525459 
L 150.989139 40.54505 
L 152.074261 40.54505 
L 152.074261 26.188621 
L 153.159384 26.188621 
L 153.159384 36.208212 
L 154.244506 36.208212 
L 154.244506 22.823833 
L 155.329629 22.823833 
L 155.329629 36.357759 
L 156.414751 36.357759 
L 156.414751 31.198417 
L 157.499873 31.198417 
L 157.499873 32.918197 
L 158.584996 32.918197 
L 158.584996 33.516382 
L 159.670118 33.516382 
L 159.670118 26.562486 
L 160.75524 26.562486 
L 160.75524 28.431813 
L 161.840363 28.431813 
L 161.840363 34.413659 
L 162.925485 34.413659 
L 162.925485 29.179544 
L 164.010608 29.179544 
L 164.010608 30.525459 
L 165.09573 30.525459 
L 165.09573 31.347963 
L 166.180852 31.347963 
L 166.180852 27.310217 
L 167.265975 27.310217 
L 167.265975 33.96502 
L 168.351097 33.96502 
L 168.351097 32.394786 
L 169.43622 32.394786 
L 169.43622 33.516382 
L 170.521342 33.516382 
L 170.521342 33.067743 
L 171.606464 33.067743 
L 171.606464 18.561768 
L 172.691587 18.561768 
L 172.691587 27.38499 
L 174.861831 27.459763 
L 174.861831 28.506586 
L 175.946954 28.506586 
L 175.946954 35.834347 
L 177.032076 35.834347 
L 177.032076 30.450686 
L 178.117199 30.450686 
L 178.117199 33.740701 
L 179.202321 33.740701 
L 179.202321 26.113848 
L 180.287443 26.113848 
L 180.287443 24.244521 
L 181.372566 24.244521 
L 181.372566 28.431813 
L 182.457688 28.431813 
L 182.457688 28.955225 
L 183.54281 28.955225 
L 183.54281 23.048152 
L 184.627933 23.048152 
L 184.627933 29.553409 
L 185.713055 29.553409 
L 185.713055 26.41294 
L 186.798178 26.41294 
L 186.798178 24.020202 
L 187.8833 24.020202 
L 187.8833 30.525459 
L 188.968422 30.525459 
L 188.968422 34.114566 
L 190.053545 34.114566 
L 190.053545 33.21729 
L 191.138667 33.21729 
L 191.138667 29.553409 
L 192.223789 29.553409 
L 192.223789 31.946147 
L 193.308912 31.946147 
L 193.308912 36.432532 
L 194.394034 36.432532 
L 194.394034 28.431813 
L 195.479157 28.431813 
L 195.479157 33.815474 
L 196.564279 33.815474 
L 196.564279 29.403863 
L 197.649401 29.403863 
L 197.649401 24.917479 
L 198.734524 24.917479 
L 198.734524 30.375913 
L 199.819646 30.375913 
L 199.819646 33.366836 
L 200.904769 33.366836 
L 200.904769 27.609309 
L 201.989891 27.609309 
L 201.989891 32.24524 
L 203.075013 32.24524 
L 203.075013 28.132721 
L 204.160136 28.132721 
L 204.160136 35.161389 
L 205.245258 35.161389 
L 205.245258 31.871374 
L 206.33038 31.871374 
L 206.33038 31.123644 
L 207.415503 31.123644 
L 207.415503 29.553409 
L 208.500625 29.553409 
L 208.500625 26.338167 
L 209.585748 26.338167 
L 209.585748 28.805679 
L 210.67087 28.805679 
L 210.67087 33.815474 
L 211.755992 33.815474 
L 211.755992 40.021639 
L 212.841115 40.021639 
L 212.841115 30.899324 
L 213.926237 30.899324 
L 213.926237 27.38499 
L 215.011359 27.38499 
L 215.011359 28.506586 
L 216.096482 28.506586 
L 216.096482 24.319294 
L 217.181604 24.319294 
L 217.181604 28.506586 
L 218.266727 28.506586 
L 218.266727 30.899324 
L 219.351849 30.899324 
L 219.351849 28.805679 
L 220.436971 28.805679 
L 220.436971 33.366836 
L 221.522094 33.366836 
L 221.522094 32.394786 
L 222.607216 32.394786 
L 222.607216 25.964302 
L 223.692338 25.964302 
L 223.692338 30.226367 
L 225.862583 30.151594 
L 225.862583 25.067025 
L 226.947706 25.067025 
L 226.947706 30.525459 
L 228.032828 30.525459 
L 228.032828 25.44089 
L 229.11795 25.44089 
L 229.11795 35.385709 
L 230.203073 35.385709 
L 230.203073 28.581359 
L 231.288195 28.581359 
L 231.288195 32.320013 
L 232.373317 32.320013 
L 232.373317 32.544332 
L 233.45844 32.544332 
L 233.45844 23.72111 
L 234.543562 23.72111 
L 234.543562 29.852501 
L 235.628685 29.852501 
L 235.628685 31.347963 
L 236.713807 31.347963 
L 236.713807 28.581359 
L 237.798929 28.581359 
L 237.798929 29.179544 
L 238.884052 29.179544 
L 238.884052 31.946147 
L 239.969174 31.946147 
L 239.969174 23.272471 
L 241.054297 23.272471 
L 241.054297 30.226367 
L 242.139419 30.226367 
L 242.139419 29.403863 
L 243.224541 29.403863 
L 243.224541 23.571564 
L 244.309664 23.571564 
L 244.309664 28.057948 
L 245.394786 28.057948 
L 245.394786 23.870656 
L 246.479908 23.870656 
L 246.479908 35.310936 
L 247.565031 35.310936 
L 247.565031 25.889529 
L 249.735276 25.964302 
L 249.735276 26.487713 
L 250.820398 26.487713 
L 250.820398 29.32909 
L 251.90552 29.32909 
L 251.90552 29.777728 
L 252.990643 29.777728 
L 252.990643 21.552691 
L 254.075765 21.552691 
L 254.075765 31.048871 
L 255.160887 31.048871 
L 255.160887 37.927993 
L 256.24601 37.927993 
L 256.24601 33.591155 
L 257.331132 33.591155 
L 257.331132 43.835066 
L 258.416255 43.835066 
L 258.416255 54.602388 
L 259.501377 54.602388 
L 259.501377 63.350837 
L 260.586499 63.350837 
L 260.586499 64.846298 
L 261.671622 64.846298 
L 261.671622 80.623416 
L 262.756744 80.623416 
L 262.756744 83.016154 
L 263.841866 83.016154 
L 263.841866 93.035745 
L 264.926989 93.035745 
L 264.926989 101.260783 
L 266.012111 101.260783 
L 266.012111 109.635367 
L 267.097234 109.635367 
L 267.097234 118.009951 
L 268.182356 118.009951 
L 268.182356 128.104315 
L 269.267478 128.104315 
L 269.267478 133.861842 
L 270.352601 133.861842 
L 270.352601 136.927537 
L 271.437723 136.927537 
L 271.437723 147.246221 
L 272.522846 147.246221 
L 272.522846 154.200117 
L 273.607968 154.200117 
L 273.607968 156.443309 
L 274.69309 156.443309 
L 274.69309 156.069443 
L 275.778213 156.069443 
L 275.778213 162.79902 
L 276.863335 162.79902 
L 276.863335 172.369973 
L 277.948457 172.369973 
L 277.948457 171.921334 
L 279.03358 171.921334 
L 279.03358 178.950003 
L 280.118702 178.950003 
L 280.118702 180.221145 
L 281.203825 180.221145 
L 281.203825 184.931848 
L 282.288947 184.931848 
L 282.288947 190.390282 
L 283.374069 190.390282 
L 283.374069 190.09119 
L 284.459192 190.09119 
L 284.459192 189.268686 
L 285.544314 189.268686 
L 285.544314 196.596447 
L 286.629436 196.596447 
L 286.629436 197.344178 
L 287.714559 197.344178 
L 287.714559 203.326023 
L 288.799681 203.326023 
L 288.799681 205.120577 
L 289.884804 205.120577 
L 289.884804 206.316946 
L 290.969926 206.316946 
L 290.969926 205.868308 
L 292.055048 205.868308 
L 292.055048 210.728557 
L 293.140171 210.728557 
L 293.140171 214.541984 
L 294.225293 214.541984 
L 294.225293 212.298792 
L 295.310415 212.298792 
L 295.310415 213.270842 
L 296.395538 213.270842 
L 296.395538 219.402233 
L 297.48066 219.402233 
L 297.48066 217.532907 
L 298.565783 217.532907 
L 298.565783 220.149964 
L 299.650905 220.149964 
L 299.650905 220.29951 
L 300.736027 220.29951 
L 300.736027 221.047241 
L 301.82115 221.047241 
L 301.82115 225.234533 
L 302.906272 225.234533 
L 302.906272 225.458852 
L 303.991394 225.458852 
L 303.991394 224.412029 
L 305.076517 224.412029 
L 305.076517 227.926363 
L 306.161639 227.926363 
L 306.161639 229.79569 
L 307.246762 229.79569 
L 307.246762 228.599321 
L 308.331884 228.599321 
L 308.331884 230.618194 
L 309.417006 230.618194 
L 309.417006 231.889336 
L 310.502129 231.889336 
L 310.502129 230.992059 
L 311.587251 230.992059 
L 311.587251 231.889336 
L 312.672374 231.889336 
L 312.672374 233.010932 
L 313.757496 233.010932 
L 313.757496 233.160478 
L 314.842618 233.160478 
L 314.842618 234.132528 
L 315.927741 234.132528 
L 315.927741 234.356847 
L 317.012863 234.356847 
L 317.012863 234.65594 
L 318.097985 234.65594 
L 318.097985 236.674813 
L 319.183108 236.674813 
L 319.183108 235.62799 
L 320.26823 235.62799 
L 320.26823 237.572089 
L 321.353353 237.572089 
L 321.353353 238.768458 
L 322.438475 238.768458 
L 322.438475 239.366643 
L 323.523597 239.366643 
L 323.523597 237.646862 
L 324.60872 237.646862 
L 324.60872 239.366643 
L 326.778964 239.29187 
L 326.778964 238.245047 
L 327.864087 238.245047 
L 327.864087 239.964828 
L 328.949209 239.964828 
L 328.949209 241.535062 
L 330.034332 241.535062 
L 330.034332 240.189147 
L 331.119454 240.189147 
L 331.119454 240.039601 
L 332.204576 240.039601 
L 332.204576 241.011651 
L 333.289699 241.011651 
L 333.289699 241.834154 
L 334.374821 241.834154 
L 334.374821 242.581885 
L 335.459943 242.581885 
L 335.459943 241.011651 
L 336.545066 241.011651 
L 336.545066 242.282793 
L 337.630188 242.282793 
L 337.630188 242.507112 
L 338.715311 242.507112 
L 338.715311 243.479162 
L 339.800433 243.479162 
L 339.800433 243.18007 
L 340.885555 243.18007 
L 340.885555 242.95575 
L 341.970678 242.95575 
L 341.970678 242.507112 
L 343.0558 242.507112 
L 343.0558 243.105297 
L 344.140923 243.105297 
L 344.140923 243.703481 
L 346.311167 243.703481 
L 346.311167 244.525985 
L 347.39629 244.525985 
L 347.39629 244.301666 
L 348.481412 244.301666 
L 348.481412 244.077346 
L 350.651657 244.15212 
L 350.651657 244.376439 
L 352.821902 244.451212 
L 352.821902 243.628708 
L 353.907024 243.628708 
L 353.907024 243.853027 
L 354.992146 243.853027 
L 354.992146 244.600758 
L 357.162391 244.525985 
L 357.162391 244.89985 
L 358.247513 244.89985 
L 358.247513 244.077346 
L 359.332636 244.077346 
L 359.332636 244.600758 
L 360.417758 244.600758 
L 360.417758 244.825077 
L 361.502881 244.825077 
L 361.502881 244.525985 
L 363.673125 244.525985 
L 363.673125 245.198942 
L 364.758248 245.198942 
L 364.758248 244.89985 
L 365.84337 244.89985 
L 365.84337 244.675531 
L 366.928492 244.675531 
L 366.928492 245.572808 
L 368.013615 245.572808 
L 368.013615 244.675531 
L 369.098737 244.675531 
L 369.098737 244.89985 
L 370.18386 244.89985 
L 370.18386 245.498035 
L 372.354104 245.498035 
L 372.354104 244.974623 
L 374.524349 244.974623 
L 374.524349 245.273716 
L 375.609471 245.273716 
L 375.609471 245.647581 
L 376.694594 245.647581 
L 376.694594 245.423262 
L 378.864839 245.423262 
L 378.864839 245.572808 
L 379.949961 245.572808 
L 379.949961 245.423262 
L 382.120206 245.423262 
L 382.120206 245.722354 
L 383.205328 245.722354 
L 383.205328 245.423262 
L 387.545818 245.498035 
L 387.545818 245.722354 
L 388.63094 245.722354 
L 388.63094 245.572808 
L 389.716062 245.572808 
L 389.716062 245.797127 
L 391.886307 245.797127 
L 391.886307 245.423262 
L 392.97143 245.423262 
L 392.97143 245.797127 
L 394.056552 245.797127 
L 394.056552 245.572808 
L 395.141674 245.572808 
L 395.141674 245.572808 
" clip-path="url(#p98ba7087c7)" style="fill: none; stroke: #1f77b4; stroke-width: 1.5; stroke-linecap: square"/>
   </g>
   <g id="patch_3">
    <path d="M 53.328125 257.158895 
L 53.328125 7.2 
" style="fill: none; stroke: #000000; stroke-width: 0.8; stroke-linejoin: miter; stroke-linecap: square"/>
   </g>
   <g id="patch_4">
    <path d="M 411.41851 257.158895 
L 411.41851 7.2 
" style="fill: none; stroke: #000000; stroke-width: 0.8; stroke-linejoin: miter; stroke-linecap: square"/>
   </g>
   <g id="patch_5">
    <path d="M 53.328125 257.158895 
L 411.41851 257.158895 
" style="fill: none; stroke: #000000; stroke-width: 0.8; stroke-linejoin: miter; stroke-linecap: square"/>
   </g>
   <g id="patch_6">
    <path d="M 53.328125 7.2 
L 411.41851 7.2 
" style="fill: none; stroke: #000000; stroke-width: 0.8; stroke-linejoin: miter; stroke-linecap: square"/>
   </g>
  </g>
  <g id="axes_2">
   <g id="patch_7">
    <path d="M 507.109135 257.158895 
L 865.19952 257.158895 
L 865.19952 7.2 
L 507.109135 7.2 
z
" style="fill: #ffffff"/>
   </g>
   <g id="matplotlib.axis_3">
    <g id="xtick_7">
     <g id="line2d_15">
      <g>
       <use xlink:href="#m979265e77d" x="520.104606" y="257.158895" style="stroke: #000000; stroke-width: 0.8"/>
      </g>
     </g>
     <g id="text_16">
      <!-- 0.0 -->
      <g transform="translate(512.153043 271.757332) scale(0.1 -0.1)">
       <defs>
        <path id="DejaVuSans-2e" d="M 684 794 
L 1344 794 
L 1344 0 
L 684 0 
L 684 794 
z
" transform="scale(0.015625)"/>
       </defs>
       <use xlink:href="#DejaVuSans-30"/>
       <use xlink:href="#DejaVuSans-2e" transform="translate(63.623047 0)"/>
       <use xlink:href="#DejaVuSans-30" transform="translate(95.410156 0)"/>
      </g>
     </g>
    </g>
    <g id="xtick_8">
     <g id="line2d_16">
      <g>
       <use xlink:href="#m979265e77d" x="561.426268" y="257.158895" style="stroke: #000000; stroke-width: 0.8"/>
      </g>
     </g>
     <g id="text_17">
      <!-- 2.5 -->
      <g transform="translate(553.474706 271.757332) scale(0.1 -0.1)">
       <use xlink:href="#DejaVuSans-32"/>
       <use xlink:href="#DejaVuSans-2e" transform="translate(63.623047 0)"/>
       <use xlink:href="#DejaVuSans-35" transform="translate(95.410156 0)"/>
      </g>
     </g>
    </g>
    <g id="xtick_9">
     <g id="line2d_17">
      <g>
       <use xlink:href="#m979265e77d" x="602.747931" y="257.158895" style="stroke: #000000; stroke-width: 0.8"/>
      </g>
     </g>
     <g id="text_18">
      <!-- 5.0 -->
      <g transform="translate(594.796368 271.757332) scale(0.1 -0.1)">
       <use xlink:href="#DejaVuSans-35"/>
       <use xlink:href="#DejaVuSans-2e" transform="translate(63.623047 0)"/>
       <use xlink:href="#DejaVuSans-30" transform="translate(95.410156 0)"/>
      </g>
     </g>
    </g>
    <g id="xtick_10">
     <g id="line2d_18">
      <g>
       <use xlink:href="#m979265e77d" x="644.069593" y="257.158895" style="stroke: #000000; stroke-width: 0.8"/>
      </g>
     </g>
     <g id="text_19">
      <!-- 7.5 -->
      <g transform="translate(636.118031 271.757332) scale(0.1 -0.1)">
       <defs>
        <path id="DejaVuSans-37" d="M 525 4666 
L 3525 4666 
L 3525 4397 
L 1831 0 
L 1172 0 
L 2766 4134 
L 525 4134 
L 525 4666 
z
" transform="scale(0.015625)"/>
       </defs>
       <use xlink:href="#DejaVuSans-37"/>
       <use xlink:href="#DejaVuSans-2e" transform="translate(63.623047 0)"/>
       <use xlink:href="#DejaVuSans-35" transform="translate(95.410156 0)"/>
      </g>
     </g>
    </g>
    <g id="xtick_11">
     <g id="line2d_19">
      <g>
       <use xlink:href="#m979265e77d" x="685.391256" y="257.158895" style="stroke: #000000; stroke-width: 0.8"/>
      </g>
     </g>
     <g id="text_20">
      <!-- 10.0 -->
      <g transform="translate(674.258443 271.757332) scale(0.1 -0.1)">
       <use xlink:href="#DejaVuSans-31"/>
       <use xlink:href="#DejaVuSans-30" transform="translate(63.623047 0)"/>
       <use xlink:href="#DejaVuSans-2e" transform="translate(127.246094 0)"/>
       <use xlink:href="#DejaVuSans-30" transform="translate(159.033203 0)"/>
      </g>
     </g>
    </g>
    <g id="xtick_12">
     <g id="line2d_20">
      <g>
       <use xlink:href="#m979265e77d" x="726.712918" y="257.158895" style="stroke: #000000; stroke-width: 0.8"/>
      </g>
     </g>
     <g id="text_21">
      <!-- 12.5 -->
      <g transform="translate(715.580106 271.757332) scale(0.1 -0.1)">
       <use xlink:href="#DejaVuSans-31"/>
       <use xlink:href="#DejaVuSans-32" transform="translate(63.623047 0)"/>
       <use xlink:href="#DejaVuSans-2e" transform="translate(127.246094 0)"/>
       <use xlink:href="#DejaVuSans-35" transform="translate(159.033203 0)"/>
      </g>
     </g>
    </g>
    <g id="xtick_13">
     <g id="line2d_21">
      <g>
       <use xlink:href="#m979265e77d" x="768.034581" y="257.158895" style="stroke: #000000; stroke-width: 0.8"/>
      </g>
     </g>
     <g id="text_22">
      <!-- 15.0 -->
      <g transform="translate(756.901768 271.757332) scale(0.1 -0.1)">
       <use xlink:href="#DejaVuSans-31"/>
       <use xlink:href="#DejaVuSans-35" transform="translate(63.623047 0)"/>
       <use xlink:href="#DejaVuSans-2e" transform="translate(127.246094 0)"/>
       <use xlink:href="#DejaVuSans-30" transform="translate(159.033203 0)"/>
      </g>
     </g>
    </g>
    <g id="xtick_14">
     <g id="line2d_22">
      <g>
       <use xlink:href="#m979265e77d" x="809.356243" y="257.158895" style="stroke: #000000; stroke-width: 0.8"/>
      </g>
     </g>
     <g id="text_23">
      <!-- 17.5 -->
      <g transform="translate(798.223431 271.757332) scale(0.1 -0.1)">
       <use xlink:href="#DejaVuSans-31"/>
       <use xlink:href="#DejaVuSans-37" transform="translate(63.623047 0)"/>
       <use xlink:href="#DejaVuSans-2e" transform="translate(127.246094 0)"/>
       <use xlink:href="#DejaVuSans-35" transform="translate(159.033203 0)"/>
      </g>
     </g>
    </g>
    <g id="xtick_15">
     <g id="line2d_23">
      <g>
       <use xlink:href="#m979265e77d" x="850.677906" y="257.158895" style="stroke: #000000; stroke-width: 0.8"/>
      </g>
     </g>
     <g id="text_24">
      <!-- 20.0 -->
      <g transform="translate(839.545093 271.757332) scale(0.1 -0.1)">
       <use xlink:href="#DejaVuSans-32"/>
       <use xlink:href="#DejaVuSans-30" transform="translate(63.623047 0)"/>
       <use xlink:href="#DejaVuSans-2e" transform="translate(127.246094 0)"/>
       <use xlink:href="#DejaVuSans-30" transform="translate(159.033203 0)"/>
      </g>
     </g>
    </g>
    <g id="text_25">
     <!-- wavelength [Å] -->
     <g transform="translate(648.116827 287.119832) scale(0.1 -0.1)">
      <defs>
       <path id="DejaVuSans-77" d="M 269 3500 
L 844 3500 
L 1563 769 
L 2278 3500 
L 2956 3500 
L 3675 769 
L 4391 3500 
L 4966 3500 
L 4050 0 
L 3372 0 
L 2619 2869 
L 1863 0 
L 1184 0 
L 269 3500 
z
" transform="scale(0.015625)"/>
       <path id="DejaVuSans-61" d="M 2194 1759 
Q 1497 1759 1228 1600 
Q 959 1441 959 1056 
Q 959 750 1161 570 
Q 1363 391 1709 391 
Q 2188 391 2477 730 
Q 2766 1069 2766 1631 
L 2766 1759 
L 2194 1759 
z
M 3341 1997 
L 3341 0 
L 2766 0 
L 2766 531 
Q 2569 213 2275 61 
Q 1981 -91 1556 -91 
Q 1019 -91 701 211 
Q 384 513 384 1019 
Q 384 1609 779 1909 
Q 1175 2209 1959 2209 
L 2766 2209 
L 2766 2266 
Q 2766 2663 2505 2880 
Q 2244 3097 1772 3097 
Q 1472 3097 1187 3025 
Q 903 2953 641 2809 
L 641 3341 
Q 956 3463 1253 3523 
Q 1550 3584 1831 3584 
Q 2591 3584 2966 3190 
Q 3341 2797 3341 1997 
z
" transform="scale(0.015625)"/>
       <path id="DejaVuSans-76" d="M 191 3500 
L 800 3500 
L 1894 563 
L 2988 3500 
L 3597 3500 
L 2284 0 
L 1503 0 
L 191 3500 
z
" transform="scale(0.015625)"/>
       <path id="DejaVuSans-67" d="M 2906 1791 
Q 2906 2416 2648 2759 
Q 2391 3103 1925 3103 
Q 1463 3103 1205 2759 
Q 947 2416 947 1791 
Q 947 1169 1205 825 
Q 1463 481 1925 481 
Q 2391 481 2648 825 
Q 2906 1169 2906 1791 
z
M 3481 434 
Q 3481 -459 3084 -895 
Q 2688 -1331 1869 -1331 
Q 1566 -1331 1297 -1286 
Q 1028 -1241 775 -1147 
L 775 -588 
Q 1028 -725 1275 -790 
Q 1522 -856 1778 -856 
Q 2344 -856 2625 -561 
Q 2906 -266 2906 331 
L 2906 616 
Q 2728 306 2450 153 
Q 2172 0 1784 0 
Q 1141 0 747 490 
Q 353 981 353 1791 
Q 353 2603 747 3093 
Q 1141 3584 1784 3584 
Q 2172 3584 2450 3431 
Q 2728 3278 2906 2969 
L 2906 3500 
L 3481 3500 
L 3481 434 
z
" transform="scale(0.015625)"/>
       <path id="DejaVuSans-c5" d="M 2663 5081 
Q 2663 5278 2523 5417 
Q 2384 5556 2188 5556 
Q 1988 5556 1852 5420 
Q 1716 5284 1716 5081 
Q 1716 4884 1853 4746 
Q 1991 4609 2188 4609 
Q 2384 4609 2523 4746 
Q 2663 4884 2663 5081 
z
M 2188 4044 
L 1338 1722 
L 3041 1722 
L 2188 4044 
z
M 1716 4366 
Q 1525 4494 1428 4673 
Q 1331 4853 1331 5081 
Q 1331 5441 1579 5691 
Q 1828 5941 2188 5941 
Q 2544 5941 2795 5689 
Q 3047 5438 3047 5081 
Q 3047 4863 2948 4678 
Q 2850 4494 2663 4366 
L 4325 0 
L 3669 0 
L 3244 1197 
L 1141 1197 
L 716 0 
L 50 0 
L 1716 4366 
z
" transform="scale(0.015625)"/>
      </defs>
      <use xlink:href="#DejaVuSans-77"/>
      <use xlink:href="#DejaVuSans-61" transform="translate(81.787109 0)"/>
      <use xlink:href="#DejaVuSans-76" transform="translate(143.066406 0)"/>
      <use xlink:href="#DejaVuSans-65" transform="translate(202.246094 0)"/>
      <use xlink:href="#DejaVuSans-6c" transform="translate(263.769531 0)"/>
      <use xlink:href="#DejaVuSans-65" transform="translate(291.552734 0)"/>
      <use xlink:href="#DejaVuSans-6e" transform="translate(353.076172 0)"/>
      <use xlink:href="#DejaVuSans-67" transform="translate(416.455078 0)"/>
      <use xlink:href="#DejaVuSans-74" transform="translate(479.931641 0)"/>
      <use xlink:href="#DejaVuSans-68" transform="translate(519.140625 0)"/>
      <use xlink:href="#DejaVuSans-20" transform="translate(582.519531 0)"/>
      <use xlink:href="#DejaVuSans-5b" transform="translate(614.306641 0)"/>
      <use xlink:href="#DejaVuSans-c5" transform="translate(653.320312 0)"/>
      <use xlink:href="#DejaVuSans-5d" transform="translate(721.728516 0)"/>
     </g>
    </g>
   </g>
   <g id="matplotlib.axis_4">
    <g id="ytick_8">
     <g id="line2d_24">
      <g>
       <use xlink:href="#m1a4d079c53" x="507.109135" y="245.839309" style="stroke: #000000; stroke-width: 0.8"/>
      </g>
     </g>
     <g id="text_26">
      <!-- 0 -->
      <g transform="translate(493.746635 249.638528) scale(0.1 -0.1)">
       <use xlink:href="#DejaVuSans-30"/>
      </g>
     </g>
    </g>
    <g id="ytick_9">
     <g id="line2d_25">
      <g>
       <use xlink:href="#m1a4d079c53" x="507.109135" y="203.657137" style="stroke: #000000; stroke-width: 0.8"/>
      </g>
     </g>
     <g id="text_27">
      <!-- 2000 -->
      <g transform="translate(474.659135 207.456356) scale(0.1 -0.1)">
       <use xlink:href="#DejaVuSans-32"/>
       <use xlink:href="#DejaVuSans-30" transform="translate(63.623047 0)"/>
       <use xlink:href="#DejaVuSans-30" transform="translate(127.246094 0)"/>
       <use xlink:href="#DejaVuSans-30" transform="translate(190.869141 0)"/>
      </g>
     </g>
    </g>
    <g id="ytick_10">
     <g id="line2d_26">
      <g>
       <use xlink:href="#m1a4d079c53" x="507.109135" y="161.474966" style="stroke: #000000; stroke-width: 0.8"/>
      </g>
     </g>
     <g id="text_28">
      <!-- 4000 -->
      <g transform="translate(474.659135 165.274185) scale(0.1 -0.1)">
       <use xlink:href="#DejaVuSans-34"/>
       <use xlink:href="#DejaVuSans-30" transform="translate(63.623047 0)"/>
       <use xlink:href="#DejaVuSans-30" transform="translate(127.246094 0)"/>
       <use xlink:href="#DejaVuSans-30" transform="translate(190.869141 0)"/>
      </g>
     </g>
    </g>
    <g id="ytick_11">
     <g id="line2d_27">
      <g>
       <use xlink:href="#m1a4d079c53" x="507.109135" y="119.292794" style="stroke: #000000; stroke-width: 0.8"/>
      </g>
     </g>
     <g id="text_29">
      <!-- 6000 -->
      <g transform="translate(474.659135 123.092013) scale(0.1 -0.1)">
       <defs>
        <path id="DejaVuSans-36" d="M 2113 2584 
Q 1688 2584 1439 2293 
Q 1191 2003 1191 1497 
Q 1191 994 1439 701 
Q 1688 409 2113 409 
Q 2538 409 2786 701 
Q 3034 994 3034 1497 
Q 3034 2003 2786 2293 
Q 2538 2584 2113 2584 
z
M 3366 4563 
L 3366 3988 
Q 3128 4100 2886 4159 
Q 2644 4219 2406 4219 
Q 1781 4219 1451 3797 
Q 1122 3375 1075 2522 
Q 1259 2794 1537 2939 
Q 1816 3084 2150 3084 
Q 2853 3084 3261 2657 
Q 3669 2231 3669 1497 
Q 3669 778 3244 343 
Q 2819 -91 2113 -91 
Q 1303 -91 875 529 
Q 447 1150 447 2328 
Q 447 3434 972 4092 
Q 1497 4750 2381 4750 
Q 2619 4750 2861 4703 
Q 3103 4656 3366 4563 
z
" transform="scale(0.015625)"/>
       </defs>
       <use xlink:href="#DejaVuSans-36"/>
       <use xlink:href="#DejaVuSans-30" transform="translate(63.623047 0)"/>
       <use xlink:href="#DejaVuSans-30" transform="translate(127.246094 0)"/>
       <use xlink:href="#DejaVuSans-30" transform="translate(190.869141 0)"/>
      </g>
     </g>
    </g>
    <g id="ytick_12">
     <g id="line2d_28">
      <g>
       <use xlink:href="#m1a4d079c53" x="507.109135" y="77.110622" style="stroke: #000000; stroke-width: 0.8"/>
      </g>
     </g>
     <g id="text_30">
      <!-- 8000 -->
      <g transform="translate(474.659135 80.909841) scale(0.1 -0.1)">
       <defs>
        <path id="DejaVuSans-38" d="M 2034 2216 
Q 1584 2216 1326 1975 
Q 1069 1734 1069 1313 
Q 1069 891 1326 650 
Q 1584 409 2034 409 
Q 2484 409 2743 651 
Q 3003 894 3003 1313 
Q 3003 1734 2745 1975 
Q 2488 2216 2034 2216 
z
M 1403 2484 
Q 997 2584 770 2862 
Q 544 3141 544 3541 
Q 544 4100 942 4425 
Q 1341 4750 2034 4750 
Q 2731 4750 3128 4425 
Q 3525 4100 3525 3541 
Q 3525 3141 3298 2862 
Q 3072 2584 2669 2484 
Q 3125 2378 3379 2068 
Q 3634 1759 3634 1313 
Q 3634 634 3220 271 
Q 2806 -91 2034 -91 
Q 1263 -91 848 271 
Q 434 634 434 1313 
Q 434 1759 690 2068 
Q 947 2378 1403 2484 
z
M 1172 3481 
Q 1172 3119 1398 2916 
Q 1625 2713 2034 2713 
Q 2441 2713 2670 2916 
Q 2900 3119 2900 3481 
Q 2900 3844 2670 4047 
Q 2441 4250 2034 4250 
Q 1625 4250 1398 4047 
Q 1172 3844 1172 3481 
z
" transform="scale(0.015625)"/>
       </defs>
       <use xlink:href="#DejaVuSans-38"/>
       <use xlink:href="#DejaVuSans-30" transform="translate(63.623047 0)"/>
       <use xlink:href="#DejaVuSans-30" transform="translate(127.246094 0)"/>
       <use xlink:href="#DejaVuSans-30" transform="translate(190.869141 0)"/>
      </g>
     </g>
    </g>
    <g id="ytick_13">
     <g id="line2d_29">
      <g>
       <use xlink:href="#m1a4d079c53" x="507.109135" y="34.928451" style="stroke: #000000; stroke-width: 0.8"/>
      </g>
     </g>
     <g id="text_31">
      <!-- 10000 -->
      <g transform="translate(468.296635 38.727669) scale(0.1 -0.1)">
       <use xlink:href="#DejaVuSans-31"/>
       <use xlink:href="#DejaVuSans-30" transform="translate(63.623047 0)"/>
       <use xlink:href="#DejaVuSans-30" transform="translate(127.246094 0)"/>
       <use xlink:href="#DejaVuSans-30" transform="translate(190.869141 0)"/>
       <use xlink:href="#DejaVuSans-30" transform="translate(254.492188 0)"/>
      </g>
     </g>
    </g>
    <g id="text_32">
     <!-- pulse:0 [counts] -->
     <g transform="translate(462.216947 172.659916) rotate(-90) scale(0.1 -0.1)">
      <use xlink:href="#DejaVuSans-70"/>
      <use xlink:href="#DejaVuSans-75" transform="translate(63.476562 0)"/>
      <use xlink:href="#DejaVuSans-6c" transform="translate(126.855469 0)"/>
      <use xlink:href="#DejaVuSans-73" transform="translate(154.638672 0)"/>
      <use xlink:href="#DejaVuSans-65" transform="translate(206.738281 0)"/>
      <use xlink:href="#DejaVuSans-3a" transform="translate(268.261719 0)"/>
      <use xlink:href="#DejaVuSans-30" transform="translate(301.953125 0)"/>
      <use xlink:href="#DejaVuSans-20" transform="translate(365.576172 0)"/>
      <use xlink:href="#DejaVuSans-5b" transform="translate(397.363281 0)"/>
      <use xlink:href="#DejaVuSans-63" transform="translate(436.376953 0)"/>
      <use xlink:href="#DejaVuSans-6f" transform="translate(491.357422 0)"/>
      <use xlink:href="#DejaVuSans-75" transform="translate(552.539062 0)"/>
      <use xlink:href="#DejaVuSans-6e" transform="translate(615.917969 0)"/>
      <use xlink:href="#DejaVuSans-74" transform="translate(679.296875 0)"/>
      <use xlink:href="#DejaVuSans-73" transform="translate(718.505859 0)"/>
      <use xlink:href="#DejaVuSans-5d" transform="translate(770.605469 0)"/>
     </g>
    </g>
   </g>
   <g id="line2d_30">
    <path d="M 523.385971 155.73819 
L 524.471093 155.73819 
L 524.471093 147.723578 
L 525.556215 147.723578 
L 525.556215 142.619535 
L 526.641338 142.619535 
L 526.641338 139.624601 
L 527.72646 139.624601 
L 527.72646 146.584659 
L 528.811583 146.584659 
L 528.811583 151.013787 
L 529.896705 151.013787 
L 529.896705 144.496642 
L 530.981827 144.496642 
L 530.981827 127.265224 
L 532.06695 127.265224 
L 532.06695 104.8454 
L 533.152072 104.8454 
L 533.152072 79.346277 
L 534.237194 79.346277 
L 534.237194 63.08505 
L 535.322317 63.08505 
L 535.322317 38.577208 
L 536.407439 38.577208 
L 536.407439 24.04545 
L 537.492562 24.04545 
L 537.492562 27.588753 
L 538.577684 27.588753 
L 538.577684 18.561768 
L 539.662806 18.561768 
L 539.662806 19.363229 
L 540.747929 19.363229 
L 540.747929 32.77716 
L 541.833051 32.77716 
L 541.833051 37.24847 
L 542.918173 37.24847 
L 542.918173 45.178718 
L 544.003296 45.178718 
L 544.003296 62.747593 
L 545.088418 62.747593 
L 545.088418 68.842917 
L 546.173541 68.842917 
L 546.173541 75.5077 
L 547.258663 75.5077 
L 547.258663 89.786365 
L 548.343785 89.786365 
L 548.343785 84.703413 
L 549.428908 84.703413 
L 549.428908 89.069268 
L 550.51403 89.069268 
L 550.51403 99.171898 
L 551.599153 99.171898 
L 551.599153 94.784952 
L 552.684275 94.784952 
L 552.684275 93.118756 
L 553.769397 93.118756 
L 553.769397 95.016954 
L 554.85452 95.016954 
L 554.85452 87.888167 
L 555.939642 87.888167 
L 555.939642 80.56956 
L 557.024764 80.56956 
L 557.024764 71.268392 
L 558.109887 71.268392 
L 558.109887 61.777403 
L 559.195009 61.777403 
L 559.195009 48.384563 
L 560.280132 48.384563 
L 560.280132 49.333662 
L 561.365254 49.333662 
L 561.365254 36.911013 
L 562.450376 36.911013 
L 562.450376 36.109551 
L 563.535499 36.109551 
L 563.535499 41.9096 
L 564.620621 41.9096 
L 564.620621 50.894403 
L 565.705743 50.894403 
L 565.705743 59.457383 
L 566.790866 59.457383 
L 566.790866 70.424748 
L 567.875988 70.424748 
L 567.875988 77.701173 
L 568.961111 77.701173 
L 568.961111 88.436535 
L 570.046233 88.436535 
L 570.046233 98.876623 
L 571.131355 98.876623 
L 571.131355 103.811937 
L 572.216478 103.811937 
L 572.216478 107.16542 
L 573.3016 107.16542 
L 573.3016 120.115346 
L 574.386722 120.115346 
L 574.386722 124.312472 
L 575.471845 124.312472 
L 575.471845 128.994694 
L 576.556967 128.994694 
L 576.556967 136.671849 
L 577.64209 136.671849 
L 577.64209 142.028985 
L 578.727212 142.028985 
L 578.727212 147.38612 
L 579.812334 147.38612 
L 579.812334 153.629082 
L 580.897457 153.629082 
L 580.897457 157.130202 
L 581.982579 157.130202 
L 581.982579 162.634975 
L 583.067702 162.634975 
L 583.067702 164.385536 
L 584.152824 164.385536 
L 584.152824 167.739018 
L 585.237946 167.739018 
L 585.237946 171.936144 
L 586.323069 171.936144 
L 586.323069 176.70273 
L 587.408191 176.70273 
L 587.408191 175.057625 
L 588.493313 175.057625 
L 588.493313 179.592209 
L 589.578436 179.592209 
L 589.578436 186.488994 
L 590.663558 186.488994 
L 590.663558 187.163908 
L 591.748681 187.163908 
L 591.748681 190.137751 
L 592.833803 190.137751 
L 592.833803 194.651244 
L 593.918925 194.651244 
L 593.918925 196.781443 
L 595.004048 196.781443 
L 595.004048 199.396738 
L 596.08917 199.396738 
L 596.08917 200.303655 
L 597.174292 200.303655 
L 597.174292 203.31968 
L 598.259415 203.31968 
L 598.259415 205.534244 
L 599.344537 205.534244 
L 599.344537 206.019339 
L 600.42966 206.019339 
L 600.42966 207.369169 
L 601.514782 207.369169 
L 601.514782 209.077547 
L 602.599904 209.077547 
L 602.599904 211.144473 
L 603.685027 211.144473 
L 603.685027 212.705213 
L 604.770149 212.705213 
L 604.770149 213.633221 
L 605.855271 213.633221 
L 605.855271 216.037605 
L 606.940394 216.037605 
L 606.940394 216.902339 
L 608.025516 216.902339 
L 608.025516 217.028886 
L 609.110639 217.028886 
L 609.110639 220.361277 
L 610.195761 220.361277 
L 610.195761 219.749636 
L 611.280883 219.749636 
L 611.280883 220.909646 
L 612.366006 220.909646 
L 612.366006 223.292938 
L 613.451128 223.292938 
L 613.451128 222.618024 
L 614.53625 222.618024 
L 614.53625 223.651487 
L 615.621373 223.651487 
L 615.621373 225.46532 
L 616.706495 225.46532 
L 616.706495 226.24569 
L 617.791618 226.24569 
L 617.791618 225.908233 
L 618.87674 225.908233 
L 618.87674 227.911886 
L 619.961862 227.911886 
L 619.961862 228.586801 
L 622.132107 228.607892 
L 622.132107 229.72572 
L 623.21723 229.72572 
L 623.21723 229.599173 
L 624.302352 229.599173 
L 624.302352 229.810084 
L 625.387474 229.810084 
L 625.387474 232.003557 
L 626.472597 232.003557 
L 626.472597 232.214468 
L 627.557719 232.214468 
L 627.557719 233.290113 
L 628.642841 233.290113 
L 628.642841 233.100293 
L 629.727964 233.100293 
L 629.727964 234.38685 
L 630.813086 234.38685 
L 630.813086 234.091574 
L 631.898209 234.091574 
L 631.898209 234.639943 
L 634.068453 234.576669 
L 634.068453 235.631224 
L 635.153576 235.631224 
L 635.153576 236.601414 
L 636.238698 236.601414 
L 636.238698 235.399222 
L 637.32382 235.399222 
L 637.32382 236.306138 
L 639.494065 236.369412 
L 639.494065 237.002144 
L 640.579188 237.002144 
L 640.579188 237.381784 
L 641.66431 237.381784 
L 641.66431 237.529421 
L 642.749432 237.529421 
L 642.749432 237.213055 
L 644.919677 237.318511 
L 644.919677 238.647249 
L 646.004799 238.647249 
L 646.004799 237.571604 
L 647.089922 237.571604 
L 647.089922 238.035607 
L 648.175044 238.035607 
L 648.175044 238.626158 
L 650.345289 238.583976 
L 650.345289 239.786168 
L 651.430411 239.786168 
L 651.430411 239.469801 
L 652.515534 239.469801 
L 652.515534 239.954896 
L 653.600656 239.954896 
L 653.600656 240.165807 
L 654.685779 240.165807 
L 654.685779 239.975987 
L 655.770901 239.975987 
L 655.770901 240.439991 
L 656.856023 240.439991 
L 656.856023 240.777449 
L 657.941146 240.777449 
L 657.941146 240.503264 
L 659.026268 240.503264 
L 659.026268 240.271263 
L 661.196513 240.313445 
L 661.196513 240.693084 
L 662.281635 240.693084 
L 662.281635 241.262544 
L 664.45188 241.178179 
L 664.45188 241.76873 
L 665.537002 241.76873 
L 665.537002 241.557819 
L 666.622125 241.557819 
L 666.622125 241.810912 
L 667.707247 241.810912 
L 667.707247 241.557819 
L 668.792369 241.557819 
L 668.792369 242.35928 
L 669.877492 242.35928 
L 669.877492 242.211642 
L 670.962614 242.211642 
L 670.962614 242.823284 
L 672.047737 242.823284 
L 672.047737 242.422553 
L 673.132859 242.422553 
L 673.132859 243.013104 
L 674.217981 243.013104 
L 674.217981 242.675646 
L 675.303104 242.675646 
L 675.303104 243.266197 
L 676.388226 243.266197 
L 676.388226 242.021823 
L 677.473348 242.021823 
L 677.473348 242.633464 
L 678.558471 242.633464 
L 678.558471 242.422553 
L 679.643593 242.422553 
L 679.643593 243.350561 
L 680.728716 243.350561 
L 680.728716 242.844375 
L 682.89896 242.760011 
L 682.89896 243.51929 
L 683.984083 243.51929 
L 683.984083 243.013104 
L 686.154327 242.928739 
L 686.154327 243.308379 
L 687.23945 243.308379 
L 687.23945 243.582563 
L 689.409695 243.540381 
L 689.409695 243.160741 
L 690.494817 243.160741 
L 690.494817 243.308379 
L 691.579939 243.308379 
L 691.579939 243.013104 
L 692.665062 243.013104 
L 692.665062 244.004385 
L 694.835307 244.004385 
L 694.835307 243.456017 
L 695.920429 243.456017 
L 695.920429 243.645836 
L 697.005551 243.645836 
L 697.005551 244.004385 
L 698.090674 244.004385 
L 698.090674 243.877838 
L 699.175796 243.877838 
L 699.175796 243.666927 
L 700.260918 243.666927 
L 700.260918 244.278569 
L 701.346041 244.278569 
L 701.346041 244.510571 
L 702.431163 244.510571 
L 702.431163 243.856747 
L 703.516286 243.856747 
L 703.516286 244.173113 
L 704.601408 244.173113 
L 704.601408 244.341842 
L 706.771653 244.384024 
L 706.771653 244.531662 
L 707.856775 244.531662 
L 707.856775 244.341842 
L 710.02702 244.384024 
L 710.02702 244.531662 
L 711.112142 244.531662 
L 711.112142 244.405115 
L 715.452632 244.341842 
L 715.452632 244.531662 
L 717.622876 244.468389 
L 717.622876 244.658208 
L 718.707999 244.658208 
L 718.707999 244.974575 
L 719.793121 244.974575 
L 719.793121 244.573844 
L 720.878244 244.573844 
L 720.878244 244.721482 
L 723.048488 244.700391 
L 723.048488 244.552753 
L 724.133611 244.552753 
L 724.133611 244.911301 
L 725.218733 244.911301 
L 725.218733 244.721482 
L 727.388978 244.679299 
L 727.388978 244.573844 
L 728.4741 244.573844 
L 728.4741 244.848028 
L 734.984835 244.826937 
L 734.984835 245.143303 
L 736.069957 245.143303 
L 736.069957 244.784755 
L 737.155079 244.784755 
L 737.155079 244.995666 
L 739.325324 245.101121 
L 739.325324 244.573844 
L 740.410446 244.573844 
L 740.410446 245.08003 
L 742.580691 245.185486 
L 742.580691 245.227668 
L 748.006303 245.185486 
L 748.006303 245.101121 
L 752.346793 245.122212 
L 752.346793 245.375305 
L 753.431915 245.375305 
L 753.431915 245.206577 
L 754.517037 245.206577 
L 754.517037 245.438579 
L 755.60216 245.438579 
L 755.60216 245.26985 
L 756.687282 245.26985 
L 756.687282 245.45967 
L 761.027772 245.354214 
L 761.027772 245.248759 
L 762.112894 245.248759 
L 762.112894 245.544034 
L 764.283139 245.501852 
L 764.283139 245.417487 
L 772.964118 245.333123 
L 772.964118 245.26985 
L 774.04924 245.26985 
L 774.04924 245.501852 
L 778.38973 245.45967 
L 778.38973 245.375305 
L 779.474852 245.375305 
L 779.474852 245.501852 
L 789.240953 245.586216 
L 789.240953 245.628398 
L 790.326076 245.628398 
L 790.326076 245.417487 
L 791.411198 245.417487 
L 791.411198 245.649489 
L 792.496321 245.649489 
L 792.496321 245.522943 
L 794.666565 245.565125 
L 794.666565 245.649489 
L 796.83681 245.544034 
L 796.83681 245.480761 
L 797.921933 245.480761 
L 797.921933 245.691672 
L 800.092177 245.607307 
L 800.092177 245.45967 
L 801.1773 245.45967 
L 801.1773 245.586216 
L 804.432667 245.565125 
L 804.432667 245.712763 
L 806.602912 245.607307 
L 806.602912 245.586216 
L 816.369013 245.565125 
L 816.369013 245.733854 
L 822.879747 245.797127 
L 822.879747 245.501852 
L 825.049992 245.565125 
L 825.049992 245.670581 
L 826.135114 245.670581 
L 826.135114 245.797127 
L 829.390481 245.797127 
L 829.390481 245.586216 
L 830.475604 245.586216 
L 830.475604 245.776036 
L 848.922684 245.670581 
L 848.922684 245.670581 
" clip-path="url(#p7fa5aeb800)" style="fill: none; stroke: #1f77b4; stroke-width: 1.5; stroke-linecap: square"/>
   </g>
   <g id="patch_8">
    <path d="M 507.109135 257.158895 
L 507.109135 7.2 
" style="fill: none; stroke: #000000; stroke-width: 0.8; stroke-linejoin: miter; stroke-linecap: square"/>
   </g>
   <g id="patch_9">
    <path d="M 865.19952 257.158895 
L 865.19952 7.2 
" style="fill: none; stroke: #000000; stroke-width: 0.8; stroke-linejoin: miter; stroke-linecap: square"/>
   </g>
   <g id="patch_10">
    <path d="M 507.109135 257.158895 
L 865.19952 257.158895 
" style="fill: none; stroke: #000000; stroke-width: 0.8; stroke-linejoin: miter; stroke-linecap: square"/>
   </g>
   <g id="patch_11">
    <path d="M 507.109135 7.2 
L 865.19952 7.2 
" style="fill: none; stroke: #000000; stroke-width: 0.8; stroke-linejoin: miter; stroke-linecap: square"/>
   </g>
  </g>
 </g>
 <defs>
  <clipPath id="p98ba7087c7">
   <rect x="53.328125" y="7.2" width="358.090385" height="249.958895"/>
  </clipPath>
  <clipPath id="p7fa5aeb800">
   <rect x="507.109135" y="7.2" width="358.090385" height="249.958895"/>
  </clipPath>
 </defs>
</svg>
