<?xml version="1.0" encoding="utf-8" standalone="no"?>
<!DOCTYPE svg PUBLIC "-//W3C//DTD SVG 1.1//EN"
  "http://www.w3.org/Graphics/SVG/1.1/DTD/svg11.dtd">
<svg xmlns:xlink="http://www.w3.org/1999/xlink" width="872.39952pt" height="296.39952pt" viewBox="0 0 872.39952 296.39952" xmlns="http://www.w3.org/2000/svg" version="1.1">
 <metadata>
  <rdf:RDF xmlns:dc="http://purl.org/dc/elements/1.1/" xmlns:cc="http://creativecommons.org/ns#" xmlns:rdf="http://www.w3.org/1999/02/22-rdf-syntax-ns#">
   <cc:Work>
    <dc:type rdf:resource="http://purl.org/dc/dcmitype/StillImage"/>
    <dc:date>2025-04-29T09:31:54.445837</dc:date>
    <dc:format>image/svg+xml</dc:format>
    <dc:creator>
     <cc:Agent>
      <dc:title>Matplotlib v3.10.1, https://matplotlib.org/</dc:title>
     </cc:Agent>
    </dc:creator>
   </cc:Work>
  </rdf:RDF>
 </metadata>
 <defs>
  <style type="text/css">*{stroke-linejoin: round; stroke-linecap: butt}</style>
 </defs>
 <g id="figure_1">
  <g id="patch_1">
   <path d="M 0 296.39952 
L 872.39952 296.39952 
L 872.39952 0 
L 0 0 
z
" style="fill: #ffffff"/>
  </g>
  <g id="axes_1">
   <g id="patch_2">
    <path d="M 53.328125 257.158895 
L 428.69851 257.158895 
L 428.69851 7.2 
L 53.328125 7.2 
z
" style="fill: #ffffff"/>
   </g>
   <g id="matplotlib.axis_1">
    <g id="xtick_1">
     <g id="line2d_1">
      <defs>
       <path id="m039ec25d5d" d="M 0 0 
L 0 3.5 
" style="stroke: #000000; stroke-width: 0.8"/>
      </defs>
      <g>
       <use xlink:href="#m039ec25d5d" x="69.532145" y="257.158895" style="stroke: #000000; stroke-width: 0.8"/>
      </g>
     </g>
     <g id="text_1">
      <!-- 0 -->
      <g transform="translate(66.350895 271.757332) scale(0.1 -0.1)">
       <defs>
        <path id="DejaVuSans-30" d="M 2034 4250 
Q 1547 4250 1301 3770 
Q 1056 3291 1056 2328 
Q 1056 1369 1301 889 
Q 1547 409 2034 409 
Q 2525 409 2770 889 
Q 3016 1369 3016 2328 
Q 3016 3291 2770 3770 
Q 2525 4250 2034 4250 
z
M 2034 4750 
Q 2819 4750 3233 4129 
Q 3647 3509 3647 2328 
Q 3647 1150 3233 529 
Q 2819 -91 2034 -91 
Q 1250 -91 836 529 
Q 422 1150 422 2328 
Q 422 3509 836 4129 
Q 1250 4750 2034 4750 
z
" transform="scale(0.015625)"/>
       </defs>
       <use xlink:href="#DejaVuSans-30"/>
      </g>
     </g>
    </g>
    <g id="xtick_2">
     <g id="line2d_2">
      <g>
       <use xlink:href="#m039ec25d5d" x="138.139734" y="257.158895" style="stroke: #000000; stroke-width: 0.8"/>
      </g>
     </g>
     <g id="text_2">
      <!-- 1000 -->
      <g transform="translate(125.414734 271.757332) scale(0.1 -0.1)">
       <defs>
        <path id="DejaVuSans-31" d="M 794 531 
L 1825 531 
L 1825 4091 
L 703 3866 
L 703 4441 
L 1819 4666 
L 2450 4666 
L 2450 531 
L 3481 531 
L 3481 0 
L 794 0 
L 794 531 
z
" transform="scale(0.015625)"/>
       </defs>
       <use xlink:href="#DejaVuSans-31"/>
       <use xlink:href="#DejaVuSans-30" transform="translate(63.623047 0)"/>
       <use xlink:href="#DejaVuSans-30" transform="translate(127.246094 0)"/>
       <use xlink:href="#DejaVuSans-30" transform="translate(190.869141 0)"/>
      </g>
     </g>
    </g>
    <g id="xtick_3">
     <g id="line2d_3">
      <g>
       <use xlink:href="#m039ec25d5d" x="206.747323" y="257.158895" style="stroke: #000000; stroke-width: 0.8"/>
      </g>
     </g>
     <g id="text_3">
      <!-- 2000 -->
      <g transform="translate(194.022323 271.757332) scale(0.1 -0.1)">
       <defs>
        <path id="DejaVuSans-32" d="M 1228 531 
L 3431 531 
L 3431 0 
L 469 0 
L 469 531 
Q 828 903 1448 1529 
Q 2069 2156 2228 2338 
Q 2531 2678 2651 2914 
Q 2772 3150 2772 3378 
Q 2772 3750 2511 3984 
Q 2250 4219 1831 4219 
Q 1534 4219 1204 4116 
Q 875 4013 500 3803 
L 500 4441 
Q 881 4594 1212 4672 
Q 1544 4750 1819 4750 
Q 2544 4750 2975 4387 
Q 3406 4025 3406 3419 
Q 3406 3131 3298 2873 
Q 3191 2616 2906 2266 
Q 2828 2175 2409 1742 
Q 1991 1309 1228 531 
z
" transform="scale(0.015625)"/>
       </defs>
       <use xlink:href="#DejaVuSans-32"/>
       <use xlink:href="#DejaVuSans-30" transform="translate(63.623047 0)"/>
       <use xlink:href="#DejaVuSans-30" transform="translate(127.246094 0)"/>
       <use xlink:href="#DejaVuSans-30" transform="translate(190.869141 0)"/>
      </g>
     </g>
    </g>
    <g id="xtick_4">
     <g id="line2d_4">
      <g>
       <use xlink:href="#m039ec25d5d" x="275.354911" y="257.158895" style="stroke: #000000; stroke-width: 0.8"/>
      </g>
     </g>
     <g id="text_4">
      <!-- 3000 -->
      <g transform="translate(262.629911 271.757332) scale(0.1 -0.1)">
       <defs>
        <path id="DejaVuSans-33" d="M 2597 2516 
Q 3050 2419 3304 2112 
Q 3559 1806 3559 1356 
Q 3559 666 3084 287 
Q 2609 -91 1734 -91 
Q 1441 -91 1130 -33 
Q 819 25 488 141 
L 488 750 
Q 750 597 1062 519 
Q 1375 441 1716 441 
Q 2309 441 2620 675 
Q 2931 909 2931 1356 
Q 2931 1769 2642 2001 
Q 2353 2234 1838 2234 
L 1294 2234 
L 1294 2753 
L 1863 2753 
Q 2328 2753 2575 2939 
Q 2822 3125 2822 3475 
Q 2822 3834 2567 4026 
Q 2313 4219 1838 4219 
Q 1578 4219 1281 4162 
Q 984 4106 628 3988 
L 628 4550 
Q 988 4650 1302 4700 
Q 1616 4750 1894 4750 
Q 2613 4750 3031 4423 
Q 3450 4097 3450 3541 
Q 3450 3153 3228 2886 
Q 3006 2619 2597 2516 
z
" transform="scale(0.015625)"/>
       </defs>
       <use xlink:href="#DejaVuSans-33"/>
       <use xlink:href="#DejaVuSans-30" transform="translate(63.623047 0)"/>
       <use xlink:href="#DejaVuSans-30" transform="translate(127.246094 0)"/>
       <use xlink:href="#DejaVuSans-30" transform="translate(190.869141 0)"/>
      </g>
     </g>
    </g>
    <g id="xtick_5">
     <g id="line2d_5">
      <g>
       <use xlink:href="#m039ec25d5d" x="343.9625" y="257.158895" style="stroke: #000000; stroke-width: 0.8"/>
      </g>
     </g>
     <g id="text_5">
      <!-- 4000 -->
      <g transform="translate(331.2375 271.757332) scale(0.1 -0.1)">
       <defs>
        <path id="DejaVuSans-34" d="M 2419 4116 
L 825 1625 
L 2419 1625 
L 2419 4116 
z
M 2253 4666 
L 3047 4666 
L 3047 1625 
L 3713 1625 
L 3713 1100 
L 3047 1100 
L 3047 0 
L 2419 0 
L 2419 1100 
L 313 1100 
L 313 1709 
L 2253 4666 
z
" transform="scale(0.015625)"/>
       </defs>
       <use xlink:href="#DejaVuSans-34"/>
       <use xlink:href="#DejaVuSans-30" transform="translate(63.623047 0)"/>
       <use xlink:href="#DejaVuSans-30" transform="translate(127.246094 0)"/>
       <use xlink:href="#DejaVuSans-30" transform="translate(190.869141 0)"/>
      </g>
     </g>
    </g>
    <g id="xtick_6">
     <g id="line2d_6">
      <g>
       <use xlink:href="#m039ec25d5d" x="412.570089" y="257.158895" style="stroke: #000000; stroke-width: 0.8"/>
      </g>
     </g>
     <g id="text_6">
      <!-- 5000 -->
      <g transform="translate(399.845089 271.757332) scale(0.1 -0.1)">
       <defs>
        <path id="DejaVuSans-35" d="M 691 4666 
L 3169 4666 
L 3169 4134 
L 1269 4134 
L 1269 2991 
Q 1406 3038 1543 3061 
Q 1681 3084 1819 3084 
Q 2600 3084 3056 2656 
Q 3513 2228 3513 1497 
Q 3513 744 3044 326 
Q 2575 -91 1722 -91 
Q 1428 -91 1123 -41 
Q 819 9 494 109 
L 494 744 
Q 775 591 1075 516 
Q 1375 441 1709 441 
Q 2250 441 2565 725 
Q 2881 1009 2881 1497 
Q 2881 1984 2565 2268 
Q 2250 2553 1709 2553 
Q 1456 2553 1204 2497 
Q 953 2441 691 2322 
L 691 4666 
z
" transform="scale(0.015625)"/>
       </defs>
       <use xlink:href="#DejaVuSans-35"/>
       <use xlink:href="#DejaVuSans-30" transform="translate(63.623047 0)"/>
       <use xlink:href="#DejaVuSans-30" transform="translate(127.246094 0)"/>
       <use xlink:href="#DejaVuSans-30" transform="translate(190.869141 0)"/>
      </g>
     </g>
    </g>
    <g id="text_7">
     <!-- birth_time [µs] -->
     <g transform="translate(204.193005 285.435457) scale(0.1 -0.1)">
      <defs>
       <path id="DejaVuSans-62" d="M 3116 1747 
Q 3116 2381 2855 2742 
Q 2594 3103 2138 3103 
Q 1681 3103 1420 2742 
Q 1159 2381 1159 1747 
Q 1159 1113 1420 752 
Q 1681 391 2138 391 
Q 2594 391 2855 752 
Q 3116 1113 3116 1747 
z
M 1159 2969 
Q 1341 3281 1617 3432 
Q 1894 3584 2278 3584 
Q 2916 3584 3314 3078 
Q 3713 2572 3713 1747 
Q 3713 922 3314 415 
Q 2916 -91 2278 -91 
Q 1894 -91 1617 61 
Q 1341 213 1159 525 
L 1159 0 
L 581 0 
L 581 4863 
L 1159 4863 
L 1159 2969 
z
" transform="scale(0.015625)"/>
       <path id="DejaVuSans-69" d="M 603 3500 
L 1178 3500 
L 1178 0 
L 603 0 
L 603 3500 
z
M 603 4863 
L 1178 4863 
L 1178 4134 
L 603 4134 
L 603 4863 
z
" transform="scale(0.015625)"/>
       <path id="DejaVuSans-72" d="M 2631 2963 
Q 2534 3019 2420 3045 
Q 2306 3072 2169 3072 
Q 1681 3072 1420 2755 
Q 1159 2438 1159 1844 
L 1159 0 
L 581 0 
L 581 3500 
L 1159 3500 
L 1159 2956 
Q 1341 3275 1631 3429 
Q 1922 3584 2338 3584 
Q 2397 3584 2469 3576 
Q 2541 3569 2628 3553 
L 2631 2963 
z
" transform="scale(0.015625)"/>
       <path id="DejaVuSans-74" d="M 1172 4494 
L 1172 3500 
L 2356 3500 
L 2356 3053 
L 1172 3053 
L 1172 1153 
Q 1172 725 1289 603 
Q 1406 481 1766 481 
L 2356 481 
L 2356 0 
L 1766 0 
Q 1100 0 847 248 
Q 594 497 594 1153 
L 594 3053 
L 172 3053 
L 172 3500 
L 594 3500 
L 594 4494 
L 1172 4494 
z
" transform="scale(0.015625)"/>
       <path id="DejaVuSans-68" d="M 3513 2113 
L 3513 0 
L 2938 0 
L 2938 2094 
Q 2938 2591 2744 2837 
Q 2550 3084 2163 3084 
Q 1697 3084 1428 2787 
Q 1159 2491 1159 1978 
L 1159 0 
L 581 0 
L 581 4863 
L 1159 4863 
L 1159 2956 
Q 1366 3272 1645 3428 
Q 1925 3584 2291 3584 
Q 2894 3584 3203 3211 
Q 3513 2838 3513 2113 
z
" transform="scale(0.015625)"/>
       <path id="DejaVuSans-5f" d="M 3263 -1063 
L 3263 -1509 
L -63 -1509 
L -63 -1063 
L 3263 -1063 
z
" transform="scale(0.015625)"/>
       <path id="DejaVuSans-6d" d="M 3328 2828 
Q 3544 3216 3844 3400 
Q 4144 3584 4550 3584 
Q 5097 3584 5394 3201 
Q 5691 2819 5691 2113 
L 5691 0 
L 5113 0 
L 5113 2094 
Q 5113 2597 4934 2840 
Q 4756 3084 4391 3084 
Q 3944 3084 3684 2787 
Q 3425 2491 3425 1978 
L 3425 0 
L 2847 0 
L 2847 2094 
Q 2847 2600 2669 2842 
Q 2491 3084 2119 3084 
Q 1678 3084 1418 2786 
Q 1159 2488 1159 1978 
L 1159 0 
L 581 0 
L 581 3500 
L 1159 3500 
L 1159 2956 
Q 1356 3278 1631 3431 
Q 1906 3584 2284 3584 
Q 2666 3584 2933 3390 
Q 3200 3197 3328 2828 
z
" transform="scale(0.015625)"/>
       <path id="DejaVuSans-65" d="M 3597 1894 
L 3597 1613 
L 953 1613 
Q 991 1019 1311 708 
Q 1631 397 2203 397 
Q 2534 397 2845 478 
Q 3156 559 3463 722 
L 3463 178 
Q 3153 47 2828 -22 
Q 2503 -91 2169 -91 
Q 1331 -91 842 396 
Q 353 884 353 1716 
Q 353 2575 817 3079 
Q 1281 3584 2069 3584 
Q 2775 3584 3186 3129 
Q 3597 2675 3597 1894 
z
M 3022 2063 
Q 3016 2534 2758 2815 
Q 2500 3097 2075 3097 
Q 1594 3097 1305 2825 
Q 1016 2553 972 2059 
L 3022 2063 
z
" transform="scale(0.015625)"/>
       <path id="DejaVuSans-20" transform="scale(0.015625)"/>
       <path id="DejaVuSans-5b" d="M 550 4863 
L 1875 4863 
L 1875 4416 
L 1125 4416 
L 1125 -397 
L 1875 -397 
L 1875 -844 
L 550 -844 
L 550 4863 
z
" transform="scale(0.015625)"/>
       <path id="DejaVuSans-b5" d="M 544 -1331 
L 544 3500 
L 1119 3500 
L 1119 1325 
Q 1119 872 1334 640 
Q 1550 409 1972 409 
Q 2434 409 2667 671 
Q 2900 934 2900 1459 
L 2900 3500 
L 3475 3500 
L 3475 806 
Q 3475 619 3529 530 
Q 3584 441 3700 441 
Q 3728 441 3778 458 
Q 3828 475 3916 513 
L 3916 50 
Q 3788 -22 3673 -56 
Q 3559 -91 3450 -91 
Q 3234 -91 3106 31 
Q 2978 153 2931 403 
Q 2775 156 2548 32 
Q 2322 -91 2016 -91 
Q 1697 -91 1473 31 
Q 1250 153 1119 397 
L 1119 -1331 
L 544 -1331 
z
" transform="scale(0.015625)"/>
       <path id="DejaVuSans-73" d="M 2834 3397 
L 2834 2853 
Q 2591 2978 2328 3040 
Q 2066 3103 1784 3103 
Q 1356 3103 1142 2972 
Q 928 2841 928 2578 
Q 928 2378 1081 2264 
Q 1234 2150 1697 2047 
L 1894 2003 
Q 2506 1872 2764 1633 
Q 3022 1394 3022 966 
Q 3022 478 2636 193 
Q 2250 -91 1575 -91 
Q 1294 -91 989 -36 
Q 684 19 347 128 
L 347 722 
Q 666 556 975 473 
Q 1284 391 1588 391 
Q 1994 391 2212 530 
Q 2431 669 2431 922 
Q 2431 1156 2273 1281 
Q 2116 1406 1581 1522 
L 1381 1569 
Q 847 1681 609 1914 
Q 372 2147 372 2553 
Q 372 3047 722 3315 
Q 1072 3584 1716 3584 
Q 2034 3584 2315 3537 
Q 2597 3491 2834 3397 
z
" transform="scale(0.015625)"/>
       <path id="DejaVuSans-5d" d="M 1947 4863 
L 1947 -844 
L 622 -844 
L 622 -397 
L 1369 -397 
L 1369 4416 
L 622 4416 
L 622 4863 
L 1947 4863 
z
" transform="scale(0.015625)"/>
      </defs>
      <use xlink:href="#DejaVuSans-62"/>
      <use xlink:href="#DejaVuSans-69" transform="translate(63.476562 0)"/>
      <use xlink:href="#DejaVuSans-72" transform="translate(91.259766 0)"/>
      <use xlink:href="#DejaVuSans-74" transform="translate(132.373047 0)"/>
      <use xlink:href="#DejaVuSans-68" transform="translate(171.582031 0)"/>
      <use xlink:href="#DejaVuSans-5f" transform="translate(234.960938 0)"/>
      <use xlink:href="#DejaVuSans-74" transform="translate(284.960938 0)"/>
      <use xlink:href="#DejaVuSans-69" transform="translate(324.169922 0)"/>
      <use xlink:href="#DejaVuSans-6d" transform="translate(351.953125 0)"/>
      <use xlink:href="#DejaVuSans-65" transform="translate(449.365234 0)"/>
      <use xlink:href="#DejaVuSans-20" transform="translate(510.888672 0)"/>
      <use xlink:href="#DejaVuSans-5b" transform="translate(542.675781 0)"/>
      <use xlink:href="#DejaVuSans-b5" transform="translate(581.689453 0)"/>
      <use xlink:href="#DejaVuSans-73" transform="translate(645.3125 0)"/>
      <use xlink:href="#DejaVuSans-5d" transform="translate(697.412109 0)"/>
     </g>
    </g>
   </g>
   <g id="matplotlib.axis_2">
    <g id="ytick_1">
     <g id="line2d_7">
      <defs>
       <path id="m0483a6523a" d="M 0 0 
L -3.5 0 
" style="stroke: #000000; stroke-width: 0.8"/>
      </defs>
      <g>
       <use xlink:href="#m0483a6523a" x="53.328125" y="246.022634" style="stroke: #000000; stroke-width: 0.8"/>
      </g>
     </g>
     <g id="text_8">
      <!-- 0 -->
      <g transform="translate(39.965625 249.821852) scale(0.1 -0.1)">
       <use xlink:href="#DejaVuSans-30"/>
      </g>
     </g>
    </g>
    <g id="ytick_2">
     <g id="line2d_8">
      <g>
       <use xlink:href="#m0483a6523a" x="53.328125" y="208.438221" style="stroke: #000000; stroke-width: 0.8"/>
      </g>
     </g>
     <g id="text_9">
      <!-- 500 -->
      <g transform="translate(27.240625 212.23744) scale(0.1 -0.1)">
       <use xlink:href="#DejaVuSans-35"/>
       <use xlink:href="#DejaVuSans-30" transform="translate(63.623047 0)"/>
       <use xlink:href="#DejaVuSans-30" transform="translate(127.246094 0)"/>
      </g>
     </g>
    </g>
    <g id="ytick_3">
     <g id="line2d_9">
      <g>
       <use xlink:href="#m0483a6523a" x="53.328125" y="170.853808" style="stroke: #000000; stroke-width: 0.8"/>
      </g>
     </g>
     <g id="text_10">
      <!-- 1000 -->
      <g transform="translate(20.878125 174.653027) scale(0.1 -0.1)">
       <use xlink:href="#DejaVuSans-31"/>
       <use xlink:href="#DejaVuSans-30" transform="translate(63.623047 0)"/>
       <use xlink:href="#DejaVuSans-30" transform="translate(127.246094 0)"/>
       <use xlink:href="#DejaVuSans-30" transform="translate(190.869141 0)"/>
      </g>
     </g>
    </g>
    <g id="ytick_4">
     <g id="line2d_10">
      <g>
       <use xlink:href="#m0483a6523a" x="53.328125" y="133.269395" style="stroke: #000000; stroke-width: 0.8"/>
      </g>
     </g>
     <g id="text_11">
      <!-- 1500 -->
      <g transform="translate(20.878125 137.068614) scale(0.1 -0.1)">
       <use xlink:href="#DejaVuSans-31"/>
       <use xlink:href="#DejaVuSans-35" transform="translate(63.623047 0)"/>
       <use xlink:href="#DejaVuSans-30" transform="translate(127.246094 0)"/>
       <use xlink:href="#DejaVuSans-30" transform="translate(190.869141 0)"/>
      </g>
     </g>
    </g>
    <g id="ytick_5">
     <g id="line2d_11">
      <g>
       <use xlink:href="#m0483a6523a" x="53.328125" y="95.684983" style="stroke: #000000; stroke-width: 0.8"/>
      </g>
     </g>
     <g id="text_12">
      <!-- 2000 -->
      <g transform="translate(20.878125 99.484202) scale(0.1 -0.1)">
       <use xlink:href="#DejaVuSans-32"/>
       <use xlink:href="#DejaVuSans-30" transform="translate(63.623047 0)"/>
       <use xlink:href="#DejaVuSans-30" transform="translate(127.246094 0)"/>
       <use xlink:href="#DejaVuSans-30" transform="translate(190.869141 0)"/>
      </g>
     </g>
    </g>
    <g id="ytick_6">
     <g id="line2d_12">
      <g>
       <use xlink:href="#m0483a6523a" x="53.328125" y="58.10057" style="stroke: #000000; stroke-width: 0.8"/>
      </g>
     </g>
     <g id="text_13">
      <!-- 2500 -->
      <g transform="translate(20.878125 61.899789) scale(0.1 -0.1)">
       <use xlink:href="#DejaVuSans-32"/>
       <use xlink:href="#DejaVuSans-35" transform="translate(63.623047 0)"/>
       <use xlink:href="#DejaVuSans-30" transform="translate(127.246094 0)"/>
       <use xlink:href="#DejaVuSans-30" transform="translate(190.869141 0)"/>
      </g>
     </g>
    </g>
    <g id="ytick_7">
     <g id="line2d_13">
      <g>
       <use xlink:href="#m0483a6523a" x="53.328125" y="20.516157" style="stroke: #000000; stroke-width: 0.8"/>
      </g>
     </g>
     <g id="text_14">
      <!-- 3000 -->
      <g transform="translate(20.878125 24.315376) scale(0.1 -0.1)">
       <use xlink:href="#DejaVuSans-33"/>
       <use xlink:href="#DejaVuSans-30" transform="translate(63.623047 0)"/>
       <use xlink:href="#DejaVuSans-30" transform="translate(127.246094 0)"/>
       <use xlink:href="#DejaVuSans-30" transform="translate(190.869141 0)"/>
      </g>
     </g>
    </g>
    <g id="text_15">
     <!-- pulse:0 [counts] -->
     <g transform="translate(14.798438 172.659916) rotate(-90) scale(0.1 -0.1)">
      <defs>
       <path id="DejaVuSans-70" d="M 1159 525 
L 1159 -1331 
L 581 -1331 
L 581 3500 
L 1159 3500 
L 1159 2969 
Q 1341 3281 1617 3432 
Q 1894 3584 2278 3584 
Q 2916 3584 3314 3078 
Q 3713 2572 3713 1747 
Q 3713 922 3314 415 
Q 2916 -91 2278 -91 
Q 1894 -91 1617 61 
Q 1341 213 1159 525 
z
M 3116 1747 
Q 3116 2381 2855 2742 
Q 2594 3103 2138 3103 
Q 1681 3103 1420 2742 
Q 1159 2381 1159 1747 
Q 1159 1113 1420 752 
Q 1681 391 2138 391 
Q 2594 391 2855 752 
Q 3116 1113 3116 1747 
z
" transform="scale(0.015625)"/>
       <path id="DejaVuSans-75" d="M 544 1381 
L 544 3500 
L 1119 3500 
L 1119 1403 
Q 1119 906 1312 657 
Q 1506 409 1894 409 
Q 2359 409 2629 706 
Q 2900 1003 2900 1516 
L 2900 3500 
L 3475 3500 
L 3475 0 
L 2900 0 
L 2900 538 
Q 2691 219 2414 64 
Q 2138 -91 1772 -91 
Q 1169 -91 856 284 
Q 544 659 544 1381 
z
M 1991 3584 
L 1991 3584 
z
" transform="scale(0.015625)"/>
       <path id="DejaVuSans-6c" d="M 603 4863 
L 1178 4863 
L 1178 0 
L 603 0 
L 603 4863 
z
" transform="scale(0.015625)"/>
       <path id="DejaVuSans-3a" d="M 750 794 
L 1409 794 
L 1409 0 
L 750 0 
L 750 794 
z
M 750 3309 
L 1409 3309 
L 1409 2516 
L 750 2516 
L 750 3309 
z
" transform="scale(0.015625)"/>
       <path id="DejaVuSans-63" d="M 3122 3366 
L 3122 2828 
Q 2878 2963 2633 3030 
Q 2388 3097 2138 3097 
Q 1578 3097 1268 2742 
Q 959 2388 959 1747 
Q 959 1106 1268 751 
Q 1578 397 2138 397 
Q 2388 397 2633 464 
Q 2878 531 3122 666 
L 3122 134 
Q 2881 22 2623 -34 
Q 2366 -91 2075 -91 
Q 1284 -91 818 406 
Q 353 903 353 1747 
Q 353 2603 823 3093 
Q 1294 3584 2113 3584 
Q 2378 3584 2631 3529 
Q 2884 3475 3122 3366 
z
" transform="scale(0.015625)"/>
       <path id="DejaVuSans-6f" d="M 1959 3097 
Q 1497 3097 1228 2736 
Q 959 2375 959 1747 
Q 959 1119 1226 758 
Q 1494 397 1959 397 
Q 2419 397 2687 759 
Q 2956 1122 2956 1747 
Q 2956 2369 2687 2733 
Q 2419 3097 1959 3097 
z
M 1959 3584 
Q 2709 3584 3137 3096 
Q 3566 2609 3566 1747 
Q 3566 888 3137 398 
Q 2709 -91 1959 -91 
Q 1206 -91 779 398 
Q 353 888 353 1747 
Q 353 2609 779 3096 
Q 1206 3584 1959 3584 
z
" transform="scale(0.015625)"/>
       <path id="DejaVuSans-6e" d="M 3513 2113 
L 3513 0 
L 2938 0 
L 2938 2094 
Q 2938 2591 2744 2837 
Q 2550 3084 2163 3084 
Q 1697 3084 1428 2787 
Q 1159 2491 1159 1978 
L 1159 0 
L 581 0 
L 581 3500 
L 1159 3500 
L 1159 2956 
Q 1366 3272 1645 3428 
Q 1925 3584 2291 3584 
Q 2894 3584 3203 3211 
Q 3513 2838 3513 2113 
z
" transform="scale(0.015625)"/>
      </defs>
      <use xlink:href="#DejaVuSans-70"/>
      <use xlink:href="#DejaVuSans-75" transform="translate(63.476562 0)"/>
      <use xlink:href="#DejaVuSans-6c" transform="translate(126.855469 0)"/>
      <use xlink:href="#DejaVuSans-73" transform="translate(154.638672 0)"/>
      <use xlink:href="#DejaVuSans-65" transform="translate(206.738281 0)"/>
      <use xlink:href="#DejaVuSans-3a" transform="translate(268.261719 0)"/>
      <use xlink:href="#DejaVuSans-30" transform="translate(301.953125 0)"/>
      <use xlink:href="#DejaVuSans-20" transform="translate(365.576172 0)"/>
      <use xlink:href="#DejaVuSans-5b" transform="translate(397.363281 0)"/>
      <use xlink:href="#DejaVuSans-63" transform="translate(436.376953 0)"/>
      <use xlink:href="#DejaVuSans-6f" transform="translate(491.357422 0)"/>
      <use xlink:href="#DejaVuSans-75" transform="translate(552.539062 0)"/>
      <use xlink:href="#DejaVuSans-6e" transform="translate(615.917969 0)"/>
      <use xlink:href="#DejaVuSans-74" transform="translate(679.296875 0)"/>
      <use xlink:href="#DejaVuSans-73" transform="translate(718.505859 0)"/>
      <use xlink:href="#DejaVuSans-5d" transform="translate(770.605469 0)"/>
     </g>
    </g>
   </g>
   <g id="line2d_14">
    <path d="M 70.390415 233.093596 
L 71.527901 233.093596 
L 71.527901 227.606271 
L 72.665387 227.606271 
L 72.665387 219.638376 
L 73.802873 219.638376 
L 73.802873 212.121493 
L 74.940359 212.121493 
L 74.940359 200.996507 
L 76.077845 200.996507 
L 76.077845 194.907832 
L 77.215331 194.907832 
L 77.215331 183.256664 
L 78.352817 183.256664 
L 78.352817 175.890119 
L 79.490303 175.890119 
L 79.490303 165.516822 
L 80.627789 165.516822 
L 80.627789 160.330173 
L 81.765275 160.330173 
L 81.765275 155.519368 
L 82.902761 155.519368 
L 82.902761 146.499109 
L 84.040247 146.499109 
L 84.040247 138.380876 
L 85.177733 138.380876 
L 85.177733 130.939162 
L 86.315219 130.939162 
L 86.315219 132.36737 
L 87.452705 132.36737 
L 87.452705 114.853033 
L 88.590191 114.853033 
L 88.590191 110.493241 
L 89.727677 110.493241 
L 89.727677 111.094592 
L 90.865163 111.094592 
L 90.865163 105.005917 
L 92.00265 105.005917 
L 92.00265 102.976359 
L 93.140136 102.976359 
L 93.140136 99.142749 
L 94.277622 99.142749 
L 94.277622 91.174853 
L 95.415108 91.174853 
L 95.415108 90.498334 
L 96.552594 90.498334 
L 96.552594 88.543944 
L 97.69008 88.543944 
L 97.69008 85.537191 
L 98.827566 85.537191 
L 98.827566 87.491581 
L 99.965052 87.491581 
L 99.965052 76.817608 
L 101.102538 76.817608 
L 101.102538 74.863218 
L 102.240024 74.863218 
L 102.240024 74.562543 
L 103.37751 74.562543 
L 103.37751 70.728933 
L 104.514996 70.728933 
L 104.514996 69.075219 
L 105.652482 69.075219 
L 105.652482 64.339583 
L 106.789968 64.339583 
L 106.789968 73.209504 
L 107.927454 73.209504 
L 107.927454 66.744985 
L 109.06494 66.744985 
L 109.06494 57.574388 
L 110.202426 57.574388 
L 110.202426 61.182492 
L 111.339912 61.182492 
L 111.339912 59.528778 
L 112.477398 59.528778 
L 112.477398 59.077765 
L 113.614884 59.077765 
L 113.614884 51.936726 
L 114.75237 51.936726 
L 114.75237 56.446856 
L 115.889856 56.446856 
L 115.889856 49.005142 
L 117.027342 49.005142 
L 117.027342 51.786389 
L 118.164828 51.786389 
L 118.164828 49.080311 
L 119.302314 49.080311 
L 119.302314 52.087064 
L 120.4398 52.087064 
L 120.4398 37.203637 
L 121.577286 37.203637 
L 121.577286 47.952779 
L 122.714772 47.952779 
L 122.714772 41.413091 
L 123.852258 41.413091 
L 123.852258 50.809194 
L 124.989744 50.809194 
L 124.989744 47.20109 
L 126.12723 47.20109 
L 126.12723 34.046546 
L 127.264716 34.046546 
L 127.264716 41.413091 
L 128.402202 41.413091 
L 128.402202 40.285558 
L 129.539688 40.285558 
L 129.539688 37.053299 
L 130.677174 37.053299 
L 130.677174 47.125922 
L 131.81466 47.125922 
L 131.81466 44.720519 
L 132.952146 44.720519 
L 132.952146 38.180831 
L 134.089632 38.180831 
L 134.089632 33.14452 
L 135.227118 33.14452 
L 135.227118 30.739118 
L 136.364604 30.739118 
L 136.364604 40.285558 
L 137.50209 40.285558 
L 137.50209 33.896208 
L 138.639576 33.896208 
L 138.639576 33.370027 
L 139.777062 33.370027 
L 139.777062 35.09891 
L 140.914548 35.09891 
L 140.914548 43.141974 
L 142.052034 43.141974 
L 142.052034 32.618338 
L 143.18952 32.618338 
L 143.18952 38.105663 
L 144.327006 38.105663 
L 144.327006 30.513611 
L 145.464492 30.513611 
L 145.464492 40.661403 
L 146.601978 40.661403 
L 146.601978 32.994182 
L 147.739464 32.994182 
L 147.739464 34.121715 
L 148.87695 34.121715 
L 148.87695 35.249247 
L 150.014436 35.249247 
L 150.014436 31.340468 
L 151.151922 31.340468 
L 151.151922 24.80078 
L 152.289408 24.80078 
L 152.289408 28.935066 
L 153.426894 28.935066 
L 153.426894 27.582027 
L 154.56438 27.582027 
L 154.56438 35.70026 
L 155.701866 35.70026 
L 155.701866 33.294858 
L 156.839352 33.294858 
L 156.839352 29.010235 
L 157.976838 29.010235 
L 157.976838 31.86665 
L 159.114324 31.86665 
L 159.114324 27.732365 
L 160.25181 27.732365 
L 160.25181 31.114962 
L 161.389296 31.114962 
L 161.389296 29.085404 
L 162.526782 29.085404 
L 162.526782 21.718859 
L 163.664268 21.718859 
L 163.664268 32.242494 
L 164.801754 32.242494 
L 164.801754 31.340468 
L 165.93924 31.340468 
L 165.93924 32.919014 
L 167.076727 32.919014 
L 167.076727 24.19943 
L 168.214213 24.19943 
L 168.214213 25.928313 
L 169.351699 25.928313 
L 169.351699 23.147066 
L 170.489185 23.147066 
L 170.489185 28.484053 
L 171.626671 28.484053 
L 171.626671 29.912261 
L 172.764157 29.912261 
L 172.764157 27.957871 
L 173.901643 27.957871 
L 173.901643 30.739118 
L 175.039129 30.739118 
L 175.039129 38.030494 
L 176.176615 38.030494 
L 176.176615 25.853144 
L 177.314101 25.853144 
L 177.314101 35.925767 
L 178.451587 35.925767 
L 178.451587 29.987429 
L 179.589073 29.987429 
L 179.589073 19.538963 
L 180.726559 19.538963 
L 180.726559 33.595533 
L 181.864045 33.595533 
L 181.864045 20.140313 
L 183.001531 20.140313 
L 183.001531 28.333715 
L 184.139017 28.333715 
L 184.139017 31.641144 
L 185.276503 31.641144 
L 185.276503 27.206183 
L 186.413989 27.206183 
L 186.413989 26.228988 
L 187.551475 26.228988 
L 187.551475 27.882702 
L 188.688961 27.882702 
L 188.688961 35.023741 
L 189.826447 35.023741 
L 189.826447 28.559222 
L 190.963933 28.559222 
L 190.963933 24.124261 
L 192.101419 24.124261 
L 192.101419 27.356521 
L 194.376391 27.281352 
L 194.376391 31.716312 
L 195.513877 31.716312 
L 195.513877 30.663949 
L 196.651363 30.663949 
L 196.651363 31.415637 
L 197.788849 31.415637 
L 197.788849 18.561768 
L 198.926335 18.561768 
L 198.926335 30.663949 
L 200.063821 30.663949 
L 200.063821 30.513611 
L 201.201307 30.513611 
L 201.201307 31.716312 
L 202.338793 31.716312 
L 202.338793 30.062598 
L 203.476279 30.062598 
L 203.476279 32.693507 
L 204.613765 32.693507 
L 204.613765 26.680001 
L 205.751251 26.680001 
L 205.751251 30.363274 
L 206.888737 30.363274 
L 206.888737 28.03304 
L 208.026223 28.03304 
L 208.026223 24.650443 
L 209.163709 24.650443 
L 209.163709 33.14452 
L 210.301195 33.14452 
L 210.301195 30.212936 
L 211.438681 30.212936 
L 211.438681 28.408884 
L 212.576167 28.408884 
L 212.576167 31.340468 
L 213.713653 31.340468 
L 213.713653 26.529663 
L 214.851139 26.529663 
L 214.851139 27.882702 
L 215.988625 27.882702 
L 215.988625 29.761923 
L 217.126111 29.761923 
L 217.126111 28.634391 
L 218.263597 28.634391 
L 218.263597 23.673248 
L 219.401083 23.673248 
L 219.401083 29.31091 
L 220.538569 29.31091 
L 220.538569 25.176625 
L 221.676055 25.176625 
L 221.676055 24.19943 
L 222.813541 24.19943 
L 222.813541 31.265299 
L 223.951027 31.265299 
L 223.951027 30.062598 
L 225.088513 30.062598 
L 225.088513 33.069351 
L 226.225999 33.069351 
L 226.225999 19.538963 
L 227.363485 19.538963 
L 227.363485 30.062598 
L 228.500971 30.062598 
L 228.500971 26.680001 
L 229.638457 26.680001 
L 229.638457 30.739118 
L 230.775943 30.739118 
L 230.775943 29.235741 
L 231.913429 29.235741 
L 231.913429 30.212936 
L 233.050915 30.212936 
L 233.050915 25.4773 
L 234.188401 25.4773 
L 234.188401 35.399585 
L 235.325887 35.399585 
L 235.325887 30.814286 
L 236.463373 30.814286 
L 236.463373 19.313456 
L 237.600859 19.313456 
L 237.600859 28.108209 
L 238.738345 28.108209 
L 238.738345 29.536416 
L 239.875831 29.536416 
L 239.875831 25.777975 
L 241.013317 25.777975 
L 241.013317 26.905508 
L 242.150804 26.905508 
L 242.150804 27.732365 
L 243.28829 27.732365 
L 243.28829 34.196884 
L 244.425776 34.196884 
L 244.425776 23.297404 
L 245.563262 23.297404 
L 245.563262 27.882702 
L 246.700748 27.882702 
L 246.700748 30.964624 
L 247.838234 30.964624 
L 247.838234 26.379326 
L 248.97572 26.379326 
L 248.97572 21.568521 
L 250.113206 21.568521 
L 250.113206 30.58878 
L 251.250692 30.58878 
L 251.250692 30.814286 
L 252.388178 30.814286 
L 252.388178 30.964624 
L 253.525664 30.964624 
L 253.525664 29.010235 
L 254.66315 29.010235 
L 254.66315 27.055845 
L 255.800636 27.055845 
L 255.800636 28.183378 
L 256.938122 28.183378 
L 256.938122 27.281352 
L 258.075608 27.281352 
L 258.075608 27.506858 
L 259.213094 27.506858 
L 259.213094 32.843845 
L 260.35058 32.843845 
L 260.35058 21.117508 
L 261.488066 21.117508 
L 261.488066 34.046546 
L 262.625552 34.046546 
L 262.625552 29.386079 
L 263.763038 29.386079 
L 263.763038 33.82104 
L 264.900524 33.82104 
L 264.900524 29.160572 
L 266.03801 29.160572 
L 266.03801 33.520364 
L 267.175496 33.520364 
L 267.175496 45.246701 
L 268.312982 45.246701 
L 268.312982 47.426597 
L 269.450468 47.426597 
L 269.450468 62.836206 
L 270.587954 62.836206 
L 270.587954 67.72218 
L 271.72544 67.72218 
L 271.72544 71.706127 
L 272.862926 71.706127 
L 272.862926 82.605607 
L 274.000412 82.605607 
L 274.000412 93.9561 
L 275.137898 93.9561 
L 275.137898 101.397814 
L 276.275384 101.397814 
L 276.275384 110.267735 
L 277.41287 110.267735 
L 277.41287 122.445085 
L 278.550356 122.445085 
L 278.550356 129.81163 
L 279.687842 129.81163 
L 279.687842 131.540512 
L 280.825328 131.540512 
L 280.825328 143.417187 
L 281.962814 143.417187 
L 281.962814 148.077654 
L 283.1003 148.077654 
L 283.1003 149.806537 
L 284.237786 149.806537 
L 284.237786 153.339472 
L 285.375272 153.339472 
L 285.375272 161.683211 
L 286.512758 161.683211 
L 286.512758 164.539627 
L 287.650244 164.539627 
L 287.650244 170.327626 
L 288.78773 170.327626 
L 288.78773 176.641808 
L 289.925216 176.641808 
L 289.925216 180.475418 
L 291.062702 180.475418 
L 291.062702 182.955989 
L 292.200188 182.955989 
L 292.200188 181.60295 
L 293.337674 181.60295 
L 293.337674 189.345339 
L 294.47516 189.345339 
L 294.47516 192.427261 
L 295.612646 192.427261 
L 295.612646 198.440767 
L 296.750132 198.440767 
L 296.750132 195.659521 
L 297.887618 195.659521 
L 297.887618 203.326741 
L 299.025104 203.326741 
L 299.025104 199.267624 
L 300.16259 199.267624 
L 300.16259 206.107987 
L 301.300076 206.107987 
L 301.300076 207.010013 
L 302.437562 207.010013 
L 302.437562 207.912039 
L 303.575048 207.912039 
L 303.575048 213.023519 
L 304.712534 213.023519 
L 304.712534 214.752402 
L 306.987506 214.677233 
L 306.987506 216.330948 
L 308.124992 216.330948 
L 308.124992 219.112194 
L 309.262478 219.112194 
L 309.262478 217.759155 
L 310.399964 217.759155 
L 310.399964 218.886688 
L 311.53745 218.886688 
L 311.53745 219.863882 
L 312.674936 219.863882 
L 312.674936 224.148505 
L 313.812422 224.148505 
L 313.812422 222.344454 
L 314.949908 222.344454 
L 314.949908 225.802219 
L 316.087394 225.802219 
L 316.087394 227.08009 
L 317.224881 227.08009 
L 317.224881 229.410323 
L 318.362367 229.410323 
L 318.362367 228.95931 
L 319.499853 228.95931 
L 319.499853 228.433128 
L 320.637339 228.433128 
L 320.637339 230.162011 
L 321.774825 230.162011 
L 321.774825 229.259985 
L 322.912311 229.259985 
L 322.912311 232.417076 
L 324.049797 232.417076 
L 324.049797 231.590219 
L 325.187283 231.590219 
L 325.187283 233.619777 
L 326.324769 233.619777 
L 326.324769 235.273491 
L 327.462255 235.273491 
L 327.462255 234.822479 
L 329.737227 234.822479 
L 329.737227 236.250686 
L 330.874713 236.250686 
L 330.874713 236.476193 
L 333.149685 236.401024 
L 333.149685 237.227881 
L 334.287171 237.227881 
L 334.287171 236.927206 
L 335.424657 236.927206 
L 335.424657 238.731257 
L 336.562143 238.731257 
L 336.562143 238.280245 
L 337.699629 238.280245 
L 337.699629 239.933959 
L 338.837115 239.933959 
L 338.837115 239.031933 
L 339.974601 239.031933 
L 339.974601 239.708452 
L 341.112087 239.708452 
L 341.112087 241.061491 
L 342.249573 241.061491 
L 342.249573 241.512504 
L 343.387059 241.512504 
L 343.387059 240.46014 
L 344.524545 240.46014 
L 344.524545 239.558115 
L 345.662031 239.558115 
L 345.662031 240.084296 
L 346.799517 240.084296 
L 346.799517 241.437335 
L 347.937003 241.437335 
L 347.937003 242.189023 
L 349.074489 242.189023 
L 349.074489 241.662842 
L 350.211975 241.662842 
L 350.211975 242.564868 
L 351.349461 242.564868 
L 351.349461 242.339361 
L 352.486947 242.339361 
L 352.486947 242.113855 
L 353.624433 242.113855 
L 353.624433 242.640036 
L 355.899405 242.715205 
L 355.899405 241.963517 
L 357.036891 241.963517 
L 357.036891 242.264192 
L 358.174377 242.264192 
L 358.174377 243.391725 
L 359.311863 243.391725 
L 359.311863 243.767569 
L 360.449349 243.767569 
L 360.449349 243.241387 
L 361.586835 243.241387 
L 361.586835 243.617231 
L 363.861807 243.6924 
L 363.861807 243.842738 
L 364.999293 243.842738 
L 364.999293 243.6924 
L 366.136779 243.6924 
L 366.136779 244.218582 
L 367.274265 244.218582 
L 367.274265 244.519257 
L 368.411751 244.519257 
L 368.411751 244.744763 
L 369.549237 244.744763 
L 369.549237 244.368919 
L 370.686723 244.368919 
L 370.686723 245.045439 
L 371.824209 245.045439 
L 371.824209 243.993075 
L 372.961695 243.993075 
L 372.961695 245.270945 
L 374.099181 245.270945 
L 374.099181 244.368919 
L 375.236667 244.368919 
L 375.236667 244.895101 
L 376.374153 244.895101 
L 376.374153 244.519257 
L 377.511639 244.519257 
L 377.511639 245.195776 
L 378.649125 245.195776 
L 378.649125 244.97027 
L 380.924097 245.045439 
L 380.924097 244.519257 
L 382.061583 244.519257 
L 382.061583 245.195776 
L 383.199069 245.195776 
L 383.199069 244.895101 
L 384.336555 244.895101 
L 384.336555 245.120608 
L 387.749013 245.120608 
L 387.749013 245.421283 
L 390.023985 245.421283 
L 390.023985 244.895101 
L 392.298958 244.895101 
L 392.298958 245.346114 
L 394.57393 245.346114 
L 394.57393 245.646789 
L 396.848902 245.571621 
L 396.848902 245.421283 
L 397.986388 245.421283 
L 397.986388 245.571621 
L 399.123874 245.571621 
L 399.123874 245.721958 
L 400.26136 245.721958 
L 400.26136 245.421283 
L 402.536332 245.421283 
L 402.536332 245.797127 
L 403.673818 245.797127 
L 403.673818 245.646789 
L 404.811304 245.646789 
L 404.811304 245.797127 
L 405.94879 245.797127 
L 405.94879 245.646789 
L 408.223762 245.721958 
L 408.223762 245.797127 
L 410.498734 245.797127 
L 410.498734 245.646789 
L 411.63622 245.646789 
L 411.63622 245.646789 
" clip-path="url(#p9e49085a55)" style="fill: none; stroke: #1f77b4; stroke-width: 1.5; stroke-linecap: square"/>
   </g>
   <g id="patch_3">
    <path d="M 53.328125 257.158895 
L 53.328125 7.2 
" style="fill: none; stroke: #000000; stroke-width: 0.8; stroke-linejoin: miter; stroke-linecap: square"/>
   </g>
   <g id="patch_4">
    <path d="M 428.69851 257.158895 
L 428.69851 7.2 
" style="fill: none; stroke: #000000; stroke-width: 0.8; stroke-linejoin: miter; stroke-linecap: square"/>
   </g>
   <g id="patch_5">
    <path d="M 53.328125 257.158895 
L 428.69851 257.158895 
" style="fill: none; stroke: #000000; stroke-width: 0.8; stroke-linejoin: miter; stroke-linecap: square"/>
   </g>
   <g id="patch_6">
    <path d="M 53.328125 7.2 
L 428.69851 7.2 
" style="fill: none; stroke: #000000; stroke-width: 0.8; stroke-linejoin: miter; stroke-linecap: square"/>
   </g>
  </g>
  <g id="axes_2">
   <g id="patch_7">
    <path d="M 489.829135 257.158895 
L 865.19952 257.158895 
L 865.19952 7.2 
L 489.829135 7.2 
z
" style="fill: #ffffff"/>
   </g>
   <g id="matplotlib.axis_3">
    <g id="xtick_7">
     <g id="line2d_15">
      <g>
       <use xlink:href="#m039ec25d5d" x="503.448957" y="257.158895" style="stroke: #000000; stroke-width: 0.8"/>
      </g>
     </g>
     <g id="text_16">
      <!-- 0.0 -->
      <g transform="translate(495.497394 271.757332) scale(0.1 -0.1)">
       <defs>
        <path id="DejaVuSans-2e" d="M 684 794 
L 1344 794 
L 1344 0 
L 684 0 
L 684 794 
z
" transform="scale(0.015625)"/>
       </defs>
       <use xlink:href="#DejaVuSans-30"/>
       <use xlink:href="#DejaVuSans-2e" transform="translate(63.623047 0)"/>
       <use xlink:href="#DejaVuSans-30" transform="translate(95.410156 0)"/>
      </g>
     </g>
    </g>
    <g id="xtick_8">
     <g id="line2d_16">
      <g>
       <use xlink:href="#m039ec25d5d" x="546.79478" y="257.158895" style="stroke: #000000; stroke-width: 0.8"/>
      </g>
     </g>
     <g id="text_17">
      <!-- 2.5 -->
      <g transform="translate(538.843217 271.757332) scale(0.1 -0.1)">
       <use xlink:href="#DejaVuSans-32"/>
       <use xlink:href="#DejaVuSans-2e" transform="translate(63.623047 0)"/>
       <use xlink:href="#DejaVuSans-35" transform="translate(95.410156 0)"/>
      </g>
     </g>
    </g>
    <g id="xtick_9">
     <g id="line2d_17">
      <g>
       <use xlink:href="#m039ec25d5d" x="590.140602" y="257.158895" style="stroke: #000000; stroke-width: 0.8"/>
      </g>
     </g>
     <g id="text_18">
      <!-- 5.0 -->
      <g transform="translate(582.18904 271.757332) scale(0.1 -0.1)">
       <use xlink:href="#DejaVuSans-35"/>
       <use xlink:href="#DejaVuSans-2e" transform="translate(63.623047 0)"/>
       <use xlink:href="#DejaVuSans-30" transform="translate(95.410156 0)"/>
      </g>
     </g>
    </g>
    <g id="xtick_10">
     <g id="line2d_18">
      <g>
       <use xlink:href="#m039ec25d5d" x="633.486425" y="257.158895" style="stroke: #000000; stroke-width: 0.8"/>
      </g>
     </g>
     <g id="text_19">
      <!-- 7.5 -->
      <g transform="translate(625.534862 271.757332) scale(0.1 -0.1)">
       <defs>
        <path id="DejaVuSans-37" d="M 525 4666 
L 3525 4666 
L 3525 4397 
L 1831 0 
L 1172 0 
L 2766 4134 
L 525 4134 
L 525 4666 
z
" transform="scale(0.015625)"/>
       </defs>
       <use xlink:href="#DejaVuSans-37"/>
       <use xlink:href="#DejaVuSans-2e" transform="translate(63.623047 0)"/>
       <use xlink:href="#DejaVuSans-35" transform="translate(95.410156 0)"/>
      </g>
     </g>
    </g>
    <g id="xtick_11">
     <g id="line2d_19">
      <g>
       <use xlink:href="#m039ec25d5d" x="676.832248" y="257.158895" style="stroke: #000000; stroke-width: 0.8"/>
      </g>
     </g>
     <g id="text_20">
      <!-- 10.0 -->
      <g transform="translate(665.699435 271.757332) scale(0.1 -0.1)">
       <use xlink:href="#DejaVuSans-31"/>
       <use xlink:href="#DejaVuSans-30" transform="translate(63.623047 0)"/>
       <use xlink:href="#DejaVuSans-2e" transform="translate(127.246094 0)"/>
       <use xlink:href="#DejaVuSans-30" transform="translate(159.033203 0)"/>
      </g>
     </g>
    </g>
    <g id="xtick_12">
     <g id="line2d_20">
      <g>
       <use xlink:href="#m039ec25d5d" x="720.17807" y="257.158895" style="stroke: #000000; stroke-width: 0.8"/>
      </g>
     </g>
     <g id="text_21">
      <!-- 12.5 -->
      <g transform="translate(709.045258 271.757332) scale(0.1 -0.1)">
       <use xlink:href="#DejaVuSans-31"/>
       <use xlink:href="#DejaVuSans-32" transform="translate(63.623047 0)"/>
       <use xlink:href="#DejaVuSans-2e" transform="translate(127.246094 0)"/>
       <use xlink:href="#DejaVuSans-35" transform="translate(159.033203 0)"/>
      </g>
     </g>
    </g>
    <g id="xtick_13">
     <g id="line2d_21">
      <g>
       <use xlink:href="#m039ec25d5d" x="763.523893" y="257.158895" style="stroke: #000000; stroke-width: 0.8"/>
      </g>
     </g>
     <g id="text_22">
      <!-- 15.0 -->
      <g transform="translate(752.39108 271.757332) scale(0.1 -0.1)">
       <use xlink:href="#DejaVuSans-31"/>
       <use xlink:href="#DejaVuSans-35" transform="translate(63.623047 0)"/>
       <use xlink:href="#DejaVuSans-2e" transform="translate(127.246094 0)"/>
       <use xlink:href="#DejaVuSans-30" transform="translate(159.033203 0)"/>
      </g>
     </g>
    </g>
    <g id="xtick_14">
     <g id="line2d_22">
      <g>
       <use xlink:href="#m039ec25d5d" x="806.869715" y="257.158895" style="stroke: #000000; stroke-width: 0.8"/>
      </g>
     </g>
     <g id="text_23">
      <!-- 17.5 -->
      <g transform="translate(795.736903 271.757332) scale(0.1 -0.1)">
       <use xlink:href="#DejaVuSans-31"/>
       <use xlink:href="#DejaVuSans-37" transform="translate(63.623047 0)"/>
       <use xlink:href="#DejaVuSans-2e" transform="translate(127.246094 0)"/>
       <use xlink:href="#DejaVuSans-35" transform="translate(159.033203 0)"/>
      </g>
     </g>
    </g>
    <g id="xtick_15">
     <g id="line2d_23">
      <g>
       <use xlink:href="#m039ec25d5d" x="850.215538" y="257.158895" style="stroke: #000000; stroke-width: 0.8"/>
      </g>
     </g>
     <g id="text_24">
      <!-- 20.0 -->
      <g transform="translate(839.082726 271.757332) scale(0.1 -0.1)">
       <use xlink:href="#DejaVuSans-32"/>
       <use xlink:href="#DejaVuSans-30" transform="translate(63.623047 0)"/>
       <use xlink:href="#DejaVuSans-2e" transform="translate(127.246094 0)"/>
       <use xlink:href="#DejaVuSans-30" transform="translate(159.033203 0)"/>
      </g>
     </g>
    </g>
    <g id="text_25">
     <!-- wavelength [Å] -->
     <g transform="translate(639.476827 287.119832) scale(0.1 -0.1)">
      <defs>
       <path id="DejaVuSans-77" d="M 269 3500 
L 844 3500 
L 1563 769 
L 2278 3500 
L 2956 3500 
L 3675 769 
L 4391 3500 
L 4966 3500 
L 4050 0 
L 3372 0 
L 2619 2869 
L 1863 0 
L 1184 0 
L 269 3500 
z
" transform="scale(0.015625)"/>
       <path id="DejaVuSans-61" d="M 2194 1759 
Q 1497 1759 1228 1600 
Q 959 1441 959 1056 
Q 959 750 1161 570 
Q 1363 391 1709 391 
Q 2188 391 2477 730 
Q 2766 1069 2766 1631 
L 2766 1759 
L 2194 1759 
z
M 3341 1997 
L 3341 0 
L 2766 0 
L 2766 531 
Q 2569 213 2275 61 
Q 1981 -91 1556 -91 
Q 1019 -91 701 211 
Q 384 513 384 1019 
Q 384 1609 779 1909 
Q 1175 2209 1959 2209 
L 2766 2209 
L 2766 2266 
Q 2766 2663 2505 2880 
Q 2244 3097 1772 3097 
Q 1472 3097 1187 3025 
Q 903 2953 641 2809 
L 641 3341 
Q 956 3463 1253 3523 
Q 1550 3584 1831 3584 
Q 2591 3584 2966 3190 
Q 3341 2797 3341 1997 
z
" transform="scale(0.015625)"/>
       <path id="DejaVuSans-76" d="M 191 3500 
L 800 3500 
L 1894 563 
L 2988 3500 
L 3597 3500 
L 2284 0 
L 1503 0 
L 191 3500 
z
" transform="scale(0.015625)"/>
       <path id="DejaVuSans-67" d="M 2906 1791 
Q 2906 2416 2648 2759 
Q 2391 3103 1925 3103 
Q 1463 3103 1205 2759 
Q 947 2416 947 1791 
Q 947 1169 1205 825 
Q 1463 481 1925 481 
Q 2391 481 2648 825 
Q 2906 1169 2906 1791 
z
M 3481 434 
Q 3481 -459 3084 -895 
Q 2688 -1331 1869 -1331 
Q 1566 -1331 1297 -1286 
Q 1028 -1241 775 -1147 
L 775 -588 
Q 1028 -725 1275 -790 
Q 1522 -856 1778 -856 
Q 2344 -856 2625 -561 
Q 2906 -266 2906 331 
L 2906 616 
Q 2728 306 2450 153 
Q 2172 0 1784 0 
Q 1141 0 747 490 
Q 353 981 353 1791 
Q 353 2603 747 3093 
Q 1141 3584 1784 3584 
Q 2172 3584 2450 3431 
Q 2728 3278 2906 2969 
L 2906 3500 
L 3481 3500 
L 3481 434 
z
" transform="scale(0.015625)"/>
       <path id="DejaVuSans-c5" d="M 2663 5081 
Q 2663 5278 2523 5417 
Q 2384 5556 2188 5556 
Q 1988 5556 1852 5420 
Q 1716 5284 1716 5081 
Q 1716 4884 1853 4746 
Q 1991 4609 2188 4609 
Q 2384 4609 2523 4746 
Q 2663 4884 2663 5081 
z
M 2188 4044 
L 1338 1722 
L 3041 1722 
L 2188 4044 
z
M 1716 4366 
Q 1525 4494 1428 4673 
Q 1331 4853 1331 5081 
Q 1331 5441 1579 5691 
Q 1828 5941 2188 5941 
Q 2544 5941 2795 5689 
Q 3047 5438 3047 5081 
Q 3047 4863 2948 4678 
Q 2850 4494 2663 4366 
L 4325 0 
L 3669 0 
L 3244 1197 
L 1141 1197 
L 716 0 
L 50 0 
L 1716 4366 
z
" transform="scale(0.015625)"/>
      </defs>
      <use xlink:href="#DejaVuSans-77"/>
      <use xlink:href="#DejaVuSans-61" transform="translate(81.787109 0)"/>
      <use xlink:href="#DejaVuSans-76" transform="translate(143.066406 0)"/>
      <use xlink:href="#DejaVuSans-65" transform="translate(202.246094 0)"/>
      <use xlink:href="#DejaVuSans-6c" transform="translate(263.769531 0)"/>
      <use xlink:href="#DejaVuSans-65" transform="translate(291.552734 0)"/>
      <use xlink:href="#DejaVuSans-6e" transform="translate(353.076172 0)"/>
      <use xlink:href="#DejaVuSans-67" transform="translate(416.455078 0)"/>
      <use xlink:href="#DejaVuSans-74" transform="translate(479.931641 0)"/>
      <use xlink:href="#DejaVuSans-68" transform="translate(519.140625 0)"/>
      <use xlink:href="#DejaVuSans-20" transform="translate(582.519531 0)"/>
      <use xlink:href="#DejaVuSans-5b" transform="translate(614.306641 0)"/>
      <use xlink:href="#DejaVuSans-c5" transform="translate(653.320312 0)"/>
      <use xlink:href="#DejaVuSans-5d" transform="translate(721.728516 0)"/>
     </g>
    </g>
   </g>
   <g id="matplotlib.axis_4">
    <g id="ytick_8">
     <g id="line2d_24">
      <g>
       <use xlink:href="#m0483a6523a" x="489.829135" y="245.838673" style="stroke: #000000; stroke-width: 0.8"/>
      </g>
     </g>
     <g id="text_26">
      <!-- 0 -->
      <g transform="translate(476.466635 249.637892) scale(0.1 -0.1)">
       <use xlink:href="#DejaVuSans-30"/>
      </g>
     </g>
    </g>
    <g id="ytick_9">
     <g id="line2d_25">
      <g>
       <use xlink:href="#m0483a6523a" x="489.829135" y="204.292762" style="stroke: #000000; stroke-width: 0.8"/>
      </g>
     </g>
     <g id="text_27">
      <!-- 2000 -->
      <g transform="translate(457.379135 208.091981) scale(0.1 -0.1)">
       <use xlink:href="#DejaVuSans-32"/>
       <use xlink:href="#DejaVuSans-30" transform="translate(63.623047 0)"/>
       <use xlink:href="#DejaVuSans-30" transform="translate(127.246094 0)"/>
       <use xlink:href="#DejaVuSans-30" transform="translate(190.869141 0)"/>
      </g>
     </g>
    </g>
    <g id="ytick_10">
     <g id="line2d_26">
      <g>
       <use xlink:href="#m0483a6523a" x="489.829135" y="162.746851" style="stroke: #000000; stroke-width: 0.8"/>
      </g>
     </g>
     <g id="text_28">
      <!-- 4000 -->
      <g transform="translate(457.379135 166.54607) scale(0.1 -0.1)">
       <use xlink:href="#DejaVuSans-34"/>
       <use xlink:href="#DejaVuSans-30" transform="translate(63.623047 0)"/>
       <use xlink:href="#DejaVuSans-30" transform="translate(127.246094 0)"/>
       <use xlink:href="#DejaVuSans-30" transform="translate(190.869141 0)"/>
      </g>
     </g>
    </g>
    <g id="ytick_11">
     <g id="line2d_27">
      <g>
       <use xlink:href="#m0483a6523a" x="489.829135" y="121.200941" style="stroke: #000000; stroke-width: 0.8"/>
      </g>
     </g>
     <g id="text_29">
      <!-- 6000 -->
      <g transform="translate(457.379135 125.000159) scale(0.1 -0.1)">
       <defs>
        <path id="DejaVuSans-36" d="M 2113 2584 
Q 1688 2584 1439 2293 
Q 1191 2003 1191 1497 
Q 1191 994 1439 701 
Q 1688 409 2113 409 
Q 2538 409 2786 701 
Q 3034 994 3034 1497 
Q 3034 2003 2786 2293 
Q 2538 2584 2113 2584 
z
M 3366 4563 
L 3366 3988 
Q 3128 4100 2886 4159 
Q 2644 4219 2406 4219 
Q 1781 4219 1451 3797 
Q 1122 3375 1075 2522 
Q 1259 2794 1537 2939 
Q 1816 3084 2150 3084 
Q 2853 3084 3261 2657 
Q 3669 2231 3669 1497 
Q 3669 778 3244 343 
Q 2819 -91 2113 -91 
Q 1303 -91 875 529 
Q 447 1150 447 2328 
Q 447 3434 972 4092 
Q 1497 4750 2381 4750 
Q 2619 4750 2861 4703 
Q 3103 4656 3366 4563 
z
" transform="scale(0.015625)"/>
       </defs>
       <use xlink:href="#DejaVuSans-36"/>
       <use xlink:href="#DejaVuSans-30" transform="translate(63.623047 0)"/>
       <use xlink:href="#DejaVuSans-30" transform="translate(127.246094 0)"/>
       <use xlink:href="#DejaVuSans-30" transform="translate(190.869141 0)"/>
      </g>
     </g>
    </g>
    <g id="ytick_12">
     <g id="line2d_28">
      <g>
       <use xlink:href="#m0483a6523a" x="489.829135" y="79.65503" style="stroke: #000000; stroke-width: 0.8"/>
      </g>
     </g>
     <g id="text_30">
      <!-- 8000 -->
      <g transform="translate(457.379135 83.454249) scale(0.1 -0.1)">
       <defs>
        <path id="DejaVuSans-38" d="M 2034 2216 
Q 1584 2216 1326 1975 
Q 1069 1734 1069 1313 
Q 1069 891 1326 650 
Q 1584 409 2034 409 
Q 2484 409 2743 651 
Q 3003 894 3003 1313 
Q 3003 1734 2745 1975 
Q 2488 2216 2034 2216 
z
M 1403 2484 
Q 997 2584 770 2862 
Q 544 3141 544 3541 
Q 544 4100 942 4425 
Q 1341 4750 2034 4750 
Q 2731 4750 3128 4425 
Q 3525 4100 3525 3541 
Q 3525 3141 3298 2862 
Q 3072 2584 2669 2484 
Q 3125 2378 3379 2068 
Q 3634 1759 3634 1313 
Q 3634 634 3220 271 
Q 2806 -91 2034 -91 
Q 1263 -91 848 271 
Q 434 634 434 1313 
Q 434 1759 690 2068 
Q 947 2378 1403 2484 
z
M 1172 3481 
Q 1172 3119 1398 2916 
Q 1625 2713 2034 2713 
Q 2441 2713 2670 2916 
Q 2900 3119 2900 3481 
Q 2900 3844 2670 4047 
Q 2441 4250 2034 4250 
Q 1625 4250 1398 4047 
Q 1172 3844 1172 3481 
z
" transform="scale(0.015625)"/>
       </defs>
       <use xlink:href="#DejaVuSans-38"/>
       <use xlink:href="#DejaVuSans-30" transform="translate(63.623047 0)"/>
       <use xlink:href="#DejaVuSans-30" transform="translate(127.246094 0)"/>
       <use xlink:href="#DejaVuSans-30" transform="translate(190.869141 0)"/>
      </g>
     </g>
    </g>
    <g id="ytick_13">
     <g id="line2d_29">
      <g>
       <use xlink:href="#m0483a6523a" x="489.829135" y="38.109119" style="stroke: #000000; stroke-width: 0.8"/>
      </g>
     </g>
     <g id="text_31">
      <!-- 10000 -->
      <g transform="translate(451.016635 41.908338) scale(0.1 -0.1)">
       <use xlink:href="#DejaVuSans-31"/>
       <use xlink:href="#DejaVuSans-30" transform="translate(63.623047 0)"/>
       <use xlink:href="#DejaVuSans-30" transform="translate(127.246094 0)"/>
       <use xlink:href="#DejaVuSans-30" transform="translate(190.869141 0)"/>
       <use xlink:href="#DejaVuSans-30" transform="translate(254.492188 0)"/>
      </g>
     </g>
    </g>
    <g id="text_32">
     <!-- pulse:0 [counts] -->
     <g transform="translate(444.936947 172.659916) rotate(-90) scale(0.1 -0.1)">
      <use xlink:href="#DejaVuSans-70"/>
      <use xlink:href="#DejaVuSans-75" transform="translate(63.476562 0)"/>
      <use xlink:href="#DejaVuSans-6c" transform="translate(126.855469 0)"/>
      <use xlink:href="#DejaVuSans-73" transform="translate(154.638672 0)"/>
      <use xlink:href="#DejaVuSans-65" transform="translate(206.738281 0)"/>
      <use xlink:href="#DejaVuSans-3a" transform="translate(268.261719 0)"/>
      <use xlink:href="#DejaVuSans-30" transform="translate(301.953125 0)"/>
      <use xlink:href="#DejaVuSans-20" transform="translate(365.576172 0)"/>
      <use xlink:href="#DejaVuSans-5b" transform="translate(397.363281 0)"/>
      <use xlink:href="#DejaVuSans-63" transform="translate(436.376953 0)"/>
      <use xlink:href="#DejaVuSans-6f" transform="translate(491.357422 0)"/>
      <use xlink:href="#DejaVuSans-75" transform="translate(552.539062 0)"/>
      <use xlink:href="#DejaVuSans-6e" transform="translate(615.917969 0)"/>
      <use xlink:href="#DejaVuSans-74" transform="translate(679.296875 0)"/>
      <use xlink:href="#DejaVuSans-73" transform="translate(718.505859 0)"/>
      <use xlink:href="#DejaVuSans-5d" transform="translate(770.605469 0)"/>
     </g>
    </g>
   </g>
   <g id="line2d_30">
    <path d="M 506.891425 156.120279 
L 508.028911 156.120279 
L 508.028911 147.790323 
L 509.166397 147.790323 
L 509.166397 139.8966 
L 510.303883 139.8966 
L 510.303883 138.712542 
L 511.441369 138.712542 
L 511.441369 147.707232 
L 512.578855 147.707232 
L 512.578855 154.271486 
L 513.716341 154.271486 
L 513.716341 149.888392 
L 514.853827 149.888392 
L 514.853827 127.245871 
L 515.991313 127.245871 
L 515.991313 109.256491 
L 517.128799 109.256491 
L 517.128799 86.655516 
L 518.266285 86.655516 
L 518.266285 63.410579 
L 519.403771 63.410579 
L 519.403771 37.901389 
L 520.541257 37.901389 
L 520.541257 27.826506 
L 521.678743 27.826506 
L 521.678743 23.92119 
L 522.816229 23.92119 
L 522.816229 18.561768 
L 523.953715 18.561768 
L 523.953715 23.630369 
L 525.091201 23.630369 
L 525.091201 35.09704 
L 526.228687 35.09704 
L 526.228687 44.174822 
L 527.366173 44.174822 
L 527.366173 52.421685 
L 528.50366 52.421685 
L 528.50366 61.291737 
L 529.641146 61.291737 
L 529.641146 72.405268 
L 530.778632 72.405268 
L 530.778632 82.355514 
L 531.916118 82.355514 
L 531.916118 86.863245 
L 533.053604 86.863245 
L 533.053604 93.240543 
L 534.19109 93.240543 
L 534.19109 97.478226 
L 535.328576 97.478226 
L 535.328576 98.184506 
L 536.466062 98.184506 
L 536.466062 97.43668 
L 537.603548 97.43668 
L 537.603548 98.35069 
L 538.741034 98.35069 
L 538.741034 92.264214 
L 539.87852 92.264214 
L 539.87852 89.729913 
L 541.016006 89.729913 
L 541.016006 82.023147 
L 542.153492 82.023147 
L 542.153492 72.155993 
L 543.290978 72.155993 
L 543.290978 64.407681 
L 544.428464 64.407681 
L 544.428464 54.810575 
L 545.56595 54.810575 
L 545.56595 43.904774 
L 546.703436 43.904774 
L 546.703436 37.548249 
L 547.840922 37.548249 
L 547.840922 36.281099 
L 548.978408 36.281099 
L 548.978408 46.896079 
L 550.115894 46.896079 
L 550.115894 59.463717 
L 551.25338 59.463717 
L 551.25338 63.015893 
L 552.390866 63.015893 
L 552.390866 72.924592 
L 553.528352 72.924592 
L 553.528352 82.854065 
L 554.665838 82.854065 
L 554.665838 91.163247 
L 555.803324 91.163247 
L 555.803324 100.73958 
L 556.94081 100.73958 
L 556.94081 105.517359 
L 558.078296 105.517359 
L 558.078296 114.636687 
L 559.215782 114.636687 
L 559.215782 118.749732 
L 560.353268 118.749732 
L 560.353268 130.922684 
L 561.490754 130.922684 
L 561.490754 132.210607 
L 562.62824 132.210607 
L 562.62824 139.875827 
L 563.765726 139.875827 
L 563.765726 143.448776 
L 564.903212 143.448776 
L 564.903212 150.283078 
L 566.040698 150.283078 
L 566.040698 153.835254 
L 567.178184 153.835254 
L 567.178184 159.256995 
L 568.31567 159.256995 
L 568.31567 162.040571 
L 569.453156 162.040571 
L 569.453156 164.595644 
L 570.590642 164.595644 
L 570.590642 170.869077 
L 571.728128 170.869077 
L 571.728128 173.444923 
L 572.865614 173.444923 
L 572.865614 180.02995 
L 574.0031 180.02995 
L 574.0031 181.400965 
L 575.140586 181.400965 
L 575.140586 182.003381 
L 576.278072 182.003381 
L 576.278072 185.763286 
L 577.415558 185.763286 
L 577.415558 189.93865 
L 578.553044 189.93865 
L 578.553044 191.517395 
L 579.69053 191.517395 
L 579.69053 194.633338 
L 580.828016 194.633338 
L 580.828016 197.915465 
L 581.965502 197.915465 
L 581.965502 199.07875 
L 583.102988 199.07875 
L 583.102988 200.428992 
L 584.240474 200.428992 
L 584.240474 202.194694 
L 585.37796 202.194694 
L 585.37796 204.77054 
L 586.515446 204.77054 
L 586.515446 205.393729 
L 587.652932 205.393729 
L 587.652932 208.925131 
L 588.790418 208.925131 
L 588.790418 210.2546 
L 589.927904 210.2546 
L 589.927904 210.711605 
L 591.06539 210.711605 
L 591.06539 212.871993 
L 592.202876 212.871993 
L 592.202876 215.03238 
L 593.340362 215.03238 
L 593.340362 214.409191 
L 594.477848 214.409191 
L 594.477848 218.501464 
L 595.615334 218.501464 
L 595.615334 216.985038 
L 596.75282 216.985038 
L 596.75282 218.148323 
L 597.890306 218.148323 
L 597.890306 220.973445 
L 599.027792 220.973445 
L 599.027792 222.115958 
L 600.165278 222.115958 
L 600.165278 221.929001 
L 601.302764 221.929001 
L 601.302764 223.964751 
L 602.44025 223.964751 
L 602.44025 224.982626 
L 603.577737 224.982626 
L 603.577737 226.042046 
L 604.715223 226.042046 
L 604.715223 225.273447 
L 605.852709 225.273447 
L 605.852709 226.291322 
L 606.990195 226.291322 
L 606.990195 228.472482 
L 608.127681 228.472482 
L 608.127681 227.558472 
L 609.265167 227.558472 
L 609.265167 228.721758 
L 610.402653 228.721758 
L 610.402653 230.092773 
L 611.540139 230.092773 
L 611.540139 229.137217 
L 612.677625 229.137217 
L 612.677625 231.048329 
L 613.815111 231.048329 
L 613.815111 230.923691 
L 614.952597 230.923691 
L 614.952597 231.629971 
L 616.090083 231.629971 
L 616.090083 232.668619 
L 617.227569 232.668619 
L 617.227569 232.980214 
L 618.365055 232.980214 
L 618.365055 233.561856 
L 619.502541 233.561856 
L 619.502541 234.912098 
L 620.640027 234.912098 
L 620.640027 234.475866 
L 621.777513 234.475866 
L 621.777513 235.722244 
L 622.914999 235.722244 
L 622.914999 235.306785 
L 624.052485 235.306785 
L 624.052485 234.808234 
L 625.189971 234.808234 
L 625.189971 235.805335 
L 627.464943 235.867654 
L 627.464943 236.947848 
L 628.602429 236.947848 
L 628.602429 236.553162 
L 629.739915 236.553162 
L 629.739915 237.342534 
L 630.877401 237.342534 
L 630.877401 237.550264 
L 632.014887 237.550264 
L 632.014887 238.048815 
L 633.152373 238.048815 
L 633.152373 238.464274 
L 634.289859 238.464274 
L 634.289859 237.633356 
L 635.427345 237.633356 
L 635.427345 238.152679 
L 636.564831 238.152679 
L 636.564831 237.882631 
L 637.702317 237.882631 
L 637.702317 239.170554 
L 638.839803 239.170554 
L 638.839803 239.669105 
L 639.977289 239.669105 
L 639.977289 240.583115 
L 641.114775 240.583115 
L 641.114775 239.378284 
L 642.252261 239.378284 
L 642.252261 239.689878 
L 643.389747 239.689878 
L 643.389747 240.437705 
L 644.527233 240.437705 
L 644.527233 240.022245 
L 645.664719 240.022245 
L 645.664719 240.250748 
L 646.802205 240.250748 
L 646.802205 241.060893 
L 647.939691 241.060893 
L 647.939691 241.351715 
L 649.077177 241.351715 
L 649.077177 240.707753 
L 650.214663 240.707753 
L 650.214663 240.853164 
L 651.352149 240.853164 
L 651.352149 240.728526 
L 652.489635 240.728526 
L 652.489635 241.434806 
L 653.627121 241.434806 
L 653.627121 241.102439 
L 654.764607 241.102439 
L 654.764607 241.330942 
L 655.902093 241.330942 
L 655.902093 241.891811 
L 657.039579 241.891811 
L 657.039579 242.016449 
L 658.177065 242.016449 
L 658.177065 241.663309 
L 659.314551 241.663309 
L 659.314551 241.455579 
L 660.452037 241.455579 
L 660.452037 242.369589 
L 662.727009 242.348816 
L 662.727009 242.577319 
L 663.864495 242.577319 
L 663.864495 242.826594 
L 665.001981 242.826594 
L 665.001981 242.598092 
L 666.139467 242.598092 
L 666.139467 242.764276 
L 668.414439 242.826594 
L 668.414439 243.179735 
L 669.551925 243.179735 
L 669.551925 242.972005 
L 671.826897 243.013551 
L 671.826897 243.158962 
L 672.964383 243.158962 
L 672.964383 242.618865 
L 674.101869 242.618865 
L 674.101869 243.304372 
L 675.239355 243.304372 
L 675.239355 243.096643 
L 677.514327 243.055097 
L 677.514327 243.42901 
L 679.7893 243.345918 
L 679.7893 243.699059 
L 680.926786 243.699059 
L 680.926786 243.886015 
L 682.064272 243.886015 
L 682.064272 243.678286 
L 683.201758 243.678286 
L 683.201758 243.42901 
L 684.339244 243.42901 
L 684.339244 243.63674 
L 685.47673 243.63674 
L 685.47673 244.072972 
L 686.614216 244.072972 
L 686.614216 243.761377 
L 691.16416 243.761377 
L 691.16416 243.969107 
L 692.301646 243.969107 
L 692.301646 244.135291 
L 693.439132 244.135291 
L 693.439132 244.010653 
L 695.714104 243.98988 
L 695.714104 244.280701 
L 696.85159 244.280701 
L 696.85159 244.529977 
L 697.989076 244.529977 
L 697.989076 243.948334 
L 699.126562 243.948334 
L 699.126562 244.093745 
L 701.401534 244.197609 
L 701.401534 244.280701 
L 703.676506 244.259928 
L 703.676506 244.862344 
L 705.951478 244.758479 
L 705.951478 244.716933 
L 707.088964 244.716933 
L 707.088964 244.446885 
L 709.363936 244.488431 
L 709.363936 244.654614 
L 710.501422 244.654614 
L 710.501422 244.529977 
L 715.051366 244.633842 
L 715.051366 244.800025 
L 721.876282 244.800025 
L 721.876282 244.654614 
L 723.013768 244.654614 
L 723.013768 245.028528 
L 724.151254 245.028528 
L 724.151254 244.675387 
L 725.28874 244.675387 
L 725.28874 244.924663 
L 729.838684 245.028528 
L 729.838684 245.153165 
L 730.97617 245.153165 
L 730.97617 244.966209 
L 733.251142 244.883117 
L 733.251142 245.090847 
L 736.6636 245.070074 
L 736.6636 244.945436 
L 740.076058 245.049301 
L 740.076058 245.340122 
L 741.213544 245.340122 
L 741.213544 245.132392 
L 745.763488 245.090847 
L 745.763488 244.986982 
L 746.900974 244.986982 
L 746.900974 245.25703 
L 753.725891 245.360895 
L 753.725891 245.381668 
L 760.550807 245.381668 
L 760.550807 245.506306 
L 761.688293 245.506306 
L 761.688293 245.340122 
L 762.825779 245.340122 
L 762.825779 245.506306 
L 763.963265 245.506306 
L 763.963265 245.381668 
L 770.788181 245.319349 
L 770.788181 245.506306 
L 771.925667 245.506306 
L 771.925667 245.360895 
L 774.200639 245.46476 
L 774.200639 245.672489 
L 776.475611 245.61017 
L 776.475611 245.506306 
L 782.163041 245.568625 
L 782.163041 245.630943 
L 783.300527 245.630943 
L 783.300527 245.506306 
L 792.400415 245.568625 
L 792.400415 245.651716 
L 821.975051 245.61017 
L 821.975051 245.776354 
L 823.112537 245.776354 
L 823.112537 245.61017 
L 827.662482 245.651716 
L 827.662482 245.734808 
L 848.13723 245.755581 
L 848.13723 245.755581 
" clip-path="url(#p70ceb1ef18)" style="fill: none; stroke: #1f77b4; stroke-width: 1.5; stroke-linecap: square"/>
   </g>
   <g id="patch_8">
    <path d="M 489.829135 257.158895 
L 489.829135 7.2 
" style="fill: none; stroke: #000000; stroke-width: 0.8; stroke-linejoin: miter; stroke-linecap: square"/>
   </g>
   <g id="patch_9">
    <path d="M 865.19952 257.158895 
L 865.19952 7.2 
" style="fill: none; stroke: #000000; stroke-width: 0.8; stroke-linejoin: miter; stroke-linecap: square"/>
   </g>
   <g id="patch_10">
    <path d="M 489.829135 257.158895 
L 865.19952 257.158895 
" style="fill: none; stroke: #000000; stroke-width: 0.8; stroke-linejoin: miter; stroke-linecap: square"/>
   </g>
   <g id="patch_11">
    <path d="M 489.829135 7.2 
L 865.19952 7.2 
" style="fill: none; stroke: #000000; stroke-width: 0.8; stroke-linejoin: miter; stroke-linecap: square"/>
   </g>
  </g>
 </g>
 <defs>
  <clipPath id="p9e49085a55">
   <rect x="53.328125" y="7.2" width="375.370385" height="249.958895"/>
  </clipPath>
  <clipPath id="p70ceb1ef18">
   <rect x="489.829135" y="7.2" width="375.370385" height="249.958895"/>
  </clipPath>
 </defs>
</svg>
