<?xml version="1.0" encoding="utf-8" standalone="no"?>
<!DOCTYPE svg PUBLIC "-//W3C//DTD SVG 1.1//EN"
  "http://www.w3.org/Graphics/SVG/1.1/DTD/svg11.dtd">
<svg xmlns:xlink="http://www.w3.org/1999/xlink" width="872.39952pt" height="296.39952pt" viewBox="0 0 872.39952 296.39952" xmlns="http://www.w3.org/2000/svg" version="1.1">
 <metadata>
  <rdf:RDF xmlns:dc="http://purl.org/dc/elements/1.1/" xmlns:cc="http://creativecommons.org/ns#" xmlns:rdf="http://www.w3.org/1999/02/22-rdf-syntax-ns#">
   <cc:Work>
    <dc:type rdf:resource="http://purl.org/dc/dcmitype/StillImage"/>
    <dc:date>2026-06-24T08:34:17.034983</dc:date>
    <dc:format>image/svg+xml</dc:format>
    <dc:creator>
     <cc:Agent>
      <dc:title>Matplotlib v3.10.9, https://matplotlib.org/</dc:title>
     </cc:Agent>
    </dc:creator>
   </cc:Work>
  </rdf:RDF>
 </metadata>
 <defs>
  <style type="text/css">*{stroke-linejoin: round; stroke-linecap: butt}</style>
 </defs>
 <g id="figure_1">
  <g id="patch_1">
   <path d="M 0 296.39952 
L 872.39952 296.39952 
L 872.39952 0 
L 0 0 
z
" style="fill: #ffffff"/>
  </g>
  <g id="axes_1">
   <g id="patch_2">
    <path d="M 53.328125 257.158895 
L 410.545288 257.158895 
L 410.545288 7.2 
L 53.328125 7.2 
z
" style="fill: #ffffff"/>
   </g>
   <g id="matplotlib.axis_1">
    <g id="xtick_1">
     <g id="line2d_1">
      <defs>
       <path id="m93cab40a9a" d="M 0 0 
L 0 3.5 
" style="stroke: #000000; stroke-width: 0.8"/>
      </defs>
      <g>
       <use xlink:href="#m93cab40a9a" x="69.564885" y="257.158895" style="stroke: #000000; stroke-width: 0.8"/>
      </g>
     </g>
     <g id="text_1">
      <!-- 0 -->
      <g transform="translate(66.383635 271.757332) scale(0.1 -0.1)">
       <defs>
        <path id="DejaVuSans-30" d="M 2034 4250 
Q 1547 4250 1301 3770 
Q 1056 3291 1056 2328 
Q 1056 1369 1301 889 
Q 1547 409 2034 409 
Q 2525 409 2770 889 
Q 3016 1369 3016 2328 
Q 3016 3291 2770 3770 
Q 2525 4250 2034 4250 
z
M 2034 4750 
Q 2819 4750 3233 4129 
Q 3647 3509 3647 2328 
Q 3647 1150 3233 529 
Q 2819 -91 2034 -91 
Q 1250 -91 836 529 
Q 422 1150 422 2328 
Q 422 3509 836 4129 
Q 1250 4750 2034 4750 
z
" transform="scale(0.015625)"/>
       </defs>
       <use xlink:href="#DejaVuSans-30"/>
      </g>
     </g>
    </g>
    <g id="xtick_2">
     <g id="line2d_2">
      <g>
       <use xlink:href="#m93cab40a9a" x="124.562209" y="257.158895" style="stroke: #000000; stroke-width: 0.8"/>
      </g>
     </g>
     <g id="text_2">
      <!-- 1000 -->
      <g transform="translate(111.837209 271.757332) scale(0.1 -0.1)">
       <defs>
        <path id="DejaVuSans-31" d="M 794 531 
L 1825 531 
L 1825 4091 
L 703 3866 
L 703 4441 
L 1819 4666 
L 2450 4666 
L 2450 531 
L 3481 531 
L 3481 0 
L 794 0 
L 794 531 
z
" transform="scale(0.015625)"/>
       </defs>
       <use xlink:href="#DejaVuSans-31"/>
       <use xlink:href="#DejaVuSans-30" transform="translate(63.623047 0)"/>
       <use xlink:href="#DejaVuSans-30" transform="translate(127.246094 0)"/>
       <use xlink:href="#DejaVuSans-30" transform="translate(190.869141 0)"/>
      </g>
     </g>
    </g>
    <g id="xtick_3">
     <g id="line2d_3">
      <g>
       <use xlink:href="#m93cab40a9a" x="179.559534" y="257.158895" style="stroke: #000000; stroke-width: 0.8"/>
      </g>
     </g>
     <g id="text_3">
      <!-- 2000 -->
      <g transform="translate(166.834534 271.757332) scale(0.1 -0.1)">
       <defs>
        <path id="DejaVuSans-32" d="M 1228 531 
L 3431 531 
L 3431 0 
L 469 0 
L 469 531 
Q 828 903 1448 1529 
Q 2069 2156 2228 2338 
Q 2531 2678 2651 2914 
Q 2772 3150 2772 3378 
Q 2772 3750 2511 3984 
Q 2250 4219 1831 4219 
Q 1534 4219 1204 4116 
Q 875 4013 500 3803 
L 500 4441 
Q 881 4594 1212 4672 
Q 1544 4750 1819 4750 
Q 2544 4750 2975 4387 
Q 3406 4025 3406 3419 
Q 3406 3131 3298 2873 
Q 3191 2616 2906 2266 
Q 2828 2175 2409 1742 
Q 1991 1309 1228 531 
z
" transform="scale(0.015625)"/>
       </defs>
       <use xlink:href="#DejaVuSans-32"/>
       <use xlink:href="#DejaVuSans-30" transform="translate(63.623047 0)"/>
       <use xlink:href="#DejaVuSans-30" transform="translate(127.246094 0)"/>
       <use xlink:href="#DejaVuSans-30" transform="translate(190.869141 0)"/>
      </g>
     </g>
    </g>
    <g id="xtick_4">
     <g id="line2d_4">
      <g>
       <use xlink:href="#m93cab40a9a" x="234.556858" y="257.158895" style="stroke: #000000; stroke-width: 0.8"/>
      </g>
     </g>
     <g id="text_4">
      <!-- 3000 -->
      <g transform="translate(221.831858 271.757332) scale(0.1 -0.1)">
       <defs>
        <path id="DejaVuSans-33" d="M 2597 2516 
Q 3050 2419 3304 2112 
Q 3559 1806 3559 1356 
Q 3559 666 3084 287 
Q 2609 -91 1734 -91 
Q 1441 -91 1130 -33 
Q 819 25 488 141 
L 488 750 
Q 750 597 1062 519 
Q 1375 441 1716 441 
Q 2309 441 2620 675 
Q 2931 909 2931 1356 
Q 2931 1769 2642 2001 
Q 2353 2234 1838 2234 
L 1294 2234 
L 1294 2753 
L 1863 2753 
Q 2328 2753 2575 2939 
Q 2822 3125 2822 3475 
Q 2822 3834 2567 4026 
Q 2313 4219 1838 4219 
Q 1578 4219 1281 4162 
Q 984 4106 628 3988 
L 628 4550 
Q 988 4650 1302 4700 
Q 1616 4750 1894 4750 
Q 2613 4750 3031 4423 
Q 3450 4097 3450 3541 
Q 3450 3153 3228 2886 
Q 3006 2619 2597 2516 
z
" transform="scale(0.015625)"/>
       </defs>
       <use xlink:href="#DejaVuSans-33"/>
       <use xlink:href="#DejaVuSans-30" transform="translate(63.623047 0)"/>
       <use xlink:href="#DejaVuSans-30" transform="translate(127.246094 0)"/>
       <use xlink:href="#DejaVuSans-30" transform="translate(190.869141 0)"/>
      </g>
     </g>
    </g>
    <g id="xtick_5">
     <g id="line2d_5">
      <g>
       <use xlink:href="#m93cab40a9a" x="289.554183" y="257.158895" style="stroke: #000000; stroke-width: 0.8"/>
      </g>
     </g>
     <g id="text_5">
      <!-- 4000 -->
      <g transform="translate(276.829183 271.757332) scale(0.1 -0.1)">
       <defs>
        <path id="DejaVuSans-34" d="M 2419 4116 
L 825 1625 
L 2419 1625 
L 2419 4116 
z
M 2253 4666 
L 3047 4666 
L 3047 1625 
L 3713 1625 
L 3713 1100 
L 3047 1100 
L 3047 0 
L 2419 0 
L 2419 1100 
L 313 1100 
L 313 1709 
L 2253 4666 
z
" transform="scale(0.015625)"/>
       </defs>
       <use xlink:href="#DejaVuSans-34"/>
       <use xlink:href="#DejaVuSans-30" transform="translate(63.623047 0)"/>
       <use xlink:href="#DejaVuSans-30" transform="translate(127.246094 0)"/>
       <use xlink:href="#DejaVuSans-30" transform="translate(190.869141 0)"/>
      </g>
     </g>
    </g>
    <g id="xtick_6">
     <g id="line2d_6">
      <g>
       <use xlink:href="#m93cab40a9a" x="344.551507" y="257.158895" style="stroke: #000000; stroke-width: 0.8"/>
      </g>
     </g>
     <g id="text_6">
      <!-- 5000 -->
      <g transform="translate(331.826507 271.757332) scale(0.1 -0.1)">
       <defs>
        <path id="DejaVuSans-35" d="M 691 4666 
L 3169 4666 
L 3169 4134 
L 1269 4134 
L 1269 2991 
Q 1406 3038 1543 3061 
Q 1681 3084 1819 3084 
Q 2600 3084 3056 2656 
Q 3513 2228 3513 1497 
Q 3513 744 3044 326 
Q 2575 -91 1722 -91 
Q 1428 -91 1123 -41 
Q 819 9 494 109 
L 494 744 
Q 775 591 1075 516 
Q 1375 441 1709 441 
Q 2250 441 2565 725 
Q 2881 1009 2881 1497 
Q 2881 1984 2565 2268 
Q 2250 2553 1709 2553 
Q 1456 2553 1204 2497 
Q 953 2441 691 2322 
L 691 4666 
z
" transform="scale(0.015625)"/>
       </defs>
       <use xlink:href="#DejaVuSans-35"/>
       <use xlink:href="#DejaVuSans-30" transform="translate(63.623047 0)"/>
       <use xlink:href="#DejaVuSans-30" transform="translate(127.246094 0)"/>
       <use xlink:href="#DejaVuSans-30" transform="translate(190.869141 0)"/>
      </g>
     </g>
    </g>
    <g id="xtick_7">
     <g id="line2d_7">
      <g>
       <use xlink:href="#m93cab40a9a" x="399.548831" y="257.158895" style="stroke: #000000; stroke-width: 0.8"/>
      </g>
     </g>
     <g id="text_7">
      <!-- 6000 -->
      <g transform="translate(386.823831 271.757332) scale(0.1 -0.1)">
       <defs>
        <path id="DejaVuSans-36" d="M 2113 2584 
Q 1688 2584 1439 2293 
Q 1191 2003 1191 1497 
Q 1191 994 1439 701 
Q 1688 409 2113 409 
Q 2538 409 2786 701 
Q 3034 994 3034 1497 
Q 3034 2003 2786 2293 
Q 2538 2584 2113 2584 
z
M 3366 4563 
L 3366 3988 
Q 3128 4100 2886 4159 
Q 2644 4219 2406 4219 
Q 1781 4219 1451 3797 
Q 1122 3375 1075 2522 
Q 1259 2794 1537 2939 
Q 1816 3084 2150 3084 
Q 2853 3084 3261 2657 
Q 3669 2231 3669 1497 
Q 3669 778 3244 343 
Q 2819 -91 2113 -91 
Q 1303 -91 875 529 
Q 447 1150 447 2328 
Q 447 3434 972 4092 
Q 1497 4750 2381 4750 
Q 2619 4750 2861 4703 
Q 3103 4656 3366 4563 
z
" transform="scale(0.015625)"/>
       </defs>
       <use xlink:href="#DejaVuSans-36"/>
       <use xlink:href="#DejaVuSans-30" transform="translate(63.623047 0)"/>
       <use xlink:href="#DejaVuSans-30" transform="translate(127.246094 0)"/>
       <use xlink:href="#DejaVuSans-30" transform="translate(190.869141 0)"/>
      </g>
     </g>
    </g>
    <g id="text_8">
     <!-- birth_time [µs] -->
     <g transform="translate(195.116394 285.435457) scale(0.1 -0.1)">
      <defs>
       <path id="DejaVuSans-62" d="M 3116 1747 
Q 3116 2381 2855 2742 
Q 2594 3103 2138 3103 
Q 1681 3103 1420 2742 
Q 1159 2381 1159 1747 
Q 1159 1113 1420 752 
Q 1681 391 2138 391 
Q 2594 391 2855 752 
Q 3116 1113 3116 1747 
z
M 1159 2969 
Q 1341 3281 1617 3432 
Q 1894 3584 2278 3584 
Q 2916 3584 3314 3078 
Q 3713 2572 3713 1747 
Q 3713 922 3314 415 
Q 2916 -91 2278 -91 
Q 1894 -91 1617 61 
Q 1341 213 1159 525 
L 1159 0 
L 581 0 
L 581 4863 
L 1159 4863 
L 1159 2969 
z
" transform="scale(0.015625)"/>
       <path id="DejaVuSans-69" d="M 603 3500 
L 1178 3500 
L 1178 0 
L 603 0 
L 603 3500 
z
M 603 4863 
L 1178 4863 
L 1178 4134 
L 603 4134 
L 603 4863 
z
" transform="scale(0.015625)"/>
       <path id="DejaVuSans-72" d="M 2631 2963 
Q 2534 3019 2420 3045 
Q 2306 3072 2169 3072 
Q 1681 3072 1420 2755 
Q 1159 2438 1159 1844 
L 1159 0 
L 581 0 
L 581 3500 
L 1159 3500 
L 1159 2956 
Q 1341 3275 1631 3429 
Q 1922 3584 2338 3584 
Q 2397 3584 2469 3576 
Q 2541 3569 2628 3553 
L 2631 2963 
z
" transform="scale(0.015625)"/>
       <path id="DejaVuSans-74" d="M 1172 4494 
L 1172 3500 
L 2356 3500 
L 2356 3053 
L 1172 3053 
L 1172 1153 
Q 1172 725 1289 603 
Q 1406 481 1766 481 
L 2356 481 
L 2356 0 
L 1766 0 
Q 1100 0 847 248 
Q 594 497 594 1153 
L 594 3053 
L 172 3053 
L 172 3500 
L 594 3500 
L 594 4494 
L 1172 4494 
z
" transform="scale(0.015625)"/>
       <path id="DejaVuSans-68" d="M 3513 2113 
L 3513 0 
L 2938 0 
L 2938 2094 
Q 2938 2591 2744 2837 
Q 2550 3084 2163 3084 
Q 1697 3084 1428 2787 
Q 1159 2491 1159 1978 
L 1159 0 
L 581 0 
L 581 4863 
L 1159 4863 
L 1159 2956 
Q 1366 3272 1645 3428 
Q 1925 3584 2291 3584 
Q 2894 3584 3203 3211 
Q 3513 2838 3513 2113 
z
" transform="scale(0.015625)"/>
       <path id="DejaVuSans-5f" d="M 3263 -1063 
L 3263 -1509 
L -63 -1509 
L -63 -1063 
L 3263 -1063 
z
" transform="scale(0.015625)"/>
       <path id="DejaVuSans-6d" d="M 3328 2828 
Q 3544 3216 3844 3400 
Q 4144 3584 4550 3584 
Q 5097 3584 5394 3201 
Q 5691 2819 5691 2113 
L 5691 0 
L 5113 0 
L 5113 2094 
Q 5113 2597 4934 2840 
Q 4756 3084 4391 3084 
Q 3944 3084 3684 2787 
Q 3425 2491 3425 1978 
L 3425 0 
L 2847 0 
L 2847 2094 
Q 2847 2600 2669 2842 
Q 2491 3084 2119 3084 
Q 1678 3084 1418 2786 
Q 1159 2488 1159 1978 
L 1159 0 
L 581 0 
L 581 3500 
L 1159 3500 
L 1159 2956 
Q 1356 3278 1631 3431 
Q 1906 3584 2284 3584 
Q 2666 3584 2933 3390 
Q 3200 3197 3328 2828 
z
" transform="scale(0.015625)"/>
       <path id="DejaVuSans-65" d="M 3597 1894 
L 3597 1613 
L 953 1613 
Q 991 1019 1311 708 
Q 1631 397 2203 397 
Q 2534 397 2845 478 
Q 3156 559 3463 722 
L 3463 178 
Q 3153 47 2828 -22 
Q 2503 -91 2169 -91 
Q 1331 -91 842 396 
Q 353 884 353 1716 
Q 353 2575 817 3079 
Q 1281 3584 2069 3584 
Q 2775 3584 3186 3129 
Q 3597 2675 3597 1894 
z
M 3022 2063 
Q 3016 2534 2758 2815 
Q 2500 3097 2075 3097 
Q 1594 3097 1305 2825 
Q 1016 2553 972 2059 
L 3022 2063 
z
" transform="scale(0.015625)"/>
       <path id="DejaVuSans-20" transform="scale(0.015625)"/>
       <path id="DejaVuSans-5b" d="M 550 4863 
L 1875 4863 
L 1875 4416 
L 1125 4416 
L 1125 -397 
L 1875 -397 
L 1875 -844 
L 550 -844 
L 550 4863 
z
" transform="scale(0.015625)"/>
       <path id="DejaVuSans-b5" d="M 544 -1331 
L 544 3500 
L 1119 3500 
L 1119 1325 
Q 1119 872 1334 640 
Q 1550 409 1972 409 
Q 2434 409 2667 671 
Q 2900 934 2900 1459 
L 2900 3500 
L 3475 3500 
L 3475 806 
Q 3475 619 3529 530 
Q 3584 441 3700 441 
Q 3728 441 3778 458 
Q 3828 475 3916 513 
L 3916 50 
Q 3788 -22 3673 -56 
Q 3559 -91 3450 -91 
Q 3234 -91 3106 31 
Q 2978 153 2931 403 
Q 2775 156 2548 32 
Q 2322 -91 2016 -91 
Q 1697 -91 1473 31 
Q 1250 153 1119 397 
L 1119 -1331 
L 544 -1331 
z
" transform="scale(0.015625)"/>
       <path id="DejaVuSans-73" d="M 2834 3397 
L 2834 2853 
Q 2591 2978 2328 3040 
Q 2066 3103 1784 3103 
Q 1356 3103 1142 2972 
Q 928 2841 928 2578 
Q 928 2378 1081 2264 
Q 1234 2150 1697 2047 
L 1894 2003 
Q 2506 1872 2764 1633 
Q 3022 1394 3022 966 
Q 3022 478 2636 193 
Q 2250 -91 1575 -91 
Q 1294 -91 989 -36 
Q 684 19 347 128 
L 347 722 
Q 666 556 975 473 
Q 1284 391 1588 391 
Q 1994 391 2212 530 
Q 2431 669 2431 922 
Q 2431 1156 2273 1281 
Q 2116 1406 1581 1522 
L 1381 1569 
Q 847 1681 609 1914 
Q 372 2147 372 2553 
Q 372 3047 722 3315 
Q 1072 3584 1716 3584 
Q 2034 3584 2315 3537 
Q 2597 3491 2834 3397 
z
" transform="scale(0.015625)"/>
       <path id="DejaVuSans-5d" d="M 1947 4863 
L 1947 -844 
L 622 -844 
L 622 -397 
L 1369 -397 
L 1369 4416 
L 622 4416 
L 622 4863 
L 1947 4863 
z
" transform="scale(0.015625)"/>
      </defs>
      <use xlink:href="#DejaVuSans-62"/>
      <use xlink:href="#DejaVuSans-69" transform="translate(63.476562 0)"/>
      <use xlink:href="#DejaVuSans-72" transform="translate(91.259766 0)"/>
      <use xlink:href="#DejaVuSans-74" transform="translate(132.373047 0)"/>
      <use xlink:href="#DejaVuSans-68" transform="translate(171.582031 0)"/>
      <use xlink:href="#DejaVuSans-5f" transform="translate(234.960938 0)"/>
      <use xlink:href="#DejaVuSans-74" transform="translate(284.960938 0)"/>
      <use xlink:href="#DejaVuSans-69" transform="translate(324.169922 0)"/>
      <use xlink:href="#DejaVuSans-6d" transform="translate(351.953125 0)"/>
      <use xlink:href="#DejaVuSans-65" transform="translate(449.365234 0)"/>
      <use xlink:href="#DejaVuSans-20" transform="translate(510.888672 0)"/>
      <use xlink:href="#DejaVuSans-5b" transform="translate(542.675781 0)"/>
      <use xlink:href="#DejaVuSans-b5" transform="translate(581.689453 0)"/>
      <use xlink:href="#DejaVuSans-73" transform="translate(645.3125 0)"/>
      <use xlink:href="#DejaVuSans-5d" transform="translate(697.412109 0)"/>
     </g>
    </g>
   </g>
   <g id="matplotlib.axis_2">
    <g id="ytick_1">
     <g id="line2d_8">
      <defs>
       <path id="m248c680118" d="M 0 0 
L -3.5 0 
" style="stroke: #000000; stroke-width: 0.8"/>
      </defs>
      <g>
       <use xlink:href="#m248c680118" x="53.328125" y="245.797127" style="stroke: #000000; stroke-width: 0.8"/>
      </g>
     </g>
     <g id="text_9">
      <!-- 0 -->
      <g transform="translate(39.965625 249.596346) scale(0.1 -0.1)">
       <use xlink:href="#DejaVuSans-30"/>
      </g>
     </g>
    </g>
    <g id="ytick_2">
     <g id="line2d_9">
      <g>
       <use xlink:href="#m248c680118" x="53.328125" y="213.891011" style="stroke: #000000; stroke-width: 0.8"/>
      </g>
     </g>
     <g id="text_10">
      <!-- 500 -->
      <g transform="translate(27.240625 217.69023) scale(0.1 -0.1)">
       <use xlink:href="#DejaVuSans-35"/>
       <use xlink:href="#DejaVuSans-30" transform="translate(63.623047 0)"/>
       <use xlink:href="#DejaVuSans-30" transform="translate(127.246094 0)"/>
      </g>
     </g>
    </g>
    <g id="ytick_3">
     <g id="line2d_10">
      <g>
       <use xlink:href="#m248c680118" x="53.328125" y="181.984895" style="stroke: #000000; stroke-width: 0.8"/>
      </g>
     </g>
     <g id="text_11">
      <!-- 1000 -->
      <g transform="translate(20.878125 185.784114) scale(0.1 -0.1)">
       <use xlink:href="#DejaVuSans-31"/>
       <use xlink:href="#DejaVuSans-30" transform="translate(63.623047 0)"/>
       <use xlink:href="#DejaVuSans-30" transform="translate(127.246094 0)"/>
       <use xlink:href="#DejaVuSans-30" transform="translate(190.869141 0)"/>
      </g>
     </g>
    </g>
    <g id="ytick_4">
     <g id="line2d_11">
      <g>
       <use xlink:href="#m248c680118" x="53.328125" y="150.078779" style="stroke: #000000; stroke-width: 0.8"/>
      </g>
     </g>
     <g id="text_12">
      <!-- 1500 -->
      <g transform="translate(20.878125 153.877997) scale(0.1 -0.1)">
       <use xlink:href="#DejaVuSans-31"/>
       <use xlink:href="#DejaVuSans-35" transform="translate(63.623047 0)"/>
       <use xlink:href="#DejaVuSans-30" transform="translate(127.246094 0)"/>
       <use xlink:href="#DejaVuSans-30" transform="translate(190.869141 0)"/>
      </g>
     </g>
    </g>
    <g id="ytick_5">
     <g id="line2d_12">
      <g>
       <use xlink:href="#m248c680118" x="53.328125" y="118.172663" style="stroke: #000000; stroke-width: 0.8"/>
      </g>
     </g>
     <g id="text_13">
      <!-- 2000 -->
      <g transform="translate(20.878125 121.971881) scale(0.1 -0.1)">
       <use xlink:href="#DejaVuSans-32"/>
       <use xlink:href="#DejaVuSans-30" transform="translate(63.623047 0)"/>
       <use xlink:href="#DejaVuSans-30" transform="translate(127.246094 0)"/>
       <use xlink:href="#DejaVuSans-30" transform="translate(190.869141 0)"/>
      </g>
     </g>
    </g>
    <g id="ytick_6">
     <g id="line2d_13">
      <g>
       <use xlink:href="#m248c680118" x="53.328125" y="86.266546" style="stroke: #000000; stroke-width: 0.8"/>
      </g>
     </g>
     <g id="text_14">
      <!-- 2500 -->
      <g transform="translate(20.878125 90.065765) scale(0.1 -0.1)">
       <use xlink:href="#DejaVuSans-32"/>
       <use xlink:href="#DejaVuSans-35" transform="translate(63.623047 0)"/>
       <use xlink:href="#DejaVuSans-30" transform="translate(127.246094 0)"/>
       <use xlink:href="#DejaVuSans-30" transform="translate(190.869141 0)"/>
      </g>
     </g>
    </g>
    <g id="ytick_7">
     <g id="line2d_14">
      <g>
       <use xlink:href="#m248c680118" x="53.328125" y="54.36043" style="stroke: #000000; stroke-width: 0.8"/>
      </g>
     </g>
     <g id="text_15">
      <!-- 3000 -->
      <g transform="translate(20.878125 58.159649) scale(0.1 -0.1)">
       <use xlink:href="#DejaVuSans-33"/>
       <use xlink:href="#DejaVuSans-30" transform="translate(63.623047 0)"/>
       <use xlink:href="#DejaVuSans-30" transform="translate(127.246094 0)"/>
       <use xlink:href="#DejaVuSans-30" transform="translate(190.869141 0)"/>
      </g>
     </g>
    </g>
    <g id="ytick_8">
     <g id="line2d_15">
      <g>
       <use xlink:href="#m248c680118" x="53.328125" y="22.454314" style="stroke: #000000; stroke-width: 0.8"/>
      </g>
     </g>
     <g id="text_16">
      <!-- 3500 -->
      <g transform="translate(20.878125 26.253533) scale(0.1 -0.1)">
       <use xlink:href="#DejaVuSans-33"/>
       <use xlink:href="#DejaVuSans-35" transform="translate(63.623047 0)"/>
       <use xlink:href="#DejaVuSans-30" transform="translate(127.246094 0)"/>
       <use xlink:href="#DejaVuSans-30" transform="translate(190.869141 0)"/>
      </g>
     </g>
    </g>
    <g id="text_17">
     <!-- pulse:0 [counts] -->
     <g transform="translate(14.798438 172.659916) rotate(-90) scale(0.1 -0.1)">
      <defs>
       <path id="DejaVuSans-70" d="M 1159 525 
L 1159 -1331 
L 581 -1331 
L 581 3500 
L 1159 3500 
L 1159 2969 
Q 1341 3281 1617 3432 
Q 1894 3584 2278 3584 
Q 2916 3584 3314 3078 
Q 3713 2572 3713 1747 
Q 3713 922 3314 415 
Q 2916 -91 2278 -91 
Q 1894 -91 1617 61 
Q 1341 213 1159 525 
z
M 3116 1747 
Q 3116 2381 2855 2742 
Q 2594 3103 2138 3103 
Q 1681 3103 1420 2742 
Q 1159 2381 1159 1747 
Q 1159 1113 1420 752 
Q 1681 391 2138 391 
Q 2594 391 2855 752 
Q 3116 1113 3116 1747 
z
" transform="scale(0.015625)"/>
       <path id="DejaVuSans-75" d="M 544 1381 
L 544 3500 
L 1119 3500 
L 1119 1403 
Q 1119 906 1312 657 
Q 1506 409 1894 409 
Q 2359 409 2629 706 
Q 2900 1003 2900 1516 
L 2900 3500 
L 3475 3500 
L 3475 0 
L 2900 0 
L 2900 538 
Q 2691 219 2414 64 
Q 2138 -91 1772 -91 
Q 1169 -91 856 284 
Q 544 659 544 1381 
z
M 1991 3584 
L 1991 3584 
z
" transform="scale(0.015625)"/>
       <path id="DejaVuSans-6c" d="M 603 4863 
L 1178 4863 
L 1178 0 
L 603 0 
L 603 4863 
z
" transform="scale(0.015625)"/>
       <path id="DejaVuSans-3a" d="M 750 794 
L 1409 794 
L 1409 0 
L 750 0 
L 750 794 
z
M 750 3309 
L 1409 3309 
L 1409 2516 
L 750 2516 
L 750 3309 
z
" transform="scale(0.015625)"/>
       <path id="DejaVuSans-63" d="M 3122 3366 
L 3122 2828 
Q 2878 2963 2633 3030 
Q 2388 3097 2138 3097 
Q 1578 3097 1268 2742 
Q 959 2388 959 1747 
Q 959 1106 1268 751 
Q 1578 397 2138 397 
Q 2388 397 2633 464 
Q 2878 531 3122 666 
L 3122 134 
Q 2881 22 2623 -34 
Q 2366 -91 2075 -91 
Q 1284 -91 818 406 
Q 353 903 353 1747 
Q 353 2603 823 3093 
Q 1294 3584 2113 3584 
Q 2378 3584 2631 3529 
Q 2884 3475 3122 3366 
z
" transform="scale(0.015625)"/>
       <path id="DejaVuSans-6f" d="M 1959 3097 
Q 1497 3097 1228 2736 
Q 959 2375 959 1747 
Q 959 1119 1226 758 
Q 1494 397 1959 397 
Q 2419 397 2687 759 
Q 2956 1122 2956 1747 
Q 2956 2369 2687 2733 
Q 2419 3097 1959 3097 
z
M 1959 3584 
Q 2709 3584 3137 3096 
Q 3566 2609 3566 1747 
Q 3566 888 3137 398 
Q 2709 -91 1959 -91 
Q 1206 -91 779 398 
Q 353 888 353 1747 
Q 353 2609 779 3096 
Q 1206 3584 1959 3584 
z
" transform="scale(0.015625)"/>
       <path id="DejaVuSans-6e" d="M 3513 2113 
L 3513 0 
L 2938 0 
L 2938 2094 
Q 2938 2591 2744 2837 
Q 2550 3084 2163 3084 
Q 1697 3084 1428 2787 
Q 1159 2491 1159 1978 
L 1159 0 
L 581 0 
L 581 3500 
L 1159 3500 
L 1159 2956 
Q 1366 3272 1645 3428 
Q 1925 3584 2291 3584 
Q 2894 3584 3203 3211 
Q 3513 2838 3513 2113 
z
" transform="scale(0.015625)"/>
      </defs>
      <use xlink:href="#DejaVuSans-70"/>
      <use xlink:href="#DejaVuSans-75" transform="translate(63.476562 0)"/>
      <use xlink:href="#DejaVuSans-6c" transform="translate(126.855469 0)"/>
      <use xlink:href="#DejaVuSans-73" transform="translate(154.638672 0)"/>
      <use xlink:href="#DejaVuSans-65" transform="translate(206.738281 0)"/>
      <use xlink:href="#DejaVuSans-3a" transform="translate(268.261719 0)"/>
      <use xlink:href="#DejaVuSans-30" transform="translate(301.953125 0)"/>
      <use xlink:href="#DejaVuSans-20" transform="translate(365.576172 0)"/>
      <use xlink:href="#DejaVuSans-5b" transform="translate(397.363281 0)"/>
      <use xlink:href="#DejaVuSans-63" transform="translate(436.376953 0)"/>
      <use xlink:href="#DejaVuSans-6f" transform="translate(491.357422 0)"/>
      <use xlink:href="#DejaVuSans-75" transform="translate(552.539062 0)"/>
      <use xlink:href="#DejaVuSans-6e" transform="translate(615.917969 0)"/>
      <use xlink:href="#DejaVuSans-74" transform="translate(679.296875 0)"/>
      <use xlink:href="#DejaVuSans-73" transform="translate(718.505859 0)"/>
      <use xlink:href="#DejaVuSans-5d" transform="translate(770.605469 0)"/>
     </g>
    </g>
   </g>
   <g id="line2d_16">
    <path d="M 69.565269 227.483016 
L 70.647745 227.483016 
L 70.647745 220.14461 
L 71.730221 220.14461 
L 71.730221 209.041281 
L 72.812698 209.041281 
L 72.812698 199.916132 
L 73.895174 199.916132 
L 73.895174 183.261139 
L 74.97765 183.261139 
L 74.97765 175.667484 
L 76.060126 175.667484 
L 76.060126 168.839575 
L 77.142603 168.839575 
L 77.142603 155.183757 
L 78.225079 155.183757 
L 78.225079 144.846176 
L 79.307555 144.846176 
L 79.307555 142.038437 
L 80.390031 142.038437 
L 80.390031 131.573231 
L 81.472508 131.573231 
L 81.472508 125.893943 
L 82.554984 125.893943 
L 82.554984 121.363274 
L 83.63746 121.363274 
L 83.63746 116.896418 
L 84.719936 116.896418 
L 84.719936 108.600828 
L 85.802413 108.600828 
L 85.802413 103.81491 
L 86.884889 103.81491 
L 86.884889 95.51932 
L 87.967365 95.51932 
L 87.967365 92.775394 
L 89.049841 92.775394 
L 89.049841 88.308538 
L 90.132318 88.308538 
L 90.132318 79.566262 
L 91.214794 79.566262 
L 91.214794 74.333659 
L 92.29727 74.333659 
L 92.29727 80.012948 
L 93.379746 80.012948 
L 93.379746 81.863502 
L 94.462223 81.863502 
L 94.462223 65.974257 
L 95.544699 65.974257 
L 95.544699 72.610729 
L 96.627175 72.610729 
L 96.627175 69.101056 
L 97.709651 69.101056 
L 97.709651 58.125352 
L 98.792128 58.125352 
L 98.792128 59.018723 
L 99.874604 59.018723 
L 99.874604 60.805466 
L 100.95708 60.805466 
L 100.95708 51.169819 
L 102.039556 51.169819 
L 102.039556 52.446063 
L 103.122033 52.446063 
L 103.122033 56.466234 
L 104.204509 56.466234 
L 104.204509 52.701312 
L 105.286985 52.701312 
L 105.286985 50.021198 
L 106.369461 50.021198 
L 106.369461 48.872578 
L 107.451938 48.872578 
L 107.451938 48.36208 
L 108.534414 48.36208 
L 108.534414 47.404897 
L 109.61689 47.404897 
L 109.61689 38.471184 
L 110.699366 38.471184 
L 110.699366 41.597984 
L 111.781843 41.597984 
L 111.781843 44.852408 
L 112.864319 44.852408 
L 112.864319 48.744954 
L 113.946795 48.744954 
L 113.946795 40.194115 
L 115.029271 40.194115 
L 115.029271 39.747429 
L 116.111748 39.747429 
L 116.111748 34.004328 
L 117.194224 34.004328 
L 117.194224 36.173944 
L 118.2767 36.173944 
L 118.2767 32.089961 
L 119.359176 32.089961 
L 119.359176 36.684442 
L 120.441653 36.684442 
L 120.441653 34.64245 
L 121.524129 34.64245 
L 121.524129 32.536647 
L 122.606605 32.536647 
L 122.606605 36.429193 
L 123.689081 36.429193 
L 123.689081 41.023674 
L 124.771558 41.023674 
L 124.771558 35.982507 
L 125.854034 35.982507 
L 125.854034 30.494655 
L 126.93651 30.494655 
L 126.93651 28.89935 
L 128.018986 28.89935 
L 128.018986 37.514001 
L 129.101463 37.514001 
L 129.101463 31.068965 
L 130.183939 31.068965 
L 130.183939 31.707088 
L 131.266415 31.707088 
L 131.266415 29.218411 
L 132.348891 29.218411 
L 132.348891 29.856533 
L 133.431368 29.856533 
L 133.431368 32.536647 
L 134.513844 32.536647 
L 134.513844 28.835537 
L 135.59632 28.835537 
L 135.59632 30.239406 
L 136.678796 30.239406 
L 136.678796 26.984983 
L 137.761273 26.984983 
L 137.761273 30.04797 
L 138.843749 30.04797 
L 138.843749 31.132778 
L 139.926225 31.132778 
L 139.926225 21.433318 
L 141.008701 21.433318 
L 141.008701 28.069791 
L 142.091178 28.069791 
L 142.091178 24.368681 
L 143.173654 24.368681 
L 143.173654 23.220061 
L 144.25613 23.220061 
L 144.25613 18.753205 
L 145.338606 18.753205 
L 145.338606 32.026149 
L 146.421083 32.026149 
L 146.421083 28.516476 
L 147.503559 28.516476 
L 147.503559 20.667572 
L 148.586035 20.667572 
L 148.586035 19.646576 
L 149.668511 19.646576 
L 149.668511 29.984158 
L 150.750988 29.984158 
L 150.750988 24.368681 
L 151.833464 24.368681 
L 151.833464 28.005978 
L 152.91594 28.005978 
L 152.91594 25.070616 
L 153.998416 25.070616 
L 153.998416 29.537472 
L 155.080893 29.537472 
L 155.080893 34.514826 
L 156.163369 34.514826 
L 156.163369 28.452664 
L 157.245845 28.452664 
L 157.245845 31.707088 
L 158.328322 31.707088 
L 158.328322 32.026149 
L 159.410798 32.026149 
L 159.410798 26.92117 
L 160.493274 26.92117 
L 160.493274 27.49548 
L 161.57575 27.49548 
L 161.57575 25.708738 
L 162.658227 25.708738 
L 162.658227 22.007628 
L 163.740703 22.007628 
L 163.740703 25.517301 
L 164.823179 25.517301 
L 164.823179 24.368681 
L 165.905655 24.368681 
L 165.905655 28.005978 
L 166.988132 28.005978 
L 166.988132 18.561768 
L 168.070608 18.561768 
L 168.070608 31.005153 
L 169.153084 31.005153 
L 169.153084 25.389677 
L 170.23556 25.389677 
L 170.23556 28.197415 
L 171.318037 28.197415 
L 171.318037 27.048795 
L 172.400513 27.048795 
L 172.400513 27.878354 
L 174.565465 27.878354 
L 174.565465 21.943816 
L 175.647942 21.943816 
L 175.647942 26.538297 
L 176.730418 26.538297 
L 176.730418 23.985808 
L 177.812894 23.985808 
L 177.812894 32.153773 
L 178.89537 32.153773 
L 178.89537 28.261227 
L 179.977847 28.261227 
L 179.977847 22.773375 
L 181.060323 22.773375 
L 181.060323 24.304869 
L 182.142799 24.304869 
L 182.142799 30.813717 
L 183.225275 30.813717 
L 183.225275 26.793546 
L 184.307752 26.793546 
L 184.307752 29.409847 
L 185.390228 29.409847 
L 185.390228 22.773375 
L 186.472704 22.773375 
L 186.472704 31.068965 
L 187.55518 31.068965 
L 187.55518 24.304869 
L 188.637657 24.304869 
L 188.637657 27.750729 
L 189.720133 27.750729 
L 189.720133 31.068965 
L 190.802609 31.068965 
L 190.802609 25.581114 
L 191.885085 25.581114 
L 191.885085 28.516476 
L 192.967562 28.516476 
L 192.967562 33.174769 
L 194.050038 33.174769 
L 194.050038 29.920345 
L 195.132514 29.920345 
L 195.132514 32.026149 
L 196.21499 32.026149 
L 196.21499 27.112607 
L 197.297467 27.112607 
L 197.297467 33.812891 
L 198.379943 33.812891 
L 198.379943 30.877529 
L 199.462419 30.877529 
L 199.462419 26.474485 
L 200.544895 26.474485 
L 200.544895 21.624755 
L 201.627372 21.624755 
L 201.627372 29.601284 
L 202.709848 29.601284 
L 202.709848 23.730559 
L 203.792324 23.730559 
L 203.792324 32.153773 
L 204.8748 32.153773 
L 204.8748 23.411498 
L 205.957277 23.411498 
L 205.957277 29.154599 
L 207.039753 29.154599 
L 207.039753 25.389677 
L 208.122229 25.389677 
L 208.122229 24.177244 
L 209.204705 24.177244 
L 209.204705 28.644101 
L 210.287182 28.644101 
L 210.287182 26.474485 
L 211.369658 26.474485 
L 211.369658 24.432493 
L 212.452134 24.432493 
L 212.452134 27.048795 
L 213.53461 27.048795 
L 213.53461 27.176419 
L 214.617087 27.176419 
L 214.617087 30.04797 
L 215.699563 30.04797 
L 215.699563 25.836362 
L 216.782039 25.836362 
L 216.782039 22.199065 
L 217.864515 22.199065 
L 217.864515 18.62558 
L 218.946992 18.62558 
L 218.946992 28.005978 
L 220.029468 28.005978 
L 220.029468 24.368681 
L 221.111944 24.368681 
L 221.111944 20.093262 
L 222.19442 20.093262 
L 222.19442 24.62393 
L 223.276897 24.62393 
L 223.276897 23.794371 
L 224.359373 23.794371 
L 224.359373 28.644101 
L 225.441849 28.644101 
L 225.441849 29.537472 
L 226.524325 29.537472 
L 226.524325 37.322564 
L 227.606802 37.322564 
L 227.606802 51.425068 
L 228.689278 51.425068 
L 228.689278 60.677841 
L 229.771754 60.677841 
L 229.771754 69.101056 
L 230.85423 69.101056 
L 230.85423 82.884498 
L 231.936707 82.884498 
L 231.936707 98.454683 
L 233.019183 98.454683 
L 233.019183 105.665465 
L 234.101659 105.665465 
L 234.101659 117.087855 
L 235.184135 117.087855 
L 235.184135 121.299462 
L 236.266612 121.299462 
L 236.266612 134.95528 
L 237.349088 134.95528 
L 237.349088 140.187883 
L 238.431564 140.187883 
L 238.431564 144.527114 
L 239.51404 144.527114 
L 239.51404 148.355848 
L 240.596517 148.355848 
L 240.596517 155.375194 
L 241.678993 155.375194 
L 241.678993 161.56498 
L 242.761469 161.56498 
L 242.761469 166.031837 
L 243.843945 166.031837 
L 243.843945 174.13599 
L 244.926422 174.13599 
L 244.926422 176.816104 
L 246.008898 176.816104 
L 246.008898 182.686829 
L 247.091374 182.686829 
L 247.091374 187.28131 
L 248.17385 187.28131 
L 248.17385 188.812804 
L 249.256327 188.812804 
L 249.256327 193.152035 
L 250.338803 193.152035 
L 250.338803 200.554254 
L 251.421279 200.554254 
L 251.421279 200.937128 
L 252.503755 200.937128 
L 252.503755 203.617242 
L 253.586232 203.617242 
L 253.586232 206.488792 
L 254.668708 206.488792 
L 254.668708 209.615591 
L 255.751184 209.615591 
L 255.751184 211.083273 
L 256.83366 211.083273 
L 256.83366 213.635762 
L 257.916137 213.635762 
L 257.916137 215.231068 
L 258.998613 215.231068 
L 258.998613 218.485492 
L 260.081089 218.485492 
L 260.081089 217.655933 
L 261.163566 217.655933 
L 261.163566 218.421679 
L 262.246042 218.421679 
L 262.246042 221.739915 
L 263.328518 221.739915 
L 263.328518 222.697099 
L 264.410994 222.697099 
L 264.410994 224.16478 
L 265.493471 224.16478 
L 265.493471 226.334396 
L 266.575947 226.334396 
L 266.575947 226.462021 
L 267.658423 226.462021 
L 267.658423 227.036331 
L 268.740899 227.036331 
L 268.740899 227.929702 
L 269.823376 227.929702 
L 269.823376 230.16313 
L 270.905852 230.16313 
L 270.905852 231.247938 
L 271.988328 231.247938 
L 271.988328 231.694624 
L 273.070804 231.694624 
L 273.070804 233.098493 
L 274.153281 233.098493 
L 274.153281 233.991864 
L 275.235757 233.991864 
L 275.235757 234.757611 
L 276.318233 234.757611 
L 276.318233 235.58717 
L 277.400709 235.58717 
L 277.400709 235.459545 
L 278.483186 235.459545 
L 278.483186 236.991039 
L 279.565662 236.991039 
L 279.565662 236.863415 
L 280.648138 236.863415 
L 280.648138 238.45872 
L 281.730614 238.45872 
L 281.730614 238.075847 
L 282.813091 238.075847 
L 282.813091 239.03303 
L 283.895567 239.03303 
L 283.895567 239.671153 
L 284.978043 239.671153 
L 284.978043 237.756786 
L 286.060519 237.756786 
L 286.060519 240.245463 
L 287.142996 240.245463 
L 287.142996 240.755961 
L 288.225472 240.755961 
L 288.225472 240.564524 
L 289.307948 240.564524 
L 289.307948 240.819773 
L 290.390424 240.819773 
L 290.390424 240.628336 
L 291.472901 240.628336 
L 291.472901 241.394083 
L 293.637853 241.330271 
L 293.637853 242.670328 
L 294.720329 242.670328 
L 294.720329 242.861764 
L 296.885282 242.925577 
L 296.885282 243.180826 
L 297.967758 243.180826 
L 297.967758 242.73414 
L 299.050234 242.73414 
L 299.050234 242.925577 
L 300.132711 242.925577 
L 300.132711 243.117013 
L 302.297663 243.180826 
L 302.297663 243.563699 
L 304.462616 243.563699 
L 304.462616 244.074197 
L 305.545092 244.074197 
L 305.545092 244.329446 
L 306.627568 244.329446 
L 306.627568 243.627511 
L 307.710044 243.627511 
L 307.710044 244.201821 
L 309.874997 244.138009 
L 309.874997 243.691323 
L 310.957473 243.691323 
L 310.957473 244.45707 
L 312.039949 244.45707 
L 312.039949 244.074197 
L 313.122426 244.074197 
L 313.122426 244.584695 
L 315.287378 244.520882 
L 315.287378 245.222817 
L 316.369854 245.222817 
L 316.369854 244.393258 
L 317.452331 244.393258 
L 317.452331 244.839944 
L 318.534807 244.839944 
L 318.534807 244.967568 
L 319.617283 244.967568 
L 319.617283 245.286629 
L 320.699759 245.286629 
L 320.699759 244.839944 
L 321.782236 244.839944 
L 321.782236 245.159005 
L 322.864712 245.159005 
L 322.864712 245.350441 
L 323.947188 245.350441 
L 323.947188 244.776131 
L 325.029664 244.776131 
L 325.029664 245.478066 
L 326.112141 245.478066 
L 326.112141 245.095192 
L 328.277093 245.159005 
L 328.277093 244.839944 
L 329.359569 244.839944 
L 329.359569 245.286629 
L 332.606998 245.350441 
L 332.606998 245.733315 
L 333.689474 245.733315 
L 333.689474 245.478066 
L 334.771951 245.478066 
L 334.771951 245.350441 
L 335.854427 245.350441 
L 335.854427 245.478066 
L 340.184332 245.541878 
L 340.184332 245.286629 
L 341.266808 245.286629 
L 341.266808 245.60569 
L 342.349284 245.60569 
L 342.349284 245.478066 
L 344.514237 245.541878 
L 344.514237 245.669503 
L 345.596713 245.669503 
L 345.596713 245.478066 
L 346.679189 245.478066 
L 346.679189 245.60569 
L 347.761666 245.60569 
L 347.761666 245.414254 
L 348.844142 245.414254 
L 348.844142 245.60569 
L 353.174047 245.669503 
L 353.174047 245.733315 
L 355.338999 245.797127 
L 355.338999 245.414254 
L 356.421476 245.414254 
L 356.421476 245.733315 
L 357.503952 245.733315 
L 357.503952 245.60569 
L 358.586428 245.60569 
L 358.586428 245.733315 
L 360.751381 245.733315 
L 360.751381 245.60569 
L 361.833857 245.60569 
L 361.833857 245.733315 
L 363.99881 245.669503 
L 363.99881 245.60569 
L 365.081286 245.60569 
L 365.081286 245.733315 
L 366.163762 245.733315 
L 366.163762 245.60569 
L 367.246238 245.60569 
L 367.246238 245.733315 
L 394.308145 245.669503 
L 394.308145 245.669503 
" clip-path="url(#pb12fa9c9f4)" style="fill: none; stroke: #1f77b4; stroke-width: 1.5; stroke-linecap: square"/>
   </g>
   <g id="patch_3">
    <path d="M 53.328125 257.158895 
L 53.328125 7.2 
" style="fill: none; stroke: #000000; stroke-width: 0.8; stroke-linejoin: miter; stroke-linecap: square"/>
   </g>
   <g id="patch_4">
    <path d="M 410.545288 257.158895 
L 410.545288 7.2 
" style="fill: none; stroke: #000000; stroke-width: 0.8; stroke-linejoin: miter; stroke-linecap: square"/>
   </g>
   <g id="patch_5">
    <path d="M 53.328125 257.158895 
L 410.545288 257.158895 
" style="fill: none; stroke: #000000; stroke-width: 0.8; stroke-linejoin: miter; stroke-linecap: square"/>
   </g>
   <g id="patch_6">
    <path d="M 53.328125 7.2 
L 410.545288 7.2 
" style="fill: none; stroke: #000000; stroke-width: 0.8; stroke-linejoin: miter; stroke-linecap: square"/>
   </g>
  </g>
  <g id="axes_2">
   <g id="patch_7">
    <path d="M 507.982357 257.158895 
L 865.19952 257.158895 
L 865.19952 7.2 
L 507.982357 7.2 
z
" style="fill: #ffffff"/>
   </g>
   <g id="matplotlib.axis_3">
    <g id="xtick_8">
     <g id="line2d_17">
      <g>
       <use xlink:href="#m93cab40a9a" x="522.586723" y="257.158895" style="stroke: #000000; stroke-width: 0.8"/>
      </g>
     </g>
     <g id="text_18">
      <!-- 0.0 -->
      <g transform="translate(514.635161 271.757332) scale(0.1 -0.1)">
       <defs>
        <path id="DejaVuSans-2e" d="M 684 794 
L 1344 794 
L 1344 0 
L 684 0 
L 684 794 
z
" transform="scale(0.015625)"/>
       </defs>
       <use xlink:href="#DejaVuSans-30"/>
       <use xlink:href="#DejaVuSans-2e" transform="translate(63.623047 0)"/>
       <use xlink:href="#DejaVuSans-30" transform="translate(95.410156 0)"/>
      </g>
     </g>
    </g>
    <g id="xtick_9">
     <g id="line2d_18">
      <g>
       <use xlink:href="#m93cab40a9a" x="563.405316" y="257.158895" style="stroke: #000000; stroke-width: 0.8"/>
      </g>
     </g>
     <g id="text_19">
      <!-- 2.5 -->
      <g transform="translate(555.453754 271.757332) scale(0.1 -0.1)">
       <use xlink:href="#DejaVuSans-32"/>
       <use xlink:href="#DejaVuSans-2e" transform="translate(63.623047 0)"/>
       <use xlink:href="#DejaVuSans-35" transform="translate(95.410156 0)"/>
      </g>
     </g>
    </g>
    <g id="xtick_10">
     <g id="line2d_19">
      <g>
       <use xlink:href="#m93cab40a9a" x="604.22391" y="257.158895" style="stroke: #000000; stroke-width: 0.8"/>
      </g>
     </g>
     <g id="text_20">
      <!-- 5.0 -->
      <g transform="translate(596.272347 271.757332) scale(0.1 -0.1)">
       <use xlink:href="#DejaVuSans-35"/>
       <use xlink:href="#DejaVuSans-2e" transform="translate(63.623047 0)"/>
       <use xlink:href="#DejaVuSans-30" transform="translate(95.410156 0)"/>
      </g>
     </g>
    </g>
    <g id="xtick_11">
     <g id="line2d_20">
      <g>
       <use xlink:href="#m93cab40a9a" x="645.042503" y="257.158895" style="stroke: #000000; stroke-width: 0.8"/>
      </g>
     </g>
     <g id="text_21">
      <!-- 7.5 -->
      <g transform="translate(637.090941 271.757332) scale(0.1 -0.1)">
       <defs>
        <path id="DejaVuSans-37" d="M 525 4666 
L 3525 4666 
L 3525 4397 
L 1831 0 
L 1172 0 
L 2766 4134 
L 525 4134 
L 525 4666 
z
" transform="scale(0.015625)"/>
       </defs>
       <use xlink:href="#DejaVuSans-37"/>
       <use xlink:href="#DejaVuSans-2e" transform="translate(63.623047 0)"/>
       <use xlink:href="#DejaVuSans-35" transform="translate(95.410156 0)"/>
      </g>
     </g>
    </g>
    <g id="xtick_12">
     <g id="line2d_21">
      <g>
       <use xlink:href="#m93cab40a9a" x="685.861096" y="257.158895" style="stroke: #000000; stroke-width: 0.8"/>
      </g>
     </g>
     <g id="text_22">
      <!-- 10.0 -->
      <g transform="translate(674.728284 271.757332) scale(0.1 -0.1)">
       <use xlink:href="#DejaVuSans-31"/>
       <use xlink:href="#DejaVuSans-30" transform="translate(63.623047 0)"/>
       <use xlink:href="#DejaVuSans-2e" transform="translate(127.246094 0)"/>
       <use xlink:href="#DejaVuSans-30" transform="translate(159.033203 0)"/>
      </g>
     </g>
    </g>
    <g id="xtick_13">
     <g id="line2d_22">
      <g>
       <use xlink:href="#m93cab40a9a" x="726.67969" y="257.158895" style="stroke: #000000; stroke-width: 0.8"/>
      </g>
     </g>
     <g id="text_23">
      <!-- 12.5 -->
      <g transform="translate(715.546877 271.757332) scale(0.1 -0.1)">
       <use xlink:href="#DejaVuSans-31"/>
       <use xlink:href="#DejaVuSans-32" transform="translate(63.623047 0)"/>
       <use xlink:href="#DejaVuSans-2e" transform="translate(127.246094 0)"/>
       <use xlink:href="#DejaVuSans-35" transform="translate(159.033203 0)"/>
      </g>
     </g>
    </g>
    <g id="xtick_14">
     <g id="line2d_23">
      <g>
       <use xlink:href="#m93cab40a9a" x="767.498283" y="257.158895" style="stroke: #000000; stroke-width: 0.8"/>
      </g>
     </g>
     <g id="text_24">
      <!-- 15.0 -->
      <g transform="translate(756.365471 271.757332) scale(0.1 -0.1)">
       <use xlink:href="#DejaVuSans-31"/>
       <use xlink:href="#DejaVuSans-35" transform="translate(63.623047 0)"/>
       <use xlink:href="#DejaVuSans-2e" transform="translate(127.246094 0)"/>
       <use xlink:href="#DejaVuSans-30" transform="translate(159.033203 0)"/>
      </g>
     </g>
    </g>
    <g id="xtick_15">
     <g id="line2d_24">
      <g>
       <use xlink:href="#m93cab40a9a" x="808.316876" y="257.158895" style="stroke: #000000; stroke-width: 0.8"/>
      </g>
     </g>
     <g id="text_25">
      <!-- 17.5 -->
      <g transform="translate(797.184064 271.757332) scale(0.1 -0.1)">
       <use xlink:href="#DejaVuSans-31"/>
       <use xlink:href="#DejaVuSans-37" transform="translate(63.623047 0)"/>
       <use xlink:href="#DejaVuSans-2e" transform="translate(127.246094 0)"/>
       <use xlink:href="#DejaVuSans-35" transform="translate(159.033203 0)"/>
      </g>
     </g>
    </g>
    <g id="xtick_16">
     <g id="line2d_25">
      <g>
       <use xlink:href="#m93cab40a9a" x="849.13547" y="257.158895" style="stroke: #000000; stroke-width: 0.8"/>
      </g>
     </g>
     <g id="text_26">
      <!-- 20.0 -->
      <g transform="translate(838.002657 271.757332) scale(0.1 -0.1)">
       <use xlink:href="#DejaVuSans-32"/>
       <use xlink:href="#DejaVuSans-30" transform="translate(63.623047 0)"/>
       <use xlink:href="#DejaVuSans-2e" transform="translate(127.246094 0)"/>
       <use xlink:href="#DejaVuSans-30" transform="translate(159.033203 0)"/>
      </g>
     </g>
    </g>
    <g id="text_27">
     <!-- wavelength [Å] -->
     <g transform="translate(648.553438 287.119832) scale(0.1 -0.1)">
      <defs>
       <path id="DejaVuSans-77" d="M 269 3500 
L 844 3500 
L 1563 769 
L 2278 3500 
L 2956 3500 
L 3675 769 
L 4391 3500 
L 4966 3500 
L 4050 0 
L 3372 0 
L 2619 2869 
L 1863 0 
L 1184 0 
L 269 3500 
z
" transform="scale(0.015625)"/>
       <path id="DejaVuSans-61" d="M 2194 1759 
Q 1497 1759 1228 1600 
Q 959 1441 959 1056 
Q 959 750 1161 570 
Q 1363 391 1709 391 
Q 2188 391 2477 730 
Q 2766 1069 2766 1631 
L 2766 1759 
L 2194 1759 
z
M 3341 1997 
L 3341 0 
L 2766 0 
L 2766 531 
Q 2569 213 2275 61 
Q 1981 -91 1556 -91 
Q 1019 -91 701 211 
Q 384 513 384 1019 
Q 384 1609 779 1909 
Q 1175 2209 1959 2209 
L 2766 2209 
L 2766 2266 
Q 2766 2663 2505 2880 
Q 2244 3097 1772 3097 
Q 1472 3097 1187 3025 
Q 903 2953 641 2809 
L 641 3341 
Q 956 3463 1253 3523 
Q 1550 3584 1831 3584 
Q 2591 3584 2966 3190 
Q 3341 2797 3341 1997 
z
" transform="scale(0.015625)"/>
       <path id="DejaVuSans-76" d="M 191 3500 
L 800 3500 
L 1894 563 
L 2988 3500 
L 3597 3500 
L 2284 0 
L 1503 0 
L 191 3500 
z
" transform="scale(0.015625)"/>
       <path id="DejaVuSans-67" d="M 2906 1791 
Q 2906 2416 2648 2759 
Q 2391 3103 1925 3103 
Q 1463 3103 1205 2759 
Q 947 2416 947 1791 
Q 947 1169 1205 825 
Q 1463 481 1925 481 
Q 2391 481 2648 825 
Q 2906 1169 2906 1791 
z
M 3481 434 
Q 3481 -459 3084 -895 
Q 2688 -1331 1869 -1331 
Q 1566 -1331 1297 -1286 
Q 1028 -1241 775 -1147 
L 775 -588 
Q 1028 -725 1275 -790 
Q 1522 -856 1778 -856 
Q 2344 -856 2625 -561 
Q 2906 -266 2906 331 
L 2906 616 
Q 2728 306 2450 153 
Q 2172 0 1784 0 
Q 1141 0 747 490 
Q 353 981 353 1791 
Q 353 2603 747 3093 
Q 1141 3584 1784 3584 
Q 2172 3584 2450 3431 
Q 2728 3278 2906 2969 
L 2906 3500 
L 3481 3500 
L 3481 434 
z
" transform="scale(0.015625)"/>
       <path id="DejaVuSans-c5" d="M 2663 5081 
Q 2663 5278 2523 5417 
Q 2384 5556 2188 5556 
Q 1988 5556 1852 5420 
Q 1716 5284 1716 5081 
Q 1716 4884 1853 4746 
Q 1991 4609 2188 4609 
Q 2384 4609 2523 4746 
Q 2663 4884 2663 5081 
z
M 2188 4044 
L 1338 1722 
L 3041 1722 
L 2188 4044 
z
M 1716 4366 
Q 1525 4494 1428 4673 
Q 1331 4853 1331 5081 
Q 1331 5441 1579 5691 
Q 1828 5941 2188 5941 
Q 2544 5941 2795 5689 
Q 3047 5438 3047 5081 
Q 3047 4863 2948 4678 
Q 2850 4494 2663 4366 
L 4325 0 
L 3669 0 
L 3244 1197 
L 1141 1197 
L 716 0 
L 50 0 
L 1716 4366 
z
" transform="scale(0.015625)"/>
      </defs>
      <use xlink:href="#DejaVuSans-77"/>
      <use xlink:href="#DejaVuSans-61" transform="translate(81.787109 0)"/>
      <use xlink:href="#DejaVuSans-76" transform="translate(143.066406 0)"/>
      <use xlink:href="#DejaVuSans-65" transform="translate(202.246094 0)"/>
      <use xlink:href="#DejaVuSans-6c" transform="translate(263.769531 0)"/>
      <use xlink:href="#DejaVuSans-65" transform="translate(291.552734 0)"/>
      <use xlink:href="#DejaVuSans-6e" transform="translate(353.076172 0)"/>
      <use xlink:href="#DejaVuSans-67" transform="translate(416.455078 0)"/>
      <use xlink:href="#DejaVuSans-74" transform="translate(479.931641 0)"/>
      <use xlink:href="#DejaVuSans-68" transform="translate(519.140625 0)"/>
      <use xlink:href="#DejaVuSans-20" transform="translate(582.519531 0)"/>
      <use xlink:href="#DejaVuSans-5b" transform="translate(614.306641 0)"/>
      <use xlink:href="#DejaVuSans-c5" transform="translate(653.320312 0)"/>
      <use xlink:href="#DejaVuSans-5d" transform="translate(721.728516 0)"/>
     </g>
    </g>
   </g>
   <g id="matplotlib.axis_4">
    <g id="ytick_9">
     <g id="line2d_26">
      <g>
       <use xlink:href="#m248c680118" x="507.982357" y="245.812814" style="stroke: #000000; stroke-width: 0.8"/>
      </g>
     </g>
     <g id="text_28">
      <!-- 0 -->
      <g transform="translate(494.619857 249.612032) scale(0.1 -0.1)">
       <use xlink:href="#DejaVuSans-30"/>
      </g>
     </g>
    </g>
    <g id="ytick_10">
     <g id="line2d_27">
      <g>
       <use xlink:href="#m248c680118" x="507.982357" y="214.439714" style="stroke: #000000; stroke-width: 0.8"/>
      </g>
     </g>
     <g id="text_29">
      <!-- 2000 -->
      <g transform="translate(475.532357 218.238933) scale(0.1 -0.1)">
       <use xlink:href="#DejaVuSans-32"/>
       <use xlink:href="#DejaVuSans-30" transform="translate(63.623047 0)"/>
       <use xlink:href="#DejaVuSans-30" transform="translate(127.246094 0)"/>
       <use xlink:href="#DejaVuSans-30" transform="translate(190.869141 0)"/>
      </g>
     </g>
    </g>
    <g id="ytick_11">
     <g id="line2d_28">
      <g>
       <use xlink:href="#m248c680118" x="507.982357" y="183.066615" style="stroke: #000000; stroke-width: 0.8"/>
      </g>
     </g>
     <g id="text_30">
      <!-- 4000 -->
      <g transform="translate(475.532357 186.865834) scale(0.1 -0.1)">
       <use xlink:href="#DejaVuSans-34"/>
       <use xlink:href="#DejaVuSans-30" transform="translate(63.623047 0)"/>
       <use xlink:href="#DejaVuSans-30" transform="translate(127.246094 0)"/>
       <use xlink:href="#DejaVuSans-30" transform="translate(190.869141 0)"/>
      </g>
     </g>
    </g>
    <g id="ytick_12">
     <g id="line2d_29">
      <g>
       <use xlink:href="#m248c680118" x="507.982357" y="151.693515" style="stroke: #000000; stroke-width: 0.8"/>
      </g>
     </g>
     <g id="text_31">
      <!-- 6000 -->
      <g transform="translate(475.532357 155.492734) scale(0.1 -0.1)">
       <use xlink:href="#DejaVuSans-36"/>
       <use xlink:href="#DejaVuSans-30" transform="translate(63.623047 0)"/>
       <use xlink:href="#DejaVuSans-30" transform="translate(127.246094 0)"/>
       <use xlink:href="#DejaVuSans-30" transform="translate(190.869141 0)"/>
      </g>
     </g>
    </g>
    <g id="ytick_13">
     <g id="line2d_30">
      <g>
       <use xlink:href="#m248c680118" x="507.982357" y="120.320416" style="stroke: #000000; stroke-width: 0.8"/>
      </g>
     </g>
     <g id="text_32">
      <!-- 8000 -->
      <g transform="translate(475.532357 124.119635) scale(0.1 -0.1)">
       <defs>
        <path id="DejaVuSans-38" d="M 2034 2216 
Q 1584 2216 1326 1975 
Q 1069 1734 1069 1313 
Q 1069 891 1326 650 
Q 1584 409 2034 409 
Q 2484 409 2743 651 
Q 3003 894 3003 1313 
Q 3003 1734 2745 1975 
Q 2488 2216 2034 2216 
z
M 1403 2484 
Q 997 2584 770 2862 
Q 544 3141 544 3541 
Q 544 4100 942 4425 
Q 1341 4750 2034 4750 
Q 2731 4750 3128 4425 
Q 3525 4100 3525 3541 
Q 3525 3141 3298 2862 
Q 3072 2584 2669 2484 
Q 3125 2378 3379 2068 
Q 3634 1759 3634 1313 
Q 3634 634 3220 271 
Q 2806 -91 2034 -91 
Q 1263 -91 848 271 
Q 434 634 434 1313 
Q 434 1759 690 2068 
Q 947 2378 1403 2484 
z
M 1172 3481 
Q 1172 3119 1398 2916 
Q 1625 2713 2034 2713 
Q 2441 2713 2670 2916 
Q 2900 3119 2900 3481 
Q 2900 3844 2670 4047 
Q 2441 4250 2034 4250 
Q 1625 4250 1398 4047 
Q 1172 3844 1172 3481 
z
" transform="scale(0.015625)"/>
       </defs>
       <use xlink:href="#DejaVuSans-38"/>
       <use xlink:href="#DejaVuSans-30" transform="translate(63.623047 0)"/>
       <use xlink:href="#DejaVuSans-30" transform="translate(127.246094 0)"/>
       <use xlink:href="#DejaVuSans-30" transform="translate(190.869141 0)"/>
      </g>
     </g>
    </g>
    <g id="ytick_14">
     <g id="line2d_31">
      <g>
       <use xlink:href="#m248c680118" x="507.982357" y="88.947317" style="stroke: #000000; stroke-width: 0.8"/>
      </g>
     </g>
     <g id="text_33">
      <!-- 10000 -->
      <g transform="translate(469.169857 92.746535) scale(0.1 -0.1)">
       <use xlink:href="#DejaVuSans-31"/>
       <use xlink:href="#DejaVuSans-30" transform="translate(63.623047 0)"/>
       <use xlink:href="#DejaVuSans-30" transform="translate(127.246094 0)"/>
       <use xlink:href="#DejaVuSans-30" transform="translate(190.869141 0)"/>
       <use xlink:href="#DejaVuSans-30" transform="translate(254.492188 0)"/>
      </g>
     </g>
    </g>
    <g id="ytick_15">
     <g id="line2d_32">
      <g>
       <use xlink:href="#m248c680118" x="507.982357" y="57.574217" style="stroke: #000000; stroke-width: 0.8"/>
      </g>
     </g>
     <g id="text_34">
      <!-- 12000 -->
      <g transform="translate(469.169857 61.373436) scale(0.1 -0.1)">
       <use xlink:href="#DejaVuSans-31"/>
       <use xlink:href="#DejaVuSans-32" transform="translate(63.623047 0)"/>
       <use xlink:href="#DejaVuSans-30" transform="translate(127.246094 0)"/>
       <use xlink:href="#DejaVuSans-30" transform="translate(190.869141 0)"/>
       <use xlink:href="#DejaVuSans-30" transform="translate(254.492188 0)"/>
      </g>
     </g>
    </g>
    <g id="ytick_16">
     <g id="line2d_33">
      <g>
       <use xlink:href="#m248c680118" x="507.982357" y="26.201118" style="stroke: #000000; stroke-width: 0.8"/>
      </g>
     </g>
     <g id="text_35">
      <!-- 14000 -->
      <g transform="translate(469.169857 30.000336) scale(0.1 -0.1)">
       <use xlink:href="#DejaVuSans-31"/>
       <use xlink:href="#DejaVuSans-34" transform="translate(63.623047 0)"/>
       <use xlink:href="#DejaVuSans-30" transform="translate(127.246094 0)"/>
       <use xlink:href="#DejaVuSans-30" transform="translate(190.869141 0)"/>
       <use xlink:href="#DejaVuSans-30" transform="translate(254.492188 0)"/>
      </g>
     </g>
    </g>
    <g id="text_36">
     <!-- pulse:0 [counts] -->
     <g transform="translate(463.090169 172.659916) rotate(-90) scale(0.1 -0.1)">
      <use xlink:href="#DejaVuSans-70"/>
      <use xlink:href="#DejaVuSans-75" transform="translate(63.476562 0)"/>
      <use xlink:href="#DejaVuSans-6c" transform="translate(126.855469 0)"/>
      <use xlink:href="#DejaVuSans-73" transform="translate(154.638672 0)"/>
      <use xlink:href="#DejaVuSans-65" transform="translate(206.738281 0)"/>
      <use xlink:href="#DejaVuSans-3a" transform="translate(268.261719 0)"/>
      <use xlink:href="#DejaVuSans-30" transform="translate(301.953125 0)"/>
      <use xlink:href="#DejaVuSans-20" transform="translate(365.576172 0)"/>
      <use xlink:href="#DejaVuSans-5b" transform="translate(397.363281 0)"/>
      <use xlink:href="#DejaVuSans-63" transform="translate(436.376953 0)"/>
      <use xlink:href="#DejaVuSans-6f" transform="translate(491.357422 0)"/>
      <use xlink:href="#DejaVuSans-75" transform="translate(552.539062 0)"/>
      <use xlink:href="#DejaVuSans-6e" transform="translate(615.917969 0)"/>
      <use xlink:href="#DejaVuSans-74" transform="translate(679.296875 0)"/>
      <use xlink:href="#DejaVuSans-73" transform="translate(718.505859 0)"/>
      <use xlink:href="#DejaVuSans-5d" transform="translate(770.605469 0)"/>
     </g>
    </g>
   </g>
   <g id="line2d_34">
    <path d="M 524.2195 18.561768 
L 525.301977 18.561768 
L 525.301977 80.805997 
L 526.384453 80.805997 
L 526.384453 125.340112 
L 527.466929 125.340112 
L 527.466929 151.693515 
L 528.549405 151.693515 
L 528.549405 167.380065 
L 529.631882 167.380065 
L 529.631882 180.682259 
L 530.714358 180.682259 
L 530.714358 187.349043 
L 531.796834 187.349043 
L 531.796834 184.494091 
L 532.87931 184.494091 
L 532.87931 175.693936 
L 533.961787 175.693936 
L 533.961787 158.187747 
L 535.044263 158.187747 
L 535.044263 133.010835 
L 536.126739 133.010835 
L 536.126739 111.692814 
L 537.209215 111.692814 
L 537.209215 91.190493 
L 538.291692 91.190493 
L 538.291692 79.849118 
L 539.374168 79.849118 
L 539.374168 74.719616 
L 540.456644 74.719616 
L 540.456644 74.092154 
L 541.53912 74.092154 
L 541.53912 79.158909 
L 542.621597 79.158909 
L 542.621597 84.743321 
L 543.704073 84.743321 
L 543.704073 90.29636 
L 544.786549 90.29636 
L 544.786549 102.265197 
L 545.869025 102.265197 
L 545.869025 108.273146 
L 546.951502 108.273146 
L 546.951502 116.853688 
L 548.033978 116.853688 
L 548.033978 122.689085 
L 549.116454 122.689085 
L 549.116454 129.042138 
L 550.19893 129.042138 
L 550.19893 134.281445 
L 551.281407 134.281445 
L 551.281407 136.995218 
L 552.363883 136.995218 
L 552.363883 139.89723 
L 553.446359 139.89723 
L 553.446359 142.014914 
L 554.528835 142.014914 
L 554.528835 137.889352 
L 555.611312 137.889352 
L 555.611312 138.234456 
L 556.693788 138.234456 
L 556.693788 137.62268 
L 557.776264 137.62268 
L 557.776264 130.43824 
L 558.85874 130.43824 
L 558.85874 125.685216 
L 559.941217 125.685216 
L 559.941217 121.245922 
L 561.023693 121.245922 
L 561.023693 108.539817 
L 562.106169 108.539817 
L 562.106169 101.653422 
L 563.188646 101.653422 
L 563.188646 96.806278 
L 564.271122 96.806278 
L 564.271122 96.210189 
L 565.353598 96.210189 
L 565.353598 101.449497 
L 566.436074 101.449497 
L 566.436074 110.186905 
L 567.518551 110.186905 
L 567.518551 115.049735 
L 568.601027 115.049735 
L 568.601027 125.967574 
L 569.683503 125.967574 
L 569.683503 130.548046 
L 570.765979 130.548046 
L 570.765979 136.132458 
L 571.848456 136.132458 
L 571.848456 143.865927 
L 572.930932 143.865927 
L 572.930932 146.877745 
L 574.013408 146.877745 
L 574.013408 152.085679 
L 575.095884 152.085679 
L 575.095884 155.819078 
L 576.178361 155.819078 
L 576.178361 159.379925 
L 577.260837 159.379925 
L 577.260837 165.231008 
L 578.343313 165.231008 
L 578.343313 168.44675 
L 579.425789 168.44675 
L 579.425789 174.078222 
L 580.508266 174.078222 
L 580.508266 178.470456 
L 581.590742 178.470456 
L 581.590742 181.231288 
L 583.755694 181.262662 
L 583.755694 185.843134 
L 584.838171 185.843134 
L 584.838171 188.713773 
L 585.920647 188.713773 
L 585.920647 191.960888 
L 587.003123 191.960888 
L 587.003123 195.553108 
L 588.085599 195.553108 
L 588.085599 197.247256 
L 589.168076 197.247256 
L 589.168076 199.396313 
L 590.250552 199.396313 
L 590.250552 202.721862 
L 591.333028 202.721862 
L 591.333028 203.584622 
L 592.415504 203.584622 
L 592.415504 204.290517 
L 593.497981 204.290517 
L 593.497981 208.667064 
L 594.580457 208.667064 
L 594.580457 209.561197 
L 595.662933 209.561197 
L 595.662933 211.271031 
L 596.745409 211.271031 
L 596.745409 211.86712 
L 597.827886 211.86712 
L 597.827886 215.208355 
L 598.910362 215.208355 
L 598.910362 214.831878 
L 599.992838 214.831878 
L 599.992838 217.545651 
L 601.075314 217.545651 
L 601.075314 219.475097 
L 602.157791 219.475097 
L 602.157791 219.067246 
L 603.240267 219.067246 
L 603.240267 220.745707 
L 604.322743 220.745707 
L 604.322743 221.404542 
L 605.405219 221.404542 
L 605.405219 223.349674 
L 606.487696 223.349674 
L 606.487696 223.616346 
L 607.570172 223.616346 
L 607.570172 224.196748 
L 608.652648 224.196748 
L 608.652648 225.624224 
L 609.735124 225.624224 
L 609.735124 226.471298 
L 610.817601 226.471298 
L 610.817601 227.977207 
L 611.900077 227.977207 
L 611.900077 227.741908 
L 612.982553 227.741908 
L 612.982553 228.087012 
L 614.065029 228.087012 
L 614.065029 229.232131 
L 615.147506 229.232131 
L 615.147506 230.094891 
L 616.229982 230.094891 
L 616.229982 229.624294 
L 617.312458 229.624294 
L 617.312458 230.59686 
L 618.394934 230.59686 
L 618.394934 232.526306 
L 619.477411 232.526306 
L 619.477411 233.138081 
L 622.724839 233.091022 
L 622.724839 233.655738 
L 623.807316 233.655738 
L 623.807316 234.330259 
L 624.889792 234.330259 
L 624.889792 234.581244 
L 625.972268 234.581244 
L 625.972268 235.710676 
L 627.054744 235.710676 
L 627.054744 235.255766 
L 628.137221 235.255766 
L 628.137221 235.710676 
L 629.219697 235.710676 
L 629.219697 235.977347 
L 630.302173 235.977347 
L 630.302173 236.761674 
L 631.384649 236.761674 
L 631.384649 237.232271 
L 633.549602 237.263644 
L 633.549602 237.436196 
L 634.632078 237.436196 
L 634.632078 238.581314 
L 635.714554 238.581314 
L 635.714554 237.82836 
L 636.797031 237.82836 
L 636.797031 238.157777 
L 637.879507 238.157777 
L 637.879507 238.549941 
L 638.961983 238.549941 
L 638.961983 239.334269 
L 640.044459 239.334269 
L 640.044459 239.09897 
L 641.126936 239.09897 
L 641.126936 239.428388 
L 642.209412 239.428388 
L 642.209412 239.224463 
L 643.291888 239.224463 
L 643.291888 239.898984 
L 644.374364 239.898984 
L 644.374364 239.773492 
L 645.456841 239.773492 
L 645.456841 239.961731 
L 646.539317 239.961731 
L 646.539317 240.149969 
L 647.621793 240.149969 
L 647.621793 241.216655 
L 648.704269 241.216655 
L 648.704269 241.012729 
L 651.951698 241.106849 
L 651.951698 241.153908 
L 653.034174 241.153908 
L 653.034174 241.342147 
L 654.116651 241.342147 
L 654.116651 241.749997 
L 655.199127 241.749997 
L 655.199127 241.938236 
L 656.281603 241.938236 
L 656.281603 241.37352 
L 657.364079 241.37352 
L 657.364079 242.032355 
L 658.446556 242.032355 
L 658.446556 242.3304 
L 659.529032 242.3304 
L 659.529032 241.844117 
L 660.611508 241.844117 
L 660.611508 242.895115 
L 661.693985 242.895115 
L 661.693985 242.063728 
L 662.776461 242.063728 
L 662.776461 242.597071 
L 663.858937 242.597071 
L 663.858937 242.863742 
L 664.941413 242.863742 
L 664.941413 243.004921 
L 666.02389 243.004921 
L 666.02389 242.78531 
L 667.106366 242.78531 
L 667.106366 242.299026 
L 668.188842 242.299026 
L 668.188842 242.895115 
L 670.353795 242.879429 
L 670.353795 242.644131 
L 671.436271 242.644131 
L 671.436271 243.318652 
L 672.518747 243.318652 
L 672.518747 242.832369 
L 673.601223 242.832369 
L 673.601223 243.381398 
L 675.766176 243.491204 
L 675.766176 243.569637 
L 679.013605 243.55395 
L 679.013605 243.726502 
L 680.096081 243.726502 
L 680.096081 243.961801 
L 682.261033 244.024547 
L 682.261033 243.742189 
L 683.34351 243.742189 
L 683.34351 244.00886 
L 687.673415 243.961801 
L 687.673415 244.228472 
L 688.755891 244.228472 
L 688.755891 243.914741 
L 689.838367 243.914741 
L 689.838367 244.244159 
L 694.168272 244.291218 
L 694.168272 244.05592 
L 695.250748 244.05592 
L 695.250748 244.228472 
L 696.333225 244.228472 
L 696.333225 244.683382 
L 697.415701 244.683382 
L 697.415701 244.448084 
L 698.498177 244.448084 
L 698.498177 244.793188 
L 699.580653 244.793188 
L 699.580653 244.401024 
L 700.66313 244.401024 
L 700.66313 244.604949 
L 701.745606 244.604949 
L 701.745606 244.401024 
L 702.828082 244.401024 
L 702.828082 244.589263 
L 703.910558 244.589263 
L 703.910558 244.808874 
L 704.993035 244.808874 
L 704.993035 244.636322 
L 706.075511 244.636322 
L 706.075511 244.91868 
L 707.157987 244.91868 
L 707.157987 244.55789 
L 708.240463 244.55789 
L 708.240463 244.887307 
L 710.405416 244.777501 
L 710.405416 245.028486 
L 711.487892 245.028486 
L 711.487892 244.840248 
L 713.652845 244.91868 
L 713.652845 244.96574 
L 714.735321 244.96574 
L 714.735321 244.808874 
L 715.817797 244.808874 
L 715.817797 245.059859 
L 725.560083 245.075546 
L 725.560083 245.295157 
L 726.64256 245.295157 
L 726.64256 244.902994 
L 727.725036 244.902994 
L 727.725036 245.185352 
L 732.054941 245.106919 
L 732.054941 244.871621 
L 733.137417 244.871621 
L 733.137417 245.232411 
L 739.632275 245.295157 
L 739.632275 245.37359 
L 742.879703 245.310844 
L 742.879703 245.122605 
L 743.96218 245.122605 
L 743.96218 245.357904 
L 751.539513 245.279471 
L 751.539513 245.530456 
L 754.786942 245.514769 
L 754.786942 245.295157 
L 755.869418 245.295157 
L 755.869418 245.436336 
L 759.116847 245.389277 
L 759.116847 245.624575 
L 760.199323 245.624575 
L 760.199323 245.42065 
L 761.2818 245.42065 
L 761.2818 245.546142 
L 777.518944 245.514769 
L 777.518944 245.671635 
L 779.683896 245.655948 
L 779.683896 245.546142 
L 784.013801 245.624575 
L 784.013801 245.671635 
L 813.24066 245.734381 
L 813.24066 245.797127 
L 815.405612 245.750067 
L 815.405612 245.655948 
L 827.312851 245.640262 
L 827.312851 245.78144 
L 831.642756 245.734381 
L 831.642756 245.655948 
L 841.385042 245.765754 
L 841.385042 245.78144 
L 848.962376 245.765754 
L 848.962376 245.765754 
" clip-path="url(#p7fef715599)" style="fill: none; stroke: #1f77b4; stroke-width: 1.5; stroke-linecap: square"/>
   </g>
   <g id="patch_8">
    <path d="M 507.982357 257.158895 
L 507.982357 7.2 
" style="fill: none; stroke: #000000; stroke-width: 0.8; stroke-linejoin: miter; stroke-linecap: square"/>
   </g>
   <g id="patch_9">
    <path d="M 865.19952 257.158895 
L 865.19952 7.2 
" style="fill: none; stroke: #000000; stroke-width: 0.8; stroke-linejoin: miter; stroke-linecap: square"/>
   </g>
   <g id="patch_10">
    <path d="M 507.982357 257.158895 
L 865.19952 257.158895 
" style="fill: none; stroke: #000000; stroke-width: 0.8; stroke-linejoin: miter; stroke-linecap: square"/>
   </g>
   <g id="patch_11">
    <path d="M 507.982357 7.2 
L 865.19952 7.2 
" style="fill: none; stroke: #000000; stroke-width: 0.8; stroke-linejoin: miter; stroke-linecap: square"/>
   </g>
  </g>
 </g>
 <defs>
  <clipPath id="pb12fa9c9f4">
   <rect x="53.328125" y="7.2" width="357.217163" height="249.958895"/>
  </clipPath>
  <clipPath id="p7fef715599">
   <rect x="507.982357" y="7.2" width="357.217163" height="249.958895"/>
  </clipPath>
 </defs>
</svg>
