<?xml version="1.0" encoding="utf-8" standalone="no"?>
<!DOCTYPE svg PUBLIC "-//W3C//DTD SVG 1.1//EN"
  "http://www.w3.org/Graphics/SVG/1.1/DTD/svg11.dtd">
<svg xmlns:xlink="http://www.w3.org/1999/xlink" width="388.965625pt" height="268.200625pt" viewBox="0 0 388.965625 268.200625" xmlns="http://www.w3.org/2000/svg" version="1.1">
 <metadata>
  <rdf:RDF xmlns:dc="http://purl.org/dc/elements/1.1/" xmlns:cc="http://creativecommons.org/ns#" xmlns:rdf="http://www.w3.org/1999/02/22-rdf-syntax-ns#">
   <cc:Work>
    <dc:type rdf:resource="http://purl.org/dc/dcmitype/StillImage"/>
    <dc:date>2025-04-29T09:31:56.359569</dc:date>
    <dc:format>image/svg+xml</dc:format>
    <dc:creator>
     <cc:Agent>
      <dc:title>Matplotlib v3.10.1, https://matplotlib.org/</dc:title>
     </cc:Agent>
    </dc:creator>
   </cc:Work>
  </rdf:RDF>
 </metadata>
 <defs>
  <style type="text/css">*{stroke-linejoin: round; stroke-linecap: butt}</style>
 </defs>
 <g id="figure_1">
  <g id="patch_1">
   <path d="M 0 268.200625 
L 388.965625 268.200625 
L 388.965625 0 
L 0 0 
z
" style="fill: #ffffff"/>
  </g>
  <g id="axes_1">
   <g id="patch_2">
    <path d="M 46.965625 228.96 
L 381.765625 228.96 
L 381.765625 7.2 
L 46.965625 7.2 
z
" style="fill: #ffffff"/>
   </g>
   <g id="matplotlib.axis_1">
    <g id="xtick_1">
     <g id="line2d_1">
      <defs>
       <path id="mefd7b13ea4" d="M 0 0 
L 0 3.5 
" style="stroke: #000000; stroke-width: 0.8"/>
      </defs>
      <g>
       <use xlink:href="#mefd7b13ea4" x="61.70992" y="228.96" style="stroke: #000000; stroke-width: 0.8"/>
      </g>
     </g>
     <g id="text_1">
      <!-- 2 -->
      <g transform="translate(58.52867 243.558437) scale(0.1 -0.1)">
       <defs>
        <path id="DejaVuSans-32" d="M 1228 531 
L 3431 531 
L 3431 0 
L 469 0 
L 469 531 
Q 828 903 1448 1529 
Q 2069 2156 2228 2338 
Q 2531 2678 2651 2914 
Q 2772 3150 2772 3378 
Q 2772 3750 2511 3984 
Q 2250 4219 1831 4219 
Q 1534 4219 1204 4116 
Q 875 4013 500 3803 
L 500 4441 
Q 881 4594 1212 4672 
Q 1544 4750 1819 4750 
Q 2544 4750 2975 4387 
Q 3406 4025 3406 3419 
Q 3406 3131 3298 2873 
Q 3191 2616 2906 2266 
Q 2828 2175 2409 1742 
Q 1991 1309 1228 531 
z
" transform="scale(0.015625)"/>
       </defs>
       <use xlink:href="#DejaVuSans-32"/>
      </g>
     </g>
    </g>
    <g id="xtick_2">
     <g id="line2d_2">
      <g>
       <use xlink:href="#mefd7b13ea4" x="102.59942" y="228.96" style="stroke: #000000; stroke-width: 0.8"/>
      </g>
     </g>
     <g id="text_2">
      <!-- 3 -->
      <g transform="translate(99.41817 243.558437) scale(0.1 -0.1)">
       <defs>
        <path id="DejaVuSans-33" d="M 2597 2516 
Q 3050 2419 3304 2112 
Q 3559 1806 3559 1356 
Q 3559 666 3084 287 
Q 2609 -91 1734 -91 
Q 1441 -91 1130 -33 
Q 819 25 488 141 
L 488 750 
Q 750 597 1062 519 
Q 1375 441 1716 441 
Q 2309 441 2620 675 
Q 2931 909 2931 1356 
Q 2931 1769 2642 2001 
Q 2353 2234 1838 2234 
L 1294 2234 
L 1294 2753 
L 1863 2753 
Q 2328 2753 2575 2939 
Q 2822 3125 2822 3475 
Q 2822 3834 2567 4026 
Q 2313 4219 1838 4219 
Q 1578 4219 1281 4162 
Q 984 4106 628 3988 
L 628 4550 
Q 988 4650 1302 4700 
Q 1616 4750 1894 4750 
Q 2613 4750 3031 4423 
Q 3450 4097 3450 3541 
Q 3450 3153 3228 2886 
Q 3006 2619 2597 2516 
z
" transform="scale(0.015625)"/>
       </defs>
       <use xlink:href="#DejaVuSans-33"/>
      </g>
     </g>
    </g>
    <g id="xtick_3">
     <g id="line2d_3">
      <g>
       <use xlink:href="#mefd7b13ea4" x="143.488921" y="228.96" style="stroke: #000000; stroke-width: 0.8"/>
      </g>
     </g>
     <g id="text_3">
      <!-- 4 -->
      <g transform="translate(140.307671 243.558437) scale(0.1 -0.1)">
       <defs>
        <path id="DejaVuSans-34" d="M 2419 4116 
L 825 1625 
L 2419 1625 
L 2419 4116 
z
M 2253 4666 
L 3047 4666 
L 3047 1625 
L 3713 1625 
L 3713 1100 
L 3047 1100 
L 3047 0 
L 2419 0 
L 2419 1100 
L 313 1100 
L 313 1709 
L 2253 4666 
z
" transform="scale(0.015625)"/>
       </defs>
       <use xlink:href="#DejaVuSans-34"/>
      </g>
     </g>
    </g>
    <g id="xtick_4">
     <g id="line2d_4">
      <g>
       <use xlink:href="#mefd7b13ea4" x="184.378422" y="228.96" style="stroke: #000000; stroke-width: 0.8"/>
      </g>
     </g>
     <g id="text_4">
      <!-- 5 -->
      <g transform="translate(181.197172 243.558437) scale(0.1 -0.1)">
       <defs>
        <path id="DejaVuSans-35" d="M 691 4666 
L 3169 4666 
L 3169 4134 
L 1269 4134 
L 1269 2991 
Q 1406 3038 1543 3061 
Q 1681 3084 1819 3084 
Q 2600 3084 3056 2656 
Q 3513 2228 3513 1497 
Q 3513 744 3044 326 
Q 2575 -91 1722 -91 
Q 1428 -91 1123 -41 
Q 819 9 494 109 
L 494 744 
Q 775 591 1075 516 
Q 1375 441 1709 441 
Q 2250 441 2565 725 
Q 2881 1009 2881 1497 
Q 2881 1984 2565 2268 
Q 2250 2553 1709 2553 
Q 1456 2553 1204 2497 
Q 953 2441 691 2322 
L 691 4666 
z
" transform="scale(0.015625)"/>
       </defs>
       <use xlink:href="#DejaVuSans-35"/>
      </g>
     </g>
    </g>
    <g id="xtick_5">
     <g id="line2d_5">
      <g>
       <use xlink:href="#mefd7b13ea4" x="225.267923" y="228.96" style="stroke: #000000; stroke-width: 0.8"/>
      </g>
     </g>
     <g id="text_5">
      <!-- 6 -->
      <g transform="translate(222.086673 243.558437) scale(0.1 -0.1)">
       <defs>
        <path id="DejaVuSans-36" d="M 2113 2584 
Q 1688 2584 1439 2293 
Q 1191 2003 1191 1497 
Q 1191 994 1439 701 
Q 1688 409 2113 409 
Q 2538 409 2786 701 
Q 3034 994 3034 1497 
Q 3034 2003 2786 2293 
Q 2538 2584 2113 2584 
z
M 3366 4563 
L 3366 3988 
Q 3128 4100 2886 4159 
Q 2644 4219 2406 4219 
Q 1781 4219 1451 3797 
Q 1122 3375 1075 2522 
Q 1259 2794 1537 2939 
Q 1816 3084 2150 3084 
Q 2853 3084 3261 2657 
Q 3669 2231 3669 1497 
Q 3669 778 3244 343 
Q 2819 -91 2113 -91 
Q 1303 -91 875 529 
Q 447 1150 447 2328 
Q 447 3434 972 4092 
Q 1497 4750 2381 4750 
Q 2619 4750 2861 4703 
Q 3103 4656 3366 4563 
z
" transform="scale(0.015625)"/>
       </defs>
       <use xlink:href="#DejaVuSans-36"/>
      </g>
     </g>
    </g>
    <g id="xtick_6">
     <g id="line2d_6">
      <g>
       <use xlink:href="#mefd7b13ea4" x="266.157424" y="228.96" style="stroke: #000000; stroke-width: 0.8"/>
      </g>
     </g>
     <g id="text_6">
      <!-- 7 -->
      <g transform="translate(262.976174 243.558437) scale(0.1 -0.1)">
       <defs>
        <path id="DejaVuSans-37" d="M 525 4666 
L 3525 4666 
L 3525 4397 
L 1831 0 
L 1172 0 
L 2766 4134 
L 525 4134 
L 525 4666 
z
" transform="scale(0.015625)"/>
       </defs>
       <use xlink:href="#DejaVuSans-37"/>
      </g>
     </g>
    </g>
    <g id="xtick_7">
     <g id="line2d_7">
      <g>
       <use xlink:href="#mefd7b13ea4" x="307.046925" y="228.96" style="stroke: #000000; stroke-width: 0.8"/>
      </g>
     </g>
     <g id="text_7">
      <!-- 8 -->
      <g transform="translate(303.865675 243.558437) scale(0.1 -0.1)">
       <defs>
        <path id="DejaVuSans-38" d="M 2034 2216 
Q 1584 2216 1326 1975 
Q 1069 1734 1069 1313 
Q 1069 891 1326 650 
Q 1584 409 2034 409 
Q 2484 409 2743 651 
Q 3003 894 3003 1313 
Q 3003 1734 2745 1975 
Q 2488 2216 2034 2216 
z
M 1403 2484 
Q 997 2584 770 2862 
Q 544 3141 544 3541 
Q 544 4100 942 4425 
Q 1341 4750 2034 4750 
Q 2731 4750 3128 4425 
Q 3525 4100 3525 3541 
Q 3525 3141 3298 2862 
Q 3072 2584 2669 2484 
Q 3125 2378 3379 2068 
Q 3634 1759 3634 1313 
Q 3634 634 3220 271 
Q 2806 -91 2034 -91 
Q 1263 -91 848 271 
Q 434 634 434 1313 
Q 434 1759 690 2068 
Q 947 2378 1403 2484 
z
M 1172 3481 
Q 1172 3119 1398 2916 
Q 1625 2713 2034 2713 
Q 2441 2713 2670 2916 
Q 2900 3119 2900 3481 
Q 2900 3844 2670 4047 
Q 2441 4250 2034 4250 
Q 1625 4250 1398 4047 
Q 1172 3844 1172 3481 
z
" transform="scale(0.015625)"/>
       </defs>
       <use xlink:href="#DejaVuSans-38"/>
      </g>
     </g>
    </g>
    <g id="xtick_8">
     <g id="line2d_8">
      <g>
       <use xlink:href="#mefd7b13ea4" x="347.936425" y="228.96" style="stroke: #000000; stroke-width: 0.8"/>
      </g>
     </g>
     <g id="text_8">
      <!-- 9 -->
      <g transform="translate(344.755175 243.558437) scale(0.1 -0.1)">
       <defs>
        <path id="DejaVuSans-39" d="M 703 97 
L 703 672 
Q 941 559 1184 500 
Q 1428 441 1663 441 
Q 2288 441 2617 861 
Q 2947 1281 2994 2138 
Q 2813 1869 2534 1725 
Q 2256 1581 1919 1581 
Q 1219 1581 811 2004 
Q 403 2428 403 3163 
Q 403 3881 828 4315 
Q 1253 4750 1959 4750 
Q 2769 4750 3195 4129 
Q 3622 3509 3622 2328 
Q 3622 1225 3098 567 
Q 2575 -91 1691 -91 
Q 1453 -91 1209 -44 
Q 966 3 703 97 
z
M 1959 2075 
Q 2384 2075 2632 2365 
Q 2881 2656 2881 3163 
Q 2881 3666 2632 3958 
Q 2384 4250 1959 4250 
Q 1534 4250 1286 3958 
Q 1038 3666 1038 3163 
Q 1038 2656 1286 2365 
Q 1534 2075 1959 2075 
z
" transform="scale(0.015625)"/>
       </defs>
       <use xlink:href="#DejaVuSans-39"/>
      </g>
     </g>
    </g>
    <g id="text_9">
     <!-- wavelength [Å] -->
     <g transform="translate(176.328125 258.920937) scale(0.1 -0.1)">
      <defs>
       <path id="DejaVuSans-77" d="M 269 3500 
L 844 3500 
L 1563 769 
L 2278 3500 
L 2956 3500 
L 3675 769 
L 4391 3500 
L 4966 3500 
L 4050 0 
L 3372 0 
L 2619 2869 
L 1863 0 
L 1184 0 
L 269 3500 
z
" transform="scale(0.015625)"/>
       <path id="DejaVuSans-61" d="M 2194 1759 
Q 1497 1759 1228 1600 
Q 959 1441 959 1056 
Q 959 750 1161 570 
Q 1363 391 1709 391 
Q 2188 391 2477 730 
Q 2766 1069 2766 1631 
L 2766 1759 
L 2194 1759 
z
M 3341 1997 
L 3341 0 
L 2766 0 
L 2766 531 
Q 2569 213 2275 61 
Q 1981 -91 1556 -91 
Q 1019 -91 701 211 
Q 384 513 384 1019 
Q 384 1609 779 1909 
Q 1175 2209 1959 2209 
L 2766 2209 
L 2766 2266 
Q 2766 2663 2505 2880 
Q 2244 3097 1772 3097 
Q 1472 3097 1187 3025 
Q 903 2953 641 2809 
L 641 3341 
Q 956 3463 1253 3523 
Q 1550 3584 1831 3584 
Q 2591 3584 2966 3190 
Q 3341 2797 3341 1997 
z
" transform="scale(0.015625)"/>
       <path id="DejaVuSans-76" d="M 191 3500 
L 800 3500 
L 1894 563 
L 2988 3500 
L 3597 3500 
L 2284 0 
L 1503 0 
L 191 3500 
z
" transform="scale(0.015625)"/>
       <path id="DejaVuSans-65" d="M 3597 1894 
L 3597 1613 
L 953 1613 
Q 991 1019 1311 708 
Q 1631 397 2203 397 
Q 2534 397 2845 478 
Q 3156 559 3463 722 
L 3463 178 
Q 3153 47 2828 -22 
Q 2503 -91 2169 -91 
Q 1331 -91 842 396 
Q 353 884 353 1716 
Q 353 2575 817 3079 
Q 1281 3584 2069 3584 
Q 2775 3584 3186 3129 
Q 3597 2675 3597 1894 
z
M 3022 2063 
Q 3016 2534 2758 2815 
Q 2500 3097 2075 3097 
Q 1594 3097 1305 2825 
Q 1016 2553 972 2059 
L 3022 2063 
z
" transform="scale(0.015625)"/>
       <path id="DejaVuSans-6c" d="M 603 4863 
L 1178 4863 
L 1178 0 
L 603 0 
L 603 4863 
z
" transform="scale(0.015625)"/>
       <path id="DejaVuSans-6e" d="M 3513 2113 
L 3513 0 
L 2938 0 
L 2938 2094 
Q 2938 2591 2744 2837 
Q 2550 3084 2163 3084 
Q 1697 3084 1428 2787 
Q 1159 2491 1159 1978 
L 1159 0 
L 581 0 
L 581 3500 
L 1159 3500 
L 1159 2956 
Q 1366 3272 1645 3428 
Q 1925 3584 2291 3584 
Q 2894 3584 3203 3211 
Q 3513 2838 3513 2113 
z
" transform="scale(0.015625)"/>
       <path id="DejaVuSans-67" d="M 2906 1791 
Q 2906 2416 2648 2759 
Q 2391 3103 1925 3103 
Q 1463 3103 1205 2759 
Q 947 2416 947 1791 
Q 947 1169 1205 825 
Q 1463 481 1925 481 
Q 2391 481 2648 825 
Q 2906 1169 2906 1791 
z
M 3481 434 
Q 3481 -459 3084 -895 
Q 2688 -1331 1869 -1331 
Q 1566 -1331 1297 -1286 
Q 1028 -1241 775 -1147 
L 775 -588 
Q 1028 -725 1275 -790 
Q 1522 -856 1778 -856 
Q 2344 -856 2625 -561 
Q 2906 -266 2906 331 
L 2906 616 
Q 2728 306 2450 153 
Q 2172 0 1784 0 
Q 1141 0 747 490 
Q 353 981 353 1791 
Q 353 2603 747 3093 
Q 1141 3584 1784 3584 
Q 2172 3584 2450 3431 
Q 2728 3278 2906 2969 
L 2906 3500 
L 3481 3500 
L 3481 434 
z
" transform="scale(0.015625)"/>
       <path id="DejaVuSans-74" d="M 1172 4494 
L 1172 3500 
L 2356 3500 
L 2356 3053 
L 1172 3053 
L 1172 1153 
Q 1172 725 1289 603 
Q 1406 481 1766 481 
L 2356 481 
L 2356 0 
L 1766 0 
Q 1100 0 847 248 
Q 594 497 594 1153 
L 594 3053 
L 172 3053 
L 172 3500 
L 594 3500 
L 594 4494 
L 1172 4494 
z
" transform="scale(0.015625)"/>
       <path id="DejaVuSans-68" d="M 3513 2113 
L 3513 0 
L 2938 0 
L 2938 2094 
Q 2938 2591 2744 2837 
Q 2550 3084 2163 3084 
Q 1697 3084 1428 2787 
Q 1159 2491 1159 1978 
L 1159 0 
L 581 0 
L 581 4863 
L 1159 4863 
L 1159 2956 
Q 1366 3272 1645 3428 
Q 1925 3584 2291 3584 
Q 2894 3584 3203 3211 
Q 3513 2838 3513 2113 
z
" transform="scale(0.015625)"/>
       <path id="DejaVuSans-20" transform="scale(0.015625)"/>
       <path id="DejaVuSans-5b" d="M 550 4863 
L 1875 4863 
L 1875 4416 
L 1125 4416 
L 1125 -397 
L 1875 -397 
L 1875 -844 
L 550 -844 
L 550 4863 
z
" transform="scale(0.015625)"/>
       <path id="DejaVuSans-c5" d="M 2663 5081 
Q 2663 5278 2523 5417 
Q 2384 5556 2188 5556 
Q 1988 5556 1852 5420 
Q 1716 5284 1716 5081 
Q 1716 4884 1853 4746 
Q 1991 4609 2188 4609 
Q 2384 4609 2523 4746 
Q 2663 4884 2663 5081 
z
M 2188 4044 
L 1338 1722 
L 3041 1722 
L 2188 4044 
z
M 1716 4366 
Q 1525 4494 1428 4673 
Q 1331 4853 1331 5081 
Q 1331 5441 1579 5691 
Q 1828 5941 2188 5941 
Q 2544 5941 2795 5689 
Q 3047 5438 3047 5081 
Q 3047 4863 2948 4678 
Q 2850 4494 2663 4366 
L 4325 0 
L 3669 0 
L 3244 1197 
L 1141 1197 
L 716 0 
L 50 0 
L 1716 4366 
z
" transform="scale(0.015625)"/>
       <path id="DejaVuSans-5d" d="M 1947 4863 
L 1947 -844 
L 622 -844 
L 622 -397 
L 1369 -397 
L 1369 4416 
L 622 4416 
L 622 4863 
L 1947 4863 
z
" transform="scale(0.015625)"/>
      </defs>
      <use xlink:href="#DejaVuSans-77"/>
      <use xlink:href="#DejaVuSans-61" transform="translate(81.787109 0)"/>
      <use xlink:href="#DejaVuSans-76" transform="translate(143.066406 0)"/>
      <use xlink:href="#DejaVuSans-65" transform="translate(202.246094 0)"/>
      <use xlink:href="#DejaVuSans-6c" transform="translate(263.769531 0)"/>
      <use xlink:href="#DejaVuSans-65" transform="translate(291.552734 0)"/>
      <use xlink:href="#DejaVuSans-6e" transform="translate(353.076172 0)"/>
      <use xlink:href="#DejaVuSans-67" transform="translate(416.455078 0)"/>
      <use xlink:href="#DejaVuSans-74" transform="translate(479.931641 0)"/>
      <use xlink:href="#DejaVuSans-68" transform="translate(519.140625 0)"/>
      <use xlink:href="#DejaVuSans-20" transform="translate(582.519531 0)"/>
      <use xlink:href="#DejaVuSans-5b" transform="translate(614.306641 0)"/>
      <use xlink:href="#DejaVuSans-c5" transform="translate(653.320312 0)"/>
      <use xlink:href="#DejaVuSans-5d" transform="translate(721.728516 0)"/>
     </g>
    </g>
   </g>
   <g id="matplotlib.axis_2">
    <g id="ytick_1">
     <g id="line2d_9">
      <defs>
       <path id="m527ed138bf" d="M 0 0 
L -3.5 0 
" style="stroke: #000000; stroke-width: 0.8"/>
      </defs>
      <g>
       <use xlink:href="#m527ed138bf" x="46.965625" y="218.88" style="stroke: #000000; stroke-width: 0.8"/>
      </g>
     </g>
     <g id="text_10">
      <!-- 0 -->
      <g transform="translate(33.603125 222.679219) scale(0.1 -0.1)">
       <defs>
        <path id="DejaVuSans-30" d="M 2034 4250 
Q 1547 4250 1301 3770 
Q 1056 3291 1056 2328 
Q 1056 1369 1301 889 
Q 1547 409 2034 409 
Q 2525 409 2770 889 
Q 3016 1369 3016 2328 
Q 3016 3291 2770 3770 
Q 2525 4250 2034 4250 
z
M 2034 4750 
Q 2819 4750 3233 4129 
Q 3647 3509 3647 2328 
Q 3647 1150 3233 529 
Q 2819 -91 2034 -91 
Q 1250 -91 836 529 
Q 422 1150 422 2328 
Q 422 3509 836 4129 
Q 1250 4750 2034 4750 
z
" transform="scale(0.015625)"/>
       </defs>
       <use xlink:href="#DejaVuSans-30"/>
      </g>
     </g>
    </g>
    <g id="ytick_2">
     <g id="line2d_10">
      <g>
       <use xlink:href="#m527ed138bf" x="46.965625" y="181.26806" style="stroke: #000000; stroke-width: 0.8"/>
      </g>
     </g>
     <g id="text_11">
      <!-- 100 -->
      <g transform="translate(20.878125 185.067278) scale(0.1 -0.1)">
       <defs>
        <path id="DejaVuSans-31" d="M 794 531 
L 1825 531 
L 1825 4091 
L 703 3866 
L 703 4441 
L 1819 4666 
L 2450 4666 
L 2450 531 
L 3481 531 
L 3481 0 
L 794 0 
L 794 531 
z
" transform="scale(0.015625)"/>
       </defs>
       <use xlink:href="#DejaVuSans-31"/>
       <use xlink:href="#DejaVuSans-30" transform="translate(63.623047 0)"/>
       <use xlink:href="#DejaVuSans-30" transform="translate(127.246094 0)"/>
      </g>
     </g>
    </g>
    <g id="ytick_3">
     <g id="line2d_11">
      <g>
       <use xlink:href="#m527ed138bf" x="46.965625" y="143.656119" style="stroke: #000000; stroke-width: 0.8"/>
      </g>
     </g>
     <g id="text_12">
      <!-- 200 -->
      <g transform="translate(20.878125 147.455338) scale(0.1 -0.1)">
       <use xlink:href="#DejaVuSans-32"/>
       <use xlink:href="#DejaVuSans-30" transform="translate(63.623047 0)"/>
       <use xlink:href="#DejaVuSans-30" transform="translate(127.246094 0)"/>
      </g>
     </g>
    </g>
    <g id="ytick_4">
     <g id="line2d_12">
      <g>
       <use xlink:href="#m527ed138bf" x="46.965625" y="106.044179" style="stroke: #000000; stroke-width: 0.8"/>
      </g>
     </g>
     <g id="text_13">
      <!-- 300 -->
      <g transform="translate(20.878125 109.843398) scale(0.1 -0.1)">
       <use xlink:href="#DejaVuSans-33"/>
       <use xlink:href="#DejaVuSans-30" transform="translate(63.623047 0)"/>
       <use xlink:href="#DejaVuSans-30" transform="translate(127.246094 0)"/>
      </g>
     </g>
    </g>
    <g id="ytick_5">
     <g id="line2d_13">
      <g>
       <use xlink:href="#m527ed138bf" x="46.965625" y="68.432239" style="stroke: #000000; stroke-width: 0.8"/>
      </g>
     </g>
     <g id="text_14">
      <!-- 400 -->
      <g transform="translate(20.878125 72.231458) scale(0.1 -0.1)">
       <use xlink:href="#DejaVuSans-34"/>
       <use xlink:href="#DejaVuSans-30" transform="translate(63.623047 0)"/>
       <use xlink:href="#DejaVuSans-30" transform="translate(127.246094 0)"/>
      </g>
     </g>
    </g>
    <g id="ytick_6">
     <g id="line2d_14">
      <g>
       <use xlink:href="#m527ed138bf" x="46.965625" y="30.820299" style="stroke: #000000; stroke-width: 0.8"/>
      </g>
     </g>
     <g id="text_15">
      <!-- 500 -->
      <g transform="translate(20.878125 34.619517) scale(0.1 -0.1)">
       <use xlink:href="#DejaVuSans-35"/>
       <use xlink:href="#DejaVuSans-30" transform="translate(63.623047 0)"/>
       <use xlink:href="#DejaVuSans-30" transform="translate(127.246094 0)"/>
      </g>
     </g>
    </g>
    <g id="text_16">
     <!-- [counts] -->
     <g transform="translate(14.798438 138.6925) rotate(-90) scale(0.1 -0.1)">
      <defs>
       <path id="DejaVuSans-63" d="M 3122 3366 
L 3122 2828 
Q 2878 2963 2633 3030 
Q 2388 3097 2138 3097 
Q 1578 3097 1268 2742 
Q 959 2388 959 1747 
Q 959 1106 1268 751 
Q 1578 397 2138 397 
Q 2388 397 2633 464 
Q 2878 531 3122 666 
L 3122 134 
Q 2881 22 2623 -34 
Q 2366 -91 2075 -91 
Q 1284 -91 818 406 
Q 353 903 353 1747 
Q 353 2603 823 3093 
Q 1294 3584 2113 3584 
Q 2378 3584 2631 3529 
Q 2884 3475 3122 3366 
z
" transform="scale(0.015625)"/>
       <path id="DejaVuSans-6f" d="M 1959 3097 
Q 1497 3097 1228 2736 
Q 959 2375 959 1747 
Q 959 1119 1226 758 
Q 1494 397 1959 397 
Q 2419 397 2687 759 
Q 2956 1122 2956 1747 
Q 2956 2369 2687 2733 
Q 2419 3097 1959 3097 
z
M 1959 3584 
Q 2709 3584 3137 3096 
Q 3566 2609 3566 1747 
Q 3566 888 3137 398 
Q 2709 -91 1959 -91 
Q 1206 -91 779 398 
Q 353 888 353 1747 
Q 353 2609 779 3096 
Q 1206 3584 1959 3584 
z
" transform="scale(0.015625)"/>
       <path id="DejaVuSans-75" d="M 544 1381 
L 544 3500 
L 1119 3500 
L 1119 1403 
Q 1119 906 1312 657 
Q 1506 409 1894 409 
Q 2359 409 2629 706 
Q 2900 1003 2900 1516 
L 2900 3500 
L 3475 3500 
L 3475 0 
L 2900 0 
L 2900 538 
Q 2691 219 2414 64 
Q 2138 -91 1772 -91 
Q 1169 -91 856 284 
Q 544 659 544 1381 
z
M 1991 3584 
L 1991 3584 
z
" transform="scale(0.015625)"/>
       <path id="DejaVuSans-73" d="M 2834 3397 
L 2834 2853 
Q 2591 2978 2328 3040 
Q 2066 3103 1784 3103 
Q 1356 3103 1142 2972 
Q 928 2841 928 2578 
Q 928 2378 1081 2264 
Q 1234 2150 1697 2047 
L 1894 2003 
Q 2506 1872 2764 1633 
Q 3022 1394 3022 966 
Q 3022 478 2636 193 
Q 2250 -91 1575 -91 
Q 1294 -91 989 -36 
Q 684 19 347 128 
L 347 722 
Q 666 556 975 473 
Q 1284 391 1588 391 
Q 1994 391 2212 530 
Q 2431 669 2431 922 
Q 2431 1156 2273 1281 
Q 2116 1406 1581 1522 
L 1381 1569 
Q 847 1681 609 1914 
Q 372 2147 372 2553 
Q 372 3047 722 3315 
Q 1072 3584 1716 3584 
Q 2034 3584 2315 3537 
Q 2597 3491 2834 3397 
z
" transform="scale(0.015625)"/>
      </defs>
      <use xlink:href="#DejaVuSans-5b"/>
      <use xlink:href="#DejaVuSans-63" transform="translate(39.013672 0)"/>
      <use xlink:href="#DejaVuSans-6f" transform="translate(93.994141 0)"/>
      <use xlink:href="#DejaVuSans-75" transform="translate(155.175781 0)"/>
      <use xlink:href="#DejaVuSans-6e" transform="translate(218.554688 0)"/>
      <use xlink:href="#DejaVuSans-74" transform="translate(281.933594 0)"/>
      <use xlink:href="#DejaVuSans-73" transform="translate(321.142578 0)"/>
      <use xlink:href="#DejaVuSans-5d" transform="translate(373.242188 0)"/>
     </g>
    </g>
   </g>
   <g id="line2d_15">
    <path d="M 76.658084 193.68 
L 77.62668 193.68 
L 77.62668 138.014328 
L 78.595275 138.014328 
L 78.595275 94.008358 
L 79.56387 94.008358 
L 79.56387 89.871045 
L 80.532466 89.871045 
L 80.532466 97.017313 
L 81.501061 97.017313 
L 81.501061 88.366567 
L 82.469657 88.366567 
L 82.469657 82.724776 
L 83.438252 82.724776 
L 83.438252 64.671045 
L 84.406847 64.671045 
L 84.406847 61.66209 
L 85.375443 61.66209 
L 85.375443 66.927761 
L 86.344038 66.927761 
L 86.344038 60.533731 
L 87.312633 60.533731 
L 87.312633 49.250149 
L 88.281229 49.250149 
L 88.281229 48.87403 
L 89.249824 48.87403 
L 89.249824 45.112836 
L 90.21842 45.112836 
L 90.21842 25.554627 
L 91.187015 25.554627 
L 91.187015 37.214328 
L 92.15561 37.214328 
L 92.15561 31.196418 
L 93.124206 31.196418 
L 93.124206 30.06806 
L 94.092801 30.06806 
L 94.092801 17.28 
L 95.061396 17.28 
L 95.061396 30.06806 
L 96.029992 30.06806 
L 96.029992 23.29791 
L 96.998587 23.29791 
L 96.998587 47.745672 
L 97.967182 47.745672 
L 97.967182 42.103881 
L 98.935778 42.103881 
L 98.935778 41.727761 
L 99.904373 41.727761 
L 99.904373 37.590448 
L 100.872969 37.590448 
L 100.872969 25.554627 
L 101.841564 25.554627 
L 101.841564 25.930746 
L 102.810159 25.930746 
L 102.810159 33.077015 
L 103.778755 33.077015 
L 103.778755 50.754627 
L 104.74735 50.754627 
L 104.74735 57.524776 
L 105.715945 57.524776 
L 105.715945 64.671045 
L 106.684541 64.671045 
L 106.684541 77.082985 
L 107.653136 77.082985 
L 107.653136 93.632239 
L 108.621731 93.632239 
L 108.621731 92.503881 
L 109.590327 92.503881 
L 109.590327 109.805373 
L 110.558922 109.805373 
L 110.558922 115.447164 
L 111.527518 115.447164 
L 111.527518 130.86806 
L 112.496113 130.86806 
L 112.496113 134.629254 
L 113.464708 134.629254 
L 113.464708 151.930746 
L 114.433304 151.930746 
L 114.433304 149.67403 
L 115.401899 149.67403 
L 115.401899 157.948657 
L 116.370494 157.948657 
L 116.370494 173.369552 
L 117.33909 173.369552 
L 117.33909 177.506866 
L 118.307685 177.506866 
L 118.307685 200.07403 
L 120.244876 200.07403 
L 120.244876 206.46806 
L 121.213471 206.46806 
L 121.213471 212.86209 
L 122.182067 212.86209 
L 122.182067 217.375522 
L 123.150662 217.375522 
L 123.150662 218.88 
L 131.86802 218.88 
L 131.86802 210.229254 
L 132.836616 210.229254 
L 132.836616 182.020299 
L 133.805211 182.020299 
L 133.805211 137.638209 
L 134.773806 137.638209 
L 134.773806 100.402388 
L 135.742402 100.402388 
L 135.742402 90.623284 
L 136.710997 90.623284 
L 136.710997 88.742687 
L 137.679592 88.742687 
L 137.679592 97.017313 
L 139.616783 97.017313 
L 139.616783 102.659104 
L 140.585379 102.659104 
L 140.585379 87.990448 
L 141.553974 87.990448 
L 141.553974 105.29194 
L 142.522569 105.29194 
L 142.522569 104.163582 
L 143.491165 104.163582 
L 143.491165 112.814328 
L 144.45976 112.814328 
L 144.45976 105.66806 
L 145.428355 105.66806 
L 145.428355 103.411343 
L 147.365546 103.411343 
L 147.365546 111.309851 
L 148.334142 111.309851 
L 148.334142 101.530746 
L 149.302737 101.530746 
L 149.302737 107.548657 
L 150.271332 107.548657 
L 150.271332 115.823284 
L 151.239928 115.823284 
L 151.239928 119.208358 
L 152.208523 119.208358 
L 152.208523 116.199403 
L 153.177118 116.199403 
L 153.177118 119.208358 
L 154.145714 119.208358 
L 154.145714 118.456119 
L 155.114309 118.456119 
L 155.114309 115.071045 
L 156.082904 115.071045 
L 156.082904 107.924776 
L 157.0515 107.924776 
L 157.0515 116.199403 
L 158.020095 116.199403 
L 158.020095 126.354627 
L 158.988691 126.354627 
L 158.988691 118.08 
L 159.957286 118.08 
L 159.957286 130.115821 
L 160.925881 130.115821 
L 160.925881 132.372537 
L 161.894477 132.372537 
L 161.894477 130.115821 
L 162.863072 130.115821 
L 162.863072 133.500896 
L 163.831667 133.500896 
L 163.831667 125.226269 
L 164.800263 125.226269 
L 164.800263 137.26209 
L 165.768858 137.26209 
L 165.768858 136.88597 
L 167.706049 136.88597 
L 167.706049 148.169552 
L 168.674644 148.169552 
L 168.674644 154.563582 
L 169.64324 154.563582 
L 169.64324 149.67403 
L 170.611835 149.67403 
L 170.611835 149.29791 
L 171.58043 149.29791 
L 171.58043 159.829254 
L 172.549026 159.829254 
L 172.549026 170.736716 
L 173.517621 170.736716 
L 173.517621 168.103881 
L 174.486216 168.103881 
L 174.486216 171.112836 
L 175.454812 171.112836 
L 175.454812 183.148657 
L 176.423407 183.148657 
L 176.423407 186.533731 
L 177.392003 186.533731 
L 177.392003 191.423284 
L 178.360598 191.423284 
L 178.360598 196.312836 
L 179.329193 196.312836 
L 179.329193 204.211343 
L 180.297789 204.211343 
L 180.297789 207.220299 
L 181.266384 207.220299 
L 181.266384 210.981493 
L 182.234979 210.981493 
L 182.234979 216.999403 
L 183.203575 216.999403 
L 183.203575 217.751642 
L 184.17217 217.751642 
L 184.17217 218.127761 
L 185.140765 218.127761 
L 185.140765 212.109851 
L 186.109361 212.109851 
L 186.109361 202.706866 
L 187.077956 202.706866 
L 187.077956 183.148657 
L 188.046552 183.148657 
L 188.046552 159.077015 
L 189.015147 159.077015 
L 189.015147 156.444179 
L 189.983742 156.444179 
L 189.983742 154.187463 
L 190.952338 154.187463 
L 190.952338 150.426269 
L 191.920933 150.426269 
L 191.920933 154.187463 
L 192.889528 154.187463 
L 192.889528 147.041194 
L 193.858124 147.041194 
L 193.858124 159.453134 
L 194.826719 159.453134 
L 194.826719 150.426269 
L 195.795315 150.426269 
L 195.795315 153.059104 
L 196.76391 153.059104 
L 196.76391 160.581493 
L 197.732505 160.581493 
L 197.732505 150.426269 
L 198.701101 150.426269 
L 198.701101 161.709851 
L 199.669696 161.709851 
L 199.669696 155.69194 
L 200.638291 155.69194 
L 200.638291 156.820299 
L 201.606887 156.820299 
L 201.606887 150.802388 
L 202.575482 150.802388 
L 202.575482 163.966567 
L 203.544077 163.966567 
L 203.544077 162.46209 
L 204.512673 162.46209 
L 204.512673 161.333731 
L 205.481268 161.333731 
L 205.481268 170.360597 
L 206.449864 170.360597 
L 206.449864 162.838209 
L 207.418459 162.838209 
L 207.418459 163.590448 
L 208.387054 163.590448 
L 208.387054 173.369552 
L 209.35565 173.369552 
L 209.35565 169.984478 
L 210.324245 169.984478 
L 210.324245 172.993433 
L 211.29284 172.993433 
L 211.29284 181.644179 
L 212.261436 181.644179 
L 212.261436 180.89194 
L 213.230031 180.89194 
L 213.230031 185.781493 
L 214.198626 185.781493 
L 214.198626 182.020299 
L 215.167222 182.020299 
L 215.167222 189.918806 
L 216.135817 189.918806 
L 216.135817 192.551642 
L 217.104413 192.551642 
L 217.104413 189.166567 
L 218.073008 189.166567 
L 218.073008 199.69791 
L 219.041603 199.69791 
L 219.041603 192.927761 
L 220.010199 192.927761 
L 220.010199 195.560597 
L 220.978794 195.560597 
L 220.978794 198.193433 
L 221.947389 198.193433 
L 221.947389 197.441194 
L 222.915985 197.441194 
L 222.915985 198.569552 
L 223.88458 198.569552 
L 223.88458 204.963582 
L 224.853176 204.963582 
L 224.853176 203.459104 
L 225.821771 203.459104 
L 225.821771 204.963582 
L 226.790366 204.963582 
L 226.790366 211.357612 
L 227.758962 211.357612 
L 227.758962 212.86209 
L 228.727557 212.86209 
L 228.727557 213.990448 
L 229.696152 213.990448 
L 229.696152 215.494925 
L 230.664748 215.494925 
L 230.664748 217.751642 
L 231.633343 217.751642 
L 231.633343 218.503881 
L 232.601938 218.503881 
L 232.601938 215.494925 
L 233.570534 215.494925 
L 233.570534 207.220299 
L 234.539129 207.220299 
L 234.539129 201.578507 
L 235.507725 201.578507 
L 235.507725 192.551642 
L 236.47632 192.551642 
L 236.47632 189.166567 
L 237.444915 189.166567 
L 237.444915 182.396418 
L 238.413511 182.396418 
L 238.413511 188.038209 
L 239.382106 188.038209 
L 239.382106 192.551642 
L 240.350701 192.551642 
L 240.350701 189.542687 
L 241.319297 189.542687 
L 241.319297 188.414328 
L 242.287892 188.414328 
L 242.287892 196.688955 
L 243.256488 196.688955 
L 243.256488 193.303881 
L 244.225083 193.303881 
L 244.225083 195.936716 
L 245.193678 195.936716 
L 245.193678 193.303881 
L 246.162274 193.303881 
L 246.162274 195.184478 
L 247.130869 195.184478 
L 247.130869 200.07403 
L 248.099464 200.07403 
L 248.099464 202.330746 
L 249.06806 202.330746 
L 249.06806 204.963582 
L 250.036655 204.963582 
L 250.036655 197.065075 
L 251.00525 197.065075 
L 251.00525 204.211343 
L 251.973846 204.211343 
L 251.973846 203.082985 
L 252.942441 203.082985 
L 252.942441 206.46806 
L 253.911037 206.46806 
L 253.911037 202.330746 
L 254.879632 202.330746 
L 254.879632 206.844179 
L 255.848227 206.844179 
L 255.848227 207.972537 
L 256.816823 207.972537 
L 256.816823 210.981493 
L 257.785418 210.981493 
L 257.785418 208.724776 
L 258.754013 208.724776 
L 258.754013 210.229254 
L 259.722609 210.229254 
L 259.722609 213.238209 
L 260.691204 213.238209 
L 260.691204 211.357612 
L 261.659799 211.357612 
L 261.659799 210.229254 
L 262.628395 210.229254 
L 262.628395 209.477015 
L 263.59699 209.477015 
L 263.59699 212.109851 
L 264.565586 212.109851 
L 264.565586 213.238209 
L 265.534181 213.238209 
L 265.534181 215.118806 
L 266.502776 215.118806 
L 266.502776 213.614328 
L 267.471372 213.614328 
L 267.471372 213.238209 
L 268.439967 213.238209 
L 268.439967 214.742687 
L 269.408562 214.742687 
L 269.408562 214.366567 
L 270.377158 214.366567 
L 270.377158 216.999403 
L 271.345753 216.999403 
L 271.345753 216.623284 
L 272.314349 216.623284 
L 272.314349 218.88 
L 273.282944 218.88 
L 273.282944 217.751642 
L 274.251539 217.751642 
L 274.251539 218.503881 
L 276.18873 218.503881 
L 276.18873 218.88 
L 278.125921 218.88 
L 278.125921 218.127761 
L 279.094516 218.127761 
L 279.094516 212.48597 
L 280.063111 212.48597 
L 280.063111 209.100896 
L 281.031707 209.100896 
L 281.031707 211.357612 
L 282.000302 211.357612 
L 282.000302 208.724776 
L 282.968898 208.724776 
L 282.968898 203.459104 
L 283.937493 203.459104 
L 283.937493 208.348657 
L 284.906088 208.348657 
L 284.906088 206.844179 
L 285.874684 206.844179 
L 285.874684 208.348657 
L 286.843279 208.348657 
L 286.843279 204.587463 
L 287.811874 204.587463 
L 287.811874 205.339701 
L 288.78047 205.339701 
L 288.78047 210.229254 
L 289.749065 210.229254 
L 289.749065 210.605373 
L 290.71766 210.605373 
L 290.71766 215.494925 
L 291.686256 215.494925 
L 291.686256 212.86209 
L 292.654851 212.86209 
L 292.654851 209.100896 
L 293.623447 209.100896 
L 293.623447 211.733731 
L 295.560637 211.733731 
L 295.560637 210.981493 
L 296.529233 210.981493 
L 296.529233 210.605373 
L 297.497828 210.605373 
L 297.497828 211.357612 
L 298.466423 211.357612 
L 298.466423 208.724776 
L 299.435019 208.724776 
L 299.435019 213.238209 
L 300.403614 213.238209 
L 300.403614 215.118806 
L 301.37221 215.118806 
L 301.37221 211.357612 
L 302.340805 211.357612 
L 302.340805 214.366567 
L 303.3094 214.366567 
L 303.3094 215.494925 
L 306.215186 215.494925 
L 306.215186 215.871045 
L 307.183782 215.871045 
L 307.183782 216.999403 
L 309.120972 216.999403 
L 309.120972 217.375522 
L 310.089568 217.375522 
L 310.089568 215.118806 
L 311.058163 215.118806 
L 311.058163 217.375522 
L 312.026759 217.375522 
L 312.026759 217.751642 
L 312.995354 217.751642 
L 312.995354 218.503881 
L 313.963949 218.503881 
L 313.963949 218.127761 
L 314.932545 218.127761 
L 314.932545 218.88 
L 323.649903 218.88 
L 323.649903 217.751642 
L 324.618498 217.751642 
L 324.618498 215.871045 
L 325.587094 215.871045 
L 325.587094 213.990448 
L 326.555689 213.990448 
L 326.555689 212.48597 
L 327.524284 212.48597 
L 327.524284 210.229254 
L 328.49288 210.229254 
L 328.49288 206.09194 
L 329.461475 206.09194 
L 329.461475 208.348657 
L 330.430071 208.348657 
L 330.430071 204.587463 
L 331.398666 204.587463 
L 331.398666 207.596418 
L 332.367261 207.596418 
L 332.367261 202.706866 
L 333.335857 202.706866 
L 333.335857 200.450149 
L 334.304452 200.450149 
L 334.304452 205.339701 
L 335.273047 205.339701 
L 335.273047 202.330746 
L 336.241643 202.330746 
L 336.241643 199.69791 
L 337.210238 199.69791 
L 337.210238 206.46806 
L 338.178833 206.46806 
L 338.178833 201.578507 
L 339.147429 201.578507 
L 339.147429 204.963582 
L 340.116024 204.963582 
L 340.116024 208.348657 
L 341.08462 208.348657 
L 341.08462 203.082985 
L 342.053215 203.082985 
L 342.053215 206.46806 
L 343.02181 206.46806 
L 343.02181 200.826269 
L 343.990406 200.826269 
L 343.990406 203.082985 
L 344.959001 203.082985 
L 344.959001 205.339701 
L 345.927596 205.339701 
L 345.927596 202.706866 
L 346.896192 202.706866 
L 346.896192 205.715821 
L 348.833383 205.715821 
L 348.833383 208.724776 
L 349.801978 208.724776 
L 349.801978 207.220299 
L 350.770573 207.220299 
L 350.770573 205.715821 
L 352.707764 205.715821 
L 352.707764 208.348657 
L 353.676359 208.348657 
L 353.676359 209.853134 
L 354.644955 209.853134 
L 354.644955 210.605373 
L 355.61355 210.605373 
L 355.61355 211.733731 
L 356.582145 211.733731 
L 356.582145 212.109851 
L 357.550741 212.109851 
L 357.550741 210.981493 
L 358.519336 210.981493 
L 358.519336 212.48597 
L 359.487932 212.48597 
L 359.487932 211.733731 
L 360.456527 211.733731 
L 360.456527 214.366567 
L 361.425122 214.366567 
L 361.425122 216.623284 
L 362.393718 216.623284 
L 362.393718 211.733731 
L 363.362313 211.733731 
L 363.362313 213.614328 
L 364.330908 213.614328 
L 364.330908 212.86209 
L 365.299504 212.86209 
L 365.299504 214.366567 
L 366.268099 214.366567 
L 366.268099 215.118806 
L 367.236694 215.118806 
L 367.236694 215.118806 
" clip-path="url(#pe015775eda)" style="fill: none; stroke: #1f77b4; stroke-width: 1.5; stroke-linecap: square"/>
   </g>
   <g id="line2d_16">
    <path d="M 62.740433 201.202388 
L 63.748673 201.202388 
L 63.748673 171.488955 
L 64.756912 171.488955 
L 64.756912 151.178507 
L 65.765151 151.178507 
L 65.765151 116.951642 
L 66.773391 116.951642 
L 66.773391 111.309851 
L 67.78163 111.309851 
L 67.78163 120.336716 
L 68.78987 120.336716 
L 68.78987 112.814328 
L 69.798109 112.814328 
L 69.798109 103.787463 
L 70.806349 103.787463 
L 70.806349 119.584478 
L 71.814588 119.584478 
L 71.814588 86.86209 
L 72.822828 86.86209 
L 72.822828 86.109851 
L 73.831067 86.109851 
L 73.831067 95.888955 
L 74.839307 95.888955 
L 74.839307 87.614328 
L 75.847546 87.614328 
L 75.847546 91.751642 
L 76.855786 91.751642 
L 76.855786 86.86209 
L 77.864025 86.86209 
L 77.864025 79.339701 
L 78.872265 79.339701 
L 78.872265 68.808358 
L 79.880504 68.808358 
L 79.880504 63.918806 
L 80.888744 63.918806 
L 80.888744 65.047164 
L 81.896983 65.047164 
L 81.896983 78.211343 
L 82.905222 78.211343 
L 82.905222 69.184478 
L 83.913462 69.184478 
L 83.913462 56.772537 
L 84.921701 56.772537 
L 84.921701 49.626269 
L 85.929941 49.626269 
L 85.929941 67.68 
L 86.93818 67.68 
L 86.93818 56.020299 
L 87.94642 56.020299 
L 87.94642 66.927761 
L 88.954659 66.927761 
L 88.954659 90.999403 
L 89.962899 90.999403 
L 89.962899 59.781493 
L 90.971138 59.781493 
L 90.971138 69.936716 
L 91.979378 69.936716 
L 91.979378 72.569552 
L 92.987617 72.569552 
L 92.987617 75.578507 
L 93.995857 75.578507 
L 93.995857 55.644179 
L 95.004096 55.644179 
L 95.004096 58.277015 
L 96.012336 58.277015 
L 96.012336 67.68 
L 97.020575 67.68 
L 97.020575 75.954627 
L 98.028814 75.954627 
L 98.028814 74.826269 
L 99.037054 74.826269 
L 99.037054 98.521791 
L 100.045293 98.521791 
L 100.045293 106.044179 
L 101.053533 106.044179 
L 101.053533 107.172537 
L 102.061772 107.172537 
L 102.061772 112.06209 
L 103.070012 112.06209 
L 103.070012 120.712836 
L 104.078251 120.712836 
L 104.078251 116.951642 
L 105.086491 116.951642 
L 105.086491 138.014328 
L 106.09473 138.014328 
L 106.09473 129.363582 
L 107.10297 129.363582 
L 107.10297 143.656119 
L 108.111209 143.656119 
L 108.111209 155.315821 
L 109.119449 155.315821 
L 109.119449 152.306866 
L 110.127688 152.306866 
L 110.127688 159.829254 
L 111.135928 159.829254 
L 111.135928 167.351642 
L 112.144167 167.351642 
L 112.144167 166.223284 
L 113.152407 166.223284 
L 113.152407 172.617313 
L 114.160646 172.617313 
L 114.160646 176.002388 
L 115.168885 176.002388 
L 115.168885 191.423284 
L 116.177125 191.423284 
L 116.177125 192.551642 
L 118.193604 192.551642 
L 118.193604 179.011343 
L 119.201843 179.011343 
L 119.201843 160.581493 
L 120.210083 160.581493 
L 120.210083 152.306866 
L 121.218322 152.306866 
L 121.218322 139.894925 
L 122.226562 139.894925 
L 122.226562 139.142687 
L 123.234801 139.142687 
L 123.234801 101.906866 
L 124.243041 101.906866 
L 124.243041 115.823284 
L 125.25128 115.823284 
L 125.25128 112.06209 
L 126.25952 112.06209 
L 126.25952 117.327761 
L 127.267759 117.327761 
L 127.267759 126.730746 
L 128.275999 126.730746 
L 128.275999 117.703881 
L 129.284238 117.703881 
L 129.284238 118.456119 
L 130.292477 118.456119 
L 130.292477 116.575522 
L 131.300717 116.575522 
L 131.300717 129.739701 
L 132.308956 129.739701 
L 132.308956 128.235224 
L 133.317196 128.235224 
L 133.317196 123.345672 
L 134.325435 123.345672 
L 134.325435 130.115821 
L 135.333675 130.115821 
L 135.333675 124.850149 
L 136.341914 124.850149 
L 136.341914 126.730746 
L 137.350154 126.730746 
L 137.350154 133.500896 
L 138.358393 133.500896 
L 138.358393 136.509851 
L 139.366633 136.509851 
L 139.366633 104.539701 
L 140.374872 104.539701 
L 140.374872 132.372537 
L 141.383112 132.372537 
L 141.383112 133.124776 
L 142.391351 133.124776 
L 142.391351 133.500896 
L 143.399591 133.500896 
L 143.399591 147.417313 
L 144.40783 147.417313 
L 144.40783 138.766567 
L 145.416069 138.766567 
L 145.416069 140.271045 
L 146.424309 140.271045 
L 146.424309 120.336716 
L 147.432548 120.336716 
L 147.432548 138.014328 
L 148.440788 138.014328 
L 148.440788 137.638209 
L 149.449027 137.638209 
L 149.449027 130.86806 
L 150.457267 130.86806 
L 150.457267 139.518806 
L 151.465506 139.518806 
L 151.465506 133.124776 
L 152.473746 133.124776 
L 152.473746 132.372537 
L 153.481985 132.372537 
L 153.481985 124.09791 
L 154.490225 124.09791 
L 154.490225 150.802388 
L 155.498464 150.802388 
L 155.498464 172.617313 
L 156.506704 172.617313 
L 156.506704 150.802388 
L 157.514943 150.802388 
L 157.514943 142.903881 
L 158.523183 142.903881 
L 158.523183 142.151642 
L 159.531422 142.151642 
L 159.531422 146.665075 
L 160.539662 146.665075 
L 160.539662 159.829254 
L 161.547901 159.829254 
L 161.547901 136.133731 
L 162.55614 136.133731 
L 162.55614 170.360597 
L 163.56438 170.360597 
L 163.56438 155.69194 
L 164.572619 155.69194 
L 164.572619 176.754627 
L 165.580859 176.754627 
L 165.580859 154.563582 
L 166.589098 154.563582 
L 166.589098 161.709851 
L 167.597338 161.709851 
L 167.597338 173.745672 
L 168.605577 173.745672 
L 168.605577 171.865075 
L 169.613817 171.865075 
L 169.613817 165.094925 
L 170.622056 165.094925 
L 170.622056 178.635224 
L 171.630296 178.635224 
L 171.630296 167.351642 
L 172.638535 167.351642 
L 172.638535 168.48 
L 173.646775 168.48 
L 173.646775 160.581493 
L 174.655014 160.581493 
L 174.655014 137.638209 
L 175.663254 137.638209 
L 175.663254 153.059104 
L 176.671493 153.059104 
L 176.671493 145.160597 
L 177.679732 145.160597 
L 177.679732 156.06806 
L 178.687972 156.06806 
L 178.687972 153.435224 
L 179.696211 153.435224 
L 179.696211 160.957612 
L 180.704451 160.957612 
L 180.704451 158.324776 
L 181.71269 158.324776 
L 181.71269 160.205373 
L 182.72093 160.205373 
L 182.72093 166.599403 
L 183.729169 166.599403 
L 183.729169 169.984478 
L 184.737409 169.984478 
L 184.737409 160.581493 
L 185.745648 160.581493 
L 185.745648 167.351642 
L 186.753888 167.351642 
L 186.753888 173.745672 
L 187.762127 173.745672 
L 187.762127 160.205373 
L 188.770367 160.205373 
L 188.770367 165.847164 
L 189.778606 165.847164 
L 189.778606 171.865075 
L 190.786846 171.865075 
L 190.786846 166.223284 
L 191.795085 166.223284 
L 191.795085 172.241194 
L 192.803324 172.241194 
L 192.803324 160.205373 
L 193.811564 160.205373 
L 193.811564 177.506866 
L 194.819803 177.506866 
L 194.819803 174.121791 
L 195.828043 174.121791 
L 195.828043 169.232239 
L 196.836282 169.232239 
L 196.836282 181.644179 
L 197.844522 181.644179 
L 197.844522 169.984478 
L 198.852761 169.984478 
L 198.852761 179.763582 
L 199.861001 179.763582 
L 199.861001 179.011343 
L 200.86924 179.011343 
L 200.86924 169.984478 
L 201.87748 169.984478 
L 201.87748 189.166567 
L 202.885719 189.166567 
L 202.885719 180.515821 
L 203.893959 180.515821 
L 203.893959 195.936716 
L 204.902198 195.936716 
L 204.902198 179.011343 
L 205.910438 179.011343 
L 205.910438 196.688955 
L 206.918677 196.688955 
L 206.918677 193.303881 
L 207.926917 193.303881 
L 207.926917 195.184478 
L 208.935156 195.184478 
L 208.935156 189.166567 
L 209.943395 189.166567 
L 209.943395 198.569552 
L 210.951635 198.569552 
L 210.951635 198.193433 
L 211.959874 198.193433 
L 211.959874 197.817313 
L 212.968114 197.817313 
L 212.968114 194.808358 
L 213.976353 194.808358 
L 213.976353 205.339701 
L 214.984593 205.339701 
L 214.984593 193.68 
L 215.992832 193.68 
L 215.992832 201.954627 
L 217.001072 201.954627 
L 217.001072 198.569552 
L 218.009311 198.569552 
L 218.009311 194.432239 
L 219.017551 194.432239 
L 219.017551 195.936716 
L 220.02579 195.936716 
L 220.02579 191.047164 
L 221.03403 191.047164 
L 221.03403 187.66209 
L 222.042269 187.66209 
L 222.042269 195.560597 
L 223.050509 195.560597 
L 223.050509 189.542687 
L 224.058748 189.542687 
L 224.058748 174.87403 
L 225.066987 174.87403 
L 225.066987 190.294925 
L 226.075227 190.294925 
L 226.075227 188.790448 
L 227.083466 188.790448 
L 227.083466 195.560597 
L 228.091706 195.560597 
L 228.091706 192.551642 
L 229.099945 192.551642 
L 229.099945 195.936716 
L 230.108185 195.936716 
L 230.108185 189.166567 
L 231.116424 189.166567 
L 231.116424 202.330746 
L 232.124664 202.330746 
L 232.124664 201.202388 
L 233.132903 201.202388 
L 233.132903 202.330746 
L 234.141143 202.330746 
L 234.141143 196.688955 
L 235.149382 196.688955 
L 235.149382 200.450149 
L 236.157622 200.450149 
L 236.157622 199.69791 
L 237.165861 199.69791 
L 237.165861 200.450149 
L 238.174101 200.450149 
L 238.174101 207.596418 
L 239.18234 207.596418 
L 239.18234 207.220299 
L 240.190579 207.220299 
L 240.190579 203.459104 
L 241.198819 203.459104 
L 241.198819 208.724776 
L 242.207058 208.724776 
L 242.207058 198.193433 
L 243.215298 198.193433 
L 243.215298 213.614328 
L 244.223537 213.614328 
L 244.223537 202.706866 
L 245.231777 202.706866 
L 245.231777 212.86209 
L 246.240016 212.86209 
L 246.240016 207.220299 
L 247.248256 207.220299 
L 247.248256 202.706866 
L 248.256495 202.706866 
L 248.256495 213.238209 
L 249.264735 213.238209 
L 249.264735 212.109851 
L 250.272974 212.109851 
L 250.272974 212.86209 
L 251.281214 212.86209 
L 251.281214 212.109851 
L 252.289453 212.109851 
L 252.289453 207.972537 
L 253.297693 207.972537 
L 253.297693 215.118806 
L 254.305932 215.118806 
L 254.305932 215.494925 
L 255.314172 215.494925 
L 255.314172 209.477015 
L 256.322411 209.477015 
L 256.322411 214.742687 
L 257.33065 214.742687 
L 257.33065 210.229254 
L 258.33889 210.229254 
L 258.33889 212.48597 
L 259.347129 212.48597 
L 259.347129 213.614328 
L 260.355369 213.614328 
L 260.355369 214.742687 
L 261.363608 214.742687 
L 261.363608 215.494925 
L 262.371848 215.494925 
L 262.371848 214.742687 
L 263.380087 214.742687 
L 263.380087 215.118806 
L 264.388327 215.118806 
L 264.388327 209.100896 
L 265.396566 209.100896 
L 265.396566 207.596418 
L 266.404806 207.596418 
L 266.404806 210.229254 
L 267.413045 210.229254 
L 267.413045 213.614328 
L 268.421285 213.614328 
L 268.421285 211.357612 
L 269.429524 211.357612 
L 269.429524 207.972537 
L 270.437764 207.972537 
L 270.437764 211.357612 
L 271.446003 211.357612 
L 271.446003 208.724776 
L 272.454242 208.724776 
L 272.454242 209.100896 
L 273.462482 209.100896 
L 273.462482 208.348657 
L 274.470721 208.348657 
L 274.470721 210.981493 
L 275.478961 210.981493 
L 275.478961 207.220299 
L 276.4872 207.220299 
L 276.4872 206.46806 
L 277.49544 206.46806 
L 277.49544 210.981493 
L 278.503679 210.981493 
L 278.503679 210.605373 
L 279.511919 210.605373 
L 279.511919 213.614328 
L 280.520158 213.614328 
L 280.520158 215.118806 
L 282.536637 215.118806 
L 282.536637 214.366567 
L 283.544877 214.366567 
L 283.544877 209.477015 
L 284.553116 209.477015 
L 284.553116 214.742687 
L 285.561356 214.742687 
L 285.561356 213.614328 
L 286.569595 213.614328 
L 286.569595 213.990448 
L 287.577834 213.990448 
L 287.577834 213.238209 
L 288.586074 213.238209 
L 288.586074 211.357612 
L 289.594313 211.357612 
L 289.594313 213.614328 
L 290.602553 213.614328 
L 290.602553 212.48597 
L 291.610792 212.48597 
L 291.610792 209.477015 
L 292.619032 209.477015 
L 292.619032 213.990448 
L 293.627271 213.990448 
L 293.627271 215.118806 
L 294.635511 215.118806 
L 294.635511 216.623284 
L 295.64375 216.623284 
L 295.64375 212.109851 
L 296.65199 212.109851 
L 296.65199 215.118806 
L 297.660229 215.118806 
L 297.660229 216.247164 
L 299.676708 216.247164 
L 299.676708 215.871045 
L 300.684948 215.871045 
L 300.684948 216.623284 
L 302.701427 216.623284 
L 302.701427 217.751642 
L 304.717905 217.751642 
L 304.717905 216.623284 
L 305.726145 216.623284 
L 305.726145 218.127761 
L 306.734384 218.127761 
L 306.734384 215.494925 
L 307.742624 215.494925 
L 307.742624 216.999403 
L 308.750863 216.999403 
L 308.750863 216.623284 
L 309.759103 216.623284 
L 309.759103 215.871045 
L 310.767342 215.871045 
L 310.767342 215.494925 
L 311.775582 215.494925 
L 311.775582 214.366567 
L 312.783821 214.366567 
L 312.783821 212.109851 
L 313.792061 212.109851 
L 313.792061 213.990448 
L 314.8003 213.990448 
L 314.8003 213.238209 
L 315.80854 213.238209 
L 315.80854 210.605373 
L 316.816779 210.605373 
L 316.816779 207.596418 
L 317.825019 207.596418 
L 317.825019 213.990448 
L 318.833258 213.990448 
L 318.833258 200.826269 
L 319.841497 200.826269 
L 319.841497 211.357612 
L 320.849737 211.357612 
L 320.849737 207.220299 
L 321.857976 207.220299 
L 321.857976 207.972537 
L 322.866216 207.972537 
L 322.866216 201.578507 
L 323.874455 201.578507 
L 323.874455 210.981493 
L 324.882695 210.981493 
L 324.882695 206.46806 
L 325.890934 206.46806 
L 325.890934 201.578507 
L 326.899174 201.578507 
L 326.899174 206.844179 
L 327.907413 206.844179 
L 327.907413 207.596418 
L 328.915653 207.596418 
L 328.915653 206.09194 
L 329.923892 206.09194 
L 329.923892 207.596418 
L 330.932132 207.596418 
L 330.932132 201.202388 
L 331.940371 201.202388 
L 331.940371 211.733731 
L 332.948611 211.733731 
L 332.948611 209.853134 
L 333.95685 209.853134 
L 333.95685 198.569552 
L 334.965089 198.569552 
L 334.965089 212.86209 
L 335.973329 212.86209 
L 335.973329 204.587463 
L 336.981568 204.587463 
L 336.981568 208.724776 
L 337.989808 208.724776 
L 337.989808 209.100896 
L 338.998047 209.100896 
L 338.998047 209.853134 
L 341.014526 209.853134 
L 341.014526 209.477015 
L 342.022766 209.477015 
L 342.022766 212.109851 
L 343.031005 212.109851 
L 343.031005 211.733731 
L 344.039245 211.733731 
L 344.039245 204.587463 
L 345.047484 204.587463 
L 345.047484 211.733731 
L 346.055724 211.733731 
L 346.055724 200.450149 
L 347.063963 200.450149 
L 347.063963 213.238209 
L 348.072203 213.238209 
L 348.072203 207.220299 
L 349.080442 207.220299 
L 349.080442 215.494925 
L 350.088682 215.494925 
L 350.088682 210.229254 
L 351.096921 210.229254 
L 351.096921 215.494925 
L 352.10516 215.494925 
L 352.10516 211.357612 
L 353.1134 211.357612 
L 353.1134 216.247164 
L 354.121639 216.247164 
L 354.121639 209.477015 
L 355.129879 209.477015 
L 355.129879 213.238209 
L 356.138118 213.238209 
L 356.138118 213.990448 
L 357.146358 213.990448 
L 357.146358 215.494925 
L 358.154597 215.494925 
L 358.154597 216.999403 
L 359.162837 216.999403 
L 359.162837 211.733731 
L 360.171076 211.733731 
L 360.171076 215.118806 
L 361.179316 215.118806 
L 361.179316 212.48597 
L 362.187555 212.48597 
L 362.187555 217.375522 
L 363.195795 217.375522 
L 363.195795 214.742687 
L 364.204034 214.742687 
L 364.204034 216.623284 
L 365.212274 216.623284 
L 365.212274 216.623284 
" clip-path="url(#pe015775eda)" style="fill: none; stroke: #ff7f0e; stroke-width: 1.5; stroke-linecap: square"/>
   </g>
   <g id="line2d_17">
    <path d="M 62.182726 204.963582 
L 63.197199 204.963582 
L 63.197199 182.396418 
L 64.211672 182.396418 
L 64.211672 165.471045 
L 65.226146 165.471045 
L 65.226146 134.253134 
L 66.240619 134.253134 
L 66.240619 118.08 
L 67.255092 118.08 
L 67.255092 116.575522 
L 68.269566 116.575522 
L 68.269566 110.933731 
L 69.284039 110.933731 
L 69.284039 113.190448 
L 70.298512 113.190448 
L 70.298512 106.420299 
L 71.312986 106.420299 
L 71.312986 102.659104 
L 72.327459 102.659104 
L 72.327459 90.623284 
L 73.341933 90.623284 
L 73.341933 85.733731 
L 74.356406 85.733731 
L 74.356406 91.751642 
L 75.370879 91.751642 
L 75.370879 88.742687 
L 76.385353 88.742687 
L 76.385353 90.623284 
L 77.399826 90.623284 
L 77.399826 74.07403 
L 78.414299 74.07403 
L 78.414299 76.706866 
L 79.428773 76.706866 
L 79.428773 70.688955 
L 80.443246 70.688955 
L 80.443246 57.900896 
L 81.45772 57.900896 
L 81.45772 74.07403 
L 82.472193 74.07403 
L 82.472193 66.175522 
L 83.486666 66.175522 
L 83.486666 67.303881 
L 84.50114 67.303881 
L 84.50114 50.378507 
L 85.515613 50.378507 
L 85.515613 53.387463 
L 86.530086 53.387463 
L 86.530086 66.927761 
L 88.559033 66.927761 
L 88.559033 67.68 
L 89.573507 67.68 
L 89.573507 72.945672 
L 90.58798 72.945672 
L 90.58798 71.441194 
L 92.616927 71.441194 
L 92.616927 77.459104 
L 93.6314 77.459104 
L 93.6314 57.900896 
L 94.645873 57.900896 
L 94.645873 46.993433 
L 95.660347 46.993433 
L 95.660347 72.569552 
L 96.67482 72.569552 
L 96.67482 72.945672 
L 97.689293 72.945672 
L 97.689293 75.578507 
L 98.703767 75.578507 
L 98.703767 89.494925 
L 99.71824 89.494925 
L 99.71824 102.282985 
L 100.732714 102.282985 
L 100.732714 105.66806 
L 101.747187 105.66806 
L 101.747187 107.548657 
L 102.76166 107.548657 
L 102.76166 118.08 
L 103.776134 118.08 
L 103.776134 120.336716 
L 104.790607 120.336716 
L 104.790607 128.611343 
L 105.80508 128.611343 
L 105.80508 130.49194 
L 106.819554 130.49194 
L 106.819554 141.023284 
L 107.834027 141.023284 
L 107.834027 153.059104 
L 108.848501 153.059104 
L 108.848501 150.050149 
L 109.862974 150.050149 
L 109.862974 154.939701 
L 110.877447 154.939701 
L 110.877447 166.223284 
L 111.891921 166.223284 
L 111.891921 168.48 
L 112.906394 168.48 
L 112.906394 169.608358 
L 113.920867 169.608358 
L 113.920867 171.865075 
L 114.935341 171.865075 
L 114.935341 191.799403 
L 115.949814 191.799403 
L 115.949814 189.542687 
L 116.964287 189.542687 
L 116.964287 192.551642 
L 117.978761 192.551642 
L 117.978761 177.882985 
L 118.993234 177.882985 
L 118.993234 166.223284 
L 120.007708 166.223284 
L 120.007708 146.288955 
L 121.022181 146.288955 
L 121.022181 147.417313 
L 122.036654 147.417313 
L 122.036654 130.49194 
L 123.051128 130.49194 
L 123.051128 121.088955 
L 124.065601 121.088955 
L 124.065601 105.66806 
L 125.080074 105.66806 
L 125.080074 120.336716 
L 126.094548 120.336716 
L 126.094548 117.703881 
L 127.109021 117.703881 
L 127.109021 115.071045 
L 128.123495 115.071045 
L 128.123495 121.088955 
L 129.137968 121.088955 
L 129.137968 111.68597 
L 130.152441 111.68597 
L 130.152441 125.978507 
L 131.166915 125.978507 
L 131.166915 133.124776 
L 132.181388 133.124776 
L 132.181388 117.703881 
L 133.195861 117.703881 
L 133.195861 124.47403 
L 134.210335 124.47403 
L 134.210335 127.859104 
L 135.224808 127.859104 
L 135.224808 124.09791 
L 136.239281 124.09791 
L 136.239281 132.372537 
L 137.253755 132.372537 
L 137.253755 125.602388 
L 138.268228 125.602388 
L 138.268228 128.987463 
L 139.282702 128.987463 
L 139.282702 122.593433 
L 140.297175 122.593433 
L 140.297175 123.345672 
L 141.311648 123.345672 
L 141.311648 124.47403 
L 142.326122 124.47403 
L 142.326122 139.894925 
L 143.340595 139.894925 
L 143.340595 144.032239 
L 144.355068 144.032239 
L 144.355068 136.133731 
L 145.369542 136.133731 
L 145.369542 135.005373 
L 146.384015 135.005373 
L 146.384015 135.757612 
L 147.398489 135.757612 
L 147.398489 128.235224 
L 148.412962 128.235224 
L 148.412962 137.26209 
L 149.427435 137.26209 
L 149.427435 130.86806 
L 150.441909 130.86806 
L 150.441909 140.647164 
L 151.456382 140.647164 
L 151.456382 135.757612 
L 152.470855 135.757612 
L 152.470855 137.26209 
L 153.485329 137.26209 
L 153.485329 143.656119 
L 154.499802 143.656119 
L 154.499802 144.408358 
L 155.514276 144.408358 
L 155.514276 160.957612 
L 156.528749 160.957612 
L 156.528749 141.399403 
L 157.543222 141.399403 
L 157.543222 149.67403 
L 158.557696 149.67403 
L 158.557696 145.536716 
L 159.572169 145.536716 
L 159.572169 142.903881 
L 160.586642 142.903881 
L 160.586642 145.912836 
L 161.601116 145.912836 
L 161.601116 150.050149 
L 162.615589 150.050149 
L 162.615589 161.709851 
L 164.644536 161.709851 
L 164.644536 162.838209 
L 165.659009 162.838209 
L 165.659009 163.214328 
L 166.673483 163.214328 
L 166.673483 169.608358 
L 167.687956 169.608358 
L 167.687956 164.718806 
L 168.702429 164.718806 
L 168.702429 172.241194 
L 169.716903 172.241194 
L 169.716903 169.232239 
L 170.731376 169.232239 
L 170.731376 170.360597 
L 171.745849 170.360597 
L 171.745849 168.103881 
L 172.760323 168.103881 
L 172.760323 164.718806 
L 173.774796 164.718806 
L 173.774796 157.196418 
L 174.78927 157.196418 
L 174.78927 142.903881 
L 175.803743 142.903881 
L 175.803743 148.545672 
L 176.818216 148.545672 
L 176.818216 149.67403 
L 177.83269 149.67403 
L 177.83269 152.306866 
L 178.847163 152.306866 
L 178.847163 156.06806 
L 179.861636 156.06806 
L 179.861636 157.948657 
L 180.87611 157.948657 
L 180.87611 161.709851 
L 181.890583 161.709851 
L 181.890583 163.966567 
L 182.905056 163.966567 
L 182.905056 165.094925 
L 183.91953 165.094925 
L 183.91953 162.46209 
L 184.934003 162.46209 
L 184.934003 166.599403 
L 185.948477 166.599403 
L 185.948477 164.718806 
L 186.96295 164.718806 
L 186.96295 167.727761 
L 187.977423 167.727761 
L 187.977423 166.599403 
L 188.991897 166.599403 
L 188.991897 163.590448 
L 190.00637 163.590448 
L 190.00637 171.488955 
L 191.020843 171.488955 
L 191.020843 172.241194 
L 192.035317 172.241194 
L 192.035317 162.08597 
L 193.04979 162.08597 
L 193.04979 162.838209 
L 194.064264 162.838209 
L 194.064264 174.87403 
L 195.078737 174.87403 
L 195.078737 175.250149 
L 196.09321 175.250149 
L 196.09321 180.515821 
L 197.107684 180.515821 
L 197.107684 176.002388 
L 198.122157 176.002388 
L 198.122157 175.626269 
L 199.13663 175.626269 
L 199.13663 175.250149 
L 200.151104 175.250149 
L 200.151104 188.414328 
L 201.165577 188.414328 
L 201.165577 174.87403 
L 202.18005 174.87403 
L 202.18005 183.900896 
L 203.194524 183.900896 
L 203.194524 177.882985 
L 204.208997 177.882985 
L 204.208997 185.405373 
L 205.223471 185.405373 
L 205.223471 194.432239 
L 206.237944 194.432239 
L 206.237944 191.423284 
L 207.252417 191.423284 
L 207.252417 189.166567 
L 208.266891 189.166567 
L 208.266891 195.184478 
L 209.281364 195.184478 
L 209.281364 192.551642 
L 210.295837 192.551642 
L 210.295837 195.184478 
L 211.310311 195.184478 
L 211.310311 198.193433 
L 212.324784 198.193433 
L 212.324784 198.569552 
L 213.339258 198.569552 
L 213.339258 200.826269 
L 214.353731 200.826269 
L 214.353731 195.560597 
L 215.368204 195.560597 
L 215.368204 200.826269 
L 216.382678 200.826269 
L 216.382678 202.706866 
L 217.397151 202.706866 
L 217.397151 192.927761 
L 218.411624 192.927761 
L 218.411624 195.184478 
L 219.426098 195.184478 
L 219.426098 194.056119 
L 220.440571 194.056119 
L 220.440571 186.533731 
L 221.455045 186.533731 
L 221.455045 189.918806 
L 222.469518 189.918806 
L 222.469518 190.294925 
L 223.483991 190.294925 
L 223.483991 187.28597 
L 224.498465 187.28597 
L 224.498465 186.157612 
L 225.512938 186.157612 
L 225.512938 189.542687 
L 226.527411 189.542687 
L 226.527411 188.414328 
L 227.541885 188.414328 
L 227.541885 194.432239 
L 228.556358 194.432239 
L 228.556358 193.68 
L 229.570831 193.68 
L 229.570831 192.927761 
L 230.585305 192.927761 
L 230.585305 194.432239 
L 231.599778 194.432239 
L 231.599778 199.69791 
L 232.614252 199.69791 
L 232.614252 204.963582 
L 233.628725 204.963582 
L 233.628725 201.954627 
L 234.643198 201.954627 
L 234.643198 195.936716 
L 235.657672 195.936716 
L 235.657672 198.193433 
L 236.672145 198.193433 
L 236.672145 201.578507 
L 237.686618 201.578507 
L 237.686618 203.082985 
L 238.701092 203.082985 
L 238.701092 206.09194 
L 239.715565 206.09194 
L 239.715565 207.220299 
L 240.730039 207.220299 
L 240.730039 205.715821 
L 241.744512 205.715821 
L 241.744512 207.596418 
L 242.758985 207.596418 
L 242.758985 204.587463 
L 243.773459 204.587463 
L 243.773459 206.09194 
L 244.787932 206.09194 
L 244.787932 206.844179 
L 245.802405 206.844179 
L 245.802405 207.972537 
L 246.816879 207.972537 
L 246.816879 210.229254 
L 247.831352 210.229254 
L 247.831352 207.220299 
L 248.845825 207.220299 
L 248.845825 208.348657 
L 249.860299 208.348657 
L 249.860299 214.742687 
L 250.874772 214.742687 
L 250.874772 210.981493 
L 251.889246 210.981493 
L 251.889246 210.229254 
L 252.903719 210.229254 
L 252.903719 212.109851 
L 253.918192 212.109851 
L 253.918192 214.742687 
L 254.932666 214.742687 
L 254.932666 211.733731 
L 255.947139 211.733731 
L 255.947139 213.614328 
L 256.961612 213.614328 
L 256.961612 212.109851 
L 257.976086 212.109851 
L 257.976086 212.48597 
L 258.990559 212.48597 
L 258.990559 211.733731 
L 260.005033 211.733731 
L 260.005033 214.742687 
L 261.019506 214.742687 
L 261.019506 215.871045 
L 262.033979 215.871045 
L 262.033979 212.86209 
L 263.048453 212.86209 
L 263.048453 215.871045 
L 264.062926 215.871045 
L 264.062926 211.733731 
L 265.077399 211.733731 
L 265.077399 207.220299 
L 266.091873 207.220299 
L 266.091873 208.348657 
L 267.106346 208.348657 
L 267.106346 212.48597 
L 268.120819 212.48597 
L 268.120819 211.357612 
L 269.135293 211.357612 
L 269.135293 210.605373 
L 270.149766 210.605373 
L 270.149766 207.972537 
L 271.16424 207.972537 
L 271.16424 211.733731 
L 272.178713 211.733731 
L 272.178713 209.100896 
L 273.193186 209.100896 
L 273.193186 208.724776 
L 274.20766 208.724776 
L 274.20766 209.100896 
L 275.222133 209.100896 
L 275.222133 208.724776 
L 276.236606 208.724776 
L 276.236606 206.09194 
L 277.25108 206.09194 
L 277.25108 209.853134 
L 278.265553 209.853134 
L 278.265553 210.605373 
L 279.280027 210.605373 
L 279.280027 213.614328 
L 280.2945 213.614328 
L 280.2945 213.990448 
L 281.308973 213.990448 
L 281.308973 214.366567 
L 282.323447 214.366567 
L 282.323447 215.118806 
L 283.33792 215.118806 
L 283.33792 212.86209 
L 284.352393 212.86209 
L 284.352393 210.981493 
L 285.366867 210.981493 
L 285.366867 214.366567 
L 286.38134 214.366567 
L 286.38134 213.614328 
L 287.395814 213.614328 
L 287.395814 212.86209 
L 288.410287 212.86209 
L 288.410287 213.990448 
L 289.42476 213.990448 
L 289.42476 210.981493 
L 290.439234 210.981493 
L 290.439234 213.238209 
L 291.453707 213.238209 
L 291.453707 210.981493 
L 292.46818 210.981493 
L 292.46818 213.238209 
L 294.497127 213.238209 
L 294.497127 216.623284 
L 295.5116 216.623284 
L 295.5116 212.109851 
L 296.526074 212.109851 
L 296.526074 214.742687 
L 297.540547 214.742687 
L 297.540547 217.375522 
L 298.555021 217.375522 
L 298.555021 216.623284 
L 299.569494 216.623284 
L 299.569494 215.494925 
L 300.583967 215.494925 
L 300.583967 216.623284 
L 301.598441 216.623284 
L 301.598441 215.871045 
L 302.612914 215.871045 
L 302.612914 218.127761 
L 303.627387 218.127761 
L 303.627387 217.375522 
L 304.641861 217.375522 
L 304.641861 216.999403 
L 305.656334 216.999403 
L 305.656334 217.751642 
L 306.670808 217.751642 
L 306.670808 215.494925 
L 307.685281 215.494925 
L 307.685281 216.247164 
L 308.699754 216.247164 
L 308.699754 216.999403 
L 309.714228 216.999403 
L 309.714228 214.742687 
L 310.728701 214.742687 
L 310.728701 215.871045 
L 311.743174 215.871045 
L 311.743174 214.366567 
L 312.757648 214.366567 
L 312.757648 211.733731 
L 313.772121 211.733731 
L 313.772121 212.48597 
L 314.786594 212.48597 
L 314.786594 212.109851 
L 315.801068 212.109851 
L 315.801068 210.605373 
L 316.815541 210.605373 
L 316.815541 210.229254 
L 317.830015 210.229254 
L 317.830015 208.724776 
L 319.858961 208.724776 
L 319.858961 206.844179 
L 320.873435 206.844179 
L 320.873435 208.348657 
L 321.887908 208.348657 
L 321.887908 206.844179 
L 322.902381 206.844179 
L 322.902381 205.339701 
L 323.916855 205.339701 
L 323.916855 204.211343 
L 324.931328 204.211343 
L 324.931328 208.348657 
L 325.945802 208.348657 
L 325.945802 206.844179 
L 326.960275 206.844179 
L 326.960275 207.596418 
L 327.974748 207.596418 
L 327.974748 206.09194 
L 328.989222 206.09194 
L 328.989222 203.459104 
L 330.003695 203.459104 
L 330.003695 208.348657 
L 331.018168 208.348657 
L 331.018168 203.082985 
L 332.032642 203.082985 
L 332.032642 207.972537 
L 333.047115 207.972537 
L 333.047115 210.229254 
L 334.061588 210.229254 
L 334.061588 206.09194 
L 335.076062 206.09194 
L 335.076062 207.596418 
L 336.090535 207.596418 
L 336.090535 206.46806 
L 337.105009 206.46806 
L 337.105009 207.220299 
L 338.119482 207.220299 
L 338.119482 207.972537 
L 339.133955 207.972537 
L 339.133955 210.229254 
L 341.162902 210.229254 
L 341.162902 209.100896 
L 342.177375 209.100896 
L 342.177375 211.357612 
L 343.191849 211.357612 
L 343.191849 210.605373 
L 344.206322 210.605373 
L 344.206322 208.348657 
L 345.220796 208.348657 
L 345.220796 206.09194 
L 346.235269 206.09194 
L 346.235269 206.844179 
L 347.249742 206.844179 
L 347.249742 209.100896 
L 348.264216 209.100896 
L 348.264216 213.990448 
L 349.278689 213.990448 
L 349.278689 209.853134 
L 350.293162 209.853134 
L 350.293162 212.86209 
L 351.307636 212.86209 
L 351.307636 213.614328 
L 352.322109 213.614328 
L 352.322109 212.86209 
L 353.336582 212.86209 
L 353.336582 212.48597 
L 354.351056 212.48597 
L 354.351056 212.109851 
L 355.365529 212.109851 
L 355.365529 213.238209 
L 356.380003 213.238209 
L 356.380003 214.742687 
L 357.394476 214.742687 
L 357.394476 215.494925 
L 358.408949 215.494925 
L 358.408949 213.990448 
L 359.423423 213.990448 
L 359.423423 214.366567 
L 360.437896 214.366567 
L 360.437896 213.614328 
L 361.452369 213.614328 
L 361.452369 214.366567 
L 362.466843 214.366567 
L 362.466843 215.118806 
L 363.481316 215.118806 
L 363.481316 216.999403 
L 364.49579 216.999403 
L 364.49579 216.247164 
L 365.510263 216.247164 
L 365.510263 217.375522 
L 366.524736 217.375522 
L 366.524736 217.375522 
" clip-path="url(#pe015775eda)" style="fill: none; stroke: #2ca02c; stroke-width: 1.5; stroke-linecap: square"/>
   </g>
   <g id="patch_3">
    <path d="M 46.965625 228.96 
L 46.965625 7.2 
" style="fill: none; stroke: #000000; stroke-width: 0.8; stroke-linejoin: miter; stroke-linecap: square"/>
   </g>
   <g id="patch_4">
    <path d="M 381.765625 228.96 
L 381.765625 7.2 
" style="fill: none; stroke: #000000; stroke-width: 0.8; stroke-linejoin: miter; stroke-linecap: square"/>
   </g>
   <g id="patch_5">
    <path d="M 46.965625 228.96 
L 381.765625 228.96 
" style="fill: none; stroke: #000000; stroke-width: 0.8; stroke-linejoin: miter; stroke-linecap: square"/>
   </g>
   <g id="patch_6">
    <path d="M 46.965625 7.2 
L 381.765625 7.2 
" style="fill: none; stroke: #000000; stroke-width: 0.8; stroke-linejoin: miter; stroke-linecap: square"/>
   </g>
   <g id="legend_1">
    <g id="patch_7">
     <path d="M 305.3875 59.234375 
L 374.765625 59.234375 
Q 376.765625 59.234375 376.765625 57.234375 
L 376.765625 14.2 
Q 376.765625 12.2 374.765625 12.2 
L 305.3875 12.2 
Q 303.3875 12.2 303.3875 14.2 
L 303.3875 57.234375 
Q 303.3875 59.234375 305.3875 59.234375 
z
" style="fill: #ffffff; opacity: 0.8; stroke: #cccccc; stroke-linejoin: miter"/>
    </g>
    <g id="line2d_18">
     <path d="M 307.3875 20.298438 
L 307.3875 20.298438 
L 317.3875 20.298438 
L 317.3875 20.298438 
L 327.3875 20.298438 
" style="fill: none; stroke: #1f77b4; stroke-width: 1.5; stroke-linecap: square"/>
    </g>
    <g id="text_17">
     <!-- naive -->
     <g transform="translate(335.3875 23.798438) scale(0.1 -0.1)">
      <defs>
       <path id="DejaVuSans-69" d="M 603 3500 
L 1178 3500 
L 1178 0 
L 603 0 
L 603 3500 
z
M 603 4863 
L 1178 4863 
L 1178 4134 
L 603 4134 
L 603 4863 
z
" transform="scale(0.015625)"/>
      </defs>
      <use xlink:href="#DejaVuSans-6e"/>
      <use xlink:href="#DejaVuSans-61" transform="translate(63.378906 0)"/>
      <use xlink:href="#DejaVuSans-69" transform="translate(124.658203 0)"/>
      <use xlink:href="#DejaVuSans-76" transform="translate(152.441406 0)"/>
      <use xlink:href="#DejaVuSans-65" transform="translate(211.621094 0)"/>
     </g>
    </g>
    <g id="line2d_19">
     <path d="M 307.3875 34.976562 
L 307.3875 34.976562 
L 317.3875 34.976562 
L 317.3875 34.976562 
L 327.3875 34.976562 
" style="fill: none; stroke: #ff7f0e; stroke-width: 1.5; stroke-linecap: square"/>
    </g>
    <g id="text_18">
     <!-- wfm -->
     <g transform="translate(335.3875 38.476562) scale(0.1 -0.1)">
      <defs>
       <path id="DejaVuSans-66" d="M 2375 4863 
L 2375 4384 
L 1825 4384 
Q 1516 4384 1395 4259 
Q 1275 4134 1275 3809 
L 1275 3500 
L 2222 3500 
L 2222 3053 
L 1275 3053 
L 1275 0 
L 697 0 
L 697 3053 
L 147 3053 
L 147 3500 
L 697 3500 
L 697 3744 
Q 697 4328 969 4595 
Q 1241 4863 1831 4863 
L 2375 4863 
z
" transform="scale(0.015625)"/>
       <path id="DejaVuSans-6d" d="M 3328 2828 
Q 3544 3216 3844 3400 
Q 4144 3584 4550 3584 
Q 5097 3584 5394 3201 
Q 5691 2819 5691 2113 
L 5691 0 
L 5113 0 
L 5113 2094 
Q 5113 2597 4934 2840 
Q 4756 3084 4391 3084 
Q 3944 3084 3684 2787 
Q 3425 2491 3425 1978 
L 3425 0 
L 2847 0 
L 2847 2094 
Q 2847 2600 2669 2842 
Q 2491 3084 2119 3084 
Q 1678 3084 1418 2786 
Q 1159 2488 1159 1978 
L 1159 0 
L 581 0 
L 581 3500 
L 1159 3500 
L 1159 2956 
Q 1356 3278 1631 3431 
Q 1906 3584 2284 3584 
Q 2666 3584 2933 3390 
Q 3200 3197 3328 2828 
z
" transform="scale(0.015625)"/>
      </defs>
      <use xlink:href="#DejaVuSans-77"/>
      <use xlink:href="#DejaVuSans-66" transform="translate(81.787109 0)"/>
      <use xlink:href="#DejaVuSans-6d" transform="translate(116.992188 0)"/>
     </g>
    </g>
    <g id="line2d_20">
     <path d="M 307.3875 49.654688 
L 307.3875 49.654688 
L 317.3875 49.654688 
L 317.3875 49.654688 
L 327.3875 49.654688 
" style="fill: none; stroke: #2ca02c; stroke-width: 1.5; stroke-linecap: square"/>
    </g>
    <g id="text_19">
     <!-- original -->
     <g transform="translate(335.3875 53.154688) scale(0.1 -0.1)">
      <defs>
       <path id="DejaVuSans-72" d="M 2631 2963 
Q 2534 3019 2420 3045 
Q 2306 3072 2169 3072 
Q 1681 3072 1420 2755 
Q 1159 2438 1159 1844 
L 1159 0 
L 581 0 
L 581 3500 
L 1159 3500 
L 1159 2956 
Q 1341 3275 1631 3429 
Q 1922 3584 2338 3584 
Q 2397 3584 2469 3576 
Q 2541 3569 2628 3553 
L 2631 2963 
z
" transform="scale(0.015625)"/>
      </defs>
      <use xlink:href="#DejaVuSans-6f"/>
      <use xlink:href="#DejaVuSans-72" transform="translate(61.181641 0)"/>
      <use xlink:href="#DejaVuSans-69" transform="translate(102.294922 0)"/>
      <use xlink:href="#DejaVuSans-67" transform="translate(130.078125 0)"/>
      <use xlink:href="#DejaVuSans-69" transform="translate(193.554688 0)"/>
      <use xlink:href="#DejaVuSans-6e" transform="translate(221.337891 0)"/>
      <use xlink:href="#DejaVuSans-61" transform="translate(284.716797 0)"/>
      <use xlink:href="#DejaVuSans-6c" transform="translate(345.996094 0)"/>
     </g>
    </g>
   </g>
  </g>
 </g>
 <defs>
  <clipPath id="pe015775eda">
   <rect x="46.965625" y="7.2" width="334.8" height="221.76"/>
  </clipPath>
 </defs>
</svg>
