<?xml version="1.0" encoding="utf-8" standalone="no"?>
<!DOCTYPE svg PUBLIC "-//W3C//DTD SVG 1.1//EN"
  "http://www.w3.org/Graphics/SVG/1.1/DTD/svg11.dtd">
<svg xmlns:xlink="http://www.w3.org/1999/xlink" width="872.39952pt" height="296.39952pt" viewBox="0 0 872.39952 296.39952" xmlns="http://www.w3.org/2000/svg" version="1.1">
 <metadata>
  <rdf:RDF xmlns:dc="http://purl.org/dc/elements/1.1/" xmlns:cc="http://creativecommons.org/ns#" xmlns:rdf="http://www.w3.org/1999/02/22-rdf-syntax-ns#">
   <cc:Work>
    <dc:type rdf:resource="http://purl.org/dc/dcmitype/StillImage"/>
    <dc:date>2025-10-02T14:01:06.635981</dc:date>
    <dc:format>image/svg+xml</dc:format>
    <dc:creator>
     <cc:Agent>
      <dc:title>Matplotlib v3.10.1, https://matplotlib.org/</dc:title>
     </cc:Agent>
    </dc:creator>
   </cc:Work>
  </rdf:RDF>
 </metadata>
 <defs>
  <style type="text/css">*{stroke-linejoin: round; stroke-linecap: butt}</style>
 </defs>
 <g id="figure_1">
  <g id="patch_1">
   <path d="M 0 296.39952 
L 872.39952 296.39952 
L 872.39952 0 
L 0 0 
z
" style="fill: #ffffff"/>
  </g>
  <g id="axes_1">
   <g id="patch_2">
    <path d="M 53.328125 257.158895 
L 428.69851 257.158895 
L 428.69851 7.2 
L 53.328125 7.2 
z
" style="fill: #ffffff"/>
   </g>
   <g id="matplotlib.axis_1">
    <g id="xtick_1">
     <g id="line2d_1">
      <defs>
       <path id="mc6a23f29bf" d="M 0 0 
L 0 3.5 
" style="stroke: #000000; stroke-width: 0.8"/>
      </defs>
      <g>
       <use xlink:href="#mc6a23f29bf" x="69.523094" y="257.158895" style="stroke: #000000; stroke-width: 0.8"/>
      </g>
     </g>
     <g id="text_1">
      <!-- 0 -->
      <g transform="translate(66.341844 271.757332) scale(0.1 -0.1)">
       <defs>
        <path id="DejaVuSans-30" d="M 2034 4250 
Q 1547 4250 1301 3770 
Q 1056 3291 1056 2328 
Q 1056 1369 1301 889 
Q 1547 409 2034 409 
Q 2525 409 2770 889 
Q 3016 1369 3016 2328 
Q 3016 3291 2770 3770 
Q 2525 4250 2034 4250 
z
M 2034 4750 
Q 2819 4750 3233 4129 
Q 3647 3509 3647 2328 
Q 3647 1150 3233 529 
Q 2819 -91 2034 -91 
Q 1250 -91 836 529 
Q 422 1150 422 2328 
Q 422 3509 836 4129 
Q 1250 4750 2034 4750 
z
" transform="scale(0.015625)"/>
       </defs>
       <use xlink:href="#DejaVuSans-30"/>
      </g>
     </g>
    </g>
    <g id="xtick_2">
     <g id="line2d_2">
      <g>
       <use xlink:href="#mc6a23f29bf" x="138.120811" y="257.158895" style="stroke: #000000; stroke-width: 0.8"/>
      </g>
     </g>
     <g id="text_2">
      <!-- 1000 -->
      <g transform="translate(125.395811 271.757332) scale(0.1 -0.1)">
       <defs>
        <path id="DejaVuSans-31" d="M 794 531 
L 1825 531 
L 1825 4091 
L 703 3866 
L 703 4441 
L 1819 4666 
L 2450 4666 
L 2450 531 
L 3481 531 
L 3481 0 
L 794 0 
L 794 531 
z
" transform="scale(0.015625)"/>
       </defs>
       <use xlink:href="#DejaVuSans-31"/>
       <use xlink:href="#DejaVuSans-30" transform="translate(63.623047 0)"/>
       <use xlink:href="#DejaVuSans-30" transform="translate(127.246094 0)"/>
       <use xlink:href="#DejaVuSans-30" transform="translate(190.869141 0)"/>
      </g>
     </g>
    </g>
    <g id="xtick_3">
     <g id="line2d_3">
      <g>
       <use xlink:href="#mc6a23f29bf" x="206.718528" y="257.158895" style="stroke: #000000; stroke-width: 0.8"/>
      </g>
     </g>
     <g id="text_3">
      <!-- 2000 -->
      <g transform="translate(193.993528 271.757332) scale(0.1 -0.1)">
       <defs>
        <path id="DejaVuSans-32" d="M 1228 531 
L 3431 531 
L 3431 0 
L 469 0 
L 469 531 
Q 828 903 1448 1529 
Q 2069 2156 2228 2338 
Q 2531 2678 2651 2914 
Q 2772 3150 2772 3378 
Q 2772 3750 2511 3984 
Q 2250 4219 1831 4219 
Q 1534 4219 1204 4116 
Q 875 4013 500 3803 
L 500 4441 
Q 881 4594 1212 4672 
Q 1544 4750 1819 4750 
Q 2544 4750 2975 4387 
Q 3406 4025 3406 3419 
Q 3406 3131 3298 2873 
Q 3191 2616 2906 2266 
Q 2828 2175 2409 1742 
Q 1991 1309 1228 531 
z
" transform="scale(0.015625)"/>
       </defs>
       <use xlink:href="#DejaVuSans-32"/>
       <use xlink:href="#DejaVuSans-30" transform="translate(63.623047 0)"/>
       <use xlink:href="#DejaVuSans-30" transform="translate(127.246094 0)"/>
       <use xlink:href="#DejaVuSans-30" transform="translate(190.869141 0)"/>
      </g>
     </g>
    </g>
    <g id="xtick_4">
     <g id="line2d_4">
      <g>
       <use xlink:href="#mc6a23f29bf" x="275.316246" y="257.158895" style="stroke: #000000; stroke-width: 0.8"/>
      </g>
     </g>
     <g id="text_4">
      <!-- 3000 -->
      <g transform="translate(262.591246 271.757332) scale(0.1 -0.1)">
       <defs>
        <path id="DejaVuSans-33" d="M 2597 2516 
Q 3050 2419 3304 2112 
Q 3559 1806 3559 1356 
Q 3559 666 3084 287 
Q 2609 -91 1734 -91 
Q 1441 -91 1130 -33 
Q 819 25 488 141 
L 488 750 
Q 750 597 1062 519 
Q 1375 441 1716 441 
Q 2309 441 2620 675 
Q 2931 909 2931 1356 
Q 2931 1769 2642 2001 
Q 2353 2234 1838 2234 
L 1294 2234 
L 1294 2753 
L 1863 2753 
Q 2328 2753 2575 2939 
Q 2822 3125 2822 3475 
Q 2822 3834 2567 4026 
Q 2313 4219 1838 4219 
Q 1578 4219 1281 4162 
Q 984 4106 628 3988 
L 628 4550 
Q 988 4650 1302 4700 
Q 1616 4750 1894 4750 
Q 2613 4750 3031 4423 
Q 3450 4097 3450 3541 
Q 3450 3153 3228 2886 
Q 3006 2619 2597 2516 
z
" transform="scale(0.015625)"/>
       </defs>
       <use xlink:href="#DejaVuSans-33"/>
       <use xlink:href="#DejaVuSans-30" transform="translate(63.623047 0)"/>
       <use xlink:href="#DejaVuSans-30" transform="translate(127.246094 0)"/>
       <use xlink:href="#DejaVuSans-30" transform="translate(190.869141 0)"/>
      </g>
     </g>
    </g>
    <g id="xtick_5">
     <g id="line2d_5">
      <g>
       <use xlink:href="#mc6a23f29bf" x="343.913963" y="257.158895" style="stroke: #000000; stroke-width: 0.8"/>
      </g>
     </g>
     <g id="text_5">
      <!-- 4000 -->
      <g transform="translate(331.188963 271.757332) scale(0.1 -0.1)">
       <defs>
        <path id="DejaVuSans-34" d="M 2419 4116 
L 825 1625 
L 2419 1625 
L 2419 4116 
z
M 2253 4666 
L 3047 4666 
L 3047 1625 
L 3713 1625 
L 3713 1100 
L 3047 1100 
L 3047 0 
L 2419 0 
L 2419 1100 
L 313 1100 
L 313 1709 
L 2253 4666 
z
" transform="scale(0.015625)"/>
       </defs>
       <use xlink:href="#DejaVuSans-34"/>
       <use xlink:href="#DejaVuSans-30" transform="translate(63.623047 0)"/>
       <use xlink:href="#DejaVuSans-30" transform="translate(127.246094 0)"/>
       <use xlink:href="#DejaVuSans-30" transform="translate(190.869141 0)"/>
      </g>
     </g>
    </g>
    <g id="xtick_6">
     <g id="line2d_6">
      <g>
       <use xlink:href="#mc6a23f29bf" x="412.511681" y="257.158895" style="stroke: #000000; stroke-width: 0.8"/>
      </g>
     </g>
     <g id="text_6">
      <!-- 5000 -->
      <g transform="translate(399.786681 271.757332) scale(0.1 -0.1)">
       <defs>
        <path id="DejaVuSans-35" d="M 691 4666 
L 3169 4666 
L 3169 4134 
L 1269 4134 
L 1269 2991 
Q 1406 3038 1543 3061 
Q 1681 3084 1819 3084 
Q 2600 3084 3056 2656 
Q 3513 2228 3513 1497 
Q 3513 744 3044 326 
Q 2575 -91 1722 -91 
Q 1428 -91 1123 -41 
Q 819 9 494 109 
L 494 744 
Q 775 591 1075 516 
Q 1375 441 1709 441 
Q 2250 441 2565 725 
Q 2881 1009 2881 1497 
Q 2881 1984 2565 2268 
Q 2250 2553 1709 2553 
Q 1456 2553 1204 2497 
Q 953 2441 691 2322 
L 691 4666 
z
" transform="scale(0.015625)"/>
       </defs>
       <use xlink:href="#DejaVuSans-35"/>
       <use xlink:href="#DejaVuSans-30" transform="translate(63.623047 0)"/>
       <use xlink:href="#DejaVuSans-30" transform="translate(127.246094 0)"/>
       <use xlink:href="#DejaVuSans-30" transform="translate(190.869141 0)"/>
      </g>
     </g>
    </g>
    <g id="text_7">
     <!-- birth_time [µs] -->
     <g transform="translate(204.193005 285.435457) scale(0.1 -0.1)">
      <defs>
       <path id="DejaVuSans-62" d="M 3116 1747 
Q 3116 2381 2855 2742 
Q 2594 3103 2138 3103 
Q 1681 3103 1420 2742 
Q 1159 2381 1159 1747 
Q 1159 1113 1420 752 
Q 1681 391 2138 391 
Q 2594 391 2855 752 
Q 3116 1113 3116 1747 
z
M 1159 2969 
Q 1341 3281 1617 3432 
Q 1894 3584 2278 3584 
Q 2916 3584 3314 3078 
Q 3713 2572 3713 1747 
Q 3713 922 3314 415 
Q 2916 -91 2278 -91 
Q 1894 -91 1617 61 
Q 1341 213 1159 525 
L 1159 0 
L 581 0 
L 581 4863 
L 1159 4863 
L 1159 2969 
z
" transform="scale(0.015625)"/>
       <path id="DejaVuSans-69" d="M 603 3500 
L 1178 3500 
L 1178 0 
L 603 0 
L 603 3500 
z
M 603 4863 
L 1178 4863 
L 1178 4134 
L 603 4134 
L 603 4863 
z
" transform="scale(0.015625)"/>
       <path id="DejaVuSans-72" d="M 2631 2963 
Q 2534 3019 2420 3045 
Q 2306 3072 2169 3072 
Q 1681 3072 1420 2755 
Q 1159 2438 1159 1844 
L 1159 0 
L 581 0 
L 581 3500 
L 1159 3500 
L 1159 2956 
Q 1341 3275 1631 3429 
Q 1922 3584 2338 3584 
Q 2397 3584 2469 3576 
Q 2541 3569 2628 3553 
L 2631 2963 
z
" transform="scale(0.015625)"/>
       <path id="DejaVuSans-74" d="M 1172 4494 
L 1172 3500 
L 2356 3500 
L 2356 3053 
L 1172 3053 
L 1172 1153 
Q 1172 725 1289 603 
Q 1406 481 1766 481 
L 2356 481 
L 2356 0 
L 1766 0 
Q 1100 0 847 248 
Q 594 497 594 1153 
L 594 3053 
L 172 3053 
L 172 3500 
L 594 3500 
L 594 4494 
L 1172 4494 
z
" transform="scale(0.015625)"/>
       <path id="DejaVuSans-68" d="M 3513 2113 
L 3513 0 
L 2938 0 
L 2938 2094 
Q 2938 2591 2744 2837 
Q 2550 3084 2163 3084 
Q 1697 3084 1428 2787 
Q 1159 2491 1159 1978 
L 1159 0 
L 581 0 
L 581 4863 
L 1159 4863 
L 1159 2956 
Q 1366 3272 1645 3428 
Q 1925 3584 2291 3584 
Q 2894 3584 3203 3211 
Q 3513 2838 3513 2113 
z
" transform="scale(0.015625)"/>
       <path id="DejaVuSans-5f" d="M 3263 -1063 
L 3263 -1509 
L -63 -1509 
L -63 -1063 
L 3263 -1063 
z
" transform="scale(0.015625)"/>
       <path id="DejaVuSans-6d" d="M 3328 2828 
Q 3544 3216 3844 3400 
Q 4144 3584 4550 3584 
Q 5097 3584 5394 3201 
Q 5691 2819 5691 2113 
L 5691 0 
L 5113 0 
L 5113 2094 
Q 5113 2597 4934 2840 
Q 4756 3084 4391 3084 
Q 3944 3084 3684 2787 
Q 3425 2491 3425 1978 
L 3425 0 
L 2847 0 
L 2847 2094 
Q 2847 2600 2669 2842 
Q 2491 3084 2119 3084 
Q 1678 3084 1418 2786 
Q 1159 2488 1159 1978 
L 1159 0 
L 581 0 
L 581 3500 
L 1159 3500 
L 1159 2956 
Q 1356 3278 1631 3431 
Q 1906 3584 2284 3584 
Q 2666 3584 2933 3390 
Q 3200 3197 3328 2828 
z
" transform="scale(0.015625)"/>
       <path id="DejaVuSans-65" d="M 3597 1894 
L 3597 1613 
L 953 1613 
Q 991 1019 1311 708 
Q 1631 397 2203 397 
Q 2534 397 2845 478 
Q 3156 559 3463 722 
L 3463 178 
Q 3153 47 2828 -22 
Q 2503 -91 2169 -91 
Q 1331 -91 842 396 
Q 353 884 353 1716 
Q 353 2575 817 3079 
Q 1281 3584 2069 3584 
Q 2775 3584 3186 3129 
Q 3597 2675 3597 1894 
z
M 3022 2063 
Q 3016 2534 2758 2815 
Q 2500 3097 2075 3097 
Q 1594 3097 1305 2825 
Q 1016 2553 972 2059 
L 3022 2063 
z
" transform="scale(0.015625)"/>
       <path id="DejaVuSans-20" transform="scale(0.015625)"/>
       <path id="DejaVuSans-5b" d="M 550 4863 
L 1875 4863 
L 1875 4416 
L 1125 4416 
L 1125 -397 
L 1875 -397 
L 1875 -844 
L 550 -844 
L 550 4863 
z
" transform="scale(0.015625)"/>
       <path id="DejaVuSans-b5" d="M 544 -1331 
L 544 3500 
L 1119 3500 
L 1119 1325 
Q 1119 872 1334 640 
Q 1550 409 1972 409 
Q 2434 409 2667 671 
Q 2900 934 2900 1459 
L 2900 3500 
L 3475 3500 
L 3475 806 
Q 3475 619 3529 530 
Q 3584 441 3700 441 
Q 3728 441 3778 458 
Q 3828 475 3916 513 
L 3916 50 
Q 3788 -22 3673 -56 
Q 3559 -91 3450 -91 
Q 3234 -91 3106 31 
Q 2978 153 2931 403 
Q 2775 156 2548 32 
Q 2322 -91 2016 -91 
Q 1697 -91 1473 31 
Q 1250 153 1119 397 
L 1119 -1331 
L 544 -1331 
z
" transform="scale(0.015625)"/>
       <path id="DejaVuSans-73" d="M 2834 3397 
L 2834 2853 
Q 2591 2978 2328 3040 
Q 2066 3103 1784 3103 
Q 1356 3103 1142 2972 
Q 928 2841 928 2578 
Q 928 2378 1081 2264 
Q 1234 2150 1697 2047 
L 1894 2003 
Q 2506 1872 2764 1633 
Q 3022 1394 3022 966 
Q 3022 478 2636 193 
Q 2250 -91 1575 -91 
Q 1294 -91 989 -36 
Q 684 19 347 128 
L 347 722 
Q 666 556 975 473 
Q 1284 391 1588 391 
Q 1994 391 2212 530 
Q 2431 669 2431 922 
Q 2431 1156 2273 1281 
Q 2116 1406 1581 1522 
L 1381 1569 
Q 847 1681 609 1914 
Q 372 2147 372 2553 
Q 372 3047 722 3315 
Q 1072 3584 1716 3584 
Q 2034 3584 2315 3537 
Q 2597 3491 2834 3397 
z
" transform="scale(0.015625)"/>
       <path id="DejaVuSans-5d" d="M 1947 4863 
L 1947 -844 
L 622 -844 
L 622 -397 
L 1369 -397 
L 1369 4416 
L 622 4416 
L 622 4863 
L 1947 4863 
z
" transform="scale(0.015625)"/>
      </defs>
      <use xlink:href="#DejaVuSans-62"/>
      <use xlink:href="#DejaVuSans-69" transform="translate(63.476562 0)"/>
      <use xlink:href="#DejaVuSans-72" transform="translate(91.259766 0)"/>
      <use xlink:href="#DejaVuSans-74" transform="translate(132.373047 0)"/>
      <use xlink:href="#DejaVuSans-68" transform="translate(171.582031 0)"/>
      <use xlink:href="#DejaVuSans-5f" transform="translate(234.960938 0)"/>
      <use xlink:href="#DejaVuSans-74" transform="translate(284.960938 0)"/>
      <use xlink:href="#DejaVuSans-69" transform="translate(324.169922 0)"/>
      <use xlink:href="#DejaVuSans-6d" transform="translate(351.953125 0)"/>
      <use xlink:href="#DejaVuSans-65" transform="translate(449.365234 0)"/>
      <use xlink:href="#DejaVuSans-20" transform="translate(510.888672 0)"/>
      <use xlink:href="#DejaVuSans-5b" transform="translate(542.675781 0)"/>
      <use xlink:href="#DejaVuSans-b5" transform="translate(581.689453 0)"/>
      <use xlink:href="#DejaVuSans-73" transform="translate(645.3125 0)"/>
      <use xlink:href="#DejaVuSans-5d" transform="translate(697.412109 0)"/>
     </g>
    </g>
   </g>
   <g id="matplotlib.axis_2">
    <g id="ytick_1">
     <g id="line2d_7">
      <defs>
       <path id="m9e5d936114" d="M 0 0 
L -3.5 0 
" style="stroke: #000000; stroke-width: 0.8"/>
      </defs>
      <g>
       <use xlink:href="#m9e5d936114" x="53.328125" y="245.797127" style="stroke: #000000; stroke-width: 0.8"/>
      </g>
     </g>
     <g id="text_8">
      <!-- 0 -->
      <g transform="translate(39.965625 249.596346) scale(0.1 -0.1)">
       <use xlink:href="#DejaVuSans-30"/>
      </g>
     </g>
    </g>
    <g id="ytick_2">
     <g id="line2d_8">
      <g>
       <use xlink:href="#m9e5d936114" x="53.328125" y="208.26238" style="stroke: #000000; stroke-width: 0.8"/>
      </g>
     </g>
     <g id="text_9">
      <!-- 500 -->
      <g transform="translate(27.240625 212.061599) scale(0.1 -0.1)">
       <use xlink:href="#DejaVuSans-35"/>
       <use xlink:href="#DejaVuSans-30" transform="translate(63.623047 0)"/>
       <use xlink:href="#DejaVuSans-30" transform="translate(127.246094 0)"/>
      </g>
     </g>
    </g>
    <g id="ytick_3">
     <g id="line2d_9">
      <g>
       <use xlink:href="#m9e5d936114" x="53.328125" y="170.727633" style="stroke: #000000; stroke-width: 0.8"/>
      </g>
     </g>
     <g id="text_10">
      <!-- 1000 -->
      <g transform="translate(20.878125 174.526852) scale(0.1 -0.1)">
       <use xlink:href="#DejaVuSans-31"/>
       <use xlink:href="#DejaVuSans-30" transform="translate(63.623047 0)"/>
       <use xlink:href="#DejaVuSans-30" transform="translate(127.246094 0)"/>
       <use xlink:href="#DejaVuSans-30" transform="translate(190.869141 0)"/>
      </g>
     </g>
    </g>
    <g id="ytick_4">
     <g id="line2d_10">
      <g>
       <use xlink:href="#m9e5d936114" x="53.328125" y="133.192886" style="stroke: #000000; stroke-width: 0.8"/>
      </g>
     </g>
     <g id="text_11">
      <!-- 1500 -->
      <g transform="translate(20.878125 136.992104) scale(0.1 -0.1)">
       <use xlink:href="#DejaVuSans-31"/>
       <use xlink:href="#DejaVuSans-35" transform="translate(63.623047 0)"/>
       <use xlink:href="#DejaVuSans-30" transform="translate(127.246094 0)"/>
       <use xlink:href="#DejaVuSans-30" transform="translate(190.869141 0)"/>
      </g>
     </g>
    </g>
    <g id="ytick_5">
     <g id="line2d_11">
      <g>
       <use xlink:href="#m9e5d936114" x="53.328125" y="95.658139" style="stroke: #000000; stroke-width: 0.8"/>
      </g>
     </g>
     <g id="text_12">
      <!-- 2000 -->
      <g transform="translate(20.878125 99.457357) scale(0.1 -0.1)">
       <use xlink:href="#DejaVuSans-32"/>
       <use xlink:href="#DejaVuSans-30" transform="translate(63.623047 0)"/>
       <use xlink:href="#DejaVuSans-30" transform="translate(127.246094 0)"/>
       <use xlink:href="#DejaVuSans-30" transform="translate(190.869141 0)"/>
      </g>
     </g>
    </g>
    <g id="ytick_6">
     <g id="line2d_12">
      <g>
       <use xlink:href="#m9e5d936114" x="53.328125" y="58.123391" style="stroke: #000000; stroke-width: 0.8"/>
      </g>
     </g>
     <g id="text_13">
      <!-- 2500 -->
      <g transform="translate(20.878125 61.92261) scale(0.1 -0.1)">
       <use xlink:href="#DejaVuSans-32"/>
       <use xlink:href="#DejaVuSans-35" transform="translate(63.623047 0)"/>
       <use xlink:href="#DejaVuSans-30" transform="translate(127.246094 0)"/>
       <use xlink:href="#DejaVuSans-30" transform="translate(190.869141 0)"/>
      </g>
     </g>
    </g>
    <g id="ytick_7">
     <g id="line2d_13">
      <g>
       <use xlink:href="#m9e5d936114" x="53.328125" y="20.588644" style="stroke: #000000; stroke-width: 0.8"/>
      </g>
     </g>
     <g id="text_14">
      <!-- 3000 -->
      <g transform="translate(20.878125 24.387863) scale(0.1 -0.1)">
       <use xlink:href="#DejaVuSans-33"/>
       <use xlink:href="#DejaVuSans-30" transform="translate(63.623047 0)"/>
       <use xlink:href="#DejaVuSans-30" transform="translate(127.246094 0)"/>
       <use xlink:href="#DejaVuSans-30" transform="translate(190.869141 0)"/>
      </g>
     </g>
    </g>
    <g id="text_15">
     <!-- pulse:0 [counts] -->
     <g transform="translate(14.798438 172.659916) rotate(-90) scale(0.1 -0.1)">
      <defs>
       <path id="DejaVuSans-70" d="M 1159 525 
L 1159 -1331 
L 581 -1331 
L 581 3500 
L 1159 3500 
L 1159 2969 
Q 1341 3281 1617 3432 
Q 1894 3584 2278 3584 
Q 2916 3584 3314 3078 
Q 3713 2572 3713 1747 
Q 3713 922 3314 415 
Q 2916 -91 2278 -91 
Q 1894 -91 1617 61 
Q 1341 213 1159 525 
z
M 3116 1747 
Q 3116 2381 2855 2742 
Q 2594 3103 2138 3103 
Q 1681 3103 1420 2742 
Q 1159 2381 1159 1747 
Q 1159 1113 1420 752 
Q 1681 391 2138 391 
Q 2594 391 2855 752 
Q 3116 1113 3116 1747 
z
" transform="scale(0.015625)"/>
       <path id="DejaVuSans-75" d="M 544 1381 
L 544 3500 
L 1119 3500 
L 1119 1403 
Q 1119 906 1312 657 
Q 1506 409 1894 409 
Q 2359 409 2629 706 
Q 2900 1003 2900 1516 
L 2900 3500 
L 3475 3500 
L 3475 0 
L 2900 0 
L 2900 538 
Q 2691 219 2414 64 
Q 2138 -91 1772 -91 
Q 1169 -91 856 284 
Q 544 659 544 1381 
z
M 1991 3584 
L 1991 3584 
z
" transform="scale(0.015625)"/>
       <path id="DejaVuSans-6c" d="M 603 4863 
L 1178 4863 
L 1178 0 
L 603 0 
L 603 4863 
z
" transform="scale(0.015625)"/>
       <path id="DejaVuSans-3a" d="M 750 794 
L 1409 794 
L 1409 0 
L 750 0 
L 750 794 
z
M 750 3309 
L 1409 3309 
L 1409 2516 
L 750 2516 
L 750 3309 
z
" transform="scale(0.015625)"/>
       <path id="DejaVuSans-63" d="M 3122 3366 
L 3122 2828 
Q 2878 2963 2633 3030 
Q 2388 3097 2138 3097 
Q 1578 3097 1268 2742 
Q 959 2388 959 1747 
Q 959 1106 1268 751 
Q 1578 397 2138 397 
Q 2388 397 2633 464 
Q 2878 531 3122 666 
L 3122 134 
Q 2881 22 2623 -34 
Q 2366 -91 2075 -91 
Q 1284 -91 818 406 
Q 353 903 353 1747 
Q 353 2603 823 3093 
Q 1294 3584 2113 3584 
Q 2378 3584 2631 3529 
Q 2884 3475 3122 3366 
z
" transform="scale(0.015625)"/>
       <path id="DejaVuSans-6f" d="M 1959 3097 
Q 1497 3097 1228 2736 
Q 959 2375 959 1747 
Q 959 1119 1226 758 
Q 1494 397 1959 397 
Q 2419 397 2687 759 
Q 2956 1122 2956 1747 
Q 2956 2369 2687 2733 
Q 2419 3097 1959 3097 
z
M 1959 3584 
Q 2709 3584 3137 3096 
Q 3566 2609 3566 1747 
Q 3566 888 3137 398 
Q 2709 -91 1959 -91 
Q 1206 -91 779 398 
Q 353 888 353 1747 
Q 353 2609 779 3096 
Q 1206 3584 1959 3584 
z
" transform="scale(0.015625)"/>
       <path id="DejaVuSans-6e" d="M 3513 2113 
L 3513 0 
L 2938 0 
L 2938 2094 
Q 2938 2591 2744 2837 
Q 2550 3084 2163 3084 
Q 1697 3084 1428 2787 
Q 1159 2491 1159 1978 
L 1159 0 
L 581 0 
L 581 3500 
L 1159 3500 
L 1159 2956 
Q 1366 3272 1645 3428 
Q 1925 3584 2291 3584 
Q 2894 3584 3203 3211 
Q 3513 2838 3513 2113 
z
" transform="scale(0.015625)"/>
      </defs>
      <use xlink:href="#DejaVuSans-70"/>
      <use xlink:href="#DejaVuSans-75" transform="translate(63.476562 0)"/>
      <use xlink:href="#DejaVuSans-6c" transform="translate(126.855469 0)"/>
      <use xlink:href="#DejaVuSans-73" transform="translate(154.638672 0)"/>
      <use xlink:href="#DejaVuSans-65" transform="translate(206.738281 0)"/>
      <use xlink:href="#DejaVuSans-3a" transform="translate(268.261719 0)"/>
      <use xlink:href="#DejaVuSans-30" transform="translate(301.953125 0)"/>
      <use xlink:href="#DejaVuSans-20" transform="translate(365.576172 0)"/>
      <use xlink:href="#DejaVuSans-5b" transform="translate(397.363281 0)"/>
      <use xlink:href="#DejaVuSans-63" transform="translate(436.376953 0)"/>
      <use xlink:href="#DejaVuSans-6f" transform="translate(491.357422 0)"/>
      <use xlink:href="#DejaVuSans-75" transform="translate(552.539062 0)"/>
      <use xlink:href="#DejaVuSans-6e" transform="translate(615.917969 0)"/>
      <use xlink:href="#DejaVuSans-74" transform="translate(679.296875 0)"/>
      <use xlink:href="#DejaVuSans-73" transform="translate(718.505859 0)"/>
      <use xlink:href="#DejaVuSans-5d" transform="translate(770.605469 0)"/>
     </g>
    </g>
   </g>
   <g id="line2d_14">
    <path d="M 70.390415 235.062189 
L 71.527901 235.062189 
L 71.527901 226.954684 
L 72.665387 226.954684 
L 72.665387 218.62197 
L 73.802873 218.62197 
L 73.802873 210.964882 
L 74.940359 210.964882 
L 74.940359 202.406959 
L 76.077845 202.406959 
L 76.077845 193.623829 
L 77.215331 193.623829 
L 77.215331 189.194728 
L 78.352817 189.194728 
L 78.352817 176.132636 
L 79.490303 176.132636 
L 79.490303 164.797143 
L 80.627789 164.797143 
L 80.627789 160.81846 
L 81.765275 160.81846 
L 81.765275 153.611788 
L 82.902761 153.611788 
L 82.902761 143.702615 
L 84.040247 143.702615 
L 84.040247 138.52282 
L 85.177733 138.52282 
L 85.177733 134.994554 
L 86.315219 134.994554 
L 86.315219 125.685936 
L 87.452705 125.685936 
L 87.452705 122.683156 
L 88.590191 122.683156 
L 88.590191 115.476485 
L 89.727677 115.476485 
L 89.727677 111.497802 
L 90.865163 111.497802 
L 90.865163 112.398636 
L 92.00265 112.398636 
L 92.00265 100.387517 
L 93.140136 100.387517 
L 93.140136 97.159528 
L 94.277622 97.159528 
L 94.277622 101.813837 
L 95.415108 101.813837 
L 95.415108 92.805498 
L 96.552594 92.805498 
L 96.552594 86.349521 
L 97.69008 86.349521 
L 97.69008 82.445908 
L 98.827566 82.445908 
L 98.827566 85.974174 
L 99.965052 85.974174 
L 99.965052 84.99827 
L 101.102538 84.99827 
L 101.102538 74.71375 
L 102.240024 74.71375 
L 102.240024 74.038124 
L 103.37751 74.038124 
L 103.37751 72.611804 
L 104.514996 72.611804 
L 104.514996 69.083538 
L 105.652482 69.083538 
L 105.652482 73.512638 
L 106.789968 73.512638 
L 106.789968 63.828673 
L 107.927454 63.828673 
L 107.927454 56.021446 
L 109.06494 56.021446 
L 109.06494 57.823113 
L 110.202426 57.823113 
L 110.202426 54.895403 
L 112.477398 54.820334 
L 112.477398 61.726727 
L 113.614884 61.726727 
L 113.614884 54.294847 
L 114.75237 54.294847 
L 114.75237 54.520056 
L 115.889856 54.520056 
L 115.889856 49.790678 
L 117.027342 49.790678 
L 117.027342 52.042762 
L 118.164828 52.042762 
L 118.164828 50.541373 
L 119.302314 50.541373 
L 119.302314 54.670195 
L 120.4398 54.670195 
L 120.4398 45.586786 
L 121.577286 45.586786 
L 121.577286 48.814774 
L 122.714772 48.814774 
L 122.714772 42.584006 
L 123.852258 42.584006 
L 123.852258 46.187342 
L 124.989744 46.187342 
L 124.989744 41.908381 
L 126.12723 41.908381 
L 126.12723 45.211438 
L 127.264716 45.211438 
L 127.264716 44.685952 
L 128.402202 44.685952 
L 128.402202 40.031643 
L 129.539688 40.031643 
L 129.539688 39.280948 
L 130.677174 39.280948 
L 130.677174 40.857408 
L 131.81466 40.857408 
L 131.81466 42.959354 
L 132.952146 42.959354 
L 132.952146 42.208659 
L 134.089632 42.208659 
L 134.089632 40.256852 
L 135.227118 40.256852 
L 135.227118 39.581226 
L 136.364604 39.581226 
L 136.364604 38.380114 
L 137.50209 38.380114 
L 137.50209 33.575667 
L 138.639576 33.575667 
L 138.639576 40.48206 
L 139.777062 40.48206 
L 139.777062 35.827752 
L 140.914548 35.827752 
L 140.914548 39.205879 
L 142.052034 39.205879 
L 142.052034 28.921358 
L 143.18952 28.921358 
L 143.18952 32.524694 
L 144.327006 32.524694 
L 144.327006 36.278169 
L 145.464492 36.278169 
L 145.464492 39.581226 
L 146.601978 39.581226 
L 146.601978 34.251292 
L 147.739464 34.251292 
L 147.739464 33.951014 
L 148.87695 33.951014 
L 148.87695 37.254072 
L 150.014436 37.254072 
L 150.014436 32.975111 
L 151.151922 32.975111 
L 151.151922 35.602543 
L 152.289408 35.602543 
L 152.289408 34.926918 
L 153.426894 34.926918 
L 153.426894 34.251292 
L 154.56438 34.251292 
L 154.56438 29.446845 
L 155.701866 29.446845 
L 155.701866 29.822192 
L 156.839352 29.822192 
L 156.839352 36.578447 
L 157.976838 36.578447 
L 157.976838 22.090034 
L 159.114324 22.090034 
L 159.114324 25.69337 
L 160.25181 25.69337 
L 160.25181 27.720246 
L 161.389296 27.720246 
L 161.389296 28.771219 
L 162.526782 28.771219 
L 162.526782 25.242953 
L 163.664268 25.242953 
L 163.664268 27.870385 
L 165.93924 27.945455 
L 165.93924 36.953794 
L 167.076727 36.953794 
L 167.076727 38.830531 
L 168.214213 38.830531 
L 168.214213 29.221636 
L 169.351699 29.221636 
L 169.351699 33.425528 
L 170.489185 33.425528 
L 170.489185 25.393092 
L 171.626671 25.393092 
L 171.626671 29.371775 
L 172.764157 29.371775 
L 172.764157 30.047401 
L 173.901643 30.047401 
L 173.901643 25.167883 
L 175.039129 25.167883 
L 175.039129 27.870385 
L 176.176615 27.870385 
L 176.176615 29.371775 
L 177.314101 29.371775 
L 177.314101 30.948235 
L 178.451587 30.948235 
L 178.451587 25.69337 
L 179.589073 25.69337 
L 179.589073 31.62386 
L 180.726559 31.62386 
L 180.726559 27.19476 
L 181.864045 27.19476 
L 181.864045 27.720246 
L 183.001531 27.720246 
L 183.001531 25.543231 
L 184.139017 25.543231 
L 184.139017 30.948235 
L 185.276503 30.948235 
L 185.276503 20.063158 
L 186.413989 20.063158 
L 186.413989 31.773999 
L 187.551475 31.773999 
L 187.551475 28.546011 
L 188.688961 28.546011 
L 188.688961 30.422748 
L 189.826447 30.422748 
L 189.826447 25.092814 
L 190.963933 25.092814 
L 190.963933 27.419968 
L 192.101419 27.419968 
L 192.101419 28.546011 
L 193.238905 28.546011 
L 193.238905 25.543231 
L 194.376391 25.543231 
L 194.376391 30.647957 
L 195.513877 30.647957 
L 195.513877 27.570107 
L 196.651363 27.570107 
L 196.651363 24.26705 
L 197.788849 24.26705 
L 197.788849 31.773999 
L 198.926335 31.773999 
L 198.926335 30.572887 
L 200.063821 30.572887 
L 200.063821 35.527474 
L 201.201307 35.527474 
L 201.201307 30.873165 
L 202.338793 30.873165 
L 202.338793 32.900041 
L 203.476279 32.900041 
L 203.476279 20.513575 
L 204.613765 20.513575 
L 204.613765 25.393092 
L 205.751251 25.393092 
L 205.751251 29.672053 
L 206.888737 29.672053 
L 206.888737 24.492258 
L 208.026223 24.492258 
L 208.026223 26.293926 
L 209.163709 26.293926 
L 209.163709 25.543231 
L 210.301195 25.543231 
L 210.301195 30.723026 
L 211.438681 30.723026 
L 211.438681 24.642397 
L 212.576167 24.642397 
L 212.576167 27.645177 
L 213.713653 27.645177 
L 213.713653 22.240173 
L 214.851139 22.240173 
L 214.851139 37.329142 
L 215.988625 37.329142 
L 215.988625 25.242953 
L 217.126111 25.242953 
L 217.126111 29.897262 
L 218.263597 29.897262 
L 218.263597 34.401431 
L 219.401083 34.401431 
L 219.401083 29.897262 
L 220.538569 29.897262 
L 220.538569 27.19476 
L 221.676055 27.19476 
L 221.676055 33.425528 
L 222.813541 33.425528 
L 222.813541 30.19754 
L 223.951027 30.19754 
L 223.951027 24.417189 
L 225.088513 24.417189 
L 225.088513 18.561768 
L 226.225999 18.561768 
L 226.225999 25.768439 
L 227.363485 25.768439 
L 227.363485 31.999207 
L 228.500971 31.999207 
L 228.500971 21.789756 
L 229.638457 21.789756 
L 229.638457 21.26427 
L 230.775943 21.26427 
L 230.775943 24.792536 
L 231.913429 24.792536 
L 231.913429 27.11969 
L 233.050915 27.11969 
L 233.050915 26.744343 
L 234.188401 26.744343 
L 234.188401 19.913019 
L 235.325887 19.913019 
L 235.325887 26.894482 
L 236.463373 26.894482 
L 236.463373 22.76566 
L 237.600859 22.76566 
L 237.600859 28.771219 
L 238.738345 28.771219 
L 238.738345 25.69337 
L 239.875831 25.69337 
L 239.875831 25.393092 
L 241.013317 25.393092 
L 241.013317 24.792536 
L 242.150804 24.792536 
L 242.150804 31.698929 
L 243.28829 31.698929 
L 243.28829 30.12247 
L 244.425776 30.12247 
L 244.425776 30.347679 
L 245.563262 30.347679 
L 245.563262 28.320802 
L 247.838234 28.245733 
L 247.838234 19.237393 
L 248.97572 19.237393 
L 248.97572 25.242953 
L 250.113206 25.242953 
L 250.113206 23.065938 
L 251.250692 23.065938 
L 251.250692 25.843509 
L 252.388178 25.843509 
L 252.388178 31.473721 
L 253.525664 31.473721 
L 253.525664 29.596984 
L 254.66315 29.596984 
L 254.66315 21.339339 
L 255.800636 21.339339 
L 255.800636 34.176223 
L 256.938122 34.176223 
L 256.938122 28.846289 
L 258.075608 28.846289 
L 258.075608 27.269829 
L 259.213094 27.269829 
L 259.213094 23.141007 
L 260.35058 23.141007 
L 260.35058 30.723026 
L 261.488066 30.723026 
L 261.488066 32.374555 
L 262.625552 32.374555 
L 262.625552 29.371775 
L 263.763038 29.371775 
L 263.763038 20.063158 
L 264.900524 20.063158 
L 264.900524 30.572887 
L 266.03801 30.572887 
L 266.03801 38.154906 
L 267.175496 38.154906 
L 267.175496 43.634979 
L 268.312982 43.634979 
L 268.312982 44.610882 
L 269.450468 44.610882 
L 269.450468 66.681314 
L 270.587954 66.681314 
L 270.587954 67.28187 
L 271.72544 67.28187 
L 271.72544 77.56639 
L 272.862926 77.56639 
L 272.862926 85.598826 
L 274.000412 85.598826 
L 274.000412 101.513559 
L 275.137898 101.513559 
L 275.137898 108.570092 
L 276.275384 108.570092 
L 276.275384 109.170648 
L 277.41287 109.170648 
L 277.41287 118.178987 
L 278.550356 118.178987 
L 278.550356 131.916704 
L 279.687842 131.916704 
L 279.687842 133.192886 
L 280.825328 133.192886 
L 280.825328 136.721152 
L 281.962814 136.721152 
L 281.962814 146.104839 
L 283.1003 146.104839 
L 283.1003 152.560815 
L 284.237786 152.560815 
L 284.237786 151.284634 
L 285.375272 151.284634 
L 285.375272 159.31707 
L 286.512758 159.31707 
L 286.512758 163.74617 
L 287.650244 163.74617 
L 287.650244 165.998255 
L 288.78773 165.998255 
L 288.78773 167.274436 
L 289.925216 167.274436 
L 289.925216 176.357845 
L 291.062702 176.357845 
L 291.062702 183.639586 
L 292.200188 183.639586 
L 292.200188 186.717435 
L 293.337674 186.717435 
L 293.337674 192.647925 
L 294.47516 192.647925 
L 294.47516 193.999176 
L 295.612646 193.999176 
L 295.612646 194.149315 
L 296.750132 194.149315 
L 296.750132 195.275357 
L 297.887618 195.275357 
L 297.887618 204.659044 
L 299.025104 204.659044 
L 299.025104 200.455153 
L 300.16259 200.455153 
L 300.16259 205.33467 
L 301.300076 205.33467 
L 301.300076 208.712797 
L 302.437562 208.712797 
L 302.437562 208.112241 
L 303.575048 208.112241 
L 303.575048 210.514465 
L 304.712534 210.514465 
L 304.712534 213.667384 
L 305.85002 213.667384 
L 305.85002 215.318912 
L 306.987506 215.318912 
L 306.987506 218.62197 
L 308.124992 218.62197 
L 308.124992 218.096484 
L 309.262478 218.096484 
L 309.262478 218.69704 
L 310.399964 218.69704 
L 310.399964 221.54968 
L 311.53745 221.54968 
L 311.53745 222.225306 
L 313.812422 222.225306 
L 313.812422 223.651626 
L 314.949908 223.651626 
L 314.949908 225.828642 
L 316.087394 225.828642 
L 316.087394 226.654406 
L 317.224881 226.654406 
L 317.224881 227.029753 
L 318.362367 227.029753 
L 318.362367 228.230865 
L 319.499853 228.230865 
L 319.499853 228.456074 
L 320.637339 228.456074 
L 320.637339 229.657186 
L 321.774825 229.657186 
L 321.774825 230.107603 
L 322.912311 230.107603 
L 322.912311 231.308715 
L 324.049797 231.308715 
L 324.049797 232.810105 
L 325.187283 232.810105 
L 325.187283 233.035313 
L 326.324769 233.035313 
L 326.324769 232.284618 
L 327.462255 232.284618 
L 327.462255 234.536703 
L 328.599741 234.536703 
L 328.599741 235.587676 
L 329.737227 235.587676 
L 329.737227 234.011216 
L 330.874713 234.011216 
L 330.874713 236.263301 
L 332.012199 236.263301 
L 332.012199 236.788788 
L 333.149685 236.788788 
L 333.149685 237.164135 
L 334.287171 237.164135 
L 334.287171 237.9899 
L 335.424657 237.9899 
L 335.424657 239.040873 
L 336.562143 239.040873 
L 336.562143 238.515386 
L 337.699629 238.515386 
L 337.699629 239.866637 
L 339.974601 239.791568 
L 339.974601 240.166915 
L 341.112087 240.166915 
L 341.112087 241.142818 
L 342.249573 241.142818 
L 342.249573 241.292957 
L 343.387059 241.292957 
L 343.387059 239.41622 
L 344.524545 239.41622 
L 344.524545 240.84254 
L 345.662031 240.84254 
L 345.662031 242.193791 
L 346.799517 242.193791 
L 346.799517 239.641429 
L 347.937003 239.641429 
L 347.937003 242.043652 
L 349.074489 242.043652 
L 349.074489 241.743374 
L 350.211975 241.743374 
L 350.211975 242.419 
L 351.349461 242.419 
L 351.349461 241.893513 
L 353.624433 241.968583 
L 353.624433 242.268861 
L 354.761919 242.268861 
L 354.761919 242.419 
L 355.899405 242.419 
L 355.899405 243.620112 
L 357.036891 243.620112 
L 357.036891 242.869417 
L 359.311863 242.794347 
L 359.311863 243.545042 
L 360.449349 243.545042 
L 360.449349 243.695181 
L 361.586835 243.695181 
L 361.586835 243.92039 
L 362.724321 243.92039 
L 362.724321 243.545042 
L 363.861807 243.545042 
L 363.861807 243.094625 
L 364.999293 243.094625 
L 364.999293 243.84532 
L 366.136779 243.84532 
L 366.136779 244.220668 
L 369.549237 244.295737 
L 369.549237 244.370807 
L 370.686723 244.370807 
L 370.686723 244.746154 
L 371.824209 244.746154 
L 371.824209 243.995459 
L 372.961695 243.995459 
L 372.961695 243.545042 
L 374.099181 243.545042 
L 374.099181 244.671085 
L 375.236667 244.671085 
L 375.236667 244.070529 
L 377.511639 244.145598 
L 377.511639 245.196571 
L 378.649125 245.196571 
L 378.649125 244.445876 
L 379.786611 244.445876 
L 379.786611 244.821224 
L 380.924097 244.821224 
L 380.924097 245.121502 
L 382.061583 245.121502 
L 382.061583 244.746154 
L 383.199069 244.746154 
L 383.199069 245.046432 
L 384.336555 245.046432 
L 384.336555 244.370807 
L 385.474041 244.370807 
L 385.474041 245.046432 
L 387.749013 244.971363 
L 387.749013 244.896293 
L 388.886499 244.896293 
L 388.886499 245.271641 
L 390.023985 245.271641 
L 390.023985 245.121502 
L 392.298958 245.121502 
L 392.298958 245.496849 
L 393.436444 245.496849 
L 393.436444 245.34671 
L 394.57393 245.34671 
L 394.57393 245.496849 
L 396.848902 245.42178 
L 396.848902 245.271641 
L 399.123874 245.34671 
L 399.123874 245.42178 
L 402.536332 245.34671 
L 402.536332 245.571919 
L 403.673818 245.571919 
L 403.673818 245.42178 
L 405.94879 245.42178 
L 405.94879 245.121502 
L 407.086276 245.121502 
L 407.086276 245.646988 
L 408.223762 245.646988 
L 408.223762 245.271641 
L 409.361248 245.271641 
L 409.361248 245.797127 
L 410.498734 245.797127 
L 410.498734 245.271641 
L 411.63622 245.271641 
L 411.63622 245.271641 
" clip-path="url(#p8eaba360b0)" style="fill: none; stroke: #1f77b4; stroke-width: 1.5; stroke-linecap: square"/>
   </g>
   <g id="patch_3">
    <path d="M 53.328125 257.158895 
L 53.328125 7.2 
" style="fill: none; stroke: #000000; stroke-width: 0.8; stroke-linejoin: miter; stroke-linecap: square"/>
   </g>
   <g id="patch_4">
    <path d="M 428.69851 257.158895 
L 428.69851 7.2 
" style="fill: none; stroke: #000000; stroke-width: 0.8; stroke-linejoin: miter; stroke-linecap: square"/>
   </g>
   <g id="patch_5">
    <path d="M 53.328125 257.158895 
L 428.69851 257.158895 
" style="fill: none; stroke: #000000; stroke-width: 0.8; stroke-linejoin: miter; stroke-linecap: square"/>
   </g>
   <g id="patch_6">
    <path d="M 53.328125 7.2 
L 428.69851 7.2 
" style="fill: none; stroke: #000000; stroke-width: 0.8; stroke-linejoin: miter; stroke-linecap: square"/>
   </g>
  </g>
  <g id="axes_2">
   <g id="patch_7">
    <path d="M 489.829135 257.158895 
L 865.19952 257.158895 
L 865.19952 7.2 
L 489.829135 7.2 
z
" style="fill: #ffffff"/>
   </g>
   <g id="matplotlib.axis_3">
    <g id="xtick_7">
     <g id="line2d_15">
      <g>
       <use xlink:href="#mc6a23f29bf" x="503.449108" y="257.158895" style="stroke: #000000; stroke-width: 0.8"/>
      </g>
     </g>
     <g id="text_16">
      <!-- 0.0 -->
      <g transform="translate(495.497546 271.757332) scale(0.1 -0.1)">
       <defs>
        <path id="DejaVuSans-2e" d="M 684 794 
L 1344 794 
L 1344 0 
L 684 0 
L 684 794 
z
" transform="scale(0.015625)"/>
       </defs>
       <use xlink:href="#DejaVuSans-30"/>
       <use xlink:href="#DejaVuSans-2e" transform="translate(63.623047 0)"/>
       <use xlink:href="#DejaVuSans-30" transform="translate(95.410156 0)"/>
      </g>
     </g>
    </g>
    <g id="xtick_8">
     <g id="line2d_16">
      <g>
       <use xlink:href="#mc6a23f29bf" x="546.785676" y="257.158895" style="stroke: #000000; stroke-width: 0.8"/>
      </g>
     </g>
     <g id="text_17">
      <!-- 2.5 -->
      <g transform="translate(538.834113 271.757332) scale(0.1 -0.1)">
       <use xlink:href="#DejaVuSans-32"/>
       <use xlink:href="#DejaVuSans-2e" transform="translate(63.623047 0)"/>
       <use xlink:href="#DejaVuSans-35" transform="translate(95.410156 0)"/>
      </g>
     </g>
    </g>
    <g id="xtick_9">
     <g id="line2d_17">
      <g>
       <use xlink:href="#mc6a23f29bf" x="590.122243" y="257.158895" style="stroke: #000000; stroke-width: 0.8"/>
      </g>
     </g>
     <g id="text_18">
      <!-- 5.0 -->
      <g transform="translate(582.170681 271.757332) scale(0.1 -0.1)">
       <use xlink:href="#DejaVuSans-35"/>
       <use xlink:href="#DejaVuSans-2e" transform="translate(63.623047 0)"/>
       <use xlink:href="#DejaVuSans-30" transform="translate(95.410156 0)"/>
      </g>
     </g>
    </g>
    <g id="xtick_10">
     <g id="line2d_18">
      <g>
       <use xlink:href="#mc6a23f29bf" x="633.45881" y="257.158895" style="stroke: #000000; stroke-width: 0.8"/>
      </g>
     </g>
     <g id="text_19">
      <!-- 7.5 -->
      <g transform="translate(625.507248 271.757332) scale(0.1 -0.1)">
       <defs>
        <path id="DejaVuSans-37" d="M 525 4666 
L 3525 4666 
L 3525 4397 
L 1831 0 
L 1172 0 
L 2766 4134 
L 525 4134 
L 525 4666 
z
" transform="scale(0.015625)"/>
       </defs>
       <use xlink:href="#DejaVuSans-37"/>
       <use xlink:href="#DejaVuSans-2e" transform="translate(63.623047 0)"/>
       <use xlink:href="#DejaVuSans-35" transform="translate(95.410156 0)"/>
      </g>
     </g>
    </g>
    <g id="xtick_11">
     <g id="line2d_19">
      <g>
       <use xlink:href="#mc6a23f29bf" x="676.795378" y="257.158895" style="stroke: #000000; stroke-width: 0.8"/>
      </g>
     </g>
     <g id="text_20">
      <!-- 10.0 -->
      <g transform="translate(665.662565 271.757332) scale(0.1 -0.1)">
       <use xlink:href="#DejaVuSans-31"/>
       <use xlink:href="#DejaVuSans-30" transform="translate(63.623047 0)"/>
       <use xlink:href="#DejaVuSans-2e" transform="translate(127.246094 0)"/>
       <use xlink:href="#DejaVuSans-30" transform="translate(159.033203 0)"/>
      </g>
     </g>
    </g>
    <g id="xtick_12">
     <g id="line2d_20">
      <g>
       <use xlink:href="#mc6a23f29bf" x="720.131945" y="257.158895" style="stroke: #000000; stroke-width: 0.8"/>
      </g>
     </g>
     <g id="text_21">
      <!-- 12.5 -->
      <g transform="translate(708.999133 271.757332) scale(0.1 -0.1)">
       <use xlink:href="#DejaVuSans-31"/>
       <use xlink:href="#DejaVuSans-32" transform="translate(63.623047 0)"/>
       <use xlink:href="#DejaVuSans-2e" transform="translate(127.246094 0)"/>
       <use xlink:href="#DejaVuSans-35" transform="translate(159.033203 0)"/>
      </g>
     </g>
    </g>
    <g id="xtick_13">
     <g id="line2d_21">
      <g>
       <use xlink:href="#mc6a23f29bf" x="763.468513" y="257.158895" style="stroke: #000000; stroke-width: 0.8"/>
      </g>
     </g>
     <g id="text_22">
      <!-- 15.0 -->
      <g transform="translate(752.3357 271.757332) scale(0.1 -0.1)">
       <use xlink:href="#DejaVuSans-31"/>
       <use xlink:href="#DejaVuSans-35" transform="translate(63.623047 0)"/>
       <use xlink:href="#DejaVuSans-2e" transform="translate(127.246094 0)"/>
       <use xlink:href="#DejaVuSans-30" transform="translate(159.033203 0)"/>
      </g>
     </g>
    </g>
    <g id="xtick_14">
     <g id="line2d_22">
      <g>
       <use xlink:href="#mc6a23f29bf" x="806.80508" y="257.158895" style="stroke: #000000; stroke-width: 0.8"/>
      </g>
     </g>
     <g id="text_23">
      <!-- 17.5 -->
      <g transform="translate(795.672267 271.757332) scale(0.1 -0.1)">
       <use xlink:href="#DejaVuSans-31"/>
       <use xlink:href="#DejaVuSans-37" transform="translate(63.623047 0)"/>
       <use xlink:href="#DejaVuSans-2e" transform="translate(127.246094 0)"/>
       <use xlink:href="#DejaVuSans-35" transform="translate(159.033203 0)"/>
      </g>
     </g>
    </g>
    <g id="xtick_15">
     <g id="line2d_23">
      <g>
       <use xlink:href="#mc6a23f29bf" x="850.141647" y="257.158895" style="stroke: #000000; stroke-width: 0.8"/>
      </g>
     </g>
     <g id="text_24">
      <!-- 20.0 -->
      <g transform="translate(839.008835 271.757332) scale(0.1 -0.1)">
       <use xlink:href="#DejaVuSans-32"/>
       <use xlink:href="#DejaVuSans-30" transform="translate(63.623047 0)"/>
       <use xlink:href="#DejaVuSans-2e" transform="translate(127.246094 0)"/>
       <use xlink:href="#DejaVuSans-30" transform="translate(159.033203 0)"/>
      </g>
     </g>
    </g>
    <g id="text_25">
     <!-- wavelength [Å] -->
     <g transform="translate(639.476827 287.119832) scale(0.1 -0.1)">
      <defs>
       <path id="DejaVuSans-77" d="M 269 3500 
L 844 3500 
L 1563 769 
L 2278 3500 
L 2956 3500 
L 3675 769 
L 4391 3500 
L 4966 3500 
L 4050 0 
L 3372 0 
L 2619 2869 
L 1863 0 
L 1184 0 
L 269 3500 
z
" transform="scale(0.015625)"/>
       <path id="DejaVuSans-61" d="M 2194 1759 
Q 1497 1759 1228 1600 
Q 959 1441 959 1056 
Q 959 750 1161 570 
Q 1363 391 1709 391 
Q 2188 391 2477 730 
Q 2766 1069 2766 1631 
L 2766 1759 
L 2194 1759 
z
M 3341 1997 
L 3341 0 
L 2766 0 
L 2766 531 
Q 2569 213 2275 61 
Q 1981 -91 1556 -91 
Q 1019 -91 701 211 
Q 384 513 384 1019 
Q 384 1609 779 1909 
Q 1175 2209 1959 2209 
L 2766 2209 
L 2766 2266 
Q 2766 2663 2505 2880 
Q 2244 3097 1772 3097 
Q 1472 3097 1187 3025 
Q 903 2953 641 2809 
L 641 3341 
Q 956 3463 1253 3523 
Q 1550 3584 1831 3584 
Q 2591 3584 2966 3190 
Q 3341 2797 3341 1997 
z
" transform="scale(0.015625)"/>
       <path id="DejaVuSans-76" d="M 191 3500 
L 800 3500 
L 1894 563 
L 2988 3500 
L 3597 3500 
L 2284 0 
L 1503 0 
L 191 3500 
z
" transform="scale(0.015625)"/>
       <path id="DejaVuSans-67" d="M 2906 1791 
Q 2906 2416 2648 2759 
Q 2391 3103 1925 3103 
Q 1463 3103 1205 2759 
Q 947 2416 947 1791 
Q 947 1169 1205 825 
Q 1463 481 1925 481 
Q 2391 481 2648 825 
Q 2906 1169 2906 1791 
z
M 3481 434 
Q 3481 -459 3084 -895 
Q 2688 -1331 1869 -1331 
Q 1566 -1331 1297 -1286 
Q 1028 -1241 775 -1147 
L 775 -588 
Q 1028 -725 1275 -790 
Q 1522 -856 1778 -856 
Q 2344 -856 2625 -561 
Q 2906 -266 2906 331 
L 2906 616 
Q 2728 306 2450 153 
Q 2172 0 1784 0 
Q 1141 0 747 490 
Q 353 981 353 1791 
Q 353 2603 747 3093 
Q 1141 3584 1784 3584 
Q 2172 3584 2450 3431 
Q 2728 3278 2906 2969 
L 2906 3500 
L 3481 3500 
L 3481 434 
z
" transform="scale(0.015625)"/>
       <path id="DejaVuSans-c5" d="M 2663 5081 
Q 2663 5278 2523 5417 
Q 2384 5556 2188 5556 
Q 1988 5556 1852 5420 
Q 1716 5284 1716 5081 
Q 1716 4884 1853 4746 
Q 1991 4609 2188 4609 
Q 2384 4609 2523 4746 
Q 2663 4884 2663 5081 
z
M 2188 4044 
L 1338 1722 
L 3041 1722 
L 2188 4044 
z
M 1716 4366 
Q 1525 4494 1428 4673 
Q 1331 4853 1331 5081 
Q 1331 5441 1579 5691 
Q 1828 5941 2188 5941 
Q 2544 5941 2795 5689 
Q 3047 5438 3047 5081 
Q 3047 4863 2948 4678 
Q 2850 4494 2663 4366 
L 4325 0 
L 3669 0 
L 3244 1197 
L 1141 1197 
L 716 0 
L 50 0 
L 1716 4366 
z
" transform="scale(0.015625)"/>
      </defs>
      <use xlink:href="#DejaVuSans-77"/>
      <use xlink:href="#DejaVuSans-61" transform="translate(81.787109 0)"/>
      <use xlink:href="#DejaVuSans-76" transform="translate(143.066406 0)"/>
      <use xlink:href="#DejaVuSans-65" transform="translate(202.246094 0)"/>
      <use xlink:href="#DejaVuSans-6c" transform="translate(263.769531 0)"/>
      <use xlink:href="#DejaVuSans-65" transform="translate(291.552734 0)"/>
      <use xlink:href="#DejaVuSans-6e" transform="translate(353.076172 0)"/>
      <use xlink:href="#DejaVuSans-67" transform="translate(416.455078 0)"/>
      <use xlink:href="#DejaVuSans-74" transform="translate(479.931641 0)"/>
      <use xlink:href="#DejaVuSans-68" transform="translate(519.140625 0)"/>
      <use xlink:href="#DejaVuSans-20" transform="translate(582.519531 0)"/>
      <use xlink:href="#DejaVuSans-5b" transform="translate(614.306641 0)"/>
      <use xlink:href="#DejaVuSans-c5" transform="translate(653.320312 0)"/>
      <use xlink:href="#DejaVuSans-5d" transform="translate(721.728516 0)"/>
     </g>
    </g>
   </g>
   <g id="matplotlib.axis_4">
    <g id="ytick_8">
     <g id="line2d_24">
      <g>
       <use xlink:href="#m9e5d936114" x="489.829135" y="245.797127" style="stroke: #000000; stroke-width: 0.8"/>
      </g>
     </g>
     <g id="text_26">
      <!-- 0 -->
      <g transform="translate(476.466635 249.596346) scale(0.1 -0.1)">
       <use xlink:href="#DejaVuSans-30"/>
      </g>
     </g>
    </g>
    <g id="ytick_9">
     <g id="line2d_25">
      <g>
       <use xlink:href="#m9e5d936114" x="489.829135" y="203.767097" style="stroke: #000000; stroke-width: 0.8"/>
      </g>
     </g>
     <g id="text_27">
      <!-- 2000 -->
      <g transform="translate(457.379135 207.566315) scale(0.1 -0.1)">
       <use xlink:href="#DejaVuSans-32"/>
       <use xlink:href="#DejaVuSans-30" transform="translate(63.623047 0)"/>
       <use xlink:href="#DejaVuSans-30" transform="translate(127.246094 0)"/>
       <use xlink:href="#DejaVuSans-30" transform="translate(190.869141 0)"/>
      </g>
     </g>
    </g>
    <g id="ytick_10">
     <g id="line2d_26">
      <g>
       <use xlink:href="#m9e5d936114" x="489.829135" y="161.737066" style="stroke: #000000; stroke-width: 0.8"/>
      </g>
     </g>
     <g id="text_28">
      <!-- 4000 -->
      <g transform="translate(457.379135 165.536285) scale(0.1 -0.1)">
       <use xlink:href="#DejaVuSans-34"/>
       <use xlink:href="#DejaVuSans-30" transform="translate(63.623047 0)"/>
       <use xlink:href="#DejaVuSans-30" transform="translate(127.246094 0)"/>
       <use xlink:href="#DejaVuSans-30" transform="translate(190.869141 0)"/>
      </g>
     </g>
    </g>
    <g id="ytick_11">
     <g id="line2d_27">
      <g>
       <use xlink:href="#m9e5d936114" x="489.829135" y="119.707036" style="stroke: #000000; stroke-width: 0.8"/>
      </g>
     </g>
     <g id="text_29">
      <!-- 6000 -->
      <g transform="translate(457.379135 123.506255) scale(0.1 -0.1)">
       <defs>
        <path id="DejaVuSans-36" d="M 2113 2584 
Q 1688 2584 1439 2293 
Q 1191 2003 1191 1497 
Q 1191 994 1439 701 
Q 1688 409 2113 409 
Q 2538 409 2786 701 
Q 3034 994 3034 1497 
Q 3034 2003 2786 2293 
Q 2538 2584 2113 2584 
z
M 3366 4563 
L 3366 3988 
Q 3128 4100 2886 4159 
Q 2644 4219 2406 4219 
Q 1781 4219 1451 3797 
Q 1122 3375 1075 2522 
Q 1259 2794 1537 2939 
Q 1816 3084 2150 3084 
Q 2853 3084 3261 2657 
Q 3669 2231 3669 1497 
Q 3669 778 3244 343 
Q 2819 -91 2113 -91 
Q 1303 -91 875 529 
Q 447 1150 447 2328 
Q 447 3434 972 4092 
Q 1497 4750 2381 4750 
Q 2619 4750 2861 4703 
Q 3103 4656 3366 4563 
z
" transform="scale(0.015625)"/>
       </defs>
       <use xlink:href="#DejaVuSans-36"/>
       <use xlink:href="#DejaVuSans-30" transform="translate(63.623047 0)"/>
       <use xlink:href="#DejaVuSans-30" transform="translate(127.246094 0)"/>
       <use xlink:href="#DejaVuSans-30" transform="translate(190.869141 0)"/>
      </g>
     </g>
    </g>
    <g id="ytick_12">
     <g id="line2d_28">
      <g>
       <use xlink:href="#m9e5d936114" x="489.829135" y="77.677006" style="stroke: #000000; stroke-width: 0.8"/>
      </g>
     </g>
     <g id="text_30">
      <!-- 8000 -->
      <g transform="translate(457.379135 81.476224) scale(0.1 -0.1)">
       <defs>
        <path id="DejaVuSans-38" d="M 2034 2216 
Q 1584 2216 1326 1975 
Q 1069 1734 1069 1313 
Q 1069 891 1326 650 
Q 1584 409 2034 409 
Q 2484 409 2743 651 
Q 3003 894 3003 1313 
Q 3003 1734 2745 1975 
Q 2488 2216 2034 2216 
z
M 1403 2484 
Q 997 2584 770 2862 
Q 544 3141 544 3541 
Q 544 4100 942 4425 
Q 1341 4750 2034 4750 
Q 2731 4750 3128 4425 
Q 3525 4100 3525 3541 
Q 3525 3141 3298 2862 
Q 3072 2584 2669 2484 
Q 3125 2378 3379 2068 
Q 3634 1759 3634 1313 
Q 3634 634 3220 271 
Q 2806 -91 2034 -91 
Q 1263 -91 848 271 
Q 434 634 434 1313 
Q 434 1759 690 2068 
Q 947 2378 1403 2484 
z
M 1172 3481 
Q 1172 3119 1398 2916 
Q 1625 2713 2034 2713 
Q 2441 2713 2670 2916 
Q 2900 3119 2900 3481 
Q 2900 3844 2670 4047 
Q 2441 4250 2034 4250 
Q 1625 4250 1398 4047 
Q 1172 3844 1172 3481 
z
" transform="scale(0.015625)"/>
       </defs>
       <use xlink:href="#DejaVuSans-38"/>
       <use xlink:href="#DejaVuSans-30" transform="translate(63.623047 0)"/>
       <use xlink:href="#DejaVuSans-30" transform="translate(127.246094 0)"/>
       <use xlink:href="#DejaVuSans-30" transform="translate(190.869141 0)"/>
      </g>
     </g>
    </g>
    <g id="ytick_13">
     <g id="line2d_29">
      <g>
       <use xlink:href="#m9e5d936114" x="489.829135" y="35.646975" style="stroke: #000000; stroke-width: 0.8"/>
      </g>
     </g>
     <g id="text_31">
      <!-- 10000 -->
      <g transform="translate(451.016635 39.446194) scale(0.1 -0.1)">
       <use xlink:href="#DejaVuSans-31"/>
       <use xlink:href="#DejaVuSans-30" transform="translate(63.623047 0)"/>
       <use xlink:href="#DejaVuSans-30" transform="translate(127.246094 0)"/>
       <use xlink:href="#DejaVuSans-30" transform="translate(190.869141 0)"/>
       <use xlink:href="#DejaVuSans-30" transform="translate(254.492188 0)"/>
      </g>
     </g>
    </g>
    <g id="text_32">
     <!-- pulse:0 [counts] -->
     <g transform="translate(444.936947 172.659916) rotate(-90) scale(0.1 -0.1)">
      <use xlink:href="#DejaVuSans-70"/>
      <use xlink:href="#DejaVuSans-75" transform="translate(63.476562 0)"/>
      <use xlink:href="#DejaVuSans-6c" transform="translate(126.855469 0)"/>
      <use xlink:href="#DejaVuSans-73" transform="translate(154.638672 0)"/>
      <use xlink:href="#DejaVuSans-65" transform="translate(206.738281 0)"/>
      <use xlink:href="#DejaVuSans-3a" transform="translate(268.261719 0)"/>
      <use xlink:href="#DejaVuSans-30" transform="translate(301.953125 0)"/>
      <use xlink:href="#DejaVuSans-20" transform="translate(365.576172 0)"/>
      <use xlink:href="#DejaVuSans-5b" transform="translate(397.363281 0)"/>
      <use xlink:href="#DejaVuSans-63" transform="translate(436.376953 0)"/>
      <use xlink:href="#DejaVuSans-6f" transform="translate(491.357422 0)"/>
      <use xlink:href="#DejaVuSans-75" transform="translate(552.539062 0)"/>
      <use xlink:href="#DejaVuSans-6e" transform="translate(615.917969 0)"/>
      <use xlink:href="#DejaVuSans-74" transform="translate(679.296875 0)"/>
      <use xlink:href="#DejaVuSans-73" transform="translate(718.505859 0)"/>
      <use xlink:href="#DejaVuSans-5d" transform="translate(770.605469 0)"/>
     </g>
    </g>
   </g>
   <g id="line2d_30">
    <path d="M 506.891425 155.285457 
L 508.028911 155.285457 
L 508.028911 144.168514 
L 509.166397 144.168514 
L 509.166397 140.553931 
L 510.303883 140.553931 
L 510.303883 137.086454 
L 511.441369 137.086454 
L 511.441369 145.639565 
L 512.578855 145.639565 
L 512.578855 154.339781 
L 513.716341 154.339781 
L 513.716341 148.959937 
L 514.853827 148.959937 
L 514.853827 125.88545 
L 515.991313 125.88545 
L 515.991313 105.458856 
L 517.128799 105.458856 
L 517.128799 84.780081 
L 518.266285 84.780081 
L 518.266285 62.90345 
L 519.403771 62.90345 
L 519.403771 38.336897 
L 520.541257 38.336897 
L 520.541257 21.356765 
L 521.678743 21.356765 
L 521.678743 22.113306 
L 522.816229 22.113306 
L 522.816229 18.561768 
L 523.953715 18.561768 
L 523.953715 24.361912 
L 525.091201 24.361912 
L 525.091201 31.717167 
L 526.228687 31.717167 
L 526.228687 42.62396 
L 527.366173 42.62396 
L 527.366173 52.374927 
L 528.50366 52.374927 
L 528.50366 56.052555 
L 529.641146 56.052555 
L 529.641146 69.31303 
L 530.778632 69.31303 
L 530.778632 80.745198 
L 531.916118 80.745198 
L 531.916118 83.81339 
L 533.053604 83.81339 
L 533.053604 90.664285 
L 534.19109 90.664285 
L 534.19109 93.543342 
L 535.328576 93.543342 
L 535.328576 95.644844 
L 536.466062 95.644844 
L 536.466062 96.590519 
L 537.603548 96.590519 
L 537.603548 94.615108 
L 538.741034 94.615108 
L 538.741034 92.471576 
L 539.87852 92.471576 
L 539.87852 90.01282 
L 541.016006 90.01282 
L 541.016006 80.955348 
L 542.153492 80.955348 
L 542.153492 66.875288 
L 543.290978 66.875288 
L 543.290978 64.122321 
L 544.428464 64.122321 
L 544.428464 55.506165 
L 545.56595 55.506165 
L 545.56595 40.921744 
L 546.703436 40.921744 
L 546.703436 36.613666 
L 547.840922 36.613666 
L 547.840922 35.92017 
L 548.978408 35.92017 
L 548.978408 44.515312 
L 550.115894 44.515312 
L 550.115894 51.975642 
L 551.25338 51.975642 
L 551.25338 59.814243 
L 552.390866 59.814243 
L 552.390866 69.165924 
L 553.528352 69.165924 
L 553.528352 79.379222 
L 554.665838 79.379222 
L 554.665838 88.751919 
L 555.803324 88.751919 
L 555.803324 97.80939 
L 556.94081 97.80939 
L 556.94081 101.024688 
L 558.078296 101.024688 
L 558.078296 109.850994 
L 559.215782 109.850994 
L 559.215782 116.512754 
L 560.353268 116.512754 
L 560.353268 126.831126 
L 561.490754 126.831126 
L 561.490754 130.235559 
L 562.62824 130.235559 
L 562.62824 138.158219 
L 563.765726 138.158219 
L 563.765726 145.429415 
L 564.903212 145.429415 
L 564.903212 152.343355 
L 566.040698 152.343355 
L 566.040698 151.397679 
L 567.178184 151.397679 
L 567.178184 159.78267 
L 568.31567 159.78267 
L 568.31567 164.111763 
L 569.453156 164.111763 
L 569.453156 164.805259 
L 570.590642 164.805259 
L 570.590642 168.125631 
L 571.728128 168.125631 
L 571.728128 174.36709 
L 572.865614 174.36709 
L 572.865614 177.330208 
L 574.0031 177.330208 
L 574.0031 178.023703 
L 575.140586 178.023703 
L 575.140586 182.794112 
L 576.278072 182.794112 
L 576.278072 184.328208 
L 577.415558 184.328208 
L 577.415558 188.783391 
L 578.553044 188.783391 
L 578.553044 190.149367 
L 579.69053 190.149367 
L 579.69053 192.418989 
L 580.828016 192.418989 
L 580.828016 196.495901 
L 581.965502 196.495901 
L 581.965502 197.357517 
L 583.102988 197.357517 
L 583.102988 199.900334 
L 584.240474 199.900334 
L 584.240474 202.380106 
L 585.37796 202.380106 
L 585.37796 203.788112 
L 586.515446 203.788112 
L 586.515446 206.057733 
L 587.652932 206.057733 
L 587.652932 206.520064 
L 588.790418 206.520064 
L 588.790418 209.735361 
L 589.927904 209.735361 
L 589.927904 211.668742 
L 591.06539 211.668742 
L 591.06539 213.307914 
L 592.202876 213.307914 
L 592.202876 215.55652 
L 593.340362 215.55652 
L 593.340362 214.505769 
L 594.477848 214.505769 
L 594.477848 217.342796 
L 595.615334 217.342796 
L 595.615334 218.267457 
L 596.75282 218.267457 
L 596.75282 218.561667 
L 597.890306 218.561667 
L 597.890306 220.474034 
L 599.027792 220.474034 
L 599.027792 221.167529 
L 600.165278 221.167529 
L 600.165278 223.332076 
L 601.302764 223.332076 
L 601.302764 223.605271 
L 603.577737 223.647301 
L 603.577737 226.274178 
L 604.715223 226.274178 
L 604.715223 225.727788 
L 605.852709 225.727788 
L 605.852709 225.307487 
L 606.990195 225.307487 
L 606.990195 227.619139 
L 608.127681 227.619139 
L 608.127681 227.997409 
L 609.265167 227.997409 
L 609.265167 229.279325 
L 610.402653 229.279325 
L 610.402653 230.182971 
L 611.540139 230.182971 
L 611.540139 229.951806 
L 612.677625 229.951806 
L 612.677625 231.212707 
L 613.815111 231.212707 
L 613.815111 232.242442 
L 614.952597 232.242442 
L 614.952597 232.032292 
L 616.090083 232.032292 
L 616.090083 232.326502 
L 617.227569 232.326502 
L 617.227569 233.209133 
L 618.365055 233.209133 
L 618.365055 232.830863 
L 620.640027 232.914923 
L 620.640027 234.091764 
L 621.777513 234.091764 
L 621.777513 234.680184 
L 622.914999 234.680184 
L 622.914999 234.890334 
L 624.052485 234.890334 
L 624.052485 235.520785 
L 625.189971 235.520785 
L 625.189971 236.025145 
L 626.327457 236.025145 
L 626.327457 236.277325 
L 627.464943 236.277325 
L 627.464943 236.739656 
L 628.602429 236.739656 
L 628.602429 235.83601 
L 629.739915 235.83601 
L 629.739915 237.138941 
L 630.877401 237.138941 
L 630.877401 237.349091 
L 632.014887 237.349091 
L 632.014887 237.096911 
L 633.152373 237.096911 
L 633.152373 238.462887 
L 635.427345 238.441872 
L 635.427345 238.231722 
L 636.564831 238.231722 
L 636.564831 238.757097 
L 637.702317 238.757097 
L 637.702317 239.387547 
L 639.977289 239.282472 
L 639.977289 239.849878 
L 641.114775 239.849878 
L 641.114775 239.618713 
L 642.252261 239.618713 
L 642.252261 238.988262 
L 643.389747 238.988262 
L 643.389747 240.186118 
L 644.527233 240.186118 
L 644.527233 240.669463 
L 645.664719 240.669463 
L 645.664719 240.795553 
L 647.939691 240.774538 
L 647.939691 240.606418 
L 649.077177 240.606418 
L 649.077177 240.879613 
L 650.214663 240.879613 
L 650.214663 241.068749 
L 651.352149 241.068749 
L 651.352149 240.900629 
L 653.627121 240.879613 
L 653.627121 241.678184 
L 657.039579 241.573109 
L 657.039579 241.825289 
L 659.314551 241.825289 
L 659.314551 242.014424 
L 661.589523 241.909349 
L 661.589523 242.224574 
L 662.727009 242.224574 
L 662.727009 241.993409 
L 663.864495 241.993409 
L 663.864495 242.41371 
L 665.001981 242.41371 
L 665.001981 242.098484 
L 667.276953 242.161529 
L 667.276953 242.644875 
L 668.414439 242.644875 
L 668.414439 242.812995 
L 670.689411 242.855025 
L 670.689411 243.25431 
L 671.826897 243.25431 
L 671.826897 242.644875 
L 672.964383 242.644875 
L 672.964383 242.855025 
L 674.101869 242.855025 
L 674.101869 243.065175 
L 675.239355 243.065175 
L 675.239355 242.897055 
L 676.376841 242.897055 
L 676.376841 243.54852 
L 677.514327 243.54852 
L 677.514327 243.29634 
L 678.651814 243.29634 
L 678.651814 243.50649 
L 679.7893 243.50649 
L 679.7893 243.758671 
L 682.064272 243.695626 
L 682.064272 243.63258 
L 684.339244 243.695626 
L 684.339244 243.884761 
L 686.614216 243.779686 
L 686.614216 244.073896 
L 687.751702 244.073896 
L 687.751702 243.737656 
L 688.889188 243.737656 
L 688.889188 243.926791 
L 690.026674 243.926791 
L 690.026674 243.716641 
L 691.16416 243.716641 
L 691.16416 243.968821 
L 692.301646 243.968821 
L 692.301646 243.63258 
L 693.439132 243.63258 
L 693.439132 244.031866 
L 695.714104 244.031866 
L 695.714104 244.157956 
L 697.989076 244.263031 
L 697.989076 244.326076 
L 699.126562 244.326076 
L 699.126562 243.968821 
L 700.264048 243.968821 
L 700.264048 244.136941 
L 701.401534 244.136941 
L 701.401534 244.494196 
L 702.53902 244.494196 
L 702.53902 244.767391 
L 703.676506 244.767391 
L 703.676506 244.431151 
L 704.813992 244.431151 
L 704.813992 244.242016 
L 707.088964 244.305061 
L 707.088964 244.368106 
L 711.638908 244.347091 
L 711.638908 244.557241 
L 712.776394 244.557241 
L 712.776394 244.830436 
L 713.91388 244.830436 
L 713.91388 244.536226 
L 715.051366 244.536226 
L 715.051366 244.746376 
L 718.463824 244.809421 
L 718.463824 244.578256 
L 719.60131 244.578256 
L 719.60131 244.893481 
L 721.876282 244.872466 
L 721.876282 244.662316 
L 723.013768 244.662316 
L 723.013768 245.061602 
L 724.151254 245.061602 
L 724.151254 244.935511 
L 725.28874 244.935511 
L 725.28874 245.103632 
L 727.563712 245.103632 
L 727.563712 244.746376 
L 728.701198 244.746376 
L 728.701198 245.145662 
L 730.97617 245.040586 
L 730.97617 245.271752 
L 732.113656 245.271752 
L 732.113656 244.914496 
L 733.251142 244.914496 
L 733.251142 244.683331 
L 734.388628 244.683331 
L 734.388628 244.956526 
L 737.801086 244.893481 
L 737.801086 245.124647 
L 740.076058 245.166677 
L 740.076058 245.250737 
L 741.213544 245.250737 
L 741.213544 244.935511 
L 743.488516 245.019571 
L 743.488516 245.292767 
L 744.626002 245.292767 
L 744.626002 245.124647 
L 751.450918 245.208707 
L 751.450918 245.313782 
L 753.725891 245.376827 
L 753.725891 245.166677 
L 756.000863 245.229722 
L 756.000863 245.313782 
L 757.138349 245.313782 
L 757.138349 245.166677 
L 758.275835 245.166677 
L 758.275835 245.292767 
L 760.550807 245.250737 
L 760.550807 245.418857 
L 776.475611 245.502917 
L 776.475611 245.607992 
L 777.613097 245.607992 
L 777.613097 245.481902 
L 782.163041 245.502917 
L 782.163041 245.355812 
L 783.300527 245.355812 
L 783.300527 245.502917 
L 792.400415 245.565962 
L 792.400415 245.650022 
L 802.637789 245.629007 
L 802.637789 245.502917 
L 804.912761 245.586977 
L 804.912761 245.650022 
L 818.562593 245.692052 
L 818.562593 245.460887 
L 819.700079 245.460887 
L 819.700079 245.692052 
L 820.837565 245.692052 
L 820.837565 245.565962 
L 827.662482 245.629007 
L 827.662482 245.692052 
L 848.13723 245.671037 
L 848.13723 245.671037 
" clip-path="url(#p3caf9a5c99)" style="fill: none; stroke: #1f77b4; stroke-width: 1.5; stroke-linecap: square"/>
   </g>
   <g id="patch_8">
    <path d="M 489.829135 257.158895 
L 489.829135 7.2 
" style="fill: none; stroke: #000000; stroke-width: 0.8; stroke-linejoin: miter; stroke-linecap: square"/>
   </g>
   <g id="patch_9">
    <path d="M 865.19952 257.158895 
L 865.19952 7.2 
" style="fill: none; stroke: #000000; stroke-width: 0.8; stroke-linejoin: miter; stroke-linecap: square"/>
   </g>
   <g id="patch_10">
    <path d="M 489.829135 257.158895 
L 865.19952 257.158895 
" style="fill: none; stroke: #000000; stroke-width: 0.8; stroke-linejoin: miter; stroke-linecap: square"/>
   </g>
   <g id="patch_11">
    <path d="M 489.829135 7.2 
L 865.19952 7.2 
" style="fill: none; stroke: #000000; stroke-width: 0.8; stroke-linejoin: miter; stroke-linecap: square"/>
   </g>
  </g>
 </g>
 <defs>
  <clipPath id="p8eaba360b0">
   <rect x="53.328125" y="7.2" width="375.370385" height="249.958895"/>
  </clipPath>
  <clipPath id="p3caf9a5c99">
   <rect x="489.829135" y="7.2" width="375.370385" height="249.958895"/>
  </clipPath>
 </defs>
</svg>
