<?xml version="1.0" encoding="utf-8" standalone="no"?>
<!DOCTYPE svg PUBLIC "-//W3C//DTD SVG 1.1//EN"
  "http://www.w3.org/Graphics/SVG/1.1/DTD/svg11.dtd">
<svg xmlns:xlink="http://www.w3.org/1999/xlink" width="388.965625pt" height="268.200625pt" viewBox="0 0 388.965625 268.200625" xmlns="http://www.w3.org/2000/svg" version="1.1">
 <metadata>
  <rdf:RDF xmlns:dc="http://purl.org/dc/elements/1.1/" xmlns:cc="http://creativecommons.org/ns#" xmlns:rdf="http://www.w3.org/1999/02/22-rdf-syntax-ns#">
   <cc:Work>
    <dc:type rdf:resource="http://purl.org/dc/dcmitype/StillImage"/>
    <dc:date>2025-10-02T14:01:08.473184</dc:date>
    <dc:format>image/svg+xml</dc:format>
    <dc:creator>
     <cc:Agent>
      <dc:title>Matplotlib v3.10.1, https://matplotlib.org/</dc:title>
     </cc:Agent>
    </dc:creator>
   </cc:Work>
  </rdf:RDF>
 </metadata>
 <defs>
  <style type="text/css">*{stroke-linejoin: round; stroke-linecap: butt}</style>
 </defs>
 <g id="figure_1">
  <g id="patch_1">
   <path d="M 0 268.200625 
L 388.965625 268.200625 
L 388.965625 0 
L 0 0 
z
" style="fill: #ffffff"/>
  </g>
  <g id="axes_1">
   <g id="patch_2">
    <path d="M 46.965625 228.96 
L 381.765625 228.96 
L 381.765625 7.2 
L 46.965625 7.2 
z
" style="fill: #ffffff"/>
   </g>
   <g id="matplotlib.axis_1">
    <g id="xtick_1">
     <g id="line2d_1">
      <defs>
       <path id="m97dc1a3deb" d="M 0 0 
L 0 3.5 
" style="stroke: #000000; stroke-width: 0.8"/>
      </defs>
      <g>
       <use xlink:href="#m97dc1a3deb" x="61.737908" y="228.96" style="stroke: #000000; stroke-width: 0.8"/>
      </g>
     </g>
     <g id="text_1">
      <!-- 2 -->
      <g transform="translate(58.556658 243.558437) scale(0.1 -0.1)">
       <defs>
        <path id="DejaVuSans-32" d="M 1228 531 
L 3431 531 
L 3431 0 
L 469 0 
L 469 531 
Q 828 903 1448 1529 
Q 2069 2156 2228 2338 
Q 2531 2678 2651 2914 
Q 2772 3150 2772 3378 
Q 2772 3750 2511 3984 
Q 2250 4219 1831 4219 
Q 1534 4219 1204 4116 
Q 875 4013 500 3803 
L 500 4441 
Q 881 4594 1212 4672 
Q 1544 4750 1819 4750 
Q 2544 4750 2975 4387 
Q 3406 4025 3406 3419 
Q 3406 3131 3298 2873 
Q 3191 2616 2906 2266 
Q 2828 2175 2409 1742 
Q 1991 1309 1228 531 
z
" transform="scale(0.015625)"/>
       </defs>
       <use xlink:href="#DejaVuSans-32"/>
      </g>
     </g>
    </g>
    <g id="xtick_2">
     <g id="line2d_2">
      <g>
       <use xlink:href="#m97dc1a3deb" x="102.466772" y="228.96" style="stroke: #000000; stroke-width: 0.8"/>
      </g>
     </g>
     <g id="text_2">
      <!-- 3 -->
      <g transform="translate(99.285522 243.558437) scale(0.1 -0.1)">
       <defs>
        <path id="DejaVuSans-33" d="M 2597 2516 
Q 3050 2419 3304 2112 
Q 3559 1806 3559 1356 
Q 3559 666 3084 287 
Q 2609 -91 1734 -91 
Q 1441 -91 1130 -33 
Q 819 25 488 141 
L 488 750 
Q 750 597 1062 519 
Q 1375 441 1716 441 
Q 2309 441 2620 675 
Q 2931 909 2931 1356 
Q 2931 1769 2642 2001 
Q 2353 2234 1838 2234 
L 1294 2234 
L 1294 2753 
L 1863 2753 
Q 2328 2753 2575 2939 
Q 2822 3125 2822 3475 
Q 2822 3834 2567 4026 
Q 2313 4219 1838 4219 
Q 1578 4219 1281 4162 
Q 984 4106 628 3988 
L 628 4550 
Q 988 4650 1302 4700 
Q 1616 4750 1894 4750 
Q 2613 4750 3031 4423 
Q 3450 4097 3450 3541 
Q 3450 3153 3228 2886 
Q 3006 2619 2597 2516 
z
" transform="scale(0.015625)"/>
       </defs>
       <use xlink:href="#DejaVuSans-33"/>
      </g>
     </g>
    </g>
    <g id="xtick_3">
     <g id="line2d_3">
      <g>
       <use xlink:href="#m97dc1a3deb" x="143.195636" y="228.96" style="stroke: #000000; stroke-width: 0.8"/>
      </g>
     </g>
     <g id="text_3">
      <!-- 4 -->
      <g transform="translate(140.014386 243.558437) scale(0.1 -0.1)">
       <defs>
        <path id="DejaVuSans-34" d="M 2419 4116 
L 825 1625 
L 2419 1625 
L 2419 4116 
z
M 2253 4666 
L 3047 4666 
L 3047 1625 
L 3713 1625 
L 3713 1100 
L 3047 1100 
L 3047 0 
L 2419 0 
L 2419 1100 
L 313 1100 
L 313 1709 
L 2253 4666 
z
" transform="scale(0.015625)"/>
       </defs>
       <use xlink:href="#DejaVuSans-34"/>
      </g>
     </g>
    </g>
    <g id="xtick_4">
     <g id="line2d_4">
      <g>
       <use xlink:href="#m97dc1a3deb" x="183.9245" y="228.96" style="stroke: #000000; stroke-width: 0.8"/>
      </g>
     </g>
     <g id="text_4">
      <!-- 5 -->
      <g transform="translate(180.74325 243.558437) scale(0.1 -0.1)">
       <defs>
        <path id="DejaVuSans-35" d="M 691 4666 
L 3169 4666 
L 3169 4134 
L 1269 4134 
L 1269 2991 
Q 1406 3038 1543 3061 
Q 1681 3084 1819 3084 
Q 2600 3084 3056 2656 
Q 3513 2228 3513 1497 
Q 3513 744 3044 326 
Q 2575 -91 1722 -91 
Q 1428 -91 1123 -41 
Q 819 9 494 109 
L 494 744 
Q 775 591 1075 516 
Q 1375 441 1709 441 
Q 2250 441 2565 725 
Q 2881 1009 2881 1497 
Q 2881 1984 2565 2268 
Q 2250 2553 1709 2553 
Q 1456 2553 1204 2497 
Q 953 2441 691 2322 
L 691 4666 
z
" transform="scale(0.015625)"/>
       </defs>
       <use xlink:href="#DejaVuSans-35"/>
      </g>
     </g>
    </g>
    <g id="xtick_5">
     <g id="line2d_5">
      <g>
       <use xlink:href="#m97dc1a3deb" x="224.653364" y="228.96" style="stroke: #000000; stroke-width: 0.8"/>
      </g>
     </g>
     <g id="text_5">
      <!-- 6 -->
      <g transform="translate(221.472114 243.558437) scale(0.1 -0.1)">
       <defs>
        <path id="DejaVuSans-36" d="M 2113 2584 
Q 1688 2584 1439 2293 
Q 1191 2003 1191 1497 
Q 1191 994 1439 701 
Q 1688 409 2113 409 
Q 2538 409 2786 701 
Q 3034 994 3034 1497 
Q 3034 2003 2786 2293 
Q 2538 2584 2113 2584 
z
M 3366 4563 
L 3366 3988 
Q 3128 4100 2886 4159 
Q 2644 4219 2406 4219 
Q 1781 4219 1451 3797 
Q 1122 3375 1075 2522 
Q 1259 2794 1537 2939 
Q 1816 3084 2150 3084 
Q 2853 3084 3261 2657 
Q 3669 2231 3669 1497 
Q 3669 778 3244 343 
Q 2819 -91 2113 -91 
Q 1303 -91 875 529 
Q 447 1150 447 2328 
Q 447 3434 972 4092 
Q 1497 4750 2381 4750 
Q 2619 4750 2861 4703 
Q 3103 4656 3366 4563 
z
" transform="scale(0.015625)"/>
       </defs>
       <use xlink:href="#DejaVuSans-36"/>
      </g>
     </g>
    </g>
    <g id="xtick_6">
     <g id="line2d_6">
      <g>
       <use xlink:href="#m97dc1a3deb" x="265.382228" y="228.96" style="stroke: #000000; stroke-width: 0.8"/>
      </g>
     </g>
     <g id="text_6">
      <!-- 7 -->
      <g transform="translate(262.200978 243.558437) scale(0.1 -0.1)">
       <defs>
        <path id="DejaVuSans-37" d="M 525 4666 
L 3525 4666 
L 3525 4397 
L 1831 0 
L 1172 0 
L 2766 4134 
L 525 4134 
L 525 4666 
z
" transform="scale(0.015625)"/>
       </defs>
       <use xlink:href="#DejaVuSans-37"/>
      </g>
     </g>
    </g>
    <g id="xtick_7">
     <g id="line2d_7">
      <g>
       <use xlink:href="#m97dc1a3deb" x="306.111092" y="228.96" style="stroke: #000000; stroke-width: 0.8"/>
      </g>
     </g>
     <g id="text_7">
      <!-- 8 -->
      <g transform="translate(302.929842 243.558437) scale(0.1 -0.1)">
       <defs>
        <path id="DejaVuSans-38" d="M 2034 2216 
Q 1584 2216 1326 1975 
Q 1069 1734 1069 1313 
Q 1069 891 1326 650 
Q 1584 409 2034 409 
Q 2484 409 2743 651 
Q 3003 894 3003 1313 
Q 3003 1734 2745 1975 
Q 2488 2216 2034 2216 
z
M 1403 2484 
Q 997 2584 770 2862 
Q 544 3141 544 3541 
Q 544 4100 942 4425 
Q 1341 4750 2034 4750 
Q 2731 4750 3128 4425 
Q 3525 4100 3525 3541 
Q 3525 3141 3298 2862 
Q 3072 2584 2669 2484 
Q 3125 2378 3379 2068 
Q 3634 1759 3634 1313 
Q 3634 634 3220 271 
Q 2806 -91 2034 -91 
Q 1263 -91 848 271 
Q 434 634 434 1313 
Q 434 1759 690 2068 
Q 947 2378 1403 2484 
z
M 1172 3481 
Q 1172 3119 1398 2916 
Q 1625 2713 2034 2713 
Q 2441 2713 2670 2916 
Q 2900 3119 2900 3481 
Q 2900 3844 2670 4047 
Q 2441 4250 2034 4250 
Q 1625 4250 1398 4047 
Q 1172 3844 1172 3481 
z
" transform="scale(0.015625)"/>
       </defs>
       <use xlink:href="#DejaVuSans-38"/>
      </g>
     </g>
    </g>
    <g id="xtick_8">
     <g id="line2d_8">
      <g>
       <use xlink:href="#m97dc1a3deb" x="346.839956" y="228.96" style="stroke: #000000; stroke-width: 0.8"/>
      </g>
     </g>
     <g id="text_8">
      <!-- 9 -->
      <g transform="translate(343.658706 243.558437) scale(0.1 -0.1)">
       <defs>
        <path id="DejaVuSans-39" d="M 703 97 
L 703 672 
Q 941 559 1184 500 
Q 1428 441 1663 441 
Q 2288 441 2617 861 
Q 2947 1281 2994 2138 
Q 2813 1869 2534 1725 
Q 2256 1581 1919 1581 
Q 1219 1581 811 2004 
Q 403 2428 403 3163 
Q 403 3881 828 4315 
Q 1253 4750 1959 4750 
Q 2769 4750 3195 4129 
Q 3622 3509 3622 2328 
Q 3622 1225 3098 567 
Q 2575 -91 1691 -91 
Q 1453 -91 1209 -44 
Q 966 3 703 97 
z
M 1959 2075 
Q 2384 2075 2632 2365 
Q 2881 2656 2881 3163 
Q 2881 3666 2632 3958 
Q 2384 4250 1959 4250 
Q 1534 4250 1286 3958 
Q 1038 3666 1038 3163 
Q 1038 2656 1286 2365 
Q 1534 2075 1959 2075 
z
" transform="scale(0.015625)"/>
       </defs>
       <use xlink:href="#DejaVuSans-39"/>
      </g>
     </g>
    </g>
    <g id="text_9">
     <!-- wavelength [Å] -->
     <g transform="translate(176.328125 258.920937) scale(0.1 -0.1)">
      <defs>
       <path id="DejaVuSans-77" d="M 269 3500 
L 844 3500 
L 1563 769 
L 2278 3500 
L 2956 3500 
L 3675 769 
L 4391 3500 
L 4966 3500 
L 4050 0 
L 3372 0 
L 2619 2869 
L 1863 0 
L 1184 0 
L 269 3500 
z
" transform="scale(0.015625)"/>
       <path id="DejaVuSans-61" d="M 2194 1759 
Q 1497 1759 1228 1600 
Q 959 1441 959 1056 
Q 959 750 1161 570 
Q 1363 391 1709 391 
Q 2188 391 2477 730 
Q 2766 1069 2766 1631 
L 2766 1759 
L 2194 1759 
z
M 3341 1997 
L 3341 0 
L 2766 0 
L 2766 531 
Q 2569 213 2275 61 
Q 1981 -91 1556 -91 
Q 1019 -91 701 211 
Q 384 513 384 1019 
Q 384 1609 779 1909 
Q 1175 2209 1959 2209 
L 2766 2209 
L 2766 2266 
Q 2766 2663 2505 2880 
Q 2244 3097 1772 3097 
Q 1472 3097 1187 3025 
Q 903 2953 641 2809 
L 641 3341 
Q 956 3463 1253 3523 
Q 1550 3584 1831 3584 
Q 2591 3584 2966 3190 
Q 3341 2797 3341 1997 
z
" transform="scale(0.015625)"/>
       <path id="DejaVuSans-76" d="M 191 3500 
L 800 3500 
L 1894 563 
L 2988 3500 
L 3597 3500 
L 2284 0 
L 1503 0 
L 191 3500 
z
" transform="scale(0.015625)"/>
       <path id="DejaVuSans-65" d="M 3597 1894 
L 3597 1613 
L 953 1613 
Q 991 1019 1311 708 
Q 1631 397 2203 397 
Q 2534 397 2845 478 
Q 3156 559 3463 722 
L 3463 178 
Q 3153 47 2828 -22 
Q 2503 -91 2169 -91 
Q 1331 -91 842 396 
Q 353 884 353 1716 
Q 353 2575 817 3079 
Q 1281 3584 2069 3584 
Q 2775 3584 3186 3129 
Q 3597 2675 3597 1894 
z
M 3022 2063 
Q 3016 2534 2758 2815 
Q 2500 3097 2075 3097 
Q 1594 3097 1305 2825 
Q 1016 2553 972 2059 
L 3022 2063 
z
" transform="scale(0.015625)"/>
       <path id="DejaVuSans-6c" d="M 603 4863 
L 1178 4863 
L 1178 0 
L 603 0 
L 603 4863 
z
" transform="scale(0.015625)"/>
       <path id="DejaVuSans-6e" d="M 3513 2113 
L 3513 0 
L 2938 0 
L 2938 2094 
Q 2938 2591 2744 2837 
Q 2550 3084 2163 3084 
Q 1697 3084 1428 2787 
Q 1159 2491 1159 1978 
L 1159 0 
L 581 0 
L 581 3500 
L 1159 3500 
L 1159 2956 
Q 1366 3272 1645 3428 
Q 1925 3584 2291 3584 
Q 2894 3584 3203 3211 
Q 3513 2838 3513 2113 
z
" transform="scale(0.015625)"/>
       <path id="DejaVuSans-67" d="M 2906 1791 
Q 2906 2416 2648 2759 
Q 2391 3103 1925 3103 
Q 1463 3103 1205 2759 
Q 947 2416 947 1791 
Q 947 1169 1205 825 
Q 1463 481 1925 481 
Q 2391 481 2648 825 
Q 2906 1169 2906 1791 
z
M 3481 434 
Q 3481 -459 3084 -895 
Q 2688 -1331 1869 -1331 
Q 1566 -1331 1297 -1286 
Q 1028 -1241 775 -1147 
L 775 -588 
Q 1028 -725 1275 -790 
Q 1522 -856 1778 -856 
Q 2344 -856 2625 -561 
Q 2906 -266 2906 331 
L 2906 616 
Q 2728 306 2450 153 
Q 2172 0 1784 0 
Q 1141 0 747 490 
Q 353 981 353 1791 
Q 353 2603 747 3093 
Q 1141 3584 1784 3584 
Q 2172 3584 2450 3431 
Q 2728 3278 2906 2969 
L 2906 3500 
L 3481 3500 
L 3481 434 
z
" transform="scale(0.015625)"/>
       <path id="DejaVuSans-74" d="M 1172 4494 
L 1172 3500 
L 2356 3500 
L 2356 3053 
L 1172 3053 
L 1172 1153 
Q 1172 725 1289 603 
Q 1406 481 1766 481 
L 2356 481 
L 2356 0 
L 1766 0 
Q 1100 0 847 248 
Q 594 497 594 1153 
L 594 3053 
L 172 3053 
L 172 3500 
L 594 3500 
L 594 4494 
L 1172 4494 
z
" transform="scale(0.015625)"/>
       <path id="DejaVuSans-68" d="M 3513 2113 
L 3513 0 
L 2938 0 
L 2938 2094 
Q 2938 2591 2744 2837 
Q 2550 3084 2163 3084 
Q 1697 3084 1428 2787 
Q 1159 2491 1159 1978 
L 1159 0 
L 581 0 
L 581 4863 
L 1159 4863 
L 1159 2956 
Q 1366 3272 1645 3428 
Q 1925 3584 2291 3584 
Q 2894 3584 3203 3211 
Q 3513 2838 3513 2113 
z
" transform="scale(0.015625)"/>
       <path id="DejaVuSans-20" transform="scale(0.015625)"/>
       <path id="DejaVuSans-5b" d="M 550 4863 
L 1875 4863 
L 1875 4416 
L 1125 4416 
L 1125 -397 
L 1875 -397 
L 1875 -844 
L 550 -844 
L 550 4863 
z
" transform="scale(0.015625)"/>
       <path id="DejaVuSans-c5" d="M 2663 5081 
Q 2663 5278 2523 5417 
Q 2384 5556 2188 5556 
Q 1988 5556 1852 5420 
Q 1716 5284 1716 5081 
Q 1716 4884 1853 4746 
Q 1991 4609 2188 4609 
Q 2384 4609 2523 4746 
Q 2663 4884 2663 5081 
z
M 2188 4044 
L 1338 1722 
L 3041 1722 
L 2188 4044 
z
M 1716 4366 
Q 1525 4494 1428 4673 
Q 1331 4853 1331 5081 
Q 1331 5441 1579 5691 
Q 1828 5941 2188 5941 
Q 2544 5941 2795 5689 
Q 3047 5438 3047 5081 
Q 3047 4863 2948 4678 
Q 2850 4494 2663 4366 
L 4325 0 
L 3669 0 
L 3244 1197 
L 1141 1197 
L 716 0 
L 50 0 
L 1716 4366 
z
" transform="scale(0.015625)"/>
       <path id="DejaVuSans-5d" d="M 1947 4863 
L 1947 -844 
L 622 -844 
L 622 -397 
L 1369 -397 
L 1369 4416 
L 622 4416 
L 622 4863 
L 1947 4863 
z
" transform="scale(0.015625)"/>
      </defs>
      <use xlink:href="#DejaVuSans-77"/>
      <use xlink:href="#DejaVuSans-61" transform="translate(81.787109 0)"/>
      <use xlink:href="#DejaVuSans-76" transform="translate(143.066406 0)"/>
      <use xlink:href="#DejaVuSans-65" transform="translate(202.246094 0)"/>
      <use xlink:href="#DejaVuSans-6c" transform="translate(263.769531 0)"/>
      <use xlink:href="#DejaVuSans-65" transform="translate(291.552734 0)"/>
      <use xlink:href="#DejaVuSans-6e" transform="translate(353.076172 0)"/>
      <use xlink:href="#DejaVuSans-67" transform="translate(416.455078 0)"/>
      <use xlink:href="#DejaVuSans-74" transform="translate(479.931641 0)"/>
      <use xlink:href="#DejaVuSans-68" transform="translate(519.140625 0)"/>
      <use xlink:href="#DejaVuSans-20" transform="translate(582.519531 0)"/>
      <use xlink:href="#DejaVuSans-5b" transform="translate(614.306641 0)"/>
      <use xlink:href="#DejaVuSans-c5" transform="translate(653.320312 0)"/>
      <use xlink:href="#DejaVuSans-5d" transform="translate(721.728516 0)"/>
     </g>
    </g>
   </g>
   <g id="matplotlib.axis_2">
    <g id="ytick_1">
     <g id="line2d_9">
      <defs>
       <path id="mf1b6ec1ad4" d="M 0 0 
L -3.5 0 
" style="stroke: #000000; stroke-width: 0.8"/>
      </defs>
      <g>
       <use xlink:href="#mf1b6ec1ad4" x="46.965625" y="218.88" style="stroke: #000000; stroke-width: 0.8"/>
      </g>
     </g>
     <g id="text_10">
      <!-- 0 -->
      <g transform="translate(33.603125 222.679219) scale(0.1 -0.1)">
       <defs>
        <path id="DejaVuSans-30" d="M 2034 4250 
Q 1547 4250 1301 3770 
Q 1056 3291 1056 2328 
Q 1056 1369 1301 889 
Q 1547 409 2034 409 
Q 2525 409 2770 889 
Q 3016 1369 3016 2328 
Q 3016 3291 2770 3770 
Q 2525 4250 2034 4250 
z
M 2034 4750 
Q 2819 4750 3233 4129 
Q 3647 3509 3647 2328 
Q 3647 1150 3233 529 
Q 2819 -91 2034 -91 
Q 1250 -91 836 529 
Q 422 1150 422 2328 
Q 422 3509 836 4129 
Q 1250 4750 2034 4750 
z
" transform="scale(0.015625)"/>
       </defs>
       <use xlink:href="#DejaVuSans-30"/>
      </g>
     </g>
    </g>
    <g id="ytick_2">
     <g id="line2d_10">
      <g>
       <use xlink:href="#mf1b6ec1ad4" x="46.965625" y="182.555676" style="stroke: #000000; stroke-width: 0.8"/>
      </g>
     </g>
     <g id="text_11">
      <!-- 100 -->
      <g transform="translate(20.878125 186.354894) scale(0.1 -0.1)">
       <defs>
        <path id="DejaVuSans-31" d="M 794 531 
L 1825 531 
L 1825 4091 
L 703 3866 
L 703 4441 
L 1819 4666 
L 2450 4666 
L 2450 531 
L 3481 531 
L 3481 0 
L 794 0 
L 794 531 
z
" transform="scale(0.015625)"/>
       </defs>
       <use xlink:href="#DejaVuSans-31"/>
       <use xlink:href="#DejaVuSans-30" transform="translate(63.623047 0)"/>
       <use xlink:href="#DejaVuSans-30" transform="translate(127.246094 0)"/>
      </g>
     </g>
    </g>
    <g id="ytick_3">
     <g id="line2d_11">
      <g>
       <use xlink:href="#mf1b6ec1ad4" x="46.965625" y="146.231351" style="stroke: #000000; stroke-width: 0.8"/>
      </g>
     </g>
     <g id="text_12">
      <!-- 200 -->
      <g transform="translate(20.878125 150.03057) scale(0.1 -0.1)">
       <use xlink:href="#DejaVuSans-32"/>
       <use xlink:href="#DejaVuSans-30" transform="translate(63.623047 0)"/>
       <use xlink:href="#DejaVuSans-30" transform="translate(127.246094 0)"/>
      </g>
     </g>
    </g>
    <g id="ytick_4">
     <g id="line2d_12">
      <g>
       <use xlink:href="#mf1b6ec1ad4" x="46.965625" y="109.907027" style="stroke: #000000; stroke-width: 0.8"/>
      </g>
     </g>
     <g id="text_13">
      <!-- 300 -->
      <g transform="translate(20.878125 113.706246) scale(0.1 -0.1)">
       <use xlink:href="#DejaVuSans-33"/>
       <use xlink:href="#DejaVuSans-30" transform="translate(63.623047 0)"/>
       <use xlink:href="#DejaVuSans-30" transform="translate(127.246094 0)"/>
      </g>
     </g>
    </g>
    <g id="ytick_5">
     <g id="line2d_13">
      <g>
       <use xlink:href="#mf1b6ec1ad4" x="46.965625" y="73.582703" style="stroke: #000000; stroke-width: 0.8"/>
      </g>
     </g>
     <g id="text_14">
      <!-- 400 -->
      <g transform="translate(20.878125 77.381921) scale(0.1 -0.1)">
       <use xlink:href="#DejaVuSans-34"/>
       <use xlink:href="#DejaVuSans-30" transform="translate(63.623047 0)"/>
       <use xlink:href="#DejaVuSans-30" transform="translate(127.246094 0)"/>
      </g>
     </g>
    </g>
    <g id="ytick_6">
     <g id="line2d_14">
      <g>
       <use xlink:href="#mf1b6ec1ad4" x="46.965625" y="37.258378" style="stroke: #000000; stroke-width: 0.8"/>
      </g>
     </g>
     <g id="text_15">
      <!-- 500 -->
      <g transform="translate(20.878125 41.057597) scale(0.1 -0.1)">
       <use xlink:href="#DejaVuSans-35"/>
       <use xlink:href="#DejaVuSans-30" transform="translate(63.623047 0)"/>
       <use xlink:href="#DejaVuSans-30" transform="translate(127.246094 0)"/>
      </g>
     </g>
    </g>
    <g id="text_16">
     <!-- [counts] -->
     <g transform="translate(14.798438 138.6925) rotate(-90) scale(0.1 -0.1)">
      <defs>
       <path id="DejaVuSans-63" d="M 3122 3366 
L 3122 2828 
Q 2878 2963 2633 3030 
Q 2388 3097 2138 3097 
Q 1578 3097 1268 2742 
Q 959 2388 959 1747 
Q 959 1106 1268 751 
Q 1578 397 2138 397 
Q 2388 397 2633 464 
Q 2878 531 3122 666 
L 3122 134 
Q 2881 22 2623 -34 
Q 2366 -91 2075 -91 
Q 1284 -91 818 406 
Q 353 903 353 1747 
Q 353 2603 823 3093 
Q 1294 3584 2113 3584 
Q 2378 3584 2631 3529 
Q 2884 3475 3122 3366 
z
" transform="scale(0.015625)"/>
       <path id="DejaVuSans-6f" d="M 1959 3097 
Q 1497 3097 1228 2736 
Q 959 2375 959 1747 
Q 959 1119 1226 758 
Q 1494 397 1959 397 
Q 2419 397 2687 759 
Q 2956 1122 2956 1747 
Q 2956 2369 2687 2733 
Q 2419 3097 1959 3097 
z
M 1959 3584 
Q 2709 3584 3137 3096 
Q 3566 2609 3566 1747 
Q 3566 888 3137 398 
Q 2709 -91 1959 -91 
Q 1206 -91 779 398 
Q 353 888 353 1747 
Q 353 2609 779 3096 
Q 1206 3584 1959 3584 
z
" transform="scale(0.015625)"/>
       <path id="DejaVuSans-75" d="M 544 1381 
L 544 3500 
L 1119 3500 
L 1119 1403 
Q 1119 906 1312 657 
Q 1506 409 1894 409 
Q 2359 409 2629 706 
Q 2900 1003 2900 1516 
L 2900 3500 
L 3475 3500 
L 3475 0 
L 2900 0 
L 2900 538 
Q 2691 219 2414 64 
Q 2138 -91 1772 -91 
Q 1169 -91 856 284 
Q 544 659 544 1381 
z
M 1991 3584 
L 1991 3584 
z
" transform="scale(0.015625)"/>
       <path id="DejaVuSans-73" d="M 2834 3397 
L 2834 2853 
Q 2591 2978 2328 3040 
Q 2066 3103 1784 3103 
Q 1356 3103 1142 2972 
Q 928 2841 928 2578 
Q 928 2378 1081 2264 
Q 1234 2150 1697 2047 
L 1894 2003 
Q 2506 1872 2764 1633 
Q 3022 1394 3022 966 
Q 3022 478 2636 193 
Q 2250 -91 1575 -91 
Q 1294 -91 989 -36 
Q 684 19 347 128 
L 347 722 
Q 666 556 975 473 
Q 1284 391 1588 391 
Q 1994 391 2212 530 
Q 2431 669 2431 922 
Q 2431 1156 2273 1281 
Q 2116 1406 1581 1522 
L 1381 1569 
Q 847 1681 609 1914 
Q 372 2147 372 2553 
Q 372 3047 722 3315 
Q 1072 3584 1716 3584 
Q 2034 3584 2315 3537 
Q 2597 3491 2834 3397 
z
" transform="scale(0.015625)"/>
      </defs>
      <use xlink:href="#DejaVuSans-5b"/>
      <use xlink:href="#DejaVuSans-63" transform="translate(39.013672 0)"/>
      <use xlink:href="#DejaVuSans-6f" transform="translate(93.994141 0)"/>
      <use xlink:href="#DejaVuSans-75" transform="translate(155.175781 0)"/>
      <use xlink:href="#DejaVuSans-6e" transform="translate(218.554688 0)"/>
      <use xlink:href="#DejaVuSans-74" transform="translate(281.933594 0)"/>
      <use xlink:href="#DejaVuSans-73" transform="translate(321.142578 0)"/>
      <use xlink:href="#DejaVuSans-5d" transform="translate(373.242188 0)"/>
     </g>
    </g>
   </g>
   <g id="line2d_15">
    <path d="M 76.57168 189.094054 
L 77.54055 189.094054 
L 77.54055 145.504865 
L 78.509419 145.504865 
L 78.509419 111.723243 
L 79.478289 111.723243 
L 79.478289 103.005405 
L 81.416028 103.005405 
L 81.416028 76.851892 
L 82.384898 76.851892 
L 82.384898 76.488649 
L 83.353768 76.488649 
L 83.353768 77.215135 
L 84.322637 77.215135 
L 84.322637 85.56973 
L 85.291507 85.56973 
L 85.291507 82.300541 
L 86.260377 82.300541 
L 86.260377 59.052973 
L 87.229246 59.052973 
L 87.229246 64.864865 
L 88.198116 64.864865 
L 88.198116 66.681081 
L 89.166986 66.681081 
L 89.166986 41.617297 
L 90.135855 41.617297 
L 90.135855 28.903784 
L 91.104725 28.903784 
L 91.104725 39.437838 
L 92.073595 39.437838 
L 92.073595 25.271351 
L 93.042464 25.271351 
L 93.042464 34.352432 
L 94.011334 34.352432 
L 94.011334 28.540541 
L 94.980204 28.540541 
L 94.980204 41.254054 
L 95.949073 41.254054 
L 95.949073 17.28 
L 96.917943 17.28 
L 96.917943 23.455135 
L 97.886813 23.455135 
L 97.886813 35.805405 
L 98.855682 35.805405 
L 98.855682 18.732973 
L 99.824552 18.732973 
L 99.824552 39.801081 
L 100.793422 39.801081 
L 100.793422 22.728649 
L 101.762291 22.728649 
L 101.762291 45.24973 
L 102.731161 45.24973 
L 102.731161 33.625946 
L 103.700031 33.625946 
L 103.700031 56.147027 
L 104.6689 56.147027 
L 104.6689 52.514595 
L 105.63777 52.514595 
L 105.63777 77.941622 
L 106.60664 77.941622 
L 106.60664 87.385946 
L 107.575509 87.385946 
L 107.575509 100.825946 
L 109.513249 100.825946 
L 109.513249 108.454054 
L 110.482118 108.454054 
L 110.482118 122.983784 
L 111.450988 122.983784 
L 111.450988 137.15027 
L 112.419858 137.15027 
L 112.419858 141.872432 
L 113.388727 141.872432 
L 113.388727 149.137297 
L 114.357597 149.137297 
L 114.357597 155.675676 
L 115.326467 155.675676 
L 115.326467 164.393514 
L 116.295336 164.393514 
L 116.295336 181.465946 
L 117.264206 181.465946 
L 117.264206 180.376216 
L 118.233076 180.376216 
L 118.233076 194.905946 
L 119.201945 194.905946 
L 119.201945 199.628108 
L 120.170815 199.628108 
L 120.170815 206.166486 
L 121.139685 206.166486 
L 121.139685 213.068108 
L 122.108554 213.068108 
L 122.108554 217.427027 
L 123.077424 217.427027 
L 123.077424 218.88 
L 131.797251 218.88 
L 131.797251 205.803243 
L 132.766121 205.803243 
L 132.766121 174.927568 
L 133.73499 174.927568 
L 133.73499 141.872432 
L 134.70386 141.872432 
L 134.70386 104.095135 
L 135.67273 104.095135 
L 135.67273 91.018378 
L 136.641599 91.018378 
L 136.641599 91.744865 
L 137.610469 91.744865 
L 137.610469 85.932973 
L 138.579339 85.932973 
L 138.579339 99.372973 
L 139.548208 99.372973 
L 139.548208 95.377297 
L 140.517078 95.377297 
L 140.517078 100.462703 
L 141.485948 100.462703 
L 141.485948 91.744865 
L 142.454817 91.744865 
L 142.454817 104.821622 
L 143.423687 104.821622 
L 143.423687 112.44973 
L 144.392557 112.44973 
L 144.392557 111.723243 
L 145.361426 111.723243 
L 145.361426 108.090811 
L 146.330296 108.090811 
L 146.330296 103.005405 
L 147.299166 103.005405 
L 147.299166 109.180541 
L 148.268035 109.180541 
L 148.268035 100.099459 
L 149.236905 100.099459 
L 149.236905 108.090811 
L 150.205775 108.090811 
L 150.205775 117.898378 
L 151.174644 117.898378 
L 151.174644 122.983784 
L 152.143514 122.983784 
L 152.143514 117.898378 
L 153.112384 117.898378 
L 153.112384 117.535135 
L 154.081253 117.535135 
L 154.081253 110.27027 
L 155.050123 110.27027 
L 155.050123 126.616216 
L 156.018993 126.616216 
L 156.018993 126.979459 
L 156.987862 126.979459 
L 156.987862 121.530811 
L 157.956732 121.530811 
L 157.956732 130.248649 
L 158.925602 130.248649 
L 158.925602 131.338378 
L 159.894471 131.338378 
L 159.894471 126.252973 
L 160.863341 126.252973 
L 160.863341 136.787027 
L 161.832211 136.787027 
L 161.832211 140.782703 
L 162.80108 140.782703 
L 162.80108 136.787027 
L 163.76995 136.787027 
L 163.76995 133.154595 
L 164.73882 133.154595 
L 164.73882 136.423784 
L 165.707689 136.423784 
L 165.707689 151.316757 
L 166.676559 151.316757 
L 166.676559 143.325405 
L 167.645429 143.325405 
L 167.645429 152.76973 
L 168.614298 152.76973 
L 168.614298 149.500541 
L 169.583168 149.500541 
L 169.583168 146.594595 
L 170.552038 146.594595 
L 170.552038 152.406486 
L 171.520907 152.406486 
L 171.520907 163.303784 
L 172.489777 163.303784 
L 172.489777 166.936216 
L 173.458647 166.936216 
L 173.458647 174.564324 
L 174.427516 174.564324 
L 174.427516 182.192432 
L 175.396386 182.192432 
L 175.396386 187.277838 
L 176.365256 187.277838 
L 176.365256 185.098378 
L 177.334125 185.098378 
L 177.334125 199.628108 
L 178.302995 199.628108 
L 178.302995 201.807568 
L 179.271865 201.807568 
L 179.271865 205.803243 
L 180.240734 205.803243 
L 180.240734 212.704865 
L 181.209604 212.704865 
L 181.209604 214.884324 
L 182.178474 214.884324 
L 182.178474 213.794595 
L 183.147343 213.794595 
L 183.147343 218.88 
L 184.116213 218.88 
L 184.116213 214.521081 
L 185.085083 214.521081 
L 185.085083 206.52973 
L 186.053952 206.52973 
L 186.053952 192 
L 187.022822 192 
L 187.022822 188.367568 
L 187.991692 188.367568 
L 187.991692 159.308108 
L 188.960561 159.308108 
L 188.960561 149.863784 
L 189.929431 149.863784 
L 189.929431 155.312432 
L 190.898301 155.312432 
L 190.898301 157.855135 
L 191.86717 157.855135 
L 191.86717 143.325405 
L 192.83604 143.325405 
L 192.83604 140.782703 
L 193.80491 140.782703 
L 193.80491 153.859459 
L 194.773779 153.859459 
L 194.773779 154.585946 
L 195.742649 154.585946 
L 195.742649 155.675676 
L 196.711519 155.675676 
L 196.711519 157.128649 
L 197.680388 157.128649 
L 197.680388 160.761081 
L 198.649258 160.761081 
L 198.649258 159.671351 
L 199.618128 159.671351 
L 199.618128 166.936216 
L 200.586997 166.936216 
L 200.586997 157.128649 
L 201.555867 157.128649 
L 201.555867 163.303784 
L 202.524737 163.303784 
L 202.524737 159.671351 
L 203.493606 159.671351 
L 203.493606 160.397838 
L 204.462476 160.397838 
L 204.462476 173.111351 
L 205.431346 173.111351 
L 205.431346 166.936216 
L 206.400215 166.936216 
L 206.400215 173.111351 
L 207.369085 173.111351 
L 207.369085 171.295135 
L 208.337955 171.295135 
L 208.337955 172.021622 
L 209.306824 172.021622 
L 209.306824 180.012973 
L 210.275694 180.012973 
L 210.275694 177.833514 
L 211.244564 177.833514 
L 211.244564 180.376216 
L 212.213433 180.376216 
L 212.213433 182.192432 
L 213.182303 182.192432 
L 213.182303 180.376216 
L 214.151173 180.376216 
L 214.151173 192 
L 215.120042 192 
L 215.120042 190.183784 
L 216.088912 190.183784 
L 216.088912 183.282162 
L 217.057782 183.282162 
L 217.057782 198.175135 
L 218.026651 198.175135 
L 218.026651 190.183784 
L 218.995521 190.183784 
L 218.995521 193.452973 
L 219.964391 193.452973 
L 219.964391 195.632432 
L 220.93326 195.632432 
L 220.93326 198.538378 
L 221.90213 198.538378 
L 221.90213 197.085405 
L 222.871 197.085405 
L 222.871 204.35027 
L 223.839869 204.35027 
L 223.839869 204.713514 
L 224.808739 204.713514 
L 224.808739 205.44 
L 225.777609 205.44 
L 225.777609 206.52973 
L 226.746478 206.52973 
L 226.746478 211.978378 
L 227.715348 211.978378 
L 227.715348 212.341622 
L 228.684218 212.341622 
L 228.684218 213.794595 
L 229.653087 213.794595 
L 229.653087 216.337297 
L 230.621957 216.337297 
L 230.621957 218.153514 
L 231.590827 218.153514 
L 231.590827 215.610811 
L 232.559696 215.610811 
L 232.559696 213.068108 
L 233.528566 213.068108 
L 233.528566 205.44 
L 234.497436 205.44 
L 234.497436 201.444324 
L 235.466305 201.444324 
L 235.466305 191.273514 
L 236.435175 191.273514 
L 236.435175 184.735135 
L 237.404045 184.735135 
L 237.404045 188.730811 
L 238.372914 188.730811 
L 238.372914 192.363243 
L 239.341784 192.363243 
L 239.341784 188.730811 
L 240.310654 188.730811 
L 240.310654 195.269189 
L 241.279523 195.269189 
L 241.279523 199.628108 
L 242.248393 199.628108 
L 242.248393 191.636757 
L 243.217263 191.636757 
L 243.217263 199.264865 
L 244.186132 199.264865 
L 244.186132 198.175135 
L 245.155002 198.175135 
L 245.155002 201.807568 
L 246.123872 201.807568 
L 246.123872 198.175135 
L 247.092741 198.175135 
L 247.092741 203.260541 
L 248.061611 203.260541 
L 248.061611 198.538378 
L 249.030481 198.538378 
L 249.030481 202.170811 
L 249.99935 202.170811 
L 249.99935 205.076757 
L 250.96822 205.076757 
L 250.96822 197.811892 
L 251.93709 197.811892 
L 251.93709 202.534054 
L 252.905959 202.534054 
L 252.905959 206.166486 
L 253.874829 206.166486 
L 253.874829 202.170811 
L 254.843699 202.170811 
L 254.843699 207.982703 
L 256.781438 207.982703 
L 256.781438 209.798919 
L 257.750308 209.798919 
L 257.750308 207.619459 
L 258.719177 207.619459 
L 258.719177 210.525405 
L 259.688047 210.525405 
L 259.688047 212.341622 
L 260.656917 212.341622 
L 260.656917 211.978378 
L 261.625786 211.978378 
L 261.625786 214.521081 
L 262.594656 214.521081 
L 262.594656 214.157838 
L 263.563526 214.157838 
L 263.563526 211.251892 
L 264.532395 211.251892 
L 264.532395 214.157838 
L 265.501265 214.157838 
L 265.501265 213.068108 
L 266.470135 213.068108 
L 266.470135 214.884324 
L 267.439004 214.884324 
L 267.439004 215.974054 
L 268.407874 215.974054 
L 268.407874 214.884324 
L 269.376744 214.884324 
L 269.376744 215.247568 
L 270.345613 215.247568 
L 270.345613 215.974054 
L 271.314483 215.974054 
L 271.314483 217.79027 
L 273.252222 217.79027 
L 273.252222 218.88 
L 277.127701 218.88 
L 277.127701 218.516757 
L 278.096571 218.516757 
L 278.096571 214.521081 
L 279.06544 214.521081 
L 279.06544 211.978378 
L 280.03431 211.978378 
L 280.03431 210.888649 
L 281.972049 210.888649 
L 281.972049 205.803243 
L 282.940919 205.803243 
L 282.940919 203.260541 
L 283.909789 203.260541 
L 283.909789 209.072432 
L 284.878658 209.072432 
L 284.878658 205.803243 
L 285.847528 205.803243 
L 285.847528 203.987027 
L 286.816398 203.987027 
L 286.816398 206.892973 
L 287.785267 206.892973 
L 287.785267 207.256216 
L 288.754137 207.256216 
L 288.754137 205.803243 
L 289.723007 205.803243 
L 289.723007 211.615135 
L 290.691876 211.615135 
L 290.691876 209.072432 
L 291.660746 209.072432 
L 291.660746 208.709189 
L 292.629616 208.709189 
L 292.629616 212.341622 
L 293.598485 212.341622 
L 293.598485 213.068108 
L 294.567355 213.068108 
L 294.567355 211.251892 
L 295.536225 211.251892 
L 295.536225 211.615135 
L 296.505094 211.615135 
L 296.505094 212.341622 
L 297.473964 212.341622 
L 297.473964 210.525405 
L 298.442834 210.525405 
L 298.442834 214.157838 
L 299.411703 214.157838 
L 299.411703 215.974054 
L 300.380573 215.974054 
L 300.380573 215.247568 
L 301.349443 215.247568 
L 301.349443 214.521081 
L 302.318312 214.521081 
L 302.318312 216.337297 
L 303.287182 216.337297 
L 303.287182 215.610811 
L 304.256052 215.610811 
L 304.256052 216.700541 
L 306.193791 216.700541 
L 306.193791 215.974054 
L 307.162661 215.974054 
L 307.162661 215.247568 
L 308.13153 215.247568 
L 308.13153 217.063784 
L 309.1004 217.063784 
L 309.1004 217.427027 
L 310.06927 217.427027 
L 310.06927 215.974054 
L 311.038139 215.974054 
L 311.038139 217.063784 
L 312.007009 217.063784 
L 312.007009 217.79027 
L 312.975879 217.79027 
L 312.975879 218.153514 
L 313.944748 218.153514 
L 313.944748 218.88 
L 321.695706 218.88 
L 321.695706 217.79027 
L 323.633445 217.79027 
L 323.633445 214.884324 
L 324.602315 214.884324 
L 324.602315 214.157838 
L 325.571184 214.157838 
L 325.571184 212.704865 
L 326.540054 212.704865 
L 326.540054 211.615135 
L 327.508924 211.615135 
L 327.508924 209.798919 
L 328.477793 209.798919 
L 328.477793 209.072432 
L 329.446663 209.072432 
L 329.446663 205.44 
L 330.415533 205.44 
L 330.415533 203.260541 
L 331.384402 203.260541 
L 331.384402 201.807568 
L 332.353272 201.807568 
L 332.353272 207.619459 
L 333.322142 207.619459 
L 333.322142 202.897297 
L 334.291011 202.897297 
L 334.291011 206.52973 
L 335.259881 206.52973 
L 335.259881 202.897297 
L 336.228751 202.897297 
L 336.228751 201.807568 
L 337.19762 201.807568 
L 337.19762 206.52973 
L 338.16649 206.52973 
L 338.16649 199.264865 
L 339.13536 199.264865 
L 339.13536 207.619459 
L 340.104229 207.619459 
L 340.104229 204.35027 
L 341.073099 204.35027 
L 341.073099 203.260541 
L 342.041969 203.260541 
L 342.041969 209.798919 
L 343.010838 209.798919 
L 343.010838 204.35027 
L 343.979708 204.35027 
L 343.979708 202.897297 
L 344.948578 202.897297 
L 344.948578 205.44 
L 345.917447 205.44 
L 345.917447 206.166486 
L 346.886317 206.166486 
L 346.886317 207.982703 
L 347.855187 207.982703 
L 347.855187 204.713514 
L 348.824056 204.713514 
L 348.824056 207.982703 
L 349.792926 207.982703 
L 349.792926 208.345946 
L 350.761796 208.345946 
L 350.761796 207.619459 
L 351.730665 207.619459 
L 351.730665 209.798919 
L 352.699535 209.798919 
L 352.699535 205.803243 
L 353.668405 205.803243 
L 353.668405 210.888649 
L 354.637274 210.888649 
L 354.637274 211.615135 
L 355.606144 211.615135 
L 355.606144 212.704865 
L 356.575014 212.704865 
L 356.575014 210.525405 
L 357.543883 210.525405 
L 357.543883 212.704865 
L 358.512753 212.704865 
L 358.512753 211.251892 
L 359.481623 211.251892 
L 359.481623 210.162162 
L 360.450492 210.162162 
L 360.450492 210.888649 
L 361.419362 210.888649 
L 361.419362 213.068108 
L 362.388232 213.068108 
L 362.388232 214.157838 
L 363.357101 214.157838 
L 363.357101 215.247568 
L 364.325971 215.247568 
L 364.325971 214.521081 
L 365.294841 214.521081 
L 365.294841 217.063784 
L 366.26371 217.063784 
L 366.26371 217.427027 
L 367.23258 217.427027 
L 367.23258 217.427027 
" clip-path="url(#pcb4fe1613b)" style="fill: none; stroke: #1f77b4; stroke-width: 1.5; stroke-linecap: square"/>
   </g>
   <g id="line2d_16">
    <path d="M 62.784605 190.183784 
L 63.789159 190.183784 
L 63.789159 177.47027 
L 64.793713 177.47027 
L 64.793713 157.128649 
L 65.798267 157.128649 
L 65.798267 131.701622 
L 66.802821 131.701622 
L 66.802821 118.624865 
L 67.807375 118.624865 
L 67.807375 124.073514 
L 68.811929 124.073514 
L 68.811929 113.539459 
L 69.816483 113.539459 
L 69.816483 103.731892 
L 70.821037 103.731892 
L 70.821037 102.642162 
L 71.825591 102.642162 
L 71.825591 99.736216 
L 72.830145 99.736216 
L 72.830145 104.458378 
L 73.834699 104.458378 
L 73.834699 124.8 
L 74.839253 124.8 
L 74.839253 92.834595 
L 75.843807 92.834595 
L 75.843807 80.847568 
L 76.848361 80.847568 
L 76.848361 93.924324 
L 77.852915 93.924324 
L 77.852915 96.467027 
L 78.857469 96.467027 
L 78.857469 78.304865 
L 79.862023 78.304865 
L 79.862023 66.681081 
L 80.866577 66.681081 
L 80.866577 71.403243 
L 81.871131 71.403243 
L 81.871131 68.134054 
L 82.875685 68.134054 
L 82.875685 52.877838 
L 83.880239 52.877838 
L 83.880239 75.398919 
L 84.884793 75.398919 
L 84.884793 62.322162 
L 85.889347 62.322162 
L 85.889347 61.595676 
L 86.893901 61.595676 
L 86.893901 84.116757 
L 87.898455 84.116757 
L 87.898455 55.057297 
L 88.903009 55.057297 
L 88.903009 47.429189 
L 89.907563 47.429189 
L 89.907563 72.856216 
L 90.912117 72.856216 
L 90.912117 66.681081 
L 91.916671 66.681081 
L 91.916671 59.416216 
L 92.921225 59.416216 
L 92.921225 66.317838 
L 93.925779 66.317838 
L 93.925779 58.68973 
L 94.930333 58.68973 
L 94.930333 81.574054 
L 95.934887 81.574054 
L 95.934887 72.856216 
L 96.939441 72.856216 
L 96.939441 76.125405 
L 97.943995 76.125405 
L 97.943995 88.112432 
L 98.948549 88.112432 
L 98.948549 89.202162 
L 99.953103 89.202162 
L 99.953103 110.996757 
L 100.957657 110.996757 
L 100.957657 102.278919 
L 101.962211 102.278919 
L 101.962211 127.342703 
L 102.966765 127.342703 
L 102.966765 123.347027 
L 103.971319 123.347027 
L 103.971319 130.611892 
L 104.975873 130.611892 
L 104.975873 136.060541 
L 105.980427 136.060541 
L 105.980427 127.705946 
L 106.984981 127.705946 
L 106.984981 153.496216 
L 107.989535 153.496216 
L 107.989535 154.949189 
L 108.994089 154.949189 
L 108.994089 159.308108 
L 109.998643 159.308108 
L 109.998643 162.940541 
L 111.003197 162.940541 
L 111.003197 165.846486 
L 112.007751 165.846486 
L 112.007751 172.021622 
L 113.012305 172.021622 
L 113.012305 174.927568 
L 114.016859 174.927568 
L 114.016859 186.551351 
L 115.021413 186.551351 
L 115.021413 192.363243 
L 116.025967 192.363243 
L 116.025967 192 
L 117.030521 192 
L 117.030521 185.098378 
L 118.035075 185.098378 
L 118.035075 182.192432 
L 119.039629 182.192432 
L 119.039629 161.850811 
L 120.044183 161.850811 
L 120.044183 158.944865 
L 121.048737 158.944865 
L 121.048737 149.863784 
L 122.05329 149.863784 
L 122.05329 113.176216 
L 123.057844 113.176216 
L 123.057844 137.15027 
L 124.062398 137.15027 
L 124.062398 100.825946 
L 125.066952 100.825946 
L 125.066952 116.445405 
L 126.071506 116.445405 
L 126.071506 123.71027 
L 127.07606 123.71027 
L 127.07606 116.082162 
L 128.080614 116.082162 
L 128.080614 120.804324 
L 129.085168 120.804324 
L 129.085168 117.898378 
L 130.089722 117.898378 
L 130.089722 116.082162 
L 131.094276 116.082162 
L 131.094276 128.069189 
L 132.09883 128.069189 
L 132.09883 134.970811 
L 133.103384 134.970811 
L 133.103384 132.428108 
L 134.107938 132.428108 
L 134.107938 125.88973 
L 135.112492 125.88973 
L 135.112492 122.983784 
L 136.117046 122.983784 
L 136.117046 122.620541 
L 137.1216 122.620541 
L 137.1216 138.966486 
L 138.126154 138.966486 
L 138.126154 129.885405 
L 139.130708 129.885405 
L 139.130708 108.817297 
L 140.135262 108.817297 
L 140.135262 127.705946 
L 141.139816 127.705946 
L 141.139816 131.338378 
L 142.14437 131.338378 
L 142.14437 141.145946 
L 143.148924 141.145946 
L 143.148924 144.051892 
L 144.153478 144.051892 
L 144.153478 132.064865 
L 145.158032 132.064865 
L 145.158032 131.701622 
L 146.162586 131.701622 
L 146.162586 136.060541 
L 147.16714 136.060541 
L 147.16714 147.321081 
L 148.171694 147.321081 
L 148.171694 130.611892 
L 149.176248 130.611892 
L 149.176248 145.868108 
L 150.180802 145.868108 
L 150.180802 150.953514 
L 151.185356 150.953514 
L 151.185356 145.141622 
L 152.18991 145.141622 
L 152.18991 115.718919 
L 153.194464 115.718919 
L 153.194464 163.667027 
L 154.199018 163.667027 
L 154.199018 160.761081 
L 155.203572 160.761081 
L 155.203572 143.325405 
L 156.208126 143.325405 
L 156.208126 157.491892 
L 157.21268 157.491892 
L 157.21268 148.774054 
L 158.217234 148.774054 
L 158.217234 151.68 
L 159.221788 151.68 
L 159.221788 154.222703 
L 160.226342 154.222703 
L 160.226342 146.594595 
L 161.230896 146.594595 
L 161.230896 177.833514 
L 162.23545 177.833514 
L 162.23545 149.137297 
L 163.240004 149.137297 
L 163.240004 173.474595 
L 164.244558 173.474595 
L 164.244558 164.756757 
L 165.249112 164.756757 
L 165.249112 161.850811 
L 166.253666 161.850811 
L 166.253666 153.496216 
L 167.25822 153.496216 
L 167.25822 157.128649 
L 168.262774 157.128649 
L 168.262774 183.282162 
L 169.267328 183.282162 
L 169.267328 173.474595 
L 170.271882 173.474595 
L 170.271882 161.850811 
L 171.276436 161.850811 
L 171.276436 176.743784 
L 172.28099 176.743784 
L 172.28099 168.025946 
L 173.285544 168.025946 
L 173.285544 174.201081 
L 174.290098 174.201081 
L 174.290098 155.675676 
L 175.294652 155.675676 
L 175.294652 146.957838 
L 176.299206 146.957838 
L 176.299206 149.500541 
L 177.30376 149.500541 
L 177.30376 156.038919 
L 178.308314 156.038919 
L 178.308314 157.128649 
L 179.312868 157.128649 
L 179.312868 169.115676 
L 180.317422 169.115676 
L 180.317422 139.692973 
L 181.321976 139.692973 
L 181.321976 151.68 
L 182.32653 151.68 
L 182.32653 176.743784 
L 183.331084 176.743784 
L 183.331084 160.034595 
L 184.335638 160.034595 
L 184.335638 163.303784 
L 185.340192 163.303784 
L 185.340192 163.667027 
L 186.344746 163.667027 
L 186.344746 183.282162 
L 187.3493 183.282162 
L 187.3493 169.115676 
L 188.353854 169.115676 
L 188.353854 157.128649 
L 189.358408 157.128649 
L 189.358408 194.542703 
L 190.362962 194.542703 
L 190.362962 169.478919 
L 191.367516 169.478919 
L 191.367516 155.675676 
L 192.37207 155.675676 
L 192.37207 178.923243 
L 193.376624 178.923243 
L 193.376624 169.842162 
L 194.381178 169.842162 
L 194.381178 173.474595 
L 195.385732 173.474595 
L 195.385732 177.107027 
L 196.390286 177.107027 
L 196.390286 185.098378 
L 197.39484 185.098378 
L 197.39484 166.572973 
L 198.399394 166.572973 
L 198.399394 192 
L 199.403948 192 
L 199.403948 163.303784 
L 200.408502 163.303784 
L 200.408502 195.269189 
L 201.413056 195.269189 
L 201.413056 185.098378 
L 202.41761 185.098378 
L 202.41761 188.367568 
L 203.422164 188.367568 
L 203.422164 189.094054 
L 204.426718 189.094054 
L 204.426718 185.824865 
L 205.431272 185.824865 
L 205.431272 193.08973 
L 206.435826 193.08973 
L 206.435826 185.461622 
L 207.44038 185.461622 
L 207.44038 193.452973 
L 208.444934 193.452973 
L 208.444934 199.991351 
L 209.449488 199.991351 
L 209.449488 199.628108 
L 210.454042 199.628108 
L 210.454042 197.811892 
L 211.458596 197.811892 
L 211.458596 190.547027 
L 212.46315 190.547027 
L 212.46315 199.264865 
L 213.467704 199.264865 
L 213.467704 197.448649 
L 214.472258 197.448649 
L 214.472258 194.179459 
L 215.476811 194.179459 
L 215.476811 199.991351 
L 216.481365 199.991351 
L 216.481365 199.264865 
L 217.485919 199.264865 
L 217.485919 196.722162 
L 218.490473 196.722162 
L 218.490473 197.085405 
L 219.495027 197.085405 
L 219.495027 191.636757 
L 220.499581 191.636757 
L 220.499581 198.538378 
L 221.504135 198.538378 
L 221.504135 192 
L 222.508689 192 
L 222.508689 184.371892 
L 223.513243 184.371892 
L 223.513243 187.277838 
L 224.517797 187.277838 
L 224.517797 184.008649 
L 225.522351 184.008649 
L 225.522351 192.363243 
L 226.526905 192.363243 
L 226.526905 193.816216 
L 227.531459 193.816216 
L 227.531459 190.91027 
L 228.536013 190.91027 
L 228.536013 197.085405 
L 229.540567 197.085405 
L 229.540567 205.44 
L 230.545121 205.44 
L 230.545121 198.175135 
L 231.549675 198.175135 
L 231.549675 199.264865 
L 232.554229 199.264865 
L 232.554229 204.35027 
L 234.563337 204.35027 
L 234.563337 203.987027 
L 235.567891 203.987027 
L 235.567891 198.901622 
L 236.572445 198.901622 
L 236.572445 202.170811 
L 237.576999 202.170811 
L 237.576999 215.247568 
L 238.581553 215.247568 
L 238.581553 192.726486 
L 239.586107 192.726486 
L 239.586107 212.704865 
L 240.590661 212.704865 
L 240.590661 202.170811 
L 241.595215 202.170811 
L 241.595215 206.52973 
L 242.599769 206.52973 
L 242.599769 207.619459 
L 243.604323 207.619459 
L 243.604323 201.807568 
L 244.608877 201.807568 
L 244.608877 206.166486 
L 245.613431 206.166486 
L 245.613431 212.341622 
L 246.617985 212.341622 
L 246.617985 202.534054 
L 247.622539 202.534054 
L 247.622539 214.884324 
L 248.627093 214.884324 
L 248.627093 209.798919 
L 249.631647 209.798919 
L 249.631647 210.888649 
L 250.636201 210.888649 
L 250.636201 209.798919 
L 251.640755 209.798919 
L 251.640755 210.888649 
L 252.645309 210.888649 
L 252.645309 212.704865 
L 253.649863 212.704865 
L 253.649863 211.615135 
L 254.654417 211.615135 
L 254.654417 214.521081 
L 255.658971 214.521081 
L 255.658971 211.978378 
L 256.663525 211.978378 
L 256.663525 215.610811 
L 258.672633 215.610811 
L 258.672633 217.79027 
L 259.677187 217.79027 
L 259.677187 210.162162 
L 260.681741 210.162162 
L 260.681741 215.610811 
L 261.686295 215.610811 
L 261.686295 215.247568 
L 262.690849 215.247568 
L 262.690849 212.704865 
L 263.695403 212.704865 
L 263.695403 211.978378 
L 264.699957 211.978378 
L 264.699957 214.157838 
L 265.704511 214.157838 
L 265.704511 212.341622 
L 266.709065 212.341622 
L 266.709065 209.798919 
L 267.713619 209.798919 
L 267.713619 211.251892 
L 269.722727 211.251892 
L 269.722727 207.619459 
L 270.727281 207.619459 
L 270.727281 209.072432 
L 271.731835 209.072432 
L 271.731835 206.892973 
L 272.736389 206.892973 
L 272.736389 213.794595 
L 273.740943 213.794595 
L 273.740943 206.52973 
L 274.745497 206.52973 
L 274.745497 209.435676 
L 275.750051 209.435676 
L 275.750051 206.892973 
L 276.754605 206.892973 
L 276.754605 210.162162 
L 277.759159 210.162162 
L 277.759159 210.525405 
L 278.763713 210.525405 
L 278.763713 206.52973 
L 279.768267 206.52973 
L 279.768267 214.884324 
L 280.772821 214.884324 
L 280.772821 211.251892 
L 281.777375 211.251892 
L 281.777375 209.435676 
L 282.781929 209.435676 
L 282.781929 212.341622 
L 283.786483 212.341622 
L 283.786483 214.884324 
L 284.791037 214.884324 
L 284.791037 215.974054 
L 285.795591 215.974054 
L 285.795591 209.798919 
L 286.800145 209.798919 
L 286.800145 212.341622 
L 287.804699 212.341622 
L 287.804699 214.521081 
L 288.809253 214.521081 
L 288.809253 213.794595 
L 289.813807 213.794595 
L 289.813807 210.888649 
L 290.818361 210.888649 
L 290.818361 216.337297 
L 291.822915 216.337297 
L 291.822915 215.247568 
L 293.832023 215.247568 
L 293.832023 216.700541 
L 294.836577 216.700541 
L 294.836577 217.063784 
L 295.841131 217.063784 
L 295.841131 215.247568 
L 296.845685 215.247568 
L 296.845685 216.700541 
L 297.850239 216.700541 
L 297.850239 215.974054 
L 298.854793 215.974054 
L 298.854793 217.063784 
L 299.859347 217.063784 
L 299.859347 216.337297 
L 300.863901 216.337297 
L 300.863901 217.79027 
L 301.868455 217.79027 
L 301.868455 216.700541 
L 302.873009 216.700541 
L 302.873009 215.974054 
L 303.877563 215.974054 
L 303.877563 216.700541 
L 304.882117 216.700541 
L 304.882117 217.427027 
L 305.886671 217.427027 
L 305.886671 215.974054 
L 306.891225 215.974054 
L 306.891225 216.700541 
L 307.895779 216.700541 
L 307.895779 213.794595 
L 308.900332 213.794595 
L 308.900332 216.337297 
L 309.904886 216.337297 
L 309.904886 215.610811 
L 310.90944 215.610811 
L 310.90944 214.521081 
L 311.913994 214.521081 
L 311.913994 213.068108 
L 312.918548 213.068108 
L 312.918548 216.700541 
L 313.923102 216.700541 
L 313.923102 211.978378 
L 314.927656 211.978378 
L 314.927656 214.521081 
L 315.93221 214.521081 
L 315.93221 208.709189 
L 316.936764 208.709189 
L 316.936764 210.525405 
L 317.941318 210.525405 
L 317.941318 205.803243 
L 318.945872 205.803243 
L 318.945872 213.794595 
L 319.950426 213.794595 
L 319.950426 209.798919 
L 320.95498 209.798919 
L 320.95498 204.35027 
L 321.959534 204.35027 
L 321.959534 201.807568 
L 322.964088 201.807568 
L 322.964088 208.709189 
L 323.968642 208.709189 
L 323.968642 199.628108 
L 324.973196 199.628108 
L 324.973196 210.525405 
L 325.97775 210.525405 
L 325.97775 217.063784 
L 326.982304 217.063784 
L 326.982304 201.444324 
L 327.986858 201.444324 
L 327.986858 207.619459 
L 328.991412 207.619459 
L 328.991412 201.081081 
L 329.995966 201.081081 
L 329.995966 201.444324 
L 331.00052 201.444324 
L 331.00052 212.704865 
L 332.005074 212.704865 
L 332.005074 209.798919 
L 333.009628 209.798919 
L 333.009628 205.803243 
L 334.014182 205.803243 
L 334.014182 207.982703 
L 335.018736 207.982703 
L 335.018736 210.525405 
L 336.02329 210.525405 
L 336.02329 206.52973 
L 337.027844 206.52973 
L 337.027844 202.534054 
L 338.032398 202.534054 
L 338.032398 214.157838 
L 339.036952 214.157838 
L 339.036952 210.162162 
L 340.041506 210.162162 
L 340.041506 214.157838 
L 341.04606 214.157838 
L 341.04606 203.623784 
L 342.050614 203.623784 
L 342.050614 211.978378 
L 343.055168 211.978378 
L 343.055168 209.798919 
L 344.059722 209.798919 
L 344.059722 214.157838 
L 345.064276 214.157838 
L 345.064276 203.623784 
L 346.06883 203.623784 
L 346.06883 215.974054 
L 347.073384 215.974054 
L 347.073384 207.256216 
L 348.077938 207.256216 
L 348.077938 212.341622 
L 349.082492 212.341622 
L 349.082492 215.610811 
L 350.087046 215.610811 
L 350.087046 207.256216 
L 351.0916 207.256216 
L 351.0916 213.794595 
L 352.096154 213.794595 
L 352.096154 215.610811 
L 353.100708 215.610811 
L 353.100708 209.435676 
L 354.105262 209.435676 
L 354.105262 214.884324 
L 355.109816 214.884324 
L 355.109816 211.978378 
L 356.11437 211.978378 
L 356.11437 209.435676 
L 357.118924 209.435676 
L 357.118924 215.247568 
L 358.123478 215.247568 
L 358.123478 210.525405 
L 359.128032 210.525405 
L 359.128032 217.063784 
L 360.132586 217.063784 
L 360.132586 214.884324 
L 363.146248 214.884324 
L 363.146248 218.153514 
L 364.150802 218.153514 
L 364.150802 218.153514 
" clip-path="url(#pcb4fe1613b)" style="fill: none; stroke: #ff7f0e; stroke-width: 1.5; stroke-linecap: square"/>
   </g>
   <g id="line2d_17">
    <path d="M 62.176472 205.44 
L 63.190528 205.44 
L 63.190528 182.192432 
L 64.204584 182.192432 
L 64.204584 167.299459 
L 65.218641 167.299459 
L 65.218641 146.231351 
L 66.232697 146.231351 
L 66.232697 128.069189 
L 67.246754 128.069189 
L 67.246754 121.894054 
L 68.26081 121.894054 
L 68.26081 110.27027 
L 69.274867 110.27027 
L 69.274867 109.180541 
L 70.288923 109.180541 
L 70.288923 111.723243 
L 71.302979 111.723243 
L 71.302979 95.377297 
L 72.317036 95.377297 
L 72.317036 102.642162 
L 73.331092 102.642162 
L 73.331092 109.907027 
L 74.345149 109.907027 
L 74.345149 114.629189 
L 75.359205 114.629189 
L 75.359205 77.578378 
L 76.373262 77.578378 
L 76.373262 84.48 
L 77.387318 84.48 
L 77.387318 95.377297 
L 78.401374 95.377297 
L 78.401374 84.843243 
L 79.415431 84.843243 
L 79.415431 70.676757 
L 80.429487 70.676757 
L 80.429487 75.398919 
L 81.443544 75.398919 
L 81.443544 57.963243 
L 82.4576 57.963243 
L 82.4576 63.411892 
L 83.471657 63.411892 
L 83.471657 66.317838 
L 84.485713 66.317838 
L 84.485713 62.322162 
L 85.49977 62.322162 
L 85.49977 68.497297 
L 86.513826 68.497297 
L 86.513826 67.407568 
L 87.527882 67.407568 
L 87.527882 61.232432 
L 88.541939 61.232432 
L 88.541939 59.052973 
L 89.555995 59.052973 
L 89.555995 57.963243 
L 90.570052 57.963243 
L 90.570052 61.958919 
L 91.584108 61.958919 
L 91.584108 66.317838 
L 92.598165 66.317838 
L 92.598165 59.416216 
L 93.612221 59.416216 
L 93.612221 61.958919 
L 94.626277 61.958919 
L 94.626277 72.12973 
L 95.640334 72.12973 
L 95.640334 68.860541 
L 96.65439 68.860541 
L 96.65439 76.488649 
L 97.668447 76.488649 
L 97.668447 81.210811 
L 98.682503 81.210811 
L 98.682503 96.83027 
L 99.69656 96.83027 
L 99.69656 104.095135 
L 100.710616 104.095135 
L 100.710616 99.372973 
L 101.724672 99.372973 
L 101.724672 125.526486 
L 102.738729 125.526486 
L 102.738729 123.347027 
L 103.752785 123.347027 
L 103.752785 130.975135 
L 104.766842 130.975135 
L 104.766842 127.342703 
L 105.780898 127.342703 
L 105.780898 132.428108 
L 106.794955 132.428108 
L 106.794955 140.056216 
L 107.809011 140.056216 
L 107.809011 158.581622 
L 108.823068 158.581622 
L 108.823068 157.491892 
L 109.837124 157.491892 
L 109.837124 161.850811 
L 110.85118 161.850811 
L 110.85118 166.20973 
L 111.865237 166.20973 
L 111.865237 168.389189 
L 112.879293 168.389189 
L 112.879293 173.111351 
L 113.89335 173.111351 
L 113.89335 185.824865 
L 114.907406 185.824865 
L 114.907406 191.636757 
L 115.921463 191.636757 
L 115.921463 190.183784 
L 116.935519 190.183784 
L 116.935519 184.735135 
L 117.949575 184.735135 
L 117.949575 179.64973 
L 118.963632 179.64973 
L 118.963632 161.850811 
L 119.977688 161.850811 
L 119.977688 150.953514 
L 120.991745 150.953514 
L 120.991745 144.415135 
L 122.005801 144.415135 
L 122.005801 135.697297 
L 123.019858 135.697297 
L 123.019858 119.351351 
L 124.033914 119.351351 
L 124.033914 109.180541 
L 125.04797 109.180541 
L 125.04797 122.983784 
L 126.062027 122.983784 
L 126.062027 110.996757 
L 127.076083 110.996757 
L 127.076083 121.894054 
L 128.09014 121.894054 
L 128.09014 111.723243 
L 129.104196 111.723243 
L 129.104196 119.714595 
L 130.118253 119.714595 
L 130.118253 119.351351 
L 131.132309 119.351351 
L 131.132309 129.522162 
L 132.146365 129.522162 
L 132.146365 127.705946 
L 133.160422 127.705946 
L 133.160422 130.975135 
L 134.174478 130.975135 
L 134.174478 130.248649 
L 135.188535 130.248649 
L 135.188535 115.355676 
L 136.202591 115.355676 
L 136.202591 124.8 
L 137.216648 124.8 
L 137.216648 136.060541 
L 138.230704 136.060541 
L 138.230704 129.158919 
L 139.244761 129.158919 
L 139.244761 111.723243 
L 140.258817 111.723243 
L 140.258817 125.88973 
L 141.272873 125.88973 
L 141.272873 135.334054 
L 142.28693 135.334054 
L 142.28693 137.876757 
L 143.300986 137.876757 
L 143.300986 140.782703 
L 144.315043 140.782703 
L 144.315043 132.064865 
L 145.329099 132.064865 
L 145.329099 134.607568 
L 146.343156 134.607568 
L 146.343156 141.509189 
L 147.357212 141.509189 
L 147.357212 133.881081 
L 148.371268 133.881081 
L 148.371268 136.787027 
L 149.385325 136.787027 
L 149.385325 141.509189 
L 150.399381 141.509189 
L 150.399381 149.137297 
L 151.413438 149.137297 
L 151.413438 142.962162 
L 152.427494 142.962162 
L 152.427494 150.227027 
L 153.441551 150.227027 
L 153.441551 142.962162 
L 154.455607 142.962162 
L 154.455607 154.949189 
L 155.469663 154.949189 
L 155.469663 148.410811 
L 156.48372 148.410811 
L 156.48372 152.76973 
L 157.497776 152.76973 
L 157.497776 152.043243 
L 158.511833 152.043243 
L 158.511833 150.953514 
L 159.525889 150.953514 
L 159.525889 150.227027 
L 160.539946 150.227027 
L 160.539946 152.043243 
L 161.554002 152.043243 
L 161.554002 164.393514 
L 162.568059 164.393514 
L 162.568059 165.846486 
L 163.582115 165.846486 
L 163.582115 164.03027 
L 164.596171 164.03027 
L 164.596171 157.128649 
L 165.610228 157.128649 
L 165.610228 161.124324 
L 166.624284 161.124324 
L 166.624284 161.487568 
L 167.638341 161.487568 
L 167.638341 169.115676 
L 169.666454 169.115676 
L 169.666454 174.927568 
L 170.68051 174.927568 
L 170.68051 169.478919 
L 171.694566 169.478919 
L 171.694566 168.025946 
L 172.708623 168.025946 
L 172.708623 166.20973 
L 173.722679 166.20973 
L 173.722679 160.397838 
L 174.736736 160.397838 
L 174.736736 150.953514 
L 175.750792 150.953514 
L 175.750792 154.222703 
L 176.764849 154.222703 
L 176.764849 153.132973 
L 177.778905 153.132973 
L 177.778905 158.218378 
L 178.792961 158.218378 
L 178.792961 155.312432 
L 179.807018 155.312432 
L 179.807018 152.406486 
L 180.821074 152.406486 
L 180.821074 157.128649 
L 181.835131 157.128649 
L 181.835131 156.402162 
L 182.849187 156.402162 
L 182.849187 170.568649 
L 183.863244 170.568649 
L 183.863244 164.393514 
L 184.8773 164.393514 
L 184.8773 165.846486 
L 185.891357 165.846486 
L 185.891357 165.483243 
L 186.905413 165.483243 
L 186.905413 168.752432 
L 187.919469 168.752432 
L 187.919469 180.012973 
L 188.933526 180.012973 
L 188.933526 169.842162 
L 189.947582 169.842162 
L 189.947582 168.025946 
L 190.961639 168.025946 
L 190.961639 169.478919 
L 192.989752 169.478919 
L 192.989752 166.572973 
L 194.003808 166.572973 
L 194.003808 173.474595 
L 195.017864 173.474595 
L 195.017864 180.376216 
L 196.031921 180.376216 
L 196.031921 174.927568 
L 197.045977 174.927568 
L 197.045977 176.743784 
L 198.060034 176.743784 
L 198.060034 185.098378 
L 199.07409 185.098378 
L 199.07409 188.730811 
L 200.088147 188.730811 
L 200.088147 181.829189 
L 201.102203 181.829189 
L 201.102203 180.739459 
L 202.116259 180.739459 
L 202.116259 186.914595 
L 203.130316 186.914595 
L 203.130316 188.004324 
L 204.144372 188.004324 
L 204.144372 186.188108 
L 205.158429 186.188108 
L 205.158429 189.820541 
L 206.172485 189.820541 
L 206.172485 188.730811 
L 207.186542 188.730811 
L 207.186542 191.636757 
L 208.200598 191.636757 
L 208.200598 195.632432 
L 209.214655 195.632432 
L 209.214655 195.269189 
L 210.228711 195.269189 
L 210.228711 198.538378 
L 211.242767 198.538378 
L 211.242767 196.358919 
L 212.256824 196.358919 
L 212.256824 193.452973 
L 213.27088 193.452973 
L 213.27088 199.264865 
L 214.284937 199.264865 
L 214.284937 195.269189 
L 215.298993 195.269189 
L 215.298993 197.085405 
L 216.31305 197.085405 
L 216.31305 197.811892 
L 217.327106 197.811892 
L 217.327106 197.448649 
L 218.341162 197.448649 
L 218.341162 197.085405 
L 219.355219 197.085405 
L 219.355219 194.179459 
L 220.369275 194.179459 
L 220.369275 189.094054 
L 221.383332 189.094054 
L 221.383332 192.726486 
L 222.397388 192.726486 
L 222.397388 189.820541 
L 223.411445 189.820541 
L 223.411445 188.367568 
L 224.425501 188.367568 
L 224.425501 187.641081 
L 225.439557 187.641081 
L 225.439557 189.457297 
L 226.453614 189.457297 
L 226.453614 189.094054 
L 227.46767 189.094054 
L 227.46767 196.358919 
L 228.481727 196.358919 
L 228.481727 192 
L 229.495783 192 
L 229.495783 203.260541 
L 230.50984 203.260541 
L 230.50984 198.175135 
L 231.523896 198.175135 
L 231.523896 200.354595 
L 232.537953 200.354595 
L 232.537953 203.260541 
L 233.552009 203.260541 
L 233.552009 202.897297 
L 234.566065 202.897297 
L 234.566065 203.987027 
L 235.580122 203.987027 
L 235.580122 202.534054 
L 236.594178 202.534054 
L 236.594178 203.260541 
L 237.608235 203.260541 
L 237.608235 206.892973 
L 238.622291 206.892973 
L 238.622291 205.803243 
L 239.636348 205.803243 
L 239.636348 202.897297 
L 240.650404 202.897297 
L 240.650404 206.52973 
L 243.692573 206.52973 
L 243.692573 203.260541 
L 244.70663 203.260541 
L 244.70663 207.619459 
L 245.720686 207.619459 
L 245.720686 207.982703 
L 246.734743 207.982703 
L 246.734743 206.892973 
L 247.748799 206.892973 
L 247.748799 209.798919 
L 248.762855 209.798919 
L 248.762855 210.162162 
L 249.776912 210.162162 
L 249.776912 210.525405 
L 251.805025 210.525405 
L 251.805025 210.888649 
L 252.819081 210.888649 
L 252.819081 211.978378 
L 253.833138 211.978378 
L 253.833138 213.431351 
L 254.847194 213.431351 
L 254.847194 213.068108 
L 255.861251 213.068108 
L 255.861251 212.704865 
L 256.875307 212.704865 
L 256.875307 215.610811 
L 257.889363 215.610811 
L 257.889363 215.974054 
L 258.90342 215.974054 
L 258.90342 213.794595 
L 259.917476 213.794595 
L 259.917476 214.521081 
L 261.945589 214.521081 
L 261.945589 213.794595 
L 262.959646 213.794595 
L 262.959646 211.978378 
L 264.987758 211.978378 
L 264.987758 211.615135 
L 266.001815 211.615135 
L 266.001815 210.525405 
L 267.015871 210.525405 
L 267.015871 211.615135 
L 269.043984 211.615135 
L 269.043984 208.345946 
L 270.058041 208.345946 
L 270.058041 209.435676 
L 271.072097 209.435676 
L 271.072097 206.166486 
L 272.086153 206.166486 
L 272.086153 209.798919 
L 273.10021 209.798919 
L 273.10021 210.525405 
L 274.114266 210.525405 
L 274.114266 206.892973 
L 275.128323 206.892973 
L 275.128323 209.072432 
L 276.142379 209.072432 
L 276.142379 210.162162 
L 277.156436 210.162162 
L 277.156436 208.345946 
L 278.170492 208.345946 
L 278.170492 209.072432 
L 279.184548 209.072432 
L 279.184548 211.251892 
L 280.198605 211.251892 
L 280.198605 208.709189 
L 281.212661 208.709189 
L 281.212661 215.247568 
L 282.226718 215.247568 
L 282.226718 207.982703 
L 283.240774 207.982703 
L 283.240774 214.884324 
L 284.254831 214.884324 
L 284.254831 213.794595 
L 285.268887 213.794595 
L 285.268887 214.521081 
L 286.282944 214.521081 
L 286.282944 211.615135 
L 287.297 211.615135 
L 287.297 213.431351 
L 288.311056 213.431351 
L 288.311056 213.794595 
L 289.325113 213.794595 
L 289.325113 213.068108 
L 290.339169 213.068108 
L 290.339169 211.978378 
L 291.353226 211.978378 
L 291.353226 215.610811 
L 292.367282 215.610811 
L 292.367282 215.247568 
L 293.381339 215.247568 
L 293.381339 216.700541 
L 294.395395 216.700541 
L 294.395395 216.337297 
L 295.409451 216.337297 
L 295.409451 215.610811 
L 297.437564 215.610811 
L 297.437564 217.063784 
L 298.451621 217.063784 
L 298.451621 216.700541 
L 300.479734 216.700541 
L 300.479734 217.79027 
L 301.49379 217.79027 
L 301.49379 216.700541 
L 302.507846 216.700541 
L 302.507846 215.974054 
L 303.521903 215.974054 
L 303.521903 216.337297 
L 304.535959 216.337297 
L 304.535959 216.700541 
L 306.564072 216.700541 
L 306.564072 216.337297 
L 307.578129 216.337297 
L 307.578129 213.794595 
L 308.592185 213.794595 
L 308.592185 216.337297 
L 309.606242 216.337297 
L 309.606242 215.247568 
L 310.620298 215.247568 
L 310.620298 213.068108 
L 311.634354 213.068108 
L 311.634354 215.247568 
L 312.648411 215.247568 
L 312.648411 212.341622 
L 313.662467 212.341622 
L 313.662467 213.068108 
L 314.676524 213.068108 
L 314.676524 212.704865 
L 315.69058 212.704865 
L 315.69058 209.435676 
L 316.704637 209.435676 
L 316.704637 211.615135 
L 317.718693 211.615135 
L 317.718693 208.345946 
L 318.732749 208.345946 
L 318.732749 209.435676 
L 319.746806 209.435676 
L 319.746806 209.798919 
L 320.760862 209.798919 
L 320.760862 209.072432 
L 321.774919 209.072432 
L 321.774919 200.717838 
L 322.788975 200.717838 
L 322.788975 207.619459 
L 323.803032 207.619459 
L 323.803032 207.256216 
L 324.817088 207.256216 
L 324.817088 206.52973 
L 325.831144 206.52973 
L 325.831144 206.892973 
L 326.845201 206.892973 
L 326.845201 207.256216 
L 327.859257 207.256216 
L 327.859257 206.892973 
L 328.873314 206.892973 
L 328.873314 206.166486 
L 329.88737 206.166486 
L 329.88737 203.260541 
L 330.901427 203.260541 
L 330.901427 209.435676 
L 331.915483 209.435676 
L 331.915483 206.52973 
L 332.92954 206.52973 
L 332.92954 207.619459 
L 333.943596 207.619459 
L 333.943596 209.072432 
L 334.957652 209.072432 
L 334.957652 210.525405 
L 335.971709 210.525405 
L 335.971709 206.52973 
L 336.985765 206.52973 
L 336.985765 209.435676 
L 337.999822 209.435676 
L 337.999822 206.892973 
L 339.013878 206.892973 
L 339.013878 210.162162 
L 341.041991 210.162162 
L 341.041991 211.251892 
L 342.056047 211.251892 
L 342.056047 208.345946 
L 343.070104 208.345946 
L 343.070104 209.435676 
L 344.08416 209.435676 
L 344.08416 209.798919 
L 346.112273 209.798919 
L 346.112273 212.341622 
L 347.12633 212.341622 
L 347.12633 210.525405 
L 348.140386 210.525405 
L 348.140386 211.615135 
L 349.154442 211.615135 
L 349.154442 210.525405 
L 350.168499 210.525405 
L 350.168499 212.341622 
L 351.182555 212.341622 
L 351.182555 210.888649 
L 352.196612 210.888649 
L 352.196612 211.978378 
L 353.210668 211.978378 
L 353.210668 215.610811 
L 354.224725 215.610811 
L 354.224725 211.978378 
L 355.238781 211.978378 
L 355.238781 211.615135 
L 356.252838 211.615135 
L 356.252838 213.068108 
L 357.266894 213.068108 
L 357.266894 212.704865 
L 358.28095 212.704865 
L 358.28095 213.794595 
L 359.295007 213.794595 
L 359.295007 214.157838 
L 360.309063 214.157838 
L 360.309063 214.521081 
L 361.32312 214.521081 
L 361.32312 215.247568 
L 362.337176 215.247568 
L 362.337176 215.610811 
L 363.351233 215.610811 
L 363.351233 217.79027 
L 366.393402 217.79027 
L 366.393402 217.79027 
" clip-path="url(#pcb4fe1613b)" style="fill: none; stroke: #2ca02c; stroke-width: 1.5; stroke-linecap: square"/>
   </g>
   <g id="patch_3">
    <path d="M 46.965625 228.96 
L 46.965625 7.2 
" style="fill: none; stroke: #000000; stroke-width: 0.8; stroke-linejoin: miter; stroke-linecap: square"/>
   </g>
   <g id="patch_4">
    <path d="M 381.765625 228.96 
L 381.765625 7.2 
" style="fill: none; stroke: #000000; stroke-width: 0.8; stroke-linejoin: miter; stroke-linecap: square"/>
   </g>
   <g id="patch_5">
    <path d="M 46.965625 228.96 
L 381.765625 228.96 
" style="fill: none; stroke: #000000; stroke-width: 0.8; stroke-linejoin: miter; stroke-linecap: square"/>
   </g>
   <g id="patch_6">
    <path d="M 46.965625 7.2 
L 381.765625 7.2 
" style="fill: none; stroke: #000000; stroke-width: 0.8; stroke-linejoin: miter; stroke-linecap: square"/>
   </g>
   <g id="legend_1">
    <g id="patch_7">
     <path d="M 305.3875 59.234375 
L 374.765625 59.234375 
Q 376.765625 59.234375 376.765625 57.234375 
L 376.765625 14.2 
Q 376.765625 12.2 374.765625 12.2 
L 305.3875 12.2 
Q 303.3875 12.2 303.3875 14.2 
L 303.3875 57.234375 
Q 303.3875 59.234375 305.3875 59.234375 
z
" style="fill: #ffffff; opacity: 0.8; stroke: #cccccc; stroke-linejoin: miter"/>
    </g>
    <g id="line2d_18">
     <path d="M 307.3875 20.298438 
L 307.3875 20.298438 
L 317.3875 20.298438 
L 317.3875 20.298438 
L 327.3875 20.298438 
" style="fill: none; stroke: #1f77b4; stroke-width: 1.5; stroke-linecap: square"/>
    </g>
    <g id="text_17">
     <!-- naive -->
     <g transform="translate(335.3875 23.798438) scale(0.1 -0.1)">
      <defs>
       <path id="DejaVuSans-69" d="M 603 3500 
L 1178 3500 
L 1178 0 
L 603 0 
L 603 3500 
z
M 603 4863 
L 1178 4863 
L 1178 4134 
L 603 4134 
L 603 4863 
z
" transform="scale(0.015625)"/>
      </defs>
      <use xlink:href="#DejaVuSans-6e"/>
      <use xlink:href="#DejaVuSans-61" transform="translate(63.378906 0)"/>
      <use xlink:href="#DejaVuSans-69" transform="translate(124.658203 0)"/>
      <use xlink:href="#DejaVuSans-76" transform="translate(152.441406 0)"/>
      <use xlink:href="#DejaVuSans-65" transform="translate(211.621094 0)"/>
     </g>
    </g>
    <g id="line2d_19">
     <path d="M 307.3875 34.976562 
L 307.3875 34.976562 
L 317.3875 34.976562 
L 317.3875 34.976562 
L 327.3875 34.976562 
" style="fill: none; stroke: #ff7f0e; stroke-width: 1.5; stroke-linecap: square"/>
    </g>
    <g id="text_18">
     <!-- wfm -->
     <g transform="translate(335.3875 38.476562) scale(0.1 -0.1)">
      <defs>
       <path id="DejaVuSans-66" d="M 2375 4863 
L 2375 4384 
L 1825 4384 
Q 1516 4384 1395 4259 
Q 1275 4134 1275 3809 
L 1275 3500 
L 2222 3500 
L 2222 3053 
L 1275 3053 
L 1275 0 
L 697 0 
L 697 3053 
L 147 3053 
L 147 3500 
L 697 3500 
L 697 3744 
Q 697 4328 969 4595 
Q 1241 4863 1831 4863 
L 2375 4863 
z
" transform="scale(0.015625)"/>
       <path id="DejaVuSans-6d" d="M 3328 2828 
Q 3544 3216 3844 3400 
Q 4144 3584 4550 3584 
Q 5097 3584 5394 3201 
Q 5691 2819 5691 2113 
L 5691 0 
L 5113 0 
L 5113 2094 
Q 5113 2597 4934 2840 
Q 4756 3084 4391 3084 
Q 3944 3084 3684 2787 
Q 3425 2491 3425 1978 
L 3425 0 
L 2847 0 
L 2847 2094 
Q 2847 2600 2669 2842 
Q 2491 3084 2119 3084 
Q 1678 3084 1418 2786 
Q 1159 2488 1159 1978 
L 1159 0 
L 581 0 
L 581 3500 
L 1159 3500 
L 1159 2956 
Q 1356 3278 1631 3431 
Q 1906 3584 2284 3584 
Q 2666 3584 2933 3390 
Q 3200 3197 3328 2828 
z
" transform="scale(0.015625)"/>
      </defs>
      <use xlink:href="#DejaVuSans-77"/>
      <use xlink:href="#DejaVuSans-66" transform="translate(81.787109 0)"/>
      <use xlink:href="#DejaVuSans-6d" transform="translate(116.992188 0)"/>
     </g>
    </g>
    <g id="line2d_20">
     <path d="M 307.3875 49.654688 
L 307.3875 49.654688 
L 317.3875 49.654688 
L 317.3875 49.654688 
L 327.3875 49.654688 
" style="fill: none; stroke: #2ca02c; stroke-width: 1.5; stroke-linecap: square"/>
    </g>
    <g id="text_19">
     <!-- original -->
     <g transform="translate(335.3875 53.154688) scale(0.1 -0.1)">
      <defs>
       <path id="DejaVuSans-72" d="M 2631 2963 
Q 2534 3019 2420 3045 
Q 2306 3072 2169 3072 
Q 1681 3072 1420 2755 
Q 1159 2438 1159 1844 
L 1159 0 
L 581 0 
L 581 3500 
L 1159 3500 
L 1159 2956 
Q 1341 3275 1631 3429 
Q 1922 3584 2338 3584 
Q 2397 3584 2469 3576 
Q 2541 3569 2628 3553 
L 2631 2963 
z
" transform="scale(0.015625)"/>
      </defs>
      <use xlink:href="#DejaVuSans-6f"/>
      <use xlink:href="#DejaVuSans-72" transform="translate(61.181641 0)"/>
      <use xlink:href="#DejaVuSans-69" transform="translate(102.294922 0)"/>
      <use xlink:href="#DejaVuSans-67" transform="translate(130.078125 0)"/>
      <use xlink:href="#DejaVuSans-69" transform="translate(193.554688 0)"/>
      <use xlink:href="#DejaVuSans-6e" transform="translate(221.337891 0)"/>
      <use xlink:href="#DejaVuSans-61" transform="translate(284.716797 0)"/>
      <use xlink:href="#DejaVuSans-6c" transform="translate(345.996094 0)"/>
     </g>
    </g>
   </g>
  </g>
 </g>
 <defs>
  <clipPath id="pcb4fe1613b">
   <rect x="46.965625" y="7.2" width="334.8" height="221.76"/>
  </clipPath>
 </defs>
</svg>
