<?xml version="1.0" encoding="utf-8" standalone="no"?>
<!DOCTYPE svg PUBLIC "-//W3C//DTD SVG 1.1//EN"
  "http://www.w3.org/Graphics/SVG/1.1/DTD/svg11.dtd">
<svg xmlns:xlink="http://www.w3.org/1999/xlink" width="388.965625pt" height="268.200625pt" viewBox="0 0 388.965625 268.200625" xmlns="http://www.w3.org/2000/svg" version="1.1">
 <metadata>
  <rdf:RDF xmlns:dc="http://purl.org/dc/elements/1.1/" xmlns:cc="http://creativecommons.org/ns#" xmlns:rdf="http://www.w3.org/1999/02/22-rdf-syntax-ns#">
   <cc:Work>
    <dc:type rdf:resource="http://purl.org/dc/dcmitype/StillImage"/>
    <dc:date>2025-10-10T17:28:35.904155</dc:date>
    <dc:format>image/svg+xml</dc:format>
    <dc:creator>
     <cc:Agent>
      <dc:title>Matplotlib v3.10.6, https://matplotlib.org/</dc:title>
     </cc:Agent>
    </dc:creator>
   </cc:Work>
  </rdf:RDF>
 </metadata>
 <defs>
  <style type="text/css">*{stroke-linejoin: round; stroke-linecap: butt}</style>
 </defs>
 <g id="figure_1">
  <g id="patch_1">
   <path d="M 0 268.200625 
L 388.965625 268.200625 
L 388.965625 0 
L 0 0 
z
" style="fill: #ffffff"/>
  </g>
  <g id="axes_1">
   <g id="patch_2">
    <path d="M 46.965625 228.96 
L 381.765625 228.96 
L 381.765625 7.2 
L 46.965625 7.2 
z
" style="fill: #ffffff"/>
   </g>
   <g id="matplotlib.axis_1">
    <g id="xtick_1">
     <g id="line2d_1">
      <defs>
       <path id="m2229637031" d="M 0 0 
L 0 3.5 
" style="stroke: #000000; stroke-width: 0.8"/>
      </defs>
      <g>
       <use xlink:href="#m2229637031" x="61.740479" y="228.96" style="stroke: #000000; stroke-width: 0.8"/>
      </g>
     </g>
     <g id="text_1">
      <!-- 2 -->
      <g transform="translate(58.559229 243.558437) scale(0.1 -0.1)">
       <defs>
        <path id="DejaVuSans-32" d="M 1228 531 
L 3431 531 
L 3431 0 
L 469 0 
L 469 531 
Q 828 903 1448 1529 
Q 2069 2156 2228 2338 
Q 2531 2678 2651 2914 
Q 2772 3150 2772 3378 
Q 2772 3750 2511 3984 
Q 2250 4219 1831 4219 
Q 1534 4219 1204 4116 
Q 875 4013 500 3803 
L 500 4441 
Q 881 4594 1212 4672 
Q 1544 4750 1819 4750 
Q 2544 4750 2975 4387 
Q 3406 4025 3406 3419 
Q 3406 3131 3298 2873 
Q 3191 2616 2906 2266 
Q 2828 2175 2409 1742 
Q 1991 1309 1228 531 
z
" transform="scale(0.015625)"/>
       </defs>
       <use xlink:href="#DejaVuSans-32"/>
      </g>
     </g>
    </g>
    <g id="xtick_2">
     <g id="line2d_2">
      <g>
       <use xlink:href="#m2229637031" x="102.460071" y="228.96" style="stroke: #000000; stroke-width: 0.8"/>
      </g>
     </g>
     <g id="text_2">
      <!-- 3 -->
      <g transform="translate(99.278821 243.558437) scale(0.1 -0.1)">
       <defs>
        <path id="DejaVuSans-33" d="M 2597 2516 
Q 3050 2419 3304 2112 
Q 3559 1806 3559 1356 
Q 3559 666 3084 287 
Q 2609 -91 1734 -91 
Q 1441 -91 1130 -33 
Q 819 25 488 141 
L 488 750 
Q 750 597 1062 519 
Q 1375 441 1716 441 
Q 2309 441 2620 675 
Q 2931 909 2931 1356 
Q 2931 1769 2642 2001 
Q 2353 2234 1838 2234 
L 1294 2234 
L 1294 2753 
L 1863 2753 
Q 2328 2753 2575 2939 
Q 2822 3125 2822 3475 
Q 2822 3834 2567 4026 
Q 2313 4219 1838 4219 
Q 1578 4219 1281 4162 
Q 984 4106 628 3988 
L 628 4550 
Q 988 4650 1302 4700 
Q 1616 4750 1894 4750 
Q 2613 4750 3031 4423 
Q 3450 4097 3450 3541 
Q 3450 3153 3228 2886 
Q 3006 2619 2597 2516 
z
" transform="scale(0.015625)"/>
       </defs>
       <use xlink:href="#DejaVuSans-33"/>
      </g>
     </g>
    </g>
    <g id="xtick_3">
     <g id="line2d_3">
      <g>
       <use xlink:href="#m2229637031" x="143.179662" y="228.96" style="stroke: #000000; stroke-width: 0.8"/>
      </g>
     </g>
     <g id="text_3">
      <!-- 4 -->
      <g transform="translate(139.998412 243.558437) scale(0.1 -0.1)">
       <defs>
        <path id="DejaVuSans-34" d="M 2419 4116 
L 825 1625 
L 2419 1625 
L 2419 4116 
z
M 2253 4666 
L 3047 4666 
L 3047 1625 
L 3713 1625 
L 3713 1100 
L 3047 1100 
L 3047 0 
L 2419 0 
L 2419 1100 
L 313 1100 
L 313 1709 
L 2253 4666 
z
" transform="scale(0.015625)"/>
       </defs>
       <use xlink:href="#DejaVuSans-34"/>
      </g>
     </g>
    </g>
    <g id="xtick_4">
     <g id="line2d_4">
      <g>
       <use xlink:href="#m2229637031" x="183.899253" y="228.96" style="stroke: #000000; stroke-width: 0.8"/>
      </g>
     </g>
     <g id="text_4">
      <!-- 5 -->
      <g transform="translate(180.718003 243.558437) scale(0.1 -0.1)">
       <defs>
        <path id="DejaVuSans-35" d="M 691 4666 
L 3169 4666 
L 3169 4134 
L 1269 4134 
L 1269 2991 
Q 1406 3038 1543 3061 
Q 1681 3084 1819 3084 
Q 2600 3084 3056 2656 
Q 3513 2228 3513 1497 
Q 3513 744 3044 326 
Q 2575 -91 1722 -91 
Q 1428 -91 1123 -41 
Q 819 9 494 109 
L 494 744 
Q 775 591 1075 516 
Q 1375 441 1709 441 
Q 2250 441 2565 725 
Q 2881 1009 2881 1497 
Q 2881 1984 2565 2268 
Q 2250 2553 1709 2553 
Q 1456 2553 1204 2497 
Q 953 2441 691 2322 
L 691 4666 
z
" transform="scale(0.015625)"/>
       </defs>
       <use xlink:href="#DejaVuSans-35"/>
      </g>
     </g>
    </g>
    <g id="xtick_5">
     <g id="line2d_5">
      <g>
       <use xlink:href="#m2229637031" x="224.618844" y="228.96" style="stroke: #000000; stroke-width: 0.8"/>
      </g>
     </g>
     <g id="text_5">
      <!-- 6 -->
      <g transform="translate(221.437594 243.558437) scale(0.1 -0.1)">
       <defs>
        <path id="DejaVuSans-36" d="M 2113 2584 
Q 1688 2584 1439 2293 
Q 1191 2003 1191 1497 
Q 1191 994 1439 701 
Q 1688 409 2113 409 
Q 2538 409 2786 701 
Q 3034 994 3034 1497 
Q 3034 2003 2786 2293 
Q 2538 2584 2113 2584 
z
M 3366 4563 
L 3366 3988 
Q 3128 4100 2886 4159 
Q 2644 4219 2406 4219 
Q 1781 4219 1451 3797 
Q 1122 3375 1075 2522 
Q 1259 2794 1537 2939 
Q 1816 3084 2150 3084 
Q 2853 3084 3261 2657 
Q 3669 2231 3669 1497 
Q 3669 778 3244 343 
Q 2819 -91 2113 -91 
Q 1303 -91 875 529 
Q 447 1150 447 2328 
Q 447 3434 972 4092 
Q 1497 4750 2381 4750 
Q 2619 4750 2861 4703 
Q 3103 4656 3366 4563 
z
" transform="scale(0.015625)"/>
       </defs>
       <use xlink:href="#DejaVuSans-36"/>
      </g>
     </g>
    </g>
    <g id="xtick_6">
     <g id="line2d_6">
      <g>
       <use xlink:href="#m2229637031" x="265.338435" y="228.96" style="stroke: #000000; stroke-width: 0.8"/>
      </g>
     </g>
     <g id="text_6">
      <!-- 7 -->
      <g transform="translate(262.157185 243.558437) scale(0.1 -0.1)">
       <defs>
        <path id="DejaVuSans-37" d="M 525 4666 
L 3525 4666 
L 3525 4397 
L 1831 0 
L 1172 0 
L 2766 4134 
L 525 4134 
L 525 4666 
z
" transform="scale(0.015625)"/>
       </defs>
       <use xlink:href="#DejaVuSans-37"/>
      </g>
     </g>
    </g>
    <g id="xtick_7">
     <g id="line2d_7">
      <g>
       <use xlink:href="#m2229637031" x="306.058027" y="228.96" style="stroke: #000000; stroke-width: 0.8"/>
      </g>
     </g>
     <g id="text_7">
      <!-- 8 -->
      <g transform="translate(302.876777 243.558437) scale(0.1 -0.1)">
       <defs>
        <path id="DejaVuSans-38" d="M 2034 2216 
Q 1584 2216 1326 1975 
Q 1069 1734 1069 1313 
Q 1069 891 1326 650 
Q 1584 409 2034 409 
Q 2484 409 2743 651 
Q 3003 894 3003 1313 
Q 3003 1734 2745 1975 
Q 2488 2216 2034 2216 
z
M 1403 2484 
Q 997 2584 770 2862 
Q 544 3141 544 3541 
Q 544 4100 942 4425 
Q 1341 4750 2034 4750 
Q 2731 4750 3128 4425 
Q 3525 4100 3525 3541 
Q 3525 3141 3298 2862 
Q 3072 2584 2669 2484 
Q 3125 2378 3379 2068 
Q 3634 1759 3634 1313 
Q 3634 634 3220 271 
Q 2806 -91 2034 -91 
Q 1263 -91 848 271 
Q 434 634 434 1313 
Q 434 1759 690 2068 
Q 947 2378 1403 2484 
z
M 1172 3481 
Q 1172 3119 1398 2916 
Q 1625 2713 2034 2713 
Q 2441 2713 2670 2916 
Q 2900 3119 2900 3481 
Q 2900 3844 2670 4047 
Q 2441 4250 2034 4250 
Q 1625 4250 1398 4047 
Q 1172 3844 1172 3481 
z
" transform="scale(0.015625)"/>
       </defs>
       <use xlink:href="#DejaVuSans-38"/>
      </g>
     </g>
    </g>
    <g id="xtick_8">
     <g id="line2d_8">
      <g>
       <use xlink:href="#m2229637031" x="346.777618" y="228.96" style="stroke: #000000; stroke-width: 0.8"/>
      </g>
     </g>
     <g id="text_8">
      <!-- 9 -->
      <g transform="translate(343.596368 243.558437) scale(0.1 -0.1)">
       <defs>
        <path id="DejaVuSans-39" d="M 703 97 
L 703 672 
Q 941 559 1184 500 
Q 1428 441 1663 441 
Q 2288 441 2617 861 
Q 2947 1281 2994 2138 
Q 2813 1869 2534 1725 
Q 2256 1581 1919 1581 
Q 1219 1581 811 2004 
Q 403 2428 403 3163 
Q 403 3881 828 4315 
Q 1253 4750 1959 4750 
Q 2769 4750 3195 4129 
Q 3622 3509 3622 2328 
Q 3622 1225 3098 567 
Q 2575 -91 1691 -91 
Q 1453 -91 1209 -44 
Q 966 3 703 97 
z
M 1959 2075 
Q 2384 2075 2632 2365 
Q 2881 2656 2881 3163 
Q 2881 3666 2632 3958 
Q 2384 4250 1959 4250 
Q 1534 4250 1286 3958 
Q 1038 3666 1038 3163 
Q 1038 2656 1286 2365 
Q 1534 2075 1959 2075 
z
" transform="scale(0.015625)"/>
       </defs>
       <use xlink:href="#DejaVuSans-39"/>
      </g>
     </g>
    </g>
    <g id="text_9">
     <!-- wavelength [Å] -->
     <g transform="translate(176.328125 258.920937) scale(0.1 -0.1)">
      <defs>
       <path id="DejaVuSans-77" d="M 269 3500 
L 844 3500 
L 1563 769 
L 2278 3500 
L 2956 3500 
L 3675 769 
L 4391 3500 
L 4966 3500 
L 4050 0 
L 3372 0 
L 2619 2869 
L 1863 0 
L 1184 0 
L 269 3500 
z
" transform="scale(0.015625)"/>
       <path id="DejaVuSans-61" d="M 2194 1759 
Q 1497 1759 1228 1600 
Q 959 1441 959 1056 
Q 959 750 1161 570 
Q 1363 391 1709 391 
Q 2188 391 2477 730 
Q 2766 1069 2766 1631 
L 2766 1759 
L 2194 1759 
z
M 3341 1997 
L 3341 0 
L 2766 0 
L 2766 531 
Q 2569 213 2275 61 
Q 1981 -91 1556 -91 
Q 1019 -91 701 211 
Q 384 513 384 1019 
Q 384 1609 779 1909 
Q 1175 2209 1959 2209 
L 2766 2209 
L 2766 2266 
Q 2766 2663 2505 2880 
Q 2244 3097 1772 3097 
Q 1472 3097 1187 3025 
Q 903 2953 641 2809 
L 641 3341 
Q 956 3463 1253 3523 
Q 1550 3584 1831 3584 
Q 2591 3584 2966 3190 
Q 3341 2797 3341 1997 
z
" transform="scale(0.015625)"/>
       <path id="DejaVuSans-76" d="M 191 3500 
L 800 3500 
L 1894 563 
L 2988 3500 
L 3597 3500 
L 2284 0 
L 1503 0 
L 191 3500 
z
" transform="scale(0.015625)"/>
       <path id="DejaVuSans-65" d="M 3597 1894 
L 3597 1613 
L 953 1613 
Q 991 1019 1311 708 
Q 1631 397 2203 397 
Q 2534 397 2845 478 
Q 3156 559 3463 722 
L 3463 178 
Q 3153 47 2828 -22 
Q 2503 -91 2169 -91 
Q 1331 -91 842 396 
Q 353 884 353 1716 
Q 353 2575 817 3079 
Q 1281 3584 2069 3584 
Q 2775 3584 3186 3129 
Q 3597 2675 3597 1894 
z
M 3022 2063 
Q 3016 2534 2758 2815 
Q 2500 3097 2075 3097 
Q 1594 3097 1305 2825 
Q 1016 2553 972 2059 
L 3022 2063 
z
" transform="scale(0.015625)"/>
       <path id="DejaVuSans-6c" d="M 603 4863 
L 1178 4863 
L 1178 0 
L 603 0 
L 603 4863 
z
" transform="scale(0.015625)"/>
       <path id="DejaVuSans-6e" d="M 3513 2113 
L 3513 0 
L 2938 0 
L 2938 2094 
Q 2938 2591 2744 2837 
Q 2550 3084 2163 3084 
Q 1697 3084 1428 2787 
Q 1159 2491 1159 1978 
L 1159 0 
L 581 0 
L 581 3500 
L 1159 3500 
L 1159 2956 
Q 1366 3272 1645 3428 
Q 1925 3584 2291 3584 
Q 2894 3584 3203 3211 
Q 3513 2838 3513 2113 
z
" transform="scale(0.015625)"/>
       <path id="DejaVuSans-67" d="M 2906 1791 
Q 2906 2416 2648 2759 
Q 2391 3103 1925 3103 
Q 1463 3103 1205 2759 
Q 947 2416 947 1791 
Q 947 1169 1205 825 
Q 1463 481 1925 481 
Q 2391 481 2648 825 
Q 2906 1169 2906 1791 
z
M 3481 434 
Q 3481 -459 3084 -895 
Q 2688 -1331 1869 -1331 
Q 1566 -1331 1297 -1286 
Q 1028 -1241 775 -1147 
L 775 -588 
Q 1028 -725 1275 -790 
Q 1522 -856 1778 -856 
Q 2344 -856 2625 -561 
Q 2906 -266 2906 331 
L 2906 616 
Q 2728 306 2450 153 
Q 2172 0 1784 0 
Q 1141 0 747 490 
Q 353 981 353 1791 
Q 353 2603 747 3093 
Q 1141 3584 1784 3584 
Q 2172 3584 2450 3431 
Q 2728 3278 2906 2969 
L 2906 3500 
L 3481 3500 
L 3481 434 
z
" transform="scale(0.015625)"/>
       <path id="DejaVuSans-74" d="M 1172 4494 
L 1172 3500 
L 2356 3500 
L 2356 3053 
L 1172 3053 
L 1172 1153 
Q 1172 725 1289 603 
Q 1406 481 1766 481 
L 2356 481 
L 2356 0 
L 1766 0 
Q 1100 0 847 248 
Q 594 497 594 1153 
L 594 3053 
L 172 3053 
L 172 3500 
L 594 3500 
L 594 4494 
L 1172 4494 
z
" transform="scale(0.015625)"/>
       <path id="DejaVuSans-68" d="M 3513 2113 
L 3513 0 
L 2938 0 
L 2938 2094 
Q 2938 2591 2744 2837 
Q 2550 3084 2163 3084 
Q 1697 3084 1428 2787 
Q 1159 2491 1159 1978 
L 1159 0 
L 581 0 
L 581 4863 
L 1159 4863 
L 1159 2956 
Q 1366 3272 1645 3428 
Q 1925 3584 2291 3584 
Q 2894 3584 3203 3211 
Q 3513 2838 3513 2113 
z
" transform="scale(0.015625)"/>
       <path id="DejaVuSans-20" transform="scale(0.015625)"/>
       <path id="DejaVuSans-5b" d="M 550 4863 
L 1875 4863 
L 1875 4416 
L 1125 4416 
L 1125 -397 
L 1875 -397 
L 1875 -844 
L 550 -844 
L 550 4863 
z
" transform="scale(0.015625)"/>
       <path id="DejaVuSans-c5" d="M 2663 5081 
Q 2663 5278 2523 5417 
Q 2384 5556 2188 5556 
Q 1988 5556 1852 5420 
Q 1716 5284 1716 5081 
Q 1716 4884 1853 4746 
Q 1991 4609 2188 4609 
Q 2384 4609 2523 4746 
Q 2663 4884 2663 5081 
z
M 2188 4044 
L 1338 1722 
L 3041 1722 
L 2188 4044 
z
M 1716 4366 
Q 1525 4494 1428 4673 
Q 1331 4853 1331 5081 
Q 1331 5441 1579 5691 
Q 1828 5941 2188 5941 
Q 2544 5941 2795 5689 
Q 3047 5438 3047 5081 
Q 3047 4863 2948 4678 
Q 2850 4494 2663 4366 
L 4325 0 
L 3669 0 
L 3244 1197 
L 1141 1197 
L 716 0 
L 50 0 
L 1716 4366 
z
" transform="scale(0.015625)"/>
       <path id="DejaVuSans-5d" d="M 1947 4863 
L 1947 -844 
L 622 -844 
L 622 -397 
L 1369 -397 
L 1369 4416 
L 622 4416 
L 622 4863 
L 1947 4863 
z
" transform="scale(0.015625)"/>
      </defs>
      <use xlink:href="#DejaVuSans-77"/>
      <use xlink:href="#DejaVuSans-61" transform="translate(81.787109 0)"/>
      <use xlink:href="#DejaVuSans-76" transform="translate(143.066406 0)"/>
      <use xlink:href="#DejaVuSans-65" transform="translate(202.246094 0)"/>
      <use xlink:href="#DejaVuSans-6c" transform="translate(263.769531 0)"/>
      <use xlink:href="#DejaVuSans-65" transform="translate(291.552734 0)"/>
      <use xlink:href="#DejaVuSans-6e" transform="translate(353.076172 0)"/>
      <use xlink:href="#DejaVuSans-67" transform="translate(416.455078 0)"/>
      <use xlink:href="#DejaVuSans-74" transform="translate(479.931641 0)"/>
      <use xlink:href="#DejaVuSans-68" transform="translate(519.140625 0)"/>
      <use xlink:href="#DejaVuSans-20" transform="translate(582.519531 0)"/>
      <use xlink:href="#DejaVuSans-5b" transform="translate(614.306641 0)"/>
      <use xlink:href="#DejaVuSans-c5" transform="translate(653.320312 0)"/>
      <use xlink:href="#DejaVuSans-5d" transform="translate(721.728516 0)"/>
     </g>
    </g>
   </g>
   <g id="matplotlib.axis_2">
    <g id="ytick_1">
     <g id="line2d_9">
      <defs>
       <path id="ma9d94c27eb" d="M 0 0 
L -3.5 0 
" style="stroke: #000000; stroke-width: 0.8"/>
      </defs>
      <g>
       <use xlink:href="#ma9d94c27eb" x="46.965625" y="218.88" style="stroke: #000000; stroke-width: 0.8"/>
      </g>
     </g>
     <g id="text_10">
      <!-- 0 -->
      <g transform="translate(33.603125 222.679219) scale(0.1 -0.1)">
       <defs>
        <path id="DejaVuSans-30" d="M 2034 4250 
Q 1547 4250 1301 3770 
Q 1056 3291 1056 2328 
Q 1056 1369 1301 889 
Q 1547 409 2034 409 
Q 2525 409 2770 889 
Q 3016 1369 3016 2328 
Q 3016 3291 2770 3770 
Q 2525 4250 2034 4250 
z
M 2034 4750 
Q 2819 4750 3233 4129 
Q 3647 3509 3647 2328 
Q 3647 1150 3233 529 
Q 2819 -91 2034 -91 
Q 1250 -91 836 529 
Q 422 1150 422 2328 
Q 422 3509 836 4129 
Q 1250 4750 2034 4750 
z
" transform="scale(0.015625)"/>
       </defs>
       <use xlink:href="#DejaVuSans-30"/>
      </g>
     </g>
    </g>
    <g id="ytick_2">
     <g id="line2d_10">
      <g>
       <use xlink:href="#ma9d94c27eb" x="46.965625" y="181.889174" style="stroke: #000000; stroke-width: 0.8"/>
      </g>
     </g>
     <g id="text_11">
      <!-- 100 -->
      <g transform="translate(20.878125 185.688393) scale(0.1 -0.1)">
       <defs>
        <path id="DejaVuSans-31" d="M 794 531 
L 1825 531 
L 1825 4091 
L 703 3866 
L 703 4441 
L 1819 4666 
L 2450 4666 
L 2450 531 
L 3481 531 
L 3481 0 
L 794 0 
L 794 531 
z
" transform="scale(0.015625)"/>
       </defs>
       <use xlink:href="#DejaVuSans-31"/>
       <use xlink:href="#DejaVuSans-30" transform="translate(63.623047 0)"/>
       <use xlink:href="#DejaVuSans-30" transform="translate(127.246094 0)"/>
      </g>
     </g>
    </g>
    <g id="ytick_3">
     <g id="line2d_11">
      <g>
       <use xlink:href="#ma9d94c27eb" x="46.965625" y="144.898349" style="stroke: #000000; stroke-width: 0.8"/>
      </g>
     </g>
     <g id="text_12">
      <!-- 200 -->
      <g transform="translate(20.878125 148.697567) scale(0.1 -0.1)">
       <use xlink:href="#DejaVuSans-32"/>
       <use xlink:href="#DejaVuSans-30" transform="translate(63.623047 0)"/>
       <use xlink:href="#DejaVuSans-30" transform="translate(127.246094 0)"/>
      </g>
     </g>
    </g>
    <g id="ytick_4">
     <g id="line2d_12">
      <g>
       <use xlink:href="#ma9d94c27eb" x="46.965625" y="107.907523" style="stroke: #000000; stroke-width: 0.8"/>
      </g>
     </g>
     <g id="text_13">
      <!-- 300 -->
      <g transform="translate(20.878125 111.706742) scale(0.1 -0.1)">
       <use xlink:href="#DejaVuSans-33"/>
       <use xlink:href="#DejaVuSans-30" transform="translate(63.623047 0)"/>
       <use xlink:href="#DejaVuSans-30" transform="translate(127.246094 0)"/>
      </g>
     </g>
    </g>
    <g id="ytick_5">
     <g id="line2d_13">
      <g>
       <use xlink:href="#ma9d94c27eb" x="46.965625" y="70.916697" style="stroke: #000000; stroke-width: 0.8"/>
      </g>
     </g>
     <g id="text_14">
      <!-- 400 -->
      <g transform="translate(20.878125 74.715916) scale(0.1 -0.1)">
       <use xlink:href="#DejaVuSans-34"/>
       <use xlink:href="#DejaVuSans-30" transform="translate(63.623047 0)"/>
       <use xlink:href="#DejaVuSans-30" transform="translate(127.246094 0)"/>
      </g>
     </g>
    </g>
    <g id="ytick_6">
     <g id="line2d_14">
      <g>
       <use xlink:href="#ma9d94c27eb" x="46.965625" y="33.925872" style="stroke: #000000; stroke-width: 0.8"/>
      </g>
     </g>
     <g id="text_15">
      <!-- 500 -->
      <g transform="translate(20.878125 37.72509) scale(0.1 -0.1)">
       <use xlink:href="#DejaVuSans-35"/>
       <use xlink:href="#DejaVuSans-30" transform="translate(63.623047 0)"/>
       <use xlink:href="#DejaVuSans-30" transform="translate(127.246094 0)"/>
      </g>
     </g>
    </g>
    <g id="text_16">
     <!-- [counts] -->
     <g transform="translate(14.798438 138.6925) rotate(-90) scale(0.1 -0.1)">
      <defs>
       <path id="DejaVuSans-63" d="M 3122 3366 
L 3122 2828 
Q 2878 2963 2633 3030 
Q 2388 3097 2138 3097 
Q 1578 3097 1268 2742 
Q 959 2388 959 1747 
Q 959 1106 1268 751 
Q 1578 397 2138 397 
Q 2388 397 2633 464 
Q 2878 531 3122 666 
L 3122 134 
Q 2881 22 2623 -34 
Q 2366 -91 2075 -91 
Q 1284 -91 818 406 
Q 353 903 353 1747 
Q 353 2603 823 3093 
Q 1294 3584 2113 3584 
Q 2378 3584 2631 3529 
Q 2884 3475 3122 3366 
z
" transform="scale(0.015625)"/>
       <path id="DejaVuSans-6f" d="M 1959 3097 
Q 1497 3097 1228 2736 
Q 959 2375 959 1747 
Q 959 1119 1226 758 
Q 1494 397 1959 397 
Q 2419 397 2687 759 
Q 2956 1122 2956 1747 
Q 2956 2369 2687 2733 
Q 2419 3097 1959 3097 
z
M 1959 3584 
Q 2709 3584 3137 3096 
Q 3566 2609 3566 1747 
Q 3566 888 3137 398 
Q 2709 -91 1959 -91 
Q 1206 -91 779 398 
Q 353 888 353 1747 
Q 353 2609 779 3096 
Q 1206 3584 1959 3584 
z
" transform="scale(0.015625)"/>
       <path id="DejaVuSans-75" d="M 544 1381 
L 544 3500 
L 1119 3500 
L 1119 1403 
Q 1119 906 1312 657 
Q 1506 409 1894 409 
Q 2359 409 2629 706 
Q 2900 1003 2900 1516 
L 2900 3500 
L 3475 3500 
L 3475 0 
L 2900 0 
L 2900 538 
Q 2691 219 2414 64 
Q 2138 -91 1772 -91 
Q 1169 -91 856 284 
Q 544 659 544 1381 
z
M 1991 3584 
L 1991 3584 
z
" transform="scale(0.015625)"/>
       <path id="DejaVuSans-73" d="M 2834 3397 
L 2834 2853 
Q 2591 2978 2328 3040 
Q 2066 3103 1784 3103 
Q 1356 3103 1142 2972 
Q 928 2841 928 2578 
Q 928 2378 1081 2264 
Q 1234 2150 1697 2047 
L 1894 2003 
Q 2506 1872 2764 1633 
Q 3022 1394 3022 966 
Q 3022 478 2636 193 
Q 2250 -91 1575 -91 
Q 1294 -91 989 -36 
Q 684 19 347 128 
L 347 722 
Q 666 556 975 473 
Q 1284 391 1588 391 
Q 1994 391 2212 530 
Q 2431 669 2431 922 
Q 2431 1156 2273 1281 
Q 2116 1406 1581 1522 
L 1381 1569 
Q 847 1681 609 1914 
Q 372 2147 372 2553 
Q 372 3047 722 3315 
Q 1072 3584 1716 3584 
Q 2034 3584 2315 3537 
Q 2597 3491 2834 3397 
z
" transform="scale(0.015625)"/>
      </defs>
      <use xlink:href="#DejaVuSans-5b"/>
      <use xlink:href="#DejaVuSans-63" transform="translate(39.013672 0)"/>
      <use xlink:href="#DejaVuSans-6f" transform="translate(93.994141 0)"/>
      <use xlink:href="#DejaVuSans-75" transform="translate(155.175781 0)"/>
      <use xlink:href="#DejaVuSans-6e" transform="translate(218.554688 0)"/>
      <use xlink:href="#DejaVuSans-74" transform="translate(281.933594 0)"/>
      <use xlink:href="#DejaVuSans-73" transform="translate(321.142578 0)"/>
      <use xlink:href="#DejaVuSans-5d" transform="translate(373.242188 0)"/>
     </g>
    </g>
   </g>
   <g id="line2d_15">
    <path d="M 76.589961 191.876697 
L 77.558664 191.876697 
L 77.558664 141.199266 
L 78.527367 141.199266 
L 78.527367 113.456147 
L 79.49607 113.456147 
L 79.49607 94.960734 
L 80.464773 94.960734 
L 80.464773 93.481101 
L 81.433476 93.481101 
L 81.433476 100.509358 
L 82.402179 100.509358 
L 82.402179 88.672294 
L 83.370881 88.672294 
L 83.370881 82.753761 
L 84.339584 82.753761 
L 84.339584 80.90422 
L 85.308287 80.90422 
L 85.308287 74.245872 
L 86.27699 74.245872 
L 86.27699 70.546789 
L 87.245693 70.546789 
L 87.245693 61.668991 
L 88.214396 61.668991 
L 88.214396 49.462018 
L 89.183099 49.462018 
L 89.183099 33.555963 
L 90.151802 33.555963 
L 90.151802 40.954128 
L 91.120504 40.954128 
L 91.120504 25.78789 
L 92.089207 25.78789 
L 92.089207 28.377248 
L 93.05791 28.377248 
L 93.05791 23.198532 
L 94.026613 23.198532 
L 94.026613 27.267523 
L 94.995316 27.267523 
L 94.995316 26.157798 
L 95.964019 26.157798 
L 95.964019 17.28 
L 96.932722 17.28 
L 96.932722 31.336514 
L 97.901424 31.336514 
L 97.901424 40.58422 
L 98.870127 40.58422 
L 98.870127 31.706422 
L 99.83883 31.706422 
L 99.83883 42.063853 
L 100.807533 42.063853 
L 100.807533 37.624954 
L 101.776236 37.624954 
L 101.776236 36.515229 
L 102.744939 36.515229 
L 102.744939 49.09211 
L 103.713642 49.09211 
L 103.713642 46.502752 
L 104.682345 46.502752 
L 104.682345 56.120367 
L 105.651047 56.120367 
L 105.651047 76.835229 
L 106.61975 76.835229 
L 106.61975 78.314862 
L 107.588453 78.314862 
L 107.588453 103.838532 
L 108.557156 103.838532 
L 108.557156 102.358899 
L 109.525859 102.358899 
L 109.525859 93.111193 
L 110.494562 93.111193 
L 110.494562 115.305688 
L 111.463265 115.305688 
L 111.463265 138.24 
L 112.431967 138.24 
L 112.431967 136.390459 
L 113.40067 136.390459 
L 113.40067 150.077064 
L 114.369373 150.077064 
L 114.369373 168.202569 
L 116.306779 168.202569 
L 116.306779 177.080367 
L 117.275482 177.080367 
L 117.275482 177.450275 
L 118.244185 177.450275 
L 118.244185 194.466055 
L 119.212888 194.466055 
L 119.212888 203.343853 
L 120.18159 203.343853 
L 120.18159 208.892477 
L 121.150293 208.892477 
L 121.150293 215.550826 
L 122.118996 215.550826 
L 122.118996 217.770275 
L 123.087699 217.770275 
L 123.087699 218.88 
L 131.806025 218.88 
L 131.806025 206.303119 
L 132.774728 206.303119 
L 132.774728 173.011376 
L 133.743431 173.011376 
L 133.743431 141.939083 
L 134.712133 141.939083 
L 134.712133 105.318165 
L 135.680836 105.318165 
L 135.680836 97.550092 
L 136.649539 97.550092 
L 136.649539 83.863486 
L 137.618242 83.863486 
L 137.618242 93.481101 
L 138.586945 93.481101 
L 138.586945 86.082936 
L 139.555648 86.082936 
L 139.555648 97.92 
L 140.524351 97.92 
L 140.524351 106.797798 
L 141.493054 106.797798 
L 141.493054 92.001468 
L 142.461756 92.001468 
L 142.461756 95.70055 
L 143.430459 95.70055 
L 143.430459 107.907523 
L 144.399162 107.907523 
L 144.399162 102.358899 
L 145.367865 102.358899 
L 145.367865 112.71633 
L 146.336568 112.71633 
L 146.336568 116.045505 
L 147.305271 116.045505 
L 147.305271 102.358899 
L 148.273974 102.358899 
L 148.273974 111.606606 
L 149.242676 111.606606 
L 149.242676 115.675596 
L 150.211379 115.675596 
L 150.211379 123.073761 
L 151.180082 123.073761 
L 151.180082 106.057982 
L 152.148785 106.057982 
L 152.148785 119.744587 
L 153.117488 119.744587 
L 153.117488 105.688073 
L 154.086191 105.688073 
L 154.086191 124.923303 
L 155.054894 124.923303 
L 155.054894 116.415413 
L 156.023597 116.415413 
L 156.023597 122.703853 
L 156.992299 122.703853 
L 156.992299 124.923303 
L 157.961002 124.923303 
L 157.961002 129.73211 
L 158.929705 129.73211 
L 158.929705 124.923303 
L 159.898408 124.923303 
L 159.898408 127.882569 
L 160.867111 127.882569 
L 160.867111 134.540917 
L 161.835814 134.540917 
L 161.835814 139.349725 
L 162.804517 139.349725 
L 162.804517 132.691376 
L 163.773219 132.691376 
L 163.773219 136.02055 
L 164.741922 136.02055 
L 164.741922 133.431193 
L 165.710625 133.431193 
L 165.710625 142.678899 
L 166.679328 142.678899 
L 166.679328 151.186789 
L 167.648031 151.186789 
L 167.648031 134.540917 
L 168.616734 134.540917 
L 168.616734 137.870092 
L 169.585437 137.870092 
L 169.585437 161.174312 
L 170.55414 161.174312 
L 170.55414 153.776147 
L 171.522842 153.776147 
L 171.522842 157.475229 
L 172.491545 157.475229 
L 172.491545 163.393761 
L 173.460248 163.393761 
L 173.460248 170.791927 
L 174.428951 170.791927 
L 174.428951 177.820183 
L 175.397654 177.820183 
L 175.397654 184.108624 
L 176.366357 184.108624 
L 176.366357 186.328073 
L 177.33506 186.328073 
L 177.33506 199.644771 
L 178.303762 199.644771 
L 178.303762 202.973945 
L 179.272465 202.973945 
L 179.272465 204.823486 
L 180.241168 204.823486 
L 180.241168 207.782752 
L 181.209871 207.782752 
L 181.209871 214.811009 
L 182.178574 214.811009 
L 182.178574 215.550826 
L 183.147277 215.550826 
L 183.147277 218.88 
L 184.11598 218.88 
L 184.11598 216.290642 
L 185.084683 216.290642 
L 185.084683 207.042936 
L 186.053385 207.042936 
L 186.053385 190.766972 
L 187.022088 190.766972 
L 187.022088 175.600734 
L 187.990791 175.600734 
L 187.990791 160.434495 
L 188.959494 160.434495 
L 188.959494 153.03633 
L 189.928197 153.03633 
L 189.928197 155.25578 
L 190.8969 155.25578 
L 190.8969 147.487706 
L 191.865603 147.487706 
L 191.865603 152.666422 
L 192.834305 152.666422 
L 192.834305 151.556697 
L 193.803008 151.556697 
L 193.803008 160.804404 
L 194.771711 160.804404 
L 194.771711 160.434495 
L 195.740414 160.434495 
L 195.740414 154.885872 
L 196.709117 154.885872 
L 196.709117 160.064587 
L 197.67782 160.064587 
L 197.67782 154.885872 
L 198.646523 154.885872 
L 198.646523 162.284037 
L 199.615226 162.284037 
L 199.615226 153.406239 
L 200.583928 153.406239 
L 200.583928 157.845138 
L 201.552631 157.845138 
L 201.552631 166.353028 
L 202.521334 166.353028 
L 202.521334 164.503486 
L 203.490037 164.503486 
L 203.490037 160.434495 
L 204.45874 160.434495 
L 204.45874 158.584954 
L 205.427443 158.584954 
L 205.427443 169.312294 
L 206.396146 169.312294 
L 206.396146 167.832661 
L 207.364849 167.832661 
L 207.364849 168.942385 
L 208.333551 168.942385 
L 208.333551 170.05211 
L 209.302254 170.05211 
L 209.302254 176.34055 
L 210.270957 176.34055 
L 210.270957 180.77945 
L 211.23966 180.77945 
L 211.23966 179.299817 
L 212.208363 179.299817 
L 212.208363 176.34055 
L 213.177066 176.34055 
L 213.177066 185.588257 
L 214.145769 185.588257 
L 214.145769 183.738716 
L 215.114471 183.738716 
L 215.114471 185.958165 
L 216.083174 185.958165 
L 216.083174 180.039633 
L 217.051877 180.039633 
L 217.051877 193.35633 
L 218.02058 193.35633 
L 218.02058 192.986422 
L 218.989283 192.986422 
L 218.989283 195.205872 
L 219.957986 195.205872 
L 219.957986 199.644771 
L 220.926689 199.644771 
L 220.926689 201.124404 
L 221.895392 201.124404 
L 221.895392 206.303119 
L 222.864094 206.303119 
L 222.864094 205.563303 
L 223.832797 205.563303 
L 223.832797 206.673028 
L 224.8015 206.673028 
L 224.8015 205.563303 
L 225.770203 205.563303 
L 225.770203 210.002202 
L 226.738906 210.002202 
L 226.738906 210.37211 
L 227.707609 210.37211 
L 227.707609 213.331376 
L 228.676312 213.331376 
L 228.676312 217.030459 
L 229.645014 217.030459 
L 229.645014 218.140183 
L 230.613717 218.140183 
L 230.613717 217.770275 
L 231.58242 217.770275 
L 231.58242 215.550826 
L 232.551123 215.550826 
L 232.551123 211.851743 
L 233.519826 211.851743 
L 233.519826 204.08367 
L 234.488529 204.08367 
L 234.488529 200.754495 
L 235.457232 200.754495 
L 235.457232 192.246606 
L 236.425935 192.246606 
L 236.425935 187.807706 
L 237.394637 187.807706 
L 237.394637 184.478532 
L 238.36334 184.478532 
L 238.36334 194.096147 
L 239.332043 194.096147 
L 239.332043 192.246606 
L 240.300746 192.246606 
L 240.300746 187.807706 
L 241.269449 187.807706 
L 241.269449 195.945688 
L 242.238152 195.945688 
L 242.238152 194.096147 
L 243.206855 194.096147 
L 243.206855 195.205872 
L 244.175557 195.205872 
L 244.175557 197.425321 
L 245.14426 197.425321 
L 245.14426 196.315596 
L 246.112963 196.315596 
L 246.112963 195.945688 
L 247.081666 195.945688 
L 247.081666 198.904954 
L 248.050369 198.904954 
L 248.050369 201.86422 
L 249.019072 201.86422 
L 249.019072 200.754495 
L 249.987775 200.754495 
L 249.987775 198.535046 
L 250.956478 198.535046 
L 250.956478 201.86422 
L 252.893883 201.86422 
L 252.893883 204.823486 
L 253.862586 204.823486 
L 253.862586 206.673028 
L 254.831289 206.673028 
L 254.831289 204.08367 
L 255.799992 204.08367 
L 255.799992 208.522569 
L 256.768695 208.522569 
L 256.768695 207.042936 
L 257.737398 207.042936 
L 257.737398 210.37211 
L 258.706101 210.37211 
L 258.706101 212.59156 
L 259.674803 212.59156 
L 259.674803 209.632294 
L 260.643506 209.632294 
L 260.643506 210.002202 
L 261.612209 210.002202 
L 261.612209 210.742018 
L 262.580912 210.742018 
L 262.580912 214.071193 
L 263.549615 214.071193 
L 263.549615 214.441101 
L 264.518318 214.441101 
L 264.518318 213.701284 
L 265.487021 213.701284 
L 265.487021 213.331376 
L 266.455723 213.331376 
L 266.455723 212.961468 
L 267.424426 212.961468 
L 267.424426 215.180917 
L 268.393129 215.180917 
L 268.393129 215.550826 
L 270.330535 215.550826 
L 270.330535 216.290642 
L 272.267941 216.290642 
L 272.267941 217.400367 
L 273.236644 217.400367 
L 273.236644 218.88 
L 277.111455 218.88 
L 277.111455 218.510092 
L 278.080158 218.510092 
L 278.080158 214.071193 
L 279.048861 214.071193 
L 279.048861 210.37211 
L 280.017564 210.37211 
L 280.017564 207.782752 
L 280.986266 207.782752 
L 280.986266 205.933211 
L 281.954969 205.933211 
L 281.954969 204.08367 
L 282.923672 204.08367 
L 282.923672 202.973945 
L 283.892375 202.973945 
L 283.892375 207.042936 
L 284.861078 207.042936 
L 284.861078 204.08367 
L 285.829781 204.08367 
L 285.829781 207.042936 
L 286.798484 207.042936 
L 286.798484 206.303119 
L 287.767187 206.303119 
L 287.767187 208.522569 
L 288.735889 208.522569 
L 288.735889 210.002202 
L 290.673295 210.002202 
L 290.673295 211.481835 
L 291.641998 211.481835 
L 291.641998 210.37211 
L 292.610701 210.37211 
L 292.610701 208.892477 
L 293.579404 208.892477 
L 293.579404 212.221651 
L 294.548107 212.221651 
L 294.548107 213.331376 
L 295.516809 213.331376 
L 295.516809 211.111927 
L 296.485512 211.111927 
L 296.485512 211.851743 
L 297.454215 211.851743 
L 297.454215 214.441101 
L 298.422918 214.441101 
L 298.422918 214.811009 
L 300.360324 214.811009 
L 300.360324 212.59156 
L 301.329027 212.59156 
L 301.329027 215.550826 
L 302.29773 215.550826 
L 302.29773 216.66055 
L 303.266432 216.66055 
L 303.266432 214.441101 
L 304.235135 214.441101 
L 304.235135 216.66055 
L 305.203838 216.66055 
L 305.203838 215.920734 
L 307.141244 215.920734 
L 307.141244 215.550826 
L 308.109947 215.550826 
L 308.109947 217.400367 
L 311.016055 217.400367 
L 311.016055 216.66055 
L 311.984758 216.66055 
L 311.984758 218.88 
L 313.922164 218.88 
L 313.922164 218.140183 
L 314.890867 218.140183 
L 314.890867 217.770275 
L 315.85957 217.770275 
L 315.85957 218.88 
L 321.671787 218.88 
L 321.671787 218.140183 
L 322.64049 218.140183 
L 322.64049 218.510092 
L 323.609193 218.510092 
L 323.609193 217.770275 
L 324.577896 217.770275 
L 324.577896 215.550826 
L 325.546598 215.550826 
L 325.546598 210.37211 
L 326.515301 210.37211 
L 326.515301 210.002202 
L 327.484004 210.002202 
L 327.484004 208.152661 
L 328.452707 208.152661 
L 328.452707 207.782752 
L 329.42141 207.782752 
L 329.42141 207.042936 
L 330.390113 207.042936 
L 330.390113 202.973945 
L 332.327518 202.973945 
L 332.327518 204.823486 
L 333.296221 204.823486 
L 333.296221 202.973945 
L 335.233627 202.973945 
L 335.233627 198.535046 
L 336.20233 198.535046 
L 336.20233 197.425321 
L 337.171033 197.425321 
L 337.171033 203.713761 
L 338.139736 203.713761 
L 338.139736 198.904954 
L 339.108439 198.904954 
L 339.108439 205.933211 
L 341.045844 205.933211 
L 341.045844 207.782752 
L 342.014547 207.782752 
L 342.014547 201.494312 
L 342.98325 201.494312 
L 342.98325 205.933211 
L 343.951953 205.933211 
L 343.951953 205.193394 
L 344.920656 205.193394 
L 344.920656 207.782752 
L 345.889359 207.782752 
L 345.889359 208.522569 
L 346.858061 208.522569 
L 346.858061 208.152661 
L 347.826764 208.152661 
L 347.826764 208.892477 
L 348.795467 208.892477 
L 348.795467 206.673028 
L 349.76417 206.673028 
L 349.76417 204.08367 
L 350.732873 204.08367 
L 350.732873 209.262385 
L 352.670279 209.262385 
L 352.670279 208.152661 
L 353.638982 208.152661 
L 353.638982 210.37211 
L 354.607684 210.37211 
L 354.607684 211.481835 
L 355.576387 211.481835 
L 355.576387 210.37211 
L 356.54509 210.37211 
L 356.54509 211.481835 
L 357.513793 211.481835 
L 357.513793 214.811009 
L 358.482496 214.811009 
L 358.482496 215.920734 
L 359.451199 215.920734 
L 359.451199 213.331376 
L 360.419902 213.331376 
L 360.419902 212.961468 
L 361.388604 212.961468 
L 361.388604 213.331376 
L 362.357307 213.331376 
L 362.357307 215.920734 
L 363.32601 215.920734 
L 363.32601 215.180917 
L 364.294713 215.180917 
L 364.294713 217.030459 
L 365.263416 217.030459 
L 365.263416 217.400367 
L 366.232119 217.400367 
L 366.232119 218.140183 
L 367.200822 218.140183 
L 367.200822 218.140183 
" clip-path="url(#p5e6f7a7420)" style="fill: none; stroke: #1f77b4; stroke-width: 1.5; stroke-linecap: square"/>
   </g>
   <g id="line2d_16">
    <path d="M 62.85435 196.315596 
L 63.863764 196.315596 
L 63.863764 171.161835 
L 64.873179 171.161835 
L 64.873179 150.077064 
L 65.882593 150.077064 
L 65.882593 128.992294 
L 66.892008 128.992294 
L 66.892008 114.565872 
L 67.901422 114.565872 
L 67.901422 119.004771 
L 68.910837 119.004771 
L 68.910837 131.211743 
L 69.920251 131.211743 
L 69.920251 105.318165 
L 70.929666 105.318165 
L 70.929666 113.456147 
L 71.939081 113.456147 
L 71.939081 110.496881 
L 72.948495 110.496881 
L 72.948495 103.098716 
L 73.95791 103.098716 
L 73.95791 100.13945 
L 74.967324 100.13945 
L 74.967324 93.111193 
L 75.976739 93.111193 
L 75.976739 102.728807 
L 76.986153 102.728807 
L 76.986153 83.863486 
L 77.995568 83.863486 
L 77.995568 71.656514 
L 79.004983 71.656514 
L 79.004983 75.725505 
L 80.014397 75.725505 
L 80.014397 64.258349 
L 81.023812 64.258349 
L 81.023812 74.61578 
L 82.033226 74.61578 
L 82.033226 64.998165 
L 83.042641 64.998165 
L 83.042641 63.518532 
L 84.052055 63.518532 
L 84.052055 47.242569 
L 85.06147 47.242569 
L 85.06147 63.88844 
L 86.070884 63.88844 
L 86.070884 60.559266 
L 87.080299 60.559266 
L 87.080299 54.640734 
L 88.089714 54.640734 
L 88.089714 63.518532 
L 89.099128 63.518532 
L 89.099128 59.449541 
L 90.108543 59.449541 
L 90.108543 82.383853 
L 91.117957 82.383853 
L 91.117957 71.656514 
L 92.127372 71.656514 
L 92.127372 79.794495 
L 93.136786 79.794495 
L 93.136786 62.778716 
L 94.146201 62.778716 
L 94.146201 67.957431 
L 95.155616 67.957431 
L 95.155616 59.81945 
L 96.16503 59.81945 
L 96.16503 83.493578 
L 97.174445 83.493578 
L 97.174445 72.026422 
L 98.183859 72.026422 
L 98.183859 81.644037 
L 99.193274 81.644037 
L 99.193274 91.261651 
L 100.202688 91.261651 
L 100.202688 121.594128 
L 101.212103 121.594128 
L 101.212103 107.537615 
L 102.221517 107.537615 
L 102.221517 119.004771 
L 103.230932 119.004771 
L 103.230932 122.703853 
L 104.240347 122.703853 
L 104.240347 143.418716 
L 105.249761 143.418716 
L 105.249761 111.236697 
L 106.259176 111.236697 
L 106.259176 136.02055 
L 107.26859 136.02055 
L 107.26859 150.446972 
L 108.278005 150.446972 
L 108.278005 146.377982 
L 109.287419 146.377982 
L 109.287419 156.365505 
L 110.296834 156.365505 
L 110.296834 170.05211 
L 111.306249 170.05211 
L 111.306249 173.381284 
L 112.315663 173.381284 
L 112.315663 175.230826 
L 113.325078 175.230826 
L 113.325078 182.998899 
L 114.334492 182.998899 
L 114.334492 187.807706 
L 115.343907 187.807706 
L 115.343907 179.299817 
L 116.353321 179.299817 
L 116.353321 198.165138 
L 117.362736 198.165138 
L 117.362736 185.958165 
L 118.372151 185.958165 
L 118.372151 174.860917 
L 119.381565 174.860917 
L 119.381565 165.243303 
L 120.39098 165.243303 
L 120.39098 156.735413 
L 121.400394 156.735413 
L 121.400394 139.349725 
L 122.409809 139.349725 
L 122.409809 121.964037 
L 123.419223 121.964037 
L 123.419223 107.907523 
L 124.428638 107.907523 
L 124.428638 130.471927 
L 125.438052 130.471927 
L 125.438052 107.167706 
L 126.447467 107.167706 
L 126.447467 97.92 
L 127.456882 97.92 
L 127.456882 128.252477 
L 128.466296 128.252477 
L 128.466296 137.130275 
L 129.475711 137.130275 
L 129.475711 119.374679 
L 130.485125 119.374679 
L 130.485125 103.838532 
L 131.49454 103.838532 
L 131.49454 115.305688 
L 132.503954 115.305688 
L 132.503954 131.95156 
L 133.513369 131.95156 
L 133.513369 128.252477 
L 134.522784 128.252477 
L 134.522784 129.73211 
L 135.532198 129.73211 
L 135.532198 116.045505 
L 136.541613 116.045505 
L 136.541613 149.707156 
L 137.551027 149.707156 
L 137.551027 124.923303 
L 138.560442 124.923303 
L 138.560442 121.964037 
L 139.569856 121.964037 
L 139.569856 151.556697 
L 140.579271 151.556697 
L 140.579271 116.785321 
L 141.588685 116.785321 
L 141.588685 136.390459 
L 142.5981 136.390459 
L 142.5981 124.923303 
L 143.607515 124.923303 
L 143.607515 146.377982 
L 144.616929 146.377982 
L 144.616929 127.512661 
L 145.626344 127.512661 
L 145.626344 133.061284 
L 146.635758 133.061284 
L 146.635758 137.870092 
L 147.645173 137.870092 
L 147.645173 133.431193 
L 148.654587 133.431193 
L 148.654587 148.967339 
L 149.664002 148.967339 
L 149.664002 127.142752 
L 150.673417 127.142752 
L 150.673417 150.816881 
L 151.682831 150.816881 
L 151.682831 146.008073 
L 152.692246 146.008073 
L 152.692246 127.142752 
L 153.70166 127.142752 
L 153.70166 156.735413 
L 154.711075 156.735413 
L 154.711075 148.967339 
L 155.720489 148.967339 
L 155.720489 139.719633 
L 156.729904 139.719633 
L 156.729904 157.475229 
L 157.739318 157.475229 
L 157.739318 156.735413 
L 158.748733 156.735413 
L 158.748733 149.337248 
L 159.758148 149.337248 
L 159.758148 145.268257 
L 160.767562 145.268257 
L 160.767562 167.092844 
L 161.776977 167.092844 
L 161.776977 157.475229 
L 162.786391 157.475229 
L 162.786391 155.625688 
L 163.795806 155.625688 
L 163.795806 157.475229 
L 164.80522 157.475229 
L 164.80522 150.816881 
L 165.814635 150.816881 
L 165.814635 166.722936 
L 166.82405 166.722936 
L 166.82405 165.613211 
L 167.833464 165.613211 
L 167.833464 171.161835 
L 168.842879 171.161835 
L 168.842879 167.462752 
L 169.852293 167.462752 
L 169.852293 171.161835 
L 170.861708 171.161835 
L 170.861708 163.76367 
L 171.871122 163.76367 
L 171.871122 165.983119 
L 172.880537 165.983119 
L 172.880537 158.954862 
L 173.889951 158.954862 
L 173.889951 155.625688 
L 174.899366 155.625688 
L 174.899366 160.804404 
L 175.908781 160.804404 
L 175.908781 152.296514 
L 176.918195 152.296514 
L 176.918195 148.227523 
L 177.92761 148.227523 
L 177.92761 159.324771 
L 178.937024 159.324771 
L 178.937024 149.337248 
L 179.946439 149.337248 
L 179.946439 154.146055 
L 180.955853 154.146055 
L 180.955853 160.804404 
L 181.965268 160.804404 
L 181.965268 179.669725 
L 182.974683 179.669725 
L 182.974683 170.791927 
L 183.984097 170.791927 
L 183.984097 162.653945 
L 184.993512 162.653945 
L 184.993512 173.381284 
L 186.002926 173.381284 
L 186.002926 170.05211 
L 187.012341 170.05211 
L 187.012341 149.707156 
L 188.021755 149.707156 
L 188.021755 176.34055 
L 189.03117 176.34055 
L 189.03117 180.77945 
L 190.040584 180.77945 
L 190.040584 162.653945 
L 191.049999 162.653945 
L 191.049999 164.503486 
L 192.059414 164.503486 
L 192.059414 179.669725 
L 193.068828 179.669725 
L 193.068828 164.133578 
L 194.078243 164.133578 
L 194.078243 183.738716 
L 195.087657 183.738716 
L 195.087657 177.450275 
L 197.106486 177.450275 
L 197.106486 139.719633 
L 198.115901 139.719633 
L 198.115901 197.795229 
L 199.125316 197.795229 
L 199.125316 195.945688 
L 200.13473 195.945688 
L 200.13473 148.227523 
L 201.144145 148.227523 
L 201.144145 200.384587 
L 202.153559 200.384587 
L 202.153559 179.299817 
L 203.162974 179.299817 
L 203.162974 185.218349 
L 204.172388 185.218349 
L 204.172388 197.055413 
L 205.181803 197.055413 
L 205.181803 191.136881 
L 206.191217 191.136881 
L 206.191217 185.588257 
L 207.200632 185.588257 
L 207.200632 198.165138 
L 208.210047 198.165138 
L 208.210047 186.328073 
L 209.219461 186.328073 
L 209.219461 187.06789 
L 210.228876 187.06789 
L 210.228876 195.945688 
L 211.23829 195.945688 
L 211.23829 187.807706 
L 212.247705 187.807706 
L 212.247705 198.535046 
L 213.257119 198.535046 
L 213.257119 195.57578 
L 214.266534 195.57578 
L 214.266534 200.754495 
L 215.275949 200.754495 
L 215.275949 201.494312 
L 216.285363 201.494312 
L 216.285363 199.644771 
L 217.294778 199.644771 
L 217.294778 204.453578 
L 218.304192 204.453578 
L 218.304192 196.685505 
L 219.313607 196.685505 
L 219.313607 198.535046 
L 220.323021 198.535046 
L 220.323021 194.835963 
L 221.332436 194.835963 
L 221.332436 192.986422 
L 222.34185 192.986422 
L 222.34185 187.807706 
L 223.351265 187.807706 
L 223.351265 192.986422 
L 224.36068 192.986422 
L 224.36068 185.958165 
L 225.370094 185.958165 
L 225.370094 182.259083 
L 226.379509 182.259083 
L 226.379509 193.726239 
L 227.388923 193.726239 
L 227.388923 199.274862 
L 228.398338 199.274862 
L 228.398338 196.315596 
L 229.407752 196.315596 
L 229.407752 196.685505 
L 230.417167 196.685505 
L 230.417167 204.08367 
L 232.435996 204.08367 
L 232.435996 187.807706 
L 233.445411 187.807706 
L 233.445411 203.343853 
L 234.454825 203.343853 
L 234.454825 203.713761 
L 235.46424 203.713761 
L 235.46424 204.453578 
L 236.473654 204.453578 
L 236.473654 202.604037 
L 237.483069 202.604037 
L 237.483069 197.795229 
L 238.492484 197.795229 
L 238.492484 207.782752 
L 239.501898 207.782752 
L 239.501898 191.136881 
L 240.511313 191.136881 
L 240.511313 203.713761 
L 241.520727 203.713761 
L 241.520727 211.481835 
L 242.530142 211.481835 
L 242.530142 204.08367 
L 243.539556 204.08367 
L 243.539556 204.823486 
L 245.558385 204.823486 
L 245.558385 213.331376 
L 246.5678 213.331376 
L 246.5678 210.37211 
L 247.577215 210.37211 
L 247.577215 201.494312 
L 248.586629 201.494312 
L 248.586629 215.180917 
L 249.596044 215.180917 
L 249.596044 210.742018 
L 251.614873 210.742018 
L 251.614873 213.701284 
L 252.624287 213.701284 
L 252.624287 210.742018 
L 253.633702 210.742018 
L 253.633702 214.071193 
L 254.643117 214.071193 
L 254.643117 210.002202 
L 255.652531 210.002202 
L 255.652531 212.221651 
L 256.661946 212.221651 
L 256.661946 210.742018 
L 257.67136 210.742018 
L 257.67136 216.66055 
L 258.680775 216.66055 
L 258.680775 214.811009 
L 259.690189 214.811009 
L 259.690189 215.180917 
L 260.699604 215.180917 
L 260.699604 213.331376 
L 261.709018 213.331376 
L 261.709018 216.66055 
L 262.718433 216.66055 
L 262.718433 213.331376 
L 263.727848 213.331376 
L 263.727848 206.673028 
L 264.737262 206.673028 
L 264.737262 211.111927 
L 265.746677 211.111927 
L 265.746677 213.331376 
L 266.756091 213.331376 
L 266.756091 207.042936 
L 267.765506 207.042936 
L 267.765506 208.892477 
L 268.77492 208.892477 
L 268.77492 208.152661 
L 269.784335 208.152661 
L 269.784335 209.262385 
L 270.79375 209.262385 
L 270.79375 205.193394 
L 271.803164 205.193394 
L 271.803164 205.933211 
L 272.812579 205.933211 
L 272.812579 210.37211 
L 273.821993 210.37211 
L 273.821993 203.713761 
L 274.831408 203.713761 
L 274.831408 209.262385 
L 275.840822 209.262385 
L 275.840822 210.37211 
L 276.850237 210.37211 
L 276.850237 212.961468 
L 277.859651 212.961468 
L 277.859651 210.002202 
L 278.869066 210.002202 
L 278.869066 208.152661 
L 279.878481 208.152661 
L 279.878481 212.961468 
L 280.887895 212.961468 
L 280.887895 214.071193 
L 281.89731 214.071193 
L 281.89731 210.37211 
L 282.906724 210.37211 
L 282.906724 215.550826 
L 283.916139 215.550826 
L 283.916139 209.632294 
L 284.925553 209.632294 
L 284.925553 214.811009 
L 285.934968 214.811009 
L 285.934968 214.071193 
L 286.944383 214.071193 
L 286.944383 211.481835 
L 287.953797 211.481835 
L 287.953797 213.331376 
L 288.963212 213.331376 
L 288.963212 216.290642 
L 289.972626 216.290642 
L 289.972626 211.851743 
L 290.982041 211.851743 
L 290.982041 215.920734 
L 291.991455 215.920734 
L 291.991455 215.180917 
L 293.00087 215.180917 
L 293.00087 216.66055 
L 294.010284 216.66055 
L 294.010284 214.811009 
L 295.019699 214.811009 
L 295.019699 215.180917 
L 296.029114 215.180917 
L 296.029114 217.030459 
L 298.047943 217.030459 
L 298.047943 215.180917 
L 299.057357 215.180917 
L 299.057357 216.290642 
L 300.066772 216.290642 
L 300.066772 216.66055 
L 301.076186 216.66055 
L 301.076186 217.030459 
L 302.085601 217.030459 
L 302.085601 217.400367 
L 303.095016 217.400367 
L 303.095016 215.180917 
L 304.10443 215.180917 
L 304.10443 217.030459 
L 305.113845 217.030459 
L 305.113845 217.770275 
L 306.123259 217.770275 
L 306.123259 217.400367 
L 307.132674 217.400367 
L 307.132674 217.770275 
L 308.142088 217.770275 
L 308.142088 215.550826 
L 309.151503 215.550826 
L 309.151503 217.770275 
L 310.160917 217.770275 
L 310.160917 214.811009 
L 311.170332 214.811009 
L 311.170332 212.59156 
L 312.179747 212.59156 
L 312.179747 211.851743 
L 313.189161 211.851743 
L 313.189161 211.111927 
L 314.198576 211.111927 
L 314.198576 215.180917 
L 315.20799 215.180917 
L 315.20799 216.290642 
L 316.217405 216.290642 
L 316.217405 205.933211 
L 317.226819 205.933211 
L 317.226819 210.742018 
L 318.236234 210.742018 
L 318.236234 208.892477 
L 319.245649 208.892477 
L 319.245649 207.042936 
L 321.264478 207.042936 
L 321.264478 210.37211 
L 322.273892 210.37211 
L 322.273892 193.35633 
L 323.283307 193.35633 
L 323.283307 211.481835 
L 324.292721 211.481835 
L 324.292721 203.713761 
L 325.302136 203.713761 
L 325.302136 202.234128 
L 326.31155 202.234128 
L 326.31155 208.522569 
L 327.320965 208.522569 
L 327.320965 200.384587 
L 328.33038 200.384587 
L 328.33038 196.315596 
L 329.339794 196.315596 
L 329.339794 215.550826 
L 330.349209 215.550826 
L 330.349209 211.111927 
L 331.358623 211.111927 
L 331.358623 203.343853 
L 332.368038 203.343853 
L 332.368038 207.042936 
L 333.377452 207.042936 
L 333.377452 210.002202 
L 334.386867 210.002202 
L 334.386867 211.111927 
L 335.396282 211.111927 
L 335.396282 213.331376 
L 336.405696 213.331376 
L 336.405696 195.57578 
L 337.415111 195.57578 
L 337.415111 212.221651 
L 338.424525 212.221651 
L 338.424525 213.701284 
L 339.43394 213.701284 
L 339.43394 206.673028 
L 340.443354 206.673028 
L 340.443354 208.892477 
L 341.452769 208.892477 
L 341.452769 214.811009 
L 342.462183 214.811009 
L 342.462183 207.042936 
L 343.471598 207.042936 
L 343.471598 209.632294 
L 344.481013 209.632294 
L 344.481013 210.742018 
L 345.490427 210.742018 
L 345.490427 203.713761 
L 346.499842 203.713761 
L 346.499842 214.071193 
L 347.509256 214.071193 
L 347.509256 210.742018 
L 348.518671 210.742018 
L 348.518671 215.180917 
L 349.528085 215.180917 
L 349.528085 213.701284 
L 350.5375 213.701284 
L 350.5375 208.522569 
L 351.546915 208.522569 
L 351.546915 217.030459 
L 352.556329 217.030459 
L 352.556329 208.152661 
L 353.565744 208.152661 
L 353.565744 217.030459 
L 354.575158 217.030459 
L 354.575158 215.920734 
L 355.584573 215.920734 
L 355.584573 218.140183 
L 356.593987 218.140183 
L 356.593987 211.481835 
L 357.603402 211.481835 
L 357.603402 214.071193 
L 359.622231 214.071193 
L 359.622231 216.290642 
L 360.631646 216.290642 
L 360.631646 215.180917 
L 361.64106 215.180917 
L 361.64106 216.290642 
L 362.650475 216.290642 
L 362.650475 218.88 
L 363.659889 218.88 
L 363.659889 218.140183 
L 364.669304 218.140183 
L 364.669304 217.770275 
L 365.678718 217.770275 
L 365.678718 217.770275 
" clip-path="url(#p5e6f7a7420)" style="fill: none; stroke: #ff7f0e; stroke-width: 1.5; stroke-linecap: square"/>
   </g>
   <g id="line2d_17">
    <path d="M 62.183807 207.042936 
L 63.198352 207.042936 
L 63.198352 186.697982 
L 64.212898 186.697982 
L 64.212898 155.25578 
L 65.227443 155.25578 
L 65.227443 155.625688 
L 66.241989 155.625688 
L 66.241989 117.525138 
L 67.256534 117.525138 
L 67.256534 118.264954 
L 68.27108 118.264954 
L 68.27108 120.854312 
L 69.285625 120.854312 
L 69.285625 122.333945 
L 70.30017 122.333945 
L 70.30017 105.688073 
L 71.314716 105.688073 
L 71.314716 113.826055 
L 72.329261 113.826055 
L 72.329261 109.017248 
L 73.343807 109.017248 
L 73.343807 94.960734 
L 74.358352 94.960734 
L 74.358352 98.289908 
L 75.372898 98.289908 
L 75.372898 106.057982 
L 76.387443 106.057982 
L 76.387443 83.863486 
L 77.401989 83.863486 
L 77.401989 71.656514 
L 78.416534 71.656514 
L 78.416534 77.205138 
L 79.43108 77.205138 
L 79.43108 78.684771 
L 80.445625 78.684771 
L 80.445625 66.847706 
L 81.46017 66.847706 
L 81.46017 69.067156 
L 82.474716 69.067156 
L 82.474716 59.81945 
L 83.489261 59.81945 
L 83.489261 58.339817 
L 84.503807 58.339817 
L 84.503807 50.201835 
L 85.518352 50.201835 
L 85.518352 60.559266 
L 86.532898 60.559266 
L 86.532898 68.697248 
L 87.547443 68.697248 
L 87.547443 46.502752 
L 88.561989 46.502752 
L 88.561989 59.079633 
L 89.576534 59.079633 
L 89.576534 72.026422 
L 90.59108 72.026422 
L 90.59108 78.314862 
L 91.605625 78.314862 
L 91.605625 72.026422 
L 92.62017 72.026422 
L 92.62017 74.61578 
L 93.634716 74.61578 
L 93.634716 59.079633 
L 94.649261 59.079633 
L 94.649261 66.847706 
L 95.663807 66.847706 
L 95.663807 74.245872 
L 96.678352 74.245872 
L 96.678352 77.205138 
L 97.692898 77.205138 
L 97.692898 74.61578 
L 98.707443 74.61578 
L 98.707443 92.001468 
L 99.721989 92.001468 
L 99.721989 104.578349 
L 100.736534 104.578349 
L 100.736534 112.71633 
L 101.75108 112.71633 
L 101.75108 109.017248 
L 102.765625 109.017248 
L 102.765625 123.813578 
L 103.78017 123.813578 
L 103.78017 136.02055 
L 104.794716 136.02055 
L 104.794716 119.744587 
L 105.809261 119.744587 
L 105.809261 124.183486 
L 106.823807 124.183486 
L 106.823807 141.939083 
L 107.838352 141.939083 
L 107.838352 151.926606 
L 108.852898 151.926606 
L 108.852898 152.666422 
L 109.867443 152.666422 
L 109.867443 163.023853 
L 110.881989 163.023853 
L 110.881989 172.641468 
L 111.896534 172.641468 
L 111.896534 173.011376 
L 112.91108 173.011376 
L 112.91108 181.149358 
L 113.925625 181.149358 
L 113.925625 182.998899 
L 114.94017 182.998899 
L 114.94017 185.588257 
L 115.954716 185.588257 
L 115.954716 189.287339 
L 116.969261 189.287339 
L 116.969261 186.328073 
L 117.983807 186.328073 
L 117.983807 177.080367 
L 118.998352 177.080367 
L 118.998352 167.092844 
L 120.012898 167.092844 
L 120.012898 158.954862 
L 121.027443 158.954862 
L 121.027443 147.487706 
L 122.041989 147.487706 
L 122.041989 122.703853 
L 123.056534 122.703853 
L 123.056534 116.415413 
L 124.07108 116.415413 
L 124.07108 124.553394 
L 125.085625 124.553394 
L 125.085625 113.826055 
L 126.10017 113.826055 
L 126.10017 103.468624 
L 127.114716 103.468624 
L 127.114716 119.374679 
L 128.129261 119.374679 
L 128.129261 123.813578 
L 129.143807 123.813578 
L 129.143807 125.663119 
L 130.158352 125.663119 
L 130.158352 114.195963 
L 131.172898 114.195963 
L 131.172898 111.236697 
L 132.187443 111.236697 
L 132.187443 127.512661 
L 133.201989 127.512661 
L 133.201989 128.992294 
L 134.216534 128.992294 
L 134.216534 127.142752 
L 135.23108 127.142752 
L 135.23108 120.114495 
L 136.245625 120.114495 
L 136.245625 134.540917 
L 137.26017 134.540917 
L 137.26017 128.252477 
L 138.274716 128.252477 
L 138.274716 135.280734 
L 139.289261 135.280734 
L 139.289261 130.102018 
L 140.303807 130.102018 
L 140.303807 136.02055 
L 141.318352 136.02055 
L 141.318352 118.264954 
L 142.332898 118.264954 
L 142.332898 131.95156 
L 143.347443 131.95156 
L 143.347443 136.390459 
L 144.361989 136.390459 
L 144.361989 136.760367 
L 145.376534 136.760367 
L 145.376534 133.801101 
L 146.39108 133.801101 
L 146.39108 130.841835 
L 147.405625 130.841835 
L 147.405625 137.500183 
L 148.42017 137.500183 
L 148.42017 136.760367 
L 149.434716 136.760367 
L 149.434716 146.74789 
L 150.449261 146.74789 
L 150.449261 140.089541 
L 151.463807 140.089541 
L 151.463807 144.898349 
L 152.478352 144.898349 
L 152.478352 144.158532 
L 153.492898 144.158532 
L 153.492898 147.117798 
L 154.507443 147.117798 
L 154.507443 154.146055 
L 155.521989 154.146055 
L 155.521989 144.898349 
L 156.536534 144.898349 
L 156.536534 155.25578 
L 157.55108 155.25578 
L 157.55108 145.638165 
L 158.565625 145.638165 
L 158.565625 149.337248 
L 159.58017 149.337248 
L 159.58017 147.857615 
L 160.594716 147.857615 
L 160.594716 152.666422 
L 161.609261 152.666422 
L 161.609261 160.804404 
L 162.623807 160.804404 
L 162.623807 158.584954 
L 163.638352 158.584954 
L 163.638352 159.694679 
L 164.652898 159.694679 
L 164.652898 155.25578 
L 165.667443 155.25578 
L 165.667443 154.885872 
L 166.681989 154.885872 
L 166.681989 168.572477 
L 167.696534 168.572477 
L 167.696534 170.422018 
L 168.71108 170.422018 
L 168.71108 168.202569 
L 169.725625 168.202569 
L 169.725625 170.05211 
L 170.74017 170.05211 
L 170.74017 160.434495 
L 171.754716 160.434495 
L 171.754716 166.722936 
L 172.769261 166.722936 
L 172.769261 151.926606 
L 173.783807 151.926606 
L 173.783807 156.735413 
L 174.798352 156.735413 
L 174.798352 158.215046 
L 175.812898 158.215046 
L 175.812898 153.776147 
L 176.827443 153.776147 
L 176.827443 156.365505 
L 177.841989 156.365505 
L 177.841989 150.816881 
L 178.856534 150.816881 
L 178.856534 155.995596 
L 179.87108 155.995596 
L 179.87108 154.515963 
L 180.885625 154.515963 
L 180.885625 163.76367 
L 181.90017 163.76367 
L 181.90017 168.942385 
L 182.914716 168.942385 
L 182.914716 170.05211 
L 183.929261 170.05211 
L 183.929261 169.682202 
L 184.943807 169.682202 
L 184.943807 168.572477 
L 185.958352 168.572477 
L 185.958352 166.722936 
L 186.972898 166.722936 
L 186.972898 163.393761 
L 187.987443 163.393761 
L 187.987443 168.942385 
L 189.001989 168.942385 
L 189.001989 165.613211 
L 190.016534 165.613211 
L 190.016534 175.230826 
L 191.03108 175.230826 
L 191.03108 170.05211 
L 192.045625 170.05211 
L 192.045625 162.653945 
L 193.06017 162.653945 
L 193.06017 176.710459 
L 194.074716 176.710459 
L 194.074716 177.450275 
L 195.089261 177.450275 
L 195.089261 178.190092 
L 196.103807 178.190092 
L 196.103807 171.531743 
L 197.118352 171.531743 
L 197.118352 176.34055 
L 198.132898 176.34055 
L 198.132898 170.422018 
L 199.147443 170.422018 
L 199.147443 182.998899 
L 200.161989 182.998899 
L 200.161989 180.039633 
L 201.176534 180.039633 
L 201.176534 184.108624 
L 202.19108 184.108624 
L 202.19108 182.628991 
L 203.205625 182.628991 
L 203.205625 193.726239 
L 204.22017 193.726239 
L 204.22017 190.027156 
L 205.234716 190.027156 
L 205.234716 182.628991 
L 206.249261 182.628991 
L 206.249261 188.547523 
L 207.263807 188.547523 
L 207.263807 194.835963 
L 208.278352 194.835963 
L 208.278352 188.177615 
L 210.307443 188.177615 
L 210.307443 192.616514 
L 211.321989 192.616514 
L 211.321989 193.726239 
L 212.336534 193.726239 
L 212.336534 195.945688 
L 213.35108 195.945688 
L 213.35108 194.835963 
L 214.365625 194.835963 
L 214.365625 198.904954 
L 215.38017 198.904954 
L 215.38017 204.08367 
L 216.394716 204.08367 
L 216.394716 199.274862 
L 217.409261 199.274862 
L 217.409261 201.124404 
L 218.423807 201.124404 
L 218.423807 196.685505 
L 219.438352 196.685505 
L 219.438352 197.795229 
L 220.452898 197.795229 
L 220.452898 196.315596 
L 221.467443 196.315596 
L 221.467443 185.958165 
L 222.481989 185.958165 
L 222.481989 189.657248 
L 223.496534 189.657248 
L 223.496534 192.616514 
L 224.51108 192.616514 
L 224.51108 189.287339 
L 225.525625 189.287339 
L 225.525625 190.027156 
L 226.54017 190.027156 
L 226.54017 188.917431 
L 227.554716 188.917431 
L 227.554716 192.986422 
L 228.569261 192.986422 
L 228.569261 202.604037 
L 229.583807 202.604037 
L 229.583807 198.165138 
L 230.598352 198.165138 
L 230.598352 196.315596 
L 231.612898 196.315596 
L 231.612898 201.86422 
L 232.627443 201.86422 
L 232.627443 197.795229 
L 233.641989 197.795229 
L 233.641989 200.014679 
L 234.656534 200.014679 
L 234.656534 200.754495 
L 235.67108 200.754495 
L 235.67108 204.453578 
L 236.685625 204.453578 
L 236.685625 200.384587 
L 237.70017 200.384587 
L 237.70017 200.754495 
L 238.714716 200.754495 
L 238.714716 207.412844 
L 239.729261 207.412844 
L 239.729261 202.234128 
L 240.743807 202.234128 
L 240.743807 202.604037 
L 241.758352 202.604037 
L 241.758352 206.303119 
L 242.772898 206.303119 
L 242.772898 207.412844 
L 243.787443 207.412844 
L 243.787443 204.823486 
L 244.801989 204.823486 
L 244.801989 207.412844 
L 245.816534 207.412844 
L 245.816534 206.303119 
L 246.83108 206.303119 
L 246.83108 210.742018 
L 247.845625 210.742018 
L 247.845625 209.632294 
L 248.86017 209.632294 
L 248.86017 208.152661 
L 249.874716 208.152661 
L 249.874716 209.262385 
L 250.889261 209.262385 
L 250.889261 212.59156 
L 251.903807 212.59156 
L 251.903807 211.481835 
L 252.918352 211.481835 
L 252.918352 212.961468 
L 253.932898 212.961468 
L 253.932898 212.221651 
L 254.947443 212.221651 
L 254.947443 210.742018 
L 255.961989 210.742018 
L 255.961989 213.331376 
L 256.976534 213.331376 
L 256.976534 211.481835 
L 257.99108 211.481835 
L 257.99108 216.290642 
L 259.005625 216.290642 
L 259.005625 214.441101 
L 260.02017 214.441101 
L 260.02017 215.550826 
L 261.034716 215.550826 
L 261.034716 214.071193 
L 262.049261 214.071193 
L 262.049261 214.811009 
L 263.063807 214.811009 
L 263.063807 211.851743 
L 264.078352 211.851743 
L 264.078352 206.303119 
L 265.092898 206.303119 
L 265.092898 214.441101 
L 266.107443 214.441101 
L 266.107443 209.632294 
L 267.121989 209.632294 
L 267.121989 206.673028 
L 268.136534 206.673028 
L 268.136534 208.152661 
L 269.15108 208.152661 
L 269.15108 209.632294 
L 270.165625 209.632294 
L 270.165625 204.823486 
L 271.18017 204.823486 
L 271.18017 207.042936 
L 272.194716 207.042936 
L 272.194716 209.262385 
L 273.209261 209.262385 
L 273.209261 205.193394 
L 274.223807 205.193394 
L 274.223807 208.152661 
L 275.238352 208.152661 
L 275.238352 210.742018 
L 276.252898 210.742018 
L 276.252898 210.37211 
L 277.267443 210.37211 
L 277.267443 210.002202 
L 278.281989 210.002202 
L 278.281989 208.892477 
L 279.296534 208.892477 
L 279.296534 212.221651 
L 280.31108 212.221651 
L 280.31108 213.701284 
L 281.325625 213.701284 
L 281.325625 211.851743 
L 282.34017 211.851743 
L 282.34017 211.481835 
L 283.354716 211.481835 
L 283.354716 212.59156 
L 284.369261 212.59156 
L 284.369261 212.961468 
L 285.383807 212.961468 
L 285.383807 214.071193 
L 287.412898 214.071193 
L 287.412898 211.481835 
L 288.427443 211.481835 
L 288.427443 214.811009 
L 290.456534 214.811009 
L 290.456534 212.961468 
L 291.47108 212.961468 
L 291.47108 215.550826 
L 292.485625 215.550826 
L 292.485625 215.920734 
L 293.50017 215.920734 
L 293.50017 215.550826 
L 294.514716 215.550826 
L 294.514716 215.920734 
L 295.529261 215.920734 
L 295.529261 215.180917 
L 296.543807 215.180917 
L 296.543807 217.030459 
L 297.558352 217.030459 
L 297.558352 216.290642 
L 298.572898 216.290642 
L 298.572898 215.920734 
L 299.587443 215.920734 
L 299.587443 215.550826 
L 300.601989 215.550826 
L 300.601989 217.770275 
L 301.616534 217.770275 
L 301.616534 216.66055 
L 302.63108 216.66055 
L 302.63108 215.920734 
L 303.645625 215.920734 
L 303.645625 216.66055 
L 304.66017 216.66055 
L 304.66017 217.400367 
L 305.674716 217.400367 
L 305.674716 217.770275 
L 306.689261 217.770275 
L 306.689261 217.400367 
L 307.703807 217.400367 
L 307.703807 216.290642 
L 308.718352 216.290642 
L 308.718352 215.920734 
L 309.732898 215.920734 
L 309.732898 215.550826 
L 310.747443 215.550826 
L 310.747443 214.811009 
L 311.761989 214.811009 
L 311.761989 209.262385 
L 312.776534 209.262385 
L 312.776534 214.071193 
L 313.79108 214.071193 
L 313.79108 211.481835 
L 314.805625 211.481835 
L 314.805625 211.851743 
L 315.82017 211.851743 
L 315.82017 210.742018 
L 316.834716 210.742018 
L 316.834716 210.37211 
L 317.849261 210.37211 
L 317.849261 208.892477 
L 318.863807 208.892477 
L 318.863807 209.262385 
L 319.878352 209.262385 
L 319.878352 207.782752 
L 320.892898 207.782752 
L 320.892898 205.933211 
L 321.907443 205.933211 
L 321.907443 206.673028 
L 322.921989 206.673028 
L 322.921989 204.823486 
L 324.95108 204.823486 
L 324.95108 201.494312 
L 325.965625 201.494312 
L 325.965625 203.343853 
L 326.98017 203.343853 
L 326.98017 205.933211 
L 327.994716 205.933211 
L 327.994716 204.453578 
L 329.009261 204.453578 
L 329.009261 203.713761 
L 330.023807 203.713761 
L 330.023807 207.042936 
L 331.038352 207.042936 
L 331.038352 207.782752 
L 332.052898 207.782752 
L 332.052898 211.111927 
L 333.067443 211.111927 
L 333.067443 208.522569 
L 334.081989 208.522569 
L 334.081989 208.152661 
L 335.096534 208.152661 
L 335.096534 210.742018 
L 336.11108 210.742018 
L 336.11108 204.08367 
L 337.125625 204.08367 
L 337.125625 208.522569 
L 338.14017 208.522569 
L 338.14017 208.152661 
L 339.154716 208.152661 
L 339.154716 209.632294 
L 340.169261 209.632294 
L 340.169261 210.002202 
L 341.183807 210.002202 
L 341.183807 211.111927 
L 342.198352 211.111927 
L 342.198352 209.262385 
L 343.212898 209.262385 
L 343.212898 209.632294 
L 344.227443 209.632294 
L 344.227443 209.262385 
L 345.241989 209.262385 
L 345.241989 211.481835 
L 346.256534 211.481835 
L 346.256534 208.152661 
L 347.27108 208.152661 
L 347.27108 211.851743 
L 348.285625 211.851743 
L 348.285625 212.961468 
L 349.30017 212.961468 
L 349.30017 212.59156 
L 350.314716 212.59156 
L 350.314716 215.180917 
L 351.329261 215.180917 
L 351.329261 210.742018 
L 352.343807 210.742018 
L 352.343807 212.961468 
L 353.358352 212.961468 
L 353.358352 213.331376 
L 354.372898 213.331376 
L 354.372898 216.66055 
L 355.387443 216.66055 
L 355.387443 213.701284 
L 356.401989 213.701284 
L 356.401989 214.441101 
L 357.416534 214.441101 
L 357.416534 214.071193 
L 358.43108 214.071193 
L 358.43108 214.811009 
L 359.445625 214.811009 
L 359.445625 215.180917 
L 360.46017 215.180917 
L 360.46017 215.550826 
L 361.474716 215.550826 
L 361.474716 218.140183 
L 362.489261 218.140183 
L 362.489261 216.290642 
L 363.503807 216.290642 
L 363.503807 218.140183 
L 366.547443 218.140183 
L 366.547443 218.140183 
" clip-path="url(#p5e6f7a7420)" style="fill: none; stroke: #2ca02c; stroke-width: 1.5; stroke-linecap: square"/>
   </g>
   <g id="patch_3">
    <path d="M 46.965625 228.96 
L 46.965625 7.2 
" style="fill: none; stroke: #000000; stroke-width: 0.8; stroke-linejoin: miter; stroke-linecap: square"/>
   </g>
   <g id="patch_4">
    <path d="M 381.765625 228.96 
L 381.765625 7.2 
" style="fill: none; stroke: #000000; stroke-width: 0.8; stroke-linejoin: miter; stroke-linecap: square"/>
   </g>
   <g id="patch_5">
    <path d="M 46.965625 228.96 
L 381.765625 228.96 
" style="fill: none; stroke: #000000; stroke-width: 0.8; stroke-linejoin: miter; stroke-linecap: square"/>
   </g>
   <g id="patch_6">
    <path d="M 46.965625 7.2 
L 381.765625 7.2 
" style="fill: none; stroke: #000000; stroke-width: 0.8; stroke-linejoin: miter; stroke-linecap: square"/>
   </g>
   <g id="legend_1">
    <g id="patch_7">
     <path d="M 305.3875 59.234375 
L 374.765625 59.234375 
Q 376.765625 59.234375 376.765625 57.234375 
L 376.765625 14.2 
Q 376.765625 12.2 374.765625 12.2 
L 305.3875 12.2 
Q 303.3875 12.2 303.3875 14.2 
L 303.3875 57.234375 
Q 303.3875 59.234375 305.3875 59.234375 
z
" style="fill: #ffffff; opacity: 0.8; stroke: #cccccc; stroke-linejoin: miter"/>
    </g>
    <g id="line2d_18">
     <path d="M 307.3875 20.298438 
L 307.3875 20.298438 
L 317.3875 20.298438 
L 317.3875 20.298438 
L 327.3875 20.298438 
" style="fill: none; stroke: #1f77b4; stroke-width: 1.5; stroke-linecap: square"/>
    </g>
    <g id="text_17">
     <!-- naive -->
     <g transform="translate(335.3875 23.798438) scale(0.1 -0.1)">
      <defs>
       <path id="DejaVuSans-69" d="M 603 3500 
L 1178 3500 
L 1178 0 
L 603 0 
L 603 3500 
z
M 603 4863 
L 1178 4863 
L 1178 4134 
L 603 4134 
L 603 4863 
z
" transform="scale(0.015625)"/>
      </defs>
      <use xlink:href="#DejaVuSans-6e"/>
      <use xlink:href="#DejaVuSans-61" transform="translate(63.378906 0)"/>
      <use xlink:href="#DejaVuSans-69" transform="translate(124.658203 0)"/>
      <use xlink:href="#DejaVuSans-76" transform="translate(152.441406 0)"/>
      <use xlink:href="#DejaVuSans-65" transform="translate(211.621094 0)"/>
     </g>
    </g>
    <g id="line2d_19">
     <path d="M 307.3875 34.976562 
L 307.3875 34.976562 
L 317.3875 34.976562 
L 317.3875 34.976562 
L 327.3875 34.976562 
" style="fill: none; stroke: #ff7f0e; stroke-width: 1.5; stroke-linecap: square"/>
    </g>
    <g id="text_18">
     <!-- wfm -->
     <g transform="translate(335.3875 38.476562) scale(0.1 -0.1)">
      <defs>
       <path id="DejaVuSans-66" d="M 2375 4863 
L 2375 4384 
L 1825 4384 
Q 1516 4384 1395 4259 
Q 1275 4134 1275 3809 
L 1275 3500 
L 2222 3500 
L 2222 3053 
L 1275 3053 
L 1275 0 
L 697 0 
L 697 3053 
L 147 3053 
L 147 3500 
L 697 3500 
L 697 3744 
Q 697 4328 969 4595 
Q 1241 4863 1831 4863 
L 2375 4863 
z
" transform="scale(0.015625)"/>
       <path id="DejaVuSans-6d" d="M 3328 2828 
Q 3544 3216 3844 3400 
Q 4144 3584 4550 3584 
Q 5097 3584 5394 3201 
Q 5691 2819 5691 2113 
L 5691 0 
L 5113 0 
L 5113 2094 
Q 5113 2597 4934 2840 
Q 4756 3084 4391 3084 
Q 3944 3084 3684 2787 
Q 3425 2491 3425 1978 
L 3425 0 
L 2847 0 
L 2847 2094 
Q 2847 2600 2669 2842 
Q 2491 3084 2119 3084 
Q 1678 3084 1418 2786 
Q 1159 2488 1159 1978 
L 1159 0 
L 581 0 
L 581 3500 
L 1159 3500 
L 1159 2956 
Q 1356 3278 1631 3431 
Q 1906 3584 2284 3584 
Q 2666 3584 2933 3390 
Q 3200 3197 3328 2828 
z
" transform="scale(0.015625)"/>
      </defs>
      <use xlink:href="#DejaVuSans-77"/>
      <use xlink:href="#DejaVuSans-66" transform="translate(81.787109 0)"/>
      <use xlink:href="#DejaVuSans-6d" transform="translate(116.992188 0)"/>
     </g>
    </g>
    <g id="line2d_20">
     <path d="M 307.3875 49.654688 
L 307.3875 49.654688 
L 317.3875 49.654688 
L 317.3875 49.654688 
L 327.3875 49.654688 
" style="fill: none; stroke: #2ca02c; stroke-width: 1.5; stroke-linecap: square"/>
    </g>
    <g id="text_19">
     <!-- original -->
     <g transform="translate(335.3875 53.154688) scale(0.1 -0.1)">
      <defs>
       <path id="DejaVuSans-72" d="M 2631 2963 
Q 2534 3019 2420 3045 
Q 2306 3072 2169 3072 
Q 1681 3072 1420 2755 
Q 1159 2438 1159 1844 
L 1159 0 
L 581 0 
L 581 3500 
L 1159 3500 
L 1159 2956 
Q 1341 3275 1631 3429 
Q 1922 3584 2338 3584 
Q 2397 3584 2469 3576 
Q 2541 3569 2628 3553 
L 2631 2963 
z
" transform="scale(0.015625)"/>
      </defs>
      <use xlink:href="#DejaVuSans-6f"/>
      <use xlink:href="#DejaVuSans-72" transform="translate(61.181641 0)"/>
      <use xlink:href="#DejaVuSans-69" transform="translate(102.294922 0)"/>
      <use xlink:href="#DejaVuSans-67" transform="translate(130.078125 0)"/>
      <use xlink:href="#DejaVuSans-69" transform="translate(193.554688 0)"/>
      <use xlink:href="#DejaVuSans-6e" transform="translate(221.337891 0)"/>
      <use xlink:href="#DejaVuSans-61" transform="translate(284.716797 0)"/>
      <use xlink:href="#DejaVuSans-6c" transform="translate(345.996094 0)"/>
     </g>
    </g>
   </g>
  </g>
 </g>
 <defs>
  <clipPath id="p5e6f7a7420">
   <rect x="46.965625" y="7.2" width="334.8" height="221.76"/>
  </clipPath>
 </defs>
</svg>
