<?xml version="1.0" encoding="utf-8" standalone="no"?>
<!DOCTYPE svg PUBLIC "-//W3C//DTD SVG 1.1//EN"
  "http://www.w3.org/Graphics/SVG/1.1/DTD/svg11.dtd">
<svg xmlns:xlink="http://www.w3.org/1999/xlink" width="388.965625pt" height="268.200625pt" viewBox="0 0 388.965625 268.200625" xmlns="http://www.w3.org/2000/svg" version="1.1">
 <metadata>
  <rdf:RDF xmlns:dc="http://purl.org/dc/elements/1.1/" xmlns:cc="http://creativecommons.org/ns#" xmlns:rdf="http://www.w3.org/1999/02/22-rdf-syntax-ns#">
   <cc:Work>
    <dc:type rdf:resource="http://purl.org/dc/dcmitype/StillImage"/>
    <dc:date>2025-12-09T08:59:34.602650</dc:date>
    <dc:format>image/svg+xml</dc:format>
    <dc:creator>
     <cc:Agent>
      <dc:title>Matplotlib v3.10.7, https://matplotlib.org/</dc:title>
     </cc:Agent>
    </dc:creator>
   </cc:Work>
  </rdf:RDF>
 </metadata>
 <defs>
  <style type="text/css">*{stroke-linejoin: round; stroke-linecap: butt}</style>
 </defs>
 <g id="figure_1">
  <g id="patch_1">
   <path d="M 0 268.200625 
L 388.965625 268.200625 
L 388.965625 0 
L 0 0 
z
" style="fill: #ffffff"/>
  </g>
  <g id="axes_1">
   <g id="patch_2">
    <path d="M 46.965625 228.96 
L 381.765625 228.96 
L 381.765625 7.2 
L 46.965625 7.2 
z
" style="fill: #ffffff"/>
   </g>
   <g id="matplotlib.axis_1">
    <g id="xtick_1">
     <g id="line2d_1">
      <defs>
       <path id="mc763779337" d="M 0 0 
L 0 3.5 
" style="stroke: #000000; stroke-width: 0.8"/>
      </defs>
      <g>
       <use xlink:href="#mc763779337" x="61.728438" y="228.96" style="stroke: #000000; stroke-width: 0.8"/>
      </g>
     </g>
     <g id="text_1">
      <!-- 2 -->
      <g transform="translate(58.547188 243.558437) scale(0.1 -0.1)">
       <defs>
        <path id="DejaVuSans-32" d="M 1228 531 
L 3431 531 
L 3431 0 
L 469 0 
L 469 531 
Q 828 903 1448 1529 
Q 2069 2156 2228 2338 
Q 2531 2678 2651 2914 
Q 2772 3150 2772 3378 
Q 2772 3750 2511 3984 
Q 2250 4219 1831 4219 
Q 1534 4219 1204 4116 
Q 875 4013 500 3803 
L 500 4441 
Q 881 4594 1212 4672 
Q 1544 4750 1819 4750 
Q 2544 4750 2975 4387 
Q 3406 4025 3406 3419 
Q 3406 3131 3298 2873 
Q 3191 2616 2906 2266 
Q 2828 2175 2409 1742 
Q 1991 1309 1228 531 
z
" transform="scale(0.015625)"/>
       </defs>
       <use xlink:href="#DejaVuSans-32"/>
      </g>
     </g>
    </g>
    <g id="xtick_2">
     <g id="line2d_2">
      <g>
       <use xlink:href="#mc763779337" x="102.466893" y="228.96" style="stroke: #000000; stroke-width: 0.8"/>
      </g>
     </g>
     <g id="text_2">
      <!-- 3 -->
      <g transform="translate(99.285643 243.558437) scale(0.1 -0.1)">
       <defs>
        <path id="DejaVuSans-33" d="M 2597 2516 
Q 3050 2419 3304 2112 
Q 3559 1806 3559 1356 
Q 3559 666 3084 287 
Q 2609 -91 1734 -91 
Q 1441 -91 1130 -33 
Q 819 25 488 141 
L 488 750 
Q 750 597 1062 519 
Q 1375 441 1716 441 
Q 2309 441 2620 675 
Q 2931 909 2931 1356 
Q 2931 1769 2642 2001 
Q 2353 2234 1838 2234 
L 1294 2234 
L 1294 2753 
L 1863 2753 
Q 2328 2753 2575 2939 
Q 2822 3125 2822 3475 
Q 2822 3834 2567 4026 
Q 2313 4219 1838 4219 
Q 1578 4219 1281 4162 
Q 984 4106 628 3988 
L 628 4550 
Q 988 4650 1302 4700 
Q 1616 4750 1894 4750 
Q 2613 4750 3031 4423 
Q 3450 4097 3450 3541 
Q 3450 3153 3228 2886 
Q 3006 2619 2597 2516 
z
" transform="scale(0.015625)"/>
       </defs>
       <use xlink:href="#DejaVuSans-33"/>
      </g>
     </g>
    </g>
    <g id="xtick_3">
     <g id="line2d_3">
      <g>
       <use xlink:href="#mc763779337" x="143.205348" y="228.96" style="stroke: #000000; stroke-width: 0.8"/>
      </g>
     </g>
     <g id="text_3">
      <!-- 4 -->
      <g transform="translate(140.024098 243.558437) scale(0.1 -0.1)">
       <defs>
        <path id="DejaVuSans-34" d="M 2419 4116 
L 825 1625 
L 2419 1625 
L 2419 4116 
z
M 2253 4666 
L 3047 4666 
L 3047 1625 
L 3713 1625 
L 3713 1100 
L 3047 1100 
L 3047 0 
L 2419 0 
L 2419 1100 
L 313 1100 
L 313 1709 
L 2253 4666 
z
" transform="scale(0.015625)"/>
       </defs>
       <use xlink:href="#DejaVuSans-34"/>
      </g>
     </g>
    </g>
    <g id="xtick_4">
     <g id="line2d_4">
      <g>
       <use xlink:href="#mc763779337" x="183.943803" y="228.96" style="stroke: #000000; stroke-width: 0.8"/>
      </g>
     </g>
     <g id="text_4">
      <!-- 5 -->
      <g transform="translate(180.762553 243.558437) scale(0.1 -0.1)">
       <defs>
        <path id="DejaVuSans-35" d="M 691 4666 
L 3169 4666 
L 3169 4134 
L 1269 4134 
L 1269 2991 
Q 1406 3038 1543 3061 
Q 1681 3084 1819 3084 
Q 2600 3084 3056 2656 
Q 3513 2228 3513 1497 
Q 3513 744 3044 326 
Q 2575 -91 1722 -91 
Q 1428 -91 1123 -41 
Q 819 9 494 109 
L 494 744 
Q 775 591 1075 516 
Q 1375 441 1709 441 
Q 2250 441 2565 725 
Q 2881 1009 2881 1497 
Q 2881 1984 2565 2268 
Q 2250 2553 1709 2553 
Q 1456 2553 1204 2497 
Q 953 2441 691 2322 
L 691 4666 
z
" transform="scale(0.015625)"/>
       </defs>
       <use xlink:href="#DejaVuSans-35"/>
      </g>
     </g>
    </g>
    <g id="xtick_5">
     <g id="line2d_5">
      <g>
       <use xlink:href="#mc763779337" x="224.682258" y="228.96" style="stroke: #000000; stroke-width: 0.8"/>
      </g>
     </g>
     <g id="text_5">
      <!-- 6 -->
      <g transform="translate(221.501008 243.558437) scale(0.1 -0.1)">
       <defs>
        <path id="DejaVuSans-36" d="M 2113 2584 
Q 1688 2584 1439 2293 
Q 1191 2003 1191 1497 
Q 1191 994 1439 701 
Q 1688 409 2113 409 
Q 2538 409 2786 701 
Q 3034 994 3034 1497 
Q 3034 2003 2786 2293 
Q 2538 2584 2113 2584 
z
M 3366 4563 
L 3366 3988 
Q 3128 4100 2886 4159 
Q 2644 4219 2406 4219 
Q 1781 4219 1451 3797 
Q 1122 3375 1075 2522 
Q 1259 2794 1537 2939 
Q 1816 3084 2150 3084 
Q 2853 3084 3261 2657 
Q 3669 2231 3669 1497 
Q 3669 778 3244 343 
Q 2819 -91 2113 -91 
Q 1303 -91 875 529 
Q 447 1150 447 2328 
Q 447 3434 972 4092 
Q 1497 4750 2381 4750 
Q 2619 4750 2861 4703 
Q 3103 4656 3366 4563 
z
" transform="scale(0.015625)"/>
       </defs>
       <use xlink:href="#DejaVuSans-36"/>
      </g>
     </g>
    </g>
    <g id="xtick_6">
     <g id="line2d_6">
      <g>
       <use xlink:href="#mc763779337" x="265.420713" y="228.96" style="stroke: #000000; stroke-width: 0.8"/>
      </g>
     </g>
     <g id="text_6">
      <!-- 7 -->
      <g transform="translate(262.239463 243.558437) scale(0.1 -0.1)">
       <defs>
        <path id="DejaVuSans-37" d="M 525 4666 
L 3525 4666 
L 3525 4397 
L 1831 0 
L 1172 0 
L 2766 4134 
L 525 4134 
L 525 4666 
z
" transform="scale(0.015625)"/>
       </defs>
       <use xlink:href="#DejaVuSans-37"/>
      </g>
     </g>
    </g>
    <g id="xtick_7">
     <g id="line2d_7">
      <g>
       <use xlink:href="#mc763779337" x="306.159168" y="228.96" style="stroke: #000000; stroke-width: 0.8"/>
      </g>
     </g>
     <g id="text_7">
      <!-- 8 -->
      <g transform="translate(302.977918 243.558437) scale(0.1 -0.1)">
       <defs>
        <path id="DejaVuSans-38" d="M 2034 2216 
Q 1584 2216 1326 1975 
Q 1069 1734 1069 1313 
Q 1069 891 1326 650 
Q 1584 409 2034 409 
Q 2484 409 2743 651 
Q 3003 894 3003 1313 
Q 3003 1734 2745 1975 
Q 2488 2216 2034 2216 
z
M 1403 2484 
Q 997 2584 770 2862 
Q 544 3141 544 3541 
Q 544 4100 942 4425 
Q 1341 4750 2034 4750 
Q 2731 4750 3128 4425 
Q 3525 4100 3525 3541 
Q 3525 3141 3298 2862 
Q 3072 2584 2669 2484 
Q 3125 2378 3379 2068 
Q 3634 1759 3634 1313 
Q 3634 634 3220 271 
Q 2806 -91 2034 -91 
Q 1263 -91 848 271 
Q 434 634 434 1313 
Q 434 1759 690 2068 
Q 947 2378 1403 2484 
z
M 1172 3481 
Q 1172 3119 1398 2916 
Q 1625 2713 2034 2713 
Q 2441 2713 2670 2916 
Q 2900 3119 2900 3481 
Q 2900 3844 2670 4047 
Q 2441 4250 2034 4250 
Q 1625 4250 1398 4047 
Q 1172 3844 1172 3481 
z
" transform="scale(0.015625)"/>
       </defs>
       <use xlink:href="#DejaVuSans-38"/>
      </g>
     </g>
    </g>
    <g id="xtick_8">
     <g id="line2d_8">
      <g>
       <use xlink:href="#mc763779337" x="346.897623" y="228.96" style="stroke: #000000; stroke-width: 0.8"/>
      </g>
     </g>
     <g id="text_8">
      <!-- 9 -->
      <g transform="translate(343.716373 243.558437) scale(0.1 -0.1)">
       <defs>
        <path id="DejaVuSans-39" d="M 703 97 
L 703 672 
Q 941 559 1184 500 
Q 1428 441 1663 441 
Q 2288 441 2617 861 
Q 2947 1281 2994 2138 
Q 2813 1869 2534 1725 
Q 2256 1581 1919 1581 
Q 1219 1581 811 2004 
Q 403 2428 403 3163 
Q 403 3881 828 4315 
Q 1253 4750 1959 4750 
Q 2769 4750 3195 4129 
Q 3622 3509 3622 2328 
Q 3622 1225 3098 567 
Q 2575 -91 1691 -91 
Q 1453 -91 1209 -44 
Q 966 3 703 97 
z
M 1959 2075 
Q 2384 2075 2632 2365 
Q 2881 2656 2881 3163 
Q 2881 3666 2632 3958 
Q 2384 4250 1959 4250 
Q 1534 4250 1286 3958 
Q 1038 3666 1038 3163 
Q 1038 2656 1286 2365 
Q 1534 2075 1959 2075 
z
" transform="scale(0.015625)"/>
       </defs>
       <use xlink:href="#DejaVuSans-39"/>
      </g>
     </g>
    </g>
    <g id="text_9">
     <!-- wavelength [Å] -->
     <g transform="translate(176.328125 258.920937) scale(0.1 -0.1)">
      <defs>
       <path id="DejaVuSans-77" d="M 269 3500 
L 844 3500 
L 1563 769 
L 2278 3500 
L 2956 3500 
L 3675 769 
L 4391 3500 
L 4966 3500 
L 4050 0 
L 3372 0 
L 2619 2869 
L 1863 0 
L 1184 0 
L 269 3500 
z
" transform="scale(0.015625)"/>
       <path id="DejaVuSans-61" d="M 2194 1759 
Q 1497 1759 1228 1600 
Q 959 1441 959 1056 
Q 959 750 1161 570 
Q 1363 391 1709 391 
Q 2188 391 2477 730 
Q 2766 1069 2766 1631 
L 2766 1759 
L 2194 1759 
z
M 3341 1997 
L 3341 0 
L 2766 0 
L 2766 531 
Q 2569 213 2275 61 
Q 1981 -91 1556 -91 
Q 1019 -91 701 211 
Q 384 513 384 1019 
Q 384 1609 779 1909 
Q 1175 2209 1959 2209 
L 2766 2209 
L 2766 2266 
Q 2766 2663 2505 2880 
Q 2244 3097 1772 3097 
Q 1472 3097 1187 3025 
Q 903 2953 641 2809 
L 641 3341 
Q 956 3463 1253 3523 
Q 1550 3584 1831 3584 
Q 2591 3584 2966 3190 
Q 3341 2797 3341 1997 
z
" transform="scale(0.015625)"/>
       <path id="DejaVuSans-76" d="M 191 3500 
L 800 3500 
L 1894 563 
L 2988 3500 
L 3597 3500 
L 2284 0 
L 1503 0 
L 191 3500 
z
" transform="scale(0.015625)"/>
       <path id="DejaVuSans-65" d="M 3597 1894 
L 3597 1613 
L 953 1613 
Q 991 1019 1311 708 
Q 1631 397 2203 397 
Q 2534 397 2845 478 
Q 3156 559 3463 722 
L 3463 178 
Q 3153 47 2828 -22 
Q 2503 -91 2169 -91 
Q 1331 -91 842 396 
Q 353 884 353 1716 
Q 353 2575 817 3079 
Q 1281 3584 2069 3584 
Q 2775 3584 3186 3129 
Q 3597 2675 3597 1894 
z
M 3022 2063 
Q 3016 2534 2758 2815 
Q 2500 3097 2075 3097 
Q 1594 3097 1305 2825 
Q 1016 2553 972 2059 
L 3022 2063 
z
" transform="scale(0.015625)"/>
       <path id="DejaVuSans-6c" d="M 603 4863 
L 1178 4863 
L 1178 0 
L 603 0 
L 603 4863 
z
" transform="scale(0.015625)"/>
       <path id="DejaVuSans-6e" d="M 3513 2113 
L 3513 0 
L 2938 0 
L 2938 2094 
Q 2938 2591 2744 2837 
Q 2550 3084 2163 3084 
Q 1697 3084 1428 2787 
Q 1159 2491 1159 1978 
L 1159 0 
L 581 0 
L 581 3500 
L 1159 3500 
L 1159 2956 
Q 1366 3272 1645 3428 
Q 1925 3584 2291 3584 
Q 2894 3584 3203 3211 
Q 3513 2838 3513 2113 
z
" transform="scale(0.015625)"/>
       <path id="DejaVuSans-67" d="M 2906 1791 
Q 2906 2416 2648 2759 
Q 2391 3103 1925 3103 
Q 1463 3103 1205 2759 
Q 947 2416 947 1791 
Q 947 1169 1205 825 
Q 1463 481 1925 481 
Q 2391 481 2648 825 
Q 2906 1169 2906 1791 
z
M 3481 434 
Q 3481 -459 3084 -895 
Q 2688 -1331 1869 -1331 
Q 1566 -1331 1297 -1286 
Q 1028 -1241 775 -1147 
L 775 -588 
Q 1028 -725 1275 -790 
Q 1522 -856 1778 -856 
Q 2344 -856 2625 -561 
Q 2906 -266 2906 331 
L 2906 616 
Q 2728 306 2450 153 
Q 2172 0 1784 0 
Q 1141 0 747 490 
Q 353 981 353 1791 
Q 353 2603 747 3093 
Q 1141 3584 1784 3584 
Q 2172 3584 2450 3431 
Q 2728 3278 2906 2969 
L 2906 3500 
L 3481 3500 
L 3481 434 
z
" transform="scale(0.015625)"/>
       <path id="DejaVuSans-74" d="M 1172 4494 
L 1172 3500 
L 2356 3500 
L 2356 3053 
L 1172 3053 
L 1172 1153 
Q 1172 725 1289 603 
Q 1406 481 1766 481 
L 2356 481 
L 2356 0 
L 1766 0 
Q 1100 0 847 248 
Q 594 497 594 1153 
L 594 3053 
L 172 3053 
L 172 3500 
L 594 3500 
L 594 4494 
L 1172 4494 
z
" transform="scale(0.015625)"/>
       <path id="DejaVuSans-68" d="M 3513 2113 
L 3513 0 
L 2938 0 
L 2938 2094 
Q 2938 2591 2744 2837 
Q 2550 3084 2163 3084 
Q 1697 3084 1428 2787 
Q 1159 2491 1159 1978 
L 1159 0 
L 581 0 
L 581 4863 
L 1159 4863 
L 1159 2956 
Q 1366 3272 1645 3428 
Q 1925 3584 2291 3584 
Q 2894 3584 3203 3211 
Q 3513 2838 3513 2113 
z
" transform="scale(0.015625)"/>
       <path id="DejaVuSans-20" transform="scale(0.015625)"/>
       <path id="DejaVuSans-5b" d="M 550 4863 
L 1875 4863 
L 1875 4416 
L 1125 4416 
L 1125 -397 
L 1875 -397 
L 1875 -844 
L 550 -844 
L 550 4863 
z
" transform="scale(0.015625)"/>
       <path id="DejaVuSans-c5" d="M 2663 5081 
Q 2663 5278 2523 5417 
Q 2384 5556 2188 5556 
Q 1988 5556 1852 5420 
Q 1716 5284 1716 5081 
Q 1716 4884 1853 4746 
Q 1991 4609 2188 4609 
Q 2384 4609 2523 4746 
Q 2663 4884 2663 5081 
z
M 2188 4044 
L 1338 1722 
L 3041 1722 
L 2188 4044 
z
M 1716 4366 
Q 1525 4494 1428 4673 
Q 1331 4853 1331 5081 
Q 1331 5441 1579 5691 
Q 1828 5941 2188 5941 
Q 2544 5941 2795 5689 
Q 3047 5438 3047 5081 
Q 3047 4863 2948 4678 
Q 2850 4494 2663 4366 
L 4325 0 
L 3669 0 
L 3244 1197 
L 1141 1197 
L 716 0 
L 50 0 
L 1716 4366 
z
" transform="scale(0.015625)"/>
       <path id="DejaVuSans-5d" d="M 1947 4863 
L 1947 -844 
L 622 -844 
L 622 -397 
L 1369 -397 
L 1369 4416 
L 622 4416 
L 622 4863 
L 1947 4863 
z
" transform="scale(0.015625)"/>
      </defs>
      <use xlink:href="#DejaVuSans-77"/>
      <use xlink:href="#DejaVuSans-61" transform="translate(81.787109 0)"/>
      <use xlink:href="#DejaVuSans-76" transform="translate(143.066406 0)"/>
      <use xlink:href="#DejaVuSans-65" transform="translate(202.246094 0)"/>
      <use xlink:href="#DejaVuSans-6c" transform="translate(263.769531 0)"/>
      <use xlink:href="#DejaVuSans-65" transform="translate(291.552734 0)"/>
      <use xlink:href="#DejaVuSans-6e" transform="translate(353.076172 0)"/>
      <use xlink:href="#DejaVuSans-67" transform="translate(416.455078 0)"/>
      <use xlink:href="#DejaVuSans-74" transform="translate(479.931641 0)"/>
      <use xlink:href="#DejaVuSans-68" transform="translate(519.140625 0)"/>
      <use xlink:href="#DejaVuSans-20" transform="translate(582.519531 0)"/>
      <use xlink:href="#DejaVuSans-5b" transform="translate(614.306641 0)"/>
      <use xlink:href="#DejaVuSans-c5" transform="translate(653.320312 0)"/>
      <use xlink:href="#DejaVuSans-5d" transform="translate(721.728516 0)"/>
     </g>
    </g>
   </g>
   <g id="matplotlib.axis_2">
    <g id="ytick_1">
     <g id="line2d_9">
      <defs>
       <path id="m0489b805a3" d="M 0 0 
L -3.5 0 
" style="stroke: #000000; stroke-width: 0.8"/>
      </defs>
      <g>
       <use xlink:href="#m0489b805a3" x="46.965625" y="218.88" style="stroke: #000000; stroke-width: 0.8"/>
      </g>
     </g>
     <g id="text_10">
      <!-- 0 -->
      <g transform="translate(33.603125 222.679219) scale(0.1 -0.1)">
       <defs>
        <path id="DejaVuSans-30" d="M 2034 4250 
Q 1547 4250 1301 3770 
Q 1056 3291 1056 2328 
Q 1056 1369 1301 889 
Q 1547 409 2034 409 
Q 2525 409 2770 889 
Q 3016 1369 3016 2328 
Q 3016 3291 2770 3770 
Q 2525 4250 2034 4250 
z
M 2034 4750 
Q 2819 4750 3233 4129 
Q 3647 3509 3647 2328 
Q 3647 1150 3233 529 
Q 2819 -91 2034 -91 
Q 1250 -91 836 529 
Q 422 1150 422 2328 
Q 422 3509 836 4129 
Q 1250 4750 2034 4750 
z
" transform="scale(0.015625)"/>
       </defs>
       <use xlink:href="#DejaVuSans-30"/>
      </g>
     </g>
    </g>
    <g id="ytick_2">
     <g id="line2d_10">
      <g>
       <use xlink:href="#m0489b805a3" x="46.965625" y="182.024424" style="stroke: #000000; stroke-width: 0.8"/>
      </g>
     </g>
     <g id="text_11">
      <!-- 100 -->
      <g transform="translate(20.878125 185.823643) scale(0.1 -0.1)">
       <defs>
        <path id="DejaVuSans-31" d="M 794 531 
L 1825 531 
L 1825 4091 
L 703 3866 
L 703 4441 
L 1819 4666 
L 2450 4666 
L 2450 531 
L 3481 531 
L 3481 0 
L 794 0 
L 794 531 
z
" transform="scale(0.015625)"/>
       </defs>
       <use xlink:href="#DejaVuSans-31"/>
       <use xlink:href="#DejaVuSans-30" transform="translate(63.623047 0)"/>
       <use xlink:href="#DejaVuSans-30" transform="translate(127.246094 0)"/>
      </g>
     </g>
    </g>
    <g id="ytick_3">
     <g id="line2d_11">
      <g>
       <use xlink:href="#m0489b805a3" x="46.965625" y="145.168848" style="stroke: #000000; stroke-width: 0.8"/>
      </g>
     </g>
     <g id="text_12">
      <!-- 200 -->
      <g transform="translate(20.878125 148.968067) scale(0.1 -0.1)">
       <use xlink:href="#DejaVuSans-32"/>
       <use xlink:href="#DejaVuSans-30" transform="translate(63.623047 0)"/>
       <use xlink:href="#DejaVuSans-30" transform="translate(127.246094 0)"/>
      </g>
     </g>
    </g>
    <g id="ytick_4">
     <g id="line2d_12">
      <g>
       <use xlink:href="#m0489b805a3" x="46.965625" y="108.313272" style="stroke: #000000; stroke-width: 0.8"/>
      </g>
     </g>
     <g id="text_13">
      <!-- 300 -->
      <g transform="translate(20.878125 112.112491) scale(0.1 -0.1)">
       <use xlink:href="#DejaVuSans-33"/>
       <use xlink:href="#DejaVuSans-30" transform="translate(63.623047 0)"/>
       <use xlink:href="#DejaVuSans-30" transform="translate(127.246094 0)"/>
      </g>
     </g>
    </g>
    <g id="ytick_5">
     <g id="line2d_13">
      <g>
       <use xlink:href="#m0489b805a3" x="46.965625" y="71.457697" style="stroke: #000000; stroke-width: 0.8"/>
      </g>
     </g>
     <g id="text_14">
      <!-- 400 -->
      <g transform="translate(20.878125 75.256915) scale(0.1 -0.1)">
       <use xlink:href="#DejaVuSans-34"/>
       <use xlink:href="#DejaVuSans-30" transform="translate(63.623047 0)"/>
       <use xlink:href="#DejaVuSans-30" transform="translate(127.246094 0)"/>
      </g>
     </g>
    </g>
    <g id="ytick_6">
     <g id="line2d_14">
      <g>
       <use xlink:href="#m0489b805a3" x="46.965625" y="34.602121" style="stroke: #000000; stroke-width: 0.8"/>
      </g>
     </g>
     <g id="text_15">
      <!-- 500 -->
      <g transform="translate(20.878125 38.401339) scale(0.1 -0.1)">
       <use xlink:href="#DejaVuSans-35"/>
       <use xlink:href="#DejaVuSans-30" transform="translate(63.623047 0)"/>
       <use xlink:href="#DejaVuSans-30" transform="translate(127.246094 0)"/>
      </g>
     </g>
    </g>
    <g id="text_16">
     <!-- [counts] -->
     <g transform="translate(14.798438 138.6925) rotate(-90) scale(0.1 -0.1)">
      <defs>
       <path id="DejaVuSans-63" d="M 3122 3366 
L 3122 2828 
Q 2878 2963 2633 3030 
Q 2388 3097 2138 3097 
Q 1578 3097 1268 2742 
Q 959 2388 959 1747 
Q 959 1106 1268 751 
Q 1578 397 2138 397 
Q 2388 397 2633 464 
Q 2878 531 3122 666 
L 3122 134 
Q 2881 22 2623 -34 
Q 2366 -91 2075 -91 
Q 1284 -91 818 406 
Q 353 903 353 1747 
Q 353 2603 823 3093 
Q 1294 3584 2113 3584 
Q 2378 3584 2631 3529 
Q 2884 3475 3122 3366 
z
" transform="scale(0.015625)"/>
       <path id="DejaVuSans-6f" d="M 1959 3097 
Q 1497 3097 1228 2736 
Q 959 2375 959 1747 
Q 959 1119 1226 758 
Q 1494 397 1959 397 
Q 2419 397 2687 759 
Q 2956 1122 2956 1747 
Q 2956 2369 2687 2733 
Q 2419 3097 1959 3097 
z
M 1959 3584 
Q 2709 3584 3137 3096 
Q 3566 2609 3566 1747 
Q 3566 888 3137 398 
Q 2709 -91 1959 -91 
Q 1206 -91 779 398 
Q 353 888 353 1747 
Q 353 2609 779 3096 
Q 1206 3584 1959 3584 
z
" transform="scale(0.015625)"/>
       <path id="DejaVuSans-75" d="M 544 1381 
L 544 3500 
L 1119 3500 
L 1119 1403 
Q 1119 906 1312 657 
Q 1506 409 1894 409 
Q 2359 409 2629 706 
Q 2900 1003 2900 1516 
L 2900 3500 
L 3475 3500 
L 3475 0 
L 2900 0 
L 2900 538 
Q 2691 219 2414 64 
Q 2138 -91 1772 -91 
Q 1169 -91 856 284 
Q 544 659 544 1381 
z
M 1991 3584 
L 1991 3584 
z
" transform="scale(0.015625)"/>
       <path id="DejaVuSans-73" d="M 2834 3397 
L 2834 2853 
Q 2591 2978 2328 3040 
Q 2066 3103 1784 3103 
Q 1356 3103 1142 2972 
Q 928 2841 928 2578 
Q 928 2378 1081 2264 
Q 1234 2150 1697 2047 
L 1894 2003 
Q 2506 1872 2764 1633 
Q 3022 1394 3022 966 
Q 3022 478 2636 193 
Q 2250 -91 1575 -91 
Q 1294 -91 989 -36 
Q 684 19 347 128 
L 347 722 
Q 666 556 975 473 
Q 1284 391 1588 391 
Q 1994 391 2212 530 
Q 2431 669 2431 922 
Q 2431 1156 2273 1281 
Q 2116 1406 1581 1522 
L 1381 1569 
Q 847 1681 609 1914 
Q 372 2147 372 2553 
Q 372 3047 722 3315 
Q 1072 3584 1716 3584 
Q 2034 3584 2315 3537 
Q 2597 3491 2834 3397 
z
" transform="scale(0.015625)"/>
      </defs>
      <use xlink:href="#DejaVuSans-5b"/>
      <use xlink:href="#DejaVuSans-63" transform="translate(39.013672 0)"/>
      <use xlink:href="#DejaVuSans-6f" transform="translate(93.994141 0)"/>
      <use xlink:href="#DejaVuSans-75" transform="translate(155.175781 0)"/>
      <use xlink:href="#DejaVuSans-6e" transform="translate(218.554688 0)"/>
      <use xlink:href="#DejaVuSans-74" transform="translate(281.933594 0)"/>
      <use xlink:href="#DejaVuSans-73" transform="translate(321.142578 0)"/>
      <use xlink:href="#DejaVuSans-5d" transform="translate(373.242188 0)"/>
     </g>
    </g>
   </g>
   <g id="line2d_15">
    <path d="M 76.578975 188.289872 
L 77.547822 188.289872 
L 77.547822 142.588958 
L 78.516668 142.588958 
L 78.516668 94.308154 
L 79.485515 94.308154 
L 79.485515 107.576161 
L 80.454361 107.576161 
L 80.454361 95.413821 
L 81.423208 95.413821 
L 81.423208 88.411261 
L 82.392054 88.411261 
L 82.392054 81.408702 
L 83.360901 81.408702 
L 83.360901 76.617477 
L 84.329747 76.617477 
L 84.329747 71.457697 
L 85.298594 71.457697 
L 85.298594 63.718026 
L 86.26744 63.718026 
L 86.26744 63.34947 
L 87.236287 63.34947 
L 87.236287 60.032468 
L 88.205133 60.032468 
L 88.205133 52.661353 
L 89.17398 52.661353 
L 89.17398 42.341792 
L 90.142826 42.341792 
L 90.142826 45.658793 
L 91.111673 45.658793 
L 91.111673 27.599561 
L 92.080519 27.599561 
L 92.080519 38.656234 
L 93.049366 38.656234 
L 93.049366 17.28 
L 94.018212 17.28 
L 94.018212 31.653675 
L 94.987059 31.653675 
L 94.987059 23.545448 
L 95.955906 23.545448 
L 95.955906 36.076344 
L 96.924752 36.076344 
L 96.924752 30.179452 
L 97.893599 30.179452 
L 97.893599 35.707788 
L 98.862445 35.707788 
L 98.862445 26.493894 
L 99.831292 26.493894 
L 99.831292 37.919122 
L 100.800138 37.919122 
L 100.800138 24.282559 
L 101.768985 24.282559 
L 101.768985 29.073784 
L 102.737831 29.073784 
L 102.737831 67.772139 
L 103.706678 67.772139 
L 103.706678 38.656234 
L 104.675524 38.656234 
L 104.675524 53.398464 
L 105.644371 53.398464 
L 105.644371 73.669031 
L 106.613217 73.669031 
L 106.613217 77.354589 
L 107.582064 77.354589 
L 107.582064 86.568483 
L 108.55091 86.568483 
L 108.55091 109.41894 
L 109.519757 109.41894 
L 109.519757 114.947276 
L 110.488603 114.947276 
L 110.488603 117.895722 
L 111.45745 117.895722 
L 111.45745 121.212724 
L 112.426296 121.212724 
L 112.426296 138.534845 
L 113.395143 138.534845 
L 113.395143 144.800293 
L 114.363989 144.800293 
L 114.363989 154.014186 
L 115.332836 154.014186 
L 115.332836 161.385302 
L 116.301682 161.385302 
L 116.301682 171.704863 
L 117.270529 171.704863 
L 117.270529 177.970311 
L 118.239375 177.970311 
L 118.239375 189.026984 
L 119.208222 189.026984 
L 119.208222 195.660987 
L 120.177068 195.660987 
L 120.177068 205.980548 
L 121.145915 205.980548 
L 121.145915 213.720219 
L 122.114761 213.720219 
L 122.114761 218.511444 
L 123.083608 218.511444 
L 123.083608 218.88 
L 131.803226 218.88 
L 131.803226 206.71766 
L 132.772073 206.71766 
L 132.772073 168.387861 
L 133.740919 168.387861 
L 133.740919 140.746179 
L 134.709766 140.746179 
L 134.709766 106.470494 
L 135.678612 106.470494 
L 135.678612 85.831371 
L 136.647459 85.831371 
L 136.647459 95.413821 
L 137.616305 95.413821 
L 137.616305 93.202486 
L 138.585152 93.202486 
L 138.585152 85.462815 
L 139.553998 85.462815 
L 139.553998 108.681828 
L 140.522845 108.681828 
L 140.522845 98.730823 
L 141.491691 98.730823 
L 141.491691 92.465375 
L 142.460538 92.465375 
L 142.460538 97.625155 
L 143.429384 97.625155 
L 143.429384 100.942157 
L 144.398231 100.942157 
L 144.398231 101.679269 
L 145.367077 101.679269 
L 145.367077 118.264278 
L 146.335924 118.264278 
L 146.335924 113.841609 
L 147.30477 113.841609 
L 147.30477 114.947276 
L 148.273617 114.947276 
L 148.273617 110.893163 
L 149.242463 110.893163 
L 149.242463 107.207605 
L 150.21131 107.207605 
L 150.21131 113.104497 
L 151.180156 113.104497 
L 151.180156 110.524607 
L 152.149003 110.524607 
L 152.149003 123.424059 
L 153.117849 123.424059 
L 153.117849 112.367386 
L 154.086696 112.367386 
L 154.086696 127.109616 
L 155.055542 127.109616 
L 155.055542 125.635393 
L 156.024389 125.635393 
L 156.024389 120.844168 
L 156.993235 120.844168 
L 156.993235 129.320951 
L 157.962082 129.320951 
L 157.962082 123.424059 
L 158.930928 123.424059 
L 158.930928 120.107057 
L 159.899775 120.107057 
L 159.899775 134.480731 
L 160.868621 134.480731 
L 160.868621 127.478172 
L 161.837468 127.478172 
L 161.837468 131.900841 
L 162.806314 131.900841 
L 162.806314 143.694625 
L 163.775161 143.694625 
L 163.775161 136.692066 
L 164.744007 136.692066 
L 164.744007 137.060622 
L 165.712854 137.060622 
L 165.712854 135.954954 
L 166.681701 135.954954 
L 166.681701 149.222962 
L 167.650547 149.222962 
L 167.650547 138.166289 
L 168.619394 138.166289 
L 168.619394 140.009068 
L 169.58824 140.009068 
L 169.58824 149.960073 
L 170.557087 149.960073 
L 170.557087 152.908519 
L 171.525933 152.908519 
L 171.525933 163.22808 
L 172.49478 163.22808 
L 172.49478 165.070859 
L 173.463626 165.070859 
L 173.463626 177.970311 
L 174.432473 177.970311 
L 174.432473 172.441974 
L 175.401319 172.441974 
L 175.401319 175.39042 
L 176.370166 175.39042 
L 176.370166 189.395539 
L 177.339012 189.395539 
L 177.339012 193.449653 
L 178.307859 193.449653 
L 178.307859 200.820768 
L 179.276705 200.820768 
L 179.276705 209.666106 
L 180.245552 209.666106 
L 180.245552 208.560439 
L 181.214398 208.560439 
L 181.214398 212.614552 
L 182.183245 212.614552 
L 182.183245 217.405777 
L 183.152091 217.405777 
L 183.152091 218.142888 
L 184.120938 218.142888 
L 184.120938 215.931554 
L 185.089784 215.931554 
L 185.089784 205.611993 
L 186.058631 205.611993 
L 186.058631 191.97543 
L 187.027477 191.97543 
L 187.027477 178.338867 
L 187.996324 178.338867 
L 187.996324 166.913638 
L 188.96517 166.913638 
L 188.96517 152.908519 
L 189.934017 152.908519 
L 189.934017 143.326069 
L 190.902863 143.326069 
L 190.902863 142.220402 
L 191.87171 142.220402 
L 191.87171 148.48585 
L 192.840556 148.48585 
L 192.840556 150.697185 
L 193.809403 150.697185 
L 193.809403 151.802852 
L 194.778249 151.802852 
L 194.778249 156.962633 
L 195.747096 156.962633 
L 195.747096 156.594077 
L 196.715942 156.594077 
L 196.715942 152.171408 
L 197.684789 152.171408 
L 197.684789 161.385302 
L 198.653635 161.385302 
L 198.653635 158.805411 
L 199.622482 158.805411 
L 199.622482 164.333748 
L 200.591328 164.333748 
L 200.591328 158.805411 
L 201.560175 158.805411 
L 201.560175 159.173967 
L 202.529021 159.173967 
L 202.529021 164.333748 
L 203.497868 164.333748 
L 203.497868 160.279634 
L 204.466714 160.279634 
L 204.466714 167.65075 
L 205.435561 167.65075 
L 205.435561 171.704863 
L 206.404407 171.704863 
L 206.404407 167.282194 
L 207.373254 167.282194 
L 207.373254 172.81053 
L 208.3421 172.81053 
L 208.3421 170.967751 
L 209.310947 170.967751 
L 209.310947 174.653309 
L 210.279793 174.653309 
L 210.279793 179.075978 
L 211.24864 179.075978 
L 211.24864 180.181645 
L 212.217486 180.181645 
L 212.217486 178.338867 
L 213.186333 178.338867 
L 213.186333 180.181645 
L 214.155179 180.181645 
L 214.155179 187.921316 
L 215.124026 187.921316 
L 215.124026 188.658428 
L 216.092872 188.658428 
L 216.092872 190.869762 
L 217.061719 190.869762 
L 217.061719 186.078537 
L 218.030565 186.078537 
L 218.030565 181.655868 
L 218.999412 181.655868 
L 218.999412 193.081097 
L 219.968258 193.081097 
L 219.968258 197.872322 
L 220.937105 197.872322 
L 220.937105 200.083656 
L 221.905951 200.083656 
L 221.905951 201.557879 
L 222.874798 201.557879 
L 222.874798 200.820768 
L 223.843644 200.820768 
L 223.843644 204.874881 
L 224.812491 204.874881 
L 224.812491 205.980548 
L 225.781337 205.980548 
L 225.781337 207.454771 
L 226.750184 207.454771 
L 226.750184 208.928995 
L 227.71903 208.928995 
L 227.71903 214.825887 
L 228.687877 214.825887 
L 228.687877 215.194442 
L 229.656723 215.194442 
L 229.656723 217.037221 
L 230.62557 217.037221 
L 230.62557 217.774333 
L 231.594416 217.774333 
L 231.594416 216.668665 
L 232.563263 216.668665 
L 232.563263 210.034662 
L 233.532109 210.034662 
L 233.532109 203.032102 
L 234.500956 203.032102 
L 234.500956 198.977989 
L 235.469802 198.977989 
L 235.469802 189.764095 
L 236.438649 189.764095 
L 236.438649 183.867203 
L 237.407495 183.867203 
L 237.407495 190.501207 
L 238.376342 190.501207 
L 238.376342 187.184205 
L 239.345189 187.184205 
L 239.345189 187.552761 
L 240.314035 187.552761 
L 240.314035 192.712541 
L 241.282882 192.712541 
L 241.282882 197.13521 
L 242.251728 197.13521 
L 242.251728 187.184205 
L 243.220575 187.184205 
L 243.220575 197.13521 
L 244.189421 197.13521 
L 244.189421 198.977989 
L 245.158268 198.977989 
L 245.158268 195.660987 
L 246.127114 195.660987 
L 246.127114 200.452212 
L 247.095961 200.452212 
L 247.095961 199.346545 
L 248.064807 199.346545 
L 248.064807 194.55532 
L 249.033654 194.55532 
L 249.033654 199.715101 
L 250.0025 199.715101 
L 250.0025 198.240878 
L 251.940193 198.240878 
L 251.940193 205.980548 
L 252.90904 205.980548 
L 252.90904 204.506325 
L 253.877886 204.506325 
L 253.877886 202.294991 
L 254.846733 202.294991 
L 254.846733 204.13777 
L 255.815579 204.13777 
L 255.815579 206.71766 
L 256.784426 206.71766 
L 256.784426 208.560439 
L 257.753272 208.560439 
L 257.753272 209.29755 
L 258.722119 209.29755 
L 258.722119 208.928995 
L 260.659812 208.928995 
L 260.659812 211.877441 
L 261.628658 211.877441 
L 261.628658 210.403218 
L 262.597505 210.403218 
L 262.597505 215.194442 
L 263.566351 215.194442 
L 263.566351 212.983108 
L 264.535198 212.983108 
L 264.535198 213.720219 
L 265.504044 213.720219 
L 265.504044 211.877441 
L 266.472891 211.877441 
L 266.472891 215.931554 
L 269.37943 215.931554 
L 269.37943 217.774333 
L 270.348277 217.774333 
L 270.348277 216.668665 
L 271.317123 216.668665 
L 271.317123 217.405777 
L 272.28597 217.405777 
L 272.28597 218.142888 
L 274.223663 218.142888 
L 274.223663 218.88 
L 277.130202 218.88 
L 277.130202 217.405777 
L 278.099049 217.405777 
L 278.099049 217.037221 
L 279.067895 217.037221 
L 279.067895 213.351664 
L 280.036742 213.351664 
L 280.036742 207.454771 
L 281.005588 207.454771 
L 281.005588 208.191883 
L 281.974435 208.191883 
L 281.974435 207.823327 
L 282.943281 207.823327 
L 282.943281 206.349104 
L 283.912128 206.349104 
L 283.912128 207.086216 
L 284.880974 207.086216 
L 284.880974 206.71766 
L 285.849821 206.71766 
L 285.849821 207.454771 
L 286.818667 207.454771 
L 286.818667 208.560439 
L 288.75636 208.560439 
L 288.75636 209.29755 
L 289.725207 209.29755 
L 289.725207 211.140329 
L 290.694053 211.140329 
L 290.694053 210.034662 
L 291.6629 210.034662 
L 291.6629 211.508885 
L 292.631746 211.508885 
L 292.631746 209.666106 
L 293.600593 209.666106 
L 293.600593 208.560439 
L 294.569439 208.560439 
L 294.569439 210.034662 
L 295.538286 210.034662 
L 295.538286 211.877441 
L 296.507132 211.877441 
L 296.507132 213.720219 
L 297.475979 213.720219 
L 297.475979 212.614552 
L 298.444825 212.614552 
L 298.444825 212.983108 
L 299.413672 212.983108 
L 299.413672 211.508885 
L 300.382518 211.508885 
L 300.382518 215.562998 
L 301.351365 215.562998 
L 301.351365 212.245996 
L 302.320211 212.245996 
L 302.320211 215.194442 
L 303.289058 215.194442 
L 303.289058 216.30011 
L 304.257904 216.30011 
L 304.257904 217.037221 
L 305.226751 217.037221 
L 305.226751 214.825887 
L 306.195597 214.825887 
L 306.195597 217.037221 
L 307.164444 217.037221 
L 307.164444 218.511444 
L 308.13329 218.511444 
L 308.13329 215.931554 
L 309.102137 215.931554 
L 309.102137 217.774333 
L 310.070984 217.774333 
L 310.070984 218.88 
L 311.03983 218.88 
L 311.03983 217.774333 
L 312.008677 217.774333 
L 312.008677 218.88 
L 312.977523 218.88 
L 312.977523 218.142888 
L 313.94637 218.142888 
L 313.94637 218.511444 
L 316.852909 218.511444 
L 316.852909 218.88 
L 321.697142 218.88 
L 321.697142 218.142888 
L 322.665988 218.142888 
L 322.665988 217.774333 
L 323.634835 217.774333 
L 323.634835 214.825887 
L 324.603681 214.825887 
L 324.603681 212.983108 
L 325.572528 212.983108 
L 325.572528 212.614552 
L 326.541374 212.614552 
L 326.541374 211.140329 
L 327.510221 211.140329 
L 327.510221 208.191883 
L 328.479067 208.191883 
L 328.479067 204.13777 
L 329.447914 204.13777 
L 329.447914 204.506325 
L 330.41676 204.506325 
L 330.41676 207.454771 
L 331.385607 207.454771 
L 331.385607 200.452212 
L 332.354453 200.452212 
L 332.354453 204.13777 
L 333.3233 204.13777 
L 333.3233 204.506325 
L 334.292146 204.506325 
L 334.292146 202.294991 
L 335.260993 202.294991 
L 335.260993 204.874881 
L 336.229839 204.874881 
L 336.229839 206.349104 
L 337.198686 206.349104 
L 337.198686 209.29755 
L 338.167532 209.29755 
L 338.167532 203.032102 
L 340.105225 203.032102 
L 340.105225 205.243437 
L 341.074072 205.243437 
L 341.074072 201.189324 
L 342.042918 201.189324 
L 342.042918 204.506325 
L 343.011765 204.506325 
L 343.011765 203.769214 
L 343.980611 203.769214 
L 343.980611 202.663547 
L 344.949458 202.663547 
L 344.949458 207.823327 
L 346.887151 207.823327 
L 346.887151 208.928995 
L 347.855997 208.928995 
L 347.855997 211.508885 
L 348.824844 211.508885 
L 348.824844 207.823327 
L 349.79369 207.823327 
L 349.79369 211.877441 
L 350.762537 211.877441 
L 350.762537 206.71766 
L 351.731383 206.71766 
L 351.731383 210.034662 
L 352.70023 210.034662 
L 352.70023 209.29755 
L 354.637923 209.29755 
L 354.637923 205.980548 
L 355.606769 205.980548 
L 355.606769 210.771773 
L 356.575616 210.771773 
L 356.575616 211.140329 
L 357.544462 211.140329 
L 357.544462 210.403218 
L 358.513309 210.403218 
L 358.513309 211.140329 
L 359.482155 211.140329 
L 359.482155 214.088775 
L 360.451002 214.088775 
L 360.451002 215.194442 
L 361.419848 215.194442 
L 361.419848 211.877441 
L 362.388695 211.877441 
L 362.388695 214.825887 
L 363.357541 214.825887 
L 363.357541 216.30011 
L 364.326388 216.30011 
L 364.326388 213.720219 
L 365.295234 213.720219 
L 365.295234 216.30011 
L 366.264081 216.30011 
L 366.264081 217.774333 
L 367.232927 217.774333 
L 367.232927 217.774333 
" clip-path="url(#pf028897514)" style="fill: none; stroke: #1f77b4; stroke-width: 1.5; stroke-linecap: square"/>
   </g>
   <g id="line2d_16">
    <path d="M 62.803094 192.343985 
L 63.810261 192.343985 
L 63.810261 173.179086 
L 64.817428 173.179086 
L 64.817428 139.271956 
L 65.824595 139.271956 
L 65.824595 123.792614 
L 66.831762 123.792614 
L 66.831762 128.215283 
L 67.838929 128.215283 
L 67.838929 122.686947 
L 68.846096 122.686947 
L 68.846096 111.630274 
L 69.853263 111.630274 
L 69.853263 95.045265 
L 70.86043 95.045265 
L 70.86043 124.16117 
L 71.867597 124.16117 
L 71.867597 99.467934 
L 72.874764 99.467934 
L 72.874764 107.576161 
L 73.881931 107.576161 
L 73.881931 84.725704 
L 74.889098 84.725704 
L 74.889098 95.045265 
L 75.896265 95.045265 
L 75.896265 78.828812 
L 76.903432 78.828812 
L 76.903432 96.150932 
L 77.910599 96.150932 
L 77.910599 80.303035 
L 78.917766 80.303035 
L 78.917766 77.723144 
L 79.924933 77.723144 
L 79.924933 62.243803 
L 80.9321 62.243803 
L 80.9321 90.622596 
L 81.939267 90.622596 
L 81.939267 61.506691 
L 82.946434 61.506691 
L 82.946434 72.93192 
L 83.953601 72.93192 
L 83.953601 46.764461 
L 84.960768 46.764461 
L 84.960768 62.980914 
L 85.967935 62.980914 
L 85.967935 63.718026 
L 86.975102 63.718026 
L 86.975102 67.035027 
L 87.982269 67.035027 
L 87.982269 63.718026 
L 88.989436 63.718026 
L 88.989436 67.035027 
L 89.996603 67.035027 
L 89.996603 67.772139 
L 91.00377 67.772139 
L 91.00377 65.92936 
L 92.010937 65.92936 
L 92.010937 80.67159 
L 93.018104 80.67159 
L 93.018104 57.452578 
L 94.025271 57.452578 
L 94.025271 62.243803 
L 95.032438 62.243803 
L 95.032438 54.872687 
L 96.039605 54.872687 
L 96.039605 84.725704 
L 97.046772 84.725704 
L 97.046772 95.413821 
L 98.053939 95.413821 
L 98.053939 67.035027 
L 99.061106 67.035027 
L 99.061106 85.09426 
L 100.068273 85.09426 
L 100.068273 111.261718 
L 101.07544 111.261718 
L 101.07544 119.001389 
L 102.082607 119.001389 
L 102.082607 94.676709 
L 103.089774 94.676709 
L 103.089774 117.895722 
L 104.096941 117.895722 
L 104.096941 149.960073 
L 105.104108 149.960073 
L 105.104108 132.637952 
L 106.111275 132.637952 
L 106.111275 140.746179 
L 107.118442 140.746179 
L 107.118442 138.534845 
L 108.125609 138.534845 
L 108.125609 146.274516 
L 109.132776 146.274516 
L 109.132776 155.48841 
L 110.139943 155.48841 
L 110.139943 154.014186 
L 111.14711 154.014186 
L 111.14711 173.547642 
L 112.154277 173.547642 
L 112.154277 166.913638 
L 113.161444 166.913638 
L 113.161444 175.39042 
L 114.168611 175.39042 
L 114.168611 182.761536 
L 115.175778 182.761536 
L 115.175778 182.024424 
L 116.182945 182.024424 
L 116.182945 186.447093 
L 117.190112 186.447093 
L 117.190112 184.97287 
L 118.197279 184.97287 
L 118.197279 166.176527 
L 119.204446 166.176527 
L 119.204446 166.913638 
L 120.211613 166.913638 
L 120.211613 152.539963 
L 121.21878 152.539963 
L 121.21878 138.9034 
L 122.225947 138.9034 
L 122.225947 117.895722 
L 123.233114 117.895722 
L 123.233114 118.264278 
L 124.240281 118.264278 
L 124.240281 130.795174 
L 125.247448 130.795174 
L 125.247448 106.839049 
L 126.254615 106.839049 
L 126.254615 107.207605 
L 127.261782 107.207605 
L 127.261782 132.637952 
L 128.268949 132.637952 
L 128.268949 121.949835 
L 129.276116 121.949835 
L 129.276116 111.261718 
L 130.283283 111.261718 
L 130.283283 111.630274 
L 131.290451 111.630274 
L 131.290451 121.58128 
L 132.297618 121.58128 
L 132.297618 121.949835 
L 133.304785 121.949835 
L 133.304785 122.686947 
L 134.311952 122.686947 
L 134.311952 130.426618 
L 135.319119 130.426618 
L 135.319119 142.957514 
L 136.326286 142.957514 
L 136.326286 128.583839 
L 137.333453 128.583839 
L 137.333453 138.534845 
L 138.34062 138.534845 
L 138.34062 128.215283 
L 139.347787 128.215283 
L 139.347787 129.320951 
L 140.354954 129.320951 
L 140.354954 124.529726 
L 141.362121 124.529726 
L 141.362121 129.320951 
L 142.369288 129.320951 
L 142.369288 146.643071 
L 143.376455 146.643071 
L 143.376455 131.900841 
L 144.383622 131.900841 
L 144.383622 125.635393 
L 145.390789 125.635393 
L 145.390789 147.380183 
L 146.397956 147.380183 
L 146.397956 143.694625 
L 147.405123 143.694625 
L 147.405123 133.74362 
L 148.41229 133.74362 
L 148.41229 138.534845 
L 149.419457 138.534845 
L 149.419457 148.854406 
L 150.426624 148.854406 
L 150.426624 159.542523 
L 151.433791 159.542523 
L 151.433791 127.846728 
L 152.440958 127.846728 
L 152.440958 119.369945 
L 153.448125 119.369945 
L 153.448125 155.48841 
L 154.455292 155.48841 
L 154.455292 145.90596 
L 155.462459 145.90596 
L 155.462459 138.534845 
L 156.469626 138.534845 
L 156.469626 161.385302 
L 157.476793 161.385302 
L 157.476793 128.952395 
L 158.48396 128.952395 
L 158.48396 170.599196 
L 159.491127 170.599196 
L 159.491127 162.490969 
L 160.498294 162.490969 
L 160.498294 154.382742 
L 161.505461 154.382742 
L 161.505461 165.807971 
L 162.512628 165.807971 
L 162.512628 150.328629 
L 163.519795 150.328629 
L 163.519795 145.90596 
L 164.526962 145.90596 
L 164.526962 165.439415 
L 165.534129 165.439415 
L 165.534129 159.911079 
L 166.541296 159.911079 
L 166.541296 163.22808 
L 167.548463 163.22808 
L 167.548463 170.23064 
L 168.55563 170.23064 
L 168.55563 172.441974 
L 169.562797 172.441974 
L 169.562797 161.016746 
L 170.569964 161.016746 
L 170.569964 174.653309 
L 171.577131 174.653309 
L 171.577131 165.807971 
L 172.584298 165.807971 
L 172.584298 163.965192 
L 173.591465 163.965192 
L 173.591465 148.48585 
L 174.598632 148.48585 
L 174.598632 167.282194 
L 175.605799 167.282194 
L 175.605799 138.534845 
L 176.612966 138.534845 
L 176.612966 162.859525 
L 177.620133 162.859525 
L 177.620133 144.063181 
L 178.6273 144.063181 
L 178.6273 133.375064 
L 179.634467 133.375064 
L 179.634467 175.021865 
L 180.641634 175.021865 
L 180.641634 149.222962 
L 181.648801 149.222962 
L 181.648801 163.596636 
L 182.655968 163.596636 
L 182.655968 172.073419 
L 183.663135 172.073419 
L 183.663135 154.382742 
L 184.670302 154.382742 
L 184.670302 180.550201 
L 185.677469 180.550201 
L 185.677469 163.965192 
L 186.684636 163.965192 
L 186.684636 179.075978 
L 187.691803 179.075978 
L 187.691803 144.800293 
L 188.69897 144.800293 
L 188.69897 177.970311 
L 189.706137 177.970311 
L 189.706137 176.127532 
L 190.713304 176.127532 
L 190.713304 170.967751 
L 191.720471 170.967751 
L 191.720471 176.496088 
L 192.727638 176.496088 
L 192.727638 170.23064 
L 193.734805 170.23064 
L 193.734805 150.697185 
L 194.741972 150.697185 
L 194.741972 187.184205 
L 195.749139 187.184205 
L 195.749139 189.026984 
L 196.756306 189.026984 
L 196.756306 178.338867 
L 197.763473 178.338867 
L 197.763473 176.864644 
L 198.77064 176.864644 
L 198.77064 184.235759 
L 199.777807 184.235759 
L 199.777807 171.336307 
L 200.784974 171.336307 
L 200.784974 193.818208 
L 201.792141 193.818208 
L 201.792141 168.387861 
L 202.799308 168.387861 
L 202.799308 197.13521 
L 203.806475 197.13521 
L 203.806475 177.601755 
L 204.813642 177.601755 
L 204.813642 192.343985 
L 205.820809 192.343985 
L 205.820809 182.39298 
L 206.827976 182.39298 
L 206.827976 192.343985 
L 207.835143 192.343985 
L 207.835143 194.55532 
L 208.84231 194.55532 
L 208.84231 198.240878 
L 209.849477 198.240878 
L 209.849477 191.97543 
L 210.856644 191.97543 
L 210.856644 200.820768 
L 211.863811 200.820768 
L 211.863811 192.343985 
L 212.870978 192.343985 
L 212.870978 189.026984 
L 213.878145 189.026984 
L 213.878145 191.97543 
L 214.885312 191.97543 
L 214.885312 195.660987 
L 215.892479 195.660987 
L 215.892479 198.609433 
L 216.899646 198.609433 
L 216.899646 200.820768 
L 217.906813 200.820768 
L 217.906813 195.292431 
L 219.921147 195.292431 
L 219.921147 194.186764 
L 220.928314 194.186764 
L 220.928314 190.869762 
L 221.935481 190.869762 
L 221.935481 186.078537 
L 222.942648 186.078537 
L 222.942648 186.815649 
L 223.949815 186.815649 
L 223.949815 187.552761 
L 224.956982 187.552761 
L 224.956982 186.447093 
L 225.964149 186.447093 
L 225.964149 192.343985 
L 226.971316 192.343985 
L 226.971316 186.078537 
L 227.978483 186.078537 
L 227.978483 199.346545 
L 228.98565 199.346545 
L 228.98565 197.503766 
L 230.999984 197.503766 
L 230.999984 197.872322 
L 232.007151 197.872322 
L 232.007151 195.660987 
L 233.014318 195.660987 
L 233.014318 204.506325 
L 234.021485 204.506325 
L 234.021485 202.663547 
L 235.028652 202.663547 
L 235.028652 199.715101 
L 236.035819 199.715101 
L 236.035819 202.663547 
L 237.042986 202.663547 
L 237.042986 205.611993 
L 238.050153 205.611993 
L 238.050153 204.506325 
L 239.05732 204.506325 
L 239.05732 194.923876 
L 240.064487 194.923876 
L 240.064487 207.454771 
L 241.071654 207.454771 
L 241.071654 193.081097 
L 242.078821 193.081097 
L 242.078821 212.983108 
L 243.085988 212.983108 
L 243.085988 200.452212 
L 244.093155 200.452212 
L 244.093155 206.349104 
L 245.100322 206.349104 
L 245.100322 212.245996 
L 246.107489 212.245996 
L 246.107489 205.243437 
L 247.114656 205.243437 
L 247.114656 200.452212 
L 248.121823 200.452212 
L 248.121823 214.088775 
L 249.12899 214.088775 
L 249.12899 212.245996 
L 250.136157 212.245996 
L 250.136157 208.191883 
L 251.143324 208.191883 
L 251.143324 208.560439 
L 252.150491 208.560439 
L 252.150491 214.457331 
L 253.157658 214.457331 
L 253.157658 209.29755 
L 254.164825 209.29755 
L 254.164825 211.140329 
L 255.171992 211.140329 
L 255.171992 212.614552 
L 256.179159 212.614552 
L 256.179159 215.194442 
L 257.186326 215.194442 
L 257.186326 211.877441 
L 258.193493 211.877441 
L 258.193493 215.194442 
L 259.20066 215.194442 
L 259.20066 212.614552 
L 260.207827 212.614552 
L 260.207827 218.142888 
L 261.214994 218.142888 
L 261.214994 212.983108 
L 262.222161 212.983108 
L 262.222161 211.508885 
L 263.229328 211.508885 
L 263.229328 215.562998 
L 264.236495 215.562998 
L 264.236495 215.931554 
L 265.243662 215.931554 
L 265.243662 211.877441 
L 266.250829 211.877441 
L 266.250829 208.560439 
L 267.257996 208.560439 
L 267.257996 210.771773 
L 268.265163 210.771773 
L 268.265163 212.245996 
L 269.27233 212.245996 
L 269.27233 210.034662 
L 270.279497 210.034662 
L 270.279497 210.771773 
L 271.286664 210.771773 
L 271.286664 206.71766 
L 272.293831 206.71766 
L 272.293831 207.086216 
L 273.300998 207.086216 
L 273.300998 212.614552 
L 274.308165 212.614552 
L 274.308165 210.771773 
L 275.315332 210.771773 
L 275.315332 207.086216 
L 276.322499 207.086216 
L 276.322499 209.666106 
L 277.329666 209.666106 
L 277.329666 212.983108 
L 278.336833 212.983108 
L 278.336833 207.086216 
L 279.344 207.086216 
L 279.344 213.720219 
L 280.351167 213.720219 
L 280.351167 214.088775 
L 281.358334 214.088775 
L 281.358334 210.771773 
L 282.365501 210.771773 
L 282.365501 214.825887 
L 283.372668 214.825887 
L 283.372668 213.351664 
L 284.379835 213.351664 
L 284.379835 208.191883 
L 285.387002 208.191883 
L 285.387002 211.140329 
L 286.394169 211.140329 
L 286.394169 213.720219 
L 287.401336 213.720219 
L 287.401336 211.508885 
L 288.408503 211.508885 
L 288.408503 216.30011 
L 289.41567 216.30011 
L 289.41567 212.983108 
L 290.422837 212.983108 
L 290.422837 213.720219 
L 291.430004 213.720219 
L 291.430004 215.931554 
L 292.437171 215.931554 
L 292.437171 214.088775 
L 293.444338 214.088775 
L 293.444338 212.983108 
L 294.451505 212.983108 
L 294.451505 215.931554 
L 295.458672 215.931554 
L 295.458672 214.457331 
L 296.465839 214.457331 
L 296.465839 213.720219 
L 297.473006 213.720219 
L 297.473006 216.30011 
L 298.480173 216.30011 
L 298.480173 217.774333 
L 299.48734 217.774333 
L 299.48734 218.142888 
L 300.494507 218.142888 
L 300.494507 215.194442 
L 301.501674 215.194442 
L 301.501674 217.037221 
L 302.508841 217.037221 
L 302.508841 217.774333 
L 303.516008 217.774333 
L 303.516008 218.511444 
L 304.523175 218.511444 
L 304.523175 215.562998 
L 305.530342 215.562998 
L 305.530342 217.774333 
L 306.537509 217.774333 
L 306.537509 218.511444 
L 307.544676 218.511444 
L 307.544676 217.774333 
L 308.551843 217.774333 
L 308.551843 214.825887 
L 309.55901 214.825887 
L 309.55901 214.088775 
L 310.566177 214.088775 
L 310.566177 215.194442 
L 311.573344 215.194442 
L 311.573344 217.037221 
L 312.580511 217.037221 
L 312.580511 208.191883 
L 313.587678 208.191883 
L 313.587678 215.562998 
L 314.594845 215.562998 
L 314.594845 211.508885 
L 315.602012 211.508885 
L 315.602012 204.874881 
L 316.609179 204.874881 
L 316.609179 214.825887 
L 317.616346 214.825887 
L 317.616346 204.13777 
L 318.623513 204.13777 
L 318.623513 208.928995 
L 319.63068 208.928995 
L 319.63068 212.245996 
L 320.637847 212.245996 
L 320.637847 202.663547 
L 321.645014 202.663547 
L 321.645014 210.403218 
L 322.652181 210.403218 
L 322.652181 198.977989 
L 323.659348 198.977989 
L 323.659348 208.191883 
L 324.666515 208.191883 
L 324.666515 211.877441 
L 325.673682 211.877441 
L 325.673682 206.349104 
L 326.680849 206.349104 
L 326.680849 203.769214 
L 327.688016 203.769214 
L 327.688016 215.931554 
L 328.695183 215.931554 
L 328.695183 201.926435 
L 329.70235 201.926435 
L 329.70235 205.243437 
L 330.709517 205.243437 
L 330.709517 207.454771 
L 331.716684 207.454771 
L 331.716684 215.194442 
L 332.723851 215.194442 
L 332.723851 196.398099 
L 333.731018 196.398099 
L 333.731018 211.140329 
L 334.738185 211.140329 
L 334.738185 204.874881 
L 335.745352 204.874881 
L 335.745352 207.823327 
L 336.752519 207.823327 
L 336.752519 204.874881 
L 337.759686 204.874881 
L 337.759686 214.457331 
L 338.766853 214.457331 
L 338.766853 209.666106 
L 339.77402 209.666106 
L 339.77402 208.560439 
L 340.781187 208.560439 
L 340.781187 217.037221 
L 341.788354 217.037221 
L 341.788354 212.614552 
L 342.795521 212.614552 
L 342.795521 213.351664 
L 343.802688 213.351664 
L 343.802688 205.243437 
L 344.809855 205.243437 
L 344.809855 207.823327 
L 345.817022 207.823327 
L 345.817022 214.457331 
L 346.824189 214.457331 
L 346.824189 213.720219 
L 347.831356 213.720219 
L 347.831356 207.454771 
L 348.838523 207.454771 
L 348.838523 212.614552 
L 349.84569 212.614552 
L 349.84569 207.823327 
L 350.852857 207.823327 
L 350.852857 213.351664 
L 351.860024 213.351664 
L 351.860024 208.191883 
L 352.867191 208.191883 
L 352.867191 214.825887 
L 353.874358 214.825887 
L 353.874358 212.614552 
L 354.881525 212.614552 
L 354.881525 209.29755 
L 355.888692 209.29755 
L 355.888692 217.037221 
L 357.903026 217.037221 
L 357.903026 213.720219 
L 358.910193 213.720219 
L 358.910193 211.140329 
L 359.91736 211.140329 
L 359.91736 217.037221 
L 361.931694 217.037221 
L 361.931694 214.825887 
L 362.938861 214.825887 
L 362.938861 216.668665 
L 364.953195 216.668665 
L 364.953195 216.668665 
" clip-path="url(#pf028897514)" style="fill: none; stroke: #ff7f0e; stroke-width: 1.5; stroke-linecap: square"/>
   </g>
   <g id="line2d_17">
    <path d="M 62.17253 202.294991 
L 63.186323 202.294991 
L 63.186323 184.235759 
L 64.200117 184.235759 
L 64.200117 157.331188 
L 65.213911 157.331188 
L 65.213911 141.483291 
L 66.227704 141.483291 
L 66.227704 116.421499 
L 67.241498 116.421499 
L 67.241498 138.166289 
L 68.255292 138.166289 
L 68.255292 104.627715 
L 69.269085 104.627715 
L 69.269085 108.681828 
L 70.282879 108.681828 
L 70.282879 110.156051 
L 71.296672 110.156051 
L 71.296672 109.050384 
L 72.310466 109.050384 
L 72.310466 99.099378 
L 73.32426 99.099378 
L 73.32426 96.519488 
L 74.338053 96.519488 
L 74.338053 89.885484 
L 75.351847 89.885484 
L 75.351847 83.251481 
L 76.365641 83.251481 
L 76.365641 93.571042 
L 77.379434 93.571042 
L 77.379434 86.568483 
L 78.393228 86.568483 
L 78.393228 69.983473 
L 79.407022 69.983473 
L 79.407022 75.880366 
L 80.420815 75.880366 
L 80.420815 81.040146 
L 81.434609 81.040146 
L 81.434609 68.140695 
L 82.448403 68.140695 
L 82.448403 62.243803 
L 83.462196 62.243803 
L 83.462196 58.189689 
L 84.47599 58.189689 
L 84.47599 53.029909 
L 85.489783 53.029909 
L 85.489783 65.92936 
L 86.503577 65.92936 
L 86.503577 75.143254 
L 87.517371 75.143254 
L 87.517371 57.452578 
L 88.531164 57.452578 
L 88.531164 64.823693 
L 90.558752 64.823693 
L 90.558752 67.403583 
L 91.572545 67.403583 
L 91.572545 60.032468 
L 92.586339 60.032468 
L 92.586339 75.143254 
L 93.600133 75.143254 
L 93.600133 68.50925 
L 94.613926 68.50925 
L 94.613926 39.761901 
L 95.62772 39.761901 
L 95.62772 84.725704 
L 96.641514 84.725704 
L 96.641514 83.988592 
L 98.669101 83.988592 
L 98.669101 86.568483 
L 99.682894 86.568483 
L 99.682894 89.516929 
L 100.696688 89.516929 
L 100.696688 114.57872 
L 101.710482 114.57872 
L 101.710482 109.050384 
L 102.724275 109.050384 
L 102.724275 105.733382 
L 103.738069 105.733382 
L 103.738069 133.74362 
L 104.751863 133.74362 
L 104.751863 143.694625 
L 105.765656 143.694625 
L 105.765656 133.74362 
L 106.77945 133.74362 
L 106.77945 137.429177 
L 107.793244 137.429177 
L 107.793244 149.960073 
L 108.807037 149.960073 
L 108.807037 144.063181 
L 109.820831 144.063181 
L 109.820831 161.385302 
L 110.834625 161.385302 
L 110.834625 163.22808 
L 111.848418 163.22808 
L 111.848418 167.282194 
L 112.862212 167.282194 
L 112.862212 175.758976 
L 113.876005 175.758976 
L 113.876005 176.496088 
L 114.889799 176.496088 
L 114.889799 180.918757 
L 115.903593 180.918757 
L 115.903593 186.447093 
L 116.917386 186.447093 
L 116.917386 183.867203 
L 117.93118 183.867203 
L 117.93118 172.441974 
L 118.944974 172.441974 
L 118.944974 157.331188 
L 119.958767 157.331188 
L 119.958767 160.64819 
L 120.972561 160.64819 
L 120.972561 132.269397 
L 121.986355 132.269397 
L 121.986355 130.058062 
L 123.000148 130.058062 
L 123.000148 125.635393 
L 124.013942 125.635393 
L 124.013942 121.949835 
L 125.027736 121.949835 
L 125.027736 112.367386 
L 126.041529 112.367386 
L 126.041529 113.473053 
L 127.055323 113.473053 
L 127.055323 115.684388 
L 128.069116 115.684388 
L 128.069116 124.529726 
L 129.08291 124.529726 
L 129.08291 116.421499 
L 130.096704 116.421499 
L 130.096704 117.158611 
L 131.110497 117.158611 
L 131.110497 115.684388 
L 132.124291 115.684388 
L 132.124291 119.738501 
L 133.138085 119.738501 
L 133.138085 123.055503 
L 134.151878 123.055503 
L 134.151878 128.583839 
L 135.165672 128.583839 
L 135.165672 133.74362 
L 137.193259 133.74362 
L 137.193259 138.166289 
L 138.207053 138.166289 
L 138.207053 131.900841 
L 139.220847 131.900841 
L 139.220847 123.055503 
L 141.248434 123.055503 
L 141.248434 130.058062 
L 142.262227 130.058062 
L 142.262227 133.375064 
L 143.276021 133.375064 
L 143.276021 144.800293 
L 144.289815 144.800293 
L 144.289815 128.583839 
L 145.303608 128.583839 
L 145.303608 140.377623 
L 146.317402 140.377623 
L 146.317402 137.429177 
L 147.331196 137.429177 
L 147.331196 142.220402 
L 148.344989 142.220402 
L 148.344989 141.483291 
L 149.358783 141.483291 
L 149.358783 141.851846 
L 150.372577 141.851846 
L 150.372577 138.534845 
L 151.38637 138.534845 
L 151.38637 145.168848 
L 152.400164 145.168848 
L 152.400164 139.640512 
L 153.413958 139.640512 
L 153.413958 144.063181 
L 154.427751 144.063181 
L 154.427751 146.643071 
L 155.441545 146.643071 
L 155.441545 144.431737 
L 156.455338 144.431737 
L 156.455338 151.802852 
L 157.469132 151.802852 
L 157.469132 158.805411 
L 158.482926 158.805411 
L 158.482926 143.694625 
L 159.496719 143.694625 
L 159.496719 155.119854 
L 160.510513 155.119854 
L 160.510513 158.0683 
L 161.524307 158.0683 
L 161.524307 155.856965 
L 162.5381 155.856965 
L 162.5381 152.171408 
L 163.551894 152.171408 
L 163.551894 158.436856 
L 164.565688 158.436856 
L 164.565688 155.119854 
L 165.579481 155.119854 
L 165.579481 160.64819 
L 166.593275 160.64819 
L 166.593275 166.545082 
L 167.607069 166.545082 
L 167.607069 167.282194 
L 168.620862 167.282194 
L 168.620862 170.967751 
L 169.634656 170.967751 
L 169.634656 171.704863 
L 170.648449 171.704863 
L 170.648449 162.859525 
L 171.662243 162.859525 
L 171.662243 163.965192 
L 172.676037 163.965192 
L 172.676037 160.279634 
L 173.68983 160.279634 
L 173.68983 157.331188 
L 174.703624 157.331188 
L 174.703624 151.802852 
L 175.717418 151.802852 
L 175.717418 151.434296 
L 176.731211 151.434296 
L 176.731211 148.854406 
L 177.745005 148.854406 
L 177.745005 149.222962 
L 178.758799 149.222962 
L 178.758799 152.171408 
L 179.772592 152.171408 
L 179.772592 151.802852 
L 180.786386 151.802852 
L 180.786386 158.0683 
L 181.80018 158.0683 
L 181.80018 163.596636 
L 182.813973 163.596636 
L 182.813973 163.22808 
L 183.827767 163.22808 
L 183.827767 166.913638 
L 185.855354 166.913638 
L 185.855354 173.179086 
L 186.869148 173.179086 
L 186.869148 166.545082 
L 187.882941 166.545082 
L 187.882941 166.913638 
L 188.896735 166.913638 
L 188.896735 169.124973 
L 189.910529 169.124973 
L 189.910529 166.545082 
L 190.924322 166.545082 
L 190.924322 177.601755 
L 191.938116 177.601755 
L 191.938116 172.441974 
L 192.95191 172.441974 
L 192.95191 164.702303 
L 193.965703 164.702303 
L 193.965703 174.284753 
L 194.979497 174.284753 
L 194.979497 176.864644 
L 195.993291 176.864644 
L 195.993291 185.341426 
L 197.007084 185.341426 
L 197.007084 176.864644 
L 198.020878 176.864644 
L 198.020878 176.127532 
L 199.034671 176.127532 
L 199.034671 187.184205 
L 200.048465 187.184205 
L 200.048465 182.39298 
L 201.062259 182.39298 
L 201.062259 179.075978 
L 202.076052 179.075978 
L 202.076052 185.341426 
L 203.089846 185.341426 
L 203.089846 184.604314 
L 204.10364 184.604314 
L 204.10364 187.552761 
L 205.117433 187.552761 
L 205.117433 180.550201 
L 206.131227 180.550201 
L 206.131227 188.289872 
L 207.145021 188.289872 
L 207.145021 189.026984 
L 208.158814 189.026984 
L 208.158814 199.715101 
L 209.172608 199.715101 
L 209.172608 193.818208 
L 210.186402 193.818208 
L 210.186402 195.292431 
L 211.200195 195.292431 
L 211.200195 190.869762 
L 212.213989 190.869762 
L 212.213989 197.872322 
L 213.227782 197.872322 
L 213.227782 190.132651 
L 214.241576 190.132651 
L 214.241576 193.818208 
L 215.25537 193.818208 
L 215.25537 194.55532 
L 216.269163 194.55532 
L 216.269163 198.240878 
L 217.282957 198.240878 
L 217.282957 197.872322 
L 218.296751 197.872322 
L 218.296751 196.029543 
L 219.310544 196.029543 
L 219.310544 195.292431 
L 220.324338 195.292431 
L 220.324338 190.132651 
L 221.338132 190.132651 
L 221.338132 189.395539 
L 222.351925 189.395539 
L 222.351925 186.815649 
L 223.365719 186.815649 
L 223.365719 186.447093 
L 224.379513 186.447093 
L 224.379513 189.395539 
L 225.393306 189.395539 
L 225.393306 188.658428 
L 227.420893 188.658428 
L 227.420893 191.97543 
L 228.434687 191.97543 
L 228.434687 198.977989 
L 229.448481 198.977989 
L 229.448481 196.029543 
L 230.462274 196.029543 
L 230.462274 195.292431 
L 231.476068 195.292431 
L 231.476068 201.557879 
L 232.489862 201.557879 
L 232.489862 199.715101 
L 233.503655 199.715101 
L 233.503655 203.032102 
L 234.517449 203.032102 
L 234.517449 199.346545 
L 235.531243 199.346545 
L 235.531243 198.977989 
L 236.545036 198.977989 
L 236.545036 205.243437 
L 237.55883 205.243437 
L 237.55883 204.506325 
L 238.572624 204.506325 
L 238.572624 200.452212 
L 239.586417 200.452212 
L 239.586417 202.663547 
L 240.600211 202.663547 
L 240.600211 201.926435 
L 242.627798 201.926435 
L 242.627798 205.243437 
L 244.655385 205.243437 
L 244.655385 208.560439 
L 245.669179 208.560439 
L 245.669179 207.454771 
L 246.682973 207.454771 
L 246.682973 206.349104 
L 247.696766 206.349104 
L 247.696766 207.454771 
L 248.71056 207.454771 
L 248.71056 210.403218 
L 249.724354 210.403218 
L 249.724354 208.928995 
L 250.738147 208.928995 
L 250.738147 209.29755 
L 251.751941 209.29755 
L 251.751941 211.140329 
L 252.765735 211.140329 
L 252.765735 211.877441 
L 253.779528 211.877441 
L 253.779528 210.403218 
L 254.793322 210.403218 
L 254.793322 211.508885 
L 255.807115 211.508885 
L 255.807115 214.457331 
L 256.820909 214.457331 
L 256.820909 212.245996 
L 257.834703 212.245996 
L 257.834703 213.720219 
L 258.848496 213.720219 
L 258.848496 214.825887 
L 259.86229 214.825887 
L 259.86229 215.194442 
L 260.876084 215.194442 
L 260.876084 214.457331 
L 261.889877 214.457331 
L 261.889877 212.245996 
L 262.903671 212.245996 
L 262.903671 213.720219 
L 263.917465 213.720219 
L 263.917465 215.931554 
L 264.931258 215.931554 
L 264.931258 213.720219 
L 265.945052 213.720219 
L 265.945052 209.29755 
L 266.958846 209.29755 
L 266.958846 208.928995 
L 267.972639 208.928995 
L 267.972639 210.771773 
L 268.986433 210.771773 
L 268.986433 212.983108 
L 270.000226 212.983108 
L 270.000226 208.928995 
L 271.01402 208.928995 
L 271.01402 207.086216 
L 272.027814 207.086216 
L 272.027814 209.666106 
L 273.041607 209.666106 
L 273.041607 210.034662 
L 274.055401 210.034662 
L 274.055401 211.140329 
L 275.069195 211.140329 
L 275.069195 207.086216 
L 276.082988 207.086216 
L 276.082988 210.771773 
L 277.096782 210.771773 
L 277.096782 210.034662 
L 278.110576 210.034662 
L 278.110576 211.140329 
L 280.138163 211.140329 
L 280.138163 212.614552 
L 281.151957 212.614552 
L 281.151957 213.351664 
L 284.193337 213.351664 
L 284.193337 209.666106 
L 285.207131 209.666106 
L 285.207131 210.034662 
L 286.220925 210.034662 
L 286.220925 211.508885 
L 287.234718 211.508885 
L 287.234718 214.088775 
L 289.262306 214.088775 
L 289.262306 214.457331 
L 291.289893 214.457331 
L 291.289893 214.088775 
L 292.303687 214.088775 
L 292.303687 213.720219 
L 293.31748 213.720219 
L 293.31748 214.088775 
L 294.331274 214.088775 
L 294.331274 215.194442 
L 295.345068 215.194442 
L 295.345068 214.457331 
L 296.358861 214.457331 
L 296.358861 214.825887 
L 297.372655 214.825887 
L 297.372655 215.931554 
L 298.386448 215.931554 
L 298.386448 217.037221 
L 299.400242 217.037221 
L 299.400242 217.405777 
L 300.414036 217.405777 
L 300.414036 215.931554 
L 301.427829 215.931554 
L 301.427829 217.037221 
L 302.441623 217.037221 
L 302.441623 218.142888 
L 304.46921 218.142888 
L 304.46921 216.668665 
L 305.483004 216.668665 
L 305.483004 216.30011 
L 306.496798 216.30011 
L 306.496798 217.774333 
L 307.510591 217.774333 
L 307.510591 217.405777 
L 308.524385 217.405777 
L 308.524385 215.194442 
L 309.538179 215.194442 
L 309.538179 214.088775 
L 310.551972 214.088775 
L 310.551972 214.825887 
L 311.565766 214.825887 
L 311.565766 212.983108 
L 312.579559 212.983108 
L 312.579559 212.614552 
L 313.593353 212.614552 
L 313.593353 208.928995 
L 314.607147 208.928995 
L 314.607147 211.877441 
L 315.62094 211.877441 
L 315.62094 210.403218 
L 316.634734 210.403218 
L 316.634734 207.823327 
L 317.648528 207.823327 
L 317.648528 210.034662 
L 318.662321 210.034662 
L 318.662321 209.666106 
L 319.676115 209.666106 
L 319.676115 208.191883 
L 320.689909 208.191883 
L 320.689909 205.243437 
L 321.703702 205.243437 
L 321.703702 208.928995 
L 323.73129 208.928995 
L 323.73129 205.243437 
L 324.745083 205.243437 
L 324.745083 207.454771 
L 325.758877 207.454771 
L 325.758877 206.349104 
L 326.77267 206.349104 
L 326.77267 205.980548 
L 327.786464 205.980548 
L 327.786464 209.666106 
L 328.800258 209.666106 
L 328.800258 207.454771 
L 329.814051 207.454771 
L 329.814051 208.191883 
L 330.827845 208.191883 
L 330.827845 205.980548 
L 331.841639 205.980548 
L 331.841639 203.032102 
L 332.855432 203.032102 
L 332.855432 208.191883 
L 333.869226 208.191883 
L 333.869226 207.823327 
L 334.88302 207.823327 
L 334.88302 204.506325 
L 335.896813 204.506325 
L 335.896813 210.034662 
L 336.910607 210.034662 
L 336.910607 207.454771 
L 337.924401 207.454771 
L 337.924401 211.508885 
L 338.938194 211.508885 
L 338.938194 208.560439 
L 339.951988 208.560439 
L 339.951988 214.088775 
L 340.965781 214.088775 
L 340.965781 210.403218 
L 341.979575 210.403218 
L 341.979575 210.034662 
L 342.993369 210.034662 
L 342.993369 212.245996 
L 344.007162 212.245996 
L 344.007162 209.666106 
L 345.020956 209.666106 
L 345.020956 208.191883 
L 346.03475 208.191883 
L 346.03475 211.140329 
L 347.048543 211.140329 
L 347.048543 210.771773 
L 348.062337 210.771773 
L 348.062337 215.194442 
L 349.076131 215.194442 
L 349.076131 211.140329 
L 350.089924 211.140329 
L 350.089924 209.666106 
L 351.103718 209.666106 
L 351.103718 210.403218 
L 352.117512 210.403218 
L 352.117512 209.29755 
L 353.131305 209.29755 
L 353.131305 213.720219 
L 354.145099 213.720219 
L 354.145099 212.614552 
L 355.158892 212.614552 
L 355.158892 215.562998 
L 356.172686 215.562998 
L 356.172686 213.351664 
L 357.18648 213.351664 
L 357.18648 214.457331 
L 358.200273 214.457331 
L 358.200273 213.720219 
L 359.214067 213.720219 
L 359.214067 214.825887 
L 360.227861 214.825887 
L 360.227861 215.194442 
L 361.241654 215.194442 
L 361.241654 216.30011 
L 364.283035 216.30011 
L 364.283035 216.668665 
L 365.296829 216.668665 
L 365.296829 218.511444 
L 366.310623 218.511444 
L 366.310623 218.511444 
" clip-path="url(#pf028897514)" style="fill: none; stroke: #2ca02c; stroke-width: 1.5; stroke-linecap: square"/>
   </g>
   <g id="patch_3">
    <path d="M 46.965625 228.96 
L 46.965625 7.2 
" style="fill: none; stroke: #000000; stroke-width: 0.8; stroke-linejoin: miter; stroke-linecap: square"/>
   </g>
   <g id="patch_4">
    <path d="M 381.765625 228.96 
L 381.765625 7.2 
" style="fill: none; stroke: #000000; stroke-width: 0.8; stroke-linejoin: miter; stroke-linecap: square"/>
   </g>
   <g id="patch_5">
    <path d="M 46.965625 228.96 
L 381.765625 228.96 
" style="fill: none; stroke: #000000; stroke-width: 0.8; stroke-linejoin: miter; stroke-linecap: square"/>
   </g>
   <g id="patch_6">
    <path d="M 46.965625 7.2 
L 381.765625 7.2 
" style="fill: none; stroke: #000000; stroke-width: 0.8; stroke-linejoin: miter; stroke-linecap: square"/>
   </g>
   <g id="legend_1">
    <g id="patch_7">
     <path d="M 305.3875 59.234375 
L 374.765625 59.234375 
Q 376.765625 59.234375 376.765625 57.234375 
L 376.765625 14.2 
Q 376.765625 12.2 374.765625 12.2 
L 305.3875 12.2 
Q 303.3875 12.2 303.3875 14.2 
L 303.3875 57.234375 
Q 303.3875 59.234375 305.3875 59.234375 
z
" style="fill: #ffffff; opacity: 0.8; stroke: #cccccc; stroke-linejoin: miter"/>
    </g>
    <g id="line2d_18">
     <path d="M 307.3875 20.298438 
L 307.3875 20.298438 
L 317.3875 20.298438 
L 317.3875 20.298438 
L 327.3875 20.298438 
" style="fill: none; stroke: #1f77b4; stroke-width: 1.5; stroke-linecap: square"/>
    </g>
    <g id="text_17">
     <!-- naive -->
     <g transform="translate(335.3875 23.798438) scale(0.1 -0.1)">
      <defs>
       <path id="DejaVuSans-69" d="M 603 3500 
L 1178 3500 
L 1178 0 
L 603 0 
L 603 3500 
z
M 603 4863 
L 1178 4863 
L 1178 4134 
L 603 4134 
L 603 4863 
z
" transform="scale(0.015625)"/>
      </defs>
      <use xlink:href="#DejaVuSans-6e"/>
      <use xlink:href="#DejaVuSans-61" transform="translate(63.378906 0)"/>
      <use xlink:href="#DejaVuSans-69" transform="translate(124.658203 0)"/>
      <use xlink:href="#DejaVuSans-76" transform="translate(152.441406 0)"/>
      <use xlink:href="#DejaVuSans-65" transform="translate(211.621094 0)"/>
     </g>
    </g>
    <g id="line2d_19">
     <path d="M 307.3875 34.976562 
L 307.3875 34.976562 
L 317.3875 34.976562 
L 317.3875 34.976562 
L 327.3875 34.976562 
" style="fill: none; stroke: #ff7f0e; stroke-width: 1.5; stroke-linecap: square"/>
    </g>
    <g id="text_18">
     <!-- wfm -->
     <g transform="translate(335.3875 38.476562) scale(0.1 -0.1)">
      <defs>
       <path id="DejaVuSans-66" d="M 2375 4863 
L 2375 4384 
L 1825 4384 
Q 1516 4384 1395 4259 
Q 1275 4134 1275 3809 
L 1275 3500 
L 2222 3500 
L 2222 3053 
L 1275 3053 
L 1275 0 
L 697 0 
L 697 3053 
L 147 3053 
L 147 3500 
L 697 3500 
L 697 3744 
Q 697 4328 969 4595 
Q 1241 4863 1831 4863 
L 2375 4863 
z
" transform="scale(0.015625)"/>
       <path id="DejaVuSans-6d" d="M 3328 2828 
Q 3544 3216 3844 3400 
Q 4144 3584 4550 3584 
Q 5097 3584 5394 3201 
Q 5691 2819 5691 2113 
L 5691 0 
L 5113 0 
L 5113 2094 
Q 5113 2597 4934 2840 
Q 4756 3084 4391 3084 
Q 3944 3084 3684 2787 
Q 3425 2491 3425 1978 
L 3425 0 
L 2847 0 
L 2847 2094 
Q 2847 2600 2669 2842 
Q 2491 3084 2119 3084 
Q 1678 3084 1418 2786 
Q 1159 2488 1159 1978 
L 1159 0 
L 581 0 
L 581 3500 
L 1159 3500 
L 1159 2956 
Q 1356 3278 1631 3431 
Q 1906 3584 2284 3584 
Q 2666 3584 2933 3390 
Q 3200 3197 3328 2828 
z
" transform="scale(0.015625)"/>
      </defs>
      <use xlink:href="#DejaVuSans-77"/>
      <use xlink:href="#DejaVuSans-66" transform="translate(81.787109 0)"/>
      <use xlink:href="#DejaVuSans-6d" transform="translate(116.992188 0)"/>
     </g>
    </g>
    <g id="line2d_20">
     <path d="M 307.3875 49.654688 
L 307.3875 49.654688 
L 317.3875 49.654688 
L 317.3875 49.654688 
L 327.3875 49.654688 
" style="fill: none; stroke: #2ca02c; stroke-width: 1.5; stroke-linecap: square"/>
    </g>
    <g id="text_19">
     <!-- original -->
     <g transform="translate(335.3875 53.154688) scale(0.1 -0.1)">
      <defs>
       <path id="DejaVuSans-72" d="M 2631 2963 
Q 2534 3019 2420 3045 
Q 2306 3072 2169 3072 
Q 1681 3072 1420 2755 
Q 1159 2438 1159 1844 
L 1159 0 
L 581 0 
L 581 3500 
L 1159 3500 
L 1159 2956 
Q 1341 3275 1631 3429 
Q 1922 3584 2338 3584 
Q 2397 3584 2469 3576 
Q 2541 3569 2628 3553 
L 2631 2963 
z
" transform="scale(0.015625)"/>
      </defs>
      <use xlink:href="#DejaVuSans-6f"/>
      <use xlink:href="#DejaVuSans-72" transform="translate(61.181641 0)"/>
      <use xlink:href="#DejaVuSans-69" transform="translate(102.294922 0)"/>
      <use xlink:href="#DejaVuSans-67" transform="translate(130.078125 0)"/>
      <use xlink:href="#DejaVuSans-69" transform="translate(193.554688 0)"/>
      <use xlink:href="#DejaVuSans-6e" transform="translate(221.337891 0)"/>
      <use xlink:href="#DejaVuSans-61" transform="translate(284.716797 0)"/>
      <use xlink:href="#DejaVuSans-6c" transform="translate(345.996094 0)"/>
     </g>
    </g>
   </g>
  </g>
 </g>
 <defs>
  <clipPath id="pf028897514">
   <rect x="46.965625" y="7.2" width="334.8" height="221.76"/>
  </clipPath>
 </defs>
</svg>
