<?xml version="1.0" encoding="utf-8" standalone="no"?>
<!DOCTYPE svg PUBLIC "-//W3C//DTD SVG 1.1//EN"
  "http://www.w3.org/Graphics/SVG/1.1/DTD/svg11.dtd">
<svg xmlns:xlink="http://www.w3.org/1999/xlink" width="388.965625pt" height="268.200625pt" viewBox="0 0 388.965625 268.200625" xmlns="http://www.w3.org/2000/svg" version="1.1">
 <metadata>
  <rdf:RDF xmlns:dc="http://purl.org/dc/elements/1.1/" xmlns:cc="http://creativecommons.org/ns#" xmlns:rdf="http://www.w3.org/1999/02/22-rdf-syntax-ns#">
   <cc:Work>
    <dc:type rdf:resource="http://purl.org/dc/dcmitype/StillImage"/>
    <dc:date>2026-03-12T12:42:28.249061</dc:date>
    <dc:format>image/svg+xml</dc:format>
    <dc:creator>
     <cc:Agent>
      <dc:title>Matplotlib v3.10.7, https://matplotlib.org/</dc:title>
     </cc:Agent>
    </dc:creator>
   </cc:Work>
  </rdf:RDF>
 </metadata>
 <defs>
  <style type="text/css">*{stroke-linejoin: round; stroke-linecap: butt}</style>
 </defs>
 <g id="figure_1">
  <g id="patch_1">
   <path d="M 0 268.200625 
L 388.965625 268.200625 
L 388.965625 0 
L 0 0 
z
" style="fill: #ffffff"/>
  </g>
  <g id="axes_1">
   <g id="patch_2">
    <path d="M 46.965625 228.96 
L 381.765625 228.96 
L 381.765625 7.2 
L 46.965625 7.2 
z
" style="fill: #ffffff"/>
   </g>
   <g id="matplotlib.axis_1">
    <g id="xtick_1">
     <g id="line2d_1">
      <defs>
       <path id="m0306ce1371" d="M 0 0 
L 0 3.5 
" style="stroke: #000000; stroke-width: 0.8"/>
      </defs>
      <g>
       <use xlink:href="#m0306ce1371" x="61.773518" y="228.96" style="stroke: #000000; stroke-width: 0.8"/>
      </g>
     </g>
     <g id="text_1">
      <!-- 2 -->
      <g transform="translate(58.592268 243.558437) scale(0.1 -0.1)">
       <defs>
        <path id="DejaVuSans-32" d="M 1228 531 
L 3431 531 
L 3431 0 
L 469 0 
L 469 531 
Q 828 903 1448 1529 
Q 2069 2156 2228 2338 
Q 2531 2678 2651 2914 
Q 2772 3150 2772 3378 
Q 2772 3750 2511 3984 
Q 2250 4219 1831 4219 
Q 1534 4219 1204 4116 
Q 875 4013 500 3803 
L 500 4441 
Q 881 4594 1212 4672 
Q 1544 4750 1819 4750 
Q 2544 4750 2975 4387 
Q 3406 4025 3406 3419 
Q 3406 3131 3298 2873 
Q 3191 2616 2906 2266 
Q 2828 2175 2409 1742 
Q 1991 1309 1228 531 
z
" transform="scale(0.015625)"/>
       </defs>
       <use xlink:href="#DejaVuSans-32"/>
      </g>
     </g>
    </g>
    <g id="xtick_2">
     <g id="line2d_2">
      <g>
       <use xlink:href="#m0306ce1371" x="102.576685" y="228.96" style="stroke: #000000; stroke-width: 0.8"/>
      </g>
     </g>
     <g id="text_2">
      <!-- 3 -->
      <g transform="translate(99.395435 243.558437) scale(0.1 -0.1)">
       <defs>
        <path id="DejaVuSans-33" d="M 2597 2516 
Q 3050 2419 3304 2112 
Q 3559 1806 3559 1356 
Q 3559 666 3084 287 
Q 2609 -91 1734 -91 
Q 1441 -91 1130 -33 
Q 819 25 488 141 
L 488 750 
Q 750 597 1062 519 
Q 1375 441 1716 441 
Q 2309 441 2620 675 
Q 2931 909 2931 1356 
Q 2931 1769 2642 2001 
Q 2353 2234 1838 2234 
L 1294 2234 
L 1294 2753 
L 1863 2753 
Q 2328 2753 2575 2939 
Q 2822 3125 2822 3475 
Q 2822 3834 2567 4026 
Q 2313 4219 1838 4219 
Q 1578 4219 1281 4162 
Q 984 4106 628 3988 
L 628 4550 
Q 988 4650 1302 4700 
Q 1616 4750 1894 4750 
Q 2613 4750 3031 4423 
Q 3450 4097 3450 3541 
Q 3450 3153 3228 2886 
Q 3006 2619 2597 2516 
z
" transform="scale(0.015625)"/>
       </defs>
       <use xlink:href="#DejaVuSans-33"/>
      </g>
     </g>
    </g>
    <g id="xtick_3">
     <g id="line2d_3">
      <g>
       <use xlink:href="#m0306ce1371" x="143.379853" y="228.96" style="stroke: #000000; stroke-width: 0.8"/>
      </g>
     </g>
     <g id="text_3">
      <!-- 4 -->
      <g transform="translate(140.198603 243.558437) scale(0.1 -0.1)">
       <defs>
        <path id="DejaVuSans-34" d="M 2419 4116 
L 825 1625 
L 2419 1625 
L 2419 4116 
z
M 2253 4666 
L 3047 4666 
L 3047 1625 
L 3713 1625 
L 3713 1100 
L 3047 1100 
L 3047 0 
L 2419 0 
L 2419 1100 
L 313 1100 
L 313 1709 
L 2253 4666 
z
" transform="scale(0.015625)"/>
       </defs>
       <use xlink:href="#DejaVuSans-34"/>
      </g>
     </g>
    </g>
    <g id="xtick_4">
     <g id="line2d_4">
      <g>
       <use xlink:href="#m0306ce1371" x="184.18302" y="228.96" style="stroke: #000000; stroke-width: 0.8"/>
      </g>
     </g>
     <g id="text_4">
      <!-- 5 -->
      <g transform="translate(181.00177 243.558437) scale(0.1 -0.1)">
       <defs>
        <path id="DejaVuSans-35" d="M 691 4666 
L 3169 4666 
L 3169 4134 
L 1269 4134 
L 1269 2991 
Q 1406 3038 1543 3061 
Q 1681 3084 1819 3084 
Q 2600 3084 3056 2656 
Q 3513 2228 3513 1497 
Q 3513 744 3044 326 
Q 2575 -91 1722 -91 
Q 1428 -91 1123 -41 
Q 819 9 494 109 
L 494 744 
Q 775 591 1075 516 
Q 1375 441 1709 441 
Q 2250 441 2565 725 
Q 2881 1009 2881 1497 
Q 2881 1984 2565 2268 
Q 2250 2553 1709 2553 
Q 1456 2553 1204 2497 
Q 953 2441 691 2322 
L 691 4666 
z
" transform="scale(0.015625)"/>
       </defs>
       <use xlink:href="#DejaVuSans-35"/>
      </g>
     </g>
    </g>
    <g id="xtick_5">
     <g id="line2d_5">
      <g>
       <use xlink:href="#m0306ce1371" x="224.986187" y="228.96" style="stroke: #000000; stroke-width: 0.8"/>
      </g>
     </g>
     <g id="text_5">
      <!-- 6 -->
      <g transform="translate(221.804937 243.558437) scale(0.1 -0.1)">
       <defs>
        <path id="DejaVuSans-36" d="M 2113 2584 
Q 1688 2584 1439 2293 
Q 1191 2003 1191 1497 
Q 1191 994 1439 701 
Q 1688 409 2113 409 
Q 2538 409 2786 701 
Q 3034 994 3034 1497 
Q 3034 2003 2786 2293 
Q 2538 2584 2113 2584 
z
M 3366 4563 
L 3366 3988 
Q 3128 4100 2886 4159 
Q 2644 4219 2406 4219 
Q 1781 4219 1451 3797 
Q 1122 3375 1075 2522 
Q 1259 2794 1537 2939 
Q 1816 3084 2150 3084 
Q 2853 3084 3261 2657 
Q 3669 2231 3669 1497 
Q 3669 778 3244 343 
Q 2819 -91 2113 -91 
Q 1303 -91 875 529 
Q 447 1150 447 2328 
Q 447 3434 972 4092 
Q 1497 4750 2381 4750 
Q 2619 4750 2861 4703 
Q 3103 4656 3366 4563 
z
" transform="scale(0.015625)"/>
       </defs>
       <use xlink:href="#DejaVuSans-36"/>
      </g>
     </g>
    </g>
    <g id="xtick_6">
     <g id="line2d_6">
      <g>
       <use xlink:href="#m0306ce1371" x="265.789355" y="228.96" style="stroke: #000000; stroke-width: 0.8"/>
      </g>
     </g>
     <g id="text_6">
      <!-- 7 -->
      <g transform="translate(262.608105 243.558437) scale(0.1 -0.1)">
       <defs>
        <path id="DejaVuSans-37" d="M 525 4666 
L 3525 4666 
L 3525 4397 
L 1831 0 
L 1172 0 
L 2766 4134 
L 525 4134 
L 525 4666 
z
" transform="scale(0.015625)"/>
       </defs>
       <use xlink:href="#DejaVuSans-37"/>
      </g>
     </g>
    </g>
    <g id="xtick_7">
     <g id="line2d_7">
      <g>
       <use xlink:href="#m0306ce1371" x="306.592522" y="228.96" style="stroke: #000000; stroke-width: 0.8"/>
      </g>
     </g>
     <g id="text_7">
      <!-- 8 -->
      <g transform="translate(303.411272 243.558437) scale(0.1 -0.1)">
       <defs>
        <path id="DejaVuSans-38" d="M 2034 2216 
Q 1584 2216 1326 1975 
Q 1069 1734 1069 1313 
Q 1069 891 1326 650 
Q 1584 409 2034 409 
Q 2484 409 2743 651 
Q 3003 894 3003 1313 
Q 3003 1734 2745 1975 
Q 2488 2216 2034 2216 
z
M 1403 2484 
Q 997 2584 770 2862 
Q 544 3141 544 3541 
Q 544 4100 942 4425 
Q 1341 4750 2034 4750 
Q 2731 4750 3128 4425 
Q 3525 4100 3525 3541 
Q 3525 3141 3298 2862 
Q 3072 2584 2669 2484 
Q 3125 2378 3379 2068 
Q 3634 1759 3634 1313 
Q 3634 634 3220 271 
Q 2806 -91 2034 -91 
Q 1263 -91 848 271 
Q 434 634 434 1313 
Q 434 1759 690 2068 
Q 947 2378 1403 2484 
z
M 1172 3481 
Q 1172 3119 1398 2916 
Q 1625 2713 2034 2713 
Q 2441 2713 2670 2916 
Q 2900 3119 2900 3481 
Q 2900 3844 2670 4047 
Q 2441 4250 2034 4250 
Q 1625 4250 1398 4047 
Q 1172 3844 1172 3481 
z
" transform="scale(0.015625)"/>
       </defs>
       <use xlink:href="#DejaVuSans-38"/>
      </g>
     </g>
    </g>
    <g id="xtick_8">
     <g id="line2d_8">
      <g>
       <use xlink:href="#m0306ce1371" x="347.39569" y="228.96" style="stroke: #000000; stroke-width: 0.8"/>
      </g>
     </g>
     <g id="text_8">
      <!-- 9 -->
      <g transform="translate(344.21444 243.558437) scale(0.1 -0.1)">
       <defs>
        <path id="DejaVuSans-39" d="M 703 97 
L 703 672 
Q 941 559 1184 500 
Q 1428 441 1663 441 
Q 2288 441 2617 861 
Q 2947 1281 2994 2138 
Q 2813 1869 2534 1725 
Q 2256 1581 1919 1581 
Q 1219 1581 811 2004 
Q 403 2428 403 3163 
Q 403 3881 828 4315 
Q 1253 4750 1959 4750 
Q 2769 4750 3195 4129 
Q 3622 3509 3622 2328 
Q 3622 1225 3098 567 
Q 2575 -91 1691 -91 
Q 1453 -91 1209 -44 
Q 966 3 703 97 
z
M 1959 2075 
Q 2384 2075 2632 2365 
Q 2881 2656 2881 3163 
Q 2881 3666 2632 3958 
Q 2384 4250 1959 4250 
Q 1534 4250 1286 3958 
Q 1038 3666 1038 3163 
Q 1038 2656 1286 2365 
Q 1534 2075 1959 2075 
z
" transform="scale(0.015625)"/>
       </defs>
       <use xlink:href="#DejaVuSans-39"/>
      </g>
     </g>
    </g>
    <g id="text_9">
     <!-- wavelength [Å] -->
     <g transform="translate(176.328125 258.920937) scale(0.1 -0.1)">
      <defs>
       <path id="DejaVuSans-77" d="M 269 3500 
L 844 3500 
L 1563 769 
L 2278 3500 
L 2956 3500 
L 3675 769 
L 4391 3500 
L 4966 3500 
L 4050 0 
L 3372 0 
L 2619 2869 
L 1863 0 
L 1184 0 
L 269 3500 
z
" transform="scale(0.015625)"/>
       <path id="DejaVuSans-61" d="M 2194 1759 
Q 1497 1759 1228 1600 
Q 959 1441 959 1056 
Q 959 750 1161 570 
Q 1363 391 1709 391 
Q 2188 391 2477 730 
Q 2766 1069 2766 1631 
L 2766 1759 
L 2194 1759 
z
M 3341 1997 
L 3341 0 
L 2766 0 
L 2766 531 
Q 2569 213 2275 61 
Q 1981 -91 1556 -91 
Q 1019 -91 701 211 
Q 384 513 384 1019 
Q 384 1609 779 1909 
Q 1175 2209 1959 2209 
L 2766 2209 
L 2766 2266 
Q 2766 2663 2505 2880 
Q 2244 3097 1772 3097 
Q 1472 3097 1187 3025 
Q 903 2953 641 2809 
L 641 3341 
Q 956 3463 1253 3523 
Q 1550 3584 1831 3584 
Q 2591 3584 2966 3190 
Q 3341 2797 3341 1997 
z
" transform="scale(0.015625)"/>
       <path id="DejaVuSans-76" d="M 191 3500 
L 800 3500 
L 1894 563 
L 2988 3500 
L 3597 3500 
L 2284 0 
L 1503 0 
L 191 3500 
z
" transform="scale(0.015625)"/>
       <path id="DejaVuSans-65" d="M 3597 1894 
L 3597 1613 
L 953 1613 
Q 991 1019 1311 708 
Q 1631 397 2203 397 
Q 2534 397 2845 478 
Q 3156 559 3463 722 
L 3463 178 
Q 3153 47 2828 -22 
Q 2503 -91 2169 -91 
Q 1331 -91 842 396 
Q 353 884 353 1716 
Q 353 2575 817 3079 
Q 1281 3584 2069 3584 
Q 2775 3584 3186 3129 
Q 3597 2675 3597 1894 
z
M 3022 2063 
Q 3016 2534 2758 2815 
Q 2500 3097 2075 3097 
Q 1594 3097 1305 2825 
Q 1016 2553 972 2059 
L 3022 2063 
z
" transform="scale(0.015625)"/>
       <path id="DejaVuSans-6c" d="M 603 4863 
L 1178 4863 
L 1178 0 
L 603 0 
L 603 4863 
z
" transform="scale(0.015625)"/>
       <path id="DejaVuSans-6e" d="M 3513 2113 
L 3513 0 
L 2938 0 
L 2938 2094 
Q 2938 2591 2744 2837 
Q 2550 3084 2163 3084 
Q 1697 3084 1428 2787 
Q 1159 2491 1159 1978 
L 1159 0 
L 581 0 
L 581 3500 
L 1159 3500 
L 1159 2956 
Q 1366 3272 1645 3428 
Q 1925 3584 2291 3584 
Q 2894 3584 3203 3211 
Q 3513 2838 3513 2113 
z
" transform="scale(0.015625)"/>
       <path id="DejaVuSans-67" d="M 2906 1791 
Q 2906 2416 2648 2759 
Q 2391 3103 1925 3103 
Q 1463 3103 1205 2759 
Q 947 2416 947 1791 
Q 947 1169 1205 825 
Q 1463 481 1925 481 
Q 2391 481 2648 825 
Q 2906 1169 2906 1791 
z
M 3481 434 
Q 3481 -459 3084 -895 
Q 2688 -1331 1869 -1331 
Q 1566 -1331 1297 -1286 
Q 1028 -1241 775 -1147 
L 775 -588 
Q 1028 -725 1275 -790 
Q 1522 -856 1778 -856 
Q 2344 -856 2625 -561 
Q 2906 -266 2906 331 
L 2906 616 
Q 2728 306 2450 153 
Q 2172 0 1784 0 
Q 1141 0 747 490 
Q 353 981 353 1791 
Q 353 2603 747 3093 
Q 1141 3584 1784 3584 
Q 2172 3584 2450 3431 
Q 2728 3278 2906 2969 
L 2906 3500 
L 3481 3500 
L 3481 434 
z
" transform="scale(0.015625)"/>
       <path id="DejaVuSans-74" d="M 1172 4494 
L 1172 3500 
L 2356 3500 
L 2356 3053 
L 1172 3053 
L 1172 1153 
Q 1172 725 1289 603 
Q 1406 481 1766 481 
L 2356 481 
L 2356 0 
L 1766 0 
Q 1100 0 847 248 
Q 594 497 594 1153 
L 594 3053 
L 172 3053 
L 172 3500 
L 594 3500 
L 594 4494 
L 1172 4494 
z
" transform="scale(0.015625)"/>
       <path id="DejaVuSans-68" d="M 3513 2113 
L 3513 0 
L 2938 0 
L 2938 2094 
Q 2938 2591 2744 2837 
Q 2550 3084 2163 3084 
Q 1697 3084 1428 2787 
Q 1159 2491 1159 1978 
L 1159 0 
L 581 0 
L 581 4863 
L 1159 4863 
L 1159 2956 
Q 1366 3272 1645 3428 
Q 1925 3584 2291 3584 
Q 2894 3584 3203 3211 
Q 3513 2838 3513 2113 
z
" transform="scale(0.015625)"/>
       <path id="DejaVuSans-20" transform="scale(0.015625)"/>
       <path id="DejaVuSans-5b" d="M 550 4863 
L 1875 4863 
L 1875 4416 
L 1125 4416 
L 1125 -397 
L 1875 -397 
L 1875 -844 
L 550 -844 
L 550 4863 
z
" transform="scale(0.015625)"/>
       <path id="DejaVuSans-c5" d="M 2663 5081 
Q 2663 5278 2523 5417 
Q 2384 5556 2188 5556 
Q 1988 5556 1852 5420 
Q 1716 5284 1716 5081 
Q 1716 4884 1853 4746 
Q 1991 4609 2188 4609 
Q 2384 4609 2523 4746 
Q 2663 4884 2663 5081 
z
M 2188 4044 
L 1338 1722 
L 3041 1722 
L 2188 4044 
z
M 1716 4366 
Q 1525 4494 1428 4673 
Q 1331 4853 1331 5081 
Q 1331 5441 1579 5691 
Q 1828 5941 2188 5941 
Q 2544 5941 2795 5689 
Q 3047 5438 3047 5081 
Q 3047 4863 2948 4678 
Q 2850 4494 2663 4366 
L 4325 0 
L 3669 0 
L 3244 1197 
L 1141 1197 
L 716 0 
L 50 0 
L 1716 4366 
z
" transform="scale(0.015625)"/>
       <path id="DejaVuSans-5d" d="M 1947 4863 
L 1947 -844 
L 622 -844 
L 622 -397 
L 1369 -397 
L 1369 4416 
L 622 4416 
L 622 4863 
L 1947 4863 
z
" transform="scale(0.015625)"/>
      </defs>
      <use xlink:href="#DejaVuSans-77"/>
      <use xlink:href="#DejaVuSans-61" transform="translate(81.787109 0)"/>
      <use xlink:href="#DejaVuSans-76" transform="translate(143.066406 0)"/>
      <use xlink:href="#DejaVuSans-65" transform="translate(202.246094 0)"/>
      <use xlink:href="#DejaVuSans-6c" transform="translate(263.769531 0)"/>
      <use xlink:href="#DejaVuSans-65" transform="translate(291.552734 0)"/>
      <use xlink:href="#DejaVuSans-6e" transform="translate(353.076172 0)"/>
      <use xlink:href="#DejaVuSans-67" transform="translate(416.455078 0)"/>
      <use xlink:href="#DejaVuSans-74" transform="translate(479.931641 0)"/>
      <use xlink:href="#DejaVuSans-68" transform="translate(519.140625 0)"/>
      <use xlink:href="#DejaVuSans-20" transform="translate(582.519531 0)"/>
      <use xlink:href="#DejaVuSans-5b" transform="translate(614.306641 0)"/>
      <use xlink:href="#DejaVuSans-c5" transform="translate(653.320312 0)"/>
      <use xlink:href="#DejaVuSans-5d" transform="translate(721.728516 0)"/>
     </g>
    </g>
   </g>
   <g id="matplotlib.axis_2">
    <g id="ytick_1">
     <g id="line2d_9">
      <defs>
       <path id="m17c4d91cf5" d="M 0 0 
L -3.5 0 
" style="stroke: #000000; stroke-width: 0.8"/>
      </defs>
      <g>
       <use xlink:href="#m17c4d91cf5" x="46.965625" y="218.88" style="stroke: #000000; stroke-width: 0.8"/>
      </g>
     </g>
     <g id="text_10">
      <!-- 0 -->
      <g transform="translate(33.603125 222.679219) scale(0.1 -0.1)">
       <defs>
        <path id="DejaVuSans-30" d="M 2034 4250 
Q 1547 4250 1301 3770 
Q 1056 3291 1056 2328 
Q 1056 1369 1301 889 
Q 1547 409 2034 409 
Q 2525 409 2770 889 
Q 3016 1369 3016 2328 
Q 3016 3291 2770 3770 
Q 2525 4250 2034 4250 
z
M 2034 4750 
Q 2819 4750 3233 4129 
Q 3647 3509 3647 2328 
Q 3647 1150 3233 529 
Q 2819 -91 2034 -91 
Q 1250 -91 836 529 
Q 422 1150 422 2328 
Q 422 3509 836 4129 
Q 1250 4750 2034 4750 
z
" transform="scale(0.015625)"/>
       </defs>
       <use xlink:href="#DejaVuSans-30"/>
      </g>
     </g>
    </g>
    <g id="ytick_2">
     <g id="line2d_10">
      <g>
       <use xlink:href="#m17c4d91cf5" x="46.965625" y="181.889174" style="stroke: #000000; stroke-width: 0.8"/>
      </g>
     </g>
     <g id="text_11">
      <!-- 100 -->
      <g transform="translate(20.878125 185.688393) scale(0.1 -0.1)">
       <defs>
        <path id="DejaVuSans-31" d="M 794 531 
L 1825 531 
L 1825 4091 
L 703 3866 
L 703 4441 
L 1819 4666 
L 2450 4666 
L 2450 531 
L 3481 531 
L 3481 0 
L 794 0 
L 794 531 
z
" transform="scale(0.015625)"/>
       </defs>
       <use xlink:href="#DejaVuSans-31"/>
       <use xlink:href="#DejaVuSans-30" transform="translate(63.623047 0)"/>
       <use xlink:href="#DejaVuSans-30" transform="translate(127.246094 0)"/>
      </g>
     </g>
    </g>
    <g id="ytick_3">
     <g id="line2d_11">
      <g>
       <use xlink:href="#m17c4d91cf5" x="46.965625" y="144.898349" style="stroke: #000000; stroke-width: 0.8"/>
      </g>
     </g>
     <g id="text_12">
      <!-- 200 -->
      <g transform="translate(20.878125 148.697567) scale(0.1 -0.1)">
       <use xlink:href="#DejaVuSans-32"/>
       <use xlink:href="#DejaVuSans-30" transform="translate(63.623047 0)"/>
       <use xlink:href="#DejaVuSans-30" transform="translate(127.246094 0)"/>
      </g>
     </g>
    </g>
    <g id="ytick_4">
     <g id="line2d_12">
      <g>
       <use xlink:href="#m17c4d91cf5" x="46.965625" y="107.907523" style="stroke: #000000; stroke-width: 0.8"/>
      </g>
     </g>
     <g id="text_13">
      <!-- 300 -->
      <g transform="translate(20.878125 111.706742) scale(0.1 -0.1)">
       <use xlink:href="#DejaVuSans-33"/>
       <use xlink:href="#DejaVuSans-30" transform="translate(63.623047 0)"/>
       <use xlink:href="#DejaVuSans-30" transform="translate(127.246094 0)"/>
      </g>
     </g>
    </g>
    <g id="ytick_5">
     <g id="line2d_13">
      <g>
       <use xlink:href="#m17c4d91cf5" x="46.965625" y="70.916697" style="stroke: #000000; stroke-width: 0.8"/>
      </g>
     </g>
     <g id="text_14">
      <!-- 400 -->
      <g transform="translate(20.878125 74.715916) scale(0.1 -0.1)">
       <use xlink:href="#DejaVuSans-34"/>
       <use xlink:href="#DejaVuSans-30" transform="translate(63.623047 0)"/>
       <use xlink:href="#DejaVuSans-30" transform="translate(127.246094 0)"/>
      </g>
     </g>
    </g>
    <g id="ytick_6">
     <g id="line2d_14">
      <g>
       <use xlink:href="#m17c4d91cf5" x="46.965625" y="33.925872" style="stroke: #000000; stroke-width: 0.8"/>
      </g>
     </g>
     <g id="text_15">
      <!-- 500 -->
      <g transform="translate(20.878125 37.72509) scale(0.1 -0.1)">
       <use xlink:href="#DejaVuSans-35"/>
       <use xlink:href="#DejaVuSans-30" transform="translate(63.623047 0)"/>
       <use xlink:href="#DejaVuSans-30" transform="translate(127.246094 0)"/>
      </g>
     </g>
    </g>
    <g id="text_16">
     <!-- [counts] -->
     <g transform="translate(14.798438 138.6925) rotate(-90) scale(0.1 -0.1)">
      <defs>
       <path id="DejaVuSans-63" d="M 3122 3366 
L 3122 2828 
Q 2878 2963 2633 3030 
Q 2388 3097 2138 3097 
Q 1578 3097 1268 2742 
Q 959 2388 959 1747 
Q 959 1106 1268 751 
Q 1578 397 2138 397 
Q 2388 397 2633 464 
Q 2878 531 3122 666 
L 3122 134 
Q 2881 22 2623 -34 
Q 2366 -91 2075 -91 
Q 1284 -91 818 406 
Q 353 903 353 1747 
Q 353 2603 823 3093 
Q 1294 3584 2113 3584 
Q 2378 3584 2631 3529 
Q 2884 3475 3122 3366 
z
" transform="scale(0.015625)"/>
       <path id="DejaVuSans-6f" d="M 1959 3097 
Q 1497 3097 1228 2736 
Q 959 2375 959 1747 
Q 959 1119 1226 758 
Q 1494 397 1959 397 
Q 2419 397 2687 759 
Q 2956 1122 2956 1747 
Q 2956 2369 2687 2733 
Q 2419 3097 1959 3097 
z
M 1959 3584 
Q 2709 3584 3137 3096 
Q 3566 2609 3566 1747 
Q 3566 888 3137 398 
Q 2709 -91 1959 -91 
Q 1206 -91 779 398 
Q 353 888 353 1747 
Q 353 2609 779 3096 
Q 1206 3584 1959 3584 
z
" transform="scale(0.015625)"/>
       <path id="DejaVuSans-75" d="M 544 1381 
L 544 3500 
L 1119 3500 
L 1119 1403 
Q 1119 906 1312 657 
Q 1506 409 1894 409 
Q 2359 409 2629 706 
Q 2900 1003 2900 1516 
L 2900 3500 
L 3475 3500 
L 3475 0 
L 2900 0 
L 2900 538 
Q 2691 219 2414 64 
Q 2138 -91 1772 -91 
Q 1169 -91 856 284 
Q 544 659 544 1381 
z
M 1991 3584 
L 1991 3584 
z
" transform="scale(0.015625)"/>
       <path id="DejaVuSans-73" d="M 2834 3397 
L 2834 2853 
Q 2591 2978 2328 3040 
Q 2066 3103 1784 3103 
Q 1356 3103 1142 2972 
Q 928 2841 928 2578 
Q 928 2378 1081 2264 
Q 1234 2150 1697 2047 
L 1894 2003 
Q 2506 1872 2764 1633 
Q 3022 1394 3022 966 
Q 3022 478 2636 193 
Q 2250 -91 1575 -91 
Q 1294 -91 989 -36 
Q 684 19 347 128 
L 347 722 
Q 666 556 975 473 
Q 1284 391 1588 391 
Q 1994 391 2212 530 
Q 2431 669 2431 922 
Q 2431 1156 2273 1281 
Q 2116 1406 1581 1522 
L 1381 1569 
Q 847 1681 609 1914 
Q 372 2147 372 2553 
Q 372 3047 722 3315 
Q 1072 3584 1716 3584 
Q 2034 3584 2315 3537 
Q 2597 3491 2834 3397 
z
" transform="scale(0.015625)"/>
      </defs>
      <use xlink:href="#DejaVuSans-5b"/>
      <use xlink:href="#DejaVuSans-63" transform="translate(39.013672 0)"/>
      <use xlink:href="#DejaVuSans-6f" transform="translate(93.994141 0)"/>
      <use xlink:href="#DejaVuSans-75" transform="translate(155.175781 0)"/>
      <use xlink:href="#DejaVuSans-6e" transform="translate(218.554688 0)"/>
      <use xlink:href="#DejaVuSans-74" transform="translate(281.933594 0)"/>
      <use xlink:href="#DejaVuSans-73" transform="translate(321.142578 0)"/>
      <use xlink:href="#DejaVuSans-5d" transform="translate(373.242188 0)"/>
     </g>
    </g>
   </g>
   <g id="line2d_15">
    <path d="M 76.623786 188.177615 
L 77.59249 188.177615 
L 77.59249 147.857615 
L 78.561194 147.857615 
L 78.561194 107.167706 
L 79.529898 107.167706 
L 79.529898 94.590826 
L 80.498603 94.590826 
L 80.498603 93.851009 
L 81.467307 93.851009 
L 81.467307 93.111193 
L 82.436011 93.111193 
L 82.436011 89.41211 
L 83.404715 89.41211 
L 83.404715 76.465321 
L 84.37342 76.465321 
L 84.37342 84.233394 
L 85.342124 84.233394 
L 85.342124 75.355596 
L 86.310828 75.355596 
L 86.310828 65.368073 
L 87.279532 65.368073 
L 87.279532 63.88844 
L 88.248237 63.88844 
L 88.248237 50.201835 
L 89.216941 50.201835 
L 89.216941 44.653211 
L 90.185645 44.653211 
L 90.185645 40.58422 
L 91.154349 40.58422 
L 91.154349 55.750459 
L 92.123054 55.750459 
L 92.123054 42.063853 
L 93.091758 42.063853 
L 93.091758 17.28 
L 94.060462 17.28 
L 94.060462 20.979083 
L 95.029166 20.979083 
L 95.029166 29.486972 
L 95.997871 29.486972 
L 95.997871 27.637431 
L 96.966575 27.637431 
L 96.966575 35.035596 
L 97.935279 35.035596 
L 97.935279 36.885138 
L 98.903983 36.885138 
L 98.903983 46.872661 
L 99.872688 46.872661 
L 99.872688 33.555963 
L 101.810096 33.555963 
L 101.810096 45.023119 
L 102.7788 45.023119 
L 102.7788 60.189358 
L 103.747505 60.189358 
L 103.747505 47.242569 
L 104.716209 47.242569 
L 104.716209 67.587523 
L 105.684913 67.587523 
L 105.684913 57.230092 
L 106.653617 57.230092 
L 106.653617 77.205138 
L 107.622322 77.205138 
L 107.622322 92.371376 
L 108.591026 92.371376 
L 108.591026 106.797798 
L 109.55973 106.797798 
L 109.55973 109.017248 
L 110.528434 109.017248 
L 110.528434 115.675596 
L 111.497139 115.675596 
L 111.497139 130.471927 
L 112.465843 130.471927 
L 112.465843 127.142752 
L 113.434547 127.142752 
L 113.434547 152.296514 
L 114.403251 152.296514 
L 114.403251 158.954862 
L 115.371956 158.954862 
L 115.371956 170.422018 
L 116.34066 170.422018 
L 116.34066 171.901651 
L 117.309364 171.901651 
L 117.309364 179.669725 
L 118.278068 179.669725 
L 118.278068 194.096147 
L 119.246773 194.096147 
L 119.246773 192.616514 
L 120.215477 192.616514 
L 120.215477 208.522569 
L 121.184181 208.522569 
L 121.184181 211.111927 
L 122.152885 211.111927 
L 122.152885 216.66055 
L 123.12159 216.66055 
L 123.12159 218.88 
L 131.839928 218.88 
L 131.839928 212.59156 
L 132.808632 212.59156 
L 132.808632 178.190092 
L 133.777336 178.190092 
L 133.777336 135.650642 
L 134.746041 135.650642 
L 134.746041 116.415413 
L 135.714745 116.415413 
L 135.714745 99.399633 
L 136.683449 99.399633 
L 136.683449 77.575046 
L 137.652153 77.575046 
L 137.652153 78.684771 
L 138.620858 78.684771 
L 138.620858 93.111193 
L 139.589562 93.111193 
L 139.589562 110.866789 
L 140.558266 110.866789 
L 140.558266 98.289908 
L 141.52697 98.289908 
L 141.52697 93.851009 
L 142.495675 93.851009 
L 142.495675 97.550092 
L 143.464379 97.550092 
L 143.464379 109.017248 
L 144.433083 109.017248 
L 144.433083 103.468624 
L 145.401787 103.468624 
L 145.401787 110.496881 
L 146.370492 110.496881 
L 146.370492 108.277431 
L 147.339196 108.277431 
L 147.339196 119.004771 
L 148.3079 119.004771 
L 148.3079 109.017248 
L 149.276604 109.017248 
L 149.276604 106.42789 
L 150.245309 106.42789 
L 150.245309 113.086239 
L 151.214013 113.086239 
L 151.214013 109.387156 
L 152.182717 109.387156 
L 152.182717 114.565872 
L 153.151421 114.565872 
L 153.151421 125.293211 
L 154.120126 125.293211 
L 154.120126 121.22422 
L 155.08883 121.22422 
L 155.08883 113.826055 
L 156.057534 113.826055 
L 156.057534 124.923303 
L 157.026238 124.923303 
L 157.026238 114.93578 
L 157.994943 114.93578 
L 157.994943 123.073761 
L 158.963647 123.073761 
L 158.963647 124.553394 
L 159.932351 124.553394 
L 159.932351 126.033028 
L 160.901055 126.033028 
L 160.901055 133.801101 
L 161.86976 133.801101 
L 161.86976 128.252477 
L 162.838464 128.252477 
L 162.838464 133.801101 
L 163.807168 133.801101 
L 163.807168 143.418716 
L 164.775872 143.418716 
L 164.775872 139.349725 
L 165.744577 139.349725 
L 165.744577 144.898349 
L 166.713281 144.898349 
L 166.713281 142.678899 
L 167.681985 142.678899 
L 167.681985 151.926606 
L 168.650689 151.926606 
L 168.650689 149.707156 
L 169.619394 149.707156 
L 169.619394 158.215046 
L 170.588098 158.215046 
L 170.588098 155.995596 
L 171.556802 155.995596 
L 171.556802 157.105321 
L 172.525507 157.105321 
L 172.525507 165.243303 
L 173.494211 165.243303 
L 173.494211 166.722936 
L 174.462915 166.722936 
L 174.462915 169.682202 
L 175.431619 169.682202 
L 175.431619 187.437798 
L 176.400324 187.437798 
L 176.400324 183.368807 
L 177.369028 183.368807 
L 177.369028 192.616514 
L 178.337732 192.616514 
L 178.337732 199.274862 
L 179.306436 199.274862 
L 179.306436 207.782752 
L 180.275141 207.782752 
L 180.275141 209.632294 
L 181.243845 209.632294 
L 181.243845 214.441101 
L 182.212549 214.441101 
L 182.212549 216.290642 
L 183.181253 216.290642 
L 183.181253 218.88 
L 184.149958 218.88 
L 184.149958 215.550826 
L 185.118662 215.550826 
L 185.118662 210.742018 
L 186.087366 210.742018 
L 186.087366 198.165138 
L 187.05607 198.165138 
L 187.05607 186.697982 
L 188.024775 186.697982 
L 188.024775 163.023853 
L 188.993479 163.023853 
L 188.993479 156.735413 
L 189.962183 156.735413 
L 189.962183 158.215046 
L 190.930887 158.215046 
L 190.930887 144.898349 
L 191.899592 144.898349 
L 191.899592 146.377982 
L 192.868296 146.377982 
L 192.868296 156.365505 
L 193.837 156.365505 
L 193.837 157.105321 
L 194.805704 157.105321 
L 194.805704 157.845138 
L 195.774409 157.845138 
L 195.774409 163.023853 
L 196.743113 163.023853 
L 196.743113 167.832661 
L 197.711817 167.832661 
L 197.711817 158.215046 
L 198.680521 158.215046 
L 198.680521 157.105321 
L 199.649226 157.105321 
L 199.649226 161.914128 
L 200.61793 161.914128 
L 200.61793 168.202569 
L 201.586634 168.202569 
L 201.586634 162.284037 
L 202.555338 162.284037 
L 202.555338 155.25578 
L 203.524043 155.25578 
L 203.524043 173.011376 
L 204.492747 173.011376 
L 204.492747 163.76367 
L 205.461451 163.76367 
L 205.461451 158.954862 
L 206.430155 158.954862 
L 206.430155 164.133578 
L 207.39886 164.133578 
L 207.39886 171.161835 
L 208.367564 171.161835 
L 208.367564 170.791927 
L 209.336268 170.791927 
L 209.336268 171.901651 
L 210.304972 171.901651 
L 210.304972 182.628991 
L 211.273677 182.628991 
L 211.273677 173.751193 
L 212.242381 173.751193 
L 212.242381 181.519266 
L 213.211085 181.519266 
L 213.211085 185.588257 
L 214.179789 185.588257 
L 214.179789 182.998899 
L 215.148494 182.998899 
L 215.148494 189.287339 
L 216.117198 189.287339 
L 216.117198 181.889174 
L 217.085902 181.889174 
L 217.085902 189.287339 
L 218.054606 189.287339 
L 218.054606 195.945688 
L 219.023311 195.945688 
L 219.023311 187.807706 
L 219.992015 187.807706 
L 219.992015 191.136881 
L 220.960719 191.136881 
L 220.960719 198.165138 
L 221.929423 198.165138 
L 221.929423 199.644771 
L 222.898128 199.644771 
L 222.898128 200.384587 
L 223.866832 200.384587 
L 223.866832 201.124404 
L 224.835536 201.124404 
L 224.835536 207.782752 
L 225.80424 207.782752 
L 225.80424 206.303119 
L 226.772945 206.303119 
L 226.772945 208.892477 
L 227.741649 208.892477 
L 227.741649 211.851743 
L 228.710353 211.851743 
L 228.710353 215.550826 
L 229.679057 215.550826 
L 229.679057 216.66055 
L 230.647762 216.66055 
L 230.647762 218.88 
L 231.616466 218.88 
L 231.616466 216.66055 
L 232.58517 216.66055 
L 232.58517 214.071193 
L 233.553874 214.071193 
L 233.553874 206.673028 
L 234.522579 206.673028 
L 234.522579 197.795229 
L 235.491283 197.795229 
L 235.491283 198.165138 
L 236.459987 198.165138 
L 236.459987 185.218349 
L 237.428691 185.218349 
L 237.428691 189.657248 
L 238.397396 189.657248 
L 238.397396 184.478532 
L 239.3661 184.478532 
L 239.3661 196.685505 
L 240.334804 196.685505 
L 240.334804 198.165138 
L 241.303508 198.165138 
L 241.303508 191.876697 
L 242.272213 191.876697 
L 242.272213 198.165138 
L 243.240917 198.165138 
L 243.240917 195.945688 
L 244.209621 195.945688 
L 244.209621 197.795229 
L 245.178325 197.795229 
L 245.178325 195.945688 
L 246.14703 195.945688 
L 246.14703 197.795229 
L 247.115734 197.795229 
L 247.115734 193.726239 
L 248.084438 193.726239 
L 248.084438 197.055413 
L 249.053142 197.055413 
L 249.053142 201.494312 
L 250.021847 201.494312 
L 250.021847 201.124404 
L 250.990551 201.124404 
L 250.990551 199.644771 
L 251.959255 199.644771 
L 251.959255 204.823486 
L 252.927959 204.823486 
L 252.927959 206.303119 
L 254.865368 206.303119 
L 254.865368 207.042936 
L 255.834072 207.042936 
L 255.834072 204.08367 
L 256.802776 204.08367 
L 256.802776 209.632294 
L 257.771481 209.632294 
L 257.771481 207.782752 
L 258.740185 207.782752 
L 258.740185 210.37211 
L 259.708889 210.37211 
L 259.708889 209.262385 
L 260.677593 209.262385 
L 260.677593 212.961468 
L 261.646298 212.961468 
L 261.646298 212.221651 
L 262.615002 212.221651 
L 262.615002 213.331376 
L 263.583706 213.331376 
L 263.583706 212.59156 
L 264.55241 212.59156 
L 264.55241 211.851743 
L 265.521115 211.851743 
L 265.521115 212.59156 
L 266.489819 212.59156 
L 266.489819 216.290642 
L 267.458523 216.290642 
L 267.458523 217.400367 
L 268.427227 217.400367 
L 268.427227 213.701284 
L 269.395932 213.701284 
L 269.395932 216.66055 
L 270.364636 216.66055 
L 270.364636 214.811009 
L 271.33334 214.811009 
L 271.33334 217.770275 
L 272.302044 217.770275 
L 272.302044 218.140183 
L 273.270749 218.140183 
L 273.270749 217.030459 
L 274.239453 217.030459 
L 274.239453 218.88 
L 278.11427 218.88 
L 278.11427 216.290642 
L 279.082974 216.290642 
L 279.082974 214.811009 
L 280.051679 214.811009 
L 280.051679 210.002202 
L 281.020383 210.002202 
L 281.020383 211.111927 
L 281.989087 211.111927 
L 281.989087 205.933211 
L 282.957791 205.933211 
L 282.957791 200.754495 
L 283.926496 200.754495 
L 283.926496 207.042936 
L 284.8952 207.042936 
L 284.8952 208.522569 
L 285.863904 208.522569 
L 285.863904 205.933211 
L 286.832608 205.933211 
L 286.832608 205.563303 
L 287.801313 205.563303 
L 287.801313 207.782752 
L 288.770017 207.782752 
L 288.770017 211.481835 
L 289.738721 211.481835 
L 289.738721 209.632294 
L 290.707425 209.632294 
L 290.707425 210.002202 
L 291.67613 210.002202 
L 291.67613 208.522569 
L 292.644834 208.522569 
L 292.644834 211.851743 
L 293.613538 211.851743 
L 293.613538 208.522569 
L 294.582242 208.522569 
L 294.582242 211.111927 
L 295.550947 211.111927 
L 295.550947 209.262385 
L 296.519651 209.262385 
L 296.519651 212.961468 
L 297.488355 212.961468 
L 297.488355 212.221651 
L 298.457059 212.221651 
L 298.457059 214.441101 
L 299.425764 214.441101 
L 299.425764 213.701284 
L 300.394468 213.701284 
L 300.394468 212.961468 
L 301.363172 212.961468 
L 301.363172 213.701284 
L 302.331876 213.701284 
L 302.331876 214.811009 
L 303.300581 214.811009 
L 303.300581 215.920734 
L 304.269285 215.920734 
L 304.269285 217.030459 
L 305.237989 217.030459 
L 305.237989 215.180917 
L 306.206693 215.180917 
L 306.206693 215.920734 
L 307.175398 215.920734 
L 307.175398 216.66055 
L 308.144102 216.66055 
L 308.144102 216.290642 
L 309.112806 216.290642 
L 309.112806 216.66055 
L 311.050215 216.66055 
L 311.050215 217.400367 
L 312.018919 217.400367 
L 312.018919 218.140183 
L 312.987623 218.140183 
L 312.987623 218.510092 
L 313.956327 218.510092 
L 313.956327 217.770275 
L 314.925032 217.770275 
L 314.925032 218.510092 
L 316.86244 218.510092 
L 316.86244 218.88 
L 322.674666 218.88 
L 322.674666 218.510092 
L 323.64337 218.510092 
L 323.64337 217.030459 
L 324.612074 217.030459 
L 324.612074 216.66055 
L 325.580778 216.66055 
L 325.580778 212.221651 
L 326.549483 212.221651 
L 326.549483 210.37211 
L 327.518187 210.37211 
L 327.518187 209.262385 
L 328.486891 209.262385 
L 328.486891 207.042936 
L 329.455595 207.042936 
L 329.455595 204.08367 
L 330.4243 204.08367 
L 330.4243 203.713761 
L 331.393004 203.713761 
L 331.393004 202.604037 
L 332.361708 202.604037 
L 332.361708 204.453578 
L 334.299117 204.453578 
L 334.299117 206.303119 
L 335.267821 206.303119 
L 335.267821 202.973945 
L 336.236525 202.973945 
L 336.236525 203.343853 
L 337.205229 203.343853 
L 337.205229 201.124404 
L 339.142638 201.124404 
L 339.142638 204.823486 
L 340.111342 204.823486 
L 340.111342 202.234128 
L 341.080046 202.234128 
L 341.080046 204.823486 
L 342.048751 204.823486 
L 342.048751 204.08367 
L 343.017455 204.08367 
L 343.017455 201.86422 
L 343.986159 201.86422 
L 343.986159 205.933211 
L 344.954863 205.933211 
L 344.954863 205.563303 
L 345.923568 205.563303 
L 345.923568 203.343853 
L 346.892272 203.343853 
L 346.892272 208.152661 
L 347.860976 208.152661 
L 347.860976 204.823486 
L 348.82968 204.823486 
L 348.82968 207.782752 
L 349.798385 207.782752 
L 349.798385 208.522569 
L 350.767089 208.522569 
L 350.767089 209.262385 
L 351.735793 209.262385 
L 351.735793 208.152661 
L 352.704497 208.152661 
L 352.704497 208.892477 
L 353.673202 208.892477 
L 353.673202 205.563303 
L 354.641906 205.563303 
L 354.641906 211.851743 
L 355.61061 211.851743 
L 355.61061 212.59156 
L 356.579314 212.59156 
L 356.579314 210.37211 
L 357.548019 210.37211 
L 357.548019 212.59156 
L 358.516723 212.59156 
L 358.516723 211.481835 
L 360.454131 211.481835 
L 360.454131 214.441101 
L 361.422836 214.441101 
L 361.422836 211.481835 
L 362.39154 211.481835 
L 362.39154 214.441101 
L 363.360244 214.441101 
L 363.360244 215.920734 
L 364.328948 215.920734 
L 364.328948 216.290642 
L 365.297653 216.290642 
L 365.297653 216.66055 
L 366.266357 216.66055 
L 366.266357 217.400367 
L 367.235061 217.400367 
L 367.235061 217.400367 
" clip-path="url(#pff69d764ec)" style="fill: none; stroke: #1f77b4; stroke-width: 1.5; stroke-linecap: square"/>
   </g>
   <g id="line2d_16">
    <path d="M 62.741067 192.246606 
L 63.75116 192.246606 
L 63.75116 174.860917 
L 64.761252 174.860917 
L 64.761252 163.76367 
L 65.771344 163.76367 
L 65.771344 127.882569 
L 66.781436 127.882569 
L 66.781436 107.537615 
L 67.791528 107.537615 
L 67.791528 117.155229 
L 68.801621 117.155229 
L 68.801621 121.22422 
L 69.811713 121.22422 
L 69.811713 106.42789 
L 70.821805 106.42789 
L 70.821805 119.744587 
L 71.831897 119.744587 
L 71.831897 100.13945 
L 72.841989 100.13945 
L 72.841989 106.797798 
L 73.852082 106.797798 
L 73.852082 107.907523 
L 74.862174 107.907523 
L 74.862174 107.167706 
L 75.872266 107.167706 
L 75.872266 77.944954 
L 76.882358 77.944954 
L 76.882358 92.001468 
L 77.89245 92.001468 
L 77.89245 84.973211 
L 78.902543 84.973211 
L 78.902543 69.067156 
L 79.912635 69.067156 
L 79.912635 75.725505 
L 80.922727 75.725505 
L 80.922727 82.013945 
L 81.932819 82.013945 
L 81.932819 79.054679 
L 82.942911 79.054679 
L 82.942911 77.575046 
L 83.953004 77.575046 
L 83.953004 43.173578 
L 84.963096 43.173578 
L 84.963096 64.998165 
L 85.973188 64.998165 
L 85.973188 57.6 
L 86.98328 57.6 
L 86.98328 64.628257 
L 87.993372 64.628257 
L 87.993372 62.778716 
L 89.003465 62.778716 
L 89.003465 76.465321 
L 90.013557 76.465321 
L 90.013557 56.860183 
L 91.023649 56.860183 
L 91.023649 63.518532 
L 92.033741 63.518532 
L 92.033741 85.713028 
L 93.043833 85.713028 
L 93.043833 74.61578 
L 94.053926 74.61578 
L 94.053926 60.559266 
L 95.064018 60.559266 
L 95.064018 73.136147 
L 96.07411 73.136147 
L 96.07411 94.960734 
L 97.084202 94.960734 
L 97.084202 76.835229 
L 98.094294 76.835229 
L 98.094294 87.932477 
L 99.104387 87.932477 
L 99.104387 102.358899 
L 100.114479 102.358899 
L 100.114479 89.042202 
L 101.124571 89.042202 
L 101.124571 113.086239 
L 102.134663 113.086239 
L 102.134663 99.399633 
L 103.144755 99.399633 
L 103.144755 128.622385 
L 104.154848 128.622385 
L 104.154848 135.650642 
L 105.16494 135.650642 
L 105.16494 128.992294 
L 106.175032 128.992294 
L 106.175032 143.048807 
L 107.185124 143.048807 
L 107.185124 135.650642 
L 108.195216 135.650642 
L 108.195216 153.776147 
L 109.205309 153.776147 
L 109.205309 144.158532 
L 110.215401 144.158532 
L 110.215401 169.312294 
L 111.225493 169.312294 
L 111.225493 167.832661 
L 112.235585 167.832661 
L 112.235585 175.230826 
L 113.245677 175.230826 
L 113.245677 179.299817 
L 114.25577 179.299817 
L 114.25577 180.039633 
L 115.265862 180.039633 
L 115.265862 187.807706 
L 116.275954 187.807706 
L 116.275954 192.616514 
L 117.286046 192.616514 
L 117.286046 190.027156 
L 118.296138 190.027156 
L 118.296138 170.05211 
L 119.306231 170.05211 
L 119.306231 162.653945 
L 120.316323 162.653945 
L 120.316323 147.487706 
L 121.326415 147.487706 
L 121.326415 151.926606 
L 122.336507 151.926606 
L 122.336507 128.252477 
L 123.346599 128.252477 
L 123.346599 108.647339 
L 124.356692 108.647339 
L 124.356692 84.603303 
L 125.366784 84.603303 
L 125.366784 128.622385 
L 126.376876 128.622385 
L 126.376876 109.387156 
L 127.386968 109.387156 
L 127.386968 126.033028 
L 128.39706 126.033028 
L 128.39706 125.293211 
L 129.407153 125.293211 
L 129.407153 116.415413 
L 130.417245 116.415413 
L 130.417245 121.22422 
L 131.427337 121.22422 
L 131.427337 120.114495 
L 132.437429 120.114495 
L 132.437429 118.264954 
L 133.447521 118.264954 
L 133.447521 144.52844 
L 134.457614 144.52844 
L 134.457614 114.93578 
L 135.467706 114.93578 
L 135.467706 140.45945 
L 136.477798 140.45945 
L 136.477798 126.772844 
L 137.48789 126.772844 
L 137.48789 131.581651 
L 138.497982 131.581651 
L 138.497982 126.772844 
L 139.508075 126.772844 
L 139.508075 132.691376 
L 140.518167 132.691376 
L 140.518167 132.321468 
L 141.528259 132.321468 
L 141.528259 136.760367 
L 142.538351 136.760367 
L 142.538351 123.44367 
L 143.548443 123.44367 
L 143.548443 131.211743 
L 144.558536 131.211743 
L 144.558536 142.678899 
L 146.57872 142.678899 
L 146.57872 113.456147 
L 147.588812 113.456147 
L 147.588812 138.24 
L 148.598904 138.24 
L 148.598904 148.967339 
L 149.608997 148.967339 
L 149.608997 132.321468 
L 150.619089 132.321468 
L 150.619089 143.048807 
L 151.629181 143.048807 
L 151.629181 146.74789 
L 152.639273 146.74789 
L 152.639273 120.854312 
L 153.649365 120.854312 
L 153.649365 153.03633 
L 154.659458 153.03633 
L 154.659458 157.475229 
L 155.66955 157.475229 
L 155.66955 123.44367 
L 156.679642 123.44367 
L 156.679642 147.487706 
L 157.689734 147.487706 
L 157.689734 170.791927 
L 158.699826 170.791927 
L 158.699826 160.434495 
L 159.709919 160.434495 
L 159.709919 154.146055 
L 160.720011 154.146055 
L 160.720011 170.422018 
L 161.730103 170.422018 
L 161.730103 139.349725 
L 162.740195 139.349725 
L 162.740195 163.393761 
L 163.750287 163.393761 
L 163.750287 159.324771 
L 164.76038 159.324771 
L 164.76038 162.653945 
L 165.770472 162.653945 
L 165.770472 181.149358 
L 166.780564 181.149358 
L 166.780564 157.105321 
L 167.790656 157.105321 
L 167.790656 166.722936 
L 168.800748 166.722936 
L 168.800748 165.613211 
L 169.810841 165.613211 
L 169.810841 177.450275 
L 170.820933 177.450275 
L 170.820933 171.161835 
L 171.831025 171.161835 
L 171.831025 151.556697 
L 172.841117 151.556697 
L 172.841117 175.970642 
L 173.851209 175.970642 
L 173.851209 157.845138 
L 174.861302 157.845138 
L 174.861302 151.556697 
L 175.871394 151.556697 
L 175.871394 158.954862 
L 176.881486 158.954862 
L 176.881486 146.008073 
L 177.891578 146.008073 
L 177.891578 154.885872 
L 178.90167 154.885872 
L 178.90167 147.117798 
L 179.911763 147.117798 
L 179.911763 160.434495 
L 180.921855 160.434495 
L 180.921855 159.694679 
L 181.931947 159.694679 
L 181.931947 164.503486 
L 182.942039 164.503486 
L 182.942039 174.121101 
L 183.952131 174.121101 
L 183.952131 167.462752 
L 184.962224 167.462752 
L 184.962224 177.820183 
L 185.972316 177.820183 
L 185.972316 178.929908 
L 186.982408 178.929908 
L 186.982408 170.791927 
L 187.9925 170.791927 
L 187.9925 181.149358 
L 189.002592 181.149358 
L 189.002592 146.008073 
L 190.012685 146.008073 
L 190.012685 191.136881 
L 191.022777 191.136881 
L 191.022777 168.572477 
L 192.032869 168.572477 
L 192.032869 173.751193 
L 193.042961 173.751193 
L 193.042961 155.25578 
L 194.053053 155.25578 
L 194.053053 175.600734 
L 195.063146 175.600734 
L 195.063146 193.35633 
L 196.073238 193.35633 
L 196.073238 171.901651 
L 197.08333 171.901651 
L 197.08333 171.161835 
L 198.093422 171.161835 
L 198.093422 165.613211 
L 199.103514 165.613211 
L 199.103514 174.860917 
L 200.113607 174.860917 
L 200.113607 186.697982 
L 201.123699 186.697982 
L 201.123699 183.738716 
L 202.133791 183.738716 
L 202.133791 189.287339 
L 203.143883 189.287339 
L 203.143883 176.710459 
L 204.153975 176.710459 
L 204.153975 193.726239 
L 205.164068 193.726239 
L 205.164068 181.149358 
L 206.17416 181.149358 
L 206.17416 192.616514 
L 207.184252 192.616514 
L 207.184252 196.685505 
L 208.194344 196.685505 
L 208.194344 191.136881 
L 209.204436 191.136881 
L 209.204436 195.205872 
L 210.214529 195.205872 
L 210.214529 185.958165 
L 211.224621 185.958165 
L 211.224621 195.205872 
L 212.234713 195.205872 
L 212.234713 191.136881 
L 213.244805 191.136881 
L 213.244805 206.303119 
L 214.254897 206.303119 
L 214.254897 197.795229 
L 215.26499 197.795229 
L 215.26499 194.096147 
L 216.275082 194.096147 
L 216.275082 188.177615 
L 217.285174 188.177615 
L 217.285174 201.124404 
L 218.295266 201.124404 
L 218.295266 197.055413 
L 219.305358 197.055413 
L 219.305358 197.795229 
L 220.315451 197.795229 
L 220.315451 189.287339 
L 221.325543 189.287339 
L 221.325543 188.177615 
L 222.335635 188.177615 
L 222.335635 190.766972 
L 223.345727 190.766972 
L 223.345727 189.657248 
L 224.355819 189.657248 
L 224.355819 191.876697 
L 225.365912 191.876697 
L 225.365912 182.259083 
L 226.376004 182.259083 
L 226.376004 186.328073 
L 227.386096 186.328073 
L 227.386096 199.644771 
L 228.396188 199.644771 
L 228.396188 199.274862 
L 229.406281 199.274862 
L 229.406281 200.014679 
L 230.416373 200.014679 
L 230.416373 195.57578 
L 231.426465 195.57578 
L 231.426465 204.08367 
L 232.436557 204.08367 
L 232.436557 202.973945 
L 233.446649 202.973945 
L 233.446649 200.384587 
L 234.456742 200.384587 
L 234.456742 198.535046 
L 235.466834 198.535046 
L 235.466834 208.152661 
L 236.476926 208.152661 
L 236.476926 200.014679 
L 237.487018 200.014679 
L 237.487018 195.205872 
L 238.49711 195.205872 
L 238.49711 207.412844 
L 239.507203 207.412844 
L 239.507203 201.494312 
L 240.517295 201.494312 
L 240.517295 206.673028 
L 241.527387 206.673028 
L 241.527387 207.412844 
L 242.537479 207.412844 
L 242.537479 200.384587 
L 243.547571 200.384587 
L 243.547571 206.673028 
L 244.557664 206.673028 
L 244.557664 204.823486 
L 245.567756 204.823486 
L 245.567756 206.303119 
L 246.577848 206.303119 
L 246.577848 214.441101 
L 247.58794 214.441101 
L 247.58794 208.522569 
L 248.598032 208.522569 
L 248.598032 210.002202 
L 249.608125 210.002202 
L 249.608125 208.152661 
L 250.618217 208.152661 
L 250.618217 210.002202 
L 251.628309 210.002202 
L 251.628309 211.111927 
L 252.638401 211.111927 
L 252.638401 212.221651 
L 253.648493 212.221651 
L 253.648493 210.37211 
L 254.658586 210.37211 
L 254.658586 212.59156 
L 255.668678 212.59156 
L 255.668678 215.180917 
L 256.67877 215.180917 
L 256.67877 212.221651 
L 257.688862 212.221651 
L 257.688862 214.071193 
L 258.698954 214.071193 
L 258.698954 213.331376 
L 260.719139 213.331376 
L 260.719139 215.180917 
L 261.729231 215.180917 
L 261.729231 214.071193 
L 262.739323 214.071193 
L 262.739323 212.961468 
L 263.749415 212.961468 
L 263.749415 214.811009 
L 264.759508 214.811009 
L 264.759508 215.550826 
L 265.7696 215.550826 
L 265.7696 210.002202 
L 266.779692 210.002202 
L 266.779692 211.481835 
L 268.799876 211.481835 
L 268.799876 208.892477 
L 269.809969 208.892477 
L 269.809969 212.961468 
L 270.820061 212.961468 
L 270.820061 202.973945 
L 271.830153 202.973945 
L 271.830153 208.152661 
L 272.840245 208.152661 
L 272.840245 211.481835 
L 273.850337 211.481835 
L 273.850337 204.08367 
L 274.86043 204.08367 
L 274.86043 213.331376 
L 275.870522 213.331376 
L 275.870522 207.042936 
L 276.880614 207.042936 
L 276.880614 210.002202 
L 277.890706 210.002202 
L 277.890706 211.481835 
L 278.900798 211.481835 
L 278.900798 215.180917 
L 279.910891 215.180917 
L 279.910891 211.111927 
L 280.920983 211.111927 
L 280.920983 211.851743 
L 281.931075 211.851743 
L 281.931075 211.481835 
L 282.941167 211.481835 
L 282.941167 209.262385 
L 283.951259 209.262385 
L 283.951259 214.071193 
L 284.961352 214.071193 
L 284.961352 211.481835 
L 285.971444 211.481835 
L 285.971444 212.221651 
L 286.981536 212.221651 
L 286.981536 212.59156 
L 287.991628 212.59156 
L 287.991628 208.892477 
L 289.00172 208.892477 
L 289.00172 215.920734 
L 290.011813 215.920734 
L 290.011813 213.701284 
L 291.021905 213.701284 
L 291.021905 215.920734 
L 292.031997 215.920734 
L 292.031997 213.331376 
L 293.042089 213.331376 
L 293.042089 216.290642 
L 294.052181 216.290642 
L 294.052181 212.961468 
L 295.062274 212.961468 
L 295.062274 216.290642 
L 296.072366 216.290642 
L 296.072366 214.441101 
L 297.082458 214.441101 
L 297.082458 216.290642 
L 299.102642 216.290642 
L 299.102642 217.400367 
L 300.112735 217.400367 
L 300.112735 216.290642 
L 301.122827 216.290642 
L 301.122827 215.920734 
L 302.132919 215.920734 
L 302.132919 217.030459 
L 303.143011 217.030459 
L 303.143011 216.66055 
L 304.153103 216.66055 
L 304.153103 217.030459 
L 305.163196 217.030459 
L 305.163196 217.770275 
L 306.173288 217.770275 
L 306.173288 216.290642 
L 308.193472 216.290642 
L 308.193472 217.030459 
L 309.203564 217.030459 
L 309.203564 217.400367 
L 310.213657 217.400367 
L 310.213657 214.811009 
L 311.223749 214.811009 
L 311.223749 214.441101 
L 312.233841 214.441101 
L 312.233841 209.262385 
L 313.243933 209.262385 
L 313.243933 210.37211 
L 314.254025 210.37211 
L 314.254025 214.071193 
L 316.27421 214.071193 
L 316.27421 210.002202 
L 317.284302 210.002202 
L 317.284302 207.782752 
L 318.294394 207.782752 
L 318.294394 210.742018 
L 319.304486 210.742018 
L 319.304486 205.563303 
L 320.314579 205.563303 
L 320.314579 201.86422 
L 321.324671 201.86422 
L 321.324671 215.180917 
L 322.334763 215.180917 
L 322.334763 200.754495 
L 323.344855 200.754495 
L 323.344855 211.111927 
L 325.36504 211.111927 
L 325.36504 195.205872 
L 326.375132 195.205872 
L 326.375132 212.59156 
L 327.385224 212.59156 
L 327.385224 197.055413 
L 328.395316 197.055413 
L 328.395316 207.412844 
L 329.405408 207.412844 
L 329.405408 208.522569 
L 330.415501 208.522569 
L 330.415501 199.644771 
L 331.425593 199.644771 
L 331.425593 212.221651 
L 332.435685 212.221651 
L 332.435685 201.86422 
L 333.445777 201.86422 
L 333.445777 214.811009 
L 334.455869 214.811009 
L 334.455869 205.933211 
L 335.465962 205.933211 
L 335.465962 206.673028 
L 336.476054 206.673028 
L 336.476054 208.892477 
L 337.486146 208.892477 
L 337.486146 204.453578 
L 338.496238 204.453578 
L 338.496238 205.193394 
L 339.50633 205.193394 
L 339.50633 215.920734 
L 340.516423 215.920734 
L 340.516423 205.563303 
L 341.526515 205.563303 
L 341.526515 210.37211 
L 342.536607 210.37211 
L 342.536607 207.042936 
L 343.546699 207.042936 
L 343.546699 215.550826 
L 344.556791 215.550826 
L 344.556791 208.892477 
L 345.566884 208.892477 
L 345.566884 206.303119 
L 346.576976 206.303119 
L 346.576976 216.66055 
L 347.587068 216.66055 
L 347.587068 207.782752 
L 348.59716 207.782752 
L 348.59716 205.933211 
L 349.607252 205.933211 
L 349.607252 216.290642 
L 350.617345 216.290642 
L 350.617345 214.071193 
L 351.627437 214.071193 
L 351.627437 213.331376 
L 352.637529 213.331376 
L 352.637529 207.412844 
L 353.647621 207.412844 
L 353.647621 217.030459 
L 354.657713 217.030459 
L 354.657713 211.111927 
L 355.667806 211.111927 
L 355.667806 213.701284 
L 356.677898 213.701284 
L 356.677898 214.811009 
L 357.68799 214.811009 
L 357.68799 212.59156 
L 358.698082 212.59156 
L 358.698082 213.331376 
L 359.708174 213.331376 
L 359.708174 216.66055 
L 360.718267 216.66055 
L 360.718267 215.920734 
L 361.728359 215.920734 
L 361.728359 217.400367 
L 362.738451 217.400367 
L 362.738451 215.920734 
L 363.748543 215.920734 
L 363.748543 218.88 
L 364.758635 218.88 
L 364.758635 217.400367 
L 365.768728 217.400367 
L 365.768728 217.400367 
" clip-path="url(#pff69d764ec)" style="fill: none; stroke: #ff7f0e; stroke-width: 1.5; stroke-linecap: square"/>
   </g>
   <g id="line2d_17">
    <path d="M 62.171233 205.193394 
L 63.184941 205.193394 
L 63.184941 179.669725 
L 64.198648 179.669725 
L 64.198648 172.27156 
L 65.212355 172.27156 
L 65.212355 144.52844 
L 66.226062 144.52844 
L 66.226062 127.142752 
L 67.239769 127.142752 
L 67.239769 108.277431 
L 68.253477 108.277431 
L 68.253477 115.675596 
L 69.267184 115.675596 
L 69.267184 117.155229 
L 70.280891 117.155229 
L 70.280891 111.606606 
L 71.294598 111.606606 
L 71.294598 107.907523 
L 72.308306 107.907523 
L 72.308306 98.289908 
L 73.322013 98.289908 
L 73.322013 107.537615 
L 74.33572 107.537615 
L 74.33572 114.195963 
L 75.349427 114.195963 
L 75.349427 94.590826 
L 76.363134 94.590826 
L 76.363134 76.465321 
L 77.376842 76.465321 
L 77.376842 87.192661 
L 78.390549 87.192661 
L 78.390549 76.095413 
L 79.404256 76.095413 
L 79.404256 71.286606 
L 80.417963 71.286606 
L 80.417963 77.944954 
L 81.431671 77.944954 
L 81.431671 80.534312 
L 82.445378 80.534312 
L 82.445378 80.90422 
L 83.459085 80.90422 
L 83.459085 60.189358 
L 84.472792 60.189358 
L 84.472792 52.051376 
L 85.486499 52.051376 
L 85.486499 62.038899 
L 86.500207 62.038899 
L 86.500207 58.709725 
L 87.513914 58.709725 
L 87.513914 67.957431 
L 88.527621 67.957431 
L 88.527621 60.559266 
L 89.541328 60.559266 
L 89.541328 75.355596 
L 90.555036 75.355596 
L 90.555036 60.189358 
L 91.568743 60.189358 
L 91.568743 74.245872 
L 92.58245 74.245872 
L 92.58245 76.095413 
L 93.596157 76.095413 
L 93.596157 69.437064 
L 95.623572 69.437064 
L 95.623572 79.794495 
L 96.637279 79.794495 
L 96.637279 87.192661 
L 97.650986 87.192661 
L 97.650986 82.753761 
L 98.664693 82.753761 
L 98.664693 91.261651 
L 99.678401 91.261651 
L 99.678401 100.13945 
L 101.705815 100.13945 
L 101.705815 98.659817 
L 102.719522 98.659817 
L 102.719522 122.703853 
L 103.733229 122.703853 
L 103.733229 134.171009 
L 104.746937 134.171009 
L 104.746937 134.540917 
L 105.760644 134.540917 
L 105.760644 128.252477 
L 106.774351 128.252477 
L 106.774351 138.609908 
L 107.788058 138.609908 
L 107.788058 145.268257 
L 108.801766 145.268257 
L 108.801766 152.296514 
L 109.815473 152.296514 
L 109.815473 156.365505 
L 110.82918 156.365505 
L 110.82918 172.27156 
L 111.842887 172.27156 
L 111.842887 168.572477 
L 112.856594 168.572477 
L 112.856594 180.409541 
L 113.870302 180.409541 
L 113.870302 178.190092 
L 114.884009 178.190092 
L 114.884009 185.218349 
L 115.897716 185.218349 
L 115.897716 189.657248 
L 116.911423 189.657248 
L 116.911423 189.287339 
L 117.925131 189.287339 
L 117.925131 171.901651 
L 119.952545 171.901651 
L 119.952545 149.707156 
L 120.966252 149.707156 
L 120.966252 143.418716 
L 121.979959 143.418716 
L 121.979959 137.870092 
L 122.993667 137.870092 
L 122.993667 120.854312 
L 124.007374 120.854312 
L 124.007374 96.070459 
L 125.021081 96.070459 
L 125.021081 114.565872 
L 126.034788 114.565872 
L 126.034788 116.045505 
L 127.048496 116.045505 
L 127.048496 116.415413 
L 128.062203 116.415413 
L 128.062203 124.183486 
L 129.07591 124.183486 
L 129.07591 121.964037 
L 130.089617 121.964037 
L 130.089617 114.565872 
L 131.103324 114.565872 
L 131.103324 122.703853 
L 132.117032 122.703853 
L 132.117032 121.594128 
L 133.130739 121.594128 
L 133.130739 128.622385 
L 134.144446 128.622385 
L 134.144446 131.95156 
L 135.158153 131.95156 
L 135.158153 129.362202 
L 136.171861 129.362202 
L 136.171861 123.813578 
L 137.185568 123.813578 
L 137.185568 133.431193 
L 138.199275 133.431193 
L 138.199275 123.073761 
L 139.212982 123.073761 
L 139.212982 133.061284 
L 140.226689 133.061284 
L 140.226689 135.280734 
L 141.240397 135.280734 
L 141.240397 127.512661 
L 142.254104 127.512661 
L 142.254104 128.252477 
L 143.267811 128.252477 
L 143.267811 133.801101 
L 144.281518 133.801101 
L 144.281518 137.130275 
L 145.295226 137.130275 
L 145.295226 135.280734 
L 146.308933 135.280734 
L 146.308933 129.362202 
L 147.32264 129.362202 
L 147.32264 140.089541 
L 148.336347 140.089541 
L 148.336347 135.650642 
L 149.350054 135.650642 
L 149.350054 143.048807 
L 150.363762 143.048807 
L 150.363762 138.979817 
L 151.377469 138.979817 
L 151.377469 136.760367 
L 152.391176 136.760367 
L 152.391176 147.487706 
L 153.404883 147.487706 
L 153.404883 144.898349 
L 154.418591 144.898349 
L 154.418591 146.74789 
L 155.432298 146.74789 
L 155.432298 134.540917 
L 156.446005 134.540917 
L 156.446005 151.186789 
L 157.459712 151.186789 
L 157.459712 155.25578 
L 158.473419 155.25578 
L 158.473419 153.776147 
L 159.487127 153.776147 
L 159.487127 161.174312 
L 160.500834 161.174312 
L 160.500834 156.735413 
L 161.514541 156.735413 
L 161.514541 153.406239 
L 162.528248 153.406239 
L 162.528248 153.03633 
L 163.541956 153.03633 
L 163.541956 163.023853 
L 164.555663 163.023853 
L 164.555663 164.133578 
L 165.56937 164.133578 
L 165.56937 172.27156 
L 166.583077 172.27156 
L 166.583077 167.092844 
L 167.596784 167.092844 
L 167.596784 167.832661 
L 168.610492 167.832661 
L 168.610492 165.983119 
L 169.624199 165.983119 
L 169.624199 171.161835 
L 170.637906 171.161835 
L 170.637906 173.381284 
L 171.651613 173.381284 
L 171.651613 160.434495 
L 172.665321 160.434495 
L 172.665321 159.694679 
L 173.679028 159.694679 
L 173.679028 160.434495 
L 174.692735 160.434495 
L 174.692735 150.446972 
L 175.706442 150.446972 
L 175.706442 154.146055 
L 176.720149 154.146055 
L 176.720149 158.215046 
L 177.733857 158.215046 
L 177.733857 153.03633 
L 178.747564 153.03633 
L 178.747564 148.227523 
L 179.761271 148.227523 
L 179.761271 161.54422 
L 180.774978 161.54422 
L 180.774978 150.077064 
L 181.788686 150.077064 
L 181.788686 167.832661 
L 182.802393 167.832661 
L 182.802393 168.572477 
L 183.8161 168.572477 
L 183.8161 173.011376 
L 184.829807 173.011376 
L 184.829807 175.230826 
L 185.843514 175.230826 
L 185.843514 176.710459 
L 186.857222 176.710459 
L 186.857222 173.751193 
L 187.870929 173.751193 
L 187.870929 173.381284 
L 188.884636 173.381284 
L 188.884636 168.202569 
L 189.898343 168.202569 
L 189.898343 164.873394 
L 190.912051 164.873394 
L 190.912051 174.491009 
L 191.925758 174.491009 
L 191.925758 174.121101 
L 192.939465 174.121101 
L 192.939465 163.393761 
L 193.953172 163.393761 
L 193.953172 174.860917 
L 194.966879 174.860917 
L 194.966879 182.628991 
L 195.980587 182.628991 
L 195.980587 173.751193 
L 196.994294 173.751193 
L 196.994294 178.190092 
L 198.008001 178.190092 
L 198.008001 167.832661 
L 199.021708 167.832661 
L 199.021708 178.190092 
L 200.035416 178.190092 
L 200.035416 177.820183 
L 201.049123 177.820183 
L 201.049123 193.726239 
L 202.06283 193.726239 
L 202.06283 178.190092 
L 203.076537 178.190092 
L 203.076537 186.328073 
L 204.090244 186.328073 
L 204.090244 189.657248 
L 205.103952 189.657248 
L 205.103952 185.958165 
L 207.131366 185.958165 
L 207.131366 192.616514 
L 208.145073 192.616514 
L 208.145073 193.35633 
L 209.158781 193.35633 
L 209.158781 194.466055 
L 210.172488 194.466055 
L 210.172488 187.437798 
L 211.186195 187.437798 
L 211.186195 194.835963 
L 212.199902 194.835963 
L 212.199902 195.205872 
L 213.213609 195.205872 
L 213.213609 198.904954 
L 215.241024 198.904954 
L 215.241024 192.246606 
L 216.254731 192.246606 
L 216.254731 193.35633 
L 217.268438 193.35633 
L 217.268438 198.904954 
L 218.282146 198.904954 
L 218.282146 197.795229 
L 219.295853 197.795229 
L 219.295853 191.506789 
L 220.30956 191.506789 
L 220.30956 194.096147 
L 221.323267 194.096147 
L 221.323267 187.06789 
L 222.336974 187.06789 
L 222.336974 188.177615 
L 223.350682 188.177615 
L 223.350682 190.766972 
L 224.364389 190.766972 
L 224.364389 188.917431 
L 225.378096 188.917431 
L 225.378096 185.958165 
L 226.391803 185.958165 
L 226.391803 192.246606 
L 228.419218 192.246606 
L 228.419218 200.754495 
L 229.432925 200.754495 
L 229.432925 200.384587 
L 230.446632 200.384587 
L 230.446632 199.644771 
L 231.460339 199.644771 
L 231.460339 200.754495 
L 233.487754 200.754495 
L 233.487754 200.384587 
L 234.501461 200.384587 
L 234.501461 201.86422 
L 235.515168 201.86422 
L 235.515168 203.343853 
L 236.528876 203.343853 
L 236.528876 199.274862 
L 237.542583 199.274862 
L 237.542583 200.754495 
L 238.55629 200.754495 
L 238.55629 201.494312 
L 239.569997 201.494312 
L 239.569997 205.563303 
L 240.583704 205.563303 
L 240.583704 204.823486 
L 241.597412 204.823486 
L 241.597412 206.673028 
L 242.611119 206.673028 
L 242.611119 201.86422 
L 243.624826 201.86422 
L 243.624826 207.782752 
L 244.638533 207.782752 
L 244.638533 205.563303 
L 245.652241 205.563303 
L 245.652241 209.632294 
L 246.665948 209.632294 
L 246.665948 208.522569 
L 248.693362 208.522569 
L 248.693362 210.37211 
L 249.707069 210.37211 
L 249.707069 209.262385 
L 250.720777 209.262385 
L 250.720777 211.481835 
L 251.734484 211.481835 
L 251.734484 209.632294 
L 252.748191 209.632294 
L 252.748191 210.37211 
L 253.761898 210.37211 
L 253.761898 212.221651 
L 254.775606 212.221651 
L 254.775606 211.851743 
L 255.789313 211.851743 
L 255.789313 214.441101 
L 256.80302 214.441101 
L 256.80302 212.59156 
L 257.816727 212.59156 
L 257.816727 214.811009 
L 259.844142 214.811009 
L 259.844142 212.961468 
L 260.857849 212.961468 
L 260.857849 213.701284 
L 261.871556 213.701284 
L 261.871556 214.071193 
L 262.885263 214.071193 
L 262.885263 213.701284 
L 263.898971 213.701284 
L 263.898971 215.180917 
L 264.912678 215.180917 
L 264.912678 214.811009 
L 265.926385 214.811009 
L 265.926385 210.002202 
L 266.940092 210.002202 
L 266.940092 210.742018 
L 267.953799 210.742018 
L 267.953799 209.632294 
L 268.967507 209.632294 
L 268.967507 210.002202 
L 269.981214 210.002202 
L 269.981214 209.632294 
L 270.994921 209.632294 
L 270.994921 205.193394 
L 272.008628 205.193394 
L 272.008628 207.412844 
L 273.022336 207.412844 
L 273.022336 207.042936 
L 274.036043 207.042936 
L 274.036043 209.262385 
L 275.04975 209.262385 
L 275.04975 209.632294 
L 277.077164 209.632294 
L 277.077164 211.111927 
L 278.090872 211.111927 
L 278.090872 208.892477 
L 279.104579 208.892477 
L 279.104579 214.811009 
L 280.118286 214.811009 
L 280.118286 212.961468 
L 281.131993 212.961468 
L 281.131993 210.002202 
L 282.145701 210.002202 
L 282.145701 212.221651 
L 283.159408 212.221651 
L 283.159408 210.742018 
L 284.173115 210.742018 
L 284.173115 212.221651 
L 287.214237 212.221651 
L 287.214237 211.481835 
L 289.241651 211.481835 
L 289.241651 214.811009 
L 290.255358 214.811009 
L 290.255358 215.550826 
L 291.269066 215.550826 
L 291.269066 212.961468 
L 292.282773 212.961468 
L 292.282773 215.550826 
L 293.29648 215.550826 
L 293.29648 214.441101 
L 295.323894 214.441101 
L 295.323894 215.920734 
L 296.337602 215.920734 
L 296.337602 214.071193 
L 297.351309 214.071193 
L 297.351309 216.66055 
L 299.378723 216.66055 
L 299.378723 217.770275 
L 300.392431 217.770275 
L 300.392431 215.920734 
L 301.406138 215.920734 
L 301.406138 216.290642 
L 302.419845 216.290642 
L 302.419845 216.66055 
L 303.433552 216.66055 
L 303.433552 216.290642 
L 304.447259 216.290642 
L 304.447259 217.400367 
L 306.474674 217.400367 
L 306.474674 216.66055 
L 307.488381 216.66055 
L 307.488381 216.290642 
L 308.502088 216.290642 
L 308.502088 216.66055 
L 309.515796 216.66055 
L 309.515796 215.920734 
L 310.529503 215.920734 
L 310.529503 214.441101 
L 311.54321 214.441101 
L 311.54321 212.59156 
L 312.556917 212.59156 
L 312.556917 209.632294 
L 313.570624 209.632294 
L 313.570624 213.331376 
L 314.584332 213.331376 
L 314.584332 207.782752 
L 315.598039 207.782752 
L 315.598039 213.331376 
L 316.611746 213.331376 
L 316.611746 209.262385 
L 317.625453 209.262385 
L 317.625453 209.632294 
L 318.639161 209.632294 
L 318.639161 211.481835 
L 319.652868 211.481835 
L 319.652868 207.042936 
L 320.666575 207.042936 
L 320.666575 207.412844 
L 321.680282 207.412844 
L 321.680282 205.933211 
L 322.693989 205.933211 
L 322.693989 204.823486 
L 323.707697 204.823486 
L 323.707697 206.303119 
L 324.721404 206.303119 
L 324.721404 204.823486 
L 325.735111 204.823486 
L 325.735111 209.632294 
L 326.748818 209.632294 
L 326.748818 204.08367 
L 327.762526 204.08367 
L 327.762526 202.604037 
L 328.776233 202.604037 
L 328.776233 203.713761 
L 329.78994 203.713761 
L 329.78994 210.002202 
L 330.803647 210.002202 
L 330.803647 205.933211 
L 332.831062 205.933211 
L 332.831062 210.002202 
L 333.844769 210.002202 
L 333.844769 206.303119 
L 334.858476 206.303119 
L 334.858476 205.933211 
L 335.872183 205.933211 
L 335.872183 209.262385 
L 336.885891 209.262385 
L 336.885891 208.892477 
L 337.899598 208.892477 
L 337.899598 206.303119 
L 338.913305 206.303119 
L 338.913305 207.412844 
L 339.927012 207.412844 
L 339.927012 208.522569 
L 340.940719 208.522569 
L 340.940719 210.37211 
L 342.968134 210.37211 
L 342.968134 211.111927 
L 343.981841 211.111927 
L 343.981841 209.262385 
L 344.995548 209.262385 
L 344.995548 211.111927 
L 346.009256 211.111927 
L 346.009256 205.933211 
L 347.022963 205.933211 
L 347.022963 211.481835 
L 348.03667 211.481835 
L 348.03667 213.331376 
L 349.050377 213.331376 
L 349.050377 209.632294 
L 350.064084 209.632294 
L 350.064084 211.111927 
L 351.077792 211.111927 
L 351.077792 212.961468 
L 352.091499 212.961468 
L 352.091499 212.221651 
L 353.105206 212.221651 
L 353.105206 213.701284 
L 354.118913 213.701284 
L 354.118913 212.221651 
L 355.132621 212.221651 
L 355.132621 214.811009 
L 356.146328 214.811009 
L 356.146328 212.221651 
L 357.160035 212.221651 
L 357.160035 212.961468 
L 358.173742 212.961468 
L 358.173742 214.071193 
L 359.187449 214.071193 
L 359.187449 215.920734 
L 360.201157 215.920734 
L 360.201157 215.180917 
L 361.214864 215.180917 
L 361.214864 216.66055 
L 362.228571 216.66055 
L 362.228571 216.290642 
L 363.242278 216.290642 
L 363.242278 218.140183 
L 364.255986 218.140183 
L 364.255986 217.770275 
L 365.269693 217.770275 
L 365.269693 217.400367 
L 366.2834 217.400367 
L 366.2834 217.400367 
" clip-path="url(#pff69d764ec)" style="fill: none; stroke: #2ca02c; stroke-width: 1.5; stroke-linecap: square"/>
   </g>
   <g id="patch_3">
    <path d="M 46.965625 228.96 
L 46.965625 7.2 
" style="fill: none; stroke: #000000; stroke-width: 0.8; stroke-linejoin: miter; stroke-linecap: square"/>
   </g>
   <g id="patch_4">
    <path d="M 381.765625 228.96 
L 381.765625 7.2 
" style="fill: none; stroke: #000000; stroke-width: 0.8; stroke-linejoin: miter; stroke-linecap: square"/>
   </g>
   <g id="patch_5">
    <path d="M 46.965625 228.96 
L 381.765625 228.96 
" style="fill: none; stroke: #000000; stroke-width: 0.8; stroke-linejoin: miter; stroke-linecap: square"/>
   </g>
   <g id="patch_6">
    <path d="M 46.965625 7.2 
L 381.765625 7.2 
" style="fill: none; stroke: #000000; stroke-width: 0.8; stroke-linejoin: miter; stroke-linecap: square"/>
   </g>
   <g id="legend_1">
    <g id="patch_7">
     <path d="M 305.3875 59.234375 
L 374.765625 59.234375 
Q 376.765625 59.234375 376.765625 57.234375 
L 376.765625 14.2 
Q 376.765625 12.2 374.765625 12.2 
L 305.3875 12.2 
Q 303.3875 12.2 303.3875 14.2 
L 303.3875 57.234375 
Q 303.3875 59.234375 305.3875 59.234375 
z
" style="fill: #ffffff; opacity: 0.8; stroke: #cccccc; stroke-linejoin: miter"/>
    </g>
    <g id="line2d_18">
     <path d="M 307.3875 20.298438 
L 307.3875 20.298438 
L 317.3875 20.298438 
L 317.3875 20.298438 
L 327.3875 20.298438 
" style="fill: none; stroke: #1f77b4; stroke-width: 1.5; stroke-linecap: square"/>
    </g>
    <g id="text_17">
     <!-- naive -->
     <g transform="translate(335.3875 23.798438) scale(0.1 -0.1)">
      <defs>
       <path id="DejaVuSans-69" d="M 603 3500 
L 1178 3500 
L 1178 0 
L 603 0 
L 603 3500 
z
M 603 4863 
L 1178 4863 
L 1178 4134 
L 603 4134 
L 603 4863 
z
" transform="scale(0.015625)"/>
      </defs>
      <use xlink:href="#DejaVuSans-6e"/>
      <use xlink:href="#DejaVuSans-61" transform="translate(63.378906 0)"/>
      <use xlink:href="#DejaVuSans-69" transform="translate(124.658203 0)"/>
      <use xlink:href="#DejaVuSans-76" transform="translate(152.441406 0)"/>
      <use xlink:href="#DejaVuSans-65" transform="translate(211.621094 0)"/>
     </g>
    </g>
    <g id="line2d_19">
     <path d="M 307.3875 34.976562 
L 307.3875 34.976562 
L 317.3875 34.976562 
L 317.3875 34.976562 
L 327.3875 34.976562 
" style="fill: none; stroke: #ff7f0e; stroke-width: 1.5; stroke-linecap: square"/>
    </g>
    <g id="text_18">
     <!-- wfm -->
     <g transform="translate(335.3875 38.476562) scale(0.1 -0.1)">
      <defs>
       <path id="DejaVuSans-66" d="M 2375 4863 
L 2375 4384 
L 1825 4384 
Q 1516 4384 1395 4259 
Q 1275 4134 1275 3809 
L 1275 3500 
L 2222 3500 
L 2222 3053 
L 1275 3053 
L 1275 0 
L 697 0 
L 697 3053 
L 147 3053 
L 147 3500 
L 697 3500 
L 697 3744 
Q 697 4328 969 4595 
Q 1241 4863 1831 4863 
L 2375 4863 
z
" transform="scale(0.015625)"/>
       <path id="DejaVuSans-6d" d="M 3328 2828 
Q 3544 3216 3844 3400 
Q 4144 3584 4550 3584 
Q 5097 3584 5394 3201 
Q 5691 2819 5691 2113 
L 5691 0 
L 5113 0 
L 5113 2094 
Q 5113 2597 4934 2840 
Q 4756 3084 4391 3084 
Q 3944 3084 3684 2787 
Q 3425 2491 3425 1978 
L 3425 0 
L 2847 0 
L 2847 2094 
Q 2847 2600 2669 2842 
Q 2491 3084 2119 3084 
Q 1678 3084 1418 2786 
Q 1159 2488 1159 1978 
L 1159 0 
L 581 0 
L 581 3500 
L 1159 3500 
L 1159 2956 
Q 1356 3278 1631 3431 
Q 1906 3584 2284 3584 
Q 2666 3584 2933 3390 
Q 3200 3197 3328 2828 
z
" transform="scale(0.015625)"/>
      </defs>
      <use xlink:href="#DejaVuSans-77"/>
      <use xlink:href="#DejaVuSans-66" transform="translate(81.787109 0)"/>
      <use xlink:href="#DejaVuSans-6d" transform="translate(116.992188 0)"/>
     </g>
    </g>
    <g id="line2d_20">
     <path d="M 307.3875 49.654688 
L 307.3875 49.654688 
L 317.3875 49.654688 
L 317.3875 49.654688 
L 327.3875 49.654688 
" style="fill: none; stroke: #2ca02c; stroke-width: 1.5; stroke-linecap: square"/>
    </g>
    <g id="text_19">
     <!-- original -->
     <g transform="translate(335.3875 53.154688) scale(0.1 -0.1)">
      <defs>
       <path id="DejaVuSans-72" d="M 2631 2963 
Q 2534 3019 2420 3045 
Q 2306 3072 2169 3072 
Q 1681 3072 1420 2755 
Q 1159 2438 1159 1844 
L 1159 0 
L 581 0 
L 581 3500 
L 1159 3500 
L 1159 2956 
Q 1341 3275 1631 3429 
Q 1922 3584 2338 3584 
Q 2397 3584 2469 3576 
Q 2541 3569 2628 3553 
L 2631 2963 
z
" transform="scale(0.015625)"/>
      </defs>
      <use xlink:href="#DejaVuSans-6f"/>
      <use xlink:href="#DejaVuSans-72" transform="translate(61.181641 0)"/>
      <use xlink:href="#DejaVuSans-69" transform="translate(102.294922 0)"/>
      <use xlink:href="#DejaVuSans-67" transform="translate(130.078125 0)"/>
      <use xlink:href="#DejaVuSans-69" transform="translate(193.554688 0)"/>
      <use xlink:href="#DejaVuSans-6e" transform="translate(221.337891 0)"/>
      <use xlink:href="#DejaVuSans-61" transform="translate(284.716797 0)"/>
      <use xlink:href="#DejaVuSans-6c" transform="translate(345.996094 0)"/>
     </g>
    </g>
   </g>
  </g>
 </g>
 <defs>
  <clipPath id="pff69d764ec">
   <rect x="46.965625" y="7.2" width="334.8" height="221.76"/>
  </clipPath>
 </defs>
</svg>
